<?xml version="1.0" encoding="utf-8" standalone="no"?>
<!DOCTYPE svg PUBLIC "-//W3C//DTD SVG 1.1//EN"
  "http://www.w3.org/Graphics/SVG/1.1/DTD/svg11.dtd">
<svg xmlns:xlink="http://www.w3.org/1999/xlink" width="1008pt" height="648pt" viewBox="0 0 1008 648" xmlns="http://www.w3.org/2000/svg" version="1.1">
 <metadata>
  <rdf:RDF xmlns:dc="http://purl.org/dc/elements/1.1/" xmlns:cc="http://creativecommons.org/ns#" xmlns:rdf="http://www.w3.org/1999/02/22-rdf-syntax-ns#">
   <cc:Work>
    <dc:type rdf:resource="http://purl.org/dc/dcmitype/StillImage"/>
    <dc:date>2024-06-03T10:45:47.951610</dc:date>
    <dc:format>image/svg+xml</dc:format>
    <dc:creator>
     <cc:Agent>
      <dc:title>Matplotlib v3.9.0, https://matplotlib.org/</dc:title>
     </cc:Agent>
    </dc:creator>
   </cc:Work>
  </rdf:RDF>
 </metadata>
 <defs>
  <style type="text/css">*{stroke-linejoin: round; stroke-linecap: butt}</style>
 </defs>
 <g id="figure_1">
  <g id="patch_1">
   <path d="M 0 648 
L 1008 648 
L 1008 0 
L 0 0 
z
" style="fill: #ffffff"/>
  </g>
  <g id="axes_1">
   <g id="patch_2">
    <path d="M 100.8 131.611034 
L 987.84 131.611034 
L 987.84 38.88 
L 100.8 38.88 
z
" style="fill: #eeeeee"/>
   </g>
   <g id="matplotlib.axis_1">
    <g id="xtick_1">
     <g id="line2d_1">
      <path d="M 141.12 131.611034 
L 141.12 38.88 
" clip-path="url(#p8df5dbe80b)" style="fill: none; stroke-dasharray: 1.85,0.8; stroke-dashoffset: 0; stroke: #b2b2b2; stroke-width: 0.5"/>
     </g>
     <g id="line2d_2">
      <defs>
       <path id="md7b72c257d" d="M 0 0 
L 0 -3.5 
" style="stroke: #000000; stroke-width: 0.8"/>
      </defs>
      <g>
       <use xlink:href="#md7b72c257d" x="141.12" y="131.611034" style="stroke: #000000; stroke-width: 0.8"/>
      </g>
     </g>
    </g>
    <g id="xtick_2">
     <g id="line2d_3">
      <path d="M 302.4 131.611034 
L 302.4 38.88 
" clip-path="url(#p8df5dbe80b)" style="fill: none; stroke-dasharray: 1.85,0.8; stroke-dashoffset: 0; stroke: #b2b2b2; stroke-width: 0.5"/>
     </g>
     <g id="line2d_4">
      <g>
       <use xlink:href="#md7b72c257d" x="302.4" y="131.611034" style="stroke: #000000; stroke-width: 0.8"/>
      </g>
     </g>
    </g>
    <g id="xtick_3">
     <g id="line2d_5">
      <path d="M 463.68 131.611034 
L 463.68 38.88 
" clip-path="url(#p8df5dbe80b)" style="fill: none; stroke-dasharray: 1.85,0.8; stroke-dashoffset: 0; stroke: #b2b2b2; stroke-width: 0.5"/>
     </g>
     <g id="line2d_6">
      <g>
       <use xlink:href="#md7b72c257d" x="463.68" y="131.611034" style="stroke: #000000; stroke-width: 0.8"/>
      </g>
     </g>
    </g>
    <g id="xtick_4">
     <g id="line2d_7">
      <path d="M 624.96 131.611034 
L 624.96 38.88 
" clip-path="url(#p8df5dbe80b)" style="fill: none; stroke-dasharray: 1.85,0.8; stroke-dashoffset: 0; stroke: #b2b2b2; stroke-width: 0.5"/>
     </g>
     <g id="line2d_8">
      <g>
       <use xlink:href="#md7b72c257d" x="624.96" y="131.611034" style="stroke: #000000; stroke-width: 0.8"/>
      </g>
     </g>
    </g>
    <g id="xtick_5">
     <g id="line2d_9">
      <path d="M 786.24 131.611034 
L 786.24 38.88 
" clip-path="url(#p8df5dbe80b)" style="fill: none; stroke-dasharray: 1.85,0.8; stroke-dashoffset: 0; stroke: #b2b2b2; stroke-width: 0.5"/>
     </g>
     <g id="line2d_10">
      <g>
       <use xlink:href="#md7b72c257d" x="786.24" y="131.611034" style="stroke: #000000; stroke-width: 0.8"/>
      </g>
     </g>
    </g>
    <g id="xtick_6">
     <g id="line2d_11">
      <path d="M 947.52 131.611034 
L 947.52 38.88 
" clip-path="url(#p8df5dbe80b)" style="fill: none; stroke-dasharray: 1.85,0.8; stroke-dashoffset: 0; stroke: #b2b2b2; stroke-width: 0.5"/>
     </g>
     <g id="line2d_12">
      <g>
       <use xlink:href="#md7b72c257d" x="947.52" y="131.611034" style="stroke: #000000; stroke-width: 0.8"/>
      </g>
     </g>
    </g>
   </g>
   <g id="matplotlib.axis_2">
    <g id="ytick_1">
     <g id="line2d_13">
      <path d="M 100.8 98.340394 
L 987.84 98.340394 
" clip-path="url(#p8df5dbe80b)" style="fill: none; stroke-dasharray: 1.85,0.8; stroke-dashoffset: 0; stroke: #b2b2b2; stroke-width: 0.5"/>
     </g>
     <g id="line2d_14">
      <defs>
       <path id="m7c4f95a0df" d="M 0 0 
L 3.5 0 
" style="stroke: #000000; stroke-width: 0.8"/>
      </defs>
      <g>
       <use xlink:href="#m7c4f95a0df" x="100.8" y="98.340394" style="stroke: #000000; stroke-width: 0.8"/>
      </g>
     </g>
     <g id="text_1">
      <!-- −200 V -->
      <g transform="translate(44.819688 103.6593) scale(0.14 -0.14)">
       <defs>
        <path id="DejaVuSans-2212" d="M 678 2272 
L 4684 2272 
L 4684 1741 
L 678 1741 
L 678 2272 
z
" transform="scale(0.015625)"/>
        <path id="DejaVuSans-32" d="M 1228 531 
L 3431 531 
L 3431 0 
L 469 0 
L 469 531 
Q 828 903 1448 1529 
Q 2069 2156 2228 2338 
Q 2531 2678 2651 2914 
Q 2772 3150 2772 3378 
Q 2772 3750 2511 3984 
Q 2250 4219 1831 4219 
Q 1534 4219 1204 4116 
Q 875 4013 500 3803 
L 500 4441 
Q 881 4594 1212 4672 
Q 1544 4750 1819 4750 
Q 2544 4750 2975 4387 
Q 3406 4025 3406 3419 
Q 3406 3131 3298 2873 
Q 3191 2616 2906 2266 
Q 2828 2175 2409 1742 
Q 1991 1309 1228 531 
z
" transform="scale(0.015625)"/>
        <path id="DejaVuSans-30" d="M 2034 4250 
Q 1547 4250 1301 3770 
Q 1056 3291 1056 2328 
Q 1056 1369 1301 889 
Q 1547 409 2034 409 
Q 2525 409 2770 889 
Q 3016 1369 3016 2328 
Q 3016 3291 2770 3770 
Q 2525 4250 2034 4250 
z
M 2034 4750 
Q 2819 4750 3233 4129 
Q 3647 3509 3647 2328 
Q 3647 1150 3233 529 
Q 2819 -91 2034 -91 
Q 1250 -91 836 529 
Q 422 1150 422 2328 
Q 422 3509 836 4129 
Q 1250 4750 2034 4750 
z
" transform="scale(0.015625)"/>
        <path id="DejaVuSans-20" transform="scale(0.015625)"/>
        <path id="DejaVuSans-56" d="M 1831 0 
L 50 4666 
L 709 4666 
L 2188 738 
L 3669 4666 
L 4325 4666 
L 2547 0 
L 1831 0 
z
" transform="scale(0.015625)"/>
       </defs>
       <use xlink:href="#DejaVuSans-2212"/>
       <use xlink:href="#DejaVuSans-32" x="83.789062"/>
       <use xlink:href="#DejaVuSans-30" x="147.412109"/>
       <use xlink:href="#DejaVuSans-30" x="211.035156"/>
       <use xlink:href="#DejaVuSans-20" x="274.658203"/>
       <use xlink:href="#DejaVuSans-56" x="306.445312"/>
      </g>
     </g>
    </g>
    <g id="ytick_2">
     <g id="line2d_15">
      <path d="M 100.8 45.027377 
L 987.84 45.027377 
" clip-path="url(#p8df5dbe80b)" style="fill: none; stroke-dasharray: 1.85,0.8; stroke-dashoffset: 0; stroke: #b2b2b2; stroke-width: 0.5"/>
     </g>
     <g id="line2d_16">
      <g>
       <use xlink:href="#m7c4f95a0df" x="100.8" y="45.027377" style="stroke: #000000; stroke-width: 0.8"/>
      </g>
     </g>
     <g id="text_2">
      <!-- 0 V -->
      <g transform="translate(74.36625 50.346284) scale(0.14 -0.14)">
       <use xlink:href="#DejaVuSans-30"/>
       <use xlink:href="#DejaVuSans-20" x="63.623047"/>
       <use xlink:href="#DejaVuSans-56" x="95.410156"/>
      </g>
     </g>
    </g>
    <g id="text_3">
     <g id="patch_3">
      <path d="M 34.8768 131.080205 
L 34.8768 39.41083 
L 11.247425 39.41083 
L 11.247425 131.080205 
z
" style="fill: #ffff00; opacity: 0.2; stroke: #eeeeee; stroke-width: 0.5; stroke-linejoin: miter"/>
     </g>
     <!-- VPULSE BBI -->
     <g transform="translate(26.925238 126.040205) rotate(-90) scale(0.14 -0.14)">
      <defs>
       <path id="DejaVuSans-50" d="M 1259 4147 
L 1259 2394 
L 2053 2394 
Q 2494 2394 2734 2622 
Q 2975 2850 2975 3272 
Q 2975 3691 2734 3919 
Q 2494 4147 2053 4147 
L 1259 4147 
z
M 628 4666 
L 2053 4666 
Q 2838 4666 3239 4311 
Q 3641 3956 3641 3272 
Q 3641 2581 3239 2228 
Q 2838 1875 2053 1875 
L 1259 1875 
L 1259 0 
L 628 0 
L 628 4666 
z
" transform="scale(0.015625)"/>
       <path id="DejaVuSans-55" d="M 556 4666 
L 1191 4666 
L 1191 1831 
Q 1191 1081 1462 751 
Q 1734 422 2344 422 
Q 2950 422 3222 751 
Q 3494 1081 3494 1831 
L 3494 4666 
L 4128 4666 
L 4128 1753 
Q 4128 841 3676 375 
Q 3225 -91 2344 -91 
Q 1459 -91 1007 375 
Q 556 841 556 1753 
L 556 4666 
z
" transform="scale(0.015625)"/>
       <path id="DejaVuSans-4c" d="M 628 4666 
L 1259 4666 
L 1259 531 
L 3531 531 
L 3531 0 
L 628 0 
L 628 4666 
z
" transform="scale(0.015625)"/>
       <path id="DejaVuSans-53" d="M 3425 4513 
L 3425 3897 
Q 3066 4069 2747 4153 
Q 2428 4238 2131 4238 
Q 1616 4238 1336 4038 
Q 1056 3838 1056 3469 
Q 1056 3159 1242 3001 
Q 1428 2844 1947 2747 
L 2328 2669 
Q 3034 2534 3370 2195 
Q 3706 1856 3706 1288 
Q 3706 609 3251 259 
Q 2797 -91 1919 -91 
Q 1588 -91 1214 -16 
Q 841 59 441 206 
L 441 856 
Q 825 641 1194 531 
Q 1563 422 1919 422 
Q 2459 422 2753 634 
Q 3047 847 3047 1241 
Q 3047 1584 2836 1778 
Q 2625 1972 2144 2069 
L 1759 2144 
Q 1053 2284 737 2584 
Q 422 2884 422 3419 
Q 422 4038 858 4394 
Q 1294 4750 2059 4750 
Q 2388 4750 2728 4690 
Q 3069 4631 3425 4513 
z
" transform="scale(0.015625)"/>
       <path id="DejaVuSans-45" d="M 628 4666 
L 3578 4666 
L 3578 4134 
L 1259 4134 
L 1259 2753 
L 3481 2753 
L 3481 2222 
L 1259 2222 
L 1259 531 
L 3634 531 
L 3634 0 
L 628 0 
L 628 4666 
z
" transform="scale(0.015625)"/>
       <path id="DejaVuSans-42" d="M 1259 2228 
L 1259 519 
L 2272 519 
Q 2781 519 3026 730 
Q 3272 941 3272 1375 
Q 3272 1813 3026 2020 
Q 2781 2228 2272 2228 
L 1259 2228 
z
M 1259 4147 
L 1259 2741 
L 2194 2741 
Q 2656 2741 2882 2914 
Q 3109 3088 3109 3444 
Q 3109 3797 2882 3972 
Q 2656 4147 2194 4147 
L 1259 4147 
z
M 628 4666 
L 2241 4666 
Q 2963 4666 3353 4366 
Q 3744 4066 3744 3513 
Q 3744 3084 3544 2831 
Q 3344 2578 2956 2516 
Q 3422 2416 3680 2098 
Q 3938 1781 3938 1306 
Q 3938 681 3513 340 
Q 3088 0 2303 0 
L 628 0 
L 628 4666 
z
" transform="scale(0.015625)"/>
       <path id="DejaVuSans-49" d="M 628 4666 
L 1259 4666 
L 1259 0 
L 628 0 
L 628 4666 
z
" transform="scale(0.015625)"/>
      </defs>
      <use xlink:href="#DejaVuSans-56"/>
      <use xlink:href="#DejaVuSans-50" x="68.408203"/>
      <use xlink:href="#DejaVuSans-55" x="128.710938"/>
      <use xlink:href="#DejaVuSans-4c" x="201.904297"/>
      <use xlink:href="#DejaVuSans-53" x="257.617188"/>
      <use xlink:href="#DejaVuSans-45" x="321.09375"/>
      <use xlink:href="#DejaVuSans-20" x="384.277344"/>
      <use xlink:href="#DejaVuSans-42" x="416.064453"/>
      <use xlink:href="#DejaVuSans-42" x="484.667969"/>
      <use xlink:href="#DejaVuSans-49" x="553.271484"/>
     </g>
    </g>
   </g>
   <g id="line2d_17">
    <path d="M 141.12 45.027377 
L 466.937856 45.136282 
L 467.421696 46.425538 
L 475.646976 69.006772 
L 483.065856 89.863624 
L 484.678656 94.440546 
L 486.484992 99.673219 
L 489.96864 110.807642 
L 491.549184 115.853719 
L 492.807168 119.566971 
L 494.032896 120.153414 
L 494.871552 120.545265 
L 495.903744 121.017085 
L 496.484352 121.272988 
L 497.355264 121.656841 
L 497.935872 121.912744 
L 498.774528 122.269941 
L 500.355072 122.936354 
L 501.000192 123.202919 
L 502.096896 123.629423 
L 502.838784 123.922644 
L 503.935488 124.349149 
L 504.838656 124.677024 
L 505.516032 124.943589 
L 506.322432 125.25547 
L 507.677184 125.804594 
L 510.322176 126.790885 
L 510.93504 127.022796 
L 512.8704 127.395987 
L 531.353088 127.289361 
L 531.57888 126.801547 
L 549.868032 75.087922 
L 553.609728 63.292417 
L 557.319168 51.617666 
L 561.931776 49.3412 
L 567.286272 46.984578 
L 575.995392 43.484472 
L 576.866304 43.268927 
L 591.155712 43.108189 
L 597.961728 43.184799 
L 613.315584 43.746186 
L 641.088 44.46146 
L 666.73152 44.774399 
L 702.342144 44.945888 
L 750.371328 44.953885 
L 947.52 44.953885 
L 947.52 44.953885 
" clip-path="url(#p8df5dbe80b)" style="fill: none; stroke: #ff0000; stroke-width: 2; stroke-linecap: square"/>
   </g>
   <g id="patch_4">
    <path d="M 100.8 131.611034 
L 100.8 38.88 
" style="fill: none; stroke: #bcbcbc; stroke-width: 0.8; stroke-linejoin: miter; stroke-linecap: square"/>
   </g>
   <g id="patch_5">
    <path d="M 987.84 131.611034 
L 987.84 38.88 
" style="fill: none; stroke: #bcbcbc; stroke-width: 0.8; stroke-linejoin: miter; stroke-linecap: square"/>
   </g>
   <g id="patch_6">
    <path d="M 100.8 131.611034 
L 987.84 131.611034 
" style="fill: none; stroke: #bcbcbc; stroke-width: 0.8; stroke-linejoin: miter; stroke-linecap: square"/>
   </g>
   <g id="patch_7">
    <path d="M 100.8 38.88 
L 987.84 38.88 
" style="fill: none; stroke: #bcbcbc; stroke-width: 0.8; stroke-linejoin: miter; stroke-linecap: square"/>
   </g>
  </g>
  <g id="axes_2">
   <g id="patch_8">
    <path d="M 100.8 242.888276 
L 987.84 242.888276 
L 987.84 150.157241 
L 100.8 150.157241 
z
" style="fill: #eeeeee"/>
   </g>
   <g id="matplotlib.axis_3">
    <g id="xtick_7">
     <g id="line2d_18">
      <path d="M 141.12 242.888276 
L 141.12 150.157241 
" clip-path="url(#pa6651142d7)" style="fill: none; stroke-dasharray: 1.85,0.8; stroke-dashoffset: 0; stroke: #b2b2b2; stroke-width: 0.5"/>
     </g>
     <g id="line2d_19">
      <g>
       <use xlink:href="#md7b72c257d" x="141.12" y="242.888276" style="stroke: #000000; stroke-width: 0.8"/>
      </g>
     </g>
    </g>
    <g id="xtick_8">
     <g id="line2d_20">
      <path d="M 302.4 242.888276 
L 302.4 150.157241 
" clip-path="url(#pa6651142d7)" style="fill: none; stroke-dasharray: 1.85,0.8; stroke-dashoffset: 0; stroke: #b2b2b2; stroke-width: 0.5"/>
     </g>
     <g id="line2d_21">
      <g>
       <use xlink:href="#md7b72c257d" x="302.4" y="242.888276" style="stroke: #000000; stroke-width: 0.8"/>
      </g>
     </g>
    </g>
    <g id="xtick_9">
     <g id="line2d_22">
      <path d="M 463.68 242.888276 
L 463.68 150.157241 
" clip-path="url(#pa6651142d7)" style="fill: none; stroke-dasharray: 1.85,0.8; stroke-dashoffset: 0; stroke: #b2b2b2; stroke-width: 0.5"/>
     </g>
     <g id="line2d_23">
      <g>
       <use xlink:href="#md7b72c257d" x="463.68" y="242.888276" style="stroke: #000000; stroke-width: 0.8"/>
      </g>
     </g>
    </g>
    <g id="xtick_10">
     <g id="line2d_24">
      <path d="M 624.96 242.888276 
L 624.96 150.157241 
" clip-path="url(#pa6651142d7)" style="fill: none; stroke-dasharray: 1.85,0.8; stroke-dashoffset: 0; stroke: #b2b2b2; stroke-width: 0.5"/>
     </g>
     <g id="line2d_25">
      <g>
       <use xlink:href="#md7b72c257d" x="624.96" y="242.888276" style="stroke: #000000; stroke-width: 0.8"/>
      </g>
     </g>
    </g>
    <g id="xtick_11">
     <g id="line2d_26">
      <path d="M 786.24 242.888276 
L 786.24 150.157241 
" clip-path="url(#pa6651142d7)" style="fill: none; stroke-dasharray: 1.85,0.8; stroke-dashoffset: 0; stroke: #b2b2b2; stroke-width: 0.5"/>
     </g>
     <g id="line2d_27">
      <g>
       <use xlink:href="#md7b72c257d" x="786.24" y="242.888276" style="stroke: #000000; stroke-width: 0.8"/>
      </g>
     </g>
    </g>
    <g id="xtick_12">
     <g id="line2d_28">
      <path d="M 947.52 242.888276 
L 947.52 150.157241 
" clip-path="url(#pa6651142d7)" style="fill: none; stroke-dasharray: 1.85,0.8; stroke-dashoffset: 0; stroke: #b2b2b2; stroke-width: 0.5"/>
     </g>
     <g id="line2d_29">
      <g>
       <use xlink:href="#md7b72c257d" x="947.52" y="242.888276" style="stroke: #000000; stroke-width: 0.8"/>
      </g>
     </g>
    </g>
   </g>
   <g id="matplotlib.axis_4">
    <g id="ytick_3">
     <g id="line2d_30">
      <path d="M 100.8 219.175251 
L 987.84 219.175251 
" clip-path="url(#pa6651142d7)" style="fill: none; stroke-dasharray: 1.85,0.8; stroke-dashoffset: 0; stroke: #b2b2b2; stroke-width: 0.5"/>
     </g>
     <g id="line2d_31">
      <g>
       <use xlink:href="#m7c4f95a0df" x="100.8" y="219.175251" style="stroke: #000000; stroke-width: 0.8"/>
      </g>
     </g>
     <g id="text_4">
      <!-- 0 V -->
      <g transform="translate(74.36625 224.494157) scale(0.14 -0.14)">
       <use xlink:href="#DejaVuSans-30"/>
       <use xlink:href="#DejaVuSans-20" x="63.623047"/>
       <use xlink:href="#DejaVuSans-56" x="95.410156"/>
      </g>
     </g>
    </g>
    <g id="ytick_4">
     <g id="line2d_32">
      <path d="M 100.8 185.193624 
L 987.84 185.193624 
" clip-path="url(#pa6651142d7)" style="fill: none; stroke-dasharray: 1.85,0.8; stroke-dashoffset: 0; stroke: #b2b2b2; stroke-width: 0.5"/>
     </g>
     <g id="line2d_33">
      <g>
       <use xlink:href="#m7c4f95a0df" x="100.8" y="185.193624" style="stroke: #000000; stroke-width: 0.8"/>
      </g>
     </g>
     <g id="text_5">
      <!-- 1 V -->
      <g transform="translate(74.36625 190.51253) scale(0.14 -0.14)">
       <defs>
        <path id="DejaVuSans-31" d="M 794 531 
L 1825 531 
L 1825 4091 
L 703 3866 
L 703 4441 
L 1819 4666 
L 2450 4666 
L 2450 531 
L 3481 531 
L 3481 0 
L 794 0 
L 794 531 
z
" transform="scale(0.015625)"/>
       </defs>
       <use xlink:href="#DejaVuSans-31"/>
       <use xlink:href="#DejaVuSans-20" x="63.623047"/>
       <use xlink:href="#DejaVuSans-56" x="95.410156"/>
      </g>
     </g>
    </g>
    <g id="ytick_5">
     <g id="line2d_34">
      <path d="M 100.8 151.211997 
L 987.84 151.211997 
" clip-path="url(#pa6651142d7)" style="fill: none; stroke-dasharray: 1.85,0.8; stroke-dashoffset: 0; stroke: #b2b2b2; stroke-width: 0.5"/>
     </g>
     <g id="line2d_35">
      <g>
       <use xlink:href="#m7c4f95a0df" x="100.8" y="151.211997" style="stroke: #000000; stroke-width: 0.8"/>
      </g>
     </g>
     <g id="text_6">
      <!-- 2 V -->
      <g transform="translate(74.36625 156.530903) scale(0.14 -0.14)">
       <use xlink:href="#DejaVuSans-32"/>
       <use xlink:href="#DejaVuSans-20" x="63.623047"/>
       <use xlink:href="#DejaVuSans-56" x="95.410156"/>
      </g>
     </g>
    </g>
    <g id="text_7">
     <g id="patch_9">
      <path d="M 34.8768 224.531509 
L 34.8768 168.514009 
L 11.247425 168.514009 
L 11.247425 224.531509 
z
" style="fill: #ffff00; opacity: 0.2; stroke: #eeeeee; stroke-width: 0.5; stroke-linejoin: miter"/>
     </g>
     <!-- DFF IN -->
     <g transform="translate(26.925238 219.491509) rotate(-90) scale(0.14 -0.14)">
      <defs>
       <path id="DejaVuSans-44" d="M 1259 4147 
L 1259 519 
L 2022 519 
Q 2988 519 3436 956 
Q 3884 1394 3884 2338 
Q 3884 3275 3436 3711 
Q 2988 4147 2022 4147 
L 1259 4147 
z
M 628 4666 
L 1925 4666 
Q 3281 4666 3915 4102 
Q 4550 3538 4550 2338 
Q 4550 1131 3912 565 
Q 3275 0 1925 0 
L 628 0 
L 628 4666 
z
" transform="scale(0.015625)"/>
       <path id="DejaVuSans-46" d="M 628 4666 
L 3309 4666 
L 3309 4134 
L 1259 4134 
L 1259 2759 
L 3109 2759 
L 3109 2228 
L 1259 2228 
L 1259 0 
L 628 0 
L 628 4666 
z
" transform="scale(0.015625)"/>
       <path id="DejaVuSans-4e" d="M 628 4666 
L 1478 4666 
L 3547 763 
L 3547 4666 
L 4159 4666 
L 4159 0 
L 3309 0 
L 1241 3903 
L 1241 0 
L 628 0 
L 628 4666 
z
" transform="scale(0.015625)"/>
      </defs>
      <use xlink:href="#DejaVuSans-44"/>
      <use xlink:href="#DejaVuSans-46" x="77.001953"/>
      <use xlink:href="#DejaVuSans-46" x="134.521484"/>
      <use xlink:href="#DejaVuSans-20" x="192.041016"/>
      <use xlink:href="#DejaVuSans-49" x="223.828125"/>
      <use xlink:href="#DejaVuSans-4e" x="253.320312"/>
     </g>
    </g>
   </g>
   <g id="line2d_36">
    <path d="M 141.12 219.125624 
L 221.953536 219.079025 
L 224.437248 200.14486 
L 225.404928 194.384974 
L 228.243456 181.720702 
L 229.598208 180.449789 
L 231.178752 179.576461 
L 236.533248 179.121107 
L 243.5328 179.012366 
L 244.952064 178.971588 
L 248.145408 178.862847 
L 249.790464 178.798282 
L 251.887104 178.689541 
L 254.241792 178.342928 
L 254.757888 177.806018 
L 255.499776 177.466202 
L 256.338432 177.479795 
L 259.789824 178.094862 
L 262.467072 178.268168 
L 263.886336 178.315743 
L 264.144384 183.55571 
L 264.434688 187.121062 
L 265.176576 191.870674 
L 267.144192 209.207081 
L 268.402176 215.716261 
L 269.047296 216.999611 
L 270.46656 218.762578 
L 273.724416 219.177086 
L 282.530304 219.129665 
L 297.045504 219.119538 
L 305.851392 219.124809 
L 347.751936 219.080721 
L 350.235648 200.184959 
L 351.622656 191.54581 
L 352.654848 186.253511 
L 354.97728 179.257034 
L 358.493184 178.257974 
L 360.202752 178.329335 
L 363.009024 178.438077 
L 364.33152 178.46866 
L 375.169536 178.540021 
L 375.717888 179.532285 
L 376.169472 180.283279 
L 377.008128 181.190588 
L 377.524224 181.139616 
L 378.427392 180.847374 
L 380.427264 179.708989 
L 381.58848 179.335192 
L 387.168768 178.856051 
L 389.587968 178.747309 
L 391.684608 178.63517 
L 394.232832 178.526429 
L 395.61984 178.489049 
L 415.360512 178.404095 
L 416.489472 177.472998 
L 417.037824 177.408433 
L 417.908736 177.517174 
L 419.16672 177.799222 
L 420.908544 178.054084 
L 423.940608 178.26477 
L 455.712768 178.366715 
L 456.615936 179.17208 
L 457.325568 179.352182 
L 458.099712 179.409951 
L 461.58336 178.934208 
L 463.389696 178.665753 
L 466.002432 178.499244 
L 467.002368 178.59779 
L 467.421696 179.358979 
L 468.486144 181.143014 
L 470.29248 183.61008 
L 476.163072 191.836013 
L 476.614656 193.293485 
L 478.420992 199.952864 
L 478.969344 202.149776 
L 480.162816 207.738734 
L 480.840192 210.682563 
L 482.162688 215.672425 
L 484.452864 223.216346 
L 484.80768 223.76379 
L 484.936704 224.248028 
L 485.356032 225.361946 
L 485.872128 226.129251 
L 486.130176 226.380715 
L 486.323712 226.833011 
L 487.162368 228.784236 
L 487.259136 228.852878 
L 488.130048 230.805803 
L 488.904192 231.973751 
L 490.000896 234.094205 
L 490.194432 234.41737 
L 490.61376 235.329777 
L 491.0976 236.04407 
L 491.291136 236.275485 
L 491.968512 237.587856 
L 492.581376 238.542739 
L 492.903936 238.658957 
L 493.420032 238.070055 
L 493.710336 237.715287 
L 494.00064 237.185853 
L 494.355456 236.478356 
L 494.774784 235.994797 
L 495.581184 235.085788 
L 496.129536 234.186635 
L 496.355328 234.076534 
L 496.613376 233.873324 
L 496.806912 233.703416 
L 497.323008 233.30685 
L 498.097152 232.384929 
L 498.419712 231.906467 
L 498.806784 231.669616 
L 498.935808 231.607769 
L 499.193856 231.34747 
L 500.000256 230.876484 
L 500.871168 230.003836 
L 501.193728 229.389448 
L 501.484032 229.218181 
L 501.645312 229.227356 
L 501.871104 229.059487 
L 503.645184 227.655366 
L 504.129024 226.862575 
L 504.451584 226.754853 
L 504.612864 226.712716 
L 505.677312 226.055171 
L 506.870784 225.068685 
L 507.128832 224.782899 
L 507.54816 224.348614 
L 508.386816 223.978554 
L 510.096384 222.675698 
L 510.741504 222.139094 
L 511.709184 221.344434 
L 512.8704 220.214307 
L 513.547776 219.262152 
L 514.031616 218.559164 
L 514.838016 217.52337 
L 519.934464 210.887812 
L 520.966656 209.833022 
L 521.321472 209.253635 
L 522.22464 206.56399 
L 523.127808 203.914442 
L 524.224512 201.40354 
L 526.25664 198.429808 
L 526.837248 197.631239 
L 527.772672 196.376638 
L 528.901632 195.039121 
L 529.611264 194.182784 
L 531.09504 192.822499 
L 531.449856 192.389913 
L 531.933696 190.801612 
L 533.223936 186.190645 
L 534.094848 183.970285 
L 535.030272 182.240621 
L 535.868928 181.275542 
L 536.57856 180.809994 
L 537.675264 180.232306 
L 538.03008 179.882296 
L 539.610624 178.060881 
L 542.513664 174.217559 
L 543.642624 172.307791 
L 546.190848 168.48146 
L 552.319488 160.556945 
L 554.577408 157.651515 
L 557.286912 154.382483 
L 558.706176 154.718901 
L 562.480128 155.225227 
L 564.125184 155.629609 
L 564.834816 155.809711 
L 576.672768 159.51031 
L 577.05984 158.721937 
L 577.479168 158.439889 
L 577.801728 158.514649 
L 578.253312 158.810289 
L 580.027392 160.519565 
L 581.317632 161.47105 
L 586.349568 163.999283 
L 589.736448 165.307576 
L 590.542848 165.586225 
L 591.220224 165.820699 
L 592.833024 166.381395 
L 602.832384 169.429547 
L 603.50976 169.606252 
L 605.541888 170.132967 
L 611.315712 171.461649 
L 611.831808 171.566992 
L 612.960768 171.79127 
L 613.863936 171.964577 
L 614.992896 172.188855 
L 615.863808 172.348569 
L 616.444416 172.45731 
L 616.992768 172.56945 
L 617.54112 173.466565 
L 617.928192 173.758807 
L 618.379776 173.91852 
L 619.089408 173.959298 
L 619.670016 173.850557 
L 622.05696 173.459768 
L 629.024256 174.302513 
L 630.217728 174.441837 
L 631.120896 174.550578 
L 631.507968 174.604949 
L 632.636928 174.71369 
L 633.927168 174.873404 
L 634.894848 174.982145 
L 643.087872 175.736537 
L 644.442624 175.84188 
L 644.990976 175.906445 
L 646.668288 176.015187 
L 647.474688 176.072955 
L 650.474496 176.283641 
L 651.151872 176.321021 
L 653.764608 176.487531 
L 654.506496 176.518115 
L 656.925696 176.667634 
L 657.409536 176.50792 
L 657.925632 176.018585 
L 658.377216 175.814695 
L 659.538432 175.923436 
L 660.054528 176.079752 
L 661.022208 176.368596 
L 664.022016 176.891913 
L 665.215488 177.000654 
L 665.957376 177.048228 
L 666.602496 177.085608 
L 668.634624 177.190951 
L 670.989312 177.299692 
L 672.408576 177.343868 
L 673.18272 177.367655 
L 674.63424 177.41523 
L 675.44064 177.439017 
L 679.15008 177.547758 
L 680.472576 177.578341 
L 685.536768 177.687083 
L 686.827008 177.714268 
L 687.568896 177.744851 
L 694.14912 177.853593 
L 695.471616 177.884176 
L 697.665024 177.958936 
L 698.277888 178.624976 
L 698.923008 178.907023 
L 699.79392 178.981783 
L 700.664832 178.784689 
L 701.664768 178.478855 
L 703.01952 178.305548 
L 705.148416 178.179816 
L 705.503232 178.183214 
L 715.470336 178.074473 
L 716.534784 178.071075 
L 737.985024 177.986121 
L 738.468864 177.452609 
L 739.178496 177.126386 
L 740.2752 177.116191 
L 744.242688 177.84 
L 745.92 177.907963 
L 778.240512 178.016704 
L 778.401792 178.196807 
L 778.917888 178.716726 
L 779.30496 178.900227 
L 779.917824 179.039551 
L 782.272512 178.93081 
L 783.98208 178.641966 
L 785.304576 178.475456 
L 789.852672 178.105057 
L 818.592768 178.030297 
L 819.14112 177.41523 
L 819.689472 177.139978 
L 821.624832 177.24872 
L 824.882688 177.823009 
L 826.979328 177.935149 
L 858.912768 178.030297 
L 859.848192 178.866245 
L 860.783616 179.046348 
L 862.073856 179.076931 
L 864.847872 178.604587 
L 870.686208 178.09826 
L 899.232768 178.030297 
L 899.78112 177.41523 
L 900.329472 177.139978 
L 902.264832 177.24872 
L 905.522688 177.823009 
L 907.619328 177.935149 
L 939.552768 178.030297 
L 940.617216 178.896829 
L 941.55264 179.083727 
L 943.455744 178.974986 
L 944.77824 178.72692 
L 947.003904 178.370113 
L 947.52 178.288557 
L 947.52 178.288557 
" clip-path="url(#pa6651142d7)" style="fill: none; stroke: #008000; stroke-width: 2; stroke-linecap: square"/>
   </g>
   <g id="patch_10">
    <path d="M 100.8 242.888276 
L 100.8 150.157241 
" style="fill: none; stroke: #bcbcbc; stroke-width: 0.8; stroke-linejoin: miter; stroke-linecap: square"/>
   </g>
   <g id="patch_11">
    <path d="M 987.84 242.888276 
L 987.84 150.157241 
" style="fill: none; stroke: #bcbcbc; stroke-width: 0.8; stroke-linejoin: miter; stroke-linecap: square"/>
   </g>
   <g id="patch_12">
    <path d="M 100.8 242.888276 
L 987.84 242.888276 
" style="fill: none; stroke: #bcbcbc; stroke-width: 0.8; stroke-linejoin: miter; stroke-linecap: square"/>
   </g>
   <g id="patch_13">
    <path d="M 100.8 150.157241 
L 987.84 150.157241 
" style="fill: none; stroke: #bcbcbc; stroke-width: 0.8; stroke-linejoin: miter; stroke-linecap: square"/>
   </g>
  </g>
  <g id="axes_3">
   <g id="patch_14">
    <path d="M 100.8 354.165517 
L 987.84 354.165517 
L 987.84 261.434483 
L 100.8 261.434483 
z
" style="fill: #eeeeee"/>
   </g>
   <g id="matplotlib.axis_5">
    <g id="xtick_13">
     <g id="line2d_37">
      <path d="M 141.12 354.165517 
L 141.12 261.434483 
" clip-path="url(#pdd2984c5c8)" style="fill: none; stroke-dasharray: 1.85,0.8; stroke-dashoffset: 0; stroke: #b2b2b2; stroke-width: 0.5"/>
     </g>
     <g id="line2d_38">
      <g>
       <use xlink:href="#md7b72c257d" x="141.12" y="354.165517" style="stroke: #000000; stroke-width: 0.8"/>
      </g>
     </g>
    </g>
    <g id="xtick_14">
     <g id="line2d_39">
      <path d="M 302.4 354.165517 
L 302.4 261.434483 
" clip-path="url(#pdd2984c5c8)" style="fill: none; stroke-dasharray: 1.85,0.8; stroke-dashoffset: 0; stroke: #b2b2b2; stroke-width: 0.5"/>
     </g>
     <g id="line2d_40">
      <g>
       <use xlink:href="#md7b72c257d" x="302.4" y="354.165517" style="stroke: #000000; stroke-width: 0.8"/>
      </g>
     </g>
    </g>
    <g id="xtick_15">
     <g id="line2d_41">
      <path d="M 463.68 354.165517 
L 463.68 261.434483 
" clip-path="url(#pdd2984c5c8)" style="fill: none; stroke-dasharray: 1.85,0.8; stroke-dashoffset: 0; stroke: #b2b2b2; stroke-width: 0.5"/>
     </g>
     <g id="line2d_42">
      <g>
       <use xlink:href="#md7b72c257d" x="463.68" y="354.165517" style="stroke: #000000; stroke-width: 0.8"/>
      </g>
     </g>
    </g>
    <g id="xtick_16">
     <g id="line2d_43">
      <path d="M 624.96 354.165517 
L 624.96 261.434483 
" clip-path="url(#pdd2984c5c8)" style="fill: none; stroke-dasharray: 1.85,0.8; stroke-dashoffset: 0; stroke: #b2b2b2; stroke-width: 0.5"/>
     </g>
     <g id="line2d_44">
      <g>
       <use xlink:href="#md7b72c257d" x="624.96" y="354.165517" style="stroke: #000000; stroke-width: 0.8"/>
      </g>
     </g>
    </g>
    <g id="xtick_17">
     <g id="line2d_45">
      <path d="M 786.24 354.165517 
L 786.24 261.434483 
" clip-path="url(#pdd2984c5c8)" style="fill: none; stroke-dasharray: 1.85,0.8; stroke-dashoffset: 0; stroke: #b2b2b2; stroke-width: 0.5"/>
     </g>
     <g id="line2d_46">
      <g>
       <use xlink:href="#md7b72c257d" x="786.24" y="354.165517" style="stroke: #000000; stroke-width: 0.8"/>
      </g>
     </g>
    </g>
    <g id="xtick_18">
     <g id="line2d_47">
      <path d="M 947.52 354.165517 
L 947.52 261.434483 
" clip-path="url(#pdd2984c5c8)" style="fill: none; stroke-dasharray: 1.85,0.8; stroke-dashoffset: 0; stroke: #b2b2b2; stroke-width: 0.5"/>
     </g>
     <g id="line2d_48">
      <g>
       <use xlink:href="#md7b72c257d" x="947.52" y="354.165517" style="stroke: #000000; stroke-width: 0.8"/>
      </g>
     </g>
    </g>
   </g>
   <g id="matplotlib.axis_6">
    <g id="ytick_6">
     <g id="line2d_49">
      <path d="M 100.8 343.98 
L 987.84 343.98 
" clip-path="url(#pdd2984c5c8)" style="fill: none; stroke-dasharray: 1.85,0.8; stroke-dashoffset: 0; stroke: #b2b2b2; stroke-width: 0.5"/>
     </g>
     <g id="line2d_50">
      <g>
       <use xlink:href="#m7c4f95a0df" x="100.8" y="343.98" style="stroke: #000000; stroke-width: 0.8"/>
      </g>
     </g>
     <g id="text_8">
      <!-- 0 V -->
      <g transform="translate(74.36625 349.298906) scale(0.14 -0.14)">
       <use xlink:href="#DejaVuSans-30"/>
       <use xlink:href="#DejaVuSans-20" x="63.623047"/>
       <use xlink:href="#DejaVuSans-56" x="95.410156"/>
      </g>
     </g>
    </g>
    <g id="ytick_7">
     <g id="line2d_51">
      <path d="M 100.8 299.527091 
L 987.84 299.527091 
" clip-path="url(#pdd2984c5c8)" style="fill: none; stroke-dasharray: 1.85,0.8; stroke-dashoffset: 0; stroke: #b2b2b2; stroke-width: 0.5"/>
     </g>
     <g id="line2d_52">
      <g>
       <use xlink:href="#m7c4f95a0df" x="100.8" y="299.527091" style="stroke: #000000; stroke-width: 0.8"/>
      </g>
     </g>
     <g id="text_9">
      <!-- 1 V -->
      <g transform="translate(74.36625 304.845998) scale(0.14 -0.14)">
       <use xlink:href="#DejaVuSans-31"/>
       <use xlink:href="#DejaVuSans-20" x="63.623047"/>
       <use xlink:href="#DejaVuSans-56" x="95.410156"/>
      </g>
     </g>
    </g>
    <g id="text_10">
     <g id="patch_15">
      <path d="M 34.8768 342.395313 
L 34.8768 273.204688 
L 11.247425 273.204688 
L 11.247425 342.395313 
z
" style="fill: #ffff00; opacity: 0.2; stroke: #eeeeee; stroke-width: 0.5; stroke-linejoin: miter"/>
     </g>
     <!-- CLK BUF -->
     <g transform="translate(26.925238 337.355313) rotate(-90) scale(0.14 -0.14)">
      <defs>
       <path id="DejaVuSans-43" d="M 4122 4306 
L 4122 3641 
Q 3803 3938 3442 4084 
Q 3081 4231 2675 4231 
Q 1875 4231 1450 3742 
Q 1025 3253 1025 2328 
Q 1025 1406 1450 917 
Q 1875 428 2675 428 
Q 3081 428 3442 575 
Q 3803 722 4122 1019 
L 4122 359 
Q 3791 134 3420 21 
Q 3050 -91 2638 -91 
Q 1578 -91 968 557 
Q 359 1206 359 2328 
Q 359 3453 968 4101 
Q 1578 4750 2638 4750 
Q 3056 4750 3426 4639 
Q 3797 4528 4122 4306 
z
" transform="scale(0.015625)"/>
       <path id="DejaVuSans-4b" d="M 628 4666 
L 1259 4666 
L 1259 2694 
L 3353 4666 
L 4166 4666 
L 1850 2491 
L 4331 0 
L 3500 0 
L 1259 2247 
L 1259 0 
L 628 0 
L 628 4666 
z
" transform="scale(0.015625)"/>
      </defs>
      <use xlink:href="#DejaVuSans-43"/>
      <use xlink:href="#DejaVuSans-4c" x="69.824219"/>
      <use xlink:href="#DejaVuSans-4b" x="125.537109"/>
      <use xlink:href="#DejaVuSans-20" x="191.113281"/>
      <use xlink:href="#DejaVuSans-42" x="222.900391"/>
      <use xlink:href="#DejaVuSans-55" x="291.503906"/>
      <use xlink:href="#DejaVuSans-46" x="364.697266"/>
     </g>
    </g>
   </g>
   <g id="line2d_53">
    <path d="M 141.12 343.978825 
L 173.376 343.978825 
L 173.601792 290.63651 
L 213.696 290.63651 
L 213.760512 333.186389 
L 213.825024 343.959692 
L 213.889536 343.895722 
L 213.954048 344.073307 
L 214.01856 343.984817 
L 215.3088 343.975934 
L 223.179264 343.978809 
L 254.016 343.978794 
L 254.17728 290.472034 
L 254.241792 290.756533 
L 254.403072 290.627619 
L 254.8224 290.63651 
L 294.336 290.63651 
L 294.400512 333.149049 
L 294.465024 344.311712 
L 294.529536 343.538841 
L 294.626304 344.049858 
L 294.65856 344.018226 
L 294.852096 343.940092 
L 295.206912 343.996176 
L 295.497216 343.978478 
L 319.882752 343.978824 
L 334.656 343.978827 
L 334.81728 290.556494 
L 334.881792 290.654291 
L 335.204352 290.640955 
L 336.043008 290.63651 
L 374.976 290.63651 
L 375.040512 333.19039 
L 375.105024 343.980721 
L 375.169536 343.890085 
L 375.234048 344.066692 
L 375.29856 343.984965 
L 376.653312 343.975533 
L 384.781824 343.978781 
L 415.296 343.978826 
L 415.45728 290.472034 
L 415.521792 290.756533 
L 415.683072 290.623174 
L 416.58624 290.63651 
L 455.616 290.63651 
L 455.680512 333.151716 
L 455.745024 344.317189 
L 455.809536 343.333521 
L 455.906304 344.632213 
L 455.93856 344.052303 
L 456.132096 343.953311 
L 456.519168 343.979286 
L 466.937856 344.03017 
L 468.03456 344.975567 
L 468.905472 345.306786 
L 470.066688 345.491843 
L 472.034304 345.545143 
L 477.517824 345.389291 
L 485.001216 345.249975 
L 485.968896 345.503446 
L 486.678528 345.849067 
L 487.097856 346.104982 
L 492.839424 349.544615 
L 493.936128 349.006735 
L 495.936 348.238233 
L 495.968256 349.95047 
L 496.129536 325.035949 
L 496.290816 324.701663 
L 498.51648 323.838387 
L 498.548736 323.929071 
L 498.613248 323.811271 
L 498.742272 323.723254 
L 498.774528 323.804603 
L 498.83904 323.745036 
L 498.968064 323.64724 
L 499.1616 323.615234 
L 499.677696 323.426309 
L 506.709504 320.868933 
L 506.74176 320.973397 
L 506.806272 320.849374 
L 506.999808 320.844484 
L 507.161088 320.680008 
L 507.193344 320.727573 
L 507.322368 320.701345 
L 511.322112 319.26196 
L 512.580096 318.691185 
L 512.805888 318.566717 
L 513.225216 318.310223 
L 515.741184 316.694805 
L 517.54752 315.46257 
L 524.80512 310.892367 
L 530.482176 307.888239 
L 531.482112 307.301016 
L 532.86912 304.61206 
L 534.933504 299.973399 
L 536.256 296.953268 
L 536.288256 296.157561 
L 536.41728 341.900715 
L 536.643072 342.029229 
L 538.19136 342.083772 
L 551.41632 342.520167 
L 553.577472 342.497451 
L 556.641792 342.591024 
L 557.286912 342.714426 
L 557.932032 343.376374 
L 558.67392 343.817142 
L 559.609344 344.113328 
L 560.964096 344.297198 
L 563.383296 344.379263 
L 574.543872 344.325115 
L 576.576 344.324012 
L 576.608256 334.692009 
L 576.705024 265.64953 
L 576.73728 266.080723 
L 576.930816 266.200746 
L 577.672704 266.623048 
L 578.414592 267.094249 
L 579.188736 267.534333 
L 581.382144 268.85903 
L 581.833728 269.143528 
L 582.640128 269.596948 
L 588.768768 272.850901 
L 590.510592 273.691061 
L 591.865344 274.313402 
L 604.122624 279.26101 
L 604.412928 279.363252 
L 605.961216 279.883351 
L 606.348288 279.985593 
L 607.896576 280.505692 
L 608.283648 280.603488 
L 608.799744 280.772409 
L 609.15456 280.870206 
L 609.606144 280.994674 
L 616.896 282.950602 
L 616.928256 292.672453 
L 617.05728 344.199944 
L 617.315328 344.184163 
L 649.571328 344.05441 
L 653.893632 344.044768 
L 657.216 344.039216 
L 657.409536 288.484989 
L 657.667584 288.50277 
L 659.086848 288.605012 
L 659.441664 288.636129 
L 661.215744 288.738371 
L 661.57056 288.769488 
L 663.538176 288.871729 
L 663.892992 288.902846 
L 666.054144 289.005088 
L 666.40896 289.036205 
L 668.763648 289.138447 
L 669.118464 289.169564 
L 671.666688 289.271805 
L 672.021504 289.302922 
L 674.9568 289.405164 
L 675.311616 289.436281 
L 678.537216 289.538523 
L 678.892032 289.56964 
L 682.601472 289.671882 
L 682.956288 289.702999 
L 687.343104 289.80524 
L 687.69792 289.836357 
L 692.85888 289.938599 
L 693.213696 289.969716 
L 697.536 290.058622 
L 697.568256 294.343882 
L 697.632768 344.105624 
L 697.69728 343.836773 
L 697.794048 344.138444 
L 697.85856 344.002524 
L 698.632704 343.994702 
L 737.856 343.991563 
L 738.01728 290.103075 
L 738.081792 290.209762 
L 739.017216 290.191981 
L 778.176 290.191981 
L 778.305024 344.319509 
L 778.466304 344.060998 
L 778.724352 343.961842 
L 779.079168 344.010233 
L 779.401728 343.991322 
L 816.109056 343.991553 
L 818.496 343.991555 
L 818.65728 289.960826 
L 818.721792 290.463143 
L 818.81856 290.009724 
L 818.883072 290.174199 
L 819.334656 290.191981 
L 858.816 290.191981 
L 858.945024 344.319705 
L 859.106304 344.060953 
L 859.364352 343.961839 
L 859.719168 344.010231 
L 860.041728 343.991323 
L 896.749056 343.991553 
L 899.136 343.991555 
L 899.29728 289.960826 
L 899.361792 290.463143 
L 899.45856 290.005278 
L 899.523072 290.174199 
L 899.974656 290.191981 
L 939.456 290.191981 
L 939.488256 298.20684 
L 939.61728 343.938689 
L 939.649536 344.067946 
L 939.714048 343.944276 
L 939.746304 343.90527 
L 939.810816 343.962643 
L 940.004352 344.018157 
L 940.197888 343.990819 
L 945.455616 343.991561 
L 947.52 343.991544 
L 947.52 343.991544 
" clip-path="url(#pdd2984c5c8)" style="fill: none; stroke: #0000ff; stroke-width: 2; stroke-linecap: square"/>
   </g>
   <g id="patch_16">
    <path d="M 100.8 354.165517 
L 100.8 261.434483 
" style="fill: none; stroke: #bcbcbc; stroke-width: 0.8; stroke-linejoin: miter; stroke-linecap: square"/>
   </g>
   <g id="patch_17">
    <path d="M 987.84 354.165517 
L 987.84 261.434483 
" style="fill: none; stroke: #bcbcbc; stroke-width: 0.8; stroke-linejoin: miter; stroke-linecap: square"/>
   </g>
   <g id="patch_18">
    <path d="M 100.8 354.165517 
L 987.84 354.165517 
" style="fill: none; stroke: #bcbcbc; stroke-width: 0.8; stroke-linejoin: miter; stroke-linecap: square"/>
   </g>
   <g id="patch_19">
    <path d="M 100.8 261.434483 
L 987.84 261.434483 
" style="fill: none; stroke: #bcbcbc; stroke-width: 0.8; stroke-linejoin: miter; stroke-linecap: square"/>
   </g>
  </g>
  <g id="axes_4">
   <g id="patch_20">
    <path d="M 100.8 465.442759 
L 987.84 465.442759 
L 987.84 372.711724 
L 100.8 372.711724 
z
" style="fill: #eeeeee"/>
   </g>
   <g id="matplotlib.axis_7">
    <g id="xtick_19">
     <g id="line2d_54">
      <path d="M 141.12 465.442759 
L 141.12 372.711724 
" clip-path="url(#pbb96ebbe53)" style="fill: none; stroke-dasharray: 1.85,0.8; stroke-dashoffset: 0; stroke: #b2b2b2; stroke-width: 0.5"/>
     </g>
     <g id="line2d_55">
      <g>
       <use xlink:href="#md7b72c257d" x="141.12" y="465.442759" style="stroke: #000000; stroke-width: 0.8"/>
      </g>
     </g>
    </g>
    <g id="xtick_20">
     <g id="line2d_56">
      <path d="M 302.4 465.442759 
L 302.4 372.711724 
" clip-path="url(#pbb96ebbe53)" style="fill: none; stroke-dasharray: 1.85,0.8; stroke-dashoffset: 0; stroke: #b2b2b2; stroke-width: 0.5"/>
     </g>
     <g id="line2d_57">
      <g>
       <use xlink:href="#md7b72c257d" x="302.4" y="465.442759" style="stroke: #000000; stroke-width: 0.8"/>
      </g>
     </g>
    </g>
    <g id="xtick_21">
     <g id="line2d_58">
      <path d="M 463.68 465.442759 
L 463.68 372.711724 
" clip-path="url(#pbb96ebbe53)" style="fill: none; stroke-dasharray: 1.85,0.8; stroke-dashoffset: 0; stroke: #b2b2b2; stroke-width: 0.5"/>
     </g>
     <g id="line2d_59">
      <g>
       <use xlink:href="#md7b72c257d" x="463.68" y="465.442759" style="stroke: #000000; stroke-width: 0.8"/>
      </g>
     </g>
    </g>
    <g id="xtick_22">
     <g id="line2d_60">
      <path d="M 624.96 465.442759 
L 624.96 372.711724 
" clip-path="url(#pbb96ebbe53)" style="fill: none; stroke-dasharray: 1.85,0.8; stroke-dashoffset: 0; stroke: #b2b2b2; stroke-width: 0.5"/>
     </g>
     <g id="line2d_61">
      <g>
       <use xlink:href="#md7b72c257d" x="624.96" y="465.442759" style="stroke: #000000; stroke-width: 0.8"/>
      </g>
     </g>
    </g>
    <g id="xtick_23">
     <g id="line2d_62">
      <path d="M 786.24 465.442759 
L 786.24 372.711724 
" clip-path="url(#pbb96ebbe53)" style="fill: none; stroke-dasharray: 1.85,0.8; stroke-dashoffset: 0; stroke: #b2b2b2; stroke-width: 0.5"/>
     </g>
     <g id="line2d_63">
      <g>
       <use xlink:href="#md7b72c257d" x="786.24" y="465.442759" style="stroke: #000000; stroke-width: 0.8"/>
      </g>
     </g>
    </g>
    <g id="xtick_24">
     <g id="line2d_64">
      <path d="M 947.52 465.442759 
L 947.52 372.711724 
" clip-path="url(#pbb96ebbe53)" style="fill: none; stroke-dasharray: 1.85,0.8; stroke-dashoffset: 0; stroke: #b2b2b2; stroke-width: 0.5"/>
     </g>
     <g id="line2d_65">
      <g>
       <use xlink:href="#md7b72c257d" x="947.52" y="465.442759" style="stroke: #000000; stroke-width: 0.8"/>
      </g>
     </g>
    </g>
   </g>
   <g id="matplotlib.axis_8">
    <g id="ytick_8">
     <g id="line2d_66">
      <path d="M 100.8 440.406098 
L 987.84 440.406098 
" clip-path="url(#pbb96ebbe53)" style="fill: none; stroke-dasharray: 1.85,0.8; stroke-dashoffset: 0; stroke: #b2b2b2; stroke-width: 0.5"/>
     </g>
     <g id="line2d_67">
      <g>
       <use xlink:href="#m7c4f95a0df" x="100.8" y="440.406098" style="stroke: #000000; stroke-width: 0.8"/>
      </g>
     </g>
     <g id="text_11">
      <!-- 0 V -->
      <g transform="translate(74.36625 445.725004) scale(0.14 -0.14)">
       <use xlink:href="#DejaVuSans-30"/>
       <use xlink:href="#DejaVuSans-20" x="63.623047"/>
       <use xlink:href="#DejaVuSans-56" x="95.410156"/>
      </g>
     </g>
    </g>
    <g id="ytick_9">
     <g id="line2d_68">
      <path d="M 100.8 403.900648 
L 987.84 403.900648 
" clip-path="url(#pbb96ebbe53)" style="fill: none; stroke-dasharray: 1.85,0.8; stroke-dashoffset: 0; stroke: #b2b2b2; stroke-width: 0.5"/>
     </g>
     <g id="line2d_69">
      <g>
       <use xlink:href="#m7c4f95a0df" x="100.8" y="403.900648" style="stroke: #000000; stroke-width: 0.8"/>
      </g>
     </g>
     <g id="text_12">
      <!-- 1 V -->
      <g transform="translate(74.36625 409.219554) scale(0.14 -0.14)">
       <use xlink:href="#DejaVuSans-31"/>
       <use xlink:href="#DejaVuSans-20" x="63.623047"/>
       <use xlink:href="#DejaVuSans-56" x="95.410156"/>
      </g>
     </g>
    </g>
    <g id="text_13">
     <g id="patch_21">
      <path d="M 34.8768 454.693023 
L 34.8768 383.46146 
L 11.247425 383.46146 
L 11.247425 454.693023 
z
" style="fill: #ffff00; opacity: 0.2; stroke: #eeeeee; stroke-width: 0.5; stroke-linejoin: miter"/>
     </g>
     <!-- DFF OUT -->
     <g transform="translate(26.925238 449.653023) rotate(-90) scale(0.14 -0.14)">
      <defs>
       <path id="DejaVuSans-4f" d="M 2522 4238 
Q 1834 4238 1429 3725 
Q 1025 3213 1025 2328 
Q 1025 1447 1429 934 
Q 1834 422 2522 422 
Q 3209 422 3611 934 
Q 4013 1447 4013 2328 
Q 4013 3213 3611 3725 
Q 3209 4238 2522 4238 
z
M 2522 4750 
Q 3503 4750 4090 4092 
Q 4678 3434 4678 2328 
Q 4678 1225 4090 567 
Q 3503 -91 2522 -91 
Q 1538 -91 948 565 
Q 359 1222 359 2328 
Q 359 3434 948 4092 
Q 1538 4750 2522 4750 
z
" transform="scale(0.015625)"/>
       <path id="DejaVuSans-54" d="M -19 4666 
L 3928 4666 
L 3928 4134 
L 2272 4134 
L 2272 0 
L 1638 0 
L 1638 4134 
L -19 4134 
L -19 4666 
z
" transform="scale(0.015625)"/>
      </defs>
      <use xlink:href="#DejaVuSans-44"/>
      <use xlink:href="#DejaVuSans-46" x="77.001953"/>
      <use xlink:href="#DejaVuSans-46" x="134.521484"/>
      <use xlink:href="#DejaVuSans-20" x="192.041016"/>
      <use xlink:href="#DejaVuSans-4f" x="223.828125"/>
      <use xlink:href="#DejaVuSans-55" x="302.539062"/>
      <use xlink:href="#DejaVuSans-54" x="375.732422"/>
     </g>
    </g>
   </g>
   <g id="line2d_70">
    <path d="M 141.12 412.861641 
L 173.408256 412.906178 
L 173.440512 414.417503 
L 173.601792 440.408326 
L 174.1824 440.404734 
L 185.278464 440.405124 
L 254.048256 440.406654 
L 254.080512 440.552587 
L 254.112768 440.311195 
L 254.306304 436.747157 
L 254.596608 436.032745 
L 254.693376 435.523129 
L 255.14496 429.127374 
L 255.370752 414.09516 
L 255.596544 396.953661 
L 255.757824 396.654316 
L 255.983616 396.595908 
L 256.983552 396.599558 
L 295.755264 396.672569 
L 296.239104 399.034472 
L 296.59392 398.443083 
L 297.980928 396.891602 
L 299.65824 396.625112 
L 334.688256 396.61416 
L 334.720512 396.508295 
L 334.752768 397.044925 
L 334.785024 399.698871 
L 334.914048 440.391134 
L 334.97856 440.359006 
L 335.13984 440.398447 
L 335.559168 440.405357 
L 369.65376 440.405091 
L 415.328256 440.406632 
L 415.360512 440.55208 
L 415.392768 440.313217 
L 415.586304 436.662099 
L 415.876608 435.824299 
L 415.908864 435.723909 
L 416.1024 431.394728 
L 416.521728 418.791586 
L 416.9088 396.720026 
L 417.102336 396.603209 
L 418.36032 396.570354 
L 466.970112 396.657967 
L 468.002304 397.866297 
L 468.744192 398.866547 
L 474.937344 408.175436 
L 475.485696 409.409686 
L 476.517888 413.071912 
L 477.421056 416.669524 
L 477.453312 416.47276 
L 477.485568 416.441 
L 477.517824 416.50598 
L 477.679104 417.755927 
L 478.130688 419.576453 
L 478.162944 419.14861 
L 478.324224 420.481424 
L 478.550016 421.478752 
L 478.614528 421.377267 
L 478.711296 421.522559 
L 478.775808 421.776272 
L 478.937088 423.117117 
L 479.32416 424.806589 
L 479.356416 424.261198 
L 479.388672 425.042049 
L 479.775744 426.742838 
L 479.808 426.48803 
L 479.872512 426.569802 
L 479.937024 426.776788 
L 480.098304 428.12895 
L 482.936832 439.509962 
L 483.001344 439.237486 
L 483.0336 439.288046 
L 483.35616 441.097146 
L 483.67872 442.254698 
L 483.710976 441.911072 
L 483.775488 442.140472 
L 484.16256 443.902955 
L 484.581888 444.995928 
L 484.614144 444.700599 
L 484.678656 444.826543 
L 484.839936 445.212771 
L 484.872192 445.684786 
L 484.96896 445.551176 
L 485.710848 447.461871 
L 485.872128 447.774723 
L 485.904384 447.531962 
L 485.968896 447.644399 
L 486.2592 448.188695 
L 486.42048 448.887409 
L 488.936448 454.279629 
L 488.968704 454.141274 
L 489.033216 454.265027 
L 489.226752 454.827576 
L 489.613824 455.516799 
L 489.678336 455.617919 
L 489.80736 455.869442 
L 489.839616 455.821254 
L 489.871872 455.905582 
L 490.678272 457.622433 
L 490.968576 458.059769 
L 491.033088 458.136065 
L 491.162112 458.379556 
L 492.807168 461.139733 
L 493.065216 460.952461 
L 494.516736 458.395984 
L 494.548992 458.503675 
L 494.581248 458.303625 
L 494.613504 458.320053 
L 494.774784 458.053563 
L 494.839296 458.073641 
L 494.871552 458.011216 
L 495.710208 456.740827 
L 495.742464 456.69264 
L 495.77472 456.855819 
L 495.806976 456.735716 
L 495.968256 456.446228 
L 496.25856 456.111838 
L 496.290816 456.271002 
L 496.323072 456.032986 
L 496.355328 456.188134 
L 496.516608 455.89171 
L 496.548864 455.988449 
L 496.58112 455.915439 
L 496.7424 455.661726 
L 497.129472 455.360191 
L 497.645568 454.801657 
L 497.806848 454.466902 
L 498.000384 454.215745 
L 498.03264 454.382575 
L 498.064896 454.155511 
L 498.51648 453.702113 
L 498.67776 453.544044 
L 498.710016 453.728032 
L 498.774528 453.462272 
L 498.806784 453.595882 
L 498.871296 453.404959 
L 499.193856 453.156722 
L 499.677696 452.825252 
L 500.29056 452.202469 
L 500.387328 451.80821 
L 500.419584 451.992928 
L 500.45184 452.010451 
L 500.580864 451.590638 
L 500.61312 451.879031 
L 500.677632 451.474551 
L 500.709888 451.500834 
L 500.742144 451.768419 
L 500.806656 451.711471 
L 501.09696 451.156223 
L 501.290496 450.984282 
L 501.322752 451.219012 
L 501.387264 450.916382 
L 501.451776 450.862354 
L 501.484032 450.968585 
L 501.516288 451.012392 
L 501.548544 450.874766 
L 501.613056 450.843736 
L 501.774336 450.66413 
L 501.806592 450.718158 
L 501.871104 450.626164 
L 502.193664 450.400925 
L 502.612992 450.058504 
L 502.838784 449.550348 
L 502.935552 449.410532 
L 502.967808 449.664975 
L 503.03232 449.301016 
L 503.064576 449.543412 
L 503.129088 449.207927 
L 503.290368 449.054239 
L 503.35488 449.323649 
L 503.387136 449.052049 
L 503.419392 449.167041 
L 503.451648 448.874632 
L 503.51616 449.02686 
L 503.645184 448.728976 
L 504.387072 448.19198 
L 504.419328 448.35443 
L 504.48384 448.232502 
L 504.709632 448.095971 
L 504.903168 447.974043 
L 505.45152 447.468442 
L 505.580544 447.277519 
L 505.709568 446.889101 
L 505.77408 447.139528 
L 505.806336 446.861357 
L 505.999872 446.551426 
L 506.032128 446.526967 
L 506.064384 446.88253 
L 506.128896 446.455051 
L 506.322432 446.268873 
L 506.354688 446.638674 
L 506.451456 446.471479 
L 506.612736 446.127232 
L 506.644992 446.365248 
L 506.677248 445.980115 
L 506.709504 445.9761 
L 506.74176 446.295887 
L 506.774016 445.893232 
L 506.806272 446.032318 
L 506.838528 446.088536 
L 506.870784 445.821682 
L 506.967552 445.895788 
L 506.999808 446.066998 
L 507.032064 445.983766 
L 507.128832 446.000558 
L 507.161088 445.654122 
L 507.193344 445.669819 
L 507.2256 445.859282 
L 507.257856 445.636234 
L 507.290112 445.633313 
L 508.032 445.294543 
L 508.257792 445.078431 
L 509.096448 444.357813 
L 509.289984 443.722837 
L 509.32224 443.717288 
L 509.354496 444.149732 
L 509.386752 443.578787 
L 509.451264 444.065039 
L 509.580288 443.390309 
L 509.612544 443.425938 
L 509.677056 443.37191 
L 509.741568 443.731014 
L 509.870592 443.228444 
L 509.999616 443.18712 
L 510.257664 443.055153 
L 510.322176 443.270754 
L 510.354432 443.133457 
L 510.386688 443.000942 
L 510.4512 443.072529 
L 510.515712 443.111992 
L 510.547968 442.967978 
L 510.644736 443.005359 
L 510.77376 442.946074 
L 511.2576 442.540681 
L 512.064 441.776111 
L 512.257536 441.12186 
L 512.322048 441.450702 
L 512.354304 441.246344 
L 512.515584 440.77692 
L 512.54784 440.799189 
L 512.580096 440.966603 
L 512.70912 440.47674 
L 512.741376 440.820362 
L 512.773632 440.44697 
L 512.805888 440.702249 
L 512.8704 440.399284 
L 512.934912 440.436223 
L 513.03168 440.389094 
L 514.16064 438.557608 
L 514.257408 438.177915 
L 514.289664 438.209091 
L 514.418688 437.987393 
L 514.450944 438.029739 
L 514.515456 437.931576 
L 515.644416 436.029825 
L 515.708928 435.508162 
L 515.837952 435.576062 
L 515.870208 435.610012 
L 515.902464 435.520939 
L 516.999168 433.707713 
L 518.128128 431.751751 
L 518.257152 431.503879 
L 518.289408 431.552066 
L 518.35392 431.452406 
L 518.5152 431.20563 
L 518.773248 430.847876 
L 519.031296 430.460553 
L 519.192576 429.90348 
L 519.450624 429.490604 
L 519.48288 429.688098 
L 519.515136 429.417593 
L 519.64416 429.204766 
L 519.676416 429.322678 
L 519.708672 429.394959 
L 519.740928 429.246747 
L 519.773184 429.328519 
L 519.837696 429.285443 
L 519.934464 429.058014 
L 519.96672 429.079552 
L 520.128 428.837521 
L 520.61184 428.042797 
L 520.676352 427.777403 
L 520.805376 427.188935 
L 520.837632 427.346273 
L 520.869888 427.138557 
L 520.902144 426.915874 
L 520.966656 427.105337 
L 520.998912 427.211933 
L 521.031168 427.113004 
L 522.482688 423.333959 
L 522.579456 422.86815 
L 522.611712 423.520137 
L 522.676224 422.787108 
L 522.70848 422.965984 
L 522.740736 422.66956 
L 522.772992 422.751332 
L 522.805248 422.774696 
L 522.837504 423.141211 
L 522.902016 422.913417 
L 523.19232 422.518793 
L 523.708416 421.635726 
L 524.289024 420.782228 
L 524.353536 420.207268 
L 524.418048 420.248154 
L 524.611584 420.296341 
L 524.772864 420.071467 
L 524.9664 419.65129 
L 526.030848 418.187786 
L 526.127616 418.088491 
L 526.353408 417.771989 
L 526.450176 417.727817 
L 526.611456 417.632903 
L 526.643712 417.395983 
L 526.708224 417.649696 
L 526.837248 417.895012 
L 526.966272 419.473873 
L 527.417856 439.891116 
L 528.9984 439.97621 
L 531.482112 439.958687 
L 532.159488 439.420999 
L 532.998144 439.069305 
L 534.127104 438.863451 
L 535.868928 438.796974 
L 540.481536 438.928942 
L 551.384064 439.213903 
L 553.771008 439.198498 
L 557.286912 439.37763 
L 557.964288 439.943246 
L 558.802944 440.329637 
L 559.996416 440.586979 
L 561.835008 440.717314 
L 566.41536 440.745372 
L 576.608256 440.691476 
L 576.640512 440.942181 
L 576.963072 430.015552 
L 577.124352 427.975262 
L 577.285632 421.723704 
L 577.446912 404.575999 
L 577.737216 376.945024 
L 577.86624 376.970578 
L 578.575872 377.317379 
L 579.059712 377.565617 
L 579.833856 377.937972 
L 580.317696 378.182559 
L 590.60736 382.720186 
L 594.768384 384.249764 
L 595.76832 384.592916 
L 596.155392 384.702432 
L 603.251712 387.002275 
L 603.606528 387.108141 
L 604.251648 387.279717 
L 606.25152 387.841901 
L 606.703104 387.951417 
L 608.219136 388.352977 
L 608.638464 388.458843 
L 609.831936 388.754537 
L 610.380288 388.864053 
L 611.57376 389.156097 
L 612.122112 389.265613 
L 613.218816 389.521151 
L 613.767168 389.630668 
L 616.928256 390.295067 
L 616.960512 390.189201 
L 617.025024 390.357126 
L 617.21856 390.346175 
L 617.928192 390.470293 
L 620.831232 391.017875 
L 621.508608 391.127391 
L 623.443968 391.45594 
L 624.218112 391.565457 
L 625.830912 391.820995 
L 626.540544 391.930511 
L 627.830784 392.113038 
L 628.66944 392.222555 
L 629.95968 392.405082 
L 630.798336 392.514598 
L 631.927296 392.66062 
L 632.927232 392.770136 
L 634.056192 392.916158 
L 635.056128 393.025675 
L 636.023808 393.135191 
L 637.088256 393.244707 
L 638.055936 393.354224 
L 639.217152 393.46374 
L 640.184832 393.573256 
L 641.539584 393.682773 
L 642.507264 393.792289 
L 643.958784 393.901805 
L 644.765184 393.974816 
L 646.184448 394.084333 
L 646.990848 394.157344 
L 648.603648 394.26686 
L 649.410048 394.339871 
L 651.216384 394.449387 
L 652.022784 394.522398 
L 654.022656 394.631914 
L 654.829056 394.704925 
L 657.119232 394.814442 
L 657.248256 394.847297 
L 657.280512 395.044426 
L 657.345024 394.843646 
L 659.119104 394.942211 
L 659.409408 394.960463 
L 661.957632 395.06998 
L 662.602752 395.102835 
L 664.570368 395.212351 
L 665.892864 395.252507 
L 668.731392 395.358373 
L 669.182976 395.394878 
L 671.924736 395.504395 
L 673.247232 395.544551 
L 677.246976 395.650416 
L 677.69856 395.690572 
L 682.569216 395.796438 
L 683.0208 395.832944 
L 687.407616 395.93881 
L 687.923712 395.946111 
L 694.95552 396.051976 
L 695.407104 396.092132 
L 705.11616 396.197998 
L 705.567744 396.234504 
L 737.888256 396.249106 
L 737.920512 396.373224 
L 737.985024 396.205299 
L 738.275328 396.227203 
L 818.528256 396.230853 
L 818.560512 396.417031 
L 818.625024 396.230853 
L 818.81856 396.2126 
L 819.979776 396.234504 
L 899.168256 396.230853 
L 899.200512 396.417031 
L 899.265024 396.230853 
L 899.45856 396.2126 
L 900.619776 396.234504 
L 947.52 396.234504 
L 947.52 396.234504 
" clip-path="url(#pbb96ebbe53)" style="fill: none; stroke: #ff00ff; stroke-width: 2; stroke-linecap: square"/>
   </g>
   <g id="patch_22">
    <path d="M 100.8 465.442759 
L 100.8 372.711724 
" style="fill: none; stroke: #bcbcbc; stroke-width: 0.8; stroke-linejoin: miter; stroke-linecap: square"/>
   </g>
   <g id="patch_23">
    <path d="M 987.84 465.442759 
L 987.84 372.711724 
" style="fill: none; stroke: #bcbcbc; stroke-width: 0.8; stroke-linejoin: miter; stroke-linecap: square"/>
   </g>
   <g id="patch_24">
    <path d="M 100.8 465.442759 
L 987.84 465.442759 
" style="fill: none; stroke: #bcbcbc; stroke-width: 0.8; stroke-linejoin: miter; stroke-linecap: square"/>
   </g>
   <g id="patch_25">
    <path d="M 100.8 372.711724 
L 987.84 372.711724 
" style="fill: none; stroke: #bcbcbc; stroke-width: 0.8; stroke-linejoin: miter; stroke-linecap: square"/>
   </g>
  </g>
  <g id="axes_5">
   <g id="patch_26">
    <path d="M 100.8 576.72 
L 987.84 576.72 
L 987.84 483.988966 
L 100.8 483.988966 
z
" style="fill: #eeeeee"/>
   </g>
   <g id="matplotlib.axis_9">
    <g id="xtick_25">
     <g id="line2d_71">
      <path d="M 141.12 576.72 
L 141.12 483.988966 
" clip-path="url(#p82a1b54408)" style="fill: none; stroke-dasharray: 1.85,0.8; stroke-dashoffset: 0; stroke: #b2b2b2; stroke-width: 0.5"/>
     </g>
     <g id="line2d_72">
      <g>
       <use xlink:href="#md7b72c257d" x="141.12" y="576.72" style="stroke: #000000; stroke-width: 0.8"/>
      </g>
     </g>
     <g id="text_14">
      <!-- 0 s -->
      <g transform="translate(130.795 590.857813) scale(0.14 -0.14)">
       <defs>
        <path id="DejaVuSans-73" d="M 2834 3397 
L 2834 2853 
Q 2591 2978 2328 3040 
Q 2066 3103 1784 3103 
Q 1356 3103 1142 2972 
Q 928 2841 928 2578 
Q 928 2378 1081 2264 
Q 1234 2150 1697 2047 
L 1894 2003 
Q 2506 1872 2764 1633 
Q 3022 1394 3022 966 
Q 3022 478 2636 193 
Q 2250 -91 1575 -91 
Q 1294 -91 989 -36 
Q 684 19 347 128 
L 347 722 
Q 666 556 975 473 
Q 1284 391 1588 391 
Q 1994 391 2212 530 
Q 2431 669 2431 922 
Q 2431 1156 2273 1281 
Q 2116 1406 1581 1522 
L 1381 1569 
Q 847 1681 609 1914 
Q 372 2147 372 2553 
Q 372 3047 722 3315 
Q 1072 3584 1716 3584 
Q 2034 3584 2315 3537 
Q 2597 3491 2834 3397 
z
" transform="scale(0.015625)"/>
       </defs>
       <use xlink:href="#DejaVuSans-30"/>
       <use xlink:href="#DejaVuSans-20" x="63.623047"/>
       <use xlink:href="#DejaVuSans-73" x="95.410156"/>
      </g>
     </g>
    </g>
    <g id="xtick_26">
     <g id="line2d_73">
      <path d="M 302.4 576.72 
L 302.4 483.988966 
" clip-path="url(#p82a1b54408)" style="fill: none; stroke-dasharray: 1.85,0.8; stroke-dashoffset: 0; stroke: #b2b2b2; stroke-width: 0.5"/>
     </g>
     <g id="line2d_74">
      <g>
       <use xlink:href="#md7b72c257d" x="302.4" y="576.72" style="stroke: #000000; stroke-width: 0.8"/>
      </g>
     </g>
     <g id="text_15">
      <!-- 50 ns -->
      <g transform="translate(283.185 590.857813) scale(0.14 -0.14)">
       <defs>
        <path id="DejaVuSans-35" d="M 691 4666 
L 3169 4666 
L 3169 4134 
L 1269 4134 
L 1269 2991 
Q 1406 3038 1543 3061 
Q 1681 3084 1819 3084 
Q 2600 3084 3056 2656 
Q 3513 2228 3513 1497 
Q 3513 744 3044 326 
Q 2575 -91 1722 -91 
Q 1428 -91 1123 -41 
Q 819 9 494 109 
L 494 744 
Q 775 591 1075 516 
Q 1375 441 1709 441 
Q 2250 441 2565 725 
Q 2881 1009 2881 1497 
Q 2881 1984 2565 2268 
Q 2250 2553 1709 2553 
Q 1456 2553 1204 2497 
Q 953 2441 691 2322 
L 691 4666 
z
" transform="scale(0.015625)"/>
        <path id="DejaVuSans-6e" d="M 3513 2113 
L 3513 0 
L 2938 0 
L 2938 2094 
Q 2938 2591 2744 2837 
Q 2550 3084 2163 3084 
Q 1697 3084 1428 2787 
Q 1159 2491 1159 1978 
L 1159 0 
L 581 0 
L 581 3500 
L 1159 3500 
L 1159 2956 
Q 1366 3272 1645 3428 
Q 1925 3584 2291 3584 
Q 2894 3584 3203 3211 
Q 3513 2838 3513 2113 
z
" transform="scale(0.015625)"/>
       </defs>
       <use xlink:href="#DejaVuSans-35"/>
       <use xlink:href="#DejaVuSans-30" x="63.623047"/>
       <use xlink:href="#DejaVuSans-20" x="127.246094"/>
       <use xlink:href="#DejaVuSans-6e" x="159.033203"/>
       <use xlink:href="#DejaVuSans-73" x="222.412109"/>
      </g>
     </g>
    </g>
    <g id="xtick_27">
     <g id="line2d_75">
      <path d="M 463.68 576.72 
L 463.68 483.988966 
" clip-path="url(#p82a1b54408)" style="fill: none; stroke-dasharray: 1.85,0.8; stroke-dashoffset: 0; stroke: #b2b2b2; stroke-width: 0.5"/>
     </g>
     <g id="line2d_76">
      <g>
       <use xlink:href="#md7b72c257d" x="463.68" y="576.72" style="stroke: #000000; stroke-width: 0.8"/>
      </g>
     </g>
     <g id="text_16">
      <!-- 100 ns -->
      <g transform="translate(440.01125 590.857813) scale(0.14 -0.14)">
       <use xlink:href="#DejaVuSans-31"/>
       <use xlink:href="#DejaVuSans-30" x="63.623047"/>
       <use xlink:href="#DejaVuSans-30" x="127.246094"/>
       <use xlink:href="#DejaVuSans-20" x="190.869141"/>
       <use xlink:href="#DejaVuSans-6e" x="222.65625"/>
       <use xlink:href="#DejaVuSans-73" x="286.035156"/>
      </g>
     </g>
    </g>
    <g id="xtick_28">
     <g id="line2d_77">
      <path d="M 624.96 576.72 
L 624.96 483.988966 
" clip-path="url(#p82a1b54408)" style="fill: none; stroke-dasharray: 1.85,0.8; stroke-dashoffset: 0; stroke: #b2b2b2; stroke-width: 0.5"/>
     </g>
     <g id="line2d_78">
      <g>
       <use xlink:href="#md7b72c257d" x="624.96" y="576.72" style="stroke: #000000; stroke-width: 0.8"/>
      </g>
     </g>
     <g id="text_17">
      <!-- 150 ns -->
      <g transform="translate(601.29125 590.857813) scale(0.14 -0.14)">
       <use xlink:href="#DejaVuSans-31"/>
       <use xlink:href="#DejaVuSans-35" x="63.623047"/>
       <use xlink:href="#DejaVuSans-30" x="127.246094"/>
       <use xlink:href="#DejaVuSans-20" x="190.869141"/>
       <use xlink:href="#DejaVuSans-6e" x="222.65625"/>
       <use xlink:href="#DejaVuSans-73" x="286.035156"/>
      </g>
     </g>
    </g>
    <g id="xtick_29">
     <g id="line2d_79">
      <path d="M 786.24 576.72 
L 786.24 483.988966 
" clip-path="url(#p82a1b54408)" style="fill: none; stroke-dasharray: 1.85,0.8; stroke-dashoffset: 0; stroke: #b2b2b2; stroke-width: 0.5"/>
     </g>
     <g id="line2d_80">
      <g>
       <use xlink:href="#md7b72c257d" x="786.24" y="576.72" style="stroke: #000000; stroke-width: 0.8"/>
      </g>
     </g>
     <g id="text_18">
      <!-- 200 ns -->
      <g transform="translate(762.57125 590.857813) scale(0.14 -0.14)">
       <use xlink:href="#DejaVuSans-32"/>
       <use xlink:href="#DejaVuSans-30" x="63.623047"/>
       <use xlink:href="#DejaVuSans-30" x="127.246094"/>
       <use xlink:href="#DejaVuSans-20" x="190.869141"/>
       <use xlink:href="#DejaVuSans-6e" x="222.65625"/>
       <use xlink:href="#DejaVuSans-73" x="286.035156"/>
      </g>
     </g>
    </g>
    <g id="xtick_30">
     <g id="line2d_81">
      <path d="M 947.52 576.72 
L 947.52 483.988966 
" clip-path="url(#p82a1b54408)" style="fill: none; stroke-dasharray: 1.85,0.8; stroke-dashoffset: 0; stroke: #b2b2b2; stroke-width: 0.5"/>
     </g>
     <g id="line2d_82">
      <g>
       <use xlink:href="#md7b72c257d" x="947.52" y="576.72" style="stroke: #000000; stroke-width: 0.8"/>
      </g>
     </g>
     <g id="text_19">
      <!-- 250 ns -->
      <g transform="translate(923.85125 590.857813) scale(0.14 -0.14)">
       <use xlink:href="#DejaVuSans-32"/>
       <use xlink:href="#DejaVuSans-35" x="63.623047"/>
       <use xlink:href="#DejaVuSans-30" x="127.246094"/>
       <use xlink:href="#DejaVuSans-20" x="190.869141"/>
       <use xlink:href="#DejaVuSans-6e" x="222.65625"/>
       <use xlink:href="#DejaVuSans-73" x="286.035156"/>
      </g>
     </g>
    </g>
    <g id="text_20">
     <!-- Time -->
     <g transform="translate(527.192969 608.407187) scale(0.14 -0.14)">
      <defs>
       <path id="DejaVuSans-69" d="M 603 3500 
L 1178 3500 
L 1178 0 
L 603 0 
L 603 3500 
z
M 603 4863 
L 1178 4863 
L 1178 4134 
L 603 4134 
L 603 4863 
z
" transform="scale(0.015625)"/>
       <path id="DejaVuSans-6d" d="M 3328 2828 
Q 3544 3216 3844 3400 
Q 4144 3584 4550 3584 
Q 5097 3584 5394 3201 
Q 5691 2819 5691 2113 
L 5691 0 
L 5113 0 
L 5113 2094 
Q 5113 2597 4934 2840 
Q 4756 3084 4391 3084 
Q 3944 3084 3684 2787 
Q 3425 2491 3425 1978 
L 3425 0 
L 2847 0 
L 2847 2094 
Q 2847 2600 2669 2842 
Q 2491 3084 2119 3084 
Q 1678 3084 1418 2786 
Q 1159 2488 1159 1978 
L 1159 0 
L 581 0 
L 581 3500 
L 1159 3500 
L 1159 2956 
Q 1356 3278 1631 3431 
Q 1906 3584 2284 3584 
Q 2666 3584 2933 3390 
Q 3200 3197 3328 2828 
z
" transform="scale(0.015625)"/>
       <path id="DejaVuSans-65" d="M 3597 1894 
L 3597 1613 
L 953 1613 
Q 991 1019 1311 708 
Q 1631 397 2203 397 
Q 2534 397 2845 478 
Q 3156 559 3463 722 
L 3463 178 
Q 3153 47 2828 -22 
Q 2503 -91 2169 -91 
Q 1331 -91 842 396 
Q 353 884 353 1716 
Q 353 2575 817 3079 
Q 1281 3584 2069 3584 
Q 2775 3584 3186 3129 
Q 3597 2675 3597 1894 
z
M 3022 2063 
Q 3016 2534 2758 2815 
Q 2500 3097 2075 3097 
Q 1594 3097 1305 2825 
Q 1016 2553 972 2059 
L 3022 2063 
z
" transform="scale(0.015625)"/>
      </defs>
      <use xlink:href="#DejaVuSans-54"/>
      <use xlink:href="#DejaVuSans-69" x="57.958984"/>
      <use xlink:href="#DejaVuSans-6d" x="85.742188"/>
      <use xlink:href="#DejaVuSans-65" x="183.154297"/>
     </g>
    </g>
   </g>
   <g id="matplotlib.axis_10">
    <g id="ytick_10">
     <g id="line2d_83">
      <path d="M 100.8 569.745885 
L 987.84 569.745885 
" clip-path="url(#p82a1b54408)" style="fill: none; stroke-dasharray: 1.85,0.8; stroke-dashoffset: 0; stroke: #b2b2b2; stroke-width: 0.5"/>
     </g>
     <g id="line2d_84">
      <g>
       <use xlink:href="#m7c4f95a0df" x="100.8" y="569.745885" style="stroke: #000000; stroke-width: 0.8"/>
      </g>
     </g>
     <g id="text_21">
      <!-- 0 V -->
      <g transform="translate(74.36625 575.064792) scale(0.14 -0.14)">
       <use xlink:href="#DejaVuSans-30"/>
       <use xlink:href="#DejaVuSans-20" x="63.623047"/>
       <use xlink:href="#DejaVuSans-56" x="95.410156"/>
      </g>
     </g>
    </g>
    <g id="ytick_11">
     <g id="line2d_85">
      <path d="M 100.8 535.950348 
L 987.84 535.950348 
" clip-path="url(#p82a1b54408)" style="fill: none; stroke-dasharray: 1.85,0.8; stroke-dashoffset: 0; stroke: #b2b2b2; stroke-width: 0.5"/>
     </g>
     <g id="line2d_86">
      <g>
       <use xlink:href="#m7c4f95a0df" x="100.8" y="535.950348" style="stroke: #000000; stroke-width: 0.8"/>
      </g>
     </g>
     <g id="text_22">
      <!-- 500 mV -->
      <g transform="translate(42.914375 541.269254) scale(0.14 -0.14)">
       <use xlink:href="#DejaVuSans-35"/>
       <use xlink:href="#DejaVuSans-30" x="63.623047"/>
       <use xlink:href="#DejaVuSans-30" x="127.246094"/>
       <use xlink:href="#DejaVuSans-20" x="190.869141"/>
       <use xlink:href="#DejaVuSans-6d" x="222.65625"/>
       <use xlink:href="#DejaVuSans-56" x="320.068359"/>
      </g>
     </g>
    </g>
    <g id="ytick_12">
     <g id="line2d_87">
      <path d="M 100.8 502.15481 
L 987.84 502.15481 
" clip-path="url(#p82a1b54408)" style="fill: none; stroke-dasharray: 1.85,0.8; stroke-dashoffset: 0; stroke: #b2b2b2; stroke-width: 0.5"/>
     </g>
     <g id="line2d_88">
      <g>
       <use xlink:href="#m7c4f95a0df" x="100.8" y="502.15481" style="stroke: #000000; stroke-width: 0.8"/>
      </g>
     </g>
     <g id="text_23">
      <!-- 1 V -->
      <g transform="translate(74.36625 507.473717) scale(0.14 -0.14)">
       <use xlink:href="#DejaVuSans-31"/>
       <use xlink:href="#DejaVuSans-20" x="63.623047"/>
       <use xlink:href="#DejaVuSans-56" x="95.410156"/>
      </g>
     </g>
    </g>
    <g id="text_24">
     <g id="patch_27">
      <path d="M 34.8768 554.329483 
L 34.8768 506.379483 
L 11.247425 506.379483 
L 11.247425 554.329483 
z
" style="fill: #ffff00; opacity: 0.2; stroke: #eeeeee; stroke-width: 0.5; stroke-linejoin: miter"/>
     </g>
     <!-- FOUT -->
     <g transform="translate(26.925238 549.289483) rotate(-90) scale(0.14 -0.14)">
      <use xlink:href="#DejaVuSans-46"/>
      <use xlink:href="#DejaVuSans-4f" x="57.519531"/>
      <use xlink:href="#DejaVuSans-55" x="136.230469"/>
      <use xlink:href="#DejaVuSans-54" x="209.423828"/>
     </g>
    </g>
   </g>
   <g id="line2d_89">
    <path d="M 141.12 488.636595 
L 173.472768 488.643355 
L 173.505024 488.44734 
L 173.569536 526.789729 
L 173.69856 572.504953 
L 173.730816 572.3695 
L 173.827584 567.842115 
L 173.892096 569.3609 
L 174.053376 570.064192 
L 174.117888 569.946665 
L 174.408192 569.492054 
L 174.440448 569.54151 
L 174.66624 569.729954 
L 176.182272 569.740151 
L 180.117504 569.761449 
L 193.568256 569.752159 
L 212.954112 569.74401 
L 255.30624 569.743704 
L 255.6288 488.52845 
L 255.854592 488.670391 
L 256.209408 488.629836 
L 334.849536 488.650114 
L 334.881792 492.854278 
L 335.043072 572.18376 
L 335.107584 570.261206 
L 335.172096 568.338639 
L 335.236608 568.870108 
L 335.365632 570.783003 
L 335.430144 570.410083 
L 335.591424 569.797213 
L 335.881728 569.648439 
L 336.559104 569.817924 
L 337.107456 569.746143 
L 350.009856 569.744206 
L 416.489472 569.74333 
L 416.553984 567.480841 
L 416.812032 488.204013 
L 416.844288 488.339195 
L 416.973312 488.852887 
L 417.037824 488.778537 
L 417.39264 488.548727 
L 417.844224 488.717705 
L 418.457088 488.562245 
L 419.328 488.636595 
L 478.324224 488.569004 
L 478.388736 488.251326 
L 478.453248 510.501632 
L 478.582272 570.182997 
L 478.614528 569.796024 
L 478.743552 569.746036 
L 480.420864 569.744211 
L 524.80512 569.80999 
L 524.837376 569.855065 
L 524.869632 569.68259 
L 524.934144 556.189143 
L 525.159936 488.778537 
L 525.321216 488.643355 
L 525.869568 488.636595 
L 526.934016 488.636595 
L 526.998528 504.198765 
L 527.192064 571.987949 
L 527.256576 569.729508 
L 527.514624 569.744209 
L 577.350144 569.813378 
L 577.3824 569.95072 
L 577.70496 488.643355 
L 947.52 488.636595 
L 947.52 488.636595 
" clip-path="url(#p82a1b54408)" style="fill: none; stroke: #ff00ff; stroke-width: 2; stroke-linecap: square"/>
   </g>
   <g id="patch_28">
    <path d="M 100.8 576.72 
L 100.8 483.988966 
" style="fill: none; stroke: #bcbcbc; stroke-width: 0.8; stroke-linejoin: miter; stroke-linecap: square"/>
   </g>
   <g id="patch_29">
    <path d="M 987.84 576.72 
L 987.84 483.988966 
" style="fill: none; stroke: #bcbcbc; stroke-width: 0.8; stroke-linejoin: miter; stroke-linecap: square"/>
   </g>
   <g id="patch_30">
    <path d="M 100.8 576.72 
L 987.84 576.72 
" style="fill: none; stroke: #bcbcbc; stroke-width: 0.8; stroke-linejoin: miter; stroke-linecap: square"/>
   </g>
   <g id="patch_31">
    <path d="M 100.8 483.988966 
L 987.84 483.988966 
" style="fill: none; stroke: #bcbcbc; stroke-width: 0.8; stroke-linejoin: miter; stroke-linecap: square"/>
   </g>
  </g>
  <g id="axes_6">
   <g id="patch_32">
    <path d="M 201.6 628.56 
L 856.8 628.56 
L 856.8 615.6 
L 201.6 615.6 
z
" clip-path="url(#p146ad2f836)" style="fill: #d3d3d3"/>
   </g>
   <g id="patch_33">
    <path d="M 201.6 628.56 
L 599.4 628.56 
L 599.4 615.6 
L 201.6 615.6 
z
" clip-path="url(#p146ad2f836)" style="fill: #0000ff"/>
   </g>
   <g id="line2d_90">
    <path d="M 201.6 635.04 
L 201.6 609.12 
" clip-path="url(#p2e7a112b58)" style="fill: none; stroke: #ff0000; stroke-linecap: square"/>
   </g>
   <g id="line2d_91">
    <defs>
     <path id="m72a27187ee" d="M 0 5 
C 1.326016 5 2.597899 4.473168 3.535534 3.535534 
C 4.473168 2.597899 5 1.326016 5 0 
C 5 -1.326016 4.473168 -2.597899 3.535534 -3.535534 
C 2.597899 -4.473168 1.326016 -5 0 -5 
C -1.326016 -5 -2.597899 -4.473168 -3.535534 -3.535534 
C -4.473168 -2.597899 -5 -1.326016 -5 0 
C -5 1.326016 -4.473168 2.597899 -3.535534 3.535534 
C -2.597899 4.473168 -1.326016 5 0 5 
z
" style="stroke: #bfbfbf"/>
    </defs>
    <g>
     <use xlink:href="#m72a27187ee" x="599.4" y="622.08" style="fill: #ffffff; stroke: #bfbfbf"/>
    </g>
   </g>
   <g id="text_25">
    <!-- #Sweep -->
    <g transform="translate(138.622875 625.39125) scale(0.12 -0.12)">
     <defs>
      <path id="DejaVuSans-23" d="M 3272 2816 
L 2363 2816 
L 2100 1772 
L 3016 1772 
L 3272 2816 
z
M 2803 4594 
L 2478 3297 
L 3391 3297 
L 3719 4594 
L 4219 4594 
L 3897 3297 
L 4872 3297 
L 4872 2816 
L 3775 2816 
L 3519 1772 
L 4513 1772 
L 4513 1294 
L 3397 1294 
L 3072 0 
L 2572 0 
L 2894 1294 
L 1978 1294 
L 1656 0 
L 1153 0 
L 1478 1294 
L 494 1294 
L 494 1772 
L 1594 1772 
L 1856 2816 
L 850 2816 
L 850 3297 
L 1978 3297 
L 2297 4594 
L 2803 4594 
z
" transform="scale(0.015625)"/>
      <path id="DejaVuSans-77" d="M 269 3500 
L 844 3500 
L 1563 769 
L 2278 3500 
L 2956 3500 
L 3675 769 
L 4391 3500 
L 4966 3500 
L 4050 0 
L 3372 0 
L 2619 2869 
L 1863 0 
L 1184 0 
L 269 3500 
z
" transform="scale(0.015625)"/>
      <path id="DejaVuSans-70" d="M 1159 525 
L 1159 -1331 
L 581 -1331 
L 581 3500 
L 1159 3500 
L 1159 2969 
Q 1341 3281 1617 3432 
Q 1894 3584 2278 3584 
Q 2916 3584 3314 3078 
Q 3713 2572 3713 1747 
Q 3713 922 3314 415 
Q 2916 -91 2278 -91 
Q 1894 -91 1617 61 
Q 1341 213 1159 525 
z
M 3116 1747 
Q 3116 2381 2855 2742 
Q 2594 3103 2138 3103 
Q 1681 3103 1420 2742 
Q 1159 2381 1159 1747 
Q 1159 1113 1420 752 
Q 1681 391 2138 391 
Q 2594 391 2855 752 
Q 3116 1113 3116 1747 
z
" transform="scale(0.015625)"/>
     </defs>
     <use xlink:href="#DejaVuSans-23"/>
     <use xlink:href="#DejaVuSans-53" x="83.789062"/>
     <use xlink:href="#DejaVuSans-77" x="147.265625"/>
     <use xlink:href="#DejaVuSans-65" x="229.052734"/>
     <use xlink:href="#DejaVuSans-65" x="290.576172"/>
     <use xlink:href="#DejaVuSans-70" x="352.099609"/>
    </g>
   </g>
   <g id="text_26">
    <!-- $\mathdefault{85}$ -->
    <g transform="translate(869.904 625.39125) scale(0.12 -0.12)">
     <defs>
      <path id="DejaVuSans-38" d="M 2034 2216 
Q 1584 2216 1326 1975 
Q 1069 1734 1069 1313 
Q 1069 891 1326 650 
Q 1584 409 2034 409 
Q 2484 409 2743 651 
Q 3003 894 3003 1313 
Q 3003 1734 2745 1975 
Q 2488 2216 2034 2216 
z
M 1403 2484 
Q 997 2584 770 2862 
Q 544 3141 544 3541 
Q 544 4100 942 4425 
Q 1341 4750 2034 4750 
Q 2731 4750 3128 4425 
Q 3525 4100 3525 3541 
Q 3525 3141 3298 2862 
Q 3072 2584 2669 2484 
Q 3125 2378 3379 2068 
Q 3634 1759 3634 1313 
Q 3634 634 3220 271 
Q 2806 -91 2034 -91 
Q 1263 -91 848 271 
Q 434 634 434 1313 
Q 434 1759 690 2068 
Q 947 2378 1403 2484 
z
M 1172 3481 
Q 1172 3119 1398 2916 
Q 1625 2713 2034 2713 
Q 2441 2713 2670 2916 
Q 2900 3119 2900 3481 
Q 2900 3844 2670 4047 
Q 2441 4250 2034 4250 
Q 1625 4250 1398 4047 
Q 1172 3844 1172 3481 
z
" transform="scale(0.015625)"/>
     </defs>
     <use xlink:href="#DejaVuSans-38" transform="translate(0 0.78125)"/>
     <use xlink:href="#DejaVuSans-35" transform="translate(63.623047 0.78125)"/>
    </g>
   </g>
  </g>
  <g id="text_27">
   <!-- DFF under BBI sweep analysis (Sweep = 95E-9) -->
   <g transform="translate(313.34625 25.1175) scale(0.16 -0.16)">
    <defs>
     <path id="DejaVuSans-75" d="M 544 1381 
L 544 3500 
L 1119 3500 
L 1119 1403 
Q 1119 906 1312 657 
Q 1506 409 1894 409 
Q 2359 409 2629 706 
Q 2900 1003 2900 1516 
L 2900 3500 
L 3475 3500 
L 3475 0 
L 2900 0 
L 2900 538 
Q 2691 219 2414 64 
Q 2138 -91 1772 -91 
Q 1169 -91 856 284 
Q 544 659 544 1381 
z
M 1991 3584 
L 1991 3584 
z
" transform="scale(0.015625)"/>
     <path id="DejaVuSans-64" d="M 2906 2969 
L 2906 4863 
L 3481 4863 
L 3481 0 
L 2906 0 
L 2906 525 
Q 2725 213 2448 61 
Q 2172 -91 1784 -91 
Q 1150 -91 751 415 
Q 353 922 353 1747 
Q 353 2572 751 3078 
Q 1150 3584 1784 3584 
Q 2172 3584 2448 3432 
Q 2725 3281 2906 2969 
z
M 947 1747 
Q 947 1113 1208 752 
Q 1469 391 1925 391 
Q 2381 391 2643 752 
Q 2906 1113 2906 1747 
Q 2906 2381 2643 2742 
Q 2381 3103 1925 3103 
Q 1469 3103 1208 2742 
Q 947 2381 947 1747 
z
" transform="scale(0.015625)"/>
     <path id="DejaVuSans-72" d="M 2631 2963 
Q 2534 3019 2420 3045 
Q 2306 3072 2169 3072 
Q 1681 3072 1420 2755 
Q 1159 2438 1159 1844 
L 1159 0 
L 581 0 
L 581 3500 
L 1159 3500 
L 1159 2956 
Q 1341 3275 1631 3429 
Q 1922 3584 2338 3584 
Q 2397 3584 2469 3576 
Q 2541 3569 2628 3553 
L 2631 2963 
z
" transform="scale(0.015625)"/>
     <path id="DejaVuSans-61" d="M 2194 1759 
Q 1497 1759 1228 1600 
Q 959 1441 959 1056 
Q 959 750 1161 570 
Q 1363 391 1709 391 
Q 2188 391 2477 730 
Q 2766 1069 2766 1631 
L 2766 1759 
L 2194 1759 
z
M 3341 1997 
L 3341 0 
L 2766 0 
L 2766 531 
Q 2569 213 2275 61 
Q 1981 -91 1556 -91 
Q 1019 -91 701 211 
Q 384 513 384 1019 
Q 384 1609 779 1909 
Q 1175 2209 1959 2209 
L 2766 2209 
L 2766 2266 
Q 2766 2663 2505 2880 
Q 2244 3097 1772 3097 
Q 1472 3097 1187 3025 
Q 903 2953 641 2809 
L 641 3341 
Q 956 3463 1253 3523 
Q 1550 3584 1831 3584 
Q 2591 3584 2966 3190 
Q 3341 2797 3341 1997 
z
" transform="scale(0.015625)"/>
     <path id="DejaVuSans-6c" d="M 603 4863 
L 1178 4863 
L 1178 0 
L 603 0 
L 603 4863 
z
" transform="scale(0.015625)"/>
     <path id="DejaVuSans-79" d="M 2059 -325 
Q 1816 -950 1584 -1140 
Q 1353 -1331 966 -1331 
L 506 -1331 
L 506 -850 
L 844 -850 
Q 1081 -850 1212 -737 
Q 1344 -625 1503 -206 
L 1606 56 
L 191 3500 
L 800 3500 
L 1894 763 
L 2988 3500 
L 3597 3500 
L 2059 -325 
z
" transform="scale(0.015625)"/>
     <path id="DejaVuSans-28" d="M 1984 4856 
Q 1566 4138 1362 3434 
Q 1159 2731 1159 2009 
Q 1159 1288 1364 580 
Q 1569 -128 1984 -844 
L 1484 -844 
Q 1016 -109 783 600 
Q 550 1309 550 2009 
Q 550 2706 781 3412 
Q 1013 4119 1484 4856 
L 1984 4856 
z
" transform="scale(0.015625)"/>
     <path id="DejaVuSans-3d" d="M 678 2906 
L 4684 2906 
L 4684 2381 
L 678 2381 
L 678 2906 
z
M 678 1631 
L 4684 1631 
L 4684 1100 
L 678 1100 
L 678 1631 
z
" transform="scale(0.015625)"/>
     <path id="DejaVuSans-39" d="M 703 97 
L 703 672 
Q 941 559 1184 500 
Q 1428 441 1663 441 
Q 2288 441 2617 861 
Q 2947 1281 2994 2138 
Q 2813 1869 2534 1725 
Q 2256 1581 1919 1581 
Q 1219 1581 811 2004 
Q 403 2428 403 3163 
Q 403 3881 828 4315 
Q 1253 4750 1959 4750 
Q 2769 4750 3195 4129 
Q 3622 3509 3622 2328 
Q 3622 1225 3098 567 
Q 2575 -91 1691 -91 
Q 1453 -91 1209 -44 
Q 966 3 703 97 
z
M 1959 2075 
Q 2384 2075 2632 2365 
Q 2881 2656 2881 3163 
Q 2881 3666 2632 3958 
Q 2384 4250 1959 4250 
Q 1534 4250 1286 3958 
Q 1038 3666 1038 3163 
Q 1038 2656 1286 2365 
Q 1534 2075 1959 2075 
z
" transform="scale(0.015625)"/>
     <path id="DejaVuSans-2d" d="M 313 2009 
L 1997 2009 
L 1997 1497 
L 313 1497 
L 313 2009 
z
" transform="scale(0.015625)"/>
     <path id="DejaVuSans-29" d="M 513 4856 
L 1013 4856 
Q 1481 4119 1714 3412 
Q 1947 2706 1947 2009 
Q 1947 1309 1714 600 
Q 1481 -109 1013 -844 
L 513 -844 
Q 928 -128 1133 580 
Q 1338 1288 1338 2009 
Q 1338 2731 1133 3434 
Q 928 4138 513 4856 
z
" transform="scale(0.015625)"/>
    </defs>
    <use xlink:href="#DejaVuSans-44"/>
    <use xlink:href="#DejaVuSans-46" x="77.001953"/>
    <use xlink:href="#DejaVuSans-46" x="134.521484"/>
    <use xlink:href="#DejaVuSans-20" x="192.041016"/>
    <use xlink:href="#DejaVuSans-75" x="223.828125"/>
    <use xlink:href="#DejaVuSans-6e" x="287.207031"/>
    <use xlink:href="#DejaVuSans-64" x="350.585938"/>
    <use xlink:href="#DejaVuSans-65" x="414.0625"/>
    <use xlink:href="#DejaVuSans-72" x="475.585938"/>
    <use xlink:href="#DejaVuSans-20" x="516.699219"/>
    <use xlink:href="#DejaVuSans-42" x="548.486328"/>
    <use xlink:href="#DejaVuSans-42" x="617.089844"/>
    <use xlink:href="#DejaVuSans-49" x="685.693359"/>
    <use xlink:href="#DejaVuSans-20" x="715.185547"/>
    <use xlink:href="#DejaVuSans-73" x="746.972656"/>
    <use xlink:href="#DejaVuSans-77" x="799.072266"/>
    <use xlink:href="#DejaVuSans-65" x="880.859375"/>
    <use xlink:href="#DejaVuSans-65" x="942.382812"/>
    <use xlink:href="#DejaVuSans-70" x="1003.90625"/>
    <use xlink:href="#DejaVuSans-20" x="1067.382812"/>
    <use xlink:href="#DejaVuSans-61" x="1099.169922"/>
    <use xlink:href="#DejaVuSans-6e" x="1160.449219"/>
    <use xlink:href="#DejaVuSans-61" x="1223.828125"/>
    <use xlink:href="#DejaVuSans-6c" x="1285.107422"/>
    <use xlink:href="#DejaVuSans-79" x="1312.890625"/>
    <use xlink:href="#DejaVuSans-73" x="1372.070312"/>
    <use xlink:href="#DejaVuSans-69" x="1424.169922"/>
    <use xlink:href="#DejaVuSans-73" x="1451.953125"/>
    <use xlink:href="#DejaVuSans-20" x="1504.052734"/>
    <use xlink:href="#DejaVuSans-28" x="1535.839844"/>
    <use xlink:href="#DejaVuSans-53" x="1574.853516"/>
    <use xlink:href="#DejaVuSans-77" x="1638.330078"/>
    <use xlink:href="#DejaVuSans-65" x="1720.117188"/>
    <use xlink:href="#DejaVuSans-65" x="1781.640625"/>
    <use xlink:href="#DejaVuSans-70" x="1843.164062"/>
    <use xlink:href="#DejaVuSans-20" x="1906.640625"/>
    <use xlink:href="#DejaVuSans-3d" x="1938.427734"/>
    <use xlink:href="#DejaVuSans-20" x="2022.216797"/>
    <use xlink:href="#DejaVuSans-39" x="2054.003906"/>
    <use xlink:href="#DejaVuSans-35" x="2117.626953"/>
    <use xlink:href="#DejaVuSans-45" x="2181.25"/>
    <use xlink:href="#DejaVuSans-2d" x="2244.433594"/>
    <use xlink:href="#DejaVuSans-39" x="2280.517578"/>
    <use xlink:href="#DejaVuSans-29" x="2344.140625"/>
   </g>
  </g>
 </g>
 <defs>
  <clipPath id="p8df5dbe80b">
   <rect x="100.8" y="38.88" width="887.04" height="92.731034"/>
  </clipPath>
  <clipPath id="pa6651142d7">
   <rect x="100.8" y="150.157241" width="887.04" height="92.731034"/>
  </clipPath>
  <clipPath id="pdd2984c5c8">
   <rect x="100.8" y="261.434483" width="887.04" height="92.731034"/>
  </clipPath>
  <clipPath id="pbb96ebbe53">
   <rect x="100.8" y="372.711724" width="887.04" height="92.731034"/>
  </clipPath>
  <clipPath id="p82a1b54408">
   <rect x="100.8" y="483.988966" width="887.04" height="92.731034"/>
  </clipPath>
  <clipPath id="p146ad2f836">
   <rect x="201.6" y="609.12" width="655.2" height="25.92"/>
  </clipPath>
  <clipPath id="p2e7a112b58">
   <path d="M 201.6 628.56 
L 856.8 628.56 
L 856.8 615.6 
L 201.6 615.6 
z
"/>
  </clipPath>
 </defs>
</svg>
