<?xml version="1.0" encoding="utf-8" standalone="no"?>
<!DOCTYPE svg PUBLIC "-//W3C//DTD SVG 1.1//EN"
  "http://www.w3.org/Graphics/SVG/1.1/DTD/svg11.dtd">
<svg xmlns:xlink="http://www.w3.org/1999/xlink" width="1008pt" height="648pt" viewBox="0 0 1008 648" xmlns="http://www.w3.org/2000/svg" version="1.1">
 <metadata>
  <rdf:RDF xmlns:dc="http://purl.org/dc/elements/1.1/" xmlns:cc="http://creativecommons.org/ns#" xmlns:rdf="http://www.w3.org/1999/02/22-rdf-syntax-ns#">
   <cc:Work>
    <dc:type rdf:resource="http://purl.org/dc/dcmitype/StillImage"/>
    <dc:date>2024-06-03T10:45:41.079746</dc:date>
    <dc:format>image/svg+xml</dc:format>
    <dc:creator>
     <cc:Agent>
      <dc:title>Matplotlib v3.9.0, https://matplotlib.org/</dc:title>
     </cc:Agent>
    </dc:creator>
   </cc:Work>
  </rdf:RDF>
 </metadata>
 <defs>
  <style type="text/css">*{stroke-linejoin: round; stroke-linecap: butt}</style>
 </defs>
 <g id="figure_1">
  <g id="patch_1">
   <path d="M 0 648 
L 1008 648 
L 1008 0 
L 0 0 
z
" style="fill: #ffffff"/>
  </g>
  <g id="axes_1">
   <g id="patch_2">
    <path d="M 100.8 131.611034 
L 987.84 131.611034 
L 987.84 38.88 
L 100.8 38.88 
z
" style="fill: #eeeeee"/>
   </g>
   <g id="matplotlib.axis_1">
    <g id="xtick_1">
     <g id="line2d_1">
      <path d="M 141.12 131.611034 
L 141.12 38.88 
" clip-path="url(#pa092710133)" style="fill: none; stroke-dasharray: 1.85,0.8; stroke-dashoffset: 0; stroke: #b2b2b2; stroke-width: 0.5"/>
     </g>
     <g id="line2d_2">
      <defs>
       <path id="m3eec9d60cc" d="M 0 0 
L 0 -3.5 
" style="stroke: #000000; stroke-width: 0.8"/>
      </defs>
      <g>
       <use xlink:href="#m3eec9d60cc" x="141.12" y="131.611034" style="stroke: #000000; stroke-width: 0.8"/>
      </g>
     </g>
    </g>
    <g id="xtick_2">
     <g id="line2d_3">
      <path d="M 302.4 131.611034 
L 302.4 38.88 
" clip-path="url(#pa092710133)" style="fill: none; stroke-dasharray: 1.85,0.8; stroke-dashoffset: 0; stroke: #b2b2b2; stroke-width: 0.5"/>
     </g>
     <g id="line2d_4">
      <g>
       <use xlink:href="#m3eec9d60cc" x="302.4" y="131.611034" style="stroke: #000000; stroke-width: 0.8"/>
      </g>
     </g>
    </g>
    <g id="xtick_3">
     <g id="line2d_5">
      <path d="M 463.68 131.611034 
L 463.68 38.88 
" clip-path="url(#pa092710133)" style="fill: none; stroke-dasharray: 1.85,0.8; stroke-dashoffset: 0; stroke: #b2b2b2; stroke-width: 0.5"/>
     </g>
     <g id="line2d_6">
      <g>
       <use xlink:href="#m3eec9d60cc" x="463.68" y="131.611034" style="stroke: #000000; stroke-width: 0.8"/>
      </g>
     </g>
    </g>
    <g id="xtick_4">
     <g id="line2d_7">
      <path d="M 624.96 131.611034 
L 624.96 38.88 
" clip-path="url(#pa092710133)" style="fill: none; stroke-dasharray: 1.85,0.8; stroke-dashoffset: 0; stroke: #b2b2b2; stroke-width: 0.5"/>
     </g>
     <g id="line2d_8">
      <g>
       <use xlink:href="#m3eec9d60cc" x="624.96" y="131.611034" style="stroke: #000000; stroke-width: 0.8"/>
      </g>
     </g>
    </g>
    <g id="xtick_5">
     <g id="line2d_9">
      <path d="M 786.24 131.611034 
L 786.24 38.88 
" clip-path="url(#pa092710133)" style="fill: none; stroke-dasharray: 1.85,0.8; stroke-dashoffset: 0; stroke: #b2b2b2; stroke-width: 0.5"/>
     </g>
     <g id="line2d_10">
      <g>
       <use xlink:href="#m3eec9d60cc" x="786.24" y="131.611034" style="stroke: #000000; stroke-width: 0.8"/>
      </g>
     </g>
    </g>
    <g id="xtick_6">
     <g id="line2d_11">
      <path d="M 947.52 131.611034 
L 947.52 38.88 
" clip-path="url(#pa092710133)" style="fill: none; stroke-dasharray: 1.85,0.8; stroke-dashoffset: 0; stroke: #b2b2b2; stroke-width: 0.5"/>
     </g>
     <g id="line2d_12">
      <g>
       <use xlink:href="#m3eec9d60cc" x="947.52" y="131.611034" style="stroke: #000000; stroke-width: 0.8"/>
      </g>
     </g>
    </g>
   </g>
   <g id="matplotlib.axis_2">
    <g id="ytick_1">
     <g id="line2d_13">
      <path d="M 100.8 98.340394 
L 987.84 98.340394 
" clip-path="url(#pa092710133)" style="fill: none; stroke-dasharray: 1.85,0.8; stroke-dashoffset: 0; stroke: #b2b2b2; stroke-width: 0.5"/>
     </g>
     <g id="line2d_14">
      <defs>
       <path id="m03e5b0b41d" d="M 0 0 
L 3.5 0 
" style="stroke: #000000; stroke-width: 0.8"/>
      </defs>
      <g>
       <use xlink:href="#m03e5b0b41d" x="100.8" y="98.340394" style="stroke: #000000; stroke-width: 0.8"/>
      </g>
     </g>
     <g id="text_1">
      <!-- −200 V -->
      <g transform="translate(44.819688 103.6593) scale(0.14 -0.14)">
       <defs>
        <path id="DejaVuSans-2212" d="M 678 2272 
L 4684 2272 
L 4684 1741 
L 678 1741 
L 678 2272 
z
" transform="scale(0.015625)"/>
        <path id="DejaVuSans-32" d="M 1228 531 
L 3431 531 
L 3431 0 
L 469 0 
L 469 531 
Q 828 903 1448 1529 
Q 2069 2156 2228 2338 
Q 2531 2678 2651 2914 
Q 2772 3150 2772 3378 
Q 2772 3750 2511 3984 
Q 2250 4219 1831 4219 
Q 1534 4219 1204 4116 
Q 875 4013 500 3803 
L 500 4441 
Q 881 4594 1212 4672 
Q 1544 4750 1819 4750 
Q 2544 4750 2975 4387 
Q 3406 4025 3406 3419 
Q 3406 3131 3298 2873 
Q 3191 2616 2906 2266 
Q 2828 2175 2409 1742 
Q 1991 1309 1228 531 
z
" transform="scale(0.015625)"/>
        <path id="DejaVuSans-30" d="M 2034 4250 
Q 1547 4250 1301 3770 
Q 1056 3291 1056 2328 
Q 1056 1369 1301 889 
Q 1547 409 2034 409 
Q 2525 409 2770 889 
Q 3016 1369 3016 2328 
Q 3016 3291 2770 3770 
Q 2525 4250 2034 4250 
z
M 2034 4750 
Q 2819 4750 3233 4129 
Q 3647 3509 3647 2328 
Q 3647 1150 3233 529 
Q 2819 -91 2034 -91 
Q 1250 -91 836 529 
Q 422 1150 422 2328 
Q 422 3509 836 4129 
Q 1250 4750 2034 4750 
z
" transform="scale(0.015625)"/>
        <path id="DejaVuSans-20" transform="scale(0.015625)"/>
        <path id="DejaVuSans-56" d="M 1831 0 
L 50 4666 
L 709 4666 
L 2188 738 
L 3669 4666 
L 4325 4666 
L 2547 0 
L 1831 0 
z
" transform="scale(0.015625)"/>
       </defs>
       <use xlink:href="#DejaVuSans-2212"/>
       <use xlink:href="#DejaVuSans-32" x="83.789062"/>
       <use xlink:href="#DejaVuSans-30" x="147.412109"/>
       <use xlink:href="#DejaVuSans-30" x="211.035156"/>
       <use xlink:href="#DejaVuSans-20" x="274.658203"/>
       <use xlink:href="#DejaVuSans-56" x="306.445312"/>
      </g>
     </g>
    </g>
    <g id="ytick_2">
     <g id="line2d_15">
      <path d="M 100.8 45.027377 
L 987.84 45.027377 
" clip-path="url(#pa092710133)" style="fill: none; stroke-dasharray: 1.85,0.8; stroke-dashoffset: 0; stroke: #b2b2b2; stroke-width: 0.5"/>
     </g>
     <g id="line2d_16">
      <g>
       <use xlink:href="#m03e5b0b41d" x="100.8" y="45.027377" style="stroke: #000000; stroke-width: 0.8"/>
      </g>
     </g>
     <g id="text_2">
      <!-- 0 V -->
      <g transform="translate(74.36625 50.346284) scale(0.14 -0.14)">
       <use xlink:href="#DejaVuSans-30"/>
       <use xlink:href="#DejaVuSans-20" x="63.623047"/>
       <use xlink:href="#DejaVuSans-56" x="95.410156"/>
      </g>
     </g>
    </g>
    <g id="text_3">
     <g id="patch_3">
      <path d="M 34.8768 131.080205 
L 34.8768 39.41083 
L 11.247425 39.41083 
L 11.247425 131.080205 
z
" style="fill: #ffff00; opacity: 0.2; stroke: #eeeeee; stroke-width: 0.5; stroke-linejoin: miter"/>
     </g>
     <!-- VPULSE BBI -->
     <g transform="translate(26.925238 126.040205) rotate(-90) scale(0.14 -0.14)">
      <defs>
       <path id="DejaVuSans-50" d="M 1259 4147 
L 1259 2394 
L 2053 2394 
Q 2494 2394 2734 2622 
Q 2975 2850 2975 3272 
Q 2975 3691 2734 3919 
Q 2494 4147 2053 4147 
L 1259 4147 
z
M 628 4666 
L 2053 4666 
Q 2838 4666 3239 4311 
Q 3641 3956 3641 3272 
Q 3641 2581 3239 2228 
Q 2838 1875 2053 1875 
L 1259 1875 
L 1259 0 
L 628 0 
L 628 4666 
z
" transform="scale(0.015625)"/>
       <path id="DejaVuSans-55" d="M 556 4666 
L 1191 4666 
L 1191 1831 
Q 1191 1081 1462 751 
Q 1734 422 2344 422 
Q 2950 422 3222 751 
Q 3494 1081 3494 1831 
L 3494 4666 
L 4128 4666 
L 4128 1753 
Q 4128 841 3676 375 
Q 3225 -91 2344 -91 
Q 1459 -91 1007 375 
Q 556 841 556 1753 
L 556 4666 
z
" transform="scale(0.015625)"/>
       <path id="DejaVuSans-4c" d="M 628 4666 
L 1259 4666 
L 1259 531 
L 3531 531 
L 3531 0 
L 628 0 
L 628 4666 
z
" transform="scale(0.015625)"/>
       <path id="DejaVuSans-53" d="M 3425 4513 
L 3425 3897 
Q 3066 4069 2747 4153 
Q 2428 4238 2131 4238 
Q 1616 4238 1336 4038 
Q 1056 3838 1056 3469 
Q 1056 3159 1242 3001 
Q 1428 2844 1947 2747 
L 2328 2669 
Q 3034 2534 3370 2195 
Q 3706 1856 3706 1288 
Q 3706 609 3251 259 
Q 2797 -91 1919 -91 
Q 1588 -91 1214 -16 
Q 841 59 441 206 
L 441 856 
Q 825 641 1194 531 
Q 1563 422 1919 422 
Q 2459 422 2753 634 
Q 3047 847 3047 1241 
Q 3047 1584 2836 1778 
Q 2625 1972 2144 2069 
L 1759 2144 
Q 1053 2284 737 2584 
Q 422 2884 422 3419 
Q 422 4038 858 4394 
Q 1294 4750 2059 4750 
Q 2388 4750 2728 4690 
Q 3069 4631 3425 4513 
z
" transform="scale(0.015625)"/>
       <path id="DejaVuSans-45" d="M 628 4666 
L 3578 4666 
L 3578 4134 
L 1259 4134 
L 1259 2753 
L 3481 2753 
L 3481 2222 
L 1259 2222 
L 1259 531 
L 3634 531 
L 3634 0 
L 628 0 
L 628 4666 
z
" transform="scale(0.015625)"/>
       <path id="DejaVuSans-42" d="M 1259 2228 
L 1259 519 
L 2272 519 
Q 2781 519 3026 730 
Q 3272 941 3272 1375 
Q 3272 1813 3026 2020 
Q 2781 2228 2272 2228 
L 1259 2228 
z
M 1259 4147 
L 1259 2741 
L 2194 2741 
Q 2656 2741 2882 2914 
Q 3109 3088 3109 3444 
Q 3109 3797 2882 3972 
Q 2656 4147 2194 4147 
L 1259 4147 
z
M 628 4666 
L 2241 4666 
Q 2963 4666 3353 4366 
Q 3744 4066 3744 3513 
Q 3744 3084 3544 2831 
Q 3344 2578 2956 2516 
Q 3422 2416 3680 2098 
Q 3938 1781 3938 1306 
Q 3938 681 3513 340 
Q 3088 0 2303 0 
L 628 0 
L 628 4666 
z
" transform="scale(0.015625)"/>
       <path id="DejaVuSans-49" d="M 628 4666 
L 1259 4666 
L 1259 0 
L 628 0 
L 628 4666 
z
" transform="scale(0.015625)"/>
      </defs>
      <use xlink:href="#DejaVuSans-56"/>
      <use xlink:href="#DejaVuSans-50" x="68.408203"/>
      <use xlink:href="#DejaVuSans-55" x="128.710938"/>
      <use xlink:href="#DejaVuSans-4c" x="201.904297"/>
      <use xlink:href="#DejaVuSans-53" x="257.617188"/>
      <use xlink:href="#DejaVuSans-45" x="321.09375"/>
      <use xlink:href="#DejaVuSans-20" x="384.277344"/>
      <use xlink:href="#DejaVuSans-42" x="416.064453"/>
      <use xlink:href="#DejaVuSans-42" x="484.667969"/>
      <use xlink:href="#DejaVuSans-49" x="553.271484"/>
     </g>
    </g>
   </g>
   <g id="line2d_17">
    <path d="M 141.12 45.027377 
L 366.944256 45.136282 
L 367.428096 46.425538 
L 375.653376 69.006772 
L 383.072256 89.863624 
L 384.685056 94.440546 
L 386.491392 99.673219 
L 389.97504 110.807642 
L 391.555584 115.853719 
L 392.781312 119.550977 
L 396.684288 121.36362 
L 397.264896 121.619522 
L 398.135808 122.003376 
L 398.780928 122.269941 
L 400.361472 122.936354 
L 401.006592 123.202919 
L 402.103296 123.629423 
L 402.845184 123.922644 
L 403.941888 124.349149 
L 404.845056 124.677024 
L 405.522432 124.943589 
L 406.328832 125.25547 
L 407.683584 125.804594 
L 410.328576 126.790885 
L 410.94144 127.022796 
L 412.8768 127.395987 
L 431.359488 127.289361 
L 431.58528 126.801547 
L 449.874432 75.087922 
L 453.616128 63.292417 
L 457.325568 51.617666 
L 461.938176 49.3412 
L 467.292672 46.984578 
L 476.001792 43.484472 
L 476.872704 43.268927 
L 491.162112 43.108189 
L 497.968128 43.184799 
L 513.321984 43.746186 
L 541.0944 44.46146 
L 566.73792 44.774399 
L 602.348544 44.945888 
L 650.377728 44.953885 
L 947.52 44.953885 
L 947.52 44.953885 
" clip-path="url(#pa092710133)" style="fill: none; stroke: #ff0000; stroke-width: 2; stroke-linecap: square"/>
   </g>
   <g id="patch_4">
    <path d="M 100.8 131.611034 
L 100.8 38.88 
" style="fill: none; stroke: #bcbcbc; stroke-width: 0.8; stroke-linejoin: miter; stroke-linecap: square"/>
   </g>
   <g id="patch_5">
    <path d="M 987.84 131.611034 
L 987.84 38.88 
" style="fill: none; stroke: #bcbcbc; stroke-width: 0.8; stroke-linejoin: miter; stroke-linecap: square"/>
   </g>
   <g id="patch_6">
    <path d="M 100.8 131.611034 
L 987.84 131.611034 
" style="fill: none; stroke: #bcbcbc; stroke-width: 0.8; stroke-linejoin: miter; stroke-linecap: square"/>
   </g>
   <g id="patch_7">
    <path d="M 100.8 38.88 
L 987.84 38.88 
" style="fill: none; stroke: #bcbcbc; stroke-width: 0.8; stroke-linejoin: miter; stroke-linecap: square"/>
   </g>
  </g>
  <g id="axes_2">
   <g id="patch_8">
    <path d="M 100.8 242.888276 
L 987.84 242.888276 
L 987.84 150.157241 
L 100.8 150.157241 
z
" style="fill: #eeeeee"/>
   </g>
   <g id="matplotlib.axis_3">
    <g id="xtick_7">
     <g id="line2d_18">
      <path d="M 141.12 242.888276 
L 141.12 150.157241 
" clip-path="url(#p4c975f9a3a)" style="fill: none; stroke-dasharray: 1.85,0.8; stroke-dashoffset: 0; stroke: #b2b2b2; stroke-width: 0.5"/>
     </g>
     <g id="line2d_19">
      <g>
       <use xlink:href="#m3eec9d60cc" x="141.12" y="242.888276" style="stroke: #000000; stroke-width: 0.8"/>
      </g>
     </g>
    </g>
    <g id="xtick_8">
     <g id="line2d_20">
      <path d="M 302.4 242.888276 
L 302.4 150.157241 
" clip-path="url(#p4c975f9a3a)" style="fill: none; stroke-dasharray: 1.85,0.8; stroke-dashoffset: 0; stroke: #b2b2b2; stroke-width: 0.5"/>
     </g>
     <g id="line2d_21">
      <g>
       <use xlink:href="#m3eec9d60cc" x="302.4" y="242.888276" style="stroke: #000000; stroke-width: 0.8"/>
      </g>
     </g>
    </g>
    <g id="xtick_9">
     <g id="line2d_22">
      <path d="M 463.68 242.888276 
L 463.68 150.157241 
" clip-path="url(#p4c975f9a3a)" style="fill: none; stroke-dasharray: 1.85,0.8; stroke-dashoffset: 0; stroke: #b2b2b2; stroke-width: 0.5"/>
     </g>
     <g id="line2d_23">
      <g>
       <use xlink:href="#m3eec9d60cc" x="463.68" y="242.888276" style="stroke: #000000; stroke-width: 0.8"/>
      </g>
     </g>
    </g>
    <g id="xtick_10">
     <g id="line2d_24">
      <path d="M 624.96 242.888276 
L 624.96 150.157241 
" clip-path="url(#p4c975f9a3a)" style="fill: none; stroke-dasharray: 1.85,0.8; stroke-dashoffset: 0; stroke: #b2b2b2; stroke-width: 0.5"/>
     </g>
     <g id="line2d_25">
      <g>
       <use xlink:href="#m3eec9d60cc" x="624.96" y="242.888276" style="stroke: #000000; stroke-width: 0.8"/>
      </g>
     </g>
    </g>
    <g id="xtick_11">
     <g id="line2d_26">
      <path d="M 786.24 242.888276 
L 786.24 150.157241 
" clip-path="url(#p4c975f9a3a)" style="fill: none; stroke-dasharray: 1.85,0.8; stroke-dashoffset: 0; stroke: #b2b2b2; stroke-width: 0.5"/>
     </g>
     <g id="line2d_27">
      <g>
       <use xlink:href="#m3eec9d60cc" x="786.24" y="242.888276" style="stroke: #000000; stroke-width: 0.8"/>
      </g>
     </g>
    </g>
    <g id="xtick_12">
     <g id="line2d_28">
      <path d="M 947.52 242.888276 
L 947.52 150.157241 
" clip-path="url(#p4c975f9a3a)" style="fill: none; stroke-dasharray: 1.85,0.8; stroke-dashoffset: 0; stroke: #b2b2b2; stroke-width: 0.5"/>
     </g>
     <g id="line2d_29">
      <g>
       <use xlink:href="#m3eec9d60cc" x="947.52" y="242.888276" style="stroke: #000000; stroke-width: 0.8"/>
      </g>
     </g>
    </g>
   </g>
   <g id="matplotlib.axis_4">
    <g id="ytick_3">
     <g id="line2d_30">
      <path d="M 100.8 218.985018 
L 987.84 218.985018 
" clip-path="url(#p4c975f9a3a)" style="fill: none; stroke-dasharray: 1.85,0.8; stroke-dashoffset: 0; stroke: #b2b2b2; stroke-width: 0.5"/>
     </g>
     <g id="line2d_31">
      <g>
       <use xlink:href="#m03e5b0b41d" x="100.8" y="218.985018" style="stroke: #000000; stroke-width: 0.8"/>
      </g>
     </g>
     <g id="text_4">
      <!-- 0 V -->
      <g transform="translate(74.36625 224.303925) scale(0.14 -0.14)">
       <use xlink:href="#DejaVuSans-30"/>
       <use xlink:href="#DejaVuSans-20" x="63.623047"/>
       <use xlink:href="#DejaVuSans-56" x="95.410156"/>
      </g>
     </g>
    </g>
    <g id="ytick_4">
     <g id="line2d_32">
      <path d="M 100.8 184.629337 
L 987.84 184.629337 
" clip-path="url(#p4c975f9a3a)" style="fill: none; stroke-dasharray: 1.85,0.8; stroke-dashoffset: 0; stroke: #b2b2b2; stroke-width: 0.5"/>
     </g>
     <g id="line2d_33">
      <g>
       <use xlink:href="#m03e5b0b41d" x="100.8" y="184.629337" style="stroke: #000000; stroke-width: 0.8"/>
      </g>
     </g>
     <g id="text_5">
      <!-- 1 V -->
      <g transform="translate(74.36625 189.948243) scale(0.14 -0.14)">
       <defs>
        <path id="DejaVuSans-31" d="M 794 531 
L 1825 531 
L 1825 4091 
L 703 3866 
L 703 4441 
L 1819 4666 
L 2450 4666 
L 2450 531 
L 3481 531 
L 3481 0 
L 794 0 
L 794 531 
z
" transform="scale(0.015625)"/>
       </defs>
       <use xlink:href="#DejaVuSans-31"/>
       <use xlink:href="#DejaVuSans-20" x="63.623047"/>
       <use xlink:href="#DejaVuSans-56" x="95.410156"/>
      </g>
     </g>
    </g>
    <g id="ytick_5">
     <g id="line2d_34">
      <path d="M 100.8 150.273656 
L 987.84 150.273656 
" clip-path="url(#p4c975f9a3a)" style="fill: none; stroke-dasharray: 1.85,0.8; stroke-dashoffset: 0; stroke: #b2b2b2; stroke-width: 0.5"/>
     </g>
     <g id="line2d_35">
      <g>
       <use xlink:href="#m03e5b0b41d" x="100.8" y="150.273656" style="stroke: #000000; stroke-width: 0.8"/>
      </g>
     </g>
     <g id="text_6">
      <!-- 2 V -->
      <g transform="translate(74.36625 155.592562) scale(0.14 -0.14)">
       <use xlink:href="#DejaVuSans-32"/>
       <use xlink:href="#DejaVuSans-20" x="63.623047"/>
       <use xlink:href="#DejaVuSans-56" x="95.410156"/>
      </g>
     </g>
    </g>
    <g id="text_7">
     <g id="patch_9">
      <path d="M 34.8768 224.531509 
L 34.8768 168.514009 
L 11.247425 168.514009 
L 11.247425 224.531509 
z
" style="fill: #ffff00; opacity: 0.2; stroke: #eeeeee; stroke-width: 0.5; stroke-linejoin: miter"/>
     </g>
     <!-- DFF IN -->
     <g transform="translate(26.925238 219.491509) rotate(-90) scale(0.14 -0.14)">
      <defs>
       <path id="DejaVuSans-44" d="M 1259 4147 
L 1259 519 
L 2022 519 
Q 2988 519 3436 956 
Q 3884 1394 3884 2338 
Q 3884 3275 3436 3711 
Q 2988 4147 2022 4147 
L 1259 4147 
z
M 628 4666 
L 1925 4666 
Q 3281 4666 3915 4102 
Q 4550 3538 4550 2338 
Q 4550 1131 3912 565 
Q 3275 0 1925 0 
L 628 0 
L 628 4666 
z
" transform="scale(0.015625)"/>
       <path id="DejaVuSans-46" d="M 628 4666 
L 3309 4666 
L 3309 4134 
L 1259 4134 
L 1259 2759 
L 3109 2759 
L 3109 2228 
L 1259 2228 
L 1259 0 
L 628 0 
L 628 4666 
z
" transform="scale(0.015625)"/>
       <path id="DejaVuSans-4e" d="M 628 4666 
L 1478 4666 
L 3547 763 
L 3547 4666 
L 4159 4666 
L 4159 0 
L 3309 0 
L 1241 3903 
L 1241 0 
L 628 0 
L 628 4666 
z
" transform="scale(0.015625)"/>
      </defs>
      <use xlink:href="#DejaVuSans-44"/>
      <use xlink:href="#DejaVuSans-46" x="77.001953"/>
      <use xlink:href="#DejaVuSans-46" x="134.521484"/>
      <use xlink:href="#DejaVuSans-20" x="192.041016"/>
      <use xlink:href="#DejaVuSans-49" x="223.828125"/>
      <use xlink:href="#DejaVuSans-4e" x="253.320312"/>
     </g>
    </g>
   </g>
   <g id="line2d_36">
    <path d="M 141.12 218.934845 
L 221.953536 218.887733 
L 224.437248 199.74515 
L 225.404928 193.921862 
L 228.243456 181.118186 
L 229.598208 179.833284 
L 231.178752 178.950343 
L 236.533248 178.489977 
L 243.5328 178.380039 
L 244.952064 178.338812 
L 248.145408 178.228874 
L 249.790464 178.163598 
L 251.887104 178.05366 
L 254.241792 177.703232 
L 254.757888 177.160412 
L 255.499776 176.816855 
L 256.338432 176.830597 
L 259.789824 177.452435 
L 262.467072 177.627649 
L 263.886336 177.675747 
L 264.144384 182.973393 
L 264.434688 186.577991 
L 265.176576 191.379885 
L 267.144192 208.907123 
L 268.402176 215.487954 
L 269.047296 216.78543 
L 270.46656 218.567803 
L 273.724416 218.986874 
L 282.465792 218.938477 
L 296.980992 218.929483 
L 305.657856 218.933966 
L 347.751936 218.889448 
L 350.235648 199.785689 
L 351.622656 191.051445 
L 352.654848 185.700891 
L 354.97728 178.623964 
L 358.20288 177.699796 
L 359.751168 177.754765 
L 366.976512 177.850961 
L 367.363584 178.623964 
L 368.84736 181.674748 
L 373.330944 188.161101 
L 375.685632 191.553038 
L 376.653312 193.31892 
L 377.137152 194.95425 
L 379.040256 202.335568 
L 379.524096 204.646331 
L 381.717504 213.676379 
L 381.943296 214.447664 
L 382.781952 217.643498 
L 384.265728 222.65661 
L 384.556032 223.174007 
L 384.781824 223.635747 
L 385.330176 225.143961 
L 385.78176 225.898412 
L 386.039808 226.130313 
L 386.297856 226.603734 
L 386.74944 227.854281 
L 387.23328 228.861933 
L 387.265536 228.844412 
L 387.297792 228.925491 
L 387.39456 229.077687 
L 387.781632 229.92215 
L 388.233216 230.832919 
L 388.620288 231.359248 
L 389.00736 232.232913 
L 390.491136 235.053858 
L 390.878208 235.689438 
L 391.039488 235.885609 
L 391.329792 236.467938 
L 392.749056 238.671511 
L 393.007104 238.61345 
L 393.5232 237.931833 
L 393.716736 237.726386 
L 394.00704 237.204867 
L 394.394112 236.371055 
L 394.49088 236.34357 
L 394.716672 236.038835 
L 395.61984 235.007478 
L 396.10368 234.194279 
L 396.361728 234.034868 
L 396.523008 233.922525 
L 398.135808 232.252496 
L 398.458368 231.823393 
L 398.813184 231.60867 
L 399.038976 231.514535 
L 399.522816 231.211175 
L 400.103424 230.7326 
L 400.684032 230.135155 
L 401.200128 229.295502 
L 401.619456 229.048828 
L 401.716224 229.101392 
L 401.74848 229.058791 
L 402.038784 228.898694 
L 402.361344 228.733787 
L 403.651584 227.577718 
L 404.457984 226.693059 
L 404.683776 226.623317 
L 405.393408 226.167417 
L 406.877184 224.934392 
L 407.135232 224.636872 
L 407.457792 224.392946 
L 412.0704 220.871386 
L 413.03808 219.816941 
L 414.00576 218.407122 
L 414.457344 217.779306 
L 420.198912 210.345939 
L 421.198848 209.170631 
L 421.650432 207.957188 
L 423.714816 202.105729 
L 424.392192 200.731501 
L 425.972736 198.297745 
L 426.521088 197.686557 
L 428.1984 195.515622 
L 428.908032 194.59111 
L 429.617664 193.722942 
L 430.972416 192.445255 
L 431.520768 191.651982 
L 431.875584 190.494195 
L 433.456128 184.967741 
L 434.294784 182.966522 
L 435.036672 181.636957 
L 435.746304 180.778065 
L 438.326784 178.153291 
L 439.423488 176.600414 
L 440.326656 175.270849 
L 446.229504 166.668187 
L 451.584 159.645886 
L 454.132224 156.306513 
L 455.680512 154.372288 
L 455.745024 154.544067 
L 456.58368 157.560496 
L 456.970752 157.893746 
L 458.002944 158.240738 
L 458.325504 157.95215 
L 459.067392 156.835591 
L 459.648 156.04541 
L 460.389888 155.40983 
L 461.09952 155.086887 
L 461.74464 154.990691 
L 462.680064 154.997562 
L 464.260608 155.275843 
L 466.066944 155.774 
L 468.099072 156.313384 
L 469.066752 156.52639 
L 470.647296 156.918044 
L 472.356864 157.395588 
L 477.421056 159.127115 
L 481.130496 160.824285 
L 481.840128 161.150664 
L 489.517056 164.30108 
L 492.742656 165.445125 
L 493.936128 165.833344 
L 496.032768 166.44831 
L 496.41984 165.853957 
L 496.774656 165.616903 
L 497.38752 165.654694 
L 498.097152 166.073833 
L 501.387264 168.04585 
L 501.774336 168.197015 
L 507.2256 169.828909 
L 507.70944 169.938848 
L 508.451328 170.138111 
L 509.451264 170.354551 
L 510.61248 170.615655 
L 511.676928 170.835531 
L 512.805888 171.082892 
L 514.063872 171.323382 
L 515.031552 171.522645 
L 516.57984 171.79749 
L 517.321728 171.931477 
L 517.741056 171.996753 
L 518.611968 172.165096 
L 520.45056 172.470861 
L 521.224704 172.604849 
L 521.998848 172.711351 
L 523.869696 172.999939 
L 524.611584 173.103006 
L 525.28896 173.206073 
L 526.09536 173.316011 
L 527.54688 173.515274 
L 528.417792 173.621777 
L 529.708032 173.783248 
L 530.546688 173.893187 
L 531.030528 173.941285 
L 531.836928 174.047787 
L 532.86912 174.157725 
L 533.869056 174.264228 
L 534.96576 174.384473 
L 536.41728 174.645576 
L 536.836608 175.243365 
L 537.255936 175.576615 
L 537.836544 175.765571 
L 538.255872 175.799927 
L 542.094336 175.095635 
L 544.48128 175.202138 
L 545.223168 175.250236 
L 546.706944 175.360174 
L 547.448832 175.404837 
L 549.029376 175.514775 
L 551.932416 175.714038 
L 552.577536 175.751829 
L 554.932224 175.892687 
L 557.093376 176.002625 
L 559.028736 176.098821 
L 560.964096 176.20876 
L 562.8672 176.30152 
L 565.383168 176.411458 
L 567.189504 176.493912 
L 569.866752 176.600414 
L 570.479616 176.617592 
L 571.25376 176.641641 
L 572.995584 176.717224 
L 573.801984 176.734401 
L 574.221312 176.755015 
L 574.769664 176.75845 
L 576.769536 176.662255 
L 577.285632 176.136613 
L 578.414592 175.885816 
L 579.446784 176.105692 
L 583.478784 176.851211 
L 585.478656 176.961149 
L 586.2528 177.012682 
L 589.607424 177.122621 
L 590.76864 177.136363 
L 596.768256 177.246301 
L 597.993984 177.266915 
L 616.960512 177.366546 
L 617.121792 177.552067 
L 617.54112 177.981513 
L 618.02496 178.256358 
L 619.250688 178.407523 
L 622.508544 177.950593 
L 624.47616 177.641391 
L 625.992192 177.531453 
L 627.798528 177.449 
L 657.345024 177.342497 
L 657.828864 176.803113 
L 658.538496 176.473298 
L 659.6352 176.462992 
L 663.602688 177.194768 
L 665.28 177.263479 
L 696.632832 177.373417 
L 697.794048 177.6036 
L 698.3424 178.129242 
L 699.277824 178.407523 
L 701.632512 178.301021 
L 703.954944 177.919672 
L 709.30944 177.459306 
L 737.952768 177.387159 
L 738.50112 176.765322 
L 739.049472 176.487041 
L 740.984832 176.596979 
L 744.242688 177.17759 
L 746.339328 177.290963 
L 778.272768 177.387159 
L 779.208192 178.232309 
L 780.11136 178.414394 
L 782.240256 178.304456 
L 783.949824 178.012433 
L 785.304576 177.837219 
L 789.852672 177.462742 
L 818.592768 177.387159 
L 819.14112 176.765322 
L 819.689472 176.487041 
L 821.624832 176.596979 
L 824.882688 177.17759 
L 826.979328 177.290963 
L 858.912768 177.387159 
L 859.848192 178.232309 
L 860.75136 178.414394 
L 862.880256 178.304456 
L 864.589824 178.012433 
L 865.944576 177.837219 
L 870.492672 177.462742 
L 899.232768 177.387159 
L 899.78112 176.765322 
L 900.329472 176.487041 
L 902.264832 176.596979 
L 905.522688 177.17759 
L 907.619328 177.290963 
L 939.552768 177.387159 
L 940.617216 178.263229 
L 941.55264 178.452186 
L 943.455744 178.342247 
L 946.39104 177.830348 
L 947.52 177.648263 
L 947.52 177.648263 
" clip-path="url(#p4c975f9a3a)" style="fill: none; stroke: #008000; stroke-width: 2; stroke-linecap: square"/>
   </g>
   <g id="patch_10">
    <path d="M 100.8 242.888276 
L 100.8 150.157241 
" style="fill: none; stroke: #bcbcbc; stroke-width: 0.8; stroke-linejoin: miter; stroke-linecap: square"/>
   </g>
   <g id="patch_11">
    <path d="M 987.84 242.888276 
L 987.84 150.157241 
" style="fill: none; stroke: #bcbcbc; stroke-width: 0.8; stroke-linejoin: miter; stroke-linecap: square"/>
   </g>
   <g id="patch_12">
    <path d="M 100.8 242.888276 
L 987.84 242.888276 
" style="fill: none; stroke: #bcbcbc; stroke-width: 0.8; stroke-linejoin: miter; stroke-linecap: square"/>
   </g>
   <g id="patch_13">
    <path d="M 100.8 150.157241 
L 987.84 150.157241 
" style="fill: none; stroke: #bcbcbc; stroke-width: 0.8; stroke-linejoin: miter; stroke-linecap: square"/>
   </g>
  </g>
  <g id="axes_3">
   <g id="patch_14">
    <path d="M 100.8 354.165517 
L 987.84 354.165517 
L 987.84 261.434483 
L 100.8 261.434483 
z
" style="fill: #eeeeee"/>
   </g>
   <g id="matplotlib.axis_5">
    <g id="xtick_13">
     <g id="line2d_37">
      <path d="M 141.12 354.165517 
L 141.12 261.434483 
" clip-path="url(#p216f11fae4)" style="fill: none; stroke-dasharray: 1.85,0.8; stroke-dashoffset: 0; stroke: #b2b2b2; stroke-width: 0.5"/>
     </g>
     <g id="line2d_38">
      <g>
       <use xlink:href="#m3eec9d60cc" x="141.12" y="354.165517" style="stroke: #000000; stroke-width: 0.8"/>
      </g>
     </g>
    </g>
    <g id="xtick_14">
     <g id="line2d_39">
      <path d="M 302.4 354.165517 
L 302.4 261.434483 
" clip-path="url(#p216f11fae4)" style="fill: none; stroke-dasharray: 1.85,0.8; stroke-dashoffset: 0; stroke: #b2b2b2; stroke-width: 0.5"/>
     </g>
     <g id="line2d_40">
      <g>
       <use xlink:href="#m3eec9d60cc" x="302.4" y="354.165517" style="stroke: #000000; stroke-width: 0.8"/>
      </g>
     </g>
    </g>
    <g id="xtick_15">
     <g id="line2d_41">
      <path d="M 463.68 354.165517 
L 463.68 261.434483 
" clip-path="url(#p216f11fae4)" style="fill: none; stroke-dasharray: 1.85,0.8; stroke-dashoffset: 0; stroke: #b2b2b2; stroke-width: 0.5"/>
     </g>
     <g id="line2d_42">
      <g>
       <use xlink:href="#m3eec9d60cc" x="463.68" y="354.165517" style="stroke: #000000; stroke-width: 0.8"/>
      </g>
     </g>
    </g>
    <g id="xtick_16">
     <g id="line2d_43">
      <path d="M 624.96 354.165517 
L 624.96 261.434483 
" clip-path="url(#p216f11fae4)" style="fill: none; stroke-dasharray: 1.85,0.8; stroke-dashoffset: 0; stroke: #b2b2b2; stroke-width: 0.5"/>
     </g>
     <g id="line2d_44">
      <g>
       <use xlink:href="#m3eec9d60cc" x="624.96" y="354.165517" style="stroke: #000000; stroke-width: 0.8"/>
      </g>
     </g>
    </g>
    <g id="xtick_17">
     <g id="line2d_45">
      <path d="M 786.24 354.165517 
L 786.24 261.434483 
" clip-path="url(#p216f11fae4)" style="fill: none; stroke-dasharray: 1.85,0.8; stroke-dashoffset: 0; stroke: #b2b2b2; stroke-width: 0.5"/>
     </g>
     <g id="line2d_46">
      <g>
       <use xlink:href="#m3eec9d60cc" x="786.24" y="354.165517" style="stroke: #000000; stroke-width: 0.8"/>
      </g>
     </g>
    </g>
    <g id="xtick_18">
     <g id="line2d_47">
      <path d="M 947.52 354.165517 
L 947.52 261.434483 
" clip-path="url(#p216f11fae4)" style="fill: none; stroke-dasharray: 1.85,0.8; stroke-dashoffset: 0; stroke: #b2b2b2; stroke-width: 0.5"/>
     </g>
     <g id="line2d_48">
      <g>
       <use xlink:href="#m3eec9d60cc" x="947.52" y="354.165517" style="stroke: #000000; stroke-width: 0.8"/>
      </g>
     </g>
    </g>
   </g>
   <g id="matplotlib.axis_6">
    <g id="ytick_6">
     <g id="line2d_49">
      <path d="M 100.8 344.599967 
L 987.84 344.599967 
" clip-path="url(#p216f11fae4)" style="fill: none; stroke-dasharray: 1.85,0.8; stroke-dashoffset: 0; stroke: #b2b2b2; stroke-width: 0.5"/>
     </g>
     <g id="line2d_50">
      <g>
       <use xlink:href="#m03e5b0b41d" x="100.8" y="344.599967" style="stroke: #000000; stroke-width: 0.8"/>
      </g>
     </g>
     <g id="text_8">
      <!-- 0 V -->
      <g transform="translate(74.36625 349.918873) scale(0.14 -0.14)">
       <use xlink:href="#DejaVuSans-30"/>
       <use xlink:href="#DejaVuSans-20" x="63.623047"/>
       <use xlink:href="#DejaVuSans-56" x="95.410156"/>
      </g>
     </g>
    </g>
    <g id="ytick_7">
     <g id="line2d_51">
      <path d="M 100.8 302.366931 
L 987.84 302.366931 
" clip-path="url(#p216f11fae4)" style="fill: none; stroke-dasharray: 1.85,0.8; stroke-dashoffset: 0; stroke: #b2b2b2; stroke-width: 0.5"/>
     </g>
     <g id="line2d_52">
      <g>
       <use xlink:href="#m03e5b0b41d" x="100.8" y="302.366931" style="stroke: #000000; stroke-width: 0.8"/>
      </g>
     </g>
     <g id="text_9">
      <!-- 1 V -->
      <g transform="translate(74.36625 307.685837) scale(0.14 -0.14)">
       <use xlink:href="#DejaVuSans-31"/>
       <use xlink:href="#DejaVuSans-20" x="63.623047"/>
       <use xlink:href="#DejaVuSans-56" x="95.410156"/>
      </g>
     </g>
    </g>
    <g id="text_10">
     <g id="patch_15">
      <path d="M 34.8768 342.395313 
L 34.8768 273.204688 
L 11.247425 273.204688 
L 11.247425 342.395313 
z
" style="fill: #ffff00; opacity: 0.2; stroke: #eeeeee; stroke-width: 0.5; stroke-linejoin: miter"/>
     </g>
     <!-- CLK BUF -->
     <g transform="translate(26.925238 337.355313) rotate(-90) scale(0.14 -0.14)">
      <defs>
       <path id="DejaVuSans-43" d="M 4122 4306 
L 4122 3641 
Q 3803 3938 3442 4084 
Q 3081 4231 2675 4231 
Q 1875 4231 1450 3742 
Q 1025 3253 1025 2328 
Q 1025 1406 1450 917 
Q 1875 428 2675 428 
Q 3081 428 3442 575 
Q 3803 722 4122 1019 
L 4122 359 
Q 3791 134 3420 21 
Q 3050 -91 2638 -91 
Q 1578 -91 968 557 
Q 359 1206 359 2328 
Q 359 3453 968 4101 
Q 1578 4750 2638 4750 
Q 3056 4750 3426 4639 
Q 3797 4528 4122 4306 
z
" transform="scale(0.015625)"/>
       <path id="DejaVuSans-4b" d="M 628 4666 
L 1259 4666 
L 1259 2694 
L 3353 4666 
L 4166 4666 
L 1850 2491 
L 4331 0 
L 3500 0 
L 1259 2247 
L 1259 0 
L 628 0 
L 628 4666 
z
" transform="scale(0.015625)"/>
      </defs>
      <use xlink:href="#DejaVuSans-43"/>
      <use xlink:href="#DejaVuSans-4c" x="69.824219"/>
      <use xlink:href="#DejaVuSans-4b" x="125.537109"/>
      <use xlink:href="#DejaVuSans-20" x="191.113281"/>
      <use xlink:href="#DejaVuSans-42" x="222.900391"/>
      <use xlink:href="#DejaVuSans-55" x="291.503906"/>
      <use xlink:href="#DejaVuSans-46" x="364.697266"/>
     </g>
    </g>
   </g>
   <g id="line2d_53">
    <path d="M 141.12 344.59885 
L 173.376 344.59885 
L 173.601792 293.920324 
L 213.696 293.920324 
L 213.760512 334.345363 
L 213.825024 344.580673 
L 213.889536 344.519897 
L 213.954048 344.688614 
L 214.01856 344.604544 
L 215.405568 344.59484 
L 223.598592 344.598785 
L 254.016 344.598821 
L 254.17728 293.764062 
L 254.241792 294.034353 
L 254.403072 293.911877 
L 254.854656 293.920324 
L 294.336 293.920324 
L 294.400512 334.309888 
L 294.465024 344.915114 
L 294.529536 344.180838 
L 294.626304 344.666336 
L 294.65856 344.636284 
L 294.884352 344.576579 
L 295.206912 344.615335 
L 295.497216 344.598521 
L 321.172992 344.598849 
L 334.656 344.598852 
L 334.81728 293.844304 
L 334.881792 293.937217 
L 335.204352 293.924547 
L 336.075264 293.920324 
L 367.008768 294.03013 
L 368.653824 296.365617 
L 370.29888 299.152997 
L 374.976 307.148133 
L 375.008256 307.609318 
L 375.105024 345.850149 
L 375.169536 345.83465 
L 375.234048 346.218632 
L 375.29856 346.013929 
L 375.685632 345.994248 
L 378.749952 345.900195 
L 385.13664 345.817503 
L 385.684992 345.954634 
L 386.652672 346.356228 
L 387.072 346.599912 
L 388.426752 347.39402 
L 388.717056 347.567894 
L 392.813568 349.907815 
L 393.619968 349.495198 
L 393.781248 349.44114 
L 397.103616 348.255236 
L 405.974016 345.686496 
L 410.61888 344.770597 
L 415.296 344.085146 
L 415.328256 344.474661 
L 415.489536 318.913412 
L 415.683072 318.718296 
L 420.1344 315.878124 
L 424.263168 313.466195 
L 427.71456 311.648908 
L 431.520768 309.698164 
L 432.940032 307.067468 
L 435.488256 301.61096 
L 438.552576 295.060616 
L 439.229952 293.696489 
L 441.487872 289.219787 
L 447.003648 279.337257 
L 449.293824 275.654536 
L 450.035712 274.505797 
L 452.745216 270.109338 
L 453.35808 269.125309 
L 454.874112 266.751812 
L 455.616 265.64953 
L 455.77728 343.210162 
L 455.809536 343.34611 
L 455.874048 343.25797 
L 456.196608 343.266712 
L 457.261056 343.358062 
L 457.938432 344.026485 
L 458.68032 344.445238 
L 459.615744 344.726839 
L 461.035008 344.906093 
L 463.905792 344.982729 
L 474.679296 344.927391 
L 476.969472 344.976086 
L 478.775808 345.075891 
L 483.743232 345.056422 
L 495.936 344.933042 
L 496.065024 279.687791 
L 496.194048 280.169247 
L 502.903296 282.69056 
L 503.1936 282.800366 
L 504.935424 283.366288 
L 505.225728 283.476094 
L 506.644992 283.915318 
L 507.06432 284.025124 
L 508.483584 284.464347 
L 508.902912 284.574153 
L 509.870592 284.844445 
L 510.257664 284.95425 
L 511.128576 285.182309 
L 511.515648 285.292115 
L 512.38656 285.520173 
L 512.773632 285.629979 
L 513.547776 285.815804 
L 514.031616 285.92561 
L 514.80576 286.111436 
L 515.192832 286.221242 
L 515.837952 286.364834 
L 516.25728 286.47464 
L 516.9024 286.618232 
L 517.418496 286.728038 
L 518.063616 286.87163 
L 518.579712 286.981436 
L 519.224832 287.125028 
L 519.740928 287.234834 
L 520.386048 287.378427 
L 520.998912 287.488233 
L 521.644032 287.631825 
L 522.256896 287.741631 
L 522.805248 287.84299 
L 523.321344 287.952796 
L 523.869696 288.054155 
L 524.48256 288.159738 
L 524.837376 288.223087 
L 525.45024 288.332893 
L 525.998592 288.434253 
L 526.611456 288.539835 
L 526.966272 288.603185 
L 527.675904 288.708767 
L 528.03072 288.772117 
L 528.740352 288.877699 
L 529.095168 288.941049 
L 529.8048 289.046632 
L 530.159616 289.109981 
L 530.869248 289.215564 
L 531.224064 289.278913 
L 532.030464 289.384496 
L 532.38528 289.447845 
L 533.288448 289.553428 
L 533.643264 289.616778 
L 534.546432 289.72236 
L 534.901248 289.78571 
L 535.804416 289.891292 
L 536.062464 289.912409 
L 536.256 289.954642 
L 536.288256 296.458529 
L 536.41728 344.717599 
L 536.707584 344.706474 
L 576.576 344.629362 
L 576.769536 292.818042 
L 579.898368 292.919401 
L 580.253184 292.948964 
L 584.188416 293.05877 
L 584.446464 293.075663 
L 589.123584 293.185469 
L 589.381632 293.202362 
L 595.026432 293.312168 
L 595.28448 293.329061 
L 602.284032 293.438867 
L 602.54208 293.455761 
L 616.896 293.497994 
L 616.928256 297.484792 
L 616.992768 344.716078 
L 617.05728 344.46004 
L 617.154048 344.75076 
L 617.21856 344.618286 
L 618.089472 344.614133 
L 624.701952 344.604902 
L 657.216 344.610963 
L 657.37728 293.413528 
L 657.441792 293.514887 
L 658.409472 293.497994 
L 697.536 293.497994 
L 697.665024 344.922699 
L 697.826304 344.676877 
L 698.084352 344.582726 
L 698.439168 344.628701 
L 698.761728 344.610724 
L 737.404416 344.610945 
L 737.856 344.610945 
L 738.01728 293.278382 
L 738.081792 293.755615 
L 738.17856 293.320615 
L 738.243072 293.4811 
L 738.726912 293.497994 
L 778.176 293.497994 
L 778.305024 344.922539 
L 778.466304 344.67692 
L 778.724352 344.582718 
L 779.079168 344.62869 
L 779.401728 344.610724 
L 817.883136 344.610945 
L 818.496 344.610945 
L 818.65728 293.278382 
L 818.721792 293.755615 
L 818.81856 293.320615 
L 818.883072 293.4811 
L 819.366912 293.497994 
L 858.816 293.497994 
L 858.945024 344.922708 
L 859.106304 344.676877 
L 859.364352 344.582713 
L 859.719168 344.628688 
L 860.041728 344.610725 
L 898.523136 344.610945 
L 899.136 344.610945 
L 899.29728 293.278382 
L 899.361792 293.755615 
L 899.45856 293.320615 
L 899.523072 293.4811 
L 900.006912 293.497994 
L 939.456 293.497994 
L 939.488256 301.11261 
L 939.61728 344.560718 
L 939.649536 344.683521 
L 939.714048 344.566027 
L 939.810816 344.583476 
L 940.004352 344.636218 
L 940.230144 344.609604 
L 945.74592 344.610948 
L 947.52 344.610935 
L 947.52 344.610935 
" clip-path="url(#p216f11fae4)" style="fill: none; stroke: #0000ff; stroke-width: 2; stroke-linecap: square"/>
   </g>
   <g id="patch_16">
    <path d="M 100.8 354.165517 
L 100.8 261.434483 
" style="fill: none; stroke: #bcbcbc; stroke-width: 0.8; stroke-linejoin: miter; stroke-linecap: square"/>
   </g>
   <g id="patch_17">
    <path d="M 987.84 354.165517 
L 987.84 261.434483 
" style="fill: none; stroke: #bcbcbc; stroke-width: 0.8; stroke-linejoin: miter; stroke-linecap: square"/>
   </g>
   <g id="patch_18">
    <path d="M 100.8 354.165517 
L 987.84 354.165517 
" style="fill: none; stroke: #bcbcbc; stroke-width: 0.8; stroke-linejoin: miter; stroke-linecap: square"/>
   </g>
   <g id="patch_19">
    <path d="M 100.8 261.434483 
L 987.84 261.434483 
" style="fill: none; stroke: #bcbcbc; stroke-width: 0.8; stroke-linejoin: miter; stroke-linecap: square"/>
   </g>
  </g>
  <g id="axes_4">
   <g id="patch_20">
    <path d="M 100.8 465.442759 
L 987.84 465.442759 
L 987.84 372.711724 
L 100.8 372.711724 
z
" style="fill: #eeeeee"/>
   </g>
   <g id="matplotlib.axis_7">
    <g id="xtick_19">
     <g id="line2d_54">
      <path d="M 141.12 465.442759 
L 141.12 372.711724 
" clip-path="url(#p2781de310b)" style="fill: none; stroke-dasharray: 1.85,0.8; stroke-dashoffset: 0; stroke: #b2b2b2; stroke-width: 0.5"/>
     </g>
     <g id="line2d_55">
      <g>
       <use xlink:href="#m3eec9d60cc" x="141.12" y="465.442759" style="stroke: #000000; stroke-width: 0.8"/>
      </g>
     </g>
    </g>
    <g id="xtick_20">
     <g id="line2d_56">
      <path d="M 302.4 465.442759 
L 302.4 372.711724 
" clip-path="url(#p2781de310b)" style="fill: none; stroke-dasharray: 1.85,0.8; stroke-dashoffset: 0; stroke: #b2b2b2; stroke-width: 0.5"/>
     </g>
     <g id="line2d_57">
      <g>
       <use xlink:href="#m3eec9d60cc" x="302.4" y="465.442759" style="stroke: #000000; stroke-width: 0.8"/>
      </g>
     </g>
    </g>
    <g id="xtick_21">
     <g id="line2d_58">
      <path d="M 463.68 465.442759 
L 463.68 372.711724 
" clip-path="url(#p2781de310b)" style="fill: none; stroke-dasharray: 1.85,0.8; stroke-dashoffset: 0; stroke: #b2b2b2; stroke-width: 0.5"/>
     </g>
     <g id="line2d_59">
      <g>
       <use xlink:href="#m3eec9d60cc" x="463.68" y="465.442759" style="stroke: #000000; stroke-width: 0.8"/>
      </g>
     </g>
    </g>
    <g id="xtick_22">
     <g id="line2d_60">
      <path d="M 624.96 465.442759 
L 624.96 372.711724 
" clip-path="url(#p2781de310b)" style="fill: none; stroke-dasharray: 1.85,0.8; stroke-dashoffset: 0; stroke: #b2b2b2; stroke-width: 0.5"/>
     </g>
     <g id="line2d_61">
      <g>
       <use xlink:href="#m3eec9d60cc" x="624.96" y="465.442759" style="stroke: #000000; stroke-width: 0.8"/>
      </g>
     </g>
    </g>
    <g id="xtick_23">
     <g id="line2d_62">
      <path d="M 786.24 465.442759 
L 786.24 372.711724 
" clip-path="url(#p2781de310b)" style="fill: none; stroke-dasharray: 1.85,0.8; stroke-dashoffset: 0; stroke: #b2b2b2; stroke-width: 0.5"/>
     </g>
     <g id="line2d_63">
      <g>
       <use xlink:href="#m3eec9d60cc" x="786.24" y="465.442759" style="stroke: #000000; stroke-width: 0.8"/>
      </g>
     </g>
    </g>
    <g id="xtick_24">
     <g id="line2d_64">
      <path d="M 947.52 465.442759 
L 947.52 372.711724 
" clip-path="url(#p2781de310b)" style="fill: none; stroke-dasharray: 1.85,0.8; stroke-dashoffset: 0; stroke: #b2b2b2; stroke-width: 0.5"/>
     </g>
     <g id="line2d_65">
      <g>
       <use xlink:href="#m3eec9d60cc" x="947.52" y="465.442759" style="stroke: #000000; stroke-width: 0.8"/>
      </g>
     </g>
    </g>
   </g>
   <g id="matplotlib.axis_8">
    <g id="ytick_8">
     <g id="line2d_66">
      <path d="M 100.8 438.226912 
L 987.84 438.226912 
" clip-path="url(#p2781de310b)" style="fill: none; stroke-dasharray: 1.85,0.8; stroke-dashoffset: 0; stroke: #b2b2b2; stroke-width: 0.5"/>
     </g>
     <g id="line2d_67">
      <g>
       <use xlink:href="#m03e5b0b41d" x="100.8" y="438.226912" style="stroke: #000000; stroke-width: 0.8"/>
      </g>
     </g>
     <g id="text_11">
      <!-- 0 V -->
      <g transform="translate(74.36625 443.545818) scale(0.14 -0.14)">
       <use xlink:href="#DejaVuSans-30"/>
       <use xlink:href="#DejaVuSans-20" x="63.623047"/>
       <use xlink:href="#DejaVuSans-56" x="95.410156"/>
      </g>
     </g>
    </g>
    <g id="ytick_9">
     <g id="line2d_68">
      <path d="M 100.8 397.778122 
L 987.84 397.778122 
" clip-path="url(#p2781de310b)" style="fill: none; stroke-dasharray: 1.85,0.8; stroke-dashoffset: 0; stroke: #b2b2b2; stroke-width: 0.5"/>
     </g>
     <g id="line2d_69">
      <g>
       <use xlink:href="#m03e5b0b41d" x="100.8" y="397.778122" style="stroke: #000000; stroke-width: 0.8"/>
      </g>
     </g>
     <g id="text_12">
      <!-- 1 V -->
      <g transform="translate(74.36625 403.097028) scale(0.14 -0.14)">
       <use xlink:href="#DejaVuSans-31"/>
       <use xlink:href="#DejaVuSans-20" x="63.623047"/>
       <use xlink:href="#DejaVuSans-56" x="95.410156"/>
      </g>
     </g>
    </g>
    <g id="text_13">
     <g id="patch_21">
      <path d="M 34.8768 454.693023 
L 34.8768 383.46146 
L 11.247425 383.46146 
L 11.247425 454.693023 
z
" style="fill: #ffff00; opacity: 0.2; stroke: #eeeeee; stroke-width: 0.5; stroke-linejoin: miter"/>
     </g>
     <!-- DFF OUT -->
     <g transform="translate(26.925238 449.653023) rotate(-90) scale(0.14 -0.14)">
      <defs>
       <path id="DejaVuSans-4f" d="M 2522 4238 
Q 1834 4238 1429 3725 
Q 1025 3213 1025 2328 
Q 1025 1447 1429 934 
Q 1834 422 2522 422 
Q 3209 422 3611 934 
Q 4013 1447 4013 2328 
Q 4013 3213 3611 3725 
Q 3209 4238 2522 4238 
z
M 2522 4750 
Q 3503 4750 4090 4092 
Q 4678 3434 4678 2328 
Q 4678 1225 4090 567 
Q 3503 -91 2522 -91 
Q 1538 -91 948 565 
Q 359 1222 359 2328 
Q 359 3434 948 4092 
Q 1538 4750 2522 4750 
z
" transform="scale(0.015625)"/>
       <path id="DejaVuSans-54" d="M -19 4666 
L 3928 4666 
L 3928 4134 
L 2272 4134 
L 2272 0 
L 1638 0 
L 1638 4134 
L -19 4134 
L -19 4666 
z
" transform="scale(0.015625)"/>
      </defs>
      <use xlink:href="#DejaVuSans-44"/>
      <use xlink:href="#DejaVuSans-46" x="77.001953"/>
      <use xlink:href="#DejaVuSans-46" x="134.521484"/>
      <use xlink:href="#DejaVuSans-20" x="192.041016"/>
      <use xlink:href="#DejaVuSans-4f" x="223.828125"/>
      <use xlink:href="#DejaVuSans-55" x="302.539062"/>
      <use xlink:href="#DejaVuSans-54" x="375.732422"/>
     </g>
    </g>
   </g>
   <g id="line2d_70">
    <path d="M 141.12 407.707087 
L 173.408256 407.756434 
L 173.440512 409.431014 
L 173.601792 438.229381 
L 174.117888 438.224683 
L 184.214016 438.225845 
L 254.048256 438.227528 
L 254.080512 438.389225 
L 254.112768 438.121757 
L 254.306304 434.17273 
L 254.596608 433.381147 
L 254.693376 432.816482 
L 255.14496 425.729854 
L 255.370752 409.073851 
L 255.596544 390.080718 
L 255.757824 389.749037 
L 255.983616 389.684319 
L 256.886784 389.688364 
L 295.755264 389.769262 
L 296.239104 392.386299 
L 296.59392 391.731028 
L 297.948672 390.020044 
L 299.593728 389.720723 
L 334.688256 389.704544 
L 334.720512 389.587242 
L 334.752768 390.18184 
L 334.785024 393.122467 
L 334.914048 438.210331 
L 334.97856 438.174733 
L 335.13984 438.218434 
L 335.494656 438.226324 
L 366.331392 438.225798 
L 366.976512 438.300824 
L 367.653888 438.912155 
L 368.460288 439.304913 
L 369.49248 439.540122 
L 371.040768 439.64626 
L 374.459904 439.596346 
L 375.427584 439.572684 
L 375.492096 438.254047 
L 375.685632 404.700528 
L 375.750144 404.821065 
L 376.717824 408.608286 
L 377.427456 411.897986 
L 377.491968 411.641136 
L 377.524224 411.71718 
L 377.71776 413.245335 
L 378.008064 414.697446 
L 378.04032 414.561943 
L 378.072576 414.374261 
L 378.137088 414.522708 
L 378.556416 417.252596 
L 378.653184 417.153901 
L 378.717696 417.305989 
L 378.878976 418.806234 
L 379.878912 423.262478 
L 379.911168 422.964775 
L 379.943424 423.123738 
L 380.104704 424.630456 
L 380.45952 426.159015 
L 380.491776 425.817628 
L 380.556288 426.009759 
L 380.588544 426.052635 
L 381.007872 428.810029 
L 383.394816 439.166214 
L 383.652864 440.16631 
L 383.68512 440.141798 
L 383.717376 439.949181 
L 383.749632 440.22763 
L 383.781888 440.264398 
L 383.943168 441.270683 
L 384.523776 443.130923 
L 384.556032 443.073486 
L 384.588288 442.898343 
L 384.6528 442.974791 
L 385.13664 444.734313 
L 385.684992 445.967192 
L 385.717248 445.863239 
L 385.910784 446.139504 
L 386.2656 446.849785 
L 386.297856 447.31535 
L 386.394624 447.175802 
L 387.297792 449.70466 
L 387.330048 449.537202 
L 387.362304 449.694144 
L 387.491328 450.251124 
L 387.523584 450.078407 
L 387.55584 450.386223 
L 388.168704 451.834694 
L 389.233152 454.185577 
L 389.523456 454.87078 
L 389.81376 455.379626 
L 389.846016 455.314503 
L 389.878272 455.41158 
L 389.97504 455.767125 
L 390.007296 455.657509 
L 392.039424 460.074921 
L 392.7168 461.188881 
L 392.845824 461.186454 
L 393.03936 460.991491 
L 393.942528 459.235609 
L 394.394112 458.395083 
L 394.426368 458.512789 
L 394.458624 458.447666 
L 394.587648 458.048841 
L 394.65216 458.06138 
L 394.81344 457.751138 
L 395.29728 456.969668 
L 395.910144 456.076963 
L 396.329472 455.609375 
L 396.361728 455.722227 
L 396.393984 455.611397 
L 396.523008 455.326638 
L 396.555264 455.394592 
L 396.58752 455.351716 
L 396.716544 455.169292 
L 396.7488 455.220257 
L 396.781056 455.136124 
L 397.200384 454.684311 
L 397.490688 454.164139 
L 397.522944 454.29398 
L 397.5552 454.078793 
L 397.942272 453.609991 
L 398.68416 452.7816 
L 398.716416 452.985057 
L 398.780928 452.692208 
L 398.877696 452.831352 
L 398.909952 452.760971 
L 399.038976 452.517065 
L 399.071232 452.583401 
L 399.103488 452.492795 
L 399.232512 452.347584 
L 399.458304 452.202778 
L 400.038912 451.33232 
L 400.393728 450.872417 
L 400.425984 450.986483 
L 400.45824 450.912866 
L 400.522752 450.746217 
L 400.555008 451.022482 
L 400.61952 450.62487 
L 401.458176 449.811041 
L 401.5872 449.72448 
L 401.619456 449.909331 
L 401.683968 449.83531 
L 402.296832 449.257297 
L 402.619392 448.920358 
L 402.845184 448.356502 
L 403.03872 448.08145 
L 403.070976 448.349221 
L 403.135488 447.978306 
L 403.329024 447.7975 
L 403.393536 447.639345 
L 403.425792 447.934621 
L 403.619328 447.468247 
L 403.651584 447.801545 
L 403.716096 447.382091 
L 403.748352 447.554403 
L 403.780608 447.304025 
L 403.812864 447.279351 
L 403.84512 447.606986 
L 403.877376 447.187937 
L 403.941888 447.511527 
L 404.070912 447.032613 
L 404.103168 447.035849 
L 404.135424 447.189555 
L 404.16768 446.974772 
L 404.199936 446.969513 
L 404.232192 447.103399 
L 404.296704 446.903582 
L 404.393472 446.850594 
L 404.425728 447.030591 
L 404.49024 446.873245 
L 404.683776 446.750281 
L 404.941824 446.585654 
L 405.586944 445.83897 
L 405.715968 445.444189 
L 405.78048 445.688096 
L 405.909504 445.145273 
L 406.199808 444.869008 
L 406.328832 444.723392 
L 406.361088 445.132734 
L 406.457856 445.059521 
L 406.58688 444.469374 
L 406.619136 444.899749 
L 406.683648 444.46007 
L 406.715904 444.657865 
L 406.74816 444.534092 
L 406.844928 444.634405 
L 406.877184 444.233153 
L 406.90944 444.239624 
L 406.973952 444.165199 
L 407.038464 444.532474 
L 407.167488 444.041425 
L 407.199744 444.058414 
L 407.264256 444.020796 
L 407.328768 444.265916 
L 407.457792 443.983988 
L 407.490048 443.997336 
L 407.522304 444.038189 
L 407.55456 443.932214 
L 407.812608 443.855765 
L 408.489984 443.250652 
L 409.00608 442.719963 
L 409.135104 442.082733 
L 409.16736 442.331251 
L 409.231872 441.99504 
L 409.296384 441.937765 
L 409.32864 442.194574 
L 409.360896 442.107245 
L 409.393152 441.764684 
L 409.425408 442.108661 
L 409.457664 442.28069 
L 409.586688 441.581856 
L 409.6512 441.780338 
L 409.683456 441.508765 
L 409.747968 441.889428 
L 409.876992 441.47499 
L 409.909248 441.665787 
L 410.006016 441.62639 
L 410.070528 441.408007 
L 410.13504 441.566283 
L 410.554368 441.078875 
L 410.844672 440.986126 
L 412.038144 439.794586 
L 412.23168 439.534864 
L 412.360704 438.817464 
L 412.39296 439.262846 
L 412.457472 438.736607 
L 412.521984 438.532219 
L 412.55424 438.856174 
L 412.618752 438.397606 
L 412.651008 438.418307 
L 412.683264 438.768157 
L 412.747776 438.307255 
L 412.812288 438.376225 
L 412.844544 438.475571 
L 412.8768 438.211918 
L 412.973568 438.261224 
L 413.070336 438.156454 
L 413.812224 436.83244 
L 413.908992 436.176199 
L 413.941248 436.52689 
L 414.070272 435.711968 
L 414.102528 436.299689 
L 414.134784 435.569265 
L 414.16704 435.594505 
L 414.360576 435.531283 
L 414.392832 435.751527 
L 414.457344 435.58686 
L 414.65088 435.279328 
L 415.489536 433.668738 
L 415.61856 432.817291 
L 416.005632 432.61626 
L 417.005568 430.730942 
L 417.102336 430.103986 
L 417.134592 430.370948 
L 417.166848 430.390363 
L 417.23136 430.441329 
L 417.295872 430.263759 
L 418.005504 428.988408 
L 418.166784 428.51718 
L 419.037696 427.209066 
L 419.198976 426.59384 
L 419.457024 426.135151 
L 419.48928 426.35681 
L 419.521536 426.05668 
L 419.65056 425.805493 
L 419.682816 426.069624 
L 419.747328 425.756955 
L 419.844096 425.9143 
L 419.876352 425.821673 
L 420.747264 424.20089 
L 420.908544 423.368049 
L 420.9408 423.610337 
L 420.973056 423.260455 
L 421.682688 421.733918 
L 421.779456 421.283318 
L 421.843968 421.33307 
L 422.263296 420.18392 
L 423.230976 418.434106 
L 424.359936 416.32187 
L 424.392192 415.817069 
L 424.48896 415.978864 
L 424.553472 416.058953 
L 424.585728 415.98574 
L 425.230848 414.791288 
L 426.037248 413.602093 
L 426.134016 413.489241 
L 426.327552 413.231987 
L 426.617856 412.718692 
L 426.682368 412.878464 
L 426.875904 413.132483 
L 426.972672 413.888875 
L 427.166208 424.20089 
L 427.392 437.635793 
L 427.843584 437.692745 
L 431.359488 437.819593 
L 431.649792 437.555502 
L 432.2304 437.095074 
L 433.004544 436.745758 
L 434.068992 436.524867 
L 435.77856 436.443808 
L 439.262208 436.541128 
L 452.035584 436.879967 
L 455.519232 436.938375 
L 457.293312 437.087186 
L 457.970688 437.71394 
L 458.777088 438.129948 
L 459.777024 438.391441 
L 461.42208 438.554438 
L 464.873472 438.605836 
L 495.968256 438.541082 
L 496.000512 438.872232 
L 496.25856 430.783526 
L 496.484352 429.291774 
L 496.645632 426.3289 
L 496.806912 417.385269 
L 497.000448 392.038439 
L 497.193984 377.007669 
L 497.323008 376.95104 
L 502.903296 378.933031 
L 503.1936 379.038198 
L 504.935424 379.580212 
L 505.225728 379.685379 
L 506.644992 380.106046 
L 507.06432 380.211213 
L 508.483584 380.63188 
L 508.902912 380.737047 
L 510.096384 381.072772 
L 510.999552 381.291196 
L 511.90272 381.521754 
L 512.289792 381.626921 
L 513.063936 381.804895 
L 513.451008 381.910062 
L 514.225152 382.088037 
L 514.708992 382.193204 
L 515.483136 382.371178 
L 515.966976 382.476345 
L 516.74112 382.65432 
L 517.22496 382.759487 
L 517.902336 382.897013 
L 518.386176 383.002179 
L 519.063552 383.139705 
L 519.547392 383.244872 
L 520.224768 383.382398 
L 520.708608 383.487565 
L 521.25696 383.584642 
L 521.773056 383.689809 
L 522.321408 383.786886 
L 522.934272 383.892053 
L 523.482624 383.98913 
L 523.99872 384.094297 
L 524.547072 384.191374 
L 525.159936 384.296541 
L 525.708288 384.393618 
L 526.41792 384.49474 
L 526.772736 384.555413 
L 527.3856 384.656535 
L 527.740416 384.717208 
L 528.450048 384.81833 
L 528.804864 384.879003 
L 529.514496 384.98417 
L 529.96608 385.040798 
L 530.578944 385.14192 
L 530.93376 385.202594 
L 531.74016 385.303715 
L 532.094976 385.364389 
L 532.998144 385.465511 
L 533.35296 385.526184 
L 534.15936 385.627306 
L 534.417408 385.64753 
L 535.12704 385.748652 
L 535.385088 385.768877 
L 536.191488 385.869999 
L 536.288256 385.898313 
L 536.320512 385.793146 
L 536.385024 385.942806 
L 536.546304 385.930672 
L 537.54624 386.031794 
L 537.901056 386.092467 
L 538.900992 386.193589 
L 539.15904 386.213813 
L 540.062208 386.314935 
L 540.320256 386.33516 
L 541.223424 386.436282 
L 541.481472 386.456506 
L 542.38464 386.557628 
L 542.642688 386.577852 
L 543.642624 386.678974 
L 543.900672 386.699199 
L 544.900608 386.800321 
L 545.158656 386.820545 
L 546.25536 386.921667 
L 546.513408 386.941891 
L 547.70688 387.043013 
L 547.964928 387.063238 
L 549.1584 387.16436 
L 549.416448 387.184584 
L 550.706688 387.285706 
L 550.964736 387.305931 
L 552.351744 387.407053 
L 552.609792 387.427277 
L 554.093568 387.528399 
L 554.351616 387.548623 
L 555.835392 387.649745 
L 556.09344 387.665925 
L 557.770752 387.771092 
L 558.0288 387.791316 
L 559.80288 387.892438 
L 560.060928 387.912662 
L 562.028544 388.013784 
L 562.286592 388.034009 
L 564.350976 388.135131 
L 564.609024 388.155355 
L 566.963712 388.256477 
L 567.22176 388.272657 
L 569.673216 388.377824 
L 570.028032 388.394003 
L 572.769792 388.49917 
L 573.02784 388.515349 
L 576.156672 388.620516 
L 576.41472 388.636696 
L 576.608256 388.636696 
L 576.640512 388.842985 
L 576.705024 388.632651 
L 579.930624 388.741863 
L 580.188672 388.758042 
L 584.188416 388.863209 
L 584.446464 388.879388 
L 589.123584 388.984555 
L 589.4784 389.000735 
L 595.026432 389.105902 
L 595.381248 389.126126 
L 602.284032 389.227248 
L 602.638848 389.247472 
L 657.248256 389.300056 
L 657.280512 389.437582 
L 657.345024 389.251517 
L 657.635328 389.275787 
L 737.888256 389.279832 
L 737.920512 389.48612 
L 737.985024 389.279832 
L 738.17856 389.259607 
L 739.243008 389.283876 
L 818.528256 389.279832 
L 818.560512 389.48612 
L 818.625024 389.279832 
L 818.81856 389.259607 
L 819.883008 389.283876 
L 899.168256 389.279832 
L 899.200512 389.48612 
L 899.265024 389.279832 
L 899.45856 389.259607 
L 900.523008 389.283876 
L 947.52 389.283876 
L 947.52 389.283876 
" clip-path="url(#p2781de310b)" style="fill: none; stroke: #ff00ff; stroke-width: 2; stroke-linecap: square"/>
   </g>
   <g id="patch_22">
    <path d="M 100.8 465.442759 
L 100.8 372.711724 
" style="fill: none; stroke: #bcbcbc; stroke-width: 0.8; stroke-linejoin: miter; stroke-linecap: square"/>
   </g>
   <g id="patch_23">
    <path d="M 987.84 465.442759 
L 987.84 372.711724 
" style="fill: none; stroke: #bcbcbc; stroke-width: 0.8; stroke-linejoin: miter; stroke-linecap: square"/>
   </g>
   <g id="patch_24">
    <path d="M 100.8 465.442759 
L 987.84 465.442759 
" style="fill: none; stroke: #bcbcbc; stroke-width: 0.8; stroke-linejoin: miter; stroke-linecap: square"/>
   </g>
   <g id="patch_25">
    <path d="M 100.8 372.711724 
L 987.84 372.711724 
" style="fill: none; stroke: #bcbcbc; stroke-width: 0.8; stroke-linejoin: miter; stroke-linecap: square"/>
   </g>
  </g>
  <g id="axes_5">
   <g id="patch_26">
    <path d="M 100.8 576.72 
L 987.84 576.72 
L 987.84 483.988966 
L 100.8 483.988966 
z
" style="fill: #eeeeee"/>
   </g>
   <g id="matplotlib.axis_9">
    <g id="xtick_25">
     <g id="line2d_71">
      <path d="M 141.12 576.72 
L 141.12 483.988966 
" clip-path="url(#p02a0481b66)" style="fill: none; stroke-dasharray: 1.85,0.8; stroke-dashoffset: 0; stroke: #b2b2b2; stroke-width: 0.5"/>
     </g>
     <g id="line2d_72">
      <g>
       <use xlink:href="#m3eec9d60cc" x="141.12" y="576.72" style="stroke: #000000; stroke-width: 0.8"/>
      </g>
     </g>
     <g id="text_14">
      <!-- 0 s -->
      <g transform="translate(130.795 590.857813) scale(0.14 -0.14)">
       <defs>
        <path id="DejaVuSans-73" d="M 2834 3397 
L 2834 2853 
Q 2591 2978 2328 3040 
Q 2066 3103 1784 3103 
Q 1356 3103 1142 2972 
Q 928 2841 928 2578 
Q 928 2378 1081 2264 
Q 1234 2150 1697 2047 
L 1894 2003 
Q 2506 1872 2764 1633 
Q 3022 1394 3022 966 
Q 3022 478 2636 193 
Q 2250 -91 1575 -91 
Q 1294 -91 989 -36 
Q 684 19 347 128 
L 347 722 
Q 666 556 975 473 
Q 1284 391 1588 391 
Q 1994 391 2212 530 
Q 2431 669 2431 922 
Q 2431 1156 2273 1281 
Q 2116 1406 1581 1522 
L 1381 1569 
Q 847 1681 609 1914 
Q 372 2147 372 2553 
Q 372 3047 722 3315 
Q 1072 3584 1716 3584 
Q 2034 3584 2315 3537 
Q 2597 3491 2834 3397 
z
" transform="scale(0.015625)"/>
       </defs>
       <use xlink:href="#DejaVuSans-30"/>
       <use xlink:href="#DejaVuSans-20" x="63.623047"/>
       <use xlink:href="#DejaVuSans-73" x="95.410156"/>
      </g>
     </g>
    </g>
    <g id="xtick_26">
     <g id="line2d_73">
      <path d="M 302.4 576.72 
L 302.4 483.988966 
" clip-path="url(#p02a0481b66)" style="fill: none; stroke-dasharray: 1.85,0.8; stroke-dashoffset: 0; stroke: #b2b2b2; stroke-width: 0.5"/>
     </g>
     <g id="line2d_74">
      <g>
       <use xlink:href="#m3eec9d60cc" x="302.4" y="576.72" style="stroke: #000000; stroke-width: 0.8"/>
      </g>
     </g>
     <g id="text_15">
      <!-- 50 ns -->
      <g transform="translate(283.185 590.857813) scale(0.14 -0.14)">
       <defs>
        <path id="DejaVuSans-35" d="M 691 4666 
L 3169 4666 
L 3169 4134 
L 1269 4134 
L 1269 2991 
Q 1406 3038 1543 3061 
Q 1681 3084 1819 3084 
Q 2600 3084 3056 2656 
Q 3513 2228 3513 1497 
Q 3513 744 3044 326 
Q 2575 -91 1722 -91 
Q 1428 -91 1123 -41 
Q 819 9 494 109 
L 494 744 
Q 775 591 1075 516 
Q 1375 441 1709 441 
Q 2250 441 2565 725 
Q 2881 1009 2881 1497 
Q 2881 1984 2565 2268 
Q 2250 2553 1709 2553 
Q 1456 2553 1204 2497 
Q 953 2441 691 2322 
L 691 4666 
z
" transform="scale(0.015625)"/>
        <path id="DejaVuSans-6e" d="M 3513 2113 
L 3513 0 
L 2938 0 
L 2938 2094 
Q 2938 2591 2744 2837 
Q 2550 3084 2163 3084 
Q 1697 3084 1428 2787 
Q 1159 2491 1159 1978 
L 1159 0 
L 581 0 
L 581 3500 
L 1159 3500 
L 1159 2956 
Q 1366 3272 1645 3428 
Q 1925 3584 2291 3584 
Q 2894 3584 3203 3211 
Q 3513 2838 3513 2113 
z
" transform="scale(0.015625)"/>
       </defs>
       <use xlink:href="#DejaVuSans-35"/>
       <use xlink:href="#DejaVuSans-30" x="63.623047"/>
       <use xlink:href="#DejaVuSans-20" x="127.246094"/>
       <use xlink:href="#DejaVuSans-6e" x="159.033203"/>
       <use xlink:href="#DejaVuSans-73" x="222.412109"/>
      </g>
     </g>
    </g>
    <g id="xtick_27">
     <g id="line2d_75">
      <path d="M 463.68 576.72 
L 463.68 483.988966 
" clip-path="url(#p02a0481b66)" style="fill: none; stroke-dasharray: 1.85,0.8; stroke-dashoffset: 0; stroke: #b2b2b2; stroke-width: 0.5"/>
     </g>
     <g id="line2d_76">
      <g>
       <use xlink:href="#m3eec9d60cc" x="463.68" y="576.72" style="stroke: #000000; stroke-width: 0.8"/>
      </g>
     </g>
     <g id="text_16">
      <!-- 100 ns -->
      <g transform="translate(440.01125 590.857813) scale(0.14 -0.14)">
       <use xlink:href="#DejaVuSans-31"/>
       <use xlink:href="#DejaVuSans-30" x="63.623047"/>
       <use xlink:href="#DejaVuSans-30" x="127.246094"/>
       <use xlink:href="#DejaVuSans-20" x="190.869141"/>
       <use xlink:href="#DejaVuSans-6e" x="222.65625"/>
       <use xlink:href="#DejaVuSans-73" x="286.035156"/>
      </g>
     </g>
    </g>
    <g id="xtick_28">
     <g id="line2d_77">
      <path d="M 624.96 576.72 
L 624.96 483.988966 
" clip-path="url(#p02a0481b66)" style="fill: none; stroke-dasharray: 1.85,0.8; stroke-dashoffset: 0; stroke: #b2b2b2; stroke-width: 0.5"/>
     </g>
     <g id="line2d_78">
      <g>
       <use xlink:href="#m3eec9d60cc" x="624.96" y="576.72" style="stroke: #000000; stroke-width: 0.8"/>
      </g>
     </g>
     <g id="text_17">
      <!-- 150 ns -->
      <g transform="translate(601.29125 590.857813) scale(0.14 -0.14)">
       <use xlink:href="#DejaVuSans-31"/>
       <use xlink:href="#DejaVuSans-35" x="63.623047"/>
       <use xlink:href="#DejaVuSans-30" x="127.246094"/>
       <use xlink:href="#DejaVuSans-20" x="190.869141"/>
       <use xlink:href="#DejaVuSans-6e" x="222.65625"/>
       <use xlink:href="#DejaVuSans-73" x="286.035156"/>
      </g>
     </g>
    </g>
    <g id="xtick_29">
     <g id="line2d_79">
      <path d="M 786.24 576.72 
L 786.24 483.988966 
" clip-path="url(#p02a0481b66)" style="fill: none; stroke-dasharray: 1.85,0.8; stroke-dashoffset: 0; stroke: #b2b2b2; stroke-width: 0.5"/>
     </g>
     <g id="line2d_80">
      <g>
       <use xlink:href="#m3eec9d60cc" x="786.24" y="576.72" style="stroke: #000000; stroke-width: 0.8"/>
      </g>
     </g>
     <g id="text_18">
      <!-- 200 ns -->
      <g transform="translate(762.57125 590.857813) scale(0.14 -0.14)">
       <use xlink:href="#DejaVuSans-32"/>
       <use xlink:href="#DejaVuSans-30" x="63.623047"/>
       <use xlink:href="#DejaVuSans-30" x="127.246094"/>
       <use xlink:href="#DejaVuSans-20" x="190.869141"/>
       <use xlink:href="#DejaVuSans-6e" x="222.65625"/>
       <use xlink:href="#DejaVuSans-73" x="286.035156"/>
      </g>
     </g>
    </g>
    <g id="xtick_30">
     <g id="line2d_81">
      <path d="M 947.52 576.72 
L 947.52 483.988966 
" clip-path="url(#p02a0481b66)" style="fill: none; stroke-dasharray: 1.85,0.8; stroke-dashoffset: 0; stroke: #b2b2b2; stroke-width: 0.5"/>
     </g>
     <g id="line2d_82">
      <g>
       <use xlink:href="#m3eec9d60cc" x="947.52" y="576.72" style="stroke: #000000; stroke-width: 0.8"/>
      </g>
     </g>
     <g id="text_19">
      <!-- 250 ns -->
      <g transform="translate(923.85125 590.857813) scale(0.14 -0.14)">
       <use xlink:href="#DejaVuSans-32"/>
       <use xlink:href="#DejaVuSans-35" x="63.623047"/>
       <use xlink:href="#DejaVuSans-30" x="127.246094"/>
       <use xlink:href="#DejaVuSans-20" x="190.869141"/>
       <use xlink:href="#DejaVuSans-6e" x="222.65625"/>
       <use xlink:href="#DejaVuSans-73" x="286.035156"/>
      </g>
     </g>
    </g>
    <g id="text_20">
     <!-- Time -->
     <g transform="translate(527.192969 608.407187) scale(0.14 -0.14)">
      <defs>
       <path id="DejaVuSans-69" d="M 603 3500 
L 1178 3500 
L 1178 0 
L 603 0 
L 603 3500 
z
M 603 4863 
L 1178 4863 
L 1178 4134 
L 603 4134 
L 603 4863 
z
" transform="scale(0.015625)"/>
       <path id="DejaVuSans-6d" d="M 3328 2828 
Q 3544 3216 3844 3400 
Q 4144 3584 4550 3584 
Q 5097 3584 5394 3201 
Q 5691 2819 5691 2113 
L 5691 0 
L 5113 0 
L 5113 2094 
Q 5113 2597 4934 2840 
Q 4756 3084 4391 3084 
Q 3944 3084 3684 2787 
Q 3425 2491 3425 1978 
L 3425 0 
L 2847 0 
L 2847 2094 
Q 2847 2600 2669 2842 
Q 2491 3084 2119 3084 
Q 1678 3084 1418 2786 
Q 1159 2488 1159 1978 
L 1159 0 
L 581 0 
L 581 3500 
L 1159 3500 
L 1159 2956 
Q 1356 3278 1631 3431 
Q 1906 3584 2284 3584 
Q 2666 3584 2933 3390 
Q 3200 3197 3328 2828 
z
" transform="scale(0.015625)"/>
       <path id="DejaVuSans-65" d="M 3597 1894 
L 3597 1613 
L 953 1613 
Q 991 1019 1311 708 
Q 1631 397 2203 397 
Q 2534 397 2845 478 
Q 3156 559 3463 722 
L 3463 178 
Q 3153 47 2828 -22 
Q 2503 -91 2169 -91 
Q 1331 -91 842 396 
Q 353 884 353 1716 
Q 353 2575 817 3079 
Q 1281 3584 2069 3584 
Q 2775 3584 3186 3129 
Q 3597 2675 3597 1894 
z
M 3022 2063 
Q 3016 2534 2758 2815 
Q 2500 3097 2075 3097 
Q 1594 3097 1305 2825 
Q 1016 2553 972 2059 
L 3022 2063 
z
" transform="scale(0.015625)"/>
      </defs>
      <use xlink:href="#DejaVuSans-54"/>
      <use xlink:href="#DejaVuSans-69" x="57.958984"/>
      <use xlink:href="#DejaVuSans-6d" x="85.742188"/>
      <use xlink:href="#DejaVuSans-65" x="183.154297"/>
     </g>
    </g>
   </g>
   <g id="matplotlib.axis_10">
    <g id="ytick_10">
     <g id="line2d_83">
      <path d="M 100.8 569.73901 
L 987.84 569.73901 
" clip-path="url(#p02a0481b66)" style="fill: none; stroke-dasharray: 1.85,0.8; stroke-dashoffset: 0; stroke: #b2b2b2; stroke-width: 0.5"/>
     </g>
     <g id="line2d_84">
      <g>
       <use xlink:href="#m03e5b0b41d" x="100.8" y="569.73901" style="stroke: #000000; stroke-width: 0.8"/>
      </g>
     </g>
     <g id="text_21">
      <!-- 0 V -->
      <g transform="translate(74.36625 575.057917) scale(0.14 -0.14)">
       <use xlink:href="#DejaVuSans-30"/>
       <use xlink:href="#DejaVuSans-20" x="63.623047"/>
       <use xlink:href="#DejaVuSans-56" x="95.410156"/>
      </g>
     </g>
    </g>
    <g id="ytick_11">
     <g id="line2d_85">
      <path d="M 100.8 535.859264 
L 987.84 535.859264 
" clip-path="url(#p02a0481b66)" style="fill: none; stroke-dasharray: 1.85,0.8; stroke-dashoffset: 0; stroke: #b2b2b2; stroke-width: 0.5"/>
     </g>
     <g id="line2d_86">
      <g>
       <use xlink:href="#m03e5b0b41d" x="100.8" y="535.859264" style="stroke: #000000; stroke-width: 0.8"/>
      </g>
     </g>
     <g id="text_22">
      <!-- 500 mV -->
      <g transform="translate(42.914375 541.17817) scale(0.14 -0.14)">
       <use xlink:href="#DejaVuSans-35"/>
       <use xlink:href="#DejaVuSans-30" x="63.623047"/>
       <use xlink:href="#DejaVuSans-30" x="127.246094"/>
       <use xlink:href="#DejaVuSans-20" x="190.869141"/>
       <use xlink:href="#DejaVuSans-6d" x="222.65625"/>
       <use xlink:href="#DejaVuSans-56" x="320.068359"/>
      </g>
     </g>
    </g>
    <g id="ytick_12">
     <g id="line2d_87">
      <path d="M 100.8 501.979517 
L 987.84 501.979517 
" clip-path="url(#p02a0481b66)" style="fill: none; stroke-dasharray: 1.85,0.8; stroke-dashoffset: 0; stroke: #b2b2b2; stroke-width: 0.5"/>
     </g>
     <g id="line2d_88">
      <g>
       <use xlink:href="#m03e5b0b41d" x="100.8" y="501.979517" style="stroke: #000000; stroke-width: 0.8"/>
      </g>
     </g>
     <g id="text_23">
      <!-- 1 V -->
      <g transform="translate(74.36625 507.298424) scale(0.14 -0.14)">
       <use xlink:href="#DejaVuSans-31"/>
       <use xlink:href="#DejaVuSans-20" x="63.623047"/>
       <use xlink:href="#DejaVuSans-56" x="95.410156"/>
      </g>
     </g>
    </g>
    <g id="text_24">
     <g id="patch_27">
      <path d="M 34.8768 554.329483 
L 34.8768 506.379483 
L 11.247425 506.379483 
L 11.247425 554.329483 
z
" style="fill: #ffff00; opacity: 0.2; stroke: #eeeeee; stroke-width: 0.5; stroke-linejoin: miter"/>
     </g>
     <!-- FOUT -->
     <g transform="translate(26.925238 549.289483) rotate(-90) scale(0.14 -0.14)">
      <use xlink:href="#DejaVuSans-46"/>
      <use xlink:href="#DejaVuSans-4f" x="57.519531"/>
      <use xlink:href="#DejaVuSans-55" x="136.230469"/>
      <use xlink:href="#DejaVuSans-54" x="209.423828"/>
     </g>
    </g>
   </g>
   <g id="line2d_89">
    <path d="M 141.12 488.427619 
L 173.472768 488.434395 
L 173.505024 488.237892 
L 173.569536 526.67582 
L 173.69856 572.504953 
L 173.730816 572.369163 
L 173.827584 567.830497 
L 173.892096 569.353066 
L 174.053376 570.05811 
L 174.117888 569.94029 
L 174.408192 569.484546 
L 174.440448 569.534126 
L 174.66624 569.72304 
L 176.182272 569.733261 
L 180.085248 569.754902 
L 193.568256 569.7453 
L 212.8896 569.737132 
L 255.30624 569.736824 
L 255.6288 488.319204 
L 255.854592 488.461499 
L 256.209408 488.420843 
L 334.849536 488.441171 
L 334.881792 492.655811 
L 335.043072 572.18296 
L 335.107584 570.255616 
L 335.172096 568.328258 
L 335.236608 568.861051 
L 335.365632 570.778712 
L 335.430144 570.404863 
L 335.591424 569.790466 
L 335.881728 569.641322 
L 336.559104 569.811229 
L 337.107456 569.739268 
L 349.9776 569.737327 
L 375.588864 569.736311 
L 375.62112 569.591349 
L 375.653376 567.047061 
L 375.879168 488.420843 
L 375.94368 488.427619 
L 378.330624 488.386963 
L 378.395136 488.204013 
L 378.427392 490.846633 
L 378.588672 570.306964 
L 378.68544 569.731825 
L 378.943488 569.737263 
L 424.81152 569.843414 
L 424.876032 568.19423 
L 424.9728 525.793591 
L 425.13408 488.779968 
L 425.263104 488.434395 
L 426.940416 488.427619 
L 427.004928 496.8569 
L 427.166208 544.111015 
L 427.262976 569.765083 
L 427.327488 569.735426 
L 429.0048 569.737326 
L 496.871424 569.762213 
L 496.935936 555.833407 
L 497.097216 489.498219 
L 497.22624 488.434395 
L 947.52 488.427619 
L 947.52 488.427619 
" clip-path="url(#p02a0481b66)" style="fill: none; stroke: #ff00ff; stroke-width: 2; stroke-linecap: square"/>
   </g>
   <g id="patch_28">
    <path d="M 100.8 576.72 
L 100.8 483.988966 
" style="fill: none; stroke: #bcbcbc; stroke-width: 0.8; stroke-linejoin: miter; stroke-linecap: square"/>
   </g>
   <g id="patch_29">
    <path d="M 987.84 576.72 
L 987.84 483.988966 
" style="fill: none; stroke: #bcbcbc; stroke-width: 0.8; stroke-linejoin: miter; stroke-linecap: square"/>
   </g>
   <g id="patch_30">
    <path d="M 100.8 576.72 
L 987.84 576.72 
" style="fill: none; stroke: #bcbcbc; stroke-width: 0.8; stroke-linejoin: miter; stroke-linecap: square"/>
   </g>
   <g id="patch_31">
    <path d="M 100.8 483.988966 
L 987.84 483.988966 
" style="fill: none; stroke: #bcbcbc; stroke-width: 0.8; stroke-linejoin: miter; stroke-linecap: square"/>
   </g>
  </g>
  <g id="axes_6">
   <g id="patch_32">
    <path d="M 201.6 628.56 
L 856.8 628.56 
L 856.8 615.6 
L 201.6 615.6 
z
" clip-path="url(#p56a28c3df4)" style="fill: #d3d3d3"/>
   </g>
   <g id="patch_33">
    <path d="M 201.6 628.56 
L 454.32 628.56 
L 454.32 615.6 
L 201.6 615.6 
z
" clip-path="url(#p56a28c3df4)" style="fill: #0000ff"/>
   </g>
   <g id="line2d_90">
    <path d="M 201.6 635.04 
L 201.6 609.12 
" clip-path="url(#pc964fad0ac)" style="fill: none; stroke: #ff0000; stroke-linecap: square"/>
   </g>
   <g id="line2d_91">
    <defs>
     <path id="m1e0a9c62d4" d="M 0 5 
C 1.326016 5 2.597899 4.473168 3.535534 3.535534 
C 4.473168 2.597899 5 1.326016 5 0 
C 5 -1.326016 4.473168 -2.597899 3.535534 -3.535534 
C 2.597899 -4.473168 1.326016 -5 0 -5 
C -1.326016 -5 -2.597899 -4.473168 -3.535534 -3.535534 
C -4.473168 -2.597899 -5 -1.326016 -5 0 
C -5 1.326016 -4.473168 2.597899 -3.535534 3.535534 
C -2.597899 4.473168 -1.326016 5 0 5 
z
" style="stroke: #bfbfbf"/>
    </defs>
    <g>
     <use xlink:href="#m1e0a9c62d4" x="454.32" y="622.08" style="fill: #ffffff; stroke: #bfbfbf"/>
    </g>
   </g>
   <g id="text_25">
    <!-- #Sweep -->
    <g transform="translate(138.622875 625.39125) scale(0.12 -0.12)">
     <defs>
      <path id="DejaVuSans-23" d="M 3272 2816 
L 2363 2816 
L 2100 1772 
L 3016 1772 
L 3272 2816 
z
M 2803 4594 
L 2478 3297 
L 3391 3297 
L 3719 4594 
L 4219 4594 
L 3897 3297 
L 4872 3297 
L 4872 2816 
L 3775 2816 
L 3519 1772 
L 4513 1772 
L 4513 1294 
L 3397 1294 
L 3072 0 
L 2572 0 
L 2894 1294 
L 1978 1294 
L 1656 0 
L 1153 0 
L 1478 1294 
L 494 1294 
L 494 1772 
L 1594 1772 
L 1856 2816 
L 850 2816 
L 850 3297 
L 1978 3297 
L 2297 4594 
L 2803 4594 
z
" transform="scale(0.015625)"/>
      <path id="DejaVuSans-77" d="M 269 3500 
L 844 3500 
L 1563 769 
L 2278 3500 
L 2956 3500 
L 3675 769 
L 4391 3500 
L 4966 3500 
L 4050 0 
L 3372 0 
L 2619 2869 
L 1863 0 
L 1184 0 
L 269 3500 
z
" transform="scale(0.015625)"/>
      <path id="DejaVuSans-70" d="M 1159 525 
L 1159 -1331 
L 581 -1331 
L 581 3500 
L 1159 3500 
L 1159 2969 
Q 1341 3281 1617 3432 
Q 1894 3584 2278 3584 
Q 2916 3584 3314 3078 
Q 3713 2572 3713 1747 
Q 3713 922 3314 415 
Q 2916 -91 2278 -91 
Q 1894 -91 1617 61 
Q 1341 213 1159 525 
z
M 3116 1747 
Q 3116 2381 2855 2742 
Q 2594 3103 2138 3103 
Q 1681 3103 1420 2742 
Q 1159 2381 1159 1747 
Q 1159 1113 1420 752 
Q 1681 391 2138 391 
Q 2594 391 2855 752 
Q 3116 1113 3116 1747 
z
" transform="scale(0.015625)"/>
     </defs>
     <use xlink:href="#DejaVuSans-23"/>
     <use xlink:href="#DejaVuSans-53" x="83.789062"/>
     <use xlink:href="#DejaVuSans-77" x="147.265625"/>
     <use xlink:href="#DejaVuSans-65" x="229.052734"/>
     <use xlink:href="#DejaVuSans-65" x="290.576172"/>
     <use xlink:href="#DejaVuSans-70" x="352.099609"/>
    </g>
   </g>
   <g id="text_26">
    <!-- $\mathdefault{54}$ -->
    <g transform="translate(869.904 625.39125) scale(0.12 -0.12)">
     <defs>
      <path id="DejaVuSans-34" d="M 2419 4116 
L 825 1625 
L 2419 1625 
L 2419 4116 
z
M 2253 4666 
L 3047 4666 
L 3047 1625 
L 3713 1625 
L 3713 1100 
L 3047 1100 
L 3047 0 
L 2419 0 
L 2419 1100 
L 313 1100 
L 313 1709 
L 2253 4666 
z
" transform="scale(0.015625)"/>
     </defs>
     <use xlink:href="#DejaVuSans-35" transform="translate(0 0.09375)"/>
     <use xlink:href="#DejaVuSans-34" transform="translate(63.623047 0.09375)"/>
    </g>
   </g>
  </g>
  <g id="text_27">
   <!-- DFF under BBI sweep analysis (Sweep = 64E-9) -->
   <g transform="translate(313.34625 25.1175) scale(0.16 -0.16)">
    <defs>
     <path id="DejaVuSans-75" d="M 544 1381 
L 544 3500 
L 1119 3500 
L 1119 1403 
Q 1119 906 1312 657 
Q 1506 409 1894 409 
Q 2359 409 2629 706 
Q 2900 1003 2900 1516 
L 2900 3500 
L 3475 3500 
L 3475 0 
L 2900 0 
L 2900 538 
Q 2691 219 2414 64 
Q 2138 -91 1772 -91 
Q 1169 -91 856 284 
Q 544 659 544 1381 
z
M 1991 3584 
L 1991 3584 
z
" transform="scale(0.015625)"/>
     <path id="DejaVuSans-64" d="M 2906 2969 
L 2906 4863 
L 3481 4863 
L 3481 0 
L 2906 0 
L 2906 525 
Q 2725 213 2448 61 
Q 2172 -91 1784 -91 
Q 1150 -91 751 415 
Q 353 922 353 1747 
Q 353 2572 751 3078 
Q 1150 3584 1784 3584 
Q 2172 3584 2448 3432 
Q 2725 3281 2906 2969 
z
M 947 1747 
Q 947 1113 1208 752 
Q 1469 391 1925 391 
Q 2381 391 2643 752 
Q 2906 1113 2906 1747 
Q 2906 2381 2643 2742 
Q 2381 3103 1925 3103 
Q 1469 3103 1208 2742 
Q 947 2381 947 1747 
z
" transform="scale(0.015625)"/>
     <path id="DejaVuSans-72" d="M 2631 2963 
Q 2534 3019 2420 3045 
Q 2306 3072 2169 3072 
Q 1681 3072 1420 2755 
Q 1159 2438 1159 1844 
L 1159 0 
L 581 0 
L 581 3500 
L 1159 3500 
L 1159 2956 
Q 1341 3275 1631 3429 
Q 1922 3584 2338 3584 
Q 2397 3584 2469 3576 
Q 2541 3569 2628 3553 
L 2631 2963 
z
" transform="scale(0.015625)"/>
     <path id="DejaVuSans-61" d="M 2194 1759 
Q 1497 1759 1228 1600 
Q 959 1441 959 1056 
Q 959 750 1161 570 
Q 1363 391 1709 391 
Q 2188 391 2477 730 
Q 2766 1069 2766 1631 
L 2766 1759 
L 2194 1759 
z
M 3341 1997 
L 3341 0 
L 2766 0 
L 2766 531 
Q 2569 213 2275 61 
Q 1981 -91 1556 -91 
Q 1019 -91 701 211 
Q 384 513 384 1019 
Q 384 1609 779 1909 
Q 1175 2209 1959 2209 
L 2766 2209 
L 2766 2266 
Q 2766 2663 2505 2880 
Q 2244 3097 1772 3097 
Q 1472 3097 1187 3025 
Q 903 2953 641 2809 
L 641 3341 
Q 956 3463 1253 3523 
Q 1550 3584 1831 3584 
Q 2591 3584 2966 3190 
Q 3341 2797 3341 1997 
z
" transform="scale(0.015625)"/>
     <path id="DejaVuSans-6c" d="M 603 4863 
L 1178 4863 
L 1178 0 
L 603 0 
L 603 4863 
z
" transform="scale(0.015625)"/>
     <path id="DejaVuSans-79" d="M 2059 -325 
Q 1816 -950 1584 -1140 
Q 1353 -1331 966 -1331 
L 506 -1331 
L 506 -850 
L 844 -850 
Q 1081 -850 1212 -737 
Q 1344 -625 1503 -206 
L 1606 56 
L 191 3500 
L 800 3500 
L 1894 763 
L 2988 3500 
L 3597 3500 
L 2059 -325 
z
" transform="scale(0.015625)"/>
     <path id="DejaVuSans-28" d="M 1984 4856 
Q 1566 4138 1362 3434 
Q 1159 2731 1159 2009 
Q 1159 1288 1364 580 
Q 1569 -128 1984 -844 
L 1484 -844 
Q 1016 -109 783 600 
Q 550 1309 550 2009 
Q 550 2706 781 3412 
Q 1013 4119 1484 4856 
L 1984 4856 
z
" transform="scale(0.015625)"/>
     <path id="DejaVuSans-3d" d="M 678 2906 
L 4684 2906 
L 4684 2381 
L 678 2381 
L 678 2906 
z
M 678 1631 
L 4684 1631 
L 4684 1100 
L 678 1100 
L 678 1631 
z
" transform="scale(0.015625)"/>
     <path id="DejaVuSans-36" d="M 2113 2584 
Q 1688 2584 1439 2293 
Q 1191 2003 1191 1497 
Q 1191 994 1439 701 
Q 1688 409 2113 409 
Q 2538 409 2786 701 
Q 3034 994 3034 1497 
Q 3034 2003 2786 2293 
Q 2538 2584 2113 2584 
z
M 3366 4563 
L 3366 3988 
Q 3128 4100 2886 4159 
Q 2644 4219 2406 4219 
Q 1781 4219 1451 3797 
Q 1122 3375 1075 2522 
Q 1259 2794 1537 2939 
Q 1816 3084 2150 3084 
Q 2853 3084 3261 2657 
Q 3669 2231 3669 1497 
Q 3669 778 3244 343 
Q 2819 -91 2113 -91 
Q 1303 -91 875 529 
Q 447 1150 447 2328 
Q 447 3434 972 4092 
Q 1497 4750 2381 4750 
Q 2619 4750 2861 4703 
Q 3103 4656 3366 4563 
z
" transform="scale(0.015625)"/>
     <path id="DejaVuSans-2d" d="M 313 2009 
L 1997 2009 
L 1997 1497 
L 313 1497 
L 313 2009 
z
" transform="scale(0.015625)"/>
     <path id="DejaVuSans-39" d="M 703 97 
L 703 672 
Q 941 559 1184 500 
Q 1428 441 1663 441 
Q 2288 441 2617 861 
Q 2947 1281 2994 2138 
Q 2813 1869 2534 1725 
Q 2256 1581 1919 1581 
Q 1219 1581 811 2004 
Q 403 2428 403 3163 
Q 403 3881 828 4315 
Q 1253 4750 1959 4750 
Q 2769 4750 3195 4129 
Q 3622 3509 3622 2328 
Q 3622 1225 3098 567 
Q 2575 -91 1691 -91 
Q 1453 -91 1209 -44 
Q 966 3 703 97 
z
M 1959 2075 
Q 2384 2075 2632 2365 
Q 2881 2656 2881 3163 
Q 2881 3666 2632 3958 
Q 2384 4250 1959 4250 
Q 1534 4250 1286 3958 
Q 1038 3666 1038 3163 
Q 1038 2656 1286 2365 
Q 1534 2075 1959 2075 
z
" transform="scale(0.015625)"/>
     <path id="DejaVuSans-29" d="M 513 4856 
L 1013 4856 
Q 1481 4119 1714 3412 
Q 1947 2706 1947 2009 
Q 1947 1309 1714 600 
Q 1481 -109 1013 -844 
L 513 -844 
Q 928 -128 1133 580 
Q 1338 1288 1338 2009 
Q 1338 2731 1133 3434 
Q 928 4138 513 4856 
z
" transform="scale(0.015625)"/>
    </defs>
    <use xlink:href="#DejaVuSans-44"/>
    <use xlink:href="#DejaVuSans-46" x="77.001953"/>
    <use xlink:href="#DejaVuSans-46" x="134.521484"/>
    <use xlink:href="#DejaVuSans-20" x="192.041016"/>
    <use xlink:href="#DejaVuSans-75" x="223.828125"/>
    <use xlink:href="#DejaVuSans-6e" x="287.207031"/>
    <use xlink:href="#DejaVuSans-64" x="350.585938"/>
    <use xlink:href="#DejaVuSans-65" x="414.0625"/>
    <use xlink:href="#DejaVuSans-72" x="475.585938"/>
    <use xlink:href="#DejaVuSans-20" x="516.699219"/>
    <use xlink:href="#DejaVuSans-42" x="548.486328"/>
    <use xlink:href="#DejaVuSans-42" x="617.089844"/>
    <use xlink:href="#DejaVuSans-49" x="685.693359"/>
    <use xlink:href="#DejaVuSans-20" x="715.185547"/>
    <use xlink:href="#DejaVuSans-73" x="746.972656"/>
    <use xlink:href="#DejaVuSans-77" x="799.072266"/>
    <use xlink:href="#DejaVuSans-65" x="880.859375"/>
    <use xlink:href="#DejaVuSans-65" x="942.382812"/>
    <use xlink:href="#DejaVuSans-70" x="1003.90625"/>
    <use xlink:href="#DejaVuSans-20" x="1067.382812"/>
    <use xlink:href="#DejaVuSans-61" x="1099.169922"/>
    <use xlink:href="#DejaVuSans-6e" x="1160.449219"/>
    <use xlink:href="#DejaVuSans-61" x="1223.828125"/>
    <use xlink:href="#DejaVuSans-6c" x="1285.107422"/>
    <use xlink:href="#DejaVuSans-79" x="1312.890625"/>
    <use xlink:href="#DejaVuSans-73" x="1372.070312"/>
    <use xlink:href="#DejaVuSans-69" x="1424.169922"/>
    <use xlink:href="#DejaVuSans-73" x="1451.953125"/>
    <use xlink:href="#DejaVuSans-20" x="1504.052734"/>
    <use xlink:href="#DejaVuSans-28" x="1535.839844"/>
    <use xlink:href="#DejaVuSans-53" x="1574.853516"/>
    <use xlink:href="#DejaVuSans-77" x="1638.330078"/>
    <use xlink:href="#DejaVuSans-65" x="1720.117188"/>
    <use xlink:href="#DejaVuSans-65" x="1781.640625"/>
    <use xlink:href="#DejaVuSans-70" x="1843.164062"/>
    <use xlink:href="#DejaVuSans-20" x="1906.640625"/>
    <use xlink:href="#DejaVuSans-3d" x="1938.427734"/>
    <use xlink:href="#DejaVuSans-20" x="2022.216797"/>
    <use xlink:href="#DejaVuSans-36" x="2054.003906"/>
    <use xlink:href="#DejaVuSans-34" x="2117.626953"/>
    <use xlink:href="#DejaVuSans-45" x="2181.25"/>
    <use xlink:href="#DejaVuSans-2d" x="2244.433594"/>
    <use xlink:href="#DejaVuSans-39" x="2280.517578"/>
    <use xlink:href="#DejaVuSans-29" x="2344.140625"/>
   </g>
  </g>
 </g>
 <defs>
  <clipPath id="pa092710133">
   <rect x="100.8" y="38.88" width="887.04" height="92.731034"/>
  </clipPath>
  <clipPath id="p4c975f9a3a">
   <rect x="100.8" y="150.157241" width="887.04" height="92.731034"/>
  </clipPath>
  <clipPath id="p216f11fae4">
   <rect x="100.8" y="261.434483" width="887.04" height="92.731034"/>
  </clipPath>
  <clipPath id="p2781de310b">
   <rect x="100.8" y="372.711724" width="887.04" height="92.731034"/>
  </clipPath>
  <clipPath id="p02a0481b66">
   <rect x="100.8" y="483.988966" width="887.04" height="92.731034"/>
  </clipPath>
  <clipPath id="p56a28c3df4">
   <rect x="201.6" y="609.12" width="655.2" height="25.92"/>
  </clipPath>
  <clipPath id="pc964fad0ac">
   <path d="M 201.6 628.56 
L 856.8 628.56 
L 856.8 615.6 
L 201.6 615.6 
z
"/>
  </clipPath>
 </defs>
</svg>
