<?xml version="1.0" encoding="utf-8" standalone="no"?>
<!DOCTYPE svg PUBLIC "-//W3C//DTD SVG 1.1//EN"
  "http://www.w3.org/Graphics/SVG/1.1/DTD/svg11.dtd">
<svg xmlns:xlink="http://www.w3.org/1999/xlink" width="1008pt" height="648pt" viewBox="0 0 1008 648" xmlns="http://www.w3.org/2000/svg" version="1.1">
 <metadata>
  <rdf:RDF xmlns:dc="http://purl.org/dc/elements/1.1/" xmlns:cc="http://creativecommons.org/ns#" xmlns:rdf="http://www.w3.org/1999/02/22-rdf-syntax-ns#">
   <cc:Work>
    <dc:type rdf:resource="http://purl.org/dc/dcmitype/StillImage"/>
    <dc:date>2024-06-03T10:45:57.214240</dc:date>
    <dc:format>image/svg+xml</dc:format>
    <dc:creator>
     <cc:Agent>
      <dc:title>Matplotlib v3.9.0, https://matplotlib.org/</dc:title>
     </cc:Agent>
    </dc:creator>
   </cc:Work>
  </rdf:RDF>
 </metadata>
 <defs>
  <style type="text/css">*{stroke-linejoin: round; stroke-linecap: butt}</style>
 </defs>
 <g id="figure_1">
  <g id="patch_1">
   <path d="M 0 648 
L 1008 648 
L 1008 0 
L 0 0 
z
" style="fill: #ffffff"/>
  </g>
  <g id="axes_1">
   <g id="patch_2">
    <path d="M 100.8 131.611034 
L 987.84 131.611034 
L 987.84 38.88 
L 100.8 38.88 
z
" style="fill: #eeeeee"/>
   </g>
   <g id="matplotlib.axis_1">
    <g id="xtick_1">
     <g id="line2d_1">
      <path d="M 141.12 131.611034 
L 141.12 38.88 
" clip-path="url(#pd334731ef7)" style="fill: none; stroke-dasharray: 1.85,0.8; stroke-dashoffset: 0; stroke: #b2b2b2; stroke-width: 0.5"/>
     </g>
     <g id="line2d_2">
      <defs>
       <path id="m0e562c4184" d="M 0 0 
L 0 -3.5 
" style="stroke: #000000; stroke-width: 0.8"/>
      </defs>
      <g>
       <use xlink:href="#m0e562c4184" x="141.12" y="131.611034" style="stroke: #000000; stroke-width: 0.8"/>
      </g>
     </g>
    </g>
    <g id="xtick_2">
     <g id="line2d_3">
      <path d="M 302.4 131.611034 
L 302.4 38.88 
" clip-path="url(#pd334731ef7)" style="fill: none; stroke-dasharray: 1.85,0.8; stroke-dashoffset: 0; stroke: #b2b2b2; stroke-width: 0.5"/>
     </g>
     <g id="line2d_4">
      <g>
       <use xlink:href="#m0e562c4184" x="302.4" y="131.611034" style="stroke: #000000; stroke-width: 0.8"/>
      </g>
     </g>
    </g>
    <g id="xtick_3">
     <g id="line2d_5">
      <path d="M 463.68 131.611034 
L 463.68 38.88 
" clip-path="url(#pd334731ef7)" style="fill: none; stroke-dasharray: 1.85,0.8; stroke-dashoffset: 0; stroke: #b2b2b2; stroke-width: 0.5"/>
     </g>
     <g id="line2d_6">
      <g>
       <use xlink:href="#m0e562c4184" x="463.68" y="131.611034" style="stroke: #000000; stroke-width: 0.8"/>
      </g>
     </g>
    </g>
    <g id="xtick_4">
     <g id="line2d_7">
      <path d="M 624.96 131.611034 
L 624.96 38.88 
" clip-path="url(#pd334731ef7)" style="fill: none; stroke-dasharray: 1.85,0.8; stroke-dashoffset: 0; stroke: #b2b2b2; stroke-width: 0.5"/>
     </g>
     <g id="line2d_8">
      <g>
       <use xlink:href="#m0e562c4184" x="624.96" y="131.611034" style="stroke: #000000; stroke-width: 0.8"/>
      </g>
     </g>
    </g>
    <g id="xtick_5">
     <g id="line2d_9">
      <path d="M 786.24 131.611034 
L 786.24 38.88 
" clip-path="url(#pd334731ef7)" style="fill: none; stroke-dasharray: 1.85,0.8; stroke-dashoffset: 0; stroke: #b2b2b2; stroke-width: 0.5"/>
     </g>
     <g id="line2d_10">
      <g>
       <use xlink:href="#m0e562c4184" x="786.24" y="131.611034" style="stroke: #000000; stroke-width: 0.8"/>
      </g>
     </g>
    </g>
    <g id="xtick_6">
     <g id="line2d_11">
      <path d="M 947.52 131.611034 
L 947.52 38.88 
" clip-path="url(#pd334731ef7)" style="fill: none; stroke-dasharray: 1.85,0.8; stroke-dashoffset: 0; stroke: #b2b2b2; stroke-width: 0.5"/>
     </g>
     <g id="line2d_12">
      <g>
       <use xlink:href="#m0e562c4184" x="947.52" y="131.611034" style="stroke: #000000; stroke-width: 0.8"/>
      </g>
     </g>
    </g>
   </g>
   <g id="matplotlib.axis_2">
    <g id="ytick_1">
     <g id="line2d_13">
      <path d="M 100.8 98.340394 
L 987.84 98.340394 
" clip-path="url(#pd334731ef7)" style="fill: none; stroke-dasharray: 1.85,0.8; stroke-dashoffset: 0; stroke: #b2b2b2; stroke-width: 0.5"/>
     </g>
     <g id="line2d_14">
      <defs>
       <path id="mde17fbe64d" d="M 0 0 
L 3.5 0 
" style="stroke: #000000; stroke-width: 0.8"/>
      </defs>
      <g>
       <use xlink:href="#mde17fbe64d" x="100.8" y="98.340394" style="stroke: #000000; stroke-width: 0.8"/>
      </g>
     </g>
     <g id="text_1">
      <!-- −200 V -->
      <g transform="translate(44.819688 103.6593) scale(0.14 -0.14)">
       <defs>
        <path id="DejaVuSans-2212" d="M 678 2272 
L 4684 2272 
L 4684 1741 
L 678 1741 
L 678 2272 
z
" transform="scale(0.015625)"/>
        <path id="DejaVuSans-32" d="M 1228 531 
L 3431 531 
L 3431 0 
L 469 0 
L 469 531 
Q 828 903 1448 1529 
Q 2069 2156 2228 2338 
Q 2531 2678 2651 2914 
Q 2772 3150 2772 3378 
Q 2772 3750 2511 3984 
Q 2250 4219 1831 4219 
Q 1534 4219 1204 4116 
Q 875 4013 500 3803 
L 500 4441 
Q 881 4594 1212 4672 
Q 1544 4750 1819 4750 
Q 2544 4750 2975 4387 
Q 3406 4025 3406 3419 
Q 3406 3131 3298 2873 
Q 3191 2616 2906 2266 
Q 2828 2175 2409 1742 
Q 1991 1309 1228 531 
z
" transform="scale(0.015625)"/>
        <path id="DejaVuSans-30" d="M 2034 4250 
Q 1547 4250 1301 3770 
Q 1056 3291 1056 2328 
Q 1056 1369 1301 889 
Q 1547 409 2034 409 
Q 2525 409 2770 889 
Q 3016 1369 3016 2328 
Q 3016 3291 2770 3770 
Q 2525 4250 2034 4250 
z
M 2034 4750 
Q 2819 4750 3233 4129 
Q 3647 3509 3647 2328 
Q 3647 1150 3233 529 
Q 2819 -91 2034 -91 
Q 1250 -91 836 529 
Q 422 1150 422 2328 
Q 422 3509 836 4129 
Q 1250 4750 2034 4750 
z
" transform="scale(0.015625)"/>
        <path id="DejaVuSans-20" transform="scale(0.015625)"/>
        <path id="DejaVuSans-56" d="M 1831 0 
L 50 4666 
L 709 4666 
L 2188 738 
L 3669 4666 
L 4325 4666 
L 2547 0 
L 1831 0 
z
" transform="scale(0.015625)"/>
       </defs>
       <use xlink:href="#DejaVuSans-2212"/>
       <use xlink:href="#DejaVuSans-32" x="83.789062"/>
       <use xlink:href="#DejaVuSans-30" x="147.412109"/>
       <use xlink:href="#DejaVuSans-30" x="211.035156"/>
       <use xlink:href="#DejaVuSans-20" x="274.658203"/>
       <use xlink:href="#DejaVuSans-56" x="306.445312"/>
      </g>
     </g>
    </g>
    <g id="ytick_2">
     <g id="line2d_15">
      <path d="M 100.8 45.027377 
L 987.84 45.027377 
" clip-path="url(#pd334731ef7)" style="fill: none; stroke-dasharray: 1.85,0.8; stroke-dashoffset: 0; stroke: #b2b2b2; stroke-width: 0.5"/>
     </g>
     <g id="line2d_16">
      <g>
       <use xlink:href="#mde17fbe64d" x="100.8" y="45.027377" style="stroke: #000000; stroke-width: 0.8"/>
      </g>
     </g>
     <g id="text_2">
      <!-- 0 V -->
      <g transform="translate(74.36625 50.346284) scale(0.14 -0.14)">
       <use xlink:href="#DejaVuSans-30"/>
       <use xlink:href="#DejaVuSans-20" x="63.623047"/>
       <use xlink:href="#DejaVuSans-56" x="95.410156"/>
      </g>
     </g>
    </g>
    <g id="text_3">
     <g id="patch_3">
      <path d="M 34.8768 131.080205 
L 34.8768 39.41083 
L 11.247425 39.41083 
L 11.247425 131.080205 
z
" style="fill: #ffff00; opacity: 0.2; stroke: #eeeeee; stroke-width: 0.5; stroke-linejoin: miter"/>
     </g>
     <!-- VPULSE BBI -->
     <g transform="translate(26.925238 126.040205) rotate(-90) scale(0.14 -0.14)">
      <defs>
       <path id="DejaVuSans-50" d="M 1259 4147 
L 1259 2394 
L 2053 2394 
Q 2494 2394 2734 2622 
Q 2975 2850 2975 3272 
Q 2975 3691 2734 3919 
Q 2494 4147 2053 4147 
L 1259 4147 
z
M 628 4666 
L 2053 4666 
Q 2838 4666 3239 4311 
Q 3641 3956 3641 3272 
Q 3641 2581 3239 2228 
Q 2838 1875 2053 1875 
L 1259 1875 
L 1259 0 
L 628 0 
L 628 4666 
z
" transform="scale(0.015625)"/>
       <path id="DejaVuSans-55" d="M 556 4666 
L 1191 4666 
L 1191 1831 
Q 1191 1081 1462 751 
Q 1734 422 2344 422 
Q 2950 422 3222 751 
Q 3494 1081 3494 1831 
L 3494 4666 
L 4128 4666 
L 4128 1753 
Q 4128 841 3676 375 
Q 3225 -91 2344 -91 
Q 1459 -91 1007 375 
Q 556 841 556 1753 
L 556 4666 
z
" transform="scale(0.015625)"/>
       <path id="DejaVuSans-4c" d="M 628 4666 
L 1259 4666 
L 1259 531 
L 3531 531 
L 3531 0 
L 628 0 
L 628 4666 
z
" transform="scale(0.015625)"/>
       <path id="DejaVuSans-53" d="M 3425 4513 
L 3425 3897 
Q 3066 4069 2747 4153 
Q 2428 4238 2131 4238 
Q 1616 4238 1336 4038 
Q 1056 3838 1056 3469 
Q 1056 3159 1242 3001 
Q 1428 2844 1947 2747 
L 2328 2669 
Q 3034 2534 3370 2195 
Q 3706 1856 3706 1288 
Q 3706 609 3251 259 
Q 2797 -91 1919 -91 
Q 1588 -91 1214 -16 
Q 841 59 441 206 
L 441 856 
Q 825 641 1194 531 
Q 1563 422 1919 422 
Q 2459 422 2753 634 
Q 3047 847 3047 1241 
Q 3047 1584 2836 1778 
Q 2625 1972 2144 2069 
L 1759 2144 
Q 1053 2284 737 2584 
Q 422 2884 422 3419 
Q 422 4038 858 4394 
Q 1294 4750 2059 4750 
Q 2388 4750 2728 4690 
Q 3069 4631 3425 4513 
z
" transform="scale(0.015625)"/>
       <path id="DejaVuSans-45" d="M 628 4666 
L 3578 4666 
L 3578 4134 
L 1259 4134 
L 1259 2753 
L 3481 2753 
L 3481 2222 
L 1259 2222 
L 1259 531 
L 3634 531 
L 3634 0 
L 628 0 
L 628 4666 
z
" transform="scale(0.015625)"/>
       <path id="DejaVuSans-42" d="M 1259 2228 
L 1259 519 
L 2272 519 
Q 2781 519 3026 730 
Q 3272 941 3272 1375 
Q 3272 1813 3026 2020 
Q 2781 2228 2272 2228 
L 1259 2228 
z
M 1259 4147 
L 1259 2741 
L 2194 2741 
Q 2656 2741 2882 2914 
Q 3109 3088 3109 3444 
Q 3109 3797 2882 3972 
Q 2656 4147 2194 4147 
L 1259 4147 
z
M 628 4666 
L 2241 4666 
Q 2963 4666 3353 4366 
Q 3744 4066 3744 3513 
Q 3744 3084 3544 2831 
Q 3344 2578 2956 2516 
Q 3422 2416 3680 2098 
Q 3938 1781 3938 1306 
Q 3938 681 3513 340 
Q 3088 0 2303 0 
L 628 0 
L 628 4666 
z
" transform="scale(0.015625)"/>
       <path id="DejaVuSans-49" d="M 628 4666 
L 1259 4666 
L 1259 0 
L 628 0 
L 628 4666 
z
" transform="scale(0.015625)"/>
      </defs>
      <use xlink:href="#DejaVuSans-56"/>
      <use xlink:href="#DejaVuSans-50" x="68.408203"/>
      <use xlink:href="#DejaVuSans-55" x="128.710938"/>
      <use xlink:href="#DejaVuSans-4c" x="201.904297"/>
      <use xlink:href="#DejaVuSans-53" x="257.617188"/>
      <use xlink:href="#DejaVuSans-45" x="321.09375"/>
      <use xlink:href="#DejaVuSans-20" x="384.277344"/>
      <use xlink:href="#DejaVuSans-42" x="416.064453"/>
      <use xlink:href="#DejaVuSans-42" x="484.667969"/>
      <use xlink:href="#DejaVuSans-49" x="553.271484"/>
     </g>
    </g>
   </g>
   <g id="line2d_17">
    <path d="M 141.12 45.027377 
L 602.413056 45.136282 
L 602.896896 46.425538 
L 611.122176 69.006772 
L 618.541056 89.863624 
L 620.153856 94.440546 
L 621.960192 99.673219 
L 625.44384 110.807642 
L 627.024384 115.853719 
L 628.314624 119.585631 
L 628.766208 119.80688 
L 629.830656 120.297359 
L 630.314496 120.526605 
L 631.378944 121.017085 
L 631.959552 121.272988 
L 632.830464 121.656841 
L 633.411072 121.912744 
L 634.249728 122.269941 
L 635.830272 122.936354 
L 636.475392 123.202919 
L 637.572096 123.629423 
L 638.313984 123.922644 
L 639.410688 124.349149 
L 640.313856 124.677024 
L 640.991232 124.943589 
L 641.797632 125.25547 
L 643.152384 125.804594 
L 645.797376 126.790885 
L 646.41024 127.022796 
L 648.3456 127.395987 
L 666.828288 127.289361 
L 667.05408 126.801547 
L 685.343232 75.087922 
L 689.084928 63.292417 
L 692.794368 51.617666 
L 697.406976 49.3412 
L 702.761472 46.984578 
L 711.470592 43.484472 
L 712.341504 43.268927 
L 726.630912 43.108189 
L 733.436928 43.184799 
L 748.790784 43.746186 
L 776.5632 44.46146 
L 802.20672 44.774399 
L 837.817344 44.945888 
L 885.846528 44.953885 
L 947.52 44.953885 
L 947.52 44.953885 
" clip-path="url(#pd334731ef7)" style="fill: none; stroke: #ff0000; stroke-width: 2; stroke-linecap: square"/>
   </g>
   <g id="patch_4">
    <path d="M 100.8 131.611034 
L 100.8 38.88 
" style="fill: none; stroke: #bcbcbc; stroke-width: 0.8; stroke-linejoin: miter; stroke-linecap: square"/>
   </g>
   <g id="patch_5">
    <path d="M 987.84 131.611034 
L 987.84 38.88 
" style="fill: none; stroke: #bcbcbc; stroke-width: 0.8; stroke-linejoin: miter; stroke-linecap: square"/>
   </g>
   <g id="patch_6">
    <path d="M 100.8 131.611034 
L 987.84 131.611034 
" style="fill: none; stroke: #bcbcbc; stroke-width: 0.8; stroke-linejoin: miter; stroke-linecap: square"/>
   </g>
   <g id="patch_7">
    <path d="M 100.8 38.88 
L 987.84 38.88 
" style="fill: none; stroke: #bcbcbc; stroke-width: 0.8; stroke-linejoin: miter; stroke-linecap: square"/>
   </g>
  </g>
  <g id="axes_2">
   <g id="patch_8">
    <path d="M 100.8 242.888276 
L 987.84 242.888276 
L 987.84 150.157241 
L 100.8 150.157241 
z
" style="fill: #eeeeee"/>
   </g>
   <g id="matplotlib.axis_3">
    <g id="xtick_7">
     <g id="line2d_18">
      <path d="M 141.12 242.888276 
L 141.12 150.157241 
" clip-path="url(#pa869fb4581)" style="fill: none; stroke-dasharray: 1.85,0.8; stroke-dashoffset: 0; stroke: #b2b2b2; stroke-width: 0.5"/>
     </g>
     <g id="line2d_19">
      <g>
       <use xlink:href="#m0e562c4184" x="141.12" y="242.888276" style="stroke: #000000; stroke-width: 0.8"/>
      </g>
     </g>
    </g>
    <g id="xtick_8">
     <g id="line2d_20">
      <path d="M 302.4 242.888276 
L 302.4 150.157241 
" clip-path="url(#pa869fb4581)" style="fill: none; stroke-dasharray: 1.85,0.8; stroke-dashoffset: 0; stroke: #b2b2b2; stroke-width: 0.5"/>
     </g>
     <g id="line2d_21">
      <g>
       <use xlink:href="#m0e562c4184" x="302.4" y="242.888276" style="stroke: #000000; stroke-width: 0.8"/>
      </g>
     </g>
    </g>
    <g id="xtick_9">
     <g id="line2d_22">
      <path d="M 463.68 242.888276 
L 463.68 150.157241 
" clip-path="url(#pa869fb4581)" style="fill: none; stroke-dasharray: 1.85,0.8; stroke-dashoffset: 0; stroke: #b2b2b2; stroke-width: 0.5"/>
     </g>
     <g id="line2d_23">
      <g>
       <use xlink:href="#m0e562c4184" x="463.68" y="242.888276" style="stroke: #000000; stroke-width: 0.8"/>
      </g>
     </g>
    </g>
    <g id="xtick_10">
     <g id="line2d_24">
      <path d="M 624.96 242.888276 
L 624.96 150.157241 
" clip-path="url(#pa869fb4581)" style="fill: none; stroke-dasharray: 1.85,0.8; stroke-dashoffset: 0; stroke: #b2b2b2; stroke-width: 0.5"/>
     </g>
     <g id="line2d_25">
      <g>
       <use xlink:href="#m0e562c4184" x="624.96" y="242.888276" style="stroke: #000000; stroke-width: 0.8"/>
      </g>
     </g>
    </g>
    <g id="xtick_11">
     <g id="line2d_26">
      <path d="M 786.24 242.888276 
L 786.24 150.157241 
" clip-path="url(#pa869fb4581)" style="fill: none; stroke-dasharray: 1.85,0.8; stroke-dashoffset: 0; stroke: #b2b2b2; stroke-width: 0.5"/>
     </g>
     <g id="line2d_27">
      <g>
       <use xlink:href="#m0e562c4184" x="786.24" y="242.888276" style="stroke: #000000; stroke-width: 0.8"/>
      </g>
     </g>
    </g>
    <g id="xtick_12">
     <g id="line2d_28">
      <path d="M 947.52 242.888276 
L 947.52 150.157241 
" clip-path="url(#pa869fb4581)" style="fill: none; stroke-dasharray: 1.85,0.8; stroke-dashoffset: 0; stroke: #b2b2b2; stroke-width: 0.5"/>
     </g>
     <g id="line2d_29">
      <g>
       <use xlink:href="#m0e562c4184" x="947.52" y="242.888276" style="stroke: #000000; stroke-width: 0.8"/>
      </g>
     </g>
    </g>
   </g>
   <g id="matplotlib.axis_4">
    <g id="ytick_3">
     <g id="line2d_30">
      <path d="M 100.8 219.366416 
L 987.84 219.366416 
" clip-path="url(#pa869fb4581)" style="fill: none; stroke-dasharray: 1.85,0.8; stroke-dashoffset: 0; stroke: #b2b2b2; stroke-width: 0.5"/>
     </g>
     <g id="line2d_31">
      <g>
       <use xlink:href="#mde17fbe64d" x="100.8" y="219.366416" style="stroke: #000000; stroke-width: 0.8"/>
      </g>
     </g>
     <g id="text_4">
      <!-- 0 V -->
      <g transform="translate(74.36625 224.685323) scale(0.14 -0.14)">
       <use xlink:href="#DejaVuSans-30"/>
       <use xlink:href="#DejaVuSans-20" x="63.623047"/>
       <use xlink:href="#DejaVuSans-56" x="95.410156"/>
      </g>
     </g>
    </g>
    <g id="ytick_4">
     <g id="line2d_32">
      <path d="M 100.8 185.782926 
L 987.84 185.782926 
" clip-path="url(#pa869fb4581)" style="fill: none; stroke-dasharray: 1.85,0.8; stroke-dashoffset: 0; stroke: #b2b2b2; stroke-width: 0.5"/>
     </g>
     <g id="line2d_33">
      <g>
       <use xlink:href="#mde17fbe64d" x="100.8" y="185.782926" style="stroke: #000000; stroke-width: 0.8"/>
      </g>
     </g>
     <g id="text_5">
      <!-- 1 V -->
      <g transform="translate(74.36625 191.101833) scale(0.14 -0.14)">
       <defs>
        <path id="DejaVuSans-31" d="M 794 531 
L 1825 531 
L 1825 4091 
L 703 3866 
L 703 4441 
L 1819 4666 
L 2450 4666 
L 2450 531 
L 3481 531 
L 3481 0 
L 794 0 
L 794 531 
z
" transform="scale(0.015625)"/>
       </defs>
       <use xlink:href="#DejaVuSans-31"/>
       <use xlink:href="#DejaVuSans-20" x="63.623047"/>
       <use xlink:href="#DejaVuSans-56" x="95.410156"/>
      </g>
     </g>
    </g>
    <g id="ytick_5">
     <g id="line2d_34">
      <path d="M 100.8 152.199437 
L 987.84 152.199437 
" clip-path="url(#pa869fb4581)" style="fill: none; stroke-dasharray: 1.85,0.8; stroke-dashoffset: 0; stroke: #b2b2b2; stroke-width: 0.5"/>
     </g>
     <g id="line2d_35">
      <g>
       <use xlink:href="#mde17fbe64d" x="100.8" y="152.199437" style="stroke: #000000; stroke-width: 0.8"/>
      </g>
     </g>
     <g id="text_6">
      <!-- 2 V -->
      <g transform="translate(74.36625 157.518343) scale(0.14 -0.14)">
       <use xlink:href="#DejaVuSans-32"/>
       <use xlink:href="#DejaVuSans-20" x="63.623047"/>
       <use xlink:href="#DejaVuSans-56" x="95.410156"/>
      </g>
     </g>
    </g>
    <g id="text_7">
     <g id="patch_9">
      <path d="M 34.8768 224.531509 
L 34.8768 168.514009 
L 11.247425 168.514009 
L 11.247425 224.531509 
z
" style="fill: #ffff00; opacity: 0.2; stroke: #eeeeee; stroke-width: 0.5; stroke-linejoin: miter"/>
     </g>
     <!-- DFF IN -->
     <g transform="translate(26.925238 219.491509) rotate(-90) scale(0.14 -0.14)">
      <defs>
       <path id="DejaVuSans-44" d="M 1259 4147 
L 1259 519 
L 2022 519 
Q 2988 519 3436 956 
Q 3884 1394 3884 2338 
Q 3884 3275 3436 3711 
Q 2988 4147 2022 4147 
L 1259 4147 
z
M 628 4666 
L 1925 4666 
Q 3281 4666 3915 4102 
Q 4550 3538 4550 2338 
Q 4550 1131 3912 565 
Q 3275 0 1925 0 
L 628 0 
L 628 4666 
z
" transform="scale(0.015625)"/>
       <path id="DejaVuSans-46" d="M 628 4666 
L 3309 4666 
L 3309 4134 
L 1259 4134 
L 1259 2759 
L 3109 2759 
L 3109 2228 
L 1259 2228 
L 1259 0 
L 628 0 
L 628 4666 
z
" transform="scale(0.015625)"/>
       <path id="DejaVuSans-4e" d="M 628 4666 
L 1478 4666 
L 3547 763 
L 3547 4666 
L 4159 4666 
L 4159 0 
L 3309 0 
L 1241 3903 
L 1241 0 
L 628 0 
L 628 4666 
z
" transform="scale(0.015625)"/>
      </defs>
      <use xlink:href="#DejaVuSans-44"/>
      <use xlink:href="#DejaVuSans-46" x="77.001953"/>
      <use xlink:href="#DejaVuSans-46" x="134.521484"/>
      <use xlink:href="#DejaVuSans-20" x="192.041016"/>
      <use xlink:href="#DejaVuSans-49" x="223.828125"/>
      <use xlink:href="#DejaVuSans-4e" x="253.320312"/>
     </g>
    </g>
   </g>
   <g id="line2d_36">
    <path d="M 141.12 219.317371 
L 221.953536 219.271318 
L 224.437248 200.55899 
L 225.404928 194.866589 
L 228.243456 182.350694 
L 229.598208 181.094671 
L 231.178752 180.231576 
L 236.565504 179.781557 
L 243.661824 179.670731 
L 245.1456 179.627073 
L 248.403456 179.516247 
L 250.113024 179.44908 
L 252.177408 179.338255 
L 254.241792 179.012495 
L 254.757888 178.481876 
L 255.499776 178.146041 
L 256.370688 178.166191 
L 257.531904 178.397917 
L 259.98336 178.797561 
L 262.370304 178.935253 
L 263.886336 178.985628 
L 264.144384 184.164202 
L 264.434688 187.687782 
L 265.176576 192.381746 
L 267.144192 209.515035 
L 268.402176 215.947953 
L 269.079552 217.259724 
L 270.46656 218.958578 
L 273.724416 219.36823 
L 282.594816 219.321807 
L 297.110016 219.310587 
L 305.883648 219.316575 
L 347.751936 219.272994 
L 350.235648 200.598619 
L 351.622656 192.060688 
L 352.687104 186.730317 
L 354.97728 179.915891 
L 358.493184 178.928536 
L 360.235008 178.999062 
L 363.073536 179.109887 
L 364.396032 179.136754 
L 375.169536 179.207279 
L 375.717888 180.187917 
L 376.169472 180.930112 
L 377.008128 181.826791 
L 377.524224 181.776416 
L 378.427392 181.487598 
L 380.45952 180.349118 
L 381.58848 179.993133 
L 387.201024 179.519606 
L 389.65248 179.40878 
L 391.813632 179.294596 
L 394.555392 179.183771 
L 395.9424 179.150187 
L 415.392768 179.04272 
L 415.973376 178.424784 
L 416.844288 178.092307 
L 417.908736 178.196416 
L 419.16672 178.475159 
L 420.908544 178.727035 
L 424.00512 178.938611 
L 455.712768 179.039362 
L 456.809472 179.919249 
L 457.261056 179.989774 
L 458.712576 180.030075 
L 462.744576 179.499456 
L 464.16384 179.314746 
L 467.518464 179.076304 
L 496.065024 178.995703 
L 496.58112 178.461726 
L 497.258496 178.159474 
L 498.387456 178.152758 
L 502.06464 178.807636 
L 504.258048 178.925178 
L 536.352768 179.036003 
L 537.255936 179.831932 
L 537.901056 179.989774 
L 539.352576 180.030075 
L 544.449024 179.38863 
L 545.61024 179.257654 
L 548.803584 179.036003 
L 576.73728 178.952045 
L 577.22112 178.461726 
L 577.898496 178.159474 
L 579.027456 178.152758 
L 582.801408 178.827786 
L 584.865792 178.931895 
L 602.348544 179.029287 
L 602.54208 179.247579 
L 604.703232 183.066022 
L 607.05792 186.303135 
L 611.702784 192.716574 
L 612.283392 194.535791 
L 614.573568 203.247685 
L 614.96064 204.951375 
L 617.476608 215.283671 
L 618.444288 218.599403 
L 618.541056 218.912435 
L 619.63776 222.608701 
L 619.992576 223.487111 
L 620.1216 223.656036 
L 620.411904 224.410992 
L 621.121536 226.008223 
L 621.702144 226.640264 
L 621.960192 227.333763 
L 622.5408 228.644863 
L 622.766592 228.931666 
L 623.3472 230.311276 
L 623.927808 231.337251 
L 624.1536 231.574351 
L 624.508416 232.43879 
L 624.96 233.293825 
L 625.347072 233.795227 
L 625.637376 234.298979 
L 627.830784 238.172499 
L 627.959808 238.313885 
L 628.250112 238.648377 
L 628.475904 238.525126 
L 629.540352 236.972561 
L 629.862912 236.389552 
L 630.153216 236.117189 
L 630.76608 235.487499 
L 631.217664 234.817508 
L 631.540224 234.275135 
L 631.830528 234.082366 
L 631.991808 233.967846 
L 633.862656 232.090529 
L 634.15296 231.713051 
L 634.31424 231.719096 
L 634.572288 231.453114 
L 634.894848 231.334565 
L 635.185152 231.17773 
L 636.152832 230.255527 
L 636.668928 229.444486 
L 636.991488 229.261456 
L 637.152768 229.308809 
L 638.50752 228.335559 
L 639.15264 227.718294 
L 639.571968 227.002966 
L 639.894528 226.839415 
L 640.055808 226.825309 
L 641.539584 225.864486 
L 642.313728 225.123634 
L 642.7008 224.55473 
L 643.02336 224.468756 
L 643.732992 224.183968 
L 645.990912 222.387822 
L 646.345728 222.127886 
L 647.281152 221.424984 
L 648.152064 220.583818 
L 648.99072 219.481655 
L 649.861632 218.290468 
L 650.700288 217.164683 
L 651.829248 215.598349 
L 655.732224 210.853002 
L 656.764416 209.67187 
L 657.345024 208.002771 
L 658.66752 204.166865 
L 659.699712 201.814341 
L 663.215616 196.840291 
L 664.4736 195.377394 
L 665.150976 194.617735 
L 666.150912 193.721728 
L 666.957312 192.810272 
L 667.37664 191.453163 
L 668.892672 186.220184 
L 669.731328 184.231369 
L 670.634496 182.68317 
L 671.344128 181.907392 
L 673.085952 180.322251 
L 677.117952 174.680225 
L 678.214656 173.068217 
L 681.440256 168.561313 
L 684.440064 164.685778 
L 685.27872 163.658123 
L 692.794368 154.399155 
L 693.504 154.812232 
L 694.245888 155.074183 
L 695.052288 155.211876 
L 696.181248 155.440243 
L 697.568256 155.829812 
L 697.632768 155.987654 
L 698.084352 158.959793 
L 698.471424 160.870694 
L 698.858496 161.690131 
L 699.181056 161.89499 
L 699.535872 161.797598 
L 700.019712 161.317354 
L 701.632512 159.463545 
L 702.342144 159.073977 
L 703.309824 158.882551 
L 703.954944 158.90606 
L 704.858112 159.016885 
L 705.987072 159.245253 
L 712.470528 160.706135 
L 713.309184 161.10242 
L 725.953536 166.254127 
L 726.759936 166.529512 
L 728.372736 167.083639 
L 737.952768 169.961744 
L 738.372096 169.367317 
L 738.759168 169.145666 
L 739.081728 169.122157 
L 740.081664 169.548667 
L 741.275136 170.284146 
L 742.37184 170.848349 
L 743.049216 171.096866 
L 744.46848 171.573752 
L 746.24256 172.053996 
L 747.565056 172.352889 
L 748.435968 172.551031 
L 749.371392 172.732382 
L 750.468096 172.957392 
L 751.339008 173.118592 
L 751.919616 173.22606 
L 754.919424 173.739887 
L 756.822528 174.045497 
L 757.53216 174.152964 
L 759.370752 174.42499 
L 760.11264 174.532457 
L 760.531968 174.589549 
L 761.338368 174.6903 
L 761.789952 174.760825 
L 762.628608 174.864934 
L 763.241472 174.948893 
L 764.112384 175.05636 
L 765.370368 175.210844 
L 766.305792 175.321669 
L 767.563776 175.476153 
L 768.692736 175.583621 
L 769.78944 175.704521 
L 770.9184 175.811988 
L 771.466752 175.875797 
L 772.627968 175.983264 
L 773.144064 176.036998 
L 774.337536 176.144465 
L 774.853632 176.19484 
L 775.466496 176.241857 
L 776.014848 176.298949 
L 777.434112 176.409774 
L 778.33728 176.607917 
L 778.756608 177.185553 
L 779.272704 177.521388 
L 780.143616 177.685947 
L 784.14336 176.957185 
L 785.4336 176.984052 
L 786.175488 177.017636 
L 786.56256 177.024352 
L 788.852736 177.15197 
L 789.530112 177.19227 
L 791.820288 177.319887 
L 792.562176 177.350112 
L 794.497536 177.444146 
L 795.174912 177.484446 
L 797.174784 177.585197 
L 797.948928 177.615422 
L 799.723008 177.689305 
L 802.335744 177.800131 
L 804.077568 177.870656 
L 804.754944 177.90424 
L 805.43232 177.934465 
L 808.33536 178.041932 
L 808.883712 178.048649 
L 811.980288 178.159474 
L 813.49632 178.20985 
L 814.334976 178.233358 
L 818.302464 178.344183 
L 818.625024 178.2703 
L 819.270144 177.622138 
L 819.78624 177.430713 
L 820.237824 177.397129 
L 820.979712 177.49788 
L 821.818368 177.729606 
L 824.9472 178.2703 
L 826.56 178.381125 
L 828.205056 178.441576 
L 832.237056 178.552401 
L 832.84992 178.569193 
L 834.075648 178.585985 
L 858.880512 178.686735 
L 859.041792 178.868086 
L 859.525632 179.351688 
L 859.94496 179.559906 
L 860.525568 179.684165 
L 862.622208 179.576698 
L 865.10592 179.170337 
L 869.492736 178.824427 
L 899.200512 178.73711 
L 900.168192 177.877373 
L 900.523008 177.816923 
L 901.684224 177.800131 
L 903.00672 178.099024 
L 905.361408 178.478517 
L 907.716096 178.612851 
L 939.552768 178.703527 
L 940.617216 179.559906 
L 941.55264 179.744615 
L 943.455744 179.637148 
L 946.423296 179.130037 
L 947.52 178.958761 
L 947.52 178.958761 
" clip-path="url(#pa869fb4581)" style="fill: none; stroke: #008000; stroke-width: 2; stroke-linecap: square"/>
   </g>
   <g id="patch_10">
    <path d="M 100.8 242.888276 
L 100.8 150.157241 
" style="fill: none; stroke: #bcbcbc; stroke-width: 0.8; stroke-linejoin: miter; stroke-linecap: square"/>
   </g>
   <g id="patch_11">
    <path d="M 987.84 242.888276 
L 987.84 150.157241 
" style="fill: none; stroke: #bcbcbc; stroke-width: 0.8; stroke-linejoin: miter; stroke-linecap: square"/>
   </g>
   <g id="patch_12">
    <path d="M 100.8 242.888276 
L 987.84 242.888276 
" style="fill: none; stroke: #bcbcbc; stroke-width: 0.8; stroke-linejoin: miter; stroke-linecap: square"/>
   </g>
   <g id="patch_13">
    <path d="M 100.8 150.157241 
L 987.84 150.157241 
" style="fill: none; stroke: #bcbcbc; stroke-width: 0.8; stroke-linejoin: miter; stroke-linecap: square"/>
   </g>
  </g>
  <g id="axes_3">
   <g id="patch_14">
    <path d="M 100.8 354.165517 
L 987.84 354.165517 
L 987.84 261.434483 
L 100.8 261.434483 
z
" style="fill: #eeeeee"/>
   </g>
   <g id="matplotlib.axis_5">
    <g id="xtick_13">
     <g id="line2d_37">
      <path d="M 141.12 354.165517 
L 141.12 261.434483 
" clip-path="url(#pe166636461)" style="fill: none; stroke-dasharray: 1.85,0.8; stroke-dashoffset: 0; stroke: #b2b2b2; stroke-width: 0.5"/>
     </g>
     <g id="line2d_38">
      <g>
       <use xlink:href="#m0e562c4184" x="141.12" y="354.165517" style="stroke: #000000; stroke-width: 0.8"/>
      </g>
     </g>
    </g>
    <g id="xtick_14">
     <g id="line2d_39">
      <path d="M 302.4 354.165517 
L 302.4 261.434483 
" clip-path="url(#pe166636461)" style="fill: none; stroke-dasharray: 1.85,0.8; stroke-dashoffset: 0; stroke: #b2b2b2; stroke-width: 0.5"/>
     </g>
     <g id="line2d_40">
      <g>
       <use xlink:href="#m0e562c4184" x="302.4" y="354.165517" style="stroke: #000000; stroke-width: 0.8"/>
      </g>
     </g>
    </g>
    <g id="xtick_15">
     <g id="line2d_41">
      <path d="M 463.68 354.165517 
L 463.68 261.434483 
" clip-path="url(#pe166636461)" style="fill: none; stroke-dasharray: 1.85,0.8; stroke-dashoffset: 0; stroke: #b2b2b2; stroke-width: 0.5"/>
     </g>
     <g id="line2d_42">
      <g>
       <use xlink:href="#m0e562c4184" x="463.68" y="354.165517" style="stroke: #000000; stroke-width: 0.8"/>
      </g>
     </g>
    </g>
    <g id="xtick_16">
     <g id="line2d_43">
      <path d="M 624.96 354.165517 
L 624.96 261.434483 
" clip-path="url(#pe166636461)" style="fill: none; stroke-dasharray: 1.85,0.8; stroke-dashoffset: 0; stroke: #b2b2b2; stroke-width: 0.5"/>
     </g>
     <g id="line2d_44">
      <g>
       <use xlink:href="#m0e562c4184" x="624.96" y="354.165517" style="stroke: #000000; stroke-width: 0.8"/>
      </g>
     </g>
    </g>
    <g id="xtick_17">
     <g id="line2d_45">
      <path d="M 786.24 354.165517 
L 786.24 261.434483 
" clip-path="url(#pe166636461)" style="fill: none; stroke-dasharray: 1.85,0.8; stroke-dashoffset: 0; stroke: #b2b2b2; stroke-width: 0.5"/>
     </g>
     <g id="line2d_46">
      <g>
       <use xlink:href="#m0e562c4184" x="786.24" y="354.165517" style="stroke: #000000; stroke-width: 0.8"/>
      </g>
     </g>
    </g>
    <g id="xtick_18">
     <g id="line2d_47">
      <path d="M 947.52 354.165517 
L 947.52 261.434483 
" clip-path="url(#pe166636461)" style="fill: none; stroke-dasharray: 1.85,0.8; stroke-dashoffset: 0; stroke: #b2b2b2; stroke-width: 0.5"/>
     </g>
     <g id="line2d_48">
      <g>
       <use xlink:href="#m0e562c4184" x="947.52" y="354.165517" style="stroke: #000000; stroke-width: 0.8"/>
      </g>
     </g>
    </g>
   </g>
   <g id="matplotlib.axis_6">
    <g id="ytick_6">
     <g id="line2d_49">
      <path d="M 100.8 344.725899 
L 987.84 344.725899 
" clip-path="url(#pe166636461)" style="fill: none; stroke-dasharray: 1.85,0.8; stroke-dashoffset: 0; stroke: #b2b2b2; stroke-width: 0.5"/>
     </g>
     <g id="line2d_50">
      <g>
       <use xlink:href="#mde17fbe64d" x="100.8" y="344.725899" style="stroke: #000000; stroke-width: 0.8"/>
      </g>
     </g>
     <g id="text_8">
      <!-- 0 V -->
      <g transform="translate(74.36625 350.044805) scale(0.14 -0.14)">
       <use xlink:href="#DejaVuSans-30"/>
       <use xlink:href="#DejaVuSans-20" x="63.623047"/>
       <use xlink:href="#DejaVuSans-56" x="95.410156"/>
      </g>
     </g>
    </g>
    <g id="ytick_7">
     <g id="line2d_51">
      <path d="M 100.8 303.694159 
L 987.84 303.694159 
" clip-path="url(#pe166636461)" style="fill: none; stroke-dasharray: 1.85,0.8; stroke-dashoffset: 0; stroke: #b2b2b2; stroke-width: 0.5"/>
     </g>
     <g id="line2d_52">
      <g>
       <use xlink:href="#mde17fbe64d" x="100.8" y="303.694159" style="stroke: #000000; stroke-width: 0.8"/>
      </g>
     </g>
     <g id="text_9">
      <!-- 1 V -->
      <g transform="translate(74.36625 309.013065) scale(0.14 -0.14)">
       <use xlink:href="#DejaVuSans-31"/>
       <use xlink:href="#DejaVuSans-20" x="63.623047"/>
       <use xlink:href="#DejaVuSans-56" x="95.410156"/>
      </g>
     </g>
    </g>
    <g id="ytick_8">
     <g id="line2d_53">
      <path d="M 100.8 262.662419 
L 987.84 262.662419 
" clip-path="url(#pe166636461)" style="fill: none; stroke-dasharray: 1.85,0.8; stroke-dashoffset: 0; stroke: #b2b2b2; stroke-width: 0.5"/>
     </g>
     <g id="line2d_54">
      <g>
       <use xlink:href="#mde17fbe64d" x="100.8" y="262.662419" style="stroke: #000000; stroke-width: 0.8"/>
      </g>
     </g>
     <g id="text_10">
      <!-- 2 V -->
      <g transform="translate(74.36625 267.981325) scale(0.14 -0.14)">
       <use xlink:href="#DejaVuSans-32"/>
       <use xlink:href="#DejaVuSans-20" x="63.623047"/>
       <use xlink:href="#DejaVuSans-56" x="95.410156"/>
      </g>
     </g>
    </g>
    <g id="text_11">
     <g id="patch_15">
      <path d="M 34.8768 342.395313 
L 34.8768 273.204688 
L 11.247425 273.204688 
L 11.247425 342.395313 
z
" style="fill: #ffff00; opacity: 0.2; stroke: #eeeeee; stroke-width: 0.5; stroke-linejoin: miter"/>
     </g>
     <!-- CLK BUF -->
     <g transform="translate(26.925238 337.355313) rotate(-90) scale(0.14 -0.14)">
      <defs>
       <path id="DejaVuSans-43" d="M 4122 4306 
L 4122 3641 
Q 3803 3938 3442 4084 
Q 3081 4231 2675 4231 
Q 1875 4231 1450 3742 
Q 1025 3253 1025 2328 
Q 1025 1406 1450 917 
Q 1875 428 2675 428 
Q 3081 428 3442 575 
Q 3803 722 4122 1019 
L 4122 359 
Q 3791 134 3420 21 
Q 3050 -91 2638 -91 
Q 1578 -91 968 557 
Q 359 1206 359 2328 
Q 359 3453 968 4101 
Q 1578 4750 2638 4750 
Q 3056 4750 3426 4639 
Q 3797 4528 4122 4306 
z
" transform="scale(0.015625)"/>
       <path id="DejaVuSans-4b" d="M 628 4666 
L 1259 4666 
L 1259 2694 
L 3353 4666 
L 4166 4666 
L 1850 2491 
L 4331 0 
L 3500 0 
L 1259 2247 
L 1259 0 
L 628 0 
L 628 4666 
z
" transform="scale(0.015625)"/>
      </defs>
      <use xlink:href="#DejaVuSans-43"/>
      <use xlink:href="#DejaVuSans-4c" x="69.824219"/>
      <use xlink:href="#DejaVuSans-4b" x="125.537109"/>
      <use xlink:href="#DejaVuSans-20" x="191.113281"/>
      <use xlink:href="#DejaVuSans-42" x="222.900391"/>
      <use xlink:href="#DejaVuSans-55" x="291.503906"/>
      <use xlink:href="#DejaVuSans-46" x="364.697266"/>
     </g>
    </g>
   </g>
   <g id="line2d_55">
    <path d="M 141.12 344.724814 
L 173.376 344.724814 
L 173.601792 295.487811 
L 213.696 295.487811 
L 213.760512 334.762982 
L 213.825024 344.707153 
L 213.889536 344.648107 
L 213.954048 344.812024 
L 214.01856 344.730345 
L 215.437824 344.720509 
L 223.85664 344.724737 
L 254.016 344.724786 
L 254.17728 295.335994 
L 254.241792 295.598597 
L 254.403072 295.479605 
L 254.854656 295.487811 
L 294.336 295.487811 
L 294.400512 334.728515 
L 294.465024 345.032082 
L 294.529536 344.318692 
L 294.626304 344.79038 
L 294.65856 344.761182 
L 294.884352 344.703176 
L 295.206912 344.74083 
L 295.529472 344.724359 
L 321.91488 344.724813 
L 334.656 344.724816 
L 334.81728 295.413954 
L 334.881792 295.504224 
L 335.204352 295.491914 
L 336.10752 295.487811 
L 374.976 295.487811 
L 375.040512 334.766675 
L 375.105024 344.726564 
L 375.169536 344.642904 
L 375.266304 344.793761 
L 375.29856 344.730482 
L 376.782336 344.720197 
L 385.491456 344.724725 
L 415.296 344.724815 
L 415.45728 295.335994 
L 415.521792 295.598597 
L 415.683072 295.475501 
L 416.683008 295.491914 
L 455.616 295.487811 
L 455.680512 334.730977 
L 455.745024 345.037137 
L 455.809536 344.129174 
L 455.906304 345.327916 
L 455.93856 344.792637 
L 456.132096 344.701256 
L 456.551424 344.725136 
L 491.645952 344.724813 
L 495.936 344.724814 
L 496.09728 295.405748 
L 496.161792 295.504224 
L 497.161728 295.487811 
L 536.256 295.487811 
L 536.320512 334.730977 
L 536.385024 345.037092 
L 536.449536 344.129256 
L 536.546304 345.327834 
L 536.57856 344.792633 
L 536.772096 344.701258 
L 537.191424 344.725136 
L 572.285952 344.724813 
L 576.576 344.724815 
L 576.73728 295.405748 
L 576.801792 295.504224 
L 577.801728 295.487811 
L 602.477568 295.594494 
L 604.122624 297.863549 
L 605.799936 300.624985 
L 612.70272 311.826239 
L 615.60576 316.057432 
L 616.896 317.83862 
L 616.928256 316.557199 
L 616.960512 316.699169 
L 617.121792 345.915163 
L 617.154048 345.902074 
L 619.928064 345.84984 
L 620.863488 345.968012 
L 621.992448 346.36922 
L 622.605312 346.705721 
L 623.766528 347.35948 
L 624.411648 347.75043 
L 624.830976 347.994774 
L 625.540608 348.410385 
L 628.282368 349.882768 
L 628.927488 349.5619 
L 629.024256 349.52333 
L 630.056448 349.115885 
L 630.217728 349.042027 
L 630.379008 348.99402 
L 632.991744 348.143966 
L 633.314304 348.032688 
L 635.894784 347.249515 
L 636.443136 347.094866 
L 642.475008 345.559951 
L 646.765056 344.789174 
L 650.861568 344.217557 
L 651.667968 344.196589 
L 656.119296 344.211197 
L 657.216 344.224614 
L 657.248256 342.140325 
L 657.37728 316.030352 
L 657.441792 315.570796 
L 657.506304 315.715638 
L 657.925632 315.471089 
L 662.312448 313.142127 
L 667.086336 310.656425 
L 668.34432 308.38778 
L 670.44096 304.037595 
L 674.601984 295.446779 
L 675.27936 294.121454 
L 677.05344 290.756851 
L 682.504704 281.26621 
L 683.50464 279.682385 
L 685.27872 276.96198 
L 692.729856 265.768522 
L 694.181376 265.686458 
L 696.632832 266.420926 
L 697.536 266.823038 
L 697.600512 345.173473 
L 697.69728 345.067562 
L 698.406912 345.089247 
L 705.793536 345.078936 
L 712.147968 345.054108 
L 713.728512 345.175155 
L 716.0832 345.196164 
L 735.694848 345.035225 
L 737.856 345.016227 
L 737.985024 284.26563 
L 738.081792 284.478995 
L 740.017152 285.110884 
L 740.307456 285.217567 
L 741.72672 285.644297 
L 742.04928 285.750979 
L 743.01696 286.013582 
L 743.307264 286.120265 
L 744.274944 286.382868 
L 744.662016 286.48955 
L 745.629696 286.752154 
L 746.016768 286.858836 
L 746.88768 287.080407 
L 747.274752 287.18709 
L 748.048896 287.36763 
L 748.435968 287.474312 
L 749.210112 287.654852 
L 749.597184 287.761534 
L 750.242304 287.901042 
L 750.661632 288.007725 
L 751.306752 288.147233 
L 751.72608 288.253915 
L 752.3712 288.393423 
L 752.887296 288.500106 
L 753.532416 288.639614 
L 754.048512 288.746296 
L 754.693632 288.885804 
L 755.209728 288.992487 
L 755.854848 289.131994 
L 756.467712 289.238677 
L 757.112832 289.378185 
L 757.725696 289.484867 
L 758.274048 289.583344 
L 758.790144 289.690026 
L 759.338496 289.788502 
L 759.95136 289.891082 
L 760.306176 289.952629 
L 760.91904 290.059312 
L 761.467392 290.157788 
L 762.080256 290.260367 
L 762.435072 290.321915 
L 763.144704 290.424494 
L 763.49952 290.486042 
L 764.209152 290.588621 
L 764.563968 290.650169 
L 765.2736 290.752748 
L 765.628416 290.814296 
L 766.338048 290.916875 
L 766.692864 290.978423 
L 767.499264 291.081002 
L 767.85408 291.14255 
L 768.757248 291.245129 
L 769.112064 291.306677 
L 770.015232 291.409256 
L 770.370048 291.470804 
L 771.273216 291.573383 
L 771.531264 291.593899 
L 772.337664 291.696478 
L 772.69248 291.753923 
L 778.111488 292.33247 
L 778.176 292.33247 
L 778.208256 299.205287 
L 778.33728 344.743496 
L 778.369536 344.883518 
L 778.434048 344.813021 
L 778.950144 344.809341 
L 818.496 344.748937 
L 818.625024 294.392264 
L 818.721792 294.634351 
L 819.173376 294.626144 
L 822.85056 294.732827 
L 823.108608 294.74924 
L 828.366336 294.855922 
L 828.624384 294.872335 
L 835.140096 294.979017 
L 835.398144 294.99543 
L 858.816 295.077494 
L 858.945024 345.039451 
L 859.106304 344.800618 
L 859.364352 344.709149 
L 859.719168 344.753815 
L 860.041728 344.73635 
L 899.136 344.736565 
L 899.29728 294.864129 
L 899.361792 295.327787 
L 899.45856 294.90516 
L 899.523072 295.061081 
L 900.006912 295.077494 
L 939.456 295.077494 
L 939.488256 302.475516 
L 939.61728 344.687765 
L 939.649536 344.80708 
L 939.714048 344.692925 
L 939.810816 344.709879 
L 940.004352 344.76112 
L 940.230144 344.735262 
L 945.9072 344.736567 
L 947.52 344.736555 
L 947.52 344.736555 
" clip-path="url(#pe166636461)" style="fill: none; stroke: #0000ff; stroke-width: 2; stroke-linecap: square"/>
   </g>
   <g id="patch_16">
    <path d="M 100.8 354.165517 
L 100.8 261.434483 
" style="fill: none; stroke: #bcbcbc; stroke-width: 0.8; stroke-linejoin: miter; stroke-linecap: square"/>
   </g>
   <g id="patch_17">
    <path d="M 987.84 354.165517 
L 987.84 261.434483 
" style="fill: none; stroke: #bcbcbc; stroke-width: 0.8; stroke-linejoin: miter; stroke-linecap: square"/>
   </g>
   <g id="patch_18">
    <path d="M 100.8 354.165517 
L 987.84 354.165517 
" style="fill: none; stroke: #bcbcbc; stroke-width: 0.8; stroke-linejoin: miter; stroke-linecap: square"/>
   </g>
   <g id="patch_19">
    <path d="M 100.8 261.434483 
L 987.84 261.434483 
" style="fill: none; stroke: #bcbcbc; stroke-width: 0.8; stroke-linejoin: miter; stroke-linecap: square"/>
   </g>
  </g>
  <g id="axes_4">
   <g id="patch_20">
    <path d="M 100.8 465.442759 
L 987.84 465.442759 
L 987.84 372.711724 
L 100.8 372.711724 
z
" style="fill: #eeeeee"/>
   </g>
   <g id="matplotlib.axis_7">
    <g id="xtick_19">
     <g id="line2d_56">
      <path d="M 141.12 465.442759 
L 141.12 372.711724 
" clip-path="url(#pff1b586c49)" style="fill: none; stroke-dasharray: 1.85,0.8; stroke-dashoffset: 0; stroke: #b2b2b2; stroke-width: 0.5"/>
     </g>
     <g id="line2d_57">
      <g>
       <use xlink:href="#m0e562c4184" x="141.12" y="465.442759" style="stroke: #000000; stroke-width: 0.8"/>
      </g>
     </g>
    </g>
    <g id="xtick_20">
     <g id="line2d_58">
      <path d="M 302.4 465.442759 
L 302.4 372.711724 
" clip-path="url(#pff1b586c49)" style="fill: none; stroke-dasharray: 1.85,0.8; stroke-dashoffset: 0; stroke: #b2b2b2; stroke-width: 0.5"/>
     </g>
     <g id="line2d_59">
      <g>
       <use xlink:href="#m0e562c4184" x="302.4" y="465.442759" style="stroke: #000000; stroke-width: 0.8"/>
      </g>
     </g>
    </g>
    <g id="xtick_21">
     <g id="line2d_60">
      <path d="M 463.68 465.442759 
L 463.68 372.711724 
" clip-path="url(#pff1b586c49)" style="fill: none; stroke-dasharray: 1.85,0.8; stroke-dashoffset: 0; stroke: #b2b2b2; stroke-width: 0.5"/>
     </g>
     <g id="line2d_61">
      <g>
       <use xlink:href="#m0e562c4184" x="463.68" y="465.442759" style="stroke: #000000; stroke-width: 0.8"/>
      </g>
     </g>
    </g>
    <g id="xtick_22">
     <g id="line2d_62">
      <path d="M 624.96 465.442759 
L 624.96 372.711724 
" clip-path="url(#pff1b586c49)" style="fill: none; stroke-dasharray: 1.85,0.8; stroke-dashoffset: 0; stroke: #b2b2b2; stroke-width: 0.5"/>
     </g>
     <g id="line2d_63">
      <g>
       <use xlink:href="#m0e562c4184" x="624.96" y="465.442759" style="stroke: #000000; stroke-width: 0.8"/>
      </g>
     </g>
    </g>
    <g id="xtick_23">
     <g id="line2d_64">
      <path d="M 786.24 465.442759 
L 786.24 372.711724 
" clip-path="url(#pff1b586c49)" style="fill: none; stroke-dasharray: 1.85,0.8; stroke-dashoffset: 0; stroke: #b2b2b2; stroke-width: 0.5"/>
     </g>
     <g id="line2d_65">
      <g>
       <use xlink:href="#m0e562c4184" x="786.24" y="465.442759" style="stroke: #000000; stroke-width: 0.8"/>
      </g>
     </g>
    </g>
    <g id="xtick_24">
     <g id="line2d_66">
      <path d="M 947.52 465.442759 
L 947.52 372.711724 
" clip-path="url(#pff1b586c49)" style="fill: none; stroke-dasharray: 1.85,0.8; stroke-dashoffset: 0; stroke: #b2b2b2; stroke-width: 0.5"/>
     </g>
     <g id="line2d_67">
      <g>
       <use xlink:href="#m0e562c4184" x="947.52" y="465.442759" style="stroke: #000000; stroke-width: 0.8"/>
      </g>
     </g>
    </g>
   </g>
   <g id="matplotlib.axis_8">
    <g id="ytick_9">
     <g id="line2d_68">
      <path d="M 100.8 437.53282 
L 987.84 437.53282 
" clip-path="url(#pff1b586c49)" style="fill: none; stroke-dasharray: 1.85,0.8; stroke-dashoffset: 0; stroke: #b2b2b2; stroke-width: 0.5"/>
     </g>
     <g id="line2d_69">
      <g>
       <use xlink:href="#mde17fbe64d" x="100.8" y="437.53282" style="stroke: #000000; stroke-width: 0.8"/>
      </g>
     </g>
     <g id="text_12">
      <!-- 0 V -->
      <g transform="translate(74.36625 442.851726) scale(0.14 -0.14)">
       <use xlink:href="#DejaVuSans-30"/>
       <use xlink:href="#DejaVuSans-20" x="63.623047"/>
       <use xlink:href="#DejaVuSans-56" x="95.410156"/>
      </g>
     </g>
    </g>
    <g id="ytick_10">
     <g id="line2d_70">
      <path d="M 100.8 395.990529 
L 987.84 395.990529 
" clip-path="url(#pff1b586c49)" style="fill: none; stroke-dasharray: 1.85,0.8; stroke-dashoffset: 0; stroke: #b2b2b2; stroke-width: 0.5"/>
     </g>
     <g id="line2d_71">
      <g>
       <use xlink:href="#mde17fbe64d" x="100.8" y="395.990529" style="stroke: #000000; stroke-width: 0.8"/>
      </g>
     </g>
     <g id="text_13">
      <!-- 1 V -->
      <g transform="translate(74.36625 401.309435) scale(0.14 -0.14)">
       <use xlink:href="#DejaVuSans-31"/>
       <use xlink:href="#DejaVuSans-20" x="63.623047"/>
       <use xlink:href="#DejaVuSans-56" x="95.410156"/>
      </g>
     </g>
    </g>
    <g id="text_14">
     <g id="patch_21">
      <path d="M 34.8768 454.693023 
L 34.8768 383.46146 
L 11.247425 383.46146 
L 11.247425 454.693023 
z
" style="fill: #ffff00; opacity: 0.2; stroke: #eeeeee; stroke-width: 0.5; stroke-linejoin: miter"/>
     </g>
     <!-- DFF OUT -->
     <g transform="translate(26.925238 449.653023) rotate(-90) scale(0.14 -0.14)">
      <defs>
       <path id="DejaVuSans-4f" d="M 2522 4238 
Q 1834 4238 1429 3725 
Q 1025 3213 1025 2328 
Q 1025 1447 1429 934 
Q 1834 422 2522 422 
Q 3209 422 3611 934 
Q 4013 1447 4013 2328 
Q 4013 3213 3611 3725 
Q 3209 4238 2522 4238 
z
M 2522 4750 
Q 3503 4750 4090 4092 
Q 4678 3434 4678 2328 
Q 4678 1225 4090 567 
Q 3503 -91 2522 -91 
Q 1538 -91 948 565 
Q 359 1222 359 2328 
Q 359 3434 948 4092 
Q 1538 4750 2522 4750 
z
" transform="scale(0.015625)"/>
       <path id="DejaVuSans-54" d="M -19 4666 
L 3928 4666 
L 3928 4134 
L 2272 4134 
L 2272 0 
L 1638 0 
L 1638 4134 
L -19 4134 
L -19 4666 
z
" transform="scale(0.015625)"/>
      </defs>
      <use xlink:href="#DejaVuSans-44"/>
      <use xlink:href="#DejaVuSans-46" x="77.001953"/>
      <use xlink:href="#DejaVuSans-46" x="134.521484"/>
      <use xlink:href="#DejaVuSans-20" x="192.041016"/>
      <use xlink:href="#DejaVuSans-4f" x="223.828125"/>
      <use xlink:href="#DejaVuSans-55" x="302.539062"/>
      <use xlink:href="#DejaVuSans-54" x="375.732422"/>
     </g>
    </g>
   </g>
   <g id="line2d_72">
    <path d="M 141.12 406.187915 
L 173.408256 406.238596 
L 173.440512 407.958447 
L 173.601792 437.535355 
L 174.085632 437.530162 
L 183.923712 437.53172 
L 254.048256 437.533453 
L 254.080512 437.699521 
L 254.112768 437.424822 
L 254.306304 433.369036 
L 254.596608 432.556053 
L 254.693376 431.976123 
L 255.14496 424.697913 
L 255.370752 407.591629 
L 255.596544 388.085031 
L 255.757824 387.744384 
L 255.983616 387.677916 
L 256.854528 387.68207 
L 295.755264 387.765155 
L 296.239104 390.452941 
L 296.59392 389.779956 
L 297.948672 388.022717 
L 299.561472 387.715304 
L 334.688256 387.698687 
L 334.720512 387.578215 
L 334.752768 388.188886 
L 334.785024 391.209011 
L 334.914048 437.515791 
L 334.97856 437.47923 
L 335.13984 437.524113 
L 335.494656 437.532216 
L 365.524992 437.531676 
L 415.328256 437.533427 
L 415.360512 437.698943 
L 415.392768 437.427124 
L 415.586304 433.272242 
L 415.876608 432.318847 
L 415.908864 432.204605 
L 416.1024 427.278105 
L 416.521728 412.936044 
L 416.9088 387.81916 
L 417.102336 387.686225 
L 417.682944 387.715304 
L 418.166784 387.673762 
L 418.940928 387.68207 
L 495.968256 387.698687 
L 496.000512 387.839931 
L 496.065024 387.648836 
L 496.355328 387.673762 
L 576.608256 387.698687 
L 576.640512 387.839931 
L 576.705024 387.648836 
L 576.995328 387.673762 
L 602.445312 387.748538 
L 603.412992 389.036349 
L 604.703232 391.05115 
L 610.348032 400.717626 
L 610.960896 402.266322 
L 611.2512 403.298648 
L 611.283456 403.208502 
L 611.347968 403.258768 
L 614.444544 418.017082 
L 614.767104 419.636401 
L 614.79936 419.011189 
L 614.863872 419.491418 
L 615.025152 420.867714 
L 615.250944 421.83648 
L 615.315456 421.755888 
L 615.412224 422.078256 
L 615.573504 423.69716 
L 617.283072 431.957429 
L 617.37984 432.264426 
L 617.895936 434.473438 
L 617.928192 433.947969 
L 617.960448 434.633251 
L 618.283008 436.081207 
L 618.476544 436.785432 
L 618.5088 436.419694 
L 618.573312 436.79748 
L 618.702336 437.629746 
L 618.895872 438.608723 
L 619.024896 439.134441 
L 619.089408 439.054929 
L 619.121664 439.090157 
L 619.282944 439.818726 
L 619.3152 439.67042 
L 619.347456 439.861805 
L 619.863552 442.195942 
L 619.895808 442.024788 
L 619.96032 442.154399 
L 620.024832 442.251608 
L 620.960256 445.096009 
L 621.25056 445.452442 
L 621.669888 446.230114 
L 621.7344 446.389221 
L 621.89568 447.186833 
L 625.056768 454.594654 
L 625.347072 455.173338 
L 625.379328 455.467873 
L 625.476096 455.435885 
L 625.572864 455.746622 
L 625.701888 455.963888 
L 625.7664 456.126734 
L 625.863168 456.50643 
L 625.895424 456.371833 
L 626.347008 457.541664 
L 628.217856 461.155428 
L 628.443648 461.017092 
L 629.733888 458.659152 
L 630.217728 457.707418 
L 630.28224 457.023216 
L 630.346752 457.078468 
L 630.508032 457.332706 
L 630.733824 456.843754 
L 631.153152 456.175338 
L 631.185408 456.242637 
L 631.217664 456.061512 
L 632.86272 454.056681 
L 632.991744 453.859771 
L 633.024 454.019709 
L 633.056256 453.773363 
L 633.088512 453.912114 
L 633.249792 453.523278 
L 633.314304 453.471766 
L 633.378816 453.371649 
L 633.411072 453.598885 
L 633.475584 453.431885 
L 633.636864 453.060913 
L 633.701376 453.234975 
L 633.8304 452.860679 
L 634.15296 452.480151 
L 634.185216 452.689109 
L 634.249728 452.388343 
L 634.281984 452.596054 
L 634.443264 452.214281 
L 635.346432 451.277917 
L 635.862528 450.547604 
L 635.894784 450.696325 
L 635.92704 450.656445 
L 636.056064 450.331169 
L 636.378624 449.951472 
L 636.959232 449.409345 
L 636.991488 449.635751 
L 637.088256 449.535218 
L 637.346304 449.162584 
L 637.636608 448.989353 
L 638.120448 448.362479 
L 638.281728 448.02391 
L 638.539776 447.619288 
L 638.765568 447.353417 
L 638.83008 447.676201 
L 638.959104 447.143629 
L 638.99136 447.112887 
L 639.055872 447.026895 
L 639.088128 447.348017 
L 639.184896 446.941318 
L 639.217152 446.946718 
L 639.378432 446.740253 
L 639.862272 446.390467 
L 639.894528 446.575746 
L 639.95904 446.381743 
L 639.991296 446.471059 
L 640.023552 446.327323 
L 640.92672 445.569176 
L 641.636352 444.838862 
L 641.668608 444.812275 
L 641.797632 444.204927 
L 641.829888 444.62492 
L 641.926656 444.472044 
L 641.958912 444.032942 
L 642.05568 444.142198 
L 642.120192 444.275549 
L 642.249216 443.820661 
L 642.829824 443.455089 
L 642.894336 443.622089 
L 642.926592 443.408977 
L 643.216896 443.360788 
L 644.184576 442.463059 
L 644.378112 442.103302 
L 644.539392 441.578042 
L 644.700672 441.404187 
L 644.732928 441.798382 
L 644.79744 441.304943 
L 644.861952 441.221401 
L 644.894208 441.713636 
L 644.95872 441.05411 
L 644.990976 441.094697 
L 645.023232 441.595406 
L 645.055488 440.99699 
L 645.12 441.370538 
L 645.184512 440.928113 
L 645.249024 441.073843 
L 645.345792 440.741422 
L 645.378048 440.762608 
L 645.410304 441.229211 
L 645.44256 440.68293 
L 645.474816 440.694105 
L 645.60384 440.66166 
L 645.636096 440.653186 
L 645.668352 440.820975 
L 645.732864 440.671506 
L 645.797376 440.624314 
L 645.9264 440.467741 
L 646.313472 440.367998 
L 647.5392 439.100418 
L 647.797248 438.710959 
L 647.894016 438.079142 
L 647.958528 438.335251 
L 647.990784 438.266623 
L 648.02304 437.683506 
L 648.087552 438.020526 
L 648.119808 438.190933 
L 648.152064 437.907041 
L 648.18432 437.916799 
L 648.377856 437.554277 
L 648.50688 437.516004 
L 649.506816 435.676669 
L 649.63584 434.852137 
L 649.668096 434.881757 
L 649.700352 435.248035 
L 649.764864 435.049837 
L 649.893888 434.780643 
L 649.926144 434.863395 
L 649.990656 434.751148 
L 650.44224 433.859567 
L 650.829312 433.066192 
L 650.958336 432.104488 
L 650.990592 432.183834 
L 651.022848 432.74424 
L 651.08736 432.36662 
L 651.151872 431.951197 
L 651.216384 432.001464 
L 651.24864 432.17968 
L 651.313152 432.047991 
L 652.21632 430.284936 
L 656.24832 421.968169 
L 656.538624 421.342543 
L 656.73216 421.052993 
L 656.796672 420.782968 
L 656.828928 420.436505 
L 656.925696 420.592704 
L 657.022464 420.456861 
L 658.18368 418.22147 
L 658.215936 417.412642 
L 658.312704 417.496557 
L 658.538496 417.522313 
L 659.860992 415.086689 
L 659.893248 414.568241 
L 659.990016 414.73441 
L 660.086784 414.636786 
L 660.409344 413.985818 
L 660.957696 413.217701 
L 661.215744 412.949753 
L 661.40928 412.929398 
L 661.538304 413.155803 
L 661.635072 413.64351 
L 661.73184 416.183405 
L 661.89312 431.240409 
L 662.022144 436.878404 
L 662.0544 436.840476 
L 662.086656 436.802506 
L 662.151168 436.880689 
L 664.79616 437.059154 
L 666.957312 437.023719 
L 667.634688 436.410347 
L 668.441088 436.022591 
L 669.441024 435.797473 
L 670.989312 435.702757 
L 674.376192 435.787462 
L 687.826944 436.144892 
L 691.0848 436.212938 
L 692.762112 436.362407 
L 693.439488 437.006105 
L 694.245888 437.433305 
L 695.213568 437.695861 
L 696.665088 437.856717 
L 699.63264 437.92087 
L 711.631872 437.856289 
L 713.051136 437.962076 
L 715.76064 438.015333 
L 737.888256 437.832227 
L 737.920512 438.189396 
L 738.210816 430.488078 
L 738.436608 429.003772 
L 738.597888 426.129876 
L 738.759168 417.499465 
L 738.952704 392.82916 
L 739.14624 377.059706 
L 739.275264 376.926771 
L 741.0816 377.508363 
L 741.371904 377.616373 
L 742.662144 378.002716 
L 743.275008 378.181348 
L 743.791104 378.322592 
L 744.758784 378.588463 
L 745.145856 378.696473 
L 746.113536 378.962343 
L 746.500608 379.070353 
L 747.37152 379.294682 
L 747.758592 379.402692 
L 748.532736 379.585478 
L 748.919808 379.693488 
L 749.693952 379.876274 
L 750.177792 379.984284 
L 750.951936 380.16707 
L 751.435776 380.27508 
L 752.20992 380.457866 
L 752.69376 380.565876 
L 753.33888 380.70712 
L 753.854976 380.81513 
L 754.500096 380.956373 
L 755.016192 381.064383 
L 755.661312 381.205627 
L 756.177408 381.313637 
L 756.72576 381.413339 
L 757.241856 381.521349 
L 757.790208 381.62105 
L 758.403072 381.72906 
L 758.951424 381.828762 
L 759.46752 381.936771 
L 760.015872 382.036473 
L 760.628736 382.144483 
L 761.177088 382.244184 
L 761.88672 382.34804 
L 762.241536 382.410354 
L 762.8544 382.514209 
L 763.209216 382.576523 
L 763.918848 382.680378 
L 764.273664 382.742692 
L 764.983296 382.850702 
L 765.43488 382.908861 
L 766.047744 383.012717 
L 766.40256 383.07503 
L 767.20896 383.178886 
L 767.563776 383.241199 
L 768.466944 383.345055 
L 768.82176 383.407369 
L 769.62816 383.511224 
L 769.886208 383.531995 
L 770.59584 383.635851 
L 770.853888 383.656622 
L 771.660288 383.760478 
L 772.015104 383.822791 
L 773.01504 383.926647 
L 773.369856 383.988961 
L 774.369792 384.092816 
L 774.62784 384.113588 
L 775.531008 384.217443 
L 775.789056 384.238214 
L 776.692224 384.34207 
L 776.950272 384.362841 
L 777.85344 384.466697 
L 778.111488 384.487468 
L 779.111424 384.591324 
L 779.369472 384.612095 
L 780.369408 384.715951 
L 780.627456 384.736722 
L 781.72416 384.840578 
L 781.982208 384.861349 
L 783.17568 384.965204 
L 783.433728 384.985976 
L 784.6272 385.089831 
L 784.885248 385.110603 
L 786.175488 385.214458 
L 786.433536 385.235229 
L 787.820544 385.339085 
L 788.078592 385.359856 
L 789.562368 385.463712 
L 789.820416 385.484483 
L 791.304192 385.588339 
L 791.56224 385.604956 
L 793.239552 385.712966 
L 793.4976 385.733737 
L 795.27168 385.837593 
L 795.529728 385.858364 
L 797.497344 385.962219 
L 797.755392 385.982991 
L 799.819776 386.086846 
L 800.077824 386.107617 
L 802.432512 386.211473 
L 802.755072 386.22809 
L 805.142016 386.3361 
L 805.464576 386.352717 
L 808.238592 386.460727 
L 808.49664 386.477344 
L 811.625472 386.585354 
L 811.88352 386.601971 
L 815.399424 386.709981 
L 815.657472 386.726598 
L 818.528256 386.793065 
L 818.560512 387.046473 
L 818.625024 386.776448 
L 818.81856 386.805528 
L 822.818304 386.905229 
L 823.17312 386.934309 
L 828.366336 387.042319 
L 828.688896 387.058936 
L 835.140096 387.166946 
L 835.462656 387.183563 
L 858.945024 387.287419 
L 859.074048 387.266647 
L 859.525632 387.262493 
L 899.168256 387.262493 
L 899.200512 387.474359 
L 899.265024 387.262493 
L 899.45856 387.241722 
L 900.490752 387.266647 
L 947.52 387.266647 
L 947.52 387.266647 
" clip-path="url(#pff1b586c49)" style="fill: none; stroke: #ff00ff; stroke-width: 2; stroke-linecap: square"/>
   </g>
   <g id="patch_22">
    <path d="M 100.8 465.442759 
L 100.8 372.711724 
" style="fill: none; stroke: #bcbcbc; stroke-width: 0.8; stroke-linejoin: miter; stroke-linecap: square"/>
   </g>
   <g id="patch_23">
    <path d="M 987.84 465.442759 
L 987.84 372.711724 
" style="fill: none; stroke: #bcbcbc; stroke-width: 0.8; stroke-linejoin: miter; stroke-linecap: square"/>
   </g>
   <g id="patch_24">
    <path d="M 100.8 465.442759 
L 987.84 465.442759 
" style="fill: none; stroke: #bcbcbc; stroke-width: 0.8; stroke-linejoin: miter; stroke-linecap: square"/>
   </g>
   <g id="patch_25">
    <path d="M 100.8 372.711724 
L 987.84 372.711724 
" style="fill: none; stroke: #bcbcbc; stroke-width: 0.8; stroke-linejoin: miter; stroke-linecap: square"/>
   </g>
  </g>
  <g id="axes_5">
   <g id="patch_26">
    <path d="M 100.8 576.72 
L 987.84 576.72 
L 987.84 483.988966 
L 100.8 483.988966 
z
" style="fill: #eeeeee"/>
   </g>
   <g id="matplotlib.axis_9">
    <g id="xtick_25">
     <g id="line2d_73">
      <path d="M 141.12 576.72 
L 141.12 483.988966 
" clip-path="url(#pd3f00be761)" style="fill: none; stroke-dasharray: 1.85,0.8; stroke-dashoffset: 0; stroke: #b2b2b2; stroke-width: 0.5"/>
     </g>
     <g id="line2d_74">
      <g>
       <use xlink:href="#m0e562c4184" x="141.12" y="576.72" style="stroke: #000000; stroke-width: 0.8"/>
      </g>
     </g>
     <g id="text_15">
      <!-- 0 s -->
      <g transform="translate(130.795 590.857813) scale(0.14 -0.14)">
       <defs>
        <path id="DejaVuSans-73" d="M 2834 3397 
L 2834 2853 
Q 2591 2978 2328 3040 
Q 2066 3103 1784 3103 
Q 1356 3103 1142 2972 
Q 928 2841 928 2578 
Q 928 2378 1081 2264 
Q 1234 2150 1697 2047 
L 1894 2003 
Q 2506 1872 2764 1633 
Q 3022 1394 3022 966 
Q 3022 478 2636 193 
Q 2250 -91 1575 -91 
Q 1294 -91 989 -36 
Q 684 19 347 128 
L 347 722 
Q 666 556 975 473 
Q 1284 391 1588 391 
Q 1994 391 2212 530 
Q 2431 669 2431 922 
Q 2431 1156 2273 1281 
Q 2116 1406 1581 1522 
L 1381 1569 
Q 847 1681 609 1914 
Q 372 2147 372 2553 
Q 372 3047 722 3315 
Q 1072 3584 1716 3584 
Q 2034 3584 2315 3537 
Q 2597 3491 2834 3397 
z
" transform="scale(0.015625)"/>
       </defs>
       <use xlink:href="#DejaVuSans-30"/>
       <use xlink:href="#DejaVuSans-20" x="63.623047"/>
       <use xlink:href="#DejaVuSans-73" x="95.410156"/>
      </g>
     </g>
    </g>
    <g id="xtick_26">
     <g id="line2d_75">
      <path d="M 302.4 576.72 
L 302.4 483.988966 
" clip-path="url(#pd3f00be761)" style="fill: none; stroke-dasharray: 1.85,0.8; stroke-dashoffset: 0; stroke: #b2b2b2; stroke-width: 0.5"/>
     </g>
     <g id="line2d_76">
      <g>
       <use xlink:href="#m0e562c4184" x="302.4" y="576.72" style="stroke: #000000; stroke-width: 0.8"/>
      </g>
     </g>
     <g id="text_16">
      <!-- 50 ns -->
      <g transform="translate(283.185 590.857813) scale(0.14 -0.14)">
       <defs>
        <path id="DejaVuSans-35" d="M 691 4666 
L 3169 4666 
L 3169 4134 
L 1269 4134 
L 1269 2991 
Q 1406 3038 1543 3061 
Q 1681 3084 1819 3084 
Q 2600 3084 3056 2656 
Q 3513 2228 3513 1497 
Q 3513 744 3044 326 
Q 2575 -91 1722 -91 
Q 1428 -91 1123 -41 
Q 819 9 494 109 
L 494 744 
Q 775 591 1075 516 
Q 1375 441 1709 441 
Q 2250 441 2565 725 
Q 2881 1009 2881 1497 
Q 2881 1984 2565 2268 
Q 2250 2553 1709 2553 
Q 1456 2553 1204 2497 
Q 953 2441 691 2322 
L 691 4666 
z
" transform="scale(0.015625)"/>
        <path id="DejaVuSans-6e" d="M 3513 2113 
L 3513 0 
L 2938 0 
L 2938 2094 
Q 2938 2591 2744 2837 
Q 2550 3084 2163 3084 
Q 1697 3084 1428 2787 
Q 1159 2491 1159 1978 
L 1159 0 
L 581 0 
L 581 3500 
L 1159 3500 
L 1159 2956 
Q 1366 3272 1645 3428 
Q 1925 3584 2291 3584 
Q 2894 3584 3203 3211 
Q 3513 2838 3513 2113 
z
" transform="scale(0.015625)"/>
       </defs>
       <use xlink:href="#DejaVuSans-35"/>
       <use xlink:href="#DejaVuSans-30" x="63.623047"/>
       <use xlink:href="#DejaVuSans-20" x="127.246094"/>
       <use xlink:href="#DejaVuSans-6e" x="159.033203"/>
       <use xlink:href="#DejaVuSans-73" x="222.412109"/>
      </g>
     </g>
    </g>
    <g id="xtick_27">
     <g id="line2d_77">
      <path d="M 463.68 576.72 
L 463.68 483.988966 
" clip-path="url(#pd3f00be761)" style="fill: none; stroke-dasharray: 1.85,0.8; stroke-dashoffset: 0; stroke: #b2b2b2; stroke-width: 0.5"/>
     </g>
     <g id="line2d_78">
      <g>
       <use xlink:href="#m0e562c4184" x="463.68" y="576.72" style="stroke: #000000; stroke-width: 0.8"/>
      </g>
     </g>
     <g id="text_17">
      <!-- 100 ns -->
      <g transform="translate(440.01125 590.857813) scale(0.14 -0.14)">
       <use xlink:href="#DejaVuSans-31"/>
       <use xlink:href="#DejaVuSans-30" x="63.623047"/>
       <use xlink:href="#DejaVuSans-30" x="127.246094"/>
       <use xlink:href="#DejaVuSans-20" x="190.869141"/>
       <use xlink:href="#DejaVuSans-6e" x="222.65625"/>
       <use xlink:href="#DejaVuSans-73" x="286.035156"/>
      </g>
     </g>
    </g>
    <g id="xtick_28">
     <g id="line2d_79">
      <path d="M 624.96 576.72 
L 624.96 483.988966 
" clip-path="url(#pd3f00be761)" style="fill: none; stroke-dasharray: 1.85,0.8; stroke-dashoffset: 0; stroke: #b2b2b2; stroke-width: 0.5"/>
     </g>
     <g id="line2d_80">
      <g>
       <use xlink:href="#m0e562c4184" x="624.96" y="576.72" style="stroke: #000000; stroke-width: 0.8"/>
      </g>
     </g>
     <g id="text_18">
      <!-- 150 ns -->
      <g transform="translate(601.29125 590.857813) scale(0.14 -0.14)">
       <use xlink:href="#DejaVuSans-31"/>
       <use xlink:href="#DejaVuSans-35" x="63.623047"/>
       <use xlink:href="#DejaVuSans-30" x="127.246094"/>
       <use xlink:href="#DejaVuSans-20" x="190.869141"/>
       <use xlink:href="#DejaVuSans-6e" x="222.65625"/>
       <use xlink:href="#DejaVuSans-73" x="286.035156"/>
      </g>
     </g>
    </g>
    <g id="xtick_29">
     <g id="line2d_81">
      <path d="M 786.24 576.72 
L 786.24 483.988966 
" clip-path="url(#pd3f00be761)" style="fill: none; stroke-dasharray: 1.85,0.8; stroke-dashoffset: 0; stroke: #b2b2b2; stroke-width: 0.5"/>
     </g>
     <g id="line2d_82">
      <g>
       <use xlink:href="#m0e562c4184" x="786.24" y="576.72" style="stroke: #000000; stroke-width: 0.8"/>
      </g>
     </g>
     <g id="text_19">
      <!-- 200 ns -->
      <g transform="translate(762.57125 590.857813) scale(0.14 -0.14)">
       <use xlink:href="#DejaVuSans-32"/>
       <use xlink:href="#DejaVuSans-30" x="63.623047"/>
       <use xlink:href="#DejaVuSans-30" x="127.246094"/>
       <use xlink:href="#DejaVuSans-20" x="190.869141"/>
       <use xlink:href="#DejaVuSans-6e" x="222.65625"/>
       <use xlink:href="#DejaVuSans-73" x="286.035156"/>
      </g>
     </g>
    </g>
    <g id="xtick_30">
     <g id="line2d_83">
      <path d="M 947.52 576.72 
L 947.52 483.988966 
" clip-path="url(#pd3f00be761)" style="fill: none; stroke-dasharray: 1.85,0.8; stroke-dashoffset: 0; stroke: #b2b2b2; stroke-width: 0.5"/>
     </g>
     <g id="line2d_84">
      <g>
       <use xlink:href="#m0e562c4184" x="947.52" y="576.72" style="stroke: #000000; stroke-width: 0.8"/>
      </g>
     </g>
     <g id="text_20">
      <!-- 250 ns -->
      <g transform="translate(923.85125 590.857813) scale(0.14 -0.14)">
       <use xlink:href="#DejaVuSans-32"/>
       <use xlink:href="#DejaVuSans-35" x="63.623047"/>
       <use xlink:href="#DejaVuSans-30" x="127.246094"/>
       <use xlink:href="#DejaVuSans-20" x="190.869141"/>
       <use xlink:href="#DejaVuSans-6e" x="222.65625"/>
       <use xlink:href="#DejaVuSans-73" x="286.035156"/>
      </g>
     </g>
    </g>
    <g id="text_21">
     <!-- Time -->
     <g transform="translate(527.192969 608.407187) scale(0.14 -0.14)">
      <defs>
       <path id="DejaVuSans-69" d="M 603 3500 
L 1178 3500 
L 1178 0 
L 603 0 
L 603 3500 
z
M 603 4863 
L 1178 4863 
L 1178 4134 
L 603 4134 
L 603 4863 
z
" transform="scale(0.015625)"/>
       <path id="DejaVuSans-6d" d="M 3328 2828 
Q 3544 3216 3844 3400 
Q 4144 3584 4550 3584 
Q 5097 3584 5394 3201 
Q 5691 2819 5691 2113 
L 5691 0 
L 5113 0 
L 5113 2094 
Q 5113 2597 4934 2840 
Q 4756 3084 4391 3084 
Q 3944 3084 3684 2787 
Q 3425 2491 3425 1978 
L 3425 0 
L 2847 0 
L 2847 2094 
Q 2847 2600 2669 2842 
Q 2491 3084 2119 3084 
Q 1678 3084 1418 2786 
Q 1159 2488 1159 1978 
L 1159 0 
L 581 0 
L 581 3500 
L 1159 3500 
L 1159 2956 
Q 1356 3278 1631 3431 
Q 1906 3584 2284 3584 
Q 2666 3584 2933 3390 
Q 3200 3197 3328 2828 
z
" transform="scale(0.015625)"/>
       <path id="DejaVuSans-65" d="M 3597 1894 
L 3597 1613 
L 953 1613 
Q 991 1019 1311 708 
Q 1631 397 2203 397 
Q 2534 397 2845 478 
Q 3156 559 3463 722 
L 3463 178 
Q 3153 47 2828 -22 
Q 2503 -91 2169 -91 
Q 1331 -91 842 396 
Q 353 884 353 1716 
Q 353 2575 817 3079 
Q 1281 3584 2069 3584 
Q 2775 3584 3186 3129 
Q 3597 2675 3597 1894 
z
M 3022 2063 
Q 3016 2534 2758 2815 
Q 2500 3097 2075 3097 
Q 1594 3097 1305 2825 
Q 1016 2553 972 2059 
L 3022 2063 
z
" transform="scale(0.015625)"/>
      </defs>
      <use xlink:href="#DejaVuSans-54"/>
      <use xlink:href="#DejaVuSans-69" x="57.958984"/>
      <use xlink:href="#DejaVuSans-6d" x="85.742188"/>
      <use xlink:href="#DejaVuSans-65" x="183.154297"/>
     </g>
    </g>
   </g>
   <g id="matplotlib.axis_10">
    <g id="ytick_11">
     <g id="line2d_85">
      <path d="M 100.8 569.745885 
L 987.84 569.745885 
" clip-path="url(#pd3f00be761)" style="fill: none; stroke-dasharray: 1.85,0.8; stroke-dashoffset: 0; stroke: #b2b2b2; stroke-width: 0.5"/>
     </g>
     <g id="line2d_86">
      <g>
       <use xlink:href="#mde17fbe64d" x="100.8" y="569.745885" style="stroke: #000000; stroke-width: 0.8"/>
      </g>
     </g>
     <g id="text_22">
      <!-- 0 V -->
      <g transform="translate(74.36625 575.064792) scale(0.14 -0.14)">
       <use xlink:href="#DejaVuSans-30"/>
       <use xlink:href="#DejaVuSans-20" x="63.623047"/>
       <use xlink:href="#DejaVuSans-56" x="95.410156"/>
      </g>
     </g>
    </g>
    <g id="ytick_12">
     <g id="line2d_87">
      <path d="M 100.8 535.950348 
L 987.84 535.950348 
" clip-path="url(#pd3f00be761)" style="fill: none; stroke-dasharray: 1.85,0.8; stroke-dashoffset: 0; stroke: #b2b2b2; stroke-width: 0.5"/>
     </g>
     <g id="line2d_88">
      <g>
       <use xlink:href="#mde17fbe64d" x="100.8" y="535.950348" style="stroke: #000000; stroke-width: 0.8"/>
      </g>
     </g>
     <g id="text_23">
      <!-- 500 mV -->
      <g transform="translate(42.914375 541.269254) scale(0.14 -0.14)">
       <use xlink:href="#DejaVuSans-35"/>
       <use xlink:href="#DejaVuSans-30" x="63.623047"/>
       <use xlink:href="#DejaVuSans-30" x="127.246094"/>
       <use xlink:href="#DejaVuSans-20" x="190.869141"/>
       <use xlink:href="#DejaVuSans-6d" x="222.65625"/>
       <use xlink:href="#DejaVuSans-56" x="320.068359"/>
      </g>
     </g>
    </g>
    <g id="ytick_13">
     <g id="line2d_89">
      <path d="M 100.8 502.15481 
L 987.84 502.15481 
" clip-path="url(#pd3f00be761)" style="fill: none; stroke-dasharray: 1.85,0.8; stroke-dashoffset: 0; stroke: #b2b2b2; stroke-width: 0.5"/>
     </g>
     <g id="line2d_90">
      <g>
       <use xlink:href="#mde17fbe64d" x="100.8" y="502.15481" style="stroke: #000000; stroke-width: 0.8"/>
      </g>
     </g>
     <g id="text_24">
      <!-- 1 V -->
      <g transform="translate(74.36625 507.473717) scale(0.14 -0.14)">
       <use xlink:href="#DejaVuSans-31"/>
       <use xlink:href="#DejaVuSans-20" x="63.623047"/>
       <use xlink:href="#DejaVuSans-56" x="95.410156"/>
      </g>
     </g>
    </g>
    <g id="text_25">
     <g id="patch_27">
      <path d="M 34.8768 554.329483 
L 34.8768 506.379483 
L 11.247425 506.379483 
L 11.247425 554.329483 
z
" style="fill: #ffff00; opacity: 0.2; stroke: #eeeeee; stroke-width: 0.5; stroke-linejoin: miter"/>
     </g>
     <!-- FOUT -->
     <g transform="translate(26.925238 549.289483) rotate(-90) scale(0.14 -0.14)">
      <use xlink:href="#DejaVuSans-46"/>
      <use xlink:href="#DejaVuSans-4f" x="57.519531"/>
      <use xlink:href="#DejaVuSans-55" x="136.230469"/>
      <use xlink:href="#DejaVuSans-54" x="209.423828"/>
     </g>
    </g>
   </g>
   <g id="line2d_91">
    <path d="M 141.12 488.636595 
L 173.472768 488.643355 
L 173.505024 488.44734 
L 173.569536 526.789729 
L 173.69856 572.504953 
L 173.730816 572.3695 
L 173.827584 567.842115 
L 173.892096 569.3609 
L 174.053376 570.064192 
L 174.117888 569.946665 
L 174.408192 569.492054 
L 174.440448 569.54151 
L 174.66624 569.729954 
L 176.182272 569.740151 
L 180.117504 569.761449 
L 193.568256 569.752159 
L 212.954112 569.74401 
L 255.30624 569.743704 
L 255.6288 488.52845 
L 255.854592 488.670391 
L 256.209408 488.629836 
L 334.849536 488.650114 
L 334.881792 492.854278 
L 335.043072 572.18376 
L 335.107584 570.261206 
L 335.172096 568.338639 
L 335.236608 568.870108 
L 335.365632 570.783003 
L 335.430144 570.410083 
L 335.591424 569.797213 
L 335.881728 569.648439 
L 336.559104 569.817924 
L 337.107456 569.746143 
L 350.009856 569.744206 
L 416.489472 569.74333 
L 416.553984 567.480841 
L 416.812032 488.204013 
L 416.844288 488.339195 
L 416.973312 488.852887 
L 417.037824 488.778537 
L 417.39264 488.548727 
L 417.844224 488.717705 
L 418.457088 488.562245 
L 419.328 488.636595 
L 613.767168 488.596041 
L 613.83168 488.339195 
L 613.863936 489.238156 
L 613.928448 522.618684 
L 614.057472 569.961825 
L 614.089728 569.76576 
L 614.31552 569.745464 
L 616.315392 569.744164 
L 660.28032 569.84667 
L 660.344832 568.475038 
L 660.4416 528.869507 
L 660.60288 489.048901 
L 660.731904 488.643355 
L 661.699584 488.643355 
L 661.796352 512.601687 
L 661.957632 569.746691 
L 663.473664 569.744425 
L 738.82368 569.727782 
L 738.888192 565.236479 
L 739.081728 488.994828 
L 739.243008 488.636595 
L 947.52 488.636595 
L 947.52 488.636595 
" clip-path="url(#pd3f00be761)" style="fill: none; stroke: #ff00ff; stroke-width: 2; stroke-linecap: square"/>
   </g>
   <g id="patch_28">
    <path d="M 100.8 576.72 
L 100.8 483.988966 
" style="fill: none; stroke: #bcbcbc; stroke-width: 0.8; stroke-linejoin: miter; stroke-linecap: square"/>
   </g>
   <g id="patch_29">
    <path d="M 987.84 576.72 
L 987.84 483.988966 
" style="fill: none; stroke: #bcbcbc; stroke-width: 0.8; stroke-linejoin: miter; stroke-linecap: square"/>
   </g>
   <g id="patch_30">
    <path d="M 100.8 576.72 
L 987.84 576.72 
" style="fill: none; stroke: #bcbcbc; stroke-width: 0.8; stroke-linejoin: miter; stroke-linecap: square"/>
   </g>
   <g id="patch_31">
    <path d="M 100.8 483.988966 
L 987.84 483.988966 
" style="fill: none; stroke: #bcbcbc; stroke-width: 0.8; stroke-linejoin: miter; stroke-linecap: square"/>
   </g>
  </g>
  <g id="axes_6">
   <g id="patch_32">
    <path d="M 201.6 628.56 
L 856.8 628.56 
L 856.8 615.6 
L 201.6 615.6 
z
" clip-path="url(#p80a517c136)" style="fill: #d3d3d3"/>
   </g>
   <g id="patch_33">
    <path d="M 201.6 628.56 
L 795.96 628.56 
L 795.96 615.6 
L 201.6 615.6 
z
" clip-path="url(#p80a517c136)" style="fill: #0000ff"/>
   </g>
   <g id="line2d_92">
    <path d="M 201.6 635.04 
L 201.6 609.12 
" clip-path="url(#pae9a0d6083)" style="fill: none; stroke: #ff0000; stroke-linecap: square"/>
   </g>
   <g id="line2d_93">
    <defs>
     <path id="mdd7582ec33" d="M 0 5 
C 1.326016 5 2.597899 4.473168 3.535534 3.535534 
C 4.473168 2.597899 5 1.326016 5 0 
C 5 -1.326016 4.473168 -2.597899 3.535534 -3.535534 
C 2.597899 -4.473168 1.326016 -5 0 -5 
C -1.326016 -5 -2.597899 -4.473168 -3.535534 -3.535534 
C -4.473168 -2.597899 -5 -1.326016 -5 0 
C -5 1.326016 -4.473168 2.597899 -3.535534 3.535534 
C -2.597899 4.473168 -1.326016 5 0 5 
z
" style="stroke: #bfbfbf"/>
    </defs>
    <g>
     <use xlink:href="#mdd7582ec33" x="795.96" y="622.08" style="fill: #ffffff; stroke: #bfbfbf"/>
    </g>
   </g>
   <g id="text_26">
    <!-- #Sweep -->
    <g transform="translate(138.622875 625.39125) scale(0.12 -0.12)">
     <defs>
      <path id="DejaVuSans-23" d="M 3272 2816 
L 2363 2816 
L 2100 1772 
L 3016 1772 
L 3272 2816 
z
M 2803 4594 
L 2478 3297 
L 3391 3297 
L 3719 4594 
L 4219 4594 
L 3897 3297 
L 4872 3297 
L 4872 2816 
L 3775 2816 
L 3519 1772 
L 4513 1772 
L 4513 1294 
L 3397 1294 
L 3072 0 
L 2572 0 
L 2894 1294 
L 1978 1294 
L 1656 0 
L 1153 0 
L 1478 1294 
L 494 1294 
L 494 1772 
L 1594 1772 
L 1856 2816 
L 850 2816 
L 850 3297 
L 1978 3297 
L 2297 4594 
L 2803 4594 
z
" transform="scale(0.015625)"/>
      <path id="DejaVuSans-77" d="M 269 3500 
L 844 3500 
L 1563 769 
L 2278 3500 
L 2956 3500 
L 3675 769 
L 4391 3500 
L 4966 3500 
L 4050 0 
L 3372 0 
L 2619 2869 
L 1863 0 
L 1184 0 
L 269 3500 
z
" transform="scale(0.015625)"/>
      <path id="DejaVuSans-70" d="M 1159 525 
L 1159 -1331 
L 581 -1331 
L 581 3500 
L 1159 3500 
L 1159 2969 
Q 1341 3281 1617 3432 
Q 1894 3584 2278 3584 
Q 2916 3584 3314 3078 
Q 3713 2572 3713 1747 
Q 3713 922 3314 415 
Q 2916 -91 2278 -91 
Q 1894 -91 1617 61 
Q 1341 213 1159 525 
z
M 3116 1747 
Q 3116 2381 2855 2742 
Q 2594 3103 2138 3103 
Q 1681 3103 1420 2742 
Q 1159 2381 1159 1747 
Q 1159 1113 1420 752 
Q 1681 391 2138 391 
Q 2594 391 2855 752 
Q 3116 1113 3116 1747 
z
" transform="scale(0.015625)"/>
     </defs>
     <use xlink:href="#DejaVuSans-23"/>
     <use xlink:href="#DejaVuSans-53" x="83.789062"/>
     <use xlink:href="#DejaVuSans-77" x="147.265625"/>
     <use xlink:href="#DejaVuSans-65" x="229.052734"/>
     <use xlink:href="#DejaVuSans-65" x="290.576172"/>
     <use xlink:href="#DejaVuSans-70" x="352.099609"/>
    </g>
   </g>
   <g id="text_27">
    <!-- $\mathdefault{127}$ -->
    <g transform="translate(869.904 625.39125) scale(0.12 -0.12)">
     <defs>
      <path id="DejaVuSans-37" d="M 525 4666 
L 3525 4666 
L 3525 4397 
L 1831 0 
L 1172 0 
L 2766 4134 
L 525 4134 
L 525 4666 
z
" transform="scale(0.015625)"/>
     </defs>
     <use xlink:href="#DejaVuSans-31" transform="translate(0 0.78125)"/>
     <use xlink:href="#DejaVuSans-32" transform="translate(63.623047 0.78125)"/>
     <use xlink:href="#DejaVuSans-37" transform="translate(127.246094 0.78125)"/>
    </g>
   </g>
  </g>
  <g id="text_28">
   <!-- DFF under BBI sweep analysis (Sweep = 137E-9) -->
   <g transform="translate(308.25625 25.1175) scale(0.16 -0.16)">
    <defs>
     <path id="DejaVuSans-75" d="M 544 1381 
L 544 3500 
L 1119 3500 
L 1119 1403 
Q 1119 906 1312 657 
Q 1506 409 1894 409 
Q 2359 409 2629 706 
Q 2900 1003 2900 1516 
L 2900 3500 
L 3475 3500 
L 3475 0 
L 2900 0 
L 2900 538 
Q 2691 219 2414 64 
Q 2138 -91 1772 -91 
Q 1169 -91 856 284 
Q 544 659 544 1381 
z
M 1991 3584 
L 1991 3584 
z
" transform="scale(0.015625)"/>
     <path id="DejaVuSans-64" d="M 2906 2969 
L 2906 4863 
L 3481 4863 
L 3481 0 
L 2906 0 
L 2906 525 
Q 2725 213 2448 61 
Q 2172 -91 1784 -91 
Q 1150 -91 751 415 
Q 353 922 353 1747 
Q 353 2572 751 3078 
Q 1150 3584 1784 3584 
Q 2172 3584 2448 3432 
Q 2725 3281 2906 2969 
z
M 947 1747 
Q 947 1113 1208 752 
Q 1469 391 1925 391 
Q 2381 391 2643 752 
Q 2906 1113 2906 1747 
Q 2906 2381 2643 2742 
Q 2381 3103 1925 3103 
Q 1469 3103 1208 2742 
Q 947 2381 947 1747 
z
" transform="scale(0.015625)"/>
     <path id="DejaVuSans-72" d="M 2631 2963 
Q 2534 3019 2420 3045 
Q 2306 3072 2169 3072 
Q 1681 3072 1420 2755 
Q 1159 2438 1159 1844 
L 1159 0 
L 581 0 
L 581 3500 
L 1159 3500 
L 1159 2956 
Q 1341 3275 1631 3429 
Q 1922 3584 2338 3584 
Q 2397 3584 2469 3576 
Q 2541 3569 2628 3553 
L 2631 2963 
z
" transform="scale(0.015625)"/>
     <path id="DejaVuSans-61" d="M 2194 1759 
Q 1497 1759 1228 1600 
Q 959 1441 959 1056 
Q 959 750 1161 570 
Q 1363 391 1709 391 
Q 2188 391 2477 730 
Q 2766 1069 2766 1631 
L 2766 1759 
L 2194 1759 
z
M 3341 1997 
L 3341 0 
L 2766 0 
L 2766 531 
Q 2569 213 2275 61 
Q 1981 -91 1556 -91 
Q 1019 -91 701 211 
Q 384 513 384 1019 
Q 384 1609 779 1909 
Q 1175 2209 1959 2209 
L 2766 2209 
L 2766 2266 
Q 2766 2663 2505 2880 
Q 2244 3097 1772 3097 
Q 1472 3097 1187 3025 
Q 903 2953 641 2809 
L 641 3341 
Q 956 3463 1253 3523 
Q 1550 3584 1831 3584 
Q 2591 3584 2966 3190 
Q 3341 2797 3341 1997 
z
" transform="scale(0.015625)"/>
     <path id="DejaVuSans-6c" d="M 603 4863 
L 1178 4863 
L 1178 0 
L 603 0 
L 603 4863 
z
" transform="scale(0.015625)"/>
     <path id="DejaVuSans-79" d="M 2059 -325 
Q 1816 -950 1584 -1140 
Q 1353 -1331 966 -1331 
L 506 -1331 
L 506 -850 
L 844 -850 
Q 1081 -850 1212 -737 
Q 1344 -625 1503 -206 
L 1606 56 
L 191 3500 
L 800 3500 
L 1894 763 
L 2988 3500 
L 3597 3500 
L 2059 -325 
z
" transform="scale(0.015625)"/>
     <path id="DejaVuSans-28" d="M 1984 4856 
Q 1566 4138 1362 3434 
Q 1159 2731 1159 2009 
Q 1159 1288 1364 580 
Q 1569 -128 1984 -844 
L 1484 -844 
Q 1016 -109 783 600 
Q 550 1309 550 2009 
Q 550 2706 781 3412 
Q 1013 4119 1484 4856 
L 1984 4856 
z
" transform="scale(0.015625)"/>
     <path id="DejaVuSans-3d" d="M 678 2906 
L 4684 2906 
L 4684 2381 
L 678 2381 
L 678 2906 
z
M 678 1631 
L 4684 1631 
L 4684 1100 
L 678 1100 
L 678 1631 
z
" transform="scale(0.015625)"/>
     <path id="DejaVuSans-33" d="M 2597 2516 
Q 3050 2419 3304 2112 
Q 3559 1806 3559 1356 
Q 3559 666 3084 287 
Q 2609 -91 1734 -91 
Q 1441 -91 1130 -33 
Q 819 25 488 141 
L 488 750 
Q 750 597 1062 519 
Q 1375 441 1716 441 
Q 2309 441 2620 675 
Q 2931 909 2931 1356 
Q 2931 1769 2642 2001 
Q 2353 2234 1838 2234 
L 1294 2234 
L 1294 2753 
L 1863 2753 
Q 2328 2753 2575 2939 
Q 2822 3125 2822 3475 
Q 2822 3834 2567 4026 
Q 2313 4219 1838 4219 
Q 1578 4219 1281 4162 
Q 984 4106 628 3988 
L 628 4550 
Q 988 4650 1302 4700 
Q 1616 4750 1894 4750 
Q 2613 4750 3031 4423 
Q 3450 4097 3450 3541 
Q 3450 3153 3228 2886 
Q 3006 2619 2597 2516 
z
" transform="scale(0.015625)"/>
     <path id="DejaVuSans-2d" d="M 313 2009 
L 1997 2009 
L 1997 1497 
L 313 1497 
L 313 2009 
z
" transform="scale(0.015625)"/>
     <path id="DejaVuSans-39" d="M 703 97 
L 703 672 
Q 941 559 1184 500 
Q 1428 441 1663 441 
Q 2288 441 2617 861 
Q 2947 1281 2994 2138 
Q 2813 1869 2534 1725 
Q 2256 1581 1919 1581 
Q 1219 1581 811 2004 
Q 403 2428 403 3163 
Q 403 3881 828 4315 
Q 1253 4750 1959 4750 
Q 2769 4750 3195 4129 
Q 3622 3509 3622 2328 
Q 3622 1225 3098 567 
Q 2575 -91 1691 -91 
Q 1453 -91 1209 -44 
Q 966 3 703 97 
z
M 1959 2075 
Q 2384 2075 2632 2365 
Q 2881 2656 2881 3163 
Q 2881 3666 2632 3958 
Q 2384 4250 1959 4250 
Q 1534 4250 1286 3958 
Q 1038 3666 1038 3163 
Q 1038 2656 1286 2365 
Q 1534 2075 1959 2075 
z
" transform="scale(0.015625)"/>
     <path id="DejaVuSans-29" d="M 513 4856 
L 1013 4856 
Q 1481 4119 1714 3412 
Q 1947 2706 1947 2009 
Q 1947 1309 1714 600 
Q 1481 -109 1013 -844 
L 513 -844 
Q 928 -128 1133 580 
Q 1338 1288 1338 2009 
Q 1338 2731 1133 3434 
Q 928 4138 513 4856 
z
" transform="scale(0.015625)"/>
    </defs>
    <use xlink:href="#DejaVuSans-44"/>
    <use xlink:href="#DejaVuSans-46" x="77.001953"/>
    <use xlink:href="#DejaVuSans-46" x="134.521484"/>
    <use xlink:href="#DejaVuSans-20" x="192.041016"/>
    <use xlink:href="#DejaVuSans-75" x="223.828125"/>
    <use xlink:href="#DejaVuSans-6e" x="287.207031"/>
    <use xlink:href="#DejaVuSans-64" x="350.585938"/>
    <use xlink:href="#DejaVuSans-65" x="414.0625"/>
    <use xlink:href="#DejaVuSans-72" x="475.585938"/>
    <use xlink:href="#DejaVuSans-20" x="516.699219"/>
    <use xlink:href="#DejaVuSans-42" x="548.486328"/>
    <use xlink:href="#DejaVuSans-42" x="617.089844"/>
    <use xlink:href="#DejaVuSans-49" x="685.693359"/>
    <use xlink:href="#DejaVuSans-20" x="715.185547"/>
    <use xlink:href="#DejaVuSans-73" x="746.972656"/>
    <use xlink:href="#DejaVuSans-77" x="799.072266"/>
    <use xlink:href="#DejaVuSans-65" x="880.859375"/>
    <use xlink:href="#DejaVuSans-65" x="942.382812"/>
    <use xlink:href="#DejaVuSans-70" x="1003.90625"/>
    <use xlink:href="#DejaVuSans-20" x="1067.382812"/>
    <use xlink:href="#DejaVuSans-61" x="1099.169922"/>
    <use xlink:href="#DejaVuSans-6e" x="1160.449219"/>
    <use xlink:href="#DejaVuSans-61" x="1223.828125"/>
    <use xlink:href="#DejaVuSans-6c" x="1285.107422"/>
    <use xlink:href="#DejaVuSans-79" x="1312.890625"/>
    <use xlink:href="#DejaVuSans-73" x="1372.070312"/>
    <use xlink:href="#DejaVuSans-69" x="1424.169922"/>
    <use xlink:href="#DejaVuSans-73" x="1451.953125"/>
    <use xlink:href="#DejaVuSans-20" x="1504.052734"/>
    <use xlink:href="#DejaVuSans-28" x="1535.839844"/>
    <use xlink:href="#DejaVuSans-53" x="1574.853516"/>
    <use xlink:href="#DejaVuSans-77" x="1638.330078"/>
    <use xlink:href="#DejaVuSans-65" x="1720.117188"/>
    <use xlink:href="#DejaVuSans-65" x="1781.640625"/>
    <use xlink:href="#DejaVuSans-70" x="1843.164062"/>
    <use xlink:href="#DejaVuSans-20" x="1906.640625"/>
    <use xlink:href="#DejaVuSans-3d" x="1938.427734"/>
    <use xlink:href="#DejaVuSans-20" x="2022.216797"/>
    <use xlink:href="#DejaVuSans-31" x="2054.003906"/>
    <use xlink:href="#DejaVuSans-33" x="2117.626953"/>
    <use xlink:href="#DejaVuSans-37" x="2181.25"/>
    <use xlink:href="#DejaVuSans-45" x="2244.873047"/>
    <use xlink:href="#DejaVuSans-2d" x="2308.056641"/>
    <use xlink:href="#DejaVuSans-39" x="2344.140625"/>
    <use xlink:href="#DejaVuSans-29" x="2407.763672"/>
   </g>
  </g>
 </g>
 <defs>
  <clipPath id="pd334731ef7">
   <rect x="100.8" y="38.88" width="887.04" height="92.731034"/>
  </clipPath>
  <clipPath id="pa869fb4581">
   <rect x="100.8" y="150.157241" width="887.04" height="92.731034"/>
  </clipPath>
  <clipPath id="pe166636461">
   <rect x="100.8" y="261.434483" width="887.04" height="92.731034"/>
  </clipPath>
  <clipPath id="pff1b586c49">
   <rect x="100.8" y="372.711724" width="887.04" height="92.731034"/>
  </clipPath>
  <clipPath id="pd3f00be761">
   <rect x="100.8" y="483.988966" width="887.04" height="92.731034"/>
  </clipPath>
  <clipPath id="p80a517c136">
   <rect x="201.6" y="609.12" width="655.2" height="25.92"/>
  </clipPath>
  <clipPath id="pae9a0d6083">
   <path d="M 201.6 628.56 
L 856.8 628.56 
L 856.8 615.6 
L 201.6 615.6 
z
"/>
  </clipPath>
 </defs>
</svg>
