<?xml version="1.0" encoding="utf-8" standalone="no"?>
<!DOCTYPE svg PUBLIC "-//W3C//DTD SVG 1.1//EN"
  "http://www.w3.org/Graphics/SVG/1.1/DTD/svg11.dtd">
<svg xmlns:xlink="http://www.w3.org/1999/xlink" width="1008pt" height="648pt" viewBox="0 0 1008 648" xmlns="http://www.w3.org/2000/svg" version="1.1">
 <metadata>
  <rdf:RDF xmlns:dc="http://purl.org/dc/elements/1.1/" xmlns:cc="http://creativecommons.org/ns#" xmlns:rdf="http://www.w3.org/1999/02/22-rdf-syntax-ns#">
   <cc:Work>
    <dc:type rdf:resource="http://purl.org/dc/dcmitype/StillImage"/>
    <dc:date>2024-06-03T10:45:42.177915</dc:date>
    <dc:format>image/svg+xml</dc:format>
    <dc:creator>
     <cc:Agent>
      <dc:title>Matplotlib v3.9.0, https://matplotlib.org/</dc:title>
     </cc:Agent>
    </dc:creator>
   </cc:Work>
  </rdf:RDF>
 </metadata>
 <defs>
  <style type="text/css">*{stroke-linejoin: round; stroke-linecap: butt}</style>
 </defs>
 <g id="figure_1">
  <g id="patch_1">
   <path d="M 0 648 
L 1008 648 
L 1008 0 
L 0 0 
z
" style="fill: #ffffff"/>
  </g>
  <g id="axes_1">
   <g id="patch_2">
    <path d="M 100.8 131.611034 
L 987.84 131.611034 
L 987.84 38.88 
L 100.8 38.88 
z
" style="fill: #eeeeee"/>
   </g>
   <g id="matplotlib.axis_1">
    <g id="xtick_1">
     <g id="line2d_1">
      <path d="M 141.12 131.611034 
L 141.12 38.88 
" clip-path="url(#p7a344f55ad)" style="fill: none; stroke-dasharray: 1.85,0.8; stroke-dashoffset: 0; stroke: #b2b2b2; stroke-width: 0.5"/>
     </g>
     <g id="line2d_2">
      <defs>
       <path id="m50d9b0c9b6" d="M 0 0 
L 0 -3.5 
" style="stroke: #000000; stroke-width: 0.8"/>
      </defs>
      <g>
       <use xlink:href="#m50d9b0c9b6" x="141.12" y="131.611034" style="stroke: #000000; stroke-width: 0.8"/>
      </g>
     </g>
    </g>
    <g id="xtick_2">
     <g id="line2d_3">
      <path d="M 302.4 131.611034 
L 302.4 38.88 
" clip-path="url(#p7a344f55ad)" style="fill: none; stroke-dasharray: 1.85,0.8; stroke-dashoffset: 0; stroke: #b2b2b2; stroke-width: 0.5"/>
     </g>
     <g id="line2d_4">
      <g>
       <use xlink:href="#m50d9b0c9b6" x="302.4" y="131.611034" style="stroke: #000000; stroke-width: 0.8"/>
      </g>
     </g>
    </g>
    <g id="xtick_3">
     <g id="line2d_5">
      <path d="M 463.68 131.611034 
L 463.68 38.88 
" clip-path="url(#p7a344f55ad)" style="fill: none; stroke-dasharray: 1.85,0.8; stroke-dashoffset: 0; stroke: #b2b2b2; stroke-width: 0.5"/>
     </g>
     <g id="line2d_6">
      <g>
       <use xlink:href="#m50d9b0c9b6" x="463.68" y="131.611034" style="stroke: #000000; stroke-width: 0.8"/>
      </g>
     </g>
    </g>
    <g id="xtick_4">
     <g id="line2d_7">
      <path d="M 624.96 131.611034 
L 624.96 38.88 
" clip-path="url(#p7a344f55ad)" style="fill: none; stroke-dasharray: 1.85,0.8; stroke-dashoffset: 0; stroke: #b2b2b2; stroke-width: 0.5"/>
     </g>
     <g id="line2d_8">
      <g>
       <use xlink:href="#m50d9b0c9b6" x="624.96" y="131.611034" style="stroke: #000000; stroke-width: 0.8"/>
      </g>
     </g>
    </g>
    <g id="xtick_5">
     <g id="line2d_9">
      <path d="M 786.24 131.611034 
L 786.24 38.88 
" clip-path="url(#p7a344f55ad)" style="fill: none; stroke-dasharray: 1.85,0.8; stroke-dashoffset: 0; stroke: #b2b2b2; stroke-width: 0.5"/>
     </g>
     <g id="line2d_10">
      <g>
       <use xlink:href="#m50d9b0c9b6" x="786.24" y="131.611034" style="stroke: #000000; stroke-width: 0.8"/>
      </g>
     </g>
    </g>
    <g id="xtick_6">
     <g id="line2d_11">
      <path d="M 947.52 131.611034 
L 947.52 38.88 
" clip-path="url(#p7a344f55ad)" style="fill: none; stroke-dasharray: 1.85,0.8; stroke-dashoffset: 0; stroke: #b2b2b2; stroke-width: 0.5"/>
     </g>
     <g id="line2d_12">
      <g>
       <use xlink:href="#m50d9b0c9b6" x="947.52" y="131.611034" style="stroke: #000000; stroke-width: 0.8"/>
      </g>
     </g>
    </g>
   </g>
   <g id="matplotlib.axis_2">
    <g id="ytick_1">
     <g id="line2d_13">
      <path d="M 100.8 98.340394 
L 987.84 98.340394 
" clip-path="url(#p7a344f55ad)" style="fill: none; stroke-dasharray: 1.85,0.8; stroke-dashoffset: 0; stroke: #b2b2b2; stroke-width: 0.5"/>
     </g>
     <g id="line2d_14">
      <defs>
       <path id="m9e8c4d5fb2" d="M 0 0 
L 3.5 0 
" style="stroke: #000000; stroke-width: 0.8"/>
      </defs>
      <g>
       <use xlink:href="#m9e8c4d5fb2" x="100.8" y="98.340394" style="stroke: #000000; stroke-width: 0.8"/>
      </g>
     </g>
     <g id="text_1">
      <!-- −200 V -->
      <g transform="translate(44.819688 103.6593) scale(0.14 -0.14)">
       <defs>
        <path id="DejaVuSans-2212" d="M 678 2272 
L 4684 2272 
L 4684 1741 
L 678 1741 
L 678 2272 
z
" transform="scale(0.015625)"/>
        <path id="DejaVuSans-32" d="M 1228 531 
L 3431 531 
L 3431 0 
L 469 0 
L 469 531 
Q 828 903 1448 1529 
Q 2069 2156 2228 2338 
Q 2531 2678 2651 2914 
Q 2772 3150 2772 3378 
Q 2772 3750 2511 3984 
Q 2250 4219 1831 4219 
Q 1534 4219 1204 4116 
Q 875 4013 500 3803 
L 500 4441 
Q 881 4594 1212 4672 
Q 1544 4750 1819 4750 
Q 2544 4750 2975 4387 
Q 3406 4025 3406 3419 
Q 3406 3131 3298 2873 
Q 3191 2616 2906 2266 
Q 2828 2175 2409 1742 
Q 1991 1309 1228 531 
z
" transform="scale(0.015625)"/>
        <path id="DejaVuSans-30" d="M 2034 4250 
Q 1547 4250 1301 3770 
Q 1056 3291 1056 2328 
Q 1056 1369 1301 889 
Q 1547 409 2034 409 
Q 2525 409 2770 889 
Q 3016 1369 3016 2328 
Q 3016 3291 2770 3770 
Q 2525 4250 2034 4250 
z
M 2034 4750 
Q 2819 4750 3233 4129 
Q 3647 3509 3647 2328 
Q 3647 1150 3233 529 
Q 2819 -91 2034 -91 
Q 1250 -91 836 529 
Q 422 1150 422 2328 
Q 422 3509 836 4129 
Q 1250 4750 2034 4750 
z
" transform="scale(0.015625)"/>
        <path id="DejaVuSans-20" transform="scale(0.015625)"/>
        <path id="DejaVuSans-56" d="M 1831 0 
L 50 4666 
L 709 4666 
L 2188 738 
L 3669 4666 
L 4325 4666 
L 2547 0 
L 1831 0 
z
" transform="scale(0.015625)"/>
       </defs>
       <use xlink:href="#DejaVuSans-2212"/>
       <use xlink:href="#DejaVuSans-32" x="83.789062"/>
       <use xlink:href="#DejaVuSans-30" x="147.412109"/>
       <use xlink:href="#DejaVuSans-30" x="211.035156"/>
       <use xlink:href="#DejaVuSans-20" x="274.658203"/>
       <use xlink:href="#DejaVuSans-56" x="306.445312"/>
      </g>
     </g>
    </g>
    <g id="ytick_2">
     <g id="line2d_15">
      <path d="M 100.8 45.027377 
L 987.84 45.027377 
" clip-path="url(#p7a344f55ad)" style="fill: none; stroke-dasharray: 1.85,0.8; stroke-dashoffset: 0; stroke: #b2b2b2; stroke-width: 0.5"/>
     </g>
     <g id="line2d_16">
      <g>
       <use xlink:href="#m9e8c4d5fb2" x="100.8" y="45.027377" style="stroke: #000000; stroke-width: 0.8"/>
      </g>
     </g>
     <g id="text_2">
      <!-- 0 V -->
      <g transform="translate(74.36625 50.346284) scale(0.14 -0.14)">
       <use xlink:href="#DejaVuSans-30"/>
       <use xlink:href="#DejaVuSans-20" x="63.623047"/>
       <use xlink:href="#DejaVuSans-56" x="95.410156"/>
      </g>
     </g>
    </g>
    <g id="text_3">
     <g id="patch_3">
      <path d="M 34.8768 131.080205 
L 34.8768 39.41083 
L 11.247425 39.41083 
L 11.247425 131.080205 
z
" style="fill: #ffff00; opacity: 0.2; stroke: #eeeeee; stroke-width: 0.5; stroke-linejoin: miter"/>
     </g>
     <!-- VPULSE BBI -->
     <g transform="translate(26.925238 126.040205) rotate(-90) scale(0.14 -0.14)">
      <defs>
       <path id="DejaVuSans-50" d="M 1259 4147 
L 1259 2394 
L 2053 2394 
Q 2494 2394 2734 2622 
Q 2975 2850 2975 3272 
Q 2975 3691 2734 3919 
Q 2494 4147 2053 4147 
L 1259 4147 
z
M 628 4666 
L 2053 4666 
Q 2838 4666 3239 4311 
Q 3641 3956 3641 3272 
Q 3641 2581 3239 2228 
Q 2838 1875 2053 1875 
L 1259 1875 
L 1259 0 
L 628 0 
L 628 4666 
z
" transform="scale(0.015625)"/>
       <path id="DejaVuSans-55" d="M 556 4666 
L 1191 4666 
L 1191 1831 
Q 1191 1081 1462 751 
Q 1734 422 2344 422 
Q 2950 422 3222 751 
Q 3494 1081 3494 1831 
L 3494 4666 
L 4128 4666 
L 4128 1753 
Q 4128 841 3676 375 
Q 3225 -91 2344 -91 
Q 1459 -91 1007 375 
Q 556 841 556 1753 
L 556 4666 
z
" transform="scale(0.015625)"/>
       <path id="DejaVuSans-4c" d="M 628 4666 
L 1259 4666 
L 1259 531 
L 3531 531 
L 3531 0 
L 628 0 
L 628 4666 
z
" transform="scale(0.015625)"/>
       <path id="DejaVuSans-53" d="M 3425 4513 
L 3425 3897 
Q 3066 4069 2747 4153 
Q 2428 4238 2131 4238 
Q 1616 4238 1336 4038 
Q 1056 3838 1056 3469 
Q 1056 3159 1242 3001 
Q 1428 2844 1947 2747 
L 2328 2669 
Q 3034 2534 3370 2195 
Q 3706 1856 3706 1288 
Q 3706 609 3251 259 
Q 2797 -91 1919 -91 
Q 1588 -91 1214 -16 
Q 841 59 441 206 
L 441 856 
Q 825 641 1194 531 
Q 1563 422 1919 422 
Q 2459 422 2753 634 
Q 3047 847 3047 1241 
Q 3047 1584 2836 1778 
Q 2625 1972 2144 2069 
L 1759 2144 
Q 1053 2284 737 2584 
Q 422 2884 422 3419 
Q 422 4038 858 4394 
Q 1294 4750 2059 4750 
Q 2388 4750 2728 4690 
Q 3069 4631 3425 4513 
z
" transform="scale(0.015625)"/>
       <path id="DejaVuSans-45" d="M 628 4666 
L 3578 4666 
L 3578 4134 
L 1259 4134 
L 1259 2753 
L 3481 2753 
L 3481 2222 
L 1259 2222 
L 1259 531 
L 3634 531 
L 3634 0 
L 628 0 
L 628 4666 
z
" transform="scale(0.015625)"/>
       <path id="DejaVuSans-42" d="M 1259 2228 
L 1259 519 
L 2272 519 
Q 2781 519 3026 730 
Q 3272 941 3272 1375 
Q 3272 1813 3026 2020 
Q 2781 2228 2272 2228 
L 1259 2228 
z
M 1259 4147 
L 1259 2741 
L 2194 2741 
Q 2656 2741 2882 2914 
Q 3109 3088 3109 3444 
Q 3109 3797 2882 3972 
Q 2656 4147 2194 4147 
L 1259 4147 
z
M 628 4666 
L 2241 4666 
Q 2963 4666 3353 4366 
Q 3744 4066 3744 3513 
Q 3744 3084 3544 2831 
Q 3344 2578 2956 2516 
Q 3422 2416 3680 2098 
Q 3938 1781 3938 1306 
Q 3938 681 3513 340 
Q 3088 0 2303 0 
L 628 0 
L 628 4666 
z
" transform="scale(0.015625)"/>
       <path id="DejaVuSans-49" d="M 628 4666 
L 1259 4666 
L 1259 0 
L 628 0 
L 628 4666 
z
" transform="scale(0.015625)"/>
      </defs>
      <use xlink:href="#DejaVuSans-56"/>
      <use xlink:href="#DejaVuSans-50" x="68.408203"/>
      <use xlink:href="#DejaVuSans-55" x="128.710938"/>
      <use xlink:href="#DejaVuSans-4c" x="201.904297"/>
      <use xlink:href="#DejaVuSans-53" x="257.617188"/>
      <use xlink:href="#DejaVuSans-45" x="321.09375"/>
      <use xlink:href="#DejaVuSans-20" x="384.277344"/>
      <use xlink:href="#DejaVuSans-42" x="416.064453"/>
      <use xlink:href="#DejaVuSans-42" x="484.667969"/>
      <use xlink:href="#DejaVuSans-49" x="553.271484"/>
     </g>
    </g>
   </g>
   <g id="line2d_17">
    <path d="M 141.12 45.027377 
L 383.072256 45.136282 
L 383.556096 46.425538 
L 391.781376 69.006772 
L 399.200256 89.863624 
L 400.813056 94.440546 
L 402.619392 99.673219 
L 406.10304 110.807642 
L 407.683584 115.853719 
L 408.941568 119.566971 
L 410.167296 120.153414 
L 411.005952 120.545265 
L 412.038144 121.017085 
L 412.618752 121.272988 
L 413.489664 121.656841 
L 414.070272 121.912744 
L 414.908928 122.269941 
L 416.489472 122.936354 
L 417.134592 123.202919 
L 418.231296 123.629423 
L 418.973184 123.922644 
L 420.069888 124.349149 
L 420.973056 124.677024 
L 421.650432 124.943589 
L 422.456832 125.25547 
L 423.811584 125.804594 
L 426.456576 126.790885 
L 427.06944 127.022796 
L 429.0048 127.395987 
L 447.487488 127.289361 
L 447.71328 126.801547 
L 466.002432 75.087922 
L 469.744128 63.292417 
L 473.453568 51.617666 
L 478.066176 49.3412 
L 483.420672 46.984578 
L 492.129792 43.484472 
L 493.000704 43.268927 
L 507.290112 43.108189 
L 514.096128 43.184799 
L 529.449984 43.746186 
L 557.2224 44.46146 
L 582.86592 44.774399 
L 618.476544 44.945888 
L 666.505728 44.953885 
L 947.52 44.953885 
L 947.52 44.953885 
" clip-path="url(#p7a344f55ad)" style="fill: none; stroke: #ff0000; stroke-width: 2; stroke-linecap: square"/>
   </g>
   <g id="patch_4">
    <path d="M 100.8 131.611034 
L 100.8 38.88 
" style="fill: none; stroke: #bcbcbc; stroke-width: 0.8; stroke-linejoin: miter; stroke-linecap: square"/>
   </g>
   <g id="patch_5">
    <path d="M 987.84 131.611034 
L 987.84 38.88 
" style="fill: none; stroke: #bcbcbc; stroke-width: 0.8; stroke-linejoin: miter; stroke-linecap: square"/>
   </g>
   <g id="patch_6">
    <path d="M 100.8 131.611034 
L 987.84 131.611034 
" style="fill: none; stroke: #bcbcbc; stroke-width: 0.8; stroke-linejoin: miter; stroke-linecap: square"/>
   </g>
   <g id="patch_7">
    <path d="M 100.8 38.88 
L 987.84 38.88 
" style="fill: none; stroke: #bcbcbc; stroke-width: 0.8; stroke-linejoin: miter; stroke-linecap: square"/>
   </g>
  </g>
  <g id="axes_2">
   <g id="patch_8">
    <path d="M 100.8 242.888276 
L 987.84 242.888276 
L 987.84 150.157241 
L 100.8 150.157241 
z
" style="fill: #eeeeee"/>
   </g>
   <g id="matplotlib.axis_3">
    <g id="xtick_7">
     <g id="line2d_18">
      <path d="M 141.12 242.888276 
L 141.12 150.157241 
" clip-path="url(#p57224ba18f)" style="fill: none; stroke-dasharray: 1.85,0.8; stroke-dashoffset: 0; stroke: #b2b2b2; stroke-width: 0.5"/>
     </g>
     <g id="line2d_19">
      <g>
       <use xlink:href="#m50d9b0c9b6" x="141.12" y="242.888276" style="stroke: #000000; stroke-width: 0.8"/>
      </g>
     </g>
    </g>
    <g id="xtick_8">
     <g id="line2d_20">
      <path d="M 302.4 242.888276 
L 302.4 150.157241 
" clip-path="url(#p57224ba18f)" style="fill: none; stroke-dasharray: 1.85,0.8; stroke-dashoffset: 0; stroke: #b2b2b2; stroke-width: 0.5"/>
     </g>
     <g id="line2d_21">
      <g>
       <use xlink:href="#m50d9b0c9b6" x="302.4" y="242.888276" style="stroke: #000000; stroke-width: 0.8"/>
      </g>
     </g>
    </g>
    <g id="xtick_9">
     <g id="line2d_22">
      <path d="M 463.68 242.888276 
L 463.68 150.157241 
" clip-path="url(#p57224ba18f)" style="fill: none; stroke-dasharray: 1.85,0.8; stroke-dashoffset: 0; stroke: #b2b2b2; stroke-width: 0.5"/>
     </g>
     <g id="line2d_23">
      <g>
       <use xlink:href="#m50d9b0c9b6" x="463.68" y="242.888276" style="stroke: #000000; stroke-width: 0.8"/>
      </g>
     </g>
    </g>
    <g id="xtick_10">
     <g id="line2d_24">
      <path d="M 624.96 242.888276 
L 624.96 150.157241 
" clip-path="url(#p57224ba18f)" style="fill: none; stroke-dasharray: 1.85,0.8; stroke-dashoffset: 0; stroke: #b2b2b2; stroke-width: 0.5"/>
     </g>
     <g id="line2d_25">
      <g>
       <use xlink:href="#m50d9b0c9b6" x="624.96" y="242.888276" style="stroke: #000000; stroke-width: 0.8"/>
      </g>
     </g>
    </g>
    <g id="xtick_11">
     <g id="line2d_26">
      <path d="M 786.24 242.888276 
L 786.24 150.157241 
" clip-path="url(#p57224ba18f)" style="fill: none; stroke-dasharray: 1.85,0.8; stroke-dashoffset: 0; stroke: #b2b2b2; stroke-width: 0.5"/>
     </g>
     <g id="line2d_27">
      <g>
       <use xlink:href="#m50d9b0c9b6" x="786.24" y="242.888276" style="stroke: #000000; stroke-width: 0.8"/>
      </g>
     </g>
    </g>
    <g id="xtick_12">
     <g id="line2d_28">
      <path d="M 947.52 242.888276 
L 947.52 150.157241 
" clip-path="url(#p57224ba18f)" style="fill: none; stroke-dasharray: 1.85,0.8; stroke-dashoffset: 0; stroke: #b2b2b2; stroke-width: 0.5"/>
     </g>
     <g id="line2d_29">
      <g>
       <use xlink:href="#m50d9b0c9b6" x="947.52" y="242.888276" style="stroke: #000000; stroke-width: 0.8"/>
      </g>
     </g>
    </g>
   </g>
   <g id="matplotlib.axis_4">
    <g id="ytick_3">
     <g id="line2d_30">
      <path d="M 100.8 219.188869 
L 987.84 219.188869 
" clip-path="url(#p57224ba18f)" style="fill: none; stroke-dasharray: 1.85,0.8; stroke-dashoffset: 0; stroke: #b2b2b2; stroke-width: 0.5"/>
     </g>
     <g id="line2d_31">
      <g>
       <use xlink:href="#m9e8c4d5fb2" x="100.8" y="219.188869" style="stroke: #000000; stroke-width: 0.8"/>
      </g>
     </g>
     <g id="text_4">
      <!-- 0 V -->
      <g transform="translate(74.36625 224.507775) scale(0.14 -0.14)">
       <use xlink:href="#DejaVuSans-30"/>
       <use xlink:href="#DejaVuSans-20" x="63.623047"/>
       <use xlink:href="#DejaVuSans-56" x="95.410156"/>
      </g>
     </g>
    </g>
    <g id="ytick_4">
     <g id="line2d_32">
      <path d="M 100.8 185.23571 
L 987.84 185.23571 
" clip-path="url(#p57224ba18f)" style="fill: none; stroke-dasharray: 1.85,0.8; stroke-dashoffset: 0; stroke: #b2b2b2; stroke-width: 0.5"/>
     </g>
     <g id="line2d_33">
      <g>
       <use xlink:href="#m9e8c4d5fb2" x="100.8" y="185.23571" style="stroke: #000000; stroke-width: 0.8"/>
      </g>
     </g>
     <g id="text_5">
      <!-- 1 V -->
      <g transform="translate(74.36625 190.554616) scale(0.14 -0.14)">
       <defs>
        <path id="DejaVuSans-31" d="M 794 531 
L 1825 531 
L 1825 4091 
L 703 3866 
L 703 4441 
L 1819 4666 
L 2450 4666 
L 2450 531 
L 3481 531 
L 3481 0 
L 794 0 
L 794 531 
z
" transform="scale(0.015625)"/>
       </defs>
       <use xlink:href="#DejaVuSans-31"/>
       <use xlink:href="#DejaVuSans-20" x="63.623047"/>
       <use xlink:href="#DejaVuSans-56" x="95.410156"/>
      </g>
     </g>
    </g>
    <g id="ytick_5">
     <g id="line2d_34">
      <path d="M 100.8 151.282551 
L 987.84 151.282551 
" clip-path="url(#p57224ba18f)" style="fill: none; stroke-dasharray: 1.85,0.8; stroke-dashoffset: 0; stroke: #b2b2b2; stroke-width: 0.5"/>
     </g>
     <g id="line2d_35">
      <g>
       <use xlink:href="#m9e8c4d5fb2" x="100.8" y="151.282551" style="stroke: #000000; stroke-width: 0.8"/>
      </g>
     </g>
     <g id="text_6">
      <!-- 2 V -->
      <g transform="translate(74.36625 156.601457) scale(0.14 -0.14)">
       <use xlink:href="#DejaVuSans-32"/>
       <use xlink:href="#DejaVuSans-20" x="63.623047"/>
       <use xlink:href="#DejaVuSans-56" x="95.410156"/>
      </g>
     </g>
    </g>
    <g id="text_7">
     <g id="patch_9">
      <path d="M 34.8768 224.531509 
L 34.8768 168.514009 
L 11.247425 168.514009 
L 11.247425 224.531509 
z
" style="fill: #ffff00; opacity: 0.2; stroke: #eeeeee; stroke-width: 0.5; stroke-linejoin: miter"/>
     </g>
     <!-- DFF IN -->
     <g transform="translate(26.925238 219.491509) rotate(-90) scale(0.14 -0.14)">
      <defs>
       <path id="DejaVuSans-44" d="M 1259 4147 
L 1259 519 
L 2022 519 
Q 2988 519 3436 956 
Q 3884 1394 3884 2338 
Q 3884 3275 3436 3711 
Q 2988 4147 2022 4147 
L 1259 4147 
z
M 628 4666 
L 1925 4666 
Q 3281 4666 3915 4102 
Q 4550 3538 4550 2338 
Q 4550 1131 3912 565 
Q 3275 0 1925 0 
L 628 0 
L 628 4666 
z
" transform="scale(0.015625)"/>
       <path id="DejaVuSans-46" d="M 628 4666 
L 3309 4666 
L 3309 4134 
L 1259 4134 
L 1259 2759 
L 3109 2759 
L 3109 2228 
L 1259 2228 
L 1259 0 
L 628 0 
L 628 4666 
z
" transform="scale(0.015625)"/>
       <path id="DejaVuSans-4e" d="M 628 4666 
L 1478 4666 
L 3547 763 
L 3547 4666 
L 4159 4666 
L 4159 0 
L 3309 0 
L 1241 3903 
L 1241 0 
L 628 0 
L 628 4666 
z
" transform="scale(0.015625)"/>
      </defs>
      <use xlink:href="#DejaVuSans-44"/>
      <use xlink:href="#DejaVuSans-46" x="77.001953"/>
      <use xlink:href="#DejaVuSans-46" x="134.521484"/>
      <use xlink:href="#DejaVuSans-20" x="192.041016"/>
      <use xlink:href="#DejaVuSans-49" x="223.828125"/>
      <use xlink:href="#DejaVuSans-4e" x="253.320312"/>
     </g>
    </g>
   </g>
   <g id="line2d_36">
    <path d="M 141.12 219.139284 
L 221.953536 219.092724 
L 224.437248 200.174421 
L 225.404928 194.41936 
L 228.243456 181.765697 
L 229.598208 180.495849 
L 231.178752 179.623253 
L 236.533248 179.16828 
L 243.5328 179.05963 
L 244.952064 179.018887 
L 248.145408 178.910236 
L 249.790464 178.845725 
L 251.887104 178.737075 
L 254.241792 178.390753 
L 254.757888 177.854293 
L 255.499776 177.514762 
L 256.338432 177.528343 
L 259.789824 178.142895 
L 262.467072 178.316056 
L 263.886336 178.363591 
L 264.144384 183.599168 
L 264.434688 187.161533 
L 265.176576 191.907166 
L 267.144192 209.229049 
L 268.402176 215.732777 
L 269.047296 217.015052 
L 270.46656 218.776542 
L 273.724416 219.190702 
L 282.530304 219.143321 
L 297.045504 219.133203 
L 305.851392 219.138469 
L 347.751936 219.094418 
L 350.235648 200.214486 
L 351.622656 191.582574 
L 352.654848 186.294709 
L 354.97728 179.304093 
L 358.493184 178.309266 
L 361.202688 178.417916 
L 362.944512 178.492613 
L 375.169536 178.5741 
L 375.7824 179.670787 
L 376.298496 180.730126 
L 376.782336 181.086634 
L 377.3952 181.229237 
L 377.911296 181.120587 
L 378.68544 180.679196 
L 380.491776 179.663997 
L 381.459456 179.371999 
L 383.007744 179.147909 
L 383.169024 179.293907 
L 385.168896 182.448156 
L 386.42688 183.986234 
L 388.104192 186.097102 
L 391.942656 191.32453 
L 392.523264 192.620522 
L 393.36192 195.619605 
L 395.910144 206.045601 
L 396.91008 210.462907 
L 399.264768 218.87485 
L 399.426048 219.494349 
L 399.845376 220.921125 
L 400.006656 221.325372 
L 400.425984 222.898931 
L 400.684032 223.327759 
L 400.974336 223.860484 
L 401.296896 224.887567 
L 401.780736 225.919064 
L 402.490368 226.925096 
L 402.87744 227.979002 
L 403.36128 228.870612 
L 403.458048 228.977225 
L 403.780608 229.722837 
L 404.103168 230.478634 
L 404.457984 231.004229 
L 404.877312 231.665976 
L 405.29664 232.642469 
L 405.651456 233.336811 
L 406.361088 234.459981 
L 406.877184 235.545464 
L 407.780352 236.923283 
L 408.231936 237.85326 
L 408.8448 238.66508 
L 409.070592 238.607699 
L 409.48992 238.13609 
L 409.780224 237.791465 
L 410.102784 237.255005 
L 410.554368 236.36747 
L 410.651136 236.217397 
L 410.909184 235.999078 
L 411.231744 235.687388 
L 411.683328 235.162472 
L 412.521984 234.06952 
L 413.650944 233.151087 
L 414.908928 231.644925 
L 414.941184 231.680576 
L 415.102464 231.605879 
L 415.328256 231.419136 
L 416.070144 230.93055 
L 417.037824 229.804664 
L 417.360384 229.353087 
L 417.618432 229.20573 
L 417.779712 229.223725 
L 419.037696 228.373878 
L 419.908608 227.484644 
L 420.1344 227.172615 
L 420.263424 227.105048 
L 420.973056 226.649397 
L 421.392384 226.388636 
L 423.84384 224.389135 
L 425.166336 223.516878 
L 427.101696 221.910249 
L 428.166144 221.085323 
L 429.198336 219.976039 
L 431.230464 217.133345 
L 432.165888 215.796337 
L 435.520512 211.524622 
L 436.972032 209.998428 
L 437.197824 209.744798 
L 437.584896 208.882048 
L 440.262144 201.556314 
L 440.907264 200.59578 
L 443.971584 196.323793 
L 444.713472 195.542191 
L 445.874688 194.123289 
L 446.874624 193.208251 
L 447.519744 192.420538 
L 447.777792 191.800893 
L 448.51968 189.059854 
L 449.48736 185.841095 
L 450.358272 183.724794 
L 451.164672 182.274994 
L 452.003328 181.31412 
L 453.745152 179.718322 
L 455.841792 177.019045 
L 456.809472 176.808536 
L 457.2288 176.475795 
L 458.938368 174.710231 
L 459.615744 173.678055 
L 462.196224 169.023077 
L 463.389696 167.226954 
L 464.905728 165.18637 
L 465.744384 164.147403 
L 466.58304 163.108436 
L 468.615168 160.365021 
L 470.9376 157.373748 
L 473.421312 154.38587 
L 474.80832 154.71182 
L 475.743744 154.722006 
L 477.775872 155.044561 
L 481.25952 155.889995 
L 492.87168 159.668981 
L 495.258624 160.803017 
L 496.032768 161.11199 
L 496.065024 161.023712 
L 496.41984 160.354835 
L 496.7424 160.103582 
L 497.032704 160.086605 
L 497.5488 160.35144 
L 498.774528 161.485475 
L 500.61312 162.897927 
L 504.354816 164.744978 
L 507.2256 165.834875 
L 508.064256 166.123477 
L 519.676416 169.674977 
L 522.031104 170.282739 
L 522.740736 170.46269 
L 523.740672 170.676595 
L 534.96576 172.92769 
L 536.352768 173.178943 
L 537.030144 174.16698 
L 537.610752 174.462373 
L 538.83648 174.482744 
L 541.57824 174.0074 
L 542.320128 174.051539 
L 561.835008 175.997055 
L 562.38336 176.037799 
L 562.899456 176.088729 
L 563.609088 176.119287 
L 566.641152 176.329796 
L 567.286272 176.37054 
L 569.028096 176.47919 
L 571.286016 176.608212 
L 571.931136 176.645561 
L 572.38272 176.676119 
L 574.414848 176.784769 
L 575.188992 176.808536 
L 575.672832 176.852675 
L 576.382464 176.883233 
L 576.705024 176.818722 
L 577.414656 176.160031 
L 577.930752 176.000451 
L 578.866176 176.109101 
L 581.4144 176.801745 
L 587.54304 177.338205 
L 588.284928 177.368763 
L 591.123456 177.474018 
L 591.73632 177.49439 
L 596.026368 177.60304 
L 596.348928 177.620016 
L 600.703488 177.728667 
L 601.961472 177.752434 
L 607.38048 177.861084 
L 608.50944 177.87127 
L 615.76704 177.97992 
L 616.347648 177.990106 
L 617.05728 178.078384 
L 617.573376 178.658983 
L 618.283008 178.984933 
L 619.186176 179.066421 
L 620.057088 178.866097 
L 621.41184 178.550333 
L 625.347072 178.244755 
L 630.92736 178.136104 
L 632.088576 178.122523 
L 657.345024 178.034245 
L 657.828864 177.504576 
L 658.441728 177.185416 
L 659.6352 177.165044 
L 663.602688 177.888246 
L 665.28 177.956153 
L 697.600512 178.064803 
L 697.761792 178.244755 
L 698.277888 178.764238 
L 698.66496 178.947585 
L 699.277824 179.086793 
L 701.632512 178.981538 
L 703.954944 178.604658 
L 709.30944 178.149686 
L 737.952768 178.078384 
L 738.50112 177.463832 
L 739.049472 177.188811 
L 740.984832 177.297461 
L 744.242688 177.87127 
L 746.339328 177.983315 
L 778.272768 178.078384 
L 779.208192 178.913632 
L 780.143616 179.093583 
L 782.240256 178.984933 
L 783.949824 178.696332 
L 785.304576 178.52317 
L 789.852672 178.153081 
L 818.592768 178.078384 
L 819.14112 177.463832 
L 819.689472 177.188811 
L 821.624832 177.297461 
L 824.882688 177.87127 
L 826.979328 177.983315 
L 858.912768 178.078384 
L 859.848192 178.913632 
L 860.783616 179.093583 
L 862.073856 179.124141 
L 864.847872 178.652192 
L 870.718464 178.142895 
L 899.232768 178.078384 
L 899.78112 177.463832 
L 900.329472 177.188811 
L 902.264832 177.297461 
L 905.522688 177.87127 
L 907.619328 177.983315 
L 939.552768 178.078384 
L 940.617216 178.94419 
L 941.55264 179.130932 
L 943.455744 179.022282 
L 944.810496 178.771028 
L 947.03616 178.41452 
L 947.52 178.339823 
L 947.52 178.339823 
" clip-path="url(#p57224ba18f)" style="fill: none; stroke: #008000; stroke-width: 2; stroke-linecap: square"/>
   </g>
   <g id="patch_10">
    <path d="M 100.8 242.888276 
L 100.8 150.157241 
" style="fill: none; stroke: #bcbcbc; stroke-width: 0.8; stroke-linejoin: miter; stroke-linecap: square"/>
   </g>
   <g id="patch_11">
    <path d="M 987.84 242.888276 
L 987.84 150.157241 
" style="fill: none; stroke: #bcbcbc; stroke-width: 0.8; stroke-linejoin: miter; stroke-linecap: square"/>
   </g>
   <g id="patch_12">
    <path d="M 100.8 242.888276 
L 987.84 242.888276 
" style="fill: none; stroke: #bcbcbc; stroke-width: 0.8; stroke-linejoin: miter; stroke-linecap: square"/>
   </g>
   <g id="patch_13">
    <path d="M 100.8 150.157241 
L 987.84 150.157241 
" style="fill: none; stroke: #bcbcbc; stroke-width: 0.8; stroke-linejoin: miter; stroke-linecap: square"/>
   </g>
  </g>
  <g id="axes_3">
   <g id="patch_14">
    <path d="M 100.8 354.165517 
L 987.84 354.165517 
L 987.84 261.434483 
L 100.8 261.434483 
z
" style="fill: #eeeeee"/>
   </g>
   <g id="matplotlib.axis_5">
    <g id="xtick_13">
     <g id="line2d_37">
      <path d="M 141.12 354.165517 
L 141.12 261.434483 
" clip-path="url(#p898e3ab73b)" style="fill: none; stroke-dasharray: 1.85,0.8; stroke-dashoffset: 0; stroke: #b2b2b2; stroke-width: 0.5"/>
     </g>
     <g id="line2d_38">
      <g>
       <use xlink:href="#m50d9b0c9b6" x="141.12" y="354.165517" style="stroke: #000000; stroke-width: 0.8"/>
      </g>
     </g>
    </g>
    <g id="xtick_14">
     <g id="line2d_39">
      <path d="M 302.4 354.165517 
L 302.4 261.434483 
" clip-path="url(#p898e3ab73b)" style="fill: none; stroke-dasharray: 1.85,0.8; stroke-dashoffset: 0; stroke: #b2b2b2; stroke-width: 0.5"/>
     </g>
     <g id="line2d_40">
      <g>
       <use xlink:href="#m50d9b0c9b6" x="302.4" y="354.165517" style="stroke: #000000; stroke-width: 0.8"/>
      </g>
     </g>
    </g>
    <g id="xtick_15">
     <g id="line2d_41">
      <path d="M 463.68 354.165517 
L 463.68 261.434483 
" clip-path="url(#p898e3ab73b)" style="fill: none; stroke-dasharray: 1.85,0.8; stroke-dashoffset: 0; stroke: #b2b2b2; stroke-width: 0.5"/>
     </g>
     <g id="line2d_42">
      <g>
       <use xlink:href="#m50d9b0c9b6" x="463.68" y="354.165517" style="stroke: #000000; stroke-width: 0.8"/>
      </g>
     </g>
    </g>
    <g id="xtick_16">
     <g id="line2d_43">
      <path d="M 624.96 354.165517 
L 624.96 261.434483 
" clip-path="url(#p898e3ab73b)" style="fill: none; stroke-dasharray: 1.85,0.8; stroke-dashoffset: 0; stroke: #b2b2b2; stroke-width: 0.5"/>
     </g>
     <g id="line2d_44">
      <g>
       <use xlink:href="#m50d9b0c9b6" x="624.96" y="354.165517" style="stroke: #000000; stroke-width: 0.8"/>
      </g>
     </g>
    </g>
    <g id="xtick_17">
     <g id="line2d_45">
      <path d="M 786.24 354.165517 
L 786.24 261.434483 
" clip-path="url(#p898e3ab73b)" style="fill: none; stroke-dasharray: 1.85,0.8; stroke-dashoffset: 0; stroke: #b2b2b2; stroke-width: 0.5"/>
     </g>
     <g id="line2d_46">
      <g>
       <use xlink:href="#m50d9b0c9b6" x="786.24" y="354.165517" style="stroke: #000000; stroke-width: 0.8"/>
      </g>
     </g>
    </g>
    <g id="xtick_18">
     <g id="line2d_47">
      <path d="M 947.52 354.165517 
L 947.52 261.434483 
" clip-path="url(#p898e3ab73b)" style="fill: none; stroke-dasharray: 1.85,0.8; stroke-dashoffset: 0; stroke: #b2b2b2; stroke-width: 0.5"/>
     </g>
     <g id="line2d_48">
      <g>
       <use xlink:href="#m50d9b0c9b6" x="947.52" y="354.165517" style="stroke: #000000; stroke-width: 0.8"/>
      </g>
     </g>
    </g>
   </g>
   <g id="matplotlib.axis_6">
    <g id="ytick_6">
     <g id="line2d_49">
      <path d="M 100.8 344.159375 
L 987.84 344.159375 
" clip-path="url(#p898e3ab73b)" style="fill: none; stroke-dasharray: 1.85,0.8; stroke-dashoffset: 0; stroke: #b2b2b2; stroke-width: 0.5"/>
     </g>
     <g id="line2d_50">
      <g>
       <use xlink:href="#m9e8c4d5fb2" x="100.8" y="344.159375" style="stroke: #000000; stroke-width: 0.8"/>
      </g>
     </g>
     <g id="text_8">
      <!-- 0 V -->
      <g transform="translate(74.36625 349.478281) scale(0.14 -0.14)">
       <use xlink:href="#DejaVuSans-30"/>
       <use xlink:href="#DejaVuSans-20" x="63.623047"/>
       <use xlink:href="#DejaVuSans-56" x="95.410156"/>
      </g>
     </g>
    </g>
    <g id="ytick_7">
     <g id="line2d_51">
      <path d="M 100.8 298.445013 
L 987.84 298.445013 
" clip-path="url(#p898e3ab73b)" style="fill: none; stroke-dasharray: 1.85,0.8; stroke-dashoffset: 0; stroke: #b2b2b2; stroke-width: 0.5"/>
     </g>
     <g id="line2d_52">
      <g>
       <use xlink:href="#m9e8c4d5fb2" x="100.8" y="298.445013" style="stroke: #000000; stroke-width: 0.8"/>
      </g>
     </g>
     <g id="text_9">
      <!-- 1 V -->
      <g transform="translate(74.36625 303.763919) scale(0.14 -0.14)">
       <use xlink:href="#DejaVuSans-31"/>
       <use xlink:href="#DejaVuSans-20" x="63.623047"/>
       <use xlink:href="#DejaVuSans-56" x="95.410156"/>
      </g>
     </g>
    </g>
    <g id="text_10">
     <g id="patch_15">
      <path d="M 34.8768 342.395313 
L 34.8768 273.204688 
L 11.247425 273.204688 
L 11.247425 342.395313 
z
" style="fill: #ffff00; opacity: 0.2; stroke: #eeeeee; stroke-width: 0.5; stroke-linejoin: miter"/>
     </g>
     <!-- CLK BUF -->
     <g transform="translate(26.925238 337.355313) rotate(-90) scale(0.14 -0.14)">
      <defs>
       <path id="DejaVuSans-43" d="M 4122 4306 
L 4122 3641 
Q 3803 3938 3442 4084 
Q 3081 4231 2675 4231 
Q 1875 4231 1450 3742 
Q 1025 3253 1025 2328 
Q 1025 1406 1450 917 
Q 1875 428 2675 428 
Q 3081 428 3442 575 
Q 3803 722 4122 1019 
L 4122 359 
Q 3791 134 3420 21 
Q 3050 -91 2638 -91 
Q 1578 -91 968 557 
Q 359 1206 359 2328 
Q 359 3453 968 4101 
Q 1578 4750 2638 4750 
Q 3056 4750 3426 4639 
Q 3797 4528 4122 4306 
z
" transform="scale(0.015625)"/>
       <path id="DejaVuSans-4b" d="M 628 4666 
L 1259 4666 
L 1259 2694 
L 3353 4666 
L 4166 4666 
L 1850 2491 
L 4331 0 
L 3500 0 
L 1259 2247 
L 1259 0 
L 628 0 
L 628 4666 
z
" transform="scale(0.015625)"/>
      </defs>
      <use xlink:href="#DejaVuSans-43"/>
      <use xlink:href="#DejaVuSans-4c" x="69.824219"/>
      <use xlink:href="#DejaVuSans-4b" x="125.537109"/>
      <use xlink:href="#DejaVuSans-20" x="191.113281"/>
      <use xlink:href="#DejaVuSans-42" x="222.900391"/>
      <use xlink:href="#DejaVuSans-55" x="291.503906"/>
      <use xlink:href="#DejaVuSans-46" x="364.697266"/>
     </g>
    </g>
   </g>
   <g id="line2d_53">
    <path d="M 141.12 344.158166 
L 173.376 344.158166 
L 173.601792 289.302141 
L 213.696 289.302141 
L 213.760512 333.059471 
L 213.825024 344.13849 
L 213.889536 344.072705 
L 213.954048 344.255329 
L 214.01856 344.164329 
L 215.276544 344.155649 
L 222.953472 344.15818 
L 254.016 344.158135 
L 254.17728 289.132997 
L 254.241792 289.425569 
L 254.403072 289.292998 
L 254.8224 289.302141 
L 294.336 289.302141 
L 294.400512 333.021071 
L 294.465024 344.5005 
L 294.529536 343.705696 
L 294.626304 344.231215 
L 294.65856 344.198685 
L 294.852096 344.118335 
L 295.206912 344.17601 
L 295.497216 344.15781 
L 319.205376 344.158166 
L 334.656 344.158168 
L 334.81728 289.219855 
L 334.881792 289.320426 
L 335.172096 289.306712 
L 374.976 289.302141 
L 375.008256 294.920436 
L 375.13728 344.128148 
L 375.29856 344.157876 
L 383.20128 344.36743 
L 383.878656 345.002805 
L 384.620544 345.389685 
L 385.491456 345.622783 
L 387.136512 345.763675 
L 390.104064 345.725503 
L 401.26464 345.486874 
L 401.780736 345.612954 
L 403.232256 346.344933 
L 409.00608 349.86087 
L 409.97376 349.368984 
L 414.81216 347.561895 
L 415.13472 347.449255 
L 415.296 347.39746 
L 415.328256 348.851954 
L 415.521792 323.282997 
L 415.650816 323.085968 
L 417.908736 322.23431 
L 418.19904 322.133281 
L 422.198784 320.664479 
L 423.166464 320.369164 
L 423.295488 320.193621 
L 423.456768 320.259906 
L 423.618048 320.158878 
L 424.037376 320.013963 
L 425.61792 319.421962 
L 425.811456 319.367105 
L 428.649984 318.17716 
L 429.133824 317.899217 
L 431.133696 316.6087 
L 440.197632 310.574405 
L 444.519936 308.130515 
L 447.648768 306.380569 
L 449.068032 303.533021 
L 451.584 297.70444 
L 454.64832 290.600428 
L 455.616 288.492996 
L 455.648256 293.233576 
L 455.712768 344.424998 
L 455.77728 342.150457 
L 455.809536 342.336286 
L 455.906304 342.273383 
L 457.035264 342.328103 
L 467.486208 342.663464 
L 469.034496 342.624104 
L 473.324544 342.77135 
L 473.614848 343.100082 
L 474.259968 343.6839 
L 475.066368 344.098945 
L 476.09856 344.365355 
L 477.453312 344.510269 
L 480.45312 344.575289 
L 495.936 344.684953 
L 496.000512 291.36843 
L 496.032768 265.64953 
L 496.129536 266.120388 
L 496.226304 266.106673 
L 496.25856 266.134102 
L 496.935936 266.577531 
L 497.645568 266.998103 
L 505.6128 271.391254 
L 508.225536 272.62097 
L 509.548032 273.247257 
L 518.547456 276.963834 
L 518.805504 277.068977 
L 520.644096 277.740978 
L 520.9344 277.846122 
L 522.127872 278.243836 
L 522.482688 278.34898 
L 523.67616 278.746694 
L 523.934208 278.847266 
L 524.353536 278.975266 
L 524.708352 279.075838 
L 525.12768 279.203838 
L 525.482496 279.30441 
L 525.998592 279.478124 
L 526.353408 279.578696 
L 526.772736 279.706696 
L 527.127552 279.807268 
L 527.54688 279.935268 
L 527.901696 280.035839 
L 528.256512 280.118125 
L 533.643264 281.535271 
L 534.094848 281.635842 
L 534.449664 281.718128 
L 536.256 282.156986 
L 536.288256 291.080429 
L 536.352768 344.809525 
L 536.41728 344.320902 
L 543.99744 344.311197 
L 576.576 344.21329 
L 576.705024 287.144423 
L 576.801792 287.340994 
L 577.3824 287.363852 
L 577.608192 287.382137 
L 579.672576 287.48728 
L 580.027392 287.51928 
L 582.188544 287.624424 
L 582.54336 287.656424 
L 584.898048 287.761567 
L 585.252864 287.793567 
L 587.801088 287.89871 
L 588.155904 287.93071 
L 591.0912 288.035853 
L 591.446016 288.067853 
L 594.671616 288.172996 
L 595.026432 288.204996 
L 598.735872 288.310139 
L 599.090688 288.342139 
L 603.477504 288.447282 
L 603.83232 288.479282 
L 608.99328 288.584425 
L 609.348096 288.616425 
L 615.76704 288.721568 
L 616.121856 288.753568 
L 616.896 288.753568 
L 616.928256 293.823291 
L 617.05728 344.097139 
L 617.186304 344.173254 
L 657.216 344.17125 
L 657.37728 288.753568 
L 657.441792 288.863283 
L 658.34496 288.844997 
L 697.536 288.844997 
L 697.665024 344.508623 
L 697.826304 344.24258 
L 698.084352 344.140731 
L 698.439168 344.190467 
L 698.761728 344.171019 
L 734.46912 344.171255 
L 737.856 344.171258 
L 738.01728 288.607282 
L 738.081792 289.123855 
L 738.17856 288.652997 
L 738.243072 288.826711 
L 738.694656 288.844997 
L 778.176 288.844997 
L 778.305024 344.508445 
L 778.466304 344.242625 
L 778.724352 344.140723 
L 779.079168 344.190453 
L 779.401728 344.171018 
L 815.2704 344.171255 
L 818.496 344.171258 
L 818.65728 288.607282 
L 818.721792 289.123855 
L 818.81856 288.652997 
L 818.883072 288.826711 
L 819.334656 288.844997 
L 858.816 288.844997 
L 858.945024 344.508628 
L 859.106304 344.24258 
L 859.364352 344.140733 
L 859.719168 344.190466 
L 860.041728 344.171019 
L 895.74912 344.171255 
L 899.136 344.171258 
L 899.29728 288.607282 
L 899.361792 289.123855 
L 899.45856 288.652997 
L 899.523072 288.826711 
L 899.974656 288.844997 
L 939.456 288.844997 
L 939.488256 297.087296 
L 939.61728 344.116889 
L 939.649536 344.249821 
L 939.714048 344.122636 
L 939.746304 344.082524 
L 939.810816 344.141525 
L 940.004352 344.198616 
L 940.197888 344.1705 
L 945.326592 344.171265 
L 947.52 344.171247 
L 947.52 344.171247 
" clip-path="url(#p898e3ab73b)" style="fill: none; stroke: #0000ff; stroke-width: 2; stroke-linecap: square"/>
   </g>
   <g id="patch_16">
    <path d="M 100.8 354.165517 
L 100.8 261.434483 
" style="fill: none; stroke: #bcbcbc; stroke-width: 0.8; stroke-linejoin: miter; stroke-linecap: square"/>
   </g>
   <g id="patch_17">
    <path d="M 987.84 354.165517 
L 987.84 261.434483 
" style="fill: none; stroke: #bcbcbc; stroke-width: 0.8; stroke-linejoin: miter; stroke-linecap: square"/>
   </g>
   <g id="patch_18">
    <path d="M 100.8 354.165517 
L 987.84 354.165517 
" style="fill: none; stroke: #bcbcbc; stroke-width: 0.8; stroke-linejoin: miter; stroke-linecap: square"/>
   </g>
   <g id="patch_19">
    <path d="M 100.8 261.434483 
L 987.84 261.434483 
" style="fill: none; stroke: #bcbcbc; stroke-width: 0.8; stroke-linejoin: miter; stroke-linecap: square"/>
   </g>
  </g>
  <g id="axes_4">
   <g id="patch_20">
    <path d="M 100.8 465.442759 
L 987.84 465.442759 
L 987.84 372.711724 
L 100.8 372.711724 
z
" style="fill: #eeeeee"/>
   </g>
   <g id="matplotlib.axis_7">
    <g id="xtick_19">
     <g id="line2d_54">
      <path d="M 141.12 465.442759 
L 141.12 372.711724 
" clip-path="url(#p67729daad3)" style="fill: none; stroke-dasharray: 1.85,0.8; stroke-dashoffset: 0; stroke: #b2b2b2; stroke-width: 0.5"/>
     </g>
     <g id="line2d_55">
      <g>
       <use xlink:href="#m50d9b0c9b6" x="141.12" y="465.442759" style="stroke: #000000; stroke-width: 0.8"/>
      </g>
     </g>
    </g>
    <g id="xtick_20">
     <g id="line2d_56">
      <path d="M 302.4 465.442759 
L 302.4 372.711724 
" clip-path="url(#p67729daad3)" style="fill: none; stroke-dasharray: 1.85,0.8; stroke-dashoffset: 0; stroke: #b2b2b2; stroke-width: 0.5"/>
     </g>
     <g id="line2d_57">
      <g>
       <use xlink:href="#m50d9b0c9b6" x="302.4" y="465.442759" style="stroke: #000000; stroke-width: 0.8"/>
      </g>
     </g>
    </g>
    <g id="xtick_21">
     <g id="line2d_58">
      <path d="M 463.68 465.442759 
L 463.68 372.711724 
" clip-path="url(#p67729daad3)" style="fill: none; stroke-dasharray: 1.85,0.8; stroke-dashoffset: 0; stroke: #b2b2b2; stroke-width: 0.5"/>
     </g>
     <g id="line2d_59">
      <g>
       <use xlink:href="#m50d9b0c9b6" x="463.68" y="465.442759" style="stroke: #000000; stroke-width: 0.8"/>
      </g>
     </g>
    </g>
    <g id="xtick_22">
     <g id="line2d_60">
      <path d="M 624.96 465.442759 
L 624.96 372.711724 
" clip-path="url(#p67729daad3)" style="fill: none; stroke-dasharray: 1.85,0.8; stroke-dashoffset: 0; stroke: #b2b2b2; stroke-width: 0.5"/>
     </g>
     <g id="line2d_61">
      <g>
       <use xlink:href="#m50d9b0c9b6" x="624.96" y="465.442759" style="stroke: #000000; stroke-width: 0.8"/>
      </g>
     </g>
    </g>
    <g id="xtick_23">
     <g id="line2d_62">
      <path d="M 786.24 465.442759 
L 786.24 372.711724 
" clip-path="url(#p67729daad3)" style="fill: none; stroke-dasharray: 1.85,0.8; stroke-dashoffset: 0; stroke: #b2b2b2; stroke-width: 0.5"/>
     </g>
     <g id="line2d_63">
      <g>
       <use xlink:href="#m50d9b0c9b6" x="786.24" y="465.442759" style="stroke: #000000; stroke-width: 0.8"/>
      </g>
     </g>
    </g>
    <g id="xtick_24">
     <g id="line2d_64">
      <path d="M 947.52 465.442759 
L 947.52 372.711724 
" clip-path="url(#p67729daad3)" style="fill: none; stroke-dasharray: 1.85,0.8; stroke-dashoffset: 0; stroke: #b2b2b2; stroke-width: 0.5"/>
     </g>
     <g id="line2d_65">
      <g>
       <use xlink:href="#m50d9b0c9b6" x="947.52" y="465.442759" style="stroke: #000000; stroke-width: 0.8"/>
      </g>
     </g>
    </g>
   </g>
   <g id="matplotlib.axis_8">
    <g id="ytick_8">
     <g id="line2d_66">
      <path d="M 100.8 440.045968 
L 987.84 440.045968 
" clip-path="url(#p67729daad3)" style="fill: none; stroke-dasharray: 1.85,0.8; stroke-dashoffset: 0; stroke: #b2b2b2; stroke-width: 0.5"/>
     </g>
     <g id="line2d_67">
      <g>
       <use xlink:href="#m9e8c4d5fb2" x="100.8" y="440.045968" style="stroke: #000000; stroke-width: 0.8"/>
      </g>
     </g>
     <g id="text_11">
      <!-- 0 V -->
      <g transform="translate(74.36625 445.364874) scale(0.14 -0.14)">
       <use xlink:href="#DejaVuSans-30"/>
       <use xlink:href="#DejaVuSans-20" x="63.623047"/>
       <use xlink:href="#DejaVuSans-56" x="95.410156"/>
      </g>
     </g>
    </g>
    <g id="ytick_9">
     <g id="line2d_68">
      <path d="M 100.8 402.805307 
L 987.84 402.805307 
" clip-path="url(#p67729daad3)" style="fill: none; stroke-dasharray: 1.85,0.8; stroke-dashoffset: 0; stroke: #b2b2b2; stroke-width: 0.5"/>
     </g>
     <g id="line2d_69">
      <g>
       <use xlink:href="#m9e8c4d5fb2" x="100.8" y="402.805307" style="stroke: #000000; stroke-width: 0.8"/>
      </g>
     </g>
     <g id="text_12">
      <!-- 1 V -->
      <g transform="translate(74.36625 408.124213) scale(0.14 -0.14)">
       <use xlink:href="#DejaVuSans-31"/>
       <use xlink:href="#DejaVuSans-20" x="63.623047"/>
       <use xlink:href="#DejaVuSans-56" x="95.410156"/>
      </g>
     </g>
    </g>
    <g id="text_13">
     <g id="patch_21">
      <path d="M 34.8768 454.693023 
L 34.8768 383.46146 
L 11.247425 383.46146 
L 11.247425 454.693023 
z
" style="fill: #ffff00; opacity: 0.2; stroke: #eeeeee; stroke-width: 0.5; stroke-linejoin: miter"/>
     </g>
     <!-- DFF OUT -->
     <g transform="translate(26.925238 449.653023) rotate(-90) scale(0.14 -0.14)">
      <defs>
       <path id="DejaVuSans-4f" d="M 2522 4238 
Q 1834 4238 1429 3725 
Q 1025 3213 1025 2328 
Q 1025 1447 1429 934 
Q 1834 422 2522 422 
Q 3209 422 3611 934 
Q 4013 1447 4013 2328 
Q 4013 3213 3611 3725 
Q 3209 4238 2522 4238 
z
M 2522 4750 
Q 3503 4750 4090 4092 
Q 4678 3434 4678 2328 
Q 4678 1225 4090 567 
Q 3503 -91 2522 -91 
Q 1538 -91 948 565 
Q 359 1222 359 2328 
Q 359 3434 948 4092 
Q 1538 4750 2522 4750 
z
" transform="scale(0.015625)"/>
       <path id="DejaVuSans-54" d="M -19 4666 
L 3928 4666 
L 3928 4134 
L 2272 4134 
L 2272 0 
L 1638 0 
L 1638 4134 
L -19 4134 
L -19 4666 
z
" transform="scale(0.015625)"/>
      </defs>
      <use xlink:href="#DejaVuSans-44"/>
      <use xlink:href="#DejaVuSans-46" x="77.001953"/>
      <use xlink:href="#DejaVuSans-46" x="134.521484"/>
      <use xlink:href="#DejaVuSans-20" x="192.041016"/>
      <use xlink:href="#DejaVuSans-4f" x="223.828125"/>
      <use xlink:href="#DejaVuSans-55" x="302.539062"/>
      <use xlink:href="#DejaVuSans-54" x="375.732422"/>
     </g>
    </g>
   </g>
   <g id="line2d_70">
    <path d="M 141.12 411.946772 
L 173.408256 411.992206 
L 173.440512 413.533969 
L 173.601792 440.048241 
L 174.150144 440.044246 
L 185.052672 440.044977 
L 254.048256 440.046536 
L 254.080512 440.195408 
L 254.112768 439.949154 
L 254.306304 436.313337 
L 254.596608 435.584537 
L 254.693376 435.064657 
L 255.14496 428.540093 
L 255.370752 413.205134 
L 255.596544 395.718409 
L 255.757824 395.413035 
L 255.983616 395.35345 
L 256.983552 395.357174 
L 295.755264 395.431656 
L 296.239104 397.841127 
L 296.59392 397.237828 
L 297.980928 395.6551 
L 299.625984 395.386967 
L 300.754944 395.368347 
L 334.720512 395.264073 
L 334.752768 395.811511 
L 334.785024 398.518907 
L 334.914048 440.030703 
L 334.97856 439.997928 
L 335.13984 440.038163 
L 335.526912 440.04532 
L 368.976384 440.044942 
L 383.136768 440.147617 
L 383.814144 440.696004 
L 384.6528 441.058505 
L 385.749504 441.270851 
L 387.491328 441.356951 
L 391.555584 441.274947 
L 393.490944 441.081631 
L 394.039296 440.896247 
L 394.49088 440.55192 
L 394.781184 439.995731 
L 395.006976 439.025649 
L 395.200512 437.119523 
L 395.45856 431.633303 
L 395.716608 427.461976 
L 395.974656 427.494748 
L 396.232704 428.107357 
L 396.813312 430.124311 
L 397.329408 432.247029 
L 398.006784 434.402146 
L 398.168064 435.644494 
L 398.458368 436.816309 
L 398.490624 436.347784 
L 398.555136 436.51492 
L 398.587392 436.671145 
L 398.748672 437.938854 
L 399.135744 439.338731 
L 399.200256 439.045647 
L 399.232512 439.211926 
L 399.264768 439.340891 
L 399.426048 440.538104 
L 399.716352 441.5887 
L 399.748608 441.463311 
L 399.780864 441.437987 
L 399.81312 441.802908 
L 399.909888 441.786522 
L 400.522752 444.221764 
L 400.716288 444.726375 
L 400.748544 444.425842 
L 400.813056 444.772181 
L 400.845312 444.593798 
L 400.909824 444.792663 
L 400.974336 444.947956 
L 401.006592 445.429106 
L 401.10336 445.293922 
L 401.780736 447.114618 
L 401.812992 447.039392 
L 401.877504 447.104563 
L 402.361344 447.91343 
L 402.3936 447.985305 
L 402.55488 448.70107 
L 407.07072 458.08311 
L 407.167488 458.133385 
L 408.554496 460.793485 
L 408.586752 460.765555 
L 408.619008 460.82514 
L 408.812544 461.196057 
L 409.231872 460.932766 
L 409.522176 460.43523 
L 411.489792 457.193431 
L 411.522048 457.323028 
L 411.554304 457.265305 
L 411.683328 456.921574 
L 411.715584 457.074261 
L 411.74784 456.846348 
L 413.457408 454.953405 
L 413.650944 454.707244 
L 413.6832 454.827159 
L 413.715456 454.60297 
L 413.747712 454.728844 
L 413.908992 454.387347 
L 413.941248 454.357182 
L 413.973504 454.541896 
L 414.00576 454.258122 
L 414.038016 454.244715 
L 414.070272 454.448049 
L 414.102528 454.205985 
L 414.134784 454.249929 
L 414.231552 454.023506 
L 414.263808 454.172096 
L 414.296064 453.945673 
L 414.81216 453.446275 
L 414.844416 453.633224 
L 414.908928 453.363974 
L 414.941184 453.554646 
L 415.070208 453.215011 
L 415.199232 453.128613 
L 415.683072 452.856011 
L 416.231424 452.185679 
L 416.26368 452.231113 
L 416.360448 451.903022 
L 416.392704 451.961118 
L 416.553984 451.687027 
L 416.58624 451.922388 
L 416.618496 451.573815 
L 416.683008 451.827796 
L 416.812032 451.359309 
L 416.844288 451.36415 
L 416.876544 451.638986 
L 416.9088 451.270304 
L 416.941056 451.279986 
L 417.586176 450.712811 
L 417.650688 450.855815 
L 417.682944 450.680411 
L 417.7152 450.73739 
L 417.779712 450.63833 
L 417.811968 450.680784 
L 417.844224 450.61524 
L 417.973248 450.481174 
L 418.005504 450.52698 
L 418.392576 450.225703 
L 418.779648 449.834676 
L 419.424768 448.868281 
L 419.457024 449.130828 
L 419.48928 448.789331 
L 419.521536 448.70405 
L 419.553792 448.792682 
L 419.586048 449.060815 
L 419.65056 448.678354 
L 419.682816 448.958403 
L 419.81184 448.489916 
L 419.844096 448.477626 
L 419.876352 448.635154 
L 419.908608 448.405007 
L 419.940864 448.381918 
L 419.97312 448.682822 
L 420.005376 448.298126 
L 420.037632 448.356222 
L 420.069888 448.533115 
L 420.102144 448.234817 
L 420.1344 448.229604 
L 420.166656 448.429958 
L 420.231168 448.291795 
L 420.424704 448.113785 
L 420.45696 448.239286 
L 420.489216 447.986794 
L 420.9408 447.844535 
L 421.714944 447.055405 
L 421.843968 446.690447 
L 421.90848 446.917243 
L 422.037504 446.420452 
L 422.360064 446.229408 
L 422.39232 446.056611 
L 422.456832 446.218608 
L 422.650368 445.874504 
L 422.682624 446.250262 
L 422.747136 445.846201 
L 422.779392 446.140402 
L 422.811648 445.697983 
L 422.908416 445.788851 
L 422.940672 445.839125 
L 422.972928 445.813429 
L 423.101952 445.511408 
L 423.03744 445.828698 
L 423.134208 445.528166 
L 423.166464 445.85216 
L 423.19872 445.466346 
L 423.263232 445.753472 
L 423.392256 445.38181 
L 423.424512 445.378831 
L 423.456768 445.607116 
L 423.52128 445.446981 
L 423.650304 445.396706 
L 423.779328 445.302115 
L 423.940608 445.226889 
L 425.198592 443.883246 
L 425.29536 443.912294 
L 425.327616 443.522496 
L 425.521152 443.413381 
L 425.585664 443.733911 
L 425.714688 443.137502 
L 425.843712 443.090504 
L 425.875968 443.06991 
L 425.972736 443.362212 
L 426.004992 442.917931 
L 426.10176 443.043953 
L 426.134016 443.294769 
L 426.166272 443.186324 
L 426.198528 442.87421 
L 426.295296 442.926608 
L 426.327552 443.000158 
L 426.359808 442.87503 
L 426.488832 442.684469 
L 426.779136 442.671137 
L 426.940416 442.61468 
L 428.327424 441.289844 
L 428.488704 440.984023 
L 428.585472 440.55259 
L 428.617728 440.768772 
L 428.714496 440.151948 
L 428.746752 440.490845 
L 428.908032 440.114539 
L 428.940288 440.318067 
L 429.0048 440.071618 
L 429.037056 440.195851 
L 429.101568 440.112435 
L 429.391872 439.676131 
L 429.97248 438.5785 
L 430.166016 437.70651 
L 430.230528 438.149488 
L 430.262784 437.570395 
L 430.29504 438.013634 
L 430.45632 437.500197 
L 430.520832 437.59922 
L 430.585344 437.64443 
L 430.6176 437.580301 
L 431.327232 436.335718 
L 431.456256 435.861607 
L 431.488512 435.641888 
L 431.520768 435.937206 
L 431.553024 435.975564 
L 431.811072 434.948466 
L 431.843328 435.041196 
L 431.875584 435.340983 
L 431.972352 435.207289 
L 432.39168 434.445345 
L 432.423936 434.445345 
L 432.649728 433.970527 
L 434.133504 431.539829 
L 435.101184 429.997693 
L 435.262464 429.44951 
L 435.585024 428.910638 
L 435.61728 429.112482 
L 435.649536 428.836157 
L 435.77856 428.615692 
L 435.810816 428.731883 
L 435.843072 428.845467 
L 435.907584 428.515142 
L 435.972096 428.55499 
L 436.004352 428.605265 
L 436.068864 428.509184 
L 436.939776 427.041529 
L 437.0688 426.32204 
L 437.165568 426.139933 
L 437.197824 426.354439 
L 437.23008 426.142912 
L 437.488128 425.65357 
L 437.8752 424.744153 
L 438.004224 424.420159 
L 439.100928 422.26169 
L 440.45568 420.004906 
L 440.487936 419.457096 
L 440.584704 419.518543 
L 440.713728 419.51966 
L 440.93952 419.252645 
L 442.584576 416.910207 
L 442.907136 416.74821 
L 443.03616 417.411094 
L 443.19744 424.064138 
L 443.294208 432.549051 
L 443.455488 439.476633 
L 443.713536 439.536404 
L 446.229504 439.643434 
L 447.616512 439.589584 
L 448.293888 439.03913 
L 449.132544 438.68229 
L 450.229248 438.475567 
L 452.003328 438.404437 
L 456.486912 438.53545 
L 467.260416 438.847675 
L 469.16352 438.802614 
L 473.324544 438.926886 
L 473.647104 439.224625 
L 474.32448 439.706121 
L 475.163136 440.036982 
L 476.388864 440.262556 
L 478.614528 440.379347 
L 485.323776 440.381749 
L 494.516736 440.462728 
L 495.968256 440.485408 
L 496.000512 440.657944 
L 496.065024 436.586199 
L 496.226304 431.041549 
L 496.484352 428.601168 
L 496.613376 425.060326 
L 496.774656 413.408095 
L 497.161728 376.926771 
L 497.193984 376.930495 
L 497.968128 377.340143 
L 498.935808 377.78703 
L 499.613184 378.122196 
L 500.677632 378.602601 
L 501.355008 378.937767 
L 504.838656 380.427393 
L 506.90304 381.25786 
L 508.451328 381.853711 
L 520.257024 385.827289 
L 520.61184 385.935287 
L 521.289216 386.12149 
L 521.90208 386.285349 
L 523.385856 386.683824 
L 523.805184 386.791822 
L 524.418048 386.955681 
L 525.676032 387.279675 
L 526.127616 387.387673 
L 527.22432 387.652082 
L 527.675904 387.76008 
L 528.772608 387.99842 
L 529.8048 388.244208 
L 531.030528 388.493721 
L 531.836928 388.65758 
L 535.385088 389.365152 
L 535.901184 389.47315 
L 537.675264 389.782247 
L 538.062336 389.849281 
L 538.610688 389.957279 
L 540.804096 390.318513 
L 541.384704 390.407891 
L 542.094336 390.515889 
L 546.223104 391.096843 
L 546.57792 391.152704 
L 547.319808 391.260702 
L 559.286784 392.530608 
L 560.189952 392.638606 
L 563.125248 392.865774 
L 564.447744 392.973772 
L 566.73792 393.126459 
L 567.931392 393.234457 
L 569.866752 393.349903 
L 570.511872 393.387144 
L 572.092416 393.495141 
L 573.705216 393.569623 
L 575.253504 393.666448 
L 575.543808 393.681345 
L 576.608256 393.718585 
L 576.640512 393.938305 
L 576.705024 393.722309 
L 576.866304 393.752102 
L 578.930688 393.852652 
L 579.220992 393.867548 
L 580.833792 393.942029 
L 583.091712 394.038855 
L 583.382016 394.053751 
L 585.801216 394.150577 
L 586.09152 394.165473 
L 588.897792 394.262299 
L 589.188096 394.277195 
L 592.316928 394.385193 
L 592.800768 394.388917 
L 596.058624 394.485743 
L 596.348928 394.500639 
L 600.316416 394.597465 
L 600.60672 394.612361 
L 605.28384 394.720359 
L 606.283776 394.724083 
L 611.186688 394.832081 
L 612.21888 394.839529 
L 618.734592 394.947527 
L 619.702272 394.951251 
L 620.702208 394.947527 
L 657.248256 394.999664 
L 657.280512 395.126282 
L 657.345024 394.954975 
L 657.635328 394.97732 
L 737.888256 394.981044 
L 737.920512 395.170971 
L 737.985024 394.981044 
L 738.17856 394.962423 
L 739.339776 394.984768 
L 818.528256 394.981044 
L 818.560512 395.170971 
L 818.625024 394.981044 
L 818.81856 394.962423 
L 819.979776 394.984768 
L 899.168256 394.981044 
L 899.200512 395.170971 
L 899.265024 394.981044 
L 899.45856 394.962423 
L 900.619776 394.984768 
L 947.52 394.984768 
L 947.52 394.984768 
" clip-path="url(#p67729daad3)" style="fill: none; stroke: #ff00ff; stroke-width: 2; stroke-linecap: square"/>
   </g>
   <g id="patch_22">
    <path d="M 100.8 465.442759 
L 100.8 372.711724 
" style="fill: none; stroke: #bcbcbc; stroke-width: 0.8; stroke-linejoin: miter; stroke-linecap: square"/>
   </g>
   <g id="patch_23">
    <path d="M 987.84 465.442759 
L 987.84 372.711724 
" style="fill: none; stroke: #bcbcbc; stroke-width: 0.8; stroke-linejoin: miter; stroke-linecap: square"/>
   </g>
   <g id="patch_24">
    <path d="M 100.8 465.442759 
L 987.84 465.442759 
" style="fill: none; stroke: #bcbcbc; stroke-width: 0.8; stroke-linejoin: miter; stroke-linecap: square"/>
   </g>
   <g id="patch_25">
    <path d="M 100.8 372.711724 
L 987.84 372.711724 
" style="fill: none; stroke: #bcbcbc; stroke-width: 0.8; stroke-linejoin: miter; stroke-linecap: square"/>
   </g>
  </g>
  <g id="axes_5">
   <g id="patch_26">
    <path d="M 100.8 576.72 
L 987.84 576.72 
L 987.84 483.988966 
L 100.8 483.988966 
z
" style="fill: #eeeeee"/>
   </g>
   <g id="matplotlib.axis_9">
    <g id="xtick_25">
     <g id="line2d_71">
      <path d="M 141.12 576.72 
L 141.12 483.988966 
" clip-path="url(#p4019ba35e9)" style="fill: none; stroke-dasharray: 1.85,0.8; stroke-dashoffset: 0; stroke: #b2b2b2; stroke-width: 0.5"/>
     </g>
     <g id="line2d_72">
      <g>
       <use xlink:href="#m50d9b0c9b6" x="141.12" y="576.72" style="stroke: #000000; stroke-width: 0.8"/>
      </g>
     </g>
     <g id="text_14">
      <!-- 0 s -->
      <g transform="translate(130.795 590.857813) scale(0.14 -0.14)">
       <defs>
        <path id="DejaVuSans-73" d="M 2834 3397 
L 2834 2853 
Q 2591 2978 2328 3040 
Q 2066 3103 1784 3103 
Q 1356 3103 1142 2972 
Q 928 2841 928 2578 
Q 928 2378 1081 2264 
Q 1234 2150 1697 2047 
L 1894 2003 
Q 2506 1872 2764 1633 
Q 3022 1394 3022 966 
Q 3022 478 2636 193 
Q 2250 -91 1575 -91 
Q 1294 -91 989 -36 
Q 684 19 347 128 
L 347 722 
Q 666 556 975 473 
Q 1284 391 1588 391 
Q 1994 391 2212 530 
Q 2431 669 2431 922 
Q 2431 1156 2273 1281 
Q 2116 1406 1581 1522 
L 1381 1569 
Q 847 1681 609 1914 
Q 372 2147 372 2553 
Q 372 3047 722 3315 
Q 1072 3584 1716 3584 
Q 2034 3584 2315 3537 
Q 2597 3491 2834 3397 
z
" transform="scale(0.015625)"/>
       </defs>
       <use xlink:href="#DejaVuSans-30"/>
       <use xlink:href="#DejaVuSans-20" x="63.623047"/>
       <use xlink:href="#DejaVuSans-73" x="95.410156"/>
      </g>
     </g>
    </g>
    <g id="xtick_26">
     <g id="line2d_73">
      <path d="M 302.4 576.72 
L 302.4 483.988966 
" clip-path="url(#p4019ba35e9)" style="fill: none; stroke-dasharray: 1.85,0.8; stroke-dashoffset: 0; stroke: #b2b2b2; stroke-width: 0.5"/>
     </g>
     <g id="line2d_74">
      <g>
       <use xlink:href="#m50d9b0c9b6" x="302.4" y="576.72" style="stroke: #000000; stroke-width: 0.8"/>
      </g>
     </g>
     <g id="text_15">
      <!-- 50 ns -->
      <g transform="translate(283.185 590.857813) scale(0.14 -0.14)">
       <defs>
        <path id="DejaVuSans-35" d="M 691 4666 
L 3169 4666 
L 3169 4134 
L 1269 4134 
L 1269 2991 
Q 1406 3038 1543 3061 
Q 1681 3084 1819 3084 
Q 2600 3084 3056 2656 
Q 3513 2228 3513 1497 
Q 3513 744 3044 326 
Q 2575 -91 1722 -91 
Q 1428 -91 1123 -41 
Q 819 9 494 109 
L 494 744 
Q 775 591 1075 516 
Q 1375 441 1709 441 
Q 2250 441 2565 725 
Q 2881 1009 2881 1497 
Q 2881 1984 2565 2268 
Q 2250 2553 1709 2553 
Q 1456 2553 1204 2497 
Q 953 2441 691 2322 
L 691 4666 
z
" transform="scale(0.015625)"/>
        <path id="DejaVuSans-6e" d="M 3513 2113 
L 3513 0 
L 2938 0 
L 2938 2094 
Q 2938 2591 2744 2837 
Q 2550 3084 2163 3084 
Q 1697 3084 1428 2787 
Q 1159 2491 1159 1978 
L 1159 0 
L 581 0 
L 581 3500 
L 1159 3500 
L 1159 2956 
Q 1366 3272 1645 3428 
Q 1925 3584 2291 3584 
Q 2894 3584 3203 3211 
Q 3513 2838 3513 2113 
z
" transform="scale(0.015625)"/>
       </defs>
       <use xlink:href="#DejaVuSans-35"/>
       <use xlink:href="#DejaVuSans-30" x="63.623047"/>
       <use xlink:href="#DejaVuSans-20" x="127.246094"/>
       <use xlink:href="#DejaVuSans-6e" x="159.033203"/>
       <use xlink:href="#DejaVuSans-73" x="222.412109"/>
      </g>
     </g>
    </g>
    <g id="xtick_27">
     <g id="line2d_75">
      <path d="M 463.68 576.72 
L 463.68 483.988966 
" clip-path="url(#p4019ba35e9)" style="fill: none; stroke-dasharray: 1.85,0.8; stroke-dashoffset: 0; stroke: #b2b2b2; stroke-width: 0.5"/>
     </g>
     <g id="line2d_76">
      <g>
       <use xlink:href="#m50d9b0c9b6" x="463.68" y="576.72" style="stroke: #000000; stroke-width: 0.8"/>
      </g>
     </g>
     <g id="text_16">
      <!-- 100 ns -->
      <g transform="translate(440.01125 590.857813) scale(0.14 -0.14)">
       <use xlink:href="#DejaVuSans-31"/>
       <use xlink:href="#DejaVuSans-30" x="63.623047"/>
       <use xlink:href="#DejaVuSans-30" x="127.246094"/>
       <use xlink:href="#DejaVuSans-20" x="190.869141"/>
       <use xlink:href="#DejaVuSans-6e" x="222.65625"/>
       <use xlink:href="#DejaVuSans-73" x="286.035156"/>
      </g>
     </g>
    </g>
    <g id="xtick_28">
     <g id="line2d_77">
      <path d="M 624.96 576.72 
L 624.96 483.988966 
" clip-path="url(#p4019ba35e9)" style="fill: none; stroke-dasharray: 1.85,0.8; stroke-dashoffset: 0; stroke: #b2b2b2; stroke-width: 0.5"/>
     </g>
     <g id="line2d_78">
      <g>
       <use xlink:href="#m50d9b0c9b6" x="624.96" y="576.72" style="stroke: #000000; stroke-width: 0.8"/>
      </g>
     </g>
     <g id="text_17">
      <!-- 150 ns -->
      <g transform="translate(601.29125 590.857813) scale(0.14 -0.14)">
       <use xlink:href="#DejaVuSans-31"/>
       <use xlink:href="#DejaVuSans-35" x="63.623047"/>
       <use xlink:href="#DejaVuSans-30" x="127.246094"/>
       <use xlink:href="#DejaVuSans-20" x="190.869141"/>
       <use xlink:href="#DejaVuSans-6e" x="222.65625"/>
       <use xlink:href="#DejaVuSans-73" x="286.035156"/>
      </g>
     </g>
    </g>
    <g id="xtick_29">
     <g id="line2d_79">
      <path d="M 786.24 576.72 
L 786.24 483.988966 
" clip-path="url(#p4019ba35e9)" style="fill: none; stroke-dasharray: 1.85,0.8; stroke-dashoffset: 0; stroke: #b2b2b2; stroke-width: 0.5"/>
     </g>
     <g id="line2d_80">
      <g>
       <use xlink:href="#m50d9b0c9b6" x="786.24" y="576.72" style="stroke: #000000; stroke-width: 0.8"/>
      </g>
     </g>
     <g id="text_18">
      <!-- 200 ns -->
      <g transform="translate(762.57125 590.857813) scale(0.14 -0.14)">
       <use xlink:href="#DejaVuSans-32"/>
       <use xlink:href="#DejaVuSans-30" x="63.623047"/>
       <use xlink:href="#DejaVuSans-30" x="127.246094"/>
       <use xlink:href="#DejaVuSans-20" x="190.869141"/>
       <use xlink:href="#DejaVuSans-6e" x="222.65625"/>
       <use xlink:href="#DejaVuSans-73" x="286.035156"/>
      </g>
     </g>
    </g>
    <g id="xtick_30">
     <g id="line2d_81">
      <path d="M 947.52 576.72 
L 947.52 483.988966 
" clip-path="url(#p4019ba35e9)" style="fill: none; stroke-dasharray: 1.85,0.8; stroke-dashoffset: 0; stroke: #b2b2b2; stroke-width: 0.5"/>
     </g>
     <g id="line2d_82">
      <g>
       <use xlink:href="#m50d9b0c9b6" x="947.52" y="576.72" style="stroke: #000000; stroke-width: 0.8"/>
      </g>
     </g>
     <g id="text_19">
      <!-- 250 ns -->
      <g transform="translate(923.85125 590.857813) scale(0.14 -0.14)">
       <use xlink:href="#DejaVuSans-32"/>
       <use xlink:href="#DejaVuSans-35" x="63.623047"/>
       <use xlink:href="#DejaVuSans-30" x="127.246094"/>
       <use xlink:href="#DejaVuSans-20" x="190.869141"/>
       <use xlink:href="#DejaVuSans-6e" x="222.65625"/>
       <use xlink:href="#DejaVuSans-73" x="286.035156"/>
      </g>
     </g>
    </g>
    <g id="text_20">
     <!-- Time -->
     <g transform="translate(527.192969 608.407187) scale(0.14 -0.14)">
      <defs>
       <path id="DejaVuSans-69" d="M 603 3500 
L 1178 3500 
L 1178 0 
L 603 0 
L 603 3500 
z
M 603 4863 
L 1178 4863 
L 1178 4134 
L 603 4134 
L 603 4863 
z
" transform="scale(0.015625)"/>
       <path id="DejaVuSans-6d" d="M 3328 2828 
Q 3544 3216 3844 3400 
Q 4144 3584 4550 3584 
Q 5097 3584 5394 3201 
Q 5691 2819 5691 2113 
L 5691 0 
L 5113 0 
L 5113 2094 
Q 5113 2597 4934 2840 
Q 4756 3084 4391 3084 
Q 3944 3084 3684 2787 
Q 3425 2491 3425 1978 
L 3425 0 
L 2847 0 
L 2847 2094 
Q 2847 2600 2669 2842 
Q 2491 3084 2119 3084 
Q 1678 3084 1418 2786 
Q 1159 2488 1159 1978 
L 1159 0 
L 581 0 
L 581 3500 
L 1159 3500 
L 1159 2956 
Q 1356 3278 1631 3431 
Q 1906 3584 2284 3584 
Q 2666 3584 2933 3390 
Q 3200 3197 3328 2828 
z
" transform="scale(0.015625)"/>
       <path id="DejaVuSans-65" d="M 3597 1894 
L 3597 1613 
L 953 1613 
Q 991 1019 1311 708 
Q 1631 397 2203 397 
Q 2534 397 2845 478 
Q 3156 559 3463 722 
L 3463 178 
Q 3153 47 2828 -22 
Q 2503 -91 2169 -91 
Q 1331 -91 842 396 
Q 353 884 353 1716 
Q 353 2575 817 3079 
Q 1281 3584 2069 3584 
Q 2775 3584 3186 3129 
Q 3597 2675 3597 1894 
z
M 3022 2063 
Q 3016 2534 2758 2815 
Q 2500 3097 2075 3097 
Q 1594 3097 1305 2825 
Q 1016 2553 972 2059 
L 3022 2063 
z
" transform="scale(0.015625)"/>
      </defs>
      <use xlink:href="#DejaVuSans-54"/>
      <use xlink:href="#DejaVuSans-69" x="57.958984"/>
      <use xlink:href="#DejaVuSans-6d" x="85.742188"/>
      <use xlink:href="#DejaVuSans-65" x="183.154297"/>
     </g>
    </g>
   </g>
   <g id="matplotlib.axis_10">
    <g id="ytick_10">
     <g id="line2d_83">
      <path d="M 100.8 569.737898 
L 987.84 569.737898 
" clip-path="url(#p4019ba35e9)" style="fill: none; stroke-dasharray: 1.85,0.8; stroke-dashoffset: 0; stroke: #b2b2b2; stroke-width: 0.5"/>
     </g>
     <g id="line2d_84">
      <g>
       <use xlink:href="#m9e8c4d5fb2" x="100.8" y="569.737898" style="stroke: #000000; stroke-width: 0.8"/>
      </g>
     </g>
     <g id="text_21">
      <!-- 0 V -->
      <g transform="translate(74.36625 575.056805) scale(0.14 -0.14)">
       <use xlink:href="#DejaVuSans-30"/>
       <use xlink:href="#DejaVuSans-20" x="63.623047"/>
       <use xlink:href="#DejaVuSans-56" x="95.410156"/>
      </g>
     </g>
    </g>
    <g id="ytick_11">
     <g id="line2d_85">
      <path d="M 100.8 535.84453 
L 987.84 535.84453 
" clip-path="url(#p4019ba35e9)" style="fill: none; stroke-dasharray: 1.85,0.8; stroke-dashoffset: 0; stroke: #b2b2b2; stroke-width: 0.5"/>
     </g>
     <g id="line2d_86">
      <g>
       <use xlink:href="#m9e8c4d5fb2" x="100.8" y="535.84453" style="stroke: #000000; stroke-width: 0.8"/>
      </g>
     </g>
     <g id="text_22">
      <!-- 500 mV -->
      <g transform="translate(42.914375 541.163437) scale(0.14 -0.14)">
       <use xlink:href="#DejaVuSans-35"/>
       <use xlink:href="#DejaVuSans-30" x="63.623047"/>
       <use xlink:href="#DejaVuSans-30" x="127.246094"/>
       <use xlink:href="#DejaVuSans-20" x="190.869141"/>
       <use xlink:href="#DejaVuSans-6d" x="222.65625"/>
       <use xlink:href="#DejaVuSans-56" x="320.068359"/>
      </g>
     </g>
    </g>
    <g id="ytick_12">
     <g id="line2d_87">
      <path d="M 100.8 501.951163 
L 987.84 501.951163 
" clip-path="url(#p4019ba35e9)" style="fill: none; stroke-dasharray: 1.85,0.8; stroke-dashoffset: 0; stroke: #b2b2b2; stroke-width: 0.5"/>
     </g>
     <g id="line2d_88">
      <g>
       <use xlink:href="#m9e8c4d5fb2" x="100.8" y="501.951163" style="stroke: #000000; stroke-width: 0.8"/>
      </g>
     </g>
     <g id="text_23">
      <!-- 1 V -->
      <g transform="translate(74.36625 507.270069) scale(0.14 -0.14)">
       <use xlink:href="#DejaVuSans-31"/>
       <use xlink:href="#DejaVuSans-20" x="63.623047"/>
       <use xlink:href="#DejaVuSans-56" x="95.410156"/>
      </g>
     </g>
    </g>
    <g id="text_24">
     <g id="patch_27">
      <path d="M 34.8768 554.329483 
L 34.8768 506.379483 
L 11.247425 506.379483 
L 11.247425 554.329483 
z
" style="fill: #ffff00; opacity: 0.2; stroke: #eeeeee; stroke-width: 0.5; stroke-linejoin: miter"/>
     </g>
     <!-- FOUT -->
     <g transform="translate(26.925238 549.289483) rotate(-90) scale(0.14 -0.14)">
      <use xlink:href="#DejaVuSans-46"/>
      <use xlink:href="#DejaVuSans-4f" x="57.519531"/>
      <use xlink:href="#DejaVuSans-55" x="136.230469"/>
      <use xlink:href="#DejaVuSans-54" x="209.423828"/>
     </g>
    </g>
   </g>
   <g id="line2d_89">
    <path d="M 141.12 488.393815 
L 173.472768 488.400594 
L 173.505024 488.204013 
L 173.569536 526.657394 
L 173.69856 572.504953 
L 173.730816 572.369108 
L 173.827584 567.828617 
L 173.892096 569.351799 
L 174.053376 570.057126 
L 174.117888 569.939259 
L 174.408192 569.483332 
L 174.440448 569.532932 
L 174.66624 569.721921 
L 176.182272 569.732147 
L 180.085248 569.753796 
L 193.568256 569.74419 
L 212.8896 569.73602 
L 255.30624 569.735711 
L 255.6288 488.285357 
L 255.854592 488.427709 
L 256.209408 488.387037 
L 334.849536 488.407373 
L 334.881792 492.623708 
L 335.043072 572.18283 
L 335.107584 570.254711 
L 335.172096 568.326579 
L 335.236608 568.859586 
L 335.365632 570.778018 
L 335.430144 570.404018 
L 335.591424 569.789374 
L 335.881728 569.64017 
L 336.559104 569.810146 
L 337.107456 569.738156 
L 349.9776 569.736214 
L 441.004032 569.756528 
L 441.036288 569.314258 
L 441.1008 555.489804 
L 441.294336 488.712413 
L 441.455616 488.400594 
L 442.003968 488.393815 
L 443.03616 488.393815 
L 443.165184 528.345962 
L 443.326464 572.098707 
L 443.390976 569.720008 
L 443.616768 569.736212 
L 496.7424 569.717072 
L 496.806912 562.889404 
L 497.000448 488.705634 
L 497.161728 488.393815 
L 947.52 488.393815 
L 947.52 488.393815 
" clip-path="url(#p4019ba35e9)" style="fill: none; stroke: #ff00ff; stroke-width: 2; stroke-linecap: square"/>
   </g>
   <g id="patch_28">
    <path d="M 100.8 576.72 
L 100.8 483.988966 
" style="fill: none; stroke: #bcbcbc; stroke-width: 0.8; stroke-linejoin: miter; stroke-linecap: square"/>
   </g>
   <g id="patch_29">
    <path d="M 987.84 576.72 
L 987.84 483.988966 
" style="fill: none; stroke: #bcbcbc; stroke-width: 0.8; stroke-linejoin: miter; stroke-linecap: square"/>
   </g>
   <g id="patch_30">
    <path d="M 100.8 576.72 
L 987.84 576.72 
" style="fill: none; stroke: #bcbcbc; stroke-width: 0.8; stroke-linejoin: miter; stroke-linecap: square"/>
   </g>
   <g id="patch_31">
    <path d="M 100.8 483.988966 
L 987.84 483.988966 
" style="fill: none; stroke: #bcbcbc; stroke-width: 0.8; stroke-linejoin: miter; stroke-linecap: square"/>
   </g>
  </g>
  <g id="axes_6">
   <g id="patch_32">
    <path d="M 201.6 628.56 
L 856.8 628.56 
L 856.8 615.6 
L 201.6 615.6 
z
" clip-path="url(#p5726e11c60)" style="fill: #d3d3d3"/>
   </g>
   <g id="patch_33">
    <path d="M 201.6 628.56 
L 477.72 628.56 
L 477.72 615.6 
L 201.6 615.6 
z
" clip-path="url(#p5726e11c60)" style="fill: #0000ff"/>
   </g>
   <g id="line2d_90">
    <path d="M 201.6 635.04 
L 201.6 609.12 
" clip-path="url(#pa6dd0952d3)" style="fill: none; stroke: #ff0000; stroke-linecap: square"/>
   </g>
   <g id="line2d_91">
    <defs>
     <path id="m70b404f923" d="M 0 5 
C 1.326016 5 2.597899 4.473168 3.535534 3.535534 
C 4.473168 2.597899 5 1.326016 5 0 
C 5 -1.326016 4.473168 -2.597899 3.535534 -3.535534 
C 2.597899 -4.473168 1.326016 -5 0 -5 
C -1.326016 -5 -2.597899 -4.473168 -3.535534 -3.535534 
C -4.473168 -2.597899 -5 -1.326016 -5 0 
C -5 1.326016 -4.473168 2.597899 -3.535534 3.535534 
C -2.597899 4.473168 -1.326016 5 0 5 
z
" style="stroke: #bfbfbf"/>
    </defs>
    <g>
     <use xlink:href="#m70b404f923" x="477.72" y="622.08" style="fill: #ffffff; stroke: #bfbfbf"/>
    </g>
   </g>
   <g id="text_25">
    <!-- #Sweep -->
    <g transform="translate(138.622875 625.39125) scale(0.12 -0.12)">
     <defs>
      <path id="DejaVuSans-23" d="M 3272 2816 
L 2363 2816 
L 2100 1772 
L 3016 1772 
L 3272 2816 
z
M 2803 4594 
L 2478 3297 
L 3391 3297 
L 3719 4594 
L 4219 4594 
L 3897 3297 
L 4872 3297 
L 4872 2816 
L 3775 2816 
L 3519 1772 
L 4513 1772 
L 4513 1294 
L 3397 1294 
L 3072 0 
L 2572 0 
L 2894 1294 
L 1978 1294 
L 1656 0 
L 1153 0 
L 1478 1294 
L 494 1294 
L 494 1772 
L 1594 1772 
L 1856 2816 
L 850 2816 
L 850 3297 
L 1978 3297 
L 2297 4594 
L 2803 4594 
z
" transform="scale(0.015625)"/>
      <path id="DejaVuSans-77" d="M 269 3500 
L 844 3500 
L 1563 769 
L 2278 3500 
L 2956 3500 
L 3675 769 
L 4391 3500 
L 4966 3500 
L 4050 0 
L 3372 0 
L 2619 2869 
L 1863 0 
L 1184 0 
L 269 3500 
z
" transform="scale(0.015625)"/>
      <path id="DejaVuSans-70" d="M 1159 525 
L 1159 -1331 
L 581 -1331 
L 581 3500 
L 1159 3500 
L 1159 2969 
Q 1341 3281 1617 3432 
Q 1894 3584 2278 3584 
Q 2916 3584 3314 3078 
Q 3713 2572 3713 1747 
Q 3713 922 3314 415 
Q 2916 -91 2278 -91 
Q 1894 -91 1617 61 
Q 1341 213 1159 525 
z
M 3116 1747 
Q 3116 2381 2855 2742 
Q 2594 3103 2138 3103 
Q 1681 3103 1420 2742 
Q 1159 2381 1159 1747 
Q 1159 1113 1420 752 
Q 1681 391 2138 391 
Q 2594 391 2855 752 
Q 3116 1113 3116 1747 
z
" transform="scale(0.015625)"/>
     </defs>
     <use xlink:href="#DejaVuSans-23"/>
     <use xlink:href="#DejaVuSans-53" x="83.789062"/>
     <use xlink:href="#DejaVuSans-77" x="147.265625"/>
     <use xlink:href="#DejaVuSans-65" x="229.052734"/>
     <use xlink:href="#DejaVuSans-65" x="290.576172"/>
     <use xlink:href="#DejaVuSans-70" x="352.099609"/>
    </g>
   </g>
   <g id="text_26">
    <!-- $\mathdefault{59}$ -->
    <g transform="translate(869.904 625.39125) scale(0.12 -0.12)">
     <defs>
      <path id="DejaVuSans-39" d="M 703 97 
L 703 672 
Q 941 559 1184 500 
Q 1428 441 1663 441 
Q 2288 441 2617 861 
Q 2947 1281 2994 2138 
Q 2813 1869 2534 1725 
Q 2256 1581 1919 1581 
Q 1219 1581 811 2004 
Q 403 2428 403 3163 
Q 403 3881 828 4315 
Q 1253 4750 1959 4750 
Q 2769 4750 3195 4129 
Q 3622 3509 3622 2328 
Q 3622 1225 3098 567 
Q 2575 -91 1691 -91 
Q 1453 -91 1209 -44 
Q 966 3 703 97 
z
M 1959 2075 
Q 2384 2075 2632 2365 
Q 2881 2656 2881 3163 
Q 2881 3666 2632 3958 
Q 2384 4250 1959 4250 
Q 1534 4250 1286 3958 
Q 1038 3666 1038 3163 
Q 1038 2656 1286 2365 
Q 1534 2075 1959 2075 
z
" transform="scale(0.015625)"/>
     </defs>
     <use xlink:href="#DejaVuSans-35" transform="translate(0 0.78125)"/>
     <use xlink:href="#DejaVuSans-39" transform="translate(58.123047 0.78125)"/>
    </g>
   </g>
  </g>
  <g id="text_27">
   <!-- DFF under BBI sweep analysis (Sweep = 69E-9) -->
   <g transform="translate(313.34625 25.1175) scale(0.16 -0.16)">
    <defs>
     <path id="DejaVuSans-75" d="M 544 1381 
L 544 3500 
L 1119 3500 
L 1119 1403 
Q 1119 906 1312 657 
Q 1506 409 1894 409 
Q 2359 409 2629 706 
Q 2900 1003 2900 1516 
L 2900 3500 
L 3475 3500 
L 3475 0 
L 2900 0 
L 2900 538 
Q 2691 219 2414 64 
Q 2138 -91 1772 -91 
Q 1169 -91 856 284 
Q 544 659 544 1381 
z
M 1991 3584 
L 1991 3584 
z
" transform="scale(0.015625)"/>
     <path id="DejaVuSans-64" d="M 2906 2969 
L 2906 4863 
L 3481 4863 
L 3481 0 
L 2906 0 
L 2906 525 
Q 2725 213 2448 61 
Q 2172 -91 1784 -91 
Q 1150 -91 751 415 
Q 353 922 353 1747 
Q 353 2572 751 3078 
Q 1150 3584 1784 3584 
Q 2172 3584 2448 3432 
Q 2725 3281 2906 2969 
z
M 947 1747 
Q 947 1113 1208 752 
Q 1469 391 1925 391 
Q 2381 391 2643 752 
Q 2906 1113 2906 1747 
Q 2906 2381 2643 2742 
Q 2381 3103 1925 3103 
Q 1469 3103 1208 2742 
Q 947 2381 947 1747 
z
" transform="scale(0.015625)"/>
     <path id="DejaVuSans-72" d="M 2631 2963 
Q 2534 3019 2420 3045 
Q 2306 3072 2169 3072 
Q 1681 3072 1420 2755 
Q 1159 2438 1159 1844 
L 1159 0 
L 581 0 
L 581 3500 
L 1159 3500 
L 1159 2956 
Q 1341 3275 1631 3429 
Q 1922 3584 2338 3584 
Q 2397 3584 2469 3576 
Q 2541 3569 2628 3553 
L 2631 2963 
z
" transform="scale(0.015625)"/>
     <path id="DejaVuSans-61" d="M 2194 1759 
Q 1497 1759 1228 1600 
Q 959 1441 959 1056 
Q 959 750 1161 570 
Q 1363 391 1709 391 
Q 2188 391 2477 730 
Q 2766 1069 2766 1631 
L 2766 1759 
L 2194 1759 
z
M 3341 1997 
L 3341 0 
L 2766 0 
L 2766 531 
Q 2569 213 2275 61 
Q 1981 -91 1556 -91 
Q 1019 -91 701 211 
Q 384 513 384 1019 
Q 384 1609 779 1909 
Q 1175 2209 1959 2209 
L 2766 2209 
L 2766 2266 
Q 2766 2663 2505 2880 
Q 2244 3097 1772 3097 
Q 1472 3097 1187 3025 
Q 903 2953 641 2809 
L 641 3341 
Q 956 3463 1253 3523 
Q 1550 3584 1831 3584 
Q 2591 3584 2966 3190 
Q 3341 2797 3341 1997 
z
" transform="scale(0.015625)"/>
     <path id="DejaVuSans-6c" d="M 603 4863 
L 1178 4863 
L 1178 0 
L 603 0 
L 603 4863 
z
" transform="scale(0.015625)"/>
     <path id="DejaVuSans-79" d="M 2059 -325 
Q 1816 -950 1584 -1140 
Q 1353 -1331 966 -1331 
L 506 -1331 
L 506 -850 
L 844 -850 
Q 1081 -850 1212 -737 
Q 1344 -625 1503 -206 
L 1606 56 
L 191 3500 
L 800 3500 
L 1894 763 
L 2988 3500 
L 3597 3500 
L 2059 -325 
z
" transform="scale(0.015625)"/>
     <path id="DejaVuSans-28" d="M 1984 4856 
Q 1566 4138 1362 3434 
Q 1159 2731 1159 2009 
Q 1159 1288 1364 580 
Q 1569 -128 1984 -844 
L 1484 -844 
Q 1016 -109 783 600 
Q 550 1309 550 2009 
Q 550 2706 781 3412 
Q 1013 4119 1484 4856 
L 1984 4856 
z
" transform="scale(0.015625)"/>
     <path id="DejaVuSans-3d" d="M 678 2906 
L 4684 2906 
L 4684 2381 
L 678 2381 
L 678 2906 
z
M 678 1631 
L 4684 1631 
L 4684 1100 
L 678 1100 
L 678 1631 
z
" transform="scale(0.015625)"/>
     <path id="DejaVuSans-36" d="M 2113 2584 
Q 1688 2584 1439 2293 
Q 1191 2003 1191 1497 
Q 1191 994 1439 701 
Q 1688 409 2113 409 
Q 2538 409 2786 701 
Q 3034 994 3034 1497 
Q 3034 2003 2786 2293 
Q 2538 2584 2113 2584 
z
M 3366 4563 
L 3366 3988 
Q 3128 4100 2886 4159 
Q 2644 4219 2406 4219 
Q 1781 4219 1451 3797 
Q 1122 3375 1075 2522 
Q 1259 2794 1537 2939 
Q 1816 3084 2150 3084 
Q 2853 3084 3261 2657 
Q 3669 2231 3669 1497 
Q 3669 778 3244 343 
Q 2819 -91 2113 -91 
Q 1303 -91 875 529 
Q 447 1150 447 2328 
Q 447 3434 972 4092 
Q 1497 4750 2381 4750 
Q 2619 4750 2861 4703 
Q 3103 4656 3366 4563 
z
" transform="scale(0.015625)"/>
     <path id="DejaVuSans-2d" d="M 313 2009 
L 1997 2009 
L 1997 1497 
L 313 1497 
L 313 2009 
z
" transform="scale(0.015625)"/>
     <path id="DejaVuSans-29" d="M 513 4856 
L 1013 4856 
Q 1481 4119 1714 3412 
Q 1947 2706 1947 2009 
Q 1947 1309 1714 600 
Q 1481 -109 1013 -844 
L 513 -844 
Q 928 -128 1133 580 
Q 1338 1288 1338 2009 
Q 1338 2731 1133 3434 
Q 928 4138 513 4856 
z
" transform="scale(0.015625)"/>
    </defs>
    <use xlink:href="#DejaVuSans-44"/>
    <use xlink:href="#DejaVuSans-46" x="77.001953"/>
    <use xlink:href="#DejaVuSans-46" x="134.521484"/>
    <use xlink:href="#DejaVuSans-20" x="192.041016"/>
    <use xlink:href="#DejaVuSans-75" x="223.828125"/>
    <use xlink:href="#DejaVuSans-6e" x="287.207031"/>
    <use xlink:href="#DejaVuSans-64" x="350.585938"/>
    <use xlink:href="#DejaVuSans-65" x="414.0625"/>
    <use xlink:href="#DejaVuSans-72" x="475.585938"/>
    <use xlink:href="#DejaVuSans-20" x="516.699219"/>
    <use xlink:href="#DejaVuSans-42" x="548.486328"/>
    <use xlink:href="#DejaVuSans-42" x="617.089844"/>
    <use xlink:href="#DejaVuSans-49" x="685.693359"/>
    <use xlink:href="#DejaVuSans-20" x="715.185547"/>
    <use xlink:href="#DejaVuSans-73" x="746.972656"/>
    <use xlink:href="#DejaVuSans-77" x="799.072266"/>
    <use xlink:href="#DejaVuSans-65" x="880.859375"/>
    <use xlink:href="#DejaVuSans-65" x="942.382812"/>
    <use xlink:href="#DejaVuSans-70" x="1003.90625"/>
    <use xlink:href="#DejaVuSans-20" x="1067.382812"/>
    <use xlink:href="#DejaVuSans-61" x="1099.169922"/>
    <use xlink:href="#DejaVuSans-6e" x="1160.449219"/>
    <use xlink:href="#DejaVuSans-61" x="1223.828125"/>
    <use xlink:href="#DejaVuSans-6c" x="1285.107422"/>
    <use xlink:href="#DejaVuSans-79" x="1312.890625"/>
    <use xlink:href="#DejaVuSans-73" x="1372.070312"/>
    <use xlink:href="#DejaVuSans-69" x="1424.169922"/>
    <use xlink:href="#DejaVuSans-73" x="1451.953125"/>
    <use xlink:href="#DejaVuSans-20" x="1504.052734"/>
    <use xlink:href="#DejaVuSans-28" x="1535.839844"/>
    <use xlink:href="#DejaVuSans-53" x="1574.853516"/>
    <use xlink:href="#DejaVuSans-77" x="1638.330078"/>
    <use xlink:href="#DejaVuSans-65" x="1720.117188"/>
    <use xlink:href="#DejaVuSans-65" x="1781.640625"/>
    <use xlink:href="#DejaVuSans-70" x="1843.164062"/>
    <use xlink:href="#DejaVuSans-20" x="1906.640625"/>
    <use xlink:href="#DejaVuSans-3d" x="1938.427734"/>
    <use xlink:href="#DejaVuSans-20" x="2022.216797"/>
    <use xlink:href="#DejaVuSans-36" x="2054.003906"/>
    <use xlink:href="#DejaVuSans-39" x="2117.626953"/>
    <use xlink:href="#DejaVuSans-45" x="2181.25"/>
    <use xlink:href="#DejaVuSans-2d" x="2244.433594"/>
    <use xlink:href="#DejaVuSans-39" x="2280.517578"/>
    <use xlink:href="#DejaVuSans-29" x="2344.140625"/>
   </g>
  </g>
 </g>
 <defs>
  <clipPath id="p7a344f55ad">
   <rect x="100.8" y="38.88" width="887.04" height="92.731034"/>
  </clipPath>
  <clipPath id="p57224ba18f">
   <rect x="100.8" y="150.157241" width="887.04" height="92.731034"/>
  </clipPath>
  <clipPath id="p898e3ab73b">
   <rect x="100.8" y="261.434483" width="887.04" height="92.731034"/>
  </clipPath>
  <clipPath id="p67729daad3">
   <rect x="100.8" y="372.711724" width="887.04" height="92.731034"/>
  </clipPath>
  <clipPath id="p4019ba35e9">
   <rect x="100.8" y="483.988966" width="887.04" height="92.731034"/>
  </clipPath>
  <clipPath id="p5726e11c60">
   <rect x="201.6" y="609.12" width="655.2" height="25.92"/>
  </clipPath>
  <clipPath id="pa6dd0952d3">
   <path d="M 201.6 628.56 
L 856.8 628.56 
L 856.8 615.6 
L 201.6 615.6 
z
"/>
  </clipPath>
 </defs>
</svg>
