<?xml version="1.0" encoding="utf-8" standalone="no"?>
<!DOCTYPE svg PUBLIC "-//W3C//DTD SVG 1.1//EN"
  "http://www.w3.org/Graphics/SVG/1.1/DTD/svg11.dtd">
<svg xmlns:xlink="http://www.w3.org/1999/xlink" width="1008pt" height="648pt" viewBox="0 0 1008 648" xmlns="http://www.w3.org/2000/svg" version="1.1">
 <metadata>
  <rdf:RDF xmlns:dc="http://purl.org/dc/elements/1.1/" xmlns:cc="http://creativecommons.org/ns#" xmlns:rdf="http://www.w3.org/1999/02/22-rdf-syntax-ns#">
   <cc:Work>
    <dc:type rdf:resource="http://purl.org/dc/dcmitype/StillImage"/>
    <dc:date>2024-06-03T10:45:35.674209</dc:date>
    <dc:format>image/svg+xml</dc:format>
    <dc:creator>
     <cc:Agent>
      <dc:title>Matplotlib v3.9.0, https://matplotlib.org/</dc:title>
     </cc:Agent>
    </dc:creator>
   </cc:Work>
  </rdf:RDF>
 </metadata>
 <defs>
  <style type="text/css">*{stroke-linejoin: round; stroke-linecap: butt}</style>
 </defs>
 <g id="figure_1">
  <g id="patch_1">
   <path d="M 0 648 
L 1008 648 
L 1008 0 
L 0 0 
z
" style="fill: #ffffff"/>
  </g>
  <g id="axes_1">
   <g id="patch_2">
    <path d="M 100.8 131.611034 
L 987.84 131.611034 
L 987.84 38.88 
L 100.8 38.88 
z
" style="fill: #eeeeee"/>
   </g>
   <g id="matplotlib.axis_1">
    <g id="xtick_1">
     <g id="line2d_1">
      <path d="M 141.12 131.611034 
L 141.12 38.88 
" clip-path="url(#p22b1fb53d8)" style="fill: none; stroke-dasharray: 1.85,0.8; stroke-dashoffset: 0; stroke: #b2b2b2; stroke-width: 0.5"/>
     </g>
     <g id="line2d_2">
      <defs>
       <path id="m7cff879420" d="M 0 0 
L 0 -3.5 
" style="stroke: #000000; stroke-width: 0.8"/>
      </defs>
      <g>
       <use xlink:href="#m7cff879420" x="141.12" y="131.611034" style="stroke: #000000; stroke-width: 0.8"/>
      </g>
     </g>
    </g>
    <g id="xtick_2">
     <g id="line2d_3">
      <path d="M 302.4 131.611034 
L 302.4 38.88 
" clip-path="url(#p22b1fb53d8)" style="fill: none; stroke-dasharray: 1.85,0.8; stroke-dashoffset: 0; stroke: #b2b2b2; stroke-width: 0.5"/>
     </g>
     <g id="line2d_4">
      <g>
       <use xlink:href="#m7cff879420" x="302.4" y="131.611034" style="stroke: #000000; stroke-width: 0.8"/>
      </g>
     </g>
    </g>
    <g id="xtick_3">
     <g id="line2d_5">
      <path d="M 463.68 131.611034 
L 463.68 38.88 
" clip-path="url(#p22b1fb53d8)" style="fill: none; stroke-dasharray: 1.85,0.8; stroke-dashoffset: 0; stroke: #b2b2b2; stroke-width: 0.5"/>
     </g>
     <g id="line2d_6">
      <g>
       <use xlink:href="#m7cff879420" x="463.68" y="131.611034" style="stroke: #000000; stroke-width: 0.8"/>
      </g>
     </g>
    </g>
    <g id="xtick_4">
     <g id="line2d_7">
      <path d="M 624.96 131.611034 
L 624.96 38.88 
" clip-path="url(#p22b1fb53d8)" style="fill: none; stroke-dasharray: 1.85,0.8; stroke-dashoffset: 0; stroke: #b2b2b2; stroke-width: 0.5"/>
     </g>
     <g id="line2d_8">
      <g>
       <use xlink:href="#m7cff879420" x="624.96" y="131.611034" style="stroke: #000000; stroke-width: 0.8"/>
      </g>
     </g>
    </g>
    <g id="xtick_5">
     <g id="line2d_9">
      <path d="M 786.24 131.611034 
L 786.24 38.88 
" clip-path="url(#p22b1fb53d8)" style="fill: none; stroke-dasharray: 1.85,0.8; stroke-dashoffset: 0; stroke: #b2b2b2; stroke-width: 0.5"/>
     </g>
     <g id="line2d_10">
      <g>
       <use xlink:href="#m7cff879420" x="786.24" y="131.611034" style="stroke: #000000; stroke-width: 0.8"/>
      </g>
     </g>
    </g>
    <g id="xtick_6">
     <g id="line2d_11">
      <path d="M 947.52 131.611034 
L 947.52 38.88 
" clip-path="url(#p22b1fb53d8)" style="fill: none; stroke-dasharray: 1.85,0.8; stroke-dashoffset: 0; stroke: #b2b2b2; stroke-width: 0.5"/>
     </g>
     <g id="line2d_12">
      <g>
       <use xlink:href="#m7cff879420" x="947.52" y="131.611034" style="stroke: #000000; stroke-width: 0.8"/>
      </g>
     </g>
    </g>
   </g>
   <g id="matplotlib.axis_2">
    <g id="ytick_1">
     <g id="line2d_13">
      <path d="M 100.8 98.340394 
L 987.84 98.340394 
" clip-path="url(#p22b1fb53d8)" style="fill: none; stroke-dasharray: 1.85,0.8; stroke-dashoffset: 0; stroke: #b2b2b2; stroke-width: 0.5"/>
     </g>
     <g id="line2d_14">
      <defs>
       <path id="m363c788851" d="M 0 0 
L 3.5 0 
" style="stroke: #000000; stroke-width: 0.8"/>
      </defs>
      <g>
       <use xlink:href="#m363c788851" x="100.8" y="98.340394" style="stroke: #000000; stroke-width: 0.8"/>
      </g>
     </g>
     <g id="text_1">
      <!-- −200 V -->
      <g transform="translate(44.819688 103.6593) scale(0.14 -0.14)">
       <defs>
        <path id="DejaVuSans-2212" d="M 678 2272 
L 4684 2272 
L 4684 1741 
L 678 1741 
L 678 2272 
z
" transform="scale(0.015625)"/>
        <path id="DejaVuSans-32" d="M 1228 531 
L 3431 531 
L 3431 0 
L 469 0 
L 469 531 
Q 828 903 1448 1529 
Q 2069 2156 2228 2338 
Q 2531 2678 2651 2914 
Q 2772 3150 2772 3378 
Q 2772 3750 2511 3984 
Q 2250 4219 1831 4219 
Q 1534 4219 1204 4116 
Q 875 4013 500 3803 
L 500 4441 
Q 881 4594 1212 4672 
Q 1544 4750 1819 4750 
Q 2544 4750 2975 4387 
Q 3406 4025 3406 3419 
Q 3406 3131 3298 2873 
Q 3191 2616 2906 2266 
Q 2828 2175 2409 1742 
Q 1991 1309 1228 531 
z
" transform="scale(0.015625)"/>
        <path id="DejaVuSans-30" d="M 2034 4250 
Q 1547 4250 1301 3770 
Q 1056 3291 1056 2328 
Q 1056 1369 1301 889 
Q 1547 409 2034 409 
Q 2525 409 2770 889 
Q 3016 1369 3016 2328 
Q 3016 3291 2770 3770 
Q 2525 4250 2034 4250 
z
M 2034 4750 
Q 2819 4750 3233 4129 
Q 3647 3509 3647 2328 
Q 3647 1150 3233 529 
Q 2819 -91 2034 -91 
Q 1250 -91 836 529 
Q 422 1150 422 2328 
Q 422 3509 836 4129 
Q 1250 4750 2034 4750 
z
" transform="scale(0.015625)"/>
        <path id="DejaVuSans-20" transform="scale(0.015625)"/>
        <path id="DejaVuSans-56" d="M 1831 0 
L 50 4666 
L 709 4666 
L 2188 738 
L 3669 4666 
L 4325 4666 
L 2547 0 
L 1831 0 
z
" transform="scale(0.015625)"/>
       </defs>
       <use xlink:href="#DejaVuSans-2212"/>
       <use xlink:href="#DejaVuSans-32" x="83.789062"/>
       <use xlink:href="#DejaVuSans-30" x="147.412109"/>
       <use xlink:href="#DejaVuSans-30" x="211.035156"/>
       <use xlink:href="#DejaVuSans-20" x="274.658203"/>
       <use xlink:href="#DejaVuSans-56" x="306.445312"/>
      </g>
     </g>
    </g>
    <g id="ytick_2">
     <g id="line2d_15">
      <path d="M 100.8 45.027377 
L 987.84 45.027377 
" clip-path="url(#p22b1fb53d8)" style="fill: none; stroke-dasharray: 1.85,0.8; stroke-dashoffset: 0; stroke: #b2b2b2; stroke-width: 0.5"/>
     </g>
     <g id="line2d_16">
      <g>
       <use xlink:href="#m363c788851" x="100.8" y="45.027377" style="stroke: #000000; stroke-width: 0.8"/>
      </g>
     </g>
     <g id="text_2">
      <!-- 0 V -->
      <g transform="translate(74.36625 50.346284) scale(0.14 -0.14)">
       <use xlink:href="#DejaVuSans-30"/>
       <use xlink:href="#DejaVuSans-20" x="63.623047"/>
       <use xlink:href="#DejaVuSans-56" x="95.410156"/>
      </g>
     </g>
    </g>
    <g id="text_3">
     <g id="patch_3">
      <path d="M 34.8768 131.080205 
L 34.8768 39.41083 
L 11.247425 39.41083 
L 11.247425 131.080205 
z
" style="fill: #ffff00; opacity: 0.2; stroke: #eeeeee; stroke-width: 0.5; stroke-linejoin: miter"/>
     </g>
     <!-- VPULSE BBI -->
     <g transform="translate(26.925238 126.040205) rotate(-90) scale(0.14 -0.14)">
      <defs>
       <path id="DejaVuSans-50" d="M 1259 4147 
L 1259 2394 
L 2053 2394 
Q 2494 2394 2734 2622 
Q 2975 2850 2975 3272 
Q 2975 3691 2734 3919 
Q 2494 4147 2053 4147 
L 1259 4147 
z
M 628 4666 
L 2053 4666 
Q 2838 4666 3239 4311 
Q 3641 3956 3641 3272 
Q 3641 2581 3239 2228 
Q 2838 1875 2053 1875 
L 1259 1875 
L 1259 0 
L 628 0 
L 628 4666 
z
" transform="scale(0.015625)"/>
       <path id="DejaVuSans-55" d="M 556 4666 
L 1191 4666 
L 1191 1831 
Q 1191 1081 1462 751 
Q 1734 422 2344 422 
Q 2950 422 3222 751 
Q 3494 1081 3494 1831 
L 3494 4666 
L 4128 4666 
L 4128 1753 
Q 4128 841 3676 375 
Q 3225 -91 2344 -91 
Q 1459 -91 1007 375 
Q 556 841 556 1753 
L 556 4666 
z
" transform="scale(0.015625)"/>
       <path id="DejaVuSans-4c" d="M 628 4666 
L 1259 4666 
L 1259 531 
L 3531 531 
L 3531 0 
L 628 0 
L 628 4666 
z
" transform="scale(0.015625)"/>
       <path id="DejaVuSans-53" d="M 3425 4513 
L 3425 3897 
Q 3066 4069 2747 4153 
Q 2428 4238 2131 4238 
Q 1616 4238 1336 4038 
Q 1056 3838 1056 3469 
Q 1056 3159 1242 3001 
Q 1428 2844 1947 2747 
L 2328 2669 
Q 3034 2534 3370 2195 
Q 3706 1856 3706 1288 
Q 3706 609 3251 259 
Q 2797 -91 1919 -91 
Q 1588 -91 1214 -16 
Q 841 59 441 206 
L 441 856 
Q 825 641 1194 531 
Q 1563 422 1919 422 
Q 2459 422 2753 634 
Q 3047 847 3047 1241 
Q 3047 1584 2836 1778 
Q 2625 1972 2144 2069 
L 1759 2144 
Q 1053 2284 737 2584 
Q 422 2884 422 3419 
Q 422 4038 858 4394 
Q 1294 4750 2059 4750 
Q 2388 4750 2728 4690 
Q 3069 4631 3425 4513 
z
" transform="scale(0.015625)"/>
       <path id="DejaVuSans-45" d="M 628 4666 
L 3578 4666 
L 3578 4134 
L 1259 4134 
L 1259 2753 
L 3481 2753 
L 3481 2222 
L 1259 2222 
L 1259 531 
L 3634 531 
L 3634 0 
L 628 0 
L 628 4666 
z
" transform="scale(0.015625)"/>
       <path id="DejaVuSans-42" d="M 1259 2228 
L 1259 519 
L 2272 519 
Q 2781 519 3026 730 
Q 3272 941 3272 1375 
Q 3272 1813 3026 2020 
Q 2781 2228 2272 2228 
L 1259 2228 
z
M 1259 4147 
L 1259 2741 
L 2194 2741 
Q 2656 2741 2882 2914 
Q 3109 3088 3109 3444 
Q 3109 3797 2882 3972 
Q 2656 4147 2194 4147 
L 1259 4147 
z
M 628 4666 
L 2241 4666 
Q 2963 4666 3353 4366 
Q 3744 4066 3744 3513 
Q 3744 3084 3544 2831 
Q 3344 2578 2956 2516 
Q 3422 2416 3680 2098 
Q 3938 1781 3938 1306 
Q 3938 681 3513 340 
Q 3088 0 2303 0 
L 628 0 
L 628 4666 
z
" transform="scale(0.015625)"/>
       <path id="DejaVuSans-49" d="M 628 4666 
L 1259 4666 
L 1259 0 
L 628 0 
L 628 4666 
z
" transform="scale(0.015625)"/>
      </defs>
      <use xlink:href="#DejaVuSans-56"/>
      <use xlink:href="#DejaVuSans-50" x="68.408203"/>
      <use xlink:href="#DejaVuSans-55" x="128.710938"/>
      <use xlink:href="#DejaVuSans-4c" x="201.904297"/>
      <use xlink:href="#DejaVuSans-53" x="257.617188"/>
      <use xlink:href="#DejaVuSans-45" x="321.09375"/>
      <use xlink:href="#DejaVuSans-20" x="384.277344"/>
      <use xlink:href="#DejaVuSans-42" x="416.064453"/>
      <use xlink:href="#DejaVuSans-42" x="484.667969"/>
      <use xlink:href="#DejaVuSans-49" x="553.271484"/>
     </g>
    </g>
   </g>
   <g id="line2d_17">
    <path d="M 141.12 45.027377 
L 292.755456 45.136282 
L 293.239296 46.425538 
L 301.464576 69.006772 
L 308.883456 89.863624 
L 310.496256 94.440546 
L 312.302592 99.673219 
L 315.78624 110.807642 
L 317.366784 115.853719 
L 318.624768 119.566971 
L 319.850496 120.153414 
L 320.689152 120.545265 
L 321.721344 121.017085 
L 322.301952 121.272988 
L 323.172864 121.656841 
L 323.753472 121.912744 
L 324.592128 122.269941 
L 326.172672 122.936354 
L 326.817792 123.202919 
L 327.914496 123.629423 
L 328.656384 123.922644 
L 329.753088 124.349149 
L 330.656256 124.677024 
L 331.333632 124.943589 
L 332.140032 125.25547 
L 333.494784 125.804594 
L 336.139776 126.790885 
L 336.75264 127.022796 
L 338.688 127.395987 
L 357.170688 127.289361 
L 357.39648 126.801547 
L 375.685632 75.087922 
L 379.427328 63.292417 
L 383.136768 51.617666 
L 387.749376 49.3412 
L 393.103872 46.984578 
L 401.812992 43.484472 
L 402.683904 43.268927 
L 416.973312 43.108189 
L 423.779328 43.184799 
L 439.133184 43.746186 
L 466.9056 44.46146 
L 492.54912 44.774399 
L 528.159744 44.945888 
L 576.188928 44.953885 
L 947.52 44.953885 
L 947.52 44.953885 
" clip-path="url(#p22b1fb53d8)" style="fill: none; stroke: #ff0000; stroke-width: 2; stroke-linecap: square"/>
   </g>
   <g id="patch_4">
    <path d="M 100.8 131.611034 
L 100.8 38.88 
" style="fill: none; stroke: #bcbcbc; stroke-width: 0.8; stroke-linejoin: miter; stroke-linecap: square"/>
   </g>
   <g id="patch_5">
    <path d="M 987.84 131.611034 
L 987.84 38.88 
" style="fill: none; stroke: #bcbcbc; stroke-width: 0.8; stroke-linejoin: miter; stroke-linecap: square"/>
   </g>
   <g id="patch_6">
    <path d="M 100.8 131.611034 
L 987.84 131.611034 
" style="fill: none; stroke: #bcbcbc; stroke-width: 0.8; stroke-linejoin: miter; stroke-linecap: square"/>
   </g>
   <g id="patch_7">
    <path d="M 100.8 38.88 
L 987.84 38.88 
" style="fill: none; stroke: #bcbcbc; stroke-width: 0.8; stroke-linejoin: miter; stroke-linecap: square"/>
   </g>
  </g>
  <g id="axes_2">
   <g id="patch_8">
    <path d="M 100.8 242.888276 
L 987.84 242.888276 
L 987.84 150.157241 
L 100.8 150.157241 
z
" style="fill: #eeeeee"/>
   </g>
   <g id="matplotlib.axis_3">
    <g id="xtick_7">
     <g id="line2d_18">
      <path d="M 141.12 242.888276 
L 141.12 150.157241 
" clip-path="url(#p6dfda0a1e7)" style="fill: none; stroke-dasharray: 1.85,0.8; stroke-dashoffset: 0; stroke: #b2b2b2; stroke-width: 0.5"/>
     </g>
     <g id="line2d_19">
      <g>
       <use xlink:href="#m7cff879420" x="141.12" y="242.888276" style="stroke: #000000; stroke-width: 0.8"/>
      </g>
     </g>
    </g>
    <g id="xtick_8">
     <g id="line2d_20">
      <path d="M 302.4 242.888276 
L 302.4 150.157241 
" clip-path="url(#p6dfda0a1e7)" style="fill: none; stroke-dasharray: 1.85,0.8; stroke-dashoffset: 0; stroke: #b2b2b2; stroke-width: 0.5"/>
     </g>
     <g id="line2d_21">
      <g>
       <use xlink:href="#m7cff879420" x="302.4" y="242.888276" style="stroke: #000000; stroke-width: 0.8"/>
      </g>
     </g>
    </g>
    <g id="xtick_9">
     <g id="line2d_22">
      <path d="M 463.68 242.888276 
L 463.68 150.157241 
" clip-path="url(#p6dfda0a1e7)" style="fill: none; stroke-dasharray: 1.85,0.8; stroke-dashoffset: 0; stroke: #b2b2b2; stroke-width: 0.5"/>
     </g>
     <g id="line2d_23">
      <g>
       <use xlink:href="#m7cff879420" x="463.68" y="242.888276" style="stroke: #000000; stroke-width: 0.8"/>
      </g>
     </g>
    </g>
    <g id="xtick_10">
     <g id="line2d_24">
      <path d="M 624.96 242.888276 
L 624.96 150.157241 
" clip-path="url(#p6dfda0a1e7)" style="fill: none; stroke-dasharray: 1.85,0.8; stroke-dashoffset: 0; stroke: #b2b2b2; stroke-width: 0.5"/>
     </g>
     <g id="line2d_25">
      <g>
       <use xlink:href="#m7cff879420" x="624.96" y="242.888276" style="stroke: #000000; stroke-width: 0.8"/>
      </g>
     </g>
    </g>
    <g id="xtick_11">
     <g id="line2d_26">
      <path d="M 786.24 242.888276 
L 786.24 150.157241 
" clip-path="url(#p6dfda0a1e7)" style="fill: none; stroke-dasharray: 1.85,0.8; stroke-dashoffset: 0; stroke: #b2b2b2; stroke-width: 0.5"/>
     </g>
     <g id="line2d_27">
      <g>
       <use xlink:href="#m7cff879420" x="786.24" y="242.888276" style="stroke: #000000; stroke-width: 0.8"/>
      </g>
     </g>
    </g>
    <g id="xtick_12">
     <g id="line2d_28">
      <path d="M 947.52 242.888276 
L 947.52 150.157241 
" clip-path="url(#p6dfda0a1e7)" style="fill: none; stroke-dasharray: 1.85,0.8; stroke-dashoffset: 0; stroke: #b2b2b2; stroke-width: 0.5"/>
     </g>
     <g id="line2d_29">
      <g>
       <use xlink:href="#m7cff879420" x="947.52" y="242.888276" style="stroke: #000000; stroke-width: 0.8"/>
      </g>
     </g>
    </g>
   </g>
   <g id="matplotlib.axis_4">
    <g id="ytick_3">
     <g id="line2d_30">
      <path d="M 100.8 219.110555 
L 987.84 219.110555 
" clip-path="url(#p6dfda0a1e7)" style="fill: none; stroke-dasharray: 1.85,0.8; stroke-dashoffset: 0; stroke: #b2b2b2; stroke-width: 0.5"/>
     </g>
     <g id="line2d_31">
      <g>
       <use xlink:href="#m363c788851" x="100.8" y="219.110555" style="stroke: #000000; stroke-width: 0.8"/>
      </g>
     </g>
     <g id="text_4">
      <!-- 0 V -->
      <g transform="translate(74.36625 224.429461) scale(0.14 -0.14)">
       <use xlink:href="#DejaVuSans-30"/>
       <use xlink:href="#DejaVuSans-20" x="63.623047"/>
       <use xlink:href="#DejaVuSans-56" x="95.410156"/>
      </g>
     </g>
    </g>
    <g id="ytick_4">
     <g id="line2d_32">
      <path d="M 100.8 185.087922 
L 987.84 185.087922 
" clip-path="url(#p6dfda0a1e7)" style="fill: none; stroke-dasharray: 1.85,0.8; stroke-dashoffset: 0; stroke: #b2b2b2; stroke-width: 0.5"/>
     </g>
     <g id="line2d_33">
      <g>
       <use xlink:href="#m363c788851" x="100.8" y="185.087922" style="stroke: #000000; stroke-width: 0.8"/>
      </g>
     </g>
     <g id="text_5">
      <!-- 1 V -->
      <g transform="translate(74.36625 190.406828) scale(0.14 -0.14)">
       <defs>
        <path id="DejaVuSans-31" d="M 794 531 
L 1825 531 
L 1825 4091 
L 703 3866 
L 703 4441 
L 1819 4666 
L 2450 4666 
L 2450 531 
L 3481 531 
L 3481 0 
L 794 0 
L 794 531 
z
" transform="scale(0.015625)"/>
       </defs>
       <use xlink:href="#DejaVuSans-31"/>
       <use xlink:href="#DejaVuSans-20" x="63.623047"/>
       <use xlink:href="#DejaVuSans-56" x="95.410156"/>
      </g>
     </g>
    </g>
    <g id="ytick_5">
     <g id="line2d_34">
      <path d="M 100.8 151.065288 
L 987.84 151.065288 
" clip-path="url(#p6dfda0a1e7)" style="fill: none; stroke-dasharray: 1.85,0.8; stroke-dashoffset: 0; stroke: #b2b2b2; stroke-width: 0.5"/>
     </g>
     <g id="line2d_35">
      <g>
       <use xlink:href="#m363c788851" x="100.8" y="151.065288" style="stroke: #000000; stroke-width: 0.8"/>
      </g>
     </g>
     <g id="text_6">
      <!-- 2 V -->
      <g transform="translate(74.36625 156.384195) scale(0.14 -0.14)">
       <use xlink:href="#DejaVuSans-32"/>
       <use xlink:href="#DejaVuSans-20" x="63.623047"/>
       <use xlink:href="#DejaVuSans-56" x="95.410156"/>
      </g>
     </g>
    </g>
    <g id="text_7">
     <g id="patch_9">
      <path d="M 34.8768 224.531509 
L 34.8768 168.514009 
L 11.247425 168.514009 
L 11.247425 224.531509 
z
" style="fill: #ffff00; opacity: 0.2; stroke: #eeeeee; stroke-width: 0.5; stroke-linejoin: miter"/>
     </g>
     <!-- DFF IN -->
     <g transform="translate(26.925238 219.491509) rotate(-90) scale(0.14 -0.14)">
      <defs>
       <path id="DejaVuSans-44" d="M 1259 4147 
L 1259 519 
L 2022 519 
Q 2988 519 3436 956 
Q 3884 1394 3884 2338 
Q 3884 3275 3436 3711 
Q 2988 4147 2022 4147 
L 1259 4147 
z
M 628 4666 
L 1925 4666 
Q 3281 4666 3915 4102 
Q 4550 3538 4550 2338 
Q 4550 1131 3912 565 
Q 3275 0 1925 0 
L 628 0 
L 628 4666 
z
" transform="scale(0.015625)"/>
       <path id="DejaVuSans-46" d="M 628 4666 
L 3309 4666 
L 3309 4134 
L 1259 4134 
L 1259 2759 
L 3109 2759 
L 3109 2228 
L 1259 2228 
L 1259 0 
L 628 0 
L 628 4666 
z
" transform="scale(0.015625)"/>
       <path id="DejaVuSans-4e" d="M 628 4666 
L 1478 4666 
L 3547 763 
L 3547 4666 
L 4159 4666 
L 4159 0 
L 3309 0 
L 1241 3903 
L 1241 0 
L 628 0 
L 628 4666 
z
" transform="scale(0.015625)"/>
      </defs>
      <use xlink:href="#DejaVuSans-44"/>
      <use xlink:href="#DejaVuSans-46" x="77.001953"/>
      <use xlink:href="#DejaVuSans-46" x="134.521484"/>
      <use xlink:href="#DejaVuSans-20" x="192.041016"/>
      <use xlink:href="#DejaVuSans-49" x="223.828125"/>
      <use xlink:href="#DejaVuSans-4e" x="253.320312"/>
     </g>
    </g>
   </g>
   <g id="line2d_36">
    <path d="M 141.12 219.060868 
L 221.953536 219.014213 
L 224.437248 200.0572 
L 225.404928 194.290364 
L 228.243456 181.610809 
L 229.598208 180.338362 
L 231.178752 179.46398 
L 236.533248 179.008077 
L 243.5328 178.899205 
L 244.952064 178.858378 
L 248.145408 178.749505 
L 249.790464 178.684862 
L 251.887104 178.57599 
L 254.241792 178.228959 
L 254.757888 177.691401 
L 255.499776 177.351175 
L 256.338432 177.364784 
L 259.789824 177.980594 
L 262.467072 178.154109 
L 263.886336 178.201741 
L 264.144384 183.448031 
L 264.434688 187.017685 
L 265.176576 191.773029 
L 267.144192 209.130356 
L 268.402176 215.647391 
L 269.047296 216.93229 
L 270.46656 218.702079 
L 272.88576 219.059739 
L 292.852224 219.188664 
L 293.948928 220.275456 
L 294.594048 220.808454 
L 295.819776 221.408648 
L 296.948736 221.681135 
L 299.206656 221.872716 
L 300.690432 221.983494 
L 301.464576 222.291331 
L 302.754816 222.997981 
L 303.04512 223.135092 
L 304.109568 223.636246 
L 305.722368 224.520154 
L 307.206144 225.452374 
L 308.012544 225.681006 
L 308.625408 225.602073 
L 309.238272 225.252661 
L 309.98016 224.423189 
L 310.334976 224.15441 
L 310.560768 224.272809 
L 310.980096 224.963469 
L 311.59296 225.935155 
L 311.883264 226.225368 
L 312.141312 226.744213 
L 312.754176 228.337493 
L 314.302464 231.228736 
L 314.496 231.496495 
L 314.81856 232.237508 
L 315.46368 233.459941 
L 315.592704 233.601135 
L 315.818496 233.934897 
L 316.237824 234.791246 
L 316.657152 235.581592 
L 316.979712 236.079684 
L 317.818368 237.636219 
L 318.269952 238.25407 
L 318.495744 238.579326 
L 318.560256 238.673229 
L 318.624768 238.625937 
L 319.044096 238.294557 
L 319.3344 237.888667 
L 319.560192 237.630095 
L 319.850496 237.055112 
L 320.237568 236.282118 
L 320.560128 235.972172 
L 321.43104 234.97735 
L 321.91488 234.172375 
L 322.140672 234.057038 
L 322.430976 233.83419 
L 323.68896 232.747167 
L 324.527616 231.633266 
L 324.721152 231.590397 
L 326.075904 230.607823 
L 326.656512 229.947104 
L 326.979072 229.540193 
L 327.07584 229.484396 
L 327.269376 229.29489 
L 327.495168 229.106745 
L 327.624192 229.016585 
L 328.04352 228.843069 
L 328.656384 228.369474 
L 329.49504 227.49101 
L 329.882112 226.850704 
L 330.075648 226.876221 
L 331.817472 225.738164 
L 332.656128 224.952581 
L 333.0432 224.368753 
L 333.36576 224.279954 
L 334.075392 223.991102 
L 337.655808 221.171102 
L 338.494464 220.349217 
L 339.881472 218.435138 
L 342.72 214.559347 
L 343.494144 213.513492 
L 345.010176 211.666063 
L 346.752 209.829861 
L 347.139072 209.582857 
L 347.687424 209.355926 
L 348.074496 209.022504 
L 348.622848 207.188344 
L 350.042112 202.622506 
L 350.880768 200.512763 
L 351.977472 198.518016 
L 352.687104 197.520813 
L 353.558016 196.32934 
L 355.654656 193.93857 
L 357.2352 192.374549 
L 357.428736 191.883602 
L 357.944832 189.987521 
L 359.00928 186.195018 
L 359.880192 183.941359 
L 360.718848 182.338893 
L 361.42848 181.413477 
L 364.105728 178.718885 
L 366.815232 174.816489 
L 369.040896 171.502684 
L 375.040512 163.378079 
L 375.072768 163.4087 
L 375.330816 164.238852 
L 375.685632 165.239117 
L 376.10496 165.773273 
L 376.459776 165.902559 
L 376.717824 165.807295 
L 377.169408 165.337783 
L 377.814528 164.112968 
L 380.330496 158.284891 
L 381.491712 156.430658 
L 382.975488 154.433529 
L 383.20128 154.409713 
L 385.13664 154.70571 
L 388.071936 155.124189 
L 389.942784 155.603908 
L 390.652416 155.784228 
L 392.458752 156.243533 
L 393.103872 156.420451 
L 394.071552 156.733459 
L 395.232768 157.107708 
L 396.232704 157.430923 
L 397.39392 157.80177 
L 402.87744 159.642394 
L 403.393536 159.89076 
L 405.199872 160.724314 
L 406.038528 161.101965 
L 407.683584 161.847061 
L 408.68352 162.279148 
L 409.296384 162.53772 
L 410.554368 163.07868 
L 411.812352 163.592422 
L 415.328256 164.95673 
L 415.392768 164.909098 
L 415.812096 164.221841 
L 416.199168 163.987085 
L 416.650752 164.048325 
L 417.134592 164.317104 
L 418.03776 165.01797 
L 419.81184 166.191751 
L 421.618176 167.028708 
L 422.198784 167.263464 
L 424.134144 167.960928 
L 429.617664 169.580405 
L 432.327168 170.26426 
L 433.004544 170.437776 
L 433.52064 170.546648 
L 434.133504 170.689543 
L 443.907072 172.63904 
L 444.294144 172.703683 
L 445.906944 172.982669 
L 447.971328 173.305884 
L 450.45504 173.676731 
L 451.10016 173.768592 
L 451.90656 173.877464 
L 453.35808 174.074795 
L 454.228992 174.180265 
L 455.519232 174.340172 
L 455.745024 174.425228 
L 456.196608 175.122692 
L 456.615936 175.44931 
L 457.099776 175.626227 
L 458.067456 175.619423 
L 458.68032 175.44931 
L 459.648 175.156715 
L 460.518912 175.051245 
L 461.131776 175.030831 
L 463.292928 175.132899 
L 463.84128 175.19414 
L 465.067008 175.29961 
L 465.93792 175.37446 
L 467.357184 175.47993 
L 468.292608 175.571791 
L 468.905472 175.616021 
L 470.260224 175.721491 
L 470.808576 175.782732 
L 473.776128 175.99027 
L 474.421248 176.02089 
L 474.937344 176.071924 
L 477.743616 176.259048 
L 478.388736 176.296473 
L 480.743424 176.439368 
L 481.453056 176.469989 
L 483.743232 176.606079 
L 484.452864 176.640102 
L 486.226944 176.718354 
L 486.936576 176.752377 
L 488.904192 176.851042 
L 491.387904 176.959915 
L 493.097472 177.031362 
L 495.677952 177.140235 
L 496.032768 177.119821 
L 496.516608 176.558448 
L 497.419776 176.204612 
L 497.935872 176.255646 
L 498.67776 176.442771 
L 499.451904 176.650309 
L 502.580736 177.201475 
L 504.129024 177.306945 
L 504.96768 177.371588 
L 506.644992 177.439634 
L 507.354624 177.466852 
L 507.967488 177.483863 
L 508.644864 177.514484 
L 509.225472 177.52469 
L 513.773568 177.633563 
L 514.289664 177.63016 
L 515.676672 177.667585 
L 516.644352 177.67439 
L 523.063296 177.783262 
L 523.643904 177.800274 
L 524.64384 177.800274 
L 525.93408 177.827492 
L 536.352768 177.905744 
L 537.288192 178.742701 
L 538.288128 178.946836 
L 541.25568 178.524956 
L 543.578112 178.147305 
L 546.158592 178.038432 
L 547.513344 178.004409 
L 576.672768 177.912548 
L 577.188864 177.334164 
L 577.898496 177.007546 
L 578.9952 177.000742 
L 582.962688 177.725424 
L 584.64 177.793469 
L 616.960512 177.902342 
L 617.121792 178.082662 
L 617.637888 178.603208 
L 618.02496 178.78693 
L 618.637824 178.926423 
L 620.992512 178.81755 
L 623.282688 178.446704 
L 628.66944 177.987398 
L 657.312768 177.915951 
L 657.86112 177.300141 
L 658.409472 177.024558 
L 660.344832 177.13343 
L 663.602688 177.708413 
L 665.699328 177.820687 
L 697.632768 177.915951 
L 698.568192 178.752907 
L 699.503616 178.933227 
L 700.793856 178.963848 
L 703.567872 178.490933 
L 709.438464 177.980594 
L 737.952768 177.915951 
L 738.50112 177.300141 
L 739.049472 177.024558 
L 740.984832 177.13343 
L 744.242688 177.708413 
L 746.339328 177.820687 
L 778.272768 177.915951 
L 779.208192 178.752907 
L 780.143616 178.933227 
L 782.240256 178.824355 
L 783.949824 178.535163 
L 785.304576 178.361647 
L 789.852672 177.9908 
L 818.592768 177.915951 
L 819.14112 177.300141 
L 819.689472 177.024558 
L 821.624832 177.13343 
L 824.882688 177.708413 
L 826.979328 177.820687 
L 858.912768 177.915951 
L 859.848192 178.752907 
L 860.783616 178.933227 
L 862.073856 178.963848 
L 864.847872 178.490933 
L 870.718464 177.980594 
L 899.232768 177.915951 
L 899.78112 177.300141 
L 900.329472 177.024558 
L 902.264832 177.13343 
L 905.522688 177.708413 
L 907.619328 177.820687 
L 939.552768 177.915951 
L 940.617216 178.783528 
L 941.55264 178.970652 
L 943.455744 178.86178 
L 944.810496 178.610012 
L 947.03616 178.252775 
L 947.52 178.177925 
L 947.52 178.177925 
" clip-path="url(#p6dfda0a1e7)" style="fill: none; stroke: #008000; stroke-width: 2; stroke-linecap: square"/>
   </g>
   <g id="patch_10">
    <path d="M 100.8 242.888276 
L 100.8 150.157241 
" style="fill: none; stroke: #bcbcbc; stroke-width: 0.8; stroke-linejoin: miter; stroke-linecap: square"/>
   </g>
   <g id="patch_11">
    <path d="M 987.84 242.888276 
L 987.84 150.157241 
" style="fill: none; stroke: #bcbcbc; stroke-width: 0.8; stroke-linejoin: miter; stroke-linecap: square"/>
   </g>
   <g id="patch_12">
    <path d="M 100.8 242.888276 
L 987.84 242.888276 
" style="fill: none; stroke: #bcbcbc; stroke-width: 0.8; stroke-linejoin: miter; stroke-linecap: square"/>
   </g>
   <g id="patch_13">
    <path d="M 100.8 150.157241 
L 987.84 150.157241 
" style="fill: none; stroke: #bcbcbc; stroke-width: 0.8; stroke-linejoin: miter; stroke-linecap: square"/>
   </g>
  </g>
  <g id="axes_3">
   <g id="patch_14">
    <path d="M 100.8 354.165517 
L 987.84 354.165517 
L 987.84 261.434483 
L 100.8 261.434483 
z
" style="fill: #eeeeee"/>
   </g>
   <g id="matplotlib.axis_5">
    <g id="xtick_13">
     <g id="line2d_37">
      <path d="M 141.12 354.165517 
L 141.12 261.434483 
" clip-path="url(#p7a9fb6670d)" style="fill: none; stroke-dasharray: 1.85,0.8; stroke-dashoffset: 0; stroke: #b2b2b2; stroke-width: 0.5"/>
     </g>
     <g id="line2d_38">
      <g>
       <use xlink:href="#m7cff879420" x="141.12" y="354.165517" style="stroke: #000000; stroke-width: 0.8"/>
      </g>
     </g>
    </g>
    <g id="xtick_14">
     <g id="line2d_39">
      <path d="M 302.4 354.165517 
L 302.4 261.434483 
" clip-path="url(#p7a9fb6670d)" style="fill: none; stroke-dasharray: 1.85,0.8; stroke-dashoffset: 0; stroke: #b2b2b2; stroke-width: 0.5"/>
     </g>
     <g id="line2d_40">
      <g>
       <use xlink:href="#m7cff879420" x="302.4" y="354.165517" style="stroke: #000000; stroke-width: 0.8"/>
      </g>
     </g>
    </g>
    <g id="xtick_15">
     <g id="line2d_41">
      <path d="M 463.68 354.165517 
L 463.68 261.434483 
" clip-path="url(#p7a9fb6670d)" style="fill: none; stroke-dasharray: 1.85,0.8; stroke-dashoffset: 0; stroke: #b2b2b2; stroke-width: 0.5"/>
     </g>
     <g id="line2d_42">
      <g>
       <use xlink:href="#m7cff879420" x="463.68" y="354.165517" style="stroke: #000000; stroke-width: 0.8"/>
      </g>
     </g>
    </g>
    <g id="xtick_16">
     <g id="line2d_43">
      <path d="M 624.96 354.165517 
L 624.96 261.434483 
" clip-path="url(#p7a9fb6670d)" style="fill: none; stroke-dasharray: 1.85,0.8; stroke-dashoffset: 0; stroke: #b2b2b2; stroke-width: 0.5"/>
     </g>
     <g id="line2d_44">
      <g>
       <use xlink:href="#m7cff879420" x="624.96" y="354.165517" style="stroke: #000000; stroke-width: 0.8"/>
      </g>
     </g>
    </g>
    <g id="xtick_17">
     <g id="line2d_45">
      <path d="M 786.24 354.165517 
L 786.24 261.434483 
" clip-path="url(#p7a9fb6670d)" style="fill: none; stroke-dasharray: 1.85,0.8; stroke-dashoffset: 0; stroke: #b2b2b2; stroke-width: 0.5"/>
     </g>
     <g id="line2d_46">
      <g>
       <use xlink:href="#m7cff879420" x="786.24" y="354.165517" style="stroke: #000000; stroke-width: 0.8"/>
      </g>
     </g>
    </g>
    <g id="xtick_18">
     <g id="line2d_47">
      <path d="M 947.52 354.165517 
L 947.52 261.434483 
" clip-path="url(#p7a9fb6670d)" style="fill: none; stroke-dasharray: 1.85,0.8; stroke-dashoffset: 0; stroke: #b2b2b2; stroke-width: 0.5"/>
     </g>
     <g id="line2d_48">
      <g>
       <use xlink:href="#m7cff879420" x="947.52" y="354.165517" style="stroke: #000000; stroke-width: 0.8"/>
      </g>
     </g>
    </g>
   </g>
   <g id="matplotlib.axis_6">
    <g id="ytick_6">
     <g id="line2d_49">
      <path d="M 100.8 343.851593 
L 987.84 343.851593 
" clip-path="url(#p7a9fb6670d)" style="fill: none; stroke-dasharray: 1.85,0.8; stroke-dashoffset: 0; stroke: #b2b2b2; stroke-width: 0.5"/>
     </g>
     <g id="line2d_50">
      <g>
       <use xlink:href="#m363c788851" x="100.8" y="343.851593" style="stroke: #000000; stroke-width: 0.8"/>
      </g>
     </g>
     <g id="text_8">
      <!-- 0 V -->
      <g transform="translate(74.36625 349.170499) scale(0.14 -0.14)">
       <use xlink:href="#DejaVuSans-30"/>
       <use xlink:href="#DejaVuSans-20" x="63.623047"/>
       <use xlink:href="#DejaVuSans-56" x="95.410156"/>
      </g>
     </g>
    </g>
    <g id="ytick_7">
     <g id="line2d_51">
      <path d="M 100.8 295.810026 
L 987.84 295.810026 
" clip-path="url(#p7a9fb6670d)" style="fill: none; stroke-dasharray: 1.85,0.8; stroke-dashoffset: 0; stroke: #b2b2b2; stroke-width: 0.5"/>
     </g>
     <g id="line2d_52">
      <g>
       <use xlink:href="#m363c788851" x="100.8" y="295.810026" style="stroke: #000000; stroke-width: 0.8"/>
      </g>
     </g>
     <g id="text_9">
      <!-- 1 V -->
      <g transform="translate(74.36625 301.128932) scale(0.14 -0.14)">
       <use xlink:href="#DejaVuSans-31"/>
       <use xlink:href="#DejaVuSans-20" x="63.623047"/>
       <use xlink:href="#DejaVuSans-56" x="95.410156"/>
      </g>
     </g>
    </g>
    <g id="text_10">
     <g id="patch_15">
      <path d="M 34.8768 342.395313 
L 34.8768 273.204688 
L 11.247425 273.204688 
L 11.247425 342.395313 
z
" style="fill: #ffff00; opacity: 0.2; stroke: #eeeeee; stroke-width: 0.5; stroke-linejoin: miter"/>
     </g>
     <!-- CLK BUF -->
     <g transform="translate(26.925238 337.355313) rotate(-90) scale(0.14 -0.14)">
      <defs>
       <path id="DejaVuSans-43" d="M 4122 4306 
L 4122 3641 
Q 3803 3938 3442 4084 
Q 3081 4231 2675 4231 
Q 1875 4231 1450 3742 
Q 1025 3253 1025 2328 
Q 1025 1406 1450 917 
Q 1875 428 2675 428 
Q 3081 428 3442 575 
Q 3803 722 4122 1019 
L 4122 359 
Q 3791 134 3420 21 
Q 3050 -91 2638 -91 
Q 1578 -91 968 557 
Q 359 1206 359 2328 
Q 359 3453 968 4101 
Q 1578 4750 2638 4750 
Q 3056 4750 3426 4639 
Q 3797 4528 4122 4306 
z
" transform="scale(0.015625)"/>
       <path id="DejaVuSans-4b" d="M 628 4666 
L 1259 4666 
L 1259 2694 
L 3353 4666 
L 4166 4666 
L 1850 2491 
L 4331 0 
L 3500 0 
L 1259 2247 
L 1259 0 
L 628 0 
L 628 4666 
z
" transform="scale(0.015625)"/>
      </defs>
      <use xlink:href="#DejaVuSans-43"/>
      <use xlink:href="#DejaVuSans-4c" x="69.824219"/>
      <use xlink:href="#DejaVuSans-4b" x="125.537109"/>
      <use xlink:href="#DejaVuSans-20" x="191.113281"/>
      <use xlink:href="#DejaVuSans-42" x="222.900391"/>
      <use xlink:href="#DejaVuSans-55" x="291.503906"/>
      <use xlink:href="#DejaVuSans-46" x="364.697266"/>
     </g>
    </g>
   </g>
   <g id="line2d_53">
    <path d="M 141.12 343.850323 
L 173.376 343.850323 
L 173.601792 286.201712 
L 213.696 286.201712 
L 213.760512 332.18662 
L 213.825024 343.829645 
L 213.889536 343.760511 
L 213.954048 343.952432 
L 214.01856 343.856799 
L 215.212032 343.848636 
L 222.5664 343.850338 
L 254.016 343.85029 
L 254.17728 286.023959 
L 254.241792 286.331425 
L 254.403072 286.192104 
L 254.8224 286.201712 
L 292.787712 286.278579 
L 294.336 288.728699 
L 294.368256 291.788947 
L 294.49728 345.132381 
L 294.65856 345.266465 
L 295.884288 345.485583 
L 300.400128 345.476936 
L 310.851072 345.228801 
L 311.883264 345.535498 
L 312.625152 345.965038 
L 317.07648 348.993002 
L 318.560256 349.935097 
L 319.65696 349.329293 
L 323.334144 347.840917 
L 323.52768 347.789801 
L 323.785728 347.686271 
L 328.84992 345.947887 
L 329.043456 345.905851 
L 329.204736 345.81779 
L 329.366016 345.788293 
L 334.01088 344.53902 
L 334.656 344.400228 
L 334.688256 345.642054 
L 334.849536 318.280989 
L 335.010816 317.983131 
L 338.720256 316.317049 
L 348.751872 309.280401 
L 353.299968 306.496872 
L 357.331968 304.149561 
L 358.718976 301.231517 
L 361.009152 295.670705 
L 364.137984 288.046509 
L 366.912 281.719434 
L 372.911616 269.449618 
L 373.395456 268.55124 
L 374.105088 267.230097 
L 374.976 265.64953 
L 375.13728 342.312726 
L 375.169536 342.292356 
L 376.814592 342.314071 
L 378.36288 342.237252 
L 382.2336 342.342367 
L 383.072256 342.438883 
L 383.749632 343.199237 
L 384.459264 343.659816 
L 385.362432 343.979307 
L 386.620416 344.180202 
L 388.813824 344.278001 
L 395.652096 344.271938 
L 403.716096 344.361362 
L 406.457856 344.402102 
L 415.296 344.301003 
L 415.45728 267.451089 
L 415.521792 267.489522 
L 418.005504 268.719386 
L 419.263488 269.343926 
L 419.715072 269.52168 
L 428.714496 273.42746 
L 428.972544 273.537955 
L 430.714368 274.196125 
L 431.004672 274.30662 
L 432.101376 274.67654 
L 432.359424 274.787036 
L 433.327104 275.108914 
L 433.617408 275.214606 
L 434.036736 275.349122 
L 434.391552 275.454814 
L 434.81088 275.58933 
L 435.165696 275.695022 
L 435.681792 275.877579 
L 436.036608 275.983271 
L 436.455936 276.117787 
L 436.810752 276.223479 
L 437.23008 276.357995 
L 437.584896 276.463687 
L 437.939712 276.550161 
L 443.326464 278.03945 
L 443.778048 278.145141 
L 444.132864 278.231616 
L 446.616576 278.856157 
L 447.164928 278.961848 
L 447.519744 279.048323 
L 449.035776 279.384614 
L 449.584128 279.490305 
L 449.938944 279.57678 
L 450.45504 279.682472 
L 450.745344 279.730513 
L 451.293696 279.860225 
L 453.970944 280.369466 
L 454.293504 280.436724 
L 455.616 280.657715 
L 455.648256 288.40682 
L 455.712768 344.601282 
L 455.77728 343.963362 
L 455.809536 343.960499 
L 455.841792 344.076865 
L 455.906304 344.00377 
L 456.390144 343.999167 
L 495.936 343.892976 
L 496.09728 284.352112 
L 496.161792 284.625949 
L 496.194048 284.770074 
L 496.25856 284.664382 
L 497.323008 284.712424 
L 499.613184 284.822919 
L 499.935744 284.856548 
L 503.096832 284.967044 
L 503.419392 285.000673 
L 507.06432 285.111169 
L 507.38688 285.144798 
L 511.515648 285.255293 
L 511.838208 285.288923 
L 516.74112 285.399418 
L 517.06368 285.433047 
L 523.03104 285.543543 
L 523.3536 285.577172 
L 530.966016 285.687668 
L 531.288576 285.721297 
L 536.256 285.721297 
L 536.288256 290.256421 
L 536.352768 343.983679 
L 536.41728 343.692417 
L 536.514048 344.02313 
L 536.57856 343.872433 
L 537.352704 343.869704 
L 543.384576 343.856024 
L 563.447808 343.864122 
L 576.576 343.86408 
L 576.73728 285.625214 
L 576.801792 285.740513 
L 577.672704 285.721297 
L 616.896 285.721297 
L 617.025024 344.218439 
L 617.186304 343.939082 
L 617.444352 343.831991 
L 617.799168 343.884254 
L 618.089472 343.863934 
L 652.087296 343.864076 
L 657.216 343.864081 
L 657.37728 285.471481 
L 657.441792 286.01435 
L 657.53856 285.524326 
L 657.603072 285.70208 
L 658.054656 285.721297 
L 697.536 285.721297 
L 697.665024 344.218631 
L 697.826304 343.939034 
L 698.084352 343.832002 
L 698.439168 343.884268 
L 698.729472 343.863935 
L 732.727296 343.864076 
L 737.856 343.864081 
L 738.01728 285.471481 
L 738.081792 286.01435 
L 738.17856 285.519522 
L 738.243072 285.70208 
L 738.694656 285.721297 
L 778.176 285.721297 
L 778.305024 344.218439 
L 778.466304 343.939082 
L 778.724352 343.831991 
L 779.079168 343.884254 
L 779.369472 343.863934 
L 813.367296 343.864076 
L 818.496 343.864081 
L 818.65728 285.471481 
L 818.721792 286.01435 
L 818.81856 285.519522 
L 818.883072 285.70208 
L 819.334656 285.721297 
L 858.816 285.721297 
L 858.945024 344.21853 
L 859.106304 343.939067 
L 859.364352 343.831987 
L 859.719168 343.884276 
L 860.009472 343.863935 
L 894.007296 343.864076 
L 899.136 343.864081 
L 899.29728 285.471481 
L 899.361792 286.01435 
L 899.45856 285.519522 
L 899.523072 285.70208 
L 899.974656 285.721297 
L 939.456 285.721297 
L 939.488256 294.383191 
L 939.61728 343.806945 
L 939.649536 343.946643 
L 939.714048 343.812984 
L 939.746304 343.770826 
L 939.810816 343.832834 
L 939.972096 343.928196 
L 940.004352 343.892832 
L 940.197888 343.863285 
L 945.068544 343.864091 
L 947.52 343.86407 
L 947.52 343.86407 
" clip-path="url(#p7a9fb6670d)" style="fill: none; stroke: #0000ff; stroke-width: 2; stroke-linecap: square"/>
   </g>
   <g id="patch_16">
    <path d="M 100.8 354.165517 
L 100.8 261.434483 
" style="fill: none; stroke: #bcbcbc; stroke-width: 0.8; stroke-linejoin: miter; stroke-linecap: square"/>
   </g>
   <g id="patch_17">
    <path d="M 987.84 354.165517 
L 987.84 261.434483 
" style="fill: none; stroke: #bcbcbc; stroke-width: 0.8; stroke-linejoin: miter; stroke-linecap: square"/>
   </g>
   <g id="patch_18">
    <path d="M 100.8 354.165517 
L 987.84 354.165517 
" style="fill: none; stroke: #bcbcbc; stroke-width: 0.8; stroke-linejoin: miter; stroke-linecap: square"/>
   </g>
   <g id="patch_19">
    <path d="M 100.8 261.434483 
L 987.84 261.434483 
" style="fill: none; stroke: #bcbcbc; stroke-width: 0.8; stroke-linejoin: miter; stroke-linecap: square"/>
   </g>
  </g>
  <g id="axes_4">
   <g id="patch_20">
    <path d="M 100.8 465.442759 
L 987.84 465.442759 
L 987.84 372.711724 
L 100.8 372.711724 
z
" style="fill: #eeeeee"/>
   </g>
   <g id="matplotlib.axis_7">
    <g id="xtick_19">
     <g id="line2d_54">
      <path d="M 141.12 465.442759 
L 141.12 372.711724 
" clip-path="url(#pced1e45a9d)" style="fill: none; stroke-dasharray: 1.85,0.8; stroke-dashoffset: 0; stroke: #b2b2b2; stroke-width: 0.5"/>
     </g>
     <g id="line2d_55">
      <g>
       <use xlink:href="#m7cff879420" x="141.12" y="465.442759" style="stroke: #000000; stroke-width: 0.8"/>
      </g>
     </g>
    </g>
    <g id="xtick_20">
     <g id="line2d_56">
      <path d="M 302.4 465.442759 
L 302.4 372.711724 
" clip-path="url(#pced1e45a9d)" style="fill: none; stroke-dasharray: 1.85,0.8; stroke-dashoffset: 0; stroke: #b2b2b2; stroke-width: 0.5"/>
     </g>
     <g id="line2d_57">
      <g>
       <use xlink:href="#m7cff879420" x="302.4" y="465.442759" style="stroke: #000000; stroke-width: 0.8"/>
      </g>
     </g>
    </g>
    <g id="xtick_21">
     <g id="line2d_58">
      <path d="M 463.68 465.442759 
L 463.68 372.711724 
" clip-path="url(#pced1e45a9d)" style="fill: none; stroke-dasharray: 1.85,0.8; stroke-dashoffset: 0; stroke: #b2b2b2; stroke-width: 0.5"/>
     </g>
     <g id="line2d_59">
      <g>
       <use xlink:href="#m7cff879420" x="463.68" y="465.442759" style="stroke: #000000; stroke-width: 0.8"/>
      </g>
     </g>
    </g>
    <g id="xtick_22">
     <g id="line2d_60">
      <path d="M 624.96 465.442759 
L 624.96 372.711724 
" clip-path="url(#pced1e45a9d)" style="fill: none; stroke-dasharray: 1.85,0.8; stroke-dashoffset: 0; stroke: #b2b2b2; stroke-width: 0.5"/>
     </g>
     <g id="line2d_61">
      <g>
       <use xlink:href="#m7cff879420" x="624.96" y="465.442759" style="stroke: #000000; stroke-width: 0.8"/>
      </g>
     </g>
    </g>
    <g id="xtick_23">
     <g id="line2d_62">
      <path d="M 786.24 465.442759 
L 786.24 372.711724 
" clip-path="url(#pced1e45a9d)" style="fill: none; stroke-dasharray: 1.85,0.8; stroke-dashoffset: 0; stroke: #b2b2b2; stroke-width: 0.5"/>
     </g>
     <g id="line2d_63">
      <g>
       <use xlink:href="#m7cff879420" x="786.24" y="465.442759" style="stroke: #000000; stroke-width: 0.8"/>
      </g>
     </g>
    </g>
    <g id="xtick_24">
     <g id="line2d_64">
      <path d="M 947.52 465.442759 
L 947.52 372.711724 
" clip-path="url(#pced1e45a9d)" style="fill: none; stroke-dasharray: 1.85,0.8; stroke-dashoffset: 0; stroke: #b2b2b2; stroke-width: 0.5"/>
     </g>
     <g id="line2d_65">
      <g>
       <use xlink:href="#m7cff879420" x="947.52" y="465.442759" style="stroke: #000000; stroke-width: 0.8"/>
      </g>
     </g>
    </g>
   </g>
   <g id="matplotlib.axis_8">
    <g id="ytick_8">
     <g id="line2d_66">
      <path d="M 100.8 438.851381 
L 987.84 438.851381 
" clip-path="url(#pced1e45a9d)" style="fill: none; stroke-dasharray: 1.85,0.8; stroke-dashoffset: 0; stroke: #b2b2b2; stroke-width: 0.5"/>
     </g>
     <g id="line2d_67">
      <g>
       <use xlink:href="#m363c788851" x="100.8" y="438.851381" style="stroke: #000000; stroke-width: 0.8"/>
      </g>
     </g>
     <g id="text_11">
      <!-- 0 V -->
      <g transform="translate(74.36625 444.170287) scale(0.14 -0.14)">
       <use xlink:href="#DejaVuSans-30"/>
       <use xlink:href="#DejaVuSans-20" x="63.623047"/>
       <use xlink:href="#DejaVuSans-56" x="95.410156"/>
      </g>
     </g>
    </g>
    <g id="ytick_9">
     <g id="line2d_68">
      <path d="M 100.8 399.626316 
L 987.84 399.626316 
" clip-path="url(#pced1e45a9d)" style="fill: none; stroke-dasharray: 1.85,0.8; stroke-dashoffset: 0; stroke: #b2b2b2; stroke-width: 0.5"/>
     </g>
     <g id="line2d_69">
      <g>
       <use xlink:href="#m363c788851" x="100.8" y="399.626316" style="stroke: #000000; stroke-width: 0.8"/>
      </g>
     </g>
     <g id="text_12">
      <!-- 1 V -->
      <g transform="translate(74.36625 404.945222) scale(0.14 -0.14)">
       <use xlink:href="#DejaVuSans-31"/>
       <use xlink:href="#DejaVuSans-20" x="63.623047"/>
       <use xlink:href="#DejaVuSans-56" x="95.410156"/>
      </g>
     </g>
    </g>
    <g id="text_13">
     <g id="patch_21">
      <path d="M 34.8768 454.693023 
L 34.8768 383.46146 
L 11.247425 383.46146 
L 11.247425 454.693023 
z
" style="fill: #ffff00; opacity: 0.2; stroke: #eeeeee; stroke-width: 0.5; stroke-linejoin: miter"/>
     </g>
     <!-- DFF OUT -->
     <g transform="translate(26.925238 449.653023) rotate(-90) scale(0.14 -0.14)">
      <defs>
       <path id="DejaVuSans-4f" d="M 2522 4238 
Q 1834 4238 1429 3725 
Q 1025 3213 1025 2328 
Q 1025 1447 1429 934 
Q 1834 422 2522 422 
Q 3209 422 3611 934 
Q 4013 1447 4013 2328 
Q 4013 3213 3611 3725 
Q 3209 4238 2522 4238 
z
M 2522 4750 
Q 3503 4750 4090 4092 
Q 4678 3434 4678 2328 
Q 4678 1225 4090 567 
Q 3503 -91 2522 -91 
Q 1538 -91 948 565 
Q 359 1222 359 2328 
Q 359 3434 948 4092 
Q 1538 4750 2522 4750 
z
" transform="scale(0.015625)"/>
       <path id="DejaVuSans-54" d="M -19 4666 
L 3928 4666 
L 3928 4134 
L 2272 4134 
L 2272 0 
L 1638 0 
L 1638 4134 
L -19 4134 
L -19 4666 
z
" transform="scale(0.015625)"/>
      </defs>
      <use xlink:href="#DejaVuSans-44"/>
      <use xlink:href="#DejaVuSans-46" x="77.001953"/>
      <use xlink:href="#DejaVuSans-46" x="134.521484"/>
      <use xlink:href="#DejaVuSans-20" x="192.041016"/>
      <use xlink:href="#DejaVuSans-4f" x="223.828125"/>
      <use xlink:href="#DejaVuSans-55" x="302.539062"/>
      <use xlink:href="#DejaVuSans-54" x="375.732422"/>
     </g>
    </g>
   </g>
   <g id="line2d_70">
    <path d="M 141.12 409.254893 
L 173.408256 409.302747 
L 173.440512 410.926665 
L 173.601792 438.853775 
L 174.117888 438.849219 
L 184.50432 438.850343 
L 254.048256 438.851979 
L 254.080512 439.008783 
L 254.112768 438.749408 
L 254.306304 434.919853 
L 254.596608 434.152218 
L 254.693376 433.604636 
L 255.14496 426.732405 
L 255.370752 410.580308 
L 255.596544 392.161786 
L 255.757824 391.840141 
L 255.983616 391.777381 
L 256.91904 391.781303 
L 292.819968 391.879366 
L 294.432768 393.977907 
L 294.626304 394.315242 
L 295.110144 395.064441 
L 295.884288 396.178433 
L 295.916544 396.166665 
L 295.981056 396.602064 
L 296.174592 398.018089 
L 296.464896 398.253439 
L 297.5616 399.17915 
L 298.335744 400.288043 
L 300.62592 403.962255 
L 301.27104 405.5038 
L 301.91616 407.640781 
L 302.174208 408.635137 
L 302.496768 409.962513 
L 303.496704 414.578519 
L 303.593472 414.926053 
L 304.49664 418.495534 
L 304.593408 418.851305 
L 305.012736 421.546459 
L 305.593344 424.316926 
L 305.6256 424.055294 
L 305.690112 424.142766 
L 305.722368 424.263579 
L 305.883648 426.018901 
L 306.528768 429.206722 
L 307.915776 434.88455 
L 308.0448 435.484929 
L 308.109312 435.176777 
L 308.141568 435.1432 
L 308.173824 435.205686 
L 308.270592 435.54561 
L 308.431872 436.912133 
L 308.722176 438.075627 
L 308.754432 437.785283 
L 308.818944 437.725504 
L 309.367296 440.540452 
L 309.399552 440.389827 
L 309.431808 440.387435 
L 309.689856 441.162326 
L 309.851136 442.302206 
L 310.62528 444.510381 
L 310.657536 444.058508 
L 310.722048 444.234237 
L 311.334912 446.142144 
L 312.0768 447.233385 
L 312.109056 447.696633 
L 312.205824 447.515021 
L 312.528384 448.652548 
L 315.46368 455.09448 
L 315.495936 455.120369 
L 315.62496 455.490261 
L 315.657216 455.440838 
L 315.689472 455.505559 
L 315.915264 456.046473 
L 316.076544 456.515997 
L 318.495744 461.227712 
L 318.592512 461.144162 
L 318.85056 460.926855 
L 319.753728 459.233117 
L 320.205312 458.409391 
L 320.269824 458.461952 
L 320.30208 458.404684 
L 321.947136 455.866822 
L 322.818048 455.058786 
L 322.979328 454.879135 
L 323.237376 454.404512 
L 323.269632 454.539054 
L 323.301888 454.505712 
L 323.463168 454.097379 
L 323.495424 454.083258 
L 323.52768 454.244081 
L 323.559936 454.047171 
L 323.785728 453.729448 
L 324.49536 452.965736 
L 324.527616 453.163038 
L 324.592128 452.879441 
L 324.721152 452.970835 
L 324.850176 452.658212 
L 325.753344 451.895284 
L 326.011392 451.373983 
L 326.10816 451.241795 
L 326.140416 451.483813 
L 326.172672 451.170013 
L 326.237184 451.086856 
L 326.26944 451.35947 
L 326.301696 451.066851 
L 326.333952 451.067243 
L 326.366208 451.130788 
L 326.527488 450.797767 
L 326.559744 451.060967 
L 326.624256 450.684014 
L 326.656512 450.962512 
L 326.721024 450.575753 
L 326.785536 450.583598 
L 326.91456 450.575753 
L 327.07584 450.221551 
L 327.108096 450.213313 
L 327.140352 450.344717 
L 327.172608 450.152515 
L 327.204864 450.140355 
L 327.23712 450.254892 
L 327.269376 450.065435 
L 327.301632 450.061905 
L 327.333888 450.174873 
L 327.3984 449.997183 
L 327.430656 450.064258 
L 327.462912 449.93207 
L 327.849984 449.734375 
L 328.430592 449.220527 
L 328.624128 448.726291 
L 328.656384 448.820824 
L 328.68864 448.667061 
L 328.84992 448.407391 
L 328.882176 448.666669 
L 328.914432 448.367774 
L 328.946688 448.394839 
L 328.978944 448.238331 
L 329.0112 448.304622 
L 329.043456 448.542326 
L 329.075712 448.132424 
L 329.107968 448.112027 
L 329.140224 448.463091 
L 329.204736 448.062995 
L 329.269248 448.289324 
L 329.398272 447.840197 
L 329.882112 447.416959 
L 329.914368 447.622498 
L 329.97888 447.326741 
L 330.011136 447.507176 
L 330.075648 447.383617 
L 330.107904 447.351453 
L 330.14016 447.486779 
L 330.172416 447.212596 
L 330.559488 447.109434 
L 331.785216 445.764799 
L 331.91424 445.373333 
L 332.043264 445.253696 
L 332.07552 445.636925 
L 332.140032 445.15328 
L 332.172288 445.545923 
L 332.301312 444.989711 
L 332.333568 445.255657 
L 332.39808 444.977944 
L 332.430336 445.159556 
L 332.462592 445.173285 
L 332.591616 444.786526 
L 333.172224 444.443306 
L 333.236736 444.601383 
L 333.268992 444.400159 
L 333.52704 444.369955 
L 333.752832 444.210309 
L 334.720512 443.130836 
L 334.752768 443.164961 
L 334.881792 442.711677 
L 334.946304 442.594551 
L 334.97856 442.946086 
L 335.010816 442.503509 
L 335.043072 442.504686 
L 335.107584 442.419568 
L 335.172096 442.750745 
L 335.30112 442.252116 
L 335.430144 442.127419 
L 335.4624 442.586902 
L 335.559168 442.385834 
L 335.62368 442.463264 
L 335.688192 441.88846 
L 335.720448 442.186688 
L 335.78496 441.830878 
L 335.978496 441.806323 
L 336.010752 442.104355 
L 336.075264 441.841782 
L 336.10752 441.820954 
L 336.139776 441.986994 
L 336.172032 441.732933 
L 336.204288 441.859904 
L 336.75264 441.414621 
L 336.881664 441.322992 
L 337.849344 440.370254 
L 338.558976 439.316983 
L 339.752448 437.26963 
L 339.945984 436.276256 
L 340.107264 436.48607 
L 340.13952 436.198198 
L 340.236288 436.273745 
L 340.3008 436.283355 
L 340.333056 436.229146 
L 341.139456 434.697839 
L 341.171712 434.203995 
L 341.236224 434.566827 
L 341.26848 434.506813 
L 341.300736 433.621111 
L 341.365248 434.013754 
L 341.397504 434.031797 
L 341.42976 433.554821 
L 341.526528 433.588554 
L 341.558784 433.88235 
L 341.623296 433.67838 
L 341.720064 433.599929 
L 342.784512 431.715557 
L 342.849024 430.955768 
L 342.913536 431.265646 
L 342.978048 431.131496 
L 343.010304 431.227205 
L 343.04256 431.269568 
L 343.236096 430.770625 
L 344.3328 428.968234 
L 344.558592 428.645804 
L 344.945664 427.660078 
L 344.97792 427.68479 
L 345.042432 427.808741 
L 345.203712 427.232917 
L 345.268224 427.126617 
L 345.30048 427.341178 
L 345.332736 427.241154 
L 345.364992 426.943828 
L 345.46176 427.047775 
L 345.494016 427.07131 
L 345.687552 426.667684 
L 345.881088 426.541379 
L 346.42944 425.55683 
L 346.59072 424.715452 
L 346.752 424.379686 
L 346.784256 424.699762 
L 346.848768 424.562082 
L 348.461568 420.68743 
L 348.493824 420.622317 
L 348.52608 419.861743 
L 348.622848 420.200255 
L 348.655104 419.984125 
L 348.719616 420.093171 
L 348.751872 420.162207 
L 348.816384 420.062967 
L 349.364736 418.963881 
L 349.526016 418.809726 
L 349.719552 418.349616 
L 350.106624 417.121087 
L 350.171136 417.143838 
L 350.46144 417.187378 
L 350.525952 417.072448 
L 350.848512 416.445632 
L 351.783936 415.037844 
L 351.816192 415.075893 
L 351.848448 414.995481 
L 352.041984 414.796218 
L 352.332288 414.610683 
L 352.461312 414.748363 
L 352.590336 415.424211 
L 352.687104 417.785168 
L 352.848384 433.81096 
L 352.945152 438.483062 
L 353.009664 438.118618 
L 353.138688 438.299916 
L 354.751488 438.390212 
L 357.267456 438.405941 
L 357.977088 437.792579 
L 358.783488 437.425393 
L 359.81568 437.208831 
L 361.396224 437.122929 
L 364.847616 437.207812 
L 377.653248 437.550325 
L 380.265984 437.570683 
L 383.104512 437.746293 
L 383.781888 438.354046 
L 384.620544 438.769205 
L 385.749504 439.03619 
L 387.426816 439.177781 
L 391.845888 439.217288 
L 415.328256 439.241655 
L 415.360512 439.467607 
L 415.61856 430.804359 
L 415.844352 429.029033 
L 415.973376 426.395854 
L 416.134656 417.218366 
L 416.328192 391.29099 
L 416.521728 376.985609 
L 416.650752 376.958151 
L 420.585984 378.511464 
L 421.58592 378.880179 
L 421.940736 378.982165 
L 422.972928 379.362648 
L 429.069312 381.469034 
L 429.391872 381.571019 
L 431.133696 382.096635 
L 431.520768 382.19862 
L 433.069056 382.645786 
L 433.456128 382.747771 
L 434.778624 383.116486 
L 435.197952 383.218472 
L 436.42368 383.547962 
L 436.843008 383.649947 
L 437.842944 383.897065 
L 438.778368 384.120648 
L 439.552512 384.293238 
L 439.939584 384.395224 
L 440.61696 384.528589 
L 441.004032 384.630574 
L 441.681408 384.763939 
L 442.06848 384.865924 
L 442.745856 384.99929 
L 443.229696 385.101275 
L 443.907072 385.23464 
L 444.390912 385.336625 
L 445.068288 385.46999 
L 445.552128 385.571975 
L 446.229504 385.705341 
L 446.810112 385.807326 
L 447.487488 385.940691 
L 448.068096 386.042676 
L 448.648704 386.136816 
L 449.132544 386.238802 
L 449.713152 386.332942 
L 450.29376 386.431004 
L 450.648576 386.489842 
L 451.26144 386.591827 
L 451.842048 386.685967 
L 452.422656 386.78403 
L 452.777472 386.842868 
L 453.487104 386.94093 
L 453.84192 386.999768 
L 454.551552 387.09783 
L 454.906368 387.156668 
L 455.616 387.254731 
L 455.809536 387.278266 
L 456.196608 387.333181 
L 456.551424 387.392018 
L 457.261056 387.490081 
L 457.615872 387.548919 
L 458.51904 387.646981 
L 458.873856 387.705819 
L 459.680256 387.803882 
L 460.035072 387.862719 
L 460.93824 387.960782 
L 461.228544 387.980394 
L 462.002688 388.078457 
L 462.357504 388.137295 
L 463.35744 388.235357 
L 463.712256 388.294195 
L 464.712192 388.392258 
L 465.002496 388.41187 
L 465.873408 388.509933 
L 466.163712 388.529545 
L 467.034624 388.627608 
L 467.324928 388.647221 
L 468.19584 388.745283 
L 468.486144 388.764896 
L 469.453824 388.862958 
L 469.744128 388.882571 
L 470.711808 388.980634 
L 471.002112 389.000246 
L 472.06656 389.098309 
L 472.356864 389.117921 
L 473.51808 389.215984 
L 473.808384 389.235597 
L 474.9696 389.333659 
L 475.259904 389.353272 
L 476.517888 389.451334 
L 476.808192 389.470947 
L 478.162944 389.56901 
L 478.453248 389.588622 
L 479.904768 389.686685 
L 480.195072 389.706297 
L 481.646592 389.80436 
L 481.90464 389.82005 
L 483.581952 389.922035 
L 483.872256 389.941648 
L 485.61408 390.03971 
L 485.904384 390.059323 
L 487.839744 390.157386 
L 488.130048 390.176998 
L 490.162176 390.275061 
L 490.45248 390.294673 
L 492.807168 390.404503 
L 494.065152 390.451574 
L 494.678016 390.486876 
L 495.968256 390.545714 
L 496.000512 390.733994 
L 496.065024 390.506489 
L 496.355328 390.518256 
L 498.580992 390.628086 
L 498.83904 390.643776 
L 501.967872 390.745762 
L 502.322688 390.765374 
L 505.741824 390.863437 
L 505.999872 390.879127 
L 509.999616 390.981112 
L 510.257664 390.996802 
L 514.934784 391.098787 
L 515.2896 391.114477 
L 520.837632 391.216462 
L 521.192448 391.236075 
L 528.127488 391.345905 
L 529.062912 391.349828 
L 576.608256 391.404743 
L 576.640512 391.538108 
L 576.705024 391.357673 
L 576.995328 391.381208 
L 657.248256 391.38513 
L 657.280512 391.585178 
L 657.345024 391.38513 
L 657.53856 391.365518 
L 658.635264 391.389053 
L 737.888256 391.38513 
L 737.920512 391.585178 
L 737.985024 391.38513 
L 738.17856 391.365518 
L 739.275264 391.389053 
L 818.528256 391.38513 
L 818.560512 391.585178 
L 818.625024 391.38513 
L 818.81856 391.365518 
L 819.915264 391.389053 
L 899.168256 391.38513 
L 899.200512 391.585178 
L 899.265024 391.38513 
L 899.45856 391.365518 
L 900.555264 391.389053 
L 947.52 391.389053 
L 947.52 391.389053 
" clip-path="url(#pced1e45a9d)" style="fill: none; stroke: #ff00ff; stroke-width: 2; stroke-linecap: square"/>
   </g>
   <g id="patch_22">
    <path d="M 100.8 465.442759 
L 100.8 372.711724 
" style="fill: none; stroke: #bcbcbc; stroke-width: 0.8; stroke-linejoin: miter; stroke-linecap: square"/>
   </g>
   <g id="patch_23">
    <path d="M 987.84 465.442759 
L 987.84 372.711724 
" style="fill: none; stroke: #bcbcbc; stroke-width: 0.8; stroke-linejoin: miter; stroke-linecap: square"/>
   </g>
   <g id="patch_24">
    <path d="M 100.8 465.442759 
L 987.84 465.442759 
" style="fill: none; stroke: #bcbcbc; stroke-width: 0.8; stroke-linejoin: miter; stroke-linecap: square"/>
   </g>
   <g id="patch_25">
    <path d="M 100.8 372.711724 
L 987.84 372.711724 
" style="fill: none; stroke: #bcbcbc; stroke-width: 0.8; stroke-linejoin: miter; stroke-linecap: square"/>
   </g>
  </g>
  <g id="axes_5">
   <g id="patch_26">
    <path d="M 100.8 576.72 
L 987.84 576.72 
L 987.84 483.988966 
L 100.8 483.988966 
z
" style="fill: #eeeeee"/>
   </g>
   <g id="matplotlib.axis_9">
    <g id="xtick_25">
     <g id="line2d_71">
      <path d="M 141.12 576.72 
L 141.12 483.988966 
" clip-path="url(#pa79ada915f)" style="fill: none; stroke-dasharray: 1.85,0.8; stroke-dashoffset: 0; stroke: #b2b2b2; stroke-width: 0.5"/>
     </g>
     <g id="line2d_72">
      <g>
       <use xlink:href="#m7cff879420" x="141.12" y="576.72" style="stroke: #000000; stroke-width: 0.8"/>
      </g>
     </g>
     <g id="text_14">
      <!-- 0 s -->
      <g transform="translate(130.795 590.857813) scale(0.14 -0.14)">
       <defs>
        <path id="DejaVuSans-73" d="M 2834 3397 
L 2834 2853 
Q 2591 2978 2328 3040 
Q 2066 3103 1784 3103 
Q 1356 3103 1142 2972 
Q 928 2841 928 2578 
Q 928 2378 1081 2264 
Q 1234 2150 1697 2047 
L 1894 2003 
Q 2506 1872 2764 1633 
Q 3022 1394 3022 966 
Q 3022 478 2636 193 
Q 2250 -91 1575 -91 
Q 1294 -91 989 -36 
Q 684 19 347 128 
L 347 722 
Q 666 556 975 473 
Q 1284 391 1588 391 
Q 1994 391 2212 530 
Q 2431 669 2431 922 
Q 2431 1156 2273 1281 
Q 2116 1406 1581 1522 
L 1381 1569 
Q 847 1681 609 1914 
Q 372 2147 372 2553 
Q 372 3047 722 3315 
Q 1072 3584 1716 3584 
Q 2034 3584 2315 3537 
Q 2597 3491 2834 3397 
z
" transform="scale(0.015625)"/>
       </defs>
       <use xlink:href="#DejaVuSans-30"/>
       <use xlink:href="#DejaVuSans-20" x="63.623047"/>
       <use xlink:href="#DejaVuSans-73" x="95.410156"/>
      </g>
     </g>
    </g>
    <g id="xtick_26">
     <g id="line2d_73">
      <path d="M 302.4 576.72 
L 302.4 483.988966 
" clip-path="url(#pa79ada915f)" style="fill: none; stroke-dasharray: 1.85,0.8; stroke-dashoffset: 0; stroke: #b2b2b2; stroke-width: 0.5"/>
     </g>
     <g id="line2d_74">
      <g>
       <use xlink:href="#m7cff879420" x="302.4" y="576.72" style="stroke: #000000; stroke-width: 0.8"/>
      </g>
     </g>
     <g id="text_15">
      <!-- 50 ns -->
      <g transform="translate(283.185 590.857813) scale(0.14 -0.14)">
       <defs>
        <path id="DejaVuSans-35" d="M 691 4666 
L 3169 4666 
L 3169 4134 
L 1269 4134 
L 1269 2991 
Q 1406 3038 1543 3061 
Q 1681 3084 1819 3084 
Q 2600 3084 3056 2656 
Q 3513 2228 3513 1497 
Q 3513 744 3044 326 
Q 2575 -91 1722 -91 
Q 1428 -91 1123 -41 
Q 819 9 494 109 
L 494 744 
Q 775 591 1075 516 
Q 1375 441 1709 441 
Q 2250 441 2565 725 
Q 2881 1009 2881 1497 
Q 2881 1984 2565 2268 
Q 2250 2553 1709 2553 
Q 1456 2553 1204 2497 
Q 953 2441 691 2322 
L 691 4666 
z
" transform="scale(0.015625)"/>
        <path id="DejaVuSans-6e" d="M 3513 2113 
L 3513 0 
L 2938 0 
L 2938 2094 
Q 2938 2591 2744 2837 
Q 2550 3084 2163 3084 
Q 1697 3084 1428 2787 
Q 1159 2491 1159 1978 
L 1159 0 
L 581 0 
L 581 3500 
L 1159 3500 
L 1159 2956 
Q 1366 3272 1645 3428 
Q 1925 3584 2291 3584 
Q 2894 3584 3203 3211 
Q 3513 2838 3513 2113 
z
" transform="scale(0.015625)"/>
       </defs>
       <use xlink:href="#DejaVuSans-35"/>
       <use xlink:href="#DejaVuSans-30" x="63.623047"/>
       <use xlink:href="#DejaVuSans-20" x="127.246094"/>
       <use xlink:href="#DejaVuSans-6e" x="159.033203"/>
       <use xlink:href="#DejaVuSans-73" x="222.412109"/>
      </g>
     </g>
    </g>
    <g id="xtick_27">
     <g id="line2d_75">
      <path d="M 463.68 576.72 
L 463.68 483.988966 
" clip-path="url(#pa79ada915f)" style="fill: none; stroke-dasharray: 1.85,0.8; stroke-dashoffset: 0; stroke: #b2b2b2; stroke-width: 0.5"/>
     </g>
     <g id="line2d_76">
      <g>
       <use xlink:href="#m7cff879420" x="463.68" y="576.72" style="stroke: #000000; stroke-width: 0.8"/>
      </g>
     </g>
     <g id="text_16">
      <!-- 100 ns -->
      <g transform="translate(440.01125 590.857813) scale(0.14 -0.14)">
       <use xlink:href="#DejaVuSans-31"/>
       <use xlink:href="#DejaVuSans-30" x="63.623047"/>
       <use xlink:href="#DejaVuSans-30" x="127.246094"/>
       <use xlink:href="#DejaVuSans-20" x="190.869141"/>
       <use xlink:href="#DejaVuSans-6e" x="222.65625"/>
       <use xlink:href="#DejaVuSans-73" x="286.035156"/>
      </g>
     </g>
    </g>
    <g id="xtick_28">
     <g id="line2d_77">
      <path d="M 624.96 576.72 
L 624.96 483.988966 
" clip-path="url(#pa79ada915f)" style="fill: none; stroke-dasharray: 1.85,0.8; stroke-dashoffset: 0; stroke: #b2b2b2; stroke-width: 0.5"/>
     </g>
     <g id="line2d_78">
      <g>
       <use xlink:href="#m7cff879420" x="624.96" y="576.72" style="stroke: #000000; stroke-width: 0.8"/>
      </g>
     </g>
     <g id="text_17">
      <!-- 150 ns -->
      <g transform="translate(601.29125 590.857813) scale(0.14 -0.14)">
       <use xlink:href="#DejaVuSans-31"/>
       <use xlink:href="#DejaVuSans-35" x="63.623047"/>
       <use xlink:href="#DejaVuSans-30" x="127.246094"/>
       <use xlink:href="#DejaVuSans-20" x="190.869141"/>
       <use xlink:href="#DejaVuSans-6e" x="222.65625"/>
       <use xlink:href="#DejaVuSans-73" x="286.035156"/>
      </g>
     </g>
    </g>
    <g id="xtick_29">
     <g id="line2d_79">
      <path d="M 786.24 576.72 
L 786.24 483.988966 
" clip-path="url(#pa79ada915f)" style="fill: none; stroke-dasharray: 1.85,0.8; stroke-dashoffset: 0; stroke: #b2b2b2; stroke-width: 0.5"/>
     </g>
     <g id="line2d_80">
      <g>
       <use xlink:href="#m7cff879420" x="786.24" y="576.72" style="stroke: #000000; stroke-width: 0.8"/>
      </g>
     </g>
     <g id="text_18">
      <!-- 200 ns -->
      <g transform="translate(762.57125 590.857813) scale(0.14 -0.14)">
       <use xlink:href="#DejaVuSans-32"/>
       <use xlink:href="#DejaVuSans-30" x="63.623047"/>
       <use xlink:href="#DejaVuSans-30" x="127.246094"/>
       <use xlink:href="#DejaVuSans-20" x="190.869141"/>
       <use xlink:href="#DejaVuSans-6e" x="222.65625"/>
       <use xlink:href="#DejaVuSans-73" x="286.035156"/>
      </g>
     </g>
    </g>
    <g id="xtick_30">
     <g id="line2d_81">
      <path d="M 947.52 576.72 
L 947.52 483.988966 
" clip-path="url(#pa79ada915f)" style="fill: none; stroke-dasharray: 1.85,0.8; stroke-dashoffset: 0; stroke: #b2b2b2; stroke-width: 0.5"/>
     </g>
     <g id="line2d_82">
      <g>
       <use xlink:href="#m7cff879420" x="947.52" y="576.72" style="stroke: #000000; stroke-width: 0.8"/>
      </g>
     </g>
     <g id="text_19">
      <!-- 250 ns -->
      <g transform="translate(923.85125 590.857813) scale(0.14 -0.14)">
       <use xlink:href="#DejaVuSans-32"/>
       <use xlink:href="#DejaVuSans-35" x="63.623047"/>
       <use xlink:href="#DejaVuSans-30" x="127.246094"/>
       <use xlink:href="#DejaVuSans-20" x="190.869141"/>
       <use xlink:href="#DejaVuSans-6e" x="222.65625"/>
       <use xlink:href="#DejaVuSans-73" x="286.035156"/>
      </g>
     </g>
    </g>
    <g id="text_20">
     <!-- Time -->
     <g transform="translate(527.192969 608.407187) scale(0.14 -0.14)">
      <defs>
       <path id="DejaVuSans-69" d="M 603 3500 
L 1178 3500 
L 1178 0 
L 603 0 
L 603 3500 
z
M 603 4863 
L 1178 4863 
L 1178 4134 
L 603 4134 
L 603 4863 
z
" transform="scale(0.015625)"/>
       <path id="DejaVuSans-6d" d="M 3328 2828 
Q 3544 3216 3844 3400 
Q 4144 3584 4550 3584 
Q 5097 3584 5394 3201 
Q 5691 2819 5691 2113 
L 5691 0 
L 5113 0 
L 5113 2094 
Q 5113 2597 4934 2840 
Q 4756 3084 4391 3084 
Q 3944 3084 3684 2787 
Q 3425 2491 3425 1978 
L 3425 0 
L 2847 0 
L 2847 2094 
Q 2847 2600 2669 2842 
Q 2491 3084 2119 3084 
Q 1678 3084 1418 2786 
Q 1159 2488 1159 1978 
L 1159 0 
L 581 0 
L 581 3500 
L 1159 3500 
L 1159 2956 
Q 1356 3278 1631 3431 
Q 1906 3584 2284 3584 
Q 2666 3584 2933 3390 
Q 3200 3197 3328 2828 
z
" transform="scale(0.015625)"/>
       <path id="DejaVuSans-65" d="M 3597 1894 
L 3597 1613 
L 953 1613 
Q 991 1019 1311 708 
Q 1631 397 2203 397 
Q 2534 397 2845 478 
Q 3156 559 3463 722 
L 3463 178 
Q 3153 47 2828 -22 
Q 2503 -91 2169 -91 
Q 1331 -91 842 396 
Q 353 884 353 1716 
Q 353 2575 817 3079 
Q 1281 3584 2069 3584 
Q 2775 3584 3186 3129 
Q 3597 2675 3597 1894 
z
M 3022 2063 
Q 3016 2534 2758 2815 
Q 2500 3097 2075 3097 
Q 1594 3097 1305 2825 
Q 1016 2553 972 2059 
L 3022 2063 
z
" transform="scale(0.015625)"/>
      </defs>
      <use xlink:href="#DejaVuSans-54"/>
      <use xlink:href="#DejaVuSans-69" x="57.958984"/>
      <use xlink:href="#DejaVuSans-6d" x="85.742188"/>
      <use xlink:href="#DejaVuSans-65" x="183.154297"/>
     </g>
    </g>
   </g>
   <g id="matplotlib.axis_10">
    <g id="ytick_10">
     <g id="line2d_83">
      <path d="M 100.8 569.740788 
L 987.84 569.740788 
" clip-path="url(#pa79ada915f)" style="fill: none; stroke-dasharray: 1.85,0.8; stroke-dashoffset: 0; stroke: #b2b2b2; stroke-width: 0.5"/>
     </g>
     <g id="line2d_84">
      <g>
       <use xlink:href="#m363c788851" x="100.8" y="569.740788" style="stroke: #000000; stroke-width: 0.8"/>
      </g>
     </g>
     <g id="text_21">
      <!-- 0 V -->
      <g transform="translate(74.36625 575.059694) scale(0.14 -0.14)">
       <use xlink:href="#DejaVuSans-30"/>
       <use xlink:href="#DejaVuSans-20" x="63.623047"/>
       <use xlink:href="#DejaVuSans-56" x="95.410156"/>
      </g>
     </g>
    </g>
    <g id="ytick_11">
     <g id="line2d_85">
      <path d="M 100.8 535.882813 
L 987.84 535.882813 
" clip-path="url(#pa79ada915f)" style="fill: none; stroke-dasharray: 1.85,0.8; stroke-dashoffset: 0; stroke: #b2b2b2; stroke-width: 0.5"/>
     </g>
     <g id="line2d_86">
      <g>
       <use xlink:href="#m363c788851" x="100.8" y="535.882813" style="stroke: #000000; stroke-width: 0.8"/>
      </g>
     </g>
     <g id="text_22">
      <!-- 500 mV -->
      <g transform="translate(42.914375 541.201719) scale(0.14 -0.14)">
       <use xlink:href="#DejaVuSans-35"/>
       <use xlink:href="#DejaVuSans-30" x="63.623047"/>
       <use xlink:href="#DejaVuSans-30" x="127.246094"/>
       <use xlink:href="#DejaVuSans-20" x="190.869141"/>
       <use xlink:href="#DejaVuSans-6d" x="222.65625"/>
       <use xlink:href="#DejaVuSans-56" x="320.068359"/>
      </g>
     </g>
    </g>
    <g id="ytick_12">
     <g id="line2d_87">
      <path d="M 100.8 502.024838 
L 987.84 502.024838 
" clip-path="url(#pa79ada915f)" style="fill: none; stroke-dasharray: 1.85,0.8; stroke-dashoffset: 0; stroke: #b2b2b2; stroke-width: 0.5"/>
     </g>
     <g id="line2d_88">
      <g>
       <use xlink:href="#m363c788851" x="100.8" y="502.024838" style="stroke: #000000; stroke-width: 0.8"/>
      </g>
     </g>
     <g id="text_23">
      <!-- 1 V -->
      <g transform="translate(74.36625 507.343744) scale(0.14 -0.14)">
       <use xlink:href="#DejaVuSans-31"/>
       <use xlink:href="#DejaVuSans-20" x="63.623047"/>
       <use xlink:href="#DejaVuSans-56" x="95.410156"/>
      </g>
     </g>
    </g>
    <g id="text_24">
     <g id="patch_27">
      <path d="M 34.8768 554.329483 
L 34.8768 506.379483 
L 11.247425 506.379483 
L 11.247425 554.329483 
z
" style="fill: #ffff00; opacity: 0.2; stroke: #eeeeee; stroke-width: 0.5; stroke-linejoin: miter"/>
     </g>
     <!-- FOUT -->
     <g transform="translate(26.925238 549.289483) rotate(-90) scale(0.14 -0.14)">
      <use xlink:href="#DejaVuSans-46"/>
      <use xlink:href="#DejaVuSans-4f" x="57.519531"/>
      <use xlink:href="#DejaVuSans-55" x="136.230469"/>
      <use xlink:href="#DejaVuSans-54" x="209.423828"/>
     </g>
    </g>
   </g>
   <g id="line2d_89">
    <path d="M 141.12 488.481648 
L 173.472768 488.48842 
L 173.505024 488.292043 
L 173.569536 526.70527 
L 173.69856 572.504953 
L 173.730816 572.36925 
L 173.827584 567.8335 
L 173.892096 569.355091 
L 174.053376 570.059683 
L 174.117888 569.941938 
L 174.408192 569.486487 
L 174.440448 569.536035 
L 174.66624 569.724827 
L 176.182272 569.735043 
L 180.117504 569.756381 
L 193.503744 569.74747 
L 212.921856 569.73891 
L 255.30624 569.738603 
L 255.6288 488.373302 
L 255.854592 488.515506 
L 256.209408 488.474876 
L 304.141824 488.366531 
L 304.17408 488.204013 
L 304.206336 488.921802 
L 304.270848 519.954667 
L 304.367616 570.091326 
L 304.432128 569.739736 
L 306.012672 569.739105 
L 350.62272 569.824126 
L 350.687232 568.617313 
L 350.751744 548.143463 
L 350.94528 488.962431 
L 351.074304 488.48842 
L 352.687104 488.48842 
L 352.71936 488.942116 
L 352.783872 511.673006 
L 352.945152 570.673575 
L 353.009664 569.371323 
L 353.074176 569.744093 
L 353.52576 569.739105 
L 416.166912 569.730696 
L 416.199168 569.326962 
L 416.26368 542.058508 
L 416.42496 489.04369 
L 416.553984 488.48842 
L 947.52 488.481648 
L 947.52 488.481648 
" clip-path="url(#pa79ada915f)" style="fill: none; stroke: #ff00ff; stroke-width: 2; stroke-linecap: square"/>
   </g>
   <g id="patch_28">
    <path d="M 100.8 576.72 
L 100.8 483.988966 
" style="fill: none; stroke: #bcbcbc; stroke-width: 0.8; stroke-linejoin: miter; stroke-linecap: square"/>
   </g>
   <g id="patch_29">
    <path d="M 987.84 576.72 
L 987.84 483.988966 
" style="fill: none; stroke: #bcbcbc; stroke-width: 0.8; stroke-linejoin: miter; stroke-linecap: square"/>
   </g>
   <g id="patch_30">
    <path d="M 100.8 576.72 
L 987.84 576.72 
" style="fill: none; stroke: #bcbcbc; stroke-width: 0.8; stroke-linejoin: miter; stroke-linecap: square"/>
   </g>
   <g id="patch_31">
    <path d="M 100.8 483.988966 
L 987.84 483.988966 
" style="fill: none; stroke: #bcbcbc; stroke-width: 0.8; stroke-linejoin: miter; stroke-linecap: square"/>
   </g>
  </g>
  <g id="axes_6">
   <g id="patch_32">
    <path d="M 201.6 628.56 
L 856.8 628.56 
L 856.8 615.6 
L 201.6 615.6 
z
" clip-path="url(#pff454ecc53)" style="fill: #d3d3d3"/>
   </g>
   <g id="patch_33">
    <path d="M 201.6 628.56 
L 346.68 628.56 
L 346.68 615.6 
L 201.6 615.6 
z
" clip-path="url(#pff454ecc53)" style="fill: #0000ff"/>
   </g>
   <g id="line2d_90">
    <path d="M 201.6 635.04 
L 201.6 609.12 
" clip-path="url(#p2b32e5567b)" style="fill: none; stroke: #ff0000; stroke-linecap: square"/>
   </g>
   <g id="line2d_91">
    <defs>
     <path id="m7869b6ab55" d="M 0 5 
C 1.326016 5 2.597899 4.473168 3.535534 3.535534 
C 4.473168 2.597899 5 1.326016 5 0 
C 5 -1.326016 4.473168 -2.597899 3.535534 -3.535534 
C 2.597899 -4.473168 1.326016 -5 0 -5 
C -1.326016 -5 -2.597899 -4.473168 -3.535534 -3.535534 
C -4.473168 -2.597899 -5 -1.326016 -5 0 
C -5 1.326016 -4.473168 2.597899 -3.535534 3.535534 
C -2.597899 4.473168 -1.326016 5 0 5 
z
" style="stroke: #bfbfbf"/>
    </defs>
    <g>
     <use xlink:href="#m7869b6ab55" x="346.68" y="622.08" style="fill: #ffffff; stroke: #bfbfbf"/>
    </g>
   </g>
   <g id="text_25">
    <!-- #Sweep -->
    <g transform="translate(138.622875 625.39125) scale(0.12 -0.12)">
     <defs>
      <path id="DejaVuSans-23" d="M 3272 2816 
L 2363 2816 
L 2100 1772 
L 3016 1772 
L 3272 2816 
z
M 2803 4594 
L 2478 3297 
L 3391 3297 
L 3719 4594 
L 4219 4594 
L 3897 3297 
L 4872 3297 
L 4872 2816 
L 3775 2816 
L 3519 1772 
L 4513 1772 
L 4513 1294 
L 3397 1294 
L 3072 0 
L 2572 0 
L 2894 1294 
L 1978 1294 
L 1656 0 
L 1153 0 
L 1478 1294 
L 494 1294 
L 494 1772 
L 1594 1772 
L 1856 2816 
L 850 2816 
L 850 3297 
L 1978 3297 
L 2297 4594 
L 2803 4594 
z
" transform="scale(0.015625)"/>
      <path id="DejaVuSans-77" d="M 269 3500 
L 844 3500 
L 1563 769 
L 2278 3500 
L 2956 3500 
L 3675 769 
L 4391 3500 
L 4966 3500 
L 4050 0 
L 3372 0 
L 2619 2869 
L 1863 0 
L 1184 0 
L 269 3500 
z
" transform="scale(0.015625)"/>
      <path id="DejaVuSans-70" d="M 1159 525 
L 1159 -1331 
L 581 -1331 
L 581 3500 
L 1159 3500 
L 1159 2969 
Q 1341 3281 1617 3432 
Q 1894 3584 2278 3584 
Q 2916 3584 3314 3078 
Q 3713 2572 3713 1747 
Q 3713 922 3314 415 
Q 2916 -91 2278 -91 
Q 1894 -91 1617 61 
Q 1341 213 1159 525 
z
M 3116 1747 
Q 3116 2381 2855 2742 
Q 2594 3103 2138 3103 
Q 1681 3103 1420 2742 
Q 1159 2381 1159 1747 
Q 1159 1113 1420 752 
Q 1681 391 2138 391 
Q 2594 391 2855 752 
Q 3116 1113 3116 1747 
z
" transform="scale(0.015625)"/>
     </defs>
     <use xlink:href="#DejaVuSans-23"/>
     <use xlink:href="#DejaVuSans-53" x="83.789062"/>
     <use xlink:href="#DejaVuSans-77" x="147.265625"/>
     <use xlink:href="#DejaVuSans-65" x="229.052734"/>
     <use xlink:href="#DejaVuSans-65" x="290.576172"/>
     <use xlink:href="#DejaVuSans-70" x="352.099609"/>
    </g>
   </g>
   <g id="text_26">
    <!-- $\mathdefault{31}$ -->
    <g transform="translate(869.904 625.39125) scale(0.12 -0.12)">
     <defs>
      <path id="DejaVuSans-33" d="M 2597 2516 
Q 3050 2419 3304 2112 
Q 3559 1806 3559 1356 
Q 3559 666 3084 287 
Q 2609 -91 1734 -91 
Q 1441 -91 1130 -33 
Q 819 25 488 141 
L 488 750 
Q 750 597 1062 519 
Q 1375 441 1716 441 
Q 2309 441 2620 675 
Q 2931 909 2931 1356 
Q 2931 1769 2642 2001 
Q 2353 2234 1838 2234 
L 1294 2234 
L 1294 2753 
L 1863 2753 
Q 2328 2753 2575 2939 
Q 2822 3125 2822 3475 
Q 2822 3834 2567 4026 
Q 2313 4219 1838 4219 
Q 1578 4219 1281 4162 
Q 984 4106 628 3988 
L 628 4550 
Q 988 4650 1302 4700 
Q 1616 4750 1894 4750 
Q 2613 4750 3031 4423 
Q 3450 4097 3450 3541 
Q 3450 3153 3228 2886 
Q 3006 2619 2597 2516 
z
" transform="scale(0.015625)"/>
     </defs>
     <use xlink:href="#DejaVuSans-33" transform="translate(0 0.78125)"/>
     <use xlink:href="#DejaVuSans-31" transform="translate(63.623047 0.78125)"/>
    </g>
   </g>
  </g>
  <g id="text_27">
   <!-- DFF under BBI sweep analysis (Sweep = 41E-9) -->
   <g transform="translate(313.34625 25.1175) scale(0.16 -0.16)">
    <defs>
     <path id="DejaVuSans-75" d="M 544 1381 
L 544 3500 
L 1119 3500 
L 1119 1403 
Q 1119 906 1312 657 
Q 1506 409 1894 409 
Q 2359 409 2629 706 
Q 2900 1003 2900 1516 
L 2900 3500 
L 3475 3500 
L 3475 0 
L 2900 0 
L 2900 538 
Q 2691 219 2414 64 
Q 2138 -91 1772 -91 
Q 1169 -91 856 284 
Q 544 659 544 1381 
z
M 1991 3584 
L 1991 3584 
z
" transform="scale(0.015625)"/>
     <path id="DejaVuSans-64" d="M 2906 2969 
L 2906 4863 
L 3481 4863 
L 3481 0 
L 2906 0 
L 2906 525 
Q 2725 213 2448 61 
Q 2172 -91 1784 -91 
Q 1150 -91 751 415 
Q 353 922 353 1747 
Q 353 2572 751 3078 
Q 1150 3584 1784 3584 
Q 2172 3584 2448 3432 
Q 2725 3281 2906 2969 
z
M 947 1747 
Q 947 1113 1208 752 
Q 1469 391 1925 391 
Q 2381 391 2643 752 
Q 2906 1113 2906 1747 
Q 2906 2381 2643 2742 
Q 2381 3103 1925 3103 
Q 1469 3103 1208 2742 
Q 947 2381 947 1747 
z
" transform="scale(0.015625)"/>
     <path id="DejaVuSans-72" d="M 2631 2963 
Q 2534 3019 2420 3045 
Q 2306 3072 2169 3072 
Q 1681 3072 1420 2755 
Q 1159 2438 1159 1844 
L 1159 0 
L 581 0 
L 581 3500 
L 1159 3500 
L 1159 2956 
Q 1341 3275 1631 3429 
Q 1922 3584 2338 3584 
Q 2397 3584 2469 3576 
Q 2541 3569 2628 3553 
L 2631 2963 
z
" transform="scale(0.015625)"/>
     <path id="DejaVuSans-61" d="M 2194 1759 
Q 1497 1759 1228 1600 
Q 959 1441 959 1056 
Q 959 750 1161 570 
Q 1363 391 1709 391 
Q 2188 391 2477 730 
Q 2766 1069 2766 1631 
L 2766 1759 
L 2194 1759 
z
M 3341 1997 
L 3341 0 
L 2766 0 
L 2766 531 
Q 2569 213 2275 61 
Q 1981 -91 1556 -91 
Q 1019 -91 701 211 
Q 384 513 384 1019 
Q 384 1609 779 1909 
Q 1175 2209 1959 2209 
L 2766 2209 
L 2766 2266 
Q 2766 2663 2505 2880 
Q 2244 3097 1772 3097 
Q 1472 3097 1187 3025 
Q 903 2953 641 2809 
L 641 3341 
Q 956 3463 1253 3523 
Q 1550 3584 1831 3584 
Q 2591 3584 2966 3190 
Q 3341 2797 3341 1997 
z
" transform="scale(0.015625)"/>
     <path id="DejaVuSans-6c" d="M 603 4863 
L 1178 4863 
L 1178 0 
L 603 0 
L 603 4863 
z
" transform="scale(0.015625)"/>
     <path id="DejaVuSans-79" d="M 2059 -325 
Q 1816 -950 1584 -1140 
Q 1353 -1331 966 -1331 
L 506 -1331 
L 506 -850 
L 844 -850 
Q 1081 -850 1212 -737 
Q 1344 -625 1503 -206 
L 1606 56 
L 191 3500 
L 800 3500 
L 1894 763 
L 2988 3500 
L 3597 3500 
L 2059 -325 
z
" transform="scale(0.015625)"/>
     <path id="DejaVuSans-28" d="M 1984 4856 
Q 1566 4138 1362 3434 
Q 1159 2731 1159 2009 
Q 1159 1288 1364 580 
Q 1569 -128 1984 -844 
L 1484 -844 
Q 1016 -109 783 600 
Q 550 1309 550 2009 
Q 550 2706 781 3412 
Q 1013 4119 1484 4856 
L 1984 4856 
z
" transform="scale(0.015625)"/>
     <path id="DejaVuSans-3d" d="M 678 2906 
L 4684 2906 
L 4684 2381 
L 678 2381 
L 678 2906 
z
M 678 1631 
L 4684 1631 
L 4684 1100 
L 678 1100 
L 678 1631 
z
" transform="scale(0.015625)"/>
     <path id="DejaVuSans-34" d="M 2419 4116 
L 825 1625 
L 2419 1625 
L 2419 4116 
z
M 2253 4666 
L 3047 4666 
L 3047 1625 
L 3713 1625 
L 3713 1100 
L 3047 1100 
L 3047 0 
L 2419 0 
L 2419 1100 
L 313 1100 
L 313 1709 
L 2253 4666 
z
" transform="scale(0.015625)"/>
     <path id="DejaVuSans-2d" d="M 313 2009 
L 1997 2009 
L 1997 1497 
L 313 1497 
L 313 2009 
z
" transform="scale(0.015625)"/>
     <path id="DejaVuSans-39" d="M 703 97 
L 703 672 
Q 941 559 1184 500 
Q 1428 441 1663 441 
Q 2288 441 2617 861 
Q 2947 1281 2994 2138 
Q 2813 1869 2534 1725 
Q 2256 1581 1919 1581 
Q 1219 1581 811 2004 
Q 403 2428 403 3163 
Q 403 3881 828 4315 
Q 1253 4750 1959 4750 
Q 2769 4750 3195 4129 
Q 3622 3509 3622 2328 
Q 3622 1225 3098 567 
Q 2575 -91 1691 -91 
Q 1453 -91 1209 -44 
Q 966 3 703 97 
z
M 1959 2075 
Q 2384 2075 2632 2365 
Q 2881 2656 2881 3163 
Q 2881 3666 2632 3958 
Q 2384 4250 1959 4250 
Q 1534 4250 1286 3958 
Q 1038 3666 1038 3163 
Q 1038 2656 1286 2365 
Q 1534 2075 1959 2075 
z
" transform="scale(0.015625)"/>
     <path id="DejaVuSans-29" d="M 513 4856 
L 1013 4856 
Q 1481 4119 1714 3412 
Q 1947 2706 1947 2009 
Q 1947 1309 1714 600 
Q 1481 -109 1013 -844 
L 513 -844 
Q 928 -128 1133 580 
Q 1338 1288 1338 2009 
Q 1338 2731 1133 3434 
Q 928 4138 513 4856 
z
" transform="scale(0.015625)"/>
    </defs>
    <use xlink:href="#DejaVuSans-44"/>
    <use xlink:href="#DejaVuSans-46" x="77.001953"/>
    <use xlink:href="#DejaVuSans-46" x="134.521484"/>
    <use xlink:href="#DejaVuSans-20" x="192.041016"/>
    <use xlink:href="#DejaVuSans-75" x="223.828125"/>
    <use xlink:href="#DejaVuSans-6e" x="287.207031"/>
    <use xlink:href="#DejaVuSans-64" x="350.585938"/>
    <use xlink:href="#DejaVuSans-65" x="414.0625"/>
    <use xlink:href="#DejaVuSans-72" x="475.585938"/>
    <use xlink:href="#DejaVuSans-20" x="516.699219"/>
    <use xlink:href="#DejaVuSans-42" x="548.486328"/>
    <use xlink:href="#DejaVuSans-42" x="617.089844"/>
    <use xlink:href="#DejaVuSans-49" x="685.693359"/>
    <use xlink:href="#DejaVuSans-20" x="715.185547"/>
    <use xlink:href="#DejaVuSans-73" x="746.972656"/>
    <use xlink:href="#DejaVuSans-77" x="799.072266"/>
    <use xlink:href="#DejaVuSans-65" x="880.859375"/>
    <use xlink:href="#DejaVuSans-65" x="942.382812"/>
    <use xlink:href="#DejaVuSans-70" x="1003.90625"/>
    <use xlink:href="#DejaVuSans-20" x="1067.382812"/>
    <use xlink:href="#DejaVuSans-61" x="1099.169922"/>
    <use xlink:href="#DejaVuSans-6e" x="1160.449219"/>
    <use xlink:href="#DejaVuSans-61" x="1223.828125"/>
    <use xlink:href="#DejaVuSans-6c" x="1285.107422"/>
    <use xlink:href="#DejaVuSans-79" x="1312.890625"/>
    <use xlink:href="#DejaVuSans-73" x="1372.070312"/>
    <use xlink:href="#DejaVuSans-69" x="1424.169922"/>
    <use xlink:href="#DejaVuSans-73" x="1451.953125"/>
    <use xlink:href="#DejaVuSans-20" x="1504.052734"/>
    <use xlink:href="#DejaVuSans-28" x="1535.839844"/>
    <use xlink:href="#DejaVuSans-53" x="1574.853516"/>
    <use xlink:href="#DejaVuSans-77" x="1638.330078"/>
    <use xlink:href="#DejaVuSans-65" x="1720.117188"/>
    <use xlink:href="#DejaVuSans-65" x="1781.640625"/>
    <use xlink:href="#DejaVuSans-70" x="1843.164062"/>
    <use xlink:href="#DejaVuSans-20" x="1906.640625"/>
    <use xlink:href="#DejaVuSans-3d" x="1938.427734"/>
    <use xlink:href="#DejaVuSans-20" x="2022.216797"/>
    <use xlink:href="#DejaVuSans-34" x="2054.003906"/>
    <use xlink:href="#DejaVuSans-31" x="2117.626953"/>
    <use xlink:href="#DejaVuSans-45" x="2181.25"/>
    <use xlink:href="#DejaVuSans-2d" x="2244.433594"/>
    <use xlink:href="#DejaVuSans-39" x="2280.517578"/>
    <use xlink:href="#DejaVuSans-29" x="2344.140625"/>
   </g>
  </g>
 </g>
 <defs>
  <clipPath id="p22b1fb53d8">
   <rect x="100.8" y="38.88" width="887.04" height="92.731034"/>
  </clipPath>
  <clipPath id="p6dfda0a1e7">
   <rect x="100.8" y="150.157241" width="887.04" height="92.731034"/>
  </clipPath>
  <clipPath id="p7a9fb6670d">
   <rect x="100.8" y="261.434483" width="887.04" height="92.731034"/>
  </clipPath>
  <clipPath id="pced1e45a9d">
   <rect x="100.8" y="372.711724" width="887.04" height="92.731034"/>
  </clipPath>
  <clipPath id="pa79ada915f">
   <rect x="100.8" y="483.988966" width="887.04" height="92.731034"/>
  </clipPath>
  <clipPath id="pff454ecc53">
   <rect x="201.6" y="609.12" width="655.2" height="25.92"/>
  </clipPath>
  <clipPath id="p2b32e5567b">
   <path d="M 201.6 628.56 
L 856.8 628.56 
L 856.8 615.6 
L 201.6 615.6 
z
"/>
  </clipPath>
 </defs>
</svg>
