<?xml version="1.0" encoding="utf-8" standalone="no"?>
<!DOCTYPE svg PUBLIC "-//W3C//DTD SVG 1.1//EN"
  "http://www.w3.org/Graphics/SVG/1.1/DTD/svg11.dtd">
<svg xmlns:xlink="http://www.w3.org/1999/xlink" width="1008pt" height="648pt" viewBox="0 0 1008 648" xmlns="http://www.w3.org/2000/svg" version="1.1">
 <metadata>
  <rdf:RDF xmlns:dc="http://purl.org/dc/elements/1.1/" xmlns:cc="http://creativecommons.org/ns#" xmlns:rdf="http://www.w3.org/1999/02/22-rdf-syntax-ns#">
   <cc:Work>
    <dc:type rdf:resource="http://purl.org/dc/dcmitype/StillImage"/>
    <dc:date>2024-06-03T10:45:51.036500</dc:date>
    <dc:format>image/svg+xml</dc:format>
    <dc:creator>
     <cc:Agent>
      <dc:title>Matplotlib v3.9.0, https://matplotlib.org/</dc:title>
     </cc:Agent>
    </dc:creator>
   </cc:Work>
  </rdf:RDF>
 </metadata>
 <defs>
  <style type="text/css">*{stroke-linejoin: round; stroke-linecap: butt}</style>
 </defs>
 <g id="figure_1">
  <g id="patch_1">
   <path d="M 0 648 
L 1008 648 
L 1008 0 
L 0 0 
z
" style="fill: #ffffff"/>
  </g>
  <g id="axes_1">
   <g id="patch_2">
    <path d="M 100.8 131.611034 
L 987.84 131.611034 
L 987.84 38.88 
L 100.8 38.88 
z
" style="fill: #eeeeee"/>
   </g>
   <g id="matplotlib.axis_1">
    <g id="xtick_1">
     <g id="line2d_1">
      <path d="M 141.12 131.611034 
L 141.12 38.88 
" clip-path="url(#p46cea12bea)" style="fill: none; stroke-dasharray: 1.85,0.8; stroke-dashoffset: 0; stroke: #b2b2b2; stroke-width: 0.5"/>
     </g>
     <g id="line2d_2">
      <defs>
       <path id="m6e974202a4" d="M 0 0 
L 0 -3.5 
" style="stroke: #000000; stroke-width: 0.8"/>
      </defs>
      <g>
       <use xlink:href="#m6e974202a4" x="141.12" y="131.611034" style="stroke: #000000; stroke-width: 0.8"/>
      </g>
     </g>
    </g>
    <g id="xtick_2">
     <g id="line2d_3">
      <path d="M 302.4 131.611034 
L 302.4 38.88 
" clip-path="url(#p46cea12bea)" style="fill: none; stroke-dasharray: 1.85,0.8; stroke-dashoffset: 0; stroke: #b2b2b2; stroke-width: 0.5"/>
     </g>
     <g id="line2d_4">
      <g>
       <use xlink:href="#m6e974202a4" x="302.4" y="131.611034" style="stroke: #000000; stroke-width: 0.8"/>
      </g>
     </g>
    </g>
    <g id="xtick_3">
     <g id="line2d_5">
      <path d="M 463.68 131.611034 
L 463.68 38.88 
" clip-path="url(#p46cea12bea)" style="fill: none; stroke-dasharray: 1.85,0.8; stroke-dashoffset: 0; stroke: #b2b2b2; stroke-width: 0.5"/>
     </g>
     <g id="line2d_6">
      <g>
       <use xlink:href="#m6e974202a4" x="463.68" y="131.611034" style="stroke: #000000; stroke-width: 0.8"/>
      </g>
     </g>
    </g>
    <g id="xtick_4">
     <g id="line2d_7">
      <path d="M 624.96 131.611034 
L 624.96 38.88 
" clip-path="url(#p46cea12bea)" style="fill: none; stroke-dasharray: 1.85,0.8; stroke-dashoffset: 0; stroke: #b2b2b2; stroke-width: 0.5"/>
     </g>
     <g id="line2d_8">
      <g>
       <use xlink:href="#m6e974202a4" x="624.96" y="131.611034" style="stroke: #000000; stroke-width: 0.8"/>
      </g>
     </g>
    </g>
    <g id="xtick_5">
     <g id="line2d_9">
      <path d="M 786.24 131.611034 
L 786.24 38.88 
" clip-path="url(#p46cea12bea)" style="fill: none; stroke-dasharray: 1.85,0.8; stroke-dashoffset: 0; stroke: #b2b2b2; stroke-width: 0.5"/>
     </g>
     <g id="line2d_10">
      <g>
       <use xlink:href="#m6e974202a4" x="786.24" y="131.611034" style="stroke: #000000; stroke-width: 0.8"/>
      </g>
     </g>
    </g>
    <g id="xtick_6">
     <g id="line2d_11">
      <path d="M 947.52 131.611034 
L 947.52 38.88 
" clip-path="url(#p46cea12bea)" style="fill: none; stroke-dasharray: 1.85,0.8; stroke-dashoffset: 0; stroke: #b2b2b2; stroke-width: 0.5"/>
     </g>
     <g id="line2d_12">
      <g>
       <use xlink:href="#m6e974202a4" x="947.52" y="131.611034" style="stroke: #000000; stroke-width: 0.8"/>
      </g>
     </g>
    </g>
   </g>
   <g id="matplotlib.axis_2">
    <g id="ytick_1">
     <g id="line2d_13">
      <path d="M 100.8 98.340394 
L 987.84 98.340394 
" clip-path="url(#p46cea12bea)" style="fill: none; stroke-dasharray: 1.85,0.8; stroke-dashoffset: 0; stroke: #b2b2b2; stroke-width: 0.5"/>
     </g>
     <g id="line2d_14">
      <defs>
       <path id="mdb6c814a10" d="M 0 0 
L 3.5 0 
" style="stroke: #000000; stroke-width: 0.8"/>
      </defs>
      <g>
       <use xlink:href="#mdb6c814a10" x="100.8" y="98.340394" style="stroke: #000000; stroke-width: 0.8"/>
      </g>
     </g>
     <g id="text_1">
      <!-- −200 V -->
      <g transform="translate(44.819688 103.6593) scale(0.14 -0.14)">
       <defs>
        <path id="DejaVuSans-2212" d="M 678 2272 
L 4684 2272 
L 4684 1741 
L 678 1741 
L 678 2272 
z
" transform="scale(0.015625)"/>
        <path id="DejaVuSans-32" d="M 1228 531 
L 3431 531 
L 3431 0 
L 469 0 
L 469 531 
Q 828 903 1448 1529 
Q 2069 2156 2228 2338 
Q 2531 2678 2651 2914 
Q 2772 3150 2772 3378 
Q 2772 3750 2511 3984 
Q 2250 4219 1831 4219 
Q 1534 4219 1204 4116 
Q 875 4013 500 3803 
L 500 4441 
Q 881 4594 1212 4672 
Q 1544 4750 1819 4750 
Q 2544 4750 2975 4387 
Q 3406 4025 3406 3419 
Q 3406 3131 3298 2873 
Q 3191 2616 2906 2266 
Q 2828 2175 2409 1742 
Q 1991 1309 1228 531 
z
" transform="scale(0.015625)"/>
        <path id="DejaVuSans-30" d="M 2034 4250 
Q 1547 4250 1301 3770 
Q 1056 3291 1056 2328 
Q 1056 1369 1301 889 
Q 1547 409 2034 409 
Q 2525 409 2770 889 
Q 3016 1369 3016 2328 
Q 3016 3291 2770 3770 
Q 2525 4250 2034 4250 
z
M 2034 4750 
Q 2819 4750 3233 4129 
Q 3647 3509 3647 2328 
Q 3647 1150 3233 529 
Q 2819 -91 2034 -91 
Q 1250 -91 836 529 
Q 422 1150 422 2328 
Q 422 3509 836 4129 
Q 1250 4750 2034 4750 
z
" transform="scale(0.015625)"/>
        <path id="DejaVuSans-20" transform="scale(0.015625)"/>
        <path id="DejaVuSans-56" d="M 1831 0 
L 50 4666 
L 709 4666 
L 2188 738 
L 3669 4666 
L 4325 4666 
L 2547 0 
L 1831 0 
z
" transform="scale(0.015625)"/>
       </defs>
       <use xlink:href="#DejaVuSans-2212"/>
       <use xlink:href="#DejaVuSans-32" x="83.789062"/>
       <use xlink:href="#DejaVuSans-30" x="147.412109"/>
       <use xlink:href="#DejaVuSans-30" x="211.035156"/>
       <use xlink:href="#DejaVuSans-20" x="274.658203"/>
       <use xlink:href="#DejaVuSans-56" x="306.445312"/>
      </g>
     </g>
    </g>
    <g id="ytick_2">
     <g id="line2d_15">
      <path d="M 100.8 45.027377 
L 987.84 45.027377 
" clip-path="url(#p46cea12bea)" style="fill: none; stroke-dasharray: 1.85,0.8; stroke-dashoffset: 0; stroke: #b2b2b2; stroke-width: 0.5"/>
     </g>
     <g id="line2d_16">
      <g>
       <use xlink:href="#mdb6c814a10" x="100.8" y="45.027377" style="stroke: #000000; stroke-width: 0.8"/>
      </g>
     </g>
     <g id="text_2">
      <!-- 0 V -->
      <g transform="translate(74.36625 50.346284) scale(0.14 -0.14)">
       <use xlink:href="#DejaVuSans-30"/>
       <use xlink:href="#DejaVuSans-20" x="63.623047"/>
       <use xlink:href="#DejaVuSans-56" x="95.410156"/>
      </g>
     </g>
    </g>
    <g id="text_3">
     <g id="patch_3">
      <path d="M 34.8768 131.080205 
L 34.8768 39.41083 
L 11.247425 39.41083 
L 11.247425 131.080205 
z
" style="fill: #ffff00; opacity: 0.2; stroke: #eeeeee; stroke-width: 0.5; stroke-linejoin: miter"/>
     </g>
     <!-- VPULSE BBI -->
     <g transform="translate(26.925238 126.040205) rotate(-90) scale(0.14 -0.14)">
      <defs>
       <path id="DejaVuSans-50" d="M 1259 4147 
L 1259 2394 
L 2053 2394 
Q 2494 2394 2734 2622 
Q 2975 2850 2975 3272 
Q 2975 3691 2734 3919 
Q 2494 4147 2053 4147 
L 1259 4147 
z
M 628 4666 
L 2053 4666 
Q 2838 4666 3239 4311 
Q 3641 3956 3641 3272 
Q 3641 2581 3239 2228 
Q 2838 1875 2053 1875 
L 1259 1875 
L 1259 0 
L 628 0 
L 628 4666 
z
" transform="scale(0.015625)"/>
       <path id="DejaVuSans-55" d="M 556 4666 
L 1191 4666 
L 1191 1831 
Q 1191 1081 1462 751 
Q 1734 422 2344 422 
Q 2950 422 3222 751 
Q 3494 1081 3494 1831 
L 3494 4666 
L 4128 4666 
L 4128 1753 
Q 4128 841 3676 375 
Q 3225 -91 2344 -91 
Q 1459 -91 1007 375 
Q 556 841 556 1753 
L 556 4666 
z
" transform="scale(0.015625)"/>
       <path id="DejaVuSans-4c" d="M 628 4666 
L 1259 4666 
L 1259 531 
L 3531 531 
L 3531 0 
L 628 0 
L 628 4666 
z
" transform="scale(0.015625)"/>
       <path id="DejaVuSans-53" d="M 3425 4513 
L 3425 3897 
Q 3066 4069 2747 4153 
Q 2428 4238 2131 4238 
Q 1616 4238 1336 4038 
Q 1056 3838 1056 3469 
Q 1056 3159 1242 3001 
Q 1428 2844 1947 2747 
L 2328 2669 
Q 3034 2534 3370 2195 
Q 3706 1856 3706 1288 
Q 3706 609 3251 259 
Q 2797 -91 1919 -91 
Q 1588 -91 1214 -16 
Q 841 59 441 206 
L 441 856 
Q 825 641 1194 531 
Q 1563 422 1919 422 
Q 2459 422 2753 634 
Q 3047 847 3047 1241 
Q 3047 1584 2836 1778 
Q 2625 1972 2144 2069 
L 1759 2144 
Q 1053 2284 737 2584 
Q 422 2884 422 3419 
Q 422 4038 858 4394 
Q 1294 4750 2059 4750 
Q 2388 4750 2728 4690 
Q 3069 4631 3425 4513 
z
" transform="scale(0.015625)"/>
       <path id="DejaVuSans-45" d="M 628 4666 
L 3578 4666 
L 3578 4134 
L 1259 4134 
L 1259 2753 
L 3481 2753 
L 3481 2222 
L 1259 2222 
L 1259 531 
L 3634 531 
L 3634 0 
L 628 0 
L 628 4666 
z
" transform="scale(0.015625)"/>
       <path id="DejaVuSans-42" d="M 1259 2228 
L 1259 519 
L 2272 519 
Q 2781 519 3026 730 
Q 3272 941 3272 1375 
Q 3272 1813 3026 2020 
Q 2781 2228 2272 2228 
L 1259 2228 
z
M 1259 4147 
L 1259 2741 
L 2194 2741 
Q 2656 2741 2882 2914 
Q 3109 3088 3109 3444 
Q 3109 3797 2882 3972 
Q 2656 4147 2194 4147 
L 1259 4147 
z
M 628 4666 
L 2241 4666 
Q 2963 4666 3353 4366 
Q 3744 4066 3744 3513 
Q 3744 3084 3544 2831 
Q 3344 2578 2956 2516 
Q 3422 2416 3680 2098 
Q 3938 1781 3938 1306 
Q 3938 681 3513 340 
Q 3088 0 2303 0 
L 628 0 
L 628 4666 
z
" transform="scale(0.015625)"/>
       <path id="DejaVuSans-49" d="M 628 4666 
L 1259 4666 
L 1259 0 
L 628 0 
L 628 4666 
z
" transform="scale(0.015625)"/>
      </defs>
      <use xlink:href="#DejaVuSans-56"/>
      <use xlink:href="#DejaVuSans-50" x="68.408203"/>
      <use xlink:href="#DejaVuSans-55" x="128.710938"/>
      <use xlink:href="#DejaVuSans-4c" x="201.904297"/>
      <use xlink:href="#DejaVuSans-53" x="257.617188"/>
      <use xlink:href="#DejaVuSans-45" x="321.09375"/>
      <use xlink:href="#DejaVuSans-20" x="384.277344"/>
      <use xlink:href="#DejaVuSans-42" x="416.064453"/>
      <use xlink:href="#DejaVuSans-42" x="484.667969"/>
      <use xlink:href="#DejaVuSans-49" x="553.271484"/>
     </g>
    </g>
   </g>
   <g id="line2d_17">
    <path d="M 141.12 45.027377 
L 512.096256 45.136282 
L 512.580096 46.425538 
L 520.805376 69.006772 
L 528.224256 89.863624 
L 529.837056 94.440546 
L 531.643392 99.673219 
L 535.12704 110.807642 
L 536.707584 115.853719 
L 537.997824 119.585631 
L 538.449408 119.80688 
L 539.513856 120.297359 
L 539.997696 120.526605 
L 541.062144 121.017085 
L 541.642752 121.272988 
L 542.513664 121.656841 
L 543.094272 121.912744 
L 543.932928 122.269941 
L 545.513472 122.936354 
L 546.158592 123.202919 
L 547.255296 123.629423 
L 547.997184 123.922644 
L 549.093888 124.349149 
L 549.997056 124.677024 
L 550.674432 124.943589 
L 551.480832 125.25547 
L 552.835584 125.804594 
L 555.480576 126.790885 
L 556.09344 127.022796 
L 558.0288 127.395987 
L 576.511488 127.289361 
L 576.73728 126.801547 
L 595.026432 75.087922 
L 598.768128 63.292417 
L 602.477568 51.617666 
L 607.090176 49.3412 
L 612.444672 46.984578 
L 621.153792 43.484472 
L 622.024704 43.268927 
L 636.314112 43.108189 
L 643.120128 43.184799 
L 658.473984 43.746186 
L 686.2464 44.46146 
L 711.88992 44.774399 
L 747.500544 44.945888 
L 795.529728 44.953885 
L 947.52 44.953885 
L 947.52 44.953885 
" clip-path="url(#p46cea12bea)" style="fill: none; stroke: #ff0000; stroke-width: 2; stroke-linecap: square"/>
   </g>
   <g id="patch_4">
    <path d="M 100.8 131.611034 
L 100.8 38.88 
" style="fill: none; stroke: #bcbcbc; stroke-width: 0.8; stroke-linejoin: miter; stroke-linecap: square"/>
   </g>
   <g id="patch_5">
    <path d="M 987.84 131.611034 
L 987.84 38.88 
" style="fill: none; stroke: #bcbcbc; stroke-width: 0.8; stroke-linejoin: miter; stroke-linecap: square"/>
   </g>
   <g id="patch_6">
    <path d="M 100.8 131.611034 
L 987.84 131.611034 
" style="fill: none; stroke: #bcbcbc; stroke-width: 0.8; stroke-linejoin: miter; stroke-linecap: square"/>
   </g>
   <g id="patch_7">
    <path d="M 100.8 38.88 
L 987.84 38.88 
" style="fill: none; stroke: #bcbcbc; stroke-width: 0.8; stroke-linejoin: miter; stroke-linecap: square"/>
   </g>
  </g>
  <g id="axes_2">
   <g id="patch_8">
    <path d="M 100.8 242.888276 
L 987.84 242.888276 
L 987.84 150.157241 
L 100.8 150.157241 
z
" style="fill: #eeeeee"/>
   </g>
   <g id="matplotlib.axis_3">
    <g id="xtick_7">
     <g id="line2d_18">
      <path d="M 141.12 242.888276 
L 141.12 150.157241 
" clip-path="url(#p92c5d0b0b3)" style="fill: none; stroke-dasharray: 1.85,0.8; stroke-dashoffset: 0; stroke: #b2b2b2; stroke-width: 0.5"/>
     </g>
     <g id="line2d_19">
      <g>
       <use xlink:href="#m6e974202a4" x="141.12" y="242.888276" style="stroke: #000000; stroke-width: 0.8"/>
      </g>
     </g>
    </g>
    <g id="xtick_8">
     <g id="line2d_20">
      <path d="M 302.4 242.888276 
L 302.4 150.157241 
" clip-path="url(#p92c5d0b0b3)" style="fill: none; stroke-dasharray: 1.85,0.8; stroke-dashoffset: 0; stroke: #b2b2b2; stroke-width: 0.5"/>
     </g>
     <g id="line2d_21">
      <g>
       <use xlink:href="#m6e974202a4" x="302.4" y="242.888276" style="stroke: #000000; stroke-width: 0.8"/>
      </g>
     </g>
    </g>
    <g id="xtick_9">
     <g id="line2d_22">
      <path d="M 463.68 242.888276 
L 463.68 150.157241 
" clip-path="url(#p92c5d0b0b3)" style="fill: none; stroke-dasharray: 1.85,0.8; stroke-dashoffset: 0; stroke: #b2b2b2; stroke-width: 0.5"/>
     </g>
     <g id="line2d_23">
      <g>
       <use xlink:href="#m6e974202a4" x="463.68" y="242.888276" style="stroke: #000000; stroke-width: 0.8"/>
      </g>
     </g>
    </g>
    <g id="xtick_10">
     <g id="line2d_24">
      <path d="M 624.96 242.888276 
L 624.96 150.157241 
" clip-path="url(#p92c5d0b0b3)" style="fill: none; stroke-dasharray: 1.85,0.8; stroke-dashoffset: 0; stroke: #b2b2b2; stroke-width: 0.5"/>
     </g>
     <g id="line2d_25">
      <g>
       <use xlink:href="#m6e974202a4" x="624.96" y="242.888276" style="stroke: #000000; stroke-width: 0.8"/>
      </g>
     </g>
    </g>
    <g id="xtick_11">
     <g id="line2d_26">
      <path d="M 786.24 242.888276 
L 786.24 150.157241 
" clip-path="url(#p92c5d0b0b3)" style="fill: none; stroke-dasharray: 1.85,0.8; stroke-dashoffset: 0; stroke: #b2b2b2; stroke-width: 0.5"/>
     </g>
     <g id="line2d_27">
      <g>
       <use xlink:href="#m6e974202a4" x="786.24" y="242.888276" style="stroke: #000000; stroke-width: 0.8"/>
      </g>
     </g>
    </g>
    <g id="xtick_12">
     <g id="line2d_28">
      <path d="M 947.52 242.888276 
L 947.52 150.157241 
" clip-path="url(#p92c5d0b0b3)" style="fill: none; stroke-dasharray: 1.85,0.8; stroke-dashoffset: 0; stroke: #b2b2b2; stroke-width: 0.5"/>
     </g>
     <g id="line2d_29">
      <g>
       <use xlink:href="#m6e974202a4" x="947.52" y="242.888276" style="stroke: #000000; stroke-width: 0.8"/>
      </g>
     </g>
    </g>
   </g>
   <g id="matplotlib.axis_4">
    <g id="ytick_3">
     <g id="line2d_30">
      <path d="M 100.8 219.362015 
L 987.84 219.362015 
" clip-path="url(#p92c5d0b0b3)" style="fill: none; stroke-dasharray: 1.85,0.8; stroke-dashoffset: 0; stroke: #b2b2b2; stroke-width: 0.5"/>
     </g>
     <g id="line2d_31">
      <g>
       <use xlink:href="#mdb6c814a10" x="100.8" y="219.362015" style="stroke: #000000; stroke-width: 0.8"/>
      </g>
     </g>
     <g id="text_4">
      <!-- 0 V -->
      <g transform="translate(74.36625 224.680921) scale(0.14 -0.14)">
       <use xlink:href="#DejaVuSans-30"/>
       <use xlink:href="#DejaVuSans-20" x="63.623047"/>
       <use xlink:href="#DejaVuSans-56" x="95.410156"/>
      </g>
     </g>
    </g>
    <g id="ytick_4">
     <g id="line2d_32">
      <path d="M 100.8 185.780799 
L 987.84 185.780799 
" clip-path="url(#p92c5d0b0b3)" style="fill: none; stroke-dasharray: 1.85,0.8; stroke-dashoffset: 0; stroke: #b2b2b2; stroke-width: 0.5"/>
     </g>
     <g id="line2d_33">
      <g>
       <use xlink:href="#mdb6c814a10" x="100.8" y="185.780799" style="stroke: #000000; stroke-width: 0.8"/>
      </g>
     </g>
     <g id="text_5">
      <!-- 1 V -->
      <g transform="translate(74.36625 191.099706) scale(0.14 -0.14)">
       <defs>
        <path id="DejaVuSans-31" d="M 794 531 
L 1825 531 
L 1825 4091 
L 703 3866 
L 703 4441 
L 1819 4666 
L 2450 4666 
L 2450 531 
L 3481 531 
L 3481 0 
L 794 0 
L 794 531 
z
" transform="scale(0.015625)"/>
       </defs>
       <use xlink:href="#DejaVuSans-31"/>
       <use xlink:href="#DejaVuSans-20" x="63.623047"/>
       <use xlink:href="#DejaVuSans-56" x="95.410156"/>
      </g>
     </g>
    </g>
    <g id="ytick_5">
     <g id="line2d_34">
      <path d="M 100.8 152.199584 
L 987.84 152.199584 
" clip-path="url(#p92c5d0b0b3)" style="fill: none; stroke-dasharray: 1.85,0.8; stroke-dashoffset: 0; stroke: #b2b2b2; stroke-width: 0.5"/>
     </g>
     <g id="line2d_35">
      <g>
       <use xlink:href="#mdb6c814a10" x="100.8" y="152.199584" style="stroke: #000000; stroke-width: 0.8"/>
      </g>
     </g>
     <g id="text_6">
      <!-- 2 V -->
      <g transform="translate(74.36625 157.51849) scale(0.14 -0.14)">
       <use xlink:href="#DejaVuSans-32"/>
       <use xlink:href="#DejaVuSans-20" x="63.623047"/>
       <use xlink:href="#DejaVuSans-56" x="95.410156"/>
      </g>
     </g>
    </g>
    <g id="text_7">
     <g id="patch_9">
      <path d="M 34.8768 224.531509 
L 34.8768 168.514009 
L 11.247425 168.514009 
L 11.247425 224.531509 
z
" style="fill: #ffff00; opacity: 0.2; stroke: #eeeeee; stroke-width: 0.5; stroke-linejoin: miter"/>
     </g>
     <!-- DFF IN -->
     <g transform="translate(26.925238 219.491509) rotate(-90) scale(0.14 -0.14)">
      <defs>
       <path id="DejaVuSans-44" d="M 1259 4147 
L 1259 519 
L 2022 519 
Q 2988 519 3436 956 
Q 3884 1394 3884 2338 
Q 3884 3275 3436 3711 
Q 2988 4147 2022 4147 
L 1259 4147 
z
M 628 4666 
L 1925 4666 
Q 3281 4666 3915 4102 
Q 4550 3538 4550 2338 
Q 4550 1131 3912 565 
Q 3275 0 1925 0 
L 628 0 
L 628 4666 
z
" transform="scale(0.015625)"/>
       <path id="DejaVuSans-46" d="M 628 4666 
L 3309 4666 
L 3309 4134 
L 1259 4134 
L 1259 2759 
L 3109 2759 
L 3109 2228 
L 1259 2228 
L 1259 0 
L 628 0 
L 628 4666 
z
" transform="scale(0.015625)"/>
       <path id="DejaVuSans-4e" d="M 628 4666 
L 1478 4666 
L 3547 763 
L 3547 4666 
L 4159 4666 
L 4159 0 
L 3309 0 
L 1241 3903 
L 1241 0 
L 628 0 
L 628 4666 
z
" transform="scale(0.015625)"/>
      </defs>
      <use xlink:href="#DejaVuSans-44"/>
      <use xlink:href="#DejaVuSans-46" x="77.001953"/>
      <use xlink:href="#DejaVuSans-46" x="134.521484"/>
      <use xlink:href="#DejaVuSans-20" x="192.041016"/>
      <use xlink:href="#DejaVuSans-49" x="223.828125"/>
      <use xlink:href="#DejaVuSans-4e" x="253.320312"/>
     </g>
    </g>
   </g>
   <g id="line2d_36">
    <path d="M 141.12 219.312973 
L 221.953536 219.266923 
L 224.437248 200.555863 
L 225.404928 194.863847 
L 228.243456 182.348799 
L 229.598208 181.092862 
L 231.178752 180.229824 
L 236.565504 179.779836 
L 243.661824 179.669018 
L 245.1456 179.625363 
L 248.403456 179.514545 
L 250.113024 179.447382 
L 252.177408 179.336564 
L 254.241792 179.010826 
L 254.757888 178.480243 
L 255.499776 178.144431 
L 256.370688 178.16458 
L 257.531904 178.39629 
L 259.98336 178.795907 
L 262.370304 178.93359 
L 263.886336 178.983961 
L 264.144384 184.162185 
L 264.434688 187.685526 
L 265.176576 192.379172 
L 267.144192 209.511301 
L 268.402176 215.943783 
L 269.079552 217.255465 
L 270.46656 218.954205 
L 273.724416 219.363828 
L 282.594816 219.317409 
L 297.110016 219.30619 
L 305.883648 219.312177 
L 347.751936 219.268599 
L 350.235648 200.595488 
L 351.622656 192.058136 
L 352.687104 186.728125 
L 354.97728 179.914161 
L 358.493184 178.926873 
L 360.235008 178.997394 
L 363.073536 179.108212 
L 364.396032 179.135077 
L 375.169536 179.205597 
L 375.717888 180.186169 
L 376.169472 180.928314 
L 377.008128 181.824932 
L 377.524224 181.77456 
L 378.427392 181.485762 
L 380.45952 180.347359 
L 381.58848 179.991398 
L 387.201024 179.517903 
L 389.65248 179.407085 
L 391.813632 179.292909 
L 394.555392 179.18209 
L 395.9424 179.148509 
L 415.392768 179.041049 
L 415.973376 178.423155 
L 416.844288 178.090701 
L 417.908736 178.194803 
L 419.16672 178.473527 
L 420.908544 178.725386 
L 424.00512 178.936948 
L 455.712768 179.037691 
L 456.809472 179.917519 
L 457.261056 179.98804 
L 458.712576 180.028337 
L 462.744576 179.497754 
L 464.16384 179.313057 
L 467.518464 179.074631 
L 496.065024 178.997394 
L 496.548864 178.470169 
L 497.097216 178.191445 
L 498.51648 178.151147 
L 502.06464 178.779116 
L 504.741888 178.947022 
L 512.096256 179.054482 
L 512.354304 179.480963 
L 513.934848 182.375664 
L 516.805632 186.364441 
L 521.353728 192.620286 
L 521.90208 194.297331 
L 523.708416 201.072342 
L 527.450112 216.288964 
L 527.740416 217.084873 
L 528.288768 219.219422 
L 529.869312 223.804474 
L 529.96608 224.058012 
L 530.385408 225.220594 
L 530.869248 226.032588 
L 531.320832 226.522873 
L 531.514368 227.046069 
L 532.256256 228.751659 
L 532.578816 229.198625 
L 532.901376 229.988455 
L 533.417472 231.015704 
L 533.707776 231.428753 
L 534.6432 233.275384 
L 534.80448 233.573921 
L 535.481856 234.806688 
L 535.707648 235.223095 
L 536.09472 235.726813 
L 536.41728 236.252695 
L 536.643072 236.609999 
L 536.772096 236.880999 
L 537.191424 237.656054 
L 537.901056 238.673229 
L 538.126848 238.579537 
L 538.223616 238.528494 
L 538.417152 238.242046 
L 538.739712 237.828661 
L 539.094528 237.33401 
L 539.610624 236.346722 
L 540.675072 235.210334 
L 541.320192 234.298268 
L 541.41696 234.230098 
L 542.449152 233.391239 
L 543.223296 232.583947 
L 543.578112 231.947247 
L 543.900672 231.740723 
L 544.094208 231.680612 
L 544.352256 231.407933 
L 545.545728 230.58385 
L 545.900544 230.146958 
L 546.319872 229.471304 
L 546.674688 229.256384 
L 546.835968 229.295339 
L 548.771328 227.802654 
L 549.351936 226.915102 
L 549.80352 226.745181 
L 550.061568 226.715294 
L 550.44864 226.455039 
L 553.158144 224.337408 
L 554.899968 223.086508 
L 558.19008 220.171591 
L 559.028736 218.951317 
L 559.80288 217.927828 
L 560.480256 216.953805 
L 561.125376 216.079653 
L 564.576768 211.740422 
L 566.157312 210.087891 
L 566.350848 209.8498 
L 566.608896 209.290001 
L 569.3184 201.971982 
L 571.189248 199.112542 
L 572.092416 197.954997 
L 572.963328 196.830698 
L 573.931008 195.797404 
L 574.80192 194.692247 
L 576.221184 193.432615 
L 576.640512 192.88457 
L 576.963072 191.724675 
L 578.446848 186.169334 
L 579.285504 184.08159 
L 580.091904 182.654388 
L 580.704768 181.996196 
L 581.317632 181.630161 
L 582.188544 181.05928 
L 583.18848 179.971249 
L 584.349696 178.352634 
L 587.252736 174.0173 
L 588.059136 172.848673 
L 588.768768 171.81773 
L 594.607104 164.097408 
L 596.187648 162.126191 
L 597.86496 159.87625 
L 602.3808 154.392437 
L 602.509824 154.412586 
L 604.058112 155.094285 
L 604.606464 155.205103 
L 607.70304 155.96068 
L 610.670592 157.001698 
L 612.605952 157.693471 
L 613.218816 157.928539 
L 614.928384 158.522927 
L 616.960512 159.174402 
L 617.315328 160.752719 
L 618.250752 164.671647 
L 618.541056 164.832837 
L 618.863616 164.758958 
L 619.347456 164.278747 
L 620.928 162.475436 
L 621.669888 162.069103 
L 622.734336 162.069103 
L 623.863296 162.297455 
L 632.153088 164.997385 
L 633.088512 165.360062 
L 635.217408 166.13243 
L 636.056064 166.41787 
L 649.700352 170.568509 
L 650.151936 170.679327 
L 650.861568 170.860665 
L 654.829056 171.794223 
L 655.377408 171.908399 
L 657.345024 172.213988 
L 657.796608 171.653182 
L 658.34496 171.438262 
L 658.8288 171.49535 
L 659.344896 171.71027 
L 660.538368 172.324806 
L 661.312512 172.684125 
L 664.95744 173.71171 
L 665.505792 173.822528 
L 668.570112 174.349754 
L 669.312 174.457213 
L 670.989312 174.69564 
L 671.7312 174.806458 
L 673.150464 174.991155 
L 674.053632 175.098615 
L 675.343872 175.256446 
L 688.98816 176.566114 
L 689.601024 176.609769 
L 690.43968 176.673574 
L 693.697536 176.901926 
L 694.3104 176.94894 
L 697.05216 177.12692 
L 697.632768 177.160501 
L 698.406912 178.030255 
L 698.955264 178.245175 
L 700.084224 178.255249 
L 702.567936 177.593699 
L 709.47072 177.701159 
L 709.890048 177.721308 
L 710.664192 177.751531 
L 713.373696 177.862349 
L 715.11552 177.932869 
L 718.373376 178.040329 
L 719.083008 178.077269 
L 722.469888 178.18137 
L 722.889216 178.198161 
L 727.082496 178.308979 
L 728.534016 178.349276 
L 733.694976 178.460094 
L 735.017472 178.490317 
L 736.017408 178.497034 
L 738.01728 178.416439 
L 738.630144 177.822051 
L 739.081728 177.62728 
L 739.597824 177.570192 
L 740.823552 177.808619 
L 744.242688 178.409723 
L 745.92 178.520541 
L 747.661824 178.591061 
L 778.272768 178.698521 
L 779.208192 179.524619 
L 779.885568 179.689167 
L 782.143488 179.581707 
L 784.498176 179.202239 
L 789.497856 178.792548 
L 818.592768 178.701879 
L 819.14112 178.094059 
L 819.689472 177.822051 
L 821.624832 177.929511 
L 824.882688 178.497034 
L 827.04384 178.61121 
L 858.912768 178.701879 
L 859.848192 179.527977 
L 860.783616 179.705957 
L 862.073856 179.736181 
L 864.847872 179.269402 
L 870.782976 178.762325 
L 899.265024 178.654865 
L 899.78112 178.094059 
L 900.329472 177.822051 
L 902.264832 177.929511 
L 905.522688 178.497034 
L 907.68384 178.61121 
L 939.552768 178.701879 
L 940.617216 179.5582 
L 941.55264 179.742897 
L 943.488 179.632079 
L 946.455552 179.125002 
L 947.52 178.960454 
L 947.52 178.960454 
" clip-path="url(#p92c5d0b0b3)" style="fill: none; stroke: #008000; stroke-width: 2; stroke-linecap: square"/>
   </g>
   <g id="patch_10">
    <path d="M 100.8 242.888276 
L 100.8 150.157241 
" style="fill: none; stroke: #bcbcbc; stroke-width: 0.8; stroke-linejoin: miter; stroke-linecap: square"/>
   </g>
   <g id="patch_11">
    <path d="M 987.84 242.888276 
L 987.84 150.157241 
" style="fill: none; stroke: #bcbcbc; stroke-width: 0.8; stroke-linejoin: miter; stroke-linecap: square"/>
   </g>
   <g id="patch_12">
    <path d="M 100.8 242.888276 
L 987.84 242.888276 
" style="fill: none; stroke: #bcbcbc; stroke-width: 0.8; stroke-linejoin: miter; stroke-linecap: square"/>
   </g>
   <g id="patch_13">
    <path d="M 100.8 150.157241 
L 987.84 150.157241 
" style="fill: none; stroke: #bcbcbc; stroke-width: 0.8; stroke-linejoin: miter; stroke-linecap: square"/>
   </g>
  </g>
  <g id="axes_3">
   <g id="patch_14">
    <path d="M 100.8 354.165517 
L 987.84 354.165517 
L 987.84 261.434483 
L 100.8 261.434483 
z
" style="fill: #eeeeee"/>
   </g>
   <g id="matplotlib.axis_5">
    <g id="xtick_13">
     <g id="line2d_37">
      <path d="M 141.12 354.165517 
L 141.12 261.434483 
" clip-path="url(#pa639a56331)" style="fill: none; stroke-dasharray: 1.85,0.8; stroke-dashoffset: 0; stroke: #b2b2b2; stroke-width: 0.5"/>
     </g>
     <g id="line2d_38">
      <g>
       <use xlink:href="#m6e974202a4" x="141.12" y="354.165517" style="stroke: #000000; stroke-width: 0.8"/>
      </g>
     </g>
    </g>
    <g id="xtick_14">
     <g id="line2d_39">
      <path d="M 302.4 354.165517 
L 302.4 261.434483 
" clip-path="url(#pa639a56331)" style="fill: none; stroke-dasharray: 1.85,0.8; stroke-dashoffset: 0; stroke: #b2b2b2; stroke-width: 0.5"/>
     </g>
     <g id="line2d_40">
      <g>
       <use xlink:href="#m6e974202a4" x="302.4" y="354.165517" style="stroke: #000000; stroke-width: 0.8"/>
      </g>
     </g>
    </g>
    <g id="xtick_15">
     <g id="line2d_41">
      <path d="M 463.68 354.165517 
L 463.68 261.434483 
" clip-path="url(#pa639a56331)" style="fill: none; stroke-dasharray: 1.85,0.8; stroke-dashoffset: 0; stroke: #b2b2b2; stroke-width: 0.5"/>
     </g>
     <g id="line2d_42">
      <g>
       <use xlink:href="#m6e974202a4" x="463.68" y="354.165517" style="stroke: #000000; stroke-width: 0.8"/>
      </g>
     </g>
    </g>
    <g id="xtick_16">
     <g id="line2d_43">
      <path d="M 624.96 354.165517 
L 624.96 261.434483 
" clip-path="url(#pa639a56331)" style="fill: none; stroke-dasharray: 1.85,0.8; stroke-dashoffset: 0; stroke: #b2b2b2; stroke-width: 0.5"/>
     </g>
     <g id="line2d_44">
      <g>
       <use xlink:href="#m6e974202a4" x="624.96" y="354.165517" style="stroke: #000000; stroke-width: 0.8"/>
      </g>
     </g>
    </g>
    <g id="xtick_17">
     <g id="line2d_45">
      <path d="M 786.24 354.165517 
L 786.24 261.434483 
" clip-path="url(#pa639a56331)" style="fill: none; stroke-dasharray: 1.85,0.8; stroke-dashoffset: 0; stroke: #b2b2b2; stroke-width: 0.5"/>
     </g>
     <g id="line2d_46">
      <g>
       <use xlink:href="#m6e974202a4" x="786.24" y="354.165517" style="stroke: #000000; stroke-width: 0.8"/>
      </g>
     </g>
    </g>
    <g id="xtick_18">
     <g id="line2d_47">
      <path d="M 947.52 354.165517 
L 947.52 261.434483 
" clip-path="url(#pa639a56331)" style="fill: none; stroke-dasharray: 1.85,0.8; stroke-dashoffset: 0; stroke: #b2b2b2; stroke-width: 0.5"/>
     </g>
     <g id="line2d_48">
      <g>
       <use xlink:href="#m6e974202a4" x="947.52" y="354.165517" style="stroke: #000000; stroke-width: 0.8"/>
      </g>
     </g>
    </g>
   </g>
   <g id="matplotlib.axis_6">
    <g id="ytick_6">
     <g id="line2d_49">
      <path d="M 100.8 344.694735 
L 987.84 344.694735 
" clip-path="url(#pa639a56331)" style="fill: none; stroke-dasharray: 1.85,0.8; stroke-dashoffset: 0; stroke: #b2b2b2; stroke-width: 0.5"/>
     </g>
     <g id="line2d_50">
      <g>
       <use xlink:href="#mdb6c814a10" x="100.8" y="344.694735" style="stroke: #000000; stroke-width: 0.8"/>
      </g>
     </g>
     <g id="text_8">
      <!-- 0 V -->
      <g transform="translate(74.36625 350.013641) scale(0.14 -0.14)">
       <use xlink:href="#DejaVuSans-30"/>
       <use xlink:href="#DejaVuSans-20" x="63.623047"/>
       <use xlink:href="#DejaVuSans-56" x="95.410156"/>
      </g>
     </g>
    </g>
    <g id="ytick_7">
     <g id="line2d_51">
      <path d="M 100.8 303.679166 
L 987.84 303.679166 
" clip-path="url(#pa639a56331)" style="fill: none; stroke-dasharray: 1.85,0.8; stroke-dashoffset: 0; stroke: #b2b2b2; stroke-width: 0.5"/>
     </g>
     <g id="line2d_52">
      <g>
       <use xlink:href="#mdb6c814a10" x="100.8" y="303.679166" style="stroke: #000000; stroke-width: 0.8"/>
      </g>
     </g>
     <g id="text_9">
      <!-- 1 V -->
      <g transform="translate(74.36625 308.998072) scale(0.14 -0.14)">
       <use xlink:href="#DejaVuSans-31"/>
       <use xlink:href="#DejaVuSans-20" x="63.623047"/>
       <use xlink:href="#DejaVuSans-56" x="95.410156"/>
      </g>
     </g>
    </g>
    <g id="ytick_8">
     <g id="line2d_53">
      <path d="M 100.8 262.663596 
L 987.84 262.663596 
" clip-path="url(#pa639a56331)" style="fill: none; stroke-dasharray: 1.85,0.8; stroke-dashoffset: 0; stroke: #b2b2b2; stroke-width: 0.5"/>
     </g>
     <g id="line2d_54">
      <g>
       <use xlink:href="#mdb6c814a10" x="100.8" y="262.663596" style="stroke: #000000; stroke-width: 0.8"/>
      </g>
     </g>
     <g id="text_10">
      <!-- 2 V -->
      <g transform="translate(74.36625 267.982503) scale(0.14 -0.14)">
       <use xlink:href="#DejaVuSans-32"/>
       <use xlink:href="#DejaVuSans-20" x="63.623047"/>
       <use xlink:href="#DejaVuSans-56" x="95.410156"/>
      </g>
     </g>
    </g>
    <g id="text_11">
     <g id="patch_15">
      <path d="M 34.8768 342.395313 
L 34.8768 273.204688 
L 11.247425 273.204688 
L 11.247425 342.395313 
z
" style="fill: #ffff00; opacity: 0.2; stroke: #eeeeee; stroke-width: 0.5; stroke-linejoin: miter"/>
     </g>
     <!-- CLK BUF -->
     <g transform="translate(26.925238 337.355313) rotate(-90) scale(0.14 -0.14)">
      <defs>
       <path id="DejaVuSans-43" d="M 4122 4306 
L 4122 3641 
Q 3803 3938 3442 4084 
Q 3081 4231 2675 4231 
Q 1875 4231 1450 3742 
Q 1025 3253 1025 2328 
Q 1025 1406 1450 917 
Q 1875 428 2675 428 
Q 3081 428 3442 575 
Q 3803 722 4122 1019 
L 4122 359 
Q 3791 134 3420 21 
Q 3050 -91 2638 -91 
Q 1578 -91 968 557 
Q 359 1206 359 2328 
Q 359 3453 968 4101 
Q 1578 4750 2638 4750 
Q 3056 4750 3426 4639 
Q 3797 4528 4122 4306 
z
" transform="scale(0.015625)"/>
       <path id="DejaVuSans-4b" d="M 628 4666 
L 1259 4666 
L 1259 2694 
L 3353 4666 
L 4166 4666 
L 1850 2491 
L 4331 0 
L 3500 0 
L 1259 2247 
L 1259 0 
L 628 0 
L 628 4666 
z
" transform="scale(0.015625)"/>
      </defs>
      <use xlink:href="#DejaVuSans-43"/>
      <use xlink:href="#DejaVuSans-4c" x="69.824219"/>
      <use xlink:href="#DejaVuSans-4b" x="125.537109"/>
      <use xlink:href="#DejaVuSans-20" x="191.113281"/>
      <use xlink:href="#DejaVuSans-42" x="222.900391"/>
      <use xlink:href="#DejaVuSans-55" x="291.503906"/>
      <use xlink:href="#DejaVuSans-46" x="364.697266"/>
     </g>
    </g>
   </g>
   <g id="line2d_55">
    <path d="M 141.12 344.693651 
L 173.376 344.693651 
L 173.601792 295.476052 
L 213.696 295.476052 
L 213.760512 334.735745 
L 213.825024 344.675997 
L 213.889536 344.616974 
L 213.954048 344.780827 
L 214.01856 344.69918 
L 215.437824 344.689347 
L 223.85664 344.693574 
L 254.016 344.693622 
L 254.17728 295.324294 
L 254.241792 295.586794 
L 254.403072 295.467849 
L 254.854656 295.476052 
L 294.336 295.476052 
L 294.400512 334.701292 
L 294.465024 345.000797 
L 294.529536 344.287688 
L 294.626304 344.759191 
L 294.65856 344.730005 
L 294.884352 344.672022 
L 295.206912 344.70966 
L 295.529472 344.693196 
L 321.947136 344.693649 
L 334.656 344.693653 
L 334.81728 295.402224 
L 334.881792 295.492458 
L 335.204352 295.480153 
L 336.10752 295.476052 
L 374.976 295.476052 
L 375.040512 334.739436 
L 375.105024 344.695401 
L 375.169536 344.611773 
L 375.266304 344.762571 
L 375.29856 344.699316 
L 376.782336 344.689036 
L 385.491456 344.693562 
L 415.296 344.693652 
L 415.45728 295.324294 
L 415.521792 295.586794 
L 415.683072 295.463747 
L 416.683008 295.480153 
L 455.616 295.476052 
L 455.680512 334.703753 
L 455.745024 345.005851 
L 455.809536 344.098246 
L 455.906304 345.296516 
L 455.93856 344.761447 
L 456.132096 344.670102 
L 456.551424 344.693973 
L 491.645952 344.693651 
L 495.936 344.69365 
L 496.09728 295.328396 
L 496.161792 295.582692 
L 496.355328 295.47195 
L 496.806912 295.476052 
L 512.160768 295.582692 
L 513.805824 297.850853 
L 515.483136 300.611201 
L 522.38592 311.808862 
L 525.93408 316.935808 
L 529.64352 321.836758 
L 529.675776 321.764981 
L 529.708032 321.873672 
L 529.901568 322.125508 
L 532.288512 324.442888 
L 532.38528 324.513434 
L 533.0304 325.063453 
L 534.352896 326.076948 
L 535.385088 326.800873 
L 536.288256 327.402981 
L 536.449536 326.572006 
L 536.546304 329.655556 
L 536.868864 348.954612 
L 536.965632 349.708889 
L 537.030144 349.630139 
L 537.288192 349.31637 
L 537.320448 349.39758 
L 537.513984 349.95047 
L 537.54624 349.742111 
L 538.062336 349.79092 
L 538.99776 349.37133 
L 541.868544 348.334129 
L 541.997568 348.339543 
L 542.191104 348.271375 
L 544.255488 347.612132 
L 544.48128 347.55471 
L 548.319744 346.43843 
L 548.545536 346.388965 
L 550.319616 345.937425 
L 554.093568 345.13918 
L 554.383872 345.092488 
L 554.8032 345.024308 
L 555.480576 344.900605 
L 556.286976 344.781848 
L 560.060928 344.215919 
L 562.770432 344.154519 
L 572.511744 344.265302 
L 576.576 344.272726 
L 576.866304 310.477907 
L 578.156544 308.11582 
L 580.640256 302.944987 
L 583.704576 296.583472 
L 584.381952 295.258669 
L 586.639872 290.911019 
L 592.187904 281.260055 
L 593.18784 279.676855 
L 594.96192 276.957522 
L 602.413056 265.768475 
L 603.864576 265.686444 
L 606.283776 266.408318 
L 607.799808 267.056364 
L 609.735168 267.905386 
L 610.154496 268.089956 
L 611.831808 268.820033 
L 614.31552 269.882337 
L 615.670272 270.448351 
L 616.896 270.915929 
L 616.960512 345.703595 
L 617.089536 345.023668 
L 617.508864 345.022934 
L 622.70208 345.110428 
L 625.089024 345.166414 
L 645.378048 345.003939 
L 649.829376 344.966976 
L 657.216 344.912475 
L 657.345024 287.092469 
L 657.441792 287.301649 
L 662.280192 288.425475 
L 662.764032 288.532116 
L 663.409152 288.671569 
L 663.925248 288.778209 
L 664.570368 288.917662 
L 665.086464 289.024303 
L 665.731584 289.163756 
L 666.344448 289.270396 
L 666.989568 289.409849 
L 667.602432 289.51649 
L 668.150784 289.614927 
L 668.763648 289.721567 
L 669.312 289.820005 
L 669.828096 289.926645 
L 670.376448 290.025083 
L 671.08608 290.131723 
L 671.634432 290.230161 
L 672.344064 290.332699 
L 672.69888 290.394223 
L 673.311744 290.496762 
L 673.66656 290.558285 
L 674.376192 290.660824 
L 674.731008 290.722347 
L 675.537408 290.824886 
L 675.892224 290.88641 
L 676.601856 290.988949 
L 676.956672 291.050472 
L 677.85984 291.153011 
L 678.214656 291.214534 
L 679.021056 291.317073 
L 679.375872 291.378596 
L 680.27904 291.481135 
L 680.537088 291.501643 
L 681.343488 291.604182 
L 681.698304 291.661604 
L 687.439872 292.280939 
L 688.407552 292.383478 
L 688.6656 292.403986 
L 689.665536 292.506525 
L 689.923584 292.527032 
L 691.020288 292.629571 
L 691.278336 292.645978 
L 692.37504 292.752618 
L 692.633088 292.773126 
L 693.82656 292.875665 
L 694.084608 292.896173 
L 695.374848 292.998711 
L 695.632896 293.015118 
L 696.923136 293.121758 
L 697.181184 293.142266 
L 697.536 293.17918 
L 697.568256 298.58093 
L 697.69728 344.699749 
L 697.826304 344.757362 
L 703.82592 344.745996 
L 737.856 344.711373 
L 737.985024 294.590116 
L 738.081792 294.86492 
L 738.98496 294.860818 
L 744.823296 294.967459 
L 745.081344 294.983865 
L 778.176 295.065896 
L 778.305024 345.008 
L 778.466304 344.769425 
L 778.724352 344.678002 
L 779.079168 344.722619 
L 779.401728 344.705182 
L 818.496 344.705397 
L 818.65728 294.852615 
L 818.721792 295.316091 
L 818.81856 294.893631 
L 818.883072 295.04949 
L 819.366912 295.065896 
L 858.816 295.065896 
L 858.945024 345.008004 
L 859.106304 344.769412 
L 859.364352 344.677998 
L 859.719168 344.722637 
L 860.041728 344.705182 
L 899.136 344.705397 
L 899.29728 294.852615 
L 899.361792 295.316091 
L 899.45856 294.893631 
L 899.523072 295.04949 
L 900.006912 295.065896 
L 939.456 295.065896 
L 939.488256 302.461003 
L 939.61728 344.656617 
L 939.649536 344.775884 
L 939.714048 344.661774 
L 939.810816 344.678721 
L 940.004352 344.729943 
L 940.230144 344.704094 
L 945.9072 344.705399 
L 947.52 344.705387 
L 947.52 344.705387 
" clip-path="url(#pa639a56331)" style="fill: none; stroke: #0000ff; stroke-width: 2; stroke-linecap: square"/>
   </g>
   <g id="patch_16">
    <path d="M 100.8 354.165517 
L 100.8 261.434483 
" style="fill: none; stroke: #bcbcbc; stroke-width: 0.8; stroke-linejoin: miter; stroke-linecap: square"/>
   </g>
   <g id="patch_17">
    <path d="M 987.84 354.165517 
L 987.84 261.434483 
" style="fill: none; stroke: #bcbcbc; stroke-width: 0.8; stroke-linejoin: miter; stroke-linecap: square"/>
   </g>
   <g id="patch_18">
    <path d="M 100.8 354.165517 
L 987.84 354.165517 
" style="fill: none; stroke: #bcbcbc; stroke-width: 0.8; stroke-linejoin: miter; stroke-linecap: square"/>
   </g>
   <g id="patch_19">
    <path d="M 100.8 261.434483 
L 987.84 261.434483 
" style="fill: none; stroke: #bcbcbc; stroke-width: 0.8; stroke-linejoin: miter; stroke-linecap: square"/>
   </g>
  </g>
  <g id="axes_4">
   <g id="patch_20">
    <path d="M 100.8 465.442759 
L 987.84 465.442759 
L 987.84 372.711724 
L 100.8 372.711724 
z
" style="fill: #eeeeee"/>
   </g>
   <g id="matplotlib.axis_7">
    <g id="xtick_19">
     <g id="line2d_56">
      <path d="M 141.12 465.442759 
L 141.12 372.711724 
" clip-path="url(#p219c289f4d)" style="fill: none; stroke-dasharray: 1.85,0.8; stroke-dashoffset: 0; stroke: #b2b2b2; stroke-width: 0.5"/>
     </g>
     <g id="line2d_57">
      <g>
       <use xlink:href="#m6e974202a4" x="141.12" y="465.442759" style="stroke: #000000; stroke-width: 0.8"/>
      </g>
     </g>
    </g>
    <g id="xtick_20">
     <g id="line2d_58">
      <path d="M 302.4 465.442759 
L 302.4 372.711724 
" clip-path="url(#p219c289f4d)" style="fill: none; stroke-dasharray: 1.85,0.8; stroke-dashoffset: 0; stroke: #b2b2b2; stroke-width: 0.5"/>
     </g>
     <g id="line2d_59">
      <g>
       <use xlink:href="#m6e974202a4" x="302.4" y="465.442759" style="stroke: #000000; stroke-width: 0.8"/>
      </g>
     </g>
    </g>
    <g id="xtick_21">
     <g id="line2d_60">
      <path d="M 463.68 465.442759 
L 463.68 372.711724 
" clip-path="url(#p219c289f4d)" style="fill: none; stroke-dasharray: 1.85,0.8; stroke-dashoffset: 0; stroke: #b2b2b2; stroke-width: 0.5"/>
     </g>
     <g id="line2d_61">
      <g>
       <use xlink:href="#m6e974202a4" x="463.68" y="465.442759" style="stroke: #000000; stroke-width: 0.8"/>
      </g>
     </g>
    </g>
    <g id="xtick_22">
     <g id="line2d_62">
      <path d="M 624.96 465.442759 
L 624.96 372.711724 
" clip-path="url(#p219c289f4d)" style="fill: none; stroke-dasharray: 1.85,0.8; stroke-dashoffset: 0; stroke: #b2b2b2; stroke-width: 0.5"/>
     </g>
     <g id="line2d_63">
      <g>
       <use xlink:href="#m6e974202a4" x="624.96" y="465.442759" style="stroke: #000000; stroke-width: 0.8"/>
      </g>
     </g>
    </g>
    <g id="xtick_23">
     <g id="line2d_64">
      <path d="M 786.24 465.442759 
L 786.24 372.711724 
" clip-path="url(#p219c289f4d)" style="fill: none; stroke-dasharray: 1.85,0.8; stroke-dashoffset: 0; stroke: #b2b2b2; stroke-width: 0.5"/>
     </g>
     <g id="line2d_65">
      <g>
       <use xlink:href="#m6e974202a4" x="786.24" y="465.442759" style="stroke: #000000; stroke-width: 0.8"/>
      </g>
     </g>
    </g>
    <g id="xtick_24">
     <g id="line2d_66">
      <path d="M 947.52 465.442759 
L 947.52 372.711724 
" clip-path="url(#p219c289f4d)" style="fill: none; stroke-dasharray: 1.85,0.8; stroke-dashoffset: 0; stroke: #b2b2b2; stroke-width: 0.5"/>
     </g>
     <g id="line2d_67">
      <g>
       <use xlink:href="#m6e974202a4" x="947.52" y="465.442759" style="stroke: #000000; stroke-width: 0.8"/>
      </g>
     </g>
    </g>
   </g>
   <g id="matplotlib.axis_8">
    <g id="ytick_9">
     <g id="line2d_68">
      <path d="M 100.8 436.754104 
L 987.84 436.754104 
" clip-path="url(#p219c289f4d)" style="fill: none; stroke-dasharray: 1.85,0.8; stroke-dashoffset: 0; stroke: #b2b2b2; stroke-width: 0.5"/>
     </g>
     <g id="line2d_69">
      <g>
       <use xlink:href="#mdb6c814a10" x="100.8" y="436.754104" style="stroke: #000000; stroke-width: 0.8"/>
      </g>
     </g>
     <g id="text_12">
      <!-- 0 V -->
      <g transform="translate(74.36625 442.073011) scale(0.14 -0.14)">
       <use xlink:href="#DejaVuSans-30"/>
       <use xlink:href="#DejaVuSans-20" x="63.623047"/>
       <use xlink:href="#DejaVuSans-56" x="95.410156"/>
      </g>
     </g>
    </g>
    <g id="ytick_10">
     <g id="line2d_70">
      <path d="M 100.8 393.787045 
L 987.84 393.787045 
" clip-path="url(#p219c289f4d)" style="fill: none; stroke-dasharray: 1.85,0.8; stroke-dashoffset: 0; stroke: #b2b2b2; stroke-width: 0.5"/>
     </g>
     <g id="line2d_71">
      <g>
       <use xlink:href="#mdb6c814a10" x="100.8" y="393.787045" style="stroke: #000000; stroke-width: 0.8"/>
      </g>
     </g>
     <g id="text_13">
      <!-- 1 V -->
      <g transform="translate(74.36625 399.105951) scale(0.14 -0.14)">
       <use xlink:href="#DejaVuSans-31"/>
       <use xlink:href="#DejaVuSans-20" x="63.623047"/>
       <use xlink:href="#DejaVuSans-56" x="95.410156"/>
      </g>
     </g>
    </g>
    <g id="text_14">
     <g id="patch_21">
      <path d="M 34.8768 454.693023 
L 34.8768 383.46146 
L 11.247425 383.46146 
L 11.247425 454.693023 
z
" style="fill: #ffff00; opacity: 0.2; stroke: #eeeeee; stroke-width: 0.5; stroke-linejoin: miter"/>
     </g>
     <!-- DFF OUT -->
     <g transform="translate(26.925238 449.653023) rotate(-90) scale(0.14 -0.14)">
      <defs>
       <path id="DejaVuSans-4f" d="M 2522 4238 
Q 1834 4238 1429 3725 
Q 1025 3213 1025 2328 
Q 1025 1447 1429 934 
Q 1834 422 2522 422 
Q 3209 422 3611 934 
Q 4013 1447 4013 2328 
Q 4013 3213 3611 3725 
Q 3209 4238 2522 4238 
z
M 2522 4750 
Q 3503 4750 4090 4092 
Q 4678 3434 4678 2328 
Q 4678 1225 4090 567 
Q 3503 -91 2522 -91 
Q 1538 -91 948 565 
Q 359 1222 359 2328 
Q 359 3434 948 4092 
Q 1538 4750 2522 4750 
z
" transform="scale(0.015625)"/>
       <path id="DejaVuSans-54" d="M -19 4666 
L 3928 4666 
L 3928 4134 
L 2272 4134 
L 2272 0 
L 1638 0 
L 1638 4134 
L -19 4134 
L -19 4666 
z
" transform="scale(0.015625)"/>
      </defs>
      <use xlink:href="#DejaVuSans-44"/>
      <use xlink:href="#DejaVuSans-46" x="77.001953"/>
      <use xlink:href="#DejaVuSans-46" x="134.521484"/>
      <use xlink:href="#DejaVuSans-20" x="192.041016"/>
      <use xlink:href="#DejaVuSans-4f" x="223.828125"/>
      <use xlink:href="#DejaVuSans-55" x="302.539062"/>
      <use xlink:href="#DejaVuSans-54" x="375.732422"/>
     </g>
    </g>
   </g>
   <g id="line2d_72">
    <path d="M 141.12 404.334169 
L 173.408256 404.386589 
L 173.440512 406.165425 
L 173.601792 436.756727 
L 174.085632 436.751355 
L 183.601152 436.752961 
L 254.048256 436.754759 
L 254.080512 436.926523 
L 254.112768 436.642403 
L 254.306304 432.447516 
L 254.596608 431.606651 
L 254.693376 431.006831 
L 255.14496 423.479002 
L 255.370752 405.786026 
L 255.596544 385.610414 
L 255.757824 385.258084 
L 255.983616 385.189337 
L 256.854528 385.193633 
L 295.755264 385.279567 
L 296.239104 388.059536 
L 296.59392 387.36347 
L 297.948672 385.545963 
L 299.561472 385.228007 
L 334.688256 385.21082 
L 334.720512 385.086216 
L 334.752768 385.717831 
L 334.785024 388.841537 
L 334.914048 436.736491 
L 334.97856 436.698677 
L 335.13984 436.745099 
L 335.494656 436.75348 
L 364.525056 436.752923 
L 415.328256 436.754733 
L 415.360512 436.925925 
L 415.392768 436.644783 
L 415.586304 432.347403 
L 415.844352 431.479039 
L 415.908864 431.243149 
L 416.1024 426.147686 
L 416.521728 411.313738 
L 416.9088 385.335425 
L 417.102336 385.19793 
L 417.682944 385.228007 
L 418.166784 385.18504 
L 418.940928 385.193633 
L 495.968256 385.189337 
L 496.000512 385.369798 
L 496.065024 385.19793 
L 496.194048 385.202227 
L 496.677888 385.18504 
L 512.128512 385.262381 
L 513.096192 386.594359 
L 514.386432 388.678262 
L 519.998976 398.604942 
L 520.644096 400.277649 
L 520.966656 401.495336 
L 520.998912 401.484594 
L 521.063424 401.482875 
L 521.192448 402.07668 
L 521.515008 403.658727 
L 521.837568 405.110154 
L 522.5472 408.697044 
L 522.611712 408.552245 
L 522.643968 408.603376 
L 523.127808 411.565096 
L 523.160064 411.761025 
L 523.19232 411.616226 
L 523.224576 411.416859 
L 523.289088 411.574548 
L 523.51488 413.467247 
L 523.740672 414.58568 
L 523.805184 414.384164 
L 523.869696 414.542283 
L 523.934208 414.821139 
L 524.095488 416.406194 
L 524.450304 418.243895 
L 524.48256 417.597241 
L 524.547072 418.093511 
L 524.708352 419.517439 
L 524.934144 420.519431 
L 524.998656 420.436075 
L 525.095424 420.769499 
L 525.256704 422.443925 
L 527.030784 431.25561 
L 527.54688 433.480788 
L 527.579136 432.760101 
L 527.643648 433.654246 
L 527.837184 434.72043 
L 528.772608 438.686161 
L 528.804864 438.338858 
L 528.869376 438.597907 
L 528.901632 438.611828 
L 529.579008 441.689301 
L 529.611264 441.466731 
L 529.708032 441.637311 
L 529.740288 442.04206 
L 529.837056 441.999093 
L 529.901568 442.135299 
L 529.998336 442.413296 
L 530.159616 443.348259 
L 530.998272 445.365562 
L 531.030528 445.115494 
L 531.09504 445.229357 
L 531.4176 445.917689 
L 531.546624 446.638676 
L 531.57888 446.390327 
L 531.611136 446.71215 
L 531.869184 447.474815 
L 533.740032 452.221816 
L 533.772288 452.045651 
L 533.8368 452.290563 
L 533.99808 452.847846 
L 535.256064 455.743826 
L 535.901184 457.124357 
L 536.030208 457.309975 
L 536.385024 458.046431 
L 536.546304 458.400479 
L 537.030144 459.617306 
L 537.804288 461.227712 
L 537.8688 461.15166 
L 538.03008 461.186893 
L 538.35264 460.695779 
L 538.642944 460.091663 
L 538.83648 459.794331 
L 540.12672 457.3031 
L 540.191232 457.190527 
L 540.513792 456.538287 
L 540.546048 456.609182 
L 540.578304 456.451493 
L 541.158912 455.592582 
L 541.223424 455.498484 
L 541.25568 455.677657 
L 541.287936 455.422003 
L 541.320192 455.584848 
L 541.352448 455.54317 
L 541.481472 455.130686 
L 541.513728 455.252283 
L 541.57824 455.089008 
L 541.610496 455.17752 
L 541.642752 455.119085 
L 541.771776 454.821323 
L 541.804032 454.87718 
L 541.836288 454.813159 
L 541.868544 454.72078 
L 541.965312 454.755583 
L 542.642688 453.689141 
L 542.674944 453.854994 
L 542.836224 453.411574 
L 542.900736 453.512546 
L 542.965248 453.283962 
L 543.02976 453.209629 
L 543.062016 453.411144 
L 543.223296 452.892961 
L 543.384576 452.716797 
L 543.83616 452.214941 
L 543.868416 452.431066 
L 543.900672 452.153069 
L 543.932928 452.232128 
L 543.965184 452.260916 
L 544.094208 451.947256 
L 544.126464 451.938233 
L 544.15872 452.09979 
L 544.190976 451.884525 
L 544.545792 451.650354 
L 544.771584 451.44712 
L 545.061888 450.915188 
L 545.384448 450.432238 
L 545.416704 450.499267 
L 545.44896 450.352319 
L 545.481216 450.381537 
L 545.642496 450.161975 
L 545.674752 450.384974 
L 545.707008 450.100962 
L 545.868288 449.812653 
L 547.771392 448.113306 
L 547.997184 447.513915 
L 548.093952 447.35107 
L 548.126208 447.603716 
L 548.158464 447.271581 
L 548.448768 446.957922 
L 548.545536 446.878433 
L 548.577792 447.006904 
L 548.610048 446.982842 
L 548.739072 446.546297 
L 548.83584 446.51622 
L 549.577728 445.895776 
L 550.384128 445.313143 
L 550.867968 444.770039 
L 550.996992 444.269473 
L 551.158272 443.994054 
L 551.190528 444.413842 
L 551.222784 443.901245 
L 551.25504 444.001788 
L 551.448576 443.687699 
L 551.480832 443.655044 
L 551.513088 444.08987 
L 551.5776 444.015967 
L 551.835648 443.290253 
L 551.90016 443.322479 
L 551.932416 443.222795 
L 551.964672 443.225373 
L 551.996928 443.627115 
L 552.029184 443.114948 
L 552.093696 443.532158 
L 552.22272 443.004522 
L 552.254976 443.012686 
L 552.287232 443.256739 
L 552.319488 442.930189 
L 552.384 443.172094 
L 552.513024 442.875621 
L 553.1904 442.507394 
L 553.900032 441.810468 
L 554.061312 441.608952 
L 554.190336 440.988852 
L 554.383872 440.758205 
L 554.416128 441.165962 
L 554.48064 440.655556 
L 554.545152 440.615554 
L 554.577408 440.685118 
L 554.609664 440.913531 
L 554.64192 440.396852 
L 554.674176 440.41537 
L 554.706432 440.779215 
L 554.8032 440.746475 
L 554.932224 440.161478 
L 554.96448 440.502508 
L 555.028992 440.078423 
L 555.061248 440.406347 
L 555.12576 440.014488 
L 555.222528 440.115632 
L 555.28704 440.301851 
L 555.351552 440.220085 
L 555.512832 439.790372 
L 555.545088 439.810566 
L 555.577344 440.024026 
L 555.6096 439.779587 
L 555.641856 439.78629 
L 555.996672 439.686005 
L 557.2224 438.375595 
L 557.254656 438.330265 
L 557.351424 437.54689 
L 557.415936 437.789739 
L 557.480448 437.948846 
L 557.512704 437.843019 
L 557.609472 437.441019 
L 557.738496 436.964875 
L 557.770752 436.931971 
L 557.803008 437.408063 
L 557.86752 436.8751 
L 557.899776 437.227387 
L 557.964288 436.772499 
L 558.0288 436.822276 
L 558.931968 435.33327 
L 559.222272 434.085893 
L 559.351296 433.935465 
L 559.383552 434.3956 
L 559.448064 434.14493 
L 559.48032 433.84691 
L 559.577088 433.907752 
L 559.609344 433.992654 
L 559.673856 433.876729 
L 560.415744 432.391659 
L 560.512512 432.107217 
L 560.641536 431.143895 
L 560.673792 431.222525 
L 560.706048 431.801291 
L 560.77056 431.314904 
L 560.835072 430.930779 
L 560.867328 430.988355 
L 560.899584 431.405135 
L 560.964096 431.083312 
L 560.996352 431.115537 
L 561.028608 430.99437 
L 561.09312 430.938083 
L 562.157568 428.830979 
L 562.286592 428.104406 
L 562.351104 428.283149 
L 562.415616 428.183895 
L 566.447616 419.544938 
L 566.544384 419.024177 
L 566.57664 419.16382 
L 566.608896 419.246317 
L 566.673408 419.16425 
L 567.86688 416.702667 
L 567.963648 415.951173 
L 567.995904 416.381703 
L 568.060416 416.22917 
L 568.286208 415.878559 
L 570.76992 411.184837 
L 573.060096 407.67228 
L 573.769728 406.481663 
L 573.931008 406.007736 
L 574.672896 405.124333 
L 575.350272 404.429986 
L 576.25344 403.031838 
L 576.511488 402.628807 
L 576.672768 402.465961 
L 576.705024 402.281203 
L 576.73728 402.872 
L 576.834048 420.466152 
L 576.963072 435.844234 
L 576.995328 435.826403 
L 577.253376 435.639625 
L 577.963008 435.252406 
L 578.930688 434.989146 
L 580.349952 434.867507 
L 582.994944 434.906693 
L 595.76832 435.408419 
L 596.961792 435.330133 
L 599.63904 435.352132 
L 602.413056 435.504064 
L 603.122688 436.209325 
L 603.929088 436.651177 
L 604.896768 436.922729 
L 606.348288 437.089101 
L 609.251328 437.155593 
L 616.928256 437.111006 
L 616.960512 436.998437 
L 617.025024 437.122942 
L 618.67008 437.098782 
L 622.605312 437.188673 
L 624.992256 437.253682 
L 633.927168 437.166498 
L 657.248256 436.986432 
L 657.280512 437.337339 
L 657.570816 430.283695 
L 657.796608 429.020034 
L 657.957888 426.854924 
L 658.119168 420.447676 
L 658.312704 401.41069 
L 658.538496 377.403706 
L 658.603008 376.926771 
L 658.66752 376.952551 
L 658.99008 377.017002 
L 659.731968 377.206057 
L 660.11904 377.300585 
L 660.570624 377.416596 
L 661.602816 377.661508 
L 662.247936 377.807596 
L 662.731776 377.902123 
L 663.18336 378.018134 
L 664.505856 378.306014 
L 665.150976 378.452102 
L 665.634816 378.546629 
L 665.989632 378.62397 
L 666.505728 378.718498 
L 666.957312 378.834509 
L 668.957184 379.204025 
L 669.312 379.268476 
L 669.79584 379.363003 
L 670.150656 379.436047 
L 673.118208 379.934465 
L 673.473024 379.998916 
L 674.085888 380.106334 
L 674.440704 380.170784 
L 675.247104 380.278202 
L 675.60192 380.342652 
L 676.279296 380.43718 
L 676.634112 380.510224 
L 687.826944 381.889466 
L 688.794624 381.996884 
L 689.052672 382.018368 
L 690.052608 382.125785 
L 690.310656 382.147269 
L 691.40736 382.254686 
L 691.665408 382.27617 
L 692.85888 382.383588 
L 693.116928 382.405071 
L 694.3104 382.512489 
L 694.568448 382.533972 
L 695.858688 382.64139 
L 696.116736 382.662874 
L 697.503744 382.770291 
L 697.761792 382.787478 
L 699.213312 382.886302 
L 699.568128 382.920676 
L 700.11648 382.959346 
L 701.632512 383.058171 
L 701.987328 383.092544 
L 703.600128 383.199962 
L 703.858176 383.217149 
L 705.696768 383.315973 
L 706.051584 383.350347 
L 707.954688 383.457764 
L 708.212736 383.474951 
L 710.341632 383.573775 
L 710.696448 383.603852 
L 711.857664 383.651116 
L 712.406016 383.689786 
L 714.79296 383.788611 
L 715.147776 383.818687 
L 717.889536 383.917512 
L 718.244352 383.947589 
L 721.276416 384.046413 
L 721.631232 384.07649 
L 722.824704 384.123754 
L 726.437376 384.231171 
L 726.759936 384.252655 
L 727.598592 384.252655 
L 730.888704 384.360072 
L 731.211264 384.381556 
L 732.082176 384.377259 
L 733.243392 384.420226 
L 737.888256 384.488974 
L 737.920512 384.751073 
L 737.985024 384.471787 
L 738.17856 384.544831 
L 744.79104 384.647952 
L 745.145856 384.678029 
L 778.305024 384.785446 
L 778.434048 384.763963 
L 778.853376 384.763963 
L 779.659776 384.768259 
L 818.528256 384.759666 
L 818.560512 384.978798 
L 818.625024 384.759666 
L 818.81856 384.738183 
L 819.850752 384.763963 
L 899.168256 384.759666 
L 899.200512 384.978798 
L 899.265024 384.759666 
L 899.45856 384.738183 
L 900.490752 384.763963 
L 947.52 384.763963 
L 947.52 384.763963 
" clip-path="url(#p219c289f4d)" style="fill: none; stroke: #ff00ff; stroke-width: 2; stroke-linecap: square"/>
   </g>
   <g id="patch_22">
    <path d="M 100.8 465.442759 
L 100.8 372.711724 
" style="fill: none; stroke: #bcbcbc; stroke-width: 0.8; stroke-linejoin: miter; stroke-linecap: square"/>
   </g>
   <g id="patch_23">
    <path d="M 987.84 465.442759 
L 987.84 372.711724 
" style="fill: none; stroke: #bcbcbc; stroke-width: 0.8; stroke-linejoin: miter; stroke-linecap: square"/>
   </g>
   <g id="patch_24">
    <path d="M 100.8 465.442759 
L 987.84 465.442759 
" style="fill: none; stroke: #bcbcbc; stroke-width: 0.8; stroke-linejoin: miter; stroke-linecap: square"/>
   </g>
   <g id="patch_25">
    <path d="M 100.8 372.711724 
L 987.84 372.711724 
" style="fill: none; stroke: #bcbcbc; stroke-width: 0.8; stroke-linejoin: miter; stroke-linecap: square"/>
   </g>
  </g>
  <g id="axes_5">
   <g id="patch_26">
    <path d="M 100.8 576.72 
L 987.84 576.72 
L 987.84 483.988966 
L 100.8 483.988966 
z
" style="fill: #eeeeee"/>
   </g>
   <g id="matplotlib.axis_9">
    <g id="xtick_25">
     <g id="line2d_73">
      <path d="M 141.12 576.72 
L 141.12 483.988966 
" clip-path="url(#pdf519bb073)" style="fill: none; stroke-dasharray: 1.85,0.8; stroke-dashoffset: 0; stroke: #b2b2b2; stroke-width: 0.5"/>
     </g>
     <g id="line2d_74">
      <g>
       <use xlink:href="#m6e974202a4" x="141.12" y="576.72" style="stroke: #000000; stroke-width: 0.8"/>
      </g>
     </g>
     <g id="text_15">
      <!-- 0 s -->
      <g transform="translate(130.795 590.857813) scale(0.14 -0.14)">
       <defs>
        <path id="DejaVuSans-73" d="M 2834 3397 
L 2834 2853 
Q 2591 2978 2328 3040 
Q 2066 3103 1784 3103 
Q 1356 3103 1142 2972 
Q 928 2841 928 2578 
Q 928 2378 1081 2264 
Q 1234 2150 1697 2047 
L 1894 2003 
Q 2506 1872 2764 1633 
Q 3022 1394 3022 966 
Q 3022 478 2636 193 
Q 2250 -91 1575 -91 
Q 1294 -91 989 -36 
Q 684 19 347 128 
L 347 722 
Q 666 556 975 473 
Q 1284 391 1588 391 
Q 1994 391 2212 530 
Q 2431 669 2431 922 
Q 2431 1156 2273 1281 
Q 2116 1406 1581 1522 
L 1381 1569 
Q 847 1681 609 1914 
Q 372 2147 372 2553 
Q 372 3047 722 3315 
Q 1072 3584 1716 3584 
Q 2034 3584 2315 3537 
Q 2597 3491 2834 3397 
z
" transform="scale(0.015625)"/>
       </defs>
       <use xlink:href="#DejaVuSans-30"/>
       <use xlink:href="#DejaVuSans-20" x="63.623047"/>
       <use xlink:href="#DejaVuSans-73" x="95.410156"/>
      </g>
     </g>
    </g>
    <g id="xtick_26">
     <g id="line2d_75">
      <path d="M 302.4 576.72 
L 302.4 483.988966 
" clip-path="url(#pdf519bb073)" style="fill: none; stroke-dasharray: 1.85,0.8; stroke-dashoffset: 0; stroke: #b2b2b2; stroke-width: 0.5"/>
     </g>
     <g id="line2d_76">
      <g>
       <use xlink:href="#m6e974202a4" x="302.4" y="576.72" style="stroke: #000000; stroke-width: 0.8"/>
      </g>
     </g>
     <g id="text_16">
      <!-- 50 ns -->
      <g transform="translate(283.185 590.857813) scale(0.14 -0.14)">
       <defs>
        <path id="DejaVuSans-35" d="M 691 4666 
L 3169 4666 
L 3169 4134 
L 1269 4134 
L 1269 2991 
Q 1406 3038 1543 3061 
Q 1681 3084 1819 3084 
Q 2600 3084 3056 2656 
Q 3513 2228 3513 1497 
Q 3513 744 3044 326 
Q 2575 -91 1722 -91 
Q 1428 -91 1123 -41 
Q 819 9 494 109 
L 494 744 
Q 775 591 1075 516 
Q 1375 441 1709 441 
Q 2250 441 2565 725 
Q 2881 1009 2881 1497 
Q 2881 1984 2565 2268 
Q 2250 2553 1709 2553 
Q 1456 2553 1204 2497 
Q 953 2441 691 2322 
L 691 4666 
z
" transform="scale(0.015625)"/>
        <path id="DejaVuSans-6e" d="M 3513 2113 
L 3513 0 
L 2938 0 
L 2938 2094 
Q 2938 2591 2744 2837 
Q 2550 3084 2163 3084 
Q 1697 3084 1428 2787 
Q 1159 2491 1159 1978 
L 1159 0 
L 581 0 
L 581 3500 
L 1159 3500 
L 1159 2956 
Q 1366 3272 1645 3428 
Q 1925 3584 2291 3584 
Q 2894 3584 3203 3211 
Q 3513 2838 3513 2113 
z
" transform="scale(0.015625)"/>
       </defs>
       <use xlink:href="#DejaVuSans-35"/>
       <use xlink:href="#DejaVuSans-30" x="63.623047"/>
       <use xlink:href="#DejaVuSans-20" x="127.246094"/>
       <use xlink:href="#DejaVuSans-6e" x="159.033203"/>
       <use xlink:href="#DejaVuSans-73" x="222.412109"/>
      </g>
     </g>
    </g>
    <g id="xtick_27">
     <g id="line2d_77">
      <path d="M 463.68 576.72 
L 463.68 483.988966 
" clip-path="url(#pdf519bb073)" style="fill: none; stroke-dasharray: 1.85,0.8; stroke-dashoffset: 0; stroke: #b2b2b2; stroke-width: 0.5"/>
     </g>
     <g id="line2d_78">
      <g>
       <use xlink:href="#m6e974202a4" x="463.68" y="576.72" style="stroke: #000000; stroke-width: 0.8"/>
      </g>
     </g>
     <g id="text_17">
      <!-- 100 ns -->
      <g transform="translate(440.01125 590.857813) scale(0.14 -0.14)">
       <use xlink:href="#DejaVuSans-31"/>
       <use xlink:href="#DejaVuSans-30" x="63.623047"/>
       <use xlink:href="#DejaVuSans-30" x="127.246094"/>
       <use xlink:href="#DejaVuSans-20" x="190.869141"/>
       <use xlink:href="#DejaVuSans-6e" x="222.65625"/>
       <use xlink:href="#DejaVuSans-73" x="286.035156"/>
      </g>
     </g>
    </g>
    <g id="xtick_28">
     <g id="line2d_79">
      <path d="M 624.96 576.72 
L 624.96 483.988966 
" clip-path="url(#pdf519bb073)" style="fill: none; stroke-dasharray: 1.85,0.8; stroke-dashoffset: 0; stroke: #b2b2b2; stroke-width: 0.5"/>
     </g>
     <g id="line2d_80">
      <g>
       <use xlink:href="#m6e974202a4" x="624.96" y="576.72" style="stroke: #000000; stroke-width: 0.8"/>
      </g>
     </g>
     <g id="text_18">
      <!-- 150 ns -->
      <g transform="translate(601.29125 590.857813) scale(0.14 -0.14)">
       <use xlink:href="#DejaVuSans-31"/>
       <use xlink:href="#DejaVuSans-35" x="63.623047"/>
       <use xlink:href="#DejaVuSans-30" x="127.246094"/>
       <use xlink:href="#DejaVuSans-20" x="190.869141"/>
       <use xlink:href="#DejaVuSans-6e" x="222.65625"/>
       <use xlink:href="#DejaVuSans-73" x="286.035156"/>
      </g>
     </g>
    </g>
    <g id="xtick_29">
     <g id="line2d_81">
      <path d="M 786.24 576.72 
L 786.24 483.988966 
" clip-path="url(#pdf519bb073)" style="fill: none; stroke-dasharray: 1.85,0.8; stroke-dashoffset: 0; stroke: #b2b2b2; stroke-width: 0.5"/>
     </g>
     <g id="line2d_82">
      <g>
       <use xlink:href="#m6e974202a4" x="786.24" y="576.72" style="stroke: #000000; stroke-width: 0.8"/>
      </g>
     </g>
     <g id="text_19">
      <!-- 200 ns -->
      <g transform="translate(762.57125 590.857813) scale(0.14 -0.14)">
       <use xlink:href="#DejaVuSans-32"/>
       <use xlink:href="#DejaVuSans-30" x="63.623047"/>
       <use xlink:href="#DejaVuSans-30" x="127.246094"/>
       <use xlink:href="#DejaVuSans-20" x="190.869141"/>
       <use xlink:href="#DejaVuSans-6e" x="222.65625"/>
       <use xlink:href="#DejaVuSans-73" x="286.035156"/>
      </g>
     </g>
    </g>
    <g id="xtick_30">
     <g id="line2d_83">
      <path d="M 947.52 576.72 
L 947.52 483.988966 
" clip-path="url(#pdf519bb073)" style="fill: none; stroke-dasharray: 1.85,0.8; stroke-dashoffset: 0; stroke: #b2b2b2; stroke-width: 0.5"/>
     </g>
     <g id="line2d_84">
      <g>
       <use xlink:href="#m6e974202a4" x="947.52" y="576.72" style="stroke: #000000; stroke-width: 0.8"/>
      </g>
     </g>
     <g id="text_20">
      <!-- 250 ns -->
      <g transform="translate(923.85125 590.857813) scale(0.14 -0.14)">
       <use xlink:href="#DejaVuSans-32"/>
       <use xlink:href="#DejaVuSans-35" x="63.623047"/>
       <use xlink:href="#DejaVuSans-30" x="127.246094"/>
       <use xlink:href="#DejaVuSans-20" x="190.869141"/>
       <use xlink:href="#DejaVuSans-6e" x="222.65625"/>
       <use xlink:href="#DejaVuSans-73" x="286.035156"/>
      </g>
     </g>
    </g>
    <g id="text_21">
     <!-- Time -->
     <g transform="translate(527.192969 608.407187) scale(0.14 -0.14)">
      <defs>
       <path id="DejaVuSans-69" d="M 603 3500 
L 1178 3500 
L 1178 0 
L 603 0 
L 603 3500 
z
M 603 4863 
L 1178 4863 
L 1178 4134 
L 603 4134 
L 603 4863 
z
" transform="scale(0.015625)"/>
       <path id="DejaVuSans-6d" d="M 3328 2828 
Q 3544 3216 3844 3400 
Q 4144 3584 4550 3584 
Q 5097 3584 5394 3201 
Q 5691 2819 5691 2113 
L 5691 0 
L 5113 0 
L 5113 2094 
Q 5113 2597 4934 2840 
Q 4756 3084 4391 3084 
Q 3944 3084 3684 2787 
Q 3425 2491 3425 1978 
L 3425 0 
L 2847 0 
L 2847 2094 
Q 2847 2600 2669 2842 
Q 2491 3084 2119 3084 
Q 1678 3084 1418 2786 
Q 1159 2488 1159 1978 
L 1159 0 
L 581 0 
L 581 3500 
L 1159 3500 
L 1159 2956 
Q 1356 3278 1631 3431 
Q 1906 3584 2284 3584 
Q 2666 3584 2933 3390 
Q 3200 3197 3328 2828 
z
" transform="scale(0.015625)"/>
       <path id="DejaVuSans-65" d="M 3597 1894 
L 3597 1613 
L 953 1613 
Q 991 1019 1311 708 
Q 1631 397 2203 397 
Q 2534 397 2845 478 
Q 3156 559 3463 722 
L 3463 178 
Q 3153 47 2828 -22 
Q 2503 -91 2169 -91 
Q 1331 -91 842 396 
Q 353 884 353 1716 
Q 353 2575 817 3079 
Q 1281 3584 2069 3584 
Q 2775 3584 3186 3129 
Q 3597 2675 3597 1894 
z
M 3022 2063 
Q 3016 2534 2758 2815 
Q 2500 3097 2075 3097 
Q 1594 3097 1305 2825 
Q 1016 2553 972 2059 
L 3022 2063 
z
" transform="scale(0.015625)"/>
      </defs>
      <use xlink:href="#DejaVuSans-54"/>
      <use xlink:href="#DejaVuSans-69" x="57.958984"/>
      <use xlink:href="#DejaVuSans-6d" x="85.742188"/>
      <use xlink:href="#DejaVuSans-65" x="183.154297"/>
     </g>
    </g>
   </g>
   <g id="matplotlib.axis_10">
    <g id="ytick_11">
     <g id="line2d_85">
      <path d="M 100.8 569.745885 
L 987.84 569.745885 
" clip-path="url(#pdf519bb073)" style="fill: none; stroke-dasharray: 1.85,0.8; stroke-dashoffset: 0; stroke: #b2b2b2; stroke-width: 0.5"/>
     </g>
     <g id="line2d_86">
      <g>
       <use xlink:href="#mdb6c814a10" x="100.8" y="569.745885" style="stroke: #000000; stroke-width: 0.8"/>
      </g>
     </g>
     <g id="text_22">
      <!-- 0 V -->
      <g transform="translate(74.36625 575.064792) scale(0.14 -0.14)">
       <use xlink:href="#DejaVuSans-30"/>
       <use xlink:href="#DejaVuSans-20" x="63.623047"/>
       <use xlink:href="#DejaVuSans-56" x="95.410156"/>
      </g>
     </g>
    </g>
    <g id="ytick_12">
     <g id="line2d_87">
      <path d="M 100.8 535.950348 
L 987.84 535.950348 
" clip-path="url(#pdf519bb073)" style="fill: none; stroke-dasharray: 1.85,0.8; stroke-dashoffset: 0; stroke: #b2b2b2; stroke-width: 0.5"/>
     </g>
     <g id="line2d_88">
      <g>
       <use xlink:href="#mdb6c814a10" x="100.8" y="535.950348" style="stroke: #000000; stroke-width: 0.8"/>
      </g>
     </g>
     <g id="text_23">
      <!-- 500 mV -->
      <g transform="translate(42.914375 541.269254) scale(0.14 -0.14)">
       <use xlink:href="#DejaVuSans-35"/>
       <use xlink:href="#DejaVuSans-30" x="63.623047"/>
       <use xlink:href="#DejaVuSans-30" x="127.246094"/>
       <use xlink:href="#DejaVuSans-20" x="190.869141"/>
       <use xlink:href="#DejaVuSans-6d" x="222.65625"/>
       <use xlink:href="#DejaVuSans-56" x="320.068359"/>
      </g>
     </g>
    </g>
    <g id="ytick_13">
     <g id="line2d_89">
      <path d="M 100.8 502.15481 
L 987.84 502.15481 
" clip-path="url(#pdf519bb073)" style="fill: none; stroke-dasharray: 1.85,0.8; stroke-dashoffset: 0; stroke: #b2b2b2; stroke-width: 0.5"/>
     </g>
     <g id="line2d_90">
      <g>
       <use xlink:href="#mdb6c814a10" x="100.8" y="502.15481" style="stroke: #000000; stroke-width: 0.8"/>
      </g>
     </g>
     <g id="text_24">
      <!-- 1 V -->
      <g transform="translate(74.36625 507.473717) scale(0.14 -0.14)">
       <use xlink:href="#DejaVuSans-31"/>
       <use xlink:href="#DejaVuSans-20" x="63.623047"/>
       <use xlink:href="#DejaVuSans-56" x="95.410156"/>
      </g>
     </g>
    </g>
    <g id="text_25">
     <g id="patch_27">
      <path d="M 34.8768 554.329483 
L 34.8768 506.379483 
L 11.247425 506.379483 
L 11.247425 554.329483 
z
" style="fill: #ffff00; opacity: 0.2; stroke: #eeeeee; stroke-width: 0.5; stroke-linejoin: miter"/>
     </g>
     <!-- FOUT -->
     <g transform="translate(26.925238 549.289483) rotate(-90) scale(0.14 -0.14)">
      <use xlink:href="#DejaVuSans-46"/>
      <use xlink:href="#DejaVuSans-4f" x="57.519531"/>
      <use xlink:href="#DejaVuSans-55" x="136.230469"/>
      <use xlink:href="#DejaVuSans-54" x="209.423828"/>
     </g>
    </g>
   </g>
   <g id="line2d_91">
    <path d="M 141.12 488.636595 
L 173.472768 488.643355 
L 173.505024 488.44734 
L 173.569536 526.789729 
L 173.69856 572.504953 
L 173.730816 572.3695 
L 173.827584 567.842115 
L 173.892096 569.3609 
L 174.053376 570.064192 
L 174.117888 569.946665 
L 174.408192 569.492054 
L 174.440448 569.54151 
L 174.66624 569.729954 
L 176.182272 569.740151 
L 180.117504 569.761449 
L 193.568256 569.752159 
L 212.954112 569.74401 
L 255.30624 569.743704 
L 255.6288 488.52845 
L 255.854592 488.670391 
L 256.209408 488.629836 
L 334.849536 488.650114 
L 334.881792 492.854278 
L 335.043072 572.18376 
L 335.107584 570.261206 
L 335.172096 568.338639 
L 335.236608 568.870108 
L 335.365632 570.783003 
L 335.430144 570.410083 
L 335.591424 569.797213 
L 335.881728 569.648439 
L 336.559104 569.817924 
L 337.107456 569.746143 
L 350.009856 569.744206 
L 416.489472 569.74333 
L 416.553984 567.480841 
L 416.812032 488.204013 
L 416.844288 488.339195 
L 416.973312 488.852887 
L 417.037824 488.778537 
L 417.39264 488.548727 
L 417.844224 488.717705 
L 418.457088 488.562245 
L 419.328 488.636595 
L 523.482624 488.562245 
L 523.51488 488.433822 
L 523.547136 488.582523 
L 523.611648 512.407701 
L 523.740672 570.221659 
L 523.772928 569.717574 
L 523.99872 569.744226 
L 527.740416 569.744174 
L 570.028032 569.753101 
L 570.092544 556.510877 
L 570.318336 488.82585 
L 570.479616 488.643355 
L 571.027968 488.636595 
L 576.834048 488.656873 
L 576.866304 488.98131 
L 576.995328 571.550026 
L 577.188864 569.74414 
L 590.865408 569.744207 
L 658.248192 569.735102 
L 658.280448 569.33064 
L 658.34496 541.322486 
L 658.50624 489.244915 
L 658.603008 488.535209 
L 658.66752 488.629836 
L 659.215872 488.636595 
L 947.52 488.636595 
L 947.52 488.636595 
" clip-path="url(#pdf519bb073)" style="fill: none; stroke: #ff00ff; stroke-width: 2; stroke-linecap: square"/>
   </g>
   <g id="patch_28">
    <path d="M 100.8 576.72 
L 100.8 483.988966 
" style="fill: none; stroke: #bcbcbc; stroke-width: 0.8; stroke-linejoin: miter; stroke-linecap: square"/>
   </g>
   <g id="patch_29">
    <path d="M 987.84 576.72 
L 987.84 483.988966 
" style="fill: none; stroke: #bcbcbc; stroke-width: 0.8; stroke-linejoin: miter; stroke-linecap: square"/>
   </g>
   <g id="patch_30">
    <path d="M 100.8 576.72 
L 987.84 576.72 
" style="fill: none; stroke: #bcbcbc; stroke-width: 0.8; stroke-linejoin: miter; stroke-linecap: square"/>
   </g>
   <g id="patch_31">
    <path d="M 100.8 483.988966 
L 987.84 483.988966 
" style="fill: none; stroke: #bcbcbc; stroke-width: 0.8; stroke-linejoin: miter; stroke-linecap: square"/>
   </g>
  </g>
  <g id="axes_6">
   <g id="patch_32">
    <path d="M 201.6 628.56 
L 856.8 628.56 
L 856.8 615.6 
L 201.6 615.6 
z
" clip-path="url(#p66f57be6ce)" style="fill: #d3d3d3"/>
   </g>
   <g id="patch_33">
    <path d="M 201.6 628.56 
L 664.92 628.56 
L 664.92 615.6 
L 201.6 615.6 
z
" clip-path="url(#p66f57be6ce)" style="fill: #0000ff"/>
   </g>
   <g id="line2d_92">
    <path d="M 201.6 635.04 
L 201.6 609.12 
" clip-path="url(#pa1f2f84076)" style="fill: none; stroke: #ff0000; stroke-linecap: square"/>
   </g>
   <g id="line2d_93">
    <defs>
     <path id="m516dcd2668" d="M 0 5 
C 1.326016 5 2.597899 4.473168 3.535534 3.535534 
C 4.473168 2.597899 5 1.326016 5 0 
C 5 -1.326016 4.473168 -2.597899 3.535534 -3.535534 
C 2.597899 -4.473168 1.326016 -5 0 -5 
C -1.326016 -5 -2.597899 -4.473168 -3.535534 -3.535534 
C -4.473168 -2.597899 -5 -1.326016 -5 0 
C -5 1.326016 -4.473168 2.597899 -3.535534 3.535534 
C -2.597899 4.473168 -1.326016 5 0 5 
z
" style="stroke: #bfbfbf"/>
    </defs>
    <g>
     <use xlink:href="#m516dcd2668" x="664.92" y="622.08" style="fill: #ffffff; stroke: #bfbfbf"/>
    </g>
   </g>
   <g id="text_26">
    <!-- #Sweep -->
    <g transform="translate(138.622875 625.39125) scale(0.12 -0.12)">
     <defs>
      <path id="DejaVuSans-23" d="M 3272 2816 
L 2363 2816 
L 2100 1772 
L 3016 1772 
L 3272 2816 
z
M 2803 4594 
L 2478 3297 
L 3391 3297 
L 3719 4594 
L 4219 4594 
L 3897 3297 
L 4872 3297 
L 4872 2816 
L 3775 2816 
L 3519 1772 
L 4513 1772 
L 4513 1294 
L 3397 1294 
L 3072 0 
L 2572 0 
L 2894 1294 
L 1978 1294 
L 1656 0 
L 1153 0 
L 1478 1294 
L 494 1294 
L 494 1772 
L 1594 1772 
L 1856 2816 
L 850 2816 
L 850 3297 
L 1978 3297 
L 2297 4594 
L 2803 4594 
z
" transform="scale(0.015625)"/>
      <path id="DejaVuSans-77" d="M 269 3500 
L 844 3500 
L 1563 769 
L 2278 3500 
L 2956 3500 
L 3675 769 
L 4391 3500 
L 4966 3500 
L 4050 0 
L 3372 0 
L 2619 2869 
L 1863 0 
L 1184 0 
L 269 3500 
z
" transform="scale(0.015625)"/>
      <path id="DejaVuSans-70" d="M 1159 525 
L 1159 -1331 
L 581 -1331 
L 581 3500 
L 1159 3500 
L 1159 2969 
Q 1341 3281 1617 3432 
Q 1894 3584 2278 3584 
Q 2916 3584 3314 3078 
Q 3713 2572 3713 1747 
Q 3713 922 3314 415 
Q 2916 -91 2278 -91 
Q 1894 -91 1617 61 
Q 1341 213 1159 525 
z
M 3116 1747 
Q 3116 2381 2855 2742 
Q 2594 3103 2138 3103 
Q 1681 3103 1420 2742 
Q 1159 2381 1159 1747 
Q 1159 1113 1420 752 
Q 1681 391 2138 391 
Q 2594 391 2855 752 
Q 3116 1113 3116 1747 
z
" transform="scale(0.015625)"/>
     </defs>
     <use xlink:href="#DejaVuSans-23"/>
     <use xlink:href="#DejaVuSans-53" x="83.789062"/>
     <use xlink:href="#DejaVuSans-77" x="147.265625"/>
     <use xlink:href="#DejaVuSans-65" x="229.052734"/>
     <use xlink:href="#DejaVuSans-65" x="290.576172"/>
     <use xlink:href="#DejaVuSans-70" x="352.099609"/>
    </g>
   </g>
   <g id="text_27">
    <!-- $\mathdefault{99}$ -->
    <g transform="translate(869.904 625.39125) scale(0.12 -0.12)">
     <defs>
      <path id="DejaVuSans-39" d="M 703 97 
L 703 672 
Q 941 559 1184 500 
Q 1428 441 1663 441 
Q 2288 441 2617 861 
Q 2947 1281 2994 2138 
Q 2813 1869 2534 1725 
Q 2256 1581 1919 1581 
Q 1219 1581 811 2004 
Q 403 2428 403 3163 
Q 403 3881 828 4315 
Q 1253 4750 1959 4750 
Q 2769 4750 3195 4129 
Q 3622 3509 3622 2328 
Q 3622 1225 3098 567 
Q 2575 -91 1691 -91 
Q 1453 -91 1209 -44 
Q 966 3 703 97 
z
M 1959 2075 
Q 2384 2075 2632 2365 
Q 2881 2656 2881 3163 
Q 2881 3666 2632 3958 
Q 2384 4250 1959 4250 
Q 1534 4250 1286 3958 
Q 1038 3666 1038 3163 
Q 1038 2656 1286 2365 
Q 1534 2075 1959 2075 
z
" transform="scale(0.015625)"/>
     </defs>
     <use xlink:href="#DejaVuSans-39" transform="translate(0 0.78125)"/>
     <use xlink:href="#DejaVuSans-39" transform="translate(63.623047 0.78125)"/>
    </g>
   </g>
  </g>
  <g id="text_28">
   <!-- DFF under BBI sweep analysis (Sweep = 109E-9) -->
   <g transform="translate(308.25625 25.1175) scale(0.16 -0.16)">
    <defs>
     <path id="DejaVuSans-75" d="M 544 1381 
L 544 3500 
L 1119 3500 
L 1119 1403 
Q 1119 906 1312 657 
Q 1506 409 1894 409 
Q 2359 409 2629 706 
Q 2900 1003 2900 1516 
L 2900 3500 
L 3475 3500 
L 3475 0 
L 2900 0 
L 2900 538 
Q 2691 219 2414 64 
Q 2138 -91 1772 -91 
Q 1169 -91 856 284 
Q 544 659 544 1381 
z
M 1991 3584 
L 1991 3584 
z
" transform="scale(0.015625)"/>
     <path id="DejaVuSans-64" d="M 2906 2969 
L 2906 4863 
L 3481 4863 
L 3481 0 
L 2906 0 
L 2906 525 
Q 2725 213 2448 61 
Q 2172 -91 1784 -91 
Q 1150 -91 751 415 
Q 353 922 353 1747 
Q 353 2572 751 3078 
Q 1150 3584 1784 3584 
Q 2172 3584 2448 3432 
Q 2725 3281 2906 2969 
z
M 947 1747 
Q 947 1113 1208 752 
Q 1469 391 1925 391 
Q 2381 391 2643 752 
Q 2906 1113 2906 1747 
Q 2906 2381 2643 2742 
Q 2381 3103 1925 3103 
Q 1469 3103 1208 2742 
Q 947 2381 947 1747 
z
" transform="scale(0.015625)"/>
     <path id="DejaVuSans-72" d="M 2631 2963 
Q 2534 3019 2420 3045 
Q 2306 3072 2169 3072 
Q 1681 3072 1420 2755 
Q 1159 2438 1159 1844 
L 1159 0 
L 581 0 
L 581 3500 
L 1159 3500 
L 1159 2956 
Q 1341 3275 1631 3429 
Q 1922 3584 2338 3584 
Q 2397 3584 2469 3576 
Q 2541 3569 2628 3553 
L 2631 2963 
z
" transform="scale(0.015625)"/>
     <path id="DejaVuSans-61" d="M 2194 1759 
Q 1497 1759 1228 1600 
Q 959 1441 959 1056 
Q 959 750 1161 570 
Q 1363 391 1709 391 
Q 2188 391 2477 730 
Q 2766 1069 2766 1631 
L 2766 1759 
L 2194 1759 
z
M 3341 1997 
L 3341 0 
L 2766 0 
L 2766 531 
Q 2569 213 2275 61 
Q 1981 -91 1556 -91 
Q 1019 -91 701 211 
Q 384 513 384 1019 
Q 384 1609 779 1909 
Q 1175 2209 1959 2209 
L 2766 2209 
L 2766 2266 
Q 2766 2663 2505 2880 
Q 2244 3097 1772 3097 
Q 1472 3097 1187 3025 
Q 903 2953 641 2809 
L 641 3341 
Q 956 3463 1253 3523 
Q 1550 3584 1831 3584 
Q 2591 3584 2966 3190 
Q 3341 2797 3341 1997 
z
" transform="scale(0.015625)"/>
     <path id="DejaVuSans-6c" d="M 603 4863 
L 1178 4863 
L 1178 0 
L 603 0 
L 603 4863 
z
" transform="scale(0.015625)"/>
     <path id="DejaVuSans-79" d="M 2059 -325 
Q 1816 -950 1584 -1140 
Q 1353 -1331 966 -1331 
L 506 -1331 
L 506 -850 
L 844 -850 
Q 1081 -850 1212 -737 
Q 1344 -625 1503 -206 
L 1606 56 
L 191 3500 
L 800 3500 
L 1894 763 
L 2988 3500 
L 3597 3500 
L 2059 -325 
z
" transform="scale(0.015625)"/>
     <path id="DejaVuSans-28" d="M 1984 4856 
Q 1566 4138 1362 3434 
Q 1159 2731 1159 2009 
Q 1159 1288 1364 580 
Q 1569 -128 1984 -844 
L 1484 -844 
Q 1016 -109 783 600 
Q 550 1309 550 2009 
Q 550 2706 781 3412 
Q 1013 4119 1484 4856 
L 1984 4856 
z
" transform="scale(0.015625)"/>
     <path id="DejaVuSans-3d" d="M 678 2906 
L 4684 2906 
L 4684 2381 
L 678 2381 
L 678 2906 
z
M 678 1631 
L 4684 1631 
L 4684 1100 
L 678 1100 
L 678 1631 
z
" transform="scale(0.015625)"/>
     <path id="DejaVuSans-2d" d="M 313 2009 
L 1997 2009 
L 1997 1497 
L 313 1497 
L 313 2009 
z
" transform="scale(0.015625)"/>
     <path id="DejaVuSans-29" d="M 513 4856 
L 1013 4856 
Q 1481 4119 1714 3412 
Q 1947 2706 1947 2009 
Q 1947 1309 1714 600 
Q 1481 -109 1013 -844 
L 513 -844 
Q 928 -128 1133 580 
Q 1338 1288 1338 2009 
Q 1338 2731 1133 3434 
Q 928 4138 513 4856 
z
" transform="scale(0.015625)"/>
    </defs>
    <use xlink:href="#DejaVuSans-44"/>
    <use xlink:href="#DejaVuSans-46" x="77.001953"/>
    <use xlink:href="#DejaVuSans-46" x="134.521484"/>
    <use xlink:href="#DejaVuSans-20" x="192.041016"/>
    <use xlink:href="#DejaVuSans-75" x="223.828125"/>
    <use xlink:href="#DejaVuSans-6e" x="287.207031"/>
    <use xlink:href="#DejaVuSans-64" x="350.585938"/>
    <use xlink:href="#DejaVuSans-65" x="414.0625"/>
    <use xlink:href="#DejaVuSans-72" x="475.585938"/>
    <use xlink:href="#DejaVuSans-20" x="516.699219"/>
    <use xlink:href="#DejaVuSans-42" x="548.486328"/>
    <use xlink:href="#DejaVuSans-42" x="617.089844"/>
    <use xlink:href="#DejaVuSans-49" x="685.693359"/>
    <use xlink:href="#DejaVuSans-20" x="715.185547"/>
    <use xlink:href="#DejaVuSans-73" x="746.972656"/>
    <use xlink:href="#DejaVuSans-77" x="799.072266"/>
    <use xlink:href="#DejaVuSans-65" x="880.859375"/>
    <use xlink:href="#DejaVuSans-65" x="942.382812"/>
    <use xlink:href="#DejaVuSans-70" x="1003.90625"/>
    <use xlink:href="#DejaVuSans-20" x="1067.382812"/>
    <use xlink:href="#DejaVuSans-61" x="1099.169922"/>
    <use xlink:href="#DejaVuSans-6e" x="1160.449219"/>
    <use xlink:href="#DejaVuSans-61" x="1223.828125"/>
    <use xlink:href="#DejaVuSans-6c" x="1285.107422"/>
    <use xlink:href="#DejaVuSans-79" x="1312.890625"/>
    <use xlink:href="#DejaVuSans-73" x="1372.070312"/>
    <use xlink:href="#DejaVuSans-69" x="1424.169922"/>
    <use xlink:href="#DejaVuSans-73" x="1451.953125"/>
    <use xlink:href="#DejaVuSans-20" x="1504.052734"/>
    <use xlink:href="#DejaVuSans-28" x="1535.839844"/>
    <use xlink:href="#DejaVuSans-53" x="1574.853516"/>
    <use xlink:href="#DejaVuSans-77" x="1638.330078"/>
    <use xlink:href="#DejaVuSans-65" x="1720.117188"/>
    <use xlink:href="#DejaVuSans-65" x="1781.640625"/>
    <use xlink:href="#DejaVuSans-70" x="1843.164062"/>
    <use xlink:href="#DejaVuSans-20" x="1906.640625"/>
    <use xlink:href="#DejaVuSans-3d" x="1938.427734"/>
    <use xlink:href="#DejaVuSans-20" x="2022.216797"/>
    <use xlink:href="#DejaVuSans-31" x="2054.003906"/>
    <use xlink:href="#DejaVuSans-30" x="2117.626953"/>
    <use xlink:href="#DejaVuSans-39" x="2181.25"/>
    <use xlink:href="#DejaVuSans-45" x="2244.873047"/>
    <use xlink:href="#DejaVuSans-2d" x="2308.056641"/>
    <use xlink:href="#DejaVuSans-39" x="2344.140625"/>
    <use xlink:href="#DejaVuSans-29" x="2407.763672"/>
   </g>
  </g>
 </g>
 <defs>
  <clipPath id="p46cea12bea">
   <rect x="100.8" y="38.88" width="887.04" height="92.731034"/>
  </clipPath>
  <clipPath id="p92c5d0b0b3">
   <rect x="100.8" y="150.157241" width="887.04" height="92.731034"/>
  </clipPath>
  <clipPath id="pa639a56331">
   <rect x="100.8" y="261.434483" width="887.04" height="92.731034"/>
  </clipPath>
  <clipPath id="p219c289f4d">
   <rect x="100.8" y="372.711724" width="887.04" height="92.731034"/>
  </clipPath>
  <clipPath id="pdf519bb073">
   <rect x="100.8" y="483.988966" width="887.04" height="92.731034"/>
  </clipPath>
  <clipPath id="p66f57be6ce">
   <rect x="201.6" y="609.12" width="655.2" height="25.92"/>
  </clipPath>
  <clipPath id="pa1f2f84076">
   <path d="M 201.6 628.56 
L 856.8 628.56 
L 856.8 615.6 
L 201.6 615.6 
z
"/>
  </clipPath>
 </defs>
</svg>
