<?xml version="1.0" encoding="utf-8" standalone="no"?>
<!DOCTYPE svg PUBLIC "-//W3C//DTD SVG 1.1//EN"
  "http://www.w3.org/Graphics/SVG/1.1/DTD/svg11.dtd">
<svg xmlns:xlink="http://www.w3.org/1999/xlink" width="1008pt" height="648pt" viewBox="0 0 1008 648" xmlns="http://www.w3.org/2000/svg" version="1.1">
 <metadata>
  <rdf:RDF xmlns:dc="http://purl.org/dc/elements/1.1/" xmlns:cc="http://creativecommons.org/ns#" xmlns:rdf="http://www.w3.org/1999/02/22-rdf-syntax-ns#">
   <cc:Work>
    <dc:type rdf:resource="http://purl.org/dc/dcmitype/StillImage"/>
    <dc:date>2024-06-03T10:45:43.962959</dc:date>
    <dc:format>image/svg+xml</dc:format>
    <dc:creator>
     <cc:Agent>
      <dc:title>Matplotlib v3.9.0, https://matplotlib.org/</dc:title>
     </cc:Agent>
    </dc:creator>
   </cc:Work>
  </rdf:RDF>
 </metadata>
 <defs>
  <style type="text/css">*{stroke-linejoin: round; stroke-linecap: butt}</style>
 </defs>
 <g id="figure_1">
  <g id="patch_1">
   <path d="M 0 648 
L 1008 648 
L 1008 0 
L 0 0 
z
" style="fill: #ffffff"/>
  </g>
  <g id="axes_1">
   <g id="patch_2">
    <path d="M 100.8 131.611034 
L 987.84 131.611034 
L 987.84 38.88 
L 100.8 38.88 
z
" style="fill: #eeeeee"/>
   </g>
   <g id="matplotlib.axis_1">
    <g id="xtick_1">
     <g id="line2d_1">
      <path d="M 141.12 131.611034 
L 141.12 38.88 
" clip-path="url(#pa788a58cc0)" style="fill: none; stroke-dasharray: 1.85,0.8; stroke-dashoffset: 0; stroke: #b2b2b2; stroke-width: 0.5"/>
     </g>
     <g id="line2d_2">
      <defs>
       <path id="m0c3151cbed" d="M 0 0 
L 0 -3.5 
" style="stroke: #000000; stroke-width: 0.8"/>
      </defs>
      <g>
       <use xlink:href="#m0c3151cbed" x="141.12" y="131.611034" style="stroke: #000000; stroke-width: 0.8"/>
      </g>
     </g>
    </g>
    <g id="xtick_2">
     <g id="line2d_3">
      <path d="M 302.4 131.611034 
L 302.4 38.88 
" clip-path="url(#pa788a58cc0)" style="fill: none; stroke-dasharray: 1.85,0.8; stroke-dashoffset: 0; stroke: #b2b2b2; stroke-width: 0.5"/>
     </g>
     <g id="line2d_4">
      <g>
       <use xlink:href="#m0c3151cbed" x="302.4" y="131.611034" style="stroke: #000000; stroke-width: 0.8"/>
      </g>
     </g>
    </g>
    <g id="xtick_3">
     <g id="line2d_5">
      <path d="M 463.68 131.611034 
L 463.68 38.88 
" clip-path="url(#pa788a58cc0)" style="fill: none; stroke-dasharray: 1.85,0.8; stroke-dashoffset: 0; stroke: #b2b2b2; stroke-width: 0.5"/>
     </g>
     <g id="line2d_6">
      <g>
       <use xlink:href="#m0c3151cbed" x="463.68" y="131.611034" style="stroke: #000000; stroke-width: 0.8"/>
      </g>
     </g>
    </g>
    <g id="xtick_4">
     <g id="line2d_7">
      <path d="M 624.96 131.611034 
L 624.96 38.88 
" clip-path="url(#pa788a58cc0)" style="fill: none; stroke-dasharray: 1.85,0.8; stroke-dashoffset: 0; stroke: #b2b2b2; stroke-width: 0.5"/>
     </g>
     <g id="line2d_8">
      <g>
       <use xlink:href="#m0c3151cbed" x="624.96" y="131.611034" style="stroke: #000000; stroke-width: 0.8"/>
      </g>
     </g>
    </g>
    <g id="xtick_5">
     <g id="line2d_9">
      <path d="M 786.24 131.611034 
L 786.24 38.88 
" clip-path="url(#pa788a58cc0)" style="fill: none; stroke-dasharray: 1.85,0.8; stroke-dashoffset: 0; stroke: #b2b2b2; stroke-width: 0.5"/>
     </g>
     <g id="line2d_10">
      <g>
       <use xlink:href="#m0c3151cbed" x="786.24" y="131.611034" style="stroke: #000000; stroke-width: 0.8"/>
      </g>
     </g>
    </g>
    <g id="xtick_6">
     <g id="line2d_11">
      <path d="M 947.52 131.611034 
L 947.52 38.88 
" clip-path="url(#pa788a58cc0)" style="fill: none; stroke-dasharray: 1.85,0.8; stroke-dashoffset: 0; stroke: #b2b2b2; stroke-width: 0.5"/>
     </g>
     <g id="line2d_12">
      <g>
       <use xlink:href="#m0c3151cbed" x="947.52" y="131.611034" style="stroke: #000000; stroke-width: 0.8"/>
      </g>
     </g>
    </g>
   </g>
   <g id="matplotlib.axis_2">
    <g id="ytick_1">
     <g id="line2d_13">
      <path d="M 100.8 98.340394 
L 987.84 98.340394 
" clip-path="url(#pa788a58cc0)" style="fill: none; stroke-dasharray: 1.85,0.8; stroke-dashoffset: 0; stroke: #b2b2b2; stroke-width: 0.5"/>
     </g>
     <g id="line2d_14">
      <defs>
       <path id="mb1c98782a1" d="M 0 0 
L 3.5 0 
" style="stroke: #000000; stroke-width: 0.8"/>
      </defs>
      <g>
       <use xlink:href="#mb1c98782a1" x="100.8" y="98.340394" style="stroke: #000000; stroke-width: 0.8"/>
      </g>
     </g>
     <g id="text_1">
      <!-- −200 V -->
      <g transform="translate(44.819688 103.6593) scale(0.14 -0.14)">
       <defs>
        <path id="DejaVuSans-2212" d="M 678 2272 
L 4684 2272 
L 4684 1741 
L 678 1741 
L 678 2272 
z
" transform="scale(0.015625)"/>
        <path id="DejaVuSans-32" d="M 1228 531 
L 3431 531 
L 3431 0 
L 469 0 
L 469 531 
Q 828 903 1448 1529 
Q 2069 2156 2228 2338 
Q 2531 2678 2651 2914 
Q 2772 3150 2772 3378 
Q 2772 3750 2511 3984 
Q 2250 4219 1831 4219 
Q 1534 4219 1204 4116 
Q 875 4013 500 3803 
L 500 4441 
Q 881 4594 1212 4672 
Q 1544 4750 1819 4750 
Q 2544 4750 2975 4387 
Q 3406 4025 3406 3419 
Q 3406 3131 3298 2873 
Q 3191 2616 2906 2266 
Q 2828 2175 2409 1742 
Q 1991 1309 1228 531 
z
" transform="scale(0.015625)"/>
        <path id="DejaVuSans-30" d="M 2034 4250 
Q 1547 4250 1301 3770 
Q 1056 3291 1056 2328 
Q 1056 1369 1301 889 
Q 1547 409 2034 409 
Q 2525 409 2770 889 
Q 3016 1369 3016 2328 
Q 3016 3291 2770 3770 
Q 2525 4250 2034 4250 
z
M 2034 4750 
Q 2819 4750 3233 4129 
Q 3647 3509 3647 2328 
Q 3647 1150 3233 529 
Q 2819 -91 2034 -91 
Q 1250 -91 836 529 
Q 422 1150 422 2328 
Q 422 3509 836 4129 
Q 1250 4750 2034 4750 
z
" transform="scale(0.015625)"/>
        <path id="DejaVuSans-20" transform="scale(0.015625)"/>
        <path id="DejaVuSans-56" d="M 1831 0 
L 50 4666 
L 709 4666 
L 2188 738 
L 3669 4666 
L 4325 4666 
L 2547 0 
L 1831 0 
z
" transform="scale(0.015625)"/>
       </defs>
       <use xlink:href="#DejaVuSans-2212"/>
       <use xlink:href="#DejaVuSans-32" x="83.789062"/>
       <use xlink:href="#DejaVuSans-30" x="147.412109"/>
       <use xlink:href="#DejaVuSans-30" x="211.035156"/>
       <use xlink:href="#DejaVuSans-20" x="274.658203"/>
       <use xlink:href="#DejaVuSans-56" x="306.445312"/>
      </g>
     </g>
    </g>
    <g id="ytick_2">
     <g id="line2d_15">
      <path d="M 100.8 45.027377 
L 987.84 45.027377 
" clip-path="url(#pa788a58cc0)" style="fill: none; stroke-dasharray: 1.85,0.8; stroke-dashoffset: 0; stroke: #b2b2b2; stroke-width: 0.5"/>
     </g>
     <g id="line2d_16">
      <g>
       <use xlink:href="#mb1c98782a1" x="100.8" y="45.027377" style="stroke: #000000; stroke-width: 0.8"/>
      </g>
     </g>
     <g id="text_2">
      <!-- 0 V -->
      <g transform="translate(74.36625 50.346284) scale(0.14 -0.14)">
       <use xlink:href="#DejaVuSans-30"/>
       <use xlink:href="#DejaVuSans-20" x="63.623047"/>
       <use xlink:href="#DejaVuSans-56" x="95.410156"/>
      </g>
     </g>
    </g>
    <g id="text_3">
     <g id="patch_3">
      <path d="M 34.8768 131.080205 
L 34.8768 39.41083 
L 11.247425 39.41083 
L 11.247425 131.080205 
z
" style="fill: #ffff00; opacity: 0.2; stroke: #eeeeee; stroke-width: 0.5; stroke-linejoin: miter"/>
     </g>
     <!-- VPULSE BBI -->
     <g transform="translate(26.925238 126.040205) rotate(-90) scale(0.14 -0.14)">
      <defs>
       <path id="DejaVuSans-50" d="M 1259 4147 
L 1259 2394 
L 2053 2394 
Q 2494 2394 2734 2622 
Q 2975 2850 2975 3272 
Q 2975 3691 2734 3919 
Q 2494 4147 2053 4147 
L 1259 4147 
z
M 628 4666 
L 2053 4666 
Q 2838 4666 3239 4311 
Q 3641 3956 3641 3272 
Q 3641 2581 3239 2228 
Q 2838 1875 2053 1875 
L 1259 1875 
L 1259 0 
L 628 0 
L 628 4666 
z
" transform="scale(0.015625)"/>
       <path id="DejaVuSans-55" d="M 556 4666 
L 1191 4666 
L 1191 1831 
Q 1191 1081 1462 751 
Q 1734 422 2344 422 
Q 2950 422 3222 751 
Q 3494 1081 3494 1831 
L 3494 4666 
L 4128 4666 
L 4128 1753 
Q 4128 841 3676 375 
Q 3225 -91 2344 -91 
Q 1459 -91 1007 375 
Q 556 841 556 1753 
L 556 4666 
z
" transform="scale(0.015625)"/>
       <path id="DejaVuSans-4c" d="M 628 4666 
L 1259 4666 
L 1259 531 
L 3531 531 
L 3531 0 
L 628 0 
L 628 4666 
z
" transform="scale(0.015625)"/>
       <path id="DejaVuSans-53" d="M 3425 4513 
L 3425 3897 
Q 3066 4069 2747 4153 
Q 2428 4238 2131 4238 
Q 1616 4238 1336 4038 
Q 1056 3838 1056 3469 
Q 1056 3159 1242 3001 
Q 1428 2844 1947 2747 
L 2328 2669 
Q 3034 2534 3370 2195 
Q 3706 1856 3706 1288 
Q 3706 609 3251 259 
Q 2797 -91 1919 -91 
Q 1588 -91 1214 -16 
Q 841 59 441 206 
L 441 856 
Q 825 641 1194 531 
Q 1563 422 1919 422 
Q 2459 422 2753 634 
Q 3047 847 3047 1241 
Q 3047 1584 2836 1778 
Q 2625 1972 2144 2069 
L 1759 2144 
Q 1053 2284 737 2584 
Q 422 2884 422 3419 
Q 422 4038 858 4394 
Q 1294 4750 2059 4750 
Q 2388 4750 2728 4690 
Q 3069 4631 3425 4513 
z
" transform="scale(0.015625)"/>
       <path id="DejaVuSans-45" d="M 628 4666 
L 3578 4666 
L 3578 4134 
L 1259 4134 
L 1259 2753 
L 3481 2753 
L 3481 2222 
L 1259 2222 
L 1259 531 
L 3634 531 
L 3634 0 
L 628 0 
L 628 4666 
z
" transform="scale(0.015625)"/>
       <path id="DejaVuSans-42" d="M 1259 2228 
L 1259 519 
L 2272 519 
Q 2781 519 3026 730 
Q 3272 941 3272 1375 
Q 3272 1813 3026 2020 
Q 2781 2228 2272 2228 
L 1259 2228 
z
M 1259 4147 
L 1259 2741 
L 2194 2741 
Q 2656 2741 2882 2914 
Q 3109 3088 3109 3444 
Q 3109 3797 2882 3972 
Q 2656 4147 2194 4147 
L 1259 4147 
z
M 628 4666 
L 2241 4666 
Q 2963 4666 3353 4366 
Q 3744 4066 3744 3513 
Q 3744 3084 3544 2831 
Q 3344 2578 2956 2516 
Q 3422 2416 3680 2098 
Q 3938 1781 3938 1306 
Q 3938 681 3513 340 
Q 3088 0 2303 0 
L 628 0 
L 628 4666 
z
" transform="scale(0.015625)"/>
       <path id="DejaVuSans-49" d="M 628 4666 
L 1259 4666 
L 1259 0 
L 628 0 
L 628 4666 
z
" transform="scale(0.015625)"/>
      </defs>
      <use xlink:href="#DejaVuSans-56"/>
      <use xlink:href="#DejaVuSans-50" x="68.408203"/>
      <use xlink:href="#DejaVuSans-55" x="128.710938"/>
      <use xlink:href="#DejaVuSans-4c" x="201.904297"/>
      <use xlink:href="#DejaVuSans-53" x="257.617188"/>
      <use xlink:href="#DejaVuSans-45" x="321.09375"/>
      <use xlink:href="#DejaVuSans-20" x="384.277344"/>
      <use xlink:href="#DejaVuSans-42" x="416.064453"/>
      <use xlink:href="#DejaVuSans-42" x="484.667969"/>
      <use xlink:href="#DejaVuSans-49" x="553.271484"/>
     </g>
    </g>
   </g>
   <g id="line2d_17">
    <path d="M 141.12 45.027377 
L 408.877056 45.136282 
L 409.360896 46.425538 
L 417.586176 69.006772 
L 425.005056 89.863624 
L 426.617856 94.440546 
L 428.424192 99.673219 
L 431.90784 110.807642 
L 433.488384 115.853719 
L 434.714112 119.550977 
L 438.617088 121.36362 
L 439.197696 121.619522 
L 440.068608 122.003376 
L 440.713728 122.269941 
L 442.294272 122.936354 
L 442.939392 123.202919 
L 444.036096 123.629423 
L 444.777984 123.922644 
L 445.874688 124.349149 
L 446.777856 124.677024 
L 447.455232 124.943589 
L 448.261632 125.25547 
L 449.616384 125.804594 
L 452.261376 126.790885 
L 452.87424 127.022796 
L 454.8096 127.395987 
L 473.292288 127.289361 
L 473.51808 126.801547 
L 491.807232 75.087922 
L 495.548928 63.292417 
L 499.258368 51.617666 
L 503.870976 49.3412 
L 509.225472 46.984578 
L 517.934592 43.484472 
L 518.805504 43.268927 
L 533.094912 43.108189 
L 539.900928 43.184799 
L 555.254784 43.746186 
L 583.0272 44.46146 
L 608.67072 44.774399 
L 644.281344 44.945888 
L 692.310528 44.953885 
L 947.52 44.953885 
L 947.52 44.953885 
" clip-path="url(#pa788a58cc0)" style="fill: none; stroke: #ff0000; stroke-width: 2; stroke-linecap: square"/>
   </g>
   <g id="patch_4">
    <path d="M 100.8 131.611034 
L 100.8 38.88 
" style="fill: none; stroke: #bcbcbc; stroke-width: 0.8; stroke-linejoin: miter; stroke-linecap: square"/>
   </g>
   <g id="patch_5">
    <path d="M 987.84 131.611034 
L 987.84 38.88 
" style="fill: none; stroke: #bcbcbc; stroke-width: 0.8; stroke-linejoin: miter; stroke-linecap: square"/>
   </g>
   <g id="patch_6">
    <path d="M 100.8 131.611034 
L 987.84 131.611034 
" style="fill: none; stroke: #bcbcbc; stroke-width: 0.8; stroke-linejoin: miter; stroke-linecap: square"/>
   </g>
   <g id="patch_7">
    <path d="M 100.8 38.88 
L 987.84 38.88 
" style="fill: none; stroke: #bcbcbc; stroke-width: 0.8; stroke-linejoin: miter; stroke-linecap: square"/>
   </g>
  </g>
  <g id="axes_2">
   <g id="patch_8">
    <path d="M 100.8 242.888276 
L 987.84 242.888276 
L 987.84 150.157241 
L 100.8 150.157241 
z
" style="fill: #eeeeee"/>
   </g>
   <g id="matplotlib.axis_3">
    <g id="xtick_7">
     <g id="line2d_18">
      <path d="M 141.12 242.888276 
L 141.12 150.157241 
" clip-path="url(#p0d8f03c9d9)" style="fill: none; stroke-dasharray: 1.85,0.8; stroke-dashoffset: 0; stroke: #b2b2b2; stroke-width: 0.5"/>
     </g>
     <g id="line2d_19">
      <g>
       <use xlink:href="#m0c3151cbed" x="141.12" y="242.888276" style="stroke: #000000; stroke-width: 0.8"/>
      </g>
     </g>
    </g>
    <g id="xtick_8">
     <g id="line2d_20">
      <path d="M 302.4 242.888276 
L 302.4 150.157241 
" clip-path="url(#p0d8f03c9d9)" style="fill: none; stroke-dasharray: 1.85,0.8; stroke-dashoffset: 0; stroke: #b2b2b2; stroke-width: 0.5"/>
     </g>
     <g id="line2d_21">
      <g>
       <use xlink:href="#m0c3151cbed" x="302.4" y="242.888276" style="stroke: #000000; stroke-width: 0.8"/>
      </g>
     </g>
    </g>
    <g id="xtick_9">
     <g id="line2d_22">
      <path d="M 463.68 242.888276 
L 463.68 150.157241 
" clip-path="url(#p0d8f03c9d9)" style="fill: none; stroke-dasharray: 1.85,0.8; stroke-dashoffset: 0; stroke: #b2b2b2; stroke-width: 0.5"/>
     </g>
     <g id="line2d_23">
      <g>
       <use xlink:href="#m0c3151cbed" x="463.68" y="242.888276" style="stroke: #000000; stroke-width: 0.8"/>
      </g>
     </g>
    </g>
    <g id="xtick_10">
     <g id="line2d_24">
      <path d="M 624.96 242.888276 
L 624.96 150.157241 
" clip-path="url(#p0d8f03c9d9)" style="fill: none; stroke-dasharray: 1.85,0.8; stroke-dashoffset: 0; stroke: #b2b2b2; stroke-width: 0.5"/>
     </g>
     <g id="line2d_25">
      <g>
       <use xlink:href="#m0c3151cbed" x="624.96" y="242.888276" style="stroke: #000000; stroke-width: 0.8"/>
      </g>
     </g>
    </g>
    <g id="xtick_11">
     <g id="line2d_26">
      <path d="M 786.24 242.888276 
L 786.24 150.157241 
" clip-path="url(#p0d8f03c9d9)" style="fill: none; stroke-dasharray: 1.85,0.8; stroke-dashoffset: 0; stroke: #b2b2b2; stroke-width: 0.5"/>
     </g>
     <g id="line2d_27">
      <g>
       <use xlink:href="#m0c3151cbed" x="786.24" y="242.888276" style="stroke: #000000; stroke-width: 0.8"/>
      </g>
     </g>
    </g>
    <g id="xtick_12">
     <g id="line2d_28">
      <path d="M 947.52 242.888276 
L 947.52 150.157241 
" clip-path="url(#p0d8f03c9d9)" style="fill: none; stroke-dasharray: 1.85,0.8; stroke-dashoffset: 0; stroke: #b2b2b2; stroke-width: 0.5"/>
     </g>
     <g id="line2d_29">
      <g>
       <use xlink:href="#m0c3151cbed" x="947.52" y="242.888276" style="stroke: #000000; stroke-width: 0.8"/>
      </g>
     </g>
    </g>
   </g>
   <g id="matplotlib.axis_4">
    <g id="ytick_3">
     <g id="line2d_30">
      <path d="M 100.8 219.983656 
L 987.84 219.983656 
" clip-path="url(#p0d8f03c9d9)" style="fill: none; stroke-dasharray: 1.85,0.8; stroke-dashoffset: 0; stroke: #b2b2b2; stroke-width: 0.5"/>
     </g>
     <g id="line2d_31">
      <g>
       <use xlink:href="#mb1c98782a1" x="100.8" y="219.983656" style="stroke: #000000; stroke-width: 0.8"/>
      </g>
     </g>
     <g id="text_4">
      <!-- 0 V -->
      <g transform="translate(74.36625 225.302562) scale(0.14 -0.14)">
       <use xlink:href="#DejaVuSans-30"/>
       <use xlink:href="#DejaVuSans-20" x="63.623047"/>
       <use xlink:href="#DejaVuSans-56" x="95.410156"/>
      </g>
     </g>
    </g>
    <g id="ytick_4">
     <g id="line2d_32">
      <path d="M 100.8 187.653229 
L 987.84 187.653229 
" clip-path="url(#p0d8f03c9d9)" style="fill: none; stroke-dasharray: 1.85,0.8; stroke-dashoffset: 0; stroke: #b2b2b2; stroke-width: 0.5"/>
     </g>
     <g id="line2d_33">
      <g>
       <use xlink:href="#mb1c98782a1" x="100.8" y="187.653229" style="stroke: #000000; stroke-width: 0.8"/>
      </g>
     </g>
     <g id="text_5">
      <!-- 1 V -->
      <g transform="translate(74.36625 192.972136) scale(0.14 -0.14)">
       <defs>
        <path id="DejaVuSans-31" d="M 794 531 
L 1825 531 
L 1825 4091 
L 703 3866 
L 703 4441 
L 1819 4666 
L 2450 4666 
L 2450 531 
L 3481 531 
L 3481 0 
L 794 0 
L 794 531 
z
" transform="scale(0.015625)"/>
       </defs>
       <use xlink:href="#DejaVuSans-31"/>
       <use xlink:href="#DejaVuSans-20" x="63.623047"/>
       <use xlink:href="#DejaVuSans-56" x="95.410156"/>
      </g>
     </g>
    </g>
    <g id="ytick_5">
     <g id="line2d_34">
      <path d="M 100.8 155.322803 
L 987.84 155.322803 
" clip-path="url(#p0d8f03c9d9)" style="fill: none; stroke-dasharray: 1.85,0.8; stroke-dashoffset: 0; stroke: #b2b2b2; stroke-width: 0.5"/>
     </g>
     <g id="line2d_35">
      <g>
       <use xlink:href="#mb1c98782a1" x="100.8" y="155.322803" style="stroke: #000000; stroke-width: 0.8"/>
      </g>
     </g>
     <g id="text_6">
      <!-- 2 V -->
      <g transform="translate(74.36625 160.641709) scale(0.14 -0.14)">
       <use xlink:href="#DejaVuSans-32"/>
       <use xlink:href="#DejaVuSans-20" x="63.623047"/>
       <use xlink:href="#DejaVuSans-56" x="95.410156"/>
      </g>
     </g>
    </g>
    <g id="text_7">
     <g id="patch_9">
      <path d="M 34.8768 224.531509 
L 34.8768 168.514009 
L 11.247425 168.514009 
L 11.247425 224.531509 
z
" style="fill: #ffff00; opacity: 0.2; stroke: #eeeeee; stroke-width: 0.5; stroke-linejoin: miter"/>
     </g>
     <!-- DFF IN -->
     <g transform="translate(26.925238 219.491509) rotate(-90) scale(0.14 -0.14)">
      <defs>
       <path id="DejaVuSans-44" d="M 1259 4147 
L 1259 519 
L 2022 519 
Q 2988 519 3436 956 
Q 3884 1394 3884 2338 
Q 3884 3275 3436 3711 
Q 2988 4147 2022 4147 
L 1259 4147 
z
M 628 4666 
L 1925 4666 
Q 3281 4666 3915 4102 
Q 4550 3538 4550 2338 
Q 4550 1131 3912 565 
Q 3275 0 1925 0 
L 628 0 
L 628 4666 
z
" transform="scale(0.015625)"/>
       <path id="DejaVuSans-46" d="M 628 4666 
L 3309 4666 
L 3309 4134 
L 1259 4134 
L 1259 2759 
L 3109 2759 
L 3109 2228 
L 1259 2228 
L 1259 0 
L 628 0 
L 628 4666 
z
" transform="scale(0.015625)"/>
       <path id="DejaVuSans-4e" d="M 628 4666 
L 1478 4666 
L 3547 763 
L 3547 4666 
L 4159 4666 
L 4159 0 
L 3309 0 
L 1241 3903 
L 1241 0 
L 628 0 
L 628 4666 
z
" transform="scale(0.015625)"/>
      </defs>
      <use xlink:href="#DejaVuSans-44"/>
      <use xlink:href="#DejaVuSans-46" x="77.001953"/>
      <use xlink:href="#DejaVuSans-46" x="134.521484"/>
      <use xlink:href="#DejaVuSans-20" x="192.041016"/>
      <use xlink:href="#DejaVuSans-49" x="223.828125"/>
      <use xlink:href="#DejaVuSans-4e" x="253.320312"/>
     </g>
    </g>
   </g>
   <g id="line2d_36">
    <path d="M 141.12 219.936441 
L 221.953536 219.892106 
L 224.437248 201.87797 
L 225.404928 196.397963 
L 228.243456 184.34906 
L 229.598208 183.139902 
L 231.178752 182.30901 
L 236.59776 181.875782 
L 243.758592 181.765859 
L 245.274624 181.723829 
L 248.564736 181.613906 
L 250.371072 181.542779 
L 252.499968 181.432855 
L 254.209536 181.180678 
L 254.725632 180.647226 
L 255.370752 180.327155 
L 255.886848 180.275426 
L 257.596416 180.556701 
L 260.080128 180.941433 
L 262.370304 181.061055 
L 263.886336 181.109551 
L 264.144384 186.094903 
L 264.434688 189.487011 
L 265.176576 194.005835 
L 267.144192 210.499849 
L 268.402176 216.692742 
L 269.079552 217.955568 
L 270.46656 219.591035 
L 273.756672 219.98485 
L 282.756096 219.941782 
L 297.335808 219.92731 
L 306.238464 219.935771 
L 347.751936 219.893719 
L 350.235648 201.91612 
L 351.622656 193.696756 
L 352.687104 188.565271 
L 354.97728 182.005104 
L 358.493184 181.054589 
L 360.29952 181.125716 
L 363.267072 181.23564 
L 364.525056 181.251805 
L 375.169536 181.322932 
L 375.717888 182.26698 
L 376.169472 182.981483 
L 377.008128 183.844705 
L 377.55648 183.789743 
L 378.749952 183.324185 
L 380.45952 182.422166 
L 381.620736 182.076231 
L 383.427072 181.827287 
L 386.201088 181.659168 
L 389.039616 181.549245 
L 391.394304 181.423156 
L 393.910272 181.313233 
L 395.426304 181.271203 
L 408.973824 181.358495 
L 411.457536 185.137922 
L 415.812096 190.633771 
L 416.876544 191.901124 
L 417.7152 193.135177 
L 418.19904 194.166194 
L 419.198976 197.629106 
L 422.06976 208.941845 
L 422.618112 211.282568 
L 424.295424 217.270551 
L 424.456704 217.675037 
L 424.940544 219.343966 
L 425.198592 220.085519 
L 425.585664 221.513629 
L 425.811456 221.99102 
L 426.42432 223.900164 
L 426.5856 224.146845 
L 427.424256 226.107362 
L 427.746816 226.479485 
L 428.069376 226.841909 
L 428.295168 227.235047 
L 428.617728 228.195261 
L 429.48864 229.929465 
L 430.585344 231.679188 
L 430.907904 232.409209 
L 431.391744 233.344851 
L 432.004608 234.426304 
L 432.843264 235.707559 
L 433.133568 236.132704 
L 433.35936 236.511293 
L 433.423872 236.632209 
L 434.036736 237.739526 
L 434.456064 238.298196 
L 434.617344 238.493795 
L 434.81088 238.673229 
L 434.939904 238.572681 
L 435.326976 237.99817 
L 435.875328 237.273968 
L 436.42368 236.272371 
L 437.584896 235.003725 
L 437.971968 234.371342 
L 438.100992 234.340952 
L 440.068608 232.495531 
L 440.391168 232.066183 
L 440.77824 231.850539 
L 440.971776 231.744818 
L 441.229824 231.529821 
L 441.874944 231.157051 
L 442.810368 230.250829 
L 443.423232 229.50529 
L 443.649024 229.540853 
L 445.648896 228.006451 
L 446.552064 227.122214 
L 447.22944 226.812812 
L 449.874432 224.829664 
L 451.454976 223.722346 
L 452.71296 222.783212 
L 454.8096 220.955703 
L 455.45472 220.100621 
L 456.4224 218.816075 
L 458.938368 215.543072 
L 459.293184 215.086566 
L 460.970496 213.082403 
L 462.680064 211.330094 
L 463.19616 210.716462 
L 463.744512 209.232819 
L 465.002496 205.672916 
L 466.002432 203.40235 
L 466.776576 202.203538 
L 468.03456 200.425041 
L 468.711936 199.632946 
L 469.744128 198.292849 
L 470.647296 197.352034 
L 471.647232 196.177146 
L 472.5504 195.42999 
L 473.389056 194.579053 
L 473.872896 193.122568 
L 475.066368 189.28236 
L 475.905024 187.384887 
L 476.872704 185.774832 
L 478.001664 184.2747 
L 479.775744 182.140892 
L 481.549824 180.026482 
L 482.646528 178.67507 
L 483.581952 177.48531 
L 485.162496 175.45496 
L 488.226816 171.59794 
L 489.226752 170.382316 
L 496.000512 162.170387 
L 497.129472 156.422037 
L 497.677824 155.326036 
L 498.3552 154.679427 
L 499.032576 154.398153 
L 499.193856 154.407852 
L 500.097024 155.865954 
L 500.7744 156.745342 
L 501.74208 157.560068 
L 503.1936 158.306901 
L 508.386816 160.269358 
L 510.838272 161.119648 
L 512.483328 161.659567 
L 513.6768 162.011968 
L 518.99904 163.719015 
L 519.708672 164.084349 
L 521.90208 165.06396 
L 522.38592 165.267642 
L 522.86976 165.47779 
L 531.288576 168.733464 
L 532.159488 169.021205 
L 533.804544 169.561123 
L 536.352768 170.401714 
L 537.0624 172.273646 
L 537.481728 173.250024 
L 537.901056 174.352492 
L 538.126848 174.465648 
L 538.449408 174.323395 
L 539.030016 173.783476 
L 539.80416 173.156266 
L 540.675072 172.758602 
L 541.933056 172.619581 
L 546.674688 173.204762 
L 560.77056 175.917285 
L 562.447872 176.195326 
L 563.157504 176.302017 
L 563.963904 176.408707 
L 566.028288 176.712613 
L 566.834688 176.822537 
L 570.866688 177.33659 
L 572.156928 177.482077 
L 576.73728 177.837712 
L 577.350144 177.255764 
L 577.769472 177.129676 
L 578.285568 177.136142 
L 578.962944 177.310726 
L 582.962688 178.403494 
L 592.413696 179.240852 
L 594.252288 179.347543 
L 594.703872 179.370174 
L 597.090816 179.499496 
L 597.735936 179.535059 
L 598.18752 179.560924 
L 600.251904 179.657915 
L 602.509824 179.764605 
L 602.929152 179.787237 
L 603.735552 179.813101 
L 605.703168 179.903626 
L 606.509568 179.929491 
L 608.34816 180.003851 
L 611.606016 180.113774 
L 612.21888 180.129939 
L 612.993024 180.16227 
L 616.928256 180.272193 
L 617.05728 180.365951 
L 617.508864 180.886471 
L 617.960448 181.148348 
L 618.928128 181.332631 
L 620.089344 181.109551 
L 621.153792 180.799179 
L 622.637568 180.608429 
L 623.476224 180.582565 
L 634.830336 180.689256 
L 635.507712 180.711887 
L 636.57216 180.708654 
L 644.216832 180.818577 
L 644.861952 180.834742 
L 657.37728 180.74745 
L 657.925632 180.210765 
L 658.603008 179.984452 
L 659.764224 179.968287 
L 661.151232 180.272193 
L 663.50592 180.631061 
L 665.796096 180.750683 
L 697.632768 180.837976 
L 698.568192 181.633304 
L 699.503616 181.804655 
L 701.632512 181.694732 
L 703.438848 181.403758 
L 704.7936 181.245339 
L 709.244928 180.909102 
L 737.952768 180.837976 
L 738.50112 180.252795 
L 739.049472 179.990918 
L 741.017088 180.100842 
L 742.37184 180.395049 
L 744.081408 180.624595 
L 746.436096 180.750683 
L 778.272768 180.837976 
L 779.208192 181.633304 
L 780.143616 181.804655 
L 782.272512 181.694732 
L 784.078848 181.403758 
L 785.4336 181.245339 
L 789.884928 180.909102 
L 818.592768 180.837976 
L 819.14112 180.252795 
L 819.689472 179.990918 
L 821.657088 180.100842 
L 823.01184 180.395049 
L 824.721408 180.624595 
L 827.076096 180.750683 
L 858.912768 180.837976 
L 859.848192 181.633304 
L 860.783616 181.804655 
L 862.912512 181.694732 
L 864.718848 181.403758 
L 866.0736 181.245339 
L 870.524928 180.909102 
L 899.232768 180.837976 
L 899.78112 180.252795 
L 900.329472 179.990918 
L 902.297088 180.100842 
L 903.65184 180.395049 
L 905.361408 180.624595 
L 907.716096 180.750683 
L 939.552768 180.837976 
L 940.617216 181.662401 
L 941.584896 181.840219 
L 943.488 181.730295 
L 944.907264 181.478118 
L 947.19744 181.132182 
L 947.52 181.083687 
L 947.52 181.083687 
" clip-path="url(#p0d8f03c9d9)" style="fill: none; stroke: #008000; stroke-width: 2; stroke-linecap: square"/>
   </g>
   <g id="patch_10">
    <path d="M 100.8 242.888276 
L 100.8 150.157241 
" style="fill: none; stroke: #bcbcbc; stroke-width: 0.8; stroke-linejoin: miter; stroke-linecap: square"/>
   </g>
   <g id="patch_11">
    <path d="M 987.84 242.888276 
L 987.84 150.157241 
" style="fill: none; stroke: #bcbcbc; stroke-width: 0.8; stroke-linejoin: miter; stroke-linecap: square"/>
   </g>
   <g id="patch_12">
    <path d="M 100.8 242.888276 
L 987.84 242.888276 
" style="fill: none; stroke: #bcbcbc; stroke-width: 0.8; stroke-linejoin: miter; stroke-linecap: square"/>
   </g>
   <g id="patch_13">
    <path d="M 100.8 150.157241 
L 987.84 150.157241 
" style="fill: none; stroke: #bcbcbc; stroke-width: 0.8; stroke-linejoin: miter; stroke-linecap: square"/>
   </g>
  </g>
  <g id="axes_3">
   <g id="patch_14">
    <path d="M 100.8 354.165517 
L 987.84 354.165517 
L 987.84 261.434483 
L 100.8 261.434483 
z
" style="fill: #eeeeee"/>
   </g>
   <g id="matplotlib.axis_5">
    <g id="xtick_13">
     <g id="line2d_37">
      <path d="M 141.12 354.165517 
L 141.12 261.434483 
" clip-path="url(#p81a69a66d1)" style="fill: none; stroke-dasharray: 1.85,0.8; stroke-dashoffset: 0; stroke: #b2b2b2; stroke-width: 0.5"/>
     </g>
     <g id="line2d_38">
      <g>
       <use xlink:href="#m0c3151cbed" x="141.12" y="354.165517" style="stroke: #000000; stroke-width: 0.8"/>
      </g>
     </g>
    </g>
    <g id="xtick_14">
     <g id="line2d_39">
      <path d="M 302.4 354.165517 
L 302.4 261.434483 
" clip-path="url(#p81a69a66d1)" style="fill: none; stroke-dasharray: 1.85,0.8; stroke-dashoffset: 0; stroke: #b2b2b2; stroke-width: 0.5"/>
     </g>
     <g id="line2d_40">
      <g>
       <use xlink:href="#m0c3151cbed" x="302.4" y="354.165517" style="stroke: #000000; stroke-width: 0.8"/>
      </g>
     </g>
    </g>
    <g id="xtick_15">
     <g id="line2d_41">
      <path d="M 463.68 354.165517 
L 463.68 261.434483 
" clip-path="url(#p81a69a66d1)" style="fill: none; stroke-dasharray: 1.85,0.8; stroke-dashoffset: 0; stroke: #b2b2b2; stroke-width: 0.5"/>
     </g>
     <g id="line2d_42">
      <g>
       <use xlink:href="#m0c3151cbed" x="463.68" y="354.165517" style="stroke: #000000; stroke-width: 0.8"/>
      </g>
     </g>
    </g>
    <g id="xtick_16">
     <g id="line2d_43">
      <path d="M 624.96 354.165517 
L 624.96 261.434483 
" clip-path="url(#p81a69a66d1)" style="fill: none; stroke-dasharray: 1.85,0.8; stroke-dashoffset: 0; stroke: #b2b2b2; stroke-width: 0.5"/>
     </g>
     <g id="line2d_44">
      <g>
       <use xlink:href="#m0c3151cbed" x="624.96" y="354.165517" style="stroke: #000000; stroke-width: 0.8"/>
      </g>
     </g>
    </g>
    <g id="xtick_17">
     <g id="line2d_45">
      <path d="M 786.24 354.165517 
L 786.24 261.434483 
" clip-path="url(#p81a69a66d1)" style="fill: none; stroke-dasharray: 1.85,0.8; stroke-dashoffset: 0; stroke: #b2b2b2; stroke-width: 0.5"/>
     </g>
     <g id="line2d_46">
      <g>
       <use xlink:href="#m0c3151cbed" x="786.24" y="354.165517" style="stroke: #000000; stroke-width: 0.8"/>
      </g>
     </g>
    </g>
    <g id="xtick_18">
     <g id="line2d_47">
      <path d="M 947.52 354.165517 
L 947.52 261.434483 
" clip-path="url(#p81a69a66d1)" style="fill: none; stroke-dasharray: 1.85,0.8; stroke-dashoffset: 0; stroke: #b2b2b2; stroke-width: 0.5"/>
     </g>
     <g id="line2d_48">
      <g>
       <use xlink:href="#m0c3151cbed" x="947.52" y="354.165517" style="stroke: #000000; stroke-width: 0.8"/>
      </g>
     </g>
    </g>
   </g>
   <g id="matplotlib.axis_6">
    <g id="ytick_6">
     <g id="line2d_49">
      <path d="M 100.8 348.435941 
L 987.84 348.435941 
" clip-path="url(#p81a69a66d1)" style="fill: none; stroke-dasharray: 1.85,0.8; stroke-dashoffset: 0; stroke: #b2b2b2; stroke-width: 0.5"/>
     </g>
     <g id="line2d_50">
      <g>
       <use xlink:href="#mb1c98782a1" x="100.8" y="348.435941" style="stroke: #000000; stroke-width: 0.8"/>
      </g>
     </g>
     <g id="text_8">
      <!-- 0 V -->
      <g transform="translate(74.36625 353.754847) scale(0.14 -0.14)">
       <use xlink:href="#DejaVuSans-30"/>
       <use xlink:href="#DejaVuSans-20" x="63.623047"/>
       <use xlink:href="#DejaVuSans-56" x="95.410156"/>
      </g>
     </g>
    </g>
    <g id="ytick_7">
     <g id="line2d_51">
      <path d="M 100.8 305.479107 
L 987.84 305.479107 
" clip-path="url(#p81a69a66d1)" style="fill: none; stroke-dasharray: 1.85,0.8; stroke-dashoffset: 0; stroke: #b2b2b2; stroke-width: 0.5"/>
     </g>
     <g id="line2d_52">
      <g>
       <use xlink:href="#mb1c98782a1" x="100.8" y="305.479107" style="stroke: #000000; stroke-width: 0.8"/>
      </g>
     </g>
     <g id="text_9">
      <!-- 1 V -->
      <g transform="translate(74.36625 310.798013) scale(0.14 -0.14)">
       <use xlink:href="#DejaVuSans-31"/>
       <use xlink:href="#DejaVuSans-20" x="63.623047"/>
       <use xlink:href="#DejaVuSans-56" x="95.410156"/>
      </g>
     </g>
    </g>
    <g id="ytick_8">
     <g id="line2d_53">
      <path d="M 100.8 262.522272 
L 987.84 262.522272 
" clip-path="url(#p81a69a66d1)" style="fill: none; stroke-dasharray: 1.85,0.8; stroke-dashoffset: 0; stroke: #b2b2b2; stroke-width: 0.5"/>
     </g>
     <g id="line2d_54">
      <g>
       <use xlink:href="#mb1c98782a1" x="100.8" y="262.522272" style="stroke: #000000; stroke-width: 0.8"/>
      </g>
     </g>
     <g id="text_10">
      <!-- 2 V -->
      <g transform="translate(74.36625 267.841178) scale(0.14 -0.14)">
       <use xlink:href="#DejaVuSans-32"/>
       <use xlink:href="#DejaVuSans-20" x="63.623047"/>
       <use xlink:href="#DejaVuSans-56" x="95.410156"/>
      </g>
     </g>
    </g>
    <g id="text_11">
     <g id="patch_15">
      <path d="M 34.8768 342.395313 
L 34.8768 273.204688 
L 11.247425 273.204688 
L 11.247425 342.395313 
z
" style="fill: #ffff00; opacity: 0.2; stroke: #eeeeee; stroke-width: 0.5; stroke-linejoin: miter"/>
     </g>
     <!-- CLK BUF -->
     <g transform="translate(26.925238 337.355313) rotate(-90) scale(0.14 -0.14)">
      <defs>
       <path id="DejaVuSans-43" d="M 4122 4306 
L 4122 3641 
Q 3803 3938 3442 4084 
Q 3081 4231 2675 4231 
Q 1875 4231 1450 3742 
Q 1025 3253 1025 2328 
Q 1025 1406 1450 917 
Q 1875 428 2675 428 
Q 3081 428 3442 575 
Q 3803 722 4122 1019 
L 4122 359 
Q 3791 134 3420 21 
Q 3050 -91 2638 -91 
Q 1578 -91 968 557 
Q 359 1206 359 2328 
Q 359 3453 968 4101 
Q 1578 4750 2638 4750 
Q 3056 4750 3426 4639 
Q 3797 4528 4122 4306 
z
" transform="scale(0.015625)"/>
       <path id="DejaVuSans-4b" d="M 628 4666 
L 1259 4666 
L 1259 2694 
L 3353 4666 
L 4166 4666 
L 1850 2491 
L 4331 0 
L 3500 0 
L 1259 2247 
L 1259 0 
L 628 0 
L 628 4666 
z
" transform="scale(0.015625)"/>
      </defs>
      <use xlink:href="#DejaVuSans-43"/>
      <use xlink:href="#DejaVuSans-4c" x="69.824219"/>
      <use xlink:href="#DejaVuSans-4b" x="125.537109"/>
      <use xlink:href="#DejaVuSans-20" x="191.113281"/>
      <use xlink:href="#DejaVuSans-42" x="222.900391"/>
      <use xlink:href="#DejaVuSans-55" x="291.503906"/>
      <use xlink:href="#DejaVuSans-46" x="364.697266"/>
     </g>
    </g>
   </g>
   <g id="line2d_55">
    <path d="M 141.12 348.434805 
L 173.376 348.434805 
L 173.601792 296.88774 
L 213.696 296.88774 
L 213.760512 338.005592 
L 213.825024 348.416316 
L 213.889536 348.354499 
L 213.954048 348.526108 
L 214.01856 348.440596 
L 215.373312 348.431155 
L 223.469568 348.434755 
L 254.016 348.434776 
L 254.17728 296.728799 
L 254.241792 297.003723 
L 254.403072 296.879148 
L 254.854656 296.88774 
L 294.336 296.88774 
L 294.400512 337.969508 
L 294.465024 348.756489 
L 294.529536 348.009629 
L 294.626304 348.503448 
L 294.65856 348.47288 
L 294.852096 348.397377 
L 295.206912 348.451573 
L 295.497216 348.434471 
L 320.721408 348.434804 
L 334.656 348.434807 
L 334.81728 296.810417 
L 334.881792 296.904923 
L 335.204352 296.892035 
L 336.075264 296.88774 
L 374.976 296.88774 
L 375.040512 338.009458 
L 375.105024 348.436638 
L 375.169536 348.349052 
L 375.234048 348.519716 
L 375.29856 348.440739 
L 376.717824 348.430798 
L 385.072128 348.434742 
L 408.909312 348.515583 
L 409.586688 349.163372 
L 410.360832 349.568842 
L 411.42528 349.830921 
L 412.812288 349.940032 
L 415.296 349.924009 
L 415.45728 307.790614 
L 415.521792 307.999814 
L 417.973248 312.087586 
L 421.521408 317.594652 
L 424.876032 322.400233 
L 425.327616 323.024826 
L 427.166208 325.358671 
L 428.069376 326.306298 
L 428.101632 326.219096 
L 428.133888 326.339805 
L 429.101568 327.256503 
L 431.036928 328.864378 
L 434.6496 331.333966 
L 434.97216 331.155266 
L 436.778496 330.361423 
L 436.939776 330.303861 
L 437.971968 329.903074 
L 438.004224 329.930566 
L 438.03648 329.856251 
L 438.19776 329.806851 
L 438.262272 329.72781 
L 438.294528 329.811146 
L 438.488064 329.701177 
L 439.036416 329.512596 
L 439.778304 329.202448 
L 440.100864 329.118253 
L 445.681152 327.149971 
L 445.810176 327.013797 
L 445.9392 327.062768 
L 446.197248 326.907264 
L 446.229504 326.948503 
L 446.42304 326.899103 
L 452.745216 324.738803 
L 453.164544 324.585018 
L 454.8096 323.833273 
L 455.616 323.364614 
L 455.680512 321.3087 
L 455.93856 348.0099 
L 456.003072 348.00517 
L 466.42176 347.941809 
L 466.873344 347.953321 
L 473.389056 347.974542 
L 474.098688 347.290454 
L 474.872832 346.891815 
L 475.872768 346.64971 
L 477.324288 346.547215 
L 480.001536 346.597646 
L 494.581248 346.992334 
L 495.936 347.011793 
L 495.968256 338.040817 
L 496.09728 270.383373 
L 497.452032 268.25701 
L 498.742272 266.362613 
L 499.193856 265.774105 
L 500.645376 265.688191 
L 503.064576 266.444231 
L 504.548352 267.110062 
L 506.515968 268.012156 
L 506.935296 268.205461 
L 508.548096 268.940023 
L 510.838272 269.970987 
L 512.128512 270.533722 
L 519.257088 273.497743 
L 519.837696 273.824215 
L 522.095616 275.14299 
L 522.514944 275.387844 
L 531.998208 280.314993 
L 534.707712 281.513489 
L 535.643136 281.887213 
L 536.256 282.157841 
L 536.449536 348.877924 
L 536.481792 348.786765 
L 537.836544 348.774278 
L 546.25536 348.723984 
L 576.576 348.551276 
L 576.705024 292.287063 
L 576.801792 292.67797 
L 577.70496 292.776771 
L 577.995264 292.806841 
L 578.769408 292.905641 
L 579.253248 292.982964 
L 580.156416 293.090356 
L 580.414464 293.111834 
L 581.220864 293.219226 
L 581.478912 293.240705 
L 582.38208 293.348097 
L 582.640128 293.369575 
L 583.543296 293.476967 
L 583.801344 293.498446 
L 584.704512 293.605838 
L 584.96256 293.627316 
L 585.962496 293.734708 
L 586.220544 293.756187 
L 587.317248 293.863579 
L 587.575296 293.885057 
L 588.672 293.992449 
L 588.930048 294.013928 
L 590.12352 294.12132 
L 590.381568 294.142798 
L 591.57504 294.25019 
L 591.833088 294.271669 
L 593.220096 294.379061 
L 593.478144 294.400539 
L 594.865152 294.507931 
L 595.1232 294.52941 
L 596.606976 294.636802 
L 596.865024 294.653984 
L 598.413312 294.752785 
L 598.768128 294.782855 
L 600.348672 294.881656 
L 600.703488 294.911725 
L 602.477568 295.010526 
L 602.832384 295.040596 
L 604.703232 295.139397 
L 605.058048 295.169466 
L 607.122432 295.268267 
L 607.477248 295.298337 
L 609.735168 295.397138 
L 610.089984 295.427207 
L 612.638208 295.526008 
L 612.993024 295.556078 
L 615.734784 295.654879 
L 616.0896 295.684948 
L 616.896 295.697835 
L 616.928256 300.264147 
L 617.05728 348.416196 
L 617.21856 348.467175 
L 655.248384 348.447107 
L 657.216 348.447107 
L 657.37728 296.234796 
L 657.441792 296.720208 
L 657.53856 296.277753 
L 657.603072 296.440989 
L 658.086912 296.458171 
L 697.536 296.458171 
L 697.665024 348.764196 
L 697.826304 348.51417 
L 698.084352 348.418405 
L 698.439168 348.465167 
L 698.761728 348.446883 
L 736.759296 348.447106 
L 737.856 348.447107 
L 738.01728 296.234796 
L 738.081792 296.720208 
L 738.17856 296.277753 
L 738.243072 296.440989 
L 738.726912 296.458171 
L 778.176 296.458171 
L 778.305024 348.763955 
L 778.466304 348.51417 
L 778.724352 348.418414 
L 779.079168 348.465145 
L 779.401728 348.446882 
L 817.592832 348.447107 
L 818.496 348.447107 
L 818.65728 296.234796 
L 818.721792 296.720208 
L 818.81856 296.277753 
L 818.883072 296.440989 
L 819.366912 296.458171 
L 858.816 296.458171 
L 858.945024 348.764136 
L 859.106304 348.514127 
L 859.364352 348.418423 
L 859.719168 348.465157 
L 860.041728 348.446883 
L 898.039296 348.447106 
L 899.136 348.447107 
L 899.29728 296.234796 
L 899.361792 296.720208 
L 899.45856 296.277753 
L 899.523072 296.440989 
L 900.006912 296.458171 
L 939.456 296.458171 
L 939.488256 304.203289 
L 939.61728 348.396018 
L 939.649536 348.520931 
L 939.714048 348.401418 
L 939.746304 348.363722 
L 939.810816 348.419168 
L 940.004352 348.472815 
L 940.230144 348.445743 
L 945.649152 348.447111 
L 947.52 348.447097 
L 947.52 348.447097 
" clip-path="url(#p81a69a66d1)" style="fill: none; stroke: #0000ff; stroke-width: 2; stroke-linecap: square"/>
   </g>
   <g id="patch_16">
    <path d="M 100.8 354.165517 
L 100.8 261.434483 
" style="fill: none; stroke: #bcbcbc; stroke-width: 0.8; stroke-linejoin: miter; stroke-linecap: square"/>
   </g>
   <g id="patch_17">
    <path d="M 987.84 354.165517 
L 987.84 261.434483 
" style="fill: none; stroke: #bcbcbc; stroke-width: 0.8; stroke-linejoin: miter; stroke-linecap: square"/>
   </g>
   <g id="patch_18">
    <path d="M 100.8 354.165517 
L 987.84 354.165517 
" style="fill: none; stroke: #bcbcbc; stroke-width: 0.8; stroke-linejoin: miter; stroke-linecap: square"/>
   </g>
   <g id="patch_19">
    <path d="M 100.8 261.434483 
L 987.84 261.434483 
" style="fill: none; stroke: #bcbcbc; stroke-width: 0.8; stroke-linejoin: miter; stroke-linecap: square"/>
   </g>
  </g>
  <g id="axes_4">
   <g id="patch_20">
    <path d="M 100.8 465.442759 
L 987.84 465.442759 
L 987.84 372.711724 
L 100.8 372.711724 
z
" style="fill: #eeeeee"/>
   </g>
   <g id="matplotlib.axis_7">
    <g id="xtick_19">
     <g id="line2d_56">
      <path d="M 141.12 465.442759 
L 141.12 372.711724 
" clip-path="url(#p77302beb29)" style="fill: none; stroke-dasharray: 1.85,0.8; stroke-dashoffset: 0; stroke: #b2b2b2; stroke-width: 0.5"/>
     </g>
     <g id="line2d_57">
      <g>
       <use xlink:href="#m0c3151cbed" x="141.12" y="465.442759" style="stroke: #000000; stroke-width: 0.8"/>
      </g>
     </g>
    </g>
    <g id="xtick_20">
     <g id="line2d_58">
      <path d="M 302.4 465.442759 
L 302.4 372.711724 
" clip-path="url(#p77302beb29)" style="fill: none; stroke-dasharray: 1.85,0.8; stroke-dashoffset: 0; stroke: #b2b2b2; stroke-width: 0.5"/>
     </g>
     <g id="line2d_59">
      <g>
       <use xlink:href="#m0c3151cbed" x="302.4" y="465.442759" style="stroke: #000000; stroke-width: 0.8"/>
      </g>
     </g>
    </g>
    <g id="xtick_21">
     <g id="line2d_60">
      <path d="M 463.68 465.442759 
L 463.68 372.711724 
" clip-path="url(#p77302beb29)" style="fill: none; stroke-dasharray: 1.85,0.8; stroke-dashoffset: 0; stroke: #b2b2b2; stroke-width: 0.5"/>
     </g>
     <g id="line2d_61">
      <g>
       <use xlink:href="#m0c3151cbed" x="463.68" y="465.442759" style="stroke: #000000; stroke-width: 0.8"/>
      </g>
     </g>
    </g>
    <g id="xtick_22">
     <g id="line2d_62">
      <path d="M 624.96 465.442759 
L 624.96 372.711724 
" clip-path="url(#p77302beb29)" style="fill: none; stroke-dasharray: 1.85,0.8; stroke-dashoffset: 0; stroke: #b2b2b2; stroke-width: 0.5"/>
     </g>
     <g id="line2d_63">
      <g>
       <use xlink:href="#m0c3151cbed" x="624.96" y="465.442759" style="stroke: #000000; stroke-width: 0.8"/>
      </g>
     </g>
    </g>
    <g id="xtick_23">
     <g id="line2d_64">
      <path d="M 786.24 465.442759 
L 786.24 372.711724 
" clip-path="url(#p77302beb29)" style="fill: none; stroke-dasharray: 1.85,0.8; stroke-dashoffset: 0; stroke: #b2b2b2; stroke-width: 0.5"/>
     </g>
     <g id="line2d_65">
      <g>
       <use xlink:href="#m0c3151cbed" x="786.24" y="465.442759" style="stroke: #000000; stroke-width: 0.8"/>
      </g>
     </g>
    </g>
    <g id="xtick_24">
     <g id="line2d_66">
      <path d="M 947.52 465.442759 
L 947.52 372.711724 
" clip-path="url(#p77302beb29)" style="fill: none; stroke-dasharray: 1.85,0.8; stroke-dashoffset: 0; stroke: #b2b2b2; stroke-width: 0.5"/>
     </g>
     <g id="line2d_67">
      <g>
       <use xlink:href="#m0c3151cbed" x="947.52" y="465.442759" style="stroke: #000000; stroke-width: 0.8"/>
      </g>
     </g>
    </g>
   </g>
   <g id="matplotlib.axis_8">
    <g id="ytick_9">
     <g id="line2d_68">
      <path d="M 100.8 441.121049 
L 987.84 441.121049 
" clip-path="url(#p77302beb29)" style="fill: none; stroke-dasharray: 1.85,0.8; stroke-dashoffset: 0; stroke: #b2b2b2; stroke-width: 0.5"/>
     </g>
     <g id="line2d_69">
      <g>
       <use xlink:href="#mb1c98782a1" x="100.8" y="441.121049" style="stroke: #000000; stroke-width: 0.8"/>
      </g>
     </g>
     <g id="text_12">
      <!-- 0 V -->
      <g transform="translate(74.36625 446.439955) scale(0.14 -0.14)">
       <use xlink:href="#DejaVuSans-30"/>
       <use xlink:href="#DejaVuSans-20" x="63.623047"/>
       <use xlink:href="#DejaVuSans-56" x="95.410156"/>
      </g>
     </g>
    </g>
    <g id="ytick_10">
     <g id="line2d_70">
      <path d="M 100.8 405.976913 
L 987.84 405.976913 
" clip-path="url(#p77302beb29)" style="fill: none; stroke-dasharray: 1.85,0.8; stroke-dashoffset: 0; stroke: #b2b2b2; stroke-width: 0.5"/>
     </g>
     <g id="line2d_71">
      <g>
       <use xlink:href="#mb1c98782a1" x="100.8" y="405.976913" style="stroke: #000000; stroke-width: 0.8"/>
      </g>
     </g>
     <g id="text_13">
      <!-- 1 V -->
      <g transform="translate(74.36625 411.29582) scale(0.14 -0.14)">
       <use xlink:href="#DejaVuSans-31"/>
       <use xlink:href="#DejaVuSans-20" x="63.623047"/>
       <use xlink:href="#DejaVuSans-56" x="95.410156"/>
      </g>
     </g>
    </g>
    <g id="text_14">
     <g id="patch_21">
      <path d="M 34.8768 454.693023 
L 34.8768 383.46146 
L 11.247425 383.46146 
L 11.247425 454.693023 
z
" style="fill: #ffff00; opacity: 0.2; stroke: #eeeeee; stroke-width: 0.5; stroke-linejoin: miter"/>
     </g>
     <!-- DFF OUT -->
     <g transform="translate(26.925238 449.653023) rotate(-90) scale(0.14 -0.14)">
      <defs>
       <path id="DejaVuSans-4f" d="M 2522 4238 
Q 1834 4238 1429 3725 
Q 1025 3213 1025 2328 
Q 1025 1447 1429 934 
Q 1834 422 2522 422 
Q 3209 422 3611 934 
Q 4013 1447 4013 2328 
Q 4013 3213 3611 3725 
Q 3209 4238 2522 4238 
z
M 2522 4750 
Q 3503 4750 4090 4092 
Q 4678 3434 4678 2328 
Q 4678 1225 4090 567 
Q 3503 -91 2522 -91 
Q 1538 -91 948 565 
Q 359 1222 359 2328 
Q 359 3434 948 4092 
Q 1538 4750 2522 4750 
z
" transform="scale(0.015625)"/>
       <path id="DejaVuSans-54" d="M -19 4666 
L 3928 4666 
L 3928 4134 
L 2272 4134 
L 2272 0 
L 1638 0 
L 1638 4134 
L -19 4134 
L -19 4666 
z
" transform="scale(0.015625)"/>
      </defs>
      <use xlink:href="#DejaVuSans-44"/>
      <use xlink:href="#DejaVuSans-46" x="77.001953"/>
      <use xlink:href="#DejaVuSans-46" x="134.521484"/>
      <use xlink:href="#DejaVuSans-20" x="192.041016"/>
      <use xlink:href="#DejaVuSans-4f" x="223.828125"/>
      <use xlink:href="#DejaVuSans-55" x="302.539062"/>
      <use xlink:href="#DejaVuSans-54" x="375.732422"/>
     </g>
    </g>
   </g>
   <g id="line2d_72">
    <path d="M 141.12 414.603744 
L 173.408256 414.64662 
L 173.440512 416.101587 
L 173.601792 441.123194 
L 174.1824 441.119735 
L 185.697792 441.120107 
L 254.048256 441.121584 
L 254.080512 441.262075 
L 254.112768 441.029685 
L 254.306304 437.598552 
L 254.628864 436.810269 
L 254.693376 436.420169 
L 255.14496 430.262917 
L 255.370752 415.791265 
L 255.596544 399.288985 
L 255.757824 399.000803 
L 255.983616 398.944572 
L 257.015808 398.948086 
L 295.755264 399.018375 
L 296.239104 401.2922 
L 296.59392 400.722865 
L 297.980928 399.229239 
L 299.65824 398.972687 
L 334.688256 398.962144 
L 334.720512 398.860226 
L 334.752768 399.376845 
L 334.785024 401.931823 
L 334.914048 441.106643 
L 334.97856 441.075713 
L 335.13984 441.113683 
L 335.559168 441.120335 
L 370.976256 441.12008 
L 408.941568 441.216971 
L 409.618944 441.734455 
L 410.489856 442.08558 
L 411.58656 442.280384 
L 413.425152 442.358825 
L 415.360512 442.414599 
L 415.392768 442.488121 
L 415.650816 439.479958 
L 416.037888 438.936068 
L 416.392704 438.215753 
L 416.618496 437.435835 
L 417.037824 434.376538 
L 417.360384 429.67601 
L 417.682944 419.698238 
L 417.908736 413.213091 
L 418.03776 413.427119 
L 418.68288 415.535064 
L 418.973184 416.644916 
L 421.069824 425.263664 
L 421.166592 425.653412 
L 421.198848 425.525839 
L 421.231104 425.397914 
L 421.26336 425.459416 
L 421.456896 426.883808 
L 424.069632 437.482928 
L 424.9728 440.646884 
L 425.005056 440.236436 
L 425.069568 440.476435 
L 425.13408 440.830677 
L 425.29536 441.81613 
L 425.682432 443.134773 
L 425.714688 442.737293 
L 425.7792 443.146476 
L 425.811456 443.103389 
L 425.972736 444.107246 
L 426.295296 444.980578 
L 426.327552 444.91521 
L 426.359808 444.908532 
L 426.392064 445.218504 
L 426.488832 445.134509 
L 426.650112 445.417771 
L 427.392 447.458942 
L 427.779072 448.165339 
L 427.811328 447.960449 
L 427.87584 448.112623 
L 428.004864 448.257066 
L 428.295168 448.826752 
L 428.456448 449.24813 
L 429.230592 451.161025 
L 430.45632 453.429228 
L 430.746624 453.995751 
L 430.875648 454.469846 
L 430.907904 454.339461 
L 430.972416 454.461763 
L 432.811008 457.934003 
L 433.133568 458.515287 
L 433.262592 458.861808 
L 433.294848 458.797143 
L 434.714112 461.227712 
L 434.875392 461.141608 
L 435.101184 460.71777 
L 435.326976 460.439077 
L 435.456 459.716162 
L 435.520512 459.980446 
L 435.61728 459.987124 
L 436.036608 459.084271 
L 436.74624 457.893939 
L 436.778496 457.637387 
L 436.810752 458.089692 
L 436.843008 458.014835 
L 437.036544 457.714352 
L 437.971968 456.499068 
L 438.004224 456.649837 
L 438.03648 456.469547 
L 438.19776 456.24111 
L 438.230016 456.39223 
L 438.262272 456.163793 
L 438.294528 456.322996 
L 438.52032 455.940979 
L 439.262208 455.193815 
L 439.64928 454.732021 
L 439.681536 454.873652 
L 439.713792 454.668059 
L 439.875072 454.488121 
L 439.907328 454.669464 
L 439.939584 454.51975 
L 440.100864 454.247032 
L 440.77824 453.692106 
L 440.842752 453.635173 
L 441.036288 453.44926 
L 442.132992 452.574523 
L 442.262016 452.184071 
L 442.294272 452.289152 
L 442.326528 452.139438 
L 442.520064 451.889563 
L 442.55232 451.892023 
L 442.616832 451.818924 
L 442.649088 452.080747 
L 442.810368 451.615088 
L 442.87488 451.833333 
L 442.907136 451.53285 
L 443.068416 451.590838 
L 443.229696 451.303008 
L 443.423232 451.168757 
L 443.455488 451.359941 
L 443.52 451.175083 
L 443.745792 451.073868 
L 443.907072 450.932589 
L 444.16512 450.749839 
L 444.552192 450.413158 
L 444.777984 449.9236 
L 444.874752 449.790053 
L 444.907008 450.035007 
L 444.97152 449.68462 
L 445.003776 449.917626 
L 445.068288 449.593948 
L 445.229568 449.480784 
L 445.261824 449.740148 
L 445.326336 449.386598 
L 445.390848 449.458995 
L 445.487616 449.53104 
L 445.519872 449.187331 
L 445.61664 449.093145 
L 445.648896 449.393275 
L 445.810176 448.903366 
L 445.842432 448.909692 
L 445.9392 448.981738 
L 445.971456 448.938159 
L 446.003712 448.765953 
L 446.068224 448.961003 
L 446.10048 448.817615 
L 446.164992 448.798988 
L 446.294016 448.625025 
L 447.003648 448.256011 
L 448.100352 447.302551 
L 448.229376 447.180601 
L 448.390656 446.681905 
L 448.422912 446.616889 
L 448.455168 446.860438 
L 448.51968 446.531137 
L 448.551936 446.715644 
L 448.584192 446.48545 
L 448.616448 446.621809 
L 448.648704 446.582096 
L 448.68096 446.738487 
L 448.713216 446.411647 
L 448.777728 446.551521 
L 448.809984 446.339602 
L 448.84224 446.34663 
L 448.874496 446.666793 
L 448.939008 446.620403 
L 449.00352 446.234169 
L 449.035776 446.241549 
L 449.068032 446.507239 
L 449.100288 446.180047 
L 449.132544 446.189536 
L 449.197056 446.156501 
L 449.261568 446.369123 
L 449.390592 446.132251 
L 449.64864 446.055285 
L 449.906688 445.891514 
L 450.842112 444.988661 
L 451.003392 444.542928 
L 451.164672 444.39592 
L 451.196928 444.729649 
L 451.26144 444.311996 
L 451.325952 444.241321 
L 451.390464 444.64706 
L 451.519488 444.070274 
L 451.713024 443.991973 
L 451.74528 444.170224 
L 451.777536 443.996647 
L 451.842048 444.108546 
L 451.90656 443.790879 
L 452.164608 443.823703 
L 452.196864 443.656523 
L 452.22912 443.892023 
L 452.293632 443.708325 
L 452.325888 443.86679 
L 452.358144 443.67188 
L 452.3904 443.67666 
L 452.422656 443.760725 
L 452.487168 443.626685 
L 452.519424 443.711101 
L 453.51936 442.896003 
L 454.067712 442.286007 
L 454.196736 441.931965 
L 454.228992 442.116577 
L 454.261248 442.130388 
L 454.293504 441.482295 
L 454.390272 441.547769 
L 454.422528 441.802705 
L 454.454784 441.632642 
L 454.519296 441.218595 
L 454.583808 441.422118 
L 454.712832 441.089532 
L 454.777344 441.132674 
L 455.099904 440.917476 
L 455.77728 439.847671 
L 455.809536 439.334954 
L 455.874048 439.635471 
L 456.003072 439.220103 
L 456.035328 439.255141 
L 456.132096 438.817737 
L 456.164352 438.898147 
L 456.228864 439.084692 
L 456.293376 438.785018 
L 456.357888 438.830881 
L 456.486912 438.728155 
L 457.293312 437.342351 
L 457.422336 436.593781 
L 457.486848 437.019377 
L 457.55136 436.688671 
L 457.615872 436.454611 
L 457.680384 436.527007 
L 457.71264 436.694294 
L 457.744896 436.479563 
L 457.777152 436.490106 
L 457.938432 436.255695 
L 458.938368 434.640119 
L 458.970624 434.044777 
L 459.067392 434.259859 
L 459.260928 433.999441 
L 461.74464 429.760004 
L 461.809152 429.268689 
L 461.873664 429.350224 
L 461.970432 429.391342 
L 462.002688 429.356198 
L 463.228416 427.087293 
L 463.260672 426.646937 
L 463.35744 426.74042 
L 463.421952 426.783647 
L 463.454208 426.731634 
L 464.615424 424.708035 
L 464.64768 424.11445 
L 464.712192 424.592762 
L 464.841216 424.204068 
L 464.905728 424.303526 
L 464.937984 424.267327 
L 465.808896 422.786353 
L 467.776512 419.924215 
L 467.808768 419.959008 
L 468.292608 419.258937 
L 469.131264 418.041895 
L 469.80864 417.356936 
L 470.066688 417.034664 
L 470.421504 416.491687 
L 470.61504 416.106156 
L 471.356928 415.30241 
L 472.002048 414.788603 
L 472.453632 414.186583 
L 472.743936 413.640795 
L 473.260032 413.236286 
L 473.485824 413.091492 
L 474.582528 410.375202 
L 478.67904 403.05995 
L 480.77568 399.401446 
L 481.485312 398.21006 
L 482.614272 396.343906 
L 483.581952 394.790535 
L 484.388352 393.521832 
L 485.93664 391.149603 
L 486.549504 390.242884 
L 491.839488 382.936418 
L 492.774912 381.755575 
L 494.226432 379.738302 
L 494.80704 378.947559 
L 495.968256 377.369587 
L 496.000512 377.429332 
L 496.032768 376.926771 
L 496.290816 439.983644 
L 496.323072 439.970535 
L 499.064832 440.047993 
L 499.258368 440.163723 
L 499.935744 440.694329 
L 500.7744 441.057181 
L 501.935616 441.295167 
L 503.83872 441.422526 
L 508.548096 441.447127 
L 521.127936 441.526612 
L 527.611392 441.486513 
L 568.02816 441.245241 
L 576.608256 441.20919 
L 576.640512 441.456324 
L 576.672768 440.861126 
L 576.834048 437.041166 
L 577.350144 434.414142 
L 577.511424 431.032222 
L 577.70496 420.382495 
L 578.092032 395.641023 
L 578.704896 395.683196 
L 579.704832 395.788629 
L 580.704768 395.894061 
L 581.930496 395.999493 
L 582.930432 396.104926 
L 584.252928 396.210358 
L 585.091584 396.280647 
L 586.381824 396.386079 
L 587.22048 396.456367 
L 588.607488 396.5618 
L 589.446144 396.632088 
L 591.026688 396.73752 
L 591.865344 396.807809 
L 593.639424 396.913241 
L 594.47808 396.983529 
L 596.542464 397.088962 
L 597.38112 397.15925 
L 599.63904 397.264682 
L 600.44544 397.331456 
L 603.122688 397.440403 
L 603.800064 397.475547 
L 604.509696 397.507177 
L 607.090176 397.616124 
L 607.735296 397.647753 
L 610.670592 397.753186 
L 611.122176 397.78833 
L 614.63808 397.893762 
L 615.089664 397.928906 
L 616.992768 397.992166 
L 617.121792 398.002709 
L 621.798912 398.104627 
L 622.250496 398.143286 
L 627.604992 398.245204 
L 628.056576 398.280348 
L 634.765824 398.38578 
L 635.217408 398.420924 
L 644.15232 398.526357 
L 644.603904 398.565015 
L 657.248256 398.593131 
L 657.280512 398.772366 
L 657.345024 398.593131 
L 657.53856 398.575559 
L 658.732032 398.596645 
L 737.888256 398.593131 
L 737.920512 398.772366 
L 737.985024 398.593131 
L 738.17856 398.575559 
L 739.372032 398.596645 
L 818.528256 398.593131 
L 818.560512 398.772366 
L 818.625024 398.593131 
L 818.81856 398.575559 
L 820.012032 398.596645 
L 899.168256 398.593131 
L 899.200512 398.772366 
L 899.265024 398.593131 
L 899.45856 398.575559 
L 900.652032 398.596645 
L 947.52 398.596645 
L 947.52 398.596645 
" clip-path="url(#p77302beb29)" style="fill: none; stroke: #ff00ff; stroke-width: 2; stroke-linecap: square"/>
   </g>
   <g id="patch_22">
    <path d="M 100.8 465.442759 
L 100.8 372.711724 
" style="fill: none; stroke: #bcbcbc; stroke-width: 0.8; stroke-linejoin: miter; stroke-linecap: square"/>
   </g>
   <g id="patch_23">
    <path d="M 987.84 465.442759 
L 987.84 372.711724 
" style="fill: none; stroke: #bcbcbc; stroke-width: 0.8; stroke-linejoin: miter; stroke-linecap: square"/>
   </g>
   <g id="patch_24">
    <path d="M 100.8 465.442759 
L 987.84 465.442759 
" style="fill: none; stroke: #bcbcbc; stroke-width: 0.8; stroke-linejoin: miter; stroke-linecap: square"/>
   </g>
   <g id="patch_25">
    <path d="M 100.8 372.711724 
L 987.84 372.711724 
" style="fill: none; stroke: #bcbcbc; stroke-width: 0.8; stroke-linejoin: miter; stroke-linecap: square"/>
   </g>
  </g>
  <g id="axes_5">
   <g id="patch_26">
    <path d="M 100.8 576.72 
L 987.84 576.72 
L 987.84 483.988966 
L 100.8 483.988966 
z
" style="fill: #eeeeee"/>
   </g>
   <g id="matplotlib.axis_9">
    <g id="xtick_25">
     <g id="line2d_73">
      <path d="M 141.12 576.72 
L 141.12 483.988966 
" clip-path="url(#pdf62605988)" style="fill: none; stroke-dasharray: 1.85,0.8; stroke-dashoffset: 0; stroke: #b2b2b2; stroke-width: 0.5"/>
     </g>
     <g id="line2d_74">
      <g>
       <use xlink:href="#m0c3151cbed" x="141.12" y="576.72" style="stroke: #000000; stroke-width: 0.8"/>
      </g>
     </g>
     <g id="text_15">
      <!-- 0 s -->
      <g transform="translate(130.795 590.857813) scale(0.14 -0.14)">
       <defs>
        <path id="DejaVuSans-73" d="M 2834 3397 
L 2834 2853 
Q 2591 2978 2328 3040 
Q 2066 3103 1784 3103 
Q 1356 3103 1142 2972 
Q 928 2841 928 2578 
Q 928 2378 1081 2264 
Q 1234 2150 1697 2047 
L 1894 2003 
Q 2506 1872 2764 1633 
Q 3022 1394 3022 966 
Q 3022 478 2636 193 
Q 2250 -91 1575 -91 
Q 1294 -91 989 -36 
Q 684 19 347 128 
L 347 722 
Q 666 556 975 473 
Q 1284 391 1588 391 
Q 1994 391 2212 530 
Q 2431 669 2431 922 
Q 2431 1156 2273 1281 
Q 2116 1406 1581 1522 
L 1381 1569 
Q 847 1681 609 1914 
Q 372 2147 372 2553 
Q 372 3047 722 3315 
Q 1072 3584 1716 3584 
Q 2034 3584 2315 3537 
Q 2597 3491 2834 3397 
z
" transform="scale(0.015625)"/>
       </defs>
       <use xlink:href="#DejaVuSans-30"/>
       <use xlink:href="#DejaVuSans-20" x="63.623047"/>
       <use xlink:href="#DejaVuSans-73" x="95.410156"/>
      </g>
     </g>
    </g>
    <g id="xtick_26">
     <g id="line2d_75">
      <path d="M 302.4 576.72 
L 302.4 483.988966 
" clip-path="url(#pdf62605988)" style="fill: none; stroke-dasharray: 1.85,0.8; stroke-dashoffset: 0; stroke: #b2b2b2; stroke-width: 0.5"/>
     </g>
     <g id="line2d_76">
      <g>
       <use xlink:href="#m0c3151cbed" x="302.4" y="576.72" style="stroke: #000000; stroke-width: 0.8"/>
      </g>
     </g>
     <g id="text_16">
      <!-- 50 ns -->
      <g transform="translate(283.185 590.857813) scale(0.14 -0.14)">
       <defs>
        <path id="DejaVuSans-35" d="M 691 4666 
L 3169 4666 
L 3169 4134 
L 1269 4134 
L 1269 2991 
Q 1406 3038 1543 3061 
Q 1681 3084 1819 3084 
Q 2600 3084 3056 2656 
Q 3513 2228 3513 1497 
Q 3513 744 3044 326 
Q 2575 -91 1722 -91 
Q 1428 -91 1123 -41 
Q 819 9 494 109 
L 494 744 
Q 775 591 1075 516 
Q 1375 441 1709 441 
Q 2250 441 2565 725 
Q 2881 1009 2881 1497 
Q 2881 1984 2565 2268 
Q 2250 2553 1709 2553 
Q 1456 2553 1204 2497 
Q 953 2441 691 2322 
L 691 4666 
z
" transform="scale(0.015625)"/>
        <path id="DejaVuSans-6e" d="M 3513 2113 
L 3513 0 
L 2938 0 
L 2938 2094 
Q 2938 2591 2744 2837 
Q 2550 3084 2163 3084 
Q 1697 3084 1428 2787 
Q 1159 2491 1159 1978 
L 1159 0 
L 581 0 
L 581 3500 
L 1159 3500 
L 1159 2956 
Q 1366 3272 1645 3428 
Q 1925 3584 2291 3584 
Q 2894 3584 3203 3211 
Q 3513 2838 3513 2113 
z
" transform="scale(0.015625)"/>
       </defs>
       <use xlink:href="#DejaVuSans-35"/>
       <use xlink:href="#DejaVuSans-30" x="63.623047"/>
       <use xlink:href="#DejaVuSans-20" x="127.246094"/>
       <use xlink:href="#DejaVuSans-6e" x="159.033203"/>
       <use xlink:href="#DejaVuSans-73" x="222.412109"/>
      </g>
     </g>
    </g>
    <g id="xtick_27">
     <g id="line2d_77">
      <path d="M 463.68 576.72 
L 463.68 483.988966 
" clip-path="url(#pdf62605988)" style="fill: none; stroke-dasharray: 1.85,0.8; stroke-dashoffset: 0; stroke: #b2b2b2; stroke-width: 0.5"/>
     </g>
     <g id="line2d_78">
      <g>
       <use xlink:href="#m0c3151cbed" x="463.68" y="576.72" style="stroke: #000000; stroke-width: 0.8"/>
      </g>
     </g>
     <g id="text_17">
      <!-- 100 ns -->
      <g transform="translate(440.01125 590.857813) scale(0.14 -0.14)">
       <use xlink:href="#DejaVuSans-31"/>
       <use xlink:href="#DejaVuSans-30" x="63.623047"/>
       <use xlink:href="#DejaVuSans-30" x="127.246094"/>
       <use xlink:href="#DejaVuSans-20" x="190.869141"/>
       <use xlink:href="#DejaVuSans-6e" x="222.65625"/>
       <use xlink:href="#DejaVuSans-73" x="286.035156"/>
      </g>
     </g>
    </g>
    <g id="xtick_28">
     <g id="line2d_79">
      <path d="M 624.96 576.72 
L 624.96 483.988966 
" clip-path="url(#pdf62605988)" style="fill: none; stroke-dasharray: 1.85,0.8; stroke-dashoffset: 0; stroke: #b2b2b2; stroke-width: 0.5"/>
     </g>
     <g id="line2d_80">
      <g>
       <use xlink:href="#m0c3151cbed" x="624.96" y="576.72" style="stroke: #000000; stroke-width: 0.8"/>
      </g>
     </g>
     <g id="text_18">
      <!-- 150 ns -->
      <g transform="translate(601.29125 590.857813) scale(0.14 -0.14)">
       <use xlink:href="#DejaVuSans-31"/>
       <use xlink:href="#DejaVuSans-35" x="63.623047"/>
       <use xlink:href="#DejaVuSans-30" x="127.246094"/>
       <use xlink:href="#DejaVuSans-20" x="190.869141"/>
       <use xlink:href="#DejaVuSans-6e" x="222.65625"/>
       <use xlink:href="#DejaVuSans-73" x="286.035156"/>
      </g>
     </g>
    </g>
    <g id="xtick_29">
     <g id="line2d_81">
      <path d="M 786.24 576.72 
L 786.24 483.988966 
" clip-path="url(#pdf62605988)" style="fill: none; stroke-dasharray: 1.85,0.8; stroke-dashoffset: 0; stroke: #b2b2b2; stroke-width: 0.5"/>
     </g>
     <g id="line2d_82">
      <g>
       <use xlink:href="#m0c3151cbed" x="786.24" y="576.72" style="stroke: #000000; stroke-width: 0.8"/>
      </g>
     </g>
     <g id="text_19">
      <!-- 200 ns -->
      <g transform="translate(762.57125 590.857813) scale(0.14 -0.14)">
       <use xlink:href="#DejaVuSans-32"/>
       <use xlink:href="#DejaVuSans-30" x="63.623047"/>
       <use xlink:href="#DejaVuSans-30" x="127.246094"/>
       <use xlink:href="#DejaVuSans-20" x="190.869141"/>
       <use xlink:href="#DejaVuSans-6e" x="222.65625"/>
       <use xlink:href="#DejaVuSans-73" x="286.035156"/>
      </g>
     </g>
    </g>
    <g id="xtick_30">
     <g id="line2d_83">
      <path d="M 947.52 576.72 
L 947.52 483.988966 
" clip-path="url(#pdf62605988)" style="fill: none; stroke-dasharray: 1.85,0.8; stroke-dashoffset: 0; stroke: #b2b2b2; stroke-width: 0.5"/>
     </g>
     <g id="line2d_84">
      <g>
       <use xlink:href="#m0c3151cbed" x="947.52" y="576.72" style="stroke: #000000; stroke-width: 0.8"/>
      </g>
     </g>
     <g id="text_20">
      <!-- 250 ns -->
      <g transform="translate(923.85125 590.857813) scale(0.14 -0.14)">
       <use xlink:href="#DejaVuSans-32"/>
       <use xlink:href="#DejaVuSans-35" x="63.623047"/>
       <use xlink:href="#DejaVuSans-30" x="127.246094"/>
       <use xlink:href="#DejaVuSans-20" x="190.869141"/>
       <use xlink:href="#DejaVuSans-6e" x="222.65625"/>
       <use xlink:href="#DejaVuSans-73" x="286.035156"/>
      </g>
     </g>
    </g>
    <g id="text_21">
     <!-- Time -->
     <g transform="translate(527.192969 608.407187) scale(0.14 -0.14)">
      <defs>
       <path id="DejaVuSans-69" d="M 603 3500 
L 1178 3500 
L 1178 0 
L 603 0 
L 603 3500 
z
M 603 4863 
L 1178 4863 
L 1178 4134 
L 603 4134 
L 603 4863 
z
" transform="scale(0.015625)"/>
       <path id="DejaVuSans-6d" d="M 3328 2828 
Q 3544 3216 3844 3400 
Q 4144 3584 4550 3584 
Q 5097 3584 5394 3201 
Q 5691 2819 5691 2113 
L 5691 0 
L 5113 0 
L 5113 2094 
Q 5113 2597 4934 2840 
Q 4756 3084 4391 3084 
Q 3944 3084 3684 2787 
Q 3425 2491 3425 1978 
L 3425 0 
L 2847 0 
L 2847 2094 
Q 2847 2600 2669 2842 
Q 2491 3084 2119 3084 
Q 1678 3084 1418 2786 
Q 1159 2488 1159 1978 
L 1159 0 
L 581 0 
L 581 3500 
L 1159 3500 
L 1159 2956 
Q 1356 3278 1631 3431 
Q 1906 3584 2284 3584 
Q 2666 3584 2933 3390 
Q 3200 3197 3328 2828 
z
" transform="scale(0.015625)"/>
       <path id="DejaVuSans-65" d="M 3597 1894 
L 3597 1613 
L 953 1613 
Q 991 1019 1311 708 
Q 1631 397 2203 397 
Q 2534 397 2845 478 
Q 3156 559 3463 722 
L 3463 178 
Q 3153 47 2828 -22 
Q 2503 -91 2169 -91 
Q 1331 -91 842 396 
Q 353 884 353 1716 
Q 353 2575 817 3079 
Q 1281 3584 2069 3584 
Q 2775 3584 3186 3129 
Q 3597 2675 3597 1894 
z
M 3022 2063 
Q 3016 2534 2758 2815 
Q 2500 3097 2075 3097 
Q 1594 3097 1305 2825 
Q 1016 2553 972 2059 
L 3022 2063 
z
" transform="scale(0.015625)"/>
      </defs>
      <use xlink:href="#DejaVuSans-54"/>
      <use xlink:href="#DejaVuSans-69" x="57.958984"/>
      <use xlink:href="#DejaVuSans-6d" x="85.742188"/>
      <use xlink:href="#DejaVuSans-65" x="183.154297"/>
     </g>
    </g>
   </g>
   <g id="matplotlib.axis_10">
    <g id="ytick_11">
     <g id="line2d_85">
      <path d="M 100.8 569.737898 
L 987.84 569.737898 
" clip-path="url(#pdf62605988)" style="fill: none; stroke-dasharray: 1.85,0.8; stroke-dashoffset: 0; stroke: #b2b2b2; stroke-width: 0.5"/>
     </g>
     <g id="line2d_86">
      <g>
       <use xlink:href="#mb1c98782a1" x="100.8" y="569.737898" style="stroke: #000000; stroke-width: 0.8"/>
      </g>
     </g>
     <g id="text_22">
      <!-- 0 V -->
      <g transform="translate(74.36625 575.056805) scale(0.14 -0.14)">
       <use xlink:href="#DejaVuSans-30"/>
       <use xlink:href="#DejaVuSans-20" x="63.623047"/>
       <use xlink:href="#DejaVuSans-56" x="95.410156"/>
      </g>
     </g>
    </g>
    <g id="ytick_12">
     <g id="line2d_87">
      <path d="M 100.8 535.84453 
L 987.84 535.84453 
" clip-path="url(#pdf62605988)" style="fill: none; stroke-dasharray: 1.85,0.8; stroke-dashoffset: 0; stroke: #b2b2b2; stroke-width: 0.5"/>
     </g>
     <g id="line2d_88">
      <g>
       <use xlink:href="#mb1c98782a1" x="100.8" y="535.84453" style="stroke: #000000; stroke-width: 0.8"/>
      </g>
     </g>
     <g id="text_23">
      <!-- 500 mV -->
      <g transform="translate(42.914375 541.163437) scale(0.14 -0.14)">
       <use xlink:href="#DejaVuSans-35"/>
       <use xlink:href="#DejaVuSans-30" x="63.623047"/>
       <use xlink:href="#DejaVuSans-30" x="127.246094"/>
       <use xlink:href="#DejaVuSans-20" x="190.869141"/>
       <use xlink:href="#DejaVuSans-6d" x="222.65625"/>
       <use xlink:href="#DejaVuSans-56" x="320.068359"/>
      </g>
     </g>
    </g>
    <g id="ytick_13">
     <g id="line2d_89">
      <path d="M 100.8 501.951163 
L 987.84 501.951163 
" clip-path="url(#pdf62605988)" style="fill: none; stroke-dasharray: 1.85,0.8; stroke-dashoffset: 0; stroke: #b2b2b2; stroke-width: 0.5"/>
     </g>
     <g id="line2d_90">
      <g>
       <use xlink:href="#mb1c98782a1" x="100.8" y="501.951163" style="stroke: #000000; stroke-width: 0.8"/>
      </g>
     </g>
     <g id="text_24">
      <!-- 1 V -->
      <g transform="translate(74.36625 507.270069) scale(0.14 -0.14)">
       <use xlink:href="#DejaVuSans-31"/>
       <use xlink:href="#DejaVuSans-20" x="63.623047"/>
       <use xlink:href="#DejaVuSans-56" x="95.410156"/>
      </g>
     </g>
    </g>
    <g id="text_25">
     <g id="patch_27">
      <path d="M 34.8768 554.329483 
L 34.8768 506.379483 
L 11.247425 506.379483 
L 11.247425 554.329483 
z
" style="fill: #ffff00; opacity: 0.2; stroke: #eeeeee; stroke-width: 0.5; stroke-linejoin: miter"/>
     </g>
     <!-- FOUT -->
     <g transform="translate(26.925238 549.289483) rotate(-90) scale(0.14 -0.14)">
      <use xlink:href="#DejaVuSans-46"/>
      <use xlink:href="#DejaVuSans-4f" x="57.519531"/>
      <use xlink:href="#DejaVuSans-55" x="136.230469"/>
      <use xlink:href="#DejaVuSans-54" x="209.423828"/>
     </g>
    </g>
   </g>
   <g id="line2d_91">
    <path d="M 141.12 488.393815 
L 173.472768 488.400594 
L 173.505024 488.204013 
L 173.569536 526.657394 
L 173.69856 572.504953 
L 173.730816 572.369108 
L 173.827584 567.828617 
L 173.892096 569.351799 
L 174.053376 570.057126 
L 174.117888 569.939259 
L 174.408192 569.483332 
L 174.440448 569.532932 
L 174.66624 569.721921 
L 176.182272 569.732147 
L 180.085248 569.753796 
L 193.568256 569.74419 
L 212.8896 569.73602 
L 255.30624 569.735711 
L 255.6288 488.285357 
L 255.854592 488.427709 
L 256.209408 488.387037 
L 334.849536 488.407373 
L 334.881792 492.623708 
L 335.043072 572.18283 
L 335.107584 570.254711 
L 335.172096 568.326579 
L 335.236608 568.859586 
L 335.365632 570.778018 
L 335.430144 570.404018 
L 335.591424 569.789374 
L 335.881728 569.64017 
L 336.559104 569.810146 
L 337.107456 569.738156 
L 349.9776 569.736214 
L 417.682944 569.733015 
L 417.7152 569.323403 
L 417.779712 538.419071 
L 417.940992 488.759864 
L 418.102272 488.400594 
L 418.650624 488.393815 
L 420.263424 488.332807 
L 420.29568 488.224349 
L 420.327936 488.265021 
L 420.360192 492.40679 
L 420.521472 570.2411 
L 420.585984 569.728829 
L 420.811776 569.735989 
L 444.036096 569.736214 
L 466.74432 569.810478 
L 466.776576 569.85359 
L 466.808832 569.745011 
L 466.873344 556.462544 
L 467.099136 488.583618 
L 467.260416 488.400594 
L 467.808768 488.393815 
L 496.129536 488.414151 
L 496.161792 489.397059 
L 496.355328 569.738838 
L 496.41984 569.736344 
L 517.031424 569.736509 
L 577.70496 569.729378 
L 577.769472 569.188623 
L 578.02752 488.475159 
L 578.1888 488.393815 
L 947.52 488.393815 
L 947.52 488.393815 
" clip-path="url(#pdf62605988)" style="fill: none; stroke: #ff00ff; stroke-width: 2; stroke-linecap: square"/>
   </g>
   <g id="patch_28">
    <path d="M 100.8 576.72 
L 100.8 483.988966 
" style="fill: none; stroke: #bcbcbc; stroke-width: 0.8; stroke-linejoin: miter; stroke-linecap: square"/>
   </g>
   <g id="patch_29">
    <path d="M 987.84 576.72 
L 987.84 483.988966 
" style="fill: none; stroke: #bcbcbc; stroke-width: 0.8; stroke-linejoin: miter; stroke-linecap: square"/>
   </g>
   <g id="patch_30">
    <path d="M 100.8 576.72 
L 987.84 576.72 
" style="fill: none; stroke: #bcbcbc; stroke-width: 0.8; stroke-linejoin: miter; stroke-linecap: square"/>
   </g>
   <g id="patch_31">
    <path d="M 100.8 483.988966 
L 987.84 483.988966 
" style="fill: none; stroke: #bcbcbc; stroke-width: 0.8; stroke-linejoin: miter; stroke-linecap: square"/>
   </g>
  </g>
  <g id="axes_6">
   <g id="patch_32">
    <path d="M 201.6 628.56 
L 856.8 628.56 
L 856.8 615.6 
L 201.6 615.6 
z
" clip-path="url(#p4b22204643)" style="fill: #d3d3d3"/>
   </g>
   <g id="patch_33">
    <path d="M 201.6 628.56 
L 515.16 628.56 
L 515.16 615.6 
L 201.6 615.6 
z
" clip-path="url(#p4b22204643)" style="fill: #0000ff"/>
   </g>
   <g id="line2d_92">
    <path d="M 201.6 635.04 
L 201.6 609.12 
" clip-path="url(#p79ffb58c7b)" style="fill: none; stroke: #ff0000; stroke-linecap: square"/>
   </g>
   <g id="line2d_93">
    <defs>
     <path id="mb0c2423af2" d="M 0 5 
C 1.326016 5 2.597899 4.473168 3.535534 3.535534 
C 4.473168 2.597899 5 1.326016 5 0 
C 5 -1.326016 4.473168 -2.597899 3.535534 -3.535534 
C 2.597899 -4.473168 1.326016 -5 0 -5 
C -1.326016 -5 -2.597899 -4.473168 -3.535534 -3.535534 
C -4.473168 -2.597899 -5 -1.326016 -5 0 
C -5 1.326016 -4.473168 2.597899 -3.535534 3.535534 
C -2.597899 4.473168 -1.326016 5 0 5 
z
" style="stroke: #bfbfbf"/>
    </defs>
    <g>
     <use xlink:href="#mb0c2423af2" x="515.16" y="622.08" style="fill: #ffffff; stroke: #bfbfbf"/>
    </g>
   </g>
   <g id="text_26">
    <!-- #Sweep -->
    <g transform="translate(138.622875 625.39125) scale(0.12 -0.12)">
     <defs>
      <path id="DejaVuSans-23" d="M 3272 2816 
L 2363 2816 
L 2100 1772 
L 3016 1772 
L 3272 2816 
z
M 2803 4594 
L 2478 3297 
L 3391 3297 
L 3719 4594 
L 4219 4594 
L 3897 3297 
L 4872 3297 
L 4872 2816 
L 3775 2816 
L 3519 1772 
L 4513 1772 
L 4513 1294 
L 3397 1294 
L 3072 0 
L 2572 0 
L 2894 1294 
L 1978 1294 
L 1656 0 
L 1153 0 
L 1478 1294 
L 494 1294 
L 494 1772 
L 1594 1772 
L 1856 2816 
L 850 2816 
L 850 3297 
L 1978 3297 
L 2297 4594 
L 2803 4594 
z
" transform="scale(0.015625)"/>
      <path id="DejaVuSans-77" d="M 269 3500 
L 844 3500 
L 1563 769 
L 2278 3500 
L 2956 3500 
L 3675 769 
L 4391 3500 
L 4966 3500 
L 4050 0 
L 3372 0 
L 2619 2869 
L 1863 0 
L 1184 0 
L 269 3500 
z
" transform="scale(0.015625)"/>
      <path id="DejaVuSans-70" d="M 1159 525 
L 1159 -1331 
L 581 -1331 
L 581 3500 
L 1159 3500 
L 1159 2969 
Q 1341 3281 1617 3432 
Q 1894 3584 2278 3584 
Q 2916 3584 3314 3078 
Q 3713 2572 3713 1747 
Q 3713 922 3314 415 
Q 2916 -91 2278 -91 
Q 1894 -91 1617 61 
Q 1341 213 1159 525 
z
M 3116 1747 
Q 3116 2381 2855 2742 
Q 2594 3103 2138 3103 
Q 1681 3103 1420 2742 
Q 1159 2381 1159 1747 
Q 1159 1113 1420 752 
Q 1681 391 2138 391 
Q 2594 391 2855 752 
Q 3116 1113 3116 1747 
z
" transform="scale(0.015625)"/>
     </defs>
     <use xlink:href="#DejaVuSans-23"/>
     <use xlink:href="#DejaVuSans-53" x="83.789062"/>
     <use xlink:href="#DejaVuSans-77" x="147.265625"/>
     <use xlink:href="#DejaVuSans-65" x="229.052734"/>
     <use xlink:href="#DejaVuSans-65" x="290.576172"/>
     <use xlink:href="#DejaVuSans-70" x="352.099609"/>
    </g>
   </g>
   <g id="text_27">
    <!-- $\mathdefault{67}$ -->
    <g transform="translate(869.904 625.39125) scale(0.12 -0.12)">
     <defs>
      <path id="DejaVuSans-36" d="M 2113 2584 
Q 1688 2584 1439 2293 
Q 1191 2003 1191 1497 
Q 1191 994 1439 701 
Q 1688 409 2113 409 
Q 2538 409 2786 701 
Q 3034 994 3034 1497 
Q 3034 2003 2786 2293 
Q 2538 2584 2113 2584 
z
M 3366 4563 
L 3366 3988 
Q 3128 4100 2886 4159 
Q 2644 4219 2406 4219 
Q 1781 4219 1451 3797 
Q 1122 3375 1075 2522 
Q 1259 2794 1537 2939 
Q 1816 3084 2150 3084 
Q 2853 3084 3261 2657 
Q 3669 2231 3669 1497 
Q 3669 778 3244 343 
Q 2819 -91 2113 -91 
Q 1303 -91 875 529 
Q 447 1150 447 2328 
Q 447 3434 972 4092 
Q 1497 4750 2381 4750 
Q 2619 4750 2861 4703 
Q 3103 4656 3366 4563 
z
" transform="scale(0.015625)"/>
      <path id="DejaVuSans-37" d="M 525 4666 
L 3525 4666 
L 3525 4397 
L 1831 0 
L 1172 0 
L 2766 4134 
L 525 4134 
L 525 4666 
z
" transform="scale(0.015625)"/>
     </defs>
     <use xlink:href="#DejaVuSans-36" transform="translate(0 0.78125)"/>
     <use xlink:href="#DejaVuSans-37" transform="translate(63.623047 0.78125)"/>
    </g>
   </g>
  </g>
  <g id="text_28">
   <!-- DFF under BBI sweep analysis (Sweep = 77E-9) -->
   <g transform="translate(313.34625 25.1175) scale(0.16 -0.16)">
    <defs>
     <path id="DejaVuSans-75" d="M 544 1381 
L 544 3500 
L 1119 3500 
L 1119 1403 
Q 1119 906 1312 657 
Q 1506 409 1894 409 
Q 2359 409 2629 706 
Q 2900 1003 2900 1516 
L 2900 3500 
L 3475 3500 
L 3475 0 
L 2900 0 
L 2900 538 
Q 2691 219 2414 64 
Q 2138 -91 1772 -91 
Q 1169 -91 856 284 
Q 544 659 544 1381 
z
M 1991 3584 
L 1991 3584 
z
" transform="scale(0.015625)"/>
     <path id="DejaVuSans-64" d="M 2906 2969 
L 2906 4863 
L 3481 4863 
L 3481 0 
L 2906 0 
L 2906 525 
Q 2725 213 2448 61 
Q 2172 -91 1784 -91 
Q 1150 -91 751 415 
Q 353 922 353 1747 
Q 353 2572 751 3078 
Q 1150 3584 1784 3584 
Q 2172 3584 2448 3432 
Q 2725 3281 2906 2969 
z
M 947 1747 
Q 947 1113 1208 752 
Q 1469 391 1925 391 
Q 2381 391 2643 752 
Q 2906 1113 2906 1747 
Q 2906 2381 2643 2742 
Q 2381 3103 1925 3103 
Q 1469 3103 1208 2742 
Q 947 2381 947 1747 
z
" transform="scale(0.015625)"/>
     <path id="DejaVuSans-72" d="M 2631 2963 
Q 2534 3019 2420 3045 
Q 2306 3072 2169 3072 
Q 1681 3072 1420 2755 
Q 1159 2438 1159 1844 
L 1159 0 
L 581 0 
L 581 3500 
L 1159 3500 
L 1159 2956 
Q 1341 3275 1631 3429 
Q 1922 3584 2338 3584 
Q 2397 3584 2469 3576 
Q 2541 3569 2628 3553 
L 2631 2963 
z
" transform="scale(0.015625)"/>
     <path id="DejaVuSans-61" d="M 2194 1759 
Q 1497 1759 1228 1600 
Q 959 1441 959 1056 
Q 959 750 1161 570 
Q 1363 391 1709 391 
Q 2188 391 2477 730 
Q 2766 1069 2766 1631 
L 2766 1759 
L 2194 1759 
z
M 3341 1997 
L 3341 0 
L 2766 0 
L 2766 531 
Q 2569 213 2275 61 
Q 1981 -91 1556 -91 
Q 1019 -91 701 211 
Q 384 513 384 1019 
Q 384 1609 779 1909 
Q 1175 2209 1959 2209 
L 2766 2209 
L 2766 2266 
Q 2766 2663 2505 2880 
Q 2244 3097 1772 3097 
Q 1472 3097 1187 3025 
Q 903 2953 641 2809 
L 641 3341 
Q 956 3463 1253 3523 
Q 1550 3584 1831 3584 
Q 2591 3584 2966 3190 
Q 3341 2797 3341 1997 
z
" transform="scale(0.015625)"/>
     <path id="DejaVuSans-6c" d="M 603 4863 
L 1178 4863 
L 1178 0 
L 603 0 
L 603 4863 
z
" transform="scale(0.015625)"/>
     <path id="DejaVuSans-79" d="M 2059 -325 
Q 1816 -950 1584 -1140 
Q 1353 -1331 966 -1331 
L 506 -1331 
L 506 -850 
L 844 -850 
Q 1081 -850 1212 -737 
Q 1344 -625 1503 -206 
L 1606 56 
L 191 3500 
L 800 3500 
L 1894 763 
L 2988 3500 
L 3597 3500 
L 2059 -325 
z
" transform="scale(0.015625)"/>
     <path id="DejaVuSans-28" d="M 1984 4856 
Q 1566 4138 1362 3434 
Q 1159 2731 1159 2009 
Q 1159 1288 1364 580 
Q 1569 -128 1984 -844 
L 1484 -844 
Q 1016 -109 783 600 
Q 550 1309 550 2009 
Q 550 2706 781 3412 
Q 1013 4119 1484 4856 
L 1984 4856 
z
" transform="scale(0.015625)"/>
     <path id="DejaVuSans-3d" d="M 678 2906 
L 4684 2906 
L 4684 2381 
L 678 2381 
L 678 2906 
z
M 678 1631 
L 4684 1631 
L 4684 1100 
L 678 1100 
L 678 1631 
z
" transform="scale(0.015625)"/>
     <path id="DejaVuSans-2d" d="M 313 2009 
L 1997 2009 
L 1997 1497 
L 313 1497 
L 313 2009 
z
" transform="scale(0.015625)"/>
     <path id="DejaVuSans-39" d="M 703 97 
L 703 672 
Q 941 559 1184 500 
Q 1428 441 1663 441 
Q 2288 441 2617 861 
Q 2947 1281 2994 2138 
Q 2813 1869 2534 1725 
Q 2256 1581 1919 1581 
Q 1219 1581 811 2004 
Q 403 2428 403 3163 
Q 403 3881 828 4315 
Q 1253 4750 1959 4750 
Q 2769 4750 3195 4129 
Q 3622 3509 3622 2328 
Q 3622 1225 3098 567 
Q 2575 -91 1691 -91 
Q 1453 -91 1209 -44 
Q 966 3 703 97 
z
M 1959 2075 
Q 2384 2075 2632 2365 
Q 2881 2656 2881 3163 
Q 2881 3666 2632 3958 
Q 2384 4250 1959 4250 
Q 1534 4250 1286 3958 
Q 1038 3666 1038 3163 
Q 1038 2656 1286 2365 
Q 1534 2075 1959 2075 
z
" transform="scale(0.015625)"/>
     <path id="DejaVuSans-29" d="M 513 4856 
L 1013 4856 
Q 1481 4119 1714 3412 
Q 1947 2706 1947 2009 
Q 1947 1309 1714 600 
Q 1481 -109 1013 -844 
L 513 -844 
Q 928 -128 1133 580 
Q 1338 1288 1338 2009 
Q 1338 2731 1133 3434 
Q 928 4138 513 4856 
z
" transform="scale(0.015625)"/>
    </defs>
    <use xlink:href="#DejaVuSans-44"/>
    <use xlink:href="#DejaVuSans-46" x="77.001953"/>
    <use xlink:href="#DejaVuSans-46" x="134.521484"/>
    <use xlink:href="#DejaVuSans-20" x="192.041016"/>
    <use xlink:href="#DejaVuSans-75" x="223.828125"/>
    <use xlink:href="#DejaVuSans-6e" x="287.207031"/>
    <use xlink:href="#DejaVuSans-64" x="350.585938"/>
    <use xlink:href="#DejaVuSans-65" x="414.0625"/>
    <use xlink:href="#DejaVuSans-72" x="475.585938"/>
    <use xlink:href="#DejaVuSans-20" x="516.699219"/>
    <use xlink:href="#DejaVuSans-42" x="548.486328"/>
    <use xlink:href="#DejaVuSans-42" x="617.089844"/>
    <use xlink:href="#DejaVuSans-49" x="685.693359"/>
    <use xlink:href="#DejaVuSans-20" x="715.185547"/>
    <use xlink:href="#DejaVuSans-73" x="746.972656"/>
    <use xlink:href="#DejaVuSans-77" x="799.072266"/>
    <use xlink:href="#DejaVuSans-65" x="880.859375"/>
    <use xlink:href="#DejaVuSans-65" x="942.382812"/>
    <use xlink:href="#DejaVuSans-70" x="1003.90625"/>
    <use xlink:href="#DejaVuSans-20" x="1067.382812"/>
    <use xlink:href="#DejaVuSans-61" x="1099.169922"/>
    <use xlink:href="#DejaVuSans-6e" x="1160.449219"/>
    <use xlink:href="#DejaVuSans-61" x="1223.828125"/>
    <use xlink:href="#DejaVuSans-6c" x="1285.107422"/>
    <use xlink:href="#DejaVuSans-79" x="1312.890625"/>
    <use xlink:href="#DejaVuSans-73" x="1372.070312"/>
    <use xlink:href="#DejaVuSans-69" x="1424.169922"/>
    <use xlink:href="#DejaVuSans-73" x="1451.953125"/>
    <use xlink:href="#DejaVuSans-20" x="1504.052734"/>
    <use xlink:href="#DejaVuSans-28" x="1535.839844"/>
    <use xlink:href="#DejaVuSans-53" x="1574.853516"/>
    <use xlink:href="#DejaVuSans-77" x="1638.330078"/>
    <use xlink:href="#DejaVuSans-65" x="1720.117188"/>
    <use xlink:href="#DejaVuSans-65" x="1781.640625"/>
    <use xlink:href="#DejaVuSans-70" x="1843.164062"/>
    <use xlink:href="#DejaVuSans-20" x="1906.640625"/>
    <use xlink:href="#DejaVuSans-3d" x="1938.427734"/>
    <use xlink:href="#DejaVuSans-20" x="2022.216797"/>
    <use xlink:href="#DejaVuSans-37" x="2054.003906"/>
    <use xlink:href="#DejaVuSans-37" x="2117.626953"/>
    <use xlink:href="#DejaVuSans-45" x="2181.25"/>
    <use xlink:href="#DejaVuSans-2d" x="2244.433594"/>
    <use xlink:href="#DejaVuSans-39" x="2280.517578"/>
    <use xlink:href="#DejaVuSans-29" x="2344.140625"/>
   </g>
  </g>
 </g>
 <defs>
  <clipPath id="pa788a58cc0">
   <rect x="100.8" y="38.88" width="887.04" height="92.731034"/>
  </clipPath>
  <clipPath id="p0d8f03c9d9">
   <rect x="100.8" y="150.157241" width="887.04" height="92.731034"/>
  </clipPath>
  <clipPath id="p81a69a66d1">
   <rect x="100.8" y="261.434483" width="887.04" height="92.731034"/>
  </clipPath>
  <clipPath id="p77302beb29">
   <rect x="100.8" y="372.711724" width="887.04" height="92.731034"/>
  </clipPath>
  <clipPath id="pdf62605988">
   <rect x="100.8" y="483.988966" width="887.04" height="92.731034"/>
  </clipPath>
  <clipPath id="p4b22204643">
   <rect x="201.6" y="609.12" width="655.2" height="25.92"/>
  </clipPath>
  <clipPath id="p79ffb58c7b">
   <path d="M 201.6 628.56 
L 856.8 628.56 
L 856.8 615.6 
L 201.6 615.6 
z
"/>
  </clipPath>
 </defs>
</svg>
