<?xml version="1.0" encoding="utf-8" standalone="no"?>
<!DOCTYPE svg PUBLIC "-//W3C//DTD SVG 1.1//EN"
  "http://www.w3.org/Graphics/SVG/1.1/DTD/svg11.dtd">
<svg xmlns:xlink="http://www.w3.org/1999/xlink" width="1008pt" height="648pt" viewBox="0 0 1008 648" xmlns="http://www.w3.org/2000/svg" version="1.1">
 <metadata>
  <rdf:RDF xmlns:dc="http://purl.org/dc/elements/1.1/" xmlns:cc="http://creativecommons.org/ns#" xmlns:rdf="http://www.w3.org/1999/02/22-rdf-syntax-ns#">
   <cc:Work>
    <dc:type rdf:resource="http://purl.org/dc/dcmitype/StillImage"/>
    <dc:date>2024-06-03T10:45:29.825328</dc:date>
    <dc:format>image/svg+xml</dc:format>
    <dc:creator>
     <cc:Agent>
      <dc:title>Matplotlib v3.9.0, https://matplotlib.org/</dc:title>
     </cc:Agent>
    </dc:creator>
   </cc:Work>
  </rdf:RDF>
 </metadata>
 <defs>
  <style type="text/css">*{stroke-linejoin: round; stroke-linecap: butt}</style>
 </defs>
 <g id="figure_1">
  <g id="patch_1">
   <path d="M 0 648 
L 1008 648 
L 1008 0 
L 0 0 
z
" style="fill: #ffffff"/>
  </g>
  <g id="axes_1">
   <g id="patch_2">
    <path d="M 100.8 131.611034 
L 987.84 131.611034 
L 987.84 38.88 
L 100.8 38.88 
z
" style="fill: #eeeeee"/>
   </g>
   <g id="matplotlib.axis_1">
    <g id="xtick_1">
     <g id="line2d_1">
      <path d="M 141.12 131.611034 
L 141.12 38.88 
" clip-path="url(#p6542c96f85)" style="fill: none; stroke-dasharray: 1.85,0.8; stroke-dashoffset: 0; stroke: #b2b2b2; stroke-width: 0.5"/>
     </g>
     <g id="line2d_2">
      <defs>
       <path id="mcb194374e5" d="M 0 0 
L 0 -3.5 
" style="stroke: #000000; stroke-width: 0.8"/>
      </defs>
      <g>
       <use xlink:href="#mcb194374e5" x="141.12" y="131.611034" style="stroke: #000000; stroke-width: 0.8"/>
      </g>
     </g>
    </g>
    <g id="xtick_2">
     <g id="line2d_3">
      <path d="M 302.4 131.611034 
L 302.4 38.88 
" clip-path="url(#p6542c96f85)" style="fill: none; stroke-dasharray: 1.85,0.8; stroke-dashoffset: 0; stroke: #b2b2b2; stroke-width: 0.5"/>
     </g>
     <g id="line2d_4">
      <g>
       <use xlink:href="#mcb194374e5" x="302.4" y="131.611034" style="stroke: #000000; stroke-width: 0.8"/>
      </g>
     </g>
    </g>
    <g id="xtick_3">
     <g id="line2d_5">
      <path d="M 463.68 131.611034 
L 463.68 38.88 
" clip-path="url(#p6542c96f85)" style="fill: none; stroke-dasharray: 1.85,0.8; stroke-dashoffset: 0; stroke: #b2b2b2; stroke-width: 0.5"/>
     </g>
     <g id="line2d_6">
      <g>
       <use xlink:href="#mcb194374e5" x="463.68" y="131.611034" style="stroke: #000000; stroke-width: 0.8"/>
      </g>
     </g>
    </g>
    <g id="xtick_4">
     <g id="line2d_7">
      <path d="M 624.96 131.611034 
L 624.96 38.88 
" clip-path="url(#p6542c96f85)" style="fill: none; stroke-dasharray: 1.85,0.8; stroke-dashoffset: 0; stroke: #b2b2b2; stroke-width: 0.5"/>
     </g>
     <g id="line2d_8">
      <g>
       <use xlink:href="#mcb194374e5" x="624.96" y="131.611034" style="stroke: #000000; stroke-width: 0.8"/>
      </g>
     </g>
    </g>
    <g id="xtick_5">
     <g id="line2d_9">
      <path d="M 786.24 131.611034 
L 786.24 38.88 
" clip-path="url(#p6542c96f85)" style="fill: none; stroke-dasharray: 1.85,0.8; stroke-dashoffset: 0; stroke: #b2b2b2; stroke-width: 0.5"/>
     </g>
     <g id="line2d_10">
      <g>
       <use xlink:href="#mcb194374e5" x="786.24" y="131.611034" style="stroke: #000000; stroke-width: 0.8"/>
      </g>
     </g>
    </g>
    <g id="xtick_6">
     <g id="line2d_11">
      <path d="M 947.52 131.611034 
L 947.52 38.88 
" clip-path="url(#p6542c96f85)" style="fill: none; stroke-dasharray: 1.85,0.8; stroke-dashoffset: 0; stroke: #b2b2b2; stroke-width: 0.5"/>
     </g>
     <g id="line2d_12">
      <g>
       <use xlink:href="#mcb194374e5" x="947.52" y="131.611034" style="stroke: #000000; stroke-width: 0.8"/>
      </g>
     </g>
    </g>
   </g>
   <g id="matplotlib.axis_2">
    <g id="ytick_1">
     <g id="line2d_13">
      <path d="M 100.8 98.340394 
L 987.84 98.340394 
" clip-path="url(#p6542c96f85)" style="fill: none; stroke-dasharray: 1.85,0.8; stroke-dashoffset: 0; stroke: #b2b2b2; stroke-width: 0.5"/>
     </g>
     <g id="line2d_14">
      <defs>
       <path id="m1ccd59d54d" d="M 0 0 
L 3.5 0 
" style="stroke: #000000; stroke-width: 0.8"/>
      </defs>
      <g>
       <use xlink:href="#m1ccd59d54d" x="100.8" y="98.340394" style="stroke: #000000; stroke-width: 0.8"/>
      </g>
     </g>
     <g id="text_1">
      <!-- −200 V -->
      <g transform="translate(44.819688 103.6593) scale(0.14 -0.14)">
       <defs>
        <path id="DejaVuSans-2212" d="M 678 2272 
L 4684 2272 
L 4684 1741 
L 678 1741 
L 678 2272 
z
" transform="scale(0.015625)"/>
        <path id="DejaVuSans-32" d="M 1228 531 
L 3431 531 
L 3431 0 
L 469 0 
L 469 531 
Q 828 903 1448 1529 
Q 2069 2156 2228 2338 
Q 2531 2678 2651 2914 
Q 2772 3150 2772 3378 
Q 2772 3750 2511 3984 
Q 2250 4219 1831 4219 
Q 1534 4219 1204 4116 
Q 875 4013 500 3803 
L 500 4441 
Q 881 4594 1212 4672 
Q 1544 4750 1819 4750 
Q 2544 4750 2975 4387 
Q 3406 4025 3406 3419 
Q 3406 3131 3298 2873 
Q 3191 2616 2906 2266 
Q 2828 2175 2409 1742 
Q 1991 1309 1228 531 
z
" transform="scale(0.015625)"/>
        <path id="DejaVuSans-30" d="M 2034 4250 
Q 1547 4250 1301 3770 
Q 1056 3291 1056 2328 
Q 1056 1369 1301 889 
Q 1547 409 2034 409 
Q 2525 409 2770 889 
Q 3016 1369 3016 2328 
Q 3016 3291 2770 3770 
Q 2525 4250 2034 4250 
z
M 2034 4750 
Q 2819 4750 3233 4129 
Q 3647 3509 3647 2328 
Q 3647 1150 3233 529 
Q 2819 -91 2034 -91 
Q 1250 -91 836 529 
Q 422 1150 422 2328 
Q 422 3509 836 4129 
Q 1250 4750 2034 4750 
z
" transform="scale(0.015625)"/>
        <path id="DejaVuSans-20" transform="scale(0.015625)"/>
        <path id="DejaVuSans-56" d="M 1831 0 
L 50 4666 
L 709 4666 
L 2188 738 
L 3669 4666 
L 4325 4666 
L 2547 0 
L 1831 0 
z
" transform="scale(0.015625)"/>
       </defs>
       <use xlink:href="#DejaVuSans-2212"/>
       <use xlink:href="#DejaVuSans-32" x="83.789062"/>
       <use xlink:href="#DejaVuSans-30" x="147.412109"/>
       <use xlink:href="#DejaVuSans-30" x="211.035156"/>
       <use xlink:href="#DejaVuSans-20" x="274.658203"/>
       <use xlink:href="#DejaVuSans-56" x="306.445312"/>
      </g>
     </g>
    </g>
    <g id="ytick_2">
     <g id="line2d_15">
      <path d="M 100.8 45.027377 
L 987.84 45.027377 
" clip-path="url(#p6542c96f85)" style="fill: none; stroke-dasharray: 1.85,0.8; stroke-dashoffset: 0; stroke: #b2b2b2; stroke-width: 0.5"/>
     </g>
     <g id="line2d_16">
      <g>
       <use xlink:href="#m1ccd59d54d" x="100.8" y="45.027377" style="stroke: #000000; stroke-width: 0.8"/>
      </g>
     </g>
     <g id="text_2">
      <!-- 0 V -->
      <g transform="translate(74.36625 50.346284) scale(0.14 -0.14)">
       <use xlink:href="#DejaVuSans-30"/>
       <use xlink:href="#DejaVuSans-20" x="63.623047"/>
       <use xlink:href="#DejaVuSans-56" x="95.410156"/>
      </g>
     </g>
    </g>
    <g id="text_3">
     <g id="patch_3">
      <path d="M 34.8768 131.080205 
L 34.8768 39.41083 
L 11.247425 39.41083 
L 11.247425 131.080205 
z
" style="fill: #ffff00; opacity: 0.2; stroke: #eeeeee; stroke-width: 0.5; stroke-linejoin: miter"/>
     </g>
     <!-- VPULSE BBI -->
     <g transform="translate(26.925238 126.040205) rotate(-90) scale(0.14 -0.14)">
      <defs>
       <path id="DejaVuSans-50" d="M 1259 4147 
L 1259 2394 
L 2053 2394 
Q 2494 2394 2734 2622 
Q 2975 2850 2975 3272 
Q 2975 3691 2734 3919 
Q 2494 4147 2053 4147 
L 1259 4147 
z
M 628 4666 
L 2053 4666 
Q 2838 4666 3239 4311 
Q 3641 3956 3641 3272 
Q 3641 2581 3239 2228 
Q 2838 1875 2053 1875 
L 1259 1875 
L 1259 0 
L 628 0 
L 628 4666 
z
" transform="scale(0.015625)"/>
       <path id="DejaVuSans-55" d="M 556 4666 
L 1191 4666 
L 1191 1831 
Q 1191 1081 1462 751 
Q 1734 422 2344 422 
Q 2950 422 3222 751 
Q 3494 1081 3494 1831 
L 3494 4666 
L 4128 4666 
L 4128 1753 
Q 4128 841 3676 375 
Q 3225 -91 2344 -91 
Q 1459 -91 1007 375 
Q 556 841 556 1753 
L 556 4666 
z
" transform="scale(0.015625)"/>
       <path id="DejaVuSans-4c" d="M 628 4666 
L 1259 4666 
L 1259 531 
L 3531 531 
L 3531 0 
L 628 0 
L 628 4666 
z
" transform="scale(0.015625)"/>
       <path id="DejaVuSans-53" d="M 3425 4513 
L 3425 3897 
Q 3066 4069 2747 4153 
Q 2428 4238 2131 4238 
Q 1616 4238 1336 4038 
Q 1056 3838 1056 3469 
Q 1056 3159 1242 3001 
Q 1428 2844 1947 2747 
L 2328 2669 
Q 3034 2534 3370 2195 
Q 3706 1856 3706 1288 
Q 3706 609 3251 259 
Q 2797 -91 1919 -91 
Q 1588 -91 1214 -16 
Q 841 59 441 206 
L 441 856 
Q 825 641 1194 531 
Q 1563 422 1919 422 
Q 2459 422 2753 634 
Q 3047 847 3047 1241 
Q 3047 1584 2836 1778 
Q 2625 1972 2144 2069 
L 1759 2144 
Q 1053 2284 737 2584 
Q 422 2884 422 3419 
Q 422 4038 858 4394 
Q 1294 4750 2059 4750 
Q 2388 4750 2728 4690 
Q 3069 4631 3425 4513 
z
" transform="scale(0.015625)"/>
       <path id="DejaVuSans-45" d="M 628 4666 
L 3578 4666 
L 3578 4134 
L 1259 4134 
L 1259 2753 
L 3481 2753 
L 3481 2222 
L 1259 2222 
L 1259 531 
L 3634 531 
L 3634 0 
L 628 0 
L 628 4666 
z
" transform="scale(0.015625)"/>
       <path id="DejaVuSans-42" d="M 1259 2228 
L 1259 519 
L 2272 519 
Q 2781 519 3026 730 
Q 3272 941 3272 1375 
Q 3272 1813 3026 2020 
Q 2781 2228 2272 2228 
L 1259 2228 
z
M 1259 4147 
L 1259 2741 
L 2194 2741 
Q 2656 2741 2882 2914 
Q 3109 3088 3109 3444 
Q 3109 3797 2882 3972 
Q 2656 4147 2194 4147 
L 1259 4147 
z
M 628 4666 
L 2241 4666 
Q 2963 4666 3353 4366 
Q 3744 4066 3744 3513 
Q 3744 3084 3544 2831 
Q 3344 2578 2956 2516 
Q 3422 2416 3680 2098 
Q 3938 1781 3938 1306 
Q 3938 681 3513 340 
Q 3088 0 2303 0 
L 628 0 
L 628 4666 
z
" transform="scale(0.015625)"/>
       <path id="DejaVuSans-49" d="M 628 4666 
L 1259 4666 
L 1259 0 
L 628 0 
L 628 4666 
z
" transform="scale(0.015625)"/>
      </defs>
      <use xlink:href="#DejaVuSans-56"/>
      <use xlink:href="#DejaVuSans-50" x="68.408203"/>
      <use xlink:href="#DejaVuSans-55" x="128.710938"/>
      <use xlink:href="#DejaVuSans-4c" x="201.904297"/>
      <use xlink:href="#DejaVuSans-53" x="257.617188"/>
      <use xlink:href="#DejaVuSans-45" x="321.09375"/>
      <use xlink:href="#DejaVuSans-20" x="384.277344"/>
      <use xlink:href="#DejaVuSans-42" x="416.064453"/>
      <use xlink:href="#DejaVuSans-42" x="484.667969"/>
      <use xlink:href="#DejaVuSans-49" x="553.271484"/>
     </g>
    </g>
   </g>
   <g id="line2d_17">
    <path d="M 141.12 45.027377 
L 205.664256 45.136282 
L 206.148096 46.425538 
L 214.373376 69.006772 
L 221.792256 89.863624 
L 223.405056 94.440546 
L 225.211392 99.673219 
L 228.662784 110.706348 
L 231.694848 119.630947 
L 235.694592 121.496902 
L 236.2752 121.752805 
L 237.113856 122.110002 
L 238.6944 122.776415 
L 239.33952 123.04298 
L 240.694272 123.592104 
L 242.855424 124.418456 
L 243.468288 124.650367 
L 244.3392 124.970245 
L 245.113344 125.290123 
L 245.919744 125.602004 
L 247.016448 126.028509 
L 247.855104 126.348387 
L 248.85504 126.721578 
L 249.854976 127.076109 
L 250.435584 127.289361 
L 251.306496 127.395987 
L 270.079488 127.289361 
L 270.30528 126.801547 
L 288.594432 75.087922 
L 292.336128 63.292417 
L 296.045568 51.617666 
L 300.658176 49.3412 
L 306.012672 46.984578 
L 314.721792 43.484472 
L 315.592704 43.268927 
L 329.882112 43.108189 
L 336.688128 43.184799 
L 352.041984 43.746186 
L 379.8144 44.46146 
L 405.45792 44.774399 
L 441.068544 44.945888 
L 489.097728 44.953885 
L 947.52 44.953885 
L 947.52 44.953885 
" clip-path="url(#p6542c96f85)" style="fill: none; stroke: #ff0000; stroke-width: 2; stroke-linecap: square"/>
   </g>
   <g id="patch_4">
    <path d="M 100.8 131.611034 
L 100.8 38.88 
" style="fill: none; stroke: #bcbcbc; stroke-width: 0.8; stroke-linejoin: miter; stroke-linecap: square"/>
   </g>
   <g id="patch_5">
    <path d="M 987.84 131.611034 
L 987.84 38.88 
" style="fill: none; stroke: #bcbcbc; stroke-width: 0.8; stroke-linejoin: miter; stroke-linecap: square"/>
   </g>
   <g id="patch_6">
    <path d="M 100.8 131.611034 
L 987.84 131.611034 
" style="fill: none; stroke: #bcbcbc; stroke-width: 0.8; stroke-linejoin: miter; stroke-linecap: square"/>
   </g>
   <g id="patch_7">
    <path d="M 100.8 38.88 
L 987.84 38.88 
" style="fill: none; stroke: #bcbcbc; stroke-width: 0.8; stroke-linejoin: miter; stroke-linecap: square"/>
   </g>
  </g>
  <g id="axes_2">
   <g id="patch_8">
    <path d="M 100.8 242.888276 
L 987.84 242.888276 
L 987.84 150.157241 
L 100.8 150.157241 
z
" style="fill: #eeeeee"/>
   </g>
   <g id="matplotlib.axis_3">
    <g id="xtick_7">
     <g id="line2d_18">
      <path d="M 141.12 242.888276 
L 141.12 150.157241 
" clip-path="url(#p3948dca7e2)" style="fill: none; stroke-dasharray: 1.85,0.8; stroke-dashoffset: 0; stroke: #b2b2b2; stroke-width: 0.5"/>
     </g>
     <g id="line2d_19">
      <g>
       <use xlink:href="#mcb194374e5" x="141.12" y="242.888276" style="stroke: #000000; stroke-width: 0.8"/>
      </g>
     </g>
    </g>
    <g id="xtick_8">
     <g id="line2d_20">
      <path d="M 302.4 242.888276 
L 302.4 150.157241 
" clip-path="url(#p3948dca7e2)" style="fill: none; stroke-dasharray: 1.85,0.8; stroke-dashoffset: 0; stroke: #b2b2b2; stroke-width: 0.5"/>
     </g>
     <g id="line2d_21">
      <g>
       <use xlink:href="#mcb194374e5" x="302.4" y="242.888276" style="stroke: #000000; stroke-width: 0.8"/>
      </g>
     </g>
    </g>
    <g id="xtick_9">
     <g id="line2d_22">
      <path d="M 463.68 242.888276 
L 463.68 150.157241 
" clip-path="url(#p3948dca7e2)" style="fill: none; stroke-dasharray: 1.85,0.8; stroke-dashoffset: 0; stroke: #b2b2b2; stroke-width: 0.5"/>
     </g>
     <g id="line2d_23">
      <g>
       <use xlink:href="#mcb194374e5" x="463.68" y="242.888276" style="stroke: #000000; stroke-width: 0.8"/>
      </g>
     </g>
    </g>
    <g id="xtick_10">
     <g id="line2d_24">
      <path d="M 624.96 242.888276 
L 624.96 150.157241 
" clip-path="url(#p3948dca7e2)" style="fill: none; stroke-dasharray: 1.85,0.8; stroke-dashoffset: 0; stroke: #b2b2b2; stroke-width: 0.5"/>
     </g>
     <g id="line2d_25">
      <g>
       <use xlink:href="#mcb194374e5" x="624.96" y="242.888276" style="stroke: #000000; stroke-width: 0.8"/>
      </g>
     </g>
    </g>
    <g id="xtick_11">
     <g id="line2d_26">
      <path d="M 786.24 242.888276 
L 786.24 150.157241 
" clip-path="url(#p3948dca7e2)" style="fill: none; stroke-dasharray: 1.85,0.8; stroke-dashoffset: 0; stroke: #b2b2b2; stroke-width: 0.5"/>
     </g>
     <g id="line2d_27">
      <g>
       <use xlink:href="#mcb194374e5" x="786.24" y="242.888276" style="stroke: #000000; stroke-width: 0.8"/>
      </g>
     </g>
    </g>
    <g id="xtick_12">
     <g id="line2d_28">
      <path d="M 947.52 242.888276 
L 947.52 150.157241 
" clip-path="url(#p3948dca7e2)" style="fill: none; stroke-dasharray: 1.85,0.8; stroke-dashoffset: 0; stroke: #b2b2b2; stroke-width: 0.5"/>
     </g>
     <g id="line2d_29">
      <g>
       <use xlink:href="#mcb194374e5" x="947.52" y="242.888276" style="stroke: #000000; stroke-width: 0.8"/>
      </g>
     </g>
    </g>
   </g>
   <g id="matplotlib.axis_4">
    <g id="ytick_3">
     <g id="line2d_30">
      <path d="M 100.8 213.590045 
L 987.84 213.590045 
" clip-path="url(#p3948dca7e2)" style="fill: none; stroke-dasharray: 1.85,0.8; stroke-dashoffset: 0; stroke: #b2b2b2; stroke-width: 0.5"/>
     </g>
     <g id="line2d_31">
      <g>
       <use xlink:href="#m1ccd59d54d" x="100.8" y="213.590045" style="stroke: #000000; stroke-width: 0.8"/>
      </g>
     </g>
     <g id="text_4">
      <!-- 0 V -->
      <g transform="translate(74.36625 218.908951) scale(0.14 -0.14)">
       <use xlink:href="#DejaVuSans-30"/>
       <use xlink:href="#DejaVuSans-20" x="63.623047"/>
       <use xlink:href="#DejaVuSans-56" x="95.410156"/>
      </g>
     </g>
    </g>
    <g id="ytick_4">
     <g id="line2d_32">
      <path d="M 100.8 169.93523 
L 987.84 169.93523 
" clip-path="url(#p3948dca7e2)" style="fill: none; stroke-dasharray: 1.85,0.8; stroke-dashoffset: 0; stroke: #b2b2b2; stroke-width: 0.5"/>
     </g>
     <g id="line2d_33">
      <g>
       <use xlink:href="#m1ccd59d54d" x="100.8" y="169.93523" style="stroke: #000000; stroke-width: 0.8"/>
      </g>
     </g>
     <g id="text_5">
      <!-- 1 V -->
      <g transform="translate(74.36625 175.254136) scale(0.14 -0.14)">
       <defs>
        <path id="DejaVuSans-31" d="M 794 531 
L 1825 531 
L 1825 4091 
L 703 3866 
L 703 4441 
L 1819 4666 
L 2450 4666 
L 2450 531 
L 3481 531 
L 3481 0 
L 794 0 
L 794 531 
z
" transform="scale(0.015625)"/>
       </defs>
       <use xlink:href="#DejaVuSans-31"/>
       <use xlink:href="#DejaVuSans-20" x="63.623047"/>
       <use xlink:href="#DejaVuSans-56" x="95.410156"/>
      </g>
     </g>
    </g>
    <g id="text_6">
     <g id="patch_9">
      <path d="M 34.8768 224.531509 
L 34.8768 168.514009 
L 11.247425 168.514009 
L 11.247425 224.531509 
z
" style="fill: #ffff00; opacity: 0.2; stroke: #eeeeee; stroke-width: 0.5; stroke-linejoin: miter"/>
     </g>
     <!-- DFF IN -->
     <g transform="translate(26.925238 219.491509) rotate(-90) scale(0.14 -0.14)">
      <defs>
       <path id="DejaVuSans-44" d="M 1259 4147 
L 1259 519 
L 2022 519 
Q 2988 519 3436 956 
Q 3884 1394 3884 2338 
Q 3884 3275 3436 3711 
Q 2988 4147 2022 4147 
L 1259 4147 
z
M 628 4666 
L 1925 4666 
Q 3281 4666 3915 4102 
Q 4550 3538 4550 2338 
Q 4550 1131 3912 565 
Q 3275 0 1925 0 
L 628 0 
L 628 4666 
z
" transform="scale(0.015625)"/>
       <path id="DejaVuSans-46" d="M 628 4666 
L 3309 4666 
L 3309 4134 
L 1259 4134 
L 1259 2759 
L 3109 2759 
L 3109 2228 
L 1259 2228 
L 1259 0 
L 628 0 
L 628 4666 
z
" transform="scale(0.015625)"/>
       <path id="DejaVuSans-4e" d="M 628 4666 
L 1478 4666 
L 3547 763 
L 3547 4666 
L 4159 4666 
L 4159 0 
L 3309 0 
L 1241 3903 
L 1241 0 
L 628 0 
L 628 4666 
z
" transform="scale(0.015625)"/>
      </defs>
      <use xlink:href="#DejaVuSans-44"/>
      <use xlink:href="#DejaVuSans-46" x="77.001953"/>
      <use xlink:href="#DejaVuSans-46" x="134.521484"/>
      <use xlink:href="#DejaVuSans-20" x="192.041016"/>
      <use xlink:href="#DejaVuSans-49" x="223.828125"/>
      <use xlink:href="#DejaVuSans-4e" x="253.320312"/>
     </g>
    </g>
   </g>
   <g id="line2d_34">
    <path d="M 141.12 213.526292 
L 205.696512 213.600893 
L 207.08352 215.33698 
L 207.631872 215.839054 
L 208.276992 216.284944 
L 209.147904 216.698355 
L 210.276864 216.974516 
L 211.889664 217.12997 
L 213.825024 217.321921 
L 214.5024 217.751266 
L 217.050624 219.432806 
L 218.598912 220.542511 
L 220.30848 221.863942 
L 220.985856 222.055587 
L 221.501952 221.967841 
L 221.985792 221.638683 
L 222.5664 220.934531 
L 223.243776 220.069293 
L 223.405056 220.136085 
L 223.663104 220.567831 
L 224.66304 222.527495 
L 224.9856 223.122074 
L 225.46944 224.854734 
L 225.824256 225.680246 
L 226.017792 225.980155 
L 226.43712 227.305952 
L 229.598208 234.771361 
L 229.856256 235.263351 
L 230.114304 235.828681 
L 230.178816 235.975361 
L 230.501376 236.820955 
L 231.469056 238.673229 
L 232.049664 238.062935 
L 232.275456 237.67528 
L 232.694784 236.824011 
L 233.081856 235.868407 
L 234.468864 233.574346 
L 234.694656 233.246935 
L 234.791424 233.085413 
L 234.98496 232.734428 
L 235.017216 232.757565 
L 235.210752 232.637078 
L 236.791296 230.779565 
L 237.146112 229.950997 
L 237.500928 229.605251 
L 237.629952 229.615728 
L 237.952512 229.320621 
L 238.21056 229.137271 
L 238.468608 228.90852 
L 239.5008 227.659992 
L 239.82336 226.989891 
L 239.920128 226.978977 
L 240.049152 226.696094 
L 240.210432 226.449444 
L 240.242688 226.473018 
L 240.371712 226.498774 
L 241.178112 225.879749 
L 242.694144 224.025292 
L 242.919936 223.639384 
L 242.984448 223.575211 
L 243.274752 223.238196 
L 244.113408 222.714775 
L 245.500416 221.280277 
L 245.822976 220.790907 
L 245.952 220.656014 
L 246.242304 220.304592 
L 246.59712 220.15311 
L 247.113216 219.732278 
L 248.887296 218.004857 
L 250.661376 216.130624 
L 251.306496 215.302274 
L 251.822592 214.539188 
L 253.822464 210.983809 
L 255.209472 208.467153 
L 258.306048 203.444666 
L 259.01568 202.453265 
L 259.951104 201.045834 
L 260.241408 200.082809 
L 262.596096 191.619013 
L 263.144448 190.338181 
L 264.01536 188.593298 
L 264.047616 188.663582 
L 264.724992 190.713612 
L 265.95072 194.240921 
L 268.04736 201.217834 
L 269.49888 205.793732 
L 270.240768 207.544726 
L 270.531072 207.59231 
L 271.047168 207.694026 
L 272.369664 208.288168 
L 274.208256 208.57498 
L 276.885504 209.008036 
L 277.208064 209.060858 
L 278.111232 209.223254 
L 278.53056 209.310214 
L 279.17568 209.413371 
L 279.724032 209.498236 
L 280.207872 209.561884 
L 280.917504 209.685384 
L 281.336832 209.708521 
L 282.143232 209.813074 
L 282.433536 209.853106 
L 284.01408 210.00712 
L 289.626624 210.193919 
L 290.981376 209.946134 
L 291.303936 209.894229 
L 292.271616 209.77409 
L 292.658688 209.731047 
L 293.561856 209.605801 
L 293.981184 209.559265 
L 294.626304 209.459165 
L 295.174656 209.380324 
L 295.690752 209.291748 
L 296.045568 209.380586 
L 296.7552 210.150788 
L 297.626112 210.954036 
L 298.142208 211.310478 
L 298.69056 211.56516 
L 299.561472 211.911561 
L 299.916288 211.973638 
L 301.496832 212.274638 
L 306.012672 212.713238 
L 316.43136 213.403469 
L 316.850688 213.487334 
L 317.947392 213.599364 
L 318.398976 213.661622 
L 319.140864 213.711235 
L 319.560192 213.74736 
L 320.398848 213.779332 
L 320.721408 213.779673 
L 321.59232 213.82496 
L 321.882624 213.817325 
L 323.269632 213.846797 
L 323.624448 213.865332 
L 324.946944 213.8918 
L 325.269504 213.902002 
L 327.333888 213.917116 
L 333.0432 213.953572 
L 338.300928 213.993053 
L 338.623488 213.988072 
L 340.171776 213.979149 
L 340.46208 213.989465 
L 341.623296 213.972614 
L 341.9136 213.98523 
L 342.88128 213.964394 
L 343.171584 213.980249 
L 344.042496 213.958269 
L 344.429568 213.946814 
L 345.364992 213.958998 
L 345.752064 213.93676 
L 346.622976 213.951769 
L 347.042304 213.935953 
L 347.687424 213.925327 
L 347.71968 213.890569 
L 350.719488 178.111777 
L 352.171008 165.425688 
L 352.977408 159.999394 
L 353.622528 157.314623 
L 354.235392 155.830359 
L 354.848256 155.031476 
L 355.29984 154.686603 
L 356.26752 154.402847 
L 358.138368 154.511984 
L 360.493056 154.939801 
L 360.976896 155.022745 
L 363.105792 155.420004 
L 364.267008 155.625182 
L 364.879872 155.734319 
L 365.815296 155.874014 
L 366.395904 155.983151 
L 367.492608 156.166501 
L 375.072768 157.244775 
L 375.685632 158.73777 
L 376.008192 159.925181 
L 376.42752 161.134419 
L 376.846848 161.522947 
L 377.23392 161.570967 
L 377.750016 161.330866 
L 378.588672 160.510155 
L 379.749888 159.554115 
L 380.78208 159.117567 
L 381.975552 158.908024 
L 382.491648 158.877465 
L 383.04 158.842541 
L 392.781312 158.951679 
L 394.200576 159.034623 
L 394.748928 159.065181 
L 396.10368 159.139394 
L 397.845504 159.244166 
L 398.168064 159.257262 
L 399.587328 159.340206 
L 401.490432 159.444978 
L 402.006528 159.471171 
L 403.941888 159.575942 
L 404.425728 159.59777 
L 406.58688 159.706907 
L 407.844864 159.768024 
L 410.425344 159.872795 
L 410.651136 159.881526 
L 411.812352 159.929546 
L 414.844416 160.034318 
L 415.360512 160.073607 
L 416.166912 159.060816 
L 416.553984 158.8731 
L 417.102336 158.829445 
L 422.005248 160.043049 
L 423.263232 160.152186 
L 423.811584 160.191475 
L 426.10176 160.300612 
L 426.650112 160.335536 
L 427.55328 160.348633 
L 430.45632 160.45777 
L 431.294976 160.462135 
L 431.875584 160.492693 
L 438.294528 160.597465 
L 438.810624 160.623658 
L 455.712768 160.724064 
L 456.615936 161.789241 
L 457.615872 162.077363 
L 458.648064 161.968226 
L 460.873728 161.557871 
L 462.841344 161.138785 
L 463.905792 161.029648 
L 465.970176 160.859394 
L 496.000512 160.77645 
L 497.097216 159.593404 
L 498.290688 159.541019 
L 501.90336 160.405384 
L 503.935488 160.571272 
L 508.741632 160.680409 
L 509.612544 160.68914 
L 536.385024 160.77645 
L 537.0624 161.671373 
L 537.739776 162.016247 
L 540.288 161.907109 
L 542.38464 161.453099 
L 547.70688 160.841932 
L 576.672768 160.73716 
L 577.285632 159.877161 
L 577.672704 159.658887 
L 578.1888 159.501729 
L 579.15648 159.610866 
L 579.995136 159.833506 
L 582.349824 160.357364 
L 584.898048 160.5931 
L 592.86528 160.702237 
L 593.736192 160.710968 
L 617.025024 160.77645 
L 617.605632 161.579698 
L 617.992704 161.837262 
L 618.766848 162.033708 
L 620.831232 161.928937 
L 622.992384 161.457465 
L 628.34688 160.841932 
L 657.312768 160.732795 
L 657.828864 159.973201 
L 658.377216 159.593404 
L 659.6352 159.523557 
L 663.441408 160.440308 
L 665.473536 160.606196 
L 697.600512 160.715333 
L 697.729536 160.889952 
L 698.245632 161.579698 
L 698.632704 161.837262 
L 699.406848 162.033708 
L 700.664832 162.094825 
L 701.213184 161.985688 
L 703.438848 161.496754 
L 709.14816 160.833201 
L 737.952768 160.732795 
L 738.468864 159.973201 
L 739.017216 159.593404 
L 740.2752 159.523557 
L 744.081408 160.440308 
L 746.113536 160.606196 
L 778.240512 160.715333 
L 778.369536 160.889952 
L 778.885632 161.579698 
L 779.272704 161.837262 
L 780.046848 162.033708 
L 781.304832 162.094825 
L 781.853184 161.985688 
L 784.078848 161.496754 
L 789.78816 160.833201 
L 818.592768 160.732795 
L 819.108864 159.973201 
L 819.657216 159.593404 
L 820.9152 159.523557 
L 824.721408 160.440308 
L 826.753536 160.606196 
L 858.880512 160.715333 
L 859.009536 160.889952 
L 859.525632 161.579698 
L 859.912704 161.837262 
L 860.686848 162.033708 
L 861.944832 162.094825 
L 862.493184 161.985688 
L 864.718848 161.496754 
L 870.42816 160.833201 
L 899.232768 160.732795 
L 899.748864 159.973201 
L 900.297216 159.593404 
L 901.5552 159.523557 
L 905.361408 160.440308 
L 907.393536 160.606196 
L 939.520512 160.715333 
L 939.649536 160.894318 
L 940.133376 161.544775 
L 940.58496 161.828531 
L 941.294592 162.09046 
L 943.294464 161.981323 
L 944.423424 161.719394 
L 946.455552 161.282846 
L 947.52 161.064572 
L 947.52 161.064572 
" clip-path="url(#p3948dca7e2)" style="fill: none; stroke: #008000; stroke-width: 2; stroke-linecap: square"/>
   </g>
   <g id="patch_10">
    <path d="M 100.8 242.888276 
L 100.8 150.157241 
" style="fill: none; stroke: #bcbcbc; stroke-width: 0.8; stroke-linejoin: miter; stroke-linecap: square"/>
   </g>
   <g id="patch_11">
    <path d="M 987.84 242.888276 
L 987.84 150.157241 
" style="fill: none; stroke: #bcbcbc; stroke-width: 0.8; stroke-linejoin: miter; stroke-linecap: square"/>
   </g>
   <g id="patch_12">
    <path d="M 100.8 242.888276 
L 987.84 242.888276 
" style="fill: none; stroke: #bcbcbc; stroke-width: 0.8; stroke-linejoin: miter; stroke-linecap: square"/>
   </g>
   <g id="patch_13">
    <path d="M 100.8 150.157241 
L 987.84 150.157241 
" style="fill: none; stroke: #bcbcbc; stroke-width: 0.8; stroke-linejoin: miter; stroke-linecap: square"/>
   </g>
  </g>
  <g id="axes_3">
   <g id="patch_14">
    <path d="M 100.8 354.165517 
L 987.84 354.165517 
L 987.84 261.434483 
L 100.8 261.434483 
z
" style="fill: #eeeeee"/>
   </g>
   <g id="matplotlib.axis_5">
    <g id="xtick_13">
     <g id="line2d_35">
      <path d="M 141.12 354.165517 
L 141.12 261.434483 
" clip-path="url(#pda38a21e77)" style="fill: none; stroke-dasharray: 1.85,0.8; stroke-dashoffset: 0; stroke: #b2b2b2; stroke-width: 0.5"/>
     </g>
     <g id="line2d_36">
      <g>
       <use xlink:href="#mcb194374e5" x="141.12" y="354.165517" style="stroke: #000000; stroke-width: 0.8"/>
      </g>
     </g>
    </g>
    <g id="xtick_14">
     <g id="line2d_37">
      <path d="M 302.4 354.165517 
L 302.4 261.434483 
" clip-path="url(#pda38a21e77)" style="fill: none; stroke-dasharray: 1.85,0.8; stroke-dashoffset: 0; stroke: #b2b2b2; stroke-width: 0.5"/>
     </g>
     <g id="line2d_38">
      <g>
       <use xlink:href="#mcb194374e5" x="302.4" y="354.165517" style="stroke: #000000; stroke-width: 0.8"/>
      </g>
     </g>
    </g>
    <g id="xtick_15">
     <g id="line2d_39">
      <path d="M 463.68 354.165517 
L 463.68 261.434483 
" clip-path="url(#pda38a21e77)" style="fill: none; stroke-dasharray: 1.85,0.8; stroke-dashoffset: 0; stroke: #b2b2b2; stroke-width: 0.5"/>
     </g>
     <g id="line2d_40">
      <g>
       <use xlink:href="#mcb194374e5" x="463.68" y="354.165517" style="stroke: #000000; stroke-width: 0.8"/>
      </g>
     </g>
    </g>
    <g id="xtick_16">
     <g id="line2d_41">
      <path d="M 624.96 354.165517 
L 624.96 261.434483 
" clip-path="url(#pda38a21e77)" style="fill: none; stroke-dasharray: 1.85,0.8; stroke-dashoffset: 0; stroke: #b2b2b2; stroke-width: 0.5"/>
     </g>
     <g id="line2d_42">
      <g>
       <use xlink:href="#mcb194374e5" x="624.96" y="354.165517" style="stroke: #000000; stroke-width: 0.8"/>
      </g>
     </g>
    </g>
    <g id="xtick_17">
     <g id="line2d_43">
      <path d="M 786.24 354.165517 
L 786.24 261.434483 
" clip-path="url(#pda38a21e77)" style="fill: none; stroke-dasharray: 1.85,0.8; stroke-dashoffset: 0; stroke: #b2b2b2; stroke-width: 0.5"/>
     </g>
     <g id="line2d_44">
      <g>
       <use xlink:href="#mcb194374e5" x="786.24" y="354.165517" style="stroke: #000000; stroke-width: 0.8"/>
      </g>
     </g>
    </g>
    <g id="xtick_18">
     <g id="line2d_45">
      <path d="M 947.52 354.165517 
L 947.52 261.434483 
" clip-path="url(#pda38a21e77)" style="fill: none; stroke-dasharray: 1.85,0.8; stroke-dashoffset: 0; stroke: #b2b2b2; stroke-width: 0.5"/>
     </g>
     <g id="line2d_46">
      <g>
       <use xlink:href="#mcb194374e5" x="947.52" y="354.165517" style="stroke: #000000; stroke-width: 0.8"/>
      </g>
     </g>
    </g>
   </g>
   <g id="matplotlib.axis_6">
    <g id="ytick_5">
     <g id="line2d_47">
      <path d="M 100.8 344.59008 
L 987.84 344.59008 
" clip-path="url(#pda38a21e77)" style="fill: none; stroke-dasharray: 1.85,0.8; stroke-dashoffset: 0; stroke: #b2b2b2; stroke-width: 0.5"/>
     </g>
     <g id="line2d_48">
      <g>
       <use xlink:href="#m1ccd59d54d" x="100.8" y="344.59008" style="stroke: #000000; stroke-width: 0.8"/>
      </g>
     </g>
     <g id="text_7">
      <!-- 0 V -->
      <g transform="translate(74.36625 349.908986) scale(0.14 -0.14)">
       <use xlink:href="#DejaVuSans-30"/>
       <use xlink:href="#DejaVuSans-20" x="63.623047"/>
       <use xlink:href="#DejaVuSans-56" x="95.410156"/>
      </g>
     </g>
    </g>
    <g id="ytick_6">
     <g id="line2d_49">
      <path d="M 100.8 302.362333 
L 987.84 302.362333 
" clip-path="url(#pda38a21e77)" style="fill: none; stroke-dasharray: 1.85,0.8; stroke-dashoffset: 0; stroke: #b2b2b2; stroke-width: 0.5"/>
     </g>
     <g id="line2d_50">
      <g>
       <use xlink:href="#m1ccd59d54d" x="100.8" y="302.362333" style="stroke: #000000; stroke-width: 0.8"/>
      </g>
     </g>
     <g id="text_8">
      <!-- 1 V -->
      <g transform="translate(74.36625 307.681239) scale(0.14 -0.14)">
       <use xlink:href="#DejaVuSans-31"/>
       <use xlink:href="#DejaVuSans-20" x="63.623047"/>
       <use xlink:href="#DejaVuSans-56" x="95.410156"/>
      </g>
     </g>
    </g>
    <g id="text_9">
     <g id="patch_15">
      <path d="M 34.8768 342.395313 
L 34.8768 273.204688 
L 11.247425 273.204688 
L 11.247425 342.395313 
z
" style="fill: #ffff00; opacity: 0.2; stroke: #eeeeee; stroke-width: 0.5; stroke-linejoin: miter"/>
     </g>
     <!-- CLK BUF -->
     <g transform="translate(26.925238 337.355313) rotate(-90) scale(0.14 -0.14)">
      <defs>
       <path id="DejaVuSans-43" d="M 4122 4306 
L 4122 3641 
Q 3803 3938 3442 4084 
Q 3081 4231 2675 4231 
Q 1875 4231 1450 3742 
Q 1025 3253 1025 2328 
Q 1025 1406 1450 917 
Q 1875 428 2675 428 
Q 3081 428 3442 575 
Q 3803 722 4122 1019 
L 4122 359 
Q 3791 134 3420 21 
Q 3050 -91 2638 -91 
Q 1578 -91 968 557 
Q 359 1206 359 2328 
Q 359 3453 968 4101 
Q 1578 4750 2638 4750 
Q 3056 4750 3426 4639 
Q 3797 4528 4122 4306 
z
" transform="scale(0.015625)"/>
       <path id="DejaVuSans-4b" d="M 628 4666 
L 1259 4666 
L 1259 2694 
L 3353 4666 
L 4166 4666 
L 1850 2491 
L 4331 0 
L 3500 0 
L 1259 2247 
L 1259 0 
L 628 0 
L 628 4666 
z
" transform="scale(0.015625)"/>
      </defs>
      <use xlink:href="#DejaVuSans-43"/>
      <use xlink:href="#DejaVuSans-4c" x="69.824219"/>
      <use xlink:href="#DejaVuSans-4b" x="125.537109"/>
      <use xlink:href="#DejaVuSans-20" x="191.113281"/>
      <use xlink:href="#DejaVuSans-42" x="222.900391"/>
      <use xlink:href="#DejaVuSans-55" x="291.503906"/>
      <use xlink:href="#DejaVuSans-46" x="364.697266"/>
     </g>
    </g>
   </g>
   <g id="line2d_51">
    <path d="M 141.12 344.588964 
L 173.376 344.588964 
L 173.601792 293.916784 
L 205.728768 294.026576 
L 207.373824 296.36177 
L 209.01888 299.148801 
L 213.696 307.142936 
L 213.728256 307.604063 
L 213.825024 346.295828 
L 213.889536 345.331853 
L 213.954048 346.886129 
L 214.01856 346.032115 
L 214.147584 345.992844 
L 219.631104 345.824313 
L 223.824384 345.811095 
L 224.50176 345.974306 
L 225.340416 346.336028 
L 226.372608 346.916449 
L 226.695168 347.117791 
L 228.243456 348.047097 
L 231.469056 349.939069 
L 232.436736 349.455983 
L 233.37216 349.099159 
L 233.501184 348.984722 
L 233.53344 349.039618 
L 233.597952 348.983877 
L 236.823552 347.919696 
L 240.500736 346.787063 
L 241.500672 346.506291 
L 245.403648 345.51719 
L 252.596736 344.191176 
L 253.145088 344.134654 
L 254.016 344.075366 
L 254.048256 343.642109 
L 254.209536 318.893229 
L 254.403072 318.705738 
L 255.015936 318.314709 
L 260.14464 315.088509 
L 265.692672 312.019819 
L 270.273024 309.637752 
L 271.724544 306.930108 
L 274.208256 301.606456 
L 277.272576 295.056933 
L 277.949952 293.692977 
L 280.207872 289.216835 
L 285.723648 279.335543 
L 288.013824 275.653283 
L 288.755712 274.504688 
L 291.465216 270.10878 
L 292.07808 269.124873 
L 293.594112 266.751674 
L 294.336 265.64953 
L 294.49728 343.205306 
L 294.529536 343.334818 
L 294.594048 343.248547 
L 294.916608 343.256823 
L 295.981056 343.348331 
L 296.658432 344.016669 
L 297.40032 344.435379 
L 298.335744 344.716763 
L 299.722752 344.893833 
L 302.303232 344.970835 
L 311.367168 344.926365 
L 315.3024 344.916885 
L 319.01184 345.075404 
L 334.656 344.923088 
L 334.785024 279.749375 
L 334.914048 280.167429 
L 335.849472 280.534811 
L 341.623296 282.688426 
L 341.9136 282.798218 
L 343.655424 283.36407 
L 343.945728 283.473862 
L 345.364992 283.91303 
L 345.78432 284.022822 
L 347.203584 284.461991 
L 347.622912 284.571783 
L 348.590592 284.842041 
L 348.977664 284.951833 
L 349.848576 285.179863 
L 350.235648 285.289655 
L 351.10656 285.517685 
L 351.493632 285.627477 
L 352.267776 285.813279 
L 352.751616 285.923071 
L 353.52576 286.108873 
L 353.912832 286.218665 
L 354.557952 286.36224 
L 354.97728 286.472032 
L 355.6224 286.615606 
L 356.138496 286.725398 
L 356.783616 286.868973 
L 357.299712 286.978765 
L 357.944832 287.122339 
L 358.460928 287.232131 
L 359.106048 287.375706 
L 359.718912 287.485498 
L 360.364032 287.629072 
L 360.976896 287.738864 
L 361.525248 287.840211 
L 362.041344 287.950003 
L 362.589696 288.05135 
L 363.20256 288.161142 
L 363.750912 288.262488 
L 364.363776 288.368058 
L 364.718592 288.431399 
L 365.331456 288.536969 
L 365.686272 288.60031 
L 366.395904 288.70588 
L 366.75072 288.769221 
L 367.460352 288.874791 
L 367.815168 288.938132 
L 368.5248 289.043702 
L 368.879616 289.107043 
L 369.589248 289.212613 
L 369.944064 289.275954 
L 370.750464 289.381524 
L 371.10528 289.444865 
L 372.008448 289.550435 
L 372.363264 289.613776 
L 373.266432 289.719346 
L 373.621248 289.782687 
L 374.524416 289.888257 
L 374.782464 289.90937 
L 374.976 289.951598 
L 375.008256 296.450448 
L 375.13728 344.722439 
L 375.330816 344.697178 
L 391.491072 344.653852 
L 415.296 344.6195 
L 415.45728 292.801971 
L 415.521792 292.831531 
L 415.973376 292.818862 
L 416.392704 292.865313 
L 420.005376 292.970882 
L 420.263424 292.987773 
L 424.456704 293.097565 
L 424.714752 293.114456 
L 429.682176 293.224249 
L 429.940224 293.24114 
L 435.972096 293.350932 
L 436.230144 293.367823 
L 443.907072 293.477615 
L 444.16512 293.494506 
L 455.616 293.494506 
L 455.648256 297.480805 
L 455.712768 344.703711 
L 455.77728 344.450315 
L 455.874048 344.740651 
L 455.93856 344.608389 
L 456.809472 344.604239 
L 463.260672 344.598047 
L 484.80768 344.601064 
L 495.936 344.601019 
L 496.09728 293.410051 
L 496.161792 293.511397 
L 497.129472 293.494506 
L 536.256 293.494506 
L 536.385024 344.912523 
L 536.546304 344.666981 
L 536.804352 344.57285 
L 537.159168 344.618789 
L 537.481728 344.600835 
L 576.317952 344.601057 
L 576.576 344.601057 
L 576.705024 293.321372 
L 576.769536 293.498729 
L 576.89856 293.494506 
L 616.896 293.494506 
L 617.025024 344.912523 
L 617.186304 344.666981 
L 617.444352 344.572851 
L 617.799168 344.618788 
L 618.121728 344.600835 
L 656.957952 344.601057 
L 657.216 344.601057 
L 657.37728 293.274922 
L 657.441792 293.752095 
L 657.53856 293.321372 
L 657.603072 293.477615 
L 658.086912 293.494506 
L 697.536 293.494506 
L 697.665024 344.912607 
L 697.826304 344.666964 
L 698.084352 344.572848 
L 698.439168 344.618807 
L 698.761728 344.600836 
L 737.243136 344.601056 
L 737.856 344.601057 
L 738.01728 293.274922 
L 738.081792 293.752095 
L 738.17856 293.31715 
L 738.243072 293.477615 
L 738.726912 293.494506 
L 778.176 293.494506 
L 778.305024 344.91254 
L 778.466304 344.666981 
L 778.724352 344.572851 
L 779.079168 344.618788 
L 779.401728 344.600835 
L 818.237952 344.601057 
L 818.496 344.601057 
L 818.65728 293.274922 
L 818.721792 293.752095 
L 818.81856 293.31715 
L 818.883072 293.477615 
L 819.366912 293.494506 
L 858.816 293.494506 
L 858.945024 344.91262 
L 859.106304 344.666968 
L 859.364352 344.572847 
L 859.719168 344.618807 
L 860.041728 344.600836 
L 898.523136 344.601056 
L 899.136 344.601057 
L 899.29728 293.274922 
L 899.361792 293.752095 
L 899.45856 293.31715 
L 899.523072 293.477615 
L 900.006912 293.494506 
L 939.456 293.494506 
L 939.488256 301.108169 
L 939.61728 344.550836 
L 939.649536 344.673619 
L 939.714048 344.556147 
L 939.810816 344.573593 
L 940.004352 344.626326 
L 940.230144 344.599716 
L 945.74592 344.60106 
L 947.52 344.601047 
L 947.52 344.601047 
" clip-path="url(#pda38a21e77)" style="fill: none; stroke: #0000ff; stroke-width: 2; stroke-linecap: square"/>
   </g>
   <g id="patch_16">
    <path d="M 100.8 354.165517 
L 100.8 261.434483 
" style="fill: none; stroke: #bcbcbc; stroke-width: 0.8; stroke-linejoin: miter; stroke-linecap: square"/>
   </g>
   <g id="patch_17">
    <path d="M 987.84 354.165517 
L 987.84 261.434483 
" style="fill: none; stroke: #bcbcbc; stroke-width: 0.8; stroke-linejoin: miter; stroke-linecap: square"/>
   </g>
   <g id="patch_18">
    <path d="M 100.8 354.165517 
L 987.84 354.165517 
" style="fill: none; stroke: #bcbcbc; stroke-width: 0.8; stroke-linejoin: miter; stroke-linecap: square"/>
   </g>
   <g id="patch_19">
    <path d="M 100.8 261.434483 
L 987.84 261.434483 
" style="fill: none; stroke: #bcbcbc; stroke-width: 0.8; stroke-linejoin: miter; stroke-linecap: square"/>
   </g>
  </g>
  <g id="axes_4">
   <g id="patch_20">
    <path d="M 100.8 465.442759 
L 987.84 465.442759 
L 987.84 372.711724 
L 100.8 372.711724 
z
" style="fill: #eeeeee"/>
   </g>
   <g id="matplotlib.axis_7">
    <g id="xtick_19">
     <g id="line2d_52">
      <path d="M 141.12 465.442759 
L 141.12 372.711724 
" clip-path="url(#pa09a833d61)" style="fill: none; stroke-dasharray: 1.85,0.8; stroke-dashoffset: 0; stroke: #b2b2b2; stroke-width: 0.5"/>
     </g>
     <g id="line2d_53">
      <g>
       <use xlink:href="#mcb194374e5" x="141.12" y="465.442759" style="stroke: #000000; stroke-width: 0.8"/>
      </g>
     </g>
    </g>
    <g id="xtick_20">
     <g id="line2d_54">
      <path d="M 302.4 465.442759 
L 302.4 372.711724 
" clip-path="url(#pa09a833d61)" style="fill: none; stroke-dasharray: 1.85,0.8; stroke-dashoffset: 0; stroke: #b2b2b2; stroke-width: 0.5"/>
     </g>
     <g id="line2d_55">
      <g>
       <use xlink:href="#mcb194374e5" x="302.4" y="465.442759" style="stroke: #000000; stroke-width: 0.8"/>
      </g>
     </g>
    </g>
    <g id="xtick_21">
     <g id="line2d_56">
      <path d="M 463.68 465.442759 
L 463.68 372.711724 
" clip-path="url(#pa09a833d61)" style="fill: none; stroke-dasharray: 1.85,0.8; stroke-dashoffset: 0; stroke: #b2b2b2; stroke-width: 0.5"/>
     </g>
     <g id="line2d_57">
      <g>
       <use xlink:href="#mcb194374e5" x="463.68" y="465.442759" style="stroke: #000000; stroke-width: 0.8"/>
      </g>
     </g>
    </g>
    <g id="xtick_22">
     <g id="line2d_58">
      <path d="M 624.96 465.442759 
L 624.96 372.711724 
" clip-path="url(#pa09a833d61)" style="fill: none; stroke-dasharray: 1.85,0.8; stroke-dashoffset: 0; stroke: #b2b2b2; stroke-width: 0.5"/>
     </g>
     <g id="line2d_59">
      <g>
       <use xlink:href="#mcb194374e5" x="624.96" y="465.442759" style="stroke: #000000; stroke-width: 0.8"/>
      </g>
     </g>
    </g>
    <g id="xtick_23">
     <g id="line2d_60">
      <path d="M 786.24 465.442759 
L 786.24 372.711724 
" clip-path="url(#pa09a833d61)" style="fill: none; stroke-dasharray: 1.85,0.8; stroke-dashoffset: 0; stroke: #b2b2b2; stroke-width: 0.5"/>
     </g>
     <g id="line2d_61">
      <g>
       <use xlink:href="#mcb194374e5" x="786.24" y="465.442759" style="stroke: #000000; stroke-width: 0.8"/>
      </g>
     </g>
    </g>
    <g id="xtick_24">
     <g id="line2d_62">
      <path d="M 947.52 465.442759 
L 947.52 372.711724 
" clip-path="url(#pa09a833d61)" style="fill: none; stroke-dasharray: 1.85,0.8; stroke-dashoffset: 0; stroke: #b2b2b2; stroke-width: 0.5"/>
     </g>
     <g id="line2d_63">
      <g>
       <use xlink:href="#mcb194374e5" x="947.52" y="465.442759" style="stroke: #000000; stroke-width: 0.8"/>
      </g>
     </g>
    </g>
   </g>
   <g id="matplotlib.axis_8">
    <g id="ytick_7">
     <g id="line2d_64">
      <path d="M 100.8 434.416205 
L 987.84 434.416205 
" clip-path="url(#pa09a833d61)" style="fill: none; stroke-dasharray: 1.85,0.8; stroke-dashoffset: 0; stroke: #b2b2b2; stroke-width: 0.5"/>
     </g>
     <g id="line2d_65">
      <g>
       <use xlink:href="#m1ccd59d54d" x="100.8" y="434.416205" style="stroke: #000000; stroke-width: 0.8"/>
      </g>
     </g>
     <g id="text_10">
      <!-- 0 V -->
      <g transform="translate(74.36625 439.735112) scale(0.14 -0.14)">
       <use xlink:href="#DejaVuSans-30"/>
       <use xlink:href="#DejaVuSans-20" x="63.623047"/>
       <use xlink:href="#DejaVuSans-56" x="95.410156"/>
      </g>
     </g>
    </g>
    <g id="ytick_8">
     <g id="line2d_66">
      <path d="M 100.8 387.482224 
L 987.84 387.482224 
" clip-path="url(#pa09a833d61)" style="fill: none; stroke-dasharray: 1.85,0.8; stroke-dashoffset: 0; stroke: #b2b2b2; stroke-width: 0.5"/>
     </g>
     <g id="line2d_67">
      <g>
       <use xlink:href="#m1ccd59d54d" x="100.8" y="387.482224" style="stroke: #000000; stroke-width: 0.8"/>
      </g>
     </g>
     <g id="text_11">
      <!-- 1 V -->
      <g transform="translate(74.36625 392.80113) scale(0.14 -0.14)">
       <use xlink:href="#DejaVuSans-31"/>
       <use xlink:href="#DejaVuSans-20" x="63.623047"/>
       <use xlink:href="#DejaVuSans-56" x="95.410156"/>
      </g>
     </g>
    </g>
    <g id="text_12">
     <g id="patch_21">
      <path d="M 34.8768 454.693023 
L 34.8768 383.46146 
L 11.247425 383.46146 
L 11.247425 454.693023 
z
" style="fill: #ffff00; opacity: 0.2; stroke: #eeeeee; stroke-width: 0.5; stroke-linejoin: miter"/>
     </g>
     <!-- DFF OUT -->
     <g transform="translate(26.925238 449.653023) rotate(-90) scale(0.14 -0.14)">
      <defs>
       <path id="DejaVuSans-4f" d="M 2522 4238 
Q 1834 4238 1429 3725 
Q 1025 3213 1025 2328 
Q 1025 1447 1429 934 
Q 1834 422 2522 422 
Q 3209 422 3611 934 
Q 4013 1447 4013 2328 
Q 4013 3213 3611 3725 
Q 3209 4238 2522 4238 
z
M 2522 4750 
Q 3503 4750 4090 4092 
Q 4678 3434 4678 2328 
Q 4678 1225 4090 567 
Q 3503 -91 2522 -91 
Q 1538 -91 948 565 
Q 359 1222 359 2328 
Q 359 3434 948 4092 
Q 1538 4750 2522 4750 
z
" transform="scale(0.015625)"/>
       <path id="DejaVuSans-54" d="M -19 4666 
L 3928 4666 
L 3928 4134 
L 2272 4134 
L 2272 0 
L 1638 0 
L 1638 4134 
L -19 4134 
L -19 4666 
z
" transform="scale(0.015625)"/>
      </defs>
      <use xlink:href="#DejaVuSans-44"/>
      <use xlink:href="#DejaVuSans-46" x="77.001953"/>
      <use xlink:href="#DejaVuSans-46" x="134.521484"/>
      <use xlink:href="#DejaVuSans-20" x="192.041016"/>
      <use xlink:href="#DejaVuSans-4f" x="223.828125"/>
      <use xlink:href="#DejaVuSans-55" x="302.539062"/>
      <use xlink:href="#DejaVuSans-54" x="375.732422"/>
     </g>
    </g>
   </g>
   <g id="line2d_68">
    <path d="M 141.12 399.003108 
L 173.408256 399.060368 
L 173.440512 401.003434 
L 173.601792 434.41907 
L 174.02112 434.413219 
L 182.149632 434.414928 
L 205.696512 434.501925 
L 206.373888 435.211314 
L 207.148032 435.654277 
L 208.115712 435.923866 
L 209.599488 436.05866 
L 212.40576 436.030265 
L 214.98624 435.8422 
L 216.179712 435.518731 
L 216.76032 435.072999 
L 217.147392 434.392636 
L 217.437696 433.221642 
L 217.695744 431.046298 
L 217.953792 426.385801 
L 218.37312 418.774048 
L 218.5344 418.790475 
L 218.631168 418.972109 
L 218.663424 418.681588 
L 218.69568 418.7656 
L 218.889216 419.903749 
L 219.792384 424.498586 
L 220.856832 429.627062 
L 221.76 433.864168 
L 221.792256 433.33724 
L 221.856768 433.54727 
L 222.114816 435.56008 
L 222.40512 436.876438 
L 222.437376 436.725686 
L 222.469632 436.453328 
L 222.501888 437.041551 
L 222.534144 436.703955 
L 222.856704 438.787871 
L 223.308288 440.347253 
L 223.340544 439.954415 
L 223.405056 440.113052 
L 223.566336 440.607267 
L 223.69536 441.376984 
L 223.727616 441.226795 
L 223.792128 441.425795 
L 223.953408 442.306746 
L 224.404992 443.397492 
L 224.437248 443.276872 
L 224.50176 443.378249 
L 224.727552 443.805348 
L 224.888832 444.148436 
L 225.050112 445.04112 
L 226.050048 447.892829 
L 226.082304 447.857628 
L 226.11456 447.703215 
L 226.146816 447.937416 
L 226.308096 448.616081 
L 227.146752 450.622978 
L 227.533824 451.779432 
L 227.72736 452.414918 
L 229.34016 456.354087 
L 229.727232 457.319988 
L 230.533632 459.234425 
L 230.823936 459.915907 
L 231.4368 461.227712 
L 231.59808 461.039037 
L 231.727104 460.886502 
L 232.436736 459.36631 
L 232.468992 459.433425 
L 232.662528 458.792777 
L 233.178624 457.789797 
L 233.243136 457.744741 
L 234.952704 454.647567 
L 234.98496 454.850792 
L 235.017216 454.80245 
L 235.14624 454.376289 
L 235.178496 454.373004 
L 235.210752 454.498787 
L 235.243008 454.354699 
L 235.436544 454.074034 
L 235.4688 454.131763 
L 235.533312 454.068402 
L 235.920384 453.50848 
L 236.210688 452.914765 
L 236.242944 453.058852 
L 236.2752 452.809163 
L 236.307456 452.764107 
L 236.339712 452.920866 
L 236.371968 452.654751 
L 236.630016 452.314479 
L 236.662272 452.518173 
L 236.726784 452.419142 
L 237.0816 451.720295 
L 237.40416 451.30446 
L 237.436416 451.540068 
L 237.500928 451.200736 
L 237.533184 451.441038 
L 237.662208 451.014877 
L 237.823488 451.017693 
L 237.984768 450.766127 
L 238.307328 450.510806 
L 238.565376 450.000634 
L 239.049216 449.189615 
L 239.113728 449.130008 
L 239.145984 449.412082 
L 239.275008 448.964332 
L 239.33952 449.032855 
L 239.436288 448.678973 
L 239.468544 449.026284 
L 239.5008 448.57431 
L 239.565312 448.908011 
L 239.694336 448.349966 
L 239.726592 448.331661 
L 239.758848 448.576657 
L 239.82336 448.234039 
L 239.855616 448.546619 
L 240.016896 448.010164 
L 240.210432 447.830876 
L 240.242688 448.085258 
L 240.3072 447.773147 
L 240.403968 447.754373 
L 240.565248 447.554904 
L 240.597504 447.582595 
L 240.726528 447.506562 
L 240.95232 447.272362 
L 241.371648 446.750925 
L 241.75872 445.850731 
L 241.790976 446.160965 
L 241.823232 445.803328 
L 241.855488 445.835712 
L 241.984512 445.533927 
L 242.049024 445.755925 
L 242.08128 445.582269 
L 242.113536 445.315214 
L 242.145792 445.356986 
L 242.178048 445.773759 
L 242.210304 445.239181 
L 242.274816 445.655016 
L 242.40384 445.217122 
L 242.436096 445.351354 
L 242.468352 445.21149 
L 242.532864 444.923316 
L 242.597376 444.964148 
L 242.629632 445.071627 
L 242.661888 444.987615 
L 242.790912 444.632794 
L 242.823168 444.636549 
L 242.855424 444.814898 
L 242.88768 444.565679 
L 242.919936 444.560047 
L 242.952192 444.714929 
L 243.016704 444.483544 
L 243.823104 443.899686 
L 244.306944 443.248711 
L 244.435968 442.791105 
L 244.468224 443.121051 
L 244.532736 442.640447 
L 244.564992 442.685034 
L 244.597248 442.579433 
L 244.758528 442.283279 
L 244.790784 442.451772 
L 244.82304 442.189881 
L 244.855296 442.184718 
L 244.887552 442.356966 
L 244.919808 442.093666 
L 244.952064 442.073484 
L 244.98432 442.233529 
L 245.016576 441.954741 
L 245.048832 441.950987 
L 245.177856 442.307216 
L 245.30688 441.646385 
L 245.339136 441.652487 
L 245.435904 441.5788 
L 245.46816 441.941131 
L 245.597184 441.364781 
L 245.62944 441.392003 
L 245.661696 441.62151 
L 245.726208 441.594288 
L 245.887488 441.170475 
L 245.919744 441.183616 
L 245.984256 441.139029 
L 246.048768 441.423918 
L 246.177792 441.069566 
L 246.661632 440.829734 
L 247.40352 440.016837 
L 247.597056 439.747436 
L 247.855104 438.892815 
L 247.951872 438.789936 
L 247.984128 439.19737 
L 248.016384 438.686963 
L 248.04864 438.85677 
L 248.080896 438.591452 
L 248.177664 438.661853 
L 248.3712 438.307924 
L 248.435712 438.253575 
L 248.467968 438.795333 
L 248.53248 438.194438 
L 248.564736 438.586665 
L 248.726016 437.978025 
L 248.758272 438.471254 
L 248.790528 437.904855 
L 248.822784 437.910534 
L 248.85504 437.895844 
L 248.887296 438.328622 
L 248.951808 437.988163 
L 249.080832 437.730871 
L 249.113088 437.754572 
L 249.145344 437.988069 
L 249.1776 437.721296 
L 249.209856 437.728618 
L 249.532416 437.62663 
L 250.887168 435.90819 
L 251.016192 435.118854 
L 251.048448 435.76612 
L 251.080704 435.06901 
L 251.11296 435.151989 
L 251.177472 435.359484 
L 251.241984 435.405949 
L 251.306496 434.573706 
L 251.338752 434.986078 
L 251.403264 434.457307 
L 251.43552 434.829163 
L 251.500032 434.846219 
L 251.564544 434.514175 
L 251.5968 434.686137 
L 251.661312 434.513138 
L 252.24192 433.419703 
L 252.56448 432.729867 
L 252.661248 431.883741 
L 252.693504 431.949871 
L 252.72576 432.38739 
L 252.790272 432.192379 
L 252.951552 431.222301 
L 252.983808 431.461383 
L 253.016064 431.541405 
L 253.080576 431.291669 
L 253.145088 431.307158 
L 253.177344 431.399242 
L 253.241856 431.273271 
L 253.951488 429.672118 
L 254.112768 429.349213 
L 254.209536 428.166007 
L 254.241792 428.71842 
L 254.306304 428.908033 
L 254.403072 428.058997 
L 254.435328 428.34858 
L 254.49984 428.058528 
L 254.564352 428.252835 
L 254.757888 427.910686 
L 255.370752 426.458549 
L 255.725568 425.801473 
L 255.79008 425.008289 
L 255.854592 425.096525 
L 255.95136 425.303503 
L 256.015872 425.176312 
L 257.789952 421.305667 
L 258.015744 420.705851 
L 258.177024 420.381537 
L 258.20928 420.636388 
L 258.241536 420.289077 
L 258.306048 420.154846 
L 258.338304 420.364171 
L 258.435072 420.283914 
L 258.499584 419.899055 
L 258.596352 419.945051 
L 258.757632 419.731032 
L 259.435008 418.265753 
L 259.596288 417.260896 
L 259.628544 417.181578 
L 259.6608 417.472099 
L 259.693056 417.326135 
L 259.789824 416.805637 
L 259.82208 416.885894 
L 260.209152 415.904974 
L 261.305856 412.741623 
L 261.338112 412.788088 
L 261.370368 412.684364 
L 261.467136 412.506015 
L 261.499392 411.713769 
L 261.59616 411.782293 
L 261.725184 411.921687 
L 261.75744 411.857856 
L 262.434816 410.282752 
L 264.66048 405.947929 
L 264.724992 405.943705 
L 265.112064 405.154276 
L 265.176576 405.219045 
L 265.208832 405.179151 
L 265.46688 404.962785 
L 265.692672 406.318708 
L 265.886208 419.175803 
L 266.079744 433.690371 
L 266.27328 433.77795 
L 268.36992 433.893455 
L 270.176256 433.88388 
L 270.821376 433.197705 
L 271.531008 432.775675 
L 272.466432 432.494446 
L 273.724416 432.36214 
L 275.982336 432.376924 
L 287.046144 432.858185 
L 290.239488 432.874987 
L 292.271616 432.858513 
L 295.981056 433.050379 
L 296.690688 433.821035 
L 297.464832 434.289587 
L 298.432512 434.593606 
L 299.851776 434.777695 
L 302.529024 434.853428 
L 311.10912 434.799933 
L 315.979776 434.873713 
L 317.947392 434.958293 
L 322.527744 434.927316 
L 334.688256 434.780643 
L 334.720512 434.943696 
L 334.752768 434.709665 
L 334.785024 434.717597 
L 334.946304 434.791508 
L 344.3328 434.720431 
L 366.492672 434.573509 
L 392.200704 434.486221 
L 415.328256 434.446121 
L 415.360512 434.734375 
L 415.392768 434.147978 
L 415.586304 429.376434 
L 415.908864 428.143009 
L 416.1024 426.505952 
L 416.26368 422.865283 
L 416.42496 414.576273 
L 416.618496 393.540462 
L 416.812032 377.241229 
L 416.973312 376.926771 
L 419.97312 377.030026 
L 420.327936 377.067573 
L 421.10208 377.06288 
L 422.166528 377.109814 
L 426.069504 377.217762 
L 426.392064 377.250616 
L 431.58528 377.358564 
L 431.90784 377.391418 
L 438.35904 377.499366 
L 438.6816 377.53222 
L 455.712768 377.583847 
L 455.77728 377.673021 
L 455.841792 377.630781 
L 456.003072 377.626087 
L 456.74496 377.626087 
L 495.968256 377.644861 
L 496.000512 377.804437 
L 496.065024 377.58854 
L 496.323072 377.616701 
L 576.608256 377.621394 
L 576.640512 377.856064 
L 576.705024 377.60262 
L 576.995328 377.621394 
L 577.737216 377.621394 
L 578.543616 377.630781 
L 657.248256 377.621394 
L 657.280512 377.860757 
L 657.345024 377.621394 
L 657.53856 377.597927 
L 658.441728 377.621394 
L 737.888256 377.621394 
L 737.920512 377.860757 
L 737.985024 377.621394 
L 738.17856 377.597927 
L 739.081728 377.621394 
L 818.528256 377.621394 
L 818.560512 377.860757 
L 818.625024 377.621394 
L 818.81856 377.597927 
L 819.721728 377.621394 
L 899.168256 377.621394 
L 899.200512 377.860757 
L 899.265024 377.621394 
L 899.45856 377.597927 
L 900.361728 377.621394 
L 947.52 377.626087 
L 947.52 377.626087 
" clip-path="url(#pa09a833d61)" style="fill: none; stroke: #ff00ff; stroke-width: 2; stroke-linecap: square"/>
   </g>
   <g id="patch_22">
    <path d="M 100.8 465.442759 
L 100.8 372.711724 
" style="fill: none; stroke: #bcbcbc; stroke-width: 0.8; stroke-linejoin: miter; stroke-linecap: square"/>
   </g>
   <g id="patch_23">
    <path d="M 987.84 465.442759 
L 987.84 372.711724 
" style="fill: none; stroke: #bcbcbc; stroke-width: 0.8; stroke-linejoin: miter; stroke-linecap: square"/>
   </g>
   <g id="patch_24">
    <path d="M 100.8 465.442759 
L 987.84 465.442759 
" style="fill: none; stroke: #bcbcbc; stroke-width: 0.8; stroke-linejoin: miter; stroke-linecap: square"/>
   </g>
   <g id="patch_25">
    <path d="M 100.8 372.711724 
L 987.84 372.711724 
" style="fill: none; stroke: #bcbcbc; stroke-width: 0.8; stroke-linejoin: miter; stroke-linecap: square"/>
   </g>
  </g>
  <g id="axes_5">
   <g id="patch_26">
    <path d="M 100.8 576.72 
L 987.84 576.72 
L 987.84 483.988966 
L 100.8 483.988966 
z
" style="fill: #eeeeee"/>
   </g>
   <g id="matplotlib.axis_9">
    <g id="xtick_25">
     <g id="line2d_69">
      <path d="M 141.12 576.72 
L 141.12 483.988966 
" clip-path="url(#p2b55ea6258)" style="fill: none; stroke-dasharray: 1.85,0.8; stroke-dashoffset: 0; stroke: #b2b2b2; stroke-width: 0.5"/>
     </g>
     <g id="line2d_70">
      <g>
       <use xlink:href="#mcb194374e5" x="141.12" y="576.72" style="stroke: #000000; stroke-width: 0.8"/>
      </g>
     </g>
     <g id="text_13">
      <!-- 0 s -->
      <g transform="translate(130.795 590.857813) scale(0.14 -0.14)">
       <defs>
        <path id="DejaVuSans-73" d="M 2834 3397 
L 2834 2853 
Q 2591 2978 2328 3040 
Q 2066 3103 1784 3103 
Q 1356 3103 1142 2972 
Q 928 2841 928 2578 
Q 928 2378 1081 2264 
Q 1234 2150 1697 2047 
L 1894 2003 
Q 2506 1872 2764 1633 
Q 3022 1394 3022 966 
Q 3022 478 2636 193 
Q 2250 -91 1575 -91 
Q 1294 -91 989 -36 
Q 684 19 347 128 
L 347 722 
Q 666 556 975 473 
Q 1284 391 1588 391 
Q 1994 391 2212 530 
Q 2431 669 2431 922 
Q 2431 1156 2273 1281 
Q 2116 1406 1581 1522 
L 1381 1569 
Q 847 1681 609 1914 
Q 372 2147 372 2553 
Q 372 3047 722 3315 
Q 1072 3584 1716 3584 
Q 2034 3584 2315 3537 
Q 2597 3491 2834 3397 
z
" transform="scale(0.015625)"/>
       </defs>
       <use xlink:href="#DejaVuSans-30"/>
       <use xlink:href="#DejaVuSans-20" x="63.623047"/>
       <use xlink:href="#DejaVuSans-73" x="95.410156"/>
      </g>
     </g>
    </g>
    <g id="xtick_26">
     <g id="line2d_71">
      <path d="M 302.4 576.72 
L 302.4 483.988966 
" clip-path="url(#p2b55ea6258)" style="fill: none; stroke-dasharray: 1.85,0.8; stroke-dashoffset: 0; stroke: #b2b2b2; stroke-width: 0.5"/>
     </g>
     <g id="line2d_72">
      <g>
       <use xlink:href="#mcb194374e5" x="302.4" y="576.72" style="stroke: #000000; stroke-width: 0.8"/>
      </g>
     </g>
     <g id="text_14">
      <!-- 50 ns -->
      <g transform="translate(283.185 590.857813) scale(0.14 -0.14)">
       <defs>
        <path id="DejaVuSans-35" d="M 691 4666 
L 3169 4666 
L 3169 4134 
L 1269 4134 
L 1269 2991 
Q 1406 3038 1543 3061 
Q 1681 3084 1819 3084 
Q 2600 3084 3056 2656 
Q 3513 2228 3513 1497 
Q 3513 744 3044 326 
Q 2575 -91 1722 -91 
Q 1428 -91 1123 -41 
Q 819 9 494 109 
L 494 744 
Q 775 591 1075 516 
Q 1375 441 1709 441 
Q 2250 441 2565 725 
Q 2881 1009 2881 1497 
Q 2881 1984 2565 2268 
Q 2250 2553 1709 2553 
Q 1456 2553 1204 2497 
Q 953 2441 691 2322 
L 691 4666 
z
" transform="scale(0.015625)"/>
        <path id="DejaVuSans-6e" d="M 3513 2113 
L 3513 0 
L 2938 0 
L 2938 2094 
Q 2938 2591 2744 2837 
Q 2550 3084 2163 3084 
Q 1697 3084 1428 2787 
Q 1159 2491 1159 1978 
L 1159 0 
L 581 0 
L 581 3500 
L 1159 3500 
L 1159 2956 
Q 1366 3272 1645 3428 
Q 1925 3584 2291 3584 
Q 2894 3584 3203 3211 
Q 3513 2838 3513 2113 
z
" transform="scale(0.015625)"/>
       </defs>
       <use xlink:href="#DejaVuSans-35"/>
       <use xlink:href="#DejaVuSans-30" x="63.623047"/>
       <use xlink:href="#DejaVuSans-20" x="127.246094"/>
       <use xlink:href="#DejaVuSans-6e" x="159.033203"/>
       <use xlink:href="#DejaVuSans-73" x="222.412109"/>
      </g>
     </g>
    </g>
    <g id="xtick_27">
     <g id="line2d_73">
      <path d="M 463.68 576.72 
L 463.68 483.988966 
" clip-path="url(#p2b55ea6258)" style="fill: none; stroke-dasharray: 1.85,0.8; stroke-dashoffset: 0; stroke: #b2b2b2; stroke-width: 0.5"/>
     </g>
     <g id="line2d_74">
      <g>
       <use xlink:href="#mcb194374e5" x="463.68" y="576.72" style="stroke: #000000; stroke-width: 0.8"/>
      </g>
     </g>
     <g id="text_15">
      <!-- 100 ns -->
      <g transform="translate(440.01125 590.857813) scale(0.14 -0.14)">
       <use xlink:href="#DejaVuSans-31"/>
       <use xlink:href="#DejaVuSans-30" x="63.623047"/>
       <use xlink:href="#DejaVuSans-30" x="127.246094"/>
       <use xlink:href="#DejaVuSans-20" x="190.869141"/>
       <use xlink:href="#DejaVuSans-6e" x="222.65625"/>
       <use xlink:href="#DejaVuSans-73" x="286.035156"/>
      </g>
     </g>
    </g>
    <g id="xtick_28">
     <g id="line2d_75">
      <path d="M 624.96 576.72 
L 624.96 483.988966 
" clip-path="url(#p2b55ea6258)" style="fill: none; stroke-dasharray: 1.85,0.8; stroke-dashoffset: 0; stroke: #b2b2b2; stroke-width: 0.5"/>
     </g>
     <g id="line2d_76">
      <g>
       <use xlink:href="#mcb194374e5" x="624.96" y="576.72" style="stroke: #000000; stroke-width: 0.8"/>
      </g>
     </g>
     <g id="text_16">
      <!-- 150 ns -->
      <g transform="translate(601.29125 590.857813) scale(0.14 -0.14)">
       <use xlink:href="#DejaVuSans-31"/>
       <use xlink:href="#DejaVuSans-35" x="63.623047"/>
       <use xlink:href="#DejaVuSans-30" x="127.246094"/>
       <use xlink:href="#DejaVuSans-20" x="190.869141"/>
       <use xlink:href="#DejaVuSans-6e" x="222.65625"/>
       <use xlink:href="#DejaVuSans-73" x="286.035156"/>
      </g>
     </g>
    </g>
    <g id="xtick_29">
     <g id="line2d_77">
      <path d="M 786.24 576.72 
L 786.24 483.988966 
" clip-path="url(#p2b55ea6258)" style="fill: none; stroke-dasharray: 1.85,0.8; stroke-dashoffset: 0; stroke: #b2b2b2; stroke-width: 0.5"/>
     </g>
     <g id="line2d_78">
      <g>
       <use xlink:href="#mcb194374e5" x="786.24" y="576.72" style="stroke: #000000; stroke-width: 0.8"/>
      </g>
     </g>
     <g id="text_17">
      <!-- 200 ns -->
      <g transform="translate(762.57125 590.857813) scale(0.14 -0.14)">
       <use xlink:href="#DejaVuSans-32"/>
       <use xlink:href="#DejaVuSans-30" x="63.623047"/>
       <use xlink:href="#DejaVuSans-30" x="127.246094"/>
       <use xlink:href="#DejaVuSans-20" x="190.869141"/>
       <use xlink:href="#DejaVuSans-6e" x="222.65625"/>
       <use xlink:href="#DejaVuSans-73" x="286.035156"/>
      </g>
     </g>
    </g>
    <g id="xtick_30">
     <g id="line2d_79">
      <path d="M 947.52 576.72 
L 947.52 483.988966 
" clip-path="url(#p2b55ea6258)" style="fill: none; stroke-dasharray: 1.85,0.8; stroke-dashoffset: 0; stroke: #b2b2b2; stroke-width: 0.5"/>
     </g>
     <g id="line2d_80">
      <g>
       <use xlink:href="#mcb194374e5" x="947.52" y="576.72" style="stroke: #000000; stroke-width: 0.8"/>
      </g>
     </g>
     <g id="text_18">
      <!-- 250 ns -->
      <g transform="translate(923.85125 590.857813) scale(0.14 -0.14)">
       <use xlink:href="#DejaVuSans-32"/>
       <use xlink:href="#DejaVuSans-35" x="63.623047"/>
       <use xlink:href="#DejaVuSans-30" x="127.246094"/>
       <use xlink:href="#DejaVuSans-20" x="190.869141"/>
       <use xlink:href="#DejaVuSans-6e" x="222.65625"/>
       <use xlink:href="#DejaVuSans-73" x="286.035156"/>
      </g>
     </g>
    </g>
    <g id="text_19">
     <!-- Time -->
     <g transform="translate(527.192969 608.407187) scale(0.14 -0.14)">
      <defs>
       <path id="DejaVuSans-69" d="M 603 3500 
L 1178 3500 
L 1178 0 
L 603 0 
L 603 3500 
z
M 603 4863 
L 1178 4863 
L 1178 4134 
L 603 4134 
L 603 4863 
z
" transform="scale(0.015625)"/>
       <path id="DejaVuSans-6d" d="M 3328 2828 
Q 3544 3216 3844 3400 
Q 4144 3584 4550 3584 
Q 5097 3584 5394 3201 
Q 5691 2819 5691 2113 
L 5691 0 
L 5113 0 
L 5113 2094 
Q 5113 2597 4934 2840 
Q 4756 3084 4391 3084 
Q 3944 3084 3684 2787 
Q 3425 2491 3425 1978 
L 3425 0 
L 2847 0 
L 2847 2094 
Q 2847 2600 2669 2842 
Q 2491 3084 2119 3084 
Q 1678 3084 1418 2786 
Q 1159 2488 1159 1978 
L 1159 0 
L 581 0 
L 581 3500 
L 1159 3500 
L 1159 2956 
Q 1356 3278 1631 3431 
Q 1906 3584 2284 3584 
Q 2666 3584 2933 3390 
Q 3200 3197 3328 2828 
z
" transform="scale(0.015625)"/>
       <path id="DejaVuSans-65" d="M 3597 1894 
L 3597 1613 
L 953 1613 
Q 991 1019 1311 708 
Q 1631 397 2203 397 
Q 2534 397 2845 478 
Q 3156 559 3463 722 
L 3463 178 
Q 3153 47 2828 -22 
Q 2503 -91 2169 -91 
Q 1331 -91 842 396 
Q 353 884 353 1716 
Q 353 2575 817 3079 
Q 1281 3584 2069 3584 
Q 2775 3584 3186 3129 
Q 3597 2675 3597 1894 
z
M 3022 2063 
Q 3016 2534 2758 2815 
Q 2500 3097 2075 3097 
Q 1594 3097 1305 2825 
Q 1016 2553 972 2059 
L 3022 2063 
z
" transform="scale(0.015625)"/>
      </defs>
      <use xlink:href="#DejaVuSans-54"/>
      <use xlink:href="#DejaVuSans-69" x="57.958984"/>
      <use xlink:href="#DejaVuSans-6d" x="85.742188"/>
      <use xlink:href="#DejaVuSans-65" x="183.154297"/>
     </g>
    </g>
   </g>
   <g id="matplotlib.axis_10">
    <g id="ytick_9">
     <g id="line2d_81">
      <path d="M 100.8 569.737898 
L 987.84 569.737898 
" clip-path="url(#p2b55ea6258)" style="fill: none; stroke-dasharray: 1.85,0.8; stroke-dashoffset: 0; stroke: #b2b2b2; stroke-width: 0.5"/>
     </g>
     <g id="line2d_82">
      <g>
       <use xlink:href="#m1ccd59d54d" x="100.8" y="569.737898" style="stroke: #000000; stroke-width: 0.8"/>
      </g>
     </g>
     <g id="text_20">
      <!-- 0 V -->
      <g transform="translate(74.36625 575.056805) scale(0.14 -0.14)">
       <use xlink:href="#DejaVuSans-30"/>
       <use xlink:href="#DejaVuSans-20" x="63.623047"/>
       <use xlink:href="#DejaVuSans-56" x="95.410156"/>
      </g>
     </g>
    </g>
    <g id="ytick_10">
     <g id="line2d_83">
      <path d="M 100.8 535.84453 
L 987.84 535.84453 
" clip-path="url(#p2b55ea6258)" style="fill: none; stroke-dasharray: 1.85,0.8; stroke-dashoffset: 0; stroke: #b2b2b2; stroke-width: 0.5"/>
     </g>
     <g id="line2d_84">
      <g>
       <use xlink:href="#m1ccd59d54d" x="100.8" y="535.84453" style="stroke: #000000; stroke-width: 0.8"/>
      </g>
     </g>
     <g id="text_21">
      <!-- 500 mV -->
      <g transform="translate(42.914375 541.163437) scale(0.14 -0.14)">
       <use xlink:href="#DejaVuSans-35"/>
       <use xlink:href="#DejaVuSans-30" x="63.623047"/>
       <use xlink:href="#DejaVuSans-30" x="127.246094"/>
       <use xlink:href="#DejaVuSans-20" x="190.869141"/>
       <use xlink:href="#DejaVuSans-6d" x="222.65625"/>
       <use xlink:href="#DejaVuSans-56" x="320.068359"/>
      </g>
     </g>
    </g>
    <g id="ytick_11">
     <g id="line2d_85">
      <path d="M 100.8 501.951163 
L 987.84 501.951163 
" clip-path="url(#p2b55ea6258)" style="fill: none; stroke-dasharray: 1.85,0.8; stroke-dashoffset: 0; stroke: #b2b2b2; stroke-width: 0.5"/>
     </g>
     <g id="line2d_86">
      <g>
       <use xlink:href="#m1ccd59d54d" x="100.8" y="501.951163" style="stroke: #000000; stroke-width: 0.8"/>
      </g>
     </g>
     <g id="text_22">
      <!-- 1 V -->
      <g transform="translate(74.36625 507.270069) scale(0.14 -0.14)">
       <use xlink:href="#DejaVuSans-31"/>
       <use xlink:href="#DejaVuSans-20" x="63.623047"/>
       <use xlink:href="#DejaVuSans-56" x="95.410156"/>
      </g>
     </g>
    </g>
    <g id="text_23">
     <g id="patch_27">
      <path d="M 34.8768 554.329483 
L 34.8768 506.379483 
L 11.247425 506.379483 
L 11.247425 554.329483 
z
" style="fill: #ffff00; opacity: 0.2; stroke: #eeeeee; stroke-width: 0.5; stroke-linejoin: miter"/>
     </g>
     <!-- FOUT -->
     <g transform="translate(26.925238 549.289483) rotate(-90) scale(0.14 -0.14)">
      <use xlink:href="#DejaVuSans-46"/>
      <use xlink:href="#DejaVuSans-4f" x="57.519531"/>
      <use xlink:href="#DejaVuSans-55" x="136.230469"/>
      <use xlink:href="#DejaVuSans-54" x="209.423828"/>
     </g>
    </g>
   </g>
   <g id="line2d_87">
    <path d="M 141.12 488.393815 
L 173.472768 488.400594 
L 173.505024 488.204013 
L 173.569536 526.657394 
L 173.69856 572.504953 
L 173.730816 572.369108 
L 173.827584 567.828617 
L 173.892096 569.351799 
L 174.053376 570.057126 
L 174.117888 569.939259 
L 174.408192 569.483332 
L 174.440448 569.532932 
L 174.66624 569.721921 
L 176.182272 569.732147 
L 180.085248 569.753736 
L 193.955328 569.736193 
L 263.499264 569.812294 
L 263.53152 569.851034 
L 263.596032 568.555359 
L 263.6928 528.326981 
L 263.85408 488.814093 
L 263.983104 488.400594 
L 265.660416 488.393815 
L 265.724928 502.925936 
L 265.918464 571.834 
L 266.015232 569.732426 
L 267.24096 569.736219 
L 416.553984 569.742309 
L 416.58624 569.604074 
L 416.812032 488.610733 
L 416.941056 488.393815 
L 947.52 488.393815 
L 947.52 488.393815 
" clip-path="url(#p2b55ea6258)" style="fill: none; stroke: #ff00ff; stroke-width: 2; stroke-linecap: square"/>
   </g>
   <g id="patch_28">
    <path d="M 100.8 576.72 
L 100.8 483.988966 
" style="fill: none; stroke: #bcbcbc; stroke-width: 0.8; stroke-linejoin: miter; stroke-linecap: square"/>
   </g>
   <g id="patch_29">
    <path d="M 987.84 576.72 
L 987.84 483.988966 
" style="fill: none; stroke: #bcbcbc; stroke-width: 0.8; stroke-linejoin: miter; stroke-linecap: square"/>
   </g>
   <g id="patch_30">
    <path d="M 100.8 576.72 
L 987.84 576.72 
" style="fill: none; stroke: #bcbcbc; stroke-width: 0.8; stroke-linejoin: miter; stroke-linecap: square"/>
   </g>
   <g id="patch_31">
    <path d="M 100.8 483.988966 
L 987.84 483.988966 
" style="fill: none; stroke: #bcbcbc; stroke-width: 0.8; stroke-linejoin: miter; stroke-linecap: square"/>
   </g>
  </g>
  <g id="axes_6">
   <g id="patch_32">
    <path d="M 201.6 628.56 
L 856.8 628.56 
L 856.8 615.6 
L 201.6 615.6 
z
" clip-path="url(#p7c3f42485d)" style="fill: #d3d3d3"/>
   </g>
   <g id="patch_33">
    <path d="M 201.6 628.56 
L 220.32 628.56 
L 220.32 615.6 
L 201.6 615.6 
z
" clip-path="url(#p7c3f42485d)" style="fill: #0000ff"/>
   </g>
   <g id="line2d_88">
    <path d="M 201.6 635.04 
L 201.6 609.12 
" clip-path="url(#pf9a0a7e39f)" style="fill: none; stroke: #ff0000; stroke-linecap: square"/>
   </g>
   <g id="line2d_89">
    <defs>
     <path id="ma5bb12825a" d="M 0 5 
C 1.326016 5 2.597899 4.473168 3.535534 3.535534 
C 4.473168 2.597899 5 1.326016 5 0 
C 5 -1.326016 4.473168 -2.597899 3.535534 -3.535534 
C 2.597899 -4.473168 1.326016 -5 0 -5 
C -1.326016 -5 -2.597899 -4.473168 -3.535534 -3.535534 
C -4.473168 -2.597899 -5 -1.326016 -5 0 
C -5 1.326016 -4.473168 2.597899 -3.535534 3.535534 
C -2.597899 4.473168 -1.326016 5 0 5 
z
" style="stroke: #bfbfbf"/>
    </defs>
    <g>
     <use xlink:href="#ma5bb12825a" x="220.32" y="622.08" style="fill: #ffffff; stroke: #bfbfbf"/>
    </g>
   </g>
   <g id="text_24">
    <!-- #Sweep -->
    <g transform="translate(138.622875 625.39125) scale(0.12 -0.12)">
     <defs>
      <path id="DejaVuSans-23" d="M 3272 2816 
L 2363 2816 
L 2100 1772 
L 3016 1772 
L 3272 2816 
z
M 2803 4594 
L 2478 3297 
L 3391 3297 
L 3719 4594 
L 4219 4594 
L 3897 3297 
L 4872 3297 
L 4872 2816 
L 3775 2816 
L 3519 1772 
L 4513 1772 
L 4513 1294 
L 3397 1294 
L 3072 0 
L 2572 0 
L 2894 1294 
L 1978 1294 
L 1656 0 
L 1153 0 
L 1478 1294 
L 494 1294 
L 494 1772 
L 1594 1772 
L 1856 2816 
L 850 2816 
L 850 3297 
L 1978 3297 
L 2297 4594 
L 2803 4594 
z
" transform="scale(0.015625)"/>
      <path id="DejaVuSans-77" d="M 269 3500 
L 844 3500 
L 1563 769 
L 2278 3500 
L 2956 3500 
L 3675 769 
L 4391 3500 
L 4966 3500 
L 4050 0 
L 3372 0 
L 2619 2869 
L 1863 0 
L 1184 0 
L 269 3500 
z
" transform="scale(0.015625)"/>
      <path id="DejaVuSans-70" d="M 1159 525 
L 1159 -1331 
L 581 -1331 
L 581 3500 
L 1159 3500 
L 1159 2969 
Q 1341 3281 1617 3432 
Q 1894 3584 2278 3584 
Q 2916 3584 3314 3078 
Q 3713 2572 3713 1747 
Q 3713 922 3314 415 
Q 2916 -91 2278 -91 
Q 1894 -91 1617 61 
Q 1341 213 1159 525 
z
M 3116 1747 
Q 3116 2381 2855 2742 
Q 2594 3103 2138 3103 
Q 1681 3103 1420 2742 
Q 1159 2381 1159 1747 
Q 1159 1113 1420 752 
Q 1681 391 2138 391 
Q 2594 391 2855 752 
Q 3116 1113 3116 1747 
z
" transform="scale(0.015625)"/>
     </defs>
     <use xlink:href="#DejaVuSans-23"/>
     <use xlink:href="#DejaVuSans-53" x="83.789062"/>
     <use xlink:href="#DejaVuSans-77" x="147.265625"/>
     <use xlink:href="#DejaVuSans-65" x="229.052734"/>
     <use xlink:href="#DejaVuSans-65" x="290.576172"/>
     <use xlink:href="#DejaVuSans-70" x="352.099609"/>
    </g>
   </g>
   <g id="text_25">
    <!-- $\mathdefault{4}$ -->
    <g transform="translate(869.904 625.39125) scale(0.12 -0.12)">
     <defs>
      <path id="DejaVuSans-34" d="M 2419 4116 
L 825 1625 
L 2419 1625 
L 2419 4116 
z
M 2253 4666 
L 3047 4666 
L 3047 1625 
L 3713 1625 
L 3713 1100 
L 3047 1100 
L 3047 0 
L 2419 0 
L 2419 1100 
L 313 1100 
L 313 1709 
L 2253 4666 
z
" transform="scale(0.015625)"/>
     </defs>
     <use xlink:href="#DejaVuSans-34" transform="translate(0 0.09375)"/>
    </g>
   </g>
  </g>
  <g id="text_26">
   <!-- DFF under BBI sweep analysis (Sweep = 14E-9) -->
   <g transform="translate(313.34625 25.1175) scale(0.16 -0.16)">
    <defs>
     <path id="DejaVuSans-75" d="M 544 1381 
L 544 3500 
L 1119 3500 
L 1119 1403 
Q 1119 906 1312 657 
Q 1506 409 1894 409 
Q 2359 409 2629 706 
Q 2900 1003 2900 1516 
L 2900 3500 
L 3475 3500 
L 3475 0 
L 2900 0 
L 2900 538 
Q 2691 219 2414 64 
Q 2138 -91 1772 -91 
Q 1169 -91 856 284 
Q 544 659 544 1381 
z
M 1991 3584 
L 1991 3584 
z
" transform="scale(0.015625)"/>
     <path id="DejaVuSans-64" d="M 2906 2969 
L 2906 4863 
L 3481 4863 
L 3481 0 
L 2906 0 
L 2906 525 
Q 2725 213 2448 61 
Q 2172 -91 1784 -91 
Q 1150 -91 751 415 
Q 353 922 353 1747 
Q 353 2572 751 3078 
Q 1150 3584 1784 3584 
Q 2172 3584 2448 3432 
Q 2725 3281 2906 2969 
z
M 947 1747 
Q 947 1113 1208 752 
Q 1469 391 1925 391 
Q 2381 391 2643 752 
Q 2906 1113 2906 1747 
Q 2906 2381 2643 2742 
Q 2381 3103 1925 3103 
Q 1469 3103 1208 2742 
Q 947 2381 947 1747 
z
" transform="scale(0.015625)"/>
     <path id="DejaVuSans-72" d="M 2631 2963 
Q 2534 3019 2420 3045 
Q 2306 3072 2169 3072 
Q 1681 3072 1420 2755 
Q 1159 2438 1159 1844 
L 1159 0 
L 581 0 
L 581 3500 
L 1159 3500 
L 1159 2956 
Q 1341 3275 1631 3429 
Q 1922 3584 2338 3584 
Q 2397 3584 2469 3576 
Q 2541 3569 2628 3553 
L 2631 2963 
z
" transform="scale(0.015625)"/>
     <path id="DejaVuSans-61" d="M 2194 1759 
Q 1497 1759 1228 1600 
Q 959 1441 959 1056 
Q 959 750 1161 570 
Q 1363 391 1709 391 
Q 2188 391 2477 730 
Q 2766 1069 2766 1631 
L 2766 1759 
L 2194 1759 
z
M 3341 1997 
L 3341 0 
L 2766 0 
L 2766 531 
Q 2569 213 2275 61 
Q 1981 -91 1556 -91 
Q 1019 -91 701 211 
Q 384 513 384 1019 
Q 384 1609 779 1909 
Q 1175 2209 1959 2209 
L 2766 2209 
L 2766 2266 
Q 2766 2663 2505 2880 
Q 2244 3097 1772 3097 
Q 1472 3097 1187 3025 
Q 903 2953 641 2809 
L 641 3341 
Q 956 3463 1253 3523 
Q 1550 3584 1831 3584 
Q 2591 3584 2966 3190 
Q 3341 2797 3341 1997 
z
" transform="scale(0.015625)"/>
     <path id="DejaVuSans-6c" d="M 603 4863 
L 1178 4863 
L 1178 0 
L 603 0 
L 603 4863 
z
" transform="scale(0.015625)"/>
     <path id="DejaVuSans-79" d="M 2059 -325 
Q 1816 -950 1584 -1140 
Q 1353 -1331 966 -1331 
L 506 -1331 
L 506 -850 
L 844 -850 
Q 1081 -850 1212 -737 
Q 1344 -625 1503 -206 
L 1606 56 
L 191 3500 
L 800 3500 
L 1894 763 
L 2988 3500 
L 3597 3500 
L 2059 -325 
z
" transform="scale(0.015625)"/>
     <path id="DejaVuSans-28" d="M 1984 4856 
Q 1566 4138 1362 3434 
Q 1159 2731 1159 2009 
Q 1159 1288 1364 580 
Q 1569 -128 1984 -844 
L 1484 -844 
Q 1016 -109 783 600 
Q 550 1309 550 2009 
Q 550 2706 781 3412 
Q 1013 4119 1484 4856 
L 1984 4856 
z
" transform="scale(0.015625)"/>
     <path id="DejaVuSans-3d" d="M 678 2906 
L 4684 2906 
L 4684 2381 
L 678 2381 
L 678 2906 
z
M 678 1631 
L 4684 1631 
L 4684 1100 
L 678 1100 
L 678 1631 
z
" transform="scale(0.015625)"/>
     <path id="DejaVuSans-2d" d="M 313 2009 
L 1997 2009 
L 1997 1497 
L 313 1497 
L 313 2009 
z
" transform="scale(0.015625)"/>
     <path id="DejaVuSans-39" d="M 703 97 
L 703 672 
Q 941 559 1184 500 
Q 1428 441 1663 441 
Q 2288 441 2617 861 
Q 2947 1281 2994 2138 
Q 2813 1869 2534 1725 
Q 2256 1581 1919 1581 
Q 1219 1581 811 2004 
Q 403 2428 403 3163 
Q 403 3881 828 4315 
Q 1253 4750 1959 4750 
Q 2769 4750 3195 4129 
Q 3622 3509 3622 2328 
Q 3622 1225 3098 567 
Q 2575 -91 1691 -91 
Q 1453 -91 1209 -44 
Q 966 3 703 97 
z
M 1959 2075 
Q 2384 2075 2632 2365 
Q 2881 2656 2881 3163 
Q 2881 3666 2632 3958 
Q 2384 4250 1959 4250 
Q 1534 4250 1286 3958 
Q 1038 3666 1038 3163 
Q 1038 2656 1286 2365 
Q 1534 2075 1959 2075 
z
" transform="scale(0.015625)"/>
     <path id="DejaVuSans-29" d="M 513 4856 
L 1013 4856 
Q 1481 4119 1714 3412 
Q 1947 2706 1947 2009 
Q 1947 1309 1714 600 
Q 1481 -109 1013 -844 
L 513 -844 
Q 928 -128 1133 580 
Q 1338 1288 1338 2009 
Q 1338 2731 1133 3434 
Q 928 4138 513 4856 
z
" transform="scale(0.015625)"/>
    </defs>
    <use xlink:href="#DejaVuSans-44"/>
    <use xlink:href="#DejaVuSans-46" x="77.001953"/>
    <use xlink:href="#DejaVuSans-46" x="134.521484"/>
    <use xlink:href="#DejaVuSans-20" x="192.041016"/>
    <use xlink:href="#DejaVuSans-75" x="223.828125"/>
    <use xlink:href="#DejaVuSans-6e" x="287.207031"/>
    <use xlink:href="#DejaVuSans-64" x="350.585938"/>
    <use xlink:href="#DejaVuSans-65" x="414.0625"/>
    <use xlink:href="#DejaVuSans-72" x="475.585938"/>
    <use xlink:href="#DejaVuSans-20" x="516.699219"/>
    <use xlink:href="#DejaVuSans-42" x="548.486328"/>
    <use xlink:href="#DejaVuSans-42" x="617.089844"/>
    <use xlink:href="#DejaVuSans-49" x="685.693359"/>
    <use xlink:href="#DejaVuSans-20" x="715.185547"/>
    <use xlink:href="#DejaVuSans-73" x="746.972656"/>
    <use xlink:href="#DejaVuSans-77" x="799.072266"/>
    <use xlink:href="#DejaVuSans-65" x="880.859375"/>
    <use xlink:href="#DejaVuSans-65" x="942.382812"/>
    <use xlink:href="#DejaVuSans-70" x="1003.90625"/>
    <use xlink:href="#DejaVuSans-20" x="1067.382812"/>
    <use xlink:href="#DejaVuSans-61" x="1099.169922"/>
    <use xlink:href="#DejaVuSans-6e" x="1160.449219"/>
    <use xlink:href="#DejaVuSans-61" x="1223.828125"/>
    <use xlink:href="#DejaVuSans-6c" x="1285.107422"/>
    <use xlink:href="#DejaVuSans-79" x="1312.890625"/>
    <use xlink:href="#DejaVuSans-73" x="1372.070312"/>
    <use xlink:href="#DejaVuSans-69" x="1424.169922"/>
    <use xlink:href="#DejaVuSans-73" x="1451.953125"/>
    <use xlink:href="#DejaVuSans-20" x="1504.052734"/>
    <use xlink:href="#DejaVuSans-28" x="1535.839844"/>
    <use xlink:href="#DejaVuSans-53" x="1574.853516"/>
    <use xlink:href="#DejaVuSans-77" x="1638.330078"/>
    <use xlink:href="#DejaVuSans-65" x="1720.117188"/>
    <use xlink:href="#DejaVuSans-65" x="1781.640625"/>
    <use xlink:href="#DejaVuSans-70" x="1843.164062"/>
    <use xlink:href="#DejaVuSans-20" x="1906.640625"/>
    <use xlink:href="#DejaVuSans-3d" x="1938.427734"/>
    <use xlink:href="#DejaVuSans-20" x="2022.216797"/>
    <use xlink:href="#DejaVuSans-31" x="2054.003906"/>
    <use xlink:href="#DejaVuSans-34" x="2117.626953"/>
    <use xlink:href="#DejaVuSans-45" x="2181.25"/>
    <use xlink:href="#DejaVuSans-2d" x="2244.433594"/>
    <use xlink:href="#DejaVuSans-39" x="2280.517578"/>
    <use xlink:href="#DejaVuSans-29" x="2344.140625"/>
   </g>
  </g>
 </g>
 <defs>
  <clipPath id="p6542c96f85">
   <rect x="100.8" y="38.88" width="887.04" height="92.731034"/>
  </clipPath>
  <clipPath id="p3948dca7e2">
   <rect x="100.8" y="150.157241" width="887.04" height="92.731034"/>
  </clipPath>
  <clipPath id="pda38a21e77">
   <rect x="100.8" y="261.434483" width="887.04" height="92.731034"/>
  </clipPath>
  <clipPath id="pa09a833d61">
   <rect x="100.8" y="372.711724" width="887.04" height="92.731034"/>
  </clipPath>
  <clipPath id="p2b55ea6258">
   <rect x="100.8" y="483.988966" width="887.04" height="92.731034"/>
  </clipPath>
  <clipPath id="p7c3f42485d">
   <rect x="201.6" y="609.12" width="655.2" height="25.92"/>
  </clipPath>
  <clipPath id="pf9a0a7e39f">
   <path d="M 201.6 628.56 
L 856.8 628.56 
L 856.8 615.6 
L 201.6 615.6 
z
"/>
  </clipPath>
 </defs>
</svg>
