<?xml version="1.0" encoding="utf-8" standalone="no"?>
<!DOCTYPE svg PUBLIC "-//W3C//DTD SVG 1.1//EN"
  "http://www.w3.org/Graphics/SVG/1.1/DTD/svg11.dtd">
<svg xmlns:xlink="http://www.w3.org/1999/xlink" width="1008pt" height="648pt" viewBox="0 0 1008 648" xmlns="http://www.w3.org/2000/svg" version="1.1">
 <metadata>
  <rdf:RDF xmlns:dc="http://purl.org/dc/elements/1.1/" xmlns:cc="http://creativecommons.org/ns#" xmlns:rdf="http://www.w3.org/1999/02/22-rdf-syntax-ns#">
   <cc:Work>
    <dc:type rdf:resource="http://purl.org/dc/dcmitype/StillImage"/>
    <dc:date>2024-06-03T10:45:49.490669</dc:date>
    <dc:format>image/svg+xml</dc:format>
    <dc:creator>
     <cc:Agent>
      <dc:title>Matplotlib v3.9.0, https://matplotlib.org/</dc:title>
     </cc:Agent>
    </dc:creator>
   </cc:Work>
  </rdf:RDF>
 </metadata>
 <defs>
  <style type="text/css">*{stroke-linejoin: round; stroke-linecap: butt}</style>
 </defs>
 <g id="figure_1">
  <g id="patch_1">
   <path d="M 0 648 
L 1008 648 
L 1008 0 
L 0 0 
z
" style="fill: #ffffff"/>
  </g>
  <g id="axes_1">
   <g id="patch_2">
    <path d="M 100.8 131.611034 
L 987.84 131.611034 
L 987.84 38.88 
L 100.8 38.88 
z
" style="fill: #eeeeee"/>
   </g>
   <g id="matplotlib.axis_1">
    <g id="xtick_1">
     <g id="line2d_1">
      <path d="M 141.12 131.611034 
L 141.12 38.88 
" clip-path="url(#p65addca681)" style="fill: none; stroke-dasharray: 1.85,0.8; stroke-dashoffset: 0; stroke: #b2b2b2; stroke-width: 0.5"/>
     </g>
     <g id="line2d_2">
      <defs>
       <path id="m5fd6c6d577" d="M 0 0 
L 0 -3.5 
" style="stroke: #000000; stroke-width: 0.8"/>
      </defs>
      <g>
       <use xlink:href="#m5fd6c6d577" x="141.12" y="131.611034" style="stroke: #000000; stroke-width: 0.8"/>
      </g>
     </g>
    </g>
    <g id="xtick_2">
     <g id="line2d_3">
      <path d="M 302.4 131.611034 
L 302.4 38.88 
" clip-path="url(#p65addca681)" style="fill: none; stroke-dasharray: 1.85,0.8; stroke-dashoffset: 0; stroke: #b2b2b2; stroke-width: 0.5"/>
     </g>
     <g id="line2d_4">
      <g>
       <use xlink:href="#m5fd6c6d577" x="302.4" y="131.611034" style="stroke: #000000; stroke-width: 0.8"/>
      </g>
     </g>
    </g>
    <g id="xtick_3">
     <g id="line2d_5">
      <path d="M 463.68 131.611034 
L 463.68 38.88 
" clip-path="url(#p65addca681)" style="fill: none; stroke-dasharray: 1.85,0.8; stroke-dashoffset: 0; stroke: #b2b2b2; stroke-width: 0.5"/>
     </g>
     <g id="line2d_6">
      <g>
       <use xlink:href="#m5fd6c6d577" x="463.68" y="131.611034" style="stroke: #000000; stroke-width: 0.8"/>
      </g>
     </g>
    </g>
    <g id="xtick_4">
     <g id="line2d_7">
      <path d="M 624.96 131.611034 
L 624.96 38.88 
" clip-path="url(#p65addca681)" style="fill: none; stroke-dasharray: 1.85,0.8; stroke-dashoffset: 0; stroke: #b2b2b2; stroke-width: 0.5"/>
     </g>
     <g id="line2d_8">
      <g>
       <use xlink:href="#m5fd6c6d577" x="624.96" y="131.611034" style="stroke: #000000; stroke-width: 0.8"/>
      </g>
     </g>
    </g>
    <g id="xtick_5">
     <g id="line2d_9">
      <path d="M 786.24 131.611034 
L 786.24 38.88 
" clip-path="url(#p65addca681)" style="fill: none; stroke-dasharray: 1.85,0.8; stroke-dashoffset: 0; stroke: #b2b2b2; stroke-width: 0.5"/>
     </g>
     <g id="line2d_10">
      <g>
       <use xlink:href="#m5fd6c6d577" x="786.24" y="131.611034" style="stroke: #000000; stroke-width: 0.8"/>
      </g>
     </g>
    </g>
    <g id="xtick_6">
     <g id="line2d_11">
      <path d="M 947.52 131.611034 
L 947.52 38.88 
" clip-path="url(#p65addca681)" style="fill: none; stroke-dasharray: 1.85,0.8; stroke-dashoffset: 0; stroke: #b2b2b2; stroke-width: 0.5"/>
     </g>
     <g id="line2d_12">
      <g>
       <use xlink:href="#m5fd6c6d577" x="947.52" y="131.611034" style="stroke: #000000; stroke-width: 0.8"/>
      </g>
     </g>
    </g>
   </g>
   <g id="matplotlib.axis_2">
    <g id="ytick_1">
     <g id="line2d_13">
      <path d="M 100.8 98.340394 
L 987.84 98.340394 
" clip-path="url(#p65addca681)" style="fill: none; stroke-dasharray: 1.85,0.8; stroke-dashoffset: 0; stroke: #b2b2b2; stroke-width: 0.5"/>
     </g>
     <g id="line2d_14">
      <defs>
       <path id="m963ebb6297" d="M 0 0 
L 3.5 0 
" style="stroke: #000000; stroke-width: 0.8"/>
      </defs>
      <g>
       <use xlink:href="#m963ebb6297" x="100.8" y="98.340394" style="stroke: #000000; stroke-width: 0.8"/>
      </g>
     </g>
     <g id="text_1">
      <!-- −200 V -->
      <g transform="translate(44.819688 103.6593) scale(0.14 -0.14)">
       <defs>
        <path id="DejaVuSans-2212" d="M 678 2272 
L 4684 2272 
L 4684 1741 
L 678 1741 
L 678 2272 
z
" transform="scale(0.015625)"/>
        <path id="DejaVuSans-32" d="M 1228 531 
L 3431 531 
L 3431 0 
L 469 0 
L 469 531 
Q 828 903 1448 1529 
Q 2069 2156 2228 2338 
Q 2531 2678 2651 2914 
Q 2772 3150 2772 3378 
Q 2772 3750 2511 3984 
Q 2250 4219 1831 4219 
Q 1534 4219 1204 4116 
Q 875 4013 500 3803 
L 500 4441 
Q 881 4594 1212 4672 
Q 1544 4750 1819 4750 
Q 2544 4750 2975 4387 
Q 3406 4025 3406 3419 
Q 3406 3131 3298 2873 
Q 3191 2616 2906 2266 
Q 2828 2175 2409 1742 
Q 1991 1309 1228 531 
z
" transform="scale(0.015625)"/>
        <path id="DejaVuSans-30" d="M 2034 4250 
Q 1547 4250 1301 3770 
Q 1056 3291 1056 2328 
Q 1056 1369 1301 889 
Q 1547 409 2034 409 
Q 2525 409 2770 889 
Q 3016 1369 3016 2328 
Q 3016 3291 2770 3770 
Q 2525 4250 2034 4250 
z
M 2034 4750 
Q 2819 4750 3233 4129 
Q 3647 3509 3647 2328 
Q 3647 1150 3233 529 
Q 2819 -91 2034 -91 
Q 1250 -91 836 529 
Q 422 1150 422 2328 
Q 422 3509 836 4129 
Q 1250 4750 2034 4750 
z
" transform="scale(0.015625)"/>
        <path id="DejaVuSans-20" transform="scale(0.015625)"/>
        <path id="DejaVuSans-56" d="M 1831 0 
L 50 4666 
L 709 4666 
L 2188 738 
L 3669 4666 
L 4325 4666 
L 2547 0 
L 1831 0 
z
" transform="scale(0.015625)"/>
       </defs>
       <use xlink:href="#DejaVuSans-2212"/>
       <use xlink:href="#DejaVuSans-32" x="83.789062"/>
       <use xlink:href="#DejaVuSans-30" x="147.412109"/>
       <use xlink:href="#DejaVuSans-30" x="211.035156"/>
       <use xlink:href="#DejaVuSans-20" x="274.658203"/>
       <use xlink:href="#DejaVuSans-56" x="306.445312"/>
      </g>
     </g>
    </g>
    <g id="ytick_2">
     <g id="line2d_15">
      <path d="M 100.8 45.027377 
L 987.84 45.027377 
" clip-path="url(#p65addca681)" style="fill: none; stroke-dasharray: 1.85,0.8; stroke-dashoffset: 0; stroke: #b2b2b2; stroke-width: 0.5"/>
     </g>
     <g id="line2d_16">
      <g>
       <use xlink:href="#m963ebb6297" x="100.8" y="45.027377" style="stroke: #000000; stroke-width: 0.8"/>
      </g>
     </g>
     <g id="text_2">
      <!-- 0 V -->
      <g transform="translate(74.36625 50.346284) scale(0.14 -0.14)">
       <use xlink:href="#DejaVuSans-30"/>
       <use xlink:href="#DejaVuSans-20" x="63.623047"/>
       <use xlink:href="#DejaVuSans-56" x="95.410156"/>
      </g>
     </g>
    </g>
    <g id="text_3">
     <g id="patch_3">
      <path d="M 34.8768 131.080205 
L 34.8768 39.41083 
L 11.247425 39.41083 
L 11.247425 131.080205 
z
" style="fill: #ffff00; opacity: 0.2; stroke: #eeeeee; stroke-width: 0.5; stroke-linejoin: miter"/>
     </g>
     <!-- VPULSE BBI -->
     <g transform="translate(26.925238 126.040205) rotate(-90) scale(0.14 -0.14)">
      <defs>
       <path id="DejaVuSans-50" d="M 1259 4147 
L 1259 2394 
L 2053 2394 
Q 2494 2394 2734 2622 
Q 2975 2850 2975 3272 
Q 2975 3691 2734 3919 
Q 2494 4147 2053 4147 
L 1259 4147 
z
M 628 4666 
L 2053 4666 
Q 2838 4666 3239 4311 
Q 3641 3956 3641 3272 
Q 3641 2581 3239 2228 
Q 2838 1875 2053 1875 
L 1259 1875 
L 1259 0 
L 628 0 
L 628 4666 
z
" transform="scale(0.015625)"/>
       <path id="DejaVuSans-55" d="M 556 4666 
L 1191 4666 
L 1191 1831 
Q 1191 1081 1462 751 
Q 1734 422 2344 422 
Q 2950 422 3222 751 
Q 3494 1081 3494 1831 
L 3494 4666 
L 4128 4666 
L 4128 1753 
Q 4128 841 3676 375 
Q 3225 -91 2344 -91 
Q 1459 -91 1007 375 
Q 556 841 556 1753 
L 556 4666 
z
" transform="scale(0.015625)"/>
       <path id="DejaVuSans-4c" d="M 628 4666 
L 1259 4666 
L 1259 531 
L 3531 531 
L 3531 0 
L 628 0 
L 628 4666 
z
" transform="scale(0.015625)"/>
       <path id="DejaVuSans-53" d="M 3425 4513 
L 3425 3897 
Q 3066 4069 2747 4153 
Q 2428 4238 2131 4238 
Q 1616 4238 1336 4038 
Q 1056 3838 1056 3469 
Q 1056 3159 1242 3001 
Q 1428 2844 1947 2747 
L 2328 2669 
Q 3034 2534 3370 2195 
Q 3706 1856 3706 1288 
Q 3706 609 3251 259 
Q 2797 -91 1919 -91 
Q 1588 -91 1214 -16 
Q 841 59 441 206 
L 441 856 
Q 825 641 1194 531 
Q 1563 422 1919 422 
Q 2459 422 2753 634 
Q 3047 847 3047 1241 
Q 3047 1584 2836 1778 
Q 2625 1972 2144 2069 
L 1759 2144 
Q 1053 2284 737 2584 
Q 422 2884 422 3419 
Q 422 4038 858 4394 
Q 1294 4750 2059 4750 
Q 2388 4750 2728 4690 
Q 3069 4631 3425 4513 
z
" transform="scale(0.015625)"/>
       <path id="DejaVuSans-45" d="M 628 4666 
L 3578 4666 
L 3578 4134 
L 1259 4134 
L 1259 2753 
L 3481 2753 
L 3481 2222 
L 1259 2222 
L 1259 531 
L 3634 531 
L 3634 0 
L 628 0 
L 628 4666 
z
" transform="scale(0.015625)"/>
       <path id="DejaVuSans-42" d="M 1259 2228 
L 1259 519 
L 2272 519 
Q 2781 519 3026 730 
Q 3272 941 3272 1375 
Q 3272 1813 3026 2020 
Q 2781 2228 2272 2228 
L 1259 2228 
z
M 1259 4147 
L 1259 2741 
L 2194 2741 
Q 2656 2741 2882 2914 
Q 3109 3088 3109 3444 
Q 3109 3797 2882 3972 
Q 2656 4147 2194 4147 
L 1259 4147 
z
M 628 4666 
L 2241 4666 
Q 2963 4666 3353 4366 
Q 3744 4066 3744 3513 
Q 3744 3084 3544 2831 
Q 3344 2578 2956 2516 
Q 3422 2416 3680 2098 
Q 3938 1781 3938 1306 
Q 3938 681 3513 340 
Q 3088 0 2303 0 
L 628 0 
L 628 4666 
z
" transform="scale(0.015625)"/>
       <path id="DejaVuSans-49" d="M 628 4666 
L 1259 4666 
L 1259 0 
L 628 0 
L 628 4666 
z
" transform="scale(0.015625)"/>
      </defs>
      <use xlink:href="#DejaVuSans-56"/>
      <use xlink:href="#DejaVuSans-50" x="68.408203"/>
      <use xlink:href="#DejaVuSans-55" x="128.710938"/>
      <use xlink:href="#DejaVuSans-4c" x="201.904297"/>
      <use xlink:href="#DejaVuSans-53" x="257.617188"/>
      <use xlink:href="#DejaVuSans-45" x="321.09375"/>
      <use xlink:href="#DejaVuSans-20" x="384.277344"/>
      <use xlink:href="#DejaVuSans-42" x="416.064453"/>
      <use xlink:href="#DejaVuSans-42" x="484.667969"/>
      <use xlink:href="#DejaVuSans-49" x="553.271484"/>
     </g>
    </g>
   </g>
   <g id="line2d_17">
    <path d="M 141.12 45.027377 
L 489.517056 45.136282 
L 490.000896 46.425538 
L 498.226176 69.006772 
L 505.645056 89.863624 
L 507.257856 94.440546 
L 509.064192 99.673219 
L 512.54784 110.807642 
L 514.128384 115.853719 
L 515.354112 119.550977 
L 519.257088 121.36362 
L 519.837696 121.619522 
L 520.708608 122.003376 
L 521.353728 122.269941 
L 522.934272 122.936354 
L 523.579392 123.202919 
L 524.676096 123.629423 
L 525.417984 123.922644 
L 526.514688 124.349149 
L 527.417856 124.677024 
L 528.095232 124.943589 
L 528.901632 125.25547 
L 530.256384 125.804594 
L 532.901376 126.790885 
L 533.51424 127.022796 
L 535.4496 127.395987 
L 553.932288 127.289361 
L 554.15808 126.801547 
L 572.447232 75.087922 
L 576.188928 63.292417 
L 579.898368 51.617666 
L 584.510976 49.3412 
L 589.865472 46.984578 
L 598.574592 43.484472 
L 599.445504 43.268927 
L 613.734912 43.108189 
L 620.540928 43.184799 
L 635.894784 43.746186 
L 663.6672 44.46146 
L 689.31072 44.774399 
L 724.921344 44.945888 
L 772.950528 44.953885 
L 947.52 44.953885 
L 947.52 44.953885 
" clip-path="url(#p65addca681)" style="fill: none; stroke: #ff0000; stroke-width: 2; stroke-linecap: square"/>
   </g>
   <g id="patch_4">
    <path d="M 100.8 131.611034 
L 100.8 38.88 
" style="fill: none; stroke: #bcbcbc; stroke-width: 0.8; stroke-linejoin: miter; stroke-linecap: square"/>
   </g>
   <g id="patch_5">
    <path d="M 987.84 131.611034 
L 987.84 38.88 
" style="fill: none; stroke: #bcbcbc; stroke-width: 0.8; stroke-linejoin: miter; stroke-linecap: square"/>
   </g>
   <g id="patch_6">
    <path d="M 100.8 131.611034 
L 987.84 131.611034 
" style="fill: none; stroke: #bcbcbc; stroke-width: 0.8; stroke-linejoin: miter; stroke-linecap: square"/>
   </g>
   <g id="patch_7">
    <path d="M 100.8 38.88 
L 987.84 38.88 
" style="fill: none; stroke: #bcbcbc; stroke-width: 0.8; stroke-linejoin: miter; stroke-linecap: square"/>
   </g>
  </g>
  <g id="axes_2">
   <g id="patch_8">
    <path d="M 100.8 242.888276 
L 987.84 242.888276 
L 987.84 150.157241 
L 100.8 150.157241 
z
" style="fill: #eeeeee"/>
   </g>
   <g id="matplotlib.axis_3">
    <g id="xtick_7">
     <g id="line2d_18">
      <path d="M 141.12 242.888276 
L 141.12 150.157241 
" clip-path="url(#pdf4d511cb2)" style="fill: none; stroke-dasharray: 1.85,0.8; stroke-dashoffset: 0; stroke: #b2b2b2; stroke-width: 0.5"/>
     </g>
     <g id="line2d_19">
      <g>
       <use xlink:href="#m5fd6c6d577" x="141.12" y="242.888276" style="stroke: #000000; stroke-width: 0.8"/>
      </g>
     </g>
    </g>
    <g id="xtick_8">
     <g id="line2d_20">
      <path d="M 302.4 242.888276 
L 302.4 150.157241 
" clip-path="url(#pdf4d511cb2)" style="fill: none; stroke-dasharray: 1.85,0.8; stroke-dashoffset: 0; stroke: #b2b2b2; stroke-width: 0.5"/>
     </g>
     <g id="line2d_21">
      <g>
       <use xlink:href="#m5fd6c6d577" x="302.4" y="242.888276" style="stroke: #000000; stroke-width: 0.8"/>
      </g>
     </g>
    </g>
    <g id="xtick_9">
     <g id="line2d_22">
      <path d="M 463.68 242.888276 
L 463.68 150.157241 
" clip-path="url(#pdf4d511cb2)" style="fill: none; stroke-dasharray: 1.85,0.8; stroke-dashoffset: 0; stroke: #b2b2b2; stroke-width: 0.5"/>
     </g>
     <g id="line2d_23">
      <g>
       <use xlink:href="#m5fd6c6d577" x="463.68" y="242.888276" style="stroke: #000000; stroke-width: 0.8"/>
      </g>
     </g>
    </g>
    <g id="xtick_10">
     <g id="line2d_24">
      <path d="M 624.96 242.888276 
L 624.96 150.157241 
" clip-path="url(#pdf4d511cb2)" style="fill: none; stroke-dasharray: 1.85,0.8; stroke-dashoffset: 0; stroke: #b2b2b2; stroke-width: 0.5"/>
     </g>
     <g id="line2d_25">
      <g>
       <use xlink:href="#m5fd6c6d577" x="624.96" y="242.888276" style="stroke: #000000; stroke-width: 0.8"/>
      </g>
     </g>
    </g>
    <g id="xtick_11">
     <g id="line2d_26">
      <path d="M 786.24 242.888276 
L 786.24 150.157241 
" clip-path="url(#pdf4d511cb2)" style="fill: none; stroke-dasharray: 1.85,0.8; stroke-dashoffset: 0; stroke: #b2b2b2; stroke-width: 0.5"/>
     </g>
     <g id="line2d_27">
      <g>
       <use xlink:href="#m5fd6c6d577" x="786.24" y="242.888276" style="stroke: #000000; stroke-width: 0.8"/>
      </g>
     </g>
    </g>
    <g id="xtick_12">
     <g id="line2d_28">
      <path d="M 947.52 242.888276 
L 947.52 150.157241 
" clip-path="url(#pdf4d511cb2)" style="fill: none; stroke-dasharray: 1.85,0.8; stroke-dashoffset: 0; stroke: #b2b2b2; stroke-width: 0.5"/>
     </g>
     <g id="line2d_29">
      <g>
       <use xlink:href="#m5fd6c6d577" x="947.52" y="242.888276" style="stroke: #000000; stroke-width: 0.8"/>
      </g>
     </g>
    </g>
   </g>
   <g id="matplotlib.axis_4">
    <g id="ytick_3">
     <g id="line2d_30">
      <path d="M 100.8 219.989154 
L 987.84 219.989154 
" clip-path="url(#pdf4d511cb2)" style="fill: none; stroke-dasharray: 1.85,0.8; stroke-dashoffset: 0; stroke: #b2b2b2; stroke-width: 0.5"/>
     </g>
     <g id="line2d_31">
      <g>
       <use xlink:href="#m963ebb6297" x="100.8" y="219.989154" style="stroke: #000000; stroke-width: 0.8"/>
      </g>
     </g>
     <g id="text_4">
      <!-- 0 V -->
      <g transform="translate(74.36625 225.30806) scale(0.14 -0.14)">
       <use xlink:href="#DejaVuSans-30"/>
       <use xlink:href="#DejaVuSans-20" x="63.623047"/>
       <use xlink:href="#DejaVuSans-56" x="95.410156"/>
      </g>
     </g>
    </g>
    <g id="ytick_4">
     <g id="line2d_32">
      <path d="M 100.8 187.657611 
L 987.84 187.657611 
" clip-path="url(#pdf4d511cb2)" style="fill: none; stroke-dasharray: 1.85,0.8; stroke-dashoffset: 0; stroke: #b2b2b2; stroke-width: 0.5"/>
     </g>
     <g id="line2d_33">
      <g>
       <use xlink:href="#m963ebb6297" x="100.8" y="187.657611" style="stroke: #000000; stroke-width: 0.8"/>
      </g>
     </g>
     <g id="text_5">
      <!-- 1 V -->
      <g transform="translate(74.36625 192.976518) scale(0.14 -0.14)">
       <defs>
        <path id="DejaVuSans-31" d="M 794 531 
L 1825 531 
L 1825 4091 
L 703 3866 
L 703 4441 
L 1819 4666 
L 2450 4666 
L 2450 531 
L 3481 531 
L 3481 0 
L 794 0 
L 794 531 
z
" transform="scale(0.015625)"/>
       </defs>
       <use xlink:href="#DejaVuSans-31"/>
       <use xlink:href="#DejaVuSans-20" x="63.623047"/>
       <use xlink:href="#DejaVuSans-56" x="95.410156"/>
      </g>
     </g>
    </g>
    <g id="ytick_5">
     <g id="line2d_34">
      <path d="M 100.8 155.326069 
L 987.84 155.326069 
" clip-path="url(#pdf4d511cb2)" style="fill: none; stroke-dasharray: 1.85,0.8; stroke-dashoffset: 0; stroke: #b2b2b2; stroke-width: 0.5"/>
     </g>
     <g id="line2d_35">
      <g>
       <use xlink:href="#m963ebb6297" x="100.8" y="155.326069" style="stroke: #000000; stroke-width: 0.8"/>
      </g>
     </g>
     <g id="text_6">
      <!-- 2 V -->
      <g transform="translate(74.36625 160.644975) scale(0.14 -0.14)">
       <use xlink:href="#DejaVuSans-32"/>
       <use xlink:href="#DejaVuSans-20" x="63.623047"/>
       <use xlink:href="#DejaVuSans-56" x="95.410156"/>
      </g>
     </g>
    </g>
    <g id="text_7">
     <g id="patch_9">
      <path d="M 34.8768 224.531509 
L 34.8768 168.514009 
L 11.247425 168.514009 
L 11.247425 224.531509 
z
" style="fill: #ffff00; opacity: 0.2; stroke: #eeeeee; stroke-width: 0.5; stroke-linejoin: miter"/>
     </g>
     <!-- DFF IN -->
     <g transform="translate(26.925238 219.491509) rotate(-90) scale(0.14 -0.14)">
      <defs>
       <path id="DejaVuSans-44" d="M 1259 4147 
L 1259 519 
L 2022 519 
Q 2988 519 3436 956 
Q 3884 1394 3884 2338 
Q 3884 3275 3436 3711 
Q 2988 4147 2022 4147 
L 1259 4147 
z
M 628 4666 
L 1925 4666 
Q 3281 4666 3915 4102 
Q 4550 3538 4550 2338 
Q 4550 1131 3912 565 
Q 3275 0 1925 0 
L 628 0 
L 628 4666 
z
" transform="scale(0.015625)"/>
       <path id="DejaVuSans-46" d="M 628 4666 
L 3309 4666 
L 3309 4134 
L 1259 4134 
L 1259 2759 
L 3109 2759 
L 3109 2228 
L 1259 2228 
L 1259 0 
L 628 0 
L 628 4666 
z
" transform="scale(0.015625)"/>
       <path id="DejaVuSans-4e" d="M 628 4666 
L 1478 4666 
L 3547 763 
L 3547 4666 
L 4159 4666 
L 4159 0 
L 3309 0 
L 1241 3903 
L 1241 0 
L 628 0 
L 628 4666 
z
" transform="scale(0.015625)"/>
      </defs>
      <use xlink:href="#DejaVuSans-44"/>
      <use xlink:href="#DejaVuSans-46" x="77.001953"/>
      <use xlink:href="#DejaVuSans-46" x="134.521484"/>
      <use xlink:href="#DejaVuSans-20" x="192.041016"/>
      <use xlink:href="#DejaVuSans-49" x="223.828125"/>
      <use xlink:href="#DejaVuSans-4e" x="253.320312"/>
     </g>
    </g>
   </g>
   <g id="line2d_36">
    <path d="M 141.12 219.941937 
L 221.953536 219.897601 
L 224.437248 201.882843 
L 225.404928 196.402647 
L 228.243456 184.353328 
L 229.598208 183.144128 
L 231.178752 182.313207 
L 236.59776 181.879965 
L 243.758592 181.770037 
L 245.274624 181.728006 
L 248.564736 181.618079 
L 250.371072 181.54695 
L 252.499968 181.437023 
L 254.209536 181.184837 
L 254.725632 180.651366 
L 255.370752 180.331284 
L 255.886848 180.279553 
L 257.596416 180.560838 
L 260.080128 180.945583 
L 262.370304 181.06521 
L 263.886336 181.113707 
L 264.144384 186.099231 
L 264.434688 189.491456 
L 265.176576 194.010436 
L 267.144192 210.505019 
L 268.402176 216.698126 
L 269.079552 217.960996 
L 270.46656 219.59652 
L 273.756672 219.990348 
L 282.756096 219.947278 
L 297.335808 219.932806 
L 306.238464 219.941268 
L 347.751936 219.899214 
L 350.235648 201.920995 
L 351.622656 193.701347 
L 352.687104 188.569684 
L 354.97728 182.009291 
L 358.493184 181.058744 
L 360.29952 181.129873 
L 363.267072 181.2398 
L 364.525056 181.255966 
L 375.169536 181.327095 
L 375.717888 182.271176 
L 376.169472 182.985703 
L 377.008128 183.848956 
L 377.55648 183.793992 
L 378.749952 183.328418 
L 380.45952 182.426368 
L 381.620736 182.08042 
L 383.427072 181.831467 
L 386.201088 181.663343 
L 389.039616 181.553416 
L 391.297536 181.437023 
L 393.813504 181.327095 
L 395.361792 181.281831 
L 415.360512 181.197769 
L 416.489472 180.311885 
L 417.07008 180.250455 
L 417.908736 180.353916 
L 419.198976 180.628734 
L 420.973056 180.871221 
L 424.037376 181.068443 
L 455.712768 181.165438 
L 456.809472 182.012524 
L 457.261056 182.08042 
L 458.712576 182.119218 
L 462.809088 181.59868 
L 464.260608 181.420857 
L 467.55072 181.201002 
L 489.549312 181.272132 
L 490.097664 182.229145 
L 490.93632 183.600003 
L 492.06528 185.100186 
L 496.452096 190.637933 
L 497.452032 191.823531 
L 498.3552 193.141364 
L 498.83904 194.171124 
L 499.838976 197.629629 
L 502.806528 209.441635 
L 503.451648 212.038827 
L 504.354816 215.133279 
L 504.741888 216.607598 
L 506.225664 221.515655 
L 506.515968 222.222002 
L 507.032064 223.826261 
L 507.2256 224.162509 
L 508.096512 226.164478 
L 508.386816 226.483591 
L 508.741632 226.883532 
L 508.99968 227.508501 
L 510.870528 231.231801 
L 510.999552 231.449069 
L 511.354368 231.918846 
L 513.51552 235.746578 
L 513.6768 236.051787 
L 514.063872 236.777954 
L 515.225088 238.423306 
L 515.547648 238.639281 
L 516.160512 237.779585 
L 516.57984 237.147503 
L 516.934656 236.444939 
L 517.031424 236.397088 
L 517.7088 235.664779 
L 518.095872 235.251905 
L 518.773248 234.359554 
L 520.708608 232.621734 
L 521.127936 231.985126 
L 521.41824 231.852243 
L 521.676288 231.708368 
L 521.998848 231.507266 
L 522.289152 231.358541 
L 523.256832 230.466513 
L 523.579392 230.051376 
L 523.869696 229.832815 
L 524.385792 229.487838 
L 525.676032 228.575765 
L 526.25664 227.952413 
L 526.643712 227.34458 
L 527.030784 227.200704 
L 527.22432 227.145094 
L 527.450112 227.0911 
L 527.901696 226.793327 
L 529.546752 225.502328 
L 529.933824 224.951722 
L 530.159616 224.922624 
L 530.93376 224.559864 
L 532.86912 223.146846 
L 534.514176 221.870623 
L 535.12704 221.262984 
L 536.223744 219.897368 
L 537.0624 218.807889 
L 537.8688 217.738135 
L 538.449408 216.96373 
L 541.997568 212.65442 
L 543.642624 211.002925 
L 543.868416 210.636608 
L 544.352256 209.325564 
L 546.158592 204.448675 
L 547.126272 202.60804 
L 550.190592 198.489648 
L 553.125888 195.498657 
L 554.029056 194.584321 
L 554.545152 193.018828 
L 555.738624 189.205322 
L 556.57728 187.32783 
L 557.512704 185.779149 
L 558.641664 184.278965 
L 560.448 182.106286 
L 562.22208 179.985336 
L 567.189504 173.690385 
L 568.318464 172.287196 
L 569.415168 170.935738 
L 576.640512 162.167423 
L 576.89856 160.256629 
L 577.414656 157.579577 
L 577.963008 155.969467 
L 578.51136 155.099748 
L 579.059712 154.643873 
L 579.769344 154.385221 
L 579.930624 154.540412 
L 580.704768 155.814275 
L 581.285376 156.599932 
L 581.995008 157.28536 
L 582.898176 157.867328 
L 584.930304 158.766145 
L 585.543168 158.998932 
L 588.51072 160.069106 
L 590.44608 160.764234 
L 590.92992 160.932358 
L 591.704064 161.197477 
L 593.252352 161.698616 
L 599.63904 163.72257 
L 600.348672 164.087917 
L 602.54208 165.067563 
L 603.02592 165.271251 
L 603.50976 165.481406 
L 611.928576 168.737193 
L 612.799488 169.024943 
L 614.444544 169.56488 
L 616.992768 170.4055 
L 617.7024 172.277497 
L 618.121728 173.253909 
L 618.541056 174.356415 
L 618.766848 174.469575 
L 619.089408 174.327316 
L 621.153792 172.807734 
L 622.089216 172.63961 
L 624.282624 172.749537 
L 625.863168 172.953226 
L 626.508288 173.05992 
L 627.475968 173.247443 
L 627.798528 173.315339 
L 628.862976 173.525494 
L 629.895168 173.738882 
L 631.282176 174.042799 
L 640.2816 175.733738 
L 640.700928 175.795168 
L 641.604096 175.956826 
L 642.05568 176.021489 
L 644.507136 176.399768 
L 646.990848 176.758648 
L 648.797184 177.007601 
L 654.409728 177.680097 
L 655.6032 177.80619 
L 656.73216 177.916118 
L 657.280512 177.977548 
L 658.0224 177.240388 
L 658.635264 177.111062 
L 659.280384 177.220989 
L 659.731968 177.366481 
L 660.667392 177.712429 
L 663.118848 178.336428 
L 665.021952 178.608013 
L 666.150912 178.714707 
L 666.763776 178.785836 
L 668.054016 178.895763 
L 671.989248 179.180281 
L 673.82784 179.290208 
L 676.343808 179.4357 
L 677.117952 179.468032 
L 679.537152 179.600591 
L 680.27904 179.632923 
L 682.53696 179.749316 
L 685.310976 179.859243 
L 687.246336 179.943305 
L 690.407424 180.053233 
L 691.987968 180.104963 
L 692.762112 180.137295 
L 696.40704 180.247222 
L 696.826368 180.260154 
L 697.69728 180.370082 
L 698.148864 180.89062 
L 698.600448 181.152505 
L 699.568128 181.336795 
L 700.729344 181.113707 
L 701.793792 180.803324 
L 703.277568 180.612568 
L 704.14848 180.589936 
L 715.502592 180.699863 
L 716.792832 180.722495 
L 717.760512 180.735428 
L 726.114816 180.842122 
L 726.663168 180.838889 
L 738.01728 180.751594 
L 738.565632 180.21489 
L 739.243008 179.988569 
L 740.404224 179.972404 
L 741.758976 180.266621 
L 744.178176 180.638433 
L 746.436096 180.754827 
L 778.272768 180.842122 
L 779.208192 181.637478 
L 780.143616 181.808835 
L 782.272512 181.698908 
L 784.078848 181.407924 
L 785.401344 181.255966 
L 789.94944 180.910018 
L 818.592768 180.842122 
L 819.14112 180.256921 
L 819.689472 179.995036 
L 821.657088 180.104963 
L 823.01184 180.39918 
L 824.689152 180.622268 
L 827.108352 180.754827 
L 858.912768 180.842122 
L 859.848192 181.637478 
L 860.783616 181.808835 
L 862.106112 181.831467 
L 863.912448 181.540484 
L 865.718784 181.291531 
L 870.653952 180.906785 
L 899.265024 180.796858 
L 899.78112 180.256921 
L 900.329472 179.995036 
L 902.297088 180.104963 
L 903.65184 180.39918 
L 905.329152 180.622268 
L 907.748352 180.754827 
L 939.552768 180.842122 
L 940.617216 181.666577 
L 941.584896 181.8444 
L 943.488 181.737706 
L 946.584576 181.230101 
L 947.52 181.091075 
L 947.52 181.091075 
" clip-path="url(#pdf4d511cb2)" style="fill: none; stroke: #008000; stroke-width: 2; stroke-linecap: square"/>
   </g>
   <g id="patch_10">
    <path d="M 100.8 242.888276 
L 100.8 150.157241 
" style="fill: none; stroke: #bcbcbc; stroke-width: 0.8; stroke-linejoin: miter; stroke-linecap: square"/>
   </g>
   <g id="patch_11">
    <path d="M 987.84 242.888276 
L 987.84 150.157241 
" style="fill: none; stroke: #bcbcbc; stroke-width: 0.8; stroke-linejoin: miter; stroke-linecap: square"/>
   </g>
   <g id="patch_12">
    <path d="M 100.8 242.888276 
L 987.84 242.888276 
" style="fill: none; stroke: #bcbcbc; stroke-width: 0.8; stroke-linejoin: miter; stroke-linecap: square"/>
   </g>
   <g id="patch_13">
    <path d="M 100.8 150.157241 
L 987.84 150.157241 
" style="fill: none; stroke: #bcbcbc; stroke-width: 0.8; stroke-linejoin: miter; stroke-linecap: square"/>
   </g>
  </g>
  <g id="axes_3">
   <g id="patch_14">
    <path d="M 100.8 354.165517 
L 987.84 354.165517 
L 987.84 261.434483 
L 100.8 261.434483 
z
" style="fill: #eeeeee"/>
   </g>
   <g id="matplotlib.axis_5">
    <g id="xtick_13">
     <g id="line2d_37">
      <path d="M 141.12 354.165517 
L 141.12 261.434483 
" clip-path="url(#p2a1b33cf20)" style="fill: none; stroke-dasharray: 1.85,0.8; stroke-dashoffset: 0; stroke: #b2b2b2; stroke-width: 0.5"/>
     </g>
     <g id="line2d_38">
      <g>
       <use xlink:href="#m5fd6c6d577" x="141.12" y="354.165517" style="stroke: #000000; stroke-width: 0.8"/>
      </g>
     </g>
    </g>
    <g id="xtick_14">
     <g id="line2d_39">
      <path d="M 302.4 354.165517 
L 302.4 261.434483 
" clip-path="url(#p2a1b33cf20)" style="fill: none; stroke-dasharray: 1.85,0.8; stroke-dashoffset: 0; stroke: #b2b2b2; stroke-width: 0.5"/>
     </g>
     <g id="line2d_40">
      <g>
       <use xlink:href="#m5fd6c6d577" x="302.4" y="354.165517" style="stroke: #000000; stroke-width: 0.8"/>
      </g>
     </g>
    </g>
    <g id="xtick_15">
     <g id="line2d_41">
      <path d="M 463.68 354.165517 
L 463.68 261.434483 
" clip-path="url(#p2a1b33cf20)" style="fill: none; stroke-dasharray: 1.85,0.8; stroke-dashoffset: 0; stroke: #b2b2b2; stroke-width: 0.5"/>
     </g>
     <g id="line2d_42">
      <g>
       <use xlink:href="#m5fd6c6d577" x="463.68" y="354.165517" style="stroke: #000000; stroke-width: 0.8"/>
      </g>
     </g>
    </g>
    <g id="xtick_16">
     <g id="line2d_43">
      <path d="M 624.96 354.165517 
L 624.96 261.434483 
" clip-path="url(#p2a1b33cf20)" style="fill: none; stroke-dasharray: 1.85,0.8; stroke-dashoffset: 0; stroke: #b2b2b2; stroke-width: 0.5"/>
     </g>
     <g id="line2d_44">
      <g>
       <use xlink:href="#m5fd6c6d577" x="624.96" y="354.165517" style="stroke: #000000; stroke-width: 0.8"/>
      </g>
     </g>
    </g>
    <g id="xtick_17">
     <g id="line2d_45">
      <path d="M 786.24 354.165517 
L 786.24 261.434483 
" clip-path="url(#p2a1b33cf20)" style="fill: none; stroke-dasharray: 1.85,0.8; stroke-dashoffset: 0; stroke: #b2b2b2; stroke-width: 0.5"/>
     </g>
     <g id="line2d_46">
      <g>
       <use xlink:href="#m5fd6c6d577" x="786.24" y="354.165517" style="stroke: #000000; stroke-width: 0.8"/>
      </g>
     </g>
    </g>
    <g id="xtick_18">
     <g id="line2d_47">
      <path d="M 947.52 354.165517 
L 947.52 261.434483 
" clip-path="url(#p2a1b33cf20)" style="fill: none; stroke-dasharray: 1.85,0.8; stroke-dashoffset: 0; stroke: #b2b2b2; stroke-width: 0.5"/>
     </g>
     <g id="line2d_48">
      <g>
       <use xlink:href="#m5fd6c6d577" x="947.52" y="354.165517" style="stroke: #000000; stroke-width: 0.8"/>
      </g>
     </g>
    </g>
   </g>
   <g id="matplotlib.axis_6">
    <g id="ytick_6">
     <g id="line2d_49">
      <path d="M 100.8 348.435941 
L 987.84 348.435941 
" clip-path="url(#p2a1b33cf20)" style="fill: none; stroke-dasharray: 1.85,0.8; stroke-dashoffset: 0; stroke: #b2b2b2; stroke-width: 0.5"/>
     </g>
     <g id="line2d_50">
      <g>
       <use xlink:href="#m963ebb6297" x="100.8" y="348.435941" style="stroke: #000000; stroke-width: 0.8"/>
      </g>
     </g>
     <g id="text_8">
      <!-- 0 V -->
      <g transform="translate(74.36625 353.754847) scale(0.14 -0.14)">
       <use xlink:href="#DejaVuSans-30"/>
       <use xlink:href="#DejaVuSans-20" x="63.623047"/>
       <use xlink:href="#DejaVuSans-56" x="95.410156"/>
      </g>
     </g>
    </g>
    <g id="ytick_7">
     <g id="line2d_51">
      <path d="M 100.8 305.479107 
L 987.84 305.479107 
" clip-path="url(#p2a1b33cf20)" style="fill: none; stroke-dasharray: 1.85,0.8; stroke-dashoffset: 0; stroke: #b2b2b2; stroke-width: 0.5"/>
     </g>
     <g id="line2d_52">
      <g>
       <use xlink:href="#m963ebb6297" x="100.8" y="305.479107" style="stroke: #000000; stroke-width: 0.8"/>
      </g>
     </g>
     <g id="text_9">
      <!-- 1 V -->
      <g transform="translate(74.36625 310.798013) scale(0.14 -0.14)">
       <use xlink:href="#DejaVuSans-31"/>
       <use xlink:href="#DejaVuSans-20" x="63.623047"/>
       <use xlink:href="#DejaVuSans-56" x="95.410156"/>
      </g>
     </g>
    </g>
    <g id="ytick_8">
     <g id="line2d_53">
      <path d="M 100.8 262.522272 
L 987.84 262.522272 
" clip-path="url(#p2a1b33cf20)" style="fill: none; stroke-dasharray: 1.85,0.8; stroke-dashoffset: 0; stroke: #b2b2b2; stroke-width: 0.5"/>
     </g>
     <g id="line2d_54">
      <g>
       <use xlink:href="#m963ebb6297" x="100.8" y="262.522272" style="stroke: #000000; stroke-width: 0.8"/>
      </g>
     </g>
     <g id="text_10">
      <!-- 2 V -->
      <g transform="translate(74.36625 267.841178) scale(0.14 -0.14)">
       <use xlink:href="#DejaVuSans-32"/>
       <use xlink:href="#DejaVuSans-20" x="63.623047"/>
       <use xlink:href="#DejaVuSans-56" x="95.410156"/>
      </g>
     </g>
    </g>
    <g id="text_11">
     <g id="patch_15">
      <path d="M 34.8768 342.395313 
L 34.8768 273.204688 
L 11.247425 273.204688 
L 11.247425 342.395313 
z
" style="fill: #ffff00; opacity: 0.2; stroke: #eeeeee; stroke-width: 0.5; stroke-linejoin: miter"/>
     </g>
     <!-- CLK BUF -->
     <g transform="translate(26.925238 337.355313) rotate(-90) scale(0.14 -0.14)">
      <defs>
       <path id="DejaVuSans-43" d="M 4122 4306 
L 4122 3641 
Q 3803 3938 3442 4084 
Q 3081 4231 2675 4231 
Q 1875 4231 1450 3742 
Q 1025 3253 1025 2328 
Q 1025 1406 1450 917 
Q 1875 428 2675 428 
Q 3081 428 3442 575 
Q 3803 722 4122 1019 
L 4122 359 
Q 3791 134 3420 21 
Q 3050 -91 2638 -91 
Q 1578 -91 968 557 
Q 359 1206 359 2328 
Q 359 3453 968 4101 
Q 1578 4750 2638 4750 
Q 3056 4750 3426 4639 
Q 3797 4528 4122 4306 
z
" transform="scale(0.015625)"/>
       <path id="DejaVuSans-4b" d="M 628 4666 
L 1259 4666 
L 1259 2694 
L 3353 4666 
L 4166 4666 
L 1850 2491 
L 4331 0 
L 3500 0 
L 1259 2247 
L 1259 0 
L 628 0 
L 628 4666 
z
" transform="scale(0.015625)"/>
      </defs>
      <use xlink:href="#DejaVuSans-43"/>
      <use xlink:href="#DejaVuSans-4c" x="69.824219"/>
      <use xlink:href="#DejaVuSans-4b" x="125.537109"/>
      <use xlink:href="#DejaVuSans-20" x="191.113281"/>
      <use xlink:href="#DejaVuSans-42" x="222.900391"/>
      <use xlink:href="#DejaVuSans-55" x="291.503906"/>
      <use xlink:href="#DejaVuSans-46" x="364.697266"/>
     </g>
    </g>
   </g>
   <g id="line2d_55">
    <path d="M 141.12 348.434805 
L 173.376 348.434805 
L 173.601792 296.88774 
L 213.696 296.88774 
L 213.760512 338.005592 
L 213.825024 348.416316 
L 213.889536 348.354499 
L 213.954048 348.526108 
L 214.01856 348.440596 
L 215.373312 348.431155 
L 223.469568 348.434755 
L 254.016 348.434776 
L 254.17728 296.728799 
L 254.241792 297.003723 
L 254.403072 296.879148 
L 254.854656 296.88774 
L 294.336 296.88774 
L 294.400512 337.969508 
L 294.465024 348.756489 
L 294.529536 348.009629 
L 294.626304 348.503448 
L 294.65856 348.47288 
L 294.852096 348.397377 
L 295.206912 348.451573 
L 295.497216 348.434471 
L 320.721408 348.434804 
L 334.656 348.434807 
L 334.81728 296.810417 
L 334.881792 296.904923 
L 335.204352 296.892035 
L 336.075264 296.88774 
L 374.976 296.88774 
L 375.040512 338.009458 
L 375.105024 348.436638 
L 375.169536 348.349052 
L 375.234048 348.519716 
L 375.29856 348.440739 
L 376.717824 348.430798 
L 385.072128 348.434742 
L 415.296 348.434807 
L 415.45728 296.728799 
L 415.521792 297.003723 
L 415.683072 296.874853 
L 416.650752 296.892035 
L 455.616 296.88774 
L 455.680512 337.972086 
L 455.745024 348.761782 
L 455.809536 347.81122 
L 455.906304 349.066204 
L 455.93856 348.50581 
L 456.132096 348.410142 
L 456.519168 348.43525 
L 489.420288 348.434807 
L 489.613824 348.59346 
L 490.258944 349.185495 
L 491.065344 349.592038 
L 491.968512 349.815672 
L 493.581312 349.943468 
L 495.936 349.924009 
L 496.09728 307.79405 
L 496.161792 308.000243 
L 498.871296 312.503838 
L 502.645248 318.328785 
L 506.128896 323.242617 
L 509.515776 327.044297 
L 511.41888 328.695987 
L 511.451136 328.657326 
L 511.483392 328.710163 
L 511.676928 328.864378 
L 515.2896 331.333966 
L 515.579904 331.174167 
L 515.708928 331.062049 
L 515.741184 331.104147 
L 515.805696 331.006635 
L 515.966976 330.975277 
L 519.740928 329.486393 
L 520.386048 329.235954 
L 520.515072 329.198582 
L 520.61184 329.144027 
L 520.740864 329.086465 
L 520.9344 329.049092 
L 522.998784 328.315819 
L 529.224192 326.149935 
L 529.385472 326.117718 
L 530.12736 325.844083 
L 530.320896 325.799837 
L 534.772224 324.202702 
L 536.256 323.364614 
L 536.320512 321.3087 
L 536.610816 348.008113 
L 536.643072 348.006746 
L 540.61056 347.870758 
L 544.352256 347.910235 
L 546.545664 347.940649 
L 554.029056 347.974585 
L 554.706432 347.312749 
L 555.480576 346.903499 
L 556.480512 346.654435 
L 557.964288 346.547172 
L 560.673792 346.598763 
L 574.769664 346.995684 
L 576.576 347.011793 
L 576.640512 292.656492 
L 576.769536 270.327529 
L 577.54368 269.116146 
L 578.543616 267.595474 
L 580.059648 265.731148 
L 581.930496 265.829948 
L 587.414016 268.13673 
L 589.026816 268.871292 
L 591.349248 269.915143 
L 592.639488 270.477878 
L 599.864832 273.471969 
L 600.477696 273.824215 
L 602.735616 275.14299 
L 603.154944 275.387844 
L 612.638208 280.314993 
L 615.347712 281.513489 
L 616.283136 281.887213 
L 616.896 282.157841 
L 617.089536 348.877881 
L 617.121792 348.786761 
L 618.476544 348.774278 
L 626.89536 348.723984 
L 657.216 348.551276 
L 657.345024 292.287063 
L 657.441792 292.67797 
L 658.34496 292.776771 
L 658.635264 292.806841 
L 659.409408 292.905641 
L 659.893248 292.982964 
L 660.796416 293.090356 
L 661.054464 293.111834 
L 661.860864 293.219226 
L 662.118912 293.240705 
L 663.02208 293.348097 
L 663.280128 293.369575 
L 664.183296 293.476967 
L 664.441344 293.498446 
L 665.344512 293.605838 
L 665.60256 293.627316 
L 666.602496 293.734708 
L 666.860544 293.756187 
L 667.957248 293.863579 
L 668.215296 293.885057 
L 669.312 293.992449 
L 669.570048 294.013928 
L 670.76352 294.12132 
L 671.021568 294.142798 
L 672.21504 294.25019 
L 672.473088 294.271669 
L 673.860096 294.379061 
L 674.118144 294.400539 
L 675.505152 294.507931 
L 675.7632 294.52941 
L 677.246976 294.636802 
L 677.505024 294.653984 
L 679.053312 294.752785 
L 679.408128 294.782855 
L 680.988672 294.881656 
L 681.343488 294.911725 
L 683.117568 295.010526 
L 683.472384 295.040596 
L 685.343232 295.139397 
L 685.698048 295.169466 
L 687.762432 295.268267 
L 688.117248 295.298337 
L 690.375168 295.397138 
L 690.729984 295.427207 
L 693.278208 295.526008 
L 693.633024 295.556078 
L 696.374784 295.654879 
L 696.7296 295.684948 
L 697.536 295.697835 
L 697.568256 300.264147 
L 697.69728 348.416236 
L 697.85856 348.467175 
L 735.888384 348.447107 
L 737.856 348.447107 
L 738.01728 296.234796 
L 738.081792 296.720208 
L 738.17856 296.277753 
L 738.243072 296.440989 
L 738.726912 296.458171 
L 778.176 296.458171 
L 778.305024 348.763951 
L 778.466304 348.51417 
L 778.724352 348.418415 
L 779.079168 348.465145 
L 779.401728 348.446882 
L 817.592832 348.447107 
L 818.496 348.447107 
L 818.65728 296.234796 
L 818.721792 296.720208 
L 818.81856 296.277753 
L 818.883072 296.440989 
L 819.366912 296.458171 
L 858.816 296.458171 
L 858.945024 348.764033 
L 859.106304 348.514157 
L 859.364352 348.418411 
L 859.719168 348.465164 
L 860.041728 348.446883 
L 897.878016 348.447106 
L 899.136 348.447107 
L 899.29728 296.234796 
L 899.361792 296.720208 
L 899.45856 296.277753 
L 899.523072 296.440989 
L 900.006912 296.458171 
L 939.456 296.458171 
L 939.488256 304.203289 
L 939.61728 348.396018 
L 939.649536 348.520931 
L 939.714048 348.40142 
L 939.746304 348.363726 
L 939.810816 348.419169 
L 940.004352 348.472815 
L 940.230144 348.445743 
L 945.649152 348.447111 
L 947.52 348.447097 
L 947.52 348.447097 
" clip-path="url(#p2a1b33cf20)" style="fill: none; stroke: #0000ff; stroke-width: 2; stroke-linecap: square"/>
   </g>
   <g id="patch_16">
    <path d="M 100.8 354.165517 
L 100.8 261.434483 
" style="fill: none; stroke: #bcbcbc; stroke-width: 0.8; stroke-linejoin: miter; stroke-linecap: square"/>
   </g>
   <g id="patch_17">
    <path d="M 987.84 354.165517 
L 987.84 261.434483 
" style="fill: none; stroke: #bcbcbc; stroke-width: 0.8; stroke-linejoin: miter; stroke-linecap: square"/>
   </g>
   <g id="patch_18">
    <path d="M 100.8 354.165517 
L 987.84 354.165517 
" style="fill: none; stroke: #bcbcbc; stroke-width: 0.8; stroke-linejoin: miter; stroke-linecap: square"/>
   </g>
   <g id="patch_19">
    <path d="M 100.8 261.434483 
L 987.84 261.434483 
" style="fill: none; stroke: #bcbcbc; stroke-width: 0.8; stroke-linejoin: miter; stroke-linecap: square"/>
   </g>
  </g>
  <g id="axes_4">
   <g id="patch_20">
    <path d="M 100.8 465.442759 
L 987.84 465.442759 
L 987.84 372.711724 
L 100.8 372.711724 
z
" style="fill: #eeeeee"/>
   </g>
   <g id="matplotlib.axis_7">
    <g id="xtick_19">
     <g id="line2d_56">
      <path d="M 141.12 465.442759 
L 141.12 372.711724 
" clip-path="url(#pa69979d5a5)" style="fill: none; stroke-dasharray: 1.85,0.8; stroke-dashoffset: 0; stroke: #b2b2b2; stroke-width: 0.5"/>
     </g>
     <g id="line2d_57">
      <g>
       <use xlink:href="#m5fd6c6d577" x="141.12" y="465.442759" style="stroke: #000000; stroke-width: 0.8"/>
      </g>
     </g>
    </g>
    <g id="xtick_20">
     <g id="line2d_58">
      <path d="M 302.4 465.442759 
L 302.4 372.711724 
" clip-path="url(#pa69979d5a5)" style="fill: none; stroke-dasharray: 1.85,0.8; stroke-dashoffset: 0; stroke: #b2b2b2; stroke-width: 0.5"/>
     </g>
     <g id="line2d_59">
      <g>
       <use xlink:href="#m5fd6c6d577" x="302.4" y="465.442759" style="stroke: #000000; stroke-width: 0.8"/>
      </g>
     </g>
    </g>
    <g id="xtick_21">
     <g id="line2d_60">
      <path d="M 463.68 465.442759 
L 463.68 372.711724 
" clip-path="url(#pa69979d5a5)" style="fill: none; stroke-dasharray: 1.85,0.8; stroke-dashoffset: 0; stroke: #b2b2b2; stroke-width: 0.5"/>
     </g>
     <g id="line2d_61">
      <g>
       <use xlink:href="#m5fd6c6d577" x="463.68" y="465.442759" style="stroke: #000000; stroke-width: 0.8"/>
      </g>
     </g>
    </g>
    <g id="xtick_22">
     <g id="line2d_62">
      <path d="M 624.96 465.442759 
L 624.96 372.711724 
" clip-path="url(#pa69979d5a5)" style="fill: none; stroke-dasharray: 1.85,0.8; stroke-dashoffset: 0; stroke: #b2b2b2; stroke-width: 0.5"/>
     </g>
     <g id="line2d_63">
      <g>
       <use xlink:href="#m5fd6c6d577" x="624.96" y="465.442759" style="stroke: #000000; stroke-width: 0.8"/>
      </g>
     </g>
    </g>
    <g id="xtick_23">
     <g id="line2d_64">
      <path d="M 786.24 465.442759 
L 786.24 372.711724 
" clip-path="url(#pa69979d5a5)" style="fill: none; stroke-dasharray: 1.85,0.8; stroke-dashoffset: 0; stroke: #b2b2b2; stroke-width: 0.5"/>
     </g>
     <g id="line2d_65">
      <g>
       <use xlink:href="#m5fd6c6d577" x="786.24" y="465.442759" style="stroke: #000000; stroke-width: 0.8"/>
      </g>
     </g>
    </g>
    <g id="xtick_24">
     <g id="line2d_66">
      <path d="M 947.52 465.442759 
L 947.52 372.711724 
" clip-path="url(#pa69979d5a5)" style="fill: none; stroke-dasharray: 1.85,0.8; stroke-dashoffset: 0; stroke: #b2b2b2; stroke-width: 0.5"/>
     </g>
     <g id="line2d_67">
      <g>
       <use xlink:href="#m5fd6c6d577" x="947.52" y="465.442759" style="stroke: #000000; stroke-width: 0.8"/>
      </g>
     </g>
    </g>
   </g>
   <g id="matplotlib.axis_8">
    <g id="ytick_9">
     <g id="line2d_68">
      <path d="M 100.8 441.152249 
L 987.84 441.152249 
" clip-path="url(#pa69979d5a5)" style="fill: none; stroke-dasharray: 1.85,0.8; stroke-dashoffset: 0; stroke: #b2b2b2; stroke-width: 0.5"/>
     </g>
     <g id="line2d_69">
      <g>
       <use xlink:href="#m963ebb6297" x="100.8" y="441.152249" style="stroke: #000000; stroke-width: 0.8"/>
      </g>
     </g>
     <g id="text_12">
      <!-- 0 V -->
      <g transform="translate(74.36625 446.471155) scale(0.14 -0.14)">
       <use xlink:href="#DejaVuSans-30"/>
       <use xlink:href="#DejaVuSans-20" x="63.623047"/>
       <use xlink:href="#DejaVuSans-56" x="95.410156"/>
      </g>
     </g>
    </g>
    <g id="ytick_10">
     <g id="line2d_70">
      <path d="M 100.8 406.060195 
L 987.84 406.060195 
" clip-path="url(#pa69979d5a5)" style="fill: none; stroke-dasharray: 1.85,0.8; stroke-dashoffset: 0; stroke: #b2b2b2; stroke-width: 0.5"/>
     </g>
     <g id="line2d_71">
      <g>
       <use xlink:href="#m963ebb6297" x="100.8" y="406.060195" style="stroke: #000000; stroke-width: 0.8"/>
      </g>
     </g>
     <g id="text_13">
      <!-- 1 V -->
      <g transform="translate(74.36625 411.379101) scale(0.14 -0.14)">
       <use xlink:href="#DejaVuSans-31"/>
       <use xlink:href="#DejaVuSans-20" x="63.623047"/>
       <use xlink:href="#DejaVuSans-56" x="95.410156"/>
      </g>
     </g>
    </g>
    <g id="text_14">
     <g id="patch_21">
      <path d="M 34.8768 454.693023 
L 34.8768 383.46146 
L 11.247425 383.46146 
L 11.247425 454.693023 
z
" style="fill: #ffff00; opacity: 0.2; stroke: #eeeeee; stroke-width: 0.5; stroke-linejoin: miter"/>
     </g>
     <!-- DFF OUT -->
     <g transform="translate(26.925238 449.653023) rotate(-90) scale(0.14 -0.14)">
      <defs>
       <path id="DejaVuSans-4f" d="M 2522 4238 
Q 1834 4238 1429 3725 
Q 1025 3213 1025 2328 
Q 1025 1447 1429 934 
Q 1834 422 2522 422 
Q 3209 422 3611 934 
Q 4013 1447 4013 2328 
Q 4013 3213 3611 3725 
Q 3209 4238 2522 4238 
z
M 2522 4750 
Q 3503 4750 4090 4092 
Q 4678 3434 4678 2328 
Q 4678 1225 4090 567 
Q 3503 -91 2522 -91 
Q 1538 -91 948 565 
Q 359 1222 359 2328 
Q 359 3434 948 4092 
Q 1538 4750 2522 4750 
z
" transform="scale(0.015625)"/>
       <path id="DejaVuSans-54" d="M -19 4666 
L 3928 4666 
L 3928 4134 
L 2272 4134 
L 2272 0 
L 1638 0 
L 1638 4134 
L -19 4134 
L -19 4666 
z
" transform="scale(0.015625)"/>
      </defs>
      <use xlink:href="#DejaVuSans-44"/>
      <use xlink:href="#DejaVuSans-46" x="77.001953"/>
      <use xlink:href="#DejaVuSans-46" x="134.521484"/>
      <use xlink:href="#DejaVuSans-20" x="192.041016"/>
      <use xlink:href="#DejaVuSans-4f" x="223.828125"/>
      <use xlink:href="#DejaVuSans-55" x="302.539062"/>
      <use xlink:href="#DejaVuSans-54" x="375.732422"/>
     </g>
    </g>
   </g>
   <g id="line2d_72">
    <path d="M 141.12 414.674241 
L 173.408256 414.717054 
L 173.440512 416.169865 
L 173.601792 441.154391 
L 174.1824 441.150938 
L 185.730048 441.151308 
L 254.048256 441.152784 
L 254.080512 441.293067 
L 254.112768 441.06102 
L 254.306304 437.634973 
L 254.628864 436.847858 
L 254.693376 436.458336 
L 255.14496 430.310208 
L 255.370752 415.860002 
L 255.596544 399.382177 
L 255.757824 399.094422 
L 255.983616 399.038275 
L 257.015808 399.041784 
L 295.755264 399.111968 
L 296.239104 401.382424 
L 296.59392 400.813933 
L 297.980928 399.32252 
L 299.65824 399.066348 
L 334.688256 399.055821 
L 334.720512 398.954054 
L 334.752768 399.469907 
L 334.785024 402.021099 
L 334.914048 441.137864 
L 334.97856 441.10698 
L 335.13984 441.144894 
L 335.559168 441.151537 
L 371.008512 441.151282 
L 415.328256 441.152762 
L 415.360512 441.292579 
L 415.392768 441.062964 
L 415.586304 437.553208 
L 415.876608 436.747845 
L 415.908864 436.651342 
L 416.1024 432.489775 
L 416.521728 420.374595 
L 416.9088 399.157588 
L 417.102336 399.045293 
L 418.392576 399.01371 
L 489.549312 399.097931 
L 490.61376 400.29457 
L 491.323392 401.221 
L 497.5488 410.203163 
L 498.097152 411.445772 
L 499.290624 415.453987 
L 499.968 418.238892 
L 500.064768 418.110806 
L 500.12928 418.204853 
L 500.580864 420.741307 
L 500.645376 420.456359 
L 500.838912 421.79091 
L 502.161408 427.244566 
L 502.354944 427.893769 
L 502.3872 427.770947 
L 502.516224 428.098356 
L 502.677504 429.476421 
L 504.032256 435.039915 
L 505.77408 440.800662 
L 505.93536 441.846686 
L 506.225664 442.839861 
L 506.25792 442.472026 
L 506.322432 442.644293 
L 506.967552 445.092385 
L 507.128832 445.435585 
L 507.161088 445.383298 
L 507.193344 445.235561 
L 507.257856 445.436638 
L 507.322368 445.547529 
L 507.451392 446.240597 
L 507.515904 446.007586 
L 508.35456 448.072753 
L 508.419072 448.185399 
L 508.451328 447.981163 
L 508.51584 448.074157 
L 508.8384 448.636332 
L 508.99968 449.137095 
L 509.031936 449.075684 
L 509.257728 449.841042 
L 511.354368 453.94962 
L 511.386624 454.007872 
L 511.515648 454.481264 
L 511.547904 454.351073 
L 511.612416 454.473193 
L 514.031616 459.094466 
L 515.354112 461.227712 
L 515.515392 461.141034 
L 515.708928 460.747301 
L 515.741184 460.820995 
L 515.77344 460.76204 
L 515.966976 460.365149 
L 517.38624 457.900283 
L 517.418496 457.64376 
L 517.450752 458.073989 
L 517.515264 457.696398 
L 517.612032 457.851505 
L 517.676544 457.720612 
L 518.547456 456.573803 
L 518.579712 456.703644 
L 518.611968 456.513796 
L 518.644224 456.564328 
L 518.67648 456.613808 
L 518.805504 456.326755 
L 518.870016 456.392377 
L 518.99904 456.137609 
L 519.031296 456.177263 
L 519.063552 456.107781 
L 519.192576 455.906002 
L 519.224832 455.979344 
L 519.257088 455.974782 
L 519.289344 455.82915 
L 519.386112 455.856873 
L 519.579648 455.652637 
L 519.773184 455.431206 
L 520.128 454.905527 
L 520.28928 454.742349 
L 520.321536 454.88377 
L 520.353792 454.678481 
L 520.61184 454.504425 
L 520.77312 454.223688 
L 521.353728 453.703975 
L 521.385984 453.884348 
L 521.450496 453.687131 
L 521.482752 453.760824 
L 521.515008 453.559045 
L 521.57952 453.69064 
L 521.611776 453.528164 
L 521.7408 453.424642 
L 521.773056 453.51132 
L 521.837568 453.377619 
L 522.321408 453.022487 
L 522.772992 452.587346 
L 522.934272 452.315733 
L 522.998784 452.350475 
L 523.095552 451.973937 
L 523.127808 452.092899 
L 523.160064 451.903051 
L 523.19232 451.908666 
L 523.450368 451.676707 
L 523.482624 451.713554 
L 523.51488 451.877434 
L 523.547136 451.700219 
L 523.579392 451.834972 
L 523.643904 451.596697 
L 523.708416 451.673549 
L 523.901952 451.30403 
L 524.289024 451.153485 
L 524.450304 450.97627 
L 524.934144 450.667811 
L 525.224448 450.302853 
L 525.417984 449.941756 
L 525.805056 449.513282 
L 525.869568 449.481699 
L 525.901824 449.758575 
L 526.063104 449.259566 
L 526.224384 449.152185 
L 526.966272 448.636682 
L 526.998528 448.792842 
L 527.06304 448.675635 
L 527.288832 448.541232 
L 527.514624 448.405777 
L 528.159744 447.757627 
L 528.256512 447.455835 
L 528.288768 447.507069 
L 528.321024 447.665685 
L 528.35328 447.354068 
L 528.51456 447.141761 
L 528.901632 446.789086 
L 528.933888 447.144919 
L 529.030656 447.063506 
L 529.15968 446.556075 
L 529.191936 446.92419 
L 529.256448 446.506946 
L 529.32096 446.669773 
L 529.417728 446.766627 
L 529.449984 446.360612 
L 529.48224 446.369034 
L 529.514496 446.689424 
L 529.546752 446.306921 
L 529.579008 446.320256 
L 529.933824 446.155674 
L 529.96608 446.256038 
L 529.998336 446.263758 
L 530.12736 446.101632 
L 530.353152 446.053556 
L 531.224064 445.362594 
L 531.449856 445.138706 
L 531.707904 444.495925 
L 531.804672 444.422197 
L 531.836928 444.821123 
L 531.869184 444.403282 
L 531.933696 444.652576 
L 531.965952 444.224032 
L 532.06272 444.232209 
L 532.094976 444.44227 
L 532.127232 444.192695 
L 532.256256 444.038009 
L 532.288512 444.021481 
L 532.417536 444.352083 
L 532.578816 443.81542 
L 532.70784 444.110088 
L 532.643328 443.743762 
L 532.740096 444.086191 
L 532.933632 443.635538 
L 533.19168 443.624309 
L 533.449728 443.520787 
L 534.675456 442.437706 
L 534.868992 442.206414 
L 534.998016 441.497909 
L 535.191552 441.295526 
L 535.223808 441.691263 
L 535.28832 441.404263 
L 535.320576 441.208954 
L 535.385088 441.314641 
L 535.417344 441.417398 
L 535.4496 441.141804 
L 535.546368 441.200515 
L 535.707648 440.994184 
L 536.707584 439.435932 
L 536.836608 438.821821 
L 536.933376 438.816943 
L 536.965632 439.009212 
L 537.030144 438.889549 
L 537.159168 438.705385 
L 538.159104 437.057357 
L 538.255872 436.493779 
L 538.288128 436.628883 
L 538.35264 436.407803 
L 538.417152 436.5401 
L 539.288064 435.084833 
L 541.029888 432.176403 
L 541.062144 431.773898 
L 541.126656 431.901633 
L 541.158912 432.001645 
L 541.223424 431.911108 
L 541.836288 430.685342 
L 543.739392 427.34528 
L 543.868416 426.688006 
L 543.932928 426.722045 
L 544.094208 426.78486 
L 545.28768 424.771629 
L 545.319936 424.161378 
L 545.384448 424.404566 
L 545.416704 424.441764 
L 545.44896 424.37544 
L 545.481216 424.191908 
L 545.513472 424.392284 
L 545.545728 424.383862 
L 545.803776 423.953282 
L 546.868224 422.188854 
L 546.90048 421.731604 
L 546.997248 421.778277 
L 547.094016 421.951281 
L 547.126272 421.937946 
L 548.061696 420.44513 
L 548.771328 419.641873 
L 548.964864 419.267791 
L 549.80352 418.066239 
L 552.254976 415.26063 
L 552.384 415.124121 
L 553.577472 413.77799 
L 553.803264 413.361798 
L 554.190336 412.98105 
L 555.061248 410.734807 
L 561.383424 399.5436 
L 562.802688 397.181905 
L 563.83488 395.493977 
L 565.060608 393.577951 
L 566.189568 391.833876 
L 572.898816 382.527463 
L 573.608448 381.594014 
L 576.608256 377.488244 
L 576.640512 377.526845 
L 576.672768 376.926771 
L 576.930816 440.014319 
L 576.963072 440.00337 
L 580.027392 440.321199 
L 580.737024 440.815657 
L 581.640192 441.152219 
L 582.86592 441.359461 
L 584.994816 441.465218 
L 591.542784 441.469646 
L 600.090624 441.511136 
L 602.896896 441.559563 
L 616.928256 441.445289 
L 616.960512 441.382067 
L 617.025024 441.452718 
L 619.540992 441.43454 
L 652.248576 441.262979 
L 657.248256 441.24026 
L 657.280512 441.486729 
L 657.312768 440.894242 
L 657.474048 437.078763 
L 657.990144 434.455281 
L 658.151424 431.079777 
L 658.34496 420.447586 
L 658.732032 395.739622 
L 659.344896 395.781732 
L 660.344832 395.887008 
L 661.344768 395.992284 
L 662.570496 396.09756 
L 663.570432 396.202837 
L 664.892928 396.308113 
L 665.731584 396.378297 
L 667.021824 396.483573 
L 667.86048 396.553757 
L 669.247488 396.659033 
L 670.086144 396.729217 
L 671.666688 396.834494 
L 672.505344 396.904678 
L 674.279424 397.009954 
L 675.11808 397.080138 
L 677.182464 397.185414 
L 678.02112 397.255598 
L 680.27904 397.360874 
L 681.08544 397.427549 
L 683.762688 397.536335 
L 684.440064 397.571427 
L 685.149696 397.60301 
L 687.730176 397.711795 
L 688.375296 397.743378 
L 691.310592 397.848654 
L 691.762176 397.883746 
L 695.27808 397.989022 
L 695.729664 398.024114 
L 697.632768 398.08728 
L 697.761792 398.097808 
L 702.438912 398.199575 
L 702.890496 398.238176 
L 708.244992 398.339943 
L 708.696576 398.375035 
L 715.405824 398.480311 
L 715.857408 398.515403 
L 724.79232 398.620679 
L 725.243904 398.65928 
L 737.888256 398.687354 
L 737.920512 398.866324 
L 737.985024 398.687354 
L 738.17856 398.669808 
L 739.372032 398.690863 
L 818.528256 398.687354 
L 818.560512 398.866324 
L 818.625024 398.687354 
L 818.81856 398.669808 
L 820.012032 398.690863 
L 899.168256 398.687354 
L 899.200512 398.866324 
L 899.265024 398.687354 
L 899.45856 398.669808 
L 900.652032 398.690863 
L 947.52 398.690863 
L 947.52 398.690863 
" clip-path="url(#pa69979d5a5)" style="fill: none; stroke: #ff00ff; stroke-width: 2; stroke-linecap: square"/>
   </g>
   <g id="patch_22">
    <path d="M 100.8 465.442759 
L 100.8 372.711724 
" style="fill: none; stroke: #bcbcbc; stroke-width: 0.8; stroke-linejoin: miter; stroke-linecap: square"/>
   </g>
   <g id="patch_23">
    <path d="M 987.84 465.442759 
L 987.84 372.711724 
" style="fill: none; stroke: #bcbcbc; stroke-width: 0.8; stroke-linejoin: miter; stroke-linecap: square"/>
   </g>
   <g id="patch_24">
    <path d="M 100.8 465.442759 
L 987.84 465.442759 
" style="fill: none; stroke: #bcbcbc; stroke-width: 0.8; stroke-linejoin: miter; stroke-linecap: square"/>
   </g>
   <g id="patch_25">
    <path d="M 100.8 372.711724 
L 987.84 372.711724 
" style="fill: none; stroke: #bcbcbc; stroke-width: 0.8; stroke-linejoin: miter; stroke-linecap: square"/>
   </g>
  </g>
  <g id="axes_5">
   <g id="patch_26">
    <path d="M 100.8 576.72 
L 987.84 576.72 
L 987.84 483.988966 
L 100.8 483.988966 
z
" style="fill: #eeeeee"/>
   </g>
   <g id="matplotlib.axis_9">
    <g id="xtick_25">
     <g id="line2d_73">
      <path d="M 141.12 576.72 
L 141.12 483.988966 
" clip-path="url(#p2a21d14a5d)" style="fill: none; stroke-dasharray: 1.85,0.8; stroke-dashoffset: 0; stroke: #b2b2b2; stroke-width: 0.5"/>
     </g>
     <g id="line2d_74">
      <g>
       <use xlink:href="#m5fd6c6d577" x="141.12" y="576.72" style="stroke: #000000; stroke-width: 0.8"/>
      </g>
     </g>
     <g id="text_15">
      <!-- 0 s -->
      <g transform="translate(130.795 590.857813) scale(0.14 -0.14)">
       <defs>
        <path id="DejaVuSans-73" d="M 2834 3397 
L 2834 2853 
Q 2591 2978 2328 3040 
Q 2066 3103 1784 3103 
Q 1356 3103 1142 2972 
Q 928 2841 928 2578 
Q 928 2378 1081 2264 
Q 1234 2150 1697 2047 
L 1894 2003 
Q 2506 1872 2764 1633 
Q 3022 1394 3022 966 
Q 3022 478 2636 193 
Q 2250 -91 1575 -91 
Q 1294 -91 989 -36 
Q 684 19 347 128 
L 347 722 
Q 666 556 975 473 
Q 1284 391 1588 391 
Q 1994 391 2212 530 
Q 2431 669 2431 922 
Q 2431 1156 2273 1281 
Q 2116 1406 1581 1522 
L 1381 1569 
Q 847 1681 609 1914 
Q 372 2147 372 2553 
Q 372 3047 722 3315 
Q 1072 3584 1716 3584 
Q 2034 3584 2315 3537 
Q 2597 3491 2834 3397 
z
" transform="scale(0.015625)"/>
       </defs>
       <use xlink:href="#DejaVuSans-30"/>
       <use xlink:href="#DejaVuSans-20" x="63.623047"/>
       <use xlink:href="#DejaVuSans-73" x="95.410156"/>
      </g>
     </g>
    </g>
    <g id="xtick_26">
     <g id="line2d_75">
      <path d="M 302.4 576.72 
L 302.4 483.988966 
" clip-path="url(#p2a21d14a5d)" style="fill: none; stroke-dasharray: 1.85,0.8; stroke-dashoffset: 0; stroke: #b2b2b2; stroke-width: 0.5"/>
     </g>
     <g id="line2d_76">
      <g>
       <use xlink:href="#m5fd6c6d577" x="302.4" y="576.72" style="stroke: #000000; stroke-width: 0.8"/>
      </g>
     </g>
     <g id="text_16">
      <!-- 50 ns -->
      <g transform="translate(283.185 590.857813) scale(0.14 -0.14)">
       <defs>
        <path id="DejaVuSans-35" d="M 691 4666 
L 3169 4666 
L 3169 4134 
L 1269 4134 
L 1269 2991 
Q 1406 3038 1543 3061 
Q 1681 3084 1819 3084 
Q 2600 3084 3056 2656 
Q 3513 2228 3513 1497 
Q 3513 744 3044 326 
Q 2575 -91 1722 -91 
Q 1428 -91 1123 -41 
Q 819 9 494 109 
L 494 744 
Q 775 591 1075 516 
Q 1375 441 1709 441 
Q 2250 441 2565 725 
Q 2881 1009 2881 1497 
Q 2881 1984 2565 2268 
Q 2250 2553 1709 2553 
Q 1456 2553 1204 2497 
Q 953 2441 691 2322 
L 691 4666 
z
" transform="scale(0.015625)"/>
        <path id="DejaVuSans-6e" d="M 3513 2113 
L 3513 0 
L 2938 0 
L 2938 2094 
Q 2938 2591 2744 2837 
Q 2550 3084 2163 3084 
Q 1697 3084 1428 2787 
Q 1159 2491 1159 1978 
L 1159 0 
L 581 0 
L 581 3500 
L 1159 3500 
L 1159 2956 
Q 1366 3272 1645 3428 
Q 1925 3584 2291 3584 
Q 2894 3584 3203 3211 
Q 3513 2838 3513 2113 
z
" transform="scale(0.015625)"/>
       </defs>
       <use xlink:href="#DejaVuSans-35"/>
       <use xlink:href="#DejaVuSans-30" x="63.623047"/>
       <use xlink:href="#DejaVuSans-20" x="127.246094"/>
       <use xlink:href="#DejaVuSans-6e" x="159.033203"/>
       <use xlink:href="#DejaVuSans-73" x="222.412109"/>
      </g>
     </g>
    </g>
    <g id="xtick_27">
     <g id="line2d_77">
      <path d="M 463.68 576.72 
L 463.68 483.988966 
" clip-path="url(#p2a21d14a5d)" style="fill: none; stroke-dasharray: 1.85,0.8; stroke-dashoffset: 0; stroke: #b2b2b2; stroke-width: 0.5"/>
     </g>
     <g id="line2d_78">
      <g>
       <use xlink:href="#m5fd6c6d577" x="463.68" y="576.72" style="stroke: #000000; stroke-width: 0.8"/>
      </g>
     </g>
     <g id="text_17">
      <!-- 100 ns -->
      <g transform="translate(440.01125 590.857813) scale(0.14 -0.14)">
       <use xlink:href="#DejaVuSans-31"/>
       <use xlink:href="#DejaVuSans-30" x="63.623047"/>
       <use xlink:href="#DejaVuSans-30" x="127.246094"/>
       <use xlink:href="#DejaVuSans-20" x="190.869141"/>
       <use xlink:href="#DejaVuSans-6e" x="222.65625"/>
       <use xlink:href="#DejaVuSans-73" x="286.035156"/>
      </g>
     </g>
    </g>
    <g id="xtick_28">
     <g id="line2d_79">
      <path d="M 624.96 576.72 
L 624.96 483.988966 
" clip-path="url(#p2a21d14a5d)" style="fill: none; stroke-dasharray: 1.85,0.8; stroke-dashoffset: 0; stroke: #b2b2b2; stroke-width: 0.5"/>
     </g>
     <g id="line2d_80">
      <g>
       <use xlink:href="#m5fd6c6d577" x="624.96" y="576.72" style="stroke: #000000; stroke-width: 0.8"/>
      </g>
     </g>
     <g id="text_18">
      <!-- 150 ns -->
      <g transform="translate(601.29125 590.857813) scale(0.14 -0.14)">
       <use xlink:href="#DejaVuSans-31"/>
       <use xlink:href="#DejaVuSans-35" x="63.623047"/>
       <use xlink:href="#DejaVuSans-30" x="127.246094"/>
       <use xlink:href="#DejaVuSans-20" x="190.869141"/>
       <use xlink:href="#DejaVuSans-6e" x="222.65625"/>
       <use xlink:href="#DejaVuSans-73" x="286.035156"/>
      </g>
     </g>
    </g>
    <g id="xtick_29">
     <g id="line2d_81">
      <path d="M 786.24 576.72 
L 786.24 483.988966 
" clip-path="url(#p2a21d14a5d)" style="fill: none; stroke-dasharray: 1.85,0.8; stroke-dashoffset: 0; stroke: #b2b2b2; stroke-width: 0.5"/>
     </g>
     <g id="line2d_82">
      <g>
       <use xlink:href="#m5fd6c6d577" x="786.24" y="576.72" style="stroke: #000000; stroke-width: 0.8"/>
      </g>
     </g>
     <g id="text_19">
      <!-- 200 ns -->
      <g transform="translate(762.57125 590.857813) scale(0.14 -0.14)">
       <use xlink:href="#DejaVuSans-32"/>
       <use xlink:href="#DejaVuSans-30" x="63.623047"/>
       <use xlink:href="#DejaVuSans-30" x="127.246094"/>
       <use xlink:href="#DejaVuSans-20" x="190.869141"/>
       <use xlink:href="#DejaVuSans-6e" x="222.65625"/>
       <use xlink:href="#DejaVuSans-73" x="286.035156"/>
      </g>
     </g>
    </g>
    <g id="xtick_30">
     <g id="line2d_83">
      <path d="M 947.52 576.72 
L 947.52 483.988966 
" clip-path="url(#p2a21d14a5d)" style="fill: none; stroke-dasharray: 1.85,0.8; stroke-dashoffset: 0; stroke: #b2b2b2; stroke-width: 0.5"/>
     </g>
     <g id="line2d_84">
      <g>
       <use xlink:href="#m5fd6c6d577" x="947.52" y="576.72" style="stroke: #000000; stroke-width: 0.8"/>
      </g>
     </g>
     <g id="text_20">
      <!-- 250 ns -->
      <g transform="translate(923.85125 590.857813) scale(0.14 -0.14)">
       <use xlink:href="#DejaVuSans-32"/>
       <use xlink:href="#DejaVuSans-35" x="63.623047"/>
       <use xlink:href="#DejaVuSans-30" x="127.246094"/>
       <use xlink:href="#DejaVuSans-20" x="190.869141"/>
       <use xlink:href="#DejaVuSans-6e" x="222.65625"/>
       <use xlink:href="#DejaVuSans-73" x="286.035156"/>
      </g>
     </g>
    </g>
    <g id="text_21">
     <!-- Time -->
     <g transform="translate(527.192969 608.407187) scale(0.14 -0.14)">
      <defs>
       <path id="DejaVuSans-69" d="M 603 3500 
L 1178 3500 
L 1178 0 
L 603 0 
L 603 3500 
z
M 603 4863 
L 1178 4863 
L 1178 4134 
L 603 4134 
L 603 4863 
z
" transform="scale(0.015625)"/>
       <path id="DejaVuSans-6d" d="M 3328 2828 
Q 3544 3216 3844 3400 
Q 4144 3584 4550 3584 
Q 5097 3584 5394 3201 
Q 5691 2819 5691 2113 
L 5691 0 
L 5113 0 
L 5113 2094 
Q 5113 2597 4934 2840 
Q 4756 3084 4391 3084 
Q 3944 3084 3684 2787 
Q 3425 2491 3425 1978 
L 3425 0 
L 2847 0 
L 2847 2094 
Q 2847 2600 2669 2842 
Q 2491 3084 2119 3084 
Q 1678 3084 1418 2786 
Q 1159 2488 1159 1978 
L 1159 0 
L 581 0 
L 581 3500 
L 1159 3500 
L 1159 2956 
Q 1356 3278 1631 3431 
Q 1906 3584 2284 3584 
Q 2666 3584 2933 3390 
Q 3200 3197 3328 2828 
z
" transform="scale(0.015625)"/>
       <path id="DejaVuSans-65" d="M 3597 1894 
L 3597 1613 
L 953 1613 
Q 991 1019 1311 708 
Q 1631 397 2203 397 
Q 2534 397 2845 478 
Q 3156 559 3463 722 
L 3463 178 
Q 3153 47 2828 -22 
Q 2503 -91 2169 -91 
Q 1331 -91 842 396 
Q 353 884 353 1716 
Q 353 2575 817 3079 
Q 1281 3584 2069 3584 
Q 2775 3584 3186 3129 
Q 3597 2675 3597 1894 
z
M 3022 2063 
Q 3016 2534 2758 2815 
Q 2500 3097 2075 3097 
Q 1594 3097 1305 2825 
Q 1016 2553 972 2059 
L 3022 2063 
z
" transform="scale(0.015625)"/>
      </defs>
      <use xlink:href="#DejaVuSans-54"/>
      <use xlink:href="#DejaVuSans-69" x="57.958984"/>
      <use xlink:href="#DejaVuSans-6d" x="85.742188"/>
      <use xlink:href="#DejaVuSans-65" x="183.154297"/>
     </g>
    </g>
   </g>
   <g id="matplotlib.axis_10">
    <g id="ytick_11">
     <g id="line2d_85">
      <path d="M 100.8 569.745885 
L 987.84 569.745885 
" clip-path="url(#p2a21d14a5d)" style="fill: none; stroke-dasharray: 1.85,0.8; stroke-dashoffset: 0; stroke: #b2b2b2; stroke-width: 0.5"/>
     </g>
     <g id="line2d_86">
      <g>
       <use xlink:href="#m963ebb6297" x="100.8" y="569.745885" style="stroke: #000000; stroke-width: 0.8"/>
      </g>
     </g>
     <g id="text_22">
      <!-- 0 V -->
      <g transform="translate(74.36625 575.064792) scale(0.14 -0.14)">
       <use xlink:href="#DejaVuSans-30"/>
       <use xlink:href="#DejaVuSans-20" x="63.623047"/>
       <use xlink:href="#DejaVuSans-56" x="95.410156"/>
      </g>
     </g>
    </g>
    <g id="ytick_12">
     <g id="line2d_87">
      <path d="M 100.8 535.950348 
L 987.84 535.950348 
" clip-path="url(#p2a21d14a5d)" style="fill: none; stroke-dasharray: 1.85,0.8; stroke-dashoffset: 0; stroke: #b2b2b2; stroke-width: 0.5"/>
     </g>
     <g id="line2d_88">
      <g>
       <use xlink:href="#m963ebb6297" x="100.8" y="535.950348" style="stroke: #000000; stroke-width: 0.8"/>
      </g>
     </g>
     <g id="text_23">
      <!-- 500 mV -->
      <g transform="translate(42.914375 541.269254) scale(0.14 -0.14)">
       <use xlink:href="#DejaVuSans-35"/>
       <use xlink:href="#DejaVuSans-30" x="63.623047"/>
       <use xlink:href="#DejaVuSans-30" x="127.246094"/>
       <use xlink:href="#DejaVuSans-20" x="190.869141"/>
       <use xlink:href="#DejaVuSans-6d" x="222.65625"/>
       <use xlink:href="#DejaVuSans-56" x="320.068359"/>
      </g>
     </g>
    </g>
    <g id="ytick_13">
     <g id="line2d_89">
      <path d="M 100.8 502.15481 
L 987.84 502.15481 
" clip-path="url(#p2a21d14a5d)" style="fill: none; stroke-dasharray: 1.85,0.8; stroke-dashoffset: 0; stroke: #b2b2b2; stroke-width: 0.5"/>
     </g>
     <g id="line2d_90">
      <g>
       <use xlink:href="#m963ebb6297" x="100.8" y="502.15481" style="stroke: #000000; stroke-width: 0.8"/>
      </g>
     </g>
     <g id="text_24">
      <!-- 1 V -->
      <g transform="translate(74.36625 507.473717) scale(0.14 -0.14)">
       <use xlink:href="#DejaVuSans-31"/>
       <use xlink:href="#DejaVuSans-20" x="63.623047"/>
       <use xlink:href="#DejaVuSans-56" x="95.410156"/>
      </g>
     </g>
    </g>
    <g id="text_25">
     <g id="patch_27">
      <path d="M 34.8768 554.329483 
L 34.8768 506.379483 
L 11.247425 506.379483 
L 11.247425 554.329483 
z
" style="fill: #ffff00; opacity: 0.2; stroke: #eeeeee; stroke-width: 0.5; stroke-linejoin: miter"/>
     </g>
     <!-- FOUT -->
     <g transform="translate(26.925238 549.289483) rotate(-90) scale(0.14 -0.14)">
      <use xlink:href="#DejaVuSans-46"/>
      <use xlink:href="#DejaVuSans-4f" x="57.519531"/>
      <use xlink:href="#DejaVuSans-55" x="136.230469"/>
      <use xlink:href="#DejaVuSans-54" x="209.423828"/>
     </g>
    </g>
   </g>
   <g id="line2d_91">
    <path d="M 141.12 488.636595 
L 173.472768 488.643355 
L 173.505024 488.44734 
L 173.569536 526.789729 
L 173.69856 572.504953 
L 173.730816 572.3695 
L 173.827584 567.842115 
L 173.892096 569.3609 
L 174.053376 570.064192 
L 174.117888 569.946665 
L 174.408192 569.492054 
L 174.440448 569.54151 
L 174.66624 569.729954 
L 176.182272 569.740151 
L 180.117504 569.761449 
L 193.568256 569.752159 
L 212.954112 569.74401 
L 255.30624 569.743704 
L 255.6288 488.52845 
L 255.854592 488.670391 
L 256.209408 488.629836 
L 334.849536 488.650114 
L 334.881792 492.854278 
L 335.043072 572.18376 
L 335.107584 570.261206 
L 335.172096 568.338639 
L 335.236608 568.870108 
L 335.365632 570.783003 
L 335.430144 570.410083 
L 335.591424 569.797213 
L 335.881728 569.648439 
L 336.559104 569.817924 
L 337.107456 569.746143 
L 350.009856 569.744206 
L 416.489472 569.74333 
L 416.553984 567.480841 
L 416.812032 488.204013 
L 416.844288 488.339195 
L 416.973312 488.852887 
L 417.037824 488.778537 
L 417.39264 488.548727 
L 417.844224 488.717705 
L 418.457088 488.562245 
L 419.328 488.636595 
L 500.871168 488.596041 
L 500.93568 488.352713 
L 500.967936 489.028624 
L 501.032448 519.510847 
L 501.161472 570.053377 
L 501.193728 569.728024 
L 501.548544 569.744149 
L 547.448832 569.742461 
L 547.481088 567.871044 
L 547.835904 488.643355 
L 576.769536 488.663632 
L 576.801792 488.366231 
L 576.995328 569.746976 
L 577.05984 569.744391 
L 596.768256 569.744563 
L 658.34496 569.737458 
L 658.409472 569.204839 
L 658.66752 488.717705 
L 658.8288 488.636595 
L 947.52 488.636595 
L 947.52 488.636595 
" clip-path="url(#p2a21d14a5d)" style="fill: none; stroke: #ff00ff; stroke-width: 2; stroke-linecap: square"/>
   </g>
   <g id="patch_28">
    <path d="M 100.8 576.72 
L 100.8 483.988966 
" style="fill: none; stroke: #bcbcbc; stroke-width: 0.8; stroke-linejoin: miter; stroke-linecap: square"/>
   </g>
   <g id="patch_29">
    <path d="M 987.84 576.72 
L 987.84 483.988966 
" style="fill: none; stroke: #bcbcbc; stroke-width: 0.8; stroke-linejoin: miter; stroke-linecap: square"/>
   </g>
   <g id="patch_30">
    <path d="M 100.8 576.72 
L 987.84 576.72 
" style="fill: none; stroke: #bcbcbc; stroke-width: 0.8; stroke-linejoin: miter; stroke-linecap: square"/>
   </g>
   <g id="patch_31">
    <path d="M 100.8 483.988966 
L 987.84 483.988966 
" style="fill: none; stroke: #bcbcbc; stroke-width: 0.8; stroke-linejoin: miter; stroke-linecap: square"/>
   </g>
  </g>
  <g id="axes_6">
   <g id="patch_32">
    <path d="M 201.6 628.56 
L 856.8 628.56 
L 856.8 615.6 
L 201.6 615.6 
z
" clip-path="url(#peaddb6e596)" style="fill: #d3d3d3"/>
   </g>
   <g id="patch_33">
    <path d="M 201.6 628.56 
L 632.16 628.56 
L 632.16 615.6 
L 201.6 615.6 
z
" clip-path="url(#peaddb6e596)" style="fill: #0000ff"/>
   </g>
   <g id="line2d_92">
    <path d="M 201.6 635.04 
L 201.6 609.12 
" clip-path="url(#pe266b1fd51)" style="fill: none; stroke: #ff0000; stroke-linecap: square"/>
   </g>
   <g id="line2d_93">
    <defs>
     <path id="m550f061fdb" d="M 0 5 
C 1.326016 5 2.597899 4.473168 3.535534 3.535534 
C 4.473168 2.597899 5 1.326016 5 0 
C 5 -1.326016 4.473168 -2.597899 3.535534 -3.535534 
C 2.597899 -4.473168 1.326016 -5 0 -5 
C -1.326016 -5 -2.597899 -4.473168 -3.535534 -3.535534 
C -4.473168 -2.597899 -5 -1.326016 -5 0 
C -5 1.326016 -4.473168 2.597899 -3.535534 3.535534 
C -2.597899 4.473168 -1.326016 5 0 5 
z
" style="stroke: #bfbfbf"/>
    </defs>
    <g>
     <use xlink:href="#m550f061fdb" x="632.16" y="622.08" style="fill: #ffffff; stroke: #bfbfbf"/>
    </g>
   </g>
   <g id="text_26">
    <!-- #Sweep -->
    <g transform="translate(138.622875 625.39125) scale(0.12 -0.12)">
     <defs>
      <path id="DejaVuSans-23" d="M 3272 2816 
L 2363 2816 
L 2100 1772 
L 3016 1772 
L 3272 2816 
z
M 2803 4594 
L 2478 3297 
L 3391 3297 
L 3719 4594 
L 4219 4594 
L 3897 3297 
L 4872 3297 
L 4872 2816 
L 3775 2816 
L 3519 1772 
L 4513 1772 
L 4513 1294 
L 3397 1294 
L 3072 0 
L 2572 0 
L 2894 1294 
L 1978 1294 
L 1656 0 
L 1153 0 
L 1478 1294 
L 494 1294 
L 494 1772 
L 1594 1772 
L 1856 2816 
L 850 2816 
L 850 3297 
L 1978 3297 
L 2297 4594 
L 2803 4594 
z
" transform="scale(0.015625)"/>
      <path id="DejaVuSans-77" d="M 269 3500 
L 844 3500 
L 1563 769 
L 2278 3500 
L 2956 3500 
L 3675 769 
L 4391 3500 
L 4966 3500 
L 4050 0 
L 3372 0 
L 2619 2869 
L 1863 0 
L 1184 0 
L 269 3500 
z
" transform="scale(0.015625)"/>
      <path id="DejaVuSans-70" d="M 1159 525 
L 1159 -1331 
L 581 -1331 
L 581 3500 
L 1159 3500 
L 1159 2969 
Q 1341 3281 1617 3432 
Q 1894 3584 2278 3584 
Q 2916 3584 3314 3078 
Q 3713 2572 3713 1747 
Q 3713 922 3314 415 
Q 2916 -91 2278 -91 
Q 1894 -91 1617 61 
Q 1341 213 1159 525 
z
M 3116 1747 
Q 3116 2381 2855 2742 
Q 2594 3103 2138 3103 
Q 1681 3103 1420 2742 
Q 1159 2381 1159 1747 
Q 1159 1113 1420 752 
Q 1681 391 2138 391 
Q 2594 391 2855 752 
Q 3116 1113 3116 1747 
z
" transform="scale(0.015625)"/>
     </defs>
     <use xlink:href="#DejaVuSans-23"/>
     <use xlink:href="#DejaVuSans-53" x="83.789062"/>
     <use xlink:href="#DejaVuSans-77" x="147.265625"/>
     <use xlink:href="#DejaVuSans-65" x="229.052734"/>
     <use xlink:href="#DejaVuSans-65" x="290.576172"/>
     <use xlink:href="#DejaVuSans-70" x="352.099609"/>
    </g>
   </g>
   <g id="text_27">
    <!-- $\mathdefault{92}$ -->
    <g transform="translate(869.904 625.39125) scale(0.12 -0.12)">
     <defs>
      <path id="DejaVuSans-39" d="M 703 97 
L 703 672 
Q 941 559 1184 500 
Q 1428 441 1663 441 
Q 2288 441 2617 861 
Q 2947 1281 2994 2138 
Q 2813 1869 2534 1725 
Q 2256 1581 1919 1581 
Q 1219 1581 811 2004 
Q 403 2428 403 3163 
Q 403 3881 828 4315 
Q 1253 4750 1959 4750 
Q 2769 4750 3195 4129 
Q 3622 3509 3622 2328 
Q 3622 1225 3098 567 
Q 2575 -91 1691 -91 
Q 1453 -91 1209 -44 
Q 966 3 703 97 
z
M 1959 2075 
Q 2384 2075 2632 2365 
Q 2881 2656 2881 3163 
Q 2881 3666 2632 3958 
Q 2384 4250 1959 4250 
Q 1534 4250 1286 3958 
Q 1038 3666 1038 3163 
Q 1038 2656 1286 2365 
Q 1534 2075 1959 2075 
z
" transform="scale(0.015625)"/>
     </defs>
     <use xlink:href="#DejaVuSans-39" transform="translate(0 0.78125)"/>
     <use xlink:href="#DejaVuSans-32" transform="translate(61.873047 0.78125)"/>
    </g>
   </g>
  </g>
  <g id="text_28">
   <!-- DFF under BBI sweep analysis (Sweep = 102E-9) -->
   <g transform="translate(308.25625 25.1175) scale(0.16 -0.16)">
    <defs>
     <path id="DejaVuSans-75" d="M 544 1381 
L 544 3500 
L 1119 3500 
L 1119 1403 
Q 1119 906 1312 657 
Q 1506 409 1894 409 
Q 2359 409 2629 706 
Q 2900 1003 2900 1516 
L 2900 3500 
L 3475 3500 
L 3475 0 
L 2900 0 
L 2900 538 
Q 2691 219 2414 64 
Q 2138 -91 1772 -91 
Q 1169 -91 856 284 
Q 544 659 544 1381 
z
M 1991 3584 
L 1991 3584 
z
" transform="scale(0.015625)"/>
     <path id="DejaVuSans-64" d="M 2906 2969 
L 2906 4863 
L 3481 4863 
L 3481 0 
L 2906 0 
L 2906 525 
Q 2725 213 2448 61 
Q 2172 -91 1784 -91 
Q 1150 -91 751 415 
Q 353 922 353 1747 
Q 353 2572 751 3078 
Q 1150 3584 1784 3584 
Q 2172 3584 2448 3432 
Q 2725 3281 2906 2969 
z
M 947 1747 
Q 947 1113 1208 752 
Q 1469 391 1925 391 
Q 2381 391 2643 752 
Q 2906 1113 2906 1747 
Q 2906 2381 2643 2742 
Q 2381 3103 1925 3103 
Q 1469 3103 1208 2742 
Q 947 2381 947 1747 
z
" transform="scale(0.015625)"/>
     <path id="DejaVuSans-72" d="M 2631 2963 
Q 2534 3019 2420 3045 
Q 2306 3072 2169 3072 
Q 1681 3072 1420 2755 
Q 1159 2438 1159 1844 
L 1159 0 
L 581 0 
L 581 3500 
L 1159 3500 
L 1159 2956 
Q 1341 3275 1631 3429 
Q 1922 3584 2338 3584 
Q 2397 3584 2469 3576 
Q 2541 3569 2628 3553 
L 2631 2963 
z
" transform="scale(0.015625)"/>
     <path id="DejaVuSans-61" d="M 2194 1759 
Q 1497 1759 1228 1600 
Q 959 1441 959 1056 
Q 959 750 1161 570 
Q 1363 391 1709 391 
Q 2188 391 2477 730 
Q 2766 1069 2766 1631 
L 2766 1759 
L 2194 1759 
z
M 3341 1997 
L 3341 0 
L 2766 0 
L 2766 531 
Q 2569 213 2275 61 
Q 1981 -91 1556 -91 
Q 1019 -91 701 211 
Q 384 513 384 1019 
Q 384 1609 779 1909 
Q 1175 2209 1959 2209 
L 2766 2209 
L 2766 2266 
Q 2766 2663 2505 2880 
Q 2244 3097 1772 3097 
Q 1472 3097 1187 3025 
Q 903 2953 641 2809 
L 641 3341 
Q 956 3463 1253 3523 
Q 1550 3584 1831 3584 
Q 2591 3584 2966 3190 
Q 3341 2797 3341 1997 
z
" transform="scale(0.015625)"/>
     <path id="DejaVuSans-6c" d="M 603 4863 
L 1178 4863 
L 1178 0 
L 603 0 
L 603 4863 
z
" transform="scale(0.015625)"/>
     <path id="DejaVuSans-79" d="M 2059 -325 
Q 1816 -950 1584 -1140 
Q 1353 -1331 966 -1331 
L 506 -1331 
L 506 -850 
L 844 -850 
Q 1081 -850 1212 -737 
Q 1344 -625 1503 -206 
L 1606 56 
L 191 3500 
L 800 3500 
L 1894 763 
L 2988 3500 
L 3597 3500 
L 2059 -325 
z
" transform="scale(0.015625)"/>
     <path id="DejaVuSans-28" d="M 1984 4856 
Q 1566 4138 1362 3434 
Q 1159 2731 1159 2009 
Q 1159 1288 1364 580 
Q 1569 -128 1984 -844 
L 1484 -844 
Q 1016 -109 783 600 
Q 550 1309 550 2009 
Q 550 2706 781 3412 
Q 1013 4119 1484 4856 
L 1984 4856 
z
" transform="scale(0.015625)"/>
     <path id="DejaVuSans-3d" d="M 678 2906 
L 4684 2906 
L 4684 2381 
L 678 2381 
L 678 2906 
z
M 678 1631 
L 4684 1631 
L 4684 1100 
L 678 1100 
L 678 1631 
z
" transform="scale(0.015625)"/>
     <path id="DejaVuSans-2d" d="M 313 2009 
L 1997 2009 
L 1997 1497 
L 313 1497 
L 313 2009 
z
" transform="scale(0.015625)"/>
     <path id="DejaVuSans-29" d="M 513 4856 
L 1013 4856 
Q 1481 4119 1714 3412 
Q 1947 2706 1947 2009 
Q 1947 1309 1714 600 
Q 1481 -109 1013 -844 
L 513 -844 
Q 928 -128 1133 580 
Q 1338 1288 1338 2009 
Q 1338 2731 1133 3434 
Q 928 4138 513 4856 
z
" transform="scale(0.015625)"/>
    </defs>
    <use xlink:href="#DejaVuSans-44"/>
    <use xlink:href="#DejaVuSans-46" x="77.001953"/>
    <use xlink:href="#DejaVuSans-46" x="134.521484"/>
    <use xlink:href="#DejaVuSans-20" x="192.041016"/>
    <use xlink:href="#DejaVuSans-75" x="223.828125"/>
    <use xlink:href="#DejaVuSans-6e" x="287.207031"/>
    <use xlink:href="#DejaVuSans-64" x="350.585938"/>
    <use xlink:href="#DejaVuSans-65" x="414.0625"/>
    <use xlink:href="#DejaVuSans-72" x="475.585938"/>
    <use xlink:href="#DejaVuSans-20" x="516.699219"/>
    <use xlink:href="#DejaVuSans-42" x="548.486328"/>
    <use xlink:href="#DejaVuSans-42" x="617.089844"/>
    <use xlink:href="#DejaVuSans-49" x="685.693359"/>
    <use xlink:href="#DejaVuSans-20" x="715.185547"/>
    <use xlink:href="#DejaVuSans-73" x="746.972656"/>
    <use xlink:href="#DejaVuSans-77" x="799.072266"/>
    <use xlink:href="#DejaVuSans-65" x="880.859375"/>
    <use xlink:href="#DejaVuSans-65" x="942.382812"/>
    <use xlink:href="#DejaVuSans-70" x="1003.90625"/>
    <use xlink:href="#DejaVuSans-20" x="1067.382812"/>
    <use xlink:href="#DejaVuSans-61" x="1099.169922"/>
    <use xlink:href="#DejaVuSans-6e" x="1160.449219"/>
    <use xlink:href="#DejaVuSans-61" x="1223.828125"/>
    <use xlink:href="#DejaVuSans-6c" x="1285.107422"/>
    <use xlink:href="#DejaVuSans-79" x="1312.890625"/>
    <use xlink:href="#DejaVuSans-73" x="1372.070312"/>
    <use xlink:href="#DejaVuSans-69" x="1424.169922"/>
    <use xlink:href="#DejaVuSans-73" x="1451.953125"/>
    <use xlink:href="#DejaVuSans-20" x="1504.052734"/>
    <use xlink:href="#DejaVuSans-28" x="1535.839844"/>
    <use xlink:href="#DejaVuSans-53" x="1574.853516"/>
    <use xlink:href="#DejaVuSans-77" x="1638.330078"/>
    <use xlink:href="#DejaVuSans-65" x="1720.117188"/>
    <use xlink:href="#DejaVuSans-65" x="1781.640625"/>
    <use xlink:href="#DejaVuSans-70" x="1843.164062"/>
    <use xlink:href="#DejaVuSans-20" x="1906.640625"/>
    <use xlink:href="#DejaVuSans-3d" x="1938.427734"/>
    <use xlink:href="#DejaVuSans-20" x="2022.216797"/>
    <use xlink:href="#DejaVuSans-31" x="2054.003906"/>
    <use xlink:href="#DejaVuSans-30" x="2117.626953"/>
    <use xlink:href="#DejaVuSans-32" x="2181.25"/>
    <use xlink:href="#DejaVuSans-45" x="2244.873047"/>
    <use xlink:href="#DejaVuSans-2d" x="2308.056641"/>
    <use xlink:href="#DejaVuSans-39" x="2344.140625"/>
    <use xlink:href="#DejaVuSans-29" x="2407.763672"/>
   </g>
  </g>
 </g>
 <defs>
  <clipPath id="p65addca681">
   <rect x="100.8" y="38.88" width="887.04" height="92.731034"/>
  </clipPath>
  <clipPath id="pdf4d511cb2">
   <rect x="100.8" y="150.157241" width="887.04" height="92.731034"/>
  </clipPath>
  <clipPath id="p2a1b33cf20">
   <rect x="100.8" y="261.434483" width="887.04" height="92.731034"/>
  </clipPath>
  <clipPath id="pa69979d5a5">
   <rect x="100.8" y="372.711724" width="887.04" height="92.731034"/>
  </clipPath>
  <clipPath id="p2a21d14a5d">
   <rect x="100.8" y="483.988966" width="887.04" height="92.731034"/>
  </clipPath>
  <clipPath id="peaddb6e596">
   <rect x="201.6" y="609.12" width="655.2" height="25.92"/>
  </clipPath>
  <clipPath id="pe266b1fd51">
   <path d="M 201.6 628.56 
L 856.8 628.56 
L 856.8 615.6 
L 201.6 615.6 
z
"/>
  </clipPath>
 </defs>
</svg>
