<?xml version="1.0" encoding="utf-8" standalone="no"?>
<!DOCTYPE svg PUBLIC "-//W3C//DTD SVG 1.1//EN"
  "http://www.w3.org/Graphics/SVG/1.1/DTD/svg11.dtd">
<svg xmlns:xlink="http://www.w3.org/1999/xlink" width="1008pt" height="648pt" viewBox="0 0 1008 648" xmlns="http://www.w3.org/2000/svg" version="1.1">
 <metadata>
  <rdf:RDF xmlns:dc="http://purl.org/dc/elements/1.1/" xmlns:cc="http://creativecommons.org/ns#" xmlns:rdf="http://www.w3.org/1999/02/22-rdf-syntax-ns#">
   <cc:Work>
    <dc:type rdf:resource="http://purl.org/dc/dcmitype/StillImage"/>
    <dc:date>2024-06-03T10:45:56.553924</dc:date>
    <dc:format>image/svg+xml</dc:format>
    <dc:creator>
     <cc:Agent>
      <dc:title>Matplotlib v3.9.0, https://matplotlib.org/</dc:title>
     </cc:Agent>
    </dc:creator>
   </cc:Work>
  </rdf:RDF>
 </metadata>
 <defs>
  <style type="text/css">*{stroke-linejoin: round; stroke-linecap: butt}</style>
 </defs>
 <g id="figure_1">
  <g id="patch_1">
   <path d="M 0 648 
L 1008 648 
L 1008 0 
L 0 0 
z
" style="fill: #ffffff"/>
  </g>
  <g id="axes_1">
   <g id="patch_2">
    <path d="M 100.8 131.611034 
L 987.84 131.611034 
L 987.84 38.88 
L 100.8 38.88 
z
" style="fill: #eeeeee"/>
   </g>
   <g id="matplotlib.axis_1">
    <g id="xtick_1">
     <g id="line2d_1">
      <path d="M 141.12 131.611034 
L 141.12 38.88 
" clip-path="url(#p3ac18b3e5a)" style="fill: none; stroke-dasharray: 1.85,0.8; stroke-dashoffset: 0; stroke: #b2b2b2; stroke-width: 0.5"/>
     </g>
     <g id="line2d_2">
      <defs>
       <path id="mde1dc190a6" d="M 0 0 
L 0 -3.5 
" style="stroke: #000000; stroke-width: 0.8"/>
      </defs>
      <g>
       <use xlink:href="#mde1dc190a6" x="141.12" y="131.611034" style="stroke: #000000; stroke-width: 0.8"/>
      </g>
     </g>
    </g>
    <g id="xtick_2">
     <g id="line2d_3">
      <path d="M 302.4 131.611034 
L 302.4 38.88 
" clip-path="url(#p3ac18b3e5a)" style="fill: none; stroke-dasharray: 1.85,0.8; stroke-dashoffset: 0; stroke: #b2b2b2; stroke-width: 0.5"/>
     </g>
     <g id="line2d_4">
      <g>
       <use xlink:href="#mde1dc190a6" x="302.4" y="131.611034" style="stroke: #000000; stroke-width: 0.8"/>
      </g>
     </g>
    </g>
    <g id="xtick_3">
     <g id="line2d_5">
      <path d="M 463.68 131.611034 
L 463.68 38.88 
" clip-path="url(#p3ac18b3e5a)" style="fill: none; stroke-dasharray: 1.85,0.8; stroke-dashoffset: 0; stroke: #b2b2b2; stroke-width: 0.5"/>
     </g>
     <g id="line2d_6">
      <g>
       <use xlink:href="#mde1dc190a6" x="463.68" y="131.611034" style="stroke: #000000; stroke-width: 0.8"/>
      </g>
     </g>
    </g>
    <g id="xtick_4">
     <g id="line2d_7">
      <path d="M 624.96 131.611034 
L 624.96 38.88 
" clip-path="url(#p3ac18b3e5a)" style="fill: none; stroke-dasharray: 1.85,0.8; stroke-dashoffset: 0; stroke: #b2b2b2; stroke-width: 0.5"/>
     </g>
     <g id="line2d_8">
      <g>
       <use xlink:href="#mde1dc190a6" x="624.96" y="131.611034" style="stroke: #000000; stroke-width: 0.8"/>
      </g>
     </g>
    </g>
    <g id="xtick_5">
     <g id="line2d_9">
      <path d="M 786.24 131.611034 
L 786.24 38.88 
" clip-path="url(#p3ac18b3e5a)" style="fill: none; stroke-dasharray: 1.85,0.8; stroke-dashoffset: 0; stroke: #b2b2b2; stroke-width: 0.5"/>
     </g>
     <g id="line2d_10">
      <g>
       <use xlink:href="#mde1dc190a6" x="786.24" y="131.611034" style="stroke: #000000; stroke-width: 0.8"/>
      </g>
     </g>
    </g>
    <g id="xtick_6">
     <g id="line2d_11">
      <path d="M 947.52 131.611034 
L 947.52 38.88 
" clip-path="url(#p3ac18b3e5a)" style="fill: none; stroke-dasharray: 1.85,0.8; stroke-dashoffset: 0; stroke: #b2b2b2; stroke-width: 0.5"/>
     </g>
     <g id="line2d_12">
      <g>
       <use xlink:href="#mde1dc190a6" x="947.52" y="131.611034" style="stroke: #000000; stroke-width: 0.8"/>
      </g>
     </g>
    </g>
   </g>
   <g id="matplotlib.axis_2">
    <g id="ytick_1">
     <g id="line2d_13">
      <path d="M 100.8 98.340394 
L 987.84 98.340394 
" clip-path="url(#p3ac18b3e5a)" style="fill: none; stroke-dasharray: 1.85,0.8; stroke-dashoffset: 0; stroke: #b2b2b2; stroke-width: 0.5"/>
     </g>
     <g id="line2d_14">
      <defs>
       <path id="m9270de0aa8" d="M 0 0 
L 3.5 0 
" style="stroke: #000000; stroke-width: 0.8"/>
      </defs>
      <g>
       <use xlink:href="#m9270de0aa8" x="100.8" y="98.340394" style="stroke: #000000; stroke-width: 0.8"/>
      </g>
     </g>
     <g id="text_1">
      <!-- −200 V -->
      <g transform="translate(44.819688 103.6593) scale(0.14 -0.14)">
       <defs>
        <path id="DejaVuSans-2212" d="M 678 2272 
L 4684 2272 
L 4684 1741 
L 678 1741 
L 678 2272 
z
" transform="scale(0.015625)"/>
        <path id="DejaVuSans-32" d="M 1228 531 
L 3431 531 
L 3431 0 
L 469 0 
L 469 531 
Q 828 903 1448 1529 
Q 2069 2156 2228 2338 
Q 2531 2678 2651 2914 
Q 2772 3150 2772 3378 
Q 2772 3750 2511 3984 
Q 2250 4219 1831 4219 
Q 1534 4219 1204 4116 
Q 875 4013 500 3803 
L 500 4441 
Q 881 4594 1212 4672 
Q 1544 4750 1819 4750 
Q 2544 4750 2975 4387 
Q 3406 4025 3406 3419 
Q 3406 3131 3298 2873 
Q 3191 2616 2906 2266 
Q 2828 2175 2409 1742 
Q 1991 1309 1228 531 
z
" transform="scale(0.015625)"/>
        <path id="DejaVuSans-30" d="M 2034 4250 
Q 1547 4250 1301 3770 
Q 1056 3291 1056 2328 
Q 1056 1369 1301 889 
Q 1547 409 2034 409 
Q 2525 409 2770 889 
Q 3016 1369 3016 2328 
Q 3016 3291 2770 3770 
Q 2525 4250 2034 4250 
z
M 2034 4750 
Q 2819 4750 3233 4129 
Q 3647 3509 3647 2328 
Q 3647 1150 3233 529 
Q 2819 -91 2034 -91 
Q 1250 -91 836 529 
Q 422 1150 422 2328 
Q 422 3509 836 4129 
Q 1250 4750 2034 4750 
z
" transform="scale(0.015625)"/>
        <path id="DejaVuSans-20" transform="scale(0.015625)"/>
        <path id="DejaVuSans-56" d="M 1831 0 
L 50 4666 
L 709 4666 
L 2188 738 
L 3669 4666 
L 4325 4666 
L 2547 0 
L 1831 0 
z
" transform="scale(0.015625)"/>
       </defs>
       <use xlink:href="#DejaVuSans-2212"/>
       <use xlink:href="#DejaVuSans-32" x="83.789062"/>
       <use xlink:href="#DejaVuSans-30" x="147.412109"/>
       <use xlink:href="#DejaVuSans-30" x="211.035156"/>
       <use xlink:href="#DejaVuSans-20" x="274.658203"/>
       <use xlink:href="#DejaVuSans-56" x="306.445312"/>
      </g>
     </g>
    </g>
    <g id="ytick_2">
     <g id="line2d_15">
      <path d="M 100.8 45.027377 
L 987.84 45.027377 
" clip-path="url(#p3ac18b3e5a)" style="fill: none; stroke-dasharray: 1.85,0.8; stroke-dashoffset: 0; stroke: #b2b2b2; stroke-width: 0.5"/>
     </g>
     <g id="line2d_16">
      <g>
       <use xlink:href="#m9270de0aa8" x="100.8" y="45.027377" style="stroke: #000000; stroke-width: 0.8"/>
      </g>
     </g>
     <g id="text_2">
      <!-- 0 V -->
      <g transform="translate(74.36625 50.346284) scale(0.14 -0.14)">
       <use xlink:href="#DejaVuSans-30"/>
       <use xlink:href="#DejaVuSans-20" x="63.623047"/>
       <use xlink:href="#DejaVuSans-56" x="95.410156"/>
      </g>
     </g>
    </g>
    <g id="text_3">
     <g id="patch_3">
      <path d="M 34.8768 131.080205 
L 34.8768 39.41083 
L 11.247425 39.41083 
L 11.247425 131.080205 
z
" style="fill: #ffff00; opacity: 0.2; stroke: #eeeeee; stroke-width: 0.5; stroke-linejoin: miter"/>
     </g>
     <!-- VPULSE BBI -->
     <g transform="translate(26.925238 126.040205) rotate(-90) scale(0.14 -0.14)">
      <defs>
       <path id="DejaVuSans-50" d="M 1259 4147 
L 1259 2394 
L 2053 2394 
Q 2494 2394 2734 2622 
Q 2975 2850 2975 3272 
Q 2975 3691 2734 3919 
Q 2494 4147 2053 4147 
L 1259 4147 
z
M 628 4666 
L 2053 4666 
Q 2838 4666 3239 4311 
Q 3641 3956 3641 3272 
Q 3641 2581 3239 2228 
Q 2838 1875 2053 1875 
L 1259 1875 
L 1259 0 
L 628 0 
L 628 4666 
z
" transform="scale(0.015625)"/>
       <path id="DejaVuSans-55" d="M 556 4666 
L 1191 4666 
L 1191 1831 
Q 1191 1081 1462 751 
Q 1734 422 2344 422 
Q 2950 422 3222 751 
Q 3494 1081 3494 1831 
L 3494 4666 
L 4128 4666 
L 4128 1753 
Q 4128 841 3676 375 
Q 3225 -91 2344 -91 
Q 1459 -91 1007 375 
Q 556 841 556 1753 
L 556 4666 
z
" transform="scale(0.015625)"/>
       <path id="DejaVuSans-4c" d="M 628 4666 
L 1259 4666 
L 1259 531 
L 3531 531 
L 3531 0 
L 628 0 
L 628 4666 
z
" transform="scale(0.015625)"/>
       <path id="DejaVuSans-53" d="M 3425 4513 
L 3425 3897 
Q 3066 4069 2747 4153 
Q 2428 4238 2131 4238 
Q 1616 4238 1336 4038 
Q 1056 3838 1056 3469 
Q 1056 3159 1242 3001 
Q 1428 2844 1947 2747 
L 2328 2669 
Q 3034 2534 3370 2195 
Q 3706 1856 3706 1288 
Q 3706 609 3251 259 
Q 2797 -91 1919 -91 
Q 1588 -91 1214 -16 
Q 841 59 441 206 
L 441 856 
Q 825 641 1194 531 
Q 1563 422 1919 422 
Q 2459 422 2753 634 
Q 3047 847 3047 1241 
Q 3047 1584 2836 1778 
Q 2625 1972 2144 2069 
L 1759 2144 
Q 1053 2284 737 2584 
Q 422 2884 422 3419 
Q 422 4038 858 4394 
Q 1294 4750 2059 4750 
Q 2388 4750 2728 4690 
Q 3069 4631 3425 4513 
z
" transform="scale(0.015625)"/>
       <path id="DejaVuSans-45" d="M 628 4666 
L 3578 4666 
L 3578 4134 
L 1259 4134 
L 1259 2753 
L 3481 2753 
L 3481 2222 
L 1259 2222 
L 1259 531 
L 3634 531 
L 3634 0 
L 628 0 
L 628 4666 
z
" transform="scale(0.015625)"/>
       <path id="DejaVuSans-42" d="M 1259 2228 
L 1259 519 
L 2272 519 
Q 2781 519 3026 730 
Q 3272 941 3272 1375 
Q 3272 1813 3026 2020 
Q 2781 2228 2272 2228 
L 1259 2228 
z
M 1259 4147 
L 1259 2741 
L 2194 2741 
Q 2656 2741 2882 2914 
Q 3109 3088 3109 3444 
Q 3109 3797 2882 3972 
Q 2656 4147 2194 4147 
L 1259 4147 
z
M 628 4666 
L 2241 4666 
Q 2963 4666 3353 4366 
Q 3744 4066 3744 3513 
Q 3744 3084 3544 2831 
Q 3344 2578 2956 2516 
Q 3422 2416 3680 2098 
Q 3938 1781 3938 1306 
Q 3938 681 3513 340 
Q 3088 0 2303 0 
L 628 0 
L 628 4666 
z
" transform="scale(0.015625)"/>
       <path id="DejaVuSans-49" d="M 628 4666 
L 1259 4666 
L 1259 0 
L 628 0 
L 628 4666 
z
" transform="scale(0.015625)"/>
      </defs>
      <use xlink:href="#DejaVuSans-56"/>
      <use xlink:href="#DejaVuSans-50" x="68.408203"/>
      <use xlink:href="#DejaVuSans-55" x="128.710938"/>
      <use xlink:href="#DejaVuSans-4c" x="201.904297"/>
      <use xlink:href="#DejaVuSans-53" x="257.617188"/>
      <use xlink:href="#DejaVuSans-45" x="321.09375"/>
      <use xlink:href="#DejaVuSans-20" x="384.277344"/>
      <use xlink:href="#DejaVuSans-42" x="416.064453"/>
      <use xlink:href="#DejaVuSans-42" x="484.667969"/>
      <use xlink:href="#DejaVuSans-49" x="553.271484"/>
     </g>
    </g>
   </g>
   <g id="line2d_17">
    <path d="M 141.12 45.027377 
L 592.736256 45.136282 
L 593.220096 46.425538 
L 601.445376 69.006772 
L 608.864256 89.863624 
L 610.477056 94.440546 
L 612.283392 99.673219 
L 615.76704 110.807642 
L 617.347584 115.853719 
L 618.605568 119.566971 
L 619.831296 120.153414 
L 620.669952 120.545265 
L 621.702144 121.017085 
L 622.282752 121.272988 
L 623.153664 121.656841 
L 623.734272 121.912744 
L 624.572928 122.269941 
L 626.153472 122.936354 
L 626.798592 123.202919 
L 627.895296 123.629423 
L 628.637184 123.922644 
L 629.733888 124.349149 
L 630.637056 124.677024 
L 631.314432 124.943589 
L 632.120832 125.25547 
L 633.475584 125.804594 
L 636.120576 126.790885 
L 636.73344 127.022796 
L 638.6688 127.395987 
L 657.151488 127.289361 
L 657.37728 126.801547 
L 675.666432 75.087922 
L 679.408128 63.292417 
L 683.117568 51.617666 
L 687.730176 49.3412 
L 693.084672 46.984578 
L 701.793792 43.484472 
L 702.664704 43.268927 
L 716.954112 43.108189 
L 723.760128 43.184799 
L 739.113984 43.746186 
L 766.8864 44.46146 
L 792.52992 44.774399 
L 828.140544 44.945888 
L 876.169728 44.953885 
L 947.52 44.953885 
L 947.52 44.953885 
" clip-path="url(#p3ac18b3e5a)" style="fill: none; stroke: #ff0000; stroke-width: 2; stroke-linecap: square"/>
   </g>
   <g id="patch_4">
    <path d="M 100.8 131.611034 
L 100.8 38.88 
" style="fill: none; stroke: #bcbcbc; stroke-width: 0.8; stroke-linejoin: miter; stroke-linecap: square"/>
   </g>
   <g id="patch_5">
    <path d="M 987.84 131.611034 
L 987.84 38.88 
" style="fill: none; stroke: #bcbcbc; stroke-width: 0.8; stroke-linejoin: miter; stroke-linecap: square"/>
   </g>
   <g id="patch_6">
    <path d="M 100.8 131.611034 
L 987.84 131.611034 
" style="fill: none; stroke: #bcbcbc; stroke-width: 0.8; stroke-linejoin: miter; stroke-linecap: square"/>
   </g>
   <g id="patch_7">
    <path d="M 100.8 38.88 
L 987.84 38.88 
" style="fill: none; stroke: #bcbcbc; stroke-width: 0.8; stroke-linejoin: miter; stroke-linecap: square"/>
   </g>
  </g>
  <g id="axes_2">
   <g id="patch_8">
    <path d="M 100.8 242.888276 
L 987.84 242.888276 
L 987.84 150.157241 
L 100.8 150.157241 
z
" style="fill: #eeeeee"/>
   </g>
   <g id="matplotlib.axis_3">
    <g id="xtick_7">
     <g id="line2d_18">
      <path d="M 141.12 242.888276 
L 141.12 150.157241 
" clip-path="url(#p2207bbd09a)" style="fill: none; stroke-dasharray: 1.85,0.8; stroke-dashoffset: 0; stroke: #b2b2b2; stroke-width: 0.5"/>
     </g>
     <g id="line2d_19">
      <g>
       <use xlink:href="#mde1dc190a6" x="141.12" y="242.888276" style="stroke: #000000; stroke-width: 0.8"/>
      </g>
     </g>
    </g>
    <g id="xtick_8">
     <g id="line2d_20">
      <path d="M 302.4 242.888276 
L 302.4 150.157241 
" clip-path="url(#p2207bbd09a)" style="fill: none; stroke-dasharray: 1.85,0.8; stroke-dashoffset: 0; stroke: #b2b2b2; stroke-width: 0.5"/>
     </g>
     <g id="line2d_21">
      <g>
       <use xlink:href="#mde1dc190a6" x="302.4" y="242.888276" style="stroke: #000000; stroke-width: 0.8"/>
      </g>
     </g>
    </g>
    <g id="xtick_9">
     <g id="line2d_22">
      <path d="M 463.68 242.888276 
L 463.68 150.157241 
" clip-path="url(#p2207bbd09a)" style="fill: none; stroke-dasharray: 1.85,0.8; stroke-dashoffset: 0; stroke: #b2b2b2; stroke-width: 0.5"/>
     </g>
     <g id="line2d_23">
      <g>
       <use xlink:href="#mde1dc190a6" x="463.68" y="242.888276" style="stroke: #000000; stroke-width: 0.8"/>
      </g>
     </g>
    </g>
    <g id="xtick_10">
     <g id="line2d_24">
      <path d="M 624.96 242.888276 
L 624.96 150.157241 
" clip-path="url(#p2207bbd09a)" style="fill: none; stroke-dasharray: 1.85,0.8; stroke-dashoffset: 0; stroke: #b2b2b2; stroke-width: 0.5"/>
     </g>
     <g id="line2d_25">
      <g>
       <use xlink:href="#mde1dc190a6" x="624.96" y="242.888276" style="stroke: #000000; stroke-width: 0.8"/>
      </g>
     </g>
    </g>
    <g id="xtick_11">
     <g id="line2d_26">
      <path d="M 786.24 242.888276 
L 786.24 150.157241 
" clip-path="url(#p2207bbd09a)" style="fill: none; stroke-dasharray: 1.85,0.8; stroke-dashoffset: 0; stroke: #b2b2b2; stroke-width: 0.5"/>
     </g>
     <g id="line2d_27">
      <g>
       <use xlink:href="#mde1dc190a6" x="786.24" y="242.888276" style="stroke: #000000; stroke-width: 0.8"/>
      </g>
     </g>
    </g>
    <g id="xtick_12">
     <g id="line2d_28">
      <path d="M 947.52 242.888276 
L 947.52 150.157241 
" clip-path="url(#p2207bbd09a)" style="fill: none; stroke-dasharray: 1.85,0.8; stroke-dashoffset: 0; stroke: #b2b2b2; stroke-width: 0.5"/>
     </g>
     <g id="line2d_29">
      <g>
       <use xlink:href="#mde1dc190a6" x="947.52" y="242.888276" style="stroke: #000000; stroke-width: 0.8"/>
      </g>
     </g>
    </g>
   </g>
   <g id="matplotlib.axis_4">
    <g id="ytick_3">
     <g id="line2d_30">
      <path d="M 100.8 219.360979 
L 987.84 219.360979 
" clip-path="url(#p2207bbd09a)" style="fill: none; stroke-dasharray: 1.85,0.8; stroke-dashoffset: 0; stroke: #b2b2b2; stroke-width: 0.5"/>
     </g>
     <g id="line2d_31">
      <g>
       <use xlink:href="#m9270de0aa8" x="100.8" y="219.360979" style="stroke: #000000; stroke-width: 0.8"/>
      </g>
     </g>
     <g id="text_4">
      <!-- 0 V -->
      <g transform="translate(74.36625 224.679886) scale(0.14 -0.14)">
       <use xlink:href="#DejaVuSans-30"/>
       <use xlink:href="#DejaVuSans-20" x="63.623047"/>
       <use xlink:href="#DejaVuSans-56" x="95.410156"/>
      </g>
     </g>
    </g>
    <g id="ytick_4">
     <g id="line2d_32">
      <path d="M 100.8 185.780299 
L 987.84 185.780299 
" clip-path="url(#p2207bbd09a)" style="fill: none; stroke-dasharray: 1.85,0.8; stroke-dashoffset: 0; stroke: #b2b2b2; stroke-width: 0.5"/>
     </g>
     <g id="line2d_33">
      <g>
       <use xlink:href="#m9270de0aa8" x="100.8" y="185.780299" style="stroke: #000000; stroke-width: 0.8"/>
      </g>
     </g>
     <g id="text_5">
      <!-- 1 V -->
      <g transform="translate(74.36625 191.099205) scale(0.14 -0.14)">
       <defs>
        <path id="DejaVuSans-31" d="M 794 531 
L 1825 531 
L 1825 4091 
L 703 3866 
L 703 4441 
L 1819 4666 
L 2450 4666 
L 2450 531 
L 3481 531 
L 3481 0 
L 794 0 
L 794 531 
z
" transform="scale(0.015625)"/>
       </defs>
       <use xlink:href="#DejaVuSans-31"/>
       <use xlink:href="#DejaVuSans-20" x="63.623047"/>
       <use xlink:href="#DejaVuSans-56" x="95.410156"/>
      </g>
     </g>
    </g>
    <g id="ytick_5">
     <g id="line2d_34">
      <path d="M 100.8 152.199618 
L 987.84 152.199618 
" clip-path="url(#p2207bbd09a)" style="fill: none; stroke-dasharray: 1.85,0.8; stroke-dashoffset: 0; stroke: #b2b2b2; stroke-width: 0.5"/>
     </g>
     <g id="line2d_35">
      <g>
       <use xlink:href="#m9270de0aa8" x="100.8" y="152.199618" style="stroke: #000000; stroke-width: 0.8"/>
      </g>
     </g>
     <g id="text_6">
      <!-- 2 V -->
      <g transform="translate(74.36625 157.518525) scale(0.14 -0.14)">
       <use xlink:href="#DejaVuSans-32"/>
       <use xlink:href="#DejaVuSans-20" x="63.623047"/>
       <use xlink:href="#DejaVuSans-56" x="95.410156"/>
      </g>
     </g>
    </g>
    <g id="text_7">
     <g id="patch_9">
      <path d="M 34.8768 224.531509 
L 34.8768 168.514009 
L 11.247425 168.514009 
L 11.247425 224.531509 
z
" style="fill: #ffff00; opacity: 0.2; stroke: #eeeeee; stroke-width: 0.5; stroke-linejoin: miter"/>
     </g>
     <!-- DFF IN -->
     <g transform="translate(26.925238 219.491509) rotate(-90) scale(0.14 -0.14)">
      <defs>
       <path id="DejaVuSans-44" d="M 1259 4147 
L 1259 519 
L 2022 519 
Q 2988 519 3436 956 
Q 3884 1394 3884 2338 
Q 3884 3275 3436 3711 
Q 2988 4147 2022 4147 
L 1259 4147 
z
M 628 4666 
L 1925 4666 
Q 3281 4666 3915 4102 
Q 4550 3538 4550 2338 
Q 4550 1131 3912 565 
Q 3275 0 1925 0 
L 628 0 
L 628 4666 
z
" transform="scale(0.015625)"/>
       <path id="DejaVuSans-46" d="M 628 4666 
L 3309 4666 
L 3309 4134 
L 1259 4134 
L 1259 2759 
L 3109 2759 
L 3109 2228 
L 1259 2228 
L 1259 0 
L 628 0 
L 628 4666 
z
" transform="scale(0.015625)"/>
       <path id="DejaVuSans-4e" d="M 628 4666 
L 1478 4666 
L 3547 763 
L 3547 4666 
L 4159 4666 
L 4159 0 
L 3309 0 
L 1241 3903 
L 1241 0 
L 628 0 
L 628 4666 
z
" transform="scale(0.015625)"/>
      </defs>
      <use xlink:href="#DejaVuSans-44"/>
      <use xlink:href="#DejaVuSans-46" x="77.001953"/>
      <use xlink:href="#DejaVuSans-46" x="134.521484"/>
      <use xlink:href="#DejaVuSans-20" x="192.041016"/>
      <use xlink:href="#DejaVuSans-49" x="223.828125"/>
      <use xlink:href="#DejaVuSans-4e" x="253.320312"/>
     </g>
    </g>
   </g>
   <g id="line2d_36">
    <path d="M 141.12 219.311938 
L 221.953536 219.265889 
L 224.437248 200.555127 
L 225.404928 194.863201 
L 228.243456 182.348353 
L 229.598208 181.092436 
L 231.178752 180.229412 
L 236.565504 179.779431 
L 243.661824 179.668615 
L 245.1456 179.62496 
L 248.403456 179.514144 
L 250.113024 179.446983 
L 252.177408 179.336166 
L 254.241792 179.010434 
L 254.757888 178.479859 
L 255.499776 178.144052 
L 256.370688 178.164201 
L 257.531904 178.395907 
L 259.98336 178.795517 
L 262.370304 178.933198 
L 263.886336 178.983569 
L 264.144384 184.16171 
L 264.434688 187.684995 
L 265.176576 192.378567 
L 267.144192 209.510423 
L 268.402176 215.942802 
L 269.079552 217.254463 
L 270.46656 218.953176 
L 273.724416 219.362793 
L 282.594816 219.316374 
L 297.110016 219.305155 
L 305.883648 219.311142 
L 347.751936 219.267565 
L 350.235648 200.594752 
L 351.622656 192.057536 
L 352.687104 186.72761 
L 354.97728 179.913754 
L 358.493184 178.926482 
L 360.235008 178.997001 
L 363.073536 179.107818 
L 364.396032 179.134682 
L 375.169536 179.205202 
L 375.717888 180.185758 
L 376.169472 180.927891 
L 377.008128 181.824495 
L 377.524224 181.774124 
L 378.427392 181.48533 
L 380.45952 180.346945 
L 381.58848 179.99099 
L 387.201024 179.517502 
L 389.65248 179.406686 
L 391.813632 179.292511 
L 394.555392 179.181695 
L 395.9424 179.148115 
L 415.392768 179.040656 
L 415.973376 178.422772 
L 416.844288 178.090323 
L 417.908736 178.194423 
L 419.16672 178.473143 
L 420.908544 178.724998 
L 424.00512 178.936556 
L 455.712768 179.037298 
L 456.809472 179.917112 
L 457.261056 179.987632 
L 458.712576 180.027928 
L 462.744576 179.497354 
L 464.16384 179.31266 
L 467.518464 179.074237 
L 496.065024 178.993643 
L 496.58112 178.459711 
L 497.258496 178.157484 
L 498.387456 178.150768 
L 502.06464 178.805592 
L 504.258048 178.923124 
L 536.352768 179.03394 
L 537.255936 179.829802 
L 537.901056 179.987632 
L 539.352576 180.027928 
L 544.449024 179.386537 
L 545.61024 179.255573 
L 548.803584 179.03394 
L 576.73728 178.953347 
L 577.188864 178.473143 
L 577.737216 178.197781 
L 578.382336 178.110471 
L 580.317696 178.422772 
L 582.511104 178.768653 
L 585.188352 178.936556 
L 592.704 179.037298 
L 592.86528 179.238782 
L 594.994176 182.99646 
L 597.348864 186.234981 
L 601.961472 192.642511 
L 602.509824 194.193603 
L 603.83232 199.147425 
L 605.025792 203.968267 
L 605.638656 206.610059 
L 605.799936 207.175558 
L 606.799872 211.648505 
L 608.154624 216.41095 
L 608.34816 216.939409 
L 609.122304 219.918687 
L 609.573888 221.220476 
L 609.735168 221.747458 
L 610.380288 223.618338 
L 610.573824 223.933997 
L 611.025408 225.219465 
L 611.509248 226.031446 
L 611.960832 226.521724 
L 612.21888 227.17151 
L 612.831744 228.653425 
L 613.089792 228.895542 
L 613.251072 229.305562 
L 613.638144 230.221979 
L 614.15424 231.225706 
L 615.057408 232.946044 
L 616.476672 235.44579 
L 618.541056 238.673229 
L 618.605568 238.623865 
L 619.024896 238.329027 
L 619.282944 237.942177 
L 619.573248 237.591259 
L 620.76672 235.776224 
L 621.379584 235.083454 
L 621.863424 234.285913 
L 622.024704 234.231848 
L 622.185984 234.087787 
L 623.734272 232.742545 
L 624.024576 232.2432 
L 624.185856 231.988659 
L 624.218112 232.004106 
L 624.31488 232.042723 
L 624.347136 232.015523 
L 624.572928 231.739826 
L 624.766464 231.654867 
L 625.959936 230.791843 
L 626.476032 230.269664 
L 626.798592 229.836473 
L 626.959872 229.720619 
L 627.766272 229.077214 
L 628.282368 228.785397 
L 629.669376 227.489183 
L 629.862912 227.278968 
L 630.44352 226.781638 
L 630.733824 226.707425 
L 631.57248 226.086182 
L 633.765888 224.357113 
L 635.023872 223.456143 
L 636.08832 222.568337 
L 636.475392 222.167485 
L 637.120512 221.796821 
L 638.152704 220.905892 
L 639.410688 219.318668 
L 640.313856 218.099185 
L 640.92672 217.29476 
L 642.120192 215.613376 
L 645.990912 210.912752 
L 647.05536 209.703176 
L 647.603712 208.158129 
L 649.022976 204.052219 
L 650.087424 201.70728 
L 651.990528 198.93956 
L 652.635648 198.121199 
L 653.538816 196.895168 
L 654.700032 195.574776 
L 655.44192 194.683545 
L 656.861184 193.435687 
L 657.280512 192.891344 
L 657.635328 191.607219 
L 658.957824 186.563736 
L 659.79648 184.366552 
L 660.506112 182.999819 
L 661.183488 182.133437 
L 661.989888 181.60622 
L 662.8608 181.028633 
L 663.570432 180.306648 
L 665.989632 176.847838 
L 672.21504 167.96239 
L 673.344 166.528495 
L 673.602048 166.142317 
L 683.117568 154.402511 
L 683.536896 154.644292 
L 684.020736 154.909579 
L 685.343232 155.211805 
L 685.988352 155.322622 
L 686.633472 155.473735 
L 687.117312 155.584551 
L 691.56864 157.088965 
L 693.471744 157.767295 
L 694.052352 157.995644 
L 695.76192 158.590022 
L 697.632768 159.285142 
L 698.890752 164.671483 
L 699.181056 164.83267 
L 699.503616 164.758793 
L 699.987456 164.278589 
L 701.568 162.475307 
L 702.309888 162.06898 
L 703.374336 162.06898 
L 704.503296 162.297329 
L 712.793088 164.997216 
L 713.728512 165.359887 
L 715.857408 166.132243 
L 716.696064 166.417679 
L 730.340352 170.568251 
L 730.791936 170.679067 
L 731.501568 170.860403 
L 735.469056 171.793945 
L 736.017408 171.90812 
L 737.985024 172.213704 
L 738.436608 171.652907 
L 738.98496 171.43799 
L 739.4688 171.495077 
L 739.984896 171.709994 
L 741.178368 172.32452 
L 741.952512 172.683834 
L 745.59744 173.711402 
L 746.790912 173.946467 
L 747.242496 174.027061 
L 747.919872 174.137877 
L 749.79072 174.440103 
L 750.210048 174.500548 
L 751.822848 174.728897 
L 752.629248 174.836355 
L 754.080768 175.031123 
L 754.983936 175.138581 
L 756.08064 175.259472 
L 756.919296 175.363572 
L 757.306368 175.417301 
L 758.467584 175.528117 
L 759.080448 175.605353 
L 760.11264 175.712811 
L 761.2416 175.820269 
L 761.789952 175.880714 
L 768.789504 176.498599 
L 770.241024 176.609415 
L 771.07968 176.673218 
L 774.337536 176.901567 
L 774.9504 176.94858 
L 777.69216 177.126558 
L 778.272768 177.160138 
L 779.046912 178.029878 
L 779.595264 178.244794 
L 780.724224 178.254868 
L 783.207936 177.593329 
L 790.11072 177.700787 
L 790.530048 177.720936 
L 791.304192 177.751158 
L 794.013696 177.861974 
L 795.75552 177.932494 
L 799.013376 178.039952 
L 799.723008 178.076891 
L 803.109888 178.180991 
L 803.529216 178.197781 
L 807.722496 178.308597 
L 809.174016 178.348894 
L 814.334976 178.459711 
L 815.657472 178.489933 
L 816.657408 178.496649 
L 818.65728 178.416056 
L 819.270144 177.821678 
L 819.721728 177.62691 
L 820.237824 177.569823 
L 821.463552 177.808245 
L 824.882688 178.40934 
L 826.56 178.520156 
L 828.301824 178.590675 
L 858.912768 178.698133 
L 859.848192 179.524218 
L 860.525568 179.688763 
L 862.783488 179.581305 
L 865.138176 179.201844 
L 870.137856 178.792159 
L 899.232768 178.701491 
L 899.78112 178.093681 
L 900.329472 177.821678 
L 902.264832 177.929136 
L 905.522688 178.496649 
L 907.68384 178.610824 
L 939.552768 178.701491 
L 940.617216 179.557799 
L 941.55264 179.742493 
L 943.455744 179.635034 
L 946.423296 179.127966 
L 947.52 178.956705 
L 947.52 178.956705 
" clip-path="url(#p2207bbd09a)" style="fill: none; stroke: #008000; stroke-width: 2; stroke-linecap: square"/>
   </g>
   <g id="patch_10">
    <path d="M 100.8 242.888276 
L 100.8 150.157241 
" style="fill: none; stroke: #bcbcbc; stroke-width: 0.8; stroke-linejoin: miter; stroke-linecap: square"/>
   </g>
   <g id="patch_11">
    <path d="M 987.84 242.888276 
L 987.84 150.157241 
" style="fill: none; stroke: #bcbcbc; stroke-width: 0.8; stroke-linejoin: miter; stroke-linecap: square"/>
   </g>
   <g id="patch_12">
    <path d="M 100.8 242.888276 
L 987.84 242.888276 
" style="fill: none; stroke: #bcbcbc; stroke-width: 0.8; stroke-linejoin: miter; stroke-linecap: square"/>
   </g>
   <g id="patch_13">
    <path d="M 100.8 150.157241 
L 987.84 150.157241 
" style="fill: none; stroke: #bcbcbc; stroke-width: 0.8; stroke-linejoin: miter; stroke-linecap: square"/>
   </g>
  </g>
  <g id="axes_3">
   <g id="patch_14">
    <path d="M 100.8 354.165517 
L 987.84 354.165517 
L 987.84 261.434483 
L 100.8 261.434483 
z
" style="fill: #eeeeee"/>
   </g>
   <g id="matplotlib.axis_5">
    <g id="xtick_13">
     <g id="line2d_37">
      <path d="M 141.12 354.165517 
L 141.12 261.434483 
" clip-path="url(#p8ef75c6b35)" style="fill: none; stroke-dasharray: 1.85,0.8; stroke-dashoffset: 0; stroke: #b2b2b2; stroke-width: 0.5"/>
     </g>
     <g id="line2d_38">
      <g>
       <use xlink:href="#mde1dc190a6" x="141.12" y="354.165517" style="stroke: #000000; stroke-width: 0.8"/>
      </g>
     </g>
    </g>
    <g id="xtick_14">
     <g id="line2d_39">
      <path d="M 302.4 354.165517 
L 302.4 261.434483 
" clip-path="url(#p8ef75c6b35)" style="fill: none; stroke-dasharray: 1.85,0.8; stroke-dashoffset: 0; stroke: #b2b2b2; stroke-width: 0.5"/>
     </g>
     <g id="line2d_40">
      <g>
       <use xlink:href="#mde1dc190a6" x="302.4" y="354.165517" style="stroke: #000000; stroke-width: 0.8"/>
      </g>
     </g>
    </g>
    <g id="xtick_15">
     <g id="line2d_41">
      <path d="M 463.68 354.165517 
L 463.68 261.434483 
" clip-path="url(#p8ef75c6b35)" style="fill: none; stroke-dasharray: 1.85,0.8; stroke-dashoffset: 0; stroke: #b2b2b2; stroke-width: 0.5"/>
     </g>
     <g id="line2d_42">
      <g>
       <use xlink:href="#mde1dc190a6" x="463.68" y="354.165517" style="stroke: #000000; stroke-width: 0.8"/>
      </g>
     </g>
    </g>
    <g id="xtick_16">
     <g id="line2d_43">
      <path d="M 624.96 354.165517 
L 624.96 261.434483 
" clip-path="url(#p8ef75c6b35)" style="fill: none; stroke-dasharray: 1.85,0.8; stroke-dashoffset: 0; stroke: #b2b2b2; stroke-width: 0.5"/>
     </g>
     <g id="line2d_44">
      <g>
       <use xlink:href="#mde1dc190a6" x="624.96" y="354.165517" style="stroke: #000000; stroke-width: 0.8"/>
      </g>
     </g>
    </g>
    <g id="xtick_17">
     <g id="line2d_45">
      <path d="M 786.24 354.165517 
L 786.24 261.434483 
" clip-path="url(#p8ef75c6b35)" style="fill: none; stroke-dasharray: 1.85,0.8; stroke-dashoffset: 0; stroke: #b2b2b2; stroke-width: 0.5"/>
     </g>
     <g id="line2d_46">
      <g>
       <use xlink:href="#mde1dc190a6" x="786.24" y="354.165517" style="stroke: #000000; stroke-width: 0.8"/>
      </g>
     </g>
    </g>
    <g id="xtick_18">
     <g id="line2d_47">
      <path d="M 947.52 354.165517 
L 947.52 261.434483 
" clip-path="url(#p8ef75c6b35)" style="fill: none; stroke-dasharray: 1.85,0.8; stroke-dashoffset: 0; stroke: #b2b2b2; stroke-width: 0.5"/>
     </g>
     <g id="line2d_48">
      <g>
       <use xlink:href="#mde1dc190a6" x="947.52" y="354.165517" style="stroke: #000000; stroke-width: 0.8"/>
      </g>
     </g>
    </g>
   </g>
   <g id="matplotlib.axis_6">
    <g id="ytick_6">
     <g id="line2d_49">
      <path d="M 100.8 344.750539 
L 987.84 344.750539 
" clip-path="url(#p8ef75c6b35)" style="fill: none; stroke-dasharray: 1.85,0.8; stroke-dashoffset: 0; stroke: #b2b2b2; stroke-width: 0.5"/>
     </g>
     <g id="line2d_50">
      <g>
       <use xlink:href="#m9270de0aa8" x="100.8" y="344.750539" style="stroke: #000000; stroke-width: 0.8"/>
      </g>
     </g>
     <g id="text_8">
      <!-- 0 V -->
      <g transform="translate(74.36625 350.069446) scale(0.14 -0.14)">
       <use xlink:href="#DejaVuSans-30"/>
       <use xlink:href="#DejaVuSans-20" x="63.623047"/>
       <use xlink:href="#DejaVuSans-56" x="95.410156"/>
      </g>
     </g>
    </g>
    <g id="ytick_7">
     <g id="line2d_51">
      <path d="M 100.8 303.706014 
L 987.84 303.706014 
" clip-path="url(#p8ef75c6b35)" style="fill: none; stroke-dasharray: 1.85,0.8; stroke-dashoffset: 0; stroke: #b2b2b2; stroke-width: 0.5"/>
     </g>
     <g id="line2d_52">
      <g>
       <use xlink:href="#m9270de0aa8" x="100.8" y="303.706014" style="stroke: #000000; stroke-width: 0.8"/>
      </g>
     </g>
     <g id="text_9">
      <!-- 1 V -->
      <g transform="translate(74.36625 309.02492) scale(0.14 -0.14)">
       <use xlink:href="#DejaVuSans-31"/>
       <use xlink:href="#DejaVuSans-20" x="63.623047"/>
       <use xlink:href="#DejaVuSans-56" x="95.410156"/>
      </g>
     </g>
    </g>
    <g id="ytick_8">
     <g id="line2d_53">
      <path d="M 100.8 262.661488 
L 987.84 262.661488 
" clip-path="url(#p8ef75c6b35)" style="fill: none; stroke-dasharray: 1.85,0.8; stroke-dashoffset: 0; stroke: #b2b2b2; stroke-width: 0.5"/>
     </g>
     <g id="line2d_54">
      <g>
       <use xlink:href="#m9270de0aa8" x="100.8" y="262.661488" style="stroke: #000000; stroke-width: 0.8"/>
      </g>
     </g>
     <g id="text_10">
      <!-- 2 V -->
      <g transform="translate(74.36625 267.980395) scale(0.14 -0.14)">
       <use xlink:href="#DejaVuSans-32"/>
       <use xlink:href="#DejaVuSans-20" x="63.623047"/>
       <use xlink:href="#DejaVuSans-56" x="95.410156"/>
      </g>
     </g>
    </g>
    <g id="text_11">
     <g id="patch_15">
      <path d="M 34.8768 342.395313 
L 34.8768 273.204688 
L 11.247425 273.204688 
L 11.247425 342.395313 
z
" style="fill: #ffff00; opacity: 0.2; stroke: #eeeeee; stroke-width: 0.5; stroke-linejoin: miter"/>
     </g>
     <!-- CLK BUF -->
     <g transform="translate(26.925238 337.355313) rotate(-90) scale(0.14 -0.14)">
      <defs>
       <path id="DejaVuSans-43" d="M 4122 4306 
L 4122 3641 
Q 3803 3938 3442 4084 
Q 3081 4231 2675 4231 
Q 1875 4231 1450 3742 
Q 1025 3253 1025 2328 
Q 1025 1406 1450 917 
Q 1875 428 2675 428 
Q 3081 428 3442 575 
Q 3803 722 4122 1019 
L 4122 359 
Q 3791 134 3420 21 
Q 3050 -91 2638 -91 
Q 1578 -91 968 557 
Q 359 1206 359 2328 
Q 359 3453 968 4101 
Q 1578 4750 2638 4750 
Q 3056 4750 3426 4639 
Q 3797 4528 4122 4306 
z
" transform="scale(0.015625)"/>
       <path id="DejaVuSans-4b" d="M 628 4666 
L 1259 4666 
L 1259 2694 
L 3353 4666 
L 4166 4666 
L 1850 2491 
L 4331 0 
L 3500 0 
L 1259 2247 
L 1259 0 
L 628 0 
L 628 4666 
z
" transform="scale(0.015625)"/>
      </defs>
      <use xlink:href="#DejaVuSans-43"/>
      <use xlink:href="#DejaVuSans-4c" x="69.824219"/>
      <use xlink:href="#DejaVuSans-4b" x="125.537109"/>
      <use xlink:href="#DejaVuSans-20" x="191.113281"/>
      <use xlink:href="#DejaVuSans-42" x="222.900391"/>
      <use xlink:href="#DejaVuSans-55" x="291.503906"/>
      <use xlink:href="#DejaVuSans-46" x="364.697266"/>
     </g>
    </g>
   </g>
   <g id="line2d_55">
    <path d="M 141.12 344.749454 
L 173.376 344.749454 
L 173.601792 295.497109 
L 213.696 295.497109 
L 213.760512 334.784518 
L 213.825024 344.731788 
L 213.889536 344.672723 
L 213.954048 344.836692 
L 214.01856 344.754987 
L 215.437824 344.745148 
L 223.824384 344.749367 
L 254.016 344.749426 
L 254.17728 295.345244 
L 254.241792 295.607929 
L 254.403072 295.4889 
L 254.854656 295.497109 
L 294.336 295.497109 
L 294.400512 334.750041 
L 294.465024 345.056818 
L 294.529536 344.343205 
L 294.626304 344.815041 
L 294.65856 344.785834 
L 294.884352 344.72781 
L 295.206912 344.765475 
L 295.497216 344.749134 
L 321.91488 344.749453 
L 334.656 344.749456 
L 334.81728 295.423229 
L 334.881792 295.513527 
L 335.204352 295.501213 
L 336.10752 295.497109 
L 374.976 295.497109 
L 375.040512 334.788212 
L 375.105024 344.751205 
L 375.169536 344.667519 
L 375.266304 344.818423 
L 375.29856 344.755124 
L 376.782336 344.744836 
L 385.4592 344.749367 
L 415.296 344.749456 
L 415.45728 295.345244 
L 415.521792 295.607929 
L 415.683072 295.484795 
L 416.683008 295.501213 
L 455.616 295.497109 
L 455.680512 334.752503 
L 455.745024 345.061874 
L 455.809536 344.153629 
L 455.906304 345.352745 
L 455.93856 344.817298 
L 456.132096 344.725889 
L 456.551424 344.749777 
L 491.613696 344.749453 
L 495.936 344.749454 
L 496.09728 295.41502 
L 496.161792 295.513527 
L 497.161728 295.497109 
L 536.256 295.497109 
L 536.320512 334.752503 
L 536.385024 345.061829 
L 536.449536 344.153711 
L 536.546304 345.352662 
L 536.57856 344.817294 
L 536.772096 344.725891 
L 537.191424 344.749777 
L 572.253696 344.749455 
L 576.576 344.749454 
L 576.73728 295.443751 
L 576.801792 295.456064 
L 576.930816 295.546362 
L 576.963072 295.4889 
L 577.930752 295.501213 
L 592.800768 295.603824 
L 594.445824 297.873587 
L 596.123136 300.635883 
L 603.02592 311.840628 
L 605.92896 316.07314 
L 609.444864 320.804342 
L 610.219008 321.774224 
L 610.412544 322.019671 
L 613.283328 324.788534 
L 613.34784 324.807825 
L 613.50912 324.975287 
L 615.508992 326.487367 
L 616.928256 327.465048 
L 617.05728 326.654008 
L 617.089536 326.667963 
L 617.154048 328.003142 
L 617.283072 338.421884 
L 617.508864 349.603234 
L 617.7024 349.356556 
L 617.734656 349.407041 
L 617.928192 349.666442 
L 618.637824 349.887672 
L 619.63776 349.427973 
L 622.669824 348.377398 
L 622.831104 348.332741 
L 624.185856 347.896028 
L 624.572928 347.77667 
L 625.056768 347.624969 
L 629.895168 346.262989 
L 632.37888 345.671619 
L 632.733696 345.602911 
L 632.959488 345.541837 
L 633.378816 345.465124 
L 637.636608 344.738498 
L 639.249408 344.419618 
L 641.023488 344.253408 
L 641.539584 344.232845 
L 644.990976 344.219628 
L 657.216 344.328232 
L 657.506304 310.509554 
L 658.796544 308.1458 
L 661.280256 302.971317 
L 664.344576 296.605311 
L 665.021952 295.279573 
L 667.279872 290.928853 
L 672.827904 281.271076 
L 673.82784 279.686757 
L 675.60192 276.965505 
L 683.053056 265.768559 
L 684.504576 265.68647 
L 686.923776 266.408854 
L 688.439808 267.057357 
L 690.375168 267.906979 
L 690.794496 268.095783 
L 693.504 269.24503 
L 695.245824 270.008458 
L 697.536 270.919647 
L 697.600512 345.76007 
L 697.729536 345.079704 
L 698.116608 345.079113 
L 703.34208 345.166526 
L 705.729024 345.222551 
L 726.018048 345.059962 
L 730.469376 345.022972 
L 737.856 344.968432 
L 737.985024 287.107608 
L 738.081792 287.316935 
L 742.920192 288.441555 
L 743.404032 288.548271 
L 744.049152 288.687822 
L 744.565248 288.794538 
L 745.210368 288.934089 
L 745.726464 289.040805 
L 746.371584 289.180356 
L 746.984448 289.287072 
L 747.629568 289.426623 
L 748.242432 289.533339 
L 748.790784 289.631846 
L 749.403648 289.738562 
L 749.952 289.837069 
L 750.468096 289.943784 
L 751.016448 290.042291 
L 751.72608 290.149007 
L 752.274432 290.247514 
L 752.984064 290.350125 
L 753.33888 290.411692 
L 753.951744 290.514303 
L 754.30656 290.57587 
L 755.016192 290.678481 
L 755.371008 290.740048 
L 756.177408 290.84266 
L 756.532224 290.904226 
L 757.241856 291.006838 
L 757.596672 291.068404 
L 758.49984 291.171016 
L 758.854656 291.232583 
L 759.661056 291.335194 
L 760.015872 291.396761 
L 760.91904 291.499372 
L 761.177088 291.519894 
L 761.983488 291.622506 
L 762.338304 291.679968 
L 768.079872 292.29974 
L 769.047552 292.402351 
L 769.3056 292.422874 
L 770.305536 292.525485 
L 770.563584 292.546007 
L 771.660288 292.648619 
L 771.918336 292.665036 
L 774.756864 292.915408 
L 776.014848 293.018019 
L 776.272896 293.034437 
L 777.563136 293.141153 
L 777.821184 293.161675 
L 778.176 293.198615 
L 778.208256 298.604179 
L 778.33728 344.755556 
L 778.466304 344.81321 
L 784.46592 344.801837 
L 818.496 344.767189 
L 818.625024 294.610547 
L 818.721792 294.885545 
L 819.62496 294.881441 
L 825.463296 294.988157 
L 825.721344 295.004574 
L 858.816 295.086663 
L 858.945024 345.064115 
L 859.106304 344.825244 
L 859.364352 344.733802 
L 859.719168 344.778454 
L 860.041728 344.760994 
L 899.136 344.761208 
L 899.29728 294.873232 
L 899.361792 295.337035 
L 899.45856 294.914276 
L 899.523072 295.070246 
L 900.006912 295.086663 
L 939.456 295.086663 
L 939.488256 302.486991 
L 939.61728 344.712393 
L 939.649536 344.831746 
L 939.714048 344.717554 
L 939.810816 344.734513 
L 940.004352 344.785771 
L 940.230144 344.759905 
L 945.9072 344.76121 
L 947.52 344.761199 
L 947.52 344.761199 
" clip-path="url(#p8ef75c6b35)" style="fill: none; stroke: #0000ff; stroke-width: 2; stroke-linecap: square"/>
   </g>
   <g id="patch_16">
    <path d="M 100.8 354.165517 
L 100.8 261.434483 
" style="fill: none; stroke: #bcbcbc; stroke-width: 0.8; stroke-linejoin: miter; stroke-linecap: square"/>
   </g>
   <g id="patch_17">
    <path d="M 987.84 354.165517 
L 987.84 261.434483 
" style="fill: none; stroke: #bcbcbc; stroke-width: 0.8; stroke-linejoin: miter; stroke-linecap: square"/>
   </g>
   <g id="patch_18">
    <path d="M 100.8 354.165517 
L 987.84 354.165517 
" style="fill: none; stroke: #bcbcbc; stroke-width: 0.8; stroke-linejoin: miter; stroke-linecap: square"/>
   </g>
   <g id="patch_19">
    <path d="M 100.8 261.434483 
L 987.84 261.434483 
" style="fill: none; stroke: #bcbcbc; stroke-width: 0.8; stroke-linejoin: miter; stroke-linecap: square"/>
   </g>
  </g>
  <g id="axes_4">
   <g id="patch_20">
    <path d="M 100.8 465.442759 
L 987.84 465.442759 
L 987.84 372.711724 
L 100.8 372.711724 
z
" style="fill: #eeeeee"/>
   </g>
   <g id="matplotlib.axis_7">
    <g id="xtick_19">
     <g id="line2d_56">
      <path d="M 141.12 465.442759 
L 141.12 372.711724 
" clip-path="url(#p79b3b1a283)" style="fill: none; stroke-dasharray: 1.85,0.8; stroke-dashoffset: 0; stroke: #b2b2b2; stroke-width: 0.5"/>
     </g>
     <g id="line2d_57">
      <g>
       <use xlink:href="#mde1dc190a6" x="141.12" y="465.442759" style="stroke: #000000; stroke-width: 0.8"/>
      </g>
     </g>
    </g>
    <g id="xtick_20">
     <g id="line2d_58">
      <path d="M 302.4 465.442759 
L 302.4 372.711724 
" clip-path="url(#p79b3b1a283)" style="fill: none; stroke-dasharray: 1.85,0.8; stroke-dashoffset: 0; stroke: #b2b2b2; stroke-width: 0.5"/>
     </g>
     <g id="line2d_59">
      <g>
       <use xlink:href="#mde1dc190a6" x="302.4" y="465.442759" style="stroke: #000000; stroke-width: 0.8"/>
      </g>
     </g>
    </g>
    <g id="xtick_21">
     <g id="line2d_60">
      <path d="M 463.68 465.442759 
L 463.68 372.711724 
" clip-path="url(#p79b3b1a283)" style="fill: none; stroke-dasharray: 1.85,0.8; stroke-dashoffset: 0; stroke: #b2b2b2; stroke-width: 0.5"/>
     </g>
     <g id="line2d_61">
      <g>
       <use xlink:href="#mde1dc190a6" x="463.68" y="465.442759" style="stroke: #000000; stroke-width: 0.8"/>
      </g>
     </g>
    </g>
    <g id="xtick_22">
     <g id="line2d_62">
      <path d="M 624.96 465.442759 
L 624.96 372.711724 
" clip-path="url(#p79b3b1a283)" style="fill: none; stroke-dasharray: 1.85,0.8; stroke-dashoffset: 0; stroke: #b2b2b2; stroke-width: 0.5"/>
     </g>
     <g id="line2d_63">
      <g>
       <use xlink:href="#mde1dc190a6" x="624.96" y="465.442759" style="stroke: #000000; stroke-width: 0.8"/>
      </g>
     </g>
    </g>
    <g id="xtick_23">
     <g id="line2d_64">
      <path d="M 786.24 465.442759 
L 786.24 372.711724 
" clip-path="url(#p79b3b1a283)" style="fill: none; stroke-dasharray: 1.85,0.8; stroke-dashoffset: 0; stroke: #b2b2b2; stroke-width: 0.5"/>
     </g>
     <g id="line2d_65">
      <g>
       <use xlink:href="#mde1dc190a6" x="786.24" y="465.442759" style="stroke: #000000; stroke-width: 0.8"/>
      </g>
     </g>
    </g>
    <g id="xtick_24">
     <g id="line2d_66">
      <path d="M 947.52 465.442759 
L 947.52 372.711724 
" clip-path="url(#p79b3b1a283)" style="fill: none; stroke-dasharray: 1.85,0.8; stroke-dashoffset: 0; stroke: #b2b2b2; stroke-width: 0.5"/>
     </g>
     <g id="line2d_67">
      <g>
       <use xlink:href="#mde1dc190a6" x="947.52" y="465.442759" style="stroke: #000000; stroke-width: 0.8"/>
      </g>
     </g>
    </g>
   </g>
   <g id="matplotlib.axis_8">
    <g id="ytick_9">
     <g id="line2d_68">
      <path d="M 100.8 436.786139 
L 987.84 436.786139 
" clip-path="url(#p79b3b1a283)" style="fill: none; stroke-dasharray: 1.85,0.8; stroke-dashoffset: 0; stroke: #b2b2b2; stroke-width: 0.5"/>
     </g>
     <g id="line2d_69">
      <g>
       <use xlink:href="#m9270de0aa8" x="100.8" y="436.786139" style="stroke: #000000; stroke-width: 0.8"/>
      </g>
     </g>
     <g id="text_12">
      <!-- 0 V -->
      <g transform="translate(74.36625 442.105046) scale(0.14 -0.14)">
       <use xlink:href="#DejaVuSans-30"/>
       <use xlink:href="#DejaVuSans-20" x="63.623047"/>
       <use xlink:href="#DejaVuSans-56" x="95.410156"/>
      </g>
     </g>
    </g>
    <g id="ytick_10">
     <g id="line2d_70">
      <path d="M 100.8 393.796073 
L 987.84 393.796073 
" clip-path="url(#p79b3b1a283)" style="fill: none; stroke-dasharray: 1.85,0.8; stroke-dashoffset: 0; stroke: #b2b2b2; stroke-width: 0.5"/>
     </g>
     <g id="line2d_71">
      <g>
       <use xlink:href="#m9270de0aa8" x="100.8" y="393.796073" style="stroke: #000000; stroke-width: 0.8"/>
      </g>
     </g>
     <g id="text_13">
      <!-- 1 V -->
      <g transform="translate(74.36625 399.114979) scale(0.14 -0.14)">
       <use xlink:href="#DejaVuSans-31"/>
       <use xlink:href="#DejaVuSans-20" x="63.623047"/>
       <use xlink:href="#DejaVuSans-56" x="95.410156"/>
      </g>
     </g>
    </g>
    <g id="text_14">
     <g id="patch_21">
      <path d="M 34.8768 454.693023 
L 34.8768 383.46146 
L 11.247425 383.46146 
L 11.247425 454.693023 
z
" style="fill: #ffff00; opacity: 0.2; stroke: #eeeeee; stroke-width: 0.5; stroke-linejoin: miter"/>
     </g>
     <!-- DFF OUT -->
     <g transform="translate(26.925238 449.653023) rotate(-90) scale(0.14 -0.14)">
      <defs>
       <path id="DejaVuSans-4f" d="M 2522 4238 
Q 1834 4238 1429 3725 
Q 1025 3213 1025 2328 
Q 1025 1447 1429 934 
Q 1834 422 2522 422 
Q 3209 422 3611 934 
Q 4013 1447 4013 2328 
Q 4013 3213 3611 3725 
Q 3209 4238 2522 4238 
z
M 2522 4750 
Q 3503 4750 4090 4092 
Q 4678 3434 4678 2328 
Q 4678 1225 4090 567 
Q 3503 -91 2522 -91 
Q 1538 -91 948 565 
Q 359 1222 359 2328 
Q 359 3434 948 4092 
Q 1538 4750 2522 4750 
z
" transform="scale(0.015625)"/>
       <path id="DejaVuSans-54" d="M -19 4666 
L 3928 4666 
L 3928 4134 
L 2272 4134 
L 2272 0 
L 1638 0 
L 1638 4134 
L -19 4134 
L -19 4666 
z
" transform="scale(0.015625)"/>
      </defs>
      <use xlink:href="#DejaVuSans-44"/>
      <use xlink:href="#DejaVuSans-46" x="77.001953"/>
      <use xlink:href="#DejaVuSans-46" x="134.521484"/>
      <use xlink:href="#DejaVuSans-20" x="192.041016"/>
      <use xlink:href="#DejaVuSans-4f" x="223.828125"/>
      <use xlink:href="#DejaVuSans-55" x="302.539062"/>
      <use xlink:href="#DejaVuSans-54" x="375.732422"/>
     </g>
    </g>
   </g>
   <g id="line2d_72">
    <path d="M 141.12 404.348845 
L 173.408256 404.401293 
L 173.440512 406.181081 
L 173.601792 436.788763 
L 174.085632 436.783389 
L 183.601152 436.784995 
L 254.048256 436.786794 
L 254.080512 436.95865 
L 254.112768 436.674378 
L 254.306304 432.477245 
L 254.596608 431.635929 
L 254.693376 431.035788 
L 255.14496 423.503928 
L 255.370752 405.801479 
L 255.596544 385.615064 
L 255.757824 385.262545 
L 255.983616 385.193761 
L 256.854528 385.19806 
L 295.755264 385.28404 
L 296.239104 388.065497 
L 296.59392 387.369058 
L 297.948672 385.550578 
L 299.561472 385.232452 
L 334.688256 385.215256 
L 334.720512 385.090585 
L 334.752768 385.722539 
L 334.785024 388.847917 
L 334.914048 436.768517 
L 334.97856 436.730682 
L 335.13984 436.777129 
L 335.494656 436.785515 
L 364.525056 436.784957 
L 415.328256 436.786768 
L 415.360512 436.958052 
L 415.392768 436.67676 
L 415.586304 432.377078 
L 415.844352 431.508249 
L 415.908864 431.272233 
L 416.1024 426.174042 
L 416.521728 411.332151 
L 416.9088 385.339927 
L 417.102336 385.202359 
L 417.682944 385.232452 
L 418.166784 385.189462 
L 418.940928 385.19806 
L 495.968256 385.215256 
L 496.000512 385.361422 
L 496.065024 385.163668 
L 496.323072 385.189462 
L 576.608256 385.215256 
L 576.640512 385.378618 
L 576.705024 385.176565 
L 577.05984 385.189462 
L 592.768512 385.266844 
L 593.736192 386.599536 
L 595.026432 388.684554 
L 600.638976 398.616979 
L 601.284096 400.290153 
L 602.090496 403.568145 
L 602.251776 404.033728 
L 602.606592 405.913683 
L 603.251712 409.069154 
L 603.864576 412.100813 
L 603.896832 411.590521 
L 603.929088 411.634801 
L 604.090368 413.226723 
L 604.541952 415.476823 
L 604.574208 414.957073 
L 604.606464 415.616541 
L 604.832256 416.911832 
L 605.090304 418.266019 
L 605.12256 417.619018 
L 605.187072 418.115554 
L 605.348352 419.540244 
L 605.574144 420.542773 
L 605.638656 420.459372 
L 605.735424 420.792975 
L 605.896704 422.468298 
L 607.670784 431.284701 
L 608.18688 433.51107 
L 608.219136 432.789998 
L 608.283648 433.684621 
L 608.477184 434.751377 
L 609.412608 438.719231 
L 609.444864 438.371742 
L 609.509376 438.630929 
L 609.541632 438.644858 
L 610.219008 441.723978 
L 610.251264 441.50129 
L 610.348032 441.67196 
L 610.380288 442.076927 
L 610.477056 442.033937 
L 610.541568 442.170215 
L 610.638336 442.448361 
L 610.799616 443.383825 
L 611.638272 445.402208 
L 611.670528 445.152006 
L 611.73504 445.26593 
L 612.0576 445.954631 
L 612.21888 446.661817 
L 612.251136 446.598622 
L 612.444672 447.361696 
L 613.18656 448.98887 
L 613.34784 449.601048 
L 613.541376 450.211077 
L 615.412224 454.693651 
L 618.605568 461.203637 
L 618.863616 460.980949 
L 619.218432 460.2815 
L 619.928064 458.700756 
L 619.96032 458.806081 
L 619.992576 458.59543 
L 620.218368 458.154782 
L 620.250624 458.275584 
L 620.28288 457.986691 
L 620.347392 458.03355 
L 620.476416 457.705106 
L 620.508672 457.81688 
L 620.540928 457.710694 
L 620.960256 456.972555 
L 621.153792 456.575327 
L 621.186048 456.651849 
L 621.218304 456.688391 
L 621.379584 456.221948 
L 622.766592 454.56941 
L 623.02464 454.271489 
L 623.153664 454.069866 
L 623.282688 453.731104 
L 623.314944 453.862653 
L 623.3472 453.633946 
L 623.411712 453.539368 
L 623.443968 453.738842 
L 623.476224 453.517443 
L 623.50848 453.607292 
L 623.540736 453.323128 
L 623.605248 453.547536 
L 623.895552 452.920311 
L 623.927808 453.091842 
L 623.960064 452.830892 
L 624.185856 452.595736 
L 624.218112 452.836481 
L 624.282624 452.759528 
L 624.31488 452.719118 
L 624.443904 452.267722 
L 624.79872 451.986567 
L 625.185792 451.683057 
L 625.347072 451.566984 
L 625.798656 450.999515 
L 625.92768 450.575203 
L 626.605056 449.757102 
L 626.637312 450.060612 
L 626.701824 449.63501 
L 626.798592 449.861138 
L 626.830848 449.843512 
L 626.863104 449.42006 
L 626.927616 449.674131 
L 626.992128 449.397705 
L 627.153408 449.193502 
L 627.282432 449.07442 
L 627.314688 449.308286 
L 627.3792 449.004346 
L 627.411456 449.200381 
L 627.669504 448.819059 
L 627.992064 448.551661 
L 628.604928 447.611038 
L 628.733952 447.388779 
L 628.766208 447.684981 
L 628.83072 447.30065 
L 629.024256 447.027663 
L 629.185536 446.886655 
L 629.250048 447.173829 
L 629.31456 447.004878 
L 629.346816 446.64935 
L 629.411328 446.790788 
L 629.443584 446.981663 
L 629.47584 446.636453 
L 629.508096 446.918038 
L 629.669376 446.297262 
L 629.701632 446.310589 
L 629.733888 446.654079 
L 629.7984 446.400008 
L 629.95968 446.079302 
L 629.991936 446.268888 
L 630.056448 445.998911 
L 630.088704 446.17603 
L 630.314496 445.884557 
L 630.76608 445.631775 
L 631.830528 444.451698 
L 631.959552 443.876491 
L 632.120832 443.690344 
L 632.153088 444.124544 
L 632.249856 444.029536 
L 632.282112 443.479263 
L 632.37888 443.575131 
L 632.411136 443.742362 
L 632.443392 443.428105 
L 632.475648 443.450889 
L 632.507904 443.6207 
L 632.54016 443.354162 
L 632.636928 443.267752 
L 632.669184 443.164575 
L 632.70144 443.175753 
L 632.733696 443.568252 
L 632.765952 443.165435 
L 632.830464 443.437132 
L 632.959488 442.97155 
L 632.991744 442.984017 
L 633.024 443.207566 
L 633.056256 442.943607 
L 633.088512 442.940167 
L 633.862656 442.516285 
L 634.572288 441.80265 
L 634.894848 441.440674 
L 635.023872 440.796339 
L 635.088384 440.73568 
L 635.12064 441.00368 
L 635.152896 440.910778 
L 635.249664 440.999424 
L 635.28192 440.431568 
L 635.314176 440.540849 
L 635.346432 440.43965 
L 635.475456 440.285445 
L 635.507712 440.298256 
L 635.539968 440.326887 
L 635.572224 440.212706 
L 635.60448 440.215629 
L 635.636736 440.706618 
L 635.701248 440.135066 
L 636.2496 439.827257 
L 636.701184 439.658736 
L 637.8624 438.408584 
L 638.088192 438.079925 
L 638.217216 437.210868 
L 638.249472 437.15073 
L 638.281728 437.178944 
L 638.313984 437.457214 
L 638.34624 436.969135 
L 638.378496 437.084146 
L 638.410752 436.966934 
L 638.475264 437.376565 
L 638.50752 436.901301 
L 638.539776 437.292347 
L 638.572032 436.795107 
L 638.6688 436.806575 
L 638.701056 436.788118 
L 638.733312 436.93099 
L 638.797824 436.813155 
L 639.571968 435.351002 
L 639.765504 434.271908 
L 639.79776 434.928883 
L 639.862272 434.159446 
L 639.95904 433.99832 
L 640.055808 434.408187 
L 640.12032 433.874938 
L 640.184832 433.941874 
L 640.2816 433.977856 
L 640.313856 433.918831 
L 641.152512 432.136764 
L 641.281536 431.142833 
L 641.346048 431.613575 
L 641.41056 431.464399 
L 641.475072 430.934332 
L 641.57184 431.077488 
L 641.668608 431.106722 
L 642.53952 429.285233 
L 642.797568 428.858771 
L 642.829824 428.17265 
L 642.926592 428.209191 
L 643.02336 428.296891 
L 643.055616 428.211771 
L 646.990848 419.807213 
L 647.119872 419.090138 
L 647.345664 419.111633 
L 648.50688 416.645723 
L 648.635904 416.136721 
L 648.66816 416.215393 
L 648.700416 416.298363 
L 648.732672 416.148758 
L 648.764928 416.174552 
L 648.926208 415.899416 
L 651.40992 411.203181 
L 655.28064 405.160497 
L 655.732224 404.734036 
L 656.280576 403.961074 
L 656.603136 403.170917 
L 657.086976 402.692008 
L 657.312768 402.479637 
L 657.345024 402.294779 
L 657.37728 402.882454 
L 657.474048 420.461092 
L 657.603072 435.875997 
L 657.635328 435.858242 
L 657.893376 435.671106 
L 658.603008 435.283637 
L 659.570688 435.020236 
L 660.989952 434.898532 
L 663.634944 434.937738 
L 676.40832 435.439733 
L 677.601792 435.361406 
L 680.246784 435.382514 
L 683.053056 435.535429 
L 683.762688 436.241025 
L 684.569088 436.683139 
L 685.536768 436.954854 
L 686.988288 437.121311 
L 689.891328 437.187826 
L 697.568256 437.143232 
L 697.600512 437.030594 
L 697.665024 437.155153 
L 699.31008 437.131001 
L 703.245312 437.220941 
L 705.632256 437.285985 
L 714.567168 437.198762 
L 737.888256 437.018608 
L 737.920512 437.369644 
L 738.210816 430.312265 
L 738.436608 429.047498 
L 738.597888 426.881228 
L 738.759168 420.46969 
L 738.952704 401.422081 
L 739.178496 377.403961 
L 739.243008 376.926771 
L 739.30752 376.952565 
L 739.63008 377.01705 
L 740.371968 377.206207 
L 740.75904 377.300785 
L 741.210624 377.416858 
L 742.242816 377.661901 
L 742.887936 377.808068 
L 743.371776 377.902646 
L 743.82336 378.018719 
L 745.145856 378.306752 
L 745.790976 378.452919 
L 746.274816 378.547497 
L 746.629632 378.624879 
L 747.145728 378.719457 
L 747.597312 378.83553 
L 749.597184 379.205245 
L 749.952 379.26973 
L 750.43584 379.364308 
L 750.790656 379.437391 
L 753.758208 379.936076 
L 754.113024 380.000561 
L 754.725888 380.108036 
L 755.080704 380.172521 
L 755.887104 380.279996 
L 756.24192 380.344481 
L 756.919296 380.43906 
L 757.274112 380.512143 
L 768.466944 381.892124 
L 769.434624 381.999599 
L 769.692672 382.021094 
L 770.692608 382.128569 
L 770.950656 382.150064 
L 772.04736 382.257539 
L 772.305408 382.279034 
L 773.49888 382.38651 
L 773.756928 382.408005 
L 774.9504 382.51548 
L 775.208448 382.536975 
L 776.498688 382.64445 
L 776.756736 382.665945 
L 778.143744 382.77342 
L 778.401792 382.790616 
L 779.853312 382.889493 
L 780.208128 382.923885 
L 780.75648 382.962576 
L 782.272512 383.061454 
L 782.627328 383.095846 
L 784.240128 383.203321 
L 784.498176 383.220517 
L 786.336768 383.319394 
L 786.691584 383.349487 
L 788.17536 383.435467 
L 790.11072 383.534344 
L 790.465536 383.568736 
L 791.013888 383.590231 
L 791.271936 383.607427 
L 793.594368 383.706305 
L 793.949184 383.736398 
L 795.1104 383.783687 
L 795.626496 383.826677 
L 798.561792 383.934152 
L 798.81984 383.951348 
L 801.916416 384.050225 
L 802.271232 384.080318 
L 803.464704 384.127607 
L 807.077376 384.235082 
L 807.399936 384.256577 
L 808.238592 384.256577 
L 811.528704 384.364053 
L 811.851264 384.385548 
L 812.722176 384.381249 
L 813.883392 384.424239 
L 818.528256 384.493023 
L 818.560512 384.755262 
L 818.625024 384.475827 
L 818.81856 384.54891 
L 825.43104 384.652086 
L 825.785856 384.682179 
L 858.945024 384.789654 
L 859.074048 384.768159 
L 859.493376 384.768159 
L 860.299776 384.772458 
L 899.168256 384.76386 
L 899.200512 384.98311 
L 899.265024 384.76386 
L 899.45856 384.742365 
L 900.490752 384.768159 
L 947.52 384.768159 
L 947.52 384.768159 
" clip-path="url(#p79b3b1a283)" style="fill: none; stroke: #ff00ff; stroke-width: 2; stroke-linecap: square"/>
   </g>
   <g id="patch_22">
    <path d="M 100.8 465.442759 
L 100.8 372.711724 
" style="fill: none; stroke: #bcbcbc; stroke-width: 0.8; stroke-linejoin: miter; stroke-linecap: square"/>
   </g>
   <g id="patch_23">
    <path d="M 987.84 465.442759 
L 987.84 372.711724 
" style="fill: none; stroke: #bcbcbc; stroke-width: 0.8; stroke-linejoin: miter; stroke-linecap: square"/>
   </g>
   <g id="patch_24">
    <path d="M 100.8 465.442759 
L 987.84 465.442759 
" style="fill: none; stroke: #bcbcbc; stroke-width: 0.8; stroke-linejoin: miter; stroke-linecap: square"/>
   </g>
   <g id="patch_25">
    <path d="M 100.8 372.711724 
L 987.84 372.711724 
" style="fill: none; stroke: #bcbcbc; stroke-width: 0.8; stroke-linejoin: miter; stroke-linecap: square"/>
   </g>
  </g>
  <g id="axes_5">
   <g id="patch_26">
    <path d="M 100.8 576.72 
L 987.84 576.72 
L 987.84 483.988966 
L 100.8 483.988966 
z
" style="fill: #eeeeee"/>
   </g>
   <g id="matplotlib.axis_9">
    <g id="xtick_25">
     <g id="line2d_73">
      <path d="M 141.12 576.72 
L 141.12 483.988966 
" clip-path="url(#pcdc1af6d56)" style="fill: none; stroke-dasharray: 1.85,0.8; stroke-dashoffset: 0; stroke: #b2b2b2; stroke-width: 0.5"/>
     </g>
     <g id="line2d_74">
      <g>
       <use xlink:href="#mde1dc190a6" x="141.12" y="576.72" style="stroke: #000000; stroke-width: 0.8"/>
      </g>
     </g>
     <g id="text_15">
      <!-- 0 s -->
      <g transform="translate(130.795 590.857813) scale(0.14 -0.14)">
       <defs>
        <path id="DejaVuSans-73" d="M 2834 3397 
L 2834 2853 
Q 2591 2978 2328 3040 
Q 2066 3103 1784 3103 
Q 1356 3103 1142 2972 
Q 928 2841 928 2578 
Q 928 2378 1081 2264 
Q 1234 2150 1697 2047 
L 1894 2003 
Q 2506 1872 2764 1633 
Q 3022 1394 3022 966 
Q 3022 478 2636 193 
Q 2250 -91 1575 -91 
Q 1294 -91 989 -36 
Q 684 19 347 128 
L 347 722 
Q 666 556 975 473 
Q 1284 391 1588 391 
Q 1994 391 2212 530 
Q 2431 669 2431 922 
Q 2431 1156 2273 1281 
Q 2116 1406 1581 1522 
L 1381 1569 
Q 847 1681 609 1914 
Q 372 2147 372 2553 
Q 372 3047 722 3315 
Q 1072 3584 1716 3584 
Q 2034 3584 2315 3537 
Q 2597 3491 2834 3397 
z
" transform="scale(0.015625)"/>
       </defs>
       <use xlink:href="#DejaVuSans-30"/>
       <use xlink:href="#DejaVuSans-20" x="63.623047"/>
       <use xlink:href="#DejaVuSans-73" x="95.410156"/>
      </g>
     </g>
    </g>
    <g id="xtick_26">
     <g id="line2d_75">
      <path d="M 302.4 576.72 
L 302.4 483.988966 
" clip-path="url(#pcdc1af6d56)" style="fill: none; stroke-dasharray: 1.85,0.8; stroke-dashoffset: 0; stroke: #b2b2b2; stroke-width: 0.5"/>
     </g>
     <g id="line2d_76">
      <g>
       <use xlink:href="#mde1dc190a6" x="302.4" y="576.72" style="stroke: #000000; stroke-width: 0.8"/>
      </g>
     </g>
     <g id="text_16">
      <!-- 50 ns -->
      <g transform="translate(283.185 590.857813) scale(0.14 -0.14)">
       <defs>
        <path id="DejaVuSans-35" d="M 691 4666 
L 3169 4666 
L 3169 4134 
L 1269 4134 
L 1269 2991 
Q 1406 3038 1543 3061 
Q 1681 3084 1819 3084 
Q 2600 3084 3056 2656 
Q 3513 2228 3513 1497 
Q 3513 744 3044 326 
Q 2575 -91 1722 -91 
Q 1428 -91 1123 -41 
Q 819 9 494 109 
L 494 744 
Q 775 591 1075 516 
Q 1375 441 1709 441 
Q 2250 441 2565 725 
Q 2881 1009 2881 1497 
Q 2881 1984 2565 2268 
Q 2250 2553 1709 2553 
Q 1456 2553 1204 2497 
Q 953 2441 691 2322 
L 691 4666 
z
" transform="scale(0.015625)"/>
        <path id="DejaVuSans-6e" d="M 3513 2113 
L 3513 0 
L 2938 0 
L 2938 2094 
Q 2938 2591 2744 2837 
Q 2550 3084 2163 3084 
Q 1697 3084 1428 2787 
Q 1159 2491 1159 1978 
L 1159 0 
L 581 0 
L 581 3500 
L 1159 3500 
L 1159 2956 
Q 1366 3272 1645 3428 
Q 1925 3584 2291 3584 
Q 2894 3584 3203 3211 
Q 3513 2838 3513 2113 
z
" transform="scale(0.015625)"/>
       </defs>
       <use xlink:href="#DejaVuSans-35"/>
       <use xlink:href="#DejaVuSans-30" x="63.623047"/>
       <use xlink:href="#DejaVuSans-20" x="127.246094"/>
       <use xlink:href="#DejaVuSans-6e" x="159.033203"/>
       <use xlink:href="#DejaVuSans-73" x="222.412109"/>
      </g>
     </g>
    </g>
    <g id="xtick_27">
     <g id="line2d_77">
      <path d="M 463.68 576.72 
L 463.68 483.988966 
" clip-path="url(#pcdc1af6d56)" style="fill: none; stroke-dasharray: 1.85,0.8; stroke-dashoffset: 0; stroke: #b2b2b2; stroke-width: 0.5"/>
     </g>
     <g id="line2d_78">
      <g>
       <use xlink:href="#mde1dc190a6" x="463.68" y="576.72" style="stroke: #000000; stroke-width: 0.8"/>
      </g>
     </g>
     <g id="text_17">
      <!-- 100 ns -->
      <g transform="translate(440.01125 590.857813) scale(0.14 -0.14)">
       <use xlink:href="#DejaVuSans-31"/>
       <use xlink:href="#DejaVuSans-30" x="63.623047"/>
       <use xlink:href="#DejaVuSans-30" x="127.246094"/>
       <use xlink:href="#DejaVuSans-20" x="190.869141"/>
       <use xlink:href="#DejaVuSans-6e" x="222.65625"/>
       <use xlink:href="#DejaVuSans-73" x="286.035156"/>
      </g>
     </g>
    </g>
    <g id="xtick_28">
     <g id="line2d_79">
      <path d="M 624.96 576.72 
L 624.96 483.988966 
" clip-path="url(#pcdc1af6d56)" style="fill: none; stroke-dasharray: 1.85,0.8; stroke-dashoffset: 0; stroke: #b2b2b2; stroke-width: 0.5"/>
     </g>
     <g id="line2d_80">
      <g>
       <use xlink:href="#mde1dc190a6" x="624.96" y="576.72" style="stroke: #000000; stroke-width: 0.8"/>
      </g>
     </g>
     <g id="text_18">
      <!-- 150 ns -->
      <g transform="translate(601.29125 590.857813) scale(0.14 -0.14)">
       <use xlink:href="#DejaVuSans-31"/>
       <use xlink:href="#DejaVuSans-35" x="63.623047"/>
       <use xlink:href="#DejaVuSans-30" x="127.246094"/>
       <use xlink:href="#DejaVuSans-20" x="190.869141"/>
       <use xlink:href="#DejaVuSans-6e" x="222.65625"/>
       <use xlink:href="#DejaVuSans-73" x="286.035156"/>
      </g>
     </g>
    </g>
    <g id="xtick_29">
     <g id="line2d_81">
      <path d="M 786.24 576.72 
L 786.24 483.988966 
" clip-path="url(#pcdc1af6d56)" style="fill: none; stroke-dasharray: 1.85,0.8; stroke-dashoffset: 0; stroke: #b2b2b2; stroke-width: 0.5"/>
     </g>
     <g id="line2d_82">
      <g>
       <use xlink:href="#mde1dc190a6" x="786.24" y="576.72" style="stroke: #000000; stroke-width: 0.8"/>
      </g>
     </g>
     <g id="text_19">
      <!-- 200 ns -->
      <g transform="translate(762.57125 590.857813) scale(0.14 -0.14)">
       <use xlink:href="#DejaVuSans-32"/>
       <use xlink:href="#DejaVuSans-30" x="63.623047"/>
       <use xlink:href="#DejaVuSans-30" x="127.246094"/>
       <use xlink:href="#DejaVuSans-20" x="190.869141"/>
       <use xlink:href="#DejaVuSans-6e" x="222.65625"/>
       <use xlink:href="#DejaVuSans-73" x="286.035156"/>
      </g>
     </g>
    </g>
    <g id="xtick_30">
     <g id="line2d_83">
      <path d="M 947.52 576.72 
L 947.52 483.988966 
" clip-path="url(#pcdc1af6d56)" style="fill: none; stroke-dasharray: 1.85,0.8; stroke-dashoffset: 0; stroke: #b2b2b2; stroke-width: 0.5"/>
     </g>
     <g id="line2d_84">
      <g>
       <use xlink:href="#mde1dc190a6" x="947.52" y="576.72" style="stroke: #000000; stroke-width: 0.8"/>
      </g>
     </g>
     <g id="text_20">
      <!-- 250 ns -->
      <g transform="translate(923.85125 590.857813) scale(0.14 -0.14)">
       <use xlink:href="#DejaVuSans-32"/>
       <use xlink:href="#DejaVuSans-35" x="63.623047"/>
       <use xlink:href="#DejaVuSans-30" x="127.246094"/>
       <use xlink:href="#DejaVuSans-20" x="190.869141"/>
       <use xlink:href="#DejaVuSans-6e" x="222.65625"/>
       <use xlink:href="#DejaVuSans-73" x="286.035156"/>
      </g>
     </g>
    </g>
    <g id="text_21">
     <!-- Time -->
     <g transform="translate(527.192969 608.407187) scale(0.14 -0.14)">
      <defs>
       <path id="DejaVuSans-69" d="M 603 3500 
L 1178 3500 
L 1178 0 
L 603 0 
L 603 3500 
z
M 603 4863 
L 1178 4863 
L 1178 4134 
L 603 4134 
L 603 4863 
z
" transform="scale(0.015625)"/>
       <path id="DejaVuSans-6d" d="M 3328 2828 
Q 3544 3216 3844 3400 
Q 4144 3584 4550 3584 
Q 5097 3584 5394 3201 
Q 5691 2819 5691 2113 
L 5691 0 
L 5113 0 
L 5113 2094 
Q 5113 2597 4934 2840 
Q 4756 3084 4391 3084 
Q 3944 3084 3684 2787 
Q 3425 2491 3425 1978 
L 3425 0 
L 2847 0 
L 2847 2094 
Q 2847 2600 2669 2842 
Q 2491 3084 2119 3084 
Q 1678 3084 1418 2786 
Q 1159 2488 1159 1978 
L 1159 0 
L 581 0 
L 581 3500 
L 1159 3500 
L 1159 2956 
Q 1356 3278 1631 3431 
Q 1906 3584 2284 3584 
Q 2666 3584 2933 3390 
Q 3200 3197 3328 2828 
z
" transform="scale(0.015625)"/>
       <path id="DejaVuSans-65" d="M 3597 1894 
L 3597 1613 
L 953 1613 
Q 991 1019 1311 708 
Q 1631 397 2203 397 
Q 2534 397 2845 478 
Q 3156 559 3463 722 
L 3463 178 
Q 3153 47 2828 -22 
Q 2503 -91 2169 -91 
Q 1331 -91 842 396 
Q 353 884 353 1716 
Q 353 2575 817 3079 
Q 1281 3584 2069 3584 
Q 2775 3584 3186 3129 
Q 3597 2675 3597 1894 
z
M 3022 2063 
Q 3016 2534 2758 2815 
Q 2500 3097 2075 3097 
Q 1594 3097 1305 2825 
Q 1016 2553 972 2059 
L 3022 2063 
z
" transform="scale(0.015625)"/>
      </defs>
      <use xlink:href="#DejaVuSans-54"/>
      <use xlink:href="#DejaVuSans-69" x="57.958984"/>
      <use xlink:href="#DejaVuSans-6d" x="85.742188"/>
      <use xlink:href="#DejaVuSans-65" x="183.154297"/>
     </g>
    </g>
   </g>
   <g id="matplotlib.axis_10">
    <g id="ytick_11">
     <g id="line2d_85">
      <path d="M 100.8 569.745885 
L 987.84 569.745885 
" clip-path="url(#pcdc1af6d56)" style="fill: none; stroke-dasharray: 1.85,0.8; stroke-dashoffset: 0; stroke: #b2b2b2; stroke-width: 0.5"/>
     </g>
     <g id="line2d_86">
      <g>
       <use xlink:href="#m9270de0aa8" x="100.8" y="569.745885" style="stroke: #000000; stroke-width: 0.8"/>
      </g>
     </g>
     <g id="text_22">
      <!-- 0 V -->
      <g transform="translate(74.36625 575.064792) scale(0.14 -0.14)">
       <use xlink:href="#DejaVuSans-30"/>
       <use xlink:href="#DejaVuSans-20" x="63.623047"/>
       <use xlink:href="#DejaVuSans-56" x="95.410156"/>
      </g>
     </g>
    </g>
    <g id="ytick_12">
     <g id="line2d_87">
      <path d="M 100.8 535.950348 
L 987.84 535.950348 
" clip-path="url(#pcdc1af6d56)" style="fill: none; stroke-dasharray: 1.85,0.8; stroke-dashoffset: 0; stroke: #b2b2b2; stroke-width: 0.5"/>
     </g>
     <g id="line2d_88">
      <g>
       <use xlink:href="#m9270de0aa8" x="100.8" y="535.950348" style="stroke: #000000; stroke-width: 0.8"/>
      </g>
     </g>
     <g id="text_23">
      <!-- 500 mV -->
      <g transform="translate(42.914375 541.269254) scale(0.14 -0.14)">
       <use xlink:href="#DejaVuSans-35"/>
       <use xlink:href="#DejaVuSans-30" x="63.623047"/>
       <use xlink:href="#DejaVuSans-30" x="127.246094"/>
       <use xlink:href="#DejaVuSans-20" x="190.869141"/>
       <use xlink:href="#DejaVuSans-6d" x="222.65625"/>
       <use xlink:href="#DejaVuSans-56" x="320.068359"/>
      </g>
     </g>
    </g>
    <g id="ytick_13">
     <g id="line2d_89">
      <path d="M 100.8 502.15481 
L 987.84 502.15481 
" clip-path="url(#pcdc1af6d56)" style="fill: none; stroke-dasharray: 1.85,0.8; stroke-dashoffset: 0; stroke: #b2b2b2; stroke-width: 0.5"/>
     </g>
     <g id="line2d_90">
      <g>
       <use xlink:href="#m9270de0aa8" x="100.8" y="502.15481" style="stroke: #000000; stroke-width: 0.8"/>
      </g>
     </g>
     <g id="text_24">
      <!-- 1 V -->
      <g transform="translate(74.36625 507.473717) scale(0.14 -0.14)">
       <use xlink:href="#DejaVuSans-31"/>
       <use xlink:href="#DejaVuSans-20" x="63.623047"/>
       <use xlink:href="#DejaVuSans-56" x="95.410156"/>
      </g>
     </g>
    </g>
    <g id="text_25">
     <g id="patch_27">
      <path d="M 34.8768 554.329483 
L 34.8768 506.379483 
L 11.247425 506.379483 
L 11.247425 554.329483 
z
" style="fill: #ffff00; opacity: 0.2; stroke: #eeeeee; stroke-width: 0.5; stroke-linejoin: miter"/>
     </g>
     <!-- FOUT -->
     <g transform="translate(26.925238 549.289483) rotate(-90) scale(0.14 -0.14)">
      <use xlink:href="#DejaVuSans-46"/>
      <use xlink:href="#DejaVuSans-4f" x="57.519531"/>
      <use xlink:href="#DejaVuSans-55" x="136.230469"/>
      <use xlink:href="#DejaVuSans-54" x="209.423828"/>
     </g>
    </g>
   </g>
   <g id="line2d_91">
    <path d="M 141.12 488.636595 
L 173.472768 488.643355 
L 173.505024 488.44734 
L 173.569536 526.789729 
L 173.69856 572.504953 
L 173.730816 572.3695 
L 173.827584 567.842115 
L 173.892096 569.3609 
L 174.053376 570.064192 
L 174.117888 569.946665 
L 174.408192 569.492054 
L 174.440448 569.54151 
L 174.66624 569.729954 
L 176.182272 569.740151 
L 180.117504 569.761449 
L 193.568256 569.752159 
L 212.954112 569.74401 
L 255.30624 569.743704 
L 255.6288 488.52845 
L 255.854592 488.670391 
L 256.209408 488.629836 
L 334.849536 488.650114 
L 334.881792 492.854278 
L 335.043072 572.18376 
L 335.107584 570.261206 
L 335.172096 568.338639 
L 335.236608 568.870108 
L 335.365632 570.783003 
L 335.430144 570.410083 
L 335.591424 569.797213 
L 335.881728 569.648439 
L 336.559104 569.817924 
L 337.107456 569.746143 
L 350.009856 569.744206 
L 416.489472 569.74333 
L 416.553984 567.480841 
L 416.812032 488.204013 
L 416.844288 488.339195 
L 416.973312 488.852887 
L 417.037824 488.778537 
L 417.39264 488.548727 
L 417.844224 488.717705 
L 418.457088 488.562245 
L 419.328 488.636595 
L 604.090368 488.596041 
L 604.15488 488.339195 
L 604.187136 489.238156 
L 604.251648 522.618684 
L 604.380672 569.961832 
L 604.412928 569.765761 
L 604.63872 569.745464 
L 606.638592 569.744164 
L 650.60352 569.815362 
L 650.668032 567.024128 
L 651.022848 488.650114 
L 651.603456 488.636595 
L 657.474048 488.656873 
L 657.506304 488.974551 
L 657.635328 571.544687 
L 657.828864 569.74414 
L 671.473152 569.744207 
L 738.888192 569.735094 
L 738.920448 569.330626 
L 738.98496 541.313024 
L 739.14624 489.244915 
L 739.243008 488.535209 
L 739.30752 488.629836 
L 739.855872 488.636595 
L 947.52 488.636595 
L 947.52 488.636595 
" clip-path="url(#pcdc1af6d56)" style="fill: none; stroke: #ff00ff; stroke-width: 2; stroke-linecap: square"/>
   </g>
   <g id="patch_28">
    <path d="M 100.8 576.72 
L 100.8 483.988966 
" style="fill: none; stroke: #bcbcbc; stroke-width: 0.8; stroke-linejoin: miter; stroke-linecap: square"/>
   </g>
   <g id="patch_29">
    <path d="M 987.84 576.72 
L 987.84 483.988966 
" style="fill: none; stroke: #bcbcbc; stroke-width: 0.8; stroke-linejoin: miter; stroke-linecap: square"/>
   </g>
   <g id="patch_30">
    <path d="M 100.8 576.72 
L 987.84 576.72 
" style="fill: none; stroke: #bcbcbc; stroke-width: 0.8; stroke-linejoin: miter; stroke-linecap: square"/>
   </g>
   <g id="patch_31">
    <path d="M 100.8 483.988966 
L 987.84 483.988966 
" style="fill: none; stroke: #bcbcbc; stroke-width: 0.8; stroke-linejoin: miter; stroke-linecap: square"/>
   </g>
  </g>
  <g id="axes_6">
   <g id="patch_32">
    <path d="M 201.6 628.56 
L 856.8 628.56 
L 856.8 615.6 
L 201.6 615.6 
z
" clip-path="url(#p483c666aea)" style="fill: #d3d3d3"/>
   </g>
   <g id="patch_33">
    <path d="M 201.6 628.56 
L 781.92 628.56 
L 781.92 615.6 
L 201.6 615.6 
z
" clip-path="url(#p483c666aea)" style="fill: #0000ff"/>
   </g>
   <g id="line2d_92">
    <path d="M 201.6 635.04 
L 201.6 609.12 
" clip-path="url(#p597c82b5ff)" style="fill: none; stroke: #ff0000; stroke-linecap: square"/>
   </g>
   <g id="line2d_93">
    <defs>
     <path id="mea8c198267" d="M 0 5 
C 1.326016 5 2.597899 4.473168 3.535534 3.535534 
C 4.473168 2.597899 5 1.326016 5 0 
C 5 -1.326016 4.473168 -2.597899 3.535534 -3.535534 
C 2.597899 -4.473168 1.326016 -5 0 -5 
C -1.326016 -5 -2.597899 -4.473168 -3.535534 -3.535534 
C -4.473168 -2.597899 -5 -1.326016 -5 0 
C -5 1.326016 -4.473168 2.597899 -3.535534 3.535534 
C -2.597899 4.473168 -1.326016 5 0 5 
z
" style="stroke: #bfbfbf"/>
    </defs>
    <g>
     <use xlink:href="#mea8c198267" x="781.92" y="622.08" style="fill: #ffffff; stroke: #bfbfbf"/>
    </g>
   </g>
   <g id="text_26">
    <!-- #Sweep -->
    <g transform="translate(138.622875 625.39125) scale(0.12 -0.12)">
     <defs>
      <path id="DejaVuSans-23" d="M 3272 2816 
L 2363 2816 
L 2100 1772 
L 3016 1772 
L 3272 2816 
z
M 2803 4594 
L 2478 3297 
L 3391 3297 
L 3719 4594 
L 4219 4594 
L 3897 3297 
L 4872 3297 
L 4872 2816 
L 3775 2816 
L 3519 1772 
L 4513 1772 
L 4513 1294 
L 3397 1294 
L 3072 0 
L 2572 0 
L 2894 1294 
L 1978 1294 
L 1656 0 
L 1153 0 
L 1478 1294 
L 494 1294 
L 494 1772 
L 1594 1772 
L 1856 2816 
L 850 2816 
L 850 3297 
L 1978 3297 
L 2297 4594 
L 2803 4594 
z
" transform="scale(0.015625)"/>
      <path id="DejaVuSans-77" d="M 269 3500 
L 844 3500 
L 1563 769 
L 2278 3500 
L 2956 3500 
L 3675 769 
L 4391 3500 
L 4966 3500 
L 4050 0 
L 3372 0 
L 2619 2869 
L 1863 0 
L 1184 0 
L 269 3500 
z
" transform="scale(0.015625)"/>
      <path id="DejaVuSans-70" d="M 1159 525 
L 1159 -1331 
L 581 -1331 
L 581 3500 
L 1159 3500 
L 1159 2969 
Q 1341 3281 1617 3432 
Q 1894 3584 2278 3584 
Q 2916 3584 3314 3078 
Q 3713 2572 3713 1747 
Q 3713 922 3314 415 
Q 2916 -91 2278 -91 
Q 1894 -91 1617 61 
Q 1341 213 1159 525 
z
M 3116 1747 
Q 3116 2381 2855 2742 
Q 2594 3103 2138 3103 
Q 1681 3103 1420 2742 
Q 1159 2381 1159 1747 
Q 1159 1113 1420 752 
Q 1681 391 2138 391 
Q 2594 391 2855 752 
Q 3116 1113 3116 1747 
z
" transform="scale(0.015625)"/>
     </defs>
     <use xlink:href="#DejaVuSans-23"/>
     <use xlink:href="#DejaVuSans-53" x="83.789062"/>
     <use xlink:href="#DejaVuSans-77" x="147.265625"/>
     <use xlink:href="#DejaVuSans-65" x="229.052734"/>
     <use xlink:href="#DejaVuSans-65" x="290.576172"/>
     <use xlink:href="#DejaVuSans-70" x="352.099609"/>
    </g>
   </g>
   <g id="text_27">
    <!-- $\mathdefault{124}$ -->
    <g transform="translate(869.904 625.39125) scale(0.12 -0.12)">
     <defs>
      <path id="DejaVuSans-34" d="M 2419 4116 
L 825 1625 
L 2419 1625 
L 2419 4116 
z
M 2253 4666 
L 3047 4666 
L 3047 1625 
L 3713 1625 
L 3713 1100 
L 3047 1100 
L 3047 0 
L 2419 0 
L 2419 1100 
L 313 1100 
L 313 1709 
L 2253 4666 
z
" transform="scale(0.015625)"/>
     </defs>
     <use xlink:href="#DejaVuSans-31" transform="translate(0 0.78125)"/>
     <use xlink:href="#DejaVuSans-32" transform="translate(63.623047 0.78125)"/>
     <use xlink:href="#DejaVuSans-34" transform="translate(127.246094 0.78125)"/>
    </g>
   </g>
  </g>
  <g id="text_28">
   <!-- DFF under BBI sweep analysis (Sweep = 134E-9) -->
   <g transform="translate(308.25625 25.1175) scale(0.16 -0.16)">
    <defs>
     <path id="DejaVuSans-75" d="M 544 1381 
L 544 3500 
L 1119 3500 
L 1119 1403 
Q 1119 906 1312 657 
Q 1506 409 1894 409 
Q 2359 409 2629 706 
Q 2900 1003 2900 1516 
L 2900 3500 
L 3475 3500 
L 3475 0 
L 2900 0 
L 2900 538 
Q 2691 219 2414 64 
Q 2138 -91 1772 -91 
Q 1169 -91 856 284 
Q 544 659 544 1381 
z
M 1991 3584 
L 1991 3584 
z
" transform="scale(0.015625)"/>
     <path id="DejaVuSans-64" d="M 2906 2969 
L 2906 4863 
L 3481 4863 
L 3481 0 
L 2906 0 
L 2906 525 
Q 2725 213 2448 61 
Q 2172 -91 1784 -91 
Q 1150 -91 751 415 
Q 353 922 353 1747 
Q 353 2572 751 3078 
Q 1150 3584 1784 3584 
Q 2172 3584 2448 3432 
Q 2725 3281 2906 2969 
z
M 947 1747 
Q 947 1113 1208 752 
Q 1469 391 1925 391 
Q 2381 391 2643 752 
Q 2906 1113 2906 1747 
Q 2906 2381 2643 2742 
Q 2381 3103 1925 3103 
Q 1469 3103 1208 2742 
Q 947 2381 947 1747 
z
" transform="scale(0.015625)"/>
     <path id="DejaVuSans-72" d="M 2631 2963 
Q 2534 3019 2420 3045 
Q 2306 3072 2169 3072 
Q 1681 3072 1420 2755 
Q 1159 2438 1159 1844 
L 1159 0 
L 581 0 
L 581 3500 
L 1159 3500 
L 1159 2956 
Q 1341 3275 1631 3429 
Q 1922 3584 2338 3584 
Q 2397 3584 2469 3576 
Q 2541 3569 2628 3553 
L 2631 2963 
z
" transform="scale(0.015625)"/>
     <path id="DejaVuSans-61" d="M 2194 1759 
Q 1497 1759 1228 1600 
Q 959 1441 959 1056 
Q 959 750 1161 570 
Q 1363 391 1709 391 
Q 2188 391 2477 730 
Q 2766 1069 2766 1631 
L 2766 1759 
L 2194 1759 
z
M 3341 1997 
L 3341 0 
L 2766 0 
L 2766 531 
Q 2569 213 2275 61 
Q 1981 -91 1556 -91 
Q 1019 -91 701 211 
Q 384 513 384 1019 
Q 384 1609 779 1909 
Q 1175 2209 1959 2209 
L 2766 2209 
L 2766 2266 
Q 2766 2663 2505 2880 
Q 2244 3097 1772 3097 
Q 1472 3097 1187 3025 
Q 903 2953 641 2809 
L 641 3341 
Q 956 3463 1253 3523 
Q 1550 3584 1831 3584 
Q 2591 3584 2966 3190 
Q 3341 2797 3341 1997 
z
" transform="scale(0.015625)"/>
     <path id="DejaVuSans-6c" d="M 603 4863 
L 1178 4863 
L 1178 0 
L 603 0 
L 603 4863 
z
" transform="scale(0.015625)"/>
     <path id="DejaVuSans-79" d="M 2059 -325 
Q 1816 -950 1584 -1140 
Q 1353 -1331 966 -1331 
L 506 -1331 
L 506 -850 
L 844 -850 
Q 1081 -850 1212 -737 
Q 1344 -625 1503 -206 
L 1606 56 
L 191 3500 
L 800 3500 
L 1894 763 
L 2988 3500 
L 3597 3500 
L 2059 -325 
z
" transform="scale(0.015625)"/>
     <path id="DejaVuSans-28" d="M 1984 4856 
Q 1566 4138 1362 3434 
Q 1159 2731 1159 2009 
Q 1159 1288 1364 580 
Q 1569 -128 1984 -844 
L 1484 -844 
Q 1016 -109 783 600 
Q 550 1309 550 2009 
Q 550 2706 781 3412 
Q 1013 4119 1484 4856 
L 1984 4856 
z
" transform="scale(0.015625)"/>
     <path id="DejaVuSans-3d" d="M 678 2906 
L 4684 2906 
L 4684 2381 
L 678 2381 
L 678 2906 
z
M 678 1631 
L 4684 1631 
L 4684 1100 
L 678 1100 
L 678 1631 
z
" transform="scale(0.015625)"/>
     <path id="DejaVuSans-33" d="M 2597 2516 
Q 3050 2419 3304 2112 
Q 3559 1806 3559 1356 
Q 3559 666 3084 287 
Q 2609 -91 1734 -91 
Q 1441 -91 1130 -33 
Q 819 25 488 141 
L 488 750 
Q 750 597 1062 519 
Q 1375 441 1716 441 
Q 2309 441 2620 675 
Q 2931 909 2931 1356 
Q 2931 1769 2642 2001 
Q 2353 2234 1838 2234 
L 1294 2234 
L 1294 2753 
L 1863 2753 
Q 2328 2753 2575 2939 
Q 2822 3125 2822 3475 
Q 2822 3834 2567 4026 
Q 2313 4219 1838 4219 
Q 1578 4219 1281 4162 
Q 984 4106 628 3988 
L 628 4550 
Q 988 4650 1302 4700 
Q 1616 4750 1894 4750 
Q 2613 4750 3031 4423 
Q 3450 4097 3450 3541 
Q 3450 3153 3228 2886 
Q 3006 2619 2597 2516 
z
" transform="scale(0.015625)"/>
     <path id="DejaVuSans-2d" d="M 313 2009 
L 1997 2009 
L 1997 1497 
L 313 1497 
L 313 2009 
z
" transform="scale(0.015625)"/>
     <path id="DejaVuSans-39" d="M 703 97 
L 703 672 
Q 941 559 1184 500 
Q 1428 441 1663 441 
Q 2288 441 2617 861 
Q 2947 1281 2994 2138 
Q 2813 1869 2534 1725 
Q 2256 1581 1919 1581 
Q 1219 1581 811 2004 
Q 403 2428 403 3163 
Q 403 3881 828 4315 
Q 1253 4750 1959 4750 
Q 2769 4750 3195 4129 
Q 3622 3509 3622 2328 
Q 3622 1225 3098 567 
Q 2575 -91 1691 -91 
Q 1453 -91 1209 -44 
Q 966 3 703 97 
z
M 1959 2075 
Q 2384 2075 2632 2365 
Q 2881 2656 2881 3163 
Q 2881 3666 2632 3958 
Q 2384 4250 1959 4250 
Q 1534 4250 1286 3958 
Q 1038 3666 1038 3163 
Q 1038 2656 1286 2365 
Q 1534 2075 1959 2075 
z
" transform="scale(0.015625)"/>
     <path id="DejaVuSans-29" d="M 513 4856 
L 1013 4856 
Q 1481 4119 1714 3412 
Q 1947 2706 1947 2009 
Q 1947 1309 1714 600 
Q 1481 -109 1013 -844 
L 513 -844 
Q 928 -128 1133 580 
Q 1338 1288 1338 2009 
Q 1338 2731 1133 3434 
Q 928 4138 513 4856 
z
" transform="scale(0.015625)"/>
    </defs>
    <use xlink:href="#DejaVuSans-44"/>
    <use xlink:href="#DejaVuSans-46" x="77.001953"/>
    <use xlink:href="#DejaVuSans-46" x="134.521484"/>
    <use xlink:href="#DejaVuSans-20" x="192.041016"/>
    <use xlink:href="#DejaVuSans-75" x="223.828125"/>
    <use xlink:href="#DejaVuSans-6e" x="287.207031"/>
    <use xlink:href="#DejaVuSans-64" x="350.585938"/>
    <use xlink:href="#DejaVuSans-65" x="414.0625"/>
    <use xlink:href="#DejaVuSans-72" x="475.585938"/>
    <use xlink:href="#DejaVuSans-20" x="516.699219"/>
    <use xlink:href="#DejaVuSans-42" x="548.486328"/>
    <use xlink:href="#DejaVuSans-42" x="617.089844"/>
    <use xlink:href="#DejaVuSans-49" x="685.693359"/>
    <use xlink:href="#DejaVuSans-20" x="715.185547"/>
    <use xlink:href="#DejaVuSans-73" x="746.972656"/>
    <use xlink:href="#DejaVuSans-77" x="799.072266"/>
    <use xlink:href="#DejaVuSans-65" x="880.859375"/>
    <use xlink:href="#DejaVuSans-65" x="942.382812"/>
    <use xlink:href="#DejaVuSans-70" x="1003.90625"/>
    <use xlink:href="#DejaVuSans-20" x="1067.382812"/>
    <use xlink:href="#DejaVuSans-61" x="1099.169922"/>
    <use xlink:href="#DejaVuSans-6e" x="1160.449219"/>
    <use xlink:href="#DejaVuSans-61" x="1223.828125"/>
    <use xlink:href="#DejaVuSans-6c" x="1285.107422"/>
    <use xlink:href="#DejaVuSans-79" x="1312.890625"/>
    <use xlink:href="#DejaVuSans-73" x="1372.070312"/>
    <use xlink:href="#DejaVuSans-69" x="1424.169922"/>
    <use xlink:href="#DejaVuSans-73" x="1451.953125"/>
    <use xlink:href="#DejaVuSans-20" x="1504.052734"/>
    <use xlink:href="#DejaVuSans-28" x="1535.839844"/>
    <use xlink:href="#DejaVuSans-53" x="1574.853516"/>
    <use xlink:href="#DejaVuSans-77" x="1638.330078"/>
    <use xlink:href="#DejaVuSans-65" x="1720.117188"/>
    <use xlink:href="#DejaVuSans-65" x="1781.640625"/>
    <use xlink:href="#DejaVuSans-70" x="1843.164062"/>
    <use xlink:href="#DejaVuSans-20" x="1906.640625"/>
    <use xlink:href="#DejaVuSans-3d" x="1938.427734"/>
    <use xlink:href="#DejaVuSans-20" x="2022.216797"/>
    <use xlink:href="#DejaVuSans-31" x="2054.003906"/>
    <use xlink:href="#DejaVuSans-33" x="2117.626953"/>
    <use xlink:href="#DejaVuSans-34" x="2181.25"/>
    <use xlink:href="#DejaVuSans-45" x="2244.873047"/>
    <use xlink:href="#DejaVuSans-2d" x="2308.056641"/>
    <use xlink:href="#DejaVuSans-39" x="2344.140625"/>
    <use xlink:href="#DejaVuSans-29" x="2407.763672"/>
   </g>
  </g>
 </g>
 <defs>
  <clipPath id="p3ac18b3e5a">
   <rect x="100.8" y="38.88" width="887.04" height="92.731034"/>
  </clipPath>
  <clipPath id="p2207bbd09a">
   <rect x="100.8" y="150.157241" width="887.04" height="92.731034"/>
  </clipPath>
  <clipPath id="p8ef75c6b35">
   <rect x="100.8" y="261.434483" width="887.04" height="92.731034"/>
  </clipPath>
  <clipPath id="p79b3b1a283">
   <rect x="100.8" y="372.711724" width="887.04" height="92.731034"/>
  </clipPath>
  <clipPath id="pcdc1af6d56">
   <rect x="100.8" y="483.988966" width="887.04" height="92.731034"/>
  </clipPath>
  <clipPath id="p483c666aea">
   <rect x="201.6" y="609.12" width="655.2" height="25.92"/>
  </clipPath>
  <clipPath id="p597c82b5ff">
   <path d="M 201.6 628.56 
L 856.8 628.56 
L 856.8 615.6 
L 201.6 615.6 
z
"/>
  </clipPath>
 </defs>
</svg>
