<?xml version="1.0" encoding="utf-8" standalone="no"?>
<!DOCTYPE svg PUBLIC "-//W3C//DTD SVG 1.1//EN"
  "http://www.w3.org/Graphics/SVG/1.1/DTD/svg11.dtd">
<svg xmlns:xlink="http://www.w3.org/1999/xlink" width="1008pt" height="648pt" viewBox="0 0 1008 648" xmlns="http://www.w3.org/2000/svg" version="1.1">
 <metadata>
  <rdf:RDF xmlns:dc="http://purl.org/dc/elements/1.1/" xmlns:cc="http://creativecommons.org/ns#" xmlns:rdf="http://www.w3.org/1999/02/22-rdf-syntax-ns#">
   <cc:Work>
    <dc:type rdf:resource="http://purl.org/dc/dcmitype/StillImage"/>
    <dc:date>2024-06-03T10:45:52.802501</dc:date>
    <dc:format>image/svg+xml</dc:format>
    <dc:creator>
     <cc:Agent>
      <dc:title>Matplotlib v3.9.0, https://matplotlib.org/</dc:title>
     </cc:Agent>
    </dc:creator>
   </cc:Work>
  </rdf:RDF>
 </metadata>
 <defs>
  <style type="text/css">*{stroke-linejoin: round; stroke-linecap: butt}</style>
 </defs>
 <g id="figure_1">
  <g id="patch_1">
   <path d="M 0 648 
L 1008 648 
L 1008 0 
L 0 0 
z
" style="fill: #ffffff"/>
  </g>
  <g id="axes_1">
   <g id="patch_2">
    <path d="M 100.8 131.611034 
L 987.84 131.611034 
L 987.84 38.88 
L 100.8 38.88 
z
" style="fill: #eeeeee"/>
   </g>
   <g id="matplotlib.axis_1">
    <g id="xtick_1">
     <g id="line2d_1">
      <path d="M 141.12 131.611034 
L 141.12 38.88 
" clip-path="url(#ped3bb817fc)" style="fill: none; stroke-dasharray: 1.85,0.8; stroke-dashoffset: 0; stroke: #b2b2b2; stroke-width: 0.5"/>
     </g>
     <g id="line2d_2">
      <defs>
       <path id="m1537376b1a" d="M 0 0 
L 0 -3.5 
" style="stroke: #000000; stroke-width: 0.8"/>
      </defs>
      <g>
       <use xlink:href="#m1537376b1a" x="141.12" y="131.611034" style="stroke: #000000; stroke-width: 0.8"/>
      </g>
     </g>
    </g>
    <g id="xtick_2">
     <g id="line2d_3">
      <path d="M 302.4 131.611034 
L 302.4 38.88 
" clip-path="url(#ped3bb817fc)" style="fill: none; stroke-dasharray: 1.85,0.8; stroke-dashoffset: 0; stroke: #b2b2b2; stroke-width: 0.5"/>
     </g>
     <g id="line2d_4">
      <g>
       <use xlink:href="#m1537376b1a" x="302.4" y="131.611034" style="stroke: #000000; stroke-width: 0.8"/>
      </g>
     </g>
    </g>
    <g id="xtick_3">
     <g id="line2d_5">
      <path d="M 463.68 131.611034 
L 463.68 38.88 
" clip-path="url(#ped3bb817fc)" style="fill: none; stroke-dasharray: 1.85,0.8; stroke-dashoffset: 0; stroke: #b2b2b2; stroke-width: 0.5"/>
     </g>
     <g id="line2d_6">
      <g>
       <use xlink:href="#m1537376b1a" x="463.68" y="131.611034" style="stroke: #000000; stroke-width: 0.8"/>
      </g>
     </g>
    </g>
    <g id="xtick_4">
     <g id="line2d_7">
      <path d="M 624.96 131.611034 
L 624.96 38.88 
" clip-path="url(#ped3bb817fc)" style="fill: none; stroke-dasharray: 1.85,0.8; stroke-dashoffset: 0; stroke: #b2b2b2; stroke-width: 0.5"/>
     </g>
     <g id="line2d_8">
      <g>
       <use xlink:href="#m1537376b1a" x="624.96" y="131.611034" style="stroke: #000000; stroke-width: 0.8"/>
      </g>
     </g>
    </g>
    <g id="xtick_5">
     <g id="line2d_9">
      <path d="M 786.24 131.611034 
L 786.24 38.88 
" clip-path="url(#ped3bb817fc)" style="fill: none; stroke-dasharray: 1.85,0.8; stroke-dashoffset: 0; stroke: #b2b2b2; stroke-width: 0.5"/>
     </g>
     <g id="line2d_10">
      <g>
       <use xlink:href="#m1537376b1a" x="786.24" y="131.611034" style="stroke: #000000; stroke-width: 0.8"/>
      </g>
     </g>
    </g>
    <g id="xtick_6">
     <g id="line2d_11">
      <path d="M 947.52 131.611034 
L 947.52 38.88 
" clip-path="url(#ped3bb817fc)" style="fill: none; stroke-dasharray: 1.85,0.8; stroke-dashoffset: 0; stroke: #b2b2b2; stroke-width: 0.5"/>
     </g>
     <g id="line2d_12">
      <g>
       <use xlink:href="#m1537376b1a" x="947.52" y="131.611034" style="stroke: #000000; stroke-width: 0.8"/>
      </g>
     </g>
    </g>
   </g>
   <g id="matplotlib.axis_2">
    <g id="ytick_1">
     <g id="line2d_13">
      <path d="M 100.8 98.340394 
L 987.84 98.340394 
" clip-path="url(#ped3bb817fc)" style="fill: none; stroke-dasharray: 1.85,0.8; stroke-dashoffset: 0; stroke: #b2b2b2; stroke-width: 0.5"/>
     </g>
     <g id="line2d_14">
      <defs>
       <path id="mee90ff8b13" d="M 0 0 
L 3.5 0 
" style="stroke: #000000; stroke-width: 0.8"/>
      </defs>
      <g>
       <use xlink:href="#mee90ff8b13" x="100.8" y="98.340394" style="stroke: #000000; stroke-width: 0.8"/>
      </g>
     </g>
     <g id="text_1">
      <!-- −200 V -->
      <g transform="translate(44.819688 103.6593) scale(0.14 -0.14)">
       <defs>
        <path id="DejaVuSans-2212" d="M 678 2272 
L 4684 2272 
L 4684 1741 
L 678 1741 
L 678 2272 
z
" transform="scale(0.015625)"/>
        <path id="DejaVuSans-32" d="M 1228 531 
L 3431 531 
L 3431 0 
L 469 0 
L 469 531 
Q 828 903 1448 1529 
Q 2069 2156 2228 2338 
Q 2531 2678 2651 2914 
Q 2772 3150 2772 3378 
Q 2772 3750 2511 3984 
Q 2250 4219 1831 4219 
Q 1534 4219 1204 4116 
Q 875 4013 500 3803 
L 500 4441 
Q 881 4594 1212 4672 
Q 1544 4750 1819 4750 
Q 2544 4750 2975 4387 
Q 3406 4025 3406 3419 
Q 3406 3131 3298 2873 
Q 3191 2616 2906 2266 
Q 2828 2175 2409 1742 
Q 1991 1309 1228 531 
z
" transform="scale(0.015625)"/>
        <path id="DejaVuSans-30" d="M 2034 4250 
Q 1547 4250 1301 3770 
Q 1056 3291 1056 2328 
Q 1056 1369 1301 889 
Q 1547 409 2034 409 
Q 2525 409 2770 889 
Q 3016 1369 3016 2328 
Q 3016 3291 2770 3770 
Q 2525 4250 2034 4250 
z
M 2034 4750 
Q 2819 4750 3233 4129 
Q 3647 3509 3647 2328 
Q 3647 1150 3233 529 
Q 2819 -91 2034 -91 
Q 1250 -91 836 529 
Q 422 1150 422 2328 
Q 422 3509 836 4129 
Q 1250 4750 2034 4750 
z
" transform="scale(0.015625)"/>
        <path id="DejaVuSans-20" transform="scale(0.015625)"/>
        <path id="DejaVuSans-56" d="M 1831 0 
L 50 4666 
L 709 4666 
L 2188 738 
L 3669 4666 
L 4325 4666 
L 2547 0 
L 1831 0 
z
" transform="scale(0.015625)"/>
       </defs>
       <use xlink:href="#DejaVuSans-2212"/>
       <use xlink:href="#DejaVuSans-32" x="83.789062"/>
       <use xlink:href="#DejaVuSans-30" x="147.412109"/>
       <use xlink:href="#DejaVuSans-30" x="211.035156"/>
       <use xlink:href="#DejaVuSans-20" x="274.658203"/>
       <use xlink:href="#DejaVuSans-56" x="306.445312"/>
      </g>
     </g>
    </g>
    <g id="ytick_2">
     <g id="line2d_15">
      <path d="M 100.8 45.027377 
L 987.84 45.027377 
" clip-path="url(#ped3bb817fc)" style="fill: none; stroke-dasharray: 1.85,0.8; stroke-dashoffset: 0; stroke: #b2b2b2; stroke-width: 0.5"/>
     </g>
     <g id="line2d_16">
      <g>
       <use xlink:href="#mee90ff8b13" x="100.8" y="45.027377" style="stroke: #000000; stroke-width: 0.8"/>
      </g>
     </g>
     <g id="text_2">
      <!-- 0 V -->
      <g transform="translate(74.36625 50.346284) scale(0.14 -0.14)">
       <use xlink:href="#DejaVuSans-30"/>
       <use xlink:href="#DejaVuSans-20" x="63.623047"/>
       <use xlink:href="#DejaVuSans-56" x="95.410156"/>
      </g>
     </g>
    </g>
    <g id="text_3">
     <g id="patch_3">
      <path d="M 34.8768 131.080205 
L 34.8768 39.41083 
L 11.247425 39.41083 
L 11.247425 131.080205 
z
" style="fill: #ffff00; opacity: 0.2; stroke: #eeeeee; stroke-width: 0.5; stroke-linejoin: miter"/>
     </g>
     <!-- VPULSE BBI -->
     <g transform="translate(26.925238 126.040205) rotate(-90) scale(0.14 -0.14)">
      <defs>
       <path id="DejaVuSans-50" d="M 1259 4147 
L 1259 2394 
L 2053 2394 
Q 2494 2394 2734 2622 
Q 2975 2850 2975 3272 
Q 2975 3691 2734 3919 
Q 2494 4147 2053 4147 
L 1259 4147 
z
M 628 4666 
L 2053 4666 
Q 2838 4666 3239 4311 
Q 3641 3956 3641 3272 
Q 3641 2581 3239 2228 
Q 2838 1875 2053 1875 
L 1259 1875 
L 1259 0 
L 628 0 
L 628 4666 
z
" transform="scale(0.015625)"/>
       <path id="DejaVuSans-55" d="M 556 4666 
L 1191 4666 
L 1191 1831 
Q 1191 1081 1462 751 
Q 1734 422 2344 422 
Q 2950 422 3222 751 
Q 3494 1081 3494 1831 
L 3494 4666 
L 4128 4666 
L 4128 1753 
Q 4128 841 3676 375 
Q 3225 -91 2344 -91 
Q 1459 -91 1007 375 
Q 556 841 556 1753 
L 556 4666 
z
" transform="scale(0.015625)"/>
       <path id="DejaVuSans-4c" d="M 628 4666 
L 1259 4666 
L 1259 531 
L 3531 531 
L 3531 0 
L 628 0 
L 628 4666 
z
" transform="scale(0.015625)"/>
       <path id="DejaVuSans-53" d="M 3425 4513 
L 3425 3897 
Q 3066 4069 2747 4153 
Q 2428 4238 2131 4238 
Q 1616 4238 1336 4038 
Q 1056 3838 1056 3469 
Q 1056 3159 1242 3001 
Q 1428 2844 1947 2747 
L 2328 2669 
Q 3034 2534 3370 2195 
Q 3706 1856 3706 1288 
Q 3706 609 3251 259 
Q 2797 -91 1919 -91 
Q 1588 -91 1214 -16 
Q 841 59 441 206 
L 441 856 
Q 825 641 1194 531 
Q 1563 422 1919 422 
Q 2459 422 2753 634 
Q 3047 847 3047 1241 
Q 3047 1584 2836 1778 
Q 2625 1972 2144 2069 
L 1759 2144 
Q 1053 2284 737 2584 
Q 422 2884 422 3419 
Q 422 4038 858 4394 
Q 1294 4750 2059 4750 
Q 2388 4750 2728 4690 
Q 3069 4631 3425 4513 
z
" transform="scale(0.015625)"/>
       <path id="DejaVuSans-45" d="M 628 4666 
L 3578 4666 
L 3578 4134 
L 1259 4134 
L 1259 2753 
L 3481 2753 
L 3481 2222 
L 1259 2222 
L 1259 531 
L 3634 531 
L 3634 0 
L 628 0 
L 628 4666 
z
" transform="scale(0.015625)"/>
       <path id="DejaVuSans-42" d="M 1259 2228 
L 1259 519 
L 2272 519 
Q 2781 519 3026 730 
Q 3272 941 3272 1375 
Q 3272 1813 3026 2020 
Q 2781 2228 2272 2228 
L 1259 2228 
z
M 1259 4147 
L 1259 2741 
L 2194 2741 
Q 2656 2741 2882 2914 
Q 3109 3088 3109 3444 
Q 3109 3797 2882 3972 
Q 2656 4147 2194 4147 
L 1259 4147 
z
M 628 4666 
L 2241 4666 
Q 2963 4666 3353 4366 
Q 3744 4066 3744 3513 
Q 3744 3084 3544 2831 
Q 3344 2578 2956 2516 
Q 3422 2416 3680 2098 
Q 3938 1781 3938 1306 
Q 3938 681 3513 340 
Q 3088 0 2303 0 
L 628 0 
L 628 4666 
z
" transform="scale(0.015625)"/>
       <path id="DejaVuSans-49" d="M 628 4666 
L 1259 4666 
L 1259 0 
L 628 0 
L 628 4666 
z
" transform="scale(0.015625)"/>
      </defs>
      <use xlink:href="#DejaVuSans-56"/>
      <use xlink:href="#DejaVuSans-50" x="68.408203"/>
      <use xlink:href="#DejaVuSans-55" x="128.710938"/>
      <use xlink:href="#DejaVuSans-4c" x="201.904297"/>
      <use xlink:href="#DejaVuSans-53" x="257.617188"/>
      <use xlink:href="#DejaVuSans-45" x="321.09375"/>
      <use xlink:href="#DejaVuSans-20" x="384.277344"/>
      <use xlink:href="#DejaVuSans-42" x="416.064453"/>
      <use xlink:href="#DejaVuSans-42" x="484.667969"/>
      <use xlink:href="#DejaVuSans-49" x="553.271484"/>
     </g>
    </g>
   </g>
   <g id="line2d_17">
    <path d="M 141.12 45.027377 
L 537.901056 45.136282 
L 538.384896 46.425538 
L 546.610176 69.006772 
L 554.029056 89.863624 
L 555.641856 94.440546 
L 557.448192 99.673219 
L 560.93184 110.807642 
L 562.512384 115.853719 
L 563.770368 119.566971 
L 564.996096 120.153414 
L 565.834752 120.545265 
L 566.866944 121.017085 
L 567.447552 121.272988 
L 568.318464 121.656841 
L 568.899072 121.912744 
L 569.737728 122.269941 
L 571.318272 122.936354 
L 571.963392 123.202919 
L 573.060096 123.629423 
L 573.801984 123.922644 
L 574.898688 124.349149 
L 575.801856 124.677024 
L 576.479232 124.943589 
L 577.285632 125.25547 
L 578.640384 125.804594 
L 581.285376 126.790885 
L 581.89824 127.022796 
L 583.8336 127.395987 
L 602.316288 127.289361 
L 602.54208 126.801547 
L 620.831232 75.087922 
L 624.572928 63.292417 
L 628.282368 51.617666 
L 632.894976 49.3412 
L 638.249472 46.984578 
L 646.958592 43.484472 
L 647.829504 43.268927 
L 662.118912 43.108189 
L 668.924928 43.184799 
L 684.278784 43.746186 
L 712.0512 44.46146 
L 737.69472 44.774399 
L 773.305344 44.945888 
L 821.334528 44.953885 
L 947.52 44.953885 
L 947.52 44.953885 
" clip-path="url(#ped3bb817fc)" style="fill: none; stroke: #ff0000; stroke-width: 2; stroke-linecap: square"/>
   </g>
   <g id="patch_4">
    <path d="M 100.8 131.611034 
L 100.8 38.88 
" style="fill: none; stroke: #bcbcbc; stroke-width: 0.8; stroke-linejoin: miter; stroke-linecap: square"/>
   </g>
   <g id="patch_5">
    <path d="M 987.84 131.611034 
L 987.84 38.88 
" style="fill: none; stroke: #bcbcbc; stroke-width: 0.8; stroke-linejoin: miter; stroke-linecap: square"/>
   </g>
   <g id="patch_6">
    <path d="M 100.8 131.611034 
L 987.84 131.611034 
" style="fill: none; stroke: #bcbcbc; stroke-width: 0.8; stroke-linejoin: miter; stroke-linecap: square"/>
   </g>
   <g id="patch_7">
    <path d="M 100.8 38.88 
L 987.84 38.88 
" style="fill: none; stroke: #bcbcbc; stroke-width: 0.8; stroke-linejoin: miter; stroke-linecap: square"/>
   </g>
  </g>
  <g id="axes_2">
   <g id="patch_8">
    <path d="M 100.8 242.888276 
L 987.84 242.888276 
L 987.84 150.157241 
L 100.8 150.157241 
z
" style="fill: #eeeeee"/>
   </g>
   <g id="matplotlib.axis_3">
    <g id="xtick_7">
     <g id="line2d_18">
      <path d="M 141.12 242.888276 
L 141.12 150.157241 
" clip-path="url(#p6b9366a370)" style="fill: none; stroke-dasharray: 1.85,0.8; stroke-dashoffset: 0; stroke: #b2b2b2; stroke-width: 0.5"/>
     </g>
     <g id="line2d_19">
      <g>
       <use xlink:href="#m1537376b1a" x="141.12" y="242.888276" style="stroke: #000000; stroke-width: 0.8"/>
      </g>
     </g>
    </g>
    <g id="xtick_8">
     <g id="line2d_20">
      <path d="M 302.4 242.888276 
L 302.4 150.157241 
" clip-path="url(#p6b9366a370)" style="fill: none; stroke-dasharray: 1.85,0.8; stroke-dashoffset: 0; stroke: #b2b2b2; stroke-width: 0.5"/>
     </g>
     <g id="line2d_21">
      <g>
       <use xlink:href="#m1537376b1a" x="302.4" y="242.888276" style="stroke: #000000; stroke-width: 0.8"/>
      </g>
     </g>
    </g>
    <g id="xtick_9">
     <g id="line2d_22">
      <path d="M 463.68 242.888276 
L 463.68 150.157241 
" clip-path="url(#p6b9366a370)" style="fill: none; stroke-dasharray: 1.85,0.8; stroke-dashoffset: 0; stroke: #b2b2b2; stroke-width: 0.5"/>
     </g>
     <g id="line2d_23">
      <g>
       <use xlink:href="#m1537376b1a" x="463.68" y="242.888276" style="stroke: #000000; stroke-width: 0.8"/>
      </g>
     </g>
    </g>
    <g id="xtick_10">
     <g id="line2d_24">
      <path d="M 624.96 242.888276 
L 624.96 150.157241 
" clip-path="url(#p6b9366a370)" style="fill: none; stroke-dasharray: 1.85,0.8; stroke-dashoffset: 0; stroke: #b2b2b2; stroke-width: 0.5"/>
     </g>
     <g id="line2d_25">
      <g>
       <use xlink:href="#m1537376b1a" x="624.96" y="242.888276" style="stroke: #000000; stroke-width: 0.8"/>
      </g>
     </g>
    </g>
    <g id="xtick_11">
     <g id="line2d_26">
      <path d="M 786.24 242.888276 
L 786.24 150.157241 
" clip-path="url(#p6b9366a370)" style="fill: none; stroke-dasharray: 1.85,0.8; stroke-dashoffset: 0; stroke: #b2b2b2; stroke-width: 0.5"/>
     </g>
     <g id="line2d_27">
      <g>
       <use xlink:href="#m1537376b1a" x="786.24" y="242.888276" style="stroke: #000000; stroke-width: 0.8"/>
      </g>
     </g>
    </g>
    <g id="xtick_12">
     <g id="line2d_28">
      <path d="M 947.52 242.888276 
L 947.52 150.157241 
" clip-path="url(#p6b9366a370)" style="fill: none; stroke-dasharray: 1.85,0.8; stroke-dashoffset: 0; stroke: #b2b2b2; stroke-width: 0.5"/>
     </g>
     <g id="line2d_29">
      <g>
       <use xlink:href="#m1537376b1a" x="947.52" y="242.888276" style="stroke: #000000; stroke-width: 0.8"/>
      </g>
     </g>
    </g>
   </g>
   <g id="matplotlib.axis_4">
    <g id="ytick_3">
     <g id="line2d_30">
      <path d="M 100.8 219.146541 
L 987.84 219.146541 
" clip-path="url(#p6b9366a370)" style="fill: none; stroke-dasharray: 1.85,0.8; stroke-dashoffset: 0; stroke: #b2b2b2; stroke-width: 0.5"/>
     </g>
     <g id="line2d_31">
      <g>
       <use xlink:href="#mee90ff8b13" x="100.8" y="219.146541" style="stroke: #000000; stroke-width: 0.8"/>
      </g>
     </g>
     <g id="text_4">
      <!-- 0 V -->
      <g transform="translate(74.36625 224.465447) scale(0.14 -0.14)">
       <use xlink:href="#DejaVuSans-30"/>
       <use xlink:href="#DejaVuSans-20" x="63.623047"/>
       <use xlink:href="#DejaVuSans-56" x="95.410156"/>
      </g>
     </g>
    </g>
    <g id="ytick_4">
     <g id="line2d_32">
      <path d="M 100.8 185.185312 
L 987.84 185.185312 
" clip-path="url(#p6b9366a370)" style="fill: none; stroke-dasharray: 1.85,0.8; stroke-dashoffset: 0; stroke: #b2b2b2; stroke-width: 0.5"/>
     </g>
     <g id="line2d_33">
      <g>
       <use xlink:href="#mee90ff8b13" x="100.8" y="185.185312" style="stroke: #000000; stroke-width: 0.8"/>
      </g>
     </g>
     <g id="text_5">
      <!-- 1 V -->
      <g transform="translate(74.36625 190.504218) scale(0.14 -0.14)">
       <defs>
        <path id="DejaVuSans-31" d="M 794 531 
L 1825 531 
L 1825 4091 
L 703 3866 
L 703 4441 
L 1819 4666 
L 2450 4666 
L 2450 531 
L 3481 531 
L 3481 0 
L 794 0 
L 794 531 
z
" transform="scale(0.015625)"/>
       </defs>
       <use xlink:href="#DejaVuSans-31"/>
       <use xlink:href="#DejaVuSans-20" x="63.623047"/>
       <use xlink:href="#DejaVuSans-56" x="95.410156"/>
      </g>
     </g>
    </g>
    <g id="ytick_5">
     <g id="line2d_34">
      <path d="M 100.8 151.224082 
L 987.84 151.224082 
" clip-path="url(#p6b9366a370)" style="fill: none; stroke-dasharray: 1.85,0.8; stroke-dashoffset: 0; stroke: #b2b2b2; stroke-width: 0.5"/>
     </g>
     <g id="line2d_35">
      <g>
       <use xlink:href="#mee90ff8b13" x="100.8" y="151.224082" style="stroke: #000000; stroke-width: 0.8"/>
      </g>
     </g>
     <g id="text_6">
      <!-- 2 V -->
      <g transform="translate(74.36625 156.542989) scale(0.14 -0.14)">
       <use xlink:href="#DejaVuSans-32"/>
       <use xlink:href="#DejaVuSans-20" x="63.623047"/>
       <use xlink:href="#DejaVuSans-56" x="95.410156"/>
      </g>
     </g>
    </g>
    <g id="text_7">
     <g id="patch_9">
      <path d="M 34.8768 224.531509 
L 34.8768 168.514009 
L 11.247425 168.514009 
L 11.247425 224.531509 
z
" style="fill: #ffff00; opacity: 0.2; stroke: #eeeeee; stroke-width: 0.5; stroke-linejoin: miter"/>
     </g>
     <!-- DFF IN -->
     <g transform="translate(26.925238 219.491509) rotate(-90) scale(0.14 -0.14)">
      <defs>
       <path id="DejaVuSans-44" d="M 1259 4147 
L 1259 519 
L 2022 519 
Q 2988 519 3436 956 
Q 3884 1394 3884 2338 
Q 3884 3275 3436 3711 
Q 2988 4147 2022 4147 
L 1259 4147 
z
M 628 4666 
L 1925 4666 
Q 3281 4666 3915 4102 
Q 4550 3538 4550 2338 
Q 4550 1131 3912 565 
Q 3275 0 1925 0 
L 628 0 
L 628 4666 
z
" transform="scale(0.015625)"/>
       <path id="DejaVuSans-46" d="M 628 4666 
L 3309 4666 
L 3309 4134 
L 1259 4134 
L 1259 2759 
L 3109 2759 
L 3109 2228 
L 1259 2228 
L 1259 0 
L 628 0 
L 628 4666 
z
" transform="scale(0.015625)"/>
       <path id="DejaVuSans-4e" d="M 628 4666 
L 1478 4666 
L 3547 763 
L 3547 4666 
L 4159 4666 
L 4159 0 
L 3309 0 
L 1241 3903 
L 1241 0 
L 628 0 
L 628 4666 
z
" transform="scale(0.015625)"/>
      </defs>
      <use xlink:href="#DejaVuSans-44"/>
      <use xlink:href="#DejaVuSans-46" x="77.001953"/>
      <use xlink:href="#DejaVuSans-46" x="134.521484"/>
      <use xlink:href="#DejaVuSans-20" x="192.041016"/>
      <use xlink:href="#DejaVuSans-49" x="223.828125"/>
      <use xlink:href="#DejaVuSans-4e" x="253.320312"/>
     </g>
    </g>
   </g>
   <g id="line2d_36">
    <path d="M 141.12 219.096944 
L 221.953536 219.050373 
L 224.437248 200.127573 
L 225.404928 194.371145 
L 228.243456 181.714474 
L 229.598208 180.444324 
L 231.178752 179.57152 
L 236.533248 179.11644 
L 243.5328 179.007764 
L 244.952064 178.967011 
L 248.145408 178.858335 
L 249.790464 178.793808 
L 251.887104 178.685132 
L 254.241792 178.338728 
L 254.757888 177.80214 
L 255.499776 177.462528 
L 256.338432 177.476113 
L 259.789824 178.090811 
L 262.467072 178.264013 
L 263.886336 178.311559 
L 264.144384 183.54838 
L 264.434688 187.111593 
L 265.176576 191.858354 
L 267.144192 209.184354 
L 268.402176 215.689627 
L 269.047296 216.972207 
L 270.46656 218.734116 
L 273.724416 219.148375 
L 282.530304 219.100982 
L 297.045504 219.090861 
L 305.851392 219.096129 
L 347.751936 219.052068 
L 350.235648 200.167648 
L 351.622656 191.533684 
L 352.654848 186.244562 
L 354.97728 179.252285 
L 358.493184 178.253825 
L 360.202752 178.325143 
L 363.009024 178.433819 
L 364.33152 178.464384 
L 375.169536 178.535703 
L 375.717888 179.527371 
L 376.169472 180.277914 
L 377.008128 181.184679 
L 377.524224 181.133737 
L 378.427392 180.84167 
L 380.427264 179.703969 
L 381.58848 179.330396 
L 387.168768 178.851542 
L 389.587968 178.742866 
L 391.684608 178.630794 
L 394.232832 178.522118 
L 395.61984 178.484761 
L 415.360512 178.399858 
L 416.489472 177.46932 
L 417.037824 177.404794 
L 417.908736 177.51347 
L 419.16672 177.795348 
L 420.908544 178.050057 
L 423.940608 178.260617 
L 455.712768 178.365897 
L 456.809472 179.255681 
L 457.261056 179.327 
L 458.68032 179.371149 
L 462.680064 178.841354 
L 464.131584 178.647775 
L 467.486208 178.403254 
L 496.065024 178.321747 
L 496.58112 177.781764 
L 497.258496 177.476113 
L 498.3552 177.462528 
L 502.06464 178.131564 
L 504.193536 178.247033 
L 536.320512 178.352312 
L 536.449536 178.481365 
L 536.90112 178.967011 
L 537.513984 179.28285 
L 537.965568 179.506994 
L 538.51392 180.580169 
L 539.223552 181.751831 
L 540.513792 183.208768 
L 542.22336 185.164935 
L 544.771584 188.505361 
L 546.932736 191.548627 
L 547.22304 192.17691 
L 547.964928 194.703625 
L 550.12608 203.180348 
L 550.867968 206.438928 
L 550.964736 206.844425 
L 551.706624 210.338696 
L 554.706432 220.948829 
L 555.028992 222.101813 
L 555.416064 223.208644 
L 555.641856 223.578142 
L 556.57728 225.804979 
L 556.835328 226.025727 
L 557.2224 226.561975 
L 557.673984 227.835861 
L 558.19008 228.829906 
L 558.319104 228.917526 
L 558.480384 229.336268 
L 558.931968 230.458007 
L 559.286784 230.966747 
L 559.706112 231.615746 
L 562.028544 235.961764 
L 562.318848 236.480352 
L 563.6736 238.639268 
L 563.770368 238.673229 
L 563.802624 238.636211 
L 564.286464 238.155999 
L 564.576768 237.785822 
L 564.931584 237.219349 
L 565.350912 236.42126 
L 565.737984 235.971273 
L 566.350848 235.330765 
L 566.608896 234.93172 
L 566.995968 234.259967 
L 567.318528 234.040917 
L 567.673344 233.764473 
L 569.15712 232.245387 
L 569.447424 231.811023 
L 569.737728 231.65582 
L 569.931264 231.579407 
L 571.156992 230.679435 
L 571.866624 229.876252 
L 572.189184 229.320306 
L 572.479488 229.153217 
L 572.640768 229.198386 
L 573.51168 228.62512 
L 574.608384 227.671149 
L 575.318016 226.700877 
L 575.479296 226.739253 
L 575.898624 226.58439 
L 576.930816 225.793093 
L 578.253312 224.555206 
L 578.543616 224.309327 
L 579.220992 224.039335 
L 583.414272 220.598859 
L 584.672256 218.947307 
L 585.381888 218.019945 
L 590.994432 210.765589 
L 592.05888 209.647585 
L 592.54272 208.491884 
L 594.80064 202.130267 
L 595.381248 201.064903 
L 597.929472 197.415769 
L 598.477824 196.713111 
L 599.31648 195.783592 
L 599.864832 195.043917 
L 600.574464 194.175868 
L 602.05824 192.799419 
L 602.445312 192.319887 
L 602.832384 191.065699 
L 604.348416 185.732427 
L 605.187072 183.694414 
L 605.993472 182.240873 
L 606.832128 181.27977 
L 608.541696 179.707365 
L 610.573824 176.97009 
L 612.70272 173.811696 
L 613.50912 172.616261 
L 614.509056 171.149136 
L 616.992768 167.725844 
L 617.05728 167.820935 
L 617.895936 169.267684 
L 618.315264 169.376359 
L 618.734592 169.22693 
L 619.15392 168.883922 
L 619.605504 168.255639 
L 620.573184 166.200985 
L 621.540864 164.054635 
L 623.250432 160.87926 
L 625.637376 157.557852 
L 627.185664 155.598289 
L 628.217856 154.372288 
L 629.63712 154.715297 
L 630.6048 154.722089 
L 632.636928 155.041325 
L 633.99168 155.353768 
L 636.765696 156.049973 
L 647.732736 159.629487 
L 649.603584 160.536252 
L 651.184128 161.246041 
L 657.312768 163.806718 
L 657.345024 163.728607 
L 657.764352 163.062967 
L 658.119168 162.872784 
L 658.473984 162.899953 
L 658.925568 163.151266 
L 662.409216 165.589682 
L 666.763776 167.308121 
L 667.247616 167.464342 
L 667.924992 167.708863 
L 668.441088 167.871877 
L 669.537792 168.214885 
L 673.82784 169.45447 
L 674.505216 169.634465 
L 676.859904 170.242371 
L 678.214656 170.55821 
L 678.66624 170.66349 
L 679.375872 170.843485 
L 680.504832 171.084609 
L 681.440256 171.291773 
L 682.53696 171.526105 
L 683.117568 171.634781 
L 688.633344 172.687579 
L 689.278464 172.792859 
L 691.826688 173.217374 
L 693.891072 173.540006 
L 694.568448 173.638494 
L 696.24576 173.879618 
L 697.019904 173.984898 
L 697.69728 174.209042 
L 698.148864 174.884871 
L 698.50368 175.163353 
L 699.31008 175.387497 
L 700.729344 175.129392 
L 702.825984 174.799968 
L 703.696896 174.810156 
L 704.438784 174.854306 
L 712.470528 175.591264 
L 713.664 175.696544 
L 714.180096 175.74409 
L 715.11552 175.828993 
L 716.631552 175.937669 
L 719.824896 176.168605 
L 720.470016 176.205963 
L 723.17952 176.382561 
L 724.985856 176.491237 
L 727.308288 176.630478 
L 728.050176 176.661043 
L 729.985536 176.756135 
L 731.920896 176.864811 
L 733.824 176.956506 
L 736.339968 177.065182 
L 737.920512 177.1365 
L 738.275328 176.695004 
L 738.759168 176.345204 
L 739.533312 176.212755 
L 740.178432 176.321431 
L 741.113856 176.596517 
L 742.53312 176.932733 
L 748.758528 177.479509 
L 752.20992 177.584789 
L 752.822784 177.601769 
L 756.983808 177.707049 
L 757.564416 177.717237 
L 758.403072 177.734218 
L 758.98368 177.751199 
L 759.983616 177.751199 
L 761.306112 177.781764 
L 768.17664 177.887044 
L 768.789504 177.90742 
L 778.272768 178.016096 
L 779.208192 178.851542 
L 780.175872 179.051914 
L 782.820864 178.664756 
L 785.401344 178.233448 
L 786.88512 178.185902 
L 793.852416 178.077226 
L 794.916864 178.07383 
L 818.625024 177.982135 
L 819.108864 177.448944 
L 819.818496 177.122916 
L 820.9152 177.112727 
L 824.882688 177.836102 
L 826.56 177.904024 
L 858.880512 178.0127 
L 859.041792 178.192695 
L 859.557888 178.712301 
L 859.94496 178.895692 
L 860.557824 179.034933 
L 862.912512 178.929653 
L 865.234944 178.552684 
L 870.58944 178.097603 
L 899.232768 178.026285 
L 899.78112 177.411586 
L 900.329472 177.1365 
L 902.264832 177.245176 
L 905.522688 177.819121 
L 907.619328 177.931193 
L 939.552768 178.026285 
L 940.617216 178.892296 
L 941.55264 179.079083 
L 943.455744 178.970407 
L 944.77824 178.72249 
L 947.003904 178.365897 
L 947.52 178.28439 
L 947.52 178.28439 
" clip-path="url(#p6b9366a370)" style="fill: none; stroke: #008000; stroke-width: 2; stroke-linecap: square"/>
   </g>
   <g id="patch_10">
    <path d="M 100.8 242.888276 
L 100.8 150.157241 
" style="fill: none; stroke: #bcbcbc; stroke-width: 0.8; stroke-linejoin: miter; stroke-linecap: square"/>
   </g>
   <g id="patch_11">
    <path d="M 987.84 242.888276 
L 987.84 150.157241 
" style="fill: none; stroke: #bcbcbc; stroke-width: 0.8; stroke-linejoin: miter; stroke-linecap: square"/>
   </g>
   <g id="patch_12">
    <path d="M 100.8 242.888276 
L 987.84 242.888276 
" style="fill: none; stroke: #bcbcbc; stroke-width: 0.8; stroke-linejoin: miter; stroke-linecap: square"/>
   </g>
   <g id="patch_13">
    <path d="M 100.8 150.157241 
L 987.84 150.157241 
" style="fill: none; stroke: #bcbcbc; stroke-width: 0.8; stroke-linejoin: miter; stroke-linecap: square"/>
   </g>
  </g>
  <g id="axes_3">
   <g id="patch_14">
    <path d="M 100.8 354.165517 
L 987.84 354.165517 
L 987.84 261.434483 
L 100.8 261.434483 
z
" style="fill: #eeeeee"/>
   </g>
   <g id="matplotlib.axis_5">
    <g id="xtick_13">
     <g id="line2d_37">
      <path d="M 141.12 354.165517 
L 141.12 261.434483 
" clip-path="url(#p3cf48e9f4e)" style="fill: none; stroke-dasharray: 1.85,0.8; stroke-dashoffset: 0; stroke: #b2b2b2; stroke-width: 0.5"/>
     </g>
     <g id="line2d_38">
      <g>
       <use xlink:href="#m1537376b1a" x="141.12" y="354.165517" style="stroke: #000000; stroke-width: 0.8"/>
      </g>
     </g>
    </g>
    <g id="xtick_14">
     <g id="line2d_39">
      <path d="M 302.4 354.165517 
L 302.4 261.434483 
" clip-path="url(#p3cf48e9f4e)" style="fill: none; stroke-dasharray: 1.85,0.8; stroke-dashoffset: 0; stroke: #b2b2b2; stroke-width: 0.5"/>
     </g>
     <g id="line2d_40">
      <g>
       <use xlink:href="#m1537376b1a" x="302.4" y="354.165517" style="stroke: #000000; stroke-width: 0.8"/>
      </g>
     </g>
    </g>
    <g id="xtick_15">
     <g id="line2d_41">
      <path d="M 463.68 354.165517 
L 463.68 261.434483 
" clip-path="url(#p3cf48e9f4e)" style="fill: none; stroke-dasharray: 1.85,0.8; stroke-dashoffset: 0; stroke: #b2b2b2; stroke-width: 0.5"/>
     </g>
     <g id="line2d_42">
      <g>
       <use xlink:href="#m1537376b1a" x="463.68" y="354.165517" style="stroke: #000000; stroke-width: 0.8"/>
      </g>
     </g>
    </g>
    <g id="xtick_16">
     <g id="line2d_43">
      <path d="M 624.96 354.165517 
L 624.96 261.434483 
" clip-path="url(#p3cf48e9f4e)" style="fill: none; stroke-dasharray: 1.85,0.8; stroke-dashoffset: 0; stroke: #b2b2b2; stroke-width: 0.5"/>
     </g>
     <g id="line2d_44">
      <g>
       <use xlink:href="#m1537376b1a" x="624.96" y="354.165517" style="stroke: #000000; stroke-width: 0.8"/>
      </g>
     </g>
    </g>
    <g id="xtick_17">
     <g id="line2d_45">
      <path d="M 786.24 354.165517 
L 786.24 261.434483 
" clip-path="url(#p3cf48e9f4e)" style="fill: none; stroke-dasharray: 1.85,0.8; stroke-dashoffset: 0; stroke: #b2b2b2; stroke-width: 0.5"/>
     </g>
     <g id="line2d_46">
      <g>
       <use xlink:href="#m1537376b1a" x="786.24" y="354.165517" style="stroke: #000000; stroke-width: 0.8"/>
      </g>
     </g>
    </g>
    <g id="xtick_18">
     <g id="line2d_47">
      <path d="M 947.52 354.165517 
L 947.52 261.434483 
" clip-path="url(#p3cf48e9f4e)" style="fill: none; stroke-dasharray: 1.85,0.8; stroke-dashoffset: 0; stroke: #b2b2b2; stroke-width: 0.5"/>
     </g>
     <g id="line2d_48">
      <g>
       <use xlink:href="#m1537376b1a" x="947.52" y="354.165517" style="stroke: #000000; stroke-width: 0.8"/>
      </g>
     </g>
    </g>
   </g>
   <g id="matplotlib.axis_6">
    <g id="ytick_6">
     <g id="line2d_49">
      <path d="M 100.8 343.899738 
L 987.84 343.899738 
" clip-path="url(#p3cf48e9f4e)" style="fill: none; stroke-dasharray: 1.85,0.8; stroke-dashoffset: 0; stroke: #b2b2b2; stroke-width: 0.5"/>
     </g>
     <g id="line2d_50">
      <g>
       <use xlink:href="#mee90ff8b13" x="100.8" y="343.899738" style="stroke: #000000; stroke-width: 0.8"/>
      </g>
     </g>
     <g id="text_8">
      <!-- 0 V -->
      <g transform="translate(74.36625 349.218645) scale(0.14 -0.14)">
       <use xlink:href="#DejaVuSans-30"/>
       <use xlink:href="#DejaVuSans-20" x="63.623047"/>
       <use xlink:href="#DejaVuSans-56" x="95.410156"/>
      </g>
     </g>
    </g>
    <g id="ytick_7">
     <g id="line2d_51">
      <path d="M 100.8 296.139601 
L 987.84 296.139601 
" clip-path="url(#p3cf48e9f4e)" style="fill: none; stroke-dasharray: 1.85,0.8; stroke-dashoffset: 0; stroke: #b2b2b2; stroke-width: 0.5"/>
     </g>
     <g id="line2d_52">
      <g>
       <use xlink:href="#mee90ff8b13" x="100.8" y="296.139601" style="stroke: #000000; stroke-width: 0.8"/>
      </g>
     </g>
     <g id="text_9">
      <!-- 1 V -->
      <g transform="translate(74.36625 301.458508) scale(0.14 -0.14)">
       <use xlink:href="#DejaVuSans-31"/>
       <use xlink:href="#DejaVuSans-20" x="63.623047"/>
       <use xlink:href="#DejaVuSans-56" x="95.410156"/>
      </g>
     </g>
    </g>
    <g id="text_10">
     <g id="patch_15">
      <path d="M 34.8768 342.395313 
L 34.8768 273.204688 
L 11.247425 273.204688 
L 11.247425 342.395313 
z
" style="fill: #ffff00; opacity: 0.2; stroke: #eeeeee; stroke-width: 0.5; stroke-linejoin: miter"/>
     </g>
     <!-- CLK BUF -->
     <g transform="translate(26.925238 337.355313) rotate(-90) scale(0.14 -0.14)">
      <defs>
       <path id="DejaVuSans-43" d="M 4122 4306 
L 4122 3641 
Q 3803 3938 3442 4084 
Q 3081 4231 2675 4231 
Q 1875 4231 1450 3742 
Q 1025 3253 1025 2328 
Q 1025 1406 1450 917 
Q 1875 428 2675 428 
Q 3081 428 3442 575 
Q 3803 722 4122 1019 
L 4122 359 
Q 3791 134 3420 21 
Q 3050 -91 2638 -91 
Q 1578 -91 968 557 
Q 359 1206 359 2328 
Q 359 3453 968 4101 
Q 1578 4750 2638 4750 
Q 3056 4750 3426 4639 
Q 3797 4528 4122 4306 
z
" transform="scale(0.015625)"/>
       <path id="DejaVuSans-4b" d="M 628 4666 
L 1259 4666 
L 1259 2694 
L 3353 4666 
L 4166 4666 
L 1850 2491 
L 4331 0 
L 3500 0 
L 1259 2247 
L 1259 0 
L 628 0 
L 628 4666 
z
" transform="scale(0.015625)"/>
      </defs>
      <use xlink:href="#DejaVuSans-43"/>
      <use xlink:href="#DejaVuSans-4c" x="69.824219"/>
      <use xlink:href="#DejaVuSans-4b" x="125.537109"/>
      <use xlink:href="#DejaVuSans-20" x="191.113281"/>
      <use xlink:href="#DejaVuSans-42" x="222.900391"/>
      <use xlink:href="#DejaVuSans-55" x="291.503906"/>
      <use xlink:href="#DejaVuSans-46" x="364.697266"/>
     </g>
    </g>
   </g>
   <g id="line2d_53">
    <path d="M 141.12 343.898476 
L 173.376 343.898476 
L 173.601792 286.587574 
L 213.696 286.587574 
L 213.760512 332.3031 
L 213.825024 343.877919 
L 213.889536 343.80919 
L 213.954048 343.999987 
L 214.01856 343.904914 
L 215.212032 343.896798 
L 222.598656 343.898492 
L 254.016 343.898443 
L 254.17728 286.410861 
L 254.241792 286.716526 
L 254.403072 286.578022 
L 254.8224 286.587574 
L 294.336 286.587574 
L 294.400512 332.262981 
L 294.465024 344.256129 
L 294.529536 343.425757 
L 294.626304 343.974794 
L 294.65856 343.940808 
L 294.852096 343.856862 
L 295.206912 343.917118 
L 295.46496 343.898261 
L 318.20544 343.898476 
L 334.656 343.898478 
L 334.81728 286.501606 
L 334.881792 286.606678 
L 335.172096 286.59235 
L 374.976 286.587574 
L 375.040512 332.307398 
L 375.105024 343.900513 
L 375.169536 343.803134 
L 375.234048 343.99288 
L 375.29856 343.905073 
L 376.556544 343.896318 
L 384.201216 343.898474 
L 415.296 343.898477 
L 415.45728 286.410861 
L 415.521792 286.716526 
L 415.683072 286.573246 
L 416.42496 286.573246 
L 455.616 286.587574 
L 455.680512 332.265847 
L 455.745024 344.262013 
L 455.809536 343.205163 
L 455.906304 344.600475 
L 455.93856 343.97742 
L 456.132096 343.871055 
L 456.486912 343.89909 
L 486.710784 343.898473 
L 495.936 343.898475 
L 496.09728 286.492054 
L 496.161792 286.606678 
L 497.032704 286.587574 
L 536.256 286.587574 
L 536.288256 294.047707 
L 536.41728 343.801028 
L 536.546304 343.897108 
L 537.997824 344.074865 
L 538.610688 344.708509 
L 539.384832 345.159269 
L 540.384768 345.439 
L 541.804032 345.571009 
L 544.578048 345.546795 
L 555.964416 345.258514 
L 557.932032 346.102054 
L 560.254464 347.651632 
L 561.318912 348.393251 
L 561.835008 348.741661 
L 563.705856 349.946649 
L 564.96384 349.274187 
L 567.576576 348.193423 
L 567.608832 348.23144 
L 567.673344 348.157268 
L 568.124928 348.011265 
L 574.930944 345.699436 
L 576.576 345.208892 
L 576.608256 346.536146 
L 576.801792 319.544934 
L 576.963072 319.371087 
L 577.672704 319.108884 
L 577.930752 318.933604 
L 577.963008 318.981365 
L 578.02752 318.884889 
L 578.092032 319.002379 
L 578.221056 318.868651 
L 578.382336 318.857666 
L 579.930624 318.276425 
L 580.188672 318.170875 
L 580.575744 318.029505 
L 581.25312 317.751063 
L 581.57568 317.644558 
L 581.73696 317.563844 
L 583.801344 316.569 
L 584.188416 316.32017 
L 586.639872 314.629938 
L 593.478144 309.805209 
L 596.800512 307.7243 
L 601.122816 305.293309 
L 602.413056 304.553027 
L 603.767808 301.749029 
L 605.735424 297.016955 
L 610.089984 286.539814 
L 610.76736 284.997161 
L 612.509184 281.142918 
L 613.541376 278.917296 
L 616.896 272.149684 
L 617.121792 342.227752 
L 617.799168 342.250247 
L 622.315008 342.336836 
L 623.83104 342.295523 
L 628.121088 342.42672 
L 628.411392 342.753447 
L 629.056512 343.378914 
L 629.7984 343.796768 
L 630.798336 344.091643 
L 632.2176 344.262104 
L 634.95936 344.33308 
L 645.152256 344.271976 
L 648.313344 344.368519 
L 650.345472 344.446544 
L 657.216 344.385889 
L 657.345024 265.64953 
L 657.506304 266.28474 
L 658.796544 266.96771 
L 659.280384 267.25427 
L 660.796416 268.047089 
L 662.118912 268.701403 
L 665.60256 270.368231 
L 666.441216 270.735984 
L 673.376256 273.697113 
L 673.634304 273.806961 
L 675.472896 274.509035 
L 675.7632 274.618884 
L 676.956672 275.034397 
L 677.311488 275.144245 
L 678.50496 275.559758 
L 678.763008 275.664831 
L 679.182336 275.798559 
L 679.537152 275.903631 
L 679.95648 276.03736 
L 680.311296 276.142432 
L 680.827392 276.32392 
L 681.182208 276.428993 
L 681.601536 276.562721 
L 681.956352 276.667793 
L 682.37568 276.801522 
L 682.730496 276.906594 
L 683.085312 276.992562 
L 688.472064 278.473127 
L 688.923648 278.578199 
L 689.278464 278.664167 
L 691.762176 279.285049 
L 692.310528 279.390121 
L 692.665344 279.476089 
L 694.181376 279.81041 
L 694.729728 279.915483 
L 695.084544 280.001451 
L 695.60064 280.106523 
L 695.955456 280.187716 
L 697.536 280.488604 
L 697.568256 289.114085 
L 697.69728 344.07774 
L 697.955328 344.062691 
L 732.178944 343.955522 
L 737.856 343.945427 
L 738.049536 284.901641 
L 738.33984 284.915969 
L 740.59776 285.025817 
L 740.92032 285.05925 
L 743.694336 285.169098 
L 744.016896 285.20253 
L 747.081216 285.312378 
L 747.403776 285.34581 
L 750.855168 285.455659 
L 751.177728 285.489091 
L 755.11296 285.598939 
L 755.43552 285.632371 
L 760.048128 285.742219 
L 760.370688 285.775652 
L 765.950976 285.8855 
L 766.273536 285.918932 
L 773.208576 286.02878 
L 773.531136 286.062212 
L 778.176 286.109973 
L 778.208256 290.618529 
L 778.272768 344.03105 
L 778.33728 343.74149 
L 778.434048 344.070271 
L 778.49856 343.920456 
L 779.272704 343.917743 
L 785.336832 343.904421 
L 805.367808 343.912138 
L 818.496 343.912113 
L 818.65728 286.014452 
L 818.721792 286.129077 
L 819.592704 286.109973 
L 858.816 286.109973 
L 858.945024 344.264621 
L 859.106304 343.986662 
L 859.364352 343.880263 
L 859.719168 343.932221 
L 860.009472 343.912008 
L 894.200832 343.912149 
L 899.136 343.912153 
L 899.29728 285.86162 
L 899.361792 286.401309 
L 899.45856 285.90938 
L 899.523072 286.090868 
L 899.974656 286.109973 
L 939.456 286.109973 
L 939.488256 294.721125 
L 939.61728 343.855353 
L 939.649536 343.994232 
L 939.714048 343.861354 
L 939.746304 343.819444 
L 939.810816 343.881089 
L 939.972096 343.975892 
L 940.004352 343.940736 
L 940.197888 343.911362 
L 945.1008 343.912162 
L 947.52 343.912142 
L 947.52 343.912142 
" clip-path="url(#p3cf48e9f4e)" style="fill: none; stroke: #0000ff; stroke-width: 2; stroke-linecap: square"/>
   </g>
   <g id="patch_16">
    <path d="M 100.8 354.165517 
L 100.8 261.434483 
" style="fill: none; stroke: #bcbcbc; stroke-width: 0.8; stroke-linejoin: miter; stroke-linecap: square"/>
   </g>
   <g id="patch_17">
    <path d="M 987.84 354.165517 
L 987.84 261.434483 
" style="fill: none; stroke: #bcbcbc; stroke-width: 0.8; stroke-linejoin: miter; stroke-linecap: square"/>
   </g>
   <g id="patch_18">
    <path d="M 100.8 354.165517 
L 987.84 354.165517 
" style="fill: none; stroke: #bcbcbc; stroke-width: 0.8; stroke-linejoin: miter; stroke-linecap: square"/>
   </g>
   <g id="patch_19">
    <path d="M 100.8 261.434483 
L 987.84 261.434483 
" style="fill: none; stroke: #bcbcbc; stroke-width: 0.8; stroke-linejoin: miter; stroke-linecap: square"/>
   </g>
  </g>
  <g id="axes_4">
   <g id="patch_20">
    <path d="M 100.8 465.442759 
L 987.84 465.442759 
L 987.84 372.711724 
L 100.8 372.711724 
z
" style="fill: #eeeeee"/>
   </g>
   <g id="matplotlib.axis_7">
    <g id="xtick_19">
     <g id="line2d_54">
      <path d="M 141.12 465.442759 
L 141.12 372.711724 
" clip-path="url(#p9cb12b0cf5)" style="fill: none; stroke-dasharray: 1.85,0.8; stroke-dashoffset: 0; stroke: #b2b2b2; stroke-width: 0.5"/>
     </g>
     <g id="line2d_55">
      <g>
       <use xlink:href="#m1537376b1a" x="141.12" y="465.442759" style="stroke: #000000; stroke-width: 0.8"/>
      </g>
     </g>
    </g>
    <g id="xtick_20">
     <g id="line2d_56">
      <path d="M 302.4 465.442759 
L 302.4 372.711724 
" clip-path="url(#p9cb12b0cf5)" style="fill: none; stroke-dasharray: 1.85,0.8; stroke-dashoffset: 0; stroke: #b2b2b2; stroke-width: 0.5"/>
     </g>
     <g id="line2d_57">
      <g>
       <use xlink:href="#m1537376b1a" x="302.4" y="465.442759" style="stroke: #000000; stroke-width: 0.8"/>
      </g>
     </g>
    </g>
    <g id="xtick_21">
     <g id="line2d_58">
      <path d="M 463.68 465.442759 
L 463.68 372.711724 
" clip-path="url(#p9cb12b0cf5)" style="fill: none; stroke-dasharray: 1.85,0.8; stroke-dashoffset: 0; stroke: #b2b2b2; stroke-width: 0.5"/>
     </g>
     <g id="line2d_59">
      <g>
       <use xlink:href="#m1537376b1a" x="463.68" y="465.442759" style="stroke: #000000; stroke-width: 0.8"/>
      </g>
     </g>
    </g>
    <g id="xtick_22">
     <g id="line2d_60">
      <path d="M 624.96 465.442759 
L 624.96 372.711724 
" clip-path="url(#p9cb12b0cf5)" style="fill: none; stroke-dasharray: 1.85,0.8; stroke-dashoffset: 0; stroke: #b2b2b2; stroke-width: 0.5"/>
     </g>
     <g id="line2d_61">
      <g>
       <use xlink:href="#m1537376b1a" x="624.96" y="465.442759" style="stroke: #000000; stroke-width: 0.8"/>
      </g>
     </g>
    </g>
    <g id="xtick_23">
     <g id="line2d_62">
      <path d="M 786.24 465.442759 
L 786.24 372.711724 
" clip-path="url(#p9cb12b0cf5)" style="fill: none; stroke-dasharray: 1.85,0.8; stroke-dashoffset: 0; stroke: #b2b2b2; stroke-width: 0.5"/>
     </g>
     <g id="line2d_63">
      <g>
       <use xlink:href="#m1537376b1a" x="786.24" y="465.442759" style="stroke: #000000; stroke-width: 0.8"/>
      </g>
     </g>
    </g>
    <g id="xtick_24">
     <g id="line2d_64">
      <path d="M 947.52 465.442759 
L 947.52 372.711724 
" clip-path="url(#p9cb12b0cf5)" style="fill: none; stroke-dasharray: 1.85,0.8; stroke-dashoffset: 0; stroke: #b2b2b2; stroke-width: 0.5"/>
     </g>
     <g id="line2d_65">
      <g>
       <use xlink:href="#m1537376b1a" x="947.52" y="465.442759" style="stroke: #000000; stroke-width: 0.8"/>
      </g>
     </g>
    </g>
   </g>
   <g id="matplotlib.axis_8">
    <g id="ytick_8">
     <g id="line2d_66">
      <path d="M 100.8 439.270053 
L 987.84 439.270053 
" clip-path="url(#p9cb12b0cf5)" style="fill: none; stroke-dasharray: 1.85,0.8; stroke-dashoffset: 0; stroke: #b2b2b2; stroke-width: 0.5"/>
     </g>
     <g id="line2d_67">
      <g>
       <use xlink:href="#mee90ff8b13" x="100.8" y="439.270053" style="stroke: #000000; stroke-width: 0.8"/>
      </g>
     </g>
     <g id="text_11">
      <!-- 0 V -->
      <g transform="translate(74.36625 444.588959) scale(0.14 -0.14)">
       <use xlink:href="#DejaVuSans-30"/>
       <use xlink:href="#DejaVuSans-20" x="63.623047"/>
       <use xlink:href="#DejaVuSans-56" x="95.410156"/>
      </g>
     </g>
    </g>
    <g id="ytick_9">
     <g id="line2d_68">
      <path d="M 100.8 400.643484 
L 987.84 400.643484 
" clip-path="url(#p9cb12b0cf5)" style="fill: none; stroke-dasharray: 1.85,0.8; stroke-dashoffset: 0; stroke: #b2b2b2; stroke-width: 0.5"/>
     </g>
     <g id="line2d_69">
      <g>
       <use xlink:href="#mee90ff8b13" x="100.8" y="400.643484" style="stroke: #000000; stroke-width: 0.8"/>
      </g>
     </g>
     <g id="text_12">
      <!-- 1 V -->
      <g transform="translate(74.36625 405.96239) scale(0.14 -0.14)">
       <use xlink:href="#DejaVuSans-31"/>
       <use xlink:href="#DejaVuSans-20" x="63.623047"/>
       <use xlink:href="#DejaVuSans-56" x="95.410156"/>
      </g>
     </g>
    </g>
    <g id="text_13">
     <g id="patch_21">
      <path d="M 34.8768 454.693023 
L 34.8768 383.46146 
L 11.247425 383.46146 
L 11.247425 454.693023 
z
" style="fill: #ffff00; opacity: 0.2; stroke: #eeeeee; stroke-width: 0.5; stroke-linejoin: miter"/>
     </g>
     <!-- DFF OUT -->
     <g transform="translate(26.925238 449.653023) rotate(-90) scale(0.14 -0.14)">
      <defs>
       <path id="DejaVuSans-4f" d="M 2522 4238 
Q 1834 4238 1429 3725 
Q 1025 3213 1025 2328 
Q 1025 1447 1429 934 
Q 1834 422 2522 422 
Q 3209 422 3611 934 
Q 4013 1447 4013 2328 
Q 4013 3213 3611 3725 
Q 3209 4238 2522 4238 
z
M 2522 4750 
Q 3503 4750 4090 4092 
Q 4678 3434 4678 2328 
Q 4678 1225 4090 567 
Q 3503 -91 2522 -91 
Q 1538 -91 948 565 
Q 359 1222 359 2328 
Q 359 3434 948 4092 
Q 1538 4750 2522 4750 
z
" transform="scale(0.015625)"/>
       <path id="DejaVuSans-54" d="M -19 4666 
L 3928 4666 
L 3928 4134 
L 2272 4134 
L 2272 0 
L 1638 0 
L 1638 4134 
L -19 4134 
L -19 4666 
z
" transform="scale(0.015625)"/>
      </defs>
      <use xlink:href="#DejaVuSans-44"/>
      <use xlink:href="#DejaVuSans-46" x="77.001953"/>
      <use xlink:href="#DejaVuSans-46" x="134.521484"/>
      <use xlink:href="#DejaVuSans-20" x="192.041016"/>
      <use xlink:href="#DejaVuSans-4f" x="223.828125"/>
      <use xlink:href="#DejaVuSans-55" x="302.539062"/>
      <use xlink:href="#DejaVuSans-54" x="375.732422"/>
     </g>
    </g>
   </g>
   <g id="line2d_70">
    <path d="M 141.12 410.125148 
L 173.408256 410.172272 
L 173.440512 411.771412 
L 173.601792 439.27241 
L 174.150144 439.268266 
L 184.6656 439.269028 
L 254.048256 439.270641 
L 254.080512 439.425053 
L 254.112768 439.169635 
L 254.306304 435.398512 
L 254.596608 434.64259 
L 254.693376 434.103363 
L 255.14496 427.335988 
L 255.370752 411.43034 
L 255.596544 393.292848 
L 255.757824 392.97611 
L 255.983616 392.914308 
L 256.91904 392.91817 
L 295.755264 392.995424 
L 296.239104 395.494563 
L 296.59392 394.868812 
L 297.948672 393.234908 
L 299.593728 392.949072 
L 334.688256 392.933621 
L 334.720512 392.821604 
L 334.752768 393.389415 
L 334.785024 396.197566 
L 334.914048 439.254219 
L 334.97856 439.220224 
L 335.13984 439.261957 
L 335.526912 439.26938 
L 367.782912 439.268988 
L 415.328256 439.270618 
L 415.360512 439.424516 
L 415.392768 439.171775 
L 415.586304 435.308512 
L 415.876608 434.422032 
L 415.908864 434.315809 
L 416.1024 429.735084 
L 416.521728 416.399648 
L 416.9088 393.045638 
L 417.102336 392.922033 
L 417.811968 392.945209 
L 495.968256 392.933621 
L 496.000512 393.064951 
L 496.065024 392.887269 
L 496.355328 392.910445 
L 537.965568 393.014737 
L 539.578368 395.108297 
L 541.352448 397.866234 
L 545.836032 405.038801 
L 546.41664 406.430517 
L 547.029504 408.291158 
L 547.255296 409.407466 
L 547.448832 409.960599 
L 548.545536 414.835272 
L 548.83584 416.14085 
L 549.513216 419.244108 
L 549.609984 419.147542 
L 549.739008 419.562777 
L 550.158336 422.182431 
L 550.803456 425.12848 
L 550.835712 424.978222 
L 550.867968 424.692386 
L 550.900224 424.846119 
L 551.09376 426.419766 
L 551.41632 427.743112 
L 551.448576 427.417876 
L 551.513088 427.610623 
L 551.545344 427.652726 
L 551.964672 430.26929 
L 552.093696 430.828602 
L 552.125952 430.518045 
L 552.158208 430.418774 
L 552.319488 431.797743 
L 552.70656 433.270574 
L 552.738816 432.975853 
L 552.771072 433.014866 
L 552.932352 434.388041 
L 553.222656 435.600065 
L 553.254912 435.429181 
L 553.287168 435.372632 
L 553.319424 435.447297 
L 553.383936 435.631275 
L 553.577472 437.0593 
L 554.770944 441.260209 
L 554.8032 441.255226 
L 555.319296 443.504683 
L 555.480576 443.955069 
L 555.512832 443.825284 
L 555.545088 443.729876 
L 555.6096 443.804425 
L 555.738624 444.542579 
L 555.77088 444.240133 
L 555.803136 444.35215 
L 555.964416 445.191119 
L 556.674048 446.550388 
L 557.125632 447.285452 
L 557.2224 447.505237 
L 557.254656 447.950215 
L 557.351424 447.911588 
L 557.415936 448.017811 
L 557.770752 449.197081 
L 558.125568 449.981586 
L 558.157824 449.821672 
L 558.222336 449.932917 
L 558.35136 450.233045 
L 558.51264 450.879654 
L 559.125504 452.265575 
L 559.15776 452.22579 
L 559.31904 452.50506 
L 559.351296 452.763858 
L 559.448064 452.733343 
L 559.6416 453.128106 
L 561.351168 456.857115 
L 561.383424 456.799176 
L 561.41568 456.889948 
L 561.964032 458.12059 
L 561.996288 458.040247 
L 562.028544 458.198616 
L 562.093056 458.23029 
L 562.286592 458.745568 
L 562.318848 458.711963 
L 562.351104 458.781491 
L 562.480128 459.136083 
L 562.512384 459.036426 
L 562.54464 459.096684 
L 562.770432 459.702348 
L 562.899456 459.847198 
L 563.254272 460.596553 
L 563.415552 460.76342 
L 563.770368 461.223076 
L 564.254208 460.662991 
L 564.286464 460.109472 
L 564.383232 460.181318 
L 564.415488 460.195996 
L 564.447744 460.351661 
L 564.48 460.212992 
L 564.609024 459.897799 
L 564.705792 459.858786 
L 564.899328 459.33192 
L 565.350912 458.525783 
L 565.383168 458.641277 
L 565.415424 458.516899 
L 565.544448 458.199389 
L 565.576704 458.319517 
L 565.60896 458.190891 
L 565.737984 457.938659 
L 565.77024 457.985011 
L 566.028288 457.557801 
L 566.995968 456.169176 
L 567.286272 455.87291 
L 567.318528 455.928533 
L 567.350784 455.800679 
L 567.479808 455.595572 
L 567.512064 455.692524 
L 567.54432 455.691366 
L 567.7056 455.418662 
L 567.737856 455.471194 
L 567.802368 455.385057 
L 568.092672 455.108104 
L 569.64096 453.169051 
L 569.673216 453.362956 
L 569.705472 453.111883 
L 569.737728 453.232784 
L 570.092544 452.790897 
L 570.576384 452.445189 
L 571.156992 451.857679 
L 571.286016 451.428151 
L 571.318272 451.49961 
L 571.350528 451.33313 
L 571.41504 451.33004 
L 571.479552 451.460598 
L 571.57632 451.11798 
L 571.673088 451.315362 
L 571.705344 451.168194 
L 571.866624 450.813216 
L 572.447232 450.312616 
L 572.479488 450.523131 
L 572.544 450.265105 
L 572.576256 450.428882 
L 572.86656 450.067723 
L 573.156864 449.886951 
L 573.640704 449.334977 
L 573.737472 449.003948 
L 573.769728 449.034076 
L 573.801984 449.037939 
L 573.963264 448.708068 
L 574.382592 448.275451 
L 574.414848 448.61691 
L 574.47936 448.159957 
L 574.543872 448.094678 
L 574.608384 448.409485 
L 574.737408 447.94558 
L 575.350272 447.506009 
L 575.382528 447.678284 
L 575.44704 447.57013 
L 576.059904 447.074551 
L 576.543744 446.5388 
L 576.705024 446.115067 
L 576.73728 446.404766 
L 576.801792 446.011548 
L 576.834048 446.047084 
L 576.930816 445.83232 
L 576.89856 446.257212 
L 576.963072 445.900689 
L 576.995328 445.912277 
L 577.027584 446.130517 
L 577.05984 445.641119 
L 577.156608 445.610217 
L 577.285632 445.474252 
L 577.317888 445.866312 
L 577.3824 445.576226 
L 577.446912 445.309703 
L 577.479168 445.724166 
L 577.511424 445.286527 
L 577.54368 445.393522 
L 577.575936 445.375754 
L 577.608192 445.607514 
L 577.640448 445.158673 
L 577.672704 445.486612 
L 577.833984 444.992965 
L 577.86624 445.012664 
L 577.898496 445.364552 
L 577.930752 444.946613 
L 577.995264 445.291935 
L 578.124288 444.830347 
L 578.156544 444.840776 
L 578.1888 445.040476 
L 578.221056 444.804467 
L 578.253312 444.800991 
L 578.9952 444.442923 
L 579.220992 444.214253 
L 579.8016 443.687001 
L 580.027392 443.032126 
L 580.188672 442.868967 
L 580.220928 443.235456 
L 580.253184 442.847607 
L 580.317696 443.081915 
L 580.414464 443.095048 
L 580.44672 442.544349 
L 580.511232 443.01513 
L 580.575744 442.838066 
L 580.640256 442.398032 
L 580.672512 442.723345 
L 580.704768 442.807821 
L 580.833792 442.230084 
L 580.866048 442.615036 
L 580.93056 442.187981 
L 580.962816 442.477101 
L 580.995072 442.154298 
L 581.059584 442.398264 
L 581.09184 442.459023 
L 581.124096 442.430092 
L 581.220864 442.039771 
L 581.25312 442.053638 
L 581.285376 442.357397 
L 581.317632 441.997127 
L 581.382144 442.272573 
L 581.511168 441.968427 
L 581.543424 441.989904 
L 581.801472 441.903921 
L 582.994944 440.765364 
L 583.252992 440.430704 
L 583.382016 439.650698 
L 583.575552 439.427935 
L 583.607808 439.863666 
L 583.67232 439.547696 
L 583.769088 439.280791 
L 583.801344 439.482155 
L 583.8336 439.261163 
L 583.865856 439.283261 
L 583.99488 439.252958 
L 584.865792 437.689337 
L 584.898048 437.1296 
L 584.994816 437.272595 
L 585.091584 436.744647 
L 585.059328 437.414625 
L 585.12384 437.080699 
L 585.60768 436.42903 
L 586.57536 434.702075 
L 586.672128 434.092161 
L 586.73664 434.13465 
L 586.801152 434.193363 
L 586.833408 434.154736 
L 587.994624 432.129931 
L 588.059136 431.545125 
L 588.123648 431.7877 
L 588.18816 431.835983 
L 588.317184 431.435039 
L 589.188096 429.892681 
L 589.220352 429.985771 
L 589.284864 429.861007 
L 589.446144 429.563196 
L 589.671936 429.263454 
L 590.220288 428.390107 
L 590.349312 427.826932 
L 590.413824 427.724958 
L 590.44608 427.931996 
L 590.478336 427.645001 
L 590.60736 427.415559 
L 590.639616 427.652726 
L 590.671872 427.373456 
L 590.704128 427.566975 
L 590.736384 427.314357 
L 590.833152 427.419421 
L 591.026688 427.137447 
L 591.671808 425.985603 
L 591.800832 425.225046 
L 591.833088 425.444831 
L 591.8976 425.235861 
L 591.929856 424.906763 
L 591.994368 425.264831 
L 592.026624 424.916806 
L 592.607232 423.614704 
L 593.478144 421.128698 
L 593.607168 420.643549 
L 593.639424 420.6196 
L 593.67168 421.279728 
L 593.703936 420.536553 
L 593.736192 420.594493 
L 594.026496 420.662089 
L 595.28448 418.357628 
L 595.348992 417.889474 
L 595.413504 417.977543 
L 595.510272 418.105397 
L 595.574784 418.012693 
L 595.9296 417.310848 
L 596.929536 415.804799 
L 596.961792 415.839176 
L 597.026304 415.756515 
L 597.090816 415.533254 
L 597.155328 415.57188 
L 597.70368 415.142353 
L 597.832704 415.423941 
L 597.961728 416.721021 
L 598.155264 431.323795 
L 598.316544 438.674817 
L 598.51008 438.737817 
L 600.832512 438.846203 
L 602.445312 438.796645 
L 603.122688 438.227406 
L 603.961344 437.855625 
L 605.058048 437.641247 
L 606.799872 437.567278 
L 611.2512 437.699496 
L 622.153728 438.021951 
L 624.1536 437.98232 
L 628.217856 438.14629 
L 628.959744 438.801049 
L 629.766144 439.18913 
L 630.92736 439.456789 
L 632.669184 439.594914 
L 636.862464 439.630261 
L 657.248256 439.659795 
L 657.280512 439.968073 
L 657.570816 430.662508 
L 657.764352 428.968347 
L 657.925632 424.723673 
L 658.119168 409.046308 
L 658.409472 376.984711 
L 658.538496 376.946084 
L 660.022272 377.595011 
L 660.377088 377.75338 
L 661.89312 378.359817 
L 667.763712 380.584707 
L 668.795904 380.959385 
L 673.376256 382.49286 
L 673.66656 382.593289 
L 675.859968 383.265391 
L 676.182528 383.36582 
L 677.601792 383.767536 
L 678.02112 383.867965 
L 679.440384 384.269682 
L 679.859712 384.370111 
L 681.08544 384.694574 
L 681.504768 384.795003 
L 682.504704 385.038351 
L 683.440128 385.258522 
L 684.214272 385.428479 
L 684.601344 385.528908 
L 685.375488 385.698865 
L 685.859328 385.799294 
L 686.633472 385.969251 
L 687.020544 386.06968 
L 687.69792 386.20101 
L 688.18176 386.301439 
L 688.859136 386.43277 
L 689.342976 386.533199 
L 690.020352 386.664529 
L 690.504192 386.764958 
L 691.181568 386.896288 
L 691.665408 386.996718 
L 692.246016 387.089421 
L 692.729856 387.18985 
L 693.310464 387.282554 
L 693.891072 387.382983 
L 694.47168 387.475687 
L 694.95552 387.576116 
L 695.536128 387.66882 
L 696.116736 387.769249 
L 696.697344 387.861953 
L 697.37472 387.958519 
L 697.568256 388.008734 
L 697.600512 387.91603 
L 697.665024 388.066673 
L 697.826304 388.024184 
L 698.439168 388.132339 
L 699.116544 388.228905 
L 699.47136 388.286845 
L 700.180992 388.383411 
L 700.535808 388.441351 
L 701.342208 388.537918 
L 701.697024 388.595857 
L 702.406656 388.692424 
L 702.761472 388.750364 
L 703.66464 388.84693 
L 704.019456 388.90487 
L 704.825856 389.001436 
L 705.180672 389.059376 
L 706.08384 389.155943 
L 706.374144 389.175256 
L 707.148288 389.271822 
L 707.503104 389.329762 
L 708.50304 389.426329 
L 708.857856 389.484269 
L 709.857792 389.580835 
L 710.148096 389.600148 
L 711.019008 389.696715 
L 711.309312 389.716028 
L 712.180224 389.812594 
L 712.470528 389.831908 
L 713.34144 389.928474 
L 713.631744 389.947787 
L 714.599424 390.044354 
L 714.889728 390.063667 
L 715.857408 390.160233 
L 716.147712 390.179547 
L 717.21216 390.276113 
L 717.502464 390.295426 
L 718.66368 390.391993 
L 718.953984 390.411306 
L 720.1152 390.507873 
L 720.405504 390.527186 
L 721.663488 390.623752 
L 721.953792 390.643066 
L 723.308544 390.739632 
L 723.598848 390.758945 
L 725.050368 390.855512 
L 725.340672 390.874825 
L 726.792192 390.971391 
L 727.05024 390.986842 
L 728.727552 391.087271 
L 729.017856 391.106584 
L 730.791936 391.214739 
L 731.275776 391.222464 
L 731.856384 391.257228 
L 733.436928 391.338344 
L 735.307776 391.43491 
L 735.59808 391.454224 
L 737.888256 391.535339 
L 737.920512 391.755511 
L 737.985024 391.562378 
L 740.630016 391.66667 
L 740.888064 391.68212 
L 743.726592 391.782549 
L 743.98464 391.798 
L 747.113472 391.898429 
L 747.468288 391.917742 
L 750.887424 392.014309 
L 751.145472 392.029759 
L 755.145216 392.130188 
L 755.403264 392.145639 
L 760.080384 392.246068 
L 760.4352 392.261519 
L 765.983232 392.361948 
L 766.338048 392.381261 
L 773.273088 392.489416 
L 774.208512 392.493278 
L 818.528256 392.547355 
L 818.560512 392.678686 
L 818.625024 392.501004 
L 818.915328 392.524179 
L 899.168256 392.528042 
L 899.200512 392.725038 
L 899.265024 392.528042 
L 899.45856 392.508729 
L 900.555264 392.531905 
L 947.52 392.531905 
L 947.52 392.531905 
" clip-path="url(#p9cb12b0cf5)" style="fill: none; stroke: #ff00ff; stroke-width: 2; stroke-linecap: square"/>
   </g>
   <g id="patch_22">
    <path d="M 100.8 465.442759 
L 100.8 372.711724 
" style="fill: none; stroke: #bcbcbc; stroke-width: 0.8; stroke-linejoin: miter; stroke-linecap: square"/>
   </g>
   <g id="patch_23">
    <path d="M 987.84 465.442759 
L 987.84 372.711724 
" style="fill: none; stroke: #bcbcbc; stroke-width: 0.8; stroke-linejoin: miter; stroke-linecap: square"/>
   </g>
   <g id="patch_24">
    <path d="M 100.8 465.442759 
L 987.84 465.442759 
" style="fill: none; stroke: #bcbcbc; stroke-width: 0.8; stroke-linejoin: miter; stroke-linecap: square"/>
   </g>
   <g id="patch_25">
    <path d="M 100.8 372.711724 
L 987.84 372.711724 
" style="fill: none; stroke: #bcbcbc; stroke-width: 0.8; stroke-linejoin: miter; stroke-linecap: square"/>
   </g>
  </g>
  <g id="axes_5">
   <g id="patch_26">
    <path d="M 100.8 576.72 
L 987.84 576.72 
L 987.84 483.988966 
L 100.8 483.988966 
z
" style="fill: #eeeeee"/>
   </g>
   <g id="matplotlib.axis_9">
    <g id="xtick_25">
     <g id="line2d_71">
      <path d="M 141.12 576.72 
L 141.12 483.988966 
" clip-path="url(#p1a3c230f0e)" style="fill: none; stroke-dasharray: 1.85,0.8; stroke-dashoffset: 0; stroke: #b2b2b2; stroke-width: 0.5"/>
     </g>
     <g id="line2d_72">
      <g>
       <use xlink:href="#m1537376b1a" x="141.12" y="576.72" style="stroke: #000000; stroke-width: 0.8"/>
      </g>
     </g>
     <g id="text_14">
      <!-- 0 s -->
      <g transform="translate(130.795 590.857813) scale(0.14 -0.14)">
       <defs>
        <path id="DejaVuSans-73" d="M 2834 3397 
L 2834 2853 
Q 2591 2978 2328 3040 
Q 2066 3103 1784 3103 
Q 1356 3103 1142 2972 
Q 928 2841 928 2578 
Q 928 2378 1081 2264 
Q 1234 2150 1697 2047 
L 1894 2003 
Q 2506 1872 2764 1633 
Q 3022 1394 3022 966 
Q 3022 478 2636 193 
Q 2250 -91 1575 -91 
Q 1294 -91 989 -36 
Q 684 19 347 128 
L 347 722 
Q 666 556 975 473 
Q 1284 391 1588 391 
Q 1994 391 2212 530 
Q 2431 669 2431 922 
Q 2431 1156 2273 1281 
Q 2116 1406 1581 1522 
L 1381 1569 
Q 847 1681 609 1914 
Q 372 2147 372 2553 
Q 372 3047 722 3315 
Q 1072 3584 1716 3584 
Q 2034 3584 2315 3537 
Q 2597 3491 2834 3397 
z
" transform="scale(0.015625)"/>
       </defs>
       <use xlink:href="#DejaVuSans-30"/>
       <use xlink:href="#DejaVuSans-20" x="63.623047"/>
       <use xlink:href="#DejaVuSans-73" x="95.410156"/>
      </g>
     </g>
    </g>
    <g id="xtick_26">
     <g id="line2d_73">
      <path d="M 302.4 576.72 
L 302.4 483.988966 
" clip-path="url(#p1a3c230f0e)" style="fill: none; stroke-dasharray: 1.85,0.8; stroke-dashoffset: 0; stroke: #b2b2b2; stroke-width: 0.5"/>
     </g>
     <g id="line2d_74">
      <g>
       <use xlink:href="#m1537376b1a" x="302.4" y="576.72" style="stroke: #000000; stroke-width: 0.8"/>
      </g>
     </g>
     <g id="text_15">
      <!-- 50 ns -->
      <g transform="translate(283.185 590.857813) scale(0.14 -0.14)">
       <defs>
        <path id="DejaVuSans-35" d="M 691 4666 
L 3169 4666 
L 3169 4134 
L 1269 4134 
L 1269 2991 
Q 1406 3038 1543 3061 
Q 1681 3084 1819 3084 
Q 2600 3084 3056 2656 
Q 3513 2228 3513 1497 
Q 3513 744 3044 326 
Q 2575 -91 1722 -91 
Q 1428 -91 1123 -41 
Q 819 9 494 109 
L 494 744 
Q 775 591 1075 516 
Q 1375 441 1709 441 
Q 2250 441 2565 725 
Q 2881 1009 2881 1497 
Q 2881 1984 2565 2268 
Q 2250 2553 1709 2553 
Q 1456 2553 1204 2497 
Q 953 2441 691 2322 
L 691 4666 
z
" transform="scale(0.015625)"/>
        <path id="DejaVuSans-6e" d="M 3513 2113 
L 3513 0 
L 2938 0 
L 2938 2094 
Q 2938 2591 2744 2837 
Q 2550 3084 2163 3084 
Q 1697 3084 1428 2787 
Q 1159 2491 1159 1978 
L 1159 0 
L 581 0 
L 581 3500 
L 1159 3500 
L 1159 2956 
Q 1366 3272 1645 3428 
Q 1925 3584 2291 3584 
Q 2894 3584 3203 3211 
Q 3513 2838 3513 2113 
z
" transform="scale(0.015625)"/>
       </defs>
       <use xlink:href="#DejaVuSans-35"/>
       <use xlink:href="#DejaVuSans-30" x="63.623047"/>
       <use xlink:href="#DejaVuSans-20" x="127.246094"/>
       <use xlink:href="#DejaVuSans-6e" x="159.033203"/>
       <use xlink:href="#DejaVuSans-73" x="222.412109"/>
      </g>
     </g>
    </g>
    <g id="xtick_27">
     <g id="line2d_75">
      <path d="M 463.68 576.72 
L 463.68 483.988966 
" clip-path="url(#p1a3c230f0e)" style="fill: none; stroke-dasharray: 1.85,0.8; stroke-dashoffset: 0; stroke: #b2b2b2; stroke-width: 0.5"/>
     </g>
     <g id="line2d_76">
      <g>
       <use xlink:href="#m1537376b1a" x="463.68" y="576.72" style="stroke: #000000; stroke-width: 0.8"/>
      </g>
     </g>
     <g id="text_16">
      <!-- 100 ns -->
      <g transform="translate(440.01125 590.857813) scale(0.14 -0.14)">
       <use xlink:href="#DejaVuSans-31"/>
       <use xlink:href="#DejaVuSans-30" x="63.623047"/>
       <use xlink:href="#DejaVuSans-30" x="127.246094"/>
       <use xlink:href="#DejaVuSans-20" x="190.869141"/>
       <use xlink:href="#DejaVuSans-6e" x="222.65625"/>
       <use xlink:href="#DejaVuSans-73" x="286.035156"/>
      </g>
     </g>
    </g>
    <g id="xtick_28">
     <g id="line2d_77">
      <path d="M 624.96 576.72 
L 624.96 483.988966 
" clip-path="url(#p1a3c230f0e)" style="fill: none; stroke-dasharray: 1.85,0.8; stroke-dashoffset: 0; stroke: #b2b2b2; stroke-width: 0.5"/>
     </g>
     <g id="line2d_78">
      <g>
       <use xlink:href="#m1537376b1a" x="624.96" y="576.72" style="stroke: #000000; stroke-width: 0.8"/>
      </g>
     </g>
     <g id="text_17">
      <!-- 150 ns -->
      <g transform="translate(601.29125 590.857813) scale(0.14 -0.14)">
       <use xlink:href="#DejaVuSans-31"/>
       <use xlink:href="#DejaVuSans-35" x="63.623047"/>
       <use xlink:href="#DejaVuSans-30" x="127.246094"/>
       <use xlink:href="#DejaVuSans-20" x="190.869141"/>
       <use xlink:href="#DejaVuSans-6e" x="222.65625"/>
       <use xlink:href="#DejaVuSans-73" x="286.035156"/>
      </g>
     </g>
    </g>
    <g id="xtick_29">
     <g id="line2d_79">
      <path d="M 786.24 576.72 
L 786.24 483.988966 
" clip-path="url(#p1a3c230f0e)" style="fill: none; stroke-dasharray: 1.85,0.8; stroke-dashoffset: 0; stroke: #b2b2b2; stroke-width: 0.5"/>
     </g>
     <g id="line2d_80">
      <g>
       <use xlink:href="#m1537376b1a" x="786.24" y="576.72" style="stroke: #000000; stroke-width: 0.8"/>
      </g>
     </g>
     <g id="text_18">
      <!-- 200 ns -->
      <g transform="translate(762.57125 590.857813) scale(0.14 -0.14)">
       <use xlink:href="#DejaVuSans-32"/>
       <use xlink:href="#DejaVuSans-30" x="63.623047"/>
       <use xlink:href="#DejaVuSans-30" x="127.246094"/>
       <use xlink:href="#DejaVuSans-20" x="190.869141"/>
       <use xlink:href="#DejaVuSans-6e" x="222.65625"/>
       <use xlink:href="#DejaVuSans-73" x="286.035156"/>
      </g>
     </g>
    </g>
    <g id="xtick_30">
     <g id="line2d_81">
      <path d="M 947.52 576.72 
L 947.52 483.988966 
" clip-path="url(#p1a3c230f0e)" style="fill: none; stroke-dasharray: 1.85,0.8; stroke-dashoffset: 0; stroke: #b2b2b2; stroke-width: 0.5"/>
     </g>
     <g id="line2d_82">
      <g>
       <use xlink:href="#m1537376b1a" x="947.52" y="576.72" style="stroke: #000000; stroke-width: 0.8"/>
      </g>
     </g>
     <g id="text_19">
      <!-- 250 ns -->
      <g transform="translate(923.85125 590.857813) scale(0.14 -0.14)">
       <use xlink:href="#DejaVuSans-32"/>
       <use xlink:href="#DejaVuSans-35" x="63.623047"/>
       <use xlink:href="#DejaVuSans-30" x="127.246094"/>
       <use xlink:href="#DejaVuSans-20" x="190.869141"/>
       <use xlink:href="#DejaVuSans-6e" x="222.65625"/>
       <use xlink:href="#DejaVuSans-73" x="286.035156"/>
      </g>
     </g>
    </g>
    <g id="text_20">
     <!-- Time -->
     <g transform="translate(527.192969 608.407187) scale(0.14 -0.14)">
      <defs>
       <path id="DejaVuSans-69" d="M 603 3500 
L 1178 3500 
L 1178 0 
L 603 0 
L 603 3500 
z
M 603 4863 
L 1178 4863 
L 1178 4134 
L 603 4134 
L 603 4863 
z
" transform="scale(0.015625)"/>
       <path id="DejaVuSans-6d" d="M 3328 2828 
Q 3544 3216 3844 3400 
Q 4144 3584 4550 3584 
Q 5097 3584 5394 3201 
Q 5691 2819 5691 2113 
L 5691 0 
L 5113 0 
L 5113 2094 
Q 5113 2597 4934 2840 
Q 4756 3084 4391 3084 
Q 3944 3084 3684 2787 
Q 3425 2491 3425 1978 
L 3425 0 
L 2847 0 
L 2847 2094 
Q 2847 2600 2669 2842 
Q 2491 3084 2119 3084 
Q 1678 3084 1418 2786 
Q 1159 2488 1159 1978 
L 1159 0 
L 581 0 
L 581 3500 
L 1159 3500 
L 1159 2956 
Q 1356 3278 1631 3431 
Q 1906 3584 2284 3584 
Q 2666 3584 2933 3390 
Q 3200 3197 3328 2828 
z
" transform="scale(0.015625)"/>
       <path id="DejaVuSans-65" d="M 3597 1894 
L 3597 1613 
L 953 1613 
Q 991 1019 1311 708 
Q 1631 397 2203 397 
Q 2534 397 2845 478 
Q 3156 559 3463 722 
L 3463 178 
Q 3153 47 2828 -22 
Q 2503 -91 2169 -91 
Q 1331 -91 842 396 
Q 353 884 353 1716 
Q 353 2575 817 3079 
Q 1281 3584 2069 3584 
Q 2775 3584 3186 3129 
Q 3597 2675 3597 1894 
z
M 3022 2063 
Q 3016 2534 2758 2815 
Q 2500 3097 2075 3097 
Q 1594 3097 1305 2825 
Q 1016 2553 972 2059 
L 3022 2063 
z
" transform="scale(0.015625)"/>
      </defs>
      <use xlink:href="#DejaVuSans-54"/>
      <use xlink:href="#DejaVuSans-69" x="57.958984"/>
      <use xlink:href="#DejaVuSans-6d" x="85.742188"/>
      <use xlink:href="#DejaVuSans-65" x="183.154297"/>
     </g>
    </g>
   </g>
   <g id="matplotlib.axis_10">
    <g id="ytick_10">
     <g id="line2d_83">
      <path d="M 100.8 569.745885 
L 987.84 569.745885 
" clip-path="url(#p1a3c230f0e)" style="fill: none; stroke-dasharray: 1.85,0.8; stroke-dashoffset: 0; stroke: #b2b2b2; stroke-width: 0.5"/>
     </g>
     <g id="line2d_84">
      <g>
       <use xlink:href="#mee90ff8b13" x="100.8" y="569.745885" style="stroke: #000000; stroke-width: 0.8"/>
      </g>
     </g>
     <g id="text_21">
      <!-- 0 V -->
      <g transform="translate(74.36625 575.064792) scale(0.14 -0.14)">
       <use xlink:href="#DejaVuSans-30"/>
       <use xlink:href="#DejaVuSans-20" x="63.623047"/>
       <use xlink:href="#DejaVuSans-56" x="95.410156"/>
      </g>
     </g>
    </g>
    <g id="ytick_11">
     <g id="line2d_85">
      <path d="M 100.8 535.950348 
L 987.84 535.950348 
" clip-path="url(#p1a3c230f0e)" style="fill: none; stroke-dasharray: 1.85,0.8; stroke-dashoffset: 0; stroke: #b2b2b2; stroke-width: 0.5"/>
     </g>
     <g id="line2d_86">
      <g>
       <use xlink:href="#mee90ff8b13" x="100.8" y="535.950348" style="stroke: #000000; stroke-width: 0.8"/>
      </g>
     </g>
     <g id="text_22">
      <!-- 500 mV -->
      <g transform="translate(42.914375 541.269254) scale(0.14 -0.14)">
       <use xlink:href="#DejaVuSans-35"/>
       <use xlink:href="#DejaVuSans-30" x="63.623047"/>
       <use xlink:href="#DejaVuSans-30" x="127.246094"/>
       <use xlink:href="#DejaVuSans-20" x="190.869141"/>
       <use xlink:href="#DejaVuSans-6d" x="222.65625"/>
       <use xlink:href="#DejaVuSans-56" x="320.068359"/>
      </g>
     </g>
    </g>
    <g id="ytick_12">
     <g id="line2d_87">
      <path d="M 100.8 502.15481 
L 987.84 502.15481 
" clip-path="url(#p1a3c230f0e)" style="fill: none; stroke-dasharray: 1.85,0.8; stroke-dashoffset: 0; stroke: #b2b2b2; stroke-width: 0.5"/>
     </g>
     <g id="line2d_88">
      <g>
       <use xlink:href="#mee90ff8b13" x="100.8" y="502.15481" style="stroke: #000000; stroke-width: 0.8"/>
      </g>
     </g>
     <g id="text_23">
      <!-- 1 V -->
      <g transform="translate(74.36625 507.473717) scale(0.14 -0.14)">
       <use xlink:href="#DejaVuSans-31"/>
       <use xlink:href="#DejaVuSans-20" x="63.623047"/>
       <use xlink:href="#DejaVuSans-56" x="95.410156"/>
      </g>
     </g>
    </g>
    <g id="text_24">
     <g id="patch_27">
      <path d="M 34.8768 554.329483 
L 34.8768 506.379483 
L 11.247425 506.379483 
L 11.247425 554.329483 
z
" style="fill: #ffff00; opacity: 0.2; stroke: #eeeeee; stroke-width: 0.5; stroke-linejoin: miter"/>
     </g>
     <!-- FOUT -->
     <g transform="translate(26.925238 549.289483) rotate(-90) scale(0.14 -0.14)">
      <use xlink:href="#DejaVuSans-46"/>
      <use xlink:href="#DejaVuSans-4f" x="57.519531"/>
      <use xlink:href="#DejaVuSans-55" x="136.230469"/>
      <use xlink:href="#DejaVuSans-54" x="209.423828"/>
     </g>
    </g>
   </g>
   <g id="line2d_89">
    <path d="M 141.12 488.636595 
L 173.472768 488.643355 
L 173.505024 488.44734 
L 173.569536 526.789729 
L 173.69856 572.504953 
L 173.730816 572.3695 
L 173.827584 567.842115 
L 173.892096 569.3609 
L 174.053376 570.064192 
L 174.117888 569.946665 
L 174.408192 569.492054 
L 174.440448 569.54151 
L 174.66624 569.729954 
L 176.182272 569.740151 
L 180.117504 569.761449 
L 193.568256 569.752159 
L 212.954112 569.74401 
L 255.30624 569.743704 
L 255.6288 488.52845 
L 255.854592 488.670391 
L 256.209408 488.629836 
L 334.849536 488.650114 
L 334.881792 492.854278 
L 335.043072 572.18376 
L 335.107584 570.261206 
L 335.172096 568.338639 
L 335.236608 568.870108 
L 335.365632 570.783003 
L 335.430144 570.410083 
L 335.591424 569.797213 
L 335.881728 569.648439 
L 336.559104 569.817924 
L 337.107456 569.746143 
L 350.009856 569.744206 
L 416.489472 569.74333 
L 416.553984 567.480841 
L 416.812032 488.204013 
L 416.844288 488.339195 
L 416.973312 488.852887 
L 417.037824 488.778537 
L 417.39264 488.548727 
L 417.844224 488.717705 
L 418.457088 488.562245 
L 419.328 488.636595 
L 549.287424 488.52845 
L 549.31968 488.366231 
L 549.351936 488.954273 
L 549.416448 518.603774 
L 549.545472 570.07602 
L 549.577728 569.783491 
L 549.706752 569.745644 
L 551.90016 569.744205 
L 595.832832 569.850969 
L 595.865088 568.918638 
L 595.961856 527.168239 
L 596.123136 488.866405 
L 596.284416 488.643355 
L 596.832768 488.636595 
L 597.929472 488.636595 
L 597.961728 489.73833 
L 598.155264 570.367095 
L 598.284288 569.744108 
L 608.444928 569.744205 
L 658.054656 569.734651 
L 658.119168 568.232859 
L 658.34496 488.819091 
L 658.50624 488.636595 
L 947.52 488.636595 
L 947.52 488.636595 
" clip-path="url(#p1a3c230f0e)" style="fill: none; stroke: #ff00ff; stroke-width: 2; stroke-linecap: square"/>
   </g>
   <g id="patch_28">
    <path d="M 100.8 576.72 
L 100.8 483.988966 
" style="fill: none; stroke: #bcbcbc; stroke-width: 0.8; stroke-linejoin: miter; stroke-linecap: square"/>
   </g>
   <g id="patch_29">
    <path d="M 987.84 576.72 
L 987.84 483.988966 
" style="fill: none; stroke: #bcbcbc; stroke-width: 0.8; stroke-linejoin: miter; stroke-linecap: square"/>
   </g>
   <g id="patch_30">
    <path d="M 100.8 576.72 
L 987.84 576.72 
" style="fill: none; stroke: #bcbcbc; stroke-width: 0.8; stroke-linejoin: miter; stroke-linecap: square"/>
   </g>
   <g id="patch_31">
    <path d="M 100.8 483.988966 
L 987.84 483.988966 
" style="fill: none; stroke: #bcbcbc; stroke-width: 0.8; stroke-linejoin: miter; stroke-linecap: square"/>
   </g>
  </g>
  <g id="axes_6">
   <g id="patch_32">
    <path d="M 201.6 628.56 
L 856.8 628.56 
L 856.8 615.6 
L 201.6 615.6 
z
" clip-path="url(#pf119fd1663)" style="fill: #d3d3d3"/>
   </g>
   <g id="patch_33">
    <path d="M 201.6 628.56 
L 702.36 628.56 
L 702.36 615.6 
L 201.6 615.6 
z
" clip-path="url(#pf119fd1663)" style="fill: #0000ff"/>
   </g>
   <g id="line2d_90">
    <path d="M 201.6 635.04 
L 201.6 609.12 
" clip-path="url(#p6128fc09e8)" style="fill: none; stroke: #ff0000; stroke-linecap: square"/>
   </g>
   <g id="line2d_91">
    <defs>
     <path id="mbc79c81c57" d="M 0 5 
C 1.326016 5 2.597899 4.473168 3.535534 3.535534 
C 4.473168 2.597899 5 1.326016 5 0 
C 5 -1.326016 4.473168 -2.597899 3.535534 -3.535534 
C 2.597899 -4.473168 1.326016 -5 0 -5 
C -1.326016 -5 -2.597899 -4.473168 -3.535534 -3.535534 
C -4.473168 -2.597899 -5 -1.326016 -5 0 
C -5 1.326016 -4.473168 2.597899 -3.535534 3.535534 
C -2.597899 4.473168 -1.326016 5 0 5 
z
" style="stroke: #bfbfbf"/>
    </defs>
    <g>
     <use xlink:href="#mbc79c81c57" x="702.36" y="622.08" style="fill: #ffffff; stroke: #bfbfbf"/>
    </g>
   </g>
   <g id="text_25">
    <!-- #Sweep -->
    <g transform="translate(138.622875 625.39125) scale(0.12 -0.12)">
     <defs>
      <path id="DejaVuSans-23" d="M 3272 2816 
L 2363 2816 
L 2100 1772 
L 3016 1772 
L 3272 2816 
z
M 2803 4594 
L 2478 3297 
L 3391 3297 
L 3719 4594 
L 4219 4594 
L 3897 3297 
L 4872 3297 
L 4872 2816 
L 3775 2816 
L 3519 1772 
L 4513 1772 
L 4513 1294 
L 3397 1294 
L 3072 0 
L 2572 0 
L 2894 1294 
L 1978 1294 
L 1656 0 
L 1153 0 
L 1478 1294 
L 494 1294 
L 494 1772 
L 1594 1772 
L 1856 2816 
L 850 2816 
L 850 3297 
L 1978 3297 
L 2297 4594 
L 2803 4594 
z
" transform="scale(0.015625)"/>
      <path id="DejaVuSans-77" d="M 269 3500 
L 844 3500 
L 1563 769 
L 2278 3500 
L 2956 3500 
L 3675 769 
L 4391 3500 
L 4966 3500 
L 4050 0 
L 3372 0 
L 2619 2869 
L 1863 0 
L 1184 0 
L 269 3500 
z
" transform="scale(0.015625)"/>
      <path id="DejaVuSans-70" d="M 1159 525 
L 1159 -1331 
L 581 -1331 
L 581 3500 
L 1159 3500 
L 1159 2969 
Q 1341 3281 1617 3432 
Q 1894 3584 2278 3584 
Q 2916 3584 3314 3078 
Q 3713 2572 3713 1747 
Q 3713 922 3314 415 
Q 2916 -91 2278 -91 
Q 1894 -91 1617 61 
Q 1341 213 1159 525 
z
M 3116 1747 
Q 3116 2381 2855 2742 
Q 2594 3103 2138 3103 
Q 1681 3103 1420 2742 
Q 1159 2381 1159 1747 
Q 1159 1113 1420 752 
Q 1681 391 2138 391 
Q 2594 391 2855 752 
Q 3116 1113 3116 1747 
z
" transform="scale(0.015625)"/>
     </defs>
     <use xlink:href="#DejaVuSans-23"/>
     <use xlink:href="#DejaVuSans-53" x="83.789062"/>
     <use xlink:href="#DejaVuSans-77" x="147.265625"/>
     <use xlink:href="#DejaVuSans-65" x="229.052734"/>
     <use xlink:href="#DejaVuSans-65" x="290.576172"/>
     <use xlink:href="#DejaVuSans-70" x="352.099609"/>
    </g>
   </g>
   <g id="text_26">
    <!-- $\mathdefault{107}$ -->
    <g transform="translate(869.904 625.39125) scale(0.12 -0.12)">
     <defs>
      <path id="DejaVuSans-37" d="M 525 4666 
L 3525 4666 
L 3525 4397 
L 1831 0 
L 1172 0 
L 2766 4134 
L 525 4134 
L 525 4666 
z
" transform="scale(0.015625)"/>
     </defs>
     <use xlink:href="#DejaVuSans-31" transform="translate(0 0.78125)"/>
     <use xlink:href="#DejaVuSans-30" transform="translate(63.623047 0.78125)"/>
     <use xlink:href="#DejaVuSans-37" transform="translate(127.246094 0.78125)"/>
    </g>
   </g>
  </g>
  <g id="text_27">
   <!-- DFF under BBI sweep analysis (Sweep = 117E-9) -->
   <g transform="translate(308.25625 25.1175) scale(0.16 -0.16)">
    <defs>
     <path id="DejaVuSans-75" d="M 544 1381 
L 544 3500 
L 1119 3500 
L 1119 1403 
Q 1119 906 1312 657 
Q 1506 409 1894 409 
Q 2359 409 2629 706 
Q 2900 1003 2900 1516 
L 2900 3500 
L 3475 3500 
L 3475 0 
L 2900 0 
L 2900 538 
Q 2691 219 2414 64 
Q 2138 -91 1772 -91 
Q 1169 -91 856 284 
Q 544 659 544 1381 
z
M 1991 3584 
L 1991 3584 
z
" transform="scale(0.015625)"/>
     <path id="DejaVuSans-64" d="M 2906 2969 
L 2906 4863 
L 3481 4863 
L 3481 0 
L 2906 0 
L 2906 525 
Q 2725 213 2448 61 
Q 2172 -91 1784 -91 
Q 1150 -91 751 415 
Q 353 922 353 1747 
Q 353 2572 751 3078 
Q 1150 3584 1784 3584 
Q 2172 3584 2448 3432 
Q 2725 3281 2906 2969 
z
M 947 1747 
Q 947 1113 1208 752 
Q 1469 391 1925 391 
Q 2381 391 2643 752 
Q 2906 1113 2906 1747 
Q 2906 2381 2643 2742 
Q 2381 3103 1925 3103 
Q 1469 3103 1208 2742 
Q 947 2381 947 1747 
z
" transform="scale(0.015625)"/>
     <path id="DejaVuSans-72" d="M 2631 2963 
Q 2534 3019 2420 3045 
Q 2306 3072 2169 3072 
Q 1681 3072 1420 2755 
Q 1159 2438 1159 1844 
L 1159 0 
L 581 0 
L 581 3500 
L 1159 3500 
L 1159 2956 
Q 1341 3275 1631 3429 
Q 1922 3584 2338 3584 
Q 2397 3584 2469 3576 
Q 2541 3569 2628 3553 
L 2631 2963 
z
" transform="scale(0.015625)"/>
     <path id="DejaVuSans-61" d="M 2194 1759 
Q 1497 1759 1228 1600 
Q 959 1441 959 1056 
Q 959 750 1161 570 
Q 1363 391 1709 391 
Q 2188 391 2477 730 
Q 2766 1069 2766 1631 
L 2766 1759 
L 2194 1759 
z
M 3341 1997 
L 3341 0 
L 2766 0 
L 2766 531 
Q 2569 213 2275 61 
Q 1981 -91 1556 -91 
Q 1019 -91 701 211 
Q 384 513 384 1019 
Q 384 1609 779 1909 
Q 1175 2209 1959 2209 
L 2766 2209 
L 2766 2266 
Q 2766 2663 2505 2880 
Q 2244 3097 1772 3097 
Q 1472 3097 1187 3025 
Q 903 2953 641 2809 
L 641 3341 
Q 956 3463 1253 3523 
Q 1550 3584 1831 3584 
Q 2591 3584 2966 3190 
Q 3341 2797 3341 1997 
z
" transform="scale(0.015625)"/>
     <path id="DejaVuSans-6c" d="M 603 4863 
L 1178 4863 
L 1178 0 
L 603 0 
L 603 4863 
z
" transform="scale(0.015625)"/>
     <path id="DejaVuSans-79" d="M 2059 -325 
Q 1816 -950 1584 -1140 
Q 1353 -1331 966 -1331 
L 506 -1331 
L 506 -850 
L 844 -850 
Q 1081 -850 1212 -737 
Q 1344 -625 1503 -206 
L 1606 56 
L 191 3500 
L 800 3500 
L 1894 763 
L 2988 3500 
L 3597 3500 
L 2059 -325 
z
" transform="scale(0.015625)"/>
     <path id="DejaVuSans-28" d="M 1984 4856 
Q 1566 4138 1362 3434 
Q 1159 2731 1159 2009 
Q 1159 1288 1364 580 
Q 1569 -128 1984 -844 
L 1484 -844 
Q 1016 -109 783 600 
Q 550 1309 550 2009 
Q 550 2706 781 3412 
Q 1013 4119 1484 4856 
L 1984 4856 
z
" transform="scale(0.015625)"/>
     <path id="DejaVuSans-3d" d="M 678 2906 
L 4684 2906 
L 4684 2381 
L 678 2381 
L 678 2906 
z
M 678 1631 
L 4684 1631 
L 4684 1100 
L 678 1100 
L 678 1631 
z
" transform="scale(0.015625)"/>
     <path id="DejaVuSans-2d" d="M 313 2009 
L 1997 2009 
L 1997 1497 
L 313 1497 
L 313 2009 
z
" transform="scale(0.015625)"/>
     <path id="DejaVuSans-39" d="M 703 97 
L 703 672 
Q 941 559 1184 500 
Q 1428 441 1663 441 
Q 2288 441 2617 861 
Q 2947 1281 2994 2138 
Q 2813 1869 2534 1725 
Q 2256 1581 1919 1581 
Q 1219 1581 811 2004 
Q 403 2428 403 3163 
Q 403 3881 828 4315 
Q 1253 4750 1959 4750 
Q 2769 4750 3195 4129 
Q 3622 3509 3622 2328 
Q 3622 1225 3098 567 
Q 2575 -91 1691 -91 
Q 1453 -91 1209 -44 
Q 966 3 703 97 
z
M 1959 2075 
Q 2384 2075 2632 2365 
Q 2881 2656 2881 3163 
Q 2881 3666 2632 3958 
Q 2384 4250 1959 4250 
Q 1534 4250 1286 3958 
Q 1038 3666 1038 3163 
Q 1038 2656 1286 2365 
Q 1534 2075 1959 2075 
z
" transform="scale(0.015625)"/>
     <path id="DejaVuSans-29" d="M 513 4856 
L 1013 4856 
Q 1481 4119 1714 3412 
Q 1947 2706 1947 2009 
Q 1947 1309 1714 600 
Q 1481 -109 1013 -844 
L 513 -844 
Q 928 -128 1133 580 
Q 1338 1288 1338 2009 
Q 1338 2731 1133 3434 
Q 928 4138 513 4856 
z
" transform="scale(0.015625)"/>
    </defs>
    <use xlink:href="#DejaVuSans-44"/>
    <use xlink:href="#DejaVuSans-46" x="77.001953"/>
    <use xlink:href="#DejaVuSans-46" x="134.521484"/>
    <use xlink:href="#DejaVuSans-20" x="192.041016"/>
    <use xlink:href="#DejaVuSans-75" x="223.828125"/>
    <use xlink:href="#DejaVuSans-6e" x="287.207031"/>
    <use xlink:href="#DejaVuSans-64" x="350.585938"/>
    <use xlink:href="#DejaVuSans-65" x="414.0625"/>
    <use xlink:href="#DejaVuSans-72" x="475.585938"/>
    <use xlink:href="#DejaVuSans-20" x="516.699219"/>
    <use xlink:href="#DejaVuSans-42" x="548.486328"/>
    <use xlink:href="#DejaVuSans-42" x="617.089844"/>
    <use xlink:href="#DejaVuSans-49" x="685.693359"/>
    <use xlink:href="#DejaVuSans-20" x="715.185547"/>
    <use xlink:href="#DejaVuSans-73" x="746.972656"/>
    <use xlink:href="#DejaVuSans-77" x="799.072266"/>
    <use xlink:href="#DejaVuSans-65" x="880.859375"/>
    <use xlink:href="#DejaVuSans-65" x="942.382812"/>
    <use xlink:href="#DejaVuSans-70" x="1003.90625"/>
    <use xlink:href="#DejaVuSans-20" x="1067.382812"/>
    <use xlink:href="#DejaVuSans-61" x="1099.169922"/>
    <use xlink:href="#DejaVuSans-6e" x="1160.449219"/>
    <use xlink:href="#DejaVuSans-61" x="1223.828125"/>
    <use xlink:href="#DejaVuSans-6c" x="1285.107422"/>
    <use xlink:href="#DejaVuSans-79" x="1312.890625"/>
    <use xlink:href="#DejaVuSans-73" x="1372.070312"/>
    <use xlink:href="#DejaVuSans-69" x="1424.169922"/>
    <use xlink:href="#DejaVuSans-73" x="1451.953125"/>
    <use xlink:href="#DejaVuSans-20" x="1504.052734"/>
    <use xlink:href="#DejaVuSans-28" x="1535.839844"/>
    <use xlink:href="#DejaVuSans-53" x="1574.853516"/>
    <use xlink:href="#DejaVuSans-77" x="1638.330078"/>
    <use xlink:href="#DejaVuSans-65" x="1720.117188"/>
    <use xlink:href="#DejaVuSans-65" x="1781.640625"/>
    <use xlink:href="#DejaVuSans-70" x="1843.164062"/>
    <use xlink:href="#DejaVuSans-20" x="1906.640625"/>
    <use xlink:href="#DejaVuSans-3d" x="1938.427734"/>
    <use xlink:href="#DejaVuSans-20" x="2022.216797"/>
    <use xlink:href="#DejaVuSans-31" x="2054.003906"/>
    <use xlink:href="#DejaVuSans-31" x="2117.626953"/>
    <use xlink:href="#DejaVuSans-37" x="2181.25"/>
    <use xlink:href="#DejaVuSans-45" x="2244.873047"/>
    <use xlink:href="#DejaVuSans-2d" x="2308.056641"/>
    <use xlink:href="#DejaVuSans-39" x="2344.140625"/>
    <use xlink:href="#DejaVuSans-29" x="2407.763672"/>
   </g>
  </g>
 </g>
 <defs>
  <clipPath id="ped3bb817fc">
   <rect x="100.8" y="38.88" width="887.04" height="92.731034"/>
  </clipPath>
  <clipPath id="p6b9366a370">
   <rect x="100.8" y="150.157241" width="887.04" height="92.731034"/>
  </clipPath>
  <clipPath id="p3cf48e9f4e">
   <rect x="100.8" y="261.434483" width="887.04" height="92.731034"/>
  </clipPath>
  <clipPath id="p9cb12b0cf5">
   <rect x="100.8" y="372.711724" width="887.04" height="92.731034"/>
  </clipPath>
  <clipPath id="p1a3c230f0e">
   <rect x="100.8" y="483.988966" width="887.04" height="92.731034"/>
  </clipPath>
  <clipPath id="pf119fd1663">
   <rect x="201.6" y="609.12" width="655.2" height="25.92"/>
  </clipPath>
  <clipPath id="p6128fc09e8">
   <path d="M 201.6 628.56 
L 856.8 628.56 
L 856.8 615.6 
L 201.6 615.6 
z
"/>
  </clipPath>
 </defs>
</svg>
