<?xml version="1.0" encoding="utf-8" standalone="no"?>
<!DOCTYPE svg PUBLIC "-//W3C//DTD SVG 1.1//EN"
  "http://www.w3.org/Graphics/SVG/1.1/DTD/svg11.dtd">
<svg xmlns:xlink="http://www.w3.org/1999/xlink" width="1008pt" height="648pt" viewBox="0 0 1008 648" xmlns="http://www.w3.org/2000/svg" version="1.1">
 <metadata>
  <rdf:RDF xmlns:dc="http://purl.org/dc/elements/1.1/" xmlns:cc="http://creativecommons.org/ns#" xmlns:rdf="http://www.w3.org/1999/02/22-rdf-syntax-ns#">
   <cc:Work>
    <dc:type rdf:resource="http://purl.org/dc/dcmitype/StillImage"/>
    <dc:date>2024-06-03T10:45:42.397883</dc:date>
    <dc:format>image/svg+xml</dc:format>
    <dc:creator>
     <cc:Agent>
      <dc:title>Matplotlib v3.9.0, https://matplotlib.org/</dc:title>
     </cc:Agent>
    </dc:creator>
   </cc:Work>
  </rdf:RDF>
 </metadata>
 <defs>
  <style type="text/css">*{stroke-linejoin: round; stroke-linecap: butt}</style>
 </defs>
 <g id="figure_1">
  <g id="patch_1">
   <path d="M 0 648 
L 1008 648 
L 1008 0 
L 0 0 
z
" style="fill: #ffffff"/>
  </g>
  <g id="axes_1">
   <g id="patch_2">
    <path d="M 100.8 131.611034 
L 987.84 131.611034 
L 987.84 38.88 
L 100.8 38.88 
z
" style="fill: #eeeeee"/>
   </g>
   <g id="matplotlib.axis_1">
    <g id="xtick_1">
     <g id="line2d_1">
      <path d="M 141.12 131.611034 
L 141.12 38.88 
" clip-path="url(#pda90d60bfa)" style="fill: none; stroke-dasharray: 1.85,0.8; stroke-dashoffset: 0; stroke: #b2b2b2; stroke-width: 0.5"/>
     </g>
     <g id="line2d_2">
      <defs>
       <path id="mb161756435" d="M 0 0 
L 0 -3.5 
" style="stroke: #000000; stroke-width: 0.8"/>
      </defs>
      <g>
       <use xlink:href="#mb161756435" x="141.12" y="131.611034" style="stroke: #000000; stroke-width: 0.8"/>
      </g>
     </g>
    </g>
    <g id="xtick_2">
     <g id="line2d_3">
      <path d="M 302.4 131.611034 
L 302.4 38.88 
" clip-path="url(#pda90d60bfa)" style="fill: none; stroke-dasharray: 1.85,0.8; stroke-dashoffset: 0; stroke: #b2b2b2; stroke-width: 0.5"/>
     </g>
     <g id="line2d_4">
      <g>
       <use xlink:href="#mb161756435" x="302.4" y="131.611034" style="stroke: #000000; stroke-width: 0.8"/>
      </g>
     </g>
    </g>
    <g id="xtick_3">
     <g id="line2d_5">
      <path d="M 463.68 131.611034 
L 463.68 38.88 
" clip-path="url(#pda90d60bfa)" style="fill: none; stroke-dasharray: 1.85,0.8; stroke-dashoffset: 0; stroke: #b2b2b2; stroke-width: 0.5"/>
     </g>
     <g id="line2d_6">
      <g>
       <use xlink:href="#mb161756435" x="463.68" y="131.611034" style="stroke: #000000; stroke-width: 0.8"/>
      </g>
     </g>
    </g>
    <g id="xtick_4">
     <g id="line2d_7">
      <path d="M 624.96 131.611034 
L 624.96 38.88 
" clip-path="url(#pda90d60bfa)" style="fill: none; stroke-dasharray: 1.85,0.8; stroke-dashoffset: 0; stroke: #b2b2b2; stroke-width: 0.5"/>
     </g>
     <g id="line2d_8">
      <g>
       <use xlink:href="#mb161756435" x="624.96" y="131.611034" style="stroke: #000000; stroke-width: 0.8"/>
      </g>
     </g>
    </g>
    <g id="xtick_5">
     <g id="line2d_9">
      <path d="M 786.24 131.611034 
L 786.24 38.88 
" clip-path="url(#pda90d60bfa)" style="fill: none; stroke-dasharray: 1.85,0.8; stroke-dashoffset: 0; stroke: #b2b2b2; stroke-width: 0.5"/>
     </g>
     <g id="line2d_10">
      <g>
       <use xlink:href="#mb161756435" x="786.24" y="131.611034" style="stroke: #000000; stroke-width: 0.8"/>
      </g>
     </g>
    </g>
    <g id="xtick_6">
     <g id="line2d_11">
      <path d="M 947.52 131.611034 
L 947.52 38.88 
" clip-path="url(#pda90d60bfa)" style="fill: none; stroke-dasharray: 1.85,0.8; stroke-dashoffset: 0; stroke: #b2b2b2; stroke-width: 0.5"/>
     </g>
     <g id="line2d_12">
      <g>
       <use xlink:href="#mb161756435" x="947.52" y="131.611034" style="stroke: #000000; stroke-width: 0.8"/>
      </g>
     </g>
    </g>
   </g>
   <g id="matplotlib.axis_2">
    <g id="ytick_1">
     <g id="line2d_13">
      <path d="M 100.8 98.340394 
L 987.84 98.340394 
" clip-path="url(#pda90d60bfa)" style="fill: none; stroke-dasharray: 1.85,0.8; stroke-dashoffset: 0; stroke: #b2b2b2; stroke-width: 0.5"/>
     </g>
     <g id="line2d_14">
      <defs>
       <path id="mfe2ee7e591" d="M 0 0 
L 3.5 0 
" style="stroke: #000000; stroke-width: 0.8"/>
      </defs>
      <g>
       <use xlink:href="#mfe2ee7e591" x="100.8" y="98.340394" style="stroke: #000000; stroke-width: 0.8"/>
      </g>
     </g>
     <g id="text_1">
      <!-- −200 V -->
      <g transform="translate(44.819688 103.6593) scale(0.14 -0.14)">
       <defs>
        <path id="DejaVuSans-2212" d="M 678 2272 
L 4684 2272 
L 4684 1741 
L 678 1741 
L 678 2272 
z
" transform="scale(0.015625)"/>
        <path id="DejaVuSans-32" d="M 1228 531 
L 3431 531 
L 3431 0 
L 469 0 
L 469 531 
Q 828 903 1448 1529 
Q 2069 2156 2228 2338 
Q 2531 2678 2651 2914 
Q 2772 3150 2772 3378 
Q 2772 3750 2511 3984 
Q 2250 4219 1831 4219 
Q 1534 4219 1204 4116 
Q 875 4013 500 3803 
L 500 4441 
Q 881 4594 1212 4672 
Q 1544 4750 1819 4750 
Q 2544 4750 2975 4387 
Q 3406 4025 3406 3419 
Q 3406 3131 3298 2873 
Q 3191 2616 2906 2266 
Q 2828 2175 2409 1742 
Q 1991 1309 1228 531 
z
" transform="scale(0.015625)"/>
        <path id="DejaVuSans-30" d="M 2034 4250 
Q 1547 4250 1301 3770 
Q 1056 3291 1056 2328 
Q 1056 1369 1301 889 
Q 1547 409 2034 409 
Q 2525 409 2770 889 
Q 3016 1369 3016 2328 
Q 3016 3291 2770 3770 
Q 2525 4250 2034 4250 
z
M 2034 4750 
Q 2819 4750 3233 4129 
Q 3647 3509 3647 2328 
Q 3647 1150 3233 529 
Q 2819 -91 2034 -91 
Q 1250 -91 836 529 
Q 422 1150 422 2328 
Q 422 3509 836 4129 
Q 1250 4750 2034 4750 
z
" transform="scale(0.015625)"/>
        <path id="DejaVuSans-20" transform="scale(0.015625)"/>
        <path id="DejaVuSans-56" d="M 1831 0 
L 50 4666 
L 709 4666 
L 2188 738 
L 3669 4666 
L 4325 4666 
L 2547 0 
L 1831 0 
z
" transform="scale(0.015625)"/>
       </defs>
       <use xlink:href="#DejaVuSans-2212"/>
       <use xlink:href="#DejaVuSans-32" x="83.789062"/>
       <use xlink:href="#DejaVuSans-30" x="147.412109"/>
       <use xlink:href="#DejaVuSans-30" x="211.035156"/>
       <use xlink:href="#DejaVuSans-20" x="274.658203"/>
       <use xlink:href="#DejaVuSans-56" x="306.445312"/>
      </g>
     </g>
    </g>
    <g id="ytick_2">
     <g id="line2d_15">
      <path d="M 100.8 45.027377 
L 987.84 45.027377 
" clip-path="url(#pda90d60bfa)" style="fill: none; stroke-dasharray: 1.85,0.8; stroke-dashoffset: 0; stroke: #b2b2b2; stroke-width: 0.5"/>
     </g>
     <g id="line2d_16">
      <g>
       <use xlink:href="#mfe2ee7e591" x="100.8" y="45.027377" style="stroke: #000000; stroke-width: 0.8"/>
      </g>
     </g>
     <g id="text_2">
      <!-- 0 V -->
      <g transform="translate(74.36625 50.346284) scale(0.14 -0.14)">
       <use xlink:href="#DejaVuSans-30"/>
       <use xlink:href="#DejaVuSans-20" x="63.623047"/>
       <use xlink:href="#DejaVuSans-56" x="95.410156"/>
      </g>
     </g>
    </g>
    <g id="text_3">
     <g id="patch_3">
      <path d="M 34.8768 131.080205 
L 34.8768 39.41083 
L 11.247425 39.41083 
L 11.247425 131.080205 
z
" style="fill: #ffff00; opacity: 0.2; stroke: #eeeeee; stroke-width: 0.5; stroke-linejoin: miter"/>
     </g>
     <!-- VPULSE BBI -->
     <g transform="translate(26.925238 126.040205) rotate(-90) scale(0.14 -0.14)">
      <defs>
       <path id="DejaVuSans-50" d="M 1259 4147 
L 1259 2394 
L 2053 2394 
Q 2494 2394 2734 2622 
Q 2975 2850 2975 3272 
Q 2975 3691 2734 3919 
Q 2494 4147 2053 4147 
L 1259 4147 
z
M 628 4666 
L 2053 4666 
Q 2838 4666 3239 4311 
Q 3641 3956 3641 3272 
Q 3641 2581 3239 2228 
Q 2838 1875 2053 1875 
L 1259 1875 
L 1259 0 
L 628 0 
L 628 4666 
z
" transform="scale(0.015625)"/>
       <path id="DejaVuSans-55" d="M 556 4666 
L 1191 4666 
L 1191 1831 
Q 1191 1081 1462 751 
Q 1734 422 2344 422 
Q 2950 422 3222 751 
Q 3494 1081 3494 1831 
L 3494 4666 
L 4128 4666 
L 4128 1753 
Q 4128 841 3676 375 
Q 3225 -91 2344 -91 
Q 1459 -91 1007 375 
Q 556 841 556 1753 
L 556 4666 
z
" transform="scale(0.015625)"/>
       <path id="DejaVuSans-4c" d="M 628 4666 
L 1259 4666 
L 1259 531 
L 3531 531 
L 3531 0 
L 628 0 
L 628 4666 
z
" transform="scale(0.015625)"/>
       <path id="DejaVuSans-53" d="M 3425 4513 
L 3425 3897 
Q 3066 4069 2747 4153 
Q 2428 4238 2131 4238 
Q 1616 4238 1336 4038 
Q 1056 3838 1056 3469 
Q 1056 3159 1242 3001 
Q 1428 2844 1947 2747 
L 2328 2669 
Q 3034 2534 3370 2195 
Q 3706 1856 3706 1288 
Q 3706 609 3251 259 
Q 2797 -91 1919 -91 
Q 1588 -91 1214 -16 
Q 841 59 441 206 
L 441 856 
Q 825 641 1194 531 
Q 1563 422 1919 422 
Q 2459 422 2753 634 
Q 3047 847 3047 1241 
Q 3047 1584 2836 1778 
Q 2625 1972 2144 2069 
L 1759 2144 
Q 1053 2284 737 2584 
Q 422 2884 422 3419 
Q 422 4038 858 4394 
Q 1294 4750 2059 4750 
Q 2388 4750 2728 4690 
Q 3069 4631 3425 4513 
z
" transform="scale(0.015625)"/>
       <path id="DejaVuSans-45" d="M 628 4666 
L 3578 4666 
L 3578 4134 
L 1259 4134 
L 1259 2753 
L 3481 2753 
L 3481 2222 
L 1259 2222 
L 1259 531 
L 3634 531 
L 3634 0 
L 628 0 
L 628 4666 
z
" transform="scale(0.015625)"/>
       <path id="DejaVuSans-42" d="M 1259 2228 
L 1259 519 
L 2272 519 
Q 2781 519 3026 730 
Q 3272 941 3272 1375 
Q 3272 1813 3026 2020 
Q 2781 2228 2272 2228 
L 1259 2228 
z
M 1259 4147 
L 1259 2741 
L 2194 2741 
Q 2656 2741 2882 2914 
Q 3109 3088 3109 3444 
Q 3109 3797 2882 3972 
Q 2656 4147 2194 4147 
L 1259 4147 
z
M 628 4666 
L 2241 4666 
Q 2963 4666 3353 4366 
Q 3744 4066 3744 3513 
Q 3744 3084 3544 2831 
Q 3344 2578 2956 2516 
Q 3422 2416 3680 2098 
Q 3938 1781 3938 1306 
Q 3938 681 3513 340 
Q 3088 0 2303 0 
L 628 0 
L 628 4666 
z
" transform="scale(0.015625)"/>
       <path id="DejaVuSans-49" d="M 628 4666 
L 1259 4666 
L 1259 0 
L 628 0 
L 628 4666 
z
" transform="scale(0.015625)"/>
      </defs>
      <use xlink:href="#DejaVuSans-56"/>
      <use xlink:href="#DejaVuSans-50" x="68.408203"/>
      <use xlink:href="#DejaVuSans-55" x="128.710938"/>
      <use xlink:href="#DejaVuSans-4c" x="201.904297"/>
      <use xlink:href="#DejaVuSans-53" x="257.617188"/>
      <use xlink:href="#DejaVuSans-45" x="321.09375"/>
      <use xlink:href="#DejaVuSans-20" x="384.277344"/>
      <use xlink:href="#DejaVuSans-42" x="416.064453"/>
      <use xlink:href="#DejaVuSans-42" x="484.667969"/>
      <use xlink:href="#DejaVuSans-49" x="553.271484"/>
     </g>
    </g>
   </g>
   <g id="line2d_17">
    <path d="M 141.12 45.027377 
L 386.297856 45.136282 
L 386.781696 46.425538 
L 395.006976 69.006772 
L 402.425856 89.863624 
L 404.038656 94.440546 
L 405.844992 99.673219 
L 409.32864 110.807642 
L 410.909184 115.851054 
L 412.134912 119.550977 
L 416.037888 121.36362 
L 416.618496 121.619522 
L 417.489408 122.003376 
L 418.134528 122.269941 
L 419.715072 122.936354 
L 420.360192 123.202919 
L 421.456896 123.629423 
L 422.198784 123.922644 
L 423.295488 124.349149 
L 424.198656 124.677024 
L 424.876032 124.943589 
L 425.682432 125.25547 
L 427.037184 125.804594 
L 429.682176 126.790885 
L 430.29504 127.022796 
L 432.2304 127.395987 
L 450.713088 127.289361 
L 450.93888 126.801547 
L 469.228032 75.087922 
L 472.969728 63.292417 
L 476.679168 51.617666 
L 481.291776 49.3412 
L 486.646272 46.984578 
L 495.355392 43.484472 
L 496.226304 43.268927 
L 510.515712 43.108189 
L 517.321728 43.184799 
L 532.675584 43.746186 
L 560.448 44.46146 
L 586.09152 44.774399 
L 621.702144 44.945888 
L 669.731328 44.953885 
L 947.52 44.953885 
L 947.52 44.953885 
" clip-path="url(#pda90d60bfa)" style="fill: none; stroke: #ff0000; stroke-width: 2; stroke-linecap: square"/>
   </g>
   <g id="patch_4">
    <path d="M 100.8 131.611034 
L 100.8 38.88 
" style="fill: none; stroke: #bcbcbc; stroke-width: 0.8; stroke-linejoin: miter; stroke-linecap: square"/>
   </g>
   <g id="patch_5">
    <path d="M 987.84 131.611034 
L 987.84 38.88 
" style="fill: none; stroke: #bcbcbc; stroke-width: 0.8; stroke-linejoin: miter; stroke-linecap: square"/>
   </g>
   <g id="patch_6">
    <path d="M 100.8 131.611034 
L 987.84 131.611034 
" style="fill: none; stroke: #bcbcbc; stroke-width: 0.8; stroke-linejoin: miter; stroke-linecap: square"/>
   </g>
   <g id="patch_7">
    <path d="M 100.8 38.88 
L 987.84 38.88 
" style="fill: none; stroke: #bcbcbc; stroke-width: 0.8; stroke-linejoin: miter; stroke-linecap: square"/>
   </g>
  </g>
  <g id="axes_2">
   <g id="patch_8">
    <path d="M 100.8 242.888276 
L 987.84 242.888276 
L 987.84 150.157241 
L 100.8 150.157241 
z
" style="fill: #eeeeee"/>
   </g>
   <g id="matplotlib.axis_3">
    <g id="xtick_7">
     <g id="line2d_18">
      <path d="M 141.12 242.888276 
L 141.12 150.157241 
" clip-path="url(#p3c13b8e121)" style="fill: none; stroke-dasharray: 1.85,0.8; stroke-dashoffset: 0; stroke: #b2b2b2; stroke-width: 0.5"/>
     </g>
     <g id="line2d_19">
      <g>
       <use xlink:href="#mb161756435" x="141.12" y="242.888276" style="stroke: #000000; stroke-width: 0.8"/>
      </g>
     </g>
    </g>
    <g id="xtick_8">
     <g id="line2d_20">
      <path d="M 302.4 242.888276 
L 302.4 150.157241 
" clip-path="url(#p3c13b8e121)" style="fill: none; stroke-dasharray: 1.85,0.8; stroke-dashoffset: 0; stroke: #b2b2b2; stroke-width: 0.5"/>
     </g>
     <g id="line2d_21">
      <g>
       <use xlink:href="#mb161756435" x="302.4" y="242.888276" style="stroke: #000000; stroke-width: 0.8"/>
      </g>
     </g>
    </g>
    <g id="xtick_9">
     <g id="line2d_22">
      <path d="M 463.68 242.888276 
L 463.68 150.157241 
" clip-path="url(#p3c13b8e121)" style="fill: none; stroke-dasharray: 1.85,0.8; stroke-dashoffset: 0; stroke: #b2b2b2; stroke-width: 0.5"/>
     </g>
     <g id="line2d_23">
      <g>
       <use xlink:href="#mb161756435" x="463.68" y="242.888276" style="stroke: #000000; stroke-width: 0.8"/>
      </g>
     </g>
    </g>
    <g id="xtick_10">
     <g id="line2d_24">
      <path d="M 624.96 242.888276 
L 624.96 150.157241 
" clip-path="url(#p3c13b8e121)" style="fill: none; stroke-dasharray: 1.85,0.8; stroke-dashoffset: 0; stroke: #b2b2b2; stroke-width: 0.5"/>
     </g>
     <g id="line2d_25">
      <g>
       <use xlink:href="#mb161756435" x="624.96" y="242.888276" style="stroke: #000000; stroke-width: 0.8"/>
      </g>
     </g>
    </g>
    <g id="xtick_11">
     <g id="line2d_26">
      <path d="M 786.24 242.888276 
L 786.24 150.157241 
" clip-path="url(#p3c13b8e121)" style="fill: none; stroke-dasharray: 1.85,0.8; stroke-dashoffset: 0; stroke: #b2b2b2; stroke-width: 0.5"/>
     </g>
     <g id="line2d_27">
      <g>
       <use xlink:href="#mb161756435" x="786.24" y="242.888276" style="stroke: #000000; stroke-width: 0.8"/>
      </g>
     </g>
    </g>
    <g id="xtick_12">
     <g id="line2d_28">
      <path d="M 947.52 242.888276 
L 947.52 150.157241 
" clip-path="url(#p3c13b8e121)" style="fill: none; stroke-dasharray: 1.85,0.8; stroke-dashoffset: 0; stroke: #b2b2b2; stroke-width: 0.5"/>
     </g>
     <g id="line2d_29">
      <g>
       <use xlink:href="#mb161756435" x="947.52" y="242.888276" style="stroke: #000000; stroke-width: 0.8"/>
      </g>
     </g>
    </g>
   </g>
   <g id="matplotlib.axis_4">
    <g id="ytick_3">
     <g id="line2d_30">
      <path d="M 100.8 219.149661 
L 987.84 219.149661 
" clip-path="url(#p3c13b8e121)" style="fill: none; stroke-dasharray: 1.85,0.8; stroke-dashoffset: 0; stroke: #b2b2b2; stroke-width: 0.5"/>
     </g>
     <g id="line2d_31">
      <g>
       <use xlink:href="#mfe2ee7e591" x="100.8" y="219.149661" style="stroke: #000000; stroke-width: 0.8"/>
      </g>
     </g>
     <g id="text_4">
      <!-- 0 V -->
      <g transform="translate(74.36625 224.468568) scale(0.14 -0.14)">
       <use xlink:href="#DejaVuSans-30"/>
       <use xlink:href="#DejaVuSans-20" x="63.623047"/>
       <use xlink:href="#DejaVuSans-56" x="95.410156"/>
      </g>
     </g>
    </g>
    <g id="ytick_4">
     <g id="line2d_32">
      <path d="M 100.8 185.181453 
L 987.84 185.181453 
" clip-path="url(#p3c13b8e121)" style="fill: none; stroke-dasharray: 1.85,0.8; stroke-dashoffset: 0; stroke: #b2b2b2; stroke-width: 0.5"/>
     </g>
     <g id="line2d_33">
      <g>
       <use xlink:href="#mfe2ee7e591" x="100.8" y="185.181453" style="stroke: #000000; stroke-width: 0.8"/>
      </g>
     </g>
     <g id="text_5">
      <!-- 1 V -->
      <g transform="translate(74.36625 190.50036) scale(0.14 -0.14)">
       <defs>
        <path id="DejaVuSans-31" d="M 794 531 
L 1825 531 
L 1825 4091 
L 703 3866 
L 703 4441 
L 1819 4666 
L 2450 4666 
L 2450 531 
L 3481 531 
L 3481 0 
L 794 0 
L 794 531 
z
" transform="scale(0.015625)"/>
       </defs>
       <use xlink:href="#DejaVuSans-31"/>
       <use xlink:href="#DejaVuSans-20" x="63.623047"/>
       <use xlink:href="#DejaVuSans-56" x="95.410156"/>
      </g>
     </g>
    </g>
    <g id="ytick_5">
     <g id="line2d_34">
      <path d="M 100.8 151.213245 
L 987.84 151.213245 
" clip-path="url(#p3c13b8e121)" style="fill: none; stroke-dasharray: 1.85,0.8; stroke-dashoffset: 0; stroke: #b2b2b2; stroke-width: 0.5"/>
     </g>
     <g id="line2d_35">
      <g>
       <use xlink:href="#mfe2ee7e591" x="100.8" y="151.213245" style="stroke: #000000; stroke-width: 0.8"/>
      </g>
     </g>
     <g id="text_6">
      <!-- 2 V -->
      <g transform="translate(74.36625 156.532151) scale(0.14 -0.14)">
       <use xlink:href="#DejaVuSans-32"/>
       <use xlink:href="#DejaVuSans-20" x="63.623047"/>
       <use xlink:href="#DejaVuSans-56" x="95.410156"/>
      </g>
     </g>
    </g>
    <g id="text_7">
     <g id="patch_9">
      <path d="M 34.8768 224.531509 
L 34.8768 168.514009 
L 11.247425 168.514009 
L 11.247425 224.531509 
z
" style="fill: #ffff00; opacity: 0.2; stroke: #eeeeee; stroke-width: 0.5; stroke-linejoin: miter"/>
     </g>
     <!-- DFF IN -->
     <g transform="translate(26.925238 219.491509) rotate(-90) scale(0.14 -0.14)">
      <defs>
       <path id="DejaVuSans-44" d="M 1259 4147 
L 1259 519 
L 2022 519 
Q 2988 519 3436 956 
Q 3884 1394 3884 2338 
Q 3884 3275 3436 3711 
Q 2988 4147 2022 4147 
L 1259 4147 
z
M 628 4666 
L 1925 4666 
Q 3281 4666 3915 4102 
Q 4550 3538 4550 2338 
Q 4550 1131 3912 565 
Q 3275 0 1925 0 
L 628 0 
L 628 4666 
z
" transform="scale(0.015625)"/>
       <path id="DejaVuSans-46" d="M 628 4666 
L 3309 4666 
L 3309 4134 
L 1259 4134 
L 1259 2759 
L 3109 2759 
L 3109 2228 
L 1259 2228 
L 1259 0 
L 628 0 
L 628 4666 
z
" transform="scale(0.015625)"/>
       <path id="DejaVuSans-4e" d="M 628 4666 
L 1478 4666 
L 3547 763 
L 3547 4666 
L 4159 4666 
L 4159 0 
L 3309 0 
L 1241 3903 
L 1241 0 
L 628 0 
L 628 4666 
z
" transform="scale(0.015625)"/>
      </defs>
      <use xlink:href="#DejaVuSans-44"/>
      <use xlink:href="#DejaVuSans-46" x="77.001953"/>
      <use xlink:href="#DejaVuSans-46" x="134.521484"/>
      <use xlink:href="#DejaVuSans-20" x="192.041016"/>
      <use xlink:href="#DejaVuSans-49" x="223.828125"/>
      <use xlink:href="#DejaVuSans-4e" x="253.320312"/>
     </g>
    </g>
   </g>
   <g id="line2d_36">
    <path d="M 141.12 219.100054 
L 221.953536 219.053474 
L 224.437248 200.126786 
L 225.404928 194.369174 
L 228.243456 181.709902 
L 229.598208 180.439491 
L 231.178752 179.566508 
L 236.533248 179.111334 
L 243.5328 179.002636 
L 244.952064 178.961874 
L 248.145408 178.853176 
L 249.790464 178.788636 
L 251.887104 178.679938 
L 254.241792 178.333462 
L 254.757888 177.796765 
L 255.499776 177.457083 
L 256.338432 177.47067 
L 259.789824 178.085495 
L 262.467072 178.258732 
L 263.886336 178.306288 
L 264.144384 183.544186 
L 264.434688 187.10813 
L 265.176576 191.855866 
L 267.144192 209.185427 
L 268.402176 215.692038 
L 269.047296 216.974881 
L 270.46656 218.737152 
L 273.724416 219.151496 
L 282.530304 219.104093 
L 297.045504 219.093971 
L 305.851392 219.099239 
L 347.751936 219.055169 
L 350.235648 200.166868 
L 351.622656 191.53113 
L 352.654848 186.240922 
L 354.97728 179.247207 
L 358.493184 178.248542 
L 360.202752 178.319875 
L 362.976768 178.428573 
L 364.267008 178.459145 
L 365.654016 178.42178 
L 375.169536 178.523684 
L 375.62112 179.30835 
L 376.26624 180.422507 
L 376.91136 181.129046 
L 377.491968 181.203776 
L 378.008064 181.047522 
L 379.16928 180.313809 
L 380.45952 179.624254 
L 381.459456 179.318541 
L 383.20128 179.063779 
L 385.588224 178.921112 
L 386.362368 179.016223 
L 386.781696 179.773715 
L 387.749376 181.377014 
L 389.233152 183.224884 
L 390.652416 185.038787 
L 392.587776 187.661472 
L 395.45856 191.711841 
L 395.9424 193.174512 
L 397.135872 197.653221 
L 399.458304 207.310382 
L 400.13568 210.469765 
L 402.23232 218.181194 
L 403.877376 223.390592 
L 404.070912 223.576059 
L 404.361216 224.249648 
L 405.103104 225.96776 
L 405.264384 226.116881 
L 406.296576 228.367614 
L 407.07072 229.812622 
L 407.55456 230.828611 
L 408.425472 232.447536 
L 408.941568 233.364338 
L 409.102848 233.610607 
L 410.199552 235.638849 
L 410.425344 235.980569 
L 411.973632 238.498632 
L 412.199424 238.615143 
L 412.457472 238.418807 
L 413.005824 237.756427 
L 413.296128 237.314161 
L 413.84448 236.232273 
L 414.715392 235.374576 
L 415.102464 234.798475 
L 415.392768 234.276384 
L 415.908864 233.766181 
L 416.457216 233.477452 
L 416.812032 233.157132 
L 417.55392 232.279733 
L 417.844224 231.837806 
L 418.070016 231.654038 
L 418.102272 231.681213 
L 418.295808 231.608181 
L 418.489344 231.444115 
L 418.747392 231.275632 
L 419.231232 230.940706 
L 419.97312 230.291913 
L 420.844032 229.281359 
L 421.005312 229.240597 
L 423.19872 227.31426 
L 423.489024 226.850934 
L 423.940608 226.629121 
L 424.521216 226.421236 
L 426.069504 225.211628 
L 426.682368 224.510864 
L 426.972672 224.305016 
L 427.521024 224.089658 
L 428.68224 223.227205 
L 432.423936 219.937316 
L 434.520576 217.005486 
L 435.391488 215.751482 
L 438.488064 211.790789 
L 440.713728 209.110358 
L 441.552384 206.54304 
L 442.55232 203.721641 
L 443.584512 201.374777 
L 445.745664 198.255137 
L 446.455296 197.21605 
L 447.261696 196.217045 
L 448.003584 195.405544 
L 449.035776 194.115771 
L 449.938944 193.296798 
L 450.809856 192.26858 
L 451.26144 190.855163 
L 452.841984 185.426364 
L 453.712896 183.404916 
L 454.48704 182.086949 
L 455.196672 181.292093 
L 455.841792 180.830126 
L 456.712704 180.446285 
L 457.357824 179.909587 
L 461.196288 175.303498 
L 466.195968 167.609699 
L 468.324864 164.878655 
L 469.228032 163.771292 
L 472.485888 159.494694 
L 473.260032 158.519807 
L 475.098624 156.186191 
L 475.969536 155.112795 
L 476.614656 154.372288 
L 478.066176 154.718764 
L 481.840128 155.22489 
L 484.839936 155.968794 
L 496.065024 159.416567 
L 496.41984 158.720219 
L 496.839168 158.438283 
L 497.161728 158.513013 
L 497.613312 158.808536 
L 499.387392 160.517137 
L 500.677632 161.468247 
L 505.709568 163.995482 
L 509.096448 165.303258 
L 509.902848 165.581797 
L 511.515648 166.142273 
L 522.611712 169.535697 
L 523.289088 169.708934 
L 524.030976 169.90595 
L 527.3856 170.721187 
L 527.998464 170.860457 
L 529.224192 171.135599 
L 529.740288 171.244297 
L 536.41728 172.708327 
L 536.868864 173.428453 
L 537.449472 173.825881 
L 538.933248 173.873437 
L 540.513792 173.486199 
L 541.223424 173.455628 
L 541.965312 173.486199 
L 542.965248 173.584707 
L 547.319808 174.151976 
L 548.67456 174.325214 
L 549.674496 174.433912 
L 550.996992 174.600356 
L 551.996928 174.705658 
L 553.287168 174.865308 
L 554.254848 174.974007 
L 562.447872 175.728101 
L 563.802624 175.833402 
L 564.350976 175.894545 
L 567.318528 176.101751 
L 567.963648 176.135719 
L 568.802304 176.203656 
L 569.447424 176.241021 
L 572.092416 176.414259 
L 572.802048 176.448227 
L 573.608448 176.50937 
L 575.576064 176.618068 
L 576.672768 176.655433 
L 577.092096 176.149307 
L 577.608192 175.850386 
L 578.1888 175.775656 
L 578.801664 175.884355 
L 581.543424 176.635052 
L 587.70432 177.175147 
L 590.091264 177.280448 
L 590.478336 177.294035 
L 593.83296 177.402734 
L 595.252224 177.446892 
L 596.058624 177.47067 
L 600.574464 177.579368 
L 601.89696 177.60994 
L 606.73536 177.718638 
L 607.993344 177.745812 
L 608.864256 177.762797 
L 614.767104 177.871495 
L 615.831552 177.874892 
L 616.702464 177.891876 
L 617.05728 177.99378 
L 617.573376 178.57124 
L 618.121728 178.842986 
L 619.218432 178.965271 
L 620.024832 178.775049 
L 621.669888 178.370828 
L 624.508416 178.170415 
L 624.863232 178.173812 
L 634.830336 178.065114 
L 635.894784 178.061717 
L 657.345024 177.976796 
L 657.828864 177.443495 
L 658.538496 177.117401 
L 659.6352 177.10721 
L 663.602688 177.830733 
L 665.28 177.898669 
L 697.600512 178.007368 
L 697.761792 178.187399 
L 698.277888 178.707113 
L 698.66496 178.890541 
L 699.277824 179.029811 
L 701.632512 178.921112 
L 703.34208 178.632383 
L 704.664576 178.465938 
L 709.212672 178.095685 
L 737.952768 178.020955 
L 738.50112 177.40613 
L 739.049472 177.130988 
L 740.952576 177.232893 
L 742.275072 177.53521 
L 743.98464 177.783178 
L 746.371584 177.925844 
L 778.272768 178.020955 
L 779.208192 178.856573 
L 780.143616 179.036604 
L 782.240256 178.927906 
L 783.949824 178.639176 
L 785.304576 178.465938 
L 789.852672 178.095685 
L 818.592768 178.020955 
L 819.14112 177.40613 
L 819.689472 177.130988 
L 821.592576 177.232893 
L 822.915072 177.53521 
L 824.62464 177.783178 
L 827.011584 177.925844 
L 858.912768 178.020955 
L 859.848192 178.856573 
L 860.783616 179.036604 
L 862.880256 178.927906 
L 864.589824 178.639176 
L 865.944576 178.465938 
L 870.492672 178.095685 
L 899.232768 178.020955 
L 899.78112 177.40613 
L 900.329472 177.130988 
L 902.264832 177.239686 
L 905.522688 177.813749 
L 907.619328 177.925844 
L 939.552768 178.020955 
L 940.617216 178.887144 
L 941.55264 179.073969 
L 943.455744 178.965271 
L 944.810496 178.713906 
L 947.03616 178.35724 
L 947.52 178.28251 
L 947.52 178.28251 
" clip-path="url(#p3c13b8e121)" style="fill: none; stroke: #008000; stroke-width: 2; stroke-linecap: square"/>
   </g>
   <g id="patch_10">
    <path d="M 100.8 242.888276 
L 100.8 150.157241 
" style="fill: none; stroke: #bcbcbc; stroke-width: 0.8; stroke-linejoin: miter; stroke-linecap: square"/>
   </g>
   <g id="patch_11">
    <path d="M 987.84 242.888276 
L 987.84 150.157241 
" style="fill: none; stroke: #bcbcbc; stroke-width: 0.8; stroke-linejoin: miter; stroke-linecap: square"/>
   </g>
   <g id="patch_12">
    <path d="M 100.8 242.888276 
L 987.84 242.888276 
" style="fill: none; stroke: #bcbcbc; stroke-width: 0.8; stroke-linejoin: miter; stroke-linecap: square"/>
   </g>
   <g id="patch_13">
    <path d="M 100.8 150.157241 
L 987.84 150.157241 
" style="fill: none; stroke: #bcbcbc; stroke-width: 0.8; stroke-linejoin: miter; stroke-linecap: square"/>
   </g>
  </g>
  <g id="axes_3">
   <g id="patch_14">
    <path d="M 100.8 354.165517 
L 987.84 354.165517 
L 987.84 261.434483 
L 100.8 261.434483 
z
" style="fill: #eeeeee"/>
   </g>
   <g id="matplotlib.axis_5">
    <g id="xtick_13">
     <g id="line2d_37">
      <path d="M 141.12 354.165517 
L 141.12 261.434483 
" clip-path="url(#p9e15f5336a)" style="fill: none; stroke-dasharray: 1.85,0.8; stroke-dashoffset: 0; stroke: #b2b2b2; stroke-width: 0.5"/>
     </g>
     <g id="line2d_38">
      <g>
       <use xlink:href="#mb161756435" x="141.12" y="354.165517" style="stroke: #000000; stroke-width: 0.8"/>
      </g>
     </g>
    </g>
    <g id="xtick_14">
     <g id="line2d_39">
      <path d="M 302.4 354.165517 
L 302.4 261.434483 
" clip-path="url(#p9e15f5336a)" style="fill: none; stroke-dasharray: 1.85,0.8; stroke-dashoffset: 0; stroke: #b2b2b2; stroke-width: 0.5"/>
     </g>
     <g id="line2d_40">
      <g>
       <use xlink:href="#mb161756435" x="302.4" y="354.165517" style="stroke: #000000; stroke-width: 0.8"/>
      </g>
     </g>
    </g>
    <g id="xtick_15">
     <g id="line2d_41">
      <path d="M 463.68 354.165517 
L 463.68 261.434483 
" clip-path="url(#p9e15f5336a)" style="fill: none; stroke-dasharray: 1.85,0.8; stroke-dashoffset: 0; stroke: #b2b2b2; stroke-width: 0.5"/>
     </g>
     <g id="line2d_42">
      <g>
       <use xlink:href="#mb161756435" x="463.68" y="354.165517" style="stroke: #000000; stroke-width: 0.8"/>
      </g>
     </g>
    </g>
    <g id="xtick_16">
     <g id="line2d_43">
      <path d="M 624.96 354.165517 
L 624.96 261.434483 
" clip-path="url(#p9e15f5336a)" style="fill: none; stroke-dasharray: 1.85,0.8; stroke-dashoffset: 0; stroke: #b2b2b2; stroke-width: 0.5"/>
     </g>
     <g id="line2d_44">
      <g>
       <use xlink:href="#mb161756435" x="624.96" y="354.165517" style="stroke: #000000; stroke-width: 0.8"/>
      </g>
     </g>
    </g>
    <g id="xtick_17">
     <g id="line2d_45">
      <path d="M 786.24 354.165517 
L 786.24 261.434483 
" clip-path="url(#p9e15f5336a)" style="fill: none; stroke-dasharray: 1.85,0.8; stroke-dashoffset: 0; stroke: #b2b2b2; stroke-width: 0.5"/>
     </g>
     <g id="line2d_46">
      <g>
       <use xlink:href="#mb161756435" x="786.24" y="354.165517" style="stroke: #000000; stroke-width: 0.8"/>
      </g>
     </g>
    </g>
    <g id="xtick_18">
     <g id="line2d_47">
      <path d="M 947.52 354.165517 
L 947.52 261.434483 
" clip-path="url(#p9e15f5336a)" style="fill: none; stroke-dasharray: 1.85,0.8; stroke-dashoffset: 0; stroke: #b2b2b2; stroke-width: 0.5"/>
     </g>
     <g id="line2d_48">
      <g>
       <use xlink:href="#mb161756435" x="947.52" y="354.165517" style="stroke: #000000; stroke-width: 0.8"/>
      </g>
     </g>
    </g>
   </g>
   <g id="matplotlib.axis_6">
    <g id="ytick_6">
     <g id="line2d_49">
      <path d="M 100.8 343.979489 
L 987.84 343.979489 
" clip-path="url(#p9e15f5336a)" style="fill: none; stroke-dasharray: 1.85,0.8; stroke-dashoffset: 0; stroke: #b2b2b2; stroke-width: 0.5"/>
     </g>
     <g id="line2d_50">
      <g>
       <use xlink:href="#mfe2ee7e591" x="100.8" y="343.979489" style="stroke: #000000; stroke-width: 0.8"/>
      </g>
     </g>
     <g id="text_8">
      <!-- 0 V -->
      <g transform="translate(74.36625 349.298395) scale(0.14 -0.14)">
       <use xlink:href="#DejaVuSans-30"/>
       <use xlink:href="#DejaVuSans-20" x="63.623047"/>
       <use xlink:href="#DejaVuSans-56" x="95.410156"/>
      </g>
     </g>
    </g>
    <g id="ytick_7">
     <g id="line2d_51">
      <path d="M 100.8 299.529393 
L 987.84 299.529393 
" clip-path="url(#p9e15f5336a)" style="fill: none; stroke-dasharray: 1.85,0.8; stroke-dashoffset: 0; stroke: #b2b2b2; stroke-width: 0.5"/>
     </g>
     <g id="line2d_52">
      <g>
       <use xlink:href="#mfe2ee7e591" x="100.8" y="299.529393" style="stroke: #000000; stroke-width: 0.8"/>
      </g>
     </g>
     <g id="text_9">
      <!-- 1 V -->
      <g transform="translate(74.36625 304.848299) scale(0.14 -0.14)">
       <use xlink:href="#DejaVuSans-31"/>
       <use xlink:href="#DejaVuSans-20" x="63.623047"/>
       <use xlink:href="#DejaVuSans-56" x="95.410156"/>
      </g>
     </g>
    </g>
    <g id="text_10">
     <g id="patch_15">
      <path d="M 34.8768 342.395313 
L 34.8768 273.204688 
L 11.247425 273.204688 
L 11.247425 342.395313 
z
" style="fill: #ffff00; opacity: 0.2; stroke: #eeeeee; stroke-width: 0.5; stroke-linejoin: miter"/>
     </g>
     <!-- CLK BUF -->
     <g transform="translate(26.925238 337.355313) rotate(-90) scale(0.14 -0.14)">
      <defs>
       <path id="DejaVuSans-43" d="M 4122 4306 
L 4122 3641 
Q 3803 3938 3442 4084 
Q 3081 4231 2675 4231 
Q 1875 4231 1450 3742 
Q 1025 3253 1025 2328 
Q 1025 1406 1450 917 
Q 1875 428 2675 428 
Q 3081 428 3442 575 
Q 3803 722 4122 1019 
L 4122 359 
Q 3791 134 3420 21 
Q 3050 -91 2638 -91 
Q 1578 -91 968 557 
Q 359 1206 359 2328 
Q 359 3453 968 4101 
Q 1578 4750 2638 4750 
Q 3056 4750 3426 4639 
Q 3797 4528 4122 4306 
z
" transform="scale(0.015625)"/>
       <path id="DejaVuSans-4b" d="M 628 4666 
L 1259 4666 
L 1259 2694 
L 3353 4666 
L 4166 4666 
L 1850 2491 
L 4331 0 
L 3500 0 
L 1259 2247 
L 1259 0 
L 628 0 
L 628 4666 
z
" transform="scale(0.015625)"/>
      </defs>
      <use xlink:href="#DejaVuSans-43"/>
      <use xlink:href="#DejaVuSans-4c" x="69.824219"/>
      <use xlink:href="#DejaVuSans-4b" x="125.537109"/>
      <use xlink:href="#DejaVuSans-20" x="191.113281"/>
      <use xlink:href="#DejaVuSans-42" x="222.900391"/>
      <use xlink:href="#DejaVuSans-55" x="291.503906"/>
      <use xlink:href="#DejaVuSans-46" x="364.697266"/>
     </g>
    </g>
   </g>
   <g id="line2d_53">
    <path d="M 141.12 343.978314 
L 173.376 343.978314 
L 173.601792 290.639374 
L 213.696 290.639374 
L 213.760512 333.186561 
L 213.825024 343.959182 
L 213.889536 343.895216 
L 213.954048 344.07279 
L 214.01856 343.984306 
L 215.3088 343.975423 
L 223.179264 343.978298 
L 254.016 343.978283 
L 254.17728 290.474908 
L 254.241792 290.759389 
L 254.403072 290.630484 
L 254.8224 290.639374 
L 294.336 290.639374 
L 294.400512 333.149223 
L 294.465024 344.31118 
L 294.529536 343.538357 
L 294.626304 344.049342 
L 294.65856 344.017712 
L 294.852096 343.939584 
L 295.206912 343.995664 
L 295.497216 343.977967 
L 319.882752 343.978313 
L 334.656 343.978316 
L 334.81728 290.559364 
L 334.881792 290.657154 
L 335.204352 290.643819 
L 336.043008 290.639374 
L 374.976 290.639374 
L 375.040512 333.190562 
L 375.105024 343.980212 
L 375.169536 343.88958 
L 375.234048 344.06618 
L 375.29856 343.984453 
L 376.685568 343.97316 
L 383.652864 343.978317 
L 386.330112 344.061904 
L 387.007488 344.732207 
L 387.781632 345.151771 
L 388.813824 345.417227 
L 390.071808 345.530264 
L 392.684544 345.520218 
L 404.619264 345.296323 
L 405.748224 345.69224 
L 410.167296 348.427165 
L 410.360832 348.57874 
L 410.522112 348.67253 
L 412.134912 349.588202 
L 412.812288 349.217933 
L 412.941312 349.165926 
L 413.102592 349.087694 
L 415.296 348.242386 
L 415.328256 349.95047 
L 415.489536 325.036636 
L 415.61856 324.660144 
L 415.650816 324.712595 
L 415.77984 324.633918 
L 416.521728 324.368996 
L 420.682752 322.834134 
L 420.811776 322.719008 
L 420.876288 322.790573 
L 420.908544 322.716341 
L 421.166592 322.656778 
L 422.908416 322.046478 
L 423.03744 321.913128 
L 423.069696 321.97358 
L 423.134208 321.870011 
L 423.263232 321.899348 
L 426.295296 320.852548 
L 426.42432 320.697862 
L 426.488832 320.807654 
L 426.553344 320.727644 
L 426.682368 320.702307 
L 429.778944 319.586165 
L 429.907968 319.55505 
L 432.488448 318.368677 
L 434.714112 316.954275 
L 443.455488 311.304668 
L 446.939136 309.367977 
L 450.648576 307.500184 
L 450.842112 307.302826 
L 452.22912 304.614039 
L 454.293504 299.975672 
L 455.616 296.955732 
L 455.648256 296.160076 
L 455.77728 341.900291 
L 456.003072 342.028841 
L 457.55136 342.083381 
L 470.77632 342.519748 
L 472.87296 342.495611 
L 476.614656 342.672389 
L 477.292032 343.375901 
L 478.03392 343.816641 
L 478.969344 344.112795 
L 480.324096 344.296654 
L 482.743296 344.378726 
L 493.903872 344.324582 
L 495.936 344.323479 
L 495.968256 334.560514 
L 496.065024 265.64953 
L 496.09728 266.085141 
L 496.290816 266.205156 
L 497.032704 266.627432 
L 497.774592 267.098603 
L 498.548736 267.538659 
L 500.742144 268.863272 
L 501.193728 269.147752 
L 502.000128 269.601143 
L 508.128768 272.85489 
L 509.870592 273.694997 
L 511.225344 274.317298 
L 523.482624 279.264594 
L 523.772928 279.366829 
L 525.321216 279.886896 
L 525.708288 279.989131 
L 527.256576 280.509197 
L 527.643648 280.606987 
L 528.159744 280.775897 
L 528.51456 280.873688 
L 528.966144 280.998148 
L 536.256 282.953952 
L 536.288256 292.675188 
L 536.41728 344.199419 
L 536.675328 344.183639 
L 568.931328 344.053894 
L 573.253632 344.044253 
L 576.576 344.038701 
L 576.769536 288.496879 
L 577.350144 288.550219 
L 579.124224 288.652454 
L 579.47904 288.683569 
L 581.349888 288.785805 
L 581.704704 288.81692 
L 583.67232 288.919155 
L 584.027136 288.95027 
L 586.285056 289.052505 
L 586.639872 289.08362 
L 588.99456 289.185856 
L 589.349376 289.216971 
L 592.091136 289.319206 
L 592.445952 289.350321 
L 595.478016 289.452556 
L 595.832832 289.483671 
L 599.251968 289.585906 
L 599.606784 289.617022 
L 603.50976 289.719257 
L 603.864576 289.750372 
L 608.444928 289.852607 
L 608.799744 289.883722 
L 614.347776 289.985957 
L 614.702592 290.017072 
L 616.896 290.061522 
L 616.928256 294.346512 
L 616.992768 344.107696 
L 617.05728 343.836008 
L 617.154048 344.138007 
L 617.21856 344.002017 
L 617.992704 343.99419 
L 657.216 343.991051 
L 657.37728 290.105973 
L 657.441792 290.212653 
L 658.377216 290.194873 
L 697.536 290.194873 
L 697.665024 344.31915 
L 697.826304 344.060437 
L 698.084352 343.961343 
L 698.439168 344.009731 
L 698.761728 343.990811 
L 735.501312 343.99104 
L 737.856 343.991041 
L 738.01728 289.963732 
L 738.081792 290.466018 
L 738.17856 290.008182 
L 738.243072 290.177093 
L 738.694656 290.194873 
L 778.176 290.194873 
L 778.305024 344.31899 
L 778.466304 344.060477 
L 778.724352 343.961334 
L 779.079168 344.009718 
L 779.401728 343.99081 
L 816.141312 343.99104 
L 818.496 343.991041 
L 818.65728 289.963732 
L 818.721792 290.466018 
L 818.81856 290.008182 
L 818.883072 290.177093 
L 819.334656 290.194873 
L 858.816 290.194873 
L 858.945024 344.319092 
L 859.106304 344.060392 
L 859.364352 343.961363 
L 859.719168 344.00972 
L 860.041728 343.990811 
L 896.781312 343.991041 
L 899.136 343.991043 
L 899.29728 289.963732 
L 899.361792 290.466018 
L 899.45856 290.008182 
L 899.523072 290.177093 
L 899.974656 290.194873 
L 939.456 290.194873 
L 939.488256 298.209225 
L 939.61728 343.938178 
L 939.649536 344.067433 
L 939.714048 343.943767 
L 939.746304 343.904764 
L 939.810816 343.962133 
L 940.004352 344.017644 
L 940.197888 343.990307 
L 945.455616 343.991049 
L 947.52 343.991033 
L 947.52 343.991033 
" clip-path="url(#p9e15f5336a)" style="fill: none; stroke: #0000ff; stroke-width: 2; stroke-linecap: square"/>
   </g>
   <g id="patch_16">
    <path d="M 100.8 354.165517 
L 100.8 261.434483 
" style="fill: none; stroke: #bcbcbc; stroke-width: 0.8; stroke-linejoin: miter; stroke-linecap: square"/>
   </g>
   <g id="patch_17">
    <path d="M 987.84 354.165517 
L 987.84 261.434483 
" style="fill: none; stroke: #bcbcbc; stroke-width: 0.8; stroke-linejoin: miter; stroke-linecap: square"/>
   </g>
   <g id="patch_18">
    <path d="M 100.8 354.165517 
L 987.84 354.165517 
" style="fill: none; stroke: #bcbcbc; stroke-width: 0.8; stroke-linejoin: miter; stroke-linecap: square"/>
   </g>
   <g id="patch_19">
    <path d="M 100.8 261.434483 
L 987.84 261.434483 
" style="fill: none; stroke: #bcbcbc; stroke-width: 0.8; stroke-linejoin: miter; stroke-linecap: square"/>
   </g>
  </g>
  <g id="axes_4">
   <g id="patch_20">
    <path d="M 100.8 465.442759 
L 987.84 465.442759 
L 987.84 372.711724 
L 100.8 372.711724 
z
" style="fill: #eeeeee"/>
   </g>
   <g id="matplotlib.axis_7">
    <g id="xtick_19">
     <g id="line2d_54">
      <path d="M 141.12 465.442759 
L 141.12 372.711724 
" clip-path="url(#p9923f5c684)" style="fill: none; stroke-dasharray: 1.85,0.8; stroke-dashoffset: 0; stroke: #b2b2b2; stroke-width: 0.5"/>
     </g>
     <g id="line2d_55">
      <g>
       <use xlink:href="#mb161756435" x="141.12" y="465.442759" style="stroke: #000000; stroke-width: 0.8"/>
      </g>
     </g>
    </g>
    <g id="xtick_20">
     <g id="line2d_56">
      <path d="M 302.4 465.442759 
L 302.4 372.711724 
" clip-path="url(#p9923f5c684)" style="fill: none; stroke-dasharray: 1.85,0.8; stroke-dashoffset: 0; stroke: #b2b2b2; stroke-width: 0.5"/>
     </g>
     <g id="line2d_57">
      <g>
       <use xlink:href="#mb161756435" x="302.4" y="465.442759" style="stroke: #000000; stroke-width: 0.8"/>
      </g>
     </g>
    </g>
    <g id="xtick_21">
     <g id="line2d_58">
      <path d="M 463.68 465.442759 
L 463.68 372.711724 
" clip-path="url(#p9923f5c684)" style="fill: none; stroke-dasharray: 1.85,0.8; stroke-dashoffset: 0; stroke: #b2b2b2; stroke-width: 0.5"/>
     </g>
     <g id="line2d_59">
      <g>
       <use xlink:href="#mb161756435" x="463.68" y="465.442759" style="stroke: #000000; stroke-width: 0.8"/>
      </g>
     </g>
    </g>
    <g id="xtick_22">
     <g id="line2d_60">
      <path d="M 624.96 465.442759 
L 624.96 372.711724 
" clip-path="url(#p9923f5c684)" style="fill: none; stroke-dasharray: 1.85,0.8; stroke-dashoffset: 0; stroke: #b2b2b2; stroke-width: 0.5"/>
     </g>
     <g id="line2d_61">
      <g>
       <use xlink:href="#mb161756435" x="624.96" y="465.442759" style="stroke: #000000; stroke-width: 0.8"/>
      </g>
     </g>
    </g>
    <g id="xtick_23">
     <g id="line2d_62">
      <path d="M 786.24 465.442759 
L 786.24 372.711724 
" clip-path="url(#p9923f5c684)" style="fill: none; stroke-dasharray: 1.85,0.8; stroke-dashoffset: 0; stroke: #b2b2b2; stroke-width: 0.5"/>
     </g>
     <g id="line2d_63">
      <g>
       <use xlink:href="#mb161756435" x="786.24" y="465.442759" style="stroke: #000000; stroke-width: 0.8"/>
      </g>
     </g>
    </g>
    <g id="xtick_24">
     <g id="line2d_64">
      <path d="M 947.52 465.442759 
L 947.52 372.711724 
" clip-path="url(#p9923f5c684)" style="fill: none; stroke-dasharray: 1.85,0.8; stroke-dashoffset: 0; stroke: #b2b2b2; stroke-width: 0.5"/>
     </g>
     <g id="line2d_65">
      <g>
       <use xlink:href="#mb161756435" x="947.52" y="465.442759" style="stroke: #000000; stroke-width: 0.8"/>
      </g>
     </g>
    </g>
   </g>
   <g id="matplotlib.axis_8">
    <g id="ytick_8">
     <g id="line2d_66">
      <path d="M 100.8 440.379484 
L 987.84 440.379484 
" clip-path="url(#p9923f5c684)" style="fill: none; stroke-dasharray: 1.85,0.8; stroke-dashoffset: 0; stroke: #b2b2b2; stroke-width: 0.5"/>
     </g>
     <g id="line2d_67">
      <g>
       <use xlink:href="#mfe2ee7e591" x="100.8" y="440.379484" style="stroke: #000000; stroke-width: 0.8"/>
      </g>
     </g>
     <g id="text_11">
      <!-- 0 V -->
      <g transform="translate(74.36625 445.69839) scale(0.14 -0.14)">
       <use xlink:href="#DejaVuSans-30"/>
       <use xlink:href="#DejaVuSans-20" x="63.623047"/>
       <use xlink:href="#DejaVuSans-56" x="95.410156"/>
      </g>
     </g>
    </g>
    <g id="ytick_9">
     <g id="line2d_68">
      <path d="M 100.8 403.897731 
L 987.84 403.897731 
" clip-path="url(#p9923f5c684)" style="fill: none; stroke-dasharray: 1.85,0.8; stroke-dashoffset: 0; stroke: #b2b2b2; stroke-width: 0.5"/>
     </g>
     <g id="line2d_69">
      <g>
       <use xlink:href="#mfe2ee7e591" x="100.8" y="403.897731" style="stroke: #000000; stroke-width: 0.8"/>
      </g>
     </g>
     <g id="text_12">
      <!-- 1 V -->
      <g transform="translate(74.36625 409.216637) scale(0.14 -0.14)">
       <use xlink:href="#DejaVuSans-31"/>
       <use xlink:href="#DejaVuSans-20" x="63.623047"/>
       <use xlink:href="#DejaVuSans-56" x="95.410156"/>
      </g>
     </g>
    </g>
    <g id="text_13">
     <g id="patch_21">
      <path d="M 34.8768 454.693023 
L 34.8768 383.46146 
L 11.247425 383.46146 
L 11.247425 454.693023 
z
" style="fill: #ffff00; opacity: 0.2; stroke: #eeeeee; stroke-width: 0.5; stroke-linejoin: miter"/>
     </g>
     <!-- DFF OUT -->
     <g transform="translate(26.925238 449.653023) rotate(-90) scale(0.14 -0.14)">
      <defs>
       <path id="DejaVuSans-4f" d="M 2522 4238 
Q 1834 4238 1429 3725 
Q 1025 3213 1025 2328 
Q 1025 1447 1429 934 
Q 1834 422 2522 422 
Q 3209 422 3611 934 
Q 4013 1447 4013 2328 
Q 4013 3213 3611 3725 
Q 3209 4238 2522 4238 
z
M 2522 4750 
Q 3503 4750 4090 4092 
Q 4678 3434 4678 2328 
Q 4678 1225 4090 567 
Q 3503 -91 2522 -91 
Q 1538 -91 948 565 
Q 359 1222 359 2328 
Q 359 3434 948 4092 
Q 1538 4750 2522 4750 
z
" transform="scale(0.015625)"/>
       <path id="DejaVuSans-54" d="M -19 4666 
L 3928 4666 
L 3928 4134 
L 2272 4134 
L 2272 0 
L 1638 0 
L 1638 4134 
L -19 4134 
L -19 4666 
z
" transform="scale(0.015625)"/>
      </defs>
      <use xlink:href="#DejaVuSans-44"/>
      <use xlink:href="#DejaVuSans-46" x="77.001953"/>
      <use xlink:href="#DejaVuSans-46" x="134.521484"/>
      <use xlink:href="#DejaVuSans-20" x="192.041016"/>
      <use xlink:href="#DejaVuSans-4f" x="223.828125"/>
      <use xlink:href="#DejaVuSans-55" x="302.539062"/>
      <use xlink:href="#DejaVuSans-54" x="375.732422"/>
     </g>
    </g>
   </g>
   <g id="line2d_70">
    <path d="M 141.12 412.852907 
L 173.408256 412.897415 
L 173.440512 414.407759 
L 173.601792 440.381711 
L 174.1824 440.378121 
L 185.278464 440.37851 
L 254.048256 440.38004 
L 254.080512 440.525878 
L 254.112768 440.284643 
L 254.306304 436.722918 
L 254.596608 436.00897 
L 254.693376 435.499685 
L 255.14496 429.108082 
L 255.370752 414.085626 
L 255.596544 396.955254 
L 255.757824 396.656103 
L 255.983616 396.597732 
L 256.983552 396.601381 
L 295.755264 396.674344 
L 296.239104 399.034713 
L 296.59392 398.443709 
L 297.980928 396.893235 
L 299.65824 396.626918 
L 334.688256 396.615973 
L 334.720512 396.510176 
L 334.752768 397.046458 
L 334.785024 399.698681 
L 334.914048 440.36453 
L 334.97856 440.332423 
L 335.13984 440.371838 
L 335.559168 440.378744 
L 369.65376 440.378479 
L 386.362368 440.479065 
L 387.039744 441.016237 
L 387.8784 441.371387 
L 389.00736 441.582944 
L 390.813696 441.664262 
L 395.103744 441.567841 
L 396.845568 441.365148 
L 397.426176 441.121705 
L 397.748736 440.823175 
L 398.03904 440.204525 
L 398.264832 439.139944 
L 398.458368 436.895258 
L 399.038976 427.950516 
L 399.135744 427.944679 
L 399.49056 428.67176 
L 400.555008 432.724883 
L 401.296896 435.682823 
L 401.683968 437.204441 
L 401.716224 436.751264 
L 401.780736 436.924334 
L 401.942016 438.184414 
L 402.361344 439.682391 
L 402.3936 439.263106 
L 402.425856 439.497465 
L 402.587136 440.599476 
L 403.03872 442.099161 
L 403.070976 441.85995 
L 403.135488 442.083912 
L 403.780608 444.56613 
L 403.812864 444.342497 
L 403.84512 444.721178 
L 403.877376 444.43662 
L 404.135424 445.338084 
L 404.16768 445.519763 
L 404.199936 445.235206 
L 404.264448 445.34538 
L 404.425728 445.810888 
L 404.587008 446.502217 
L 405.038592 447.360268 
L 405.070848 447.266874 
L 405.13536 447.34604 
L 405.232128 447.463511 
L 405.393408 447.943976 
L 405.425664 447.806804 
L 405.45792 448.091362 
L 405.522432 447.986659 
L 405.715968 448.634575 
L 405.748224 448.639683 
L 405.812736 448.861857 
L 405.877248 448.822456 
L 405.94176 448.982976 
L 406.167552 449.711881 
L 406.651392 450.800497 
L 406.683648 450.67354 
L 406.715904 450.938763 
L 406.74816 450.711481 
L 406.90944 451.368153 
L 407.361024 452.338568 
L 407.812608 453.265934 
L 408.0384 453.721591 
L 408.070656 453.528967 
L 408.102912 453.85402 
L 408.135168 453.6738 
L 410.360832 458.184039 
L 410.393088 458.146828 
L 410.425344 458.260286 
L 410.4576 458.218697 
L 412.005888 461.158761 
L 412.0704 461.227712 
L 412.102656 461.129211 
L 412.425216 460.860705 
L 413.328384 459.363859 
L 413.489664 458.976423 
L 413.52192 459.065438 
L 413.554176 458.886678 
L 413.812224 458.473704 
L 414.038016 458.126398 
L 414.102528 458.176013 
L 414.263808 457.879051 
L 414.360576 457.816303 
L 414.715392 457.177507 
L 414.779904 457.267617 
L 416.199168 455.554434 
L 416.553984 455.231571 
L 416.74752 455.028732 
L 416.9088 454.871861 
L 417.07008 454.518717 
L 417.102336 454.627433 
L 417.134592 454.434809 
L 417.23136 454.344334 
L 417.295872 454.44393 
L 417.424896 454.157548 
L 417.489408 454.193665 
L 417.618432 453.900716 
L 417.650688 453.972221 
L 417.682944 453.845994 
L 417.811968 453.732535 
L 418.03776 453.508902 
L 418.070016 453.69277 
L 418.102272 453.46257 
L 418.134528 453.596094 
L 418.586112 453.106144 
L 418.779648 453.018952 
L 418.973184 452.858433 
L 419.231232 452.568768 
L 419.263488 452.546149 
L 419.424768 452.155064 
L 419.747328 451.805569 
L 419.779584 451.928513 
L 419.81184 451.777113 
L 419.876352 451.672411 
L 419.908608 451.922676 
L 419.940864 451.637388 
L 420.005376 451.809217 
L 420.1344 451.393325 
L 420.166656 451.386029 
L 420.198912 451.646509 
L 420.263424 451.284245 
L 420.29568 451.542171 
L 420.424704 451.237913 
L 420.489216 451.318538 
L 420.553728 451.243385 
L 420.747264 450.880392 
L 420.77952 450.986919 
L 420.811776 450.811077 
L 420.844032 450.808158 
L 420.876288 451.011726 
L 420.9408 450.76438 
L 421.037568 450.838073 
L 421.069824 450.805969 
L 421.198848 450.60459 
L 421.58592 450.347394 
L 422.682624 449.011797 
L 422.71488 449.196394 
L 422.747136 448.858938 
L 422.779392 449.117958 
L 423.36 448.399998 
L 423.876096 448.104495 
L 424.392192 447.820303 
L 424.940544 447.246809 
L 425.037312 446.932701 
L 425.069568 446.985965 
L 425.682432 446.239183 
L 425.714688 446.608744 
L 425.7792 446.166949 
L 425.811456 446.463911 
L 425.843712 446.093621 
L 425.94048 446.201972 
L 425.972736 446.392772 
L 426.004992 445.983081 
L 426.037248 445.939668 
L 426.134016 445.862692 
L 426.166272 446.233711 
L 426.327552 445.734276 
L 426.359808 445.749963 
L 426.392064 446.066989 
L 426.42432 445.689403 
L 426.488832 445.970678 
L 426.617856 445.60659 
L 427.133952 445.442422 
L 428.230656 444.523811 
L 428.391936 443.976913 
L 428.424192 444.349064 
L 428.488704 443.861668 
L 428.585472 443.778963 
L 428.617728 444.125066 
L 428.68224 443.691845 
L 428.746752 443.61848 
L 428.811264 444.039698 
L 428.940288 443.441908 
L 428.972544 443.425747 
L 429.0048 443.768712 
L 429.069312 443.36672 
L 429.101568 443.723329 
L 429.230592 443.172345 
L 429.295104 443.624901 
L 429.32736 443.218129 
L 429.456384 443.095441 
L 429.48864 443.454677 
L 429.553152 443.250635 
L 429.64992 443.008578 
L 429.682176 443.295617 
L 429.746688 442.972279 
L 429.8112 442.934119 
L 429.875712 443.055932 
L 430.004736 442.948858 
L 430.13376 442.90621 
L 431.198208 441.980887 
L 431.58528 441.557407 
L 431.778816 440.867574 
L 431.843328 440.728144 
L 431.875584 441.009524 
L 431.90784 440.561703 
L 431.940096 440.60523 
L 432.101376 440.428355 
L 432.133632 440.727604 
L 432.198144 440.391994 
L 432.262656 440.390916 
L 432.294912 440.468981 
L 432.359424 440.411128 
L 433.165824 439.116267 
L 433.262592 438.458683 
L 433.294848 438.558242 
L 433.35936 438.755426 
L 433.52064 438.189156 
L 433.552896 438.288022 
L 433.585152 438.151106 
L 433.617408 438.179598 
L 434.681856 436.560574 
L 434.746368 435.784607 
L 434.778624 436.142129 
L 434.81088 436.337306 
L 434.875392 435.571554 
L 434.907648 436.169855 
L 435.068928 435.485092 
L 435.165696 435.537261 
L 435.262464 435.494213 
L 438.19776 430.73079 
L 438.778368 429.87128 
L 438.907392 429.378776 
L 438.939648 429.50245 
L 438.971904 429.297057 
L 439.00416 429.260576 
L 439.036416 429.369656 
L 439.068672 429.424379 
L 439.100928 429.262764 
L 439.133184 429.291585 
L 439.262208 429.039861 
L 439.391232 428.973829 
L 440.165376 427.657932 
L 440.326656 426.883424 
L 440.391168 426.763035 
L 440.423424 426.971346 
L 440.487936 426.686788 
L 441.26208 424.856498 
L 441.58464 424.164804 
L 442.036224 423.431156 
L 442.06848 422.724505 
L 442.165248 423.027303 
L 442.197504 422.786159 
L 442.294272 422.889037 
L 442.455552 422.667958 
L 442.907136 421.882506 
L 443.68128 420.424695 
L 443.745792 420.199967 
L 443.810304 420.267094 
L 443.939328 420.293361 
L 444.068352 420.156189 
L 445.906944 417.556864 
L 446.229504 417.296385 
L 446.26176 417.410937 
L 446.390784 418.358368 
L 446.552064 423.686164 
L 446.842368 439.865201 
L 447.455232 439.915765 
L 450.7776 439.981395 
L 451.067904 439.714933 
L 451.713024 439.290358 
L 452.616192 438.976542 
L 453.777408 438.812848 
L 455.712768 438.729889 
L 455.874048 438.78348 
L 457.583616 438.822406 
L 468.35712 439.189231 
L 471.195648 439.16953 
L 473.969664 439.19204 
L 476.646912 439.351684 
L 477.324288 439.916932 
L 478.162944 440.303073 
L 479.356416 440.56024 
L 481.195008 440.690502 
L 485.77536 440.718553 
L 495.968256 440.66429 
L 496.000512 440.917554 
L 496.323072 429.994224 
L 496.484352 427.952705 
L 496.645632 421.696449 
L 496.806912 404.540175 
L 497.097216 376.952308 
L 497.22624 376.981494 
L 499.80672 378.265651 
L 500.258304 378.48819 
L 509.580288 382.585091 
L 512.773632 383.785341 
L 513.902592 384.175695 
L 522.256896 386.900882 
L 522.676224 387.010328 
L 524.934144 387.666999 
L 525.385728 387.776445 
L 526.90176 388.177744 
L 527.321088 388.287189 
L 528.611328 388.615525 
L 529.062912 388.721322 
L 530.256384 389.016824 
L 530.804736 389.126269 
L 531.90144 389.381642 
L 532.449792 389.491087 
L 536.288256 390.300982 
L 536.320512 390.195185 
L 536.385024 390.363001 
L 536.57856 390.352056 
L 537.288192 390.476094 
L 540.191232 391.023321 
L 540.868608 391.132766 
L 542.803968 391.461102 
L 543.578112 391.570547 
L 545.190912 391.825919 
L 545.900544 391.935364 
L 547.190784 392.117773 
L 548.02944 392.227218 
L 549.31968 392.409627 
L 550.158336 392.519072 
L 551.287296 392.664999 
L 552.287232 392.774445 
L 553.416192 392.920372 
L 554.416128 393.029817 
L 555.383808 393.139262 
L 556.448256 393.248707 
L 557.415936 393.358153 
L 558.577152 393.467598 
L 559.544832 393.577043 
L 560.899584 393.686488 
L 561.867264 393.795934 
L 563.318784 393.905379 
L 564.125184 393.978343 
L 565.544448 394.087788 
L 566.350848 394.160751 
L 567.963648 394.270197 
L 568.770048 394.34316 
L 570.576384 394.452605 
L 571.382784 394.525569 
L 573.382656 394.635014 
L 574.189056 394.707978 
L 576.479232 394.817423 
L 576.608256 394.850256 
L 576.640512 395.039962 
L 576.705024 394.846608 
L 578.479104 394.945109 
L 578.769408 394.96335 
L 581.317632 395.072795 
L 581.962752 395.105629 
L 583.930368 395.215074 
L 585.252864 395.255204 
L 588.091392 395.361001 
L 588.542976 395.397483 
L 591.284736 395.506928 
L 592.607232 395.547058 
L 596.606976 395.652855 
L 597.05856 395.692985 
L 601.929216 395.798782 
L 602.3808 395.835264 
L 606.767616 395.941061 
L 607.283712 395.948357 
L 614.31552 396.054154 
L 614.767104 396.094284 
L 624.47616 396.200081 
L 624.927744 396.236563 
L 657.248256 396.251156 
L 657.280512 396.375194 
L 657.345024 396.207378 
L 657.635328 396.229267 
L 737.888256 396.232915 
L 737.920512 396.418972 
L 737.985024 396.232915 
L 738.17856 396.214674 
L 739.339776 396.236563 
L 818.528256 396.232915 
L 818.560512 396.418972 
L 818.625024 396.232915 
L 818.81856 396.214674 
L 819.979776 396.236563 
L 899.168256 396.232915 
L 899.200512 396.418972 
L 899.265024 396.232915 
L 899.45856 396.214674 
L 900.619776 396.236563 
L 947.52 396.236563 
L 947.52 396.236563 
" clip-path="url(#p9923f5c684)" style="fill: none; stroke: #ff00ff; stroke-width: 2; stroke-linecap: square"/>
   </g>
   <g id="patch_22">
    <path d="M 100.8 465.442759 
L 100.8 372.711724 
" style="fill: none; stroke: #bcbcbc; stroke-width: 0.8; stroke-linejoin: miter; stroke-linecap: square"/>
   </g>
   <g id="patch_23">
    <path d="M 987.84 465.442759 
L 987.84 372.711724 
" style="fill: none; stroke: #bcbcbc; stroke-width: 0.8; stroke-linejoin: miter; stroke-linecap: square"/>
   </g>
   <g id="patch_24">
    <path d="M 100.8 465.442759 
L 987.84 465.442759 
" style="fill: none; stroke: #bcbcbc; stroke-width: 0.8; stroke-linejoin: miter; stroke-linecap: square"/>
   </g>
   <g id="patch_25">
    <path d="M 100.8 372.711724 
L 987.84 372.711724 
" style="fill: none; stroke: #bcbcbc; stroke-width: 0.8; stroke-linejoin: miter; stroke-linecap: square"/>
   </g>
  </g>
  <g id="axes_5">
   <g id="patch_26">
    <path d="M 100.8 576.72 
L 987.84 576.72 
L 987.84 483.988966 
L 100.8 483.988966 
z
" style="fill: #eeeeee"/>
   </g>
   <g id="matplotlib.axis_9">
    <g id="xtick_25">
     <g id="line2d_71">
      <path d="M 141.12 576.72 
L 141.12 483.988966 
" clip-path="url(#p5c11b7cb24)" style="fill: none; stroke-dasharray: 1.85,0.8; stroke-dashoffset: 0; stroke: #b2b2b2; stroke-width: 0.5"/>
     </g>
     <g id="line2d_72">
      <g>
       <use xlink:href="#mb161756435" x="141.12" y="576.72" style="stroke: #000000; stroke-width: 0.8"/>
      </g>
     </g>
     <g id="text_14">
      <!-- 0 s -->
      <g transform="translate(130.795 590.857813) scale(0.14 -0.14)">
       <defs>
        <path id="DejaVuSans-73" d="M 2834 3397 
L 2834 2853 
Q 2591 2978 2328 3040 
Q 2066 3103 1784 3103 
Q 1356 3103 1142 2972 
Q 928 2841 928 2578 
Q 928 2378 1081 2264 
Q 1234 2150 1697 2047 
L 1894 2003 
Q 2506 1872 2764 1633 
Q 3022 1394 3022 966 
Q 3022 478 2636 193 
Q 2250 -91 1575 -91 
Q 1294 -91 989 -36 
Q 684 19 347 128 
L 347 722 
Q 666 556 975 473 
Q 1284 391 1588 391 
Q 1994 391 2212 530 
Q 2431 669 2431 922 
Q 2431 1156 2273 1281 
Q 2116 1406 1581 1522 
L 1381 1569 
Q 847 1681 609 1914 
Q 372 2147 372 2553 
Q 372 3047 722 3315 
Q 1072 3584 1716 3584 
Q 2034 3584 2315 3537 
Q 2597 3491 2834 3397 
z
" transform="scale(0.015625)"/>
       </defs>
       <use xlink:href="#DejaVuSans-30"/>
       <use xlink:href="#DejaVuSans-20" x="63.623047"/>
       <use xlink:href="#DejaVuSans-73" x="95.410156"/>
      </g>
     </g>
    </g>
    <g id="xtick_26">
     <g id="line2d_73">
      <path d="M 302.4 576.72 
L 302.4 483.988966 
" clip-path="url(#p5c11b7cb24)" style="fill: none; stroke-dasharray: 1.85,0.8; stroke-dashoffset: 0; stroke: #b2b2b2; stroke-width: 0.5"/>
     </g>
     <g id="line2d_74">
      <g>
       <use xlink:href="#mb161756435" x="302.4" y="576.72" style="stroke: #000000; stroke-width: 0.8"/>
      </g>
     </g>
     <g id="text_15">
      <!-- 50 ns -->
      <g transform="translate(283.185 590.857813) scale(0.14 -0.14)">
       <defs>
        <path id="DejaVuSans-35" d="M 691 4666 
L 3169 4666 
L 3169 4134 
L 1269 4134 
L 1269 2991 
Q 1406 3038 1543 3061 
Q 1681 3084 1819 3084 
Q 2600 3084 3056 2656 
Q 3513 2228 3513 1497 
Q 3513 744 3044 326 
Q 2575 -91 1722 -91 
Q 1428 -91 1123 -41 
Q 819 9 494 109 
L 494 744 
Q 775 591 1075 516 
Q 1375 441 1709 441 
Q 2250 441 2565 725 
Q 2881 1009 2881 1497 
Q 2881 1984 2565 2268 
Q 2250 2553 1709 2553 
Q 1456 2553 1204 2497 
Q 953 2441 691 2322 
L 691 4666 
z
" transform="scale(0.015625)"/>
        <path id="DejaVuSans-6e" d="M 3513 2113 
L 3513 0 
L 2938 0 
L 2938 2094 
Q 2938 2591 2744 2837 
Q 2550 3084 2163 3084 
Q 1697 3084 1428 2787 
Q 1159 2491 1159 1978 
L 1159 0 
L 581 0 
L 581 3500 
L 1159 3500 
L 1159 2956 
Q 1366 3272 1645 3428 
Q 1925 3584 2291 3584 
Q 2894 3584 3203 3211 
Q 3513 2838 3513 2113 
z
" transform="scale(0.015625)"/>
       </defs>
       <use xlink:href="#DejaVuSans-35"/>
       <use xlink:href="#DejaVuSans-30" x="63.623047"/>
       <use xlink:href="#DejaVuSans-20" x="127.246094"/>
       <use xlink:href="#DejaVuSans-6e" x="159.033203"/>
       <use xlink:href="#DejaVuSans-73" x="222.412109"/>
      </g>
     </g>
    </g>
    <g id="xtick_27">
     <g id="line2d_75">
      <path d="M 463.68 576.72 
L 463.68 483.988966 
" clip-path="url(#p5c11b7cb24)" style="fill: none; stroke-dasharray: 1.85,0.8; stroke-dashoffset: 0; stroke: #b2b2b2; stroke-width: 0.5"/>
     </g>
     <g id="line2d_76">
      <g>
       <use xlink:href="#mb161756435" x="463.68" y="576.72" style="stroke: #000000; stroke-width: 0.8"/>
      </g>
     </g>
     <g id="text_16">
      <!-- 100 ns -->
      <g transform="translate(440.01125 590.857813) scale(0.14 -0.14)">
       <use xlink:href="#DejaVuSans-31"/>
       <use xlink:href="#DejaVuSans-30" x="63.623047"/>
       <use xlink:href="#DejaVuSans-30" x="127.246094"/>
       <use xlink:href="#DejaVuSans-20" x="190.869141"/>
       <use xlink:href="#DejaVuSans-6e" x="222.65625"/>
       <use xlink:href="#DejaVuSans-73" x="286.035156"/>
      </g>
     </g>
    </g>
    <g id="xtick_28">
     <g id="line2d_77">
      <path d="M 624.96 576.72 
L 624.96 483.988966 
" clip-path="url(#p5c11b7cb24)" style="fill: none; stroke-dasharray: 1.85,0.8; stroke-dashoffset: 0; stroke: #b2b2b2; stroke-width: 0.5"/>
     </g>
     <g id="line2d_78">
      <g>
       <use xlink:href="#mb161756435" x="624.96" y="576.72" style="stroke: #000000; stroke-width: 0.8"/>
      </g>
     </g>
     <g id="text_17">
      <!-- 150 ns -->
      <g transform="translate(601.29125 590.857813) scale(0.14 -0.14)">
       <use xlink:href="#DejaVuSans-31"/>
       <use xlink:href="#DejaVuSans-35" x="63.623047"/>
       <use xlink:href="#DejaVuSans-30" x="127.246094"/>
       <use xlink:href="#DejaVuSans-20" x="190.869141"/>
       <use xlink:href="#DejaVuSans-6e" x="222.65625"/>
       <use xlink:href="#DejaVuSans-73" x="286.035156"/>
      </g>
     </g>
    </g>
    <g id="xtick_29">
     <g id="line2d_79">
      <path d="M 786.24 576.72 
L 786.24 483.988966 
" clip-path="url(#p5c11b7cb24)" style="fill: none; stroke-dasharray: 1.85,0.8; stroke-dashoffset: 0; stroke: #b2b2b2; stroke-width: 0.5"/>
     </g>
     <g id="line2d_80">
      <g>
       <use xlink:href="#mb161756435" x="786.24" y="576.72" style="stroke: #000000; stroke-width: 0.8"/>
      </g>
     </g>
     <g id="text_18">
      <!-- 200 ns -->
      <g transform="translate(762.57125 590.857813) scale(0.14 -0.14)">
       <use xlink:href="#DejaVuSans-32"/>
       <use xlink:href="#DejaVuSans-30" x="63.623047"/>
       <use xlink:href="#DejaVuSans-30" x="127.246094"/>
       <use xlink:href="#DejaVuSans-20" x="190.869141"/>
       <use xlink:href="#DejaVuSans-6e" x="222.65625"/>
       <use xlink:href="#DejaVuSans-73" x="286.035156"/>
      </g>
     </g>
    </g>
    <g id="xtick_30">
     <g id="line2d_81">
      <path d="M 947.52 576.72 
L 947.52 483.988966 
" clip-path="url(#p5c11b7cb24)" style="fill: none; stroke-dasharray: 1.85,0.8; stroke-dashoffset: 0; stroke: #b2b2b2; stroke-width: 0.5"/>
     </g>
     <g id="line2d_82">
      <g>
       <use xlink:href="#mb161756435" x="947.52" y="576.72" style="stroke: #000000; stroke-width: 0.8"/>
      </g>
     </g>
     <g id="text_19">
      <!-- 250 ns -->
      <g transform="translate(923.85125 590.857813) scale(0.14 -0.14)">
       <use xlink:href="#DejaVuSans-32"/>
       <use xlink:href="#DejaVuSans-35" x="63.623047"/>
       <use xlink:href="#DejaVuSans-30" x="127.246094"/>
       <use xlink:href="#DejaVuSans-20" x="190.869141"/>
       <use xlink:href="#DejaVuSans-6e" x="222.65625"/>
       <use xlink:href="#DejaVuSans-73" x="286.035156"/>
      </g>
     </g>
    </g>
    <g id="text_20">
     <!-- Time -->
     <g transform="translate(527.192969 608.407187) scale(0.14 -0.14)">
      <defs>
       <path id="DejaVuSans-69" d="M 603 3500 
L 1178 3500 
L 1178 0 
L 603 0 
L 603 3500 
z
M 603 4863 
L 1178 4863 
L 1178 4134 
L 603 4134 
L 603 4863 
z
" transform="scale(0.015625)"/>
       <path id="DejaVuSans-6d" d="M 3328 2828 
Q 3544 3216 3844 3400 
Q 4144 3584 4550 3584 
Q 5097 3584 5394 3201 
Q 5691 2819 5691 2113 
L 5691 0 
L 5113 0 
L 5113 2094 
Q 5113 2597 4934 2840 
Q 4756 3084 4391 3084 
Q 3944 3084 3684 2787 
Q 3425 2491 3425 1978 
L 3425 0 
L 2847 0 
L 2847 2094 
Q 2847 2600 2669 2842 
Q 2491 3084 2119 3084 
Q 1678 3084 1418 2786 
Q 1159 2488 1159 1978 
L 1159 0 
L 581 0 
L 581 3500 
L 1159 3500 
L 1159 2956 
Q 1356 3278 1631 3431 
Q 1906 3584 2284 3584 
Q 2666 3584 2933 3390 
Q 3200 3197 3328 2828 
z
" transform="scale(0.015625)"/>
       <path id="DejaVuSans-65" d="M 3597 1894 
L 3597 1613 
L 953 1613 
Q 991 1019 1311 708 
Q 1631 397 2203 397 
Q 2534 397 2845 478 
Q 3156 559 3463 722 
L 3463 178 
Q 3153 47 2828 -22 
Q 2503 -91 2169 -91 
Q 1331 -91 842 396 
Q 353 884 353 1716 
Q 353 2575 817 3079 
Q 1281 3584 2069 3584 
Q 2775 3584 3186 3129 
Q 3597 2675 3597 1894 
z
M 3022 2063 
Q 3016 2534 2758 2815 
Q 2500 3097 2075 3097 
Q 1594 3097 1305 2825 
Q 1016 2553 972 2059 
L 3022 2063 
z
" transform="scale(0.015625)"/>
      </defs>
      <use xlink:href="#DejaVuSans-54"/>
      <use xlink:href="#DejaVuSans-69" x="57.958984"/>
      <use xlink:href="#DejaVuSans-6d" x="85.742188"/>
      <use xlink:href="#DejaVuSans-65" x="183.154297"/>
     </g>
    </g>
   </g>
   <g id="matplotlib.axis_10">
    <g id="ytick_10">
     <g id="line2d_83">
      <path d="M 100.8 569.737898 
L 987.84 569.737898 
" clip-path="url(#p5c11b7cb24)" style="fill: none; stroke-dasharray: 1.85,0.8; stroke-dashoffset: 0; stroke: #b2b2b2; stroke-width: 0.5"/>
     </g>
     <g id="line2d_84">
      <g>
       <use xlink:href="#mfe2ee7e591" x="100.8" y="569.737898" style="stroke: #000000; stroke-width: 0.8"/>
      </g>
     </g>
     <g id="text_21">
      <!-- 0 V -->
      <g transform="translate(74.36625 575.056805) scale(0.14 -0.14)">
       <use xlink:href="#DejaVuSans-30"/>
       <use xlink:href="#DejaVuSans-20" x="63.623047"/>
       <use xlink:href="#DejaVuSans-56" x="95.410156"/>
      </g>
     </g>
    </g>
    <g id="ytick_11">
     <g id="line2d_85">
      <path d="M 100.8 535.84453 
L 987.84 535.84453 
" clip-path="url(#p5c11b7cb24)" style="fill: none; stroke-dasharray: 1.85,0.8; stroke-dashoffset: 0; stroke: #b2b2b2; stroke-width: 0.5"/>
     </g>
     <g id="line2d_86">
      <g>
       <use xlink:href="#mfe2ee7e591" x="100.8" y="535.84453" style="stroke: #000000; stroke-width: 0.8"/>
      </g>
     </g>
     <g id="text_22">
      <!-- 500 mV -->
      <g transform="translate(42.914375 541.163437) scale(0.14 -0.14)">
       <use xlink:href="#DejaVuSans-35"/>
       <use xlink:href="#DejaVuSans-30" x="63.623047"/>
       <use xlink:href="#DejaVuSans-30" x="127.246094"/>
       <use xlink:href="#DejaVuSans-20" x="190.869141"/>
       <use xlink:href="#DejaVuSans-6d" x="222.65625"/>
       <use xlink:href="#DejaVuSans-56" x="320.068359"/>
      </g>
     </g>
    </g>
    <g id="ytick_12">
     <g id="line2d_87">
      <path d="M 100.8 501.951163 
L 987.84 501.951163 
" clip-path="url(#p5c11b7cb24)" style="fill: none; stroke-dasharray: 1.85,0.8; stroke-dashoffset: 0; stroke: #b2b2b2; stroke-width: 0.5"/>
     </g>
     <g id="line2d_88">
      <g>
       <use xlink:href="#mfe2ee7e591" x="100.8" y="501.951163" style="stroke: #000000; stroke-width: 0.8"/>
      </g>
     </g>
     <g id="text_23">
      <!-- 1 V -->
      <g transform="translate(74.36625 507.270069) scale(0.14 -0.14)">
       <use xlink:href="#DejaVuSans-31"/>
       <use xlink:href="#DejaVuSans-20" x="63.623047"/>
       <use xlink:href="#DejaVuSans-56" x="95.410156"/>
      </g>
     </g>
    </g>
    <g id="text_24">
     <g id="patch_27">
      <path d="M 34.8768 554.329483 
L 34.8768 506.379483 
L 11.247425 506.379483 
L 11.247425 554.329483 
z
" style="fill: #ffff00; opacity: 0.2; stroke: #eeeeee; stroke-width: 0.5; stroke-linejoin: miter"/>
     </g>
     <!-- FOUT -->
     <g transform="translate(26.925238 549.289483) rotate(-90) scale(0.14 -0.14)">
      <use xlink:href="#DejaVuSans-46"/>
      <use xlink:href="#DejaVuSans-4f" x="57.519531"/>
      <use xlink:href="#DejaVuSans-55" x="136.230469"/>
      <use xlink:href="#DejaVuSans-54" x="209.423828"/>
     </g>
    </g>
   </g>
   <g id="line2d_89">
    <path d="M 141.12 488.393815 
L 173.472768 488.400594 
L 173.505024 488.204013 
L 173.569536 526.657394 
L 173.69856 572.504953 
L 173.730816 572.369108 
L 173.827584 567.828617 
L 173.892096 569.351799 
L 174.053376 570.057126 
L 174.117888 569.939259 
L 174.408192 569.483332 
L 174.440448 569.532932 
L 174.66624 569.721921 
L 176.182272 569.732147 
L 180.085248 569.753796 
L 193.568256 569.74419 
L 212.8896 569.73602 
L 255.30624 569.735711 
L 255.6288 488.285357 
L 255.854592 488.427709 
L 256.209408 488.387037 
L 334.849536 488.407373 
L 334.881792 492.623708 
L 335.043072 572.18283 
L 335.107584 570.254711 
L 335.172096 568.326579 
L 335.236608 568.859586 
L 335.365632 570.778018 
L 335.430144 570.404018 
L 335.591424 569.789374 
L 335.881728 569.64017 
L 336.559104 569.810146 
L 337.107456 569.738156 
L 349.9776 569.736214 
L 444.229632 569.806858 
L 444.261888 568.546953 
L 444.358656 524.829186 
L 444.519936 488.597176 
L 444.681216 488.400594 
L 445.229568 488.393815 
L 446.390784 488.393815 
L 446.487552 513.9223 
L 446.648832 570.805743 
L 446.7456 569.743346 
L 447.326208 569.736214 
L 496.710144 569.801541 
L 496.7424 569.932128 
L 497.06496 488.400594 
L 947.52 488.393815 
L 947.52 488.393815 
" clip-path="url(#p5c11b7cb24)" style="fill: none; stroke: #ff00ff; stroke-width: 2; stroke-linecap: square"/>
   </g>
   <g id="patch_28">
    <path d="M 100.8 576.72 
L 100.8 483.988966 
" style="fill: none; stroke: #bcbcbc; stroke-width: 0.8; stroke-linejoin: miter; stroke-linecap: square"/>
   </g>
   <g id="patch_29">
    <path d="M 987.84 576.72 
L 987.84 483.988966 
" style="fill: none; stroke: #bcbcbc; stroke-width: 0.8; stroke-linejoin: miter; stroke-linecap: square"/>
   </g>
   <g id="patch_30">
    <path d="M 100.8 576.72 
L 987.84 576.72 
" style="fill: none; stroke: #bcbcbc; stroke-width: 0.8; stroke-linejoin: miter; stroke-linecap: square"/>
   </g>
   <g id="patch_31">
    <path d="M 100.8 483.988966 
L 987.84 483.988966 
" style="fill: none; stroke: #bcbcbc; stroke-width: 0.8; stroke-linejoin: miter; stroke-linecap: square"/>
   </g>
  </g>
  <g id="axes_6">
   <g id="patch_32">
    <path d="M 201.6 628.56 
L 856.8 628.56 
L 856.8 615.6 
L 201.6 615.6 
z
" clip-path="url(#p5568ef1020)" style="fill: #d3d3d3"/>
   </g>
   <g id="patch_33">
    <path d="M 201.6 628.56 
L 482.4 628.56 
L 482.4 615.6 
L 201.6 615.6 
z
" clip-path="url(#p5568ef1020)" style="fill: #0000ff"/>
   </g>
   <g id="line2d_90">
    <path d="M 201.6 635.04 
L 201.6 609.12 
" clip-path="url(#p9f5a85227e)" style="fill: none; stroke: #ff0000; stroke-linecap: square"/>
   </g>
   <g id="line2d_91">
    <defs>
     <path id="m9b231329bf" d="M 0 5 
C 1.326016 5 2.597899 4.473168 3.535534 3.535534 
C 4.473168 2.597899 5 1.326016 5 0 
C 5 -1.326016 4.473168 -2.597899 3.535534 -3.535534 
C 2.597899 -4.473168 1.326016 -5 0 -5 
C -1.326016 -5 -2.597899 -4.473168 -3.535534 -3.535534 
C -4.473168 -2.597899 -5 -1.326016 -5 0 
C -5 1.326016 -4.473168 2.597899 -3.535534 3.535534 
C -2.597899 4.473168 -1.326016 5 0 5 
z
" style="stroke: #bfbfbf"/>
    </defs>
    <g>
     <use xlink:href="#m9b231329bf" x="482.4" y="622.08" style="fill: #ffffff; stroke: #bfbfbf"/>
    </g>
   </g>
   <g id="text_25">
    <!-- #Sweep -->
    <g transform="translate(138.622875 625.39125) scale(0.12 -0.12)">
     <defs>
      <path id="DejaVuSans-23" d="M 3272 2816 
L 2363 2816 
L 2100 1772 
L 3016 1772 
L 3272 2816 
z
M 2803 4594 
L 2478 3297 
L 3391 3297 
L 3719 4594 
L 4219 4594 
L 3897 3297 
L 4872 3297 
L 4872 2816 
L 3775 2816 
L 3519 1772 
L 4513 1772 
L 4513 1294 
L 3397 1294 
L 3072 0 
L 2572 0 
L 2894 1294 
L 1978 1294 
L 1656 0 
L 1153 0 
L 1478 1294 
L 494 1294 
L 494 1772 
L 1594 1772 
L 1856 2816 
L 850 2816 
L 850 3297 
L 1978 3297 
L 2297 4594 
L 2803 4594 
z
" transform="scale(0.015625)"/>
      <path id="DejaVuSans-77" d="M 269 3500 
L 844 3500 
L 1563 769 
L 2278 3500 
L 2956 3500 
L 3675 769 
L 4391 3500 
L 4966 3500 
L 4050 0 
L 3372 0 
L 2619 2869 
L 1863 0 
L 1184 0 
L 269 3500 
z
" transform="scale(0.015625)"/>
      <path id="DejaVuSans-70" d="M 1159 525 
L 1159 -1331 
L 581 -1331 
L 581 3500 
L 1159 3500 
L 1159 2969 
Q 1341 3281 1617 3432 
Q 1894 3584 2278 3584 
Q 2916 3584 3314 3078 
Q 3713 2572 3713 1747 
Q 3713 922 3314 415 
Q 2916 -91 2278 -91 
Q 1894 -91 1617 61 
Q 1341 213 1159 525 
z
M 3116 1747 
Q 3116 2381 2855 2742 
Q 2594 3103 2138 3103 
Q 1681 3103 1420 2742 
Q 1159 2381 1159 1747 
Q 1159 1113 1420 752 
Q 1681 391 2138 391 
Q 2594 391 2855 752 
Q 3116 1113 3116 1747 
z
" transform="scale(0.015625)"/>
     </defs>
     <use xlink:href="#DejaVuSans-23"/>
     <use xlink:href="#DejaVuSans-53" x="83.789062"/>
     <use xlink:href="#DejaVuSans-77" x="147.265625"/>
     <use xlink:href="#DejaVuSans-65" x="229.052734"/>
     <use xlink:href="#DejaVuSans-65" x="290.576172"/>
     <use xlink:href="#DejaVuSans-70" x="352.099609"/>
    </g>
   </g>
   <g id="text_26">
    <!-- $\mathdefault{60}$ -->
    <g transform="translate(869.904 625.39125) scale(0.12 -0.12)">
     <defs>
      <path id="DejaVuSans-36" d="M 2113 2584 
Q 1688 2584 1439 2293 
Q 1191 2003 1191 1497 
Q 1191 994 1439 701 
Q 1688 409 2113 409 
Q 2538 409 2786 701 
Q 3034 994 3034 1497 
Q 3034 2003 2786 2293 
Q 2538 2584 2113 2584 
z
M 3366 4563 
L 3366 3988 
Q 3128 4100 2886 4159 
Q 2644 4219 2406 4219 
Q 1781 4219 1451 3797 
Q 1122 3375 1075 2522 
Q 1259 2794 1537 2939 
Q 1816 3084 2150 3084 
Q 2853 3084 3261 2657 
Q 3669 2231 3669 1497 
Q 3669 778 3244 343 
Q 2819 -91 2113 -91 
Q 1303 -91 875 529 
Q 447 1150 447 2328 
Q 447 3434 972 4092 
Q 1497 4750 2381 4750 
Q 2619 4750 2861 4703 
Q 3103 4656 3366 4563 
z
" transform="scale(0.015625)"/>
     </defs>
     <use xlink:href="#DejaVuSans-36" transform="translate(0 0.78125)"/>
     <use xlink:href="#DejaVuSans-30" transform="translate(63.623047 0.78125)"/>
    </g>
   </g>
  </g>
  <g id="text_27">
   <!-- DFF under BBI sweep analysis (Sweep = 70E-9) -->
   <g transform="translate(313.34625 25.1175) scale(0.16 -0.16)">
    <defs>
     <path id="DejaVuSans-75" d="M 544 1381 
L 544 3500 
L 1119 3500 
L 1119 1403 
Q 1119 906 1312 657 
Q 1506 409 1894 409 
Q 2359 409 2629 706 
Q 2900 1003 2900 1516 
L 2900 3500 
L 3475 3500 
L 3475 0 
L 2900 0 
L 2900 538 
Q 2691 219 2414 64 
Q 2138 -91 1772 -91 
Q 1169 -91 856 284 
Q 544 659 544 1381 
z
M 1991 3584 
L 1991 3584 
z
" transform="scale(0.015625)"/>
     <path id="DejaVuSans-64" d="M 2906 2969 
L 2906 4863 
L 3481 4863 
L 3481 0 
L 2906 0 
L 2906 525 
Q 2725 213 2448 61 
Q 2172 -91 1784 -91 
Q 1150 -91 751 415 
Q 353 922 353 1747 
Q 353 2572 751 3078 
Q 1150 3584 1784 3584 
Q 2172 3584 2448 3432 
Q 2725 3281 2906 2969 
z
M 947 1747 
Q 947 1113 1208 752 
Q 1469 391 1925 391 
Q 2381 391 2643 752 
Q 2906 1113 2906 1747 
Q 2906 2381 2643 2742 
Q 2381 3103 1925 3103 
Q 1469 3103 1208 2742 
Q 947 2381 947 1747 
z
" transform="scale(0.015625)"/>
     <path id="DejaVuSans-72" d="M 2631 2963 
Q 2534 3019 2420 3045 
Q 2306 3072 2169 3072 
Q 1681 3072 1420 2755 
Q 1159 2438 1159 1844 
L 1159 0 
L 581 0 
L 581 3500 
L 1159 3500 
L 1159 2956 
Q 1341 3275 1631 3429 
Q 1922 3584 2338 3584 
Q 2397 3584 2469 3576 
Q 2541 3569 2628 3553 
L 2631 2963 
z
" transform="scale(0.015625)"/>
     <path id="DejaVuSans-61" d="M 2194 1759 
Q 1497 1759 1228 1600 
Q 959 1441 959 1056 
Q 959 750 1161 570 
Q 1363 391 1709 391 
Q 2188 391 2477 730 
Q 2766 1069 2766 1631 
L 2766 1759 
L 2194 1759 
z
M 3341 1997 
L 3341 0 
L 2766 0 
L 2766 531 
Q 2569 213 2275 61 
Q 1981 -91 1556 -91 
Q 1019 -91 701 211 
Q 384 513 384 1019 
Q 384 1609 779 1909 
Q 1175 2209 1959 2209 
L 2766 2209 
L 2766 2266 
Q 2766 2663 2505 2880 
Q 2244 3097 1772 3097 
Q 1472 3097 1187 3025 
Q 903 2953 641 2809 
L 641 3341 
Q 956 3463 1253 3523 
Q 1550 3584 1831 3584 
Q 2591 3584 2966 3190 
Q 3341 2797 3341 1997 
z
" transform="scale(0.015625)"/>
     <path id="DejaVuSans-6c" d="M 603 4863 
L 1178 4863 
L 1178 0 
L 603 0 
L 603 4863 
z
" transform="scale(0.015625)"/>
     <path id="DejaVuSans-79" d="M 2059 -325 
Q 1816 -950 1584 -1140 
Q 1353 -1331 966 -1331 
L 506 -1331 
L 506 -850 
L 844 -850 
Q 1081 -850 1212 -737 
Q 1344 -625 1503 -206 
L 1606 56 
L 191 3500 
L 800 3500 
L 1894 763 
L 2988 3500 
L 3597 3500 
L 2059 -325 
z
" transform="scale(0.015625)"/>
     <path id="DejaVuSans-28" d="M 1984 4856 
Q 1566 4138 1362 3434 
Q 1159 2731 1159 2009 
Q 1159 1288 1364 580 
Q 1569 -128 1984 -844 
L 1484 -844 
Q 1016 -109 783 600 
Q 550 1309 550 2009 
Q 550 2706 781 3412 
Q 1013 4119 1484 4856 
L 1984 4856 
z
" transform="scale(0.015625)"/>
     <path id="DejaVuSans-3d" d="M 678 2906 
L 4684 2906 
L 4684 2381 
L 678 2381 
L 678 2906 
z
M 678 1631 
L 4684 1631 
L 4684 1100 
L 678 1100 
L 678 1631 
z
" transform="scale(0.015625)"/>
     <path id="DejaVuSans-37" d="M 525 4666 
L 3525 4666 
L 3525 4397 
L 1831 0 
L 1172 0 
L 2766 4134 
L 525 4134 
L 525 4666 
z
" transform="scale(0.015625)"/>
     <path id="DejaVuSans-2d" d="M 313 2009 
L 1997 2009 
L 1997 1497 
L 313 1497 
L 313 2009 
z
" transform="scale(0.015625)"/>
     <path id="DejaVuSans-39" d="M 703 97 
L 703 672 
Q 941 559 1184 500 
Q 1428 441 1663 441 
Q 2288 441 2617 861 
Q 2947 1281 2994 2138 
Q 2813 1869 2534 1725 
Q 2256 1581 1919 1581 
Q 1219 1581 811 2004 
Q 403 2428 403 3163 
Q 403 3881 828 4315 
Q 1253 4750 1959 4750 
Q 2769 4750 3195 4129 
Q 3622 3509 3622 2328 
Q 3622 1225 3098 567 
Q 2575 -91 1691 -91 
Q 1453 -91 1209 -44 
Q 966 3 703 97 
z
M 1959 2075 
Q 2384 2075 2632 2365 
Q 2881 2656 2881 3163 
Q 2881 3666 2632 3958 
Q 2384 4250 1959 4250 
Q 1534 4250 1286 3958 
Q 1038 3666 1038 3163 
Q 1038 2656 1286 2365 
Q 1534 2075 1959 2075 
z
" transform="scale(0.015625)"/>
     <path id="DejaVuSans-29" d="M 513 4856 
L 1013 4856 
Q 1481 4119 1714 3412 
Q 1947 2706 1947 2009 
Q 1947 1309 1714 600 
Q 1481 -109 1013 -844 
L 513 -844 
Q 928 -128 1133 580 
Q 1338 1288 1338 2009 
Q 1338 2731 1133 3434 
Q 928 4138 513 4856 
z
" transform="scale(0.015625)"/>
    </defs>
    <use xlink:href="#DejaVuSans-44"/>
    <use xlink:href="#DejaVuSans-46" x="77.001953"/>
    <use xlink:href="#DejaVuSans-46" x="134.521484"/>
    <use xlink:href="#DejaVuSans-20" x="192.041016"/>
    <use xlink:href="#DejaVuSans-75" x="223.828125"/>
    <use xlink:href="#DejaVuSans-6e" x="287.207031"/>
    <use xlink:href="#DejaVuSans-64" x="350.585938"/>
    <use xlink:href="#DejaVuSans-65" x="414.0625"/>
    <use xlink:href="#DejaVuSans-72" x="475.585938"/>
    <use xlink:href="#DejaVuSans-20" x="516.699219"/>
    <use xlink:href="#DejaVuSans-42" x="548.486328"/>
    <use xlink:href="#DejaVuSans-42" x="617.089844"/>
    <use xlink:href="#DejaVuSans-49" x="685.693359"/>
    <use xlink:href="#DejaVuSans-20" x="715.185547"/>
    <use xlink:href="#DejaVuSans-73" x="746.972656"/>
    <use xlink:href="#DejaVuSans-77" x="799.072266"/>
    <use xlink:href="#DejaVuSans-65" x="880.859375"/>
    <use xlink:href="#DejaVuSans-65" x="942.382812"/>
    <use xlink:href="#DejaVuSans-70" x="1003.90625"/>
    <use xlink:href="#DejaVuSans-20" x="1067.382812"/>
    <use xlink:href="#DejaVuSans-61" x="1099.169922"/>
    <use xlink:href="#DejaVuSans-6e" x="1160.449219"/>
    <use xlink:href="#DejaVuSans-61" x="1223.828125"/>
    <use xlink:href="#DejaVuSans-6c" x="1285.107422"/>
    <use xlink:href="#DejaVuSans-79" x="1312.890625"/>
    <use xlink:href="#DejaVuSans-73" x="1372.070312"/>
    <use xlink:href="#DejaVuSans-69" x="1424.169922"/>
    <use xlink:href="#DejaVuSans-73" x="1451.953125"/>
    <use xlink:href="#DejaVuSans-20" x="1504.052734"/>
    <use xlink:href="#DejaVuSans-28" x="1535.839844"/>
    <use xlink:href="#DejaVuSans-53" x="1574.853516"/>
    <use xlink:href="#DejaVuSans-77" x="1638.330078"/>
    <use xlink:href="#DejaVuSans-65" x="1720.117188"/>
    <use xlink:href="#DejaVuSans-65" x="1781.640625"/>
    <use xlink:href="#DejaVuSans-70" x="1843.164062"/>
    <use xlink:href="#DejaVuSans-20" x="1906.640625"/>
    <use xlink:href="#DejaVuSans-3d" x="1938.427734"/>
    <use xlink:href="#DejaVuSans-20" x="2022.216797"/>
    <use xlink:href="#DejaVuSans-37" x="2054.003906"/>
    <use xlink:href="#DejaVuSans-30" x="2117.626953"/>
    <use xlink:href="#DejaVuSans-45" x="2181.25"/>
    <use xlink:href="#DejaVuSans-2d" x="2244.433594"/>
    <use xlink:href="#DejaVuSans-39" x="2280.517578"/>
    <use xlink:href="#DejaVuSans-29" x="2344.140625"/>
   </g>
  </g>
 </g>
 <defs>
  <clipPath id="pda90d60bfa">
   <rect x="100.8" y="38.88" width="887.04" height="92.731034"/>
  </clipPath>
  <clipPath id="p3c13b8e121">
   <rect x="100.8" y="150.157241" width="887.04" height="92.731034"/>
  </clipPath>
  <clipPath id="p9e15f5336a">
   <rect x="100.8" y="261.434483" width="887.04" height="92.731034"/>
  </clipPath>
  <clipPath id="p9923f5c684">
   <rect x="100.8" y="372.711724" width="887.04" height="92.731034"/>
  </clipPath>
  <clipPath id="p5c11b7cb24">
   <rect x="100.8" y="483.988966" width="887.04" height="92.731034"/>
  </clipPath>
  <clipPath id="p5568ef1020">
   <rect x="201.6" y="609.12" width="655.2" height="25.92"/>
  </clipPath>
  <clipPath id="p9f5a85227e">
   <path d="M 201.6 628.56 
L 856.8 628.56 
L 856.8 615.6 
L 201.6 615.6 
z
"/>
  </clipPath>
 </defs>
</svg>
