<?xml version="1.0" encoding="utf-8" standalone="no"?>
<!DOCTYPE svg PUBLIC "-//W3C//DTD SVG 1.1//EN"
  "http://www.w3.org/Graphics/SVG/1.1/DTD/svg11.dtd">
<svg xmlns:xlink="http://www.w3.org/1999/xlink" width="1008pt" height="648pt" viewBox="0 0 1008 648" xmlns="http://www.w3.org/2000/svg" version="1.1">
 <metadata>
  <rdf:RDF xmlns:dc="http://purl.org/dc/elements/1.1/" xmlns:cc="http://creativecommons.org/ns#" xmlns:rdf="http://www.w3.org/1999/02/22-rdf-syntax-ns#">
   <cc:Work>
    <dc:type rdf:resource="http://purl.org/dc/dcmitype/StillImage"/>
    <dc:date>2024-06-03T10:45:55.890676</dc:date>
    <dc:format>image/svg+xml</dc:format>
    <dc:creator>
     <cc:Agent>
      <dc:title>Matplotlib v3.9.0, https://matplotlib.org/</dc:title>
     </cc:Agent>
    </dc:creator>
   </cc:Work>
  </rdf:RDF>
 </metadata>
 <defs>
  <style type="text/css">*{stroke-linejoin: round; stroke-linecap: butt}</style>
 </defs>
 <g id="figure_1">
  <g id="patch_1">
   <path d="M 0 648 
L 1008 648 
L 1008 0 
L 0 0 
z
" style="fill: #ffffff"/>
  </g>
  <g id="axes_1">
   <g id="patch_2">
    <path d="M 100.8 131.611034 
L 987.84 131.611034 
L 987.84 38.88 
L 100.8 38.88 
z
" style="fill: #eeeeee"/>
   </g>
   <g id="matplotlib.axis_1">
    <g id="xtick_1">
     <g id="line2d_1">
      <path d="M 141.12 131.611034 
L 141.12 38.88 
" clip-path="url(#p01cb922464)" style="fill: none; stroke-dasharray: 1.85,0.8; stroke-dashoffset: 0; stroke: #b2b2b2; stroke-width: 0.5"/>
     </g>
     <g id="line2d_2">
      <defs>
       <path id="md180f22c81" d="M 0 0 
L 0 -3.5 
" style="stroke: #000000; stroke-width: 0.8"/>
      </defs>
      <g>
       <use xlink:href="#md180f22c81" x="141.12" y="131.611034" style="stroke: #000000; stroke-width: 0.8"/>
      </g>
     </g>
    </g>
    <g id="xtick_2">
     <g id="line2d_3">
      <path d="M 302.4 131.611034 
L 302.4 38.88 
" clip-path="url(#p01cb922464)" style="fill: none; stroke-dasharray: 1.85,0.8; stroke-dashoffset: 0; stroke: #b2b2b2; stroke-width: 0.5"/>
     </g>
     <g id="line2d_4">
      <g>
       <use xlink:href="#md180f22c81" x="302.4" y="131.611034" style="stroke: #000000; stroke-width: 0.8"/>
      </g>
     </g>
    </g>
    <g id="xtick_3">
     <g id="line2d_5">
      <path d="M 463.68 131.611034 
L 463.68 38.88 
" clip-path="url(#p01cb922464)" style="fill: none; stroke-dasharray: 1.85,0.8; stroke-dashoffset: 0; stroke: #b2b2b2; stroke-width: 0.5"/>
     </g>
     <g id="line2d_6">
      <g>
       <use xlink:href="#md180f22c81" x="463.68" y="131.611034" style="stroke: #000000; stroke-width: 0.8"/>
      </g>
     </g>
    </g>
    <g id="xtick_4">
     <g id="line2d_7">
      <path d="M 624.96 131.611034 
L 624.96 38.88 
" clip-path="url(#p01cb922464)" style="fill: none; stroke-dasharray: 1.85,0.8; stroke-dashoffset: 0; stroke: #b2b2b2; stroke-width: 0.5"/>
     </g>
     <g id="line2d_8">
      <g>
       <use xlink:href="#md180f22c81" x="624.96" y="131.611034" style="stroke: #000000; stroke-width: 0.8"/>
      </g>
     </g>
    </g>
    <g id="xtick_5">
     <g id="line2d_9">
      <path d="M 786.24 131.611034 
L 786.24 38.88 
" clip-path="url(#p01cb922464)" style="fill: none; stroke-dasharray: 1.85,0.8; stroke-dashoffset: 0; stroke: #b2b2b2; stroke-width: 0.5"/>
     </g>
     <g id="line2d_10">
      <g>
       <use xlink:href="#md180f22c81" x="786.24" y="131.611034" style="stroke: #000000; stroke-width: 0.8"/>
      </g>
     </g>
    </g>
    <g id="xtick_6">
     <g id="line2d_11">
      <path d="M 947.52 131.611034 
L 947.52 38.88 
" clip-path="url(#p01cb922464)" style="fill: none; stroke-dasharray: 1.85,0.8; stroke-dashoffset: 0; stroke: #b2b2b2; stroke-width: 0.5"/>
     </g>
     <g id="line2d_12">
      <g>
       <use xlink:href="#md180f22c81" x="947.52" y="131.611034" style="stroke: #000000; stroke-width: 0.8"/>
      </g>
     </g>
    </g>
   </g>
   <g id="matplotlib.axis_2">
    <g id="ytick_1">
     <g id="line2d_13">
      <path d="M 100.8 98.340394 
L 987.84 98.340394 
" clip-path="url(#p01cb922464)" style="fill: none; stroke-dasharray: 1.85,0.8; stroke-dashoffset: 0; stroke: #b2b2b2; stroke-width: 0.5"/>
     </g>
     <g id="line2d_14">
      <defs>
       <path id="m60713d1681" d="M 0 0 
L 3.5 0 
" style="stroke: #000000; stroke-width: 0.8"/>
      </defs>
      <g>
       <use xlink:href="#m60713d1681" x="100.8" y="98.340394" style="stroke: #000000; stroke-width: 0.8"/>
      </g>
     </g>
     <g id="text_1">
      <!-- −200 V -->
      <g transform="translate(44.819688 103.6593) scale(0.14 -0.14)">
       <defs>
        <path id="DejaVuSans-2212" d="M 678 2272 
L 4684 2272 
L 4684 1741 
L 678 1741 
L 678 2272 
z
" transform="scale(0.015625)"/>
        <path id="DejaVuSans-32" d="M 1228 531 
L 3431 531 
L 3431 0 
L 469 0 
L 469 531 
Q 828 903 1448 1529 
Q 2069 2156 2228 2338 
Q 2531 2678 2651 2914 
Q 2772 3150 2772 3378 
Q 2772 3750 2511 3984 
Q 2250 4219 1831 4219 
Q 1534 4219 1204 4116 
Q 875 4013 500 3803 
L 500 4441 
Q 881 4594 1212 4672 
Q 1544 4750 1819 4750 
Q 2544 4750 2975 4387 
Q 3406 4025 3406 3419 
Q 3406 3131 3298 2873 
Q 3191 2616 2906 2266 
Q 2828 2175 2409 1742 
Q 1991 1309 1228 531 
z
" transform="scale(0.015625)"/>
        <path id="DejaVuSans-30" d="M 2034 4250 
Q 1547 4250 1301 3770 
Q 1056 3291 1056 2328 
Q 1056 1369 1301 889 
Q 1547 409 2034 409 
Q 2525 409 2770 889 
Q 3016 1369 3016 2328 
Q 3016 3291 2770 3770 
Q 2525 4250 2034 4250 
z
M 2034 4750 
Q 2819 4750 3233 4129 
Q 3647 3509 3647 2328 
Q 3647 1150 3233 529 
Q 2819 -91 2034 -91 
Q 1250 -91 836 529 
Q 422 1150 422 2328 
Q 422 3509 836 4129 
Q 1250 4750 2034 4750 
z
" transform="scale(0.015625)"/>
        <path id="DejaVuSans-20" transform="scale(0.015625)"/>
        <path id="DejaVuSans-56" d="M 1831 0 
L 50 4666 
L 709 4666 
L 2188 738 
L 3669 4666 
L 4325 4666 
L 2547 0 
L 1831 0 
z
" transform="scale(0.015625)"/>
       </defs>
       <use xlink:href="#DejaVuSans-2212"/>
       <use xlink:href="#DejaVuSans-32" x="83.789062"/>
       <use xlink:href="#DejaVuSans-30" x="147.412109"/>
       <use xlink:href="#DejaVuSans-30" x="211.035156"/>
       <use xlink:href="#DejaVuSans-20" x="274.658203"/>
       <use xlink:href="#DejaVuSans-56" x="306.445312"/>
      </g>
     </g>
    </g>
    <g id="ytick_2">
     <g id="line2d_15">
      <path d="M 100.8 45.027377 
L 987.84 45.027377 
" clip-path="url(#p01cb922464)" style="fill: none; stroke-dasharray: 1.85,0.8; stroke-dashoffset: 0; stroke: #b2b2b2; stroke-width: 0.5"/>
     </g>
     <g id="line2d_16">
      <g>
       <use xlink:href="#m60713d1681" x="100.8" y="45.027377" style="stroke: #000000; stroke-width: 0.8"/>
      </g>
     </g>
     <g id="text_2">
      <!-- 0 V -->
      <g transform="translate(74.36625 50.346284) scale(0.14 -0.14)">
       <use xlink:href="#DejaVuSans-30"/>
       <use xlink:href="#DejaVuSans-20" x="63.623047"/>
       <use xlink:href="#DejaVuSans-56" x="95.410156"/>
      </g>
     </g>
    </g>
    <g id="text_3">
     <g id="patch_3">
      <path d="M 34.8768 131.080205 
L 34.8768 39.41083 
L 11.247425 39.41083 
L 11.247425 131.080205 
z
" style="fill: #ffff00; opacity: 0.2; stroke: #eeeeee; stroke-width: 0.5; stroke-linejoin: miter"/>
     </g>
     <!-- VPULSE BBI -->
     <g transform="translate(26.925238 126.040205) rotate(-90) scale(0.14 -0.14)">
      <defs>
       <path id="DejaVuSans-50" d="M 1259 4147 
L 1259 2394 
L 2053 2394 
Q 2494 2394 2734 2622 
Q 2975 2850 2975 3272 
Q 2975 3691 2734 3919 
Q 2494 4147 2053 4147 
L 1259 4147 
z
M 628 4666 
L 2053 4666 
Q 2838 4666 3239 4311 
Q 3641 3956 3641 3272 
Q 3641 2581 3239 2228 
Q 2838 1875 2053 1875 
L 1259 1875 
L 1259 0 
L 628 0 
L 628 4666 
z
" transform="scale(0.015625)"/>
       <path id="DejaVuSans-55" d="M 556 4666 
L 1191 4666 
L 1191 1831 
Q 1191 1081 1462 751 
Q 1734 422 2344 422 
Q 2950 422 3222 751 
Q 3494 1081 3494 1831 
L 3494 4666 
L 4128 4666 
L 4128 1753 
Q 4128 841 3676 375 
Q 3225 -91 2344 -91 
Q 1459 -91 1007 375 
Q 556 841 556 1753 
L 556 4666 
z
" transform="scale(0.015625)"/>
       <path id="DejaVuSans-4c" d="M 628 4666 
L 1259 4666 
L 1259 531 
L 3531 531 
L 3531 0 
L 628 0 
L 628 4666 
z
" transform="scale(0.015625)"/>
       <path id="DejaVuSans-53" d="M 3425 4513 
L 3425 3897 
Q 3066 4069 2747 4153 
Q 2428 4238 2131 4238 
Q 1616 4238 1336 4038 
Q 1056 3838 1056 3469 
Q 1056 3159 1242 3001 
Q 1428 2844 1947 2747 
L 2328 2669 
Q 3034 2534 3370 2195 
Q 3706 1856 3706 1288 
Q 3706 609 3251 259 
Q 2797 -91 1919 -91 
Q 1588 -91 1214 -16 
Q 841 59 441 206 
L 441 856 
Q 825 641 1194 531 
Q 1563 422 1919 422 
Q 2459 422 2753 634 
Q 3047 847 3047 1241 
Q 3047 1584 2836 1778 
Q 2625 1972 2144 2069 
L 1759 2144 
Q 1053 2284 737 2584 
Q 422 2884 422 3419 
Q 422 4038 858 4394 
Q 1294 4750 2059 4750 
Q 2388 4750 2728 4690 
Q 3069 4631 3425 4513 
z
" transform="scale(0.015625)"/>
       <path id="DejaVuSans-45" d="M 628 4666 
L 3578 4666 
L 3578 4134 
L 1259 4134 
L 1259 2753 
L 3481 2753 
L 3481 2222 
L 1259 2222 
L 1259 531 
L 3634 531 
L 3634 0 
L 628 0 
L 628 4666 
z
" transform="scale(0.015625)"/>
       <path id="DejaVuSans-42" d="M 1259 2228 
L 1259 519 
L 2272 519 
Q 2781 519 3026 730 
Q 3272 941 3272 1375 
Q 3272 1813 3026 2020 
Q 2781 2228 2272 2228 
L 1259 2228 
z
M 1259 4147 
L 1259 2741 
L 2194 2741 
Q 2656 2741 2882 2914 
Q 3109 3088 3109 3444 
Q 3109 3797 2882 3972 
Q 2656 4147 2194 4147 
L 1259 4147 
z
M 628 4666 
L 2241 4666 
Q 2963 4666 3353 4366 
Q 3744 4066 3744 3513 
Q 3744 3084 3544 2831 
Q 3344 2578 2956 2516 
Q 3422 2416 3680 2098 
Q 3938 1781 3938 1306 
Q 3938 681 3513 340 
Q 3088 0 2303 0 
L 628 0 
L 628 4666 
z
" transform="scale(0.015625)"/>
       <path id="DejaVuSans-49" d="M 628 4666 
L 1259 4666 
L 1259 0 
L 628 0 
L 628 4666 
z
" transform="scale(0.015625)"/>
      </defs>
      <use xlink:href="#DejaVuSans-56"/>
      <use xlink:href="#DejaVuSans-50" x="68.408203"/>
      <use xlink:href="#DejaVuSans-55" x="128.710938"/>
      <use xlink:href="#DejaVuSans-4c" x="201.904297"/>
      <use xlink:href="#DejaVuSans-53" x="257.617188"/>
      <use xlink:href="#DejaVuSans-45" x="321.09375"/>
      <use xlink:href="#DejaVuSans-20" x="384.277344"/>
      <use xlink:href="#DejaVuSans-42" x="416.064453"/>
      <use xlink:href="#DejaVuSans-42" x="484.667969"/>
      <use xlink:href="#DejaVuSans-49" x="553.271484"/>
     </g>
    </g>
   </g>
   <g id="line2d_17">
    <path d="M 141.12 45.027377 
L 583.059456 45.136282 
L 583.543296 46.425538 
L 591.768576 69.006772 
L 599.187456 89.863624 
L 600.800256 94.440546 
L 602.606592 99.673219 
L 606.09024 110.807642 
L 607.670784 115.853719 
L 608.896512 119.550977 
L 612.799488 121.36362 
L 613.380096 121.619522 
L 614.251008 122.003376 
L 614.896128 122.269941 
L 616.476672 122.936354 
L 617.121792 123.202919 
L 618.218496 123.629423 
L 618.960384 123.922644 
L 620.057088 124.349149 
L 620.960256 124.677024 
L 621.637632 124.943589 
L 622.444032 125.25547 
L 623.798784 125.804594 
L 626.443776 126.790885 
L 627.05664 127.022796 
L 628.992 127.395987 
L 647.474688 127.289361 
L 647.70048 126.801547 
L 665.989632 75.087922 
L 669.731328 63.292417 
L 673.440768 51.617666 
L 678.053376 49.3412 
L 683.407872 46.984578 
L 692.116992 43.484472 
L 692.987904 43.268927 
L 707.277312 43.108189 
L 714.083328 43.184799 
L 729.437184 43.746186 
L 757.2096 44.46146 
L 782.85312 44.774399 
L 818.463744 44.945888 
L 866.492928 44.953885 
L 947.52 44.953885 
L 947.52 44.953885 
" clip-path="url(#p01cb922464)" style="fill: none; stroke: #ff0000; stroke-width: 2; stroke-linecap: square"/>
   </g>
   <g id="patch_4">
    <path d="M 100.8 131.611034 
L 100.8 38.88 
" style="fill: none; stroke: #bcbcbc; stroke-width: 0.8; stroke-linejoin: miter; stroke-linecap: square"/>
   </g>
   <g id="patch_5">
    <path d="M 987.84 131.611034 
L 987.84 38.88 
" style="fill: none; stroke: #bcbcbc; stroke-width: 0.8; stroke-linejoin: miter; stroke-linecap: square"/>
   </g>
   <g id="patch_6">
    <path d="M 100.8 131.611034 
L 987.84 131.611034 
" style="fill: none; stroke: #bcbcbc; stroke-width: 0.8; stroke-linejoin: miter; stroke-linecap: square"/>
   </g>
   <g id="patch_7">
    <path d="M 100.8 38.88 
L 987.84 38.88 
" style="fill: none; stroke: #bcbcbc; stroke-width: 0.8; stroke-linejoin: miter; stroke-linecap: square"/>
   </g>
  </g>
  <g id="axes_2">
   <g id="patch_8">
    <path d="M 100.8 242.888276 
L 987.84 242.888276 
L 987.84 150.157241 
L 100.8 150.157241 
z
" style="fill: #eeeeee"/>
   </g>
   <g id="matplotlib.axis_3">
    <g id="xtick_7">
     <g id="line2d_18">
      <path d="M 141.12 242.888276 
L 141.12 150.157241 
" clip-path="url(#p9eafab0dc6)" style="fill: none; stroke-dasharray: 1.85,0.8; stroke-dashoffset: 0; stroke: #b2b2b2; stroke-width: 0.5"/>
     </g>
     <g id="line2d_19">
      <g>
       <use xlink:href="#md180f22c81" x="141.12" y="242.888276" style="stroke: #000000; stroke-width: 0.8"/>
      </g>
     </g>
    </g>
    <g id="xtick_8">
     <g id="line2d_20">
      <path d="M 302.4 242.888276 
L 302.4 150.157241 
" clip-path="url(#p9eafab0dc6)" style="fill: none; stroke-dasharray: 1.85,0.8; stroke-dashoffset: 0; stroke: #b2b2b2; stroke-width: 0.5"/>
     </g>
     <g id="line2d_21">
      <g>
       <use xlink:href="#md180f22c81" x="302.4" y="242.888276" style="stroke: #000000; stroke-width: 0.8"/>
      </g>
     </g>
    </g>
    <g id="xtick_9">
     <g id="line2d_22">
      <path d="M 463.68 242.888276 
L 463.68 150.157241 
" clip-path="url(#p9eafab0dc6)" style="fill: none; stroke-dasharray: 1.85,0.8; stroke-dashoffset: 0; stroke: #b2b2b2; stroke-width: 0.5"/>
     </g>
     <g id="line2d_23">
      <g>
       <use xlink:href="#md180f22c81" x="463.68" y="242.888276" style="stroke: #000000; stroke-width: 0.8"/>
      </g>
     </g>
    </g>
    <g id="xtick_10">
     <g id="line2d_24">
      <path d="M 624.96 242.888276 
L 624.96 150.157241 
" clip-path="url(#p9eafab0dc6)" style="fill: none; stroke-dasharray: 1.85,0.8; stroke-dashoffset: 0; stroke: #b2b2b2; stroke-width: 0.5"/>
     </g>
     <g id="line2d_25">
      <g>
       <use xlink:href="#md180f22c81" x="624.96" y="242.888276" style="stroke: #000000; stroke-width: 0.8"/>
      </g>
     </g>
    </g>
    <g id="xtick_11">
     <g id="line2d_26">
      <path d="M 786.24 242.888276 
L 786.24 150.157241 
" clip-path="url(#p9eafab0dc6)" style="fill: none; stroke-dasharray: 1.85,0.8; stroke-dashoffset: 0; stroke: #b2b2b2; stroke-width: 0.5"/>
     </g>
     <g id="line2d_27">
      <g>
       <use xlink:href="#md180f22c81" x="786.24" y="242.888276" style="stroke: #000000; stroke-width: 0.8"/>
      </g>
     </g>
    </g>
    <g id="xtick_12">
     <g id="line2d_28">
      <path d="M 947.52 242.888276 
L 947.52 150.157241 
" clip-path="url(#p9eafab0dc6)" style="fill: none; stroke-dasharray: 1.85,0.8; stroke-dashoffset: 0; stroke: #b2b2b2; stroke-width: 0.5"/>
     </g>
     <g id="line2d_29">
      <g>
       <use xlink:href="#md180f22c81" x="947.52" y="242.888276" style="stroke: #000000; stroke-width: 0.8"/>
      </g>
     </g>
    </g>
   </g>
   <g id="matplotlib.axis_4">
    <g id="ytick_3">
     <g id="line2d_30">
      <path d="M 100.8 219.266378 
L 987.84 219.266378 
" clip-path="url(#p9eafab0dc6)" style="fill: none; stroke-dasharray: 1.85,0.8; stroke-dashoffset: 0; stroke: #b2b2b2; stroke-width: 0.5"/>
     </g>
     <g id="line2d_31">
      <g>
       <use xlink:href="#m60713d1681" x="100.8" y="219.266378" style="stroke: #000000; stroke-width: 0.8"/>
      </g>
     </g>
     <g id="text_4">
      <!-- 0 V -->
      <g transform="translate(74.36625 224.585284) scale(0.14 -0.14)">
       <use xlink:href="#DejaVuSans-30"/>
       <use xlink:href="#DejaVuSans-20" x="63.623047"/>
       <use xlink:href="#DejaVuSans-56" x="95.410156"/>
      </g>
     </g>
    </g>
    <g id="ytick_4">
     <g id="line2d_32">
      <path d="M 100.8 185.727647 
L 987.84 185.727647 
" clip-path="url(#p9eafab0dc6)" style="fill: none; stroke-dasharray: 1.85,0.8; stroke-dashoffset: 0; stroke: #b2b2b2; stroke-width: 0.5"/>
     </g>
     <g id="line2d_33">
      <g>
       <use xlink:href="#m60713d1681" x="100.8" y="185.727647" style="stroke: #000000; stroke-width: 0.8"/>
      </g>
     </g>
     <g id="text_5">
      <!-- 1 V -->
      <g transform="translate(74.36625 191.046554) scale(0.14 -0.14)">
       <defs>
        <path id="DejaVuSans-31" d="M 794 531 
L 1825 531 
L 1825 4091 
L 703 3866 
L 703 4441 
L 1819 4666 
L 2450 4666 
L 2450 531 
L 3481 531 
L 3481 0 
L 794 0 
L 794 531 
z
" transform="scale(0.015625)"/>
       </defs>
       <use xlink:href="#DejaVuSans-31"/>
       <use xlink:href="#DejaVuSans-20" x="63.623047"/>
       <use xlink:href="#DejaVuSans-56" x="95.410156"/>
      </g>
     </g>
    </g>
    <g id="ytick_5">
     <g id="line2d_34">
      <path d="M 100.8 152.188917 
L 987.84 152.188917 
" clip-path="url(#p9eafab0dc6)" style="fill: none; stroke-dasharray: 1.85,0.8; stroke-dashoffset: 0; stroke: #b2b2b2; stroke-width: 0.5"/>
     </g>
     <g id="line2d_35">
      <g>
       <use xlink:href="#m60713d1681" x="100.8" y="152.188917" style="stroke: #000000; stroke-width: 0.8"/>
      </g>
     </g>
     <g id="text_6">
      <!-- 2 V -->
      <g transform="translate(74.36625 157.507823) scale(0.14 -0.14)">
       <use xlink:href="#DejaVuSans-32"/>
       <use xlink:href="#DejaVuSans-20" x="63.623047"/>
       <use xlink:href="#DejaVuSans-56" x="95.410156"/>
      </g>
     </g>
    </g>
    <g id="text_7">
     <g id="patch_9">
      <path d="M 34.8768 224.531509 
L 34.8768 168.514009 
L 11.247425 168.514009 
L 11.247425 224.531509 
z
" style="fill: #ffff00; opacity: 0.2; stroke: #eeeeee; stroke-width: 0.5; stroke-linejoin: miter"/>
     </g>
     <!-- DFF IN -->
     <g transform="translate(26.925238 219.491509) rotate(-90) scale(0.14 -0.14)">
      <defs>
       <path id="DejaVuSans-44" d="M 1259 4147 
L 1259 519 
L 2022 519 
Q 2988 519 3436 956 
Q 3884 1394 3884 2338 
Q 3884 3275 3436 3711 
Q 2988 4147 2022 4147 
L 1259 4147 
z
M 628 4666 
L 1925 4666 
Q 3281 4666 3915 4102 
Q 4550 3538 4550 2338 
Q 4550 1131 3912 565 
Q 3275 0 1925 0 
L 628 0 
L 628 4666 
z
" transform="scale(0.015625)"/>
       <path id="DejaVuSans-46" d="M 628 4666 
L 3309 4666 
L 3309 4134 
L 1259 4134 
L 1259 2759 
L 3109 2759 
L 3109 2228 
L 1259 2228 
L 1259 0 
L 628 0 
L 628 4666 
z
" transform="scale(0.015625)"/>
       <path id="DejaVuSans-4e" d="M 628 4666 
L 1478 4666 
L 3547 763 
L 3547 4666 
L 4159 4666 
L 4159 0 
L 3309 0 
L 1241 3903 
L 1241 0 
L 628 0 
L 628 4666 
z
" transform="scale(0.015625)"/>
      </defs>
      <use xlink:href="#DejaVuSans-44"/>
      <use xlink:href="#DejaVuSans-46" x="77.001953"/>
      <use xlink:href="#DejaVuSans-46" x="134.521484"/>
      <use xlink:href="#DejaVuSans-20" x="192.041016"/>
      <use xlink:href="#DejaVuSans-49" x="223.828125"/>
      <use xlink:href="#DejaVuSans-4e" x="253.320312"/>
     </g>
    </g>
   </g>
   <g id="line2d_36">
    <path d="M 141.12 219.217398 
L 221.953536 219.171406 
L 224.437248 200.484018 
L 225.404928 194.799203 
L 228.243456 182.299989 
L 229.598208 181.045641 
L 231.178752 180.183695 
L 236.565504 179.734276 
L 243.661824 179.623599 
L 245.1456 179.579998 
L 248.403456 179.46932 
L 250.113024 179.402243 
L 252.177408 179.291565 
L 254.241792 178.966239 
L 254.757888 178.436327 
L 255.499776 178.10094 
L 256.370688 178.121063 
L 257.531904 178.352481 
L 259.98336 178.751592 
L 262.370304 178.8891 
L 263.886336 178.939408 
L 264.144384 184.111081 
L 264.434688 187.629964 
L 265.176576 192.317673 
L 267.144192 209.428127 
L 268.402176 215.852471 
L 269.079552 217.162493 
L 270.46656 218.859084 
L 273.724416 219.268189 
L 282.594816 219.221828 
L 297.110016 219.210623 
L 305.883648 219.216603 
L 347.751936 219.17308 
L 350.235648 200.523594 
L 351.622656 191.997042 
L 352.687104 186.673775 
L 354.97728 179.868431 
L 358.493184 178.882393 
L 360.235008 178.952824 
L 363.073536 179.063502 
L 364.396032 179.090333 
L 375.169536 179.160764 
L 375.717888 180.140095 
L 376.169472 180.881301 
L 377.008128 181.776785 
L 377.524224 181.726477 
L 378.427392 181.438044 
L 380.45952 180.301081 
L 381.58848 179.94557 
L 387.201024 179.472674 
L 389.65248 179.361996 
L 391.813632 179.247965 
L 394.555392 179.137287 
L 395.9424 179.103748 
L 415.392768 178.996424 
L 415.973376 178.379312 
L 416.844288 178.047278 
L 417.908736 178.151248 
L 419.16672 178.42962 
L 420.908544 178.68116 
L 424.00512 178.892454 
L 455.712768 178.99307 
L 456.809472 179.871785 
L 457.261056 179.942216 
L 458.712576 179.982463 
L 462.744576 179.452551 
L 464.16384 179.268088 
L 467.518464 179.029963 
L 496.065024 178.94947 
L 496.58112 178.416204 
L 497.258496 178.114356 
L 498.387456 178.107648 
L 502.06464 178.761653 
L 504.258048 178.879039 
L 536.352768 178.989717 
L 537.255936 179.784584 
L 537.901056 179.942216 
L 539.352576 179.982463 
L 544.449024 179.341873 
L 545.61024 179.211072 
L 548.803584 178.989717 
L 576.73728 178.909224 
L 577.285632 178.349127 
L 577.801728 178.104294 
L 578.35008 178.04057 
L 579.15648 178.147894 
L 582.607872 178.754945 
L 583.123968 178.919285 
L 583.51104 179.667199 
L 584.736768 181.961248 
L 585.897984 183.681785 
L 588.284928 186.961873 
L 592.349184 192.681568 
L 592.86528 194.231057 
L 594.671616 200.992465 
L 598.3488 216.035894 
L 598.929408 217.995595 
L 599.80032 220.921984 
L 600.026112 221.525312 
L 600.703488 223.393654 
L 600.864768 223.805845 
L 601.5744 225.547847 
L 601.89696 225.982173 
L 602.21952 226.324268 
L 602.54208 226.984981 
L 603.767808 229.626827 
L 603.896832 229.930017 
L 604.283904 230.786932 
L 604.541952 231.184366 
L 604.96128 231.869897 
L 606.187008 234.2488 
L 607.025664 235.577604 
L 607.283712 235.97638 
L 607.606272 236.679016 
L 608.573952 238.100052 
L 608.735232 238.47971 
L 608.928768 238.673229 
L 609.122304 238.559868 
L 609.702912 237.72576 
L 610.154496 236.94632 
L 610.4448 236.45766 
L 611.864064 234.636843 
L 612.122112 234.277978 
L 612.251136 234.247123 
L 612.767232 233.625985 
L 614.121984 232.552746 
L 614.831616 231.616345 
L 615.057408 231.559664 
L 615.250944 231.410417 
L 615.541248 231.208178 
L 615.831552 231.061949 
L 616.831488 230.113139 
L 617.154048 229.68116 
L 617.54112 229.251529 
L 617.831424 229.012733 
L 619.089408 228.276558 
L 620.024832 227.291525 
L 620.347392 226.808903 
L 620.573184 226.756918 
L 620.734464 226.706274 
L 621.863424 226.007998 
L 623.18592 224.877072 
L 623.411712 224.600713 
L 623.572992 224.553423 
L 624.572928 223.942683 
L 626.314752 222.641716 
L 627.121152 221.935457 
L 628.217856 221.078073 
L 629.379072 219.766105 
L 634.281984 213.14187 
L 636.281856 210.878341 
L 637.410816 209.570331 
L 637.991424 207.895742 
L 639.281664 204.151478 
L 640.410624 201.648147 
L 642.37824 198.800038 
L 642.991104 197.980687 
L 643.894272 196.794087 
L 644.926464 195.668192 
L 645.76512 194.621783 
L 647.184384 193.379844 
L 647.603712 192.830815 
L 648.02304 191.523811 
L 649.377792 187.075234 
L 650.184192 185.261459 
L 651.055104 183.779047 
L 652.796928 181.438044 
L 657.312768 175.672736 
L 657.86112 173.358564 
L 658.570752 171.409963 
L 659.086848 170.648634 
L 659.506176 170.517833 
L 660.409344 170.319955 
L 661.054464 169.793397 
L 661.73184 169.011944 
L 662.925312 167.479224 
L 665.11872 164.69551 
L 665.957376 163.665871 
L 669.376512 159.228697 
L 673.376256 154.372288 
L 674.247168 154.851892 
L 674.860032 155.049771 
L 675.698688 155.197341 
L 676.827648 155.422051 
L 682.504704 157.306927 
L 684.47232 158.007887 
L 692.955648 160.76477 
L 696.40704 162.438353 
L 697.245696 162.810633 
L 697.665024 163.186267 
L 698.761728 167.707288 
L 699.052032 168.17683 
L 699.374592 168.2372 
L 699.63264 168.099691 
L 700.084224 167.646918 
L 701.148672 166.580386 
L 702.3744 166.057182 
L 703.567872 166.043767 
L 704.987136 166.302015 
L 709.728768 167.395377 
L 710.728704 167.693872 
L 717.986304 169.843705 
L 719.760384 170.319955 
L 720.566784 170.537956 
L 722.115072 170.91359 
L 722.566656 171.020914 
L 724.050432 171.373071 
L 724.856832 171.567595 
L 734.211072 173.405518 
L 734.6304 173.472595 
L 735.469056 173.62352 
L 737.307648 173.925368 
L 737.920512 174.036046 
L 738.533376 173.325025 
L 739.210752 173.140562 
L 741.0816 173.834814 
L 742.081536 174.237278 
L 744.371712 174.824206 
L 745.242624 174.985192 
L 745.92 175.092516 
L 747.661824 175.344057 
L 760.822272 176.601759 
L 761.467392 176.645359 
L 762.273792 176.702375 
L 762.822144 176.749329 
L 763.564032 176.79293 
L 766.596096 176.997516 
L 767.305728 177.034409 
L 769.886208 177.192041 
L 770.628096 177.222225 
L 773.047296 177.363088 
L 773.789184 177.393273 
L 775.821312 177.493889 
L 778.111488 177.597859 
L 778.369536 177.752137 
L 778.82112 178.288757 
L 779.272704 178.567129 
L 779.7888 178.714699 
L 780.337152 178.724761 
L 781.949952 178.278695 
L 783.143424 178.020447 
L 784.046592 177.943308 
L 790.626816 178.053986 
L 792.078336 178.094232 
L 795.981312 178.198202 
L 796.465152 178.235095 
L 801.174528 178.345773 
L 802.497024 178.372604 
L 807.819264 178.483282 
L 808.883712 178.483282 
L 815.689728 178.59396 
L 816.979968 178.617437 
L 818.65728 178.526882 
L 819.205632 177.966785 
L 819.689472 177.742076 
L 820.302336 177.664937 
L 821.07648 177.775614 
L 824.527872 178.382666 
L 827.52768 178.583898 
L 858.945024 178.691222 
L 859.557888 179.335165 
L 859.94496 179.516275 
L 860.525568 179.65043 
L 862.880256 179.539752 
L 864.62208 179.247965 
L 865.880064 179.09704 
L 870.42816 178.734822 
L 899.232768 178.657683 
L 899.78112 178.050632 
L 900.329472 177.778968 
L 902.264832 177.886292 
L 905.522688 178.453097 
L 907.68384 178.567129 
L 939.552768 178.657683 
L 940.617216 179.512921 
L 941.55264 179.697384 
L 943.455744 179.59006 
L 946.423296 179.083625 
L 947.52 178.915931 
L 947.52 178.915931 
" clip-path="url(#p9eafab0dc6)" style="fill: none; stroke: #008000; stroke-width: 2; stroke-linecap: square"/>
   </g>
   <g id="patch_10">
    <path d="M 100.8 242.888276 
L 100.8 150.157241 
" style="fill: none; stroke: #bcbcbc; stroke-width: 0.8; stroke-linejoin: miter; stroke-linecap: square"/>
   </g>
   <g id="patch_11">
    <path d="M 987.84 242.888276 
L 987.84 150.157241 
" style="fill: none; stroke: #bcbcbc; stroke-width: 0.8; stroke-linejoin: miter; stroke-linecap: square"/>
   </g>
   <g id="patch_12">
    <path d="M 100.8 242.888276 
L 987.84 242.888276 
" style="fill: none; stroke: #bcbcbc; stroke-width: 0.8; stroke-linejoin: miter; stroke-linecap: square"/>
   </g>
   <g id="patch_13">
    <path d="M 100.8 150.157241 
L 987.84 150.157241 
" style="fill: none; stroke: #bcbcbc; stroke-width: 0.8; stroke-linejoin: miter; stroke-linecap: square"/>
   </g>
  </g>
  <g id="axes_3">
   <g id="patch_14">
    <path d="M 100.8 354.165517 
L 987.84 354.165517 
L 987.84 261.434483 
L 100.8 261.434483 
z
" style="fill: #eeeeee"/>
   </g>
   <g id="matplotlib.axis_5">
    <g id="xtick_13">
     <g id="line2d_37">
      <path d="M 141.12 354.165517 
L 141.12 261.434483 
" clip-path="url(#p22966f37f7)" style="fill: none; stroke-dasharray: 1.85,0.8; stroke-dashoffset: 0; stroke: #b2b2b2; stroke-width: 0.5"/>
     </g>
     <g id="line2d_38">
      <g>
       <use xlink:href="#md180f22c81" x="141.12" y="354.165517" style="stroke: #000000; stroke-width: 0.8"/>
      </g>
     </g>
    </g>
    <g id="xtick_14">
     <g id="line2d_39">
      <path d="M 302.4 354.165517 
L 302.4 261.434483 
" clip-path="url(#p22966f37f7)" style="fill: none; stroke-dasharray: 1.85,0.8; stroke-dashoffset: 0; stroke: #b2b2b2; stroke-width: 0.5"/>
     </g>
     <g id="line2d_40">
      <g>
       <use xlink:href="#md180f22c81" x="302.4" y="354.165517" style="stroke: #000000; stroke-width: 0.8"/>
      </g>
     </g>
    </g>
    <g id="xtick_15">
     <g id="line2d_41">
      <path d="M 463.68 354.165517 
L 463.68 261.434483 
" clip-path="url(#p22966f37f7)" style="fill: none; stroke-dasharray: 1.85,0.8; stroke-dashoffset: 0; stroke: #b2b2b2; stroke-width: 0.5"/>
     </g>
     <g id="line2d_42">
      <g>
       <use xlink:href="#md180f22c81" x="463.68" y="354.165517" style="stroke: #000000; stroke-width: 0.8"/>
      </g>
     </g>
    </g>
    <g id="xtick_16">
     <g id="line2d_43">
      <path d="M 624.96 354.165517 
L 624.96 261.434483 
" clip-path="url(#p22966f37f7)" style="fill: none; stroke-dasharray: 1.85,0.8; stroke-dashoffset: 0; stroke: #b2b2b2; stroke-width: 0.5"/>
     </g>
     <g id="line2d_44">
      <g>
       <use xlink:href="#md180f22c81" x="624.96" y="354.165517" style="stroke: #000000; stroke-width: 0.8"/>
      </g>
     </g>
    </g>
    <g id="xtick_17">
     <g id="line2d_45">
      <path d="M 786.24 354.165517 
L 786.24 261.434483 
" clip-path="url(#p22966f37f7)" style="fill: none; stroke-dasharray: 1.85,0.8; stroke-dashoffset: 0; stroke: #b2b2b2; stroke-width: 0.5"/>
     </g>
     <g id="line2d_46">
      <g>
       <use xlink:href="#md180f22c81" x="786.24" y="354.165517" style="stroke: #000000; stroke-width: 0.8"/>
      </g>
     </g>
    </g>
    <g id="xtick_18">
     <g id="line2d_47">
      <path d="M 947.52 354.165517 
L 947.52 261.434483 
" clip-path="url(#p22966f37f7)" style="fill: none; stroke-dasharray: 1.85,0.8; stroke-dashoffset: 0; stroke: #b2b2b2; stroke-width: 0.5"/>
     </g>
     <g id="line2d_48">
      <g>
       <use xlink:href="#md180f22c81" x="947.52" y="354.165517" style="stroke: #000000; stroke-width: 0.8"/>
      </g>
     </g>
    </g>
   </g>
   <g id="matplotlib.axis_6">
    <g id="ytick_6">
     <g id="line2d_49">
      <path d="M 100.8 347.604182 
L 987.84 347.604182 
" clip-path="url(#p22966f37f7)" style="fill: none; stroke-dasharray: 1.85,0.8; stroke-dashoffset: 0; stroke: #b2b2b2; stroke-width: 0.5"/>
     </g>
     <g id="line2d_50">
      <g>
       <use xlink:href="#m60713d1681" x="100.8" y="347.604182" style="stroke: #000000; stroke-width: 0.8"/>
      </g>
     </g>
     <g id="text_8">
      <!-- 0 V -->
      <g transform="translate(74.36625 352.923089) scale(0.14 -0.14)">
       <use xlink:href="#DejaVuSans-30"/>
       <use xlink:href="#DejaVuSans-20" x="63.623047"/>
       <use xlink:href="#DejaVuSans-56" x="95.410156"/>
      </g>
     </g>
    </g>
    <g id="ytick_7">
     <g id="line2d_51">
      <path d="M 100.8 305.078937 
L 987.84 305.078937 
" clip-path="url(#p22966f37f7)" style="fill: none; stroke-dasharray: 1.85,0.8; stroke-dashoffset: 0; stroke: #b2b2b2; stroke-width: 0.5"/>
     </g>
     <g id="line2d_52">
      <g>
       <use xlink:href="#m60713d1681" x="100.8" y="305.078937" style="stroke: #000000; stroke-width: 0.8"/>
      </g>
     </g>
     <g id="text_9">
      <!-- 1 V -->
      <g transform="translate(74.36625 310.397843) scale(0.14 -0.14)">
       <use xlink:href="#DejaVuSans-31"/>
       <use xlink:href="#DejaVuSans-20" x="63.623047"/>
       <use xlink:href="#DejaVuSans-56" x="95.410156"/>
      </g>
     </g>
    </g>
    <g id="ytick_8">
     <g id="line2d_53">
      <path d="M 100.8 262.553692 
L 987.84 262.553692 
" clip-path="url(#p22966f37f7)" style="fill: none; stroke-dasharray: 1.85,0.8; stroke-dashoffset: 0; stroke: #b2b2b2; stroke-width: 0.5"/>
     </g>
     <g id="line2d_54">
      <g>
       <use xlink:href="#m60713d1681" x="100.8" y="262.553692" style="stroke: #000000; stroke-width: 0.8"/>
      </g>
     </g>
     <g id="text_10">
      <!-- 2 V -->
      <g transform="translate(74.36625 267.872598) scale(0.14 -0.14)">
       <use xlink:href="#DejaVuSans-32"/>
       <use xlink:href="#DejaVuSans-20" x="63.623047"/>
       <use xlink:href="#DejaVuSans-56" x="95.410156"/>
      </g>
     </g>
    </g>
    <g id="text_11">
     <g id="patch_15">
      <path d="M 34.8768 342.395313 
L 34.8768 273.204688 
L 11.247425 273.204688 
L 11.247425 342.395313 
z
" style="fill: #ffff00; opacity: 0.2; stroke: #eeeeee; stroke-width: 0.5; stroke-linejoin: miter"/>
     </g>
     <!-- CLK BUF -->
     <g transform="translate(26.925238 337.355313) rotate(-90) scale(0.14 -0.14)">
      <defs>
       <path id="DejaVuSans-43" d="M 4122 4306 
L 4122 3641 
Q 3803 3938 3442 4084 
Q 3081 4231 2675 4231 
Q 1875 4231 1450 3742 
Q 1025 3253 1025 2328 
Q 1025 1406 1450 917 
Q 1875 428 2675 428 
Q 3081 428 3442 575 
Q 3803 722 4122 1019 
L 4122 359 
Q 3791 134 3420 21 
Q 3050 -91 2638 -91 
Q 1578 -91 968 557 
Q 359 1206 359 2328 
Q 359 3453 968 4101 
Q 1578 4750 2638 4750 
Q 3056 4750 3426 4639 
Q 3797 4528 4122 4306 
z
" transform="scale(0.015625)"/>
       <path id="DejaVuSans-4b" d="M 628 4666 
L 1259 4666 
L 1259 2694 
L 3353 4666 
L 4166 4666 
L 1850 2491 
L 4331 0 
L 3500 0 
L 1259 2247 
L 1259 0 
L 628 0 
L 628 4666 
z
" transform="scale(0.015625)"/>
      </defs>
      <use xlink:href="#DejaVuSans-43"/>
      <use xlink:href="#DejaVuSans-4c" x="69.824219"/>
      <use xlink:href="#DejaVuSans-4b" x="125.537109"/>
      <use xlink:href="#DejaVuSans-20" x="191.113281"/>
      <use xlink:href="#DejaVuSans-42" x="222.900391"/>
      <use xlink:href="#DejaVuSans-55" x="291.503906"/>
      <use xlink:href="#DejaVuSans-46" x="364.697266"/>
     </g>
    </g>
   </g>
   <g id="line2d_55">
    <path d="M 141.12 347.603058 
L 173.376 347.603058 
L 173.601792 296.573888 
L 213.696 296.573888 
L 213.760512 337.278628 
L 213.825024 347.584755 
L 213.889536 347.523559 
L 213.954048 347.693443 
L 214.01856 347.608791 
L 215.373312 347.599444 
L 223.53408 347.603 
L 254.016 347.603029 
L 254.17728 296.416545 
L 254.241792 296.688706 
L 254.403072 296.565383 
L 254.854656 296.573888 
L 294.336 296.573888 
L 294.400512 337.242906 
L 294.465024 347.92151 
L 294.529536 347.182153 
L 294.626304 347.671011 
L 294.65856 347.64075 
L 294.884352 347.580633 
L 295.206912 347.619657 
L 295.497216 347.602727 
L 320.979456 347.603057 
L 334.656 347.60306 
L 334.81728 296.497343 
L 334.881792 296.590898 
L 335.204352 296.578141 
L 336.075264 296.573888 
L 374.976 296.573888 
L 375.040512 337.282455 
L 375.105024 347.604872 
L 375.169536 347.518167 
L 375.234048 347.687115 
L 375.29856 347.608932 
L 376.717824 347.599091 
L 385.168896 347.602988 
L 415.296 347.60306 
L 415.45728 296.416545 
L 415.521792 296.688706 
L 415.683072 296.561131 
L 416.650752 296.578141 
L 455.616 296.573888 
L 455.680512 337.245458 
L 455.745024 347.926749 
L 455.809536 346.985738 
L 455.906304 348.228113 
L 455.93856 347.67335 
L 456.132096 347.578643 
L 456.519168 347.603498 
L 490.387968 347.603057 
L 495.936 347.603058 
L 496.09728 296.488838 
L 496.161792 296.590898 
L 497.129472 296.573888 
L 536.256 296.573888 
L 536.320512 337.245458 
L 536.385024 347.926702 
L 536.449536 346.985823 
L 536.546304 348.228028 
L 536.57856 347.673345 
L 536.772096 347.578645 
L 537.159168 347.603498 
L 571.027968 347.603069 
L 576.576 347.60306 
L 576.705024 296.412292 
L 576.801792 296.573888 
L 577.640448 296.573888 
L 583.123968 296.684454 
L 584.769024 299.0361 
L 586.41408 301.842766 
L 593.316864 313.457686 
L 596.89728 318.823522 
L 600.542208 323.802803 
L 600.638976 323.914219 
L 600.897024 324.242514 
L 602.155008 325.6097 
L 602.187264 325.523374 
L 602.21952 325.639043 
L 604.058112 327.306458 
L 607.122432 329.588787 
L 608.799744 330.672331 
L 609.025536 330.576649 
L 609.573888 330.290454 
L 609.702912 330.229643 
L 610.089984 330.059542 
L 614.79936 328.298572 
L 614.831616 328.339396 
L 614.863872 328.233083 
L 614.896128 328.25307 
L 615.089664 328.184179 
L 615.218688 328.16164 
L 615.379968 328.098278 
L 616.896 327.560333 
L 616.992768 326.368351 
L 617.025024 326.05579 
L 617.05728 326.272244 
L 617.154048 337.246734 
L 617.315328 349.910029 
L 617.508864 349.932184 
L 623.66976 348.347524 
L 624.701952 348.13949 
L 630.508032 347.148694 
L 632.572416 347.051567 
L 636.023808 347.061858 
L 647.603712 347.108806 
L 648.248832 346.492275 
L 649.022976 346.087137 
L 650.022912 345.840575 
L 651.506688 345.73439 
L 654.248448 345.786611 
L 657.216 345.908913 
L 657.345024 292.057707 
L 657.441792 292.16402 
L 663.18336 281.78786 
L 663.731712 280.886325 
L 665.828352 277.505568 
L 667.312128 275.162427 
L 668.408832 273.355104 
L 668.98944 272.406791 
L 669.95712 270.83761 
L 670.634496 269.770226 
L 671.795712 267.996923 
L 673.279488 265.849398 
L 673.602048 265.730328 
L 675.505152 265.840893 
L 681.08544 268.167024 
L 682.69824 268.894206 
L 685.149696 269.982852 
L 686.439936 270.539933 
L 693.439488 273.418892 
L 694.020096 273.742084 
L 696.278016 275.047609 
L 696.697344 275.290003 
L 697.536 275.766286 
L 697.600512 348.231004 
L 697.729536 348.083442 
L 698.277888 348.08004 
L 737.436672 347.777337 
L 737.856 347.77601 
L 737.985024 290.114303 
L 738.081792 290.284404 
L 738.372096 290.352445 
L 738.920448 290.454505 
L 739.436544 290.565071 
L 739.984896 290.667132 
L 740.59776 290.777697 
L 741.146112 290.879758 
L 741.758976 290.990323 
L 742.307328 291.092384 
L 743.01696 291.198697 
L 743.371776 291.262485 
L 744.081408 291.368798 
L 744.436224 291.432586 
L 745.049088 291.538899 
L 745.403904 291.602687 
L 746.210304 291.709 
L 746.56512 291.772788 
L 747.274752 291.879101 
L 747.629568 291.942889 
L 748.435968 292.049202 
L 748.694016 292.070465 
L 749.403648 292.176778 
L 749.758464 292.240566 
L 750.661632 292.346879 
L 751.016448 292.410667 
L 751.919616 292.51698 
L 752.177664 292.538242 
L 752.984064 292.644555 
L 753.306624 292.704091 
L 754.338816 292.814656 
L 754.596864 292.835919 
L 755.403264 292.942232 
L 755.661312 292.963495 
L 756.56448 293.069808 
L 756.822528 293.091071 
L 757.725696 293.197384 
L 757.983744 293.218646 
L 758.886912 293.324959 
L 759.14496 293.346222 
L 760.144896 293.452535 
L 760.402944 293.473798 
L 761.499648 293.580111 
L 761.757696 293.601373 
L 762.8544 293.707687 
L 763.112448 293.728949 
L 764.30592 293.835262 
L 764.563968 293.856525 
L 765.75744 293.962838 
L 766.015488 293.984101 
L 767.402496 294.090414 
L 767.660544 294.111676 
L 769.047552 294.21799 
L 769.3056 294.239252 
L 770.789376 294.345565 
L 771.047424 294.362575 
L 772.627968 294.473141 
L 772.886016 294.490151 
L 774.563328 294.600717 
L 774.821376 294.617727 
L 776.692224 294.728292 
L 776.950272 294.745303 
L 778.176 294.830353 
L 778.208256 300.124746 
L 778.33728 347.588298 
L 778.466304 347.651662 
L 786.369024 347.640607 
L 818.496 347.616557 
L 818.625024 295.872222 
L 818.721792 296.114615 
L 819.173376 296.10611 
L 858.816 296.148636 
L 858.945024 347.929152 
L 859.106304 347.681625 
L 859.364352 347.586823 
L 859.719168 347.633115 
L 860.041728 347.615014 
L 898.265088 347.615236 
L 899.136 347.615236 
L 899.29728 295.927504 
L 899.361792 296.40804 
L 899.45856 295.97003 
L 899.523072 296.131626 
L 900.006912 296.148636 
L 939.456 296.148636 
L 939.488256 303.815937 
L 939.61728 347.564694 
L 939.649536 347.68837 
L 939.714048 347.570029 
L 939.810816 347.587581 
L 940.004352 347.640682 
L 940.230144 347.613887 
L 945.713664 347.61524 
L 947.52 347.615226 
L 947.52 347.615226 
" clip-path="url(#p22966f37f7)" style="fill: none; stroke: #0000ff; stroke-width: 2; stroke-linecap: square"/>
   </g>
   <g id="patch_16">
    <path d="M 100.8 354.165517 
L 100.8 261.434483 
" style="fill: none; stroke: #bcbcbc; stroke-width: 0.8; stroke-linejoin: miter; stroke-linecap: square"/>
   </g>
   <g id="patch_17">
    <path d="M 987.84 354.165517 
L 987.84 261.434483 
" style="fill: none; stroke: #bcbcbc; stroke-width: 0.8; stroke-linejoin: miter; stroke-linecap: square"/>
   </g>
   <g id="patch_18">
    <path d="M 100.8 354.165517 
L 987.84 354.165517 
" style="fill: none; stroke: #bcbcbc; stroke-width: 0.8; stroke-linejoin: miter; stroke-linecap: square"/>
   </g>
   <g id="patch_19">
    <path d="M 100.8 261.434483 
L 987.84 261.434483 
" style="fill: none; stroke: #bcbcbc; stroke-width: 0.8; stroke-linejoin: miter; stroke-linecap: square"/>
   </g>
  </g>
  <g id="axes_4">
   <g id="patch_20">
    <path d="M 100.8 465.442759 
L 987.84 465.442759 
L 987.84 372.711724 
L 100.8 372.711724 
z
" style="fill: #eeeeee"/>
   </g>
   <g id="matplotlib.axis_7">
    <g id="xtick_19">
     <g id="line2d_56">
      <path d="M 141.12 465.442759 
L 141.12 372.711724 
" clip-path="url(#pd77fe8dbea)" style="fill: none; stroke-dasharray: 1.85,0.8; stroke-dashoffset: 0; stroke: #b2b2b2; stroke-width: 0.5"/>
     </g>
     <g id="line2d_57">
      <g>
       <use xlink:href="#md180f22c81" x="141.12" y="465.442759" style="stroke: #000000; stroke-width: 0.8"/>
      </g>
     </g>
    </g>
    <g id="xtick_20">
     <g id="line2d_58">
      <path d="M 302.4 465.442759 
L 302.4 372.711724 
" clip-path="url(#pd77fe8dbea)" style="fill: none; stroke-dasharray: 1.85,0.8; stroke-dashoffset: 0; stroke: #b2b2b2; stroke-width: 0.5"/>
     </g>
     <g id="line2d_59">
      <g>
       <use xlink:href="#md180f22c81" x="302.4" y="465.442759" style="stroke: #000000; stroke-width: 0.8"/>
      </g>
     </g>
    </g>
    <g id="xtick_21">
     <g id="line2d_60">
      <path d="M 463.68 465.442759 
L 463.68 372.711724 
" clip-path="url(#pd77fe8dbea)" style="fill: none; stroke-dasharray: 1.85,0.8; stroke-dashoffset: 0; stroke: #b2b2b2; stroke-width: 0.5"/>
     </g>
     <g id="line2d_61">
      <g>
       <use xlink:href="#md180f22c81" x="463.68" y="465.442759" style="stroke: #000000; stroke-width: 0.8"/>
      </g>
     </g>
    </g>
    <g id="xtick_22">
     <g id="line2d_62">
      <path d="M 624.96 465.442759 
L 624.96 372.711724 
" clip-path="url(#pd77fe8dbea)" style="fill: none; stroke-dasharray: 1.85,0.8; stroke-dashoffset: 0; stroke: #b2b2b2; stroke-width: 0.5"/>
     </g>
     <g id="line2d_63">
      <g>
       <use xlink:href="#md180f22c81" x="624.96" y="465.442759" style="stroke: #000000; stroke-width: 0.8"/>
      </g>
     </g>
    </g>
    <g id="xtick_23">
     <g id="line2d_64">
      <path d="M 786.24 465.442759 
L 786.24 372.711724 
" clip-path="url(#pd77fe8dbea)" style="fill: none; stroke-dasharray: 1.85,0.8; stroke-dashoffset: 0; stroke: #b2b2b2; stroke-width: 0.5"/>
     </g>
     <g id="line2d_65">
      <g>
       <use xlink:href="#md180f22c81" x="786.24" y="465.442759" style="stroke: #000000; stroke-width: 0.8"/>
      </g>
     </g>
    </g>
    <g id="xtick_24">
     <g id="line2d_66">
      <path d="M 947.52 465.442759 
L 947.52 372.711724 
" clip-path="url(#pd77fe8dbea)" style="fill: none; stroke-dasharray: 1.85,0.8; stroke-dashoffset: 0; stroke: #b2b2b2; stroke-width: 0.5"/>
     </g>
     <g id="line2d_67">
      <g>
       <use xlink:href="#md180f22c81" x="947.52" y="465.442759" style="stroke: #000000; stroke-width: 0.8"/>
      </g>
     </g>
    </g>
   </g>
   <g id="matplotlib.axis_8">
    <g id="ytick_9">
     <g id="line2d_68">
      <path d="M 100.8 436.019426 
L 987.84 436.019426 
" clip-path="url(#pd77fe8dbea)" style="fill: none; stroke-dasharray: 1.85,0.8; stroke-dashoffset: 0; stroke: #b2b2b2; stroke-width: 0.5"/>
     </g>
     <g id="line2d_69">
      <g>
       <use xlink:href="#m60713d1681" x="100.8" y="436.019426" style="stroke: #000000; stroke-width: 0.8"/>
      </g>
     </g>
     <g id="text_12">
      <!-- 0 V -->
      <g transform="translate(74.36625 441.338332) scale(0.14 -0.14)">
       <use xlink:href="#DejaVuSans-30"/>
       <use xlink:href="#DejaVuSans-20" x="63.623047"/>
       <use xlink:href="#DejaVuSans-56" x="95.410156"/>
      </g>
     </g>
    </g>
    <g id="ytick_10">
     <g id="line2d_70">
      <path d="M 100.8 391.98287 
L 987.84 391.98287 
" clip-path="url(#pd77fe8dbea)" style="fill: none; stroke-dasharray: 1.85,0.8; stroke-dashoffset: 0; stroke: #b2b2b2; stroke-width: 0.5"/>
     </g>
     <g id="line2d_71">
      <g>
       <use xlink:href="#m60713d1681" x="100.8" y="391.98287" style="stroke: #000000; stroke-width: 0.8"/>
      </g>
     </g>
     <g id="text_13">
      <!-- 1 V -->
      <g transform="translate(74.36625 397.301776) scale(0.14 -0.14)">
       <use xlink:href="#DejaVuSans-31"/>
       <use xlink:href="#DejaVuSans-20" x="63.623047"/>
       <use xlink:href="#DejaVuSans-56" x="95.410156"/>
      </g>
     </g>
    </g>
    <g id="text_14">
     <g id="patch_21">
      <path d="M 34.8768 454.693023 
L 34.8768 383.46146 
L 11.247425 383.46146 
L 11.247425 454.693023 
z
" style="fill: #ffff00; opacity: 0.2; stroke: #eeeeee; stroke-width: 0.5; stroke-linejoin: miter"/>
     </g>
     <!-- DFF OUT -->
     <g transform="translate(26.925238 449.653023) rotate(-90) scale(0.14 -0.14)">
      <defs>
       <path id="DejaVuSans-4f" d="M 2522 4238 
Q 1834 4238 1429 3725 
Q 1025 3213 1025 2328 
Q 1025 1447 1429 934 
Q 1834 422 2522 422 
Q 3209 422 3611 934 
Q 4013 1447 4013 2328 
Q 4013 3213 3611 3725 
Q 3209 4238 2522 4238 
z
M 2522 4750 
Q 3503 4750 4090 4092 
Q 4678 3434 4678 2328 
Q 4678 1225 4090 567 
Q 3503 -91 2522 -91 
Q 1538 -91 948 565 
Q 359 1222 359 2328 
Q 359 3434 948 4092 
Q 1538 4750 2522 4750 
z
" transform="scale(0.015625)"/>
       <path id="DejaVuSans-54" d="M -19 4666 
L 3928 4666 
L 3928 4134 
L 2272 4134 
L 2272 0 
L 1638 0 
L 1638 4134 
L -19 4134 
L -19 4666 
z
" transform="scale(0.015625)"/>
      </defs>
      <use xlink:href="#DejaVuSans-44"/>
      <use xlink:href="#DejaVuSans-46" x="77.001953"/>
      <use xlink:href="#DejaVuSans-46" x="134.521484"/>
      <use xlink:href="#DejaVuSans-20" x="192.041016"/>
      <use xlink:href="#DejaVuSans-4f" x="223.828125"/>
      <use xlink:href="#DejaVuSans-55" x="302.539062"/>
      <use xlink:href="#DejaVuSans-54" x="375.732422"/>
     </g>
    </g>
   </g>
   <g id="line2d_72">
    <path d="M 141.12 402.792523 
L 173.408256 402.846248 
L 173.440512 404.669361 
L 173.601792 436.022113 
L 174.053376 436.016218 
L 183.37536 436.018249 
L 254.048256 436.020096 
L 254.080512 436.196135 
L 254.112768 435.904944 
L 254.306304 431.605642 
L 254.596608 430.743846 
L 254.693376 430.129096 
L 255.14496 422.413891 
L 255.370752 404.280518 
L 255.596544 383.602713 
L 255.757824 383.241613 
L 255.983616 383.171155 
L 256.822272 383.175558 
L 295.755264 383.263632 
L 296.239104 386.112797 
L 296.561664 385.452248 
L 297.819648 383.580695 
L 298.980864 383.219595 
L 334.688256 383.193173 
L 334.720512 383.065467 
L 334.752768 383.712804 
L 334.785024 386.914262 
L 334.914048 436.001374 
L 334.97856 435.962618 
L 335.13984 436.010196 
L 335.4624 436.021671 
L 336.720384 436.01831 
L 403.877376 436.018207 
L 415.328256 436.02007 
L 415.360512 436.195523 
L 415.392768 435.907383 
L 415.586304 431.503036 
L 415.844352 430.613058 
L 415.908864 430.371297 
L 416.1024 425.149002 
L 416.521728 409.945821 
L 416.9088 383.320879 
L 417.102336 383.179962 
L 417.682944 383.210788 
L 418.166784 383.166751 
L 418.908672 383.175558 
L 495.968256 383.193173 
L 496.000512 383.342897 
L 496.065024 383.140329 
L 496.323072 383.166751 
L 576.608256 383.188769 
L 576.640512 383.369319 
L 576.705024 383.15354 
L 576.89856 383.171155 
L 583.091712 383.246017 
L 584.027136 384.558306 
L 586.639872 389.050035 
L 590.994432 396.993789 
L 591.57504 398.580867 
L 592.252416 401.276344 
L 593.703936 408.163662 
L 594.026496 409.912794 
L 594.15552 410.386187 
L 594.187776 410.080133 
L 594.252288 410.408645 
L 594.284544 410.287104 
L 594.445824 411.985594 
L 594.703872 413.299205 
L 594.768384 413.092673 
L 594.832896 413.255609 
L 594.865152 413.393003 
L 595.026432 415.043933 
L 595.348992 416.638497 
L 595.381248 416.479085 
L 595.413504 416.319672 
L 595.478016 416.517837 
L 595.639296 418.18418 
L 595.897344 419.380653 
L 595.961856 419.295222 
L 596.058624 419.636946 
L 596.219904 421.353051 
L 597.993984 430.384067 
L 598.51008 432.664633 
L 598.542336 431.926052 
L 598.606848 432.842408 
L 598.800384 433.935131 
L 599.122944 435.243149 
L 599.1552 434.843958 
L 599.219712 435.062115 
L 599.413248 436.609471 
L 599.80032 438.109621 
L 599.832576 437.814532 
L 599.897088 438.138773 
L 600.219648 440.013409 
L 600.638976 441.370307 
L 600.671232 441.305133 
L 600.703488 441.110932 
L 600.735744 441.170381 
L 600.897024 441.919884 
L 600.92928 441.868801 
L 601.09056 442.680395 
L 601.703424 444.242812 
L 601.800192 444.28817 
L 602.090496 444.772572 
L 602.445312 445.586808 
L 602.54208 446.254402 
L 602.574336 445.979173 
L 602.896896 447.245224 
L 603.800064 449.605584 
L 604.864512 452.235887 
L 604.896768 452.068108 
L 604.929024 452.149576 
L 605.090304 452.836986 
L 607.251456 457.633888 
L 607.412736 458.183024 
L 608.864256 461.227712 
L 608.896512 461.212739 
L 609.057792 461.135235 
L 609.219072 460.734062 
L 609.573888 460.001294 
L 609.606144 460.05678 
L 609.6384 459.898688 
L 609.670656 459.917184 
L 609.702912 459.846725 
L 611.025408 457.162697 
L 611.122176 457.06978 
L 611.702784 456.161306 
L 611.864064 455.911178 
L 612.025344 455.45584 
L 612.089856 455.372171 
L 612.122112 455.572097 
L 612.154368 455.318887 
L 612.186624 455.477418 
L 612.993024 454.310449 
L 613.315584 453.947588 
L 613.638144 453.330196 
L 613.799424 453.086674 
L 613.83168 453.301572 
L 613.863936 452.964252 
L 613.99296 452.835225 
L 614.025216 452.880582 
L 614.057472 452.940472 
L 614.121984 452.955004 
L 614.218752 452.549868 
L 614.380032 452.340694 
L 614.444544 452.52873 
L 614.573568 452.13064 
L 614.79936 451.867742 
L 614.831616 452.089686 
L 614.896128 451.770421 
L 615.025152 451.712733 
L 615.154176 451.547156 
L 615.218688 451.60044 
L 615.347712 451.382018 
L 615.799296 450.959267 
L 616.0896 450.409251 
L 616.57344 449.696739 
L 616.670208 449.812996 
L 616.799232 449.411823 
L 616.960512 449.267383 
L 616.992768 449.226429 
L 617.025024 449.346649 
L 617.05728 449.442208 
L 617.089536 449.207053 
L 617.121792 449.234796 
L 617.154048 449.188998 
L 617.21856 448.980265 
L 617.250816 449.201769 
L 617.283072 449.229952 
L 617.315328 449.125585 
L 617.476608 448.715605 
L 618.734592 447.66181 
L 618.960384 447.04706 
L 619.057152 446.879721 
L 619.089408 447.183133 
L 619.15392 446.789446 
L 619.282944 446.557373 
L 619.3152 446.578511 
L 619.347456 446.590401 
L 619.379712 446.810143 
L 619.411968 446.415576 
L 619.47648 446.755097 
L 619.605504 446.353484 
L 619.63776 446.486915 
L 619.670016 446.379906 
L 619.831296 445.991944 
L 619.863552 446.345558 
L 619.928064 445.880531 
L 619.96032 446.009999 
L 619.992576 445.763394 
L 620.1216 445.69822 
L 620.508672 445.40846 
L 620.540928 445.604863 
L 620.60544 445.461744 
L 620.76672 445.306295 
L 620.895744 445.273267 
L 621.702144 444.306225 
L 621.863424 443.810373 
L 621.89568 444.139766 
L 621.960192 443.681786 
L 621.992448 443.776024 
L 622.024704 443.543071 
L 622.185984 443.37265 
L 622.444032 443.091256 
L 622.476288 443.536025 
L 622.5408 443.206632 
L 622.573056 443.251109 
L 622.70208 442.79445 
L 622.734336 443.111953 
L 622.798848 442.72223 
L 622.86336 442.750853 
L 622.895616 442.648689 
L 622.927872 442.651331 
L 622.960128 443.062632 
L 622.992384 442.544322 
L 623.056896 442.965752 
L 623.18592 442.420579 
L 623.218176 442.43291 
L 623.250432 442.683478 
L 623.282688 442.355405 
L 623.3472 442.596726 
L 623.411712 442.322378 
L 623.476224 442.372579 
L 623.540736 442.373901 
L 623.702016 442.234305 
L 623.927808 442.141828 
L 624.701952 441.374711 
L 625.024512 440.862566 
L 625.12128 440.437613 
L 625.153536 440.864768 
L 625.218048 440.286436 
L 625.250304 440.374157 
L 625.28256 440.228704 
L 625.44384 439.987207 
L 625.476096 440.487374 
L 625.508352 439.892837 
L 625.572864 440.380145 
L 625.701888 439.723384 
L 625.830912 439.619106 
L 625.863168 440.040756 
L 625.92768 439.470218 
L 625.992192 439.377565 
L 626.024448 439.762136 
L 626.121216 439.361448 
L 626.153472 439.531825 
L 626.217984 439.437103 
L 626.25024 439.650196 
L 626.314752 439.45846 
L 626.41152 439.199173 
L 626.443776 439.220179 
L 626.5728 439.131665 
L 626.959872 438.997398 
L 628.34688 437.443259 
L 628.798464 436.67099 
L 628.959744 436.055992 
L 628.992 436.07367 
L 629.379072 435.586225 
L 629.927424 434.353479 
L 630.056448 433.477724 
L 630.088704 433.436109 
L 630.12096 434.101854 
L 630.185472 433.293387 
L 630.314496 433.129571 
L 630.346752 433.629782 
L 630.411264 433.187347 
L 630.540288 433.101431 
L 630.572544 433.188976 
L 630.637056 433.070297 
L 631.378944 431.547513 
L 631.475712 431.256872 
L 631.604736 430.236985 
L 631.636992 430.219371 
L 631.669248 430.942451 
L 631.73376 430.613498 
L 631.89504 430.082417 
L 631.927296 430.354123 
L 631.991808 430.156839 
L 632.249856 429.721758 
L 632.507904 429.101723 
L 634.378752 425.104525 
L 634.411008 425.165295 
L 634.443264 425.066213 
L 634.6368 424.70115 
L 635.991552 421.659985 
L 636.056064 421.25573 
L 636.120576 421.378151 
L 636.2496 421.134629 
L 636.636672 420.086119 
L 637.249536 418.82271 
L 637.281792 418.155556 
L 637.346304 418.320253 
L 637.37856 418.482748 
L 637.410816 418.287226 
L 637.443072 417.892218 
L 637.53984 417.999667 
L 637.604352 418.044584 
L 637.636608 417.988217 
L 640.249344 412.559831 
L 640.313856 412.554106 
L 640.346112 412.495978 
L 640.475136 412.045924 
L 640.571904 411.740751 
L 640.539648 412.119906 
L 640.60416 411.773779 
L 640.668672 411.881668 
L 640.700928 411.827063 
L 641.24928 410.673305 
L 642.087936 409.28219 
L 642.120192 409.324465 
L 642.152448 409.232429 
L 642.604032 408.360505 
L 643.603968 406.659813 
L 644.571648 405.339597 
L 644.79744 404.675086 
L 645.539328 403.667529 
L 646.184448 403.067311 
L 647.184384 401.4155 
L 647.345664 401.145556 
L 647.70048 400.786658 
L 648.603648 397.848979 
L 654.700032 384.302894 
L 655.76448 382.030608 
L 656.796672 379.91245 
L 657.280512 378.978875 
L 657.312768 378.150987 
L 657.37728 402.55957 
L 657.506304 434.254132 
L 657.667584 434.284077 
L 667.666944 434.57146 
L 669.924864 434.563753 
L 673.376256 434.73827 
L 674.085888 435.461086 
L 674.892288 435.913936 
L 675.859968 436.192229 
L 677.279232 436.360722 
L 680.11776 436.430564 
L 691.56864 436.364879 
L 693.600768 436.467233 
L 695.794176 436.530778 
L 697.568256 436.529369 
L 697.600512 436.406749 
L 697.665024 436.535094 
L 703.761408 436.454727 
L 735.404544 436.211553 
L 737.888256 436.199892 
L 737.920512 436.538617 
L 738.243072 429.850344 
L 738.50112 428.319634 
L 738.6624 425.763312 
L 738.82368 418.639078 
L 739.017216 398.521417 
L 739.243008 377.111725 
L 739.372032 376.926771 
L 739.404288 376.939982 
L 739.984896 377.058881 
L 740.59776 377.168972 
L 740.92032 377.235027 
L 741.533184 377.331907 
L 741.888 377.411173 
L 742.53312 377.521265 
L 742.85568 377.587319 
L 743.5008 377.697411 
L 743.82336 377.759062 
L 748.435968 378.490069 
L 748.694016 378.512087 
L 749.403648 378.622179 
L 749.726208 378.68383 
L 757.983744 379.701074 
L 758.886912 379.811166 
L 759.14496 379.833184 
L 760.144896 379.943275 
L 760.402944 379.965294 
L 761.499648 380.075385 
L 761.757696 380.097403 
L 762.8544 380.207495 
L 763.112448 380.229513 
L 764.30592 380.339604 
L 764.563968 380.361623 
L 765.75744 380.471714 
L 766.015488 380.493732 
L 767.402496 380.603824 
L 767.660544 380.625842 
L 769.047552 380.735933 
L 769.3056 380.757952 
L 770.789376 380.868043 
L 771.047424 380.885658 
L 772.595712 380.986942 
L 772.950528 381.022171 
L 774.563328 381.132262 
L 774.821376 381.149877 
L 776.659968 381.251161 
L 777.014784 381.28639 
L 778.272768 381.326023 
L 778.33728 381.409693 
L 778.401792 381.374463 
L 778.917888 381.396482 
L 779.175936 381.414096 
L 781.304832 381.51538 
L 781.659648 381.546206 
L 782.820864 381.594646 
L 783.33696 381.634279 
L 785.75616 381.735563 
L 786.110976 381.766389 
L 788.852736 381.867673 
L 789.207552 381.898498 
L 792.239616 381.999782 
L 792.594432 382.030608 
L 793.723392 382.074645 
L 797.36832 382.175929 
L 797.723136 382.211158 
L 798.529536 382.211158 
L 801.851904 382.321249 
L 802.174464 382.343268 
L 803.01312 382.338864 
L 807.04512 382.440148 
L 807.399936 382.475377 
L 808.238592 382.470974 
L 813.33504 382.572258 
L 813.689856 382.603083 
L 818.528256 382.673542 
L 818.560512 382.942165 
L 818.625024 382.655927 
L 818.786304 382.686753 
L 899.168256 382.730789 
L 899.200512 382.955376 
L 899.265024 382.730789 
L 899.45856 382.708771 
L 900.458496 382.735193 
L 947.52 382.735193 
L 947.52 382.735193 
" clip-path="url(#pd77fe8dbea)" style="fill: none; stroke: #ff00ff; stroke-width: 2; stroke-linecap: square"/>
   </g>
   <g id="patch_22">
    <path d="M 100.8 465.442759 
L 100.8 372.711724 
" style="fill: none; stroke: #bcbcbc; stroke-width: 0.8; stroke-linejoin: miter; stroke-linecap: square"/>
   </g>
   <g id="patch_23">
    <path d="M 987.84 465.442759 
L 987.84 372.711724 
" style="fill: none; stroke: #bcbcbc; stroke-width: 0.8; stroke-linejoin: miter; stroke-linecap: square"/>
   </g>
   <g id="patch_24">
    <path d="M 100.8 465.442759 
L 987.84 465.442759 
" style="fill: none; stroke: #bcbcbc; stroke-width: 0.8; stroke-linejoin: miter; stroke-linecap: square"/>
   </g>
   <g id="patch_25">
    <path d="M 100.8 372.711724 
L 987.84 372.711724 
" style="fill: none; stroke: #bcbcbc; stroke-width: 0.8; stroke-linejoin: miter; stroke-linecap: square"/>
   </g>
  </g>
  <g id="axes_5">
   <g id="patch_26">
    <path d="M 100.8 576.72 
L 987.84 576.72 
L 987.84 483.988966 
L 100.8 483.988966 
z
" style="fill: #eeeeee"/>
   </g>
   <g id="matplotlib.axis_9">
    <g id="xtick_25">
     <g id="line2d_73">
      <path d="M 141.12 576.72 
L 141.12 483.988966 
" clip-path="url(#pe5f12d4a42)" style="fill: none; stroke-dasharray: 1.85,0.8; stroke-dashoffset: 0; stroke: #b2b2b2; stroke-width: 0.5"/>
     </g>
     <g id="line2d_74">
      <g>
       <use xlink:href="#md180f22c81" x="141.12" y="576.72" style="stroke: #000000; stroke-width: 0.8"/>
      </g>
     </g>
     <g id="text_15">
      <!-- 0 s -->
      <g transform="translate(130.795 590.857813) scale(0.14 -0.14)">
       <defs>
        <path id="DejaVuSans-73" d="M 2834 3397 
L 2834 2853 
Q 2591 2978 2328 3040 
Q 2066 3103 1784 3103 
Q 1356 3103 1142 2972 
Q 928 2841 928 2578 
Q 928 2378 1081 2264 
Q 1234 2150 1697 2047 
L 1894 2003 
Q 2506 1872 2764 1633 
Q 3022 1394 3022 966 
Q 3022 478 2636 193 
Q 2250 -91 1575 -91 
Q 1294 -91 989 -36 
Q 684 19 347 128 
L 347 722 
Q 666 556 975 473 
Q 1284 391 1588 391 
Q 1994 391 2212 530 
Q 2431 669 2431 922 
Q 2431 1156 2273 1281 
Q 2116 1406 1581 1522 
L 1381 1569 
Q 847 1681 609 1914 
Q 372 2147 372 2553 
Q 372 3047 722 3315 
Q 1072 3584 1716 3584 
Q 2034 3584 2315 3537 
Q 2597 3491 2834 3397 
z
" transform="scale(0.015625)"/>
       </defs>
       <use xlink:href="#DejaVuSans-30"/>
       <use xlink:href="#DejaVuSans-20" x="63.623047"/>
       <use xlink:href="#DejaVuSans-73" x="95.410156"/>
      </g>
     </g>
    </g>
    <g id="xtick_26">
     <g id="line2d_75">
      <path d="M 302.4 576.72 
L 302.4 483.988966 
" clip-path="url(#pe5f12d4a42)" style="fill: none; stroke-dasharray: 1.85,0.8; stroke-dashoffset: 0; stroke: #b2b2b2; stroke-width: 0.5"/>
     </g>
     <g id="line2d_76">
      <g>
       <use xlink:href="#md180f22c81" x="302.4" y="576.72" style="stroke: #000000; stroke-width: 0.8"/>
      </g>
     </g>
     <g id="text_16">
      <!-- 50 ns -->
      <g transform="translate(283.185 590.857813) scale(0.14 -0.14)">
       <defs>
        <path id="DejaVuSans-35" d="M 691 4666 
L 3169 4666 
L 3169 4134 
L 1269 4134 
L 1269 2991 
Q 1406 3038 1543 3061 
Q 1681 3084 1819 3084 
Q 2600 3084 3056 2656 
Q 3513 2228 3513 1497 
Q 3513 744 3044 326 
Q 2575 -91 1722 -91 
Q 1428 -91 1123 -41 
Q 819 9 494 109 
L 494 744 
Q 775 591 1075 516 
Q 1375 441 1709 441 
Q 2250 441 2565 725 
Q 2881 1009 2881 1497 
Q 2881 1984 2565 2268 
Q 2250 2553 1709 2553 
Q 1456 2553 1204 2497 
Q 953 2441 691 2322 
L 691 4666 
z
" transform="scale(0.015625)"/>
        <path id="DejaVuSans-6e" d="M 3513 2113 
L 3513 0 
L 2938 0 
L 2938 2094 
Q 2938 2591 2744 2837 
Q 2550 3084 2163 3084 
Q 1697 3084 1428 2787 
Q 1159 2491 1159 1978 
L 1159 0 
L 581 0 
L 581 3500 
L 1159 3500 
L 1159 2956 
Q 1366 3272 1645 3428 
Q 1925 3584 2291 3584 
Q 2894 3584 3203 3211 
Q 3513 2838 3513 2113 
z
" transform="scale(0.015625)"/>
       </defs>
       <use xlink:href="#DejaVuSans-35"/>
       <use xlink:href="#DejaVuSans-30" x="63.623047"/>
       <use xlink:href="#DejaVuSans-20" x="127.246094"/>
       <use xlink:href="#DejaVuSans-6e" x="159.033203"/>
       <use xlink:href="#DejaVuSans-73" x="222.412109"/>
      </g>
     </g>
    </g>
    <g id="xtick_27">
     <g id="line2d_77">
      <path d="M 463.68 576.72 
L 463.68 483.988966 
" clip-path="url(#pe5f12d4a42)" style="fill: none; stroke-dasharray: 1.85,0.8; stroke-dashoffset: 0; stroke: #b2b2b2; stroke-width: 0.5"/>
     </g>
     <g id="line2d_78">
      <g>
       <use xlink:href="#md180f22c81" x="463.68" y="576.72" style="stroke: #000000; stroke-width: 0.8"/>
      </g>
     </g>
     <g id="text_17">
      <!-- 100 ns -->
      <g transform="translate(440.01125 590.857813) scale(0.14 -0.14)">
       <use xlink:href="#DejaVuSans-31"/>
       <use xlink:href="#DejaVuSans-30" x="63.623047"/>
       <use xlink:href="#DejaVuSans-30" x="127.246094"/>
       <use xlink:href="#DejaVuSans-20" x="190.869141"/>
       <use xlink:href="#DejaVuSans-6e" x="222.65625"/>
       <use xlink:href="#DejaVuSans-73" x="286.035156"/>
      </g>
     </g>
    </g>
    <g id="xtick_28">
     <g id="line2d_79">
      <path d="M 624.96 576.72 
L 624.96 483.988966 
" clip-path="url(#pe5f12d4a42)" style="fill: none; stroke-dasharray: 1.85,0.8; stroke-dashoffset: 0; stroke: #b2b2b2; stroke-width: 0.5"/>
     </g>
     <g id="line2d_80">
      <g>
       <use xlink:href="#md180f22c81" x="624.96" y="576.72" style="stroke: #000000; stroke-width: 0.8"/>
      </g>
     </g>
     <g id="text_18">
      <!-- 150 ns -->
      <g transform="translate(601.29125 590.857813) scale(0.14 -0.14)">
       <use xlink:href="#DejaVuSans-31"/>
       <use xlink:href="#DejaVuSans-35" x="63.623047"/>
       <use xlink:href="#DejaVuSans-30" x="127.246094"/>
       <use xlink:href="#DejaVuSans-20" x="190.869141"/>
       <use xlink:href="#DejaVuSans-6e" x="222.65625"/>
       <use xlink:href="#DejaVuSans-73" x="286.035156"/>
      </g>
     </g>
    </g>
    <g id="xtick_29">
     <g id="line2d_81">
      <path d="M 786.24 576.72 
L 786.24 483.988966 
" clip-path="url(#pe5f12d4a42)" style="fill: none; stroke-dasharray: 1.85,0.8; stroke-dashoffset: 0; stroke: #b2b2b2; stroke-width: 0.5"/>
     </g>
     <g id="line2d_82">
      <g>
       <use xlink:href="#md180f22c81" x="786.24" y="576.72" style="stroke: #000000; stroke-width: 0.8"/>
      </g>
     </g>
     <g id="text_19">
      <!-- 200 ns -->
      <g transform="translate(762.57125 590.857813) scale(0.14 -0.14)">
       <use xlink:href="#DejaVuSans-32"/>
       <use xlink:href="#DejaVuSans-30" x="63.623047"/>
       <use xlink:href="#DejaVuSans-30" x="127.246094"/>
       <use xlink:href="#DejaVuSans-20" x="190.869141"/>
       <use xlink:href="#DejaVuSans-6e" x="222.65625"/>
       <use xlink:href="#DejaVuSans-73" x="286.035156"/>
      </g>
     </g>
    </g>
    <g id="xtick_30">
     <g id="line2d_83">
      <path d="M 947.52 576.72 
L 947.52 483.988966 
" clip-path="url(#pe5f12d4a42)" style="fill: none; stroke-dasharray: 1.85,0.8; stroke-dashoffset: 0; stroke: #b2b2b2; stroke-width: 0.5"/>
     </g>
     <g id="line2d_84">
      <g>
       <use xlink:href="#md180f22c81" x="947.52" y="576.72" style="stroke: #000000; stroke-width: 0.8"/>
      </g>
     </g>
     <g id="text_20">
      <!-- 250 ns -->
      <g transform="translate(923.85125 590.857813) scale(0.14 -0.14)">
       <use xlink:href="#DejaVuSans-32"/>
       <use xlink:href="#DejaVuSans-35" x="63.623047"/>
       <use xlink:href="#DejaVuSans-30" x="127.246094"/>
       <use xlink:href="#DejaVuSans-20" x="190.869141"/>
       <use xlink:href="#DejaVuSans-6e" x="222.65625"/>
       <use xlink:href="#DejaVuSans-73" x="286.035156"/>
      </g>
     </g>
    </g>
    <g id="text_21">
     <!-- Time -->
     <g transform="translate(527.192969 608.407187) scale(0.14 -0.14)">
      <defs>
       <path id="DejaVuSans-69" d="M 603 3500 
L 1178 3500 
L 1178 0 
L 603 0 
L 603 3500 
z
M 603 4863 
L 1178 4863 
L 1178 4134 
L 603 4134 
L 603 4863 
z
" transform="scale(0.015625)"/>
       <path id="DejaVuSans-6d" d="M 3328 2828 
Q 3544 3216 3844 3400 
Q 4144 3584 4550 3584 
Q 5097 3584 5394 3201 
Q 5691 2819 5691 2113 
L 5691 0 
L 5113 0 
L 5113 2094 
Q 5113 2597 4934 2840 
Q 4756 3084 4391 3084 
Q 3944 3084 3684 2787 
Q 3425 2491 3425 1978 
L 3425 0 
L 2847 0 
L 2847 2094 
Q 2847 2600 2669 2842 
Q 2491 3084 2119 3084 
Q 1678 3084 1418 2786 
Q 1159 2488 1159 1978 
L 1159 0 
L 581 0 
L 581 3500 
L 1159 3500 
L 1159 2956 
Q 1356 3278 1631 3431 
Q 1906 3584 2284 3584 
Q 2666 3584 2933 3390 
Q 3200 3197 3328 2828 
z
" transform="scale(0.015625)"/>
       <path id="DejaVuSans-65" d="M 3597 1894 
L 3597 1613 
L 953 1613 
Q 991 1019 1311 708 
Q 1631 397 2203 397 
Q 2534 397 2845 478 
Q 3156 559 3463 722 
L 3463 178 
Q 3153 47 2828 -22 
Q 2503 -91 2169 -91 
Q 1331 -91 842 396 
Q 353 884 353 1716 
Q 353 2575 817 3079 
Q 1281 3584 2069 3584 
Q 2775 3584 3186 3129 
Q 3597 2675 3597 1894 
z
M 3022 2063 
Q 3016 2534 2758 2815 
Q 2500 3097 2075 3097 
Q 1594 3097 1305 2825 
Q 1016 2553 972 2059 
L 3022 2063 
z
" transform="scale(0.015625)"/>
      </defs>
      <use xlink:href="#DejaVuSans-54"/>
      <use xlink:href="#DejaVuSans-69" x="57.958984"/>
      <use xlink:href="#DejaVuSans-6d" x="85.742188"/>
      <use xlink:href="#DejaVuSans-65" x="183.154297"/>
     </g>
    </g>
   </g>
   <g id="matplotlib.axis_10">
    <g id="ytick_11">
     <g id="line2d_85">
      <path d="M 100.8 569.758218 
L 987.84 569.758218 
" clip-path="url(#pe5f12d4a42)" style="fill: none; stroke-dasharray: 1.85,0.8; stroke-dashoffset: 0; stroke: #b2b2b2; stroke-width: 0.5"/>
     </g>
     <g id="line2d_86">
      <g>
       <use xlink:href="#m60713d1681" x="100.8" y="569.758218" style="stroke: #000000; stroke-width: 0.8"/>
      </g>
     </g>
     <g id="text_22">
      <!-- 0 V -->
      <g transform="translate(74.36625 575.077124) scale(0.14 -0.14)">
       <use xlink:href="#DejaVuSans-30"/>
       <use xlink:href="#DejaVuSans-20" x="63.623047"/>
       <use xlink:href="#DejaVuSans-56" x="95.410156"/>
      </g>
     </g>
    </g>
    <g id="ytick_12">
     <g id="line2d_87">
      <path d="M 100.8 536.113744 
L 987.84 536.113744 
" clip-path="url(#pe5f12d4a42)" style="fill: none; stroke-dasharray: 1.85,0.8; stroke-dashoffset: 0; stroke: #b2b2b2; stroke-width: 0.5"/>
     </g>
     <g id="line2d_88">
      <g>
       <use xlink:href="#m60713d1681" x="100.8" y="536.113744" style="stroke: #000000; stroke-width: 0.8"/>
      </g>
     </g>
     <g id="text_23">
      <!-- 500 mV -->
      <g transform="translate(42.914375 541.43265) scale(0.14 -0.14)">
       <use xlink:href="#DejaVuSans-35"/>
       <use xlink:href="#DejaVuSans-30" x="63.623047"/>
       <use xlink:href="#DejaVuSans-30" x="127.246094"/>
       <use xlink:href="#DejaVuSans-20" x="190.869141"/>
       <use xlink:href="#DejaVuSans-6d" x="222.65625"/>
       <use xlink:href="#DejaVuSans-56" x="320.068359"/>
      </g>
     </g>
    </g>
    <g id="ytick_13">
     <g id="line2d_89">
      <path d="M 100.8 502.46927 
L 987.84 502.46927 
" clip-path="url(#pe5f12d4a42)" style="fill: none; stroke-dasharray: 1.85,0.8; stroke-dashoffset: 0; stroke: #b2b2b2; stroke-width: 0.5"/>
     </g>
     <g id="line2d_90">
      <g>
       <use xlink:href="#m60713d1681" x="100.8" y="502.46927" style="stroke: #000000; stroke-width: 0.8"/>
      </g>
     </g>
     <g id="text_24">
      <!-- 1 V -->
      <g transform="translate(74.36625 507.788176) scale(0.14 -0.14)">
       <use xlink:href="#DejaVuSans-31"/>
       <use xlink:href="#DejaVuSans-20" x="63.623047"/>
       <use xlink:href="#DejaVuSans-56" x="95.410156"/>
      </g>
     </g>
    </g>
    <g id="text_25">
     <g id="patch_27">
      <path d="M 34.8768 554.329483 
L 34.8768 506.379483 
L 11.247425 506.379483 
L 11.247425 554.329483 
z
" style="fill: #ffff00; opacity: 0.2; stroke: #eeeeee; stroke-width: 0.5; stroke-linejoin: miter"/>
     </g>
     <!-- FOUT -->
     <g transform="translate(26.925238 549.289483) rotate(-90) scale(0.14 -0.14)">
      <use xlink:href="#DejaVuSans-46"/>
      <use xlink:href="#DejaVuSans-4f" x="57.519531"/>
      <use xlink:href="#DejaVuSans-55" x="136.230469"/>
      <use xlink:href="#DejaVuSans-54" x="209.423828"/>
     </g>
    </g>
   </g>
   <g id="line2d_91">
    <path d="M 141.12 489.01148 
L 173.472768 489.018209 
L 173.505024 488.823071 
L 173.569536 526.994073 
L 173.69856 572.504953 
L 173.730816 572.370106 
L 173.827584 567.862958 
L 173.892096 569.374954 
L 174.053376 570.075102 
L 174.117888 569.9581 
L 174.408192 569.505521 
L 174.440448 569.554757 
L 174.66624 569.742358 
L 176.182272 569.752509 
L 180.14976 569.773425 
L 193.761792 569.763279 
L 213.018624 569.756348 
L 255.30624 569.756047 
L 255.6288 488.903818 
L 255.854592 489.045124 
L 256.209408 489.004751 
L 334.849536 489.024938 
L 334.881792 493.21031 
L 335.043072 572.185196 
L 335.107584 570.271236 
L 335.172096 568.357262 
L 335.236608 568.886355 
L 335.365632 570.7907 
L 335.430144 570.419446 
L 335.591424 569.809316 
L 335.881728 569.661208 
L 336.559104 569.829935 
L 337.107456 569.758474 
L 350.074368 569.756546 
L 416.489472 569.755674 
L 416.553984 567.503298 
L 416.812032 488.580831 
L 416.844288 488.715409 
L 416.973312 489.226805 
L 417.037824 489.152787 
L 417.39264 488.924004 
L 417.844224 489.092227 
L 418.457088 488.937462 
L 419.328 489.01148 
L 594.445824 488.937462 
L 594.47808 488.816342 
L 594.510336 488.937462 
L 594.574848 512.154168 
L 594.703872 570.242847 
L 594.736128 569.729338 
L 594.96192 569.755111 
L 599.348736 569.756541 
L 640.894464 569.78939 
L 640.958976 569.812766 
L 640.991232 569.754952 
L 641.023488 567.883817 
L 641.378304 489.018209 
L 657.409536 489.018209 
L 657.441792 488.204013 
L 657.603072 569.786309 
L 657.69984 569.756394 
L 673.731072 569.756245 
L 738.952704 569.81056 
L 738.98496 569.92173 
L 739.30752 489.018209 
L 947.52 489.01148 
L 947.52 489.01148 
" clip-path="url(#pe5f12d4a42)" style="fill: none; stroke: #ff00ff; stroke-width: 2; stroke-linecap: square"/>
   </g>
   <g id="patch_28">
    <path d="M 100.8 576.72 
L 100.8 483.988966 
" style="fill: none; stroke: #bcbcbc; stroke-width: 0.8; stroke-linejoin: miter; stroke-linecap: square"/>
   </g>
   <g id="patch_29">
    <path d="M 987.84 576.72 
L 987.84 483.988966 
" style="fill: none; stroke: #bcbcbc; stroke-width: 0.8; stroke-linejoin: miter; stroke-linecap: square"/>
   </g>
   <g id="patch_30">
    <path d="M 100.8 576.72 
L 987.84 576.72 
" style="fill: none; stroke: #bcbcbc; stroke-width: 0.8; stroke-linejoin: miter; stroke-linecap: square"/>
   </g>
   <g id="patch_31">
    <path d="M 100.8 483.988966 
L 987.84 483.988966 
" style="fill: none; stroke: #bcbcbc; stroke-width: 0.8; stroke-linejoin: miter; stroke-linecap: square"/>
   </g>
  </g>
  <g id="axes_6">
   <g id="patch_32">
    <path d="M 201.6 628.56 
L 856.8 628.56 
L 856.8 615.6 
L 201.6 615.6 
z
" clip-path="url(#p622ec0ee50)" style="fill: #d3d3d3"/>
   </g>
   <g id="patch_33">
    <path d="M 201.6 628.56 
L 767.88 628.56 
L 767.88 615.6 
L 201.6 615.6 
z
" clip-path="url(#p622ec0ee50)" style="fill: #0000ff"/>
   </g>
   <g id="line2d_92">
    <path d="M 201.6 635.04 
L 201.6 609.12 
" clip-path="url(#p1c1d668997)" style="fill: none; stroke: #ff0000; stroke-linecap: square"/>
   </g>
   <g id="line2d_93">
    <defs>
     <path id="me0f96211fc" d="M 0 5 
C 1.326016 5 2.597899 4.473168 3.535534 3.535534 
C 4.473168 2.597899 5 1.326016 5 0 
C 5 -1.326016 4.473168 -2.597899 3.535534 -3.535534 
C 2.597899 -4.473168 1.326016 -5 0 -5 
C -1.326016 -5 -2.597899 -4.473168 -3.535534 -3.535534 
C -4.473168 -2.597899 -5 -1.326016 -5 0 
C -5 1.326016 -4.473168 2.597899 -3.535534 3.535534 
C -2.597899 4.473168 -1.326016 5 0 5 
z
" style="stroke: #bfbfbf"/>
    </defs>
    <g>
     <use xlink:href="#me0f96211fc" x="767.88" y="622.08" style="fill: #ffffff; stroke: #bfbfbf"/>
    </g>
   </g>
   <g id="text_26">
    <!-- #Sweep -->
    <g transform="translate(138.622875 625.39125) scale(0.12 -0.12)">
     <defs>
      <path id="DejaVuSans-23" d="M 3272 2816 
L 2363 2816 
L 2100 1772 
L 3016 1772 
L 3272 2816 
z
M 2803 4594 
L 2478 3297 
L 3391 3297 
L 3719 4594 
L 4219 4594 
L 3897 3297 
L 4872 3297 
L 4872 2816 
L 3775 2816 
L 3519 1772 
L 4513 1772 
L 4513 1294 
L 3397 1294 
L 3072 0 
L 2572 0 
L 2894 1294 
L 1978 1294 
L 1656 0 
L 1153 0 
L 1478 1294 
L 494 1294 
L 494 1772 
L 1594 1772 
L 1856 2816 
L 850 2816 
L 850 3297 
L 1978 3297 
L 2297 4594 
L 2803 4594 
z
" transform="scale(0.015625)"/>
      <path id="DejaVuSans-77" d="M 269 3500 
L 844 3500 
L 1563 769 
L 2278 3500 
L 2956 3500 
L 3675 769 
L 4391 3500 
L 4966 3500 
L 4050 0 
L 3372 0 
L 2619 2869 
L 1863 0 
L 1184 0 
L 269 3500 
z
" transform="scale(0.015625)"/>
      <path id="DejaVuSans-70" d="M 1159 525 
L 1159 -1331 
L 581 -1331 
L 581 3500 
L 1159 3500 
L 1159 2969 
Q 1341 3281 1617 3432 
Q 1894 3584 2278 3584 
Q 2916 3584 3314 3078 
Q 3713 2572 3713 1747 
Q 3713 922 3314 415 
Q 2916 -91 2278 -91 
Q 1894 -91 1617 61 
Q 1341 213 1159 525 
z
M 3116 1747 
Q 3116 2381 2855 2742 
Q 2594 3103 2138 3103 
Q 1681 3103 1420 2742 
Q 1159 2381 1159 1747 
Q 1159 1113 1420 752 
Q 1681 391 2138 391 
Q 2594 391 2855 752 
Q 3116 1113 3116 1747 
z
" transform="scale(0.015625)"/>
     </defs>
     <use xlink:href="#DejaVuSans-23"/>
     <use xlink:href="#DejaVuSans-53" x="83.789062"/>
     <use xlink:href="#DejaVuSans-77" x="147.265625"/>
     <use xlink:href="#DejaVuSans-65" x="229.052734"/>
     <use xlink:href="#DejaVuSans-65" x="290.576172"/>
     <use xlink:href="#DejaVuSans-70" x="352.099609"/>
    </g>
   </g>
   <g id="text_27">
    <!-- $\mathdefault{121}$ -->
    <g transform="translate(869.904 625.39125) scale(0.12 -0.12)">
     <use xlink:href="#DejaVuSans-31" transform="translate(0 0.78125)"/>
     <use xlink:href="#DejaVuSans-32" transform="translate(63.623047 0.78125)"/>
     <use xlink:href="#DejaVuSans-31" transform="translate(127.246094 0.78125)"/>
    </g>
   </g>
  </g>
  <g id="text_28">
   <!-- DFF under BBI sweep analysis (Sweep = 131E-9) -->
   <g transform="translate(308.25625 25.1175) scale(0.16 -0.16)">
    <defs>
     <path id="DejaVuSans-75" d="M 544 1381 
L 544 3500 
L 1119 3500 
L 1119 1403 
Q 1119 906 1312 657 
Q 1506 409 1894 409 
Q 2359 409 2629 706 
Q 2900 1003 2900 1516 
L 2900 3500 
L 3475 3500 
L 3475 0 
L 2900 0 
L 2900 538 
Q 2691 219 2414 64 
Q 2138 -91 1772 -91 
Q 1169 -91 856 284 
Q 544 659 544 1381 
z
M 1991 3584 
L 1991 3584 
z
" transform="scale(0.015625)"/>
     <path id="DejaVuSans-64" d="M 2906 2969 
L 2906 4863 
L 3481 4863 
L 3481 0 
L 2906 0 
L 2906 525 
Q 2725 213 2448 61 
Q 2172 -91 1784 -91 
Q 1150 -91 751 415 
Q 353 922 353 1747 
Q 353 2572 751 3078 
Q 1150 3584 1784 3584 
Q 2172 3584 2448 3432 
Q 2725 3281 2906 2969 
z
M 947 1747 
Q 947 1113 1208 752 
Q 1469 391 1925 391 
Q 2381 391 2643 752 
Q 2906 1113 2906 1747 
Q 2906 2381 2643 2742 
Q 2381 3103 1925 3103 
Q 1469 3103 1208 2742 
Q 947 2381 947 1747 
z
" transform="scale(0.015625)"/>
     <path id="DejaVuSans-72" d="M 2631 2963 
Q 2534 3019 2420 3045 
Q 2306 3072 2169 3072 
Q 1681 3072 1420 2755 
Q 1159 2438 1159 1844 
L 1159 0 
L 581 0 
L 581 3500 
L 1159 3500 
L 1159 2956 
Q 1341 3275 1631 3429 
Q 1922 3584 2338 3584 
Q 2397 3584 2469 3576 
Q 2541 3569 2628 3553 
L 2631 2963 
z
" transform="scale(0.015625)"/>
     <path id="DejaVuSans-61" d="M 2194 1759 
Q 1497 1759 1228 1600 
Q 959 1441 959 1056 
Q 959 750 1161 570 
Q 1363 391 1709 391 
Q 2188 391 2477 730 
Q 2766 1069 2766 1631 
L 2766 1759 
L 2194 1759 
z
M 3341 1997 
L 3341 0 
L 2766 0 
L 2766 531 
Q 2569 213 2275 61 
Q 1981 -91 1556 -91 
Q 1019 -91 701 211 
Q 384 513 384 1019 
Q 384 1609 779 1909 
Q 1175 2209 1959 2209 
L 2766 2209 
L 2766 2266 
Q 2766 2663 2505 2880 
Q 2244 3097 1772 3097 
Q 1472 3097 1187 3025 
Q 903 2953 641 2809 
L 641 3341 
Q 956 3463 1253 3523 
Q 1550 3584 1831 3584 
Q 2591 3584 2966 3190 
Q 3341 2797 3341 1997 
z
" transform="scale(0.015625)"/>
     <path id="DejaVuSans-6c" d="M 603 4863 
L 1178 4863 
L 1178 0 
L 603 0 
L 603 4863 
z
" transform="scale(0.015625)"/>
     <path id="DejaVuSans-79" d="M 2059 -325 
Q 1816 -950 1584 -1140 
Q 1353 -1331 966 -1331 
L 506 -1331 
L 506 -850 
L 844 -850 
Q 1081 -850 1212 -737 
Q 1344 -625 1503 -206 
L 1606 56 
L 191 3500 
L 800 3500 
L 1894 763 
L 2988 3500 
L 3597 3500 
L 2059 -325 
z
" transform="scale(0.015625)"/>
     <path id="DejaVuSans-28" d="M 1984 4856 
Q 1566 4138 1362 3434 
Q 1159 2731 1159 2009 
Q 1159 1288 1364 580 
Q 1569 -128 1984 -844 
L 1484 -844 
Q 1016 -109 783 600 
Q 550 1309 550 2009 
Q 550 2706 781 3412 
Q 1013 4119 1484 4856 
L 1984 4856 
z
" transform="scale(0.015625)"/>
     <path id="DejaVuSans-3d" d="M 678 2906 
L 4684 2906 
L 4684 2381 
L 678 2381 
L 678 2906 
z
M 678 1631 
L 4684 1631 
L 4684 1100 
L 678 1100 
L 678 1631 
z
" transform="scale(0.015625)"/>
     <path id="DejaVuSans-33" d="M 2597 2516 
Q 3050 2419 3304 2112 
Q 3559 1806 3559 1356 
Q 3559 666 3084 287 
Q 2609 -91 1734 -91 
Q 1441 -91 1130 -33 
Q 819 25 488 141 
L 488 750 
Q 750 597 1062 519 
Q 1375 441 1716 441 
Q 2309 441 2620 675 
Q 2931 909 2931 1356 
Q 2931 1769 2642 2001 
Q 2353 2234 1838 2234 
L 1294 2234 
L 1294 2753 
L 1863 2753 
Q 2328 2753 2575 2939 
Q 2822 3125 2822 3475 
Q 2822 3834 2567 4026 
Q 2313 4219 1838 4219 
Q 1578 4219 1281 4162 
Q 984 4106 628 3988 
L 628 4550 
Q 988 4650 1302 4700 
Q 1616 4750 1894 4750 
Q 2613 4750 3031 4423 
Q 3450 4097 3450 3541 
Q 3450 3153 3228 2886 
Q 3006 2619 2597 2516 
z
" transform="scale(0.015625)"/>
     <path id="DejaVuSans-2d" d="M 313 2009 
L 1997 2009 
L 1997 1497 
L 313 1497 
L 313 2009 
z
" transform="scale(0.015625)"/>
     <path id="DejaVuSans-39" d="M 703 97 
L 703 672 
Q 941 559 1184 500 
Q 1428 441 1663 441 
Q 2288 441 2617 861 
Q 2947 1281 2994 2138 
Q 2813 1869 2534 1725 
Q 2256 1581 1919 1581 
Q 1219 1581 811 2004 
Q 403 2428 403 3163 
Q 403 3881 828 4315 
Q 1253 4750 1959 4750 
Q 2769 4750 3195 4129 
Q 3622 3509 3622 2328 
Q 3622 1225 3098 567 
Q 2575 -91 1691 -91 
Q 1453 -91 1209 -44 
Q 966 3 703 97 
z
M 1959 2075 
Q 2384 2075 2632 2365 
Q 2881 2656 2881 3163 
Q 2881 3666 2632 3958 
Q 2384 4250 1959 4250 
Q 1534 4250 1286 3958 
Q 1038 3666 1038 3163 
Q 1038 2656 1286 2365 
Q 1534 2075 1959 2075 
z
" transform="scale(0.015625)"/>
     <path id="DejaVuSans-29" d="M 513 4856 
L 1013 4856 
Q 1481 4119 1714 3412 
Q 1947 2706 1947 2009 
Q 1947 1309 1714 600 
Q 1481 -109 1013 -844 
L 513 -844 
Q 928 -128 1133 580 
Q 1338 1288 1338 2009 
Q 1338 2731 1133 3434 
Q 928 4138 513 4856 
z
" transform="scale(0.015625)"/>
    </defs>
    <use xlink:href="#DejaVuSans-44"/>
    <use xlink:href="#DejaVuSans-46" x="77.001953"/>
    <use xlink:href="#DejaVuSans-46" x="134.521484"/>
    <use xlink:href="#DejaVuSans-20" x="192.041016"/>
    <use xlink:href="#DejaVuSans-75" x="223.828125"/>
    <use xlink:href="#DejaVuSans-6e" x="287.207031"/>
    <use xlink:href="#DejaVuSans-64" x="350.585938"/>
    <use xlink:href="#DejaVuSans-65" x="414.0625"/>
    <use xlink:href="#DejaVuSans-72" x="475.585938"/>
    <use xlink:href="#DejaVuSans-20" x="516.699219"/>
    <use xlink:href="#DejaVuSans-42" x="548.486328"/>
    <use xlink:href="#DejaVuSans-42" x="617.089844"/>
    <use xlink:href="#DejaVuSans-49" x="685.693359"/>
    <use xlink:href="#DejaVuSans-20" x="715.185547"/>
    <use xlink:href="#DejaVuSans-73" x="746.972656"/>
    <use xlink:href="#DejaVuSans-77" x="799.072266"/>
    <use xlink:href="#DejaVuSans-65" x="880.859375"/>
    <use xlink:href="#DejaVuSans-65" x="942.382812"/>
    <use xlink:href="#DejaVuSans-70" x="1003.90625"/>
    <use xlink:href="#DejaVuSans-20" x="1067.382812"/>
    <use xlink:href="#DejaVuSans-61" x="1099.169922"/>
    <use xlink:href="#DejaVuSans-6e" x="1160.449219"/>
    <use xlink:href="#DejaVuSans-61" x="1223.828125"/>
    <use xlink:href="#DejaVuSans-6c" x="1285.107422"/>
    <use xlink:href="#DejaVuSans-79" x="1312.890625"/>
    <use xlink:href="#DejaVuSans-73" x="1372.070312"/>
    <use xlink:href="#DejaVuSans-69" x="1424.169922"/>
    <use xlink:href="#DejaVuSans-73" x="1451.953125"/>
    <use xlink:href="#DejaVuSans-20" x="1504.052734"/>
    <use xlink:href="#DejaVuSans-28" x="1535.839844"/>
    <use xlink:href="#DejaVuSans-53" x="1574.853516"/>
    <use xlink:href="#DejaVuSans-77" x="1638.330078"/>
    <use xlink:href="#DejaVuSans-65" x="1720.117188"/>
    <use xlink:href="#DejaVuSans-65" x="1781.640625"/>
    <use xlink:href="#DejaVuSans-70" x="1843.164062"/>
    <use xlink:href="#DejaVuSans-20" x="1906.640625"/>
    <use xlink:href="#DejaVuSans-3d" x="1938.427734"/>
    <use xlink:href="#DejaVuSans-20" x="2022.216797"/>
    <use xlink:href="#DejaVuSans-31" x="2054.003906"/>
    <use xlink:href="#DejaVuSans-33" x="2117.626953"/>
    <use xlink:href="#DejaVuSans-31" x="2181.25"/>
    <use xlink:href="#DejaVuSans-45" x="2244.873047"/>
    <use xlink:href="#DejaVuSans-2d" x="2308.056641"/>
    <use xlink:href="#DejaVuSans-39" x="2344.140625"/>
    <use xlink:href="#DejaVuSans-29" x="2407.763672"/>
   </g>
  </g>
 </g>
 <defs>
  <clipPath id="p01cb922464">
   <rect x="100.8" y="38.88" width="887.04" height="92.731034"/>
  </clipPath>
  <clipPath id="p9eafab0dc6">
   <rect x="100.8" y="150.157241" width="887.04" height="92.731034"/>
  </clipPath>
  <clipPath id="p22966f37f7">
   <rect x="100.8" y="261.434483" width="887.04" height="92.731034"/>
  </clipPath>
  <clipPath id="pd77fe8dbea">
   <rect x="100.8" y="372.711724" width="887.04" height="92.731034"/>
  </clipPath>
  <clipPath id="pe5f12d4a42">
   <rect x="100.8" y="483.988966" width="887.04" height="92.731034"/>
  </clipPath>
  <clipPath id="p622ec0ee50">
   <rect x="201.6" y="609.12" width="655.2" height="25.92"/>
  </clipPath>
  <clipPath id="p1c1d668997">
   <path d="M 201.6 628.56 
L 856.8 628.56 
L 856.8 615.6 
L 201.6 615.6 
z
"/>
  </clipPath>
 </defs>
</svg>
