<?xml version="1.0" encoding="utf-8" standalone="no"?>
<!DOCTYPE svg PUBLIC "-//W3C//DTD SVG 1.1//EN"
  "http://www.w3.org/Graphics/SVG/1.1/DTD/svg11.dtd">
<svg xmlns:xlink="http://www.w3.org/1999/xlink" width="1008pt" height="648pt" viewBox="0 0 1008 648" xmlns="http://www.w3.org/2000/svg" version="1.1">
 <metadata>
  <rdf:RDF xmlns:dc="http://purl.org/dc/elements/1.1/" xmlns:cc="http://creativecommons.org/ns#" xmlns:rdf="http://www.w3.org/1999/02/22-rdf-syntax-ns#">
   <cc:Work>
    <dc:type rdf:resource="http://purl.org/dc/dcmitype/StillImage"/>
    <dc:date>2024-06-03T10:45:59.622192</dc:date>
    <dc:format>image/svg+xml</dc:format>
    <dc:creator>
     <cc:Agent>
      <dc:title>Matplotlib v3.9.0, https://matplotlib.org/</dc:title>
     </cc:Agent>
    </dc:creator>
   </cc:Work>
  </rdf:RDF>
 </metadata>
 <defs>
  <style type="text/css">*{stroke-linejoin: round; stroke-linecap: butt}</style>
 </defs>
 <g id="figure_1">
  <g id="patch_1">
   <path d="M 0 648 
L 1008 648 
L 1008 0 
L 0 0 
z
" style="fill: #ffffff"/>
  </g>
  <g id="axes_1">
   <g id="patch_2">
    <path d="M 100.8 131.611034 
L 987.84 131.611034 
L 987.84 38.88 
L 100.8 38.88 
z
" style="fill: #eeeeee"/>
   </g>
   <g id="matplotlib.axis_1">
    <g id="xtick_1">
     <g id="line2d_1">
      <path d="M 141.12 131.611034 
L 141.12 38.88 
" clip-path="url(#p1b7b268e80)" style="fill: none; stroke-dasharray: 1.85,0.8; stroke-dashoffset: 0; stroke: #b2b2b2; stroke-width: 0.5"/>
     </g>
     <g id="line2d_2">
      <defs>
       <path id="md3e3e6cea2" d="M 0 0 
L 0 -3.5 
" style="stroke: #000000; stroke-width: 0.8"/>
      </defs>
      <g>
       <use xlink:href="#md3e3e6cea2" x="141.12" y="131.611034" style="stroke: #000000; stroke-width: 0.8"/>
      </g>
     </g>
    </g>
    <g id="xtick_2">
     <g id="line2d_3">
      <path d="M 302.4 131.611034 
L 302.4 38.88 
" clip-path="url(#p1b7b268e80)" style="fill: none; stroke-dasharray: 1.85,0.8; stroke-dashoffset: 0; stroke: #b2b2b2; stroke-width: 0.5"/>
     </g>
     <g id="line2d_4">
      <g>
       <use xlink:href="#md3e3e6cea2" x="302.4" y="131.611034" style="stroke: #000000; stroke-width: 0.8"/>
      </g>
     </g>
    </g>
    <g id="xtick_3">
     <g id="line2d_5">
      <path d="M 463.68 131.611034 
L 463.68 38.88 
" clip-path="url(#p1b7b268e80)" style="fill: none; stroke-dasharray: 1.85,0.8; stroke-dashoffset: 0; stroke: #b2b2b2; stroke-width: 0.5"/>
     </g>
     <g id="line2d_6">
      <g>
       <use xlink:href="#md3e3e6cea2" x="463.68" y="131.611034" style="stroke: #000000; stroke-width: 0.8"/>
      </g>
     </g>
    </g>
    <g id="xtick_4">
     <g id="line2d_7">
      <path d="M 624.96 131.611034 
L 624.96 38.88 
" clip-path="url(#p1b7b268e80)" style="fill: none; stroke-dasharray: 1.85,0.8; stroke-dashoffset: 0; stroke: #b2b2b2; stroke-width: 0.5"/>
     </g>
     <g id="line2d_8">
      <g>
       <use xlink:href="#md3e3e6cea2" x="624.96" y="131.611034" style="stroke: #000000; stroke-width: 0.8"/>
      </g>
     </g>
    </g>
    <g id="xtick_5">
     <g id="line2d_9">
      <path d="M 786.24 131.611034 
L 786.24 38.88 
" clip-path="url(#p1b7b268e80)" style="fill: none; stroke-dasharray: 1.85,0.8; stroke-dashoffset: 0; stroke: #b2b2b2; stroke-width: 0.5"/>
     </g>
     <g id="line2d_10">
      <g>
       <use xlink:href="#md3e3e6cea2" x="786.24" y="131.611034" style="stroke: #000000; stroke-width: 0.8"/>
      </g>
     </g>
    </g>
    <g id="xtick_6">
     <g id="line2d_11">
      <path d="M 947.52 131.611034 
L 947.52 38.88 
" clip-path="url(#p1b7b268e80)" style="fill: none; stroke-dasharray: 1.85,0.8; stroke-dashoffset: 0; stroke: #b2b2b2; stroke-width: 0.5"/>
     </g>
     <g id="line2d_12">
      <g>
       <use xlink:href="#md3e3e6cea2" x="947.52" y="131.611034" style="stroke: #000000; stroke-width: 0.8"/>
      </g>
     </g>
    </g>
   </g>
   <g id="matplotlib.axis_2">
    <g id="ytick_1">
     <g id="line2d_13">
      <path d="M 100.8 98.340394 
L 987.84 98.340394 
" clip-path="url(#p1b7b268e80)" style="fill: none; stroke-dasharray: 1.85,0.8; stroke-dashoffset: 0; stroke: #b2b2b2; stroke-width: 0.5"/>
     </g>
     <g id="line2d_14">
      <defs>
       <path id="mbc1ff9cd40" d="M 0 0 
L 3.5 0 
" style="stroke: #000000; stroke-width: 0.8"/>
      </defs>
      <g>
       <use xlink:href="#mbc1ff9cd40" x="100.8" y="98.340394" style="stroke: #000000; stroke-width: 0.8"/>
      </g>
     </g>
     <g id="text_1">
      <!-- −200 V -->
      <g transform="translate(44.819688 103.6593) scale(0.14 -0.14)">
       <defs>
        <path id="DejaVuSans-2212" d="M 678 2272 
L 4684 2272 
L 4684 1741 
L 678 1741 
L 678 2272 
z
" transform="scale(0.015625)"/>
        <path id="DejaVuSans-32" d="M 1228 531 
L 3431 531 
L 3431 0 
L 469 0 
L 469 531 
Q 828 903 1448 1529 
Q 2069 2156 2228 2338 
Q 2531 2678 2651 2914 
Q 2772 3150 2772 3378 
Q 2772 3750 2511 3984 
Q 2250 4219 1831 4219 
Q 1534 4219 1204 4116 
Q 875 4013 500 3803 
L 500 4441 
Q 881 4594 1212 4672 
Q 1544 4750 1819 4750 
Q 2544 4750 2975 4387 
Q 3406 4025 3406 3419 
Q 3406 3131 3298 2873 
Q 3191 2616 2906 2266 
Q 2828 2175 2409 1742 
Q 1991 1309 1228 531 
z
" transform="scale(0.015625)"/>
        <path id="DejaVuSans-30" d="M 2034 4250 
Q 1547 4250 1301 3770 
Q 1056 3291 1056 2328 
Q 1056 1369 1301 889 
Q 1547 409 2034 409 
Q 2525 409 2770 889 
Q 3016 1369 3016 2328 
Q 3016 3291 2770 3770 
Q 2525 4250 2034 4250 
z
M 2034 4750 
Q 2819 4750 3233 4129 
Q 3647 3509 3647 2328 
Q 3647 1150 3233 529 
Q 2819 -91 2034 -91 
Q 1250 -91 836 529 
Q 422 1150 422 2328 
Q 422 3509 836 4129 
Q 1250 4750 2034 4750 
z
" transform="scale(0.015625)"/>
        <path id="DejaVuSans-20" transform="scale(0.015625)"/>
        <path id="DejaVuSans-56" d="M 1831 0 
L 50 4666 
L 709 4666 
L 2188 738 
L 3669 4666 
L 4325 4666 
L 2547 0 
L 1831 0 
z
" transform="scale(0.015625)"/>
       </defs>
       <use xlink:href="#DejaVuSans-2212"/>
       <use xlink:href="#DejaVuSans-32" x="83.789062"/>
       <use xlink:href="#DejaVuSans-30" x="147.412109"/>
       <use xlink:href="#DejaVuSans-30" x="211.035156"/>
       <use xlink:href="#DejaVuSans-20" x="274.658203"/>
       <use xlink:href="#DejaVuSans-56" x="306.445312"/>
      </g>
     </g>
    </g>
    <g id="ytick_2">
     <g id="line2d_15">
      <path d="M 100.8 45.027377 
L 987.84 45.027377 
" clip-path="url(#p1b7b268e80)" style="fill: none; stroke-dasharray: 1.85,0.8; stroke-dashoffset: 0; stroke: #b2b2b2; stroke-width: 0.5"/>
     </g>
     <g id="line2d_16">
      <g>
       <use xlink:href="#mbc1ff9cd40" x="100.8" y="45.027377" style="stroke: #000000; stroke-width: 0.8"/>
      </g>
     </g>
     <g id="text_2">
      <!-- 0 V -->
      <g transform="translate(74.36625 50.346284) scale(0.14 -0.14)">
       <use xlink:href="#DejaVuSans-30"/>
       <use xlink:href="#DejaVuSans-20" x="63.623047"/>
       <use xlink:href="#DejaVuSans-56" x="95.410156"/>
      </g>
     </g>
    </g>
    <g id="text_3">
     <g id="patch_3">
      <path d="M 34.8768 131.080205 
L 34.8768 39.41083 
L 11.247425 39.41083 
L 11.247425 131.080205 
z
" style="fill: #ffff00; opacity: 0.2; stroke: #eeeeee; stroke-width: 0.5; stroke-linejoin: miter"/>
     </g>
     <!-- VPULSE BBI -->
     <g transform="translate(26.925238 126.040205) rotate(-90) scale(0.14 -0.14)">
      <defs>
       <path id="DejaVuSans-50" d="M 1259 4147 
L 1259 2394 
L 2053 2394 
Q 2494 2394 2734 2622 
Q 2975 2850 2975 3272 
Q 2975 3691 2734 3919 
Q 2494 4147 2053 4147 
L 1259 4147 
z
M 628 4666 
L 2053 4666 
Q 2838 4666 3239 4311 
Q 3641 3956 3641 3272 
Q 3641 2581 3239 2228 
Q 2838 1875 2053 1875 
L 1259 1875 
L 1259 0 
L 628 0 
L 628 4666 
z
" transform="scale(0.015625)"/>
       <path id="DejaVuSans-55" d="M 556 4666 
L 1191 4666 
L 1191 1831 
Q 1191 1081 1462 751 
Q 1734 422 2344 422 
Q 2950 422 3222 751 
Q 3494 1081 3494 1831 
L 3494 4666 
L 4128 4666 
L 4128 1753 
Q 4128 841 3676 375 
Q 3225 -91 2344 -91 
Q 1459 -91 1007 375 
Q 556 841 556 1753 
L 556 4666 
z
" transform="scale(0.015625)"/>
       <path id="DejaVuSans-4c" d="M 628 4666 
L 1259 4666 
L 1259 531 
L 3531 531 
L 3531 0 
L 628 0 
L 628 4666 
z
" transform="scale(0.015625)"/>
       <path id="DejaVuSans-53" d="M 3425 4513 
L 3425 3897 
Q 3066 4069 2747 4153 
Q 2428 4238 2131 4238 
Q 1616 4238 1336 4038 
Q 1056 3838 1056 3469 
Q 1056 3159 1242 3001 
Q 1428 2844 1947 2747 
L 2328 2669 
Q 3034 2534 3370 2195 
Q 3706 1856 3706 1288 
Q 3706 609 3251 259 
Q 2797 -91 1919 -91 
Q 1588 -91 1214 -16 
Q 841 59 441 206 
L 441 856 
Q 825 641 1194 531 
Q 1563 422 1919 422 
Q 2459 422 2753 634 
Q 3047 847 3047 1241 
Q 3047 1584 2836 1778 
Q 2625 1972 2144 2069 
L 1759 2144 
Q 1053 2284 737 2584 
Q 422 2884 422 3419 
Q 422 4038 858 4394 
Q 1294 4750 2059 4750 
Q 2388 4750 2728 4690 
Q 3069 4631 3425 4513 
z
" transform="scale(0.015625)"/>
       <path id="DejaVuSans-45" d="M 628 4666 
L 3578 4666 
L 3578 4134 
L 1259 4134 
L 1259 2753 
L 3481 2753 
L 3481 2222 
L 1259 2222 
L 1259 531 
L 3634 531 
L 3634 0 
L 628 0 
L 628 4666 
z
" transform="scale(0.015625)"/>
       <path id="DejaVuSans-42" d="M 1259 2228 
L 1259 519 
L 2272 519 
Q 2781 519 3026 730 
Q 3272 941 3272 1375 
Q 3272 1813 3026 2020 
Q 2781 2228 2272 2228 
L 1259 2228 
z
M 1259 4147 
L 1259 2741 
L 2194 2741 
Q 2656 2741 2882 2914 
Q 3109 3088 3109 3444 
Q 3109 3797 2882 3972 
Q 2656 4147 2194 4147 
L 1259 4147 
z
M 628 4666 
L 2241 4666 
Q 2963 4666 3353 4366 
Q 3744 4066 3744 3513 
Q 3744 3084 3544 2831 
Q 3344 2578 2956 2516 
Q 3422 2416 3680 2098 
Q 3938 1781 3938 1306 
Q 3938 681 3513 340 
Q 3088 0 2303 0 
L 628 0 
L 628 4666 
z
" transform="scale(0.015625)"/>
       <path id="DejaVuSans-49" d="M 628 4666 
L 1259 4666 
L 1259 0 
L 628 0 
L 628 4666 
z
" transform="scale(0.015625)"/>
      </defs>
      <use xlink:href="#DejaVuSans-56"/>
      <use xlink:href="#DejaVuSans-50" x="68.408203"/>
      <use xlink:href="#DejaVuSans-55" x="128.710938"/>
      <use xlink:href="#DejaVuSans-4c" x="201.904297"/>
      <use xlink:href="#DejaVuSans-53" x="257.617188"/>
      <use xlink:href="#DejaVuSans-45" x="321.09375"/>
      <use xlink:href="#DejaVuSans-20" x="384.277344"/>
      <use xlink:href="#DejaVuSans-42" x="416.064453"/>
      <use xlink:href="#DejaVuSans-42" x="484.667969"/>
      <use xlink:href="#DejaVuSans-49" x="553.271484"/>
     </g>
    </g>
   </g>
   <g id="line2d_17">
    <path d="M 141.12 45.027377 
L 637.894656 45.136282 
L 638.378496 46.425538 
L 646.603776 69.006772 
L 654.022656 89.863624 
L 655.635456 94.440546 
L 657.441792 99.673219 
L 660.92544 110.807642 
L 662.505984 115.853719 
L 663.731712 119.550977 
L 667.634688 121.36362 
L 668.215296 121.619522 
L 669.086208 122.003376 
L 669.731328 122.269941 
L 671.311872 122.936354 
L 671.956992 123.202919 
L 673.053696 123.629423 
L 673.795584 123.922644 
L 674.892288 124.349149 
L 675.795456 124.677024 
L 676.472832 124.943589 
L 677.279232 125.25547 
L 678.633984 125.804594 
L 681.278976 126.790885 
L 681.89184 127.022796 
L 683.8272 127.395987 
L 702.309888 127.289361 
L 702.53568 126.801547 
L 720.824832 75.087922 
L 724.566528 63.292417 
L 728.275968 51.617666 
L 732.888576 49.3412 
L 738.243072 46.984578 
L 746.952192 43.484472 
L 747.823104 43.268927 
L 762.112512 43.108189 
L 768.918528 43.184799 
L 784.272384 43.746186 
L 812.0448 44.46146 
L 837.68832 44.774399 
L 873.298944 44.945888 
L 921.328128 44.953885 
L 947.52 44.953885 
L 947.52 44.953885 
" clip-path="url(#p1b7b268e80)" style="fill: none; stroke: #ff0000; stroke-width: 2; stroke-linecap: square"/>
   </g>
   <g id="patch_4">
    <path d="M 100.8 131.611034 
L 100.8 38.88 
" style="fill: none; stroke: #bcbcbc; stroke-width: 0.8; stroke-linejoin: miter; stroke-linecap: square"/>
   </g>
   <g id="patch_5">
    <path d="M 987.84 131.611034 
L 987.84 38.88 
" style="fill: none; stroke: #bcbcbc; stroke-width: 0.8; stroke-linejoin: miter; stroke-linecap: square"/>
   </g>
   <g id="patch_6">
    <path d="M 100.8 131.611034 
L 987.84 131.611034 
" style="fill: none; stroke: #bcbcbc; stroke-width: 0.8; stroke-linejoin: miter; stroke-linecap: square"/>
   </g>
   <g id="patch_7">
    <path d="M 100.8 38.88 
L 987.84 38.88 
" style="fill: none; stroke: #bcbcbc; stroke-width: 0.8; stroke-linejoin: miter; stroke-linecap: square"/>
   </g>
  </g>
  <g id="axes_2">
   <g id="patch_8">
    <path d="M 100.8 242.888276 
L 987.84 242.888276 
L 987.84 150.157241 
L 100.8 150.157241 
z
" style="fill: #eeeeee"/>
   </g>
   <g id="matplotlib.axis_3">
    <g id="xtick_7">
     <g id="line2d_18">
      <path d="M 141.12 242.888276 
L 141.12 150.157241 
" clip-path="url(#pf9e7daa306)" style="fill: none; stroke-dasharray: 1.85,0.8; stroke-dashoffset: 0; stroke: #b2b2b2; stroke-width: 0.5"/>
     </g>
     <g id="line2d_19">
      <g>
       <use xlink:href="#md3e3e6cea2" x="141.12" y="242.888276" style="stroke: #000000; stroke-width: 0.8"/>
      </g>
     </g>
    </g>
    <g id="xtick_8">
     <g id="line2d_20">
      <path d="M 302.4 242.888276 
L 302.4 150.157241 
" clip-path="url(#pf9e7daa306)" style="fill: none; stroke-dasharray: 1.85,0.8; stroke-dashoffset: 0; stroke: #b2b2b2; stroke-width: 0.5"/>
     </g>
     <g id="line2d_21">
      <g>
       <use xlink:href="#md3e3e6cea2" x="302.4" y="242.888276" style="stroke: #000000; stroke-width: 0.8"/>
      </g>
     </g>
    </g>
    <g id="xtick_9">
     <g id="line2d_22">
      <path d="M 463.68 242.888276 
L 463.68 150.157241 
" clip-path="url(#pf9e7daa306)" style="fill: none; stroke-dasharray: 1.85,0.8; stroke-dashoffset: 0; stroke: #b2b2b2; stroke-width: 0.5"/>
     </g>
     <g id="line2d_23">
      <g>
       <use xlink:href="#md3e3e6cea2" x="463.68" y="242.888276" style="stroke: #000000; stroke-width: 0.8"/>
      </g>
     </g>
    </g>
    <g id="xtick_10">
     <g id="line2d_24">
      <path d="M 624.96 242.888276 
L 624.96 150.157241 
" clip-path="url(#pf9e7daa306)" style="fill: none; stroke-dasharray: 1.85,0.8; stroke-dashoffset: 0; stroke: #b2b2b2; stroke-width: 0.5"/>
     </g>
     <g id="line2d_25">
      <g>
       <use xlink:href="#md3e3e6cea2" x="624.96" y="242.888276" style="stroke: #000000; stroke-width: 0.8"/>
      </g>
     </g>
    </g>
    <g id="xtick_11">
     <g id="line2d_26">
      <path d="M 786.24 242.888276 
L 786.24 150.157241 
" clip-path="url(#pf9e7daa306)" style="fill: none; stroke-dasharray: 1.85,0.8; stroke-dashoffset: 0; stroke: #b2b2b2; stroke-width: 0.5"/>
     </g>
     <g id="line2d_27">
      <g>
       <use xlink:href="#md3e3e6cea2" x="786.24" y="242.888276" style="stroke: #000000; stroke-width: 0.8"/>
      </g>
     </g>
    </g>
    <g id="xtick_12">
     <g id="line2d_28">
      <path d="M 947.52 242.888276 
L 947.52 150.157241 
" clip-path="url(#pf9e7daa306)" style="fill: none; stroke-dasharray: 1.85,0.8; stroke-dashoffset: 0; stroke: #b2b2b2; stroke-width: 0.5"/>
     </g>
     <g id="line2d_29">
      <g>
       <use xlink:href="#md3e3e6cea2" x="947.52" y="242.888276" style="stroke: #000000; stroke-width: 0.8"/>
      </g>
     </g>
    </g>
   </g>
   <g id="matplotlib.axis_4">
    <g id="ytick_3">
     <g id="line2d_30">
      <path d="M 100.8 219.032242 
L 987.84 219.032242 
" clip-path="url(#pf9e7daa306)" style="fill: none; stroke-dasharray: 1.85,0.8; stroke-dashoffset: 0; stroke: #b2b2b2; stroke-width: 0.5"/>
     </g>
     <g id="line2d_31">
      <g>
       <use xlink:href="#mbc1ff9cd40" x="100.8" y="219.032242" style="stroke: #000000; stroke-width: 0.8"/>
      </g>
     </g>
     <g id="text_4">
      <!-- 0 V -->
      <g transform="translate(74.36625 224.351148) scale(0.14 -0.14)">
       <use xlink:href="#DejaVuSans-30"/>
       <use xlink:href="#DejaVuSans-20" x="63.623047"/>
       <use xlink:href="#DejaVuSans-56" x="95.410156"/>
      </g>
     </g>
    </g>
    <g id="ytick_4">
     <g id="line2d_32">
      <path d="M 100.8 185.093572 
L 987.84 185.093572 
" clip-path="url(#pf9e7daa306)" style="fill: none; stroke-dasharray: 1.85,0.8; stroke-dashoffset: 0; stroke: #b2b2b2; stroke-width: 0.5"/>
     </g>
     <g id="line2d_33">
      <g>
       <use xlink:href="#mbc1ff9cd40" x="100.8" y="185.093572" style="stroke: #000000; stroke-width: 0.8"/>
      </g>
     </g>
     <g id="text_5">
      <!-- 1 V -->
      <g transform="translate(74.36625 190.412478) scale(0.14 -0.14)">
       <defs>
        <path id="DejaVuSans-31" d="M 794 531 
L 1825 531 
L 1825 4091 
L 703 3866 
L 703 4441 
L 1819 4666 
L 2450 4666 
L 2450 531 
L 3481 531 
L 3481 0 
L 794 0 
L 794 531 
z
" transform="scale(0.015625)"/>
       </defs>
       <use xlink:href="#DejaVuSans-31"/>
       <use xlink:href="#DejaVuSans-20" x="63.623047"/>
       <use xlink:href="#DejaVuSans-56" x="95.410156"/>
      </g>
     </g>
    </g>
    <g id="ytick_5">
     <g id="line2d_34">
      <path d="M 100.8 151.154903 
L 987.84 151.154903 
" clip-path="url(#pf9e7daa306)" style="fill: none; stroke-dasharray: 1.85,0.8; stroke-dashoffset: 0; stroke: #b2b2b2; stroke-width: 0.5"/>
     </g>
     <g id="line2d_35">
      <g>
       <use xlink:href="#mbc1ff9cd40" x="100.8" y="151.154903" style="stroke: #000000; stroke-width: 0.8"/>
      </g>
     </g>
     <g id="text_6">
      <!-- 2 V -->
      <g transform="translate(74.36625 156.473809) scale(0.14 -0.14)">
       <use xlink:href="#DejaVuSans-32"/>
       <use xlink:href="#DejaVuSans-20" x="63.623047"/>
       <use xlink:href="#DejaVuSans-56" x="95.410156"/>
      </g>
     </g>
    </g>
    <g id="text_7">
     <g id="patch_9">
      <path d="M 34.8768 224.531509 
L 34.8768 168.514009 
L 11.247425 168.514009 
L 11.247425 224.531509 
z
" style="fill: #ffff00; opacity: 0.2; stroke: #eeeeee; stroke-width: 0.5; stroke-linejoin: miter"/>
     </g>
     <!-- DFF IN -->
     <g transform="translate(26.925238 219.491509) rotate(-90) scale(0.14 -0.14)">
      <defs>
       <path id="DejaVuSans-44" d="M 1259 4147 
L 1259 519 
L 2022 519 
Q 2988 519 3436 956 
Q 3884 1394 3884 2338 
Q 3884 3275 3436 3711 
Q 2988 4147 2022 4147 
L 1259 4147 
z
M 628 4666 
L 1925 4666 
Q 3281 4666 3915 4102 
Q 4550 3538 4550 2338 
Q 4550 1131 3912 565 
Q 3275 0 1925 0 
L 628 0 
L 628 4666 
z
" transform="scale(0.015625)"/>
       <path id="DejaVuSans-46" d="M 628 4666 
L 3309 4666 
L 3309 4134 
L 1259 4134 
L 1259 2759 
L 3109 2759 
L 3109 2228 
L 1259 2228 
L 1259 0 
L 628 0 
L 628 4666 
z
" transform="scale(0.015625)"/>
       <path id="DejaVuSans-4e" d="M 628 4666 
L 1478 4666 
L 3547 763 
L 3547 4666 
L 4159 4666 
L 4159 0 
L 3309 0 
L 1241 3903 
L 1241 0 
L 628 0 
L 628 4666 
z
" transform="scale(0.015625)"/>
      </defs>
      <use xlink:href="#DejaVuSans-44"/>
      <use xlink:href="#DejaVuSans-46" x="77.001953"/>
      <use xlink:href="#DejaVuSans-46" x="134.521484"/>
      <use xlink:href="#DejaVuSans-20" x="192.041016"/>
      <use xlink:href="#DejaVuSans-49" x="223.828125"/>
      <use xlink:href="#DejaVuSans-4e" x="253.320312"/>
     </g>
    </g>
   </g>
   <g id="line2d_36">
    <path d="M 141.12 218.982678 
L 221.953536 218.936138 
L 224.437248 200.025908 
L 225.404928 194.273304 
L 228.243456 181.62504 
L 229.598208 180.355734 
L 231.178752 179.48351 
L 236.533248 179.028732 
L 243.5328 178.920128 
L 244.952064 178.879402 
L 248.145408 178.770798 
L 249.790464 178.706315 
L 251.887104 178.597711 
L 254.241792 178.251536 
L 254.757888 177.715305 
L 255.499776 177.375919 
L 256.338432 177.389494 
L 259.789824 178.003784 
L 262.467072 178.176871 
L 263.886336 178.224385 
L 264.144384 183.457728 
L 264.434688 187.018574 
L 265.176576 191.762181 
L 267.144192 209.076673 
L 268.402176 215.577625 
L 269.047296 216.859353 
L 270.46656 218.620091 
L 273.724416 219.034074 
L 282.530304 218.986713 
L 297.045504 218.976599 
L 305.851392 218.981863 
L 347.751936 218.937831 
L 350.235648 200.065956 
L 351.622656 191.437728 
L 352.654848 186.152119 
L 354.97728 179.164487 
L 358.493184 178.16669 
L 360.202752 178.237961 
L 363.009024 178.346565 
L 364.33152 178.377109 
L 375.169536 178.448381 
L 375.717888 179.43939 
L 376.169472 180.189434 
L 377.008128 181.095597 
L 377.524224 181.044689 
L 378.427392 180.752816 
L 380.427264 179.615871 
L 381.58848 179.242546 
L 387.168768 178.76401 
L 389.587968 178.655407 
L 391.684608 178.543409 
L 394.232832 178.434805 
L 395.61984 178.397473 
L 415.360512 178.312626 
L 416.489472 177.382706 
L 417.037824 177.318223 
L 417.908736 177.426827 
L 419.16672 177.708518 
L 420.908544 177.963058 
L 423.940608 178.173477 
L 455.712768 178.278687 
L 456.809472 179.16788 
L 457.261056 179.239152 
L 458.68032 179.283272 
L 462.680064 178.753829 
L 464.131584 178.560378 
L 467.486208 178.31602 
L 496.065024 178.234567 
L 496.58112 177.694942 
L 497.258496 177.389494 
L 498.3552 177.375919 
L 502.06464 178.044511 
L 504.193536 178.159902 
L 536.320512 178.261718 
L 536.481792 178.438199 
L 536.965632 178.926916 
L 537.610752 179.208607 
L 539.32032 179.283272 
L 544.352256 178.645225 
L 545.545728 178.506076 
L 548.771328 178.275293 
L 576.73728 178.190447 
L 577.22112 177.694942 
L 577.898496 177.389494 
L 578.9952 177.375919 
L 582.70464 178.044511 
L 584.833536 178.159902 
L 616.960512 178.261718 
L 617.121792 178.441593 
L 617.573376 178.876008 
L 618.18624 179.195031 
L 618.960384 179.323998 
L 619.79904 179.307029 
L 623.3472 178.8251 
L 625.347072 178.516258 
L 627.895296 178.356746 
L 637.959168 178.441593 
L 638.443008 179.337574 
L 639.31392 180.837663 
L 640.410624 182.368297 
L 642.281472 184.90691 
L 647.05536 191.624051 
L 647.506944 192.944944 
L 648.861696 197.916959 
L 649.248768 199.36105 
L 649.442304 200.180329 
L 649.764864 201.405854 
L 649.990656 202.303193 
L 650.829312 206.225146 
L 651.055104 207.371933 
L 651.926016 211.118762 
L 653.34528 216.311548 
L 653.50656 216.820357 
L 654.441984 220.185953 
L 655.377408 223.043793 
L 656.054784 224.472271 
L 656.441856 225.451063 
L 656.764416 225.858327 
L 657.086976 226.222149 
L 657.312768 226.744126 
L 657.732096 227.87598 
L 658.086912 228.453277 
L 658.280448 228.76144 
L 658.635264 229.629931 
L 659.699712 231.79386 
L 661.248 234.593801 
L 661.40928 234.857165 
L 662.312448 236.43701 
L 663.731712 238.673229 
L 663.925248 238.620963 
L 664.538112 237.70394 
L 664.95744 237.019397 
L 665.28 236.371169 
L 665.44128 236.209281 
L 665.860608 235.677462 
L 666.602496 234.792342 
L 666.957312 234.222172 
L 667.150848 234.111532 
L 668.054016 233.356736 
L 668.537856 232.926733 
L 669.15072 232.126459 
L 669.441024 231.688311 
L 669.828096 231.422232 
L 669.892608 231.436826 
L 669.924864 231.382524 
L 670.150656 231.226406 
L 670.505472 231.087257 
L 671.150592 230.559172 
L 671.7312 229.856981 
L 671.956992 229.53626 
L 672.086016 229.498588 
L 672.505344 229.10999 
L 672.666624 229.041774 
L 674.731008 227.3893 
L 675.085824 226.731908 
L 675.408384 226.603959 
L 675.634176 226.568324 
L 675.956736 226.422048 
L 677.730816 225.043798 
L 678.117888 224.577481 
L 678.698496 224.182435 
L 679.182336 223.948598 
L 679.988736 223.337702 
L 684.020736 219.80937 
L 685.052928 218.297198 
L 687.246336 215.293558 
L 689.472 212.38162 
L 690.11712 211.632933 
L 691.439616 210.177643 
L 692.181504 209.313564 
L 692.955648 207.048158 
L 694.116864 203.68246 
L 695.181312 201.25313 
L 696.052224 199.897281 
L 696.955392 198.572994 
L 697.406976 198.079865 
L 698.116608 197.044735 
L 698.82624 196.174548 
L 699.664896 195.268385 
L 700.60032 194.164021 
L 701.761536 193.291797 
L 702.406656 192.585534 
L 702.922752 190.884188 
L 704.083968 186.949339 
L 704.922624 184.954424 
L 705.890304 183.264278 
L 707.019264 181.689524 
L 708.66432 179.626053 
L 709.212672 178.957461 
L 710.59968 177.185862 
L 718.050816 167.177348 
L 719.663616 165.141028 
L 720.405504 164.241654 
L 721.40544 163.030043 
L 723.953664 159.636176 
L 725.76 157.352104 
L 728.243712 154.38247 
L 729.759744 154.745614 
L 730.695168 154.755795 
L 732.85632 155.091788 
L 735.694848 155.801106 
L 737.662464 156.306793 
L 737.952768 156.323762 
L 738.33984 155.308996 
L 738.694656 154.908519 
L 739.017216 154.888156 
L 739.404288 155.068031 
L 740.210688 155.794319 
L 741.24288 156.724238 
L 742.500864 157.515009 
L 744.532992 158.461898 
L 746.758656 159.27982 
L 747.952128 159.765143 
L 748.66176 160.152044 
L 749.597184 160.617004 
L 753.048576 162.181576 
L 753.50016 162.378421 
L 754.532352 162.816229 
L 755.661312 163.291371 
L 757.080576 163.854753 
L 760.27392 165.083333 
L 761.112576 165.368417 
L 762.757632 165.941981 
L 774.273024 169.461421 
L 776.756736 170.096074 
L 778.208256 170.449036 
L 778.272768 170.493157 
L 778.82112 171.484166 
L 779.46624 171.905005 
L 780.820992 171.949125 
L 781.659648 171.714949 
L 782.724096 171.599557 
L 786.465792 172.101849 
L 787.401216 172.281724 
L 788.917248 172.546446 
L 789.723648 172.685595 
L 792.239616 173.106434 
L 792.949248 173.215038 
L 794.852352 173.50691 
L 795.561984 173.608726 
L 796.013568 173.679998 
L 796.819968 173.785207 
L 797.271552 173.856479 
L 798.110208 173.965082 
L 798.529536 174.029566 
L 799.368192 174.134776 
L 800.013312 174.229804 
L 800.980992 174.338408 
L 802.271232 174.501313 
L 803.238912 174.609917 
L 804.367872 174.73549 
L 805.367808 174.8407 
L 806.496768 174.969667 
L 807.787008 175.078271 
L 808.948224 175.214025 
L 810.173952 175.322629 
L 811.109376 175.407476 
L 812.238336 175.51608 
L 816.496128 175.855466 
L 817.979904 175.96407 
L 818.625024 175.923344 
L 819.108864 175.3939 
L 819.850752 175.118997 
L 820.59264 175.224207 
L 821.044224 175.342992 
L 823.97952 176.154127 
L 825.398784 176.344183 
L 826.366464 176.449393 
L 827.269632 176.527452 
L 829.914624 176.700539 
L 830.592 176.734478 
L 832.68864 176.846475 
L 835.10784 176.955079 
L 836.72064 177.019563 
L 837.462528 177.050107 
L 840.236544 177.158711 
L 841.55904 177.189256 
L 844.752384 177.29786 
L 845.171712 177.318223 
L 846.590976 177.358949 
L 847.429632 177.379313 
L 848.01024 177.392888 
L 848.784384 177.420039 
L 853.526016 177.525249 
L 854.203392 177.562581 
L 855.138816 177.572763 
L 855.558144 177.593126 
L 858.912768 177.667791 
L 859.751424 178.482319 
L 860.396544 178.699527 
L 861.299712 178.689345 
L 862.52544 178.322808 
L 863.299584 178.115782 
L 863.97696 178.01736 
L 866.041344 177.908756 
L 899.329536 177.803546 
L 899.813376 177.321617 
L 900.458496 177.036532 
L 901.5552 177.02635 
L 905.522688 177.749244 
L 907.2 177.817121 
L 939.520512 177.925725 
L 939.681792 178.108994 
L 940.165632 178.594317 
L 940.649472 178.814918 
L 941.55264 178.991399 
L 943.455744 178.882796 
L 944.810496 178.63165 
L 947.03616 178.275293 
L 947.52 178.200628 
L 947.52 178.200628 
" clip-path="url(#pf9e7daa306)" style="fill: none; stroke: #008000; stroke-width: 2; stroke-linecap: square"/>
   </g>
   <g id="patch_10">
    <path d="M 100.8 242.888276 
L 100.8 150.157241 
" style="fill: none; stroke: #bcbcbc; stroke-width: 0.8; stroke-linejoin: miter; stroke-linecap: square"/>
   </g>
   <g id="patch_11">
    <path d="M 987.84 242.888276 
L 987.84 150.157241 
" style="fill: none; stroke: #bcbcbc; stroke-width: 0.8; stroke-linejoin: miter; stroke-linecap: square"/>
   </g>
   <g id="patch_12">
    <path d="M 100.8 242.888276 
L 987.84 242.888276 
" style="fill: none; stroke: #bcbcbc; stroke-width: 0.8; stroke-linejoin: miter; stroke-linecap: square"/>
   </g>
   <g id="patch_13">
    <path d="M 100.8 150.157241 
L 987.84 150.157241 
" style="fill: none; stroke: #bcbcbc; stroke-width: 0.8; stroke-linejoin: miter; stroke-linecap: square"/>
   </g>
  </g>
  <g id="axes_3">
   <g id="patch_14">
    <path d="M 100.8 354.165517 
L 987.84 354.165517 
L 987.84 261.434483 
L 100.8 261.434483 
z
" style="fill: #eeeeee"/>
   </g>
   <g id="matplotlib.axis_5">
    <g id="xtick_13">
     <g id="line2d_37">
      <path d="M 141.12 354.165517 
L 141.12 261.434483 
" clip-path="url(#p60b3be2442)" style="fill: none; stroke-dasharray: 1.85,0.8; stroke-dashoffset: 0; stroke: #b2b2b2; stroke-width: 0.5"/>
     </g>
     <g id="line2d_38">
      <g>
       <use xlink:href="#md3e3e6cea2" x="141.12" y="354.165517" style="stroke: #000000; stroke-width: 0.8"/>
      </g>
     </g>
    </g>
    <g id="xtick_14">
     <g id="line2d_39">
      <path d="M 302.4 354.165517 
L 302.4 261.434483 
" clip-path="url(#p60b3be2442)" style="fill: none; stroke-dasharray: 1.85,0.8; stroke-dashoffset: 0; stroke: #b2b2b2; stroke-width: 0.5"/>
     </g>
     <g id="line2d_40">
      <g>
       <use xlink:href="#md3e3e6cea2" x="302.4" y="354.165517" style="stroke: #000000; stroke-width: 0.8"/>
      </g>
     </g>
    </g>
    <g id="xtick_15">
     <g id="line2d_41">
      <path d="M 463.68 354.165517 
L 463.68 261.434483 
" clip-path="url(#p60b3be2442)" style="fill: none; stroke-dasharray: 1.85,0.8; stroke-dashoffset: 0; stroke: #b2b2b2; stroke-width: 0.5"/>
     </g>
     <g id="line2d_42">
      <g>
       <use xlink:href="#md3e3e6cea2" x="463.68" y="354.165517" style="stroke: #000000; stroke-width: 0.8"/>
      </g>
     </g>
    </g>
    <g id="xtick_16">
     <g id="line2d_43">
      <path d="M 624.96 354.165517 
L 624.96 261.434483 
" clip-path="url(#p60b3be2442)" style="fill: none; stroke-dasharray: 1.85,0.8; stroke-dashoffset: 0; stroke: #b2b2b2; stroke-width: 0.5"/>
     </g>
     <g id="line2d_44">
      <g>
       <use xlink:href="#md3e3e6cea2" x="624.96" y="354.165517" style="stroke: #000000; stroke-width: 0.8"/>
      </g>
     </g>
    </g>
    <g id="xtick_17">
     <g id="line2d_45">
      <path d="M 786.24 354.165517 
L 786.24 261.434483 
" clip-path="url(#p60b3be2442)" style="fill: none; stroke-dasharray: 1.85,0.8; stroke-dashoffset: 0; stroke: #b2b2b2; stroke-width: 0.5"/>
     </g>
     <g id="line2d_46">
      <g>
       <use xlink:href="#md3e3e6cea2" x="786.24" y="354.165517" style="stroke: #000000; stroke-width: 0.8"/>
      </g>
     </g>
    </g>
    <g id="xtick_18">
     <g id="line2d_47">
      <path d="M 947.52 354.165517 
L 947.52 261.434483 
" clip-path="url(#p60b3be2442)" style="fill: none; stroke-dasharray: 1.85,0.8; stroke-dashoffset: 0; stroke: #b2b2b2; stroke-width: 0.5"/>
     </g>
     <g id="line2d_48">
      <g>
       <use xlink:href="#md3e3e6cea2" x="947.52" y="354.165517" style="stroke: #000000; stroke-width: 0.8"/>
      </g>
     </g>
    </g>
   </g>
   <g id="matplotlib.axis_6">
    <g id="ytick_6">
     <g id="line2d_49">
      <path d="M 100.8 347.230714 
L 987.84 347.230714 
" clip-path="url(#p60b3be2442)" style="fill: none; stroke-dasharray: 1.85,0.8; stroke-dashoffset: 0; stroke: #b2b2b2; stroke-width: 0.5"/>
     </g>
     <g id="line2d_50">
      <g>
       <use xlink:href="#mbc1ff9cd40" x="100.8" y="347.230714" style="stroke: #000000; stroke-width: 0.8"/>
      </g>
     </g>
     <g id="text_8">
      <!-- 0 V -->
      <g transform="translate(74.36625 352.549621) scale(0.14 -0.14)">
       <use xlink:href="#DejaVuSans-30"/>
       <use xlink:href="#DejaVuSans-20" x="63.623047"/>
       <use xlink:href="#DejaVuSans-56" x="95.410156"/>
      </g>
     </g>
    </g>
    <g id="ytick_7">
     <g id="line2d_51">
      <path d="M 100.8 303.037223 
L 987.84 303.037223 
" clip-path="url(#p60b3be2442)" style="fill: none; stroke-dasharray: 1.85,0.8; stroke-dashoffset: 0; stroke: #b2b2b2; stroke-width: 0.5"/>
     </g>
     <g id="line2d_52">
      <g>
       <use xlink:href="#mbc1ff9cd40" x="100.8" y="303.037223" style="stroke: #000000; stroke-width: 0.8"/>
      </g>
     </g>
     <g id="text_9">
      <!-- 1 V -->
      <g transform="translate(74.36625 308.35613) scale(0.14 -0.14)">
       <use xlink:href="#DejaVuSans-31"/>
       <use xlink:href="#DejaVuSans-20" x="63.623047"/>
       <use xlink:href="#DejaVuSans-56" x="95.410156"/>
      </g>
     </g>
    </g>
    <g id="text_10">
     <g id="patch_15">
      <path d="M 34.8768 342.395313 
L 34.8768 273.204688 
L 11.247425 273.204688 
L 11.247425 342.395313 
z
" style="fill: #ffff00; opacity: 0.2; stroke: #eeeeee; stroke-width: 0.5; stroke-linejoin: miter"/>
     </g>
     <!-- CLK BUF -->
     <g transform="translate(26.925238 337.355313) rotate(-90) scale(0.14 -0.14)">
      <defs>
       <path id="DejaVuSans-43" d="M 4122 4306 
L 4122 3641 
Q 3803 3938 3442 4084 
Q 3081 4231 2675 4231 
Q 1875 4231 1450 3742 
Q 1025 3253 1025 2328 
Q 1025 1406 1450 917 
Q 1875 428 2675 428 
Q 3081 428 3442 575 
Q 3803 722 4122 1019 
L 4122 359 
Q 3791 134 3420 21 
Q 3050 -91 2638 -91 
Q 1578 -91 968 557 
Q 359 1206 359 2328 
Q 359 3453 968 4101 
Q 1578 4750 2638 4750 
Q 3056 4750 3426 4639 
Q 3797 4528 4122 4306 
z
" transform="scale(0.015625)"/>
       <path id="DejaVuSans-4b" d="M 628 4666 
L 1259 4666 
L 1259 2694 
L 3353 4666 
L 4166 4666 
L 1850 2491 
L 4331 0 
L 3500 0 
L 1259 2247 
L 1259 0 
L 628 0 
L 628 4666 
z
" transform="scale(0.015625)"/>
      </defs>
      <use xlink:href="#DejaVuSans-43"/>
      <use xlink:href="#DejaVuSans-4c" x="69.824219"/>
      <use xlink:href="#DejaVuSans-4b" x="125.537109"/>
      <use xlink:href="#DejaVuSans-20" x="191.113281"/>
      <use xlink:href="#DejaVuSans-42" x="222.900391"/>
      <use xlink:href="#DejaVuSans-55" x="291.503906"/>
      <use xlink:href="#DejaVuSans-46" x="364.697266"/>
     </g>
    </g>
   </g>
   <g id="line2d_53">
    <path d="M 141.12 347.229546 
L 173.376 347.229546 
L 173.601792 294.198525 
L 213.696 294.198525 
L 213.760512 336.500093 
L 213.825024 347.210525 
L 213.889536 347.146928 
L 213.954048 347.323477 
L 214.01856 347.235504 
L 215.341056 347.226231 
L 223.21152 347.229527 
L 254.016 347.229515 
L 254.17728 294.035009 
L 254.241792 294.317847 
L 254.403072 294.189686 
L 254.854656 294.198525 
L 294.336 294.198525 
L 294.400512 336.46297 
L 294.465024 347.560491 
L 294.529536 346.792129 
L 294.626304 347.300164 
L 294.65856 347.268717 
L 294.852096 347.19104 
L 295.206912 347.246796 
L 295.497216 347.229202 
L 320.011776 347.229545 
L 334.656 347.229548 
L 334.81728 294.118977 
L 334.881792 294.216202 
L 335.204352 294.202944 
L 336.043008 294.198525 
L 374.976 294.198525 
L 375.040512 336.50407 
L 375.105024 347.231431 
L 375.169536 347.141324 
L 375.234048 347.316901 
L 375.29856 347.23565 
L 376.685568 347.225849 
L 384.81408 347.2295 
L 415.296 347.229548 
L 415.45728 294.035009 
L 415.521792 294.317847 
L 415.683072 294.185267 
L 416.58624 294.198525 
L 455.616 294.198525 
L 455.680512 336.465622 
L 455.745024 347.565935 
L 455.809536 346.588008 
L 455.906304 347.879121 
L 455.93856 347.302595 
L 456.132096 347.204173 
L 456.519168 347.230004 
L 489.129984 347.229544 
L 495.936 347.229546 
L 496.09728 294.110138 
L 496.161792 294.216202 
L 497.097216 294.198525 
L 536.256 294.198525 
L 536.320512 336.465622 
L 536.385024 347.565887 
L 536.449536 346.588097 
L 536.546304 347.879033 
L 536.57856 347.302591 
L 536.772096 347.204175 
L 537.159168 347.230004 
L 569.769984 347.229544 
L 576.576 347.229547 
L 576.73728 294.110138 
L 576.801792 294.216202 
L 577.737216 294.198525 
L 616.896 294.198525 
L 616.960512 336.465622 
L 617.025024 347.183953 
L 617.089536 347.149054 
L 617.154048 347.332059 
L 617.21856 347.235866 
L 618.605568 347.229417 
L 631.282176 347.229548 
L 637.926912 347.31264 
L 638.604288 347.979087 
L 639.378432 348.396229 
L 640.410624 348.660153 
L 641.668608 348.772537 
L 644.281344 348.762549 
L 656.216064 348.540433 
L 657.216 348.860305 
L 657.248256 349.95047 
L 657.409536 325.100824 
L 657.441792 324.665518 
L 657.506304 324.837872 
L 658.861056 326.110203 
L 660.76416 327.641508 
L 661.377024 328.091397 
L 663.054336 329.262083 
L 663.731712 329.616073 
L 664.763904 329.069399 
L 666.925056 328.189949 
L 667.021824 328.187739 
L 667.183104 328.025107 
L 667.312128 328.047646 
L 667.570176 327.894736 
L 667.6992 327.886781 
L 668.118528 327.732988 
L 671.473152 326.477451 
L 671.537664 326.397019 
L 671.602176 326.449167 
L 671.763456 326.387296 
L 677.53728 324.31197 
L 677.569536 324.383121 
L 677.601792 324.338928 
L 677.730816 324.205022 
L 677.85984 324.207673 
L 677.988864 324.231096 
L 678.02112 324.09719 
L 678.117888 324.13608 
L 678.82752 323.900528 
L 683.407872 322.152234 
L 683.698176 321.986508 
L 683.891712 321.884421 
L 687.955968 319.248722 
L 694.665216 314.969024 
L 697.536 313.352426 
L 697.568256 311.224951 
L 697.761792 346.819768 
L 697.826304 346.760319 
L 698.3424 346.768627 
L 702.438912 346.715904 
L 703.084032 346.075143 
L 703.858176 345.654156 
L 704.858112 345.397922 
L 706.309632 345.288322 
L 709.019136 345.339498 
L 723.534336 345.745636 
L 727.630848 345.850949 
L 728.243712 345.972482 
L 728.888832 346.630611 
L 729.63072 347.068807 
L 730.566144 347.363242 
L 731.920896 347.546044 
L 734.372352 347.627793 
L 737.856 347.629569 
L 737.888256 339.543699 
L 738.01728 265.64953 
L 738.694656 265.950046 
L 740.984832 267.010689 
L 742.242816 267.576366 
L 742.726656 267.748721 
L 743.66208 268.146462 
L 743.952384 268.256946 
L 744.79104 268.592816 
L 748.274688 270.135169 
L 748.855296 270.47104 
L 751.113216 271.82778 
L 751.532544 272.079683 
L 760.951296 277.117741 
L 763.628544 278.337481 
L 764.499456 278.695448 
L 765.144576 278.987125 
L 773.853696 282.447476 
L 774.111744 282.549121 
L 775.853568 283.154572 
L 776.143872 283.256217 
L 777.240576 283.596507 
L 777.498624 283.698152 
L 778.176 283.905861 
L 778.33728 347.505598 
L 778.434048 347.501068 
L 781.369344 347.477774 
L 817.496064 347.312243 
L 818.496 347.309706 
L 818.65728 291.303851 
L 818.721792 291.330367 
L 819.205632 291.370142 
L 820.979712 291.502722 
L 822.20544 291.604367 
L 822.560256 291.639722 
L 823.882752 291.750206 
L 824.1408 291.772302 
L 824.656896 291.812077 
L 826.108416 291.900464 
L 827.430912 292.002109 
L 827.785728 292.033044 
L 829.366272 292.134689 
L 829.721088 292.165624 
L 831.495168 292.267269 
L 831.849984 292.298205 
L 833.720832 292.39985 
L 834.075648 292.430785 
L 836.140032 292.53243 
L 836.494848 292.563366 
L 838.752768 292.665011 
L 839.107584 292.695946 
L 841.655808 292.797591 
L 842.010624 292.828527 
L 844.752384 292.930172 
L 845.1072 292.961107 
L 848.236032 293.062752 
L 848.590848 293.093688 
L 852.20352 293.195333 
L 852.558336 293.226268 
L 856.654848 293.327913 
L 857.009664 293.358849 
L 858.816 293.403042 
L 858.848256 297.265553 
L 858.912768 347.729394 
L 858.97728 347.203562 
L 859.009536 347.200381 
L 859.041792 347.341923 
L 859.106304 347.254304 
L 859.525632 347.251365 
L 889.362432 347.242202 
L 899.136 347.242202 
L 899.29728 293.668203 
L 899.361792 293.774268 
L 900.297216 293.75659 
L 939.456 293.75659 
L 939.488256 301.724677 
L 939.61728 347.189662 
L 939.649536 347.318195 
L 939.714048 347.195219 
L 939.746304 347.15643 
L 939.810816 347.213461 
L 940.004352 347.268645 
L 940.197888 347.24147 
L 945.487872 347.242207 
L 947.52 347.242191 
L 947.52 347.242191 
" clip-path="url(#p60b3be2442)" style="fill: none; stroke: #0000ff; stroke-width: 2; stroke-linecap: square"/>
   </g>
   <g id="patch_16">
    <path d="M 100.8 354.165517 
L 100.8 261.434483 
" style="fill: none; stroke: #bcbcbc; stroke-width: 0.8; stroke-linejoin: miter; stroke-linecap: square"/>
   </g>
   <g id="patch_17">
    <path d="M 987.84 354.165517 
L 987.84 261.434483 
" style="fill: none; stroke: #bcbcbc; stroke-width: 0.8; stroke-linejoin: miter; stroke-linecap: square"/>
   </g>
   <g id="patch_18">
    <path d="M 100.8 354.165517 
L 987.84 354.165517 
" style="fill: none; stroke: #bcbcbc; stroke-width: 0.8; stroke-linejoin: miter; stroke-linecap: square"/>
   </g>
   <g id="patch_19">
    <path d="M 100.8 261.434483 
L 987.84 261.434483 
" style="fill: none; stroke: #bcbcbc; stroke-width: 0.8; stroke-linejoin: miter; stroke-linecap: square"/>
   </g>
  </g>
  <g id="axes_4">
   <g id="patch_20">
    <path d="M 100.8 465.442759 
L 987.84 465.442759 
L 987.84 372.711724 
L 100.8 372.711724 
z
" style="fill: #eeeeee"/>
   </g>
   <g id="matplotlib.axis_7">
    <g id="xtick_19">
     <g id="line2d_54">
      <path d="M 141.12 465.442759 
L 141.12 372.711724 
" clip-path="url(#p91d16cf3f7)" style="fill: none; stroke-dasharray: 1.85,0.8; stroke-dashoffset: 0; stroke: #b2b2b2; stroke-width: 0.5"/>
     </g>
     <g id="line2d_55">
      <g>
       <use xlink:href="#md3e3e6cea2" x="141.12" y="465.442759" style="stroke: #000000; stroke-width: 0.8"/>
      </g>
     </g>
    </g>
    <g id="xtick_20">
     <g id="line2d_56">
      <path d="M 302.4 465.442759 
L 302.4 372.711724 
" clip-path="url(#p91d16cf3f7)" style="fill: none; stroke-dasharray: 1.85,0.8; stroke-dashoffset: 0; stroke: #b2b2b2; stroke-width: 0.5"/>
     </g>
     <g id="line2d_57">
      <g>
       <use xlink:href="#md3e3e6cea2" x="302.4" y="465.442759" style="stroke: #000000; stroke-width: 0.8"/>
      </g>
     </g>
    </g>
    <g id="xtick_21">
     <g id="line2d_58">
      <path d="M 463.68 465.442759 
L 463.68 372.711724 
" clip-path="url(#p91d16cf3f7)" style="fill: none; stroke-dasharray: 1.85,0.8; stroke-dashoffset: 0; stroke: #b2b2b2; stroke-width: 0.5"/>
     </g>
     <g id="line2d_59">
      <g>
       <use xlink:href="#md3e3e6cea2" x="463.68" y="465.442759" style="stroke: #000000; stroke-width: 0.8"/>
      </g>
     </g>
    </g>
    <g id="xtick_22">
     <g id="line2d_60">
      <path d="M 624.96 465.442759 
L 624.96 372.711724 
" clip-path="url(#p91d16cf3f7)" style="fill: none; stroke-dasharray: 1.85,0.8; stroke-dashoffset: 0; stroke: #b2b2b2; stroke-width: 0.5"/>
     </g>
     <g id="line2d_61">
      <g>
       <use xlink:href="#md3e3e6cea2" x="624.96" y="465.442759" style="stroke: #000000; stroke-width: 0.8"/>
      </g>
     </g>
    </g>
    <g id="xtick_23">
     <g id="line2d_62">
      <path d="M 786.24 465.442759 
L 786.24 372.711724 
" clip-path="url(#p91d16cf3f7)" style="fill: none; stroke-dasharray: 1.85,0.8; stroke-dashoffset: 0; stroke: #b2b2b2; stroke-width: 0.5"/>
     </g>
     <g id="line2d_63">
      <g>
       <use xlink:href="#md3e3e6cea2" x="786.24" y="465.442759" style="stroke: #000000; stroke-width: 0.8"/>
      </g>
     </g>
    </g>
    <g id="xtick_24">
     <g id="line2d_64">
      <path d="M 947.52 465.442759 
L 947.52 372.711724 
" clip-path="url(#p91d16cf3f7)" style="fill: none; stroke-dasharray: 1.85,0.8; stroke-dashoffset: 0; stroke: #b2b2b2; stroke-width: 0.5"/>
     </g>
     <g id="line2d_65">
      <g>
       <use xlink:href="#md3e3e6cea2" x="947.52" y="465.442759" style="stroke: #000000; stroke-width: 0.8"/>
      </g>
     </g>
    </g>
   </g>
   <g id="matplotlib.axis_8">
    <g id="ytick_8">
     <g id="line2d_66">
      <path d="M 100.8 441.968788 
L 987.84 441.968788 
" clip-path="url(#p91d16cf3f7)" style="fill: none; stroke-dasharray: 1.85,0.8; stroke-dashoffset: 0; stroke: #b2b2b2; stroke-width: 0.5"/>
     </g>
     <g id="line2d_67">
      <g>
       <use xlink:href="#mbc1ff9cd40" x="100.8" y="441.968788" style="stroke: #000000; stroke-width: 0.8"/>
      </g>
     </g>
     <g id="text_11">
      <!-- 0 V -->
      <g transform="translate(74.36625 447.287694) scale(0.14 -0.14)">
       <use xlink:href="#DejaVuSans-30"/>
       <use xlink:href="#DejaVuSans-20" x="63.623047"/>
       <use xlink:href="#DejaVuSans-56" x="95.410156"/>
      </g>
     </g>
    </g>
    <g id="ytick_9">
     <g id="line2d_68">
      <path d="M 100.8 408.324045 
L 987.84 408.324045 
" clip-path="url(#p91d16cf3f7)" style="fill: none; stroke-dasharray: 1.85,0.8; stroke-dashoffset: 0; stroke: #b2b2b2; stroke-width: 0.5"/>
     </g>
     <g id="line2d_69">
      <g>
       <use xlink:href="#mbc1ff9cd40" x="100.8" y="408.324045" style="stroke: #000000; stroke-width: 0.8"/>
      </g>
     </g>
     <g id="text_12">
      <!-- 1 V -->
      <g transform="translate(74.36625 413.642951) scale(0.14 -0.14)">
       <use xlink:href="#DejaVuSans-31"/>
       <use xlink:href="#DejaVuSans-20" x="63.623047"/>
       <use xlink:href="#DejaVuSans-56" x="95.410156"/>
      </g>
     </g>
    </g>
    <g id="ytick_10">
     <g id="line2d_70">
      <path d="M 100.8 374.679302 
L 987.84 374.679302 
" clip-path="url(#p91d16cf3f7)" style="fill: none; stroke-dasharray: 1.85,0.8; stroke-dashoffset: 0; stroke: #b2b2b2; stroke-width: 0.5"/>
     </g>
     <g id="line2d_71">
      <g>
       <use xlink:href="#mbc1ff9cd40" x="100.8" y="374.679302" style="stroke: #000000; stroke-width: 0.8"/>
      </g>
     </g>
     <g id="text_13">
      <!-- 2 V -->
      <g transform="translate(74.36625 379.998209) scale(0.14 -0.14)">
       <use xlink:href="#DejaVuSans-32"/>
       <use xlink:href="#DejaVuSans-20" x="63.623047"/>
       <use xlink:href="#DejaVuSans-56" x="95.410156"/>
      </g>
     </g>
    </g>
    <g id="text_14">
     <g id="patch_21">
      <path d="M 34.8768 454.693023 
L 34.8768 383.46146 
L 11.247425 383.46146 
L 11.247425 454.693023 
z
" style="fill: #ffff00; opacity: 0.2; stroke: #eeeeee; stroke-width: 0.5; stroke-linejoin: miter"/>
     </g>
     <!-- DFF OUT -->
     <g transform="translate(26.925238 449.653023) rotate(-90) scale(0.14 -0.14)">
      <defs>
       <path id="DejaVuSans-4f" d="M 2522 4238 
Q 1834 4238 1429 3725 
Q 1025 3213 1025 2328 
Q 1025 1447 1429 934 
Q 1834 422 2522 422 
Q 3209 422 3611 934 
Q 4013 1447 4013 2328 
Q 4013 3213 3611 3725 
Q 3209 4238 2522 4238 
z
M 2522 4750 
Q 3503 4750 4090 4092 
Q 4678 3434 4678 2328 
Q 4678 1225 4090 567 
Q 3503 -91 2522 -91 
Q 1538 -91 948 565 
Q 359 1222 359 2328 
Q 359 3434 948 4092 
Q 1538 4750 2522 4750 
z
" transform="scale(0.015625)"/>
       <path id="DejaVuSans-54" d="M -19 4666 
L 3928 4666 
L 3928 4134 
L 2272 4134 
L 2272 0 
L 1638 0 
L 1638 4134 
L -19 4134 
L -19 4666 
z
" transform="scale(0.015625)"/>
      </defs>
      <use xlink:href="#DejaVuSans-44"/>
      <use xlink:href="#DejaVuSans-46" x="77.001953"/>
      <use xlink:href="#DejaVuSans-46" x="134.521484"/>
      <use xlink:href="#DejaVuSans-20" x="192.041016"/>
      <use xlink:href="#DejaVuSans-4f" x="223.828125"/>
      <use xlink:href="#DejaVuSans-55" x="302.539062"/>
      <use xlink:href="#DejaVuSans-54" x="375.732422"/>
     </g>
    </g>
   </g>
   <g id="line2d_72">
    <path d="M 141.12 416.58282 
L 173.408256 416.623867 
L 173.440512 418.016759 
L 173.601792 441.970841 
L 174.214656 441.967829 
L 186.213888 441.967881 
L 254.048256 441.969301 
L 254.080512 442.103798 
L 254.112768 441.881322 
L 254.306304 438.596575 
L 254.628864 437.841924 
L 254.693376 437.468467 
L 255.14496 431.573908 
L 255.370752 417.719676 
L 255.596544 401.921451 
L 255.757824 401.645564 
L 255.983616 401.591732 
L 257.08032 401.595097 
L 295.755264 401.662386 
L 296.239104 403.839201 
L 296.59392 403.294156 
L 297.980928 401.864255 
L 299.690496 401.618648 
L 334.720512 401.510985 
L 334.752768 402.005562 
L 334.785024 404.451535 
L 334.914048 441.954996 
L 334.97856 441.925386 
L 335.13984 441.961736 
L 335.591424 441.968008 
L 372.5568 441.967861 
L 415.328256 441.96928 
L 415.360512 442.10333 
L 415.392768 441.883186 
L 415.586304 438.518183 
L 415.876608 437.746036 
L 415.94112 437.22387 
L 416.521728 422.048072 
L 416.9088 401.706124 
L 417.102336 401.598461 
L 418.424832 401.568181 
L 419.747328 401.595097 
L 495.968256 401.608554 
L 496.000512 401.722947 
L 496.065024 401.568181 
L 496.387584 401.588368 
L 576.608256 401.608554 
L 576.640512 401.722947 
L 576.705024 401.568181 
L 577.027584 401.588368 
L 637.959168 401.679208 
L 639.604224 403.549856 
L 645.861888 412.213377 
L 646.442496 413.449149 
L 647.087616 415.413329 
L 648.055296 418.787897 
L 648.410112 420.103742 
L 648.442368 419.929126 
L 648.474624 419.901874 
L 648.82944 421.822316 
L 649.022976 422.438351 
L 649.055232 422.171885 
L 649.087488 422.661416 
L 649.119744 422.407398 
L 649.31328 423.734683 
L 649.539072 424.610456 
L 649.603584 424.452998 
L 649.63584 424.495054 
L 649.893888 426.073666 
L 650.248704 427.459156 
L 650.797056 429.479523 
L 650.829312 429.170328 
L 650.893824 429.403149 
L 651.08736 430.781238 
L 651.40992 432.03686 
L 651.442176 431.63817 
L 651.506688 431.789571 
L 651.603456 432.505531 
L 651.796992 433.494687 
L 653.184 438.654915 
L 653.216256 438.603641 
L 653.248512 438.531977 
L 653.313024 438.639035 
L 653.442048 439.025209 
L 653.66784 440.376988 
L 653.958144 441.310899 
L 653.9904 440.924556 
L 654.054912 441.217972 
L 654.603264 443.573844 
L 654.63552 443.554902 
L 654.667776 443.397108 
L 654.700032 443.627205 
L 654.764544 443.907129 
L 654.829056 443.857436 
L 654.990336 444.816311 
L 655.312896 445.657934 
L 655.345152 445.596701 
L 655.377408 445.590981 
L 655.409664 445.886382 
L 655.506432 445.79184 
L 655.699968 446.181446 
L 655.861248 446.882603 
L 655.893504 446.658865 
L 655.92576 446.986228 
L 655.958016 446.759799 
L 656.345088 447.860319 
L 656.73216 448.381139 
L 657.151488 449.00996 
L 657.345024 449.62835 
L 657.37728 449.498481 
L 657.441792 449.68992 
L 657.667584 450.402516 
L 661.215744 457.116324 
L 663.796224 461.192385 
L 663.957504 461.067563 
L 664.118784 460.72876 
L 664.602624 460.065286 
L 664.860672 459.500391 
L 665.634816 458.370264 
L 665.699328 458.37531 
L 665.796096 457.688621 
L 665.828352 458.212806 
L 665.892864 458.025069 
L 666.021888 457.899237 
L 666.925056 456.754307 
L 666.957312 456.908736 
L 666.989568 456.71326 
L 667.021824 456.834718 
L 667.183104 456.459242 
L 667.247616 456.557821 
L 667.279872 456.417523 
L 667.312128 456.467317 
L 667.344384 456.398009 
L 667.505664 456.21128 
L 667.53792 456.288663 
L 667.570176 456.11472 
L 668.02176 455.829749 
L 668.312064 455.395395 
L 668.763648 454.879285 
L 668.795904 455.032369 
L 668.82816 454.842612 
L 668.892672 454.956332 
L 668.98944 454.877939 
L 669.118464 454.527361 
L 669.731328 454.00284 
L 669.763584 454.174428 
L 669.79584 453.943961 
L 669.828096 453.937905 
L 669.860352 454.045232 
L 669.892608 453.900223 
L 670.1184 453.763289 
L 670.215168 453.739738 
L 670.473216 453.54157 
L 670.9248 452.963553 
L 671.24736 452.618695 
L 671.279616 452.674209 
L 671.311872 452.519779 
L 671.473152 452.469649 
L 671.537664 452.273836 
L 671.56992 452.281911 
L 671.602176 452.397985 
L 671.634432 452.212266 
L 671.89248 452.183668 
L 671.924736 451.939071 
L 672.021504 451.981127 
L 672.086016 452.058173 
L 672.118272 451.976417 
L 672.344064 451.653764 
L 672.37632 451.752006 
L 672.408576 451.589839 
L 672.5376 451.532306 
L 672.569856 451.689763 
L 672.634368 451.586474 
L 672.795648 451.397391 
L 672.86016 451.425316 
L 672.892416 451.364419 
L 673.118208 451.249017 
L 673.634304 450.604384 
L 673.860096 450.310665 
L 673.892352 450.429095 
L 673.924608 450.236983 
L 674.1504 450.008199 
L 674.343936 449.856798 
L 674.376192 450.107788 
L 674.440704 449.744424 
L 674.47296 450.050255 
L 674.63424 449.592687 
L 674.666496 449.698668 
L 674.698752 449.867901 
L 674.731008 449.515304 
L 676.053504 448.766708 
L 676.537344 448.301401 
L 676.666368 447.971346 
L 676.73088 448.11972 
L 676.859904 447.748618 
L 676.89216 447.7106 
L 676.924416 448.02215 
L 676.956672 447.677291 
L 676.988928 447.705217 
L 677.117952 447.516133 
L 677.182464 447.692432 
L 677.21472 447.471386 
L 677.246976 447.35161 
L 677.279232 447.652731 
L 677.376 447.362377 
L 677.408256 447.654749 
L 677.440512 447.350265 
L 677.472768 447.601254 
L 677.53728 447.124172 
L 677.569536 447.504694 
L 677.601792 447.499647 
L 677.730816 447.039724 
L 677.892096 447.119798 
L 677.988864 447.213667 
L 678.02112 446.869145 
L 678.279168 446.992621 
L 678.408192 446.73322 
L 678.795264 446.627239 
L 679.569408 446.01255 
L 679.891968 445.746083 
L 680.020992 445.641112 
L 680.150016 445.099768 
L 680.182272 445.101282 
L 680.27904 445.268496 
L 680.246784 445.028643 
L 680.311296 445.196059 
L 680.343552 444.911189 
L 680.44032 444.958426 
L 680.537088 444.766382 
L 680.569344 444.824856 
L 680.6016 444.908295 
L 680.633856 444.69879 
L 680.795136 444.879159 
L 680.827392 444.573127 
L 680.92416 444.668476 
L 680.956416 444.522357 
L 681.020928 444.606065 
L 681.053184 444.816984 
L 681.117696 444.628876 
L 681.311232 444.475456 
L 681.343488 444.59725 
L 681.408 444.427647 
L 681.440256 444.494028 
L 681.472512 444.391142 
L 681.601536 444.337647 
L 681.762816 444.288559 
L 683.0208 443.231475 
L 683.214336 442.628427 
L 683.278848 442.93133 
L 683.34336 442.744737 
L 683.375616 442.752509 
L 683.569152 442.107038 
L 683.601408 442.478775 
L 683.66592 442.043846 
L 683.698176 442.000055 
L 683.730432 442.320342 
L 683.762688 441.978805 
L 683.794944 442.023726 
L 683.8272 442.147246 
L 683.859456 441.962679 
L 683.891712 442.053744 
L 684.891648 440.231272 
L 684.95616 440.509683 
L 685.052928 439.838066 
L 685.310976 439.722328 
L 685.343232 439.829151 
L 685.44 439.765562 
L 685.794816 439.193399 
L 686.310912 438.346931 
L 686.472192 437.471832 
L 686.504448 437.967755 
L 686.56896 437.671345 
L 686.633472 437.402523 
L 686.697984 437.472505 
L 686.827008 437.580168 
L 686.859264 437.523308 
L 690.60096 431.660039 
L 690.633216 431.914057 
L 690.729984 431.80572 
L 691.600896 430.524529 
L 691.665408 430.407109 
L 691.794432 429.736569 
L 691.826688 429.85769 
L 691.858944 429.577766 
L 691.923456 429.610065 
L 691.955712 429.740606 
L 691.987968 429.48356 
L 692.149248 429.145431 
L 692.181504 429.249056 
L 692.21376 429.044833 
L 692.6976 428.128014 
L 692.826624 427.840688 
L 693.536256 426.333403 
L 693.697536 425.699536 
L 694.116864 425.60163 
L 695.342592 423.780776 
L 695.374848 423.36089 
L 695.471616 423.494796 
L 695.568384 423.415731 
L 695.890944 422.886836 
L 696.923136 421.525233 
L 696.955392 421.554504 
L 696.987648 421.482504 
L 697.536 420.908188 
L 697.600512 420.675703 
L 697.632768 420.717086 
L 697.69728 420.872525 
L 697.729536 420.829123 
L 698.213376 419.842323 
L 698.890752 419.160344 
L 699.019776 418.973279 
L 699.987456 417.595863 
L 700.535808 417.158482 
L 701.051904 416.768876 
L 702.406656 415.397516 
L 703.890432 412.060967 
L 707.2128 406.37265 
L 709.761024 402.076216 
L 711.180288 399.811925 
L 712.244736 398.149875 
L 713.470464 396.302779 
L 714.212352 395.212689 
L 721.663488 385.290854 
L 722.179584 384.597773 
L 725.372928 380.45274 
L 726.050304 379.594799 
L 726.856704 378.609008 
L 728.404992 376.994061 
L 730.372608 377.101724 
L 734.823936 378.609008 
L 737.468928 379.594799 
L 737.888256 379.732743 
L 737.920512 379.944705 
L 737.985024 379.759659 
L 740.339712 380.624328 
L 748.01664 383.140955 
L 748.468224 383.346188 
L 749.274624 383.712916 
L 749.726208 383.918149 
L 750.532608 384.284876 
L 751.274496 384.621324 
L 761.660928 388.83701 
L 768.918528 391.222422 
L 769.853952 391.505038 
L 770.241024 391.616066 
L 774.208512 392.749894 
L 774.595584 392.860921 
L 776.530944 393.355499 
L 777.014784 393.466527 
L 778.208256 393.765965 
L 778.240512 393.661666 
L 778.305024 393.823161 
L 778.530816 393.826525 
L 779.95008 394.162973 
L 780.401664 394.270636 
L 781.046784 394.428766 
L 782.175744 394.654186 
L 783.33696 394.903157 
L 783.885312 395.014185 
L 784.852992 395.20596 
L 785.4336 395.316988 
L 786.40128 395.508763 
L 786.981888 395.616426 
L 787.465728 395.710631 
L 788.143104 395.818294 
L 788.626944 395.9125 
L 789.30432 396.020163 
L 789.78816 396.114368 
L 790.465536 396.222031 
L 790.949376 396.316236 
L 791.626752 396.4239 
L 792.04608 396.48446 
L 792.6912 396.592123 
L 793.110528 396.652684 
L 793.852416 396.760347 
L 794.336256 396.854552 
L 795.207168 396.962215 
L 795.691008 397.056421 
L 796.56192 397.164084 
L 796.981248 397.224644 
L 797.819904 397.332308 
L 798.465024 397.426513 
L 799.368192 397.534176 
L 800.013312 397.628381 
L 801.013248 397.736045 
L 801.658368 397.83025 
L 802.658304 397.937913 
L 803.303424 398.028754 
L 814.076928 399.041461 
L 815.43168 399.149124 
L 815.980032 399.209684 
L 817.657344 399.317347 
L 818.108928 399.344263 
L 818.915328 399.401459 
L 820.528128 399.512487 
L 821.366784 399.579776 
L 823.269888 399.68744 
L 823.721472 399.714355 
L 825.59232 399.822019 
L 826.043904 399.848934 
L 826.72128 399.882579 
L 827.559936 399.949869 
L 828.33408 399.980149 
L 830.398464 400.084448 
L 832.946688 400.192111 
L 833.366016 400.215662 
L 836.140032 400.32669 
L 836.591616 400.353606 
L 837.333504 400.38725 
L 840.59136 400.494913 
L 841.010688 400.518465 
L 844.752384 400.629492 
L 845.203968 400.656408 
L 845.978112 400.686689 
L 850.848768 400.797716 
L 851.300352 400.824632 
L 852.20352 400.831361 
L 852.622848 400.854912 
L 858.299904 400.96594 
L 858.719232 400.989491 
L 865.944576 401.100519 
L 866.39616 401.127435 
L 867.492864 401.12407 
L 876.105216 401.235098 
L 876.524544 401.258649 
L 899.168256 401.272107 
L 899.200512 401.386499 
L 899.265024 401.231733 
L 899.587584 401.25192 
L 947.52 401.258649 
L 947.52 401.258649 
" clip-path="url(#p91d16cf3f7)" style="fill: none; stroke: #ff00ff; stroke-width: 2; stroke-linecap: square"/>
   </g>
   <g id="patch_22">
    <path d="M 100.8 465.442759 
L 100.8 372.711724 
" style="fill: none; stroke: #bcbcbc; stroke-width: 0.8; stroke-linejoin: miter; stroke-linecap: square"/>
   </g>
   <g id="patch_23">
    <path d="M 987.84 465.442759 
L 987.84 372.711724 
" style="fill: none; stroke: #bcbcbc; stroke-width: 0.8; stroke-linejoin: miter; stroke-linecap: square"/>
   </g>
   <g id="patch_24">
    <path d="M 100.8 465.442759 
L 987.84 465.442759 
" style="fill: none; stroke: #bcbcbc; stroke-width: 0.8; stroke-linejoin: miter; stroke-linecap: square"/>
   </g>
   <g id="patch_25">
    <path d="M 100.8 372.711724 
L 987.84 372.711724 
" style="fill: none; stroke: #bcbcbc; stroke-width: 0.8; stroke-linejoin: miter; stroke-linecap: square"/>
   </g>
  </g>
  <g id="axes_5">
   <g id="patch_26">
    <path d="M 100.8 576.72 
L 987.84 576.72 
L 987.84 483.988966 
L 100.8 483.988966 
z
" style="fill: #eeeeee"/>
   </g>
   <g id="matplotlib.axis_9">
    <g id="xtick_25">
     <g id="line2d_73">
      <path d="M 141.12 576.72 
L 141.12 483.988966 
" clip-path="url(#p8fab84b527)" style="fill: none; stroke-dasharray: 1.85,0.8; stroke-dashoffset: 0; stroke: #b2b2b2; stroke-width: 0.5"/>
     </g>
     <g id="line2d_74">
      <g>
       <use xlink:href="#md3e3e6cea2" x="141.12" y="576.72" style="stroke: #000000; stroke-width: 0.8"/>
      </g>
     </g>
     <g id="text_15">
      <!-- 0 s -->
      <g transform="translate(130.795 590.857813) scale(0.14 -0.14)">
       <defs>
        <path id="DejaVuSans-73" d="M 2834 3397 
L 2834 2853 
Q 2591 2978 2328 3040 
Q 2066 3103 1784 3103 
Q 1356 3103 1142 2972 
Q 928 2841 928 2578 
Q 928 2378 1081 2264 
Q 1234 2150 1697 2047 
L 1894 2003 
Q 2506 1872 2764 1633 
Q 3022 1394 3022 966 
Q 3022 478 2636 193 
Q 2250 -91 1575 -91 
Q 1294 -91 989 -36 
Q 684 19 347 128 
L 347 722 
Q 666 556 975 473 
Q 1284 391 1588 391 
Q 1994 391 2212 530 
Q 2431 669 2431 922 
Q 2431 1156 2273 1281 
Q 2116 1406 1581 1522 
L 1381 1569 
Q 847 1681 609 1914 
Q 372 2147 372 2553 
Q 372 3047 722 3315 
Q 1072 3584 1716 3584 
Q 2034 3584 2315 3537 
Q 2597 3491 2834 3397 
z
" transform="scale(0.015625)"/>
       </defs>
       <use xlink:href="#DejaVuSans-30"/>
       <use xlink:href="#DejaVuSans-20" x="63.623047"/>
       <use xlink:href="#DejaVuSans-73" x="95.410156"/>
      </g>
     </g>
    </g>
    <g id="xtick_26">
     <g id="line2d_75">
      <path d="M 302.4 576.72 
L 302.4 483.988966 
" clip-path="url(#p8fab84b527)" style="fill: none; stroke-dasharray: 1.85,0.8; stroke-dashoffset: 0; stroke: #b2b2b2; stroke-width: 0.5"/>
     </g>
     <g id="line2d_76">
      <g>
       <use xlink:href="#md3e3e6cea2" x="302.4" y="576.72" style="stroke: #000000; stroke-width: 0.8"/>
      </g>
     </g>
     <g id="text_16">
      <!-- 50 ns -->
      <g transform="translate(283.185 590.857813) scale(0.14 -0.14)">
       <defs>
        <path id="DejaVuSans-35" d="M 691 4666 
L 3169 4666 
L 3169 4134 
L 1269 4134 
L 1269 2991 
Q 1406 3038 1543 3061 
Q 1681 3084 1819 3084 
Q 2600 3084 3056 2656 
Q 3513 2228 3513 1497 
Q 3513 744 3044 326 
Q 2575 -91 1722 -91 
Q 1428 -91 1123 -41 
Q 819 9 494 109 
L 494 744 
Q 775 591 1075 516 
Q 1375 441 1709 441 
Q 2250 441 2565 725 
Q 2881 1009 2881 1497 
Q 2881 1984 2565 2268 
Q 2250 2553 1709 2553 
Q 1456 2553 1204 2497 
Q 953 2441 691 2322 
L 691 4666 
z
" transform="scale(0.015625)"/>
        <path id="DejaVuSans-6e" d="M 3513 2113 
L 3513 0 
L 2938 0 
L 2938 2094 
Q 2938 2591 2744 2837 
Q 2550 3084 2163 3084 
Q 1697 3084 1428 2787 
Q 1159 2491 1159 1978 
L 1159 0 
L 581 0 
L 581 3500 
L 1159 3500 
L 1159 2956 
Q 1366 3272 1645 3428 
Q 1925 3584 2291 3584 
Q 2894 3584 3203 3211 
Q 3513 2838 3513 2113 
z
" transform="scale(0.015625)"/>
       </defs>
       <use xlink:href="#DejaVuSans-35"/>
       <use xlink:href="#DejaVuSans-30" x="63.623047"/>
       <use xlink:href="#DejaVuSans-20" x="127.246094"/>
       <use xlink:href="#DejaVuSans-6e" x="159.033203"/>
       <use xlink:href="#DejaVuSans-73" x="222.412109"/>
      </g>
     </g>
    </g>
    <g id="xtick_27">
     <g id="line2d_77">
      <path d="M 463.68 576.72 
L 463.68 483.988966 
" clip-path="url(#p8fab84b527)" style="fill: none; stroke-dasharray: 1.85,0.8; stroke-dashoffset: 0; stroke: #b2b2b2; stroke-width: 0.5"/>
     </g>
     <g id="line2d_78">
      <g>
       <use xlink:href="#md3e3e6cea2" x="463.68" y="576.72" style="stroke: #000000; stroke-width: 0.8"/>
      </g>
     </g>
     <g id="text_17">
      <!-- 100 ns -->
      <g transform="translate(440.01125 590.857813) scale(0.14 -0.14)">
       <use xlink:href="#DejaVuSans-31"/>
       <use xlink:href="#DejaVuSans-30" x="63.623047"/>
       <use xlink:href="#DejaVuSans-30" x="127.246094"/>
       <use xlink:href="#DejaVuSans-20" x="190.869141"/>
       <use xlink:href="#DejaVuSans-6e" x="222.65625"/>
       <use xlink:href="#DejaVuSans-73" x="286.035156"/>
      </g>
     </g>
    </g>
    <g id="xtick_28">
     <g id="line2d_79">
      <path d="M 624.96 576.72 
L 624.96 483.988966 
" clip-path="url(#p8fab84b527)" style="fill: none; stroke-dasharray: 1.85,0.8; stroke-dashoffset: 0; stroke: #b2b2b2; stroke-width: 0.5"/>
     </g>
     <g id="line2d_80">
      <g>
       <use xlink:href="#md3e3e6cea2" x="624.96" y="576.72" style="stroke: #000000; stroke-width: 0.8"/>
      </g>
     </g>
     <g id="text_18">
      <!-- 150 ns -->
      <g transform="translate(601.29125 590.857813) scale(0.14 -0.14)">
       <use xlink:href="#DejaVuSans-31"/>
       <use xlink:href="#DejaVuSans-35" x="63.623047"/>
       <use xlink:href="#DejaVuSans-30" x="127.246094"/>
       <use xlink:href="#DejaVuSans-20" x="190.869141"/>
       <use xlink:href="#DejaVuSans-6e" x="222.65625"/>
       <use xlink:href="#DejaVuSans-73" x="286.035156"/>
      </g>
     </g>
    </g>
    <g id="xtick_29">
     <g id="line2d_81">
      <path d="M 786.24 576.72 
L 786.24 483.988966 
" clip-path="url(#p8fab84b527)" style="fill: none; stroke-dasharray: 1.85,0.8; stroke-dashoffset: 0; stroke: #b2b2b2; stroke-width: 0.5"/>
     </g>
     <g id="line2d_82">
      <g>
       <use xlink:href="#md3e3e6cea2" x="786.24" y="576.72" style="stroke: #000000; stroke-width: 0.8"/>
      </g>
     </g>
     <g id="text_19">
      <!-- 200 ns -->
      <g transform="translate(762.57125 590.857813) scale(0.14 -0.14)">
       <use xlink:href="#DejaVuSans-32"/>
       <use xlink:href="#DejaVuSans-30" x="63.623047"/>
       <use xlink:href="#DejaVuSans-30" x="127.246094"/>
       <use xlink:href="#DejaVuSans-20" x="190.869141"/>
       <use xlink:href="#DejaVuSans-6e" x="222.65625"/>
       <use xlink:href="#DejaVuSans-73" x="286.035156"/>
      </g>
     </g>
    </g>
    <g id="xtick_30">
     <g id="line2d_83">
      <path d="M 947.52 576.72 
L 947.52 483.988966 
" clip-path="url(#p8fab84b527)" style="fill: none; stroke-dasharray: 1.85,0.8; stroke-dashoffset: 0; stroke: #b2b2b2; stroke-width: 0.5"/>
     </g>
     <g id="line2d_84">
      <g>
       <use xlink:href="#md3e3e6cea2" x="947.52" y="576.72" style="stroke: #000000; stroke-width: 0.8"/>
      </g>
     </g>
     <g id="text_20">
      <!-- 250 ns -->
      <g transform="translate(923.85125 590.857813) scale(0.14 -0.14)">
       <use xlink:href="#DejaVuSans-32"/>
       <use xlink:href="#DejaVuSans-35" x="63.623047"/>
       <use xlink:href="#DejaVuSans-30" x="127.246094"/>
       <use xlink:href="#DejaVuSans-20" x="190.869141"/>
       <use xlink:href="#DejaVuSans-6e" x="222.65625"/>
       <use xlink:href="#DejaVuSans-73" x="286.035156"/>
      </g>
     </g>
    </g>
    <g id="text_21">
     <!-- Time -->
     <g transform="translate(527.192969 608.407187) scale(0.14 -0.14)">
      <defs>
       <path id="DejaVuSans-69" d="M 603 3500 
L 1178 3500 
L 1178 0 
L 603 0 
L 603 3500 
z
M 603 4863 
L 1178 4863 
L 1178 4134 
L 603 4134 
L 603 4863 
z
" transform="scale(0.015625)"/>
       <path id="DejaVuSans-6d" d="M 3328 2828 
Q 3544 3216 3844 3400 
Q 4144 3584 4550 3584 
Q 5097 3584 5394 3201 
Q 5691 2819 5691 2113 
L 5691 0 
L 5113 0 
L 5113 2094 
Q 5113 2597 4934 2840 
Q 4756 3084 4391 3084 
Q 3944 3084 3684 2787 
Q 3425 2491 3425 1978 
L 3425 0 
L 2847 0 
L 2847 2094 
Q 2847 2600 2669 2842 
Q 2491 3084 2119 3084 
Q 1678 3084 1418 2786 
Q 1159 2488 1159 1978 
L 1159 0 
L 581 0 
L 581 3500 
L 1159 3500 
L 1159 2956 
Q 1356 3278 1631 3431 
Q 1906 3584 2284 3584 
Q 2666 3584 2933 3390 
Q 3200 3197 3328 2828 
z
" transform="scale(0.015625)"/>
       <path id="DejaVuSans-65" d="M 3597 1894 
L 3597 1613 
L 953 1613 
Q 991 1019 1311 708 
Q 1631 397 2203 397 
Q 2534 397 2845 478 
Q 3156 559 3463 722 
L 3463 178 
Q 3153 47 2828 -22 
Q 2503 -91 2169 -91 
Q 1331 -91 842 396 
Q 353 884 353 1716 
Q 353 2575 817 3079 
Q 1281 3584 2069 3584 
Q 2775 3584 3186 3129 
Q 3597 2675 3597 1894 
z
M 3022 2063 
Q 3016 2534 2758 2815 
Q 2500 3097 2075 3097 
Q 1594 3097 1305 2825 
Q 1016 2553 972 2059 
L 3022 2063 
z
" transform="scale(0.015625)"/>
      </defs>
      <use xlink:href="#DejaVuSans-54"/>
      <use xlink:href="#DejaVuSans-69" x="57.958984"/>
      <use xlink:href="#DejaVuSans-6d" x="85.742188"/>
      <use xlink:href="#DejaVuSans-65" x="183.154297"/>
     </g>
    </g>
   </g>
   <g id="matplotlib.axis_10">
    <g id="ytick_11">
     <g id="line2d_85">
      <path d="M 100.8 569.745885 
L 987.84 569.745885 
" clip-path="url(#p8fab84b527)" style="fill: none; stroke-dasharray: 1.85,0.8; stroke-dashoffset: 0; stroke: #b2b2b2; stroke-width: 0.5"/>
     </g>
     <g id="line2d_86">
      <g>
       <use xlink:href="#mbc1ff9cd40" x="100.8" y="569.745885" style="stroke: #000000; stroke-width: 0.8"/>
      </g>
     </g>
     <g id="text_22">
      <!-- 0 V -->
      <g transform="translate(74.36625 575.064792) scale(0.14 -0.14)">
       <use xlink:href="#DejaVuSans-30"/>
       <use xlink:href="#DejaVuSans-20" x="63.623047"/>
       <use xlink:href="#DejaVuSans-56" x="95.410156"/>
      </g>
     </g>
    </g>
    <g id="ytick_12">
     <g id="line2d_87">
      <path d="M 100.8 535.950348 
L 987.84 535.950348 
" clip-path="url(#p8fab84b527)" style="fill: none; stroke-dasharray: 1.85,0.8; stroke-dashoffset: 0; stroke: #b2b2b2; stroke-width: 0.5"/>
     </g>
     <g id="line2d_88">
      <g>
       <use xlink:href="#mbc1ff9cd40" x="100.8" y="535.950348" style="stroke: #000000; stroke-width: 0.8"/>
      </g>
     </g>
     <g id="text_23">
      <!-- 500 mV -->
      <g transform="translate(42.914375 541.269254) scale(0.14 -0.14)">
       <use xlink:href="#DejaVuSans-35"/>
       <use xlink:href="#DejaVuSans-30" x="63.623047"/>
       <use xlink:href="#DejaVuSans-30" x="127.246094"/>
       <use xlink:href="#DejaVuSans-20" x="190.869141"/>
       <use xlink:href="#DejaVuSans-6d" x="222.65625"/>
       <use xlink:href="#DejaVuSans-56" x="320.068359"/>
      </g>
     </g>
    </g>
    <g id="ytick_13">
     <g id="line2d_89">
      <path d="M 100.8 502.15481 
L 987.84 502.15481 
" clip-path="url(#p8fab84b527)" style="fill: none; stroke-dasharray: 1.85,0.8; stroke-dashoffset: 0; stroke: #b2b2b2; stroke-width: 0.5"/>
     </g>
     <g id="line2d_90">
      <g>
       <use xlink:href="#mbc1ff9cd40" x="100.8" y="502.15481" style="stroke: #000000; stroke-width: 0.8"/>
      </g>
     </g>
     <g id="text_24">
      <!-- 1 V -->
      <g transform="translate(74.36625 507.473717) scale(0.14 -0.14)">
       <use xlink:href="#DejaVuSans-31"/>
       <use xlink:href="#DejaVuSans-20" x="63.623047"/>
       <use xlink:href="#DejaVuSans-56" x="95.410156"/>
      </g>
     </g>
    </g>
    <g id="text_25">
     <g id="patch_27">
      <path d="M 34.8768 554.329483 
L 34.8768 506.379483 
L 11.247425 506.379483 
L 11.247425 554.329483 
z
" style="fill: #ffff00; opacity: 0.2; stroke: #eeeeee; stroke-width: 0.5; stroke-linejoin: miter"/>
     </g>
     <!-- FOUT -->
     <g transform="translate(26.925238 549.289483) rotate(-90) scale(0.14 -0.14)">
      <use xlink:href="#DejaVuSans-46"/>
      <use xlink:href="#DejaVuSans-4f" x="57.519531"/>
      <use xlink:href="#DejaVuSans-55" x="136.230469"/>
      <use xlink:href="#DejaVuSans-54" x="209.423828"/>
     </g>
    </g>
   </g>
   <g id="line2d_91">
    <path d="M 141.12 488.636595 
L 173.472768 488.643355 
L 173.505024 488.44734 
L 173.569536 526.789729 
L 173.69856 572.504953 
L 173.730816 572.3695 
L 173.827584 567.842115 
L 173.892096 569.3609 
L 174.053376 570.064192 
L 174.117888 569.946665 
L 174.408192 569.492054 
L 174.440448 569.54151 
L 174.66624 569.729954 
L 176.182272 569.740151 
L 180.117504 569.761449 
L 193.568256 569.752159 
L 212.954112 569.74401 
L 255.30624 569.743704 
L 255.6288 488.52845 
L 255.854592 488.670391 
L 256.209408 488.629836 
L 334.849536 488.650114 
L 334.881792 492.854278 
L 335.043072 572.18376 
L 335.107584 570.261206 
L 335.172096 568.338639 
L 335.236608 568.870108 
L 335.365632 570.783003 
L 335.430144 570.410083 
L 335.591424 569.797213 
L 335.881728 569.648439 
L 336.559104 569.817924 
L 337.107456 569.746143 
L 350.009856 569.744206 
L 416.489472 569.74333 
L 416.553984 567.480841 
L 416.812032 488.204013 
L 416.844288 488.339195 
L 416.973312 488.852887 
L 417.037824 488.778537 
L 417.39264 488.548727 
L 417.844224 488.717705 
L 418.457088 488.562245 
L 419.328 488.636595 
L 649.281024 488.569004 
L 649.31328 488.4541 
L 649.345536 488.514931 
L 649.377792 492.428455 
L 649.539072 570.25857 
L 649.603584 569.736688 
L 649.829376 569.743906 
L 673.763328 569.744105 
L 695.76192 569.839175 
L 695.826432 567.941947 
L 695.9232 524.311841 
L 696.08448 488.961033 
L 696.213504 488.643355 
L 947.52 488.636595 
L 947.52 488.636595 
" clip-path="url(#p8fab84b527)" style="fill: none; stroke: #ff00ff; stroke-width: 2; stroke-linecap: square"/>
   </g>
   <g id="patch_28">
    <path d="M 100.8 576.72 
L 100.8 483.988966 
" style="fill: none; stroke: #bcbcbc; stroke-width: 0.8; stroke-linejoin: miter; stroke-linecap: square"/>
   </g>
   <g id="patch_29">
    <path d="M 987.84 576.72 
L 987.84 483.988966 
" style="fill: none; stroke: #bcbcbc; stroke-width: 0.8; stroke-linejoin: miter; stroke-linecap: square"/>
   </g>
   <g id="patch_30">
    <path d="M 100.8 576.72 
L 987.84 576.72 
" style="fill: none; stroke: #bcbcbc; stroke-width: 0.8; stroke-linejoin: miter; stroke-linecap: square"/>
   </g>
   <g id="patch_31">
    <path d="M 100.8 483.988966 
L 987.84 483.988966 
" style="fill: none; stroke: #bcbcbc; stroke-width: 0.8; stroke-linejoin: miter; stroke-linecap: square"/>
   </g>
  </g>
  <g id="axes_6">
   <g id="patch_32">
    <path d="M 201.6 628.56 
L 856.8 628.56 
L 856.8 615.6 
L 201.6 615.6 
z
" clip-path="url(#pe77a52892e)" style="fill: #d3d3d3"/>
   </g>
   <g id="patch_33">
    <path d="M 201.6 628.56 
L 847.44 628.56 
L 847.44 615.6 
L 201.6 615.6 
z
" clip-path="url(#pe77a52892e)" style="fill: #0000ff"/>
   </g>
   <g id="line2d_92">
    <path d="M 201.6 635.04 
L 201.6 609.12 
" clip-path="url(#p5018d24760)" style="fill: none; stroke: #ff0000; stroke-linecap: square"/>
   </g>
   <g id="line2d_93">
    <defs>
     <path id="mf3d701cb64" d="M 0 5 
C 1.326016 5 2.597899 4.473168 3.535534 3.535534 
C 4.473168 2.597899 5 1.326016 5 0 
C 5 -1.326016 4.473168 -2.597899 3.535534 -3.535534 
C 2.597899 -4.473168 1.326016 -5 0 -5 
C -1.326016 -5 -2.597899 -4.473168 -3.535534 -3.535534 
C -4.473168 -2.597899 -5 -1.326016 -5 0 
C -5 1.326016 -4.473168 2.597899 -3.535534 3.535534 
C -2.597899 4.473168 -1.326016 5 0 5 
z
" style="stroke: #bfbfbf"/>
    </defs>
    <g>
     <use xlink:href="#mf3d701cb64" x="847.44" y="622.08" style="fill: #ffffff; stroke: #bfbfbf"/>
    </g>
   </g>
   <g id="text_26">
    <!-- #Sweep -->
    <g transform="translate(138.622875 625.39125) scale(0.12 -0.12)">
     <defs>
      <path id="DejaVuSans-23" d="M 3272 2816 
L 2363 2816 
L 2100 1772 
L 3016 1772 
L 3272 2816 
z
M 2803 4594 
L 2478 3297 
L 3391 3297 
L 3719 4594 
L 4219 4594 
L 3897 3297 
L 4872 3297 
L 4872 2816 
L 3775 2816 
L 3519 1772 
L 4513 1772 
L 4513 1294 
L 3397 1294 
L 3072 0 
L 2572 0 
L 2894 1294 
L 1978 1294 
L 1656 0 
L 1153 0 
L 1478 1294 
L 494 1294 
L 494 1772 
L 1594 1772 
L 1856 2816 
L 850 2816 
L 850 3297 
L 1978 3297 
L 2297 4594 
L 2803 4594 
z
" transform="scale(0.015625)"/>
      <path id="DejaVuSans-77" d="M 269 3500 
L 844 3500 
L 1563 769 
L 2278 3500 
L 2956 3500 
L 3675 769 
L 4391 3500 
L 4966 3500 
L 4050 0 
L 3372 0 
L 2619 2869 
L 1863 0 
L 1184 0 
L 269 3500 
z
" transform="scale(0.015625)"/>
      <path id="DejaVuSans-70" d="M 1159 525 
L 1159 -1331 
L 581 -1331 
L 581 3500 
L 1159 3500 
L 1159 2969 
Q 1341 3281 1617 3432 
Q 1894 3584 2278 3584 
Q 2916 3584 3314 3078 
Q 3713 2572 3713 1747 
Q 3713 922 3314 415 
Q 2916 -91 2278 -91 
Q 1894 -91 1617 61 
Q 1341 213 1159 525 
z
M 3116 1747 
Q 3116 2381 2855 2742 
Q 2594 3103 2138 3103 
Q 1681 3103 1420 2742 
Q 1159 2381 1159 1747 
Q 1159 1113 1420 752 
Q 1681 391 2138 391 
Q 2594 391 2855 752 
Q 3116 1113 3116 1747 
z
" transform="scale(0.015625)"/>
     </defs>
     <use xlink:href="#DejaVuSans-23"/>
     <use xlink:href="#DejaVuSans-53" x="83.789062"/>
     <use xlink:href="#DejaVuSans-77" x="147.265625"/>
     <use xlink:href="#DejaVuSans-65" x="229.052734"/>
     <use xlink:href="#DejaVuSans-65" x="290.576172"/>
     <use xlink:href="#DejaVuSans-70" x="352.099609"/>
    </g>
   </g>
   <g id="text_27">
    <!-- $\mathdefault{138}$ -->
    <g transform="translate(869.904 625.39125) scale(0.12 -0.12)">
     <defs>
      <path id="DejaVuSans-33" d="M 2597 2516 
Q 3050 2419 3304 2112 
Q 3559 1806 3559 1356 
Q 3559 666 3084 287 
Q 2609 -91 1734 -91 
Q 1441 -91 1130 -33 
Q 819 25 488 141 
L 488 750 
Q 750 597 1062 519 
Q 1375 441 1716 441 
Q 2309 441 2620 675 
Q 2931 909 2931 1356 
Q 2931 1769 2642 2001 
Q 2353 2234 1838 2234 
L 1294 2234 
L 1294 2753 
L 1863 2753 
Q 2328 2753 2575 2939 
Q 2822 3125 2822 3475 
Q 2822 3834 2567 4026 
Q 2313 4219 1838 4219 
Q 1578 4219 1281 4162 
Q 984 4106 628 3988 
L 628 4550 
Q 988 4650 1302 4700 
Q 1616 4750 1894 4750 
Q 2613 4750 3031 4423 
Q 3450 4097 3450 3541 
Q 3450 3153 3228 2886 
Q 3006 2619 2597 2516 
z
" transform="scale(0.015625)"/>
      <path id="DejaVuSans-38" d="M 2034 2216 
Q 1584 2216 1326 1975 
Q 1069 1734 1069 1313 
Q 1069 891 1326 650 
Q 1584 409 2034 409 
Q 2484 409 2743 651 
Q 3003 894 3003 1313 
Q 3003 1734 2745 1975 
Q 2488 2216 2034 2216 
z
M 1403 2484 
Q 997 2584 770 2862 
Q 544 3141 544 3541 
Q 544 4100 942 4425 
Q 1341 4750 2034 4750 
Q 2731 4750 3128 4425 
Q 3525 4100 3525 3541 
Q 3525 3141 3298 2862 
Q 3072 2584 2669 2484 
Q 3125 2378 3379 2068 
Q 3634 1759 3634 1313 
Q 3634 634 3220 271 
Q 2806 -91 2034 -91 
Q 1263 -91 848 271 
Q 434 634 434 1313 
Q 434 1759 690 2068 
Q 947 2378 1403 2484 
z
M 1172 3481 
Q 1172 3119 1398 2916 
Q 1625 2713 2034 2713 
Q 2441 2713 2670 2916 
Q 2900 3119 2900 3481 
Q 2900 3844 2670 4047 
Q 2441 4250 2034 4250 
Q 1625 4250 1398 4047 
Q 1172 3844 1172 3481 
z
" transform="scale(0.015625)"/>
     </defs>
     <use xlink:href="#DejaVuSans-31" transform="translate(0 0.78125)"/>
     <use xlink:href="#DejaVuSans-33" transform="translate(63.623047 0.78125)"/>
     <use xlink:href="#DejaVuSans-38" transform="translate(127.246094 0.78125)"/>
    </g>
   </g>
  </g>
  <g id="text_28">
   <!-- DFF under BBI sweep analysis (Sweep = 148E-9) -->
   <g transform="translate(308.25625 25.1175) scale(0.16 -0.16)">
    <defs>
     <path id="DejaVuSans-75" d="M 544 1381 
L 544 3500 
L 1119 3500 
L 1119 1403 
Q 1119 906 1312 657 
Q 1506 409 1894 409 
Q 2359 409 2629 706 
Q 2900 1003 2900 1516 
L 2900 3500 
L 3475 3500 
L 3475 0 
L 2900 0 
L 2900 538 
Q 2691 219 2414 64 
Q 2138 -91 1772 -91 
Q 1169 -91 856 284 
Q 544 659 544 1381 
z
M 1991 3584 
L 1991 3584 
z
" transform="scale(0.015625)"/>
     <path id="DejaVuSans-64" d="M 2906 2969 
L 2906 4863 
L 3481 4863 
L 3481 0 
L 2906 0 
L 2906 525 
Q 2725 213 2448 61 
Q 2172 -91 1784 -91 
Q 1150 -91 751 415 
Q 353 922 353 1747 
Q 353 2572 751 3078 
Q 1150 3584 1784 3584 
Q 2172 3584 2448 3432 
Q 2725 3281 2906 2969 
z
M 947 1747 
Q 947 1113 1208 752 
Q 1469 391 1925 391 
Q 2381 391 2643 752 
Q 2906 1113 2906 1747 
Q 2906 2381 2643 2742 
Q 2381 3103 1925 3103 
Q 1469 3103 1208 2742 
Q 947 2381 947 1747 
z
" transform="scale(0.015625)"/>
     <path id="DejaVuSans-72" d="M 2631 2963 
Q 2534 3019 2420 3045 
Q 2306 3072 2169 3072 
Q 1681 3072 1420 2755 
Q 1159 2438 1159 1844 
L 1159 0 
L 581 0 
L 581 3500 
L 1159 3500 
L 1159 2956 
Q 1341 3275 1631 3429 
Q 1922 3584 2338 3584 
Q 2397 3584 2469 3576 
Q 2541 3569 2628 3553 
L 2631 2963 
z
" transform="scale(0.015625)"/>
     <path id="DejaVuSans-61" d="M 2194 1759 
Q 1497 1759 1228 1600 
Q 959 1441 959 1056 
Q 959 750 1161 570 
Q 1363 391 1709 391 
Q 2188 391 2477 730 
Q 2766 1069 2766 1631 
L 2766 1759 
L 2194 1759 
z
M 3341 1997 
L 3341 0 
L 2766 0 
L 2766 531 
Q 2569 213 2275 61 
Q 1981 -91 1556 -91 
Q 1019 -91 701 211 
Q 384 513 384 1019 
Q 384 1609 779 1909 
Q 1175 2209 1959 2209 
L 2766 2209 
L 2766 2266 
Q 2766 2663 2505 2880 
Q 2244 3097 1772 3097 
Q 1472 3097 1187 3025 
Q 903 2953 641 2809 
L 641 3341 
Q 956 3463 1253 3523 
Q 1550 3584 1831 3584 
Q 2591 3584 2966 3190 
Q 3341 2797 3341 1997 
z
" transform="scale(0.015625)"/>
     <path id="DejaVuSans-6c" d="M 603 4863 
L 1178 4863 
L 1178 0 
L 603 0 
L 603 4863 
z
" transform="scale(0.015625)"/>
     <path id="DejaVuSans-79" d="M 2059 -325 
Q 1816 -950 1584 -1140 
Q 1353 -1331 966 -1331 
L 506 -1331 
L 506 -850 
L 844 -850 
Q 1081 -850 1212 -737 
Q 1344 -625 1503 -206 
L 1606 56 
L 191 3500 
L 800 3500 
L 1894 763 
L 2988 3500 
L 3597 3500 
L 2059 -325 
z
" transform="scale(0.015625)"/>
     <path id="DejaVuSans-28" d="M 1984 4856 
Q 1566 4138 1362 3434 
Q 1159 2731 1159 2009 
Q 1159 1288 1364 580 
Q 1569 -128 1984 -844 
L 1484 -844 
Q 1016 -109 783 600 
Q 550 1309 550 2009 
Q 550 2706 781 3412 
Q 1013 4119 1484 4856 
L 1984 4856 
z
" transform="scale(0.015625)"/>
     <path id="DejaVuSans-3d" d="M 678 2906 
L 4684 2906 
L 4684 2381 
L 678 2381 
L 678 2906 
z
M 678 1631 
L 4684 1631 
L 4684 1100 
L 678 1100 
L 678 1631 
z
" transform="scale(0.015625)"/>
     <path id="DejaVuSans-34" d="M 2419 4116 
L 825 1625 
L 2419 1625 
L 2419 4116 
z
M 2253 4666 
L 3047 4666 
L 3047 1625 
L 3713 1625 
L 3713 1100 
L 3047 1100 
L 3047 0 
L 2419 0 
L 2419 1100 
L 313 1100 
L 313 1709 
L 2253 4666 
z
" transform="scale(0.015625)"/>
     <path id="DejaVuSans-2d" d="M 313 2009 
L 1997 2009 
L 1997 1497 
L 313 1497 
L 313 2009 
z
" transform="scale(0.015625)"/>
     <path id="DejaVuSans-39" d="M 703 97 
L 703 672 
Q 941 559 1184 500 
Q 1428 441 1663 441 
Q 2288 441 2617 861 
Q 2947 1281 2994 2138 
Q 2813 1869 2534 1725 
Q 2256 1581 1919 1581 
Q 1219 1581 811 2004 
Q 403 2428 403 3163 
Q 403 3881 828 4315 
Q 1253 4750 1959 4750 
Q 2769 4750 3195 4129 
Q 3622 3509 3622 2328 
Q 3622 1225 3098 567 
Q 2575 -91 1691 -91 
Q 1453 -91 1209 -44 
Q 966 3 703 97 
z
M 1959 2075 
Q 2384 2075 2632 2365 
Q 2881 2656 2881 3163 
Q 2881 3666 2632 3958 
Q 2384 4250 1959 4250 
Q 1534 4250 1286 3958 
Q 1038 3666 1038 3163 
Q 1038 2656 1286 2365 
Q 1534 2075 1959 2075 
z
" transform="scale(0.015625)"/>
     <path id="DejaVuSans-29" d="M 513 4856 
L 1013 4856 
Q 1481 4119 1714 3412 
Q 1947 2706 1947 2009 
Q 1947 1309 1714 600 
Q 1481 -109 1013 -844 
L 513 -844 
Q 928 -128 1133 580 
Q 1338 1288 1338 2009 
Q 1338 2731 1133 3434 
Q 928 4138 513 4856 
z
" transform="scale(0.015625)"/>
    </defs>
    <use xlink:href="#DejaVuSans-44"/>
    <use xlink:href="#DejaVuSans-46" x="77.001953"/>
    <use xlink:href="#DejaVuSans-46" x="134.521484"/>
    <use xlink:href="#DejaVuSans-20" x="192.041016"/>
    <use xlink:href="#DejaVuSans-75" x="223.828125"/>
    <use xlink:href="#DejaVuSans-6e" x="287.207031"/>
    <use xlink:href="#DejaVuSans-64" x="350.585938"/>
    <use xlink:href="#DejaVuSans-65" x="414.0625"/>
    <use xlink:href="#DejaVuSans-72" x="475.585938"/>
    <use xlink:href="#DejaVuSans-20" x="516.699219"/>
    <use xlink:href="#DejaVuSans-42" x="548.486328"/>
    <use xlink:href="#DejaVuSans-42" x="617.089844"/>
    <use xlink:href="#DejaVuSans-49" x="685.693359"/>
    <use xlink:href="#DejaVuSans-20" x="715.185547"/>
    <use xlink:href="#DejaVuSans-73" x="746.972656"/>
    <use xlink:href="#DejaVuSans-77" x="799.072266"/>
    <use xlink:href="#DejaVuSans-65" x="880.859375"/>
    <use xlink:href="#DejaVuSans-65" x="942.382812"/>
    <use xlink:href="#DejaVuSans-70" x="1003.90625"/>
    <use xlink:href="#DejaVuSans-20" x="1067.382812"/>
    <use xlink:href="#DejaVuSans-61" x="1099.169922"/>
    <use xlink:href="#DejaVuSans-6e" x="1160.449219"/>
    <use xlink:href="#DejaVuSans-61" x="1223.828125"/>
    <use xlink:href="#DejaVuSans-6c" x="1285.107422"/>
    <use xlink:href="#DejaVuSans-79" x="1312.890625"/>
    <use xlink:href="#DejaVuSans-73" x="1372.070312"/>
    <use xlink:href="#DejaVuSans-69" x="1424.169922"/>
    <use xlink:href="#DejaVuSans-73" x="1451.953125"/>
    <use xlink:href="#DejaVuSans-20" x="1504.052734"/>
    <use xlink:href="#DejaVuSans-28" x="1535.839844"/>
    <use xlink:href="#DejaVuSans-53" x="1574.853516"/>
    <use xlink:href="#DejaVuSans-77" x="1638.330078"/>
    <use xlink:href="#DejaVuSans-65" x="1720.117188"/>
    <use xlink:href="#DejaVuSans-65" x="1781.640625"/>
    <use xlink:href="#DejaVuSans-70" x="1843.164062"/>
    <use xlink:href="#DejaVuSans-20" x="1906.640625"/>
    <use xlink:href="#DejaVuSans-3d" x="1938.427734"/>
    <use xlink:href="#DejaVuSans-20" x="2022.216797"/>
    <use xlink:href="#DejaVuSans-31" x="2054.003906"/>
    <use xlink:href="#DejaVuSans-34" x="2117.626953"/>
    <use xlink:href="#DejaVuSans-38" x="2181.25"/>
    <use xlink:href="#DejaVuSans-45" x="2244.873047"/>
    <use xlink:href="#DejaVuSans-2d" x="2308.056641"/>
    <use xlink:href="#DejaVuSans-39" x="2344.140625"/>
    <use xlink:href="#DejaVuSans-29" x="2407.763672"/>
   </g>
  </g>
 </g>
 <defs>
  <clipPath id="p1b7b268e80">
   <rect x="100.8" y="38.88" width="887.04" height="92.731034"/>
  </clipPath>
  <clipPath id="pf9e7daa306">
   <rect x="100.8" y="150.157241" width="887.04" height="92.731034"/>
  </clipPath>
  <clipPath id="p60b3be2442">
   <rect x="100.8" y="261.434483" width="887.04" height="92.731034"/>
  </clipPath>
  <clipPath id="p91d16cf3f7">
   <rect x="100.8" y="372.711724" width="887.04" height="92.731034"/>
  </clipPath>
  <clipPath id="p8fab84b527">
   <rect x="100.8" y="483.988966" width="887.04" height="92.731034"/>
  </clipPath>
  <clipPath id="pe77a52892e">
   <rect x="201.6" y="609.12" width="655.2" height="25.92"/>
  </clipPath>
  <clipPath id="p5018d24760">
   <path d="M 201.6 628.56 
L 856.8 628.56 
L 856.8 615.6 
L 201.6 615.6 
z
"/>
  </clipPath>
 </defs>
</svg>
