<?xml version="1.0" encoding="utf-8" standalone="no"?>
<!DOCTYPE svg PUBLIC "-//W3C//DTD SVG 1.1//EN"
  "http://www.w3.org/Graphics/SVG/1.1/DTD/svg11.dtd">
<svg xmlns:xlink="http://www.w3.org/1999/xlink" width="1008pt" height="648pt" viewBox="0 0 1008 648" xmlns="http://www.w3.org/2000/svg" version="1.1">
 <metadata>
  <rdf:RDF xmlns:dc="http://purl.org/dc/elements/1.1/" xmlns:cc="http://creativecommons.org/ns#" xmlns:rdf="http://www.w3.org/1999/02/22-rdf-syntax-ns#">
   <cc:Work>
    <dc:type rdf:resource="http://purl.org/dc/dcmitype/StillImage"/>
    <dc:date>2024-06-03T10:45:46.189037</dc:date>
    <dc:format>image/svg+xml</dc:format>
    <dc:creator>
     <cc:Agent>
      <dc:title>Matplotlib v3.9.0, https://matplotlib.org/</dc:title>
     </cc:Agent>
    </dc:creator>
   </cc:Work>
  </rdf:RDF>
 </metadata>
 <defs>
  <style type="text/css">*{stroke-linejoin: round; stroke-linecap: butt}</style>
 </defs>
 <g id="figure_1">
  <g id="patch_1">
   <path d="M 0 648 
L 1008 648 
L 1008 0 
L 0 0 
z
" style="fill: #ffffff"/>
  </g>
  <g id="axes_1">
   <g id="patch_2">
    <path d="M 100.8 131.611034 
L 987.84 131.611034 
L 987.84 38.88 
L 100.8 38.88 
z
" style="fill: #eeeeee"/>
   </g>
   <g id="matplotlib.axis_1">
    <g id="xtick_1">
     <g id="line2d_1">
      <path d="M 141.12 131.611034 
L 141.12 38.88 
" clip-path="url(#pb5f4233910)" style="fill: none; stroke-dasharray: 1.85,0.8; stroke-dashoffset: 0; stroke: #b2b2b2; stroke-width: 0.5"/>
     </g>
     <g id="line2d_2">
      <defs>
       <path id="m5cb1aed65c" d="M 0 0 
L 0 -3.5 
" style="stroke: #000000; stroke-width: 0.8"/>
      </defs>
      <g>
       <use xlink:href="#m5cb1aed65c" x="141.12" y="131.611034" style="stroke: #000000; stroke-width: 0.8"/>
      </g>
     </g>
    </g>
    <g id="xtick_2">
     <g id="line2d_3">
      <path d="M 302.4 131.611034 
L 302.4 38.88 
" clip-path="url(#pb5f4233910)" style="fill: none; stroke-dasharray: 1.85,0.8; stroke-dashoffset: 0; stroke: #b2b2b2; stroke-width: 0.5"/>
     </g>
     <g id="line2d_4">
      <g>
       <use xlink:href="#m5cb1aed65c" x="302.4" y="131.611034" style="stroke: #000000; stroke-width: 0.8"/>
      </g>
     </g>
    </g>
    <g id="xtick_3">
     <g id="line2d_5">
      <path d="M 463.68 131.611034 
L 463.68 38.88 
" clip-path="url(#pb5f4233910)" style="fill: none; stroke-dasharray: 1.85,0.8; stroke-dashoffset: 0; stroke: #b2b2b2; stroke-width: 0.5"/>
     </g>
     <g id="line2d_6">
      <g>
       <use xlink:href="#m5cb1aed65c" x="463.68" y="131.611034" style="stroke: #000000; stroke-width: 0.8"/>
      </g>
     </g>
    </g>
    <g id="xtick_4">
     <g id="line2d_7">
      <path d="M 624.96 131.611034 
L 624.96 38.88 
" clip-path="url(#pb5f4233910)" style="fill: none; stroke-dasharray: 1.85,0.8; stroke-dashoffset: 0; stroke: #b2b2b2; stroke-width: 0.5"/>
     </g>
     <g id="line2d_8">
      <g>
       <use xlink:href="#m5cb1aed65c" x="624.96" y="131.611034" style="stroke: #000000; stroke-width: 0.8"/>
      </g>
     </g>
    </g>
    <g id="xtick_5">
     <g id="line2d_9">
      <path d="M 786.24 131.611034 
L 786.24 38.88 
" clip-path="url(#pb5f4233910)" style="fill: none; stroke-dasharray: 1.85,0.8; stroke-dashoffset: 0; stroke: #b2b2b2; stroke-width: 0.5"/>
     </g>
     <g id="line2d_10">
      <g>
       <use xlink:href="#m5cb1aed65c" x="786.24" y="131.611034" style="stroke: #000000; stroke-width: 0.8"/>
      </g>
     </g>
    </g>
    <g id="xtick_6">
     <g id="line2d_11">
      <path d="M 947.52 131.611034 
L 947.52 38.88 
" clip-path="url(#pb5f4233910)" style="fill: none; stroke-dasharray: 1.85,0.8; stroke-dashoffset: 0; stroke: #b2b2b2; stroke-width: 0.5"/>
     </g>
     <g id="line2d_12">
      <g>
       <use xlink:href="#m5cb1aed65c" x="947.52" y="131.611034" style="stroke: #000000; stroke-width: 0.8"/>
      </g>
     </g>
    </g>
   </g>
   <g id="matplotlib.axis_2">
    <g id="ytick_1">
     <g id="line2d_13">
      <path d="M 100.8 98.340394 
L 987.84 98.340394 
" clip-path="url(#pb5f4233910)" style="fill: none; stroke-dasharray: 1.85,0.8; stroke-dashoffset: 0; stroke: #b2b2b2; stroke-width: 0.5"/>
     </g>
     <g id="line2d_14">
      <defs>
       <path id="md47ced653d" d="M 0 0 
L 3.5 0 
" style="stroke: #000000; stroke-width: 0.8"/>
      </defs>
      <g>
       <use xlink:href="#md47ced653d" x="100.8" y="98.340394" style="stroke: #000000; stroke-width: 0.8"/>
      </g>
     </g>
     <g id="text_1">
      <!-- −200 V -->
      <g transform="translate(44.819688 103.6593) scale(0.14 -0.14)">
       <defs>
        <path id="DejaVuSans-2212" d="M 678 2272 
L 4684 2272 
L 4684 1741 
L 678 1741 
L 678 2272 
z
" transform="scale(0.015625)"/>
        <path id="DejaVuSans-32" d="M 1228 531 
L 3431 531 
L 3431 0 
L 469 0 
L 469 531 
Q 828 903 1448 1529 
Q 2069 2156 2228 2338 
Q 2531 2678 2651 2914 
Q 2772 3150 2772 3378 
Q 2772 3750 2511 3984 
Q 2250 4219 1831 4219 
Q 1534 4219 1204 4116 
Q 875 4013 500 3803 
L 500 4441 
Q 881 4594 1212 4672 
Q 1544 4750 1819 4750 
Q 2544 4750 2975 4387 
Q 3406 4025 3406 3419 
Q 3406 3131 3298 2873 
Q 3191 2616 2906 2266 
Q 2828 2175 2409 1742 
Q 1991 1309 1228 531 
z
" transform="scale(0.015625)"/>
        <path id="DejaVuSans-30" d="M 2034 4250 
Q 1547 4250 1301 3770 
Q 1056 3291 1056 2328 
Q 1056 1369 1301 889 
Q 1547 409 2034 409 
Q 2525 409 2770 889 
Q 3016 1369 3016 2328 
Q 3016 3291 2770 3770 
Q 2525 4250 2034 4250 
z
M 2034 4750 
Q 2819 4750 3233 4129 
Q 3647 3509 3647 2328 
Q 3647 1150 3233 529 
Q 2819 -91 2034 -91 
Q 1250 -91 836 529 
Q 422 1150 422 2328 
Q 422 3509 836 4129 
Q 1250 4750 2034 4750 
z
" transform="scale(0.015625)"/>
        <path id="DejaVuSans-20" transform="scale(0.015625)"/>
        <path id="DejaVuSans-56" d="M 1831 0 
L 50 4666 
L 709 4666 
L 2188 738 
L 3669 4666 
L 4325 4666 
L 2547 0 
L 1831 0 
z
" transform="scale(0.015625)"/>
       </defs>
       <use xlink:href="#DejaVuSans-2212"/>
       <use xlink:href="#DejaVuSans-32" x="83.789062"/>
       <use xlink:href="#DejaVuSans-30" x="147.412109"/>
       <use xlink:href="#DejaVuSans-30" x="211.035156"/>
       <use xlink:href="#DejaVuSans-20" x="274.658203"/>
       <use xlink:href="#DejaVuSans-56" x="306.445312"/>
      </g>
     </g>
    </g>
    <g id="ytick_2">
     <g id="line2d_15">
      <path d="M 100.8 45.027377 
L 987.84 45.027377 
" clip-path="url(#pb5f4233910)" style="fill: none; stroke-dasharray: 1.85,0.8; stroke-dashoffset: 0; stroke: #b2b2b2; stroke-width: 0.5"/>
     </g>
     <g id="line2d_16">
      <g>
       <use xlink:href="#md47ced653d" x="100.8" y="45.027377" style="stroke: #000000; stroke-width: 0.8"/>
      </g>
     </g>
     <g id="text_2">
      <!-- 0 V -->
      <g transform="translate(74.36625 50.346284) scale(0.14 -0.14)">
       <use xlink:href="#DejaVuSans-30"/>
       <use xlink:href="#DejaVuSans-20" x="63.623047"/>
       <use xlink:href="#DejaVuSans-56" x="95.410156"/>
      </g>
     </g>
    </g>
    <g id="text_3">
     <g id="patch_3">
      <path d="M 34.8768 131.080205 
L 34.8768 39.41083 
L 11.247425 39.41083 
L 11.247425 131.080205 
z
" style="fill: #ffff00; opacity: 0.2; stroke: #eeeeee; stroke-width: 0.5; stroke-linejoin: miter"/>
     </g>
     <!-- VPULSE BBI -->
     <g transform="translate(26.925238 126.040205) rotate(-90) scale(0.14 -0.14)">
      <defs>
       <path id="DejaVuSans-50" d="M 1259 4147 
L 1259 2394 
L 2053 2394 
Q 2494 2394 2734 2622 
Q 2975 2850 2975 3272 
Q 2975 3691 2734 3919 
Q 2494 4147 2053 4147 
L 1259 4147 
z
M 628 4666 
L 2053 4666 
Q 2838 4666 3239 4311 
Q 3641 3956 3641 3272 
Q 3641 2581 3239 2228 
Q 2838 1875 2053 1875 
L 1259 1875 
L 1259 0 
L 628 0 
L 628 4666 
z
" transform="scale(0.015625)"/>
       <path id="DejaVuSans-55" d="M 556 4666 
L 1191 4666 
L 1191 1831 
Q 1191 1081 1462 751 
Q 1734 422 2344 422 
Q 2950 422 3222 751 
Q 3494 1081 3494 1831 
L 3494 4666 
L 4128 4666 
L 4128 1753 
Q 4128 841 3676 375 
Q 3225 -91 2344 -91 
Q 1459 -91 1007 375 
Q 556 841 556 1753 
L 556 4666 
z
" transform="scale(0.015625)"/>
       <path id="DejaVuSans-4c" d="M 628 4666 
L 1259 4666 
L 1259 531 
L 3531 531 
L 3531 0 
L 628 0 
L 628 4666 
z
" transform="scale(0.015625)"/>
       <path id="DejaVuSans-53" d="M 3425 4513 
L 3425 3897 
Q 3066 4069 2747 4153 
Q 2428 4238 2131 4238 
Q 1616 4238 1336 4038 
Q 1056 3838 1056 3469 
Q 1056 3159 1242 3001 
Q 1428 2844 1947 2747 
L 2328 2669 
Q 3034 2534 3370 2195 
Q 3706 1856 3706 1288 
Q 3706 609 3251 259 
Q 2797 -91 1919 -91 
Q 1588 -91 1214 -16 
Q 841 59 441 206 
L 441 856 
Q 825 641 1194 531 
Q 1563 422 1919 422 
Q 2459 422 2753 634 
Q 3047 847 3047 1241 
Q 3047 1584 2836 1778 
Q 2625 1972 2144 2069 
L 1759 2144 
Q 1053 2284 737 2584 
Q 422 2884 422 3419 
Q 422 4038 858 4394 
Q 1294 4750 2059 4750 
Q 2388 4750 2728 4690 
Q 3069 4631 3425 4513 
z
" transform="scale(0.015625)"/>
       <path id="DejaVuSans-45" d="M 628 4666 
L 3578 4666 
L 3578 4134 
L 1259 4134 
L 1259 2753 
L 3481 2753 
L 3481 2222 
L 1259 2222 
L 1259 531 
L 3634 531 
L 3634 0 
L 628 0 
L 628 4666 
z
" transform="scale(0.015625)"/>
       <path id="DejaVuSans-42" d="M 1259 2228 
L 1259 519 
L 2272 519 
Q 2781 519 3026 730 
Q 3272 941 3272 1375 
Q 3272 1813 3026 2020 
Q 2781 2228 2272 2228 
L 1259 2228 
z
M 1259 4147 
L 1259 2741 
L 2194 2741 
Q 2656 2741 2882 2914 
Q 3109 3088 3109 3444 
Q 3109 3797 2882 3972 
Q 2656 4147 2194 4147 
L 1259 4147 
z
M 628 4666 
L 2241 4666 
Q 2963 4666 3353 4366 
Q 3744 4066 3744 3513 
Q 3744 3084 3544 2831 
Q 3344 2578 2956 2516 
Q 3422 2416 3680 2098 
Q 3938 1781 3938 1306 
Q 3938 681 3513 340 
Q 3088 0 2303 0 
L 628 0 
L 628 4666 
z
" transform="scale(0.015625)"/>
       <path id="DejaVuSans-49" d="M 628 4666 
L 1259 4666 
L 1259 0 
L 628 0 
L 628 4666 
z
" transform="scale(0.015625)"/>
      </defs>
      <use xlink:href="#DejaVuSans-56"/>
      <use xlink:href="#DejaVuSans-50" x="68.408203"/>
      <use xlink:href="#DejaVuSans-55" x="128.710938"/>
      <use xlink:href="#DejaVuSans-4c" x="201.904297"/>
      <use xlink:href="#DejaVuSans-53" x="257.617188"/>
      <use xlink:href="#DejaVuSans-45" x="321.09375"/>
      <use xlink:href="#DejaVuSans-20" x="384.277344"/>
      <use xlink:href="#DejaVuSans-42" x="416.064453"/>
      <use xlink:href="#DejaVuSans-42" x="484.667969"/>
      <use xlink:href="#DejaVuSans-49" x="553.271484"/>
     </g>
    </g>
   </g>
   <g id="line2d_17">
    <path d="M 141.12 45.027377 
L 441.133056 45.136282 
L 441.616896 46.425538 
L 449.842176 69.006772 
L 457.261056 89.863624 
L 458.873856 94.440546 
L 460.680192 99.673219 
L 464.131584 110.703682 
L 467.06688 119.593628 
L 467.776512 119.940162 
L 468.937728 120.483955 
L 469.421568 120.713201 
L 470.389248 121.150368 
L 470.969856 121.40627 
L 471.840768 121.790124 
L 472.421376 122.046026 
L 473.260032 122.403223 
L 474.743808 123.016323 
L 475.485696 123.309545 
L 476.840448 123.858669 
L 479.356416 124.802309 
L 480.45312 125.228813 
L 481.09824 125.495378 
L 482.194944 125.921883 
L 483.0336 126.241761 
L 484.033536 126.614952 
L 485.033472 126.969483 
L 485.61408 127.182735 
L 486.90432 127.395987 
L 505.548288 127.289361 
L 505.77408 126.801547 
L 524.063232 75.087922 
L 527.804928 63.292417 
L 531.514368 51.617666 
L 536.126976 49.3412 
L 541.481472 46.984578 
L 550.190592 43.484472 
L 551.061504 43.268927 
L 565.350912 43.108189 
L 572.156928 43.184799 
L 587.510784 43.746186 
L 615.2832 44.46146 
L 640.92672 44.774399 
L 676.537344 44.945888 
L 724.566528 44.953885 
L 947.52 44.953885 
L 947.52 44.953885 
" clip-path="url(#pb5f4233910)" style="fill: none; stroke: #ff0000; stroke-width: 2; stroke-linecap: square"/>
   </g>
   <g id="patch_4">
    <path d="M 100.8 131.611034 
L 100.8 38.88 
" style="fill: none; stroke: #bcbcbc; stroke-width: 0.8; stroke-linejoin: miter; stroke-linecap: square"/>
   </g>
   <g id="patch_5">
    <path d="M 987.84 131.611034 
L 987.84 38.88 
" style="fill: none; stroke: #bcbcbc; stroke-width: 0.8; stroke-linejoin: miter; stroke-linecap: square"/>
   </g>
   <g id="patch_6">
    <path d="M 100.8 131.611034 
L 987.84 131.611034 
" style="fill: none; stroke: #bcbcbc; stroke-width: 0.8; stroke-linejoin: miter; stroke-linecap: square"/>
   </g>
   <g id="patch_7">
    <path d="M 100.8 38.88 
L 987.84 38.88 
" style="fill: none; stroke: #bcbcbc; stroke-width: 0.8; stroke-linejoin: miter; stroke-linecap: square"/>
   </g>
  </g>
  <g id="axes_2">
   <g id="patch_8">
    <path d="M 100.8 242.888276 
L 987.84 242.888276 
L 987.84 150.157241 
L 100.8 150.157241 
z
" style="fill: #eeeeee"/>
   </g>
   <g id="matplotlib.axis_3">
    <g id="xtick_7">
     <g id="line2d_18">
      <path d="M 141.12 242.888276 
L 141.12 150.157241 
" clip-path="url(#p3f245b74ba)" style="fill: none; stroke-dasharray: 1.85,0.8; stroke-dashoffset: 0; stroke: #b2b2b2; stroke-width: 0.5"/>
     </g>
     <g id="line2d_19">
      <g>
       <use xlink:href="#m5cb1aed65c" x="141.12" y="242.888276" style="stroke: #000000; stroke-width: 0.8"/>
      </g>
     </g>
    </g>
    <g id="xtick_8">
     <g id="line2d_20">
      <path d="M 302.4 242.888276 
L 302.4 150.157241 
" clip-path="url(#p3f245b74ba)" style="fill: none; stroke-dasharray: 1.85,0.8; stroke-dashoffset: 0; stroke: #b2b2b2; stroke-width: 0.5"/>
     </g>
     <g id="line2d_21">
      <g>
       <use xlink:href="#m5cb1aed65c" x="302.4" y="242.888276" style="stroke: #000000; stroke-width: 0.8"/>
      </g>
     </g>
    </g>
    <g id="xtick_9">
     <g id="line2d_22">
      <path d="M 463.68 242.888276 
L 463.68 150.157241 
" clip-path="url(#p3f245b74ba)" style="fill: none; stroke-dasharray: 1.85,0.8; stroke-dashoffset: 0; stroke: #b2b2b2; stroke-width: 0.5"/>
     </g>
     <g id="line2d_23">
      <g>
       <use xlink:href="#m5cb1aed65c" x="463.68" y="242.888276" style="stroke: #000000; stroke-width: 0.8"/>
      </g>
     </g>
    </g>
    <g id="xtick_10">
     <g id="line2d_24">
      <path d="M 624.96 242.888276 
L 624.96 150.157241 
" clip-path="url(#p3f245b74ba)" style="fill: none; stroke-dasharray: 1.85,0.8; stroke-dashoffset: 0; stroke: #b2b2b2; stroke-width: 0.5"/>
     </g>
     <g id="line2d_25">
      <g>
       <use xlink:href="#m5cb1aed65c" x="624.96" y="242.888276" style="stroke: #000000; stroke-width: 0.8"/>
      </g>
     </g>
    </g>
    <g id="xtick_11">
     <g id="line2d_26">
      <path d="M 786.24 242.888276 
L 786.24 150.157241 
" clip-path="url(#p3f245b74ba)" style="fill: none; stroke-dasharray: 1.85,0.8; stroke-dashoffset: 0; stroke: #b2b2b2; stroke-width: 0.5"/>
     </g>
     <g id="line2d_27">
      <g>
       <use xlink:href="#m5cb1aed65c" x="786.24" y="242.888276" style="stroke: #000000; stroke-width: 0.8"/>
      </g>
     </g>
    </g>
    <g id="xtick_12">
     <g id="line2d_28">
      <path d="M 947.52 242.888276 
L 947.52 150.157241 
" clip-path="url(#p3f245b74ba)" style="fill: none; stroke-dasharray: 1.85,0.8; stroke-dashoffset: 0; stroke: #b2b2b2; stroke-width: 0.5"/>
     </g>
     <g id="line2d_29">
      <g>
       <use xlink:href="#m5cb1aed65c" x="947.52" y="242.888276" style="stroke: #000000; stroke-width: 0.8"/>
      </g>
     </g>
    </g>
   </g>
   <g id="matplotlib.axis_4">
    <g id="ytick_3">
     <g id="line2d_30">
      <path d="M 100.8 219.347268 
L 987.84 219.347268 
" clip-path="url(#p3f245b74ba)" style="fill: none; stroke-dasharray: 1.85,0.8; stroke-dashoffset: 0; stroke: #b2b2b2; stroke-width: 0.5"/>
     </g>
     <g id="line2d_31">
      <g>
       <use xlink:href="#md47ced653d" x="100.8" y="219.347268" style="stroke: #000000; stroke-width: 0.8"/>
      </g>
     </g>
     <g id="text_4">
      <!-- 0 V -->
      <g transform="translate(74.36625 224.666175) scale(0.14 -0.14)">
       <use xlink:href="#DejaVuSans-30"/>
       <use xlink:href="#DejaVuSans-20" x="63.623047"/>
       <use xlink:href="#DejaVuSans-56" x="95.410156"/>
      </g>
     </g>
    </g>
    <g id="ytick_4">
     <g id="line2d_32">
      <path d="M 100.8 185.771938 
L 987.84 185.771938 
" clip-path="url(#p3f245b74ba)" style="fill: none; stroke-dasharray: 1.85,0.8; stroke-dashoffset: 0; stroke: #b2b2b2; stroke-width: 0.5"/>
     </g>
     <g id="line2d_33">
      <g>
       <use xlink:href="#md47ced653d" x="100.8" y="185.771938" style="stroke: #000000; stroke-width: 0.8"/>
      </g>
     </g>
     <g id="text_5">
      <!-- 1 V -->
      <g transform="translate(74.36625 191.090844) scale(0.14 -0.14)">
       <defs>
        <path id="DejaVuSans-31" d="M 794 531 
L 1825 531 
L 1825 4091 
L 703 3866 
L 703 4441 
L 1819 4666 
L 2450 4666 
L 2450 531 
L 3481 531 
L 3481 0 
L 794 0 
L 794 531 
z
" transform="scale(0.015625)"/>
       </defs>
       <use xlink:href="#DejaVuSans-31"/>
       <use xlink:href="#DejaVuSans-20" x="63.623047"/>
       <use xlink:href="#DejaVuSans-56" x="95.410156"/>
      </g>
     </g>
    </g>
    <g id="ytick_5">
     <g id="line2d_34">
      <path d="M 100.8 152.196607 
L 987.84 152.196607 
" clip-path="url(#p3f245b74ba)" style="fill: none; stroke-dasharray: 1.85,0.8; stroke-dashoffset: 0; stroke: #b2b2b2; stroke-width: 0.5"/>
     </g>
     <g id="line2d_35">
      <g>
       <use xlink:href="#md47ced653d" x="100.8" y="152.196607" style="stroke: #000000; stroke-width: 0.8"/>
      </g>
     </g>
     <g id="text_6">
      <!-- 2 V -->
      <g transform="translate(74.36625 157.515513) scale(0.14 -0.14)">
       <use xlink:href="#DejaVuSans-32"/>
       <use xlink:href="#DejaVuSans-20" x="63.623047"/>
       <use xlink:href="#DejaVuSans-56" x="95.410156"/>
      </g>
     </g>
    </g>
    <g id="text_7">
     <g id="patch_9">
      <path d="M 34.8768 224.531509 
L 34.8768 168.514009 
L 11.247425 168.514009 
L 11.247425 224.531509 
z
" style="fill: #ffff00; opacity: 0.2; stroke: #eeeeee; stroke-width: 0.5; stroke-linejoin: miter"/>
     </g>
     <!-- DFF IN -->
     <g transform="translate(26.925238 219.491509) rotate(-90) scale(0.14 -0.14)">
      <defs>
       <path id="DejaVuSans-44" d="M 1259 4147 
L 1259 519 
L 2022 519 
Q 2988 519 3436 956 
Q 3884 1394 3884 2338 
Q 3884 3275 3436 3711 
Q 2988 4147 2022 4147 
L 1259 4147 
z
M 628 4666 
L 1925 4666 
Q 3281 4666 3915 4102 
Q 4550 3538 4550 2338 
Q 4550 1131 3912 565 
Q 3275 0 1925 0 
L 628 0 
L 628 4666 
z
" transform="scale(0.015625)"/>
       <path id="DejaVuSans-46" d="M 628 4666 
L 3309 4666 
L 3309 4134 
L 1259 4134 
L 1259 2759 
L 3109 2759 
L 3109 2228 
L 1259 2228 
L 1259 0 
L 628 0 
L 628 4666 
z
" transform="scale(0.015625)"/>
       <path id="DejaVuSans-4e" d="M 628 4666 
L 1478 4666 
L 3547 763 
L 3547 4666 
L 4159 4666 
L 4159 0 
L 3309 0 
L 1241 3903 
L 1241 0 
L 628 0 
L 628 4666 
z
" transform="scale(0.015625)"/>
      </defs>
      <use xlink:href="#DejaVuSans-44"/>
      <use xlink:href="#DejaVuSans-46" x="77.001953"/>
      <use xlink:href="#DejaVuSans-46" x="134.521484"/>
      <use xlink:href="#DejaVuSans-20" x="192.041016"/>
      <use xlink:href="#DejaVuSans-49" x="223.828125"/>
      <use xlink:href="#DejaVuSans-4e" x="253.320312"/>
     </g>
    </g>
   </g>
   <g id="line2d_36">
    <path d="M 141.12 219.298235 
L 221.953536 219.252193 
L 224.437248 200.544412 
L 225.404928 194.853393 
L 228.243456 182.340539 
L 229.598208 181.084822 
L 231.178752 180.221936 
L 236.565504 179.772026 
L 243.661824 179.661228 
L 245.1456 179.61758 
L 248.403456 179.506781 
L 250.113024 179.43963 
L 252.177408 179.328832 
L 254.241792 179.003151 
L 254.757888 178.472661 
L 255.499776 178.136908 
L 256.370688 178.157053 
L 257.531904 178.388722 
L 259.98336 178.788269 
L 262.370304 178.925928 
L 263.886336 178.976291 
L 264.144384 184.153607 
L 264.434688 187.67633 
L 265.176576 192.369154 
L 267.144192 209.498281 
L 268.402176 215.929636 
L 269.079552 217.241088 
L 270.46656 218.93953 
L 273.724416 219.349081 
L 282.594816 219.30267 
L 297.110016 219.291453 
L 305.883648 219.297439 
L 347.751936 219.253869 
L 350.235648 200.584031 
L 351.622656 192.048174 
L 352.687104 186.719098 
L 354.97728 179.906327 
L 358.493184 178.919213 
L 360.235008 178.989721 
L 363.073536 179.100519 
L 364.396032 179.12738 
L 375.169536 179.197888 
L 375.717888 180.178288 
L 376.169472 180.920302 
L 377.008128 181.816764 
L 377.524224 181.766401 
L 378.427392 181.477653 
L 380.45952 180.339449 
L 381.58848 179.983551 
L 387.201024 179.510139 
L 389.65248 179.39934 
L 391.813632 179.285184 
L 394.555392 179.174385 
L 395.9424 179.14081 
L 415.392768 179.033369 
L 415.973376 178.415583 
L 416.844288 178.083187 
L 417.908736 178.18727 
L 419.16672 178.465946 
L 421.10208 178.758051 
L 423.714816 178.919213 
L 441.068544 179.019939 
L 441.26208 179.238178 
L 443.423232 183.055693 
L 445.77792 186.292355 
L 450.422784 192.701214 
L 451.003392 194.523348 
L 453.261312 203.013206 
L 453.648384 204.820902 
L 453.938688 206.211592 
L 455.003136 210.860768 
L 456.58368 216.551182 
L 456.74496 217.106988 
L 457.293312 218.943962 
L 457.486848 219.565145 
L 457.87392 220.994441 
L 458.228736 222.135633 
L 458.68032 223.500201 
L 459.035136 224.127053 
L 459.583488 225.510356 
L 459.97056 226.077779 
L 460.260864 226.397081 
L 460.486656 226.799313 
L 461.164032 228.508633 
L 461.615616 229.217408 
L 462.002688 230.166247 
L 462.647808 231.315195 
L 462.8736 231.552237 
L 463.228416 232.416466 
L 463.68 233.258535 
L 464.16384 233.925341 
L 464.583168 234.758345 
L 465.034752 235.627611 
L 465.325056 235.99291 
L 465.61536 236.577792 
L 465.744384 236.767157 
L 466.808832 238.507702 
L 467.002368 238.664499 
L 467.034624 238.635289 
L 468.131328 237.314099 
L 468.615168 236.293074 
L 468.647424 236.319262 
L 468.969984 235.973772 
L 469.195776 235.731023 
L 469.64736 235.269026 
L 469.873152 234.897347 
L 470.227968 234.293327 
L 470.486016 234.1231 
L 470.61504 234.007937 
L 470.840832 233.762837 
L 471.034368 233.69065 
L 471.647232 233.222274 
L 472.324608 232.464479 
L 472.743936 231.804723 
L 473.066496 231.633153 
L 473.227776 231.547872 
L 473.453568 231.418943 
L 473.808384 231.234614 
L 474.840576 230.312636 
L 475.485696 229.343652 
L 475.776 229.272136 
L 476.001792 229.199614 
L 476.808192 228.669795 
L 478.162944 227.333161 
L 478.35648 227.142789 
L 478.84032 226.799649 
L 479.098368 226.714032 
L 479.582208 226.366191 
L 481.065984 225.180646 
L 481.324032 224.893242 
L 481.807872 224.442996 
L 482.356224 224.226771 
L 483.420672 223.445138 
L 484.743168 222.346318 
L 485.227008 222.00724 
L 486.517248 220.964794 
L 487.54944 219.719283 
L 488.775168 218.027389 
L 491.387904 214.474481 
L 494.548992 210.733853 
L 495.516672 209.606058 
L 495.968256 208.333553 
L 496.968192 205.306737 
L 498.613248 201.485864 
L 500.322816 198.973086 
L 500.903424 198.258603 
L 502.032384 196.731933 
L 502.806528 195.935862 
L 503.870976 194.607958 
L 504.870912 193.702095 
L 505.677312 192.799254 
L 506.09664 191.434417 
L 507.515904 186.478027 
L 508.419072 184.287908 
L 509.225472 182.854241 
L 509.935104 182.014858 
L 512.483328 179.486636 
L 515.192832 175.635545 
L 517.418496 172.365308 
L 523.966464 163.686085 
L 524.9664 162.497518 
L 526.934016 159.824922 
L 531.4176 154.389076 
L 531.57888 154.426009 
L 532.288512 154.838985 
L 532.933632 155.05051 
L 533.804544 155.211672 
L 534.868992 155.429911 
L 536.352768 155.983904 
L 536.804352 158.955321 
L 537.159168 160.765031 
L 537.54624 161.641348 
L 537.836544 161.88309 
L 538.159104 161.846157 
L 538.546176 161.533906 
L 539.191296 160.707953 
L 540.288 159.505956 
L 541.062144 159.069477 
L 542.029824 158.878098 
L 542.674944 158.901601 
L 543.578112 159.012399 
L 544.707072 159.240711 
L 551.190528 160.701238 
L 551.706624 160.949696 
L 564.867072 166.315034 
L 565.705728 166.593709 
L 566.447616 166.855596 
L 567.254016 167.127557 
L 567.86688 167.325651 
L 576.640512 169.998247 
L 577.317888 169.199154 
L 577.801728 169.115216 
L 578.479104 169.367031 
L 579.15648 169.759862 
L 579.866112 170.206414 
L 581.995008 171.190172 
L 583.156224 171.562858 
L 583.801344 171.734092 
L 584.64 171.965762 
L 586.09152 172.30823 
L 587.091456 172.523112 
L 588.091392 172.724564 
L 589.188096 172.949519 
L 590.059008 173.11068 
L 590.639616 173.218122 
L 593.639424 173.731824 
L 595.542528 174.03736 
L 596.25216 174.144801 
L 598.090752 174.416761 
L 598.83264 174.524202 
L 599.251968 174.58128 
L 600.058368 174.685364 
L 600.768 174.792805 
L 602.05824 174.950609 
L 617.05728 176.599157 
L 617.476608 177.176653 
L 617.992704 177.512406 
L 618.863616 177.676925 
L 622.86336 176.948341 
L 623.411712 176.955056 
L 626.024448 177.065854 
L 628.088832 177.169938 
L 629.991936 177.274022 
L 630.44352 177.304239 
L 632.604672 177.41168 
L 633.024 177.428468 
L 635.152896 177.539267 
L 637.088256 177.62992 
L 639.604224 177.740719 
L 640.184832 177.754149 
L 640.92672 177.787724 
L 643.474944 177.895165 
L 644.15232 177.925383 
L 647.05536 178.032824 
L 647.603712 178.039539 
L 650.700288 178.150338 
L 652.21632 178.200701 
L 653.054976 178.224203 
L 657.022464 178.335002 
L 657.345024 178.261136 
L 657.990144 177.613132 
L 658.50624 177.421753 
L 659.15136 177.394893 
L 660.11904 177.606417 
L 661.828608 178.026109 
L 663.409152 178.244349 
L 665.11872 178.355147 
L 665.892864 178.40551 
L 667.570176 178.469303 
L 672.311808 178.580102 
L 673.376256 178.583459 
L 674.247168 178.603605 
L 697.632768 178.6909 
L 698.568192 179.516854 
L 699.439104 179.674658 
L 701.342208 179.567217 
L 703.82592 179.160955 
L 708.212736 178.815129 
L 737.920512 178.727833 
L 738.888192 177.868305 
L 739.243008 177.807869 
L 740.404224 177.791082 
L 741.72672 178.089902 
L 744.081408 178.469303 
L 746.436096 178.603605 
L 778.272768 178.694258 
L 779.208192 179.520211 
L 780.143616 179.69816 
L 782.272512 179.587362 
L 784.562688 179.221391 
L 790.078464 178.758051 
L 818.625024 178.647253 
L 819.14112 178.086545 
L 819.689472 177.814584 
L 821.624832 177.922025 
L 824.882688 178.489448 
L 827.04384 178.603605 
L 858.912768 178.694258 
L 859.848192 179.520211 
L 860.783616 179.69816 
L 862.073856 179.728378 
L 864.847872 179.261681 
L 870.75072 178.758051 
L 899.265024 178.647253 
L 899.78112 178.086545 
L 900.329472 177.814584 
L 902.264832 177.922025 
L 905.522688 178.489448 
L 907.68384 178.603605 
L 939.552768 178.694258 
L 940.617216 179.550429 
L 941.55264 179.735093 
L 943.488 179.624295 
L 946.455552 179.117307 
L 947.52 178.952788 
L 947.52 178.952788 
" clip-path="url(#p3f245b74ba)" style="fill: none; stroke: #008000; stroke-width: 2; stroke-linecap: square"/>
   </g>
   <g id="patch_10">
    <path d="M 100.8 242.888276 
L 100.8 150.157241 
" style="fill: none; stroke: #bcbcbc; stroke-width: 0.8; stroke-linejoin: miter; stroke-linecap: square"/>
   </g>
   <g id="patch_11">
    <path d="M 987.84 242.888276 
L 987.84 150.157241 
" style="fill: none; stroke: #bcbcbc; stroke-width: 0.8; stroke-linejoin: miter; stroke-linecap: square"/>
   </g>
   <g id="patch_12">
    <path d="M 100.8 242.888276 
L 987.84 242.888276 
" style="fill: none; stroke: #bcbcbc; stroke-width: 0.8; stroke-linejoin: miter; stroke-linecap: square"/>
   </g>
   <g id="patch_13">
    <path d="M 100.8 150.157241 
L 987.84 150.157241 
" style="fill: none; stroke: #bcbcbc; stroke-width: 0.8; stroke-linejoin: miter; stroke-linecap: square"/>
   </g>
  </g>
  <g id="axes_3">
   <g id="patch_14">
    <path d="M 100.8 354.165517 
L 987.84 354.165517 
L 987.84 261.434483 
L 100.8 261.434483 
z
" style="fill: #eeeeee"/>
   </g>
   <g id="matplotlib.axis_5">
    <g id="xtick_13">
     <g id="line2d_37">
      <path d="M 141.12 354.165517 
L 141.12 261.434483 
" clip-path="url(#p26246763ae)" style="fill: none; stroke-dasharray: 1.85,0.8; stroke-dashoffset: 0; stroke: #b2b2b2; stroke-width: 0.5"/>
     </g>
     <g id="line2d_38">
      <g>
       <use xlink:href="#m5cb1aed65c" x="141.12" y="354.165517" style="stroke: #000000; stroke-width: 0.8"/>
      </g>
     </g>
    </g>
    <g id="xtick_14">
     <g id="line2d_39">
      <path d="M 302.4 354.165517 
L 302.4 261.434483 
" clip-path="url(#p26246763ae)" style="fill: none; stroke-dasharray: 1.85,0.8; stroke-dashoffset: 0; stroke: #b2b2b2; stroke-width: 0.5"/>
     </g>
     <g id="line2d_40">
      <g>
       <use xlink:href="#m5cb1aed65c" x="302.4" y="354.165517" style="stroke: #000000; stroke-width: 0.8"/>
      </g>
     </g>
    </g>
    <g id="xtick_15">
     <g id="line2d_41">
      <path d="M 463.68 354.165517 
L 463.68 261.434483 
" clip-path="url(#p26246763ae)" style="fill: none; stroke-dasharray: 1.85,0.8; stroke-dashoffset: 0; stroke: #b2b2b2; stroke-width: 0.5"/>
     </g>
     <g id="line2d_42">
      <g>
       <use xlink:href="#m5cb1aed65c" x="463.68" y="354.165517" style="stroke: #000000; stroke-width: 0.8"/>
      </g>
     </g>
    </g>
    <g id="xtick_16">
     <g id="line2d_43">
      <path d="M 624.96 354.165517 
L 624.96 261.434483 
" clip-path="url(#p26246763ae)" style="fill: none; stroke-dasharray: 1.85,0.8; stroke-dashoffset: 0; stroke: #b2b2b2; stroke-width: 0.5"/>
     </g>
     <g id="line2d_44">
      <g>
       <use xlink:href="#m5cb1aed65c" x="624.96" y="354.165517" style="stroke: #000000; stroke-width: 0.8"/>
      </g>
     </g>
    </g>
    <g id="xtick_17">
     <g id="line2d_45">
      <path d="M 786.24 354.165517 
L 786.24 261.434483 
" clip-path="url(#p26246763ae)" style="fill: none; stroke-dasharray: 1.85,0.8; stroke-dashoffset: 0; stroke: #b2b2b2; stroke-width: 0.5"/>
     </g>
     <g id="line2d_46">
      <g>
       <use xlink:href="#m5cb1aed65c" x="786.24" y="354.165517" style="stroke: #000000; stroke-width: 0.8"/>
      </g>
     </g>
    </g>
    <g id="xtick_18">
     <g id="line2d_47">
      <path d="M 947.52 354.165517 
L 947.52 261.434483 
" clip-path="url(#p26246763ae)" style="fill: none; stroke-dasharray: 1.85,0.8; stroke-dashoffset: 0; stroke: #b2b2b2; stroke-width: 0.5"/>
     </g>
     <g id="line2d_48">
      <g>
       <use xlink:href="#m5cb1aed65c" x="947.52" y="354.165517" style="stroke: #000000; stroke-width: 0.8"/>
      </g>
     </g>
    </g>
   </g>
   <g id="matplotlib.axis_6">
    <g id="ytick_6">
     <g id="line2d_49">
      <path d="M 100.8 344.747458 
L 987.84 344.747458 
" clip-path="url(#p26246763ae)" style="fill: none; stroke-dasharray: 1.85,0.8; stroke-dashoffset: 0; stroke: #b2b2b2; stroke-width: 0.5"/>
     </g>
     <g id="line2d_50">
      <g>
       <use xlink:href="#md47ced653d" x="100.8" y="344.747458" style="stroke: #000000; stroke-width: 0.8"/>
      </g>
     </g>
     <g id="text_8">
      <!-- 0 V -->
      <g transform="translate(74.36625 350.066365) scale(0.14 -0.14)">
       <use xlink:href="#DejaVuSans-30"/>
       <use xlink:href="#DejaVuSans-20" x="63.623047"/>
       <use xlink:href="#DejaVuSans-56" x="95.410156"/>
      </g>
     </g>
    </g>
    <g id="ytick_7">
     <g id="line2d_51">
      <path d="M 100.8 303.704532 
L 987.84 303.704532 
" clip-path="url(#p26246763ae)" style="fill: none; stroke-dasharray: 1.85,0.8; stroke-dashoffset: 0; stroke: #b2b2b2; stroke-width: 0.5"/>
     </g>
     <g id="line2d_52">
      <g>
       <use xlink:href="#md47ced653d" x="100.8" y="303.704532" style="stroke: #000000; stroke-width: 0.8"/>
      </g>
     </g>
     <g id="text_9">
      <!-- 1 V -->
      <g transform="translate(74.36625 309.023438) scale(0.14 -0.14)">
       <use xlink:href="#DejaVuSans-31"/>
       <use xlink:href="#DejaVuSans-20" x="63.623047"/>
       <use xlink:href="#DejaVuSans-56" x="95.410156"/>
      </g>
     </g>
    </g>
    <g id="ytick_8">
     <g id="line2d_53">
      <path d="M 100.8 262.661605 
L 987.84 262.661605 
" clip-path="url(#p26246763ae)" style="fill: none; stroke-dasharray: 1.85,0.8; stroke-dashoffset: 0; stroke: #b2b2b2; stroke-width: 0.5"/>
     </g>
     <g id="line2d_54">
      <g>
       <use xlink:href="#md47ced653d" x="100.8" y="262.661605" style="stroke: #000000; stroke-width: 0.8"/>
      </g>
     </g>
     <g id="text_10">
      <!-- 2 V -->
      <g transform="translate(74.36625 267.980511) scale(0.14 -0.14)">
       <use xlink:href="#DejaVuSans-32"/>
       <use xlink:href="#DejaVuSans-20" x="63.623047"/>
       <use xlink:href="#DejaVuSans-56" x="95.410156"/>
      </g>
     </g>
    </g>
    <g id="text_11">
     <g id="patch_15">
      <path d="M 34.8768 342.395313 
L 34.8768 273.204688 
L 11.247425 273.204688 
L 11.247425 342.395313 
z
" style="fill: #ffff00; opacity: 0.2; stroke: #eeeeee; stroke-width: 0.5; stroke-linejoin: miter"/>
     </g>
     <!-- CLK BUF -->
     <g transform="translate(26.925238 337.355313) rotate(-90) scale(0.14 -0.14)">
      <defs>
       <path id="DejaVuSans-43" d="M 4122 4306 
L 4122 3641 
Q 3803 3938 3442 4084 
Q 3081 4231 2675 4231 
Q 1875 4231 1450 3742 
Q 1025 3253 1025 2328 
Q 1025 1406 1450 917 
Q 1875 428 2675 428 
Q 3081 428 3442 575 
Q 3803 722 4122 1019 
L 4122 359 
Q 3791 134 3420 21 
Q 3050 -91 2638 -91 
Q 1578 -91 968 557 
Q 359 1206 359 2328 
Q 359 3453 968 4101 
Q 1578 4750 2638 4750 
Q 3056 4750 3426 4639 
Q 3797 4528 4122 4306 
z
" transform="scale(0.015625)"/>
       <path id="DejaVuSans-4b" d="M 628 4666 
L 1259 4666 
L 1259 2694 
L 3353 4666 
L 4166 4666 
L 1850 2491 
L 4331 0 
L 3500 0 
L 1259 2247 
L 1259 0 
L 628 0 
L 628 4666 
z
" transform="scale(0.015625)"/>
      </defs>
      <use xlink:href="#DejaVuSans-43"/>
      <use xlink:href="#DejaVuSans-4c" x="69.824219"/>
      <use xlink:href="#DejaVuSans-4b" x="125.537109"/>
      <use xlink:href="#DejaVuSans-20" x="191.113281"/>
      <use xlink:href="#DejaVuSans-42" x="222.900391"/>
      <use xlink:href="#DejaVuSans-55" x="291.503906"/>
      <use xlink:href="#DejaVuSans-46" x="364.697266"/>
     </g>
    </g>
   </g>
   <g id="line2d_55">
    <path d="M 141.12 344.746373 
L 173.376 344.746373 
L 173.601792 295.495946 
L 213.696 295.495946 
L 213.760512 334.781825 
L 213.825024 344.728708 
L 213.889536 344.669645 
L 213.954048 344.833607 
L 214.01856 344.751906 
L 215.437824 344.742067 
L 223.824384 344.746287 
L 254.016 344.746345 
L 254.17728 295.344087 
L 254.241792 295.606762 
L 254.403072 295.487738 
L 254.854656 295.495946 
L 294.336 295.495946 
L 294.400512 334.747349 
L 294.465024 345.053725 
L 294.529536 344.34014 
L 294.626304 344.811957 
L 294.65856 344.782752 
L 294.884352 344.72473 
L 295.206912 344.762393 
L 295.497216 344.746053 
L 321.91488 344.746372 
L 334.656 344.746375 
L 334.81728 295.422069 
L 334.881792 295.512363 
L 335.204352 295.50005 
L 336.10752 295.495946 
L 374.976 295.495946 
L 375.040512 334.785519 
L 375.105024 344.748124 
L 375.169536 344.664441 
L 375.266304 344.815339 
L 375.29856 344.752042 
L 376.782336 344.741755 
L 385.4592 344.746286 
L 415.296 344.746375 
L 415.45728 295.344087 
L 415.521792 295.606762 
L 415.683072 295.483633 
L 416.683008 295.50005 
L 441.197568 295.602658 
L 442.842624 297.872332 
L 444.519936 300.634521 
L 451.42272 311.83965 
L 454.97088 316.970016 
L 455.616 317.852849 
L 455.648256 316.571079 
L 455.680512 316.714318 
L 455.841792 345.937047 
L 455.874048 345.923954 
L 458.648064 345.868751 
L 458.906112 345.887056 
L 459.97056 346.092148 
L 460.841472 346.459564 
L 461.74464 346.958728 
L 467.034624 349.883981 
L 468.163584 349.377921 
L 471.292416 348.299806 
L 480.517632 345.727112 
L 480.807936 345.673592 
L 481.25952 345.555594 
L 481.58208 345.501622 
L 485.485056 344.810184 
L 490.484736 344.216281 
L 491.0976 344.210206 
L 491.42016 344.20249 
L 492.452352 344.209591 
L 495.936 344.246776 
L 495.968256 342.154202 
L 496.09728 316.044087 
L 496.161792 315.584407 
L 496.226304 315.729288 
L 496.645632 315.484672 
L 500.226048 313.56099 
L 505.806336 310.668695 
L 507.06432 308.399432 
L 509.16096 304.048061 
L 513.321984 295.454903 
L 513.99936 294.129217 
L 515.77344 290.763697 
L 521.224704 281.270468 
L 522.22464 279.686211 
L 523.99872 276.965065 
L 531.449856 265.768554 
L 532.901376 265.686468 
L 535.320576 266.408824 
L 536.256 266.823357 
L 536.320512 345.192076 
L 536.41728 345.089215 
L 537.126912 345.110914 
L 544.48128 345.101347 
L 550.7712 345.065085 
L 554.512896 345.21896 
L 574.350336 345.057382 
L 576.576 345.037866 
L 576.705024 284.352792 
L 576.769536 284.467712 
L 577.479168 284.705761 
L 577.769472 284.812472 
L 579.511296 285.362448 
L 579.898368 285.469159 
L 581.4144 285.937049 
L 581.833728 286.04376 
L 583.123968 286.425459 
L 583.898112 286.630674 
L 584.833536 286.881036 
L 585.220608 286.987747 
L 586.09152 287.209379 
L 586.478592 287.316091 
L 587.252736 287.49668 
L 587.639808 287.603391 
L 588.413952 287.78398 
L 588.897792 287.890692 
L 589.671936 288.071281 
L 590.155776 288.177992 
L 590.92992 288.358581 
L 591.41376 288.465293 
L 592.05888 288.604839 
L 592.574976 288.71155 
L 593.220096 288.851096 
L 593.736192 288.957808 
L 594.381312 289.097354 
L 594.897408 289.204065 
L 595.44576 289.302569 
L 595.961856 289.40928 
L 596.510208 289.507783 
L 597.123072 289.614495 
L 597.671424 289.712998 
L 598.18752 289.819709 
L 598.735872 289.918212 
L 599.348736 290.024924 
L 599.897088 290.123427 
L 600.60672 290.226034 
L 600.961536 290.287599 
L 601.5744 290.390206 
L 601.929216 290.45177 
L 602.638848 290.554378 
L 602.993664 290.615942 
L 603.703296 290.718549 
L 604.058112 290.780114 
L 604.767744 290.882721 
L 605.12256 290.944286 
L 605.92896 291.046893 
L 606.283776 291.108457 
L 607.186944 291.211065 
L 607.54176 291.272629 
L 608.34816 291.375236 
L 608.606208 291.395758 
L 609.31584 291.498365 
L 609.573888 291.518887 
L 610.380288 291.621494 
L 610.735104 291.678954 
L 616.476672 292.298702 
L 616.896 292.339745 
L 616.928256 299.214435 
L 617.05728 344.765061 
L 617.089536 344.905121 
L 617.154048 344.834605 
L 617.670144 344.830923 
L 657.216 344.770503 
L 657.345024 294.4001 
L 657.441792 294.642253 
L 657.893376 294.634045 
L 661.57056 294.740756 
L 661.828608 294.757173 
L 667.086336 294.863885 
L 667.344384 294.880302 
L 673.860096 294.987014 
L 674.118144 295.003431 
L 697.536 295.085517 
L 697.665024 345.0611 
L 697.826304 344.822202 
L 698.084352 344.730703 
L 698.439168 344.775382 
L 698.761728 344.757912 
L 737.856 344.758127 
L 738.01728 294.872094 
L 738.081792 295.335879 
L 738.17856 294.913137 
L 738.243072 295.0691 
L 738.726912 295.085517 
L 778.176 295.085517 
L 778.305024 345.060932 
L 778.466304 344.822243 
L 778.724352 344.730694 
L 779.079168 344.775372 
L 779.401728 344.757912 
L 818.496 344.758127 
L 818.65728 294.872094 
L 818.721792 295.335879 
L 818.81856 294.913137 
L 818.883072 295.0691 
L 819.366912 295.085517 
L 858.816 295.085517 
L 858.945024 345.061026 
L 859.106304 344.822161 
L 859.364352 344.730721 
L 859.719168 344.775373 
L 860.041728 344.757912 
L 899.136 344.758127 
L 899.29728 294.872094 
L 899.361792 295.335879 
L 899.45856 294.913137 
L 899.523072 295.0691 
L 900.006912 295.085517 
L 939.456 295.085517 
L 939.488256 302.485557 
L 939.61728 344.709315 
L 939.649536 344.828662 
L 939.714048 344.714474 
L 939.810816 344.731432 
L 940.004352 344.782689 
L 940.230144 344.756824 
L 945.9072 344.758129 
L 947.52 344.758117 
L 947.52 344.758117 
" clip-path="url(#p26246763ae)" style="fill: none; stroke: #0000ff; stroke-width: 2; stroke-linecap: square"/>
   </g>
   <g id="patch_16">
    <path d="M 100.8 354.165517 
L 100.8 261.434483 
" style="fill: none; stroke: #bcbcbc; stroke-width: 0.8; stroke-linejoin: miter; stroke-linecap: square"/>
   </g>
   <g id="patch_17">
    <path d="M 987.84 354.165517 
L 987.84 261.434483 
" style="fill: none; stroke: #bcbcbc; stroke-width: 0.8; stroke-linejoin: miter; stroke-linecap: square"/>
   </g>
   <g id="patch_18">
    <path d="M 100.8 354.165517 
L 987.84 354.165517 
" style="fill: none; stroke: #bcbcbc; stroke-width: 0.8; stroke-linejoin: miter; stroke-linecap: square"/>
   </g>
   <g id="patch_19">
    <path d="M 100.8 261.434483 
L 987.84 261.434483 
" style="fill: none; stroke: #bcbcbc; stroke-width: 0.8; stroke-linejoin: miter; stroke-linecap: square"/>
   </g>
  </g>
  <g id="axes_4">
   <g id="patch_20">
    <path d="M 100.8 465.442759 
L 987.84 465.442759 
L 987.84 372.711724 
L 100.8 372.711724 
z
" style="fill: #eeeeee"/>
   </g>
   <g id="matplotlib.axis_7">
    <g id="xtick_19">
     <g id="line2d_56">
      <path d="M 141.12 465.442759 
L 141.12 372.711724 
" clip-path="url(#p623a882726)" style="fill: none; stroke-dasharray: 1.85,0.8; stroke-dashoffset: 0; stroke: #b2b2b2; stroke-width: 0.5"/>
     </g>
     <g id="line2d_57">
      <g>
       <use xlink:href="#m5cb1aed65c" x="141.12" y="465.442759" style="stroke: #000000; stroke-width: 0.8"/>
      </g>
     </g>
    </g>
    <g id="xtick_20">
     <g id="line2d_58">
      <path d="M 302.4 465.442759 
L 302.4 372.711724 
" clip-path="url(#p623a882726)" style="fill: none; stroke-dasharray: 1.85,0.8; stroke-dashoffset: 0; stroke: #b2b2b2; stroke-width: 0.5"/>
     </g>
     <g id="line2d_59">
      <g>
       <use xlink:href="#m5cb1aed65c" x="302.4" y="465.442759" style="stroke: #000000; stroke-width: 0.8"/>
      </g>
     </g>
    </g>
    <g id="xtick_21">
     <g id="line2d_60">
      <path d="M 463.68 465.442759 
L 463.68 372.711724 
" clip-path="url(#p623a882726)" style="fill: none; stroke-dasharray: 1.85,0.8; stroke-dashoffset: 0; stroke: #b2b2b2; stroke-width: 0.5"/>
     </g>
     <g id="line2d_61">
      <g>
       <use xlink:href="#m5cb1aed65c" x="463.68" y="465.442759" style="stroke: #000000; stroke-width: 0.8"/>
      </g>
     </g>
    </g>
    <g id="xtick_22">
     <g id="line2d_62">
      <path d="M 624.96 465.442759 
L 624.96 372.711724 
" clip-path="url(#p623a882726)" style="fill: none; stroke-dasharray: 1.85,0.8; stroke-dashoffset: 0; stroke: #b2b2b2; stroke-width: 0.5"/>
     </g>
     <g id="line2d_63">
      <g>
       <use xlink:href="#m5cb1aed65c" x="624.96" y="465.442759" style="stroke: #000000; stroke-width: 0.8"/>
      </g>
     </g>
    </g>
    <g id="xtick_23">
     <g id="line2d_64">
      <path d="M 786.24 465.442759 
L 786.24 372.711724 
" clip-path="url(#p623a882726)" style="fill: none; stroke-dasharray: 1.85,0.8; stroke-dashoffset: 0; stroke: #b2b2b2; stroke-width: 0.5"/>
     </g>
     <g id="line2d_65">
      <g>
       <use xlink:href="#m5cb1aed65c" x="786.24" y="465.442759" style="stroke: #000000; stroke-width: 0.8"/>
      </g>
     </g>
    </g>
    <g id="xtick_24">
     <g id="line2d_66">
      <path d="M 947.52 465.442759 
L 947.52 372.711724 
" clip-path="url(#p623a882726)" style="fill: none; stroke-dasharray: 1.85,0.8; stroke-dashoffset: 0; stroke: #b2b2b2; stroke-width: 0.5"/>
     </g>
     <g id="line2d_67">
      <g>
       <use xlink:href="#m5cb1aed65c" x="947.52" y="465.442759" style="stroke: #000000; stroke-width: 0.8"/>
      </g>
     </g>
    </g>
   </g>
   <g id="matplotlib.axis_8">
    <g id="ytick_9">
     <g id="line2d_68">
      <path d="M 100.8 437.511025 
L 987.84 437.511025 
" clip-path="url(#p623a882726)" style="fill: none; stroke-dasharray: 1.85,0.8; stroke-dashoffset: 0; stroke: #b2b2b2; stroke-width: 0.5"/>
     </g>
     <g id="line2d_69">
      <g>
       <use xlink:href="#md47ced653d" x="100.8" y="437.511025" style="stroke: #000000; stroke-width: 0.8"/>
      </g>
     </g>
     <g id="text_12">
      <!-- 0 V -->
      <g transform="translate(74.36625 442.829932) scale(0.14 -0.14)">
       <use xlink:href="#DejaVuSans-30"/>
       <use xlink:href="#DejaVuSans-20" x="63.623047"/>
       <use xlink:href="#DejaVuSans-56" x="95.410156"/>
      </g>
     </g>
    </g>
    <g id="ytick_10">
     <g id="line2d_70">
      <path d="M 100.8 395.983673 
L 987.84 395.983673 
" clip-path="url(#p623a882726)" style="fill: none; stroke-dasharray: 1.85,0.8; stroke-dashoffset: 0; stroke: #b2b2b2; stroke-width: 0.5"/>
     </g>
     <g id="line2d_71">
      <g>
       <use xlink:href="#md47ced653d" x="100.8" y="395.983673" style="stroke: #000000; stroke-width: 0.8"/>
      </g>
     </g>
     <g id="text_13">
      <!-- 1 V -->
      <g transform="translate(74.36625 401.302579) scale(0.14 -0.14)">
       <use xlink:href="#DejaVuSans-31"/>
       <use xlink:href="#DejaVuSans-20" x="63.623047"/>
       <use xlink:href="#DejaVuSans-56" x="95.410156"/>
      </g>
     </g>
    </g>
    <g id="text_14">
     <g id="patch_21">
      <path d="M 34.8768 454.693023 
L 34.8768 383.46146 
L 11.247425 383.46146 
L 11.247425 454.693023 
z
" style="fill: #ffff00; opacity: 0.2; stroke: #eeeeee; stroke-width: 0.5; stroke-linejoin: miter"/>
     </g>
     <!-- DFF OUT -->
     <g transform="translate(26.925238 449.653023) rotate(-90) scale(0.14 -0.14)">
      <defs>
       <path id="DejaVuSans-4f" d="M 2522 4238 
Q 1834 4238 1429 3725 
Q 1025 3213 1025 2328 
Q 1025 1447 1429 934 
Q 1834 422 2522 422 
Q 3209 422 3611 934 
Q 4013 1447 4013 2328 
Q 4013 3213 3611 3725 
Q 3209 4238 2522 4238 
z
M 2522 4750 
Q 3503 4750 4090 4092 
Q 4678 3434 4678 2328 
Q 4678 1225 4090 567 
Q 3503 -91 2522 -91 
Q 1538 -91 948 565 
Q 359 1222 359 2328 
Q 359 3434 948 4092 
Q 1538 4750 2522 4750 
z
" transform="scale(0.015625)"/>
       <path id="DejaVuSans-54" d="M -19 4666 
L 3928 4666 
L 3928 4134 
L 2272 4134 
L 2272 0 
L 1638 0 
L 1638 4134 
L -19 4134 
L -19 4666 
z
" transform="scale(0.015625)"/>
      </defs>
      <use xlink:href="#DejaVuSans-44"/>
      <use xlink:href="#DejaVuSans-46" x="77.001953"/>
      <use xlink:href="#DejaVuSans-46" x="134.521484"/>
      <use xlink:href="#DejaVuSans-20" x="192.041016"/>
      <use xlink:href="#DejaVuSans-4f" x="223.828125"/>
      <use xlink:href="#DejaVuSans-55" x="302.539062"/>
      <use xlink:href="#DejaVuSans-54" x="375.732422"/>
     </g>
    </g>
   </g>
   <g id="line2d_72">
    <path d="M 141.12 406.177392 
L 173.408256 406.228056 
L 173.440512 407.947288 
L 173.601792 437.51356 
L 174.085632 437.508369 
L 183.923712 437.509926 
L 254.048256 437.511658 
L 254.080512 437.677666 
L 254.112768 437.403067 
L 254.306304 433.348739 
L 254.596608 432.536049 
L 254.693376 431.956327 
L 255.14496 424.680735 
L 255.370752 407.580602 
L 255.596544 388.081018 
L 255.757824 387.740494 
L 255.983616 387.67405 
L 256.854528 387.678203 
L 295.755264 387.761257 
L 296.239104 390.448077 
L 296.59392 389.775334 
L 297.948672 388.018727 
L 299.561472 387.711425 
L 334.688256 387.694814 
L 334.720512 387.574384 
L 334.752768 388.184836 
L 334.785024 391.203875 
L 334.914048 437.494003 
L 334.97856 437.457455 
L 335.13984 437.502322 
L 335.494656 437.510422 
L 365.524992 437.509882 
L 415.328256 437.511633 
L 415.360512 437.677089 
L 415.392768 437.405367 
L 415.586304 433.25198 
L 415.876608 432.298927 
L 415.908864 432.184727 
L 416.1024 427.259999 
L 416.521728 412.923095 
L 416.9088 387.815243 
L 417.102336 387.682355 
L 417.682944 387.711425 
L 418.166784 387.669897 
L 418.940928 387.678203 
L 441.197568 387.782021 
L 442.810368 390.032804 
L 444.519936 392.885733 
L 449.068032 400.709071 
L 449.680896 402.250566 
L 450.842112 406.748809 
L 451.584 410.39408 
L 451.648512 410.254132 
L 451.680768 410.30355 
L 452.164608 413.16603 
L 452.196864 413.355395 
L 452.22912 413.215448 
L 452.261376 413.022761 
L 452.325888 413.175166 
L 452.55168 415.004446 
L 452.777472 416.085403 
L 452.841984 415.89064 
L 452.906496 416.043461 
L 452.971008 416.312973 
L 453.132288 417.844917 
L 453.487104 419.621042 
L 453.51936 418.996055 
L 453.583872 419.475696 
L 453.745152 420.851913 
L 453.970944 421.820331 
L 454.035456 421.739768 
L 454.132224 422.06202 
L 454.293504 423.680341 
L 456.003072 431.937639 
L 456.09984 432.244527 
L 456.615936 434.452744 
L 456.648192 433.927464 
L 456.680448 434.612499 
L 457.003008 436.059935 
L 457.196544 436.763907 
L 457.2288 436.3983 
L 457.293312 436.599126 
L 457.422336 437.422909 
L 457.583616 438.455399 
L 457.938432 439.580956 
L 457.970688 439.470161 
L 458.002944 439.706535 
L 458.0352 439.652799 
L 458.551296 442.069898 
L 458.648064 442.024218 
L 458.68032 442.456933 
L 458.712576 442.12513 
L 458.777088 442.304112 
L 458.938368 442.712326 
L 459.099648 443.60558 
L 459.196416 443.87966 
L 459.228672 443.767121 
L 459.260928 443.713135 
L 459.293184 443.816954 
L 459.454464 444.511291 
L 459.873792 445.460606 
L 459.906048 445.353466 
L 460.099584 445.635852 
L 460.13184 445.986758 
L 460.228608 445.880448 
L 460.4544 446.364657 
L 460.61568 447.160736 
L 462.8736 452.697993 
L 462.905856 452.495755 
L 462.970368 452.671416 
L 463.163904 453.369906 
L 463.19616 453.205458 
L 463.260672 453.401882 
L 463.389696 453.770645 
L 463.615488 454.374453 
L 467.002368 461.182862 
L 467.195904 460.933283 
L 467.582976 460.357298 
L 467.679744 459.41089 
L 467.744256 459.716116 
L 467.776512 459.978154 
L 467.808768 459.55499 
L 467.841024 459.678326 
L 467.87328 459.692861 
L 468.131328 459.080332 
L 468.615168 458.153026 
L 468.647424 458.269718 
L 468.67968 458.066234 
L 468.808704 457.962001 
L 469.034496 456.912189 
L 469.066752 457.559601 
L 469.131264 457.424637 
L 469.16352 457.181702 
L 469.260288 457.25479 
L 469.389312 456.960361 
L 469.679616 456.441684 
L 469.937664 456.038454 
L 469.96992 456.224081 
L 470.002176 455.957891 
L 471.453696 454.266066 
L 471.744 453.784349 
L 472.098816 453.343744 
L 472.131072 453.569237 
L 472.195584 453.402297 
L 472.22784 453.448808 
L 472.356864 453.009864 
L 472.969728 452.361622 
L 473.001984 452.572996 
L 473.066496 452.276076 
L 473.098752 452.401488 
L 473.131008 452.201326 
L 473.711616 451.827995 
L 474.066432 451.25035 
L 474.582528 450.493722 
L 474.614784 450.778599 
L 474.679296 450.428939 
L 475.001856 450.041073 
L 475.679232 449.38328 
L 475.711488 449.609604 
L 475.776 449.376636 
L 475.905024 449.319328 
L 476.066304 449.135362 
L 476.550144 448.770336 
L 476.840448 448.337206 
L 477.033984 447.910305 
L 477.22752 447.644945 
L 477.259776 447.946019 
L 477.324288 447.52244 
L 477.485568 447.347194 
L 477.517824 447.639547 
L 477.55008 447.24296 
L 477.582336 447.169457 
L 477.614592 447.192297 
L 477.646848 447.560645 
L 477.679104 447.087648 
L 477.743616 447.455996 
L 477.87264 446.910742 
L 477.904896 446.910742 
L 477.937152 447.259571 
L 477.969408 446.803186 
L 478.03392 447.140803 
L 478.162944 446.654933 
L 478.1952 446.636661 
L 478.227456 446.860078 
L 478.259712 446.549454 
L 478.324224 446.773701 
L 478.453248 446.411998 
L 478.51776 446.610914 
L 478.550016 446.433592 
L 478.614528 446.547793 
L 478.743552 446.280356 
L 479.098368 446.117154 
L 479.614464 445.584358 
L 479.775744 445.326058 
L 479.937024 444.858045 
L 480.227328 444.461458 
L 480.259584 444.545759 
L 480.29184 444.382556 
L 480.420864 444.288705 
L 480.517632 444.179903 
L 480.549888 444.599744 
L 480.6144 444.288705 
L 480.678912 444.108061 
L 480.743424 444.140037 
L 480.807936 444.230151 
L 480.872448 443.799512 
L 480.904704 444.172013 
L 480.969216 443.763384 
L 481.001472 443.765045 
L 481.033728 444.15291 
L 481.065984 443.672854 
L 481.130496 444.06155 
L 481.25952 443.553255 
L 481.291776 443.559484 
L 481.324032 443.794944 
L 481.356288 443.485981 
L 481.4208 443.713135 
L 481.549824 443.426597 
L 482.194944 443.109328 
L 483.098112 442.203201 
L 483.19488 442.123884 
L 483.291648 441.532493 
L 483.323904 441.618745 
L 483.452928 441.349814 
L 483.485184 441.397736 
L 483.549696 441.233662 
L 483.581952 441.266593 
L 483.646464 441.624144 
L 483.743232 441.026648 
L 483.775488 441.191927 
L 483.807744 441.347613 
L 483.84 441.244127 
L 483.872256 440.874367 
L 483.969024 440.997911 
L 484.00128 441.216386 
L 484.033536 441.025776 
L 484.065792 440.67869 
L 484.098048 441.040684 
L 484.130304 440.952937 
L 484.16256 440.841187 
L 484.194816 440.904516 
L 484.227072 441.075816 
L 484.259328 440.590902 
L 484.32384 440.638699 
L 484.356096 440.985661 
L 484.420608 440.830099 
L 484.549632 440.449376 
L 484.581888 440.465198 
L 484.614144 440.671174 
L 484.6464 440.435091 
L 484.678656 440.441445 
L 485.001216 440.351206 
L 486.291456 439.034083 
L 486.323712 438.413747 
L 486.42048 438.58077 
L 486.452736 438.381646 
L 486.484992 438.691233 
L 486.517248 438.705186 
L 486.678528 437.901802 
L 486.710784 438.248011 
L 486.74304 437.744081 
L 486.775296 437.754783 
L 486.872064 437.68968 
L 487.001088 437.49862 
L 487.033344 437.832248 
L 487.097856 437.518252 
L 487.194624 437.548181 
L 488.226816 435.655376 
L 488.323584 434.792396 
L 488.420352 434.895425 
L 488.452608 435.214023 
L 488.484864 434.778899 
L 488.51712 434.690155 
L 488.549376 434.737995 
L 488.581632 434.878814 
L 488.646144 434.791025 
L 488.742912 434.679981 
L 489.16224 433.839302 
L 489.613824 432.981222 
L 489.678336 432.028169 
L 489.742848 432.478326 
L 489.80736 432.51487 
L 489.871872 431.981658 
L 489.936384 432.081739 
L 489.96864 432.132818 
L 490.000896 432.02983 
L 490.033152 432.059315 
L 490.258944 431.640304 
L 491.162112 429.915257 
L 491.194368 429.853382 
L 491.323392 429.135374 
L 491.387904 429.325154 
L 491.452416 429.229641 
L 492.452352 426.961417 
L 492.516864 426.498387 
L 492.54912 426.919059 
L 492.581376 427.032429 
L 492.678144 426.422392 
L 492.7104 426.49548 
L 492.774912 426.680692 
L 492.839424 426.575628 
L 495.548928 420.821598 
L 495.581184 420.512634 
L 495.677952 420.572434 
L 496.871424 418.211188 
L 496.935936 417.408049 
L 497.000448 417.455391 
L 497.22624 417.517682 
L 497.290752 417.452484 
L 498.484224 415.22994 
L 498.580992 414.5464 
L 498.613248 414.591249 
L 498.806784 414.64565 
L 499.00032 414.335025 
L 499.193856 413.859537 
L 499.709952 413.189701 
L 499.838976 413.034804 
L 499.871232 412.796437 
L 499.935744 412.842948 
L 500.064768 412.918527 
L 500.193792 413.024837 
L 500.322816 413.569261 
L 500.419584 415.45834 
L 500.548608 424.637131 
L 500.742144 436.829229 
L 501.193728 436.907425 
L 503.67744 437.043137 
L 505.677312 437.002066 
L 506.354688 436.390202 
L 507.161088 436.001299 
L 508.161024 435.776303 
L 509.709312 435.681621 
L 513.096192 435.766295 
L 526.546944 436.123597 
L 529.8048 436.191577 
L 531.482112 436.341034 
L 532.159488 436.9845 
L 532.965888 437.41153 
L 533.933568 437.673991 
L 535.385088 437.834806 
L 538.35264 437.898945 
L 550.577664 437.833618 
L 551.771136 437.940086 
L 554.416128 437.993532 
L 569.769984 437.842966 
L 576.608256 437.811617 
L 576.640512 438.097807 
L 576.930816 430.46591 
L 577.156608 428.976739 
L 577.317888 426.088512 
L 577.479168 417.421753 
L 577.672704 392.694707 
L 577.86624 377.055506 
L 577.995264 376.926771 
L 579.8016 377.508154 
L 580.091904 377.616125 
L 581.382144 378.00233 
L 581.995008 378.180897 
L 582.511104 378.32209 
L 583.478784 378.587865 
L 583.865856 378.695836 
L 584.833536 378.961611 
L 585.220608 379.069583 
L 586.09152 379.29383 
L 586.478592 379.401801 
L 587.252736 379.584522 
L 587.639808 379.692493 
L 588.413952 379.875213 
L 588.897792 379.983184 
L 589.671936 380.165905 
L 590.155776 380.273876 
L 590.92992 380.456596 
L 591.41376 380.564567 
L 592.05888 380.70576 
L 592.574976 380.813731 
L 593.220096 380.954924 
L 593.736192 381.062895 
L 594.381312 381.204088 
L 594.897408 381.31206 
L 595.44576 381.411725 
L 595.961856 381.519696 
L 596.510208 381.619362 
L 597.123072 381.727333 
L 597.671424 381.826999 
L 598.18752 381.93497 
L 598.735872 382.034635 
L 599.348736 382.142607 
L 599.897088 382.242272 
L 600.60672 382.346091 
L 600.961536 382.408382 
L 601.5744 382.5122 
L 601.929216 382.574491 
L 602.638848 382.678309 
L 602.993664 382.7406 
L 603.703296 382.848572 
L 604.15488 382.90671 
L 604.767744 383.010528 
L 605.12256 383.072819 
L 605.92896 383.176638 
L 606.283776 383.238929 
L 607.186944 383.342747 
L 607.54176 383.405038 
L 608.34816 383.508856 
L 608.606208 383.52962 
L 609.31584 383.633439 
L 609.573888 383.654202 
L 610.380288 383.758021 
L 610.735104 383.820312 
L 611.73504 383.92413 
L 612.089856 383.986421 
L 613.089792 384.090239 
L 613.34784 384.111003 
L 614.251008 384.214821 
L 614.509056 384.235585 
L 615.412224 384.339404 
L 615.670272 384.360167 
L 616.57344 384.463986 
L 616.831488 384.484749 
L 617.831424 384.588568 
L 618.089472 384.609331 
L 619.089408 384.71315 
L 619.347456 384.733913 
L 620.44416 384.837732 
L 620.702208 384.858495 
L 621.89568 384.962314 
L 622.153728 384.983078 
L 623.3472 385.086896 
L 623.605248 385.10766 
L 624.895488 385.211478 
L 625.153536 385.232242 
L 626.540544 385.33606 
L 626.798592 385.356824 
L 628.282368 385.460642 
L 628.540416 385.481406 
L 630.024192 385.585224 
L 630.28224 385.601835 
L 631.959552 385.709806 
L 632.2176 385.73057 
L 633.99168 385.834388 
L 634.249728 385.855152 
L 636.217344 385.95897 
L 636.475392 385.979734 
L 638.539776 386.083552 
L 638.797824 386.104316 
L 641.152512 386.208134 
L 641.475072 386.224745 
L 643.862016 386.332716 
L 644.184576 386.349327 
L 646.958592 386.457299 
L 647.21664 386.473909 
L 650.345472 386.581881 
L 650.60352 386.598492 
L 654.119424 386.706463 
L 654.377472 386.723074 
L 657.248256 386.789517 
L 657.280512 387.042834 
L 657.345024 386.772906 
L 657.53856 386.801976 
L 661.538304 386.901641 
L 661.89312 386.93071 
L 667.086336 387.038681 
L 667.408896 387.055292 
L 673.860096 387.163264 
L 674.182656 387.179874 
L 697.665024 387.283693 
L 697.794048 387.262929 
L 698.245632 387.258776 
L 737.888256 387.258776 
L 737.920512 387.470566 
L 737.985024 387.258776 
L 738.17856 387.238013 
L 739.210752 387.262929 
L 818.528256 387.258776 
L 818.560512 387.470566 
L 818.625024 387.258776 
L 818.81856 387.238013 
L 819.850752 387.262929 
L 899.168256 387.258776 
L 899.200512 387.470566 
L 899.265024 387.258776 
L 899.45856 387.238013 
L 900.490752 387.262929 
L 947.52 387.262929 
L 947.52 387.262929 
" clip-path="url(#p623a882726)" style="fill: none; stroke: #ff00ff; stroke-width: 2; stroke-linecap: square"/>
   </g>
   <g id="patch_22">
    <path d="M 100.8 465.442759 
L 100.8 372.711724 
" style="fill: none; stroke: #bcbcbc; stroke-width: 0.8; stroke-linejoin: miter; stroke-linecap: square"/>
   </g>
   <g id="patch_23">
    <path d="M 987.84 465.442759 
L 987.84 372.711724 
" style="fill: none; stroke: #bcbcbc; stroke-width: 0.8; stroke-linejoin: miter; stroke-linecap: square"/>
   </g>
   <g id="patch_24">
    <path d="M 100.8 465.442759 
L 987.84 465.442759 
" style="fill: none; stroke: #bcbcbc; stroke-width: 0.8; stroke-linejoin: miter; stroke-linecap: square"/>
   </g>
   <g id="patch_25">
    <path d="M 100.8 372.711724 
L 987.84 372.711724 
" style="fill: none; stroke: #bcbcbc; stroke-width: 0.8; stroke-linejoin: miter; stroke-linecap: square"/>
   </g>
  </g>
  <g id="axes_5">
   <g id="patch_26">
    <path d="M 100.8 576.72 
L 987.84 576.72 
L 987.84 483.988966 
L 100.8 483.988966 
z
" style="fill: #eeeeee"/>
   </g>
   <g id="matplotlib.axis_9">
    <g id="xtick_25">
     <g id="line2d_73">
      <path d="M 141.12 576.72 
L 141.12 483.988966 
" clip-path="url(#pe280cf5dd7)" style="fill: none; stroke-dasharray: 1.85,0.8; stroke-dashoffset: 0; stroke: #b2b2b2; stroke-width: 0.5"/>
     </g>
     <g id="line2d_74">
      <g>
       <use xlink:href="#m5cb1aed65c" x="141.12" y="576.72" style="stroke: #000000; stroke-width: 0.8"/>
      </g>
     </g>
     <g id="text_15">
      <!-- 0 s -->
      <g transform="translate(130.795 590.857813) scale(0.14 -0.14)">
       <defs>
        <path id="DejaVuSans-73" d="M 2834 3397 
L 2834 2853 
Q 2591 2978 2328 3040 
Q 2066 3103 1784 3103 
Q 1356 3103 1142 2972 
Q 928 2841 928 2578 
Q 928 2378 1081 2264 
Q 1234 2150 1697 2047 
L 1894 2003 
Q 2506 1872 2764 1633 
Q 3022 1394 3022 966 
Q 3022 478 2636 193 
Q 2250 -91 1575 -91 
Q 1294 -91 989 -36 
Q 684 19 347 128 
L 347 722 
Q 666 556 975 473 
Q 1284 391 1588 391 
Q 1994 391 2212 530 
Q 2431 669 2431 922 
Q 2431 1156 2273 1281 
Q 2116 1406 1581 1522 
L 1381 1569 
Q 847 1681 609 1914 
Q 372 2147 372 2553 
Q 372 3047 722 3315 
Q 1072 3584 1716 3584 
Q 2034 3584 2315 3537 
Q 2597 3491 2834 3397 
z
" transform="scale(0.015625)"/>
       </defs>
       <use xlink:href="#DejaVuSans-30"/>
       <use xlink:href="#DejaVuSans-20" x="63.623047"/>
       <use xlink:href="#DejaVuSans-73" x="95.410156"/>
      </g>
     </g>
    </g>
    <g id="xtick_26">
     <g id="line2d_75">
      <path d="M 302.4 576.72 
L 302.4 483.988966 
" clip-path="url(#pe280cf5dd7)" style="fill: none; stroke-dasharray: 1.85,0.8; stroke-dashoffset: 0; stroke: #b2b2b2; stroke-width: 0.5"/>
     </g>
     <g id="line2d_76">
      <g>
       <use xlink:href="#m5cb1aed65c" x="302.4" y="576.72" style="stroke: #000000; stroke-width: 0.8"/>
      </g>
     </g>
     <g id="text_16">
      <!-- 50 ns -->
      <g transform="translate(283.185 590.857813) scale(0.14 -0.14)">
       <defs>
        <path id="DejaVuSans-35" d="M 691 4666 
L 3169 4666 
L 3169 4134 
L 1269 4134 
L 1269 2991 
Q 1406 3038 1543 3061 
Q 1681 3084 1819 3084 
Q 2600 3084 3056 2656 
Q 3513 2228 3513 1497 
Q 3513 744 3044 326 
Q 2575 -91 1722 -91 
Q 1428 -91 1123 -41 
Q 819 9 494 109 
L 494 744 
Q 775 591 1075 516 
Q 1375 441 1709 441 
Q 2250 441 2565 725 
Q 2881 1009 2881 1497 
Q 2881 1984 2565 2268 
Q 2250 2553 1709 2553 
Q 1456 2553 1204 2497 
Q 953 2441 691 2322 
L 691 4666 
z
" transform="scale(0.015625)"/>
        <path id="DejaVuSans-6e" d="M 3513 2113 
L 3513 0 
L 2938 0 
L 2938 2094 
Q 2938 2591 2744 2837 
Q 2550 3084 2163 3084 
Q 1697 3084 1428 2787 
Q 1159 2491 1159 1978 
L 1159 0 
L 581 0 
L 581 3500 
L 1159 3500 
L 1159 2956 
Q 1366 3272 1645 3428 
Q 1925 3584 2291 3584 
Q 2894 3584 3203 3211 
Q 3513 2838 3513 2113 
z
" transform="scale(0.015625)"/>
       </defs>
       <use xlink:href="#DejaVuSans-35"/>
       <use xlink:href="#DejaVuSans-30" x="63.623047"/>
       <use xlink:href="#DejaVuSans-20" x="127.246094"/>
       <use xlink:href="#DejaVuSans-6e" x="159.033203"/>
       <use xlink:href="#DejaVuSans-73" x="222.412109"/>
      </g>
     </g>
    </g>
    <g id="xtick_27">
     <g id="line2d_77">
      <path d="M 463.68 576.72 
L 463.68 483.988966 
" clip-path="url(#pe280cf5dd7)" style="fill: none; stroke-dasharray: 1.85,0.8; stroke-dashoffset: 0; stroke: #b2b2b2; stroke-width: 0.5"/>
     </g>
     <g id="line2d_78">
      <g>
       <use xlink:href="#m5cb1aed65c" x="463.68" y="576.72" style="stroke: #000000; stroke-width: 0.8"/>
      </g>
     </g>
     <g id="text_17">
      <!-- 100 ns -->
      <g transform="translate(440.01125 590.857813) scale(0.14 -0.14)">
       <use xlink:href="#DejaVuSans-31"/>
       <use xlink:href="#DejaVuSans-30" x="63.623047"/>
       <use xlink:href="#DejaVuSans-30" x="127.246094"/>
       <use xlink:href="#DejaVuSans-20" x="190.869141"/>
       <use xlink:href="#DejaVuSans-6e" x="222.65625"/>
       <use xlink:href="#DejaVuSans-73" x="286.035156"/>
      </g>
     </g>
    </g>
    <g id="xtick_28">
     <g id="line2d_79">
      <path d="M 624.96 576.72 
L 624.96 483.988966 
" clip-path="url(#pe280cf5dd7)" style="fill: none; stroke-dasharray: 1.85,0.8; stroke-dashoffset: 0; stroke: #b2b2b2; stroke-width: 0.5"/>
     </g>
     <g id="line2d_80">
      <g>
       <use xlink:href="#m5cb1aed65c" x="624.96" y="576.72" style="stroke: #000000; stroke-width: 0.8"/>
      </g>
     </g>
     <g id="text_18">
      <!-- 150 ns -->
      <g transform="translate(601.29125 590.857813) scale(0.14 -0.14)">
       <use xlink:href="#DejaVuSans-31"/>
       <use xlink:href="#DejaVuSans-35" x="63.623047"/>
       <use xlink:href="#DejaVuSans-30" x="127.246094"/>
       <use xlink:href="#DejaVuSans-20" x="190.869141"/>
       <use xlink:href="#DejaVuSans-6e" x="222.65625"/>
       <use xlink:href="#DejaVuSans-73" x="286.035156"/>
      </g>
     </g>
    </g>
    <g id="xtick_29">
     <g id="line2d_81">
      <path d="M 786.24 576.72 
L 786.24 483.988966 
" clip-path="url(#pe280cf5dd7)" style="fill: none; stroke-dasharray: 1.85,0.8; stroke-dashoffset: 0; stroke: #b2b2b2; stroke-width: 0.5"/>
     </g>
     <g id="line2d_82">
      <g>
       <use xlink:href="#m5cb1aed65c" x="786.24" y="576.72" style="stroke: #000000; stroke-width: 0.8"/>
      </g>
     </g>
     <g id="text_19">
      <!-- 200 ns -->
      <g transform="translate(762.57125 590.857813) scale(0.14 -0.14)">
       <use xlink:href="#DejaVuSans-32"/>
       <use xlink:href="#DejaVuSans-30" x="63.623047"/>
       <use xlink:href="#DejaVuSans-30" x="127.246094"/>
       <use xlink:href="#DejaVuSans-20" x="190.869141"/>
       <use xlink:href="#DejaVuSans-6e" x="222.65625"/>
       <use xlink:href="#DejaVuSans-73" x="286.035156"/>
      </g>
     </g>
    </g>
    <g id="xtick_30">
     <g id="line2d_83">
      <path d="M 947.52 576.72 
L 947.52 483.988966 
" clip-path="url(#pe280cf5dd7)" style="fill: none; stroke-dasharray: 1.85,0.8; stroke-dashoffset: 0; stroke: #b2b2b2; stroke-width: 0.5"/>
     </g>
     <g id="line2d_84">
      <g>
       <use xlink:href="#m5cb1aed65c" x="947.52" y="576.72" style="stroke: #000000; stroke-width: 0.8"/>
      </g>
     </g>
     <g id="text_20">
      <!-- 250 ns -->
      <g transform="translate(923.85125 590.857813) scale(0.14 -0.14)">
       <use xlink:href="#DejaVuSans-32"/>
       <use xlink:href="#DejaVuSans-35" x="63.623047"/>
       <use xlink:href="#DejaVuSans-30" x="127.246094"/>
       <use xlink:href="#DejaVuSans-20" x="190.869141"/>
       <use xlink:href="#DejaVuSans-6e" x="222.65625"/>
       <use xlink:href="#DejaVuSans-73" x="286.035156"/>
      </g>
     </g>
    </g>
    <g id="text_21">
     <!-- Time -->
     <g transform="translate(527.192969 608.407187) scale(0.14 -0.14)">
      <defs>
       <path id="DejaVuSans-69" d="M 603 3500 
L 1178 3500 
L 1178 0 
L 603 0 
L 603 3500 
z
M 603 4863 
L 1178 4863 
L 1178 4134 
L 603 4134 
L 603 4863 
z
" transform="scale(0.015625)"/>
       <path id="DejaVuSans-6d" d="M 3328 2828 
Q 3544 3216 3844 3400 
Q 4144 3584 4550 3584 
Q 5097 3584 5394 3201 
Q 5691 2819 5691 2113 
L 5691 0 
L 5113 0 
L 5113 2094 
Q 5113 2597 4934 2840 
Q 4756 3084 4391 3084 
Q 3944 3084 3684 2787 
Q 3425 2491 3425 1978 
L 3425 0 
L 2847 0 
L 2847 2094 
Q 2847 2600 2669 2842 
Q 2491 3084 2119 3084 
Q 1678 3084 1418 2786 
Q 1159 2488 1159 1978 
L 1159 0 
L 581 0 
L 581 3500 
L 1159 3500 
L 1159 2956 
Q 1356 3278 1631 3431 
Q 1906 3584 2284 3584 
Q 2666 3584 2933 3390 
Q 3200 3197 3328 2828 
z
" transform="scale(0.015625)"/>
       <path id="DejaVuSans-65" d="M 3597 1894 
L 3597 1613 
L 953 1613 
Q 991 1019 1311 708 
Q 1631 397 2203 397 
Q 2534 397 2845 478 
Q 3156 559 3463 722 
L 3463 178 
Q 3153 47 2828 -22 
Q 2503 -91 2169 -91 
Q 1331 -91 842 396 
Q 353 884 353 1716 
Q 353 2575 817 3079 
Q 1281 3584 2069 3584 
Q 2775 3584 3186 3129 
Q 3597 2675 3597 1894 
z
M 3022 2063 
Q 3016 2534 2758 2815 
Q 2500 3097 2075 3097 
Q 1594 3097 1305 2825 
Q 1016 2553 972 2059 
L 3022 2063 
z
" transform="scale(0.015625)"/>
      </defs>
      <use xlink:href="#DejaVuSans-54"/>
      <use xlink:href="#DejaVuSans-69" x="57.958984"/>
      <use xlink:href="#DejaVuSans-6d" x="85.742188"/>
      <use xlink:href="#DejaVuSans-65" x="183.154297"/>
     </g>
    </g>
   </g>
   <g id="matplotlib.axis_10">
    <g id="ytick_11">
     <g id="line2d_85">
      <path d="M 100.8 569.745885 
L 987.84 569.745885 
" clip-path="url(#pe280cf5dd7)" style="fill: none; stroke-dasharray: 1.85,0.8; stroke-dashoffset: 0; stroke: #b2b2b2; stroke-width: 0.5"/>
     </g>
     <g id="line2d_86">
      <g>
       <use xlink:href="#md47ced653d" x="100.8" y="569.745885" style="stroke: #000000; stroke-width: 0.8"/>
      </g>
     </g>
     <g id="text_22">
      <!-- 0 V -->
      <g transform="translate(74.36625 575.064792) scale(0.14 -0.14)">
       <use xlink:href="#DejaVuSans-30"/>
       <use xlink:href="#DejaVuSans-20" x="63.623047"/>
       <use xlink:href="#DejaVuSans-56" x="95.410156"/>
      </g>
     </g>
    </g>
    <g id="ytick_12">
     <g id="line2d_87">
      <path d="M 100.8 535.950348 
L 987.84 535.950348 
" clip-path="url(#pe280cf5dd7)" style="fill: none; stroke-dasharray: 1.85,0.8; stroke-dashoffset: 0; stroke: #b2b2b2; stroke-width: 0.5"/>
     </g>
     <g id="line2d_88">
      <g>
       <use xlink:href="#md47ced653d" x="100.8" y="535.950348" style="stroke: #000000; stroke-width: 0.8"/>
      </g>
     </g>
     <g id="text_23">
      <!-- 500 mV -->
      <g transform="translate(42.914375 541.269254) scale(0.14 -0.14)">
       <use xlink:href="#DejaVuSans-35"/>
       <use xlink:href="#DejaVuSans-30" x="63.623047"/>
       <use xlink:href="#DejaVuSans-30" x="127.246094"/>
       <use xlink:href="#DejaVuSans-20" x="190.869141"/>
       <use xlink:href="#DejaVuSans-6d" x="222.65625"/>
       <use xlink:href="#DejaVuSans-56" x="320.068359"/>
      </g>
     </g>
    </g>
    <g id="ytick_13">
     <g id="line2d_89">
      <path d="M 100.8 502.15481 
L 987.84 502.15481 
" clip-path="url(#pe280cf5dd7)" style="fill: none; stroke-dasharray: 1.85,0.8; stroke-dashoffset: 0; stroke: #b2b2b2; stroke-width: 0.5"/>
     </g>
     <g id="line2d_90">
      <g>
       <use xlink:href="#md47ced653d" x="100.8" y="502.15481" style="stroke: #000000; stroke-width: 0.8"/>
      </g>
     </g>
     <g id="text_24">
      <!-- 1 V -->
      <g transform="translate(74.36625 507.473717) scale(0.14 -0.14)">
       <use xlink:href="#DejaVuSans-31"/>
       <use xlink:href="#DejaVuSans-20" x="63.623047"/>
       <use xlink:href="#DejaVuSans-56" x="95.410156"/>
      </g>
     </g>
    </g>
    <g id="text_25">
     <g id="patch_27">
      <path d="M 34.8768 554.329483 
L 34.8768 506.379483 
L 11.247425 506.379483 
L 11.247425 554.329483 
z
" style="fill: #ffff00; opacity: 0.2; stroke: #eeeeee; stroke-width: 0.5; stroke-linejoin: miter"/>
     </g>
     <!-- FOUT -->
     <g transform="translate(26.925238 549.289483) rotate(-90) scale(0.14 -0.14)">
      <use xlink:href="#DejaVuSans-46"/>
      <use xlink:href="#DejaVuSans-4f" x="57.519531"/>
      <use xlink:href="#DejaVuSans-55" x="136.230469"/>
      <use xlink:href="#DejaVuSans-54" x="209.423828"/>
     </g>
    </g>
   </g>
   <g id="line2d_91">
    <path d="M 141.12 488.636595 
L 173.472768 488.643355 
L 173.505024 488.44734 
L 173.569536 526.789729 
L 173.69856 572.504953 
L 173.730816 572.3695 
L 173.827584 567.842115 
L 173.892096 569.3609 
L 174.053376 570.064192 
L 174.117888 569.946665 
L 174.408192 569.492054 
L 174.440448 569.54151 
L 174.66624 569.729954 
L 176.182272 569.740151 
L 180.117504 569.761449 
L 193.568256 569.752159 
L 212.954112 569.74401 
L 255.30624 569.743704 
L 255.6288 488.52845 
L 255.854592 488.670391 
L 256.209408 488.629836 
L 334.849536 488.650114 
L 334.881792 492.854278 
L 335.043072 572.18376 
L 335.107584 570.261206 
L 335.172096 568.338639 
L 335.236608 568.870108 
L 335.365632 570.783003 
L 335.430144 570.410083 
L 335.591424 569.797213 
L 335.881728 569.648439 
L 336.559104 569.817924 
L 337.107456 569.746143 
L 350.009856 569.744206 
L 416.489472 569.74333 
L 416.553984 567.480841 
L 416.812032 488.204013 
L 416.844288 488.339195 
L 416.973312 488.852887 
L 417.037824 488.778537 
L 417.39264 488.548727 
L 417.844224 488.717705 
L 418.457088 488.562245 
L 419.328 488.636595 
L 452.519424 488.562245 
L 452.55168 488.433822 
L 452.583936 488.582523 
L 452.648448 512.408376 
L 452.777472 570.221652 
L 452.809728 569.717575 
L 453.03552 569.744226 
L 456.777216 569.744215 
L 499.00032 569.795604 
L 499.064832 569.846508 
L 499.097088 569.028541 
L 499.193856 528.722834 
L 499.355136 488.886682 
L 499.516416 488.643355 
L 500.064768 488.636595 
L 500.419584 488.629836 
L 500.516352 516.269179 
L 500.61312 571.66243 
L 500.677632 569.718487 
L 500.838912 569.743133 
L 503.67744 569.744205 
L 577.54368 569.726758 
L 577.608192 564.727248 
L 577.801728 488.98131 
L 577.963008 488.636595 
L 947.52 488.636595 
L 947.52 488.636595 
" clip-path="url(#pe280cf5dd7)" style="fill: none; stroke: #ff00ff; stroke-width: 2; stroke-linecap: square"/>
   </g>
   <g id="patch_28">
    <path d="M 100.8 576.72 
L 100.8 483.988966 
" style="fill: none; stroke: #bcbcbc; stroke-width: 0.8; stroke-linejoin: miter; stroke-linecap: square"/>
   </g>
   <g id="patch_29">
    <path d="M 987.84 576.72 
L 987.84 483.988966 
" style="fill: none; stroke: #bcbcbc; stroke-width: 0.8; stroke-linejoin: miter; stroke-linecap: square"/>
   </g>
   <g id="patch_30">
    <path d="M 100.8 576.72 
L 987.84 576.72 
" style="fill: none; stroke: #bcbcbc; stroke-width: 0.8; stroke-linejoin: miter; stroke-linecap: square"/>
   </g>
   <g id="patch_31">
    <path d="M 100.8 483.988966 
L 987.84 483.988966 
" style="fill: none; stroke: #bcbcbc; stroke-width: 0.8; stroke-linejoin: miter; stroke-linecap: square"/>
   </g>
  </g>
  <g id="axes_6">
   <g id="patch_32">
    <path d="M 201.6 628.56 
L 856.8 628.56 
L 856.8 615.6 
L 201.6 615.6 
z
" clip-path="url(#p7aa73b65ec)" style="fill: #d3d3d3"/>
   </g>
   <g id="patch_33">
    <path d="M 201.6 628.56 
L 561.96 628.56 
L 561.96 615.6 
L 201.6 615.6 
z
" clip-path="url(#p7aa73b65ec)" style="fill: #0000ff"/>
   </g>
   <g id="line2d_92">
    <path d="M 201.6 635.04 
L 201.6 609.12 
" clip-path="url(#pafa5a70f4c)" style="fill: none; stroke: #ff0000; stroke-linecap: square"/>
   </g>
   <g id="line2d_93">
    <defs>
     <path id="m8116a7ff99" d="M 0 5 
C 1.326016 5 2.597899 4.473168 3.535534 3.535534 
C 4.473168 2.597899 5 1.326016 5 0 
C 5 -1.326016 4.473168 -2.597899 3.535534 -3.535534 
C 2.597899 -4.473168 1.326016 -5 0 -5 
C -1.326016 -5 -2.597899 -4.473168 -3.535534 -3.535534 
C -4.473168 -2.597899 -5 -1.326016 -5 0 
C -5 1.326016 -4.473168 2.597899 -3.535534 3.535534 
C -2.597899 4.473168 -1.326016 5 0 5 
z
" style="stroke: #bfbfbf"/>
    </defs>
    <g>
     <use xlink:href="#m8116a7ff99" x="561.96" y="622.08" style="fill: #ffffff; stroke: #bfbfbf"/>
    </g>
   </g>
   <g id="text_26">
    <!-- #Sweep -->
    <g transform="translate(138.622875 625.39125) scale(0.12 -0.12)">
     <defs>
      <path id="DejaVuSans-23" d="M 3272 2816 
L 2363 2816 
L 2100 1772 
L 3016 1772 
L 3272 2816 
z
M 2803 4594 
L 2478 3297 
L 3391 3297 
L 3719 4594 
L 4219 4594 
L 3897 3297 
L 4872 3297 
L 4872 2816 
L 3775 2816 
L 3519 1772 
L 4513 1772 
L 4513 1294 
L 3397 1294 
L 3072 0 
L 2572 0 
L 2894 1294 
L 1978 1294 
L 1656 0 
L 1153 0 
L 1478 1294 
L 494 1294 
L 494 1772 
L 1594 1772 
L 1856 2816 
L 850 2816 
L 850 3297 
L 1978 3297 
L 2297 4594 
L 2803 4594 
z
" transform="scale(0.015625)"/>
      <path id="DejaVuSans-77" d="M 269 3500 
L 844 3500 
L 1563 769 
L 2278 3500 
L 2956 3500 
L 3675 769 
L 4391 3500 
L 4966 3500 
L 4050 0 
L 3372 0 
L 2619 2869 
L 1863 0 
L 1184 0 
L 269 3500 
z
" transform="scale(0.015625)"/>
      <path id="DejaVuSans-70" d="M 1159 525 
L 1159 -1331 
L 581 -1331 
L 581 3500 
L 1159 3500 
L 1159 2969 
Q 1341 3281 1617 3432 
Q 1894 3584 2278 3584 
Q 2916 3584 3314 3078 
Q 3713 2572 3713 1747 
Q 3713 922 3314 415 
Q 2916 -91 2278 -91 
Q 1894 -91 1617 61 
Q 1341 213 1159 525 
z
M 3116 1747 
Q 3116 2381 2855 2742 
Q 2594 3103 2138 3103 
Q 1681 3103 1420 2742 
Q 1159 2381 1159 1747 
Q 1159 1113 1420 752 
Q 1681 391 2138 391 
Q 2594 391 2855 752 
Q 3116 1113 3116 1747 
z
" transform="scale(0.015625)"/>
     </defs>
     <use xlink:href="#DejaVuSans-23"/>
     <use xlink:href="#DejaVuSans-53" x="83.789062"/>
     <use xlink:href="#DejaVuSans-77" x="147.265625"/>
     <use xlink:href="#DejaVuSans-65" x="229.052734"/>
     <use xlink:href="#DejaVuSans-65" x="290.576172"/>
     <use xlink:href="#DejaVuSans-70" x="352.099609"/>
    </g>
   </g>
   <g id="text_27">
    <!-- $\mathdefault{77}$ -->
    <g transform="translate(869.904 625.39125) scale(0.12 -0.12)">
     <defs>
      <path id="DejaVuSans-37" d="M 525 4666 
L 3525 4666 
L 3525 4397 
L 1831 0 
L 1172 0 
L 2766 4134 
L 525 4134 
L 525 4666 
z
" transform="scale(0.015625)"/>
     </defs>
     <use xlink:href="#DejaVuSans-37" transform="translate(0 0.09375)"/>
     <use xlink:href="#DejaVuSans-37" transform="translate(61.873047 0.09375)"/>
    </g>
   </g>
  </g>
  <g id="text_28">
   <!-- DFF under BBI sweep analysis (Sweep = 87E-9) -->
   <g transform="translate(313.34625 25.1175) scale(0.16 -0.16)">
    <defs>
     <path id="DejaVuSans-75" d="M 544 1381 
L 544 3500 
L 1119 3500 
L 1119 1403 
Q 1119 906 1312 657 
Q 1506 409 1894 409 
Q 2359 409 2629 706 
Q 2900 1003 2900 1516 
L 2900 3500 
L 3475 3500 
L 3475 0 
L 2900 0 
L 2900 538 
Q 2691 219 2414 64 
Q 2138 -91 1772 -91 
Q 1169 -91 856 284 
Q 544 659 544 1381 
z
M 1991 3584 
L 1991 3584 
z
" transform="scale(0.015625)"/>
     <path id="DejaVuSans-64" d="M 2906 2969 
L 2906 4863 
L 3481 4863 
L 3481 0 
L 2906 0 
L 2906 525 
Q 2725 213 2448 61 
Q 2172 -91 1784 -91 
Q 1150 -91 751 415 
Q 353 922 353 1747 
Q 353 2572 751 3078 
Q 1150 3584 1784 3584 
Q 2172 3584 2448 3432 
Q 2725 3281 2906 2969 
z
M 947 1747 
Q 947 1113 1208 752 
Q 1469 391 1925 391 
Q 2381 391 2643 752 
Q 2906 1113 2906 1747 
Q 2906 2381 2643 2742 
Q 2381 3103 1925 3103 
Q 1469 3103 1208 2742 
Q 947 2381 947 1747 
z
" transform="scale(0.015625)"/>
     <path id="DejaVuSans-72" d="M 2631 2963 
Q 2534 3019 2420 3045 
Q 2306 3072 2169 3072 
Q 1681 3072 1420 2755 
Q 1159 2438 1159 1844 
L 1159 0 
L 581 0 
L 581 3500 
L 1159 3500 
L 1159 2956 
Q 1341 3275 1631 3429 
Q 1922 3584 2338 3584 
Q 2397 3584 2469 3576 
Q 2541 3569 2628 3553 
L 2631 2963 
z
" transform="scale(0.015625)"/>
     <path id="DejaVuSans-61" d="M 2194 1759 
Q 1497 1759 1228 1600 
Q 959 1441 959 1056 
Q 959 750 1161 570 
Q 1363 391 1709 391 
Q 2188 391 2477 730 
Q 2766 1069 2766 1631 
L 2766 1759 
L 2194 1759 
z
M 3341 1997 
L 3341 0 
L 2766 0 
L 2766 531 
Q 2569 213 2275 61 
Q 1981 -91 1556 -91 
Q 1019 -91 701 211 
Q 384 513 384 1019 
Q 384 1609 779 1909 
Q 1175 2209 1959 2209 
L 2766 2209 
L 2766 2266 
Q 2766 2663 2505 2880 
Q 2244 3097 1772 3097 
Q 1472 3097 1187 3025 
Q 903 2953 641 2809 
L 641 3341 
Q 956 3463 1253 3523 
Q 1550 3584 1831 3584 
Q 2591 3584 2966 3190 
Q 3341 2797 3341 1997 
z
" transform="scale(0.015625)"/>
     <path id="DejaVuSans-6c" d="M 603 4863 
L 1178 4863 
L 1178 0 
L 603 0 
L 603 4863 
z
" transform="scale(0.015625)"/>
     <path id="DejaVuSans-79" d="M 2059 -325 
Q 1816 -950 1584 -1140 
Q 1353 -1331 966 -1331 
L 506 -1331 
L 506 -850 
L 844 -850 
Q 1081 -850 1212 -737 
Q 1344 -625 1503 -206 
L 1606 56 
L 191 3500 
L 800 3500 
L 1894 763 
L 2988 3500 
L 3597 3500 
L 2059 -325 
z
" transform="scale(0.015625)"/>
     <path id="DejaVuSans-28" d="M 1984 4856 
Q 1566 4138 1362 3434 
Q 1159 2731 1159 2009 
Q 1159 1288 1364 580 
Q 1569 -128 1984 -844 
L 1484 -844 
Q 1016 -109 783 600 
Q 550 1309 550 2009 
Q 550 2706 781 3412 
Q 1013 4119 1484 4856 
L 1984 4856 
z
" transform="scale(0.015625)"/>
     <path id="DejaVuSans-3d" d="M 678 2906 
L 4684 2906 
L 4684 2381 
L 678 2381 
L 678 2906 
z
M 678 1631 
L 4684 1631 
L 4684 1100 
L 678 1100 
L 678 1631 
z
" transform="scale(0.015625)"/>
     <path id="DejaVuSans-38" d="M 2034 2216 
Q 1584 2216 1326 1975 
Q 1069 1734 1069 1313 
Q 1069 891 1326 650 
Q 1584 409 2034 409 
Q 2484 409 2743 651 
Q 3003 894 3003 1313 
Q 3003 1734 2745 1975 
Q 2488 2216 2034 2216 
z
M 1403 2484 
Q 997 2584 770 2862 
Q 544 3141 544 3541 
Q 544 4100 942 4425 
Q 1341 4750 2034 4750 
Q 2731 4750 3128 4425 
Q 3525 4100 3525 3541 
Q 3525 3141 3298 2862 
Q 3072 2584 2669 2484 
Q 3125 2378 3379 2068 
Q 3634 1759 3634 1313 
Q 3634 634 3220 271 
Q 2806 -91 2034 -91 
Q 1263 -91 848 271 
Q 434 634 434 1313 
Q 434 1759 690 2068 
Q 947 2378 1403 2484 
z
M 1172 3481 
Q 1172 3119 1398 2916 
Q 1625 2713 2034 2713 
Q 2441 2713 2670 2916 
Q 2900 3119 2900 3481 
Q 2900 3844 2670 4047 
Q 2441 4250 2034 4250 
Q 1625 4250 1398 4047 
Q 1172 3844 1172 3481 
z
" transform="scale(0.015625)"/>
     <path id="DejaVuSans-2d" d="M 313 2009 
L 1997 2009 
L 1997 1497 
L 313 1497 
L 313 2009 
z
" transform="scale(0.015625)"/>
     <path id="DejaVuSans-39" d="M 703 97 
L 703 672 
Q 941 559 1184 500 
Q 1428 441 1663 441 
Q 2288 441 2617 861 
Q 2947 1281 2994 2138 
Q 2813 1869 2534 1725 
Q 2256 1581 1919 1581 
Q 1219 1581 811 2004 
Q 403 2428 403 3163 
Q 403 3881 828 4315 
Q 1253 4750 1959 4750 
Q 2769 4750 3195 4129 
Q 3622 3509 3622 2328 
Q 3622 1225 3098 567 
Q 2575 -91 1691 -91 
Q 1453 -91 1209 -44 
Q 966 3 703 97 
z
M 1959 2075 
Q 2384 2075 2632 2365 
Q 2881 2656 2881 3163 
Q 2881 3666 2632 3958 
Q 2384 4250 1959 4250 
Q 1534 4250 1286 3958 
Q 1038 3666 1038 3163 
Q 1038 2656 1286 2365 
Q 1534 2075 1959 2075 
z
" transform="scale(0.015625)"/>
     <path id="DejaVuSans-29" d="M 513 4856 
L 1013 4856 
Q 1481 4119 1714 3412 
Q 1947 2706 1947 2009 
Q 1947 1309 1714 600 
Q 1481 -109 1013 -844 
L 513 -844 
Q 928 -128 1133 580 
Q 1338 1288 1338 2009 
Q 1338 2731 1133 3434 
Q 928 4138 513 4856 
z
" transform="scale(0.015625)"/>
    </defs>
    <use xlink:href="#DejaVuSans-44"/>
    <use xlink:href="#DejaVuSans-46" x="77.001953"/>
    <use xlink:href="#DejaVuSans-46" x="134.521484"/>
    <use xlink:href="#DejaVuSans-20" x="192.041016"/>
    <use xlink:href="#DejaVuSans-75" x="223.828125"/>
    <use xlink:href="#DejaVuSans-6e" x="287.207031"/>
    <use xlink:href="#DejaVuSans-64" x="350.585938"/>
    <use xlink:href="#DejaVuSans-65" x="414.0625"/>
    <use xlink:href="#DejaVuSans-72" x="475.585938"/>
    <use xlink:href="#DejaVuSans-20" x="516.699219"/>
    <use xlink:href="#DejaVuSans-42" x="548.486328"/>
    <use xlink:href="#DejaVuSans-42" x="617.089844"/>
    <use xlink:href="#DejaVuSans-49" x="685.693359"/>
    <use xlink:href="#DejaVuSans-20" x="715.185547"/>
    <use xlink:href="#DejaVuSans-73" x="746.972656"/>
    <use xlink:href="#DejaVuSans-77" x="799.072266"/>
    <use xlink:href="#DejaVuSans-65" x="880.859375"/>
    <use xlink:href="#DejaVuSans-65" x="942.382812"/>
    <use xlink:href="#DejaVuSans-70" x="1003.90625"/>
    <use xlink:href="#DejaVuSans-20" x="1067.382812"/>
    <use xlink:href="#DejaVuSans-61" x="1099.169922"/>
    <use xlink:href="#DejaVuSans-6e" x="1160.449219"/>
    <use xlink:href="#DejaVuSans-61" x="1223.828125"/>
    <use xlink:href="#DejaVuSans-6c" x="1285.107422"/>
    <use xlink:href="#DejaVuSans-79" x="1312.890625"/>
    <use xlink:href="#DejaVuSans-73" x="1372.070312"/>
    <use xlink:href="#DejaVuSans-69" x="1424.169922"/>
    <use xlink:href="#DejaVuSans-73" x="1451.953125"/>
    <use xlink:href="#DejaVuSans-20" x="1504.052734"/>
    <use xlink:href="#DejaVuSans-28" x="1535.839844"/>
    <use xlink:href="#DejaVuSans-53" x="1574.853516"/>
    <use xlink:href="#DejaVuSans-77" x="1638.330078"/>
    <use xlink:href="#DejaVuSans-65" x="1720.117188"/>
    <use xlink:href="#DejaVuSans-65" x="1781.640625"/>
    <use xlink:href="#DejaVuSans-70" x="1843.164062"/>
    <use xlink:href="#DejaVuSans-20" x="1906.640625"/>
    <use xlink:href="#DejaVuSans-3d" x="1938.427734"/>
    <use xlink:href="#DejaVuSans-20" x="2022.216797"/>
    <use xlink:href="#DejaVuSans-38" x="2054.003906"/>
    <use xlink:href="#DejaVuSans-37" x="2117.626953"/>
    <use xlink:href="#DejaVuSans-45" x="2181.25"/>
    <use xlink:href="#DejaVuSans-2d" x="2244.433594"/>
    <use xlink:href="#DejaVuSans-39" x="2280.517578"/>
    <use xlink:href="#DejaVuSans-29" x="2344.140625"/>
   </g>
  </g>
 </g>
 <defs>
  <clipPath id="pb5f4233910">
   <rect x="100.8" y="38.88" width="887.04" height="92.731034"/>
  </clipPath>
  <clipPath id="p3f245b74ba">
   <rect x="100.8" y="150.157241" width="887.04" height="92.731034"/>
  </clipPath>
  <clipPath id="p26246763ae">
   <rect x="100.8" y="261.434483" width="887.04" height="92.731034"/>
  </clipPath>
  <clipPath id="p623a882726">
   <rect x="100.8" y="372.711724" width="887.04" height="92.731034"/>
  </clipPath>
  <clipPath id="pe280cf5dd7">
   <rect x="100.8" y="483.988966" width="887.04" height="92.731034"/>
  </clipPath>
  <clipPath id="p7aa73b65ec">
   <rect x="201.6" y="609.12" width="655.2" height="25.92"/>
  </clipPath>
  <clipPath id="pafa5a70f4c">
   <path d="M 201.6 628.56 
L 856.8 628.56 
L 856.8 615.6 
L 201.6 615.6 
z
"/>
  </clipPath>
 </defs>
</svg>
