<?xml version="1.0" encoding="utf-8" standalone="no"?>
<!DOCTYPE svg PUBLIC "-//W3C//DTD SVG 1.1//EN"
  "http://www.w3.org/Graphics/SVG/1.1/DTD/svg11.dtd">
<svg xmlns:xlink="http://www.w3.org/1999/xlink" width="1008pt" height="648pt" viewBox="0 0 1008 648" xmlns="http://www.w3.org/2000/svg" version="1.1">
 <metadata>
  <rdf:RDF xmlns:dc="http://purl.org/dc/elements/1.1/" xmlns:cc="http://creativecommons.org/ns#" xmlns:rdf="http://www.w3.org/1999/02/22-rdf-syntax-ns#">
   <cc:Work>
    <dc:type rdf:resource="http://purl.org/dc/dcmitype/StillImage"/>
    <dc:date>2024-06-03T10:45:35.453387</dc:date>
    <dc:format>image/svg+xml</dc:format>
    <dc:creator>
     <cc:Agent>
      <dc:title>Matplotlib v3.9.0, https://matplotlib.org/</dc:title>
     </cc:Agent>
    </dc:creator>
   </cc:Work>
  </rdf:RDF>
 </metadata>
 <defs>
  <style type="text/css">*{stroke-linejoin: round; stroke-linecap: butt}</style>
 </defs>
 <g id="figure_1">
  <g id="patch_1">
   <path d="M 0 648 
L 1008 648 
L 1008 0 
L 0 0 
z
" style="fill: #ffffff"/>
  </g>
  <g id="axes_1">
   <g id="patch_2">
    <path d="M 100.8 131.611034 
L 987.84 131.611034 
L 987.84 38.88 
L 100.8 38.88 
z
" style="fill: #eeeeee"/>
   </g>
   <g id="matplotlib.axis_1">
    <g id="xtick_1">
     <g id="line2d_1">
      <path d="M 141.12 131.611034 
L 141.12 38.88 
" clip-path="url(#p0d00eb7b32)" style="fill: none; stroke-dasharray: 1.85,0.8; stroke-dashoffset: 0; stroke: #b2b2b2; stroke-width: 0.5"/>
     </g>
     <g id="line2d_2">
      <defs>
       <path id="m8c6a0653da" d="M 0 0 
L 0 -3.5 
" style="stroke: #000000; stroke-width: 0.8"/>
      </defs>
      <g>
       <use xlink:href="#m8c6a0653da" x="141.12" y="131.611034" style="stroke: #000000; stroke-width: 0.8"/>
      </g>
     </g>
    </g>
    <g id="xtick_2">
     <g id="line2d_3">
      <path d="M 302.4 131.611034 
L 302.4 38.88 
" clip-path="url(#p0d00eb7b32)" style="fill: none; stroke-dasharray: 1.85,0.8; stroke-dashoffset: 0; stroke: #b2b2b2; stroke-width: 0.5"/>
     </g>
     <g id="line2d_4">
      <g>
       <use xlink:href="#m8c6a0653da" x="302.4" y="131.611034" style="stroke: #000000; stroke-width: 0.8"/>
      </g>
     </g>
    </g>
    <g id="xtick_3">
     <g id="line2d_5">
      <path d="M 463.68 131.611034 
L 463.68 38.88 
" clip-path="url(#p0d00eb7b32)" style="fill: none; stroke-dasharray: 1.85,0.8; stroke-dashoffset: 0; stroke: #b2b2b2; stroke-width: 0.5"/>
     </g>
     <g id="line2d_6">
      <g>
       <use xlink:href="#m8c6a0653da" x="463.68" y="131.611034" style="stroke: #000000; stroke-width: 0.8"/>
      </g>
     </g>
    </g>
    <g id="xtick_4">
     <g id="line2d_7">
      <path d="M 624.96 131.611034 
L 624.96 38.88 
" clip-path="url(#p0d00eb7b32)" style="fill: none; stroke-dasharray: 1.85,0.8; stroke-dashoffset: 0; stroke: #b2b2b2; stroke-width: 0.5"/>
     </g>
     <g id="line2d_8">
      <g>
       <use xlink:href="#m8c6a0653da" x="624.96" y="131.611034" style="stroke: #000000; stroke-width: 0.8"/>
      </g>
     </g>
    </g>
    <g id="xtick_5">
     <g id="line2d_9">
      <path d="M 786.24 131.611034 
L 786.24 38.88 
" clip-path="url(#p0d00eb7b32)" style="fill: none; stroke-dasharray: 1.85,0.8; stroke-dashoffset: 0; stroke: #b2b2b2; stroke-width: 0.5"/>
     </g>
     <g id="line2d_10">
      <g>
       <use xlink:href="#m8c6a0653da" x="786.24" y="131.611034" style="stroke: #000000; stroke-width: 0.8"/>
      </g>
     </g>
    </g>
    <g id="xtick_6">
     <g id="line2d_11">
      <path d="M 947.52 131.611034 
L 947.52 38.88 
" clip-path="url(#p0d00eb7b32)" style="fill: none; stroke-dasharray: 1.85,0.8; stroke-dashoffset: 0; stroke: #b2b2b2; stroke-width: 0.5"/>
     </g>
     <g id="line2d_12">
      <g>
       <use xlink:href="#m8c6a0653da" x="947.52" y="131.611034" style="stroke: #000000; stroke-width: 0.8"/>
      </g>
     </g>
    </g>
   </g>
   <g id="matplotlib.axis_2">
    <g id="ytick_1">
     <g id="line2d_13">
      <path d="M 100.8 98.340394 
L 987.84 98.340394 
" clip-path="url(#p0d00eb7b32)" style="fill: none; stroke-dasharray: 1.85,0.8; stroke-dashoffset: 0; stroke: #b2b2b2; stroke-width: 0.5"/>
     </g>
     <g id="line2d_14">
      <defs>
       <path id="mf0a18b4fd6" d="M 0 0 
L 3.5 0 
" style="stroke: #000000; stroke-width: 0.8"/>
      </defs>
      <g>
       <use xlink:href="#mf0a18b4fd6" x="100.8" y="98.340394" style="stroke: #000000; stroke-width: 0.8"/>
      </g>
     </g>
     <g id="text_1">
      <!-- −200 V -->
      <g transform="translate(44.819688 103.6593) scale(0.14 -0.14)">
       <defs>
        <path id="DejaVuSans-2212" d="M 678 2272 
L 4684 2272 
L 4684 1741 
L 678 1741 
L 678 2272 
z
" transform="scale(0.015625)"/>
        <path id="DejaVuSans-32" d="M 1228 531 
L 3431 531 
L 3431 0 
L 469 0 
L 469 531 
Q 828 903 1448 1529 
Q 2069 2156 2228 2338 
Q 2531 2678 2651 2914 
Q 2772 3150 2772 3378 
Q 2772 3750 2511 3984 
Q 2250 4219 1831 4219 
Q 1534 4219 1204 4116 
Q 875 4013 500 3803 
L 500 4441 
Q 881 4594 1212 4672 
Q 1544 4750 1819 4750 
Q 2544 4750 2975 4387 
Q 3406 4025 3406 3419 
Q 3406 3131 3298 2873 
Q 3191 2616 2906 2266 
Q 2828 2175 2409 1742 
Q 1991 1309 1228 531 
z
" transform="scale(0.015625)"/>
        <path id="DejaVuSans-30" d="M 2034 4250 
Q 1547 4250 1301 3770 
Q 1056 3291 1056 2328 
Q 1056 1369 1301 889 
Q 1547 409 2034 409 
Q 2525 409 2770 889 
Q 3016 1369 3016 2328 
Q 3016 3291 2770 3770 
Q 2525 4250 2034 4250 
z
M 2034 4750 
Q 2819 4750 3233 4129 
Q 3647 3509 3647 2328 
Q 3647 1150 3233 529 
Q 2819 -91 2034 -91 
Q 1250 -91 836 529 
Q 422 1150 422 2328 
Q 422 3509 836 4129 
Q 1250 4750 2034 4750 
z
" transform="scale(0.015625)"/>
        <path id="DejaVuSans-20" transform="scale(0.015625)"/>
        <path id="DejaVuSans-56" d="M 1831 0 
L 50 4666 
L 709 4666 
L 2188 738 
L 3669 4666 
L 4325 4666 
L 2547 0 
L 1831 0 
z
" transform="scale(0.015625)"/>
       </defs>
       <use xlink:href="#DejaVuSans-2212"/>
       <use xlink:href="#DejaVuSans-32" x="83.789062"/>
       <use xlink:href="#DejaVuSans-30" x="147.412109"/>
       <use xlink:href="#DejaVuSans-30" x="211.035156"/>
       <use xlink:href="#DejaVuSans-20" x="274.658203"/>
       <use xlink:href="#DejaVuSans-56" x="306.445312"/>
      </g>
     </g>
    </g>
    <g id="ytick_2">
     <g id="line2d_15">
      <path d="M 100.8 45.027377 
L 987.84 45.027377 
" clip-path="url(#p0d00eb7b32)" style="fill: none; stroke-dasharray: 1.85,0.8; stroke-dashoffset: 0; stroke: #b2b2b2; stroke-width: 0.5"/>
     </g>
     <g id="line2d_16">
      <g>
       <use xlink:href="#mf0a18b4fd6" x="100.8" y="45.027377" style="stroke: #000000; stroke-width: 0.8"/>
      </g>
     </g>
     <g id="text_2">
      <!-- 0 V -->
      <g transform="translate(74.36625 50.346284) scale(0.14 -0.14)">
       <use xlink:href="#DejaVuSans-30"/>
       <use xlink:href="#DejaVuSans-20" x="63.623047"/>
       <use xlink:href="#DejaVuSans-56" x="95.410156"/>
      </g>
     </g>
    </g>
    <g id="text_3">
     <g id="patch_3">
      <path d="M 34.8768 131.080205 
L 34.8768 39.41083 
L 11.247425 39.41083 
L 11.247425 131.080205 
z
" style="fill: #ffff00; opacity: 0.2; stroke: #eeeeee; stroke-width: 0.5; stroke-linejoin: miter"/>
     </g>
     <!-- VPULSE BBI -->
     <g transform="translate(26.925238 126.040205) rotate(-90) scale(0.14 -0.14)">
      <defs>
       <path id="DejaVuSans-50" d="M 1259 4147 
L 1259 2394 
L 2053 2394 
Q 2494 2394 2734 2622 
Q 2975 2850 2975 3272 
Q 2975 3691 2734 3919 
Q 2494 4147 2053 4147 
L 1259 4147 
z
M 628 4666 
L 2053 4666 
Q 2838 4666 3239 4311 
Q 3641 3956 3641 3272 
Q 3641 2581 3239 2228 
Q 2838 1875 2053 1875 
L 1259 1875 
L 1259 0 
L 628 0 
L 628 4666 
z
" transform="scale(0.015625)"/>
       <path id="DejaVuSans-55" d="M 556 4666 
L 1191 4666 
L 1191 1831 
Q 1191 1081 1462 751 
Q 1734 422 2344 422 
Q 2950 422 3222 751 
Q 3494 1081 3494 1831 
L 3494 4666 
L 4128 4666 
L 4128 1753 
Q 4128 841 3676 375 
Q 3225 -91 2344 -91 
Q 1459 -91 1007 375 
Q 556 841 556 1753 
L 556 4666 
z
" transform="scale(0.015625)"/>
       <path id="DejaVuSans-4c" d="M 628 4666 
L 1259 4666 
L 1259 531 
L 3531 531 
L 3531 0 
L 628 0 
L 628 4666 
z
" transform="scale(0.015625)"/>
       <path id="DejaVuSans-53" d="M 3425 4513 
L 3425 3897 
Q 3066 4069 2747 4153 
Q 2428 4238 2131 4238 
Q 1616 4238 1336 4038 
Q 1056 3838 1056 3469 
Q 1056 3159 1242 3001 
Q 1428 2844 1947 2747 
L 2328 2669 
Q 3034 2534 3370 2195 
Q 3706 1856 3706 1288 
Q 3706 609 3251 259 
Q 2797 -91 1919 -91 
Q 1588 -91 1214 -16 
Q 841 59 441 206 
L 441 856 
Q 825 641 1194 531 
Q 1563 422 1919 422 
Q 2459 422 2753 634 
Q 3047 847 3047 1241 
Q 3047 1584 2836 1778 
Q 2625 1972 2144 2069 
L 1759 2144 
Q 1053 2284 737 2584 
Q 422 2884 422 3419 
Q 422 4038 858 4394 
Q 1294 4750 2059 4750 
Q 2388 4750 2728 4690 
Q 3069 4631 3425 4513 
z
" transform="scale(0.015625)"/>
       <path id="DejaVuSans-45" d="M 628 4666 
L 3578 4666 
L 3578 4134 
L 1259 4134 
L 1259 2753 
L 3481 2753 
L 3481 2222 
L 1259 2222 
L 1259 531 
L 3634 531 
L 3634 0 
L 628 0 
L 628 4666 
z
" transform="scale(0.015625)"/>
       <path id="DejaVuSans-42" d="M 1259 2228 
L 1259 519 
L 2272 519 
Q 2781 519 3026 730 
Q 3272 941 3272 1375 
Q 3272 1813 3026 2020 
Q 2781 2228 2272 2228 
L 1259 2228 
z
M 1259 4147 
L 1259 2741 
L 2194 2741 
Q 2656 2741 2882 2914 
Q 3109 3088 3109 3444 
Q 3109 3797 2882 3972 
Q 2656 4147 2194 4147 
L 1259 4147 
z
M 628 4666 
L 2241 4666 
Q 2963 4666 3353 4366 
Q 3744 4066 3744 3513 
Q 3744 3084 3544 2831 
Q 3344 2578 2956 2516 
Q 3422 2416 3680 2098 
Q 3938 1781 3938 1306 
Q 3938 681 3513 340 
Q 3088 0 2303 0 
L 628 0 
L 628 4666 
z
" transform="scale(0.015625)"/>
       <path id="DejaVuSans-49" d="M 628 4666 
L 1259 4666 
L 1259 0 
L 628 0 
L 628 4666 
z
" transform="scale(0.015625)"/>
      </defs>
      <use xlink:href="#DejaVuSans-56"/>
      <use xlink:href="#DejaVuSans-50" x="68.408203"/>
      <use xlink:href="#DejaVuSans-55" x="128.710938"/>
      <use xlink:href="#DejaVuSans-4c" x="201.904297"/>
      <use xlink:href="#DejaVuSans-53" x="257.617188"/>
      <use xlink:href="#DejaVuSans-45" x="321.09375"/>
      <use xlink:href="#DejaVuSans-20" x="384.277344"/>
      <use xlink:href="#DejaVuSans-42" x="416.064453"/>
      <use xlink:href="#DejaVuSans-42" x="484.667969"/>
      <use xlink:href="#DejaVuSans-49" x="553.271484"/>
     </g>
    </g>
   </g>
   <g id="line2d_17">
    <path d="M 141.12 45.027377 
L 289.529856 45.136282 
L 290.013696 46.425538 
L 298.238976 69.006772 
L 305.657856 89.863624 
L 307.270656 94.440546 
L 309.076992 99.673219 
L 312.56064 110.807642 
L 314.141184 115.853719 
L 315.399168 119.566971 
L 316.624896 120.153414 
L 317.463552 120.545265 
L 318.495744 121.017085 
L 319.076352 121.272988 
L 319.947264 121.656841 
L 320.527872 121.912744 
L 321.366528 122.269941 
L 322.947072 122.936354 
L 323.592192 123.202919 
L 324.688896 123.629423 
L 325.430784 123.922644 
L 326.527488 124.349149 
L 327.430656 124.677024 
L 328.108032 124.943589 
L 328.914432 125.25547 
L 330.269184 125.804594 
L 332.914176 126.790885 
L 333.52704 127.022796 
L 335.4624 127.395987 
L 353.945088 127.289361 
L 354.17088 126.801547 
L 372.460032 75.087922 
L 376.201728 63.292417 
L 379.911168 51.617666 
L 384.523776 49.3412 
L 389.878272 46.984578 
L 398.587392 43.484472 
L 399.458304 43.268927 
L 413.747712 43.108189 
L 420.553728 43.184799 
L 435.907584 43.746186 
L 463.68 44.46146 
L 489.32352 44.774399 
L 524.934144 44.945888 
L 572.963328 44.953885 
L 947.52 44.953885 
L 947.52 44.953885 
" clip-path="url(#p0d00eb7b32)" style="fill: none; stroke: #ff0000; stroke-width: 2; stroke-linecap: square"/>
   </g>
   <g id="patch_4">
    <path d="M 100.8 131.611034 
L 100.8 38.88 
" style="fill: none; stroke: #bcbcbc; stroke-width: 0.8; stroke-linejoin: miter; stroke-linecap: square"/>
   </g>
   <g id="patch_5">
    <path d="M 987.84 131.611034 
L 987.84 38.88 
" style="fill: none; stroke: #bcbcbc; stroke-width: 0.8; stroke-linejoin: miter; stroke-linecap: square"/>
   </g>
   <g id="patch_6">
    <path d="M 100.8 131.611034 
L 987.84 131.611034 
" style="fill: none; stroke: #bcbcbc; stroke-width: 0.8; stroke-linejoin: miter; stroke-linecap: square"/>
   </g>
   <g id="patch_7">
    <path d="M 100.8 38.88 
L 987.84 38.88 
" style="fill: none; stroke: #bcbcbc; stroke-width: 0.8; stroke-linejoin: miter; stroke-linecap: square"/>
   </g>
  </g>
  <g id="axes_2">
   <g id="patch_8">
    <path d="M 100.8 242.888276 
L 987.84 242.888276 
L 987.84 150.157241 
L 100.8 150.157241 
z
" style="fill: #eeeeee"/>
   </g>
   <g id="matplotlib.axis_3">
    <g id="xtick_7">
     <g id="line2d_18">
      <path d="M 141.12 242.888276 
L 141.12 150.157241 
" clip-path="url(#p4ca48bcea8)" style="fill: none; stroke-dasharray: 1.85,0.8; stroke-dashoffset: 0; stroke: #b2b2b2; stroke-width: 0.5"/>
     </g>
     <g id="line2d_19">
      <g>
       <use xlink:href="#m8c6a0653da" x="141.12" y="242.888276" style="stroke: #000000; stroke-width: 0.8"/>
      </g>
     </g>
    </g>
    <g id="xtick_8">
     <g id="line2d_20">
      <path d="M 302.4 242.888276 
L 302.4 150.157241 
" clip-path="url(#p4ca48bcea8)" style="fill: none; stroke-dasharray: 1.85,0.8; stroke-dashoffset: 0; stroke: #b2b2b2; stroke-width: 0.5"/>
     </g>
     <g id="line2d_21">
      <g>
       <use xlink:href="#m8c6a0653da" x="302.4" y="242.888276" style="stroke: #000000; stroke-width: 0.8"/>
      </g>
     </g>
    </g>
    <g id="xtick_9">
     <g id="line2d_22">
      <path d="M 463.68 242.888276 
L 463.68 150.157241 
" clip-path="url(#p4ca48bcea8)" style="fill: none; stroke-dasharray: 1.85,0.8; stroke-dashoffset: 0; stroke: #b2b2b2; stroke-width: 0.5"/>
     </g>
     <g id="line2d_23">
      <g>
       <use xlink:href="#m8c6a0653da" x="463.68" y="242.888276" style="stroke: #000000; stroke-width: 0.8"/>
      </g>
     </g>
    </g>
    <g id="xtick_10">
     <g id="line2d_24">
      <path d="M 624.96 242.888276 
L 624.96 150.157241 
" clip-path="url(#p4ca48bcea8)" style="fill: none; stroke-dasharray: 1.85,0.8; stroke-dashoffset: 0; stroke: #b2b2b2; stroke-width: 0.5"/>
     </g>
     <g id="line2d_25">
      <g>
       <use xlink:href="#m8c6a0653da" x="624.96" y="242.888276" style="stroke: #000000; stroke-width: 0.8"/>
      </g>
     </g>
    </g>
    <g id="xtick_11">
     <g id="line2d_26">
      <path d="M 786.24 242.888276 
L 786.24 150.157241 
" clip-path="url(#p4ca48bcea8)" style="fill: none; stroke-dasharray: 1.85,0.8; stroke-dashoffset: 0; stroke: #b2b2b2; stroke-width: 0.5"/>
     </g>
     <g id="line2d_27">
      <g>
       <use xlink:href="#m8c6a0653da" x="786.24" y="242.888276" style="stroke: #000000; stroke-width: 0.8"/>
      </g>
     </g>
    </g>
    <g id="xtick_12">
     <g id="line2d_28">
      <path d="M 947.52 242.888276 
L 947.52 150.157241 
" clip-path="url(#p4ca48bcea8)" style="fill: none; stroke-dasharray: 1.85,0.8; stroke-dashoffset: 0; stroke: #b2b2b2; stroke-width: 0.5"/>
     </g>
     <g id="line2d_29">
      <g>
       <use xlink:href="#m8c6a0653da" x="947.52" y="242.888276" style="stroke: #000000; stroke-width: 0.8"/>
      </g>
     </g>
    </g>
   </g>
   <g id="matplotlib.axis_4">
    <g id="ytick_3">
     <g id="line2d_30">
      <path d="M 100.8 218.996552 
L 987.84 218.996552 
" clip-path="url(#p4ca48bcea8)" style="fill: none; stroke-dasharray: 1.85,0.8; stroke-dashoffset: 0; stroke: #b2b2b2; stroke-width: 0.5"/>
     </g>
     <g id="line2d_31">
      <g>
       <use xlink:href="#mf0a18b4fd6" x="100.8" y="218.996552" style="stroke: #000000; stroke-width: 0.8"/>
      </g>
     </g>
     <g id="text_4">
      <!-- 0 V -->
      <g transform="translate(74.36625 224.315458) scale(0.14 -0.14)">
       <use xlink:href="#DejaVuSans-30"/>
       <use xlink:href="#DejaVuSans-20" x="63.623047"/>
       <use xlink:href="#DejaVuSans-56" x="95.410156"/>
      </g>
     </g>
    </g>
    <g id="ytick_4">
     <g id="line2d_32">
      <path d="M 100.8 184.707666 
L 987.84 184.707666 
" clip-path="url(#p4ca48bcea8)" style="fill: none; stroke-dasharray: 1.85,0.8; stroke-dashoffset: 0; stroke: #b2b2b2; stroke-width: 0.5"/>
     </g>
     <g id="line2d_33">
      <g>
       <use xlink:href="#mf0a18b4fd6" x="100.8" y="184.707666" style="stroke: #000000; stroke-width: 0.8"/>
      </g>
     </g>
     <g id="text_5">
      <!-- 1 V -->
      <g transform="translate(74.36625 190.026572) scale(0.14 -0.14)">
       <defs>
        <path id="DejaVuSans-31" d="M 794 531 
L 1825 531 
L 1825 4091 
L 703 3866 
L 703 4441 
L 1819 4666 
L 2450 4666 
L 2450 531 
L 3481 531 
L 3481 0 
L 794 0 
L 794 531 
z
" transform="scale(0.015625)"/>
       </defs>
       <use xlink:href="#DejaVuSans-31"/>
       <use xlink:href="#DejaVuSans-20" x="63.623047"/>
       <use xlink:href="#DejaVuSans-56" x="95.410156"/>
      </g>
     </g>
    </g>
    <g id="ytick_5">
     <g id="line2d_34">
      <path d="M 100.8 150.41878 
L 987.84 150.41878 
" clip-path="url(#p4ca48bcea8)" style="fill: none; stroke-dasharray: 1.85,0.8; stroke-dashoffset: 0; stroke: #b2b2b2; stroke-width: 0.5"/>
     </g>
     <g id="line2d_35">
      <g>
       <use xlink:href="#mf0a18b4fd6" x="100.8" y="150.41878" style="stroke: #000000; stroke-width: 0.8"/>
      </g>
     </g>
     <g id="text_6">
      <!-- 2 V -->
      <g transform="translate(74.36625 155.737686) scale(0.14 -0.14)">
       <use xlink:href="#DejaVuSans-32"/>
       <use xlink:href="#DejaVuSans-20" x="63.623047"/>
       <use xlink:href="#DejaVuSans-56" x="95.410156"/>
      </g>
     </g>
    </g>
    <g id="text_7">
     <g id="patch_9">
      <path d="M 34.8768 224.531509 
L 34.8768 168.514009 
L 11.247425 168.514009 
L 11.247425 224.531509 
z
" style="fill: #ffff00; opacity: 0.2; stroke: #eeeeee; stroke-width: 0.5; stroke-linejoin: miter"/>
     </g>
     <!-- DFF IN -->
     <g transform="translate(26.925238 219.491509) rotate(-90) scale(0.14 -0.14)">
      <defs>
       <path id="DejaVuSans-44" d="M 1259 4147 
L 1259 519 
L 2022 519 
Q 2988 519 3436 956 
Q 3884 1394 3884 2338 
Q 3884 3275 3436 3711 
Q 2988 4147 2022 4147 
L 1259 4147 
z
M 628 4666 
L 1925 4666 
Q 3281 4666 3915 4102 
Q 4550 3538 4550 2338 
Q 4550 1131 3912 565 
Q 3275 0 1925 0 
L 628 0 
L 628 4666 
z
" transform="scale(0.015625)"/>
       <path id="DejaVuSans-46" d="M 628 4666 
L 3309 4666 
L 3309 4134 
L 1259 4134 
L 1259 2759 
L 3109 2759 
L 3109 2228 
L 1259 2228 
L 1259 0 
L 628 0 
L 628 4666 
z
" transform="scale(0.015625)"/>
       <path id="DejaVuSans-4e" d="M 628 4666 
L 1478 4666 
L 3547 763 
L 3547 4666 
L 4159 4666 
L 4159 0 
L 3309 0 
L 1241 3903 
L 1241 0 
L 628 0 
L 628 4666 
z
" transform="scale(0.015625)"/>
      </defs>
      <use xlink:href="#DejaVuSans-44"/>
      <use xlink:href="#DejaVuSans-46" x="77.001953"/>
      <use xlink:href="#DejaVuSans-46" x="134.521484"/>
      <use xlink:href="#DejaVuSans-20" x="192.041016"/>
      <use xlink:href="#DejaVuSans-49" x="223.828125"/>
      <use xlink:href="#DejaVuSans-4e" x="253.320312"/>
     </g>
    </g>
   </g>
   <g id="line2d_36">
    <path d="M 141.12 218.946476 
L 221.953536 218.899456 
L 224.437248 199.79409 
L 225.404928 193.982124 
L 228.243456 181.203342 
L 229.598208 179.920937 
L 231.178752 179.039713 
L 236.533248 178.580242 
L 243.5328 178.470517 
L 244.952064 178.429371 
L 248.145408 178.319646 
L 249.790464 178.254497 
L 251.887104 178.144773 
L 254.241792 177.795026 
L 254.757888 177.253262 
L 255.499776 176.910373 
L 256.338432 176.924089 
L 259.789824 177.544717 
L 262.467072 177.719591 
L 263.886336 177.767595 
L 264.144384 183.054941 
L 264.434688 186.652531 
L 265.176576 191.445089 
L 267.144192 208.93825 
L 268.402176 215.532346 
L 268.982784 216.71881 
L 270.30528 218.527857 
L 271.337472 218.783748 
L 272.40192 218.880017 
L 277.982208 218.951959 
L 289.529856 218.977885 
L 290.239488 219.719156 
L 291.497472 220.763149 
L 292.207104 221.144613 
L 293.174784 221.47965 
L 294.626304 221.716278 
L 296.335872 221.796239 
L 297.658368 221.915187 
L 298.52928 222.3654 
L 300.335616 223.298778 
L 302.754816 224.652161 
L 304.045056 225.437376 
L 304.786944 225.634537 
L 305.432064 225.543329 
L 306.012672 225.196325 
L 306.690048 224.444027 
L 307.109376 224.085022 
L 307.302912 224.168001 
L 307.657728 224.705651 
L 308.431872 225.927021 
L 308.722176 226.263052 
L 308.947968 226.782186 
L 309.593088 228.388278 
L 309.98016 228.996562 
L 310.431744 230.062604 
L 310.94784 231.053896 
L 311.528448 232.01467 
L 311.851008 232.844118 
L 312.173568 233.319362 
L 312.39936 233.689339 
L 314.883072 238.08826 
L 315.46368 238.629682 
L 315.78624 238.419148 
L 317.657088 235.686324 
L 318.108672 235.175762 
L 318.85056 234.015084 
L 318.882816 234.0384 
L 319.01184 234.003083 
L 320.753664 232.347615 
L 321.043968 231.819566 
L 321.398784 231.543541 
L 321.495552 231.543884 
L 321.91488 231.270258 
L 322.753536 230.666431 
L 323.334144 230.075634 
L 324.205056 229.040795 
L 324.301824 228.992448 
L 324.624384 228.874494 
L 324.914688 228.747968 
L 326.10816 227.740218 
L 326.462976 227.083243 
L 326.785536 226.711894 
L 327.23712 226.535306 
L 327.430656 226.526391 
L 327.817728 226.291169 
L 329.753088 224.606556 
L 329.946624 224.454657 
L 331.623936 223.33101 
L 335.720448 219.704789 
L 337.8816 216.610354 
L 338.20416 216.114571 
L 338.591232 215.599655 
L 342.494208 210.657838 
L 344.107008 209.295883 
L 344.913408 209.042488 
L 345.590784 209.06169 
L 346.300416 209.221133 
L 347.268096 209.843476 
L 347.848704 210.329007 
L 347.88096 210.261115 
L 351.042048 198.402647 
L 352.106496 195.540896 
L 353.009664 193.815823 
L 353.912832 192.511816 
L 354.106368 192.103093 
L 354.525696 190.613241 
L 355.815936 185.842971 
L 356.686848 183.555559 
L 357.428736 182.094853 
L 358.20288 181.052471 
L 360.686592 178.532237 
L 362.202624 176.420042 
L 364.33152 173.224318 
L 365.13792 172.017349 
L 366.1056 170.587503 
L 367.266816 168.934778 
L 368.815104 166.781436 
L 371.58912 163.133099 
L 372.39552 162.118148 
L 375.040512 158.603537 
L 375.169536 158.949855 
L 375.911424 161.226637 
L 376.298496 161.52495 
L 376.717824 161.46323 
L 377.040384 161.171774 
L 377.55648 160.338555 
L 378.653184 157.496006 
L 379.588608 155.229511 
L 379.943424 154.718606 
L 380.362752 154.660315 
L 381.201408 154.550591 
L 381.943296 154.427151 
L 384.201216 154.536875 
L 387.201024 155.287802 
L 389.104128 155.778133 
L 389.97504 155.980437 
L 400.29696 159.381895 
L 401.071104 159.752215 
L 402.038784 160.177397 
L 413.296128 164.844114 
L 414.134784 165.13557 
L 415.360512 165.581325 
L 416.037888 164.682956 
L 416.328192 164.586948 
L 416.74752 164.689814 
L 417.424896 165.097852 
L 417.973248 165.512747 
L 419.65056 166.623707 
L 420.650496 167.131183 
L 421.134336 167.340345 
L 422.102016 167.734667 
L 427.908096 169.469685 
L 428.649984 169.654845 
L 429.32736 169.82286 
L 441.649152 172.332807 
L 442.036224 172.397956 
L 443.778048 172.69284 
L 444.455424 172.795707 
L 445.165056 172.902002 
L 447.035904 173.1866 
L 450.7776 173.694076 
L 451.971072 173.838089 
L 452.906496 173.944384 
L 454.196736 174.105542 
L 455.745024 174.345564 
L 456.26112 175.096491 
L 456.841728 175.453095 
L 457.841664 175.559391 
L 459.293184 175.137638 
L 459.906048 174.993624 
L 460.809216 174.911331 
L 461.776896 174.907902 
L 462.518784 174.938762 
L 464.16384 175.048487 
L 465.067008 175.127351 
L 465.712128 175.168498 
L 467.06688 175.278222 
L 467.582976 175.333084 
L 469.260288 175.442809 
L 470.034432 175.497671 
L 471.58272 175.607395 
L 474.518016 175.8097 
L 475.163136 175.847418 
L 477.517824 175.988002 
L 479.678976 176.097727 
L 481.614336 176.197164 
L 482.259456 176.234882 
L 484.291584 176.341178 
L 485.033472 176.368609 
L 486.807552 176.450902 
L 487.54944 176.481762 
L 490.033152 176.591486 
L 491.74272 176.663493 
L 494.581248 176.773218 
L 496.000512 176.817793 
L 496.806912 176.042864 
L 497.484288 175.864562 
L 498.774528 176.111442 
L 499.613184 176.348035 
L 502.322688 176.810935 
L 505.516032 177.040671 
L 509.064192 177.146966 
L 509.6448 177.160682 
L 514.902528 177.270406 
L 516.225024 177.301266 
L 524.837376 177.410991 
L 526.030848 177.428135 
L 536.385024 177.507 
L 536.997888 178.168775 
L 537.352704 178.34022 
L 538.094592 178.467089 
L 539.80416 178.360793 
L 542.578176 177.884177 
L 545.803776 177.651013 
L 548.287488 177.541289 
L 549.609984 177.510429 
L 576.705024 177.438422 
L 577.22112 176.865798 
L 577.640448 176.649778 
L 578.285568 176.495478 
L 579.124224 176.605202 
L 582.446592 177.1984 
L 585.4464 177.407562 
L 617.025024 177.513857 
L 617.637888 178.172204 
L 618.02496 178.357364 
L 618.637824 178.497949 
L 620.992512 178.388224 
L 622.70208 178.096769 
L 624.024576 177.928753 
L 628.540416 177.558433 
L 657.312768 177.479569 
L 657.86112 176.85894 
L 658.409472 176.5812 
L 660.344832 176.690924 
L 663.602688 177.270406 
L 665.699328 177.38356 
L 697.632768 177.479569 
L 698.568192 178.323075 
L 699.503616 178.504806 
L 701.600256 178.395082 
L 703.922688 178.014475 
L 709.30944 177.551575 
L 737.952768 177.479569 
L 738.50112 176.85894 
L 739.049472 176.5812 
L 740.984832 176.690924 
L 744.242688 177.270406 
L 746.339328 177.38356 
L 778.272768 177.479569 
L 779.208192 178.323075 
L 780.143616 178.504806 
L 782.240256 178.395082 
L 784.562688 178.014475 
L 789.94944 177.551575 
L 818.592768 177.479569 
L 819.14112 176.85894 
L 819.689472 176.5812 
L 821.624832 176.690924 
L 824.882688 177.270406 
L 826.979328 177.38356 
L 858.912768 177.479569 
L 859.848192 178.323075 
L 860.783616 178.504806 
L 862.880256 178.395082 
L 865.202688 178.014475 
L 870.58944 177.551575 
L 899.232768 177.479569 
L 899.78112 176.85894 
L 900.329472 176.5812 
L 902.264832 176.690924 
L 905.522688 177.270406 
L 907.619328 177.38356 
L 939.552768 177.479569 
L 940.617216 178.353935 
L 941.55264 178.542524 
L 943.455744 178.4328 
L 944.810496 178.179062 
L 947.03616 177.819029 
L 947.52 177.743593 
L 947.52 177.743593 
" clip-path="url(#p4ca48bcea8)" style="fill: none; stroke: #008000; stroke-width: 2; stroke-linecap: square"/>
   </g>
   <g id="patch_10">
    <path d="M 100.8 242.888276 
L 100.8 150.157241 
" style="fill: none; stroke: #bcbcbc; stroke-width: 0.8; stroke-linejoin: miter; stroke-linecap: square"/>
   </g>
   <g id="patch_11">
    <path d="M 987.84 242.888276 
L 987.84 150.157241 
" style="fill: none; stroke: #bcbcbc; stroke-width: 0.8; stroke-linejoin: miter; stroke-linecap: square"/>
   </g>
   <g id="patch_12">
    <path d="M 100.8 242.888276 
L 987.84 242.888276 
" style="fill: none; stroke: #bcbcbc; stroke-width: 0.8; stroke-linejoin: miter; stroke-linecap: square"/>
   </g>
   <g id="patch_13">
    <path d="M 100.8 150.157241 
L 987.84 150.157241 
" style="fill: none; stroke: #bcbcbc; stroke-width: 0.8; stroke-linejoin: miter; stroke-linecap: square"/>
   </g>
  </g>
  <g id="axes_3">
   <g id="patch_14">
    <path d="M 100.8 354.165517 
L 987.84 354.165517 
L 987.84 261.434483 
L 100.8 261.434483 
z
" style="fill: #eeeeee"/>
   </g>
   <g id="matplotlib.axis_5">
    <g id="xtick_13">
     <g id="line2d_37">
      <path d="M 141.12 354.165517 
L 141.12 261.434483 
" clip-path="url(#p71275a5dc4)" style="fill: none; stroke-dasharray: 1.85,0.8; stroke-dashoffset: 0; stroke: #b2b2b2; stroke-width: 0.5"/>
     </g>
     <g id="line2d_38">
      <g>
       <use xlink:href="#m8c6a0653da" x="141.12" y="354.165517" style="stroke: #000000; stroke-width: 0.8"/>
      </g>
     </g>
    </g>
    <g id="xtick_14">
     <g id="line2d_39">
      <path d="M 302.4 354.165517 
L 302.4 261.434483 
" clip-path="url(#p71275a5dc4)" style="fill: none; stroke-dasharray: 1.85,0.8; stroke-dashoffset: 0; stroke: #b2b2b2; stroke-width: 0.5"/>
     </g>
     <g id="line2d_40">
      <g>
       <use xlink:href="#m8c6a0653da" x="302.4" y="354.165517" style="stroke: #000000; stroke-width: 0.8"/>
      </g>
     </g>
    </g>
    <g id="xtick_15">
     <g id="line2d_41">
      <path d="M 463.68 354.165517 
L 463.68 261.434483 
" clip-path="url(#p71275a5dc4)" style="fill: none; stroke-dasharray: 1.85,0.8; stroke-dashoffset: 0; stroke: #b2b2b2; stroke-width: 0.5"/>
     </g>
     <g id="line2d_42">
      <g>
       <use xlink:href="#m8c6a0653da" x="463.68" y="354.165517" style="stroke: #000000; stroke-width: 0.8"/>
      </g>
     </g>
    </g>
    <g id="xtick_16">
     <g id="line2d_43">
      <path d="M 624.96 354.165517 
L 624.96 261.434483 
" clip-path="url(#p71275a5dc4)" style="fill: none; stroke-dasharray: 1.85,0.8; stroke-dashoffset: 0; stroke: #b2b2b2; stroke-width: 0.5"/>
     </g>
     <g id="line2d_44">
      <g>
       <use xlink:href="#m8c6a0653da" x="624.96" y="354.165517" style="stroke: #000000; stroke-width: 0.8"/>
      </g>
     </g>
    </g>
    <g id="xtick_17">
     <g id="line2d_45">
      <path d="M 786.24 354.165517 
L 786.24 261.434483 
" clip-path="url(#p71275a5dc4)" style="fill: none; stroke-dasharray: 1.85,0.8; stroke-dashoffset: 0; stroke: #b2b2b2; stroke-width: 0.5"/>
     </g>
     <g id="line2d_46">
      <g>
       <use xlink:href="#m8c6a0653da" x="786.24" y="354.165517" style="stroke: #000000; stroke-width: 0.8"/>
      </g>
     </g>
    </g>
    <g id="xtick_18">
     <g id="line2d_47">
      <path d="M 947.52 354.165517 
L 947.52 261.434483 
" clip-path="url(#p71275a5dc4)" style="fill: none; stroke-dasharray: 1.85,0.8; stroke-dashoffset: 0; stroke: #b2b2b2; stroke-width: 0.5"/>
     </g>
     <g id="line2d_48">
      <g>
       <use xlink:href="#m8c6a0653da" x="947.52" y="354.165517" style="stroke: #000000; stroke-width: 0.8"/>
      </g>
     </g>
    </g>
   </g>
   <g id="matplotlib.axis_6">
    <g id="ytick_6">
     <g id="line2d_49">
      <path d="M 100.8 344.257618 
L 987.84 344.257618 
" clip-path="url(#p71275a5dc4)" style="fill: none; stroke-dasharray: 1.85,0.8; stroke-dashoffset: 0; stroke: #b2b2b2; stroke-width: 0.5"/>
     </g>
     <g id="line2d_50">
      <g>
       <use xlink:href="#mf0a18b4fd6" x="100.8" y="344.257618" style="stroke: #000000; stroke-width: 0.8"/>
      </g>
     </g>
     <g id="text_8">
      <!-- 0 V -->
      <g transform="translate(74.36625 349.576524) scale(0.14 -0.14)">
       <use xlink:href="#DejaVuSans-30"/>
       <use xlink:href="#DejaVuSans-20" x="63.623047"/>
       <use xlink:href="#DejaVuSans-56" x="95.410156"/>
      </g>
     </g>
    </g>
    <g id="ytick_7">
     <g id="line2d_51">
      <path d="M 100.8 299.325873 
L 987.84 299.325873 
" clip-path="url(#p71275a5dc4)" style="fill: none; stroke-dasharray: 1.85,0.8; stroke-dashoffset: 0; stroke: #b2b2b2; stroke-width: 0.5"/>
     </g>
     <g id="line2d_52">
      <g>
       <use xlink:href="#mf0a18b4fd6" x="100.8" y="299.325873" style="stroke: #000000; stroke-width: 0.8"/>
      </g>
     </g>
     <g id="text_9">
      <!-- 1 V -->
      <g transform="translate(74.36625 304.644779) scale(0.14 -0.14)">
       <use xlink:href="#DejaVuSans-31"/>
       <use xlink:href="#DejaVuSans-20" x="63.623047"/>
       <use xlink:href="#DejaVuSans-56" x="95.410156"/>
      </g>
     </g>
    </g>
    <g id="text_10">
     <g id="patch_15">
      <path d="M 34.8768 342.395313 
L 34.8768 273.204688 
L 11.247425 273.204688 
L 11.247425 342.395313 
z
" style="fill: #ffff00; opacity: 0.2; stroke: #eeeeee; stroke-width: 0.5; stroke-linejoin: miter"/>
     </g>
     <!-- CLK BUF -->
     <g transform="translate(26.925238 337.355313) rotate(-90) scale(0.14 -0.14)">
      <defs>
       <path id="DejaVuSans-43" d="M 4122 4306 
L 4122 3641 
Q 3803 3938 3442 4084 
Q 3081 4231 2675 4231 
Q 1875 4231 1450 3742 
Q 1025 3253 1025 2328 
Q 1025 1406 1450 917 
Q 1875 428 2675 428 
Q 3081 428 3442 575 
Q 3803 722 4122 1019 
L 4122 359 
Q 3791 134 3420 21 
Q 3050 -91 2638 -91 
Q 1578 -91 968 557 
Q 359 1206 359 2328 
Q 359 3453 968 4101 
Q 1578 4750 2638 4750 
Q 3056 4750 3426 4639 
Q 3797 4528 4122 4306 
z
" transform="scale(0.015625)"/>
       <path id="DejaVuSans-4b" d="M 628 4666 
L 1259 4666 
L 1259 2694 
L 3353 4666 
L 4166 4666 
L 1850 2491 
L 4331 0 
L 3500 0 
L 1259 2247 
L 1259 0 
L 628 0 
L 628 4666 
z
" transform="scale(0.015625)"/>
      </defs>
      <use xlink:href="#DejaVuSans-43"/>
      <use xlink:href="#DejaVuSans-4c" x="69.824219"/>
      <use xlink:href="#DejaVuSans-4b" x="125.537109"/>
      <use xlink:href="#DejaVuSans-20" x="191.113281"/>
      <use xlink:href="#DejaVuSans-42" x="222.900391"/>
      <use xlink:href="#DejaVuSans-55" x="291.503906"/>
      <use xlink:href="#DejaVuSans-46" x="364.697266"/>
     </g>
    </g>
   </g>
   <g id="line2d_53">
    <path d="M 141.12 344.25643 
L 173.376 344.25643 
L 173.601792 290.339524 
L 213.696 290.339524 
L 213.760512 333.347741 
L 213.825024 344.237091 
L 213.889536 344.172432 
L 213.954048 344.35193 
L 214.01856 344.262487 
L 215.3088 344.253508 
L 223.082496 344.256427 
L 254.016 344.256399 
L 254.17728 290.173276 
L 254.241792 290.46084 
L 254.403072 290.330537 
L 254.8224 290.339524 
L 289.562112 290.411415 
L 291.207168 292.882661 
L 294.336 298.602472 
L 294.368256 299.258475 
L 294.465024 345.86568 
L 294.49728 345.793745 
L 294.65856 345.838452 
L 297.174528 345.777839 
L 307.657728 345.546216 
L 308.8512 345.914386 
L 309.399552 346.234211 
L 312.334848 348.081939 
L 312.496128 348.176745 
L 313.108992 348.58477 
L 315.431424 349.882623 
L 316.334592 349.421174 
L 317.23776 349.045994 
L 317.463552 348.935911 
L 317.495808 348.986684 
L 317.56032 348.925128 
L 318.011904 348.758431 
L 318.721536 348.489784 
L 319.398912 348.234572 
L 319.592448 348.170634 
L 319.81824 348.103102 
L 324.624384 346.520246 
L 329.269248 345.235018 
L 329.624064 345.168385 
L 329.849856 345.106738 
L 330.559488 344.953611 
L 333.817344 344.33615 
L 334.656 344.207676 
L 334.688256 345.235827 
L 334.849536 319.098537 
L 335.010816 318.781319 
L 337.55904 317.201069 
L 345.106944 312.183092 
L 348.52608 310.17015 
L 352.816128 307.906039 
L 354.074112 307.183536 
L 355.46112 304.465615 
L 357.525504 299.776988 
L 361.718784 290.294592 
L 362.39616 288.843297 
L 364.17024 285.158894 
L 369.621504 274.766181 
L 370.62144 273.031816 
L 372.363264 270.097773 
L 373.20192 268.745327 
L 374.395392 266.656001 
L 374.943744 265.707941 
L 374.976 265.64953 
L 375.040512 343.380685 
L 375.169536 342.744901 
L 375.556608 342.749125 
L 379.749888 342.871833 
L 380.072448 343.216729 
L 380.717568 343.790283 
L 381.556224 344.209977 
L 382.588416 344.466083 
L 384.201216 344.618815 
L 391.233024 344.656181 
L 400.425984 344.731064 
L 403.36128 344.772895 
L 408.941568 344.712732 
L 415.296 344.641776 
L 415.425024 274.060752 
L 415.554048 274.343822 
L 416.489472 274.739222 
L 425.488896 278.392173 
L 425.746944 278.495516 
L 427.488768 279.111081 
L 427.779072 279.214424 
L 428.875776 279.560398 
L 429.133824 279.663741 
L 430.13376 279.964784 
L 430.391808 280.063634 
L 430.843392 280.189443 
L 441.068544 282.930279 
L 441.520128 283.029129 
L 441.939456 283.136965 
L 442.584576 283.289733 
L 443.068416 283.388583 
L 443.423232 283.46946 
L 443.939328 283.56831 
L 444.358656 283.676146 
L 444.874752 283.779489 
L 446.58432 284.125463 
L 447.100416 284.228806 
L 449.48736 284.660151 
L 449.80992 284.723056 
L 453.164544 285.289196 
L 453.487104 285.3521 
L 455.616 285.666622 
L 455.648256 294.104804 
L 455.712768 345.303494 
L 455.77728 344.252717 
L 455.809536 344.774872 
L 455.874048 344.397149 
L 456.003072 344.384681 
L 458.0352 344.375434 
L 462.292992 344.361765 
L 466.486272 344.34789 
L 495.936 344.292381 
L 496.065024 288.699515 
L 496.161792 289.040996 
L 496.645632 289.081435 
L 499.871232 289.184778 
L 500.226048 289.21623 
L 503.83872 289.319573 
L 504.193536 289.351025 
L 508.290048 289.454368 
L 508.644864 289.485821 
L 513.51552 289.589164 
L 513.870336 289.620616 
L 519.80544 289.723959 
L 520.160256 289.755411 
L 527.740416 289.858754 
L 528.095232 289.890206 
L 536.256 289.890206 
L 536.385024 344.600811 
L 536.546304 344.339488 
L 536.804352 344.239266 
L 537.159168 344.288177 
L 537.481728 344.269062 
L 573.801984 344.269295 
L 576.576 344.269298 
L 576.705024 289.705986 
L 576.769536 289.8947 
L 576.89856 289.890206 
L 616.896 289.890206 
L 617.025024 344.600703 
L 617.186304 344.339448 
L 617.444352 344.239285 
L 617.799168 344.288165 
L 618.121728 344.269062 
L 654.441984 344.269295 
L 657.216 344.269298 
L 657.37728 289.656561 
L 657.441792 290.16429 
L 657.53856 289.705986 
L 657.603072 289.872234 
L 658.054656 289.890206 
L 697.536 289.890206 
L 697.665024 344.600897 
L 697.826304 344.339398 
L 698.084352 344.239295 
L 698.439168 344.288178 
L 698.761728 344.269063 
L 735.081984 344.269295 
L 737.856 344.269298 
L 738.01728 289.656561 
L 738.081792 290.16429 
L 738.17856 289.701493 
L 738.243072 289.872234 
L 738.694656 289.890206 
L 778.176 289.890206 
L 778.305024 344.600717 
L 778.466304 344.339443 
L 778.724352 344.239286 
L 779.079168 344.288164 
L 779.401728 344.269062 
L 815.883264 344.269295 
L 818.496 344.269298 
L 818.65728 289.656561 
L 818.721792 290.16429 
L 818.81856 289.701493 
L 818.883072 289.872234 
L 819.334656 289.890206 
L 858.816 289.890206 
L 858.945024 344.600897 
L 859.106304 344.339398 
L 859.364352 344.239295 
L 859.719168 344.288177 
L 860.041728 344.269063 
L 896.361984 344.269295 
L 899.136 344.269298 
L 899.29728 289.656561 
L 899.361792 290.16429 
L 899.45856 289.701493 
L 899.523072 289.872234 
L 899.974656 289.890206 
L 939.456 289.890206 
L 939.488256 297.9914 
L 939.61728 344.21586 
L 939.649536 344.346516 
L 939.714048 344.22151 
L 939.746304 344.182083 
L 939.810816 344.240075 
L 940.004352 344.296187 
L 940.197888 344.268553 
L 945.391104 344.269304 
L 947.52 344.269287 
L 947.52 344.269287 
" clip-path="url(#p71275a5dc4)" style="fill: none; stroke: #0000ff; stroke-width: 2; stroke-linecap: square"/>
   </g>
   <g id="patch_16">
    <path d="M 100.8 354.165517 
L 100.8 261.434483 
" style="fill: none; stroke: #bcbcbc; stroke-width: 0.8; stroke-linejoin: miter; stroke-linecap: square"/>
   </g>
   <g id="patch_17">
    <path d="M 987.84 354.165517 
L 987.84 261.434483 
" style="fill: none; stroke: #bcbcbc; stroke-width: 0.8; stroke-linejoin: miter; stroke-linecap: square"/>
   </g>
   <g id="patch_18">
    <path d="M 100.8 354.165517 
L 987.84 354.165517 
" style="fill: none; stroke: #bcbcbc; stroke-width: 0.8; stroke-linejoin: miter; stroke-linecap: square"/>
   </g>
   <g id="patch_19">
    <path d="M 100.8 261.434483 
L 987.84 261.434483 
" style="fill: none; stroke: #bcbcbc; stroke-width: 0.8; stroke-linejoin: miter; stroke-linecap: square"/>
   </g>
  </g>
  <g id="axes_4">
   <g id="patch_20">
    <path d="M 100.8 465.442759 
L 987.84 465.442759 
L 987.84 372.711724 
L 100.8 372.711724 
z
" style="fill: #eeeeee"/>
   </g>
   <g id="matplotlib.axis_7">
    <g id="xtick_19">
     <g id="line2d_54">
      <path d="M 141.12 465.442759 
L 141.12 372.711724 
" clip-path="url(#p495d309a1d)" style="fill: none; stroke-dasharray: 1.85,0.8; stroke-dashoffset: 0; stroke: #b2b2b2; stroke-width: 0.5"/>
     </g>
     <g id="line2d_55">
      <g>
       <use xlink:href="#m8c6a0653da" x="141.12" y="465.442759" style="stroke: #000000; stroke-width: 0.8"/>
      </g>
     </g>
    </g>
    <g id="xtick_20">
     <g id="line2d_56">
      <path d="M 302.4 465.442759 
L 302.4 372.711724 
" clip-path="url(#p495d309a1d)" style="fill: none; stroke-dasharray: 1.85,0.8; stroke-dashoffset: 0; stroke: #b2b2b2; stroke-width: 0.5"/>
     </g>
     <g id="line2d_57">
      <g>
       <use xlink:href="#m8c6a0653da" x="302.4" y="465.442759" style="stroke: #000000; stroke-width: 0.8"/>
      </g>
     </g>
    </g>
    <g id="xtick_21">
     <g id="line2d_58">
      <path d="M 463.68 465.442759 
L 463.68 372.711724 
" clip-path="url(#p495d309a1d)" style="fill: none; stroke-dasharray: 1.85,0.8; stroke-dashoffset: 0; stroke: #b2b2b2; stroke-width: 0.5"/>
     </g>
     <g id="line2d_59">
      <g>
       <use xlink:href="#m8c6a0653da" x="463.68" y="465.442759" style="stroke: #000000; stroke-width: 0.8"/>
      </g>
     </g>
    </g>
    <g id="xtick_22">
     <g id="line2d_60">
      <path d="M 624.96 465.442759 
L 624.96 372.711724 
" clip-path="url(#p495d309a1d)" style="fill: none; stroke-dasharray: 1.85,0.8; stroke-dashoffset: 0; stroke: #b2b2b2; stroke-width: 0.5"/>
     </g>
     <g id="line2d_61">
      <g>
       <use xlink:href="#m8c6a0653da" x="624.96" y="465.442759" style="stroke: #000000; stroke-width: 0.8"/>
      </g>
     </g>
    </g>
    <g id="xtick_23">
     <g id="line2d_62">
      <path d="M 786.24 465.442759 
L 786.24 372.711724 
" clip-path="url(#p495d309a1d)" style="fill: none; stroke-dasharray: 1.85,0.8; stroke-dashoffset: 0; stroke: #b2b2b2; stroke-width: 0.5"/>
     </g>
     <g id="line2d_63">
      <g>
       <use xlink:href="#m8c6a0653da" x="786.24" y="465.442759" style="stroke: #000000; stroke-width: 0.8"/>
      </g>
     </g>
    </g>
    <g id="xtick_24">
     <g id="line2d_64">
      <path d="M 947.52 465.442759 
L 947.52 372.711724 
" clip-path="url(#p495d309a1d)" style="fill: none; stroke-dasharray: 1.85,0.8; stroke-dashoffset: 0; stroke: #b2b2b2; stroke-width: 0.5"/>
     </g>
     <g id="line2d_65">
      <g>
       <use xlink:href="#m8c6a0653da" x="947.52" y="465.442759" style="stroke: #000000; stroke-width: 0.8"/>
      </g>
     </g>
    </g>
   </g>
   <g id="matplotlib.axis_8">
    <g id="ytick_8">
     <g id="line2d_66">
      <path d="M 100.8 438.539008 
L 987.84 438.539008 
" clip-path="url(#p495d309a1d)" style="fill: none; stroke-dasharray: 1.85,0.8; stroke-dashoffset: 0; stroke: #b2b2b2; stroke-width: 0.5"/>
     </g>
     <g id="line2d_67">
      <g>
       <use xlink:href="#mf0a18b4fd6" x="100.8" y="438.539008" style="stroke: #000000; stroke-width: 0.8"/>
      </g>
     </g>
     <g id="text_11">
      <!-- 0 V -->
      <g transform="translate(74.36625 443.857914) scale(0.14 -0.14)">
       <use xlink:href="#DejaVuSans-30"/>
       <use xlink:href="#DejaVuSans-20" x="63.623047"/>
       <use xlink:href="#DejaVuSans-56" x="95.410156"/>
      </g>
     </g>
    </g>
    <g id="ytick_9">
     <g id="line2d_68">
      <path d="M 100.8 398.722388 
L 987.84 398.722388 
" clip-path="url(#p495d309a1d)" style="fill: none; stroke-dasharray: 1.85,0.8; stroke-dashoffset: 0; stroke: #b2b2b2; stroke-width: 0.5"/>
     </g>
     <g id="line2d_69">
      <g>
       <use xlink:href="#mf0a18b4fd6" x="100.8" y="398.722388" style="stroke: #000000; stroke-width: 0.8"/>
      </g>
     </g>
     <g id="text_12">
      <!-- 1 V -->
      <g transform="translate(74.36625 404.041295) scale(0.14 -0.14)">
       <use xlink:href="#DejaVuSans-31"/>
       <use xlink:href="#DejaVuSans-20" x="63.623047"/>
       <use xlink:href="#DejaVuSans-56" x="95.410156"/>
      </g>
     </g>
    </g>
    <g id="text_13">
     <g id="patch_21">
      <path d="M 34.8768 454.693023 
L 34.8768 383.46146 
L 11.247425 383.46146 
L 11.247425 454.693023 
z
" style="fill: #ffff00; opacity: 0.2; stroke: #eeeeee; stroke-width: 0.5; stroke-linejoin: miter"/>
     </g>
     <!-- DFF OUT -->
     <g transform="translate(26.925238 449.653023) rotate(-90) scale(0.14 -0.14)">
      <defs>
       <path id="DejaVuSans-4f" d="M 2522 4238 
Q 1834 4238 1429 3725 
Q 1025 3213 1025 2328 
Q 1025 1447 1429 934 
Q 1834 422 2522 422 
Q 3209 422 3611 934 
Q 4013 1447 4013 2328 
Q 4013 3213 3611 3725 
Q 3209 4238 2522 4238 
z
M 2522 4750 
Q 3503 4750 4090 4092 
Q 4678 3434 4678 2328 
Q 4678 1225 4090 567 
Q 3503 -91 2522 -91 
Q 1538 -91 948 565 
Q 359 1222 359 2328 
Q 359 3434 948 4092 
Q 1538 4750 2522 4750 
z
" transform="scale(0.015625)"/>
       <path id="DejaVuSans-54" d="M -19 4666 
L 3928 4666 
L 3928 4134 
L 2272 4134 
L 2272 0 
L 1638 0 
L 1638 4134 
L -19 4134 
L -19 4666 
z
" transform="scale(0.015625)"/>
      </defs>
      <use xlink:href="#DejaVuSans-44"/>
      <use xlink:href="#DejaVuSans-46" x="77.001953"/>
      <use xlink:href="#DejaVuSans-46" x="134.521484"/>
      <use xlink:href="#DejaVuSans-20" x="192.041016"/>
      <use xlink:href="#DejaVuSans-4f" x="223.828125"/>
      <use xlink:href="#DejaVuSans-55" x="302.539062"/>
      <use xlink:href="#DejaVuSans-54" x="375.732422"/>
     </g>
    </g>
   </g>
   <g id="line2d_70">
    <path d="M 141.12 408.496174 
L 173.408256 408.54475 
L 173.440512 410.193158 
L 173.601792 438.541438 
L 174.117888 438.536813 
L 184.34304 438.537956 
L 254.048256 438.539614 
L 254.080512 438.698784 
L 254.112768 438.435496 
L 254.306304 434.548188 
L 254.596608 433.768977 
L 254.693376 433.213137 
L 255.14496 426.237265 
L 255.370752 409.841577 
L 255.596544 391.145286 
L 255.757824 390.81879 
L 255.983616 390.755083 
L 256.91904 390.759065 
L 289.594368 390.858606 
L 291.207168 393.016667 
L 292.916736 395.752069 
L 296.303616 401.328784 
L 296.497152 401.993324 
L 297.626112 403.694688 
L 297.980928 404.571052 
L 298.658304 406.698852 
L 298.884096 407.821282 
L 300.529152 415.031276 
L 301.142016 417.880553 
L 301.206528 417.780215 
L 301.27104 417.876173 
L 301.303296 417.935898 
L 301.496832 419.587491 
L 302.88384 426.670072 
L 303.238656 428.742527 
L 303.303168 428.658514 
L 303.883776 431.23863 
L 303.948288 431.379183 
L 304.238592 432.764801 
L 305.819136 438.975637 
L 306.206208 440.273181 
L 306.238464 440.102208 
L 306.302976 440.325301 
L 306.335232 440.317576 
L 306.464256 441.221413 
L 306.496512 441.045583 
L 306.657792 442.142969 
L 307.109376 443.466712 
L 307.141632 443.164106 
L 307.206144 443.216664 
L 307.335168 444.057591 
L 307.39968 443.693269 
L 307.431936 443.918631 
L 307.56096 444.221635 
L 307.593216 444.27499 
L 307.786752 445.158919 
L 308.012544 445.638311 
L 308.302848 446.085053 
L 308.431872 446.240736 
L 308.8512 447.032291 
L 309.01248 447.794381 
L 311.141376 452.54092 
L 311.43168 453.281509 
L 311.625216 453.871193 
L 312.850944 456.471616 
L 315.270144 461.227712 
L 315.366912 461.165996 
L 315.657216 460.955764 
L 315.818496 460.614536 
L 315.850752 460.66789 
L 315.94752 460.493095 
L 315.979776 460.408684 
L 316.012032 459.582887 
L 316.076544 460.192878 
L 316.1088 460.148681 
L 316.141056 459.659335 
L 316.237824 459.801082 
L 316.463616 459.467419 
L 316.624896 459.017889 
L 316.657152 459.047354 
L 316.850688 458.604593 
L 317.270016 457.964341 
L 317.302272 457.989028 
L 317.334528 457.91696 
L 317.463552 457.678458 
L 317.495808 457.720664 
L 317.786112 457.171593 
L 318.398976 456.224753 
L 319.01184 455.540306 
L 319.044096 455.647412 
L 319.076352 455.579326 
L 319.237632 455.293443 
L 319.366656 455.236107 
L 319.560192 455.025079 
L 319.947264 454.426237 
L 320.076288 454.23233 
L 320.108544 454.391596 
L 320.1408 454.143539 
L 320.366592 453.864822 
L 320.398848 454.063109 
L 320.495616 453.720288 
L 320.527872 453.784393 
L 320.560128 453.894685 
L 320.592384 453.641053 
L 320.62464 453.759707 
L 320.78592 453.366716 
L 321.366528 452.777829 
L 321.398784 452.978106 
L 321.463296 452.704168 
L 321.495552 452.734827 
L 321.527808 452.666342 
L 321.59232 452.719696 
L 321.785856 452.444564 
L 322.205184 452.119262 
L 322.56 451.546699 
L 322.785792 451.250065 
L 322.818048 451.458306 
L 322.850304 451.384645 
L 322.979328 451.010767 
L 323.011584 451.260019 
L 323.04384 451.130615 
L 323.172864 450.749172 
L 323.20512 451.054565 
L 323.269632 450.632111 
L 323.301888 450.638084 
L 323.334144 450.932328 
L 323.398656 450.576368 
L 323.430912 450.683475 
L 323.463168 450.454131 
L 323.721216 450.228769 
L 324.1728 449.856483 
L 324.205056 450.038843 
L 324.269568 449.784415 
L 325.237248 449.00401 
L 325.592064 448.326729 
L 325.62432 448.450957 
L 325.656576 448.540146 
L 325.753344 448.099376 
L 325.7856 448.132424 
L 325.817856 448.025715 
L 325.850112 448.353406 
L 325.882368 448.010187 
L 325.914624 448.300052 
L 325.979136 447.808715 
L 326.011392 447.821456 
L 326.043648 448.173435 
L 326.10816 448.00302 
L 326.204928 447.631929 
L 326.237184 447.789204 
L 326.366208 447.481024 
L 327.043584 446.992872 
L 327.55968 446.681904 
L 328.430592 445.829829 
L 328.495104 445.779262 
L 328.624128 445.21506 
L 328.817664 445.037876 
L 328.84992 445.424894 
L 328.914432 445.36716 
L 329.140224 444.734075 
L 329.236992 444.785041 
L 329.301504 444.609847 
L 329.398272 444.53539 
L 329.430528 444.907676 
L 329.462784 444.439034 
L 329.527296 444.820079 
L 329.65632 444.332724 
L 329.688576 444.338298 
L 329.720832 444.564058 
L 329.753088 444.26185 
L 329.8176 444.486018 
L 329.882112 444.23796 
L 329.946624 444.280564 
L 330.30144 444.122492 
L 330.720768 443.796792 
L 331.365888 443.184811 
L 331.59168 442.961838 
L 331.688448 442.394769 
L 331.720704 442.477468 
L 331.849728 442.219616 
L 331.881984 442.265604 
L 332.07552 441.994214 
L 332.2368 441.840721 
L 332.301312 442.2883 
L 332.365824 441.962281 
L 332.39808 441.9972 
L 332.462592 441.775979 
L 332.494848 441.925292 
L 332.527104 442.033394 
L 332.656128 441.491251 
L 332.688384 441.503554 
L 332.817408 441.723421 
L 332.946432 441.409587 
L 333.010944 441.577613 
L 333.139968 441.339868 
L 333.36576 441.2938 
L 334.720512 439.952418 
L 334.785024 439.376749 
L 334.881792 439.521483 
L 334.914048 439.666535 
L 335.010816 439.115552 
L 335.043072 439.213222 
L 335.075328 439.308623 
L 335.13984 438.956087 
L 335.172096 439.174282 
L 335.204352 439.167632 
L 335.333376 438.55622 
L 335.430144 438.829211 
L 335.559168 438.580839 
L 335.655936 438.463619 
L 336.784896 436.466194 
L 336.91392 435.853735 
L 336.946176 436.122816 
L 337.010688 435.944955 
L 337.107456 435.873564 
L 338.010624 434.191431 
L 338.075136 433.277639 
L 338.139648 433.946161 
L 338.171904 433.880463 
L 338.300928 433.203581 
L 338.333184 433.21234 
L 338.36544 433.493047 
L 338.429952 433.335772 
L 338.784768 432.660482 
L 338.881536 432.475733 
L 339.558912 431.105245 
L 339.591168 431.145061 
L 339.623424 430.515162 
L 339.720192 430.632223 
L 339.752448 430.857187 
L 339.81696 430.748488 
L 340.13952 430.091514 
L 340.171776 430.180703 
L 340.558848 429.318275 
L 340.720128 429.031197 
L 340.752384 429.142285 
L 340.78464 428.953156 
L 340.849152 428.991779 
L 341.074944 428.533887 
L 341.300736 428.226105 
L 341.816832 427.262145 
L 341.978112 426.742936 
L 342.171648 426.439533 
L 342.203904 426.670868 
L 342.268416 426.618708 
L 342.365184 426.214171 
L 342.39744 426.317694 
L 342.429696 426.382596 
L 342.494208 426.267924 
L 343.36512 424.704723 
L 343.461888 424.298992 
L 343.623168 423.668695 
L 343.655424 423.952985 
L 343.68768 423.499474 
L 343.719936 423.546856 
L 343.977984 423.050343 
L 344.107008 422.750125 
L 345.1392 420.207038 
L 345.171456 420.248049 
L 345.203712 420.185935 
L 345.30048 420.007955 
L 345.364992 419.294839 
L 345.429504 419.318331 
L 345.62304 419.347795 
L 345.719808 419.228744 
L 346.881024 417.136778 
L 346.977792 416.517232 
L 347.010048 416.557447 
L 347.139072 416.727065 
L 347.203584 416.631904 
L 347.622912 415.820839 
L 347.88096 415.378078 
L 347.913216 415.3952 
L 348.106752 415.040832 
L 348.171264 415.113298 
L 348.332544 414.746985 
L 348.397056 414.91302 
L 348.429312 414.840156 
L 348.461568 414.785607 
L 348.493824 414.924567 
L 348.655104 415.242304 
L 348.751872 416.034654 
L 348.880896 422.622712 
L 349.1712 437.898279 
L 349.784064 437.97839 
L 352.977408 438.116712 
L 354.074112 438.051254 
L 354.751488 437.464238 
L 355.557888 437.091514 
L 356.59008 436.871687 
L 358.170624 436.784488 
L 361.58976 436.869497 
L 374.685696 437.21192 
L 377.71776 437.258346 
L 379.878912 437.417254 
L 380.556288 438.034173 
L 381.362688 438.443619 
L 382.362624 438.701009 
L 384.072192 438.864381 
L 387.523584 438.911846 
L 415.328256 438.898675 
L 415.360512 439.220469 
L 415.650816 430.660095 
L 415.876608 428.836892 
L 416.037888 424.686009 
L 416.231424 409.638911 
L 416.553984 376.982514 
L 416.58624 376.926771 
L 416.650752 376.998441 
L 425.843712 380.291275 
L 426.166272 380.394799 
L 427.908096 380.928341 
L 428.295168 381.031865 
L 429.8112 381.485774 
L 430.230528 381.589297 
L 431.553024 381.963573 
L 431.972352 382.067097 
L 433.165824 382.397575 
L 434.101248 382.624529 
L 434.97216 382.839539 
L 435.359232 382.943062 
L 436.133376 383.118255 
L 436.617216 383.221779 
L 437.39136 383.396972 
L 437.778432 383.500495 
L 438.455808 383.635871 
L 438.84288 383.739395 
L 439.520256 383.874771 
L 440.004096 383.978294 
L 440.681472 384.113671 
L 441.165312 384.217194 
L 441.842688 384.352571 
L 442.326528 384.456094 
L 443.003904 384.59147 
L 443.584512 384.694994 
L 444.261888 384.83037 
L 444.842496 384.933893 
L 445.390848 385.029453 
L 445.906944 385.132976 
L 446.455296 385.228536 
L 447.06816 385.328078 
L 447.422976 385.387803 
L 448.03584 385.491326 
L 448.584192 385.586886 
L 449.197056 385.686427 
L 449.551872 385.746152 
L 450.261504 385.845694 
L 450.61632 385.905419 
L 451.325952 386.00496 
L 451.680768 386.064685 
L 452.3904 386.164227 
L 452.745216 386.223952 
L 453.454848 386.323493 
L 453.809664 386.383218 
L 454.616064 386.48276 
L 454.97088 386.542485 
L 455.712768 386.590265 
L 455.745024 386.67388 
L 455.841792 386.6261 
L 456.228864 386.701751 
L 457.132032 386.801293 
L 457.486848 386.861018 
L 458.390016 386.960559 
L 458.68032 386.980467 
L 459.454464 387.080009 
L 459.80928 387.139734 
L 460.809216 387.239276 
L 461.09952 387.259184 
L 461.873664 387.358725 
L 462.163968 387.378634 
L 463.03488 387.478175 
L 463.325184 387.498084 
L 464.196096 387.597625 
L 464.4864 387.617533 
L 465.357312 387.717075 
L 465.647616 387.736983 
L 466.615296 387.836525 
L 466.9056 387.856433 
L 467.970048 387.955975 
L 468.260352 387.975883 
L 469.3248 388.075425 
L 469.615104 388.095333 
L 470.77632 388.194874 
L 471.066624 388.214783 
L 472.22784 388.314324 
L 472.518144 388.334233 
L 473.872896 388.433774 
L 474.1632 388.453682 
L 475.517952 388.553224 
L 475.808256 388.573132 
L 477.259776 388.672674 
L 477.517824 388.6886 
L 479.098368 388.792124 
L 479.356416 388.80805 
L 481.033728 388.911574 
L 481.291776 388.9275 
L 483.162624 389.031023 
L 483.420672 389.04695 
L 485.388288 389.150473 
L 485.646336 389.1664 
L 487.807488 389.269923 
L 488.162304 389.289831 
L 490.420224 389.389373 
L 490.678272 389.4053 
L 493.323264 389.508823 
L 493.613568 389.528731 
L 495.968256 389.588456 
L 496.000512 389.843282 
L 496.065024 389.572529 
L 496.25856 389.600401 
L 498.742272 389.707906 
L 499.00032 389.723833 
L 502.516224 389.827356 
L 502.774272 389.843282 
L 506.774016 389.946806 
L 507.032064 389.962732 
L 511.709184 390.066255 
L 512.064 390.082182 
L 517.612032 390.185705 
L 517.966848 390.205614 
L 524.869632 390.305155 
L 525.224448 390.325063 
L 576.608256 390.356917 
L 576.640512 390.556 
L 576.705024 390.34099 
L 577.027584 390.352935 
L 657.248256 390.356917 
L 657.280512 390.559982 
L 657.345024 390.356917 
L 657.53856 390.337008 
L 658.635264 390.360898 
L 737.888256 390.356917 
L 737.920512 390.559982 
L 737.985024 390.356917 
L 738.17856 390.337008 
L 739.275264 390.360898 
L 818.528256 390.356917 
L 818.560512 390.559982 
L 818.625024 390.356917 
L 818.81856 390.337008 
L 819.915264 390.360898 
L 899.168256 390.356917 
L 899.200512 390.559982 
L 899.265024 390.356917 
L 899.45856 390.337008 
L 900.555264 390.360898 
L 947.52 390.360898 
L 947.52 390.360898 
" clip-path="url(#p495d309a1d)" style="fill: none; stroke: #ff00ff; stroke-width: 2; stroke-linecap: square"/>
   </g>
   <g id="patch_22">
    <path d="M 100.8 465.442759 
L 100.8 372.711724 
" style="fill: none; stroke: #bcbcbc; stroke-width: 0.8; stroke-linejoin: miter; stroke-linecap: square"/>
   </g>
   <g id="patch_23">
    <path d="M 987.84 465.442759 
L 987.84 372.711724 
" style="fill: none; stroke: #bcbcbc; stroke-width: 0.8; stroke-linejoin: miter; stroke-linecap: square"/>
   </g>
   <g id="patch_24">
    <path d="M 100.8 465.442759 
L 987.84 465.442759 
" style="fill: none; stroke: #bcbcbc; stroke-width: 0.8; stroke-linejoin: miter; stroke-linecap: square"/>
   </g>
   <g id="patch_25">
    <path d="M 100.8 372.711724 
L 987.84 372.711724 
" style="fill: none; stroke: #bcbcbc; stroke-width: 0.8; stroke-linejoin: miter; stroke-linecap: square"/>
   </g>
  </g>
  <g id="axes_5">
   <g id="patch_26">
    <path d="M 100.8 576.72 
L 987.84 576.72 
L 987.84 483.988966 
L 100.8 483.988966 
z
" style="fill: #eeeeee"/>
   </g>
   <g id="matplotlib.axis_9">
    <g id="xtick_25">
     <g id="line2d_71">
      <path d="M 141.12 576.72 
L 141.12 483.988966 
" clip-path="url(#p9b5cba9375)" style="fill: none; stroke-dasharray: 1.85,0.8; stroke-dashoffset: 0; stroke: #b2b2b2; stroke-width: 0.5"/>
     </g>
     <g id="line2d_72">
      <g>
       <use xlink:href="#m8c6a0653da" x="141.12" y="576.72" style="stroke: #000000; stroke-width: 0.8"/>
      </g>
     </g>
     <g id="text_14">
      <!-- 0 s -->
      <g transform="translate(130.795 590.857813) scale(0.14 -0.14)">
       <defs>
        <path id="DejaVuSans-73" d="M 2834 3397 
L 2834 2853 
Q 2591 2978 2328 3040 
Q 2066 3103 1784 3103 
Q 1356 3103 1142 2972 
Q 928 2841 928 2578 
Q 928 2378 1081 2264 
Q 1234 2150 1697 2047 
L 1894 2003 
Q 2506 1872 2764 1633 
Q 3022 1394 3022 966 
Q 3022 478 2636 193 
Q 2250 -91 1575 -91 
Q 1294 -91 989 -36 
Q 684 19 347 128 
L 347 722 
Q 666 556 975 473 
Q 1284 391 1588 391 
Q 1994 391 2212 530 
Q 2431 669 2431 922 
Q 2431 1156 2273 1281 
Q 2116 1406 1581 1522 
L 1381 1569 
Q 847 1681 609 1914 
Q 372 2147 372 2553 
Q 372 3047 722 3315 
Q 1072 3584 1716 3584 
Q 2034 3584 2315 3537 
Q 2597 3491 2834 3397 
z
" transform="scale(0.015625)"/>
       </defs>
       <use xlink:href="#DejaVuSans-30"/>
       <use xlink:href="#DejaVuSans-20" x="63.623047"/>
       <use xlink:href="#DejaVuSans-73" x="95.410156"/>
      </g>
     </g>
    </g>
    <g id="xtick_26">
     <g id="line2d_73">
      <path d="M 302.4 576.72 
L 302.4 483.988966 
" clip-path="url(#p9b5cba9375)" style="fill: none; stroke-dasharray: 1.85,0.8; stroke-dashoffset: 0; stroke: #b2b2b2; stroke-width: 0.5"/>
     </g>
     <g id="line2d_74">
      <g>
       <use xlink:href="#m8c6a0653da" x="302.4" y="576.72" style="stroke: #000000; stroke-width: 0.8"/>
      </g>
     </g>
     <g id="text_15">
      <!-- 50 ns -->
      <g transform="translate(283.185 590.857813) scale(0.14 -0.14)">
       <defs>
        <path id="DejaVuSans-35" d="M 691 4666 
L 3169 4666 
L 3169 4134 
L 1269 4134 
L 1269 2991 
Q 1406 3038 1543 3061 
Q 1681 3084 1819 3084 
Q 2600 3084 3056 2656 
Q 3513 2228 3513 1497 
Q 3513 744 3044 326 
Q 2575 -91 1722 -91 
Q 1428 -91 1123 -41 
Q 819 9 494 109 
L 494 744 
Q 775 591 1075 516 
Q 1375 441 1709 441 
Q 2250 441 2565 725 
Q 2881 1009 2881 1497 
Q 2881 1984 2565 2268 
Q 2250 2553 1709 2553 
Q 1456 2553 1204 2497 
Q 953 2441 691 2322 
L 691 4666 
z
" transform="scale(0.015625)"/>
        <path id="DejaVuSans-6e" d="M 3513 2113 
L 3513 0 
L 2938 0 
L 2938 2094 
Q 2938 2591 2744 2837 
Q 2550 3084 2163 3084 
Q 1697 3084 1428 2787 
Q 1159 2491 1159 1978 
L 1159 0 
L 581 0 
L 581 3500 
L 1159 3500 
L 1159 2956 
Q 1366 3272 1645 3428 
Q 1925 3584 2291 3584 
Q 2894 3584 3203 3211 
Q 3513 2838 3513 2113 
z
" transform="scale(0.015625)"/>
       </defs>
       <use xlink:href="#DejaVuSans-35"/>
       <use xlink:href="#DejaVuSans-30" x="63.623047"/>
       <use xlink:href="#DejaVuSans-20" x="127.246094"/>
       <use xlink:href="#DejaVuSans-6e" x="159.033203"/>
       <use xlink:href="#DejaVuSans-73" x="222.412109"/>
      </g>
     </g>
    </g>
    <g id="xtick_27">
     <g id="line2d_75">
      <path d="M 463.68 576.72 
L 463.68 483.988966 
" clip-path="url(#p9b5cba9375)" style="fill: none; stroke-dasharray: 1.85,0.8; stroke-dashoffset: 0; stroke: #b2b2b2; stroke-width: 0.5"/>
     </g>
     <g id="line2d_76">
      <g>
       <use xlink:href="#m8c6a0653da" x="463.68" y="576.72" style="stroke: #000000; stroke-width: 0.8"/>
      </g>
     </g>
     <g id="text_16">
      <!-- 100 ns -->
      <g transform="translate(440.01125 590.857813) scale(0.14 -0.14)">
       <use xlink:href="#DejaVuSans-31"/>
       <use xlink:href="#DejaVuSans-30" x="63.623047"/>
       <use xlink:href="#DejaVuSans-30" x="127.246094"/>
       <use xlink:href="#DejaVuSans-20" x="190.869141"/>
       <use xlink:href="#DejaVuSans-6e" x="222.65625"/>
       <use xlink:href="#DejaVuSans-73" x="286.035156"/>
      </g>
     </g>
    </g>
    <g id="xtick_28">
     <g id="line2d_77">
      <path d="M 624.96 576.72 
L 624.96 483.988966 
" clip-path="url(#p9b5cba9375)" style="fill: none; stroke-dasharray: 1.85,0.8; stroke-dashoffset: 0; stroke: #b2b2b2; stroke-width: 0.5"/>
     </g>
     <g id="line2d_78">
      <g>
       <use xlink:href="#m8c6a0653da" x="624.96" y="576.72" style="stroke: #000000; stroke-width: 0.8"/>
      </g>
     </g>
     <g id="text_17">
      <!-- 150 ns -->
      <g transform="translate(601.29125 590.857813) scale(0.14 -0.14)">
       <use xlink:href="#DejaVuSans-31"/>
       <use xlink:href="#DejaVuSans-35" x="63.623047"/>
       <use xlink:href="#DejaVuSans-30" x="127.246094"/>
       <use xlink:href="#DejaVuSans-20" x="190.869141"/>
       <use xlink:href="#DejaVuSans-6e" x="222.65625"/>
       <use xlink:href="#DejaVuSans-73" x="286.035156"/>
      </g>
     </g>
    </g>
    <g id="xtick_29">
     <g id="line2d_79">
      <path d="M 786.24 576.72 
L 786.24 483.988966 
" clip-path="url(#p9b5cba9375)" style="fill: none; stroke-dasharray: 1.85,0.8; stroke-dashoffset: 0; stroke: #b2b2b2; stroke-width: 0.5"/>
     </g>
     <g id="line2d_80">
      <g>
       <use xlink:href="#m8c6a0653da" x="786.24" y="576.72" style="stroke: #000000; stroke-width: 0.8"/>
      </g>
     </g>
     <g id="text_18">
      <!-- 200 ns -->
      <g transform="translate(762.57125 590.857813) scale(0.14 -0.14)">
       <use xlink:href="#DejaVuSans-32"/>
       <use xlink:href="#DejaVuSans-30" x="63.623047"/>
       <use xlink:href="#DejaVuSans-30" x="127.246094"/>
       <use xlink:href="#DejaVuSans-20" x="190.869141"/>
       <use xlink:href="#DejaVuSans-6e" x="222.65625"/>
       <use xlink:href="#DejaVuSans-73" x="286.035156"/>
      </g>
     </g>
    </g>
    <g id="xtick_30">
     <g id="line2d_81">
      <path d="M 947.52 576.72 
L 947.52 483.988966 
" clip-path="url(#p9b5cba9375)" style="fill: none; stroke-dasharray: 1.85,0.8; stroke-dashoffset: 0; stroke: #b2b2b2; stroke-width: 0.5"/>
     </g>
     <g id="line2d_82">
      <g>
       <use xlink:href="#m8c6a0653da" x="947.52" y="576.72" style="stroke: #000000; stroke-width: 0.8"/>
      </g>
     </g>
     <g id="text_19">
      <!-- 250 ns -->
      <g transform="translate(923.85125 590.857813) scale(0.14 -0.14)">
       <use xlink:href="#DejaVuSans-32"/>
       <use xlink:href="#DejaVuSans-35" x="63.623047"/>
       <use xlink:href="#DejaVuSans-30" x="127.246094"/>
       <use xlink:href="#DejaVuSans-20" x="190.869141"/>
       <use xlink:href="#DejaVuSans-6e" x="222.65625"/>
       <use xlink:href="#DejaVuSans-73" x="286.035156"/>
      </g>
     </g>
    </g>
    <g id="text_20">
     <!-- Time -->
     <g transform="translate(527.192969 608.407187) scale(0.14 -0.14)">
      <defs>
       <path id="DejaVuSans-69" d="M 603 3500 
L 1178 3500 
L 1178 0 
L 603 0 
L 603 3500 
z
M 603 4863 
L 1178 4863 
L 1178 4134 
L 603 4134 
L 603 4863 
z
" transform="scale(0.015625)"/>
       <path id="DejaVuSans-6d" d="M 3328 2828 
Q 3544 3216 3844 3400 
Q 4144 3584 4550 3584 
Q 5097 3584 5394 3201 
Q 5691 2819 5691 2113 
L 5691 0 
L 5113 0 
L 5113 2094 
Q 5113 2597 4934 2840 
Q 4756 3084 4391 3084 
Q 3944 3084 3684 2787 
Q 3425 2491 3425 1978 
L 3425 0 
L 2847 0 
L 2847 2094 
Q 2847 2600 2669 2842 
Q 2491 3084 2119 3084 
Q 1678 3084 1418 2786 
Q 1159 2488 1159 1978 
L 1159 0 
L 581 0 
L 581 3500 
L 1159 3500 
L 1159 2956 
Q 1356 3278 1631 3431 
Q 1906 3584 2284 3584 
Q 2666 3584 2933 3390 
Q 3200 3197 3328 2828 
z
" transform="scale(0.015625)"/>
       <path id="DejaVuSans-65" d="M 3597 1894 
L 3597 1613 
L 953 1613 
Q 991 1019 1311 708 
Q 1631 397 2203 397 
Q 2534 397 2845 478 
Q 3156 559 3463 722 
L 3463 178 
Q 3153 47 2828 -22 
Q 2503 -91 2169 -91 
Q 1331 -91 842 396 
Q 353 884 353 1716 
Q 353 2575 817 3079 
Q 1281 3584 2069 3584 
Q 2775 3584 3186 3129 
Q 3597 2675 3597 1894 
z
M 3022 2063 
Q 3016 2534 2758 2815 
Q 2500 3097 2075 3097 
Q 1594 3097 1305 2825 
Q 1016 2553 972 2059 
L 3022 2063 
z
" transform="scale(0.015625)"/>
      </defs>
      <use xlink:href="#DejaVuSans-54"/>
      <use xlink:href="#DejaVuSans-69" x="57.958984"/>
      <use xlink:href="#DejaVuSans-6d" x="85.742188"/>
      <use xlink:href="#DejaVuSans-65" x="183.154297"/>
     </g>
    </g>
   </g>
   <g id="matplotlib.axis_10">
    <g id="ytick_10">
     <g id="line2d_83">
      <path d="M 100.8 569.740788 
L 987.84 569.740788 
" clip-path="url(#p9b5cba9375)" style="fill: none; stroke-dasharray: 1.85,0.8; stroke-dashoffset: 0; stroke: #b2b2b2; stroke-width: 0.5"/>
     </g>
     <g id="line2d_84">
      <g>
       <use xlink:href="#mf0a18b4fd6" x="100.8" y="569.740788" style="stroke: #000000; stroke-width: 0.8"/>
      </g>
     </g>
     <g id="text_21">
      <!-- 0 V -->
      <g transform="translate(74.36625 575.059694) scale(0.14 -0.14)">
       <use xlink:href="#DejaVuSans-30"/>
       <use xlink:href="#DejaVuSans-20" x="63.623047"/>
       <use xlink:href="#DejaVuSans-56" x="95.410156"/>
      </g>
     </g>
    </g>
    <g id="ytick_11">
     <g id="line2d_85">
      <path d="M 100.8 535.882813 
L 987.84 535.882813 
" clip-path="url(#p9b5cba9375)" style="fill: none; stroke-dasharray: 1.85,0.8; stroke-dashoffset: 0; stroke: #b2b2b2; stroke-width: 0.5"/>
     </g>
     <g id="line2d_86">
      <g>
       <use xlink:href="#mf0a18b4fd6" x="100.8" y="535.882813" style="stroke: #000000; stroke-width: 0.8"/>
      </g>
     </g>
     <g id="text_22">
      <!-- 500 mV -->
      <g transform="translate(42.914375 541.201719) scale(0.14 -0.14)">
       <use xlink:href="#DejaVuSans-35"/>
       <use xlink:href="#DejaVuSans-30" x="63.623047"/>
       <use xlink:href="#DejaVuSans-30" x="127.246094"/>
       <use xlink:href="#DejaVuSans-20" x="190.869141"/>
       <use xlink:href="#DejaVuSans-6d" x="222.65625"/>
       <use xlink:href="#DejaVuSans-56" x="320.068359"/>
      </g>
     </g>
    </g>
    <g id="ytick_12">
     <g id="line2d_87">
      <path d="M 100.8 502.024838 
L 987.84 502.024838 
" clip-path="url(#p9b5cba9375)" style="fill: none; stroke-dasharray: 1.85,0.8; stroke-dashoffset: 0; stroke: #b2b2b2; stroke-width: 0.5"/>
     </g>
     <g id="line2d_88">
      <g>
       <use xlink:href="#mf0a18b4fd6" x="100.8" y="502.024838" style="stroke: #000000; stroke-width: 0.8"/>
      </g>
     </g>
     <g id="text_23">
      <!-- 1 V -->
      <g transform="translate(74.36625 507.343744) scale(0.14 -0.14)">
       <use xlink:href="#DejaVuSans-31"/>
       <use xlink:href="#DejaVuSans-20" x="63.623047"/>
       <use xlink:href="#DejaVuSans-56" x="95.410156"/>
      </g>
     </g>
    </g>
    <g id="text_24">
     <g id="patch_27">
      <path d="M 34.8768 554.329483 
L 34.8768 506.379483 
L 11.247425 506.379483 
L 11.247425 554.329483 
z
" style="fill: #ffff00; opacity: 0.2; stroke: #eeeeee; stroke-width: 0.5; stroke-linejoin: miter"/>
     </g>
     <!-- FOUT -->
     <g transform="translate(26.925238 549.289483) rotate(-90) scale(0.14 -0.14)">
      <use xlink:href="#DejaVuSans-46"/>
      <use xlink:href="#DejaVuSans-4f" x="57.519531"/>
      <use xlink:href="#DejaVuSans-55" x="136.230469"/>
      <use xlink:href="#DejaVuSans-54" x="209.423828"/>
     </g>
    </g>
   </g>
   <g id="line2d_89">
    <path d="M 141.12 488.481648 
L 173.472768 488.48842 
L 173.505024 488.292043 
L 173.569536 526.70527 
L 173.69856 572.504953 
L 173.730816 572.36925 
L 173.827584 567.8335 
L 173.892096 569.355091 
L 174.053376 570.059683 
L 174.117888 569.941938 
L 174.408192 569.486487 
L 174.440448 569.536035 
L 174.66624 569.724827 
L 176.182272 569.735043 
L 180.117504 569.756381 
L 193.503744 569.74747 
L 212.921856 569.73891 
L 255.30624 569.738603 
L 255.6288 488.373302 
L 255.854592 488.515506 
L 256.209408 488.474876 
L 300.916224 488.366531 
L 300.94848 488.204013 
L 300.980736 488.942116 
L 301.045248 520.096193 
L 301.142016 570.674388 
L 301.206528 569.785494 
L 301.335552 569.743442 
L 302.625792 569.739122 
L 347.461632 569.824275 
L 347.493888 568.688685 
L 347.590656 524.539037 
L 347.751936 488.847314 
L 347.913216 488.48842 
L 348.461568 488.481648 
L 348.816384 488.468105 
L 349.00992 569.800211 
L 349.138944 569.739224 
L 379.201536 569.739063 
L 416.199168 569.844407 
L 416.231424 570.042964 
L 416.295936 534.437077 
L 416.457216 488.813456 
L 416.58624 488.461333 
L 416.618496 488.481648 
L 947.52 488.481648 
L 947.52 488.481648 
" clip-path="url(#p9b5cba9375)" style="fill: none; stroke: #ff00ff; stroke-width: 2; stroke-linecap: square"/>
   </g>
   <g id="patch_28">
    <path d="M 100.8 576.72 
L 100.8 483.988966 
" style="fill: none; stroke: #bcbcbc; stroke-width: 0.8; stroke-linejoin: miter; stroke-linecap: square"/>
   </g>
   <g id="patch_29">
    <path d="M 987.84 576.72 
L 987.84 483.988966 
" style="fill: none; stroke: #bcbcbc; stroke-width: 0.8; stroke-linejoin: miter; stroke-linecap: square"/>
   </g>
   <g id="patch_30">
    <path d="M 100.8 576.72 
L 987.84 576.72 
" style="fill: none; stroke: #bcbcbc; stroke-width: 0.8; stroke-linejoin: miter; stroke-linecap: square"/>
   </g>
   <g id="patch_31">
    <path d="M 100.8 483.988966 
L 987.84 483.988966 
" style="fill: none; stroke: #bcbcbc; stroke-width: 0.8; stroke-linejoin: miter; stroke-linecap: square"/>
   </g>
  </g>
  <g id="axes_6">
   <g id="patch_32">
    <path d="M 201.6 628.56 
L 856.8 628.56 
L 856.8 615.6 
L 201.6 615.6 
z
" clip-path="url(#p2212566446)" style="fill: #d3d3d3"/>
   </g>
   <g id="patch_33">
    <path d="M 201.6 628.56 
L 342 628.56 
L 342 615.6 
L 201.6 615.6 
z
" clip-path="url(#p2212566446)" style="fill: #0000ff"/>
   </g>
   <g id="line2d_90">
    <path d="M 201.6 635.04 
L 201.6 609.12 
" clip-path="url(#p379b0387fc)" style="fill: none; stroke: #ff0000; stroke-linecap: square"/>
   </g>
   <g id="line2d_91">
    <defs>
     <path id="mad6197d277" d="M 0 5 
C 1.326016 5 2.597899 4.473168 3.535534 3.535534 
C 4.473168 2.597899 5 1.326016 5 0 
C 5 -1.326016 4.473168 -2.597899 3.535534 -3.535534 
C 2.597899 -4.473168 1.326016 -5 0 -5 
C -1.326016 -5 -2.597899 -4.473168 -3.535534 -3.535534 
C -4.473168 -2.597899 -5 -1.326016 -5 0 
C -5 1.326016 -4.473168 2.597899 -3.535534 3.535534 
C -2.597899 4.473168 -1.326016 5 0 5 
z
" style="stroke: #bfbfbf"/>
    </defs>
    <g>
     <use xlink:href="#mad6197d277" x="342" y="622.08" style="fill: #ffffff; stroke: #bfbfbf"/>
    </g>
   </g>
   <g id="text_25">
    <!-- #Sweep -->
    <g transform="translate(138.622875 625.39125) scale(0.12 -0.12)">
     <defs>
      <path id="DejaVuSans-23" d="M 3272 2816 
L 2363 2816 
L 2100 1772 
L 3016 1772 
L 3272 2816 
z
M 2803 4594 
L 2478 3297 
L 3391 3297 
L 3719 4594 
L 4219 4594 
L 3897 3297 
L 4872 3297 
L 4872 2816 
L 3775 2816 
L 3519 1772 
L 4513 1772 
L 4513 1294 
L 3397 1294 
L 3072 0 
L 2572 0 
L 2894 1294 
L 1978 1294 
L 1656 0 
L 1153 0 
L 1478 1294 
L 494 1294 
L 494 1772 
L 1594 1772 
L 1856 2816 
L 850 2816 
L 850 3297 
L 1978 3297 
L 2297 4594 
L 2803 4594 
z
" transform="scale(0.015625)"/>
      <path id="DejaVuSans-77" d="M 269 3500 
L 844 3500 
L 1563 769 
L 2278 3500 
L 2956 3500 
L 3675 769 
L 4391 3500 
L 4966 3500 
L 4050 0 
L 3372 0 
L 2619 2869 
L 1863 0 
L 1184 0 
L 269 3500 
z
" transform="scale(0.015625)"/>
      <path id="DejaVuSans-70" d="M 1159 525 
L 1159 -1331 
L 581 -1331 
L 581 3500 
L 1159 3500 
L 1159 2969 
Q 1341 3281 1617 3432 
Q 1894 3584 2278 3584 
Q 2916 3584 3314 3078 
Q 3713 2572 3713 1747 
Q 3713 922 3314 415 
Q 2916 -91 2278 -91 
Q 1894 -91 1617 61 
Q 1341 213 1159 525 
z
M 3116 1747 
Q 3116 2381 2855 2742 
Q 2594 3103 2138 3103 
Q 1681 3103 1420 2742 
Q 1159 2381 1159 1747 
Q 1159 1113 1420 752 
Q 1681 391 2138 391 
Q 2594 391 2855 752 
Q 3116 1113 3116 1747 
z
" transform="scale(0.015625)"/>
     </defs>
     <use xlink:href="#DejaVuSans-23"/>
     <use xlink:href="#DejaVuSans-53" x="83.789062"/>
     <use xlink:href="#DejaVuSans-77" x="147.265625"/>
     <use xlink:href="#DejaVuSans-65" x="229.052734"/>
     <use xlink:href="#DejaVuSans-65" x="290.576172"/>
     <use xlink:href="#DejaVuSans-70" x="352.099609"/>
    </g>
   </g>
   <g id="text_26">
    <!-- $\mathdefault{30}$ -->
    <g transform="translate(869.904 625.39125) scale(0.12 -0.12)">
     <defs>
      <path id="DejaVuSans-33" d="M 2597 2516 
Q 3050 2419 3304 2112 
Q 3559 1806 3559 1356 
Q 3559 666 3084 287 
Q 2609 -91 1734 -91 
Q 1441 -91 1130 -33 
Q 819 25 488 141 
L 488 750 
Q 750 597 1062 519 
Q 1375 441 1716 441 
Q 2309 441 2620 675 
Q 2931 909 2931 1356 
Q 2931 1769 2642 2001 
Q 2353 2234 1838 2234 
L 1294 2234 
L 1294 2753 
L 1863 2753 
Q 2328 2753 2575 2939 
Q 2822 3125 2822 3475 
Q 2822 3834 2567 4026 
Q 2313 4219 1838 4219 
Q 1578 4219 1281 4162 
Q 984 4106 628 3988 
L 628 4550 
Q 988 4650 1302 4700 
Q 1616 4750 1894 4750 
Q 2613 4750 3031 4423 
Q 3450 4097 3450 3541 
Q 3450 3153 3228 2886 
Q 3006 2619 2597 2516 
z
" transform="scale(0.015625)"/>
     </defs>
     <use xlink:href="#DejaVuSans-33" transform="translate(0 0.78125)"/>
     <use xlink:href="#DejaVuSans-30" transform="translate(63.623047 0.78125)"/>
    </g>
   </g>
  </g>
  <g id="text_27">
   <!-- DFF under BBI sweep analysis (Sweep = 40E-9) -->
   <g transform="translate(313.34625 25.1175) scale(0.16 -0.16)">
    <defs>
     <path id="DejaVuSans-75" d="M 544 1381 
L 544 3500 
L 1119 3500 
L 1119 1403 
Q 1119 906 1312 657 
Q 1506 409 1894 409 
Q 2359 409 2629 706 
Q 2900 1003 2900 1516 
L 2900 3500 
L 3475 3500 
L 3475 0 
L 2900 0 
L 2900 538 
Q 2691 219 2414 64 
Q 2138 -91 1772 -91 
Q 1169 -91 856 284 
Q 544 659 544 1381 
z
M 1991 3584 
L 1991 3584 
z
" transform="scale(0.015625)"/>
     <path id="DejaVuSans-64" d="M 2906 2969 
L 2906 4863 
L 3481 4863 
L 3481 0 
L 2906 0 
L 2906 525 
Q 2725 213 2448 61 
Q 2172 -91 1784 -91 
Q 1150 -91 751 415 
Q 353 922 353 1747 
Q 353 2572 751 3078 
Q 1150 3584 1784 3584 
Q 2172 3584 2448 3432 
Q 2725 3281 2906 2969 
z
M 947 1747 
Q 947 1113 1208 752 
Q 1469 391 1925 391 
Q 2381 391 2643 752 
Q 2906 1113 2906 1747 
Q 2906 2381 2643 2742 
Q 2381 3103 1925 3103 
Q 1469 3103 1208 2742 
Q 947 2381 947 1747 
z
" transform="scale(0.015625)"/>
     <path id="DejaVuSans-72" d="M 2631 2963 
Q 2534 3019 2420 3045 
Q 2306 3072 2169 3072 
Q 1681 3072 1420 2755 
Q 1159 2438 1159 1844 
L 1159 0 
L 581 0 
L 581 3500 
L 1159 3500 
L 1159 2956 
Q 1341 3275 1631 3429 
Q 1922 3584 2338 3584 
Q 2397 3584 2469 3576 
Q 2541 3569 2628 3553 
L 2631 2963 
z
" transform="scale(0.015625)"/>
     <path id="DejaVuSans-61" d="M 2194 1759 
Q 1497 1759 1228 1600 
Q 959 1441 959 1056 
Q 959 750 1161 570 
Q 1363 391 1709 391 
Q 2188 391 2477 730 
Q 2766 1069 2766 1631 
L 2766 1759 
L 2194 1759 
z
M 3341 1997 
L 3341 0 
L 2766 0 
L 2766 531 
Q 2569 213 2275 61 
Q 1981 -91 1556 -91 
Q 1019 -91 701 211 
Q 384 513 384 1019 
Q 384 1609 779 1909 
Q 1175 2209 1959 2209 
L 2766 2209 
L 2766 2266 
Q 2766 2663 2505 2880 
Q 2244 3097 1772 3097 
Q 1472 3097 1187 3025 
Q 903 2953 641 2809 
L 641 3341 
Q 956 3463 1253 3523 
Q 1550 3584 1831 3584 
Q 2591 3584 2966 3190 
Q 3341 2797 3341 1997 
z
" transform="scale(0.015625)"/>
     <path id="DejaVuSans-6c" d="M 603 4863 
L 1178 4863 
L 1178 0 
L 603 0 
L 603 4863 
z
" transform="scale(0.015625)"/>
     <path id="DejaVuSans-79" d="M 2059 -325 
Q 1816 -950 1584 -1140 
Q 1353 -1331 966 -1331 
L 506 -1331 
L 506 -850 
L 844 -850 
Q 1081 -850 1212 -737 
Q 1344 -625 1503 -206 
L 1606 56 
L 191 3500 
L 800 3500 
L 1894 763 
L 2988 3500 
L 3597 3500 
L 2059 -325 
z
" transform="scale(0.015625)"/>
     <path id="DejaVuSans-28" d="M 1984 4856 
Q 1566 4138 1362 3434 
Q 1159 2731 1159 2009 
Q 1159 1288 1364 580 
Q 1569 -128 1984 -844 
L 1484 -844 
Q 1016 -109 783 600 
Q 550 1309 550 2009 
Q 550 2706 781 3412 
Q 1013 4119 1484 4856 
L 1984 4856 
z
" transform="scale(0.015625)"/>
     <path id="DejaVuSans-3d" d="M 678 2906 
L 4684 2906 
L 4684 2381 
L 678 2381 
L 678 2906 
z
M 678 1631 
L 4684 1631 
L 4684 1100 
L 678 1100 
L 678 1631 
z
" transform="scale(0.015625)"/>
     <path id="DejaVuSans-34" d="M 2419 4116 
L 825 1625 
L 2419 1625 
L 2419 4116 
z
M 2253 4666 
L 3047 4666 
L 3047 1625 
L 3713 1625 
L 3713 1100 
L 3047 1100 
L 3047 0 
L 2419 0 
L 2419 1100 
L 313 1100 
L 313 1709 
L 2253 4666 
z
" transform="scale(0.015625)"/>
     <path id="DejaVuSans-2d" d="M 313 2009 
L 1997 2009 
L 1997 1497 
L 313 1497 
L 313 2009 
z
" transform="scale(0.015625)"/>
     <path id="DejaVuSans-39" d="M 703 97 
L 703 672 
Q 941 559 1184 500 
Q 1428 441 1663 441 
Q 2288 441 2617 861 
Q 2947 1281 2994 2138 
Q 2813 1869 2534 1725 
Q 2256 1581 1919 1581 
Q 1219 1581 811 2004 
Q 403 2428 403 3163 
Q 403 3881 828 4315 
Q 1253 4750 1959 4750 
Q 2769 4750 3195 4129 
Q 3622 3509 3622 2328 
Q 3622 1225 3098 567 
Q 2575 -91 1691 -91 
Q 1453 -91 1209 -44 
Q 966 3 703 97 
z
M 1959 2075 
Q 2384 2075 2632 2365 
Q 2881 2656 2881 3163 
Q 2881 3666 2632 3958 
Q 2384 4250 1959 4250 
Q 1534 4250 1286 3958 
Q 1038 3666 1038 3163 
Q 1038 2656 1286 2365 
Q 1534 2075 1959 2075 
z
" transform="scale(0.015625)"/>
     <path id="DejaVuSans-29" d="M 513 4856 
L 1013 4856 
Q 1481 4119 1714 3412 
Q 1947 2706 1947 2009 
Q 1947 1309 1714 600 
Q 1481 -109 1013 -844 
L 513 -844 
Q 928 -128 1133 580 
Q 1338 1288 1338 2009 
Q 1338 2731 1133 3434 
Q 928 4138 513 4856 
z
" transform="scale(0.015625)"/>
    </defs>
    <use xlink:href="#DejaVuSans-44"/>
    <use xlink:href="#DejaVuSans-46" x="77.001953"/>
    <use xlink:href="#DejaVuSans-46" x="134.521484"/>
    <use xlink:href="#DejaVuSans-20" x="192.041016"/>
    <use xlink:href="#DejaVuSans-75" x="223.828125"/>
    <use xlink:href="#DejaVuSans-6e" x="287.207031"/>
    <use xlink:href="#DejaVuSans-64" x="350.585938"/>
    <use xlink:href="#DejaVuSans-65" x="414.0625"/>
    <use xlink:href="#DejaVuSans-72" x="475.585938"/>
    <use xlink:href="#DejaVuSans-20" x="516.699219"/>
    <use xlink:href="#DejaVuSans-42" x="548.486328"/>
    <use xlink:href="#DejaVuSans-42" x="617.089844"/>
    <use xlink:href="#DejaVuSans-49" x="685.693359"/>
    <use xlink:href="#DejaVuSans-20" x="715.185547"/>
    <use xlink:href="#DejaVuSans-73" x="746.972656"/>
    <use xlink:href="#DejaVuSans-77" x="799.072266"/>
    <use xlink:href="#DejaVuSans-65" x="880.859375"/>
    <use xlink:href="#DejaVuSans-65" x="942.382812"/>
    <use xlink:href="#DejaVuSans-70" x="1003.90625"/>
    <use xlink:href="#DejaVuSans-20" x="1067.382812"/>
    <use xlink:href="#DejaVuSans-61" x="1099.169922"/>
    <use xlink:href="#DejaVuSans-6e" x="1160.449219"/>
    <use xlink:href="#DejaVuSans-61" x="1223.828125"/>
    <use xlink:href="#DejaVuSans-6c" x="1285.107422"/>
    <use xlink:href="#DejaVuSans-79" x="1312.890625"/>
    <use xlink:href="#DejaVuSans-73" x="1372.070312"/>
    <use xlink:href="#DejaVuSans-69" x="1424.169922"/>
    <use xlink:href="#DejaVuSans-73" x="1451.953125"/>
    <use xlink:href="#DejaVuSans-20" x="1504.052734"/>
    <use xlink:href="#DejaVuSans-28" x="1535.839844"/>
    <use xlink:href="#DejaVuSans-53" x="1574.853516"/>
    <use xlink:href="#DejaVuSans-77" x="1638.330078"/>
    <use xlink:href="#DejaVuSans-65" x="1720.117188"/>
    <use xlink:href="#DejaVuSans-65" x="1781.640625"/>
    <use xlink:href="#DejaVuSans-70" x="1843.164062"/>
    <use xlink:href="#DejaVuSans-20" x="1906.640625"/>
    <use xlink:href="#DejaVuSans-3d" x="1938.427734"/>
    <use xlink:href="#DejaVuSans-20" x="2022.216797"/>
    <use xlink:href="#DejaVuSans-34" x="2054.003906"/>
    <use xlink:href="#DejaVuSans-30" x="2117.626953"/>
    <use xlink:href="#DejaVuSans-45" x="2181.25"/>
    <use xlink:href="#DejaVuSans-2d" x="2244.433594"/>
    <use xlink:href="#DejaVuSans-39" x="2280.517578"/>
    <use xlink:href="#DejaVuSans-29" x="2344.140625"/>
   </g>
  </g>
 </g>
 <defs>
  <clipPath id="p0d00eb7b32">
   <rect x="100.8" y="38.88" width="887.04" height="92.731034"/>
  </clipPath>
  <clipPath id="p4ca48bcea8">
   <rect x="100.8" y="150.157241" width="887.04" height="92.731034"/>
  </clipPath>
  <clipPath id="p71275a5dc4">
   <rect x="100.8" y="261.434483" width="887.04" height="92.731034"/>
  </clipPath>
  <clipPath id="p495d309a1d">
   <rect x="100.8" y="372.711724" width="887.04" height="92.731034"/>
  </clipPath>
  <clipPath id="p9b5cba9375">
   <rect x="100.8" y="483.988966" width="887.04" height="92.731034"/>
  </clipPath>
  <clipPath id="p2212566446">
   <rect x="201.6" y="609.12" width="655.2" height="25.92"/>
  </clipPath>
  <clipPath id="p379b0387fc">
   <path d="M 201.6 628.56 
L 856.8 628.56 
L 856.8 615.6 
L 201.6 615.6 
z
"/>
  </clipPath>
 </defs>
</svg>
