<?xml version="1.0" encoding="utf-8" standalone="no"?>
<!DOCTYPE svg PUBLIC "-//W3C//DTD SVG 1.1//EN"
  "http://www.w3.org/Graphics/SVG/1.1/DTD/svg11.dtd">
<svg xmlns:xlink="http://www.w3.org/1999/xlink" width="1008pt" height="648pt" viewBox="0 0 1008 648" xmlns="http://www.w3.org/2000/svg" version="1.1">
 <metadata>
  <rdf:RDF xmlns:dc="http://purl.org/dc/elements/1.1/" xmlns:cc="http://creativecommons.org/ns#" xmlns:rdf="http://www.w3.org/1999/02/22-rdf-syntax-ns#">
   <cc:Work>
    <dc:type rdf:resource="http://purl.org/dc/dcmitype/StillImage"/>
    <dc:date>2024-06-03T10:45:30.458556</dc:date>
    <dc:format>image/svg+xml</dc:format>
    <dc:creator>
     <cc:Agent>
      <dc:title>Matplotlib v3.9.0, https://matplotlib.org/</dc:title>
     </cc:Agent>
    </dc:creator>
   </cc:Work>
  </rdf:RDF>
 </metadata>
 <defs>
  <style type="text/css">*{stroke-linejoin: round; stroke-linecap: butt}</style>
 </defs>
 <g id="figure_1">
  <g id="patch_1">
   <path d="M 0 648 
L 1008 648 
L 1008 0 
L 0 0 
z
" style="fill: #ffffff"/>
  </g>
  <g id="axes_1">
   <g id="patch_2">
    <path d="M 100.8 131.611034 
L 987.84 131.611034 
L 987.84 38.88 
L 100.8 38.88 
z
" style="fill: #eeeeee"/>
   </g>
   <g id="matplotlib.axis_1">
    <g id="xtick_1">
     <g id="line2d_1">
      <path d="M 141.12 131.611034 
L 141.12 38.88 
" clip-path="url(#p8c59c71f2a)" style="fill: none; stroke-dasharray: 1.85,0.8; stroke-dashoffset: 0; stroke: #b2b2b2; stroke-width: 0.5"/>
     </g>
     <g id="line2d_2">
      <defs>
       <path id="m12e949d85a" d="M 0 0 
L 0 -3.5 
" style="stroke: #000000; stroke-width: 0.8"/>
      </defs>
      <g>
       <use xlink:href="#m12e949d85a" x="141.12" y="131.611034" style="stroke: #000000; stroke-width: 0.8"/>
      </g>
     </g>
    </g>
    <g id="xtick_2">
     <g id="line2d_3">
      <path d="M 302.4 131.611034 
L 302.4 38.88 
" clip-path="url(#p8c59c71f2a)" style="fill: none; stroke-dasharray: 1.85,0.8; stroke-dashoffset: 0; stroke: #b2b2b2; stroke-width: 0.5"/>
     </g>
     <g id="line2d_4">
      <g>
       <use xlink:href="#m12e949d85a" x="302.4" y="131.611034" style="stroke: #000000; stroke-width: 0.8"/>
      </g>
     </g>
    </g>
    <g id="xtick_3">
     <g id="line2d_5">
      <path d="M 463.68 131.611034 
L 463.68 38.88 
" clip-path="url(#p8c59c71f2a)" style="fill: none; stroke-dasharray: 1.85,0.8; stroke-dashoffset: 0; stroke: #b2b2b2; stroke-width: 0.5"/>
     </g>
     <g id="line2d_6">
      <g>
       <use xlink:href="#m12e949d85a" x="463.68" y="131.611034" style="stroke: #000000; stroke-width: 0.8"/>
      </g>
     </g>
    </g>
    <g id="xtick_4">
     <g id="line2d_7">
      <path d="M 624.96 131.611034 
L 624.96 38.88 
" clip-path="url(#p8c59c71f2a)" style="fill: none; stroke-dasharray: 1.85,0.8; stroke-dashoffset: 0; stroke: #b2b2b2; stroke-width: 0.5"/>
     </g>
     <g id="line2d_8">
      <g>
       <use xlink:href="#m12e949d85a" x="624.96" y="131.611034" style="stroke: #000000; stroke-width: 0.8"/>
      </g>
     </g>
    </g>
    <g id="xtick_5">
     <g id="line2d_9">
      <path d="M 786.24 131.611034 
L 786.24 38.88 
" clip-path="url(#p8c59c71f2a)" style="fill: none; stroke-dasharray: 1.85,0.8; stroke-dashoffset: 0; stroke: #b2b2b2; stroke-width: 0.5"/>
     </g>
     <g id="line2d_10">
      <g>
       <use xlink:href="#m12e949d85a" x="786.24" y="131.611034" style="stroke: #000000; stroke-width: 0.8"/>
      </g>
     </g>
    </g>
    <g id="xtick_6">
     <g id="line2d_11">
      <path d="M 947.52 131.611034 
L 947.52 38.88 
" clip-path="url(#p8c59c71f2a)" style="fill: none; stroke-dasharray: 1.85,0.8; stroke-dashoffset: 0; stroke: #b2b2b2; stroke-width: 0.5"/>
     </g>
     <g id="line2d_12">
      <g>
       <use xlink:href="#m12e949d85a" x="947.52" y="131.611034" style="stroke: #000000; stroke-width: 0.8"/>
      </g>
     </g>
    </g>
   </g>
   <g id="matplotlib.axis_2">
    <g id="ytick_1">
     <g id="line2d_13">
      <path d="M 100.8 98.340394 
L 987.84 98.340394 
" clip-path="url(#p8c59c71f2a)" style="fill: none; stroke-dasharray: 1.85,0.8; stroke-dashoffset: 0; stroke: #b2b2b2; stroke-width: 0.5"/>
     </g>
     <g id="line2d_14">
      <defs>
       <path id="md3fd073dd8" d="M 0 0 
L 3.5 0 
" style="stroke: #000000; stroke-width: 0.8"/>
      </defs>
      <g>
       <use xlink:href="#md3fd073dd8" x="100.8" y="98.340394" style="stroke: #000000; stroke-width: 0.8"/>
      </g>
     </g>
     <g id="text_1">
      <!-- −200 V -->
      <g transform="translate(44.819688 103.6593) scale(0.14 -0.14)">
       <defs>
        <path id="DejaVuSans-2212" d="M 678 2272 
L 4684 2272 
L 4684 1741 
L 678 1741 
L 678 2272 
z
" transform="scale(0.015625)"/>
        <path id="DejaVuSans-32" d="M 1228 531 
L 3431 531 
L 3431 0 
L 469 0 
L 469 531 
Q 828 903 1448 1529 
Q 2069 2156 2228 2338 
Q 2531 2678 2651 2914 
Q 2772 3150 2772 3378 
Q 2772 3750 2511 3984 
Q 2250 4219 1831 4219 
Q 1534 4219 1204 4116 
Q 875 4013 500 3803 
L 500 4441 
Q 881 4594 1212 4672 
Q 1544 4750 1819 4750 
Q 2544 4750 2975 4387 
Q 3406 4025 3406 3419 
Q 3406 3131 3298 2873 
Q 3191 2616 2906 2266 
Q 2828 2175 2409 1742 
Q 1991 1309 1228 531 
z
" transform="scale(0.015625)"/>
        <path id="DejaVuSans-30" d="M 2034 4250 
Q 1547 4250 1301 3770 
Q 1056 3291 1056 2328 
Q 1056 1369 1301 889 
Q 1547 409 2034 409 
Q 2525 409 2770 889 
Q 3016 1369 3016 2328 
Q 3016 3291 2770 3770 
Q 2525 4250 2034 4250 
z
M 2034 4750 
Q 2819 4750 3233 4129 
Q 3647 3509 3647 2328 
Q 3647 1150 3233 529 
Q 2819 -91 2034 -91 
Q 1250 -91 836 529 
Q 422 1150 422 2328 
Q 422 3509 836 4129 
Q 1250 4750 2034 4750 
z
" transform="scale(0.015625)"/>
        <path id="DejaVuSans-20" transform="scale(0.015625)"/>
        <path id="DejaVuSans-56" d="M 1831 0 
L 50 4666 
L 709 4666 
L 2188 738 
L 3669 4666 
L 4325 4666 
L 2547 0 
L 1831 0 
z
" transform="scale(0.015625)"/>
       </defs>
       <use xlink:href="#DejaVuSans-2212"/>
       <use xlink:href="#DejaVuSans-32" x="83.789062"/>
       <use xlink:href="#DejaVuSans-30" x="147.412109"/>
       <use xlink:href="#DejaVuSans-30" x="211.035156"/>
       <use xlink:href="#DejaVuSans-20" x="274.658203"/>
       <use xlink:href="#DejaVuSans-56" x="306.445312"/>
      </g>
     </g>
    </g>
    <g id="ytick_2">
     <g id="line2d_15">
      <path d="M 100.8 45.027377 
L 987.84 45.027377 
" clip-path="url(#p8c59c71f2a)" style="fill: none; stroke-dasharray: 1.85,0.8; stroke-dashoffset: 0; stroke: #b2b2b2; stroke-width: 0.5"/>
     </g>
     <g id="line2d_16">
      <g>
       <use xlink:href="#md3fd073dd8" x="100.8" y="45.027377" style="stroke: #000000; stroke-width: 0.8"/>
      </g>
     </g>
     <g id="text_2">
      <!-- 0 V -->
      <g transform="translate(74.36625 50.346284) scale(0.14 -0.14)">
       <use xlink:href="#DejaVuSans-30"/>
       <use xlink:href="#DejaVuSans-20" x="63.623047"/>
       <use xlink:href="#DejaVuSans-56" x="95.410156"/>
      </g>
     </g>
    </g>
    <g id="text_3">
     <g id="patch_3">
      <path d="M 34.8768 131.080205 
L 34.8768 39.41083 
L 11.247425 39.41083 
L 11.247425 131.080205 
z
" style="fill: #ffff00; opacity: 0.2; stroke: #eeeeee; stroke-width: 0.5; stroke-linejoin: miter"/>
     </g>
     <!-- VPULSE BBI -->
     <g transform="translate(26.925238 126.040205) rotate(-90) scale(0.14 -0.14)">
      <defs>
       <path id="DejaVuSans-50" d="M 1259 4147 
L 1259 2394 
L 2053 2394 
Q 2494 2394 2734 2622 
Q 2975 2850 2975 3272 
Q 2975 3691 2734 3919 
Q 2494 4147 2053 4147 
L 1259 4147 
z
M 628 4666 
L 2053 4666 
Q 2838 4666 3239 4311 
Q 3641 3956 3641 3272 
Q 3641 2581 3239 2228 
Q 2838 1875 2053 1875 
L 1259 1875 
L 1259 0 
L 628 0 
L 628 4666 
z
" transform="scale(0.015625)"/>
       <path id="DejaVuSans-55" d="M 556 4666 
L 1191 4666 
L 1191 1831 
Q 1191 1081 1462 751 
Q 1734 422 2344 422 
Q 2950 422 3222 751 
Q 3494 1081 3494 1831 
L 3494 4666 
L 4128 4666 
L 4128 1753 
Q 4128 841 3676 375 
Q 3225 -91 2344 -91 
Q 1459 -91 1007 375 
Q 556 841 556 1753 
L 556 4666 
z
" transform="scale(0.015625)"/>
       <path id="DejaVuSans-4c" d="M 628 4666 
L 1259 4666 
L 1259 531 
L 3531 531 
L 3531 0 
L 628 0 
L 628 4666 
z
" transform="scale(0.015625)"/>
       <path id="DejaVuSans-53" d="M 3425 4513 
L 3425 3897 
Q 3066 4069 2747 4153 
Q 2428 4238 2131 4238 
Q 1616 4238 1336 4038 
Q 1056 3838 1056 3469 
Q 1056 3159 1242 3001 
Q 1428 2844 1947 2747 
L 2328 2669 
Q 3034 2534 3370 2195 
Q 3706 1856 3706 1288 
Q 3706 609 3251 259 
Q 2797 -91 1919 -91 
Q 1588 -91 1214 -16 
Q 841 59 441 206 
L 441 856 
Q 825 641 1194 531 
Q 1563 422 1919 422 
Q 2459 422 2753 634 
Q 3047 847 3047 1241 
Q 3047 1584 2836 1778 
Q 2625 1972 2144 2069 
L 1759 2144 
Q 1053 2284 737 2584 
Q 422 2884 422 3419 
Q 422 4038 858 4394 
Q 1294 4750 2059 4750 
Q 2388 4750 2728 4690 
Q 3069 4631 3425 4513 
z
" transform="scale(0.015625)"/>
       <path id="DejaVuSans-45" d="M 628 4666 
L 3578 4666 
L 3578 4134 
L 1259 4134 
L 1259 2753 
L 3481 2753 
L 3481 2222 
L 1259 2222 
L 1259 531 
L 3634 531 
L 3634 0 
L 628 0 
L 628 4666 
z
" transform="scale(0.015625)"/>
       <path id="DejaVuSans-42" d="M 1259 2228 
L 1259 519 
L 2272 519 
Q 2781 519 3026 730 
Q 3272 941 3272 1375 
Q 3272 1813 3026 2020 
Q 2781 2228 2272 2228 
L 1259 2228 
z
M 1259 4147 
L 1259 2741 
L 2194 2741 
Q 2656 2741 2882 2914 
Q 3109 3088 3109 3444 
Q 3109 3797 2882 3972 
Q 2656 4147 2194 4147 
L 1259 4147 
z
M 628 4666 
L 2241 4666 
Q 2963 4666 3353 4366 
Q 3744 4066 3744 3513 
Q 3744 3084 3544 2831 
Q 3344 2578 2956 2516 
Q 3422 2416 3680 2098 
Q 3938 1781 3938 1306 
Q 3938 681 3513 340 
Q 3088 0 2303 0 
L 628 0 
L 628 4666 
z
" transform="scale(0.015625)"/>
       <path id="DejaVuSans-49" d="M 628 4666 
L 1259 4666 
L 1259 0 
L 628 0 
L 628 4666 
z
" transform="scale(0.015625)"/>
      </defs>
      <use xlink:href="#DejaVuSans-56"/>
      <use xlink:href="#DejaVuSans-50" x="68.408203"/>
      <use xlink:href="#DejaVuSans-55" x="128.710938"/>
      <use xlink:href="#DejaVuSans-4c" x="201.904297"/>
      <use xlink:href="#DejaVuSans-53" x="257.617188"/>
      <use xlink:href="#DejaVuSans-45" x="321.09375"/>
      <use xlink:href="#DejaVuSans-20" x="384.277344"/>
      <use xlink:href="#DejaVuSans-42" x="416.064453"/>
      <use xlink:href="#DejaVuSans-42" x="484.667969"/>
      <use xlink:href="#DejaVuSans-49" x="553.271484"/>
     </g>
    </g>
   </g>
   <g id="line2d_17">
    <path d="M 141.12 45.027377 
L 215.341056 45.136282 
L 215.824896 46.425538 
L 224.050176 69.006772 
L 231.469056 89.863624 
L 233.081856 94.440546 
L 234.888192 99.673219 
L 238.37184 110.807642 
L 239.952384 115.853719 
L 241.210368 119.566971 
L 242.436096 120.153414 
L 243.274752 120.545265 
L 244.306944 121.017085 
L 244.887552 121.272988 
L 245.758464 121.656841 
L 246.339072 121.912744 
L 247.177728 122.269941 
L 248.758272 122.936354 
L 249.403392 123.202919 
L 250.500096 123.629423 
L 251.241984 123.922644 
L 252.338688 124.349149 
L 253.241856 124.677024 
L 253.919232 124.943589 
L 254.725632 125.25547 
L 256.080384 125.804594 
L 258.725376 126.790885 
L 259.33824 127.022796 
L 261.2736 127.395987 
L 279.756288 127.289361 
L 279.98208 126.801547 
L 298.271232 75.087922 
L 302.012928 63.292417 
L 305.722368 51.617666 
L 310.334976 49.3412 
L 315.689472 46.984578 
L 324.398592 43.484472 
L 325.269504 43.268927 
L 339.558912 43.108189 
L 346.364928 43.184799 
L 361.718784 43.746186 
L 389.4912 44.46146 
L 415.13472 44.774399 
L 450.745344 44.945888 
L 498.774528 44.953885 
L 947.52 44.953885 
L 947.52 44.953885 
" clip-path="url(#p8c59c71f2a)" style="fill: none; stroke: #ff0000; stroke-width: 2; stroke-linecap: square"/>
   </g>
   <g id="patch_4">
    <path d="M 100.8 131.611034 
L 100.8 38.88 
" style="fill: none; stroke: #bcbcbc; stroke-width: 0.8; stroke-linejoin: miter; stroke-linecap: square"/>
   </g>
   <g id="patch_5">
    <path d="M 987.84 131.611034 
L 987.84 38.88 
" style="fill: none; stroke: #bcbcbc; stroke-width: 0.8; stroke-linejoin: miter; stroke-linecap: square"/>
   </g>
   <g id="patch_6">
    <path d="M 100.8 131.611034 
L 987.84 131.611034 
" style="fill: none; stroke: #bcbcbc; stroke-width: 0.8; stroke-linejoin: miter; stroke-linecap: square"/>
   </g>
   <g id="patch_7">
    <path d="M 100.8 38.88 
L 987.84 38.88 
" style="fill: none; stroke: #bcbcbc; stroke-width: 0.8; stroke-linejoin: miter; stroke-linecap: square"/>
   </g>
  </g>
  <g id="axes_2">
   <g id="patch_8">
    <path d="M 100.8 242.888276 
L 987.84 242.888276 
L 987.84 150.157241 
L 100.8 150.157241 
z
" style="fill: #eeeeee"/>
   </g>
   <g id="matplotlib.axis_3">
    <g id="xtick_7">
     <g id="line2d_18">
      <path d="M 141.12 242.888276 
L 141.12 150.157241 
" clip-path="url(#pd3df3b2094)" style="fill: none; stroke-dasharray: 1.85,0.8; stroke-dashoffset: 0; stroke: #b2b2b2; stroke-width: 0.5"/>
     </g>
     <g id="line2d_19">
      <g>
       <use xlink:href="#m12e949d85a" x="141.12" y="242.888276" style="stroke: #000000; stroke-width: 0.8"/>
      </g>
     </g>
    </g>
    <g id="xtick_8">
     <g id="line2d_20">
      <path d="M 302.4 242.888276 
L 302.4 150.157241 
" clip-path="url(#pd3df3b2094)" style="fill: none; stroke-dasharray: 1.85,0.8; stroke-dashoffset: 0; stroke: #b2b2b2; stroke-width: 0.5"/>
     </g>
     <g id="line2d_21">
      <g>
       <use xlink:href="#m12e949d85a" x="302.4" y="242.888276" style="stroke: #000000; stroke-width: 0.8"/>
      </g>
     </g>
    </g>
    <g id="xtick_9">
     <g id="line2d_22">
      <path d="M 463.68 242.888276 
L 463.68 150.157241 
" clip-path="url(#pd3df3b2094)" style="fill: none; stroke-dasharray: 1.85,0.8; stroke-dashoffset: 0; stroke: #b2b2b2; stroke-width: 0.5"/>
     </g>
     <g id="line2d_23">
      <g>
       <use xlink:href="#m12e949d85a" x="463.68" y="242.888276" style="stroke: #000000; stroke-width: 0.8"/>
      </g>
     </g>
    </g>
    <g id="xtick_10">
     <g id="line2d_24">
      <path d="M 624.96 242.888276 
L 624.96 150.157241 
" clip-path="url(#pd3df3b2094)" style="fill: none; stroke-dasharray: 1.85,0.8; stroke-dashoffset: 0; stroke: #b2b2b2; stroke-width: 0.5"/>
     </g>
     <g id="line2d_25">
      <g>
       <use xlink:href="#m12e949d85a" x="624.96" y="242.888276" style="stroke: #000000; stroke-width: 0.8"/>
      </g>
     </g>
    </g>
    <g id="xtick_11">
     <g id="line2d_26">
      <path d="M 786.24 242.888276 
L 786.24 150.157241 
" clip-path="url(#pd3df3b2094)" style="fill: none; stroke-dasharray: 1.85,0.8; stroke-dashoffset: 0; stroke: #b2b2b2; stroke-width: 0.5"/>
     </g>
     <g id="line2d_27">
      <g>
       <use xlink:href="#m12e949d85a" x="786.24" y="242.888276" style="stroke: #000000; stroke-width: 0.8"/>
      </g>
     </g>
    </g>
    <g id="xtick_12">
     <g id="line2d_28">
      <path d="M 947.52 242.888276 
L 947.52 150.157241 
" clip-path="url(#pd3df3b2094)" style="fill: none; stroke-dasharray: 1.85,0.8; stroke-dashoffset: 0; stroke: #b2b2b2; stroke-width: 0.5"/>
     </g>
     <g id="line2d_29">
      <g>
       <use xlink:href="#m12e949d85a" x="947.52" y="242.888276" style="stroke: #000000; stroke-width: 0.8"/>
      </g>
     </g>
    </g>
   </g>
   <g id="matplotlib.axis_4">
    <g id="ytick_3">
     <g id="line2d_30">
      <path d="M 100.8 214.321414 
L 987.84 214.321414 
" clip-path="url(#pd3df3b2094)" style="fill: none; stroke-dasharray: 1.85,0.8; stroke-dashoffset: 0; stroke: #b2b2b2; stroke-width: 0.5"/>
     </g>
     <g id="line2d_31">
      <g>
       <use xlink:href="#md3fd073dd8" x="100.8" y="214.321414" style="stroke: #000000; stroke-width: 0.8"/>
      </g>
     </g>
     <g id="text_4">
      <!-- 0 V -->
      <g transform="translate(74.36625 219.64032) scale(0.14 -0.14)">
       <use xlink:href="#DejaVuSans-30"/>
       <use xlink:href="#DejaVuSans-20" x="63.623047"/>
       <use xlink:href="#DejaVuSans-56" x="95.410156"/>
      </g>
     </g>
    </g>
    <g id="ytick_4">
     <g id="line2d_32">
      <path d="M 100.8 171.933571 
L 987.84 171.933571 
" clip-path="url(#pd3df3b2094)" style="fill: none; stroke-dasharray: 1.85,0.8; stroke-dashoffset: 0; stroke: #b2b2b2; stroke-width: 0.5"/>
     </g>
     <g id="line2d_33">
      <g>
       <use xlink:href="#md3fd073dd8" x="100.8" y="171.933571" style="stroke: #000000; stroke-width: 0.8"/>
      </g>
     </g>
     <g id="text_5">
      <!-- 1 V -->
      <g transform="translate(74.36625 177.252478) scale(0.14 -0.14)">
       <defs>
        <path id="DejaVuSans-31" d="M 794 531 
L 1825 531 
L 1825 4091 
L 703 3866 
L 703 4441 
L 1819 4666 
L 2450 4666 
L 2450 531 
L 3481 531 
L 3481 0 
L 794 0 
L 794 531 
z
" transform="scale(0.015625)"/>
       </defs>
       <use xlink:href="#DejaVuSans-31"/>
       <use xlink:href="#DejaVuSans-20" x="63.623047"/>
       <use xlink:href="#DejaVuSans-56" x="95.410156"/>
      </g>
     </g>
    </g>
    <g id="text_6">
     <g id="patch_9">
      <path d="M 34.8768 224.531509 
L 34.8768 168.514009 
L 11.247425 168.514009 
L 11.247425 224.531509 
z
" style="fill: #ffff00; opacity: 0.2; stroke: #eeeeee; stroke-width: 0.5; stroke-linejoin: miter"/>
     </g>
     <!-- DFF IN -->
     <g transform="translate(26.925238 219.491509) rotate(-90) scale(0.14 -0.14)">
      <defs>
       <path id="DejaVuSans-44" d="M 1259 4147 
L 1259 519 
L 2022 519 
Q 2988 519 3436 956 
Q 3884 1394 3884 2338 
Q 3884 3275 3436 3711 
Q 2988 4147 2022 4147 
L 1259 4147 
z
M 628 4666 
L 1925 4666 
Q 3281 4666 3915 4102 
Q 4550 3538 4550 2338 
Q 4550 1131 3912 565 
Q 3275 0 1925 0 
L 628 0 
L 628 4666 
z
" transform="scale(0.015625)"/>
       <path id="DejaVuSans-46" d="M 628 4666 
L 3309 4666 
L 3309 4134 
L 1259 4134 
L 1259 2759 
L 3109 2759 
L 3109 2228 
L 1259 2228 
L 1259 0 
L 628 0 
L 628 4666 
z
" transform="scale(0.015625)"/>
       <path id="DejaVuSans-4e" d="M 628 4666 
L 1478 4666 
L 3547 763 
L 3547 4666 
L 4159 4666 
L 4159 0 
L 3309 0 
L 1241 3903 
L 1241 0 
L 628 0 
L 628 4666 
z
" transform="scale(0.015625)"/>
      </defs>
      <use xlink:href="#DejaVuSans-44"/>
      <use xlink:href="#DejaVuSans-46" x="77.001953"/>
      <use xlink:href="#DejaVuSans-46" x="134.521484"/>
      <use xlink:href="#DejaVuSans-20" x="192.041016"/>
      <use xlink:href="#DejaVuSans-49" x="223.828125"/>
      <use xlink:href="#DejaVuSans-4e" x="253.320312"/>
     </g>
    </g>
   </g>
   <g id="line2d_34">
    <path d="M 141.12 214.25951 
L 215.373312 214.333392 
L 216.728064 215.979372 
L 217.276416 216.4826 
L 218.5344 217.229728 
L 219.566592 217.534242 
L 221.082624 217.73088 
L 221.985792 217.768562 
L 222.24384 216.26265 
L 223.405056 209.971149 
L 224.437248 205.884114 
L 225.95328 200.99298 
L 226.727424 199.06942 
L 227.469312 197.77871 
L 227.791872 197.518449 
L 228.04992 197.854585 
L 228.404736 199.087223 
L 229.630464 205.64547 
L 231.469056 213.843406 
L 231.856128 215.595253 
L 232.307712 217.116214 
L 233.662464 221.751578 
L 234.081792 222.724803 
L 234.50112 223.293648 
L 234.694656 223.731514 
L 235.081728 225.041299 
L 235.565568 226.311662 
L 235.662336 226.410002 
L 236.59776 228.904103 
L 237.017088 229.588667 
L 237.468672 230.884887 
L 238.081536 232.298521 
L 238.952448 234.317878 
L 239.468544 235.368249 
L 239.726592 235.876055 
L 240.694272 237.900498 
L 241.049088 238.489266 
L 241.210368 238.673229 
L 242.113536 237.452035 
L 242.40384 236.802229 
L 242.790912 235.780259 
L 242.88768 235.714557 
L 243.081216 235.443699 
L 244.17792 233.638825 
L 244.564992 232.990715 
L 244.790784 232.848292 
L 244.887552 232.687218 
L 245.113344 232.51046 
L 245.726208 231.989514 
L 246.468096 231.009083 
L 246.822912 230.215159 
L 247.177728 229.804845 
L 247.209984 229.832397 
L 247.435776 229.727699 
L 247.693824 229.457688 
L 248.306688 229.032114 
L 249.1776 227.979624 
L 249.887232 226.8076 
L 249.919488 226.83049 
L 250.048512 226.84914 
L 250.30656 226.588879 
L 251.048448 226.056488 
L 252.177408 224.686936 
L 252.499968 223.961257 
L 252.822528 223.753556 
L 252.951552 223.76712 
L 253.2096 223.666661 
L 253.69344 223.275845 
L 255.403008 221.339569 
L 255.725568 220.826252 
L 255.919104 220.815655 
L 257.015808 220.084465 
L 260.434944 216.696531 
L 261.402624 215.383229 
L 262.015488 214.264359 
L 262.950912 212.68448 
L 263.85408 211.093579 
L 264.17664 210.48879 
L 266.079744 207.333778 
L 267.434496 205.268218 
L 269.111808 202.997925 
L 269.273088 202.807604 
L 270.176256 202.18747 
L 270.9504 201.981041 
L 271.11168 202.002235 
L 271.982592 202.193404 
L 272.659968 202.636781 
L 274.176 204.32085 
L 274.65984 205.099091 
L 278.175744 210.404523 
L 279.143424 211.287673 
L 279.853056 211.71134 
L 281.143296 210.438602 
L 282.788352 209.837628 
L 283.788288 209.700291 
L 285.110784 209.705378 
L 286.562304 209.900362 
L 286.884864 209.944445 
L 287.852544 210.119125 
L 288.239616 210.171813 
L 288.85248 210.269517 
L 289.400832 210.350478 
L 289.884672 210.411517 
L 290.594304 210.530711 
L 291.045888 210.561061 
L 291.852288 210.646811 
L 293.85216 210.852901 
L 298.077696 211.031184 
L 298.561536 211.052633 
L 299.045376 211.045893 
L 300.690432 210.787242 
L 300.980736 210.73129 
L 301.948416 210.614682 
L 302.335488 210.573311 
L 303.238656 210.452124 
L 303.69024 210.397105 
L 304.303104 210.313558 
L 304.851456 210.231411 
L 305.367552 210.147483 
L 305.722368 210.234039 
L 306.432 210.982523 
L 307.335168 211.791961 
L 307.851264 212.128902 
L 308.399616 212.370344 
L 309.270528 212.686854 
L 309.593088 212.751961 
L 311.205888 213.049905 
L 315.818496 213.478531 
L 325.398528 213.992475 
L 325.850112 214.110199 
L 326.979072 214.276156 
L 327.301632 214.297913 
L 328.237056 214.396639 
L 328.656384 214.43709 
L 329.527296 214.481165 
L 329.914368 214.50444 
L 330.849792 214.525926 
L 331.172352 214.529322 
L 332.462592 214.559824 
L 332.817408 214.577279 
L 334.075392 214.615284 
L 334.365696 214.612131 
L 336.2688 214.632511 
L 336.59136 214.647062 
L 339.17184 214.654417 
L 347.71968 214.632905 
L 350.46144 180.15215 
L 351.75168 168.233113 
L 352.71936 160.900016 
L 353.332224 157.869285 
L 353.783808 156.453531 
L 354.428928 155.249717 
L 355.203072 154.596944 
L 356.4288 154.389244 
L 357.07392 154.444348 
L 358.751232 154.774973 
L 359.49312 154.953002 
L 360.396288 155.181896 
L 361.202688 155.389597 
L 361.718784 155.499805 
L 365.331456 156.339084 
L 365.815296 156.445054 
L 366.460416 156.589173 
L 366.976512 156.699381 
L 369.00864 157.119021 
L 369.556992 157.220751 
L 370.202112 157.360631 
L 370.814976 157.47084 
L 371.363328 157.57257 
L 372.008448 157.682779 
L 373.395456 157.937106 
L 374.00832 158.038837 
L 374.524416 158.127851 
L 375.105024 158.314358 
L 376.040448 161.044135 
L 376.42752 162.226756 
L 376.814592 162.604007 
L 377.104896 162.671828 
L 377.427456 162.574336 
L 377.814528 162.252188 
L 379.233792 160.912732 
L 380.814336 160.200617 
L 381.782016 160.060737 
L 382.846464 160.031065 
L 383.781888 160.04802 
L 384.523776 160.056498 
L 385.039872 160.081931 
L 385.878528 160.077692 
L 386.813952 160.090408 
L 389.587968 160.196378 
L 390.168576 160.238766 
L 391.652352 160.348974 
L 392.23296 160.387123 
L 392.749056 160.425272 
L 395.232768 160.645689 
L 395.716608 160.688077 
L 397.780992 160.853389 
L 398.297088 160.891539 
L 400.29696 161.048374 
L 400.877568 161.078045 
L 402.683904 161.209447 
L 403.2 161.251835 
L 404.780544 161.349327 
L 405.361152 161.383237 
L 406.844928 161.489207 
L 407.167488 161.501923 
L 407.71584 161.540073 
L 409.231872 161.629087 
L 411.199488 161.739295 
L 411.683328 161.760489 
L 412.23168 161.798638 
L 413.392896 161.845265 
L 413.941248 161.879175 
L 415.166976 161.930041 
L 415.425024 161.853743 
L 415.876608 161.205209 
L 416.26368 160.908494 
L 416.941056 160.755897 
L 417.328128 160.811002 
L 418.005504 161.005986 
L 418.747392 161.273029 
L 421.843968 161.972428 
L 424.424448 162.201323 
L 426.069504 162.311531 
L 427.359744 162.370874 
L 430.359552 162.481083 
L 431.456256 162.519232 
L 432.198144 162.531948 
L 435.843072 162.637918 
L 436.294656 162.642156 
L 437.23008 162.654873 
L 437.8752 162.680305 
L 443.35872 162.786275 
L 443.907072 162.820185 
L 451.003392 162.930394 
L 451.487232 162.94311 
L 455.745024 163.032125 
L 456.293376 163.761195 
L 456.712704 164.053672 
L 457.615872 164.299521 
L 460.099584 163.862926 
L 461.970432 163.485674 
L 465.228288 163.167766 
L 472.22784 163.057557 
L 473.098752 163.053318 
L 496.065024 162.94311 
L 496.548864 162.28186 
L 497.129472 161.887653 
L 498.290688 161.845265 
L 501.90336 162.680305 
L 504 162.845618 
L 509.773824 162.955826 
L 510.676992 162.964304 
L 536.385024 163.040602 
L 537.0624 163.909553 
L 537.772032 164.244417 
L 539.094528 164.307999 
L 539.997696 164.19779 
L 541.384704 163.905314 
L 542.86848 163.629793 
L 547.70688 163.104184 
L 576.672768 163.002453 
L 577.285632 162.167413 
L 577.672704 161.955473 
L 578.1888 161.802877 
L 579.188736 161.913086 
L 580.027392 162.133502 
L 582.38208 162.637918 
L 584.96256 162.866812 
L 611.73504 162.97702 
L 612.605952 162.981259 
L 617.025024 163.040602 
L 617.605632 163.820538 
L 617.992704 164.070627 
L 618.766848 164.261372 
L 620.863488 164.151164 
L 622.250496 163.858687 
L 623.637504 163.608599 
L 628.282368 163.108423 
L 657.312768 162.998214 
L 657.828864 162.260666 
L 658.377216 161.891892 
L 659.667456 161.832549 
L 663.50592 162.726932 
L 665.473536 162.87529 
L 697.600512 162.981259 
L 697.729536 163.150811 
L 698.245632 163.820538 
L 698.632704 164.070627 
L 699.406848 164.261372 
L 700.697088 164.320715 
L 702.116352 164.024 
L 703.922688 163.663703 
L 709.051392 163.099945 
L 737.952768 162.998214 
L 738.468864 162.260666 
L 739.017216 161.891892 
L 740.307456 161.832549 
L 744.14592 162.726932 
L 746.145792 162.879528 
L 778.240512 162.981259 
L 778.369536 163.150811 
L 778.885632 163.820538 
L 779.272704 164.070627 
L 780.046848 164.261372 
L 782.143488 164.151164 
L 783.530496 163.858687 
L 784.917504 163.608599 
L 789.562368 163.108423 
L 818.592768 162.998214 
L 819.108864 162.260666 
L 819.657216 161.891892 
L 820.947456 161.832549 
L 824.78592 162.726932 
L 826.753536 162.87529 
L 858.880512 162.981259 
L 859.009536 163.150811 
L 859.525632 163.820538 
L 859.912704 164.070627 
L 860.686848 164.261372 
L 861.977088 164.320715 
L 863.396352 164.024 
L 865.202688 163.663703 
L 870.331392 163.099945 
L 899.232768 162.998214 
L 899.748864 162.260666 
L 900.297216 161.891892 
L 901.587456 161.832549 
L 905.42592 162.726932 
L 907.425792 162.879528 
L 939.520512 162.981259 
L 939.649536 163.155049 
L 940.133376 163.786628 
L 940.58496 164.062149 
L 941.294592 164.316476 
L 943.32672 164.206268 
L 945.939456 163.634032 
L 947.52 163.324601 
L 947.52 163.324601 
" clip-path="url(#pd3df3b2094)" style="fill: none; stroke: #008000; stroke-width: 2; stroke-linecap: square"/>
   </g>
   <g id="patch_10">
    <path d="M 100.8 242.888276 
L 100.8 150.157241 
" style="fill: none; stroke: #bcbcbc; stroke-width: 0.8; stroke-linejoin: miter; stroke-linecap: square"/>
   </g>
   <g id="patch_11">
    <path d="M 987.84 242.888276 
L 987.84 150.157241 
" style="fill: none; stroke: #bcbcbc; stroke-width: 0.8; stroke-linejoin: miter; stroke-linecap: square"/>
   </g>
   <g id="patch_12">
    <path d="M 100.8 242.888276 
L 987.84 242.888276 
" style="fill: none; stroke: #bcbcbc; stroke-width: 0.8; stroke-linejoin: miter; stroke-linecap: square"/>
   </g>
   <g id="patch_13">
    <path d="M 100.8 150.157241 
L 987.84 150.157241 
" style="fill: none; stroke: #bcbcbc; stroke-width: 0.8; stroke-linejoin: miter; stroke-linecap: square"/>
   </g>
  </g>
  <g id="axes_3">
   <g id="patch_14">
    <path d="M 100.8 354.165517 
L 987.84 354.165517 
L 987.84 261.434483 
L 100.8 261.434483 
z
" style="fill: #eeeeee"/>
   </g>
   <g id="matplotlib.axis_5">
    <g id="xtick_13">
     <g id="line2d_35">
      <path d="M 141.12 354.165517 
L 141.12 261.434483 
" clip-path="url(#p7225ac5b66)" style="fill: none; stroke-dasharray: 1.85,0.8; stroke-dashoffset: 0; stroke: #b2b2b2; stroke-width: 0.5"/>
     </g>
     <g id="line2d_36">
      <g>
       <use xlink:href="#m12e949d85a" x="141.12" y="354.165517" style="stroke: #000000; stroke-width: 0.8"/>
      </g>
     </g>
    </g>
    <g id="xtick_14">
     <g id="line2d_37">
      <path d="M 302.4 354.165517 
L 302.4 261.434483 
" clip-path="url(#p7225ac5b66)" style="fill: none; stroke-dasharray: 1.85,0.8; stroke-dashoffset: 0; stroke: #b2b2b2; stroke-width: 0.5"/>
     </g>
     <g id="line2d_38">
      <g>
       <use xlink:href="#m12e949d85a" x="302.4" y="354.165517" style="stroke: #000000; stroke-width: 0.8"/>
      </g>
     </g>
    </g>
    <g id="xtick_15">
     <g id="line2d_39">
      <path d="M 463.68 354.165517 
L 463.68 261.434483 
" clip-path="url(#p7225ac5b66)" style="fill: none; stroke-dasharray: 1.85,0.8; stroke-dashoffset: 0; stroke: #b2b2b2; stroke-width: 0.5"/>
     </g>
     <g id="line2d_40">
      <g>
       <use xlink:href="#m12e949d85a" x="463.68" y="354.165517" style="stroke: #000000; stroke-width: 0.8"/>
      </g>
     </g>
    </g>
    <g id="xtick_16">
     <g id="line2d_41">
      <path d="M 624.96 354.165517 
L 624.96 261.434483 
" clip-path="url(#p7225ac5b66)" style="fill: none; stroke-dasharray: 1.85,0.8; stroke-dashoffset: 0; stroke: #b2b2b2; stroke-width: 0.5"/>
     </g>
     <g id="line2d_42">
      <g>
       <use xlink:href="#m12e949d85a" x="624.96" y="354.165517" style="stroke: #000000; stroke-width: 0.8"/>
      </g>
     </g>
    </g>
    <g id="xtick_17">
     <g id="line2d_43">
      <path d="M 786.24 354.165517 
L 786.24 261.434483 
" clip-path="url(#p7225ac5b66)" style="fill: none; stroke-dasharray: 1.85,0.8; stroke-dashoffset: 0; stroke: #b2b2b2; stroke-width: 0.5"/>
     </g>
     <g id="line2d_44">
      <g>
       <use xlink:href="#m12e949d85a" x="786.24" y="354.165517" style="stroke: #000000; stroke-width: 0.8"/>
      </g>
     </g>
    </g>
    <g id="xtick_18">
     <g id="line2d_45">
      <path d="M 947.52 354.165517 
L 947.52 261.434483 
" clip-path="url(#p7225ac5b66)" style="fill: none; stroke-dasharray: 1.85,0.8; stroke-dashoffset: 0; stroke: #b2b2b2; stroke-width: 0.5"/>
     </g>
     <g id="line2d_46">
      <g>
       <use xlink:href="#m12e949d85a" x="947.52" y="354.165517" style="stroke: #000000; stroke-width: 0.8"/>
      </g>
     </g>
    </g>
   </g>
   <g id="matplotlib.axis_6">
    <g id="ytick_5">
     <g id="line2d_47">
      <path d="M 100.8 343.850197 
L 987.84 343.850197 
" clip-path="url(#p7225ac5b66)" style="fill: none; stroke-dasharray: 1.85,0.8; stroke-dashoffset: 0; stroke: #b2b2b2; stroke-width: 0.5"/>
     </g>
     <g id="line2d_48">
      <g>
       <use xlink:href="#md3fd073dd8" x="100.8" y="343.850197" style="stroke: #000000; stroke-width: 0.8"/>
      </g>
     </g>
     <g id="text_7">
      <!-- 0 V -->
      <g transform="translate(74.36625 349.169103) scale(0.14 -0.14)">
       <use xlink:href="#DejaVuSans-30"/>
       <use xlink:href="#DejaVuSans-20" x="63.623047"/>
       <use xlink:href="#DejaVuSans-56" x="95.410156"/>
      </g>
     </g>
    </g>
    <g id="ytick_6">
     <g id="line2d_49">
      <path d="M 100.8 296.064882 
L 987.84 296.064882 
" clip-path="url(#p7225ac5b66)" style="fill: none; stroke-dasharray: 1.85,0.8; stroke-dashoffset: 0; stroke: #b2b2b2; stroke-width: 0.5"/>
     </g>
     <g id="line2d_50">
      <g>
       <use xlink:href="#md3fd073dd8" x="100.8" y="296.064882" style="stroke: #000000; stroke-width: 0.8"/>
      </g>
     </g>
     <g id="text_8">
      <!-- 1 V -->
      <g transform="translate(74.36625 301.383789) scale(0.14 -0.14)">
       <use xlink:href="#DejaVuSans-31"/>
       <use xlink:href="#DejaVuSans-20" x="63.623047"/>
       <use xlink:href="#DejaVuSans-56" x="95.410156"/>
      </g>
     </g>
    </g>
    <g id="text_9">
     <g id="patch_15">
      <path d="M 34.8768 342.395313 
L 34.8768 273.204688 
L 11.247425 273.204688 
L 11.247425 342.395313 
z
" style="fill: #ffff00; opacity: 0.2; stroke: #eeeeee; stroke-width: 0.5; stroke-linejoin: miter"/>
     </g>
     <!-- CLK BUF -->
     <g transform="translate(26.925238 337.355313) rotate(-90) scale(0.14 -0.14)">
      <defs>
       <path id="DejaVuSans-43" d="M 4122 4306 
L 4122 3641 
Q 3803 3938 3442 4084 
Q 3081 4231 2675 4231 
Q 1875 4231 1450 3742 
Q 1025 3253 1025 2328 
Q 1025 1406 1450 917 
Q 1875 428 2675 428 
Q 3081 428 3442 575 
Q 3803 722 4122 1019 
L 4122 359 
Q 3791 134 3420 21 
Q 3050 -91 2638 -91 
Q 1578 -91 968 557 
Q 359 1206 359 2328 
Q 359 3453 968 4101 
Q 1578 4750 2638 4750 
Q 3056 4750 3426 4639 
Q 3797 4528 4122 4306 
z
" transform="scale(0.015625)"/>
       <path id="DejaVuSans-4b" d="M 628 4666 
L 1259 4666 
L 1259 2694 
L 3353 4666 
L 4166 4666 
L 1850 2491 
L 4331 0 
L 3500 0 
L 1259 2247 
L 1259 0 
L 628 0 
L 628 4666 
z
" transform="scale(0.015625)"/>
      </defs>
      <use xlink:href="#DejaVuSans-43"/>
      <use xlink:href="#DejaVuSans-4c" x="69.824219"/>
      <use xlink:href="#DejaVuSans-4b" x="125.537109"/>
      <use xlink:href="#DejaVuSans-20" x="191.113281"/>
      <use xlink:href="#DejaVuSans-42" x="222.900391"/>
      <use xlink:href="#DejaVuSans-55" x="291.503906"/>
      <use xlink:href="#DejaVuSans-46" x="364.697266"/>
     </g>
    </g>
   </g>
   <g id="line2d_51">
    <path d="M 141.12 343.848934 
L 173.376 343.848934 
L 173.601792 286.50782 
L 213.696 286.50782 
L 213.728256 293.967107 
L 213.85728 343.754602 
L 213.986304 343.847687 
L 215.437824 344.025426 
L 216.050688 344.659441 
L 216.824832 345.110391 
L 217.824768 345.390222 
L 219.211776 345.521249 
L 221.824512 345.503617 
L 233.823744 345.306646 
L 234.82368 345.708568 
L 237.984768 347.80123 
L 238.178304 347.941098 
L 240.823296 349.746905 
L 240.855552 349.69004 
L 240.887808 349.790867 
L 241.178112 349.880226 
L 241.790976 349.515146 
L 243.242496 348.817958 
L 243.274752 348.900149 
L 243.339264 348.833727 
L 243.85536 348.622182 
L 245.081088 348.137209 
L 245.242368 348.061803 
L 245.339136 348.052199 
L 254.016 345.170935 
L 254.048256 345.89106 
L 254.209536 319.519348 
L 254.370816 319.322473 
L 255.241728 318.959782 
L 255.273984 318.878069 
L 255.338496 318.961694 
L 255.822336 318.78441 
L 255.983616 318.729457 
L 256.59648 318.501521 
L 257.338368 318.218632 
L 260.176896 317.094722 
L 261.338112 316.441018 
L 262.8864 315.419846 
L 266.015232 313.149566 
L 271.885824 309.111229 
L 275.853312 306.71384 
L 279.530496 304.715936 
L 279.885312 304.421578 
L 281.240064 301.604156 
L 283.175424 296.942699 
L 287.529984 286.460034 
L 288.20736 284.916569 
L 289.949184 281.060294 
L 290.981376 278.833498 
L 294.336 272.062319 
L 294.561792 342.172694 
L 305.722368 342.534381 
L 306.335232 343.20132 
L 307.044864 343.659505 
L 307.948032 343.97721 
L 309.206016 344.177039 
L 311.399424 344.274306 
L 318.302208 344.268022 
L 326.10816 344.34683 
L 328.52736 344.400445 
L 334.656 344.336604 
L 334.785024 265.64953 
L 334.946304 266.194282 
L 336.236544 266.877612 
L 336.720384 267.164324 
L 338.236416 267.95756 
L 339.558912 268.612219 
L 343.04256 270.279927 
L 343.881216 270.647874 
L 350.816256 273.610563 
L 351.074304 273.720469 
L 352.912896 274.422914 
L 353.2032 274.53282 
L 354.396672 274.948552 
L 354.751488 275.058458 
L 355.94496 275.47419 
L 356.203008 275.579318 
L 356.622336 275.713117 
L 356.977152 275.818245 
L 357.39648 275.952044 
L 357.751296 276.057171 
L 358.267392 276.238755 
L 358.622208 276.343883 
L 359.041536 276.477682 
L 359.396352 276.58281 
L 359.81568 276.716609 
L 360.170496 276.821736 
L 360.525312 276.90775 
L 365.912064 278.389095 
L 366.363648 278.494222 
L 366.718464 278.580236 
L 369.202176 279.201445 
L 369.750528 279.306573 
L 370.105344 279.392586 
L 371.621376 279.727083 
L 372.169728 279.832211 
L 372.524544 279.918225 
L 373.04064 280.023352 
L 373.395456 280.104587 
L 374.976 280.405635 
L 375.008256 289.030884 
L 375.13728 344.043947 
L 375.29856 344.014774 
L 388.104192 343.960968 
L 391.974912 343.947172 
L 396.006912 343.935408 
L 415.296 343.895909 
L 415.45728 284.820998 
L 415.521792 284.840112 
L 416.199168 284.849669 
L 416.521728 284.887897 
L 417.166848 284.897454 
L 417.489408 284.930904 
L 420.069888 285.04081 
L 420.392448 285.07426 
L 423.36 285.184166 
L 423.68256 285.217616 
L 426.940416 285.327522 
L 427.262976 285.360972 
L 431.004672 285.470878 
L 431.327232 285.504328 
L 435.746304 285.614234 
L 436.068864 285.647684 
L 441.26208 285.75759 
L 441.58464 285.79104 
L 448.03584 285.900946 
L 448.3584 285.934396 
L 455.616 286.029966 
L 455.648256 290.545679 
L 455.712768 343.978782 
L 455.77728 343.691922 
L 455.874048 344.020566 
L 455.93856 343.870914 
L 456.712704 343.868199 
L 462.38976 343.862599 
L 495.936 343.862661 
L 496.09728 285.934396 
L 496.161792 286.049081 
L 497.032704 286.029966 
L 536.256 286.029966 
L 536.385024 344.215076 
L 536.546304 343.937219 
L 536.804352 343.8307 
L 537.159168 343.882683 
L 537.449472 343.862472 
L 571.640832 343.862614 
L 576.576 343.862618 
L 576.705024 285.834047 
L 576.769536 286.034745 
L 576.801792 286.087309 
L 576.866304 286.029966 
L 616.896 286.029966 
L 617.025024 344.215086 
L 617.186304 343.937219 
L 617.444352 343.8307 
L 617.799168 343.882683 
L 618.089472 343.862472 
L 652.280832 343.862614 
L 657.216 343.862618 
L 657.37728 285.781483 
L 657.441792 286.321457 
L 657.53856 285.834047 
L 657.603072 286.010852 
L 658.054656 286.029966 
L 697.536 286.029966 
L 697.665024 344.215282 
L 697.826304 343.937171 
L 698.084352 343.830711 
L 698.439168 343.882697 
L 698.729472 343.862473 
L 732.920832 343.862614 
L 737.856 343.862618 
L 738.01728 285.781483 
L 738.081792 286.321457 
L 738.17856 285.829268 
L 738.243072 286.010852 
L 738.694656 286.029966 
L 778.176 286.029966 
L 778.305024 344.21509 
L 778.466304 343.937219 
L 778.724352 343.830701 
L 779.079168 343.882683 
L 779.369472 343.862472 
L 813.560832 343.862614 
L 818.496 343.862618 
L 818.65728 285.781483 
L 818.721792 286.321457 
L 818.81856 285.829268 
L 818.883072 286.010852 
L 819.334656 286.029966 
L 858.816 286.029966 
L 858.945024 344.215282 
L 859.106304 343.937171 
L 859.364352 343.830711 
L 859.719168 343.882696 
L 860.009472 343.862473 
L 894.200832 343.862614 
L 899.136 343.862618 
L 899.29728 285.781483 
L 899.361792 286.321457 
L 899.45856 285.829268 
L 899.523072 286.010852 
L 899.974656 286.029966 
L 939.456 286.029966 
L 939.488256 294.645659 
L 939.61728 343.805788 
L 939.649536 343.944731 
L 939.714048 343.811798 
L 939.746304 343.76987 
L 939.810816 343.831541 
L 939.972096 343.926381 
L 940.004352 343.891213 
L 940.197888 343.861826 
L 945.1008 343.862627 
L 947.52 343.862607 
L 947.52 343.862607 
" clip-path="url(#p7225ac5b66)" style="fill: none; stroke: #0000ff; stroke-width: 2; stroke-linecap: square"/>
   </g>
   <g id="patch_16">
    <path d="M 100.8 354.165517 
L 100.8 261.434483 
" style="fill: none; stroke: #bcbcbc; stroke-width: 0.8; stroke-linejoin: miter; stroke-linecap: square"/>
   </g>
   <g id="patch_17">
    <path d="M 987.84 354.165517 
L 987.84 261.434483 
" style="fill: none; stroke: #bcbcbc; stroke-width: 0.8; stroke-linejoin: miter; stroke-linecap: square"/>
   </g>
   <g id="patch_18">
    <path d="M 100.8 354.165517 
L 987.84 354.165517 
" style="fill: none; stroke: #bcbcbc; stroke-width: 0.8; stroke-linejoin: miter; stroke-linecap: square"/>
   </g>
   <g id="patch_19">
    <path d="M 100.8 261.434483 
L 987.84 261.434483 
" style="fill: none; stroke: #bcbcbc; stroke-width: 0.8; stroke-linejoin: miter; stroke-linecap: square"/>
   </g>
  </g>
  <g id="axes_4">
   <g id="patch_20">
    <path d="M 100.8 465.442759 
L 987.84 465.442759 
L 987.84 372.711724 
L 100.8 372.711724 
z
" style="fill: #eeeeee"/>
   </g>
   <g id="matplotlib.axis_7">
    <g id="xtick_19">
     <g id="line2d_52">
      <path d="M 141.12 465.442759 
L 141.12 372.711724 
" clip-path="url(#p7e561c3ab4)" style="fill: none; stroke-dasharray: 1.85,0.8; stroke-dashoffset: 0; stroke: #b2b2b2; stroke-width: 0.5"/>
     </g>
     <g id="line2d_53">
      <g>
       <use xlink:href="#m12e949d85a" x="141.12" y="465.442759" style="stroke: #000000; stroke-width: 0.8"/>
      </g>
     </g>
    </g>
    <g id="xtick_20">
     <g id="line2d_54">
      <path d="M 302.4 465.442759 
L 302.4 372.711724 
" clip-path="url(#p7e561c3ab4)" style="fill: none; stroke-dasharray: 1.85,0.8; stroke-dashoffset: 0; stroke: #b2b2b2; stroke-width: 0.5"/>
     </g>
     <g id="line2d_55">
      <g>
       <use xlink:href="#m12e949d85a" x="302.4" y="465.442759" style="stroke: #000000; stroke-width: 0.8"/>
      </g>
     </g>
    </g>
    <g id="xtick_21">
     <g id="line2d_56">
      <path d="M 463.68 465.442759 
L 463.68 372.711724 
" clip-path="url(#p7e561c3ab4)" style="fill: none; stroke-dasharray: 1.85,0.8; stroke-dashoffset: 0; stroke: #b2b2b2; stroke-width: 0.5"/>
     </g>
     <g id="line2d_57">
      <g>
       <use xlink:href="#m12e949d85a" x="463.68" y="465.442759" style="stroke: #000000; stroke-width: 0.8"/>
      </g>
     </g>
    </g>
    <g id="xtick_22">
     <g id="line2d_58">
      <path d="M 624.96 465.442759 
L 624.96 372.711724 
" clip-path="url(#p7e561c3ab4)" style="fill: none; stroke-dasharray: 1.85,0.8; stroke-dashoffset: 0; stroke: #b2b2b2; stroke-width: 0.5"/>
     </g>
     <g id="line2d_59">
      <g>
       <use xlink:href="#m12e949d85a" x="624.96" y="465.442759" style="stroke: #000000; stroke-width: 0.8"/>
      </g>
     </g>
    </g>
    <g id="xtick_23">
     <g id="line2d_60">
      <path d="M 786.24 465.442759 
L 786.24 372.711724 
" clip-path="url(#p7e561c3ab4)" style="fill: none; stroke-dasharray: 1.85,0.8; stroke-dashoffset: 0; stroke: #b2b2b2; stroke-width: 0.5"/>
     </g>
     <g id="line2d_61">
      <g>
       <use xlink:href="#m12e949d85a" x="786.24" y="465.442759" style="stroke: #000000; stroke-width: 0.8"/>
      </g>
     </g>
    </g>
    <g id="xtick_24">
     <g id="line2d_62">
      <path d="M 947.52 465.442759 
L 947.52 372.711724 
" clip-path="url(#p7e561c3ab4)" style="fill: none; stroke-dasharray: 1.85,0.8; stroke-dashoffset: 0; stroke: #b2b2b2; stroke-width: 0.5"/>
     </g>
     <g id="line2d_63">
      <g>
       <use xlink:href="#m12e949d85a" x="947.52" y="465.442759" style="stroke: #000000; stroke-width: 0.8"/>
      </g>
     </g>
    </g>
   </g>
   <g id="matplotlib.axis_8">
    <g id="ytick_7">
     <g id="line2d_64">
      <path d="M 100.8 434.594924 
L 987.84 434.594924 
" clip-path="url(#p7e561c3ab4)" style="fill: none; stroke-dasharray: 1.85,0.8; stroke-dashoffset: 0; stroke: #b2b2b2; stroke-width: 0.5"/>
     </g>
     <g id="line2d_65">
      <g>
       <use xlink:href="#md3fd073dd8" x="100.8" y="434.594924" style="stroke: #000000; stroke-width: 0.8"/>
      </g>
     </g>
     <g id="text_10">
      <!-- 0 V -->
      <g transform="translate(74.36625 439.91383) scale(0.14 -0.14)">
       <use xlink:href="#DejaVuSans-30"/>
       <use xlink:href="#DejaVuSans-20" x="63.623047"/>
       <use xlink:href="#DejaVuSans-56" x="95.410156"/>
      </g>
     </g>
    </g>
    <g id="ytick_8">
     <g id="line2d_66">
      <path d="M 100.8 387.858436 
L 987.84 387.858436 
" clip-path="url(#p7e561c3ab4)" style="fill: none; stroke-dasharray: 1.85,0.8; stroke-dashoffset: 0; stroke: #b2b2b2; stroke-width: 0.5"/>
     </g>
     <g id="line2d_67">
      <g>
       <use xlink:href="#md3fd073dd8" x="100.8" y="387.858436" style="stroke: #000000; stroke-width: 0.8"/>
      </g>
     </g>
     <g id="text_11">
      <!-- 1 V -->
      <g transform="translate(74.36625 393.177342) scale(0.14 -0.14)">
       <use xlink:href="#DejaVuSans-31"/>
       <use xlink:href="#DejaVuSans-20" x="63.623047"/>
       <use xlink:href="#DejaVuSans-56" x="95.410156"/>
      </g>
     </g>
    </g>
    <g id="text_12">
     <g id="patch_21">
      <path d="M 34.8768 454.693023 
L 34.8768 383.46146 
L 11.247425 383.46146 
L 11.247425 454.693023 
z
" style="fill: #ffff00; opacity: 0.2; stroke: #eeeeee; stroke-width: 0.5; stroke-linejoin: miter"/>
     </g>
     <!-- DFF OUT -->
     <g transform="translate(26.925238 449.653023) rotate(-90) scale(0.14 -0.14)">
      <defs>
       <path id="DejaVuSans-4f" d="M 2522 4238 
Q 1834 4238 1429 3725 
Q 1025 3213 1025 2328 
Q 1025 1447 1429 934 
Q 1834 422 2522 422 
Q 3209 422 3611 934 
Q 4013 1447 4013 2328 
Q 4013 3213 3611 3725 
Q 3209 4238 2522 4238 
z
M 2522 4750 
Q 3503 4750 4090 4092 
Q 4678 3434 4678 2328 
Q 4678 1225 4090 567 
Q 3503 -91 2522 -91 
Q 1538 -91 948 565 
Q 359 1222 359 2328 
Q 359 3434 948 4092 
Q 1538 4750 2522 4750 
z
" transform="scale(0.015625)"/>
       <path id="DejaVuSans-54" d="M -19 4666 
L 3928 4666 
L 3928 4134 
L 2272 4134 
L 2272 0 
L 1638 0 
L 1638 4134 
L -19 4134 
L -19 4666 
z
" transform="scale(0.015625)"/>
      </defs>
      <use xlink:href="#DejaVuSans-44"/>
      <use xlink:href="#DejaVuSans-46" x="77.001953"/>
      <use xlink:href="#DejaVuSans-46" x="134.521484"/>
      <use xlink:href="#DejaVuSans-20" x="192.041016"/>
      <use xlink:href="#DejaVuSans-4f" x="223.828125"/>
      <use xlink:href="#DejaVuSans-55" x="302.539062"/>
      <use xlink:href="#DejaVuSans-54" x="375.732422"/>
     </g>
    </g>
   </g>
   <g id="line2d_68">
    <path d="M 141.12 399.330841 
L 173.408256 399.38786 
L 173.440512 401.322751 
L 173.601792 434.597776 
L 174.02112 434.59195 
L 182.214144 434.593652 
L 215.373312 434.680026 
L 216.050688 435.3865 
L 216.824832 435.827645 
L 217.824768 436.101475 
L 219.244032 436.229439 
L 222.08256 436.202098 
L 225.30816 435.998327 
L 226.179072 435.7746 
L 226.888704 435.18156 
L 227.179008 434.551782 
L 227.4048 433.637714 
L 227.662848 431.494332 
L 227.920896 426.570736 
L 228.275712 419.345275 
L 228.307968 419.354622 
L 228.501504 420.76326 
L 230.178816 428.464499 
L 230.694912 430.86867 
L 230.759424 430.273949 
L 230.79168 430.334192 
L 230.95296 431.987589 
L 232.920576 440.423431 
L 232.952832 440.227605 
L 232.985088 440.078983 
L 233.017344 440.140208 
L 233.114112 441.064656 
L 233.146368 440.855744 
L 233.178624 440.904817 
L 233.21088 440.693568 
L 233.243136 440.946413 
L 233.69472 442.663979 
L 234.436608 444.377806 
L 234.468864 444.0843 
L 234.533376 444.244139 
L 234.6624 444.576903 
L 234.694656 445.126524 
L 234.791424 444.954066 
L 235.565568 447.55355 
L 235.63008 447.429231 
L 235.726848 447.644686 
L 235.888128 448.468183 
L 236.049408 448.829456 
L 236.081664 448.75421 
L 236.11392 448.757014 
L 236.371968 449.852518 
L 236.984832 451.413516 
L 237.017088 451.190116 
L 237.049344 451.582235 
L 237.0816 451.409778 
L 237.146112 451.620559 
L 237.275136 452.172984 
L 237.307392 452.100075 
L 237.436416 452.384701 
L 237.500928 452.530051 
L 237.694464 453.268955 
L 240.855552 460.767357 
L 240.887808 460.666406 
L 240.95232 460.821572 
L 241.081344 461.227712 
L 241.210368 461.15714 
L 241.339392 461.075351 
L 241.371648 461.158542 
L 241.403904 460.954303 
L 242.274816 459.209163 
L 243.242496 457.111162 
L 243.274752 457.169582 
L 243.307008 457.07237 
L 243.500544 456.657818 
L 244.66176 454.699092 
L 244.694016 454.898189 
L 244.726272 454.590663 
L 244.758528 454.616835 
L 246.016512 452.891324 
L 246.048768 453.024523 
L 246.177792 452.596417 
L 246.210048 452.817013 
L 246.27456 452.501075 
L 246.306816 452.713258 
L 246.43584 452.375353 
L 246.59712 452.000527 
L 247.177728 451.308359 
L 247.209984 451.546248 
L 247.274496 451.219093 
L 247.306752 451.36678 
L 247.339008 451.169085 
L 247.597056 450.917175 
L 248.04864 450.53487 
L 248.306688 450.005813 
L 248.629248 449.473017 
L 248.661504 449.545926 
L 248.69376 449.386088 
L 248.726016 449.462735 
L 248.790528 449.232792 
L 248.85504 449.348231 
L 248.919552 449.420673 
L 248.984064 449.024815 
L 249.01632 449.149134 
L 249.048576 449.040238 
L 249.080832 448.931809 
L 249.113088 449.168296 
L 249.145344 449.124363 
L 249.274368 448.561656 
L 249.306624 448.561656 
L 249.33888 448.79674 
L 249.403392 448.45089 
L 249.435648 448.694855 
L 249.564672 448.357885 
L 249.596928 448.572873 
L 249.629184 448.315822 
L 249.790464 448.04475 
L 249.887232 447.95268 
L 249.919488 448.205991 
L 250.016256 448.093356 
L 250.14528 447.735355 
L 250.564608 447.482978 
L 251.209728 446.677241 
L 251.338752 446.119674 
L 251.371008 446.219691 
L 251.403264 445.989747 
L 251.43552 445.975726 
L 251.467776 446.343542 
L 251.532288 445.859352 
L 251.564544 446.224364 
L 251.693568 445.663994 
L 251.725824 446.053309 
L 251.75808 445.859352 
L 251.854848 445.905154 
L 251.887104 445.356935 
L 251.91936 445.384977 
L 251.951616 445.787378 
L 251.983872 445.263462 
L 252.016128 445.280287 
L 252.048384 445.425638 
L 252.08064 445.205509 
L 252.790272 444.560078 
L 252.822528 444.768523 
L 252.88704 444.550263 
L 252.919296 444.650747 
L 252.951552 444.489038 
L 253.822464 443.680965 
L 254.112768 443.315018 
L 254.241792 442.702302 
L 254.49984 442.317194 
L 254.564352 442.653229 
L 254.596608 442.401319 
L 254.628864 442.370941 
L 254.66112 442.691553 
L 254.693376 442.088185 
L 254.725632 442.098934 
L 254.757888 442.590135 
L 254.8224 442.025091 
L 254.854656 442.360659 
L 254.886912 441.904978 
L 254.951424 442.308314 
L 255.080448 441.682512 
L 255.112704 442.198016 
L 255.177216 441.629233 
L 255.241728 441.644188 
L 255.370752 441.496501 
L 255.757824 441.25908 
L 255.79008 441.427331 
L 255.854592 441.201594 
L 256.080384 441.199724 
L 257.177088 440.047203 
L 257.531904 439.525623 
L 257.660928 438.918563 
L 257.72544 438.770128 
L 257.757696 439.360644 
L 257.789952 438.693433 
L 257.854464 439.224313 
L 257.983488 438.466481 
L 258.080256 438.438299 
L 258.112512 438.416099 
L 258.144768 438.515695 
L 258.20928 438.416006 
L 258.241536 438.621413 
L 258.338304 438.754144 
L 258.37056 438.141476 
L 258.499584 438.271123 
L 258.53184 437.996733 
L 258.564096 438.389973 
L 258.596352 438.248502 
L 258.628608 438.343471 
L 258.660864 437.945509 
L 258.757632 438.070716 
L 258.789888 437.915925 
L 258.822144 438.19597 
L 258.8544 438.004678 
L 258.886656 438.102077 
L 258.918912 437.955791 
L 259.047936 437.884098 
L 259.080192 437.93261 
L 259.144704 437.865216 
L 260.015616 436.91754 
L 260.757504 435.882514 
L 260.78976 435.825449 
L 260.95104 434.875067 
L 261.11232 434.676872 
L 261.144576 435.14805 
L 261.209088 434.84344 
L 261.91872 433.596726 
L 262.305792 432.70892 
L 262.531584 431.521486 
L 262.596096 431.528075 
L 262.628352 431.491808 
L 262.72512 431.429742 
L 262.854144 431.559763 
L 262.983168 431.324865 
L 263.6928 429.757697 
L 263.757312 428.704257 
L 263.789568 429.609075 
L 263.85408 429.417923 
L 263.983104 428.370558 
L 264.047616 428.427577 
L 264.079872 428.198568 
L 264.144384 428.352331 
L 264.273408 428.424305 
L 264.950784 426.897424 
L 265.208832 426.44408 
L 265.241088 425.508883 
L 265.3056 425.753782 
L 265.337856 426.09823 
L 265.370112 425.943065 
L 265.434624 425.172848 
L 265.531392 425.314459 
L 265.62816 425.551881 
L 265.692672 425.402324 
L 268.04736 420.310851 
L 268.079616 420.402454 
L 268.111872 420.423953 
L 268.144128 420.17625 
L 268.20864 420.234671 
L 268.240896 420.308982 
L 268.337664 420.051463 
L 268.36992 420.058941 
L 268.498944 419.830867 
L 269.01504 418.742374 
L 269.17632 417.8226 
L 269.434368 417.121086 
L 269.466624 417.341682 
L 269.49888 417.27812 
L 269.66016 416.642504 
L 270.111744 415.450256 
L 270.9504 413.072771 
L 270.982656 413.138202 
L 271.143936 411.990821 
L 271.240704 412.449306 
L 271.27296 412.118879 
L 271.369728 412.254883 
L 271.531008 411.859959 
L 272.047104 410.697623 
L 272.756736 409.146906 
L 272.821248 408.801991 
L 272.88576 408.886116 
L 272.950272 409.000621 
L 272.982528 408.941266 
L 274.240512 406.768019 
L 274.466304 407.526085 
L 274.563072 409.363296 
L 274.692096 421.134815 
L 274.885632 433.80461 
L 275.111424 433.885838 
L 276.627456 434.010718 
L 279.853056 434.064605 
L 280.530432 433.357295 
L 281.304576 432.920589 
L 282.304512 432.652789 
L 283.723776 432.539593 
L 286.401024 432.592125 
L 300.561408 433.035748 
L 303.432192 433.087999 
L 305.690112 433.27817 
L 306.335232 433.976273 
L 307.07712 434.439474 
L 307.980288 434.742494 
L 309.302784 434.937058 
L 311.689728 435.026493 
L 318.85056 435.003046 
L 325.011456 434.965362 
L 326.656512 435.113091 
L 329.559552 435.133095 
L 334.688256 435.066402 
L 334.720512 435.2304 
L 334.785024 434.98486 
L 334.914048 435.070187 
L 375.008256 434.76676 
L 375.040512 434.650143 
L 375.105024 434.745803 
L 375.45984 434.765545 
L 381.846528 434.725936 
L 415.328256 434.637325 
L 415.360512 434.930109 
L 415.392768 434.306719 
L 415.586304 429.560002 
L 416.005632 427.567625 
L 416.199168 424.79475 
L 416.360448 418.460553 
L 416.58624 397.231906 
L 416.779776 377.389462 
L 416.941056 376.931445 
L 417.424896 376.973508 
L 420.069888 377.076328 
L 420.424704 377.113717 
L 421.134336 377.123064 
L 421.456896 377.15578 
L 424.521216 377.263274 
L 424.843776 377.295989 
L 428.295168 377.403483 
L 428.617728 377.436199 
L 432.55296 377.543693 
L 432.87552 377.576408 
L 437.488128 377.683902 
L 437.810688 377.716618 
L 443.390976 377.824112 
L 443.713536 377.856827 
L 450.648576 377.964321 
L 450.971136 377.997037 
L 495.968256 378.062468 
L 496.000512 378.221372 
L 496.065024 378.006384 
L 496.323072 378.034426 
L 576.608256 378.0391 
L 576.640512 378.272782 
L 576.705024 378.020405 
L 576.995328 378.0391 
L 577.737216 378.0391 
L 578.575872 378.048447 
L 657.248256 378.0391 
L 657.280512 378.277456 
L 657.345024 378.0391 
L 657.53856 378.015731 
L 658.473984 378.0391 
L 737.888256 378.0391 
L 737.920512 378.277456 
L 737.985024 378.0391 
L 738.17856 378.015731 
L 739.113984 378.0391 
L 818.528256 378.0391 
L 818.560512 378.277456 
L 818.625024 378.0391 
L 818.81856 378.015731 
L 819.753984 378.0391 
L 899.168256 378.0391 
L 899.200512 378.277456 
L 899.265024 378.0391 
L 899.45856 378.015731 
L 900.393984 378.0391 
L 947.52 378.043773 
L 947.52 378.043773 
" clip-path="url(#p7e561c3ab4)" style="fill: none; stroke: #ff00ff; stroke-width: 2; stroke-linecap: square"/>
   </g>
   <g id="patch_22">
    <path d="M 100.8 465.442759 
L 100.8 372.711724 
" style="fill: none; stroke: #bcbcbc; stroke-width: 0.8; stroke-linejoin: miter; stroke-linecap: square"/>
   </g>
   <g id="patch_23">
    <path d="M 987.84 465.442759 
L 987.84 372.711724 
" style="fill: none; stroke: #bcbcbc; stroke-width: 0.8; stroke-linejoin: miter; stroke-linecap: square"/>
   </g>
   <g id="patch_24">
    <path d="M 100.8 465.442759 
L 987.84 465.442759 
" style="fill: none; stroke: #bcbcbc; stroke-width: 0.8; stroke-linejoin: miter; stroke-linecap: square"/>
   </g>
   <g id="patch_25">
    <path d="M 100.8 372.711724 
L 987.84 372.711724 
" style="fill: none; stroke: #bcbcbc; stroke-width: 0.8; stroke-linejoin: miter; stroke-linecap: square"/>
   </g>
  </g>
  <g id="axes_5">
   <g id="patch_26">
    <path d="M 100.8 576.72 
L 987.84 576.72 
L 987.84 483.988966 
L 100.8 483.988966 
z
" style="fill: #eeeeee"/>
   </g>
   <g id="matplotlib.axis_9">
    <g id="xtick_25">
     <g id="line2d_69">
      <path d="M 141.12 576.72 
L 141.12 483.988966 
" clip-path="url(#pd3c513b09e)" style="fill: none; stroke-dasharray: 1.85,0.8; stroke-dashoffset: 0; stroke: #b2b2b2; stroke-width: 0.5"/>
     </g>
     <g id="line2d_70">
      <g>
       <use xlink:href="#m12e949d85a" x="141.12" y="576.72" style="stroke: #000000; stroke-width: 0.8"/>
      </g>
     </g>
     <g id="text_13">
      <!-- 0 s -->
      <g transform="translate(130.795 590.857813) scale(0.14 -0.14)">
       <defs>
        <path id="DejaVuSans-73" d="M 2834 3397 
L 2834 2853 
Q 2591 2978 2328 3040 
Q 2066 3103 1784 3103 
Q 1356 3103 1142 2972 
Q 928 2841 928 2578 
Q 928 2378 1081 2264 
Q 1234 2150 1697 2047 
L 1894 2003 
Q 2506 1872 2764 1633 
Q 3022 1394 3022 966 
Q 3022 478 2636 193 
Q 2250 -91 1575 -91 
Q 1294 -91 989 -36 
Q 684 19 347 128 
L 347 722 
Q 666 556 975 473 
Q 1284 391 1588 391 
Q 1994 391 2212 530 
Q 2431 669 2431 922 
Q 2431 1156 2273 1281 
Q 2116 1406 1581 1522 
L 1381 1569 
Q 847 1681 609 1914 
Q 372 2147 372 2553 
Q 372 3047 722 3315 
Q 1072 3584 1716 3584 
Q 2034 3584 2315 3537 
Q 2597 3491 2834 3397 
z
" transform="scale(0.015625)"/>
       </defs>
       <use xlink:href="#DejaVuSans-30"/>
       <use xlink:href="#DejaVuSans-20" x="63.623047"/>
       <use xlink:href="#DejaVuSans-73" x="95.410156"/>
      </g>
     </g>
    </g>
    <g id="xtick_26">
     <g id="line2d_71">
      <path d="M 302.4 576.72 
L 302.4 483.988966 
" clip-path="url(#pd3c513b09e)" style="fill: none; stroke-dasharray: 1.85,0.8; stroke-dashoffset: 0; stroke: #b2b2b2; stroke-width: 0.5"/>
     </g>
     <g id="line2d_72">
      <g>
       <use xlink:href="#m12e949d85a" x="302.4" y="576.72" style="stroke: #000000; stroke-width: 0.8"/>
      </g>
     </g>
     <g id="text_14">
      <!-- 50 ns -->
      <g transform="translate(283.185 590.857813) scale(0.14 -0.14)">
       <defs>
        <path id="DejaVuSans-35" d="M 691 4666 
L 3169 4666 
L 3169 4134 
L 1269 4134 
L 1269 2991 
Q 1406 3038 1543 3061 
Q 1681 3084 1819 3084 
Q 2600 3084 3056 2656 
Q 3513 2228 3513 1497 
Q 3513 744 3044 326 
Q 2575 -91 1722 -91 
Q 1428 -91 1123 -41 
Q 819 9 494 109 
L 494 744 
Q 775 591 1075 516 
Q 1375 441 1709 441 
Q 2250 441 2565 725 
Q 2881 1009 2881 1497 
Q 2881 1984 2565 2268 
Q 2250 2553 1709 2553 
Q 1456 2553 1204 2497 
Q 953 2441 691 2322 
L 691 4666 
z
" transform="scale(0.015625)"/>
        <path id="DejaVuSans-6e" d="M 3513 2113 
L 3513 0 
L 2938 0 
L 2938 2094 
Q 2938 2591 2744 2837 
Q 2550 3084 2163 3084 
Q 1697 3084 1428 2787 
Q 1159 2491 1159 1978 
L 1159 0 
L 581 0 
L 581 3500 
L 1159 3500 
L 1159 2956 
Q 1366 3272 1645 3428 
Q 1925 3584 2291 3584 
Q 2894 3584 3203 3211 
Q 3513 2838 3513 2113 
z
" transform="scale(0.015625)"/>
       </defs>
       <use xlink:href="#DejaVuSans-35"/>
       <use xlink:href="#DejaVuSans-30" x="63.623047"/>
       <use xlink:href="#DejaVuSans-20" x="127.246094"/>
       <use xlink:href="#DejaVuSans-6e" x="159.033203"/>
       <use xlink:href="#DejaVuSans-73" x="222.412109"/>
      </g>
     </g>
    </g>
    <g id="xtick_27">
     <g id="line2d_73">
      <path d="M 463.68 576.72 
L 463.68 483.988966 
" clip-path="url(#pd3c513b09e)" style="fill: none; stroke-dasharray: 1.85,0.8; stroke-dashoffset: 0; stroke: #b2b2b2; stroke-width: 0.5"/>
     </g>
     <g id="line2d_74">
      <g>
       <use xlink:href="#m12e949d85a" x="463.68" y="576.72" style="stroke: #000000; stroke-width: 0.8"/>
      </g>
     </g>
     <g id="text_15">
      <!-- 100 ns -->
      <g transform="translate(440.01125 590.857813) scale(0.14 -0.14)">
       <use xlink:href="#DejaVuSans-31"/>
       <use xlink:href="#DejaVuSans-30" x="63.623047"/>
       <use xlink:href="#DejaVuSans-30" x="127.246094"/>
       <use xlink:href="#DejaVuSans-20" x="190.869141"/>
       <use xlink:href="#DejaVuSans-6e" x="222.65625"/>
       <use xlink:href="#DejaVuSans-73" x="286.035156"/>
      </g>
     </g>
    </g>
    <g id="xtick_28">
     <g id="line2d_75">
      <path d="M 624.96 576.72 
L 624.96 483.988966 
" clip-path="url(#pd3c513b09e)" style="fill: none; stroke-dasharray: 1.85,0.8; stroke-dashoffset: 0; stroke: #b2b2b2; stroke-width: 0.5"/>
     </g>
     <g id="line2d_76">
      <g>
       <use xlink:href="#m12e949d85a" x="624.96" y="576.72" style="stroke: #000000; stroke-width: 0.8"/>
      </g>
     </g>
     <g id="text_16">
      <!-- 150 ns -->
      <g transform="translate(601.29125 590.857813) scale(0.14 -0.14)">
       <use xlink:href="#DejaVuSans-31"/>
       <use xlink:href="#DejaVuSans-35" x="63.623047"/>
       <use xlink:href="#DejaVuSans-30" x="127.246094"/>
       <use xlink:href="#DejaVuSans-20" x="190.869141"/>
       <use xlink:href="#DejaVuSans-6e" x="222.65625"/>
       <use xlink:href="#DejaVuSans-73" x="286.035156"/>
      </g>
     </g>
    </g>
    <g id="xtick_29">
     <g id="line2d_77">
      <path d="M 786.24 576.72 
L 786.24 483.988966 
" clip-path="url(#pd3c513b09e)" style="fill: none; stroke-dasharray: 1.85,0.8; stroke-dashoffset: 0; stroke: #b2b2b2; stroke-width: 0.5"/>
     </g>
     <g id="line2d_78">
      <g>
       <use xlink:href="#m12e949d85a" x="786.24" y="576.72" style="stroke: #000000; stroke-width: 0.8"/>
      </g>
     </g>
     <g id="text_17">
      <!-- 200 ns -->
      <g transform="translate(762.57125 590.857813) scale(0.14 -0.14)">
       <use xlink:href="#DejaVuSans-32"/>
       <use xlink:href="#DejaVuSans-30" x="63.623047"/>
       <use xlink:href="#DejaVuSans-30" x="127.246094"/>
       <use xlink:href="#DejaVuSans-20" x="190.869141"/>
       <use xlink:href="#DejaVuSans-6e" x="222.65625"/>
       <use xlink:href="#DejaVuSans-73" x="286.035156"/>
      </g>
     </g>
    </g>
    <g id="xtick_30">
     <g id="line2d_79">
      <path d="M 947.52 576.72 
L 947.52 483.988966 
" clip-path="url(#pd3c513b09e)" style="fill: none; stroke-dasharray: 1.85,0.8; stroke-dashoffset: 0; stroke: #b2b2b2; stroke-width: 0.5"/>
     </g>
     <g id="line2d_80">
      <g>
       <use xlink:href="#m12e949d85a" x="947.52" y="576.72" style="stroke: #000000; stroke-width: 0.8"/>
      </g>
     </g>
     <g id="text_18">
      <!-- 250 ns -->
      <g transform="translate(923.85125 590.857813) scale(0.14 -0.14)">
       <use xlink:href="#DejaVuSans-32"/>
       <use xlink:href="#DejaVuSans-35" x="63.623047"/>
       <use xlink:href="#DejaVuSans-30" x="127.246094"/>
       <use xlink:href="#DejaVuSans-20" x="190.869141"/>
       <use xlink:href="#DejaVuSans-6e" x="222.65625"/>
       <use xlink:href="#DejaVuSans-73" x="286.035156"/>
      </g>
     </g>
    </g>
    <g id="text_19">
     <!-- Time -->
     <g transform="translate(527.192969 608.407187) scale(0.14 -0.14)">
      <defs>
       <path id="DejaVuSans-69" d="M 603 3500 
L 1178 3500 
L 1178 0 
L 603 0 
L 603 3500 
z
M 603 4863 
L 1178 4863 
L 1178 4134 
L 603 4134 
L 603 4863 
z
" transform="scale(0.015625)"/>
       <path id="DejaVuSans-6d" d="M 3328 2828 
Q 3544 3216 3844 3400 
Q 4144 3584 4550 3584 
Q 5097 3584 5394 3201 
Q 5691 2819 5691 2113 
L 5691 0 
L 5113 0 
L 5113 2094 
Q 5113 2597 4934 2840 
Q 4756 3084 4391 3084 
Q 3944 3084 3684 2787 
Q 3425 2491 3425 1978 
L 3425 0 
L 2847 0 
L 2847 2094 
Q 2847 2600 2669 2842 
Q 2491 3084 2119 3084 
Q 1678 3084 1418 2786 
Q 1159 2488 1159 1978 
L 1159 0 
L 581 0 
L 581 3500 
L 1159 3500 
L 1159 2956 
Q 1356 3278 1631 3431 
Q 1906 3584 2284 3584 
Q 2666 3584 2933 3390 
Q 3200 3197 3328 2828 
z
" transform="scale(0.015625)"/>
       <path id="DejaVuSans-65" d="M 3597 1894 
L 3597 1613 
L 953 1613 
Q 991 1019 1311 708 
Q 1631 397 2203 397 
Q 2534 397 2845 478 
Q 3156 559 3463 722 
L 3463 178 
Q 3153 47 2828 -22 
Q 2503 -91 2169 -91 
Q 1331 -91 842 396 
Q 353 884 353 1716 
Q 353 2575 817 3079 
Q 1281 3584 2069 3584 
Q 2775 3584 3186 3129 
Q 3597 2675 3597 1894 
z
M 3022 2063 
Q 3016 2534 2758 2815 
Q 2500 3097 2075 3097 
Q 1594 3097 1305 2825 
Q 1016 2553 972 2059 
L 3022 2063 
z
" transform="scale(0.015625)"/>
      </defs>
      <use xlink:href="#DejaVuSans-54"/>
      <use xlink:href="#DejaVuSans-69" x="57.958984"/>
      <use xlink:href="#DejaVuSans-6d" x="85.742188"/>
      <use xlink:href="#DejaVuSans-65" x="183.154297"/>
     </g>
    </g>
   </g>
   <g id="matplotlib.axis_10">
    <g id="ytick_9">
     <g id="line2d_81">
      <path d="M 100.8 569.737898 
L 987.84 569.737898 
" clip-path="url(#pd3c513b09e)" style="fill: none; stroke-dasharray: 1.85,0.8; stroke-dashoffset: 0; stroke: #b2b2b2; stroke-width: 0.5"/>
     </g>
     <g id="line2d_82">
      <g>
       <use xlink:href="#md3fd073dd8" x="100.8" y="569.737898" style="stroke: #000000; stroke-width: 0.8"/>
      </g>
     </g>
     <g id="text_20">
      <!-- 0 V -->
      <g transform="translate(74.36625 575.056805) scale(0.14 -0.14)">
       <use xlink:href="#DejaVuSans-30"/>
       <use xlink:href="#DejaVuSans-20" x="63.623047"/>
       <use xlink:href="#DejaVuSans-56" x="95.410156"/>
      </g>
     </g>
    </g>
    <g id="ytick_10">
     <g id="line2d_83">
      <path d="M 100.8 535.84453 
L 987.84 535.84453 
" clip-path="url(#pd3c513b09e)" style="fill: none; stroke-dasharray: 1.85,0.8; stroke-dashoffset: 0; stroke: #b2b2b2; stroke-width: 0.5"/>
     </g>
     <g id="line2d_84">
      <g>
       <use xlink:href="#md3fd073dd8" x="100.8" y="535.84453" style="stroke: #000000; stroke-width: 0.8"/>
      </g>
     </g>
     <g id="text_21">
      <!-- 500 mV -->
      <g transform="translate(42.914375 541.163437) scale(0.14 -0.14)">
       <use xlink:href="#DejaVuSans-35"/>
       <use xlink:href="#DejaVuSans-30" x="63.623047"/>
       <use xlink:href="#DejaVuSans-30" x="127.246094"/>
       <use xlink:href="#DejaVuSans-20" x="190.869141"/>
       <use xlink:href="#DejaVuSans-6d" x="222.65625"/>
       <use xlink:href="#DejaVuSans-56" x="320.068359"/>
      </g>
     </g>
    </g>
    <g id="ytick_11">
     <g id="line2d_85">
      <path d="M 100.8 501.951163 
L 987.84 501.951163 
" clip-path="url(#pd3c513b09e)" style="fill: none; stroke-dasharray: 1.85,0.8; stroke-dashoffset: 0; stroke: #b2b2b2; stroke-width: 0.5"/>
     </g>
     <g id="line2d_86">
      <g>
       <use xlink:href="#md3fd073dd8" x="100.8" y="501.951163" style="stroke: #000000; stroke-width: 0.8"/>
      </g>
     </g>
     <g id="text_22">
      <!-- 1 V -->
      <g transform="translate(74.36625 507.270069) scale(0.14 -0.14)">
       <use xlink:href="#DejaVuSans-31"/>
       <use xlink:href="#DejaVuSans-20" x="63.623047"/>
       <use xlink:href="#DejaVuSans-56" x="95.410156"/>
      </g>
     </g>
    </g>
    <g id="text_23">
     <g id="patch_27">
      <path d="M 34.8768 554.329483 
L 34.8768 506.379483 
L 11.247425 506.379483 
L 11.247425 554.329483 
z
" style="fill: #ffff00; opacity: 0.2; stroke: #eeeeee; stroke-width: 0.5; stroke-linejoin: miter"/>
     </g>
     <!-- FOUT -->
     <g transform="translate(26.925238 549.289483) rotate(-90) scale(0.14 -0.14)">
      <use xlink:href="#DejaVuSans-46"/>
      <use xlink:href="#DejaVuSans-4f" x="57.519531"/>
      <use xlink:href="#DejaVuSans-55" x="136.230469"/>
      <use xlink:href="#DejaVuSans-54" x="209.423828"/>
     </g>
    </g>
   </g>
   <g id="line2d_87">
    <path d="M 141.12 488.393815 
L 173.472768 488.400594 
L 173.505024 488.204013 
L 173.569536 526.657394 
L 173.69856 572.504953 
L 173.730816 572.369108 
L 173.827584 567.828617 
L 173.892096 569.351799 
L 174.053376 570.057126 
L 174.117888 569.939259 
L 174.408192 569.483332 
L 174.440448 569.532932 
L 174.66624 569.721921 
L 176.182272 569.732147 
L 180.085248 569.753796 
L 195.9552 569.717478 
L 196.245504 569.736171 
L 273.272832 569.813284 
L 273.305088 567.883728 
L 273.69216 488.400594 
L 274.563072 488.400594 
L 274.627584 498.290679 
L 274.82112 569.747378 
L 274.853376 569.738731 
L 276.91776 569.737078 
L 416.521728 569.832251 
L 416.553984 569.995068 
L 416.618496 536.841673 
L 416.779776 488.766642 
L 416.941056 488.393815 
L 947.52 488.393815 
L 947.52 488.393815 
" clip-path="url(#pd3c513b09e)" style="fill: none; stroke: #ff00ff; stroke-width: 2; stroke-linecap: square"/>
   </g>
   <g id="patch_28">
    <path d="M 100.8 576.72 
L 100.8 483.988966 
" style="fill: none; stroke: #bcbcbc; stroke-width: 0.8; stroke-linejoin: miter; stroke-linecap: square"/>
   </g>
   <g id="patch_29">
    <path d="M 987.84 576.72 
L 987.84 483.988966 
" style="fill: none; stroke: #bcbcbc; stroke-width: 0.8; stroke-linejoin: miter; stroke-linecap: square"/>
   </g>
   <g id="patch_30">
    <path d="M 100.8 576.72 
L 987.84 576.72 
" style="fill: none; stroke: #bcbcbc; stroke-width: 0.8; stroke-linejoin: miter; stroke-linecap: square"/>
   </g>
   <g id="patch_31">
    <path d="M 100.8 483.988966 
L 987.84 483.988966 
" style="fill: none; stroke: #bcbcbc; stroke-width: 0.8; stroke-linejoin: miter; stroke-linecap: square"/>
   </g>
  </g>
  <g id="axes_6">
   <g id="patch_32">
    <path d="M 201.6 628.56 
L 856.8 628.56 
L 856.8 615.6 
L 201.6 615.6 
z
" clip-path="url(#p23890554bf)" style="fill: #d3d3d3"/>
   </g>
   <g id="patch_33">
    <path d="M 201.6 628.56 
L 234.36 628.56 
L 234.36 615.6 
L 201.6 615.6 
z
" clip-path="url(#p23890554bf)" style="fill: #0000ff"/>
   </g>
   <g id="line2d_88">
    <path d="M 201.6 635.04 
L 201.6 609.12 
" clip-path="url(#pf381653df3)" style="fill: none; stroke: #ff0000; stroke-linecap: square"/>
   </g>
   <g id="line2d_89">
    <defs>
     <path id="mc84e6b4da4" d="M 0 5 
C 1.326016 5 2.597899 4.473168 3.535534 3.535534 
C 4.473168 2.597899 5 1.326016 5 0 
C 5 -1.326016 4.473168 -2.597899 3.535534 -3.535534 
C 2.597899 -4.473168 1.326016 -5 0 -5 
C -1.326016 -5 -2.597899 -4.473168 -3.535534 -3.535534 
C -4.473168 -2.597899 -5 -1.326016 -5 0 
C -5 1.326016 -4.473168 2.597899 -3.535534 3.535534 
C -2.597899 4.473168 -1.326016 5 0 5 
z
" style="stroke: #bfbfbf"/>
    </defs>
    <g>
     <use xlink:href="#mc84e6b4da4" x="234.36" y="622.08" style="fill: #ffffff; stroke: #bfbfbf"/>
    </g>
   </g>
   <g id="text_24">
    <!-- #Sweep -->
    <g transform="translate(138.622875 625.39125) scale(0.12 -0.12)">
     <defs>
      <path id="DejaVuSans-23" d="M 3272 2816 
L 2363 2816 
L 2100 1772 
L 3016 1772 
L 3272 2816 
z
M 2803 4594 
L 2478 3297 
L 3391 3297 
L 3719 4594 
L 4219 4594 
L 3897 3297 
L 4872 3297 
L 4872 2816 
L 3775 2816 
L 3519 1772 
L 4513 1772 
L 4513 1294 
L 3397 1294 
L 3072 0 
L 2572 0 
L 2894 1294 
L 1978 1294 
L 1656 0 
L 1153 0 
L 1478 1294 
L 494 1294 
L 494 1772 
L 1594 1772 
L 1856 2816 
L 850 2816 
L 850 3297 
L 1978 3297 
L 2297 4594 
L 2803 4594 
z
" transform="scale(0.015625)"/>
      <path id="DejaVuSans-77" d="M 269 3500 
L 844 3500 
L 1563 769 
L 2278 3500 
L 2956 3500 
L 3675 769 
L 4391 3500 
L 4966 3500 
L 4050 0 
L 3372 0 
L 2619 2869 
L 1863 0 
L 1184 0 
L 269 3500 
z
" transform="scale(0.015625)"/>
      <path id="DejaVuSans-70" d="M 1159 525 
L 1159 -1331 
L 581 -1331 
L 581 3500 
L 1159 3500 
L 1159 2969 
Q 1341 3281 1617 3432 
Q 1894 3584 2278 3584 
Q 2916 3584 3314 3078 
Q 3713 2572 3713 1747 
Q 3713 922 3314 415 
Q 2916 -91 2278 -91 
Q 1894 -91 1617 61 
Q 1341 213 1159 525 
z
M 3116 1747 
Q 3116 2381 2855 2742 
Q 2594 3103 2138 3103 
Q 1681 3103 1420 2742 
Q 1159 2381 1159 1747 
Q 1159 1113 1420 752 
Q 1681 391 2138 391 
Q 2594 391 2855 752 
Q 3116 1113 3116 1747 
z
" transform="scale(0.015625)"/>
     </defs>
     <use xlink:href="#DejaVuSans-23"/>
     <use xlink:href="#DejaVuSans-53" x="83.789062"/>
     <use xlink:href="#DejaVuSans-77" x="147.265625"/>
     <use xlink:href="#DejaVuSans-65" x="229.052734"/>
     <use xlink:href="#DejaVuSans-65" x="290.576172"/>
     <use xlink:href="#DejaVuSans-70" x="352.099609"/>
    </g>
   </g>
   <g id="text_25">
    <!-- $\mathdefault{7}$ -->
    <g transform="translate(869.904 625.39125) scale(0.12 -0.12)">
     <defs>
      <path id="DejaVuSans-37" d="M 525 4666 
L 3525 4666 
L 3525 4397 
L 1831 0 
L 1172 0 
L 2766 4134 
L 525 4134 
L 525 4666 
z
" transform="scale(0.015625)"/>
     </defs>
     <use xlink:href="#DejaVuSans-37" transform="translate(0 0.09375)"/>
    </g>
   </g>
  </g>
  <g id="text_26">
   <!-- DFF under BBI sweep analysis (Sweep = 17E-9) -->
   <g transform="translate(313.34625 25.1175) scale(0.16 -0.16)">
    <defs>
     <path id="DejaVuSans-75" d="M 544 1381 
L 544 3500 
L 1119 3500 
L 1119 1403 
Q 1119 906 1312 657 
Q 1506 409 1894 409 
Q 2359 409 2629 706 
Q 2900 1003 2900 1516 
L 2900 3500 
L 3475 3500 
L 3475 0 
L 2900 0 
L 2900 538 
Q 2691 219 2414 64 
Q 2138 -91 1772 -91 
Q 1169 -91 856 284 
Q 544 659 544 1381 
z
M 1991 3584 
L 1991 3584 
z
" transform="scale(0.015625)"/>
     <path id="DejaVuSans-64" d="M 2906 2969 
L 2906 4863 
L 3481 4863 
L 3481 0 
L 2906 0 
L 2906 525 
Q 2725 213 2448 61 
Q 2172 -91 1784 -91 
Q 1150 -91 751 415 
Q 353 922 353 1747 
Q 353 2572 751 3078 
Q 1150 3584 1784 3584 
Q 2172 3584 2448 3432 
Q 2725 3281 2906 2969 
z
M 947 1747 
Q 947 1113 1208 752 
Q 1469 391 1925 391 
Q 2381 391 2643 752 
Q 2906 1113 2906 1747 
Q 2906 2381 2643 2742 
Q 2381 3103 1925 3103 
Q 1469 3103 1208 2742 
Q 947 2381 947 1747 
z
" transform="scale(0.015625)"/>
     <path id="DejaVuSans-72" d="M 2631 2963 
Q 2534 3019 2420 3045 
Q 2306 3072 2169 3072 
Q 1681 3072 1420 2755 
Q 1159 2438 1159 1844 
L 1159 0 
L 581 0 
L 581 3500 
L 1159 3500 
L 1159 2956 
Q 1341 3275 1631 3429 
Q 1922 3584 2338 3584 
Q 2397 3584 2469 3576 
Q 2541 3569 2628 3553 
L 2631 2963 
z
" transform="scale(0.015625)"/>
     <path id="DejaVuSans-61" d="M 2194 1759 
Q 1497 1759 1228 1600 
Q 959 1441 959 1056 
Q 959 750 1161 570 
Q 1363 391 1709 391 
Q 2188 391 2477 730 
Q 2766 1069 2766 1631 
L 2766 1759 
L 2194 1759 
z
M 3341 1997 
L 3341 0 
L 2766 0 
L 2766 531 
Q 2569 213 2275 61 
Q 1981 -91 1556 -91 
Q 1019 -91 701 211 
Q 384 513 384 1019 
Q 384 1609 779 1909 
Q 1175 2209 1959 2209 
L 2766 2209 
L 2766 2266 
Q 2766 2663 2505 2880 
Q 2244 3097 1772 3097 
Q 1472 3097 1187 3025 
Q 903 2953 641 2809 
L 641 3341 
Q 956 3463 1253 3523 
Q 1550 3584 1831 3584 
Q 2591 3584 2966 3190 
Q 3341 2797 3341 1997 
z
" transform="scale(0.015625)"/>
     <path id="DejaVuSans-6c" d="M 603 4863 
L 1178 4863 
L 1178 0 
L 603 0 
L 603 4863 
z
" transform="scale(0.015625)"/>
     <path id="DejaVuSans-79" d="M 2059 -325 
Q 1816 -950 1584 -1140 
Q 1353 -1331 966 -1331 
L 506 -1331 
L 506 -850 
L 844 -850 
Q 1081 -850 1212 -737 
Q 1344 -625 1503 -206 
L 1606 56 
L 191 3500 
L 800 3500 
L 1894 763 
L 2988 3500 
L 3597 3500 
L 2059 -325 
z
" transform="scale(0.015625)"/>
     <path id="DejaVuSans-28" d="M 1984 4856 
Q 1566 4138 1362 3434 
Q 1159 2731 1159 2009 
Q 1159 1288 1364 580 
Q 1569 -128 1984 -844 
L 1484 -844 
Q 1016 -109 783 600 
Q 550 1309 550 2009 
Q 550 2706 781 3412 
Q 1013 4119 1484 4856 
L 1984 4856 
z
" transform="scale(0.015625)"/>
     <path id="DejaVuSans-3d" d="M 678 2906 
L 4684 2906 
L 4684 2381 
L 678 2381 
L 678 2906 
z
M 678 1631 
L 4684 1631 
L 4684 1100 
L 678 1100 
L 678 1631 
z
" transform="scale(0.015625)"/>
     <path id="DejaVuSans-2d" d="M 313 2009 
L 1997 2009 
L 1997 1497 
L 313 1497 
L 313 2009 
z
" transform="scale(0.015625)"/>
     <path id="DejaVuSans-39" d="M 703 97 
L 703 672 
Q 941 559 1184 500 
Q 1428 441 1663 441 
Q 2288 441 2617 861 
Q 2947 1281 2994 2138 
Q 2813 1869 2534 1725 
Q 2256 1581 1919 1581 
Q 1219 1581 811 2004 
Q 403 2428 403 3163 
Q 403 3881 828 4315 
Q 1253 4750 1959 4750 
Q 2769 4750 3195 4129 
Q 3622 3509 3622 2328 
Q 3622 1225 3098 567 
Q 2575 -91 1691 -91 
Q 1453 -91 1209 -44 
Q 966 3 703 97 
z
M 1959 2075 
Q 2384 2075 2632 2365 
Q 2881 2656 2881 3163 
Q 2881 3666 2632 3958 
Q 2384 4250 1959 4250 
Q 1534 4250 1286 3958 
Q 1038 3666 1038 3163 
Q 1038 2656 1286 2365 
Q 1534 2075 1959 2075 
z
" transform="scale(0.015625)"/>
     <path id="DejaVuSans-29" d="M 513 4856 
L 1013 4856 
Q 1481 4119 1714 3412 
Q 1947 2706 1947 2009 
Q 1947 1309 1714 600 
Q 1481 -109 1013 -844 
L 513 -844 
Q 928 -128 1133 580 
Q 1338 1288 1338 2009 
Q 1338 2731 1133 3434 
Q 928 4138 513 4856 
z
" transform="scale(0.015625)"/>
    </defs>
    <use xlink:href="#DejaVuSans-44"/>
    <use xlink:href="#DejaVuSans-46" x="77.001953"/>
    <use xlink:href="#DejaVuSans-46" x="134.521484"/>
    <use xlink:href="#DejaVuSans-20" x="192.041016"/>
    <use xlink:href="#DejaVuSans-75" x="223.828125"/>
    <use xlink:href="#DejaVuSans-6e" x="287.207031"/>
    <use xlink:href="#DejaVuSans-64" x="350.585938"/>
    <use xlink:href="#DejaVuSans-65" x="414.0625"/>
    <use xlink:href="#DejaVuSans-72" x="475.585938"/>
    <use xlink:href="#DejaVuSans-20" x="516.699219"/>
    <use xlink:href="#DejaVuSans-42" x="548.486328"/>
    <use xlink:href="#DejaVuSans-42" x="617.089844"/>
    <use xlink:href="#DejaVuSans-49" x="685.693359"/>
    <use xlink:href="#DejaVuSans-20" x="715.185547"/>
    <use xlink:href="#DejaVuSans-73" x="746.972656"/>
    <use xlink:href="#DejaVuSans-77" x="799.072266"/>
    <use xlink:href="#DejaVuSans-65" x="880.859375"/>
    <use xlink:href="#DejaVuSans-65" x="942.382812"/>
    <use xlink:href="#DejaVuSans-70" x="1003.90625"/>
    <use xlink:href="#DejaVuSans-20" x="1067.382812"/>
    <use xlink:href="#DejaVuSans-61" x="1099.169922"/>
    <use xlink:href="#DejaVuSans-6e" x="1160.449219"/>
    <use xlink:href="#DejaVuSans-61" x="1223.828125"/>
    <use xlink:href="#DejaVuSans-6c" x="1285.107422"/>
    <use xlink:href="#DejaVuSans-79" x="1312.890625"/>
    <use xlink:href="#DejaVuSans-73" x="1372.070312"/>
    <use xlink:href="#DejaVuSans-69" x="1424.169922"/>
    <use xlink:href="#DejaVuSans-73" x="1451.953125"/>
    <use xlink:href="#DejaVuSans-20" x="1504.052734"/>
    <use xlink:href="#DejaVuSans-28" x="1535.839844"/>
    <use xlink:href="#DejaVuSans-53" x="1574.853516"/>
    <use xlink:href="#DejaVuSans-77" x="1638.330078"/>
    <use xlink:href="#DejaVuSans-65" x="1720.117188"/>
    <use xlink:href="#DejaVuSans-65" x="1781.640625"/>
    <use xlink:href="#DejaVuSans-70" x="1843.164062"/>
    <use xlink:href="#DejaVuSans-20" x="1906.640625"/>
    <use xlink:href="#DejaVuSans-3d" x="1938.427734"/>
    <use xlink:href="#DejaVuSans-20" x="2022.216797"/>
    <use xlink:href="#DejaVuSans-31" x="2054.003906"/>
    <use xlink:href="#DejaVuSans-37" x="2117.626953"/>
    <use xlink:href="#DejaVuSans-45" x="2181.25"/>
    <use xlink:href="#DejaVuSans-2d" x="2244.433594"/>
    <use xlink:href="#DejaVuSans-39" x="2280.517578"/>
    <use xlink:href="#DejaVuSans-29" x="2344.140625"/>
   </g>
  </g>
 </g>
 <defs>
  <clipPath id="p8c59c71f2a">
   <rect x="100.8" y="38.88" width="887.04" height="92.731034"/>
  </clipPath>
  <clipPath id="pd3df3b2094">
   <rect x="100.8" y="150.157241" width="887.04" height="92.731034"/>
  </clipPath>
  <clipPath id="p7225ac5b66">
   <rect x="100.8" y="261.434483" width="887.04" height="92.731034"/>
  </clipPath>
  <clipPath id="p7e561c3ab4">
   <rect x="100.8" y="372.711724" width="887.04" height="92.731034"/>
  </clipPath>
  <clipPath id="pd3c513b09e">
   <rect x="100.8" y="483.988966" width="887.04" height="92.731034"/>
  </clipPath>
  <clipPath id="p23890554bf">
   <rect x="201.6" y="609.12" width="655.2" height="25.92"/>
  </clipPath>
  <clipPath id="pf381653df3">
   <path d="M 201.6 628.56 
L 856.8 628.56 
L 856.8 615.6 
L 201.6 615.6 
z
"/>
  </clipPath>
 </defs>
</svg>
