<?xml version="1.0" encoding="utf-8" standalone="no"?>
<!DOCTYPE svg PUBLIC "-//W3C//DTD SVG 1.1//EN"
  "http://www.w3.org/Graphics/SVG/1.1/DTD/svg11.dtd">
<svg xmlns:xlink="http://www.w3.org/1999/xlink" width="1008pt" height="648pt" viewBox="0 0 1008 648" xmlns="http://www.w3.org/2000/svg" version="1.1">
 <metadata>
  <rdf:RDF xmlns:dc="http://purl.org/dc/elements/1.1/" xmlns:cc="http://creativecommons.org/ns#" xmlns:rdf="http://www.w3.org/1999/02/22-rdf-syntax-ns#">
   <cc:Work>
    <dc:type rdf:resource="http://purl.org/dc/dcmitype/StillImage"/>
    <dc:date>2024-06-03T10:45:36.779850</dc:date>
    <dc:format>image/svg+xml</dc:format>
    <dc:creator>
     <cc:Agent>
      <dc:title>Matplotlib v3.9.0, https://matplotlib.org/</dc:title>
     </cc:Agent>
    </dc:creator>
   </cc:Work>
  </rdf:RDF>
 </metadata>
 <defs>
  <style type="text/css">*{stroke-linejoin: round; stroke-linecap: butt}</style>
 </defs>
 <g id="figure_1">
  <g id="patch_1">
   <path d="M 0 648 
L 1008 648 
L 1008 0 
L 0 0 
z
" style="fill: #ffffff"/>
  </g>
  <g id="axes_1">
   <g id="patch_2">
    <path d="M 100.8 131.611034 
L 987.84 131.611034 
L 987.84 38.88 
L 100.8 38.88 
z
" style="fill: #eeeeee"/>
   </g>
   <g id="matplotlib.axis_1">
    <g id="xtick_1">
     <g id="line2d_1">
      <path d="M 141.12 131.611034 
L 141.12 38.88 
" clip-path="url(#p912cffcd60)" style="fill: none; stroke-dasharray: 1.85,0.8; stroke-dashoffset: 0; stroke: #b2b2b2; stroke-width: 0.5"/>
     </g>
     <g id="line2d_2">
      <defs>
       <path id="m1469178b8c" d="M 0 0 
L 0 -3.5 
" style="stroke: #000000; stroke-width: 0.8"/>
      </defs>
      <g>
       <use xlink:href="#m1469178b8c" x="141.12" y="131.611034" style="stroke: #000000; stroke-width: 0.8"/>
      </g>
     </g>
    </g>
    <g id="xtick_2">
     <g id="line2d_3">
      <path d="M 302.4 131.611034 
L 302.4 38.88 
" clip-path="url(#p912cffcd60)" style="fill: none; stroke-dasharray: 1.85,0.8; stroke-dashoffset: 0; stroke: #b2b2b2; stroke-width: 0.5"/>
     </g>
     <g id="line2d_4">
      <g>
       <use xlink:href="#m1469178b8c" x="302.4" y="131.611034" style="stroke: #000000; stroke-width: 0.8"/>
      </g>
     </g>
    </g>
    <g id="xtick_3">
     <g id="line2d_5">
      <path d="M 463.68 131.611034 
L 463.68 38.88 
" clip-path="url(#p912cffcd60)" style="fill: none; stroke-dasharray: 1.85,0.8; stroke-dashoffset: 0; stroke: #b2b2b2; stroke-width: 0.5"/>
     </g>
     <g id="line2d_6">
      <g>
       <use xlink:href="#m1469178b8c" x="463.68" y="131.611034" style="stroke: #000000; stroke-width: 0.8"/>
      </g>
     </g>
    </g>
    <g id="xtick_4">
     <g id="line2d_7">
      <path d="M 624.96 131.611034 
L 624.96 38.88 
" clip-path="url(#p912cffcd60)" style="fill: none; stroke-dasharray: 1.85,0.8; stroke-dashoffset: 0; stroke: #b2b2b2; stroke-width: 0.5"/>
     </g>
     <g id="line2d_8">
      <g>
       <use xlink:href="#m1469178b8c" x="624.96" y="131.611034" style="stroke: #000000; stroke-width: 0.8"/>
      </g>
     </g>
    </g>
    <g id="xtick_5">
     <g id="line2d_9">
      <path d="M 786.24 131.611034 
L 786.24 38.88 
" clip-path="url(#p912cffcd60)" style="fill: none; stroke-dasharray: 1.85,0.8; stroke-dashoffset: 0; stroke: #b2b2b2; stroke-width: 0.5"/>
     </g>
     <g id="line2d_10">
      <g>
       <use xlink:href="#m1469178b8c" x="786.24" y="131.611034" style="stroke: #000000; stroke-width: 0.8"/>
      </g>
     </g>
    </g>
    <g id="xtick_6">
     <g id="line2d_11">
      <path d="M 947.52 131.611034 
L 947.52 38.88 
" clip-path="url(#p912cffcd60)" style="fill: none; stroke-dasharray: 1.85,0.8; stroke-dashoffset: 0; stroke: #b2b2b2; stroke-width: 0.5"/>
     </g>
     <g id="line2d_12">
      <g>
       <use xlink:href="#m1469178b8c" x="947.52" y="131.611034" style="stroke: #000000; stroke-width: 0.8"/>
      </g>
     </g>
    </g>
   </g>
   <g id="matplotlib.axis_2">
    <g id="ytick_1">
     <g id="line2d_13">
      <path d="M 100.8 98.340394 
L 987.84 98.340394 
" clip-path="url(#p912cffcd60)" style="fill: none; stroke-dasharray: 1.85,0.8; stroke-dashoffset: 0; stroke: #b2b2b2; stroke-width: 0.5"/>
     </g>
     <g id="line2d_14">
      <defs>
       <path id="m9f54a86b06" d="M 0 0 
L 3.5 0 
" style="stroke: #000000; stroke-width: 0.8"/>
      </defs>
      <g>
       <use xlink:href="#m9f54a86b06" x="100.8" y="98.340394" style="stroke: #000000; stroke-width: 0.8"/>
      </g>
     </g>
     <g id="text_1">
      <!-- −200 V -->
      <g transform="translate(44.819688 103.6593) scale(0.14 -0.14)">
       <defs>
        <path id="DejaVuSans-2212" d="M 678 2272 
L 4684 2272 
L 4684 1741 
L 678 1741 
L 678 2272 
z
" transform="scale(0.015625)"/>
        <path id="DejaVuSans-32" d="M 1228 531 
L 3431 531 
L 3431 0 
L 469 0 
L 469 531 
Q 828 903 1448 1529 
Q 2069 2156 2228 2338 
Q 2531 2678 2651 2914 
Q 2772 3150 2772 3378 
Q 2772 3750 2511 3984 
Q 2250 4219 1831 4219 
Q 1534 4219 1204 4116 
Q 875 4013 500 3803 
L 500 4441 
Q 881 4594 1212 4672 
Q 1544 4750 1819 4750 
Q 2544 4750 2975 4387 
Q 3406 4025 3406 3419 
Q 3406 3131 3298 2873 
Q 3191 2616 2906 2266 
Q 2828 2175 2409 1742 
Q 1991 1309 1228 531 
z
" transform="scale(0.015625)"/>
        <path id="DejaVuSans-30" d="M 2034 4250 
Q 1547 4250 1301 3770 
Q 1056 3291 1056 2328 
Q 1056 1369 1301 889 
Q 1547 409 2034 409 
Q 2525 409 2770 889 
Q 3016 1369 3016 2328 
Q 3016 3291 2770 3770 
Q 2525 4250 2034 4250 
z
M 2034 4750 
Q 2819 4750 3233 4129 
Q 3647 3509 3647 2328 
Q 3647 1150 3233 529 
Q 2819 -91 2034 -91 
Q 1250 -91 836 529 
Q 422 1150 422 2328 
Q 422 3509 836 4129 
Q 1250 4750 2034 4750 
z
" transform="scale(0.015625)"/>
        <path id="DejaVuSans-20" transform="scale(0.015625)"/>
        <path id="DejaVuSans-56" d="M 1831 0 
L 50 4666 
L 709 4666 
L 2188 738 
L 3669 4666 
L 4325 4666 
L 2547 0 
L 1831 0 
z
" transform="scale(0.015625)"/>
       </defs>
       <use xlink:href="#DejaVuSans-2212"/>
       <use xlink:href="#DejaVuSans-32" x="83.789062"/>
       <use xlink:href="#DejaVuSans-30" x="147.412109"/>
       <use xlink:href="#DejaVuSans-30" x="211.035156"/>
       <use xlink:href="#DejaVuSans-20" x="274.658203"/>
       <use xlink:href="#DejaVuSans-56" x="306.445312"/>
      </g>
     </g>
    </g>
    <g id="ytick_2">
     <g id="line2d_15">
      <path d="M 100.8 45.027377 
L 987.84 45.027377 
" clip-path="url(#p912cffcd60)" style="fill: none; stroke-dasharray: 1.85,0.8; stroke-dashoffset: 0; stroke: #b2b2b2; stroke-width: 0.5"/>
     </g>
     <g id="line2d_16">
      <g>
       <use xlink:href="#m9f54a86b06" x="100.8" y="45.027377" style="stroke: #000000; stroke-width: 0.8"/>
      </g>
     </g>
     <g id="text_2">
      <!-- 0 V -->
      <g transform="translate(74.36625 50.346284) scale(0.14 -0.14)">
       <use xlink:href="#DejaVuSans-30"/>
       <use xlink:href="#DejaVuSans-20" x="63.623047"/>
       <use xlink:href="#DejaVuSans-56" x="95.410156"/>
      </g>
     </g>
    </g>
    <g id="text_3">
     <g id="patch_3">
      <path d="M 34.8768 131.080205 
L 34.8768 39.41083 
L 11.247425 39.41083 
L 11.247425 131.080205 
z
" style="fill: #ffff00; opacity: 0.2; stroke: #eeeeee; stroke-width: 0.5; stroke-linejoin: miter"/>
     </g>
     <!-- VPULSE BBI -->
     <g transform="translate(26.925238 126.040205) rotate(-90) scale(0.14 -0.14)">
      <defs>
       <path id="DejaVuSans-50" d="M 1259 4147 
L 1259 2394 
L 2053 2394 
Q 2494 2394 2734 2622 
Q 2975 2850 2975 3272 
Q 2975 3691 2734 3919 
Q 2494 4147 2053 4147 
L 1259 4147 
z
M 628 4666 
L 2053 4666 
Q 2838 4666 3239 4311 
Q 3641 3956 3641 3272 
Q 3641 2581 3239 2228 
Q 2838 1875 2053 1875 
L 1259 1875 
L 1259 0 
L 628 0 
L 628 4666 
z
" transform="scale(0.015625)"/>
       <path id="DejaVuSans-55" d="M 556 4666 
L 1191 4666 
L 1191 1831 
Q 1191 1081 1462 751 
Q 1734 422 2344 422 
Q 2950 422 3222 751 
Q 3494 1081 3494 1831 
L 3494 4666 
L 4128 4666 
L 4128 1753 
Q 4128 841 3676 375 
Q 3225 -91 2344 -91 
Q 1459 -91 1007 375 
Q 556 841 556 1753 
L 556 4666 
z
" transform="scale(0.015625)"/>
       <path id="DejaVuSans-4c" d="M 628 4666 
L 1259 4666 
L 1259 531 
L 3531 531 
L 3531 0 
L 628 0 
L 628 4666 
z
" transform="scale(0.015625)"/>
       <path id="DejaVuSans-53" d="M 3425 4513 
L 3425 3897 
Q 3066 4069 2747 4153 
Q 2428 4238 2131 4238 
Q 1616 4238 1336 4038 
Q 1056 3838 1056 3469 
Q 1056 3159 1242 3001 
Q 1428 2844 1947 2747 
L 2328 2669 
Q 3034 2534 3370 2195 
Q 3706 1856 3706 1288 
Q 3706 609 3251 259 
Q 2797 -91 1919 -91 
Q 1588 -91 1214 -16 
Q 841 59 441 206 
L 441 856 
Q 825 641 1194 531 
Q 1563 422 1919 422 
Q 2459 422 2753 634 
Q 3047 847 3047 1241 
Q 3047 1584 2836 1778 
Q 2625 1972 2144 2069 
L 1759 2144 
Q 1053 2284 737 2584 
Q 422 2884 422 3419 
Q 422 4038 858 4394 
Q 1294 4750 2059 4750 
Q 2388 4750 2728 4690 
Q 3069 4631 3425 4513 
z
" transform="scale(0.015625)"/>
       <path id="DejaVuSans-45" d="M 628 4666 
L 3578 4666 
L 3578 4134 
L 1259 4134 
L 1259 2753 
L 3481 2753 
L 3481 2222 
L 1259 2222 
L 1259 531 
L 3634 531 
L 3634 0 
L 628 0 
L 628 4666 
z
" transform="scale(0.015625)"/>
       <path id="DejaVuSans-42" d="M 1259 2228 
L 1259 519 
L 2272 519 
Q 2781 519 3026 730 
Q 3272 941 3272 1375 
Q 3272 1813 3026 2020 
Q 2781 2228 2272 2228 
L 1259 2228 
z
M 1259 4147 
L 1259 2741 
L 2194 2741 
Q 2656 2741 2882 2914 
Q 3109 3088 3109 3444 
Q 3109 3797 2882 3972 
Q 2656 4147 2194 4147 
L 1259 4147 
z
M 628 4666 
L 2241 4666 
Q 2963 4666 3353 4366 
Q 3744 4066 3744 3513 
Q 3744 3084 3544 2831 
Q 3344 2578 2956 2516 
Q 3422 2416 3680 2098 
Q 3938 1781 3938 1306 
Q 3938 681 3513 340 
Q 3088 0 2303 0 
L 628 0 
L 628 4666 
z
" transform="scale(0.015625)"/>
       <path id="DejaVuSans-49" d="M 628 4666 
L 1259 4666 
L 1259 0 
L 628 0 
L 628 4666 
z
" transform="scale(0.015625)"/>
      </defs>
      <use xlink:href="#DejaVuSans-56"/>
      <use xlink:href="#DejaVuSans-50" x="68.408203"/>
      <use xlink:href="#DejaVuSans-55" x="128.710938"/>
      <use xlink:href="#DejaVuSans-4c" x="201.904297"/>
      <use xlink:href="#DejaVuSans-53" x="257.617188"/>
      <use xlink:href="#DejaVuSans-45" x="321.09375"/>
      <use xlink:href="#DejaVuSans-20" x="384.277344"/>
      <use xlink:href="#DejaVuSans-42" x="416.064453"/>
      <use xlink:href="#DejaVuSans-42" x="484.667969"/>
      <use xlink:href="#DejaVuSans-49" x="553.271484"/>
     </g>
    </g>
   </g>
   <g id="line2d_17">
    <path d="M 141.12 45.027377 
L 308.883456 45.136282 
L 309.367296 46.425538 
L 317.592576 69.006772 
L 325.011456 89.863624 
L 326.624256 94.440546 
L 328.430592 99.673219 
L 331.91424 110.807642 
L 333.494784 115.851054 
L 334.752768 119.566971 
L 335.978496 120.153414 
L 336.817152 120.545265 
L 337.849344 121.017085 
L 338.429952 121.272988 
L 339.300864 121.656841 
L 339.881472 121.912744 
L 340.720128 122.269941 
L 342.300672 122.936354 
L 342.945792 123.202919 
L 344.042496 123.629423 
L 344.784384 123.922644 
L 345.881088 124.349149 
L 346.784256 124.677024 
L 347.461632 124.943589 
L 348.268032 125.25547 
L 349.622784 125.804594 
L 352.267776 126.790885 
L 352.88064 127.022796 
L 354.816 127.395987 
L 373.298688 127.289361 
L 373.52448 126.801547 
L 391.813632 75.087922 
L 395.555328 63.292417 
L 399.264768 51.617666 
L 403.877376 49.3412 
L 409.231872 46.984578 
L 417.940992 43.484472 
L 418.811904 43.268927 
L 433.101312 43.108189 
L 439.907328 43.184799 
L 455.261184 43.746186 
L 483.0336 44.46146 
L 508.67712 44.774399 
L 544.287744 44.945888 
L 592.316928 44.953885 
L 947.52 44.953885 
L 947.52 44.953885 
" clip-path="url(#p912cffcd60)" style="fill: none; stroke: #ff0000; stroke-width: 2; stroke-linecap: square"/>
   </g>
   <g id="patch_4">
    <path d="M 100.8 131.611034 
L 100.8 38.88 
" style="fill: none; stroke: #bcbcbc; stroke-width: 0.8; stroke-linejoin: miter; stroke-linecap: square"/>
   </g>
   <g id="patch_5">
    <path d="M 987.84 131.611034 
L 987.84 38.88 
" style="fill: none; stroke: #bcbcbc; stroke-width: 0.8; stroke-linejoin: miter; stroke-linecap: square"/>
   </g>
   <g id="patch_6">
    <path d="M 100.8 131.611034 
L 987.84 131.611034 
" style="fill: none; stroke: #bcbcbc; stroke-width: 0.8; stroke-linejoin: miter; stroke-linecap: square"/>
   </g>
   <g id="patch_7">
    <path d="M 100.8 38.88 
L 987.84 38.88 
" style="fill: none; stroke: #bcbcbc; stroke-width: 0.8; stroke-linejoin: miter; stroke-linecap: square"/>
   </g>
  </g>
  <g id="axes_2">
   <g id="patch_8">
    <path d="M 100.8 242.888276 
L 987.84 242.888276 
L 987.84 150.157241 
L 100.8 150.157241 
z
" style="fill: #eeeeee"/>
   </g>
   <g id="matplotlib.axis_3">
    <g id="xtick_7">
     <g id="line2d_18">
      <path d="M 141.12 242.888276 
L 141.12 150.157241 
" clip-path="url(#pa2f87fb55c)" style="fill: none; stroke-dasharray: 1.85,0.8; stroke-dashoffset: 0; stroke: #b2b2b2; stroke-width: 0.5"/>
     </g>
     <g id="line2d_19">
      <g>
       <use xlink:href="#m1469178b8c" x="141.12" y="242.888276" style="stroke: #000000; stroke-width: 0.8"/>
      </g>
     </g>
    </g>
    <g id="xtick_8">
     <g id="line2d_20">
      <path d="M 302.4 242.888276 
L 302.4 150.157241 
" clip-path="url(#pa2f87fb55c)" style="fill: none; stroke-dasharray: 1.85,0.8; stroke-dashoffset: 0; stroke: #b2b2b2; stroke-width: 0.5"/>
     </g>
     <g id="line2d_21">
      <g>
       <use xlink:href="#m1469178b8c" x="302.4" y="242.888276" style="stroke: #000000; stroke-width: 0.8"/>
      </g>
     </g>
    </g>
    <g id="xtick_9">
     <g id="line2d_22">
      <path d="M 463.68 242.888276 
L 463.68 150.157241 
" clip-path="url(#pa2f87fb55c)" style="fill: none; stroke-dasharray: 1.85,0.8; stroke-dashoffset: 0; stroke: #b2b2b2; stroke-width: 0.5"/>
     </g>
     <g id="line2d_23">
      <g>
       <use xlink:href="#m1469178b8c" x="463.68" y="242.888276" style="stroke: #000000; stroke-width: 0.8"/>
      </g>
     </g>
    </g>
    <g id="xtick_10">
     <g id="line2d_24">
      <path d="M 624.96 242.888276 
L 624.96 150.157241 
" clip-path="url(#pa2f87fb55c)" style="fill: none; stroke-dasharray: 1.85,0.8; stroke-dashoffset: 0; stroke: #b2b2b2; stroke-width: 0.5"/>
     </g>
     <g id="line2d_25">
      <g>
       <use xlink:href="#m1469178b8c" x="624.96" y="242.888276" style="stroke: #000000; stroke-width: 0.8"/>
      </g>
     </g>
    </g>
    <g id="xtick_11">
     <g id="line2d_26">
      <path d="M 786.24 242.888276 
L 786.24 150.157241 
" clip-path="url(#pa2f87fb55c)" style="fill: none; stroke-dasharray: 1.85,0.8; stroke-dashoffset: 0; stroke: #b2b2b2; stroke-width: 0.5"/>
     </g>
     <g id="line2d_27">
      <g>
       <use xlink:href="#m1469178b8c" x="786.24" y="242.888276" style="stroke: #000000; stroke-width: 0.8"/>
      </g>
     </g>
    </g>
    <g id="xtick_12">
     <g id="line2d_28">
      <path d="M 947.52 242.888276 
L 947.52 150.157241 
" clip-path="url(#pa2f87fb55c)" style="fill: none; stroke-dasharray: 1.85,0.8; stroke-dashoffset: 0; stroke: #b2b2b2; stroke-width: 0.5"/>
     </g>
     <g id="line2d_29">
      <g>
       <use xlink:href="#m1469178b8c" x="947.52" y="242.888276" style="stroke: #000000; stroke-width: 0.8"/>
      </g>
     </g>
    </g>
   </g>
   <g id="matplotlib.axis_4">
    <g id="ytick_3">
     <g id="line2d_30">
      <path d="M 100.8 219.165548 
L 987.84 219.165548 
" clip-path="url(#pa2f87fb55c)" style="fill: none; stroke-dasharray: 1.85,0.8; stroke-dashoffset: 0; stroke: #b2b2b2; stroke-width: 0.5"/>
     </g>
     <g id="line2d_31">
      <g>
       <use xlink:href="#m9f54a86b06" x="100.8" y="219.165548" style="stroke: #000000; stroke-width: 0.8"/>
      </g>
     </g>
     <g id="text_4">
      <!-- 0 V -->
      <g transform="translate(74.36625 224.484454) scale(0.14 -0.14)">
       <use xlink:href="#DejaVuSans-30"/>
       <use xlink:href="#DejaVuSans-20" x="63.623047"/>
       <use xlink:href="#DejaVuSans-56" x="95.410156"/>
      </g>
     </g>
    </g>
    <g id="ytick_4">
     <g id="line2d_32">
      <path d="M 100.8 185.164047 
L 987.84 185.164047 
" clip-path="url(#pa2f87fb55c)" style="fill: none; stroke-dasharray: 1.85,0.8; stroke-dashoffset: 0; stroke: #b2b2b2; stroke-width: 0.5"/>
     </g>
     <g id="line2d_33">
      <g>
       <use xlink:href="#m9f54a86b06" x="100.8" y="185.164047" style="stroke: #000000; stroke-width: 0.8"/>
      </g>
     </g>
     <g id="text_5">
      <!-- 1 V -->
      <g transform="translate(74.36625 190.482954) scale(0.14 -0.14)">
       <defs>
        <path id="DejaVuSans-31" d="M 794 531 
L 1825 531 
L 1825 4091 
L 703 3866 
L 703 4441 
L 1819 4666 
L 2450 4666 
L 2450 531 
L 3481 531 
L 3481 0 
L 794 0 
L 794 531 
z
" transform="scale(0.015625)"/>
       </defs>
       <use xlink:href="#DejaVuSans-31"/>
       <use xlink:href="#DejaVuSans-20" x="63.623047"/>
       <use xlink:href="#DejaVuSans-56" x="95.410156"/>
      </g>
     </g>
    </g>
    <g id="ytick_5">
     <g id="line2d_34">
      <path d="M 100.8 151.162547 
L 987.84 151.162547 
" clip-path="url(#pa2f87fb55c)" style="fill: none; stroke-dasharray: 1.85,0.8; stroke-dashoffset: 0; stroke: #b2b2b2; stroke-width: 0.5"/>
     </g>
     <g id="line2d_35">
      <g>
       <use xlink:href="#m9f54a86b06" x="100.8" y="151.162547" style="stroke: #000000; stroke-width: 0.8"/>
      </g>
     </g>
     <g id="text_6">
      <!-- 2 V -->
      <g transform="translate(74.36625 156.481453) scale(0.14 -0.14)">
       <use xlink:href="#DejaVuSans-32"/>
       <use xlink:href="#DejaVuSans-20" x="63.623047"/>
       <use xlink:href="#DejaVuSans-56" x="95.410156"/>
      </g>
     </g>
    </g>
    <g id="text_7">
     <g id="patch_9">
      <path d="M 34.8768 224.531509 
L 34.8768 168.514009 
L 11.247425 168.514009 
L 11.247425 224.531509 
z
" style="fill: #ffff00; opacity: 0.2; stroke: #eeeeee; stroke-width: 0.5; stroke-linejoin: miter"/>
     </g>
     <!-- DFF IN -->
     <g transform="translate(26.925238 219.491509) rotate(-90) scale(0.14 -0.14)">
      <defs>
       <path id="DejaVuSans-44" d="M 1259 4147 
L 1259 519 
L 2022 519 
Q 2988 519 3436 956 
Q 3884 1394 3884 2338 
Q 3884 3275 3436 3711 
Q 2988 4147 2022 4147 
L 1259 4147 
z
M 628 4666 
L 1925 4666 
Q 3281 4666 3915 4102 
Q 4550 3538 4550 2338 
Q 4550 1131 3912 565 
Q 3275 0 1925 0 
L 628 0 
L 628 4666 
z
" transform="scale(0.015625)"/>
       <path id="DejaVuSans-46" d="M 628 4666 
L 3309 4666 
L 3309 4134 
L 1259 4134 
L 1259 2759 
L 3109 2759 
L 3109 2228 
L 1259 2228 
L 1259 0 
L 628 0 
L 628 4666 
z
" transform="scale(0.015625)"/>
       <path id="DejaVuSans-4e" d="M 628 4666 
L 1478 4666 
L 3547 763 
L 3547 4666 
L 4159 4666 
L 4159 0 
L 3309 0 
L 1241 3903 
L 1241 0 
L 628 0 
L 628 4666 
z
" transform="scale(0.015625)"/>
      </defs>
      <use xlink:href="#DejaVuSans-44"/>
      <use xlink:href="#DejaVuSans-46" x="77.001953"/>
      <use xlink:href="#DejaVuSans-46" x="134.521484"/>
      <use xlink:href="#DejaVuSans-20" x="192.041016"/>
      <use xlink:href="#DejaVuSans-49" x="223.828125"/>
      <use xlink:href="#DejaVuSans-4e" x="253.320312"/>
     </g>
    </g>
   </g>
   <g id="line2d_36">
    <path d="M 141.12 219.115892 
L 221.953536 219.069266 
L 224.437248 200.124028 
L 225.404928 194.360773 
L 228.243456 181.689094 
L 229.598208 180.417438 
L 231.178752 179.543599 
L 236.533248 179.087979 
L 243.5328 178.979174 
L 244.952064 178.938373 
L 248.145408 178.829568 
L 249.790464 178.764965 
L 251.887104 178.65616 
L 254.241792 178.309345 
L 254.757888 177.772121 
L 255.499776 177.432106 
L 256.338432 177.445707 
L 259.789824 178.061134 
L 262.467072 178.234542 
L 263.886336 178.282144 
L 264.144384 183.525175 
L 264.434688 187.092612 
L 265.176576 191.845002 
L 267.144192 209.191548 
L 268.402176 215.704535 
L 269.047296 216.988636 
L 270.46656 218.752634 
L 273.724416 219.167384 
L 282.530304 219.119935 
L 297.013248 219.110102 
L 305.528832 219.115266 
L 308.947968 219.209342 
L 310.367232 220.581676 
L 312.270336 221.55905 
L 313.52832 221.805492 
L 315.431424 221.930414 
L 317.044224 222.101339 
L 318.173184 222.692184 
L 320.205312 223.658506 
L 321.527808 224.349077 
L 324.043776 225.732598 
L 324.65664 225.692136 
L 325.204992 225.421144 
L 325.850112 224.790416 
L 326.462976 224.19539 
L 326.656512 224.281074 
L 327.011328 224.819657 
L 327.785472 226.093694 
L 327.946752 226.270841 
L 328.108032 226.477911 
L 328.269312 226.832886 
L 329.0112 228.521401 
L 329.236992 228.813474 
L 329.65632 229.841339 
L 330.591744 231.488712 
L 330.882048 232.074558 
L 331.172352 232.823611 
L 331.623936 233.468959 
L 332.07552 234.217672 
L 333.36576 236.545415 
L 333.52704 236.833408 
L 333.881856 237.519898 
L 334.688256 238.673229 
L 335.075328 238.46718 
L 335.236608 238.266231 
L 335.559168 237.835432 
L 335.94624 237.184643 
L 336.301056 236.504953 
L 336.526848 236.237701 
L 337.591296 234.953465 
L 337.978368 234.296556 
L 338.591232 233.72397 
L 338.784768 233.635907 
L 339.849216 232.722286 
L 340.365312 231.986154 
L 340.494336 231.890269 
L 340.720128 231.631858 
L 340.881408 231.628118 
L 341.397504 231.267362 
L 341.655552 231.106195 
L 342.849024 229.800537 
L 343.171584 229.344577 
L 343.429632 229.196671 
L 343.590912 229.218432 
L 343.84896 229.015783 
L 344.268288 228.838295 
L 345.526272 227.765547 
L 346.139136 227.024315 
L 346.26816 226.933531 
L 346.558464 226.725102 
L 348.20352 225.593192 
L 349.784064 224.288554 
L 350.396928 223.930858 
L 351.42912 223.127743 
L 354.622464 220.398136 
L 355.332096 219.492194 
L 356.686848 217.608585 
L 357.39648 216.567221 
L 357.71904 216.089534 
L 359.622144 213.560741 
L 361.041408 211.829724 
L 363.331584 209.047721 
L 364.234752 206.327601 
L 365.46048 202.945472 
L 366.395904 200.997866 
L 369.750528 196.313139 
L 370.814976 195.063584 
L 371.524608 194.190426 
L 373.330944 192.426088 
L 373.588992 191.781079 
L 374.459904 188.523056 
L 375.29856 185.817896 
L 376.137216 183.980795 
L 376.685568 183.202161 
L 378.233856 181.580289 
L 383.072256 175.803434 
L 388.878336 167.428865 
L 399.297024 154.40289 
L 400.748544 154.746305 
L 401.683968 154.753105 
L 402.780672 154.875511 
L 403.2 154.936713 
L 403.974144 155.123722 
L 405.651456 155.54194 
L 406.490112 155.739149 
L 408.941568 156.398778 
L 409.941504 156.721792 
L 411.296256 157.174012 
L 415.392768 158.421867 
L 415.812096 157.469825 
L 416.166912 157.150211 
L 416.457216 157.12981 
L 416.9088 157.323619 
L 420.747264 160.417755 
L 425.714688 162.916865 
L 426.90816 163.409887 
L 430.843392 164.950155 
L 433.972224 166.055204 
L 435.391488 166.538025 
L 435.93984 166.701233 
L 444.81024 169.390751 
L 446.777856 169.914374 
L 447.455232 170.084382 
L 453.261312 171.420641 
L 453.777408 171.526045 
L 454.906368 171.750455 
L 455.809536 172.144873 
L 456.293376 172.896306 
L 456.873984 173.249922 
L 457.39008 173.358726 
L 458.390016 173.256722 
L 459.873792 172.903106 
L 462.034944 173.011911 
L 464.873472 173.416529 
L 465.550848 173.515133 
L 467.22816 173.759944 
L 468.002304 173.865349 
L 469.48608 174.069358 
L 470.356992 174.178162 
L 471.647232 174.34137 
L 472.453632 174.446774 
L 473.582592 174.57598 
L 474.582528 174.681385 
L 475.872768 174.841192 
L 476.840448 174.949997 
L 484.96896 175.69803 
L 486.355968 175.806834 
L 489.936384 176.075446 
L 490.549248 176.109448 
L 491.065344 176.16045 
L 493.871616 176.347458 
L 494.516736 176.38486 
L 496.032768 176.439262 
L 496.613376 175.817035 
L 497.161728 175.596025 
L 498.774528 175.874837 
L 499.871232 176.221653 
L 502.774272 176.724875 
L 503.935488 176.83028 
L 504.419328 176.867681 
L 506.870784 177.017288 
L 509.064192 177.126093 
L 510.547968 177.173695 
L 513.612288 177.282499 
L 514.031616 177.309701 
L 514.773504 177.336902 
L 516.192768 177.381104 
L 517.031424 177.401505 
L 520.708608 177.506909 
L 521.25696 177.51371 
L 526.09536 177.619114 
L 526.41792 177.636115 
L 531.546624 177.74492 
L 532.675584 177.75512 
L 536.385024 177.860525 
L 537.030144 178.571156 
L 537.804288 178.856769 
L 538.481664 178.88737 
L 539.4816 178.676561 
L 540.513792 178.356947 
L 541.868544 178.183539 
L 543.803904 178.084935 
L 544.80384 178.081535 
L 576.672768 177.996531 
L 577.253376 177.377704 
L 577.898496 177.092091 
L 578.9952 177.081891 
L 582.962688 177.806123 
L 584.64 177.874126 
L 616.960512 177.98293 
L 617.121792 178.163138 
L 617.637888 178.683361 
L 618.02496 178.866969 
L 618.637824 179.006376 
L 620.992512 178.900971 
L 623.282688 178.530355 
L 628.733952 178.064534 
L 657.312768 177.996531 
L 657.86112 177.381104 
L 658.409472 177.105692 
L 660.344832 177.214496 
L 663.602688 177.789122 
L 665.699328 177.901327 
L 697.632768 177.996531 
L 698.568192 178.832968 
L 699.503616 179.013176 
L 700.793856 179.043777 
L 703.567872 178.571156 
L 709.438464 178.061134 
L 737.952768 177.996531 
L 738.50112 177.381104 
L 739.049472 177.105692 
L 740.984832 177.214496 
L 744.242688 177.789122 
L 746.339328 177.901327 
L 778.272768 177.996531 
L 779.208192 178.832968 
L 780.143616 179.013176 
L 781.433856 179.043777 
L 784.207872 178.571156 
L 790.046208 178.064534 
L 818.592768 177.996531 
L 819.14112 177.381104 
L 819.689472 177.105692 
L 821.624832 177.214496 
L 824.882688 177.789122 
L 826.979328 177.901327 
L 858.912768 177.996531 
L 859.848192 178.832968 
L 860.783616 179.013176 
L 862.073856 179.043777 
L 864.847872 178.571156 
L 870.686208 178.064534 
L 899.232768 177.996531 
L 899.78112 177.381104 
L 900.329472 177.105692 
L 902.264832 177.214496 
L 905.522688 177.789122 
L 907.619328 177.901327 
L 939.552768 177.996531 
L 940.617216 178.863569 
L 941.55264 179.050578 
L 943.455744 178.941773 
L 944.810496 178.690162 
L 947.03616 178.333146 
L 947.52 178.258343 
L 947.52 178.258343 
" clip-path="url(#pa2f87fb55c)" style="fill: none; stroke: #008000; stroke-width: 2; stroke-linecap: square"/>
   </g>
   <g id="patch_10">
    <path d="M 100.8 242.888276 
L 100.8 150.157241 
" style="fill: none; stroke: #bcbcbc; stroke-width: 0.8; stroke-linejoin: miter; stroke-linecap: square"/>
   </g>
   <g id="patch_11">
    <path d="M 987.84 242.888276 
L 987.84 150.157241 
" style="fill: none; stroke: #bcbcbc; stroke-width: 0.8; stroke-linejoin: miter; stroke-linecap: square"/>
   </g>
   <g id="patch_12">
    <path d="M 100.8 242.888276 
L 987.84 242.888276 
" style="fill: none; stroke: #bcbcbc; stroke-width: 0.8; stroke-linejoin: miter; stroke-linecap: square"/>
   </g>
   <g id="patch_13">
    <path d="M 100.8 150.157241 
L 987.84 150.157241 
" style="fill: none; stroke: #bcbcbc; stroke-width: 0.8; stroke-linejoin: miter; stroke-linecap: square"/>
   </g>
  </g>
  <g id="axes_3">
   <g id="patch_14">
    <path d="M 100.8 354.165517 
L 987.84 354.165517 
L 987.84 261.434483 
L 100.8 261.434483 
z
" style="fill: #eeeeee"/>
   </g>
   <g id="matplotlib.axis_5">
    <g id="xtick_13">
     <g id="line2d_37">
      <path d="M 141.12 354.165517 
L 141.12 261.434483 
" clip-path="url(#p51af6640fe)" style="fill: none; stroke-dasharray: 1.85,0.8; stroke-dashoffset: 0; stroke: #b2b2b2; stroke-width: 0.5"/>
     </g>
     <g id="line2d_38">
      <g>
       <use xlink:href="#m1469178b8c" x="141.12" y="354.165517" style="stroke: #000000; stroke-width: 0.8"/>
      </g>
     </g>
    </g>
    <g id="xtick_14">
     <g id="line2d_39">
      <path d="M 302.4 354.165517 
L 302.4 261.434483 
" clip-path="url(#p51af6640fe)" style="fill: none; stroke-dasharray: 1.85,0.8; stroke-dashoffset: 0; stroke: #b2b2b2; stroke-width: 0.5"/>
     </g>
     <g id="line2d_40">
      <g>
       <use xlink:href="#m1469178b8c" x="302.4" y="354.165517" style="stroke: #000000; stroke-width: 0.8"/>
      </g>
     </g>
    </g>
    <g id="xtick_15">
     <g id="line2d_41">
      <path d="M 463.68 354.165517 
L 463.68 261.434483 
" clip-path="url(#p51af6640fe)" style="fill: none; stroke-dasharray: 1.85,0.8; stroke-dashoffset: 0; stroke: #b2b2b2; stroke-width: 0.5"/>
     </g>
     <g id="line2d_42">
      <g>
       <use xlink:href="#m1469178b8c" x="463.68" y="354.165517" style="stroke: #000000; stroke-width: 0.8"/>
      </g>
     </g>
    </g>
    <g id="xtick_16">
     <g id="line2d_43">
      <path d="M 624.96 354.165517 
L 624.96 261.434483 
" clip-path="url(#p51af6640fe)" style="fill: none; stroke-dasharray: 1.85,0.8; stroke-dashoffset: 0; stroke: #b2b2b2; stroke-width: 0.5"/>
     </g>
     <g id="line2d_44">
      <g>
       <use xlink:href="#m1469178b8c" x="624.96" y="354.165517" style="stroke: #000000; stroke-width: 0.8"/>
      </g>
     </g>
    </g>
    <g id="xtick_17">
     <g id="line2d_45">
      <path d="M 786.24 354.165517 
L 786.24 261.434483 
" clip-path="url(#p51af6640fe)" style="fill: none; stroke-dasharray: 1.85,0.8; stroke-dashoffset: 0; stroke: #b2b2b2; stroke-width: 0.5"/>
     </g>
     <g id="line2d_46">
      <g>
       <use xlink:href="#m1469178b8c" x="786.24" y="354.165517" style="stroke: #000000; stroke-width: 0.8"/>
      </g>
     </g>
    </g>
    <g id="xtick_18">
     <g id="line2d_47">
      <path d="M 947.52 354.165517 
L 947.52 261.434483 
" clip-path="url(#p51af6640fe)" style="fill: none; stroke-dasharray: 1.85,0.8; stroke-dashoffset: 0; stroke: #b2b2b2; stroke-width: 0.5"/>
     </g>
     <g id="line2d_48">
      <g>
       <use xlink:href="#m1469178b8c" x="947.52" y="354.165517" style="stroke: #000000; stroke-width: 0.8"/>
      </g>
     </g>
    </g>
   </g>
   <g id="matplotlib.axis_6">
    <g id="ytick_6">
     <g id="line2d_49">
      <path d="M 100.8 343.168736 
L 987.84 343.168736 
" clip-path="url(#p51af6640fe)" style="fill: none; stroke-dasharray: 1.85,0.8; stroke-dashoffset: 0; stroke: #b2b2b2; stroke-width: 0.5"/>
     </g>
     <g id="line2d_50">
      <g>
       <use xlink:href="#m9f54a86b06" x="100.8" y="343.168736" style="stroke: #000000; stroke-width: 0.8"/>
      </g>
     </g>
     <g id="text_8">
      <!-- 0 V -->
      <g transform="translate(74.36625 348.487642) scale(0.14 -0.14)">
       <use xlink:href="#DejaVuSans-30"/>
       <use xlink:href="#DejaVuSans-20" x="63.623047"/>
       <use xlink:href="#DejaVuSans-56" x="95.410156"/>
      </g>
     </g>
    </g>
    <g id="ytick_7">
     <g id="line2d_51">
      <path d="M 100.8 299.68214 
L 987.84 299.68214 
" clip-path="url(#p51af6640fe)" style="fill: none; stroke-dasharray: 1.85,0.8; stroke-dashoffset: 0; stroke: #b2b2b2; stroke-width: 0.5"/>
     </g>
     <g id="line2d_52">
      <g>
       <use xlink:href="#m9f54a86b06" x="100.8" y="299.68214" style="stroke: #000000; stroke-width: 0.8"/>
      </g>
     </g>
     <g id="text_9">
      <!-- 1 V -->
      <g transform="translate(74.36625 305.001046) scale(0.14 -0.14)">
       <use xlink:href="#DejaVuSans-31"/>
       <use xlink:href="#DejaVuSans-20" x="63.623047"/>
       <use xlink:href="#DejaVuSans-56" x="95.410156"/>
      </g>
     </g>
    </g>
    <g id="text_10">
     <g id="patch_15">
      <path d="M 34.8768 342.395313 
L 34.8768 273.204688 
L 11.247425 273.204688 
L 11.247425 342.395313 
z
" style="fill: #ffff00; opacity: 0.2; stroke: #eeeeee; stroke-width: 0.5; stroke-linejoin: miter"/>
     </g>
     <!-- CLK BUF -->
     <g transform="translate(26.925238 337.355313) rotate(-90) scale(0.14 -0.14)">
      <defs>
       <path id="DejaVuSans-43" d="M 4122 4306 
L 4122 3641 
Q 3803 3938 3442 4084 
Q 3081 4231 2675 4231 
Q 1875 4231 1450 3742 
Q 1025 3253 1025 2328 
Q 1025 1406 1450 917 
Q 1875 428 2675 428 
Q 3081 428 3442 575 
Q 3803 722 4122 1019 
L 4122 359 
Q 3791 134 3420 21 
Q 3050 -91 2638 -91 
Q 1578 -91 968 557 
Q 359 1206 359 2328 
Q 359 3453 968 4101 
Q 1578 4750 2638 4750 
Q 3056 4750 3426 4639 
Q 3797 4528 4122 4306 
z
" transform="scale(0.015625)"/>
       <path id="DejaVuSans-4b" d="M 628 4666 
L 1259 4666 
L 1259 2694 
L 3353 4666 
L 4166 4666 
L 1850 2491 
L 4331 0 
L 3500 0 
L 1259 2247 
L 1259 0 
L 628 0 
L 628 4666 
z
" transform="scale(0.015625)"/>
      </defs>
      <use xlink:href="#DejaVuSans-43"/>
      <use xlink:href="#DejaVuSans-4c" x="69.824219"/>
      <use xlink:href="#DejaVuSans-4b" x="125.537109"/>
      <use xlink:href="#DejaVuSans-20" x="191.113281"/>
      <use xlink:href="#DejaVuSans-42" x="222.900391"/>
      <use xlink:href="#DejaVuSans-55" x="291.503906"/>
      <use xlink:href="#DejaVuSans-46" x="364.697266"/>
     </g>
    </g>
   </g>
   <g id="line2d_53">
    <path d="M 141.12 343.167586 
L 173.376 343.167586 
L 173.601792 290.984821 
L 213.696 290.984821 
L 213.760512 332.609755 
L 213.825024 343.148869 
L 213.889536 343.086289 
L 213.954048 343.260014 
L 214.01856 343.173448 
L 215.341056 343.164324 
L 223.340544 343.167551 
L 254.016 343.167556 
L 254.17728 290.82392 
L 254.241792 291.102234 
L 254.403072 290.976123 
L 254.854656 290.984821 
L 294.336 290.984821 
L 294.368256 294.807292 
L 294.49728 343.064111 
L 294.626304 343.174254 
L 295.819776 343.166656 
L 308.883456 343.21781 
L 309.98016 344.142705 
L 310.851072 344.466724 
L 312.012288 344.647715 
L 314.01216 344.699594 
L 319.237632 344.554958 
L 322.850304 344.440501 
L 324.914688 344.40619 
L 324.946944 344.319652 
L 325.043712 344.377359 
L 326.946816 344.407103 
L 327.269376 344.464462 
L 328.624128 345.00674 
L 331.720704 346.895493 
L 331.946496 347.032172 
L 334.656 348.676313 
L 334.688256 349.95047 
L 334.881792 325.809321 
L 335.075328 325.580147 
L 335.204352 325.543618 
L 335.526912 325.398808 
L 337.010688 324.781733 
L 338.236416 324.33904 
L 338.36544 324.262503 
L 340.365312 323.524971 
L 340.494336 323.439302 
L 340.720128 323.410601 
L 341.9136 322.957905 
L 345.494016 321.682009 
L 345.62304 321.56329 
L 345.78432 321.628955 
L 345.913344 321.46588 
L 346.074624 321.509802 
L 346.300416 321.381081 
L 346.461696 321.354989 
L 346.59072 321.314112 
L 346.881024 321.204961 
L 348.751872 320.567447 
L 354.138624 318.636642 
L 356.944896 316.960669 
L 366.073344 311.184779 
L 369.621504 309.255714 
L 373.459968 307.230978 
L 374.879232 304.522198 
L 374.976 304.318246 
L 375.008256 303.027998 
L 375.169536 341.431446 
L 375.330816 341.467496 
L 376.524288 341.291028 
L 378.491904 341.261109 
L 383.68512 341.462278 
L 392.781312 341.795124 
L 394.748928 341.708412 
L 397.587456 341.776512 
L 399.200256 341.889969 
L 399.877632 342.578231 
L 400.61952 343.009418 
L 401.554944 343.299152 
L 402.909696 343.479025 
L 405.361152 343.559467 
L 414.263808 343.51712 
L 415.296 343.511253 
L 415.328256 333.365987 
L 415.425024 265.64953 
L 415.45728 265.736503 
L 415.586304 265.7452 
L 419.618304 267.493361 
L 420.360192 267.954319 
L 421.134336 268.384837 
L 423.36 269.706829 
L 423.779328 269.959051 
L 424.585728 270.402615 
L 430.746624 273.59888 
L 432.456192 274.40773 
L 433.875456 275.046983 
L 445.713408 279.726141 
L 445.971456 279.82616 
L 447.519744 280.334953 
L 447.810048 280.434972 
L 448.906752 280.769819 
L 449.261568 280.869838 
L 450.487296 281.248172 
L 455.616 282.678881 
L 455.809536 343.478077 
L 455.874048 343.389921 
L 456.26112 343.385434 
L 495.936 343.231878 
L 496.065024 288.336487 
L 496.161792 288.68438 
L 496.677888 288.723518 
L 498.161664 288.814839 
L 499.709952 288.923556 
L 499.968 288.940951 
L 501.709824 289.04097 
L 502.06464 289.07141 
L 503.935488 289.171429 
L 504.290304 289.20187 
L 506.25792 289.301889 
L 506.612736 289.33233 
L 508.870656 289.432349 
L 509.225472 289.46279 
L 511.58016 289.562809 
L 511.934976 289.593249 
L 514.676736 289.693269 
L 515.031552 289.723709 
L 518.063616 289.823728 
L 518.418432 289.854169 
L 521.837568 289.954188 
L 522.192384 289.984629 
L 526.09536 290.084648 
L 526.450176 290.115089 
L 531.030528 290.215108 
L 531.385344 290.245548 
L 536.256 290.332522 
L 536.288256 295.211718 
L 536.385024 343.271842 
L 536.41728 343.107002 
L 536.643072 343.174761 
L 536.804352 343.188539 
L 537.836544 343.184547 
L 576.576 343.180039 
L 576.73728 290.462981 
L 576.801792 290.567349 
L 577.737216 290.549955 
L 616.896 290.549955 
L 617.025024 343.500791 
L 617.186304 343.247929 
L 617.444352 343.150992 
L 617.799168 343.1983 
L 618.121728 343.179811 
L 655.667712 343.180038 
L 657.216 343.180039 
L 657.37728 290.323824 
L 657.441792 290.815223 
L 657.53856 290.37166 
L 657.603072 290.53256 
L 658.086912 290.549955 
L 697.536 290.549955 
L 697.665024 343.500978 
L 697.826304 343.247886 
L 698.084352 343.151002 
L 698.439168 343.198312 
L 698.761728 343.179812 
L 736.307712 343.180038 
L 737.856 343.180039 
L 738.01728 290.323824 
L 738.081792 290.815223 
L 738.17856 290.367311 
L 738.243072 290.53256 
L 738.726912 290.549955 
L 778.176 290.549955 
L 778.305024 343.500804 
L 778.466304 343.247929 
L 778.724352 343.150993 
L 779.079168 343.1983 
L 779.401728 343.179811 
L 817.108992 343.180039 
L 818.496 343.180039 
L 818.65728 290.323824 
L 818.721792 290.815223 
L 818.81856 290.367311 
L 818.883072 290.53256 
L 819.366912 290.549955 
L 858.816 290.549955 
L 858.945024 343.500986 
L 859.106304 343.247886 
L 859.364352 343.151002 
L 859.719168 343.198312 
L 860.041728 343.179812 
L 897.587712 343.180038 
L 899.136 343.180039 
L 899.29728 290.323824 
L 899.361792 290.815223 
L 899.45856 290.367311 
L 899.523072 290.53256 
L 900.006912 290.549955 
L 939.456 290.549955 
L 939.488256 298.390588 
L 939.61728 343.12832 
L 939.649536 343.254774 
L 939.714048 343.133787 
L 939.746304 343.09563 
L 939.810816 343.151755 
L 940.004352 343.206064 
L 940.230144 343.178659 
L 945.58464 343.180044 
L 947.52 343.180029 
L 947.52 343.180029 
" clip-path="url(#p51af6640fe)" style="fill: none; stroke: #0000ff; stroke-width: 2; stroke-linecap: square"/>
   </g>
   <g id="patch_16">
    <path d="M 100.8 354.165517 
L 100.8 261.434483 
" style="fill: none; stroke: #bcbcbc; stroke-width: 0.8; stroke-linejoin: miter; stroke-linecap: square"/>
   </g>
   <g id="patch_17">
    <path d="M 987.84 354.165517 
L 987.84 261.434483 
" style="fill: none; stroke: #bcbcbc; stroke-width: 0.8; stroke-linejoin: miter; stroke-linecap: square"/>
   </g>
   <g id="patch_18">
    <path d="M 100.8 354.165517 
L 987.84 354.165517 
" style="fill: none; stroke: #bcbcbc; stroke-width: 0.8; stroke-linejoin: miter; stroke-linecap: square"/>
   </g>
   <g id="patch_19">
    <path d="M 100.8 261.434483 
L 987.84 261.434483 
" style="fill: none; stroke: #bcbcbc; stroke-width: 0.8; stroke-linejoin: miter; stroke-linecap: square"/>
   </g>
  </g>
  <g id="axes_4">
   <g id="patch_20">
    <path d="M 100.8 465.442759 
L 987.84 465.442759 
L 987.84 372.711724 
L 100.8 372.711724 
z
" style="fill: #eeeeee"/>
   </g>
   <g id="matplotlib.axis_7">
    <g id="xtick_19">
     <g id="line2d_54">
      <path d="M 141.12 465.442759 
L 141.12 372.711724 
" clip-path="url(#p1d8b50dc16)" style="fill: none; stroke-dasharray: 1.85,0.8; stroke-dashoffset: 0; stroke: #b2b2b2; stroke-width: 0.5"/>
     </g>
     <g id="line2d_55">
      <g>
       <use xlink:href="#m1469178b8c" x="141.12" y="465.442759" style="stroke: #000000; stroke-width: 0.8"/>
      </g>
     </g>
    </g>
    <g id="xtick_20">
     <g id="line2d_56">
      <path d="M 302.4 465.442759 
L 302.4 372.711724 
" clip-path="url(#p1d8b50dc16)" style="fill: none; stroke-dasharray: 1.85,0.8; stroke-dashoffset: 0; stroke: #b2b2b2; stroke-width: 0.5"/>
     </g>
     <g id="line2d_57">
      <g>
       <use xlink:href="#m1469178b8c" x="302.4" y="465.442759" style="stroke: #000000; stroke-width: 0.8"/>
      </g>
     </g>
    </g>
    <g id="xtick_21">
     <g id="line2d_58">
      <path d="M 463.68 465.442759 
L 463.68 372.711724 
" clip-path="url(#p1d8b50dc16)" style="fill: none; stroke-dasharray: 1.85,0.8; stroke-dashoffset: 0; stroke: #b2b2b2; stroke-width: 0.5"/>
     </g>
     <g id="line2d_59">
      <g>
       <use xlink:href="#m1469178b8c" x="463.68" y="465.442759" style="stroke: #000000; stroke-width: 0.8"/>
      </g>
     </g>
    </g>
    <g id="xtick_22">
     <g id="line2d_60">
      <path d="M 624.96 465.442759 
L 624.96 372.711724 
" clip-path="url(#p1d8b50dc16)" style="fill: none; stroke-dasharray: 1.85,0.8; stroke-dashoffset: 0; stroke: #b2b2b2; stroke-width: 0.5"/>
     </g>
     <g id="line2d_61">
      <g>
       <use xlink:href="#m1469178b8c" x="624.96" y="465.442759" style="stroke: #000000; stroke-width: 0.8"/>
      </g>
     </g>
    </g>
    <g id="xtick_23">
     <g id="line2d_62">
      <path d="M 786.24 465.442759 
L 786.24 372.711724 
" clip-path="url(#p1d8b50dc16)" style="fill: none; stroke-dasharray: 1.85,0.8; stroke-dashoffset: 0; stroke: #b2b2b2; stroke-width: 0.5"/>
     </g>
     <g id="line2d_63">
      <g>
       <use xlink:href="#m1469178b8c" x="786.24" y="465.442759" style="stroke: #000000; stroke-width: 0.8"/>
      </g>
     </g>
    </g>
    <g id="xtick_24">
     <g id="line2d_64">
      <path d="M 947.52 465.442759 
L 947.52 372.711724 
" clip-path="url(#p1d8b50dc16)" style="fill: none; stroke-dasharray: 1.85,0.8; stroke-dashoffset: 0; stroke: #b2b2b2; stroke-width: 0.5"/>
     </g>
     <g id="line2d_65">
      <g>
       <use xlink:href="#m1469178b8c" x="947.52" y="465.442759" style="stroke: #000000; stroke-width: 0.8"/>
      </g>
     </g>
    </g>
   </g>
   <g id="matplotlib.axis_8">
    <g id="ytick_8">
     <g id="line2d_66">
      <path d="M 100.8 440.745695 
L 987.84 440.745695 
" clip-path="url(#p1d8b50dc16)" style="fill: none; stroke-dasharray: 1.85,0.8; stroke-dashoffset: 0; stroke: #b2b2b2; stroke-width: 0.5"/>
     </g>
     <g id="line2d_67">
      <g>
       <use xlink:href="#m9f54a86b06" x="100.8" y="440.745695" style="stroke: #000000; stroke-width: 0.8"/>
      </g>
     </g>
     <g id="text_11">
      <!-- 0 V -->
      <g transform="translate(74.36625 446.064601) scale(0.14 -0.14)">
       <use xlink:href="#DejaVuSans-30"/>
       <use xlink:href="#DejaVuSans-20" x="63.623047"/>
       <use xlink:href="#DejaVuSans-56" x="95.410156"/>
      </g>
     </g>
    </g>
    <g id="ytick_9">
     <g id="line2d_68">
      <path d="M 100.8 404.754874 
L 987.84 404.754874 
" clip-path="url(#p1d8b50dc16)" style="fill: none; stroke-dasharray: 1.85,0.8; stroke-dashoffset: 0; stroke: #b2b2b2; stroke-width: 0.5"/>
     </g>
     <g id="line2d_69">
      <g>
       <use xlink:href="#m9f54a86b06" x="100.8" y="404.754874" style="stroke: #000000; stroke-width: 0.8"/>
      </g>
     </g>
     <g id="text_12">
      <!-- 1 V -->
      <g transform="translate(74.36625 410.07378) scale(0.14 -0.14)">
       <use xlink:href="#DejaVuSans-31"/>
       <use xlink:href="#DejaVuSans-20" x="63.623047"/>
       <use xlink:href="#DejaVuSans-56" x="95.410156"/>
      </g>
     </g>
    </g>
    <g id="text_13">
     <g id="patch_21">
      <path d="M 34.8768 454.693023 
L 34.8768 383.46146 
L 11.247425 383.46146 
L 11.247425 454.693023 
z
" style="fill: #ffff00; opacity: 0.2; stroke: #eeeeee; stroke-width: 0.5; stroke-linejoin: miter"/>
     </g>
     <!-- DFF OUT -->
     <g transform="translate(26.925238 449.653023) rotate(-90) scale(0.14 -0.14)">
      <defs>
       <path id="DejaVuSans-4f" d="M 2522 4238 
Q 1834 4238 1429 3725 
Q 1025 3213 1025 2328 
Q 1025 1447 1429 934 
Q 1834 422 2522 422 
Q 3209 422 3611 934 
Q 4013 1447 4013 2328 
Q 4013 3213 3611 3725 
Q 3209 4238 2522 4238 
z
M 2522 4750 
Q 3503 4750 4090 4092 
Q 4678 3434 4678 2328 
Q 4678 1225 4090 567 
Q 3503 -91 2522 -91 
Q 1538 -91 948 565 
Q 359 1222 359 2328 
Q 359 3434 948 4092 
Q 1538 4750 2522 4750 
z
" transform="scale(0.015625)"/>
       <path id="DejaVuSans-54" d="M -19 4666 
L 3928 4666 
L 3928 4134 
L 2272 4134 
L 2272 0 
L 1638 0 
L 1638 4134 
L -19 4134 
L -19 4666 
z
" transform="scale(0.015625)"/>
      </defs>
      <use xlink:href="#DejaVuSans-44"/>
      <use xlink:href="#DejaVuSans-46" x="77.001953"/>
      <use xlink:href="#DejaVuSans-46" x="134.521484"/>
      <use xlink:href="#DejaVuSans-20" x="192.041016"/>
      <use xlink:href="#DejaVuSans-4f" x="223.828125"/>
      <use xlink:href="#DejaVuSans-55" x="302.539062"/>
      <use xlink:href="#DejaVuSans-54" x="375.732422"/>
     </g>
    </g>
   </g>
   <g id="line2d_70">
    <path d="M 141.12 413.589541 
L 173.408256 413.63345 
L 173.440512 415.12347 
L 173.601792 440.747892 
L 174.1824 440.74435 
L 185.439744 440.744733 
L 254.048256 440.746244 
L 254.080512 440.890119 
L 254.112768 440.65213 
L 254.306304 437.138335 
L 254.628864 436.331061 
L 254.693376 435.931563 
L 255.14496 429.625971 
L 255.370752 414.805671 
L 255.596544 397.905821 
L 255.757824 397.610696 
L 255.983616 397.553111 
L 257.015808 397.55671 
L 295.723008 397.614295 
L 295.916544 398.046185 
L 296.174592 399.917708 
L 296.206848 400.047275 
L 296.27136 399.849325 
L 296.529408 399.43903 
L 297.593856 398.067779 
L 298.85184 397.625092 
L 309.01248 397.722268 
L 310.593024 399.647777 
L 316.850688 408.910014 
L 317.431296 410.186609 
L 318.36672 413.427222 
L 319.3344 417.245129 
L 319.431168 417.114482 
L 319.49568 417.211297 
L 319.65696 418.517764 
L 319.915008 419.650035 
L 319.97952 419.518669 
L 320.044032 419.565097 
L 320.237568 420.96514 
L 320.495616 422.076896 
L 320.527872 422.012113 
L 320.560128 421.994477 
L 320.979456 424.129813 
L 322.011648 428.896797 
L 322.366464 431.069563 
L 322.39872 431.015937 
L 322.430976 431.051568 
L 322.689024 432.342198 
L 324.237312 437.88914 
L 324.269568 437.558852 
L 324.301824 437.421223 
L 324.33408 437.467291 
L 324.49536 438.750976 
L 326.462976 445.247427 
L 326.527488 444.976416 
L 326.592 445.101304 
L 326.721024 445.858551 
L 326.75328 445.485686 
L 326.817792 445.62713 
L 327.333888 447.199569 
L 327.72096 447.916146 
L 327.753216 447.732953 
L 327.849984 447.82401 
L 327.979008 448.383667 
L 328.011264 448.050032 
L 328.075776 448.187157 
L 328.269312 448.665115 
L 329.17248 450.895107 
L 329.204736 450.671244 
L 329.236992 450.752223 
L 329.269248 451.084059 
L 329.366016 451.001999 
L 329.97888 452.627345 
L 330.30144 453.251066 
L 330.430464 453.526036 
L 330.494976 453.492924 
L 330.527232 453.444337 
L 330.559488 453.519917 
L 333.0432 458.517243 
L 333.107712 458.468295 
L 333.139968 458.521562 
L 333.333504 458.899105 
L 333.785088 459.839186 
L 334.623744 461.227712 
L 334.656 461.167607 
L 334.785024 461.176245 
L 335.043072 461.020045 
L 335.204352 460.668774 
L 335.236608 460.682811 
L 335.397888 460.346656 
L 335.430144 460.392005 
L 335.4624 460.262798 
L 335.526912 460.219969 
L 336.91392 457.817941 
L 336.946176 457.853932 
L 337.010688 457.859691 
L 337.300992 457.382092 
L 337.333248 457.445076 
L 337.365504 457.399008 
L 337.55904 456.983314 
L 340.042752 454.25557 
L 340.075008 454.426886 
L 340.107264 454.195105 
L 340.333056 453.983839 
L 340.365312 454.085693 
L 340.397568 453.903939 
L 340.429824 453.884504 
L 340.46208 454.026668 
L 340.494336 453.814682 
L 340.687872 453.638327 
L 340.720128 453.730824 
L 340.752384 453.78517 
L 340.881408 453.529995 
L 341.042688 453.39251 
L 341.300736 453.238469 
L 341.558784 453.057075 
L 341.849088 452.634543 
L 341.881344 452.715163 
L 341.945856 452.612229 
L 342.010368 452.577678 
L 342.139392 452.262038 
L 342.171648 452.422917 
L 342.429696 451.965114 
L 342.461952 452.094681 
L 342.494208 451.919046 
L 342.55872 451.777602 
L 342.590976 452.028818 
L 342.623232 451.679347 
L 342.687744 451.949278 
L 342.816768 451.536463 
L 343.397376 451.054906 
L 343.461888 451.193831 
L 343.5264 451.127967 
L 343.68768 450.869193 
L 344.139264 450.641012 
L 344.848896 449.948908 
L 344.97792 449.513419 
L 345.074688 449.422002 
L 345.106944 449.702371 
L 345.1392 449.406166 
L 345.171456 449.649105 
L 345.235968 449.239889 
L 345.30048 449.434239 
L 345.429504 449.174386 
L 345.46176 449.396449 
L 345.494016 449.193461 
L 345.62304 448.905534 
L 345.655296 448.894737 
L 345.687552 449.19598 
L 345.719808 448.800441 
L 345.78432 449.093406 
L 345.913344 448.660797 
L 345.9456 448.655398 
L 345.977856 448.849388 
L 346.010112 448.582337 
L 346.074624 448.774528 
L 346.235904 448.465366 
L 346.26816 448.575138 
L 346.332672 448.417499 
L 347.203584 447.882315 
L 347.751936 447.359368 
L 347.913216 446.845779 
L 348.106752 446.651069 
L 347.977728 446.911643 
L 348.171264 446.721971 
L 348.20352 446.865215 
L 348.235776 446.513584 
L 348.268032 446.524022 
L 348.397056 446.825265 
L 348.429312 446.37286 
L 348.52608 446.482992 
L 348.590592 446.601762 
L 348.719616 446.170232 
L 348.751872 446.166993 
L 348.784128 446.503867 
L 348.816384 446.157275 
L 348.84864 446.310236 
L 348.880896 446.310236 
L 348.913152 446.027348 
L 349.00992 446.110847 
L 349.042176 446.187147 
L 349.074432 446.118405 
L 349.203456 445.886264 
L 349.235712 445.898141 
L 349.267968 446.062979 
L 349.300224 445.866829 
L 349.33248 445.86431 
L 349.913088 445.631449 
L 350.106624 445.43134 
L 351.042048 444.641702 
L 351.10656 444.141825 
L 351.171072 444.226044 
L 351.332352 443.947871 
L 351.396864 444.267469 
L 351.42912 444.008083 
L 351.461376 443.930919 
L 351.493632 444.265022 
L 351.525888 443.900903 
L 351.5904 444.088811 
L 351.654912 443.69158 
L 351.687168 444.022048 
L 351.783936 443.970509 
L 351.91296 443.474879 
L 351.945216 443.484741 
L 351.977472 443.858865 
L 352.009728 443.419417 
L 352.041984 443.42586 
L 352.07424 443.414091 
L 352.106496 443.744882 
L 352.171008 443.712886 
L 352.203264 443.504752 
L 352.300032 443.590014 
L 352.332288 443.567376 
L 352.461312 443.337142 
L 352.590336 443.279665 
L 352.71936 443.235576 
L 354.106368 441.888656 
L 354.17088 441.456082 
L 354.235392 441.773269 
L 354.49344 440.958466 
L 354.525696 441.28275 
L 354.557952 440.930361 
L 354.590208 441.072089 
L 354.686976 440.735841 
L 354.65472 441.174994 
L 354.719232 440.895262 
L 354.880512 440.772118 
L 354.945024 440.776902 
L 354.97728 440.728233 
L 355.94496 439.075469 
L 356.009472 438.481693 
L 356.073984 438.662798 
L 356.10624 438.757382 
L 356.138496 438.649158 
L 356.170752 438.293928 
L 356.26752 438.328948 
L 356.461056 438.338341 
L 357.590016 436.431835 
L 357.686784 435.926884 
L 357.71904 435.956037 
L 357.783552 436.026219 
L 357.815808 435.967194 
L 358.235136 435.335555 
L 358.460928 434.875952 
L 359.97696 432.473925 
L 360.976896 430.683381 
L 361.396224 429.9848 
L 361.42848 430.17987 
L 361.460736 429.912818 
L 361.525248 429.811324 
L 361.557504 429.999196 
L 361.622016 429.892663 
L 361.880064 429.542112 
L 361.976832 429.476249 
L 362.783232 428.109318 
L 362.944512 427.346312 
L 362.976768 427.313561 
L 363.009024 427.519428 
L 363.073536 427.24014 
L 364.65408 423.993768 
L 364.686336 423.308142 
L 364.783104 423.373646 
L 365.008896 423.398479 
L 365.78304 422.034787 
L 366.331392 421.289417 
L 366.363648 420.839892 
L 366.460416 420.983135 
L 366.557184 420.898917 
L 366.879744 420.333141 
L 367.911936 418.876952 
L 367.944192 418.908264 
L 367.976448 418.831244 
L 368.36352 418.247833 
L 368.428032 418.316215 
L 368.460288 418.26115 
L 368.557056 418.207883 
L 368.589312 417.987979 
L 368.653824 418.161095 
L 368.782848 418.18053 
L 368.911872 418.61242 
L 369.073152 422.231297 
L 369.460224 440.248338 
L 370.589184 440.311538 
L 373.395456 440.337307 
L 374.105088 439.773187 
L 374.976 439.418786 
L 376.201728 439.213782 
L 378.2016 439.162027 
L 383.427072 439.325101 
L 393.03936 439.590138 
L 395.039232 439.544502 
L 399.200256 439.698614 
L 399.942144 440.308695 
L 400.7808 440.680257 
L 401.942016 440.924019 
L 403.812864 441.053485 
L 408.489984 441.079683 
L 415.360512 441.200079 
L 415.683072 429.917497 
L 415.844352 427.297725 
L 415.973376 421.260625 
L 416.134656 405.547752 
L 416.42496 376.948366 
L 416.58624 376.966361 
L 417.521664 377.268684 
L 417.87648 377.376656 
L 419.295744 377.959708 
L 419.747328 378.179252 
L 420.521472 378.546358 
L 421.005312 378.787497 
L 423.650304 380.079567 
L 424.101888 380.299111 
L 425.13408 380.756195 
L 426.359808 381.317651 
L 427.55328 381.83232 
L 428.101632 382.073459 
L 429.32736 382.598925 
L 431.90784 383.631861 
L 435.036672 384.794365 
L 436.165632 385.179466 
L 445.197312 388.094723 
L 445.552128 388.199096 
L 446.197248 388.368253 
L 448.19712 388.922512 
L 448.648704 389.030484 
L 450.164736 389.426383 
L 450.584064 389.530757 
L 451.777536 389.822282 
L 452.325888 389.930255 
L 453.51936 390.218181 
L 454.067712 390.326154 
L 455.164416 390.57809 
L 455.616 390.682463 
L 459.841536 391.513851 
L 460.4544 391.621823 
L 463.03488 392.089704 
L 463.647744 392.197677 
L 465.421824 392.485603 
L 466.163712 392.593576 
L 467.776512 392.845511 
L 468.486144 392.953484 
L 469.776384 393.133438 
L 470.61504 393.24141 
L 471.90528 393.421364 
L 472.743936 393.529337 
L 473.872896 393.6733 
L 474.872832 393.781273 
L 476.001792 393.925236 
L 477.001728 394.033208 
L 477.969408 394.141181 
L 479.033856 394.249153 
L 480.001536 394.357126 
L 481.162752 394.465098 
L 482.130432 394.573071 
L 483.485184 394.681043 
L 484.452864 394.789016 
L 485.904384 394.896988 
L 486.710784 394.96897 
L 488.130048 395.076942 
L 488.936448 395.148924 
L 490.549248 395.256896 
L 491.355648 395.328878 
L 493.161984 395.43685 
L 493.968384 395.508832 
L 495.968256 395.598809 
L 496.000512 395.839948 
L 496.065024 395.616805 
L 496.25856 395.645597 
L 497.774592 395.742772 
L 498.064896 395.760768 
L 500.322816 395.86874 
L 500.967936 395.901132 
L 502.935552 396.012704 
L 503.645184 396.045095 
L 505.548288 396.153068 
L 506.870784 396.189059 
L 509.031936 396.297031 
L 510.354432 396.333022 
L 512.902656 396.440994 
L 514.257408 396.480584 
L 514.96704 396.512976 
L 518.128128 396.617349 
L 518.644224 396.620948 
L 522.192384 396.728921 
L 523.547136 396.768511 
L 524.514816 396.764912 
L 524.9664 396.800903 
L 529.353216 396.905276 
L 529.869312 396.912474 
L 536.352768 396.995253 
L 536.481792 397.024046 
L 536.933376 397.027645 
L 537.352704 397.056437 
L 547.06176 397.160811 
L 547.513344 397.196802 
L 576.608256 397.211198 
L 576.640512 397.333567 
L 576.705024 397.168009 
L 576.995328 397.189603 
L 657.248256 397.193203 
L 657.280512 397.376756 
L 657.345024 397.193203 
L 657.53856 397.175207 
L 658.732032 397.196802 
L 737.888256 397.193203 
L 737.920512 397.376756 
L 737.985024 397.193203 
L 738.17856 397.175207 
L 739.372032 397.196802 
L 818.528256 397.193203 
L 818.560512 397.376756 
L 818.625024 397.193203 
L 818.81856 397.175207 
L 820.012032 397.196802 
L 899.168256 397.193203 
L 899.200512 397.376756 
L 899.265024 397.193203 
L 899.45856 397.175207 
L 900.652032 397.196802 
L 947.52 397.196802 
L 947.52 397.196802 
" clip-path="url(#p1d8b50dc16)" style="fill: none; stroke: #ff00ff; stroke-width: 2; stroke-linecap: square"/>
   </g>
   <g id="patch_22">
    <path d="M 100.8 465.442759 
L 100.8 372.711724 
" style="fill: none; stroke: #bcbcbc; stroke-width: 0.8; stroke-linejoin: miter; stroke-linecap: square"/>
   </g>
   <g id="patch_23">
    <path d="M 987.84 465.442759 
L 987.84 372.711724 
" style="fill: none; stroke: #bcbcbc; stroke-width: 0.8; stroke-linejoin: miter; stroke-linecap: square"/>
   </g>
   <g id="patch_24">
    <path d="M 100.8 465.442759 
L 987.84 465.442759 
" style="fill: none; stroke: #bcbcbc; stroke-width: 0.8; stroke-linejoin: miter; stroke-linecap: square"/>
   </g>
   <g id="patch_25">
    <path d="M 100.8 372.711724 
L 987.84 372.711724 
" style="fill: none; stroke: #bcbcbc; stroke-width: 0.8; stroke-linejoin: miter; stroke-linecap: square"/>
   </g>
  </g>
  <g id="axes_5">
   <g id="patch_26">
    <path d="M 100.8 576.72 
L 987.84 576.72 
L 987.84 483.988966 
L 100.8 483.988966 
z
" style="fill: #eeeeee"/>
   </g>
   <g id="matplotlib.axis_9">
    <g id="xtick_25">
     <g id="line2d_71">
      <path d="M 141.12 576.72 
L 141.12 483.988966 
" clip-path="url(#pedfc10a77c)" style="fill: none; stroke-dasharray: 1.85,0.8; stroke-dashoffset: 0; stroke: #b2b2b2; stroke-width: 0.5"/>
     </g>
     <g id="line2d_72">
      <g>
       <use xlink:href="#m1469178b8c" x="141.12" y="576.72" style="stroke: #000000; stroke-width: 0.8"/>
      </g>
     </g>
     <g id="text_14">
      <!-- 0 s -->
      <g transform="translate(130.795 590.857813) scale(0.14 -0.14)">
       <defs>
        <path id="DejaVuSans-73" d="M 2834 3397 
L 2834 2853 
Q 2591 2978 2328 3040 
Q 2066 3103 1784 3103 
Q 1356 3103 1142 2972 
Q 928 2841 928 2578 
Q 928 2378 1081 2264 
Q 1234 2150 1697 2047 
L 1894 2003 
Q 2506 1872 2764 1633 
Q 3022 1394 3022 966 
Q 3022 478 2636 193 
Q 2250 -91 1575 -91 
Q 1294 -91 989 -36 
Q 684 19 347 128 
L 347 722 
Q 666 556 975 473 
Q 1284 391 1588 391 
Q 1994 391 2212 530 
Q 2431 669 2431 922 
Q 2431 1156 2273 1281 
Q 2116 1406 1581 1522 
L 1381 1569 
Q 847 1681 609 1914 
Q 372 2147 372 2553 
Q 372 3047 722 3315 
Q 1072 3584 1716 3584 
Q 2034 3584 2315 3537 
Q 2597 3491 2834 3397 
z
" transform="scale(0.015625)"/>
       </defs>
       <use xlink:href="#DejaVuSans-30"/>
       <use xlink:href="#DejaVuSans-20" x="63.623047"/>
       <use xlink:href="#DejaVuSans-73" x="95.410156"/>
      </g>
     </g>
    </g>
    <g id="xtick_26">
     <g id="line2d_73">
      <path d="M 302.4 576.72 
L 302.4 483.988966 
" clip-path="url(#pedfc10a77c)" style="fill: none; stroke-dasharray: 1.85,0.8; stroke-dashoffset: 0; stroke: #b2b2b2; stroke-width: 0.5"/>
     </g>
     <g id="line2d_74">
      <g>
       <use xlink:href="#m1469178b8c" x="302.4" y="576.72" style="stroke: #000000; stroke-width: 0.8"/>
      </g>
     </g>
     <g id="text_15">
      <!-- 50 ns -->
      <g transform="translate(283.185 590.857813) scale(0.14 -0.14)">
       <defs>
        <path id="DejaVuSans-35" d="M 691 4666 
L 3169 4666 
L 3169 4134 
L 1269 4134 
L 1269 2991 
Q 1406 3038 1543 3061 
Q 1681 3084 1819 3084 
Q 2600 3084 3056 2656 
Q 3513 2228 3513 1497 
Q 3513 744 3044 326 
Q 2575 -91 1722 -91 
Q 1428 -91 1123 -41 
Q 819 9 494 109 
L 494 744 
Q 775 591 1075 516 
Q 1375 441 1709 441 
Q 2250 441 2565 725 
Q 2881 1009 2881 1497 
Q 2881 1984 2565 2268 
Q 2250 2553 1709 2553 
Q 1456 2553 1204 2497 
Q 953 2441 691 2322 
L 691 4666 
z
" transform="scale(0.015625)"/>
        <path id="DejaVuSans-6e" d="M 3513 2113 
L 3513 0 
L 2938 0 
L 2938 2094 
Q 2938 2591 2744 2837 
Q 2550 3084 2163 3084 
Q 1697 3084 1428 2787 
Q 1159 2491 1159 1978 
L 1159 0 
L 581 0 
L 581 3500 
L 1159 3500 
L 1159 2956 
Q 1366 3272 1645 3428 
Q 1925 3584 2291 3584 
Q 2894 3584 3203 3211 
Q 3513 2838 3513 2113 
z
" transform="scale(0.015625)"/>
       </defs>
       <use xlink:href="#DejaVuSans-35"/>
       <use xlink:href="#DejaVuSans-30" x="63.623047"/>
       <use xlink:href="#DejaVuSans-20" x="127.246094"/>
       <use xlink:href="#DejaVuSans-6e" x="159.033203"/>
       <use xlink:href="#DejaVuSans-73" x="222.412109"/>
      </g>
     </g>
    </g>
    <g id="xtick_27">
     <g id="line2d_75">
      <path d="M 463.68 576.72 
L 463.68 483.988966 
" clip-path="url(#pedfc10a77c)" style="fill: none; stroke-dasharray: 1.85,0.8; stroke-dashoffset: 0; stroke: #b2b2b2; stroke-width: 0.5"/>
     </g>
     <g id="line2d_76">
      <g>
       <use xlink:href="#m1469178b8c" x="463.68" y="576.72" style="stroke: #000000; stroke-width: 0.8"/>
      </g>
     </g>
     <g id="text_16">
      <!-- 100 ns -->
      <g transform="translate(440.01125 590.857813) scale(0.14 -0.14)">
       <use xlink:href="#DejaVuSans-31"/>
       <use xlink:href="#DejaVuSans-30" x="63.623047"/>
       <use xlink:href="#DejaVuSans-30" x="127.246094"/>
       <use xlink:href="#DejaVuSans-20" x="190.869141"/>
       <use xlink:href="#DejaVuSans-6e" x="222.65625"/>
       <use xlink:href="#DejaVuSans-73" x="286.035156"/>
      </g>
     </g>
    </g>
    <g id="xtick_28">
     <g id="line2d_77">
      <path d="M 624.96 576.72 
L 624.96 483.988966 
" clip-path="url(#pedfc10a77c)" style="fill: none; stroke-dasharray: 1.85,0.8; stroke-dashoffset: 0; stroke: #b2b2b2; stroke-width: 0.5"/>
     </g>
     <g id="line2d_78">
      <g>
       <use xlink:href="#m1469178b8c" x="624.96" y="576.72" style="stroke: #000000; stroke-width: 0.8"/>
      </g>
     </g>
     <g id="text_17">
      <!-- 150 ns -->
      <g transform="translate(601.29125 590.857813) scale(0.14 -0.14)">
       <use xlink:href="#DejaVuSans-31"/>
       <use xlink:href="#DejaVuSans-35" x="63.623047"/>
       <use xlink:href="#DejaVuSans-30" x="127.246094"/>
       <use xlink:href="#DejaVuSans-20" x="190.869141"/>
       <use xlink:href="#DejaVuSans-6e" x="222.65625"/>
       <use xlink:href="#DejaVuSans-73" x="286.035156"/>
      </g>
     </g>
    </g>
    <g id="xtick_29">
     <g id="line2d_79">
      <path d="M 786.24 576.72 
L 786.24 483.988966 
" clip-path="url(#pedfc10a77c)" style="fill: none; stroke-dasharray: 1.85,0.8; stroke-dashoffset: 0; stroke: #b2b2b2; stroke-width: 0.5"/>
     </g>
     <g id="line2d_80">
      <g>
       <use xlink:href="#m1469178b8c" x="786.24" y="576.72" style="stroke: #000000; stroke-width: 0.8"/>
      </g>
     </g>
     <g id="text_18">
      <!-- 200 ns -->
      <g transform="translate(762.57125 590.857813) scale(0.14 -0.14)">
       <use xlink:href="#DejaVuSans-32"/>
       <use xlink:href="#DejaVuSans-30" x="63.623047"/>
       <use xlink:href="#DejaVuSans-30" x="127.246094"/>
       <use xlink:href="#DejaVuSans-20" x="190.869141"/>
       <use xlink:href="#DejaVuSans-6e" x="222.65625"/>
       <use xlink:href="#DejaVuSans-73" x="286.035156"/>
      </g>
     </g>
    </g>
    <g id="xtick_30">
     <g id="line2d_81">
      <path d="M 947.52 576.72 
L 947.52 483.988966 
" clip-path="url(#pedfc10a77c)" style="fill: none; stroke-dasharray: 1.85,0.8; stroke-dashoffset: 0; stroke: #b2b2b2; stroke-width: 0.5"/>
     </g>
     <g id="line2d_82">
      <g>
       <use xlink:href="#m1469178b8c" x="947.52" y="576.72" style="stroke: #000000; stroke-width: 0.8"/>
      </g>
     </g>
     <g id="text_19">
      <!-- 250 ns -->
      <g transform="translate(923.85125 590.857813) scale(0.14 -0.14)">
       <use xlink:href="#DejaVuSans-32"/>
       <use xlink:href="#DejaVuSans-35" x="63.623047"/>
       <use xlink:href="#DejaVuSans-30" x="127.246094"/>
       <use xlink:href="#DejaVuSans-20" x="190.869141"/>
       <use xlink:href="#DejaVuSans-6e" x="222.65625"/>
       <use xlink:href="#DejaVuSans-73" x="286.035156"/>
      </g>
     </g>
    </g>
    <g id="text_20">
     <!-- Time -->
     <g transform="translate(527.192969 608.407187) scale(0.14 -0.14)">
      <defs>
       <path id="DejaVuSans-69" d="M 603 3500 
L 1178 3500 
L 1178 0 
L 603 0 
L 603 3500 
z
M 603 4863 
L 1178 4863 
L 1178 4134 
L 603 4134 
L 603 4863 
z
" transform="scale(0.015625)"/>
       <path id="DejaVuSans-6d" d="M 3328 2828 
Q 3544 3216 3844 3400 
Q 4144 3584 4550 3584 
Q 5097 3584 5394 3201 
Q 5691 2819 5691 2113 
L 5691 0 
L 5113 0 
L 5113 2094 
Q 5113 2597 4934 2840 
Q 4756 3084 4391 3084 
Q 3944 3084 3684 2787 
Q 3425 2491 3425 1978 
L 3425 0 
L 2847 0 
L 2847 2094 
Q 2847 2600 2669 2842 
Q 2491 3084 2119 3084 
Q 1678 3084 1418 2786 
Q 1159 2488 1159 1978 
L 1159 0 
L 581 0 
L 581 3500 
L 1159 3500 
L 1159 2956 
Q 1356 3278 1631 3431 
Q 1906 3584 2284 3584 
Q 2666 3584 2933 3390 
Q 3200 3197 3328 2828 
z
" transform="scale(0.015625)"/>
       <path id="DejaVuSans-65" d="M 3597 1894 
L 3597 1613 
L 953 1613 
Q 991 1019 1311 708 
Q 1631 397 2203 397 
Q 2534 397 2845 478 
Q 3156 559 3463 722 
L 3463 178 
Q 3153 47 2828 -22 
Q 2503 -91 2169 -91 
Q 1331 -91 842 396 
Q 353 884 353 1716 
Q 353 2575 817 3079 
Q 1281 3584 2069 3584 
Q 2775 3584 3186 3129 
Q 3597 2675 3597 1894 
z
M 3022 2063 
Q 3016 2534 2758 2815 
Q 2500 3097 2075 3097 
Q 1594 3097 1305 2825 
Q 1016 2553 972 2059 
L 3022 2063 
z
" transform="scale(0.015625)"/>
      </defs>
      <use xlink:href="#DejaVuSans-54"/>
      <use xlink:href="#DejaVuSans-69" x="57.958984"/>
      <use xlink:href="#DejaVuSans-6d" x="85.742188"/>
      <use xlink:href="#DejaVuSans-65" x="183.154297"/>
     </g>
    </g>
   </g>
   <g id="matplotlib.axis_10">
    <g id="ytick_10">
     <g id="line2d_83">
      <path d="M 100.8 569.745664 
L 987.84 569.745664 
" clip-path="url(#pedfc10a77c)" style="fill: none; stroke-dasharray: 1.85,0.8; stroke-dashoffset: 0; stroke: #b2b2b2; stroke-width: 0.5"/>
     </g>
     <g id="line2d_84">
      <g>
       <use xlink:href="#m9f54a86b06" x="100.8" y="569.745664" style="stroke: #000000; stroke-width: 0.8"/>
      </g>
     </g>
     <g id="text_21">
      <!-- 0 V -->
      <g transform="translate(74.36625 575.06457) scale(0.14 -0.14)">
       <use xlink:href="#DejaVuSans-30"/>
       <use xlink:href="#DejaVuSans-20" x="63.623047"/>
       <use xlink:href="#DejaVuSans-56" x="95.410156"/>
      </g>
     </g>
    </g>
    <g id="ytick_11">
     <g id="line2d_85">
      <path d="M 100.8 535.947417 
L 987.84 535.947417 
" clip-path="url(#pedfc10a77c)" style="fill: none; stroke-dasharray: 1.85,0.8; stroke-dashoffset: 0; stroke: #b2b2b2; stroke-width: 0.5"/>
     </g>
     <g id="line2d_86">
      <g>
       <use xlink:href="#m9f54a86b06" x="100.8" y="535.947417" style="stroke: #000000; stroke-width: 0.8"/>
      </g>
     </g>
     <g id="text_22">
      <!-- 500 mV -->
      <g transform="translate(42.914375 541.266323) scale(0.14 -0.14)">
       <use xlink:href="#DejaVuSans-35"/>
       <use xlink:href="#DejaVuSans-30" x="63.623047"/>
       <use xlink:href="#DejaVuSans-30" x="127.246094"/>
       <use xlink:href="#DejaVuSans-20" x="190.869141"/>
       <use xlink:href="#DejaVuSans-6d" x="222.65625"/>
       <use xlink:href="#DejaVuSans-56" x="320.068359"/>
      </g>
     </g>
    </g>
    <g id="ytick_12">
     <g id="line2d_87">
      <path d="M 100.8 502.149169 
L 987.84 502.149169 
" clip-path="url(#pedfc10a77c)" style="fill: none; stroke-dasharray: 1.85,0.8; stroke-dashoffset: 0; stroke: #b2b2b2; stroke-width: 0.5"/>
     </g>
     <g id="line2d_88">
      <g>
       <use xlink:href="#m9f54a86b06" x="100.8" y="502.149169" style="stroke: #000000; stroke-width: 0.8"/>
      </g>
     </g>
     <g id="text_23">
      <!-- 1 V -->
      <g transform="translate(74.36625 507.468076) scale(0.14 -0.14)">
       <use xlink:href="#DejaVuSans-31"/>
       <use xlink:href="#DejaVuSans-20" x="63.623047"/>
       <use xlink:href="#DejaVuSans-56" x="95.410156"/>
      </g>
     </g>
    </g>
    <g id="text_24">
     <g id="patch_27">
      <path d="M 34.8768 554.329483 
L 34.8768 506.379483 
L 11.247425 506.379483 
L 11.247425 554.329483 
z
" style="fill: #ffff00; opacity: 0.2; stroke: #eeeeee; stroke-width: 0.5; stroke-linejoin: miter"/>
     </g>
     <!-- FOUT -->
     <g transform="translate(26.925238 549.289483) rotate(-90) scale(0.14 -0.14)">
      <use xlink:href="#DejaVuSans-46"/>
      <use xlink:href="#DejaVuSans-4f" x="57.519531"/>
      <use xlink:href="#DejaVuSans-55" x="136.230469"/>
      <use xlink:href="#DejaVuSans-54" x="209.423828"/>
     </g>
    </g>
   </g>
   <g id="line2d_89">
    <path d="M 141.12 488.62987 
L 173.472768 488.63663 
L 173.505024 488.4406 
L 173.569536 526.786064 
L 173.69856 572.504953 
L 173.730816 572.36949 
L 173.827584 567.841741 
L 173.892096 569.360648 
L 174.053376 570.063996 
L 174.117888 569.946459 
L 174.408192 569.491812 
L 174.440448 569.541273 
L 174.66624 569.729732 
L 176.182272 569.739929 
L 180.117504 569.76123 
L 193.568256 569.751938 
L 212.954112 569.743788 
L 255.30624 569.743483 
L 255.6288 488.521716 
L 255.854592 488.663669 
L 256.209408 488.623111 
L 320.269824 488.562274 
L 320.334336 488.204013 
L 320.398848 512.417753 
L 320.495616 569.926971 
L 320.560128 569.742971 
L 361.880064 569.744014 
L 366.75072 569.83892 
L 366.815232 567.939689 
L 366.912 524.297837 
L 367.07328 488.954334 
L 367.202304 488.63663 
L 369.040896 488.63663 
L 369.137664 510.782594 
L 369.298944 569.74726 
L 370.62144 569.744841 
L 415.876608 569.744847 
L 415.94112 557.628992 
L 416.26368 488.623111 
L 416.812032 488.62987 
L 947.52 488.62987 
L 947.52 488.62987 
" clip-path="url(#pedfc10a77c)" style="fill: none; stroke: #ff00ff; stroke-width: 2; stroke-linecap: square"/>
   </g>
   <g id="patch_28">
    <path d="M 100.8 576.72 
L 100.8 483.988966 
" style="fill: none; stroke: #bcbcbc; stroke-width: 0.8; stroke-linejoin: miter; stroke-linecap: square"/>
   </g>
   <g id="patch_29">
    <path d="M 987.84 576.72 
L 987.84 483.988966 
" style="fill: none; stroke: #bcbcbc; stroke-width: 0.8; stroke-linejoin: miter; stroke-linecap: square"/>
   </g>
   <g id="patch_30">
    <path d="M 100.8 576.72 
L 987.84 576.72 
" style="fill: none; stroke: #bcbcbc; stroke-width: 0.8; stroke-linejoin: miter; stroke-linecap: square"/>
   </g>
   <g id="patch_31">
    <path d="M 100.8 483.988966 
L 987.84 483.988966 
" style="fill: none; stroke: #bcbcbc; stroke-width: 0.8; stroke-linejoin: miter; stroke-linecap: square"/>
   </g>
  </g>
  <g id="axes_6">
   <g id="patch_32">
    <path d="M 201.6 628.56 
L 856.8 628.56 
L 856.8 615.6 
L 201.6 615.6 
z
" clip-path="url(#pccacc76328)" style="fill: #d3d3d3"/>
   </g>
   <g id="patch_33">
    <path d="M 201.6 628.56 
L 370.08 628.56 
L 370.08 615.6 
L 201.6 615.6 
z
" clip-path="url(#pccacc76328)" style="fill: #0000ff"/>
   </g>
   <g id="line2d_90">
    <path d="M 201.6 635.04 
L 201.6 609.12 
" clip-path="url(#p5f07605848)" style="fill: none; stroke: #ff0000; stroke-linecap: square"/>
   </g>
   <g id="line2d_91">
    <defs>
     <path id="mdcc52d0c2d" d="M 0 5 
C 1.326016 5 2.597899 4.473168 3.535534 3.535534 
C 4.473168 2.597899 5 1.326016 5 0 
C 5 -1.326016 4.473168 -2.597899 3.535534 -3.535534 
C 2.597899 -4.473168 1.326016 -5 0 -5 
C -1.326016 -5 -2.597899 -4.473168 -3.535534 -3.535534 
C -4.473168 -2.597899 -5 -1.326016 -5 0 
C -5 1.326016 -4.473168 2.597899 -3.535534 3.535534 
C -2.597899 4.473168 -1.326016 5 0 5 
z
" style="stroke: #bfbfbf"/>
    </defs>
    <g>
     <use xlink:href="#mdcc52d0c2d" x="370.08" y="622.08" style="fill: #ffffff; stroke: #bfbfbf"/>
    </g>
   </g>
   <g id="text_25">
    <!-- #Sweep -->
    <g transform="translate(138.622875 625.39125) scale(0.12 -0.12)">
     <defs>
      <path id="DejaVuSans-23" d="M 3272 2816 
L 2363 2816 
L 2100 1772 
L 3016 1772 
L 3272 2816 
z
M 2803 4594 
L 2478 3297 
L 3391 3297 
L 3719 4594 
L 4219 4594 
L 3897 3297 
L 4872 3297 
L 4872 2816 
L 3775 2816 
L 3519 1772 
L 4513 1772 
L 4513 1294 
L 3397 1294 
L 3072 0 
L 2572 0 
L 2894 1294 
L 1978 1294 
L 1656 0 
L 1153 0 
L 1478 1294 
L 494 1294 
L 494 1772 
L 1594 1772 
L 1856 2816 
L 850 2816 
L 850 3297 
L 1978 3297 
L 2297 4594 
L 2803 4594 
z
" transform="scale(0.015625)"/>
      <path id="DejaVuSans-77" d="M 269 3500 
L 844 3500 
L 1563 769 
L 2278 3500 
L 2956 3500 
L 3675 769 
L 4391 3500 
L 4966 3500 
L 4050 0 
L 3372 0 
L 2619 2869 
L 1863 0 
L 1184 0 
L 269 3500 
z
" transform="scale(0.015625)"/>
      <path id="DejaVuSans-70" d="M 1159 525 
L 1159 -1331 
L 581 -1331 
L 581 3500 
L 1159 3500 
L 1159 2969 
Q 1341 3281 1617 3432 
Q 1894 3584 2278 3584 
Q 2916 3584 3314 3078 
Q 3713 2572 3713 1747 
Q 3713 922 3314 415 
Q 2916 -91 2278 -91 
Q 1894 -91 1617 61 
Q 1341 213 1159 525 
z
M 3116 1747 
Q 3116 2381 2855 2742 
Q 2594 3103 2138 3103 
Q 1681 3103 1420 2742 
Q 1159 2381 1159 1747 
Q 1159 1113 1420 752 
Q 1681 391 2138 391 
Q 2594 391 2855 752 
Q 3116 1113 3116 1747 
z
" transform="scale(0.015625)"/>
     </defs>
     <use xlink:href="#DejaVuSans-23"/>
     <use xlink:href="#DejaVuSans-53" x="83.789062"/>
     <use xlink:href="#DejaVuSans-77" x="147.265625"/>
     <use xlink:href="#DejaVuSans-65" x="229.052734"/>
     <use xlink:href="#DejaVuSans-65" x="290.576172"/>
     <use xlink:href="#DejaVuSans-70" x="352.099609"/>
    </g>
   </g>
   <g id="text_26">
    <!-- $\mathdefault{36}$ -->
    <g transform="translate(869.904 625.39125) scale(0.12 -0.12)">
     <defs>
      <path id="DejaVuSans-33" d="M 2597 2516 
Q 3050 2419 3304 2112 
Q 3559 1806 3559 1356 
Q 3559 666 3084 287 
Q 2609 -91 1734 -91 
Q 1441 -91 1130 -33 
Q 819 25 488 141 
L 488 750 
Q 750 597 1062 519 
Q 1375 441 1716 441 
Q 2309 441 2620 675 
Q 2931 909 2931 1356 
Q 2931 1769 2642 2001 
Q 2353 2234 1838 2234 
L 1294 2234 
L 1294 2753 
L 1863 2753 
Q 2328 2753 2575 2939 
Q 2822 3125 2822 3475 
Q 2822 3834 2567 4026 
Q 2313 4219 1838 4219 
Q 1578 4219 1281 4162 
Q 984 4106 628 3988 
L 628 4550 
Q 988 4650 1302 4700 
Q 1616 4750 1894 4750 
Q 2613 4750 3031 4423 
Q 3450 4097 3450 3541 
Q 3450 3153 3228 2886 
Q 3006 2619 2597 2516 
z
" transform="scale(0.015625)"/>
      <path id="DejaVuSans-36" d="M 2113 2584 
Q 1688 2584 1439 2293 
Q 1191 2003 1191 1497 
Q 1191 994 1439 701 
Q 1688 409 2113 409 
Q 2538 409 2786 701 
Q 3034 994 3034 1497 
Q 3034 2003 2786 2293 
Q 2538 2584 2113 2584 
z
M 3366 4563 
L 3366 3988 
Q 3128 4100 2886 4159 
Q 2644 4219 2406 4219 
Q 1781 4219 1451 3797 
Q 1122 3375 1075 2522 
Q 1259 2794 1537 2939 
Q 1816 3084 2150 3084 
Q 2853 3084 3261 2657 
Q 3669 2231 3669 1497 
Q 3669 778 3244 343 
Q 2819 -91 2113 -91 
Q 1303 -91 875 529 
Q 447 1150 447 2328 
Q 447 3434 972 4092 
Q 1497 4750 2381 4750 
Q 2619 4750 2861 4703 
Q 3103 4656 3366 4563 
z
" transform="scale(0.015625)"/>
     </defs>
     <use xlink:href="#DejaVuSans-33" transform="translate(0 0.78125)"/>
     <use xlink:href="#DejaVuSans-36" transform="translate(63.623047 0.78125)"/>
    </g>
   </g>
  </g>
  <g id="text_27">
   <!-- DFF under BBI sweep analysis (Sweep = 46E-9) -->
   <g transform="translate(313.34625 25.1175) scale(0.16 -0.16)">
    <defs>
     <path id="DejaVuSans-75" d="M 544 1381 
L 544 3500 
L 1119 3500 
L 1119 1403 
Q 1119 906 1312 657 
Q 1506 409 1894 409 
Q 2359 409 2629 706 
Q 2900 1003 2900 1516 
L 2900 3500 
L 3475 3500 
L 3475 0 
L 2900 0 
L 2900 538 
Q 2691 219 2414 64 
Q 2138 -91 1772 -91 
Q 1169 -91 856 284 
Q 544 659 544 1381 
z
M 1991 3584 
L 1991 3584 
z
" transform="scale(0.015625)"/>
     <path id="DejaVuSans-64" d="M 2906 2969 
L 2906 4863 
L 3481 4863 
L 3481 0 
L 2906 0 
L 2906 525 
Q 2725 213 2448 61 
Q 2172 -91 1784 -91 
Q 1150 -91 751 415 
Q 353 922 353 1747 
Q 353 2572 751 3078 
Q 1150 3584 1784 3584 
Q 2172 3584 2448 3432 
Q 2725 3281 2906 2969 
z
M 947 1747 
Q 947 1113 1208 752 
Q 1469 391 1925 391 
Q 2381 391 2643 752 
Q 2906 1113 2906 1747 
Q 2906 2381 2643 2742 
Q 2381 3103 1925 3103 
Q 1469 3103 1208 2742 
Q 947 2381 947 1747 
z
" transform="scale(0.015625)"/>
     <path id="DejaVuSans-72" d="M 2631 2963 
Q 2534 3019 2420 3045 
Q 2306 3072 2169 3072 
Q 1681 3072 1420 2755 
Q 1159 2438 1159 1844 
L 1159 0 
L 581 0 
L 581 3500 
L 1159 3500 
L 1159 2956 
Q 1341 3275 1631 3429 
Q 1922 3584 2338 3584 
Q 2397 3584 2469 3576 
Q 2541 3569 2628 3553 
L 2631 2963 
z
" transform="scale(0.015625)"/>
     <path id="DejaVuSans-61" d="M 2194 1759 
Q 1497 1759 1228 1600 
Q 959 1441 959 1056 
Q 959 750 1161 570 
Q 1363 391 1709 391 
Q 2188 391 2477 730 
Q 2766 1069 2766 1631 
L 2766 1759 
L 2194 1759 
z
M 3341 1997 
L 3341 0 
L 2766 0 
L 2766 531 
Q 2569 213 2275 61 
Q 1981 -91 1556 -91 
Q 1019 -91 701 211 
Q 384 513 384 1019 
Q 384 1609 779 1909 
Q 1175 2209 1959 2209 
L 2766 2209 
L 2766 2266 
Q 2766 2663 2505 2880 
Q 2244 3097 1772 3097 
Q 1472 3097 1187 3025 
Q 903 2953 641 2809 
L 641 3341 
Q 956 3463 1253 3523 
Q 1550 3584 1831 3584 
Q 2591 3584 2966 3190 
Q 3341 2797 3341 1997 
z
" transform="scale(0.015625)"/>
     <path id="DejaVuSans-6c" d="M 603 4863 
L 1178 4863 
L 1178 0 
L 603 0 
L 603 4863 
z
" transform="scale(0.015625)"/>
     <path id="DejaVuSans-79" d="M 2059 -325 
Q 1816 -950 1584 -1140 
Q 1353 -1331 966 -1331 
L 506 -1331 
L 506 -850 
L 844 -850 
Q 1081 -850 1212 -737 
Q 1344 -625 1503 -206 
L 1606 56 
L 191 3500 
L 800 3500 
L 1894 763 
L 2988 3500 
L 3597 3500 
L 2059 -325 
z
" transform="scale(0.015625)"/>
     <path id="DejaVuSans-28" d="M 1984 4856 
Q 1566 4138 1362 3434 
Q 1159 2731 1159 2009 
Q 1159 1288 1364 580 
Q 1569 -128 1984 -844 
L 1484 -844 
Q 1016 -109 783 600 
Q 550 1309 550 2009 
Q 550 2706 781 3412 
Q 1013 4119 1484 4856 
L 1984 4856 
z
" transform="scale(0.015625)"/>
     <path id="DejaVuSans-3d" d="M 678 2906 
L 4684 2906 
L 4684 2381 
L 678 2381 
L 678 2906 
z
M 678 1631 
L 4684 1631 
L 4684 1100 
L 678 1100 
L 678 1631 
z
" transform="scale(0.015625)"/>
     <path id="DejaVuSans-34" d="M 2419 4116 
L 825 1625 
L 2419 1625 
L 2419 4116 
z
M 2253 4666 
L 3047 4666 
L 3047 1625 
L 3713 1625 
L 3713 1100 
L 3047 1100 
L 3047 0 
L 2419 0 
L 2419 1100 
L 313 1100 
L 313 1709 
L 2253 4666 
z
" transform="scale(0.015625)"/>
     <path id="DejaVuSans-2d" d="M 313 2009 
L 1997 2009 
L 1997 1497 
L 313 1497 
L 313 2009 
z
" transform="scale(0.015625)"/>
     <path id="DejaVuSans-39" d="M 703 97 
L 703 672 
Q 941 559 1184 500 
Q 1428 441 1663 441 
Q 2288 441 2617 861 
Q 2947 1281 2994 2138 
Q 2813 1869 2534 1725 
Q 2256 1581 1919 1581 
Q 1219 1581 811 2004 
Q 403 2428 403 3163 
Q 403 3881 828 4315 
Q 1253 4750 1959 4750 
Q 2769 4750 3195 4129 
Q 3622 3509 3622 2328 
Q 3622 1225 3098 567 
Q 2575 -91 1691 -91 
Q 1453 -91 1209 -44 
Q 966 3 703 97 
z
M 1959 2075 
Q 2384 2075 2632 2365 
Q 2881 2656 2881 3163 
Q 2881 3666 2632 3958 
Q 2384 4250 1959 4250 
Q 1534 4250 1286 3958 
Q 1038 3666 1038 3163 
Q 1038 2656 1286 2365 
Q 1534 2075 1959 2075 
z
" transform="scale(0.015625)"/>
     <path id="DejaVuSans-29" d="M 513 4856 
L 1013 4856 
Q 1481 4119 1714 3412 
Q 1947 2706 1947 2009 
Q 1947 1309 1714 600 
Q 1481 -109 1013 -844 
L 513 -844 
Q 928 -128 1133 580 
Q 1338 1288 1338 2009 
Q 1338 2731 1133 3434 
Q 928 4138 513 4856 
z
" transform="scale(0.015625)"/>
    </defs>
    <use xlink:href="#DejaVuSans-44"/>
    <use xlink:href="#DejaVuSans-46" x="77.001953"/>
    <use xlink:href="#DejaVuSans-46" x="134.521484"/>
    <use xlink:href="#DejaVuSans-20" x="192.041016"/>
    <use xlink:href="#DejaVuSans-75" x="223.828125"/>
    <use xlink:href="#DejaVuSans-6e" x="287.207031"/>
    <use xlink:href="#DejaVuSans-64" x="350.585938"/>
    <use xlink:href="#DejaVuSans-65" x="414.0625"/>
    <use xlink:href="#DejaVuSans-72" x="475.585938"/>
    <use xlink:href="#DejaVuSans-20" x="516.699219"/>
    <use xlink:href="#DejaVuSans-42" x="548.486328"/>
    <use xlink:href="#DejaVuSans-42" x="617.089844"/>
    <use xlink:href="#DejaVuSans-49" x="685.693359"/>
    <use xlink:href="#DejaVuSans-20" x="715.185547"/>
    <use xlink:href="#DejaVuSans-73" x="746.972656"/>
    <use xlink:href="#DejaVuSans-77" x="799.072266"/>
    <use xlink:href="#DejaVuSans-65" x="880.859375"/>
    <use xlink:href="#DejaVuSans-65" x="942.382812"/>
    <use xlink:href="#DejaVuSans-70" x="1003.90625"/>
    <use xlink:href="#DejaVuSans-20" x="1067.382812"/>
    <use xlink:href="#DejaVuSans-61" x="1099.169922"/>
    <use xlink:href="#DejaVuSans-6e" x="1160.449219"/>
    <use xlink:href="#DejaVuSans-61" x="1223.828125"/>
    <use xlink:href="#DejaVuSans-6c" x="1285.107422"/>
    <use xlink:href="#DejaVuSans-79" x="1312.890625"/>
    <use xlink:href="#DejaVuSans-73" x="1372.070312"/>
    <use xlink:href="#DejaVuSans-69" x="1424.169922"/>
    <use xlink:href="#DejaVuSans-73" x="1451.953125"/>
    <use xlink:href="#DejaVuSans-20" x="1504.052734"/>
    <use xlink:href="#DejaVuSans-28" x="1535.839844"/>
    <use xlink:href="#DejaVuSans-53" x="1574.853516"/>
    <use xlink:href="#DejaVuSans-77" x="1638.330078"/>
    <use xlink:href="#DejaVuSans-65" x="1720.117188"/>
    <use xlink:href="#DejaVuSans-65" x="1781.640625"/>
    <use xlink:href="#DejaVuSans-70" x="1843.164062"/>
    <use xlink:href="#DejaVuSans-20" x="1906.640625"/>
    <use xlink:href="#DejaVuSans-3d" x="1938.427734"/>
    <use xlink:href="#DejaVuSans-20" x="2022.216797"/>
    <use xlink:href="#DejaVuSans-34" x="2054.003906"/>
    <use xlink:href="#DejaVuSans-36" x="2117.626953"/>
    <use xlink:href="#DejaVuSans-45" x="2181.25"/>
    <use xlink:href="#DejaVuSans-2d" x="2244.433594"/>
    <use xlink:href="#DejaVuSans-39" x="2280.517578"/>
    <use xlink:href="#DejaVuSans-29" x="2344.140625"/>
   </g>
  </g>
 </g>
 <defs>
  <clipPath id="p912cffcd60">
   <rect x="100.8" y="38.88" width="887.04" height="92.731034"/>
  </clipPath>
  <clipPath id="pa2f87fb55c">
   <rect x="100.8" y="150.157241" width="887.04" height="92.731034"/>
  </clipPath>
  <clipPath id="p51af6640fe">
   <rect x="100.8" y="261.434483" width="887.04" height="92.731034"/>
  </clipPath>
  <clipPath id="p1d8b50dc16">
   <rect x="100.8" y="372.711724" width="887.04" height="92.731034"/>
  </clipPath>
  <clipPath id="pedfc10a77c">
   <rect x="100.8" y="483.988966" width="887.04" height="92.731034"/>
  </clipPath>
  <clipPath id="pccacc76328">
   <rect x="201.6" y="609.12" width="655.2" height="25.92"/>
  </clipPath>
  <clipPath id="p5f07605848">
   <path d="M 201.6 628.56 
L 856.8 628.56 
L 856.8 615.6 
L 201.6 615.6 
z
"/>
  </clipPath>
 </defs>
</svg>
