<?xml version="1.0" encoding="utf-8" standalone="no"?>
<!DOCTYPE svg PUBLIC "-//W3C//DTD SVG 1.1//EN"
  "http://www.w3.org/Graphics/SVG/1.1/DTD/svg11.dtd">
<svg xmlns:xlink="http://www.w3.org/1999/xlink" width="1008pt" height="648pt" viewBox="0 0 1008 648" xmlns="http://www.w3.org/2000/svg" version="1.1">
 <metadata>
  <rdf:RDF xmlns:dc="http://purl.org/dc/elements/1.1/" xmlns:cc="http://creativecommons.org/ns#" xmlns:rdf="http://www.w3.org/1999/02/22-rdf-syntax-ns#">
   <cc:Work>
    <dc:type rdf:resource="http://purl.org/dc/dcmitype/StillImage"/>
    <dc:date>2024-06-03T10:45:30.668804</dc:date>
    <dc:format>image/svg+xml</dc:format>
    <dc:creator>
     <cc:Agent>
      <dc:title>Matplotlib v3.9.0, https://matplotlib.org/</dc:title>
     </cc:Agent>
    </dc:creator>
   </cc:Work>
  </rdf:RDF>
 </metadata>
 <defs>
  <style type="text/css">*{stroke-linejoin: round; stroke-linecap: butt}</style>
 </defs>
 <g id="figure_1">
  <g id="patch_1">
   <path d="M 0 648 
L 1008 648 
L 1008 0 
L 0 0 
z
" style="fill: #ffffff"/>
  </g>
  <g id="axes_1">
   <g id="patch_2">
    <path d="M 100.8 131.611034 
L 987.84 131.611034 
L 987.84 38.88 
L 100.8 38.88 
z
" style="fill: #eeeeee"/>
   </g>
   <g id="matplotlib.axis_1">
    <g id="xtick_1">
     <g id="line2d_1">
      <path d="M 141.12 131.611034 
L 141.12 38.88 
" clip-path="url(#pe5ba1c730f)" style="fill: none; stroke-dasharray: 1.85,0.8; stroke-dashoffset: 0; stroke: #b2b2b2; stroke-width: 0.5"/>
     </g>
     <g id="line2d_2">
      <defs>
       <path id="mbe3f67ff81" d="M 0 0 
L 0 -3.5 
" style="stroke: #000000; stroke-width: 0.8"/>
      </defs>
      <g>
       <use xlink:href="#mbe3f67ff81" x="141.12" y="131.611034" style="stroke: #000000; stroke-width: 0.8"/>
      </g>
     </g>
    </g>
    <g id="xtick_2">
     <g id="line2d_3">
      <path d="M 302.4 131.611034 
L 302.4 38.88 
" clip-path="url(#pe5ba1c730f)" style="fill: none; stroke-dasharray: 1.85,0.8; stroke-dashoffset: 0; stroke: #b2b2b2; stroke-width: 0.5"/>
     </g>
     <g id="line2d_4">
      <g>
       <use xlink:href="#mbe3f67ff81" x="302.4" y="131.611034" style="stroke: #000000; stroke-width: 0.8"/>
      </g>
     </g>
    </g>
    <g id="xtick_3">
     <g id="line2d_5">
      <path d="M 463.68 131.611034 
L 463.68 38.88 
" clip-path="url(#pe5ba1c730f)" style="fill: none; stroke-dasharray: 1.85,0.8; stroke-dashoffset: 0; stroke: #b2b2b2; stroke-width: 0.5"/>
     </g>
     <g id="line2d_6">
      <g>
       <use xlink:href="#mbe3f67ff81" x="463.68" y="131.611034" style="stroke: #000000; stroke-width: 0.8"/>
      </g>
     </g>
    </g>
    <g id="xtick_4">
     <g id="line2d_7">
      <path d="M 624.96 131.611034 
L 624.96 38.88 
" clip-path="url(#pe5ba1c730f)" style="fill: none; stroke-dasharray: 1.85,0.8; stroke-dashoffset: 0; stroke: #b2b2b2; stroke-width: 0.5"/>
     </g>
     <g id="line2d_8">
      <g>
       <use xlink:href="#mbe3f67ff81" x="624.96" y="131.611034" style="stroke: #000000; stroke-width: 0.8"/>
      </g>
     </g>
    </g>
    <g id="xtick_5">
     <g id="line2d_9">
      <path d="M 786.24 131.611034 
L 786.24 38.88 
" clip-path="url(#pe5ba1c730f)" style="fill: none; stroke-dasharray: 1.85,0.8; stroke-dashoffset: 0; stroke: #b2b2b2; stroke-width: 0.5"/>
     </g>
     <g id="line2d_10">
      <g>
       <use xlink:href="#mbe3f67ff81" x="786.24" y="131.611034" style="stroke: #000000; stroke-width: 0.8"/>
      </g>
     </g>
    </g>
    <g id="xtick_6">
     <g id="line2d_11">
      <path d="M 947.52 131.611034 
L 947.52 38.88 
" clip-path="url(#pe5ba1c730f)" style="fill: none; stroke-dasharray: 1.85,0.8; stroke-dashoffset: 0; stroke: #b2b2b2; stroke-width: 0.5"/>
     </g>
     <g id="line2d_12">
      <g>
       <use xlink:href="#mbe3f67ff81" x="947.52" y="131.611034" style="stroke: #000000; stroke-width: 0.8"/>
      </g>
     </g>
    </g>
   </g>
   <g id="matplotlib.axis_2">
    <g id="ytick_1">
     <g id="line2d_13">
      <path d="M 100.8 98.340394 
L 987.84 98.340394 
" clip-path="url(#pe5ba1c730f)" style="fill: none; stroke-dasharray: 1.85,0.8; stroke-dashoffset: 0; stroke: #b2b2b2; stroke-width: 0.5"/>
     </g>
     <g id="line2d_14">
      <defs>
       <path id="mce7bf15c71" d="M 0 0 
L 3.5 0 
" style="stroke: #000000; stroke-width: 0.8"/>
      </defs>
      <g>
       <use xlink:href="#mce7bf15c71" x="100.8" y="98.340394" style="stroke: #000000; stroke-width: 0.8"/>
      </g>
     </g>
     <g id="text_1">
      <!-- −200 V -->
      <g transform="translate(44.819688 103.6593) scale(0.14 -0.14)">
       <defs>
        <path id="DejaVuSans-2212" d="M 678 2272 
L 4684 2272 
L 4684 1741 
L 678 1741 
L 678 2272 
z
" transform="scale(0.015625)"/>
        <path id="DejaVuSans-32" d="M 1228 531 
L 3431 531 
L 3431 0 
L 469 0 
L 469 531 
Q 828 903 1448 1529 
Q 2069 2156 2228 2338 
Q 2531 2678 2651 2914 
Q 2772 3150 2772 3378 
Q 2772 3750 2511 3984 
Q 2250 4219 1831 4219 
Q 1534 4219 1204 4116 
Q 875 4013 500 3803 
L 500 4441 
Q 881 4594 1212 4672 
Q 1544 4750 1819 4750 
Q 2544 4750 2975 4387 
Q 3406 4025 3406 3419 
Q 3406 3131 3298 2873 
Q 3191 2616 2906 2266 
Q 2828 2175 2409 1742 
Q 1991 1309 1228 531 
z
" transform="scale(0.015625)"/>
        <path id="DejaVuSans-30" d="M 2034 4250 
Q 1547 4250 1301 3770 
Q 1056 3291 1056 2328 
Q 1056 1369 1301 889 
Q 1547 409 2034 409 
Q 2525 409 2770 889 
Q 3016 1369 3016 2328 
Q 3016 3291 2770 3770 
Q 2525 4250 2034 4250 
z
M 2034 4750 
Q 2819 4750 3233 4129 
Q 3647 3509 3647 2328 
Q 3647 1150 3233 529 
Q 2819 -91 2034 -91 
Q 1250 -91 836 529 
Q 422 1150 422 2328 
Q 422 3509 836 4129 
Q 1250 4750 2034 4750 
z
" transform="scale(0.015625)"/>
        <path id="DejaVuSans-20" transform="scale(0.015625)"/>
        <path id="DejaVuSans-56" d="M 1831 0 
L 50 4666 
L 709 4666 
L 2188 738 
L 3669 4666 
L 4325 4666 
L 2547 0 
L 1831 0 
z
" transform="scale(0.015625)"/>
       </defs>
       <use xlink:href="#DejaVuSans-2212"/>
       <use xlink:href="#DejaVuSans-32" x="83.789062"/>
       <use xlink:href="#DejaVuSans-30" x="147.412109"/>
       <use xlink:href="#DejaVuSans-30" x="211.035156"/>
       <use xlink:href="#DejaVuSans-20" x="274.658203"/>
       <use xlink:href="#DejaVuSans-56" x="306.445312"/>
      </g>
     </g>
    </g>
    <g id="ytick_2">
     <g id="line2d_15">
      <path d="M 100.8 45.027377 
L 987.84 45.027377 
" clip-path="url(#pe5ba1c730f)" style="fill: none; stroke-dasharray: 1.85,0.8; stroke-dashoffset: 0; stroke: #b2b2b2; stroke-width: 0.5"/>
     </g>
     <g id="line2d_16">
      <g>
       <use xlink:href="#mce7bf15c71" x="100.8" y="45.027377" style="stroke: #000000; stroke-width: 0.8"/>
      </g>
     </g>
     <g id="text_2">
      <!-- 0 V -->
      <g transform="translate(74.36625 50.346284) scale(0.14 -0.14)">
       <use xlink:href="#DejaVuSans-30"/>
       <use xlink:href="#DejaVuSans-20" x="63.623047"/>
       <use xlink:href="#DejaVuSans-56" x="95.410156"/>
      </g>
     </g>
    </g>
    <g id="text_3">
     <g id="patch_3">
      <path d="M 34.8768 131.080205 
L 34.8768 39.41083 
L 11.247425 39.41083 
L 11.247425 131.080205 
z
" style="fill: #ffff00; opacity: 0.2; stroke: #eeeeee; stroke-width: 0.5; stroke-linejoin: miter"/>
     </g>
     <!-- VPULSE BBI -->
     <g transform="translate(26.925238 126.040205) rotate(-90) scale(0.14 -0.14)">
      <defs>
       <path id="DejaVuSans-50" d="M 1259 4147 
L 1259 2394 
L 2053 2394 
Q 2494 2394 2734 2622 
Q 2975 2850 2975 3272 
Q 2975 3691 2734 3919 
Q 2494 4147 2053 4147 
L 1259 4147 
z
M 628 4666 
L 2053 4666 
Q 2838 4666 3239 4311 
Q 3641 3956 3641 3272 
Q 3641 2581 3239 2228 
Q 2838 1875 2053 1875 
L 1259 1875 
L 1259 0 
L 628 0 
L 628 4666 
z
" transform="scale(0.015625)"/>
       <path id="DejaVuSans-55" d="M 556 4666 
L 1191 4666 
L 1191 1831 
Q 1191 1081 1462 751 
Q 1734 422 2344 422 
Q 2950 422 3222 751 
Q 3494 1081 3494 1831 
L 3494 4666 
L 4128 4666 
L 4128 1753 
Q 4128 841 3676 375 
Q 3225 -91 2344 -91 
Q 1459 -91 1007 375 
Q 556 841 556 1753 
L 556 4666 
z
" transform="scale(0.015625)"/>
       <path id="DejaVuSans-4c" d="M 628 4666 
L 1259 4666 
L 1259 531 
L 3531 531 
L 3531 0 
L 628 0 
L 628 4666 
z
" transform="scale(0.015625)"/>
       <path id="DejaVuSans-53" d="M 3425 4513 
L 3425 3897 
Q 3066 4069 2747 4153 
Q 2428 4238 2131 4238 
Q 1616 4238 1336 4038 
Q 1056 3838 1056 3469 
Q 1056 3159 1242 3001 
Q 1428 2844 1947 2747 
L 2328 2669 
Q 3034 2534 3370 2195 
Q 3706 1856 3706 1288 
Q 3706 609 3251 259 
Q 2797 -91 1919 -91 
Q 1588 -91 1214 -16 
Q 841 59 441 206 
L 441 856 
Q 825 641 1194 531 
Q 1563 422 1919 422 
Q 2459 422 2753 634 
Q 3047 847 3047 1241 
Q 3047 1584 2836 1778 
Q 2625 1972 2144 2069 
L 1759 2144 
Q 1053 2284 737 2584 
Q 422 2884 422 3419 
Q 422 4038 858 4394 
Q 1294 4750 2059 4750 
Q 2388 4750 2728 4690 
Q 3069 4631 3425 4513 
z
" transform="scale(0.015625)"/>
       <path id="DejaVuSans-45" d="M 628 4666 
L 3578 4666 
L 3578 4134 
L 1259 4134 
L 1259 2753 
L 3481 2753 
L 3481 2222 
L 1259 2222 
L 1259 531 
L 3634 531 
L 3634 0 
L 628 0 
L 628 4666 
z
" transform="scale(0.015625)"/>
       <path id="DejaVuSans-42" d="M 1259 2228 
L 1259 519 
L 2272 519 
Q 2781 519 3026 730 
Q 3272 941 3272 1375 
Q 3272 1813 3026 2020 
Q 2781 2228 2272 2228 
L 1259 2228 
z
M 1259 4147 
L 1259 2741 
L 2194 2741 
Q 2656 2741 2882 2914 
Q 3109 3088 3109 3444 
Q 3109 3797 2882 3972 
Q 2656 4147 2194 4147 
L 1259 4147 
z
M 628 4666 
L 2241 4666 
Q 2963 4666 3353 4366 
Q 3744 4066 3744 3513 
Q 3744 3084 3544 2831 
Q 3344 2578 2956 2516 
Q 3422 2416 3680 2098 
Q 3938 1781 3938 1306 
Q 3938 681 3513 340 
Q 3088 0 2303 0 
L 628 0 
L 628 4666 
z
" transform="scale(0.015625)"/>
       <path id="DejaVuSans-49" d="M 628 4666 
L 1259 4666 
L 1259 0 
L 628 0 
L 628 4666 
z
" transform="scale(0.015625)"/>
      </defs>
      <use xlink:href="#DejaVuSans-56"/>
      <use xlink:href="#DejaVuSans-50" x="68.408203"/>
      <use xlink:href="#DejaVuSans-55" x="128.710938"/>
      <use xlink:href="#DejaVuSans-4c" x="201.904297"/>
      <use xlink:href="#DejaVuSans-53" x="257.617188"/>
      <use xlink:href="#DejaVuSans-45" x="321.09375"/>
      <use xlink:href="#DejaVuSans-20" x="384.277344"/>
      <use xlink:href="#DejaVuSans-42" x="416.064453"/>
      <use xlink:href="#DejaVuSans-42" x="484.667969"/>
      <use xlink:href="#DejaVuSans-49" x="553.271484"/>
     </g>
    </g>
   </g>
   <g id="line2d_17">
    <path d="M 141.12 45.027377 
L 218.566656 45.136282 
L 219.050496 46.425538 
L 227.275776 69.006772 
L 234.694656 89.863624 
L 236.307456 94.440546 
L 238.113792 99.673219 
L 241.59744 110.807642 
L 243.177984 115.853719 
L 244.435968 119.566971 
L 245.661696 120.153414 
L 246.500352 120.545265 
L 247.532544 121.017085 
L 248.113152 121.272988 
L 248.984064 121.656841 
L 249.564672 121.912744 
L 250.403328 122.269941 
L 251.983872 122.936354 
L 252.628992 123.202919 
L 253.725696 123.629423 
L 254.467584 123.922644 
L 255.564288 124.349149 
L 256.467456 124.677024 
L 257.144832 124.943589 
L 257.951232 125.25547 
L 259.305984 125.804594 
L 261.950976 126.790885 
L 262.56384 127.022796 
L 264.4992 127.395987 
L 282.981888 127.289361 
L 283.20768 126.801547 
L 301.496832 75.087922 
L 305.238528 63.292417 
L 308.947968 51.617666 
L 313.560576 49.3412 
L 318.915072 46.984578 
L 327.624192 43.484472 
L 328.495104 43.268927 
L 342.784512 43.108189 
L 349.590528 43.184799 
L 364.944384 43.746186 
L 392.7168 44.46146 
L 418.36032 44.774399 
L 453.970944 44.945888 
L 502.000128 44.953885 
L 947.52 44.953885 
L 947.52 44.953885 
" clip-path="url(#pe5ba1c730f)" style="fill: none; stroke: #ff0000; stroke-width: 2; stroke-linecap: square"/>
   </g>
   <g id="patch_4">
    <path d="M 100.8 131.611034 
L 100.8 38.88 
" style="fill: none; stroke: #bcbcbc; stroke-width: 0.8; stroke-linejoin: miter; stroke-linecap: square"/>
   </g>
   <g id="patch_5">
    <path d="M 987.84 131.611034 
L 987.84 38.88 
" style="fill: none; stroke: #bcbcbc; stroke-width: 0.8; stroke-linejoin: miter; stroke-linecap: square"/>
   </g>
   <g id="patch_6">
    <path d="M 100.8 131.611034 
L 987.84 131.611034 
" style="fill: none; stroke: #bcbcbc; stroke-width: 0.8; stroke-linejoin: miter; stroke-linecap: square"/>
   </g>
   <g id="patch_7">
    <path d="M 100.8 38.88 
L 987.84 38.88 
" style="fill: none; stroke: #bcbcbc; stroke-width: 0.8; stroke-linejoin: miter; stroke-linecap: square"/>
   </g>
  </g>
  <g id="axes_2">
   <g id="patch_8">
    <path d="M 100.8 242.888276 
L 987.84 242.888276 
L 987.84 150.157241 
L 100.8 150.157241 
z
" style="fill: #eeeeee"/>
   </g>
   <g id="matplotlib.axis_3">
    <g id="xtick_7">
     <g id="line2d_18">
      <path d="M 141.12 242.888276 
L 141.12 150.157241 
" clip-path="url(#pa5ef8fa430)" style="fill: none; stroke-dasharray: 1.85,0.8; stroke-dashoffset: 0; stroke: #b2b2b2; stroke-width: 0.5"/>
     </g>
     <g id="line2d_19">
      <g>
       <use xlink:href="#mbe3f67ff81" x="141.12" y="242.888276" style="stroke: #000000; stroke-width: 0.8"/>
      </g>
     </g>
    </g>
    <g id="xtick_8">
     <g id="line2d_20">
      <path d="M 302.4 242.888276 
L 302.4 150.157241 
" clip-path="url(#pa5ef8fa430)" style="fill: none; stroke-dasharray: 1.85,0.8; stroke-dashoffset: 0; stroke: #b2b2b2; stroke-width: 0.5"/>
     </g>
     <g id="line2d_21">
      <g>
       <use xlink:href="#mbe3f67ff81" x="302.4" y="242.888276" style="stroke: #000000; stroke-width: 0.8"/>
      </g>
     </g>
    </g>
    <g id="xtick_9">
     <g id="line2d_22">
      <path d="M 463.68 242.888276 
L 463.68 150.157241 
" clip-path="url(#pa5ef8fa430)" style="fill: none; stroke-dasharray: 1.85,0.8; stroke-dashoffset: 0; stroke: #b2b2b2; stroke-width: 0.5"/>
     </g>
     <g id="line2d_23">
      <g>
       <use xlink:href="#mbe3f67ff81" x="463.68" y="242.888276" style="stroke: #000000; stroke-width: 0.8"/>
      </g>
     </g>
    </g>
    <g id="xtick_10">
     <g id="line2d_24">
      <path d="M 624.96 242.888276 
L 624.96 150.157241 
" clip-path="url(#pa5ef8fa430)" style="fill: none; stroke-dasharray: 1.85,0.8; stroke-dashoffset: 0; stroke: #b2b2b2; stroke-width: 0.5"/>
     </g>
     <g id="line2d_25">
      <g>
       <use xlink:href="#mbe3f67ff81" x="624.96" y="242.888276" style="stroke: #000000; stroke-width: 0.8"/>
      </g>
     </g>
    </g>
    <g id="xtick_11">
     <g id="line2d_26">
      <path d="M 786.24 242.888276 
L 786.24 150.157241 
" clip-path="url(#pa5ef8fa430)" style="fill: none; stroke-dasharray: 1.85,0.8; stroke-dashoffset: 0; stroke: #b2b2b2; stroke-width: 0.5"/>
     </g>
     <g id="line2d_27">
      <g>
       <use xlink:href="#mbe3f67ff81" x="786.24" y="242.888276" style="stroke: #000000; stroke-width: 0.8"/>
      </g>
     </g>
    </g>
    <g id="xtick_12">
     <g id="line2d_28">
      <path d="M 947.52 242.888276 
L 947.52 150.157241 
" clip-path="url(#pa5ef8fa430)" style="fill: none; stroke-dasharray: 1.85,0.8; stroke-dashoffset: 0; stroke: #b2b2b2; stroke-width: 0.5"/>
     </g>
     <g id="line2d_29">
      <g>
       <use xlink:href="#mbe3f67ff81" x="947.52" y="242.888276" style="stroke: #000000; stroke-width: 0.8"/>
      </g>
     </g>
    </g>
   </g>
   <g id="matplotlib.axis_4">
    <g id="ytick_3">
     <g id="line2d_30">
      <path d="M 100.8 214.61478 
L 987.84 214.61478 
" clip-path="url(#pa5ef8fa430)" style="fill: none; stroke-dasharray: 1.85,0.8; stroke-dashoffset: 0; stroke: #b2b2b2; stroke-width: 0.5"/>
     </g>
     <g id="line2d_31">
      <g>
       <use xlink:href="#mce7bf15c71" x="100.8" y="214.61478" style="stroke: #000000; stroke-width: 0.8"/>
      </g>
     </g>
     <g id="text_4">
      <!-- 0 V -->
      <g transform="translate(74.36625 219.933686) scale(0.14 -0.14)">
       <use xlink:href="#DejaVuSans-30"/>
       <use xlink:href="#DejaVuSans-20" x="63.623047"/>
       <use xlink:href="#DejaVuSans-56" x="95.410156"/>
      </g>
     </g>
    </g>
    <g id="ytick_4">
     <g id="line2d_32">
      <path d="M 100.8 172.715704 
L 987.84 172.715704 
" clip-path="url(#pa5ef8fa430)" style="fill: none; stroke-dasharray: 1.85,0.8; stroke-dashoffset: 0; stroke: #b2b2b2; stroke-width: 0.5"/>
     </g>
     <g id="line2d_33">
      <g>
       <use xlink:href="#mce7bf15c71" x="100.8" y="172.715704" style="stroke: #000000; stroke-width: 0.8"/>
      </g>
     </g>
     <g id="text_5">
      <!-- 1 V -->
      <g transform="translate(74.36625 178.03461) scale(0.14 -0.14)">
       <defs>
        <path id="DejaVuSans-31" d="M 794 531 
L 1825 531 
L 1825 4091 
L 703 3866 
L 703 4441 
L 1819 4666 
L 2450 4666 
L 2450 531 
L 3481 531 
L 3481 0 
L 794 0 
L 794 531 
z
" transform="scale(0.015625)"/>
       </defs>
       <use xlink:href="#DejaVuSans-31"/>
       <use xlink:href="#DejaVuSans-20" x="63.623047"/>
       <use xlink:href="#DejaVuSans-56" x="95.410156"/>
      </g>
     </g>
    </g>
    <g id="text_6">
     <g id="patch_9">
      <path d="M 34.8768 224.531509 
L 34.8768 168.514009 
L 11.247425 168.514009 
L 11.247425 224.531509 
z
" style="fill: #ffff00; opacity: 0.2; stroke: #eeeeee; stroke-width: 0.5; stroke-linejoin: miter"/>
     </g>
     <!-- DFF IN -->
     <g transform="translate(26.925238 219.491509) rotate(-90) scale(0.14 -0.14)">
      <defs>
       <path id="DejaVuSans-44" d="M 1259 4147 
L 1259 519 
L 2022 519 
Q 2988 519 3436 956 
Q 3884 1394 3884 2338 
Q 3884 3275 3436 3711 
Q 2988 4147 2022 4147 
L 1259 4147 
z
M 628 4666 
L 1925 4666 
Q 3281 4666 3915 4102 
Q 4550 3538 4550 2338 
Q 4550 1131 3912 565 
Q 3275 0 1925 0 
L 628 0 
L 628 4666 
z
" transform="scale(0.015625)"/>
       <path id="DejaVuSans-46" d="M 628 4666 
L 3309 4666 
L 3309 4134 
L 1259 4134 
L 1259 2759 
L 3109 2759 
L 3109 2228 
L 1259 2228 
L 1259 0 
L 628 0 
L 628 4666 
z
" transform="scale(0.015625)"/>
       <path id="DejaVuSans-4e" d="M 628 4666 
L 1478 4666 
L 3547 763 
L 3547 4666 
L 4159 4666 
L 4159 0 
L 3309 0 
L 1241 3903 
L 1241 0 
L 628 0 
L 628 4666 
z
" transform="scale(0.015625)"/>
      </defs>
      <use xlink:href="#DejaVuSans-44"/>
      <use xlink:href="#DejaVuSans-46" x="77.001953"/>
      <use xlink:href="#DejaVuSans-46" x="134.521484"/>
      <use xlink:href="#DejaVuSans-20" x="192.041016"/>
      <use xlink:href="#DejaVuSans-49" x="223.828125"/>
      <use xlink:href="#DejaVuSans-4e" x="253.320312"/>
     </g>
    </g>
   </g>
   <g id="line2d_34">
    <path d="M 141.12 214.55359 
L 218.598912 214.624491 
L 219.98592 216.290407 
L 220.566528 216.800193 
L 221.243904 217.237745 
L 221.953536 217.535438 
L 222.050304 216.97022 
L 223.3728 207.878665 
L 224.630784 200.75666 
L 225.759744 195.558242 
L 226.43712 193.265524 
L 227.146752 191.770146 
L 227.985408 190.599067 
L 228.759552 189.896839 
L 229.17888 189.717092 
L 229.436928 189.796281 
L 229.630464 190.158708 
L 229.920768 191.03398 
L 230.888448 195.870809 
L 231.211008 197.247194 
L 232.146432 202.52103 
L 234.01728 211.29432 
L 234.6624 214.046251 
L 235.30752 216.687192 
L 236.2752 219.886102 
L 236.468736 220.47646 
L 236.952576 222.162898 
L 237.40416 223.003393 
L 237.694464 223.39096 
L 237.920256 223.911346 
L 238.339584 225.337172 
L 238.85568 226.561882 
L 238.952448 226.676266 
L 239.307264 227.706984 
L 240.016896 229.406829 
L 240.694272 231.021201 
L 241.178112 232.123565 
L 241.27488 232.26267 
L 241.59744 232.979144 
L 241.92 233.662518 
L 242.500608 234.993233 
L 242.7264 235.388341 
L 243.403776 236.861932 
L 244.3392 238.61876 
L 244.468224 238.620855 
L 244.758528 238.428119 
L 245.016576 237.978961 
L 245.62944 236.817519 
L 245.952 236.083028 
L 246.11328 235.84127 
L 246.629376 235.074517 
L 247.113216 234.437232 
L 248.016384 232.983753 
L 248.984064 232.043957 
L 249.629184 231.120501 
L 250.048512 230.310592 
L 250.435584 230.0085 
L 250.532352 229.96283 
L 250.7904 229.729033 
L 251.177472 229.494817 
L 251.75808 228.907392 
L 252.306432 228.222342 
L 252.822528 227.18953 
L 253.112832 226.930594 
L 253.145088 226.959923 
L 253.274112 226.996375 
L 253.983744 226.50448 
L 255.209472 225.217341 
L 255.6288 224.57 
L 256.144896 224.006876 
L 256.402944 223.850593 
L 256.75776 223.613863 
L 258.435072 221.994045 
L 259.305984 221.030785 
L 259.596288 220.867798 
L 261.886464 218.762746 
L 262.24128 218.339565 
L 262.821888 217.802545 
L 263.6928 217.029507 
L 264.370176 216.116736 
L 265.241088 214.591686 
L 266.079744 213.146468 
L 268.466688 209.123906 
L 269.144064 207.996821 
L 270.756864 205.54782 
L 272.176128 203.639736 
L 272.88576 202.934574 
L 273.788928 202.494634 
L 274.369536 202.469913 
L 275.46624 202.77871 
L 276.304896 203.472558 
L 277.046784 204.305931 
L 278.208 206.022536 
L 280.562688 209.72809 
L 281.562624 210.918904 
L 282.627072 211.807541 
L 283.078656 212.027135 
L 284.368896 210.769199 
L 286.013952 210.180181 
L 287.013888 210.045685 
L 288.336384 210.051551 
L 289.787904 210.244287 
L 290.110464 210.288281 
L 291.078144 210.460947 
L 291.465216 210.513028 
L 292.07808 210.609563 
L 292.626432 210.689632 
L 293.110272 210.749967 
L 293.85216 210.862089 
L 294.271488 210.897787 
L 295.077888 210.981669 
L 296.59392 211.151821 
L 299.916288 211.340241 
L 300.851712 211.352266 
L 301.27104 211.366721 
L 301.787136 211.382811 
L 302.270976 211.376232 
L 304.33536 211.038861 
L 304.690176 210.996752 
L 305.722368 210.883541 
L 306.141696 210.839715 
L 306.948096 210.726294 
L 307.464192 210.676057 
L 308.109312 210.560122 
L 308.754432 210.460738 
L 308.883456 210.489983 
L 309.560832 211.209013 
L 310.431744 212.030319 
L 312.205824 212.925199 
L 313.52832 213.241747 
L 316.9152 213.623615 
L 319.49568 213.836379 
L 319.785984 213.857621 
L 325.979136 214.137214 
L 330.204672 214.569964 
L 330.527232 214.591443 
L 331.462656 214.688928 
L 331.881984 214.728984 
L 332.752896 214.772567 
L 333.139968 214.795557 
L 334.075392 214.816871 
L 334.397952 214.820248 
L 335.720448 214.857756 
L 336.043008 214.864691 
L 337.300992 214.904055 
L 337.591296 214.901164 
L 339.4944 214.924468 
L 339.81696 214.938249 
L 342.365184 214.943888 
L 346.493952 214.950902 
L 346.784256 214.953429 
L 347.71968 214.893019 
L 350.364672 180.994961 
L 351.558144 169.686401 
L 352.71936 160.669719 
L 353.332224 157.711645 
L 353.84832 156.169759 
L 354.299904 155.344347 
L 354.912768 154.724241 
L 355.364352 154.506365 
L 355.94496 154.397428 
L 356.654592 154.414187 
L 365.266944 156.538471 
L 366.331392 156.781485 
L 367.105536 156.965841 
L 368.20224 157.213046 
L 368.911872 157.380642 
L 369.202176 157.439301 
L 369.847296 157.577568 
L 371.331072 157.879241 
L 371.976192 158.013318 
L 373.814784 158.36108 
L 375.13728 158.792641 
L 376.524288 162.794003 
L 376.846848 163.057967 
L 377.266176 163.053777 
L 377.459712 162.936459 
L 379.782144 160.967203 
L 381.10464 160.569162 
L 381.523968 160.518883 
L 382.523904 160.497933 
L 387.136512 160.606871 
L 388.329984 160.65296 
L 388.878336 160.690669 
L 390.426624 160.799607 
L 393.03936 161.034241 
L 393.490944 161.08033 
L 396.329472 161.344295 
L 396.845568 161.386194 
L 397.910016 161.495131 
L 400.071168 161.666917 
L 401.26464 161.771665 
L 401.619456 161.792615 
L 402.200064 161.826134 
L 404.32896 161.99792 
L 404.877312 162.035629 
L 406.361088 162.144567 
L 408.006144 162.249315 
L 408.554496 162.287024 
L 410.070528 162.387582 
L 410.393088 162.400151 
L 412.199424 162.509089 
L 412.55424 162.530038 
L 414.00576 162.613837 
L 414.586368 162.647356 
L 415.392768 162.651546 
L 415.812096 162.01468 
L 416.199168 161.687867 
L 416.779776 161.507701 
L 417.55392 161.616639 
L 418.03776 161.788425 
L 419.424768 162.261884 
L 420.263424 162.47138 
L 425.714688 163.070537 
L 427.843584 163.179474 
L 428.811264 163.200424 
L 429.32736 163.242323 
L 430.488576 163.288412 
L 431.26272 163.296792 
L 434.423808 163.405729 
L 434.907648 163.422489 
L 439.068672 163.531426 
L 439.97184 163.539806 
L 444.552192 163.644554 
L 445.036032 163.657124 
L 451.229184 163.761871 
L 451.713024 163.778631 
L 455.745024 163.883379 
L 456.357888 164.7046 
L 457.003008 165.081692 
L 457.744896 165.16549 
L 459.518976 164.817728 
L 460.647936 164.562144 
L 461.680128 164.407117 
L 465.067008 164.076114 
L 466.74432 163.967177 
L 467.647488 163.958797 
L 496.032768 163.887569 
L 496.548864 163.175284 
L 497.22624 162.773053 
L 498.290688 162.739534 
L 501.967872 163.581705 
L 503.935488 163.728352 
L 509.257728 163.83729 
L 510.160896 163.845669 
L 536.385024 163.921088 
L 536.965632 164.696221 
L 537.352704 164.943425 
L 538.126848 165.131971 
L 540.223488 165.023033 
L 542.38464 164.574713 
L 547.771392 163.983936 
L 576.672768 163.887569 
L 577.253376 163.099866 
L 578.059776 162.701825 
L 580.253184 163.095676 
L 582.2208 163.493717 
L 585.027072 163.749302 
L 598.413312 163.858239 
L 599.284224 163.862429 
L 617.025024 163.925278 
L 617.605632 164.696221 
L 617.992704 164.943425 
L 618.766848 165.131971 
L 620.863488 165.023033 
L 623.02464 164.574713 
L 628.411392 163.983936 
L 657.312768 163.883379 
L 657.828864 163.154335 
L 658.377216 162.789813 
L 659.667456 162.731154 
L 663.473664 163.606845 
L 665.538048 163.766061 
L 697.600512 163.866619 
L 697.729536 164.034215 
L 698.245632 164.696221 
L 698.632704 164.943425 
L 699.406848 165.131971 
L 700.697088 165.19063 
L 702.084096 164.901526 
L 703.922688 164.537004 
L 708.98688 163.988126 
L 737.952768 163.883379 
L 738.468864 163.158525 
L 738.952704 162.810762 
L 739.178496 162.781433 
L 740.339712 162.739534 
L 744.113664 163.606845 
L 746.178048 163.766061 
L 778.240512 163.866619 
L 778.369536 164.034215 
L 778.885632 164.696221 
L 779.272704 164.943425 
L 780.046848 165.131971 
L 781.337088 165.19063 
L 782.756352 164.897336 
L 784.562688 164.541194 
L 789.691392 163.983936 
L 818.592768 163.883379 
L 819.108864 163.154335 
L 819.657216 162.789813 
L 820.947456 162.731154 
L 824.753664 163.606845 
L 826.818048 163.766061 
L 858.880512 163.866619 
L 859.009536 164.034215 
L 859.525632 164.696221 
L 859.912704 164.943425 
L 860.686848 165.131971 
L 861.977088 165.19063 
L 863.396352 164.897336 
L 865.202688 164.541194 
L 870.331392 163.983936 
L 899.232768 163.883379 
L 899.748864 163.154335 
L 900.297216 162.789813 
L 901.587456 162.731154 
L 905.393664 163.606845 
L 907.458048 163.766061 
L 939.520512 163.866619 
L 939.649536 164.038405 
L 940.165632 164.692031 
L 940.58496 164.935045 
L 941.294592 165.18644 
L 943.32672 165.077502 
L 945.939456 164.511865 
L 947.52 164.206001 
L 947.52 164.206001 
" clip-path="url(#pa5ef8fa430)" style="fill: none; stroke: #008000; stroke-width: 2; stroke-linecap: square"/>
   </g>
   <g id="patch_10">
    <path d="M 100.8 242.888276 
L 100.8 150.157241 
" style="fill: none; stroke: #bcbcbc; stroke-width: 0.8; stroke-linejoin: miter; stroke-linecap: square"/>
   </g>
   <g id="patch_11">
    <path d="M 987.84 242.888276 
L 987.84 150.157241 
" style="fill: none; stroke: #bcbcbc; stroke-width: 0.8; stroke-linejoin: miter; stroke-linecap: square"/>
   </g>
   <g id="patch_12">
    <path d="M 100.8 242.888276 
L 987.84 242.888276 
" style="fill: none; stroke: #bcbcbc; stroke-width: 0.8; stroke-linejoin: miter; stroke-linecap: square"/>
   </g>
   <g id="patch_13">
    <path d="M 100.8 150.157241 
L 987.84 150.157241 
" style="fill: none; stroke: #bcbcbc; stroke-width: 0.8; stroke-linejoin: miter; stroke-linecap: square"/>
   </g>
  </g>
  <g id="axes_3">
   <g id="patch_14">
    <path d="M 100.8 354.165517 
L 987.84 354.165517 
L 987.84 261.434483 
L 100.8 261.434483 
z
" style="fill: #eeeeee"/>
   </g>
   <g id="matplotlib.axis_5">
    <g id="xtick_13">
     <g id="line2d_35">
      <path d="M 141.12 354.165517 
L 141.12 261.434483 
" clip-path="url(#p230907401d)" style="fill: none; stroke-dasharray: 1.85,0.8; stroke-dashoffset: 0; stroke: #b2b2b2; stroke-width: 0.5"/>
     </g>
     <g id="line2d_36">
      <g>
       <use xlink:href="#mbe3f67ff81" x="141.12" y="354.165517" style="stroke: #000000; stroke-width: 0.8"/>
      </g>
     </g>
    </g>
    <g id="xtick_14">
     <g id="line2d_37">
      <path d="M 302.4 354.165517 
L 302.4 261.434483 
" clip-path="url(#p230907401d)" style="fill: none; stroke-dasharray: 1.85,0.8; stroke-dashoffset: 0; stroke: #b2b2b2; stroke-width: 0.5"/>
     </g>
     <g id="line2d_38">
      <g>
       <use xlink:href="#mbe3f67ff81" x="302.4" y="354.165517" style="stroke: #000000; stroke-width: 0.8"/>
      </g>
     </g>
    </g>
    <g id="xtick_15">
     <g id="line2d_39">
      <path d="M 463.68 354.165517 
L 463.68 261.434483 
" clip-path="url(#p230907401d)" style="fill: none; stroke-dasharray: 1.85,0.8; stroke-dashoffset: 0; stroke: #b2b2b2; stroke-width: 0.5"/>
     </g>
     <g id="line2d_40">
      <g>
       <use xlink:href="#mbe3f67ff81" x="463.68" y="354.165517" style="stroke: #000000; stroke-width: 0.8"/>
      </g>
     </g>
    </g>
    <g id="xtick_16">
     <g id="line2d_41">
      <path d="M 624.96 354.165517 
L 624.96 261.434483 
" clip-path="url(#p230907401d)" style="fill: none; stroke-dasharray: 1.85,0.8; stroke-dashoffset: 0; stroke: #b2b2b2; stroke-width: 0.5"/>
     </g>
     <g id="line2d_42">
      <g>
       <use xlink:href="#mbe3f67ff81" x="624.96" y="354.165517" style="stroke: #000000; stroke-width: 0.8"/>
      </g>
     </g>
    </g>
    <g id="xtick_17">
     <g id="line2d_43">
      <path d="M 786.24 354.165517 
L 786.24 261.434483 
" clip-path="url(#p230907401d)" style="fill: none; stroke-dasharray: 1.85,0.8; stroke-dashoffset: 0; stroke: #b2b2b2; stroke-width: 0.5"/>
     </g>
     <g id="line2d_44">
      <g>
       <use xlink:href="#mbe3f67ff81" x="786.24" y="354.165517" style="stroke: #000000; stroke-width: 0.8"/>
      </g>
     </g>
    </g>
    <g id="xtick_18">
     <g id="line2d_45">
      <path d="M 947.52 354.165517 
L 947.52 261.434483 
" clip-path="url(#p230907401d)" style="fill: none; stroke-dasharray: 1.85,0.8; stroke-dashoffset: 0; stroke: #b2b2b2; stroke-width: 0.5"/>
     </g>
     <g id="line2d_46">
      <g>
       <use xlink:href="#mbe3f67ff81" x="947.52" y="354.165517" style="stroke: #000000; stroke-width: 0.8"/>
      </g>
     </g>
    </g>
   </g>
   <g id="matplotlib.axis_6">
    <g id="ytick_5">
     <g id="line2d_47">
      <path d="M 100.8 344.00086 
L 987.84 344.00086 
" clip-path="url(#p230907401d)" style="fill: none; stroke-dasharray: 1.85,0.8; stroke-dashoffset: 0; stroke: #b2b2b2; stroke-width: 0.5"/>
     </g>
     <g id="line2d_48">
      <g>
       <use xlink:href="#mce7bf15c71" x="100.8" y="344.00086" style="stroke: #000000; stroke-width: 0.8"/>
      </g>
     </g>
     <g id="text_7">
      <!-- 0 V -->
      <g transform="translate(74.36625 349.319766) scale(0.14 -0.14)">
       <use xlink:href="#DejaVuSans-30"/>
       <use xlink:href="#DejaVuSans-20" x="63.623047"/>
       <use xlink:href="#DejaVuSans-56" x="95.410156"/>
      </g>
     </g>
    </g>
    <g id="ytick_6">
     <g id="line2d_49">
      <path d="M 100.8 297.038902 
L 987.84 297.038902 
" clip-path="url(#p230907401d)" style="fill: none; stroke-dasharray: 1.85,0.8; stroke-dashoffset: 0; stroke: #b2b2b2; stroke-width: 0.5"/>
     </g>
     <g id="line2d_50">
      <g>
       <use xlink:href="#mce7bf15c71" x="100.8" y="297.038902" style="stroke: #000000; stroke-width: 0.8"/>
      </g>
     </g>
     <g id="text_8">
      <!-- 1 V -->
      <g transform="translate(74.36625 302.357808) scale(0.14 -0.14)">
       <use xlink:href="#DejaVuSans-31"/>
       <use xlink:href="#DejaVuSans-20" x="63.623047"/>
       <use xlink:href="#DejaVuSans-56" x="95.410156"/>
      </g>
     </g>
    </g>
    <g id="text_9">
     <g id="patch_15">
      <path d="M 34.8768 342.395313 
L 34.8768 273.204688 
L 11.247425 273.204688 
L 11.247425 342.395313 
z
" style="fill: #ffff00; opacity: 0.2; stroke: #eeeeee; stroke-width: 0.5; stroke-linejoin: miter"/>
     </g>
     <!-- CLK BUF -->
     <g transform="translate(26.925238 337.355313) rotate(-90) scale(0.14 -0.14)">
      <defs>
       <path id="DejaVuSans-43" d="M 4122 4306 
L 4122 3641 
Q 3803 3938 3442 4084 
Q 3081 4231 2675 4231 
Q 1875 4231 1450 3742 
Q 1025 3253 1025 2328 
Q 1025 1406 1450 917 
Q 1875 428 2675 428 
Q 3081 428 3442 575 
Q 3803 722 4122 1019 
L 4122 359 
Q 3791 134 3420 21 
Q 3050 -91 2638 -91 
Q 1578 -91 968 557 
Q 359 1206 359 2328 
Q 359 3453 968 4101 
Q 1578 4750 2638 4750 
Q 3056 4750 3426 4639 
Q 3797 4528 4122 4306 
z
" transform="scale(0.015625)"/>
       <path id="DejaVuSans-4b" d="M 628 4666 
L 1259 4666 
L 1259 2694 
L 3353 4666 
L 4166 4666 
L 1850 2491 
L 4331 0 
L 3500 0 
L 1259 2247 
L 1259 0 
L 628 0 
L 628 4666 
z
" transform="scale(0.015625)"/>
      </defs>
      <use xlink:href="#DejaVuSans-43"/>
      <use xlink:href="#DejaVuSans-4c" x="69.824219"/>
      <use xlink:href="#DejaVuSans-4b" x="125.537109"/>
      <use xlink:href="#DejaVuSans-20" x="191.113281"/>
      <use xlink:href="#DejaVuSans-42" x="222.900391"/>
      <use xlink:href="#DejaVuSans-55" x="291.503906"/>
      <use xlink:href="#DejaVuSans-46" x="364.697266"/>
     </g>
    </g>
   </g>
   <g id="line2d_51">
    <path d="M 141.12 343.999618 
L 173.376 343.999618 
L 173.601792 287.646511 
L 213.696 287.646511 
L 213.728256 293.173933 
L 213.85728 343.90525 
L 213.889536 344.032507 
L 213.986304 343.997436 
L 215.115264 343.999618 
L 218.598912 344.087843 
L 219.244032 344.770801 
L 219.98592 345.212854 
L 220.889088 345.485656 
L 222.211584 345.633398 
L 224.598528 345.638095 
L 233.952768 345.319833 
L 233.985024 345.262164 
L 234.049536 345.324107 
L 234.6624 345.260614 
L 234.791424 345.295789 
L 235.404288 345.284847 
L 235.888128 345.282874 
L 237.56544 345.592494 
L 238.307328 345.98613 
L 241.145856 347.80708 
L 241.27488 347.990842 
L 241.307136 347.964731 
L 241.661952 348.186438 
L 242.24256 348.589419 
L 244.048896 349.796435 
L 244.081152 349.735854 
L 244.145664 349.816629 
L 244.274688 349.950001 
L 244.50048 349.857486 
L 245.532672 349.327755 
L 247.984128 348.342493 
L 250.854912 347.300407 
L 251.080704 347.228086 
L 252.822528 346.637539 
L 254.016 346.252216 
L 254.048256 347.733678 
L 254.241792 321.203178 
L 254.49984 321.059944 
L 255.370752 320.779111 
L 255.499776 320.580462 
L 255.6288 320.631181 
L 255.757824 320.565434 
L 255.886848 320.471041 
L 255.919104 320.542423 
L 255.983616 320.439576 
L 256.11264 320.443803 
L 256.725504 320.219324 
L 258.564096 319.528044 
L 258.69312 319.418623 
L 258.8544 319.465115 
L 258.983424 319.405004 
L 261.467136 318.462008 
L 262.047744 318.239408 
L 262.789632 317.95341 
L 264.466944 317.12688 
L 265.208832 316.653973 
L 267.821568 314.850164 
L 271.789056 312.0409 
L 276.691968 308.890691 
L 280.917504 306.49704 
L 283.143168 305.191028 
L 284.530176 302.338559 
L 286.820352 296.902713 
L 290.045952 289.21504 
L 292.690944 283.326011 
L 293.69088 281.198634 
L 294.336 279.850826 
L 294.368256 289.426369 
L 294.49728 342.22025 
L 294.81984 342.22396 
L 303.012864 342.46093 
L 304.98048 342.429325 
L 308.8512 342.597543 
L 309.076992 342.873726 
L 309.722112 343.48874 
L 310.464 343.899582 
L 311.496192 344.195841 
L 313.399296 344.384816 
L 316.947456 344.428782 
L 330.30144 344.527914 
L 334.656 344.516831 
L 334.785024 265.64953 
L 334.914048 265.823289 
L 340.042752 268.683272 
L 341.558784 269.462841 
L 342.88128 270.10622 
L 346.364928 271.745192 
L 347.203584 272.106799 
L 354.0096 274.971478 
L 354.299904 275.079491 
L 356.138496 275.769832 
L 356.4288 275.877844 
L 357.622272 276.286413 
L 357.977088 276.394426 
L 359.17056 276.802995 
L 359.428608 276.906311 
L 359.847936 277.037804 
L 360.202752 277.141121 
L 360.62208 277.272614 
L 360.976896 277.375931 
L 361.492992 277.554386 
L 361.847808 277.657702 
L 362.267136 277.789196 
L 362.621952 277.892512 
L 363.04128 278.024006 
L 363.396096 278.127322 
L 363.750912 278.211853 
L 369.137664 279.667674 
L 369.589248 279.77099 
L 369.944064 279.855522 
L 372.427776 280.466027 
L 372.976128 280.569344 
L 373.330944 280.653875 
L 374.846976 280.982609 
L 374.976 281.024875 
L 375.008256 291.168658 
L 375.13728 344.101429 
L 375.169536 344.283956 
L 375.234048 344.183335 
L 375.588864 344.17793 
L 415.296 344.050705 
L 415.425024 285.453387 
L 415.521792 285.819691 
L 415.973376 285.843172 
L 416.199168 285.861956 
L 418.553856 285.969969 
L 418.876416 286.002842 
L 421.26336 286.110855 
L 421.58592 286.143728 
L 424.359936 286.251741 
L 424.682496 286.284614 
L 427.746816 286.392626 
L 428.069376 286.4255 
L 431.520768 286.533512 
L 431.843328 286.566386 
L 435.77856 286.674398 
L 436.10112 286.707272 
L 440.713728 286.815284 
L 441.036288 286.848157 
L 446.616576 286.95617 
L 446.939136 286.989043 
L 453.874176 287.097056 
L 454.196736 287.129929 
L 455.616 287.129929 
L 455.648256 293.441616 
L 455.77728 344.058966 
L 455.906304 344.013745 
L 469.518336 344.013066 
L 495.936 344.013059 
L 496.09728 287.082967 
L 496.161792 287.195676 
L 497.032704 287.176891 
L 536.256 287.176891 
L 536.385024 344.359555 
L 536.546304 344.086424 
L 536.804352 343.981665 
L 537.159168 344.032784 
L 537.449472 344.012924 
L 572.253696 344.013063 
L 576.576 344.013067 
L 576.705024 286.984347 
L 576.769536 287.181587 
L 576.834048 287.214461 
L 576.866304 287.186284 
L 577.027584 287.176891 
L 616.896 287.176891 
L 617.025024 344.359452 
L 617.186304 344.086382 
L 617.444352 343.981699 
L 617.799168 344.032786 
L 618.089472 344.012923 
L 652.893696 344.013063 
L 657.216 344.013067 
L 657.37728 286.932689 
L 657.441792 287.463359 
L 657.53856 286.984347 
L 657.603072 287.158106 
L 658.054656 287.176891 
L 697.536 287.176891 
L 697.665024 344.359644 
L 697.826304 344.086331 
L 698.084352 343.98171 
L 698.439168 344.032799 
L 698.729472 344.012924 
L 733.533696 344.013063 
L 737.856 344.013067 
L 738.01728 286.932689 
L 738.081792 287.463359 
L 738.17856 286.979651 
L 738.243072 287.158106 
L 738.694656 287.176891 
L 778.176 287.176891 
L 778.305024 344.359457 
L 778.466304 344.086378 
L 778.724352 343.9817 
L 779.079168 344.032785 
L 779.369472 344.012923 
L 814.173696 344.013063 
L 818.496 344.013067 
L 818.65728 286.932689 
L 818.721792 287.463359 
L 818.81856 286.979651 
L 818.883072 287.158106 
L 819.334656 287.176891 
L 858.816 287.176891 
L 858.945024 344.359649 
L 859.106304 344.086331 
L 859.364352 343.98171 
L 859.719168 344.032799 
L 860.009472 344.012924 
L 894.813696 344.013063 
L 899.136 344.013067 
L 899.29728 286.932689 
L 899.361792 287.463359 
L 899.45856 286.979651 
L 899.523072 287.158106 
L 899.974656 287.176891 
L 939.456 287.176891 
L 939.488256 295.644132 
L 939.61728 343.957216 
L 939.649536 344.093769 
L 939.714048 343.96312 
L 939.746304 343.921912 
L 939.810816 343.982524 
L 939.972096 344.075736 
L 940.004352 344.04117 
L 940.197888 344.012289 
L 945.165312 344.013076 
L 947.52 344.013056 
L 947.52 344.013056 
" clip-path="url(#p230907401d)" style="fill: none; stroke: #0000ff; stroke-width: 2; stroke-linecap: square"/>
   </g>
   <g id="patch_16">
    <path d="M 100.8 354.165517 
L 100.8 261.434483 
" style="fill: none; stroke: #bcbcbc; stroke-width: 0.8; stroke-linejoin: miter; stroke-linecap: square"/>
   </g>
   <g id="patch_17">
    <path d="M 987.84 354.165517 
L 987.84 261.434483 
" style="fill: none; stroke: #bcbcbc; stroke-width: 0.8; stroke-linejoin: miter; stroke-linecap: square"/>
   </g>
   <g id="patch_18">
    <path d="M 100.8 354.165517 
L 987.84 354.165517 
" style="fill: none; stroke: #bcbcbc; stroke-width: 0.8; stroke-linejoin: miter; stroke-linecap: square"/>
   </g>
   <g id="patch_19">
    <path d="M 100.8 261.434483 
L 987.84 261.434483 
" style="fill: none; stroke: #bcbcbc; stroke-width: 0.8; stroke-linejoin: miter; stroke-linecap: square"/>
   </g>
  </g>
  <g id="axes_4">
   <g id="patch_20">
    <path d="M 100.8 465.442759 
L 987.84 465.442759 
L 987.84 372.711724 
L 100.8 372.711724 
z
" style="fill: #eeeeee"/>
   </g>
   <g id="matplotlib.axis_7">
    <g id="xtick_19">
     <g id="line2d_52">
      <path d="M 141.12 465.442759 
L 141.12 372.711724 
" clip-path="url(#pa6d21c89f1)" style="fill: none; stroke-dasharray: 1.85,0.8; stroke-dashoffset: 0; stroke: #b2b2b2; stroke-width: 0.5"/>
     </g>
     <g id="line2d_53">
      <g>
       <use xlink:href="#mbe3f67ff81" x="141.12" y="465.442759" style="stroke: #000000; stroke-width: 0.8"/>
      </g>
     </g>
    </g>
    <g id="xtick_20">
     <g id="line2d_54">
      <path d="M 302.4 465.442759 
L 302.4 372.711724 
" clip-path="url(#pa6d21c89f1)" style="fill: none; stroke-dasharray: 1.85,0.8; stroke-dashoffset: 0; stroke: #b2b2b2; stroke-width: 0.5"/>
     </g>
     <g id="line2d_55">
      <g>
       <use xlink:href="#mbe3f67ff81" x="302.4" y="465.442759" style="stroke: #000000; stroke-width: 0.8"/>
      </g>
     </g>
    </g>
    <g id="xtick_21">
     <g id="line2d_56">
      <path d="M 463.68 465.442759 
L 463.68 372.711724 
" clip-path="url(#pa6d21c89f1)" style="fill: none; stroke-dasharray: 1.85,0.8; stroke-dashoffset: 0; stroke: #b2b2b2; stroke-width: 0.5"/>
     </g>
     <g id="line2d_57">
      <g>
       <use xlink:href="#mbe3f67ff81" x="463.68" y="465.442759" style="stroke: #000000; stroke-width: 0.8"/>
      </g>
     </g>
    </g>
    <g id="xtick_22">
     <g id="line2d_58">
      <path d="M 624.96 465.442759 
L 624.96 372.711724 
" clip-path="url(#pa6d21c89f1)" style="fill: none; stroke-dasharray: 1.85,0.8; stroke-dashoffset: 0; stroke: #b2b2b2; stroke-width: 0.5"/>
     </g>
     <g id="line2d_59">
      <g>
       <use xlink:href="#mbe3f67ff81" x="624.96" y="465.442759" style="stroke: #000000; stroke-width: 0.8"/>
      </g>
     </g>
    </g>
    <g id="xtick_23">
     <g id="line2d_60">
      <path d="M 786.24 465.442759 
L 786.24 372.711724 
" clip-path="url(#pa6d21c89f1)" style="fill: none; stroke-dasharray: 1.85,0.8; stroke-dashoffset: 0; stroke: #b2b2b2; stroke-width: 0.5"/>
     </g>
     <g id="line2d_61">
      <g>
       <use xlink:href="#mbe3f67ff81" x="786.24" y="465.442759" style="stroke: #000000; stroke-width: 0.8"/>
      </g>
     </g>
    </g>
    <g id="xtick_24">
     <g id="line2d_62">
      <path d="M 947.52 465.442759 
L 947.52 372.711724 
" clip-path="url(#pa6d21c89f1)" style="fill: none; stroke-dasharray: 1.85,0.8; stroke-dashoffset: 0; stroke: #b2b2b2; stroke-width: 0.5"/>
     </g>
     <g id="line2d_63">
      <g>
       <use xlink:href="#mbe3f67ff81" x="947.52" y="465.442759" style="stroke: #000000; stroke-width: 0.8"/>
      </g>
     </g>
    </g>
   </g>
   <g id="matplotlib.axis_8">
    <g id="ytick_7">
     <g id="line2d_64">
      <path d="M 100.8 434.684411 
L 987.84 434.684411 
" clip-path="url(#pa6d21c89f1)" style="fill: none; stroke-dasharray: 1.85,0.8; stroke-dashoffset: 0; stroke: #b2b2b2; stroke-width: 0.5"/>
     </g>
     <g id="line2d_65">
      <g>
       <use xlink:href="#mce7bf15c71" x="100.8" y="434.684411" style="stroke: #000000; stroke-width: 0.8"/>
      </g>
     </g>
     <g id="text_10">
      <!-- 0 V -->
      <g transform="translate(74.36625 440.003317) scale(0.14 -0.14)">
       <use xlink:href="#DejaVuSans-30"/>
       <use xlink:href="#DejaVuSans-20" x="63.623047"/>
       <use xlink:href="#DejaVuSans-56" x="95.410156"/>
      </g>
     </g>
    </g>
    <g id="ytick_8">
     <g id="line2d_66">
      <path d="M 100.8 387.992705 
L 987.84 387.992705 
" clip-path="url(#pa6d21c89f1)" style="fill: none; stroke-dasharray: 1.85,0.8; stroke-dashoffset: 0; stroke: #b2b2b2; stroke-width: 0.5"/>
     </g>
     <g id="line2d_67">
      <g>
       <use xlink:href="#mce7bf15c71" x="100.8" y="387.992705" style="stroke: #000000; stroke-width: 0.8"/>
      </g>
     </g>
     <g id="text_11">
      <!-- 1 V -->
      <g transform="translate(74.36625 393.311612) scale(0.14 -0.14)">
       <use xlink:href="#DejaVuSans-31"/>
       <use xlink:href="#DejaVuSans-20" x="63.623047"/>
       <use xlink:href="#DejaVuSans-56" x="95.410156"/>
      </g>
     </g>
    </g>
    <g id="text_12">
     <g id="patch_21">
      <path d="M 34.8768 454.693023 
L 34.8768 383.46146 
L 11.247425 383.46146 
L 11.247425 454.693023 
z
" style="fill: #ffff00; opacity: 0.2; stroke: #eeeeee; stroke-width: 0.5; stroke-linejoin: miter"/>
     </g>
     <!-- DFF OUT -->
     <g transform="translate(26.925238 449.653023) rotate(-90) scale(0.14 -0.14)">
      <defs>
       <path id="DejaVuSans-4f" d="M 2522 4238 
Q 1834 4238 1429 3725 
Q 1025 3213 1025 2328 
Q 1025 1447 1429 934 
Q 1834 422 2522 422 
Q 3209 422 3611 934 
Q 4013 1447 4013 2328 
Q 4013 3213 3611 3725 
Q 3209 4238 2522 4238 
z
M 2522 4750 
Q 3503 4750 4090 4092 
Q 4678 3434 4678 2328 
Q 4678 1225 4090 567 
Q 3503 -91 2522 -91 
Q 1538 -91 948 565 
Q 359 1222 359 2328 
Q 359 3434 948 4092 
Q 1538 4750 2522 4750 
z
" transform="scale(0.015625)"/>
       <path id="DejaVuSans-54" d="M -19 4666 
L 3928 4666 
L 3928 4134 
L 2272 4134 
L 2272 0 
L 1638 0 
L 1638 4134 
L -19 4134 
L -19 4666 
z
" transform="scale(0.015625)"/>
      </defs>
      <use xlink:href="#DejaVuSans-44"/>
      <use xlink:href="#DejaVuSans-46" x="77.001953"/>
      <use xlink:href="#DejaVuSans-46" x="134.521484"/>
      <use xlink:href="#DejaVuSans-20" x="192.041016"/>
      <use xlink:href="#DejaVuSans-4f" x="223.828125"/>
      <use xlink:href="#DejaVuSans-55" x="302.539062"/>
      <use xlink:href="#DejaVuSans-54" x="375.732422"/>
     </g>
    </g>
   </g>
   <g id="line2d_68">
    <path d="M 141.12 399.454118 
L 173.408256 399.511082 
L 173.440512 401.444119 
L 173.601792 434.687261 
L 174.02112 434.68144 
L 182.214144 434.68314 
L 218.598912 434.769651 
L 219.276288 435.475368 
L 220.050432 435.915998 
L 221.018112 436.184242 
L 222.501888 436.31834 
L 225.30816 436.290092 
L 228.501504 436.094454 
L 229.824 435.608626 
L 230.30784 434.90149 
L 230.501376 434.33737 
L 230.759424 432.845365 
L 230.985216 429.994229 
L 231.307776 421.834854 
L 231.469056 420.21185 
L 231.630336 420.478459 
L 232.017408 422.130879 
L 233.952768 431.087329 
L 233.985024 430.235859 
L 234.049536 430.45587 
L 234.243072 432.37616 
L 234.6624 434.293681 
L 234.726912 433.820381 
L 234.759168 434.10562 
L 234.920448 435.531679 
L 235.243008 436.977907 
L 235.275264 436.507815 
L 235.339776 436.803981 
L 235.372032 436.788573 
L 236.178432 440.601651 
L 236.210688 440.70017 
L 236.242944 440.261735 
L 236.307456 440.411615 
L 236.371968 440.607254 
L 236.500992 441.536886 
L 236.533248 441.076505 
L 236.59776 441.584978 
L 236.662272 441.677428 
L 236.823552 442.551963 
L 237.339648 443.774819 
L 237.371904 443.646884 
L 237.40416 443.623538 
L 237.436416 443.678167 
L 237.500928 443.784157 
L 237.629952 444.054035 
L 237.888 444.653557 
L 237.920256 445.199383 
L 238.017024 445.038297 
L 238.04928 445.133081 
L 238.21056 446.004815 
L 238.791168 447.628285 
L 238.823424 447.436849 
L 238.887936 447.571322 
L 239.242752 448.827795 
L 239.275008 448.647098 
L 239.307264 448.913241 
L 239.5008 449.574863 
L 239.791104 450.324265 
L 239.82336 450.332202 
L 240.016896 450.923786 
L 240.049152 450.870557 
L 240.113664 450.952735 
L 240.274944 451.345879 
L 241.629696 454.987365 
L 241.661952 454.870169 
L 241.694208 454.970089 
L 241.855488 455.636847 
L 243.984384 460.651536 
L 244.081152 459.83303 
L 244.210176 461.000323 
L 244.371456 461.227712 
L 244.629504 461.146935 
L 244.790784 460.718772 
L 245.016576 460.329363 
L 245.113344 459.669142 
L 245.1456 459.274598 
L 245.177856 459.37265 
L 245.210112 459.945557 
L 245.274624 459.629455 
L 245.371392 459.420276 
L 245.919744 458.131585 
L 245.952 458.147927 
L 245.984256 458.230571 
L 246.11328 457.80661 
L 246.145536 457.891589 
L 246.177792 457.802408 
L 246.339072 457.370043 
L 246.371328 457.448018 
L 246.403584 457.318215 
L 247.113216 455.969292 
L 247.145472 455.996373 
L 247.339008 455.576614 
L 247.790592 454.896783 
L 247.822848 455.103628 
L 247.855104 454.805268 
L 247.88736 454.814139 
L 248.113152 454.59282 
L 248.242176 454.315472 
L 248.274432 454.379439 
L 248.306688 454.309869 
L 248.69376 453.897581 
L 248.984064 453.314401 
L 249.33888 452.74663 
L 249.371136 452.919856 
L 249.403392 452.603287 
L 249.435648 452.597684 
L 249.467904 452.860091 
L 249.532416 452.490293 
L 250.30656 451.485487 
L 250.338816 451.720347 
L 250.371072 451.421987 
L 250.403328 451.500429 
L 250.564608 451.214208 
L 250.596864 451.337941 
L 250.661376 451.183392 
L 250.725888 451.200668 
L 250.854912 450.985419 
L 251.564544 450.007228 
L 251.822592 449.590738 
L 251.887104 449.79945 
L 252.016128 449.322261 
L 253.112832 448.033103 
L 253.145088 448.287572 
L 253.2096 448.042908 
L 253.241856 448.109677 
L 253.274112 447.948124 
L 253.338624 447.902366 
L 253.499904 447.753886 
L 253.822464 447.519961 
L 254.306304 446.888222 
L 254.467584 446.379282 
L 254.564352 446.201854 
L 254.596608 446.527295 
L 254.66112 446.060845 
L 254.693376 446.370411 
L 254.757888 445.940847 
L 254.790144 446.30084 
L 254.919168 445.74661 
L 254.951424 445.73447 
L 254.98368 445.877813 
L 255.015936 445.677506 
L 255.048192 445.582722 
L 255.080448 445.978668 
L 255.177216 445.830188 
L 255.30624 445.259148 
L 255.338496 445.254946 
L 255.370752 445.646223 
L 255.403008 445.125143 
L 255.46752 445.513151 
L 255.596544 444.961722 
L 255.661056 445.222729 
L 255.79008 444.782426 
L 255.822336 445.089657 
L 255.886848 444.692311 
L 255.95136 444.882346 
L 255.983616 444.632079 
L 256.177152 444.555504 
L 256.59648 444.292163 
L 257.273856 443.325645 
L 257.306112 443.418561 
L 257.40288 442.883007 
L 257.435136 442.911022 
L 257.56416 442.65235 
L 257.596416 443.010009 
L 257.628672 442.578111 
L 257.789952 442.382939 
L 257.951232 442.183566 
L 257.983488 442.656553 
L 258.080256 442.55243 
L 258.112512 441.953842 
L 258.20928 442.1224 
L 258.273792 442.200842 
L 258.306048 441.785285 
L 258.37056 442.121466 
L 258.435072 441.961313 
L 258.596352 441.501867 
L 258.660864 441.879603 
L 258.69312 441.474786 
L 258.725376 441.487392 
L 258.757632 441.840382 
L 258.789888 441.405682 
L 258.822144 441.417822 
L 258.886656 441.374398 
L 258.951168 441.656883 
L 259.080192 441.275879 
L 259.144704 441.354321 
L 259.305984 441.281015 
L 259.693056 440.907481 
L 260.370432 440.178624 
L 260.725248 439.739255 
L 260.854272 439.03958 
L 260.918784 438.973651 
L 260.95104 439.264867 
L 260.983296 439.1642 
L 261.015552 438.768488 
L 261.047808 439.162612 
L 261.080064 439.352601 
L 261.11232 438.958243 
L 261.176832 439.154068 
L 261.2736 438.55478 
L 261.402624 438.4063 
L 261.43488 438.842541 
L 261.499392 438.403872 
L 261.531648 438.380153 
L 261.563904 438.582888 
L 261.59616 438.43142 
L 261.628416 438.228498 
L 261.725184 438.257634 
L 261.75744 438.590826 
L 261.821952 438.490579 
L 262.015488 438.003257 
L 262.112256 438.187176 
L 262.273536 437.972161 
L 262.40256 437.91417 
L 264.01536 435.906146 
L 264.434688 434.951623 
L 264.466944 435.038241 
L 264.531456 434.732531 
L 264.595968 434.770767 
L 265.531392 432.866983 
L 265.660416 431.810536 
L 265.886208 431.570588 
L 265.918464 431.635349 
L 265.982976 431.741666 
L 266.015232 431.650197 
L 266.853888 429.95921 
L 266.9184 429.831275 
L 267.047424 429.26864 
L 267.07968 429.510503 
L 267.144192 428.669118 
L 267.176448 429.282647 
L 267.499008 428.453403 
L 267.628032 428.21901 
L 268.595712 426.189322 
L 268.660224 425.257356 
L 268.724736 425.368949 
L 268.756992 425.410037 
L 268.789248 425.759758 
L 268.85376 425.639761 
L 269.144064 424.850204 
L 269.918208 423.236539 
L 269.950464 423.330389 
L 269.98272 423.218796 
L 270.176256 422.885884 
L 270.434304 422.401691 
L 270.660096 421.966057 
L 270.821376 421.256343 
L 271.079424 420.72826 
L 271.11168 420.985064 
L 271.143936 420.637678 
L 272.143872 419.115062 
L 272.498688 418.238191 
L 272.595456 417.332839 
L 272.627712 417.535481 
L 272.692224 417.625596 
L 273.176064 416.100178 
L 274.401792 412.103835 
L 274.434048 412.422273 
L 274.530816 412.276128 
L 274.563072 412.43021 
L 274.627584 412.320485 
L 275.046912 411.27926 
L 275.917824 409.587152 
L 275.982336 408.852225 
L 276.014592 408.896582 
L 276.046848 409.206148 
L 276.143616 409.155721 
L 276.337152 408.809735 
L 277.369344 406.814132 
L 277.4016 406.899111 
L 277.72416 407.795125 
L 277.788672 408.996502 
L 277.917696 419.157551 
L 278.111232 433.876971 
L 278.337024 433.975724 
L 280.94976 434.152032 
L 283.078656 434.1546 
L 283.756032 433.446614 
L 284.530176 433.011681 
L 285.530112 432.744137 
L 286.949376 432.63105 
L 289.626624 432.683531 
L 303.787008 433.126729 
L 306.722304 433.181498 
L 308.915712 433.368919 
L 309.560832 434.066399 
L 310.30272 434.529133 
L 311.205888 434.831831 
L 312.528384 435.026213 
L 314.915328 435.115567 
L 322.07616 435.092142 
L 328.237056 435.054494 
L 329.882112 435.202082 
L 332.785152 435.222066 
L 334.688256 435.217163 
L 334.720512 435.365083 
L 334.752768 435.091731 
L 334.785024 435.152168 
L 334.946304 435.198673 
L 371.782656 434.882967 
L 415.328256 434.725147 
L 415.360512 435.023351 
L 415.392768 434.477296 
L 415.554048 429.809797 
L 416.1024 426.499822 
L 416.26368 422.83499 
L 416.42496 413.862712 
L 416.618496 390.753586 
L 416.779776 377.239606 
L 416.973312 376.93144 
L 419.424768 377.034162 
L 419.747328 377.066846 
L 422.327808 377.174237 
L 422.682624 377.211591 
L 423.295488 377.220929 
L 423.650304 377.258282 
L 424.359936 377.267621 
L 424.682496 377.300305 
L 427.746816 377.407696 
L 428.069376 377.44038 
L 431.520768 377.547771 
L 431.843328 377.580455 
L 435.77856 377.687846 
L 436.10112 377.72053 
L 440.713728 377.827921 
L 441.036288 377.860605 
L 446.616576 377.967996 
L 446.939136 378.00068 
L 453.874176 378.108071 
L 454.196736 378.140756 
L 495.968256 378.206124 
L 496.000512 378.364876 
L 496.065024 378.150094 
L 496.323072 378.178109 
L 576.608256 378.182778 
L 576.640512 378.416237 
L 576.705024 378.164101 
L 576.995328 378.178109 
L 657.248256 378.182778 
L 657.280512 378.420906 
L 657.345024 378.182778 
L 657.53856 378.159432 
L 658.473984 378.182778 
L 737.888256 378.182778 
L 737.920512 378.420906 
L 737.985024 378.182778 
L 738.17856 378.159432 
L 739.113984 378.182778 
L 818.528256 378.182778 
L 818.560512 378.420906 
L 818.625024 378.182778 
L 818.81856 378.159432 
L 819.753984 378.182778 
L 899.168256 378.182778 
L 899.200512 378.420906 
L 899.265024 378.182778 
L 899.45856 378.159432 
L 900.393984 378.182778 
L 947.52 378.187447 
L 947.52 378.187447 
" clip-path="url(#pa6d21c89f1)" style="fill: none; stroke: #ff00ff; stroke-width: 2; stroke-linecap: square"/>
   </g>
   <g id="patch_22">
    <path d="M 100.8 465.442759 
L 100.8 372.711724 
" style="fill: none; stroke: #bcbcbc; stroke-width: 0.8; stroke-linejoin: miter; stroke-linecap: square"/>
   </g>
   <g id="patch_23">
    <path d="M 987.84 465.442759 
L 987.84 372.711724 
" style="fill: none; stroke: #bcbcbc; stroke-width: 0.8; stroke-linejoin: miter; stroke-linecap: square"/>
   </g>
   <g id="patch_24">
    <path d="M 100.8 465.442759 
L 987.84 465.442759 
" style="fill: none; stroke: #bcbcbc; stroke-width: 0.8; stroke-linejoin: miter; stroke-linecap: square"/>
   </g>
   <g id="patch_25">
    <path d="M 100.8 372.711724 
L 987.84 372.711724 
" style="fill: none; stroke: #bcbcbc; stroke-width: 0.8; stroke-linejoin: miter; stroke-linecap: square"/>
   </g>
  </g>
  <g id="axes_5">
   <g id="patch_26">
    <path d="M 100.8 576.72 
L 987.84 576.72 
L 987.84 483.988966 
L 100.8 483.988966 
z
" style="fill: #eeeeee"/>
   </g>
   <g id="matplotlib.axis_9">
    <g id="xtick_25">
     <g id="line2d_69">
      <path d="M 141.12 576.72 
L 141.12 483.988966 
" clip-path="url(#p05ebe32fdf)" style="fill: none; stroke-dasharray: 1.85,0.8; stroke-dashoffset: 0; stroke: #b2b2b2; stroke-width: 0.5"/>
     </g>
     <g id="line2d_70">
      <g>
       <use xlink:href="#mbe3f67ff81" x="141.12" y="576.72" style="stroke: #000000; stroke-width: 0.8"/>
      </g>
     </g>
     <g id="text_13">
      <!-- 0 s -->
      <g transform="translate(130.795 590.857813) scale(0.14 -0.14)">
       <defs>
        <path id="DejaVuSans-73" d="M 2834 3397 
L 2834 2853 
Q 2591 2978 2328 3040 
Q 2066 3103 1784 3103 
Q 1356 3103 1142 2972 
Q 928 2841 928 2578 
Q 928 2378 1081 2264 
Q 1234 2150 1697 2047 
L 1894 2003 
Q 2506 1872 2764 1633 
Q 3022 1394 3022 966 
Q 3022 478 2636 193 
Q 2250 -91 1575 -91 
Q 1294 -91 989 -36 
Q 684 19 347 128 
L 347 722 
Q 666 556 975 473 
Q 1284 391 1588 391 
Q 1994 391 2212 530 
Q 2431 669 2431 922 
Q 2431 1156 2273 1281 
Q 2116 1406 1581 1522 
L 1381 1569 
Q 847 1681 609 1914 
Q 372 2147 372 2553 
Q 372 3047 722 3315 
Q 1072 3584 1716 3584 
Q 2034 3584 2315 3537 
Q 2597 3491 2834 3397 
z
" transform="scale(0.015625)"/>
       </defs>
       <use xlink:href="#DejaVuSans-30"/>
       <use xlink:href="#DejaVuSans-20" x="63.623047"/>
       <use xlink:href="#DejaVuSans-73" x="95.410156"/>
      </g>
     </g>
    </g>
    <g id="xtick_26">
     <g id="line2d_71">
      <path d="M 302.4 576.72 
L 302.4 483.988966 
" clip-path="url(#p05ebe32fdf)" style="fill: none; stroke-dasharray: 1.85,0.8; stroke-dashoffset: 0; stroke: #b2b2b2; stroke-width: 0.5"/>
     </g>
     <g id="line2d_72">
      <g>
       <use xlink:href="#mbe3f67ff81" x="302.4" y="576.72" style="stroke: #000000; stroke-width: 0.8"/>
      </g>
     </g>
     <g id="text_14">
      <!-- 50 ns -->
      <g transform="translate(283.185 590.857813) scale(0.14 -0.14)">
       <defs>
        <path id="DejaVuSans-35" d="M 691 4666 
L 3169 4666 
L 3169 4134 
L 1269 4134 
L 1269 2991 
Q 1406 3038 1543 3061 
Q 1681 3084 1819 3084 
Q 2600 3084 3056 2656 
Q 3513 2228 3513 1497 
Q 3513 744 3044 326 
Q 2575 -91 1722 -91 
Q 1428 -91 1123 -41 
Q 819 9 494 109 
L 494 744 
Q 775 591 1075 516 
Q 1375 441 1709 441 
Q 2250 441 2565 725 
Q 2881 1009 2881 1497 
Q 2881 1984 2565 2268 
Q 2250 2553 1709 2553 
Q 1456 2553 1204 2497 
Q 953 2441 691 2322 
L 691 4666 
z
" transform="scale(0.015625)"/>
        <path id="DejaVuSans-6e" d="M 3513 2113 
L 3513 0 
L 2938 0 
L 2938 2094 
Q 2938 2591 2744 2837 
Q 2550 3084 2163 3084 
Q 1697 3084 1428 2787 
Q 1159 2491 1159 1978 
L 1159 0 
L 581 0 
L 581 3500 
L 1159 3500 
L 1159 2956 
Q 1366 3272 1645 3428 
Q 1925 3584 2291 3584 
Q 2894 3584 3203 3211 
Q 3513 2838 3513 2113 
z
" transform="scale(0.015625)"/>
       </defs>
       <use xlink:href="#DejaVuSans-35"/>
       <use xlink:href="#DejaVuSans-30" x="63.623047"/>
       <use xlink:href="#DejaVuSans-20" x="127.246094"/>
       <use xlink:href="#DejaVuSans-6e" x="159.033203"/>
       <use xlink:href="#DejaVuSans-73" x="222.412109"/>
      </g>
     </g>
    </g>
    <g id="xtick_27">
     <g id="line2d_73">
      <path d="M 463.68 576.72 
L 463.68 483.988966 
" clip-path="url(#p05ebe32fdf)" style="fill: none; stroke-dasharray: 1.85,0.8; stroke-dashoffset: 0; stroke: #b2b2b2; stroke-width: 0.5"/>
     </g>
     <g id="line2d_74">
      <g>
       <use xlink:href="#mbe3f67ff81" x="463.68" y="576.72" style="stroke: #000000; stroke-width: 0.8"/>
      </g>
     </g>
     <g id="text_15">
      <!-- 100 ns -->
      <g transform="translate(440.01125 590.857813) scale(0.14 -0.14)">
       <use xlink:href="#DejaVuSans-31"/>
       <use xlink:href="#DejaVuSans-30" x="63.623047"/>
       <use xlink:href="#DejaVuSans-30" x="127.246094"/>
       <use xlink:href="#DejaVuSans-20" x="190.869141"/>
       <use xlink:href="#DejaVuSans-6e" x="222.65625"/>
       <use xlink:href="#DejaVuSans-73" x="286.035156"/>
      </g>
     </g>
    </g>
    <g id="xtick_28">
     <g id="line2d_75">
      <path d="M 624.96 576.72 
L 624.96 483.988966 
" clip-path="url(#p05ebe32fdf)" style="fill: none; stroke-dasharray: 1.85,0.8; stroke-dashoffset: 0; stroke: #b2b2b2; stroke-width: 0.5"/>
     </g>
     <g id="line2d_76">
      <g>
       <use xlink:href="#mbe3f67ff81" x="624.96" y="576.72" style="stroke: #000000; stroke-width: 0.8"/>
      </g>
     </g>
     <g id="text_16">
      <!-- 150 ns -->
      <g transform="translate(601.29125 590.857813) scale(0.14 -0.14)">
       <use xlink:href="#DejaVuSans-31"/>
       <use xlink:href="#DejaVuSans-35" x="63.623047"/>
       <use xlink:href="#DejaVuSans-30" x="127.246094"/>
       <use xlink:href="#DejaVuSans-20" x="190.869141"/>
       <use xlink:href="#DejaVuSans-6e" x="222.65625"/>
       <use xlink:href="#DejaVuSans-73" x="286.035156"/>
      </g>
     </g>
    </g>
    <g id="xtick_29">
     <g id="line2d_77">
      <path d="M 786.24 576.72 
L 786.24 483.988966 
" clip-path="url(#p05ebe32fdf)" style="fill: none; stroke-dasharray: 1.85,0.8; stroke-dashoffset: 0; stroke: #b2b2b2; stroke-width: 0.5"/>
     </g>
     <g id="line2d_78">
      <g>
       <use xlink:href="#mbe3f67ff81" x="786.24" y="576.72" style="stroke: #000000; stroke-width: 0.8"/>
      </g>
     </g>
     <g id="text_17">
      <!-- 200 ns -->
      <g transform="translate(762.57125 590.857813) scale(0.14 -0.14)">
       <use xlink:href="#DejaVuSans-32"/>
       <use xlink:href="#DejaVuSans-30" x="63.623047"/>
       <use xlink:href="#DejaVuSans-30" x="127.246094"/>
       <use xlink:href="#DejaVuSans-20" x="190.869141"/>
       <use xlink:href="#DejaVuSans-6e" x="222.65625"/>
       <use xlink:href="#DejaVuSans-73" x="286.035156"/>
      </g>
     </g>
    </g>
    <g id="xtick_30">
     <g id="line2d_79">
      <path d="M 947.52 576.72 
L 947.52 483.988966 
" clip-path="url(#p05ebe32fdf)" style="fill: none; stroke-dasharray: 1.85,0.8; stroke-dashoffset: 0; stroke: #b2b2b2; stroke-width: 0.5"/>
     </g>
     <g id="line2d_80">
      <g>
       <use xlink:href="#mbe3f67ff81" x="947.52" y="576.72" style="stroke: #000000; stroke-width: 0.8"/>
      </g>
     </g>
     <g id="text_18">
      <!-- 250 ns -->
      <g transform="translate(923.85125 590.857813) scale(0.14 -0.14)">
       <use xlink:href="#DejaVuSans-32"/>
       <use xlink:href="#DejaVuSans-35" x="63.623047"/>
       <use xlink:href="#DejaVuSans-30" x="127.246094"/>
       <use xlink:href="#DejaVuSans-20" x="190.869141"/>
       <use xlink:href="#DejaVuSans-6e" x="222.65625"/>
       <use xlink:href="#DejaVuSans-73" x="286.035156"/>
      </g>
     </g>
    </g>
    <g id="text_19">
     <!-- Time -->
     <g transform="translate(527.192969 608.407187) scale(0.14 -0.14)">
      <defs>
       <path id="DejaVuSans-69" d="M 603 3500 
L 1178 3500 
L 1178 0 
L 603 0 
L 603 3500 
z
M 603 4863 
L 1178 4863 
L 1178 4134 
L 603 4134 
L 603 4863 
z
" transform="scale(0.015625)"/>
       <path id="DejaVuSans-6d" d="M 3328 2828 
Q 3544 3216 3844 3400 
Q 4144 3584 4550 3584 
Q 5097 3584 5394 3201 
Q 5691 2819 5691 2113 
L 5691 0 
L 5113 0 
L 5113 2094 
Q 5113 2597 4934 2840 
Q 4756 3084 4391 3084 
Q 3944 3084 3684 2787 
Q 3425 2491 3425 1978 
L 3425 0 
L 2847 0 
L 2847 2094 
Q 2847 2600 2669 2842 
Q 2491 3084 2119 3084 
Q 1678 3084 1418 2786 
Q 1159 2488 1159 1978 
L 1159 0 
L 581 0 
L 581 3500 
L 1159 3500 
L 1159 2956 
Q 1356 3278 1631 3431 
Q 1906 3584 2284 3584 
Q 2666 3584 2933 3390 
Q 3200 3197 3328 2828 
z
" transform="scale(0.015625)"/>
       <path id="DejaVuSans-65" d="M 3597 1894 
L 3597 1613 
L 953 1613 
Q 991 1019 1311 708 
Q 1631 397 2203 397 
Q 2534 397 2845 478 
Q 3156 559 3463 722 
L 3463 178 
Q 3153 47 2828 -22 
Q 2503 -91 2169 -91 
Q 1331 -91 842 396 
Q 353 884 353 1716 
Q 353 2575 817 3079 
Q 1281 3584 2069 3584 
Q 2775 3584 3186 3129 
Q 3597 2675 3597 1894 
z
M 3022 2063 
Q 3016 2534 2758 2815 
Q 2500 3097 2075 3097 
Q 1594 3097 1305 2825 
Q 1016 2553 972 2059 
L 3022 2063 
z
" transform="scale(0.015625)"/>
      </defs>
      <use xlink:href="#DejaVuSans-54"/>
      <use xlink:href="#DejaVuSans-69" x="57.958984"/>
      <use xlink:href="#DejaVuSans-6d" x="85.742188"/>
      <use xlink:href="#DejaVuSans-65" x="183.154297"/>
     </g>
    </g>
   </g>
   <g id="matplotlib.axis_10">
    <g id="ytick_9">
     <g id="line2d_81">
      <path d="M 100.8 569.737898 
L 987.84 569.737898 
" clip-path="url(#p05ebe32fdf)" style="fill: none; stroke-dasharray: 1.85,0.8; stroke-dashoffset: 0; stroke: #b2b2b2; stroke-width: 0.5"/>
     </g>
     <g id="line2d_82">
      <g>
       <use xlink:href="#mce7bf15c71" x="100.8" y="569.737898" style="stroke: #000000; stroke-width: 0.8"/>
      </g>
     </g>
     <g id="text_20">
      <!-- 0 V -->
      <g transform="translate(74.36625 575.056805) scale(0.14 -0.14)">
       <use xlink:href="#DejaVuSans-30"/>
       <use xlink:href="#DejaVuSans-20" x="63.623047"/>
       <use xlink:href="#DejaVuSans-56" x="95.410156"/>
      </g>
     </g>
    </g>
    <g id="ytick_10">
     <g id="line2d_83">
      <path d="M 100.8 535.84453 
L 987.84 535.84453 
" clip-path="url(#p05ebe32fdf)" style="fill: none; stroke-dasharray: 1.85,0.8; stroke-dashoffset: 0; stroke: #b2b2b2; stroke-width: 0.5"/>
     </g>
     <g id="line2d_84">
      <g>
       <use xlink:href="#mce7bf15c71" x="100.8" y="535.84453" style="stroke: #000000; stroke-width: 0.8"/>
      </g>
     </g>
     <g id="text_21">
      <!-- 500 mV -->
      <g transform="translate(42.914375 541.163437) scale(0.14 -0.14)">
       <use xlink:href="#DejaVuSans-35"/>
       <use xlink:href="#DejaVuSans-30" x="63.623047"/>
       <use xlink:href="#DejaVuSans-30" x="127.246094"/>
       <use xlink:href="#DejaVuSans-20" x="190.869141"/>
       <use xlink:href="#DejaVuSans-6d" x="222.65625"/>
       <use xlink:href="#DejaVuSans-56" x="320.068359"/>
      </g>
     </g>
    </g>
    <g id="ytick_11">
     <g id="line2d_85">
      <path d="M 100.8 501.951163 
L 987.84 501.951163 
" clip-path="url(#p05ebe32fdf)" style="fill: none; stroke-dasharray: 1.85,0.8; stroke-dashoffset: 0; stroke: #b2b2b2; stroke-width: 0.5"/>
     </g>
     <g id="line2d_86">
      <g>
       <use xlink:href="#mce7bf15c71" x="100.8" y="501.951163" style="stroke: #000000; stroke-width: 0.8"/>
      </g>
     </g>
     <g id="text_22">
      <!-- 1 V -->
      <g transform="translate(74.36625 507.270069) scale(0.14 -0.14)">
       <use xlink:href="#DejaVuSans-31"/>
       <use xlink:href="#DejaVuSans-20" x="63.623047"/>
       <use xlink:href="#DejaVuSans-56" x="95.410156"/>
      </g>
     </g>
    </g>
    <g id="text_23">
     <g id="patch_27">
      <path d="M 34.8768 554.329483 
L 34.8768 506.379483 
L 11.247425 506.379483 
L 11.247425 554.329483 
z
" style="fill: #ffff00; opacity: 0.2; stroke: #eeeeee; stroke-width: 0.5; stroke-linejoin: miter"/>
     </g>
     <!-- FOUT -->
     <g transform="translate(26.925238 549.289483) rotate(-90) scale(0.14 -0.14)">
      <use xlink:href="#DejaVuSans-46"/>
      <use xlink:href="#DejaVuSans-4f" x="57.519531"/>
      <use xlink:href="#DejaVuSans-55" x="136.230469"/>
      <use xlink:href="#DejaVuSans-54" x="209.423828"/>
     </g>
    </g>
   </g>
   <g id="line2d_87">
    <path d="M 141.12 488.393815 
L 173.472768 488.400594 
L 173.505024 488.204013 
L 173.569536 526.657394 
L 173.69856 572.504953 
L 173.730816 572.369108 
L 173.827584 567.828617 
L 173.892096 569.351799 
L 174.053376 570.057126 
L 174.117888 569.939259 
L 174.408192 569.483332 
L 174.440448 569.532932 
L 174.66624 569.721921 
L 176.182272 569.732147 
L 180.085248 569.753796 
L 193.05216 569.74874 
L 217.24416 569.736213 
L 276.498432 569.818944 
L 276.530688 569.493371 
L 276.5952 560.080322 
L 276.820992 488.603954 
L 276.982272 488.400594 
L 277.530624 488.393815 
L 277.788672 488.400594 
L 277.853184 490.935818 
L 278.014464 569.771447 
L 278.143488 569.736122 
L 308.8512 569.736215 
L 416.521728 569.717986 
L 416.618496 537.072148 
L 416.779776 488.719192 
L 416.941056 488.393815 
L 947.52 488.393815 
L 947.52 488.393815 
" clip-path="url(#p05ebe32fdf)" style="fill: none; stroke: #ff00ff; stroke-width: 2; stroke-linecap: square"/>
   </g>
   <g id="patch_28">
    <path d="M 100.8 576.72 
L 100.8 483.988966 
" style="fill: none; stroke: #bcbcbc; stroke-width: 0.8; stroke-linejoin: miter; stroke-linecap: square"/>
   </g>
   <g id="patch_29">
    <path d="M 987.84 576.72 
L 987.84 483.988966 
" style="fill: none; stroke: #bcbcbc; stroke-width: 0.8; stroke-linejoin: miter; stroke-linecap: square"/>
   </g>
   <g id="patch_30">
    <path d="M 100.8 576.72 
L 987.84 576.72 
" style="fill: none; stroke: #bcbcbc; stroke-width: 0.8; stroke-linejoin: miter; stroke-linecap: square"/>
   </g>
   <g id="patch_31">
    <path d="M 100.8 483.988966 
L 987.84 483.988966 
" style="fill: none; stroke: #bcbcbc; stroke-width: 0.8; stroke-linejoin: miter; stroke-linecap: square"/>
   </g>
  </g>
  <g id="axes_6">
   <g id="patch_32">
    <path d="M 201.6 628.56 
L 856.8 628.56 
L 856.8 615.6 
L 201.6 615.6 
z
" clip-path="url(#peff8bb6062)" style="fill: #d3d3d3"/>
   </g>
   <g id="patch_33">
    <path d="M 201.6 628.56 
L 239.04 628.56 
L 239.04 615.6 
L 201.6 615.6 
z
" clip-path="url(#peff8bb6062)" style="fill: #0000ff"/>
   </g>
   <g id="line2d_88">
    <path d="M 201.6 635.04 
L 201.6 609.12 
" clip-path="url(#p01d575b0e5)" style="fill: none; stroke: #ff0000; stroke-linecap: square"/>
   </g>
   <g id="line2d_89">
    <defs>
     <path id="mc4375e9a38" d="M 0 5 
C 1.326016 5 2.597899 4.473168 3.535534 3.535534 
C 4.473168 2.597899 5 1.326016 5 0 
C 5 -1.326016 4.473168 -2.597899 3.535534 -3.535534 
C 2.597899 -4.473168 1.326016 -5 0 -5 
C -1.326016 -5 -2.597899 -4.473168 -3.535534 -3.535534 
C -4.473168 -2.597899 -5 -1.326016 -5 0 
C -5 1.326016 -4.473168 2.597899 -3.535534 3.535534 
C -2.597899 4.473168 -1.326016 5 0 5 
z
" style="stroke: #bfbfbf"/>
    </defs>
    <g>
     <use xlink:href="#mc4375e9a38" x="239.04" y="622.08" style="fill: #ffffff; stroke: #bfbfbf"/>
    </g>
   </g>
   <g id="text_24">
    <!-- #Sweep -->
    <g transform="translate(138.622875 625.39125) scale(0.12 -0.12)">
     <defs>
      <path id="DejaVuSans-23" d="M 3272 2816 
L 2363 2816 
L 2100 1772 
L 3016 1772 
L 3272 2816 
z
M 2803 4594 
L 2478 3297 
L 3391 3297 
L 3719 4594 
L 4219 4594 
L 3897 3297 
L 4872 3297 
L 4872 2816 
L 3775 2816 
L 3519 1772 
L 4513 1772 
L 4513 1294 
L 3397 1294 
L 3072 0 
L 2572 0 
L 2894 1294 
L 1978 1294 
L 1656 0 
L 1153 0 
L 1478 1294 
L 494 1294 
L 494 1772 
L 1594 1772 
L 1856 2816 
L 850 2816 
L 850 3297 
L 1978 3297 
L 2297 4594 
L 2803 4594 
z
" transform="scale(0.015625)"/>
      <path id="DejaVuSans-77" d="M 269 3500 
L 844 3500 
L 1563 769 
L 2278 3500 
L 2956 3500 
L 3675 769 
L 4391 3500 
L 4966 3500 
L 4050 0 
L 3372 0 
L 2619 2869 
L 1863 0 
L 1184 0 
L 269 3500 
z
" transform="scale(0.015625)"/>
      <path id="DejaVuSans-70" d="M 1159 525 
L 1159 -1331 
L 581 -1331 
L 581 3500 
L 1159 3500 
L 1159 2969 
Q 1341 3281 1617 3432 
Q 1894 3584 2278 3584 
Q 2916 3584 3314 3078 
Q 3713 2572 3713 1747 
Q 3713 922 3314 415 
Q 2916 -91 2278 -91 
Q 1894 -91 1617 61 
Q 1341 213 1159 525 
z
M 3116 1747 
Q 3116 2381 2855 2742 
Q 2594 3103 2138 3103 
Q 1681 3103 1420 2742 
Q 1159 2381 1159 1747 
Q 1159 1113 1420 752 
Q 1681 391 2138 391 
Q 2594 391 2855 752 
Q 3116 1113 3116 1747 
z
" transform="scale(0.015625)"/>
     </defs>
     <use xlink:href="#DejaVuSans-23"/>
     <use xlink:href="#DejaVuSans-53" x="83.789062"/>
     <use xlink:href="#DejaVuSans-77" x="147.265625"/>
     <use xlink:href="#DejaVuSans-65" x="229.052734"/>
     <use xlink:href="#DejaVuSans-65" x="290.576172"/>
     <use xlink:href="#DejaVuSans-70" x="352.099609"/>
    </g>
   </g>
   <g id="text_25">
    <!-- $\mathdefault{8}$ -->
    <g transform="translate(869.904 625.39125) scale(0.12 -0.12)">
     <defs>
      <path id="DejaVuSans-38" d="M 2034 2216 
Q 1584 2216 1326 1975 
Q 1069 1734 1069 1313 
Q 1069 891 1326 650 
Q 1584 409 2034 409 
Q 2484 409 2743 651 
Q 3003 894 3003 1313 
Q 3003 1734 2745 1975 
Q 2488 2216 2034 2216 
z
M 1403 2484 
Q 997 2584 770 2862 
Q 544 3141 544 3541 
Q 544 4100 942 4425 
Q 1341 4750 2034 4750 
Q 2731 4750 3128 4425 
Q 3525 4100 3525 3541 
Q 3525 3141 3298 2862 
Q 3072 2584 2669 2484 
Q 3125 2378 3379 2068 
Q 3634 1759 3634 1313 
Q 3634 634 3220 271 
Q 2806 -91 2034 -91 
Q 1263 -91 848 271 
Q 434 634 434 1313 
Q 434 1759 690 2068 
Q 947 2378 1403 2484 
z
M 1172 3481 
Q 1172 3119 1398 2916 
Q 1625 2713 2034 2713 
Q 2441 2713 2670 2916 
Q 2900 3119 2900 3481 
Q 2900 3844 2670 4047 
Q 2441 4250 2034 4250 
Q 1625 4250 1398 4047 
Q 1172 3844 1172 3481 
z
" transform="scale(0.015625)"/>
     </defs>
     <use xlink:href="#DejaVuSans-38" transform="translate(0 0.78125)"/>
    </g>
   </g>
  </g>
  <g id="text_26">
   <!-- DFF under BBI sweep analysis (Sweep = 18E-9) -->
   <g transform="translate(313.34625 25.1175) scale(0.16 -0.16)">
    <defs>
     <path id="DejaVuSans-75" d="M 544 1381 
L 544 3500 
L 1119 3500 
L 1119 1403 
Q 1119 906 1312 657 
Q 1506 409 1894 409 
Q 2359 409 2629 706 
Q 2900 1003 2900 1516 
L 2900 3500 
L 3475 3500 
L 3475 0 
L 2900 0 
L 2900 538 
Q 2691 219 2414 64 
Q 2138 -91 1772 -91 
Q 1169 -91 856 284 
Q 544 659 544 1381 
z
M 1991 3584 
L 1991 3584 
z
" transform="scale(0.015625)"/>
     <path id="DejaVuSans-64" d="M 2906 2969 
L 2906 4863 
L 3481 4863 
L 3481 0 
L 2906 0 
L 2906 525 
Q 2725 213 2448 61 
Q 2172 -91 1784 -91 
Q 1150 -91 751 415 
Q 353 922 353 1747 
Q 353 2572 751 3078 
Q 1150 3584 1784 3584 
Q 2172 3584 2448 3432 
Q 2725 3281 2906 2969 
z
M 947 1747 
Q 947 1113 1208 752 
Q 1469 391 1925 391 
Q 2381 391 2643 752 
Q 2906 1113 2906 1747 
Q 2906 2381 2643 2742 
Q 2381 3103 1925 3103 
Q 1469 3103 1208 2742 
Q 947 2381 947 1747 
z
" transform="scale(0.015625)"/>
     <path id="DejaVuSans-72" d="M 2631 2963 
Q 2534 3019 2420 3045 
Q 2306 3072 2169 3072 
Q 1681 3072 1420 2755 
Q 1159 2438 1159 1844 
L 1159 0 
L 581 0 
L 581 3500 
L 1159 3500 
L 1159 2956 
Q 1341 3275 1631 3429 
Q 1922 3584 2338 3584 
Q 2397 3584 2469 3576 
Q 2541 3569 2628 3553 
L 2631 2963 
z
" transform="scale(0.015625)"/>
     <path id="DejaVuSans-61" d="M 2194 1759 
Q 1497 1759 1228 1600 
Q 959 1441 959 1056 
Q 959 750 1161 570 
Q 1363 391 1709 391 
Q 2188 391 2477 730 
Q 2766 1069 2766 1631 
L 2766 1759 
L 2194 1759 
z
M 3341 1997 
L 3341 0 
L 2766 0 
L 2766 531 
Q 2569 213 2275 61 
Q 1981 -91 1556 -91 
Q 1019 -91 701 211 
Q 384 513 384 1019 
Q 384 1609 779 1909 
Q 1175 2209 1959 2209 
L 2766 2209 
L 2766 2266 
Q 2766 2663 2505 2880 
Q 2244 3097 1772 3097 
Q 1472 3097 1187 3025 
Q 903 2953 641 2809 
L 641 3341 
Q 956 3463 1253 3523 
Q 1550 3584 1831 3584 
Q 2591 3584 2966 3190 
Q 3341 2797 3341 1997 
z
" transform="scale(0.015625)"/>
     <path id="DejaVuSans-6c" d="M 603 4863 
L 1178 4863 
L 1178 0 
L 603 0 
L 603 4863 
z
" transform="scale(0.015625)"/>
     <path id="DejaVuSans-79" d="M 2059 -325 
Q 1816 -950 1584 -1140 
Q 1353 -1331 966 -1331 
L 506 -1331 
L 506 -850 
L 844 -850 
Q 1081 -850 1212 -737 
Q 1344 -625 1503 -206 
L 1606 56 
L 191 3500 
L 800 3500 
L 1894 763 
L 2988 3500 
L 3597 3500 
L 2059 -325 
z
" transform="scale(0.015625)"/>
     <path id="DejaVuSans-28" d="M 1984 4856 
Q 1566 4138 1362 3434 
Q 1159 2731 1159 2009 
Q 1159 1288 1364 580 
Q 1569 -128 1984 -844 
L 1484 -844 
Q 1016 -109 783 600 
Q 550 1309 550 2009 
Q 550 2706 781 3412 
Q 1013 4119 1484 4856 
L 1984 4856 
z
" transform="scale(0.015625)"/>
     <path id="DejaVuSans-3d" d="M 678 2906 
L 4684 2906 
L 4684 2381 
L 678 2381 
L 678 2906 
z
M 678 1631 
L 4684 1631 
L 4684 1100 
L 678 1100 
L 678 1631 
z
" transform="scale(0.015625)"/>
     <path id="DejaVuSans-2d" d="M 313 2009 
L 1997 2009 
L 1997 1497 
L 313 1497 
L 313 2009 
z
" transform="scale(0.015625)"/>
     <path id="DejaVuSans-39" d="M 703 97 
L 703 672 
Q 941 559 1184 500 
Q 1428 441 1663 441 
Q 2288 441 2617 861 
Q 2947 1281 2994 2138 
Q 2813 1869 2534 1725 
Q 2256 1581 1919 1581 
Q 1219 1581 811 2004 
Q 403 2428 403 3163 
Q 403 3881 828 4315 
Q 1253 4750 1959 4750 
Q 2769 4750 3195 4129 
Q 3622 3509 3622 2328 
Q 3622 1225 3098 567 
Q 2575 -91 1691 -91 
Q 1453 -91 1209 -44 
Q 966 3 703 97 
z
M 1959 2075 
Q 2384 2075 2632 2365 
Q 2881 2656 2881 3163 
Q 2881 3666 2632 3958 
Q 2384 4250 1959 4250 
Q 1534 4250 1286 3958 
Q 1038 3666 1038 3163 
Q 1038 2656 1286 2365 
Q 1534 2075 1959 2075 
z
" transform="scale(0.015625)"/>
     <path id="DejaVuSans-29" d="M 513 4856 
L 1013 4856 
Q 1481 4119 1714 3412 
Q 1947 2706 1947 2009 
Q 1947 1309 1714 600 
Q 1481 -109 1013 -844 
L 513 -844 
Q 928 -128 1133 580 
Q 1338 1288 1338 2009 
Q 1338 2731 1133 3434 
Q 928 4138 513 4856 
z
" transform="scale(0.015625)"/>
    </defs>
    <use xlink:href="#DejaVuSans-44"/>
    <use xlink:href="#DejaVuSans-46" x="77.001953"/>
    <use xlink:href="#DejaVuSans-46" x="134.521484"/>
    <use xlink:href="#DejaVuSans-20" x="192.041016"/>
    <use xlink:href="#DejaVuSans-75" x="223.828125"/>
    <use xlink:href="#DejaVuSans-6e" x="287.207031"/>
    <use xlink:href="#DejaVuSans-64" x="350.585938"/>
    <use xlink:href="#DejaVuSans-65" x="414.0625"/>
    <use xlink:href="#DejaVuSans-72" x="475.585938"/>
    <use xlink:href="#DejaVuSans-20" x="516.699219"/>
    <use xlink:href="#DejaVuSans-42" x="548.486328"/>
    <use xlink:href="#DejaVuSans-42" x="617.089844"/>
    <use xlink:href="#DejaVuSans-49" x="685.693359"/>
    <use xlink:href="#DejaVuSans-20" x="715.185547"/>
    <use xlink:href="#DejaVuSans-73" x="746.972656"/>
    <use xlink:href="#DejaVuSans-77" x="799.072266"/>
    <use xlink:href="#DejaVuSans-65" x="880.859375"/>
    <use xlink:href="#DejaVuSans-65" x="942.382812"/>
    <use xlink:href="#DejaVuSans-70" x="1003.90625"/>
    <use xlink:href="#DejaVuSans-20" x="1067.382812"/>
    <use xlink:href="#DejaVuSans-61" x="1099.169922"/>
    <use xlink:href="#DejaVuSans-6e" x="1160.449219"/>
    <use xlink:href="#DejaVuSans-61" x="1223.828125"/>
    <use xlink:href="#DejaVuSans-6c" x="1285.107422"/>
    <use xlink:href="#DejaVuSans-79" x="1312.890625"/>
    <use xlink:href="#DejaVuSans-73" x="1372.070312"/>
    <use xlink:href="#DejaVuSans-69" x="1424.169922"/>
    <use xlink:href="#DejaVuSans-73" x="1451.953125"/>
    <use xlink:href="#DejaVuSans-20" x="1504.052734"/>
    <use xlink:href="#DejaVuSans-28" x="1535.839844"/>
    <use xlink:href="#DejaVuSans-53" x="1574.853516"/>
    <use xlink:href="#DejaVuSans-77" x="1638.330078"/>
    <use xlink:href="#DejaVuSans-65" x="1720.117188"/>
    <use xlink:href="#DejaVuSans-65" x="1781.640625"/>
    <use xlink:href="#DejaVuSans-70" x="1843.164062"/>
    <use xlink:href="#DejaVuSans-20" x="1906.640625"/>
    <use xlink:href="#DejaVuSans-3d" x="1938.427734"/>
    <use xlink:href="#DejaVuSans-20" x="2022.216797"/>
    <use xlink:href="#DejaVuSans-31" x="2054.003906"/>
    <use xlink:href="#DejaVuSans-38" x="2117.626953"/>
    <use xlink:href="#DejaVuSans-45" x="2181.25"/>
    <use xlink:href="#DejaVuSans-2d" x="2244.433594"/>
    <use xlink:href="#DejaVuSans-39" x="2280.517578"/>
    <use xlink:href="#DejaVuSans-29" x="2344.140625"/>
   </g>
  </g>
 </g>
 <defs>
  <clipPath id="pe5ba1c730f">
   <rect x="100.8" y="38.88" width="887.04" height="92.731034"/>
  </clipPath>
  <clipPath id="pa5ef8fa430">
   <rect x="100.8" y="150.157241" width="887.04" height="92.731034"/>
  </clipPath>
  <clipPath id="p230907401d">
   <rect x="100.8" y="261.434483" width="887.04" height="92.731034"/>
  </clipPath>
  <clipPath id="pa6d21c89f1">
   <rect x="100.8" y="372.711724" width="887.04" height="92.731034"/>
  </clipPath>
  <clipPath id="p05ebe32fdf">
   <rect x="100.8" y="483.988966" width="887.04" height="92.731034"/>
  </clipPath>
  <clipPath id="peff8bb6062">
   <rect x="201.6" y="609.12" width="655.2" height="25.92"/>
  </clipPath>
  <clipPath id="p01d575b0e5">
   <path d="M 201.6 628.56 
L 856.8 628.56 
L 856.8 615.6 
L 201.6 615.6 
z
"/>
  </clipPath>
 </defs>
</svg>
