<?xml version="1.0" encoding="utf-8" standalone="no"?>
<!DOCTYPE svg PUBLIC "-//W3C//DTD SVG 1.1//EN"
  "http://www.w3.org/Graphics/SVG/1.1/DTD/svg11.dtd">
<svg xmlns:xlink="http://www.w3.org/1999/xlink" width="1008pt" height="648pt" viewBox="0 0 1008 648" xmlns="http://www.w3.org/2000/svg" version="1.1">
 <metadata>
  <rdf:RDF xmlns:dc="http://purl.org/dc/elements/1.1/" xmlns:cc="http://creativecommons.org/ns#" xmlns:rdf="http://www.w3.org/1999/02/22-rdf-syntax-ns#">
   <cc:Work>
    <dc:type rdf:resource="http://purl.org/dc/dcmitype/StillImage"/>
    <dc:date>2024-06-03T10:45:45.522692</dc:date>
    <dc:format>image/svg+xml</dc:format>
    <dc:creator>
     <cc:Agent>
      <dc:title>Matplotlib v3.9.0, https://matplotlib.org/</dc:title>
     </cc:Agent>
    </dc:creator>
   </cc:Work>
  </rdf:RDF>
 </metadata>
 <defs>
  <style type="text/css">*{stroke-linejoin: round; stroke-linecap: butt}</style>
 </defs>
 <g id="figure_1">
  <g id="patch_1">
   <path d="M 0 648 
L 1008 648 
L 1008 0 
L 0 0 
z
" style="fill: #ffffff"/>
  </g>
  <g id="axes_1">
   <g id="patch_2">
    <path d="M 100.8 131.611034 
L 987.84 131.611034 
L 987.84 38.88 
L 100.8 38.88 
z
" style="fill: #eeeeee"/>
   </g>
   <g id="matplotlib.axis_1">
    <g id="xtick_1">
     <g id="line2d_1">
      <path d="M 141.12 131.611034 
L 141.12 38.88 
" clip-path="url(#p6b4f5a2cf5)" style="fill: none; stroke-dasharray: 1.85,0.8; stroke-dashoffset: 0; stroke: #b2b2b2; stroke-width: 0.5"/>
     </g>
     <g id="line2d_2">
      <defs>
       <path id="mf5a58184ee" d="M 0 0 
L 0 -3.5 
" style="stroke: #000000; stroke-width: 0.8"/>
      </defs>
      <g>
       <use xlink:href="#mf5a58184ee" x="141.12" y="131.611034" style="stroke: #000000; stroke-width: 0.8"/>
      </g>
     </g>
    </g>
    <g id="xtick_2">
     <g id="line2d_3">
      <path d="M 302.4 131.611034 
L 302.4 38.88 
" clip-path="url(#p6b4f5a2cf5)" style="fill: none; stroke-dasharray: 1.85,0.8; stroke-dashoffset: 0; stroke: #b2b2b2; stroke-width: 0.5"/>
     </g>
     <g id="line2d_4">
      <g>
       <use xlink:href="#mf5a58184ee" x="302.4" y="131.611034" style="stroke: #000000; stroke-width: 0.8"/>
      </g>
     </g>
    </g>
    <g id="xtick_3">
     <g id="line2d_5">
      <path d="M 463.68 131.611034 
L 463.68 38.88 
" clip-path="url(#p6b4f5a2cf5)" style="fill: none; stroke-dasharray: 1.85,0.8; stroke-dashoffset: 0; stroke: #b2b2b2; stroke-width: 0.5"/>
     </g>
     <g id="line2d_6">
      <g>
       <use xlink:href="#mf5a58184ee" x="463.68" y="131.611034" style="stroke: #000000; stroke-width: 0.8"/>
      </g>
     </g>
    </g>
    <g id="xtick_4">
     <g id="line2d_7">
      <path d="M 624.96 131.611034 
L 624.96 38.88 
" clip-path="url(#p6b4f5a2cf5)" style="fill: none; stroke-dasharray: 1.85,0.8; stroke-dashoffset: 0; stroke: #b2b2b2; stroke-width: 0.5"/>
     </g>
     <g id="line2d_8">
      <g>
       <use xlink:href="#mf5a58184ee" x="624.96" y="131.611034" style="stroke: #000000; stroke-width: 0.8"/>
      </g>
     </g>
    </g>
    <g id="xtick_5">
     <g id="line2d_9">
      <path d="M 786.24 131.611034 
L 786.24 38.88 
" clip-path="url(#p6b4f5a2cf5)" style="fill: none; stroke-dasharray: 1.85,0.8; stroke-dashoffset: 0; stroke: #b2b2b2; stroke-width: 0.5"/>
     </g>
     <g id="line2d_10">
      <g>
       <use xlink:href="#mf5a58184ee" x="786.24" y="131.611034" style="stroke: #000000; stroke-width: 0.8"/>
      </g>
     </g>
    </g>
    <g id="xtick_6">
     <g id="line2d_11">
      <path d="M 947.52 131.611034 
L 947.52 38.88 
" clip-path="url(#p6b4f5a2cf5)" style="fill: none; stroke-dasharray: 1.85,0.8; stroke-dashoffset: 0; stroke: #b2b2b2; stroke-width: 0.5"/>
     </g>
     <g id="line2d_12">
      <g>
       <use xlink:href="#mf5a58184ee" x="947.52" y="131.611034" style="stroke: #000000; stroke-width: 0.8"/>
      </g>
     </g>
    </g>
   </g>
   <g id="matplotlib.axis_2">
    <g id="ytick_1">
     <g id="line2d_13">
      <path d="M 100.8 98.340394 
L 987.84 98.340394 
" clip-path="url(#p6b4f5a2cf5)" style="fill: none; stroke-dasharray: 1.85,0.8; stroke-dashoffset: 0; stroke: #b2b2b2; stroke-width: 0.5"/>
     </g>
     <g id="line2d_14">
      <defs>
       <path id="mcda5930f2e" d="M 0 0 
L 3.5 0 
" style="stroke: #000000; stroke-width: 0.8"/>
      </defs>
      <g>
       <use xlink:href="#mcda5930f2e" x="100.8" y="98.340394" style="stroke: #000000; stroke-width: 0.8"/>
      </g>
     </g>
     <g id="text_1">
      <!-- −200 V -->
      <g transform="translate(44.819688 103.6593) scale(0.14 -0.14)">
       <defs>
        <path id="DejaVuSans-2212" d="M 678 2272 
L 4684 2272 
L 4684 1741 
L 678 1741 
L 678 2272 
z
" transform="scale(0.015625)"/>
        <path id="DejaVuSans-32" d="M 1228 531 
L 3431 531 
L 3431 0 
L 469 0 
L 469 531 
Q 828 903 1448 1529 
Q 2069 2156 2228 2338 
Q 2531 2678 2651 2914 
Q 2772 3150 2772 3378 
Q 2772 3750 2511 3984 
Q 2250 4219 1831 4219 
Q 1534 4219 1204 4116 
Q 875 4013 500 3803 
L 500 4441 
Q 881 4594 1212 4672 
Q 1544 4750 1819 4750 
Q 2544 4750 2975 4387 
Q 3406 4025 3406 3419 
Q 3406 3131 3298 2873 
Q 3191 2616 2906 2266 
Q 2828 2175 2409 1742 
Q 1991 1309 1228 531 
z
" transform="scale(0.015625)"/>
        <path id="DejaVuSans-30" d="M 2034 4250 
Q 1547 4250 1301 3770 
Q 1056 3291 1056 2328 
Q 1056 1369 1301 889 
Q 1547 409 2034 409 
Q 2525 409 2770 889 
Q 3016 1369 3016 2328 
Q 3016 3291 2770 3770 
Q 2525 4250 2034 4250 
z
M 2034 4750 
Q 2819 4750 3233 4129 
Q 3647 3509 3647 2328 
Q 3647 1150 3233 529 
Q 2819 -91 2034 -91 
Q 1250 -91 836 529 
Q 422 1150 422 2328 
Q 422 3509 836 4129 
Q 1250 4750 2034 4750 
z
" transform="scale(0.015625)"/>
        <path id="DejaVuSans-20" transform="scale(0.015625)"/>
        <path id="DejaVuSans-56" d="M 1831 0 
L 50 4666 
L 709 4666 
L 2188 738 
L 3669 4666 
L 4325 4666 
L 2547 0 
L 1831 0 
z
" transform="scale(0.015625)"/>
       </defs>
       <use xlink:href="#DejaVuSans-2212"/>
       <use xlink:href="#DejaVuSans-32" x="83.789062"/>
       <use xlink:href="#DejaVuSans-30" x="147.412109"/>
       <use xlink:href="#DejaVuSans-30" x="211.035156"/>
       <use xlink:href="#DejaVuSans-20" x="274.658203"/>
       <use xlink:href="#DejaVuSans-56" x="306.445312"/>
      </g>
     </g>
    </g>
    <g id="ytick_2">
     <g id="line2d_15">
      <path d="M 100.8 45.027377 
L 987.84 45.027377 
" clip-path="url(#p6b4f5a2cf5)" style="fill: none; stroke-dasharray: 1.85,0.8; stroke-dashoffset: 0; stroke: #b2b2b2; stroke-width: 0.5"/>
     </g>
     <g id="line2d_16">
      <g>
       <use xlink:href="#mcda5930f2e" x="100.8" y="45.027377" style="stroke: #000000; stroke-width: 0.8"/>
      </g>
     </g>
     <g id="text_2">
      <!-- 0 V -->
      <g transform="translate(74.36625 50.346284) scale(0.14 -0.14)">
       <use xlink:href="#DejaVuSans-30"/>
       <use xlink:href="#DejaVuSans-20" x="63.623047"/>
       <use xlink:href="#DejaVuSans-56" x="95.410156"/>
      </g>
     </g>
    </g>
    <g id="text_3">
     <g id="patch_3">
      <path d="M 34.8768 131.080205 
L 34.8768 39.41083 
L 11.247425 39.41083 
L 11.247425 131.080205 
z
" style="fill: #ffff00; opacity: 0.2; stroke: #eeeeee; stroke-width: 0.5; stroke-linejoin: miter"/>
     </g>
     <!-- VPULSE BBI -->
     <g transform="translate(26.925238 126.040205) rotate(-90) scale(0.14 -0.14)">
      <defs>
       <path id="DejaVuSans-50" d="M 1259 4147 
L 1259 2394 
L 2053 2394 
Q 2494 2394 2734 2622 
Q 2975 2850 2975 3272 
Q 2975 3691 2734 3919 
Q 2494 4147 2053 4147 
L 1259 4147 
z
M 628 4666 
L 2053 4666 
Q 2838 4666 3239 4311 
Q 3641 3956 3641 3272 
Q 3641 2581 3239 2228 
Q 2838 1875 2053 1875 
L 1259 1875 
L 1259 0 
L 628 0 
L 628 4666 
z
" transform="scale(0.015625)"/>
       <path id="DejaVuSans-55" d="M 556 4666 
L 1191 4666 
L 1191 1831 
Q 1191 1081 1462 751 
Q 1734 422 2344 422 
Q 2950 422 3222 751 
Q 3494 1081 3494 1831 
L 3494 4666 
L 4128 4666 
L 4128 1753 
Q 4128 841 3676 375 
Q 3225 -91 2344 -91 
Q 1459 -91 1007 375 
Q 556 841 556 1753 
L 556 4666 
z
" transform="scale(0.015625)"/>
       <path id="DejaVuSans-4c" d="M 628 4666 
L 1259 4666 
L 1259 531 
L 3531 531 
L 3531 0 
L 628 0 
L 628 4666 
z
" transform="scale(0.015625)"/>
       <path id="DejaVuSans-53" d="M 3425 4513 
L 3425 3897 
Q 3066 4069 2747 4153 
Q 2428 4238 2131 4238 
Q 1616 4238 1336 4038 
Q 1056 3838 1056 3469 
Q 1056 3159 1242 3001 
Q 1428 2844 1947 2747 
L 2328 2669 
Q 3034 2534 3370 2195 
Q 3706 1856 3706 1288 
Q 3706 609 3251 259 
Q 2797 -91 1919 -91 
Q 1588 -91 1214 -16 
Q 841 59 441 206 
L 441 856 
Q 825 641 1194 531 
Q 1563 422 1919 422 
Q 2459 422 2753 634 
Q 3047 847 3047 1241 
Q 3047 1584 2836 1778 
Q 2625 1972 2144 2069 
L 1759 2144 
Q 1053 2284 737 2584 
Q 422 2884 422 3419 
Q 422 4038 858 4394 
Q 1294 4750 2059 4750 
Q 2388 4750 2728 4690 
Q 3069 4631 3425 4513 
z
" transform="scale(0.015625)"/>
       <path id="DejaVuSans-45" d="M 628 4666 
L 3578 4666 
L 3578 4134 
L 1259 4134 
L 1259 2753 
L 3481 2753 
L 3481 2222 
L 1259 2222 
L 1259 531 
L 3634 531 
L 3634 0 
L 628 0 
L 628 4666 
z
" transform="scale(0.015625)"/>
       <path id="DejaVuSans-42" d="M 1259 2228 
L 1259 519 
L 2272 519 
Q 2781 519 3026 730 
Q 3272 941 3272 1375 
Q 3272 1813 3026 2020 
Q 2781 2228 2272 2228 
L 1259 2228 
z
M 1259 4147 
L 1259 2741 
L 2194 2741 
Q 2656 2741 2882 2914 
Q 3109 3088 3109 3444 
Q 3109 3797 2882 3972 
Q 2656 4147 2194 4147 
L 1259 4147 
z
M 628 4666 
L 2241 4666 
Q 2963 4666 3353 4366 
Q 3744 4066 3744 3513 
Q 3744 3084 3544 2831 
Q 3344 2578 2956 2516 
Q 3422 2416 3680 2098 
Q 3938 1781 3938 1306 
Q 3938 681 3513 340 
Q 3088 0 2303 0 
L 628 0 
L 628 4666 
z
" transform="scale(0.015625)"/>
       <path id="DejaVuSans-49" d="M 628 4666 
L 1259 4666 
L 1259 0 
L 628 0 
L 628 4666 
z
" transform="scale(0.015625)"/>
      </defs>
      <use xlink:href="#DejaVuSans-56"/>
      <use xlink:href="#DejaVuSans-50" x="68.408203"/>
      <use xlink:href="#DejaVuSans-55" x="128.710938"/>
      <use xlink:href="#DejaVuSans-4c" x="201.904297"/>
      <use xlink:href="#DejaVuSans-53" x="257.617188"/>
      <use xlink:href="#DejaVuSans-45" x="321.09375"/>
      <use xlink:href="#DejaVuSans-20" x="384.277344"/>
      <use xlink:href="#DejaVuSans-42" x="416.064453"/>
      <use xlink:href="#DejaVuSans-42" x="484.667969"/>
      <use xlink:href="#DejaVuSans-49" x="553.271484"/>
     </g>
    </g>
   </g>
   <g id="line2d_17">
    <path d="M 141.12 45.027377 
L 431.456256 45.136282 
L 431.940096 46.425538 
L 440.165376 69.006772 
L 447.584256 89.863624 
L 449.197056 94.440546 
L 451.003392 99.675885 
L 457.261056 119.532318 
L 458.551296 120.153414 
L 459.389952 120.545265 
L 460.422144 121.017085 
L 461.002752 121.272988 
L 461.873664 121.656841 
L 462.454272 121.912744 
L 463.292928 122.269941 
L 464.873472 122.936354 
L 465.518592 123.202919 
L 466.615296 123.629423 
L 467.357184 123.922644 
L 468.453888 124.349149 
L 469.357056 124.677024 
L 470.034432 124.943589 
L 470.840832 125.25547 
L 472.195584 125.804594 
L 474.840576 126.790885 
L 475.45344 127.022796 
L 477.3888 127.395987 
L 495.871488 127.289361 
L 496.09728 126.801547 
L 514.386432 75.087922 
L 518.128128 63.292417 
L 521.837568 51.617666 
L 526.450176 49.3412 
L 531.804672 46.984578 
L 540.513792 43.484472 
L 541.384704 43.268927 
L 555.674112 43.108189 
L 562.480128 43.184799 
L 577.833984 43.746186 
L 605.6064 44.46146 
L 631.24992 44.774399 
L 666.860544 44.945888 
L 714.889728 44.953885 
L 947.52 44.953885 
L 947.52 44.953885 
" clip-path="url(#p6b4f5a2cf5)" style="fill: none; stroke: #ff0000; stroke-width: 2; stroke-linecap: square"/>
   </g>
   <g id="patch_4">
    <path d="M 100.8 131.611034 
L 100.8 38.88 
" style="fill: none; stroke: #bcbcbc; stroke-width: 0.8; stroke-linejoin: miter; stroke-linecap: square"/>
   </g>
   <g id="patch_5">
    <path d="M 987.84 131.611034 
L 987.84 38.88 
" style="fill: none; stroke: #bcbcbc; stroke-width: 0.8; stroke-linejoin: miter; stroke-linecap: square"/>
   </g>
   <g id="patch_6">
    <path d="M 100.8 131.611034 
L 987.84 131.611034 
" style="fill: none; stroke: #bcbcbc; stroke-width: 0.8; stroke-linejoin: miter; stroke-linecap: square"/>
   </g>
   <g id="patch_7">
    <path d="M 100.8 38.88 
L 987.84 38.88 
" style="fill: none; stroke: #bcbcbc; stroke-width: 0.8; stroke-linejoin: miter; stroke-linecap: square"/>
   </g>
  </g>
  <g id="axes_2">
   <g id="patch_8">
    <path d="M 100.8 242.888276 
L 987.84 242.888276 
L 987.84 150.157241 
L 100.8 150.157241 
z
" style="fill: #eeeeee"/>
   </g>
   <g id="matplotlib.axis_3">
    <g id="xtick_7">
     <g id="line2d_18">
      <path d="M 141.12 242.888276 
L 141.12 150.157241 
" clip-path="url(#p3725bc3672)" style="fill: none; stroke-dasharray: 1.85,0.8; stroke-dashoffset: 0; stroke: #b2b2b2; stroke-width: 0.5"/>
     </g>
     <g id="line2d_19">
      <g>
       <use xlink:href="#mf5a58184ee" x="141.12" y="242.888276" style="stroke: #000000; stroke-width: 0.8"/>
      </g>
     </g>
    </g>
    <g id="xtick_8">
     <g id="line2d_20">
      <path d="M 302.4 242.888276 
L 302.4 150.157241 
" clip-path="url(#p3725bc3672)" style="fill: none; stroke-dasharray: 1.85,0.8; stroke-dashoffset: 0; stroke: #b2b2b2; stroke-width: 0.5"/>
     </g>
     <g id="line2d_21">
      <g>
       <use xlink:href="#mf5a58184ee" x="302.4" y="242.888276" style="stroke: #000000; stroke-width: 0.8"/>
      </g>
     </g>
    </g>
    <g id="xtick_9">
     <g id="line2d_22">
      <path d="M 463.68 242.888276 
L 463.68 150.157241 
" clip-path="url(#p3725bc3672)" style="fill: none; stroke-dasharray: 1.85,0.8; stroke-dashoffset: 0; stroke: #b2b2b2; stroke-width: 0.5"/>
     </g>
     <g id="line2d_23">
      <g>
       <use xlink:href="#mf5a58184ee" x="463.68" y="242.888276" style="stroke: #000000; stroke-width: 0.8"/>
      </g>
     </g>
    </g>
    <g id="xtick_10">
     <g id="line2d_24">
      <path d="M 624.96 242.888276 
L 624.96 150.157241 
" clip-path="url(#p3725bc3672)" style="fill: none; stroke-dasharray: 1.85,0.8; stroke-dashoffset: 0; stroke: #b2b2b2; stroke-width: 0.5"/>
     </g>
     <g id="line2d_25">
      <g>
       <use xlink:href="#mf5a58184ee" x="624.96" y="242.888276" style="stroke: #000000; stroke-width: 0.8"/>
      </g>
     </g>
    </g>
    <g id="xtick_11">
     <g id="line2d_26">
      <path d="M 786.24 242.888276 
L 786.24 150.157241 
" clip-path="url(#p3725bc3672)" style="fill: none; stroke-dasharray: 1.85,0.8; stroke-dashoffset: 0; stroke: #b2b2b2; stroke-width: 0.5"/>
     </g>
     <g id="line2d_27">
      <g>
       <use xlink:href="#mf5a58184ee" x="786.24" y="242.888276" style="stroke: #000000; stroke-width: 0.8"/>
      </g>
     </g>
    </g>
    <g id="xtick_12">
     <g id="line2d_28">
      <path d="M 947.52 242.888276 
L 947.52 150.157241 
" clip-path="url(#p3725bc3672)" style="fill: none; stroke-dasharray: 1.85,0.8; stroke-dashoffset: 0; stroke: #b2b2b2; stroke-width: 0.5"/>
     </g>
     <g id="line2d_29">
      <g>
       <use xlink:href="#mf5a58184ee" x="947.52" y="242.888276" style="stroke: #000000; stroke-width: 0.8"/>
      </g>
     </g>
    </g>
   </g>
   <g id="matplotlib.axis_4">
    <g id="ytick_3">
     <g id="line2d_30">
      <path d="M 100.8 219.358916 
L 987.84 219.358916 
" clip-path="url(#p3725bc3672)" style="fill: none; stroke-dasharray: 1.85,0.8; stroke-dashoffset: 0; stroke: #b2b2b2; stroke-width: 0.5"/>
     </g>
     <g id="line2d_31">
      <g>
       <use xlink:href="#mcda5930f2e" x="100.8" y="219.358916" style="stroke: #000000; stroke-width: 0.8"/>
      </g>
     </g>
     <g id="text_4">
      <!-- 0 V -->
      <g transform="translate(74.36625 224.677822) scale(0.14 -0.14)">
       <use xlink:href="#DejaVuSans-30"/>
       <use xlink:href="#DejaVuSans-20" x="63.623047"/>
       <use xlink:href="#DejaVuSans-56" x="95.410156"/>
      </g>
     </g>
    </g>
    <g id="ytick_4">
     <g id="line2d_32">
      <path d="M 100.8 185.777566 
L 987.84 185.777566 
" clip-path="url(#p3725bc3672)" style="fill: none; stroke-dasharray: 1.85,0.8; stroke-dashoffset: 0; stroke: #b2b2b2; stroke-width: 0.5"/>
     </g>
     <g id="line2d_33">
      <g>
       <use xlink:href="#mcda5930f2e" x="100.8" y="185.777566" style="stroke: #000000; stroke-width: 0.8"/>
      </g>
     </g>
     <g id="text_5">
      <!-- 1 V -->
      <g transform="translate(74.36625 191.096473) scale(0.14 -0.14)">
       <defs>
        <path id="DejaVuSans-31" d="M 794 531 
L 1825 531 
L 1825 4091 
L 703 3866 
L 703 4441 
L 1819 4666 
L 2450 4666 
L 2450 531 
L 3481 531 
L 3481 0 
L 794 0 
L 794 531 
z
" transform="scale(0.015625)"/>
       </defs>
       <use xlink:href="#DejaVuSans-31"/>
       <use xlink:href="#DejaVuSans-20" x="63.623047"/>
       <use xlink:href="#DejaVuSans-56" x="95.410156"/>
      </g>
     </g>
    </g>
    <g id="ytick_5">
     <g id="line2d_34">
      <path d="M 100.8 152.196217 
L 987.84 152.196217 
" clip-path="url(#p3725bc3672)" style="fill: none; stroke-dasharray: 1.85,0.8; stroke-dashoffset: 0; stroke: #b2b2b2; stroke-width: 0.5"/>
     </g>
     <g id="line2d_35">
      <g>
       <use xlink:href="#mcda5930f2e" x="100.8" y="152.196217" style="stroke: #000000; stroke-width: 0.8"/>
      </g>
     </g>
     <g id="text_6">
      <!-- 2 V -->
      <g transform="translate(74.36625 157.515123) scale(0.14 -0.14)">
       <use xlink:href="#DejaVuSans-32"/>
       <use xlink:href="#DejaVuSans-20" x="63.623047"/>
       <use xlink:href="#DejaVuSans-56" x="95.410156"/>
      </g>
     </g>
    </g>
    <g id="text_7">
     <g id="patch_9">
      <path d="M 34.8768 224.531509 
L 34.8768 168.514009 
L 11.247425 168.514009 
L 11.247425 224.531509 
z
" style="fill: #ffff00; opacity: 0.2; stroke: #eeeeee; stroke-width: 0.5; stroke-linejoin: miter"/>
     </g>
     <!-- DFF IN -->
     <g transform="translate(26.925238 219.491509) rotate(-90) scale(0.14 -0.14)">
      <defs>
       <path id="DejaVuSans-44" d="M 1259 4147 
L 1259 519 
L 2022 519 
Q 2988 519 3436 956 
Q 3884 1394 3884 2338 
Q 3884 3275 3436 3711 
Q 2988 4147 2022 4147 
L 1259 4147 
z
M 628 4666 
L 1925 4666 
Q 3281 4666 3915 4102 
Q 4550 3538 4550 2338 
Q 4550 1131 3912 565 
Q 3275 0 1925 0 
L 628 0 
L 628 4666 
z
" transform="scale(0.015625)"/>
       <path id="DejaVuSans-46" d="M 628 4666 
L 3309 4666 
L 3309 4134 
L 1259 4134 
L 1259 2759 
L 3109 2759 
L 3109 2228 
L 1259 2228 
L 1259 0 
L 628 0 
L 628 4666 
z
" transform="scale(0.015625)"/>
       <path id="DejaVuSans-4e" d="M 628 4666 
L 1478 4666 
L 3547 763 
L 3547 4666 
L 4159 4666 
L 4159 0 
L 3309 0 
L 1241 3903 
L 1241 0 
L 628 0 
L 628 4666 
z
" transform="scale(0.015625)"/>
      </defs>
      <use xlink:href="#DejaVuSans-44"/>
      <use xlink:href="#DejaVuSans-46" x="77.001953"/>
      <use xlink:href="#DejaVuSans-46" x="134.521484"/>
      <use xlink:href="#DejaVuSans-20" x="192.041016"/>
      <use xlink:href="#DejaVuSans-49" x="223.828125"/>
      <use xlink:href="#DejaVuSans-4e" x="253.320312"/>
     </g>
    </g>
   </g>
   <g id="line2d_36">
    <path d="M 141.12 219.309874 
L 221.953536 219.263823 
L 224.437248 200.552688 
L 225.404928 194.86065 
L 228.243456 182.345552 
L 229.598208 181.08961 
L 231.178752 180.226569 
L 236.565504 179.776579 
L 243.661824 179.665761 
L 245.1456 179.622105 
L 248.403456 179.511287 
L 250.113024 179.444124 
L 252.177408 179.333305 
L 254.241792 179.007566 
L 254.757888 178.476981 
L 255.499776 178.141167 
L 256.370688 178.161316 
L 257.531904 178.393028 
L 259.98336 178.792646 
L 262.370304 178.930329 
L 263.886336 178.980701 
L 264.144384 184.158945 
L 264.434688 187.6823 
L 265.176576 192.375966 
L 267.144192 209.508163 
L 268.402176 215.94067 
L 269.079552 217.252358 
L 270.46656 218.951104 
L 273.724416 219.360729 
L 282.594816 219.31431 
L 297.110016 219.30309 
L 305.883648 219.309078 
L 347.751936 219.265499 
L 350.235648 200.592314 
L 351.622656 192.054928 
L 352.687104 186.724896 
L 354.97728 179.910905 
L 358.493184 178.923613 
L 360.235008 178.994134 
L 363.073536 179.104952 
L 364.396032 179.131817 
L 375.169536 179.202338 
L 375.717888 180.182914 
L 376.169472 180.925061 
L 377.008128 181.821683 
L 377.524224 181.771311 
L 378.427392 181.482512 
L 380.45952 180.344104 
L 381.58848 179.988142 
L 387.201024 179.514645 
L 389.65248 179.403826 
L 391.813632 179.28965 
L 394.555392 179.178831 
L 395.9424 179.14525 
L 415.392768 179.03779 
L 415.973376 178.419893 
L 416.844288 178.087437 
L 417.908736 178.19154 
L 419.16672 178.470265 
L 420.9408 178.728841 
L 424.037376 178.940404 
L 431.456256 179.051222 
L 431.714304 179.477705 
L 433.294848 182.372418 
L 436.165632 186.362553 
L 440.713728 192.62111 
L 441.26208 194.294804 
L 443.068416 201.068834 
L 444.777984 208.529266 
L 445.390848 211.156 
L 446.810112 216.286155 
L 447.100416 217.082 
L 447.648768 219.216292 
L 448.261632 221.145511 
L 448.390656 221.509768 
L 448.939008 223.334612 
L 449.64864 224.970695 
L 450.196992 226.030522 
L 450.648576 226.472453 
L 450.842112 226.870728 
L 451.196928 227.912421 
L 451.74528 228.937324 
L 451.809792 229.015569 
L 452.583936 230.731576 
L 454.551552 234.301273 
L 455.616 236.046832 
L 455.745024 236.165374 
L 456.003072 236.692937 
L 456.648192 237.833023 
L 457.325568 238.673229 
L 457.39008 238.614797 
L 457.777152 238.215515 
L 458.131968 237.796756 
L 458.51904 237.143598 
L 458.8416 236.570365 
L 459.00288 236.342347 
L 459.389952 235.852731 
L 459.906048 235.361772 
L 460.228608 234.800963 
L 460.551168 234.31034 
L 460.809216 234.156202 
L 461.873664 233.328421 
L 462.518784 232.608773 
L 462.938112 231.939497 
L 463.292928 231.67857 
L 463.325184 231.713494 
L 463.454208 231.688308 
L 463.712256 231.391449 
L 464.615424 230.842058 
L 465.228288 230.218117 
L 465.712128 229.437686 
L 466.034688 229.253325 
L 466.163712 229.272466 
L 468.066816 227.888914 
L 469.099008 226.786774 
L 469.937664 226.354918 
L 471.389184 225.061029 
L 471.744 224.549585 
L 472.098816 224.442125 
L 472.647168 224.257427 
L 473.647104 223.525354 
L 476.646912 221.141212 
L 477.840384 219.775324 
L 480.485376 216.060455 
L 484.227072 211.423979 
L 485.93664 209.299287 
L 487.0656 205.932421 
L 487.38816 204.994158 
L 488.581632 202.070901 
L 489.129984 201.208532 
L 492.355584 196.797622 
L 493.420032 195.690445 
L 495.45216 193.570454 
L 496.000512 192.886738 
L 496.323072 191.722808 
L 497.806848 186.171811 
L 498.645504 184.085066 
L 499.355136 182.795543 
L 500.000256 182.050037 
L 500.677632 181.63027 
L 501.548544 181.056029 
L 502.290432 180.303806 
L 504.741888 176.80463 
L 507.290112 173.026728 
L 514.612224 163.298211 
L 515.741184 161.844139 
L 517.257216 159.829258 
L 521.7408 154.389079 
L 521.90208 154.426019 
L 522.611712 154.839069 
L 523.256832 155.05399 
L 524.127744 155.211822 
L 525.192192 155.430101 
L 531.127296 157.397968 
L 533.288448 158.180413 
L 534.15936 158.472571 
L 535.578624 158.946068 
L 536.352768 159.281882 
L 537.610752 164.671688 
L 537.901056 164.829521 
L 538.223616 164.755642 
L 538.707456 164.275428 
L 540.288 162.47211 
L 541.029888 162.065776 
L 542.094336 162.065776 
L 543.223296 162.294129 
L 551.513088 164.994069 
L 552.448512 165.356748 
L 554.577408 166.129119 
L 555.416064 166.41456 
L 569.060352 170.565215 
L 569.511936 170.676034 
L 570.221568 170.857373 
L 574.189056 171.790934 
L 574.737408 171.905111 
L 576.705024 172.210701 
L 577.156608 171.649893 
L 577.70496 171.434972 
L 578.1888 171.49206 
L 578.704896 171.706981 
L 579.898368 172.32152 
L 580.672512 172.68084 
L 584.31744 173.708429 
L 585.510912 173.943499 
L 585.962496 174.024094 
L 586.639872 174.134913 
L 588.51072 174.437145 
L 588.930048 174.497591 
L 590.542848 174.725944 
L 591.349248 174.833405 
L 592.800768 175.028176 
L 593.703936 175.135637 
L 594.80064 175.25653 
L 595.639296 175.360632 
L 596.026368 175.414362 
L 597.187584 175.52518 
L 597.800448 175.602417 
L 598.83264 175.709878 
L 599.9616 175.817338 
L 600.509952 175.877785 
L 607.509504 176.495681 
L 608.961024 176.6065 
L 609.79968 176.670304 
L 613.057536 176.898658 
L 613.6704 176.945671 
L 616.41216 177.123653 
L 616.992768 177.157234 
L 617.766912 178.026991 
L 618.315264 178.241912 
L 619.444224 178.251986 
L 621.927936 177.590433 
L 623.637504 177.523271 
L 624.1536 177.519913 
L 625.830912 177.583717 
L 626.540544 177.610582 
L 626.927616 177.620657 
L 627.669504 177.65088 
L 629.443584 177.724759 
L 630.217728 177.754982 
L 633.249792 177.859084 
L 633.701376 177.892666 
L 636.507648 178.000126 
L 637.120512 178.016917 
L 637.959168 178.040423 
L 640.76544 178.147884 
L 641.313792 178.1546 
L 644.79744 178.265418 
L 646.24896 178.305716 
L 647.119872 178.319149 
L 647.797248 178.349372 
L 648.700416 178.366163 
L 649.119744 178.382953 
L 654.603264 178.493772 
L 655.92576 178.520637 
L 657.37728 178.413176 
L 657.990144 177.815428 
L 658.538496 177.59715 
L 659.15136 177.573643 
L 660.086784 177.781847 
L 661.506048 178.114302 
L 667.312128 178.607948 
L 697.632768 178.69526 
L 698.568192 179.521361 
L 699.245568 179.68591 
L 701.503488 179.578449 
L 703.858176 179.19898 
L 708.857856 178.789288 
L 737.952768 178.698618 
L 738.50112 178.090795 
L 739.049472 177.818787 
L 740.984832 177.926247 
L 744.242688 178.493772 
L 746.40384 178.607948 
L 778.272768 178.698618 
L 779.208192 179.524719 
L 780.143616 179.7027 
L 782.240256 179.59524 
L 784.562688 179.222487 
L 789.981696 178.769139 
L 818.592768 178.698618 
L 819.14112 178.090795 
L 819.689472 177.818787 
L 821.624832 177.926247 
L 824.882688 178.493772 
L 827.04384 178.607948 
L 858.912768 178.698618 
L 859.848192 179.524719 
L 860.783616 179.7027 
L 862.880256 179.59524 
L 865.202688 179.222487 
L 870.621696 178.769139 
L 899.232768 178.698618 
L 899.78112 178.090795 
L 900.329472 177.818787 
L 902.264832 177.926247 
L 905.522688 178.493772 
L 907.68384 178.607948 
L 939.552768 178.698618 
L 940.617216 179.554942 
L 941.55264 179.73964 
L 943.455744 179.632179 
L 946.423296 179.125101 
L 947.52 178.953836 
L 947.52 178.953836 
" clip-path="url(#p3725bc3672)" style="fill: none; stroke: #008000; stroke-width: 2; stroke-linecap: square"/>
   </g>
   <g id="patch_10">
    <path d="M 100.8 242.888276 
L 100.8 150.157241 
" style="fill: none; stroke: #bcbcbc; stroke-width: 0.8; stroke-linejoin: miter; stroke-linecap: square"/>
   </g>
   <g id="patch_11">
    <path d="M 987.84 242.888276 
L 987.84 150.157241 
" style="fill: none; stroke: #bcbcbc; stroke-width: 0.8; stroke-linejoin: miter; stroke-linecap: square"/>
   </g>
   <g id="patch_12">
    <path d="M 100.8 242.888276 
L 987.84 242.888276 
" style="fill: none; stroke: #bcbcbc; stroke-width: 0.8; stroke-linejoin: miter; stroke-linecap: square"/>
   </g>
   <g id="patch_13">
    <path d="M 100.8 150.157241 
L 987.84 150.157241 
" style="fill: none; stroke: #bcbcbc; stroke-width: 0.8; stroke-linejoin: miter; stroke-linecap: square"/>
   </g>
  </g>
  <g id="axes_3">
   <g id="patch_14">
    <path d="M 100.8 354.165517 
L 987.84 354.165517 
L 987.84 261.434483 
L 100.8 261.434483 
z
" style="fill: #eeeeee"/>
   </g>
   <g id="matplotlib.axis_5">
    <g id="xtick_13">
     <g id="line2d_37">
      <path d="M 141.12 354.165517 
L 141.12 261.434483 
" clip-path="url(#pb66befb0a8)" style="fill: none; stroke-dasharray: 1.85,0.8; stroke-dashoffset: 0; stroke: #b2b2b2; stroke-width: 0.5"/>
     </g>
     <g id="line2d_38">
      <g>
       <use xlink:href="#mf5a58184ee" x="141.12" y="354.165517" style="stroke: #000000; stroke-width: 0.8"/>
      </g>
     </g>
    </g>
    <g id="xtick_14">
     <g id="line2d_39">
      <path d="M 302.4 354.165517 
L 302.4 261.434483 
" clip-path="url(#pb66befb0a8)" style="fill: none; stroke-dasharray: 1.85,0.8; stroke-dashoffset: 0; stroke: #b2b2b2; stroke-width: 0.5"/>
     </g>
     <g id="line2d_40">
      <g>
       <use xlink:href="#mf5a58184ee" x="302.4" y="354.165517" style="stroke: #000000; stroke-width: 0.8"/>
      </g>
     </g>
    </g>
    <g id="xtick_15">
     <g id="line2d_41">
      <path d="M 463.68 354.165517 
L 463.68 261.434483 
" clip-path="url(#pb66befb0a8)" style="fill: none; stroke-dasharray: 1.85,0.8; stroke-dashoffset: 0; stroke: #b2b2b2; stroke-width: 0.5"/>
     </g>
     <g id="line2d_42">
      <g>
       <use xlink:href="#mf5a58184ee" x="463.68" y="354.165517" style="stroke: #000000; stroke-width: 0.8"/>
      </g>
     </g>
    </g>
    <g id="xtick_16">
     <g id="line2d_43">
      <path d="M 624.96 354.165517 
L 624.96 261.434483 
" clip-path="url(#pb66befb0a8)" style="fill: none; stroke-dasharray: 1.85,0.8; stroke-dashoffset: 0; stroke: #b2b2b2; stroke-width: 0.5"/>
     </g>
     <g id="line2d_44">
      <g>
       <use xlink:href="#mf5a58184ee" x="624.96" y="354.165517" style="stroke: #000000; stroke-width: 0.8"/>
      </g>
     </g>
    </g>
    <g id="xtick_17">
     <g id="line2d_45">
      <path d="M 786.24 354.165517 
L 786.24 261.434483 
" clip-path="url(#pb66befb0a8)" style="fill: none; stroke-dasharray: 1.85,0.8; stroke-dashoffset: 0; stroke: #b2b2b2; stroke-width: 0.5"/>
     </g>
     <g id="line2d_46">
      <g>
       <use xlink:href="#mf5a58184ee" x="786.24" y="354.165517" style="stroke: #000000; stroke-width: 0.8"/>
      </g>
     </g>
    </g>
    <g id="xtick_18">
     <g id="line2d_47">
      <path d="M 947.52 354.165517 
L 947.52 261.434483 
" clip-path="url(#pb66befb0a8)" style="fill: none; stroke-dasharray: 1.85,0.8; stroke-dashoffset: 0; stroke: #b2b2b2; stroke-width: 0.5"/>
     </g>
     <g id="line2d_48">
      <g>
       <use xlink:href="#mf5a58184ee" x="947.52" y="354.165517" style="stroke: #000000; stroke-width: 0.8"/>
      </g>
     </g>
    </g>
   </g>
   <g id="matplotlib.axis_6">
    <g id="ytick_6">
     <g id="line2d_49">
      <path d="M 100.8 344.750539 
L 987.84 344.750539 
" clip-path="url(#pb66befb0a8)" style="fill: none; stroke-dasharray: 1.85,0.8; stroke-dashoffset: 0; stroke: #b2b2b2; stroke-width: 0.5"/>
     </g>
     <g id="line2d_50">
      <g>
       <use xlink:href="#mcda5930f2e" x="100.8" y="344.750539" style="stroke: #000000; stroke-width: 0.8"/>
      </g>
     </g>
     <g id="text_8">
      <!-- 0 V -->
      <g transform="translate(74.36625 350.069446) scale(0.14 -0.14)">
       <use xlink:href="#DejaVuSans-30"/>
       <use xlink:href="#DejaVuSans-20" x="63.623047"/>
       <use xlink:href="#DejaVuSans-56" x="95.410156"/>
      </g>
     </g>
    </g>
    <g id="ytick_7">
     <g id="line2d_51">
      <path d="M 100.8 303.706014 
L 987.84 303.706014 
" clip-path="url(#pb66befb0a8)" style="fill: none; stroke-dasharray: 1.85,0.8; stroke-dashoffset: 0; stroke: #b2b2b2; stroke-width: 0.5"/>
     </g>
     <g id="line2d_52">
      <g>
       <use xlink:href="#mcda5930f2e" x="100.8" y="303.706014" style="stroke: #000000; stroke-width: 0.8"/>
      </g>
     </g>
     <g id="text_9">
      <!-- 1 V -->
      <g transform="translate(74.36625 309.02492) scale(0.14 -0.14)">
       <use xlink:href="#DejaVuSans-31"/>
       <use xlink:href="#DejaVuSans-20" x="63.623047"/>
       <use xlink:href="#DejaVuSans-56" x="95.410156"/>
      </g>
     </g>
    </g>
    <g id="ytick_8">
     <g id="line2d_53">
      <path d="M 100.8 262.661488 
L 987.84 262.661488 
" clip-path="url(#pb66befb0a8)" style="fill: none; stroke-dasharray: 1.85,0.8; stroke-dashoffset: 0; stroke: #b2b2b2; stroke-width: 0.5"/>
     </g>
     <g id="line2d_54">
      <g>
       <use xlink:href="#mcda5930f2e" x="100.8" y="262.661488" style="stroke: #000000; stroke-width: 0.8"/>
      </g>
     </g>
     <g id="text_10">
      <!-- 2 V -->
      <g transform="translate(74.36625 267.980395) scale(0.14 -0.14)">
       <use xlink:href="#DejaVuSans-32"/>
       <use xlink:href="#DejaVuSans-20" x="63.623047"/>
       <use xlink:href="#DejaVuSans-56" x="95.410156"/>
      </g>
     </g>
    </g>
    <g id="text_11">
     <g id="patch_15">
      <path d="M 34.8768 342.395313 
L 34.8768 273.204688 
L 11.247425 273.204688 
L 11.247425 342.395313 
z
" style="fill: #ffff00; opacity: 0.2; stroke: #eeeeee; stroke-width: 0.5; stroke-linejoin: miter"/>
     </g>
     <!-- CLK BUF -->
     <g transform="translate(26.925238 337.355313) rotate(-90) scale(0.14 -0.14)">
      <defs>
       <path id="DejaVuSans-43" d="M 4122 4306 
L 4122 3641 
Q 3803 3938 3442 4084 
Q 3081 4231 2675 4231 
Q 1875 4231 1450 3742 
Q 1025 3253 1025 2328 
Q 1025 1406 1450 917 
Q 1875 428 2675 428 
Q 3081 428 3442 575 
Q 3803 722 4122 1019 
L 4122 359 
Q 3791 134 3420 21 
Q 3050 -91 2638 -91 
Q 1578 -91 968 557 
Q 359 1206 359 2328 
Q 359 3453 968 4101 
Q 1578 4750 2638 4750 
Q 3056 4750 3426 4639 
Q 3797 4528 4122 4306 
z
" transform="scale(0.015625)"/>
       <path id="DejaVuSans-4b" d="M 628 4666 
L 1259 4666 
L 1259 2694 
L 3353 4666 
L 4166 4666 
L 1850 2491 
L 4331 0 
L 3500 0 
L 1259 2247 
L 1259 0 
L 628 0 
L 628 4666 
z
" transform="scale(0.015625)"/>
      </defs>
      <use xlink:href="#DejaVuSans-43"/>
      <use xlink:href="#DejaVuSans-4c" x="69.824219"/>
      <use xlink:href="#DejaVuSans-4b" x="125.537109"/>
      <use xlink:href="#DejaVuSans-20" x="191.113281"/>
      <use xlink:href="#DejaVuSans-42" x="222.900391"/>
      <use xlink:href="#DejaVuSans-55" x="291.503906"/>
      <use xlink:href="#DejaVuSans-46" x="364.697266"/>
     </g>
    </g>
   </g>
   <g id="line2d_55">
    <path d="M 141.12 344.749454 
L 173.376 344.749454 
L 173.601792 295.497109 
L 213.696 295.497109 
L 213.760512 334.784518 
L 213.825024 344.731788 
L 213.889536 344.672723 
L 213.954048 344.836692 
L 214.01856 344.754987 
L 215.437824 344.745148 
L 223.824384 344.749367 
L 254.016 344.749426 
L 254.17728 295.345244 
L 254.241792 295.607929 
L 254.403072 295.4889 
L 254.854656 295.497109 
L 294.336 295.497109 
L 294.400512 334.750041 
L 294.465024 345.056818 
L 294.529536 344.343205 
L 294.626304 344.815041 
L 294.65856 344.785834 
L 294.884352 344.72781 
L 295.206912 344.765475 
L 295.497216 344.749134 
L 321.91488 344.749453 
L 334.656 344.749456 
L 334.81728 295.423229 
L 334.881792 295.513527 
L 335.204352 295.501213 
L 336.10752 295.497109 
L 374.976 295.497109 
L 375.040512 334.788212 
L 375.105024 344.751205 
L 375.169536 344.667519 
L 375.266304 344.818423 
L 375.29856 344.755124 
L 376.782336 344.744836 
L 385.4592 344.749367 
L 415.296 344.749454 
L 415.45728 295.345244 
L 415.521792 295.607929 
L 415.683072 295.484795 
L 416.683008 295.501213 
L 431.520768 295.603824 
L 433.165824 297.873587 
L 434.843136 300.635883 
L 441.74592 311.840628 
L 444.64896 316.07314 
L 447.777792 320.301136 
L 449.390592 322.311497 
L 450.680832 323.589624 
L 452.358144 325.084876 
L 455.648256 327.4396 
L 455.77728 326.710649 
L 455.809536 326.798074 
L 455.906304 329.870667 
L 456.228864 349.269542 
L 456.4224 349.512525 
L 457.325568 349.908605 
L 457.970688 349.588047 
L 458.099712 349.536331 
L 458.325504 349.442339 
L 459.357696 349.064319 
L 459.454464 349.02861 
L 459.80928 348.903835 
L 464.4864 347.413795 
L 468.873216 346.190012 
L 469.48608 346.039461 
L 471.614976 345.564042 
L 475.29216 344.890304 
L 480.29184 344.231613 
L 484.356096 344.228494 
L 484.581888 344.229438 
L 487.355904 344.26449 
L 490.807296 344.308161 
L 495.936 344.328191 
L 496.226304 310.509554 
L 497.516544 308.1458 
L 500.000256 302.971317 
L 503.064576 296.605311 
L 503.741952 295.279573 
L 505.999872 290.928853 
L 511.547904 281.271076 
L 512.54784 279.686757 
L 514.32192 276.965505 
L 521.773056 265.768559 
L 523.224576 265.68647 
L 525.676032 266.421167 
L 527.22432 267.086088 
L 529.095168 267.906979 
L 529.514496 268.091679 
L 531.191808 268.822272 
L 533.67552 269.885325 
L 534.998016 270.435321 
L 536.256 270.919647 
L 536.320512 345.76007 
L 536.449536 345.079692 
L 536.868864 345.078953 
L 542.06208 345.166526 
L 544.449024 345.222551 
L 557.964288 345.094772 
L 561.964032 345.078465 
L 576.576 344.968432 
L 576.705024 287.185592 
L 576.769536 287.300517 
L 577.285632 287.440068 
L 578.059776 287.620664 
L 578.543616 287.72738 
L 579.31776 287.907976 
L 579.704832 288.014692 
L 580.349952 288.154243 
L 580.76928 288.260959 
L 581.4144 288.40051 
L 581.930496 288.507226 
L 582.575616 288.646777 
L 583.091712 288.753493 
L 583.736832 288.893045 
L 584.252928 288.99976 
L 584.898048 289.139312 
L 585.510912 289.246027 
L 586.156032 289.385579 
L 586.768896 289.492295 
L 587.317248 289.590801 
L 587.833344 289.697517 
L 588.381696 289.796024 
L 588.99456 289.898635 
L 589.349376 289.960202 
L 589.96224 290.066918 
L 590.510592 290.165425 
L 591.123456 290.268036 
L 591.478272 290.329603 
L 592.187904 290.432214 
L 592.54272 290.493781 
L 593.252352 290.596392 
L 593.607168 290.657959 
L 594.3168 290.76057 
L 594.671616 290.822137 
L 595.381248 290.924749 
L 595.736064 290.986315 
L 596.542464 291.088927 
L 596.89728 291.150493 
L 597.800448 291.253105 
L 598.155264 291.314672 
L 599.058432 291.417283 
L 599.413248 291.47885 
L 600.316416 291.581461 
L 600.574464 291.601983 
L 601.380864 291.704595 
L 601.73568 291.762057 
L 607.154688 292.340785 
L 608.154624 292.443396 
L 608.412672 292.463918 
L 609.412608 292.56653 
L 609.670656 292.587052 
L 610.76736 292.689663 
L 611.025408 292.710185 
L 612.21888 292.812797 
L 612.476928 292.829215 
L 613.6704 292.93593 
L 613.928448 292.952348 
L 615.218688 293.059064 
L 615.476736 293.075482 
L 616.863744 293.182197 
L 616.896 293.198615 
L 616.928256 298.604179 
L 617.05728 344.755559 
L 617.186304 344.81321 
L 623.18592 344.801837 
L 657.216 344.767189 
L 657.345024 294.610547 
L 657.441792 294.885545 
L 658.34496 294.881441 
L 664.183296 294.988157 
L 664.441344 295.004574 
L 697.536 295.086663 
L 697.665024 345.064197 
L 697.826304 344.825285 
L 698.084352 344.733785 
L 698.439168 344.778465 
L 698.761728 344.760994 
L 737.856 344.761208 
L 738.01728 294.873232 
L 738.081792 295.337035 
L 738.17856 294.914276 
L 738.243072 295.070246 
L 738.726912 295.086663 
L 778.176 295.086663 
L 778.305024 345.063951 
L 778.466304 344.825285 
L 778.724352 344.733793 
L 779.079168 344.778443 
L 779.401728 344.760993 
L 818.496 344.761208 
L 818.65728 294.873232 
L 818.721792 295.337035 
L 818.81856 294.914276 
L 818.883072 295.070246 
L 819.366912 295.086663 
L 858.816 295.086663 
L 858.945024 345.064124 
L 859.106304 344.825244 
L 859.364352 344.733801 
L 859.719168 344.778454 
L 860.041728 344.760994 
L 899.136 344.761208 
L 899.29728 294.873232 
L 899.361792 295.337035 
L 899.45856 294.914276 
L 899.523072 295.070246 
L 900.006912 295.086663 
L 939.456 295.086663 
L 939.488256 302.486991 
L 939.61728 344.712386 
L 939.649536 344.831787 
L 939.714048 344.717529 
L 939.810816 344.734499 
L 940.004352 344.785787 
L 940.230144 344.759904 
L 945.9072 344.76121 
L 947.52 344.761199 
L 947.52 344.761199 
" clip-path="url(#pb66befb0a8)" style="fill: none; stroke: #0000ff; stroke-width: 2; stroke-linecap: square"/>
   </g>
   <g id="patch_16">
    <path d="M 100.8 354.165517 
L 100.8 261.434483 
" style="fill: none; stroke: #bcbcbc; stroke-width: 0.8; stroke-linejoin: miter; stroke-linecap: square"/>
   </g>
   <g id="patch_17">
    <path d="M 987.84 354.165517 
L 987.84 261.434483 
" style="fill: none; stroke: #bcbcbc; stroke-width: 0.8; stroke-linejoin: miter; stroke-linecap: square"/>
   </g>
   <g id="patch_18">
    <path d="M 100.8 354.165517 
L 987.84 354.165517 
" style="fill: none; stroke: #bcbcbc; stroke-width: 0.8; stroke-linejoin: miter; stroke-linecap: square"/>
   </g>
   <g id="patch_19">
    <path d="M 100.8 261.434483 
L 987.84 261.434483 
" style="fill: none; stroke: #bcbcbc; stroke-width: 0.8; stroke-linejoin: miter; stroke-linecap: square"/>
   </g>
  </g>
  <g id="axes_4">
   <g id="patch_20">
    <path d="M 100.8 465.442759 
L 987.84 465.442759 
L 987.84 372.711724 
L 100.8 372.711724 
z
" style="fill: #eeeeee"/>
   </g>
   <g id="matplotlib.axis_7">
    <g id="xtick_19">
     <g id="line2d_56">
      <path d="M 141.12 465.442759 
L 141.12 372.711724 
" clip-path="url(#pd4aa89fbd2)" style="fill: none; stroke-dasharray: 1.85,0.8; stroke-dashoffset: 0; stroke: #b2b2b2; stroke-width: 0.5"/>
     </g>
     <g id="line2d_57">
      <g>
       <use xlink:href="#mf5a58184ee" x="141.12" y="465.442759" style="stroke: #000000; stroke-width: 0.8"/>
      </g>
     </g>
    </g>
    <g id="xtick_20">
     <g id="line2d_58">
      <path d="M 302.4 465.442759 
L 302.4 372.711724 
" clip-path="url(#pd4aa89fbd2)" style="fill: none; stroke-dasharray: 1.85,0.8; stroke-dashoffset: 0; stroke: #b2b2b2; stroke-width: 0.5"/>
     </g>
     <g id="line2d_59">
      <g>
       <use xlink:href="#mf5a58184ee" x="302.4" y="465.442759" style="stroke: #000000; stroke-width: 0.8"/>
      </g>
     </g>
    </g>
    <g id="xtick_21">
     <g id="line2d_60">
      <path d="M 463.68 465.442759 
L 463.68 372.711724 
" clip-path="url(#pd4aa89fbd2)" style="fill: none; stroke-dasharray: 1.85,0.8; stroke-dashoffset: 0; stroke: #b2b2b2; stroke-width: 0.5"/>
     </g>
     <g id="line2d_61">
      <g>
       <use xlink:href="#mf5a58184ee" x="463.68" y="465.442759" style="stroke: #000000; stroke-width: 0.8"/>
      </g>
     </g>
    </g>
    <g id="xtick_22">
     <g id="line2d_62">
      <path d="M 624.96 465.442759 
L 624.96 372.711724 
" clip-path="url(#pd4aa89fbd2)" style="fill: none; stroke-dasharray: 1.85,0.8; stroke-dashoffset: 0; stroke: #b2b2b2; stroke-width: 0.5"/>
     </g>
     <g id="line2d_63">
      <g>
       <use xlink:href="#mf5a58184ee" x="624.96" y="465.442759" style="stroke: #000000; stroke-width: 0.8"/>
      </g>
     </g>
    </g>
    <g id="xtick_23">
     <g id="line2d_64">
      <path d="M 786.24 465.442759 
L 786.24 372.711724 
" clip-path="url(#pd4aa89fbd2)" style="fill: none; stroke-dasharray: 1.85,0.8; stroke-dashoffset: 0; stroke: #b2b2b2; stroke-width: 0.5"/>
     </g>
     <g id="line2d_65">
      <g>
       <use xlink:href="#mf5a58184ee" x="786.24" y="465.442759" style="stroke: #000000; stroke-width: 0.8"/>
      </g>
     </g>
    </g>
    <g id="xtick_24">
     <g id="line2d_66">
      <path d="M 947.52 465.442759 
L 947.52 372.711724 
" clip-path="url(#pd4aa89fbd2)" style="fill: none; stroke-dasharray: 1.85,0.8; stroke-dashoffset: 0; stroke: #b2b2b2; stroke-width: 0.5"/>
     </g>
     <g id="line2d_67">
      <g>
       <use xlink:href="#mf5a58184ee" x="947.52" y="465.442759" style="stroke: #000000; stroke-width: 0.8"/>
      </g>
     </g>
    </g>
   </g>
   <g id="matplotlib.axis_8">
    <g id="ytick_9">
     <g id="line2d_68">
      <path d="M 100.8 456.201002 
L 987.84 456.201002 
" clip-path="url(#pd4aa89fbd2)" style="fill: none; stroke-dasharray: 1.85,0.8; stroke-dashoffset: 0; stroke: #b2b2b2; stroke-width: 0.5"/>
     </g>
     <g id="line2d_69">
      <g>
       <use xlink:href="#mcda5930f2e" x="100.8" y="456.201002" style="stroke: #000000; stroke-width: 0.8"/>
      </g>
     </g>
     <g id="text_12">
      <!-- −1 V -->
      <g transform="translate(62.634688 461.519908) scale(0.14 -0.14)">
       <use xlink:href="#DejaVuSans-2212"/>
       <use xlink:href="#DejaVuSans-31" x="83.789062"/>
       <use xlink:href="#DejaVuSans-20" x="147.412109"/>
       <use xlink:href="#DejaVuSans-56" x="179.199219"/>
      </g>
     </g>
    </g>
    <g id="ytick_10">
     <g id="line2d_70">
      <path d="M 100.8 423.065142 
L 987.84 423.065142 
" clip-path="url(#pd4aa89fbd2)" style="fill: none; stroke-dasharray: 1.85,0.8; stroke-dashoffset: 0; stroke: #b2b2b2; stroke-width: 0.5"/>
     </g>
     <g id="line2d_71">
      <g>
       <use xlink:href="#mcda5930f2e" x="100.8" y="423.065142" style="stroke: #000000; stroke-width: 0.8"/>
      </g>
     </g>
     <g id="text_13">
      <!-- 0 V -->
      <g transform="translate(74.36625 428.384048) scale(0.14 -0.14)">
       <use xlink:href="#DejaVuSans-30"/>
       <use xlink:href="#DejaVuSans-20" x="63.623047"/>
       <use xlink:href="#DejaVuSans-56" x="95.410156"/>
      </g>
     </g>
    </g>
    <g id="ytick_11">
     <g id="line2d_72">
      <path d="M 100.8 389.929282 
L 987.84 389.929282 
" clip-path="url(#pd4aa89fbd2)" style="fill: none; stroke-dasharray: 1.85,0.8; stroke-dashoffset: 0; stroke: #b2b2b2; stroke-width: 0.5"/>
     </g>
     <g id="line2d_73">
      <g>
       <use xlink:href="#mcda5930f2e" x="100.8" y="389.929282" style="stroke: #000000; stroke-width: 0.8"/>
      </g>
     </g>
     <g id="text_14">
      <!-- 1 V -->
      <g transform="translate(74.36625 395.248189) scale(0.14 -0.14)">
       <use xlink:href="#DejaVuSans-31"/>
       <use xlink:href="#DejaVuSans-20" x="63.623047"/>
       <use xlink:href="#DejaVuSans-56" x="95.410156"/>
      </g>
     </g>
    </g>
    <g id="text_15">
     <g id="patch_21">
      <path d="M 34.8768 454.693023 
L 34.8768 383.46146 
L 11.247425 383.46146 
L 11.247425 454.693023 
z
" style="fill: #ffff00; opacity: 0.2; stroke: #eeeeee; stroke-width: 0.5; stroke-linejoin: miter"/>
     </g>
     <!-- DFF OUT -->
     <g transform="translate(26.925238 449.653023) rotate(-90) scale(0.14 -0.14)">
      <defs>
       <path id="DejaVuSans-4f" d="M 2522 4238 
Q 1834 4238 1429 3725 
Q 1025 3213 1025 2328 
Q 1025 1447 1429 934 
Q 1834 422 2522 422 
Q 3209 422 3611 934 
Q 4013 1447 4013 2328 
Q 4013 3213 3611 3725 
Q 3209 4238 2522 4238 
z
M 2522 4750 
Q 3503 4750 4090 4092 
Q 4678 3434 4678 2328 
Q 4678 1225 4090 567 
Q 3503 -91 2522 -91 
Q 1538 -91 948 565 
Q 359 1222 359 2328 
Q 359 3434 948 4092 
Q 1538 4750 2522 4750 
z
" transform="scale(0.015625)"/>
       <path id="DejaVuSans-54" d="M -19 4666 
L 3928 4666 
L 3928 4134 
L 2272 4134 
L 2272 0 
L 1638 0 
L 1638 4134 
L -19 4134 
L -19 4666 
z
" transform="scale(0.015625)"/>
      </defs>
      <use xlink:href="#DejaVuSans-44"/>
      <use xlink:href="#DejaVuSans-46" x="77.001953"/>
      <use xlink:href="#DejaVuSans-46" x="134.521484"/>
      <use xlink:href="#DejaVuSans-20" x="192.041016"/>
      <use xlink:href="#DejaVuSans-4f" x="223.828125"/>
      <use xlink:href="#DejaVuSans-55" x="302.539062"/>
      <use xlink:href="#DejaVuSans-54" x="375.732422"/>
     </g>
    </g>
   </g>
   <g id="line2d_74">
    <path d="M 141.12 398.063142 
L 173.408256 398.103568 
L 173.440512 399.475392 
L 173.601792 423.067164 
L 174.246912 423.064491 
L 186.407424 423.064247 
L 254.048256 423.065647 
L 254.080512 423.19811 
L 254.112768 422.978999 
L 254.306304 419.743935 
L 254.628864 419.000698 
L 254.693376 418.63289 
L 255.14496 412.827487 
L 255.370752 399.182803 
L 255.596544 383.623528 
L 255.757824 383.351814 
L 256.015872 383.302111 
L 295.755264 383.368382 
L 296.239104 385.512272 
L 296.59392 384.975471 
L 297.980928 383.567197 
L 299.690496 383.325306 
L 334.720512 383.219271 
L 334.752768 383.706368 
L 334.785024 386.115345 
L 334.914048 423.051559 
L 334.97856 423.022397 
L 335.13984 423.058197 
L 335.591424 423.064374 
L 373.105152 423.06423 
L 415.328256 423.065627 
L 415.360512 423.197652 
L 415.392768 422.980818 
L 415.586304 419.666728 
L 415.876608 418.905929 
L 415.908864 418.815137 
L 416.1024 414.884892 
L 416.521728 403.444406 
L 416.9088 383.411459 
L 417.102336 383.305424 
L 417.586176 383.315365 
L 418.295808 383.282229 
L 419.16672 383.302111 
L 431.520768 383.38495 
L 433.165824 385.227304 
L 439.423488 393.759788 
L 440.036352 395.022927 
L 440.391168 395.856956 
L 440.45568 395.936151 
L 441.74592 400.731573 
L 441.939456 401.509934 
L 441.971712 401.332326 
L 442.003968 401.277983 
L 442.036224 401.352207 
L 442.06848 401.426763 
L 442.22976 402.595133 
L 443.068416 405.884862 
L 443.100672 405.809975 
L 443.19744 405.861004 
L 443.294208 406.153593 
L 443.455488 407.372993 
L 443.778048 408.575493 
L 443.810304 408.22823 
L 443.84256 408.820367 
L 443.874816 408.787894 
L 444.068352 409.773023 
L 446.90688 420.535783 
L 446.939136 419.982513 
L 447.003648 420.670977 
L 447.197184 421.491951 
L 448.164864 424.660236 
L 448.19712 424.428915 
L 448.390656 424.930592 
L 448.616448 426.030835 
L 449.00352 426.902937 
L 449.035776 426.800879 
L 449.068032 426.865825 
L 449.261568 427.449016 
L 449.293824 427.312828 
L 449.358336 427.43278 
L 449.390592 427.495738 
L 449.48736 427.985817 
L 449.519616 427.800588 
L 450.003456 429.102496 
L 450.487296 429.950111 
L 450.519552 429.7059 
L 450.584064 429.813923 
L 450.7776 430.132027 
L 450.809856 430.197305 
L 450.971136 430.828874 
L 454.777344 437.9839 
L 454.906368 438.195638 
L 454.938624 461.227712 
L 455.003136 438.265555 
L 455.390208 439.026354 
L 457.261056 441.90089 
L 457.519104 441.75443 
L 458.19648 440.745443 
L 458.648064 439.956478 
L 458.68032 440.061187 
L 458.712576 439.867342 
L 458.744832 439.940241 
L 459.228672 439.171158 
L 459.260928 439.191702 
L 459.357696 438.545553 
L 459.389952 439.062472 
L 459.454464 438.954781 
L 459.583488 438.750995 
L 460.29312 437.815901 
L 460.325376 437.963025 
L 460.357632 437.754931 
L 460.744704 437.36194 
L 460.77696 437.427218 
L 460.809216 437.438153 
L 460.93824 437.156498 
L 461.196288 437.053777 
L 461.228544 436.913281 
L 461.325312 436.947742 
L 463.19616 434.988418 
L 463.228416 435.155092 
L 463.292928 434.915188 
L 463.325184 435.085175 
L 463.647744 434.667001 
L 464.228352 434.307477 
L 464.550912 433.807125 
L 464.744448 433.614274 
L 464.776704 433.665966 
L 464.80896 433.552642 
L 464.841216 433.575174 
L 465.002496 433.358466 
L 465.744384 432.710659 
L 466.002432 432.538353 
L 466.034688 432.718943 
L 466.0992 432.533051 
L 466.131456 432.534377 
L 466.26048 432.39852 
L 467.324928 431.631756 
L 467.453952 431.236114 
L 467.486208 431.307356 
L 467.518464 431.143996 
L 467.55072 431.134387 
L 467.582976 431.399805 
L 467.647488 431.050884 
L 467.679744 431.310338 
L 467.808768 430.913039 
L 467.841024 431.189061 
L 467.905536 430.859028 
L 467.970048 430.903098 
L 468.131328 430.634698 
L 468.163584 430.92066 
L 468.19584 430.562462 
L 468.228096 430.564781 
L 468.260352 430.706271 
L 468.292608 430.487575 
L 468.324864 430.479622 
L 468.35712 430.748354 
L 468.389376 430.405398 
L 468.453888 430.670153 
L 468.582912 430.278156 
L 468.615168 430.281138 
L 468.647424 430.455764 
L 468.744192 430.43025 
L 468.873216 430.154891 
L 469.16352 430.051838 
L 469.3248 430.00346 
L 470.1312 429.093549 
L 470.260224 428.92787 
L 470.29248 429.175395 
L 470.356992 429.126685 
L 470.582784 428.598168 
L 470.840832 428.38643 
L 470.873088 428.721433 
L 470.9376 428.414927 
L 471.09888 428.163094 
L 471.163392 428.458997 
L 471.195648 428.152159 
L 471.614976 427.894694 
L 471.873024 427.788659 
L 471.90528 427.881439 
L 471.969792 427.795286 
L 472.163328 427.741606 
L 472.292352 427.661086 
L 473.389056 426.845944 
L 473.614848 426.652762 
L 473.743872 426.156154 
L 473.808384 426.1094 
L 473.84064 426.316002 
L 473.872896 426.244395 
L 473.905152 425.963569 
L 473.969664 426.312688 
L 474.00192 425.992331 
L 474.066432 426.283529 
L 474.098688 425.93706 
L 474.259968 425.753885 
L 474.356736 425.977884 
L 474.388992 425.768399 
L 474.48576 425.587411 
L 474.518016 425.816578 
L 474.550272 425.509111 
L 474.582528 425.519283 
L 474.614784 425.532107 
L 474.64704 425.858363 
L 474.711552 425.617067 
L 474.743808 425.693445 
L 474.776064 425.562724 
L 474.80832 425.659017 
L 474.9696 425.372988 
L 475.001856 425.401386 
L 475.034112 425.474583 
L 475.098624 425.403937 
L 475.45344 425.256052 
L 476.74368 424.136623 
L 477.001728 423.816862 
L 477.06624 423.225211 
L 477.163008 423.285042 
L 477.195264 423.505982 
L 477.22752 423.093765 
L 477.259776 423.43802 
L 477.292032 423.393406 
L 477.3888 423.059435 
L 477.421056 423.078078 
L 477.55008 423.05116 
L 478.388736 421.827286 
L 478.485504 421.120929 
L 478.51776 421.632745 
L 478.582272 421.047367 
L 478.614528 421.308478 
L 478.646784 420.892954 
L 478.808064 420.852826 
L 478.872576 420.856935 
L 478.904832 421.037393 
L 478.969344 420.925029 
L 479.066112 420.777409 
L 479.937024 419.450683 
L 480.066048 418.668345 
L 480.098304 419.129596 
L 480.195072 418.937408 
L 480.227328 418.620961 
L 480.324096 418.666025 
L 480.45312 418.577221 
L 481.614336 416.800808 
L 481.646592 416.470775 
L 481.74336 416.514845 
L 482.614272 415.099613 
L 482.646528 415.143352 
L 482.678784 415.002193 
L 482.87232 414.574078 
L 482.904576 414.483949 
L 482.936832 414.666858 
L 482.969088 414.614504 
L 483.001344 414.624113 
L 483.162624 414.240069 
L 483.969024 412.862942 
L 484.00128 412.947107 
L 484.065792 412.842729 
L 485.807616 409.778656 
L 485.839872 409.460552 
L 485.93664 409.504623 
L 486.001152 409.542729 
L 486.033408 409.497996 
L 486.517248 408.615588 
L 487.162368 407.626482 
L 487.291392 406.972712 
L 487.452672 407.252379 
L 487.807488 406.72585 
L 488.807424 405.166145 
L 488.83968 404.726763 
L 488.904192 404.845721 
L 488.936448 405.079329 
L 488.968704 404.794692 
L 489.00096 404.820206 
L 489.065472 404.902052 
L 489.097728 404.860964 
L 489.80736 403.770131 
L 490.581504 402.844646 
L 490.61376 402.870161 
L 490.646016 402.822445 
L 491.387904 401.713388 
L 492.258816 400.735549 
L 492.936192 400.016169 
L 493.484544 399.272932 
L 493.645824 398.971727 
L 494.16192 398.620156 
L 494.290944 398.57476 
L 494.548992 398.299732 
L 495.387648 397.295715 
L 495.581184 396.916641 
L 495.839232 396.78476 
L 496.032768 396.623057 
L 496.065024 396.479248 
L 496.09728 396.93354 
L 496.194048 410.486438 
L 496.323072 422.363689 
L 496.355328 422.35007 
L 496.710144 422.154138 
L 497.613312 421.827153 
L 498.871296 421.646596 
L 501.000192 421.610014 
L 508.032 421.822183 
L 516.063744 421.975602 
L 518.805504 421.979346 
L 521.805312 422.131572 
L 522.514944 422.662806 
L 523.385856 423.014093 
L 524.547072 423.233114 
L 526.514688 423.351946 
L 531.965952 423.369929 
L 543.932928 423.448822 
L 550.577664 423.406209 
L 576.608256 423.244791 
L 576.640512 423.458564 
L 576.963072 417.972492 
L 577.188864 416.867411 
L 577.350144 414.807023 
L 577.511424 408.868414 
L 577.70496 391.53107 
L 577.898496 377.287952 
L 577.963008 376.926771 
L 578.02752 376.946653 
L 578.479104 377.009611 
L 579.608064 377.241562 
L 580.253184 377.347597 
L 580.833792 377.473513 
L 581.511168 377.579548 
L 582.027264 377.672328 
L 582.672384 377.778363 
L 583.18848 377.871143 
L 583.8336 377.977178 
L 584.349696 378.069958 
L 584.994816 378.175993 
L 585.414144 378.235638 
L 586.059264 378.341672 
L 586.478592 378.401317 
L 587.123712 378.507352 
L 587.54304 378.566996 
L 588.284928 378.673031 
L 589.059072 378.798947 
L 589.929984 378.904982 
L 590.349312 378.964627 
L 591.0912 379.070661 
L 591.768576 379.163442 
L 592.639488 379.269476 
L 593.316864 379.362257 
L 594.284544 379.468292 
L 594.96192 379.561072 
L 595.9296 379.667107 
L 596.606976 379.759887 
L 597.768192 379.865922 
L 598.445568 379.958702 
L 599.606784 380.064737 
L 600.155136 380.124382 
L 601.348608 380.230416 
L 601.89696 380.290061 
L 603.090432 380.396096 
L 603.638784 380.45574 
L 604.929024 380.561775 
L 605.477376 380.62142 
L 606.864384 380.727454 
L 607.412736 380.787099 
L 608.99328 380.893134 
L 609.541632 380.952778 
L 611.218944 381.058813 
L 611.767296 381.115144 
L 614.4768 381.284137 
L 616.25088 381.390171 
L 616.702464 381.41668 
L 618.573312 381.522715 
L 619.024896 381.54591 
L 621.41184 381.681767 
L 623.605248 381.787802 
L 624.056832 381.81431 
L 624.79872 381.847446 
L 627.282432 381.953481 
L 627.734016 381.97999 
L 628.50816 382.009812 
L 631.443456 382.11916 
L 631.89504 382.142355 
L 633.636864 382.211941 
L 634.378752 382.245077 
L 638.313984 382.351111 
L 638.765568 382.37762 
L 639.539712 382.404129 
L 640.958976 382.440578 
L 645.76512 382.549927 
L 646.216704 382.573122 
L 651.861504 382.68247 
L 652.313088 382.705665 
L 657.248256 382.758682 
L 657.280512 382.960811 
L 657.345024 382.745428 
L 657.53856 382.801759 
L 666.73152 382.90448 
L 667.21536 382.94093 
L 668.312064 382.937616 
L 737.888256 382.967438 
L 737.920512 383.136431 
L 737.985024 382.967438 
L 738.210816 382.954184 
L 738.597888 382.960811 
L 818.528256 382.967438 
L 818.560512 383.136431 
L 818.625024 382.967438 
L 818.850816 382.954184 
L 819.237888 382.960811 
L 899.168256 382.967438 
L 899.200512 383.136431 
L 899.265024 382.967438 
L 899.490816 382.954184 
L 899.877888 382.960811 
L 947.52 382.970752 
L 947.52 382.970752 
" clip-path="url(#pd4aa89fbd2)" style="fill: none; stroke: #ff00ff; stroke-width: 2; stroke-linecap: square"/>
   </g>
   <g id="patch_22">
    <path d="M 100.8 465.442759 
L 100.8 372.711724 
" style="fill: none; stroke: #bcbcbc; stroke-width: 0.8; stroke-linejoin: miter; stroke-linecap: square"/>
   </g>
   <g id="patch_23">
    <path d="M 987.84 465.442759 
L 987.84 372.711724 
" style="fill: none; stroke: #bcbcbc; stroke-width: 0.8; stroke-linejoin: miter; stroke-linecap: square"/>
   </g>
   <g id="patch_24">
    <path d="M 100.8 465.442759 
L 987.84 465.442759 
" style="fill: none; stroke: #bcbcbc; stroke-width: 0.8; stroke-linejoin: miter; stroke-linecap: square"/>
   </g>
   <g id="patch_25">
    <path d="M 100.8 372.711724 
L 987.84 372.711724 
" style="fill: none; stroke: #bcbcbc; stroke-width: 0.8; stroke-linejoin: miter; stroke-linecap: square"/>
   </g>
  </g>
  <g id="axes_5">
   <g id="patch_26">
    <path d="M 100.8 576.72 
L 987.84 576.72 
L 987.84 483.988966 
L 100.8 483.988966 
z
" style="fill: #eeeeee"/>
   </g>
   <g id="matplotlib.axis_9">
    <g id="xtick_25">
     <g id="line2d_75">
      <path d="M 141.12 576.72 
L 141.12 483.988966 
" clip-path="url(#p485696b8d8)" style="fill: none; stroke-dasharray: 1.85,0.8; stroke-dashoffset: 0; stroke: #b2b2b2; stroke-width: 0.5"/>
     </g>
     <g id="line2d_76">
      <g>
       <use xlink:href="#mf5a58184ee" x="141.12" y="576.72" style="stroke: #000000; stroke-width: 0.8"/>
      </g>
     </g>
     <g id="text_16">
      <!-- 0 s -->
      <g transform="translate(130.795 590.857813) scale(0.14 -0.14)">
       <defs>
        <path id="DejaVuSans-73" d="M 2834 3397 
L 2834 2853 
Q 2591 2978 2328 3040 
Q 2066 3103 1784 3103 
Q 1356 3103 1142 2972 
Q 928 2841 928 2578 
Q 928 2378 1081 2264 
Q 1234 2150 1697 2047 
L 1894 2003 
Q 2506 1872 2764 1633 
Q 3022 1394 3022 966 
Q 3022 478 2636 193 
Q 2250 -91 1575 -91 
Q 1294 -91 989 -36 
Q 684 19 347 128 
L 347 722 
Q 666 556 975 473 
Q 1284 391 1588 391 
Q 1994 391 2212 530 
Q 2431 669 2431 922 
Q 2431 1156 2273 1281 
Q 2116 1406 1581 1522 
L 1381 1569 
Q 847 1681 609 1914 
Q 372 2147 372 2553 
Q 372 3047 722 3315 
Q 1072 3584 1716 3584 
Q 2034 3584 2315 3537 
Q 2597 3491 2834 3397 
z
" transform="scale(0.015625)"/>
       </defs>
       <use xlink:href="#DejaVuSans-30"/>
       <use xlink:href="#DejaVuSans-20" x="63.623047"/>
       <use xlink:href="#DejaVuSans-73" x="95.410156"/>
      </g>
     </g>
    </g>
    <g id="xtick_26">
     <g id="line2d_77">
      <path d="M 302.4 576.72 
L 302.4 483.988966 
" clip-path="url(#p485696b8d8)" style="fill: none; stroke-dasharray: 1.85,0.8; stroke-dashoffset: 0; stroke: #b2b2b2; stroke-width: 0.5"/>
     </g>
     <g id="line2d_78">
      <g>
       <use xlink:href="#mf5a58184ee" x="302.4" y="576.72" style="stroke: #000000; stroke-width: 0.8"/>
      </g>
     </g>
     <g id="text_17">
      <!-- 50 ns -->
      <g transform="translate(283.185 590.857813) scale(0.14 -0.14)">
       <defs>
        <path id="DejaVuSans-35" d="M 691 4666 
L 3169 4666 
L 3169 4134 
L 1269 4134 
L 1269 2991 
Q 1406 3038 1543 3061 
Q 1681 3084 1819 3084 
Q 2600 3084 3056 2656 
Q 3513 2228 3513 1497 
Q 3513 744 3044 326 
Q 2575 -91 1722 -91 
Q 1428 -91 1123 -41 
Q 819 9 494 109 
L 494 744 
Q 775 591 1075 516 
Q 1375 441 1709 441 
Q 2250 441 2565 725 
Q 2881 1009 2881 1497 
Q 2881 1984 2565 2268 
Q 2250 2553 1709 2553 
Q 1456 2553 1204 2497 
Q 953 2441 691 2322 
L 691 4666 
z
" transform="scale(0.015625)"/>
        <path id="DejaVuSans-6e" d="M 3513 2113 
L 3513 0 
L 2938 0 
L 2938 2094 
Q 2938 2591 2744 2837 
Q 2550 3084 2163 3084 
Q 1697 3084 1428 2787 
Q 1159 2491 1159 1978 
L 1159 0 
L 581 0 
L 581 3500 
L 1159 3500 
L 1159 2956 
Q 1366 3272 1645 3428 
Q 1925 3584 2291 3584 
Q 2894 3584 3203 3211 
Q 3513 2838 3513 2113 
z
" transform="scale(0.015625)"/>
       </defs>
       <use xlink:href="#DejaVuSans-35"/>
       <use xlink:href="#DejaVuSans-30" x="63.623047"/>
       <use xlink:href="#DejaVuSans-20" x="127.246094"/>
       <use xlink:href="#DejaVuSans-6e" x="159.033203"/>
       <use xlink:href="#DejaVuSans-73" x="222.412109"/>
      </g>
     </g>
    </g>
    <g id="xtick_27">
     <g id="line2d_79">
      <path d="M 463.68 576.72 
L 463.68 483.988966 
" clip-path="url(#p485696b8d8)" style="fill: none; stroke-dasharray: 1.85,0.8; stroke-dashoffset: 0; stroke: #b2b2b2; stroke-width: 0.5"/>
     </g>
     <g id="line2d_80">
      <g>
       <use xlink:href="#mf5a58184ee" x="463.68" y="576.72" style="stroke: #000000; stroke-width: 0.8"/>
      </g>
     </g>
     <g id="text_18">
      <!-- 100 ns -->
      <g transform="translate(440.01125 590.857813) scale(0.14 -0.14)">
       <use xlink:href="#DejaVuSans-31"/>
       <use xlink:href="#DejaVuSans-30" x="63.623047"/>
       <use xlink:href="#DejaVuSans-30" x="127.246094"/>
       <use xlink:href="#DejaVuSans-20" x="190.869141"/>
       <use xlink:href="#DejaVuSans-6e" x="222.65625"/>
       <use xlink:href="#DejaVuSans-73" x="286.035156"/>
      </g>
     </g>
    </g>
    <g id="xtick_28">
     <g id="line2d_81">
      <path d="M 624.96 576.72 
L 624.96 483.988966 
" clip-path="url(#p485696b8d8)" style="fill: none; stroke-dasharray: 1.85,0.8; stroke-dashoffset: 0; stroke: #b2b2b2; stroke-width: 0.5"/>
     </g>
     <g id="line2d_82">
      <g>
       <use xlink:href="#mf5a58184ee" x="624.96" y="576.72" style="stroke: #000000; stroke-width: 0.8"/>
      </g>
     </g>
     <g id="text_19">
      <!-- 150 ns -->
      <g transform="translate(601.29125 590.857813) scale(0.14 -0.14)">
       <use xlink:href="#DejaVuSans-31"/>
       <use xlink:href="#DejaVuSans-35" x="63.623047"/>
       <use xlink:href="#DejaVuSans-30" x="127.246094"/>
       <use xlink:href="#DejaVuSans-20" x="190.869141"/>
       <use xlink:href="#DejaVuSans-6e" x="222.65625"/>
       <use xlink:href="#DejaVuSans-73" x="286.035156"/>
      </g>
     </g>
    </g>
    <g id="xtick_29">
     <g id="line2d_83">
      <path d="M 786.24 576.72 
L 786.24 483.988966 
" clip-path="url(#p485696b8d8)" style="fill: none; stroke-dasharray: 1.85,0.8; stroke-dashoffset: 0; stroke: #b2b2b2; stroke-width: 0.5"/>
     </g>
     <g id="line2d_84">
      <g>
       <use xlink:href="#mf5a58184ee" x="786.24" y="576.72" style="stroke: #000000; stroke-width: 0.8"/>
      </g>
     </g>
     <g id="text_20">
      <!-- 200 ns -->
      <g transform="translate(762.57125 590.857813) scale(0.14 -0.14)">
       <use xlink:href="#DejaVuSans-32"/>
       <use xlink:href="#DejaVuSans-30" x="63.623047"/>
       <use xlink:href="#DejaVuSans-30" x="127.246094"/>
       <use xlink:href="#DejaVuSans-20" x="190.869141"/>
       <use xlink:href="#DejaVuSans-6e" x="222.65625"/>
       <use xlink:href="#DejaVuSans-73" x="286.035156"/>
      </g>
     </g>
    </g>
    <g id="xtick_30">
     <g id="line2d_85">
      <path d="M 947.52 576.72 
L 947.52 483.988966 
" clip-path="url(#p485696b8d8)" style="fill: none; stroke-dasharray: 1.85,0.8; stroke-dashoffset: 0; stroke: #b2b2b2; stroke-width: 0.5"/>
     </g>
     <g id="line2d_86">
      <g>
       <use xlink:href="#mf5a58184ee" x="947.52" y="576.72" style="stroke: #000000; stroke-width: 0.8"/>
      </g>
     </g>
     <g id="text_21">
      <!-- 250 ns -->
      <g transform="translate(923.85125 590.857813) scale(0.14 -0.14)">
       <use xlink:href="#DejaVuSans-32"/>
       <use xlink:href="#DejaVuSans-35" x="63.623047"/>
       <use xlink:href="#DejaVuSans-30" x="127.246094"/>
       <use xlink:href="#DejaVuSans-20" x="190.869141"/>
       <use xlink:href="#DejaVuSans-6e" x="222.65625"/>
       <use xlink:href="#DejaVuSans-73" x="286.035156"/>
      </g>
     </g>
    </g>
    <g id="text_22">
     <!-- Time -->
     <g transform="translate(527.192969 608.407187) scale(0.14 -0.14)">
      <defs>
       <path id="DejaVuSans-69" d="M 603 3500 
L 1178 3500 
L 1178 0 
L 603 0 
L 603 3500 
z
M 603 4863 
L 1178 4863 
L 1178 4134 
L 603 4134 
L 603 4863 
z
" transform="scale(0.015625)"/>
       <path id="DejaVuSans-6d" d="M 3328 2828 
Q 3544 3216 3844 3400 
Q 4144 3584 4550 3584 
Q 5097 3584 5394 3201 
Q 5691 2819 5691 2113 
L 5691 0 
L 5113 0 
L 5113 2094 
Q 5113 2597 4934 2840 
Q 4756 3084 4391 3084 
Q 3944 3084 3684 2787 
Q 3425 2491 3425 1978 
L 3425 0 
L 2847 0 
L 2847 2094 
Q 2847 2600 2669 2842 
Q 2491 3084 2119 3084 
Q 1678 3084 1418 2786 
Q 1159 2488 1159 1978 
L 1159 0 
L 581 0 
L 581 3500 
L 1159 3500 
L 1159 2956 
Q 1356 3278 1631 3431 
Q 1906 3584 2284 3584 
Q 2666 3584 2933 3390 
Q 3200 3197 3328 2828 
z
" transform="scale(0.015625)"/>
       <path id="DejaVuSans-65" d="M 3597 1894 
L 3597 1613 
L 953 1613 
Q 991 1019 1311 708 
Q 1631 397 2203 397 
Q 2534 397 2845 478 
Q 3156 559 3463 722 
L 3463 178 
Q 3153 47 2828 -22 
Q 2503 -91 2169 -91 
Q 1331 -91 842 396 
Q 353 884 353 1716 
Q 353 2575 817 3079 
Q 1281 3584 2069 3584 
Q 2775 3584 3186 3129 
Q 3597 2675 3597 1894 
z
M 3022 2063 
Q 3016 2534 2758 2815 
Q 2500 3097 2075 3097 
Q 1594 3097 1305 2825 
Q 1016 2553 972 2059 
L 3022 2063 
z
" transform="scale(0.015625)"/>
      </defs>
      <use xlink:href="#DejaVuSans-54"/>
      <use xlink:href="#DejaVuSans-69" x="57.958984"/>
      <use xlink:href="#DejaVuSans-6d" x="85.742188"/>
      <use xlink:href="#DejaVuSans-65" x="183.154297"/>
     </g>
    </g>
   </g>
   <g id="matplotlib.axis_10">
    <g id="ytick_12">
     <g id="line2d_87">
      <path d="M 100.8 569.745885 
L 987.84 569.745885 
" clip-path="url(#p485696b8d8)" style="fill: none; stroke-dasharray: 1.85,0.8; stroke-dashoffset: 0; stroke: #b2b2b2; stroke-width: 0.5"/>
     </g>
     <g id="line2d_88">
      <g>
       <use xlink:href="#mcda5930f2e" x="100.8" y="569.745885" style="stroke: #000000; stroke-width: 0.8"/>
      </g>
     </g>
     <g id="text_23">
      <!-- 0 V -->
      <g transform="translate(74.36625 575.064792) scale(0.14 -0.14)">
       <use xlink:href="#DejaVuSans-30"/>
       <use xlink:href="#DejaVuSans-20" x="63.623047"/>
       <use xlink:href="#DejaVuSans-56" x="95.410156"/>
      </g>
     </g>
    </g>
    <g id="ytick_13">
     <g id="line2d_89">
      <path d="M 100.8 535.950348 
L 987.84 535.950348 
" clip-path="url(#p485696b8d8)" style="fill: none; stroke-dasharray: 1.85,0.8; stroke-dashoffset: 0; stroke: #b2b2b2; stroke-width: 0.5"/>
     </g>
     <g id="line2d_90">
      <g>
       <use xlink:href="#mcda5930f2e" x="100.8" y="535.950348" style="stroke: #000000; stroke-width: 0.8"/>
      </g>
     </g>
     <g id="text_24">
      <!-- 500 mV -->
      <g transform="translate(42.914375 541.269254) scale(0.14 -0.14)">
       <use xlink:href="#DejaVuSans-35"/>
       <use xlink:href="#DejaVuSans-30" x="63.623047"/>
       <use xlink:href="#DejaVuSans-30" x="127.246094"/>
       <use xlink:href="#DejaVuSans-20" x="190.869141"/>
       <use xlink:href="#DejaVuSans-6d" x="222.65625"/>
       <use xlink:href="#DejaVuSans-56" x="320.068359"/>
      </g>
     </g>
    </g>
    <g id="ytick_14">
     <g id="line2d_91">
      <path d="M 100.8 502.15481 
L 987.84 502.15481 
" clip-path="url(#p485696b8d8)" style="fill: none; stroke-dasharray: 1.85,0.8; stroke-dashoffset: 0; stroke: #b2b2b2; stroke-width: 0.5"/>
     </g>
     <g id="line2d_92">
      <g>
       <use xlink:href="#mcda5930f2e" x="100.8" y="502.15481" style="stroke: #000000; stroke-width: 0.8"/>
      </g>
     </g>
     <g id="text_25">
      <!-- 1 V -->
      <g transform="translate(74.36625 507.473717) scale(0.14 -0.14)">
       <use xlink:href="#DejaVuSans-31"/>
       <use xlink:href="#DejaVuSans-20" x="63.623047"/>
       <use xlink:href="#DejaVuSans-56" x="95.410156"/>
      </g>
     </g>
    </g>
    <g id="text_26">
     <g id="patch_27">
      <path d="M 34.8768 554.329483 
L 34.8768 506.379483 
L 11.247425 506.379483 
L 11.247425 554.329483 
z
" style="fill: #ffff00; opacity: 0.2; stroke: #eeeeee; stroke-width: 0.5; stroke-linejoin: miter"/>
     </g>
     <!-- FOUT -->
     <g transform="translate(26.925238 549.289483) rotate(-90) scale(0.14 -0.14)">
      <use xlink:href="#DejaVuSans-46"/>
      <use xlink:href="#DejaVuSans-4f" x="57.519531"/>
      <use xlink:href="#DejaVuSans-55" x="136.230469"/>
      <use xlink:href="#DejaVuSans-54" x="209.423828"/>
     </g>
    </g>
   </g>
   <g id="line2d_93">
    <path d="M 141.12 488.636595 
L 173.472768 488.643355 
L 173.505024 488.44734 
L 173.569536 526.789729 
L 173.69856 572.504953 
L 173.730816 572.3695 
L 173.827584 567.842115 
L 173.892096 569.3609 
L 174.053376 570.064192 
L 174.117888 569.946665 
L 174.408192 569.492054 
L 174.440448 569.54151 
L 174.66624 569.729954 
L 176.182272 569.740151 
L 180.117504 569.761449 
L 193.568256 569.752159 
L 212.954112 569.74401 
L 255.30624 569.743704 
L 255.6288 488.52845 
L 255.854592 488.670391 
L 256.209408 488.629836 
L 334.849536 488.650114 
L 334.881792 492.854278 
L 335.043072 572.18376 
L 335.107584 570.261206 
L 335.172096 568.338639 
L 335.236608 568.870108 
L 335.365632 570.783003 
L 335.430144 570.410083 
L 335.591424 569.797213 
L 335.881728 569.648439 
L 336.559104 569.817924 
L 337.107456 569.746143 
L 350.009856 569.744206 
L 416.489472 569.743329 
L 416.553984 567.515109 
L 416.812032 488.204013 
L 416.844288 488.339195 
L 416.973312 488.846128 
L 417.037824 488.778537 
L 417.39264 488.548727 
L 417.844224 488.717705 
L 418.457088 488.562245 
L 419.328 488.636595 
L 442.810368 488.582523 
L 442.87488 488.325676 
L 442.907136 489.467966 
L 443.003904 551.992414 
L 443.100672 569.924258 
L 443.132928 569.765789 
L 443.294208 569.744222 
L 448.84224 569.744207 
L 489.388032 569.743545 
L 489.420288 567.490844 
L 489.742848 488.656873 
L 490.065408 488.636595 
L 496.194048 488.656873 
L 496.226304 488.98131 
L 496.355328 571.545903 
L 496.548864 569.74414 
L 510.193152 569.744207 
L 577.608192 569.734908 
L 577.640448 569.330579 
L 577.70496 541.099436 
L 577.86624 489.244915 
L 577.963008 488.541968 
L 578.02752 488.629836 
L 578.575872 488.636595 
L 947.52 488.636595 
L 947.52 488.636595 
" clip-path="url(#p485696b8d8)" style="fill: none; stroke: #ff00ff; stroke-width: 2; stroke-linecap: square"/>
   </g>
   <g id="patch_28">
    <path d="M 100.8 576.72 
L 100.8 483.988966 
" style="fill: none; stroke: #bcbcbc; stroke-width: 0.8; stroke-linejoin: miter; stroke-linecap: square"/>
   </g>
   <g id="patch_29">
    <path d="M 987.84 576.72 
L 987.84 483.988966 
" style="fill: none; stroke: #bcbcbc; stroke-width: 0.8; stroke-linejoin: miter; stroke-linecap: square"/>
   </g>
   <g id="patch_30">
    <path d="M 100.8 576.72 
L 987.84 576.72 
" style="fill: none; stroke: #bcbcbc; stroke-width: 0.8; stroke-linejoin: miter; stroke-linecap: square"/>
   </g>
   <g id="patch_31">
    <path d="M 100.8 483.988966 
L 987.84 483.988966 
" style="fill: none; stroke: #bcbcbc; stroke-width: 0.8; stroke-linejoin: miter; stroke-linecap: square"/>
   </g>
  </g>
  <g id="axes_6">
   <g id="patch_32">
    <path d="M 201.6 628.56 
L 856.8 628.56 
L 856.8 615.6 
L 201.6 615.6 
z
" clip-path="url(#pfa7ff05bca)" style="fill: #d3d3d3"/>
   </g>
   <g id="patch_33">
    <path d="M 201.6 628.56 
L 547.92 628.56 
L 547.92 615.6 
L 201.6 615.6 
z
" clip-path="url(#pfa7ff05bca)" style="fill: #0000ff"/>
   </g>
   <g id="line2d_94">
    <path d="M 201.6 635.04 
L 201.6 609.12 
" clip-path="url(#pc5824968fb)" style="fill: none; stroke: #ff0000; stroke-linecap: square"/>
   </g>
   <g id="line2d_95">
    <defs>
     <path id="mb59d6139ea" d="M 0 5 
C 1.326016 5 2.597899 4.473168 3.535534 3.535534 
C 4.473168 2.597899 5 1.326016 5 0 
C 5 -1.326016 4.473168 -2.597899 3.535534 -3.535534 
C 2.597899 -4.473168 1.326016 -5 0 -5 
C -1.326016 -5 -2.597899 -4.473168 -3.535534 -3.535534 
C -4.473168 -2.597899 -5 -1.326016 -5 0 
C -5 1.326016 -4.473168 2.597899 -3.535534 3.535534 
C -2.597899 4.473168 -1.326016 5 0 5 
z
" style="stroke: #bfbfbf"/>
    </defs>
    <g>
     <use xlink:href="#mb59d6139ea" x="547.92" y="622.08" style="fill: #ffffff; stroke: #bfbfbf"/>
    </g>
   </g>
   <g id="text_27">
    <!-- #Sweep -->
    <g transform="translate(138.622875 625.39125) scale(0.12 -0.12)">
     <defs>
      <path id="DejaVuSans-23" d="M 3272 2816 
L 2363 2816 
L 2100 1772 
L 3016 1772 
L 3272 2816 
z
M 2803 4594 
L 2478 3297 
L 3391 3297 
L 3719 4594 
L 4219 4594 
L 3897 3297 
L 4872 3297 
L 4872 2816 
L 3775 2816 
L 3519 1772 
L 4513 1772 
L 4513 1294 
L 3397 1294 
L 3072 0 
L 2572 0 
L 2894 1294 
L 1978 1294 
L 1656 0 
L 1153 0 
L 1478 1294 
L 494 1294 
L 494 1772 
L 1594 1772 
L 1856 2816 
L 850 2816 
L 850 3297 
L 1978 3297 
L 2297 4594 
L 2803 4594 
z
" transform="scale(0.015625)"/>
      <path id="DejaVuSans-77" d="M 269 3500 
L 844 3500 
L 1563 769 
L 2278 3500 
L 2956 3500 
L 3675 769 
L 4391 3500 
L 4966 3500 
L 4050 0 
L 3372 0 
L 2619 2869 
L 1863 0 
L 1184 0 
L 269 3500 
z
" transform="scale(0.015625)"/>
      <path id="DejaVuSans-70" d="M 1159 525 
L 1159 -1331 
L 581 -1331 
L 581 3500 
L 1159 3500 
L 1159 2969 
Q 1341 3281 1617 3432 
Q 1894 3584 2278 3584 
Q 2916 3584 3314 3078 
Q 3713 2572 3713 1747 
Q 3713 922 3314 415 
Q 2916 -91 2278 -91 
Q 1894 -91 1617 61 
Q 1341 213 1159 525 
z
M 3116 1747 
Q 3116 2381 2855 2742 
Q 2594 3103 2138 3103 
Q 1681 3103 1420 2742 
Q 1159 2381 1159 1747 
Q 1159 1113 1420 752 
Q 1681 391 2138 391 
Q 2594 391 2855 752 
Q 3116 1113 3116 1747 
z
" transform="scale(0.015625)"/>
     </defs>
     <use xlink:href="#DejaVuSans-23"/>
     <use xlink:href="#DejaVuSans-53" x="83.789062"/>
     <use xlink:href="#DejaVuSans-77" x="147.265625"/>
     <use xlink:href="#DejaVuSans-65" x="229.052734"/>
     <use xlink:href="#DejaVuSans-65" x="290.576172"/>
     <use xlink:href="#DejaVuSans-70" x="352.099609"/>
    </g>
   </g>
   <g id="text_28">
    <!-- $\mathdefault{74}$ -->
    <g transform="translate(869.904 625.39125) scale(0.12 -0.12)">
     <defs>
      <path id="DejaVuSans-37" d="M 525 4666 
L 3525 4666 
L 3525 4397 
L 1831 0 
L 1172 0 
L 2766 4134 
L 525 4134 
L 525 4666 
z
" transform="scale(0.015625)"/>
      <path id="DejaVuSans-34" d="M 2419 4116 
L 825 1625 
L 2419 1625 
L 2419 4116 
z
M 2253 4666 
L 3047 4666 
L 3047 1625 
L 3713 1625 
L 3713 1100 
L 3047 1100 
L 3047 0 
L 2419 0 
L 2419 1100 
L 313 1100 
L 313 1709 
L 2253 4666 
z
" transform="scale(0.015625)"/>
     </defs>
     <use xlink:href="#DejaVuSans-37" transform="translate(0 0.09375)"/>
     <use xlink:href="#DejaVuSans-34" transform="translate(63.623047 0.09375)"/>
    </g>
   </g>
  </g>
  <g id="text_29">
   <!-- DFF under BBI sweep analysis (Sweep = 84E-9) -->
   <g transform="translate(313.34625 25.1175) scale(0.16 -0.16)">
    <defs>
     <path id="DejaVuSans-75" d="M 544 1381 
L 544 3500 
L 1119 3500 
L 1119 1403 
Q 1119 906 1312 657 
Q 1506 409 1894 409 
Q 2359 409 2629 706 
Q 2900 1003 2900 1516 
L 2900 3500 
L 3475 3500 
L 3475 0 
L 2900 0 
L 2900 538 
Q 2691 219 2414 64 
Q 2138 -91 1772 -91 
Q 1169 -91 856 284 
Q 544 659 544 1381 
z
M 1991 3584 
L 1991 3584 
z
" transform="scale(0.015625)"/>
     <path id="DejaVuSans-64" d="M 2906 2969 
L 2906 4863 
L 3481 4863 
L 3481 0 
L 2906 0 
L 2906 525 
Q 2725 213 2448 61 
Q 2172 -91 1784 -91 
Q 1150 -91 751 415 
Q 353 922 353 1747 
Q 353 2572 751 3078 
Q 1150 3584 1784 3584 
Q 2172 3584 2448 3432 
Q 2725 3281 2906 2969 
z
M 947 1747 
Q 947 1113 1208 752 
Q 1469 391 1925 391 
Q 2381 391 2643 752 
Q 2906 1113 2906 1747 
Q 2906 2381 2643 2742 
Q 2381 3103 1925 3103 
Q 1469 3103 1208 2742 
Q 947 2381 947 1747 
z
" transform="scale(0.015625)"/>
     <path id="DejaVuSans-72" d="M 2631 2963 
Q 2534 3019 2420 3045 
Q 2306 3072 2169 3072 
Q 1681 3072 1420 2755 
Q 1159 2438 1159 1844 
L 1159 0 
L 581 0 
L 581 3500 
L 1159 3500 
L 1159 2956 
Q 1341 3275 1631 3429 
Q 1922 3584 2338 3584 
Q 2397 3584 2469 3576 
Q 2541 3569 2628 3553 
L 2631 2963 
z
" transform="scale(0.015625)"/>
     <path id="DejaVuSans-61" d="M 2194 1759 
Q 1497 1759 1228 1600 
Q 959 1441 959 1056 
Q 959 750 1161 570 
Q 1363 391 1709 391 
Q 2188 391 2477 730 
Q 2766 1069 2766 1631 
L 2766 1759 
L 2194 1759 
z
M 3341 1997 
L 3341 0 
L 2766 0 
L 2766 531 
Q 2569 213 2275 61 
Q 1981 -91 1556 -91 
Q 1019 -91 701 211 
Q 384 513 384 1019 
Q 384 1609 779 1909 
Q 1175 2209 1959 2209 
L 2766 2209 
L 2766 2266 
Q 2766 2663 2505 2880 
Q 2244 3097 1772 3097 
Q 1472 3097 1187 3025 
Q 903 2953 641 2809 
L 641 3341 
Q 956 3463 1253 3523 
Q 1550 3584 1831 3584 
Q 2591 3584 2966 3190 
Q 3341 2797 3341 1997 
z
" transform="scale(0.015625)"/>
     <path id="DejaVuSans-6c" d="M 603 4863 
L 1178 4863 
L 1178 0 
L 603 0 
L 603 4863 
z
" transform="scale(0.015625)"/>
     <path id="DejaVuSans-79" d="M 2059 -325 
Q 1816 -950 1584 -1140 
Q 1353 -1331 966 -1331 
L 506 -1331 
L 506 -850 
L 844 -850 
Q 1081 -850 1212 -737 
Q 1344 -625 1503 -206 
L 1606 56 
L 191 3500 
L 800 3500 
L 1894 763 
L 2988 3500 
L 3597 3500 
L 2059 -325 
z
" transform="scale(0.015625)"/>
     <path id="DejaVuSans-28" d="M 1984 4856 
Q 1566 4138 1362 3434 
Q 1159 2731 1159 2009 
Q 1159 1288 1364 580 
Q 1569 -128 1984 -844 
L 1484 -844 
Q 1016 -109 783 600 
Q 550 1309 550 2009 
Q 550 2706 781 3412 
Q 1013 4119 1484 4856 
L 1984 4856 
z
" transform="scale(0.015625)"/>
     <path id="DejaVuSans-3d" d="M 678 2906 
L 4684 2906 
L 4684 2381 
L 678 2381 
L 678 2906 
z
M 678 1631 
L 4684 1631 
L 4684 1100 
L 678 1100 
L 678 1631 
z
" transform="scale(0.015625)"/>
     <path id="DejaVuSans-38" d="M 2034 2216 
Q 1584 2216 1326 1975 
Q 1069 1734 1069 1313 
Q 1069 891 1326 650 
Q 1584 409 2034 409 
Q 2484 409 2743 651 
Q 3003 894 3003 1313 
Q 3003 1734 2745 1975 
Q 2488 2216 2034 2216 
z
M 1403 2484 
Q 997 2584 770 2862 
Q 544 3141 544 3541 
Q 544 4100 942 4425 
Q 1341 4750 2034 4750 
Q 2731 4750 3128 4425 
Q 3525 4100 3525 3541 
Q 3525 3141 3298 2862 
Q 3072 2584 2669 2484 
Q 3125 2378 3379 2068 
Q 3634 1759 3634 1313 
Q 3634 634 3220 271 
Q 2806 -91 2034 -91 
Q 1263 -91 848 271 
Q 434 634 434 1313 
Q 434 1759 690 2068 
Q 947 2378 1403 2484 
z
M 1172 3481 
Q 1172 3119 1398 2916 
Q 1625 2713 2034 2713 
Q 2441 2713 2670 2916 
Q 2900 3119 2900 3481 
Q 2900 3844 2670 4047 
Q 2441 4250 2034 4250 
Q 1625 4250 1398 4047 
Q 1172 3844 1172 3481 
z
" transform="scale(0.015625)"/>
     <path id="DejaVuSans-2d" d="M 313 2009 
L 1997 2009 
L 1997 1497 
L 313 1497 
L 313 2009 
z
" transform="scale(0.015625)"/>
     <path id="DejaVuSans-39" d="M 703 97 
L 703 672 
Q 941 559 1184 500 
Q 1428 441 1663 441 
Q 2288 441 2617 861 
Q 2947 1281 2994 2138 
Q 2813 1869 2534 1725 
Q 2256 1581 1919 1581 
Q 1219 1581 811 2004 
Q 403 2428 403 3163 
Q 403 3881 828 4315 
Q 1253 4750 1959 4750 
Q 2769 4750 3195 4129 
Q 3622 3509 3622 2328 
Q 3622 1225 3098 567 
Q 2575 -91 1691 -91 
Q 1453 -91 1209 -44 
Q 966 3 703 97 
z
M 1959 2075 
Q 2384 2075 2632 2365 
Q 2881 2656 2881 3163 
Q 2881 3666 2632 3958 
Q 2384 4250 1959 4250 
Q 1534 4250 1286 3958 
Q 1038 3666 1038 3163 
Q 1038 2656 1286 2365 
Q 1534 2075 1959 2075 
z
" transform="scale(0.015625)"/>
     <path id="DejaVuSans-29" d="M 513 4856 
L 1013 4856 
Q 1481 4119 1714 3412 
Q 1947 2706 1947 2009 
Q 1947 1309 1714 600 
Q 1481 -109 1013 -844 
L 513 -844 
Q 928 -128 1133 580 
Q 1338 1288 1338 2009 
Q 1338 2731 1133 3434 
Q 928 4138 513 4856 
z
" transform="scale(0.015625)"/>
    </defs>
    <use xlink:href="#DejaVuSans-44"/>
    <use xlink:href="#DejaVuSans-46" x="77.001953"/>
    <use xlink:href="#DejaVuSans-46" x="134.521484"/>
    <use xlink:href="#DejaVuSans-20" x="192.041016"/>
    <use xlink:href="#DejaVuSans-75" x="223.828125"/>
    <use xlink:href="#DejaVuSans-6e" x="287.207031"/>
    <use xlink:href="#DejaVuSans-64" x="350.585938"/>
    <use xlink:href="#DejaVuSans-65" x="414.0625"/>
    <use xlink:href="#DejaVuSans-72" x="475.585938"/>
    <use xlink:href="#DejaVuSans-20" x="516.699219"/>
    <use xlink:href="#DejaVuSans-42" x="548.486328"/>
    <use xlink:href="#DejaVuSans-42" x="617.089844"/>
    <use xlink:href="#DejaVuSans-49" x="685.693359"/>
    <use xlink:href="#DejaVuSans-20" x="715.185547"/>
    <use xlink:href="#DejaVuSans-73" x="746.972656"/>
    <use xlink:href="#DejaVuSans-77" x="799.072266"/>
    <use xlink:href="#DejaVuSans-65" x="880.859375"/>
    <use xlink:href="#DejaVuSans-65" x="942.382812"/>
    <use xlink:href="#DejaVuSans-70" x="1003.90625"/>
    <use xlink:href="#DejaVuSans-20" x="1067.382812"/>
    <use xlink:href="#DejaVuSans-61" x="1099.169922"/>
    <use xlink:href="#DejaVuSans-6e" x="1160.449219"/>
    <use xlink:href="#DejaVuSans-61" x="1223.828125"/>
    <use xlink:href="#DejaVuSans-6c" x="1285.107422"/>
    <use xlink:href="#DejaVuSans-79" x="1312.890625"/>
    <use xlink:href="#DejaVuSans-73" x="1372.070312"/>
    <use xlink:href="#DejaVuSans-69" x="1424.169922"/>
    <use xlink:href="#DejaVuSans-73" x="1451.953125"/>
    <use xlink:href="#DejaVuSans-20" x="1504.052734"/>
    <use xlink:href="#DejaVuSans-28" x="1535.839844"/>
    <use xlink:href="#DejaVuSans-53" x="1574.853516"/>
    <use xlink:href="#DejaVuSans-77" x="1638.330078"/>
    <use xlink:href="#DejaVuSans-65" x="1720.117188"/>
    <use xlink:href="#DejaVuSans-65" x="1781.640625"/>
    <use xlink:href="#DejaVuSans-70" x="1843.164062"/>
    <use xlink:href="#DejaVuSans-20" x="1906.640625"/>
    <use xlink:href="#DejaVuSans-3d" x="1938.427734"/>
    <use xlink:href="#DejaVuSans-20" x="2022.216797"/>
    <use xlink:href="#DejaVuSans-38" x="2054.003906"/>
    <use xlink:href="#DejaVuSans-34" x="2117.626953"/>
    <use xlink:href="#DejaVuSans-45" x="2181.25"/>
    <use xlink:href="#DejaVuSans-2d" x="2244.433594"/>
    <use xlink:href="#DejaVuSans-39" x="2280.517578"/>
    <use xlink:href="#DejaVuSans-29" x="2344.140625"/>
   </g>
  </g>
 </g>
 <defs>
  <clipPath id="p6b4f5a2cf5">
   <rect x="100.8" y="38.88" width="887.04" height="92.731034"/>
  </clipPath>
  <clipPath id="p3725bc3672">
   <rect x="100.8" y="150.157241" width="887.04" height="92.731034"/>
  </clipPath>
  <clipPath id="pb66befb0a8">
   <rect x="100.8" y="261.434483" width="887.04" height="92.731034"/>
  </clipPath>
  <clipPath id="pd4aa89fbd2">
   <rect x="100.8" y="372.711724" width="887.04" height="92.731034"/>
  </clipPath>
  <clipPath id="p485696b8d8">
   <rect x="100.8" y="483.988966" width="887.04" height="92.731034"/>
  </clipPath>
  <clipPath id="pfa7ff05bca">
   <rect x="201.6" y="609.12" width="655.2" height="25.92"/>
  </clipPath>
  <clipPath id="pc5824968fb">
   <path d="M 201.6 628.56 
L 856.8 628.56 
L 856.8 615.6 
L 201.6 615.6 
z
"/>
  </clipPath>
 </defs>
</svg>
