<?xml version="1.0" encoding="utf-8" standalone="no"?>
<!DOCTYPE svg PUBLIC "-//W3C//DTD SVG 1.1//EN"
  "http://www.w3.org/Graphics/SVG/1.1/DTD/svg11.dtd">
<svg xmlns:xlink="http://www.w3.org/1999/xlink" width="1008pt" height="648pt" viewBox="0 0 1008 648" xmlns="http://www.w3.org/2000/svg" version="1.1">
 <metadata>
  <rdf:RDF xmlns:dc="http://purl.org/dc/elements/1.1/" xmlns:cc="http://creativecommons.org/ns#" xmlns:rdf="http://www.w3.org/1999/02/22-rdf-syntax-ns#">
   <cc:Work>
    <dc:type rdf:resource="http://purl.org/dc/dcmitype/StillImage"/>
    <dc:date>2024-06-03T10:45:44.627441</dc:date>
    <dc:format>image/svg+xml</dc:format>
    <dc:creator>
     <cc:Agent>
      <dc:title>Matplotlib v3.9.0, https://matplotlib.org/</dc:title>
     </cc:Agent>
    </dc:creator>
   </cc:Work>
  </rdf:RDF>
 </metadata>
 <defs>
  <style type="text/css">*{stroke-linejoin: round; stroke-linecap: butt}</style>
 </defs>
 <g id="figure_1">
  <g id="patch_1">
   <path d="M 0 648 
L 1008 648 
L 1008 0 
L 0 0 
z
" style="fill: #ffffff"/>
  </g>
  <g id="axes_1">
   <g id="patch_2">
    <path d="M 100.8 131.611034 
L 987.84 131.611034 
L 987.84 38.88 
L 100.8 38.88 
z
" style="fill: #eeeeee"/>
   </g>
   <g id="matplotlib.axis_1">
    <g id="xtick_1">
     <g id="line2d_1">
      <path d="M 141.12 131.611034 
L 141.12 38.88 
" clip-path="url(#pdc9e156c76)" style="fill: none; stroke-dasharray: 1.85,0.8; stroke-dashoffset: 0; stroke: #b2b2b2; stroke-width: 0.5"/>
     </g>
     <g id="line2d_2">
      <defs>
       <path id="m8abc62a0eb" d="M 0 0 
L 0 -3.5 
" style="stroke: #000000; stroke-width: 0.8"/>
      </defs>
      <g>
       <use xlink:href="#m8abc62a0eb" x="141.12" y="131.611034" style="stroke: #000000; stroke-width: 0.8"/>
      </g>
     </g>
    </g>
    <g id="xtick_2">
     <g id="line2d_3">
      <path d="M 302.4 131.611034 
L 302.4 38.88 
" clip-path="url(#pdc9e156c76)" style="fill: none; stroke-dasharray: 1.85,0.8; stroke-dashoffset: 0; stroke: #b2b2b2; stroke-width: 0.5"/>
     </g>
     <g id="line2d_4">
      <g>
       <use xlink:href="#m8abc62a0eb" x="302.4" y="131.611034" style="stroke: #000000; stroke-width: 0.8"/>
      </g>
     </g>
    </g>
    <g id="xtick_3">
     <g id="line2d_5">
      <path d="M 463.68 131.611034 
L 463.68 38.88 
" clip-path="url(#pdc9e156c76)" style="fill: none; stroke-dasharray: 1.85,0.8; stroke-dashoffset: 0; stroke: #b2b2b2; stroke-width: 0.5"/>
     </g>
     <g id="line2d_6">
      <g>
       <use xlink:href="#m8abc62a0eb" x="463.68" y="131.611034" style="stroke: #000000; stroke-width: 0.8"/>
      </g>
     </g>
    </g>
    <g id="xtick_4">
     <g id="line2d_7">
      <path d="M 624.96 131.611034 
L 624.96 38.88 
" clip-path="url(#pdc9e156c76)" style="fill: none; stroke-dasharray: 1.85,0.8; stroke-dashoffset: 0; stroke: #b2b2b2; stroke-width: 0.5"/>
     </g>
     <g id="line2d_8">
      <g>
       <use xlink:href="#m8abc62a0eb" x="624.96" y="131.611034" style="stroke: #000000; stroke-width: 0.8"/>
      </g>
     </g>
    </g>
    <g id="xtick_5">
     <g id="line2d_9">
      <path d="M 786.24 131.611034 
L 786.24 38.88 
" clip-path="url(#pdc9e156c76)" style="fill: none; stroke-dasharray: 1.85,0.8; stroke-dashoffset: 0; stroke: #b2b2b2; stroke-width: 0.5"/>
     </g>
     <g id="line2d_10">
      <g>
       <use xlink:href="#m8abc62a0eb" x="786.24" y="131.611034" style="stroke: #000000; stroke-width: 0.8"/>
      </g>
     </g>
    </g>
    <g id="xtick_6">
     <g id="line2d_11">
      <path d="M 947.52 131.611034 
L 947.52 38.88 
" clip-path="url(#pdc9e156c76)" style="fill: none; stroke-dasharray: 1.85,0.8; stroke-dashoffset: 0; stroke: #b2b2b2; stroke-width: 0.5"/>
     </g>
     <g id="line2d_12">
      <g>
       <use xlink:href="#m8abc62a0eb" x="947.52" y="131.611034" style="stroke: #000000; stroke-width: 0.8"/>
      </g>
     </g>
    </g>
   </g>
   <g id="matplotlib.axis_2">
    <g id="ytick_1">
     <g id="line2d_13">
      <path d="M 100.8 98.340394 
L 987.84 98.340394 
" clip-path="url(#pdc9e156c76)" style="fill: none; stroke-dasharray: 1.85,0.8; stroke-dashoffset: 0; stroke: #b2b2b2; stroke-width: 0.5"/>
     </g>
     <g id="line2d_14">
      <defs>
       <path id="mdc5b891316" d="M 0 0 
L 3.5 0 
" style="stroke: #000000; stroke-width: 0.8"/>
      </defs>
      <g>
       <use xlink:href="#mdc5b891316" x="100.8" y="98.340394" style="stroke: #000000; stroke-width: 0.8"/>
      </g>
     </g>
     <g id="text_1">
      <!-- −200 V -->
      <g transform="translate(44.819688 103.6593) scale(0.14 -0.14)">
       <defs>
        <path id="DejaVuSans-2212" d="M 678 2272 
L 4684 2272 
L 4684 1741 
L 678 1741 
L 678 2272 
z
" transform="scale(0.015625)"/>
        <path id="DejaVuSans-32" d="M 1228 531 
L 3431 531 
L 3431 0 
L 469 0 
L 469 531 
Q 828 903 1448 1529 
Q 2069 2156 2228 2338 
Q 2531 2678 2651 2914 
Q 2772 3150 2772 3378 
Q 2772 3750 2511 3984 
Q 2250 4219 1831 4219 
Q 1534 4219 1204 4116 
Q 875 4013 500 3803 
L 500 4441 
Q 881 4594 1212 4672 
Q 1544 4750 1819 4750 
Q 2544 4750 2975 4387 
Q 3406 4025 3406 3419 
Q 3406 3131 3298 2873 
Q 3191 2616 2906 2266 
Q 2828 2175 2409 1742 
Q 1991 1309 1228 531 
z
" transform="scale(0.015625)"/>
        <path id="DejaVuSans-30" d="M 2034 4250 
Q 1547 4250 1301 3770 
Q 1056 3291 1056 2328 
Q 1056 1369 1301 889 
Q 1547 409 2034 409 
Q 2525 409 2770 889 
Q 3016 1369 3016 2328 
Q 3016 3291 2770 3770 
Q 2525 4250 2034 4250 
z
M 2034 4750 
Q 2819 4750 3233 4129 
Q 3647 3509 3647 2328 
Q 3647 1150 3233 529 
Q 2819 -91 2034 -91 
Q 1250 -91 836 529 
Q 422 1150 422 2328 
Q 422 3509 836 4129 
Q 1250 4750 2034 4750 
z
" transform="scale(0.015625)"/>
        <path id="DejaVuSans-20" transform="scale(0.015625)"/>
        <path id="DejaVuSans-56" d="M 1831 0 
L 50 4666 
L 709 4666 
L 2188 738 
L 3669 4666 
L 4325 4666 
L 2547 0 
L 1831 0 
z
" transform="scale(0.015625)"/>
       </defs>
       <use xlink:href="#DejaVuSans-2212"/>
       <use xlink:href="#DejaVuSans-32" x="83.789062"/>
       <use xlink:href="#DejaVuSans-30" x="147.412109"/>
       <use xlink:href="#DejaVuSans-30" x="211.035156"/>
       <use xlink:href="#DejaVuSans-20" x="274.658203"/>
       <use xlink:href="#DejaVuSans-56" x="306.445312"/>
      </g>
     </g>
    </g>
    <g id="ytick_2">
     <g id="line2d_15">
      <path d="M 100.8 45.027377 
L 987.84 45.027377 
" clip-path="url(#pdc9e156c76)" style="fill: none; stroke-dasharray: 1.85,0.8; stroke-dashoffset: 0; stroke: #b2b2b2; stroke-width: 0.5"/>
     </g>
     <g id="line2d_16">
      <g>
       <use xlink:href="#mdc5b891316" x="100.8" y="45.027377" style="stroke: #000000; stroke-width: 0.8"/>
      </g>
     </g>
     <g id="text_2">
      <!-- 0 V -->
      <g transform="translate(74.36625 50.346284) scale(0.14 -0.14)">
       <use xlink:href="#DejaVuSans-30"/>
       <use xlink:href="#DejaVuSans-20" x="63.623047"/>
       <use xlink:href="#DejaVuSans-56" x="95.410156"/>
      </g>
     </g>
    </g>
    <g id="text_3">
     <g id="patch_3">
      <path d="M 34.8768 131.080205 
L 34.8768 39.41083 
L 11.247425 39.41083 
L 11.247425 131.080205 
z
" style="fill: #ffff00; opacity: 0.2; stroke: #eeeeee; stroke-width: 0.5; stroke-linejoin: miter"/>
     </g>
     <!-- VPULSE BBI -->
     <g transform="translate(26.925238 126.040205) rotate(-90) scale(0.14 -0.14)">
      <defs>
       <path id="DejaVuSans-50" d="M 1259 4147 
L 1259 2394 
L 2053 2394 
Q 2494 2394 2734 2622 
Q 2975 2850 2975 3272 
Q 2975 3691 2734 3919 
Q 2494 4147 2053 4147 
L 1259 4147 
z
M 628 4666 
L 2053 4666 
Q 2838 4666 3239 4311 
Q 3641 3956 3641 3272 
Q 3641 2581 3239 2228 
Q 2838 1875 2053 1875 
L 1259 1875 
L 1259 0 
L 628 0 
L 628 4666 
z
" transform="scale(0.015625)"/>
       <path id="DejaVuSans-55" d="M 556 4666 
L 1191 4666 
L 1191 1831 
Q 1191 1081 1462 751 
Q 1734 422 2344 422 
Q 2950 422 3222 751 
Q 3494 1081 3494 1831 
L 3494 4666 
L 4128 4666 
L 4128 1753 
Q 4128 841 3676 375 
Q 3225 -91 2344 -91 
Q 1459 -91 1007 375 
Q 556 841 556 1753 
L 556 4666 
z
" transform="scale(0.015625)"/>
       <path id="DejaVuSans-4c" d="M 628 4666 
L 1259 4666 
L 1259 531 
L 3531 531 
L 3531 0 
L 628 0 
L 628 4666 
z
" transform="scale(0.015625)"/>
       <path id="DejaVuSans-53" d="M 3425 4513 
L 3425 3897 
Q 3066 4069 2747 4153 
Q 2428 4238 2131 4238 
Q 1616 4238 1336 4038 
Q 1056 3838 1056 3469 
Q 1056 3159 1242 3001 
Q 1428 2844 1947 2747 
L 2328 2669 
Q 3034 2534 3370 2195 
Q 3706 1856 3706 1288 
Q 3706 609 3251 259 
Q 2797 -91 1919 -91 
Q 1588 -91 1214 -16 
Q 841 59 441 206 
L 441 856 
Q 825 641 1194 531 
Q 1563 422 1919 422 
Q 2459 422 2753 634 
Q 3047 847 3047 1241 
Q 3047 1584 2836 1778 
Q 2625 1972 2144 2069 
L 1759 2144 
Q 1053 2284 737 2584 
Q 422 2884 422 3419 
Q 422 4038 858 4394 
Q 1294 4750 2059 4750 
Q 2388 4750 2728 4690 
Q 3069 4631 3425 4513 
z
" transform="scale(0.015625)"/>
       <path id="DejaVuSans-45" d="M 628 4666 
L 3578 4666 
L 3578 4134 
L 1259 4134 
L 1259 2753 
L 3481 2753 
L 3481 2222 
L 1259 2222 
L 1259 531 
L 3634 531 
L 3634 0 
L 628 0 
L 628 4666 
z
" transform="scale(0.015625)"/>
       <path id="DejaVuSans-42" d="M 1259 2228 
L 1259 519 
L 2272 519 
Q 2781 519 3026 730 
Q 3272 941 3272 1375 
Q 3272 1813 3026 2020 
Q 2781 2228 2272 2228 
L 1259 2228 
z
M 1259 4147 
L 1259 2741 
L 2194 2741 
Q 2656 2741 2882 2914 
Q 3109 3088 3109 3444 
Q 3109 3797 2882 3972 
Q 2656 4147 2194 4147 
L 1259 4147 
z
M 628 4666 
L 2241 4666 
Q 2963 4666 3353 4366 
Q 3744 4066 3744 3513 
Q 3744 3084 3544 2831 
Q 3344 2578 2956 2516 
Q 3422 2416 3680 2098 
Q 3938 1781 3938 1306 
Q 3938 681 3513 340 
Q 3088 0 2303 0 
L 628 0 
L 628 4666 
z
" transform="scale(0.015625)"/>
       <path id="DejaVuSans-49" d="M 628 4666 
L 1259 4666 
L 1259 0 
L 628 0 
L 628 4666 
z
" transform="scale(0.015625)"/>
      </defs>
      <use xlink:href="#DejaVuSans-56"/>
      <use xlink:href="#DejaVuSans-50" x="68.408203"/>
      <use xlink:href="#DejaVuSans-55" x="128.710938"/>
      <use xlink:href="#DejaVuSans-4c" x="201.904297"/>
      <use xlink:href="#DejaVuSans-53" x="257.617188"/>
      <use xlink:href="#DejaVuSans-45" x="321.09375"/>
      <use xlink:href="#DejaVuSans-20" x="384.277344"/>
      <use xlink:href="#DejaVuSans-42" x="416.064453"/>
      <use xlink:href="#DejaVuSans-42" x="484.667969"/>
      <use xlink:href="#DejaVuSans-49" x="553.271484"/>
     </g>
    </g>
   </g>
   <g id="line2d_17">
    <path d="M 141.12 45.027377 
L 418.553856 45.136282 
L 419.037696 46.425538 
L 427.262976 69.006772 
L 434.681856 89.863624 
L 436.294656 94.440546 
L 438.100992 99.673219 
L 441.58464 110.807642 
L 443.165184 115.853719 
L 444.390912 119.550977 
L 448.293888 121.36362 
L 448.874496 121.619522 
L 449.745408 122.003376 
L 450.390528 122.269941 
L 451.971072 122.936354 
L 452.616192 123.202919 
L 453.712896 123.629423 
L 454.454784 123.922644 
L 455.551488 124.349149 
L 456.454656 124.677024 
L 457.132032 124.943589 
L 457.938432 125.25547 
L 459.293184 125.804594 
L 461.938176 126.790885 
L 462.55104 127.022796 
L 464.4864 127.395987 
L 482.969088 127.289361 
L 483.19488 126.801547 
L 501.484032 75.087922 
L 505.225728 63.292417 
L 508.935168 51.617666 
L 513.547776 49.3412 
L 518.902272 46.984578 
L 527.611392 43.484472 
L 528.482304 43.268927 
L 542.771712 43.108189 
L 549.577728 43.184799 
L 564.931584 43.746186 
L 592.704 44.46146 
L 618.34752 44.774399 
L 653.958144 44.945888 
L 701.987328 44.953885 
L 947.52 44.953885 
L 947.52 44.953885 
" clip-path="url(#pdc9e156c76)" style="fill: none; stroke: #ff0000; stroke-width: 2; stroke-linecap: square"/>
   </g>
   <g id="patch_4">
    <path d="M 100.8 131.611034 
L 100.8 38.88 
" style="fill: none; stroke: #bcbcbc; stroke-width: 0.8; stroke-linejoin: miter; stroke-linecap: square"/>
   </g>
   <g id="patch_5">
    <path d="M 987.84 131.611034 
L 987.84 38.88 
" style="fill: none; stroke: #bcbcbc; stroke-width: 0.8; stroke-linejoin: miter; stroke-linecap: square"/>
   </g>
   <g id="patch_6">
    <path d="M 100.8 131.611034 
L 987.84 131.611034 
" style="fill: none; stroke: #bcbcbc; stroke-width: 0.8; stroke-linejoin: miter; stroke-linecap: square"/>
   </g>
   <g id="patch_7">
    <path d="M 100.8 38.88 
L 987.84 38.88 
" style="fill: none; stroke: #bcbcbc; stroke-width: 0.8; stroke-linejoin: miter; stroke-linecap: square"/>
   </g>
  </g>
  <g id="axes_2">
   <g id="patch_8">
    <path d="M 100.8 242.888276 
L 987.84 242.888276 
L 987.84 150.157241 
L 100.8 150.157241 
z
" style="fill: #eeeeee"/>
   </g>
   <g id="matplotlib.axis_3">
    <g id="xtick_7">
     <g id="line2d_18">
      <path d="M 141.12 242.888276 
L 141.12 150.157241 
" clip-path="url(#p9b064a40f4)" style="fill: none; stroke-dasharray: 1.85,0.8; stroke-dashoffset: 0; stroke: #b2b2b2; stroke-width: 0.5"/>
     </g>
     <g id="line2d_19">
      <g>
       <use xlink:href="#m8abc62a0eb" x="141.12" y="242.888276" style="stroke: #000000; stroke-width: 0.8"/>
      </g>
     </g>
    </g>
    <g id="xtick_8">
     <g id="line2d_20">
      <path d="M 302.4 242.888276 
L 302.4 150.157241 
" clip-path="url(#p9b064a40f4)" style="fill: none; stroke-dasharray: 1.85,0.8; stroke-dashoffset: 0; stroke: #b2b2b2; stroke-width: 0.5"/>
     </g>
     <g id="line2d_21">
      <g>
       <use xlink:href="#m8abc62a0eb" x="302.4" y="242.888276" style="stroke: #000000; stroke-width: 0.8"/>
      </g>
     </g>
    </g>
    <g id="xtick_9">
     <g id="line2d_22">
      <path d="M 463.68 242.888276 
L 463.68 150.157241 
" clip-path="url(#p9b064a40f4)" style="fill: none; stroke-dasharray: 1.85,0.8; stroke-dashoffset: 0; stroke: #b2b2b2; stroke-width: 0.5"/>
     </g>
     <g id="line2d_23">
      <g>
       <use xlink:href="#m8abc62a0eb" x="463.68" y="242.888276" style="stroke: #000000; stroke-width: 0.8"/>
      </g>
     </g>
    </g>
    <g id="xtick_10">
     <g id="line2d_24">
      <path d="M 624.96 242.888276 
L 624.96 150.157241 
" clip-path="url(#p9b064a40f4)" style="fill: none; stroke-dasharray: 1.85,0.8; stroke-dashoffset: 0; stroke: #b2b2b2; stroke-width: 0.5"/>
     </g>
     <g id="line2d_25">
      <g>
       <use xlink:href="#m8abc62a0eb" x="624.96" y="242.888276" style="stroke: #000000; stroke-width: 0.8"/>
      </g>
     </g>
    </g>
    <g id="xtick_11">
     <g id="line2d_26">
      <path d="M 786.24 242.888276 
L 786.24 150.157241 
" clip-path="url(#p9b064a40f4)" style="fill: none; stroke-dasharray: 1.85,0.8; stroke-dashoffset: 0; stroke: #b2b2b2; stroke-width: 0.5"/>
     </g>
     <g id="line2d_27">
      <g>
       <use xlink:href="#m8abc62a0eb" x="786.24" y="242.888276" style="stroke: #000000; stroke-width: 0.8"/>
      </g>
     </g>
    </g>
    <g id="xtick_12">
     <g id="line2d_28">
      <path d="M 947.52 242.888276 
L 947.52 150.157241 
" clip-path="url(#p9b064a40f4)" style="fill: none; stroke-dasharray: 1.85,0.8; stroke-dashoffset: 0; stroke: #b2b2b2; stroke-width: 0.5"/>
     </g>
     <g id="line2d_29">
      <g>
       <use xlink:href="#m8abc62a0eb" x="947.52" y="242.888276" style="stroke: #000000; stroke-width: 0.8"/>
      </g>
     </g>
    </g>
   </g>
   <g id="matplotlib.axis_4">
    <g id="ytick_3">
     <g id="line2d_30">
      <path d="M 100.8 219.260199 
L 987.84 219.260199 
" clip-path="url(#p9b064a40f4)" style="fill: none; stroke-dasharray: 1.85,0.8; stroke-dashoffset: 0; stroke: #b2b2b2; stroke-width: 0.5"/>
     </g>
     <g id="line2d_31">
      <g>
       <use xlink:href="#mdc5b891316" x="100.8" y="219.260199" style="stroke: #000000; stroke-width: 0.8"/>
      </g>
     </g>
     <g id="text_4">
      <!-- 0 V -->
      <g transform="translate(74.36625 224.579105) scale(0.14 -0.14)">
       <use xlink:href="#DejaVuSans-30"/>
       <use xlink:href="#DejaVuSans-20" x="63.623047"/>
       <use xlink:href="#DejaVuSans-56" x="95.410156"/>
      </g>
     </g>
    </g>
    <g id="ytick_4">
     <g id="line2d_32">
      <path d="M 100.8 185.710791 
L 987.84 185.710791 
" clip-path="url(#p9b064a40f4)" style="fill: none; stroke-dasharray: 1.85,0.8; stroke-dashoffset: 0; stroke: #b2b2b2; stroke-width: 0.5"/>
     </g>
     <g id="line2d_33">
      <g>
       <use xlink:href="#mdc5b891316" x="100.8" y="185.710791" style="stroke: #000000; stroke-width: 0.8"/>
      </g>
     </g>
     <g id="text_5">
      <!-- 1 V -->
      <g transform="translate(74.36625 191.029697) scale(0.14 -0.14)">
       <defs>
        <path id="DejaVuSans-31" d="M 794 531 
L 1825 531 
L 1825 4091 
L 703 3866 
L 703 4441 
L 1819 4666 
L 2450 4666 
L 2450 531 
L 3481 531 
L 3481 0 
L 794 0 
L 794 531 
z
" transform="scale(0.015625)"/>
       </defs>
       <use xlink:href="#DejaVuSans-31"/>
       <use xlink:href="#DejaVuSans-20" x="63.623047"/>
       <use xlink:href="#DejaVuSans-56" x="95.410156"/>
      </g>
     </g>
    </g>
    <g id="ytick_5">
     <g id="line2d_34">
      <path d="M 100.8 152.161382 
L 987.84 152.161382 
" clip-path="url(#p9b064a40f4)" style="fill: none; stroke-dasharray: 1.85,0.8; stroke-dashoffset: 0; stroke: #b2b2b2; stroke-width: 0.5"/>
     </g>
     <g id="line2d_35">
      <g>
       <use xlink:href="#mdc5b891316" x="100.8" y="152.161382" style="stroke: #000000; stroke-width: 0.8"/>
      </g>
     </g>
     <g id="text_6">
      <!-- 2 V -->
      <g transform="translate(74.36625 157.480289) scale(0.14 -0.14)">
       <use xlink:href="#DejaVuSans-32"/>
       <use xlink:href="#DejaVuSans-20" x="63.623047"/>
       <use xlink:href="#DejaVuSans-56" x="95.410156"/>
      </g>
     </g>
    </g>
    <g id="text_7">
     <g id="patch_9">
      <path d="M 34.8768 224.531509 
L 34.8768 168.514009 
L 11.247425 168.514009 
L 11.247425 224.531509 
z
" style="fill: #ffff00; opacity: 0.2; stroke: #eeeeee; stroke-width: 0.5; stroke-linejoin: miter"/>
     </g>
     <!-- DFF IN -->
     <g transform="translate(26.925238 219.491509) rotate(-90) scale(0.14 -0.14)">
      <defs>
       <path id="DejaVuSans-44" d="M 1259 4147 
L 1259 519 
L 2022 519 
Q 2988 519 3436 956 
Q 3884 1394 3884 2338 
Q 3884 3275 3436 3711 
Q 2988 4147 2022 4147 
L 1259 4147 
z
M 628 4666 
L 1925 4666 
Q 3281 4666 3915 4102 
Q 4550 3538 4550 2338 
Q 4550 1131 3912 565 
Q 3275 0 1925 0 
L 628 0 
L 628 4666 
z
" transform="scale(0.015625)"/>
       <path id="DejaVuSans-46" d="M 628 4666 
L 3309 4666 
L 3309 4134 
L 1259 4134 
L 1259 2759 
L 3109 2759 
L 3109 2228 
L 1259 2228 
L 1259 0 
L 628 0 
L 628 4666 
z
" transform="scale(0.015625)"/>
       <path id="DejaVuSans-4e" d="M 628 4666 
L 1478 4666 
L 3547 763 
L 3547 4666 
L 4159 4666 
L 4159 0 
L 3309 0 
L 1241 3903 
L 1241 0 
L 628 0 
L 628 4666 
z
" transform="scale(0.015625)"/>
      </defs>
      <use xlink:href="#DejaVuSans-44"/>
      <use xlink:href="#DejaVuSans-46" x="77.001953"/>
      <use xlink:href="#DejaVuSans-46" x="134.521484"/>
      <use xlink:href="#DejaVuSans-20" x="192.041016"/>
      <use xlink:href="#DejaVuSans-49" x="223.828125"/>
      <use xlink:href="#DejaVuSans-4e" x="253.320312"/>
     </g>
    </g>
   </g>
   <g id="line2d_36">
    <path d="M 141.12 219.211204 
L 221.953536 219.165197 
L 224.437248 200.471859 
L 225.404928 194.785235 
L 228.243456 182.282041 
L 229.598208 181.027293 
L 231.178752 180.165074 
L 236.565504 179.715511 
L 243.661824 179.604798 
L 245.1456 179.561184 
L 248.403456 179.450471 
L 250.113024 179.383372 
L 252.177408 179.272659 
L 254.241792 178.94723 
L 254.757888 178.417149 
L 255.499776 178.081655 
L 256.370688 178.101785 
L 257.531904 178.333276 
L 259.98336 178.732514 
L 262.370304 178.870066 
L 263.886336 178.920391 
L 264.144384 184.093709 
L 264.434688 187.613713 
L 265.176576 192.302914 
L 267.144192 209.418816 
L 268.402176 215.845205 
L 269.079552 217.155645 
L 270.46656 218.852775 
L 273.724416 219.262011 
L 282.594816 219.215635 
L 297.110016 219.204427 
L 305.883648 219.210408 
L 347.751936 219.166871 
L 350.235648 200.511448 
L 351.622656 191.982182 
L 352.687104 186.65722 
L 354.97728 179.849709 
L 358.493184 178.863357 
L 360.235008 178.93381 
L 363.073536 179.044523 
L 364.396032 179.071363 
L 375.169536 179.141817 
L 375.717888 180.121459 
L 376.169472 180.862901 
L 377.008128 181.75867 
L 377.524224 181.708346 
L 378.427392 181.419821 
L 380.45952 180.282497 
L 381.58848 179.926873 
L 387.201024 179.453826 
L 389.65248 179.343113 
L 391.813632 179.229045 
L 394.877952 179.118332 
L 396.329472 179.078073 
L 415.392768 178.980779 
L 416.005632 178.329921 
L 416.650752 178.058171 
L 417.263616 178.034686 
L 418.457088 178.259467 
L 418.650624 178.477538 
L 421.134336 183.140906 
L 422.71488 185.402136 
L 427.71456 192.343844 
L 428.101632 193.366095 
L 428.746752 195.618602 
L 430.875648 204.006961 
L 431.520768 206.882145 
L 432.940032 212.770737 
L 434.617344 218.583373 
L 434.81088 219.198582 
L 435.456 221.378207 
L 436.520448 224.191627 
L 436.713984 224.702584 
L 437.165568 225.730538 
L 437.455872 226.07442 
L 437.584896 226.245857 
L 438.19776 227.488527 
L 438.617088 228.450389 
L 438.971904 229.046562 
L 439.358976 229.902072 
L 440.004096 231.101463 
L 440.391168 231.706359 
L 440.584704 232.114319 
L 440.971776 233.011766 
L 441.487872 233.913574 
L 442.616832 235.685654 
L 442.87488 236.251297 
L 443.390976 237.146395 
L 443.616768 237.533891 
L 444.068352 238.099869 
L 444.229632 238.479649 
L 444.423168 238.673229 
L 444.616704 238.557819 
L 444.907008 238.028745 
L 446.648832 235.588361 
L 446.939136 235.314933 
L 447.358464 234.632874 
L 447.616512 234.276243 
L 447.745536 234.218874 
L 447.971328 233.941085 
L 448.164864 233.71731 
L 448.584192 233.452941 
L 448.971264 233.215747 
L 449.616384 232.476318 
L 449.938944 232.044201 
L 450.035712 231.902958 
L 450.358272 231.538612 
L 450.551808 231.521501 
L 450.7776 231.312489 
L 451.003392 231.227944 
L 451.454976 230.944787 
L 452.22912 230.26407 
L 452.422656 229.896368 
L 452.583936 229.750764 
L 452.680704 229.713859 
L 452.938752 229.29986 
L 453.100032 229.172372 
L 453.132288 229.202566 
L 453.261312 229.174385 
L 453.51936 228.969733 
L 454.32576 228.491319 
L 455.29344 227.631448 
L 455.745024 226.857798 
L 456.228864 226.641069 
L 456.74496 226.464264 
L 458.390016 225.187038 
L 458.712576 224.789477 
L 458.8416 224.691177 
L 459.099648 224.501623 
L 459.422208 224.335889 
L 459.906048 224.051726 
L 463.873536 220.908347 
L 465.034752 219.530487 
L 466.131456 218.016523 
L 466.712064 217.243477 
L 467.776512 215.749254 
L 470.808576 211.927976 
L 471.90528 210.751398 
L 472.87296 209.646616 
L 473.582592 207.583999 
L 474.776064 204.156591 
L 475.840512 201.714194 
L 476.840448 200.149785 
L 477.614592 199.034938 
L 478.066176 198.566924 
L 481.4208 194.484297 
L 482.743296 193.283899 
L 483.130368 192.722282 
L 483.51744 191.490012 
L 484.872192 187.051425 
L 485.678592 185.237744 
L 486.74304 183.4764 
L 488.259072 181.460081 
L 494.548992 173.438417 
L 495.387648 172.331287 
L 496.032768 171.358354 
L 496.58112 168.677756 
L 497.193984 166.735245 
L 497.87136 165.399979 
L 498.226176 165.027581 
L 498.548736 164.953772 
L 499.00032 165.155068 
L 499.451904 165.265781 
L 499.774464 165.198682 
L 500.12928 164.977256 
L 500.7744 164.380077 
L 508.902912 154.385708 
L 511.064064 155.167409 
L 514.192896 155.928981 
L 517.095936 156.948883 
L 519.063552 157.650066 
L 519.676416 157.884911 
L 521.385984 158.478736 
L 528.643584 160.850679 
L 529.385472 161.256627 
L 531.546624 162.263109 
L 532.030464 162.464406 
L 532.804608 162.816674 
L 533.707776 163.209203 
L 534.127104 163.390369 
L 535.191552 163.833222 
L 536.385024 164.50421 
L 536.997888 166.584273 
L 537.38496 168.298648 
L 537.70752 169.164223 
L 537.997824 169.335325 
L 538.320384 169.227966 
L 538.868736 168.697886 
L 539.868672 167.718243 
L 540.77184 167.278746 
L 541.57824 167.141193 
L 542.932992 167.251906 
L 544.384512 167.513592 
L 549.222912 168.630787 
L 553.061376 169.714433 
L 553.416192 169.821791 
L 555.28704 170.321677 
L 557.190144 170.801434 
L 562.125312 171.938759 
L 563.18976 172.16354 
L 563.770368 172.270898 
L 564.834816 172.492324 
L 566.060544 172.72717 
L 566.8992 172.884852 
L 567.254016 172.955306 
L 568.641024 173.206926 
L 569.47968 173.354544 
L 571.286016 173.653133 
L 572.156928 173.817526 
L 572.963328 173.928239 
L 573.67296 174.035597 
L 575.511552 174.310702 
L 576.25344 174.421415 
L 576.640512 174.478449 
L 577.285632 173.780621 
L 577.70496 173.609519 
L 578.51136 173.716877 
L 581.446656 174.820653 
L 585.575424 175.568805 
L 586.41408 175.676163 
L 587.575296 175.807005 
L 595.44576 176.514898 
L 596.058624 176.558512 
L 596.89728 176.622256 
L 600.155136 176.850392 
L 600.768 176.897361 
L 603.50976 177.075173 
L 604.219392 177.112077 
L 606.541824 177.24292 
L 607.283712 177.27647 
L 609.380352 177.387183 
L 610.12224 177.430797 
L 612.767232 177.54151 
L 614.702592 177.632093 
L 615.44448 177.665643 
L 617.121792 177.923973 
L 617.605632 178.447344 
L 618.34752 178.779483 
L 619.47648 178.786193 
L 620.315136 178.504378 
L 621.218304 178.239338 
L 624.379392 178.017911 
L 625.701888 178.044751 
L 626.5728 178.061526 
L 627.21792 178.08501 
L 631.507968 178.195723 
L 631.959552 178.222563 
L 637.152768 178.333276 
L 638.475264 178.360115 
L 643.926528 178.470828 
L 645.28128 178.501023 
L 653.861376 178.611736 
L 654.506496 178.635221 
L 657.37728 178.544637 
L 657.893376 178.021266 
L 658.409472 177.769646 
L 659.31264 177.689127 
L 660.409344 177.913908 
L 663.473664 178.443989 
L 666.150912 178.554702 
L 667.473408 178.581541 
L 697.665024 178.66877 
L 698.277888 179.316274 
L 698.66496 179.49744 
L 699.245568 179.631638 
L 701.632512 179.520925 
L 703.374336 179.229045 
L 704.63232 179.078073 
L 709.212672 178.712384 
L 737.952768 178.638575 
L 738.50112 178.031331 
L 739.049472 177.759581 
L 740.984832 177.866939 
L 744.242688 178.433924 
L 746.40384 178.547992 
L 778.272768 178.638575 
L 779.208192 179.463891 
L 780.143616 179.641703 
L 782.240256 179.534345 
L 784.562688 179.161946 
L 789.981696 178.709029 
L 818.592768 178.638575 
L 819.14112 178.031331 
L 819.689472 177.759581 
L 821.624832 177.866939 
L 824.882688 178.433924 
L 827.04384 178.547992 
L 858.912768 178.638575 
L 859.848192 179.463891 
L 860.783616 179.641703 
L 862.880256 179.534345 
L 865.202688 179.161946 
L 870.621696 178.709029 
L 899.232768 178.638575 
L 899.78112 178.031331 
L 900.329472 177.759581 
L 902.264832 177.866939 
L 905.522688 178.433924 
L 907.68384 178.547992 
L 939.552768 178.638575 
L 940.617216 179.494085 
L 941.55264 179.678607 
L 943.455744 179.571249 
L 946.423296 179.064653 
L 947.52 178.893551 
L 947.52 178.893551 
" clip-path="url(#p9b064a40f4)" style="fill: none; stroke: #008000; stroke-width: 2; stroke-linecap: square"/>
   </g>
   <g id="patch_10">
    <path d="M 100.8 242.888276 
L 100.8 150.157241 
" style="fill: none; stroke: #bcbcbc; stroke-width: 0.8; stroke-linejoin: miter; stroke-linecap: square"/>
   </g>
   <g id="patch_11">
    <path d="M 987.84 242.888276 
L 987.84 150.157241 
" style="fill: none; stroke: #bcbcbc; stroke-width: 0.8; stroke-linejoin: miter; stroke-linecap: square"/>
   </g>
   <g id="patch_12">
    <path d="M 100.8 242.888276 
L 987.84 242.888276 
" style="fill: none; stroke: #bcbcbc; stroke-width: 0.8; stroke-linejoin: miter; stroke-linecap: square"/>
   </g>
   <g id="patch_13">
    <path d="M 100.8 150.157241 
L 987.84 150.157241 
" style="fill: none; stroke: #bcbcbc; stroke-width: 0.8; stroke-linejoin: miter; stroke-linecap: square"/>
   </g>
  </g>
  <g id="axes_3">
   <g id="patch_14">
    <path d="M 100.8 354.165517 
L 987.84 354.165517 
L 987.84 261.434483 
L 100.8 261.434483 
z
" style="fill: #eeeeee"/>
   </g>
   <g id="matplotlib.axis_5">
    <g id="xtick_13">
     <g id="line2d_37">
      <path d="M 141.12 354.165517 
L 141.12 261.434483 
" clip-path="url(#pd7337968ab)" style="fill: none; stroke-dasharray: 1.85,0.8; stroke-dashoffset: 0; stroke: #b2b2b2; stroke-width: 0.5"/>
     </g>
     <g id="line2d_38">
      <g>
       <use xlink:href="#m8abc62a0eb" x="141.12" y="354.165517" style="stroke: #000000; stroke-width: 0.8"/>
      </g>
     </g>
    </g>
    <g id="xtick_14">
     <g id="line2d_39">
      <path d="M 302.4 354.165517 
L 302.4 261.434483 
" clip-path="url(#pd7337968ab)" style="fill: none; stroke-dasharray: 1.85,0.8; stroke-dashoffset: 0; stroke: #b2b2b2; stroke-width: 0.5"/>
     </g>
     <g id="line2d_40">
      <g>
       <use xlink:href="#m8abc62a0eb" x="302.4" y="354.165517" style="stroke: #000000; stroke-width: 0.8"/>
      </g>
     </g>
    </g>
    <g id="xtick_15">
     <g id="line2d_41">
      <path d="M 463.68 354.165517 
L 463.68 261.434483 
" clip-path="url(#pd7337968ab)" style="fill: none; stroke-dasharray: 1.85,0.8; stroke-dashoffset: 0; stroke: #b2b2b2; stroke-width: 0.5"/>
     </g>
     <g id="line2d_42">
      <g>
       <use xlink:href="#m8abc62a0eb" x="463.68" y="354.165517" style="stroke: #000000; stroke-width: 0.8"/>
      </g>
     </g>
    </g>
    <g id="xtick_16">
     <g id="line2d_43">
      <path d="M 624.96 354.165517 
L 624.96 261.434483 
" clip-path="url(#pd7337968ab)" style="fill: none; stroke-dasharray: 1.85,0.8; stroke-dashoffset: 0; stroke: #b2b2b2; stroke-width: 0.5"/>
     </g>
     <g id="line2d_44">
      <g>
       <use xlink:href="#m8abc62a0eb" x="624.96" y="354.165517" style="stroke: #000000; stroke-width: 0.8"/>
      </g>
     </g>
    </g>
    <g id="xtick_17">
     <g id="line2d_45">
      <path d="M 786.24 354.165517 
L 786.24 261.434483 
" clip-path="url(#pd7337968ab)" style="fill: none; stroke-dasharray: 1.85,0.8; stroke-dashoffset: 0; stroke: #b2b2b2; stroke-width: 0.5"/>
     </g>
     <g id="line2d_46">
      <g>
       <use xlink:href="#m8abc62a0eb" x="786.24" y="354.165517" style="stroke: #000000; stroke-width: 0.8"/>
      </g>
     </g>
    </g>
    <g id="xtick_18">
     <g id="line2d_47">
      <path d="M 947.52 354.165517 
L 947.52 261.434483 
" clip-path="url(#pd7337968ab)" style="fill: none; stroke-dasharray: 1.85,0.8; stroke-dashoffset: 0; stroke: #b2b2b2; stroke-width: 0.5"/>
     </g>
     <g id="line2d_48">
      <g>
       <use xlink:href="#m8abc62a0eb" x="947.52" y="354.165517" style="stroke: #000000; stroke-width: 0.8"/>
      </g>
     </g>
    </g>
   </g>
   <g id="matplotlib.axis_6">
    <g id="ytick_6">
     <g id="line2d_49">
      <path d="M 100.8 348.434169 
L 987.84 348.434169 
" clip-path="url(#pd7337968ab)" style="fill: none; stroke-dasharray: 1.85,0.8; stroke-dashoffset: 0; stroke: #b2b2b2; stroke-width: 0.5"/>
     </g>
     <g id="line2d_50">
      <g>
       <use xlink:href="#mdc5b891316" x="100.8" y="348.434169" style="stroke: #000000; stroke-width: 0.8"/>
      </g>
     </g>
     <g id="text_8">
      <!-- 0 V -->
      <g transform="translate(74.36625 353.753076) scale(0.14 -0.14)">
       <use xlink:href="#DejaVuSans-30"/>
       <use xlink:href="#DejaVuSans-20" x="63.623047"/>
       <use xlink:href="#DejaVuSans-56" x="95.410156"/>
      </g>
     </g>
    </g>
    <g id="ytick_7">
     <g id="line2d_51">
      <path d="M 100.8 305.478254 
L 987.84 305.478254 
" clip-path="url(#pd7337968ab)" style="fill: none; stroke-dasharray: 1.85,0.8; stroke-dashoffset: 0; stroke: #b2b2b2; stroke-width: 0.5"/>
     </g>
     <g id="line2d_52">
      <g>
       <use xlink:href="#mdc5b891316" x="100.8" y="305.478254" style="stroke: #000000; stroke-width: 0.8"/>
      </g>
     </g>
     <g id="text_9">
      <!-- 1 V -->
      <g transform="translate(74.36625 310.797161) scale(0.14 -0.14)">
       <use xlink:href="#DejaVuSans-31"/>
       <use xlink:href="#DejaVuSans-20" x="63.623047"/>
       <use xlink:href="#DejaVuSans-56" x="95.410156"/>
      </g>
     </g>
    </g>
    <g id="ytick_8">
     <g id="line2d_53">
      <path d="M 100.8 262.522339 
L 987.84 262.522339 
" clip-path="url(#pd7337968ab)" style="fill: none; stroke-dasharray: 1.85,0.8; stroke-dashoffset: 0; stroke: #b2b2b2; stroke-width: 0.5"/>
     </g>
     <g id="line2d_54">
      <g>
       <use xlink:href="#mdc5b891316" x="100.8" y="262.522339" style="stroke: #000000; stroke-width: 0.8"/>
      </g>
     </g>
     <g id="text_10">
      <!-- 2 V -->
      <g transform="translate(74.36625 267.841245) scale(0.14 -0.14)">
       <use xlink:href="#DejaVuSans-32"/>
       <use xlink:href="#DejaVuSans-20" x="63.623047"/>
       <use xlink:href="#DejaVuSans-56" x="95.410156"/>
      </g>
     </g>
    </g>
    <g id="text_11">
     <g id="patch_15">
      <path d="M 34.8768 342.395313 
L 34.8768 273.204688 
L 11.247425 273.204688 
L 11.247425 342.395313 
z
" style="fill: #ffff00; opacity: 0.2; stroke: #eeeeee; stroke-width: 0.5; stroke-linejoin: miter"/>
     </g>
     <!-- CLK BUF -->
     <g transform="translate(26.925238 337.355313) rotate(-90) scale(0.14 -0.14)">
      <defs>
       <path id="DejaVuSans-43" d="M 4122 4306 
L 4122 3641 
Q 3803 3938 3442 4084 
Q 3081 4231 2675 4231 
Q 1875 4231 1450 3742 
Q 1025 3253 1025 2328 
Q 1025 1406 1450 917 
Q 1875 428 2675 428 
Q 3081 428 3442 575 
Q 3803 722 4122 1019 
L 4122 359 
Q 3791 134 3420 21 
Q 3050 -91 2638 -91 
Q 1578 -91 968 557 
Q 359 1206 359 2328 
Q 359 3453 968 4101 
Q 1578 4750 2638 4750 
Q 3056 4750 3426 4639 
Q 3797 4528 4122 4306 
z
" transform="scale(0.015625)"/>
       <path id="DejaVuSans-4b" d="M 628 4666 
L 1259 4666 
L 1259 2694 
L 3353 4666 
L 4166 4666 
L 1850 2491 
L 4331 0 
L 3500 0 
L 1259 2247 
L 1259 0 
L 628 0 
L 628 4666 
z
" transform="scale(0.015625)"/>
      </defs>
      <use xlink:href="#DejaVuSans-43"/>
      <use xlink:href="#DejaVuSans-4c" x="69.824219"/>
      <use xlink:href="#DejaVuSans-4b" x="125.537109"/>
      <use xlink:href="#DejaVuSans-20" x="191.113281"/>
      <use xlink:href="#DejaVuSans-42" x="222.900391"/>
      <use xlink:href="#DejaVuSans-55" x="291.503906"/>
      <use xlink:href="#DejaVuSans-46" x="364.697266"/>
     </g>
    </g>
   </g>
   <g id="line2d_55">
    <path d="M 141.12 348.433034 
L 173.376 348.433034 
L 173.601792 296.887071 
L 213.696 296.887071 
L 213.760512 338.004044 
L 213.825024 348.414545 
L 213.889536 348.352729 
L 213.954048 348.524334 
L 214.01856 348.438825 
L 215.373312 348.429383 
L 223.469568 348.432983 
L 254.016 348.433004 
L 254.17728 296.728134 
L 254.241792 297.003052 
L 254.403072 296.87848 
L 254.854656 296.887071 
L 294.336 296.887071 
L 294.400512 337.967961 
L 294.465024 348.754711 
L 294.529536 348.007866 
L 294.626304 348.501675 
L 294.65856 348.471108 
L 294.852096 348.395606 
L 295.206912 348.449801 
L 295.497216 348.432699 
L 320.721408 348.433033 
L 334.656 348.433036 
L 334.81728 296.809751 
L 334.881792 296.904254 
L 335.204352 296.891367 
L 336.075264 296.887071 
L 374.976 296.887071 
L 375.040512 338.00791 
L 375.105024 348.434866 
L 375.169536 348.347282 
L 375.234048 348.517942 
L 375.29856 348.438967 
L 376.717824 348.429027 
L 385.072128 348.43297 
L 415.296 348.433035 
L 415.45728 296.844115 
L 415.554048 296.887071 
L 418.586112 296.955801 
L 420.263424 299.374219 
L 421.90848 302.209309 
L 428.811264 313.941858 
L 432.39168 319.362036 
L 435.93984 324.275333 
L 438.584832 327.073052 
L 440.358912 328.639654 
L 440.391168 328.577798 
L 440.45568 328.658984 
L 441.133056 329.180469 
L 442.165248 329.927043 
L 444.294144 331.330842 
L 444.519936 331.234191 
L 445.068288 330.945528 
L 447.584256 329.926613 
L 447.616512 329.964844 
L 447.648768 329.851011 
L 447.681024 329.906424 
L 447.842304 329.826097 
L 448.164864 329.710975 
L 452.132352 328.277106 
L 452.293632 328.186899 
L 452.454912 328.162414 
L 455.616 327.062313 
L 455.712768 325.54468 
L 455.745024 326.054138 
L 455.809536 331.838581 
L 455.970816 349.95047 
L 456.003072 349.898322 
L 456.390144 349.835993 
L 458.809344 349.265066 
L 461.228544 348.783878 
L 461.42208 348.743577 
L 467.615232 347.885966 
L 469.550592 347.869943 
L 474.518016 347.923123 
L 474.905088 347.930511 
L 483.098112 347.933776 
L 483.743232 347.311259 
L 484.517376 346.90176 
L 485.517312 346.652702 
L 487.001088 346.545441 
L 489.710592 346.597031 
L 495.936 346.854036 
L 496.161792 286.362872 
L 496.774656 285.276087 
L 501.09696 278.007947 
L 501.838848 276.839546 
L 504.741888 272.032779 
L 505.354752 271.031906 
L 506.774016 268.793903 
L 507.999744 266.981163 
L 508.870656 265.774102 
L 510.322176 265.68819 
L 512.741376 266.444214 
L 514.225152 267.110031 
L 516.192768 268.012105 
L 516.612096 268.205407 
L 518.224896 268.939953 
L 520.515072 269.970895 
L 521.805312 270.533617 
L 528.933888 273.497575 
L 529.514496 273.82404 
L 531.772416 275.142787 
L 532.191744 275.387636 
L 536.256 277.651412 
L 536.449536 348.959477 
L 536.57856 348.884863 
L 546.7392 348.779299 
L 576.576 348.591324 
L 576.705024 290.774445 
L 576.801792 291.17823 
L 577.511424 291.272733 
L 577.86624 291.350054 
L 578.51136 291.457444 
L 578.866176 291.521877 
L 579.575808 291.629267 
L 579.930624 291.693701 
L 580.543488 291.801091 
L 580.898304 291.865525 
L 581.704704 291.972915 
L 582.05952 292.037348 
L 582.769152 292.144738 
L 583.123968 292.209172 
L 583.930368 292.316562 
L 584.188416 292.33804 
L 584.898048 292.44543 
L 585.252864 292.509863 
L 586.156032 292.617253 
L 586.510848 292.681687 
L 587.414016 292.789077 
L 587.672064 292.810555 
L 588.478464 292.917945 
L 588.801024 292.978083 
L 589.80096 293.076882 
L 590.252544 293.149907 
L 591.25248 293.248705 
L 591.704064 293.32173 
L 592.800768 293.420529 
L 593.252352 293.493554 
L 594.349056 293.592353 
L 594.703872 293.626717 
L 595.639296 293.734107 
L 595.897344 293.755585 
L 596.994048 293.862975 
L 597.252096 293.884453 
L 598.3488 293.991843 
L 598.606848 294.013321 
L 599.80032 294.12071 
L 600.058368 294.142188 
L 601.25184 294.249578 
L 601.509888 294.271056 
L 602.896896 294.378446 
L 603.154944 294.399924 
L 604.541952 294.507314 
L 604.8 294.528792 
L 605.316096 294.567452 
L 607.122432 294.69632 
L 608.767488 294.795118 
L 609.122304 294.825187 
L 610.702848 294.923986 
L 611.057664 294.954055 
L 612.831744 295.052854 
L 613.18656 295.082923 
L 615.154176 295.181721 
L 615.508992 295.211791 
L 616.896 295.297702 
L 616.928256 300.138834 
L 617.05728 348.429406 
L 617.21856 348.477012 
L 643.99104 348.451737 
L 657.216 348.445337 
L 657.312768 296.161116 
L 657.409536 296.350122 
L 657.441792 295.817469 
L 657.506304 296.453217 
L 657.635328 296.457512 
L 697.536 296.457512 
L 697.665024 348.762417 
L 697.826304 348.512401 
L 698.084352 348.416632 
L 698.439168 348.463396 
L 698.761728 348.445111 
L 736.759296 348.445334 
L 737.856 348.445335 
L 738.01728 296.234141 
L 738.081792 296.719543 
L 738.17856 296.277097 
L 738.243072 296.44033 
L 738.726912 296.457512 
L 778.176 296.457512 
L 778.305024 348.762181 
L 778.466304 348.512396 
L 778.724352 348.416643 
L 779.079168 348.463373 
L 779.401728 348.44511 
L 817.592832 348.445335 
L 818.496 348.445335 
L 818.65728 296.234141 
L 818.721792 296.719543 
L 818.81856 296.277097 
L 818.883072 296.44033 
L 819.366912 296.457512 
L 858.816 296.457512 
L 858.945024 348.762357 
L 859.106304 348.512353 
L 859.364352 348.416652 
L 859.719168 348.463385 
L 860.041728 348.445111 
L 898.039296 348.445334 
L 899.136 348.445335 
L 899.29728 296.234141 
L 899.361792 296.719543 
L 899.45856 296.277097 
L 899.523072 296.44033 
L 900.006912 296.457512 
L 939.456 296.457512 
L 939.488256 304.202464 
L 939.61728 348.394247 
L 939.649536 348.519158 
L 939.714048 348.399647 
L 939.746304 348.361956 
L 939.810816 348.417397 
L 940.004352 348.471042 
L 940.230144 348.443971 
L 945.649152 348.445339 
L 947.52 348.445325 
L 947.52 348.445325 
" clip-path="url(#pd7337968ab)" style="fill: none; stroke: #0000ff; stroke-width: 2; stroke-linecap: square"/>
   </g>
   <g id="patch_16">
    <path d="M 100.8 354.165517 
L 100.8 261.434483 
" style="fill: none; stroke: #bcbcbc; stroke-width: 0.8; stroke-linejoin: miter; stroke-linecap: square"/>
   </g>
   <g id="patch_17">
    <path d="M 987.84 354.165517 
L 987.84 261.434483 
" style="fill: none; stroke: #bcbcbc; stroke-width: 0.8; stroke-linejoin: miter; stroke-linecap: square"/>
   </g>
   <g id="patch_18">
    <path d="M 100.8 354.165517 
L 987.84 354.165517 
" style="fill: none; stroke: #bcbcbc; stroke-width: 0.8; stroke-linejoin: miter; stroke-linecap: square"/>
   </g>
   <g id="patch_19">
    <path d="M 100.8 261.434483 
L 987.84 261.434483 
" style="fill: none; stroke: #bcbcbc; stroke-width: 0.8; stroke-linejoin: miter; stroke-linecap: square"/>
   </g>
  </g>
  <g id="axes_4">
   <g id="patch_20">
    <path d="M 100.8 465.442759 
L 987.84 465.442759 
L 987.84 372.711724 
L 100.8 372.711724 
z
" style="fill: #eeeeee"/>
   </g>
   <g id="matplotlib.axis_7">
    <g id="xtick_19">
     <g id="line2d_56">
      <path d="M 141.12 465.442759 
L 141.12 372.711724 
" clip-path="url(#pc7cf9bbb3e)" style="fill: none; stroke-dasharray: 1.85,0.8; stroke-dashoffset: 0; stroke: #b2b2b2; stroke-width: 0.5"/>
     </g>
     <g id="line2d_57">
      <g>
       <use xlink:href="#m8abc62a0eb" x="141.12" y="465.442759" style="stroke: #000000; stroke-width: 0.8"/>
      </g>
     </g>
    </g>
    <g id="xtick_20">
     <g id="line2d_58">
      <path d="M 302.4 465.442759 
L 302.4 372.711724 
" clip-path="url(#pc7cf9bbb3e)" style="fill: none; stroke-dasharray: 1.85,0.8; stroke-dashoffset: 0; stroke: #b2b2b2; stroke-width: 0.5"/>
     </g>
     <g id="line2d_59">
      <g>
       <use xlink:href="#m8abc62a0eb" x="302.4" y="465.442759" style="stroke: #000000; stroke-width: 0.8"/>
      </g>
     </g>
    </g>
    <g id="xtick_21">
     <g id="line2d_60">
      <path d="M 463.68 465.442759 
L 463.68 372.711724 
" clip-path="url(#pc7cf9bbb3e)" style="fill: none; stroke-dasharray: 1.85,0.8; stroke-dashoffset: 0; stroke: #b2b2b2; stroke-width: 0.5"/>
     </g>
     <g id="line2d_61">
      <g>
       <use xlink:href="#m8abc62a0eb" x="463.68" y="465.442759" style="stroke: #000000; stroke-width: 0.8"/>
      </g>
     </g>
    </g>
    <g id="xtick_22">
     <g id="line2d_62">
      <path d="M 624.96 465.442759 
L 624.96 372.711724 
" clip-path="url(#pc7cf9bbb3e)" style="fill: none; stroke-dasharray: 1.85,0.8; stroke-dashoffset: 0; stroke: #b2b2b2; stroke-width: 0.5"/>
     </g>
     <g id="line2d_63">
      <g>
       <use xlink:href="#m8abc62a0eb" x="624.96" y="465.442759" style="stroke: #000000; stroke-width: 0.8"/>
      </g>
     </g>
    </g>
    <g id="xtick_23">
     <g id="line2d_64">
      <path d="M 786.24 465.442759 
L 786.24 372.711724 
" clip-path="url(#pc7cf9bbb3e)" style="fill: none; stroke-dasharray: 1.85,0.8; stroke-dashoffset: 0; stroke: #b2b2b2; stroke-width: 0.5"/>
     </g>
     <g id="line2d_65">
      <g>
       <use xlink:href="#m8abc62a0eb" x="786.24" y="465.442759" style="stroke: #000000; stroke-width: 0.8"/>
      </g>
     </g>
    </g>
    <g id="xtick_24">
     <g id="line2d_66">
      <path d="M 947.52 465.442759 
L 947.52 372.711724 
" clip-path="url(#pc7cf9bbb3e)" style="fill: none; stroke-dasharray: 1.85,0.8; stroke-dashoffset: 0; stroke: #b2b2b2; stroke-width: 0.5"/>
     </g>
     <g id="line2d_67">
      <g>
       <use xlink:href="#m8abc62a0eb" x="947.52" y="465.442759" style="stroke: #000000; stroke-width: 0.8"/>
      </g>
     </g>
    </g>
   </g>
   <g id="matplotlib.axis_8">
    <g id="ytick_9">
     <g id="line2d_68">
      <path d="M 100.8 437.453803 
L 987.84 437.453803 
" clip-path="url(#pc7cf9bbb3e)" style="fill: none; stroke-dasharray: 1.85,0.8; stroke-dashoffset: 0; stroke: #b2b2b2; stroke-width: 0.5"/>
     </g>
     <g id="line2d_69">
      <g>
       <use xlink:href="#mdc5b891316" x="100.8" y="437.453803" style="stroke: #000000; stroke-width: 0.8"/>
      </g>
     </g>
     <g id="text_12">
      <!-- 0 V -->
      <g transform="translate(74.36625 442.772709) scale(0.14 -0.14)">
       <use xlink:href="#DejaVuSans-30"/>
       <use xlink:href="#DejaVuSans-20" x="63.623047"/>
       <use xlink:href="#DejaVuSans-56" x="95.410156"/>
      </g>
     </g>
    </g>
    <g id="ytick_10">
     <g id="line2d_70">
      <path d="M 100.8 395.922973 
L 987.84 395.922973 
" clip-path="url(#pc7cf9bbb3e)" style="fill: none; stroke-dasharray: 1.85,0.8; stroke-dashoffset: 0; stroke: #b2b2b2; stroke-width: 0.5"/>
     </g>
     <g id="line2d_71">
      <g>
       <use xlink:href="#mdc5b891316" x="100.8" y="395.922973" style="stroke: #000000; stroke-width: 0.8"/>
      </g>
     </g>
     <g id="text_13">
      <!-- 1 V -->
      <g transform="translate(74.36625 401.241879) scale(0.14 -0.14)">
       <use xlink:href="#DejaVuSans-31"/>
       <use xlink:href="#DejaVuSans-20" x="63.623047"/>
       <use xlink:href="#DejaVuSans-56" x="95.410156"/>
      </g>
     </g>
    </g>
    <g id="text_14">
     <g id="patch_21">
      <path d="M 34.8768 454.693023 
L 34.8768 383.46146 
L 11.247425 383.46146 
L 11.247425 454.693023 
z
" style="fill: #ffff00; opacity: 0.2; stroke: #eeeeee; stroke-width: 0.5; stroke-linejoin: miter"/>
     </g>
     <!-- DFF OUT -->
     <g transform="translate(26.925238 449.653023) rotate(-90) scale(0.14 -0.14)">
      <defs>
       <path id="DejaVuSans-4f" d="M 2522 4238 
Q 1834 4238 1429 3725 
Q 1025 3213 1025 2328 
Q 1025 1447 1429 934 
Q 1834 422 2522 422 
Q 3209 422 3611 934 
Q 4013 1447 4013 2328 
Q 4013 3213 3611 3725 
Q 3209 4238 2522 4238 
z
M 2522 4750 
Q 3503 4750 4090 4092 
Q 4678 3434 4678 2328 
Q 4678 1225 4090 567 
Q 3503 -91 2522 -91 
Q 1538 -91 948 565 
Q 359 1222 359 2328 
Q 359 3434 948 4092 
Q 1538 4750 2522 4750 
z
" transform="scale(0.015625)"/>
       <path id="DejaVuSans-54" d="M -19 4666 
L 3928 4666 
L 3928 4134 
L 2272 4134 
L 2272 0 
L 1638 0 
L 1638 4134 
L -19 4134 
L -19 4666 
z
" transform="scale(0.015625)"/>
      </defs>
      <use xlink:href="#DejaVuSans-44"/>
      <use xlink:href="#DejaVuSans-46" x="77.001953"/>
      <use xlink:href="#DejaVuSans-46" x="134.521484"/>
      <use xlink:href="#DejaVuSans-20" x="192.041016"/>
      <use xlink:href="#DejaVuSans-4f" x="223.828125"/>
      <use xlink:href="#DejaVuSans-55" x="302.539062"/>
      <use xlink:href="#DejaVuSans-54" x="375.732422"/>
     </g>
    </g>
   </g>
   <g id="line2d_72">
    <path d="M 141.12 406.117546 
L 173.408256 406.168213 
L 173.440512 407.88759 
L 173.601792 437.456338 
L 174.085632 437.451146 
L 183.923712 437.452704 
L 254.048256 437.454436 
L 254.080512 437.620458 
L 254.112768 437.345835 
L 254.306304 433.291168 
L 254.596608 432.47841 
L 254.693376 431.898639 
L 255.14496 424.622438 
L 255.370752 407.520873 
L 255.596544 388.019656 
L 255.757824 387.679103 
L 255.983616 387.612654 
L 256.854528 387.616807 
L 295.755264 387.699869 
L 296.239104 390.386913 
L 296.59392 389.714114 
L 297.948672 387.95736 
L 299.561472 387.650032 
L 334.688256 387.633419 
L 334.720512 387.51298 
L 334.752768 388.123483 
L 334.785024 391.142774 
L 334.914048 437.436779 
L 334.97856 437.400228 
L 335.13984 437.445099 
L 335.494656 437.4532 
L 365.524992 437.45266 
L 415.328256 437.469881 
L 415.360512 437.623369 
L 415.392768 437.395012 
L 415.586304 433.26625 
L 416.070144 431.188462 
L 416.231424 429.075789 
L 416.392704 423.893572 
L 416.618496 406.927397 
L 416.844288 387.924135 
L 417.005568 387.625113 
L 417.908736 387.616807 
L 418.618368 387.720634 
L 420.231168 389.971605 
L 421.940736 392.824773 
L 426.456576 400.584809 
L 427.133952 402.308338 
L 429.069312 410.465408 
L 429.101568 410.250279 
L 429.133824 410.215808 
L 429.48864 412.585973 
L 429.617664 413.296565 
L 429.64992 412.960996 
L 429.682176 412.95975 
L 429.875712 414.506358 
L 430.29504 416.168837 
L 430.488576 417.505299 
L 430.875648 419.406996 
L 430.94016 419.723461 
L 430.972416 419.671132 
L 431.004672 419.294448 
L 431.036928 420.154966 
L 432.133632 425.799006 
L 433.456128 431.999144 
L 433.746432 433.153701 
L 433.972224 434.170043 
L 434.036736 433.60892 
L 434.068992 433.779488 
L 434.198016 435.093357 
L 434.6496 436.898162 
L 434.681856 436.335419 
L 434.714112 436.958631 
L 434.97216 438.277193 
L 435.359232 439.52885 
L 435.391488 439.416259 
L 435.423744 439.687788 
L 435.456 439.7147 
L 435.810816 441.495085 
L 436.10112 442.179181 
L 436.133376 442.086152 
L 436.165632 442.172951 
L 437.133312 445.088831 
L 437.649408 446.080587 
L 437.681664 445.857982 
L 437.746176 446.080172 
L 437.778432 446.03698 
L 437.810688 446.146621 
L 437.939712 446.760862 
L 437.971968 446.576465 
L 438.004224 446.800732 
L 438.03648 446.719747 
L 438.488064 448.298334 
L 439.133184 449.868614 
L 439.197696 450.026016 
L 439.229952 449.766448 
L 439.262208 449.888964 
L 439.423488 450.544321 
L 439.520256 450.815517 
L 440.2944 452.645366 
L 440.326656 452.441864 
L 440.358912 452.760821 
L 440.391168 452.61048 
L 440.45568 452.737149 
L 440.61696 453.381292 
L 442.262016 456.95585 
L 442.584576 457.494921 
L 442.745856 457.839626 
L 442.907136 458.357931 
L 444.390912 461.213591 
L 444.584448 461.046637 
L 444.874752 460.443194 
L 446.552064 457.346656 
L 446.810112 456.920965 
L 446.971392 456.586641 
L 447.003648 456.647692 
L 447.035904 456.683408 
L 447.197184 456.232799 
L 447.22944 456.351992 
L 447.261696 456.145169 
L 447.584256 455.704942 
L 447.616512 455.893492 
L 447.648768 455.636001 
L 447.681024 455.76973 
L 447.842304 455.357329 
L 447.87456 455.358575 
L 447.906816 455.50061 
L 447.939072 455.225676 
L 447.971328 455.210725 
L 448.003584 455.377679 
L 448.03584 455.145106 
L 448.551936 454.65795 
L 448.809984 454.361835 
L 449.132544 453.779157 
L 449.229312 453.640029 
L 449.261568 453.83024 
L 449.293824 453.556967 
L 449.32608 453.707309 
L 449.422848 453.390429 
L 449.455104 453.624247 
L 449.519616 453.294908 
L 449.777664 452.965568 
L 449.80992 453.196895 
L 449.842176 452.989656 
L 450.003456 452.727597 
L 450.358272 452.331392 
L 450.390528 452.438542 
L 450.422784 452.501254 
L 450.551808 452.154886 
L 451.293696 451.543968 
L 451.584 451.025663 
L 452.035584 450.404777 
L 452.100096 450.390657 
L 452.132352 450.56384 
L 452.164608 450.336251 
L 452.325888 450.07876 
L 452.487168 449.909314 
L 452.519424 450.201691 
L 452.616192 450.096618 
L 452.648448 450.070454 
L 452.777472 449.612784 
L 452.809728 449.844942 
L 452.87424 449.502728 
L 453.067776 449.349894 
L 453.100032 449.469918 
L 453.132288 449.519755 
L 453.293568 449.186263 
L 453.325824 449.261018 
L 453.35808 449.135595 
L 453.777408 448.911329 
L 454.261248 448.284628 
L 454.454784 447.856445 
L 454.551552 447.698213 
L 454.583808 447.986022 
L 454.64832 447.573621 
L 454.680576 447.849385 
L 454.745088 447.467717 
L 454.938624 447.237221 
L 454.97088 447.574451 
L 455.067648 447.504679 
L 455.196672 446.947336 
L 455.228928 446.945259 
L 455.261184 447.310315 
L 455.29344 446.85223 
L 455.325696 446.856383 
L 456.067584 446.270383 
L 456.648192 445.92277 
L 457.615872 444.887822 
L 457.71264 444.31968 
L 457.744896 444.327986 
L 457.906176 444.151065 
L 457.938432 444.337123 
L 458.002944 444.246586 
L 458.067456 444.156049 
L 458.131968 444.234126 
L 458.19648 443.843321 
L 458.35776 443.802621 
L 458.422272 443.709177 
L 458.454528 444.09749 
L 458.486784 443.692564 
L 458.551296 443.94881 
L 458.68032 443.500692 
L 458.712576 443.504014 
L 458.744832 443.818403 
L 458.777088 443.429674 
L 458.809344 443.441718 
L 458.873856 443.402264 
L 458.938368 443.654356 
L 459.067392 443.359487 
L 460.486656 442.17129 
L 460.61568 441.620591 
L 460.647936 442.023856 
L 460.712448 441.485575 
L 460.841472 441.32377 
L 460.873728 441.800005 
L 460.905984 441.29146 
L 460.970496 441.685379 
L 461.09952 441.122097 
L 461.131776 440.996466 
L 461.164032 441.508666 
L 461.228544 440.978857 
L 461.2608 440.865852 
L 461.293056 440.997878 
L 461.325312 441.16587 
L 461.389824 440.943556 
L 461.42208 441.080815 
L 461.58336 440.595486 
L 461.615616 440.613386 
L 461.647872 441.037457 
L 461.680128 440.544112 
L 461.74464 440.954478 
L 461.809152 440.762108 
L 461.970432 440.407517 
L 462.002688 440.409718 
L 462.034944 440.614549 
L 462.0672 440.378487 
L 462.099456 440.384966 
L 462.422016 440.294969 
L 463.938048 438.631617 
L 464.034816 438.063974 
L 464.067072 438.29501 
L 464.099328 438.275574 
L 464.196096 437.727097 
L 464.228352 437.951633 
L 464.260608 437.582088 
L 464.292864 438.00255 
L 464.357376 437.718662 
L 464.389632 437.432439 
L 464.454144 437.655531 
L 464.4864 437.711838 
L 464.518656 437.630077 
L 464.679936 437.381004 
L 465.486336 435.902585 
L 465.61536 435.435571 
L 465.647616 435.440513 
L 465.808896 434.731374 
L 465.873408 435.166077 
L 465.905664 435.008177 
L 465.970176 434.691795 
L 466.034688 434.74292 
L 466.163712 434.617414 
L 467.260416 432.46595 
L 467.324928 431.884934 
L 467.421696 431.967165 
L 467.518464 431.891164 
L 468.615168 429.571667 
L 468.647424 429.160512 
L 468.67968 429.65016 
L 468.711936 429.58288 
L 468.873216 429.168403 
L 472.87296 420.973954 
L 472.905216 420.337287 
L 473.001984 420.408304 
L 473.098752 420.478492 
L 473.131008 420.446513 
L 474.292224 418.085485 
L 474.421248 417.452971 
L 474.582528 417.572995 
L 474.905088 416.974535 
L 475.905024 415.010127 
L 475.93728 414.469396 
L 476.034048 414.525047 
L 476.130816 414.729794 
L 476.163072 414.713597 
L 477.06624 413.000035 
L 477.775872 412.03652 
L 478.130688 411.486236 
L 478.35648 410.923493 
L 478.808064 410.175108 
L 480.13056 408.175814 
L 480.356352 407.79373 
L 481.065984 406.920337 
L 481.58208 406.48717 
L 482.54976 405.267825 
L 482.904576 404.516948 
L 483.19488 404.212942 
L 483.84 402.052923 
L 484.517376 400.598929 
L 487.420416 394.481853 
L 490.162176 388.733986 
L 490.839552 387.39254 
L 493.097472 382.990272 
L 494.290944 380.776679 
L 496.000512 377.732469 
L 496.032768 376.926771 
L 496.323072 435.942247 
L 503.064576 436.093752 
L 505.225728 436.076724 
L 508.870656 436.245547 
L 509.580288 436.927234 
L 510.386688 437.354316 
L 511.354368 437.616783 
L 512.838144 437.779496 
L 515.77344 437.8419 
L 527.966208 437.776539 
L 529.191936 437.882941 
L 531.90144 437.936184 
L 576.608256 437.59806 
L 576.640512 437.902959 
L 576.963072 431.77114 
L 577.22112 430.387332 
L 577.3824 428.170001 
L 577.54368 421.849009 
L 577.737216 404.185532 
L 577.963008 382.483596 
L 578.124288 382.305014 
L 578.801664 382.412994 
L 579.350016 382.512668 
L 580.059648 382.616495 
L 580.414464 382.678791 
L 581.124096 382.786771 
L 581.57568 382.844914 
L 582.188544 382.948742 
L 582.54336 383.011038 
L 583.34976 383.114865 
L 583.704576 383.177161 
L 584.607744 383.280988 
L 584.96256 383.343284 
L 585.76896 383.447112 
L 586.027008 383.467877 
L 586.73664 383.571704 
L 586.994688 383.592469 
L 587.801088 383.696296 
L 588.155904 383.758593 
L 589.15584 383.86242 
L 589.510656 383.924716 
L 590.510592 384.028543 
L 590.76864 384.049309 
L 591.671808 384.153136 
L 591.929856 384.173901 
L 592.833024 384.277728 
L 593.091072 384.298494 
L 593.99424 384.402321 
L 594.252288 384.423086 
L 595.252224 384.526913 
L 595.510272 384.547679 
L 596.510208 384.651506 
L 596.768256 384.672271 
L 597.86496 384.776098 
L 598.123008 384.796863 
L 599.31648 384.900691 
L 599.574528 384.921456 
L 600.768 385.025283 
L 601.026048 385.046048 
L 602.316288 385.149876 
L 602.574336 385.170641 
L 603.961344 385.274468 
L 604.219392 385.295233 
L 605.703168 385.399061 
L 605.961216 385.419826 
L 607.444992 385.523653 
L 607.70304 385.540265 
L 609.380352 385.648246 
L 609.6384 385.669011 
L 611.41248 385.772838 
L 611.670528 385.793603 
L 613.638144 385.89743 
L 613.896192 385.918196 
L 615.960576 386.022023 
L 616.218624 386.042788 
L 618.573312 386.146615 
L 618.895872 386.163228 
L 621.282816 386.271208 
L 621.540864 386.28782 
L 624.379392 386.3958 
L 624.63744 386.412413 
L 627.766272 386.520393 
L 628.02432 386.537005 
L 631.540224 386.644985 
L 631.798272 386.661598 
L 635.798016 386.769578 
L 636.056064 386.78619 
L 640.733184 386.89417 
L 641.055744 386.910783 
L 646.636032 387.018763 
L 646.990848 387.039528 
L 653.893632 387.143355 
L 654.248448 387.164121 
L 657.248256 387.201499 
L 657.312768 387.367622 
L 657.345024 387.201499 
L 657.37728 387.12259 
L 657.441792 387.234723 
L 657.69984 387.193192 
L 737.888256 387.197345 
L 737.920512 387.409153 
L 737.985024 387.197345 
L 738.17856 387.17658 
L 739.210752 387.201499 
L 818.528256 387.197345 
L 818.560512 387.409153 
L 818.625024 387.197345 
L 818.81856 387.17658 
L 819.850752 387.201499 
L 899.168256 387.197345 
L 899.200512 387.409153 
L 899.265024 387.197345 
L 899.45856 387.17658 
L 900.490752 387.201499 
L 947.52 387.201499 
L 947.52 387.201499 
" clip-path="url(#pc7cf9bbb3e)" style="fill: none; stroke: #ff00ff; stroke-width: 2; stroke-linecap: square"/>
   </g>
   <g id="patch_22">
    <path d="M 100.8 465.442759 
L 100.8 372.711724 
" style="fill: none; stroke: #bcbcbc; stroke-width: 0.8; stroke-linejoin: miter; stroke-linecap: square"/>
   </g>
   <g id="patch_23">
    <path d="M 987.84 465.442759 
L 987.84 372.711724 
" style="fill: none; stroke: #bcbcbc; stroke-width: 0.8; stroke-linejoin: miter; stroke-linecap: square"/>
   </g>
   <g id="patch_24">
    <path d="M 100.8 465.442759 
L 987.84 465.442759 
" style="fill: none; stroke: #bcbcbc; stroke-width: 0.8; stroke-linejoin: miter; stroke-linecap: square"/>
   </g>
   <g id="patch_25">
    <path d="M 100.8 372.711724 
L 987.84 372.711724 
" style="fill: none; stroke: #bcbcbc; stroke-width: 0.8; stroke-linejoin: miter; stroke-linecap: square"/>
   </g>
  </g>
  <g id="axes_5">
   <g id="patch_26">
    <path d="M 100.8 576.72 
L 987.84 576.72 
L 987.84 483.988966 
L 100.8 483.988966 
z
" style="fill: #eeeeee"/>
   </g>
   <g id="matplotlib.axis_9">
    <g id="xtick_25">
     <g id="line2d_73">
      <path d="M 141.12 576.72 
L 141.12 483.988966 
" clip-path="url(#p68962b4284)" style="fill: none; stroke-dasharray: 1.85,0.8; stroke-dashoffset: 0; stroke: #b2b2b2; stroke-width: 0.5"/>
     </g>
     <g id="line2d_74">
      <g>
       <use xlink:href="#m8abc62a0eb" x="141.12" y="576.72" style="stroke: #000000; stroke-width: 0.8"/>
      </g>
     </g>
     <g id="text_15">
      <!-- 0 s -->
      <g transform="translate(130.795 590.857813) scale(0.14 -0.14)">
       <defs>
        <path id="DejaVuSans-73" d="M 2834 3397 
L 2834 2853 
Q 2591 2978 2328 3040 
Q 2066 3103 1784 3103 
Q 1356 3103 1142 2972 
Q 928 2841 928 2578 
Q 928 2378 1081 2264 
Q 1234 2150 1697 2047 
L 1894 2003 
Q 2506 1872 2764 1633 
Q 3022 1394 3022 966 
Q 3022 478 2636 193 
Q 2250 -91 1575 -91 
Q 1294 -91 989 -36 
Q 684 19 347 128 
L 347 722 
Q 666 556 975 473 
Q 1284 391 1588 391 
Q 1994 391 2212 530 
Q 2431 669 2431 922 
Q 2431 1156 2273 1281 
Q 2116 1406 1581 1522 
L 1381 1569 
Q 847 1681 609 1914 
Q 372 2147 372 2553 
Q 372 3047 722 3315 
Q 1072 3584 1716 3584 
Q 2034 3584 2315 3537 
Q 2597 3491 2834 3397 
z
" transform="scale(0.015625)"/>
       </defs>
       <use xlink:href="#DejaVuSans-30"/>
       <use xlink:href="#DejaVuSans-20" x="63.623047"/>
       <use xlink:href="#DejaVuSans-73" x="95.410156"/>
      </g>
     </g>
    </g>
    <g id="xtick_26">
     <g id="line2d_75">
      <path d="M 302.4 576.72 
L 302.4 483.988966 
" clip-path="url(#p68962b4284)" style="fill: none; stroke-dasharray: 1.85,0.8; stroke-dashoffset: 0; stroke: #b2b2b2; stroke-width: 0.5"/>
     </g>
     <g id="line2d_76">
      <g>
       <use xlink:href="#m8abc62a0eb" x="302.4" y="576.72" style="stroke: #000000; stroke-width: 0.8"/>
      </g>
     </g>
     <g id="text_16">
      <!-- 50 ns -->
      <g transform="translate(283.185 590.857813) scale(0.14 -0.14)">
       <defs>
        <path id="DejaVuSans-35" d="M 691 4666 
L 3169 4666 
L 3169 4134 
L 1269 4134 
L 1269 2991 
Q 1406 3038 1543 3061 
Q 1681 3084 1819 3084 
Q 2600 3084 3056 2656 
Q 3513 2228 3513 1497 
Q 3513 744 3044 326 
Q 2575 -91 1722 -91 
Q 1428 -91 1123 -41 
Q 819 9 494 109 
L 494 744 
Q 775 591 1075 516 
Q 1375 441 1709 441 
Q 2250 441 2565 725 
Q 2881 1009 2881 1497 
Q 2881 1984 2565 2268 
Q 2250 2553 1709 2553 
Q 1456 2553 1204 2497 
Q 953 2441 691 2322 
L 691 4666 
z
" transform="scale(0.015625)"/>
        <path id="DejaVuSans-6e" d="M 3513 2113 
L 3513 0 
L 2938 0 
L 2938 2094 
Q 2938 2591 2744 2837 
Q 2550 3084 2163 3084 
Q 1697 3084 1428 2787 
Q 1159 2491 1159 1978 
L 1159 0 
L 581 0 
L 581 3500 
L 1159 3500 
L 1159 2956 
Q 1366 3272 1645 3428 
Q 1925 3584 2291 3584 
Q 2894 3584 3203 3211 
Q 3513 2838 3513 2113 
z
" transform="scale(0.015625)"/>
       </defs>
       <use xlink:href="#DejaVuSans-35"/>
       <use xlink:href="#DejaVuSans-30" x="63.623047"/>
       <use xlink:href="#DejaVuSans-20" x="127.246094"/>
       <use xlink:href="#DejaVuSans-6e" x="159.033203"/>
       <use xlink:href="#DejaVuSans-73" x="222.412109"/>
      </g>
     </g>
    </g>
    <g id="xtick_27">
     <g id="line2d_77">
      <path d="M 463.68 576.72 
L 463.68 483.988966 
" clip-path="url(#p68962b4284)" style="fill: none; stroke-dasharray: 1.85,0.8; stroke-dashoffset: 0; stroke: #b2b2b2; stroke-width: 0.5"/>
     </g>
     <g id="line2d_78">
      <g>
       <use xlink:href="#m8abc62a0eb" x="463.68" y="576.72" style="stroke: #000000; stroke-width: 0.8"/>
      </g>
     </g>
     <g id="text_17">
      <!-- 100 ns -->
      <g transform="translate(440.01125 590.857813) scale(0.14 -0.14)">
       <use xlink:href="#DejaVuSans-31"/>
       <use xlink:href="#DejaVuSans-30" x="63.623047"/>
       <use xlink:href="#DejaVuSans-30" x="127.246094"/>
       <use xlink:href="#DejaVuSans-20" x="190.869141"/>
       <use xlink:href="#DejaVuSans-6e" x="222.65625"/>
       <use xlink:href="#DejaVuSans-73" x="286.035156"/>
      </g>
     </g>
    </g>
    <g id="xtick_28">
     <g id="line2d_79">
      <path d="M 624.96 576.72 
L 624.96 483.988966 
" clip-path="url(#p68962b4284)" style="fill: none; stroke-dasharray: 1.85,0.8; stroke-dashoffset: 0; stroke: #b2b2b2; stroke-width: 0.5"/>
     </g>
     <g id="line2d_80">
      <g>
       <use xlink:href="#m8abc62a0eb" x="624.96" y="576.72" style="stroke: #000000; stroke-width: 0.8"/>
      </g>
     </g>
     <g id="text_18">
      <!-- 150 ns -->
      <g transform="translate(601.29125 590.857813) scale(0.14 -0.14)">
       <use xlink:href="#DejaVuSans-31"/>
       <use xlink:href="#DejaVuSans-35" x="63.623047"/>
       <use xlink:href="#DejaVuSans-30" x="127.246094"/>
       <use xlink:href="#DejaVuSans-20" x="190.869141"/>
       <use xlink:href="#DejaVuSans-6e" x="222.65625"/>
       <use xlink:href="#DejaVuSans-73" x="286.035156"/>
      </g>
     </g>
    </g>
    <g id="xtick_29">
     <g id="line2d_81">
      <path d="M 786.24 576.72 
L 786.24 483.988966 
" clip-path="url(#p68962b4284)" style="fill: none; stroke-dasharray: 1.85,0.8; stroke-dashoffset: 0; stroke: #b2b2b2; stroke-width: 0.5"/>
     </g>
     <g id="line2d_82">
      <g>
       <use xlink:href="#m8abc62a0eb" x="786.24" y="576.72" style="stroke: #000000; stroke-width: 0.8"/>
      </g>
     </g>
     <g id="text_19">
      <!-- 200 ns -->
      <g transform="translate(762.57125 590.857813) scale(0.14 -0.14)">
       <use xlink:href="#DejaVuSans-32"/>
       <use xlink:href="#DejaVuSans-30" x="63.623047"/>
       <use xlink:href="#DejaVuSans-30" x="127.246094"/>
       <use xlink:href="#DejaVuSans-20" x="190.869141"/>
       <use xlink:href="#DejaVuSans-6e" x="222.65625"/>
       <use xlink:href="#DejaVuSans-73" x="286.035156"/>
      </g>
     </g>
    </g>
    <g id="xtick_30">
     <g id="line2d_83">
      <path d="M 947.52 576.72 
L 947.52 483.988966 
" clip-path="url(#p68962b4284)" style="fill: none; stroke-dasharray: 1.85,0.8; stroke-dashoffset: 0; stroke: #b2b2b2; stroke-width: 0.5"/>
     </g>
     <g id="line2d_84">
      <g>
       <use xlink:href="#m8abc62a0eb" x="947.52" y="576.72" style="stroke: #000000; stroke-width: 0.8"/>
      </g>
     </g>
     <g id="text_20">
      <!-- 250 ns -->
      <g transform="translate(923.85125 590.857813) scale(0.14 -0.14)">
       <use xlink:href="#DejaVuSans-32"/>
       <use xlink:href="#DejaVuSans-35" x="63.623047"/>
       <use xlink:href="#DejaVuSans-30" x="127.246094"/>
       <use xlink:href="#DejaVuSans-20" x="190.869141"/>
       <use xlink:href="#DejaVuSans-6e" x="222.65625"/>
       <use xlink:href="#DejaVuSans-73" x="286.035156"/>
      </g>
     </g>
    </g>
    <g id="text_21">
     <!-- Time -->
     <g transform="translate(527.192969 608.407187) scale(0.14 -0.14)">
      <defs>
       <path id="DejaVuSans-69" d="M 603 3500 
L 1178 3500 
L 1178 0 
L 603 0 
L 603 3500 
z
M 603 4863 
L 1178 4863 
L 1178 4134 
L 603 4134 
L 603 4863 
z
" transform="scale(0.015625)"/>
       <path id="DejaVuSans-6d" d="M 3328 2828 
Q 3544 3216 3844 3400 
Q 4144 3584 4550 3584 
Q 5097 3584 5394 3201 
Q 5691 2819 5691 2113 
L 5691 0 
L 5113 0 
L 5113 2094 
Q 5113 2597 4934 2840 
Q 4756 3084 4391 3084 
Q 3944 3084 3684 2787 
Q 3425 2491 3425 1978 
L 3425 0 
L 2847 0 
L 2847 2094 
Q 2847 2600 2669 2842 
Q 2491 3084 2119 3084 
Q 1678 3084 1418 2786 
Q 1159 2488 1159 1978 
L 1159 0 
L 581 0 
L 581 3500 
L 1159 3500 
L 1159 2956 
Q 1356 3278 1631 3431 
Q 1906 3584 2284 3584 
Q 2666 3584 2933 3390 
Q 3200 3197 3328 2828 
z
" transform="scale(0.015625)"/>
       <path id="DejaVuSans-65" d="M 3597 1894 
L 3597 1613 
L 953 1613 
Q 991 1019 1311 708 
Q 1631 397 2203 397 
Q 2534 397 2845 478 
Q 3156 559 3463 722 
L 3463 178 
Q 3153 47 2828 -22 
Q 2503 -91 2169 -91 
Q 1331 -91 842 396 
Q 353 884 353 1716 
Q 353 2575 817 3079 
Q 1281 3584 2069 3584 
Q 2775 3584 3186 3129 
Q 3597 2675 3597 1894 
z
M 3022 2063 
Q 3016 2534 2758 2815 
Q 2500 3097 2075 3097 
Q 1594 3097 1305 2825 
Q 1016 2553 972 2059 
L 3022 2063 
z
" transform="scale(0.015625)"/>
      </defs>
      <use xlink:href="#DejaVuSans-54"/>
      <use xlink:href="#DejaVuSans-69" x="57.958984"/>
      <use xlink:href="#DejaVuSans-6d" x="85.742188"/>
      <use xlink:href="#DejaVuSans-65" x="183.154297"/>
     </g>
    </g>
   </g>
   <g id="matplotlib.axis_10">
    <g id="ytick_11">
     <g id="line2d_85">
      <path d="M 100.8 569.756463 
L 987.84 569.756463 
" clip-path="url(#p68962b4284)" style="fill: none; stroke-dasharray: 1.85,0.8; stroke-dashoffset: 0; stroke: #b2b2b2; stroke-width: 0.5"/>
     </g>
     <g id="line2d_86">
      <g>
       <use xlink:href="#mdc5b891316" x="100.8" y="569.756463" style="stroke: #000000; stroke-width: 0.8"/>
      </g>
     </g>
     <g id="text_22">
      <!-- 0 V -->
      <g transform="translate(74.36625 575.075369) scale(0.14 -0.14)">
       <use xlink:href="#DejaVuSans-30"/>
       <use xlink:href="#DejaVuSans-20" x="63.623047"/>
       <use xlink:href="#DejaVuSans-56" x="95.410156"/>
      </g>
     </g>
    </g>
    <g id="ytick_12">
     <g id="line2d_87">
      <path d="M 100.8 536.090491 
L 987.84 536.090491 
" clip-path="url(#p68962b4284)" style="fill: none; stroke-dasharray: 1.85,0.8; stroke-dashoffset: 0; stroke: #b2b2b2; stroke-width: 0.5"/>
     </g>
     <g id="line2d_88">
      <g>
       <use xlink:href="#mdc5b891316" x="100.8" y="536.090491" style="stroke: #000000; stroke-width: 0.8"/>
      </g>
     </g>
     <g id="text_23">
      <!-- 500 mV -->
      <g transform="translate(42.914375 541.409397) scale(0.14 -0.14)">
       <use xlink:href="#DejaVuSans-35"/>
       <use xlink:href="#DejaVuSans-30" x="63.623047"/>
       <use xlink:href="#DejaVuSans-30" x="127.246094"/>
       <use xlink:href="#DejaVuSans-20" x="190.869141"/>
       <use xlink:href="#DejaVuSans-6d" x="222.65625"/>
       <use xlink:href="#DejaVuSans-56" x="320.068359"/>
      </g>
     </g>
    </g>
    <g id="ytick_13">
     <g id="line2d_89">
      <path d="M 100.8 502.424519 
L 987.84 502.424519 
" clip-path="url(#p68962b4284)" style="fill: none; stroke-dasharray: 1.85,0.8; stroke-dashoffset: 0; stroke: #b2b2b2; stroke-width: 0.5"/>
     </g>
     <g id="line2d_90">
      <g>
       <use xlink:href="#mdc5b891316" x="100.8" y="502.424519" style="stroke: #000000; stroke-width: 0.8"/>
      </g>
     </g>
     <g id="text_24">
      <!-- 1 V -->
      <g transform="translate(74.36625 507.743425) scale(0.14 -0.14)">
       <use xlink:href="#DejaVuSans-31"/>
       <use xlink:href="#DejaVuSans-20" x="63.623047"/>
       <use xlink:href="#DejaVuSans-56" x="95.410156"/>
      </g>
     </g>
    </g>
    <g id="text_25">
     <g id="patch_27">
      <path d="M 34.8768 554.329483 
L 34.8768 506.379483 
L 11.247425 506.379483 
L 11.247425 554.329483 
z
" style="fill: #ffff00; opacity: 0.2; stroke: #eeeeee; stroke-width: 0.5; stroke-linejoin: miter"/>
     </g>
     <!-- FOUT -->
     <g transform="translate(26.925238 549.289483) rotate(-90) scale(0.14 -0.14)">
      <use xlink:href="#DejaVuSans-46"/>
      <use xlink:href="#DejaVuSans-4f" x="57.519531"/>
      <use xlink:href="#DejaVuSans-55" x="136.230469"/>
      <use xlink:href="#DejaVuSans-54" x="209.423828"/>
     </g>
    </g>
   </g>
   <g id="line2d_91">
    <path d="M 141.12 488.95813 
L 173.472768 488.964864 
L 173.505024 488.769601 
L 173.569536 526.964993 
L 173.69856 572.504953 
L 173.730816 572.37002 
L 173.827584 567.859991 
L 173.892096 569.372954 
L 174.053376 570.073549 
L 174.117888 569.956473 
L 174.408192 569.503605 
L 174.440448 569.552871 
L 174.66624 569.740593 
L 176.182272 569.75075 
L 180.14976 569.77168 
L 193.729536 569.761725 
L 213.018624 569.754592 
L 255.30624 569.75429 
L 255.6288 488.850399 
L 255.854592 488.991796 
L 256.209408 488.951397 
L 334.849536 488.971597 
L 334.881792 493.159644 
L 335.043072 572.184992 
L 335.107584 570.269809 
L 335.172096 568.354612 
L 335.236608 568.884043 
L 335.365632 570.789604 
L 335.430144 570.418114 
L 335.591424 569.807594 
L 335.881728 569.659391 
L 336.559104 569.828225 
L 337.107456 569.756719 
L 350.042112 569.75479 
L 416.553984 569.748707 
L 416.58624 569.48016 
L 416.618496 567.848478 
L 416.941056 488.964864 
L 429.940224 488.857132 
L 429.97248 488.715735 
L 430.004736 489.092794 
L 430.069248 516.180435 
L 430.166016 570.10393 
L 430.230528 569.756021 
L 431.520768 569.754793 
L 450.906624 569.754779 
L 476.485632 569.752115 
L 476.517888 567.880999 
L 476.872704 488.964864 
L 496.129536 488.97833 
L 496.161792 488.204013 
L 496.323072 569.861144 
L 496.387584 569.754586 
L 535.836672 569.75479 
L 577.672704 569.747999 
L 577.70496 569.974955 
L 577.769472 551.710155 
L 577.930752 489.813246 
L 578.059776 488.964864 
L 947.52 488.95813 
L 947.52 488.95813 
" clip-path="url(#p68962b4284)" style="fill: none; stroke: #ff00ff; stroke-width: 2; stroke-linecap: square"/>
   </g>
   <g id="patch_28">
    <path d="M 100.8 576.72 
L 100.8 483.988966 
" style="fill: none; stroke: #bcbcbc; stroke-width: 0.8; stroke-linejoin: miter; stroke-linecap: square"/>
   </g>
   <g id="patch_29">
    <path d="M 987.84 576.72 
L 987.84 483.988966 
" style="fill: none; stroke: #bcbcbc; stroke-width: 0.8; stroke-linejoin: miter; stroke-linecap: square"/>
   </g>
   <g id="patch_30">
    <path d="M 100.8 576.72 
L 987.84 576.72 
" style="fill: none; stroke: #bcbcbc; stroke-width: 0.8; stroke-linejoin: miter; stroke-linecap: square"/>
   </g>
   <g id="patch_31">
    <path d="M 100.8 483.988966 
L 987.84 483.988966 
" style="fill: none; stroke: #bcbcbc; stroke-width: 0.8; stroke-linejoin: miter; stroke-linecap: square"/>
   </g>
  </g>
  <g id="axes_6">
   <g id="patch_32">
    <path d="M 201.6 628.56 
L 856.8 628.56 
L 856.8 615.6 
L 201.6 615.6 
z
" clip-path="url(#pcfc5f2002f)" style="fill: #d3d3d3"/>
   </g>
   <g id="patch_33">
    <path d="M 201.6 628.56 
L 529.2 628.56 
L 529.2 615.6 
L 201.6 615.6 
z
" clip-path="url(#pcfc5f2002f)" style="fill: #0000ff"/>
   </g>
   <g id="line2d_92">
    <path d="M 201.6 635.04 
L 201.6 609.12 
" clip-path="url(#p75adc22c7d)" style="fill: none; stroke: #ff0000; stroke-linecap: square"/>
   </g>
   <g id="line2d_93">
    <defs>
     <path id="m59a82634ae" d="M 0 5 
C 1.326016 5 2.597899 4.473168 3.535534 3.535534 
C 4.473168 2.597899 5 1.326016 5 0 
C 5 -1.326016 4.473168 -2.597899 3.535534 -3.535534 
C 2.597899 -4.473168 1.326016 -5 0 -5 
C -1.326016 -5 -2.597899 -4.473168 -3.535534 -3.535534 
C -4.473168 -2.597899 -5 -1.326016 -5 0 
C -5 1.326016 -4.473168 2.597899 -3.535534 3.535534 
C -2.597899 4.473168 -1.326016 5 0 5 
z
" style="stroke: #bfbfbf"/>
    </defs>
    <g>
     <use xlink:href="#m59a82634ae" x="529.2" y="622.08" style="fill: #ffffff; stroke: #bfbfbf"/>
    </g>
   </g>
   <g id="text_26">
    <!-- #Sweep -->
    <g transform="translate(138.622875 625.39125) scale(0.12 -0.12)">
     <defs>
      <path id="DejaVuSans-23" d="M 3272 2816 
L 2363 2816 
L 2100 1772 
L 3016 1772 
L 3272 2816 
z
M 2803 4594 
L 2478 3297 
L 3391 3297 
L 3719 4594 
L 4219 4594 
L 3897 3297 
L 4872 3297 
L 4872 2816 
L 3775 2816 
L 3519 1772 
L 4513 1772 
L 4513 1294 
L 3397 1294 
L 3072 0 
L 2572 0 
L 2894 1294 
L 1978 1294 
L 1656 0 
L 1153 0 
L 1478 1294 
L 494 1294 
L 494 1772 
L 1594 1772 
L 1856 2816 
L 850 2816 
L 850 3297 
L 1978 3297 
L 2297 4594 
L 2803 4594 
z
" transform="scale(0.015625)"/>
      <path id="DejaVuSans-77" d="M 269 3500 
L 844 3500 
L 1563 769 
L 2278 3500 
L 2956 3500 
L 3675 769 
L 4391 3500 
L 4966 3500 
L 4050 0 
L 3372 0 
L 2619 2869 
L 1863 0 
L 1184 0 
L 269 3500 
z
" transform="scale(0.015625)"/>
      <path id="DejaVuSans-70" d="M 1159 525 
L 1159 -1331 
L 581 -1331 
L 581 3500 
L 1159 3500 
L 1159 2969 
Q 1341 3281 1617 3432 
Q 1894 3584 2278 3584 
Q 2916 3584 3314 3078 
Q 3713 2572 3713 1747 
Q 3713 922 3314 415 
Q 2916 -91 2278 -91 
Q 1894 -91 1617 61 
Q 1341 213 1159 525 
z
M 3116 1747 
Q 3116 2381 2855 2742 
Q 2594 3103 2138 3103 
Q 1681 3103 1420 2742 
Q 1159 2381 1159 1747 
Q 1159 1113 1420 752 
Q 1681 391 2138 391 
Q 2594 391 2855 752 
Q 3116 1113 3116 1747 
z
" transform="scale(0.015625)"/>
     </defs>
     <use xlink:href="#DejaVuSans-23"/>
     <use xlink:href="#DejaVuSans-53" x="83.789062"/>
     <use xlink:href="#DejaVuSans-77" x="147.265625"/>
     <use xlink:href="#DejaVuSans-65" x="229.052734"/>
     <use xlink:href="#DejaVuSans-65" x="290.576172"/>
     <use xlink:href="#DejaVuSans-70" x="352.099609"/>
    </g>
   </g>
   <g id="text_27">
    <!-- $\mathdefault{70}$ -->
    <g transform="translate(869.904 625.39125) scale(0.12 -0.12)">
     <defs>
      <path id="DejaVuSans-37" d="M 525 4666 
L 3525 4666 
L 3525 4397 
L 1831 0 
L 1172 0 
L 2766 4134 
L 525 4134 
L 525 4666 
z
" transform="scale(0.015625)"/>
     </defs>
     <use xlink:href="#DejaVuSans-37" transform="translate(0 0.78125)"/>
     <use xlink:href="#DejaVuSans-30" transform="translate(63.623047 0.78125)"/>
    </g>
   </g>
  </g>
  <g id="text_28">
   <!-- DFF under BBI sweep analysis (Sweep = 80E-9) -->
   <g transform="translate(313.34625 25.1175) scale(0.16 -0.16)">
    <defs>
     <path id="DejaVuSans-75" d="M 544 1381 
L 544 3500 
L 1119 3500 
L 1119 1403 
Q 1119 906 1312 657 
Q 1506 409 1894 409 
Q 2359 409 2629 706 
Q 2900 1003 2900 1516 
L 2900 3500 
L 3475 3500 
L 3475 0 
L 2900 0 
L 2900 538 
Q 2691 219 2414 64 
Q 2138 -91 1772 -91 
Q 1169 -91 856 284 
Q 544 659 544 1381 
z
M 1991 3584 
L 1991 3584 
z
" transform="scale(0.015625)"/>
     <path id="DejaVuSans-64" d="M 2906 2969 
L 2906 4863 
L 3481 4863 
L 3481 0 
L 2906 0 
L 2906 525 
Q 2725 213 2448 61 
Q 2172 -91 1784 -91 
Q 1150 -91 751 415 
Q 353 922 353 1747 
Q 353 2572 751 3078 
Q 1150 3584 1784 3584 
Q 2172 3584 2448 3432 
Q 2725 3281 2906 2969 
z
M 947 1747 
Q 947 1113 1208 752 
Q 1469 391 1925 391 
Q 2381 391 2643 752 
Q 2906 1113 2906 1747 
Q 2906 2381 2643 2742 
Q 2381 3103 1925 3103 
Q 1469 3103 1208 2742 
Q 947 2381 947 1747 
z
" transform="scale(0.015625)"/>
     <path id="DejaVuSans-72" d="M 2631 2963 
Q 2534 3019 2420 3045 
Q 2306 3072 2169 3072 
Q 1681 3072 1420 2755 
Q 1159 2438 1159 1844 
L 1159 0 
L 581 0 
L 581 3500 
L 1159 3500 
L 1159 2956 
Q 1341 3275 1631 3429 
Q 1922 3584 2338 3584 
Q 2397 3584 2469 3576 
Q 2541 3569 2628 3553 
L 2631 2963 
z
" transform="scale(0.015625)"/>
     <path id="DejaVuSans-61" d="M 2194 1759 
Q 1497 1759 1228 1600 
Q 959 1441 959 1056 
Q 959 750 1161 570 
Q 1363 391 1709 391 
Q 2188 391 2477 730 
Q 2766 1069 2766 1631 
L 2766 1759 
L 2194 1759 
z
M 3341 1997 
L 3341 0 
L 2766 0 
L 2766 531 
Q 2569 213 2275 61 
Q 1981 -91 1556 -91 
Q 1019 -91 701 211 
Q 384 513 384 1019 
Q 384 1609 779 1909 
Q 1175 2209 1959 2209 
L 2766 2209 
L 2766 2266 
Q 2766 2663 2505 2880 
Q 2244 3097 1772 3097 
Q 1472 3097 1187 3025 
Q 903 2953 641 2809 
L 641 3341 
Q 956 3463 1253 3523 
Q 1550 3584 1831 3584 
Q 2591 3584 2966 3190 
Q 3341 2797 3341 1997 
z
" transform="scale(0.015625)"/>
     <path id="DejaVuSans-6c" d="M 603 4863 
L 1178 4863 
L 1178 0 
L 603 0 
L 603 4863 
z
" transform="scale(0.015625)"/>
     <path id="DejaVuSans-79" d="M 2059 -325 
Q 1816 -950 1584 -1140 
Q 1353 -1331 966 -1331 
L 506 -1331 
L 506 -850 
L 844 -850 
Q 1081 -850 1212 -737 
Q 1344 -625 1503 -206 
L 1606 56 
L 191 3500 
L 800 3500 
L 1894 763 
L 2988 3500 
L 3597 3500 
L 2059 -325 
z
" transform="scale(0.015625)"/>
     <path id="DejaVuSans-28" d="M 1984 4856 
Q 1566 4138 1362 3434 
Q 1159 2731 1159 2009 
Q 1159 1288 1364 580 
Q 1569 -128 1984 -844 
L 1484 -844 
Q 1016 -109 783 600 
Q 550 1309 550 2009 
Q 550 2706 781 3412 
Q 1013 4119 1484 4856 
L 1984 4856 
z
" transform="scale(0.015625)"/>
     <path id="DejaVuSans-3d" d="M 678 2906 
L 4684 2906 
L 4684 2381 
L 678 2381 
L 678 2906 
z
M 678 1631 
L 4684 1631 
L 4684 1100 
L 678 1100 
L 678 1631 
z
" transform="scale(0.015625)"/>
     <path id="DejaVuSans-38" d="M 2034 2216 
Q 1584 2216 1326 1975 
Q 1069 1734 1069 1313 
Q 1069 891 1326 650 
Q 1584 409 2034 409 
Q 2484 409 2743 651 
Q 3003 894 3003 1313 
Q 3003 1734 2745 1975 
Q 2488 2216 2034 2216 
z
M 1403 2484 
Q 997 2584 770 2862 
Q 544 3141 544 3541 
Q 544 4100 942 4425 
Q 1341 4750 2034 4750 
Q 2731 4750 3128 4425 
Q 3525 4100 3525 3541 
Q 3525 3141 3298 2862 
Q 3072 2584 2669 2484 
Q 3125 2378 3379 2068 
Q 3634 1759 3634 1313 
Q 3634 634 3220 271 
Q 2806 -91 2034 -91 
Q 1263 -91 848 271 
Q 434 634 434 1313 
Q 434 1759 690 2068 
Q 947 2378 1403 2484 
z
M 1172 3481 
Q 1172 3119 1398 2916 
Q 1625 2713 2034 2713 
Q 2441 2713 2670 2916 
Q 2900 3119 2900 3481 
Q 2900 3844 2670 4047 
Q 2441 4250 2034 4250 
Q 1625 4250 1398 4047 
Q 1172 3844 1172 3481 
z
" transform="scale(0.015625)"/>
     <path id="DejaVuSans-2d" d="M 313 2009 
L 1997 2009 
L 1997 1497 
L 313 1497 
L 313 2009 
z
" transform="scale(0.015625)"/>
     <path id="DejaVuSans-39" d="M 703 97 
L 703 672 
Q 941 559 1184 500 
Q 1428 441 1663 441 
Q 2288 441 2617 861 
Q 2947 1281 2994 2138 
Q 2813 1869 2534 1725 
Q 2256 1581 1919 1581 
Q 1219 1581 811 2004 
Q 403 2428 403 3163 
Q 403 3881 828 4315 
Q 1253 4750 1959 4750 
Q 2769 4750 3195 4129 
Q 3622 3509 3622 2328 
Q 3622 1225 3098 567 
Q 2575 -91 1691 -91 
Q 1453 -91 1209 -44 
Q 966 3 703 97 
z
M 1959 2075 
Q 2384 2075 2632 2365 
Q 2881 2656 2881 3163 
Q 2881 3666 2632 3958 
Q 2384 4250 1959 4250 
Q 1534 4250 1286 3958 
Q 1038 3666 1038 3163 
Q 1038 2656 1286 2365 
Q 1534 2075 1959 2075 
z
" transform="scale(0.015625)"/>
     <path id="DejaVuSans-29" d="M 513 4856 
L 1013 4856 
Q 1481 4119 1714 3412 
Q 1947 2706 1947 2009 
Q 1947 1309 1714 600 
Q 1481 -109 1013 -844 
L 513 -844 
Q 928 -128 1133 580 
Q 1338 1288 1338 2009 
Q 1338 2731 1133 3434 
Q 928 4138 513 4856 
z
" transform="scale(0.015625)"/>
    </defs>
    <use xlink:href="#DejaVuSans-44"/>
    <use xlink:href="#DejaVuSans-46" x="77.001953"/>
    <use xlink:href="#DejaVuSans-46" x="134.521484"/>
    <use xlink:href="#DejaVuSans-20" x="192.041016"/>
    <use xlink:href="#DejaVuSans-75" x="223.828125"/>
    <use xlink:href="#DejaVuSans-6e" x="287.207031"/>
    <use xlink:href="#DejaVuSans-64" x="350.585938"/>
    <use xlink:href="#DejaVuSans-65" x="414.0625"/>
    <use xlink:href="#DejaVuSans-72" x="475.585938"/>
    <use xlink:href="#DejaVuSans-20" x="516.699219"/>
    <use xlink:href="#DejaVuSans-42" x="548.486328"/>
    <use xlink:href="#DejaVuSans-42" x="617.089844"/>
    <use xlink:href="#DejaVuSans-49" x="685.693359"/>
    <use xlink:href="#DejaVuSans-20" x="715.185547"/>
    <use xlink:href="#DejaVuSans-73" x="746.972656"/>
    <use xlink:href="#DejaVuSans-77" x="799.072266"/>
    <use xlink:href="#DejaVuSans-65" x="880.859375"/>
    <use xlink:href="#DejaVuSans-65" x="942.382812"/>
    <use xlink:href="#DejaVuSans-70" x="1003.90625"/>
    <use xlink:href="#DejaVuSans-20" x="1067.382812"/>
    <use xlink:href="#DejaVuSans-61" x="1099.169922"/>
    <use xlink:href="#DejaVuSans-6e" x="1160.449219"/>
    <use xlink:href="#DejaVuSans-61" x="1223.828125"/>
    <use xlink:href="#DejaVuSans-6c" x="1285.107422"/>
    <use xlink:href="#DejaVuSans-79" x="1312.890625"/>
    <use xlink:href="#DejaVuSans-73" x="1372.070312"/>
    <use xlink:href="#DejaVuSans-69" x="1424.169922"/>
    <use xlink:href="#DejaVuSans-73" x="1451.953125"/>
    <use xlink:href="#DejaVuSans-20" x="1504.052734"/>
    <use xlink:href="#DejaVuSans-28" x="1535.839844"/>
    <use xlink:href="#DejaVuSans-53" x="1574.853516"/>
    <use xlink:href="#DejaVuSans-77" x="1638.330078"/>
    <use xlink:href="#DejaVuSans-65" x="1720.117188"/>
    <use xlink:href="#DejaVuSans-65" x="1781.640625"/>
    <use xlink:href="#DejaVuSans-70" x="1843.164062"/>
    <use xlink:href="#DejaVuSans-20" x="1906.640625"/>
    <use xlink:href="#DejaVuSans-3d" x="1938.427734"/>
    <use xlink:href="#DejaVuSans-20" x="2022.216797"/>
    <use xlink:href="#DejaVuSans-38" x="2054.003906"/>
    <use xlink:href="#DejaVuSans-30" x="2117.626953"/>
    <use xlink:href="#DejaVuSans-45" x="2181.25"/>
    <use xlink:href="#DejaVuSans-2d" x="2244.433594"/>
    <use xlink:href="#DejaVuSans-39" x="2280.517578"/>
    <use xlink:href="#DejaVuSans-29" x="2344.140625"/>
   </g>
  </g>
 </g>
 <defs>
  <clipPath id="pdc9e156c76">
   <rect x="100.8" y="38.88" width="887.04" height="92.731034"/>
  </clipPath>
  <clipPath id="p9b064a40f4">
   <rect x="100.8" y="150.157241" width="887.04" height="92.731034"/>
  </clipPath>
  <clipPath id="pd7337968ab">
   <rect x="100.8" y="261.434483" width="887.04" height="92.731034"/>
  </clipPath>
  <clipPath id="pc7cf9bbb3e">
   <rect x="100.8" y="372.711724" width="887.04" height="92.731034"/>
  </clipPath>
  <clipPath id="p68962b4284">
   <rect x="100.8" y="483.988966" width="887.04" height="92.731034"/>
  </clipPath>
  <clipPath id="pcfc5f2002f">
   <rect x="201.6" y="609.12" width="655.2" height="25.92"/>
  </clipPath>
  <clipPath id="p75adc22c7d">
   <path d="M 201.6 628.56 
L 856.8 628.56 
L 856.8 615.6 
L 201.6 615.6 
z
"/>
  </clipPath>
 </defs>
</svg>
