<?xml version="1.0" encoding="utf-8" standalone="no"?>
<!DOCTYPE svg PUBLIC "-//W3C//DTD SVG 1.1//EN"
  "http://www.w3.org/Graphics/SVG/1.1/DTD/svg11.dtd">
<svg xmlns:xlink="http://www.w3.org/1999/xlink" width="1008pt" height="648pt" viewBox="0 0 1008 648" xmlns="http://www.w3.org/2000/svg" version="1.1">
 <metadata>
  <rdf:RDF xmlns:dc="http://purl.org/dc/elements/1.1/" xmlns:cc="http://creativecommons.org/ns#" xmlns:rdf="http://www.w3.org/1999/02/22-rdf-syntax-ns#">
   <cc:Work>
    <dc:type rdf:resource="http://purl.org/dc/dcmitype/StillImage"/>
    <dc:date>2024-06-03T10:46:00.065393</dc:date>
    <dc:format>image/svg+xml</dc:format>
    <dc:creator>
     <cc:Agent>
      <dc:title>Matplotlib v3.9.0, https://matplotlib.org/</dc:title>
     </cc:Agent>
    </dc:creator>
   </cc:Work>
  </rdf:RDF>
 </metadata>
 <defs>
  <style type="text/css">*{stroke-linejoin: round; stroke-linecap: butt}</style>
 </defs>
 <g id="figure_1">
  <g id="patch_1">
   <path d="M 0 648 
L 1008 648 
L 1008 0 
L 0 0 
z
" style="fill: #ffffff"/>
  </g>
  <g id="axes_1">
   <g id="patch_2">
    <path d="M 100.8 131.611034 
L 987.84 131.611034 
L 987.84 38.88 
L 100.8 38.88 
z
" style="fill: #eeeeee"/>
   </g>
   <g id="matplotlib.axis_1">
    <g id="xtick_1">
     <g id="line2d_1">
      <path d="M 141.12 131.611034 
L 141.12 38.88 
" clip-path="url(#p53673bff16)" style="fill: none; stroke-dasharray: 1.85,0.8; stroke-dashoffset: 0; stroke: #b2b2b2; stroke-width: 0.5"/>
     </g>
     <g id="line2d_2">
      <defs>
       <path id="mb898cc0295" d="M 0 0 
L 0 -3.5 
" style="stroke: #000000; stroke-width: 0.8"/>
      </defs>
      <g>
       <use xlink:href="#mb898cc0295" x="141.12" y="131.611034" style="stroke: #000000; stroke-width: 0.8"/>
      </g>
     </g>
    </g>
    <g id="xtick_2">
     <g id="line2d_3">
      <path d="M 302.4 131.611034 
L 302.4 38.88 
" clip-path="url(#p53673bff16)" style="fill: none; stroke-dasharray: 1.85,0.8; stroke-dashoffset: 0; stroke: #b2b2b2; stroke-width: 0.5"/>
     </g>
     <g id="line2d_4">
      <g>
       <use xlink:href="#mb898cc0295" x="302.4" y="131.611034" style="stroke: #000000; stroke-width: 0.8"/>
      </g>
     </g>
    </g>
    <g id="xtick_3">
     <g id="line2d_5">
      <path d="M 463.68 131.611034 
L 463.68 38.88 
" clip-path="url(#p53673bff16)" style="fill: none; stroke-dasharray: 1.85,0.8; stroke-dashoffset: 0; stroke: #b2b2b2; stroke-width: 0.5"/>
     </g>
     <g id="line2d_6">
      <g>
       <use xlink:href="#mb898cc0295" x="463.68" y="131.611034" style="stroke: #000000; stroke-width: 0.8"/>
      </g>
     </g>
    </g>
    <g id="xtick_4">
     <g id="line2d_7">
      <path d="M 624.96 131.611034 
L 624.96 38.88 
" clip-path="url(#p53673bff16)" style="fill: none; stroke-dasharray: 1.85,0.8; stroke-dashoffset: 0; stroke: #b2b2b2; stroke-width: 0.5"/>
     </g>
     <g id="line2d_8">
      <g>
       <use xlink:href="#mb898cc0295" x="624.96" y="131.611034" style="stroke: #000000; stroke-width: 0.8"/>
      </g>
     </g>
    </g>
    <g id="xtick_5">
     <g id="line2d_9">
      <path d="M 786.24 131.611034 
L 786.24 38.88 
" clip-path="url(#p53673bff16)" style="fill: none; stroke-dasharray: 1.85,0.8; stroke-dashoffset: 0; stroke: #b2b2b2; stroke-width: 0.5"/>
     </g>
     <g id="line2d_10">
      <g>
       <use xlink:href="#mb898cc0295" x="786.24" y="131.611034" style="stroke: #000000; stroke-width: 0.8"/>
      </g>
     </g>
    </g>
    <g id="xtick_6">
     <g id="line2d_11">
      <path d="M 947.52 131.611034 
L 947.52 38.88 
" clip-path="url(#p53673bff16)" style="fill: none; stroke-dasharray: 1.85,0.8; stroke-dashoffset: 0; stroke: #b2b2b2; stroke-width: 0.5"/>
     </g>
     <g id="line2d_12">
      <g>
       <use xlink:href="#mb898cc0295" x="947.52" y="131.611034" style="stroke: #000000; stroke-width: 0.8"/>
      </g>
     </g>
    </g>
   </g>
   <g id="matplotlib.axis_2">
    <g id="ytick_1">
     <g id="line2d_13">
      <path d="M 100.8 98.340394 
L 987.84 98.340394 
" clip-path="url(#p53673bff16)" style="fill: none; stroke-dasharray: 1.85,0.8; stroke-dashoffset: 0; stroke: #b2b2b2; stroke-width: 0.5"/>
     </g>
     <g id="line2d_14">
      <defs>
       <path id="m7b7f5e1026" d="M 0 0 
L 3.5 0 
" style="stroke: #000000; stroke-width: 0.8"/>
      </defs>
      <g>
       <use xlink:href="#m7b7f5e1026" x="100.8" y="98.340394" style="stroke: #000000; stroke-width: 0.8"/>
      </g>
     </g>
     <g id="text_1">
      <!-- −200 V -->
      <g transform="translate(44.819688 103.6593) scale(0.14 -0.14)">
       <defs>
        <path id="DejaVuSans-2212" d="M 678 2272 
L 4684 2272 
L 4684 1741 
L 678 1741 
L 678 2272 
z
" transform="scale(0.015625)"/>
        <path id="DejaVuSans-32" d="M 1228 531 
L 3431 531 
L 3431 0 
L 469 0 
L 469 531 
Q 828 903 1448 1529 
Q 2069 2156 2228 2338 
Q 2531 2678 2651 2914 
Q 2772 3150 2772 3378 
Q 2772 3750 2511 3984 
Q 2250 4219 1831 4219 
Q 1534 4219 1204 4116 
Q 875 4013 500 3803 
L 500 4441 
Q 881 4594 1212 4672 
Q 1544 4750 1819 4750 
Q 2544 4750 2975 4387 
Q 3406 4025 3406 3419 
Q 3406 3131 3298 2873 
Q 3191 2616 2906 2266 
Q 2828 2175 2409 1742 
Q 1991 1309 1228 531 
z
" transform="scale(0.015625)"/>
        <path id="DejaVuSans-30" d="M 2034 4250 
Q 1547 4250 1301 3770 
Q 1056 3291 1056 2328 
Q 1056 1369 1301 889 
Q 1547 409 2034 409 
Q 2525 409 2770 889 
Q 3016 1369 3016 2328 
Q 3016 3291 2770 3770 
Q 2525 4250 2034 4250 
z
M 2034 4750 
Q 2819 4750 3233 4129 
Q 3647 3509 3647 2328 
Q 3647 1150 3233 529 
Q 2819 -91 2034 -91 
Q 1250 -91 836 529 
Q 422 1150 422 2328 
Q 422 3509 836 4129 
Q 1250 4750 2034 4750 
z
" transform="scale(0.015625)"/>
        <path id="DejaVuSans-20" transform="scale(0.015625)"/>
        <path id="DejaVuSans-56" d="M 1831 0 
L 50 4666 
L 709 4666 
L 2188 738 
L 3669 4666 
L 4325 4666 
L 2547 0 
L 1831 0 
z
" transform="scale(0.015625)"/>
       </defs>
       <use xlink:href="#DejaVuSans-2212"/>
       <use xlink:href="#DejaVuSans-32" x="83.789062"/>
       <use xlink:href="#DejaVuSans-30" x="147.412109"/>
       <use xlink:href="#DejaVuSans-30" x="211.035156"/>
       <use xlink:href="#DejaVuSans-20" x="274.658203"/>
       <use xlink:href="#DejaVuSans-56" x="306.445312"/>
      </g>
     </g>
    </g>
    <g id="ytick_2">
     <g id="line2d_15">
      <path d="M 100.8 45.027377 
L 987.84 45.027377 
" clip-path="url(#p53673bff16)" style="fill: none; stroke-dasharray: 1.85,0.8; stroke-dashoffset: 0; stroke: #b2b2b2; stroke-width: 0.5"/>
     </g>
     <g id="line2d_16">
      <g>
       <use xlink:href="#m7b7f5e1026" x="100.8" y="45.027377" style="stroke: #000000; stroke-width: 0.8"/>
      </g>
     </g>
     <g id="text_2">
      <!-- 0 V -->
      <g transform="translate(74.36625 50.346284) scale(0.14 -0.14)">
       <use xlink:href="#DejaVuSans-30"/>
       <use xlink:href="#DejaVuSans-20" x="63.623047"/>
       <use xlink:href="#DejaVuSans-56" x="95.410156"/>
      </g>
     </g>
    </g>
    <g id="text_3">
     <g id="patch_3">
      <path d="M 34.8768 131.080205 
L 34.8768 39.41083 
L 11.247425 39.41083 
L 11.247425 131.080205 
z
" style="fill: #ffff00; opacity: 0.2; stroke: #eeeeee; stroke-width: 0.5; stroke-linejoin: miter"/>
     </g>
     <!-- VPULSE BBI -->
     <g transform="translate(26.925238 126.040205) rotate(-90) scale(0.14 -0.14)">
      <defs>
       <path id="DejaVuSans-50" d="M 1259 4147 
L 1259 2394 
L 2053 2394 
Q 2494 2394 2734 2622 
Q 2975 2850 2975 3272 
Q 2975 3691 2734 3919 
Q 2494 4147 2053 4147 
L 1259 4147 
z
M 628 4666 
L 2053 4666 
Q 2838 4666 3239 4311 
Q 3641 3956 3641 3272 
Q 3641 2581 3239 2228 
Q 2838 1875 2053 1875 
L 1259 1875 
L 1259 0 
L 628 0 
L 628 4666 
z
" transform="scale(0.015625)"/>
       <path id="DejaVuSans-55" d="M 556 4666 
L 1191 4666 
L 1191 1831 
Q 1191 1081 1462 751 
Q 1734 422 2344 422 
Q 2950 422 3222 751 
Q 3494 1081 3494 1831 
L 3494 4666 
L 4128 4666 
L 4128 1753 
Q 4128 841 3676 375 
Q 3225 -91 2344 -91 
Q 1459 -91 1007 375 
Q 556 841 556 1753 
L 556 4666 
z
" transform="scale(0.015625)"/>
       <path id="DejaVuSans-4c" d="M 628 4666 
L 1259 4666 
L 1259 531 
L 3531 531 
L 3531 0 
L 628 0 
L 628 4666 
z
" transform="scale(0.015625)"/>
       <path id="DejaVuSans-53" d="M 3425 4513 
L 3425 3897 
Q 3066 4069 2747 4153 
Q 2428 4238 2131 4238 
Q 1616 4238 1336 4038 
Q 1056 3838 1056 3469 
Q 1056 3159 1242 3001 
Q 1428 2844 1947 2747 
L 2328 2669 
Q 3034 2534 3370 2195 
Q 3706 1856 3706 1288 
Q 3706 609 3251 259 
Q 2797 -91 1919 -91 
Q 1588 -91 1214 -16 
Q 841 59 441 206 
L 441 856 
Q 825 641 1194 531 
Q 1563 422 1919 422 
Q 2459 422 2753 634 
Q 3047 847 3047 1241 
Q 3047 1584 2836 1778 
Q 2625 1972 2144 2069 
L 1759 2144 
Q 1053 2284 737 2584 
Q 422 2884 422 3419 
Q 422 4038 858 4394 
Q 1294 4750 2059 4750 
Q 2388 4750 2728 4690 
Q 3069 4631 3425 4513 
z
" transform="scale(0.015625)"/>
       <path id="DejaVuSans-45" d="M 628 4666 
L 3578 4666 
L 3578 4134 
L 1259 4134 
L 1259 2753 
L 3481 2753 
L 3481 2222 
L 1259 2222 
L 1259 531 
L 3634 531 
L 3634 0 
L 628 0 
L 628 4666 
z
" transform="scale(0.015625)"/>
       <path id="DejaVuSans-42" d="M 1259 2228 
L 1259 519 
L 2272 519 
Q 2781 519 3026 730 
Q 3272 941 3272 1375 
Q 3272 1813 3026 2020 
Q 2781 2228 2272 2228 
L 1259 2228 
z
M 1259 4147 
L 1259 2741 
L 2194 2741 
Q 2656 2741 2882 2914 
Q 3109 3088 3109 3444 
Q 3109 3797 2882 3972 
Q 2656 4147 2194 4147 
L 1259 4147 
z
M 628 4666 
L 2241 4666 
Q 2963 4666 3353 4366 
Q 3744 4066 3744 3513 
Q 3744 3084 3544 2831 
Q 3344 2578 2956 2516 
Q 3422 2416 3680 2098 
Q 3938 1781 3938 1306 
Q 3938 681 3513 340 
Q 3088 0 2303 0 
L 628 0 
L 628 4666 
z
" transform="scale(0.015625)"/>
       <path id="DejaVuSans-49" d="M 628 4666 
L 1259 4666 
L 1259 0 
L 628 0 
L 628 4666 
z
" transform="scale(0.015625)"/>
      </defs>
      <use xlink:href="#DejaVuSans-56"/>
      <use xlink:href="#DejaVuSans-50" x="68.408203"/>
      <use xlink:href="#DejaVuSans-55" x="128.710938"/>
      <use xlink:href="#DejaVuSans-4c" x="201.904297"/>
      <use xlink:href="#DejaVuSans-53" x="257.617188"/>
      <use xlink:href="#DejaVuSans-45" x="321.09375"/>
      <use xlink:href="#DejaVuSans-20" x="384.277344"/>
      <use xlink:href="#DejaVuSans-42" x="416.064453"/>
      <use xlink:href="#DejaVuSans-42" x="484.667969"/>
      <use xlink:href="#DejaVuSans-49" x="553.271484"/>
     </g>
    </g>
   </g>
   <g id="line2d_17">
    <path d="M 141.12 45.027377 
L 644.345856 45.136282 
L 644.829696 46.425538 
L 653.054976 69.006772 
L 660.473856 89.863624 
L 662.086656 94.440546 
L 663.892992 99.673219 
L 667.37664 110.807642 
L 668.957184 115.851054 
L 670.182912 119.550977 
L 674.085888 121.36362 
L 674.666496 121.619522 
L 675.537408 122.003376 
L 676.182528 122.269941 
L 677.763072 122.936354 
L 678.408192 123.202919 
L 679.504896 123.629423 
L 680.246784 123.922644 
L 681.343488 124.349149 
L 682.246656 124.677024 
L 682.924032 124.943589 
L 683.730432 125.25547 
L 685.085184 125.804594 
L 687.730176 126.790885 
L 688.34304 127.022796 
L 690.2784 127.395987 
L 708.761088 127.289361 
L 708.98688 126.801547 
L 727.276032 75.087922 
L 731.017728 63.292417 
L 734.727168 51.617666 
L 739.339776 49.3412 
L 744.694272 46.984578 
L 753.403392 43.484472 
L 754.274304 43.268927 
L 768.563712 43.108189 
L 775.369728 43.184799 
L 790.723584 43.746186 
L 818.496 44.46146 
L 844.13952 44.774399 
L 879.750144 44.945888 
L 927.779328 44.953885 
L 947.52 44.953885 
L 947.52 44.953885 
" clip-path="url(#p53673bff16)" style="fill: none; stroke: #ff0000; stroke-width: 2; stroke-linecap: square"/>
   </g>
   <g id="patch_4">
    <path d="M 100.8 131.611034 
L 100.8 38.88 
" style="fill: none; stroke: #bcbcbc; stroke-width: 0.8; stroke-linejoin: miter; stroke-linecap: square"/>
   </g>
   <g id="patch_5">
    <path d="M 987.84 131.611034 
L 987.84 38.88 
" style="fill: none; stroke: #bcbcbc; stroke-width: 0.8; stroke-linejoin: miter; stroke-linecap: square"/>
   </g>
   <g id="patch_6">
    <path d="M 100.8 131.611034 
L 987.84 131.611034 
" style="fill: none; stroke: #bcbcbc; stroke-width: 0.8; stroke-linejoin: miter; stroke-linecap: square"/>
   </g>
   <g id="patch_7">
    <path d="M 100.8 38.88 
L 987.84 38.88 
" style="fill: none; stroke: #bcbcbc; stroke-width: 0.8; stroke-linejoin: miter; stroke-linecap: square"/>
   </g>
  </g>
  <g id="axes_2">
   <g id="patch_8">
    <path d="M 100.8 242.888276 
L 987.84 242.888276 
L 987.84 150.157241 
L 100.8 150.157241 
z
" style="fill: #eeeeee"/>
   </g>
   <g id="matplotlib.axis_3">
    <g id="xtick_7">
     <g id="line2d_18">
      <path d="M 141.12 242.888276 
L 141.12 150.157241 
" clip-path="url(#p5e4e997815)" style="fill: none; stroke-dasharray: 1.85,0.8; stroke-dashoffset: 0; stroke: #b2b2b2; stroke-width: 0.5"/>
     </g>
     <g id="line2d_19">
      <g>
       <use xlink:href="#mb898cc0295" x="141.12" y="242.888276" style="stroke: #000000; stroke-width: 0.8"/>
      </g>
     </g>
    </g>
    <g id="xtick_8">
     <g id="line2d_20">
      <path d="M 302.4 242.888276 
L 302.4 150.157241 
" clip-path="url(#p5e4e997815)" style="fill: none; stroke-dasharray: 1.85,0.8; stroke-dashoffset: 0; stroke: #b2b2b2; stroke-width: 0.5"/>
     </g>
     <g id="line2d_21">
      <g>
       <use xlink:href="#mb898cc0295" x="302.4" y="242.888276" style="stroke: #000000; stroke-width: 0.8"/>
      </g>
     </g>
    </g>
    <g id="xtick_9">
     <g id="line2d_22">
      <path d="M 463.68 242.888276 
L 463.68 150.157241 
" clip-path="url(#p5e4e997815)" style="fill: none; stroke-dasharray: 1.85,0.8; stroke-dashoffset: 0; stroke: #b2b2b2; stroke-width: 0.5"/>
     </g>
     <g id="line2d_23">
      <g>
       <use xlink:href="#mb898cc0295" x="463.68" y="242.888276" style="stroke: #000000; stroke-width: 0.8"/>
      </g>
     </g>
    </g>
    <g id="xtick_10">
     <g id="line2d_24">
      <path d="M 624.96 242.888276 
L 624.96 150.157241 
" clip-path="url(#p5e4e997815)" style="fill: none; stroke-dasharray: 1.85,0.8; stroke-dashoffset: 0; stroke: #b2b2b2; stroke-width: 0.5"/>
     </g>
     <g id="line2d_25">
      <g>
       <use xlink:href="#mb898cc0295" x="624.96" y="242.888276" style="stroke: #000000; stroke-width: 0.8"/>
      </g>
     </g>
    </g>
    <g id="xtick_11">
     <g id="line2d_26">
      <path d="M 786.24 242.888276 
L 786.24 150.157241 
" clip-path="url(#p5e4e997815)" style="fill: none; stroke-dasharray: 1.85,0.8; stroke-dashoffset: 0; stroke: #b2b2b2; stroke-width: 0.5"/>
     </g>
     <g id="line2d_27">
      <g>
       <use xlink:href="#mb898cc0295" x="786.24" y="242.888276" style="stroke: #000000; stroke-width: 0.8"/>
      </g>
     </g>
    </g>
    <g id="xtick_12">
     <g id="line2d_28">
      <path d="M 947.52 242.888276 
L 947.52 150.157241 
" clip-path="url(#p5e4e997815)" style="fill: none; stroke-dasharray: 1.85,0.8; stroke-dashoffset: 0; stroke: #b2b2b2; stroke-width: 0.5"/>
     </g>
     <g id="line2d_29">
      <g>
       <use xlink:href="#mb898cc0295" x="947.52" y="242.888276" style="stroke: #000000; stroke-width: 0.8"/>
      </g>
     </g>
    </g>
   </g>
   <g id="matplotlib.axis_4">
    <g id="ytick_3">
     <g id="line2d_30">
      <path d="M 100.8 219.572549 
L 987.84 219.572549 
" clip-path="url(#p5e4e997815)" style="fill: none; stroke-dasharray: 1.85,0.8; stroke-dashoffset: 0; stroke: #b2b2b2; stroke-width: 0.5"/>
     </g>
     <g id="line2d_31">
      <g>
       <use xlink:href="#m7b7f5e1026" x="100.8" y="219.572549" style="stroke: #000000; stroke-width: 0.8"/>
      </g>
     </g>
     <g id="text_4">
      <!-- 0 V -->
      <g transform="translate(74.36625 224.891455) scale(0.14 -0.14)">
       <use xlink:href="#DejaVuSans-30"/>
       <use xlink:href="#DejaVuSans-20" x="63.623047"/>
       <use xlink:href="#DejaVuSans-56" x="95.410156"/>
      </g>
     </g>
    </g>
    <g id="ytick_4">
     <g id="line2d_32">
      <path d="M 100.8 186.569785 
L 987.84 186.569785 
" clip-path="url(#p5e4e997815)" style="fill: none; stroke-dasharray: 1.85,0.8; stroke-dashoffset: 0; stroke: #b2b2b2; stroke-width: 0.5"/>
     </g>
     <g id="line2d_33">
      <g>
       <use xlink:href="#m7b7f5e1026" x="100.8" y="186.569785" style="stroke: #000000; stroke-width: 0.8"/>
      </g>
     </g>
     <g id="text_5">
      <!-- 1 V -->
      <g transform="translate(74.36625 191.888691) scale(0.14 -0.14)">
       <defs>
        <path id="DejaVuSans-31" d="M 794 531 
L 1825 531 
L 1825 4091 
L 703 3866 
L 703 4441 
L 1819 4666 
L 2450 4666 
L 2450 531 
L 3481 531 
L 3481 0 
L 794 0 
L 794 531 
z
" transform="scale(0.015625)"/>
       </defs>
       <use xlink:href="#DejaVuSans-31"/>
       <use xlink:href="#DejaVuSans-20" x="63.623047"/>
       <use xlink:href="#DejaVuSans-56" x="95.410156"/>
      </g>
     </g>
    </g>
    <g id="ytick_5">
     <g id="line2d_34">
      <path d="M 100.8 153.567021 
L 987.84 153.567021 
" clip-path="url(#p5e4e997815)" style="fill: none; stroke-dasharray: 1.85,0.8; stroke-dashoffset: 0; stroke: #b2b2b2; stroke-width: 0.5"/>
     </g>
     <g id="line2d_35">
      <g>
       <use xlink:href="#m7b7f5e1026" x="100.8" y="153.567021" style="stroke: #000000; stroke-width: 0.8"/>
      </g>
     </g>
     <g id="text_6">
      <!-- 2 V -->
      <g transform="translate(74.36625 158.885927) scale(0.14 -0.14)">
       <use xlink:href="#DejaVuSans-32"/>
       <use xlink:href="#DejaVuSans-20" x="63.623047"/>
       <use xlink:href="#DejaVuSans-56" x="95.410156"/>
      </g>
     </g>
    </g>
    <g id="text_7">
     <g id="patch_9">
      <path d="M 34.8768 224.531509 
L 34.8768 168.514009 
L 11.247425 168.514009 
L 11.247425 224.531509 
z
" style="fill: #ffff00; opacity: 0.2; stroke: #eeeeee; stroke-width: 0.5; stroke-linejoin: miter"/>
     </g>
     <!-- DFF IN -->
     <g transform="translate(26.925238 219.491509) rotate(-90) scale(0.14 -0.14)">
      <defs>
       <path id="DejaVuSans-44" d="M 1259 4147 
L 1259 519 
L 2022 519 
Q 2988 519 3436 956 
Q 3884 1394 3884 2338 
Q 3884 3275 3436 3711 
Q 2988 4147 2022 4147 
L 1259 4147 
z
M 628 4666 
L 1925 4666 
Q 3281 4666 3915 4102 
Q 4550 3538 4550 2338 
Q 4550 1131 3912 565 
Q 3275 0 1925 0 
L 628 0 
L 628 4666 
z
" transform="scale(0.015625)"/>
       <path id="DejaVuSans-46" d="M 628 4666 
L 3309 4666 
L 3309 4134 
L 1259 4134 
L 1259 2759 
L 3109 2759 
L 3109 2228 
L 1259 2228 
L 1259 0 
L 628 0 
L 628 4666 
z
" transform="scale(0.015625)"/>
       <path id="DejaVuSans-4e" d="M 628 4666 
L 1478 4666 
L 3547 763 
L 3547 4666 
L 4159 4666 
L 4159 0 
L 3309 0 
L 1241 3903 
L 1241 0 
L 628 0 
L 628 4666 
z
" transform="scale(0.015625)"/>
      </defs>
      <use xlink:href="#DejaVuSans-44"/>
      <use xlink:href="#DejaVuSans-46" x="77.001953"/>
      <use xlink:href="#DejaVuSans-46" x="134.521484"/>
      <use xlink:href="#DejaVuSans-20" x="192.041016"/>
      <use xlink:href="#DejaVuSans-49" x="223.828125"/>
      <use xlink:href="#DejaVuSans-4e" x="253.320312"/>
     </g>
    </g>
   </g>
   <g id="line2d_36">
    <path d="M 141.12 219.524352 
L 221.953536 219.479095 
L 224.437248 201.090341 
L 225.404928 195.496373 
L 228.243456 183.196903 
L 229.598208 181.962599 
L 231.178752 181.114428 
L 236.565504 180.672191 
L 243.661824 180.563282 
L 245.1456 180.520378 
L 248.403456 180.411469 
L 250.113024 180.345464 
L 252.177408 180.236555 
L 254.241792 179.916428 
L 254.757888 179.394984 
L 255.499776 179.064956 
L 256.370688 179.084758 
L 257.531904 179.312477 
L 260.015616 179.70851 
L 262.370304 179.840521 
L 263.886336 179.890026 
L 264.144384 184.979052 
L 264.434688 188.441702 
L 265.176576 193.054498 
L 267.144192 209.891518 
L 268.402176 216.213198 
L 269.079552 217.502286 
L 270.46656 219.171764 
L 273.724416 219.574331 
L 282.659328 219.529147 
L 297.206784 219.516547 
L 306.044928 219.523616 
L 347.751936 219.480742 
L 350.235648 201.129284 
L 351.622656 192.738992 
L 352.687104 187.500793 
L 354.97728 180.804202 
L 358.493184 179.833921 
L 360.235008 179.903227 
L 363.073536 180.012136 
L 364.396032 180.038538 
L 375.169536 180.107844 
L 375.717888 181.071525 
L 376.169472 181.800886 
L 377.008128 182.682059 
L 377.524224 182.632555 
L 378.459648 182.32893 
L 380.45952 181.229938 
L 381.58848 180.880109 
L 387.201024 180.41477 
L 389.65248 180.30586 
L 391.813632 180.193651 
L 394.555392 180.084742 
L 395.9424 180.051739 
L 415.392768 179.94613 
L 415.973376 179.338879 
L 416.844288 179.012152 
L 417.908736 179.114461 
L 419.198976 179.394984 
L 420.9408 179.639205 
L 424.00512 179.843822 
L 455.712768 179.94283 
L 456.809472 180.807502 
L 457.261056 180.876808 
L 458.712576 180.916412 
L 462.744576 180.394968 
L 464.196096 180.210152 
L 467.518464 179.979133 
L 496.065024 179.899926 
L 496.613376 179.355381 
L 497.258496 179.078158 
L 498.387456 179.071557 
L 502.096896 179.718411 
L 504.258048 179.830621 
L 536.352768 179.93953 
L 537.255936 180.721695 
L 537.933312 180.880109 
L 539.352576 180.916412 
L 544.449024 180.286059 
L 545.642496 180.154048 
L 548.803584 179.93953 
L 576.73728 179.857023 
L 577.253376 179.355381 
L 577.898496 179.078158 
L 579.027456 179.071557 
L 582.736896 179.718411 
L 584.898048 179.830621 
L 616.992768 179.93953 
L 618.057216 180.7844 
L 619.411968 180.952715 
L 621.315072 180.843805 
L 622.5408 180.609486 
L 625.44384 180.127645 
L 629.185536 180.018736 
L 630.44352 179.998935 
L 644.410368 180.097943 
L 644.79744 180.787701 
L 645.958656 182.698561 
L 647.894016 185.279377 
L 653.538816 192.969681 
L 653.9904 194.310253 
L 655.345152 199.200603 
L 655.732224 200.530944 
L 656.474112 203.472481 
L 657.119232 206.521606 
L 658.473984 212.237355 
L 659.764224 216.706754 
L 659.925504 217.167242 
L 660.409344 218.869029 
L 660.538368 219.346797 
L 661.08672 221.18985 
L 661.377024 221.94855 
L 661.828608 223.52397 
L 662.21568 224.142112 
L 662.602752 225.240774 
L 663.086592 226.105116 
L 663.602688 226.662533 
L 663.796224 227.209389 
L 664.215552 228.262177 
L 664.538112 228.718935 
L 664.667136 228.961175 
L 665.021952 229.819247 
L 666.054144 231.802053 
L 668.086272 235.380543 
L 670.344192 238.645507 
L 670.408704 238.514156 
L 670.666752 238.079179 
L 672.505344 235.601992 
L 672.924672 235.147214 
L 673.634304 234.189803 
L 674.376192 233.54988 
L 674.860032 233.211931 
L 676.214784 231.787862 
L 677.601792 230.780948 
L 679.601664 229.044672 
L 680.698368 228.17439 
L 681.375744 227.46945 
L 681.666048 226.99058 
L 682.085376 226.829857 
L 682.440192 226.725568 
L 684.085248 225.501826 
L 684.343296 225.158927 
L 684.698112 224.655965 
L 684.988416 224.59821 
L 685.665792 224.307786 
L 687.762432 222.664215 
L 688.117248 222.348379 
L 688.859136 221.87337 
L 690.052608 220.832727 
L 690.697728 220.056337 
L 692.020224 218.239798 
L 692.600832 217.44133 
L 693.504 216.172604 
L 696.40704 212.552531 
L 698.66496 210.007028 
L 698.98752 209.159847 
L 701.116416 203.360601 
L 701.793792 202.043131 
L 703.954944 199.095984 
L 705.729024 196.936613 
L 706.4064 196.06303 
L 707.083776 195.294726 
L 708.406272 194.169332 
L 708.890112 193.639967 
L 709.30944 192.324147 
L 710.631936 188.009036 
L 711.470592 186.134149 
L 712.37376 184.619322 
L 714.083328 182.361933 
L 720.308736 174.546878 
L 721.179648 173.408283 
L 724.46976 169.216932 
L 726.114816 167.200463 
L 727.340544 165.751641 
L 728.308224 164.606446 
L 731.791872 160.154373 
L 733.98528 157.520752 
L 734.662656 156.764989 
L 736.275456 157.154421 
L 737.21088 157.167623 
L 737.920512 157.217127 
L 738.791424 154.593407 
L 739.081728 154.434994 
L 739.533312 154.398691 
L 739.984896 154.699016 
L 740.75904 155.642895 
L 741.888 156.963005 
L 742.823424 157.761672 
L 743.952384 158.434929 
L 745.532928 159.124686 
L 748.274688 160.081767 
L 749.339136 160.398593 
L 754.564608 162.118037 
L 756.370944 162.976109 
L 758.048256 163.715371 
L 758.98368 164.118005 
L 760.370688 164.708754 
L 761.531904 165.180694 
L 762.628608 165.622931 
L 764.176896 166.21368 
L 766.950912 167.230165 
L 767.789568 167.510689 
L 769.337856 168.025532 
L 778.305024 170.86707 
L 778.82112 172.140977 
L 779.401728 172.78453 
L 779.724288 172.870338 
L 780.046848 172.735026 
L 780.691968 172.286189 
L 781.143552 172.051869 
L 781.820928 171.890156 
L 783.304704 171.999065 
L 784.336896 172.206982 
L 784.820736 172.312591 
L 786.272256 172.642619 
L 795.884544 174.497374 
L 797.497344 174.771297 
L 799.723008 175.114526 
L 802.077696 175.464355 
L 802.69056 175.543562 
L 803.49696 175.652471 
L 804.980736 175.843887 
L 805.819392 175.949496 
L 807.109632 176.104609 
L 807.948288 176.213518 
L 809.270784 176.371931 
L 810.367488 176.48084 
L 811.431936 176.589749 
L 812.464128 176.698658 
L 813.49632 176.797667 
L 814.560768 176.903275 
L 815.657472 177.018785 
L 816.270336 177.064989 
L 817.270272 177.157397 
L 818.721792 177.055088 
L 819.205632 176.59635 
L 819.721728 176.404934 
L 820.624896 176.503942 
L 821.23776 176.701959 
L 821.915136 176.946179 
L 822.495744 177.127694 
L 823.237632 177.309209 
L 823.850496 177.444521 
L 832.914432 178.26629 
L 833.624064 178.302593 
L 835.688448 178.408201 
L 836.462592 178.431303 
L 836.946432 178.470907 
L 837.68832 178.503909 
L 839.591424 178.589717 
L 840.365568 178.619419 
L 842.139648 178.692025 
L 842.946048 178.718427 
L 843.65568 178.75143 
L 846.687744 178.860339 
L 848.01024 178.890042 
L 848.719872 178.923045 
L 850.364928 178.98245 
L 851.203584 178.995651 
L 851.655168 179.018753 
L 855.945216 179.124361 
L 856.622592 179.150764 
L 858.945024 179.249772 
L 859.46112 179.847122 
L 860.10624 180.173849 
L 860.783616 180.269557 
L 861.654528 180.163949 
L 863.880192 179.596301 
L 865.815552 179.487392 
L 866.944512 179.480791 
L 867.912192 179.47089 
L 877.718016 179.5798 
L 878.81472 179.5831 
L 899.329536 179.477491 
L 899.845632 178.972549 
L 900.523008 178.741529 
L 901.684224 178.728328 
L 905.619456 179.421386 
L 907.651584 179.520395 
L 939.552768 179.612802 
L 940.617216 180.454373 
L 941.584896 180.635888 
L 943.488 180.526979 
L 946.520064 180.018736 
L 947.52 179.866924 
L 947.52 179.866924 
" clip-path="url(#p5e4e997815)" style="fill: none; stroke: #008000; stroke-width: 2; stroke-linecap: square"/>
   </g>
   <g id="patch_10">
    <path d="M 100.8 242.888276 
L 100.8 150.157241 
" style="fill: none; stroke: #bcbcbc; stroke-width: 0.8; stroke-linejoin: miter; stroke-linecap: square"/>
   </g>
   <g id="patch_11">
    <path d="M 987.84 242.888276 
L 987.84 150.157241 
" style="fill: none; stroke: #bcbcbc; stroke-width: 0.8; stroke-linejoin: miter; stroke-linecap: square"/>
   </g>
   <g id="patch_12">
    <path d="M 100.8 242.888276 
L 987.84 242.888276 
" style="fill: none; stroke: #bcbcbc; stroke-width: 0.8; stroke-linejoin: miter; stroke-linecap: square"/>
   </g>
   <g id="patch_13">
    <path d="M 100.8 150.157241 
L 987.84 150.157241 
" style="fill: none; stroke: #bcbcbc; stroke-width: 0.8; stroke-linejoin: miter; stroke-linecap: square"/>
   </g>
  </g>
  <g id="axes_3">
   <g id="patch_14">
    <path d="M 100.8 354.165517 
L 987.84 354.165517 
L 987.84 261.434483 
L 100.8 261.434483 
z
" style="fill: #eeeeee"/>
   </g>
   <g id="matplotlib.axis_5">
    <g id="xtick_13">
     <g id="line2d_37">
      <path d="M 141.12 354.165517 
L 141.12 261.434483 
" clip-path="url(#pe7a4e7cba0)" style="fill: none; stroke-dasharray: 1.85,0.8; stroke-dashoffset: 0; stroke: #b2b2b2; stroke-width: 0.5"/>
     </g>
     <g id="line2d_38">
      <g>
       <use xlink:href="#mb898cc0295" x="141.12" y="354.165517" style="stroke: #000000; stroke-width: 0.8"/>
      </g>
     </g>
    </g>
    <g id="xtick_14">
     <g id="line2d_39">
      <path d="M 302.4 354.165517 
L 302.4 261.434483 
" clip-path="url(#pe7a4e7cba0)" style="fill: none; stroke-dasharray: 1.85,0.8; stroke-dashoffset: 0; stroke: #b2b2b2; stroke-width: 0.5"/>
     </g>
     <g id="line2d_40">
      <g>
       <use xlink:href="#mb898cc0295" x="302.4" y="354.165517" style="stroke: #000000; stroke-width: 0.8"/>
      </g>
     </g>
    </g>
    <g id="xtick_15">
     <g id="line2d_41">
      <path d="M 463.68 354.165517 
L 463.68 261.434483 
" clip-path="url(#pe7a4e7cba0)" style="fill: none; stroke-dasharray: 1.85,0.8; stroke-dashoffset: 0; stroke: #b2b2b2; stroke-width: 0.5"/>
     </g>
     <g id="line2d_42">
      <g>
       <use xlink:href="#mb898cc0295" x="463.68" y="354.165517" style="stroke: #000000; stroke-width: 0.8"/>
      </g>
     </g>
    </g>
    <g id="xtick_16">
     <g id="line2d_43">
      <path d="M 624.96 354.165517 
L 624.96 261.434483 
" clip-path="url(#pe7a4e7cba0)" style="fill: none; stroke-dasharray: 1.85,0.8; stroke-dashoffset: 0; stroke: #b2b2b2; stroke-width: 0.5"/>
     </g>
     <g id="line2d_44">
      <g>
       <use xlink:href="#mb898cc0295" x="624.96" y="354.165517" style="stroke: #000000; stroke-width: 0.8"/>
      </g>
     </g>
    </g>
    <g id="xtick_17">
     <g id="line2d_45">
      <path d="M 786.24 354.165517 
L 786.24 261.434483 
" clip-path="url(#pe7a4e7cba0)" style="fill: none; stroke-dasharray: 1.85,0.8; stroke-dashoffset: 0; stroke: #b2b2b2; stroke-width: 0.5"/>
     </g>
     <g id="line2d_46">
      <g>
       <use xlink:href="#mb898cc0295" x="786.24" y="354.165517" style="stroke: #000000; stroke-width: 0.8"/>
      </g>
     </g>
    </g>
    <g id="xtick_18">
     <g id="line2d_47">
      <path d="M 947.52 354.165517 
L 947.52 261.434483 
" clip-path="url(#pe7a4e7cba0)" style="fill: none; stroke-dasharray: 1.85,0.8; stroke-dashoffset: 0; stroke: #b2b2b2; stroke-width: 0.5"/>
     </g>
     <g id="line2d_48">
      <g>
       <use xlink:href="#mb898cc0295" x="947.52" y="354.165517" style="stroke: #000000; stroke-width: 0.8"/>
      </g>
     </g>
    </g>
   </g>
   <g id="matplotlib.axis_6">
    <g id="ytick_6">
     <g id="line2d_49">
      <path d="M 100.8 348.319689 
L 987.84 348.319689 
" clip-path="url(#pe7a4e7cba0)" style="fill: none; stroke-dasharray: 1.85,0.8; stroke-dashoffset: 0; stroke: #b2b2b2; stroke-width: 0.5"/>
     </g>
     <g id="line2d_50">
      <g>
       <use xlink:href="#m7b7f5e1026" x="100.8" y="348.319689" style="stroke: #000000; stroke-width: 0.8"/>
      </g>
     </g>
     <g id="text_8">
      <!-- 0 V -->
      <g transform="translate(74.36625 353.638595) scale(0.14 -0.14)">
       <use xlink:href="#DejaVuSans-30"/>
       <use xlink:href="#DejaVuSans-20" x="63.623047"/>
       <use xlink:href="#DejaVuSans-56" x="95.410156"/>
      </g>
     </g>
    </g>
    <g id="ytick_7">
     <g id="line2d_51">
      <path d="M 100.8 305.230895 
L 987.84 305.230895 
" clip-path="url(#pe7a4e7cba0)" style="fill: none; stroke-dasharray: 1.85,0.8; stroke-dashoffset: 0; stroke: #b2b2b2; stroke-width: 0.5"/>
     </g>
     <g id="line2d_52">
      <g>
       <use xlink:href="#m7b7f5e1026" x="100.8" y="305.230895" style="stroke: #000000; stroke-width: 0.8"/>
      </g>
     </g>
     <g id="text_9">
      <!-- 1 V -->
      <g transform="translate(74.36625 310.549802) scale(0.14 -0.14)">
       <use xlink:href="#DejaVuSans-31"/>
       <use xlink:href="#DejaVuSans-20" x="63.623047"/>
       <use xlink:href="#DejaVuSans-56" x="95.410156"/>
      </g>
     </g>
    </g>
    <g id="ytick_8">
     <g id="line2d_53">
      <path d="M 100.8 262.142102 
L 987.84 262.142102 
" clip-path="url(#pe7a4e7cba0)" style="fill: none; stroke-dasharray: 1.85,0.8; stroke-dashoffset: 0; stroke: #b2b2b2; stroke-width: 0.5"/>
     </g>
     <g id="line2d_54">
      <g>
       <use xlink:href="#m7b7f5e1026" x="100.8" y="262.142102" style="stroke: #000000; stroke-width: 0.8"/>
      </g>
     </g>
     <g id="text_10">
      <!-- 2 V -->
      <g transform="translate(74.36625 267.461008) scale(0.14 -0.14)">
       <use xlink:href="#DejaVuSans-32"/>
       <use xlink:href="#DejaVuSans-20" x="63.623047"/>
       <use xlink:href="#DejaVuSans-56" x="95.410156"/>
      </g>
     </g>
    </g>
    <g id="text_11">
     <g id="patch_15">
      <path d="M 34.8768 342.395313 
L 34.8768 273.204688 
L 11.247425 273.204688 
L 11.247425 342.395313 
z
" style="fill: #ffff00; opacity: 0.2; stroke: #eeeeee; stroke-width: 0.5; stroke-linejoin: miter"/>
     </g>
     <!-- CLK BUF -->
     <g transform="translate(26.925238 337.355313) rotate(-90) scale(0.14 -0.14)">
      <defs>
       <path id="DejaVuSans-43" d="M 4122 4306 
L 4122 3641 
Q 3803 3938 3442 4084 
Q 3081 4231 2675 4231 
Q 1875 4231 1450 3742 
Q 1025 3253 1025 2328 
Q 1025 1406 1450 917 
Q 1875 428 2675 428 
Q 3081 428 3442 575 
Q 3803 722 4122 1019 
L 4122 359 
Q 3791 134 3420 21 
Q 3050 -91 2638 -91 
Q 1578 -91 968 557 
Q 359 1206 359 2328 
Q 359 3453 968 4101 
Q 1578 4750 2638 4750 
Q 3056 4750 3426 4639 
Q 3797 4528 4122 4306 
z
" transform="scale(0.015625)"/>
       <path id="DejaVuSans-4b" d="M 628 4666 
L 1259 4666 
L 1259 2694 
L 3353 4666 
L 4166 4666 
L 1850 2491 
L 4331 0 
L 3500 0 
L 1259 2247 
L 1259 0 
L 628 0 
L 628 4666 
z
" transform="scale(0.015625)"/>
      </defs>
      <use xlink:href="#DejaVuSans-43"/>
      <use xlink:href="#DejaVuSans-4c" x="69.824219"/>
      <use xlink:href="#DejaVuSans-4b" x="125.537109"/>
      <use xlink:href="#DejaVuSans-20" x="191.113281"/>
      <use xlink:href="#DejaVuSans-42" x="222.900391"/>
      <use xlink:href="#DejaVuSans-55" x="291.503906"/>
      <use xlink:href="#DejaVuSans-46" x="364.697266"/>
     </g>
    </g>
   </g>
   <g id="line2d_55">
    <path d="M 141.12 348.318549 
L 173.376 348.318549 
L 173.601792 296.613137 
L 213.696 296.613137 
L 213.760512 337.857299 
L 213.825024 348.300004 
L 213.889536 348.237997 
L 213.954048 348.410132 
L 214.01856 348.324358 
L 215.373312 348.314888 
L 223.437312 348.318503 
L 254.016 348.31852 
L 254.17728 296.453708 
L 254.241792 296.729476 
L 254.403072 296.604519 
L 254.854656 296.613137 
L 294.336 296.613137 
L 294.400512 337.821104 
L 294.465024 348.641222 
L 294.529536 347.892067 
L 294.626304 348.387403 
L 294.65856 348.356741 
L 294.852096 348.281006 
L 295.206912 348.335368 
L 295.497216 348.318214 
L 320.656896 348.318548 
L 334.656 348.318551 
L 334.81728 296.535577 
L 334.881792 296.630372 
L 335.204352 296.617446 
L 336.075264 296.613137 
L 374.976 296.613137 
L 375.040512 337.861177 
L 375.105024 348.320388 
L 375.169536 348.232533 
L 375.234048 348.40372 
L 375.29856 348.324501 
L 376.717824 348.31453 
L 385.039872 348.318488 
L 415.296 348.318551 
L 415.45728 296.453708 
L 415.521792 296.729476 
L 415.683072 296.60021 
L 416.650752 296.617446 
L 455.616 296.613137 
L 455.680512 337.823689 
L 455.745024 348.64653 
L 455.809536 347.693048 
L 455.906304 348.951887 
L 455.93856 348.389773 
L 456.132096 348.29381 
L 456.519168 348.318996 
L 489.936384 348.318548 
L 495.936 348.318549 
L 496.09728 296.526959 
L 496.161792 296.630372 
L 497.129472 296.613137 
L 536.256 296.613137 
L 536.320512 337.823689 
L 536.385024 348.646483 
L 536.449536 347.693135 
L 536.546304 348.951801 
L 536.57856 348.389768 
L 536.772096 348.293813 
L 537.159168 348.318996 
L 570.576384 348.318548 
L 576.576 348.31855 
L 576.73728 296.526959 
L 576.801792 296.630372 
L 577.769472 296.613137 
L 616.896 296.613137 
L 616.960512 337.823689 
L 617.025024 348.274096 
L 617.089536 348.240069 
L 617.154048 348.4185 
L 617.21856 348.324712 
L 618.702336 348.315347 
L 627.443712 348.318366 
L 644.378112 348.399541 
L 645.055488 349.049354 
L 645.829632 349.456069 
L 646.89408 349.718954 
L 648.281088 349.8284 
L 651.280896 349.798668 
L 657.216 349.613387 
L 657.248256 345.556749 
L 657.37728 318.016202 
L 657.506304 318.167013 
L 661.022208 323.138167 
L 662.796288 325.346037 
L 664.344576 326.86147 
L 665.92512 328.231262 
L 668.924928 330.417588 
L 670.182912 331.145357 
L 671.215104 330.614934 
L 672.795648 329.975497 
L 675.92448 328.845709 
L 676.053504 328.750051 
L 676.311552 328.663443 
L 676.440576 328.588468 
L 676.472832 328.611305 
L 676.827648 328.496258 
L 677.763072 328.15758 
L 681.053184 327.050198 
L 681.182208 326.896802 
L 681.214464 326.989012 
L 681.278976 326.897664 
L 681.311232 326.92007 
L 681.343488 326.870949 
L 681.472512 326.860608 
L 683.8272 326.054416 
L 684.762624 325.746332 
L 684.923904 325.695056 
L 685.11744 325.633008 
L 687.665664 324.70229 
L 687.69792 324.786313 
L 687.730176 324.752704 
L 687.8592 324.656616 
L 687.955968 324.642828 
L 690.536448 323.493649 
L 693.697536 321.508118 
L 697.536 319.016293 
L 697.568256 317.785677 
L 697.600512 319.314467 
L 697.729536 347.894014 
L 697.794048 347.769919 
L 698.148864 347.780605 
L 708.922368 347.778407 
L 709.535232 347.193305 
L 710.309376 346.782539 
L 711.309312 346.53271 
L 712.793088 346.425118 
L 715.502592 346.476867 
L 729.598464 346.875008 
L 732.662784 346.927705 
L 734.662656 347.05262 
L 735.340032 347.734629 
L 736.08192 348.161876 
L 737.017344 348.448921 
L 737.856 348.579936 
L 737.888256 339.856619 
L 738.01728 265.64953 
L 738.049536 266.114889 
L 738.114048 265.933916 
L 738.17856 265.968387 
L 741.533184 267.429097 
L 743.145984 268.165915 
L 745.242624 269.122487 
L 745.694208 269.350857 
L 754.403328 272.95308 
L 755.016192 273.310717 
L 755.661312 273.681281 
L 756.274176 274.034609 
L 758.532096 275.361744 
L 759.209472 275.76247 
L 766.305792 279.429326 
L 768.01536 280.230777 
L 769.434624 280.864183 
L 778.176 284.406082 
L 778.401792 348.647026 
L 778.434048 348.63752 
L 799.045632 348.493552 
L 818.496 348.414316 
L 818.625024 292.976443 
L 818.721792 293.170342 
L 819.237888 293.213431 
L 820.173312 293.321153 
L 820.43136 293.342697 
L 821.431296 293.450419 
L 821.689344 293.471964 
L 822.786048 293.579686 
L 823.044096 293.60123 
L 824.1408 293.708952 
L 824.398848 293.730496 
L 825.59232 293.838218 
L 825.850368 293.859763 
L 827.04384 293.967485 
L 827.301888 293.989029 
L 828.688896 294.096751 
L 828.946944 294.118296 
L 830.333952 294.226018 
L 830.592 294.247562 
L 831.108096 294.286342 
L 832.914432 294.415608 
L 834.559488 294.514712 
L 834.914304 294.544875 
L 836.494848 294.643979 
L 836.849664 294.674141 
L 838.623744 294.773245 
L 838.97856 294.803407 
L 840.946176 294.902512 
L 841.300992 294.932674 
L 843.462144 295.031778 
L 843.81696 295.06194 
L 846.171648 295.161044 
L 846.526464 295.191206 
L 849.074688 295.290311 
L 849.429504 295.320473 
L 852.3648 295.419577 
L 852.719616 295.449739 
L 855.945216 295.548843 
L 856.300032 295.579006 
L 858.816 295.665183 
L 858.848256 300.081785 
L 858.912768 349.95047 
L 858.97728 348.258403 
L 859.009536 348.395654 
L 859.106304 348.345295 
L 860.525568 348.343802 
L 899.136 348.330889 
L 899.29728 295.958187 
L 899.361792 296.44509 
L 899.45856 296.001276 
L 899.523072 296.165013 
L 900.006912 296.182249 
L 939.456 296.182249 
L 939.488256 303.951158 
L 939.61728 348.279644 
L 939.649536 348.40494 
L 939.714048 348.28506 
L 939.746304 348.247252 
L 939.810816 348.302864 
L 940.004352 348.356676 
L 940.230144 348.329521 
L 945.616896 348.330893 
L 947.52 348.330879 
L 947.52 348.330879 
" clip-path="url(#pe7a4e7cba0)" style="fill: none; stroke: #0000ff; stroke-width: 2; stroke-linecap: square"/>
   </g>
   <g id="patch_16">
    <path d="M 100.8 354.165517 
L 100.8 261.434483 
" style="fill: none; stroke: #bcbcbc; stroke-width: 0.8; stroke-linejoin: miter; stroke-linecap: square"/>
   </g>
   <g id="patch_17">
    <path d="M 987.84 354.165517 
L 987.84 261.434483 
" style="fill: none; stroke: #bcbcbc; stroke-width: 0.8; stroke-linejoin: miter; stroke-linecap: square"/>
   </g>
   <g id="patch_18">
    <path d="M 100.8 354.165517 
L 987.84 354.165517 
" style="fill: none; stroke: #bcbcbc; stroke-width: 0.8; stroke-linejoin: miter; stroke-linecap: square"/>
   </g>
   <g id="patch_19">
    <path d="M 100.8 261.434483 
L 987.84 261.434483 
" style="fill: none; stroke: #bcbcbc; stroke-width: 0.8; stroke-linejoin: miter; stroke-linecap: square"/>
   </g>
  </g>
  <g id="axes_4">
   <g id="patch_20">
    <path d="M 100.8 465.442759 
L 987.84 465.442759 
L 987.84 372.711724 
L 100.8 372.711724 
z
" style="fill: #eeeeee"/>
   </g>
   <g id="matplotlib.axis_7">
    <g id="xtick_19">
     <g id="line2d_56">
      <path d="M 141.12 465.442759 
L 141.12 372.711724 
" clip-path="url(#p23270a40c8)" style="fill: none; stroke-dasharray: 1.85,0.8; stroke-dashoffset: 0; stroke: #b2b2b2; stroke-width: 0.5"/>
     </g>
     <g id="line2d_57">
      <g>
       <use xlink:href="#mb898cc0295" x="141.12" y="465.442759" style="stroke: #000000; stroke-width: 0.8"/>
      </g>
     </g>
    </g>
    <g id="xtick_20">
     <g id="line2d_58">
      <path d="M 302.4 465.442759 
L 302.4 372.711724 
" clip-path="url(#p23270a40c8)" style="fill: none; stroke-dasharray: 1.85,0.8; stroke-dashoffset: 0; stroke: #b2b2b2; stroke-width: 0.5"/>
     </g>
     <g id="line2d_59">
      <g>
       <use xlink:href="#mb898cc0295" x="302.4" y="465.442759" style="stroke: #000000; stroke-width: 0.8"/>
      </g>
     </g>
    </g>
    <g id="xtick_21">
     <g id="line2d_60">
      <path d="M 463.68 465.442759 
L 463.68 372.711724 
" clip-path="url(#p23270a40c8)" style="fill: none; stroke-dasharray: 1.85,0.8; stroke-dashoffset: 0; stroke: #b2b2b2; stroke-width: 0.5"/>
     </g>
     <g id="line2d_61">
      <g>
       <use xlink:href="#mb898cc0295" x="463.68" y="465.442759" style="stroke: #000000; stroke-width: 0.8"/>
      </g>
     </g>
    </g>
    <g id="xtick_22">
     <g id="line2d_62">
      <path d="M 624.96 465.442759 
L 624.96 372.711724 
" clip-path="url(#p23270a40c8)" style="fill: none; stroke-dasharray: 1.85,0.8; stroke-dashoffset: 0; stroke: #b2b2b2; stroke-width: 0.5"/>
     </g>
     <g id="line2d_63">
      <g>
       <use xlink:href="#mb898cc0295" x="624.96" y="465.442759" style="stroke: #000000; stroke-width: 0.8"/>
      </g>
     </g>
    </g>
    <g id="xtick_23">
     <g id="line2d_64">
      <path d="M 786.24 465.442759 
L 786.24 372.711724 
" clip-path="url(#p23270a40c8)" style="fill: none; stroke-dasharray: 1.85,0.8; stroke-dashoffset: 0; stroke: #b2b2b2; stroke-width: 0.5"/>
     </g>
     <g id="line2d_65">
      <g>
       <use xlink:href="#mb898cc0295" x="786.24" y="465.442759" style="stroke: #000000; stroke-width: 0.8"/>
      </g>
     </g>
    </g>
    <g id="xtick_24">
     <g id="line2d_66">
      <path d="M 947.52 465.442759 
L 947.52 372.711724 
" clip-path="url(#p23270a40c8)" style="fill: none; stroke-dasharray: 1.85,0.8; stroke-dashoffset: 0; stroke: #b2b2b2; stroke-width: 0.5"/>
     </g>
     <g id="line2d_67">
      <g>
       <use xlink:href="#mb898cc0295" x="947.52" y="465.442759" style="stroke: #000000; stroke-width: 0.8"/>
      </g>
     </g>
    </g>
   </g>
   <g id="matplotlib.axis_8">
    <g id="ytick_9">
     <g id="line2d_68">
      <path d="M 100.8 441.969048 
L 987.84 441.969048 
" clip-path="url(#p23270a40c8)" style="fill: none; stroke-dasharray: 1.85,0.8; stroke-dashoffset: 0; stroke: #b2b2b2; stroke-width: 0.5"/>
     </g>
     <g id="line2d_69">
      <g>
       <use xlink:href="#m7b7f5e1026" x="100.8" y="441.969048" style="stroke: #000000; stroke-width: 0.8"/>
      </g>
     </g>
     <g id="text_12">
      <!-- 0 V -->
      <g transform="translate(74.36625 447.287954) scale(0.14 -0.14)">
       <use xlink:href="#DejaVuSans-30"/>
       <use xlink:href="#DejaVuSans-20" x="63.623047"/>
       <use xlink:href="#DejaVuSans-56" x="95.410156"/>
      </g>
     </g>
    </g>
    <g id="ytick_10">
     <g id="line2d_70">
      <path d="M 100.8 408.32417 
L 987.84 408.32417 
" clip-path="url(#p23270a40c8)" style="fill: none; stroke-dasharray: 1.85,0.8; stroke-dashoffset: 0; stroke: #b2b2b2; stroke-width: 0.5"/>
     </g>
     <g id="line2d_71">
      <g>
       <use xlink:href="#m7b7f5e1026" x="100.8" y="408.32417" style="stroke: #000000; stroke-width: 0.8"/>
      </g>
     </g>
     <g id="text_13">
      <!-- 1 V -->
      <g transform="translate(74.36625 413.643077) scale(0.14 -0.14)">
       <use xlink:href="#DejaVuSans-31"/>
       <use xlink:href="#DejaVuSans-20" x="63.623047"/>
       <use xlink:href="#DejaVuSans-56" x="95.410156"/>
      </g>
     </g>
    </g>
    <g id="ytick_11">
     <g id="line2d_72">
      <path d="M 100.8 374.679293 
L 987.84 374.679293 
" clip-path="url(#p23270a40c8)" style="fill: none; stroke-dasharray: 1.85,0.8; stroke-dashoffset: 0; stroke: #b2b2b2; stroke-width: 0.5"/>
     </g>
     <g id="line2d_73">
      <g>
       <use xlink:href="#m7b7f5e1026" x="100.8" y="374.679293" style="stroke: #000000; stroke-width: 0.8"/>
      </g>
     </g>
     <g id="text_14">
      <!-- 2 V -->
      <g transform="translate(74.36625 379.9982) scale(0.14 -0.14)">
       <use xlink:href="#DejaVuSans-32"/>
       <use xlink:href="#DejaVuSans-20" x="63.623047"/>
       <use xlink:href="#DejaVuSans-56" x="95.410156"/>
      </g>
     </g>
    </g>
    <g id="text_15">
     <g id="patch_21">
      <path d="M 34.8768 454.693023 
L 34.8768 383.46146 
L 11.247425 383.46146 
L 11.247425 454.693023 
z
" style="fill: #ffff00; opacity: 0.2; stroke: #eeeeee; stroke-width: 0.5; stroke-linejoin: miter"/>
     </g>
     <!-- DFF OUT -->
     <g transform="translate(26.925238 449.653023) rotate(-90) scale(0.14 -0.14)">
      <defs>
       <path id="DejaVuSans-4f" d="M 2522 4238 
Q 1834 4238 1429 3725 
Q 1025 3213 1025 2328 
Q 1025 1447 1429 934 
Q 1834 422 2522 422 
Q 3209 422 3611 934 
Q 4013 1447 4013 2328 
Q 4013 3213 3611 3725 
Q 3209 4238 2522 4238 
z
M 2522 4750 
Q 3503 4750 4090 4092 
Q 4678 3434 4678 2328 
Q 4678 1225 4090 567 
Q 3503 -91 2522 -91 
Q 1538 -91 948 565 
Q 359 1222 359 2328 
Q 359 3434 948 4092 
Q 1538 4750 2522 4750 
z
" transform="scale(0.015625)"/>
       <path id="DejaVuSans-54" d="M -19 4666 
L 3928 4666 
L 3928 4134 
L 2272 4134 
L 2272 0 
L 1638 0 
L 1638 4134 
L -19 4134 
L -19 4666 
z
" transform="scale(0.015625)"/>
      </defs>
      <use xlink:href="#DejaVuSans-44"/>
      <use xlink:href="#DejaVuSans-46" x="77.001953"/>
      <use xlink:href="#DejaVuSans-46" x="134.521484"/>
      <use xlink:href="#DejaVuSans-20" x="192.041016"/>
      <use xlink:href="#DejaVuSans-4f" x="223.828125"/>
      <use xlink:href="#DejaVuSans-55" x="302.539062"/>
      <use xlink:href="#DejaVuSans-54" x="375.732422"/>
     </g>
    </g>
   </g>
   <g id="line2d_74">
    <path d="M 141.12 416.582978 
L 173.408256 416.624025 
L 173.440512 418.016923 
L 173.601792 441.971101 
L 174.214656 441.968088 
L 186.213888 441.96814 
L 254.048256 441.96956 
L 254.080512 442.104058 
L 254.112768 441.881581 
L 254.306304 438.596821 
L 254.628864 437.842167 
L 254.693376 437.468709 
L 255.14496 431.574126 
L 255.370752 417.719839 
L 255.596544 401.92155 
L 255.757824 401.645662 
L 255.983616 401.591831 
L 257.08032 401.595195 
L 295.755264 401.662485 
L 296.239104 403.839308 
L 296.59392 403.294261 
L 297.980928 401.864354 
L 299.690496 401.618746 
L 334.720512 401.511083 
L 334.752768 402.005663 
L 334.785024 404.451645 
L 334.914048 441.955256 
L 334.97856 441.925646 
L 335.13984 441.961996 
L 335.591424 441.968267 
L 372.5568 441.968121 
L 415.328256 441.96954 
L 415.360512 442.10359 
L 415.392768 441.883445 
L 415.586304 438.518429 
L 415.876608 437.746279 
L 415.94112 437.224111 
L 416.521728 422.048252 
L 416.9088 401.706223 
L 417.102336 401.59856 
L 418.424832 401.568279 
L 419.747328 401.595195 
L 495.968256 401.608653 
L 496.000512 401.723046 
L 496.065024 401.568279 
L 496.387584 401.588466 
L 576.608256 401.608653 
L 576.640512 401.723046 
L 576.705024 401.568279 
L 577.027584 401.588466 
L 644.410368 401.679307 
L 646.055424 403.549962 
L 652.345344 412.263986 
L 652.86144 413.364846 
L 653.50656 415.226417 
L 653.796864 416.305072 
L 653.958144 416.670455 
L 655.022592 420.88885 
L 655.409664 422.397823 
L 655.44192 422.107804 
L 655.474176 422.438533 
L 655.506432 422.172065 
L 655.699968 423.476814 
L 655.990272 424.610646 
L 656.054784 424.453188 
L 656.08704 424.495244 
L 656.345088 426.073862 
L 656.699904 427.459358 
L 657.183744 429.376443 
L 657.216 429.141265 
L 657.248256 429.153377 
L 657.409536 430.218574 
L 657.796608 431.76422 
L 657.86112 431.717453 
L 657.893376 431.562687 
L 657.925632 431.691547 
L 658.086912 432.990912 
L 658.409472 434.286913 
L 659.31264 437.706242 
L 659.828736 439.491472 
L 659.860992 439.066874 
L 659.893248 439.624302 
L 660.248064 440.893757 
L 660.957696 443.269321 
L 661.022208 443.203815 
L 661.054464 443.232043 
L 661.215744 444.097254 
L 661.248 443.711751 
L 661.312512 443.992114 
L 661.828608 445.834171 
L 661.860864 445.625909 
L 661.89312 445.977162 
L 661.925376 445.706993 
L 663.054336 448.35821 
L 663.247872 448.463518 
L 663.6672 449.143481 
L 663.699456 449.210098 
L 663.763968 449.658584 
L 663.82848 449.58221 
L 664.054272 450.233912 
L 666.441216 454.762848 
L 666.505728 454.91425 
L 666.699264 455.39369 
L 667.731456 457.224308 
L 668.570112 458.53343 
L 668.731392 458.950626 
L 668.795904 458.913953 
L 668.82816 458.998402 
L 669.215232 459.765842 
L 670.182912 461.216609 
L 670.376448 461.114328 
L 670.537728 460.769132 
L 670.957056 460.219711 
L 671.021568 459.88158 
L 671.08608 459.983524 
L 671.24736 459.743636 
L 672.021504 458.431486 
L 672.05376 458.465804 
L 672.150528 457.669429 
L 672.21504 458.271 
L 672.279552 458.085953 
L 672.311808 457.799299 
L 672.37632 457.870626 
L 672.440832 457.949691 
L 672.473088 457.897542 
L 673.376256 456.754625 
L 673.408512 456.86599 
L 673.473024 456.836382 
L 673.66656 456.45384 
L 673.698816 456.589765 
L 673.731072 456.367036 
L 673.763328 456.524158 
L 673.795584 456.489167 
L 673.924608 456.190064 
L 673.956864 456.276195 
L 673.98912 456.204868 
L 674.1504 456.041017 
L 674.247168 455.963298 
L 674.63424 455.596232 
L 674.860032 455.272232 
L 674.892288 455.387297 
L 674.924544 455.217727 
L 674.9568 455.326737 
L 675.11808 455.000045 
L 675.150336 455.135297 
L 675.182592 454.87825 
L 675.311616 454.800867 
L 675.666432 454.439185 
L 675.698688 454.643746 
L 675.7632 454.399484 
L 675.795456 454.416306 
L 675.827712 454.31739 
L 675.892224 454.32311 
L 675.92448 454.435484 
L 675.956736 454.180456 
L 677.021184 453.47425 
L 677.343744 453.099109 
L 677.53728 452.762324 
L 677.634048 452.716567 
L 677.666304 452.869315 
L 677.69856 452.611931 
L 677.924352 452.39223 
L 677.956608 452.438324 
L 678.085632 452.214585 
L 678.150144 452.429913 
L 678.1824 452.270436 
L 678.246912 452.357576 
L 678.311424 452.090772 
L 678.408192 452.208529 
L 678.440448 452.18767 
L 678.569472 452.070922 
L 678.730752 451.932641 
L 678.763008 451.648342 
L 678.859776 451.665165 
L 679.117824 451.513426 
L 679.246848 451.395669 
L 679.408128 451.356978 
L 679.7952 451.059893 
L 680.053248 450.741949 
L 680.246784 450.395407 
L 680.698368 449.917313 
L 680.76288 449.948939 
L 680.795136 449.811332 
L 680.827392 449.960379 
L 680.859648 450.069725 
L 680.988672 449.659594 
L 681.053184 449.953313 
L 681.08544 449.638397 
L 681.117696 449.622584 
L 681.149952 449.755818 
L 681.182208 449.507855 
L 681.214464 449.710397 
L 681.343488 449.485986 
L 681.537024 449.283107 
L 682.827264 448.510957 
L 683.569152 447.808116 
L 683.698176 447.392602 
L 683.730432 447.373424 
L 683.762688 447.714583 
L 683.8272 447.521125 
L 683.859456 447.299405 
L 683.923968 447.391929 
L 683.956224 447.432303 
L 684.085248 447.238172 
L 684.117504 447.455181 
L 684.14976 447.238845 
L 684.278784 446.956228 
L 684.440064 446.909798 
L 684.762624 446.766471 
L 684.79488 446.860676 
L 684.827136 446.90105 
L 684.95616 446.714657 
L 685.214208 446.648377 
L 686.117376 445.961685 
L 686.310912 445.672339 
L 686.472192 445.243737 
L 686.633472 445.104279 
L 686.665728 445.423703 
L 686.697984 445.08564 
L 686.762496 445.288922 
L 686.859264 445.301303 
L 686.89152 444.82146 
L 686.988288 444.960043 
L 687.117312 444.720997 
L 687.504384 444.476398 
L 687.53664 444.709927 
L 687.601152 444.446791 
L 687.891456 444.344712 
L 687.923712 444.437202 
L 687.988224 444.339834 
L 688.278528 444.239875 
L 689.504256 443.201998 
L 689.730048 442.936674 
L 689.891328 442.288644 
L 689.923584 442.67808 
L 689.988096 442.155578 
L 690.020352 442.0982 
L 690.052608 442.22888 
L 690.084864 442.419653 
L 690.11712 442.041074 
L 690.149376 442.334128 
L 690.2784 441.951692 
L 690.342912 441.997278 
L 690.43968 441.953064 
L 691.342848 440.612452 
L 691.375104 440.011252 
L 691.471872 440.217428 
L 691.504128 440.279469 
L 691.665408 439.856385 
L 691.826688 439.729005 
L 691.858944 439.800265 
L 691.923456 439.709054 
L 692.665344 438.546691 
L 692.729856 438.077008 
L 692.891136 437.516484 
L 693.02016 437.470391 
L 693.18144 437.493942 
L 693.310464 437.463326 
L 697.05216 431.635696 
L 697.084416 431.875584 
L 697.148928 431.60407 
L 697.21344 431.813341 
L 697.277952 431.662276 
L 697.471488 431.412631 
L 697.923072 430.639472 
L 698.084352 429.866985 
L 698.50368 429.057153 
L 698.697216 428.635583 
L 698.729472 428.164891 
L 698.82624 428.229489 
L 698.890752 428.263807 
L 698.923008 428.210984 
L 700.084224 426.279768 
L 700.213248 425.769712 
L 700.374528 425.864927 
L 700.729344 425.329301 
L 701.697024 423.782982 
L 701.72928 423.34829 
L 701.826048 423.392702 
L 701.922816 423.558571 
L 701.955072 423.545786 
L 702.890496 422.110832 
L 705.051648 419.384924 
L 705.729024 418.687465 
L 706.180608 418.037783 
L 706.341888 417.71782 
L 706.922496 417.203726 
L 707.341824 416.89453 
L 708.8256 415.431314 
L 709.019136 414.951538 
L 709.632 413.290154 
L 710.341632 412.059425 
L 713.309184 406.988469 
L 716.018688 402.409401 
L 718.695936 398.14996 
L 719.921664 396.302856 
L 720.663552 395.212762 
L 728.114688 385.290888 
L 728.630784 384.597803 
L 731.824128 380.452754 
L 732.501504 379.59481 
L 733.307904 378.609015 
L 734.856192 376.994061 
L 736.823808 377.101725 
L 739.049472 377.905837 
L 739.113984 378.373501 
L 739.178496 382.592568 
L 739.243008 401.215008 
L 739.404288 442.312326 
L 739.533312 442.264823 
L 740.565504 442.27856 
L 767.112192 442.283762 
L 797.561856 442.112106 
L 818.528256 442.044264 
L 818.560512 442.277275 
L 818.592768 441.759881 
L 818.754048 438.170877 
L 819.237888 436.127624 
L 819.399168 433.660445 
L 819.560448 427.282722 
L 819.753984 410.485181 
L 819.94752 399.182857 
L 820.1088 399.007904 
L 820.947456 399.075194 
L 822.269952 399.182857 
L 822.721536 399.209773 
L 823.560192 399.277063 
L 825.076224 399.384727 
L 825.527808 399.411643 
L 826.366464 399.478932 
L 828.076032 399.586596 
L 828.527616 399.613512 
L 830.301696 399.721175 
L 830.75328 399.748091 
L 831.430656 399.781736 
L 832.269312 399.849026 
L 834.559488 399.95669 
L 835.011072 399.983605 
L 837.172224 400.091269 
L 837.623808 400.118185 
L 840.172032 400.225849 
L 840.623616 400.252764 
L 841.39776 400.283045 
L 844.333056 400.394073 
L 844.752384 400.417624 
L 848.107008 400.528652 
L 848.526336 400.552204 
L 852.3648 400.663232 
L 852.784128 400.686783 
L 857.299968 400.797811 
L 857.751552 400.824727 
L 858.65472 400.831456 
L 859.074048 400.855008 
L 864.751104 400.966036 
L 865.170432 400.989587 
L 872.395776 401.100615 
L 872.84736 401.127531 
L 873.944064 401.124167 
L 882.556416 401.235195 
L 882.975744 401.258746 
L 899.168256 401.255382 
L 899.200512 401.426971 
L 899.265024 401.255382 
L 899.490816 401.241924 
L 899.877888 401.248653 
L 947.52 401.258746 
L 947.52 401.258746 
" clip-path="url(#p23270a40c8)" style="fill: none; stroke: #ff00ff; stroke-width: 2; stroke-linecap: square"/>
   </g>
   <g id="patch_22">
    <path d="M 100.8 465.442759 
L 100.8 372.711724 
" style="fill: none; stroke: #bcbcbc; stroke-width: 0.8; stroke-linejoin: miter; stroke-linecap: square"/>
   </g>
   <g id="patch_23">
    <path d="M 987.84 465.442759 
L 987.84 372.711724 
" style="fill: none; stroke: #bcbcbc; stroke-width: 0.8; stroke-linejoin: miter; stroke-linecap: square"/>
   </g>
   <g id="patch_24">
    <path d="M 100.8 465.442759 
L 987.84 465.442759 
" style="fill: none; stroke: #bcbcbc; stroke-width: 0.8; stroke-linejoin: miter; stroke-linecap: square"/>
   </g>
   <g id="patch_25">
    <path d="M 100.8 372.711724 
L 987.84 372.711724 
" style="fill: none; stroke: #bcbcbc; stroke-width: 0.8; stroke-linejoin: miter; stroke-linecap: square"/>
   </g>
  </g>
  <g id="axes_5">
   <g id="patch_26">
    <path d="M 100.8 576.72 
L 987.84 576.72 
L 987.84 483.988966 
L 100.8 483.988966 
z
" style="fill: #eeeeee"/>
   </g>
   <g id="matplotlib.axis_9">
    <g id="xtick_25">
     <g id="line2d_75">
      <path d="M 141.12 576.72 
L 141.12 483.988966 
" clip-path="url(#p00e9f46a41)" style="fill: none; stroke-dasharray: 1.85,0.8; stroke-dashoffset: 0; stroke: #b2b2b2; stroke-width: 0.5"/>
     </g>
     <g id="line2d_76">
      <g>
       <use xlink:href="#mb898cc0295" x="141.12" y="576.72" style="stroke: #000000; stroke-width: 0.8"/>
      </g>
     </g>
     <g id="text_16">
      <!-- 0 s -->
      <g transform="translate(130.795 590.857813) scale(0.14 -0.14)">
       <defs>
        <path id="DejaVuSans-73" d="M 2834 3397 
L 2834 2853 
Q 2591 2978 2328 3040 
Q 2066 3103 1784 3103 
Q 1356 3103 1142 2972 
Q 928 2841 928 2578 
Q 928 2378 1081 2264 
Q 1234 2150 1697 2047 
L 1894 2003 
Q 2506 1872 2764 1633 
Q 3022 1394 3022 966 
Q 3022 478 2636 193 
Q 2250 -91 1575 -91 
Q 1294 -91 989 -36 
Q 684 19 347 128 
L 347 722 
Q 666 556 975 473 
Q 1284 391 1588 391 
Q 1994 391 2212 530 
Q 2431 669 2431 922 
Q 2431 1156 2273 1281 
Q 2116 1406 1581 1522 
L 1381 1569 
Q 847 1681 609 1914 
Q 372 2147 372 2553 
Q 372 3047 722 3315 
Q 1072 3584 1716 3584 
Q 2034 3584 2315 3537 
Q 2597 3491 2834 3397 
z
" transform="scale(0.015625)"/>
       </defs>
       <use xlink:href="#DejaVuSans-30"/>
       <use xlink:href="#DejaVuSans-20" x="63.623047"/>
       <use xlink:href="#DejaVuSans-73" x="95.410156"/>
      </g>
     </g>
    </g>
    <g id="xtick_26">
     <g id="line2d_77">
      <path d="M 302.4 576.72 
L 302.4 483.988966 
" clip-path="url(#p00e9f46a41)" style="fill: none; stroke-dasharray: 1.85,0.8; stroke-dashoffset: 0; stroke: #b2b2b2; stroke-width: 0.5"/>
     </g>
     <g id="line2d_78">
      <g>
       <use xlink:href="#mb898cc0295" x="302.4" y="576.72" style="stroke: #000000; stroke-width: 0.8"/>
      </g>
     </g>
     <g id="text_17">
      <!-- 50 ns -->
      <g transform="translate(283.185 590.857813) scale(0.14 -0.14)">
       <defs>
        <path id="DejaVuSans-35" d="M 691 4666 
L 3169 4666 
L 3169 4134 
L 1269 4134 
L 1269 2991 
Q 1406 3038 1543 3061 
Q 1681 3084 1819 3084 
Q 2600 3084 3056 2656 
Q 3513 2228 3513 1497 
Q 3513 744 3044 326 
Q 2575 -91 1722 -91 
Q 1428 -91 1123 -41 
Q 819 9 494 109 
L 494 744 
Q 775 591 1075 516 
Q 1375 441 1709 441 
Q 2250 441 2565 725 
Q 2881 1009 2881 1497 
Q 2881 1984 2565 2268 
Q 2250 2553 1709 2553 
Q 1456 2553 1204 2497 
Q 953 2441 691 2322 
L 691 4666 
z
" transform="scale(0.015625)"/>
        <path id="DejaVuSans-6e" d="M 3513 2113 
L 3513 0 
L 2938 0 
L 2938 2094 
Q 2938 2591 2744 2837 
Q 2550 3084 2163 3084 
Q 1697 3084 1428 2787 
Q 1159 2491 1159 1978 
L 1159 0 
L 581 0 
L 581 3500 
L 1159 3500 
L 1159 2956 
Q 1366 3272 1645 3428 
Q 1925 3584 2291 3584 
Q 2894 3584 3203 3211 
Q 3513 2838 3513 2113 
z
" transform="scale(0.015625)"/>
       </defs>
       <use xlink:href="#DejaVuSans-35"/>
       <use xlink:href="#DejaVuSans-30" x="63.623047"/>
       <use xlink:href="#DejaVuSans-20" x="127.246094"/>
       <use xlink:href="#DejaVuSans-6e" x="159.033203"/>
       <use xlink:href="#DejaVuSans-73" x="222.412109"/>
      </g>
     </g>
    </g>
    <g id="xtick_27">
     <g id="line2d_79">
      <path d="M 463.68 576.72 
L 463.68 483.988966 
" clip-path="url(#p00e9f46a41)" style="fill: none; stroke-dasharray: 1.85,0.8; stroke-dashoffset: 0; stroke: #b2b2b2; stroke-width: 0.5"/>
     </g>
     <g id="line2d_80">
      <g>
       <use xlink:href="#mb898cc0295" x="463.68" y="576.72" style="stroke: #000000; stroke-width: 0.8"/>
      </g>
     </g>
     <g id="text_18">
      <!-- 100 ns -->
      <g transform="translate(440.01125 590.857813) scale(0.14 -0.14)">
       <use xlink:href="#DejaVuSans-31"/>
       <use xlink:href="#DejaVuSans-30" x="63.623047"/>
       <use xlink:href="#DejaVuSans-30" x="127.246094"/>
       <use xlink:href="#DejaVuSans-20" x="190.869141"/>
       <use xlink:href="#DejaVuSans-6e" x="222.65625"/>
       <use xlink:href="#DejaVuSans-73" x="286.035156"/>
      </g>
     </g>
    </g>
    <g id="xtick_28">
     <g id="line2d_81">
      <path d="M 624.96 576.72 
L 624.96 483.988966 
" clip-path="url(#p00e9f46a41)" style="fill: none; stroke-dasharray: 1.85,0.8; stroke-dashoffset: 0; stroke: #b2b2b2; stroke-width: 0.5"/>
     </g>
     <g id="line2d_82">
      <g>
       <use xlink:href="#mb898cc0295" x="624.96" y="576.72" style="stroke: #000000; stroke-width: 0.8"/>
      </g>
     </g>
     <g id="text_19">
      <!-- 150 ns -->
      <g transform="translate(601.29125 590.857813) scale(0.14 -0.14)">
       <use xlink:href="#DejaVuSans-31"/>
       <use xlink:href="#DejaVuSans-35" x="63.623047"/>
       <use xlink:href="#DejaVuSans-30" x="127.246094"/>
       <use xlink:href="#DejaVuSans-20" x="190.869141"/>
       <use xlink:href="#DejaVuSans-6e" x="222.65625"/>
       <use xlink:href="#DejaVuSans-73" x="286.035156"/>
      </g>
     </g>
    </g>
    <g id="xtick_29">
     <g id="line2d_83">
      <path d="M 786.24 576.72 
L 786.24 483.988966 
" clip-path="url(#p00e9f46a41)" style="fill: none; stroke-dasharray: 1.85,0.8; stroke-dashoffset: 0; stroke: #b2b2b2; stroke-width: 0.5"/>
     </g>
     <g id="line2d_84">
      <g>
       <use xlink:href="#mb898cc0295" x="786.24" y="576.72" style="stroke: #000000; stroke-width: 0.8"/>
      </g>
     </g>
     <g id="text_20">
      <!-- 200 ns -->
      <g transform="translate(762.57125 590.857813) scale(0.14 -0.14)">
       <use xlink:href="#DejaVuSans-32"/>
       <use xlink:href="#DejaVuSans-30" x="63.623047"/>
       <use xlink:href="#DejaVuSans-30" x="127.246094"/>
       <use xlink:href="#DejaVuSans-20" x="190.869141"/>
       <use xlink:href="#DejaVuSans-6e" x="222.65625"/>
       <use xlink:href="#DejaVuSans-73" x="286.035156"/>
      </g>
     </g>
    </g>
    <g id="xtick_30">
     <g id="line2d_85">
      <path d="M 947.52 576.72 
L 947.52 483.988966 
" clip-path="url(#p00e9f46a41)" style="fill: none; stroke-dasharray: 1.85,0.8; stroke-dashoffset: 0; stroke: #b2b2b2; stroke-width: 0.5"/>
     </g>
     <g id="line2d_86">
      <g>
       <use xlink:href="#mb898cc0295" x="947.52" y="576.72" style="stroke: #000000; stroke-width: 0.8"/>
      </g>
     </g>
     <g id="text_21">
      <!-- 250 ns -->
      <g transform="translate(923.85125 590.857813) scale(0.14 -0.14)">
       <use xlink:href="#DejaVuSans-32"/>
       <use xlink:href="#DejaVuSans-35" x="63.623047"/>
       <use xlink:href="#DejaVuSans-30" x="127.246094"/>
       <use xlink:href="#DejaVuSans-20" x="190.869141"/>
       <use xlink:href="#DejaVuSans-6e" x="222.65625"/>
       <use xlink:href="#DejaVuSans-73" x="286.035156"/>
      </g>
     </g>
    </g>
    <g id="text_22">
     <!-- Time -->
     <g transform="translate(527.192969 608.407187) scale(0.14 -0.14)">
      <defs>
       <path id="DejaVuSans-69" d="M 603 3500 
L 1178 3500 
L 1178 0 
L 603 0 
L 603 3500 
z
M 603 4863 
L 1178 4863 
L 1178 4134 
L 603 4134 
L 603 4863 
z
" transform="scale(0.015625)"/>
       <path id="DejaVuSans-6d" d="M 3328 2828 
Q 3544 3216 3844 3400 
Q 4144 3584 4550 3584 
Q 5097 3584 5394 3201 
Q 5691 2819 5691 2113 
L 5691 0 
L 5113 0 
L 5113 2094 
Q 5113 2597 4934 2840 
Q 4756 3084 4391 3084 
Q 3944 3084 3684 2787 
Q 3425 2491 3425 1978 
L 3425 0 
L 2847 0 
L 2847 2094 
Q 2847 2600 2669 2842 
Q 2491 3084 2119 3084 
Q 1678 3084 1418 2786 
Q 1159 2488 1159 1978 
L 1159 0 
L 581 0 
L 581 3500 
L 1159 3500 
L 1159 2956 
Q 1356 3278 1631 3431 
Q 1906 3584 2284 3584 
Q 2666 3584 2933 3390 
Q 3200 3197 3328 2828 
z
" transform="scale(0.015625)"/>
       <path id="DejaVuSans-65" d="M 3597 1894 
L 3597 1613 
L 953 1613 
Q 991 1019 1311 708 
Q 1631 397 2203 397 
Q 2534 397 2845 478 
Q 3156 559 3463 722 
L 3463 178 
Q 3153 47 2828 -22 
Q 2503 -91 2169 -91 
Q 1331 -91 842 396 
Q 353 884 353 1716 
Q 353 2575 817 3079 
Q 1281 3584 2069 3584 
Q 2775 3584 3186 3129 
Q 3597 2675 3597 1894 
z
M 3022 2063 
Q 3016 2534 2758 2815 
Q 2500 3097 2075 3097 
Q 1594 3097 1305 2825 
Q 1016 2553 972 2059 
L 3022 2063 
z
" transform="scale(0.015625)"/>
      </defs>
      <use xlink:href="#DejaVuSans-54"/>
      <use xlink:href="#DejaVuSans-69" x="57.958984"/>
      <use xlink:href="#DejaVuSans-6d" x="85.742188"/>
      <use xlink:href="#DejaVuSans-65" x="183.154297"/>
     </g>
    </g>
   </g>
   <g id="matplotlib.axis_10">
    <g id="ytick_12">
     <g id="line2d_87">
      <path d="M 100.8 569.745885 
L 987.84 569.745885 
" clip-path="url(#p00e9f46a41)" style="fill: none; stroke-dasharray: 1.85,0.8; stroke-dashoffset: 0; stroke: #b2b2b2; stroke-width: 0.5"/>
     </g>
     <g id="line2d_88">
      <g>
       <use xlink:href="#m7b7f5e1026" x="100.8" y="569.745885" style="stroke: #000000; stroke-width: 0.8"/>
      </g>
     </g>
     <g id="text_23">
      <!-- 0 V -->
      <g transform="translate(74.36625 575.064792) scale(0.14 -0.14)">
       <use xlink:href="#DejaVuSans-30"/>
       <use xlink:href="#DejaVuSans-20" x="63.623047"/>
       <use xlink:href="#DejaVuSans-56" x="95.410156"/>
      </g>
     </g>
    </g>
    <g id="ytick_13">
     <g id="line2d_89">
      <path d="M 100.8 535.950348 
L 987.84 535.950348 
" clip-path="url(#p00e9f46a41)" style="fill: none; stroke-dasharray: 1.85,0.8; stroke-dashoffset: 0; stroke: #b2b2b2; stroke-width: 0.5"/>
     </g>
     <g id="line2d_90">
      <g>
       <use xlink:href="#m7b7f5e1026" x="100.8" y="535.950348" style="stroke: #000000; stroke-width: 0.8"/>
      </g>
     </g>
     <g id="text_24">
      <!-- 500 mV -->
      <g transform="translate(42.914375 541.269254) scale(0.14 -0.14)">
       <use xlink:href="#DejaVuSans-35"/>
       <use xlink:href="#DejaVuSans-30" x="63.623047"/>
       <use xlink:href="#DejaVuSans-30" x="127.246094"/>
       <use xlink:href="#DejaVuSans-20" x="190.869141"/>
       <use xlink:href="#DejaVuSans-6d" x="222.65625"/>
       <use xlink:href="#DejaVuSans-56" x="320.068359"/>
      </g>
     </g>
    </g>
    <g id="ytick_14">
     <g id="line2d_91">
      <path d="M 100.8 502.15481 
L 987.84 502.15481 
" clip-path="url(#p00e9f46a41)" style="fill: none; stroke-dasharray: 1.85,0.8; stroke-dashoffset: 0; stroke: #b2b2b2; stroke-width: 0.5"/>
     </g>
     <g id="line2d_92">
      <g>
       <use xlink:href="#m7b7f5e1026" x="100.8" y="502.15481" style="stroke: #000000; stroke-width: 0.8"/>
      </g>
     </g>
     <g id="text_25">
      <!-- 1 V -->
      <g transform="translate(74.36625 507.473717) scale(0.14 -0.14)">
       <use xlink:href="#DejaVuSans-31"/>
       <use xlink:href="#DejaVuSans-20" x="63.623047"/>
       <use xlink:href="#DejaVuSans-56" x="95.410156"/>
      </g>
     </g>
    </g>
    <g id="text_26">
     <g id="patch_27">
      <path d="M 34.8768 554.329483 
L 34.8768 506.379483 
L 11.247425 506.379483 
L 11.247425 554.329483 
z
" style="fill: #ffff00; opacity: 0.2; stroke: #eeeeee; stroke-width: 0.5; stroke-linejoin: miter"/>
     </g>
     <!-- FOUT -->
     <g transform="translate(26.925238 549.289483) rotate(-90) scale(0.14 -0.14)">
      <use xlink:href="#DejaVuSans-46"/>
      <use xlink:href="#DejaVuSans-4f" x="57.519531"/>
      <use xlink:href="#DejaVuSans-55" x="136.230469"/>
      <use xlink:href="#DejaVuSans-54" x="209.423828"/>
     </g>
    </g>
   </g>
   <g id="line2d_93">
    <path d="M 141.12 488.636595 
L 173.472768 488.643355 
L 173.505024 488.44734 
L 173.569536 526.789729 
L 173.69856 572.504953 
L 173.730816 572.3695 
L 173.827584 567.842115 
L 173.892096 569.3609 
L 174.053376 570.064192 
L 174.117888 569.946665 
L 174.408192 569.492054 
L 174.440448 569.54151 
L 174.66624 569.729954 
L 176.182272 569.740151 
L 180.117504 569.761449 
L 193.568256 569.752159 
L 212.954112 569.74401 
L 255.30624 569.743704 
L 255.6288 488.52845 
L 255.854592 488.670391 
L 256.209408 488.629836 
L 334.849536 488.650114 
L 334.881792 492.854278 
L 335.043072 572.18376 
L 335.107584 570.261206 
L 335.172096 568.338639 
L 335.236608 568.870108 
L 335.365632 570.783003 
L 335.430144 570.410083 
L 335.591424 569.797213 
L 335.881728 569.648439 
L 336.559104 569.817924 
L 337.107456 569.746143 
L 350.009856 569.744206 
L 416.489472 569.74333 
L 416.553984 567.480841 
L 416.812032 488.204013 
L 416.844288 488.339195 
L 416.973312 488.852887 
L 417.037824 488.778537 
L 417.39264 488.548727 
L 417.844224 488.717705 
L 418.457088 488.562245 
L 419.328 488.636595 
L 655.732224 488.569004 
L 655.76448 488.4541 
L 655.796736 488.514931 
L 655.828992 492.428455 
L 655.990272 570.258543 
L 656.054784 569.73669 
L 656.280576 569.743906 
L 680.27904 569.744204 
L 702.277632 569.727417 
L 702.309888 567.749786 
L 702.664704 488.643355 
L 739.30752 488.643355 
L 739.339776 493.422044 
L 739.533312 569.761414 
L 739.95264 569.744212 
L 819.657216 569.724738 
L 819.721728 562.519048 
L 819.915264 488.940755 
L 820.076544 488.636595 
L 947.52 488.636595 
L 947.52 488.636595 
" clip-path="url(#p00e9f46a41)" style="fill: none; stroke: #ff00ff; stroke-width: 2; stroke-linecap: square"/>
   </g>
   <g id="patch_28">
    <path d="M 100.8 576.72 
L 100.8 483.988966 
" style="fill: none; stroke: #bcbcbc; stroke-width: 0.8; stroke-linejoin: miter; stroke-linecap: square"/>
   </g>
   <g id="patch_29">
    <path d="M 987.84 576.72 
L 987.84 483.988966 
" style="fill: none; stroke: #bcbcbc; stroke-width: 0.8; stroke-linejoin: miter; stroke-linecap: square"/>
   </g>
   <g id="patch_30">
    <path d="M 100.8 576.72 
L 987.84 576.72 
" style="fill: none; stroke: #bcbcbc; stroke-width: 0.8; stroke-linejoin: miter; stroke-linecap: square"/>
   </g>
   <g id="patch_31">
    <path d="M 100.8 483.988966 
L 987.84 483.988966 
" style="fill: none; stroke: #bcbcbc; stroke-width: 0.8; stroke-linejoin: miter; stroke-linecap: square"/>
   </g>
  </g>
  <g id="axes_6">
   <g id="patch_32">
    <path d="M 201.6 628.56 
L 856.8 628.56 
L 856.8 615.6 
L 201.6 615.6 
z
" clip-path="url(#p9b5a5998a8)" style="fill: #d3d3d3"/>
   </g>
   <g id="patch_33">
    <path d="M 201.6 628.56 
L 856.8 628.56 
L 856.8 615.6 
L 201.6 615.6 
z
" clip-path="url(#p9b5a5998a8)" style="fill: #0000ff"/>
   </g>
   <g id="line2d_94">
    <path d="M 201.6 635.04 
L 201.6 609.12 
" clip-path="url(#p540fbd4a12)" style="fill: none; stroke: #ff0000; stroke-linecap: square"/>
   </g>
   <g id="line2d_95">
    <defs>
     <path id="m4705db7a2d" d="M 0 5 
C 1.326016 5 2.597899 4.473168 3.535534 3.535534 
C 4.473168 2.597899 5 1.326016 5 0 
C 5 -1.326016 4.473168 -2.597899 3.535534 -3.535534 
C 2.597899 -4.473168 1.326016 -5 0 -5 
C -1.326016 -5 -2.597899 -4.473168 -3.535534 -3.535534 
C -4.473168 -2.597899 -5 -1.326016 -5 0 
C -5 1.326016 -4.473168 2.597899 -3.535534 3.535534 
C -2.597899 4.473168 -1.326016 5 0 5 
z
" style="stroke: #bfbfbf"/>
    </defs>
    <g>
     <use xlink:href="#m4705db7a2d" x="856.8" y="622.08" style="fill: #ffffff; stroke: #bfbfbf"/>
    </g>
   </g>
   <g id="text_27">
    <!-- #Sweep -->
    <g transform="translate(138.622875 625.39125) scale(0.12 -0.12)">
     <defs>
      <path id="DejaVuSans-23" d="M 3272 2816 
L 2363 2816 
L 2100 1772 
L 3016 1772 
L 3272 2816 
z
M 2803 4594 
L 2478 3297 
L 3391 3297 
L 3719 4594 
L 4219 4594 
L 3897 3297 
L 4872 3297 
L 4872 2816 
L 3775 2816 
L 3519 1772 
L 4513 1772 
L 4513 1294 
L 3397 1294 
L 3072 0 
L 2572 0 
L 2894 1294 
L 1978 1294 
L 1656 0 
L 1153 0 
L 1478 1294 
L 494 1294 
L 494 1772 
L 1594 1772 
L 1856 2816 
L 850 2816 
L 850 3297 
L 1978 3297 
L 2297 4594 
L 2803 4594 
z
" transform="scale(0.015625)"/>
      <path id="DejaVuSans-77" d="M 269 3500 
L 844 3500 
L 1563 769 
L 2278 3500 
L 2956 3500 
L 3675 769 
L 4391 3500 
L 4966 3500 
L 4050 0 
L 3372 0 
L 2619 2869 
L 1863 0 
L 1184 0 
L 269 3500 
z
" transform="scale(0.015625)"/>
      <path id="DejaVuSans-70" d="M 1159 525 
L 1159 -1331 
L 581 -1331 
L 581 3500 
L 1159 3500 
L 1159 2969 
Q 1341 3281 1617 3432 
Q 1894 3584 2278 3584 
Q 2916 3584 3314 3078 
Q 3713 2572 3713 1747 
Q 3713 922 3314 415 
Q 2916 -91 2278 -91 
Q 1894 -91 1617 61 
Q 1341 213 1159 525 
z
M 3116 1747 
Q 3116 2381 2855 2742 
Q 2594 3103 2138 3103 
Q 1681 3103 1420 2742 
Q 1159 2381 1159 1747 
Q 1159 1113 1420 752 
Q 1681 391 2138 391 
Q 2594 391 2855 752 
Q 3116 1113 3116 1747 
z
" transform="scale(0.015625)"/>
     </defs>
     <use xlink:href="#DejaVuSans-23"/>
     <use xlink:href="#DejaVuSans-53" x="83.789062"/>
     <use xlink:href="#DejaVuSans-77" x="147.265625"/>
     <use xlink:href="#DejaVuSans-65" x="229.052734"/>
     <use xlink:href="#DejaVuSans-65" x="290.576172"/>
     <use xlink:href="#DejaVuSans-70" x="352.099609"/>
    </g>
   </g>
   <g id="text_28">
    <!-- $\mathdefault{140}$ -->
    <g transform="translate(869.904 625.39125) scale(0.12 -0.12)">
     <defs>
      <path id="DejaVuSans-34" d="M 2419 4116 
L 825 1625 
L 2419 1625 
L 2419 4116 
z
M 2253 4666 
L 3047 4666 
L 3047 1625 
L 3713 1625 
L 3713 1100 
L 3047 1100 
L 3047 0 
L 2419 0 
L 2419 1100 
L 313 1100 
L 313 1709 
L 2253 4666 
z
" transform="scale(0.015625)"/>
     </defs>
     <use xlink:href="#DejaVuSans-31" transform="translate(0 0.78125)"/>
     <use xlink:href="#DejaVuSans-34" transform="translate(63.623047 0.78125)"/>
     <use xlink:href="#DejaVuSans-30" transform="translate(127.246094 0.78125)"/>
    </g>
   </g>
  </g>
  <g id="text_29">
   <!-- DFF under BBI sweep analysis (Sweep = 150E-9) -->
   <g transform="translate(308.25625 25.1175) scale(0.16 -0.16)">
    <defs>
     <path id="DejaVuSans-75" d="M 544 1381 
L 544 3500 
L 1119 3500 
L 1119 1403 
Q 1119 906 1312 657 
Q 1506 409 1894 409 
Q 2359 409 2629 706 
Q 2900 1003 2900 1516 
L 2900 3500 
L 3475 3500 
L 3475 0 
L 2900 0 
L 2900 538 
Q 2691 219 2414 64 
Q 2138 -91 1772 -91 
Q 1169 -91 856 284 
Q 544 659 544 1381 
z
M 1991 3584 
L 1991 3584 
z
" transform="scale(0.015625)"/>
     <path id="DejaVuSans-64" d="M 2906 2969 
L 2906 4863 
L 3481 4863 
L 3481 0 
L 2906 0 
L 2906 525 
Q 2725 213 2448 61 
Q 2172 -91 1784 -91 
Q 1150 -91 751 415 
Q 353 922 353 1747 
Q 353 2572 751 3078 
Q 1150 3584 1784 3584 
Q 2172 3584 2448 3432 
Q 2725 3281 2906 2969 
z
M 947 1747 
Q 947 1113 1208 752 
Q 1469 391 1925 391 
Q 2381 391 2643 752 
Q 2906 1113 2906 1747 
Q 2906 2381 2643 2742 
Q 2381 3103 1925 3103 
Q 1469 3103 1208 2742 
Q 947 2381 947 1747 
z
" transform="scale(0.015625)"/>
     <path id="DejaVuSans-72" d="M 2631 2963 
Q 2534 3019 2420 3045 
Q 2306 3072 2169 3072 
Q 1681 3072 1420 2755 
Q 1159 2438 1159 1844 
L 1159 0 
L 581 0 
L 581 3500 
L 1159 3500 
L 1159 2956 
Q 1341 3275 1631 3429 
Q 1922 3584 2338 3584 
Q 2397 3584 2469 3576 
Q 2541 3569 2628 3553 
L 2631 2963 
z
" transform="scale(0.015625)"/>
     <path id="DejaVuSans-61" d="M 2194 1759 
Q 1497 1759 1228 1600 
Q 959 1441 959 1056 
Q 959 750 1161 570 
Q 1363 391 1709 391 
Q 2188 391 2477 730 
Q 2766 1069 2766 1631 
L 2766 1759 
L 2194 1759 
z
M 3341 1997 
L 3341 0 
L 2766 0 
L 2766 531 
Q 2569 213 2275 61 
Q 1981 -91 1556 -91 
Q 1019 -91 701 211 
Q 384 513 384 1019 
Q 384 1609 779 1909 
Q 1175 2209 1959 2209 
L 2766 2209 
L 2766 2266 
Q 2766 2663 2505 2880 
Q 2244 3097 1772 3097 
Q 1472 3097 1187 3025 
Q 903 2953 641 2809 
L 641 3341 
Q 956 3463 1253 3523 
Q 1550 3584 1831 3584 
Q 2591 3584 2966 3190 
Q 3341 2797 3341 1997 
z
" transform="scale(0.015625)"/>
     <path id="DejaVuSans-6c" d="M 603 4863 
L 1178 4863 
L 1178 0 
L 603 0 
L 603 4863 
z
" transform="scale(0.015625)"/>
     <path id="DejaVuSans-79" d="M 2059 -325 
Q 1816 -950 1584 -1140 
Q 1353 -1331 966 -1331 
L 506 -1331 
L 506 -850 
L 844 -850 
Q 1081 -850 1212 -737 
Q 1344 -625 1503 -206 
L 1606 56 
L 191 3500 
L 800 3500 
L 1894 763 
L 2988 3500 
L 3597 3500 
L 2059 -325 
z
" transform="scale(0.015625)"/>
     <path id="DejaVuSans-28" d="M 1984 4856 
Q 1566 4138 1362 3434 
Q 1159 2731 1159 2009 
Q 1159 1288 1364 580 
Q 1569 -128 1984 -844 
L 1484 -844 
Q 1016 -109 783 600 
Q 550 1309 550 2009 
Q 550 2706 781 3412 
Q 1013 4119 1484 4856 
L 1984 4856 
z
" transform="scale(0.015625)"/>
     <path id="DejaVuSans-3d" d="M 678 2906 
L 4684 2906 
L 4684 2381 
L 678 2381 
L 678 2906 
z
M 678 1631 
L 4684 1631 
L 4684 1100 
L 678 1100 
L 678 1631 
z
" transform="scale(0.015625)"/>
     <path id="DejaVuSans-2d" d="M 313 2009 
L 1997 2009 
L 1997 1497 
L 313 1497 
L 313 2009 
z
" transform="scale(0.015625)"/>
     <path id="DejaVuSans-39" d="M 703 97 
L 703 672 
Q 941 559 1184 500 
Q 1428 441 1663 441 
Q 2288 441 2617 861 
Q 2947 1281 2994 2138 
Q 2813 1869 2534 1725 
Q 2256 1581 1919 1581 
Q 1219 1581 811 2004 
Q 403 2428 403 3163 
Q 403 3881 828 4315 
Q 1253 4750 1959 4750 
Q 2769 4750 3195 4129 
Q 3622 3509 3622 2328 
Q 3622 1225 3098 567 
Q 2575 -91 1691 -91 
Q 1453 -91 1209 -44 
Q 966 3 703 97 
z
M 1959 2075 
Q 2384 2075 2632 2365 
Q 2881 2656 2881 3163 
Q 2881 3666 2632 3958 
Q 2384 4250 1959 4250 
Q 1534 4250 1286 3958 
Q 1038 3666 1038 3163 
Q 1038 2656 1286 2365 
Q 1534 2075 1959 2075 
z
" transform="scale(0.015625)"/>
     <path id="DejaVuSans-29" d="M 513 4856 
L 1013 4856 
Q 1481 4119 1714 3412 
Q 1947 2706 1947 2009 
Q 1947 1309 1714 600 
Q 1481 -109 1013 -844 
L 513 -844 
Q 928 -128 1133 580 
Q 1338 1288 1338 2009 
Q 1338 2731 1133 3434 
Q 928 4138 513 4856 
z
" transform="scale(0.015625)"/>
    </defs>
    <use xlink:href="#DejaVuSans-44"/>
    <use xlink:href="#DejaVuSans-46" x="77.001953"/>
    <use xlink:href="#DejaVuSans-46" x="134.521484"/>
    <use xlink:href="#DejaVuSans-20" x="192.041016"/>
    <use xlink:href="#DejaVuSans-75" x="223.828125"/>
    <use xlink:href="#DejaVuSans-6e" x="287.207031"/>
    <use xlink:href="#DejaVuSans-64" x="350.585938"/>
    <use xlink:href="#DejaVuSans-65" x="414.0625"/>
    <use xlink:href="#DejaVuSans-72" x="475.585938"/>
    <use xlink:href="#DejaVuSans-20" x="516.699219"/>
    <use xlink:href="#DejaVuSans-42" x="548.486328"/>
    <use xlink:href="#DejaVuSans-42" x="617.089844"/>
    <use xlink:href="#DejaVuSans-49" x="685.693359"/>
    <use xlink:href="#DejaVuSans-20" x="715.185547"/>
    <use xlink:href="#DejaVuSans-73" x="746.972656"/>
    <use xlink:href="#DejaVuSans-77" x="799.072266"/>
    <use xlink:href="#DejaVuSans-65" x="880.859375"/>
    <use xlink:href="#DejaVuSans-65" x="942.382812"/>
    <use xlink:href="#DejaVuSans-70" x="1003.90625"/>
    <use xlink:href="#DejaVuSans-20" x="1067.382812"/>
    <use xlink:href="#DejaVuSans-61" x="1099.169922"/>
    <use xlink:href="#DejaVuSans-6e" x="1160.449219"/>
    <use xlink:href="#DejaVuSans-61" x="1223.828125"/>
    <use xlink:href="#DejaVuSans-6c" x="1285.107422"/>
    <use xlink:href="#DejaVuSans-79" x="1312.890625"/>
    <use xlink:href="#DejaVuSans-73" x="1372.070312"/>
    <use xlink:href="#DejaVuSans-69" x="1424.169922"/>
    <use xlink:href="#DejaVuSans-73" x="1451.953125"/>
    <use xlink:href="#DejaVuSans-20" x="1504.052734"/>
    <use xlink:href="#DejaVuSans-28" x="1535.839844"/>
    <use xlink:href="#DejaVuSans-53" x="1574.853516"/>
    <use xlink:href="#DejaVuSans-77" x="1638.330078"/>
    <use xlink:href="#DejaVuSans-65" x="1720.117188"/>
    <use xlink:href="#DejaVuSans-65" x="1781.640625"/>
    <use xlink:href="#DejaVuSans-70" x="1843.164062"/>
    <use xlink:href="#DejaVuSans-20" x="1906.640625"/>
    <use xlink:href="#DejaVuSans-3d" x="1938.427734"/>
    <use xlink:href="#DejaVuSans-20" x="2022.216797"/>
    <use xlink:href="#DejaVuSans-31" x="2054.003906"/>
    <use xlink:href="#DejaVuSans-35" x="2117.626953"/>
    <use xlink:href="#DejaVuSans-30" x="2181.25"/>
    <use xlink:href="#DejaVuSans-45" x="2244.873047"/>
    <use xlink:href="#DejaVuSans-2d" x="2308.056641"/>
    <use xlink:href="#DejaVuSans-39" x="2344.140625"/>
    <use xlink:href="#DejaVuSans-29" x="2407.763672"/>
   </g>
  </g>
 </g>
 <defs>
  <clipPath id="p53673bff16">
   <rect x="100.8" y="38.88" width="887.04" height="92.731034"/>
  </clipPath>
  <clipPath id="p5e4e997815">
   <rect x="100.8" y="150.157241" width="887.04" height="92.731034"/>
  </clipPath>
  <clipPath id="pe7a4e7cba0">
   <rect x="100.8" y="261.434483" width="887.04" height="92.731034"/>
  </clipPath>
  <clipPath id="p23270a40c8">
   <rect x="100.8" y="372.711724" width="887.04" height="92.731034"/>
  </clipPath>
  <clipPath id="p00e9f46a41">
   <rect x="100.8" y="483.988966" width="887.04" height="92.731034"/>
  </clipPath>
  <clipPath id="p9b5a5998a8">
   <rect x="201.6" y="609.12" width="655.2" height="25.92"/>
  </clipPath>
  <clipPath id="p540fbd4a12">
   <path d="M 201.6 628.56 
L 856.8 628.56 
L 856.8 615.6 
L 201.6 615.6 
z
"/>
  </clipPath>
 </defs>
</svg>
