<?xml version="1.0" encoding="utf-8" standalone="no"?>
<!DOCTYPE svg PUBLIC "-//W3C//DTD SVG 1.1//EN"
  "http://www.w3.org/Graphics/SVG/1.1/DTD/svg11.dtd">
<svg xmlns:xlink="http://www.w3.org/1999/xlink" width="1008pt" height="648pt" viewBox="0 0 1008 648" xmlns="http://www.w3.org/2000/svg" version="1.1">
 <metadata>
  <rdf:RDF xmlns:dc="http://purl.org/dc/elements/1.1/" xmlns:cc="http://creativecommons.org/ns#" xmlns:rdf="http://www.w3.org/1999/02/22-rdf-syntax-ns#">
   <cc:Work>
    <dc:type rdf:resource="http://purl.org/dc/dcmitype/StillImage"/>
    <dc:date>2024-06-03T10:45:50.151930</dc:date>
    <dc:format>image/svg+xml</dc:format>
    <dc:creator>
     <cc:Agent>
      <dc:title>Matplotlib v3.9.0, https://matplotlib.org/</dc:title>
     </cc:Agent>
    </dc:creator>
   </cc:Work>
  </rdf:RDF>
 </metadata>
 <defs>
  <style type="text/css">*{stroke-linejoin: round; stroke-linecap: butt}</style>
 </defs>
 <g id="figure_1">
  <g id="patch_1">
   <path d="M 0 648 
L 1008 648 
L 1008 0 
L 0 0 
z
" style="fill: #ffffff"/>
  </g>
  <g id="axes_1">
   <g id="patch_2">
    <path d="M 100.8 131.611034 
L 987.84 131.611034 
L 987.84 38.88 
L 100.8 38.88 
z
" style="fill: #eeeeee"/>
   </g>
   <g id="matplotlib.axis_1">
    <g id="xtick_1">
     <g id="line2d_1">
      <path d="M 141.12 131.611034 
L 141.12 38.88 
" clip-path="url(#p348457b4e0)" style="fill: none; stroke-dasharray: 1.85,0.8; stroke-dashoffset: 0; stroke: #b2b2b2; stroke-width: 0.5"/>
     </g>
     <g id="line2d_2">
      <defs>
       <path id="m00f12d51bd" d="M 0 0 
L 0 -3.5 
" style="stroke: #000000; stroke-width: 0.8"/>
      </defs>
      <g>
       <use xlink:href="#m00f12d51bd" x="141.12" y="131.611034" style="stroke: #000000; stroke-width: 0.8"/>
      </g>
     </g>
    </g>
    <g id="xtick_2">
     <g id="line2d_3">
      <path d="M 302.4 131.611034 
L 302.4 38.88 
" clip-path="url(#p348457b4e0)" style="fill: none; stroke-dasharray: 1.85,0.8; stroke-dashoffset: 0; stroke: #b2b2b2; stroke-width: 0.5"/>
     </g>
     <g id="line2d_4">
      <g>
       <use xlink:href="#m00f12d51bd" x="302.4" y="131.611034" style="stroke: #000000; stroke-width: 0.8"/>
      </g>
     </g>
    </g>
    <g id="xtick_3">
     <g id="line2d_5">
      <path d="M 463.68 131.611034 
L 463.68 38.88 
" clip-path="url(#p348457b4e0)" style="fill: none; stroke-dasharray: 1.85,0.8; stroke-dashoffset: 0; stroke: #b2b2b2; stroke-width: 0.5"/>
     </g>
     <g id="line2d_6">
      <g>
       <use xlink:href="#m00f12d51bd" x="463.68" y="131.611034" style="stroke: #000000; stroke-width: 0.8"/>
      </g>
     </g>
    </g>
    <g id="xtick_4">
     <g id="line2d_7">
      <path d="M 624.96 131.611034 
L 624.96 38.88 
" clip-path="url(#p348457b4e0)" style="fill: none; stroke-dasharray: 1.85,0.8; stroke-dashoffset: 0; stroke: #b2b2b2; stroke-width: 0.5"/>
     </g>
     <g id="line2d_8">
      <g>
       <use xlink:href="#m00f12d51bd" x="624.96" y="131.611034" style="stroke: #000000; stroke-width: 0.8"/>
      </g>
     </g>
    </g>
    <g id="xtick_5">
     <g id="line2d_9">
      <path d="M 786.24 131.611034 
L 786.24 38.88 
" clip-path="url(#p348457b4e0)" style="fill: none; stroke-dasharray: 1.85,0.8; stroke-dashoffset: 0; stroke: #b2b2b2; stroke-width: 0.5"/>
     </g>
     <g id="line2d_10">
      <g>
       <use xlink:href="#m00f12d51bd" x="786.24" y="131.611034" style="stroke: #000000; stroke-width: 0.8"/>
      </g>
     </g>
    </g>
    <g id="xtick_6">
     <g id="line2d_11">
      <path d="M 947.52 131.611034 
L 947.52 38.88 
" clip-path="url(#p348457b4e0)" style="fill: none; stroke-dasharray: 1.85,0.8; stroke-dashoffset: 0; stroke: #b2b2b2; stroke-width: 0.5"/>
     </g>
     <g id="line2d_12">
      <g>
       <use xlink:href="#m00f12d51bd" x="947.52" y="131.611034" style="stroke: #000000; stroke-width: 0.8"/>
      </g>
     </g>
    </g>
   </g>
   <g id="matplotlib.axis_2">
    <g id="ytick_1">
     <g id="line2d_13">
      <path d="M 100.8 98.340394 
L 987.84 98.340394 
" clip-path="url(#p348457b4e0)" style="fill: none; stroke-dasharray: 1.85,0.8; stroke-dashoffset: 0; stroke: #b2b2b2; stroke-width: 0.5"/>
     </g>
     <g id="line2d_14">
      <defs>
       <path id="meab18e7564" d="M 0 0 
L 3.5 0 
" style="stroke: #000000; stroke-width: 0.8"/>
      </defs>
      <g>
       <use xlink:href="#meab18e7564" x="100.8" y="98.340394" style="stroke: #000000; stroke-width: 0.8"/>
      </g>
     </g>
     <g id="text_1">
      <!-- −200 V -->
      <g transform="translate(44.819688 103.6593) scale(0.14 -0.14)">
       <defs>
        <path id="DejaVuSans-2212" d="M 678 2272 
L 4684 2272 
L 4684 1741 
L 678 1741 
L 678 2272 
z
" transform="scale(0.015625)"/>
        <path id="DejaVuSans-32" d="M 1228 531 
L 3431 531 
L 3431 0 
L 469 0 
L 469 531 
Q 828 903 1448 1529 
Q 2069 2156 2228 2338 
Q 2531 2678 2651 2914 
Q 2772 3150 2772 3378 
Q 2772 3750 2511 3984 
Q 2250 4219 1831 4219 
Q 1534 4219 1204 4116 
Q 875 4013 500 3803 
L 500 4441 
Q 881 4594 1212 4672 
Q 1544 4750 1819 4750 
Q 2544 4750 2975 4387 
Q 3406 4025 3406 3419 
Q 3406 3131 3298 2873 
Q 3191 2616 2906 2266 
Q 2828 2175 2409 1742 
Q 1991 1309 1228 531 
z
" transform="scale(0.015625)"/>
        <path id="DejaVuSans-30" d="M 2034 4250 
Q 1547 4250 1301 3770 
Q 1056 3291 1056 2328 
Q 1056 1369 1301 889 
Q 1547 409 2034 409 
Q 2525 409 2770 889 
Q 3016 1369 3016 2328 
Q 3016 3291 2770 3770 
Q 2525 4250 2034 4250 
z
M 2034 4750 
Q 2819 4750 3233 4129 
Q 3647 3509 3647 2328 
Q 3647 1150 3233 529 
Q 2819 -91 2034 -91 
Q 1250 -91 836 529 
Q 422 1150 422 2328 
Q 422 3509 836 4129 
Q 1250 4750 2034 4750 
z
" transform="scale(0.015625)"/>
        <path id="DejaVuSans-20" transform="scale(0.015625)"/>
        <path id="DejaVuSans-56" d="M 1831 0 
L 50 4666 
L 709 4666 
L 2188 738 
L 3669 4666 
L 4325 4666 
L 2547 0 
L 1831 0 
z
" transform="scale(0.015625)"/>
       </defs>
       <use xlink:href="#DejaVuSans-2212"/>
       <use xlink:href="#DejaVuSans-32" x="83.789062"/>
       <use xlink:href="#DejaVuSans-30" x="147.412109"/>
       <use xlink:href="#DejaVuSans-30" x="211.035156"/>
       <use xlink:href="#DejaVuSans-20" x="274.658203"/>
       <use xlink:href="#DejaVuSans-56" x="306.445312"/>
      </g>
     </g>
    </g>
    <g id="ytick_2">
     <g id="line2d_15">
      <path d="M 100.8 45.027377 
L 987.84 45.027377 
" clip-path="url(#p348457b4e0)" style="fill: none; stroke-dasharray: 1.85,0.8; stroke-dashoffset: 0; stroke: #b2b2b2; stroke-width: 0.5"/>
     </g>
     <g id="line2d_16">
      <g>
       <use xlink:href="#meab18e7564" x="100.8" y="45.027377" style="stroke: #000000; stroke-width: 0.8"/>
      </g>
     </g>
     <g id="text_2">
      <!-- 0 V -->
      <g transform="translate(74.36625 50.346284) scale(0.14 -0.14)">
       <use xlink:href="#DejaVuSans-30"/>
       <use xlink:href="#DejaVuSans-20" x="63.623047"/>
       <use xlink:href="#DejaVuSans-56" x="95.410156"/>
      </g>
     </g>
    </g>
    <g id="text_3">
     <g id="patch_3">
      <path d="M 34.8768 131.080205 
L 34.8768 39.41083 
L 11.247425 39.41083 
L 11.247425 131.080205 
z
" style="fill: #ffff00; opacity: 0.2; stroke: #eeeeee; stroke-width: 0.5; stroke-linejoin: miter"/>
     </g>
     <!-- VPULSE BBI -->
     <g transform="translate(26.925238 126.040205) rotate(-90) scale(0.14 -0.14)">
      <defs>
       <path id="DejaVuSans-50" d="M 1259 4147 
L 1259 2394 
L 2053 2394 
Q 2494 2394 2734 2622 
Q 2975 2850 2975 3272 
Q 2975 3691 2734 3919 
Q 2494 4147 2053 4147 
L 1259 4147 
z
M 628 4666 
L 2053 4666 
Q 2838 4666 3239 4311 
Q 3641 3956 3641 3272 
Q 3641 2581 3239 2228 
Q 2838 1875 2053 1875 
L 1259 1875 
L 1259 0 
L 628 0 
L 628 4666 
z
" transform="scale(0.015625)"/>
       <path id="DejaVuSans-55" d="M 556 4666 
L 1191 4666 
L 1191 1831 
Q 1191 1081 1462 751 
Q 1734 422 2344 422 
Q 2950 422 3222 751 
Q 3494 1081 3494 1831 
L 3494 4666 
L 4128 4666 
L 4128 1753 
Q 4128 841 3676 375 
Q 3225 -91 2344 -91 
Q 1459 -91 1007 375 
Q 556 841 556 1753 
L 556 4666 
z
" transform="scale(0.015625)"/>
       <path id="DejaVuSans-4c" d="M 628 4666 
L 1259 4666 
L 1259 531 
L 3531 531 
L 3531 0 
L 628 0 
L 628 4666 
z
" transform="scale(0.015625)"/>
       <path id="DejaVuSans-53" d="M 3425 4513 
L 3425 3897 
Q 3066 4069 2747 4153 
Q 2428 4238 2131 4238 
Q 1616 4238 1336 4038 
Q 1056 3838 1056 3469 
Q 1056 3159 1242 3001 
Q 1428 2844 1947 2747 
L 2328 2669 
Q 3034 2534 3370 2195 
Q 3706 1856 3706 1288 
Q 3706 609 3251 259 
Q 2797 -91 1919 -91 
Q 1588 -91 1214 -16 
Q 841 59 441 206 
L 441 856 
Q 825 641 1194 531 
Q 1563 422 1919 422 
Q 2459 422 2753 634 
Q 3047 847 3047 1241 
Q 3047 1584 2836 1778 
Q 2625 1972 2144 2069 
L 1759 2144 
Q 1053 2284 737 2584 
Q 422 2884 422 3419 
Q 422 4038 858 4394 
Q 1294 4750 2059 4750 
Q 2388 4750 2728 4690 
Q 3069 4631 3425 4513 
z
" transform="scale(0.015625)"/>
       <path id="DejaVuSans-45" d="M 628 4666 
L 3578 4666 
L 3578 4134 
L 1259 4134 
L 1259 2753 
L 3481 2753 
L 3481 2222 
L 1259 2222 
L 1259 531 
L 3634 531 
L 3634 0 
L 628 0 
L 628 4666 
z
" transform="scale(0.015625)"/>
       <path id="DejaVuSans-42" d="M 1259 2228 
L 1259 519 
L 2272 519 
Q 2781 519 3026 730 
Q 3272 941 3272 1375 
Q 3272 1813 3026 2020 
Q 2781 2228 2272 2228 
L 1259 2228 
z
M 1259 4147 
L 1259 2741 
L 2194 2741 
Q 2656 2741 2882 2914 
Q 3109 3088 3109 3444 
Q 3109 3797 2882 3972 
Q 2656 4147 2194 4147 
L 1259 4147 
z
M 628 4666 
L 2241 4666 
Q 2963 4666 3353 4366 
Q 3744 4066 3744 3513 
Q 3744 3084 3544 2831 
Q 3344 2578 2956 2516 
Q 3422 2416 3680 2098 
Q 3938 1781 3938 1306 
Q 3938 681 3513 340 
Q 3088 0 2303 0 
L 628 0 
L 628 4666 
z
" transform="scale(0.015625)"/>
       <path id="DejaVuSans-49" d="M 628 4666 
L 1259 4666 
L 1259 0 
L 628 0 
L 628 4666 
z
" transform="scale(0.015625)"/>
      </defs>
      <use xlink:href="#DejaVuSans-56"/>
      <use xlink:href="#DejaVuSans-50" x="68.408203"/>
      <use xlink:href="#DejaVuSans-55" x="128.710938"/>
      <use xlink:href="#DejaVuSans-4c" x="201.904297"/>
      <use xlink:href="#DejaVuSans-53" x="257.617188"/>
      <use xlink:href="#DejaVuSans-45" x="321.09375"/>
      <use xlink:href="#DejaVuSans-20" x="384.277344"/>
      <use xlink:href="#DejaVuSans-42" x="416.064453"/>
      <use xlink:href="#DejaVuSans-42" x="484.667969"/>
      <use xlink:href="#DejaVuSans-49" x="553.271484"/>
     </g>
    </g>
   </g>
   <g id="line2d_17">
    <path d="M 141.12 45.027377 
L 499.193856 45.136282 
L 499.677696 46.425538 
L 507.902976 69.006772 
L 515.321856 89.863624 
L 516.934656 94.440546 
L 518.740992 99.673219 
L 522.22464 110.807642 
L 523.805184 115.853719 
L 525.030912 119.550977 
L 528.933888 121.36362 
L 529.514496 121.619522 
L 530.385408 122.003376 
L 531.030528 122.269941 
L 532.611072 122.936354 
L 533.256192 123.202919 
L 534.352896 123.629423 
L 535.094784 123.922644 
L 536.191488 124.349149 
L 537.094656 124.677024 
L 537.772032 124.943589 
L 538.578432 125.25547 
L 539.933184 125.804594 
L 542.578176 126.790885 
L 543.19104 127.022796 
L 545.1264 127.395987 
L 563.609088 127.289361 
L 563.83488 126.801547 
L 582.124032 75.087922 
L 585.865728 63.292417 
L 589.575168 51.617666 
L 594.187776 49.3412 
L 599.542272 46.984578 
L 608.251392 43.484472 
L 609.122304 43.268927 
L 623.411712 43.108189 
L 630.217728 43.184799 
L 645.571584 43.746186 
L 673.344 44.46146 
L 698.98752 44.774399 
L 734.598144 44.945888 
L 782.627328 44.953885 
L 947.52 44.953885 
L 947.52 44.953885 
" clip-path="url(#p348457b4e0)" style="fill: none; stroke: #ff0000; stroke-width: 2; stroke-linecap: square"/>
   </g>
   <g id="patch_4">
    <path d="M 100.8 131.611034 
L 100.8 38.88 
" style="fill: none; stroke: #bcbcbc; stroke-width: 0.8; stroke-linejoin: miter; stroke-linecap: square"/>
   </g>
   <g id="patch_5">
    <path d="M 987.84 131.611034 
L 987.84 38.88 
" style="fill: none; stroke: #bcbcbc; stroke-width: 0.8; stroke-linejoin: miter; stroke-linecap: square"/>
   </g>
   <g id="patch_6">
    <path d="M 100.8 131.611034 
L 987.84 131.611034 
" style="fill: none; stroke: #bcbcbc; stroke-width: 0.8; stroke-linejoin: miter; stroke-linecap: square"/>
   </g>
   <g id="patch_7">
    <path d="M 100.8 38.88 
L 987.84 38.88 
" style="fill: none; stroke: #bcbcbc; stroke-width: 0.8; stroke-linejoin: miter; stroke-linecap: square"/>
   </g>
  </g>
  <g id="axes_2">
   <g id="patch_8">
    <path d="M 100.8 242.888276 
L 987.84 242.888276 
L 987.84 150.157241 
L 100.8 150.157241 
z
" style="fill: #eeeeee"/>
   </g>
   <g id="matplotlib.axis_3">
    <g id="xtick_7">
     <g id="line2d_18">
      <path d="M 141.12 242.888276 
L 141.12 150.157241 
" clip-path="url(#p99f481f322)" style="fill: none; stroke-dasharray: 1.85,0.8; stroke-dashoffset: 0; stroke: #b2b2b2; stroke-width: 0.5"/>
     </g>
     <g id="line2d_19">
      <g>
       <use xlink:href="#m00f12d51bd" x="141.12" y="242.888276" style="stroke: #000000; stroke-width: 0.8"/>
      </g>
     </g>
    </g>
    <g id="xtick_8">
     <g id="line2d_20">
      <path d="M 302.4 242.888276 
L 302.4 150.157241 
" clip-path="url(#p99f481f322)" style="fill: none; stroke-dasharray: 1.85,0.8; stroke-dashoffset: 0; stroke: #b2b2b2; stroke-width: 0.5"/>
     </g>
     <g id="line2d_21">
      <g>
       <use xlink:href="#m00f12d51bd" x="302.4" y="242.888276" style="stroke: #000000; stroke-width: 0.8"/>
      </g>
     </g>
    </g>
    <g id="xtick_9">
     <g id="line2d_22">
      <path d="M 463.68 242.888276 
L 463.68 150.157241 
" clip-path="url(#p99f481f322)" style="fill: none; stroke-dasharray: 1.85,0.8; stroke-dashoffset: 0; stroke: #b2b2b2; stroke-width: 0.5"/>
     </g>
     <g id="line2d_23">
      <g>
       <use xlink:href="#m00f12d51bd" x="463.68" y="242.888276" style="stroke: #000000; stroke-width: 0.8"/>
      </g>
     </g>
    </g>
    <g id="xtick_10">
     <g id="line2d_24">
      <path d="M 624.96 242.888276 
L 624.96 150.157241 
" clip-path="url(#p99f481f322)" style="fill: none; stroke-dasharray: 1.85,0.8; stroke-dashoffset: 0; stroke: #b2b2b2; stroke-width: 0.5"/>
     </g>
     <g id="line2d_25">
      <g>
       <use xlink:href="#m00f12d51bd" x="624.96" y="242.888276" style="stroke: #000000; stroke-width: 0.8"/>
      </g>
     </g>
    </g>
    <g id="xtick_11">
     <g id="line2d_26">
      <path d="M 786.24 242.888276 
L 786.24 150.157241 
" clip-path="url(#p99f481f322)" style="fill: none; stroke-dasharray: 1.85,0.8; stroke-dashoffset: 0; stroke: #b2b2b2; stroke-width: 0.5"/>
     </g>
     <g id="line2d_27">
      <g>
       <use xlink:href="#m00f12d51bd" x="786.24" y="242.888276" style="stroke: #000000; stroke-width: 0.8"/>
      </g>
     </g>
    </g>
    <g id="xtick_12">
     <g id="line2d_28">
      <path d="M 947.52 242.888276 
L 947.52 150.157241 
" clip-path="url(#p99f481f322)" style="fill: none; stroke-dasharray: 1.85,0.8; stroke-dashoffset: 0; stroke: #b2b2b2; stroke-width: 0.5"/>
     </g>
     <g id="line2d_29">
      <g>
       <use xlink:href="#m00f12d51bd" x="947.52" y="242.888276" style="stroke: #000000; stroke-width: 0.8"/>
      </g>
     </g>
    </g>
   </g>
   <g id="matplotlib.axis_4">
    <g id="ytick_3">
     <g id="line2d_30">
      <path d="M 100.8 219.264331 
L 987.84 219.264331 
" clip-path="url(#p99f481f322)" style="fill: none; stroke-dasharray: 1.85,0.8; stroke-dashoffset: 0; stroke: #b2b2b2; stroke-width: 0.5"/>
     </g>
     <g id="line2d_31">
      <g>
       <use xlink:href="#meab18e7564" x="100.8" y="219.264331" style="stroke: #000000; stroke-width: 0.8"/>
      </g>
     </g>
     <g id="text_4">
      <!-- 0 V -->
      <g transform="translate(74.36625 224.583237) scale(0.14 -0.14)">
       <use xlink:href="#DejaVuSans-30"/>
       <use xlink:href="#DejaVuSans-20" x="63.623047"/>
       <use xlink:href="#DejaVuSans-56" x="95.410156"/>
      </g>
     </g>
    </g>
    <g id="ytick_4">
     <g id="line2d_32">
      <path d="M 100.8 185.712786 
L 987.84 185.712786 
" clip-path="url(#p99f481f322)" style="fill: none; stroke-dasharray: 1.85,0.8; stroke-dashoffset: 0; stroke: #b2b2b2; stroke-width: 0.5"/>
     </g>
     <g id="line2d_33">
      <g>
       <use xlink:href="#meab18e7564" x="100.8" y="185.712786" style="stroke: #000000; stroke-width: 0.8"/>
      </g>
     </g>
     <g id="text_5">
      <!-- 1 V -->
      <g transform="translate(74.36625 191.031693) scale(0.14 -0.14)">
       <defs>
        <path id="DejaVuSans-31" d="M 794 531 
L 1825 531 
L 1825 4091 
L 703 3866 
L 703 4441 
L 1819 4666 
L 2450 4666 
L 2450 531 
L 3481 531 
L 3481 0 
L 794 0 
L 794 531 
z
" transform="scale(0.015625)"/>
       </defs>
       <use xlink:href="#DejaVuSans-31"/>
       <use xlink:href="#DejaVuSans-20" x="63.623047"/>
       <use xlink:href="#DejaVuSans-56" x="95.410156"/>
      </g>
     </g>
    </g>
    <g id="ytick_5">
     <g id="line2d_34">
      <path d="M 100.8 152.161242 
L 987.84 152.161242 
" clip-path="url(#p99f481f322)" style="fill: none; stroke-dasharray: 1.85,0.8; stroke-dashoffset: 0; stroke: #b2b2b2; stroke-width: 0.5"/>
     </g>
     <g id="line2d_35">
      <g>
       <use xlink:href="#meab18e7564" x="100.8" y="152.161242" style="stroke: #000000; stroke-width: 0.8"/>
      </g>
     </g>
     <g id="text_6">
      <!-- 2 V -->
      <g transform="translate(74.36625 157.480148) scale(0.14 -0.14)">
       <use xlink:href="#DejaVuSans-32"/>
       <use xlink:href="#DejaVuSans-20" x="63.623047"/>
       <use xlink:href="#DejaVuSans-56" x="95.410156"/>
      </g>
     </g>
    </g>
    <g id="text_7">
     <g id="patch_9">
      <path d="M 34.8768 224.531509 
L 34.8768 168.514009 
L 11.247425 168.514009 
L 11.247425 224.531509 
z
" style="fill: #ffff00; opacity: 0.2; stroke: #eeeeee; stroke-width: 0.5; stroke-linejoin: miter"/>
     </g>
     <!-- DFF IN -->
     <g transform="translate(26.925238 219.491509) rotate(-90) scale(0.14 -0.14)">
      <defs>
       <path id="DejaVuSans-44" d="M 1259 4147 
L 1259 519 
L 2022 519 
Q 2988 519 3436 956 
Q 3884 1394 3884 2338 
Q 3884 3275 3436 3711 
Q 2988 4147 2022 4147 
L 1259 4147 
z
M 628 4666 
L 1925 4666 
Q 3281 4666 3915 4102 
Q 4550 3538 4550 2338 
Q 4550 1131 3912 565 
Q 3275 0 1925 0 
L 628 0 
L 628 4666 
z
" transform="scale(0.015625)"/>
       <path id="DejaVuSans-46" d="M 628 4666 
L 3309 4666 
L 3309 4134 
L 1259 4134 
L 1259 2759 
L 3109 2759 
L 3109 2228 
L 1259 2228 
L 1259 0 
L 628 0 
L 628 4666 
z
" transform="scale(0.015625)"/>
       <path id="DejaVuSans-4e" d="M 628 4666 
L 1478 4666 
L 3547 763 
L 3547 4666 
L 4159 4666 
L 4159 0 
L 3309 0 
L 1241 3903 
L 1241 0 
L 628 0 
L 628 4666 
z
" transform="scale(0.015625)"/>
      </defs>
      <use xlink:href="#DejaVuSans-44"/>
      <use xlink:href="#DejaVuSans-46" x="77.001953"/>
      <use xlink:href="#DejaVuSans-46" x="134.521484"/>
      <use xlink:href="#DejaVuSans-20" x="192.041016"/>
      <use xlink:href="#DejaVuSans-49" x="223.828125"/>
      <use xlink:href="#DejaVuSans-4e" x="253.320312"/>
     </g>
    </g>
   </g>
   <g id="line2d_36">
    <path d="M 141.12 219.215333 
L 221.953536 219.169323 
L 224.437248 200.474795 
L 225.404928 194.787808 
L 228.243456 182.283819 
L 229.598208 181.028991 
L 231.178752 180.166716 
L 236.565504 179.717125 
L 243.661824 179.606405 
L 245.1456 179.562788 
L 248.403456 179.452068 
L 250.113024 179.384965 
L 252.177408 179.274245 
L 254.241792 178.948795 
L 254.757888 178.418681 
L 255.499776 178.083165 
L 256.370688 178.103296 
L 257.531904 178.334802 
L 259.98336 178.734065 
L 262.370304 178.871626 
L 263.886336 178.921954 
L 264.144384 184.095602 
L 264.434688 187.61583 
L 265.176576 192.305329 
L 267.144192 209.422321 
L 268.402176 215.849119 
L 269.079552 217.159643 
L 270.46656 218.856881 
L 273.724416 219.266143 
L 282.594816 219.219765 
L 297.110016 219.208555 
L 305.883648 219.214537 
L 347.751936 219.170998 
L 350.235648 200.514386 
L 351.622656 191.984577 
L 352.687104 186.659275 
L 354.97728 179.851332 
L 358.493184 178.864916 
L 360.235008 178.935374 
L 363.073536 179.046094 
L 364.396032 179.072936 
L 375.169536 179.143394 
L 375.717888 180.123099 
L 376.169472 180.864588 
L 377.008128 181.760414 
L 377.524224 181.710087 
L 378.427392 181.421544 
L 380.45952 180.284146 
L 381.58848 179.9285 
L 387.201024 179.455423 
L 389.65248 179.344703 
L 391.813632 179.230628 
L 394.555392 179.119908 
L 395.9424 179.086356 
L 415.392768 178.978991 
L 415.973376 178.361643 
L 416.844288 178.029483 
L 417.908736 178.133492 
L 419.16672 178.41197 
L 420.908544 178.663607 
L 424.00512 178.874982 
L 455.712768 178.975636 
L 456.809472 179.854687 
L 457.261056 179.925145 
L 458.712576 179.965407 
L 462.744576 179.435292 
L 464.16384 179.250759 
L 467.518464 179.012543 
L 496.065024 178.93873 
L 496.58112 178.378419 
L 497.161728 178.08652 
L 497.935872 178.036193 
L 499.097088 178.260988 
L 499.290624 178.479073 
L 501.774336 183.142738 
L 503.35488 185.404112 
L 508.419072 192.413365 
L 508.8384 193.682285 
L 510.160896 198.44392 
L 510.580224 199.941997 
L 511.289856 202.741537 
L 512.193024 206.986814 
L 512.38656 207.908811 
L 513.19296 211.319325 
L 514.64448 216.568263 
L 514.80576 217.096599 
L 515.354112 218.882984 
L 515.515392 219.395538 
L 515.966976 221.071988 
L 516.160512 221.429043 
L 517.483008 225.108339 
L 517.966848 225.933372 
L 518.224896 226.261506 
L 518.773248 227.31838 
L 519.192576 228.350425 
L 519.611904 229.112716 
L 520.224768 230.430621 
L 520.676352 231.14292 
L 520.869888 231.343894 
L 521.031168 231.82301 
L 521.482752 232.784933 
L 525.095424 238.670545 
L 525.256704 238.556469 
L 525.708288 237.810619 
L 525.93408 237.611658 
L 526.25664 237.04665 
L 526.5792 236.430979 
L 529.095168 233.51233 
L 529.772544 233.06945 
L 530.320896 232.433313 
L 530.6112 231.993452 
L 530.869248 231.727388 
L 532.998144 230.064573 
L 533.417472 229.391194 
L 533.740032 229.163379 
L 533.901312 229.210016 
L 534.449664 228.883559 
L 535.256064 228.251784 
L 536.126976 227.4036 
L 536.772096 226.775851 
L 537.22368 226.590311 
L 538.51392 225.604567 
L 540.158976 224.287333 
L 540.707328 223.940746 
L 542.449152 222.630893 
L 543.094272 222.030321 
L 543.803904 221.528255 
L 545.029632 220.39787 
L 545.77152 219.391012 
L 546.706944 218.091906 
L 548.448768 215.702164 
L 550.7712 212.691919 
L 551.73888 211.58606 
L 552.480768 210.795921 
L 553.1904 210.091674 
L 553.480704 209.69174 
L 553.83552 208.759343 
L 556.028928 202.676783 
L 556.641792 201.459197 
L 559.96416 196.848544 
L 561.189888 195.454142 
L 561.89952 194.608643 
L 563.318784 193.367236 
L 563.738112 192.821688 
L 564.15744 191.505125 
L 565.512192 187.05921 
L 566.318592 185.243065 
L 567.38304 183.481609 
L 568.931328 181.421544 
L 575.188992 173.439631 
L 576.027648 172.33243 
L 576.672768 171.34937 
L 577.22112 168.671957 
L 577.86624 166.655509 
L 578.575872 165.303382 
L 578.898432 165.018194 
L 579.220992 164.971221 
L 579.672576 165.175886 
L 579.898368 165.25641 
L 580.414464 165.202727 
L 580.76928 164.984642 
L 581.4144 164.380714 
L 589.542912 154.385709 
L 591.704064 155.16746 
L 594.832896 155.92908 
L 597.735936 156.949047 
L 599.703552 157.650274 
L 600.316416 157.885135 
L 602.025984 158.478997 
L 609.283584 160.851092 
L 610.025472 161.257065 
L 612.186624 162.263612 
L 612.670464 162.464921 
L 613.444608 162.817212 
L 614.347776 163.209765 
L 614.767104 163.390944 
L 615.831552 163.833824 
L 617.025024 164.504855 
L 617.637888 166.585051 
L 618.02496 168.299535 
L 618.34752 169.165165 
L 618.637824 169.336277 
L 618.960384 169.228912 
L 619.508736 168.698798 
L 620.508672 167.719093 
L 621.41184 167.276213 
L 622.573056 167.145362 
L 623.153664 167.192334 
L 624.927744 167.487587 
L 625.734144 167.635214 
L 626.153472 167.702317 
L 629.15328 168.437096 
L 633.120768 169.561073 
L 633.798144 169.738896 
L 636.41088 170.440123 
L 638.83008 171.050761 
L 639.442944 171.195033 
L 640.2816 171.386277 
L 640.894464 171.527193 
L 650.345472 173.389304 
L 650.7648 173.456407 
L 651.603456 173.607389 
L 653.442048 173.909353 
L 654.119424 174.013363 
L 654.861312 174.124083 
L 656.764416 174.412626 
L 657.37728 174.335458 
L 657.893376 173.795278 
L 658.635264 173.600679 
L 659.699712 173.926129 
L 660.893184 174.422692 
L 662.151168 174.83202 
L 666.215424 175.570154 
L 667.05408 175.677519 
L 668.215296 175.80837 
L 676.08576 176.516308 
L 676.698624 176.559925 
L 677.53728 176.623673 
L 680.795136 176.851823 
L 681.408 176.898796 
L 684.14976 177.076619 
L 684.859392 177.113525 
L 687.181824 177.244376 
L 687.923712 177.277928 
L 690.020352 177.388648 
L 690.76224 177.432265 
L 693.407232 177.542985 
L 695.342592 177.633574 
L 696.08448 177.667126 
L 697.761792 177.925473 
L 698.245632 178.448877 
L 698.98752 178.781037 
L 700.11648 178.787748 
L 700.955136 178.505915 
L 701.858304 178.240857 
L 705.019392 178.019417 
L 706.341888 178.046258 
L 707.2128 178.063034 
L 707.85792 178.08652 
L 712.147968 178.19724 
L 712.599552 178.224082 
L 717.792768 178.334802 
L 719.115264 178.361643 
L 724.566528 178.472363 
L 725.92128 178.502559 
L 734.501376 178.61328 
L 735.146496 178.636766 
L 738.01728 178.546176 
L 738.533376 178.022772 
L 739.049472 177.771136 
L 739.95264 177.690612 
L 741.049344 177.915407 
L 744.113664 178.445522 
L 746.823168 178.556242 
L 748.145664 178.583083 
L 778.305024 178.670317 
L 778.917888 179.317862 
L 779.30496 179.49904 
L 779.885568 179.633246 
L 782.272512 179.522526 
L 784.014336 179.230628 
L 785.27232 179.079646 
L 789.852672 178.713934 
L 818.592768 178.640121 
L 819.14112 178.032838 
L 819.689472 177.76107 
L 821.624832 177.868435 
L 824.882688 178.435456 
L 827.04384 178.549532 
L 858.912768 178.640121 
L 859.848192 179.465489 
L 860.783616 179.643312 
L 862.073856 179.673508 
L 864.847872 179.207142 
L 870.75072 178.703869 
L 899.265024 178.593149 
L 899.78112 178.032838 
L 900.329472 177.76107 
L 902.264832 177.868435 
L 905.522688 178.435456 
L 907.68384 178.549532 
L 939.552768 178.640121 
L 940.617216 179.495685 
L 941.55264 179.680219 
L 943.455744 179.572854 
L 946.423296 179.066225 
L 947.52 178.898468 
L 947.52 178.898468 
" clip-path="url(#p99f481f322)" style="fill: none; stroke: #008000; stroke-width: 2; stroke-linecap: square"/>
   </g>
   <g id="patch_10">
    <path d="M 100.8 242.888276 
L 100.8 150.157241 
" style="fill: none; stroke: #bcbcbc; stroke-width: 0.8; stroke-linejoin: miter; stroke-linecap: square"/>
   </g>
   <g id="patch_11">
    <path d="M 987.84 242.888276 
L 987.84 150.157241 
" style="fill: none; stroke: #bcbcbc; stroke-width: 0.8; stroke-linejoin: miter; stroke-linecap: square"/>
   </g>
   <g id="patch_12">
    <path d="M 100.8 242.888276 
L 987.84 242.888276 
" style="fill: none; stroke: #bcbcbc; stroke-width: 0.8; stroke-linejoin: miter; stroke-linecap: square"/>
   </g>
   <g id="patch_13">
    <path d="M 100.8 150.157241 
L 987.84 150.157241 
" style="fill: none; stroke: #bcbcbc; stroke-width: 0.8; stroke-linejoin: miter; stroke-linecap: square"/>
   </g>
  </g>
  <g id="axes_3">
   <g id="patch_14">
    <path d="M 100.8 354.165517 
L 987.84 354.165517 
L 987.84 261.434483 
L 100.8 261.434483 
z
" style="fill: #eeeeee"/>
   </g>
   <g id="matplotlib.axis_5">
    <g id="xtick_13">
     <g id="line2d_37">
      <path d="M 141.12 354.165517 
L 141.12 261.434483 
" clip-path="url(#p91cf5daa38)" style="fill: none; stroke-dasharray: 1.85,0.8; stroke-dashoffset: 0; stroke: #b2b2b2; stroke-width: 0.5"/>
     </g>
     <g id="line2d_38">
      <g>
       <use xlink:href="#m00f12d51bd" x="141.12" y="354.165517" style="stroke: #000000; stroke-width: 0.8"/>
      </g>
     </g>
    </g>
    <g id="xtick_14">
     <g id="line2d_39">
      <path d="M 302.4 354.165517 
L 302.4 261.434483 
" clip-path="url(#p91cf5daa38)" style="fill: none; stroke-dasharray: 1.85,0.8; stroke-dashoffset: 0; stroke: #b2b2b2; stroke-width: 0.5"/>
     </g>
     <g id="line2d_40">
      <g>
       <use xlink:href="#m00f12d51bd" x="302.4" y="354.165517" style="stroke: #000000; stroke-width: 0.8"/>
      </g>
     </g>
    </g>
    <g id="xtick_15">
     <g id="line2d_41">
      <path d="M 463.68 354.165517 
L 463.68 261.434483 
" clip-path="url(#p91cf5daa38)" style="fill: none; stroke-dasharray: 1.85,0.8; stroke-dashoffset: 0; stroke: #b2b2b2; stroke-width: 0.5"/>
     </g>
     <g id="line2d_42">
      <g>
       <use xlink:href="#m00f12d51bd" x="463.68" y="354.165517" style="stroke: #000000; stroke-width: 0.8"/>
      </g>
     </g>
    </g>
    <g id="xtick_16">
     <g id="line2d_43">
      <path d="M 624.96 354.165517 
L 624.96 261.434483 
" clip-path="url(#p91cf5daa38)" style="fill: none; stroke-dasharray: 1.85,0.8; stroke-dashoffset: 0; stroke: #b2b2b2; stroke-width: 0.5"/>
     </g>
     <g id="line2d_44">
      <g>
       <use xlink:href="#m00f12d51bd" x="624.96" y="354.165517" style="stroke: #000000; stroke-width: 0.8"/>
      </g>
     </g>
    </g>
    <g id="xtick_17">
     <g id="line2d_45">
      <path d="M 786.24 354.165517 
L 786.24 261.434483 
" clip-path="url(#p91cf5daa38)" style="fill: none; stroke-dasharray: 1.85,0.8; stroke-dashoffset: 0; stroke: #b2b2b2; stroke-width: 0.5"/>
     </g>
     <g id="line2d_46">
      <g>
       <use xlink:href="#m00f12d51bd" x="786.24" y="354.165517" style="stroke: #000000; stroke-width: 0.8"/>
      </g>
     </g>
    </g>
    <g id="xtick_18">
     <g id="line2d_47">
      <path d="M 947.52 354.165517 
L 947.52 261.434483 
" clip-path="url(#p91cf5daa38)" style="fill: none; stroke-dasharray: 1.85,0.8; stroke-dashoffset: 0; stroke: #b2b2b2; stroke-width: 0.5"/>
     </g>
     <g id="line2d_48">
      <g>
       <use xlink:href="#m00f12d51bd" x="947.52" y="354.165517" style="stroke: #000000; stroke-width: 0.8"/>
      </g>
     </g>
    </g>
   </g>
   <g id="matplotlib.axis_6">
    <g id="ytick_6">
     <g id="line2d_49">
      <path d="M 100.8 348.438894 
L 987.84 348.438894 
" clip-path="url(#p91cf5daa38)" style="fill: none; stroke-dasharray: 1.85,0.8; stroke-dashoffset: 0; stroke: #b2b2b2; stroke-width: 0.5"/>
     </g>
     <g id="line2d_50">
      <g>
       <use xlink:href="#meab18e7564" x="100.8" y="348.438894" style="stroke: #000000; stroke-width: 0.8"/>
      </g>
     </g>
     <g id="text_8">
      <!-- 0 V -->
      <g transform="translate(74.36625 353.7578) scale(0.14 -0.14)">
       <use xlink:href="#DejaVuSans-30"/>
       <use xlink:href="#DejaVuSans-20" x="63.623047"/>
       <use xlink:href="#DejaVuSans-56" x="95.410156"/>
      </g>
     </g>
    </g>
    <g id="ytick_7">
     <g id="line2d_51">
      <path d="M 100.8 305.480527 
L 987.84 305.480527 
" clip-path="url(#p91cf5daa38)" style="fill: none; stroke-dasharray: 1.85,0.8; stroke-dashoffset: 0; stroke: #b2b2b2; stroke-width: 0.5"/>
     </g>
     <g id="line2d_52">
      <g>
       <use xlink:href="#meab18e7564" x="100.8" y="305.480527" style="stroke: #000000; stroke-width: 0.8"/>
      </g>
     </g>
     <g id="text_9">
      <!-- 1 V -->
      <g transform="translate(74.36625 310.799434) scale(0.14 -0.14)">
       <use xlink:href="#DejaVuSans-31"/>
       <use xlink:href="#DejaVuSans-20" x="63.623047"/>
       <use xlink:href="#DejaVuSans-56" x="95.410156"/>
      </g>
     </g>
    </g>
    <g id="ytick_8">
     <g id="line2d_53">
      <path d="M 100.8 262.522161 
L 987.84 262.522161 
" clip-path="url(#p91cf5daa38)" style="fill: none; stroke-dasharray: 1.85,0.8; stroke-dashoffset: 0; stroke: #b2b2b2; stroke-width: 0.5"/>
     </g>
     <g id="line2d_54">
      <g>
       <use xlink:href="#meab18e7564" x="100.8" y="262.522161" style="stroke: #000000; stroke-width: 0.8"/>
      </g>
     </g>
     <g id="text_10">
      <!-- 2 V -->
      <g transform="translate(74.36625 267.841067) scale(0.14 -0.14)">
       <use xlink:href="#DejaVuSans-32"/>
       <use xlink:href="#DejaVuSans-20" x="63.623047"/>
       <use xlink:href="#DejaVuSans-56" x="95.410156"/>
      </g>
     </g>
    </g>
    <g id="text_11">
     <g id="patch_15">
      <path d="M 34.8768 342.395313 
L 34.8768 273.204688 
L 11.247425 273.204688 
L 11.247425 342.395313 
z
" style="fill: #ffff00; opacity: 0.2; stroke: #eeeeee; stroke-width: 0.5; stroke-linejoin: miter"/>
     </g>
     <!-- CLK BUF -->
     <g transform="translate(26.925238 337.355313) rotate(-90) scale(0.14 -0.14)">
      <defs>
       <path id="DejaVuSans-43" d="M 4122 4306 
L 4122 3641 
Q 3803 3938 3442 4084 
Q 3081 4231 2675 4231 
Q 1875 4231 1450 3742 
Q 1025 3253 1025 2328 
Q 1025 1406 1450 917 
Q 1875 428 2675 428 
Q 3081 428 3442 575 
Q 3803 722 4122 1019 
L 4122 359 
Q 3791 134 3420 21 
Q 3050 -91 2638 -91 
Q 1578 -91 968 557 
Q 359 1206 359 2328 
Q 359 3453 968 4101 
Q 1578 4750 2638 4750 
Q 3056 4750 3426 4639 
Q 3797 4528 4122 4306 
z
" transform="scale(0.015625)"/>
       <path id="DejaVuSans-4b" d="M 628 4666 
L 1259 4666 
L 1259 2694 
L 3353 4666 
L 4166 4666 
L 1850 2491 
L 4331 0 
L 3500 0 
L 1259 2247 
L 1259 0 
L 628 0 
L 628 4666 
z
" transform="scale(0.015625)"/>
      </defs>
      <use xlink:href="#DejaVuSans-43"/>
      <use xlink:href="#DejaVuSans-4c" x="69.824219"/>
      <use xlink:href="#DejaVuSans-4b" x="125.537109"/>
      <use xlink:href="#DejaVuSans-20" x="191.113281"/>
      <use xlink:href="#DejaVuSans-42" x="222.900391"/>
      <use xlink:href="#DejaVuSans-55" x="291.503906"/>
      <use xlink:href="#DejaVuSans-46" x="364.697266"/>
     </g>
    </g>
   </g>
   <g id="line2d_55">
    <path d="M 141.12 348.437758 
L 173.376 348.437758 
L 173.601792 296.888854 
L 213.696 296.888854 
L 213.760512 338.008173 
L 213.825024 348.419269 
L 213.889536 348.357449 
L 213.954048 348.529064 
L 214.01856 348.44355 
L 215.373312 348.434108 
L 223.469568 348.437708 
L 254.016 348.437729 
L 254.17728 296.729908 
L 254.241792 297.004842 
L 254.403072 296.880262 
L 254.854656 296.888854 
L 294.336 296.888854 
L 294.400512 337.972088 
L 294.465024 348.759454 
L 294.529536 348.012567 
L 294.626304 348.506403 
L 294.65856 348.475834 
L 294.852096 348.400328 
L 295.206912 348.454526 
L 295.497216 348.437424 
L 320.721408 348.437757 
L 334.656 348.43776 
L 334.81728 296.811529 
L 334.881792 296.906037 
L 335.204352 296.89315 
L 336.075264 296.888854 
L 374.976 296.888854 
L 375.040512 338.012039 
L 375.105024 348.439591 
L 375.169536 348.352002 
L 375.234048 348.522672 
L 375.29856 348.443692 
L 376.717824 348.433751 
L 385.072128 348.437695 
L 415.296 348.43776 
L 415.45728 296.729908 
L 415.521792 297.004842 
L 415.683072 296.875967 
L 416.650752 296.89315 
L 455.616 296.888854 
L 455.680512 337.974666 
L 455.745024 348.764746 
L 455.809536 347.814151 
L 455.906304 349.069179 
L 455.93856 348.508766 
L 456.132096 348.413094 
L 456.519168 348.438203 
L 490.033152 348.437761 
L 495.936 348.43776 
L 496.09728 296.850192 
L 496.194048 296.888854 
L 499.226112 296.957587 
L 500.903424 299.376144 
L 502.54848 302.211396 
L 509.451264 313.944614 
L 513.03168 319.365101 
L 516.837888 324.599149 
L 518.03136 325.929999 
L 518.095872 325.975105 
L 518.257152 326.170566 
L 518.321664 326.121163 
L 518.35392 326.209228 
L 518.902272 326.769835 
L 520.61184 328.28154 
L 522.579456 329.76661 
L 525.030912 331.316548 
L 526.063104 330.781717 
L 526.708224 330.516234 
L 526.837248 330.446212 
L 527.127552 330.354281 
L 535.643136 327.241947 
L 535.675392 327.310681 
L 535.739904 327.217891 
L 536.126976 327.091163 
L 536.159232 327.145291 
L 536.191488 327.091163 
L 536.288256 326.735468 
L 536.352768 325.549388 
L 536.385024 326.091093 
L 536.449536 332.010326 
L 536.610816 349.95047 
L 536.643072 349.903689 
L 536.997888 349.849389 
L 540.223488 349.104319 
L 543.545856 348.50459 
L 548.448768 347.877385 
L 548.739072 347.879662 
L 553.609728 347.902903 
L 553.771008 347.911451 
L 555.6096 347.935766 
L 563.738112 347.938472 
L 564.383232 347.315576 
L 565.157376 346.906397 
L 566.157312 346.657325 
L 567.641088 346.550058 
L 570.350592 346.601651 
L 576.576 346.858671 
L 576.801792 286.364054 
L 577.963008 284.302053 
L 581.672448 278.098864 
L 583.285248 275.542842 
L 586.123776 270.847492 
L 589.123584 266.255243 
L 589.607424 265.769813 
L 590.478336 265.64953 
L 591.220224 265.75263 
L 592.123392 266.001788 
L 592.639488 266.177918 
L 596.25216 267.737306 
L 597.86496 268.471894 
L 600.058368 269.455641 
L 600.542208 269.709095 
L 609.251328 273.300415 
L 609.864192 273.656969 
L 610.509312 274.026411 
L 611.122176 274.37867 
L 613.380096 275.701788 
L 614.057472 276.1013 
L 616.896 277.652097 
L 617.089536 348.964275 
L 617.21856 348.889613 
L 627.3792 348.784043 
L 657.216 348.596057 
L 657.345024 290.775878 
L 657.441792 291.179687 
L 658.151424 291.274196 
L 658.50624 291.351521 
L 659.15136 291.458917 
L 659.506176 291.523354 
L 660.215808 291.63075 
L 660.570624 291.695188 
L 661.183488 291.802583 
L 661.538304 291.867021 
L 662.344704 291.974417 
L 662.69952 292.038854 
L 663.409152 292.14625 
L 663.763968 292.210688 
L 664.570368 292.318084 
L 664.828416 292.339563 
L 665.538048 292.446959 
L 665.892864 292.511397 
L 666.796032 292.618792 
L 667.150848 292.68323 
L 668.054016 292.790626 
L 668.312064 292.812105 
L 669.118464 292.919501 
L 669.441024 292.979643 
L 670.44096 293.078447 
L 670.892544 293.151476 
L 671.89248 293.25028 
L 672.344064 293.32331 
L 673.440768 293.422114 
L 673.892352 293.495143 
L 674.989056 293.593947 
L 675.343872 293.628314 
L 676.279296 293.73571 
L 676.537344 293.757189 
L 677.634048 293.864585 
L 677.892096 293.886064 
L 678.9888 293.99346 
L 679.246848 294.014939 
L 680.44032 294.122335 
L 680.698368 294.143814 
L 681.89184 294.25121 
L 682.149888 294.27269 
L 683.536896 294.380085 
L 683.794944 294.401565 
L 685.181952 294.508961 
L 685.44 294.53044 
L 686.923776 294.637836 
L 687.181824 294.655019 
L 688.730112 294.753823 
L 689.084928 294.783894 
L 690.665472 294.882698 
L 691.020288 294.912769 
L 692.794368 295.011573 
L 693.149184 295.041644 
L 695.020032 295.140449 
L 695.374848 295.170519 
L 697.439232 295.269324 
L 697.536 295.299395 
L 697.568256 300.140802 
L 697.69728 348.434138 
L 697.85856 348.481739 
L 724.63104 348.456463 
L 737.856 348.450062 
L 737.952768 296.162858 
L 738.049536 296.351874 
L 738.081792 295.819191 
L 738.146304 296.454975 
L 738.275328 296.45927 
L 778.176 296.45927 
L 778.305024 348.766976 
L 778.466304 348.517169 
L 778.724352 348.421347 
L 779.079168 348.46811 
L 779.401728 348.449836 
L 817.238016 348.45006 
L 818.496 348.450061 
L 818.65728 296.235887 
L 818.721792 296.721316 
L 818.81856 296.283141 
L 818.883072 296.442087 
L 819.366912 296.45927 
L 858.816 296.45927 
L 858.945024 348.767092 
L 859.106304 348.517083 
L 859.364352 348.421377 
L 859.719168 348.468111 
L 860.041728 348.449836 
L 898.039296 348.45006 
L 899.136 348.450061 
L 899.29728 296.235887 
L 899.361792 296.721316 
L 899.45856 296.278845 
L 899.523072 296.442087 
L 900.006912 296.45927 
L 939.456 296.45927 
L 939.488256 304.204664 
L 939.61728 348.39897 
L 939.649536 348.523887 
L 939.714048 348.404372 
L 939.746304 348.366677 
L 939.810816 348.422122 
L 940.004352 348.475769 
L 940.230144 348.448697 
L 945.649152 348.450065 
L 947.52 348.45005 
L 947.52 348.45005 
" clip-path="url(#p91cf5daa38)" style="fill: none; stroke: #0000ff; stroke-width: 2; stroke-linecap: square"/>
   </g>
   <g id="patch_16">
    <path d="M 100.8 354.165517 
L 100.8 261.434483 
" style="fill: none; stroke: #bcbcbc; stroke-width: 0.8; stroke-linejoin: miter; stroke-linecap: square"/>
   </g>
   <g id="patch_17">
    <path d="M 987.84 354.165517 
L 987.84 261.434483 
" style="fill: none; stroke: #bcbcbc; stroke-width: 0.8; stroke-linejoin: miter; stroke-linecap: square"/>
   </g>
   <g id="patch_18">
    <path d="M 100.8 354.165517 
L 987.84 354.165517 
" style="fill: none; stroke: #bcbcbc; stroke-width: 0.8; stroke-linejoin: miter; stroke-linecap: square"/>
   </g>
   <g id="patch_19">
    <path d="M 100.8 261.434483 
L 987.84 261.434483 
" style="fill: none; stroke: #bcbcbc; stroke-width: 0.8; stroke-linejoin: miter; stroke-linecap: square"/>
   </g>
  </g>
  <g id="axes_4">
   <g id="patch_20">
    <path d="M 100.8 465.442759 
L 987.84 465.442759 
L 987.84 372.711724 
L 100.8 372.711724 
z
" style="fill: #eeeeee"/>
   </g>
   <g id="matplotlib.axis_7">
    <g id="xtick_19">
     <g id="line2d_56">
      <path d="M 141.12 465.442759 
L 141.12 372.711724 
" clip-path="url(#p9686d65982)" style="fill: none; stroke-dasharray: 1.85,0.8; stroke-dashoffset: 0; stroke: #b2b2b2; stroke-width: 0.5"/>
     </g>
     <g id="line2d_57">
      <g>
       <use xlink:href="#m00f12d51bd" x="141.12" y="465.442759" style="stroke: #000000; stroke-width: 0.8"/>
      </g>
     </g>
    </g>
    <g id="xtick_20">
     <g id="line2d_58">
      <path d="M 302.4 465.442759 
L 302.4 372.711724 
" clip-path="url(#p9686d65982)" style="fill: none; stroke-dasharray: 1.85,0.8; stroke-dashoffset: 0; stroke: #b2b2b2; stroke-width: 0.5"/>
     </g>
     <g id="line2d_59">
      <g>
       <use xlink:href="#m00f12d51bd" x="302.4" y="465.442759" style="stroke: #000000; stroke-width: 0.8"/>
      </g>
     </g>
    </g>
    <g id="xtick_21">
     <g id="line2d_60">
      <path d="M 463.68 465.442759 
L 463.68 372.711724 
" clip-path="url(#p9686d65982)" style="fill: none; stroke-dasharray: 1.85,0.8; stroke-dashoffset: 0; stroke: #b2b2b2; stroke-width: 0.5"/>
     </g>
     <g id="line2d_61">
      <g>
       <use xlink:href="#m00f12d51bd" x="463.68" y="465.442759" style="stroke: #000000; stroke-width: 0.8"/>
      </g>
     </g>
    </g>
    <g id="xtick_22">
     <g id="line2d_62">
      <path d="M 624.96 465.442759 
L 624.96 372.711724 
" clip-path="url(#p9686d65982)" style="fill: none; stroke-dasharray: 1.85,0.8; stroke-dashoffset: 0; stroke: #b2b2b2; stroke-width: 0.5"/>
     </g>
     <g id="line2d_63">
      <g>
       <use xlink:href="#m00f12d51bd" x="624.96" y="465.442759" style="stroke: #000000; stroke-width: 0.8"/>
      </g>
     </g>
    </g>
    <g id="xtick_23">
     <g id="line2d_64">
      <path d="M 786.24 465.442759 
L 786.24 372.711724 
" clip-path="url(#p9686d65982)" style="fill: none; stroke-dasharray: 1.85,0.8; stroke-dashoffset: 0; stroke: #b2b2b2; stroke-width: 0.5"/>
     </g>
     <g id="line2d_65">
      <g>
       <use xlink:href="#m00f12d51bd" x="786.24" y="465.442759" style="stroke: #000000; stroke-width: 0.8"/>
      </g>
     </g>
    </g>
    <g id="xtick_24">
     <g id="line2d_66">
      <path d="M 947.52 465.442759 
L 947.52 372.711724 
" clip-path="url(#p9686d65982)" style="fill: none; stroke-dasharray: 1.85,0.8; stroke-dashoffset: 0; stroke: #b2b2b2; stroke-width: 0.5"/>
     </g>
     <g id="line2d_67">
      <g>
       <use xlink:href="#m00f12d51bd" x="947.52" y="465.442759" style="stroke: #000000; stroke-width: 0.8"/>
      </g>
     </g>
    </g>
   </g>
   <g id="matplotlib.axis_8">
    <g id="ytick_9">
     <g id="line2d_68">
      <path d="M 100.8 437.411732 
L 987.84 437.411732 
" clip-path="url(#p9686d65982)" style="fill: none; stroke-dasharray: 1.85,0.8; stroke-dashoffset: 0; stroke: #b2b2b2; stroke-width: 0.5"/>
     </g>
     <g id="line2d_69">
      <g>
       <use xlink:href="#meab18e7564" x="100.8" y="437.411732" style="stroke: #000000; stroke-width: 0.8"/>
      </g>
     </g>
     <g id="text_12">
      <!-- 0 V -->
      <g transform="translate(74.36625 442.730638) scale(0.14 -0.14)">
       <use xlink:href="#DejaVuSans-30"/>
       <use xlink:href="#DejaVuSans-20" x="63.623047"/>
       <use xlink:href="#DejaVuSans-56" x="95.410156"/>
      </g>
     </g>
    </g>
    <g id="ytick_10">
     <g id="line2d_70">
      <path d="M 100.8 395.781227 
L 987.84 395.781227 
" clip-path="url(#p9686d65982)" style="fill: none; stroke-dasharray: 1.85,0.8; stroke-dashoffset: 0; stroke: #b2b2b2; stroke-width: 0.5"/>
     </g>
     <g id="line2d_71">
      <g>
       <use xlink:href="#meab18e7564" x="100.8" y="395.781227" style="stroke: #000000; stroke-width: 0.8"/>
      </g>
     </g>
     <g id="text_13">
      <!-- 1 V -->
      <g transform="translate(74.36625 401.100133) scale(0.14 -0.14)">
       <use xlink:href="#DejaVuSans-31"/>
       <use xlink:href="#DejaVuSans-20" x="63.623047"/>
       <use xlink:href="#DejaVuSans-56" x="95.410156"/>
      </g>
     </g>
    </g>
    <g id="text_14">
     <g id="patch_21">
      <path d="M 34.8768 454.693023 
L 34.8768 383.46146 
L 11.247425 383.46146 
L 11.247425 454.693023 
z
" style="fill: #ffff00; opacity: 0.2; stroke: #eeeeee; stroke-width: 0.5; stroke-linejoin: miter"/>
     </g>
     <!-- DFF OUT -->
     <g transform="translate(26.925238 449.653023) rotate(-90) scale(0.14 -0.14)">
      <defs>
       <path id="DejaVuSans-4f" d="M 2522 4238 
Q 1834 4238 1429 3725 
Q 1025 3213 1025 2328 
Q 1025 1447 1429 934 
Q 1834 422 2522 422 
Q 3209 422 3611 934 
Q 4013 1447 4013 2328 
Q 4013 3213 3611 3725 
Q 3209 4238 2522 4238 
z
M 2522 4750 
Q 3503 4750 4090 4092 
Q 4678 3434 4678 2328 
Q 4678 1225 4090 567 
Q 3503 -91 2522 -91 
Q 1538 -91 948 565 
Q 359 1222 359 2328 
Q 359 3434 948 4092 
Q 1538 4750 2522 4750 
z
" transform="scale(0.015625)"/>
       <path id="DejaVuSans-54" d="M -19 4666 
L 3928 4666 
L 3928 4134 
L 2272 4134 
L 2272 0 
L 1638 0 
L 1638 4134 
L -19 4134 
L -19 4666 
z
" transform="scale(0.015625)"/>
      </defs>
      <use xlink:href="#DejaVuSans-44"/>
      <use xlink:href="#DejaVuSans-46" x="77.001953"/>
      <use xlink:href="#DejaVuSans-46" x="134.521484"/>
      <use xlink:href="#DejaVuSans-20" x="192.041016"/>
      <use xlink:href="#DejaVuSans-4f" x="223.828125"/>
      <use xlink:href="#DejaVuSans-55" x="302.539062"/>
      <use xlink:href="#DejaVuSans-54" x="375.732422"/>
     </g>
    </g>
   </g>
   <g id="line2d_72">
    <path d="M 141.12 406.000267 
L 173.408256 406.051056 
L 173.440512 407.774559 
L 173.601792 437.414273 
L 174.085632 437.409069 
L 183.923712 437.41063 
L 254.048256 437.412366 
L 254.080512 437.578787 
L 254.112768 437.303505 
L 254.306304 433.239107 
L 254.596608 432.424398 
L 254.693376 431.843236 
L 255.14496 424.549571 
L 255.370752 407.406962 
L 255.596544 387.858942 
L 255.757824 387.517572 
L 255.983616 387.450963 
L 256.854528 387.455126 
L 295.755264 387.538387 
L 296.239104 390.231881 
L 296.59392 389.557466 
L 297.948672 387.796496 
L 299.561472 387.48843 
L 334.688256 387.471778 
L 334.720512 387.35105 
L 334.752768 387.963018 
L 334.785024 390.989556 
L 334.914048 437.394667 
L 334.97856 437.358029 
L 335.13984 437.403007 
L 335.494656 437.411127 
L 365.46048 437.410586 
L 415.328256 437.412341 
L 415.360512 437.578208 
L 415.392768 437.305812 
L 415.586304 433.142108 
L 415.876608 432.186687 
L 415.908864 432.072204 
L 416.1024 427.135242 
L 416.521728 412.762726 
L 416.9088 387.592507 
L 417.102336 387.459289 
L 417.682944 387.48843 
L 418.166784 387.4468 
L 418.940928 387.455126 
L 495.968256 387.475941 
L 496.000512 387.609159 
L 496.065024 387.455126 
L 496.548864 387.442637 
L 499.226112 387.521735 
L 500.193792 388.81228 
L 501.484032 390.83136 
L 507.128832 400.518362 
L 507.741696 402.069931 
L 508.032 403.105698 
L 508.064256 403.014527 
L 508.128768 403.065316 
L 511.064064 416.636861 
L 511.225344 417.854137 
L 511.547904 419.477311 
L 511.58016 418.85202 
L 511.612416 419.007302 
L 511.773696 420.544717 
L 512.096256 422.256147 
L 512.128512 421.697882 
L 512.160768 421.835679 
L 512.322048 423.383501 
L 513.902592 431.119698 
L 513.934848 430.565179 
L 513.99936 430.689238 
L 514.128384 431.99144 
L 515.257344 436.683864 
L 515.2896 436.32476 
L 515.354112 436.512638 
L 515.45088 436.970823 
L 515.61216 438.233393 
L 515.902464 439.414493 
L 515.93472 439.349216 
L 515.966976 439.157591 
L 516.031488 439.358458 
L 516.160512 440.075377 
L 516.321792 441.06585 
L 516.644352 441.934054 
L 516.676608 441.939882 
L 516.837888 442.44153 
L 516.870144 442.255858 
L 516.9024 442.369509 
L 516.999168 442.919032 
L 517.031424 442.748347 
L 517.128192 442.978147 
L 517.160448 443.568884 
L 517.257216 443.343663 
L 517.644288 444.710809 
L 518.19264 445.972213 
L 518.224896 445.756151 
L 518.289408 446.065465 
L 518.321664 445.822343 
L 519.515136 449.228135 
L 521.676288 454.240864 
L 521.837568 454.511046 
L 521.934336 454.883223 
L 521.966592 454.794133 
L 522.031104 454.875729 
L 522.192384 455.457724 
L 522.966528 457.130437 
L 523.03104 456.683742 
L 523.063296 456.8282 
L 523.289088 457.808598 
L 524.063232 459.430106 
L 525.030912 461.227712 
L 525.192192 461.124884 
L 525.385728 460.681936 
L 525.417984 460.750626 
L 525.45024 460.572447 
L 525.93408 459.627019 
L 526.546944 458.336057 
L 526.5792 458.361451 
L 526.611456 458.276941 
L 528.482304 455.360308 
L 528.611328 455.212104 
L 529.708032 453.873267 
L 530.191872 453.246727 
L 530.224128 453.460708 
L 530.28864 453.271289 
L 530.44992 452.919512 
L 530.514432 452.84083 
L 530.546688 452.923675 
L 530.6112 453.043987 
L 530.675712 452.96697 
L 530.836992 452.666398 
L 530.869248 452.715522 
L 530.998272 452.384976 
L 531.159552 452.296303 
L 531.288576 452.082322 
L 531.320832 452.095644 
L 531.353088 452.162253 
L 531.385344 451.979495 
L 531.804672 451.729296 
L 532.320768 451.007839 
L 532.482048 450.61568 
L 532.514304 450.683121 
L 532.54656 450.54574 
L 532.675584 450.366729 
L 532.70784 450.671464 
L 532.772352 450.345914 
L 532.804608 450.567804 
L 532.998144 450.042011 
L 533.127168 449.896721 
L 533.159424 450.189383 
L 533.223936 450.109453 
L 533.35296 449.6715 
L 533.707776 449.33679 
L 533.772288 449.507059 
L 533.804544 449.350112 
L 533.8368 449.323052 
L 533.869056 449.441699 
L 533.901312 449.252697 
L 534.094848 449.083677 
L 534.610944 448.701509 
L 535.417344 447.401805 
L 535.578624 447.264008 
L 535.643136 447.105812 
L 535.675392 447.500469 
L 535.77216 447.029628 
L 535.804416 447.372663 
L 535.836672 446.965933 
L 535.868928 447.166176 
L 535.901184 447.139949 
L 535.997952 447.185742 
L 536.030208 446.796081 
L 536.159232 446.997989 
L 536.41728 446.441389 
L 536.643072 446.285274 
L 536.675328 446.470946 
L 536.73984 446.385188 
L 537.126912 446.064216 
L 537.675264 445.505119 
L 537.836544 445.246177 
L 537.997824 444.777417 
L 538.03008 445.088814 
L 538.062336 444.77034 
L 538.094592 445.0272 
L 538.19136 444.51348 
L 538.223616 444.640037 
L 538.288128 444.39067 
L 538.320384 444.806559 
L 538.35264 444.369022 
L 538.417152 444.707062 
L 538.546176 444.120904 
L 538.578432 444.096759 
L 538.610688 444.517227 
L 538.6752 444.205831 
L 538.739712 443.927739 
L 538.771968 444.20708 
L 538.804224 444.279933 
L 538.933248 443.764547 
L 538.965504 443.935232 
L 539.030016 443.683784 
L 539.094528 443.866126 
L 539.191296 443.978528 
L 539.223552 443.588867 
L 539.255808 443.791191 
L 539.288064 443.688363 
L 539.384832 443.711677 
L 539.417088 443.401529 
L 539.449344 443.413186 
L 539.4816 443.629248 
L 539.513856 443.373637 
L 539.546112 443.36989 
L 540.320256 442.960246 
L 541.0944 442.19924 
L 541.25568 442.036049 
L 541.384704 441.380202 
L 541.481472 441.291654 
L 541.513728 441.769197 
L 541.57824 441.191949 
L 541.642752 441.108188 
L 541.707264 441.588104 
L 541.836288 440.890918 
L 542.06208 440.750873 
L 542.416896 440.461874 
L 542.449152 440.741007 
L 542.513664 440.405007 
L 542.54592 440.413042 
L 542.610432 440.361129 
L 542.674944 440.580729 
L 542.803968 440.348889 
L 543.094272 440.253389 
L 544.32 438.982951 
L 544.739328 438.351166 
L 544.836096 437.555516 
L 544.868352 437.577472 
L 545.029632 437.424139 
L 545.094144 437.700431 
L 545.158656 437.58922 
L 545.319936 437.339857 
L 546.287616 435.55164 
L 546.41664 434.71266 
L 546.448896 434.675775 
L 546.481152 435.152819 
L 546.545664 434.734891 
L 546.674688 434.655293 
L 546.706944 434.736847 
L 546.771456 434.624403 
L 547.513344 433.184154 
L 547.610112 432.947693 
L 547.739136 431.921917 
L 547.771392 431.926081 
L 547.803648 432.611735 
L 547.900416 432.306167 
L 547.964928 431.836991 
L 548.02944 431.874459 
L 548.093952 431.943982 
L 548.126208 431.891527 
L 548.964864 430.212985 
L 549.255168 429.72341 
L 549.31968 429.053159 
L 549.384192 429.104365 
L 549.448704 429.205943 
L 549.513216 429.10603 
L 550.674432 426.897948 
L 550.738944 426.337185 
L 550.803456 426.435849 
L 550.835712 426.554913 
L 550.900224 426.445424 
L 551.513088 424.992104 
L 552.093696 423.870161 
L 552.190464 423.427629 
L 552.22272 423.517967 
L 552.319488 423.475088 
L 553.51296 420.902323 
L 553.609728 420.359877 
L 553.641984 420.415662 
L 553.932288 420.022254 
L 554.15808 419.455246 
L 554.577408 418.450286 
L 554.674176 417.773374 
L 554.706432 418.323729 
L 554.738688 418.381596 
L 554.770944 418.265447 
L 554.867712 417.290876 
L 554.899968 417.606852 
L 554.932224 417.957381 
L 554.996736 417.530668 
L 555.028992 417.720087 
L 555.061248 417.401614 
L 555.093504 417.523175 
L 555.158016 417.273392 
L 555.190272 417.522342 
L 555.383808 417.180556 
L 556.061184 415.807998 
L 556.545024 414.92335 
L 556.57728 414.371745 
L 556.641792 414.521615 
L 556.674048 414.81511 
L 556.706304 414.457504 
L 556.73856 414.48956 
L 556.803072 414.578233 
L 556.835328 414.494139 
L 557.286912 413.619066 
L 558.222336 412.133273 
L 558.254592 412.173238 
L 558.286848 412.086231 
L 558.51264 411.793568 
L 558.738432 411.278599 
L 559.15776 410.532996 
L 559.96416 409.392321 
L 560.60928 408.547221 
L 560.738304 408.235825 
L 560.93184 407.779555 
L 561.673728 406.834126 
L 561.964032 406.700492 
L 562.093056 406.544378 
L 563.318784 404.81921 
L 563.609088 404.34712 
L 563.83488 404.103998 
L 564.576768 401.674858 
L 570.834432 388.520867 
L 571.89888 386.372733 
L 572.931072 384.370305 
L 573.898752 382.530237 
L 574.705152 381.027376 
L 576.25344 378.217317 
L 576.640512 377.418011 
L 576.672768 376.926771 
L 576.930816 435.891511 
L 578.253312 435.946089 
L 583.801344 436.042921 
L 586.123776 436.037093 
L 589.510656 436.200576 
L 590.220288 436.883899 
L 591.026688 437.312006 
L 591.994368 437.575103 
L 593.445888 437.736317 
L 596.41344 437.800761 
L 608.573952 437.735351 
L 609.831936 437.8419 
L 612.54144 437.89527 
L 653.571072 437.582201 
L 657.248256 437.556307 
L 657.280512 437.861508 
L 657.603072 431.71543 
L 657.86112 430.328302 
L 658.0224 428.105233 
L 658.18368 421.773649 
L 658.377216 404.071526 
L 658.603008 382.309595 
L 658.764288 382.130584 
L 659.441664 382.238824 
L 659.990016 382.338737 
L 660.699648 382.442813 
L 661.054464 382.505259 
L 661.764096 382.613498 
L 662.21568 382.671781 
L 662.828544 382.775857 
L 663.18336 382.838303 
L 663.98976 382.942379 
L 664.344576 383.004825 
L 665.247744 383.108901 
L 665.60256 383.171347 
L 666.40896 383.275423 
L 666.667008 383.296238 
L 667.37664 383.400315 
L 667.634688 383.42113 
L 668.441088 383.525206 
L 668.795904 383.587652 
L 669.79584 383.691728 
L 670.150656 383.754174 
L 671.150592 383.85825 
L 671.40864 383.879066 
L 672.311808 383.983142 
L 672.569856 384.003957 
L 673.473024 384.108033 
L 673.731072 384.128849 
L 674.63424 384.232925 
L 674.892288 384.25374 
L 675.892224 384.357816 
L 676.150272 384.378632 
L 677.150208 384.482708 
L 677.408256 384.503523 
L 678.50496 384.607599 
L 678.763008 384.628415 
L 679.95648 384.732491 
L 680.214528 384.753306 
L 681.408 384.857382 
L 681.666048 384.878198 
L 682.956288 384.982274 
L 683.214336 385.003089 
L 684.601344 385.107165 
L 684.859392 385.127981 
L 686.343168 385.232057 
L 686.601216 385.252872 
L 688.084992 385.356948 
L 688.34304 385.373601 
L 690.020352 385.48184 
L 690.2784 385.502655 
L 692.05248 385.606731 
L 692.310528 385.627547 
L 694.278144 385.731623 
L 694.536192 385.752438 
L 696.600576 385.856515 
L 696.858624 385.87733 
L 699.213312 385.981406 
L 699.535872 385.998058 
L 701.922816 386.106298 
L 702.180864 386.12295 
L 705.019392 386.231189 
L 705.27744 386.247841 
L 708.406272 386.356081 
L 708.66432 386.372733 
L 712.180224 386.480972 
L 712.438272 386.497624 
L 716.438016 386.605864 
L 716.696064 386.622516 
L 721.373184 386.730755 
L 721.695744 386.747407 
L 727.276032 386.855647 
L 727.630848 386.876462 
L 734.533632 386.980538 
L 734.888448 387.001353 
L 737.888256 387.038821 
L 737.952768 387.205343 
L 737.985024 387.038821 
L 738.01728 386.959723 
L 738.081792 387.072125 
L 738.33984 387.030495 
L 818.528256 387.034658 
L 818.560512 387.246973 
L 818.625024 387.034658 
L 818.81856 387.013843 
L 819.850752 387.038821 
L 899.168256 387.034658 
L 899.200512 387.246973 
L 899.265024 387.034658 
L 899.45856 387.013843 
L 900.490752 387.038821 
L 947.52 387.038821 
L 947.52 387.038821 
" clip-path="url(#p9686d65982)" style="fill: none; stroke: #ff00ff; stroke-width: 2; stroke-linecap: square"/>
   </g>
   <g id="patch_22">
    <path d="M 100.8 465.442759 
L 100.8 372.711724 
" style="fill: none; stroke: #bcbcbc; stroke-width: 0.8; stroke-linejoin: miter; stroke-linecap: square"/>
   </g>
   <g id="patch_23">
    <path d="M 987.84 465.442759 
L 987.84 372.711724 
" style="fill: none; stroke: #bcbcbc; stroke-width: 0.8; stroke-linejoin: miter; stroke-linecap: square"/>
   </g>
   <g id="patch_24">
    <path d="M 100.8 465.442759 
L 987.84 465.442759 
" style="fill: none; stroke: #bcbcbc; stroke-width: 0.8; stroke-linejoin: miter; stroke-linecap: square"/>
   </g>
   <g id="patch_25">
    <path d="M 100.8 372.711724 
L 987.84 372.711724 
" style="fill: none; stroke: #bcbcbc; stroke-width: 0.8; stroke-linejoin: miter; stroke-linecap: square"/>
   </g>
  </g>
  <g id="axes_5">
   <g id="patch_26">
    <path d="M 100.8 576.72 
L 987.84 576.72 
L 987.84 483.988966 
L 100.8 483.988966 
z
" style="fill: #eeeeee"/>
   </g>
   <g id="matplotlib.axis_9">
    <g id="xtick_25">
     <g id="line2d_73">
      <path d="M 141.12 576.72 
L 141.12 483.988966 
" clip-path="url(#p6954683011)" style="fill: none; stroke-dasharray: 1.85,0.8; stroke-dashoffset: 0; stroke: #b2b2b2; stroke-width: 0.5"/>
     </g>
     <g id="line2d_74">
      <g>
       <use xlink:href="#m00f12d51bd" x="141.12" y="576.72" style="stroke: #000000; stroke-width: 0.8"/>
      </g>
     </g>
     <g id="text_15">
      <!-- 0 s -->
      <g transform="translate(130.795 590.857813) scale(0.14 -0.14)">
       <defs>
        <path id="DejaVuSans-73" d="M 2834 3397 
L 2834 2853 
Q 2591 2978 2328 3040 
Q 2066 3103 1784 3103 
Q 1356 3103 1142 2972 
Q 928 2841 928 2578 
Q 928 2378 1081 2264 
Q 1234 2150 1697 2047 
L 1894 2003 
Q 2506 1872 2764 1633 
Q 3022 1394 3022 966 
Q 3022 478 2636 193 
Q 2250 -91 1575 -91 
Q 1294 -91 989 -36 
Q 684 19 347 128 
L 347 722 
Q 666 556 975 473 
Q 1284 391 1588 391 
Q 1994 391 2212 530 
Q 2431 669 2431 922 
Q 2431 1156 2273 1281 
Q 2116 1406 1581 1522 
L 1381 1569 
Q 847 1681 609 1914 
Q 372 2147 372 2553 
Q 372 3047 722 3315 
Q 1072 3584 1716 3584 
Q 2034 3584 2315 3537 
Q 2597 3491 2834 3397 
z
" transform="scale(0.015625)"/>
       </defs>
       <use xlink:href="#DejaVuSans-30"/>
       <use xlink:href="#DejaVuSans-20" x="63.623047"/>
       <use xlink:href="#DejaVuSans-73" x="95.410156"/>
      </g>
     </g>
    </g>
    <g id="xtick_26">
     <g id="line2d_75">
      <path d="M 302.4 576.72 
L 302.4 483.988966 
" clip-path="url(#p6954683011)" style="fill: none; stroke-dasharray: 1.85,0.8; stroke-dashoffset: 0; stroke: #b2b2b2; stroke-width: 0.5"/>
     </g>
     <g id="line2d_76">
      <g>
       <use xlink:href="#m00f12d51bd" x="302.4" y="576.72" style="stroke: #000000; stroke-width: 0.8"/>
      </g>
     </g>
     <g id="text_16">
      <!-- 50 ns -->
      <g transform="translate(283.185 590.857813) scale(0.14 -0.14)">
       <defs>
        <path id="DejaVuSans-35" d="M 691 4666 
L 3169 4666 
L 3169 4134 
L 1269 4134 
L 1269 2991 
Q 1406 3038 1543 3061 
Q 1681 3084 1819 3084 
Q 2600 3084 3056 2656 
Q 3513 2228 3513 1497 
Q 3513 744 3044 326 
Q 2575 -91 1722 -91 
Q 1428 -91 1123 -41 
Q 819 9 494 109 
L 494 744 
Q 775 591 1075 516 
Q 1375 441 1709 441 
Q 2250 441 2565 725 
Q 2881 1009 2881 1497 
Q 2881 1984 2565 2268 
Q 2250 2553 1709 2553 
Q 1456 2553 1204 2497 
Q 953 2441 691 2322 
L 691 4666 
z
" transform="scale(0.015625)"/>
        <path id="DejaVuSans-6e" d="M 3513 2113 
L 3513 0 
L 2938 0 
L 2938 2094 
Q 2938 2591 2744 2837 
Q 2550 3084 2163 3084 
Q 1697 3084 1428 2787 
Q 1159 2491 1159 1978 
L 1159 0 
L 581 0 
L 581 3500 
L 1159 3500 
L 1159 2956 
Q 1366 3272 1645 3428 
Q 1925 3584 2291 3584 
Q 2894 3584 3203 3211 
Q 3513 2838 3513 2113 
z
" transform="scale(0.015625)"/>
       </defs>
       <use xlink:href="#DejaVuSans-35"/>
       <use xlink:href="#DejaVuSans-30" x="63.623047"/>
       <use xlink:href="#DejaVuSans-20" x="127.246094"/>
       <use xlink:href="#DejaVuSans-6e" x="159.033203"/>
       <use xlink:href="#DejaVuSans-73" x="222.412109"/>
      </g>
     </g>
    </g>
    <g id="xtick_27">
     <g id="line2d_77">
      <path d="M 463.68 576.72 
L 463.68 483.988966 
" clip-path="url(#p6954683011)" style="fill: none; stroke-dasharray: 1.85,0.8; stroke-dashoffset: 0; stroke: #b2b2b2; stroke-width: 0.5"/>
     </g>
     <g id="line2d_78">
      <g>
       <use xlink:href="#m00f12d51bd" x="463.68" y="576.72" style="stroke: #000000; stroke-width: 0.8"/>
      </g>
     </g>
     <g id="text_17">
      <!-- 100 ns -->
      <g transform="translate(440.01125 590.857813) scale(0.14 -0.14)">
       <use xlink:href="#DejaVuSans-31"/>
       <use xlink:href="#DejaVuSans-30" x="63.623047"/>
       <use xlink:href="#DejaVuSans-30" x="127.246094"/>
       <use xlink:href="#DejaVuSans-20" x="190.869141"/>
       <use xlink:href="#DejaVuSans-6e" x="222.65625"/>
       <use xlink:href="#DejaVuSans-73" x="286.035156"/>
      </g>
     </g>
    </g>
    <g id="xtick_28">
     <g id="line2d_79">
      <path d="M 624.96 576.72 
L 624.96 483.988966 
" clip-path="url(#p6954683011)" style="fill: none; stroke-dasharray: 1.85,0.8; stroke-dashoffset: 0; stroke: #b2b2b2; stroke-width: 0.5"/>
     </g>
     <g id="line2d_80">
      <g>
       <use xlink:href="#m00f12d51bd" x="624.96" y="576.72" style="stroke: #000000; stroke-width: 0.8"/>
      </g>
     </g>
     <g id="text_18">
      <!-- 150 ns -->
      <g transform="translate(601.29125 590.857813) scale(0.14 -0.14)">
       <use xlink:href="#DejaVuSans-31"/>
       <use xlink:href="#DejaVuSans-35" x="63.623047"/>
       <use xlink:href="#DejaVuSans-30" x="127.246094"/>
       <use xlink:href="#DejaVuSans-20" x="190.869141"/>
       <use xlink:href="#DejaVuSans-6e" x="222.65625"/>
       <use xlink:href="#DejaVuSans-73" x="286.035156"/>
      </g>
     </g>
    </g>
    <g id="xtick_29">
     <g id="line2d_81">
      <path d="M 786.24 576.72 
L 786.24 483.988966 
" clip-path="url(#p6954683011)" style="fill: none; stroke-dasharray: 1.85,0.8; stroke-dashoffset: 0; stroke: #b2b2b2; stroke-width: 0.5"/>
     </g>
     <g id="line2d_82">
      <g>
       <use xlink:href="#m00f12d51bd" x="786.24" y="576.72" style="stroke: #000000; stroke-width: 0.8"/>
      </g>
     </g>
     <g id="text_19">
      <!-- 200 ns -->
      <g transform="translate(762.57125 590.857813) scale(0.14 -0.14)">
       <use xlink:href="#DejaVuSans-32"/>
       <use xlink:href="#DejaVuSans-30" x="63.623047"/>
       <use xlink:href="#DejaVuSans-30" x="127.246094"/>
       <use xlink:href="#DejaVuSans-20" x="190.869141"/>
       <use xlink:href="#DejaVuSans-6e" x="222.65625"/>
       <use xlink:href="#DejaVuSans-73" x="286.035156"/>
      </g>
     </g>
    </g>
    <g id="xtick_30">
     <g id="line2d_83">
      <path d="M 947.52 576.72 
L 947.52 483.988966 
" clip-path="url(#p6954683011)" style="fill: none; stroke-dasharray: 1.85,0.8; stroke-dashoffset: 0; stroke: #b2b2b2; stroke-width: 0.5"/>
     </g>
     <g id="line2d_84">
      <g>
       <use xlink:href="#m00f12d51bd" x="947.52" y="576.72" style="stroke: #000000; stroke-width: 0.8"/>
      </g>
     </g>
     <g id="text_20">
      <!-- 250 ns -->
      <g transform="translate(923.85125 590.857813) scale(0.14 -0.14)">
       <use xlink:href="#DejaVuSans-32"/>
       <use xlink:href="#DejaVuSans-35" x="63.623047"/>
       <use xlink:href="#DejaVuSans-30" x="127.246094"/>
       <use xlink:href="#DejaVuSans-20" x="190.869141"/>
       <use xlink:href="#DejaVuSans-6e" x="222.65625"/>
       <use xlink:href="#DejaVuSans-73" x="286.035156"/>
      </g>
     </g>
    </g>
    <g id="text_21">
     <!-- Time -->
     <g transform="translate(527.192969 608.407187) scale(0.14 -0.14)">
      <defs>
       <path id="DejaVuSans-69" d="M 603 3500 
L 1178 3500 
L 1178 0 
L 603 0 
L 603 3500 
z
M 603 4863 
L 1178 4863 
L 1178 4134 
L 603 4134 
L 603 4863 
z
" transform="scale(0.015625)"/>
       <path id="DejaVuSans-6d" d="M 3328 2828 
Q 3544 3216 3844 3400 
Q 4144 3584 4550 3584 
Q 5097 3584 5394 3201 
Q 5691 2819 5691 2113 
L 5691 0 
L 5113 0 
L 5113 2094 
Q 5113 2597 4934 2840 
Q 4756 3084 4391 3084 
Q 3944 3084 3684 2787 
Q 3425 2491 3425 1978 
L 3425 0 
L 2847 0 
L 2847 2094 
Q 2847 2600 2669 2842 
Q 2491 3084 2119 3084 
Q 1678 3084 1418 2786 
Q 1159 2488 1159 1978 
L 1159 0 
L 581 0 
L 581 3500 
L 1159 3500 
L 1159 2956 
Q 1356 3278 1631 3431 
Q 1906 3584 2284 3584 
Q 2666 3584 2933 3390 
Q 3200 3197 3328 2828 
z
" transform="scale(0.015625)"/>
       <path id="DejaVuSans-65" d="M 3597 1894 
L 3597 1613 
L 953 1613 
Q 991 1019 1311 708 
Q 1631 397 2203 397 
Q 2534 397 2845 478 
Q 3156 559 3463 722 
L 3463 178 
Q 3153 47 2828 -22 
Q 2503 -91 2169 -91 
Q 1331 -91 842 396 
Q 353 884 353 1716 
Q 353 2575 817 3079 
Q 1281 3584 2069 3584 
Q 2775 3584 3186 3129 
Q 3597 2675 3597 1894 
z
M 3022 2063 
Q 3016 2534 2758 2815 
Q 2500 3097 2075 3097 
Q 1594 3097 1305 2825 
Q 1016 2553 972 2059 
L 3022 2063 
z
" transform="scale(0.015625)"/>
      </defs>
      <use xlink:href="#DejaVuSans-54"/>
      <use xlink:href="#DejaVuSans-69" x="57.958984"/>
      <use xlink:href="#DejaVuSans-6d" x="85.742188"/>
      <use xlink:href="#DejaVuSans-65" x="183.154297"/>
     </g>
    </g>
   </g>
   <g id="matplotlib.axis_10">
    <g id="ytick_11">
     <g id="line2d_85">
      <path d="M 100.8 569.749641 
L 987.84 569.749641 
" clip-path="url(#p6954683011)" style="fill: none; stroke-dasharray: 1.85,0.8; stroke-dashoffset: 0; stroke: #b2b2b2; stroke-width: 0.5"/>
     </g>
     <g id="line2d_86">
      <g>
       <use xlink:href="#meab18e7564" x="100.8" y="569.749641" style="stroke: #000000; stroke-width: 0.8"/>
      </g>
     </g>
     <g id="text_22">
      <!-- 0 V -->
      <g transform="translate(74.36625 575.068547) scale(0.14 -0.14)">
       <use xlink:href="#DejaVuSans-30"/>
       <use xlink:href="#DejaVuSans-20" x="63.623047"/>
       <use xlink:href="#DejaVuSans-56" x="95.410156"/>
      </g>
     </g>
    </g>
    <g id="ytick_12">
     <g id="line2d_87">
      <path d="M 100.8 536.000105 
L 987.84 536.000105 
" clip-path="url(#p6954683011)" style="fill: none; stroke-dasharray: 1.85,0.8; stroke-dashoffset: 0; stroke: #b2b2b2; stroke-width: 0.5"/>
     </g>
     <g id="line2d_88">
      <g>
       <use xlink:href="#meab18e7564" x="100.8" y="536.000105" style="stroke: #000000; stroke-width: 0.8"/>
      </g>
     </g>
     <g id="text_23">
      <!-- 500 mV -->
      <g transform="translate(42.914375 541.319011) scale(0.14 -0.14)">
       <use xlink:href="#DejaVuSans-35"/>
       <use xlink:href="#DejaVuSans-30" x="63.623047"/>
       <use xlink:href="#DejaVuSans-30" x="127.246094"/>
       <use xlink:href="#DejaVuSans-20" x="190.869141"/>
       <use xlink:href="#DejaVuSans-6d" x="222.65625"/>
       <use xlink:href="#DejaVuSans-56" x="320.068359"/>
      </g>
     </g>
    </g>
    <g id="ytick_13">
     <g id="line2d_89">
      <path d="M 100.8 502.250569 
L 987.84 502.250569 
" clip-path="url(#p6954683011)" style="fill: none; stroke-dasharray: 1.85,0.8; stroke-dashoffset: 0; stroke: #b2b2b2; stroke-width: 0.5"/>
     </g>
     <g id="line2d_90">
      <g>
       <use xlink:href="#meab18e7564" x="100.8" y="502.250569" style="stroke: #000000; stroke-width: 0.8"/>
      </g>
     </g>
     <g id="text_24">
      <!-- 1 V -->
      <g transform="translate(74.36625 507.569476) scale(0.14 -0.14)">
       <use xlink:href="#DejaVuSans-31"/>
       <use xlink:href="#DejaVuSans-20" x="63.623047"/>
       <use xlink:href="#DejaVuSans-56" x="95.410156"/>
      </g>
     </g>
    </g>
    <g id="text_25">
     <g id="patch_27">
      <path d="M 34.8768 554.329483 
L 34.8768 506.379483 
L 11.247425 506.379483 
L 11.247425 554.329483 
z
" style="fill: #ffff00; opacity: 0.2; stroke: #eeeeee; stroke-width: 0.5; stroke-linejoin: miter"/>
     </g>
     <!-- FOUT -->
     <g transform="translate(26.925238 549.289483) rotate(-90) scale(0.14 -0.14)">
      <use xlink:href="#DejaVuSans-46"/>
      <use xlink:href="#DejaVuSans-4f" x="57.519531"/>
      <use xlink:href="#DejaVuSans-55" x="136.230469"/>
      <use xlink:href="#DejaVuSans-54" x="209.423828"/>
     </g>
    </g>
   </g>
   <g id="line2d_91">
    <path d="M 141.12 488.750755 
L 173.472768 488.757505 
L 173.505024 488.561758 
L 173.569536 526.851956 
L 173.69856 572.504953 
L 173.730816 572.369685 
L 173.827584 567.848462 
L 173.892096 569.36518 
L 174.053376 570.067514 
L 174.117888 569.950147 
L 174.408192 569.496155 
L 174.440448 569.545544 
L 174.66624 569.733731 
L 176.182272 569.743914 
L 180.117504 569.765184 
L 193.632768 569.75551 
L 212.986368 569.747766 
L 255.30624 569.747463 
L 255.6288 488.642757 
L 255.854592 488.784505 
L 256.209408 488.744005 
L 334.849536 488.764255 
L 334.881792 492.962697 
L 335.043072 572.184197 
L 335.107584 570.264261 
L 335.172096 568.34431 
L 335.236608 568.875055 
L 335.365632 570.785347 
L 335.430144 570.412934 
L 335.591424 569.800898 
L 335.881728 569.652327 
L 336.559104 569.821581 
L 337.107456 569.749898 
L 350.009856 569.747964 
L 416.489472 569.747089 
L 416.553984 567.487679 
L 416.812032 488.318761 
L 416.844288 488.453759 
L 416.973312 488.966752 
L 417.037824 488.892503 
L 417.39264 488.663006 
L 417.844224 488.831754 
L 418.457088 488.676506 
L 419.328 488.750755 
L 510.580224 488.649506 
L 510.61248 488.507758 
L 510.644736 488.899253 
L 510.709248 516.235702 
L 510.838272 570.139576 
L 510.870528 569.794228 
L 510.999552 569.749619 
L 512.8704 569.747964 
L 557.06112 569.813531 
L 557.125632 566.92332 
L 557.512704 488.757505 
L 576.769536 488.771005 
L 576.801792 488.204013 
L 576.963072 569.821311 
L 577.027584 569.747978 
L 615.476736 569.747963 
L 658.312704 569.741216 
L 658.34496 569.966718 
L 658.409472 551.701739 
L 658.570752 489.607993 
L 658.699776 488.757505 
L 947.52 488.750755 
L 947.52 488.750755 
" clip-path="url(#p6954683011)" style="fill: none; stroke: #ff00ff; stroke-width: 2; stroke-linecap: square"/>
   </g>
   <g id="patch_28">
    <path d="M 100.8 576.72 
L 100.8 483.988966 
" style="fill: none; stroke: #bcbcbc; stroke-width: 0.8; stroke-linejoin: miter; stroke-linecap: square"/>
   </g>
   <g id="patch_29">
    <path d="M 987.84 576.72 
L 987.84 483.988966 
" style="fill: none; stroke: #bcbcbc; stroke-width: 0.8; stroke-linejoin: miter; stroke-linecap: square"/>
   </g>
   <g id="patch_30">
    <path d="M 100.8 576.72 
L 987.84 576.72 
" style="fill: none; stroke: #bcbcbc; stroke-width: 0.8; stroke-linejoin: miter; stroke-linecap: square"/>
   </g>
   <g id="patch_31">
    <path d="M 100.8 483.988966 
L 987.84 483.988966 
" style="fill: none; stroke: #bcbcbc; stroke-width: 0.8; stroke-linejoin: miter; stroke-linecap: square"/>
   </g>
  </g>
  <g id="axes_6">
   <g id="patch_32">
    <path d="M 201.6 628.56 
L 856.8 628.56 
L 856.8 615.6 
L 201.6 615.6 
z
" clip-path="url(#p3c90e0e866)" style="fill: #d3d3d3"/>
   </g>
   <g id="patch_33">
    <path d="M 201.6 628.56 
L 646.2 628.56 
L 646.2 615.6 
L 201.6 615.6 
z
" clip-path="url(#p3c90e0e866)" style="fill: #0000ff"/>
   </g>
   <g id="line2d_92">
    <path d="M 201.6 635.04 
L 201.6 609.12 
" clip-path="url(#pb392c6e8c3)" style="fill: none; stroke: #ff0000; stroke-linecap: square"/>
   </g>
   <g id="line2d_93">
    <defs>
     <path id="m0e45384034" d="M 0 5 
C 1.326016 5 2.597899 4.473168 3.535534 3.535534 
C 4.473168 2.597899 5 1.326016 5 0 
C 5 -1.326016 4.473168 -2.597899 3.535534 -3.535534 
C 2.597899 -4.473168 1.326016 -5 0 -5 
C -1.326016 -5 -2.597899 -4.473168 -3.535534 -3.535534 
C -4.473168 -2.597899 -5 -1.326016 -5 0 
C -5 1.326016 -4.473168 2.597899 -3.535534 3.535534 
C -2.597899 4.473168 -1.326016 5 0 5 
z
" style="stroke: #bfbfbf"/>
    </defs>
    <g>
     <use xlink:href="#m0e45384034" x="646.2" y="622.08" style="fill: #ffffff; stroke: #bfbfbf"/>
    </g>
   </g>
   <g id="text_26">
    <!-- #Sweep -->
    <g transform="translate(138.622875 625.39125) scale(0.12 -0.12)">
     <defs>
      <path id="DejaVuSans-23" d="M 3272 2816 
L 2363 2816 
L 2100 1772 
L 3016 1772 
L 3272 2816 
z
M 2803 4594 
L 2478 3297 
L 3391 3297 
L 3719 4594 
L 4219 4594 
L 3897 3297 
L 4872 3297 
L 4872 2816 
L 3775 2816 
L 3519 1772 
L 4513 1772 
L 4513 1294 
L 3397 1294 
L 3072 0 
L 2572 0 
L 2894 1294 
L 1978 1294 
L 1656 0 
L 1153 0 
L 1478 1294 
L 494 1294 
L 494 1772 
L 1594 1772 
L 1856 2816 
L 850 2816 
L 850 3297 
L 1978 3297 
L 2297 4594 
L 2803 4594 
z
" transform="scale(0.015625)"/>
      <path id="DejaVuSans-77" d="M 269 3500 
L 844 3500 
L 1563 769 
L 2278 3500 
L 2956 3500 
L 3675 769 
L 4391 3500 
L 4966 3500 
L 4050 0 
L 3372 0 
L 2619 2869 
L 1863 0 
L 1184 0 
L 269 3500 
z
" transform="scale(0.015625)"/>
      <path id="DejaVuSans-70" d="M 1159 525 
L 1159 -1331 
L 581 -1331 
L 581 3500 
L 1159 3500 
L 1159 2969 
Q 1341 3281 1617 3432 
Q 1894 3584 2278 3584 
Q 2916 3584 3314 3078 
Q 3713 2572 3713 1747 
Q 3713 922 3314 415 
Q 2916 -91 2278 -91 
Q 1894 -91 1617 61 
Q 1341 213 1159 525 
z
M 3116 1747 
Q 3116 2381 2855 2742 
Q 2594 3103 2138 3103 
Q 1681 3103 1420 2742 
Q 1159 2381 1159 1747 
Q 1159 1113 1420 752 
Q 1681 391 2138 391 
Q 2594 391 2855 752 
Q 3116 1113 3116 1747 
z
" transform="scale(0.015625)"/>
     </defs>
     <use xlink:href="#DejaVuSans-23"/>
     <use xlink:href="#DejaVuSans-53" x="83.789062"/>
     <use xlink:href="#DejaVuSans-77" x="147.265625"/>
     <use xlink:href="#DejaVuSans-65" x="229.052734"/>
     <use xlink:href="#DejaVuSans-65" x="290.576172"/>
     <use xlink:href="#DejaVuSans-70" x="352.099609"/>
    </g>
   </g>
   <g id="text_27">
    <!-- $\mathdefault{95}$ -->
    <g transform="translate(869.904 625.39125) scale(0.12 -0.12)">
     <defs>
      <path id="DejaVuSans-39" d="M 703 97 
L 703 672 
Q 941 559 1184 500 
Q 1428 441 1663 441 
Q 2288 441 2617 861 
Q 2947 1281 2994 2138 
Q 2813 1869 2534 1725 
Q 2256 1581 1919 1581 
Q 1219 1581 811 2004 
Q 403 2428 403 3163 
Q 403 3881 828 4315 
Q 1253 4750 1959 4750 
Q 2769 4750 3195 4129 
Q 3622 3509 3622 2328 
Q 3622 1225 3098 567 
Q 2575 -91 1691 -91 
Q 1453 -91 1209 -44 
Q 966 3 703 97 
z
M 1959 2075 
Q 2384 2075 2632 2365 
Q 2881 2656 2881 3163 
Q 2881 3666 2632 3958 
Q 2384 4250 1959 4250 
Q 1534 4250 1286 3958 
Q 1038 3666 1038 3163 
Q 1038 2656 1286 2365 
Q 1534 2075 1959 2075 
z
" transform="scale(0.015625)"/>
     </defs>
     <use xlink:href="#DejaVuSans-39" transform="translate(0 0.78125)"/>
     <use xlink:href="#DejaVuSans-35" transform="translate(63.623047 0.78125)"/>
    </g>
   </g>
  </g>
  <g id="text_28">
   <!-- DFF under BBI sweep analysis (Sweep = 105E-9) -->
   <g transform="translate(308.25625 25.1175) scale(0.16 -0.16)">
    <defs>
     <path id="DejaVuSans-75" d="M 544 1381 
L 544 3500 
L 1119 3500 
L 1119 1403 
Q 1119 906 1312 657 
Q 1506 409 1894 409 
Q 2359 409 2629 706 
Q 2900 1003 2900 1516 
L 2900 3500 
L 3475 3500 
L 3475 0 
L 2900 0 
L 2900 538 
Q 2691 219 2414 64 
Q 2138 -91 1772 -91 
Q 1169 -91 856 284 
Q 544 659 544 1381 
z
M 1991 3584 
L 1991 3584 
z
" transform="scale(0.015625)"/>
     <path id="DejaVuSans-64" d="M 2906 2969 
L 2906 4863 
L 3481 4863 
L 3481 0 
L 2906 0 
L 2906 525 
Q 2725 213 2448 61 
Q 2172 -91 1784 -91 
Q 1150 -91 751 415 
Q 353 922 353 1747 
Q 353 2572 751 3078 
Q 1150 3584 1784 3584 
Q 2172 3584 2448 3432 
Q 2725 3281 2906 2969 
z
M 947 1747 
Q 947 1113 1208 752 
Q 1469 391 1925 391 
Q 2381 391 2643 752 
Q 2906 1113 2906 1747 
Q 2906 2381 2643 2742 
Q 2381 3103 1925 3103 
Q 1469 3103 1208 2742 
Q 947 2381 947 1747 
z
" transform="scale(0.015625)"/>
     <path id="DejaVuSans-72" d="M 2631 2963 
Q 2534 3019 2420 3045 
Q 2306 3072 2169 3072 
Q 1681 3072 1420 2755 
Q 1159 2438 1159 1844 
L 1159 0 
L 581 0 
L 581 3500 
L 1159 3500 
L 1159 2956 
Q 1341 3275 1631 3429 
Q 1922 3584 2338 3584 
Q 2397 3584 2469 3576 
Q 2541 3569 2628 3553 
L 2631 2963 
z
" transform="scale(0.015625)"/>
     <path id="DejaVuSans-61" d="M 2194 1759 
Q 1497 1759 1228 1600 
Q 959 1441 959 1056 
Q 959 750 1161 570 
Q 1363 391 1709 391 
Q 2188 391 2477 730 
Q 2766 1069 2766 1631 
L 2766 1759 
L 2194 1759 
z
M 3341 1997 
L 3341 0 
L 2766 0 
L 2766 531 
Q 2569 213 2275 61 
Q 1981 -91 1556 -91 
Q 1019 -91 701 211 
Q 384 513 384 1019 
Q 384 1609 779 1909 
Q 1175 2209 1959 2209 
L 2766 2209 
L 2766 2266 
Q 2766 2663 2505 2880 
Q 2244 3097 1772 3097 
Q 1472 3097 1187 3025 
Q 903 2953 641 2809 
L 641 3341 
Q 956 3463 1253 3523 
Q 1550 3584 1831 3584 
Q 2591 3584 2966 3190 
Q 3341 2797 3341 1997 
z
" transform="scale(0.015625)"/>
     <path id="DejaVuSans-6c" d="M 603 4863 
L 1178 4863 
L 1178 0 
L 603 0 
L 603 4863 
z
" transform="scale(0.015625)"/>
     <path id="DejaVuSans-79" d="M 2059 -325 
Q 1816 -950 1584 -1140 
Q 1353 -1331 966 -1331 
L 506 -1331 
L 506 -850 
L 844 -850 
Q 1081 -850 1212 -737 
Q 1344 -625 1503 -206 
L 1606 56 
L 191 3500 
L 800 3500 
L 1894 763 
L 2988 3500 
L 3597 3500 
L 2059 -325 
z
" transform="scale(0.015625)"/>
     <path id="DejaVuSans-28" d="M 1984 4856 
Q 1566 4138 1362 3434 
Q 1159 2731 1159 2009 
Q 1159 1288 1364 580 
Q 1569 -128 1984 -844 
L 1484 -844 
Q 1016 -109 783 600 
Q 550 1309 550 2009 
Q 550 2706 781 3412 
Q 1013 4119 1484 4856 
L 1984 4856 
z
" transform="scale(0.015625)"/>
     <path id="DejaVuSans-3d" d="M 678 2906 
L 4684 2906 
L 4684 2381 
L 678 2381 
L 678 2906 
z
M 678 1631 
L 4684 1631 
L 4684 1100 
L 678 1100 
L 678 1631 
z
" transform="scale(0.015625)"/>
     <path id="DejaVuSans-2d" d="M 313 2009 
L 1997 2009 
L 1997 1497 
L 313 1497 
L 313 2009 
z
" transform="scale(0.015625)"/>
     <path id="DejaVuSans-29" d="M 513 4856 
L 1013 4856 
Q 1481 4119 1714 3412 
Q 1947 2706 1947 2009 
Q 1947 1309 1714 600 
Q 1481 -109 1013 -844 
L 513 -844 
Q 928 -128 1133 580 
Q 1338 1288 1338 2009 
Q 1338 2731 1133 3434 
Q 928 4138 513 4856 
z
" transform="scale(0.015625)"/>
    </defs>
    <use xlink:href="#DejaVuSans-44"/>
    <use xlink:href="#DejaVuSans-46" x="77.001953"/>
    <use xlink:href="#DejaVuSans-46" x="134.521484"/>
    <use xlink:href="#DejaVuSans-20" x="192.041016"/>
    <use xlink:href="#DejaVuSans-75" x="223.828125"/>
    <use xlink:href="#DejaVuSans-6e" x="287.207031"/>
    <use xlink:href="#DejaVuSans-64" x="350.585938"/>
    <use xlink:href="#DejaVuSans-65" x="414.0625"/>
    <use xlink:href="#DejaVuSans-72" x="475.585938"/>
    <use xlink:href="#DejaVuSans-20" x="516.699219"/>
    <use xlink:href="#DejaVuSans-42" x="548.486328"/>
    <use xlink:href="#DejaVuSans-42" x="617.089844"/>
    <use xlink:href="#DejaVuSans-49" x="685.693359"/>
    <use xlink:href="#DejaVuSans-20" x="715.185547"/>
    <use xlink:href="#DejaVuSans-73" x="746.972656"/>
    <use xlink:href="#DejaVuSans-77" x="799.072266"/>
    <use xlink:href="#DejaVuSans-65" x="880.859375"/>
    <use xlink:href="#DejaVuSans-65" x="942.382812"/>
    <use xlink:href="#DejaVuSans-70" x="1003.90625"/>
    <use xlink:href="#DejaVuSans-20" x="1067.382812"/>
    <use xlink:href="#DejaVuSans-61" x="1099.169922"/>
    <use xlink:href="#DejaVuSans-6e" x="1160.449219"/>
    <use xlink:href="#DejaVuSans-61" x="1223.828125"/>
    <use xlink:href="#DejaVuSans-6c" x="1285.107422"/>
    <use xlink:href="#DejaVuSans-79" x="1312.890625"/>
    <use xlink:href="#DejaVuSans-73" x="1372.070312"/>
    <use xlink:href="#DejaVuSans-69" x="1424.169922"/>
    <use xlink:href="#DejaVuSans-73" x="1451.953125"/>
    <use xlink:href="#DejaVuSans-20" x="1504.052734"/>
    <use xlink:href="#DejaVuSans-28" x="1535.839844"/>
    <use xlink:href="#DejaVuSans-53" x="1574.853516"/>
    <use xlink:href="#DejaVuSans-77" x="1638.330078"/>
    <use xlink:href="#DejaVuSans-65" x="1720.117188"/>
    <use xlink:href="#DejaVuSans-65" x="1781.640625"/>
    <use xlink:href="#DejaVuSans-70" x="1843.164062"/>
    <use xlink:href="#DejaVuSans-20" x="1906.640625"/>
    <use xlink:href="#DejaVuSans-3d" x="1938.427734"/>
    <use xlink:href="#DejaVuSans-20" x="2022.216797"/>
    <use xlink:href="#DejaVuSans-31" x="2054.003906"/>
    <use xlink:href="#DejaVuSans-30" x="2117.626953"/>
    <use xlink:href="#DejaVuSans-35" x="2181.25"/>
    <use xlink:href="#DejaVuSans-45" x="2244.873047"/>
    <use xlink:href="#DejaVuSans-2d" x="2308.056641"/>
    <use xlink:href="#DejaVuSans-39" x="2344.140625"/>
    <use xlink:href="#DejaVuSans-29" x="2407.763672"/>
   </g>
  </g>
 </g>
 <defs>
  <clipPath id="p348457b4e0">
   <rect x="100.8" y="38.88" width="887.04" height="92.731034"/>
  </clipPath>
  <clipPath id="p99f481f322">
   <rect x="100.8" y="150.157241" width="887.04" height="92.731034"/>
  </clipPath>
  <clipPath id="p91cf5daa38">
   <rect x="100.8" y="261.434483" width="887.04" height="92.731034"/>
  </clipPath>
  <clipPath id="p9686d65982">
   <rect x="100.8" y="372.711724" width="887.04" height="92.731034"/>
  </clipPath>
  <clipPath id="p6954683011">
   <rect x="100.8" y="483.988966" width="887.04" height="92.731034"/>
  </clipPath>
  <clipPath id="p3c90e0e866">
   <rect x="201.6" y="609.12" width="655.2" height="25.92"/>
  </clipPath>
  <clipPath id="pb392c6e8c3">
   <path d="M 201.6 628.56 
L 856.8 628.56 
L 856.8 615.6 
L 201.6 615.6 
z
"/>
  </clipPath>
 </defs>
</svg>
