<?xml version="1.0" encoding="utf-8" standalone="no"?>
<!DOCTYPE svg PUBLIC "-//W3C//DTD SVG 1.1//EN"
  "http://www.w3.org/Graphics/SVG/1.1/DTD/svg11.dtd">
<svg xmlns:xlink="http://www.w3.org/1999/xlink" width="1008pt" height="648pt" viewBox="0 0 1008 648" xmlns="http://www.w3.org/2000/svg" version="1.1">
 <metadata>
  <rdf:RDF xmlns:dc="http://purl.org/dc/elements/1.1/" xmlns:cc="http://creativecommons.org/ns#" xmlns:rdf="http://www.w3.org/1999/02/22-rdf-syntax-ns#">
   <cc:Work>
    <dc:type rdf:resource="http://purl.org/dc/dcmitype/StillImage"/>
    <dc:date>2024-06-03T10:45:32.597460</dc:date>
    <dc:format>image/svg+xml</dc:format>
    <dc:creator>
     <cc:Agent>
      <dc:title>Matplotlib v3.9.0, https://matplotlib.org/</dc:title>
     </cc:Agent>
    </dc:creator>
   </cc:Work>
  </rdf:RDF>
 </metadata>
 <defs>
  <style type="text/css">*{stroke-linejoin: round; stroke-linecap: butt}</style>
 </defs>
 <g id="figure_1">
  <g id="patch_1">
   <path d="M 0 648 
L 1008 648 
L 1008 0 
L 0 0 
z
" style="fill: #ffffff"/>
  </g>
  <g id="axes_1">
   <g id="patch_2">
    <path d="M 100.8 131.611034 
L 987.84 131.611034 
L 987.84 38.88 
L 100.8 38.88 
z
" style="fill: #eeeeee"/>
   </g>
   <g id="matplotlib.axis_1">
    <g id="xtick_1">
     <g id="line2d_1">
      <path d="M 141.12 131.611034 
L 141.12 38.88 
" clip-path="url(#paee3439380)" style="fill: none; stroke-dasharray: 1.85,0.8; stroke-dashoffset: 0; stroke: #b2b2b2; stroke-width: 0.5"/>
     </g>
     <g id="line2d_2">
      <defs>
       <path id="m30c27f58e9" d="M 0 0 
L 0 -3.5 
" style="stroke: #000000; stroke-width: 0.8"/>
      </defs>
      <g>
       <use xlink:href="#m30c27f58e9" x="141.12" y="131.611034" style="stroke: #000000; stroke-width: 0.8"/>
      </g>
     </g>
    </g>
    <g id="xtick_2">
     <g id="line2d_3">
      <path d="M 302.4 131.611034 
L 302.4 38.88 
" clip-path="url(#paee3439380)" style="fill: none; stroke-dasharray: 1.85,0.8; stroke-dashoffset: 0; stroke: #b2b2b2; stroke-width: 0.5"/>
     </g>
     <g id="line2d_4">
      <g>
       <use xlink:href="#m30c27f58e9" x="302.4" y="131.611034" style="stroke: #000000; stroke-width: 0.8"/>
      </g>
     </g>
    </g>
    <g id="xtick_3">
     <g id="line2d_5">
      <path d="M 463.68 131.611034 
L 463.68 38.88 
" clip-path="url(#paee3439380)" style="fill: none; stroke-dasharray: 1.85,0.8; stroke-dashoffset: 0; stroke: #b2b2b2; stroke-width: 0.5"/>
     </g>
     <g id="line2d_6">
      <g>
       <use xlink:href="#m30c27f58e9" x="463.68" y="131.611034" style="stroke: #000000; stroke-width: 0.8"/>
      </g>
     </g>
    </g>
    <g id="xtick_4">
     <g id="line2d_7">
      <path d="M 624.96 131.611034 
L 624.96 38.88 
" clip-path="url(#paee3439380)" style="fill: none; stroke-dasharray: 1.85,0.8; stroke-dashoffset: 0; stroke: #b2b2b2; stroke-width: 0.5"/>
     </g>
     <g id="line2d_8">
      <g>
       <use xlink:href="#m30c27f58e9" x="624.96" y="131.611034" style="stroke: #000000; stroke-width: 0.8"/>
      </g>
     </g>
    </g>
    <g id="xtick_5">
     <g id="line2d_9">
      <path d="M 786.24 131.611034 
L 786.24 38.88 
" clip-path="url(#paee3439380)" style="fill: none; stroke-dasharray: 1.85,0.8; stroke-dashoffset: 0; stroke: #b2b2b2; stroke-width: 0.5"/>
     </g>
     <g id="line2d_10">
      <g>
       <use xlink:href="#m30c27f58e9" x="786.24" y="131.611034" style="stroke: #000000; stroke-width: 0.8"/>
      </g>
     </g>
    </g>
    <g id="xtick_6">
     <g id="line2d_11">
      <path d="M 947.52 131.611034 
L 947.52 38.88 
" clip-path="url(#paee3439380)" style="fill: none; stroke-dasharray: 1.85,0.8; stroke-dashoffset: 0; stroke: #b2b2b2; stroke-width: 0.5"/>
     </g>
     <g id="line2d_12">
      <g>
       <use xlink:href="#m30c27f58e9" x="947.52" y="131.611034" style="stroke: #000000; stroke-width: 0.8"/>
      </g>
     </g>
    </g>
   </g>
   <g id="matplotlib.axis_2">
    <g id="ytick_1">
     <g id="line2d_13">
      <path d="M 100.8 98.340394 
L 987.84 98.340394 
" clip-path="url(#paee3439380)" style="fill: none; stroke-dasharray: 1.85,0.8; stroke-dashoffset: 0; stroke: #b2b2b2; stroke-width: 0.5"/>
     </g>
     <g id="line2d_14">
      <defs>
       <path id="m18d0472a4d" d="M 0 0 
L 3.5 0 
" style="stroke: #000000; stroke-width: 0.8"/>
      </defs>
      <g>
       <use xlink:href="#m18d0472a4d" x="100.8" y="98.340394" style="stroke: #000000; stroke-width: 0.8"/>
      </g>
     </g>
     <g id="text_1">
      <!-- −200 V -->
      <g transform="translate(44.819688 103.6593) scale(0.14 -0.14)">
       <defs>
        <path id="DejaVuSans-2212" d="M 678 2272 
L 4684 2272 
L 4684 1741 
L 678 1741 
L 678 2272 
z
" transform="scale(0.015625)"/>
        <path id="DejaVuSans-32" d="M 1228 531 
L 3431 531 
L 3431 0 
L 469 0 
L 469 531 
Q 828 903 1448 1529 
Q 2069 2156 2228 2338 
Q 2531 2678 2651 2914 
Q 2772 3150 2772 3378 
Q 2772 3750 2511 3984 
Q 2250 4219 1831 4219 
Q 1534 4219 1204 4116 
Q 875 4013 500 3803 
L 500 4441 
Q 881 4594 1212 4672 
Q 1544 4750 1819 4750 
Q 2544 4750 2975 4387 
Q 3406 4025 3406 3419 
Q 3406 3131 3298 2873 
Q 3191 2616 2906 2266 
Q 2828 2175 2409 1742 
Q 1991 1309 1228 531 
z
" transform="scale(0.015625)"/>
        <path id="DejaVuSans-30" d="M 2034 4250 
Q 1547 4250 1301 3770 
Q 1056 3291 1056 2328 
Q 1056 1369 1301 889 
Q 1547 409 2034 409 
Q 2525 409 2770 889 
Q 3016 1369 3016 2328 
Q 3016 3291 2770 3770 
Q 2525 4250 2034 4250 
z
M 2034 4750 
Q 2819 4750 3233 4129 
Q 3647 3509 3647 2328 
Q 3647 1150 3233 529 
Q 2819 -91 2034 -91 
Q 1250 -91 836 529 
Q 422 1150 422 2328 
Q 422 3509 836 4129 
Q 1250 4750 2034 4750 
z
" transform="scale(0.015625)"/>
        <path id="DejaVuSans-20" transform="scale(0.015625)"/>
        <path id="DejaVuSans-56" d="M 1831 0 
L 50 4666 
L 709 4666 
L 2188 738 
L 3669 4666 
L 4325 4666 
L 2547 0 
L 1831 0 
z
" transform="scale(0.015625)"/>
       </defs>
       <use xlink:href="#DejaVuSans-2212"/>
       <use xlink:href="#DejaVuSans-32" x="83.789062"/>
       <use xlink:href="#DejaVuSans-30" x="147.412109"/>
       <use xlink:href="#DejaVuSans-30" x="211.035156"/>
       <use xlink:href="#DejaVuSans-20" x="274.658203"/>
       <use xlink:href="#DejaVuSans-56" x="306.445312"/>
      </g>
     </g>
    </g>
    <g id="ytick_2">
     <g id="line2d_15">
      <path d="M 100.8 45.027377 
L 987.84 45.027377 
" clip-path="url(#paee3439380)" style="fill: none; stroke-dasharray: 1.85,0.8; stroke-dashoffset: 0; stroke: #b2b2b2; stroke-width: 0.5"/>
     </g>
     <g id="line2d_16">
      <g>
       <use xlink:href="#m18d0472a4d" x="100.8" y="45.027377" style="stroke: #000000; stroke-width: 0.8"/>
      </g>
     </g>
     <g id="text_2">
      <!-- 0 V -->
      <g transform="translate(74.36625 50.346284) scale(0.14 -0.14)">
       <use xlink:href="#DejaVuSans-30"/>
       <use xlink:href="#DejaVuSans-20" x="63.623047"/>
       <use xlink:href="#DejaVuSans-56" x="95.410156"/>
      </g>
     </g>
    </g>
    <g id="text_3">
     <g id="patch_3">
      <path d="M 34.8768 131.080205 
L 34.8768 39.41083 
L 11.247425 39.41083 
L 11.247425 131.080205 
z
" style="fill: #ffff00; opacity: 0.2; stroke: #eeeeee; stroke-width: 0.5; stroke-linejoin: miter"/>
     </g>
     <!-- VPULSE BBI -->
     <g transform="translate(26.925238 126.040205) rotate(-90) scale(0.14 -0.14)">
      <defs>
       <path id="DejaVuSans-50" d="M 1259 4147 
L 1259 2394 
L 2053 2394 
Q 2494 2394 2734 2622 
Q 2975 2850 2975 3272 
Q 2975 3691 2734 3919 
Q 2494 4147 2053 4147 
L 1259 4147 
z
M 628 4666 
L 2053 4666 
Q 2838 4666 3239 4311 
Q 3641 3956 3641 3272 
Q 3641 2581 3239 2228 
Q 2838 1875 2053 1875 
L 1259 1875 
L 1259 0 
L 628 0 
L 628 4666 
z
" transform="scale(0.015625)"/>
       <path id="DejaVuSans-55" d="M 556 4666 
L 1191 4666 
L 1191 1831 
Q 1191 1081 1462 751 
Q 1734 422 2344 422 
Q 2950 422 3222 751 
Q 3494 1081 3494 1831 
L 3494 4666 
L 4128 4666 
L 4128 1753 
Q 4128 841 3676 375 
Q 3225 -91 2344 -91 
Q 1459 -91 1007 375 
Q 556 841 556 1753 
L 556 4666 
z
" transform="scale(0.015625)"/>
       <path id="DejaVuSans-4c" d="M 628 4666 
L 1259 4666 
L 1259 531 
L 3531 531 
L 3531 0 
L 628 0 
L 628 4666 
z
" transform="scale(0.015625)"/>
       <path id="DejaVuSans-53" d="M 3425 4513 
L 3425 3897 
Q 3066 4069 2747 4153 
Q 2428 4238 2131 4238 
Q 1616 4238 1336 4038 
Q 1056 3838 1056 3469 
Q 1056 3159 1242 3001 
Q 1428 2844 1947 2747 
L 2328 2669 
Q 3034 2534 3370 2195 
Q 3706 1856 3706 1288 
Q 3706 609 3251 259 
Q 2797 -91 1919 -91 
Q 1588 -91 1214 -16 
Q 841 59 441 206 
L 441 856 
Q 825 641 1194 531 
Q 1563 422 1919 422 
Q 2459 422 2753 634 
Q 3047 847 3047 1241 
Q 3047 1584 2836 1778 
Q 2625 1972 2144 2069 
L 1759 2144 
Q 1053 2284 737 2584 
Q 422 2884 422 3419 
Q 422 4038 858 4394 
Q 1294 4750 2059 4750 
Q 2388 4750 2728 4690 
Q 3069 4631 3425 4513 
z
" transform="scale(0.015625)"/>
       <path id="DejaVuSans-45" d="M 628 4666 
L 3578 4666 
L 3578 4134 
L 1259 4134 
L 1259 2753 
L 3481 2753 
L 3481 2222 
L 1259 2222 
L 1259 531 
L 3634 531 
L 3634 0 
L 628 0 
L 628 4666 
z
" transform="scale(0.015625)"/>
       <path id="DejaVuSans-42" d="M 1259 2228 
L 1259 519 
L 2272 519 
Q 2781 519 3026 730 
Q 3272 941 3272 1375 
Q 3272 1813 3026 2020 
Q 2781 2228 2272 2228 
L 1259 2228 
z
M 1259 4147 
L 1259 2741 
L 2194 2741 
Q 2656 2741 2882 2914 
Q 3109 3088 3109 3444 
Q 3109 3797 2882 3972 
Q 2656 4147 2194 4147 
L 1259 4147 
z
M 628 4666 
L 2241 4666 
Q 2963 4666 3353 4366 
Q 3744 4066 3744 3513 
Q 3744 3084 3544 2831 
Q 3344 2578 2956 2516 
Q 3422 2416 3680 2098 
Q 3938 1781 3938 1306 
Q 3938 681 3513 340 
Q 3088 0 2303 0 
L 628 0 
L 628 4666 
z
" transform="scale(0.015625)"/>
       <path id="DejaVuSans-49" d="M 628 4666 
L 1259 4666 
L 1259 0 
L 628 0 
L 628 4666 
z
" transform="scale(0.015625)"/>
      </defs>
      <use xlink:href="#DejaVuSans-56"/>
      <use xlink:href="#DejaVuSans-50" x="68.408203"/>
      <use xlink:href="#DejaVuSans-55" x="128.710938"/>
      <use xlink:href="#DejaVuSans-4c" x="201.904297"/>
      <use xlink:href="#DejaVuSans-53" x="257.617188"/>
      <use xlink:href="#DejaVuSans-45" x="321.09375"/>
      <use xlink:href="#DejaVuSans-20" x="384.277344"/>
      <use xlink:href="#DejaVuSans-42" x="416.064453"/>
      <use xlink:href="#DejaVuSans-42" x="484.667969"/>
      <use xlink:href="#DejaVuSans-49" x="553.271484"/>
     </g>
    </g>
   </g>
   <g id="line2d_17">
    <path d="M 141.12 45.027377 
L 247.597056 45.136282 
L 248.080896 46.425538 
L 256.306176 69.006772 
L 263.725056 89.863624 
L 265.337856 94.440546 
L 267.144192 99.673219 
L 270.595584 110.703682 
L 273.53088 119.593628 
L 274.240512 119.940162 
L 275.401728 120.483955 
L 275.885568 120.713201 
L 276.853248 121.150368 
L 277.433856 121.40627 
L 278.304768 121.790124 
L 278.885376 122.046026 
L 279.724032 122.403223 
L 281.207808 123.016323 
L 281.949696 123.309545 
L 283.304448 123.858669 
L 285.820416 124.802309 
L 286.91712 125.228813 
L 287.56224 125.495378 
L 288.658944 125.921883 
L 289.4976 126.241761 
L 290.497536 126.614952 
L 291.497472 126.969483 
L 292.07808 127.182735 
L 293.36832 127.395987 
L 312.012288 127.289361 
L 312.23808 126.801547 
L 330.527232 75.087922 
L 334.268928 63.292417 
L 337.978368 51.617666 
L 342.590976 49.3412 
L 347.945472 46.984578 
L 356.654592 43.484472 
L 357.525504 43.268927 
L 371.814912 43.108189 
L 378.620928 43.184799 
L 393.974784 43.746186 
L 421.7472 44.46146 
L 447.39072 44.774399 
L 483.001344 44.945888 
L 531.030528 44.953885 
L 947.52 44.953885 
L 947.52 44.953885 
" clip-path="url(#paee3439380)" style="fill: none; stroke: #ff0000; stroke-width: 2; stroke-linecap: square"/>
   </g>
   <g id="patch_4">
    <path d="M 100.8 131.611034 
L 100.8 38.88 
" style="fill: none; stroke: #bcbcbc; stroke-width: 0.8; stroke-linejoin: miter; stroke-linecap: square"/>
   </g>
   <g id="patch_5">
    <path d="M 987.84 131.611034 
L 987.84 38.88 
" style="fill: none; stroke: #bcbcbc; stroke-width: 0.8; stroke-linejoin: miter; stroke-linecap: square"/>
   </g>
   <g id="patch_6">
    <path d="M 100.8 131.611034 
L 987.84 131.611034 
" style="fill: none; stroke: #bcbcbc; stroke-width: 0.8; stroke-linejoin: miter; stroke-linecap: square"/>
   </g>
   <g id="patch_7">
    <path d="M 100.8 38.88 
L 987.84 38.88 
" style="fill: none; stroke: #bcbcbc; stroke-width: 0.8; stroke-linejoin: miter; stroke-linecap: square"/>
   </g>
  </g>
  <g id="axes_2">
   <g id="patch_8">
    <path d="M 100.8 242.888276 
L 987.84 242.888276 
L 987.84 150.157241 
L 100.8 150.157241 
z
" style="fill: #eeeeee"/>
   </g>
   <g id="matplotlib.axis_3">
    <g id="xtick_7">
     <g id="line2d_18">
      <path d="M 141.12 242.888276 
L 141.12 150.157241 
" clip-path="url(#pdb0cb9f5a2)" style="fill: none; stroke-dasharray: 1.85,0.8; stroke-dashoffset: 0; stroke: #b2b2b2; stroke-width: 0.5"/>
     </g>
     <g id="line2d_19">
      <g>
       <use xlink:href="#m30c27f58e9" x="141.12" y="242.888276" style="stroke: #000000; stroke-width: 0.8"/>
      </g>
     </g>
    </g>
    <g id="xtick_8">
     <g id="line2d_20">
      <path d="M 302.4 242.888276 
L 302.4 150.157241 
" clip-path="url(#pdb0cb9f5a2)" style="fill: none; stroke-dasharray: 1.85,0.8; stroke-dashoffset: 0; stroke: #b2b2b2; stroke-width: 0.5"/>
     </g>
     <g id="line2d_21">
      <g>
       <use xlink:href="#m30c27f58e9" x="302.4" y="242.888276" style="stroke: #000000; stroke-width: 0.8"/>
      </g>
     </g>
    </g>
    <g id="xtick_9">
     <g id="line2d_22">
      <path d="M 463.68 242.888276 
L 463.68 150.157241 
" clip-path="url(#pdb0cb9f5a2)" style="fill: none; stroke-dasharray: 1.85,0.8; stroke-dashoffset: 0; stroke: #b2b2b2; stroke-width: 0.5"/>
     </g>
     <g id="line2d_23">
      <g>
       <use xlink:href="#m30c27f58e9" x="463.68" y="242.888276" style="stroke: #000000; stroke-width: 0.8"/>
      </g>
     </g>
    </g>
    <g id="xtick_10">
     <g id="line2d_24">
      <path d="M 624.96 242.888276 
L 624.96 150.157241 
" clip-path="url(#pdb0cb9f5a2)" style="fill: none; stroke-dasharray: 1.85,0.8; stroke-dashoffset: 0; stroke: #b2b2b2; stroke-width: 0.5"/>
     </g>
     <g id="line2d_25">
      <g>
       <use xlink:href="#m30c27f58e9" x="624.96" y="242.888276" style="stroke: #000000; stroke-width: 0.8"/>
      </g>
     </g>
    </g>
    <g id="xtick_11">
     <g id="line2d_26">
      <path d="M 786.24 242.888276 
L 786.24 150.157241 
" clip-path="url(#pdb0cb9f5a2)" style="fill: none; stroke-dasharray: 1.85,0.8; stroke-dashoffset: 0; stroke: #b2b2b2; stroke-width: 0.5"/>
     </g>
     <g id="line2d_27">
      <g>
       <use xlink:href="#m30c27f58e9" x="786.24" y="242.888276" style="stroke: #000000; stroke-width: 0.8"/>
      </g>
     </g>
    </g>
    <g id="xtick_12">
     <g id="line2d_28">
      <path d="M 947.52 242.888276 
L 947.52 150.157241 
" clip-path="url(#pdb0cb9f5a2)" style="fill: none; stroke-dasharray: 1.85,0.8; stroke-dashoffset: 0; stroke: #b2b2b2; stroke-width: 0.5"/>
     </g>
     <g id="line2d_29">
      <g>
       <use xlink:href="#m30c27f58e9" x="947.52" y="242.888276" style="stroke: #000000; stroke-width: 0.8"/>
      </g>
     </g>
    </g>
   </g>
   <g id="matplotlib.axis_4">
    <g id="ytick_3">
     <g id="line2d_30">
      <path d="M 100.8 217.748787 
L 987.84 217.748787 
" clip-path="url(#pdb0cb9f5a2)" style="fill: none; stroke-dasharray: 1.85,0.8; stroke-dashoffset: 0; stroke: #b2b2b2; stroke-width: 0.5"/>
     </g>
     <g id="line2d_31">
      <g>
       <use xlink:href="#m18d0472a4d" x="100.8" y="217.748787" style="stroke: #000000; stroke-width: 0.8"/>
      </g>
     </g>
     <g id="text_4">
      <!-- 0 V -->
      <g transform="translate(74.36625 223.067693) scale(0.14 -0.14)">
       <use xlink:href="#DejaVuSans-30"/>
       <use xlink:href="#DejaVuSans-20" x="63.623047"/>
       <use xlink:href="#DejaVuSans-56" x="95.410156"/>
      </g>
     </g>
    </g>
    <g id="ytick_4">
     <g id="line2d_32">
      <path d="M 100.8 181.58737 
L 987.84 181.58737 
" clip-path="url(#pdb0cb9f5a2)" style="fill: none; stroke-dasharray: 1.85,0.8; stroke-dashoffset: 0; stroke: #b2b2b2; stroke-width: 0.5"/>
     </g>
     <g id="line2d_33">
      <g>
       <use xlink:href="#m18d0472a4d" x="100.8" y="181.58737" style="stroke: #000000; stroke-width: 0.8"/>
      </g>
     </g>
     <g id="text_5">
      <!-- 1 V -->
      <g transform="translate(74.36625 186.906277) scale(0.14 -0.14)">
       <defs>
        <path id="DejaVuSans-31" d="M 794 531 
L 1825 531 
L 1825 4091 
L 703 3866 
L 703 4441 
L 1819 4666 
L 2450 4666 
L 2450 531 
L 3481 531 
L 3481 0 
L 794 0 
L 794 531 
z
" transform="scale(0.015625)"/>
       </defs>
       <use xlink:href="#DejaVuSans-31"/>
       <use xlink:href="#DejaVuSans-20" x="63.623047"/>
       <use xlink:href="#DejaVuSans-56" x="95.410156"/>
      </g>
     </g>
    </g>
    <g id="text_6">
     <g id="patch_9">
      <path d="M 34.8768 224.531509 
L 34.8768 168.514009 
L 11.247425 168.514009 
L 11.247425 224.531509 
z
" style="fill: #ffff00; opacity: 0.2; stroke: #eeeeee; stroke-width: 0.5; stroke-linejoin: miter"/>
     </g>
     <!-- DFF IN -->
     <g transform="translate(26.925238 219.491509) rotate(-90) scale(0.14 -0.14)">
      <defs>
       <path id="DejaVuSans-44" d="M 1259 4147 
L 1259 519 
L 2022 519 
Q 2988 519 3436 956 
Q 3884 1394 3884 2338 
Q 3884 3275 3436 3711 
Q 2988 4147 2022 4147 
L 1259 4147 
z
M 628 4666 
L 1925 4666 
Q 3281 4666 3915 4102 
Q 4550 3538 4550 2338 
Q 4550 1131 3912 565 
Q 3275 0 1925 0 
L 628 0 
L 628 4666 
z
" transform="scale(0.015625)"/>
       <path id="DejaVuSans-46" d="M 628 4666 
L 3309 4666 
L 3309 4134 
L 1259 4134 
L 1259 2759 
L 3109 2759 
L 3109 2228 
L 1259 2228 
L 1259 0 
L 628 0 
L 628 4666 
z
" transform="scale(0.015625)"/>
       <path id="DejaVuSans-4e" d="M 628 4666 
L 1478 4666 
L 3547 763 
L 3547 4666 
L 4159 4666 
L 4159 0 
L 3309 0 
L 1241 3903 
L 1241 0 
L 628 0 
L 628 4666 
z
" transform="scale(0.015625)"/>
      </defs>
      <use xlink:href="#DejaVuSans-44"/>
      <use xlink:href="#DejaVuSans-46" x="77.001953"/>
      <use xlink:href="#DejaVuSans-46" x="134.521484"/>
      <use xlink:href="#DejaVuSans-20" x="192.041016"/>
      <use xlink:href="#DejaVuSans-49" x="223.828125"/>
      <use xlink:href="#DejaVuSans-4e" x="253.320312"/>
     </g>
    </g>
   </g>
   <g id="line2d_34">
    <path d="M 141.12 217.695977 
L 221.953536 217.646389 
L 224.437248 197.49767 
L 225.404928 191.390369 
L 228.37248 177.497514 
L 229.049856 176.705579 
L 229.888512 176.004048 
L 231.4368 175.59904 
L 234.17856 175.096396 
L 244.210176 174.987912 
L 245.564928 174.944518 
L 247.661568 175.005993 
L 248.177664 176.01128 
L 249.048576 177.526443 
L 253.85472 184.177613 
L 254.693376 185.197365 
L 255.919104 186.909969 
L 256.564224 188.083769 
L 257.144832 189.685358 
L 258.144768 193.586813 
L 258.306048 194.163588 
L 259.725312 200.167468 
L 260.080128 201.925997 
L 260.692992 204.756352 
L 261.305856 207.954106 
L 262.692864 213.531642 
L 264.434688 219.794366 
L 264.628224 220.335847 
L 265.14432 222.153971 
L 266.628096 225.182851 
L 266.950656 225.763242 
L 267.434496 227.180046 
L 267.821568 227.893872 
L 267.950592 228.016821 
L 268.305408 228.846364 
L 268.498944 229.362749 
L 268.85376 230.186506 
L 269.208576 230.691681 
L 270.111744 232.709488 
L 270.46656 233.204899 
L 271.7568 235.706546 
L 271.853568 235.847214 
L 272.272896 236.614921 
L 272.466432 237.014143 
L 272.918016 237.868637 
L 273.240576 238.38683 
L 273.466368 238.673229 
L 273.659904 238.54124 
L 273.85344 238.260265 
L 274.272768 237.602489 
L 274.65984 236.899511 
L 275.046912 236.051888 
L 275.14368 235.971971 
L 275.369472 235.707269 
L 275.7888 235.276587 
L 276.208128 234.752246 
L 276.820992 233.675721 
L 277.014528 233.642814 
L 277.530624 233.165484 
L 278.724096 231.947205 
L 279.078912 231.299193 
L 279.433728 231.014964 
L 279.562752 231.017495 
L 279.949824 230.662029 
L 280.594944 230.253766 
L 281.659392 228.96642 
L 281.981952 228.499214 
L 282.207744 228.466669 
L 282.40128 228.347698 
L 282.691584 228.174846 
L 282.981888 228.034179 
L 284.207616 226.93668 
L 284.723712 226.071337 
L 285.046272 225.781684 
L 285.239808 225.793617 
L 287.40096 224.184073 
L 288.400896 223.259425 
L 288.916992 222.941205 
L 292.981248 219.477266 
L 293.819904 218.453573 
L 299.432448 210.346907 
L 301.206528 208.275581 
L 301.948416 207.631546 
L 303.399936 207.242087 
L 304.367616 207.461949 
L 305.174016 207.966039 
L 305.980416 208.733022 
L 307.2384 210.305321 
L 309.851136 213.777178 
L 310.915584 214.834719 
L 312.012288 215.554114 
L 312.205824 215.452211 
L 313.141248 214.508977 
L 314.205696 214.128306 
L 315.721728 213.817318 
L 319.753728 214.101908 
L 320.269824 214.17405 
L 320.9472 214.27494 
L 321.59232 214.365018 
L 322.23744 214.437631 
L 322.947072 214.500154 
L 324.076032 214.620029 
L 324.430848 214.66194 
L 326.237184 214.795267 
L 329.849856 214.938285 
L 330.591744 214.950978 
L 331.10784 214.955571 
L 332.914176 214.730213 
L 333.268992 214.681214 
L 334.462464 214.557325 
L 334.881792 214.510821 
L 335.849472 214.410112 
L 336.333312 214.35822 
L 337.010688 214.276423 
L 337.688064 214.186381 
L 337.978368 214.26044 
L 338.752512 214.957776 
L 339.720192 215.666685 
L 342.139392 216.469902 
L 344.3328 216.768306 
L 347.687424 217.012649 
L 347.751936 216.250366 
L 348.816384 199.177368 
L 349.9776 183.729934 
L 350.977536 173.197922 
L 352.300032 161.919176 
L 352.88064 158.436832 
L 353.428992 156.415408 
L 354.0096 155.254627 
L 354.557952 154.697741 
L 355.106304 154.451844 
L 355.848192 154.393985 
L 356.686848 154.498853 
L 357.622272 154.813458 
L 360.29952 156.191208 
L 361.10592 156.570903 
L 361.686528 156.838497 
L 362.0736 157.026536 
L 362.654208 157.290515 
L 363.52512 157.699139 
L 364.589568 158.172853 
L 365.718528 158.664649 
L 366.234624 158.885233 
L 367.653888 159.47828 
L 368.557056 159.857975 
L 370.589184 160.64991 
L 371.363328 160.935585 
L 375.040512 162.248245 
L 375.169536 162.667717 
L 375.750144 164.392617 
L 376.040448 165.441298 
L 376.459776 166.840745 
L 376.75008 167.07941 
L 377.040384 167.046865 
L 377.491968 166.674402 
L 378.749952 165.426833 
L 379.459584 165.079684 
L 380.362752 164.891644 
L 381.201408 164.902493 
L 385.104384 165.44853 
L 385.910784 165.60764 
L 386.491392 165.708892 
L 387.007488 165.824609 
L 398.329344 168.254656 
L 398.651904 168.316131 
L 399.361536 168.442696 
L 401.006592 168.735603 
L 403.006464 169.071904 
L 405.29664 169.433518 
L 405.909504 169.531154 
L 406.58688 169.632406 
L 407.167488 169.715577 
L 411.812352 170.344786 
L 412.296192 170.391796 
L 413.263872 170.50028 
L 415.425024 170.65939 
L 416.005632 170.001253 
L 416.457216 169.816829 
L 417.457152 169.925314 
L 419.65056 170.789571 
L 423.134208 171.46579 
L 423.585792 171.523648 
L 424.617984 171.628516 
L 425.198592 171.708071 
L 428.746752 171.997363 
L 430.004736 172.105847 
L 432.55296 172.283038 
L 433.19808 172.319199 
L 435.036672 172.427684 
L 437.036544 172.5434 
L 437.71392 172.572329 
L 439.617024 172.677197 
L 441.616896 172.785682 
L 443.229696 172.858004 
L 443.907072 172.89055 
L 446.552064 172.999034 
L 448.132608 173.067741 
L 451.10016 173.176225 
L 452.55168 173.230467 
L 455.680512 173.335335 
L 455.809536 173.494445 
L 456.26112 174.051331 
L 456.90624 174.416562 
L 457.357824 174.503349 
L 458.454528 174.398481 
L 460.583424 173.787353 
L 460.905984 173.747575 
L 476.066304 173.85606 
L 477.033984 173.85606 
L 484.194816 173.964544 
L 484.678656 173.960928 
L 496.09728 173.863292 
L 496.613376 173.284709 
L 497.193984 173.013499 
L 499.00032 173.118367 
L 502.258176 173.736727 
L 504.354816 173.863292 
L 536.352768 173.964544 
L 537.288192 174.854115 
L 538.19136 175.04577 
L 540.255744 174.940902 
L 542.54592 174.53951 
L 547.932672 174.044099 
L 576.672768 173.96816 
L 577.285632 173.270245 
L 578.253312 172.95564 
L 579.382272 173.064125 
L 580.704768 173.393193 
L 582.317568 173.642707 
L 585.12384 173.848827 
L 616.960512 173.950079 
L 617.121792 174.141735 
L 617.54112 174.608217 
L 617.992704 174.879428 
L 618.83136 175.04577 
L 620.928 174.937286 
L 623.18592 174.543126 
L 628.604928 174.044099 
L 657.312768 173.964544 
L 657.86112 173.310022 
L 658.409472 173.017115 
L 660.312576 173.125599 
L 663.538176 173.736727 
L 665.634816 173.863292 
L 697.632768 173.964544 
L 698.568192 174.854115 
L 699.47136 175.04577 
L 701.568 174.937286 
L 703.82592 174.543126 
L 709.244928 174.044099 
L 737.952768 173.964544 
L 738.50112 173.310022 
L 739.049472 173.017115 
L 740.952576 173.125599 
L 744.14592 173.729495 
L 746.307072 173.863292 
L 778.272768 173.964544 
L 779.208192 174.854115 
L 780.11136 175.04577 
L 782.208 174.937286 
L 784.46592 174.543126 
L 789.917184 174.040483 
L 818.592768 173.964544 
L 819.14112 173.310022 
L 819.689472 173.017115 
L 821.592576 173.125599 
L 824.78592 173.729495 
L 826.947072 173.863292 
L 858.912768 173.964544 
L 859.848192 174.854115 
L 860.75136 175.04577 
L 862.848 174.937286 
L 864.4608 174.647995 
L 865.815552 174.456339 
L 870.42816 174.047715 
L 899.232768 173.964544 
L 899.78112 173.310022 
L 900.329472 173.017115 
L 902.232576 173.125599 
L 905.42592 173.729495 
L 907.587072 173.863292 
L 939.552768 173.964544 
L 940.617216 174.88666 
L 941.55264 175.085548 
L 943.423488 174.977063 
L 946.262016 174.452723 
L 947.52 174.242987 
L 947.52 174.242987 
" clip-path="url(#pdb0cb9f5a2)" style="fill: none; stroke: #008000; stroke-width: 2; stroke-linecap: square"/>
   </g>
   <g id="patch_10">
    <path d="M 100.8 242.888276 
L 100.8 150.157241 
" style="fill: none; stroke: #bcbcbc; stroke-width: 0.8; stroke-linejoin: miter; stroke-linecap: square"/>
   </g>
   <g id="patch_11">
    <path d="M 987.84 242.888276 
L 987.84 150.157241 
" style="fill: none; stroke: #bcbcbc; stroke-width: 0.8; stroke-linejoin: miter; stroke-linecap: square"/>
   </g>
   <g id="patch_12">
    <path d="M 100.8 242.888276 
L 987.84 242.888276 
" style="fill: none; stroke: #bcbcbc; stroke-width: 0.8; stroke-linejoin: miter; stroke-linecap: square"/>
   </g>
   <g id="patch_13">
    <path d="M 100.8 150.157241 
L 987.84 150.157241 
" style="fill: none; stroke: #bcbcbc; stroke-width: 0.8; stroke-linejoin: miter; stroke-linecap: square"/>
   </g>
  </g>
  <g id="axes_3">
   <g id="patch_14">
    <path d="M 100.8 354.165517 
L 987.84 354.165517 
L 987.84 261.434483 
L 100.8 261.434483 
z
" style="fill: #eeeeee"/>
   </g>
   <g id="matplotlib.axis_5">
    <g id="xtick_13">
     <g id="line2d_35">
      <path d="M 141.12 354.165517 
L 141.12 261.434483 
" clip-path="url(#pb5b6f98d0e)" style="fill: none; stroke-dasharray: 1.85,0.8; stroke-dashoffset: 0; stroke: #b2b2b2; stroke-width: 0.5"/>
     </g>
     <g id="line2d_36">
      <g>
       <use xlink:href="#m30c27f58e9" x="141.12" y="354.165517" style="stroke: #000000; stroke-width: 0.8"/>
      </g>
     </g>
    </g>
    <g id="xtick_14">
     <g id="line2d_37">
      <path d="M 302.4 354.165517 
L 302.4 261.434483 
" clip-path="url(#pb5b6f98d0e)" style="fill: none; stroke-dasharray: 1.85,0.8; stroke-dashoffset: 0; stroke: #b2b2b2; stroke-width: 0.5"/>
     </g>
     <g id="line2d_38">
      <g>
       <use xlink:href="#m30c27f58e9" x="302.4" y="354.165517" style="stroke: #000000; stroke-width: 0.8"/>
      </g>
     </g>
    </g>
    <g id="xtick_15">
     <g id="line2d_39">
      <path d="M 463.68 354.165517 
L 463.68 261.434483 
" clip-path="url(#pb5b6f98d0e)" style="fill: none; stroke-dasharray: 1.85,0.8; stroke-dashoffset: 0; stroke: #b2b2b2; stroke-width: 0.5"/>
     </g>
     <g id="line2d_40">
      <g>
       <use xlink:href="#m30c27f58e9" x="463.68" y="354.165517" style="stroke: #000000; stroke-width: 0.8"/>
      </g>
     </g>
    </g>
    <g id="xtick_16">
     <g id="line2d_41">
      <path d="M 624.96 354.165517 
L 624.96 261.434483 
" clip-path="url(#pb5b6f98d0e)" style="fill: none; stroke-dasharray: 1.85,0.8; stroke-dashoffset: 0; stroke: #b2b2b2; stroke-width: 0.5"/>
     </g>
     <g id="line2d_42">
      <g>
       <use xlink:href="#m30c27f58e9" x="624.96" y="354.165517" style="stroke: #000000; stroke-width: 0.8"/>
      </g>
     </g>
    </g>
    <g id="xtick_17">
     <g id="line2d_43">
      <path d="M 786.24 354.165517 
L 786.24 261.434483 
" clip-path="url(#pb5b6f98d0e)" style="fill: none; stroke-dasharray: 1.85,0.8; stroke-dashoffset: 0; stroke: #b2b2b2; stroke-width: 0.5"/>
     </g>
     <g id="line2d_44">
      <g>
       <use xlink:href="#m30c27f58e9" x="786.24" y="354.165517" style="stroke: #000000; stroke-width: 0.8"/>
      </g>
     </g>
    </g>
    <g id="xtick_18">
     <g id="line2d_45">
      <path d="M 947.52 354.165517 
L 947.52 261.434483 
" clip-path="url(#pb5b6f98d0e)" style="fill: none; stroke-dasharray: 1.85,0.8; stroke-dashoffset: 0; stroke: #b2b2b2; stroke-width: 0.5"/>
     </g>
     <g id="line2d_46">
      <g>
       <use xlink:href="#m30c27f58e9" x="947.52" y="354.165517" style="stroke: #000000; stroke-width: 0.8"/>
      </g>
     </g>
    </g>
   </g>
   <g id="matplotlib.axis_6">
    <g id="ytick_5">
     <g id="line2d_47">
      <path d="M 100.8 348.435941 
L 987.84 348.435941 
" clip-path="url(#pb5b6f98d0e)" style="fill: none; stroke-dasharray: 1.85,0.8; stroke-dashoffset: 0; stroke: #b2b2b2; stroke-width: 0.5"/>
     </g>
     <g id="line2d_48">
      <g>
       <use xlink:href="#m18d0472a4d" x="100.8" y="348.435941" style="stroke: #000000; stroke-width: 0.8"/>
      </g>
     </g>
     <g id="text_7">
      <!-- 0 V -->
      <g transform="translate(74.36625 353.754847) scale(0.14 -0.14)">
       <use xlink:href="#DejaVuSans-30"/>
       <use xlink:href="#DejaVuSans-20" x="63.623047"/>
       <use xlink:href="#DejaVuSans-56" x="95.410156"/>
      </g>
     </g>
    </g>
    <g id="ytick_6">
     <g id="line2d_49">
      <path d="M 100.8 305.479107 
L 987.84 305.479107 
" clip-path="url(#pb5b6f98d0e)" style="fill: none; stroke-dasharray: 1.85,0.8; stroke-dashoffset: 0; stroke: #b2b2b2; stroke-width: 0.5"/>
     </g>
     <g id="line2d_50">
      <g>
       <use xlink:href="#m18d0472a4d" x="100.8" y="305.479107" style="stroke: #000000; stroke-width: 0.8"/>
      </g>
     </g>
     <g id="text_8">
      <!-- 1 V -->
      <g transform="translate(74.36625 310.798013) scale(0.14 -0.14)">
       <use xlink:href="#DejaVuSans-31"/>
       <use xlink:href="#DejaVuSans-20" x="63.623047"/>
       <use xlink:href="#DejaVuSans-56" x="95.410156"/>
      </g>
     </g>
    </g>
    <g id="ytick_7">
     <g id="line2d_51">
      <path d="M 100.8 262.522272 
L 987.84 262.522272 
" clip-path="url(#pb5b6f98d0e)" style="fill: none; stroke-dasharray: 1.85,0.8; stroke-dashoffset: 0; stroke: #b2b2b2; stroke-width: 0.5"/>
     </g>
     <g id="line2d_52">
      <g>
       <use xlink:href="#m18d0472a4d" x="100.8" y="262.522272" style="stroke: #000000; stroke-width: 0.8"/>
      </g>
     </g>
     <g id="text_9">
      <!-- 2 V -->
      <g transform="translate(74.36625 267.841178) scale(0.14 -0.14)">
       <use xlink:href="#DejaVuSans-32"/>
       <use xlink:href="#DejaVuSans-20" x="63.623047"/>
       <use xlink:href="#DejaVuSans-56" x="95.410156"/>
      </g>
     </g>
    </g>
    <g id="text_10">
     <g id="patch_15">
      <path d="M 34.8768 342.395313 
L 34.8768 273.204688 
L 11.247425 273.204688 
L 11.247425 342.395313 
z
" style="fill: #ffff00; opacity: 0.2; stroke: #eeeeee; stroke-width: 0.5; stroke-linejoin: miter"/>
     </g>
     <!-- CLK BUF -->
     <g transform="translate(26.925238 337.355313) rotate(-90) scale(0.14 -0.14)">
      <defs>
       <path id="DejaVuSans-43" d="M 4122 4306 
L 4122 3641 
Q 3803 3938 3442 4084 
Q 3081 4231 2675 4231 
Q 1875 4231 1450 3742 
Q 1025 3253 1025 2328 
Q 1025 1406 1450 917 
Q 1875 428 2675 428 
Q 3081 428 3442 575 
Q 3803 722 4122 1019 
L 4122 359 
Q 3791 134 3420 21 
Q 3050 -91 2638 -91 
Q 1578 -91 968 557 
Q 359 1206 359 2328 
Q 359 3453 968 4101 
Q 1578 4750 2638 4750 
Q 3056 4750 3426 4639 
Q 3797 4528 4122 4306 
z
" transform="scale(0.015625)"/>
       <path id="DejaVuSans-4b" d="M 628 4666 
L 1259 4666 
L 1259 2694 
L 3353 4666 
L 4166 4666 
L 1850 2491 
L 4331 0 
L 3500 0 
L 1259 2247 
L 1259 0 
L 628 0 
L 628 4666 
z
" transform="scale(0.015625)"/>
      </defs>
      <use xlink:href="#DejaVuSans-43"/>
      <use xlink:href="#DejaVuSans-4c" x="69.824219"/>
      <use xlink:href="#DejaVuSans-4b" x="125.537109"/>
      <use xlink:href="#DejaVuSans-20" x="191.113281"/>
      <use xlink:href="#DejaVuSans-42" x="222.900391"/>
      <use xlink:href="#DejaVuSans-55" x="291.503906"/>
      <use xlink:href="#DejaVuSans-46" x="364.697266"/>
     </g>
    </g>
   </g>
   <g id="line2d_53">
    <path d="M 141.12 348.434805 
L 173.376 348.434805 
L 173.601792 296.88774 
L 213.696 296.88774 
L 213.760512 338.005592 
L 213.825024 348.416316 
L 213.889536 348.354499 
L 213.954048 348.526108 
L 214.01856 348.440596 
L 215.373312 348.431155 
L 223.469568 348.434755 
L 247.629312 348.51554 
L 248.306688 349.163372 
L 249.080832 349.568842 
L 250.14528 349.830921 
L 251.532288 349.940032 
L 254.016 349.924009 
L 254.17728 307.789755 
L 254.241792 307.999814 
L 256.693248 312.087586 
L 260.241408 317.594652 
L 263.563776 322.365009 
L 263.757312 322.618454 
L 264.047616 323.025255 
L 266.144256 325.634024 
L 268.079616 327.486752 
L 269.82144 328.919792 
L 270.595584 329.487252 
L 273.20832 331.264806 
L 273.434112 331.313776 
L 274.466304 330.783689 
L 276.820992 329.854962 
L 276.853248 329.892764 
L 276.885504 329.799978 
L 278.401536 329.26989 
L 279.0144 329.049092 
L 281.75616 328.073113 
L 283.433472 327.490189 
L 287.336448 326.169696 
L 287.368704 326.201054 
L 287.40096 326.132323 
L 287.529984 326.037818 
L 287.691264 326.07605 
L 287.820288 325.915821 
L 287.949312 325.964362 
L 292.755456 324.251243 
L 293.432832 323.872364 
L 293.723136 323.722874 
L 294.336 323.364185 
L 294.400512 321.282496 
L 294.432768 322.938482 
L 294.65856 348.006072 
L 295.432704 347.943183 
L 297.980928 347.871231 
L 312.205824 347.85727 
L 312.850944 347.268675 
L 313.625088 346.880345 
L 314.592768 346.64971 
L 316.044288 346.547172 
L 318.753792 346.598763 
L 332.849664 346.995684 
L 334.656 347.01175 
L 334.688256 338.042105 
L 334.81728 270.383373 
L 335.591424 269.167695 
L 337.591296 266.169307 
L 338.075136 265.74833 
L 338.591232 265.653825 
L 339.17184 265.683895 
L 340.429824 265.963115 
L 345.203712 267.986382 
L 345.655296 268.205461 
L 347.268096 268.940023 
L 349.558272 269.970987 
L 350.848512 270.533722 
L 357.977088 273.497743 
L 358.557696 273.824215 
L 360.815616 275.14299 
L 361.234944 275.387844 
L 370.718208 280.314993 
L 373.427712 281.513489 
L 374.363136 281.887213 
L 374.976 282.157841 
L 375.169536 348.877924 
L 375.201792 348.786761 
L 376.556544 348.77457 
L 385.910784 348.716252 
L 390.007296 348.684004 
L 415.296 348.551276 
L 415.425024 292.287063 
L 415.521792 292.67797 
L 416.42496 292.776771 
L 416.715264 292.806841 
L 417.489408 292.905641 
L 417.973248 292.982964 
L 418.876416 293.090356 
L 419.134464 293.111834 
L 419.940864 293.219226 
L 420.198912 293.240705 
L 421.10208 293.348097 
L 421.360128 293.369575 
L 422.263296 293.476967 
L 422.521344 293.498446 
L 423.424512 293.605838 
L 423.68256 293.627316 
L 424.682496 293.734708 
L 424.940544 293.756187 
L 426.037248 293.863579 
L 426.295296 293.885057 
L 427.392 293.992449 
L 427.650048 294.013928 
L 428.84352 294.12132 
L 429.101568 294.142798 
L 430.29504 294.25019 
L 430.553088 294.271669 
L 431.940096 294.379061 
L 432.198144 294.400539 
L 433.585152 294.507931 
L 433.8432 294.52941 
L 434.359296 294.568071 
L 436.165632 294.696941 
L 437.810688 294.795742 
L 438.165504 294.825812 
L 439.746048 294.924612 
L 440.100864 294.954682 
L 441.874944 295.053483 
L 442.22976 295.083553 
L 444.197376 295.182353 
L 444.552192 295.212423 
L 446.713344 295.311224 
L 447.06816 295.341294 
L 449.422848 295.440094 
L 449.777664 295.470164 
L 452.325888 295.568965 
L 452.680704 295.599035 
L 455.616 295.697835 
L 455.648256 300.264147 
L 455.77728 348.416235 
L 455.93856 348.467176 
L 493.807104 348.447107 
L 495.936 348.447107 
L 496.09728 296.234796 
L 496.161792 296.720208 
L 496.25856 296.277753 
L 496.323072 296.440989 
L 496.806912 296.458171 
L 536.256 296.458171 
L 536.385024 348.764033 
L 536.546304 348.514208 
L 536.804352 348.418396 
L 537.159168 348.465156 
L 537.481728 348.446882 
L 575.479296 348.447106 
L 576.576 348.447107 
L 576.705024 296.282048 
L 576.769536 296.462467 
L 576.834048 296.496833 
L 576.866304 296.466763 
L 577.027584 296.458171 
L 616.896 296.458171 
L 617.025024 348.764033 
L 617.186304 348.514213 
L 617.444352 348.418396 
L 617.799168 348.465156 
L 618.121728 348.446882 
L 655.958016 348.447106 
L 657.216 348.447107 
L 657.37728 296.234796 
L 657.441792 296.720208 
L 657.53856 296.282048 
L 657.603072 296.440989 
L 658.086912 296.458171 
L 697.536 296.458171 
L 697.665024 348.764131 
L 697.826304 348.514127 
L 698.084352 348.418424 
L 698.439168 348.465157 
L 698.761728 348.446883 
L 736.759296 348.447106 
L 737.856 348.447107 
L 738.01728 296.234796 
L 738.081792 296.720208 
L 738.17856 296.277753 
L 738.243072 296.440989 
L 738.726912 296.458171 
L 778.176 296.458171 
L 778.305024 348.763951 
L 778.466304 348.51417 
L 778.724352 348.418413 
L 779.079168 348.465142 
L 779.401728 348.446882 
L 817.592832 348.447107 
L 818.496 348.447107 
L 818.65728 296.234796 
L 818.721792 296.720208 
L 818.81856 296.277753 
L 818.883072 296.440989 
L 819.366912 296.458171 
L 858.816 296.458171 
L 858.945024 348.764127 
L 859.106304 348.514123 
L 859.364352 348.418425 
L 859.719168 348.465157 
L 860.041728 348.446883 
L 898.039296 348.447106 
L 899.136 348.447107 
L 899.29728 296.234796 
L 899.361792 296.720208 
L 899.45856 296.277753 
L 899.523072 296.440989 
L 900.006912 296.458171 
L 939.456 296.458171 
L 939.488256 304.203289 
L 939.61728 348.396018 
L 939.649536 348.520931 
L 939.714048 348.401418 
L 939.746304 348.363726 
L 939.810816 348.419168 
L 940.004352 348.472815 
L 940.230144 348.445743 
L 945.649152 348.447111 
L 947.52 348.447097 
L 947.52 348.447097 
" clip-path="url(#pb5b6f98d0e)" style="fill: none; stroke: #0000ff; stroke-width: 2; stroke-linecap: square"/>
   </g>
   <g id="patch_16">
    <path d="M 100.8 354.165517 
L 100.8 261.434483 
" style="fill: none; stroke: #bcbcbc; stroke-width: 0.8; stroke-linejoin: miter; stroke-linecap: square"/>
   </g>
   <g id="patch_17">
    <path d="M 987.84 354.165517 
L 987.84 261.434483 
" style="fill: none; stroke: #bcbcbc; stroke-width: 0.8; stroke-linejoin: miter; stroke-linecap: square"/>
   </g>
   <g id="patch_18">
    <path d="M 100.8 354.165517 
L 987.84 354.165517 
" style="fill: none; stroke: #bcbcbc; stroke-width: 0.8; stroke-linejoin: miter; stroke-linecap: square"/>
   </g>
   <g id="patch_19">
    <path d="M 100.8 261.434483 
L 987.84 261.434483 
" style="fill: none; stroke: #bcbcbc; stroke-width: 0.8; stroke-linejoin: miter; stroke-linecap: square"/>
   </g>
  </g>
  <g id="axes_4">
   <g id="patch_20">
    <path d="M 100.8 465.442759 
L 987.84 465.442759 
L 987.84 372.711724 
L 100.8 372.711724 
z
" style="fill: #eeeeee"/>
   </g>
   <g id="matplotlib.axis_7">
    <g id="xtick_19">
     <g id="line2d_54">
      <path d="M 141.12 465.442759 
L 141.12 372.711724 
" clip-path="url(#p386a2895c3)" style="fill: none; stroke-dasharray: 1.85,0.8; stroke-dashoffset: 0; stroke: #b2b2b2; stroke-width: 0.5"/>
     </g>
     <g id="line2d_55">
      <g>
       <use xlink:href="#m30c27f58e9" x="141.12" y="465.442759" style="stroke: #000000; stroke-width: 0.8"/>
      </g>
     </g>
    </g>
    <g id="xtick_20">
     <g id="line2d_56">
      <path d="M 302.4 465.442759 
L 302.4 372.711724 
" clip-path="url(#p386a2895c3)" style="fill: none; stroke-dasharray: 1.85,0.8; stroke-dashoffset: 0; stroke: #b2b2b2; stroke-width: 0.5"/>
     </g>
     <g id="line2d_57">
      <g>
       <use xlink:href="#m30c27f58e9" x="302.4" y="465.442759" style="stroke: #000000; stroke-width: 0.8"/>
      </g>
     </g>
    </g>
    <g id="xtick_21">
     <g id="line2d_58">
      <path d="M 463.68 465.442759 
L 463.68 372.711724 
" clip-path="url(#p386a2895c3)" style="fill: none; stroke-dasharray: 1.85,0.8; stroke-dashoffset: 0; stroke: #b2b2b2; stroke-width: 0.5"/>
     </g>
     <g id="line2d_59">
      <g>
       <use xlink:href="#m30c27f58e9" x="463.68" y="465.442759" style="stroke: #000000; stroke-width: 0.8"/>
      </g>
     </g>
    </g>
    <g id="xtick_22">
     <g id="line2d_60">
      <path d="M 624.96 465.442759 
L 624.96 372.711724 
" clip-path="url(#p386a2895c3)" style="fill: none; stroke-dasharray: 1.85,0.8; stroke-dashoffset: 0; stroke: #b2b2b2; stroke-width: 0.5"/>
     </g>
     <g id="line2d_61">
      <g>
       <use xlink:href="#m30c27f58e9" x="624.96" y="465.442759" style="stroke: #000000; stroke-width: 0.8"/>
      </g>
     </g>
    </g>
    <g id="xtick_23">
     <g id="line2d_62">
      <path d="M 786.24 465.442759 
L 786.24 372.711724 
" clip-path="url(#p386a2895c3)" style="fill: none; stroke-dasharray: 1.85,0.8; stroke-dashoffset: 0; stroke: #b2b2b2; stroke-width: 0.5"/>
     </g>
     <g id="line2d_63">
      <g>
       <use xlink:href="#m30c27f58e9" x="786.24" y="465.442759" style="stroke: #000000; stroke-width: 0.8"/>
      </g>
     </g>
    </g>
    <g id="xtick_24">
     <g id="line2d_64">
      <path d="M 947.52 465.442759 
L 947.52 372.711724 
" clip-path="url(#p386a2895c3)" style="fill: none; stroke-dasharray: 1.85,0.8; stroke-dashoffset: 0; stroke: #b2b2b2; stroke-width: 0.5"/>
     </g>
     <g id="line2d_65">
      <g>
       <use xlink:href="#m30c27f58e9" x="947.52" y="465.442759" style="stroke: #000000; stroke-width: 0.8"/>
      </g>
     </g>
    </g>
   </g>
   <g id="matplotlib.axis_8">
    <g id="ytick_8">
     <g id="line2d_66">
      <path d="M 100.8 441.072159 
L 987.84 441.072159 
" clip-path="url(#p386a2895c3)" style="fill: none; stroke-dasharray: 1.85,0.8; stroke-dashoffset: 0; stroke: #b2b2b2; stroke-width: 0.5"/>
     </g>
     <g id="line2d_67">
      <g>
       <use xlink:href="#m18d0472a4d" x="100.8" y="441.072159" style="stroke: #000000; stroke-width: 0.8"/>
      </g>
     </g>
     <g id="text_11">
      <!-- 0 V -->
      <g transform="translate(74.36625 446.391065) scale(0.14 -0.14)">
       <use xlink:href="#DejaVuSans-30"/>
       <use xlink:href="#DejaVuSans-20" x="63.623047"/>
       <use xlink:href="#DejaVuSans-56" x="95.410156"/>
      </g>
     </g>
    </g>
    <g id="ytick_9">
     <g id="line2d_68">
      <path d="M 100.8 405.862263 
L 987.84 405.862263 
" clip-path="url(#p386a2895c3)" style="fill: none; stroke-dasharray: 1.85,0.8; stroke-dashoffset: 0; stroke: #b2b2b2; stroke-width: 0.5"/>
     </g>
     <g id="line2d_69">
      <g>
       <use xlink:href="#m18d0472a4d" x="100.8" y="405.862263" style="stroke: #000000; stroke-width: 0.8"/>
      </g>
     </g>
     <g id="text_12">
      <!-- 1 V -->
      <g transform="translate(74.36625 411.18117) scale(0.14 -0.14)">
       <use xlink:href="#DejaVuSans-31"/>
       <use xlink:href="#DejaVuSans-20" x="63.623047"/>
       <use xlink:href="#DejaVuSans-56" x="95.410156"/>
      </g>
     </g>
    </g>
    <g id="text_13">
     <g id="patch_21">
      <path d="M 34.8768 454.693023 
L 34.8768 383.46146 
L 11.247425 383.46146 
L 11.247425 454.693023 
z
" style="fill: #ffff00; opacity: 0.2; stroke: #eeeeee; stroke-width: 0.5; stroke-linejoin: miter"/>
     </g>
     <!-- DFF OUT -->
     <g transform="translate(26.925238 449.653023) rotate(-90) scale(0.14 -0.14)">
      <defs>
       <path id="DejaVuSans-4f" d="M 2522 4238 
Q 1834 4238 1429 3725 
Q 1025 3213 1025 2328 
Q 1025 1447 1429 934 
Q 1834 422 2522 422 
Q 3209 422 3611 934 
Q 4013 1447 4013 2328 
Q 4013 3213 3611 3725 
Q 3209 4238 2522 4238 
z
M 2522 4750 
Q 3503 4750 4090 4092 
Q 4678 3434 4678 2328 
Q 4678 1225 4090 567 
Q 3503 -91 2522 -91 
Q 1538 -91 948 565 
Q 359 1222 359 2328 
Q 359 3434 948 4092 
Q 1538 4750 2522 4750 
z
" transform="scale(0.015625)"/>
       <path id="DejaVuSans-54" d="M -19 4666 
L 3928 4666 
L 3928 4134 
L 2272 4134 
L 2272 0 
L 1638 0 
L 1638 4134 
L -19 4134 
L -19 4666 
z
" transform="scale(0.015625)"/>
      </defs>
      <use xlink:href="#DejaVuSans-44"/>
      <use xlink:href="#DejaVuSans-46" x="77.001953"/>
      <use xlink:href="#DejaVuSans-46" x="134.521484"/>
      <use xlink:href="#DejaVuSans-20" x="192.041016"/>
      <use xlink:href="#DejaVuSans-4f" x="223.828125"/>
      <use xlink:href="#DejaVuSans-55" x="302.539062"/>
      <use xlink:href="#DejaVuSans-54" x="375.732422"/>
     </g>
    </g>
   </g>
   <g id="line2d_70">
    <path d="M 141.12 414.505236 
L 173.408256 414.548193 
L 173.440512 416.005882 
L 173.601792 441.074308 
L 174.1824 441.070843 
L 185.697792 441.071215 
L 247.661568 441.168247 
L 248.338944 441.686712 
L 249.209856 442.038495 
L 250.30656 442.233663 
L 252.145152 442.312251 
L 254.080512 442.368059 
L 254.112768 442.44193 
L 254.370816 439.504967 
L 254.757888 439.049139 
L 255.14496 438.426417 
L 255.403008 437.67958 
L 255.757824 435.94595 
L 256.080384 433.005572 
L 256.402944 426.868135 
L 256.660992 417.234355 
L 256.822272 413.824277 
L 257.015808 414.224261 
L 257.56416 416.192495 
L 258.048 418.081506 
L 258.112512 417.962496 
L 258.177024 418.211078 
L 258.628608 420.462399 
L 258.725376 420.332826 
L 258.69312 420.577887 
L 258.757632 420.349375 
L 259.144704 422.526403 
L 259.273728 422.971104 
L 259.305984 422.771112 
L 259.33824 422.785548 
L 259.886592 425.57558 
L 259.951104 425.319956 
L 259.98336 425.381221 
L 260.176896 426.811447 
L 263.628288 440.368208 
L 263.660544 440.455246 
L 263.6928 440.153744 
L 263.757312 440.316977 
L 263.918592 441.466897 
L 264.208896 442.43443 
L 264.305664 442.76667 
L 264.33792 442.711215 
L 264.370176 442.549003 
L 264.434688 442.71882 
L 264.595968 443.339219 
L 264.757248 444.22267 
L 265.112064 445.108269 
L 265.14432 444.942431 
L 265.208832 445.077285 
L 266.27328 447.702182 
L 266.499072 448.128926 
L 266.531328 447.923653 
L 266.59584 448.016959 
L 266.9184 448.581373 
L 267.07968 449.144732 
L 267.111936 449.067974 
L 267.144192 449.216208 
L 267.369984 449.90104 
L 267.982848 451.186906 
L 268.015104 451.042545 
L 268.079616 451.107331 
L 268.660224 452.60516 
L 269.208576 453.694202 
L 269.240832 453.51604 
L 269.273088 453.574489 
L 269.402112 454.062146 
L 269.434368 453.921658 
L 269.49888 454.027992 
L 269.563392 454.295235 
L 269.66016 454.568112 
L 269.692416 454.43854 
L 270.369792 455.729686 
L 270.78912 456.511346 
L 270.9504 456.985271 
L 270.982656 456.856755 
L 271.014912 457.093014 
L 271.079424 457.041607 
L 273.498624 461.190741 
L 273.69216 461.017509 
L 274.305024 460.010506 
L 274.530816 459.481653 
L 275.046912 458.630278 
L 275.079168 458.660558 
L 275.272704 458.278883 
L 275.401728 458.250011 
L 275.563008 457.966923 
L 275.885568 457.496519 
L 276.466176 456.714507 
L 276.820992 456.316635 
L 276.853248 456.471559 
L 276.91776 456.256426 
L 276.950016 456.372619 
L 276.982272 456.138825 
L 277.014528 456.293397 
L 277.208064 455.947284 
L 277.24032 455.964889 
L 278.04672 455.07936 
L 278.337024 454.766696 
L 278.36928 454.880072 
L 278.401536 454.848735 
L 278.562816 454.499101 
L 278.627328 454.635011 
L 278.788608 454.256504 
L 279.33696 453.7442 
L 279.369216 453.921658 
L 279.433728 453.665682 
L 279.465984 453.845253 
L 279.595008 453.567447 
L 279.65952 453.648782 
L 279.788544 453.399496 
L 280.336896 453.049157 
L 280.820736 452.530515 
L 280.982016 452.14708 
L 281.014272 452.276652 
L 281.078784 452.219964 
L 281.240064 451.871386 
L 281.27232 451.865048 
L 281.304576 452.108349 
L 281.369088 451.774559 
L 281.401344 452.035112 
L 281.530368 451.616114 
L 281.562624 451.597453 
L 281.59488 451.774559 
L 281.659392 451.514006 
L 283.272192 450.38236 
L 283.497984 449.893998 
L 283.594752 449.757384 
L 283.627008 450.002797 
L 283.69152 449.651402 
L 283.756032 449.604221 
L 283.788288 449.818297 
L 283.820544 449.523942 
L 283.8528 449.542604 
L 283.949568 449.384511 
L 283.981824 449.688725 
L 284.046336 449.274304 
L 284.078592 449.605277 
L 284.272128 449.117972 
L 284.304384 449.427819 
L 284.368896 449.369019 
L 284.626944 448.838054 
L 285.046272 448.580669 
L 285.078528 448.737353 
L 285.14304 448.620456 
L 285.368832 448.488419 
L 285.562368 448.371522 
L 286.11072 447.883513 
L 286.239744 447.699718 
L 286.401024 447.30255 
L 286.59456 447.081784 
L 286.626816 447.398321 
L 286.691328 446.980027 
L 286.723584 447.270861 
L 286.852608 446.856793 
L 286.884864 446.81947 
L 286.91712 447.162767 
L 286.981632 446.729685 
L 287.013888 447.08108 
L 287.142912 446.651519 
L 287.23968 446.490258 
L 287.271936 446.570536 
L 287.304192 446.849751 
L 287.336448 446.554692 
L 287.368704 446.706799 
L 287.529984 446.302237 
L 287.56224 446.330757 
L 287.594496 446.456456 
L 287.626752 446.250478 
L 287.659008 446.25576 
L 287.691264 446.561382 
L 287.72352 446.186044 
L 287.788032 446.473005 
L 287.917056 446.105061 
L 287.981568 446.286392 
L 288.04608 446.261745 
L 288.239616 446.043796 
L 288.562176 445.902957 
L 288.916992 445.62339 
L 289.65888 444.983274 
L 289.755648 444.481674 
L 289.787904 444.58167 
L 289.916928 444.326927 
L 289.949184 444.367735 
L 289.98144 444.272034 
L 290.271744 444.012573 
L 290.304 444.424845 
L 290.400768 444.370622 
L 290.529792 443.796736 
L 290.562048 444.065563 
L 290.62656 443.706211 
L 290.658816 443.748815 
L 290.691072 444.117604 
L 290.723328 443.678043 
L 290.755584 443.693254 
L 290.820096 444.009861 
L 290.884608 443.86624 
L 291.013632 443.567062 
L 291.045888 443.735576 
L 291.1104 443.541922 
L 291.142656 443.667093 
L 291.174912 443.673642 
L 291.303936 443.551992 
L 291.465216 443.500409 
L 292.7232 442.393551 
L 292.948992 441.621645 
L 292.981248 442.082542 
L 293.04576 441.83727 
L 293.432832 441.059624 
L 293.5296 441.15542 
L 293.658624 441.102671 
L 294.690816 439.502819 
L 294.81984 438.785488 
L 294.852096 438.76665 
L 294.916608 439.11977 
L 294.948864 438.83207 
L 294.98112 438.687815 
L 295.077888 438.742179 
L 295.110144 438.812388 
L 295.174656 438.717356 
L 295.9488 437.405048 
L 297.464832 434.821346 
L 300.46464 429.728235 
L 300.529152 429.19727 
L 300.593664 429.277548 
L 300.658176 429.367333 
L 300.722688 429.287759 
L 301.91616 427.0551 
L 302.045184 426.537866 
L 302.109696 426.719549 
L 302.174208 426.592441 
L 302.529024 425.941411 
L 304.722432 422.420773 
L 304.948224 422.165149 
L 304.98048 421.826078 
L 305.044992 421.900723 
L 305.077248 421.994381 
L 305.109504 421.691224 
L 305.206272 421.777136 
L 305.30304 421.719744 
L 305.690112 421.246171 
L 305.851392 420.829286 
L 306.625536 419.850099 
L 306.75456 419.673697 
L 307.109376 419.212095 
L 307.625472 418.286779 
L 308.302848 417.506176 
L 308.36736 417.513218 
L 308.399616 417.47167 
L 309.464064 416.060458 
L 309.625344 415.660121 
L 310.173696 415.177745 
L 310.560768 414.891137 
L 312.23808 412.914453 
L 313.141248 410.554686 
L 320.076288 398.288615 
L 320.882688 396.95416 
L 321.91488 395.260564 
L 323.140608 393.338103 
L 324.269568 391.588172 
L 330.978816 382.250507 
L 331.688448 381.313924 
L 334.688256 377.201408 
L 334.720512 377.236618 
L 334.752768 376.926771 
L 334.914048 439.930865 
L 335.010816 439.928119 
L 335.4624 439.931218 
L 337.946112 440.080155 
L 338.655744 440.644676 
L 339.4944 441.008144 
L 340.655616 441.246645 
L 342.55872 441.374207 
L 347.268096 441.398847 
L 359.912448 441.479221 
L 366.686208 441.434927 
L 393.007104 441.258715 
L 415.328256 441.160448 
L 415.360512 441.407716 
L 415.392768 440.813335 
L 415.554048 436.984994 
L 416.070144 434.355871 
L 416.231424 430.975369 
L 416.42496 420.325432 
L 416.812032 395.507033 
L 417.844224 395.616184 
L 423.714816 396.147853 
L 425.101824 396.253483 
L 425.94048 396.323903 
L 427.327488 396.429532 
L 428.166144 396.499952 
L 429.746688 396.605582 
L 430.585344 396.676002 
L 432.359424 396.781631 
L 433.19808 396.852051 
L 435.262464 396.957681 
L 436.10112 397.028101 
L 438.35904 397.13373 
L 439.16544 397.200629 
L 441.842688 397.30978 
L 442.520064 397.34499 
L 443.229696 397.376679 
L 445.810176 397.485829 
L 446.455296 397.517518 
L 449.390592 397.623148 
L 449.842176 397.658358 
L 453.35808 397.763987 
L 453.809664 397.799197 
L 455.712768 397.862575 
L 455.841792 397.873138 
L 460.518912 397.975247 
L 460.970496 398.013978 
L 466.324992 398.116086 
L 466.776576 398.151296 
L 473.485824 398.256926 
L 473.937408 398.292136 
L 482.87232 398.397765 
L 483.323904 398.436496 
L 495.968256 398.464664 
L 496.000512 398.644235 
L 496.065024 398.464664 
L 496.25856 398.447059 
L 497.452032 398.468185 
L 576.608256 398.464664 
L 576.640512 398.640714 
L 576.705024 398.447059 
L 576.995328 398.461143 
L 657.248256 398.464664 
L 657.280512 398.644235 
L 657.345024 398.464664 
L 657.53856 398.447059 
L 658.732032 398.468185 
L 737.888256 398.464664 
L 737.920512 398.644235 
L 737.985024 398.464664 
L 738.17856 398.447059 
L 739.372032 398.468185 
L 818.528256 398.464664 
L 818.560512 398.644235 
L 818.625024 398.464664 
L 818.81856 398.447059 
L 820.012032 398.468185 
L 899.168256 398.464664 
L 899.200512 398.644235 
L 899.265024 398.464664 
L 899.45856 398.447059 
L 900.652032 398.468185 
L 947.52 398.468185 
L 947.52 398.468185 
" clip-path="url(#p386a2895c3)" style="fill: none; stroke: #ff00ff; stroke-width: 2; stroke-linecap: square"/>
   </g>
   <g id="patch_22">
    <path d="M 100.8 465.442759 
L 100.8 372.711724 
" style="fill: none; stroke: #bcbcbc; stroke-width: 0.8; stroke-linejoin: miter; stroke-linecap: square"/>
   </g>
   <g id="patch_23">
    <path d="M 987.84 465.442759 
L 987.84 372.711724 
" style="fill: none; stroke: #bcbcbc; stroke-width: 0.8; stroke-linejoin: miter; stroke-linecap: square"/>
   </g>
   <g id="patch_24">
    <path d="M 100.8 465.442759 
L 987.84 465.442759 
" style="fill: none; stroke: #bcbcbc; stroke-width: 0.8; stroke-linejoin: miter; stroke-linecap: square"/>
   </g>
   <g id="patch_25">
    <path d="M 100.8 372.711724 
L 987.84 372.711724 
" style="fill: none; stroke: #bcbcbc; stroke-width: 0.8; stroke-linejoin: miter; stroke-linecap: square"/>
   </g>
  </g>
  <g id="axes_5">
   <g id="patch_26">
    <path d="M 100.8 576.72 
L 987.84 576.72 
L 987.84 483.988966 
L 100.8 483.988966 
z
" style="fill: #eeeeee"/>
   </g>
   <g id="matplotlib.axis_9">
    <g id="xtick_25">
     <g id="line2d_71">
      <path d="M 141.12 576.72 
L 141.12 483.988966 
" clip-path="url(#p92c14fc580)" style="fill: none; stroke-dasharray: 1.85,0.8; stroke-dashoffset: 0; stroke: #b2b2b2; stroke-width: 0.5"/>
     </g>
     <g id="line2d_72">
      <g>
       <use xlink:href="#m30c27f58e9" x="141.12" y="576.72" style="stroke: #000000; stroke-width: 0.8"/>
      </g>
     </g>
     <g id="text_14">
      <!-- 0 s -->
      <g transform="translate(130.795 590.857813) scale(0.14 -0.14)">
       <defs>
        <path id="DejaVuSans-73" d="M 2834 3397 
L 2834 2853 
Q 2591 2978 2328 3040 
Q 2066 3103 1784 3103 
Q 1356 3103 1142 2972 
Q 928 2841 928 2578 
Q 928 2378 1081 2264 
Q 1234 2150 1697 2047 
L 1894 2003 
Q 2506 1872 2764 1633 
Q 3022 1394 3022 966 
Q 3022 478 2636 193 
Q 2250 -91 1575 -91 
Q 1294 -91 989 -36 
Q 684 19 347 128 
L 347 722 
Q 666 556 975 473 
Q 1284 391 1588 391 
Q 1994 391 2212 530 
Q 2431 669 2431 922 
Q 2431 1156 2273 1281 
Q 2116 1406 1581 1522 
L 1381 1569 
Q 847 1681 609 1914 
Q 372 2147 372 2553 
Q 372 3047 722 3315 
Q 1072 3584 1716 3584 
Q 2034 3584 2315 3537 
Q 2597 3491 2834 3397 
z
" transform="scale(0.015625)"/>
       </defs>
       <use xlink:href="#DejaVuSans-30"/>
       <use xlink:href="#DejaVuSans-20" x="63.623047"/>
       <use xlink:href="#DejaVuSans-73" x="95.410156"/>
      </g>
     </g>
    </g>
    <g id="xtick_26">
     <g id="line2d_73">
      <path d="M 302.4 576.72 
L 302.4 483.988966 
" clip-path="url(#p92c14fc580)" style="fill: none; stroke-dasharray: 1.85,0.8; stroke-dashoffset: 0; stroke: #b2b2b2; stroke-width: 0.5"/>
     </g>
     <g id="line2d_74">
      <g>
       <use xlink:href="#m30c27f58e9" x="302.4" y="576.72" style="stroke: #000000; stroke-width: 0.8"/>
      </g>
     </g>
     <g id="text_15">
      <!-- 50 ns -->
      <g transform="translate(283.185 590.857813) scale(0.14 -0.14)">
       <defs>
        <path id="DejaVuSans-35" d="M 691 4666 
L 3169 4666 
L 3169 4134 
L 1269 4134 
L 1269 2991 
Q 1406 3038 1543 3061 
Q 1681 3084 1819 3084 
Q 2600 3084 3056 2656 
Q 3513 2228 3513 1497 
Q 3513 744 3044 326 
Q 2575 -91 1722 -91 
Q 1428 -91 1123 -41 
Q 819 9 494 109 
L 494 744 
Q 775 591 1075 516 
Q 1375 441 1709 441 
Q 2250 441 2565 725 
Q 2881 1009 2881 1497 
Q 2881 1984 2565 2268 
Q 2250 2553 1709 2553 
Q 1456 2553 1204 2497 
Q 953 2441 691 2322 
L 691 4666 
z
" transform="scale(0.015625)"/>
        <path id="DejaVuSans-6e" d="M 3513 2113 
L 3513 0 
L 2938 0 
L 2938 2094 
Q 2938 2591 2744 2837 
Q 2550 3084 2163 3084 
Q 1697 3084 1428 2787 
Q 1159 2491 1159 1978 
L 1159 0 
L 581 0 
L 581 3500 
L 1159 3500 
L 1159 2956 
Q 1366 3272 1645 3428 
Q 1925 3584 2291 3584 
Q 2894 3584 3203 3211 
Q 3513 2838 3513 2113 
z
" transform="scale(0.015625)"/>
       </defs>
       <use xlink:href="#DejaVuSans-35"/>
       <use xlink:href="#DejaVuSans-30" x="63.623047"/>
       <use xlink:href="#DejaVuSans-20" x="127.246094"/>
       <use xlink:href="#DejaVuSans-6e" x="159.033203"/>
       <use xlink:href="#DejaVuSans-73" x="222.412109"/>
      </g>
     </g>
    </g>
    <g id="xtick_27">
     <g id="line2d_75">
      <path d="M 463.68 576.72 
L 463.68 483.988966 
" clip-path="url(#p92c14fc580)" style="fill: none; stroke-dasharray: 1.85,0.8; stroke-dashoffset: 0; stroke: #b2b2b2; stroke-width: 0.5"/>
     </g>
     <g id="line2d_76">
      <g>
       <use xlink:href="#m30c27f58e9" x="463.68" y="576.72" style="stroke: #000000; stroke-width: 0.8"/>
      </g>
     </g>
     <g id="text_16">
      <!-- 100 ns -->
      <g transform="translate(440.01125 590.857813) scale(0.14 -0.14)">
       <use xlink:href="#DejaVuSans-31"/>
       <use xlink:href="#DejaVuSans-30" x="63.623047"/>
       <use xlink:href="#DejaVuSans-30" x="127.246094"/>
       <use xlink:href="#DejaVuSans-20" x="190.869141"/>
       <use xlink:href="#DejaVuSans-6e" x="222.65625"/>
       <use xlink:href="#DejaVuSans-73" x="286.035156"/>
      </g>
     </g>
    </g>
    <g id="xtick_28">
     <g id="line2d_77">
      <path d="M 624.96 576.72 
L 624.96 483.988966 
" clip-path="url(#p92c14fc580)" style="fill: none; stroke-dasharray: 1.85,0.8; stroke-dashoffset: 0; stroke: #b2b2b2; stroke-width: 0.5"/>
     </g>
     <g id="line2d_78">
      <g>
       <use xlink:href="#m30c27f58e9" x="624.96" y="576.72" style="stroke: #000000; stroke-width: 0.8"/>
      </g>
     </g>
     <g id="text_17">
      <!-- 150 ns -->
      <g transform="translate(601.29125 590.857813) scale(0.14 -0.14)">
       <use xlink:href="#DejaVuSans-31"/>
       <use xlink:href="#DejaVuSans-35" x="63.623047"/>
       <use xlink:href="#DejaVuSans-30" x="127.246094"/>
       <use xlink:href="#DejaVuSans-20" x="190.869141"/>
       <use xlink:href="#DejaVuSans-6e" x="222.65625"/>
       <use xlink:href="#DejaVuSans-73" x="286.035156"/>
      </g>
     </g>
    </g>
    <g id="xtick_29">
     <g id="line2d_79">
      <path d="M 786.24 576.72 
L 786.24 483.988966 
" clip-path="url(#p92c14fc580)" style="fill: none; stroke-dasharray: 1.85,0.8; stroke-dashoffset: 0; stroke: #b2b2b2; stroke-width: 0.5"/>
     </g>
     <g id="line2d_80">
      <g>
       <use xlink:href="#m30c27f58e9" x="786.24" y="576.72" style="stroke: #000000; stroke-width: 0.8"/>
      </g>
     </g>
     <g id="text_18">
      <!-- 200 ns -->
      <g transform="translate(762.57125 590.857813) scale(0.14 -0.14)">
       <use xlink:href="#DejaVuSans-32"/>
       <use xlink:href="#DejaVuSans-30" x="63.623047"/>
       <use xlink:href="#DejaVuSans-30" x="127.246094"/>
       <use xlink:href="#DejaVuSans-20" x="190.869141"/>
       <use xlink:href="#DejaVuSans-6e" x="222.65625"/>
       <use xlink:href="#DejaVuSans-73" x="286.035156"/>
      </g>
     </g>
    </g>
    <g id="xtick_30">
     <g id="line2d_81">
      <path d="M 947.52 576.72 
L 947.52 483.988966 
" clip-path="url(#p92c14fc580)" style="fill: none; stroke-dasharray: 1.85,0.8; stroke-dashoffset: 0; stroke: #b2b2b2; stroke-width: 0.5"/>
     </g>
     <g id="line2d_82">
      <g>
       <use xlink:href="#m30c27f58e9" x="947.52" y="576.72" style="stroke: #000000; stroke-width: 0.8"/>
      </g>
     </g>
     <g id="text_19">
      <!-- 250 ns -->
      <g transform="translate(923.85125 590.857813) scale(0.14 -0.14)">
       <use xlink:href="#DejaVuSans-32"/>
       <use xlink:href="#DejaVuSans-35" x="63.623047"/>
       <use xlink:href="#DejaVuSans-30" x="127.246094"/>
       <use xlink:href="#DejaVuSans-20" x="190.869141"/>
       <use xlink:href="#DejaVuSans-6e" x="222.65625"/>
       <use xlink:href="#DejaVuSans-73" x="286.035156"/>
      </g>
     </g>
    </g>
    <g id="text_20">
     <!-- Time -->
     <g transform="translate(527.192969 608.407187) scale(0.14 -0.14)">
      <defs>
       <path id="DejaVuSans-69" d="M 603 3500 
L 1178 3500 
L 1178 0 
L 603 0 
L 603 3500 
z
M 603 4863 
L 1178 4863 
L 1178 4134 
L 603 4134 
L 603 4863 
z
" transform="scale(0.015625)"/>
       <path id="DejaVuSans-6d" d="M 3328 2828 
Q 3544 3216 3844 3400 
Q 4144 3584 4550 3584 
Q 5097 3584 5394 3201 
Q 5691 2819 5691 2113 
L 5691 0 
L 5113 0 
L 5113 2094 
Q 5113 2597 4934 2840 
Q 4756 3084 4391 3084 
Q 3944 3084 3684 2787 
Q 3425 2491 3425 1978 
L 3425 0 
L 2847 0 
L 2847 2094 
Q 2847 2600 2669 2842 
Q 2491 3084 2119 3084 
Q 1678 3084 1418 2786 
Q 1159 2488 1159 1978 
L 1159 0 
L 581 0 
L 581 3500 
L 1159 3500 
L 1159 2956 
Q 1356 3278 1631 3431 
Q 1906 3584 2284 3584 
Q 2666 3584 2933 3390 
Q 3200 3197 3328 2828 
z
" transform="scale(0.015625)"/>
       <path id="DejaVuSans-65" d="M 3597 1894 
L 3597 1613 
L 953 1613 
Q 991 1019 1311 708 
Q 1631 397 2203 397 
Q 2534 397 2845 478 
Q 3156 559 3463 722 
L 3463 178 
Q 3153 47 2828 -22 
Q 2503 -91 2169 -91 
Q 1331 -91 842 396 
Q 353 884 353 1716 
Q 353 2575 817 3079 
Q 1281 3584 2069 3584 
Q 2775 3584 3186 3129 
Q 3597 2675 3597 1894 
z
M 3022 2063 
Q 3016 2534 2758 2815 
Q 2500 3097 2075 3097 
Q 1594 3097 1305 2825 
Q 1016 2553 972 2059 
L 3022 2063 
z
" transform="scale(0.015625)"/>
      </defs>
      <use xlink:href="#DejaVuSans-54"/>
      <use xlink:href="#DejaVuSans-69" x="57.958984"/>
      <use xlink:href="#DejaVuSans-6d" x="85.742188"/>
      <use xlink:href="#DejaVuSans-65" x="183.154297"/>
     </g>
    </g>
   </g>
   <g id="matplotlib.axis_10">
    <g id="ytick_10">
     <g id="line2d_83">
      <path d="M 100.8 569.738343 
L 987.84 569.738343 
" clip-path="url(#p92c14fc580)" style="fill: none; stroke-dasharray: 1.85,0.8; stroke-dashoffset: 0; stroke: #b2b2b2; stroke-width: 0.5"/>
     </g>
     <g id="line2d_84">
      <g>
       <use xlink:href="#m18d0472a4d" x="100.8" y="569.738343" style="stroke: #000000; stroke-width: 0.8"/>
      </g>
     </g>
     <g id="text_21">
      <!-- 0 V -->
      <g transform="translate(74.36625 575.05725) scale(0.14 -0.14)">
       <use xlink:href="#DejaVuSans-30"/>
       <use xlink:href="#DejaVuSans-20" x="63.623047"/>
       <use xlink:href="#DejaVuSans-56" x="95.410156"/>
      </g>
     </g>
    </g>
    <g id="ytick_11">
     <g id="line2d_85">
      <path d="M 100.8 535.850425 
L 987.84 535.850425 
" clip-path="url(#p92c14fc580)" style="fill: none; stroke-dasharray: 1.85,0.8; stroke-dashoffset: 0; stroke: #b2b2b2; stroke-width: 0.5"/>
     </g>
     <g id="line2d_86">
      <g>
       <use xlink:href="#m18d0472a4d" x="100.8" y="535.850425" style="stroke: #000000; stroke-width: 0.8"/>
      </g>
     </g>
     <g id="text_22">
      <!-- 500 mV -->
      <g transform="translate(42.914375 541.169332) scale(0.14 -0.14)">
       <use xlink:href="#DejaVuSans-35"/>
       <use xlink:href="#DejaVuSans-30" x="63.623047"/>
       <use xlink:href="#DejaVuSans-30" x="127.246094"/>
       <use xlink:href="#DejaVuSans-20" x="190.869141"/>
       <use xlink:href="#DejaVuSans-6d" x="222.65625"/>
       <use xlink:href="#DejaVuSans-56" x="320.068359"/>
      </g>
     </g>
    </g>
    <g id="ytick_12">
     <g id="line2d_87">
      <path d="M 100.8 501.962507 
L 987.84 501.962507 
" clip-path="url(#p92c14fc580)" style="fill: none; stroke-dasharray: 1.85,0.8; stroke-dashoffset: 0; stroke: #b2b2b2; stroke-width: 0.5"/>
     </g>
     <g id="line2d_88">
      <g>
       <use xlink:href="#m18d0472a4d" x="100.8" y="501.962507" style="stroke: #000000; stroke-width: 0.8"/>
      </g>
     </g>
     <g id="text_23">
      <!-- 1 V -->
      <g transform="translate(74.36625 507.281414) scale(0.14 -0.14)">
       <use xlink:href="#DejaVuSans-31"/>
       <use xlink:href="#DejaVuSans-20" x="63.623047"/>
       <use xlink:href="#DejaVuSans-56" x="95.410156"/>
      </g>
     </g>
    </g>
    <g id="text_24">
     <g id="patch_27">
      <path d="M 34.8768 554.329483 
L 34.8768 506.379483 
L 11.247425 506.379483 
L 11.247425 554.329483 
z
" style="fill: #ffff00; opacity: 0.2; stroke: #eeeeee; stroke-width: 0.5; stroke-linejoin: miter"/>
     </g>
     <!-- FOUT -->
     <g transform="translate(26.925238 549.289483) rotate(-90) scale(0.14 -0.14)">
      <use xlink:href="#DejaVuSans-46"/>
      <use xlink:href="#DejaVuSans-4f" x="57.519531"/>
      <use xlink:href="#DejaVuSans-55" x="136.230469"/>
      <use xlink:href="#DejaVuSans-54" x="209.423828"/>
     </g>
    </g>
   </g>
   <g id="line2d_89">
    <path d="M 141.12 488.40734 
L 173.472768 488.414118 
L 173.505024 488.217568 
L 173.569536 526.664766 
L 173.69856 572.504953 
L 173.730816 572.36913 
L 173.827584 567.829369 
L 173.892096 569.352306 
L 174.053376 570.05752 
L 174.117888 569.939671 
L 174.408192 569.483818 
L 174.440448 569.53341 
L 174.66624 569.722369 
L 176.182272 569.732593 
L 180.085248 569.754239 
L 193.568256 569.744634 
L 212.8896 569.736465 
L 256.628736 569.799191 
L 256.660992 568.153541 
L 256.91904 488.278566 
L 256.951296 488.366675 
L 257.144832 488.40734 
L 258.983424 488.332787 
L 259.01568 488.204013 
L 259.047936 488.339564 
L 259.112448 511.904545 
L 259.241472 569.74861 
L 259.273728 569.736751 
L 266.112 569.736654 
L 305.6256 569.752911 
L 305.657856 569.360832 
L 305.722368 561.475791 
L 305.94816 488.671666 
L 306.10944 488.414118 
L 306.657792 488.40734 
L 334.849536 488.448006 
L 334.881792 490.501613 
L 335.075328 569.737588 
L 335.107584 569.736101 
L 342.784512 569.736634 
L 416.42496 569.729763 
L 416.489472 569.248263 
L 416.74752 488.488671 
L 416.9088 488.40734 
L 947.52 488.40734 
L 947.52 488.40734 
" clip-path="url(#p92c14fc580)" style="fill: none; stroke: #ff00ff; stroke-width: 2; stroke-linecap: square"/>
   </g>
   <g id="patch_28">
    <path d="M 100.8 576.72 
L 100.8 483.988966 
" style="fill: none; stroke: #bcbcbc; stroke-width: 0.8; stroke-linejoin: miter; stroke-linecap: square"/>
   </g>
   <g id="patch_29">
    <path d="M 987.84 576.72 
L 987.84 483.988966 
" style="fill: none; stroke: #bcbcbc; stroke-width: 0.8; stroke-linejoin: miter; stroke-linecap: square"/>
   </g>
   <g id="patch_30">
    <path d="M 100.8 576.72 
L 987.84 576.72 
" style="fill: none; stroke: #bcbcbc; stroke-width: 0.8; stroke-linejoin: miter; stroke-linecap: square"/>
   </g>
   <g id="patch_31">
    <path d="M 100.8 483.988966 
L 987.84 483.988966 
" style="fill: none; stroke: #bcbcbc; stroke-width: 0.8; stroke-linejoin: miter; stroke-linecap: square"/>
   </g>
  </g>
  <g id="axes_6">
   <g id="patch_32">
    <path d="M 201.6 628.56 
L 856.8 628.56 
L 856.8 615.6 
L 201.6 615.6 
z
" clip-path="url(#p31aa8a1a0e)" style="fill: #d3d3d3"/>
   </g>
   <g id="patch_33">
    <path d="M 201.6 628.56 
L 281.16 628.56 
L 281.16 615.6 
L 201.6 615.6 
z
" clip-path="url(#p31aa8a1a0e)" style="fill: #0000ff"/>
   </g>
   <g id="line2d_90">
    <path d="M 201.6 635.04 
L 201.6 609.12 
" clip-path="url(#pde98409593)" style="fill: none; stroke: #ff0000; stroke-linecap: square"/>
   </g>
   <g id="line2d_91">
    <defs>
     <path id="mca630d9eb0" d="M 0 5 
C 1.326016 5 2.597899 4.473168 3.535534 3.535534 
C 4.473168 2.597899 5 1.326016 5 0 
C 5 -1.326016 4.473168 -2.597899 3.535534 -3.535534 
C 2.597899 -4.473168 1.326016 -5 0 -5 
C -1.326016 -5 -2.597899 -4.473168 -3.535534 -3.535534 
C -4.473168 -2.597899 -5 -1.326016 -5 0 
C -5 1.326016 -4.473168 2.597899 -3.535534 3.535534 
C -2.597899 4.473168 -1.326016 5 0 5 
z
" style="stroke: #bfbfbf"/>
    </defs>
    <g>
     <use xlink:href="#mca630d9eb0" x="281.16" y="622.08" style="fill: #ffffff; stroke: #bfbfbf"/>
    </g>
   </g>
   <g id="text_25">
    <!-- #Sweep -->
    <g transform="translate(138.622875 625.39125) scale(0.12 -0.12)">
     <defs>
      <path id="DejaVuSans-23" d="M 3272 2816 
L 2363 2816 
L 2100 1772 
L 3016 1772 
L 3272 2816 
z
M 2803 4594 
L 2478 3297 
L 3391 3297 
L 3719 4594 
L 4219 4594 
L 3897 3297 
L 4872 3297 
L 4872 2816 
L 3775 2816 
L 3519 1772 
L 4513 1772 
L 4513 1294 
L 3397 1294 
L 3072 0 
L 2572 0 
L 2894 1294 
L 1978 1294 
L 1656 0 
L 1153 0 
L 1478 1294 
L 494 1294 
L 494 1772 
L 1594 1772 
L 1856 2816 
L 850 2816 
L 850 3297 
L 1978 3297 
L 2297 4594 
L 2803 4594 
z
" transform="scale(0.015625)"/>
      <path id="DejaVuSans-77" d="M 269 3500 
L 844 3500 
L 1563 769 
L 2278 3500 
L 2956 3500 
L 3675 769 
L 4391 3500 
L 4966 3500 
L 4050 0 
L 3372 0 
L 2619 2869 
L 1863 0 
L 1184 0 
L 269 3500 
z
" transform="scale(0.015625)"/>
      <path id="DejaVuSans-70" d="M 1159 525 
L 1159 -1331 
L 581 -1331 
L 581 3500 
L 1159 3500 
L 1159 2969 
Q 1341 3281 1617 3432 
Q 1894 3584 2278 3584 
Q 2916 3584 3314 3078 
Q 3713 2572 3713 1747 
Q 3713 922 3314 415 
Q 2916 -91 2278 -91 
Q 1894 -91 1617 61 
Q 1341 213 1159 525 
z
M 3116 1747 
Q 3116 2381 2855 2742 
Q 2594 3103 2138 3103 
Q 1681 3103 1420 2742 
Q 1159 2381 1159 1747 
Q 1159 1113 1420 752 
Q 1681 391 2138 391 
Q 2594 391 2855 752 
Q 3116 1113 3116 1747 
z
" transform="scale(0.015625)"/>
     </defs>
     <use xlink:href="#DejaVuSans-23"/>
     <use xlink:href="#DejaVuSans-53" x="83.789062"/>
     <use xlink:href="#DejaVuSans-77" x="147.265625"/>
     <use xlink:href="#DejaVuSans-65" x="229.052734"/>
     <use xlink:href="#DejaVuSans-65" x="290.576172"/>
     <use xlink:href="#DejaVuSans-70" x="352.099609"/>
    </g>
   </g>
   <g id="text_26">
    <!-- $\mathdefault{17}$ -->
    <g transform="translate(869.904 625.39125) scale(0.12 -0.12)">
     <defs>
      <path id="DejaVuSans-37" d="M 525 4666 
L 3525 4666 
L 3525 4397 
L 1831 0 
L 1172 0 
L 2766 4134 
L 525 4134 
L 525 4666 
z
" transform="scale(0.015625)"/>
     </defs>
     <use xlink:href="#DejaVuSans-31" transform="translate(0 0.09375)"/>
     <use xlink:href="#DejaVuSans-37" transform="translate(63.623047 0.09375)"/>
    </g>
   </g>
  </g>
  <g id="text_27">
   <!-- DFF under BBI sweep analysis (Sweep = 27E-9) -->
   <g transform="translate(313.34625 25.1175) scale(0.16 -0.16)">
    <defs>
     <path id="DejaVuSans-75" d="M 544 1381 
L 544 3500 
L 1119 3500 
L 1119 1403 
Q 1119 906 1312 657 
Q 1506 409 1894 409 
Q 2359 409 2629 706 
Q 2900 1003 2900 1516 
L 2900 3500 
L 3475 3500 
L 3475 0 
L 2900 0 
L 2900 538 
Q 2691 219 2414 64 
Q 2138 -91 1772 -91 
Q 1169 -91 856 284 
Q 544 659 544 1381 
z
M 1991 3584 
L 1991 3584 
z
" transform="scale(0.015625)"/>
     <path id="DejaVuSans-64" d="M 2906 2969 
L 2906 4863 
L 3481 4863 
L 3481 0 
L 2906 0 
L 2906 525 
Q 2725 213 2448 61 
Q 2172 -91 1784 -91 
Q 1150 -91 751 415 
Q 353 922 353 1747 
Q 353 2572 751 3078 
Q 1150 3584 1784 3584 
Q 2172 3584 2448 3432 
Q 2725 3281 2906 2969 
z
M 947 1747 
Q 947 1113 1208 752 
Q 1469 391 1925 391 
Q 2381 391 2643 752 
Q 2906 1113 2906 1747 
Q 2906 2381 2643 2742 
Q 2381 3103 1925 3103 
Q 1469 3103 1208 2742 
Q 947 2381 947 1747 
z
" transform="scale(0.015625)"/>
     <path id="DejaVuSans-72" d="M 2631 2963 
Q 2534 3019 2420 3045 
Q 2306 3072 2169 3072 
Q 1681 3072 1420 2755 
Q 1159 2438 1159 1844 
L 1159 0 
L 581 0 
L 581 3500 
L 1159 3500 
L 1159 2956 
Q 1341 3275 1631 3429 
Q 1922 3584 2338 3584 
Q 2397 3584 2469 3576 
Q 2541 3569 2628 3553 
L 2631 2963 
z
" transform="scale(0.015625)"/>
     <path id="DejaVuSans-61" d="M 2194 1759 
Q 1497 1759 1228 1600 
Q 959 1441 959 1056 
Q 959 750 1161 570 
Q 1363 391 1709 391 
Q 2188 391 2477 730 
Q 2766 1069 2766 1631 
L 2766 1759 
L 2194 1759 
z
M 3341 1997 
L 3341 0 
L 2766 0 
L 2766 531 
Q 2569 213 2275 61 
Q 1981 -91 1556 -91 
Q 1019 -91 701 211 
Q 384 513 384 1019 
Q 384 1609 779 1909 
Q 1175 2209 1959 2209 
L 2766 2209 
L 2766 2266 
Q 2766 2663 2505 2880 
Q 2244 3097 1772 3097 
Q 1472 3097 1187 3025 
Q 903 2953 641 2809 
L 641 3341 
Q 956 3463 1253 3523 
Q 1550 3584 1831 3584 
Q 2591 3584 2966 3190 
Q 3341 2797 3341 1997 
z
" transform="scale(0.015625)"/>
     <path id="DejaVuSans-6c" d="M 603 4863 
L 1178 4863 
L 1178 0 
L 603 0 
L 603 4863 
z
" transform="scale(0.015625)"/>
     <path id="DejaVuSans-79" d="M 2059 -325 
Q 1816 -950 1584 -1140 
Q 1353 -1331 966 -1331 
L 506 -1331 
L 506 -850 
L 844 -850 
Q 1081 -850 1212 -737 
Q 1344 -625 1503 -206 
L 1606 56 
L 191 3500 
L 800 3500 
L 1894 763 
L 2988 3500 
L 3597 3500 
L 2059 -325 
z
" transform="scale(0.015625)"/>
     <path id="DejaVuSans-28" d="M 1984 4856 
Q 1566 4138 1362 3434 
Q 1159 2731 1159 2009 
Q 1159 1288 1364 580 
Q 1569 -128 1984 -844 
L 1484 -844 
Q 1016 -109 783 600 
Q 550 1309 550 2009 
Q 550 2706 781 3412 
Q 1013 4119 1484 4856 
L 1984 4856 
z
" transform="scale(0.015625)"/>
     <path id="DejaVuSans-3d" d="M 678 2906 
L 4684 2906 
L 4684 2381 
L 678 2381 
L 678 2906 
z
M 678 1631 
L 4684 1631 
L 4684 1100 
L 678 1100 
L 678 1631 
z
" transform="scale(0.015625)"/>
     <path id="DejaVuSans-2d" d="M 313 2009 
L 1997 2009 
L 1997 1497 
L 313 1497 
L 313 2009 
z
" transform="scale(0.015625)"/>
     <path id="DejaVuSans-39" d="M 703 97 
L 703 672 
Q 941 559 1184 500 
Q 1428 441 1663 441 
Q 2288 441 2617 861 
Q 2947 1281 2994 2138 
Q 2813 1869 2534 1725 
Q 2256 1581 1919 1581 
Q 1219 1581 811 2004 
Q 403 2428 403 3163 
Q 403 3881 828 4315 
Q 1253 4750 1959 4750 
Q 2769 4750 3195 4129 
Q 3622 3509 3622 2328 
Q 3622 1225 3098 567 
Q 2575 -91 1691 -91 
Q 1453 -91 1209 -44 
Q 966 3 703 97 
z
M 1959 2075 
Q 2384 2075 2632 2365 
Q 2881 2656 2881 3163 
Q 2881 3666 2632 3958 
Q 2384 4250 1959 4250 
Q 1534 4250 1286 3958 
Q 1038 3666 1038 3163 
Q 1038 2656 1286 2365 
Q 1534 2075 1959 2075 
z
" transform="scale(0.015625)"/>
     <path id="DejaVuSans-29" d="M 513 4856 
L 1013 4856 
Q 1481 4119 1714 3412 
Q 1947 2706 1947 2009 
Q 1947 1309 1714 600 
Q 1481 -109 1013 -844 
L 513 -844 
Q 928 -128 1133 580 
Q 1338 1288 1338 2009 
Q 1338 2731 1133 3434 
Q 928 4138 513 4856 
z
" transform="scale(0.015625)"/>
    </defs>
    <use xlink:href="#DejaVuSans-44"/>
    <use xlink:href="#DejaVuSans-46" x="77.001953"/>
    <use xlink:href="#DejaVuSans-46" x="134.521484"/>
    <use xlink:href="#DejaVuSans-20" x="192.041016"/>
    <use xlink:href="#DejaVuSans-75" x="223.828125"/>
    <use xlink:href="#DejaVuSans-6e" x="287.207031"/>
    <use xlink:href="#DejaVuSans-64" x="350.585938"/>
    <use xlink:href="#DejaVuSans-65" x="414.0625"/>
    <use xlink:href="#DejaVuSans-72" x="475.585938"/>
    <use xlink:href="#DejaVuSans-20" x="516.699219"/>
    <use xlink:href="#DejaVuSans-42" x="548.486328"/>
    <use xlink:href="#DejaVuSans-42" x="617.089844"/>
    <use xlink:href="#DejaVuSans-49" x="685.693359"/>
    <use xlink:href="#DejaVuSans-20" x="715.185547"/>
    <use xlink:href="#DejaVuSans-73" x="746.972656"/>
    <use xlink:href="#DejaVuSans-77" x="799.072266"/>
    <use xlink:href="#DejaVuSans-65" x="880.859375"/>
    <use xlink:href="#DejaVuSans-65" x="942.382812"/>
    <use xlink:href="#DejaVuSans-70" x="1003.90625"/>
    <use xlink:href="#DejaVuSans-20" x="1067.382812"/>
    <use xlink:href="#DejaVuSans-61" x="1099.169922"/>
    <use xlink:href="#DejaVuSans-6e" x="1160.449219"/>
    <use xlink:href="#DejaVuSans-61" x="1223.828125"/>
    <use xlink:href="#DejaVuSans-6c" x="1285.107422"/>
    <use xlink:href="#DejaVuSans-79" x="1312.890625"/>
    <use xlink:href="#DejaVuSans-73" x="1372.070312"/>
    <use xlink:href="#DejaVuSans-69" x="1424.169922"/>
    <use xlink:href="#DejaVuSans-73" x="1451.953125"/>
    <use xlink:href="#DejaVuSans-20" x="1504.052734"/>
    <use xlink:href="#DejaVuSans-28" x="1535.839844"/>
    <use xlink:href="#DejaVuSans-53" x="1574.853516"/>
    <use xlink:href="#DejaVuSans-77" x="1638.330078"/>
    <use xlink:href="#DejaVuSans-65" x="1720.117188"/>
    <use xlink:href="#DejaVuSans-65" x="1781.640625"/>
    <use xlink:href="#DejaVuSans-70" x="1843.164062"/>
    <use xlink:href="#DejaVuSans-20" x="1906.640625"/>
    <use xlink:href="#DejaVuSans-3d" x="1938.427734"/>
    <use xlink:href="#DejaVuSans-20" x="2022.216797"/>
    <use xlink:href="#DejaVuSans-32" x="2054.003906"/>
    <use xlink:href="#DejaVuSans-37" x="2117.626953"/>
    <use xlink:href="#DejaVuSans-45" x="2181.25"/>
    <use xlink:href="#DejaVuSans-2d" x="2244.433594"/>
    <use xlink:href="#DejaVuSans-39" x="2280.517578"/>
    <use xlink:href="#DejaVuSans-29" x="2344.140625"/>
   </g>
  </g>
 </g>
 <defs>
  <clipPath id="paee3439380">
   <rect x="100.8" y="38.88" width="887.04" height="92.731034"/>
  </clipPath>
  <clipPath id="pdb0cb9f5a2">
   <rect x="100.8" y="150.157241" width="887.04" height="92.731034"/>
  </clipPath>
  <clipPath id="pb5b6f98d0e">
   <rect x="100.8" y="261.434483" width="887.04" height="92.731034"/>
  </clipPath>
  <clipPath id="p386a2895c3">
   <rect x="100.8" y="372.711724" width="887.04" height="92.731034"/>
  </clipPath>
  <clipPath id="p92c14fc580">
   <rect x="100.8" y="483.988966" width="887.04" height="92.731034"/>
  </clipPath>
  <clipPath id="p31aa8a1a0e">
   <rect x="201.6" y="609.12" width="655.2" height="25.92"/>
  </clipPath>
  <clipPath id="pde98409593">
   <path d="M 201.6 628.56 
L 856.8 628.56 
L 856.8 615.6 
L 201.6 615.6 
z
"/>
  </clipPath>
 </defs>
</svg>
