<?xml version="1.0" encoding="utf-8" standalone="no"?>
<!DOCTYPE svg PUBLIC "-//W3C//DTD SVG 1.1//EN"
  "http://www.w3.org/Graphics/SVG/1.1/DTD/svg11.dtd">
<svg xmlns:xlink="http://www.w3.org/1999/xlink" width="1008pt" height="648pt" viewBox="0 0 1008 648" xmlns="http://www.w3.org/2000/svg" version="1.1">
 <metadata>
  <rdf:RDF xmlns:dc="http://purl.org/dc/elements/1.1/" xmlns:cc="http://creativecommons.org/ns#" xmlns:rdf="http://www.w3.org/1999/02/22-rdf-syntax-ns#">
   <cc:Work>
    <dc:type rdf:resource="http://purl.org/dc/dcmitype/StillImage"/>
    <dc:date>2024-06-03T10:45:51.696465</dc:date>
    <dc:format>image/svg+xml</dc:format>
    <dc:creator>
     <cc:Agent>
      <dc:title>Matplotlib v3.9.0, https://matplotlib.org/</dc:title>
     </cc:Agent>
    </dc:creator>
   </cc:Work>
  </rdf:RDF>
 </metadata>
 <defs>
  <style type="text/css">*{stroke-linejoin: round; stroke-linecap: butt}</style>
 </defs>
 <g id="figure_1">
  <g id="patch_1">
   <path d="M 0 648 
L 1008 648 
L 1008 0 
L 0 0 
z
" style="fill: #ffffff"/>
  </g>
  <g id="axes_1">
   <g id="patch_2">
    <path d="M 100.8 131.611034 
L 987.84 131.611034 
L 987.84 38.88 
L 100.8 38.88 
z
" style="fill: #eeeeee"/>
   </g>
   <g id="matplotlib.axis_1">
    <g id="xtick_1">
     <g id="line2d_1">
      <path d="M 141.12 131.611034 
L 141.12 38.88 
" clip-path="url(#p66affd3e4e)" style="fill: none; stroke-dasharray: 1.85,0.8; stroke-dashoffset: 0; stroke: #b2b2b2; stroke-width: 0.5"/>
     </g>
     <g id="line2d_2">
      <defs>
       <path id="mcb7d65d0dc" d="M 0 0 
L 0 -3.5 
" style="stroke: #000000; stroke-width: 0.8"/>
      </defs>
      <g>
       <use xlink:href="#mcb7d65d0dc" x="141.12" y="131.611034" style="stroke: #000000; stroke-width: 0.8"/>
      </g>
     </g>
    </g>
    <g id="xtick_2">
     <g id="line2d_3">
      <path d="M 302.4 131.611034 
L 302.4 38.88 
" clip-path="url(#p66affd3e4e)" style="fill: none; stroke-dasharray: 1.85,0.8; stroke-dashoffset: 0; stroke: #b2b2b2; stroke-width: 0.5"/>
     </g>
     <g id="line2d_4">
      <g>
       <use xlink:href="#mcb7d65d0dc" x="302.4" y="131.611034" style="stroke: #000000; stroke-width: 0.8"/>
      </g>
     </g>
    </g>
    <g id="xtick_3">
     <g id="line2d_5">
      <path d="M 463.68 131.611034 
L 463.68 38.88 
" clip-path="url(#p66affd3e4e)" style="fill: none; stroke-dasharray: 1.85,0.8; stroke-dashoffset: 0; stroke: #b2b2b2; stroke-width: 0.5"/>
     </g>
     <g id="line2d_6">
      <g>
       <use xlink:href="#mcb7d65d0dc" x="463.68" y="131.611034" style="stroke: #000000; stroke-width: 0.8"/>
      </g>
     </g>
    </g>
    <g id="xtick_4">
     <g id="line2d_7">
      <path d="M 624.96 131.611034 
L 624.96 38.88 
" clip-path="url(#p66affd3e4e)" style="fill: none; stroke-dasharray: 1.85,0.8; stroke-dashoffset: 0; stroke: #b2b2b2; stroke-width: 0.5"/>
     </g>
     <g id="line2d_8">
      <g>
       <use xlink:href="#mcb7d65d0dc" x="624.96" y="131.611034" style="stroke: #000000; stroke-width: 0.8"/>
      </g>
     </g>
    </g>
    <g id="xtick_5">
     <g id="line2d_9">
      <path d="M 786.24 131.611034 
L 786.24 38.88 
" clip-path="url(#p66affd3e4e)" style="fill: none; stroke-dasharray: 1.85,0.8; stroke-dashoffset: 0; stroke: #b2b2b2; stroke-width: 0.5"/>
     </g>
     <g id="line2d_10">
      <g>
       <use xlink:href="#mcb7d65d0dc" x="786.24" y="131.611034" style="stroke: #000000; stroke-width: 0.8"/>
      </g>
     </g>
    </g>
    <g id="xtick_6">
     <g id="line2d_11">
      <path d="M 947.52 131.611034 
L 947.52 38.88 
" clip-path="url(#p66affd3e4e)" style="fill: none; stroke-dasharray: 1.85,0.8; stroke-dashoffset: 0; stroke: #b2b2b2; stroke-width: 0.5"/>
     </g>
     <g id="line2d_12">
      <g>
       <use xlink:href="#mcb7d65d0dc" x="947.52" y="131.611034" style="stroke: #000000; stroke-width: 0.8"/>
      </g>
     </g>
    </g>
   </g>
   <g id="matplotlib.axis_2">
    <g id="ytick_1">
     <g id="line2d_13">
      <path d="M 100.8 98.340394 
L 987.84 98.340394 
" clip-path="url(#p66affd3e4e)" style="fill: none; stroke-dasharray: 1.85,0.8; stroke-dashoffset: 0; stroke: #b2b2b2; stroke-width: 0.5"/>
     </g>
     <g id="line2d_14">
      <defs>
       <path id="m761262906b" d="M 0 0 
L 3.5 0 
" style="stroke: #000000; stroke-width: 0.8"/>
      </defs>
      <g>
       <use xlink:href="#m761262906b" x="100.8" y="98.340394" style="stroke: #000000; stroke-width: 0.8"/>
      </g>
     </g>
     <g id="text_1">
      <!-- −200 V -->
      <g transform="translate(44.819688 103.6593) scale(0.14 -0.14)">
       <defs>
        <path id="DejaVuSans-2212" d="M 678 2272 
L 4684 2272 
L 4684 1741 
L 678 1741 
L 678 2272 
z
" transform="scale(0.015625)"/>
        <path id="DejaVuSans-32" d="M 1228 531 
L 3431 531 
L 3431 0 
L 469 0 
L 469 531 
Q 828 903 1448 1529 
Q 2069 2156 2228 2338 
Q 2531 2678 2651 2914 
Q 2772 3150 2772 3378 
Q 2772 3750 2511 3984 
Q 2250 4219 1831 4219 
Q 1534 4219 1204 4116 
Q 875 4013 500 3803 
L 500 4441 
Q 881 4594 1212 4672 
Q 1544 4750 1819 4750 
Q 2544 4750 2975 4387 
Q 3406 4025 3406 3419 
Q 3406 3131 3298 2873 
Q 3191 2616 2906 2266 
Q 2828 2175 2409 1742 
Q 1991 1309 1228 531 
z
" transform="scale(0.015625)"/>
        <path id="DejaVuSans-30" d="M 2034 4250 
Q 1547 4250 1301 3770 
Q 1056 3291 1056 2328 
Q 1056 1369 1301 889 
Q 1547 409 2034 409 
Q 2525 409 2770 889 
Q 3016 1369 3016 2328 
Q 3016 3291 2770 3770 
Q 2525 4250 2034 4250 
z
M 2034 4750 
Q 2819 4750 3233 4129 
Q 3647 3509 3647 2328 
Q 3647 1150 3233 529 
Q 2819 -91 2034 -91 
Q 1250 -91 836 529 
Q 422 1150 422 2328 
Q 422 3509 836 4129 
Q 1250 4750 2034 4750 
z
" transform="scale(0.015625)"/>
        <path id="DejaVuSans-20" transform="scale(0.015625)"/>
        <path id="DejaVuSans-56" d="M 1831 0 
L 50 4666 
L 709 4666 
L 2188 738 
L 3669 4666 
L 4325 4666 
L 2547 0 
L 1831 0 
z
" transform="scale(0.015625)"/>
       </defs>
       <use xlink:href="#DejaVuSans-2212"/>
       <use xlink:href="#DejaVuSans-32" x="83.789062"/>
       <use xlink:href="#DejaVuSans-30" x="147.412109"/>
       <use xlink:href="#DejaVuSans-30" x="211.035156"/>
       <use xlink:href="#DejaVuSans-20" x="274.658203"/>
       <use xlink:href="#DejaVuSans-56" x="306.445312"/>
      </g>
     </g>
    </g>
    <g id="ytick_2">
     <g id="line2d_15">
      <path d="M 100.8 45.027377 
L 987.84 45.027377 
" clip-path="url(#p66affd3e4e)" style="fill: none; stroke-dasharray: 1.85,0.8; stroke-dashoffset: 0; stroke: #b2b2b2; stroke-width: 0.5"/>
     </g>
     <g id="line2d_16">
      <g>
       <use xlink:href="#m761262906b" x="100.8" y="45.027377" style="stroke: #000000; stroke-width: 0.8"/>
      </g>
     </g>
     <g id="text_2">
      <!-- 0 V -->
      <g transform="translate(74.36625 50.346284) scale(0.14 -0.14)">
       <use xlink:href="#DejaVuSans-30"/>
       <use xlink:href="#DejaVuSans-20" x="63.623047"/>
       <use xlink:href="#DejaVuSans-56" x="95.410156"/>
      </g>
     </g>
    </g>
    <g id="text_3">
     <g id="patch_3">
      <path d="M 34.8768 131.080205 
L 34.8768 39.41083 
L 11.247425 39.41083 
L 11.247425 131.080205 
z
" style="fill: #ffff00; opacity: 0.2; stroke: #eeeeee; stroke-width: 0.5; stroke-linejoin: miter"/>
     </g>
     <!-- VPULSE BBI -->
     <g transform="translate(26.925238 126.040205) rotate(-90) scale(0.14 -0.14)">
      <defs>
       <path id="DejaVuSans-50" d="M 1259 4147 
L 1259 2394 
L 2053 2394 
Q 2494 2394 2734 2622 
Q 2975 2850 2975 3272 
Q 2975 3691 2734 3919 
Q 2494 4147 2053 4147 
L 1259 4147 
z
M 628 4666 
L 2053 4666 
Q 2838 4666 3239 4311 
Q 3641 3956 3641 3272 
Q 3641 2581 3239 2228 
Q 2838 1875 2053 1875 
L 1259 1875 
L 1259 0 
L 628 0 
L 628 4666 
z
" transform="scale(0.015625)"/>
       <path id="DejaVuSans-55" d="M 556 4666 
L 1191 4666 
L 1191 1831 
Q 1191 1081 1462 751 
Q 1734 422 2344 422 
Q 2950 422 3222 751 
Q 3494 1081 3494 1831 
L 3494 4666 
L 4128 4666 
L 4128 1753 
Q 4128 841 3676 375 
Q 3225 -91 2344 -91 
Q 1459 -91 1007 375 
Q 556 841 556 1753 
L 556 4666 
z
" transform="scale(0.015625)"/>
       <path id="DejaVuSans-4c" d="M 628 4666 
L 1259 4666 
L 1259 531 
L 3531 531 
L 3531 0 
L 628 0 
L 628 4666 
z
" transform="scale(0.015625)"/>
       <path id="DejaVuSans-53" d="M 3425 4513 
L 3425 3897 
Q 3066 4069 2747 4153 
Q 2428 4238 2131 4238 
Q 1616 4238 1336 4038 
Q 1056 3838 1056 3469 
Q 1056 3159 1242 3001 
Q 1428 2844 1947 2747 
L 2328 2669 
Q 3034 2534 3370 2195 
Q 3706 1856 3706 1288 
Q 3706 609 3251 259 
Q 2797 -91 1919 -91 
Q 1588 -91 1214 -16 
Q 841 59 441 206 
L 441 856 
Q 825 641 1194 531 
Q 1563 422 1919 422 
Q 2459 422 2753 634 
Q 3047 847 3047 1241 
Q 3047 1584 2836 1778 
Q 2625 1972 2144 2069 
L 1759 2144 
Q 1053 2284 737 2584 
Q 422 2884 422 3419 
Q 422 4038 858 4394 
Q 1294 4750 2059 4750 
Q 2388 4750 2728 4690 
Q 3069 4631 3425 4513 
z
" transform="scale(0.015625)"/>
       <path id="DejaVuSans-45" d="M 628 4666 
L 3578 4666 
L 3578 4134 
L 1259 4134 
L 1259 2753 
L 3481 2753 
L 3481 2222 
L 1259 2222 
L 1259 531 
L 3634 531 
L 3634 0 
L 628 0 
L 628 4666 
z
" transform="scale(0.015625)"/>
       <path id="DejaVuSans-42" d="M 1259 2228 
L 1259 519 
L 2272 519 
Q 2781 519 3026 730 
Q 3272 941 3272 1375 
Q 3272 1813 3026 2020 
Q 2781 2228 2272 2228 
L 1259 2228 
z
M 1259 4147 
L 1259 2741 
L 2194 2741 
Q 2656 2741 2882 2914 
Q 3109 3088 3109 3444 
Q 3109 3797 2882 3972 
Q 2656 4147 2194 4147 
L 1259 4147 
z
M 628 4666 
L 2241 4666 
Q 2963 4666 3353 4366 
Q 3744 4066 3744 3513 
Q 3744 3084 3544 2831 
Q 3344 2578 2956 2516 
Q 3422 2416 3680 2098 
Q 3938 1781 3938 1306 
Q 3938 681 3513 340 
Q 3088 0 2303 0 
L 628 0 
L 628 4666 
z
" transform="scale(0.015625)"/>
       <path id="DejaVuSans-49" d="M 628 4666 
L 1259 4666 
L 1259 0 
L 628 0 
L 628 4666 
z
" transform="scale(0.015625)"/>
      </defs>
      <use xlink:href="#DejaVuSans-56"/>
      <use xlink:href="#DejaVuSans-50" x="68.408203"/>
      <use xlink:href="#DejaVuSans-55" x="128.710938"/>
      <use xlink:href="#DejaVuSans-4c" x="201.904297"/>
      <use xlink:href="#DejaVuSans-53" x="257.617188"/>
      <use xlink:href="#DejaVuSans-45" x="321.09375"/>
      <use xlink:href="#DejaVuSans-20" x="384.277344"/>
      <use xlink:href="#DejaVuSans-42" x="416.064453"/>
      <use xlink:href="#DejaVuSans-42" x="484.667969"/>
      <use xlink:href="#DejaVuSans-49" x="553.271484"/>
     </g>
    </g>
   </g>
   <g id="line2d_17">
    <path d="M 141.12 45.027377 
L 521.773056 45.136282 
L 522.256896 46.425538 
L 530.482176 69.006772 
L 537.901056 89.863624 
L 539.513856 94.440546 
L 541.320192 99.673219 
L 544.80384 110.807642 
L 546.384384 115.853719 
L 547.642368 119.566971 
L 548.868096 120.153414 
L 549.706752 120.545265 
L 550.738944 121.017085 
L 551.319552 121.272988 
L 552.190464 121.656841 
L 552.771072 121.912744 
L 553.609728 122.269941 
L 555.190272 122.936354 
L 555.835392 123.202919 
L 556.932096 123.629423 
L 557.673984 123.922644 
L 558.770688 124.349149 
L 559.673856 124.677024 
L 560.351232 124.943589 
L 561.157632 125.25547 
L 562.512384 125.804594 
L 565.157376 126.790885 
L 565.77024 127.022796 
L 567.7056 127.395987 
L 586.188288 127.289361 
L 586.41408 126.801547 
L 604.703232 75.087922 
L 608.444928 63.292417 
L 612.154368 51.617666 
L 616.766976 49.3412 
L 622.121472 46.984578 
L 630.830592 43.484472 
L 631.701504 43.268927 
L 645.990912 43.108189 
L 652.796928 43.184799 
L 668.150784 43.746186 
L 695.9232 44.46146 
L 721.56672 44.774399 
L 757.177344 44.945888 
L 805.206528 44.953885 
L 947.52 44.953885 
L 947.52 44.953885 
" clip-path="url(#p66affd3e4e)" style="fill: none; stroke: #ff0000; stroke-width: 2; stroke-linecap: square"/>
   </g>
   <g id="patch_4">
    <path d="M 100.8 131.611034 
L 100.8 38.88 
" style="fill: none; stroke: #bcbcbc; stroke-width: 0.8; stroke-linejoin: miter; stroke-linecap: square"/>
   </g>
   <g id="patch_5">
    <path d="M 987.84 131.611034 
L 987.84 38.88 
" style="fill: none; stroke: #bcbcbc; stroke-width: 0.8; stroke-linejoin: miter; stroke-linecap: square"/>
   </g>
   <g id="patch_6">
    <path d="M 100.8 131.611034 
L 987.84 131.611034 
" style="fill: none; stroke: #bcbcbc; stroke-width: 0.8; stroke-linejoin: miter; stroke-linecap: square"/>
   </g>
   <g id="patch_7">
    <path d="M 100.8 38.88 
L 987.84 38.88 
" style="fill: none; stroke: #bcbcbc; stroke-width: 0.8; stroke-linejoin: miter; stroke-linecap: square"/>
   </g>
  </g>
  <g id="axes_2">
   <g id="patch_8">
    <path d="M 100.8 242.888276 
L 987.84 242.888276 
L 987.84 150.157241 
L 100.8 150.157241 
z
" style="fill: #eeeeee"/>
   </g>
   <g id="matplotlib.axis_3">
    <g id="xtick_7">
     <g id="line2d_18">
      <path d="M 141.12 242.888276 
L 141.12 150.157241 
" clip-path="url(#pf949d417a9)" style="fill: none; stroke-dasharray: 1.85,0.8; stroke-dashoffset: 0; stroke: #b2b2b2; stroke-width: 0.5"/>
     </g>
     <g id="line2d_19">
      <g>
       <use xlink:href="#mcb7d65d0dc" x="141.12" y="242.888276" style="stroke: #000000; stroke-width: 0.8"/>
      </g>
     </g>
    </g>
    <g id="xtick_8">
     <g id="line2d_20">
      <path d="M 302.4 242.888276 
L 302.4 150.157241 
" clip-path="url(#pf949d417a9)" style="fill: none; stroke-dasharray: 1.85,0.8; stroke-dashoffset: 0; stroke: #b2b2b2; stroke-width: 0.5"/>
     </g>
     <g id="line2d_21">
      <g>
       <use xlink:href="#mcb7d65d0dc" x="302.4" y="242.888276" style="stroke: #000000; stroke-width: 0.8"/>
      </g>
     </g>
    </g>
    <g id="xtick_9">
     <g id="line2d_22">
      <path d="M 463.68 242.888276 
L 463.68 150.157241 
" clip-path="url(#pf949d417a9)" style="fill: none; stroke-dasharray: 1.85,0.8; stroke-dashoffset: 0; stroke: #b2b2b2; stroke-width: 0.5"/>
     </g>
     <g id="line2d_23">
      <g>
       <use xlink:href="#mcb7d65d0dc" x="463.68" y="242.888276" style="stroke: #000000; stroke-width: 0.8"/>
      </g>
     </g>
    </g>
    <g id="xtick_10">
     <g id="line2d_24">
      <path d="M 624.96 242.888276 
L 624.96 150.157241 
" clip-path="url(#pf949d417a9)" style="fill: none; stroke-dasharray: 1.85,0.8; stroke-dashoffset: 0; stroke: #b2b2b2; stroke-width: 0.5"/>
     </g>
     <g id="line2d_25">
      <g>
       <use xlink:href="#mcb7d65d0dc" x="624.96" y="242.888276" style="stroke: #000000; stroke-width: 0.8"/>
      </g>
     </g>
    </g>
    <g id="xtick_11">
     <g id="line2d_26">
      <path d="M 786.24 242.888276 
L 786.24 150.157241 
" clip-path="url(#pf949d417a9)" style="fill: none; stroke-dasharray: 1.85,0.8; stroke-dashoffset: 0; stroke: #b2b2b2; stroke-width: 0.5"/>
     </g>
     <g id="line2d_27">
      <g>
       <use xlink:href="#mcb7d65d0dc" x="786.24" y="242.888276" style="stroke: #000000; stroke-width: 0.8"/>
      </g>
     </g>
    </g>
    <g id="xtick_12">
     <g id="line2d_28">
      <path d="M 947.52 242.888276 
L 947.52 150.157241 
" clip-path="url(#pf949d417a9)" style="fill: none; stroke-dasharray: 1.85,0.8; stroke-dashoffset: 0; stroke: #b2b2b2; stroke-width: 0.5"/>
     </g>
     <g id="line2d_29">
      <g>
       <use xlink:href="#mcb7d65d0dc" x="947.52" y="242.888276" style="stroke: #000000; stroke-width: 0.8"/>
      </g>
     </g>
    </g>
   </g>
   <g id="matplotlib.axis_4">
    <g id="ytick_3">
     <g id="line2d_30">
      <path d="M 100.8 219.395697 
L 987.84 219.395697 
" clip-path="url(#pf949d417a9)" style="fill: none; stroke-dasharray: 1.85,0.8; stroke-dashoffset: 0; stroke: #b2b2b2; stroke-width: 0.5"/>
     </g>
     <g id="line2d_31">
      <g>
       <use xlink:href="#m761262906b" x="100.8" y="219.395697" style="stroke: #000000; stroke-width: 0.8"/>
      </g>
     </g>
     <g id="text_4">
      <!-- 0 V -->
      <g transform="translate(74.36625 224.714603) scale(0.14 -0.14)">
       <use xlink:href="#DejaVuSans-30"/>
       <use xlink:href="#DejaVuSans-20" x="63.623047"/>
       <use xlink:href="#DejaVuSans-56" x="95.410156"/>
      </g>
     </g>
    </g>
    <g id="ytick_4">
     <g id="line2d_32">
      <path d="M 100.8 185.795341 
L 987.84 185.795341 
" clip-path="url(#pf949d417a9)" style="fill: none; stroke-dasharray: 1.85,0.8; stroke-dashoffset: 0; stroke: #b2b2b2; stroke-width: 0.5"/>
     </g>
     <g id="line2d_33">
      <g>
       <use xlink:href="#m761262906b" x="100.8" y="185.795341" style="stroke: #000000; stroke-width: 0.8"/>
      </g>
     </g>
     <g id="text_5">
      <!-- 1 V -->
      <g transform="translate(74.36625 191.114247) scale(0.14 -0.14)">
       <defs>
        <path id="DejaVuSans-31" d="M 794 531 
L 1825 531 
L 1825 4091 
L 703 3866 
L 703 4441 
L 1819 4666 
L 2450 4666 
L 2450 531 
L 3481 531 
L 3481 0 
L 794 0 
L 794 531 
z
" transform="scale(0.015625)"/>
       </defs>
       <use xlink:href="#DejaVuSans-31"/>
       <use xlink:href="#DejaVuSans-20" x="63.623047"/>
       <use xlink:href="#DejaVuSans-56" x="95.410156"/>
      </g>
     </g>
    </g>
    <g id="ytick_5">
     <g id="line2d_34">
      <path d="M 100.8 152.194985 
L 987.84 152.194985 
" clip-path="url(#pf949d417a9)" style="fill: none; stroke-dasharray: 1.85,0.8; stroke-dashoffset: 0; stroke: #b2b2b2; stroke-width: 0.5"/>
     </g>
     <g id="line2d_35">
      <g>
       <use xlink:href="#m761262906b" x="100.8" y="152.194985" style="stroke: #000000; stroke-width: 0.8"/>
      </g>
     </g>
     <g id="text_6">
      <!-- 2 V -->
      <g transform="translate(74.36625 157.513892) scale(0.14 -0.14)">
       <use xlink:href="#DejaVuSans-32"/>
       <use xlink:href="#DejaVuSans-20" x="63.623047"/>
       <use xlink:href="#DejaVuSans-56" x="95.410156"/>
      </g>
     </g>
    </g>
    <g id="text_7">
     <g id="patch_9">
      <path d="M 34.8768 224.531509 
L 34.8768 168.514009 
L 11.247425 168.514009 
L 11.247425 224.531509 
z
" style="fill: #ffff00; opacity: 0.2; stroke: #eeeeee; stroke-width: 0.5; stroke-linejoin: miter"/>
     </g>
     <!-- DFF IN -->
     <g transform="translate(26.925238 219.491509) rotate(-90) scale(0.14 -0.14)">
      <defs>
       <path id="DejaVuSans-44" d="M 1259 4147 
L 1259 519 
L 2022 519 
Q 2988 519 3436 956 
Q 3884 1394 3884 2338 
Q 3884 3275 3436 3711 
Q 2988 4147 2022 4147 
L 1259 4147 
z
M 628 4666 
L 1925 4666 
Q 3281 4666 3915 4102 
Q 4550 3538 4550 2338 
Q 4550 1131 3912 565 
Q 3275 0 1925 0 
L 628 0 
L 628 4666 
z
" transform="scale(0.015625)"/>
       <path id="DejaVuSans-46" d="M 628 4666 
L 3309 4666 
L 3309 4134 
L 1259 4134 
L 1259 2759 
L 3109 2759 
L 3109 2228 
L 1259 2228 
L 1259 0 
L 628 0 
L 628 4666 
z
" transform="scale(0.015625)"/>
       <path id="DejaVuSans-4e" d="M 628 4666 
L 1478 4666 
L 3547 763 
L 3547 4666 
L 4159 4666 
L 4159 0 
L 3309 0 
L 1241 3903 
L 1241 0 
L 628 0 
L 628 4666 
z
" transform="scale(0.015625)"/>
      </defs>
      <use xlink:href="#DejaVuSans-44"/>
      <use xlink:href="#DejaVuSans-46" x="77.001953"/>
      <use xlink:href="#DejaVuSans-46" x="134.521484"/>
      <use xlink:href="#DejaVuSans-20" x="192.041016"/>
      <use xlink:href="#DejaVuSans-49" x="223.828125"/>
      <use xlink:href="#DejaVuSans-4e" x="253.320312"/>
     </g>
    </g>
   </g>
   <g id="line2d_36">
    <path d="M 141.12 219.346627 
L 221.953536 219.300551 
L 224.437248 200.578826 
L 225.404928 194.883565 
L 228.243456 182.361385 
L 229.598208 181.104731 
L 231.178752 180.241202 
L 236.565504 179.790957 
L 243.661824 179.680076 
L 245.1456 179.636396 
L 248.403456 179.525515 
L 250.113024 179.458314 
L 252.177408 179.347433 
L 254.241792 179.021509 
L 254.757888 178.490624 
L 255.499776 178.15462 
L 256.370688 178.17478 
L 257.531904 178.406623 
L 259.98336 178.806467 
L 262.370304 178.944229 
L 263.886336 178.994629 
L 264.144384 184.175804 
L 264.434688 187.701153 
L 265.176576 192.397475 
L 267.144192 209.539368 
L 268.402176 215.975517 
L 269.079552 217.287946 
L 270.46656 218.987654 
L 273.724416 219.397511 
L 282.594816 219.351065 
L 297.110016 219.33984 
L 305.883648 219.34583 
L 347.751936 219.302227 
L 350.235648 200.618474 
L 351.622656 192.076256 
L 352.687104 186.743207 
L 354.97728 179.925359 
L 358.493184 178.937508 
L 360.235008 179.008069 
L 363.073536 179.11895 
L 364.396032 179.145831 
L 375.169536 179.216391 
L 375.717888 180.197522 
L 376.169472 180.94009 
L 377.008128 181.837219 
L 377.524224 181.786819 
L 378.427392 181.497856 
L 380.427264 180.372244 
L 381.58848 180.00264 
L 387.201024 179.528875 
L 389.65248 179.417994 
L 391.813632 179.303752 
L 394.555392 179.192871 
L 395.9424 179.159271 
L 415.392768 179.05175 
L 415.973376 178.433503 
L 416.844288 178.10086 
L 417.908736 178.205021 
L 419.16672 178.483904 
L 420.908544 178.735906 
L 424.00512 178.947589 
L 455.712768 179.04839 
L 456.809472 179.928719 
L 457.261056 179.99928 
L 458.712576 180.0396 
L 462.744576 179.508715 
L 464.16384 179.323913 
L 467.518464 179.08535 
L 496.065024 179.004709 
L 496.58112 178.470464 
L 497.258496 178.16806 
L 498.387456 178.16134 
L 502.161408 178.836707 
L 504.225792 178.940868 
L 521.708544 179.03831 
L 521.90208 179.256712 
L 524.063232 183.077072 
L 526.41792 186.317155 
L 531.062784 192.731462 
L 531.643392 194.553274 
L 533.901312 203.058532 
L 534.256128 204.701589 
L 534.449664 205.638367 
L 535.28832 209.393543 
L 535.514112 210.330321 
L 536.223744 213.131246 
L 538.642944 221.498709 
L 538.83648 222.049386 
L 539.223552 223.287962 
L 539.707392 224.147795 
L 540.12672 225.380592 
L 540.61056 226.124168 
L 540.93312 226.46622 
L 541.158912 226.946705 
L 541.545984 228.016204 
L 541.965312 228.723492 
L 542.158848 229.027911 
L 542.513664 229.87296 
L 543.094272 231.033852 
L 543.416832 231.432352 
L 543.83616 232.347962 
L 544.416768 233.45711 
L 544.578048 233.69668 
L 546.061824 236.310788 
L 546.7392 237.497216 
L 547.126272 238.131591 
L 547.771392 238.651389 
L 548.900352 237.013707 
L 549.222912 236.466693 
L 550.577664 234.852196 
L 550.867968 234.357263 
L 550.964736 234.311567 
L 551.190528 234.094508 
L 551.287296 234.005803 
L 551.513088 233.818649 
L 551.674368 233.746409 
L 552.254976 233.311284 
L 552.964608 232.52302 
L 553.35168 231.894021 
L 553.609728 231.790196 
L 553.771008 231.694435 
L 554.029056 231.432016 
L 554.867712 230.943131 
L 555.6096 230.112866 
L 555.835392 229.838015 
L 555.93216 229.802399 
L 556.25472 229.406923 
L 556.416 229.351146 
L 556.545024 229.303098 
L 558.0288 228.229902 
L 558.577152 227.68188 
L 558.8352 227.328405 
L 558.964224 227.216516 
L 559.577088 226.8496 
L 560.12544 226.495116 
L 561.73824 225.023084 
L 562.093056 224.565111 
L 562.415616 224.506647 
L 563.092992 224.21634 
L 565.254144 222.493885 
L 565.60896 222.191246 
L 566.25408 221.763245 
L 567.415296 220.730773 
L 568.447488 219.360783 
L 569.415168 218.0203 
L 570.318336 216.724771 
L 571.027968 215.800795 
L 574.511616 211.478781 
L 576.25344 209.333734 
L 577.350144 206.057364 
L 578.414592 203.222838 
L 579.382272 201.296529 
L 580.188672 200.000899 
L 580.833792 199.137706 
L 581.285376 198.651173 
L 584.446464 194.711195 
L 586.2528 193.002953 
L 586.478592 192.406211 
L 587.478528 188.678588 
L 588.34944 185.982495 
L 589.252608 183.930521 
L 589.994496 182.700748 
L 590.704128 181.92458 
L 592.445952 180.331923 
L 596.477952 174.687063 
L 597.5424 173.128007 
L 600.800256 168.571799 
L 603.800064 164.687598 
L 604.63872 163.659427 
L 608.541696 158.605933 
L 610.025472 156.781434 
L 611.025408 155.581901 
L 612.025344 154.405889 
L 612.21888 154.426049 
L 612.928512 154.839333 
L 613.605888 155.071176 
L 614.380032 155.205577 
L 614.992896 155.309738 
L 616.992768 155.985105 
L 617.444352 158.955377 
L 617.799168 160.769796 
L 618.18624 161.646765 
L 618.476544 161.888688 
L 618.83136 161.834927 
L 619.282944 161.431723 
L 620.992512 159.462742 
L 621.57312 159.116659 
L 622.37952 158.898256 
L 623.379456 158.904976 
L 624.218112 159.015858 
L 625.347072 159.24434 
L 631.830528 160.705955 
L 632.669184 161.10244 
L 645.313536 166.256734 
L 646.119936 166.532257 
L 647.732736 167.086663 
L 657.312768 169.966213 
L 657.732096 169.371487 
L 658.119168 169.149725 
L 658.441728 169.126205 
L 659.441664 169.552929 
L 660.635136 170.288777 
L 661.73184 170.853263 
L 662.409216 171.101906 
L 663.82848 171.579031 
L 665.60256 172.059516 
L 666.925056 172.358559 
L 667.795968 172.556801 
L 668.731392 172.738243 
L 669.828096 172.963365 
L 670.699008 173.124647 
L 672.05376 173.37329 
L 672.86016 173.517771 
L 673.569792 173.628652 
L 675.92448 174.011696 
L 676.5696 174.112497 
L 676.988928 174.172978 
L 678.924288 174.465301 
L 679.730688 174.576182 
L 681.311232 174.794585 
L 689.375232 175.745475 
L 690.246144 175.819395 
L 691.278336 175.923557 
L 691.762176 175.967237 
L 692.85888 176.078118 
L 697.729536 176.672844 
L 698.245632 177.301171 
L 698.98752 177.647255 
L 700.406784 177.536374 
L 702.438912 177.012208 
L 703.954944 176.965168 
L 706.599936 177.076049 
L 708.728832 177.18693 
L 710.631936 177.291091 
L 711.08352 177.321331 
L 713.115648 177.425492 
L 713.889792 177.449013 
L 714.373632 177.492693 
L 715.11552 177.526294 
L 717.05088 177.617014 
L 719.47008 177.727896 
L 721.24416 177.801816 
L 724.114944 177.912698 
L 724.79232 177.942938 
L 727.69536 178.050459 
L 728.243712 178.057179 
L 731.340288 178.16806 
L 732.85632 178.218461 
L 733.66272 178.245341 
L 738.081792 178.15798 
L 738.565632 177.677495 
L 739.017216 177.462453 
L 740.565504 177.573334 
L 741.371904 177.795096 
L 744.178176 178.268861 
L 746.823168 178.433503 
L 750.210048 178.541024 
L 750.7584 178.547744 
L 757.467648 178.658626 
L 758.016 178.661986 
L 778.305024 178.742626 
L 778.917888 179.387753 
L 779.30496 179.569195 
L 779.885568 179.693516 
L 781.982208 179.585995 
L 784.46592 179.179431 
L 788.852736 178.833347 
L 818.560512 178.745986 
L 819.528192 177.885817 
L 819.883008 177.825337 
L 821.044224 177.808537 
L 822.36672 178.10758 
L 824.721408 178.487264 
L 827.076096 178.621665 
L 858.912768 178.712386 
L 859.848192 179.538955 
L 860.783616 179.717037 
L 862.073856 179.747277 
L 864.847872 179.280232 
L 870.75072 178.776227 
L 899.265024 178.665346 
L 899.78112 178.10422 
L 900.329472 177.832057 
L 902.264832 177.939578 
L 905.522688 178.507424 
L 907.68384 178.621665 
L 939.552768 178.712386 
L 940.617216 179.569195 
L 941.55264 179.753997 
L 943.488 179.643116 
L 946.455552 179.135751 
L 947.52 178.971109 
L 947.52 178.971109 
" clip-path="url(#pf949d417a9)" style="fill: none; stroke: #008000; stroke-width: 2; stroke-linecap: square"/>
   </g>
   <g id="patch_10">
    <path d="M 100.8 242.888276 
L 100.8 150.157241 
" style="fill: none; stroke: #bcbcbc; stroke-width: 0.8; stroke-linejoin: miter; stroke-linecap: square"/>
   </g>
   <g id="patch_11">
    <path d="M 987.84 242.888276 
L 987.84 150.157241 
" style="fill: none; stroke: #bcbcbc; stroke-width: 0.8; stroke-linejoin: miter; stroke-linecap: square"/>
   </g>
   <g id="patch_12">
    <path d="M 100.8 242.888276 
L 987.84 242.888276 
" style="fill: none; stroke: #bcbcbc; stroke-width: 0.8; stroke-linejoin: miter; stroke-linecap: square"/>
   </g>
   <g id="patch_13">
    <path d="M 100.8 150.157241 
L 987.84 150.157241 
" style="fill: none; stroke: #bcbcbc; stroke-width: 0.8; stroke-linejoin: miter; stroke-linecap: square"/>
   </g>
  </g>
  <g id="axes_3">
   <g id="patch_14">
    <path d="M 100.8 354.165517 
L 987.84 354.165517 
L 987.84 261.434483 
L 100.8 261.434483 
z
" style="fill: #eeeeee"/>
   </g>
   <g id="matplotlib.axis_5">
    <g id="xtick_13">
     <g id="line2d_37">
      <path d="M 141.12 354.165517 
L 141.12 261.434483 
" clip-path="url(#p7eede88ccd)" style="fill: none; stroke-dasharray: 1.85,0.8; stroke-dashoffset: 0; stroke: #b2b2b2; stroke-width: 0.5"/>
     </g>
     <g id="line2d_38">
      <g>
       <use xlink:href="#mcb7d65d0dc" x="141.12" y="354.165517" style="stroke: #000000; stroke-width: 0.8"/>
      </g>
     </g>
    </g>
    <g id="xtick_14">
     <g id="line2d_39">
      <path d="M 302.4 354.165517 
L 302.4 261.434483 
" clip-path="url(#p7eede88ccd)" style="fill: none; stroke-dasharray: 1.85,0.8; stroke-dashoffset: 0; stroke: #b2b2b2; stroke-width: 0.5"/>
     </g>
     <g id="line2d_40">
      <g>
       <use xlink:href="#mcb7d65d0dc" x="302.4" y="354.165517" style="stroke: #000000; stroke-width: 0.8"/>
      </g>
     </g>
    </g>
    <g id="xtick_15">
     <g id="line2d_41">
      <path d="M 463.68 354.165517 
L 463.68 261.434483 
" clip-path="url(#p7eede88ccd)" style="fill: none; stroke-dasharray: 1.85,0.8; stroke-dashoffset: 0; stroke: #b2b2b2; stroke-width: 0.5"/>
     </g>
     <g id="line2d_42">
      <g>
       <use xlink:href="#mcb7d65d0dc" x="463.68" y="354.165517" style="stroke: #000000; stroke-width: 0.8"/>
      </g>
     </g>
    </g>
    <g id="xtick_16">
     <g id="line2d_43">
      <path d="M 624.96 354.165517 
L 624.96 261.434483 
" clip-path="url(#p7eede88ccd)" style="fill: none; stroke-dasharray: 1.85,0.8; stroke-dashoffset: 0; stroke: #b2b2b2; stroke-width: 0.5"/>
     </g>
     <g id="line2d_44">
      <g>
       <use xlink:href="#mcb7d65d0dc" x="624.96" y="354.165517" style="stroke: #000000; stroke-width: 0.8"/>
      </g>
     </g>
    </g>
    <g id="xtick_17">
     <g id="line2d_45">
      <path d="M 786.24 354.165517 
L 786.24 261.434483 
" clip-path="url(#p7eede88ccd)" style="fill: none; stroke-dasharray: 1.85,0.8; stroke-dashoffset: 0; stroke: #b2b2b2; stroke-width: 0.5"/>
     </g>
     <g id="line2d_46">
      <g>
       <use xlink:href="#mcb7d65d0dc" x="786.24" y="354.165517" style="stroke: #000000; stroke-width: 0.8"/>
      </g>
     </g>
    </g>
    <g id="xtick_18">
     <g id="line2d_47">
      <path d="M 947.52 354.165517 
L 947.52 261.434483 
" clip-path="url(#p7eede88ccd)" style="fill: none; stroke-dasharray: 1.85,0.8; stroke-dashoffset: 0; stroke: #b2b2b2; stroke-width: 0.5"/>
     </g>
     <g id="line2d_48">
      <g>
       <use xlink:href="#mcb7d65d0dc" x="947.52" y="354.165517" style="stroke: #000000; stroke-width: 0.8"/>
      </g>
     </g>
    </g>
   </g>
   <g id="matplotlib.axis_6">
    <g id="ytick_6">
     <g id="line2d_49">
      <path d="M 100.8 344.750539 
L 987.84 344.750539 
" clip-path="url(#p7eede88ccd)" style="fill: none; stroke-dasharray: 1.85,0.8; stroke-dashoffset: 0; stroke: #b2b2b2; stroke-width: 0.5"/>
     </g>
     <g id="line2d_50">
      <g>
       <use xlink:href="#m761262906b" x="100.8" y="344.750539" style="stroke: #000000; stroke-width: 0.8"/>
      </g>
     </g>
     <g id="text_8">
      <!-- 0 V -->
      <g transform="translate(74.36625 350.069446) scale(0.14 -0.14)">
       <use xlink:href="#DejaVuSans-30"/>
       <use xlink:href="#DejaVuSans-20" x="63.623047"/>
       <use xlink:href="#DejaVuSans-56" x="95.410156"/>
      </g>
     </g>
    </g>
    <g id="ytick_7">
     <g id="line2d_51">
      <path d="M 100.8 303.706014 
L 987.84 303.706014 
" clip-path="url(#p7eede88ccd)" style="fill: none; stroke-dasharray: 1.85,0.8; stroke-dashoffset: 0; stroke: #b2b2b2; stroke-width: 0.5"/>
     </g>
     <g id="line2d_52">
      <g>
       <use xlink:href="#m761262906b" x="100.8" y="303.706014" style="stroke: #000000; stroke-width: 0.8"/>
      </g>
     </g>
     <g id="text_9">
      <!-- 1 V -->
      <g transform="translate(74.36625 309.02492) scale(0.14 -0.14)">
       <use xlink:href="#DejaVuSans-31"/>
       <use xlink:href="#DejaVuSans-20" x="63.623047"/>
       <use xlink:href="#DejaVuSans-56" x="95.410156"/>
      </g>
     </g>
    </g>
    <g id="ytick_8">
     <g id="line2d_53">
      <path d="M 100.8 262.661488 
L 987.84 262.661488 
" clip-path="url(#p7eede88ccd)" style="fill: none; stroke-dasharray: 1.85,0.8; stroke-dashoffset: 0; stroke: #b2b2b2; stroke-width: 0.5"/>
     </g>
     <g id="line2d_54">
      <g>
       <use xlink:href="#m761262906b" x="100.8" y="262.661488" style="stroke: #000000; stroke-width: 0.8"/>
      </g>
     </g>
     <g id="text_10">
      <!-- 2 V -->
      <g transform="translate(74.36625 267.980395) scale(0.14 -0.14)">
       <use xlink:href="#DejaVuSans-32"/>
       <use xlink:href="#DejaVuSans-20" x="63.623047"/>
       <use xlink:href="#DejaVuSans-56" x="95.410156"/>
      </g>
     </g>
    </g>
    <g id="text_11">
     <g id="patch_15">
      <path d="M 34.8768 342.395313 
L 34.8768 273.204688 
L 11.247425 273.204688 
L 11.247425 342.395313 
z
" style="fill: #ffff00; opacity: 0.2; stroke: #eeeeee; stroke-width: 0.5; stroke-linejoin: miter"/>
     </g>
     <!-- CLK BUF -->
     <g transform="translate(26.925238 337.355313) rotate(-90) scale(0.14 -0.14)">
      <defs>
       <path id="DejaVuSans-43" d="M 4122 4306 
L 4122 3641 
Q 3803 3938 3442 4084 
Q 3081 4231 2675 4231 
Q 1875 4231 1450 3742 
Q 1025 3253 1025 2328 
Q 1025 1406 1450 917 
Q 1875 428 2675 428 
Q 3081 428 3442 575 
Q 3803 722 4122 1019 
L 4122 359 
Q 3791 134 3420 21 
Q 3050 -91 2638 -91 
Q 1578 -91 968 557 
Q 359 1206 359 2328 
Q 359 3453 968 4101 
Q 1578 4750 2638 4750 
Q 3056 4750 3426 4639 
Q 3797 4528 4122 4306 
z
" transform="scale(0.015625)"/>
       <path id="DejaVuSans-4b" d="M 628 4666 
L 1259 4666 
L 1259 2694 
L 3353 4666 
L 4166 4666 
L 1850 2491 
L 4331 0 
L 3500 0 
L 1259 2247 
L 1259 0 
L 628 0 
L 628 4666 
z
" transform="scale(0.015625)"/>
      </defs>
      <use xlink:href="#DejaVuSans-43"/>
      <use xlink:href="#DejaVuSans-4c" x="69.824219"/>
      <use xlink:href="#DejaVuSans-4b" x="125.537109"/>
      <use xlink:href="#DejaVuSans-20" x="191.113281"/>
      <use xlink:href="#DejaVuSans-42" x="222.900391"/>
      <use xlink:href="#DejaVuSans-55" x="291.503906"/>
      <use xlink:href="#DejaVuSans-46" x="364.697266"/>
     </g>
    </g>
   </g>
   <g id="line2d_55">
    <path d="M 141.12 344.749454 
L 173.376 344.749454 
L 173.601792 295.497109 
L 213.696 295.497109 
L 213.760512 334.784518 
L 213.825024 344.731788 
L 213.889536 344.672723 
L 213.954048 344.836692 
L 214.01856 344.754987 
L 215.437824 344.745148 
L 223.824384 344.749367 
L 254.016 344.749426 
L 254.17728 295.345244 
L 254.241792 295.607929 
L 254.403072 295.4889 
L 254.854656 295.497109 
L 294.336 295.497109 
L 294.400512 334.750041 
L 294.465024 345.056818 
L 294.529536 344.343205 
L 294.626304 344.815041 
L 294.65856 344.785834 
L 294.884352 344.72781 
L 295.206912 344.765475 
L 295.497216 344.749134 
L 321.91488 344.749453 
L 334.656 344.749456 
L 334.81728 295.423229 
L 334.881792 295.513527 
L 335.204352 295.501213 
L 336.10752 295.497109 
L 374.976 295.497109 
L 375.040512 334.788212 
L 375.105024 344.751205 
L 375.169536 344.667519 
L 375.266304 344.818423 
L 375.29856 344.755124 
L 376.782336 344.744836 
L 385.4592 344.749367 
L 415.296 344.749456 
L 415.45728 295.345244 
L 415.521792 295.607929 
L 415.683072 295.484795 
L 416.683008 295.501213 
L 455.616 295.497109 
L 455.680512 334.752503 
L 455.745024 345.061874 
L 455.809536 344.153629 
L 455.906304 345.352745 
L 455.93856 344.817298 
L 456.132096 344.725889 
L 456.551424 344.749777 
L 491.613696 344.749453 
L 495.936 344.749454 
L 496.09728 295.41502 
L 496.161792 295.513527 
L 497.161728 295.497109 
L 521.837568 295.603824 
L 523.482624 297.873587 
L 525.159936 300.635883 
L 532.06272 311.840628 
L 534.96576 316.07314 
L 536.256 317.854883 
L 536.288256 316.719591 
L 536.320512 318.469319 
L 536.481792 345.934838 
L 536.546304 345.923961 
L 537.739776 345.898021 
L 538.546176 345.860137 
L 538.6752 345.87126 
L 540.255744 346.001617 
L 541.25568 346.344914 
L 546.029568 349.104953 
L 546.610176 349.445212 
L 547.642368 349.908605 
L 548.287488 349.588458 
L 548.384256 349.549876 
L 548.739072 349.407451 
L 550.384128 348.816123 
L 556.09344 347.02457 
L 556.383744 346.948022 
L 557.157888 346.737094 
L 559.738368 346.058095 
L 563.02848 345.342319 
L 566.705664 344.734351 
L 568.35072 344.409997 
L 570.350592 344.241218 
L 572.576256 344.210065 
L 576.576 344.250863 
L 576.608256 342.190059 
L 576.73728 316.046871 
L 576.801792 315.586352 
L 576.866304 315.730008 
L 577.54368 315.343779 
L 580.93056 313.530431 
L 585.220608 311.469586 
L 586.317312 310.88388 
L 587.70432 308.401097 
L 589.80096 304.049556 
L 593.961984 295.456064 
L 594.63936 294.130326 
L 596.41344 290.764675 
L 601.864704 281.271076 
L 602.86464 279.686757 
L 604.63872 276.965505 
L 612.089856 265.768559 
L 613.541376 265.68647 
L 615.960576 266.408854 
L 616.896 266.823403 
L 616.960512 345.195175 
L 617.05728 345.092309 
L 617.766912 345.114005 
L 625.250304 345.101646 
L 631.604736 345.092309 
L 633.249792 345.204943 
L 637.572096 345.20441 
L 657.216 345.040958 
L 657.345024 284.271431 
L 657.441792 284.484863 
L 659.377152 285.116948 
L 659.667456 285.223664 
L 661.08672 285.650527 
L 661.40928 285.757243 
L 662.37696 286.019928 
L 662.667264 286.126644 
L 663.634944 286.389329 
L 664.022016 286.496044 
L 664.989696 286.758729 
L 665.376768 286.865445 
L 666.24768 287.087085 
L 666.634752 287.193801 
L 667.408896 287.374397 
L 667.795968 287.481113 
L 668.570112 287.661709 
L 668.957184 287.768425 
L 669.602304 287.907976 
L 670.021632 288.014692 
L 670.666752 288.154243 
L 671.08608 288.260959 
L 671.7312 288.40051 
L 672.247296 288.507226 
L 672.892416 288.646777 
L 673.408512 288.753493 
L 674.053632 288.893045 
L 674.569728 288.99976 
L 675.214848 289.139312 
L 675.827712 289.246027 
L 676.472832 289.385579 
L 677.085696 289.492295 
L 677.634048 289.590801 
L 678.150144 289.697517 
L 678.698496 289.796024 
L 679.31136 289.898635 
L 679.666176 289.960202 
L 680.27904 290.066918 
L 680.827392 290.165425 
L 681.440256 290.268036 
L 681.795072 290.329603 
L 682.504704 290.432214 
L 682.85952 290.493781 
L 683.569152 290.596392 
L 683.923968 290.657959 
L 684.6336 290.76057 
L 684.988416 290.822137 
L 685.698048 290.924749 
L 686.052864 290.986315 
L 686.859264 291.088927 
L 687.21408 291.150493 
L 688.117248 291.253105 
L 688.472064 291.314672 
L 689.375232 291.417283 
L 689.730048 291.47885 
L 690.633216 291.581461 
L 690.891264 291.601983 
L 691.697664 291.704595 
L 692.05248 291.762057 
L 697.471488 292.340785 
L 697.536 292.340785 
L 697.568256 299.215743 
L 697.69728 344.768142 
L 697.729536 344.908208 
L 697.794048 344.837689 
L 698.310144 344.834007 
L 737.856 344.773585 
L 737.985024 294.40122 
L 738.081792 294.643383 
L 738.533376 294.635174 
L 742.21056 294.741889 
L 742.468608 294.758307 
L 747.726336 294.865023 
L 747.984384 294.881441 
L 754.500096 294.988157 
L 754.758144 295.004574 
L 778.176 295.086663 
L 778.305024 345.063943 
L 778.466304 344.825285 
L 778.724352 344.733793 
L 779.079168 344.778443 
L 779.401728 344.760993 
L 818.496 344.761208 
L 818.65728 294.873232 
L 818.721792 295.337035 
L 818.81856 294.914276 
L 818.883072 295.070246 
L 819.366912 295.086663 
L 858.816 295.086663 
L 858.945024 345.064115 
L 859.106304 344.825244 
L 859.364352 344.733802 
L 859.719168 344.778454 
L 860.041728 344.760994 
L 899.136 344.761208 
L 899.29728 294.873232 
L 899.361792 295.337035 
L 899.45856 294.914276 
L 899.523072 295.070246 
L 900.006912 295.086663 
L 939.456 295.086663 
L 939.488256 302.486991 
L 939.61728 344.712394 
L 939.649536 344.831746 
L 939.714048 344.717555 
L 939.810816 344.734514 
L 940.004352 344.785771 
L 940.230144 344.759905 
L 945.9072 344.76121 
L 947.52 344.761199 
L 947.52 344.761199 
" clip-path="url(#p7eede88ccd)" style="fill: none; stroke: #0000ff; stroke-width: 2; stroke-linecap: square"/>
   </g>
   <g id="patch_16">
    <path d="M 100.8 354.165517 
L 100.8 261.434483 
" style="fill: none; stroke: #bcbcbc; stroke-width: 0.8; stroke-linejoin: miter; stroke-linecap: square"/>
   </g>
   <g id="patch_17">
    <path d="M 987.84 354.165517 
L 987.84 261.434483 
" style="fill: none; stroke: #bcbcbc; stroke-width: 0.8; stroke-linejoin: miter; stroke-linecap: square"/>
   </g>
   <g id="patch_18">
    <path d="M 100.8 354.165517 
L 987.84 354.165517 
" style="fill: none; stroke: #bcbcbc; stroke-width: 0.8; stroke-linejoin: miter; stroke-linecap: square"/>
   </g>
   <g id="patch_19">
    <path d="M 100.8 261.434483 
L 987.84 261.434483 
" style="fill: none; stroke: #bcbcbc; stroke-width: 0.8; stroke-linejoin: miter; stroke-linecap: square"/>
   </g>
  </g>
  <g id="axes_4">
   <g id="patch_20">
    <path d="M 100.8 465.442759 
L 987.84 465.442759 
L 987.84 372.711724 
L 100.8 372.711724 
z
" style="fill: #eeeeee"/>
   </g>
   <g id="matplotlib.axis_7">
    <g id="xtick_19">
     <g id="line2d_56">
      <path d="M 141.12 465.442759 
L 141.12 372.711724 
" clip-path="url(#p3660e716e1)" style="fill: none; stroke-dasharray: 1.85,0.8; stroke-dashoffset: 0; stroke: #b2b2b2; stroke-width: 0.5"/>
     </g>
     <g id="line2d_57">
      <g>
       <use xlink:href="#mcb7d65d0dc" x="141.12" y="465.442759" style="stroke: #000000; stroke-width: 0.8"/>
      </g>
     </g>
    </g>
    <g id="xtick_20">
     <g id="line2d_58">
      <path d="M 302.4 465.442759 
L 302.4 372.711724 
" clip-path="url(#p3660e716e1)" style="fill: none; stroke-dasharray: 1.85,0.8; stroke-dashoffset: 0; stroke: #b2b2b2; stroke-width: 0.5"/>
     </g>
     <g id="line2d_59">
      <g>
       <use xlink:href="#mcb7d65d0dc" x="302.4" y="465.442759" style="stroke: #000000; stroke-width: 0.8"/>
      </g>
     </g>
    </g>
    <g id="xtick_21">
     <g id="line2d_60">
      <path d="M 463.68 465.442759 
L 463.68 372.711724 
" clip-path="url(#p3660e716e1)" style="fill: none; stroke-dasharray: 1.85,0.8; stroke-dashoffset: 0; stroke: #b2b2b2; stroke-width: 0.5"/>
     </g>
     <g id="line2d_61">
      <g>
       <use xlink:href="#mcb7d65d0dc" x="463.68" y="465.442759" style="stroke: #000000; stroke-width: 0.8"/>
      </g>
     </g>
    </g>
    <g id="xtick_22">
     <g id="line2d_62">
      <path d="M 624.96 465.442759 
L 624.96 372.711724 
" clip-path="url(#p3660e716e1)" style="fill: none; stroke-dasharray: 1.85,0.8; stroke-dashoffset: 0; stroke: #b2b2b2; stroke-width: 0.5"/>
     </g>
     <g id="line2d_63">
      <g>
       <use xlink:href="#mcb7d65d0dc" x="624.96" y="465.442759" style="stroke: #000000; stroke-width: 0.8"/>
      </g>
     </g>
    </g>
    <g id="xtick_23">
     <g id="line2d_64">
      <path d="M 786.24 465.442759 
L 786.24 372.711724 
" clip-path="url(#p3660e716e1)" style="fill: none; stroke-dasharray: 1.85,0.8; stroke-dashoffset: 0; stroke: #b2b2b2; stroke-width: 0.5"/>
     </g>
     <g id="line2d_65">
      <g>
       <use xlink:href="#mcb7d65d0dc" x="786.24" y="465.442759" style="stroke: #000000; stroke-width: 0.8"/>
      </g>
     </g>
    </g>
    <g id="xtick_24">
     <g id="line2d_66">
      <path d="M 947.52 465.442759 
L 947.52 372.711724 
" clip-path="url(#p3660e716e1)" style="fill: none; stroke-dasharray: 1.85,0.8; stroke-dashoffset: 0; stroke: #b2b2b2; stroke-width: 0.5"/>
     </g>
     <g id="line2d_67">
      <g>
       <use xlink:href="#mcb7d65d0dc" x="947.52" y="465.442759" style="stroke: #000000; stroke-width: 0.8"/>
      </g>
     </g>
    </g>
   </g>
   <g id="matplotlib.axis_8">
    <g id="ytick_9">
     <g id="line2d_68">
      <path d="M 100.8 437.527743 
L 987.84 437.527743 
" clip-path="url(#p3660e716e1)" style="fill: none; stroke-dasharray: 1.85,0.8; stroke-dashoffset: 0; stroke: #b2b2b2; stroke-width: 0.5"/>
     </g>
     <g id="line2d_69">
      <g>
       <use xlink:href="#m761262906b" x="100.8" y="437.527743" style="stroke: #000000; stroke-width: 0.8"/>
      </g>
     </g>
     <g id="text_12">
      <!-- 0 V -->
      <g transform="translate(74.36625 442.846649) scale(0.14 -0.14)">
       <use xlink:href="#DejaVuSans-30"/>
       <use xlink:href="#DejaVuSans-20" x="63.623047"/>
       <use xlink:href="#DejaVuSans-56" x="95.410156"/>
      </g>
     </g>
    </g>
    <g id="ytick_10">
     <g id="line2d_70">
      <path d="M 100.8 395.988932 
L 987.84 395.988932 
" clip-path="url(#p3660e716e1)" style="fill: none; stroke-dasharray: 1.85,0.8; stroke-dashoffset: 0; stroke: #b2b2b2; stroke-width: 0.5"/>
     </g>
     <g id="line2d_71">
      <g>
       <use xlink:href="#m761262906b" x="100.8" y="395.988932" style="stroke: #000000; stroke-width: 0.8"/>
      </g>
     </g>
     <g id="text_13">
      <!-- 1 V -->
      <g transform="translate(74.36625 401.307838) scale(0.14 -0.14)">
       <use xlink:href="#DejaVuSans-31"/>
       <use xlink:href="#DejaVuSans-20" x="63.623047"/>
       <use xlink:href="#DejaVuSans-56" x="95.410156"/>
      </g>
     </g>
    </g>
    <g id="text_14">
     <g id="patch_21">
      <path d="M 34.8768 454.693023 
L 34.8768 383.46146 
L 11.247425 383.46146 
L 11.247425 454.693023 
z
" style="fill: #ffff00; opacity: 0.2; stroke: #eeeeee; stroke-width: 0.5; stroke-linejoin: miter"/>
     </g>
     <!-- DFF OUT -->
     <g transform="translate(26.925238 449.653023) rotate(-90) scale(0.14 -0.14)">
      <defs>
       <path id="DejaVuSans-4f" d="M 2522 4238 
Q 1834 4238 1429 3725 
Q 1025 3213 1025 2328 
Q 1025 1447 1429 934 
Q 1834 422 2522 422 
Q 3209 422 3611 934 
Q 4013 1447 4013 2328 
Q 4013 3213 3611 3725 
Q 3209 4238 2522 4238 
z
M 2522 4750 
Q 3503 4750 4090 4092 
Q 4678 3434 4678 2328 
Q 4678 1225 4090 567 
Q 3503 -91 2522 -91 
Q 1538 -91 948 565 
Q 359 1222 359 2328 
Q 359 3434 948 4092 
Q 1538 4750 2522 4750 
z
" transform="scale(0.015625)"/>
       <path id="DejaVuSans-54" d="M -19 4666 
L 3928 4666 
L 3928 4134 
L 2272 4134 
L 2272 0 
L 1638 0 
L 1638 4134 
L -19 4134 
L -19 4666 
z
" transform="scale(0.015625)"/>
      </defs>
      <use xlink:href="#DejaVuSans-44"/>
      <use xlink:href="#DejaVuSans-46" x="77.001953"/>
      <use xlink:href="#DejaVuSans-46" x="134.521484"/>
      <use xlink:href="#DejaVuSans-20" x="192.041016"/>
      <use xlink:href="#DejaVuSans-4f" x="223.828125"/>
      <use xlink:href="#DejaVuSans-55" x="302.539062"/>
      <use xlink:href="#DejaVuSans-54" x="375.732422"/>
     </g>
    </g>
   </g>
   <g id="line2d_72">
    <path d="M 141.12 406.185464 
L 173.408256 406.236141 
L 173.440512 407.955848 
L 173.601792 437.530278 
L 174.085632 437.525085 
L 183.923712 437.526643 
L 254.048256 437.528376 
L 254.080512 437.69443 
L 254.112768 437.419754 
L 254.306304 433.364308 
L 254.596608 432.551393 
L 254.693376 431.971511 
L 255.14496 424.693912 
L 255.370752 407.58906 
L 255.596544 388.084096 
L 255.757824 387.743478 
L 255.983616 387.677016 
L 256.854528 387.681169 
L 295.755264 387.764247 
L 296.239104 390.451808 
L 296.59392 389.778879 
L 297.948672 388.021788 
L 299.561472 387.7144 
L 334.688256 387.697785 
L 334.720512 387.577322 
L 334.752768 388.187943 
L 334.785024 391.207814 
L 334.914048 437.510715 
L 334.97856 437.474158 
L 335.13984 437.519037 
L 335.494656 437.527139 
L 365.524992 437.526599 
L 415.328256 437.528351 
L 415.360512 437.693852 
L 415.392768 437.422056 
L 415.586304 433.267522 
L 415.876608 432.314207 
L 415.908864 432.199975 
L 416.1024 427.273887 
L 416.521728 412.933028 
L 416.9088 387.818247 
L 417.102336 387.685323 
L 417.682944 387.7144 
L 418.166784 387.672862 
L 418.940928 387.681169 
L 495.968256 387.697785 
L 496.000512 387.839017 
L 496.065024 387.647938 
L 496.355328 387.672862 
L 521.805312 387.747631 
L 522.772992 389.035335 
L 524.063232 391.049967 
L 529.708032 400.715633 
L 530.320896 402.263369 
L 530.6112 403.29727 
L 530.643456 403.2063 
L 530.707968 403.256562 
L 533.611008 416.948585 
L 533.869056 418.32435 
L 533.99808 418.932479 
L 534.062592 418.765908 
L 534.191616 419.16385 
L 534.417408 421.026865 
L 535.352832 425.874029 
L 536.610816 431.806187 
L 536.675328 432.008066 
L 537.0624 433.654373 
L 537.094656 433.469941 
L 537.159168 433.46425 
L 537.191424 433.514928 
L 537.255936 433.703971 
L 537.449472 435.333081 
L 537.578496 435.800559 
L 537.772032 436.577335 
L 537.804288 436.200038 
L 537.8688 436.563876 
L 537.901056 436.486905 
L 538.19136 438.368613 
L 538.642944 440.00221 
L 538.6752 439.671519 
L 538.739712 440.025721 
L 538.900992 441.151132 
L 539.4816 442.476677 
L 539.578368 442.732141 
L 539.610624 443.178683 
L 539.707392 443.083143 
L 539.933184 443.861165 
L 540.094464 444.580618 
L 540.44928 445.268085 
L 540.675072 445.543903 
L 541.0944 446.384648 
L 541.25568 447.180116 
L 544.352256 454.482224 
L 544.513536 454.759703 
L 544.64256 455.243215 
L 544.674816 455.088691 
L 544.707072 455.165537 
L 544.836096 455.648218 
L 544.868352 455.498679 
L 546.7392 459.699499 
L 547.513344 461.227712 
L 547.5456 461.15128 
L 547.835904 461.110988 
L 547.997184 460.690199 
L 548.02944 460.789062 
L 548.061696 460.582614 
L 549.609984 457.604696 
L 549.674496 457.049323 
L 549.739008 457.391187 
L 549.771264 457.441449 
L 549.900288 457.193047 
L 550.513152 456.169531 
L 550.545408 456.334855 
L 550.577664 456.065684 
L 551.061504 455.427647 
L 551.09376 455.61208 
L 551.126016 455.569295 
L 551.25504 455.204999 
L 552.029184 454.426977 
L 552.319488 453.900265 
L 552.351744 454.028205 
L 552.384 453.806803 
L 552.416256 453.76651 
L 552.448512 453.905665 
L 552.480768 453.67014 
L 552.513024 453.646879 
L 552.54528 453.781049 
L 552.577536 453.689664 
L 552.738816 453.36483 
L 552.771072 453.590801 
L 552.803328 453.321214 
L 552.835584 453.472831 
L 553.02912 452.998042 
L 553.51296 452.474238 
L 553.545216 452.683178 
L 553.577472 452.418161 
L 553.609728 452.551915 
L 553.867776 452.148989 
L 554.64192 451.397552 
L 554.996736 450.820162 
L 555.319296 450.504467 
L 555.351552 450.705931 
L 555.383808 450.431359 
L 555.545088 450.152634 
L 555.738624 449.945355 
L 555.77088 450.230727 
L 555.835392 449.905478 
L 555.867648 450.144741 
L 556.028928 449.685322 
L 556.061184 449.685738 
L 556.222464 449.483859 
L 556.319232 449.402027 
L 556.351488 449.627999 
L 556.416 449.50089 
L 556.57728 449.19641 
L 556.835328 449.097133 
L 557.351424 448.590774 
L 557.673984 448.227725 
L 557.899776 447.613782 
L 557.932032 447.592181 
L 557.964288 447.843491 
L 557.996544 447.497058 
L 558.125568 447.367872 
L 558.157824 447.467565 
L 558.19008 447.651997 
L 558.222336 447.19964 
L 558.254592 447.212101 
L 558.286848 447.579304 
L 558.319104 447.092054 
L 558.35136 447.362056 
L 558.415872 447.006069 
L 558.448128 447.016454 
L 558.480384 447.374933 
L 558.51264 446.926314 
L 558.544896 446.928807 
L 558.577152 447.106177 
L 558.609408 446.849467 
L 558.641664 446.824129 
L 558.67392 447.160178 
L 558.738432 446.958715 
L 558.931968 446.57365 
L 558.964224 446.731497 
L 558.99648 446.510926 
L 559.028736 446.505526 
L 559.060992 446.642604 
L 559.125504 446.437818 
L 559.222272 446.383402 
L 559.254528 446.56825 
L 559.31904 446.453187 
L 560.415744 445.344516 
L 560.544768 444.939513 
L 560.577024 445.170884 
L 560.60928 444.821958 
L 560.738304 444.663695 
L 560.77056 444.865989 
L 560.802816 444.583941 
L 560.964096 444.405739 
L 561.028608 444.350493 
L 561.060864 444.489648 
L 561.09312 444.246646 
L 561.157632 444.202199 
L 561.189888 444.622987 
L 561.2544 444.088383 
L 561.447936 443.935104 
L 562.189824 443.449516 
L 562.22208 443.547963 
L 562.286592 443.396346 
L 562.54464 443.385131 
L 563.770368 442.193382 
L 563.899392 441.573706 
L 564.028416 441.429151 
L 564.060672 441.915072 
L 564.092928 441.337516 
L 564.125184 441.468821 
L 564.189696 441.24908 
L 564.254208 441.328336 
L 564.286464 441.5487 
L 564.31872 441.049445 
L 564.350976 441.452454 
L 564.415488 440.98722 
L 564.447744 441.390105 
L 564.834816 440.689553 
L 564.931584 440.62118 
L 564.96384 441.029465 
L 565.060608 440.917227 
L 565.189632 440.493946 
L 565.802496 440.243301 
L 566.931456 439.05147 
L 566.963712 438.430838 
L 567.06048 438.597949 
L 567.092736 438.39877 
L 567.124992 438.708442 
L 567.157248 438.722441 
L 567.254016 437.9531 
L 567.286272 438.513127 
L 567.350784 438.291434 
L 567.447552 437.733734 
L 567.479808 437.82519 
L 567.512064 438.077052 
L 567.54432 437.556977 
L 567.576576 437.847654 
L 567.673344 437.503874 
L 567.7056 437.592622 
L 567.834624 437.566165 
L 568.802304 435.798773 
L 569.028096 434.802589 
L 569.189376 434.758184 
L 569.221632 434.925212 
L 569.286144 434.842799 
L 569.415168 434.601458 
L 570.189312 433.062321 
L 570.318336 432.126451 
L 570.350592 432.062481 
L 570.382848 432.739564 
L 570.479616 432.511101 
L 570.576384 431.952819 
L 570.60864 432.094882 
L 571.834368 429.869232 
L 571.866624 429.213334 
L 571.963392 429.268166 
L 572.06016 429.316766 
L 572.092416 429.244489 
L 574.64064 424.142276 
L 574.705152 423.520856 
L 574.769664 423.619718 
L 574.834176 423.714842 
L 574.898688 423.628026 
L 575.963136 421.223759 
L 576.188928 420.412091 
L 576.285696 420.590293 
L 576.382464 420.467338 
L 576.995328 419.133111 
L 577.156608 418.950756 
L 577.479168 418.267858 
L 577.575936 417.40385 
L 577.608192 417.452451 
L 577.898496 417.523482 
L 578.866176 415.453188 
L 579.188736 414.548472 
L 579.253248 414.59375 
L 579.382272 414.779428 
L 579.446784 414.679735 
L 579.769344 413.984375 
L 580.317696 413.227954 
L 580.575744 412.999906 
L 580.608 412.759811 
L 580.672512 412.844966 
L 580.898304 413.425263 
L 580.995072 414.498211 
L 581.124096 421.725133 
L 581.382144 436.830888 
L 581.640192 436.895854 
L 583.446528 437.025871 
L 586.285056 437.056444 
L 586.962432 436.428003 
L 587.736576 436.039656 
L 588.768768 435.797111 
L 590.252544 435.699038 
L 593.381376 435.768491 
L 605.92896 436.194056 
L 607.735296 436.139848 
L 612.025344 436.27946 
L 612.315648 436.578041 
L 612.993024 437.129274 
L 613.83168 437.508033 
L 615.057408 437.765166 
L 616.863744 437.888233 
L 621.476352 437.913049 
L 631.991808 437.92384 
L 634.056192 438.007516 
L 639.378432 437.971834 
L 657.248256 437.827117 
L 657.280512 438.184305 
L 657.570816 430.483591 
L 657.796608 428.99941 
L 657.957888 426.12617 
L 658.119168 417.497313 
L 658.312704 392.831982 
L 658.50624 377.059695 
L 658.635264 376.926771 
L 660.4416 377.508315 
L 660.731904 377.616315 
L 662.022144 378.002626 
L 662.635008 378.181243 
L 663.151104 378.322475 
L 664.118784 378.588324 
L 664.505856 378.696325 
L 665.473536 378.962173 
L 665.860608 379.070174 
L 666.73152 379.294483 
L 667.118592 379.402484 
L 667.892736 379.585255 
L 668.279808 379.693256 
L 669.053952 379.876027 
L 669.537792 379.984028 
L 670.311936 380.166798 
L 670.795776 380.274799 
L 671.56992 380.45757 
L 672.05376 380.565571 
L 672.69888 380.706803 
L 673.214976 380.814804 
L 673.860096 380.956036 
L 674.376192 381.064037 
L 675.021312 381.205269 
L 675.537408 381.31327 
L 676.08576 381.412963 
L 676.601856 381.520964 
L 677.150208 381.620657 
L 677.763072 381.728658 
L 678.311424 381.828351 
L 678.82752 381.936352 
L 679.375872 382.036045 
L 679.988736 382.144046 
L 680.537088 382.243739 
L 681.24672 382.347586 
L 681.601536 382.409894 
L 682.2144 382.513741 
L 682.569216 382.576049 
L 683.278848 382.679897 
L 683.633664 382.742205 
L 684.343296 382.850206 
L 684.79488 382.90836 
L 685.407744 383.012207 
L 685.76256 383.074515 
L 686.56896 383.178362 
L 686.923776 383.24067 
L 687.826944 383.344517 
L 688.18176 383.406826 
L 688.98816 383.510673 
L 689.246208 383.531442 
L 689.95584 383.635289 
L 690.213888 383.656059 
L 691.020288 383.759906 
L 691.375104 383.822214 
L 692.37504 383.926061 
L 692.729856 383.988369 
L 693.729792 384.092216 
L 693.98784 384.112986 
L 694.891008 384.216833 
L 695.149056 384.237602 
L 696.052224 384.341449 
L 696.310272 384.362218 
L 697.21344 384.466065 
L 697.471488 384.486835 
L 698.471424 384.590682 
L 698.729472 384.611451 
L 699.729408 384.715298 
L 699.987456 384.736068 
L 701.08416 384.839915 
L 701.342208 384.860684 
L 702.53568 384.964531 
L 702.793728 384.985301 
L 703.9872 385.089148 
L 704.245248 385.109917 
L 705.535488 385.213764 
L 705.793536 385.234533 
L 707.180544 385.33838 
L 707.438592 385.35915 
L 708.922368 385.462997 
L 709.180416 385.483766 
L 710.664192 385.587613 
L 710.92224 385.604229 
L 712.599552 385.71223 
L 712.8576 385.732999 
L 714.63168 385.836846 
L 714.889728 385.857616 
L 716.857344 385.961463 
L 717.115392 385.982232 
L 719.179776 386.086079 
L 719.437824 386.106848 
L 721.792512 386.210695 
L 722.115072 386.227311 
L 724.502016 386.335312 
L 724.824576 386.351927 
L 727.598592 386.459928 
L 727.85664 386.476544 
L 730.985472 386.584545 
L 731.24352 386.60116 
L 734.759424 386.709161 
L 735.017472 386.725777 
L 737.888256 386.792239 
L 737.920512 387.045626 
L 737.985024 386.775623 
L 738.17856 386.8047 
L 742.178304 386.904394 
L 742.53312 386.933471 
L 747.726336 387.041472 
L 748.048896 387.058087 
L 754.500096 387.166088 
L 754.822656 387.182704 
L 778.305024 387.286551 
L 778.434048 387.265781 
L 778.885632 387.261627 
L 818.528256 387.261627 
L 818.560512 387.473475 
L 818.625024 387.261627 
L 818.81856 387.240858 
L 819.850752 387.265781 
L 899.168256 387.261627 
L 899.200512 387.473475 
L 899.265024 387.261627 
L 899.45856 387.240858 
L 900.490752 387.265781 
L 947.52 387.265781 
L 947.52 387.265781 
" clip-path="url(#p3660e716e1)" style="fill: none; stroke: #ff00ff; stroke-width: 2; stroke-linecap: square"/>
   </g>
   <g id="patch_22">
    <path d="M 100.8 465.442759 
L 100.8 372.711724 
" style="fill: none; stroke: #bcbcbc; stroke-width: 0.8; stroke-linejoin: miter; stroke-linecap: square"/>
   </g>
   <g id="patch_23">
    <path d="M 987.84 465.442759 
L 987.84 372.711724 
" style="fill: none; stroke: #bcbcbc; stroke-width: 0.8; stroke-linejoin: miter; stroke-linecap: square"/>
   </g>
   <g id="patch_24">
    <path d="M 100.8 465.442759 
L 987.84 465.442759 
" style="fill: none; stroke: #bcbcbc; stroke-width: 0.8; stroke-linejoin: miter; stroke-linecap: square"/>
   </g>
   <g id="patch_25">
    <path d="M 100.8 372.711724 
L 987.84 372.711724 
" style="fill: none; stroke: #bcbcbc; stroke-width: 0.8; stroke-linejoin: miter; stroke-linecap: square"/>
   </g>
  </g>
  <g id="axes_5">
   <g id="patch_26">
    <path d="M 100.8 576.72 
L 987.84 576.72 
L 987.84 483.988966 
L 100.8 483.988966 
z
" style="fill: #eeeeee"/>
   </g>
   <g id="matplotlib.axis_9">
    <g id="xtick_25">
     <g id="line2d_73">
      <path d="M 141.12 576.72 
L 141.12 483.988966 
" clip-path="url(#p587ccbed64)" style="fill: none; stroke-dasharray: 1.85,0.8; stroke-dashoffset: 0; stroke: #b2b2b2; stroke-width: 0.5"/>
     </g>
     <g id="line2d_74">
      <g>
       <use xlink:href="#mcb7d65d0dc" x="141.12" y="576.72" style="stroke: #000000; stroke-width: 0.8"/>
      </g>
     </g>
     <g id="text_15">
      <!-- 0 s -->
      <g transform="translate(130.795 590.857813) scale(0.14 -0.14)">
       <defs>
        <path id="DejaVuSans-73" d="M 2834 3397 
L 2834 2853 
Q 2591 2978 2328 3040 
Q 2066 3103 1784 3103 
Q 1356 3103 1142 2972 
Q 928 2841 928 2578 
Q 928 2378 1081 2264 
Q 1234 2150 1697 2047 
L 1894 2003 
Q 2506 1872 2764 1633 
Q 3022 1394 3022 966 
Q 3022 478 2636 193 
Q 2250 -91 1575 -91 
Q 1294 -91 989 -36 
Q 684 19 347 128 
L 347 722 
Q 666 556 975 473 
Q 1284 391 1588 391 
Q 1994 391 2212 530 
Q 2431 669 2431 922 
Q 2431 1156 2273 1281 
Q 2116 1406 1581 1522 
L 1381 1569 
Q 847 1681 609 1914 
Q 372 2147 372 2553 
Q 372 3047 722 3315 
Q 1072 3584 1716 3584 
Q 2034 3584 2315 3537 
Q 2597 3491 2834 3397 
z
" transform="scale(0.015625)"/>
       </defs>
       <use xlink:href="#DejaVuSans-30"/>
       <use xlink:href="#DejaVuSans-20" x="63.623047"/>
       <use xlink:href="#DejaVuSans-73" x="95.410156"/>
      </g>
     </g>
    </g>
    <g id="xtick_26">
     <g id="line2d_75">
      <path d="M 302.4 576.72 
L 302.4 483.988966 
" clip-path="url(#p587ccbed64)" style="fill: none; stroke-dasharray: 1.85,0.8; stroke-dashoffset: 0; stroke: #b2b2b2; stroke-width: 0.5"/>
     </g>
     <g id="line2d_76">
      <g>
       <use xlink:href="#mcb7d65d0dc" x="302.4" y="576.72" style="stroke: #000000; stroke-width: 0.8"/>
      </g>
     </g>
     <g id="text_16">
      <!-- 50 ns -->
      <g transform="translate(283.185 590.857813) scale(0.14 -0.14)">
       <defs>
        <path id="DejaVuSans-35" d="M 691 4666 
L 3169 4666 
L 3169 4134 
L 1269 4134 
L 1269 2991 
Q 1406 3038 1543 3061 
Q 1681 3084 1819 3084 
Q 2600 3084 3056 2656 
Q 3513 2228 3513 1497 
Q 3513 744 3044 326 
Q 2575 -91 1722 -91 
Q 1428 -91 1123 -41 
Q 819 9 494 109 
L 494 744 
Q 775 591 1075 516 
Q 1375 441 1709 441 
Q 2250 441 2565 725 
Q 2881 1009 2881 1497 
Q 2881 1984 2565 2268 
Q 2250 2553 1709 2553 
Q 1456 2553 1204 2497 
Q 953 2441 691 2322 
L 691 4666 
z
" transform="scale(0.015625)"/>
        <path id="DejaVuSans-6e" d="M 3513 2113 
L 3513 0 
L 2938 0 
L 2938 2094 
Q 2938 2591 2744 2837 
Q 2550 3084 2163 3084 
Q 1697 3084 1428 2787 
Q 1159 2491 1159 1978 
L 1159 0 
L 581 0 
L 581 3500 
L 1159 3500 
L 1159 2956 
Q 1366 3272 1645 3428 
Q 1925 3584 2291 3584 
Q 2894 3584 3203 3211 
Q 3513 2838 3513 2113 
z
" transform="scale(0.015625)"/>
       </defs>
       <use xlink:href="#DejaVuSans-35"/>
       <use xlink:href="#DejaVuSans-30" x="63.623047"/>
       <use xlink:href="#DejaVuSans-20" x="127.246094"/>
       <use xlink:href="#DejaVuSans-6e" x="159.033203"/>
       <use xlink:href="#DejaVuSans-73" x="222.412109"/>
      </g>
     </g>
    </g>
    <g id="xtick_27">
     <g id="line2d_77">
      <path d="M 463.68 576.72 
L 463.68 483.988966 
" clip-path="url(#p587ccbed64)" style="fill: none; stroke-dasharray: 1.85,0.8; stroke-dashoffset: 0; stroke: #b2b2b2; stroke-width: 0.5"/>
     </g>
     <g id="line2d_78">
      <g>
       <use xlink:href="#mcb7d65d0dc" x="463.68" y="576.72" style="stroke: #000000; stroke-width: 0.8"/>
      </g>
     </g>
     <g id="text_17">
      <!-- 100 ns -->
      <g transform="translate(440.01125 590.857813) scale(0.14 -0.14)">
       <use xlink:href="#DejaVuSans-31"/>
       <use xlink:href="#DejaVuSans-30" x="63.623047"/>
       <use xlink:href="#DejaVuSans-30" x="127.246094"/>
       <use xlink:href="#DejaVuSans-20" x="190.869141"/>
       <use xlink:href="#DejaVuSans-6e" x="222.65625"/>
       <use xlink:href="#DejaVuSans-73" x="286.035156"/>
      </g>
     </g>
    </g>
    <g id="xtick_28">
     <g id="line2d_79">
      <path d="M 624.96 576.72 
L 624.96 483.988966 
" clip-path="url(#p587ccbed64)" style="fill: none; stroke-dasharray: 1.85,0.8; stroke-dashoffset: 0; stroke: #b2b2b2; stroke-width: 0.5"/>
     </g>
     <g id="line2d_80">
      <g>
       <use xlink:href="#mcb7d65d0dc" x="624.96" y="576.72" style="stroke: #000000; stroke-width: 0.8"/>
      </g>
     </g>
     <g id="text_18">
      <!-- 150 ns -->
      <g transform="translate(601.29125 590.857813) scale(0.14 -0.14)">
       <use xlink:href="#DejaVuSans-31"/>
       <use xlink:href="#DejaVuSans-35" x="63.623047"/>
       <use xlink:href="#DejaVuSans-30" x="127.246094"/>
       <use xlink:href="#DejaVuSans-20" x="190.869141"/>
       <use xlink:href="#DejaVuSans-6e" x="222.65625"/>
       <use xlink:href="#DejaVuSans-73" x="286.035156"/>
      </g>
     </g>
    </g>
    <g id="xtick_29">
     <g id="line2d_81">
      <path d="M 786.24 576.72 
L 786.24 483.988966 
" clip-path="url(#p587ccbed64)" style="fill: none; stroke-dasharray: 1.85,0.8; stroke-dashoffset: 0; stroke: #b2b2b2; stroke-width: 0.5"/>
     </g>
     <g id="line2d_82">
      <g>
       <use xlink:href="#mcb7d65d0dc" x="786.24" y="576.72" style="stroke: #000000; stroke-width: 0.8"/>
      </g>
     </g>
     <g id="text_19">
      <!-- 200 ns -->
      <g transform="translate(762.57125 590.857813) scale(0.14 -0.14)">
       <use xlink:href="#DejaVuSans-32"/>
       <use xlink:href="#DejaVuSans-30" x="63.623047"/>
       <use xlink:href="#DejaVuSans-30" x="127.246094"/>
       <use xlink:href="#DejaVuSans-20" x="190.869141"/>
       <use xlink:href="#DejaVuSans-6e" x="222.65625"/>
       <use xlink:href="#DejaVuSans-73" x="286.035156"/>
      </g>
     </g>
    </g>
    <g id="xtick_30">
     <g id="line2d_83">
      <path d="M 947.52 576.72 
L 947.52 483.988966 
" clip-path="url(#p587ccbed64)" style="fill: none; stroke-dasharray: 1.85,0.8; stroke-dashoffset: 0; stroke: #b2b2b2; stroke-width: 0.5"/>
     </g>
     <g id="line2d_84">
      <g>
       <use xlink:href="#mcb7d65d0dc" x="947.52" y="576.72" style="stroke: #000000; stroke-width: 0.8"/>
      </g>
     </g>
     <g id="text_20">
      <!-- 250 ns -->
      <g transform="translate(923.85125 590.857813) scale(0.14 -0.14)">
       <use xlink:href="#DejaVuSans-32"/>
       <use xlink:href="#DejaVuSans-35" x="63.623047"/>
       <use xlink:href="#DejaVuSans-30" x="127.246094"/>
       <use xlink:href="#DejaVuSans-20" x="190.869141"/>
       <use xlink:href="#DejaVuSans-6e" x="222.65625"/>
       <use xlink:href="#DejaVuSans-73" x="286.035156"/>
      </g>
     </g>
    </g>
    <g id="text_21">
     <!-- Time -->
     <g transform="translate(527.192969 608.407187) scale(0.14 -0.14)">
      <defs>
       <path id="DejaVuSans-69" d="M 603 3500 
L 1178 3500 
L 1178 0 
L 603 0 
L 603 3500 
z
M 603 4863 
L 1178 4863 
L 1178 4134 
L 603 4134 
L 603 4863 
z
" transform="scale(0.015625)"/>
       <path id="DejaVuSans-6d" d="M 3328 2828 
Q 3544 3216 3844 3400 
Q 4144 3584 4550 3584 
Q 5097 3584 5394 3201 
Q 5691 2819 5691 2113 
L 5691 0 
L 5113 0 
L 5113 2094 
Q 5113 2597 4934 2840 
Q 4756 3084 4391 3084 
Q 3944 3084 3684 2787 
Q 3425 2491 3425 1978 
L 3425 0 
L 2847 0 
L 2847 2094 
Q 2847 2600 2669 2842 
Q 2491 3084 2119 3084 
Q 1678 3084 1418 2786 
Q 1159 2488 1159 1978 
L 1159 0 
L 581 0 
L 581 3500 
L 1159 3500 
L 1159 2956 
Q 1356 3278 1631 3431 
Q 1906 3584 2284 3584 
Q 2666 3584 2933 3390 
Q 3200 3197 3328 2828 
z
" transform="scale(0.015625)"/>
       <path id="DejaVuSans-65" d="M 3597 1894 
L 3597 1613 
L 953 1613 
Q 991 1019 1311 708 
Q 1631 397 2203 397 
Q 2534 397 2845 478 
Q 3156 559 3463 722 
L 3463 178 
Q 3153 47 2828 -22 
Q 2503 -91 2169 -91 
Q 1331 -91 842 396 
Q 353 884 353 1716 
Q 353 2575 817 3079 
Q 1281 3584 2069 3584 
Q 2775 3584 3186 3129 
Q 3597 2675 3597 1894 
z
M 3022 2063 
Q 3016 2534 2758 2815 
Q 2500 3097 2075 3097 
Q 1594 3097 1305 2825 
Q 1016 2553 972 2059 
L 3022 2063 
z
" transform="scale(0.015625)"/>
      </defs>
      <use xlink:href="#DejaVuSans-54"/>
      <use xlink:href="#DejaVuSans-69" x="57.958984"/>
      <use xlink:href="#DejaVuSans-6d" x="85.742188"/>
      <use xlink:href="#DejaVuSans-65" x="183.154297"/>
     </g>
    </g>
   </g>
   <g id="matplotlib.axis_10">
    <g id="ytick_11">
     <g id="line2d_85">
      <path d="M 100.8 569.745885 
L 987.84 569.745885 
" clip-path="url(#p587ccbed64)" style="fill: none; stroke-dasharray: 1.85,0.8; stroke-dashoffset: 0; stroke: #b2b2b2; stroke-width: 0.5"/>
     </g>
     <g id="line2d_86">
      <g>
       <use xlink:href="#m761262906b" x="100.8" y="569.745885" style="stroke: #000000; stroke-width: 0.8"/>
      </g>
     </g>
     <g id="text_22">
      <!-- 0 V -->
      <g transform="translate(74.36625 575.064792) scale(0.14 -0.14)">
       <use xlink:href="#DejaVuSans-30"/>
       <use xlink:href="#DejaVuSans-20" x="63.623047"/>
       <use xlink:href="#DejaVuSans-56" x="95.410156"/>
      </g>
     </g>
    </g>
    <g id="ytick_12">
     <g id="line2d_87">
      <path d="M 100.8 535.950348 
L 987.84 535.950348 
" clip-path="url(#p587ccbed64)" style="fill: none; stroke-dasharray: 1.85,0.8; stroke-dashoffset: 0; stroke: #b2b2b2; stroke-width: 0.5"/>
     </g>
     <g id="line2d_88">
      <g>
       <use xlink:href="#m761262906b" x="100.8" y="535.950348" style="stroke: #000000; stroke-width: 0.8"/>
      </g>
     </g>
     <g id="text_23">
      <!-- 500 mV -->
      <g transform="translate(42.914375 541.269254) scale(0.14 -0.14)">
       <use xlink:href="#DejaVuSans-35"/>
       <use xlink:href="#DejaVuSans-30" x="63.623047"/>
       <use xlink:href="#DejaVuSans-30" x="127.246094"/>
       <use xlink:href="#DejaVuSans-20" x="190.869141"/>
       <use xlink:href="#DejaVuSans-6d" x="222.65625"/>
       <use xlink:href="#DejaVuSans-56" x="320.068359"/>
      </g>
     </g>
    </g>
    <g id="ytick_13">
     <g id="line2d_89">
      <path d="M 100.8 502.15481 
L 987.84 502.15481 
" clip-path="url(#p587ccbed64)" style="fill: none; stroke-dasharray: 1.85,0.8; stroke-dashoffset: 0; stroke: #b2b2b2; stroke-width: 0.5"/>
     </g>
     <g id="line2d_90">
      <g>
       <use xlink:href="#m761262906b" x="100.8" y="502.15481" style="stroke: #000000; stroke-width: 0.8"/>
      </g>
     </g>
     <g id="text_24">
      <!-- 1 V -->
      <g transform="translate(74.36625 507.473717) scale(0.14 -0.14)">
       <use xlink:href="#DejaVuSans-31"/>
       <use xlink:href="#DejaVuSans-20" x="63.623047"/>
       <use xlink:href="#DejaVuSans-56" x="95.410156"/>
      </g>
     </g>
    </g>
    <g id="text_25">
     <g id="patch_27">
      <path d="M 34.8768 554.329483 
L 34.8768 506.379483 
L 11.247425 506.379483 
L 11.247425 554.329483 
z
" style="fill: #ffff00; opacity: 0.2; stroke: #eeeeee; stroke-width: 0.5; stroke-linejoin: miter"/>
     </g>
     <!-- FOUT -->
     <g transform="translate(26.925238 549.289483) rotate(-90) scale(0.14 -0.14)">
      <use xlink:href="#DejaVuSans-46"/>
      <use xlink:href="#DejaVuSans-4f" x="57.519531"/>
      <use xlink:href="#DejaVuSans-55" x="136.230469"/>
      <use xlink:href="#DejaVuSans-54" x="209.423828"/>
     </g>
    </g>
   </g>
   <g id="line2d_91">
    <path d="M 141.12 488.636595 
L 173.472768 488.643355 
L 173.505024 488.44734 
L 173.569536 526.789729 
L 173.69856 572.504953 
L 173.730816 572.3695 
L 173.827584 567.842115 
L 173.892096 569.3609 
L 174.053376 570.064192 
L 174.117888 569.946665 
L 174.408192 569.492054 
L 174.440448 569.54151 
L 174.66624 569.729954 
L 176.182272 569.740151 
L 180.117504 569.761449 
L 193.568256 569.752159 
L 212.954112 569.74401 
L 255.30624 569.743704 
L 255.6288 488.52845 
L 255.854592 488.670391 
L 256.209408 488.629836 
L 334.849536 488.650114 
L 334.881792 492.854278 
L 335.043072 572.18376 
L 335.107584 570.261206 
L 335.172096 568.338639 
L 335.236608 568.870108 
L 335.365632 570.783003 
L 335.430144 570.410083 
L 335.591424 569.797213 
L 335.881728 569.648439 
L 336.559104 569.817924 
L 337.107456 569.746143 
L 350.009856 569.744206 
L 416.489472 569.74333 
L 416.553984 567.480841 
L 416.812032 488.204013 
L 416.844288 488.339195 
L 416.973312 488.852887 
L 417.037824 488.778537 
L 417.39264 488.548727 
L 417.844224 488.717705 
L 418.457088 488.562245 
L 419.328 488.636595 
L 533.127168 488.582523 
L 533.19168 488.325676 
L 533.223936 489.467966 
L 533.320704 552.452033 
L 533.385216 570.131087 
L 533.449728 569.744948 
L 535.094784 569.743984 
L 579.64032 569.810064 
L 579.672576 569.866319 
L 579.704832 569.82492 
L 579.737088 568.033127 
L 580.12416 488.643355 
L 581.027328 488.535209 
L 581.059584 488.345954 
L 581.156352 527.114167 
L 581.25312 570.855055 
L 581.317632 569.756664 
L 581.543424 569.744202 
L 658.18368 569.727621 
L 658.248192 565.24797 
L 658.441728 488.994828 
L 658.603008 488.636595 
L 947.52 488.636595 
L 947.52 488.636595 
" clip-path="url(#p587ccbed64)" style="fill: none; stroke: #ff00ff; stroke-width: 2; stroke-linecap: square"/>
   </g>
   <g id="patch_28">
    <path d="M 100.8 576.72 
L 100.8 483.988966 
" style="fill: none; stroke: #bcbcbc; stroke-width: 0.8; stroke-linejoin: miter; stroke-linecap: square"/>
   </g>
   <g id="patch_29">
    <path d="M 987.84 576.72 
L 987.84 483.988966 
" style="fill: none; stroke: #bcbcbc; stroke-width: 0.8; stroke-linejoin: miter; stroke-linecap: square"/>
   </g>
   <g id="patch_30">
    <path d="M 100.8 576.72 
L 987.84 576.72 
" style="fill: none; stroke: #bcbcbc; stroke-width: 0.8; stroke-linejoin: miter; stroke-linecap: square"/>
   </g>
   <g id="patch_31">
    <path d="M 100.8 483.988966 
L 987.84 483.988966 
" style="fill: none; stroke: #bcbcbc; stroke-width: 0.8; stroke-linejoin: miter; stroke-linecap: square"/>
   </g>
  </g>
  <g id="axes_6">
   <g id="patch_32">
    <path d="M 201.6 628.56 
L 856.8 628.56 
L 856.8 615.6 
L 201.6 615.6 
z
" clip-path="url(#p85e63d53cf)" style="fill: #d3d3d3"/>
   </g>
   <g id="patch_33">
    <path d="M 201.6 628.56 
L 678.96 628.56 
L 678.96 615.6 
L 201.6 615.6 
z
" clip-path="url(#p85e63d53cf)" style="fill: #0000ff"/>
   </g>
   <g id="line2d_92">
    <path d="M 201.6 635.04 
L 201.6 609.12 
" clip-path="url(#p8f123735e8)" style="fill: none; stroke: #ff0000; stroke-linecap: square"/>
   </g>
   <g id="line2d_93">
    <defs>
     <path id="m50677a9166" d="M 0 5 
C 1.326016 5 2.597899 4.473168 3.535534 3.535534 
C 4.473168 2.597899 5 1.326016 5 0 
C 5 -1.326016 4.473168 -2.597899 3.535534 -3.535534 
C 2.597899 -4.473168 1.326016 -5 0 -5 
C -1.326016 -5 -2.597899 -4.473168 -3.535534 -3.535534 
C -4.473168 -2.597899 -5 -1.326016 -5 0 
C -5 1.326016 -4.473168 2.597899 -3.535534 3.535534 
C -2.597899 4.473168 -1.326016 5 0 5 
z
" style="stroke: #bfbfbf"/>
    </defs>
    <g>
     <use xlink:href="#m50677a9166" x="678.96" y="622.08" style="fill: #ffffff; stroke: #bfbfbf"/>
    </g>
   </g>
   <g id="text_26">
    <!-- #Sweep -->
    <g transform="translate(138.622875 625.39125) scale(0.12 -0.12)">
     <defs>
      <path id="DejaVuSans-23" d="M 3272 2816 
L 2363 2816 
L 2100 1772 
L 3016 1772 
L 3272 2816 
z
M 2803 4594 
L 2478 3297 
L 3391 3297 
L 3719 4594 
L 4219 4594 
L 3897 3297 
L 4872 3297 
L 4872 2816 
L 3775 2816 
L 3519 1772 
L 4513 1772 
L 4513 1294 
L 3397 1294 
L 3072 0 
L 2572 0 
L 2894 1294 
L 1978 1294 
L 1656 0 
L 1153 0 
L 1478 1294 
L 494 1294 
L 494 1772 
L 1594 1772 
L 1856 2816 
L 850 2816 
L 850 3297 
L 1978 3297 
L 2297 4594 
L 2803 4594 
z
" transform="scale(0.015625)"/>
      <path id="DejaVuSans-77" d="M 269 3500 
L 844 3500 
L 1563 769 
L 2278 3500 
L 2956 3500 
L 3675 769 
L 4391 3500 
L 4966 3500 
L 4050 0 
L 3372 0 
L 2619 2869 
L 1863 0 
L 1184 0 
L 269 3500 
z
" transform="scale(0.015625)"/>
      <path id="DejaVuSans-70" d="M 1159 525 
L 1159 -1331 
L 581 -1331 
L 581 3500 
L 1159 3500 
L 1159 2969 
Q 1341 3281 1617 3432 
Q 1894 3584 2278 3584 
Q 2916 3584 3314 3078 
Q 3713 2572 3713 1747 
Q 3713 922 3314 415 
Q 2916 -91 2278 -91 
Q 1894 -91 1617 61 
Q 1341 213 1159 525 
z
M 3116 1747 
Q 3116 2381 2855 2742 
Q 2594 3103 2138 3103 
Q 1681 3103 1420 2742 
Q 1159 2381 1159 1747 
Q 1159 1113 1420 752 
Q 1681 391 2138 391 
Q 2594 391 2855 752 
Q 3116 1113 3116 1747 
z
" transform="scale(0.015625)"/>
     </defs>
     <use xlink:href="#DejaVuSans-23"/>
     <use xlink:href="#DejaVuSans-53" x="83.789062"/>
     <use xlink:href="#DejaVuSans-77" x="147.265625"/>
     <use xlink:href="#DejaVuSans-65" x="229.052734"/>
     <use xlink:href="#DejaVuSans-65" x="290.576172"/>
     <use xlink:href="#DejaVuSans-70" x="352.099609"/>
    </g>
   </g>
   <g id="text_27">
    <!-- $\mathdefault{102}$ -->
    <g transform="translate(869.904 625.39125) scale(0.12 -0.12)">
     <use xlink:href="#DejaVuSans-31" transform="translate(0 0.78125)"/>
     <use xlink:href="#DejaVuSans-30" transform="translate(63.623047 0.78125)"/>
     <use xlink:href="#DejaVuSans-32" transform="translate(127.246094 0.78125)"/>
    </g>
   </g>
  </g>
  <g id="text_28">
   <!-- DFF under BBI sweep analysis (Sweep = 112E-9) -->
   <g transform="translate(308.25625 25.1175) scale(0.16 -0.16)">
    <defs>
     <path id="DejaVuSans-75" d="M 544 1381 
L 544 3500 
L 1119 3500 
L 1119 1403 
Q 1119 906 1312 657 
Q 1506 409 1894 409 
Q 2359 409 2629 706 
Q 2900 1003 2900 1516 
L 2900 3500 
L 3475 3500 
L 3475 0 
L 2900 0 
L 2900 538 
Q 2691 219 2414 64 
Q 2138 -91 1772 -91 
Q 1169 -91 856 284 
Q 544 659 544 1381 
z
M 1991 3584 
L 1991 3584 
z
" transform="scale(0.015625)"/>
     <path id="DejaVuSans-64" d="M 2906 2969 
L 2906 4863 
L 3481 4863 
L 3481 0 
L 2906 0 
L 2906 525 
Q 2725 213 2448 61 
Q 2172 -91 1784 -91 
Q 1150 -91 751 415 
Q 353 922 353 1747 
Q 353 2572 751 3078 
Q 1150 3584 1784 3584 
Q 2172 3584 2448 3432 
Q 2725 3281 2906 2969 
z
M 947 1747 
Q 947 1113 1208 752 
Q 1469 391 1925 391 
Q 2381 391 2643 752 
Q 2906 1113 2906 1747 
Q 2906 2381 2643 2742 
Q 2381 3103 1925 3103 
Q 1469 3103 1208 2742 
Q 947 2381 947 1747 
z
" transform="scale(0.015625)"/>
     <path id="DejaVuSans-72" d="M 2631 2963 
Q 2534 3019 2420 3045 
Q 2306 3072 2169 3072 
Q 1681 3072 1420 2755 
Q 1159 2438 1159 1844 
L 1159 0 
L 581 0 
L 581 3500 
L 1159 3500 
L 1159 2956 
Q 1341 3275 1631 3429 
Q 1922 3584 2338 3584 
Q 2397 3584 2469 3576 
Q 2541 3569 2628 3553 
L 2631 2963 
z
" transform="scale(0.015625)"/>
     <path id="DejaVuSans-61" d="M 2194 1759 
Q 1497 1759 1228 1600 
Q 959 1441 959 1056 
Q 959 750 1161 570 
Q 1363 391 1709 391 
Q 2188 391 2477 730 
Q 2766 1069 2766 1631 
L 2766 1759 
L 2194 1759 
z
M 3341 1997 
L 3341 0 
L 2766 0 
L 2766 531 
Q 2569 213 2275 61 
Q 1981 -91 1556 -91 
Q 1019 -91 701 211 
Q 384 513 384 1019 
Q 384 1609 779 1909 
Q 1175 2209 1959 2209 
L 2766 2209 
L 2766 2266 
Q 2766 2663 2505 2880 
Q 2244 3097 1772 3097 
Q 1472 3097 1187 3025 
Q 903 2953 641 2809 
L 641 3341 
Q 956 3463 1253 3523 
Q 1550 3584 1831 3584 
Q 2591 3584 2966 3190 
Q 3341 2797 3341 1997 
z
" transform="scale(0.015625)"/>
     <path id="DejaVuSans-6c" d="M 603 4863 
L 1178 4863 
L 1178 0 
L 603 0 
L 603 4863 
z
" transform="scale(0.015625)"/>
     <path id="DejaVuSans-79" d="M 2059 -325 
Q 1816 -950 1584 -1140 
Q 1353 -1331 966 -1331 
L 506 -1331 
L 506 -850 
L 844 -850 
Q 1081 -850 1212 -737 
Q 1344 -625 1503 -206 
L 1606 56 
L 191 3500 
L 800 3500 
L 1894 763 
L 2988 3500 
L 3597 3500 
L 2059 -325 
z
" transform="scale(0.015625)"/>
     <path id="DejaVuSans-28" d="M 1984 4856 
Q 1566 4138 1362 3434 
Q 1159 2731 1159 2009 
Q 1159 1288 1364 580 
Q 1569 -128 1984 -844 
L 1484 -844 
Q 1016 -109 783 600 
Q 550 1309 550 2009 
Q 550 2706 781 3412 
Q 1013 4119 1484 4856 
L 1984 4856 
z
" transform="scale(0.015625)"/>
     <path id="DejaVuSans-3d" d="M 678 2906 
L 4684 2906 
L 4684 2381 
L 678 2381 
L 678 2906 
z
M 678 1631 
L 4684 1631 
L 4684 1100 
L 678 1100 
L 678 1631 
z
" transform="scale(0.015625)"/>
     <path id="DejaVuSans-2d" d="M 313 2009 
L 1997 2009 
L 1997 1497 
L 313 1497 
L 313 2009 
z
" transform="scale(0.015625)"/>
     <path id="DejaVuSans-39" d="M 703 97 
L 703 672 
Q 941 559 1184 500 
Q 1428 441 1663 441 
Q 2288 441 2617 861 
Q 2947 1281 2994 2138 
Q 2813 1869 2534 1725 
Q 2256 1581 1919 1581 
Q 1219 1581 811 2004 
Q 403 2428 403 3163 
Q 403 3881 828 4315 
Q 1253 4750 1959 4750 
Q 2769 4750 3195 4129 
Q 3622 3509 3622 2328 
Q 3622 1225 3098 567 
Q 2575 -91 1691 -91 
Q 1453 -91 1209 -44 
Q 966 3 703 97 
z
M 1959 2075 
Q 2384 2075 2632 2365 
Q 2881 2656 2881 3163 
Q 2881 3666 2632 3958 
Q 2384 4250 1959 4250 
Q 1534 4250 1286 3958 
Q 1038 3666 1038 3163 
Q 1038 2656 1286 2365 
Q 1534 2075 1959 2075 
z
" transform="scale(0.015625)"/>
     <path id="DejaVuSans-29" d="M 513 4856 
L 1013 4856 
Q 1481 4119 1714 3412 
Q 1947 2706 1947 2009 
Q 1947 1309 1714 600 
Q 1481 -109 1013 -844 
L 513 -844 
Q 928 -128 1133 580 
Q 1338 1288 1338 2009 
Q 1338 2731 1133 3434 
Q 928 4138 513 4856 
z
" transform="scale(0.015625)"/>
    </defs>
    <use xlink:href="#DejaVuSans-44"/>
    <use xlink:href="#DejaVuSans-46" x="77.001953"/>
    <use xlink:href="#DejaVuSans-46" x="134.521484"/>
    <use xlink:href="#DejaVuSans-20" x="192.041016"/>
    <use xlink:href="#DejaVuSans-75" x="223.828125"/>
    <use xlink:href="#DejaVuSans-6e" x="287.207031"/>
    <use xlink:href="#DejaVuSans-64" x="350.585938"/>
    <use xlink:href="#DejaVuSans-65" x="414.0625"/>
    <use xlink:href="#DejaVuSans-72" x="475.585938"/>
    <use xlink:href="#DejaVuSans-20" x="516.699219"/>
    <use xlink:href="#DejaVuSans-42" x="548.486328"/>
    <use xlink:href="#DejaVuSans-42" x="617.089844"/>
    <use xlink:href="#DejaVuSans-49" x="685.693359"/>
    <use xlink:href="#DejaVuSans-20" x="715.185547"/>
    <use xlink:href="#DejaVuSans-73" x="746.972656"/>
    <use xlink:href="#DejaVuSans-77" x="799.072266"/>
    <use xlink:href="#DejaVuSans-65" x="880.859375"/>
    <use xlink:href="#DejaVuSans-65" x="942.382812"/>
    <use xlink:href="#DejaVuSans-70" x="1003.90625"/>
    <use xlink:href="#DejaVuSans-20" x="1067.382812"/>
    <use xlink:href="#DejaVuSans-61" x="1099.169922"/>
    <use xlink:href="#DejaVuSans-6e" x="1160.449219"/>
    <use xlink:href="#DejaVuSans-61" x="1223.828125"/>
    <use xlink:href="#DejaVuSans-6c" x="1285.107422"/>
    <use xlink:href="#DejaVuSans-79" x="1312.890625"/>
    <use xlink:href="#DejaVuSans-73" x="1372.070312"/>
    <use xlink:href="#DejaVuSans-69" x="1424.169922"/>
    <use xlink:href="#DejaVuSans-73" x="1451.953125"/>
    <use xlink:href="#DejaVuSans-20" x="1504.052734"/>
    <use xlink:href="#DejaVuSans-28" x="1535.839844"/>
    <use xlink:href="#DejaVuSans-53" x="1574.853516"/>
    <use xlink:href="#DejaVuSans-77" x="1638.330078"/>
    <use xlink:href="#DejaVuSans-65" x="1720.117188"/>
    <use xlink:href="#DejaVuSans-65" x="1781.640625"/>
    <use xlink:href="#DejaVuSans-70" x="1843.164062"/>
    <use xlink:href="#DejaVuSans-20" x="1906.640625"/>
    <use xlink:href="#DejaVuSans-3d" x="1938.427734"/>
    <use xlink:href="#DejaVuSans-20" x="2022.216797"/>
    <use xlink:href="#DejaVuSans-31" x="2054.003906"/>
    <use xlink:href="#DejaVuSans-31" x="2117.626953"/>
    <use xlink:href="#DejaVuSans-32" x="2181.25"/>
    <use xlink:href="#DejaVuSans-45" x="2244.873047"/>
    <use xlink:href="#DejaVuSans-2d" x="2308.056641"/>
    <use xlink:href="#DejaVuSans-39" x="2344.140625"/>
    <use xlink:href="#DejaVuSans-29" x="2407.763672"/>
   </g>
  </g>
 </g>
 <defs>
  <clipPath id="p66affd3e4e">
   <rect x="100.8" y="38.88" width="887.04" height="92.731034"/>
  </clipPath>
  <clipPath id="pf949d417a9">
   <rect x="100.8" y="150.157241" width="887.04" height="92.731034"/>
  </clipPath>
  <clipPath id="p7eede88ccd">
   <rect x="100.8" y="261.434483" width="887.04" height="92.731034"/>
  </clipPath>
  <clipPath id="p3660e716e1">
   <rect x="100.8" y="372.711724" width="887.04" height="92.731034"/>
  </clipPath>
  <clipPath id="p587ccbed64">
   <rect x="100.8" y="483.988966" width="887.04" height="92.731034"/>
  </clipPath>
  <clipPath id="p85e63d53cf">
   <rect x="201.6" y="609.12" width="655.2" height="25.92"/>
  </clipPath>
  <clipPath id="p8f123735e8">
   <path d="M 201.6 628.56 
L 856.8 628.56 
L 856.8 615.6 
L 201.6 615.6 
z
"/>
  </clipPath>
 </defs>
</svg>
