<?xml version="1.0" encoding="utf-8" standalone="no"?>
<!DOCTYPE svg PUBLIC "-//W3C//DTD SVG 1.1//EN"
  "http://www.w3.org/Graphics/SVG/1.1/DTD/svg11.dtd">
<svg xmlns:xlink="http://www.w3.org/1999/xlink" width="1008pt" height="648pt" viewBox="0 0 1008 648" xmlns="http://www.w3.org/2000/svg" version="1.1">
 <metadata>
  <rdf:RDF xmlns:dc="http://purl.org/dc/elements/1.1/" xmlns:cc="http://creativecommons.org/ns#" xmlns:rdf="http://www.w3.org/1999/02/22-rdf-syntax-ns#">
   <cc:Work>
    <dc:type rdf:resource="http://purl.org/dc/dcmitype/StillImage"/>
    <dc:date>2024-06-03T10:45:33.237881</dc:date>
    <dc:format>image/svg+xml</dc:format>
    <dc:creator>
     <cc:Agent>
      <dc:title>Matplotlib v3.9.0, https://matplotlib.org/</dc:title>
     </cc:Agent>
    </dc:creator>
   </cc:Work>
  </rdf:RDF>
 </metadata>
 <defs>
  <style type="text/css">*{stroke-linejoin: round; stroke-linecap: butt}</style>
 </defs>
 <g id="figure_1">
  <g id="patch_1">
   <path d="M 0 648 
L 1008 648 
L 1008 0 
L 0 0 
z
" style="fill: #ffffff"/>
  </g>
  <g id="axes_1">
   <g id="patch_2">
    <path d="M 100.8 131.611034 
L 987.84 131.611034 
L 987.84 38.88 
L 100.8 38.88 
z
" style="fill: #eeeeee"/>
   </g>
   <g id="matplotlib.axis_1">
    <g id="xtick_1">
     <g id="line2d_1">
      <path d="M 141.12 131.611034 
L 141.12 38.88 
" clip-path="url(#p971207fbbc)" style="fill: none; stroke-dasharray: 1.85,0.8; stroke-dashoffset: 0; stroke: #b2b2b2; stroke-width: 0.5"/>
     </g>
     <g id="line2d_2">
      <defs>
       <path id="ma76b41f07f" d="M 0 0 
L 0 -3.5 
" style="stroke: #000000; stroke-width: 0.8"/>
      </defs>
      <g>
       <use xlink:href="#ma76b41f07f" x="141.12" y="131.611034" style="stroke: #000000; stroke-width: 0.8"/>
      </g>
     </g>
    </g>
    <g id="xtick_2">
     <g id="line2d_3">
      <path d="M 302.4 131.611034 
L 302.4 38.88 
" clip-path="url(#p971207fbbc)" style="fill: none; stroke-dasharray: 1.85,0.8; stroke-dashoffset: 0; stroke: #b2b2b2; stroke-width: 0.5"/>
     </g>
     <g id="line2d_4">
      <g>
       <use xlink:href="#ma76b41f07f" x="302.4" y="131.611034" style="stroke: #000000; stroke-width: 0.8"/>
      </g>
     </g>
    </g>
    <g id="xtick_3">
     <g id="line2d_5">
      <path d="M 463.68 131.611034 
L 463.68 38.88 
" clip-path="url(#p971207fbbc)" style="fill: none; stroke-dasharray: 1.85,0.8; stroke-dashoffset: 0; stroke: #b2b2b2; stroke-width: 0.5"/>
     </g>
     <g id="line2d_6">
      <g>
       <use xlink:href="#ma76b41f07f" x="463.68" y="131.611034" style="stroke: #000000; stroke-width: 0.8"/>
      </g>
     </g>
    </g>
    <g id="xtick_4">
     <g id="line2d_7">
      <path d="M 624.96 131.611034 
L 624.96 38.88 
" clip-path="url(#p971207fbbc)" style="fill: none; stroke-dasharray: 1.85,0.8; stroke-dashoffset: 0; stroke: #b2b2b2; stroke-width: 0.5"/>
     </g>
     <g id="line2d_8">
      <g>
       <use xlink:href="#ma76b41f07f" x="624.96" y="131.611034" style="stroke: #000000; stroke-width: 0.8"/>
      </g>
     </g>
    </g>
    <g id="xtick_5">
     <g id="line2d_9">
      <path d="M 786.24 131.611034 
L 786.24 38.88 
" clip-path="url(#p971207fbbc)" style="fill: none; stroke-dasharray: 1.85,0.8; stroke-dashoffset: 0; stroke: #b2b2b2; stroke-width: 0.5"/>
     </g>
     <g id="line2d_10">
      <g>
       <use xlink:href="#ma76b41f07f" x="786.24" y="131.611034" style="stroke: #000000; stroke-width: 0.8"/>
      </g>
     </g>
    </g>
    <g id="xtick_6">
     <g id="line2d_11">
      <path d="M 947.52 131.611034 
L 947.52 38.88 
" clip-path="url(#p971207fbbc)" style="fill: none; stroke-dasharray: 1.85,0.8; stroke-dashoffset: 0; stroke: #b2b2b2; stroke-width: 0.5"/>
     </g>
     <g id="line2d_12">
      <g>
       <use xlink:href="#ma76b41f07f" x="947.52" y="131.611034" style="stroke: #000000; stroke-width: 0.8"/>
      </g>
     </g>
    </g>
   </g>
   <g id="matplotlib.axis_2">
    <g id="ytick_1">
     <g id="line2d_13">
      <path d="M 100.8 98.340394 
L 987.84 98.340394 
" clip-path="url(#p971207fbbc)" style="fill: none; stroke-dasharray: 1.85,0.8; stroke-dashoffset: 0; stroke: #b2b2b2; stroke-width: 0.5"/>
     </g>
     <g id="line2d_14">
      <defs>
       <path id="m5a4bb1b637" d="M 0 0 
L 3.5 0 
" style="stroke: #000000; stroke-width: 0.8"/>
      </defs>
      <g>
       <use xlink:href="#m5a4bb1b637" x="100.8" y="98.340394" style="stroke: #000000; stroke-width: 0.8"/>
      </g>
     </g>
     <g id="text_1">
      <!-- −200 V -->
      <g transform="translate(44.819688 103.6593) scale(0.14 -0.14)">
       <defs>
        <path id="DejaVuSans-2212" d="M 678 2272 
L 4684 2272 
L 4684 1741 
L 678 1741 
L 678 2272 
z
" transform="scale(0.015625)"/>
        <path id="DejaVuSans-32" d="M 1228 531 
L 3431 531 
L 3431 0 
L 469 0 
L 469 531 
Q 828 903 1448 1529 
Q 2069 2156 2228 2338 
Q 2531 2678 2651 2914 
Q 2772 3150 2772 3378 
Q 2772 3750 2511 3984 
Q 2250 4219 1831 4219 
Q 1534 4219 1204 4116 
Q 875 4013 500 3803 
L 500 4441 
Q 881 4594 1212 4672 
Q 1544 4750 1819 4750 
Q 2544 4750 2975 4387 
Q 3406 4025 3406 3419 
Q 3406 3131 3298 2873 
Q 3191 2616 2906 2266 
Q 2828 2175 2409 1742 
Q 1991 1309 1228 531 
z
" transform="scale(0.015625)"/>
        <path id="DejaVuSans-30" d="M 2034 4250 
Q 1547 4250 1301 3770 
Q 1056 3291 1056 2328 
Q 1056 1369 1301 889 
Q 1547 409 2034 409 
Q 2525 409 2770 889 
Q 3016 1369 3016 2328 
Q 3016 3291 2770 3770 
Q 2525 4250 2034 4250 
z
M 2034 4750 
Q 2819 4750 3233 4129 
Q 3647 3509 3647 2328 
Q 3647 1150 3233 529 
Q 2819 -91 2034 -91 
Q 1250 -91 836 529 
Q 422 1150 422 2328 
Q 422 3509 836 4129 
Q 1250 4750 2034 4750 
z
" transform="scale(0.015625)"/>
        <path id="DejaVuSans-20" transform="scale(0.015625)"/>
        <path id="DejaVuSans-56" d="M 1831 0 
L 50 4666 
L 709 4666 
L 2188 738 
L 3669 4666 
L 4325 4666 
L 2547 0 
L 1831 0 
z
" transform="scale(0.015625)"/>
       </defs>
       <use xlink:href="#DejaVuSans-2212"/>
       <use xlink:href="#DejaVuSans-32" x="83.789062"/>
       <use xlink:href="#DejaVuSans-30" x="147.412109"/>
       <use xlink:href="#DejaVuSans-30" x="211.035156"/>
       <use xlink:href="#DejaVuSans-20" x="274.658203"/>
       <use xlink:href="#DejaVuSans-56" x="306.445312"/>
      </g>
     </g>
    </g>
    <g id="ytick_2">
     <g id="line2d_15">
      <path d="M 100.8 45.027377 
L 987.84 45.027377 
" clip-path="url(#p971207fbbc)" style="fill: none; stroke-dasharray: 1.85,0.8; stroke-dashoffset: 0; stroke: #b2b2b2; stroke-width: 0.5"/>
     </g>
     <g id="line2d_16">
      <g>
       <use xlink:href="#m5a4bb1b637" x="100.8" y="45.027377" style="stroke: #000000; stroke-width: 0.8"/>
      </g>
     </g>
     <g id="text_2">
      <!-- 0 V -->
      <g transform="translate(74.36625 50.346284) scale(0.14 -0.14)">
       <use xlink:href="#DejaVuSans-30"/>
       <use xlink:href="#DejaVuSans-20" x="63.623047"/>
       <use xlink:href="#DejaVuSans-56" x="95.410156"/>
      </g>
     </g>
    </g>
    <g id="text_3">
     <g id="patch_3">
      <path d="M 34.8768 131.080205 
L 34.8768 39.41083 
L 11.247425 39.41083 
L 11.247425 131.080205 
z
" style="fill: #ffff00; opacity: 0.2; stroke: #eeeeee; stroke-width: 0.5; stroke-linejoin: miter"/>
     </g>
     <!-- VPULSE BBI -->
     <g transform="translate(26.925238 126.040205) rotate(-90) scale(0.14 -0.14)">
      <defs>
       <path id="DejaVuSans-50" d="M 1259 4147 
L 1259 2394 
L 2053 2394 
Q 2494 2394 2734 2622 
Q 2975 2850 2975 3272 
Q 2975 3691 2734 3919 
Q 2494 4147 2053 4147 
L 1259 4147 
z
M 628 4666 
L 2053 4666 
Q 2838 4666 3239 4311 
Q 3641 3956 3641 3272 
Q 3641 2581 3239 2228 
Q 2838 1875 2053 1875 
L 1259 1875 
L 1259 0 
L 628 0 
L 628 4666 
z
" transform="scale(0.015625)"/>
       <path id="DejaVuSans-55" d="M 556 4666 
L 1191 4666 
L 1191 1831 
Q 1191 1081 1462 751 
Q 1734 422 2344 422 
Q 2950 422 3222 751 
Q 3494 1081 3494 1831 
L 3494 4666 
L 4128 4666 
L 4128 1753 
Q 4128 841 3676 375 
Q 3225 -91 2344 -91 
Q 1459 -91 1007 375 
Q 556 841 556 1753 
L 556 4666 
z
" transform="scale(0.015625)"/>
       <path id="DejaVuSans-4c" d="M 628 4666 
L 1259 4666 
L 1259 531 
L 3531 531 
L 3531 0 
L 628 0 
L 628 4666 
z
" transform="scale(0.015625)"/>
       <path id="DejaVuSans-53" d="M 3425 4513 
L 3425 3897 
Q 3066 4069 2747 4153 
Q 2428 4238 2131 4238 
Q 1616 4238 1336 4038 
Q 1056 3838 1056 3469 
Q 1056 3159 1242 3001 
Q 1428 2844 1947 2747 
L 2328 2669 
Q 3034 2534 3370 2195 
Q 3706 1856 3706 1288 
Q 3706 609 3251 259 
Q 2797 -91 1919 -91 
Q 1588 -91 1214 -16 
Q 841 59 441 206 
L 441 856 
Q 825 641 1194 531 
Q 1563 422 1919 422 
Q 2459 422 2753 634 
Q 3047 847 3047 1241 
Q 3047 1584 2836 1778 
Q 2625 1972 2144 2069 
L 1759 2144 
Q 1053 2284 737 2584 
Q 422 2884 422 3419 
Q 422 4038 858 4394 
Q 1294 4750 2059 4750 
Q 2388 4750 2728 4690 
Q 3069 4631 3425 4513 
z
" transform="scale(0.015625)"/>
       <path id="DejaVuSans-45" d="M 628 4666 
L 3578 4666 
L 3578 4134 
L 1259 4134 
L 1259 2753 
L 3481 2753 
L 3481 2222 
L 1259 2222 
L 1259 531 
L 3634 531 
L 3634 0 
L 628 0 
L 628 4666 
z
" transform="scale(0.015625)"/>
       <path id="DejaVuSans-42" d="M 1259 2228 
L 1259 519 
L 2272 519 
Q 2781 519 3026 730 
Q 3272 941 3272 1375 
Q 3272 1813 3026 2020 
Q 2781 2228 2272 2228 
L 1259 2228 
z
M 1259 4147 
L 1259 2741 
L 2194 2741 
Q 2656 2741 2882 2914 
Q 3109 3088 3109 3444 
Q 3109 3797 2882 3972 
Q 2656 4147 2194 4147 
L 1259 4147 
z
M 628 4666 
L 2241 4666 
Q 2963 4666 3353 4366 
Q 3744 4066 3744 3513 
Q 3744 3084 3544 2831 
Q 3344 2578 2956 2516 
Q 3422 2416 3680 2098 
Q 3938 1781 3938 1306 
Q 3938 681 3513 340 
Q 3088 0 2303 0 
L 628 0 
L 628 4666 
z
" transform="scale(0.015625)"/>
       <path id="DejaVuSans-49" d="M 628 4666 
L 1259 4666 
L 1259 0 
L 628 0 
L 628 4666 
z
" transform="scale(0.015625)"/>
      </defs>
      <use xlink:href="#DejaVuSans-56"/>
      <use xlink:href="#DejaVuSans-50" x="68.408203"/>
      <use xlink:href="#DejaVuSans-55" x="128.710938"/>
      <use xlink:href="#DejaVuSans-4c" x="201.904297"/>
      <use xlink:href="#DejaVuSans-53" x="257.617188"/>
      <use xlink:href="#DejaVuSans-45" x="321.09375"/>
      <use xlink:href="#DejaVuSans-20" x="384.277344"/>
      <use xlink:href="#DejaVuSans-42" x="416.064453"/>
      <use xlink:href="#DejaVuSans-42" x="484.667969"/>
      <use xlink:href="#DejaVuSans-49" x="553.271484"/>
     </g>
    </g>
   </g>
   <g id="line2d_17">
    <path d="M 141.12 45.027377 
L 257.273856 45.136282 
L 257.757696 46.425538 
L 265.982976 69.006772 
L 273.401856 89.863624 
L 275.014656 94.440546 
L 276.820992 99.673219 
L 280.30464 110.807642 
L 281.885184 115.853719 
L 283.110912 119.550977 
L 287.013888 121.36362 
L 287.594496 121.619522 
L 288.465408 122.003376 
L 289.110528 122.269941 
L 290.691072 122.936354 
L 291.336192 123.202919 
L 292.432896 123.629423 
L 293.174784 123.922644 
L 294.271488 124.349149 
L 295.174656 124.677024 
L 295.852032 124.943589 
L 296.658432 125.25547 
L 298.013184 125.804594 
L 300.658176 126.790885 
L 301.27104 127.022796 
L 303.2064 127.395987 
L 321.689088 127.289361 
L 321.91488 126.801547 
L 340.204032 75.087922 
L 343.945728 63.292417 
L 347.655168 51.617666 
L 352.267776 49.3412 
L 357.622272 46.984578 
L 366.331392 43.484472 
L 367.202304 43.268927 
L 381.491712 43.108189 
L 388.297728 43.184799 
L 403.651584 43.746186 
L 431.424 44.46146 
L 457.06752 44.774399 
L 492.678144 44.945888 
L 540.707328 44.953885 
L 947.52 44.953885 
L 947.52 44.953885 
" clip-path="url(#p971207fbbc)" style="fill: none; stroke: #ff0000; stroke-width: 2; stroke-linecap: square"/>
   </g>
   <g id="patch_4">
    <path d="M 100.8 131.611034 
L 100.8 38.88 
" style="fill: none; stroke: #bcbcbc; stroke-width: 0.8; stroke-linejoin: miter; stroke-linecap: square"/>
   </g>
   <g id="patch_5">
    <path d="M 987.84 131.611034 
L 987.84 38.88 
" style="fill: none; stroke: #bcbcbc; stroke-width: 0.8; stroke-linejoin: miter; stroke-linecap: square"/>
   </g>
   <g id="patch_6">
    <path d="M 100.8 131.611034 
L 987.84 131.611034 
" style="fill: none; stroke: #bcbcbc; stroke-width: 0.8; stroke-linejoin: miter; stroke-linecap: square"/>
   </g>
   <g id="patch_7">
    <path d="M 100.8 38.88 
L 987.84 38.88 
" style="fill: none; stroke: #bcbcbc; stroke-width: 0.8; stroke-linejoin: miter; stroke-linecap: square"/>
   </g>
  </g>
  <g id="axes_2">
   <g id="patch_8">
    <path d="M 100.8 242.888276 
L 987.84 242.888276 
L 987.84 150.157241 
L 100.8 150.157241 
z
" style="fill: #eeeeee"/>
   </g>
   <g id="matplotlib.axis_3">
    <g id="xtick_7">
     <g id="line2d_18">
      <path d="M 141.12 242.888276 
L 141.12 150.157241 
" clip-path="url(#pb25cf53cc8)" style="fill: none; stroke-dasharray: 1.85,0.8; stroke-dashoffset: 0; stroke: #b2b2b2; stroke-width: 0.5"/>
     </g>
     <g id="line2d_19">
      <g>
       <use xlink:href="#ma76b41f07f" x="141.12" y="242.888276" style="stroke: #000000; stroke-width: 0.8"/>
      </g>
     </g>
    </g>
    <g id="xtick_8">
     <g id="line2d_20">
      <path d="M 302.4 242.888276 
L 302.4 150.157241 
" clip-path="url(#pb25cf53cc8)" style="fill: none; stroke-dasharray: 1.85,0.8; stroke-dashoffset: 0; stroke: #b2b2b2; stroke-width: 0.5"/>
     </g>
     <g id="line2d_21">
      <g>
       <use xlink:href="#ma76b41f07f" x="302.4" y="242.888276" style="stroke: #000000; stroke-width: 0.8"/>
      </g>
     </g>
    </g>
    <g id="xtick_9">
     <g id="line2d_22">
      <path d="M 463.68 242.888276 
L 463.68 150.157241 
" clip-path="url(#pb25cf53cc8)" style="fill: none; stroke-dasharray: 1.85,0.8; stroke-dashoffset: 0; stroke: #b2b2b2; stroke-width: 0.5"/>
     </g>
     <g id="line2d_23">
      <g>
       <use xlink:href="#ma76b41f07f" x="463.68" y="242.888276" style="stroke: #000000; stroke-width: 0.8"/>
      </g>
     </g>
    </g>
    <g id="xtick_10">
     <g id="line2d_24">
      <path d="M 624.96 242.888276 
L 624.96 150.157241 
" clip-path="url(#pb25cf53cc8)" style="fill: none; stroke-dasharray: 1.85,0.8; stroke-dashoffset: 0; stroke: #b2b2b2; stroke-width: 0.5"/>
     </g>
     <g id="line2d_25">
      <g>
       <use xlink:href="#ma76b41f07f" x="624.96" y="242.888276" style="stroke: #000000; stroke-width: 0.8"/>
      </g>
     </g>
    </g>
    <g id="xtick_11">
     <g id="line2d_26">
      <path d="M 786.24 242.888276 
L 786.24 150.157241 
" clip-path="url(#pb25cf53cc8)" style="fill: none; stroke-dasharray: 1.85,0.8; stroke-dashoffset: 0; stroke: #b2b2b2; stroke-width: 0.5"/>
     </g>
     <g id="line2d_27">
      <g>
       <use xlink:href="#ma76b41f07f" x="786.24" y="242.888276" style="stroke: #000000; stroke-width: 0.8"/>
      </g>
     </g>
    </g>
    <g id="xtick_12">
     <g id="line2d_28">
      <path d="M 947.52 242.888276 
L 947.52 150.157241 
" clip-path="url(#pb25cf53cc8)" style="fill: none; stroke-dasharray: 1.85,0.8; stroke-dashoffset: 0; stroke: #b2b2b2; stroke-width: 0.5"/>
     </g>
     <g id="line2d_29">
      <g>
       <use xlink:href="#ma76b41f07f" x="947.52" y="242.888276" style="stroke: #000000; stroke-width: 0.8"/>
      </g>
     </g>
    </g>
   </g>
   <g id="matplotlib.axis_4">
    <g id="ytick_3">
     <g id="line2d_30">
      <path d="M 100.8 218.597645 
L 987.84 218.597645 
" clip-path="url(#pb25cf53cc8)" style="fill: none; stroke-dasharray: 1.85,0.8; stroke-dashoffset: 0; stroke: #b2b2b2; stroke-width: 0.5"/>
     </g>
     <g id="line2d_31">
      <g>
       <use xlink:href="#m5a4bb1b637" x="100.8" y="218.597645" style="stroke: #000000; stroke-width: 0.8"/>
      </g>
     </g>
     <g id="text_4">
      <!-- 0 V -->
      <g transform="translate(74.36625 223.916551) scale(0.14 -0.14)">
       <use xlink:href="#DejaVuSans-30"/>
       <use xlink:href="#DejaVuSans-20" x="63.623047"/>
       <use xlink:href="#DejaVuSans-56" x="95.410156"/>
      </g>
     </g>
    </g>
    <g id="ytick_4">
     <g id="line2d_32">
      <path d="M 100.8 183.905614 
L 987.84 183.905614 
" clip-path="url(#pb25cf53cc8)" style="fill: none; stroke-dasharray: 1.85,0.8; stroke-dashoffset: 0; stroke: #b2b2b2; stroke-width: 0.5"/>
     </g>
     <g id="line2d_33">
      <g>
       <use xlink:href="#m5a4bb1b637" x="100.8" y="183.905614" style="stroke: #000000; stroke-width: 0.8"/>
      </g>
     </g>
     <g id="text_5">
      <!-- 1 V -->
      <g transform="translate(74.36625 189.22452) scale(0.14 -0.14)">
       <defs>
        <path id="DejaVuSans-31" d="M 794 531 
L 1825 531 
L 1825 4091 
L 703 3866 
L 703 4441 
L 1819 4666 
L 2450 4666 
L 2450 531 
L 3481 531 
L 3481 0 
L 794 0 
L 794 531 
z
" transform="scale(0.015625)"/>
       </defs>
       <use xlink:href="#DejaVuSans-31"/>
       <use xlink:href="#DejaVuSans-20" x="63.623047"/>
       <use xlink:href="#DejaVuSans-56" x="95.410156"/>
      </g>
     </g>
    </g>
    <g id="text_6">
     <g id="patch_9">
      <path d="M 34.8768 224.531509 
L 34.8768 168.514009 
L 11.247425 168.514009 
L 11.247425 224.531509 
z
" style="fill: #ffff00; opacity: 0.2; stroke: #eeeeee; stroke-width: 0.5; stroke-linejoin: miter"/>
     </g>
     <!-- DFF IN -->
     <g transform="translate(26.925238 219.491509) rotate(-90) scale(0.14 -0.14)">
      <defs>
       <path id="DejaVuSans-44" d="M 1259 4147 
L 1259 519 
L 2022 519 
Q 2988 519 3436 956 
Q 3884 1394 3884 2338 
Q 3884 3275 3436 3711 
Q 2988 4147 2022 4147 
L 1259 4147 
z
M 628 4666 
L 1925 4666 
Q 3281 4666 3915 4102 
Q 4550 3538 4550 2338 
Q 4550 1131 3912 565 
Q 3275 0 1925 0 
L 628 0 
L 628 4666 
z
" transform="scale(0.015625)"/>
       <path id="DejaVuSans-46" d="M 628 4666 
L 3309 4666 
L 3309 4134 
L 1259 4134 
L 1259 2759 
L 3109 2759 
L 3109 2228 
L 1259 2228 
L 1259 0 
L 628 0 
L 628 4666 
z
" transform="scale(0.015625)"/>
       <path id="DejaVuSans-4e" d="M 628 4666 
L 1478 4666 
L 3547 763 
L 3547 4666 
L 4159 4666 
L 4159 0 
L 3309 0 
L 1241 3903 
L 1241 0 
L 628 0 
L 628 4666 
z
" transform="scale(0.015625)"/>
      </defs>
      <use xlink:href="#DejaVuSans-44"/>
      <use xlink:href="#DejaVuSans-46" x="77.001953"/>
      <use xlink:href="#DejaVuSans-46" x="134.521484"/>
      <use xlink:href="#DejaVuSans-20" x="192.041016"/>
      <use xlink:href="#DejaVuSans-49" x="223.828125"/>
      <use xlink:href="#DejaVuSans-4e" x="253.320312"/>
     </g>
    </g>
   </g>
   <g id="line2d_34">
    <path d="M 141.12 218.54698 
L 221.953536 218.499407 
L 224.437248 199.169414 
L 225.404928 193.289114 
L 228.243456 180.360088 
L 229.598208 179.062607 
L 231.178752 178.171021 
L 236.468736 177.709617 
L 237.597696 177.720025 
L 242.984448 177.60901 
L 244.403712 177.56738 
L 247.919616 177.456366 
L 249.693696 177.376574 
L 251.661312 177.265559 
L 253.822464 177.144137 
L 254.145024 177.053938 
L 254.725632 176.367036 
L 255.30624 176.054808 
L 256.080384 175.995831 
L 256.75776 176.103376 
L 257.306112 176.308059 
L 257.88672 177.595134 
L 258.725376 179.388712 
L 259.98336 181.463295 
L 263.241216 186.168228 
L 263.918592 187.118443 
L 264.079872 189.363364 
L 264.466944 193.163876 
L 264.98304 195.464652 
L 265.757184 198.733335 
L 267.047424 208.67954 
L 267.821568 212.957761 
L 268.660224 216.266965 
L 269.369856 218.227723 
L 270.240768 219.962949 
L 270.9504 220.931551 
L 271.59552 221.565374 
L 272.272896 221.994203 
L 272.821248 222.116457 
L 273.305088 222.025391 
L 273.53088 221.956805 
L 274.111488 221.772278 
L 274.33728 221.926865 
L 274.627584 222.49807 
L 275.014656 223.152014 
L 275.175936 223.436836 
L 275.498496 224.412723 
L 275.982336 225.475687 
L 276.175872 225.619658 
L 276.401664 225.854177 
L 276.627456 226.295806 
L 277.175808 227.799706 
L 278.498304 230.501521 
L 278.756352 230.918866 
L 279.240192 231.944363 
L 279.98208 233.327187 
L 281.240064 235.467338 
L 281.4336 235.832992 
L 281.820672 236.612175 
L 283.143168 238.673229 
L 283.336704 238.558745 
L 283.8528 237.773318 
L 284.207616 237.278956 
L 285.239808 235.597086 
L 285.755904 235.085032 
L 286.013952 234.628832 
L 286.304256 234.111227 
L 286.336512 234.124757 
L 286.530048 234.018946 
L 287.271936 233.289373 
L 287.594496 233.116259 
L 288.271872 232.410623 
L 288.949248 231.406983 
L 289.529856 231.01531 
L 290.207232 230.65035 
L 290.852352 230.086604 
L 292.271616 228.626417 
L 292.787712 228.361717 
L 294.206976 226.987565 
L 294.49728 226.49251 
L 294.81984 226.265971 
L 295.62624 225.924601 
L 298.432512 223.683496 
L 299.367936 222.98688 
L 301.5936 221.16874 
L 302.754816 220.142411 
L 303.593472 219.119031 
L 306.851328 214.484211 
L 309.883392 210.578929 
L 310.496256 209.930535 
L 311.657472 208.86202 
L 312.56064 208.527936 
L 312.818688 208.495325 
L 313.36704 208.541466 
L 314.141184 208.755516 
L 314.947584 209.267917 
L 315.689472 209.966267 
L 316.850688 211.357765 
L 319.463424 214.716994 
L 320.656896 215.835777 
L 321.721344 216.491075 
L 321.91488 216.360147 
L 322.656768 215.579126 
L 323.301888 215.310262 
L 324.882432 214.887332 
L 326.10816 214.79748 
L 327.72096 214.891148 
L 329.17248 215.0712 
L 329.624064 215.133853 
L 330.46272 215.248719 
L 331.075584 215.330557 
L 331.849728 215.405145 
L 332.591616 215.485423 
L 333.0432 215.531563 
L 334.268928 215.656073 
L 334.688256 215.674459 
L 336.301056 215.778154 
L 340.752384 215.924485 
L 342.590976 215.70315 
L 342.978048 215.649828 
L 344.17152 215.541138 
L 344.590848 215.495553 
L 345.687552 215.381034 
L 346.26816 215.319178 
L 346.91328 215.242231 
L 347.526144 215.158832 
L 347.687424 215.289378 
L 347.71968 215.122544 
L 348.816384 197.12189 
L 350.009856 181.327996 
L 351.042048 170.878757 
L 352.300032 160.582162 
L 352.848384 157.647216 
L 353.36448 156.006283 
L 353.84832 155.138982 
L 354.364416 154.639417 
L 354.912768 154.413919 
L 355.880448 154.417388 
L 357.88032 154.958584 
L 367.07328 158.039236 
L 368.04096 158.573493 
L 369.00864 159.06612 
L 375.040512 161.772099 
L 375.201792 162.379209 
L 376.395264 166.68449 
L 376.653312 166.920396 
L 376.943616 166.878765 
L 377.298432 166.563068 
L 377.911296 165.890043 
L 378.717696 165.175387 
L 379.459584 164.824997 
L 380.588544 164.689698 
L 381.620736 164.797244 
L 388.233216 166.330631 
L 391.781376 167.364454 
L 392.136192 167.475468 
L 393.974784 167.978503 
L 394.684416 168.169309 
L 397.458432 168.877026 
L 398.813184 169.206601 
L 399.361536 169.314146 
L 400.651776 169.615967 
L 408.0384 171.093847 
L 408.457728 171.159762 
L 409.32864 171.333222 
L 410.006016 171.437298 
L 410.876928 171.607289 
L 411.651072 171.711365 
L 412.360704 171.825849 
L 414.231552 172.117262 
L 414.941184 172.221338 
L 415.360512 172.290722 
L 416.005632 171.569128 
L 416.42496 171.392199 
L 417.23136 171.503213 
L 420.102144 172.620296 
L 421.618176 172.99497 
L 422.198784 173.105985 
L 424.876032 173.501474 
L 425.424384 173.56392 
L 426.42432 173.671465 
L 427.456512 173.78248 
L 428.585472 173.917778 
L 429.16608 173.95594 
L 429.714432 174.018385 
L 430.29504 174.066954 
L 431.520768 174.174499 
L 432.036864 174.226537 
L 436.036608 174.545704 
L 436.58496 174.587335 
L 437.101056 174.639373 
L 437.842944 174.670595 
L 440.810496 174.878748 
L 441.487872 174.91344 
L 444.068352 175.079961 
L 444.81024 175.111184 
L 446.648832 175.222199 
L 448.616448 175.322806 
L 450.874368 175.426882 
L 451.325952 175.458105 
L 452.100096 175.485858 
L 453.712896 175.551773 
L 454.422528 175.582996 
L 455.809536 175.805025 
L 456.325632 176.394789 
L 457.035264 176.734771 
L 458.164224 176.745179 
L 458.583552 176.637634 
L 459.906048 176.186637 
L 461.325312 175.988893 
L 468.873216 176.099907 
L 470.1312 176.124192 
L 473.550336 176.235206 
L 474.80832 176.25949 
L 479.904768 176.370505 
L 481.065984 176.387851 
L 481.90464 176.408666 
L 488.452608 176.519681 
L 488.936448 176.516212 
L 496.129536 176.450297 
L 496.548864 175.9993 
L 497.129472 175.69401 
L 498.03264 175.61075 
L 499.097088 175.836248 
L 502.193664 176.39132 
L 504.774144 176.502335 
L 506.064384 176.530088 
L 536.385024 176.623757 
L 536.997888 177.293313 
L 537.38496 177.48065 
L 537.965568 177.619418 
L 540.320256 177.511873 
L 542.610432 177.13026 
L 547.932672 176.668856 
L 576.672768 176.596003 
L 577.285632 175.91257 
L 577.737216 175.711356 
L 578.414592 175.603811 
L 582.05952 176.276837 
L 583.382016 176.387851 
L 585.672192 176.52315 
L 617.025024 176.627226 
L 617.573376 177.22046 
L 618.153984 177.52228 
L 619.347456 177.674925 
L 623.605248 177.105976 
L 625.250304 176.863132 
L 628.443648 176.630695 
L 657.345024 176.547434 
L 657.828864 176.006239 
L 658.441728 175.680134 
L 659.6352 175.659318 
L 663.538176 176.387851 
L 665.312256 176.467643 
L 697.600512 176.578657 
L 697.761792 176.762525 
L 698.18112 177.196175 
L 698.793984 177.52228 
L 699.987456 177.674925 
L 704.277504 177.102507 
L 705.92256 176.859663 
L 709.083648 176.630695 
L 737.985024 176.547434 
L 738.468864 176.002769 
L 739.178496 175.669726 
L 740.2752 175.659318 
L 744.178176 176.387851 
L 745.952256 176.467643 
L 778.240512 176.578657 
L 778.401792 176.762525 
L 778.82112 177.196175 
L 779.433984 177.52228 
L 780.627456 177.674925 
L 784.917504 177.102507 
L 786.56256 176.859663 
L 789.723648 176.630695 
L 818.625024 176.547434 
L 819.108864 176.002769 
L 819.818496 175.669726 
L 820.9152 175.659318 
L 824.818176 176.387851 
L 826.592256 176.467643 
L 858.880512 176.578657 
L 859.041792 176.762525 
L 859.46112 177.196175 
L 860.073984 177.52228 
L 861.267456 177.674925 
L 865.557504 177.102507 
L 867.20256 176.859663 
L 870.363648 176.630695 
L 899.265024 176.547434 
L 899.748864 176.002769 
L 900.458496 175.669726 
L 901.5552 175.659318 
L 905.458176 176.387851 
L 907.232256 176.467643 
L 939.520512 176.578657 
L 939.681792 176.765994 
L 940.165632 177.26209 
L 940.649472 177.487588 
L 941.55264 177.667987 
L 943.455744 177.556972 
L 946.326528 177.050469 
L 947.52 176.859663 
L 947.52 176.859663 
" clip-path="url(#pb25cf53cc8)" style="fill: none; stroke: #008000; stroke-width: 2; stroke-linecap: square"/>
   </g>
   <g id="patch_10">
    <path d="M 100.8 242.888276 
L 100.8 150.157241 
" style="fill: none; stroke: #bcbcbc; stroke-width: 0.8; stroke-linejoin: miter; stroke-linecap: square"/>
   </g>
   <g id="patch_11">
    <path d="M 987.84 242.888276 
L 987.84 150.157241 
" style="fill: none; stroke: #bcbcbc; stroke-width: 0.8; stroke-linejoin: miter; stroke-linecap: square"/>
   </g>
   <g id="patch_12">
    <path d="M 100.8 242.888276 
L 987.84 242.888276 
" style="fill: none; stroke: #bcbcbc; stroke-width: 0.8; stroke-linejoin: miter; stroke-linecap: square"/>
   </g>
   <g id="patch_13">
    <path d="M 100.8 150.157241 
L 987.84 150.157241 
" style="fill: none; stroke: #bcbcbc; stroke-width: 0.8; stroke-linejoin: miter; stroke-linecap: square"/>
   </g>
  </g>
  <g id="axes_3">
   <g id="patch_14">
    <path d="M 100.8 354.165517 
L 987.84 354.165517 
L 987.84 261.434483 
L 100.8 261.434483 
z
" style="fill: #eeeeee"/>
   </g>
   <g id="matplotlib.axis_5">
    <g id="xtick_13">
     <g id="line2d_35">
      <path d="M 141.12 354.165517 
L 141.12 261.434483 
" clip-path="url(#pad9e91adbb)" style="fill: none; stroke-dasharray: 1.85,0.8; stroke-dashoffset: 0; stroke: #b2b2b2; stroke-width: 0.5"/>
     </g>
     <g id="line2d_36">
      <g>
       <use xlink:href="#ma76b41f07f" x="141.12" y="354.165517" style="stroke: #000000; stroke-width: 0.8"/>
      </g>
     </g>
    </g>
    <g id="xtick_14">
     <g id="line2d_37">
      <path d="M 302.4 354.165517 
L 302.4 261.434483 
" clip-path="url(#pad9e91adbb)" style="fill: none; stroke-dasharray: 1.85,0.8; stroke-dashoffset: 0; stroke: #b2b2b2; stroke-width: 0.5"/>
     </g>
     <g id="line2d_38">
      <g>
       <use xlink:href="#ma76b41f07f" x="302.4" y="354.165517" style="stroke: #000000; stroke-width: 0.8"/>
      </g>
     </g>
    </g>
    <g id="xtick_15">
     <g id="line2d_39">
      <path d="M 463.68 354.165517 
L 463.68 261.434483 
" clip-path="url(#pad9e91adbb)" style="fill: none; stroke-dasharray: 1.85,0.8; stroke-dashoffset: 0; stroke: #b2b2b2; stroke-width: 0.5"/>
     </g>
     <g id="line2d_40">
      <g>
       <use xlink:href="#ma76b41f07f" x="463.68" y="354.165517" style="stroke: #000000; stroke-width: 0.8"/>
      </g>
     </g>
    </g>
    <g id="xtick_16">
     <g id="line2d_41">
      <path d="M 624.96 354.165517 
L 624.96 261.434483 
" clip-path="url(#pad9e91adbb)" style="fill: none; stroke-dasharray: 1.85,0.8; stroke-dashoffset: 0; stroke: #b2b2b2; stroke-width: 0.5"/>
     </g>
     <g id="line2d_42">
      <g>
       <use xlink:href="#ma76b41f07f" x="624.96" y="354.165517" style="stroke: #000000; stroke-width: 0.8"/>
      </g>
     </g>
    </g>
    <g id="xtick_17">
     <g id="line2d_43">
      <path d="M 786.24 354.165517 
L 786.24 261.434483 
" clip-path="url(#pad9e91adbb)" style="fill: none; stroke-dasharray: 1.85,0.8; stroke-dashoffset: 0; stroke: #b2b2b2; stroke-width: 0.5"/>
     </g>
     <g id="line2d_44">
      <g>
       <use xlink:href="#ma76b41f07f" x="786.24" y="354.165517" style="stroke: #000000; stroke-width: 0.8"/>
      </g>
     </g>
    </g>
    <g id="xtick_18">
     <g id="line2d_45">
      <path d="M 947.52 354.165517 
L 947.52 261.434483 
" clip-path="url(#pad9e91adbb)" style="fill: none; stroke-dasharray: 1.85,0.8; stroke-dashoffset: 0; stroke: #b2b2b2; stroke-width: 0.5"/>
     </g>
     <g id="line2d_46">
      <g>
       <use xlink:href="#ma76b41f07f" x="947.52" y="354.165517" style="stroke: #000000; stroke-width: 0.8"/>
      </g>
     </g>
    </g>
   </g>
   <g id="matplotlib.axis_6">
    <g id="ytick_5">
     <g id="line2d_47">
      <path d="M 100.8 348.438852 
L 987.84 348.438852 
" clip-path="url(#pad9e91adbb)" style="fill: none; stroke-dasharray: 1.85,0.8; stroke-dashoffset: 0; stroke: #b2b2b2; stroke-width: 0.5"/>
     </g>
     <g id="line2d_48">
      <g>
       <use xlink:href="#m5a4bb1b637" x="100.8" y="348.438852" style="stroke: #000000; stroke-width: 0.8"/>
      </g>
     </g>
     <g id="text_7">
      <!-- 0 V -->
      <g transform="translate(74.36625 353.757758) scale(0.14 -0.14)">
       <use xlink:href="#DejaVuSans-30"/>
       <use xlink:href="#DejaVuSans-20" x="63.623047"/>
       <use xlink:href="#DejaVuSans-56" x="95.410156"/>
      </g>
     </g>
    </g>
    <g id="ytick_6">
     <g id="line2d_49">
      <path d="M 100.8 305.480507 
L 987.84 305.480507 
" clip-path="url(#pad9e91adbb)" style="fill: none; stroke-dasharray: 1.85,0.8; stroke-dashoffset: 0; stroke: #b2b2b2; stroke-width: 0.5"/>
     </g>
     <g id="line2d_50">
      <g>
       <use xlink:href="#m5a4bb1b637" x="100.8" y="305.480507" style="stroke: #000000; stroke-width: 0.8"/>
      </g>
     </g>
     <g id="text_8">
      <!-- 1 V -->
      <g transform="translate(74.36625 310.799413) scale(0.14 -0.14)">
       <use xlink:href="#DejaVuSans-31"/>
       <use xlink:href="#DejaVuSans-20" x="63.623047"/>
       <use xlink:href="#DejaVuSans-56" x="95.410156"/>
      </g>
     </g>
    </g>
    <g id="ytick_7">
     <g id="line2d_51">
      <path d="M 100.8 262.522162 
L 987.84 262.522162 
" clip-path="url(#pad9e91adbb)" style="fill: none; stroke-dasharray: 1.85,0.8; stroke-dashoffset: 0; stroke: #b2b2b2; stroke-width: 0.5"/>
     </g>
     <g id="line2d_52">
      <g>
       <use xlink:href="#m5a4bb1b637" x="100.8" y="262.522162" style="stroke: #000000; stroke-width: 0.8"/>
      </g>
     </g>
     <g id="text_9">
      <!-- 2 V -->
      <g transform="translate(74.36625 267.841069) scale(0.14 -0.14)">
       <use xlink:href="#DejaVuSans-32"/>
       <use xlink:href="#DejaVuSans-20" x="63.623047"/>
       <use xlink:href="#DejaVuSans-56" x="95.410156"/>
      </g>
     </g>
    </g>
    <g id="text_10">
     <g id="patch_15">
      <path d="M 34.8768 342.395313 
L 34.8768 273.204688 
L 11.247425 273.204688 
L 11.247425 342.395313 
z
" style="fill: #ffff00; opacity: 0.2; stroke: #eeeeee; stroke-width: 0.5; stroke-linejoin: miter"/>
     </g>
     <!-- CLK BUF -->
     <g transform="translate(26.925238 337.355313) rotate(-90) scale(0.14 -0.14)">
      <defs>
       <path id="DejaVuSans-43" d="M 4122 4306 
L 4122 3641 
Q 3803 3938 3442 4084 
Q 3081 4231 2675 4231 
Q 1875 4231 1450 3742 
Q 1025 3253 1025 2328 
Q 1025 1406 1450 917 
Q 1875 428 2675 428 
Q 3081 428 3442 575 
Q 3803 722 4122 1019 
L 4122 359 
Q 3791 134 3420 21 
Q 3050 -91 2638 -91 
Q 1578 -91 968 557 
Q 359 1206 359 2328 
Q 359 3453 968 4101 
Q 1578 4750 2638 4750 
Q 3056 4750 3426 4639 
Q 3797 4528 4122 4306 
z
" transform="scale(0.015625)"/>
       <path id="DejaVuSans-4b" d="M 628 4666 
L 1259 4666 
L 1259 2694 
L 3353 4666 
L 4166 4666 
L 1850 2491 
L 4331 0 
L 3500 0 
L 1259 2247 
L 1259 0 
L 628 0 
L 628 4666 
z
" transform="scale(0.015625)"/>
      </defs>
      <use xlink:href="#DejaVuSans-43"/>
      <use xlink:href="#DejaVuSans-4c" x="69.824219"/>
      <use xlink:href="#DejaVuSans-4b" x="125.537109"/>
      <use xlink:href="#DejaVuSans-20" x="191.113281"/>
      <use xlink:href="#DejaVuSans-42" x="222.900391"/>
      <use xlink:href="#DejaVuSans-55" x="291.503906"/>
      <use xlink:href="#DejaVuSans-46" x="364.697266"/>
     </g>
    </g>
   </g>
   <g id="line2d_53">
    <path d="M 141.12 348.437716 
L 173.376 348.437716 
L 173.601792 296.888838 
L 213.696 296.888838 
L 213.760512 338.008136 
L 213.825024 348.419226 
L 213.889536 348.357407 
L 213.954048 348.529022 
L 214.01856 348.443507 
L 215.373312 348.434066 
L 223.469568 348.437666 
L 254.016 348.4377 
L 254.17728 296.84588 
L 254.274048 296.888838 
L 257.306112 296.957572 
L 258.983424 299.376126 
L 260.62848 302.211377 
L 267.531264 313.943731 
L 271.11168 319.364644 
L 274.65984 324.277361 
L 274.853376 324.477117 
L 275.014656 324.717684 
L 275.7888 325.603055 
L 277.917696 327.628541 
L 279.272448 328.741592 
L 282.207744 330.834952 
L 282.788352 331.203534 
L 283.110912 331.316515 
L 284.143104 330.784261 
L 286.304256 329.930249 
L 286.336512 329.968912 
L 286.401024 329.913066 
L 286.562304 329.767437 
L 286.59456 329.826719 
L 286.691328 329.773022 
L 286.949376 329.653168 
L 287.110656 329.631689 
L 291.013632 328.224803 
L 291.174912 328.13459 
L 293.465088 327.368643 
L 294.336 327.045167 
L 294.432768 325.549357 
L 294.465024 326.091062 
L 294.529536 332.009863 
L 294.690816 349.95047 
L 294.723072 349.903646 
L 295.110144 349.840497 
L 298.335744 349.095857 
L 305.528832 347.921032 
L 308.722176 347.874852 
L 309.6576 347.886665 
L 310.205952 347.891992 
L 321.818112 347.93843 
L 322.463232 347.315878 
L 323.237376 346.906356 
L 324.237312 346.657284 
L 325.721088 346.550059 
L 328.398336 346.600493 
L 334.656 346.858629 
L 334.752768 285.290085 
L 334.881792 286.364044 
L 335.494656 285.277198 
L 339.81696 278.008646 
L 340.558848 276.840179 
L 343.461888 272.03314 
L 344.074752 271.03221 
L 345.494016 268.794081 
L 346.719744 266.981238 
L 347.590656 265.774109 
L 349.042176 265.688192 
L 351.461376 266.444259 
L 352.945152 267.110114 
L 354.912768 268.012239 
L 355.332096 268.205551 
L 356.977152 268.957322 
L 359.364096 270.026985 
L 360.654336 270.589739 
L 367.653888 273.498019 
L 368.234496 273.824503 
L 370.492416 275.143324 
L 370.911744 275.388187 
L 374.976 277.652091 
L 375.169536 348.96419 
L 375.29856 348.889528 
L 386.394624 348.778721 
L 393.329664 348.738315 
L 415.296 348.596062 
L 415.425024 290.775866 
L 415.521792 291.179674 
L 416.231424 291.274182 
L 416.58624 291.351508 
L 417.23136 291.458903 
L 417.586176 291.523341 
L 418.295808 291.630737 
L 418.650624 291.695174 
L 419.263488 291.80257 
L 419.618304 291.867008 
L 420.424704 291.974404 
L 420.77952 292.038841 
L 421.489152 292.146237 
L 421.843968 292.210674 
L 422.650368 292.31807 
L 422.908416 292.339549 
L 423.618048 292.446945 
L 423.972864 292.511383 
L 424.876032 292.618779 
L 425.230848 292.683216 
L 426.134016 292.790612 
L 426.392064 292.812091 
L 427.198464 292.919487 
L 427.521024 292.979629 
L 428.52096 293.078433 
L 428.972544 293.151462 
L 429.97248 293.250266 
L 430.424064 293.323296 
L 431.520768 293.4221 
L 431.972352 293.495129 
L 433.069056 293.593933 
L 433.423872 293.6283 
L 434.359296 293.735696 
L 434.617344 293.757175 
L 435.714048 293.864571 
L 435.972096 293.88605 
L 437.0688 293.993446 
L 437.326848 294.014925 
L 438.52032 294.122321 
L 438.778368 294.1438 
L 439.97184 294.251196 
L 440.229888 294.272675 
L 441.616896 294.380071 
L 441.874944 294.40155 
L 443.261952 294.508946 
L 443.52 294.530425 
L 444.036096 294.569088 
L 445.842432 294.697963 
L 447.487488 294.796767 
L 447.842304 294.826838 
L 449.422848 294.925642 
L 449.777664 294.955713 
L 451.551744 295.054517 
L 451.90656 295.084588 
L 453.874176 295.183392 
L 454.228992 295.213463 
L 455.616 295.299379 
L 455.648256 300.140785 
L 455.77728 348.434097 
L 455.93856 348.481696 
L 482.71104 348.456421 
L 495.936 348.450019 
L 496.032768 296.162842 
L 496.129536 296.351859 
L 496.161792 295.819175 
L 496.226304 296.454959 
L 496.355328 296.459255 
L 536.256 296.459255 
L 536.385024 348.766856 
L 536.546304 348.517088 
L 536.804352 348.421322 
L 537.159168 348.468058 
L 537.481728 348.449793 
L 575.479296 348.450018 
L 576.576 348.450019 
L 576.705024 296.283125 
L 576.769536 296.463551 
L 576.89856 296.459255 
L 616.896 296.459255 
L 617.186304 348.54608 
L 617.347584 348.447387 
L 618.734592 348.446859 
L 627.250176 348.454725 
L 655.570944 348.450056 
L 657.216 348.450059 
L 657.37728 296.373338 
L 657.441792 296.476438 
L 658.409472 296.459255 
L 697.536 296.459255 
L 697.826304 348.54608 
L 697.987584 348.447391 
L 699.374592 348.446862 
L 707.890176 348.45474 
L 736.114176 348.450056 
L 737.856 348.450059 
L 738.01728 296.373338 
L 738.081792 296.476438 
L 739.049472 296.459255 
L 778.176 296.459255 
L 778.466304 348.546085 
L 778.627584 348.447387 
L 780.014592 348.446859 
L 788.530176 348.454744 
L 816.754176 348.450056 
L 818.496 348.450059 
L 818.65728 296.373338 
L 818.721792 296.476438 
L 819.689472 296.459255 
L 858.816 296.459255 
L 859.106304 348.546085 
L 859.267584 348.447391 
L 860.654592 348.446862 
L 869.170176 348.45474 
L 897.490944 348.450056 
L 899.136 348.450059 
L 899.29728 296.373338 
L 899.361792 296.476438 
L 900.329472 296.459255 
L 939.456 296.459255 
L 939.488256 304.204644 
L 939.61728 348.398922 
L 939.649536 348.523828 
L 939.714048 348.404329 
L 939.746304 348.366639 
L 939.810816 348.422078 
L 940.004352 348.475723 
L 940.230144 348.448655 
L 945.649152 348.450022 
L 947.52 348.450008 
L 947.52 348.450008 
" clip-path="url(#pad9e91adbb)" style="fill: none; stroke: #0000ff; stroke-width: 2; stroke-linecap: square"/>
   </g>
   <g id="patch_16">
    <path d="M 100.8 354.165517 
L 100.8 261.434483 
" style="fill: none; stroke: #bcbcbc; stroke-width: 0.8; stroke-linejoin: miter; stroke-linecap: square"/>
   </g>
   <g id="patch_17">
    <path d="M 987.84 354.165517 
L 987.84 261.434483 
" style="fill: none; stroke: #bcbcbc; stroke-width: 0.8; stroke-linejoin: miter; stroke-linecap: square"/>
   </g>
   <g id="patch_18">
    <path d="M 100.8 354.165517 
L 987.84 354.165517 
" style="fill: none; stroke: #bcbcbc; stroke-width: 0.8; stroke-linejoin: miter; stroke-linecap: square"/>
   </g>
   <g id="patch_19">
    <path d="M 100.8 261.434483 
L 987.84 261.434483 
" style="fill: none; stroke: #bcbcbc; stroke-width: 0.8; stroke-linejoin: miter; stroke-linecap: square"/>
   </g>
  </g>
  <g id="axes_4">
   <g id="patch_20">
    <path d="M 100.8 465.442759 
L 987.84 465.442759 
L 987.84 372.711724 
L 100.8 372.711724 
z
" style="fill: #eeeeee"/>
   </g>
   <g id="matplotlib.axis_7">
    <g id="xtick_19">
     <g id="line2d_54">
      <path d="M 141.12 465.442759 
L 141.12 372.711724 
" clip-path="url(#p02de346bef)" style="fill: none; stroke-dasharray: 1.85,0.8; stroke-dashoffset: 0; stroke: #b2b2b2; stroke-width: 0.5"/>
     </g>
     <g id="line2d_55">
      <g>
       <use xlink:href="#ma76b41f07f" x="141.12" y="465.442759" style="stroke: #000000; stroke-width: 0.8"/>
      </g>
     </g>
    </g>
    <g id="xtick_20">
     <g id="line2d_56">
      <path d="M 302.4 465.442759 
L 302.4 372.711724 
" clip-path="url(#p02de346bef)" style="fill: none; stroke-dasharray: 1.85,0.8; stroke-dashoffset: 0; stroke: #b2b2b2; stroke-width: 0.5"/>
     </g>
     <g id="line2d_57">
      <g>
       <use xlink:href="#ma76b41f07f" x="302.4" y="465.442759" style="stroke: #000000; stroke-width: 0.8"/>
      </g>
     </g>
    </g>
    <g id="xtick_21">
     <g id="line2d_58">
      <path d="M 463.68 465.442759 
L 463.68 372.711724 
" clip-path="url(#p02de346bef)" style="fill: none; stroke-dasharray: 1.85,0.8; stroke-dashoffset: 0; stroke: #b2b2b2; stroke-width: 0.5"/>
     </g>
     <g id="line2d_59">
      <g>
       <use xlink:href="#ma76b41f07f" x="463.68" y="465.442759" style="stroke: #000000; stroke-width: 0.8"/>
      </g>
     </g>
    </g>
    <g id="xtick_22">
     <g id="line2d_60">
      <path d="M 624.96 465.442759 
L 624.96 372.711724 
" clip-path="url(#p02de346bef)" style="fill: none; stroke-dasharray: 1.85,0.8; stroke-dashoffset: 0; stroke: #b2b2b2; stroke-width: 0.5"/>
     </g>
     <g id="line2d_61">
      <g>
       <use xlink:href="#ma76b41f07f" x="624.96" y="465.442759" style="stroke: #000000; stroke-width: 0.8"/>
      </g>
     </g>
    </g>
    <g id="xtick_23">
     <g id="line2d_62">
      <path d="M 786.24 465.442759 
L 786.24 372.711724 
" clip-path="url(#p02de346bef)" style="fill: none; stroke-dasharray: 1.85,0.8; stroke-dashoffset: 0; stroke: #b2b2b2; stroke-width: 0.5"/>
     </g>
     <g id="line2d_63">
      <g>
       <use xlink:href="#ma76b41f07f" x="786.24" y="465.442759" style="stroke: #000000; stroke-width: 0.8"/>
      </g>
     </g>
    </g>
    <g id="xtick_24">
     <g id="line2d_64">
      <path d="M 947.52 465.442759 
L 947.52 372.711724 
" clip-path="url(#p02de346bef)" style="fill: none; stroke-dasharray: 1.85,0.8; stroke-dashoffset: 0; stroke: #b2b2b2; stroke-width: 0.5"/>
     </g>
     <g id="line2d_65">
      <g>
       <use xlink:href="#ma76b41f07f" x="947.52" y="465.442759" style="stroke: #000000; stroke-width: 0.8"/>
      </g>
     </g>
    </g>
   </g>
   <g id="matplotlib.axis_8">
    <g id="ytick_8">
     <g id="line2d_66">
      <path d="M 100.8 437.447946 
L 987.84 437.447946 
" clip-path="url(#p02de346bef)" style="fill: none; stroke-dasharray: 1.85,0.8; stroke-dashoffset: 0; stroke: #b2b2b2; stroke-width: 0.5"/>
     </g>
     <g id="line2d_67">
      <g>
       <use xlink:href="#m5a4bb1b637" x="100.8" y="437.447946" style="stroke: #000000; stroke-width: 0.8"/>
      </g>
     </g>
     <g id="text_11">
      <!-- 0 V -->
      <g transform="translate(74.36625 442.766852) scale(0.14 -0.14)">
       <use xlink:href="#DejaVuSans-30"/>
       <use xlink:href="#DejaVuSans-20" x="63.623047"/>
       <use xlink:href="#DejaVuSans-56" x="95.410156"/>
      </g>
     </g>
    </g>
    <g id="ytick_9">
     <g id="line2d_68">
      <path d="M 100.8 395.906883 
L 987.84 395.906883 
" clip-path="url(#p02de346bef)" style="fill: none; stroke-dasharray: 1.85,0.8; stroke-dashoffset: 0; stroke: #b2b2b2; stroke-width: 0.5"/>
     </g>
     <g id="line2d_69">
      <g>
       <use xlink:href="#m5a4bb1b637" x="100.8" y="395.906883" style="stroke: #000000; stroke-width: 0.8"/>
      </g>
     </g>
     <g id="text_12">
      <!-- 1 V -->
      <g transform="translate(74.36625 401.225789) scale(0.14 -0.14)">
       <use xlink:href="#DejaVuSans-31"/>
       <use xlink:href="#DejaVuSans-20" x="63.623047"/>
       <use xlink:href="#DejaVuSans-56" x="95.410156"/>
      </g>
     </g>
    </g>
    <g id="text_13">
     <g id="patch_21">
      <path d="M 34.8768 454.693023 
L 34.8768 383.46146 
L 11.247425 383.46146 
L 11.247425 454.693023 
z
" style="fill: #ffff00; opacity: 0.2; stroke: #eeeeee; stroke-width: 0.5; stroke-linejoin: miter"/>
     </g>
     <!-- DFF OUT -->
     <g transform="translate(26.925238 449.653023) rotate(-90) scale(0.14 -0.14)">
      <defs>
       <path id="DejaVuSans-4f" d="M 2522 4238 
Q 1834 4238 1429 3725 
Q 1025 3213 1025 2328 
Q 1025 1447 1429 934 
Q 1834 422 2522 422 
Q 3209 422 3611 934 
Q 4013 1447 4013 2328 
Q 4013 3213 3611 3725 
Q 3209 4238 2522 4238 
z
M 2522 4750 
Q 3503 4750 4090 4092 
Q 4678 3434 4678 2328 
Q 4678 1225 4090 567 
Q 3503 -91 2522 -91 
Q 1538 -91 948 565 
Q 359 1222 359 2328 
Q 359 3434 948 4092 
Q 1538 4750 2522 4750 
z
" transform="scale(0.015625)"/>
       <path id="DejaVuSans-54" d="M -19 4666 
L 3928 4666 
L 3928 4134 
L 2272 4134 
L 2272 0 
L 1638 0 
L 1638 4134 
L -19 4134 
L -19 4666 
z
" transform="scale(0.015625)"/>
      </defs>
      <use xlink:href="#DejaVuSans-44"/>
      <use xlink:href="#DejaVuSans-46" x="77.001953"/>
      <use xlink:href="#DejaVuSans-46" x="134.521484"/>
      <use xlink:href="#DejaVuSans-20" x="192.041016"/>
      <use xlink:href="#DejaVuSans-4f" x="223.828125"/>
      <use xlink:href="#DejaVuSans-55" x="302.539062"/>
      <use xlink:href="#DejaVuSans-54" x="375.732422"/>
     </g>
    </g>
   </g>
   <g id="line2d_70">
    <path d="M 141.12 406.103967 
L 173.408256 406.154648 
L 173.440512 407.874448 
L 173.601792 437.450481 
L 174.085632 437.445288 
L 183.923712 437.446846 
L 254.048256 437.464065 
L 254.080512 437.61811 
L 254.112768 437.387981 
L 254.306304 433.347801 
L 254.8224 431.36758 
L 255.015936 428.992262 
L 255.177216 423.853633 
L 255.403008 407.487285 
L 255.661056 387.793913 
L 255.822336 387.602824 
L 257.338368 387.702523 
L 258.951168 389.954048 
L 260.660736 392.807919 
L 265.241088 400.692829 
L 265.724928 401.92826 
L 266.402304 404.240851 
L 266.59584 405.217066 
L 268.337664 413.28434 
L 268.950528 416.245387 
L 268.982784 415.886057 
L 269.047296 415.972462 
L 269.079552 416.111625 
L 269.240832 417.625797 
L 269.49888 418.928109 
L 269.595648 418.761945 
L 269.627904 418.805978 
L 269.98272 421.255655 
L 271.337472 428.200905 
L 272.014848 431.298622 
L 273.3696 436.887764 
L 273.401856 436.39272 
L 273.466368 436.685418 
L 273.53088 437.104148 
L 273.69216 438.295217 
L 273.950208 439.312932 
L 273.982464 439.182867 
L 274.01472 439.096046 
L 274.143744 439.691329 
L 274.176 439.614603 
L 274.208256 439.781307 
L 274.401792 441.052505 
L 274.788864 442.210213 
L 274.82112 442.014555 
L 274.885632 442.173657 
L 275.95008 445.270959 
L 276.143616 445.418845 
L 276.562944 446.226818 
L 276.5952 446.306993 
L 276.75648 447.102089 
L 280.562688 456.084928 
L 283.175424 461.183678 
L 283.304448 461.086887 
L 283.465728 460.659014 
L 283.497984 460.764113 
L 283.53024 460.686847 
L 283.723776 460.198739 
L 283.885056 459.991034 
L 285.239808 457.376024 
L 285.336576 457.30582 
L 285.530112 456.890409 
L 285.562368 456.972661 
L 285.594624 456.765786 
L 286.11072 455.943273 
L 286.304256 455.703581 
L 286.336512 455.894255 
L 286.368768 455.652901 
L 286.401024 455.791648 
L 286.562304 455.316003 
L 286.59456 455.456412 
L 286.626816 455.284016 
L 286.949376 454.924271 
L 287.529984 454.358066 
L 287.788032 453.873282 
L 287.820288 454.027815 
L 287.852544 453.898206 
L 288.013824 453.583741 
L 288.04608 453.754474 
L 288.078336 453.465764 
L 288.239616 453.290461 
L 288.271872 453.357342 
L 288.304128 453.212779 
L 288.336384 453.160022 
L 288.36864 453.353603 
L 288.400896 453.094387 
L 288.85248 452.578447 
L 289.529856 451.961147 
L 289.949184 451.621341 
L 290.304 451.02398 
L 290.529792 450.712422 
L 290.562048 450.930098 
L 290.62656 450.635571 
L 290.723328 450.482285 
L 290.755584 450.719069 
L 290.78784 450.333568 
L 290.852352 450.306982 
L 290.884608 450.591122 
L 290.94912 450.181112 
L 290.981376 450.473146 
L 291.1104 449.995839 
L 291.142656 450.236777 
L 291.207168 449.938097 
L 291.239424 450.078506 
L 291.27168 450.064797 
L 291.400704 449.694666 
L 291.43296 449.678881 
L 291.465216 449.886586 
L 291.561984 449.805996 
L 291.691008 449.418418 
L 291.723264 449.405541 
L 291.75552 449.526425 
L 291.787776 449.338244 
L 291.820032 449.32412 
L 291.884544 449.302519 
L 291.949056 449.445835 
L 292.07808 449.144663 
L 292.948992 448.431818 
L 293.174784 447.849412 
L 293.561856 447.345104 
L 293.594112 447.701111 
L 293.626368 447.317687 
L 293.658624 447.596843 
L 293.755392 447.090457 
L 293.787648 447.29567 
L 293.916672 446.939663 
L 293.85216 447.43234 
L 293.948928 447.156923 
L 293.981184 447.256206 
L 294.110208 446.743174 
L 294.239232 446.653861 
L 294.271488 446.985774 
L 294.303744 446.581164 
L 294.336 446.579917 
L 294.852096 446.240112 
L 295.30368 445.995435 
L 295.497216 445.775682 
L 296.045568 445.197846 
L 296.239104 445.001772 
L 296.368128 444.413136 
L 296.561664 444.228278 
L 296.59392 444.631642 
L 296.658432 444.121517 
L 296.690688 444.535266 
L 296.819712 443.94746 
L 296.851968 443.955353 
L 296.884224 444.365779 
L 296.948736 444.16929 
L 297.110016 443.69406 
L 297.142272 443.703614 
L 297.174528 444.092023 
L 297.206784 443.611808 
L 297.271296 444.000633 
L 297.40032 443.486354 
L 297.432576 443.497986 
L 297.464832 443.734355 
L 297.497088 443.418643 
L 297.529344 443.43609 
L 297.593856 443.389979 
L 297.658368 443.650442 
L 297.819648 443.332653 
L 298.400256 442.985369 
L 299.1744 442.225168 
L 299.238912 442.017047 
L 299.400192 441.49284 
L 299.561472 441.319033 
L 299.593728 441.712967 
L 299.65824 441.219833 
L 299.916288 440.941632 
L 299.948544 441.127238 
L 299.9808 440.866484 
L 300.013056 440.914797 
L 300.238848 440.678386 
L 300.271104 440.706717 
L 300.30336 440.603488 
L 300.432384 440.541093 
L 300.46464 440.950023 
L 300.529152 440.769901 
L 300.7872 440.385231 
L 301.206528 440.25392 
L 302.4 439.015747 
L 302.56128 438.791384 
L 302.754816 438.066201 
L 302.787072 438.17184 
L 302.916096 437.65003 
L 302.948352 437.618056 
L 302.980608 437.800002 
L 303.012864 437.515159 
L 303.04512 437.626871 
L 303.077376 437.467823 
L 303.109632 437.504894 
L 303.174144 437.772651 
L 303.2064 437.43011 
L 303.303168 437.529487 
L 303.335424 437.487588 
L 304.49664 435.354525 
L 304.65792 434.608199 
L 304.786944 434.755711 
L 304.8192 434.73411 
L 305.690112 433.014683 
L 305.78688 432.309732 
L 305.819136 432.346288 
L 305.883648 432.318871 
L 305.915904 432.585149 
L 306.012672 431.942509 
L 306.044928 432.046777 
L 306.077184 432.10618 
L 306.10944 431.91883 
L 306.206208 431.940847 
L 307.496448 429.468738 
L 307.819008 428.702306 
L 313.012224 418.077763 
L 313.04448 417.364088 
L 313.141248 417.562654 
L 313.270272 417.416014 
L 313.302528 417.554346 
L 313.36704 417.453817 
L 313.754112 416.736402 
L 314.786304 414.590391 
L 314.850816 414.708368 
L 314.883072 414.746586 
L 314.947584 414.665581 
L 315.334656 414.103945 
L 315.528192 413.565158 
L 316.27008 412.387469 
L 316.302336 412.410316 
L 316.399104 412.266584 
L 317.624832 410.069893 
L 318.173184 409.435561 
L 318.334464 409.22287 
L 318.68928 408.519165 
L 319.01184 407.913912 
L 319.689216 407.017871 
L 320.560128 406.182895 
L 321.882624 404.339719 
L 322.818048 401.443476 
L 328.914432 388.657967 
L 329.591808 387.307883 
L 330.78528 384.952504 
L 334.720512 377.716051 
L 334.752768 376.926771 
L 335.043072 435.947399 
L 335.075328 435.93718 
L 337.430016 436.025995 
L 341.687808 436.093665 
L 343.655424 436.064877 
L 347.590656 436.239433 
L 348.300288 436.921205 
L 349.106688 437.348442 
L 350.074368 437.610957 
L 351.525888 437.771833 
L 354.49344 437.836139 
L 366.686208 437.770761 
L 367.911936 437.877189 
L 370.62144 437.930445 
L 415.328256 437.592209 
L 415.360512 437.896755 
L 415.683072 431.763882 
L 415.94112 430.379318 
L 416.1024 428.161026 
L 416.26368 421.841799 
L 416.457216 404.172723 
L 416.683008 382.464195 
L 416.844288 382.285568 
L 417.521664 382.393575 
L 418.070016 382.493274 
L 418.779648 382.597126 
L 419.134464 382.659438 
L 419.844096 382.767445 
L 420.29568 382.825602 
L 420.908544 382.929455 
L 421.26336 382.991766 
L 422.06976 383.095619 
L 422.424576 383.157931 
L 423.327744 383.261783 
L 423.68256 383.324095 
L 424.48896 383.427947 
L 424.747008 383.448718 
L 425.45664 383.552571 
L 425.714688 383.573341 
L 426.521088 383.677194 
L 426.875904 383.739505 
L 427.87584 383.843358 
L 428.230656 383.90567 
L 429.230592 384.009522 
L 429.48864 384.030293 
L 430.391808 384.134146 
L 430.649856 384.154916 
L 431.553024 384.258769 
L 431.811072 384.279539 
L 432.71424 384.383392 
L 432.972288 384.404162 
L 433.972224 384.508015 
L 434.230272 384.528786 
L 435.230208 384.632638 
L 435.488256 384.653409 
L 436.58496 384.757262 
L 436.843008 384.778032 
L 438.03648 384.881885 
L 438.294528 384.902655 
L 439.488 385.006508 
L 439.746048 385.027278 
L 441.036288 385.131131 
L 441.294336 385.151902 
L 442.681344 385.255754 
L 442.939392 385.276525 
L 444.423168 385.380377 
L 444.681216 385.401148 
L 446.164992 385.505001 
L 446.42304 385.521617 
L 448.100352 385.629624 
L 448.3584 385.650394 
L 450.13248 385.754247 
L 450.390528 385.775018 
L 452.358144 385.87887 
L 452.616192 385.899641 
L 454.680576 386.003493 
L 454.938624 386.024264 
L 457.293312 386.128117 
L 457.615872 386.144733 
L 460.002816 386.25274 
L 460.260864 386.269356 
L 463.099392 386.377363 
L 463.35744 386.393979 
L 466.486272 386.501986 
L 466.74432 386.518603 
L 470.260224 386.626609 
L 470.518272 386.643226 
L 474.518016 386.751233 
L 474.776064 386.767849 
L 479.453184 386.875856 
L 479.775744 386.892472 
L 485.356032 387.000479 
L 485.710848 387.021249 
L 492.613632 387.125102 
L 492.968448 387.145873 
L 495.968256 387.18326 
L 496.032768 387.349424 
L 496.065024 387.18326 
L 496.09728 387.104332 
L 496.161792 387.216492 
L 496.41984 387.174951 
L 576.608256 387.179105 
L 576.640512 387.386811 
L 576.705024 387.158335 
L 576.963072 387.179105 
L 657.248256 387.199876 
L 657.280512 387.341116 
L 657.345024 387.150027 
L 657.635328 387.174951 
L 737.888256 387.199876 
L 737.920512 387.341116 
L 737.985024 387.150027 
L 738.275328 387.174951 
L 818.528256 387.199876 
L 818.560512 387.341116 
L 818.625024 387.150027 
L 818.915328 387.174951 
L 899.168256 387.199876 
L 899.200512 387.341116 
L 899.265024 387.150027 
L 899.555328 387.174951 
L 947.52 387.18326 
L 947.52 387.18326 
" clip-path="url(#p02de346bef)" style="fill: none; stroke: #ff00ff; stroke-width: 2; stroke-linecap: square"/>
   </g>
   <g id="patch_22">
    <path d="M 100.8 465.442759 
L 100.8 372.711724 
" style="fill: none; stroke: #bcbcbc; stroke-width: 0.8; stroke-linejoin: miter; stroke-linecap: square"/>
   </g>
   <g id="patch_23">
    <path d="M 987.84 465.442759 
L 987.84 372.711724 
" style="fill: none; stroke: #bcbcbc; stroke-width: 0.8; stroke-linejoin: miter; stroke-linecap: square"/>
   </g>
   <g id="patch_24">
    <path d="M 100.8 465.442759 
L 987.84 465.442759 
" style="fill: none; stroke: #bcbcbc; stroke-width: 0.8; stroke-linejoin: miter; stroke-linecap: square"/>
   </g>
   <g id="patch_25">
    <path d="M 100.8 372.711724 
L 987.84 372.711724 
" style="fill: none; stroke: #bcbcbc; stroke-width: 0.8; stroke-linejoin: miter; stroke-linecap: square"/>
   </g>
  </g>
  <g id="axes_5">
   <g id="patch_26">
    <path d="M 100.8 576.72 
L 987.84 576.72 
L 987.84 483.988966 
L 100.8 483.988966 
z
" style="fill: #eeeeee"/>
   </g>
   <g id="matplotlib.axis_9">
    <g id="xtick_25">
     <g id="line2d_71">
      <path d="M 141.12 576.72 
L 141.12 483.988966 
" clip-path="url(#p44448f2a10)" style="fill: none; stroke-dasharray: 1.85,0.8; stroke-dashoffset: 0; stroke: #b2b2b2; stroke-width: 0.5"/>
     </g>
     <g id="line2d_72">
      <g>
       <use xlink:href="#ma76b41f07f" x="141.12" y="576.72" style="stroke: #000000; stroke-width: 0.8"/>
      </g>
     </g>
     <g id="text_14">
      <!-- 0 s -->
      <g transform="translate(130.795 590.857813) scale(0.14 -0.14)">
       <defs>
        <path id="DejaVuSans-73" d="M 2834 3397 
L 2834 2853 
Q 2591 2978 2328 3040 
Q 2066 3103 1784 3103 
Q 1356 3103 1142 2972 
Q 928 2841 928 2578 
Q 928 2378 1081 2264 
Q 1234 2150 1697 2047 
L 1894 2003 
Q 2506 1872 2764 1633 
Q 3022 1394 3022 966 
Q 3022 478 2636 193 
Q 2250 -91 1575 -91 
Q 1294 -91 989 -36 
Q 684 19 347 128 
L 347 722 
Q 666 556 975 473 
Q 1284 391 1588 391 
Q 1994 391 2212 530 
Q 2431 669 2431 922 
Q 2431 1156 2273 1281 
Q 2116 1406 1581 1522 
L 1381 1569 
Q 847 1681 609 1914 
Q 372 2147 372 2553 
Q 372 3047 722 3315 
Q 1072 3584 1716 3584 
Q 2034 3584 2315 3537 
Q 2597 3491 2834 3397 
z
" transform="scale(0.015625)"/>
       </defs>
       <use xlink:href="#DejaVuSans-30"/>
       <use xlink:href="#DejaVuSans-20" x="63.623047"/>
       <use xlink:href="#DejaVuSans-73" x="95.410156"/>
      </g>
     </g>
    </g>
    <g id="xtick_26">
     <g id="line2d_73">
      <path d="M 302.4 576.72 
L 302.4 483.988966 
" clip-path="url(#p44448f2a10)" style="fill: none; stroke-dasharray: 1.85,0.8; stroke-dashoffset: 0; stroke: #b2b2b2; stroke-width: 0.5"/>
     </g>
     <g id="line2d_74">
      <g>
       <use xlink:href="#ma76b41f07f" x="302.4" y="576.72" style="stroke: #000000; stroke-width: 0.8"/>
      </g>
     </g>
     <g id="text_15">
      <!-- 50 ns -->
      <g transform="translate(283.185 590.857813) scale(0.14 -0.14)">
       <defs>
        <path id="DejaVuSans-35" d="M 691 4666 
L 3169 4666 
L 3169 4134 
L 1269 4134 
L 1269 2991 
Q 1406 3038 1543 3061 
Q 1681 3084 1819 3084 
Q 2600 3084 3056 2656 
Q 3513 2228 3513 1497 
Q 3513 744 3044 326 
Q 2575 -91 1722 -91 
Q 1428 -91 1123 -41 
Q 819 9 494 109 
L 494 744 
Q 775 591 1075 516 
Q 1375 441 1709 441 
Q 2250 441 2565 725 
Q 2881 1009 2881 1497 
Q 2881 1984 2565 2268 
Q 2250 2553 1709 2553 
Q 1456 2553 1204 2497 
Q 953 2441 691 2322 
L 691 4666 
z
" transform="scale(0.015625)"/>
        <path id="DejaVuSans-6e" d="M 3513 2113 
L 3513 0 
L 2938 0 
L 2938 2094 
Q 2938 2591 2744 2837 
Q 2550 3084 2163 3084 
Q 1697 3084 1428 2787 
Q 1159 2491 1159 1978 
L 1159 0 
L 581 0 
L 581 3500 
L 1159 3500 
L 1159 2956 
Q 1366 3272 1645 3428 
Q 1925 3584 2291 3584 
Q 2894 3584 3203 3211 
Q 3513 2838 3513 2113 
z
" transform="scale(0.015625)"/>
       </defs>
       <use xlink:href="#DejaVuSans-35"/>
       <use xlink:href="#DejaVuSans-30" x="63.623047"/>
       <use xlink:href="#DejaVuSans-20" x="127.246094"/>
       <use xlink:href="#DejaVuSans-6e" x="159.033203"/>
       <use xlink:href="#DejaVuSans-73" x="222.412109"/>
      </g>
     </g>
    </g>
    <g id="xtick_27">
     <g id="line2d_75">
      <path d="M 463.68 576.72 
L 463.68 483.988966 
" clip-path="url(#p44448f2a10)" style="fill: none; stroke-dasharray: 1.85,0.8; stroke-dashoffset: 0; stroke: #b2b2b2; stroke-width: 0.5"/>
     </g>
     <g id="line2d_76">
      <g>
       <use xlink:href="#ma76b41f07f" x="463.68" y="576.72" style="stroke: #000000; stroke-width: 0.8"/>
      </g>
     </g>
     <g id="text_16">
      <!-- 100 ns -->
      <g transform="translate(440.01125 590.857813) scale(0.14 -0.14)">
       <use xlink:href="#DejaVuSans-31"/>
       <use xlink:href="#DejaVuSans-30" x="63.623047"/>
       <use xlink:href="#DejaVuSans-30" x="127.246094"/>
       <use xlink:href="#DejaVuSans-20" x="190.869141"/>
       <use xlink:href="#DejaVuSans-6e" x="222.65625"/>
       <use xlink:href="#DejaVuSans-73" x="286.035156"/>
      </g>
     </g>
    </g>
    <g id="xtick_28">
     <g id="line2d_77">
      <path d="M 624.96 576.72 
L 624.96 483.988966 
" clip-path="url(#p44448f2a10)" style="fill: none; stroke-dasharray: 1.85,0.8; stroke-dashoffset: 0; stroke: #b2b2b2; stroke-width: 0.5"/>
     </g>
     <g id="line2d_78">
      <g>
       <use xlink:href="#ma76b41f07f" x="624.96" y="576.72" style="stroke: #000000; stroke-width: 0.8"/>
      </g>
     </g>
     <g id="text_17">
      <!-- 150 ns -->
      <g transform="translate(601.29125 590.857813) scale(0.14 -0.14)">
       <use xlink:href="#DejaVuSans-31"/>
       <use xlink:href="#DejaVuSans-35" x="63.623047"/>
       <use xlink:href="#DejaVuSans-30" x="127.246094"/>
       <use xlink:href="#DejaVuSans-20" x="190.869141"/>
       <use xlink:href="#DejaVuSans-6e" x="222.65625"/>
       <use xlink:href="#DejaVuSans-73" x="286.035156"/>
      </g>
     </g>
    </g>
    <g id="xtick_29">
     <g id="line2d_79">
      <path d="M 786.24 576.72 
L 786.24 483.988966 
" clip-path="url(#p44448f2a10)" style="fill: none; stroke-dasharray: 1.85,0.8; stroke-dashoffset: 0; stroke: #b2b2b2; stroke-width: 0.5"/>
     </g>
     <g id="line2d_80">
      <g>
       <use xlink:href="#ma76b41f07f" x="786.24" y="576.72" style="stroke: #000000; stroke-width: 0.8"/>
      </g>
     </g>
     <g id="text_18">
      <!-- 200 ns -->
      <g transform="translate(762.57125 590.857813) scale(0.14 -0.14)">
       <use xlink:href="#DejaVuSans-32"/>
       <use xlink:href="#DejaVuSans-30" x="63.623047"/>
       <use xlink:href="#DejaVuSans-30" x="127.246094"/>
       <use xlink:href="#DejaVuSans-20" x="190.869141"/>
       <use xlink:href="#DejaVuSans-6e" x="222.65625"/>
       <use xlink:href="#DejaVuSans-73" x="286.035156"/>
      </g>
     </g>
    </g>
    <g id="xtick_30">
     <g id="line2d_81">
      <path d="M 947.52 576.72 
L 947.52 483.988966 
" clip-path="url(#p44448f2a10)" style="fill: none; stroke-dasharray: 1.85,0.8; stroke-dashoffset: 0; stroke: #b2b2b2; stroke-width: 0.5"/>
     </g>
     <g id="line2d_82">
      <g>
       <use xlink:href="#ma76b41f07f" x="947.52" y="576.72" style="stroke: #000000; stroke-width: 0.8"/>
      </g>
     </g>
     <g id="text_19">
      <!-- 250 ns -->
      <g transform="translate(923.85125 590.857813) scale(0.14 -0.14)">
       <use xlink:href="#DejaVuSans-32"/>
       <use xlink:href="#DejaVuSans-35" x="63.623047"/>
       <use xlink:href="#DejaVuSans-30" x="127.246094"/>
       <use xlink:href="#DejaVuSans-20" x="190.869141"/>
       <use xlink:href="#DejaVuSans-6e" x="222.65625"/>
       <use xlink:href="#DejaVuSans-73" x="286.035156"/>
      </g>
     </g>
    </g>
    <g id="text_20">
     <!-- Time -->
     <g transform="translate(527.192969 608.407187) scale(0.14 -0.14)">
      <defs>
       <path id="DejaVuSans-69" d="M 603 3500 
L 1178 3500 
L 1178 0 
L 603 0 
L 603 3500 
z
M 603 4863 
L 1178 4863 
L 1178 4134 
L 603 4134 
L 603 4863 
z
" transform="scale(0.015625)"/>
       <path id="DejaVuSans-6d" d="M 3328 2828 
Q 3544 3216 3844 3400 
Q 4144 3584 4550 3584 
Q 5097 3584 5394 3201 
Q 5691 2819 5691 2113 
L 5691 0 
L 5113 0 
L 5113 2094 
Q 5113 2597 4934 2840 
Q 4756 3084 4391 3084 
Q 3944 3084 3684 2787 
Q 3425 2491 3425 1978 
L 3425 0 
L 2847 0 
L 2847 2094 
Q 2847 2600 2669 2842 
Q 2491 3084 2119 3084 
Q 1678 3084 1418 2786 
Q 1159 2488 1159 1978 
L 1159 0 
L 581 0 
L 581 3500 
L 1159 3500 
L 1159 2956 
Q 1356 3278 1631 3431 
Q 1906 3584 2284 3584 
Q 2666 3584 2933 3390 
Q 3200 3197 3328 2828 
z
" transform="scale(0.015625)"/>
       <path id="DejaVuSans-65" d="M 3597 1894 
L 3597 1613 
L 953 1613 
Q 991 1019 1311 708 
Q 1631 397 2203 397 
Q 2534 397 2845 478 
Q 3156 559 3463 722 
L 3463 178 
Q 3153 47 2828 -22 
Q 2503 -91 2169 -91 
Q 1331 -91 842 396 
Q 353 884 353 1716 
Q 353 2575 817 3079 
Q 1281 3584 2069 3584 
Q 2775 3584 3186 3129 
Q 3597 2675 3597 1894 
z
M 3022 2063 
Q 3016 2534 2758 2815 
Q 2500 3097 2075 3097 
Q 1594 3097 1305 2825 
Q 1016 2553 972 2059 
L 3022 2063 
z
" transform="scale(0.015625)"/>
      </defs>
      <use xlink:href="#DejaVuSans-54"/>
      <use xlink:href="#DejaVuSans-69" x="57.958984"/>
      <use xlink:href="#DejaVuSans-6d" x="85.742188"/>
      <use xlink:href="#DejaVuSans-65" x="183.154297"/>
     </g>
    </g>
   </g>
   <g id="matplotlib.axis_10">
    <g id="ytick_10">
     <g id="line2d_83">
      <path d="M 100.8 569.758437 
L 987.84 569.758437 
" clip-path="url(#p44448f2a10)" style="fill: none; stroke-dasharray: 1.85,0.8; stroke-dashoffset: 0; stroke: #b2b2b2; stroke-width: 0.5"/>
     </g>
     <g id="line2d_84">
      <g>
       <use xlink:href="#m5a4bb1b637" x="100.8" y="569.758437" style="stroke: #000000; stroke-width: 0.8"/>
      </g>
     </g>
     <g id="text_21">
      <!-- 0 V -->
      <g transform="translate(74.36625 575.077344) scale(0.14 -0.14)">
       <use xlink:href="#DejaVuSans-30"/>
       <use xlink:href="#DejaVuSans-20" x="63.623047"/>
       <use xlink:href="#DejaVuSans-56" x="95.410156"/>
      </g>
     </g>
    </g>
    <g id="ytick_11">
     <g id="line2d_85">
      <path d="M 100.8 536.116648 
L 987.84 536.116648 
" clip-path="url(#p44448f2a10)" style="fill: none; stroke-dasharray: 1.85,0.8; stroke-dashoffset: 0; stroke: #b2b2b2; stroke-width: 0.5"/>
     </g>
     <g id="line2d_86">
      <g>
       <use xlink:href="#m5a4bb1b637" x="100.8" y="536.116648" style="stroke: #000000; stroke-width: 0.8"/>
      </g>
     </g>
     <g id="text_22">
      <!-- 500 mV -->
      <g transform="translate(42.914375 541.435555) scale(0.14 -0.14)">
       <use xlink:href="#DejaVuSans-35"/>
       <use xlink:href="#DejaVuSans-30" x="63.623047"/>
       <use xlink:href="#DejaVuSans-30" x="127.246094"/>
       <use xlink:href="#DejaVuSans-20" x="190.869141"/>
       <use xlink:href="#DejaVuSans-6d" x="222.65625"/>
       <use xlink:href="#DejaVuSans-56" x="320.068359"/>
      </g>
     </g>
    </g>
    <g id="ytick_12">
     <g id="line2d_87">
      <path d="M 100.8 502.474859 
L 987.84 502.474859 
" clip-path="url(#p44448f2a10)" style="fill: none; stroke-dasharray: 1.85,0.8; stroke-dashoffset: 0; stroke: #b2b2b2; stroke-width: 0.5"/>
     </g>
     <g id="line2d_88">
      <g>
       <use xlink:href="#m5a4bb1b637" x="100.8" y="502.474859" style="stroke: #000000; stroke-width: 0.8"/>
      </g>
     </g>
     <g id="text_23">
      <!-- 1 V -->
      <g transform="translate(74.36625 507.793766) scale(0.14 -0.14)">
       <use xlink:href="#DejaVuSans-31"/>
       <use xlink:href="#DejaVuSans-20" x="63.623047"/>
       <use xlink:href="#DejaVuSans-56" x="95.410156"/>
      </g>
     </g>
    </g>
    <g id="text_24">
     <g id="patch_27">
      <path d="M 34.8768 554.329483 
L 34.8768 506.379483 
L 11.247425 506.379483 
L 11.247425 554.329483 
z
" style="fill: #ffff00; opacity: 0.2; stroke: #eeeeee; stroke-width: 0.5; stroke-linejoin: miter"/>
     </g>
     <!-- FOUT -->
     <g transform="translate(26.925238 549.289483) rotate(-90) scale(0.14 -0.14)">
      <use xlink:href="#DejaVuSans-46"/>
      <use xlink:href="#DejaVuSans-4f" x="57.519531"/>
      <use xlink:href="#DejaVuSans-55" x="136.230469"/>
      <use xlink:href="#DejaVuSans-54" x="209.423828"/>
     </g>
    </g>
   </g>
   <g id="line2d_89">
    <path d="M 141.12 489.018144 
L 173.472768 489.024872 
L 173.505024 488.82975 
L 173.569536 526.997705 
L 173.69856 572.504953 
L 173.730816 572.370117 
L 173.827584 567.863328 
L 173.892096 569.375204 
L 174.053376 570.075296 
L 174.117888 569.958303 
L 174.408192 569.505761 
L 174.440448 569.554992 
L 174.66624 569.742579 
L 176.182272 569.752729 
L 180.14976 569.773643 
L 193.761792 569.763498 
L 213.018624 569.756568 
L 255.370752 569.782249 
L 255.403008 568.34306 
L 255.725568 489.031601 
L 256.306176 489.018144 
L 268.627968 488.971045 
L 268.69248 488.735553 
L 268.724736 489.583326 
L 268.789248 521.476415 
L 268.918272 570.024275 
L 268.950528 569.783547 
L 269.17632 569.756053 
L 280.917504 569.756763 
L 315.3024 569.783155 
L 315.334656 569.353989 
L 315.399168 560.589031 
L 315.62496 489.219995 
L 315.78624 489.024872 
L 316.334592 489.018144 
L 334.849536 489.031601 
L 334.881792 488.204013 
L 335.043072 570.060426 
L 335.13984 569.755902 
L 336.946176 569.756764 
L 416.392704 569.750009 
L 416.42496 569.975763 
L 416.489472 551.751333 
L 416.650752 489.872645 
L 416.779776 489.024872 
L 947.52 489.018144 
L 947.52 489.018144 
" clip-path="url(#p44448f2a10)" style="fill: none; stroke: #ff00ff; stroke-width: 2; stroke-linecap: square"/>
   </g>
   <g id="patch_28">
    <path d="M 100.8 576.72 
L 100.8 483.988966 
" style="fill: none; stroke: #bcbcbc; stroke-width: 0.8; stroke-linejoin: miter; stroke-linecap: square"/>
   </g>
   <g id="patch_29">
    <path d="M 987.84 576.72 
L 987.84 483.988966 
" style="fill: none; stroke: #bcbcbc; stroke-width: 0.8; stroke-linejoin: miter; stroke-linecap: square"/>
   </g>
   <g id="patch_30">
    <path d="M 100.8 576.72 
L 987.84 576.72 
" style="fill: none; stroke: #bcbcbc; stroke-width: 0.8; stroke-linejoin: miter; stroke-linecap: square"/>
   </g>
   <g id="patch_31">
    <path d="M 100.8 483.988966 
L 987.84 483.988966 
" style="fill: none; stroke: #bcbcbc; stroke-width: 0.8; stroke-linejoin: miter; stroke-linecap: square"/>
   </g>
  </g>
  <g id="axes_6">
   <g id="patch_32">
    <path d="M 201.6 628.56 
L 856.8 628.56 
L 856.8 615.6 
L 201.6 615.6 
z
" clip-path="url(#p1a0a30a79f)" style="fill: #d3d3d3"/>
   </g>
   <g id="patch_33">
    <path d="M 201.6 628.56 
L 295.2 628.56 
L 295.2 615.6 
L 201.6 615.6 
z
" clip-path="url(#p1a0a30a79f)" style="fill: #0000ff"/>
   </g>
   <g id="line2d_90">
    <path d="M 201.6 635.04 
L 201.6 609.12 
" clip-path="url(#p4df719b8f5)" style="fill: none; stroke: #ff0000; stroke-linecap: square"/>
   </g>
   <g id="line2d_91">
    <defs>
     <path id="m30e4072e66" d="M 0 5 
C 1.326016 5 2.597899 4.473168 3.535534 3.535534 
C 4.473168 2.597899 5 1.326016 5 0 
C 5 -1.326016 4.473168 -2.597899 3.535534 -3.535534 
C 2.597899 -4.473168 1.326016 -5 0 -5 
C -1.326016 -5 -2.597899 -4.473168 -3.535534 -3.535534 
C -4.473168 -2.597899 -5 -1.326016 -5 0 
C -5 1.326016 -4.473168 2.597899 -3.535534 3.535534 
C -2.597899 4.473168 -1.326016 5 0 5 
z
" style="stroke: #bfbfbf"/>
    </defs>
    <g>
     <use xlink:href="#m30e4072e66" x="295.2" y="622.08" style="fill: #ffffff; stroke: #bfbfbf"/>
    </g>
   </g>
   <g id="text_25">
    <!-- #Sweep -->
    <g transform="translate(138.622875 625.39125) scale(0.12 -0.12)">
     <defs>
      <path id="DejaVuSans-23" d="M 3272 2816 
L 2363 2816 
L 2100 1772 
L 3016 1772 
L 3272 2816 
z
M 2803 4594 
L 2478 3297 
L 3391 3297 
L 3719 4594 
L 4219 4594 
L 3897 3297 
L 4872 3297 
L 4872 2816 
L 3775 2816 
L 3519 1772 
L 4513 1772 
L 4513 1294 
L 3397 1294 
L 3072 0 
L 2572 0 
L 2894 1294 
L 1978 1294 
L 1656 0 
L 1153 0 
L 1478 1294 
L 494 1294 
L 494 1772 
L 1594 1772 
L 1856 2816 
L 850 2816 
L 850 3297 
L 1978 3297 
L 2297 4594 
L 2803 4594 
z
" transform="scale(0.015625)"/>
      <path id="DejaVuSans-77" d="M 269 3500 
L 844 3500 
L 1563 769 
L 2278 3500 
L 2956 3500 
L 3675 769 
L 4391 3500 
L 4966 3500 
L 4050 0 
L 3372 0 
L 2619 2869 
L 1863 0 
L 1184 0 
L 269 3500 
z
" transform="scale(0.015625)"/>
      <path id="DejaVuSans-70" d="M 1159 525 
L 1159 -1331 
L 581 -1331 
L 581 3500 
L 1159 3500 
L 1159 2969 
Q 1341 3281 1617 3432 
Q 1894 3584 2278 3584 
Q 2916 3584 3314 3078 
Q 3713 2572 3713 1747 
Q 3713 922 3314 415 
Q 2916 -91 2278 -91 
Q 1894 -91 1617 61 
Q 1341 213 1159 525 
z
M 3116 1747 
Q 3116 2381 2855 2742 
Q 2594 3103 2138 3103 
Q 1681 3103 1420 2742 
Q 1159 2381 1159 1747 
Q 1159 1113 1420 752 
Q 1681 391 2138 391 
Q 2594 391 2855 752 
Q 3116 1113 3116 1747 
z
" transform="scale(0.015625)"/>
     </defs>
     <use xlink:href="#DejaVuSans-23"/>
     <use xlink:href="#DejaVuSans-53" x="83.789062"/>
     <use xlink:href="#DejaVuSans-77" x="147.265625"/>
     <use xlink:href="#DejaVuSans-65" x="229.052734"/>
     <use xlink:href="#DejaVuSans-65" x="290.576172"/>
     <use xlink:href="#DejaVuSans-70" x="352.099609"/>
    </g>
   </g>
   <g id="text_26">
    <!-- $\mathdefault{20}$ -->
    <g transform="translate(869.904 625.39125) scale(0.12 -0.12)">
     <use xlink:href="#DejaVuSans-32" transform="translate(0 0.78125)"/>
     <use xlink:href="#DejaVuSans-30" transform="translate(63.623047 0.78125)"/>
    </g>
   </g>
  </g>
  <g id="text_27">
   <!-- DFF under BBI sweep analysis (Sweep = 30E-9) -->
   <g transform="translate(313.34625 25.1175) scale(0.16 -0.16)">
    <defs>
     <path id="DejaVuSans-75" d="M 544 1381 
L 544 3500 
L 1119 3500 
L 1119 1403 
Q 1119 906 1312 657 
Q 1506 409 1894 409 
Q 2359 409 2629 706 
Q 2900 1003 2900 1516 
L 2900 3500 
L 3475 3500 
L 3475 0 
L 2900 0 
L 2900 538 
Q 2691 219 2414 64 
Q 2138 -91 1772 -91 
Q 1169 -91 856 284 
Q 544 659 544 1381 
z
M 1991 3584 
L 1991 3584 
z
" transform="scale(0.015625)"/>
     <path id="DejaVuSans-64" d="M 2906 2969 
L 2906 4863 
L 3481 4863 
L 3481 0 
L 2906 0 
L 2906 525 
Q 2725 213 2448 61 
Q 2172 -91 1784 -91 
Q 1150 -91 751 415 
Q 353 922 353 1747 
Q 353 2572 751 3078 
Q 1150 3584 1784 3584 
Q 2172 3584 2448 3432 
Q 2725 3281 2906 2969 
z
M 947 1747 
Q 947 1113 1208 752 
Q 1469 391 1925 391 
Q 2381 391 2643 752 
Q 2906 1113 2906 1747 
Q 2906 2381 2643 2742 
Q 2381 3103 1925 3103 
Q 1469 3103 1208 2742 
Q 947 2381 947 1747 
z
" transform="scale(0.015625)"/>
     <path id="DejaVuSans-72" d="M 2631 2963 
Q 2534 3019 2420 3045 
Q 2306 3072 2169 3072 
Q 1681 3072 1420 2755 
Q 1159 2438 1159 1844 
L 1159 0 
L 581 0 
L 581 3500 
L 1159 3500 
L 1159 2956 
Q 1341 3275 1631 3429 
Q 1922 3584 2338 3584 
Q 2397 3584 2469 3576 
Q 2541 3569 2628 3553 
L 2631 2963 
z
" transform="scale(0.015625)"/>
     <path id="DejaVuSans-61" d="M 2194 1759 
Q 1497 1759 1228 1600 
Q 959 1441 959 1056 
Q 959 750 1161 570 
Q 1363 391 1709 391 
Q 2188 391 2477 730 
Q 2766 1069 2766 1631 
L 2766 1759 
L 2194 1759 
z
M 3341 1997 
L 3341 0 
L 2766 0 
L 2766 531 
Q 2569 213 2275 61 
Q 1981 -91 1556 -91 
Q 1019 -91 701 211 
Q 384 513 384 1019 
Q 384 1609 779 1909 
Q 1175 2209 1959 2209 
L 2766 2209 
L 2766 2266 
Q 2766 2663 2505 2880 
Q 2244 3097 1772 3097 
Q 1472 3097 1187 3025 
Q 903 2953 641 2809 
L 641 3341 
Q 956 3463 1253 3523 
Q 1550 3584 1831 3584 
Q 2591 3584 2966 3190 
Q 3341 2797 3341 1997 
z
" transform="scale(0.015625)"/>
     <path id="DejaVuSans-6c" d="M 603 4863 
L 1178 4863 
L 1178 0 
L 603 0 
L 603 4863 
z
" transform="scale(0.015625)"/>
     <path id="DejaVuSans-79" d="M 2059 -325 
Q 1816 -950 1584 -1140 
Q 1353 -1331 966 -1331 
L 506 -1331 
L 506 -850 
L 844 -850 
Q 1081 -850 1212 -737 
Q 1344 -625 1503 -206 
L 1606 56 
L 191 3500 
L 800 3500 
L 1894 763 
L 2988 3500 
L 3597 3500 
L 2059 -325 
z
" transform="scale(0.015625)"/>
     <path id="DejaVuSans-28" d="M 1984 4856 
Q 1566 4138 1362 3434 
Q 1159 2731 1159 2009 
Q 1159 1288 1364 580 
Q 1569 -128 1984 -844 
L 1484 -844 
Q 1016 -109 783 600 
Q 550 1309 550 2009 
Q 550 2706 781 3412 
Q 1013 4119 1484 4856 
L 1984 4856 
z
" transform="scale(0.015625)"/>
     <path id="DejaVuSans-3d" d="M 678 2906 
L 4684 2906 
L 4684 2381 
L 678 2381 
L 678 2906 
z
M 678 1631 
L 4684 1631 
L 4684 1100 
L 678 1100 
L 678 1631 
z
" transform="scale(0.015625)"/>
     <path id="DejaVuSans-33" d="M 2597 2516 
Q 3050 2419 3304 2112 
Q 3559 1806 3559 1356 
Q 3559 666 3084 287 
Q 2609 -91 1734 -91 
Q 1441 -91 1130 -33 
Q 819 25 488 141 
L 488 750 
Q 750 597 1062 519 
Q 1375 441 1716 441 
Q 2309 441 2620 675 
Q 2931 909 2931 1356 
Q 2931 1769 2642 2001 
Q 2353 2234 1838 2234 
L 1294 2234 
L 1294 2753 
L 1863 2753 
Q 2328 2753 2575 2939 
Q 2822 3125 2822 3475 
Q 2822 3834 2567 4026 
Q 2313 4219 1838 4219 
Q 1578 4219 1281 4162 
Q 984 4106 628 3988 
L 628 4550 
Q 988 4650 1302 4700 
Q 1616 4750 1894 4750 
Q 2613 4750 3031 4423 
Q 3450 4097 3450 3541 
Q 3450 3153 3228 2886 
Q 3006 2619 2597 2516 
z
" transform="scale(0.015625)"/>
     <path id="DejaVuSans-2d" d="M 313 2009 
L 1997 2009 
L 1997 1497 
L 313 1497 
L 313 2009 
z
" transform="scale(0.015625)"/>
     <path id="DejaVuSans-39" d="M 703 97 
L 703 672 
Q 941 559 1184 500 
Q 1428 441 1663 441 
Q 2288 441 2617 861 
Q 2947 1281 2994 2138 
Q 2813 1869 2534 1725 
Q 2256 1581 1919 1581 
Q 1219 1581 811 2004 
Q 403 2428 403 3163 
Q 403 3881 828 4315 
Q 1253 4750 1959 4750 
Q 2769 4750 3195 4129 
Q 3622 3509 3622 2328 
Q 3622 1225 3098 567 
Q 2575 -91 1691 -91 
Q 1453 -91 1209 -44 
Q 966 3 703 97 
z
M 1959 2075 
Q 2384 2075 2632 2365 
Q 2881 2656 2881 3163 
Q 2881 3666 2632 3958 
Q 2384 4250 1959 4250 
Q 1534 4250 1286 3958 
Q 1038 3666 1038 3163 
Q 1038 2656 1286 2365 
Q 1534 2075 1959 2075 
z
" transform="scale(0.015625)"/>
     <path id="DejaVuSans-29" d="M 513 4856 
L 1013 4856 
Q 1481 4119 1714 3412 
Q 1947 2706 1947 2009 
Q 1947 1309 1714 600 
Q 1481 -109 1013 -844 
L 513 -844 
Q 928 -128 1133 580 
Q 1338 1288 1338 2009 
Q 1338 2731 1133 3434 
Q 928 4138 513 4856 
z
" transform="scale(0.015625)"/>
    </defs>
    <use xlink:href="#DejaVuSans-44"/>
    <use xlink:href="#DejaVuSans-46" x="77.001953"/>
    <use xlink:href="#DejaVuSans-46" x="134.521484"/>
    <use xlink:href="#DejaVuSans-20" x="192.041016"/>
    <use xlink:href="#DejaVuSans-75" x="223.828125"/>
    <use xlink:href="#DejaVuSans-6e" x="287.207031"/>
    <use xlink:href="#DejaVuSans-64" x="350.585938"/>
    <use xlink:href="#DejaVuSans-65" x="414.0625"/>
    <use xlink:href="#DejaVuSans-72" x="475.585938"/>
    <use xlink:href="#DejaVuSans-20" x="516.699219"/>
    <use xlink:href="#DejaVuSans-42" x="548.486328"/>
    <use xlink:href="#DejaVuSans-42" x="617.089844"/>
    <use xlink:href="#DejaVuSans-49" x="685.693359"/>
    <use xlink:href="#DejaVuSans-20" x="715.185547"/>
    <use xlink:href="#DejaVuSans-73" x="746.972656"/>
    <use xlink:href="#DejaVuSans-77" x="799.072266"/>
    <use xlink:href="#DejaVuSans-65" x="880.859375"/>
    <use xlink:href="#DejaVuSans-65" x="942.382812"/>
    <use xlink:href="#DejaVuSans-70" x="1003.90625"/>
    <use xlink:href="#DejaVuSans-20" x="1067.382812"/>
    <use xlink:href="#DejaVuSans-61" x="1099.169922"/>
    <use xlink:href="#DejaVuSans-6e" x="1160.449219"/>
    <use xlink:href="#DejaVuSans-61" x="1223.828125"/>
    <use xlink:href="#DejaVuSans-6c" x="1285.107422"/>
    <use xlink:href="#DejaVuSans-79" x="1312.890625"/>
    <use xlink:href="#DejaVuSans-73" x="1372.070312"/>
    <use xlink:href="#DejaVuSans-69" x="1424.169922"/>
    <use xlink:href="#DejaVuSans-73" x="1451.953125"/>
    <use xlink:href="#DejaVuSans-20" x="1504.052734"/>
    <use xlink:href="#DejaVuSans-28" x="1535.839844"/>
    <use xlink:href="#DejaVuSans-53" x="1574.853516"/>
    <use xlink:href="#DejaVuSans-77" x="1638.330078"/>
    <use xlink:href="#DejaVuSans-65" x="1720.117188"/>
    <use xlink:href="#DejaVuSans-65" x="1781.640625"/>
    <use xlink:href="#DejaVuSans-70" x="1843.164062"/>
    <use xlink:href="#DejaVuSans-20" x="1906.640625"/>
    <use xlink:href="#DejaVuSans-3d" x="1938.427734"/>
    <use xlink:href="#DejaVuSans-20" x="2022.216797"/>
    <use xlink:href="#DejaVuSans-33" x="2054.003906"/>
    <use xlink:href="#DejaVuSans-30" x="2117.626953"/>
    <use xlink:href="#DejaVuSans-45" x="2181.25"/>
    <use xlink:href="#DejaVuSans-2d" x="2244.433594"/>
    <use xlink:href="#DejaVuSans-39" x="2280.517578"/>
    <use xlink:href="#DejaVuSans-29" x="2344.140625"/>
   </g>
  </g>
 </g>
 <defs>
  <clipPath id="p971207fbbc">
   <rect x="100.8" y="38.88" width="887.04" height="92.731034"/>
  </clipPath>
  <clipPath id="pb25cf53cc8">
   <rect x="100.8" y="150.157241" width="887.04" height="92.731034"/>
  </clipPath>
  <clipPath id="pad9e91adbb">
   <rect x="100.8" y="261.434483" width="887.04" height="92.731034"/>
  </clipPath>
  <clipPath id="p02de346bef">
   <rect x="100.8" y="372.711724" width="887.04" height="92.731034"/>
  </clipPath>
  <clipPath id="p44448f2a10">
   <rect x="100.8" y="483.988966" width="887.04" height="92.731034"/>
  </clipPath>
  <clipPath id="p1a0a30a79f">
   <rect x="201.6" y="609.12" width="655.2" height="25.92"/>
  </clipPath>
  <clipPath id="p4df719b8f5">
   <path d="M 201.6 628.56 
L 856.8 628.56 
L 856.8 615.6 
L 201.6 615.6 
z
"/>
  </clipPath>
 </defs>
</svg>
