<?xml version="1.0" encoding="utf-8" standalone="no"?>
<!DOCTYPE svg PUBLIC "-//W3C//DTD SVG 1.1//EN"
  "http://www.w3.org/Graphics/SVG/1.1/DTD/svg11.dtd">
<svg xmlns:xlink="http://www.w3.org/1999/xlink" width="1008pt" height="648pt" viewBox="0 0 1008 648" xmlns="http://www.w3.org/2000/svg" version="1.1">
 <metadata>
  <rdf:RDF xmlns:dc="http://purl.org/dc/elements/1.1/" xmlns:cc="http://creativecommons.org/ns#" xmlns:rdf="http://www.w3.org/1999/02/22-rdf-syntax-ns#">
   <cc:Work>
    <dc:type rdf:resource="http://purl.org/dc/dcmitype/StillImage"/>
    <dc:date>2024-06-03T10:45:39.966269</dc:date>
    <dc:format>image/svg+xml</dc:format>
    <dc:creator>
     <cc:Agent>
      <dc:title>Matplotlib v3.9.0, https://matplotlib.org/</dc:title>
     </cc:Agent>
    </dc:creator>
   </cc:Work>
  </rdf:RDF>
 </metadata>
 <defs>
  <style type="text/css">*{stroke-linejoin: round; stroke-linecap: butt}</style>
 </defs>
 <g id="figure_1">
  <g id="patch_1">
   <path d="M 0 648 
L 1008 648 
L 1008 0 
L 0 0 
z
" style="fill: #ffffff"/>
  </g>
  <g id="axes_1">
   <g id="patch_2">
    <path d="M 100.8 131.611034 
L 987.84 131.611034 
L 987.84 38.88 
L 100.8 38.88 
z
" style="fill: #eeeeee"/>
   </g>
   <g id="matplotlib.axis_1">
    <g id="xtick_1">
     <g id="line2d_1">
      <path d="M 141.12 131.611034 
L 141.12 38.88 
" clip-path="url(#p4ac1272f01)" style="fill: none; stroke-dasharray: 1.85,0.8; stroke-dashoffset: 0; stroke: #b2b2b2; stroke-width: 0.5"/>
     </g>
     <g id="line2d_2">
      <defs>
       <path id="m066db23431" d="M 0 0 
L 0 -3.5 
" style="stroke: #000000; stroke-width: 0.8"/>
      </defs>
      <g>
       <use xlink:href="#m066db23431" x="141.12" y="131.611034" style="stroke: #000000; stroke-width: 0.8"/>
      </g>
     </g>
    </g>
    <g id="xtick_2">
     <g id="line2d_3">
      <path d="M 302.4 131.611034 
L 302.4 38.88 
" clip-path="url(#p4ac1272f01)" style="fill: none; stroke-dasharray: 1.85,0.8; stroke-dashoffset: 0; stroke: #b2b2b2; stroke-width: 0.5"/>
     </g>
     <g id="line2d_4">
      <g>
       <use xlink:href="#m066db23431" x="302.4" y="131.611034" style="stroke: #000000; stroke-width: 0.8"/>
      </g>
     </g>
    </g>
    <g id="xtick_3">
     <g id="line2d_5">
      <path d="M 463.68 131.611034 
L 463.68 38.88 
" clip-path="url(#p4ac1272f01)" style="fill: none; stroke-dasharray: 1.85,0.8; stroke-dashoffset: 0; stroke: #b2b2b2; stroke-width: 0.5"/>
     </g>
     <g id="line2d_6">
      <g>
       <use xlink:href="#m066db23431" x="463.68" y="131.611034" style="stroke: #000000; stroke-width: 0.8"/>
      </g>
     </g>
    </g>
    <g id="xtick_4">
     <g id="line2d_7">
      <path d="M 624.96 131.611034 
L 624.96 38.88 
" clip-path="url(#p4ac1272f01)" style="fill: none; stroke-dasharray: 1.85,0.8; stroke-dashoffset: 0; stroke: #b2b2b2; stroke-width: 0.5"/>
     </g>
     <g id="line2d_8">
      <g>
       <use xlink:href="#m066db23431" x="624.96" y="131.611034" style="stroke: #000000; stroke-width: 0.8"/>
      </g>
     </g>
    </g>
    <g id="xtick_5">
     <g id="line2d_9">
      <path d="M 786.24 131.611034 
L 786.24 38.88 
" clip-path="url(#p4ac1272f01)" style="fill: none; stroke-dasharray: 1.85,0.8; stroke-dashoffset: 0; stroke: #b2b2b2; stroke-width: 0.5"/>
     </g>
     <g id="line2d_10">
      <g>
       <use xlink:href="#m066db23431" x="786.24" y="131.611034" style="stroke: #000000; stroke-width: 0.8"/>
      </g>
     </g>
    </g>
    <g id="xtick_6">
     <g id="line2d_11">
      <path d="M 947.52 131.611034 
L 947.52 38.88 
" clip-path="url(#p4ac1272f01)" style="fill: none; stroke-dasharray: 1.85,0.8; stroke-dashoffset: 0; stroke: #b2b2b2; stroke-width: 0.5"/>
     </g>
     <g id="line2d_12">
      <g>
       <use xlink:href="#m066db23431" x="947.52" y="131.611034" style="stroke: #000000; stroke-width: 0.8"/>
      </g>
     </g>
    </g>
   </g>
   <g id="matplotlib.axis_2">
    <g id="ytick_1">
     <g id="line2d_13">
      <path d="M 100.8 98.340394 
L 987.84 98.340394 
" clip-path="url(#p4ac1272f01)" style="fill: none; stroke-dasharray: 1.85,0.8; stroke-dashoffset: 0; stroke: #b2b2b2; stroke-width: 0.5"/>
     </g>
     <g id="line2d_14">
      <defs>
       <path id="mb8c9206757" d="M 0 0 
L 3.5 0 
" style="stroke: #000000; stroke-width: 0.8"/>
      </defs>
      <g>
       <use xlink:href="#mb8c9206757" x="100.8" y="98.340394" style="stroke: #000000; stroke-width: 0.8"/>
      </g>
     </g>
     <g id="text_1">
      <!-- −200 V -->
      <g transform="translate(44.819688 103.6593) scale(0.14 -0.14)">
       <defs>
        <path id="DejaVuSans-2212" d="M 678 2272 
L 4684 2272 
L 4684 1741 
L 678 1741 
L 678 2272 
z
" transform="scale(0.015625)"/>
        <path id="DejaVuSans-32" d="M 1228 531 
L 3431 531 
L 3431 0 
L 469 0 
L 469 531 
Q 828 903 1448 1529 
Q 2069 2156 2228 2338 
Q 2531 2678 2651 2914 
Q 2772 3150 2772 3378 
Q 2772 3750 2511 3984 
Q 2250 4219 1831 4219 
Q 1534 4219 1204 4116 
Q 875 4013 500 3803 
L 500 4441 
Q 881 4594 1212 4672 
Q 1544 4750 1819 4750 
Q 2544 4750 2975 4387 
Q 3406 4025 3406 3419 
Q 3406 3131 3298 2873 
Q 3191 2616 2906 2266 
Q 2828 2175 2409 1742 
Q 1991 1309 1228 531 
z
" transform="scale(0.015625)"/>
        <path id="DejaVuSans-30" d="M 2034 4250 
Q 1547 4250 1301 3770 
Q 1056 3291 1056 2328 
Q 1056 1369 1301 889 
Q 1547 409 2034 409 
Q 2525 409 2770 889 
Q 3016 1369 3016 2328 
Q 3016 3291 2770 3770 
Q 2525 4250 2034 4250 
z
M 2034 4750 
Q 2819 4750 3233 4129 
Q 3647 3509 3647 2328 
Q 3647 1150 3233 529 
Q 2819 -91 2034 -91 
Q 1250 -91 836 529 
Q 422 1150 422 2328 
Q 422 3509 836 4129 
Q 1250 4750 2034 4750 
z
" transform="scale(0.015625)"/>
        <path id="DejaVuSans-20" transform="scale(0.015625)"/>
        <path id="DejaVuSans-56" d="M 1831 0 
L 50 4666 
L 709 4666 
L 2188 738 
L 3669 4666 
L 4325 4666 
L 2547 0 
L 1831 0 
z
" transform="scale(0.015625)"/>
       </defs>
       <use xlink:href="#DejaVuSans-2212"/>
       <use xlink:href="#DejaVuSans-32" x="83.789062"/>
       <use xlink:href="#DejaVuSans-30" x="147.412109"/>
       <use xlink:href="#DejaVuSans-30" x="211.035156"/>
       <use xlink:href="#DejaVuSans-20" x="274.658203"/>
       <use xlink:href="#DejaVuSans-56" x="306.445312"/>
      </g>
     </g>
    </g>
    <g id="ytick_2">
     <g id="line2d_15">
      <path d="M 100.8 45.027377 
L 987.84 45.027377 
" clip-path="url(#p4ac1272f01)" style="fill: none; stroke-dasharray: 1.85,0.8; stroke-dashoffset: 0; stroke: #b2b2b2; stroke-width: 0.5"/>
     </g>
     <g id="line2d_16">
      <g>
       <use xlink:href="#mb8c9206757" x="100.8" y="45.027377" style="stroke: #000000; stroke-width: 0.8"/>
      </g>
     </g>
     <g id="text_2">
      <!-- 0 V -->
      <g transform="translate(74.36625 50.346284) scale(0.14 -0.14)">
       <use xlink:href="#DejaVuSans-30"/>
       <use xlink:href="#DejaVuSans-20" x="63.623047"/>
       <use xlink:href="#DejaVuSans-56" x="95.410156"/>
      </g>
     </g>
    </g>
    <g id="text_3">
     <g id="patch_3">
      <path d="M 34.8768 131.080205 
L 34.8768 39.41083 
L 11.247425 39.41083 
L 11.247425 131.080205 
z
" style="fill: #ffff00; opacity: 0.2; stroke: #eeeeee; stroke-width: 0.5; stroke-linejoin: miter"/>
     </g>
     <!-- VPULSE BBI -->
     <g transform="translate(26.925238 126.040205) rotate(-90) scale(0.14 -0.14)">
      <defs>
       <path id="DejaVuSans-50" d="M 1259 4147 
L 1259 2394 
L 2053 2394 
Q 2494 2394 2734 2622 
Q 2975 2850 2975 3272 
Q 2975 3691 2734 3919 
Q 2494 4147 2053 4147 
L 1259 4147 
z
M 628 4666 
L 2053 4666 
Q 2838 4666 3239 4311 
Q 3641 3956 3641 3272 
Q 3641 2581 3239 2228 
Q 2838 1875 2053 1875 
L 1259 1875 
L 1259 0 
L 628 0 
L 628 4666 
z
" transform="scale(0.015625)"/>
       <path id="DejaVuSans-55" d="M 556 4666 
L 1191 4666 
L 1191 1831 
Q 1191 1081 1462 751 
Q 1734 422 2344 422 
Q 2950 422 3222 751 
Q 3494 1081 3494 1831 
L 3494 4666 
L 4128 4666 
L 4128 1753 
Q 4128 841 3676 375 
Q 3225 -91 2344 -91 
Q 1459 -91 1007 375 
Q 556 841 556 1753 
L 556 4666 
z
" transform="scale(0.015625)"/>
       <path id="DejaVuSans-4c" d="M 628 4666 
L 1259 4666 
L 1259 531 
L 3531 531 
L 3531 0 
L 628 0 
L 628 4666 
z
" transform="scale(0.015625)"/>
       <path id="DejaVuSans-53" d="M 3425 4513 
L 3425 3897 
Q 3066 4069 2747 4153 
Q 2428 4238 2131 4238 
Q 1616 4238 1336 4038 
Q 1056 3838 1056 3469 
Q 1056 3159 1242 3001 
Q 1428 2844 1947 2747 
L 2328 2669 
Q 3034 2534 3370 2195 
Q 3706 1856 3706 1288 
Q 3706 609 3251 259 
Q 2797 -91 1919 -91 
Q 1588 -91 1214 -16 
Q 841 59 441 206 
L 441 856 
Q 825 641 1194 531 
Q 1563 422 1919 422 
Q 2459 422 2753 634 
Q 3047 847 3047 1241 
Q 3047 1584 2836 1778 
Q 2625 1972 2144 2069 
L 1759 2144 
Q 1053 2284 737 2584 
Q 422 2884 422 3419 
Q 422 4038 858 4394 
Q 1294 4750 2059 4750 
Q 2388 4750 2728 4690 
Q 3069 4631 3425 4513 
z
" transform="scale(0.015625)"/>
       <path id="DejaVuSans-45" d="M 628 4666 
L 3578 4666 
L 3578 4134 
L 1259 4134 
L 1259 2753 
L 3481 2753 
L 3481 2222 
L 1259 2222 
L 1259 531 
L 3634 531 
L 3634 0 
L 628 0 
L 628 4666 
z
" transform="scale(0.015625)"/>
       <path id="DejaVuSans-42" d="M 1259 2228 
L 1259 519 
L 2272 519 
Q 2781 519 3026 730 
Q 3272 941 3272 1375 
Q 3272 1813 3026 2020 
Q 2781 2228 2272 2228 
L 1259 2228 
z
M 1259 4147 
L 1259 2741 
L 2194 2741 
Q 2656 2741 2882 2914 
Q 3109 3088 3109 3444 
Q 3109 3797 2882 3972 
Q 2656 4147 2194 4147 
L 1259 4147 
z
M 628 4666 
L 2241 4666 
Q 2963 4666 3353 4366 
Q 3744 4066 3744 3513 
Q 3744 3084 3544 2831 
Q 3344 2578 2956 2516 
Q 3422 2416 3680 2098 
Q 3938 1781 3938 1306 
Q 3938 681 3513 340 
Q 3088 0 2303 0 
L 628 0 
L 628 4666 
z
" transform="scale(0.015625)"/>
       <path id="DejaVuSans-49" d="M 628 4666 
L 1259 4666 
L 1259 0 
L 628 0 
L 628 4666 
z
" transform="scale(0.015625)"/>
      </defs>
      <use xlink:href="#DejaVuSans-56"/>
      <use xlink:href="#DejaVuSans-50" x="68.408203"/>
      <use xlink:href="#DejaVuSans-55" x="128.710938"/>
      <use xlink:href="#DejaVuSans-4c" x="201.904297"/>
      <use xlink:href="#DejaVuSans-53" x="257.617188"/>
      <use xlink:href="#DejaVuSans-45" x="321.09375"/>
      <use xlink:href="#DejaVuSans-20" x="384.277344"/>
      <use xlink:href="#DejaVuSans-42" x="416.064453"/>
      <use xlink:href="#DejaVuSans-42" x="484.667969"/>
      <use xlink:href="#DejaVuSans-49" x="553.271484"/>
     </g>
    </g>
   </g>
   <g id="line2d_17">
    <path d="M 141.12 45.027377 
L 350.816256 45.136282 
L 351.300096 46.425538 
L 359.525376 69.006772 
L 366.944256 89.863624 
L 368.557056 94.440546 
L 370.363392 99.673219 
L 373.84704 110.807642 
L 375.427584 115.853719 
L 376.685568 119.566971 
L 377.911296 120.153414 
L 378.749952 120.545265 
L 379.782144 121.017085 
L 380.362752 121.272988 
L 381.233664 121.656841 
L 381.814272 121.912744 
L 382.652928 122.269941 
L 384.233472 122.936354 
L 384.878592 123.202919 
L 385.975296 123.629423 
L 386.717184 123.922644 
L 387.813888 124.349149 
L 388.717056 124.677024 
L 389.394432 124.943589 
L 390.200832 125.25547 
L 391.555584 125.804594 
L 394.200576 126.790885 
L 394.81344 127.022796 
L 396.7488 127.395987 
L 415.231488 127.289361 
L 415.45728 126.801547 
L 433.746432 75.087922 
L 437.488128 63.292417 
L 441.197568 51.617666 
L 445.810176 49.3412 
L 451.164672 46.984578 
L 459.873792 43.484472 
L 460.744704 43.268927 
L 475.034112 43.108189 
L 481.840128 43.184799 
L 497.193984 43.746186 
L 524.9664 44.46146 
L 550.60992 44.774399 
L 586.220544 44.945888 
L 634.249728 44.953885 
L 947.52 44.953885 
L 947.52 44.953885 
" clip-path="url(#p4ac1272f01)" style="fill: none; stroke: #ff0000; stroke-width: 2; stroke-linecap: square"/>
   </g>
   <g id="patch_4">
    <path d="M 100.8 131.611034 
L 100.8 38.88 
" style="fill: none; stroke: #bcbcbc; stroke-width: 0.8; stroke-linejoin: miter; stroke-linecap: square"/>
   </g>
   <g id="patch_5">
    <path d="M 987.84 131.611034 
L 987.84 38.88 
" style="fill: none; stroke: #bcbcbc; stroke-width: 0.8; stroke-linejoin: miter; stroke-linecap: square"/>
   </g>
   <g id="patch_6">
    <path d="M 100.8 131.611034 
L 987.84 131.611034 
" style="fill: none; stroke: #bcbcbc; stroke-width: 0.8; stroke-linejoin: miter; stroke-linecap: square"/>
   </g>
   <g id="patch_7">
    <path d="M 100.8 38.88 
L 987.84 38.88 
" style="fill: none; stroke: #bcbcbc; stroke-width: 0.8; stroke-linejoin: miter; stroke-linecap: square"/>
   </g>
  </g>
  <g id="axes_2">
   <g id="patch_8">
    <path d="M 100.8 242.888276 
L 987.84 242.888276 
L 987.84 150.157241 
L 100.8 150.157241 
z
" style="fill: #eeeeee"/>
   </g>
   <g id="matplotlib.axis_3">
    <g id="xtick_7">
     <g id="line2d_18">
      <path d="M 141.12 242.888276 
L 141.12 150.157241 
" clip-path="url(#p413826eecd)" style="fill: none; stroke-dasharray: 1.85,0.8; stroke-dashoffset: 0; stroke: #b2b2b2; stroke-width: 0.5"/>
     </g>
     <g id="line2d_19">
      <g>
       <use xlink:href="#m066db23431" x="141.12" y="242.888276" style="stroke: #000000; stroke-width: 0.8"/>
      </g>
     </g>
    </g>
    <g id="xtick_8">
     <g id="line2d_20">
      <path d="M 302.4 242.888276 
L 302.4 150.157241 
" clip-path="url(#p413826eecd)" style="fill: none; stroke-dasharray: 1.85,0.8; stroke-dashoffset: 0; stroke: #b2b2b2; stroke-width: 0.5"/>
     </g>
     <g id="line2d_21">
      <g>
       <use xlink:href="#m066db23431" x="302.4" y="242.888276" style="stroke: #000000; stroke-width: 0.8"/>
      </g>
     </g>
    </g>
    <g id="xtick_9">
     <g id="line2d_22">
      <path d="M 463.68 242.888276 
L 463.68 150.157241 
" clip-path="url(#p413826eecd)" style="fill: none; stroke-dasharray: 1.85,0.8; stroke-dashoffset: 0; stroke: #b2b2b2; stroke-width: 0.5"/>
     </g>
     <g id="line2d_23">
      <g>
       <use xlink:href="#m066db23431" x="463.68" y="242.888276" style="stroke: #000000; stroke-width: 0.8"/>
      </g>
     </g>
    </g>
    <g id="xtick_10">
     <g id="line2d_24">
      <path d="M 624.96 242.888276 
L 624.96 150.157241 
" clip-path="url(#p413826eecd)" style="fill: none; stroke-dasharray: 1.85,0.8; stroke-dashoffset: 0; stroke: #b2b2b2; stroke-width: 0.5"/>
     </g>
     <g id="line2d_25">
      <g>
       <use xlink:href="#m066db23431" x="624.96" y="242.888276" style="stroke: #000000; stroke-width: 0.8"/>
      </g>
     </g>
    </g>
    <g id="xtick_11">
     <g id="line2d_26">
      <path d="M 786.24 242.888276 
L 786.24 150.157241 
" clip-path="url(#p413826eecd)" style="fill: none; stroke-dasharray: 1.85,0.8; stroke-dashoffset: 0; stroke: #b2b2b2; stroke-width: 0.5"/>
     </g>
     <g id="line2d_27">
      <g>
       <use xlink:href="#m066db23431" x="786.24" y="242.888276" style="stroke: #000000; stroke-width: 0.8"/>
      </g>
     </g>
    </g>
    <g id="xtick_12">
     <g id="line2d_28">
      <path d="M 947.52 242.888276 
L 947.52 150.157241 
" clip-path="url(#p413826eecd)" style="fill: none; stroke-dasharray: 1.85,0.8; stroke-dashoffset: 0; stroke: #b2b2b2; stroke-width: 0.5"/>
     </g>
     <g id="line2d_29">
      <g>
       <use xlink:href="#m066db23431" x="947.52" y="242.888276" style="stroke: #000000; stroke-width: 0.8"/>
      </g>
     </g>
    </g>
   </g>
   <g id="matplotlib.axis_4">
    <g id="ytick_3">
     <g id="line2d_30">
      <path d="M 100.8 219.344416 
L 987.84 219.344416 
" clip-path="url(#p413826eecd)" style="fill: none; stroke-dasharray: 1.85,0.8; stroke-dashoffset: 0; stroke: #b2b2b2; stroke-width: 0.5"/>
     </g>
     <g id="line2d_31">
      <g>
       <use xlink:href="#mb8c9206757" x="100.8" y="219.344416" style="stroke: #000000; stroke-width: 0.8"/>
      </g>
     </g>
     <g id="text_4">
      <!-- 0 V -->
      <g transform="translate(74.36625 224.663322) scale(0.14 -0.14)">
       <use xlink:href="#DejaVuSans-30"/>
       <use xlink:href="#DejaVuSans-20" x="63.623047"/>
       <use xlink:href="#DejaVuSans-56" x="95.410156"/>
      </g>
     </g>
    </g>
    <g id="ytick_4">
     <g id="line2d_32">
      <path d="M 100.8 185.772294 
L 987.84 185.772294 
" clip-path="url(#p413826eecd)" style="fill: none; stroke-dasharray: 1.85,0.8; stroke-dashoffset: 0; stroke: #b2b2b2; stroke-width: 0.5"/>
     </g>
     <g id="line2d_33">
      <g>
       <use xlink:href="#mb8c9206757" x="100.8" y="185.772294" style="stroke: #000000; stroke-width: 0.8"/>
      </g>
     </g>
     <g id="text_5">
      <!-- 1 V -->
      <g transform="translate(74.36625 191.0912) scale(0.14 -0.14)">
       <defs>
        <path id="DejaVuSans-31" d="M 794 531 
L 1825 531 
L 1825 4091 
L 703 3866 
L 703 4441 
L 1819 4666 
L 2450 4666 
L 2450 531 
L 3481 531 
L 3481 0 
L 794 0 
L 794 531 
z
" transform="scale(0.015625)"/>
       </defs>
       <use xlink:href="#DejaVuSans-31"/>
       <use xlink:href="#DejaVuSans-20" x="63.623047"/>
       <use xlink:href="#DejaVuSans-56" x="95.410156"/>
      </g>
     </g>
    </g>
    <g id="ytick_5">
     <g id="line2d_34">
      <path d="M 100.8 152.200172 
L 987.84 152.200172 
" clip-path="url(#p413826eecd)" style="fill: none; stroke-dasharray: 1.85,0.8; stroke-dashoffset: 0; stroke: #b2b2b2; stroke-width: 0.5"/>
     </g>
     <g id="line2d_35">
      <g>
       <use xlink:href="#mb8c9206757" x="100.8" y="152.200172" style="stroke: #000000; stroke-width: 0.8"/>
      </g>
     </g>
     <g id="text_6">
      <!-- 2 V -->
      <g transform="translate(74.36625 157.519078) scale(0.14 -0.14)">
       <use xlink:href="#DejaVuSans-32"/>
       <use xlink:href="#DejaVuSans-20" x="63.623047"/>
       <use xlink:href="#DejaVuSans-56" x="95.410156"/>
      </g>
     </g>
    </g>
    <g id="text_7">
     <g id="patch_9">
      <path d="M 34.8768 224.531509 
L 34.8768 168.514009 
L 11.247425 168.514009 
L 11.247425 224.531509 
z
" style="fill: #ffff00; opacity: 0.2; stroke: #eeeeee; stroke-width: 0.5; stroke-linejoin: miter"/>
     </g>
     <!-- DFF IN -->
     <g transform="translate(26.925238 219.491509) rotate(-90) scale(0.14 -0.14)">
      <defs>
       <path id="DejaVuSans-44" d="M 1259 4147 
L 1259 519 
L 2022 519 
Q 2988 519 3436 956 
Q 3884 1394 3884 2338 
Q 3884 3275 3436 3711 
Q 2988 4147 2022 4147 
L 1259 4147 
z
M 628 4666 
L 1925 4666 
Q 3281 4666 3915 4102 
Q 4550 3538 4550 2338 
Q 4550 1131 3912 565 
Q 3275 0 1925 0 
L 628 0 
L 628 4666 
z
" transform="scale(0.015625)"/>
       <path id="DejaVuSans-46" d="M 628 4666 
L 3309 4666 
L 3309 4134 
L 1259 4134 
L 1259 2759 
L 3109 2759 
L 3109 2228 
L 1259 2228 
L 1259 0 
L 628 0 
L 628 4666 
z
" transform="scale(0.015625)"/>
       <path id="DejaVuSans-4e" d="M 628 4666 
L 1478 4666 
L 3547 763 
L 3547 4666 
L 4159 4666 
L 4159 0 
L 3309 0 
L 1241 3903 
L 1241 0 
L 628 0 
L 628 4666 
z
" transform="scale(0.015625)"/>
      </defs>
      <use xlink:href="#DejaVuSans-44"/>
      <use xlink:href="#DejaVuSans-46" x="77.001953"/>
      <use xlink:href="#DejaVuSans-46" x="134.521484"/>
      <use xlink:href="#DejaVuSans-20" x="192.041016"/>
      <use xlink:href="#DejaVuSans-49" x="223.828125"/>
      <use xlink:href="#DejaVuSans-4e" x="253.320312"/>
     </g>
    </g>
   </g>
   <g id="line2d_36">
    <path d="M 141.12 219.295387 
L 221.953536 219.249349 
L 224.437248 200.543356 
L 225.404928 194.852881 
L 228.243456 182.341223 
L 229.598208 181.085626 
L 231.178752 180.222822 
L 236.565504 179.772956 
L 243.661824 179.662168 
L 245.1456 179.618524 
L 248.403456 179.507736 
L 250.113024 179.440592 
L 252.177408 179.329804 
L 254.241792 179.004154 
L 254.757888 178.473715 
L 255.499776 178.137993 
L 256.370688 178.158137 
L 257.531904 178.389784 
L 259.98336 178.789293 
L 262.370304 178.926938 
L 263.886336 178.977296 
L 264.144384 184.154118 
L 264.434688 187.676505 
L 265.176576 192.36888 
L 267.144192 209.496369 
L 268.402176 215.927109 
L 269.079552 217.238436 
L 270.46656 218.936716 
L 273.724416 219.346228 
L 282.594816 219.299822 
L 297.110016 219.288605 
L 305.883648 219.294591 
L 347.751936 219.272635 
L 348.332544 214.554009 
L 350.009856 201.987629 
L 351.074304 195.386342 
L 352.07424 190.971944 
L 352.751616 188.847836 
L 353.267712 187.86518 
L 353.68704 187.416992 
L 354.17088 187.239731 
L 354.686976 187.322319 
L 355.29984 187.66979 
L 356.170752 188.452692 
L 357.493248 189.956387 
L 359.847936 192.964114 
L 360.4608 194.086765 
L 360.847872 195.286633 
L 362.331648 200.990201 
L 363.04128 203.914668 
L 363.654144 206.339918 
L 364.557312 210.307808 
L 365.815296 215.038119 
L 366.912 218.780102 
L 367.137792 219.568076 
L 367.589376 221.043165 
L 367.750656 221.459828 
L 368.234496 223.190773 
L 368.492544 223.578196 
L 368.68608 223.946482 
L 369.040896 225.008032 
L 369.556992 226.055483 
L 369.879552 226.390532 
L 370.750464 228.317236 
L 372.137472 230.979506 
L 372.492288 231.464623 
L 372.814848 232.295869 
L 373.169664 232.985104 
L 374.556672 235.429155 
L 376.653312 238.673229 
L 376.975872 238.479518 
L 377.814528 237.297443 
L 378.330624 236.332581 
L 380.588544 233.796542 
L 381.072384 233.450078 
L 381.975552 232.376442 
L 382.265856 231.991705 
L 382.39488 231.989355 
L 382.814208 231.645577 
L 383.072256 231.371628 
L 383.943168 230.853946 
L 384.6528 230.052579 
L 384.878592 229.763859 
L 385.104384 229.635278 
L 385.910784 229.019901 
L 386.233344 228.869162 
L 387.459072 227.838498 
L 387.8784 227.320144 
L 388.136448 227.053246 
L 388.426752 226.768554 
L 389.394432 226.257587 
L 390.652416 225.210808 
L 391.136256 224.506801 
L 391.491072 224.428913 
L 392.007168 224.242252 
L 393.136128 223.422757 
L 396.845568 220.239952 
L 399.038976 217.199728 
L 399.81312 216.112192 
L 403.103232 211.960563 
L 404.135424 210.830861 
L 405.167616 209.640058 
L 405.651456 208.278037 
L 407.425536 203.28452 
L 408.36096 201.382995 
L 411.457536 197.05857 
L 414.00576 194.278127 
L 415.263744 193.069866 
L 415.45728 192.582734 
L 416.26368 189.322546 
L 417.166848 186.169452 
L 418.005504 184.076902 
L 418.811904 182.650086 
L 419.424768 181.988716 
L 420.327936 181.461633 
L 420.9408 181.021839 
L 421.456896 180.5149 
L 423.134208 178.245424 
L 425.972736 174.01198 
L 426.779136 172.836955 
L 427.650048 171.594787 
L 433.327104 164.094775 
L 434.198016 163.030539 
L 435.230208 161.680939 
L 436.197888 160.374984 
L 441.133056 154.372288 
L 442.745856 155.090732 
L 444.132864 155.34588 
L 446.068224 155.859533 
L 449.680896 157.101702 
L 451.551744 157.76643 
L 452.132352 157.99472 
L 453.84192 158.588947 
L 455.712768 159.28389 
L 456.970752 164.668858 
L 457.261056 164.830004 
L 457.583616 164.756146 
L 458.067456 164.276064 
L 459.648 162.473241 
L 460.389888 162.067019 
L 461.454336 162.067019 
L 462.583296 162.295309 
L 470.873088 164.994508 
L 471.808512 165.357087 
L 473.937408 166.129245 
L 474.776064 166.414608 
L 488.420352 170.564123 
L 488.871936 170.674911 
L 489.581568 170.8562 
L 493.549056 171.789505 
L 494.097408 171.90365 
L 496.065024 172.209157 
L 496.516608 171.648502 
L 497.06496 171.433641 
L 497.5488 171.490713 
L 498.064896 171.705575 
L 499.258368 172.319945 
L 500.032512 172.679166 
L 503.67744 173.706473 
L 504.870912 173.941478 
L 505.322496 174.022051 
L 505.999872 174.132839 
L 507.87072 174.434988 
L 508.290048 174.495418 
L 509.902848 174.723709 
L 510.709248 174.831139 
L 512.160768 175.025858 
L 513.063936 175.133288 
L 514.16064 175.254148 
L 514.999296 175.358222 
L 515.386368 175.411937 
L 516.547584 175.522725 
L 517.160448 175.599941 
L 518.19264 175.707372 
L 519.3216 175.814803 
L 519.869952 175.87859 
L 521.031168 175.98602 
L 521.547264 176.039736 
L 522.740736 176.147167 
L 523.256832 176.197525 
L 523.869696 176.244526 
L 524.772864 176.325099 
L 526.159872 176.435887 
L 530.030592 176.727964 
L 531.546624 176.838752 
L 534.385152 177.023399 
L 535.062528 177.063685 
L 536.449536 177.305405 
L 536.90112 177.866059 
L 537.449472 178.184994 
L 538.449408 178.285711 
L 539.030016 178.17828 
L 540.288 177.772057 
L 541.158912 177.614268 
L 543.126528 177.520266 
L 544.32 177.533695 
L 546.868224 177.644483 
L 548.610048 177.714985 
L 549.384192 177.7452 
L 552.093696 177.855988 
L 553.83552 177.926489 
L 557.093376 178.03392 
L 557.803008 178.070849 
L 561.189888 178.174923 
L 561.609216 178.191709 
L 565.802496 178.302497 
L 567.254016 178.342783 
L 572.414976 178.453571 
L 573.737472 178.483786 
L 574.737408 178.490501 
L 576.73728 178.409928 
L 577.350144 177.815701 
L 577.801728 177.620983 
L 578.317824 177.56391 
L 579.543552 177.802272 
L 582.962688 178.403213 
L 584.64 178.514001 
L 586.381824 178.584503 
L 616.992768 178.691933 
L 617.928192 179.517808 
L 618.605568 179.682311 
L 620.863488 179.57488 
L 623.218176 179.195515 
L 628.217856 178.785935 
L 657.312768 178.695291 
L 657.86112 178.087635 
L 658.409472 177.815701 
L 660.344832 177.923132 
L 663.602688 178.490501 
L 665.76384 178.604646 
L 697.632768 178.695291 
L 698.568192 179.521165 
L 699.503616 179.699097 
L 701.632512 179.588309 
L 703.954944 179.215658 
L 709.373952 178.762435 
L 737.952768 178.695291 
L 738.50112 178.087635 
L 739.049472 177.815701 
L 740.984832 177.923132 
L 744.242688 178.490501 
L 746.40384 178.604646 
L 778.272768 178.695291 
L 779.208192 179.521165 
L 780.143616 179.699097 
L 782.240256 179.591666 
L 784.562688 179.219016 
L 790.013952 178.762435 
L 818.592768 178.695291 
L 819.14112 178.087635 
L 819.689472 177.815701 
L 821.624832 177.923132 
L 824.882688 178.490501 
L 827.04384 178.604646 
L 858.912768 178.695291 
L 859.848192 179.521165 
L 860.783616 179.699097 
L 862.073856 179.729312 
L 864.847872 179.262659 
L 870.75072 178.759078 
L 899.265024 178.64829 
L 899.78112 178.087635 
L 900.329472 177.815701 
L 902.264832 177.923132 
L 905.522688 178.490501 
L 907.68384 178.604646 
L 939.552768 178.695291 
L 940.617216 179.55138 
L 941.55264 179.736026 
L 943.455744 179.628596 
L 946.423296 179.121657 
L 947.52 178.950439 
L 947.52 178.950439 
" clip-path="url(#p413826eecd)" style="fill: none; stroke: #008000; stroke-width: 2; stroke-linecap: square"/>
   </g>
   <g id="patch_10">
    <path d="M 100.8 242.888276 
L 100.8 150.157241 
" style="fill: none; stroke: #bcbcbc; stroke-width: 0.8; stroke-linejoin: miter; stroke-linecap: square"/>
   </g>
   <g id="patch_11">
    <path d="M 987.84 242.888276 
L 987.84 150.157241 
" style="fill: none; stroke: #bcbcbc; stroke-width: 0.8; stroke-linejoin: miter; stroke-linecap: square"/>
   </g>
   <g id="patch_12">
    <path d="M 100.8 242.888276 
L 987.84 242.888276 
" style="fill: none; stroke: #bcbcbc; stroke-width: 0.8; stroke-linejoin: miter; stroke-linecap: square"/>
   </g>
   <g id="patch_13">
    <path d="M 100.8 150.157241 
L 987.84 150.157241 
" style="fill: none; stroke: #bcbcbc; stroke-width: 0.8; stroke-linejoin: miter; stroke-linecap: square"/>
   </g>
  </g>
  <g id="axes_3">
   <g id="patch_14">
    <path d="M 100.8 354.165517 
L 987.84 354.165517 
L 987.84 261.434483 
L 100.8 261.434483 
z
" style="fill: #eeeeee"/>
   </g>
   <g id="matplotlib.axis_5">
    <g id="xtick_13">
     <g id="line2d_37">
      <path d="M 141.12 354.165517 
L 141.12 261.434483 
" clip-path="url(#p33616631f2)" style="fill: none; stroke-dasharray: 1.85,0.8; stroke-dashoffset: 0; stroke: #b2b2b2; stroke-width: 0.5"/>
     </g>
     <g id="line2d_38">
      <g>
       <use xlink:href="#m066db23431" x="141.12" y="354.165517" style="stroke: #000000; stroke-width: 0.8"/>
      </g>
     </g>
    </g>
    <g id="xtick_14">
     <g id="line2d_39">
      <path d="M 302.4 354.165517 
L 302.4 261.434483 
" clip-path="url(#p33616631f2)" style="fill: none; stroke-dasharray: 1.85,0.8; stroke-dashoffset: 0; stroke: #b2b2b2; stroke-width: 0.5"/>
     </g>
     <g id="line2d_40">
      <g>
       <use xlink:href="#m066db23431" x="302.4" y="354.165517" style="stroke: #000000; stroke-width: 0.8"/>
      </g>
     </g>
    </g>
    <g id="xtick_15">
     <g id="line2d_41">
      <path d="M 463.68 354.165517 
L 463.68 261.434483 
" clip-path="url(#p33616631f2)" style="fill: none; stroke-dasharray: 1.85,0.8; stroke-dashoffset: 0; stroke: #b2b2b2; stroke-width: 0.5"/>
     </g>
     <g id="line2d_42">
      <g>
       <use xlink:href="#m066db23431" x="463.68" y="354.165517" style="stroke: #000000; stroke-width: 0.8"/>
      </g>
     </g>
    </g>
    <g id="xtick_16">
     <g id="line2d_43">
      <path d="M 624.96 354.165517 
L 624.96 261.434483 
" clip-path="url(#p33616631f2)" style="fill: none; stroke-dasharray: 1.85,0.8; stroke-dashoffset: 0; stroke: #b2b2b2; stroke-width: 0.5"/>
     </g>
     <g id="line2d_44">
      <g>
       <use xlink:href="#m066db23431" x="624.96" y="354.165517" style="stroke: #000000; stroke-width: 0.8"/>
      </g>
     </g>
    </g>
    <g id="xtick_17">
     <g id="line2d_45">
      <path d="M 786.24 354.165517 
L 786.24 261.434483 
" clip-path="url(#p33616631f2)" style="fill: none; stroke-dasharray: 1.85,0.8; stroke-dashoffset: 0; stroke: #b2b2b2; stroke-width: 0.5"/>
     </g>
     <g id="line2d_46">
      <g>
       <use xlink:href="#m066db23431" x="786.24" y="354.165517" style="stroke: #000000; stroke-width: 0.8"/>
      </g>
     </g>
    </g>
    <g id="xtick_18">
     <g id="line2d_47">
      <path d="M 947.52 354.165517 
L 947.52 261.434483 
" clip-path="url(#p33616631f2)" style="fill: none; stroke-dasharray: 1.85,0.8; stroke-dashoffset: 0; stroke: #b2b2b2; stroke-width: 0.5"/>
     </g>
     <g id="line2d_48">
      <g>
       <use xlink:href="#m066db23431" x="947.52" y="354.165517" style="stroke: #000000; stroke-width: 0.8"/>
      </g>
     </g>
    </g>
   </g>
   <g id="matplotlib.axis_6">
    <g id="ytick_6">
     <g id="line2d_49">
      <path d="M 100.8 344.750924 
L 987.84 344.750924 
" clip-path="url(#p33616631f2)" style="fill: none; stroke-dasharray: 1.85,0.8; stroke-dashoffset: 0; stroke: #b2b2b2; stroke-width: 0.5"/>
     </g>
     <g id="line2d_50">
      <g>
       <use xlink:href="#mb8c9206757" x="100.8" y="344.750924" style="stroke: #000000; stroke-width: 0.8"/>
      </g>
     </g>
     <g id="text_8">
      <!-- 0 V -->
      <g transform="translate(74.36625 350.069831) scale(0.14 -0.14)">
       <use xlink:href="#DejaVuSans-30"/>
       <use xlink:href="#DejaVuSans-20" x="63.623047"/>
       <use xlink:href="#DejaVuSans-56" x="95.410156"/>
      </g>
     </g>
    </g>
    <g id="ytick_7">
     <g id="line2d_51">
      <path d="M 100.8 303.706199 
L 987.84 303.706199 
" clip-path="url(#p33616631f2)" style="fill: none; stroke-dasharray: 1.85,0.8; stroke-dashoffset: 0; stroke: #b2b2b2; stroke-width: 0.5"/>
     </g>
     <g id="line2d_52">
      <g>
       <use xlink:href="#mb8c9206757" x="100.8" y="303.706199" style="stroke: #000000; stroke-width: 0.8"/>
      </g>
     </g>
     <g id="text_9">
      <!-- 1 V -->
      <g transform="translate(74.36625 309.025105) scale(0.14 -0.14)">
       <use xlink:href="#DejaVuSans-31"/>
       <use xlink:href="#DejaVuSans-20" x="63.623047"/>
       <use xlink:href="#DejaVuSans-56" x="95.410156"/>
      </g>
     </g>
    </g>
    <g id="ytick_8">
     <g id="line2d_53">
      <path d="M 100.8 262.661474 
L 987.84 262.661474 
" clip-path="url(#p33616631f2)" style="fill: none; stroke-dasharray: 1.85,0.8; stroke-dashoffset: 0; stroke: #b2b2b2; stroke-width: 0.5"/>
     </g>
     <g id="line2d_54">
      <g>
       <use xlink:href="#mb8c9206757" x="100.8" y="262.661474" style="stroke: #000000; stroke-width: 0.8"/>
      </g>
     </g>
     <g id="text_10">
      <!-- 2 V -->
      <g transform="translate(74.36625 267.98038) scale(0.14 -0.14)">
       <use xlink:href="#DejaVuSans-32"/>
       <use xlink:href="#DejaVuSans-20" x="63.623047"/>
       <use xlink:href="#DejaVuSans-56" x="95.410156"/>
      </g>
     </g>
    </g>
    <g id="text_11">
     <g id="patch_15">
      <path d="M 34.8768 342.395313 
L 34.8768 273.204688 
L 11.247425 273.204688 
L 11.247425 342.395313 
z
" style="fill: #ffff00; opacity: 0.2; stroke: #eeeeee; stroke-width: 0.5; stroke-linejoin: miter"/>
     </g>
     <!-- CLK BUF -->
     <g transform="translate(26.925238 337.355313) rotate(-90) scale(0.14 -0.14)">
      <defs>
       <path id="DejaVuSans-43" d="M 4122 4306 
L 4122 3641 
Q 3803 3938 3442 4084 
Q 3081 4231 2675 4231 
Q 1875 4231 1450 3742 
Q 1025 3253 1025 2328 
Q 1025 1406 1450 917 
Q 1875 428 2675 428 
Q 3081 428 3442 575 
Q 3803 722 4122 1019 
L 4122 359 
Q 3791 134 3420 21 
Q 3050 -91 2638 -91 
Q 1578 -91 968 557 
Q 359 1206 359 2328 
Q 359 3453 968 4101 
Q 1578 4750 2638 4750 
Q 3056 4750 3426 4639 
Q 3797 4528 4122 4306 
z
" transform="scale(0.015625)"/>
       <path id="DejaVuSans-4b" d="M 628 4666 
L 1259 4666 
L 1259 2694 
L 3353 4666 
L 4166 4666 
L 1850 2491 
L 4331 0 
L 3500 0 
L 1259 2247 
L 1259 0 
L 628 0 
L 628 4666 
z
" transform="scale(0.015625)"/>
      </defs>
      <use xlink:href="#DejaVuSans-43"/>
      <use xlink:href="#DejaVuSans-4c" x="69.824219"/>
      <use xlink:href="#DejaVuSans-4b" x="125.537109"/>
      <use xlink:href="#DejaVuSans-20" x="191.113281"/>
      <use xlink:href="#DejaVuSans-42" x="222.900391"/>
      <use xlink:href="#DejaVuSans-55" x="291.503906"/>
      <use xlink:href="#DejaVuSans-46" x="364.697266"/>
     </g>
    </g>
   </g>
   <g id="line2d_55">
    <path d="M 141.12 344.749839 
L 173.376 344.749839 
L 173.601792 295.497254 
L 213.696 295.497254 
L 213.760512 334.784855 
L 213.825024 344.732173 
L 213.889536 344.673108 
L 213.954048 344.837077 
L 214.01856 344.755372 
L 215.437824 344.745533 
L 223.824384 344.749753 
L 254.016 344.749811 
L 254.17728 295.345389 
L 254.241792 295.608075 
L 254.403072 295.489045 
L 254.854656 295.497254 
L 294.336 295.497254 
L 294.400512 334.750377 
L 294.465024 345.057204 
L 294.529536 344.343588 
L 294.626304 344.815426 
L 294.65856 344.786219 
L 294.884352 344.728195 
L 295.206912 344.76586 
L 295.497216 344.749519 
L 321.91488 344.749838 
L 334.656 344.74984 
L 334.81728 295.386433 
L 334.881792 295.509567 
L 335.365632 295.497254 
L 350.880768 295.60397 
L 352.525824 297.873744 
L 354.203136 300.636054 
L 361.10592 311.840853 
L 364.00896 316.073796 
L 367.460352 320.715133 
L 369.460224 323.060839 
L 369.589248 323.173712 
L 369.847296 323.474981 
L 370.008576 323.587033 
L 370.363392 323.893226 
L 371.718144 325.083113 
L 373.782528 326.623111 
L 375.008256 327.465349 
L 375.13728 326.654305 
L 375.169536 326.66826 
L 375.234048 328.003445 
L 375.363072 338.422238 
L 375.588864 349.765769 
L 375.846912 349.283083 
L 375.879168 349.391852 
L 376.072704 349.695582 
L 376.556544 349.95047 
L 376.814592 349.833493 
L 377.911296 349.356963 
L 380.717568 348.354815 
L 380.846592 348.358756 
L 381.040128 348.283767 
L 381.975552 347.986603 
L 387.201024 346.459042 
L 387.362304 346.414057 
L 387.781632 346.315385 
L 388.52352 346.123501 
L 393.36192 345.093816 
L 393.555456 345.073446 
L 399.619584 344.232365 
L 404.909568 344.241067 
L 405.812736 344.252231 
L 415.296 344.328615 
L 415.586304 310.509773 
L 416.876544 308.146007 
L 419.360256 302.971499 
L 422.424576 296.605462 
L 423.101952 295.279717 
L 425.359872 290.928976 
L 430.907904 281.271152 
L 431.90784 279.686826 
L 433.68192 276.965561 
L 441.133056 265.768559 
L 442.584576 265.68647 
L 445.003776 266.408857 
L 446.519808 267.057364 
L 448.455168 267.90699 
L 448.874496 268.095795 
L 451.584 269.245048 
L 453.325824 270.00848 
L 455.616 270.919673 
L 455.680512 345.760502 
L 455.809536 345.080091 
L 456.196608 345.0795 
L 461.42208 345.166913 
L 463.809024 345.222939 
L 484.098048 345.060348 
L 488.549376 345.023371 
L 495.936 344.968819 
L 496.065024 287.107712 
L 496.161792 287.31704 
L 501.000192 288.441666 
L 501.484032 288.548382 
L 502.129152 288.687934 
L 502.645248 288.79465 
L 503.290368 288.934202 
L 503.806464 289.040919 
L 504.451584 289.180471 
L 505.064448 289.287187 
L 505.709568 289.426739 
L 506.322432 289.533455 
L 506.870784 289.631963 
L 507.483648 289.738679 
L 508.032 289.837186 
L 508.548096 289.943903 
L 509.096448 290.04241 
L 509.80608 290.149126 
L 510.354432 290.247634 
L 511.064064 290.350245 
L 511.41888 290.411813 
L 512.031744 290.514424 
L 512.38656 290.575991 
L 513.096192 290.678603 
L 513.451008 290.74017 
L 514.257408 290.842782 
L 514.612224 290.904349 
L 515.321856 291.006961 
L 515.676672 291.068528 
L 516.57984 291.17114 
L 516.934656 291.232707 
L 517.741056 291.335319 
L 518.095872 291.396886 
L 518.99904 291.499498 
L 519.257088 291.52002 
L 520.063488 291.622632 
L 520.418304 291.680095 
L 526.159872 292.29987 
L 527.127552 292.402482 
L 527.3856 292.423004 
L 528.385536 292.525616 
L 528.643584 292.546138 
L 529.740288 292.64875 
L 529.998336 292.665168 
L 532.836864 292.915541 
L 534.094848 293.018153 
L 534.352896 293.034571 
L 535.643136 293.141287 
L 535.901184 293.161809 
L 536.256 293.198749 
L 536.288256 298.60434 
L 536.41728 344.755942 
L 536.546304 344.813596 
L 542.54592 344.802222 
L 576.576 344.767574 
L 576.705024 294.606583 
L 576.801792 294.885688 
L 577.70496 294.881583 
L 583.543296 294.988299 
L 583.801344 295.004717 
L 616.896 295.086807 
L 617.025024 345.064342 
L 617.186304 344.825671 
L 617.444352 344.734178 
L 617.799168 344.778828 
L 618.121728 344.761378 
L 657.216 344.761594 
L 657.37728 294.873374 
L 657.441792 295.33718 
L 657.53856 294.914419 
L 657.603072 295.070389 
L 658.086912 295.086807 
L 697.536 295.086807 
L 697.665024 345.064506 
L 697.826304 344.82563 
L 698.084352 344.734186 
L 698.439168 344.77884 
L 698.761728 344.761379 
L 737.856 344.761594 
L 738.01728 294.873374 
L 738.081792 295.33718 
L 738.17856 294.914419 
L 738.243072 295.070389 
L 738.726912 295.086807 
L 778.176 295.086807 
L 778.305024 345.064342 
L 778.466304 344.825671 
L 778.724352 344.734177 
L 779.079168 344.778828 
L 779.401728 344.761378 
L 818.496 344.761594 
L 818.65728 294.873374 
L 818.721792 295.33718 
L 818.81856 294.914419 
L 818.883072 295.070389 
L 819.366912 295.086807 
L 858.816 295.086807 
L 858.945024 345.064506 
L 859.106304 344.82563 
L 859.364352 344.734186 
L 859.719168 344.77884 
L 860.041728 344.761379 
L 899.136 344.761594 
L 899.29728 294.873374 
L 899.361792 295.33718 
L 899.45856 294.914419 
L 899.523072 295.070389 
L 900.006912 295.086807 
L 939.456 295.086807 
L 939.488256 302.487171 
L 939.61728 344.712779 
L 939.649536 344.832131 
L 939.714048 344.717938 
L 939.810816 344.734898 
L 940.004352 344.786157 
L 940.230144 344.76029 
L 945.9072 344.761596 
L 947.52 344.761584 
L 947.52 344.761584 
" clip-path="url(#p33616631f2)" style="fill: none; stroke: #0000ff; stroke-width: 2; stroke-linecap: square"/>
   </g>
   <g id="patch_16">
    <path d="M 100.8 354.165517 
L 100.8 261.434483 
" style="fill: none; stroke: #bcbcbc; stroke-width: 0.8; stroke-linejoin: miter; stroke-linecap: square"/>
   </g>
   <g id="patch_17">
    <path d="M 987.84 354.165517 
L 987.84 261.434483 
" style="fill: none; stroke: #bcbcbc; stroke-width: 0.8; stroke-linejoin: miter; stroke-linecap: square"/>
   </g>
   <g id="patch_18">
    <path d="M 100.8 354.165517 
L 987.84 354.165517 
" style="fill: none; stroke: #bcbcbc; stroke-width: 0.8; stroke-linejoin: miter; stroke-linecap: square"/>
   </g>
   <g id="patch_19">
    <path d="M 100.8 261.434483 
L 987.84 261.434483 
" style="fill: none; stroke: #bcbcbc; stroke-width: 0.8; stroke-linejoin: miter; stroke-linecap: square"/>
   </g>
  </g>
  <g id="axes_4">
   <g id="patch_20">
    <path d="M 100.8 465.442759 
L 987.84 465.442759 
L 987.84 372.711724 
L 100.8 372.711724 
z
" style="fill: #eeeeee"/>
   </g>
   <g id="matplotlib.axis_7">
    <g id="xtick_19">
     <g id="line2d_56">
      <path d="M 141.12 465.442759 
L 141.12 372.711724 
" clip-path="url(#p74045cce89)" style="fill: none; stroke-dasharray: 1.85,0.8; stroke-dashoffset: 0; stroke: #b2b2b2; stroke-width: 0.5"/>
     </g>
     <g id="line2d_57">
      <g>
       <use xlink:href="#m066db23431" x="141.12" y="465.442759" style="stroke: #000000; stroke-width: 0.8"/>
      </g>
     </g>
    </g>
    <g id="xtick_20">
     <g id="line2d_58">
      <path d="M 302.4 465.442759 
L 302.4 372.711724 
" clip-path="url(#p74045cce89)" style="fill: none; stroke-dasharray: 1.85,0.8; stroke-dashoffset: 0; stroke: #b2b2b2; stroke-width: 0.5"/>
     </g>
     <g id="line2d_59">
      <g>
       <use xlink:href="#m066db23431" x="302.4" y="465.442759" style="stroke: #000000; stroke-width: 0.8"/>
      </g>
     </g>
    </g>
    <g id="xtick_21">
     <g id="line2d_60">
      <path d="M 463.68 465.442759 
L 463.68 372.711724 
" clip-path="url(#p74045cce89)" style="fill: none; stroke-dasharray: 1.85,0.8; stroke-dashoffset: 0; stroke: #b2b2b2; stroke-width: 0.5"/>
     </g>
     <g id="line2d_61">
      <g>
       <use xlink:href="#m066db23431" x="463.68" y="465.442759" style="stroke: #000000; stroke-width: 0.8"/>
      </g>
     </g>
    </g>
    <g id="xtick_22">
     <g id="line2d_62">
      <path d="M 624.96 465.442759 
L 624.96 372.711724 
" clip-path="url(#p74045cce89)" style="fill: none; stroke-dasharray: 1.85,0.8; stroke-dashoffset: 0; stroke: #b2b2b2; stroke-width: 0.5"/>
     </g>
     <g id="line2d_63">
      <g>
       <use xlink:href="#m066db23431" x="624.96" y="465.442759" style="stroke: #000000; stroke-width: 0.8"/>
      </g>
     </g>
    </g>
    <g id="xtick_23">
     <g id="line2d_64">
      <path d="M 786.24 465.442759 
L 786.24 372.711724 
" clip-path="url(#p74045cce89)" style="fill: none; stroke-dasharray: 1.85,0.8; stroke-dashoffset: 0; stroke: #b2b2b2; stroke-width: 0.5"/>
     </g>
     <g id="line2d_65">
      <g>
       <use xlink:href="#m066db23431" x="786.24" y="465.442759" style="stroke: #000000; stroke-width: 0.8"/>
      </g>
     </g>
    </g>
    <g id="xtick_24">
     <g id="line2d_66">
      <path d="M 947.52 465.442759 
L 947.52 372.711724 
" clip-path="url(#p74045cce89)" style="fill: none; stroke-dasharray: 1.85,0.8; stroke-dashoffset: 0; stroke: #b2b2b2; stroke-width: 0.5"/>
     </g>
     <g id="line2d_67">
      <g>
       <use xlink:href="#m066db23431" x="947.52" y="465.442759" style="stroke: #000000; stroke-width: 0.8"/>
      </g>
     </g>
    </g>
   </g>
   <g id="matplotlib.axis_8">
    <g id="ytick_9">
     <g id="line2d_68">
      <path d="M 100.8 436.694702 
L 987.84 436.694702 
" clip-path="url(#p74045cce89)" style="fill: none; stroke-dasharray: 1.85,0.8; stroke-dashoffset: 0; stroke: #b2b2b2; stroke-width: 0.5"/>
     </g>
     <g id="line2d_69">
      <g>
       <use xlink:href="#mb8c9206757" x="100.8" y="436.694702" style="stroke: #000000; stroke-width: 0.8"/>
      </g>
     </g>
     <g id="text_12">
      <!-- 0 V -->
      <g transform="translate(74.36625 442.013608) scale(0.14 -0.14)">
       <use xlink:href="#DejaVuSans-30"/>
       <use xlink:href="#DejaVuSans-20" x="63.623047"/>
       <use xlink:href="#DejaVuSans-56" x="95.410156"/>
      </g>
     </g>
    </g>
    <g id="ytick_10">
     <g id="line2d_70">
      <path d="M 100.8 393.770305 
L 987.84 393.770305 
" clip-path="url(#p74045cce89)" style="fill: none; stroke-dasharray: 1.85,0.8; stroke-dashoffset: 0; stroke: #b2b2b2; stroke-width: 0.5"/>
     </g>
     <g id="line2d_71">
      <g>
       <use xlink:href="#mb8c9206757" x="100.8" y="393.770305" style="stroke: #000000; stroke-width: 0.8"/>
      </g>
     </g>
     <g id="text_13">
      <!-- 1 V -->
      <g transform="translate(74.36625 399.089211) scale(0.14 -0.14)">
       <use xlink:href="#DejaVuSans-31"/>
       <use xlink:href="#DejaVuSans-20" x="63.623047"/>
       <use xlink:href="#DejaVuSans-56" x="95.410156"/>
      </g>
     </g>
    </g>
    <g id="text_14">
     <g id="patch_21">
      <path d="M 34.8768 454.693023 
L 34.8768 383.46146 
L 11.247425 383.46146 
L 11.247425 454.693023 
z
" style="fill: #ffff00; opacity: 0.2; stroke: #eeeeee; stroke-width: 0.5; stroke-linejoin: miter"/>
     </g>
     <!-- DFF OUT -->
     <g transform="translate(26.925238 449.653023) rotate(-90) scale(0.14 -0.14)">
      <defs>
       <path id="DejaVuSans-4f" d="M 2522 4238 
Q 1834 4238 1429 3725 
Q 1025 3213 1025 2328 
Q 1025 1447 1429 934 
Q 1834 422 2522 422 
Q 3209 422 3611 934 
Q 4013 1447 4013 2328 
Q 4013 3213 3611 3725 
Q 3209 4238 2522 4238 
z
M 2522 4750 
Q 3503 4750 4090 4092 
Q 4678 3434 4678 2328 
Q 4678 1225 4090 567 
Q 3503 -91 2522 -91 
Q 1538 -91 948 565 
Q 359 1222 359 2328 
Q 359 3434 948 4092 
Q 1538 4750 2522 4750 
z
" transform="scale(0.015625)"/>
       <path id="DejaVuSans-54" d="M -19 4666 
L 3928 4666 
L 3928 4134 
L 2272 4134 
L 2272 0 
L 1638 0 
L 1638 4134 
L -19 4134 
L -19 4666 
z
" transform="scale(0.015625)"/>
      </defs>
      <use xlink:href="#DejaVuSans-44"/>
      <use xlink:href="#DejaVuSans-46" x="77.001953"/>
      <use xlink:href="#DejaVuSans-46" x="134.521484"/>
      <use xlink:href="#DejaVuSans-20" x="192.041016"/>
      <use xlink:href="#DejaVuSans-4f" x="223.828125"/>
      <use xlink:href="#DejaVuSans-55" x="302.539062"/>
      <use xlink:href="#DejaVuSans-54" x="375.732422"/>
     </g>
    </g>
   </g>
   <g id="line2d_72">
    <path d="M 141.12 404.306956 
L 173.408256 404.359324 
L 173.440512 406.136394 
L 173.601792 436.697321 
L 174.085632 436.691955 
L 183.633408 436.69356 
L 254.048256 436.695356 
L 254.080512 436.866949 
L 254.112768 436.583111 
L 254.306304 432.392389 
L 254.596608 431.552359 
L 254.693376 430.953134 
L 255.14496 423.43278 
L 255.370752 405.757372 
L 255.596544 385.601792 
L 255.757824 385.249812 
L 255.983616 385.181133 
L 256.854528 385.185425 
L 295.755264 385.271274 
L 296.239104 388.048482 
L 296.59392 387.353107 
L 297.948672 385.537405 
L 299.561472 385.219765 
L 334.720512 385.224057 
L 334.752768 384.567314 
L 335.107584 436.693447 
L 335.752704 436.69388 
L 350.848512 436.773112 
L 351.525888 437.421884 
L 352.300032 437.827004 
L 353.332224 438.083349 
L 354.816 438.198515 
L 357.751296 438.165635 
L 359.718912 438.000033 
L 359.783424 437.827391 
L 359.847936 436.990897 
L 359.912448 432.302677 
L 360.105984 403.387087 
L 360.170496 403.553204 
L 361.234944 408.43843 
L 361.622016 410.452013 
L 361.91232 411.887834 
L 361.944576 411.683085 
L 361.976832 411.443996 
L 362.009088 411.541005 
L 362.23488 413.430537 
L 362.589696 415.149659 
L 362.621952 414.718698 
L 362.654208 414.767632 
L 362.815488 416.370858 
L 363.105792 417.808396 
L 363.138048 417.650864 
L 363.170304 417.49376 
L 363.20256 417.568449 
L 363.396096 419.31633 
L 363.718656 421.088679 
L 363.750912 420.504907 
L 363.783168 420.649133 
L 363.944448 422.208576 
L 366.1056 432.717713 
L 366.170112 432.481028 
L 366.234624 432.559837 
L 366.331392 432.890269 
L 366.621696 434.922568 
L 366.879744 435.939447 
L 366.912 435.578925 
L 366.944256 435.637002 
L 367.137792 437.128152 
L 367.524864 438.759193 
L 367.55712 438.309217 
L 367.621632 438.520062 
L 368.266752 441.517687 
L 368.331264 441.388055 
L 368.36352 441.747762 
L 368.395776 441.527989 
L 368.460288 441.649894 
L 368.5248 441.810002 
L 368.557056 442.252982 
L 368.653824 442.167562 
L 368.718336 442.347416 
L 368.879616 443.278446 
L 369.621504 444.959794 
L 369.65376 444.874804 
L 369.718272 444.979969 
L 369.847296 445.298039 
L 370.008576 445.866358 
L 370.040832 445.732004 
L 370.202112 446.422229 
L 370.266624 446.349257 
L 370.29888 446.521813 
L 370.331136 446.344106 
L 370.363392 446.583195 
L 370.427904 446.732143 
L 370.589184 447.402622 
L 372.911616 453.028723 
L 373.04064 453.388429 
L 373.52448 454.641821 
L 376.685568 461.227712 
L 376.814592 461.011373 
L 376.846848 461.091641 
L 376.879104 460.904062 
L 377.298432 460.153743 
L 378.008064 458.575842 
L 378.04032 458.710625 
L 378.072576 458.468102 
L 378.556416 457.575275 
L 378.620928 457.63451 
L 378.717696 456.727089 
L 378.749952 457.352926 
L 378.814464 456.926258 
L 378.911232 457.07821 
L 378.975744 456.957593 
L 380.13696 455.15906 
L 380.169216 455.340201 
L 380.201472 455.097249 
L 380.233728 455.228169 
L 380.427264 454.826396 
L 380.524032 454.800642 
L 380.749824 454.535798 
L 381.072384 454.153771 
L 381.10464 454.152483 
L 381.298176 453.714225 
L 382.07232 452.681464 
L 382.2336 452.520068 
L 382.265856 452.591752 
L 382.362624 452.525219 
L 382.620672 452.081381 
L 382.652928 452.219168 
L 382.685184 452.25222 
L 382.814208 451.9114 
L 383.104512 451.665873 
L 383.265792 451.57659 
L 383.52384 451.33278 
L 383.781888 450.846875 
L 384.104448 450.306457 
L 384.136704 450.375566 
L 384.16896 450.234774 
L 384.297984 450.104713 
L 384.33024 450.257523 
L 384.362496 449.990534 
L 384.394752 450.241641 
L 384.781824 449.525662 
L 384.81408 449.820553 
L 384.846336 449.458271 
L 384.910848 449.730412 
L 384.943104 449.409337 
L 385.039872 449.496474 
L 385.168896 449.125607 
L 385.233408 449.074098 
L 385.29792 449.255239 
L 385.4592 448.890381 
L 385.491456 449.035895 
L 385.555968 448.814405 
L 386.459136 448.070525 
L 386.555904 447.9087 
L 386.717184 447.441683 
L 387.168768 446.861774 
L 387.201024 446.892251 
L 387.23328 447.158811 
L 387.265536 446.668185 
L 387.297792 446.700808 
L 387.330048 447.081977 
L 387.39456 446.905128 
L 387.588096 446.40978 
L 387.620352 446.769916 
L 387.652608 446.300753 
L 387.71712 446.648011 
L 387.846144 446.099437 
L 387.910656 446.380163 
L 387.942912 446.157814 
L 387.975168 446.198163 
L 388.007424 446.107593 
L 388.168704 445.900268 
L 388.975104 445.367576 
L 389.716992 444.325372 
L 389.81376 444.020609 
L 389.846016 444.402636 
L 389.910528 444.328806 
L 390.039552 443.77551 
L 390.200832 443.587931 
L 390.233088 444.021896 
L 390.2976 443.774652 
L 390.362112 443.418808 
L 390.394368 443.82659 
L 390.426624 443.798689 
L 390.555648 443.268573 
L 391.233024 442.813574 
L 391.297536 442.986131 
L 391.329792 442.766358 
L 391.58784 442.733306 
L 391.9104 442.392486 
L 392.007168 442.370595 
L 393.071616 441.260999 
L 393.168384 440.575453 
L 393.20064 440.587086 
L 393.265152 440.500078 
L 393.329664 441.001306 
L 393.394176 440.920651 
L 393.555456 440.279704 
L 393.587712 440.533173 
L 393.619968 440.122129 
L 393.652224 440.115991 
L 393.68448 440.49218 
L 393.748992 440.221113 
L 393.813504 440.347439 
L 393.974784 439.892011 
L 395.071488 439.273213 
L 396.10368 438.082662 
L 396.168192 437.360974 
L 396.26496 437.43386 
L 396.329472 437.67767 
L 396.458496 436.944453 
L 396.523008 436.832189 
L 396.555264 437.255208 
L 396.619776 436.714725 
L 396.684288 436.778357 
L 396.716544 437.015025 
L 396.7488 436.683458 
L 396.781056 436.710617 
L 396.877824 436.733771 
L 396.91008 436.676058 
L 397.813248 434.970128 
L 397.845504 434.200751 
L 397.942272 434.454606 
L 397.974528 434.513842 
L 398.03904 433.921228 
L 398.071296 433.955224 
L 398.103552 434.333302 
L 398.168064 434.12851 
L 398.20032 433.764725 
L 398.297088 433.867658 
L 398.329344 433.950974 
L 398.393856 433.817093 
L 398.942208 432.695951 
L 399.522816 431.247166 
L 399.587328 430.917078 
L 399.65184 431.044993 
L 399.716352 431.110667 
L 400.877568 428.71849 
L 401.006592 428.104671 
L 401.10336 428.217133 
L 401.135616 428.132143 
L 402.103296 426.104824 
L 402.135552 425.748122 
L 402.23232 425.893636 
L 402.329088 425.754561 
L 402.71616 424.813658 
L 403.780608 422.652844 
L 403.812864 422.609919 
L 403.941888 422.327477 
L 405.199872 419.52065 
L 405.264384 419.071661 
L 405.328896 419.149354 
L 405.425664 419.050628 
L 406.619136 416.593207 
L 406.683648 415.905128 
L 406.715904 416.303038 
L 406.74816 416.332226 
L 406.941696 415.893968 
L 407.296512 415.278432 
L 407.490048 414.784802 
L 409.715712 410.806139 
L 410.393088 409.673364 
L 411.360768 408.076148 
L 412.360704 406.611996 
L 412.55424 406.141545 
L 413.296128 405.159864 
L 413.876736 404.614724 
L 414.392832 403.797444 
L 414.683136 403.130828 
L 415.166976 402.65265 
L 415.392768 402.440604 
L 415.425024 402.256029 
L 415.45728 402.843664 
L 415.554048 420.395879 
L 415.683072 435.785992 
L 415.715328 435.768264 
L 415.973376 435.581372 
L 416.683008 435.194494 
L 417.650688 434.931496 
L 419.069952 434.809977 
L 421.714944 434.849124 
L 434.48832 435.350352 
L 435.681792 435.272144 
L 438.35904 435.294122 
L 441.133056 435.445902 
L 441.842688 436.15042 
L 442.649088 436.591859 
L 443.616768 436.863158 
L 445.068288 437.029362 
L 447.971328 437.095774 
L 455.648256 437.051249 
L 455.680512 436.938783 
L 455.745024 437.063152 
L 457.39008 437.039037 
L 461.325312 437.128839 
L 463.712256 437.193784 
L 472.647168 437.106686 
L 495.968256 436.926802 
L 496.000512 437.277315 
L 496.290816 430.230717 
L 496.516608 428.967881 
L 496.677888 426.804921 
L 496.839168 420.403176 
L 497.032704 401.384234 
L 497.258496 377.403232 
L 497.323008 376.926771 
L 497.38752 376.952526 
L 497.71008 377.016912 
L 498.451968 377.20578 
L 498.83904 377.300213 
L 499.290624 377.416109 
L 500.322816 377.660778 
L 500.967936 377.806721 
L 501.451776 377.901155 
L 501.90336 378.017051 
L 503.225856 378.304644 
L 503.870976 378.450587 
L 504.354816 378.545021 
L 504.709632 378.622285 
L 505.225728 378.716719 
L 505.677312 378.832614 
L 507.677184 379.201764 
L 508.032 379.266151 
L 508.51584 379.360584 
L 508.870656 379.433556 
L 511.838208 379.931479 
L 512.193024 379.995866 
L 512.805888 380.103177 
L 513.160704 380.167563 
L 513.967104 380.274874 
L 514.32192 380.339261 
L 514.999296 380.433694 
L 515.354112 380.506666 
L 526.546944 381.884539 
L 527.514624 381.99185 
L 527.772672 382.013312 
L 528.772608 382.120623 
L 529.030656 382.142085 
L 530.12736 382.249396 
L 530.385408 382.270859 
L 531.57888 382.37817 
L 531.836928 382.399632 
L 533.0304 382.506943 
L 533.288448 382.528405 
L 534.578688 382.635716 
L 534.836736 382.657178 
L 536.223744 382.764489 
L 536.481792 382.781659 
L 537.933312 382.880385 
L 538.288128 382.914725 
L 538.83648 382.953357 
L 540.352512 383.052083 
L 540.707328 383.086422 
L 542.320128 383.193733 
L 542.578176 383.210903 
L 544.416768 383.309629 
L 544.771584 383.343969 
L 546.674688 383.45128 
L 546.932736 383.468449 
L 549.061632 383.567175 
L 549.416448 383.597222 
L 550.577664 383.644439 
L 551.126016 383.683071 
L 553.51296 383.781797 
L 553.867776 383.811844 
L 556.609536 383.910571 
L 556.964352 383.940618 
L 559.996416 384.039344 
L 560.351232 384.069391 
L 561.544704 384.116608 
L 565.157376 384.223919 
L 565.479936 384.245381 
L 566.318592 384.245381 
L 569.608704 384.352692 
L 569.931264 384.374154 
L 570.802176 384.369862 
L 571.963392 384.412786 
L 576.608256 384.481465 
L 576.640512 384.743304 
L 576.705024 384.464295 
L 576.89856 384.537267 
L 583.51104 384.640285 
L 583.865856 384.670332 
L 617.025024 384.777643 
L 617.154048 384.756181 
L 617.573376 384.756181 
L 618.379776 384.760474 
L 657.248256 384.751889 
L 657.280512 384.970803 
L 657.345024 384.751889 
L 657.53856 384.730427 
L 658.570752 384.756181 
L 737.888256 384.751889 
L 737.920512 384.970803 
L 737.985024 384.751889 
L 738.17856 384.730427 
L 739.210752 384.756181 
L 818.528256 384.751889 
L 818.560512 384.970803 
L 818.625024 384.751889 
L 818.81856 384.730427 
L 819.850752 384.756181 
L 899.168256 384.751889 
L 899.200512 384.970803 
L 899.265024 384.751889 
L 899.45856 384.730427 
L 900.490752 384.756181 
L 947.52 384.756181 
L 947.52 384.756181 
" clip-path="url(#p74045cce89)" style="fill: none; stroke: #ff00ff; stroke-width: 2; stroke-linecap: square"/>
   </g>
   <g id="patch_22">
    <path d="M 100.8 465.442759 
L 100.8 372.711724 
" style="fill: none; stroke: #bcbcbc; stroke-width: 0.8; stroke-linejoin: miter; stroke-linecap: square"/>
   </g>
   <g id="patch_23">
    <path d="M 987.84 465.442759 
L 987.84 372.711724 
" style="fill: none; stroke: #bcbcbc; stroke-width: 0.8; stroke-linejoin: miter; stroke-linecap: square"/>
   </g>
   <g id="patch_24">
    <path d="M 100.8 465.442759 
L 987.84 465.442759 
" style="fill: none; stroke: #bcbcbc; stroke-width: 0.8; stroke-linejoin: miter; stroke-linecap: square"/>
   </g>
   <g id="patch_25">
    <path d="M 100.8 372.711724 
L 987.84 372.711724 
" style="fill: none; stroke: #bcbcbc; stroke-width: 0.8; stroke-linejoin: miter; stroke-linecap: square"/>
   </g>
  </g>
  <g id="axes_5">
   <g id="patch_26">
    <path d="M 100.8 576.72 
L 987.84 576.72 
L 987.84 483.988966 
L 100.8 483.988966 
z
" style="fill: #eeeeee"/>
   </g>
   <g id="matplotlib.axis_9">
    <g id="xtick_25">
     <g id="line2d_73">
      <path d="M 141.12 576.72 
L 141.12 483.988966 
" clip-path="url(#pd2d8a53fdb)" style="fill: none; stroke-dasharray: 1.85,0.8; stroke-dashoffset: 0; stroke: #b2b2b2; stroke-width: 0.5"/>
     </g>
     <g id="line2d_74">
      <g>
       <use xlink:href="#m066db23431" x="141.12" y="576.72" style="stroke: #000000; stroke-width: 0.8"/>
      </g>
     </g>
     <g id="text_15">
      <!-- 0 s -->
      <g transform="translate(130.795 590.857813) scale(0.14 -0.14)">
       <defs>
        <path id="DejaVuSans-73" d="M 2834 3397 
L 2834 2853 
Q 2591 2978 2328 3040 
Q 2066 3103 1784 3103 
Q 1356 3103 1142 2972 
Q 928 2841 928 2578 
Q 928 2378 1081 2264 
Q 1234 2150 1697 2047 
L 1894 2003 
Q 2506 1872 2764 1633 
Q 3022 1394 3022 966 
Q 3022 478 2636 193 
Q 2250 -91 1575 -91 
Q 1294 -91 989 -36 
Q 684 19 347 128 
L 347 722 
Q 666 556 975 473 
Q 1284 391 1588 391 
Q 1994 391 2212 530 
Q 2431 669 2431 922 
Q 2431 1156 2273 1281 
Q 2116 1406 1581 1522 
L 1381 1569 
Q 847 1681 609 1914 
Q 372 2147 372 2553 
Q 372 3047 722 3315 
Q 1072 3584 1716 3584 
Q 2034 3584 2315 3537 
Q 2597 3491 2834 3397 
z
" transform="scale(0.015625)"/>
       </defs>
       <use xlink:href="#DejaVuSans-30"/>
       <use xlink:href="#DejaVuSans-20" x="63.623047"/>
       <use xlink:href="#DejaVuSans-73" x="95.410156"/>
      </g>
     </g>
    </g>
    <g id="xtick_26">
     <g id="line2d_75">
      <path d="M 302.4 576.72 
L 302.4 483.988966 
" clip-path="url(#pd2d8a53fdb)" style="fill: none; stroke-dasharray: 1.85,0.8; stroke-dashoffset: 0; stroke: #b2b2b2; stroke-width: 0.5"/>
     </g>
     <g id="line2d_76">
      <g>
       <use xlink:href="#m066db23431" x="302.4" y="576.72" style="stroke: #000000; stroke-width: 0.8"/>
      </g>
     </g>
     <g id="text_16">
      <!-- 50 ns -->
      <g transform="translate(283.185 590.857813) scale(0.14 -0.14)">
       <defs>
        <path id="DejaVuSans-35" d="M 691 4666 
L 3169 4666 
L 3169 4134 
L 1269 4134 
L 1269 2991 
Q 1406 3038 1543 3061 
Q 1681 3084 1819 3084 
Q 2600 3084 3056 2656 
Q 3513 2228 3513 1497 
Q 3513 744 3044 326 
Q 2575 -91 1722 -91 
Q 1428 -91 1123 -41 
Q 819 9 494 109 
L 494 744 
Q 775 591 1075 516 
Q 1375 441 1709 441 
Q 2250 441 2565 725 
Q 2881 1009 2881 1497 
Q 2881 1984 2565 2268 
Q 2250 2553 1709 2553 
Q 1456 2553 1204 2497 
Q 953 2441 691 2322 
L 691 4666 
z
" transform="scale(0.015625)"/>
        <path id="DejaVuSans-6e" d="M 3513 2113 
L 3513 0 
L 2938 0 
L 2938 2094 
Q 2938 2591 2744 2837 
Q 2550 3084 2163 3084 
Q 1697 3084 1428 2787 
Q 1159 2491 1159 1978 
L 1159 0 
L 581 0 
L 581 3500 
L 1159 3500 
L 1159 2956 
Q 1366 3272 1645 3428 
Q 1925 3584 2291 3584 
Q 2894 3584 3203 3211 
Q 3513 2838 3513 2113 
z
" transform="scale(0.015625)"/>
       </defs>
       <use xlink:href="#DejaVuSans-35"/>
       <use xlink:href="#DejaVuSans-30" x="63.623047"/>
       <use xlink:href="#DejaVuSans-20" x="127.246094"/>
       <use xlink:href="#DejaVuSans-6e" x="159.033203"/>
       <use xlink:href="#DejaVuSans-73" x="222.412109"/>
      </g>
     </g>
    </g>
    <g id="xtick_27">
     <g id="line2d_77">
      <path d="M 463.68 576.72 
L 463.68 483.988966 
" clip-path="url(#pd2d8a53fdb)" style="fill: none; stroke-dasharray: 1.85,0.8; stroke-dashoffset: 0; stroke: #b2b2b2; stroke-width: 0.5"/>
     </g>
     <g id="line2d_78">
      <g>
       <use xlink:href="#m066db23431" x="463.68" y="576.72" style="stroke: #000000; stroke-width: 0.8"/>
      </g>
     </g>
     <g id="text_17">
      <!-- 100 ns -->
      <g transform="translate(440.01125 590.857813) scale(0.14 -0.14)">
       <use xlink:href="#DejaVuSans-31"/>
       <use xlink:href="#DejaVuSans-30" x="63.623047"/>
       <use xlink:href="#DejaVuSans-30" x="127.246094"/>
       <use xlink:href="#DejaVuSans-20" x="190.869141"/>
       <use xlink:href="#DejaVuSans-6e" x="222.65625"/>
       <use xlink:href="#DejaVuSans-73" x="286.035156"/>
      </g>
     </g>
    </g>
    <g id="xtick_28">
     <g id="line2d_79">
      <path d="M 624.96 576.72 
L 624.96 483.988966 
" clip-path="url(#pd2d8a53fdb)" style="fill: none; stroke-dasharray: 1.85,0.8; stroke-dashoffset: 0; stroke: #b2b2b2; stroke-width: 0.5"/>
     </g>
     <g id="line2d_80">
      <g>
       <use xlink:href="#m066db23431" x="624.96" y="576.72" style="stroke: #000000; stroke-width: 0.8"/>
      </g>
     </g>
     <g id="text_18">
      <!-- 150 ns -->
      <g transform="translate(601.29125 590.857813) scale(0.14 -0.14)">
       <use xlink:href="#DejaVuSans-31"/>
       <use xlink:href="#DejaVuSans-35" x="63.623047"/>
       <use xlink:href="#DejaVuSans-30" x="127.246094"/>
       <use xlink:href="#DejaVuSans-20" x="190.869141"/>
       <use xlink:href="#DejaVuSans-6e" x="222.65625"/>
       <use xlink:href="#DejaVuSans-73" x="286.035156"/>
      </g>
     </g>
    </g>
    <g id="xtick_29">
     <g id="line2d_81">
      <path d="M 786.24 576.72 
L 786.24 483.988966 
" clip-path="url(#pd2d8a53fdb)" style="fill: none; stroke-dasharray: 1.85,0.8; stroke-dashoffset: 0; stroke: #b2b2b2; stroke-width: 0.5"/>
     </g>
     <g id="line2d_82">
      <g>
       <use xlink:href="#m066db23431" x="786.24" y="576.72" style="stroke: #000000; stroke-width: 0.8"/>
      </g>
     </g>
     <g id="text_19">
      <!-- 200 ns -->
      <g transform="translate(762.57125 590.857813) scale(0.14 -0.14)">
       <use xlink:href="#DejaVuSans-32"/>
       <use xlink:href="#DejaVuSans-30" x="63.623047"/>
       <use xlink:href="#DejaVuSans-30" x="127.246094"/>
       <use xlink:href="#DejaVuSans-20" x="190.869141"/>
       <use xlink:href="#DejaVuSans-6e" x="222.65625"/>
       <use xlink:href="#DejaVuSans-73" x="286.035156"/>
      </g>
     </g>
    </g>
    <g id="xtick_30">
     <g id="line2d_83">
      <path d="M 947.52 576.72 
L 947.52 483.988966 
" clip-path="url(#pd2d8a53fdb)" style="fill: none; stroke-dasharray: 1.85,0.8; stroke-dashoffset: 0; stroke: #b2b2b2; stroke-width: 0.5"/>
     </g>
     <g id="line2d_84">
      <g>
       <use xlink:href="#m066db23431" x="947.52" y="576.72" style="stroke: #000000; stroke-width: 0.8"/>
      </g>
     </g>
     <g id="text_20">
      <!-- 250 ns -->
      <g transform="translate(923.85125 590.857813) scale(0.14 -0.14)">
       <use xlink:href="#DejaVuSans-32"/>
       <use xlink:href="#DejaVuSans-35" x="63.623047"/>
       <use xlink:href="#DejaVuSans-30" x="127.246094"/>
       <use xlink:href="#DejaVuSans-20" x="190.869141"/>
       <use xlink:href="#DejaVuSans-6e" x="222.65625"/>
       <use xlink:href="#DejaVuSans-73" x="286.035156"/>
      </g>
     </g>
    </g>
    <g id="text_21">
     <!-- Time -->
     <g transform="translate(527.192969 608.407187) scale(0.14 -0.14)">
      <defs>
       <path id="DejaVuSans-69" d="M 603 3500 
L 1178 3500 
L 1178 0 
L 603 0 
L 603 3500 
z
M 603 4863 
L 1178 4863 
L 1178 4134 
L 603 4134 
L 603 4863 
z
" transform="scale(0.015625)"/>
       <path id="DejaVuSans-6d" d="M 3328 2828 
Q 3544 3216 3844 3400 
Q 4144 3584 4550 3584 
Q 5097 3584 5394 3201 
Q 5691 2819 5691 2113 
L 5691 0 
L 5113 0 
L 5113 2094 
Q 5113 2597 4934 2840 
Q 4756 3084 4391 3084 
Q 3944 3084 3684 2787 
Q 3425 2491 3425 1978 
L 3425 0 
L 2847 0 
L 2847 2094 
Q 2847 2600 2669 2842 
Q 2491 3084 2119 3084 
Q 1678 3084 1418 2786 
Q 1159 2488 1159 1978 
L 1159 0 
L 581 0 
L 581 3500 
L 1159 3500 
L 1159 2956 
Q 1356 3278 1631 3431 
Q 1906 3584 2284 3584 
Q 2666 3584 2933 3390 
Q 3200 3197 3328 2828 
z
" transform="scale(0.015625)"/>
       <path id="DejaVuSans-65" d="M 3597 1894 
L 3597 1613 
L 953 1613 
Q 991 1019 1311 708 
Q 1631 397 2203 397 
Q 2534 397 2845 478 
Q 3156 559 3463 722 
L 3463 178 
Q 3153 47 2828 -22 
Q 2503 -91 2169 -91 
Q 1331 -91 842 396 
Q 353 884 353 1716 
Q 353 2575 817 3079 
Q 1281 3584 2069 3584 
Q 2775 3584 3186 3129 
Q 3597 2675 3597 1894 
z
M 3022 2063 
Q 3016 2534 2758 2815 
Q 2500 3097 2075 3097 
Q 1594 3097 1305 2825 
Q 1016 2553 972 2059 
L 3022 2063 
z
" transform="scale(0.015625)"/>
      </defs>
      <use xlink:href="#DejaVuSans-54"/>
      <use xlink:href="#DejaVuSans-69" x="57.958984"/>
      <use xlink:href="#DejaVuSans-6d" x="85.742188"/>
      <use xlink:href="#DejaVuSans-65" x="183.154297"/>
     </g>
    </g>
   </g>
   <g id="matplotlib.axis_10">
    <g id="ytick_11">
     <g id="line2d_85">
      <path d="M 100.8 569.742785 
L 987.84 569.742785 
" clip-path="url(#pd2d8a53fdb)" style="fill: none; stroke-dasharray: 1.85,0.8; stroke-dashoffset: 0; stroke: #b2b2b2; stroke-width: 0.5"/>
     </g>
     <g id="line2d_86">
      <g>
       <use xlink:href="#mb8c9206757" x="100.8" y="569.742785" style="stroke: #000000; stroke-width: 0.8"/>
      </g>
     </g>
     <g id="text_22">
      <!-- 0 V -->
      <g transform="translate(74.36625 575.061691) scale(0.14 -0.14)">
       <use xlink:href="#DejaVuSans-30"/>
       <use xlink:href="#DejaVuSans-20" x="63.623047"/>
       <use xlink:href="#DejaVuSans-56" x="95.410156"/>
      </g>
     </g>
    </g>
    <g id="ytick_12">
     <g id="line2d_87">
      <path d="M 100.8 535.909269 
L 987.84 535.909269 
" clip-path="url(#pd2d8a53fdb)" style="fill: none; stroke-dasharray: 1.85,0.8; stroke-dashoffset: 0; stroke: #b2b2b2; stroke-width: 0.5"/>
     </g>
     <g id="line2d_88">
      <g>
       <use xlink:href="#mb8c9206757" x="100.8" y="535.909269" style="stroke: #000000; stroke-width: 0.8"/>
      </g>
     </g>
     <g id="text_23">
      <!-- 500 mV -->
      <g transform="translate(42.914375 541.228176) scale(0.14 -0.14)">
       <use xlink:href="#DejaVuSans-35"/>
       <use xlink:href="#DejaVuSans-30" x="63.623047"/>
       <use xlink:href="#DejaVuSans-30" x="127.246094"/>
       <use xlink:href="#DejaVuSans-20" x="190.869141"/>
       <use xlink:href="#DejaVuSans-6d" x="222.65625"/>
       <use xlink:href="#DejaVuSans-56" x="320.068359"/>
      </g>
     </g>
    </g>
    <g id="ytick_13">
     <g id="line2d_89">
      <path d="M 100.8 502.075754 
L 987.84 502.075754 
" clip-path="url(#pd2d8a53fdb)" style="fill: none; stroke-dasharray: 1.85,0.8; stroke-dashoffset: 0; stroke: #b2b2b2; stroke-width: 0.5"/>
     </g>
     <g id="line2d_90">
      <g>
       <use xlink:href="#mb8c9206757" x="100.8" y="502.075754" style="stroke: #000000; stroke-width: 0.8"/>
      </g>
     </g>
     <g id="text_24">
      <!-- 1 V -->
      <g transform="translate(74.36625 507.39466) scale(0.14 -0.14)">
       <use xlink:href="#DejaVuSans-31"/>
       <use xlink:href="#DejaVuSans-20" x="63.623047"/>
       <use xlink:href="#DejaVuSans-56" x="95.410156"/>
      </g>
     </g>
    </g>
    <g id="text_25">
     <g id="patch_27">
      <path d="M 34.8768 554.329483 
L 34.8768 506.379483 
L 11.247425 506.379483 
L 11.247425 554.329483 
z
" style="fill: #ffff00; opacity: 0.2; stroke: #eeeeee; stroke-width: 0.5; stroke-linejoin: miter"/>
     </g>
     <!-- FOUT -->
     <g transform="translate(26.925238 549.289483) rotate(-90) scale(0.14 -0.14)">
      <use xlink:href="#DejaVuSans-46"/>
      <use xlink:href="#DejaVuSans-4f" x="57.519531"/>
      <use xlink:href="#DejaVuSans-55" x="136.230469"/>
      <use xlink:href="#DejaVuSans-54" x="209.423828"/>
     </g>
    </g>
   </g>
   <g id="line2d_91">
    <path d="M 141.12 488.542348 
L 173.472768 488.549114 
L 173.505024 488.35288 
L 173.569536 526.738357 
L 173.69856 572.504953 
L 173.730816 572.369348 
L 173.827584 567.836875 
L 173.892096 569.357367 
L 174.053376 570.061449 
L 174.117888 569.94379 
L 174.408192 569.488668 
L 174.440448 569.53818 
L 174.66624 569.726836 
L 176.182272 569.737044 
L 180.117504 569.758366 
L 193.536 569.749264 
L 212.921856 569.740908 
L 255.30624 569.740601 
L 255.6288 488.43408 
L 255.854592 488.576181 
L 256.209408 488.535581 
L 334.849536 488.488214 
L 334.881792 489.063384 
L 335.043072 571.953399 
L 335.13984 568.953787 
L 335.172096 568.425511 
L 335.204352 568.870624 
L 335.333376 570.650809 
L 335.397888 570.214871 
L 335.526912 569.797039 
L 335.817216 569.66419 
L 336.43008 569.801269 
L 336.978432 569.743067 
L 353.267712 569.741103 
L 360.009216 569.78119 
L 360.041472 569.876684 
L 360.073728 566.039233 
L 360.29952 488.806249 
L 360.428544 488.542348 
L 362.202624 488.447614 
L 362.267136 488.204013 
L 362.331648 515.638934 
L 362.428416 570.147258 
L 362.492928 569.743711 
L 363.331584 569.740956 
L 370.46016 569.741096 
L 408.651264 569.81416 
L 408.68352 569.861405 
L 408.748032 568.723313 
L 408.812544 547.934377 
L 409.00608 489.002484 
L 409.135104 488.549114 
L 415.554048 488.562648 
L 415.586304 488.880683 
L 415.715328 571.544081 
L 415.908864 569.741037 
L 429.520896 569.741104 
L 496.968192 569.73198 
L 497.000448 569.327059 
L 497.06496 541.276618 
L 497.22624 489.151351 
L 497.323008 488.440847 
L 497.38752 488.535581 
L 497.935872 488.542348 
L 947.52 488.542348 
L 947.52 488.542348 
" clip-path="url(#pd2d8a53fdb)" style="fill: none; stroke: #ff00ff; stroke-width: 2; stroke-linecap: square"/>
   </g>
   <g id="patch_28">
    <path d="M 100.8 576.72 
L 100.8 483.988966 
" style="fill: none; stroke: #bcbcbc; stroke-width: 0.8; stroke-linejoin: miter; stroke-linecap: square"/>
   </g>
   <g id="patch_29">
    <path d="M 987.84 576.72 
L 987.84 483.988966 
" style="fill: none; stroke: #bcbcbc; stroke-width: 0.8; stroke-linejoin: miter; stroke-linecap: square"/>
   </g>
   <g id="patch_30">
    <path d="M 100.8 576.72 
L 987.84 576.72 
" style="fill: none; stroke: #bcbcbc; stroke-width: 0.8; stroke-linejoin: miter; stroke-linecap: square"/>
   </g>
   <g id="patch_31">
    <path d="M 100.8 483.988966 
L 987.84 483.988966 
" style="fill: none; stroke: #bcbcbc; stroke-width: 0.8; stroke-linejoin: miter; stroke-linecap: square"/>
   </g>
  </g>
  <g id="axes_6">
   <g id="patch_32">
    <path d="M 201.6 628.56 
L 856.8 628.56 
L 856.8 615.6 
L 201.6 615.6 
z
" clip-path="url(#p012c500bda)" style="fill: #d3d3d3"/>
   </g>
   <g id="patch_33">
    <path d="M 201.6 628.56 
L 430.92 628.56 
L 430.92 615.6 
L 201.6 615.6 
z
" clip-path="url(#p012c500bda)" style="fill: #0000ff"/>
   </g>
   <g id="line2d_92">
    <path d="M 201.6 635.04 
L 201.6 609.12 
" clip-path="url(#p3fc8da1283)" style="fill: none; stroke: #ff0000; stroke-linecap: square"/>
   </g>
   <g id="line2d_93">
    <defs>
     <path id="ma9c192c907" d="M 0 5 
C 1.326016 5 2.597899 4.473168 3.535534 3.535534 
C 4.473168 2.597899 5 1.326016 5 0 
C 5 -1.326016 4.473168 -2.597899 3.535534 -3.535534 
C 2.597899 -4.473168 1.326016 -5 0 -5 
C -1.326016 -5 -2.597899 -4.473168 -3.535534 -3.535534 
C -4.473168 -2.597899 -5 -1.326016 -5 0 
C -5 1.326016 -4.473168 2.597899 -3.535534 3.535534 
C -2.597899 4.473168 -1.326016 5 0 5 
z
" style="stroke: #bfbfbf"/>
    </defs>
    <g>
     <use xlink:href="#ma9c192c907" x="430.92" y="622.08" style="fill: #ffffff; stroke: #bfbfbf"/>
    </g>
   </g>
   <g id="text_26">
    <!-- #Sweep -->
    <g transform="translate(138.622875 625.39125) scale(0.12 -0.12)">
     <defs>
      <path id="DejaVuSans-23" d="M 3272 2816 
L 2363 2816 
L 2100 1772 
L 3016 1772 
L 3272 2816 
z
M 2803 4594 
L 2478 3297 
L 3391 3297 
L 3719 4594 
L 4219 4594 
L 3897 3297 
L 4872 3297 
L 4872 2816 
L 3775 2816 
L 3519 1772 
L 4513 1772 
L 4513 1294 
L 3397 1294 
L 3072 0 
L 2572 0 
L 2894 1294 
L 1978 1294 
L 1656 0 
L 1153 0 
L 1478 1294 
L 494 1294 
L 494 1772 
L 1594 1772 
L 1856 2816 
L 850 2816 
L 850 3297 
L 1978 3297 
L 2297 4594 
L 2803 4594 
z
" transform="scale(0.015625)"/>
      <path id="DejaVuSans-77" d="M 269 3500 
L 844 3500 
L 1563 769 
L 2278 3500 
L 2956 3500 
L 3675 769 
L 4391 3500 
L 4966 3500 
L 4050 0 
L 3372 0 
L 2619 2869 
L 1863 0 
L 1184 0 
L 269 3500 
z
" transform="scale(0.015625)"/>
      <path id="DejaVuSans-70" d="M 1159 525 
L 1159 -1331 
L 581 -1331 
L 581 3500 
L 1159 3500 
L 1159 2969 
Q 1341 3281 1617 3432 
Q 1894 3584 2278 3584 
Q 2916 3584 3314 3078 
Q 3713 2572 3713 1747 
Q 3713 922 3314 415 
Q 2916 -91 2278 -91 
Q 1894 -91 1617 61 
Q 1341 213 1159 525 
z
M 3116 1747 
Q 3116 2381 2855 2742 
Q 2594 3103 2138 3103 
Q 1681 3103 1420 2742 
Q 1159 2381 1159 1747 
Q 1159 1113 1420 752 
Q 1681 391 2138 391 
Q 2594 391 2855 752 
Q 3116 1113 3116 1747 
z
" transform="scale(0.015625)"/>
     </defs>
     <use xlink:href="#DejaVuSans-23"/>
     <use xlink:href="#DejaVuSans-53" x="83.789062"/>
     <use xlink:href="#DejaVuSans-77" x="147.265625"/>
     <use xlink:href="#DejaVuSans-65" x="229.052734"/>
     <use xlink:href="#DejaVuSans-65" x="290.576172"/>
     <use xlink:href="#DejaVuSans-70" x="352.099609"/>
    </g>
   </g>
   <g id="text_27">
    <!-- $\mathdefault{49}$ -->
    <g transform="translate(869.904 625.39125) scale(0.12 -0.12)">
     <defs>
      <path id="DejaVuSans-34" d="M 2419 4116 
L 825 1625 
L 2419 1625 
L 2419 4116 
z
M 2253 4666 
L 3047 4666 
L 3047 1625 
L 3713 1625 
L 3713 1100 
L 3047 1100 
L 3047 0 
L 2419 0 
L 2419 1100 
L 313 1100 
L 313 1709 
L 2253 4666 
z
" transform="scale(0.015625)"/>
      <path id="DejaVuSans-39" d="M 703 97 
L 703 672 
Q 941 559 1184 500 
Q 1428 441 1663 441 
Q 2288 441 2617 861 
Q 2947 1281 2994 2138 
Q 2813 1869 2534 1725 
Q 2256 1581 1919 1581 
Q 1219 1581 811 2004 
Q 403 2428 403 3163 
Q 403 3881 828 4315 
Q 1253 4750 1959 4750 
Q 2769 4750 3195 4129 
Q 3622 3509 3622 2328 
Q 3622 1225 3098 567 
Q 2575 -91 1691 -91 
Q 1453 -91 1209 -44 
Q 966 3 703 97 
z
M 1959 2075 
Q 2384 2075 2632 2365 
Q 2881 2656 2881 3163 
Q 2881 3666 2632 3958 
Q 2384 4250 1959 4250 
Q 1534 4250 1286 3958 
Q 1038 3666 1038 3163 
Q 1038 2656 1286 2365 
Q 1534 2075 1959 2075 
z
" transform="scale(0.015625)"/>
     </defs>
     <use xlink:href="#DejaVuSans-34" transform="translate(0 0.78125)"/>
     <use xlink:href="#DejaVuSans-39" transform="translate(63.623047 0.78125)"/>
    </g>
   </g>
  </g>
  <g id="text_28">
   <!-- DFF under BBI sweep analysis (Sweep = 59E-9) -->
   <g transform="translate(313.34625 25.1175) scale(0.16 -0.16)">
    <defs>
     <path id="DejaVuSans-75" d="M 544 1381 
L 544 3500 
L 1119 3500 
L 1119 1403 
Q 1119 906 1312 657 
Q 1506 409 1894 409 
Q 2359 409 2629 706 
Q 2900 1003 2900 1516 
L 2900 3500 
L 3475 3500 
L 3475 0 
L 2900 0 
L 2900 538 
Q 2691 219 2414 64 
Q 2138 -91 1772 -91 
Q 1169 -91 856 284 
Q 544 659 544 1381 
z
M 1991 3584 
L 1991 3584 
z
" transform="scale(0.015625)"/>
     <path id="DejaVuSans-64" d="M 2906 2969 
L 2906 4863 
L 3481 4863 
L 3481 0 
L 2906 0 
L 2906 525 
Q 2725 213 2448 61 
Q 2172 -91 1784 -91 
Q 1150 -91 751 415 
Q 353 922 353 1747 
Q 353 2572 751 3078 
Q 1150 3584 1784 3584 
Q 2172 3584 2448 3432 
Q 2725 3281 2906 2969 
z
M 947 1747 
Q 947 1113 1208 752 
Q 1469 391 1925 391 
Q 2381 391 2643 752 
Q 2906 1113 2906 1747 
Q 2906 2381 2643 2742 
Q 2381 3103 1925 3103 
Q 1469 3103 1208 2742 
Q 947 2381 947 1747 
z
" transform="scale(0.015625)"/>
     <path id="DejaVuSans-72" d="M 2631 2963 
Q 2534 3019 2420 3045 
Q 2306 3072 2169 3072 
Q 1681 3072 1420 2755 
Q 1159 2438 1159 1844 
L 1159 0 
L 581 0 
L 581 3500 
L 1159 3500 
L 1159 2956 
Q 1341 3275 1631 3429 
Q 1922 3584 2338 3584 
Q 2397 3584 2469 3576 
Q 2541 3569 2628 3553 
L 2631 2963 
z
" transform="scale(0.015625)"/>
     <path id="DejaVuSans-61" d="M 2194 1759 
Q 1497 1759 1228 1600 
Q 959 1441 959 1056 
Q 959 750 1161 570 
Q 1363 391 1709 391 
Q 2188 391 2477 730 
Q 2766 1069 2766 1631 
L 2766 1759 
L 2194 1759 
z
M 3341 1997 
L 3341 0 
L 2766 0 
L 2766 531 
Q 2569 213 2275 61 
Q 1981 -91 1556 -91 
Q 1019 -91 701 211 
Q 384 513 384 1019 
Q 384 1609 779 1909 
Q 1175 2209 1959 2209 
L 2766 2209 
L 2766 2266 
Q 2766 2663 2505 2880 
Q 2244 3097 1772 3097 
Q 1472 3097 1187 3025 
Q 903 2953 641 2809 
L 641 3341 
Q 956 3463 1253 3523 
Q 1550 3584 1831 3584 
Q 2591 3584 2966 3190 
Q 3341 2797 3341 1997 
z
" transform="scale(0.015625)"/>
     <path id="DejaVuSans-6c" d="M 603 4863 
L 1178 4863 
L 1178 0 
L 603 0 
L 603 4863 
z
" transform="scale(0.015625)"/>
     <path id="DejaVuSans-79" d="M 2059 -325 
Q 1816 -950 1584 -1140 
Q 1353 -1331 966 -1331 
L 506 -1331 
L 506 -850 
L 844 -850 
Q 1081 -850 1212 -737 
Q 1344 -625 1503 -206 
L 1606 56 
L 191 3500 
L 800 3500 
L 1894 763 
L 2988 3500 
L 3597 3500 
L 2059 -325 
z
" transform="scale(0.015625)"/>
     <path id="DejaVuSans-28" d="M 1984 4856 
Q 1566 4138 1362 3434 
Q 1159 2731 1159 2009 
Q 1159 1288 1364 580 
Q 1569 -128 1984 -844 
L 1484 -844 
Q 1016 -109 783 600 
Q 550 1309 550 2009 
Q 550 2706 781 3412 
Q 1013 4119 1484 4856 
L 1984 4856 
z
" transform="scale(0.015625)"/>
     <path id="DejaVuSans-3d" d="M 678 2906 
L 4684 2906 
L 4684 2381 
L 678 2381 
L 678 2906 
z
M 678 1631 
L 4684 1631 
L 4684 1100 
L 678 1100 
L 678 1631 
z
" transform="scale(0.015625)"/>
     <path id="DejaVuSans-2d" d="M 313 2009 
L 1997 2009 
L 1997 1497 
L 313 1497 
L 313 2009 
z
" transform="scale(0.015625)"/>
     <path id="DejaVuSans-29" d="M 513 4856 
L 1013 4856 
Q 1481 4119 1714 3412 
Q 1947 2706 1947 2009 
Q 1947 1309 1714 600 
Q 1481 -109 1013 -844 
L 513 -844 
Q 928 -128 1133 580 
Q 1338 1288 1338 2009 
Q 1338 2731 1133 3434 
Q 928 4138 513 4856 
z
" transform="scale(0.015625)"/>
    </defs>
    <use xlink:href="#DejaVuSans-44"/>
    <use xlink:href="#DejaVuSans-46" x="77.001953"/>
    <use xlink:href="#DejaVuSans-46" x="134.521484"/>
    <use xlink:href="#DejaVuSans-20" x="192.041016"/>
    <use xlink:href="#DejaVuSans-75" x="223.828125"/>
    <use xlink:href="#DejaVuSans-6e" x="287.207031"/>
    <use xlink:href="#DejaVuSans-64" x="350.585938"/>
    <use xlink:href="#DejaVuSans-65" x="414.0625"/>
    <use xlink:href="#DejaVuSans-72" x="475.585938"/>
    <use xlink:href="#DejaVuSans-20" x="516.699219"/>
    <use xlink:href="#DejaVuSans-42" x="548.486328"/>
    <use xlink:href="#DejaVuSans-42" x="617.089844"/>
    <use xlink:href="#DejaVuSans-49" x="685.693359"/>
    <use xlink:href="#DejaVuSans-20" x="715.185547"/>
    <use xlink:href="#DejaVuSans-73" x="746.972656"/>
    <use xlink:href="#DejaVuSans-77" x="799.072266"/>
    <use xlink:href="#DejaVuSans-65" x="880.859375"/>
    <use xlink:href="#DejaVuSans-65" x="942.382812"/>
    <use xlink:href="#DejaVuSans-70" x="1003.90625"/>
    <use xlink:href="#DejaVuSans-20" x="1067.382812"/>
    <use xlink:href="#DejaVuSans-61" x="1099.169922"/>
    <use xlink:href="#DejaVuSans-6e" x="1160.449219"/>
    <use xlink:href="#DejaVuSans-61" x="1223.828125"/>
    <use xlink:href="#DejaVuSans-6c" x="1285.107422"/>
    <use xlink:href="#DejaVuSans-79" x="1312.890625"/>
    <use xlink:href="#DejaVuSans-73" x="1372.070312"/>
    <use xlink:href="#DejaVuSans-69" x="1424.169922"/>
    <use xlink:href="#DejaVuSans-73" x="1451.953125"/>
    <use xlink:href="#DejaVuSans-20" x="1504.052734"/>
    <use xlink:href="#DejaVuSans-28" x="1535.839844"/>
    <use xlink:href="#DejaVuSans-53" x="1574.853516"/>
    <use xlink:href="#DejaVuSans-77" x="1638.330078"/>
    <use xlink:href="#DejaVuSans-65" x="1720.117188"/>
    <use xlink:href="#DejaVuSans-65" x="1781.640625"/>
    <use xlink:href="#DejaVuSans-70" x="1843.164062"/>
    <use xlink:href="#DejaVuSans-20" x="1906.640625"/>
    <use xlink:href="#DejaVuSans-3d" x="1938.427734"/>
    <use xlink:href="#DejaVuSans-20" x="2022.216797"/>
    <use xlink:href="#DejaVuSans-35" x="2054.003906"/>
    <use xlink:href="#DejaVuSans-39" x="2117.626953"/>
    <use xlink:href="#DejaVuSans-45" x="2181.25"/>
    <use xlink:href="#DejaVuSans-2d" x="2244.433594"/>
    <use xlink:href="#DejaVuSans-39" x="2280.517578"/>
    <use xlink:href="#DejaVuSans-29" x="2344.140625"/>
   </g>
  </g>
 </g>
 <defs>
  <clipPath id="p4ac1272f01">
   <rect x="100.8" y="38.88" width="887.04" height="92.731034"/>
  </clipPath>
  <clipPath id="p413826eecd">
   <rect x="100.8" y="150.157241" width="887.04" height="92.731034"/>
  </clipPath>
  <clipPath id="p33616631f2">
   <rect x="100.8" y="261.434483" width="887.04" height="92.731034"/>
  </clipPath>
  <clipPath id="p74045cce89">
   <rect x="100.8" y="372.711724" width="887.04" height="92.731034"/>
  </clipPath>
  <clipPath id="pd2d8a53fdb">
   <rect x="100.8" y="483.988966" width="887.04" height="92.731034"/>
  </clipPath>
  <clipPath id="p012c500bda">
   <rect x="201.6" y="609.12" width="655.2" height="25.92"/>
  </clipPath>
  <clipPath id="p3fc8da1283">
   <path d="M 201.6 628.56 
L 856.8 628.56 
L 856.8 615.6 
L 201.6 615.6 
z
"/>
  </clipPath>
 </defs>
</svg>
