<?xml version="1.0" encoding="utf-8" standalone="no"?>
<!DOCTYPE svg PUBLIC "-//W3C//DTD SVG 1.1//EN"
  "http://www.w3.org/Graphics/SVG/1.1/DTD/svg11.dtd">
<svg xmlns:xlink="http://www.w3.org/1999/xlink" width="1008pt" height="648pt" viewBox="0 0 1008 648" xmlns="http://www.w3.org/2000/svg" version="1.1">
 <metadata>
  <rdf:RDF xmlns:dc="http://purl.org/dc/elements/1.1/" xmlns:cc="http://creativecommons.org/ns#" xmlns:rdf="http://www.w3.org/1999/02/22-rdf-syntax-ns#">
   <cc:Work>
    <dc:type rdf:resource="http://purl.org/dc/dcmitype/StillImage"/>
    <dc:date>2024-06-03T10:45:54.346057</dc:date>
    <dc:format>image/svg+xml</dc:format>
    <dc:creator>
     <cc:Agent>
      <dc:title>Matplotlib v3.9.0, https://matplotlib.org/</dc:title>
     </cc:Agent>
    </dc:creator>
   </cc:Work>
  </rdf:RDF>
 </metadata>
 <defs>
  <style type="text/css">*{stroke-linejoin: round; stroke-linecap: butt}</style>
 </defs>
 <g id="figure_1">
  <g id="patch_1">
   <path d="M 0 648 
L 1008 648 
L 1008 0 
L 0 0 
z
" style="fill: #ffffff"/>
  </g>
  <g id="axes_1">
   <g id="patch_2">
    <path d="M 100.8 131.611034 
L 987.84 131.611034 
L 987.84 38.88 
L 100.8 38.88 
z
" style="fill: #eeeeee"/>
   </g>
   <g id="matplotlib.axis_1">
    <g id="xtick_1">
     <g id="line2d_1">
      <path d="M 141.12 131.611034 
L 141.12 38.88 
" clip-path="url(#pfe6aabb028)" style="fill: none; stroke-dasharray: 1.85,0.8; stroke-dashoffset: 0; stroke: #b2b2b2; stroke-width: 0.5"/>
     </g>
     <g id="line2d_2">
      <defs>
       <path id="m927b7d63fe" d="M 0 0 
L 0 -3.5 
" style="stroke: #000000; stroke-width: 0.8"/>
      </defs>
      <g>
       <use xlink:href="#m927b7d63fe" x="141.12" y="131.611034" style="stroke: #000000; stroke-width: 0.8"/>
      </g>
     </g>
    </g>
    <g id="xtick_2">
     <g id="line2d_3">
      <path d="M 302.4 131.611034 
L 302.4 38.88 
" clip-path="url(#pfe6aabb028)" style="fill: none; stroke-dasharray: 1.85,0.8; stroke-dashoffset: 0; stroke: #b2b2b2; stroke-width: 0.5"/>
     </g>
     <g id="line2d_4">
      <g>
       <use xlink:href="#m927b7d63fe" x="302.4" y="131.611034" style="stroke: #000000; stroke-width: 0.8"/>
      </g>
     </g>
    </g>
    <g id="xtick_3">
     <g id="line2d_5">
      <path d="M 463.68 131.611034 
L 463.68 38.88 
" clip-path="url(#pfe6aabb028)" style="fill: none; stroke-dasharray: 1.85,0.8; stroke-dashoffset: 0; stroke: #b2b2b2; stroke-width: 0.5"/>
     </g>
     <g id="line2d_6">
      <g>
       <use xlink:href="#m927b7d63fe" x="463.68" y="131.611034" style="stroke: #000000; stroke-width: 0.8"/>
      </g>
     </g>
    </g>
    <g id="xtick_4">
     <g id="line2d_7">
      <path d="M 624.96 131.611034 
L 624.96 38.88 
" clip-path="url(#pfe6aabb028)" style="fill: none; stroke-dasharray: 1.85,0.8; stroke-dashoffset: 0; stroke: #b2b2b2; stroke-width: 0.5"/>
     </g>
     <g id="line2d_8">
      <g>
       <use xlink:href="#m927b7d63fe" x="624.96" y="131.611034" style="stroke: #000000; stroke-width: 0.8"/>
      </g>
     </g>
    </g>
    <g id="xtick_5">
     <g id="line2d_9">
      <path d="M 786.24 131.611034 
L 786.24 38.88 
" clip-path="url(#pfe6aabb028)" style="fill: none; stroke-dasharray: 1.85,0.8; stroke-dashoffset: 0; stroke: #b2b2b2; stroke-width: 0.5"/>
     </g>
     <g id="line2d_10">
      <g>
       <use xlink:href="#m927b7d63fe" x="786.24" y="131.611034" style="stroke: #000000; stroke-width: 0.8"/>
      </g>
     </g>
    </g>
    <g id="xtick_6">
     <g id="line2d_11">
      <path d="M 947.52 131.611034 
L 947.52 38.88 
" clip-path="url(#pfe6aabb028)" style="fill: none; stroke-dasharray: 1.85,0.8; stroke-dashoffset: 0; stroke: #b2b2b2; stroke-width: 0.5"/>
     </g>
     <g id="line2d_12">
      <g>
       <use xlink:href="#m927b7d63fe" x="947.52" y="131.611034" style="stroke: #000000; stroke-width: 0.8"/>
      </g>
     </g>
    </g>
   </g>
   <g id="matplotlib.axis_2">
    <g id="ytick_1">
     <g id="line2d_13">
      <path d="M 100.8 98.340394 
L 987.84 98.340394 
" clip-path="url(#pfe6aabb028)" style="fill: none; stroke-dasharray: 1.85,0.8; stroke-dashoffset: 0; stroke: #b2b2b2; stroke-width: 0.5"/>
     </g>
     <g id="line2d_14">
      <defs>
       <path id="m6c9e2ea832" d="M 0 0 
L 3.5 0 
" style="stroke: #000000; stroke-width: 0.8"/>
      </defs>
      <g>
       <use xlink:href="#m6c9e2ea832" x="100.8" y="98.340394" style="stroke: #000000; stroke-width: 0.8"/>
      </g>
     </g>
     <g id="text_1">
      <!-- −200 V -->
      <g transform="translate(44.819688 103.6593) scale(0.14 -0.14)">
       <defs>
        <path id="DejaVuSans-2212" d="M 678 2272 
L 4684 2272 
L 4684 1741 
L 678 1741 
L 678 2272 
z
" transform="scale(0.015625)"/>
        <path id="DejaVuSans-32" d="M 1228 531 
L 3431 531 
L 3431 0 
L 469 0 
L 469 531 
Q 828 903 1448 1529 
Q 2069 2156 2228 2338 
Q 2531 2678 2651 2914 
Q 2772 3150 2772 3378 
Q 2772 3750 2511 3984 
Q 2250 4219 1831 4219 
Q 1534 4219 1204 4116 
Q 875 4013 500 3803 
L 500 4441 
Q 881 4594 1212 4672 
Q 1544 4750 1819 4750 
Q 2544 4750 2975 4387 
Q 3406 4025 3406 3419 
Q 3406 3131 3298 2873 
Q 3191 2616 2906 2266 
Q 2828 2175 2409 1742 
Q 1991 1309 1228 531 
z
" transform="scale(0.015625)"/>
        <path id="DejaVuSans-30" d="M 2034 4250 
Q 1547 4250 1301 3770 
Q 1056 3291 1056 2328 
Q 1056 1369 1301 889 
Q 1547 409 2034 409 
Q 2525 409 2770 889 
Q 3016 1369 3016 2328 
Q 3016 3291 2770 3770 
Q 2525 4250 2034 4250 
z
M 2034 4750 
Q 2819 4750 3233 4129 
Q 3647 3509 3647 2328 
Q 3647 1150 3233 529 
Q 2819 -91 2034 -91 
Q 1250 -91 836 529 
Q 422 1150 422 2328 
Q 422 3509 836 4129 
Q 1250 4750 2034 4750 
z
" transform="scale(0.015625)"/>
        <path id="DejaVuSans-20" transform="scale(0.015625)"/>
        <path id="DejaVuSans-56" d="M 1831 0 
L 50 4666 
L 709 4666 
L 2188 738 
L 3669 4666 
L 4325 4666 
L 2547 0 
L 1831 0 
z
" transform="scale(0.015625)"/>
       </defs>
       <use xlink:href="#DejaVuSans-2212"/>
       <use xlink:href="#DejaVuSans-32" x="83.789062"/>
       <use xlink:href="#DejaVuSans-30" x="147.412109"/>
       <use xlink:href="#DejaVuSans-30" x="211.035156"/>
       <use xlink:href="#DejaVuSans-20" x="274.658203"/>
       <use xlink:href="#DejaVuSans-56" x="306.445312"/>
      </g>
     </g>
    </g>
    <g id="ytick_2">
     <g id="line2d_15">
      <path d="M 100.8 45.027377 
L 987.84 45.027377 
" clip-path="url(#pfe6aabb028)" style="fill: none; stroke-dasharray: 1.85,0.8; stroke-dashoffset: 0; stroke: #b2b2b2; stroke-width: 0.5"/>
     </g>
     <g id="line2d_16">
      <g>
       <use xlink:href="#m6c9e2ea832" x="100.8" y="45.027377" style="stroke: #000000; stroke-width: 0.8"/>
      </g>
     </g>
     <g id="text_2">
      <!-- 0 V -->
      <g transform="translate(74.36625 50.346284) scale(0.14 -0.14)">
       <use xlink:href="#DejaVuSans-30"/>
       <use xlink:href="#DejaVuSans-20" x="63.623047"/>
       <use xlink:href="#DejaVuSans-56" x="95.410156"/>
      </g>
     </g>
    </g>
    <g id="text_3">
     <g id="patch_3">
      <path d="M 34.8768 131.080205 
L 34.8768 39.41083 
L 11.247425 39.41083 
L 11.247425 131.080205 
z
" style="fill: #ffff00; opacity: 0.2; stroke: #eeeeee; stroke-width: 0.5; stroke-linejoin: miter"/>
     </g>
     <!-- VPULSE BBI -->
     <g transform="translate(26.925238 126.040205) rotate(-90) scale(0.14 -0.14)">
      <defs>
       <path id="DejaVuSans-50" d="M 1259 4147 
L 1259 2394 
L 2053 2394 
Q 2494 2394 2734 2622 
Q 2975 2850 2975 3272 
Q 2975 3691 2734 3919 
Q 2494 4147 2053 4147 
L 1259 4147 
z
M 628 4666 
L 2053 4666 
Q 2838 4666 3239 4311 
Q 3641 3956 3641 3272 
Q 3641 2581 3239 2228 
Q 2838 1875 2053 1875 
L 1259 1875 
L 1259 0 
L 628 0 
L 628 4666 
z
" transform="scale(0.015625)"/>
       <path id="DejaVuSans-55" d="M 556 4666 
L 1191 4666 
L 1191 1831 
Q 1191 1081 1462 751 
Q 1734 422 2344 422 
Q 2950 422 3222 751 
Q 3494 1081 3494 1831 
L 3494 4666 
L 4128 4666 
L 4128 1753 
Q 4128 841 3676 375 
Q 3225 -91 2344 -91 
Q 1459 -91 1007 375 
Q 556 841 556 1753 
L 556 4666 
z
" transform="scale(0.015625)"/>
       <path id="DejaVuSans-4c" d="M 628 4666 
L 1259 4666 
L 1259 531 
L 3531 531 
L 3531 0 
L 628 0 
L 628 4666 
z
" transform="scale(0.015625)"/>
       <path id="DejaVuSans-53" d="M 3425 4513 
L 3425 3897 
Q 3066 4069 2747 4153 
Q 2428 4238 2131 4238 
Q 1616 4238 1336 4038 
Q 1056 3838 1056 3469 
Q 1056 3159 1242 3001 
Q 1428 2844 1947 2747 
L 2328 2669 
Q 3034 2534 3370 2195 
Q 3706 1856 3706 1288 
Q 3706 609 3251 259 
Q 2797 -91 1919 -91 
Q 1588 -91 1214 -16 
Q 841 59 441 206 
L 441 856 
Q 825 641 1194 531 
Q 1563 422 1919 422 
Q 2459 422 2753 634 
Q 3047 847 3047 1241 
Q 3047 1584 2836 1778 
Q 2625 1972 2144 2069 
L 1759 2144 
Q 1053 2284 737 2584 
Q 422 2884 422 3419 
Q 422 4038 858 4394 
Q 1294 4750 2059 4750 
Q 2388 4750 2728 4690 
Q 3069 4631 3425 4513 
z
" transform="scale(0.015625)"/>
       <path id="DejaVuSans-45" d="M 628 4666 
L 3578 4666 
L 3578 4134 
L 1259 4134 
L 1259 2753 
L 3481 2753 
L 3481 2222 
L 1259 2222 
L 1259 531 
L 3634 531 
L 3634 0 
L 628 0 
L 628 4666 
z
" transform="scale(0.015625)"/>
       <path id="DejaVuSans-42" d="M 1259 2228 
L 1259 519 
L 2272 519 
Q 2781 519 3026 730 
Q 3272 941 3272 1375 
Q 3272 1813 3026 2020 
Q 2781 2228 2272 2228 
L 1259 2228 
z
M 1259 4147 
L 1259 2741 
L 2194 2741 
Q 2656 2741 2882 2914 
Q 3109 3088 3109 3444 
Q 3109 3797 2882 3972 
Q 2656 4147 2194 4147 
L 1259 4147 
z
M 628 4666 
L 2241 4666 
Q 2963 4666 3353 4366 
Q 3744 4066 3744 3513 
Q 3744 3084 3544 2831 
Q 3344 2578 2956 2516 
Q 3422 2416 3680 2098 
Q 3938 1781 3938 1306 
Q 3938 681 3513 340 
Q 3088 0 2303 0 
L 628 0 
L 628 4666 
z
" transform="scale(0.015625)"/>
       <path id="DejaVuSans-49" d="M 628 4666 
L 1259 4666 
L 1259 0 
L 628 0 
L 628 4666 
z
" transform="scale(0.015625)"/>
      </defs>
      <use xlink:href="#DejaVuSans-56"/>
      <use xlink:href="#DejaVuSans-50" x="68.408203"/>
      <use xlink:href="#DejaVuSans-55" x="128.710938"/>
      <use xlink:href="#DejaVuSans-4c" x="201.904297"/>
      <use xlink:href="#DejaVuSans-53" x="257.617188"/>
      <use xlink:href="#DejaVuSans-45" x="321.09375"/>
      <use xlink:href="#DejaVuSans-20" x="384.277344"/>
      <use xlink:href="#DejaVuSans-42" x="416.064453"/>
      <use xlink:href="#DejaVuSans-42" x="484.667969"/>
      <use xlink:href="#DejaVuSans-49" x="553.271484"/>
     </g>
    </g>
   </g>
   <g id="line2d_17">
    <path d="M 141.12 45.027377 
L 560.480256 45.136282 
L 560.964096 46.425538 
L 569.189376 69.006772 
L 576.608256 89.863624 
L 578.221056 94.440546 
L 580.027392 99.673219 
L 583.51104 110.807642 
L 585.091584 115.853719 
L 586.317312 119.550977 
L 590.220288 121.36362 
L 590.800896 121.619522 
L 591.671808 122.003376 
L 592.316928 122.269941 
L 593.897472 122.936354 
L 594.542592 123.202919 
L 595.639296 123.629423 
L 596.381184 123.922644 
L 597.477888 124.349149 
L 598.381056 124.677024 
L 599.058432 124.943589 
L 599.864832 125.25547 
L 601.219584 125.804594 
L 603.864576 126.790885 
L 604.47744 127.022796 
L 606.4128 127.395987 
L 624.895488 127.289361 
L 625.12128 126.801547 
L 643.410432 75.087922 
L 647.152128 63.292417 
L 650.861568 51.617666 
L 655.474176 49.3412 
L 660.828672 46.984578 
L 669.537792 43.484472 
L 670.408704 43.268927 
L 684.698112 43.108189 
L 691.504128 43.184799 
L 706.857984 43.746186 
L 734.6304 44.46146 
L 760.27392 44.774399 
L 795.884544 44.945888 
L 843.913728 44.953885 
L 947.52 44.953885 
L 947.52 44.953885 
" clip-path="url(#pfe6aabb028)" style="fill: none; stroke: #ff0000; stroke-width: 2; stroke-linecap: square"/>
   </g>
   <g id="patch_4">
    <path d="M 100.8 131.611034 
L 100.8 38.88 
" style="fill: none; stroke: #bcbcbc; stroke-width: 0.8; stroke-linejoin: miter; stroke-linecap: square"/>
   </g>
   <g id="patch_5">
    <path d="M 987.84 131.611034 
L 987.84 38.88 
" style="fill: none; stroke: #bcbcbc; stroke-width: 0.8; stroke-linejoin: miter; stroke-linecap: square"/>
   </g>
   <g id="patch_6">
    <path d="M 100.8 131.611034 
L 987.84 131.611034 
" style="fill: none; stroke: #bcbcbc; stroke-width: 0.8; stroke-linejoin: miter; stroke-linecap: square"/>
   </g>
   <g id="patch_7">
    <path d="M 100.8 38.88 
L 987.84 38.88 
" style="fill: none; stroke: #bcbcbc; stroke-width: 0.8; stroke-linejoin: miter; stroke-linecap: square"/>
   </g>
  </g>
  <g id="axes_2">
   <g id="patch_8">
    <path d="M 100.8 242.888276 
L 987.84 242.888276 
L 987.84 150.157241 
L 100.8 150.157241 
z
" style="fill: #eeeeee"/>
   </g>
   <g id="matplotlib.axis_3">
    <g id="xtick_7">
     <g id="line2d_18">
      <path d="M 141.12 242.888276 
L 141.12 150.157241 
" clip-path="url(#p91a6f15c55)" style="fill: none; stroke-dasharray: 1.85,0.8; stroke-dashoffset: 0; stroke: #b2b2b2; stroke-width: 0.5"/>
     </g>
     <g id="line2d_19">
      <g>
       <use xlink:href="#m927b7d63fe" x="141.12" y="242.888276" style="stroke: #000000; stroke-width: 0.8"/>
      </g>
     </g>
    </g>
    <g id="xtick_8">
     <g id="line2d_20">
      <path d="M 302.4 242.888276 
L 302.4 150.157241 
" clip-path="url(#p91a6f15c55)" style="fill: none; stroke-dasharray: 1.85,0.8; stroke-dashoffset: 0; stroke: #b2b2b2; stroke-width: 0.5"/>
     </g>
     <g id="line2d_21">
      <g>
       <use xlink:href="#m927b7d63fe" x="302.4" y="242.888276" style="stroke: #000000; stroke-width: 0.8"/>
      </g>
     </g>
    </g>
    <g id="xtick_9">
     <g id="line2d_22">
      <path d="M 463.68 242.888276 
L 463.68 150.157241 
" clip-path="url(#p91a6f15c55)" style="fill: none; stroke-dasharray: 1.85,0.8; stroke-dashoffset: 0; stroke: #b2b2b2; stroke-width: 0.5"/>
     </g>
     <g id="line2d_23">
      <g>
       <use xlink:href="#m927b7d63fe" x="463.68" y="242.888276" style="stroke: #000000; stroke-width: 0.8"/>
      </g>
     </g>
    </g>
    <g id="xtick_10">
     <g id="line2d_24">
      <path d="M 624.96 242.888276 
L 624.96 150.157241 
" clip-path="url(#p91a6f15c55)" style="fill: none; stroke-dasharray: 1.85,0.8; stroke-dashoffset: 0; stroke: #b2b2b2; stroke-width: 0.5"/>
     </g>
     <g id="line2d_25">
      <g>
       <use xlink:href="#m927b7d63fe" x="624.96" y="242.888276" style="stroke: #000000; stroke-width: 0.8"/>
      </g>
     </g>
    </g>
    <g id="xtick_11">
     <g id="line2d_26">
      <path d="M 786.24 242.888276 
L 786.24 150.157241 
" clip-path="url(#p91a6f15c55)" style="fill: none; stroke-dasharray: 1.85,0.8; stroke-dashoffset: 0; stroke: #b2b2b2; stroke-width: 0.5"/>
     </g>
     <g id="line2d_27">
      <g>
       <use xlink:href="#m927b7d63fe" x="786.24" y="242.888276" style="stroke: #000000; stroke-width: 0.8"/>
      </g>
     </g>
    </g>
    <g id="xtick_12">
     <g id="line2d_28">
      <path d="M 947.52 242.888276 
L 947.52 150.157241 
" clip-path="url(#p91a6f15c55)" style="fill: none; stroke-dasharray: 1.85,0.8; stroke-dashoffset: 0; stroke: #b2b2b2; stroke-width: 0.5"/>
     </g>
     <g id="line2d_29">
      <g>
       <use xlink:href="#m927b7d63fe" x="947.52" y="242.888276" style="stroke: #000000; stroke-width: 0.8"/>
      </g>
     </g>
    </g>
   </g>
   <g id="matplotlib.axis_4">
    <g id="ytick_3">
     <g id="line2d_30">
      <path d="M 100.8 219.186532 
L 987.84 219.186532 
" clip-path="url(#p91a6f15c55)" style="fill: none; stroke-dasharray: 1.85,0.8; stroke-dashoffset: 0; stroke: #b2b2b2; stroke-width: 0.5"/>
     </g>
     <g id="line2d_31">
      <g>
       <use xlink:href="#m6c9e2ea832" x="100.8" y="219.186532" style="stroke: #000000; stroke-width: 0.8"/>
      </g>
     </g>
     <g id="text_4">
      <!-- 0 V -->
      <g transform="translate(74.36625 224.505438) scale(0.14 -0.14)">
       <use xlink:href="#DejaVuSans-30"/>
       <use xlink:href="#DejaVuSans-20" x="63.623047"/>
       <use xlink:href="#DejaVuSans-56" x="95.410156"/>
      </g>
     </g>
    </g>
    <g id="ytick_4">
     <g id="line2d_32">
      <path d="M 100.8 185.516795 
L 987.84 185.516795 
" clip-path="url(#p91a6f15c55)" style="fill: none; stroke-dasharray: 1.85,0.8; stroke-dashoffset: 0; stroke: #b2b2b2; stroke-width: 0.5"/>
     </g>
     <g id="line2d_33">
      <g>
       <use xlink:href="#m6c9e2ea832" x="100.8" y="185.516795" style="stroke: #000000; stroke-width: 0.8"/>
      </g>
     </g>
     <g id="text_5">
      <!-- 1 V -->
      <g transform="translate(74.36625 190.835701) scale(0.14 -0.14)">
       <defs>
        <path id="DejaVuSans-31" d="M 794 531 
L 1825 531 
L 1825 4091 
L 703 3866 
L 703 4441 
L 1819 4666 
L 2450 4666 
L 2450 531 
L 3481 531 
L 3481 0 
L 794 0 
L 794 531 
z
" transform="scale(0.015625)"/>
       </defs>
       <use xlink:href="#DejaVuSans-31"/>
       <use xlink:href="#DejaVuSans-20" x="63.623047"/>
       <use xlink:href="#DejaVuSans-56" x="95.410156"/>
      </g>
     </g>
    </g>
    <g id="ytick_5">
     <g id="line2d_34">
      <path d="M 100.8 151.847058 
L 987.84 151.847058 
" clip-path="url(#p91a6f15c55)" style="fill: none; stroke-dasharray: 1.85,0.8; stroke-dashoffset: 0; stroke: #b2b2b2; stroke-width: 0.5"/>
     </g>
     <g id="line2d_35">
      <g>
       <use xlink:href="#m6c9e2ea832" x="100.8" y="151.847058" style="stroke: #000000; stroke-width: 0.8"/>
      </g>
     </g>
     <g id="text_6">
      <!-- 2 V -->
      <g transform="translate(74.36625 157.165964) scale(0.14 -0.14)">
       <use xlink:href="#DejaVuSans-32"/>
       <use xlink:href="#DejaVuSans-20" x="63.623047"/>
       <use xlink:href="#DejaVuSans-56" x="95.410156"/>
      </g>
     </g>
    </g>
    <g id="text_7">
     <g id="patch_9">
      <path d="M 34.8768 224.531509 
L 34.8768 168.514009 
L 11.247425 168.514009 
L 11.247425 224.531509 
z
" style="fill: #ffff00; opacity: 0.2; stroke: #eeeeee; stroke-width: 0.5; stroke-linejoin: miter"/>
     </g>
     <!-- DFF IN -->
     <g transform="translate(26.925238 219.491509) rotate(-90) scale(0.14 -0.14)">
      <defs>
       <path id="DejaVuSans-44" d="M 1259 4147 
L 1259 519 
L 2022 519 
Q 2988 519 3436 956 
Q 3884 1394 3884 2338 
Q 3884 3275 3436 3711 
Q 2988 4147 2022 4147 
L 1259 4147 
z
M 628 4666 
L 1925 4666 
Q 3281 4666 3915 4102 
Q 4550 3538 4550 2338 
Q 4550 1131 3912 565 
Q 3275 0 1925 0 
L 628 0 
L 628 4666 
z
" transform="scale(0.015625)"/>
       <path id="DejaVuSans-46" d="M 628 4666 
L 3309 4666 
L 3309 4134 
L 1259 4134 
L 1259 2759 
L 3109 2759 
L 3109 2228 
L 1259 2228 
L 1259 0 
L 628 0 
L 628 4666 
z
" transform="scale(0.015625)"/>
       <path id="DejaVuSans-4e" d="M 628 4666 
L 1478 4666 
L 3547 763 
L 3547 4666 
L 4159 4666 
L 4159 0 
L 3309 0 
L 1241 3903 
L 1241 0 
L 628 0 
L 628 4666 
z
" transform="scale(0.015625)"/>
      </defs>
      <use xlink:href="#DejaVuSans-44"/>
      <use xlink:href="#DejaVuSans-46" x="77.001953"/>
      <use xlink:href="#DejaVuSans-46" x="134.521484"/>
      <use xlink:href="#DejaVuSans-20" x="192.041016"/>
      <use xlink:href="#DejaVuSans-49" x="223.828125"/>
      <use xlink:href="#DejaVuSans-4e" x="253.320312"/>
     </g>
    </g>
   </g>
   <g id="line2d_36">
    <path d="M 141.12 219.137361 
L 221.953536 219.091189 
L 224.437248 200.330806 
L 225.404928 194.623785 
L 228.243456 182.075748 
L 229.598208 180.8165 
L 231.178752 179.951188 
L 236.565504 179.500013 
L 243.661824 179.388903 
L 245.1456 179.345132 
L 248.403456 179.234022 
L 250.113024 179.166683 
L 252.177408 179.055573 
L 254.241792 178.728976 
L 254.757888 178.196994 
L 255.499776 177.860297 
L 256.370688 177.880499 
L 257.531904 178.11282 
L 259.98336 178.51349 
L 262.370304 178.651536 
L 263.886336 178.70204 
L 264.144384 183.893914 
L 264.434688 187.426543 
L 265.176576 192.132562 
L 267.144192 209.309851 
L 268.402176 215.759289 
L 269.079552 217.074429 
L 270.46656 218.777647 
L 273.724416 219.18835 
L 282.56256 219.141586 
L 297.07776 219.130947 
L 305.851392 219.136553 
L 347.751936 219.092869 
L 350.235648 200.370536 
L 351.622656 191.810679 
L 352.687104 186.466618 
L 354.97728 179.634692 
L 358.493184 178.644802 
L 360.235008 178.715508 
L 363.073536 178.826618 
L 364.396032 178.853554 
L 375.169536 178.924261 
L 375.717888 179.907417 
L 376.169472 180.651518 
L 377.008128 181.5505 
L 377.524224 181.499995 
L 378.427392 181.210436 
L 380.427264 180.082499 
L 381.58848 179.712132 
L 387.201024 179.237389 
L 389.65248 179.126279 
L 391.813632 179.011802 
L 394.555392 178.900692 
L 395.9424 178.867022 
L 415.392768 178.759279 
L 415.973376 178.139756 
L 416.844288 177.806425 
L 417.908736 177.910801 
L 419.16672 178.19026 
L 420.908544 178.442783 
L 424.00512 178.654903 
L 455.712768 178.755912 
L 456.809472 179.638059 
L 457.261056 179.708765 
L 458.712576 179.749169 
L 462.744576 179.217187 
L 464.16384 179.032004 
L 467.518464 178.792949 
L 496.065024 178.712141 
L 496.58112 178.176792 
L 497.258496 177.873765 
L 498.387456 177.867031 
L 502.06464 178.523591 
L 504.258048 178.641435 
L 536.352768 178.752545 
L 537.255936 179.550518 
L 537.901056 179.708765 
L 539.384832 179.752536 
L 542.22336 179.345132 
L 544.223232 179.038738 
L 546.771456 178.883857 
L 560.577024 178.961297 
L 563.060736 182.897289 
L 569.64096 192.012361 
L 570.028032 193.114371 
L 571.350528 197.762815 
L 571.89888 199.925086 
L 572.640768 202.948291 
L 573.3504 206.2954 
L 574.64064 211.823297 
L 575.93088 216.37659 
L 576.059904 216.800021 
L 576.576 218.651486 
L 576.834048 219.545014 
L 577.253376 220.880759 
L 577.350144 221.207188 
L 578.02752 223.22488 
L 578.253312 223.617133 
L 579.188736 225.823847 
L 579.64032 226.337647 
L 580.478976 228.301266 
L 580.93056 229.155804 
L 581.640192 230.654108 
L 582.027264 231.357132 
L 584.220672 235.313999 
L 586.478592 238.64461 
L 586.543104 238.533836 
L 586.833408 238.041921 
L 587.188224 237.634854 
L 587.510784 237.108933 
L 587.962368 236.231163 
L 588.930048 235.229151 
L 589.188096 234.833195 
L 589.575168 234.170238 
L 589.897728 233.952732 
L 590.155776 233.740949 
L 590.381568 233.5359 
L 591.800832 232.104937 
L 591.994368 231.936251 
L 592.252416 231.713694 
L 592.510464 231.44501 
L 592.800768 231.217402 
L 593.5104 230.816732 
L 594.284544 229.996201 
L 594.574848 229.611356 
L 594.63936 229.533915 
L 594.897408 229.218767 
L 595.090944 229.154794 
L 595.316736 229.053112 
L 595.574784 228.906312 
L 595.9296 228.716078 
L 597.21984 227.593865 
L 597.477888 227.261882 
L 598.219776 226.616096 
L 598.542336 226.510036 
L 599.768064 225.574018 
L 601.671168 224.107364 
L 602.993664 223.139359 
L 605.219328 221.423044 
L 605.993472 220.732579 
L 607.025664 219.388365 
L 608.0256 217.985936 
L 608.638464 217.167358 
L 609.670656 215.701377 
L 612.605952 211.96269 
L 613.18656 211.30209 
L 614.767104 209.529715 
L 615.057408 208.791337 
L 617.315328 202.483649 
L 617.734656 201.655373 
L 619.928064 198.490081 
L 620.573184 197.574938 
L 621.347328 196.615687 
L 622.282752 195.649366 
L 623.379456 194.319074 
L 624.96 192.769256 
L 625.185792 192.204952 
L 627.443712 185.402318 
L 628.282368 183.897281 
L 629.217792 182.550491 
L 635.76576 174.173461 
L 637.410816 171.961359 
L 645.249024 161.974915 
L 646.023168 160.961456 
L 650.829312 155.102922 
L 652.3776 155.480023 
L 653.313024 155.493491 
L 655.635456 155.847023 
L 657.280512 156.267895 
L 657.409536 155.809986 
L 657.796608 154.769591 
L 658.151424 154.412692 
L 658.473984 154.382389 
L 658.861056 154.533903 
L 660.054528 155.274637 
L 660.731904 155.974968 
L 661.699584 156.924454 
L 662.731776 157.651721 
L 664.538112 158.473262 
L 670.569984 160.469878 
L 671.182848 160.783006 
L 673.311744 161.76953 
L 683.246592 165.799797 
L 684.085248 166.08599 
L 685.665792 166.628073 
L 696.632832 169.947909 
L 697.632768 170.244202 
L 698.245632 171.651597 
L 698.729472 172.126341 
L 699.052032 172.200414 
L 699.503616 171.995029 
L 700.084224 171.601093 
L 701.24544 171.234093 
L 704.083968 171.641496 
L 705.148416 171.86035 
L 706.212864 172.079203 
L 707.2128 172.281221 
L 708.438528 172.520277 
L 709.406208 172.708827 
L 710.76096 172.96135 
L 711.56736 173.10613 
L 712.244736 173.21724 
L 713.98656 173.510167 
L 714.760704 173.641479 
L 715.534848 173.749222 
L 717.437952 174.038782 
L 718.147584 174.139791 
L 718.599168 174.210497 
L 719.405568 174.314874 
L 720.147456 174.432718 
L 721.534464 174.611167 
L 737.952768 176.230682 
L 738.404352 175.708801 
L 739.081728 175.40914 
L 739.565568 175.419241 
L 740.2752 175.597691 
L 740.92032 175.813177 
L 741.984768 176.146507 
L 743.307264 176.446168 
L 744.95232 176.681856 
L 746.049024 176.789599 
L 746.919936 176.863673 
L 747.5328 176.91081 
L 750.468096 177.106095 
L 752.629248 177.213838 
L 753.080832 177.247508 
L 753.82272 177.281177 
L 755.725824 177.368719 
L 758.370816 177.479829 
L 760.015872 177.543801 
L 760.790016 177.574104 
L 764.241408 177.685214 
L 764.660736 177.708783 
L 768.4992 177.819893 
L 769.14432 177.846829 
L 770.015232 177.867031 
L 771.434496 177.904068 
L 776.143872 178.015178 
L 776.821248 178.04548 
L 778.305024 178.119554 
L 778.917888 178.782848 
L 779.62752 179.099343 
L 780.659712 179.106077 
L 783.078912 178.462985 
L 784.336896 178.351875 
L 785.659392 178.324939 
L 798.690816 178.429315 
L 799.110144 178.44615 
L 818.625024 178.372077 
L 819.14112 177.809792 
L 819.689472 177.537067 
L 821.624832 177.644811 
L 822.947328 177.944471 
L 824.62464 178.183526 
L 827.076096 178.328306 
L 858.912768 178.419214 
L 859.848192 179.24749 
L 860.783616 179.42594 
L 862.073856 179.456242 
L 864.847872 178.988233 
L 870.75072 178.483187 
L 899.265024 178.372077 
L 899.78112 177.809792 
L 900.329472 177.537067 
L 902.264832 177.644811 
L 905.522688 178.213829 
L 907.68384 178.328306 
L 939.552768 178.419214 
L 940.617216 179.277793 
L 941.55264 179.462976 
L 943.455744 179.355233 
L 946.423296 178.84682 
L 947.52 178.675104 
L 947.52 178.675104 
" clip-path="url(#p91a6f15c55)" style="fill: none; stroke: #008000; stroke-width: 2; stroke-linecap: square"/>
   </g>
   <g id="patch_10">
    <path d="M 100.8 242.888276 
L 100.8 150.157241 
" style="fill: none; stroke: #bcbcbc; stroke-width: 0.8; stroke-linejoin: miter; stroke-linecap: square"/>
   </g>
   <g id="patch_11">
    <path d="M 987.84 242.888276 
L 987.84 150.157241 
" style="fill: none; stroke: #bcbcbc; stroke-width: 0.8; stroke-linejoin: miter; stroke-linecap: square"/>
   </g>
   <g id="patch_12">
    <path d="M 100.8 242.888276 
L 987.84 242.888276 
" style="fill: none; stroke: #bcbcbc; stroke-width: 0.8; stroke-linejoin: miter; stroke-linecap: square"/>
   </g>
   <g id="patch_13">
    <path d="M 100.8 150.157241 
L 987.84 150.157241 
" style="fill: none; stroke: #bcbcbc; stroke-width: 0.8; stroke-linejoin: miter; stroke-linecap: square"/>
   </g>
  </g>
  <g id="axes_3">
   <g id="patch_14">
    <path d="M 100.8 354.165517 
L 987.84 354.165517 
L 987.84 261.434483 
L 100.8 261.434483 
z
" style="fill: #eeeeee"/>
   </g>
   <g id="matplotlib.axis_5">
    <g id="xtick_13">
     <g id="line2d_37">
      <path d="M 141.12 354.165517 
L 141.12 261.434483 
" clip-path="url(#p833bcae485)" style="fill: none; stroke-dasharray: 1.85,0.8; stroke-dashoffset: 0; stroke: #b2b2b2; stroke-width: 0.5"/>
     </g>
     <g id="line2d_38">
      <g>
       <use xlink:href="#m927b7d63fe" x="141.12" y="354.165517" style="stroke: #000000; stroke-width: 0.8"/>
      </g>
     </g>
    </g>
    <g id="xtick_14">
     <g id="line2d_39">
      <path d="M 302.4 354.165517 
L 302.4 261.434483 
" clip-path="url(#p833bcae485)" style="fill: none; stroke-dasharray: 1.85,0.8; stroke-dashoffset: 0; stroke: #b2b2b2; stroke-width: 0.5"/>
     </g>
     <g id="line2d_40">
      <g>
       <use xlink:href="#m927b7d63fe" x="302.4" y="354.165517" style="stroke: #000000; stroke-width: 0.8"/>
      </g>
     </g>
    </g>
    <g id="xtick_15">
     <g id="line2d_41">
      <path d="M 463.68 354.165517 
L 463.68 261.434483 
" clip-path="url(#p833bcae485)" style="fill: none; stroke-dasharray: 1.85,0.8; stroke-dashoffset: 0; stroke: #b2b2b2; stroke-width: 0.5"/>
     </g>
     <g id="line2d_42">
      <g>
       <use xlink:href="#m927b7d63fe" x="463.68" y="354.165517" style="stroke: #000000; stroke-width: 0.8"/>
      </g>
     </g>
    </g>
    <g id="xtick_16">
     <g id="line2d_43">
      <path d="M 624.96 354.165517 
L 624.96 261.434483 
" clip-path="url(#p833bcae485)" style="fill: none; stroke-dasharray: 1.85,0.8; stroke-dashoffset: 0; stroke: #b2b2b2; stroke-width: 0.5"/>
     </g>
     <g id="line2d_44">
      <g>
       <use xlink:href="#m927b7d63fe" x="624.96" y="354.165517" style="stroke: #000000; stroke-width: 0.8"/>
      </g>
     </g>
    </g>
    <g id="xtick_17">
     <g id="line2d_45">
      <path d="M 786.24 354.165517 
L 786.24 261.434483 
" clip-path="url(#p833bcae485)" style="fill: none; stroke-dasharray: 1.85,0.8; stroke-dashoffset: 0; stroke: #b2b2b2; stroke-width: 0.5"/>
     </g>
     <g id="line2d_46">
      <g>
       <use xlink:href="#m927b7d63fe" x="786.24" y="354.165517" style="stroke: #000000; stroke-width: 0.8"/>
      </g>
     </g>
    </g>
    <g id="xtick_18">
     <g id="line2d_47">
      <path d="M 947.52 354.165517 
L 947.52 261.434483 
" clip-path="url(#p833bcae485)" style="fill: none; stroke-dasharray: 1.85,0.8; stroke-dashoffset: 0; stroke: #b2b2b2; stroke-width: 0.5"/>
     </g>
     <g id="line2d_48">
      <g>
       <use xlink:href="#m927b7d63fe" x="947.52" y="354.165517" style="stroke: #000000; stroke-width: 0.8"/>
      </g>
     </g>
    </g>
   </g>
   <g id="matplotlib.axis_6">
    <g id="ytick_6">
     <g id="line2d_49">
      <path d="M 100.8 348.405634 
L 987.84 348.405634 
" clip-path="url(#p833bcae485)" style="fill: none; stroke-dasharray: 1.85,0.8; stroke-dashoffset: 0; stroke: #b2b2b2; stroke-width: 0.5"/>
     </g>
     <g id="line2d_50">
      <g>
       <use xlink:href="#m6c9e2ea832" x="100.8" y="348.405634" style="stroke: #000000; stroke-width: 0.8"/>
      </g>
     </g>
     <g id="text_8">
      <!-- 0 V -->
      <g transform="translate(74.36625 353.72454) scale(0.14 -0.14)">
       <use xlink:href="#DejaVuSans-30"/>
       <use xlink:href="#DejaVuSans-20" x="63.623047"/>
       <use xlink:href="#DejaVuSans-56" x="95.410156"/>
      </g>
     </g>
    </g>
    <g id="ytick_7">
     <g id="line2d_51">
      <path d="M 100.8 304.589197 
L 987.84 304.589197 
" clip-path="url(#p833bcae485)" style="fill: none; stroke-dasharray: 1.85,0.8; stroke-dashoffset: 0; stroke: #b2b2b2; stroke-width: 0.5"/>
     </g>
     <g id="line2d_52">
      <g>
       <use xlink:href="#m6c9e2ea832" x="100.8" y="304.589197" style="stroke: #000000; stroke-width: 0.8"/>
      </g>
     </g>
     <g id="text_9">
      <!-- 1 V -->
      <g transform="translate(74.36625 309.908103) scale(0.14 -0.14)">
       <use xlink:href="#DejaVuSans-31"/>
       <use xlink:href="#DejaVuSans-20" x="63.623047"/>
       <use xlink:href="#DejaVuSans-56" x="95.410156"/>
      </g>
     </g>
    </g>
    <g id="text_10">
     <g id="patch_15">
      <path d="M 34.8768 342.395313 
L 34.8768 273.204688 
L 11.247425 273.204688 
L 11.247425 342.395313 
z
" style="fill: #ffff00; opacity: 0.2; stroke: #eeeeee; stroke-width: 0.5; stroke-linejoin: miter"/>
     </g>
     <!-- CLK BUF -->
     <g transform="translate(26.925238 337.355313) rotate(-90) scale(0.14 -0.14)">
      <defs>
       <path id="DejaVuSans-43" d="M 4122 4306 
L 4122 3641 
Q 3803 3938 3442 4084 
Q 3081 4231 2675 4231 
Q 1875 4231 1450 3742 
Q 1025 3253 1025 2328 
Q 1025 1406 1450 917 
Q 1875 428 2675 428 
Q 3081 428 3442 575 
Q 3803 722 4122 1019 
L 4122 359 
Q 3791 134 3420 21 
Q 3050 -91 2638 -91 
Q 1578 -91 968 557 
Q 359 1206 359 2328 
Q 359 3453 968 4101 
Q 1578 4750 2638 4750 
Q 3056 4750 3426 4639 
Q 3797 4528 4122 4306 
z
" transform="scale(0.015625)"/>
       <path id="DejaVuSans-4b" d="M 628 4666 
L 1259 4666 
L 1259 2694 
L 3353 4666 
L 4166 4666 
L 1850 2491 
L 4331 0 
L 3500 0 
L 1259 2247 
L 1259 0 
L 628 0 
L 628 4666 
z
" transform="scale(0.015625)"/>
      </defs>
      <use xlink:href="#DejaVuSans-43"/>
      <use xlink:href="#DejaVuSans-4c" x="69.824219"/>
      <use xlink:href="#DejaVuSans-4b" x="125.537109"/>
      <use xlink:href="#DejaVuSans-20" x="191.113281"/>
      <use xlink:href="#DejaVuSans-42" x="222.900391"/>
      <use xlink:href="#DejaVuSans-55" x="291.503906"/>
      <use xlink:href="#DejaVuSans-46" x="364.697266"/>
     </g>
    </g>
   </g>
   <g id="line2d_53">
    <path d="M 141.12 348.404476 
L 173.376 348.404476 
L 173.601792 295.82591 
L 213.696 295.82591 
L 213.760512 337.766565 
L 213.825024 348.385617 
L 213.889536 348.322563 
L 213.954048 348.497605 
L 214.01856 348.410382 
L 215.341056 348.401189 
L 223.276032 348.404448 
L 254.016 348.404445 
L 254.17728 295.663789 
L 254.241792 295.944214 
L 254.403072 295.817147 
L 254.854656 295.82591 
L 294.336 295.82591 
L 294.400512 337.729759 
L 294.465024 348.732597 
L 294.529536 347.970791 
L 294.626304 348.474492 
L 294.65856 348.443312 
L 294.852096 348.366298 
L 295.206912 348.421578 
L 295.497216 348.404134 
L 320.237568 348.404475 
L 334.656 348.404478 
L 334.81728 295.74704 
L 334.881792 295.843436 
L 335.204352 295.830291 
L 336.043008 295.82591 
L 374.976 295.82591 
L 375.040512 337.770509 
L 375.105024 348.406345 
L 375.169536 348.317007 
L 375.234048 348.491085 
L 375.29856 348.410528 
L 376.685568 348.40081 
L 384.910848 348.404423 
L 415.296 348.404477 
L 415.45728 295.663789 
L 415.521792 295.944214 
L 415.683072 295.812765 
L 416.58624 295.82591 
L 455.616 295.82591 
L 455.680512 337.732388 
L 455.745024 348.737995 
L 455.809536 347.768412 
L 455.906304 349.048509 
L 455.93856 348.476902 
L 456.132096 348.379319 
L 456.519168 348.404929 
L 489.388032 348.404474 
L 495.936 348.404475 
L 496.09728 295.738277 
L 496.161792 295.843436 
L 497.097216 295.82591 
L 536.256 295.82591 
L 536.320512 337.732388 
L 536.385024 348.737947 
L 536.449536 347.768499 
L 536.546304 349.048421 
L 536.57856 348.476897 
L 536.772096 348.379321 
L 537.159168 348.404929 
L 560.448 348.435405 
L 560.706048 348.714636 
L 561.383424 349.277844 
L 562.189824 349.640294 
L 563.286528 349.863582 
L 564.996096 349.949813 
L 569.15712 349.856747 
L 576.576 349.576409 
L 576.608256 349.083562 
L 576.769536 322.28096 
L 577.027584 322.618785 
L 578.83392 324.939741 
L 580.962816 327.03811 
L 582.769152 328.544081 
L 583.285248 328.93361 
L 584.930304 330.110081 
L 586.285056 330.9553 
L 591.607296 328.738188 
L 591.671808 328.741255 
L 591.800832 328.634781 
L 591.929856 328.659757 
L 592.091136 328.495445 
L 592.22016 328.49676 
L 592.349184 328.457763 
L 592.478208 328.397296 
L 592.736256 328.330695 
L 606.025728 323.525785 
L 608.541696 321.99922 
L 616.896 316.628201 
L 616.928256 315.033721 
L 616.960512 317.565435 
L 617.05728 348.750005 
L 617.121792 347.894603 
L 617.799168 347.901526 
L 618.412032 347.912436 
L 625.024512 347.895173 
L 625.669632 347.26001 
L 626.443776 346.842527 
L 627.443712 346.588479 
L 628.895232 346.479814 
L 631.604736 346.530554 
L 646.152192 346.933183 
L 650.216448 347.037641 
L 650.829312 347.15818 
L 651.474432 347.810651 
L 652.21632 348.245108 
L 653.151744 348.537031 
L 654.506496 348.718273 
L 656.957952 348.799351 
L 657.216 348.801358 
L 657.248256 339.520975 
L 657.345024 265.64953 
L 657.37728 266.105221 
L 657.506304 266.078931 
L 659.054592 266.79752 
L 661.344768 267.844733 
L 661.828608 268.10325 
L 670.537728 271.766304 
L 671.150592 272.129981 
L 671.795712 272.506802 
L 672.408576 272.866097 
L 674.279424 273.996561 
L 674.666496 274.215643 
L 675.311616 274.609991 
L 676.08576 275.043774 
L 682.2144 278.251137 
L 683.956224 279.079268 
L 685.310976 279.692698 
L 697.536 284.565086 
L 697.729536 348.799912 
L 697.794048 348.703393 
L 698.148864 348.696856 
L 737.856 348.492465 
L 737.985024 292.28116 
L 738.081792 292.671126 
L 739.372032 292.771904 
L 739.823616 292.846392 
L 741.210624 292.94717 
L 741.56544 292.977841 
L 743.98464 293.201305 
L 744.500736 293.24074 
L 745.855488 293.341518 
L 746.210304 293.376571 
L 746.694144 293.416006 
L 748.468224 293.547455 
L 750.016512 293.648233 
L 750.371328 293.678904 
L 751.951872 293.779682 
L 752.306688 293.810354 
L 754.080768 293.911132 
L 754.435584 293.941803 
L 756.306432 294.042581 
L 756.661248 294.073252 
L 758.725632 294.17403 
L 759.080448 294.204702 
L 761.338368 294.305479 
L 761.693184 294.336151 
L 764.241408 294.436929 
L 764.596224 294.4676 
L 767.337984 294.568378 
L 767.6928 294.59905 
L 770.821632 294.699827 
L 771.176448 294.730499 
L 774.78912 294.831277 
L 775.143936 294.861948 
L 778.176 294.949581 
L 778.208256 299.379423 
L 778.272768 348.540098 
L 778.33728 348.211115 
L 778.434048 348.441692 
L 778.466304 348.428621 
L 786.465792 348.424313 
L 791.0784 348.420713 
L 818.496 348.417019 
L 818.65728 295.1599 
L 818.721792 295.655026 
L 818.81856 295.203716 
L 818.883072 295.370219 
L 819.366912 295.387745 
L 858.816 295.387745 
L 858.945024 348.740471 
L 859.106304 348.485428 
L 859.364352 348.387748 
L 859.719168 348.435445 
L 860.041728 348.416795 
L 897.136128 348.417022 
L 899.136 348.417024 
L 899.29728 295.1599 
L 899.361792 295.655026 
L 899.45856 295.203716 
L 899.523072 295.370219 
L 900.006912 295.387745 
L 939.456 295.387745 
L 939.488256 303.287849 
L 939.61728 348.364912 
L 939.649536 348.492325 
L 939.714048 348.370421 
L 939.746304 348.331974 
L 939.810816 348.388526 
L 940.004352 348.443245 
L 940.197888 348.416298 
L 945.520128 348.417029 
L 947.52 348.417013 
L 947.52 348.417013 
" clip-path="url(#p833bcae485)" style="fill: none; stroke: #0000ff; stroke-width: 2; stroke-linecap: square"/>
   </g>
   <g id="patch_16">
    <path d="M 100.8 354.165517 
L 100.8 261.434483 
" style="fill: none; stroke: #bcbcbc; stroke-width: 0.8; stroke-linejoin: miter; stroke-linecap: square"/>
   </g>
   <g id="patch_17">
    <path d="M 987.84 354.165517 
L 987.84 261.434483 
" style="fill: none; stroke: #bcbcbc; stroke-width: 0.8; stroke-linejoin: miter; stroke-linecap: square"/>
   </g>
   <g id="patch_18">
    <path d="M 100.8 354.165517 
L 987.84 354.165517 
" style="fill: none; stroke: #bcbcbc; stroke-width: 0.8; stroke-linejoin: miter; stroke-linecap: square"/>
   </g>
   <g id="patch_19">
    <path d="M 100.8 261.434483 
L 987.84 261.434483 
" style="fill: none; stroke: #bcbcbc; stroke-width: 0.8; stroke-linejoin: miter; stroke-linecap: square"/>
   </g>
  </g>
  <g id="axes_4">
   <g id="patch_20">
    <path d="M 100.8 465.442759 
L 987.84 465.442759 
L 987.84 372.711724 
L 100.8 372.711724 
z
" style="fill: #eeeeee"/>
   </g>
   <g id="matplotlib.axis_7">
    <g id="xtick_19">
     <g id="line2d_54">
      <path d="M 141.12 465.442759 
L 141.12 372.711724 
" clip-path="url(#p882dfe4f91)" style="fill: none; stroke-dasharray: 1.85,0.8; stroke-dashoffset: 0; stroke: #b2b2b2; stroke-width: 0.5"/>
     </g>
     <g id="line2d_55">
      <g>
       <use xlink:href="#m927b7d63fe" x="141.12" y="465.442759" style="stroke: #000000; stroke-width: 0.8"/>
      </g>
     </g>
    </g>
    <g id="xtick_20">
     <g id="line2d_56">
      <path d="M 302.4 465.442759 
L 302.4 372.711724 
" clip-path="url(#p882dfe4f91)" style="fill: none; stroke-dasharray: 1.85,0.8; stroke-dashoffset: 0; stroke: #b2b2b2; stroke-width: 0.5"/>
     </g>
     <g id="line2d_57">
      <g>
       <use xlink:href="#m927b7d63fe" x="302.4" y="465.442759" style="stroke: #000000; stroke-width: 0.8"/>
      </g>
     </g>
    </g>
    <g id="xtick_21">
     <g id="line2d_58">
      <path d="M 463.68 465.442759 
L 463.68 372.711724 
" clip-path="url(#p882dfe4f91)" style="fill: none; stroke-dasharray: 1.85,0.8; stroke-dashoffset: 0; stroke: #b2b2b2; stroke-width: 0.5"/>
     </g>
     <g id="line2d_59">
      <g>
       <use xlink:href="#m927b7d63fe" x="463.68" y="465.442759" style="stroke: #000000; stroke-width: 0.8"/>
      </g>
     </g>
    </g>
    <g id="xtick_22">
     <g id="line2d_60">
      <path d="M 624.96 465.442759 
L 624.96 372.711724 
" clip-path="url(#p882dfe4f91)" style="fill: none; stroke-dasharray: 1.85,0.8; stroke-dashoffset: 0; stroke: #b2b2b2; stroke-width: 0.5"/>
     </g>
     <g id="line2d_61">
      <g>
       <use xlink:href="#m927b7d63fe" x="624.96" y="465.442759" style="stroke: #000000; stroke-width: 0.8"/>
      </g>
     </g>
    </g>
    <g id="xtick_23">
     <g id="line2d_62">
      <path d="M 786.24 465.442759 
L 786.24 372.711724 
" clip-path="url(#p882dfe4f91)" style="fill: none; stroke-dasharray: 1.85,0.8; stroke-dashoffset: 0; stroke: #b2b2b2; stroke-width: 0.5"/>
     </g>
     <g id="line2d_63">
      <g>
       <use xlink:href="#m927b7d63fe" x="786.24" y="465.442759" style="stroke: #000000; stroke-width: 0.8"/>
      </g>
     </g>
    </g>
    <g id="xtick_24">
     <g id="line2d_64">
      <path d="M 947.52 465.442759 
L 947.52 372.711724 
" clip-path="url(#p882dfe4f91)" style="fill: none; stroke-dasharray: 1.85,0.8; stroke-dashoffset: 0; stroke: #b2b2b2; stroke-width: 0.5"/>
     </g>
     <g id="line2d_65">
      <g>
       <use xlink:href="#m927b7d63fe" x="947.52" y="465.442759" style="stroke: #000000; stroke-width: 0.8"/>
      </g>
     </g>
    </g>
   </g>
   <g id="matplotlib.axis_8">
    <g id="ytick_8">
     <g id="line2d_66">
      <path d="M 100.8 441.968528 
L 987.84 441.968528 
" clip-path="url(#p882dfe4f91)" style="fill: none; stroke-dasharray: 1.85,0.8; stroke-dashoffset: 0; stroke: #b2b2b2; stroke-width: 0.5"/>
     </g>
     <g id="line2d_67">
      <g>
       <use xlink:href="#m6c9e2ea832" x="100.8" y="441.968528" style="stroke: #000000; stroke-width: 0.8"/>
      </g>
     </g>
     <g id="text_11">
      <!-- 0 V -->
      <g transform="translate(74.36625 447.287435) scale(0.14 -0.14)">
       <use xlink:href="#DejaVuSans-30"/>
       <use xlink:href="#DejaVuSans-20" x="63.623047"/>
       <use xlink:href="#DejaVuSans-56" x="95.410156"/>
      </g>
     </g>
    </g>
    <g id="ytick_9">
     <g id="line2d_68">
      <path d="M 100.8 408.32392 
L 987.84 408.32392 
" clip-path="url(#p882dfe4f91)" style="fill: none; stroke-dasharray: 1.85,0.8; stroke-dashoffset: 0; stroke: #b2b2b2; stroke-width: 0.5"/>
     </g>
     <g id="line2d_69">
      <g>
       <use xlink:href="#m6c9e2ea832" x="100.8" y="408.32392" style="stroke: #000000; stroke-width: 0.8"/>
      </g>
     </g>
     <g id="text_12">
      <!-- 1 V -->
      <g transform="translate(74.36625 413.642826) scale(0.14 -0.14)">
       <use xlink:href="#DejaVuSans-31"/>
       <use xlink:href="#DejaVuSans-20" x="63.623047"/>
       <use xlink:href="#DejaVuSans-56" x="95.410156"/>
      </g>
     </g>
    </g>
    <g id="ytick_10">
     <g id="line2d_70">
      <path d="M 100.8 374.679311 
L 987.84 374.679311 
" clip-path="url(#p882dfe4f91)" style="fill: none; stroke-dasharray: 1.85,0.8; stroke-dashoffset: 0; stroke: #b2b2b2; stroke-width: 0.5"/>
     </g>
     <g id="line2d_71">
      <g>
       <use xlink:href="#m6c9e2ea832" x="100.8" y="374.679311" style="stroke: #000000; stroke-width: 0.8"/>
      </g>
     </g>
     <g id="text_13">
      <!-- 2 V -->
      <g transform="translate(74.36625 379.998218) scale(0.14 -0.14)">
       <use xlink:href="#DejaVuSans-32"/>
       <use xlink:href="#DejaVuSans-20" x="63.623047"/>
       <use xlink:href="#DejaVuSans-56" x="95.410156"/>
      </g>
     </g>
    </g>
    <g id="text_14">
     <g id="patch_21">
      <path d="M 34.8768 454.693023 
L 34.8768 383.46146 
L 11.247425 383.46146 
L 11.247425 454.693023 
z
" style="fill: #ffff00; opacity: 0.2; stroke: #eeeeee; stroke-width: 0.5; stroke-linejoin: miter"/>
     </g>
     <!-- DFF OUT -->
     <g transform="translate(26.925238 449.653023) rotate(-90) scale(0.14 -0.14)">
      <defs>
       <path id="DejaVuSans-4f" d="M 2522 4238 
Q 1834 4238 1429 3725 
Q 1025 3213 1025 2328 
Q 1025 1447 1429 934 
Q 1834 422 2522 422 
Q 3209 422 3611 934 
Q 4013 1447 4013 2328 
Q 4013 3213 3611 3725 
Q 3209 4238 2522 4238 
z
M 2522 4750 
Q 3503 4750 4090 4092 
Q 4678 3434 4678 2328 
Q 4678 1225 4090 567 
Q 3503 -91 2522 -91 
Q 1538 -91 948 565 
Q 359 1222 359 2328 
Q 359 3434 948 4092 
Q 1538 4750 2522 4750 
z
" transform="scale(0.015625)"/>
       <path id="DejaVuSans-54" d="M -19 4666 
L 3928 4666 
L 3928 4134 
L 2272 4134 
L 2272 0 
L 1638 0 
L 1638 4134 
L -19 4134 
L -19 4666 
z
" transform="scale(0.015625)"/>
      </defs>
      <use xlink:href="#DejaVuSans-44"/>
      <use xlink:href="#DejaVuSans-46" x="77.001953"/>
      <use xlink:href="#DejaVuSans-46" x="134.521484"/>
      <use xlink:href="#DejaVuSans-20" x="192.041016"/>
      <use xlink:href="#DejaVuSans-4f" x="223.828125"/>
      <use xlink:href="#DejaVuSans-55" x="302.539062"/>
      <use xlink:href="#DejaVuSans-54" x="375.732422"/>
     </g>
    </g>
   </g>
   <g id="line2d_72">
    <path d="M 141.12 416.582662 
L 173.408256 416.623708 
L 173.440512 418.016595 
L 173.601792 441.970582 
L 174.214656 441.967569 
L 186.213888 441.967621 
L 254.048256 441.969041 
L 254.080512 442.103537 
L 254.112768 441.881062 
L 254.306304 438.596329 
L 254.628864 437.841681 
L 254.693376 437.468226 
L 255.14496 431.57369 
L 255.370752 417.719513 
L 255.596544 401.921351 
L 255.757824 401.645465 
L 255.983616 401.591634 
L 257.08032 401.594998 
L 295.755264 401.662287 
L 296.239104 403.839094 
L 296.59392 403.294051 
L 297.980928 401.864155 
L 299.690496 401.618549 
L 334.720512 401.510887 
L 334.752768 402.005462 
L 334.785024 404.451425 
L 334.914048 441.954737 
L 334.97856 441.925127 
L 335.13984 441.961477 
L 335.591424 441.967748 
L 372.5568 441.967602 
L 415.328256 441.969021 
L 415.360512 442.10307 
L 415.392768 441.882926 
L 415.586304 438.517937 
L 415.876608 437.745794 
L 415.94112 437.223629 
L 416.521728 422.047892 
L 416.9088 401.706025 
L 417.102336 401.598363 
L 418.424832 401.568082 
L 419.747328 401.594998 
L 495.968256 401.608456 
L 496.000512 401.722848 
L 496.065024 401.568082 
L 496.387584 401.588269 
L 560.544768 401.67911 
L 562.189824 403.54975 
L 568.447488 412.213237 
L 569.060352 413.496778 
L 571.479552 422.104415 
L 571.57632 422.383665 
L 571.608576 422.150172 
L 571.673088 422.252115 
L 571.705344 422.369871 
L 571.866624 423.641974 
L 572.38272 425.48738 
L 572.608512 426.538438 
L 573.382656 429.650564 
L 573.447168 429.333632 
L 573.51168 429.683872 
L 573.67296 430.763528 
L 575.963136 439.348925 
L 575.995392 439.041447 
L 576.027648 439.408342 
L 576.350208 440.722736 
L 576.543744 441.31589 
L 576.576 440.93473 
L 576.608256 441.032502 
L 576.769536 442.192457 
L 577.027584 443.05212 
L 577.285632 443.884791 
L 577.317888 443.664587 
L 577.350144 443.610587 
L 577.3824 443.698702 
L 577.86624 445.575567 
L 577.995264 445.636127 
L 578.253312 446.14988 
L 578.446848 446.890062 
L 578.930688 447.907475 
L 579.31776 448.601563 
L 579.350016 448.409116 
L 579.414528 448.487508 
L 580.188672 450.231644 
L 583.252992 456.076386 
L 583.285248 456.013134 
L 583.446528 456.495597 
L 586.381824 461.192048 
L 586.57536 461.026853 
L 586.865664 460.48854 
L 588.801024 457.61058 
L 588.83328 457.638841 
L 589.026816 457.308451 
L 589.671936 456.565915 
L 589.96224 456.335786 
L 589.994496 456.427635 
L 590.026752 456.370439 
L 590.188032 456.103301 
L 590.704128 455.720762 
L 591.220224 455.007833 
L 591.25248 454.998412 
L 591.284736 455.134 
L 591.316992 454.876282 
L 591.349248 454.929104 
L 591.478272 454.765592 
L 591.542784 454.914974 
L 591.57504 454.761218 
L 591.639552 454.819759 
L 591.73632 454.500136 
L 591.768576 454.591985 
L 591.800832 454.432174 
L 591.8976 454.396847 
L 591.929856 454.563724 
L 591.962112 454.328885 
L 592.026624 454.409295 
L 592.123392 454.160662 
L 592.155648 454.248474 
L 592.22016 454.140811 
L 592.284672 454.071167 
L 592.316928 454.131054 
L 592.671744 453.748852 
L 593.252352 453.381452 
L 593.5104 452.963586 
L 593.768448 452.681308 
L 593.800704 452.733794 
L 593.83296 452.618393 
L 593.865216 452.673906 
L 594.026496 452.391628 
L 594.058752 452.404077 
L 594.091008 452.606954 
L 594.123264 452.288003 
L 594.3168 452.152751 
L 594.413568 452.058546 
L 594.445824 452.295068 
L 594.510336 451.992267 
L 594.542592 452.204564 
L 594.671616 451.846922 
L 594.703872 452.065948 
L 594.768384 451.765165 
L 594.994176 451.605017 
L 595.058688 451.734549 
L 595.1232 451.698549 
L 595.155456 451.689802 
L 595.28448 451.421654 
L 595.60704 451.321057 
L 596.155392 450.864836 
L 596.381184 450.394821 
L 596.477952 450.266971 
L 596.510208 450.501474 
L 596.57472 450.166037 
L 596.606976 450.389437 
L 596.671488 450.079571 
L 596.865024 449.930525 
L 596.89728 450.033814 
L 596.929536 449.808059 
L 596.961792 450.006562 
L 597.123072 449.658004 
L 597.187584 449.952394 
L 597.21984 449.585331 
L 597.252096 449.585331 
L 597.284352 449.867946 
L 597.316608 449.503911 
L 597.38112 449.772732 
L 597.510144 449.361258 
L 597.5424 449.54193 
L 597.606912 449.295651 
L 597.671424 449.487089 
L 597.70368 449.352174 
L 597.768192 449.31853 
L 597.897216 449.157035 
L 598.83264 448.607955 
L 599.122944 448.301453 
L 599.219712 448.012109 
L 599.251968 448.061231 
L 599.284224 448.213304 
L 599.31648 447.85297 
L 599.542272 447.634953 
L 599.606784 447.874166 
L 599.63904 447.544113 
L 599.80032 447.42703 
L 599.864832 447.372189 
L 599.897088 447.713009 
L 599.993856 447.558244 
L 600.12288 447.148452 
L 600.155136 447.220115 
L 600.187392 447.499366 
L 600.251904 447.195891 
L 600.28416 447.282694 
L 600.316416 447.001425 
L 600.348672 447.295479 
L 600.413184 447.082172 
L 600.477696 447.148789 
L 600.574464 447.214059 
L 600.60672 446.865501 
L 600.638976 446.870884 
L 600.671232 447.124901 
L 600.703488 446.81066 
L 600.735744 446.820417 
L 600.800256 446.789128 
L 600.864768 446.992678 
L 600.993792 446.722848 
L 601.058304 446.764567 
L 601.284096 446.679446 
L 601.703424 446.390776 
L 602.413056 445.807042 
L 602.832384 445.483717 
L 602.929152 444.914551 
L 602.961408 445.198377 
L 602.993664 445.3414 
L 603.090432 444.819236 
L 603.122688 444.965153 
L 603.251712 444.720859 
L 603.34848 444.971209 
L 603.380736 444.815165 
L 603.412992 444.571679 
L 603.445248 444.829161 
L 603.50976 444.667028 
L 603.574272 444.876331 
L 603.606528 444.467818 
L 603.67104 444.741719 
L 603.735552 444.639776 
L 603.800064 444.382125 
L 603.83232 444.393464 
L 603.864576 444.658179 
L 603.896832 444.349221 
L 603.929088 444.362813 
L 603.961344 444.529219 
L 603.9936 444.338926 
L 604.025856 444.344006 
L 604.412928 444.240078 
L 605.6064 443.225625 
L 606.316032 442.116104 
L 606.380544 441.950205 
L 606.4128 442.17008 
L 606.445056 442.021297 
L 606.670848 441.81521 
L 607.412736 440.706485 
L 607.477248 440.019328 
L 607.509504 440.449878 
L 607.54176 440.506468 
L 607.670784 439.811101 
L 607.767552 440.054588 
L 607.86432 439.660609 
L 607.896576 439.806526 
L 609.025536 438.190912 
L 609.057792 437.48673 
L 609.15456 437.701719 
L 609.219072 437.783812 
L 609.380352 437.504562 
L 609.47712 437.412039 
L 610.573824 435.748313 
L 610.60608 435.174 
L 610.670592 435.236579 
L 610.76736 435.491268 
L 610.799616 435.397736 
L 611.702784 433.97827 
L 611.767296 433.799281 
L 611.831808 433.853112 
L 612.089856 433.464517 
L 612.315648 433.12437 
L 612.605952 432.500599 
L 612.670464 432.586056 
L 612.831744 432.13892 
L 612.993024 431.9098 
L 613.02528 432.158433 
L 613.057536 431.839483 
L 613.122048 431.930323 
L 613.18656 431.781614 
L 613.218816 431.81795 
L 613.34784 431.560905 
L 613.638144 431.343897 
L 614.380032 429.909628 
L 614.541312 429.466865 
L 614.573568 429.411015 
L 614.605824 429.603462 
L 614.670336 429.341034 
L 615.315456 428.056146 
L 615.44448 427.775214 
L 616.25088 426.316384 
L 616.283136 426.263225 
L 616.315392 425.847041 
L 616.41216 426.024012 
L 616.541184 425.819116 
L 616.702464 425.606482 
L 619.444224 421.576531 
L 620.250624 420.464577 
L 621.25056 419.290044 
L 621.798912 418.779318 
L 622.5408 417.836596 
L 622.70208 417.483328 
L 623.18592 417.168078 
L 623.3472 417.031817 
L 624.540672 415.85291 
L 624.927744 415.382222 
L 625.089024 415.142 
L 626.08896 412.694691 
L 635.92704 396.491111 
L 637.53984 394.129259 
L 638.152704 393.261229 
L 643.442688 386.266514 
L 644.378112 385.136056 
L 645.829632 383.204855 
L 646.41024 382.447851 
L 648.732672 379.477032 
L 649.603584 378.417227 
L 650.700288 377.098359 
L 651.022848 376.99406 
L 652.958208 377.101723 
L 657.248256 378.55517 
L 657.280512 378.750309 
L 657.345024 378.548441 
L 657.53856 378.639282 
L 658.925568 379.187689 
L 659.119104 379.366005 
L 659.215872 379.695722 
L 659.31264 381.556269 
L 659.409408 391.09788 
L 659.699712 442.261435 
L 660.76416 442.278849 
L 671.118336 442.316178 
L 674.214912 442.357864 
L 682.472448 442.290235 
L 720.43776 442.084511 
L 737.888256 442.029008 
L 737.920512 442.25654 
L 737.952768 441.764982 
L 738.114048 438.23465 
L 738.630144 435.828387 
L 738.759168 433.489414 
L 738.920448 427.190471 
L 739.113984 410.228541 
L 739.30752 399.408099 
L 739.436544 399.27352 
L 742.468608 399.478752 
L 744.210432 399.586415 
L 744.662016 399.613331 
L 746.436096 399.720993 
L 746.88768 399.747909 
L 747.565056 399.781554 
L 748.403712 399.848843 
L 750.693888 399.956506 
L 751.145472 399.983421 
L 753.306624 400.091084 
L 753.758208 400.118 
L 756.306432 400.225663 
L 756.758016 400.252578 
L 757.53216 400.282858 
L 760.467456 400.393886 
L 760.886784 400.417437 
L 764.241408 400.528464 
L 764.660736 400.552015 
L 768.4992 400.663042 
L 768.918528 400.686594 
L 773.434368 400.797621 
L 773.885952 400.824537 
L 774.78912 400.831266 
L 775.208448 400.854817 
L 780.885504 400.965844 
L 781.304832 400.989395 
L 788.530176 401.100422 
L 788.98176 401.127338 
L 790.078464 401.123974 
L 798.690816 401.235001 
L 799.110144 401.258552 
L 818.528256 401.255188 
L 818.560512 401.426775 
L 818.625024 401.255188 
L 818.850816 401.24173 
L 819.237888 401.248459 
L 899.168256 401.255188 
L 899.200512 401.426775 
L 899.265024 401.255188 
L 899.490816 401.24173 
L 899.877888 401.248459 
L 947.52 401.258552 
L 947.52 401.258552 
" clip-path="url(#p882dfe4f91)" style="fill: none; stroke: #ff00ff; stroke-width: 2; stroke-linecap: square"/>
   </g>
   <g id="patch_22">
    <path d="M 100.8 465.442759 
L 100.8 372.711724 
" style="fill: none; stroke: #bcbcbc; stroke-width: 0.8; stroke-linejoin: miter; stroke-linecap: square"/>
   </g>
   <g id="patch_23">
    <path d="M 987.84 465.442759 
L 987.84 372.711724 
" style="fill: none; stroke: #bcbcbc; stroke-width: 0.8; stroke-linejoin: miter; stroke-linecap: square"/>
   </g>
   <g id="patch_24">
    <path d="M 100.8 465.442759 
L 987.84 465.442759 
" style="fill: none; stroke: #bcbcbc; stroke-width: 0.8; stroke-linejoin: miter; stroke-linecap: square"/>
   </g>
   <g id="patch_25">
    <path d="M 100.8 372.711724 
L 987.84 372.711724 
" style="fill: none; stroke: #bcbcbc; stroke-width: 0.8; stroke-linejoin: miter; stroke-linecap: square"/>
   </g>
  </g>
  <g id="axes_5">
   <g id="patch_26">
    <path d="M 100.8 576.72 
L 987.84 576.72 
L 987.84 483.988966 
L 100.8 483.988966 
z
" style="fill: #eeeeee"/>
   </g>
   <g id="matplotlib.axis_9">
    <g id="xtick_25">
     <g id="line2d_73">
      <path d="M 141.12 576.72 
L 141.12 483.988966 
" clip-path="url(#pf968bec395)" style="fill: none; stroke-dasharray: 1.85,0.8; stroke-dashoffset: 0; stroke: #b2b2b2; stroke-width: 0.5"/>
     </g>
     <g id="line2d_74">
      <g>
       <use xlink:href="#m927b7d63fe" x="141.12" y="576.72" style="stroke: #000000; stroke-width: 0.8"/>
      </g>
     </g>
     <g id="text_15">
      <!-- 0 s -->
      <g transform="translate(130.795 590.857813) scale(0.14 -0.14)">
       <defs>
        <path id="DejaVuSans-73" d="M 2834 3397 
L 2834 2853 
Q 2591 2978 2328 3040 
Q 2066 3103 1784 3103 
Q 1356 3103 1142 2972 
Q 928 2841 928 2578 
Q 928 2378 1081 2264 
Q 1234 2150 1697 2047 
L 1894 2003 
Q 2506 1872 2764 1633 
Q 3022 1394 3022 966 
Q 3022 478 2636 193 
Q 2250 -91 1575 -91 
Q 1294 -91 989 -36 
Q 684 19 347 128 
L 347 722 
Q 666 556 975 473 
Q 1284 391 1588 391 
Q 1994 391 2212 530 
Q 2431 669 2431 922 
Q 2431 1156 2273 1281 
Q 2116 1406 1581 1522 
L 1381 1569 
Q 847 1681 609 1914 
Q 372 2147 372 2553 
Q 372 3047 722 3315 
Q 1072 3584 1716 3584 
Q 2034 3584 2315 3537 
Q 2597 3491 2834 3397 
z
" transform="scale(0.015625)"/>
       </defs>
       <use xlink:href="#DejaVuSans-30"/>
       <use xlink:href="#DejaVuSans-20" x="63.623047"/>
       <use xlink:href="#DejaVuSans-73" x="95.410156"/>
      </g>
     </g>
    </g>
    <g id="xtick_26">
     <g id="line2d_75">
      <path d="M 302.4 576.72 
L 302.4 483.988966 
" clip-path="url(#pf968bec395)" style="fill: none; stroke-dasharray: 1.85,0.8; stroke-dashoffset: 0; stroke: #b2b2b2; stroke-width: 0.5"/>
     </g>
     <g id="line2d_76">
      <g>
       <use xlink:href="#m927b7d63fe" x="302.4" y="576.72" style="stroke: #000000; stroke-width: 0.8"/>
      </g>
     </g>
     <g id="text_16">
      <!-- 50 ns -->
      <g transform="translate(283.185 590.857813) scale(0.14 -0.14)">
       <defs>
        <path id="DejaVuSans-35" d="M 691 4666 
L 3169 4666 
L 3169 4134 
L 1269 4134 
L 1269 2991 
Q 1406 3038 1543 3061 
Q 1681 3084 1819 3084 
Q 2600 3084 3056 2656 
Q 3513 2228 3513 1497 
Q 3513 744 3044 326 
Q 2575 -91 1722 -91 
Q 1428 -91 1123 -41 
Q 819 9 494 109 
L 494 744 
Q 775 591 1075 516 
Q 1375 441 1709 441 
Q 2250 441 2565 725 
Q 2881 1009 2881 1497 
Q 2881 1984 2565 2268 
Q 2250 2553 1709 2553 
Q 1456 2553 1204 2497 
Q 953 2441 691 2322 
L 691 4666 
z
" transform="scale(0.015625)"/>
        <path id="DejaVuSans-6e" d="M 3513 2113 
L 3513 0 
L 2938 0 
L 2938 2094 
Q 2938 2591 2744 2837 
Q 2550 3084 2163 3084 
Q 1697 3084 1428 2787 
Q 1159 2491 1159 1978 
L 1159 0 
L 581 0 
L 581 3500 
L 1159 3500 
L 1159 2956 
Q 1366 3272 1645 3428 
Q 1925 3584 2291 3584 
Q 2894 3584 3203 3211 
Q 3513 2838 3513 2113 
z
" transform="scale(0.015625)"/>
       </defs>
       <use xlink:href="#DejaVuSans-35"/>
       <use xlink:href="#DejaVuSans-30" x="63.623047"/>
       <use xlink:href="#DejaVuSans-20" x="127.246094"/>
       <use xlink:href="#DejaVuSans-6e" x="159.033203"/>
       <use xlink:href="#DejaVuSans-73" x="222.412109"/>
      </g>
     </g>
    </g>
    <g id="xtick_27">
     <g id="line2d_77">
      <path d="M 463.68 576.72 
L 463.68 483.988966 
" clip-path="url(#pf968bec395)" style="fill: none; stroke-dasharray: 1.85,0.8; stroke-dashoffset: 0; stroke: #b2b2b2; stroke-width: 0.5"/>
     </g>
     <g id="line2d_78">
      <g>
       <use xlink:href="#m927b7d63fe" x="463.68" y="576.72" style="stroke: #000000; stroke-width: 0.8"/>
      </g>
     </g>
     <g id="text_17">
      <!-- 100 ns -->
      <g transform="translate(440.01125 590.857813) scale(0.14 -0.14)">
       <use xlink:href="#DejaVuSans-31"/>
       <use xlink:href="#DejaVuSans-30" x="63.623047"/>
       <use xlink:href="#DejaVuSans-30" x="127.246094"/>
       <use xlink:href="#DejaVuSans-20" x="190.869141"/>
       <use xlink:href="#DejaVuSans-6e" x="222.65625"/>
       <use xlink:href="#DejaVuSans-73" x="286.035156"/>
      </g>
     </g>
    </g>
    <g id="xtick_28">
     <g id="line2d_79">
      <path d="M 624.96 576.72 
L 624.96 483.988966 
" clip-path="url(#pf968bec395)" style="fill: none; stroke-dasharray: 1.85,0.8; stroke-dashoffset: 0; stroke: #b2b2b2; stroke-width: 0.5"/>
     </g>
     <g id="line2d_80">
      <g>
       <use xlink:href="#m927b7d63fe" x="624.96" y="576.72" style="stroke: #000000; stroke-width: 0.8"/>
      </g>
     </g>
     <g id="text_18">
      <!-- 150 ns -->
      <g transform="translate(601.29125 590.857813) scale(0.14 -0.14)">
       <use xlink:href="#DejaVuSans-31"/>
       <use xlink:href="#DejaVuSans-35" x="63.623047"/>
       <use xlink:href="#DejaVuSans-30" x="127.246094"/>
       <use xlink:href="#DejaVuSans-20" x="190.869141"/>
       <use xlink:href="#DejaVuSans-6e" x="222.65625"/>
       <use xlink:href="#DejaVuSans-73" x="286.035156"/>
      </g>
     </g>
    </g>
    <g id="xtick_29">
     <g id="line2d_81">
      <path d="M 786.24 576.72 
L 786.24 483.988966 
" clip-path="url(#pf968bec395)" style="fill: none; stroke-dasharray: 1.85,0.8; stroke-dashoffset: 0; stroke: #b2b2b2; stroke-width: 0.5"/>
     </g>
     <g id="line2d_82">
      <g>
       <use xlink:href="#m927b7d63fe" x="786.24" y="576.72" style="stroke: #000000; stroke-width: 0.8"/>
      </g>
     </g>
     <g id="text_19">
      <!-- 200 ns -->
      <g transform="translate(762.57125 590.857813) scale(0.14 -0.14)">
       <use xlink:href="#DejaVuSans-32"/>
       <use xlink:href="#DejaVuSans-30" x="63.623047"/>
       <use xlink:href="#DejaVuSans-30" x="127.246094"/>
       <use xlink:href="#DejaVuSans-20" x="190.869141"/>
       <use xlink:href="#DejaVuSans-6e" x="222.65625"/>
       <use xlink:href="#DejaVuSans-73" x="286.035156"/>
      </g>
     </g>
    </g>
    <g id="xtick_30">
     <g id="line2d_83">
      <path d="M 947.52 576.72 
L 947.52 483.988966 
" clip-path="url(#pf968bec395)" style="fill: none; stroke-dasharray: 1.85,0.8; stroke-dashoffset: 0; stroke: #b2b2b2; stroke-width: 0.5"/>
     </g>
     <g id="line2d_84">
      <g>
       <use xlink:href="#m927b7d63fe" x="947.52" y="576.72" style="stroke: #000000; stroke-width: 0.8"/>
      </g>
     </g>
     <g id="text_20">
      <!-- 250 ns -->
      <g transform="translate(923.85125 590.857813) scale(0.14 -0.14)">
       <use xlink:href="#DejaVuSans-32"/>
       <use xlink:href="#DejaVuSans-35" x="63.623047"/>
       <use xlink:href="#DejaVuSans-30" x="127.246094"/>
       <use xlink:href="#DejaVuSans-20" x="190.869141"/>
       <use xlink:href="#DejaVuSans-6e" x="222.65625"/>
       <use xlink:href="#DejaVuSans-73" x="286.035156"/>
      </g>
     </g>
    </g>
    <g id="text_21">
     <!-- Time -->
     <g transform="translate(527.192969 608.407187) scale(0.14 -0.14)">
      <defs>
       <path id="DejaVuSans-69" d="M 603 3500 
L 1178 3500 
L 1178 0 
L 603 0 
L 603 3500 
z
M 603 4863 
L 1178 4863 
L 1178 4134 
L 603 4134 
L 603 4863 
z
" transform="scale(0.015625)"/>
       <path id="DejaVuSans-6d" d="M 3328 2828 
Q 3544 3216 3844 3400 
Q 4144 3584 4550 3584 
Q 5097 3584 5394 3201 
Q 5691 2819 5691 2113 
L 5691 0 
L 5113 0 
L 5113 2094 
Q 5113 2597 4934 2840 
Q 4756 3084 4391 3084 
Q 3944 3084 3684 2787 
Q 3425 2491 3425 1978 
L 3425 0 
L 2847 0 
L 2847 2094 
Q 2847 2600 2669 2842 
Q 2491 3084 2119 3084 
Q 1678 3084 1418 2786 
Q 1159 2488 1159 1978 
L 1159 0 
L 581 0 
L 581 3500 
L 1159 3500 
L 1159 2956 
Q 1356 3278 1631 3431 
Q 1906 3584 2284 3584 
Q 2666 3584 2933 3390 
Q 3200 3197 3328 2828 
z
" transform="scale(0.015625)"/>
       <path id="DejaVuSans-65" d="M 3597 1894 
L 3597 1613 
L 953 1613 
Q 991 1019 1311 708 
Q 1631 397 2203 397 
Q 2534 397 2845 478 
Q 3156 559 3463 722 
L 3463 178 
Q 3153 47 2828 -22 
Q 2503 -91 2169 -91 
Q 1331 -91 842 396 
Q 353 884 353 1716 
Q 353 2575 817 3079 
Q 1281 3584 2069 3584 
Q 2775 3584 3186 3129 
Q 3597 2675 3597 1894 
z
M 3022 2063 
Q 3016 2534 2758 2815 
Q 2500 3097 2075 3097 
Q 1594 3097 1305 2825 
Q 1016 2553 972 2059 
L 3022 2063 
z
" transform="scale(0.015625)"/>
      </defs>
      <use xlink:href="#DejaVuSans-54"/>
      <use xlink:href="#DejaVuSans-69" x="57.958984"/>
      <use xlink:href="#DejaVuSans-6d" x="85.742188"/>
      <use xlink:href="#DejaVuSans-65" x="183.154297"/>
     </g>
    </g>
   </g>
   <g id="matplotlib.axis_10">
    <g id="ytick_11">
     <g id="line2d_85">
      <path d="M 100.8 569.745885 
L 987.84 569.745885 
" clip-path="url(#pf968bec395)" style="fill: none; stroke-dasharray: 1.85,0.8; stroke-dashoffset: 0; stroke: #b2b2b2; stroke-width: 0.5"/>
     </g>
     <g id="line2d_86">
      <g>
       <use xlink:href="#m6c9e2ea832" x="100.8" y="569.745885" style="stroke: #000000; stroke-width: 0.8"/>
      </g>
     </g>
     <g id="text_22">
      <!-- 0 V -->
      <g transform="translate(74.36625 575.064792) scale(0.14 -0.14)">
       <use xlink:href="#DejaVuSans-30"/>
       <use xlink:href="#DejaVuSans-20" x="63.623047"/>
       <use xlink:href="#DejaVuSans-56" x="95.410156"/>
      </g>
     </g>
    </g>
    <g id="ytick_12">
     <g id="line2d_87">
      <path d="M 100.8 535.950348 
L 987.84 535.950348 
" clip-path="url(#pf968bec395)" style="fill: none; stroke-dasharray: 1.85,0.8; stroke-dashoffset: 0; stroke: #b2b2b2; stroke-width: 0.5"/>
     </g>
     <g id="line2d_88">
      <g>
       <use xlink:href="#m6c9e2ea832" x="100.8" y="535.950348" style="stroke: #000000; stroke-width: 0.8"/>
      </g>
     </g>
     <g id="text_23">
      <!-- 500 mV -->
      <g transform="translate(42.914375 541.269254) scale(0.14 -0.14)">
       <use xlink:href="#DejaVuSans-35"/>
       <use xlink:href="#DejaVuSans-30" x="63.623047"/>
       <use xlink:href="#DejaVuSans-30" x="127.246094"/>
       <use xlink:href="#DejaVuSans-20" x="190.869141"/>
       <use xlink:href="#DejaVuSans-6d" x="222.65625"/>
       <use xlink:href="#DejaVuSans-56" x="320.068359"/>
      </g>
     </g>
    </g>
    <g id="ytick_13">
     <g id="line2d_89">
      <path d="M 100.8 502.15481 
L 987.84 502.15481 
" clip-path="url(#pf968bec395)" style="fill: none; stroke-dasharray: 1.85,0.8; stroke-dashoffset: 0; stroke: #b2b2b2; stroke-width: 0.5"/>
     </g>
     <g id="line2d_90">
      <g>
       <use xlink:href="#m6c9e2ea832" x="100.8" y="502.15481" style="stroke: #000000; stroke-width: 0.8"/>
      </g>
     </g>
     <g id="text_24">
      <!-- 1 V -->
      <g transform="translate(74.36625 507.473717) scale(0.14 -0.14)">
       <use xlink:href="#DejaVuSans-31"/>
       <use xlink:href="#DejaVuSans-20" x="63.623047"/>
       <use xlink:href="#DejaVuSans-56" x="95.410156"/>
      </g>
     </g>
    </g>
    <g id="text_25">
     <g id="patch_27">
      <path d="M 34.8768 554.329483 
L 34.8768 506.379483 
L 11.247425 506.379483 
L 11.247425 554.329483 
z
" style="fill: #ffff00; opacity: 0.2; stroke: #eeeeee; stroke-width: 0.5; stroke-linejoin: miter"/>
     </g>
     <!-- FOUT -->
     <g transform="translate(26.925238 549.289483) rotate(-90) scale(0.14 -0.14)">
      <use xlink:href="#DejaVuSans-46"/>
      <use xlink:href="#DejaVuSans-4f" x="57.519531"/>
      <use xlink:href="#DejaVuSans-55" x="136.230469"/>
      <use xlink:href="#DejaVuSans-54" x="209.423828"/>
     </g>
    </g>
   </g>
   <g id="line2d_91">
    <path d="M 141.12 488.636595 
L 173.472768 488.643355 
L 173.505024 488.44734 
L 173.569536 526.789729 
L 173.69856 572.504953 
L 173.730816 572.3695 
L 173.827584 567.842115 
L 173.892096 569.3609 
L 174.053376 570.064192 
L 174.117888 569.946665 
L 174.408192 569.492054 
L 174.440448 569.54151 
L 174.66624 569.729954 
L 176.182272 569.740151 
L 180.117504 569.761449 
L 193.568256 569.752159 
L 212.954112 569.74401 
L 255.30624 569.743704 
L 255.6288 488.52845 
L 255.854592 488.670391 
L 256.209408 488.629836 
L 334.849536 488.650114 
L 334.881792 492.854278 
L 335.043072 572.18376 
L 335.107584 570.261206 
L 335.172096 568.338639 
L 335.236608 568.870108 
L 335.365632 570.783003 
L 335.430144 570.410083 
L 335.591424 569.797213 
L 335.881728 569.648439 
L 336.559104 569.817924 
L 337.107456 569.746143 
L 350.009856 569.744206 
L 416.489472 569.74333 
L 416.553984 567.480841 
L 416.812032 488.204013 
L 416.844288 488.339195 
L 416.973312 488.852887 
L 417.037824 488.778537 
L 417.39264 488.548727 
L 417.844224 488.717705 
L 418.457088 488.562245 
L 419.328 488.636595 
L 571.866624 488.575763 
L 571.89888 488.467618 
L 571.931136 488.514931 
L 571.963392 492.685301 
L 572.124672 570.247438 
L 572.189184 569.72627 
L 572.511744 569.744083 
L 610.025472 569.744205 
L 618.412032 569.729755 
L 618.444288 567.755599 
L 618.799104 488.643355 
L 659.506176 488.636595 
L 659.538432 488.501413 
L 659.570688 495.307835 
L 659.699712 570.416727 
L 659.731968 569.856843 
L 659.860992 569.744181 
L 739.017216 569.838918 
L 739.049472 570.01773 
L 739.113984 536.311284 
L 739.275264 488.994828 
L 739.436544 488.636595 
L 947.52 488.636595 
L 947.52 488.636595 
" clip-path="url(#pf968bec395)" style="fill: none; stroke: #ff00ff; stroke-width: 2; stroke-linecap: square"/>
   </g>
   <g id="patch_28">
    <path d="M 100.8 576.72 
L 100.8 483.988966 
" style="fill: none; stroke: #bcbcbc; stroke-width: 0.8; stroke-linejoin: miter; stroke-linecap: square"/>
   </g>
   <g id="patch_29">
    <path d="M 987.84 576.72 
L 987.84 483.988966 
" style="fill: none; stroke: #bcbcbc; stroke-width: 0.8; stroke-linejoin: miter; stroke-linecap: square"/>
   </g>
   <g id="patch_30">
    <path d="M 100.8 576.72 
L 987.84 576.72 
" style="fill: none; stroke: #bcbcbc; stroke-width: 0.8; stroke-linejoin: miter; stroke-linecap: square"/>
   </g>
   <g id="patch_31">
    <path d="M 100.8 483.988966 
L 987.84 483.988966 
" style="fill: none; stroke: #bcbcbc; stroke-width: 0.8; stroke-linejoin: miter; stroke-linecap: square"/>
   </g>
  </g>
  <g id="axes_6">
   <g id="patch_32">
    <path d="M 201.6 628.56 
L 856.8 628.56 
L 856.8 615.6 
L 201.6 615.6 
z
" clip-path="url(#p246a2ccf9f)" style="fill: #d3d3d3"/>
   </g>
   <g id="patch_33">
    <path d="M 201.6 628.56 
L 735.12 628.56 
L 735.12 615.6 
L 201.6 615.6 
z
" clip-path="url(#p246a2ccf9f)" style="fill: #0000ff"/>
   </g>
   <g id="line2d_92">
    <path d="M 201.6 635.04 
L 201.6 609.12 
" clip-path="url(#pd64b386a66)" style="fill: none; stroke: #ff0000; stroke-linecap: square"/>
   </g>
   <g id="line2d_93">
    <defs>
     <path id="m059bf4fd5d" d="M 0 5 
C 1.326016 5 2.597899 4.473168 3.535534 3.535534 
C 4.473168 2.597899 5 1.326016 5 0 
C 5 -1.326016 4.473168 -2.597899 3.535534 -3.535534 
C 2.597899 -4.473168 1.326016 -5 0 -5 
C -1.326016 -5 -2.597899 -4.473168 -3.535534 -3.535534 
C -4.473168 -2.597899 -5 -1.326016 -5 0 
C -5 1.326016 -4.473168 2.597899 -3.535534 3.535534 
C -2.597899 4.473168 -1.326016 5 0 5 
z
" style="stroke: #bfbfbf"/>
    </defs>
    <g>
     <use xlink:href="#m059bf4fd5d" x="735.12" y="622.08" style="fill: #ffffff; stroke: #bfbfbf"/>
    </g>
   </g>
   <g id="text_26">
    <!-- #Sweep -->
    <g transform="translate(138.622875 625.39125) scale(0.12 -0.12)">
     <defs>
      <path id="DejaVuSans-23" d="M 3272 2816 
L 2363 2816 
L 2100 1772 
L 3016 1772 
L 3272 2816 
z
M 2803 4594 
L 2478 3297 
L 3391 3297 
L 3719 4594 
L 4219 4594 
L 3897 3297 
L 4872 3297 
L 4872 2816 
L 3775 2816 
L 3519 1772 
L 4513 1772 
L 4513 1294 
L 3397 1294 
L 3072 0 
L 2572 0 
L 2894 1294 
L 1978 1294 
L 1656 0 
L 1153 0 
L 1478 1294 
L 494 1294 
L 494 1772 
L 1594 1772 
L 1856 2816 
L 850 2816 
L 850 3297 
L 1978 3297 
L 2297 4594 
L 2803 4594 
z
" transform="scale(0.015625)"/>
      <path id="DejaVuSans-77" d="M 269 3500 
L 844 3500 
L 1563 769 
L 2278 3500 
L 2956 3500 
L 3675 769 
L 4391 3500 
L 4966 3500 
L 4050 0 
L 3372 0 
L 2619 2869 
L 1863 0 
L 1184 0 
L 269 3500 
z
" transform="scale(0.015625)"/>
      <path id="DejaVuSans-70" d="M 1159 525 
L 1159 -1331 
L 581 -1331 
L 581 3500 
L 1159 3500 
L 1159 2969 
Q 1341 3281 1617 3432 
Q 1894 3584 2278 3584 
Q 2916 3584 3314 3078 
Q 3713 2572 3713 1747 
Q 3713 922 3314 415 
Q 2916 -91 2278 -91 
Q 1894 -91 1617 61 
Q 1341 213 1159 525 
z
M 3116 1747 
Q 3116 2381 2855 2742 
Q 2594 3103 2138 3103 
Q 1681 3103 1420 2742 
Q 1159 2381 1159 1747 
Q 1159 1113 1420 752 
Q 1681 391 2138 391 
Q 2594 391 2855 752 
Q 3116 1113 3116 1747 
z
" transform="scale(0.015625)"/>
     </defs>
     <use xlink:href="#DejaVuSans-23"/>
     <use xlink:href="#DejaVuSans-53" x="83.789062"/>
     <use xlink:href="#DejaVuSans-77" x="147.265625"/>
     <use xlink:href="#DejaVuSans-65" x="229.052734"/>
     <use xlink:href="#DejaVuSans-65" x="290.576172"/>
     <use xlink:href="#DejaVuSans-70" x="352.099609"/>
    </g>
   </g>
   <g id="text_27">
    <!-- $\mathdefault{114}$ -->
    <g transform="translate(869.904 625.39125) scale(0.12 -0.12)">
     <defs>
      <path id="DejaVuSans-34" d="M 2419 4116 
L 825 1625 
L 2419 1625 
L 2419 4116 
z
M 2253 4666 
L 3047 4666 
L 3047 1625 
L 3713 1625 
L 3713 1100 
L 3047 1100 
L 3047 0 
L 2419 0 
L 2419 1100 
L 313 1100 
L 313 1709 
L 2253 4666 
z
" transform="scale(0.015625)"/>
     </defs>
     <use xlink:href="#DejaVuSans-31" transform="translate(0 0.09375)"/>
     <use xlink:href="#DejaVuSans-31" transform="translate(63.623047 0.09375)"/>
     <use xlink:href="#DejaVuSans-34" transform="translate(127.246094 0.09375)"/>
    </g>
   </g>
  </g>
  <g id="text_28">
   <!-- DFF under BBI sweep analysis (Sweep = 124E-9) -->
   <g transform="translate(308.25625 25.1175) scale(0.16 -0.16)">
    <defs>
     <path id="DejaVuSans-75" d="M 544 1381 
L 544 3500 
L 1119 3500 
L 1119 1403 
Q 1119 906 1312 657 
Q 1506 409 1894 409 
Q 2359 409 2629 706 
Q 2900 1003 2900 1516 
L 2900 3500 
L 3475 3500 
L 3475 0 
L 2900 0 
L 2900 538 
Q 2691 219 2414 64 
Q 2138 -91 1772 -91 
Q 1169 -91 856 284 
Q 544 659 544 1381 
z
M 1991 3584 
L 1991 3584 
z
" transform="scale(0.015625)"/>
     <path id="DejaVuSans-64" d="M 2906 2969 
L 2906 4863 
L 3481 4863 
L 3481 0 
L 2906 0 
L 2906 525 
Q 2725 213 2448 61 
Q 2172 -91 1784 -91 
Q 1150 -91 751 415 
Q 353 922 353 1747 
Q 353 2572 751 3078 
Q 1150 3584 1784 3584 
Q 2172 3584 2448 3432 
Q 2725 3281 2906 2969 
z
M 947 1747 
Q 947 1113 1208 752 
Q 1469 391 1925 391 
Q 2381 391 2643 752 
Q 2906 1113 2906 1747 
Q 2906 2381 2643 2742 
Q 2381 3103 1925 3103 
Q 1469 3103 1208 2742 
Q 947 2381 947 1747 
z
" transform="scale(0.015625)"/>
     <path id="DejaVuSans-72" d="M 2631 2963 
Q 2534 3019 2420 3045 
Q 2306 3072 2169 3072 
Q 1681 3072 1420 2755 
Q 1159 2438 1159 1844 
L 1159 0 
L 581 0 
L 581 3500 
L 1159 3500 
L 1159 2956 
Q 1341 3275 1631 3429 
Q 1922 3584 2338 3584 
Q 2397 3584 2469 3576 
Q 2541 3569 2628 3553 
L 2631 2963 
z
" transform="scale(0.015625)"/>
     <path id="DejaVuSans-61" d="M 2194 1759 
Q 1497 1759 1228 1600 
Q 959 1441 959 1056 
Q 959 750 1161 570 
Q 1363 391 1709 391 
Q 2188 391 2477 730 
Q 2766 1069 2766 1631 
L 2766 1759 
L 2194 1759 
z
M 3341 1997 
L 3341 0 
L 2766 0 
L 2766 531 
Q 2569 213 2275 61 
Q 1981 -91 1556 -91 
Q 1019 -91 701 211 
Q 384 513 384 1019 
Q 384 1609 779 1909 
Q 1175 2209 1959 2209 
L 2766 2209 
L 2766 2266 
Q 2766 2663 2505 2880 
Q 2244 3097 1772 3097 
Q 1472 3097 1187 3025 
Q 903 2953 641 2809 
L 641 3341 
Q 956 3463 1253 3523 
Q 1550 3584 1831 3584 
Q 2591 3584 2966 3190 
Q 3341 2797 3341 1997 
z
" transform="scale(0.015625)"/>
     <path id="DejaVuSans-6c" d="M 603 4863 
L 1178 4863 
L 1178 0 
L 603 0 
L 603 4863 
z
" transform="scale(0.015625)"/>
     <path id="DejaVuSans-79" d="M 2059 -325 
Q 1816 -950 1584 -1140 
Q 1353 -1331 966 -1331 
L 506 -1331 
L 506 -850 
L 844 -850 
Q 1081 -850 1212 -737 
Q 1344 -625 1503 -206 
L 1606 56 
L 191 3500 
L 800 3500 
L 1894 763 
L 2988 3500 
L 3597 3500 
L 2059 -325 
z
" transform="scale(0.015625)"/>
     <path id="DejaVuSans-28" d="M 1984 4856 
Q 1566 4138 1362 3434 
Q 1159 2731 1159 2009 
Q 1159 1288 1364 580 
Q 1569 -128 1984 -844 
L 1484 -844 
Q 1016 -109 783 600 
Q 550 1309 550 2009 
Q 550 2706 781 3412 
Q 1013 4119 1484 4856 
L 1984 4856 
z
" transform="scale(0.015625)"/>
     <path id="DejaVuSans-3d" d="M 678 2906 
L 4684 2906 
L 4684 2381 
L 678 2381 
L 678 2906 
z
M 678 1631 
L 4684 1631 
L 4684 1100 
L 678 1100 
L 678 1631 
z
" transform="scale(0.015625)"/>
     <path id="DejaVuSans-2d" d="M 313 2009 
L 1997 2009 
L 1997 1497 
L 313 1497 
L 313 2009 
z
" transform="scale(0.015625)"/>
     <path id="DejaVuSans-39" d="M 703 97 
L 703 672 
Q 941 559 1184 500 
Q 1428 441 1663 441 
Q 2288 441 2617 861 
Q 2947 1281 2994 2138 
Q 2813 1869 2534 1725 
Q 2256 1581 1919 1581 
Q 1219 1581 811 2004 
Q 403 2428 403 3163 
Q 403 3881 828 4315 
Q 1253 4750 1959 4750 
Q 2769 4750 3195 4129 
Q 3622 3509 3622 2328 
Q 3622 1225 3098 567 
Q 2575 -91 1691 -91 
Q 1453 -91 1209 -44 
Q 966 3 703 97 
z
M 1959 2075 
Q 2384 2075 2632 2365 
Q 2881 2656 2881 3163 
Q 2881 3666 2632 3958 
Q 2384 4250 1959 4250 
Q 1534 4250 1286 3958 
Q 1038 3666 1038 3163 
Q 1038 2656 1286 2365 
Q 1534 2075 1959 2075 
z
" transform="scale(0.015625)"/>
     <path id="DejaVuSans-29" d="M 513 4856 
L 1013 4856 
Q 1481 4119 1714 3412 
Q 1947 2706 1947 2009 
Q 1947 1309 1714 600 
Q 1481 -109 1013 -844 
L 513 -844 
Q 928 -128 1133 580 
Q 1338 1288 1338 2009 
Q 1338 2731 1133 3434 
Q 928 4138 513 4856 
z
" transform="scale(0.015625)"/>
    </defs>
    <use xlink:href="#DejaVuSans-44"/>
    <use xlink:href="#DejaVuSans-46" x="77.001953"/>
    <use xlink:href="#DejaVuSans-46" x="134.521484"/>
    <use xlink:href="#DejaVuSans-20" x="192.041016"/>
    <use xlink:href="#DejaVuSans-75" x="223.828125"/>
    <use xlink:href="#DejaVuSans-6e" x="287.207031"/>
    <use xlink:href="#DejaVuSans-64" x="350.585938"/>
    <use xlink:href="#DejaVuSans-65" x="414.0625"/>
    <use xlink:href="#DejaVuSans-72" x="475.585938"/>
    <use xlink:href="#DejaVuSans-20" x="516.699219"/>
    <use xlink:href="#DejaVuSans-42" x="548.486328"/>
    <use xlink:href="#DejaVuSans-42" x="617.089844"/>
    <use xlink:href="#DejaVuSans-49" x="685.693359"/>
    <use xlink:href="#DejaVuSans-20" x="715.185547"/>
    <use xlink:href="#DejaVuSans-73" x="746.972656"/>
    <use xlink:href="#DejaVuSans-77" x="799.072266"/>
    <use xlink:href="#DejaVuSans-65" x="880.859375"/>
    <use xlink:href="#DejaVuSans-65" x="942.382812"/>
    <use xlink:href="#DejaVuSans-70" x="1003.90625"/>
    <use xlink:href="#DejaVuSans-20" x="1067.382812"/>
    <use xlink:href="#DejaVuSans-61" x="1099.169922"/>
    <use xlink:href="#DejaVuSans-6e" x="1160.449219"/>
    <use xlink:href="#DejaVuSans-61" x="1223.828125"/>
    <use xlink:href="#DejaVuSans-6c" x="1285.107422"/>
    <use xlink:href="#DejaVuSans-79" x="1312.890625"/>
    <use xlink:href="#DejaVuSans-73" x="1372.070312"/>
    <use xlink:href="#DejaVuSans-69" x="1424.169922"/>
    <use xlink:href="#DejaVuSans-73" x="1451.953125"/>
    <use xlink:href="#DejaVuSans-20" x="1504.052734"/>
    <use xlink:href="#DejaVuSans-28" x="1535.839844"/>
    <use xlink:href="#DejaVuSans-53" x="1574.853516"/>
    <use xlink:href="#DejaVuSans-77" x="1638.330078"/>
    <use xlink:href="#DejaVuSans-65" x="1720.117188"/>
    <use xlink:href="#DejaVuSans-65" x="1781.640625"/>
    <use xlink:href="#DejaVuSans-70" x="1843.164062"/>
    <use xlink:href="#DejaVuSans-20" x="1906.640625"/>
    <use xlink:href="#DejaVuSans-3d" x="1938.427734"/>
    <use xlink:href="#DejaVuSans-20" x="2022.216797"/>
    <use xlink:href="#DejaVuSans-31" x="2054.003906"/>
    <use xlink:href="#DejaVuSans-32" x="2117.626953"/>
    <use xlink:href="#DejaVuSans-34" x="2181.25"/>
    <use xlink:href="#DejaVuSans-45" x="2244.873047"/>
    <use xlink:href="#DejaVuSans-2d" x="2308.056641"/>
    <use xlink:href="#DejaVuSans-39" x="2344.140625"/>
    <use xlink:href="#DejaVuSans-29" x="2407.763672"/>
   </g>
  </g>
 </g>
 <defs>
  <clipPath id="pfe6aabb028">
   <rect x="100.8" y="38.88" width="887.04" height="92.731034"/>
  </clipPath>
  <clipPath id="p91a6f15c55">
   <rect x="100.8" y="150.157241" width="887.04" height="92.731034"/>
  </clipPath>
  <clipPath id="p833bcae485">
   <rect x="100.8" y="261.434483" width="887.04" height="92.731034"/>
  </clipPath>
  <clipPath id="p882dfe4f91">
   <rect x="100.8" y="372.711724" width="887.04" height="92.731034"/>
  </clipPath>
  <clipPath id="pf968bec395">
   <rect x="100.8" y="483.988966" width="887.04" height="92.731034"/>
  </clipPath>
  <clipPath id="p246a2ccf9f">
   <rect x="201.6" y="609.12" width="655.2" height="25.92"/>
  </clipPath>
  <clipPath id="pd64b386a66">
   <path d="M 201.6 628.56 
L 856.8 628.56 
L 856.8 615.6 
L 201.6 615.6 
z
"/>
  </clipPath>
 </defs>
</svg>
