<?xml version="1.0" encoding="utf-8" standalone="no"?>
<!DOCTYPE svg PUBLIC "-//W3C//DTD SVG 1.1//EN"
  "http://www.w3.org/Graphics/SVG/1.1/DTD/svg11.dtd">
<svg xmlns:xlink="http://www.w3.org/1999/xlink" width="1008pt" height="648pt" viewBox="0 0 1008 648" xmlns="http://www.w3.org/2000/svg" version="1.1">
 <metadata>
  <rdf:RDF xmlns:dc="http://purl.org/dc/elements/1.1/" xmlns:cc="http://creativecommons.org/ns#" xmlns:rdf="http://www.w3.org/1999/02/22-rdf-syntax-ns#">
   <cc:Work>
    <dc:type rdf:resource="http://purl.org/dc/dcmitype/StillImage"/>
    <dc:date>2024-06-03T10:45:48.170410</dc:date>
    <dc:format>image/svg+xml</dc:format>
    <dc:creator>
     <cc:Agent>
      <dc:title>Matplotlib v3.9.0, https://matplotlib.org/</dc:title>
     </cc:Agent>
    </dc:creator>
   </cc:Work>
  </rdf:RDF>
 </metadata>
 <defs>
  <style type="text/css">*{stroke-linejoin: round; stroke-linecap: butt}</style>
 </defs>
 <g id="figure_1">
  <g id="patch_1">
   <path d="M 0 648 
L 1008 648 
L 1008 0 
L 0 0 
z
" style="fill: #ffffff"/>
  </g>
  <g id="axes_1">
   <g id="patch_2">
    <path d="M 100.8 131.611034 
L 987.84 131.611034 
L 987.84 38.88 
L 100.8 38.88 
z
" style="fill: #eeeeee"/>
   </g>
   <g id="matplotlib.axis_1">
    <g id="xtick_1">
     <g id="line2d_1">
      <path d="M 141.12 131.611034 
L 141.12 38.88 
" clip-path="url(#p0d5d5840c2)" style="fill: none; stroke-dasharray: 1.85,0.8; stroke-dashoffset: 0; stroke: #b2b2b2; stroke-width: 0.5"/>
     </g>
     <g id="line2d_2">
      <defs>
       <path id="m3a7e627cd3" d="M 0 0 
L 0 -3.5 
" style="stroke: #000000; stroke-width: 0.8"/>
      </defs>
      <g>
       <use xlink:href="#m3a7e627cd3" x="141.12" y="131.611034" style="stroke: #000000; stroke-width: 0.8"/>
      </g>
     </g>
    </g>
    <g id="xtick_2">
     <g id="line2d_3">
      <path d="M 302.4 131.611034 
L 302.4 38.88 
" clip-path="url(#p0d5d5840c2)" style="fill: none; stroke-dasharray: 1.85,0.8; stroke-dashoffset: 0; stroke: #b2b2b2; stroke-width: 0.5"/>
     </g>
     <g id="line2d_4">
      <g>
       <use xlink:href="#m3a7e627cd3" x="302.4" y="131.611034" style="stroke: #000000; stroke-width: 0.8"/>
      </g>
     </g>
    </g>
    <g id="xtick_3">
     <g id="line2d_5">
      <path d="M 463.68 131.611034 
L 463.68 38.88 
" clip-path="url(#p0d5d5840c2)" style="fill: none; stroke-dasharray: 1.85,0.8; stroke-dashoffset: 0; stroke: #b2b2b2; stroke-width: 0.5"/>
     </g>
     <g id="line2d_6">
      <g>
       <use xlink:href="#m3a7e627cd3" x="463.68" y="131.611034" style="stroke: #000000; stroke-width: 0.8"/>
      </g>
     </g>
    </g>
    <g id="xtick_4">
     <g id="line2d_7">
      <path d="M 624.96 131.611034 
L 624.96 38.88 
" clip-path="url(#p0d5d5840c2)" style="fill: none; stroke-dasharray: 1.85,0.8; stroke-dashoffset: 0; stroke: #b2b2b2; stroke-width: 0.5"/>
     </g>
     <g id="line2d_8">
      <g>
       <use xlink:href="#m3a7e627cd3" x="624.96" y="131.611034" style="stroke: #000000; stroke-width: 0.8"/>
      </g>
     </g>
    </g>
    <g id="xtick_5">
     <g id="line2d_9">
      <path d="M 786.24 131.611034 
L 786.24 38.88 
" clip-path="url(#p0d5d5840c2)" style="fill: none; stroke-dasharray: 1.85,0.8; stroke-dashoffset: 0; stroke: #b2b2b2; stroke-width: 0.5"/>
     </g>
     <g id="line2d_10">
      <g>
       <use xlink:href="#m3a7e627cd3" x="786.24" y="131.611034" style="stroke: #000000; stroke-width: 0.8"/>
      </g>
     </g>
    </g>
    <g id="xtick_6">
     <g id="line2d_11">
      <path d="M 947.52 131.611034 
L 947.52 38.88 
" clip-path="url(#p0d5d5840c2)" style="fill: none; stroke-dasharray: 1.85,0.8; stroke-dashoffset: 0; stroke: #b2b2b2; stroke-width: 0.5"/>
     </g>
     <g id="line2d_12">
      <g>
       <use xlink:href="#m3a7e627cd3" x="947.52" y="131.611034" style="stroke: #000000; stroke-width: 0.8"/>
      </g>
     </g>
    </g>
   </g>
   <g id="matplotlib.axis_2">
    <g id="ytick_1">
     <g id="line2d_13">
      <path d="M 100.8 98.340394 
L 987.84 98.340394 
" clip-path="url(#p0d5d5840c2)" style="fill: none; stroke-dasharray: 1.85,0.8; stroke-dashoffset: 0; stroke: #b2b2b2; stroke-width: 0.5"/>
     </g>
     <g id="line2d_14">
      <defs>
       <path id="m8cf8e86986" d="M 0 0 
L 3.5 0 
" style="stroke: #000000; stroke-width: 0.8"/>
      </defs>
      <g>
       <use xlink:href="#m8cf8e86986" x="100.8" y="98.340394" style="stroke: #000000; stroke-width: 0.8"/>
      </g>
     </g>
     <g id="text_1">
      <!-- −200 V -->
      <g transform="translate(44.819688 103.6593) scale(0.14 -0.14)">
       <defs>
        <path id="DejaVuSans-2212" d="M 678 2272 
L 4684 2272 
L 4684 1741 
L 678 1741 
L 678 2272 
z
" transform="scale(0.015625)"/>
        <path id="DejaVuSans-32" d="M 1228 531 
L 3431 531 
L 3431 0 
L 469 0 
L 469 531 
Q 828 903 1448 1529 
Q 2069 2156 2228 2338 
Q 2531 2678 2651 2914 
Q 2772 3150 2772 3378 
Q 2772 3750 2511 3984 
Q 2250 4219 1831 4219 
Q 1534 4219 1204 4116 
Q 875 4013 500 3803 
L 500 4441 
Q 881 4594 1212 4672 
Q 1544 4750 1819 4750 
Q 2544 4750 2975 4387 
Q 3406 4025 3406 3419 
Q 3406 3131 3298 2873 
Q 3191 2616 2906 2266 
Q 2828 2175 2409 1742 
Q 1991 1309 1228 531 
z
" transform="scale(0.015625)"/>
        <path id="DejaVuSans-30" d="M 2034 4250 
Q 1547 4250 1301 3770 
Q 1056 3291 1056 2328 
Q 1056 1369 1301 889 
Q 1547 409 2034 409 
Q 2525 409 2770 889 
Q 3016 1369 3016 2328 
Q 3016 3291 2770 3770 
Q 2525 4250 2034 4250 
z
M 2034 4750 
Q 2819 4750 3233 4129 
Q 3647 3509 3647 2328 
Q 3647 1150 3233 529 
Q 2819 -91 2034 -91 
Q 1250 -91 836 529 
Q 422 1150 422 2328 
Q 422 3509 836 4129 
Q 1250 4750 2034 4750 
z
" transform="scale(0.015625)"/>
        <path id="DejaVuSans-20" transform="scale(0.015625)"/>
        <path id="DejaVuSans-56" d="M 1831 0 
L 50 4666 
L 709 4666 
L 2188 738 
L 3669 4666 
L 4325 4666 
L 2547 0 
L 1831 0 
z
" transform="scale(0.015625)"/>
       </defs>
       <use xlink:href="#DejaVuSans-2212"/>
       <use xlink:href="#DejaVuSans-32" x="83.789062"/>
       <use xlink:href="#DejaVuSans-30" x="147.412109"/>
       <use xlink:href="#DejaVuSans-30" x="211.035156"/>
       <use xlink:href="#DejaVuSans-20" x="274.658203"/>
       <use xlink:href="#DejaVuSans-56" x="306.445312"/>
      </g>
     </g>
    </g>
    <g id="ytick_2">
     <g id="line2d_15">
      <path d="M 100.8 45.027377 
L 987.84 45.027377 
" clip-path="url(#p0d5d5840c2)" style="fill: none; stroke-dasharray: 1.85,0.8; stroke-dashoffset: 0; stroke: #b2b2b2; stroke-width: 0.5"/>
     </g>
     <g id="line2d_16">
      <g>
       <use xlink:href="#m8cf8e86986" x="100.8" y="45.027377" style="stroke: #000000; stroke-width: 0.8"/>
      </g>
     </g>
     <g id="text_2">
      <!-- 0 V -->
      <g transform="translate(74.36625 50.346284) scale(0.14 -0.14)">
       <use xlink:href="#DejaVuSans-30"/>
       <use xlink:href="#DejaVuSans-20" x="63.623047"/>
       <use xlink:href="#DejaVuSans-56" x="95.410156"/>
      </g>
     </g>
    </g>
    <g id="text_3">
     <g id="patch_3">
      <path d="M 34.8768 131.080205 
L 34.8768 39.41083 
L 11.247425 39.41083 
L 11.247425 131.080205 
z
" style="fill: #ffff00; opacity: 0.2; stroke: #eeeeee; stroke-width: 0.5; stroke-linejoin: miter"/>
     </g>
     <!-- VPULSE BBI -->
     <g transform="translate(26.925238 126.040205) rotate(-90) scale(0.14 -0.14)">
      <defs>
       <path id="DejaVuSans-50" d="M 1259 4147 
L 1259 2394 
L 2053 2394 
Q 2494 2394 2734 2622 
Q 2975 2850 2975 3272 
Q 2975 3691 2734 3919 
Q 2494 4147 2053 4147 
L 1259 4147 
z
M 628 4666 
L 2053 4666 
Q 2838 4666 3239 4311 
Q 3641 3956 3641 3272 
Q 3641 2581 3239 2228 
Q 2838 1875 2053 1875 
L 1259 1875 
L 1259 0 
L 628 0 
L 628 4666 
z
" transform="scale(0.015625)"/>
       <path id="DejaVuSans-55" d="M 556 4666 
L 1191 4666 
L 1191 1831 
Q 1191 1081 1462 751 
Q 1734 422 2344 422 
Q 2950 422 3222 751 
Q 3494 1081 3494 1831 
L 3494 4666 
L 4128 4666 
L 4128 1753 
Q 4128 841 3676 375 
Q 3225 -91 2344 -91 
Q 1459 -91 1007 375 
Q 556 841 556 1753 
L 556 4666 
z
" transform="scale(0.015625)"/>
       <path id="DejaVuSans-4c" d="M 628 4666 
L 1259 4666 
L 1259 531 
L 3531 531 
L 3531 0 
L 628 0 
L 628 4666 
z
" transform="scale(0.015625)"/>
       <path id="DejaVuSans-53" d="M 3425 4513 
L 3425 3897 
Q 3066 4069 2747 4153 
Q 2428 4238 2131 4238 
Q 1616 4238 1336 4038 
Q 1056 3838 1056 3469 
Q 1056 3159 1242 3001 
Q 1428 2844 1947 2747 
L 2328 2669 
Q 3034 2534 3370 2195 
Q 3706 1856 3706 1288 
Q 3706 609 3251 259 
Q 2797 -91 1919 -91 
Q 1588 -91 1214 -16 
Q 841 59 441 206 
L 441 856 
Q 825 641 1194 531 
Q 1563 422 1919 422 
Q 2459 422 2753 634 
Q 3047 847 3047 1241 
Q 3047 1584 2836 1778 
Q 2625 1972 2144 2069 
L 1759 2144 
Q 1053 2284 737 2584 
Q 422 2884 422 3419 
Q 422 4038 858 4394 
Q 1294 4750 2059 4750 
Q 2388 4750 2728 4690 
Q 3069 4631 3425 4513 
z
" transform="scale(0.015625)"/>
       <path id="DejaVuSans-45" d="M 628 4666 
L 3578 4666 
L 3578 4134 
L 1259 4134 
L 1259 2753 
L 3481 2753 
L 3481 2222 
L 1259 2222 
L 1259 531 
L 3634 531 
L 3634 0 
L 628 0 
L 628 4666 
z
" transform="scale(0.015625)"/>
       <path id="DejaVuSans-42" d="M 1259 2228 
L 1259 519 
L 2272 519 
Q 2781 519 3026 730 
Q 3272 941 3272 1375 
Q 3272 1813 3026 2020 
Q 2781 2228 2272 2228 
L 1259 2228 
z
M 1259 4147 
L 1259 2741 
L 2194 2741 
Q 2656 2741 2882 2914 
Q 3109 3088 3109 3444 
Q 3109 3797 2882 3972 
Q 2656 4147 2194 4147 
L 1259 4147 
z
M 628 4666 
L 2241 4666 
Q 2963 4666 3353 4366 
Q 3744 4066 3744 3513 
Q 3744 3084 3544 2831 
Q 3344 2578 2956 2516 
Q 3422 2416 3680 2098 
Q 3938 1781 3938 1306 
Q 3938 681 3513 340 
Q 3088 0 2303 0 
L 628 0 
L 628 4666 
z
" transform="scale(0.015625)"/>
       <path id="DejaVuSans-49" d="M 628 4666 
L 1259 4666 
L 1259 0 
L 628 0 
L 628 4666 
z
" transform="scale(0.015625)"/>
      </defs>
      <use xlink:href="#DejaVuSans-56"/>
      <use xlink:href="#DejaVuSans-50" x="68.408203"/>
      <use xlink:href="#DejaVuSans-55" x="128.710938"/>
      <use xlink:href="#DejaVuSans-4c" x="201.904297"/>
      <use xlink:href="#DejaVuSans-53" x="257.617188"/>
      <use xlink:href="#DejaVuSans-45" x="321.09375"/>
      <use xlink:href="#DejaVuSans-20" x="384.277344"/>
      <use xlink:href="#DejaVuSans-42" x="416.064453"/>
      <use xlink:href="#DejaVuSans-42" x="484.667969"/>
      <use xlink:href="#DejaVuSans-49" x="553.271484"/>
     </g>
    </g>
   </g>
   <g id="line2d_17">
    <path d="M 141.12 45.027377 
L 470.163456 45.136282 
L 470.647296 46.425538 
L 478.872576 69.006772 
L 486.291456 89.863624 
L 487.904256 94.440546 
L 489.710592 99.673219 
L 493.19424 110.807642 
L 494.80704 115.952349 
L 496.000512 119.550977 
L 499.903488 121.36362 
L 500.484096 121.619522 
L 501.355008 122.003376 
L 502.000128 122.269941 
L 503.580672 122.936354 
L 504.225792 123.202919 
L 505.322496 123.629423 
L 506.064384 123.922644 
L 507.161088 124.349149 
L 508.064256 124.677024 
L 508.741632 124.943589 
L 509.548032 125.25547 
L 510.902784 125.804594 
L 513.547776 126.790885 
L 514.16064 127.022796 
L 516.096 127.395987 
L 534.578688 127.289361 
L 534.80448 126.801547 
L 553.093632 75.087922 
L 556.835328 63.292417 
L 560.544768 51.617666 
L 565.157376 49.3412 
L 570.511872 46.984578 
L 579.220992 43.484472 
L 580.091904 43.268927 
L 594.381312 43.108189 
L 601.187328 43.184799 
L 616.541184 43.746186 
L 644.3136 44.46146 
L 669.95712 44.774399 
L 705.567744 44.945888 
L 753.596928 44.953885 
L 947.52 44.953885 
L 947.52 44.953885 
" clip-path="url(#p0d5d5840c2)" style="fill: none; stroke: #ff0000; stroke-width: 2; stroke-linecap: square"/>
   </g>
   <g id="patch_4">
    <path d="M 100.8 131.611034 
L 100.8 38.88 
" style="fill: none; stroke: #bcbcbc; stroke-width: 0.8; stroke-linejoin: miter; stroke-linecap: square"/>
   </g>
   <g id="patch_5">
    <path d="M 987.84 131.611034 
L 987.84 38.88 
" style="fill: none; stroke: #bcbcbc; stroke-width: 0.8; stroke-linejoin: miter; stroke-linecap: square"/>
   </g>
   <g id="patch_6">
    <path d="M 100.8 131.611034 
L 987.84 131.611034 
" style="fill: none; stroke: #bcbcbc; stroke-width: 0.8; stroke-linejoin: miter; stroke-linecap: square"/>
   </g>
   <g id="patch_7">
    <path d="M 100.8 38.88 
L 987.84 38.88 
" style="fill: none; stroke: #bcbcbc; stroke-width: 0.8; stroke-linejoin: miter; stroke-linecap: square"/>
   </g>
  </g>
  <g id="axes_2">
   <g id="patch_8">
    <path d="M 100.8 242.888276 
L 987.84 242.888276 
L 987.84 150.157241 
L 100.8 150.157241 
z
" style="fill: #eeeeee"/>
   </g>
   <g id="matplotlib.axis_3">
    <g id="xtick_7">
     <g id="line2d_18">
      <path d="M 141.12 242.888276 
L 141.12 150.157241 
" clip-path="url(#p809313c709)" style="fill: none; stroke-dasharray: 1.85,0.8; stroke-dashoffset: 0; stroke: #b2b2b2; stroke-width: 0.5"/>
     </g>
     <g id="line2d_19">
      <g>
       <use xlink:href="#m3a7e627cd3" x="141.12" y="242.888276" style="stroke: #000000; stroke-width: 0.8"/>
      </g>
     </g>
    </g>
    <g id="xtick_8">
     <g id="line2d_20">
      <path d="M 302.4 242.888276 
L 302.4 150.157241 
" clip-path="url(#p809313c709)" style="fill: none; stroke-dasharray: 1.85,0.8; stroke-dashoffset: 0; stroke: #b2b2b2; stroke-width: 0.5"/>
     </g>
     <g id="line2d_21">
      <g>
       <use xlink:href="#m3a7e627cd3" x="302.4" y="242.888276" style="stroke: #000000; stroke-width: 0.8"/>
      </g>
     </g>
    </g>
    <g id="xtick_9">
     <g id="line2d_22">
      <path d="M 463.68 242.888276 
L 463.68 150.157241 
" clip-path="url(#p809313c709)" style="fill: none; stroke-dasharray: 1.85,0.8; stroke-dashoffset: 0; stroke: #b2b2b2; stroke-width: 0.5"/>
     </g>
     <g id="line2d_23">
      <g>
       <use xlink:href="#m3a7e627cd3" x="463.68" y="242.888276" style="stroke: #000000; stroke-width: 0.8"/>
      </g>
     </g>
    </g>
    <g id="xtick_10">
     <g id="line2d_24">
      <path d="M 624.96 242.888276 
L 624.96 150.157241 
" clip-path="url(#p809313c709)" style="fill: none; stroke-dasharray: 1.85,0.8; stroke-dashoffset: 0; stroke: #b2b2b2; stroke-width: 0.5"/>
     </g>
     <g id="line2d_25">
      <g>
       <use xlink:href="#m3a7e627cd3" x="624.96" y="242.888276" style="stroke: #000000; stroke-width: 0.8"/>
      </g>
     </g>
    </g>
    <g id="xtick_11">
     <g id="line2d_26">
      <path d="M 786.24 242.888276 
L 786.24 150.157241 
" clip-path="url(#p809313c709)" style="fill: none; stroke-dasharray: 1.85,0.8; stroke-dashoffset: 0; stroke: #b2b2b2; stroke-width: 0.5"/>
     </g>
     <g id="line2d_27">
      <g>
       <use xlink:href="#m3a7e627cd3" x="786.24" y="242.888276" style="stroke: #000000; stroke-width: 0.8"/>
      </g>
     </g>
    </g>
    <g id="xtick_12">
     <g id="line2d_28">
      <path d="M 947.52 242.888276 
L 947.52 150.157241 
" clip-path="url(#p809313c709)" style="fill: none; stroke-dasharray: 1.85,0.8; stroke-dashoffset: 0; stroke: #b2b2b2; stroke-width: 0.5"/>
     </g>
     <g id="line2d_29">
      <g>
       <use xlink:href="#m3a7e627cd3" x="947.52" y="242.888276" style="stroke: #000000; stroke-width: 0.8"/>
      </g>
     </g>
    </g>
   </g>
   <g id="matplotlib.axis_4">
    <g id="ytick_3">
     <g id="line2d_30">
      <path d="M 100.8 219.174173 
L 987.84 219.174173 
" clip-path="url(#p809313c709)" style="fill: none; stroke-dasharray: 1.85,0.8; stroke-dashoffset: 0; stroke: #b2b2b2; stroke-width: 0.5"/>
     </g>
     <g id="line2d_31">
      <g>
       <use xlink:href="#m8cf8e86986" x="100.8" y="219.174173" style="stroke: #000000; stroke-width: 0.8"/>
      </g>
     </g>
     <g id="text_4">
      <!-- 0 V -->
      <g transform="translate(74.36625 224.493079) scale(0.14 -0.14)">
       <use xlink:href="#DejaVuSans-30"/>
       <use xlink:href="#DejaVuSans-20" x="63.623047"/>
       <use xlink:href="#DejaVuSans-56" x="95.410156"/>
      </g>
     </g>
    </g>
    <g id="ytick_4">
     <g id="line2d_32">
      <path d="M 100.8 185.168146 
L 987.84 185.168146 
" clip-path="url(#p809313c709)" style="fill: none; stroke-dasharray: 1.85,0.8; stroke-dashoffset: 0; stroke: #b2b2b2; stroke-width: 0.5"/>
     </g>
     <g id="line2d_33">
      <g>
       <use xlink:href="#m8cf8e86986" x="100.8" y="185.168146" style="stroke: #000000; stroke-width: 0.8"/>
      </g>
     </g>
     <g id="text_5">
      <!-- 1 V -->
      <g transform="translate(74.36625 190.487053) scale(0.14 -0.14)">
       <defs>
        <path id="DejaVuSans-31" d="M 794 531 
L 1825 531 
L 1825 4091 
L 703 3866 
L 703 4441 
L 1819 4666 
L 2450 4666 
L 2450 531 
L 3481 531 
L 3481 0 
L 794 0 
L 794 531 
z
" transform="scale(0.015625)"/>
       </defs>
       <use xlink:href="#DejaVuSans-31"/>
       <use xlink:href="#DejaVuSans-20" x="63.623047"/>
       <use xlink:href="#DejaVuSans-56" x="95.410156"/>
      </g>
     </g>
    </g>
    <g id="ytick_5">
     <g id="line2d_34">
      <path d="M 100.8 151.162119 
L 987.84 151.162119 
" clip-path="url(#p809313c709)" style="fill: none; stroke-dasharray: 1.85,0.8; stroke-dashoffset: 0; stroke: #b2b2b2; stroke-width: 0.5"/>
     </g>
     <g id="line2d_35">
      <g>
       <use xlink:href="#m8cf8e86986" x="100.8" y="151.162119" style="stroke: #000000; stroke-width: 0.8"/>
      </g>
     </g>
     <g id="text_6">
      <!-- 2 V -->
      <g transform="translate(74.36625 156.481026) scale(0.14 -0.14)">
       <use xlink:href="#DejaVuSans-32"/>
       <use xlink:href="#DejaVuSans-20" x="63.623047"/>
       <use xlink:href="#DejaVuSans-56" x="95.410156"/>
      </g>
     </g>
    </g>
    <g id="text_7">
     <g id="patch_9">
      <path d="M 34.8768 224.531509 
L 34.8768 168.514009 
L 11.247425 168.514009 
L 11.247425 224.531509 
z
" style="fill: #ffff00; opacity: 0.2; stroke: #eeeeee; stroke-width: 0.5; stroke-linejoin: miter"/>
     </g>
     <!-- DFF IN -->
     <g transform="translate(26.925238 219.491509) rotate(-90) scale(0.14 -0.14)">
      <defs>
       <path id="DejaVuSans-44" d="M 1259 4147 
L 1259 519 
L 2022 519 
Q 2988 519 3436 956 
Q 3884 1394 3884 2338 
Q 3884 3275 3436 3711 
Q 2988 4147 2022 4147 
L 1259 4147 
z
M 628 4666 
L 1925 4666 
Q 3281 4666 3915 4102 
Q 4550 3538 4550 2338 
Q 4550 1131 3912 565 
Q 3275 0 1925 0 
L 628 0 
L 628 4666 
z
" transform="scale(0.015625)"/>
       <path id="DejaVuSans-46" d="M 628 4666 
L 3309 4666 
L 3309 4134 
L 1259 4134 
L 1259 2759 
L 3109 2759 
L 3109 2228 
L 1259 2228 
L 1259 0 
L 628 0 
L 628 4666 
z
" transform="scale(0.015625)"/>
       <path id="DejaVuSans-4e" d="M 628 4666 
L 1478 4666 
L 3547 763 
L 3547 4666 
L 4159 4666 
L 4159 0 
L 3309 0 
L 1241 3903 
L 1241 0 
L 628 0 
L 628 4666 
z
" transform="scale(0.015625)"/>
      </defs>
      <use xlink:href="#DejaVuSans-44"/>
      <use xlink:href="#DejaVuSans-46" x="77.001953"/>
      <use xlink:href="#DejaVuSans-46" x="134.521484"/>
      <use xlink:href="#DejaVuSans-20" x="192.041016"/>
      <use xlink:href="#DejaVuSans-49" x="223.828125"/>
      <use xlink:href="#DejaVuSans-4e" x="253.320312"/>
     </g>
    </g>
   </g>
   <g id="line2d_36">
    <path d="M 141.12 219.124511 
L 221.953536 219.077878 
L 224.437248 200.130118 
L 225.404928 194.366096 
L 228.243456 181.69273 
L 229.598208 180.420905 
L 231.178752 179.54695 
L 236.533248 179.091269 
L 243.5328 178.98245 
L 244.952064 178.941643 
L 248.145408 178.832823 
L 249.790464 178.768212 
L 251.887104 178.659393 
L 254.241792 178.312531 
L 254.757888 177.775236 
L 255.499776 177.435176 
L 256.338432 177.448778 
L 259.789824 178.064287 
L 262.467072 178.237718 
L 263.886336 178.285326 
L 264.144384 183.529056 
L 264.434688 187.096968 
L 265.176576 191.84999 
L 267.144192 209.198845 
L 268.402176 215.7127 
L 269.047296 216.996971 
L 270.46656 218.761204 
L 273.724416 219.176009 
L 282.530304 219.128554 
L 297.013248 219.118811 
L 305.754624 219.123667 
L 347.751936 219.079575 
L 350.235648 200.170245 
L 351.622656 191.524893 
L 352.654848 186.228794 
L 354.97728 179.227293 
L 358.493184 178.227516 
L 360.202752 178.298929 
L 363.009024 178.407748 
L 364.33152 178.438354 
L 375.169536 178.509766 
L 375.717888 179.502742 
L 376.169472 180.254275 
L 377.008128 181.162236 
L 377.524224 181.111227 
L 378.427392 180.818775 
L 380.427264 179.679574 
L 381.58848 179.305507 
L 387.168768 178.826022 
L 389.587968 178.717203 
L 391.684608 178.604983 
L 394.232832 178.496164 
L 395.61984 178.458757 
L 415.360512 178.373742 
L 416.489472 177.441977 
L 417.037824 177.377366 
L 417.908736 177.486185 
L 419.16672 177.768435 
L 420.908544 178.02348 
L 423.940608 178.234317 
L 455.712768 178.336335 
L 456.809472 179.227293 
L 457.261056 179.305507 
L 459.97056 179.196688 
L 461.873664 178.887233 
L 463.776768 178.598182 
L 466.066944 178.465558 
L 470.260224 178.570977 
L 472.679424 182.440863 
L 474.550272 184.984514 
L 479.356416 191.741851 
L 479.775744 193.049723 
L 481.162752 198.197215 
L 481.549824 199.528211 
L 482.420736 203.3039 
L 483.098112 206.319555 
L 483.259392 206.97179 
L 483.936768 210.132311 
L 485.356032 215.554572 
L 487.646208 223.150498 
L 487.968768 223.676231 
L 488.323584 224.784487 
L 488.83968 225.843095 
L 489.4848 226.599389 
L 489.904128 227.736891 
L 490.387968 228.842427 
L 490.646016 229.194049 
L 491.033088 230.099629 
L 491.452416 230.929716 
L 491.613696 231.151776 
L 491.904 231.587733 
L 492.162048 232.050895 
L 492.516864 232.976539 
L 492.968448 233.682164 
L 493.19424 234.05521 
L 494.00064 235.601124 
L 494.258688 235.918741 
L 494.452224 236.192489 
L 494.903808 237.040259 
L 495.323136 237.855044 
L 495.903744 238.639223 
L 496.161792 238.6229 
L 496.516608 238.214488 
L 496.90368 237.762888 
L 497.290752 237.019516 
L 497.613312 236.42203 
L 497.968128 235.963289 
L 498.290688 235.718105 
L 498.774528 235.145444 
L 499.613184 234.098738 
L 501.193728 232.683067 
L 501.41952 232.227386 
L 501.74208 231.821014 
L 502.000128 231.693492 
L 502.193664 231.613918 
L 502.354944 231.426545 
L 502.677504 231.274538 
L 502.935552 231.132392 
L 505.193472 228.97539 
L 505.580544 228.821343 
L 506.90304 227.670579 
L 507.419136 227.005761 
L 507.515904 226.904083 
L 507.806208 226.677943 
L 508.483584 226.383791 
L 511.354368 224.159797 
L 511.999488 223.678271 
L 512.967168 222.947482 
L 515.644416 220.69193 
L 518.805504 216.37949 
L 519.64416 215.26212 
L 523.256832 210.793048 
L 524.32128 209.655206 
L 524.676096 208.849603 
L 527.22432 201.773969 
L 527.70816 200.98843 
L 530.836992 196.53126 
L 533.707776 193.398285 
L 534.675456 192.286288 
L 535.159296 190.740374 
L 536.514048 185.97987 
L 537.38496 184.035746 
L 537.965568 183.202598 
L 539.513856 181.58051 
L 544.352256 175.806287 
L 550.158336 167.430603 
L 560.577024 154.402894 
L 562.028544 154.746355 
L 562.963968 154.753156 
L 564.060672 154.875578 
L 564.48 154.936788 
L 565.254144 155.123822 
L 566.931456 155.542096 
L 567.770112 155.739331 
L 570.479616 156.480662 
L 571.447296 156.796918 
L 572.769792 157.238996 
L 573.705216 157.545051 
L 574.834176 157.902114 
L 576.672768 158.422406 
L 577.124352 157.42943 
L 577.446912 157.150581 
L 577.801728 157.14718 
L 578.285568 157.405626 
L 579.382272 158.350994 
L 580.995072 159.735039 
L 584.059392 161.544159 
L 586.446336 162.669759 
L 587.091456 162.952009 
L 591.994368 164.903955 
L 592.607232 165.141997 
L 594.284544 165.730301 
L 606.993408 169.637594 
L 607.638528 169.807624 
L 608.315904 169.977654 
L 612.38016 170.943425 
L 613.02528 171.096452 
L 614.057472 171.314091 
L 615.12192 171.53513 
L 615.670272 171.643949 
L 616.73472 171.864989 
L 617.025024 171.994211 
L 617.476608 172.783151 
L 617.86368 173.102808 
L 618.315264 173.306844 
L 619.444224 173.317046 
L 620.089344 173.140215 
L 620.60544 172.987187 
L 622.347264 172.905573 
L 623.50848 173.038197 
L 626.314752 173.439468 
L 627.024384 173.548287 
L 628.572672 173.762525 
L 629.31456 173.871344 
L 630.798336 174.07198 
L 631.636992 174.180799 
L 632.927232 174.344028 
L 633.733632 174.449447 
L 634.862592 174.57867 
L 635.862528 174.684088 
L 637.152768 174.843917 
L 638.120448 174.952736 
L 646.281216 175.704269 
L 647.668224 175.813088 
L 648.216576 175.874299 
L 651.184128 176.081736 
L 651.829248 176.112341 
L 652.345344 176.15995 
L 653.184 176.224561 
L 653.861376 176.258567 
L 654.667776 176.316377 
L 655.312896 176.353784 
L 657.280512 176.476206 
L 658.18368 175.673664 
L 658.570752 175.592049 
L 659.022336 175.602251 
L 659.6352 175.745076 
L 660.635136 176.064733 
L 661.473792 176.302775 
L 664.022016 176.72785 
L 665.215488 176.833269 
L 665.699328 176.870676 
L 668.150784 177.023703 
L 668.82816 177.061109 
L 670.537728 177.132522 
L 673.085952 177.241341 
L 674.440704 177.275347 
L 677.730816 177.384167 
L 679.117824 177.424974 
L 679.924224 177.448778 
L 684.440064 177.557597 
L 685.76256 177.588203 
L 690.60096 177.693622 
L 691.24608 177.720826 
L 697.600512 177.819444 
L 697.761792 177.999676 
L 698.245632 178.523369 
L 698.697216 178.771613 
L 699.47136 178.904236 
L 700.310016 178.795417 
L 702.3744 178.254721 
L 705.019392 178.084691 
L 737.952768 177.999676 
L 738.533376 177.380766 
L 739.178496 177.095116 
L 740.2752 177.084914 
L 744.242688 177.809242 
L 745.92 177.877254 
L 778.240512 177.986073 
L 778.401792 178.166305 
L 778.917888 178.686598 
L 779.30496 178.87023 
L 779.917824 179.009655 
L 782.272512 178.900836 
L 783.98208 178.611784 
L 785.304576 178.445155 
L 789.852672 178.074489 
L 818.592768 177.999676 
L 819.14112 177.384167 
L 819.689472 177.108718 
L 821.624832 177.217537 
L 824.882688 177.792239 
L 826.979328 177.904459 
L 858.912768 177.999676 
L 859.848192 178.836224 
L 860.783616 179.016456 
L 862.880256 178.907637 
L 864.589824 178.618586 
L 865.944576 178.445155 
L 870.492672 178.074489 
L 899.232768 177.999676 
L 899.78112 177.384167 
L 900.329472 177.108718 
L 902.264832 177.217537 
L 905.522688 177.792239 
L 907.619328 177.904459 
L 939.552768 177.999676 
L 940.617216 178.86683 
L 941.55264 179.053863 
L 943.455744 178.945043 
L 944.77824 178.696799 
L 947.003904 178.339736 
L 947.52 178.258122 
L 947.52 178.258122 
" clip-path="url(#p809313c709)" style="fill: none; stroke: #008000; stroke-width: 2; stroke-linecap: square"/>
   </g>
   <g id="patch_10">
    <path d="M 100.8 242.888276 
L 100.8 150.157241 
" style="fill: none; stroke: #bcbcbc; stroke-width: 0.8; stroke-linejoin: miter; stroke-linecap: square"/>
   </g>
   <g id="patch_11">
    <path d="M 987.84 242.888276 
L 987.84 150.157241 
" style="fill: none; stroke: #bcbcbc; stroke-width: 0.8; stroke-linejoin: miter; stroke-linecap: square"/>
   </g>
   <g id="patch_12">
    <path d="M 100.8 242.888276 
L 987.84 242.888276 
" style="fill: none; stroke: #bcbcbc; stroke-width: 0.8; stroke-linejoin: miter; stroke-linecap: square"/>
   </g>
   <g id="patch_13">
    <path d="M 100.8 150.157241 
L 987.84 150.157241 
" style="fill: none; stroke: #bcbcbc; stroke-width: 0.8; stroke-linejoin: miter; stroke-linecap: square"/>
   </g>
  </g>
  <g id="axes_3">
   <g id="patch_14">
    <path d="M 100.8 354.165517 
L 987.84 354.165517 
L 987.84 261.434483 
L 100.8 261.434483 
z
" style="fill: #eeeeee"/>
   </g>
   <g id="matplotlib.axis_5">
    <g id="xtick_13">
     <g id="line2d_37">
      <path d="M 141.12 354.165517 
L 141.12 261.434483 
" clip-path="url(#p05db3ab2bf)" style="fill: none; stroke-dasharray: 1.85,0.8; stroke-dashoffset: 0; stroke: #b2b2b2; stroke-width: 0.5"/>
     </g>
     <g id="line2d_38">
      <g>
       <use xlink:href="#m3a7e627cd3" x="141.12" y="354.165517" style="stroke: #000000; stroke-width: 0.8"/>
      </g>
     </g>
    </g>
    <g id="xtick_14">
     <g id="line2d_39">
      <path d="M 302.4 354.165517 
L 302.4 261.434483 
" clip-path="url(#p05db3ab2bf)" style="fill: none; stroke-dasharray: 1.85,0.8; stroke-dashoffset: 0; stroke: #b2b2b2; stroke-width: 0.5"/>
     </g>
     <g id="line2d_40">
      <g>
       <use xlink:href="#m3a7e627cd3" x="302.4" y="354.165517" style="stroke: #000000; stroke-width: 0.8"/>
      </g>
     </g>
    </g>
    <g id="xtick_15">
     <g id="line2d_41">
      <path d="M 463.68 354.165517 
L 463.68 261.434483 
" clip-path="url(#p05db3ab2bf)" style="fill: none; stroke-dasharray: 1.85,0.8; stroke-dashoffset: 0; stroke: #b2b2b2; stroke-width: 0.5"/>
     </g>
     <g id="line2d_42">
      <g>
       <use xlink:href="#m3a7e627cd3" x="463.68" y="354.165517" style="stroke: #000000; stroke-width: 0.8"/>
      </g>
     </g>
    </g>
    <g id="xtick_16">
     <g id="line2d_43">
      <path d="M 624.96 354.165517 
L 624.96 261.434483 
" clip-path="url(#p05db3ab2bf)" style="fill: none; stroke-dasharray: 1.85,0.8; stroke-dashoffset: 0; stroke: #b2b2b2; stroke-width: 0.5"/>
     </g>
     <g id="line2d_44">
      <g>
       <use xlink:href="#m3a7e627cd3" x="624.96" y="354.165517" style="stroke: #000000; stroke-width: 0.8"/>
      </g>
     </g>
    </g>
    <g id="xtick_17">
     <g id="line2d_45">
      <path d="M 786.24 354.165517 
L 786.24 261.434483 
" clip-path="url(#p05db3ab2bf)" style="fill: none; stroke-dasharray: 1.85,0.8; stroke-dashoffset: 0; stroke: #b2b2b2; stroke-width: 0.5"/>
     </g>
     <g id="line2d_46">
      <g>
       <use xlink:href="#m3a7e627cd3" x="786.24" y="354.165517" style="stroke: #000000; stroke-width: 0.8"/>
      </g>
     </g>
    </g>
    <g id="xtick_18">
     <g id="line2d_47">
      <path d="M 947.52 354.165517 
L 947.52 261.434483 
" clip-path="url(#p05db3ab2bf)" style="fill: none; stroke-dasharray: 1.85,0.8; stroke-dashoffset: 0; stroke: #b2b2b2; stroke-width: 0.5"/>
     </g>
     <g id="line2d_48">
      <g>
       <use xlink:href="#m3a7e627cd3" x="947.52" y="354.165517" style="stroke: #000000; stroke-width: 0.8"/>
      </g>
     </g>
    </g>
   </g>
   <g id="matplotlib.axis_6">
    <g id="ytick_6">
     <g id="line2d_49">
      <path d="M 100.8 343.17668 
L 987.84 343.17668 
" clip-path="url(#p05db3ab2bf)" style="fill: none; stroke-dasharray: 1.85,0.8; stroke-dashoffset: 0; stroke: #b2b2b2; stroke-width: 0.5"/>
     </g>
     <g id="line2d_50">
      <g>
       <use xlink:href="#m8cf8e86986" x="100.8" y="343.17668" style="stroke: #000000; stroke-width: 0.8"/>
      </g>
     </g>
     <g id="text_8">
      <!-- 0 V -->
      <g transform="translate(74.36625 348.495586) scale(0.14 -0.14)">
       <use xlink:href="#DejaVuSans-30"/>
       <use xlink:href="#DejaVuSans-20" x="63.623047"/>
       <use xlink:href="#DejaVuSans-56" x="95.410156"/>
      </g>
     </g>
    </g>
    <g id="ytick_7">
     <g id="line2d_51">
      <path d="M 100.8 299.707574 
L 987.84 299.707574 
" clip-path="url(#p05db3ab2bf)" style="fill: none; stroke-dasharray: 1.85,0.8; stroke-dashoffset: 0; stroke: #b2b2b2; stroke-width: 0.5"/>
     </g>
     <g id="line2d_52">
      <g>
       <use xlink:href="#m8cf8e86986" x="100.8" y="299.707574" style="stroke: #000000; stroke-width: 0.8"/>
      </g>
     </g>
     <g id="text_9">
      <!-- 1 V -->
      <g transform="translate(74.36625 305.02648) scale(0.14 -0.14)">
       <use xlink:href="#DejaVuSans-31"/>
       <use xlink:href="#DejaVuSans-20" x="63.623047"/>
       <use xlink:href="#DejaVuSans-56" x="95.410156"/>
      </g>
     </g>
    </g>
    <g id="text_10">
     <g id="patch_15">
      <path d="M 34.8768 342.395313 
L 34.8768 273.204688 
L 11.247425 273.204688 
L 11.247425 342.395313 
z
" style="fill: #ffff00; opacity: 0.2; stroke: #eeeeee; stroke-width: 0.5; stroke-linejoin: miter"/>
     </g>
     <!-- CLK BUF -->
     <g transform="translate(26.925238 337.355313) rotate(-90) scale(0.14 -0.14)">
      <defs>
       <path id="DejaVuSans-43" d="M 4122 4306 
L 4122 3641 
Q 3803 3938 3442 4084 
Q 3081 4231 2675 4231 
Q 1875 4231 1450 3742 
Q 1025 3253 1025 2328 
Q 1025 1406 1450 917 
Q 1875 428 2675 428 
Q 3081 428 3442 575 
Q 3803 722 4122 1019 
L 4122 359 
Q 3791 134 3420 21 
Q 3050 -91 2638 -91 
Q 1578 -91 968 557 
Q 359 1206 359 2328 
Q 359 3453 968 4101 
Q 1578 4750 2638 4750 
Q 3056 4750 3426 4639 
Q 3797 4528 4122 4306 
z
" transform="scale(0.015625)"/>
       <path id="DejaVuSans-4b" d="M 628 4666 
L 1259 4666 
L 1259 2694 
L 3353 4666 
L 4166 4666 
L 1850 2491 
L 4331 0 
L 3500 0 
L 1259 2247 
L 1259 0 
L 628 0 
L 628 4666 
z
" transform="scale(0.015625)"/>
      </defs>
      <use xlink:href="#DejaVuSans-43"/>
      <use xlink:href="#DejaVuSans-4c" x="69.824219"/>
      <use xlink:href="#DejaVuSans-4b" x="125.537109"/>
      <use xlink:href="#DejaVuSans-20" x="191.113281"/>
      <use xlink:href="#DejaVuSans-42" x="222.900391"/>
      <use xlink:href="#DejaVuSans-55" x="291.503906"/>
      <use xlink:href="#DejaVuSans-46" x="364.697266"/>
     </g>
    </g>
   </g>
   <g id="line2d_53">
    <path d="M 141.12 343.17553 
L 173.376 343.17553 
L 173.601792 291.013753 
L 213.696 291.013753 
L 213.760512 332.621946 
L 213.825024 343.156821 
L 213.889536 343.094266 
L 213.954048 343.267921 
L 214.01856 343.18139 
L 215.341056 343.17227 
L 223.340544 343.175495 
L 254.016 343.1755 
L 254.17728 290.852917 
L 254.241792 291.131119 
L 254.403072 291.005059 
L 254.854656 291.013753 
L 294.336 291.013753 
L 294.400512 332.585432 
L 294.465024 343.50105 
L 294.529536 342.745283 
L 294.626304 343.244991 
L 294.65856 343.214059 
L 294.852096 343.137655 
L 295.206912 343.192497 
L 295.497216 343.175191 
L 320.431104 343.175529 
L 334.656 343.175532 
L 334.81728 290.935508 
L 334.881792 291.031141 
L 335.204352 291.0181 
L 336.043008 291.013753 
L 374.976 291.013753 
L 375.040512 332.625858 
L 375.105024 343.177385 
L 375.169536 343.088755 
L 375.234048 343.261453 
L 375.29856 343.181535 
L 376.685568 343.171894 
L 384.97536 343.175473 
L 415.296 343.175532 
L 415.45728 290.852917 
L 415.521792 291.131119 
L 415.683072 291.000712 
L 416.58624 291.013753 
L 455.616 291.013753 
L 455.648256 294.834687 
L 455.77728 343.072297 
L 455.906304 343.234376 
L 455.970816 343.189489 
L 456.196608 343.163415 
L 456.454656 343.191683 
L 456.74496 343.175533 
L 470.098944 343.186395 
L 470.389248 343.483232 
L 471.066624 344.041932 
L 471.873024 344.401552 
L 473.001984 344.626722 
L 474.776064 344.709052 
L 478.872576 344.615333 
L 488.065536 344.396553 
L 489.678336 344.885494 
L 492.903936 346.834344 
L 494.16192 347.624004 
L 495.936 348.683346 
L 495.968256 349.95047 
L 496.161792 325.826421 
L 496.387584 325.58821 
L 496.452096 325.592122 
L 496.484352 325.538221 
L 496.677888 325.483015 
L 496.935936 325.354346 
L 501.90336 323.442575 
L 501.935616 323.48474 
L 501.967872 323.352594 
L 502.22592 323.33738 
L 502.354944 323.281739 
L 503.870976 322.751416 
L 503.903232 322.632311 
L 504 322.666651 
L 504.16128 322.645786 
L 504.290304 322.566238 
L 504.451584 322.515814 
L 504.580608 322.424963 
L 504.741888 322.425398 
L 515.837952 318.42624 
L 518.450688 316.833097 
L 519.450624 316.171932 
L 524.611584 312.826985 
L 529.127424 310.216665 
L 533.546496 307.960618 
L 534.707712 307.309886 
L 536.159232 304.545685 
L 536.256 304.341815 
L 536.288256 303.052087 
L 536.449536 341.440045 
L 536.610816 341.476125 
L 537.804288 341.299727 
L 539.739648 341.269255 
L 544.997376 341.472473 
L 554.222592 341.785494 
L 555.867648 341.715857 
L 559.931904 341.8214 
L 560.512512 341.939114 
L 561.157632 342.586456 
L 561.89952 343.017426 
L 562.834944 343.307056 
L 564.189696 343.486862 
L 566.641152 343.567254 
L 575.479296 343.525397 
L 576.576 343.519064 
L 576.608256 333.670421 
L 576.705024 265.64953 
L 576.73728 265.801672 
L 576.834048 265.766896 
L 576.866304 265.784284 
L 580.898304 267.531742 
L 581.640192 267.992515 
L 582.414336 268.422859 
L 584.64 269.74432 
L 585.059328 269.99644 
L 585.865728 270.439825 
L 592.026624 273.634804 
L 593.736192 274.44333 
L 595.155456 275.082326 
L 606.993408 279.759601 
L 607.251456 279.85958 
L 608.799744 280.368169 
L 609.090048 280.468148 
L 610.186752 280.80286 
L 610.541568 280.902839 
L 611.767296 281.28102 
L 616.896 282.711154 
L 617.089536 343.485897 
L 617.154048 343.397776 
L 617.54112 343.39329 
L 657.216 343.239797 
L 657.345024 288.370831 
L 657.441792 288.714237 
L 657.957888 288.753359 
L 659.441664 288.844644 
L 660.989952 288.953317 
L 661.248 288.970705 
L 662.989824 289.070684 
L 663.34464 289.101112 
L 665.215488 289.201091 
L 665.570304 289.23152 
L 667.53792 289.331498 
L 667.892736 289.361927 
L 670.150656 289.461906 
L 670.505472 289.492334 
L 672.86016 289.592313 
L 673.214976 289.622741 
L 675.956736 289.72272 
L 676.311552 289.753149 
L 679.343616 289.853128 
L 679.698432 289.883556 
L 683.117568 289.983535 
L 683.472384 290.013963 
L 687.37536 290.113942 
L 687.730176 290.144371 
L 692.310528 290.24435 
L 692.665344 290.274778 
L 697.536 290.361716 
L 697.568256 295.291113 
L 697.665024 343.268764 
L 697.69728 343.112993 
L 697.923072 343.182324 
L 698.084352 343.19653 
L 699.116544 343.192484 
L 737.856 343.187977 
L 738.01728 290.492124 
L 738.081792 290.596449 
L 739.017216 290.579062 
L 778.176 290.579062 
L 778.305024 343.508692 
L 778.466304 343.255885 
L 778.724352 343.158925 
L 779.079168 343.206243 
L 779.401728 343.187751 
L 816.786432 343.187978 
L 818.496 343.187979 
L 818.65728 290.353022 
L 818.721792 290.844223 
L 818.81856 290.400838 
L 818.883072 290.561674 
L 819.366912 290.579062 
L 858.816 290.579062 
L 858.945024 343.508783 
L 859.106304 343.255798 
L 859.364352 343.158953 
L 859.719168 343.206244 
L 860.041728 343.187752 
L 897.587712 343.187978 
L 899.136 343.187979 
L 899.29728 290.353022 
L 899.361792 290.844223 
L 899.45856 290.396492 
L 899.523072 290.561674 
L 900.006912 290.579062 
L 939.456 290.579062 
L 939.488256 298.416542 
L 939.61728 343.13628 
L 939.649536 343.262683 
L 939.714048 343.141747 
L 939.746304 343.103604 
L 939.810816 343.159708 
L 940.004352 343.213993 
L 940.230144 343.186599 
L 945.58464 343.187983 
L 947.52 343.187968 
L 947.52 343.187968 
" clip-path="url(#p05db3ab2bf)" style="fill: none; stroke: #0000ff; stroke-width: 2; stroke-linecap: square"/>
   </g>
   <g id="patch_16">
    <path d="M 100.8 354.165517 
L 100.8 261.434483 
" style="fill: none; stroke: #bcbcbc; stroke-width: 0.8; stroke-linejoin: miter; stroke-linecap: square"/>
   </g>
   <g id="patch_17">
    <path d="M 987.84 354.165517 
L 987.84 261.434483 
" style="fill: none; stroke: #bcbcbc; stroke-width: 0.8; stroke-linejoin: miter; stroke-linecap: square"/>
   </g>
   <g id="patch_18">
    <path d="M 100.8 354.165517 
L 987.84 354.165517 
" style="fill: none; stroke: #bcbcbc; stroke-width: 0.8; stroke-linejoin: miter; stroke-linecap: square"/>
   </g>
   <g id="patch_19">
    <path d="M 100.8 261.434483 
L 987.84 261.434483 
" style="fill: none; stroke: #bcbcbc; stroke-width: 0.8; stroke-linejoin: miter; stroke-linecap: square"/>
   </g>
  </g>
  <g id="axes_4">
   <g id="patch_20">
    <path d="M 100.8 465.442759 
L 987.84 465.442759 
L 987.84 372.711724 
L 100.8 372.711724 
z
" style="fill: #eeeeee"/>
   </g>
   <g id="matplotlib.axis_7">
    <g id="xtick_19">
     <g id="line2d_54">
      <path d="M 141.12 465.442759 
L 141.12 372.711724 
" clip-path="url(#p8dc0dd0435)" style="fill: none; stroke-dasharray: 1.85,0.8; stroke-dashoffset: 0; stroke: #b2b2b2; stroke-width: 0.5"/>
     </g>
     <g id="line2d_55">
      <g>
       <use xlink:href="#m3a7e627cd3" x="141.12" y="465.442759" style="stroke: #000000; stroke-width: 0.8"/>
      </g>
     </g>
    </g>
    <g id="xtick_20">
     <g id="line2d_56">
      <path d="M 302.4 465.442759 
L 302.4 372.711724 
" clip-path="url(#p8dc0dd0435)" style="fill: none; stroke-dasharray: 1.85,0.8; stroke-dashoffset: 0; stroke: #b2b2b2; stroke-width: 0.5"/>
     </g>
     <g id="line2d_57">
      <g>
       <use xlink:href="#m3a7e627cd3" x="302.4" y="465.442759" style="stroke: #000000; stroke-width: 0.8"/>
      </g>
     </g>
    </g>
    <g id="xtick_21">
     <g id="line2d_58">
      <path d="M 463.68 465.442759 
L 463.68 372.711724 
" clip-path="url(#p8dc0dd0435)" style="fill: none; stroke-dasharray: 1.85,0.8; stroke-dashoffset: 0; stroke: #b2b2b2; stroke-width: 0.5"/>
     </g>
     <g id="line2d_59">
      <g>
       <use xlink:href="#m3a7e627cd3" x="463.68" y="465.442759" style="stroke: #000000; stroke-width: 0.8"/>
      </g>
     </g>
    </g>
    <g id="xtick_22">
     <g id="line2d_60">
      <path d="M 624.96 465.442759 
L 624.96 372.711724 
" clip-path="url(#p8dc0dd0435)" style="fill: none; stroke-dasharray: 1.85,0.8; stroke-dashoffset: 0; stroke: #b2b2b2; stroke-width: 0.5"/>
     </g>
     <g id="line2d_61">
      <g>
       <use xlink:href="#m3a7e627cd3" x="624.96" y="465.442759" style="stroke: #000000; stroke-width: 0.8"/>
      </g>
     </g>
    </g>
    <g id="xtick_23">
     <g id="line2d_62">
      <path d="M 786.24 465.442759 
L 786.24 372.711724 
" clip-path="url(#p8dc0dd0435)" style="fill: none; stroke-dasharray: 1.85,0.8; stroke-dashoffset: 0; stroke: #b2b2b2; stroke-width: 0.5"/>
     </g>
     <g id="line2d_63">
      <g>
       <use xlink:href="#m3a7e627cd3" x="786.24" y="465.442759" style="stroke: #000000; stroke-width: 0.8"/>
      </g>
     </g>
    </g>
    <g id="xtick_24">
     <g id="line2d_64">
      <path d="M 947.52 465.442759 
L 947.52 372.711724 
" clip-path="url(#p8dc0dd0435)" style="fill: none; stroke-dasharray: 1.85,0.8; stroke-dashoffset: 0; stroke: #b2b2b2; stroke-width: 0.5"/>
     </g>
     <g id="line2d_65">
      <g>
       <use xlink:href="#m3a7e627cd3" x="947.52" y="465.442759" style="stroke: #000000; stroke-width: 0.8"/>
      </g>
     </g>
    </g>
   </g>
   <g id="matplotlib.axis_8">
    <g id="ytick_8">
     <g id="line2d_66">
      <path d="M 100.8 440.758504 
L 987.84 440.758504 
" clip-path="url(#p8dc0dd0435)" style="fill: none; stroke-dasharray: 1.85,0.8; stroke-dashoffset: 0; stroke: #b2b2b2; stroke-width: 0.5"/>
     </g>
     <g id="line2d_67">
      <g>
       <use xlink:href="#m8cf8e86986" x="100.8" y="440.758504" style="stroke: #000000; stroke-width: 0.8"/>
      </g>
     </g>
     <g id="text_11">
      <!-- 0 V -->
      <g transform="translate(74.36625 446.07741) scale(0.14 -0.14)">
       <use xlink:href="#DejaVuSans-30"/>
       <use xlink:href="#DejaVuSans-20" x="63.623047"/>
       <use xlink:href="#DejaVuSans-56" x="95.410156"/>
      </g>
     </g>
    </g>
    <g id="ytick_9">
     <g id="line2d_68">
      <path d="M 100.8 404.760459 
L 987.84 404.760459 
" clip-path="url(#p8dc0dd0435)" style="fill: none; stroke-dasharray: 1.85,0.8; stroke-dashoffset: 0; stroke: #b2b2b2; stroke-width: 0.5"/>
     </g>
     <g id="line2d_69">
      <g>
       <use xlink:href="#m8cf8e86986" x="100.8" y="404.760459" style="stroke: #000000; stroke-width: 0.8"/>
      </g>
     </g>
     <g id="text_12">
      <!-- 1 V -->
      <g transform="translate(74.36625 410.079365) scale(0.14 -0.14)">
       <use xlink:href="#DejaVuSans-31"/>
       <use xlink:href="#DejaVuSans-20" x="63.623047"/>
       <use xlink:href="#DejaVuSans-56" x="95.410156"/>
      </g>
     </g>
    </g>
    <g id="text_13">
     <g id="patch_21">
      <path d="M 34.8768 454.693023 
L 34.8768 383.46146 
L 11.247425 383.46146 
L 11.247425 454.693023 
z
" style="fill: #ffff00; opacity: 0.2; stroke: #eeeeee; stroke-width: 0.5; stroke-linejoin: miter"/>
     </g>
     <!-- DFF OUT -->
     <g transform="translate(26.925238 449.653023) rotate(-90) scale(0.14 -0.14)">
      <defs>
       <path id="DejaVuSans-4f" d="M 2522 4238 
Q 1834 4238 1429 3725 
Q 1025 3213 1025 2328 
Q 1025 1447 1429 934 
Q 1834 422 2522 422 
Q 3209 422 3611 934 
Q 4013 1447 4013 2328 
Q 4013 3213 3611 3725 
Q 3209 4238 2522 4238 
z
M 2522 4750 
Q 3503 4750 4090 4092 
Q 4678 3434 4678 2328 
Q 4678 1225 4090 567 
Q 3503 -91 2522 -91 
Q 1538 -91 948 565 
Q 359 1222 359 2328 
Q 359 3434 948 4092 
Q 1538 4750 2522 4750 
z
" transform="scale(0.015625)"/>
       <path id="DejaVuSans-54" d="M -19 4666 
L 3928 4666 
L 3928 4134 
L 2272 4134 
L 2272 0 
L 1638 0 
L 1638 4134 
L -19 4134 
L -19 4666 
z
" transform="scale(0.015625)"/>
      </defs>
      <use xlink:href="#DejaVuSans-44"/>
      <use xlink:href="#DejaVuSans-46" x="77.001953"/>
      <use xlink:href="#DejaVuSans-46" x="134.521484"/>
      <use xlink:href="#DejaVuSans-20" x="192.041016"/>
      <use xlink:href="#DejaVuSans-4f" x="223.828125"/>
      <use xlink:href="#DejaVuSans-55" x="302.539062"/>
      <use xlink:href="#DejaVuSans-54" x="375.732422"/>
     </g>
    </g>
   </g>
   <g id="line2d_70">
    <path d="M 141.12 413.596899 
L 173.408256 413.640817 
L 173.440512 415.131136 
L 173.601792 440.760701 
L 174.1824 440.757158 
L 185.439744 440.757541 
L 254.048256 440.759052 
L 254.080512 440.902957 
L 254.112768 440.664919 
L 254.306304 437.15042 
L 254.628864 436.342983 
L 254.693376 435.943405 
L 255.14496 429.636548 
L 255.370752 414.813273 
L 255.596544 397.910031 
L 255.757824 397.614847 
L 255.983616 397.55725 
L 257.015808 397.56085 
L 295.755264 397.632846 
L 296.239104 399.96192 
L 296.59392 399.378751 
L 297.980928 397.848835 
L 299.65824 397.586049 
L 334.688256 397.575249 
L 334.720512 397.470855 
L 334.752768 398.000026 
L 334.785024 400.617084 
L 334.914048 440.743747 
L 334.97856 440.712066 
L 335.13984 440.750959 
L 335.559168 440.757773 
L 370.1376 440.757511 
L 415.328256 440.75903 
L 415.360512 440.902456 
L 415.392768 440.666914 
L 415.586304 437.066544 
L 415.876608 436.240389 
L 415.908864 436.141394 
L 416.1024 431.872386 
L 416.521728 419.444421 
L 416.9088 397.679644 
L 417.102336 397.56445 
L 418.392576 397.532052 
L 470.195712 397.618447 
L 471.227904 398.809982 
L 471.969792 399.796329 
L 478.130688 408.921833 
L 478.743552 410.295158 
L 479.098368 411.200149 
L 479.16288 411.286185 
L 480.066048 415.066699 
L 480.646656 417.351855 
L 480.678912 417.157826 
L 480.711168 417.126147 
L 480.743424 417.190584 
L 480.904704 418.423157 
L 481.356288 420.218379 
L 481.388544 419.796482 
L 481.549824 421.110771 
L 481.775616 422.094237 
L 481.840128 421.994163 
L 481.936896 422.137435 
L 482.001408 422.387622 
L 482.162688 423.70983 
L 482.54976 425.375819 
L 482.582016 424.838008 
L 482.614272 425.608007 
L 483.001344 427.285155 
L 483.0336 427.033889 
L 483.098112 427.114525 
L 483.162624 427.318634 
L 483.323904 428.652001 
L 486.968832 442.80564 
L 487.001088 442.492025 
L 487.0656 442.607975 
L 487.581696 444.705329 
L 487.742976 445.123986 
L 487.775232 445.072869 
L 487.807488 444.916998 
L 487.872 445.045871 
L 488.001024 445.508086 
L 488.03328 445.403691 
L 488.065536 445.496206 
L 488.19456 446.141651 
L 488.226816 445.963821 
L 488.259072 446.025737 
L 488.452608 446.754698 
L 488.936448 447.541615 
L 489.388032 448.224858 
L 489.452544 448.480444 
L 489.517056 448.842584 
L 489.549312 448.583398 
L 489.64608 448.802267 
L 489.936384 449.739296 
L 490.2912 450.525853 
L 490.61376 451.239694 
L 490.646016 451.004627 
L 490.678272 451.379727 
L 490.710528 451.177778 
L 490.742784 451.200096 
L 490.93632 451.885139 
L 490.968576 451.8711 
L 491.065344 452.026971 
L 491.226624 452.544983 
L 491.645952 453.372578 
L 491.678208 453.34162 
L 491.710464 453.310302 
L 491.74272 453.361779 
L 492.000768 453.881951 
L 492.097536 454.315367 
L 492.129792 454.168855 
L 492.22656 454.358925 
L 492.420096 454.852098 
L 492.678144 455.344191 
L 492.936192 455.91512 
L 492.968448 455.825845 
L 493.129728 456.299219 
L 493.161984 456.263221 
L 493.19424 456.326938 
L 493.420032 456.856829 
L 495.968256 461.227712 
L 496.323072 460.986165 
L 496.516608 460.630504 
L 498.19392 457.976728 
L 498.258432 457.879893 
L 498.580992 457.39032 
L 498.67776 457.288446 
L 498.871296 456.982102 
L 498.935808 457.02926 
L 499.193856 456.577844 
L 499.226112 456.743075 
L 499.258368 456.504408 
L 499.64544 456.130748 
L 499.677696 456.227583 
L 499.709952 456.166387 
L 499.838976 455.953998 
L 499.871232 455.975957 
L 499.903488 455.901441 
L 500.161536 455.669254 
L 500.419584 455.411508 
L 500.61312 455.209919 
L 500.7744 455.058367 
L 500.93568 454.709906 
L 500.967936 454.81718 
L 501.000192 454.568793 
L 501.032448 454.569153 
L 501.064704 454.772182 
L 501.129216 454.713865 
L 501.290496 454.291608 
L 501.709824 453.90175 
L 501.90336 453.71384 
L 501.935616 453.89743 
L 501.967872 453.634284 
L 502.000128 453.617725 
L 502.032384 453.817874 
L 502.06464 453.572007 
L 502.096896 453.663443 
L 502.967808 452.902804 
L 503.1936 452.522305 
L 503.548416 452.090688 
L 503.580672 452.199402 
L 503.612928 452.04569 
L 503.806464 451.831862 
L 503.83872 452.079889 
L 503.903232 451.767066 
L 503.967744 451.87794 
L 504.096768 451.505 
L 504.16128 451.731787 
L 504.193536 451.435524 
L 504.225792 451.432284 
L 504.258048 451.68787 
L 504.354816 451.585995 
L 504.451584 451.362088 
L 504.580608 451.1353 
L 505.580544 450.520813 
L 505.870848 450.146434 
L 506.064384 449.774934 
L 506.515968 449.28572 
L 506.58048 449.206525 
L 506.644992 449.490189 
L 506.806272 448.982977 
L 506.870784 449.30048 
L 506.935296 449.239643 
L 506.999808 448.818826 
L 507.032064 448.910621 
L 507.06432 449.10753 
L 507.096576 448.727391 
L 507.128832 448.73567 
L 507.161088 449.022935 
L 507.193344 448.672674 
L 507.2256 448.669794 
L 507.257856 448.704712 
L 507.290112 448.593838 
L 507.322368 448.599238 
L 507.354624 448.788587 
L 507.38688 448.543801 
L 507.419136 448.540201 
L 507.451392 448.658634 
L 507.483648 448.489804 
L 507.515904 448.481524 
L 508.35456 447.99951 
L 508.773888 447.62729 
L 509.128704 446.942608 
L 509.16096 446.90265 
L 509.193216 447.226272 
L 509.257728 446.798255 
L 509.289984 447.095599 
L 509.419008 446.672622 
L 509.548032 446.540509 
L 509.580288 446.90517 
L 509.6448 446.601346 
L 509.677056 446.404797 
L 509.741568 446.592347 
L 509.773824 446.610346 
L 509.870592 446.673342 
L 509.902848 446.390758 
L 509.935104 446.624385 
L 509.96736 446.397237 
L 510.096384 446.102773 
L 510.12864 446.110693 
L 510.160896 446.34396 
L 510.193152 446.049136 
L 510.225408 446.058496 
L 510.28992 446.000179 
L 510.354432 446.275564 
L 510.483456 445.903344 
L 510.515712 445.911984 
L 510.547968 446.076495 
L 510.580224 445.880305 
L 510.61248 445.878145 
L 511.160832 445.663957 
L 511.386624 445.444009 
L 512.22528 444.756086 
L 512.354304 444.189297 
L 512.38656 444.410865 
L 512.451072 444.111469 
L 512.483328 444.338221 
L 512.612352 443.906893 
L 512.676864 444.365868 
L 512.741376 444.158591 
L 512.773632 444.180478 
L 512.805888 443.837344 
L 512.902656 443.901457 
L 512.967168 444.113845 
L 512.999424 443.697132 
L 513.03168 443.903365 
L 513.063936 443.882486 
L 513.19296 443.482224 
L 513.321984 443.441114 
L 513.483264 443.369514 
L 513.547776 443.583306 
L 513.612288 443.530497 
L 513.709056 443.449681 
L 513.870336 443.294242 
L 514.031616 443.241505 
L 515.2896 442.10933 
L 515.386368 441.442538 
L 515.45088 441.716592 
L 515.515392 441.799495 
L 515.579904 441.186952 
L 515.644416 441.19642 
L 515.676672 441.068526 
L 515.708928 441.267192 
L 515.741184 441.203331 
L 515.805696 441.37317 
L 515.837952 441.247249 
L 516.031488 440.783264 
L 516.063744 440.837228 
L 516.128256 440.883982 
L 516.192768 440.801982 
L 516.321792 440.64426 
L 517.095936 439.409009 
L 517.257216 438.617772 
L 517.289472 438.919435 
L 517.321728 438.883977 
L 517.353984 438.406787 
L 517.450752 438.510966 
L 517.483008 438.588289 
L 517.515264 438.505422 
L 517.579776 438.53584 
L 517.644288 438.371905 
L 517.7088 438.401208 
L 517.741056 438.317368 
L 518.5152 437.033786 
L 518.644224 436.136715 
L 518.740992 436.59641 
L 518.708736 436.016121 
L 518.773248 436.58885 
L 518.870016 435.903087 
L 518.902272 435.930806 
L 518.934528 435.931886 
L 519.063552 436.119436 
L 519.611904 435.11005 
L 521.063424 432.73202 
L 521.09568 432.737059 
L 521.289216 432.262245 
L 521.90208 431.481448 
L 522.06336 431.240261 
L 522.643968 430.275873 
L 522.805248 429.824458 
L 522.86976 429.702064 
L 522.902016 429.935692 
L 522.966528 429.634748 
L 523.03104 429.698464 
L 523.063296 429.832017 
L 523.095552 429.624668 
L 523.289088 429.436399 
L 523.966464 428.055874 
L 524.127744 427.536422 
L 524.192256 427.422308 
L 524.224512 427.604458 
L 524.256768 427.302075 
L 524.9664 425.785837 
L 525.321216 425.00216 
L 525.966336 423.947777 
L 525.998592 423.352729 
L 526.09536 423.399527 
L 526.224384 423.503921 
L 526.25664 423.456044 
L 526.90176 422.300146 
L 527.579136 421.185287 
L 527.611392 420.818107 
L 527.70816 420.958499 
L 527.772672 421.032295 
L 527.837184 420.9477 
L 528.159744 420.343293 
L 529.191936 418.888252 
L 529.224192 418.92029 
L 529.288704 418.842534 
L 529.449984 418.631586 
L 529.837056 418.027178 
L 529.933824 418.17657 
L 530.159616 418.672983 
L 530.256384 420.993057 
L 530.385408 427.56162 
L 530.643456 440.242328 
L 531.09504 440.290097 
L 534.610944 440.382612 
L 534.933504 440.102799 
L 535.578624 439.683818 
L 536.449536 439.390038 
L 537.417216 439.232222 
L 539.255808 439.17279 
L 544.094208 439.31563 
L 554.64192 439.581224 
L 557.06112 439.5692 
L 560.512512 439.744331 
L 561.189888 440.302084 
L 562.028544 440.683088 
L 563.222016 440.93687 
L 565.092864 441.066355 
L 569.769984 441.092558 
L 576.608256 441.054958 
L 576.640512 441.229862 
L 576.963072 429.930652 
L 577.124352 427.311794 
L 577.253376 421.279242 
L 577.414656 405.578335 
L 577.70496 376.94837 
L 577.86624 376.966369 
L 578.801664 377.268753 
L 579.15648 377.376747 
L 580.575744 377.959915 
L 581.027328 378.179503 
L 581.801472 378.546683 
L 582.285312 378.78787 
L 584.930304 380.0802 
L 585.381888 380.299788 
L 586.41408 380.756963 
L 587.639808 381.318533 
L 588.83328 381.833305 
L 589.381632 382.074492 
L 590.60736 382.600063 
L 593.18784 383.633207 
L 596.316672 384.795944 
L 597.445632 385.181123 
L 606.477312 388.096964 
L 606.832128 388.201359 
L 607.477248 388.370549 
L 609.47712 388.924919 
L 609.928704 389.032914 
L 611.444736 389.428892 
L 611.864064 389.533286 
L 613.057536 389.82487 
L 613.605888 389.932865 
L 614.79936 390.220849 
L 615.347712 390.328843 
L 616.444416 390.580829 
L 616.896 390.685224 
L 621.121536 391.516779 
L 621.7344 391.624773 
L 624.31488 392.092747 
L 624.927744 392.200741 
L 626.701824 392.488726 
L 627.443712 392.59672 
L 629.056512 392.848706 
L 629.766144 392.9567 
L 631.056384 393.136691 
L 631.89504 393.244685 
L 633.18528 393.424675 
L 634.023936 393.532669 
L 635.152896 393.676661 
L 636.152832 393.784655 
L 637.281792 393.928648 
L 638.281728 394.036642 
L 639.249408 394.144636 
L 640.313856 394.25263 
L 641.281536 394.360624 
L 642.442752 394.468618 
L 643.410432 394.576612 
L 644.765184 394.684606 
L 645.732864 394.792601 
L 647.184384 394.900595 
L 647.990784 394.972591 
L 649.410048 395.080585 
L 650.216448 395.152581 
L 651.829248 395.260575 
L 652.635648 395.332571 
L 654.441984 395.440565 
L 655.248384 395.512562 
L 657.248256 395.602557 
L 657.280512 395.847343 
L 657.345024 395.620556 
L 657.53856 395.649354 
L 659.054592 395.746549 
L 659.344896 395.764548 
L 661.602816 395.872542 
L 662.247936 395.90494 
L 664.215552 396.016534 
L 664.925184 396.048932 
L 666.828288 396.156927 
L 668.150784 396.192925 
L 670.311936 396.300919 
L 671.634432 396.336917 
L 674.182656 396.444911 
L 675.537408 396.484509 
L 676.24704 396.516907 
L 679.408128 396.621301 
L 679.924224 396.624901 
L 683.472384 396.732895 
L 684.827136 396.772493 
L 685.794816 396.768893 
L 686.2464 396.804891 
L 690.633216 396.909286 
L 691.149312 396.916485 
L 697.632768 396.999281 
L 697.761792 397.028079 
L 698.213376 397.031679 
L 698.632704 397.060477 
L 708.34176 397.164872 
L 708.793344 397.20087 
L 737.888256 397.215269 
L 737.920512 397.337662 
L 737.985024 397.172071 
L 738.275328 397.19367 
L 818.528256 397.19727 
L 818.560512 397.38086 
L 818.625024 397.19727 
L 818.81856 397.179271 
L 820.012032 397.20087 
L 899.168256 397.19727 
L 899.200512 397.38086 
L 899.265024 397.19727 
L 899.45856 397.179271 
L 900.652032 397.20087 
L 947.52 397.20087 
L 947.52 397.20087 
" clip-path="url(#p8dc0dd0435)" style="fill: none; stroke: #ff00ff; stroke-width: 2; stroke-linecap: square"/>
   </g>
   <g id="patch_22">
    <path d="M 100.8 465.442759 
L 100.8 372.711724 
" style="fill: none; stroke: #bcbcbc; stroke-width: 0.8; stroke-linejoin: miter; stroke-linecap: square"/>
   </g>
   <g id="patch_23">
    <path d="M 987.84 465.442759 
L 987.84 372.711724 
" style="fill: none; stroke: #bcbcbc; stroke-width: 0.8; stroke-linejoin: miter; stroke-linecap: square"/>
   </g>
   <g id="patch_24">
    <path d="M 100.8 465.442759 
L 987.84 465.442759 
" style="fill: none; stroke: #bcbcbc; stroke-width: 0.8; stroke-linejoin: miter; stroke-linecap: square"/>
   </g>
   <g id="patch_25">
    <path d="M 100.8 372.711724 
L 987.84 372.711724 
" style="fill: none; stroke: #bcbcbc; stroke-width: 0.8; stroke-linejoin: miter; stroke-linecap: square"/>
   </g>
  </g>
  <g id="axes_5">
   <g id="patch_26">
    <path d="M 100.8 576.72 
L 987.84 576.72 
L 987.84 483.988966 
L 100.8 483.988966 
z
" style="fill: #eeeeee"/>
   </g>
   <g id="matplotlib.axis_9">
    <g id="xtick_25">
     <g id="line2d_71">
      <path d="M 141.12 576.72 
L 141.12 483.988966 
" clip-path="url(#p38453dfb68)" style="fill: none; stroke-dasharray: 1.85,0.8; stroke-dashoffset: 0; stroke: #b2b2b2; stroke-width: 0.5"/>
     </g>
     <g id="line2d_72">
      <g>
       <use xlink:href="#m3a7e627cd3" x="141.12" y="576.72" style="stroke: #000000; stroke-width: 0.8"/>
      </g>
     </g>
     <g id="text_14">
      <!-- 0 s -->
      <g transform="translate(130.795 590.857813) scale(0.14 -0.14)">
       <defs>
        <path id="DejaVuSans-73" d="M 2834 3397 
L 2834 2853 
Q 2591 2978 2328 3040 
Q 2066 3103 1784 3103 
Q 1356 3103 1142 2972 
Q 928 2841 928 2578 
Q 928 2378 1081 2264 
Q 1234 2150 1697 2047 
L 1894 2003 
Q 2506 1872 2764 1633 
Q 3022 1394 3022 966 
Q 3022 478 2636 193 
Q 2250 -91 1575 -91 
Q 1294 -91 989 -36 
Q 684 19 347 128 
L 347 722 
Q 666 556 975 473 
Q 1284 391 1588 391 
Q 1994 391 2212 530 
Q 2431 669 2431 922 
Q 2431 1156 2273 1281 
Q 2116 1406 1581 1522 
L 1381 1569 
Q 847 1681 609 1914 
Q 372 2147 372 2553 
Q 372 3047 722 3315 
Q 1072 3584 1716 3584 
Q 2034 3584 2315 3537 
Q 2597 3491 2834 3397 
z
" transform="scale(0.015625)"/>
       </defs>
       <use xlink:href="#DejaVuSans-30"/>
       <use xlink:href="#DejaVuSans-20" x="63.623047"/>
       <use xlink:href="#DejaVuSans-73" x="95.410156"/>
      </g>
     </g>
    </g>
    <g id="xtick_26">
     <g id="line2d_73">
      <path d="M 302.4 576.72 
L 302.4 483.988966 
" clip-path="url(#p38453dfb68)" style="fill: none; stroke-dasharray: 1.85,0.8; stroke-dashoffset: 0; stroke: #b2b2b2; stroke-width: 0.5"/>
     </g>
     <g id="line2d_74">
      <g>
       <use xlink:href="#m3a7e627cd3" x="302.4" y="576.72" style="stroke: #000000; stroke-width: 0.8"/>
      </g>
     </g>
     <g id="text_15">
      <!-- 50 ns -->
      <g transform="translate(283.185 590.857813) scale(0.14 -0.14)">
       <defs>
        <path id="DejaVuSans-35" d="M 691 4666 
L 3169 4666 
L 3169 4134 
L 1269 4134 
L 1269 2991 
Q 1406 3038 1543 3061 
Q 1681 3084 1819 3084 
Q 2600 3084 3056 2656 
Q 3513 2228 3513 1497 
Q 3513 744 3044 326 
Q 2575 -91 1722 -91 
Q 1428 -91 1123 -41 
Q 819 9 494 109 
L 494 744 
Q 775 591 1075 516 
Q 1375 441 1709 441 
Q 2250 441 2565 725 
Q 2881 1009 2881 1497 
Q 2881 1984 2565 2268 
Q 2250 2553 1709 2553 
Q 1456 2553 1204 2497 
Q 953 2441 691 2322 
L 691 4666 
z
" transform="scale(0.015625)"/>
        <path id="DejaVuSans-6e" d="M 3513 2113 
L 3513 0 
L 2938 0 
L 2938 2094 
Q 2938 2591 2744 2837 
Q 2550 3084 2163 3084 
Q 1697 3084 1428 2787 
Q 1159 2491 1159 1978 
L 1159 0 
L 581 0 
L 581 3500 
L 1159 3500 
L 1159 2956 
Q 1366 3272 1645 3428 
Q 1925 3584 2291 3584 
Q 2894 3584 3203 3211 
Q 3513 2838 3513 2113 
z
" transform="scale(0.015625)"/>
       </defs>
       <use xlink:href="#DejaVuSans-35"/>
       <use xlink:href="#DejaVuSans-30" x="63.623047"/>
       <use xlink:href="#DejaVuSans-20" x="127.246094"/>
       <use xlink:href="#DejaVuSans-6e" x="159.033203"/>
       <use xlink:href="#DejaVuSans-73" x="222.412109"/>
      </g>
     </g>
    </g>
    <g id="xtick_27">
     <g id="line2d_75">
      <path d="M 463.68 576.72 
L 463.68 483.988966 
" clip-path="url(#p38453dfb68)" style="fill: none; stroke-dasharray: 1.85,0.8; stroke-dashoffset: 0; stroke: #b2b2b2; stroke-width: 0.5"/>
     </g>
     <g id="line2d_76">
      <g>
       <use xlink:href="#m3a7e627cd3" x="463.68" y="576.72" style="stroke: #000000; stroke-width: 0.8"/>
      </g>
     </g>
     <g id="text_16">
      <!-- 100 ns -->
      <g transform="translate(440.01125 590.857813) scale(0.14 -0.14)">
       <use xlink:href="#DejaVuSans-31"/>
       <use xlink:href="#DejaVuSans-30" x="63.623047"/>
       <use xlink:href="#DejaVuSans-30" x="127.246094"/>
       <use xlink:href="#DejaVuSans-20" x="190.869141"/>
       <use xlink:href="#DejaVuSans-6e" x="222.65625"/>
       <use xlink:href="#DejaVuSans-73" x="286.035156"/>
      </g>
     </g>
    </g>
    <g id="xtick_28">
     <g id="line2d_77">
      <path d="M 624.96 576.72 
L 624.96 483.988966 
" clip-path="url(#p38453dfb68)" style="fill: none; stroke-dasharray: 1.85,0.8; stroke-dashoffset: 0; stroke: #b2b2b2; stroke-width: 0.5"/>
     </g>
     <g id="line2d_78">
      <g>
       <use xlink:href="#m3a7e627cd3" x="624.96" y="576.72" style="stroke: #000000; stroke-width: 0.8"/>
      </g>
     </g>
     <g id="text_17">
      <!-- 150 ns -->
      <g transform="translate(601.29125 590.857813) scale(0.14 -0.14)">
       <use xlink:href="#DejaVuSans-31"/>
       <use xlink:href="#DejaVuSans-35" x="63.623047"/>
       <use xlink:href="#DejaVuSans-30" x="127.246094"/>
       <use xlink:href="#DejaVuSans-20" x="190.869141"/>
       <use xlink:href="#DejaVuSans-6e" x="222.65625"/>
       <use xlink:href="#DejaVuSans-73" x="286.035156"/>
      </g>
     </g>
    </g>
    <g id="xtick_29">
     <g id="line2d_79">
      <path d="M 786.24 576.72 
L 786.24 483.988966 
" clip-path="url(#p38453dfb68)" style="fill: none; stroke-dasharray: 1.85,0.8; stroke-dashoffset: 0; stroke: #b2b2b2; stroke-width: 0.5"/>
     </g>
     <g id="line2d_80">
      <g>
       <use xlink:href="#m3a7e627cd3" x="786.24" y="576.72" style="stroke: #000000; stroke-width: 0.8"/>
      </g>
     </g>
     <g id="text_18">
      <!-- 200 ns -->
      <g transform="translate(762.57125 590.857813) scale(0.14 -0.14)">
       <use xlink:href="#DejaVuSans-32"/>
       <use xlink:href="#DejaVuSans-30" x="63.623047"/>
       <use xlink:href="#DejaVuSans-30" x="127.246094"/>
       <use xlink:href="#DejaVuSans-20" x="190.869141"/>
       <use xlink:href="#DejaVuSans-6e" x="222.65625"/>
       <use xlink:href="#DejaVuSans-73" x="286.035156"/>
      </g>
     </g>
    </g>
    <g id="xtick_30">
     <g id="line2d_81">
      <path d="M 947.52 576.72 
L 947.52 483.988966 
" clip-path="url(#p38453dfb68)" style="fill: none; stroke-dasharray: 1.85,0.8; stroke-dashoffset: 0; stroke: #b2b2b2; stroke-width: 0.5"/>
     </g>
     <g id="line2d_82">
      <g>
       <use xlink:href="#m3a7e627cd3" x="947.52" y="576.72" style="stroke: #000000; stroke-width: 0.8"/>
      </g>
     </g>
     <g id="text_19">
      <!-- 250 ns -->
      <g transform="translate(923.85125 590.857813) scale(0.14 -0.14)">
       <use xlink:href="#DejaVuSans-32"/>
       <use xlink:href="#DejaVuSans-35" x="63.623047"/>
       <use xlink:href="#DejaVuSans-30" x="127.246094"/>
       <use xlink:href="#DejaVuSans-20" x="190.869141"/>
       <use xlink:href="#DejaVuSans-6e" x="222.65625"/>
       <use xlink:href="#DejaVuSans-73" x="286.035156"/>
      </g>
     </g>
    </g>
    <g id="text_20">
     <!-- Time -->
     <g transform="translate(527.192969 608.407187) scale(0.14 -0.14)">
      <defs>
       <path id="DejaVuSans-69" d="M 603 3500 
L 1178 3500 
L 1178 0 
L 603 0 
L 603 3500 
z
M 603 4863 
L 1178 4863 
L 1178 4134 
L 603 4134 
L 603 4863 
z
" transform="scale(0.015625)"/>
       <path id="DejaVuSans-6d" d="M 3328 2828 
Q 3544 3216 3844 3400 
Q 4144 3584 4550 3584 
Q 5097 3584 5394 3201 
Q 5691 2819 5691 2113 
L 5691 0 
L 5113 0 
L 5113 2094 
Q 5113 2597 4934 2840 
Q 4756 3084 4391 3084 
Q 3944 3084 3684 2787 
Q 3425 2491 3425 1978 
L 3425 0 
L 2847 0 
L 2847 2094 
Q 2847 2600 2669 2842 
Q 2491 3084 2119 3084 
Q 1678 3084 1418 2786 
Q 1159 2488 1159 1978 
L 1159 0 
L 581 0 
L 581 3500 
L 1159 3500 
L 1159 2956 
Q 1356 3278 1631 3431 
Q 1906 3584 2284 3584 
Q 2666 3584 2933 3390 
Q 3200 3197 3328 2828 
z
" transform="scale(0.015625)"/>
       <path id="DejaVuSans-65" d="M 3597 1894 
L 3597 1613 
L 953 1613 
Q 991 1019 1311 708 
Q 1631 397 2203 397 
Q 2534 397 2845 478 
Q 3156 559 3463 722 
L 3463 178 
Q 3153 47 2828 -22 
Q 2503 -91 2169 -91 
Q 1331 -91 842 396 
Q 353 884 353 1716 
Q 353 2575 817 3079 
Q 1281 3584 2069 3584 
Q 2775 3584 3186 3129 
Q 3597 2675 3597 1894 
z
M 3022 2063 
Q 3016 2534 2758 2815 
Q 2500 3097 2075 3097 
Q 1594 3097 1305 2825 
Q 1016 2553 972 2059 
L 3022 2063 
z
" transform="scale(0.015625)"/>
      </defs>
      <use xlink:href="#DejaVuSans-54"/>
      <use xlink:href="#DejaVuSans-69" x="57.958984"/>
      <use xlink:href="#DejaVuSans-6d" x="85.742188"/>
      <use xlink:href="#DejaVuSans-65" x="183.154297"/>
     </g>
    </g>
   </g>
   <g id="matplotlib.axis_10">
    <g id="ytick_10">
     <g id="line2d_83">
      <path d="M 100.8 569.745885 
L 987.84 569.745885 
" clip-path="url(#p38453dfb68)" style="fill: none; stroke-dasharray: 1.85,0.8; stroke-dashoffset: 0; stroke: #b2b2b2; stroke-width: 0.5"/>
     </g>
     <g id="line2d_84">
      <g>
       <use xlink:href="#m8cf8e86986" x="100.8" y="569.745885" style="stroke: #000000; stroke-width: 0.8"/>
      </g>
     </g>
     <g id="text_21">
      <!-- 0 V -->
      <g transform="translate(74.36625 575.064792) scale(0.14 -0.14)">
       <use xlink:href="#DejaVuSans-30"/>
       <use xlink:href="#DejaVuSans-20" x="63.623047"/>
       <use xlink:href="#DejaVuSans-56" x="95.410156"/>
      </g>
     </g>
    </g>
    <g id="ytick_11">
     <g id="line2d_85">
      <path d="M 100.8 535.950348 
L 987.84 535.950348 
" clip-path="url(#p38453dfb68)" style="fill: none; stroke-dasharray: 1.85,0.8; stroke-dashoffset: 0; stroke: #b2b2b2; stroke-width: 0.5"/>
     </g>
     <g id="line2d_86">
      <g>
       <use xlink:href="#m8cf8e86986" x="100.8" y="535.950348" style="stroke: #000000; stroke-width: 0.8"/>
      </g>
     </g>
     <g id="text_22">
      <!-- 500 mV -->
      <g transform="translate(42.914375 541.269254) scale(0.14 -0.14)">
       <use xlink:href="#DejaVuSans-35"/>
       <use xlink:href="#DejaVuSans-30" x="63.623047"/>
       <use xlink:href="#DejaVuSans-30" x="127.246094"/>
       <use xlink:href="#DejaVuSans-20" x="190.869141"/>
       <use xlink:href="#DejaVuSans-6d" x="222.65625"/>
       <use xlink:href="#DejaVuSans-56" x="320.068359"/>
      </g>
     </g>
    </g>
    <g id="ytick_12">
     <g id="line2d_87">
      <path d="M 100.8 502.15481 
L 987.84 502.15481 
" clip-path="url(#p38453dfb68)" style="fill: none; stroke-dasharray: 1.85,0.8; stroke-dashoffset: 0; stroke: #b2b2b2; stroke-width: 0.5"/>
     </g>
     <g id="line2d_88">
      <g>
       <use xlink:href="#m8cf8e86986" x="100.8" y="502.15481" style="stroke: #000000; stroke-width: 0.8"/>
      </g>
     </g>
     <g id="text_23">
      <!-- 1 V -->
      <g transform="translate(74.36625 507.473717) scale(0.14 -0.14)">
       <use xlink:href="#DejaVuSans-31"/>
       <use xlink:href="#DejaVuSans-20" x="63.623047"/>
       <use xlink:href="#DejaVuSans-56" x="95.410156"/>
      </g>
     </g>
    </g>
    <g id="text_24">
     <g id="patch_27">
      <path d="M 34.8768 554.329483 
L 34.8768 506.379483 
L 11.247425 506.379483 
L 11.247425 554.329483 
z
" style="fill: #ffff00; opacity: 0.2; stroke: #eeeeee; stroke-width: 0.5; stroke-linejoin: miter"/>
     </g>
     <!-- FOUT -->
     <g transform="translate(26.925238 549.289483) rotate(-90) scale(0.14 -0.14)">
      <use xlink:href="#DejaVuSans-46"/>
      <use xlink:href="#DejaVuSans-4f" x="57.519531"/>
      <use xlink:href="#DejaVuSans-55" x="136.230469"/>
      <use xlink:href="#DejaVuSans-54" x="209.423828"/>
     </g>
    </g>
   </g>
   <g id="line2d_89">
    <path d="M 141.12 488.636595 
L 173.472768 488.643355 
L 173.505024 488.44734 
L 173.569536 526.789729 
L 173.69856 572.504953 
L 173.730816 572.3695 
L 173.827584 567.842115 
L 173.892096 569.3609 
L 174.053376 570.064192 
L 174.117888 569.946665 
L 174.408192 569.492054 
L 174.440448 569.54151 
L 174.66624 569.729954 
L 176.182272 569.740151 
L 180.117504 569.761449 
L 193.568256 569.752159 
L 212.954112 569.74401 
L 255.30624 569.743704 
L 255.6288 488.52845 
L 255.854592 488.670391 
L 256.209408 488.629836 
L 334.849536 488.650114 
L 334.881792 492.854278 
L 335.043072 572.18376 
L 335.107584 570.261206 
L 335.172096 568.338639 
L 335.236608 568.870108 
L 335.365632 570.783003 
L 335.430144 570.410083 
L 335.591424 569.797213 
L 335.881728 569.648439 
L 336.559104 569.817924 
L 337.107456 569.746143 
L 350.009856 569.744206 
L 416.489472 569.74333 
L 416.553984 567.480841 
L 416.812032 488.204013 
L 416.844288 488.339195 
L 416.973312 488.852887 
L 417.037824 488.778537 
L 417.39264 488.548727 
L 417.844224 488.717705 
L 418.457088 488.562245 
L 419.328 488.636595 
L 481.549824 488.569004 
L 481.614336 488.251326 
L 481.678848 510.50028 
L 481.807872 570.183044 
L 481.840128 569.796026 
L 481.969152 569.746036 
L 483.646464 569.744211 
L 528.03072 569.816065 
L 528.062976 569.867583 
L 528.095232 569.800162 
L 528.159744 557.89379 
L 528.417792 488.704186 
L 528.611328 488.636595 
L 530.191872 488.744741 
L 530.320896 490.211467 
L 530.44992 557.098243 
L 530.514432 570.57908 
L 530.578944 569.735319 
L 530.869248 569.744205 
L 577.156608 569.744212 
L 577.22112 557.643027 
L 577.54368 488.629836 
L 578.092032 488.636595 
L 947.52 488.636595 
L 947.52 488.636595 
" clip-path="url(#p38453dfb68)" style="fill: none; stroke: #ff00ff; stroke-width: 2; stroke-linecap: square"/>
   </g>
   <g id="patch_28">
    <path d="M 100.8 576.72 
L 100.8 483.988966 
" style="fill: none; stroke: #bcbcbc; stroke-width: 0.8; stroke-linejoin: miter; stroke-linecap: square"/>
   </g>
   <g id="patch_29">
    <path d="M 987.84 576.72 
L 987.84 483.988966 
" style="fill: none; stroke: #bcbcbc; stroke-width: 0.8; stroke-linejoin: miter; stroke-linecap: square"/>
   </g>
   <g id="patch_30">
    <path d="M 100.8 576.72 
L 987.84 576.72 
" style="fill: none; stroke: #bcbcbc; stroke-width: 0.8; stroke-linejoin: miter; stroke-linecap: square"/>
   </g>
   <g id="patch_31">
    <path d="M 100.8 483.988966 
L 987.84 483.988966 
" style="fill: none; stroke: #bcbcbc; stroke-width: 0.8; stroke-linejoin: miter; stroke-linecap: square"/>
   </g>
  </g>
  <g id="axes_6">
   <g id="patch_32">
    <path d="M 201.6 628.56 
L 856.8 628.56 
L 856.8 615.6 
L 201.6 615.6 
z
" clip-path="url(#pc2da80107f)" style="fill: #d3d3d3"/>
   </g>
   <g id="patch_33">
    <path d="M 201.6 628.56 
L 604.08 628.56 
L 604.08 615.6 
L 201.6 615.6 
z
" clip-path="url(#pc2da80107f)" style="fill: #0000ff"/>
   </g>
   <g id="line2d_90">
    <path d="M 201.6 635.04 
L 201.6 609.12 
" clip-path="url(#pa30889872a)" style="fill: none; stroke: #ff0000; stroke-linecap: square"/>
   </g>
   <g id="line2d_91">
    <defs>
     <path id="m1f5e4c9811" d="M 0 5 
C 1.326016 5 2.597899 4.473168 3.535534 3.535534 
C 4.473168 2.597899 5 1.326016 5 0 
C 5 -1.326016 4.473168 -2.597899 3.535534 -3.535534 
C 2.597899 -4.473168 1.326016 -5 0 -5 
C -1.326016 -5 -2.597899 -4.473168 -3.535534 -3.535534 
C -4.473168 -2.597899 -5 -1.326016 -5 0 
C -5 1.326016 -4.473168 2.597899 -3.535534 3.535534 
C -2.597899 4.473168 -1.326016 5 0 5 
z
" style="stroke: #bfbfbf"/>
    </defs>
    <g>
     <use xlink:href="#m1f5e4c9811" x="604.08" y="622.08" style="fill: #ffffff; stroke: #bfbfbf"/>
    </g>
   </g>
   <g id="text_25">
    <!-- #Sweep -->
    <g transform="translate(138.622875 625.39125) scale(0.12 -0.12)">
     <defs>
      <path id="DejaVuSans-23" d="M 3272 2816 
L 2363 2816 
L 2100 1772 
L 3016 1772 
L 3272 2816 
z
M 2803 4594 
L 2478 3297 
L 3391 3297 
L 3719 4594 
L 4219 4594 
L 3897 3297 
L 4872 3297 
L 4872 2816 
L 3775 2816 
L 3519 1772 
L 4513 1772 
L 4513 1294 
L 3397 1294 
L 3072 0 
L 2572 0 
L 2894 1294 
L 1978 1294 
L 1656 0 
L 1153 0 
L 1478 1294 
L 494 1294 
L 494 1772 
L 1594 1772 
L 1856 2816 
L 850 2816 
L 850 3297 
L 1978 3297 
L 2297 4594 
L 2803 4594 
z
" transform="scale(0.015625)"/>
      <path id="DejaVuSans-77" d="M 269 3500 
L 844 3500 
L 1563 769 
L 2278 3500 
L 2956 3500 
L 3675 769 
L 4391 3500 
L 4966 3500 
L 4050 0 
L 3372 0 
L 2619 2869 
L 1863 0 
L 1184 0 
L 269 3500 
z
" transform="scale(0.015625)"/>
      <path id="DejaVuSans-70" d="M 1159 525 
L 1159 -1331 
L 581 -1331 
L 581 3500 
L 1159 3500 
L 1159 2969 
Q 1341 3281 1617 3432 
Q 1894 3584 2278 3584 
Q 2916 3584 3314 3078 
Q 3713 2572 3713 1747 
Q 3713 922 3314 415 
Q 2916 -91 2278 -91 
Q 1894 -91 1617 61 
Q 1341 213 1159 525 
z
M 3116 1747 
Q 3116 2381 2855 2742 
Q 2594 3103 2138 3103 
Q 1681 3103 1420 2742 
Q 1159 2381 1159 1747 
Q 1159 1113 1420 752 
Q 1681 391 2138 391 
Q 2594 391 2855 752 
Q 3116 1113 3116 1747 
z
" transform="scale(0.015625)"/>
     </defs>
     <use xlink:href="#DejaVuSans-23"/>
     <use xlink:href="#DejaVuSans-53" x="83.789062"/>
     <use xlink:href="#DejaVuSans-77" x="147.265625"/>
     <use xlink:href="#DejaVuSans-65" x="229.052734"/>
     <use xlink:href="#DejaVuSans-65" x="290.576172"/>
     <use xlink:href="#DejaVuSans-70" x="352.099609"/>
    </g>
   </g>
   <g id="text_26">
    <!-- $\mathdefault{86}$ -->
    <g transform="translate(869.904 625.39125) scale(0.12 -0.12)">
     <defs>
      <path id="DejaVuSans-38" d="M 2034 2216 
Q 1584 2216 1326 1975 
Q 1069 1734 1069 1313 
Q 1069 891 1326 650 
Q 1584 409 2034 409 
Q 2484 409 2743 651 
Q 3003 894 3003 1313 
Q 3003 1734 2745 1975 
Q 2488 2216 2034 2216 
z
M 1403 2484 
Q 997 2584 770 2862 
Q 544 3141 544 3541 
Q 544 4100 942 4425 
Q 1341 4750 2034 4750 
Q 2731 4750 3128 4425 
Q 3525 4100 3525 3541 
Q 3525 3141 3298 2862 
Q 3072 2584 2669 2484 
Q 3125 2378 3379 2068 
Q 3634 1759 3634 1313 
Q 3634 634 3220 271 
Q 2806 -91 2034 -91 
Q 1263 -91 848 271 
Q 434 634 434 1313 
Q 434 1759 690 2068 
Q 947 2378 1403 2484 
z
M 1172 3481 
Q 1172 3119 1398 2916 
Q 1625 2713 2034 2713 
Q 2441 2713 2670 2916 
Q 2900 3119 2900 3481 
Q 2900 3844 2670 4047 
Q 2441 4250 2034 4250 
Q 1625 4250 1398 4047 
Q 1172 3844 1172 3481 
z
" transform="scale(0.015625)"/>
      <path id="DejaVuSans-36" d="M 2113 2584 
Q 1688 2584 1439 2293 
Q 1191 2003 1191 1497 
Q 1191 994 1439 701 
Q 1688 409 2113 409 
Q 2538 409 2786 701 
Q 3034 994 3034 1497 
Q 3034 2003 2786 2293 
Q 2538 2584 2113 2584 
z
M 3366 4563 
L 3366 3988 
Q 3128 4100 2886 4159 
Q 2644 4219 2406 4219 
Q 1781 4219 1451 3797 
Q 1122 3375 1075 2522 
Q 1259 2794 1537 2939 
Q 1816 3084 2150 3084 
Q 2853 3084 3261 2657 
Q 3669 2231 3669 1497 
Q 3669 778 3244 343 
Q 2819 -91 2113 -91 
Q 1303 -91 875 529 
Q 447 1150 447 2328 
Q 447 3434 972 4092 
Q 1497 4750 2381 4750 
Q 2619 4750 2861 4703 
Q 3103 4656 3366 4563 
z
" transform="scale(0.015625)"/>
     </defs>
     <use xlink:href="#DejaVuSans-38" transform="translate(0 0.78125)"/>
     <use xlink:href="#DejaVuSans-36" transform="translate(63.623047 0.78125)"/>
    </g>
   </g>
  </g>
  <g id="text_27">
   <!-- DFF under BBI sweep analysis (Sweep = 96E-9) -->
   <g transform="translate(313.34625 25.1175) scale(0.16 -0.16)">
    <defs>
     <path id="DejaVuSans-75" d="M 544 1381 
L 544 3500 
L 1119 3500 
L 1119 1403 
Q 1119 906 1312 657 
Q 1506 409 1894 409 
Q 2359 409 2629 706 
Q 2900 1003 2900 1516 
L 2900 3500 
L 3475 3500 
L 3475 0 
L 2900 0 
L 2900 538 
Q 2691 219 2414 64 
Q 2138 -91 1772 -91 
Q 1169 -91 856 284 
Q 544 659 544 1381 
z
M 1991 3584 
L 1991 3584 
z
" transform="scale(0.015625)"/>
     <path id="DejaVuSans-64" d="M 2906 2969 
L 2906 4863 
L 3481 4863 
L 3481 0 
L 2906 0 
L 2906 525 
Q 2725 213 2448 61 
Q 2172 -91 1784 -91 
Q 1150 -91 751 415 
Q 353 922 353 1747 
Q 353 2572 751 3078 
Q 1150 3584 1784 3584 
Q 2172 3584 2448 3432 
Q 2725 3281 2906 2969 
z
M 947 1747 
Q 947 1113 1208 752 
Q 1469 391 1925 391 
Q 2381 391 2643 752 
Q 2906 1113 2906 1747 
Q 2906 2381 2643 2742 
Q 2381 3103 1925 3103 
Q 1469 3103 1208 2742 
Q 947 2381 947 1747 
z
" transform="scale(0.015625)"/>
     <path id="DejaVuSans-72" d="M 2631 2963 
Q 2534 3019 2420 3045 
Q 2306 3072 2169 3072 
Q 1681 3072 1420 2755 
Q 1159 2438 1159 1844 
L 1159 0 
L 581 0 
L 581 3500 
L 1159 3500 
L 1159 2956 
Q 1341 3275 1631 3429 
Q 1922 3584 2338 3584 
Q 2397 3584 2469 3576 
Q 2541 3569 2628 3553 
L 2631 2963 
z
" transform="scale(0.015625)"/>
     <path id="DejaVuSans-61" d="M 2194 1759 
Q 1497 1759 1228 1600 
Q 959 1441 959 1056 
Q 959 750 1161 570 
Q 1363 391 1709 391 
Q 2188 391 2477 730 
Q 2766 1069 2766 1631 
L 2766 1759 
L 2194 1759 
z
M 3341 1997 
L 3341 0 
L 2766 0 
L 2766 531 
Q 2569 213 2275 61 
Q 1981 -91 1556 -91 
Q 1019 -91 701 211 
Q 384 513 384 1019 
Q 384 1609 779 1909 
Q 1175 2209 1959 2209 
L 2766 2209 
L 2766 2266 
Q 2766 2663 2505 2880 
Q 2244 3097 1772 3097 
Q 1472 3097 1187 3025 
Q 903 2953 641 2809 
L 641 3341 
Q 956 3463 1253 3523 
Q 1550 3584 1831 3584 
Q 2591 3584 2966 3190 
Q 3341 2797 3341 1997 
z
" transform="scale(0.015625)"/>
     <path id="DejaVuSans-6c" d="M 603 4863 
L 1178 4863 
L 1178 0 
L 603 0 
L 603 4863 
z
" transform="scale(0.015625)"/>
     <path id="DejaVuSans-79" d="M 2059 -325 
Q 1816 -950 1584 -1140 
Q 1353 -1331 966 -1331 
L 506 -1331 
L 506 -850 
L 844 -850 
Q 1081 -850 1212 -737 
Q 1344 -625 1503 -206 
L 1606 56 
L 191 3500 
L 800 3500 
L 1894 763 
L 2988 3500 
L 3597 3500 
L 2059 -325 
z
" transform="scale(0.015625)"/>
     <path id="DejaVuSans-28" d="M 1984 4856 
Q 1566 4138 1362 3434 
Q 1159 2731 1159 2009 
Q 1159 1288 1364 580 
Q 1569 -128 1984 -844 
L 1484 -844 
Q 1016 -109 783 600 
Q 550 1309 550 2009 
Q 550 2706 781 3412 
Q 1013 4119 1484 4856 
L 1984 4856 
z
" transform="scale(0.015625)"/>
     <path id="DejaVuSans-3d" d="M 678 2906 
L 4684 2906 
L 4684 2381 
L 678 2381 
L 678 2906 
z
M 678 1631 
L 4684 1631 
L 4684 1100 
L 678 1100 
L 678 1631 
z
" transform="scale(0.015625)"/>
     <path id="DejaVuSans-39" d="M 703 97 
L 703 672 
Q 941 559 1184 500 
Q 1428 441 1663 441 
Q 2288 441 2617 861 
Q 2947 1281 2994 2138 
Q 2813 1869 2534 1725 
Q 2256 1581 1919 1581 
Q 1219 1581 811 2004 
Q 403 2428 403 3163 
Q 403 3881 828 4315 
Q 1253 4750 1959 4750 
Q 2769 4750 3195 4129 
Q 3622 3509 3622 2328 
Q 3622 1225 3098 567 
Q 2575 -91 1691 -91 
Q 1453 -91 1209 -44 
Q 966 3 703 97 
z
M 1959 2075 
Q 2384 2075 2632 2365 
Q 2881 2656 2881 3163 
Q 2881 3666 2632 3958 
Q 2384 4250 1959 4250 
Q 1534 4250 1286 3958 
Q 1038 3666 1038 3163 
Q 1038 2656 1286 2365 
Q 1534 2075 1959 2075 
z
" transform="scale(0.015625)"/>
     <path id="DejaVuSans-2d" d="M 313 2009 
L 1997 2009 
L 1997 1497 
L 313 1497 
L 313 2009 
z
" transform="scale(0.015625)"/>
     <path id="DejaVuSans-29" d="M 513 4856 
L 1013 4856 
Q 1481 4119 1714 3412 
Q 1947 2706 1947 2009 
Q 1947 1309 1714 600 
Q 1481 -109 1013 -844 
L 513 -844 
Q 928 -128 1133 580 
Q 1338 1288 1338 2009 
Q 1338 2731 1133 3434 
Q 928 4138 513 4856 
z
" transform="scale(0.015625)"/>
    </defs>
    <use xlink:href="#DejaVuSans-44"/>
    <use xlink:href="#DejaVuSans-46" x="77.001953"/>
    <use xlink:href="#DejaVuSans-46" x="134.521484"/>
    <use xlink:href="#DejaVuSans-20" x="192.041016"/>
    <use xlink:href="#DejaVuSans-75" x="223.828125"/>
    <use xlink:href="#DejaVuSans-6e" x="287.207031"/>
    <use xlink:href="#DejaVuSans-64" x="350.585938"/>
    <use xlink:href="#DejaVuSans-65" x="414.0625"/>
    <use xlink:href="#DejaVuSans-72" x="475.585938"/>
    <use xlink:href="#DejaVuSans-20" x="516.699219"/>
    <use xlink:href="#DejaVuSans-42" x="548.486328"/>
    <use xlink:href="#DejaVuSans-42" x="617.089844"/>
    <use xlink:href="#DejaVuSans-49" x="685.693359"/>
    <use xlink:href="#DejaVuSans-20" x="715.185547"/>
    <use xlink:href="#DejaVuSans-73" x="746.972656"/>
    <use xlink:href="#DejaVuSans-77" x="799.072266"/>
    <use xlink:href="#DejaVuSans-65" x="880.859375"/>
    <use xlink:href="#DejaVuSans-65" x="942.382812"/>
    <use xlink:href="#DejaVuSans-70" x="1003.90625"/>
    <use xlink:href="#DejaVuSans-20" x="1067.382812"/>
    <use xlink:href="#DejaVuSans-61" x="1099.169922"/>
    <use xlink:href="#DejaVuSans-6e" x="1160.449219"/>
    <use xlink:href="#DejaVuSans-61" x="1223.828125"/>
    <use xlink:href="#DejaVuSans-6c" x="1285.107422"/>
    <use xlink:href="#DejaVuSans-79" x="1312.890625"/>
    <use xlink:href="#DejaVuSans-73" x="1372.070312"/>
    <use xlink:href="#DejaVuSans-69" x="1424.169922"/>
    <use xlink:href="#DejaVuSans-73" x="1451.953125"/>
    <use xlink:href="#DejaVuSans-20" x="1504.052734"/>
    <use xlink:href="#DejaVuSans-28" x="1535.839844"/>
    <use xlink:href="#DejaVuSans-53" x="1574.853516"/>
    <use xlink:href="#DejaVuSans-77" x="1638.330078"/>
    <use xlink:href="#DejaVuSans-65" x="1720.117188"/>
    <use xlink:href="#DejaVuSans-65" x="1781.640625"/>
    <use xlink:href="#DejaVuSans-70" x="1843.164062"/>
    <use xlink:href="#DejaVuSans-20" x="1906.640625"/>
    <use xlink:href="#DejaVuSans-3d" x="1938.427734"/>
    <use xlink:href="#DejaVuSans-20" x="2022.216797"/>
    <use xlink:href="#DejaVuSans-39" x="2054.003906"/>
    <use xlink:href="#DejaVuSans-36" x="2117.626953"/>
    <use xlink:href="#DejaVuSans-45" x="2181.25"/>
    <use xlink:href="#DejaVuSans-2d" x="2244.433594"/>
    <use xlink:href="#DejaVuSans-39" x="2280.517578"/>
    <use xlink:href="#DejaVuSans-29" x="2344.140625"/>
   </g>
  </g>
 </g>
 <defs>
  <clipPath id="p0d5d5840c2">
   <rect x="100.8" y="38.88" width="887.04" height="92.731034"/>
  </clipPath>
  <clipPath id="p809313c709">
   <rect x="100.8" y="150.157241" width="887.04" height="92.731034"/>
  </clipPath>
  <clipPath id="p05db3ab2bf">
   <rect x="100.8" y="261.434483" width="887.04" height="92.731034"/>
  </clipPath>
  <clipPath id="p8dc0dd0435">
   <rect x="100.8" y="372.711724" width="887.04" height="92.731034"/>
  </clipPath>
  <clipPath id="p38453dfb68">
   <rect x="100.8" y="483.988966" width="887.04" height="92.731034"/>
  </clipPath>
  <clipPath id="pc2da80107f">
   <rect x="201.6" y="609.12" width="655.2" height="25.92"/>
  </clipPath>
  <clipPath id="pa30889872a">
   <path d="M 201.6 628.56 
L 856.8 628.56 
L 856.8 615.6 
L 201.6 615.6 
z
"/>
  </clipPath>
 </defs>
</svg>
