<?xml version="1.0" encoding="utf-8" standalone="no"?>
<!DOCTYPE svg PUBLIC "-//W3C//DTD SVG 1.1//EN"
  "http://www.w3.org/Graphics/SVG/1.1/DTD/svg11.dtd">
<svg xmlns:xlink="http://www.w3.org/1999/xlink" width="1008pt" height="648pt" viewBox="0 0 1008 648" xmlns="http://www.w3.org/2000/svg" version="1.1">
 <metadata>
  <rdf:RDF xmlns:dc="http://purl.org/dc/elements/1.1/" xmlns:cc="http://creativecommons.org/ns#" xmlns:rdf="http://www.w3.org/1999/02/22-rdf-syntax-ns#">
   <cc:Work>
    <dc:type rdf:resource="http://purl.org/dc/dcmitype/StillImage"/>
    <dc:date>2024-06-03T10:45:41.959320</dc:date>
    <dc:format>image/svg+xml</dc:format>
    <dc:creator>
     <cc:Agent>
      <dc:title>Matplotlib v3.9.0, https://matplotlib.org/</dc:title>
     </cc:Agent>
    </dc:creator>
   </cc:Work>
  </rdf:RDF>
 </metadata>
 <defs>
  <style type="text/css">*{stroke-linejoin: round; stroke-linecap: butt}</style>
 </defs>
 <g id="figure_1">
  <g id="patch_1">
   <path d="M 0 648 
L 1008 648 
L 1008 0 
L 0 0 
z
" style="fill: #ffffff"/>
  </g>
  <g id="axes_1">
   <g id="patch_2">
    <path d="M 100.8 131.611034 
L 987.84 131.611034 
L 987.84 38.88 
L 100.8 38.88 
z
" style="fill: #eeeeee"/>
   </g>
   <g id="matplotlib.axis_1">
    <g id="xtick_1">
     <g id="line2d_1">
      <path d="M 141.12 131.611034 
L 141.12 38.88 
" clip-path="url(#p729b2999d2)" style="fill: none; stroke-dasharray: 1.85,0.8; stroke-dashoffset: 0; stroke: #b2b2b2; stroke-width: 0.5"/>
     </g>
     <g id="line2d_2">
      <defs>
       <path id="m0562d65ab0" d="M 0 0 
L 0 -3.5 
" style="stroke: #000000; stroke-width: 0.8"/>
      </defs>
      <g>
       <use xlink:href="#m0562d65ab0" x="141.12" y="131.611034" style="stroke: #000000; stroke-width: 0.8"/>
      </g>
     </g>
    </g>
    <g id="xtick_2">
     <g id="line2d_3">
      <path d="M 302.4 131.611034 
L 302.4 38.88 
" clip-path="url(#p729b2999d2)" style="fill: none; stroke-dasharray: 1.85,0.8; stroke-dashoffset: 0; stroke: #b2b2b2; stroke-width: 0.5"/>
     </g>
     <g id="line2d_4">
      <g>
       <use xlink:href="#m0562d65ab0" x="302.4" y="131.611034" style="stroke: #000000; stroke-width: 0.8"/>
      </g>
     </g>
    </g>
    <g id="xtick_3">
     <g id="line2d_5">
      <path d="M 463.68 131.611034 
L 463.68 38.88 
" clip-path="url(#p729b2999d2)" style="fill: none; stroke-dasharray: 1.85,0.8; stroke-dashoffset: 0; stroke: #b2b2b2; stroke-width: 0.5"/>
     </g>
     <g id="line2d_6">
      <g>
       <use xlink:href="#m0562d65ab0" x="463.68" y="131.611034" style="stroke: #000000; stroke-width: 0.8"/>
      </g>
     </g>
    </g>
    <g id="xtick_4">
     <g id="line2d_7">
      <path d="M 624.96 131.611034 
L 624.96 38.88 
" clip-path="url(#p729b2999d2)" style="fill: none; stroke-dasharray: 1.85,0.8; stroke-dashoffset: 0; stroke: #b2b2b2; stroke-width: 0.5"/>
     </g>
     <g id="line2d_8">
      <g>
       <use xlink:href="#m0562d65ab0" x="624.96" y="131.611034" style="stroke: #000000; stroke-width: 0.8"/>
      </g>
     </g>
    </g>
    <g id="xtick_5">
     <g id="line2d_9">
      <path d="M 786.24 131.611034 
L 786.24 38.88 
" clip-path="url(#p729b2999d2)" style="fill: none; stroke-dasharray: 1.85,0.8; stroke-dashoffset: 0; stroke: #b2b2b2; stroke-width: 0.5"/>
     </g>
     <g id="line2d_10">
      <g>
       <use xlink:href="#m0562d65ab0" x="786.24" y="131.611034" style="stroke: #000000; stroke-width: 0.8"/>
      </g>
     </g>
    </g>
    <g id="xtick_6">
     <g id="line2d_11">
      <path d="M 947.52 131.611034 
L 947.52 38.88 
" clip-path="url(#p729b2999d2)" style="fill: none; stroke-dasharray: 1.85,0.8; stroke-dashoffset: 0; stroke: #b2b2b2; stroke-width: 0.5"/>
     </g>
     <g id="line2d_12">
      <g>
       <use xlink:href="#m0562d65ab0" x="947.52" y="131.611034" style="stroke: #000000; stroke-width: 0.8"/>
      </g>
     </g>
    </g>
   </g>
   <g id="matplotlib.axis_2">
    <g id="ytick_1">
     <g id="line2d_13">
      <path d="M 100.8 98.340394 
L 987.84 98.340394 
" clip-path="url(#p729b2999d2)" style="fill: none; stroke-dasharray: 1.85,0.8; stroke-dashoffset: 0; stroke: #b2b2b2; stroke-width: 0.5"/>
     </g>
     <g id="line2d_14">
      <defs>
       <path id="m86d3a533fc" d="M 0 0 
L 3.5 0 
" style="stroke: #000000; stroke-width: 0.8"/>
      </defs>
      <g>
       <use xlink:href="#m86d3a533fc" x="100.8" y="98.340394" style="stroke: #000000; stroke-width: 0.8"/>
      </g>
     </g>
     <g id="text_1">
      <!-- −200 V -->
      <g transform="translate(44.819688 103.6593) scale(0.14 -0.14)">
       <defs>
        <path id="DejaVuSans-2212" d="M 678 2272 
L 4684 2272 
L 4684 1741 
L 678 1741 
L 678 2272 
z
" transform="scale(0.015625)"/>
        <path id="DejaVuSans-32" d="M 1228 531 
L 3431 531 
L 3431 0 
L 469 0 
L 469 531 
Q 828 903 1448 1529 
Q 2069 2156 2228 2338 
Q 2531 2678 2651 2914 
Q 2772 3150 2772 3378 
Q 2772 3750 2511 3984 
Q 2250 4219 1831 4219 
Q 1534 4219 1204 4116 
Q 875 4013 500 3803 
L 500 4441 
Q 881 4594 1212 4672 
Q 1544 4750 1819 4750 
Q 2544 4750 2975 4387 
Q 3406 4025 3406 3419 
Q 3406 3131 3298 2873 
Q 3191 2616 2906 2266 
Q 2828 2175 2409 1742 
Q 1991 1309 1228 531 
z
" transform="scale(0.015625)"/>
        <path id="DejaVuSans-30" d="M 2034 4250 
Q 1547 4250 1301 3770 
Q 1056 3291 1056 2328 
Q 1056 1369 1301 889 
Q 1547 409 2034 409 
Q 2525 409 2770 889 
Q 3016 1369 3016 2328 
Q 3016 3291 2770 3770 
Q 2525 4250 2034 4250 
z
M 2034 4750 
Q 2819 4750 3233 4129 
Q 3647 3509 3647 2328 
Q 3647 1150 3233 529 
Q 2819 -91 2034 -91 
Q 1250 -91 836 529 
Q 422 1150 422 2328 
Q 422 3509 836 4129 
Q 1250 4750 2034 4750 
z
" transform="scale(0.015625)"/>
        <path id="DejaVuSans-20" transform="scale(0.015625)"/>
        <path id="DejaVuSans-56" d="M 1831 0 
L 50 4666 
L 709 4666 
L 2188 738 
L 3669 4666 
L 4325 4666 
L 2547 0 
L 1831 0 
z
" transform="scale(0.015625)"/>
       </defs>
       <use xlink:href="#DejaVuSans-2212"/>
       <use xlink:href="#DejaVuSans-32" x="83.789062"/>
       <use xlink:href="#DejaVuSans-30" x="147.412109"/>
       <use xlink:href="#DejaVuSans-30" x="211.035156"/>
       <use xlink:href="#DejaVuSans-20" x="274.658203"/>
       <use xlink:href="#DejaVuSans-56" x="306.445312"/>
      </g>
     </g>
    </g>
    <g id="ytick_2">
     <g id="line2d_15">
      <path d="M 100.8 45.027377 
L 987.84 45.027377 
" clip-path="url(#p729b2999d2)" style="fill: none; stroke-dasharray: 1.85,0.8; stroke-dashoffset: 0; stroke: #b2b2b2; stroke-width: 0.5"/>
     </g>
     <g id="line2d_16">
      <g>
       <use xlink:href="#m86d3a533fc" x="100.8" y="45.027377" style="stroke: #000000; stroke-width: 0.8"/>
      </g>
     </g>
     <g id="text_2">
      <!-- 0 V -->
      <g transform="translate(74.36625 50.346284) scale(0.14 -0.14)">
       <use xlink:href="#DejaVuSans-30"/>
       <use xlink:href="#DejaVuSans-20" x="63.623047"/>
       <use xlink:href="#DejaVuSans-56" x="95.410156"/>
      </g>
     </g>
    </g>
    <g id="text_3">
     <g id="patch_3">
      <path d="M 34.8768 131.080205 
L 34.8768 39.41083 
L 11.247425 39.41083 
L 11.247425 131.080205 
z
" style="fill: #ffff00; opacity: 0.2; stroke: #eeeeee; stroke-width: 0.5; stroke-linejoin: miter"/>
     </g>
     <!-- VPULSE BBI -->
     <g transform="translate(26.925238 126.040205) rotate(-90) scale(0.14 -0.14)">
      <defs>
       <path id="DejaVuSans-50" d="M 1259 4147 
L 1259 2394 
L 2053 2394 
Q 2494 2394 2734 2622 
Q 2975 2850 2975 3272 
Q 2975 3691 2734 3919 
Q 2494 4147 2053 4147 
L 1259 4147 
z
M 628 4666 
L 2053 4666 
Q 2838 4666 3239 4311 
Q 3641 3956 3641 3272 
Q 3641 2581 3239 2228 
Q 2838 1875 2053 1875 
L 1259 1875 
L 1259 0 
L 628 0 
L 628 4666 
z
" transform="scale(0.015625)"/>
       <path id="DejaVuSans-55" d="M 556 4666 
L 1191 4666 
L 1191 1831 
Q 1191 1081 1462 751 
Q 1734 422 2344 422 
Q 2950 422 3222 751 
Q 3494 1081 3494 1831 
L 3494 4666 
L 4128 4666 
L 4128 1753 
Q 4128 841 3676 375 
Q 3225 -91 2344 -91 
Q 1459 -91 1007 375 
Q 556 841 556 1753 
L 556 4666 
z
" transform="scale(0.015625)"/>
       <path id="DejaVuSans-4c" d="M 628 4666 
L 1259 4666 
L 1259 531 
L 3531 531 
L 3531 0 
L 628 0 
L 628 4666 
z
" transform="scale(0.015625)"/>
       <path id="DejaVuSans-53" d="M 3425 4513 
L 3425 3897 
Q 3066 4069 2747 4153 
Q 2428 4238 2131 4238 
Q 1616 4238 1336 4038 
Q 1056 3838 1056 3469 
Q 1056 3159 1242 3001 
Q 1428 2844 1947 2747 
L 2328 2669 
Q 3034 2534 3370 2195 
Q 3706 1856 3706 1288 
Q 3706 609 3251 259 
Q 2797 -91 1919 -91 
Q 1588 -91 1214 -16 
Q 841 59 441 206 
L 441 856 
Q 825 641 1194 531 
Q 1563 422 1919 422 
Q 2459 422 2753 634 
Q 3047 847 3047 1241 
Q 3047 1584 2836 1778 
Q 2625 1972 2144 2069 
L 1759 2144 
Q 1053 2284 737 2584 
Q 422 2884 422 3419 
Q 422 4038 858 4394 
Q 1294 4750 2059 4750 
Q 2388 4750 2728 4690 
Q 3069 4631 3425 4513 
z
" transform="scale(0.015625)"/>
       <path id="DejaVuSans-45" d="M 628 4666 
L 3578 4666 
L 3578 4134 
L 1259 4134 
L 1259 2753 
L 3481 2753 
L 3481 2222 
L 1259 2222 
L 1259 531 
L 3634 531 
L 3634 0 
L 628 0 
L 628 4666 
z
" transform="scale(0.015625)"/>
       <path id="DejaVuSans-42" d="M 1259 2228 
L 1259 519 
L 2272 519 
Q 2781 519 3026 730 
Q 3272 941 3272 1375 
Q 3272 1813 3026 2020 
Q 2781 2228 2272 2228 
L 1259 2228 
z
M 1259 4147 
L 1259 2741 
L 2194 2741 
Q 2656 2741 2882 2914 
Q 3109 3088 3109 3444 
Q 3109 3797 2882 3972 
Q 2656 4147 2194 4147 
L 1259 4147 
z
M 628 4666 
L 2241 4666 
Q 2963 4666 3353 4366 
Q 3744 4066 3744 3513 
Q 3744 3084 3544 2831 
Q 3344 2578 2956 2516 
Q 3422 2416 3680 2098 
Q 3938 1781 3938 1306 
Q 3938 681 3513 340 
Q 3088 0 2303 0 
L 628 0 
L 628 4666 
z
" transform="scale(0.015625)"/>
       <path id="DejaVuSans-49" d="M 628 4666 
L 1259 4666 
L 1259 0 
L 628 0 
L 628 4666 
z
" transform="scale(0.015625)"/>
      </defs>
      <use xlink:href="#DejaVuSans-56"/>
      <use xlink:href="#DejaVuSans-50" x="68.408203"/>
      <use xlink:href="#DejaVuSans-55" x="128.710938"/>
      <use xlink:href="#DejaVuSans-4c" x="201.904297"/>
      <use xlink:href="#DejaVuSans-53" x="257.617188"/>
      <use xlink:href="#DejaVuSans-45" x="321.09375"/>
      <use xlink:href="#DejaVuSans-20" x="384.277344"/>
      <use xlink:href="#DejaVuSans-42" x="416.064453"/>
      <use xlink:href="#DejaVuSans-42" x="484.667969"/>
      <use xlink:href="#DejaVuSans-49" x="553.271484"/>
     </g>
    </g>
   </g>
   <g id="line2d_17">
    <path d="M 141.12 45.027377 
L 379.846656 45.136282 
L 380.330496 46.425538 
L 388.555776 69.006772 
L 395.974656 89.863624 
L 397.587456 94.440546 
L 399.393792 99.673219 
L 402.87744 110.807642 
L 404.457984 115.853719 
L 405.715968 119.566971 
L 406.941696 120.153414 
L 407.780352 120.545265 
L 408.812544 121.017085 
L 409.393152 121.272988 
L 410.264064 121.656841 
L 410.844672 121.912744 
L 411.683328 122.269941 
L 413.263872 122.936354 
L 413.908992 123.202919 
L 415.005696 123.629423 
L 415.747584 123.922644 
L 416.844288 124.349149 
L 417.747456 124.677024 
L 418.424832 124.943589 
L 419.231232 125.25547 
L 420.585984 125.804594 
L 423.230976 126.790885 
L 423.84384 127.022796 
L 425.7792 127.395987 
L 444.261888 127.289361 
L 444.48768 126.801547 
L 462.776832 75.087922 
L 466.518528 63.292417 
L 470.227968 51.617666 
L 474.840576 49.3412 
L 480.195072 46.984578 
L 488.904192 43.484472 
L 489.775104 43.268927 
L 504.064512 43.108189 
L 510.870528 43.184799 
L 526.224384 43.746186 
L 553.9968 44.46146 
L 579.64032 44.774399 
L 615.250944 44.945888 
L 663.280128 44.953885 
L 947.52 44.953885 
L 947.52 44.953885 
" clip-path="url(#p729b2999d2)" style="fill: none; stroke: #ff0000; stroke-width: 2; stroke-linecap: square"/>
   </g>
   <g id="patch_4">
    <path d="M 100.8 131.611034 
L 100.8 38.88 
" style="fill: none; stroke: #bcbcbc; stroke-width: 0.8; stroke-linejoin: miter; stroke-linecap: square"/>
   </g>
   <g id="patch_5">
    <path d="M 987.84 131.611034 
L 987.84 38.88 
" style="fill: none; stroke: #bcbcbc; stroke-width: 0.8; stroke-linejoin: miter; stroke-linecap: square"/>
   </g>
   <g id="patch_6">
    <path d="M 100.8 131.611034 
L 987.84 131.611034 
" style="fill: none; stroke: #bcbcbc; stroke-width: 0.8; stroke-linejoin: miter; stroke-linecap: square"/>
   </g>
   <g id="patch_7">
    <path d="M 100.8 38.88 
L 987.84 38.88 
" style="fill: none; stroke: #bcbcbc; stroke-width: 0.8; stroke-linejoin: miter; stroke-linecap: square"/>
   </g>
  </g>
  <g id="axes_2">
   <g id="patch_8">
    <path d="M 100.8 242.888276 
L 987.84 242.888276 
L 987.84 150.157241 
L 100.8 150.157241 
z
" style="fill: #eeeeee"/>
   </g>
   <g id="matplotlib.axis_3">
    <g id="xtick_7">
     <g id="line2d_18">
      <path d="M 141.12 242.888276 
L 141.12 150.157241 
" clip-path="url(#p11fb2f135e)" style="fill: none; stroke-dasharray: 1.85,0.8; stroke-dashoffset: 0; stroke: #b2b2b2; stroke-width: 0.5"/>
     </g>
     <g id="line2d_19">
      <g>
       <use xlink:href="#m0562d65ab0" x="141.12" y="242.888276" style="stroke: #000000; stroke-width: 0.8"/>
      </g>
     </g>
    </g>
    <g id="xtick_8">
     <g id="line2d_20">
      <path d="M 302.4 242.888276 
L 302.4 150.157241 
" clip-path="url(#p11fb2f135e)" style="fill: none; stroke-dasharray: 1.85,0.8; stroke-dashoffset: 0; stroke: #b2b2b2; stroke-width: 0.5"/>
     </g>
     <g id="line2d_21">
      <g>
       <use xlink:href="#m0562d65ab0" x="302.4" y="242.888276" style="stroke: #000000; stroke-width: 0.8"/>
      </g>
     </g>
    </g>
    <g id="xtick_9">
     <g id="line2d_22">
      <path d="M 463.68 242.888276 
L 463.68 150.157241 
" clip-path="url(#p11fb2f135e)" style="fill: none; stroke-dasharray: 1.85,0.8; stroke-dashoffset: 0; stroke: #b2b2b2; stroke-width: 0.5"/>
     </g>
     <g id="line2d_23">
      <g>
       <use xlink:href="#m0562d65ab0" x="463.68" y="242.888276" style="stroke: #000000; stroke-width: 0.8"/>
      </g>
     </g>
    </g>
    <g id="xtick_10">
     <g id="line2d_24">
      <path d="M 624.96 242.888276 
L 624.96 150.157241 
" clip-path="url(#p11fb2f135e)" style="fill: none; stroke-dasharray: 1.85,0.8; stroke-dashoffset: 0; stroke: #b2b2b2; stroke-width: 0.5"/>
     </g>
     <g id="line2d_25">
      <g>
       <use xlink:href="#m0562d65ab0" x="624.96" y="242.888276" style="stroke: #000000; stroke-width: 0.8"/>
      </g>
     </g>
    </g>
    <g id="xtick_11">
     <g id="line2d_26">
      <path d="M 786.24 242.888276 
L 786.24 150.157241 
" clip-path="url(#p11fb2f135e)" style="fill: none; stroke-dasharray: 1.85,0.8; stroke-dashoffset: 0; stroke: #b2b2b2; stroke-width: 0.5"/>
     </g>
     <g id="line2d_27">
      <g>
       <use xlink:href="#m0562d65ab0" x="786.24" y="242.888276" style="stroke: #000000; stroke-width: 0.8"/>
      </g>
     </g>
    </g>
    <g id="xtick_12">
     <g id="line2d_28">
      <path d="M 947.52 242.888276 
L 947.52 150.157241 
" clip-path="url(#p11fb2f135e)" style="fill: none; stroke-dasharray: 1.85,0.8; stroke-dashoffset: 0; stroke: #b2b2b2; stroke-width: 0.5"/>
     </g>
     <g id="line2d_29">
      <g>
       <use xlink:href="#m0562d65ab0" x="947.52" y="242.888276" style="stroke: #000000; stroke-width: 0.8"/>
      </g>
     </g>
    </g>
   </g>
   <g id="matplotlib.axis_4">
    <g id="ytick_3">
     <g id="line2d_30">
      <path d="M 100.8 219.150781 
L 987.84 219.150781 
" clip-path="url(#p11fb2f135e)" style="fill: none; stroke-dasharray: 1.85,0.8; stroke-dashoffset: 0; stroke: #b2b2b2; stroke-width: 0.5"/>
     </g>
     <g id="line2d_31">
      <g>
       <use xlink:href="#m86d3a533fc" x="100.8" y="219.150781" style="stroke: #000000; stroke-width: 0.8"/>
      </g>
     </g>
     <g id="text_4">
      <!-- 0 V -->
      <g transform="translate(74.36625 224.469687) scale(0.14 -0.14)">
       <use xlink:href="#DejaVuSans-30"/>
       <use xlink:href="#DejaVuSans-20" x="63.623047"/>
       <use xlink:href="#DejaVuSans-56" x="95.410156"/>
      </g>
     </g>
    </g>
    <g id="ytick_4">
     <g id="line2d_32">
      <path d="M 100.8 185.219351 
L 987.84 185.219351 
" clip-path="url(#p11fb2f135e)" style="fill: none; stroke-dasharray: 1.85,0.8; stroke-dashoffset: 0; stroke: #b2b2b2; stroke-width: 0.5"/>
     </g>
     <g id="line2d_33">
      <g>
       <use xlink:href="#m86d3a533fc" x="100.8" y="185.219351" style="stroke: #000000; stroke-width: 0.8"/>
      </g>
     </g>
     <g id="text_5">
      <!-- 1 V -->
      <g transform="translate(74.36625 190.538257) scale(0.14 -0.14)">
       <defs>
        <path id="DejaVuSans-31" d="M 794 531 
L 1825 531 
L 1825 4091 
L 703 3866 
L 703 4441 
L 1819 4666 
L 2450 4666 
L 2450 531 
L 3481 531 
L 3481 0 
L 794 0 
L 794 531 
z
" transform="scale(0.015625)"/>
       </defs>
       <use xlink:href="#DejaVuSans-31"/>
       <use xlink:href="#DejaVuSans-20" x="63.623047"/>
       <use xlink:href="#DejaVuSans-56" x="95.410156"/>
      </g>
     </g>
    </g>
    <g id="ytick_5">
     <g id="line2d_34">
      <path d="M 100.8 151.287921 
L 987.84 151.287921 
" clip-path="url(#p11fb2f135e)" style="fill: none; stroke-dasharray: 1.85,0.8; stroke-dashoffset: 0; stroke: #b2b2b2; stroke-width: 0.5"/>
     </g>
     <g id="line2d_35">
      <g>
       <use xlink:href="#m86d3a533fc" x="100.8" y="151.287921" style="stroke: #000000; stroke-width: 0.8"/>
      </g>
     </g>
     <g id="text_6">
      <!-- 2 V -->
      <g transform="translate(74.36625 156.606828) scale(0.14 -0.14)">
       <use xlink:href="#DejaVuSans-32"/>
       <use xlink:href="#DejaVuSans-20" x="63.623047"/>
       <use xlink:href="#DejaVuSans-56" x="95.410156"/>
      </g>
     </g>
    </g>
    <g id="text_7">
     <g id="patch_9">
      <path d="M 34.8768 224.531509 
L 34.8768 168.514009 
L 11.247425 168.514009 
L 11.247425 224.531509 
z
" style="fill: #ffff00; opacity: 0.2; stroke: #eeeeee; stroke-width: 0.5; stroke-linejoin: miter"/>
     </g>
     <!-- DFF IN -->
     <g transform="translate(26.925238 219.491509) rotate(-90) scale(0.14 -0.14)">
      <defs>
       <path id="DejaVuSans-44" d="M 1259 4147 
L 1259 519 
L 2022 519 
Q 2988 519 3436 956 
Q 3884 1394 3884 2338 
Q 3884 3275 3436 3711 
Q 2988 4147 2022 4147 
L 1259 4147 
z
M 628 4666 
L 1925 4666 
Q 3281 4666 3915 4102 
Q 4550 3538 4550 2338 
Q 4550 1131 3912 565 
Q 3275 0 1925 0 
L 628 0 
L 628 4666 
z
" transform="scale(0.015625)"/>
       <path id="DejaVuSans-46" d="M 628 4666 
L 3309 4666 
L 3309 4134 
L 1259 4134 
L 1259 2759 
L 3109 2759 
L 3109 2228 
L 1259 2228 
L 1259 0 
L 628 0 
L 628 4666 
z
" transform="scale(0.015625)"/>
       <path id="DejaVuSans-4e" d="M 628 4666 
L 1478 4666 
L 3547 763 
L 3547 4666 
L 4159 4666 
L 4159 0 
L 3309 0 
L 1241 3903 
L 1241 0 
L 628 0 
L 628 4666 
z
" transform="scale(0.015625)"/>
      </defs>
      <use xlink:href="#DejaVuSans-44"/>
      <use xlink:href="#DejaVuSans-46" x="77.001953"/>
      <use xlink:href="#DejaVuSans-46" x="134.521484"/>
      <use xlink:href="#DejaVuSans-20" x="192.041016"/>
      <use xlink:href="#DejaVuSans-49" x="223.828125"/>
      <use xlink:href="#DejaVuSans-4e" x="253.320312"/>
     </g>
    </g>
   </g>
   <g id="line2d_36">
    <path d="M 141.12 219.101227 
L 221.953536 219.054697 
L 224.437248 200.148502 
L 225.404928 194.397124 
L 228.243456 181.751559 
L 229.598208 180.482524 
L 231.178752 179.610486 
L 236.533248 179.155805 
L 243.5328 179.047224 
L 244.952064 179.006506 
L 248.145408 178.897926 
L 249.790464 178.833456 
L 251.887104 178.724875 
L 254.241792 178.378775 
L 254.757888 177.842658 
L 255.499776 177.503344 
L 256.338432 177.516917 
L 259.789824 178.131075 
L 262.467072 178.304126 
L 263.886336 178.35163 
L 264.144384 183.583856 
L 264.434688 187.143942 
L 265.176576 191.886538 
L 267.144192 209.197335 
L 268.402176 215.696901 
L 269.047296 216.978355 
L 270.46656 218.738717 
L 273.724416 219.152613 
L 282.530304 219.105262 
L 297.045504 219.09515 
L 305.851392 219.100413 
L 347.751936 219.05639 
L 350.235648 200.188541 
L 351.622656 191.562153 
L 352.654848 186.277672 
L 354.97728 179.29153 
L 358.460928 178.297339 
L 360.880128 178.443245 
L 375.13728 178.517894 
L 375.7824 179.65799 
L 376.26624 180.682719 
L 376.717824 181.038999 
L 377.266176 181.212049 
L 377.750016 181.161152 
L 378.427392 180.83541 
L 379.878912 180.00409 
L 380.330496 180.628429 
L 381.4272 182.155343 
L 385.233408 186.726925 
L 388.52352 191.054539 
L 389.16864 192.245193 
L 389.910528 194.759512 
L 391.362048 200.241813 
L 391.684608 201.416858 
L 391.974912 202.665535 
L 392.458752 204.863613 
L 393.490944 209.717843 
L 394.49088 213.55447 
L 395.910144 218.450097 
L 396.071424 218.920637 
L 396.297216 219.878712 
L 396.7488 221.185954 
L 396.91008 221.788882 
L 397.297152 223.079362 
L 397.780992 223.949024 
L 398.20032 225.194647 
L 398.68416 225.94521 
L 399.00672 226.290972 
L 399.297024 226.905809 
L 399.845376 228.350949 
L 400.200192 228.844312 
L 400.329216 229.091332 
L 401.10336 230.858821 
L 401.296896 231.102109 
L 401.651712 231.616509 
L 402.038784 232.58118 
L 402.425856 233.244879 
L 402.71616 233.709739 
L 405.651456 238.673229 
L 405.683712 238.640994 
L 405.78048 238.605027 
L 406.135296 238.229745 
L 407.87712 235.736124 
L 408.36096 235.240386 
L 408.619008 234.751774 
L 408.941568 234.250606 
L 409.264128 234.030391 
L 409.586688 233.786424 
L 410.909184 232.538766 
L 411.328512 231.862512 
L 411.715584 231.619224 
L 411.844608 231.577488 
L 412.0704 231.359988 
L 412.457472 231.19542 
L 413.005824 230.750919 
L 413.876736 229.764532 
L 414.038016 229.584695 
L 414.16704 229.519886 
L 414.392832 229.252846 
L 414.618624 229.183287 
L 416.58624 227.631263 
L 417.07008 226.810801 
L 417.360384 226.719865 
L 417.521664 226.677451 
L 418.650624 225.972355 
L 420.77952 224.271712 
L 421.456896 223.81262 
L 425.61792 220.345405 
L 426.392064 219.323322 
L 427.101696 218.315355 
L 431.74656 212.130029 
L 433.585152 210.11518 
L 434.036736 209.638783 
L 434.6496 208.075223 
L 435.681792 204.927404 
L 436.939776 201.770424 
L 437.488128 200.850204 
L 440.745984 196.306785 
L 441.74592 195.245749 
L 442.487808 194.252916 
L 444.3264 192.375829 
L 444.552192 191.800013 
L 445.326336 188.91618 
L 446.26176 185.824009 
L 447.132672 183.709402 
L 448.068096 182.084087 
L 448.745472 181.334202 
L 451.196928 178.863994 
L 452.487168 177.062235 
L 454.64832 173.855715 
L 455.45472 172.661329 
L 455.745024 172.315228 
L 456.648192 173.017609 
L 457.132032 172.909028 
L 457.71264 172.545962 
L 458.325504 171.887692 
L 458.8416 171.066552 
L 460.260864 168.141663 
L 461.325312 166.153281 
L 462.647808 164.141147 
L 464.292864 161.894886 
L 465.357312 160.418869 
L 467.776512 157.293784 
L 468.5184 156.353884 
L 470.195712 154.382468 
L 471.58272 154.70821 
L 472.518144 154.718389 
L 474.550272 155.040738 
L 478.066176 155.892416 
L 489.581568 159.641839 
L 491.484672 160.561381 
L 492.968448 161.219651 
L 496.032768 162.512438 
L 496.065024 162.431003 
L 496.452096 161.779519 
L 496.839168 161.545393 
L 497.129472 161.58611 
L 497.774592 161.966142 
L 500.516352 164.130968 
L 501.838848 164.836741 
L 503.35488 165.51537 
L 505.29024 166.241502 
L 506.806272 166.760653 
L 516.192768 169.6075 
L 518.740992 170.255591 
L 519.515136 170.462572 
L 519.998976 170.571153 
L 531.643392 172.909028 
L 533.35296 173.190659 
L 533.804544 173.261915 
L 535.836672 173.580871 
L 536.449536 173.865895 
L 536.90112 174.530951 
L 537.288192 174.809188 
L 537.836544 174.982239 
L 538.449408 175.002598 
L 541.642752 174.435943 
L 552.448512 175.464065 
L 553.609728 175.572646 
L 558.480384 175.97643 
L 560.093184 176.08501 
L 560.577024 176.125728 
L 563.415552 176.315744 
L 565.028352 176.424325 
L 567.350784 176.56005 
L 568.060416 176.593982 
L 569.995776 176.702562 
L 571.931136 176.800963 
L 572.576256 176.838288 
L 574.608384 176.943475 
L 575.350272 176.970621 
L 576.059904 177.007945 
L 576.672768 177.007945 
L 577.156608 176.448077 
L 577.608192 176.210557 
L 578.092032 176.125728 
L 579.285504 176.356462 
L 581.317632 176.882399 
L 583.123968 177.150457 
L 586.220544 177.371011 
L 586.930176 177.404943 
L 590.155776 177.506737 
L 590.639616 177.544062 
L 594.865152 177.652642 
L 596.219904 177.689967 
L 597.090816 177.703539 
L 597.510144 177.723898 
L 598.51008 177.727291 
L 603.864576 177.835872 
L 605.058048 177.852838 
L 605.864448 177.873197 
L 606.445056 177.883376 
L 607.509504 177.886769 
L 614.79936 177.99535 
L 616.057344 178.019102 
L 617.05728 178.107323 
L 617.573376 178.680765 
L 618.18624 179.006506 
L 619.057152 179.087942 
L 622.798848 178.409313 
L 624.347136 178.300733 
L 626.347008 178.198938 
L 657.280512 178.100537 
L 658.409472 177.177602 
L 659.6352 177.15385 
L 663.602688 177.87659 
L 665.28 177.944453 
L 697.600512 178.053033 
L 697.761792 178.23287 
L 698.277888 178.752021 
L 698.66496 178.93525 
L 699.277824 179.074369 
L 701.632512 178.969182 
L 703.922688 178.599329 
L 709.373952 178.134469 
L 737.952768 178.066606 
L 738.50112 177.452447 
L 739.049472 177.177602 
L 740.984832 177.286183 
L 744.242688 177.859624 
L 746.339328 177.971598 
L 778.272768 178.066606 
L 779.208192 178.901319 
L 780.143616 179.081155 
L 782.240256 178.972575 
L 783.949824 178.684158 
L 785.304576 178.511107 
L 789.852672 178.141255 
L 818.592768 178.066606 
L 819.14112 177.452447 
L 819.689472 177.177602 
L 821.624832 177.286183 
L 824.882688 177.859624 
L 826.979328 177.971598 
L 858.912768 178.066606 
L 859.848192 178.901319 
L 860.783616 179.081155 
L 862.880256 178.972575 
L 864.589824 178.684158 
L 865.944576 178.511107 
L 870.492672 178.141255 
L 899.232768 178.066606 
L 899.78112 177.452447 
L 900.329472 177.177602 
L 902.264832 177.286183 
L 905.522688 177.859624 
L 907.619328 177.971598 
L 939.552768 178.066606 
L 940.617216 178.931857 
L 941.55264 179.11848 
L 943.455744 179.009899 
L 946.39104 178.504321 
L 947.52 178.327878 
L 947.52 178.327878 
" clip-path="url(#p11fb2f135e)" style="fill: none; stroke: #008000; stroke-width: 2; stroke-linecap: square"/>
   </g>
   <g id="patch_10">
    <path d="M 100.8 242.888276 
L 100.8 150.157241 
" style="fill: none; stroke: #bcbcbc; stroke-width: 0.8; stroke-linejoin: miter; stroke-linecap: square"/>
   </g>
   <g id="patch_11">
    <path d="M 987.84 242.888276 
L 987.84 150.157241 
" style="fill: none; stroke: #bcbcbc; stroke-width: 0.8; stroke-linejoin: miter; stroke-linecap: square"/>
   </g>
   <g id="patch_12">
    <path d="M 100.8 242.888276 
L 987.84 242.888276 
" style="fill: none; stroke: #bcbcbc; stroke-width: 0.8; stroke-linejoin: miter; stroke-linecap: square"/>
   </g>
   <g id="patch_13">
    <path d="M 100.8 150.157241 
L 987.84 150.157241 
" style="fill: none; stroke: #bcbcbc; stroke-width: 0.8; stroke-linejoin: miter; stroke-linecap: square"/>
   </g>
  </g>
  <g id="axes_3">
   <g id="patch_14">
    <path d="M 100.8 354.165517 
L 987.84 354.165517 
L 987.84 261.434483 
L 100.8 261.434483 
z
" style="fill: #eeeeee"/>
   </g>
   <g id="matplotlib.axis_5">
    <g id="xtick_13">
     <g id="line2d_37">
      <path d="M 141.12 354.165517 
L 141.12 261.434483 
" clip-path="url(#p88cde486f5)" style="fill: none; stroke-dasharray: 1.85,0.8; stroke-dashoffset: 0; stroke: #b2b2b2; stroke-width: 0.5"/>
     </g>
     <g id="line2d_38">
      <g>
       <use xlink:href="#m0562d65ab0" x="141.12" y="354.165517" style="stroke: #000000; stroke-width: 0.8"/>
      </g>
     </g>
    </g>
    <g id="xtick_14">
     <g id="line2d_39">
      <path d="M 302.4 354.165517 
L 302.4 261.434483 
" clip-path="url(#p88cde486f5)" style="fill: none; stroke-dasharray: 1.85,0.8; stroke-dashoffset: 0; stroke: #b2b2b2; stroke-width: 0.5"/>
     </g>
     <g id="line2d_40">
      <g>
       <use xlink:href="#m0562d65ab0" x="302.4" y="354.165517" style="stroke: #000000; stroke-width: 0.8"/>
      </g>
     </g>
    </g>
    <g id="xtick_15">
     <g id="line2d_41">
      <path d="M 463.68 354.165517 
L 463.68 261.434483 
" clip-path="url(#p88cde486f5)" style="fill: none; stroke-dasharray: 1.85,0.8; stroke-dashoffset: 0; stroke: #b2b2b2; stroke-width: 0.5"/>
     </g>
     <g id="line2d_42">
      <g>
       <use xlink:href="#m0562d65ab0" x="463.68" y="354.165517" style="stroke: #000000; stroke-width: 0.8"/>
      </g>
     </g>
    </g>
    <g id="xtick_16">
     <g id="line2d_43">
      <path d="M 624.96 354.165517 
L 624.96 261.434483 
" clip-path="url(#p88cde486f5)" style="fill: none; stroke-dasharray: 1.85,0.8; stroke-dashoffset: 0; stroke: #b2b2b2; stroke-width: 0.5"/>
     </g>
     <g id="line2d_44">
      <g>
       <use xlink:href="#m0562d65ab0" x="624.96" y="354.165517" style="stroke: #000000; stroke-width: 0.8"/>
      </g>
     </g>
    </g>
    <g id="xtick_17">
     <g id="line2d_45">
      <path d="M 786.24 354.165517 
L 786.24 261.434483 
" clip-path="url(#p88cde486f5)" style="fill: none; stroke-dasharray: 1.85,0.8; stroke-dashoffset: 0; stroke: #b2b2b2; stroke-width: 0.5"/>
     </g>
     <g id="line2d_46">
      <g>
       <use xlink:href="#m0562d65ab0" x="786.24" y="354.165517" style="stroke: #000000; stroke-width: 0.8"/>
      </g>
     </g>
    </g>
    <g id="xtick_18">
     <g id="line2d_47">
      <path d="M 947.52 354.165517 
L 947.52 261.434483 
" clip-path="url(#p88cde486f5)" style="fill: none; stroke-dasharray: 1.85,0.8; stroke-dashoffset: 0; stroke: #b2b2b2; stroke-width: 0.5"/>
     </g>
     <g id="line2d_48">
      <g>
       <use xlink:href="#m0562d65ab0" x="947.52" y="354.165517" style="stroke: #000000; stroke-width: 0.8"/>
      </g>
     </g>
    </g>
   </g>
   <g id="matplotlib.axis_6">
    <g id="ytick_6">
     <g id="line2d_49">
      <path d="M 100.8 344.014642 
L 987.84 344.014642 
" clip-path="url(#p88cde486f5)" style="fill: none; stroke-dasharray: 1.85,0.8; stroke-dashoffset: 0; stroke: #b2b2b2; stroke-width: 0.5"/>
     </g>
     <g id="line2d_50">
      <g>
       <use xlink:href="#m86d3a533fc" x="100.8" y="344.014642" style="stroke: #000000; stroke-width: 0.8"/>
      </g>
     </g>
     <g id="text_8">
      <!-- 0 V -->
      <g transform="translate(74.36625 349.333548) scale(0.14 -0.14)">
       <use xlink:href="#DejaVuSans-30"/>
       <use xlink:href="#DejaVuSans-20" x="63.623047"/>
       <use xlink:href="#DejaVuSans-56" x="95.410156"/>
      </g>
     </g>
    </g>
    <g id="ytick_7">
     <g id="line2d_51">
      <path d="M 100.8 297.16517 
L 987.84 297.16517 
" clip-path="url(#p88cde486f5)" style="fill: none; stroke-dasharray: 1.85,0.8; stroke-dashoffset: 0; stroke: #b2b2b2; stroke-width: 0.5"/>
     </g>
     <g id="line2d_52">
      <g>
       <use xlink:href="#m86d3a533fc" x="100.8" y="297.16517" style="stroke: #000000; stroke-width: 0.8"/>
      </g>
     </g>
     <g id="text_9">
      <!-- 1 V -->
      <g transform="translate(74.36625 302.484076) scale(0.14 -0.14)">
       <use xlink:href="#DejaVuSans-31"/>
       <use xlink:href="#DejaVuSans-20" x="63.623047"/>
       <use xlink:href="#DejaVuSans-56" x="95.410156"/>
      </g>
     </g>
    </g>
    <g id="text_10">
     <g id="patch_15">
      <path d="M 34.8768 342.395313 
L 34.8768 273.204688 
L 11.247425 273.204688 
L 11.247425 342.395313 
z
" style="fill: #ffff00; opacity: 0.2; stroke: #eeeeee; stroke-width: 0.5; stroke-linejoin: miter"/>
     </g>
     <!-- CLK BUF -->
     <g transform="translate(26.925238 337.355313) rotate(-90) scale(0.14 -0.14)">
      <defs>
       <path id="DejaVuSans-43" d="M 4122 4306 
L 4122 3641 
Q 3803 3938 3442 4084 
Q 3081 4231 2675 4231 
Q 1875 4231 1450 3742 
Q 1025 3253 1025 2328 
Q 1025 1406 1450 917 
Q 1875 428 2675 428 
Q 3081 428 3442 575 
Q 3803 722 4122 1019 
L 4122 359 
Q 3791 134 3420 21 
Q 3050 -91 2638 -91 
Q 1578 -91 968 557 
Q 359 1206 359 2328 
Q 359 3453 968 4101 
Q 1578 4750 2638 4750 
Q 3056 4750 3426 4639 
Q 3797 4528 4122 4306 
z
" transform="scale(0.015625)"/>
       <path id="DejaVuSans-4b" d="M 628 4666 
L 1259 4666 
L 1259 2694 
L 3353 4666 
L 4166 4666 
L 1850 2491 
L 4331 0 
L 3500 0 
L 1259 2247 
L 1259 0 
L 628 0 
L 628 4666 
z
" transform="scale(0.015625)"/>
      </defs>
      <use xlink:href="#DejaVuSans-43"/>
      <use xlink:href="#DejaVuSans-4c" x="69.824219"/>
      <use xlink:href="#DejaVuSans-4b" x="125.537109"/>
      <use xlink:href="#DejaVuSans-20" x="191.113281"/>
      <use xlink:href="#DejaVuSans-42" x="222.900391"/>
      <use xlink:href="#DejaVuSans-55" x="291.503906"/>
      <use xlink:href="#DejaVuSans-46" x="364.697266"/>
     </g>
    </g>
   </g>
   <g id="line2d_53">
    <path d="M 141.12 344.013403 
L 173.376 344.013403 
L 173.601792 287.795275 
L 213.696 287.795275 
L 213.760512 332.639122 
L 213.825024 343.993239 
L 213.889536 343.92582 
L 213.954048 344.112979 
L 214.01856 344.019719 
L 215.244288 344.011291 
L 222.759936 344.013429 
L 254.016 344.013371 
L 254.17728 287.621932 
L 254.241792 287.921769 
L 254.403072 287.785905 
L 254.8224 287.795275 
L 294.336 287.795275 
L 294.400512 332.599768 
L 294.465024 344.364238 
L 294.529536 343.549699 
L 294.626304 344.088266 
L 294.65856 344.054928 
L 294.852096 343.972583 
L 295.206912 344.03169 
L 295.497216 344.013038 
L 318.624768 344.013404 
L 334.656 344.013406 
L 334.81728 287.710946 
L 334.881792 287.814015 
L 335.172096 287.79996 
L 374.976 287.795275 
L 375.008256 293.309458 
L 375.13728 343.91645 
L 375.169536 344.044431 
L 375.266304 344.011323 
L 376.492032 344.013409 
L 379.878912 344.101754 
L 380.524032 344.782739 
L 381.26592 345.223686 
L 382.169088 345.495882 
L 383.491584 345.643223 
L 385.846272 345.648705 
L 398.393856 345.460229 
L 399.361536 345.848752 
L 400.071168 346.296024 
L 404.587008 349.302542 
L 405.425664 349.887692 
L 405.490176 349.862862 
L 405.522432 349.949065 
L 405.844992 349.816949 
L 406.651392 349.398583 
L 407.490048 349.033158 
L 407.683584 348.888861 
L 407.71584 348.961478 
L 407.812608 348.907601 
L 408.006144 348.834047 
L 410.167296 348.011511 
L 415.13472 346.310828 
L 415.296 346.260606 
L 415.328256 347.738847 
L 415.521792 321.271566 
L 415.747584 321.144135 
L 419.231232 319.842657 
L 419.65056 319.712884 
L 419.779584 319.557344 
L 419.844096 319.672593 
L 419.908608 319.572335 
L 420.037632 319.593886 
L 420.166656 319.440688 
L 420.231168 319.512368 
L 420.29568 319.44022 
L 420.45696 319.401335 
L 422.166528 318.772615 
L 422.456832 318.66533 
L 422.811648 318.51588 
L 423.19872 318.370178 
L 423.327744 318.315833 
L 424.069632 318.030051 
L 425.875968 317.130541 
L 426.488832 316.733257 
L 429.101568 314.933301 
L 435.391488 310.59176 
L 438.778368 308.510238 
L 443.068416 306.14434 
L 444.358656 305.418173 
L 445.713408 302.66764 
L 447.681024 298.025795 
L 452.035584 287.748426 
L 452.71296 286.235188 
L 454.48704 282.393531 
L 455.616 280.018263 
L 455.648256 289.57087 
L 455.77728 342.253898 
L 455.93856 342.234315 
L 463.744512 342.534808 
L 465.647616 342.440968 
L 470.066688 342.569711 
L 470.389248 342.929046 
L 471.034368 343.527361 
L 471.840768 343.952693 
L 472.840704 344.219913 
L 474.356736 344.381787 
L 477.485568 344.442434 
L 495.936 344.529377 
L 496.065024 265.64953 
L 496.194048 266.019641 
L 497.161728 266.586519 
L 501.322752 268.877458 
L 502.838784 269.65516 
L 504.16128 270.296997 
L 507.644928 271.932044 
L 508.483584 272.292785 
L 515.2896 275.150603 
L 515.579904 275.258357 
L 517.418496 275.947044 
L 517.7088 276.054798 
L 518.902272 276.462388 
L 519.257088 276.570142 
L 520.45056 276.977732 
L 520.708608 277.080801 
L 521.127936 277.21198 
L 521.482752 277.315048 
L 521.90208 277.446227 
L 522.256896 277.549296 
L 522.772992 277.727324 
L 523.127808 277.830393 
L 523.547136 277.961571 
L 523.901952 278.06464 
L 524.32128 278.195818 
L 524.676096 278.298887 
L 525.030912 278.383216 
L 530.417664 279.83555 
L 530.869248 279.938619 
L 531.224064 280.022948 
L 533.707776 280.631991 
L 534.256128 280.73506 
L 534.610944 280.819389 
L 536.126976 281.147335 
L 536.256 281.1895 
L 536.288256 291.313671 
L 536.41728 344.12063 
L 536.449536 344.284795 
L 536.514048 344.196343 
L 536.90112 344.191251 
L 576.576 344.064424 
L 576.705024 285.61209 
L 576.801792 285.972831 
L 577.253376 285.996256 
L 577.479168 286.014995 
L 579.833856 286.122749 
L 580.156416 286.155544 
L 582.54336 286.263298 
L 582.86592 286.296092 
L 585.639936 286.403846 
L 585.962496 286.436641 
L 589.026816 286.544394 
L 589.349376 286.577189 
L 592.800768 286.684943 
L 593.123328 286.717737 
L 597.05856 286.825491 
L 597.38112 286.858286 
L 601.993728 286.96604 
L 602.316288 286.998834 
L 607.896576 287.106588 
L 608.219136 287.139383 
L 615.154176 287.247137 
L 615.476736 287.279931 
L 616.896 287.279931 
L 616.928256 293.5765 
L 617.05728 344.072567 
L 617.186304 344.027496 
L 630.830592 344.026819 
L 657.216 344.026812 
L 657.37728 287.233082 
L 657.441792 287.34552 
L 658.312704 287.326781 
L 697.536 287.326781 
L 697.665024 344.372572 
L 697.826304 344.099913 
L 698.084352 343.995537 
L 698.439168 344.046505 
L 698.729472 344.026678 
L 733.598208 344.026816 
L 737.856 344.02682 
L 738.01728 287.083163 
L 738.081792 287.612562 
L 738.17856 287.130013 
L 738.243072 287.308041 
L 738.694656 287.326781 
L 778.176 287.326781 
L 778.305024 344.372385 
L 778.466304 344.09996 
L 778.724352 343.995527 
L 779.079168 344.046492 
L 779.369472 344.026677 
L 814.238208 344.026816 
L 818.496 344.02682 
L 818.65728 287.083163 
L 818.721792 287.612562 
L 818.81856 287.130013 
L 818.883072 287.308041 
L 819.334656 287.326781 
L 858.816 287.326781 
L 858.945024 344.372572 
L 859.106304 344.099913 
L 859.364352 343.995537 
L 859.719168 344.046506 
L 860.009472 344.026678 
L 894.878208 344.026816 
L 899.136 344.02682 
L 899.29728 287.083163 
L 899.361792 287.612562 
L 899.45856 287.130013 
L 899.523072 287.308041 
L 899.974656 287.326781 
L 939.456 287.326781 
L 939.488256 295.77374 
L 939.61728 343.971102 
L 939.649536 344.107334 
L 939.714048 343.976991 
L 939.746304 343.935879 
L 939.810816 343.996349 
L 939.972096 344.089344 
L 940.004352 344.054857 
L 940.197888 344.026044 
L 945.197568 344.026828 
L 947.52 344.026809 
L 947.52 344.026809 
" clip-path="url(#p88cde486f5)" style="fill: none; stroke: #0000ff; stroke-width: 2; stroke-linecap: square"/>
   </g>
   <g id="patch_16">
    <path d="M 100.8 354.165517 
L 100.8 261.434483 
" style="fill: none; stroke: #bcbcbc; stroke-width: 0.8; stroke-linejoin: miter; stroke-linecap: square"/>
   </g>
   <g id="patch_17">
    <path d="M 987.84 354.165517 
L 987.84 261.434483 
" style="fill: none; stroke: #bcbcbc; stroke-width: 0.8; stroke-linejoin: miter; stroke-linecap: square"/>
   </g>
   <g id="patch_18">
    <path d="M 100.8 354.165517 
L 987.84 354.165517 
" style="fill: none; stroke: #bcbcbc; stroke-width: 0.8; stroke-linejoin: miter; stroke-linecap: square"/>
   </g>
   <g id="patch_19">
    <path d="M 100.8 261.434483 
L 987.84 261.434483 
" style="fill: none; stroke: #bcbcbc; stroke-width: 0.8; stroke-linejoin: miter; stroke-linecap: square"/>
   </g>
  </g>
  <g id="axes_4">
   <g id="patch_20">
    <path d="M 100.8 465.442759 
L 987.84 465.442759 
L 987.84 372.711724 
L 100.8 372.711724 
z
" style="fill: #eeeeee"/>
   </g>
   <g id="matplotlib.axis_7">
    <g id="xtick_19">
     <g id="line2d_54">
      <path d="M 141.12 465.442759 
L 141.12 372.711724 
" clip-path="url(#p63f09cabb0)" style="fill: none; stroke-dasharray: 1.85,0.8; stroke-dashoffset: 0; stroke: #b2b2b2; stroke-width: 0.5"/>
     </g>
     <g id="line2d_55">
      <g>
       <use xlink:href="#m0562d65ab0" x="141.12" y="465.442759" style="stroke: #000000; stroke-width: 0.8"/>
      </g>
     </g>
    </g>
    <g id="xtick_20">
     <g id="line2d_56">
      <path d="M 302.4 465.442759 
L 302.4 372.711724 
" clip-path="url(#p63f09cabb0)" style="fill: none; stroke-dasharray: 1.85,0.8; stroke-dashoffset: 0; stroke: #b2b2b2; stroke-width: 0.5"/>
     </g>
     <g id="line2d_57">
      <g>
       <use xlink:href="#m0562d65ab0" x="302.4" y="465.442759" style="stroke: #000000; stroke-width: 0.8"/>
      </g>
     </g>
    </g>
    <g id="xtick_21">
     <g id="line2d_58">
      <path d="M 463.68 465.442759 
L 463.68 372.711724 
" clip-path="url(#p63f09cabb0)" style="fill: none; stroke-dasharray: 1.85,0.8; stroke-dashoffset: 0; stroke: #b2b2b2; stroke-width: 0.5"/>
     </g>
     <g id="line2d_59">
      <g>
       <use xlink:href="#m0562d65ab0" x="463.68" y="465.442759" style="stroke: #000000; stroke-width: 0.8"/>
      </g>
     </g>
    </g>
    <g id="xtick_22">
     <g id="line2d_60">
      <path d="M 624.96 465.442759 
L 624.96 372.711724 
" clip-path="url(#p63f09cabb0)" style="fill: none; stroke-dasharray: 1.85,0.8; stroke-dashoffset: 0; stroke: #b2b2b2; stroke-width: 0.5"/>
     </g>
     <g id="line2d_61">
      <g>
       <use xlink:href="#m0562d65ab0" x="624.96" y="465.442759" style="stroke: #000000; stroke-width: 0.8"/>
      </g>
     </g>
    </g>
    <g id="xtick_23">
     <g id="line2d_62">
      <path d="M 786.24 465.442759 
L 786.24 372.711724 
" clip-path="url(#p63f09cabb0)" style="fill: none; stroke-dasharray: 1.85,0.8; stroke-dashoffset: 0; stroke: #b2b2b2; stroke-width: 0.5"/>
     </g>
     <g id="line2d_63">
      <g>
       <use xlink:href="#m0562d65ab0" x="786.24" y="465.442759" style="stroke: #000000; stroke-width: 0.8"/>
      </g>
     </g>
    </g>
    <g id="xtick_24">
     <g id="line2d_64">
      <path d="M 947.52 465.442759 
L 947.52 372.711724 
" clip-path="url(#p63f09cabb0)" style="fill: none; stroke-dasharray: 1.85,0.8; stroke-dashoffset: 0; stroke: #b2b2b2; stroke-width: 0.5"/>
     </g>
     <g id="line2d_65">
      <g>
       <use xlink:href="#m0562d65ab0" x="947.52" y="465.442759" style="stroke: #000000; stroke-width: 0.8"/>
      </g>
     </g>
    </g>
   </g>
   <g id="matplotlib.axis_8">
    <g id="ytick_8">
     <g id="line2d_66">
      <path d="M 100.8 439.595762 
L 987.84 439.595762 
" clip-path="url(#p63f09cabb0)" style="fill: none; stroke-dasharray: 1.85,0.8; stroke-dashoffset: 0; stroke: #b2b2b2; stroke-width: 0.5"/>
     </g>
     <g id="line2d_67">
      <g>
       <use xlink:href="#m86d3a533fc" x="100.8" y="439.595762" style="stroke: #000000; stroke-width: 0.8"/>
      </g>
     </g>
     <g id="text_11">
      <!-- 0 V -->
      <g transform="translate(74.36625 444.914668) scale(0.14 -0.14)">
       <use xlink:href="#DejaVuSans-30"/>
       <use xlink:href="#DejaVuSans-20" x="63.623047"/>
       <use xlink:href="#DejaVuSans-56" x="95.410156"/>
      </g>
     </g>
    </g>
    <g id="ytick_9">
     <g id="line2d_68">
      <path d="M 100.8 401.678899 
L 987.84 401.678899 
" clip-path="url(#p63f09cabb0)" style="fill: none; stroke-dasharray: 1.85,0.8; stroke-dashoffset: 0; stroke: #b2b2b2; stroke-width: 0.5"/>
     </g>
     <g id="line2d_69">
      <g>
       <use xlink:href="#m86d3a533fc" x="100.8" y="401.678899" style="stroke: #000000; stroke-width: 0.8"/>
      </g>
     </g>
     <g id="text_12">
      <!-- 1 V -->
      <g transform="translate(74.36625 406.997806) scale(0.14 -0.14)">
       <use xlink:href="#DejaVuSans-31"/>
       <use xlink:href="#DejaVuSans-20" x="63.623047"/>
       <use xlink:href="#DejaVuSans-56" x="95.410156"/>
      </g>
     </g>
    </g>
    <g id="text_13">
     <g id="patch_21">
      <path d="M 34.8768 454.693023 
L 34.8768 383.46146 
L 11.247425 383.46146 
L 11.247425 454.693023 
z
" style="fill: #ffff00; opacity: 0.2; stroke: #eeeeee; stroke-width: 0.5; stroke-linejoin: miter"/>
     </g>
     <!-- DFF OUT -->
     <g transform="translate(26.925238 449.653023) rotate(-90) scale(0.14 -0.14)">
      <defs>
       <path id="DejaVuSans-4f" d="M 2522 4238 
Q 1834 4238 1429 3725 
Q 1025 3213 1025 2328 
Q 1025 1447 1429 934 
Q 1834 422 2522 422 
Q 3209 422 3611 934 
Q 4013 1447 4013 2328 
Q 4013 3213 3611 3725 
Q 3209 4238 2522 4238 
z
M 2522 4750 
Q 3503 4750 4090 4092 
Q 4678 3434 4678 2328 
Q 4678 1225 4090 567 
Q 3503 -91 2522 -91 
Q 1538 -91 948 565 
Q 359 1222 359 2328 
Q 359 3434 948 4092 
Q 1538 4750 2522 4750 
z
" transform="scale(0.015625)"/>
       <path id="DejaVuSans-54" d="M -19 4666 
L 3928 4666 
L 3928 4134 
L 2272 4134 
L 2272 0 
L 1638 0 
L 1638 4134 
L -19 4134 
L -19 4666 
z
" transform="scale(0.015625)"/>
      </defs>
      <use xlink:href="#DejaVuSans-44"/>
      <use xlink:href="#DejaVuSans-46" x="77.001953"/>
      <use xlink:href="#DejaVuSans-46" x="134.521484"/>
      <use xlink:href="#DejaVuSans-20" x="192.041016"/>
      <use xlink:href="#DejaVuSans-4f" x="223.828125"/>
      <use xlink:href="#DejaVuSans-55" x="302.539062"/>
      <use xlink:href="#DejaVuSans-54" x="375.732422"/>
     </g>
    </g>
   </g>
   <g id="line2d_70">
    <path d="M 141.12 410.986352 
L 173.408256 411.03261 
L 173.440512 412.602368 
L 173.601792 439.598076 
L 174.150144 439.594009 
L 184.859136 439.594755 
L 254.048256 439.59634 
L 254.080512 439.747915 
L 254.112768 439.49719 
L 254.306304 435.795355 
L 254.596608 435.053322 
L 254.693376 434.524003 
L 255.14496 427.880968 
L 255.370752 412.267562 
L 255.596544 394.46332 
L 255.757824 394.152402 
L 255.983616 394.091735 
L 256.951296 394.095527 
L 295.755264 394.17136 
L 296.239104 396.624581 
L 296.59392 396.010328 
L 297.948672 394.406445 
L 299.625984 394.12586 
L 300.722688 394.106902 
L 334.720512 394.000735 
L 334.752768 394.558112 
L 334.785024 397.314668 
L 334.914048 439.580219 
L 334.97856 439.546849 
L 335.13984 439.587815 
L 335.526912 439.595102 
L 368.36352 439.594718 
L 379.911168 439.699252 
L 380.588544 440.257563 
L 381.4272 440.626684 
L 382.523904 440.842886 
L 384.265728 440.930549 
L 388.297728 440.848459 
L 390.233088 440.658875 
L 390.94272 440.390158 
L 391.329792 440.021872 
L 391.620096 439.363036 
L 391.813632 438.376811 
L 392.007168 436.17259 
L 392.329728 428.597597 
L 392.491008 426.829913 
L 392.684544 426.754458 
L 392.974848 427.323211 
L 393.232896 428.064107 
L 393.297408 428.412183 
L 393.329664 427.937085 
L 393.36192 428.685943 
L 393.619968 429.689603 
L 395.200512 436.176685 
L 395.232768 435.841083 
L 395.329536 436.05281 
L 395.361792 436.18552 
L 395.523072 437.455355 
L 395.813376 438.594984 
L 395.845632 438.379579 
L 395.9424 438.513463 
L 396.10368 439.162827 
L 396.26496 440.324866 
L 396.652032 441.757403 
L 396.684288 441.334364 
L 396.7488 441.771811 
L 396.781056 441.72832 
L 396.942336 442.811605 
L 397.23264 443.657417 
L 397.297152 443.635804 
L 397.651968 444.343712 
L 397.684224 444.749801 
L 397.780992 444.662972 
L 397.974528 445.397042 
L 398.006784 445.327275 
L 398.168064 445.983237 
L 398.780928 447.247006 
L 398.813184 447.145389 
L 398.84544 447.072209 
L 398.909952 447.18141 
L 399.135744 447.729688 
L 399.200256 448.111131 
L 399.232512 447.813484 
L 399.426048 448.334841 
L 399.587328 448.980565 
L 401.458176 453.175307 
L 401.554944 453.125636 
L 403.748352 457.735569 
L 403.84512 457.840219 
L 404.038656 458.311147 
L 404.264448 458.796482 
L 404.296704 458.732403 
L 404.49024 459.22608 
L 405.586944 461.227712 
L 405.6192 461.149982 
L 405.909504 460.980494 
L 406.90944 459.323906 
L 407.07072 458.875349 
L 409.135104 455.940205 
L 409.16736 456.104764 
L 409.199616 456.065331 
L 409.32864 455.715358 
L 409.360896 455.820388 
L 409.393152 455.738867 
L 409.522176 455.536011 
L 409.554432 455.589095 
L 409.586688 455.532599 
L 409.747968 455.37259 
L 409.844736 455.29941 
L 410.102784 455.019204 
L 410.393088 454.539935 
L 410.425344 454.656719 
L 410.4576 454.455002 
L 410.876928 453.977628 
L 411.58656 453.239387 
L 411.618816 453.430109 
L 411.683328 453.15597 
L 411.780096 453.073311 
L 412.812288 452.239519 
L 412.973568 451.833809 
L 413.03808 451.902059 
L 413.231616 451.530095 
L 413.263872 451.600241 
L 413.296128 451.436061 
L 413.328384 451.436061 
L 413.36064 451.59152 
L 413.392896 451.345819 
L 413.425152 451.33179 
L 413.457408 451.590003 
L 413.489664 451.29501 
L 413.52192 451.518341 
L 413.618688 451.124005 
L 413.6832 451.152822 
L 413.715456 460.095893 
L 413.779968 450.946933 
L 413.812224 450.932904 
L 413.84448 451.124005 
L 413.908992 450.840387 
L 413.941248 450.876029 
L 413.973504 450.770999 
L 414.00576 450.760003 
L 414.070272 450.978784 
L 414.134784 450.8802 
L 414.263808 450.51961 
L 414.296064 450.507477 
L 414.32832 450.618194 
L 414.360576 450.435056 
L 414.392832 450.432402 
L 414.4896 450.372493 
L 414.521856 450.548427 
L 414.65088 450.310309 
L 414.715392 450.308793 
L 414.876672 450.179117 
L 415.521792 449.623256 
L 415.747584 449.093936 
L 415.812096 448.995732 
L 415.844352 449.131474 
L 415.876608 449.156878 
L 416.005632 448.761026 
L 416.199168 448.578267 
L 416.231424 448.883119 
L 416.295936 448.566513 
L 416.328192 448.695051 
L 416.360448 448.59078 
L 416.457216 448.677988 
L 416.489472 448.246494 
L 416.521728 448.259386 
L 416.553984 448.593813 
L 416.58624 448.164594 
L 416.618496 448.178623 
L 417.295872 447.681912 
L 417.328128 447.850263 
L 417.39264 447.723621 
L 417.618432 447.581812 
L 417.811968 447.455928 
L 418.328064 446.963767 
L 418.84416 446.066275 
L 418.876416 446.406768 
L 418.940928 445.956695 
L 418.973184 446.269888 
L 419.102208 445.846357 
L 419.231232 445.68521 
L 419.263488 446.069687 
L 419.328 445.785311 
L 419.360256 445.829294 
L 419.48928 445.45733 
L 419.521536 445.585489 
L 419.553792 445.800478 
L 419.586048 445.357988 
L 419.618304 445.662839 
L 419.81184 445.234 
L 419.844096 445.578285 
L 419.876352 445.167266 
L 419.908608 445.177883 
L 419.97312 445.116837 
L 420.037632 445.406901 
L 420.166656 445.016357 
L 420.231168 445.257508 
L 420.263424 444.975407 
L 420.521472 444.947727 
L 420.715008 444.829806 
L 421.134336 444.532159 
L 421.811712 443.768513 
L 421.940736 443.337891 
L 421.972992 443.391619 
L 422.102016 443.151681 
L 422.134272 443.128893 
L 422.166528 443.488686 
L 422.23104 443.038386 
L 422.295552 442.962173 
L 422.360064 443.371523 
L 422.39232 442.810619 
L 422.489088 442.830146 
L 422.5536 443.029475 
L 422.585856 442.677607 
L 422.682624 442.812098 
L 422.747136 442.860252 
L 422.811648 442.596654 
L 422.843904 442.761214 
L 422.87616 442.470695 
L 422.908416 442.481008 
L 422.940672 442.874926 
L 423.005184 442.671426 
L 423.134208 442.522034 
L 423.19872 442.596579 
L 423.263232 442.282779 
L 423.295488 442.485027 
L 423.392256 442.439906 
L 423.553536 442.258019 
L 423.68256 442.237961 
L 424.9728 441.018592 
L 425.101824 440.332108 
L 425.13408 440.805272 
L 425.230848 440.662326 
L 425.359872 439.942656 
L 425.392128 440.390462 
L 425.488896 440.207247 
L 425.521152 440.17589 
L 425.61792 439.724467 
L 425.650176 439.935463 
L 425.682432 439.637774 
L 425.746944 439.831086 
L 426.230784 439.11073 
L 426.811392 437.949564 
L 426.90816 437.311499 
L 426.940416 437.354003 
L 426.972672 437.646494 
L 427.037184 437.395977 
L 427.101696 437.431164 
L 427.327488 437.071068 
L 427.359744 437.124531 
L 427.424256 437.022762 
L 428.553216 435.053322 
L 428.617728 434.515661 
L 428.68224 434.553957 
L 428.746752 434.615382 
L 428.779008 434.573294 
L 429.843456 432.681243 
L 429.940224 431.986985 
L 430.036992 432.070782 
L 430.13376 432.298283 
L 430.29504 431.846314 
L 430.811136 431.093664 
L 431.036928 430.542732 
L 431.391744 430.063463 
L 431.617536 429.786291 
L 432.681984 427.857839 
L 432.71424 427.887035 
L 432.778752 427.948839 
L 432.811008 427.900306 
L 433.8432 426.096221 
L 433.875456 426.027971 
L 434.00448 425.321959 
L 434.036736 425.450118 
L 434.068992 425.191525 
L 434.16576 425.257121 
L 434.359296 424.769131 
L 435.456 422.133151 
L 435.61728 421.953425 
L 435.714048 421.275092 
L 435.746304 421.283055 
L 435.93984 421.316801 
L 436.036608 421.207221 
L 437.197824 419.243507 
L 437.294592 418.622808 
L 437.326848 418.659966 
L 437.520384 418.707742 
L 437.71392 418.420332 
L 437.939712 417.935375 
L 438.939648 416.518801 
L 438.971904 416.518422 
L 439.133184 416.305708 
L 439.455744 415.825302 
L 439.552512 415.939052 
L 439.681536 416.046357 
L 439.778304 416.421355 
L 439.875072 417.749962 
L 440.358912 439.068377 
L 441.358848 439.130788 
L 444.358656 439.165975 
L 445.036032 438.591648 
L 445.874688 438.217333 
L 446.90688 438.007994 
L 448.51968 437.924728 
L 452.454912 438.026194 
L 465.067008 438.330818 
L 468.453888 438.388906 
L 470.195712 438.52753 
L 470.873088 439.115014 
L 471.711744 439.51633 
L 472.87296 439.779075 
L 474.614784 439.914647 
L 478.808064 439.949348 
L 495.968256 440.031996 
L 496.000512 440.347995 
L 496.25856 430.800187 
L 496.484352 428.761777 
L 496.613376 425.481968 
L 496.774656 414.814059 
L 497.161728 376.926771 
L 497.193984 376.938146 
L 498.322944 377.453816 
L 501.806592 378.97049 
L 503.870976 379.816036 
L 505.419264 380.422706 
L 516.676608 384.278851 
L 516.999168 384.38881 
L 517.676544 384.578394 
L 518.289408 384.745228 
L 519.869952 385.188856 
L 520.28928 385.298814 
L 521.708544 385.681775 
L 522.127872 385.791734 
L 522.934272 385.992693 
L 523.482624 386.132985 
L 524.418048 386.349112 
L 525.417984 386.587988 
L 526.353408 386.804114 
L 527.159808 386.970948 
L 531.191808 387.805119 
L 531.707904 387.915078 
L 533.19168 388.191871 
L 533.67552 388.298038 
L 534.32064 388.407997 
L 536.223744 388.737874 
L 536.804352 388.828874 
L 537.417216 388.938833 
L 540.288 389.378669 
L 540.642816 389.435544 
L 541.384704 389.545503 
L 558.157824 391.407221 
L 559.190016 391.51718 
L 561.447936 391.672639 
L 562.673664 391.782598 
L 564.931584 391.938057 
L 566.544384 392.048016 
L 568.479744 392.165558 
L 570.1248 392.275517 
L 571.705344 392.351351 
L 573.479424 392.449935 
L 573.769728 392.465102 
L 575.737344 392.57506 
L 576.608256 392.601602 
L 576.640512 392.84427 
L 576.705024 392.586436 
L 576.89856 392.612977 
L 578.9952 392.715353 
L 579.285504 392.734311 
L 581.930496 392.84427 
L 583.18848 392.882187 
L 585.672192 392.980771 
L 585.962496 392.995938 
L 589.091328 393.105897 
L 589.575168 393.109688 
L 592.833024 393.208272 
L 593.123328 393.223439 
L 597.090816 393.322023 
L 597.38112 393.337189 
L 602.05824 393.447148 
L 603.02592 393.454732 
L 603.83232 393.462315 
L 604.219392 393.488857 
L 610.186752 393.598816 
L 611.154432 393.602607 
L 616.992768 393.659483 
L 617.121792 393.682233 
L 618.02496 393.678441 
L 618.444288 393.716358 
L 657.248256 393.731525 
L 657.280512 393.860442 
L 657.345024 393.686025 
L 657.635328 393.708775 
L 737.888256 393.712566 
L 737.920512 393.905942 
L 737.985024 393.712566 
L 738.17856 393.693608 
L 739.30752 393.716358 
L 818.528256 393.712566 
L 818.560512 393.905942 
L 818.625024 393.712566 
L 818.81856 393.693608 
L 819.94752 393.716358 
L 899.168256 393.712566 
L 899.200512 393.905942 
L 899.265024 393.712566 
L 899.45856 393.693608 
L 900.58752 393.716358 
L 947.52 393.716358 
L 947.52 393.716358 
" clip-path="url(#p63f09cabb0)" style="fill: none; stroke: #ff00ff; stroke-width: 2; stroke-linecap: square"/>
   </g>
   <g id="patch_22">
    <path d="M 100.8 465.442759 
L 100.8 372.711724 
" style="fill: none; stroke: #bcbcbc; stroke-width: 0.8; stroke-linejoin: miter; stroke-linecap: square"/>
   </g>
   <g id="patch_23">
    <path d="M 987.84 465.442759 
L 987.84 372.711724 
" style="fill: none; stroke: #bcbcbc; stroke-width: 0.8; stroke-linejoin: miter; stroke-linecap: square"/>
   </g>
   <g id="patch_24">
    <path d="M 100.8 465.442759 
L 987.84 465.442759 
" style="fill: none; stroke: #bcbcbc; stroke-width: 0.8; stroke-linejoin: miter; stroke-linecap: square"/>
   </g>
   <g id="patch_25">
    <path d="M 100.8 372.711724 
L 987.84 372.711724 
" style="fill: none; stroke: #bcbcbc; stroke-width: 0.8; stroke-linejoin: miter; stroke-linecap: square"/>
   </g>
  </g>
  <g id="axes_5">
   <g id="patch_26">
    <path d="M 100.8 576.72 
L 987.84 576.72 
L 987.84 483.988966 
L 100.8 483.988966 
z
" style="fill: #eeeeee"/>
   </g>
   <g id="matplotlib.axis_9">
    <g id="xtick_25">
     <g id="line2d_71">
      <path d="M 141.12 576.72 
L 141.12 483.988966 
" clip-path="url(#p89be00f960)" style="fill: none; stroke-dasharray: 1.85,0.8; stroke-dashoffset: 0; stroke: #b2b2b2; stroke-width: 0.5"/>
     </g>
     <g id="line2d_72">
      <g>
       <use xlink:href="#m0562d65ab0" x="141.12" y="576.72" style="stroke: #000000; stroke-width: 0.8"/>
      </g>
     </g>
     <g id="text_14">
      <!-- 0 s -->
      <g transform="translate(130.795 590.857813) scale(0.14 -0.14)">
       <defs>
        <path id="DejaVuSans-73" d="M 2834 3397 
L 2834 2853 
Q 2591 2978 2328 3040 
Q 2066 3103 1784 3103 
Q 1356 3103 1142 2972 
Q 928 2841 928 2578 
Q 928 2378 1081 2264 
Q 1234 2150 1697 2047 
L 1894 2003 
Q 2506 1872 2764 1633 
Q 3022 1394 3022 966 
Q 3022 478 2636 193 
Q 2250 -91 1575 -91 
Q 1294 -91 989 -36 
Q 684 19 347 128 
L 347 722 
Q 666 556 975 473 
Q 1284 391 1588 391 
Q 1994 391 2212 530 
Q 2431 669 2431 922 
Q 2431 1156 2273 1281 
Q 2116 1406 1581 1522 
L 1381 1569 
Q 847 1681 609 1914 
Q 372 2147 372 2553 
Q 372 3047 722 3315 
Q 1072 3584 1716 3584 
Q 2034 3584 2315 3537 
Q 2597 3491 2834 3397 
z
" transform="scale(0.015625)"/>
       </defs>
       <use xlink:href="#DejaVuSans-30"/>
       <use xlink:href="#DejaVuSans-20" x="63.623047"/>
       <use xlink:href="#DejaVuSans-73" x="95.410156"/>
      </g>
     </g>
    </g>
    <g id="xtick_26">
     <g id="line2d_73">
      <path d="M 302.4 576.72 
L 302.4 483.988966 
" clip-path="url(#p89be00f960)" style="fill: none; stroke-dasharray: 1.85,0.8; stroke-dashoffset: 0; stroke: #b2b2b2; stroke-width: 0.5"/>
     </g>
     <g id="line2d_74">
      <g>
       <use xlink:href="#m0562d65ab0" x="302.4" y="576.72" style="stroke: #000000; stroke-width: 0.8"/>
      </g>
     </g>
     <g id="text_15">
      <!-- 50 ns -->
      <g transform="translate(283.185 590.857813) scale(0.14 -0.14)">
       <defs>
        <path id="DejaVuSans-35" d="M 691 4666 
L 3169 4666 
L 3169 4134 
L 1269 4134 
L 1269 2991 
Q 1406 3038 1543 3061 
Q 1681 3084 1819 3084 
Q 2600 3084 3056 2656 
Q 3513 2228 3513 1497 
Q 3513 744 3044 326 
Q 2575 -91 1722 -91 
Q 1428 -91 1123 -41 
Q 819 9 494 109 
L 494 744 
Q 775 591 1075 516 
Q 1375 441 1709 441 
Q 2250 441 2565 725 
Q 2881 1009 2881 1497 
Q 2881 1984 2565 2268 
Q 2250 2553 1709 2553 
Q 1456 2553 1204 2497 
Q 953 2441 691 2322 
L 691 4666 
z
" transform="scale(0.015625)"/>
        <path id="DejaVuSans-6e" d="M 3513 2113 
L 3513 0 
L 2938 0 
L 2938 2094 
Q 2938 2591 2744 2837 
Q 2550 3084 2163 3084 
Q 1697 3084 1428 2787 
Q 1159 2491 1159 1978 
L 1159 0 
L 581 0 
L 581 3500 
L 1159 3500 
L 1159 2956 
Q 1366 3272 1645 3428 
Q 1925 3584 2291 3584 
Q 2894 3584 3203 3211 
Q 3513 2838 3513 2113 
z
" transform="scale(0.015625)"/>
       </defs>
       <use xlink:href="#DejaVuSans-35"/>
       <use xlink:href="#DejaVuSans-30" x="63.623047"/>
       <use xlink:href="#DejaVuSans-20" x="127.246094"/>
       <use xlink:href="#DejaVuSans-6e" x="159.033203"/>
       <use xlink:href="#DejaVuSans-73" x="222.412109"/>
      </g>
     </g>
    </g>
    <g id="xtick_27">
     <g id="line2d_75">
      <path d="M 463.68 576.72 
L 463.68 483.988966 
" clip-path="url(#p89be00f960)" style="fill: none; stroke-dasharray: 1.85,0.8; stroke-dashoffset: 0; stroke: #b2b2b2; stroke-width: 0.5"/>
     </g>
     <g id="line2d_76">
      <g>
       <use xlink:href="#m0562d65ab0" x="463.68" y="576.72" style="stroke: #000000; stroke-width: 0.8"/>
      </g>
     </g>
     <g id="text_16">
      <!-- 100 ns -->
      <g transform="translate(440.01125 590.857813) scale(0.14 -0.14)">
       <use xlink:href="#DejaVuSans-31"/>
       <use xlink:href="#DejaVuSans-30" x="63.623047"/>
       <use xlink:href="#DejaVuSans-30" x="127.246094"/>
       <use xlink:href="#DejaVuSans-20" x="190.869141"/>
       <use xlink:href="#DejaVuSans-6e" x="222.65625"/>
       <use xlink:href="#DejaVuSans-73" x="286.035156"/>
      </g>
     </g>
    </g>
    <g id="xtick_28">
     <g id="line2d_77">
      <path d="M 624.96 576.72 
L 624.96 483.988966 
" clip-path="url(#p89be00f960)" style="fill: none; stroke-dasharray: 1.85,0.8; stroke-dashoffset: 0; stroke: #b2b2b2; stroke-width: 0.5"/>
     </g>
     <g id="line2d_78">
      <g>
       <use xlink:href="#m0562d65ab0" x="624.96" y="576.72" style="stroke: #000000; stroke-width: 0.8"/>
      </g>
     </g>
     <g id="text_17">
      <!-- 150 ns -->
      <g transform="translate(601.29125 590.857813) scale(0.14 -0.14)">
       <use xlink:href="#DejaVuSans-31"/>
       <use xlink:href="#DejaVuSans-35" x="63.623047"/>
       <use xlink:href="#DejaVuSans-30" x="127.246094"/>
       <use xlink:href="#DejaVuSans-20" x="190.869141"/>
       <use xlink:href="#DejaVuSans-6e" x="222.65625"/>
       <use xlink:href="#DejaVuSans-73" x="286.035156"/>
      </g>
     </g>
    </g>
    <g id="xtick_29">
     <g id="line2d_79">
      <path d="M 786.24 576.72 
L 786.24 483.988966 
" clip-path="url(#p89be00f960)" style="fill: none; stroke-dasharray: 1.85,0.8; stroke-dashoffset: 0; stroke: #b2b2b2; stroke-width: 0.5"/>
     </g>
     <g id="line2d_80">
      <g>
       <use xlink:href="#m0562d65ab0" x="786.24" y="576.72" style="stroke: #000000; stroke-width: 0.8"/>
      </g>
     </g>
     <g id="text_18">
      <!-- 200 ns -->
      <g transform="translate(762.57125 590.857813) scale(0.14 -0.14)">
       <use xlink:href="#DejaVuSans-32"/>
       <use xlink:href="#DejaVuSans-30" x="63.623047"/>
       <use xlink:href="#DejaVuSans-30" x="127.246094"/>
       <use xlink:href="#DejaVuSans-20" x="190.869141"/>
       <use xlink:href="#DejaVuSans-6e" x="222.65625"/>
       <use xlink:href="#DejaVuSans-73" x="286.035156"/>
      </g>
     </g>
    </g>
    <g id="xtick_30">
     <g id="line2d_81">
      <path d="M 947.52 576.72 
L 947.52 483.988966 
" clip-path="url(#p89be00f960)" style="fill: none; stroke-dasharray: 1.85,0.8; stroke-dashoffset: 0; stroke: #b2b2b2; stroke-width: 0.5"/>
     </g>
     <g id="line2d_82">
      <g>
       <use xlink:href="#m0562d65ab0" x="947.52" y="576.72" style="stroke: #000000; stroke-width: 0.8"/>
      </g>
     </g>
     <g id="text_19">
      <!-- 250 ns -->
      <g transform="translate(923.85125 590.857813) scale(0.14 -0.14)">
       <use xlink:href="#DejaVuSans-32"/>
       <use xlink:href="#DejaVuSans-35" x="63.623047"/>
       <use xlink:href="#DejaVuSans-30" x="127.246094"/>
       <use xlink:href="#DejaVuSans-20" x="190.869141"/>
       <use xlink:href="#DejaVuSans-6e" x="222.65625"/>
       <use xlink:href="#DejaVuSans-73" x="286.035156"/>
      </g>
     </g>
    </g>
    <g id="text_20">
     <!-- Time -->
     <g transform="translate(527.192969 608.407187) scale(0.14 -0.14)">
      <defs>
       <path id="DejaVuSans-69" d="M 603 3500 
L 1178 3500 
L 1178 0 
L 603 0 
L 603 3500 
z
M 603 4863 
L 1178 4863 
L 1178 4134 
L 603 4134 
L 603 4863 
z
" transform="scale(0.015625)"/>
       <path id="DejaVuSans-6d" d="M 3328 2828 
Q 3544 3216 3844 3400 
Q 4144 3584 4550 3584 
Q 5097 3584 5394 3201 
Q 5691 2819 5691 2113 
L 5691 0 
L 5113 0 
L 5113 2094 
Q 5113 2597 4934 2840 
Q 4756 3084 4391 3084 
Q 3944 3084 3684 2787 
Q 3425 2491 3425 1978 
L 3425 0 
L 2847 0 
L 2847 2094 
Q 2847 2600 2669 2842 
Q 2491 3084 2119 3084 
Q 1678 3084 1418 2786 
Q 1159 2488 1159 1978 
L 1159 0 
L 581 0 
L 581 3500 
L 1159 3500 
L 1159 2956 
Q 1356 3278 1631 3431 
Q 1906 3584 2284 3584 
Q 2666 3584 2933 3390 
Q 3200 3197 3328 2828 
z
" transform="scale(0.015625)"/>
       <path id="DejaVuSans-65" d="M 3597 1894 
L 3597 1613 
L 953 1613 
Q 991 1019 1311 708 
Q 1631 397 2203 397 
Q 2534 397 2845 478 
Q 3156 559 3463 722 
L 3463 178 
Q 3153 47 2828 -22 
Q 2503 -91 2169 -91 
Q 1331 -91 842 396 
Q 353 884 353 1716 
Q 353 2575 817 3079 
Q 1281 3584 2069 3584 
Q 2775 3584 3186 3129 
Q 3597 2675 3597 1894 
z
M 3022 2063 
Q 3016 2534 2758 2815 
Q 2500 3097 2075 3097 
Q 1594 3097 1305 2825 
Q 1016 2553 972 2059 
L 3022 2063 
z
" transform="scale(0.015625)"/>
      </defs>
      <use xlink:href="#DejaVuSans-54"/>
      <use xlink:href="#DejaVuSans-69" x="57.958984"/>
      <use xlink:href="#DejaVuSans-6d" x="85.742188"/>
      <use xlink:href="#DejaVuSans-65" x="183.154297"/>
     </g>
    </g>
   </g>
   <g id="matplotlib.axis_10">
    <g id="ytick_10">
     <g id="line2d_83">
      <path d="M 100.8 569.737898 
L 987.84 569.737898 
" clip-path="url(#p89be00f960)" style="fill: none; stroke-dasharray: 1.85,0.8; stroke-dashoffset: 0; stroke: #b2b2b2; stroke-width: 0.5"/>
     </g>
     <g id="line2d_84">
      <g>
       <use xlink:href="#m86d3a533fc" x="100.8" y="569.737898" style="stroke: #000000; stroke-width: 0.8"/>
      </g>
     </g>
     <g id="text_21">
      <!-- 0 V -->
      <g transform="translate(74.36625 575.056805) scale(0.14 -0.14)">
       <use xlink:href="#DejaVuSans-30"/>
       <use xlink:href="#DejaVuSans-20" x="63.623047"/>
       <use xlink:href="#DejaVuSans-56" x="95.410156"/>
      </g>
     </g>
    </g>
    <g id="ytick_11">
     <g id="line2d_85">
      <path d="M 100.8 535.84453 
L 987.84 535.84453 
" clip-path="url(#p89be00f960)" style="fill: none; stroke-dasharray: 1.85,0.8; stroke-dashoffset: 0; stroke: #b2b2b2; stroke-width: 0.5"/>
     </g>
     <g id="line2d_86">
      <g>
       <use xlink:href="#m86d3a533fc" x="100.8" y="535.84453" style="stroke: #000000; stroke-width: 0.8"/>
      </g>
     </g>
     <g id="text_22">
      <!-- 500 mV -->
      <g transform="translate(42.914375 541.163437) scale(0.14 -0.14)">
       <use xlink:href="#DejaVuSans-35"/>
       <use xlink:href="#DejaVuSans-30" x="63.623047"/>
       <use xlink:href="#DejaVuSans-30" x="127.246094"/>
       <use xlink:href="#DejaVuSans-20" x="190.869141"/>
       <use xlink:href="#DejaVuSans-6d" x="222.65625"/>
       <use xlink:href="#DejaVuSans-56" x="320.068359"/>
      </g>
     </g>
    </g>
    <g id="ytick_12">
     <g id="line2d_87">
      <path d="M 100.8 501.951163 
L 987.84 501.951163 
" clip-path="url(#p89be00f960)" style="fill: none; stroke-dasharray: 1.85,0.8; stroke-dashoffset: 0; stroke: #b2b2b2; stroke-width: 0.5"/>
     </g>
     <g id="line2d_88">
      <g>
       <use xlink:href="#m86d3a533fc" x="100.8" y="501.951163" style="stroke: #000000; stroke-width: 0.8"/>
      </g>
     </g>
     <g id="text_23">
      <!-- 1 V -->
      <g transform="translate(74.36625 507.270069) scale(0.14 -0.14)">
       <use xlink:href="#DejaVuSans-31"/>
       <use xlink:href="#DejaVuSans-20" x="63.623047"/>
       <use xlink:href="#DejaVuSans-56" x="95.410156"/>
      </g>
     </g>
    </g>
    <g id="text_24">
     <g id="patch_27">
      <path d="M 34.8768 554.329483 
L 34.8768 506.379483 
L 11.247425 506.379483 
L 11.247425 554.329483 
z
" style="fill: #ffff00; opacity: 0.2; stroke: #eeeeee; stroke-width: 0.5; stroke-linejoin: miter"/>
     </g>
     <!-- FOUT -->
     <g transform="translate(26.925238 549.289483) rotate(-90) scale(0.14 -0.14)">
      <use xlink:href="#DejaVuSans-46"/>
      <use xlink:href="#DejaVuSans-4f" x="57.519531"/>
      <use xlink:href="#DejaVuSans-55" x="136.230469"/>
      <use xlink:href="#DejaVuSans-54" x="209.423828"/>
     </g>
    </g>
   </g>
   <g id="line2d_89">
    <path d="M 141.12 488.393815 
L 173.472768 488.400594 
L 173.505024 488.204013 
L 173.569536 526.657394 
L 173.69856 572.504953 
L 173.730816 572.369108 
L 173.827584 567.828617 
L 173.892096 569.351799 
L 174.053376 570.057126 
L 174.117888 569.939259 
L 174.408192 569.483332 
L 174.440448 569.532932 
L 174.66624 569.721921 
L 176.182272 569.732147 
L 180.085248 569.753796 
L 193.568256 569.74419 
L 212.8896 569.73602 
L 255.30624 569.735711 
L 255.6288 488.285357 
L 255.854592 488.427709 
L 256.209408 488.387037 
L 334.849536 488.407373 
L 334.881792 492.623708 
L 335.043072 572.18283 
L 335.107584 570.254711 
L 335.172096 568.326579 
L 335.236608 568.859586 
L 335.365632 570.778018 
L 335.430144 570.404018 
L 335.591424 569.789374 
L 335.881728 569.64017 
L 336.559104 569.810146 
L 337.107456 569.738156 
L 349.9776 569.736214 
L 437.778432 569.810261 
L 437.810688 568.58688 
L 437.907456 525.079319 
L 438.068736 488.597176 
L 438.230016 488.400594 
L 438.778368 488.393815 
L 439.842816 488.393815 
L 439.907328 503.98951 
L 440.100864 571.984622 
L 440.165376 569.721552 
L 440.423424 569.736217 
L 496.774656 569.716856 
L 496.806912 568.758719 
L 497.097216 488.42093 
L 497.419776 488.393815 
L 947.52 488.393815 
L 947.52 488.393815 
" clip-path="url(#p89be00f960)" style="fill: none; stroke: #ff00ff; stroke-width: 2; stroke-linecap: square"/>
   </g>
   <g id="patch_28">
    <path d="M 100.8 576.72 
L 100.8 483.988966 
" style="fill: none; stroke: #bcbcbc; stroke-width: 0.8; stroke-linejoin: miter; stroke-linecap: square"/>
   </g>
   <g id="patch_29">
    <path d="M 987.84 576.72 
L 987.84 483.988966 
" style="fill: none; stroke: #bcbcbc; stroke-width: 0.8; stroke-linejoin: miter; stroke-linecap: square"/>
   </g>
   <g id="patch_30">
    <path d="M 100.8 576.72 
L 987.84 576.72 
" style="fill: none; stroke: #bcbcbc; stroke-width: 0.8; stroke-linejoin: miter; stroke-linecap: square"/>
   </g>
   <g id="patch_31">
    <path d="M 100.8 483.988966 
L 987.84 483.988966 
" style="fill: none; stroke: #bcbcbc; stroke-width: 0.8; stroke-linejoin: miter; stroke-linecap: square"/>
   </g>
  </g>
  <g id="axes_6">
   <g id="patch_32">
    <path d="M 201.6 628.56 
L 856.8 628.56 
L 856.8 615.6 
L 201.6 615.6 
z
" clip-path="url(#p3f43caa37a)" style="fill: #d3d3d3"/>
   </g>
   <g id="patch_33">
    <path d="M 201.6 628.56 
L 473.04 628.56 
L 473.04 615.6 
L 201.6 615.6 
z
" clip-path="url(#p3f43caa37a)" style="fill: #0000ff"/>
   </g>
   <g id="line2d_90">
    <path d="M 201.6 635.04 
L 201.6 609.12 
" clip-path="url(#pfe1213b864)" style="fill: none; stroke: #ff0000; stroke-linecap: square"/>
   </g>
   <g id="line2d_91">
    <defs>
     <path id="m1efe5d7800" d="M 0 5 
C 1.326016 5 2.597899 4.473168 3.535534 3.535534 
C 4.473168 2.597899 5 1.326016 5 0 
C 5 -1.326016 4.473168 -2.597899 3.535534 -3.535534 
C 2.597899 -4.473168 1.326016 -5 0 -5 
C -1.326016 -5 -2.597899 -4.473168 -3.535534 -3.535534 
C -4.473168 -2.597899 -5 -1.326016 -5 0 
C -5 1.326016 -4.473168 2.597899 -3.535534 3.535534 
C -2.597899 4.473168 -1.326016 5 0 5 
z
" style="stroke: #bfbfbf"/>
    </defs>
    <g>
     <use xlink:href="#m1efe5d7800" x="473.04" y="622.08" style="fill: #ffffff; stroke: #bfbfbf"/>
    </g>
   </g>
   <g id="text_25">
    <!-- #Sweep -->
    <g transform="translate(138.622875 625.39125) scale(0.12 -0.12)">
     <defs>
      <path id="DejaVuSans-23" d="M 3272 2816 
L 2363 2816 
L 2100 1772 
L 3016 1772 
L 3272 2816 
z
M 2803 4594 
L 2478 3297 
L 3391 3297 
L 3719 4594 
L 4219 4594 
L 3897 3297 
L 4872 3297 
L 4872 2816 
L 3775 2816 
L 3519 1772 
L 4513 1772 
L 4513 1294 
L 3397 1294 
L 3072 0 
L 2572 0 
L 2894 1294 
L 1978 1294 
L 1656 0 
L 1153 0 
L 1478 1294 
L 494 1294 
L 494 1772 
L 1594 1772 
L 1856 2816 
L 850 2816 
L 850 3297 
L 1978 3297 
L 2297 4594 
L 2803 4594 
z
" transform="scale(0.015625)"/>
      <path id="DejaVuSans-77" d="M 269 3500 
L 844 3500 
L 1563 769 
L 2278 3500 
L 2956 3500 
L 3675 769 
L 4391 3500 
L 4966 3500 
L 4050 0 
L 3372 0 
L 2619 2869 
L 1863 0 
L 1184 0 
L 269 3500 
z
" transform="scale(0.015625)"/>
      <path id="DejaVuSans-70" d="M 1159 525 
L 1159 -1331 
L 581 -1331 
L 581 3500 
L 1159 3500 
L 1159 2969 
Q 1341 3281 1617 3432 
Q 1894 3584 2278 3584 
Q 2916 3584 3314 3078 
Q 3713 2572 3713 1747 
Q 3713 922 3314 415 
Q 2916 -91 2278 -91 
Q 1894 -91 1617 61 
Q 1341 213 1159 525 
z
M 3116 1747 
Q 3116 2381 2855 2742 
Q 2594 3103 2138 3103 
Q 1681 3103 1420 2742 
Q 1159 2381 1159 1747 
Q 1159 1113 1420 752 
Q 1681 391 2138 391 
Q 2594 391 2855 752 
Q 3116 1113 3116 1747 
z
" transform="scale(0.015625)"/>
     </defs>
     <use xlink:href="#DejaVuSans-23"/>
     <use xlink:href="#DejaVuSans-53" x="83.789062"/>
     <use xlink:href="#DejaVuSans-77" x="147.265625"/>
     <use xlink:href="#DejaVuSans-65" x="229.052734"/>
     <use xlink:href="#DejaVuSans-65" x="290.576172"/>
     <use xlink:href="#DejaVuSans-70" x="352.099609"/>
    </g>
   </g>
   <g id="text_26">
    <!-- $\mathdefault{58}$ -->
    <g transform="translate(869.904 625.39125) scale(0.12 -0.12)">
     <defs>
      <path id="DejaVuSans-38" d="M 2034 2216 
Q 1584 2216 1326 1975 
Q 1069 1734 1069 1313 
Q 1069 891 1326 650 
Q 1584 409 2034 409 
Q 2484 409 2743 651 
Q 3003 894 3003 1313 
Q 3003 1734 2745 1975 
Q 2488 2216 2034 2216 
z
M 1403 2484 
Q 997 2584 770 2862 
Q 544 3141 544 3541 
Q 544 4100 942 4425 
Q 1341 4750 2034 4750 
Q 2731 4750 3128 4425 
Q 3525 4100 3525 3541 
Q 3525 3141 3298 2862 
Q 3072 2584 2669 2484 
Q 3125 2378 3379 2068 
Q 3634 1759 3634 1313 
Q 3634 634 3220 271 
Q 2806 -91 2034 -91 
Q 1263 -91 848 271 
Q 434 634 434 1313 
Q 434 1759 690 2068 
Q 947 2378 1403 2484 
z
M 1172 3481 
Q 1172 3119 1398 2916 
Q 1625 2713 2034 2713 
Q 2441 2713 2670 2916 
Q 2900 3119 2900 3481 
Q 2900 3844 2670 4047 
Q 2441 4250 2034 4250 
Q 1625 4250 1398 4047 
Q 1172 3844 1172 3481 
z
" transform="scale(0.015625)"/>
     </defs>
     <use xlink:href="#DejaVuSans-35" transform="translate(0 0.78125)"/>
     <use xlink:href="#DejaVuSans-38" transform="translate(63.623047 0.78125)"/>
    </g>
   </g>
  </g>
  <g id="text_27">
   <!-- DFF under BBI sweep analysis (Sweep = 68E-9) -->
   <g transform="translate(313.34625 25.1175) scale(0.16 -0.16)">
    <defs>
     <path id="DejaVuSans-75" d="M 544 1381 
L 544 3500 
L 1119 3500 
L 1119 1403 
Q 1119 906 1312 657 
Q 1506 409 1894 409 
Q 2359 409 2629 706 
Q 2900 1003 2900 1516 
L 2900 3500 
L 3475 3500 
L 3475 0 
L 2900 0 
L 2900 538 
Q 2691 219 2414 64 
Q 2138 -91 1772 -91 
Q 1169 -91 856 284 
Q 544 659 544 1381 
z
M 1991 3584 
L 1991 3584 
z
" transform="scale(0.015625)"/>
     <path id="DejaVuSans-64" d="M 2906 2969 
L 2906 4863 
L 3481 4863 
L 3481 0 
L 2906 0 
L 2906 525 
Q 2725 213 2448 61 
Q 2172 -91 1784 -91 
Q 1150 -91 751 415 
Q 353 922 353 1747 
Q 353 2572 751 3078 
Q 1150 3584 1784 3584 
Q 2172 3584 2448 3432 
Q 2725 3281 2906 2969 
z
M 947 1747 
Q 947 1113 1208 752 
Q 1469 391 1925 391 
Q 2381 391 2643 752 
Q 2906 1113 2906 1747 
Q 2906 2381 2643 2742 
Q 2381 3103 1925 3103 
Q 1469 3103 1208 2742 
Q 947 2381 947 1747 
z
" transform="scale(0.015625)"/>
     <path id="DejaVuSans-72" d="M 2631 2963 
Q 2534 3019 2420 3045 
Q 2306 3072 2169 3072 
Q 1681 3072 1420 2755 
Q 1159 2438 1159 1844 
L 1159 0 
L 581 0 
L 581 3500 
L 1159 3500 
L 1159 2956 
Q 1341 3275 1631 3429 
Q 1922 3584 2338 3584 
Q 2397 3584 2469 3576 
Q 2541 3569 2628 3553 
L 2631 2963 
z
" transform="scale(0.015625)"/>
     <path id="DejaVuSans-61" d="M 2194 1759 
Q 1497 1759 1228 1600 
Q 959 1441 959 1056 
Q 959 750 1161 570 
Q 1363 391 1709 391 
Q 2188 391 2477 730 
Q 2766 1069 2766 1631 
L 2766 1759 
L 2194 1759 
z
M 3341 1997 
L 3341 0 
L 2766 0 
L 2766 531 
Q 2569 213 2275 61 
Q 1981 -91 1556 -91 
Q 1019 -91 701 211 
Q 384 513 384 1019 
Q 384 1609 779 1909 
Q 1175 2209 1959 2209 
L 2766 2209 
L 2766 2266 
Q 2766 2663 2505 2880 
Q 2244 3097 1772 3097 
Q 1472 3097 1187 3025 
Q 903 2953 641 2809 
L 641 3341 
Q 956 3463 1253 3523 
Q 1550 3584 1831 3584 
Q 2591 3584 2966 3190 
Q 3341 2797 3341 1997 
z
" transform="scale(0.015625)"/>
     <path id="DejaVuSans-6c" d="M 603 4863 
L 1178 4863 
L 1178 0 
L 603 0 
L 603 4863 
z
" transform="scale(0.015625)"/>
     <path id="DejaVuSans-79" d="M 2059 -325 
Q 1816 -950 1584 -1140 
Q 1353 -1331 966 -1331 
L 506 -1331 
L 506 -850 
L 844 -850 
Q 1081 -850 1212 -737 
Q 1344 -625 1503 -206 
L 1606 56 
L 191 3500 
L 800 3500 
L 1894 763 
L 2988 3500 
L 3597 3500 
L 2059 -325 
z
" transform="scale(0.015625)"/>
     <path id="DejaVuSans-28" d="M 1984 4856 
Q 1566 4138 1362 3434 
Q 1159 2731 1159 2009 
Q 1159 1288 1364 580 
Q 1569 -128 1984 -844 
L 1484 -844 
Q 1016 -109 783 600 
Q 550 1309 550 2009 
Q 550 2706 781 3412 
Q 1013 4119 1484 4856 
L 1984 4856 
z
" transform="scale(0.015625)"/>
     <path id="DejaVuSans-3d" d="M 678 2906 
L 4684 2906 
L 4684 2381 
L 678 2381 
L 678 2906 
z
M 678 1631 
L 4684 1631 
L 4684 1100 
L 678 1100 
L 678 1631 
z
" transform="scale(0.015625)"/>
     <path id="DejaVuSans-36" d="M 2113 2584 
Q 1688 2584 1439 2293 
Q 1191 2003 1191 1497 
Q 1191 994 1439 701 
Q 1688 409 2113 409 
Q 2538 409 2786 701 
Q 3034 994 3034 1497 
Q 3034 2003 2786 2293 
Q 2538 2584 2113 2584 
z
M 3366 4563 
L 3366 3988 
Q 3128 4100 2886 4159 
Q 2644 4219 2406 4219 
Q 1781 4219 1451 3797 
Q 1122 3375 1075 2522 
Q 1259 2794 1537 2939 
Q 1816 3084 2150 3084 
Q 2853 3084 3261 2657 
Q 3669 2231 3669 1497 
Q 3669 778 3244 343 
Q 2819 -91 2113 -91 
Q 1303 -91 875 529 
Q 447 1150 447 2328 
Q 447 3434 972 4092 
Q 1497 4750 2381 4750 
Q 2619 4750 2861 4703 
Q 3103 4656 3366 4563 
z
" transform="scale(0.015625)"/>
     <path id="DejaVuSans-2d" d="M 313 2009 
L 1997 2009 
L 1997 1497 
L 313 1497 
L 313 2009 
z
" transform="scale(0.015625)"/>
     <path id="DejaVuSans-39" d="M 703 97 
L 703 672 
Q 941 559 1184 500 
Q 1428 441 1663 441 
Q 2288 441 2617 861 
Q 2947 1281 2994 2138 
Q 2813 1869 2534 1725 
Q 2256 1581 1919 1581 
Q 1219 1581 811 2004 
Q 403 2428 403 3163 
Q 403 3881 828 4315 
Q 1253 4750 1959 4750 
Q 2769 4750 3195 4129 
Q 3622 3509 3622 2328 
Q 3622 1225 3098 567 
Q 2575 -91 1691 -91 
Q 1453 -91 1209 -44 
Q 966 3 703 97 
z
M 1959 2075 
Q 2384 2075 2632 2365 
Q 2881 2656 2881 3163 
Q 2881 3666 2632 3958 
Q 2384 4250 1959 4250 
Q 1534 4250 1286 3958 
Q 1038 3666 1038 3163 
Q 1038 2656 1286 2365 
Q 1534 2075 1959 2075 
z
" transform="scale(0.015625)"/>
     <path id="DejaVuSans-29" d="M 513 4856 
L 1013 4856 
Q 1481 4119 1714 3412 
Q 1947 2706 1947 2009 
Q 1947 1309 1714 600 
Q 1481 -109 1013 -844 
L 513 -844 
Q 928 -128 1133 580 
Q 1338 1288 1338 2009 
Q 1338 2731 1133 3434 
Q 928 4138 513 4856 
z
" transform="scale(0.015625)"/>
    </defs>
    <use xlink:href="#DejaVuSans-44"/>
    <use xlink:href="#DejaVuSans-46" x="77.001953"/>
    <use xlink:href="#DejaVuSans-46" x="134.521484"/>
    <use xlink:href="#DejaVuSans-20" x="192.041016"/>
    <use xlink:href="#DejaVuSans-75" x="223.828125"/>
    <use xlink:href="#DejaVuSans-6e" x="287.207031"/>
    <use xlink:href="#DejaVuSans-64" x="350.585938"/>
    <use xlink:href="#DejaVuSans-65" x="414.0625"/>
    <use xlink:href="#DejaVuSans-72" x="475.585938"/>
    <use xlink:href="#DejaVuSans-20" x="516.699219"/>
    <use xlink:href="#DejaVuSans-42" x="548.486328"/>
    <use xlink:href="#DejaVuSans-42" x="617.089844"/>
    <use xlink:href="#DejaVuSans-49" x="685.693359"/>
    <use xlink:href="#DejaVuSans-20" x="715.185547"/>
    <use xlink:href="#DejaVuSans-73" x="746.972656"/>
    <use xlink:href="#DejaVuSans-77" x="799.072266"/>
    <use xlink:href="#DejaVuSans-65" x="880.859375"/>
    <use xlink:href="#DejaVuSans-65" x="942.382812"/>
    <use xlink:href="#DejaVuSans-70" x="1003.90625"/>
    <use xlink:href="#DejaVuSans-20" x="1067.382812"/>
    <use xlink:href="#DejaVuSans-61" x="1099.169922"/>
    <use xlink:href="#DejaVuSans-6e" x="1160.449219"/>
    <use xlink:href="#DejaVuSans-61" x="1223.828125"/>
    <use xlink:href="#DejaVuSans-6c" x="1285.107422"/>
    <use xlink:href="#DejaVuSans-79" x="1312.890625"/>
    <use xlink:href="#DejaVuSans-73" x="1372.070312"/>
    <use xlink:href="#DejaVuSans-69" x="1424.169922"/>
    <use xlink:href="#DejaVuSans-73" x="1451.953125"/>
    <use xlink:href="#DejaVuSans-20" x="1504.052734"/>
    <use xlink:href="#DejaVuSans-28" x="1535.839844"/>
    <use xlink:href="#DejaVuSans-53" x="1574.853516"/>
    <use xlink:href="#DejaVuSans-77" x="1638.330078"/>
    <use xlink:href="#DejaVuSans-65" x="1720.117188"/>
    <use xlink:href="#DejaVuSans-65" x="1781.640625"/>
    <use xlink:href="#DejaVuSans-70" x="1843.164062"/>
    <use xlink:href="#DejaVuSans-20" x="1906.640625"/>
    <use xlink:href="#DejaVuSans-3d" x="1938.427734"/>
    <use xlink:href="#DejaVuSans-20" x="2022.216797"/>
    <use xlink:href="#DejaVuSans-36" x="2054.003906"/>
    <use xlink:href="#DejaVuSans-38" x="2117.626953"/>
    <use xlink:href="#DejaVuSans-45" x="2181.25"/>
    <use xlink:href="#DejaVuSans-2d" x="2244.433594"/>
    <use xlink:href="#DejaVuSans-39" x="2280.517578"/>
    <use xlink:href="#DejaVuSans-29" x="2344.140625"/>
   </g>
  </g>
 </g>
 <defs>
  <clipPath id="p729b2999d2">
   <rect x="100.8" y="38.88" width="887.04" height="92.731034"/>
  </clipPath>
  <clipPath id="p11fb2f135e">
   <rect x="100.8" y="150.157241" width="887.04" height="92.731034"/>
  </clipPath>
  <clipPath id="p88cde486f5">
   <rect x="100.8" y="261.434483" width="887.04" height="92.731034"/>
  </clipPath>
  <clipPath id="p63f09cabb0">
   <rect x="100.8" y="372.711724" width="887.04" height="92.731034"/>
  </clipPath>
  <clipPath id="p89be00f960">
   <rect x="100.8" y="483.988966" width="887.04" height="92.731034"/>
  </clipPath>
  <clipPath id="p3f43caa37a">
   <rect x="201.6" y="609.12" width="655.2" height="25.92"/>
  </clipPath>
  <clipPath id="pfe1213b864">
   <path d="M 201.6 628.56 
L 856.8 628.56 
L 856.8 615.6 
L 201.6 615.6 
z
"/>
  </clipPath>
 </defs>
</svg>
