<?xml version="1.0" encoding="utf-8" standalone="no"?>
<!DOCTYPE svg PUBLIC "-//W3C//DTD SVG 1.1//EN"
  "http://www.w3.org/Graphics/SVG/1.1/DTD/svg11.dtd">
<svg xmlns:xlink="http://www.w3.org/1999/xlink" width="1008pt" height="648pt" viewBox="0 0 1008 648" xmlns="http://www.w3.org/2000/svg" version="1.1">
 <metadata>
  <rdf:RDF xmlns:dc="http://purl.org/dc/elements/1.1/" xmlns:cc="http://creativecommons.org/ns#" xmlns:rdf="http://www.w3.org/1999/02/22-rdf-syntax-ns#">
   <cc:Work>
    <dc:type rdf:resource="http://purl.org/dc/dcmitype/StillImage"/>
    <dc:date>2024-06-03T10:45:41.518638</dc:date>
    <dc:format>image/svg+xml</dc:format>
    <dc:creator>
     <cc:Agent>
      <dc:title>Matplotlib v3.9.0, https://matplotlib.org/</dc:title>
     </cc:Agent>
    </dc:creator>
   </cc:Work>
  </rdf:RDF>
 </metadata>
 <defs>
  <style type="text/css">*{stroke-linejoin: round; stroke-linecap: butt}</style>
 </defs>
 <g id="figure_1">
  <g id="patch_1">
   <path d="M 0 648 
L 1008 648 
L 1008 0 
L 0 0 
z
" style="fill: #ffffff"/>
  </g>
  <g id="axes_1">
   <g id="patch_2">
    <path d="M 100.8 131.611034 
L 987.84 131.611034 
L 987.84 38.88 
L 100.8 38.88 
z
" style="fill: #eeeeee"/>
   </g>
   <g id="matplotlib.axis_1">
    <g id="xtick_1">
     <g id="line2d_1">
      <path d="M 141.12 131.611034 
L 141.12 38.88 
" clip-path="url(#p57b99beb4b)" style="fill: none; stroke-dasharray: 1.85,0.8; stroke-dashoffset: 0; stroke: #b2b2b2; stroke-width: 0.5"/>
     </g>
     <g id="line2d_2">
      <defs>
       <path id="m8ba8b0e6fb" d="M 0 0 
L 0 -3.5 
" style="stroke: #000000; stroke-width: 0.8"/>
      </defs>
      <g>
       <use xlink:href="#m8ba8b0e6fb" x="141.12" y="131.611034" style="stroke: #000000; stroke-width: 0.8"/>
      </g>
     </g>
    </g>
    <g id="xtick_2">
     <g id="line2d_3">
      <path d="M 302.4 131.611034 
L 302.4 38.88 
" clip-path="url(#p57b99beb4b)" style="fill: none; stroke-dasharray: 1.85,0.8; stroke-dashoffset: 0; stroke: #b2b2b2; stroke-width: 0.5"/>
     </g>
     <g id="line2d_4">
      <g>
       <use xlink:href="#m8ba8b0e6fb" x="302.4" y="131.611034" style="stroke: #000000; stroke-width: 0.8"/>
      </g>
     </g>
    </g>
    <g id="xtick_3">
     <g id="line2d_5">
      <path d="M 463.68 131.611034 
L 463.68 38.88 
" clip-path="url(#p57b99beb4b)" style="fill: none; stroke-dasharray: 1.85,0.8; stroke-dashoffset: 0; stroke: #b2b2b2; stroke-width: 0.5"/>
     </g>
     <g id="line2d_6">
      <g>
       <use xlink:href="#m8ba8b0e6fb" x="463.68" y="131.611034" style="stroke: #000000; stroke-width: 0.8"/>
      </g>
     </g>
    </g>
    <g id="xtick_4">
     <g id="line2d_7">
      <path d="M 624.96 131.611034 
L 624.96 38.88 
" clip-path="url(#p57b99beb4b)" style="fill: none; stroke-dasharray: 1.85,0.8; stroke-dashoffset: 0; stroke: #b2b2b2; stroke-width: 0.5"/>
     </g>
     <g id="line2d_8">
      <g>
       <use xlink:href="#m8ba8b0e6fb" x="624.96" y="131.611034" style="stroke: #000000; stroke-width: 0.8"/>
      </g>
     </g>
    </g>
    <g id="xtick_5">
     <g id="line2d_9">
      <path d="M 786.24 131.611034 
L 786.24 38.88 
" clip-path="url(#p57b99beb4b)" style="fill: none; stroke-dasharray: 1.85,0.8; stroke-dashoffset: 0; stroke: #b2b2b2; stroke-width: 0.5"/>
     </g>
     <g id="line2d_10">
      <g>
       <use xlink:href="#m8ba8b0e6fb" x="786.24" y="131.611034" style="stroke: #000000; stroke-width: 0.8"/>
      </g>
     </g>
    </g>
    <g id="xtick_6">
     <g id="line2d_11">
      <path d="M 947.52 131.611034 
L 947.52 38.88 
" clip-path="url(#p57b99beb4b)" style="fill: none; stroke-dasharray: 1.85,0.8; stroke-dashoffset: 0; stroke: #b2b2b2; stroke-width: 0.5"/>
     </g>
     <g id="line2d_12">
      <g>
       <use xlink:href="#m8ba8b0e6fb" x="947.52" y="131.611034" style="stroke: #000000; stroke-width: 0.8"/>
      </g>
     </g>
    </g>
   </g>
   <g id="matplotlib.axis_2">
    <g id="ytick_1">
     <g id="line2d_13">
      <path d="M 100.8 98.340394 
L 987.84 98.340394 
" clip-path="url(#p57b99beb4b)" style="fill: none; stroke-dasharray: 1.85,0.8; stroke-dashoffset: 0; stroke: #b2b2b2; stroke-width: 0.5"/>
     </g>
     <g id="line2d_14">
      <defs>
       <path id="me6b6d091fd" d="M 0 0 
L 3.5 0 
" style="stroke: #000000; stroke-width: 0.8"/>
      </defs>
      <g>
       <use xlink:href="#me6b6d091fd" x="100.8" y="98.340394" style="stroke: #000000; stroke-width: 0.8"/>
      </g>
     </g>
     <g id="text_1">
      <!-- −200 V -->
      <g transform="translate(44.819688 103.6593) scale(0.14 -0.14)">
       <defs>
        <path id="DejaVuSans-2212" d="M 678 2272 
L 4684 2272 
L 4684 1741 
L 678 1741 
L 678 2272 
z
" transform="scale(0.015625)"/>
        <path id="DejaVuSans-32" d="M 1228 531 
L 3431 531 
L 3431 0 
L 469 0 
L 469 531 
Q 828 903 1448 1529 
Q 2069 2156 2228 2338 
Q 2531 2678 2651 2914 
Q 2772 3150 2772 3378 
Q 2772 3750 2511 3984 
Q 2250 4219 1831 4219 
Q 1534 4219 1204 4116 
Q 875 4013 500 3803 
L 500 4441 
Q 881 4594 1212 4672 
Q 1544 4750 1819 4750 
Q 2544 4750 2975 4387 
Q 3406 4025 3406 3419 
Q 3406 3131 3298 2873 
Q 3191 2616 2906 2266 
Q 2828 2175 2409 1742 
Q 1991 1309 1228 531 
z
" transform="scale(0.015625)"/>
        <path id="DejaVuSans-30" d="M 2034 4250 
Q 1547 4250 1301 3770 
Q 1056 3291 1056 2328 
Q 1056 1369 1301 889 
Q 1547 409 2034 409 
Q 2525 409 2770 889 
Q 3016 1369 3016 2328 
Q 3016 3291 2770 3770 
Q 2525 4250 2034 4250 
z
M 2034 4750 
Q 2819 4750 3233 4129 
Q 3647 3509 3647 2328 
Q 3647 1150 3233 529 
Q 2819 -91 2034 -91 
Q 1250 -91 836 529 
Q 422 1150 422 2328 
Q 422 3509 836 4129 
Q 1250 4750 2034 4750 
z
" transform="scale(0.015625)"/>
        <path id="DejaVuSans-20" transform="scale(0.015625)"/>
        <path id="DejaVuSans-56" d="M 1831 0 
L 50 4666 
L 709 4666 
L 2188 738 
L 3669 4666 
L 4325 4666 
L 2547 0 
L 1831 0 
z
" transform="scale(0.015625)"/>
       </defs>
       <use xlink:href="#DejaVuSans-2212"/>
       <use xlink:href="#DejaVuSans-32" x="83.789062"/>
       <use xlink:href="#DejaVuSans-30" x="147.412109"/>
       <use xlink:href="#DejaVuSans-30" x="211.035156"/>
       <use xlink:href="#DejaVuSans-20" x="274.658203"/>
       <use xlink:href="#DejaVuSans-56" x="306.445312"/>
      </g>
     </g>
    </g>
    <g id="ytick_2">
     <g id="line2d_15">
      <path d="M 100.8 45.027377 
L 987.84 45.027377 
" clip-path="url(#p57b99beb4b)" style="fill: none; stroke-dasharray: 1.85,0.8; stroke-dashoffset: 0; stroke: #b2b2b2; stroke-width: 0.5"/>
     </g>
     <g id="line2d_16">
      <g>
       <use xlink:href="#me6b6d091fd" x="100.8" y="45.027377" style="stroke: #000000; stroke-width: 0.8"/>
      </g>
     </g>
     <g id="text_2">
      <!-- 0 V -->
      <g transform="translate(74.36625 50.346284) scale(0.14 -0.14)">
       <use xlink:href="#DejaVuSans-30"/>
       <use xlink:href="#DejaVuSans-20" x="63.623047"/>
       <use xlink:href="#DejaVuSans-56" x="95.410156"/>
      </g>
     </g>
    </g>
    <g id="text_3">
     <g id="patch_3">
      <path d="M 34.8768 131.080205 
L 34.8768 39.41083 
L 11.247425 39.41083 
L 11.247425 131.080205 
z
" style="fill: #ffff00; opacity: 0.2; stroke: #eeeeee; stroke-width: 0.5; stroke-linejoin: miter"/>
     </g>
     <!-- VPULSE BBI -->
     <g transform="translate(26.925238 126.040205) rotate(-90) scale(0.14 -0.14)">
      <defs>
       <path id="DejaVuSans-50" d="M 1259 4147 
L 1259 2394 
L 2053 2394 
Q 2494 2394 2734 2622 
Q 2975 2850 2975 3272 
Q 2975 3691 2734 3919 
Q 2494 4147 2053 4147 
L 1259 4147 
z
M 628 4666 
L 2053 4666 
Q 2838 4666 3239 4311 
Q 3641 3956 3641 3272 
Q 3641 2581 3239 2228 
Q 2838 1875 2053 1875 
L 1259 1875 
L 1259 0 
L 628 0 
L 628 4666 
z
" transform="scale(0.015625)"/>
       <path id="DejaVuSans-55" d="M 556 4666 
L 1191 4666 
L 1191 1831 
Q 1191 1081 1462 751 
Q 1734 422 2344 422 
Q 2950 422 3222 751 
Q 3494 1081 3494 1831 
L 3494 4666 
L 4128 4666 
L 4128 1753 
Q 4128 841 3676 375 
Q 3225 -91 2344 -91 
Q 1459 -91 1007 375 
Q 556 841 556 1753 
L 556 4666 
z
" transform="scale(0.015625)"/>
       <path id="DejaVuSans-4c" d="M 628 4666 
L 1259 4666 
L 1259 531 
L 3531 531 
L 3531 0 
L 628 0 
L 628 4666 
z
" transform="scale(0.015625)"/>
       <path id="DejaVuSans-53" d="M 3425 4513 
L 3425 3897 
Q 3066 4069 2747 4153 
Q 2428 4238 2131 4238 
Q 1616 4238 1336 4038 
Q 1056 3838 1056 3469 
Q 1056 3159 1242 3001 
Q 1428 2844 1947 2747 
L 2328 2669 
Q 3034 2534 3370 2195 
Q 3706 1856 3706 1288 
Q 3706 609 3251 259 
Q 2797 -91 1919 -91 
Q 1588 -91 1214 -16 
Q 841 59 441 206 
L 441 856 
Q 825 641 1194 531 
Q 1563 422 1919 422 
Q 2459 422 2753 634 
Q 3047 847 3047 1241 
Q 3047 1584 2836 1778 
Q 2625 1972 2144 2069 
L 1759 2144 
Q 1053 2284 737 2584 
Q 422 2884 422 3419 
Q 422 4038 858 4394 
Q 1294 4750 2059 4750 
Q 2388 4750 2728 4690 
Q 3069 4631 3425 4513 
z
" transform="scale(0.015625)"/>
       <path id="DejaVuSans-45" d="M 628 4666 
L 3578 4666 
L 3578 4134 
L 1259 4134 
L 1259 2753 
L 3481 2753 
L 3481 2222 
L 1259 2222 
L 1259 531 
L 3634 531 
L 3634 0 
L 628 0 
L 628 4666 
z
" transform="scale(0.015625)"/>
       <path id="DejaVuSans-42" d="M 1259 2228 
L 1259 519 
L 2272 519 
Q 2781 519 3026 730 
Q 3272 941 3272 1375 
Q 3272 1813 3026 2020 
Q 2781 2228 2272 2228 
L 1259 2228 
z
M 1259 4147 
L 1259 2741 
L 2194 2741 
Q 2656 2741 2882 2914 
Q 3109 3088 3109 3444 
Q 3109 3797 2882 3972 
Q 2656 4147 2194 4147 
L 1259 4147 
z
M 628 4666 
L 2241 4666 
Q 2963 4666 3353 4366 
Q 3744 4066 3744 3513 
Q 3744 3084 3544 2831 
Q 3344 2578 2956 2516 
Q 3422 2416 3680 2098 
Q 3938 1781 3938 1306 
Q 3938 681 3513 340 
Q 3088 0 2303 0 
L 628 0 
L 628 4666 
z
" transform="scale(0.015625)"/>
       <path id="DejaVuSans-49" d="M 628 4666 
L 1259 4666 
L 1259 0 
L 628 0 
L 628 4666 
z
" transform="scale(0.015625)"/>
      </defs>
      <use xlink:href="#DejaVuSans-56"/>
      <use xlink:href="#DejaVuSans-50" x="68.408203"/>
      <use xlink:href="#DejaVuSans-55" x="128.710938"/>
      <use xlink:href="#DejaVuSans-4c" x="201.904297"/>
      <use xlink:href="#DejaVuSans-53" x="257.617188"/>
      <use xlink:href="#DejaVuSans-45" x="321.09375"/>
      <use xlink:href="#DejaVuSans-20" x="384.277344"/>
      <use xlink:href="#DejaVuSans-42" x="416.064453"/>
      <use xlink:href="#DejaVuSans-42" x="484.667969"/>
      <use xlink:href="#DejaVuSans-49" x="553.271484"/>
     </g>
    </g>
   </g>
   <g id="line2d_17">
    <path d="M 141.12 45.027377 
L 373.395456 45.136282 
L 373.879296 46.425538 
L 382.104576 69.006772 
L 389.523456 89.863624 
L 391.136256 94.440546 
L 392.942592 99.673219 
L 396.42624 110.807642 
L 398.006784 115.853719 
L 399.264768 119.566971 
L 400.490496 120.153414 
L 401.329152 120.545265 
L 402.361344 121.017085 
L 402.941952 121.272988 
L 403.812864 121.656841 
L 404.393472 121.912744 
L 405.232128 122.269941 
L 406.812672 122.936354 
L 407.457792 123.202919 
L 408.554496 123.629423 
L 409.296384 123.922644 
L 410.393088 124.349149 
L 411.296256 124.677024 
L 411.973632 124.943589 
L 412.780032 125.25547 
L 414.134784 125.804594 
L 416.779776 126.790885 
L 417.39264 127.022796 
L 419.328 127.395987 
L 437.810688 127.289361 
L 438.03648 126.801547 
L 456.325632 75.087922 
L 460.067328 63.292417 
L 463.776768 51.617666 
L 468.389376 49.3412 
L 473.743872 46.984578 
L 482.452992 43.484472 
L 483.323904 43.268927 
L 497.613312 43.108189 
L 504.419328 43.184799 
L 519.773184 43.746186 
L 547.5456 44.46146 
L 573.18912 44.774399 
L 608.799744 44.945888 
L 656.828928 44.953885 
L 947.52 44.953885 
L 947.52 44.953885 
" clip-path="url(#p57b99beb4b)" style="fill: none; stroke: #ff0000; stroke-width: 2; stroke-linecap: square"/>
   </g>
   <g id="patch_4">
    <path d="M 100.8 131.611034 
L 100.8 38.88 
" style="fill: none; stroke: #bcbcbc; stroke-width: 0.8; stroke-linejoin: miter; stroke-linecap: square"/>
   </g>
   <g id="patch_5">
    <path d="M 987.84 131.611034 
L 987.84 38.88 
" style="fill: none; stroke: #bcbcbc; stroke-width: 0.8; stroke-linejoin: miter; stroke-linecap: square"/>
   </g>
   <g id="patch_6">
    <path d="M 100.8 131.611034 
L 987.84 131.611034 
" style="fill: none; stroke: #bcbcbc; stroke-width: 0.8; stroke-linejoin: miter; stroke-linecap: square"/>
   </g>
   <g id="patch_7">
    <path d="M 100.8 38.88 
L 987.84 38.88 
" style="fill: none; stroke: #bcbcbc; stroke-width: 0.8; stroke-linejoin: miter; stroke-linecap: square"/>
   </g>
  </g>
  <g id="axes_2">
   <g id="patch_8">
    <path d="M 100.8 242.888276 
L 987.84 242.888276 
L 987.84 150.157241 
L 100.8 150.157241 
z
" style="fill: #eeeeee"/>
   </g>
   <g id="matplotlib.axis_3">
    <g id="xtick_7">
     <g id="line2d_18">
      <path d="M 141.12 242.888276 
L 141.12 150.157241 
" clip-path="url(#p4de80b483f)" style="fill: none; stroke-dasharray: 1.85,0.8; stroke-dashoffset: 0; stroke: #b2b2b2; stroke-width: 0.5"/>
     </g>
     <g id="line2d_19">
      <g>
       <use xlink:href="#m8ba8b0e6fb" x="141.12" y="242.888276" style="stroke: #000000; stroke-width: 0.8"/>
      </g>
     </g>
    </g>
    <g id="xtick_8">
     <g id="line2d_20">
      <path d="M 302.4 242.888276 
L 302.4 150.157241 
" clip-path="url(#p4de80b483f)" style="fill: none; stroke-dasharray: 1.85,0.8; stroke-dashoffset: 0; stroke: #b2b2b2; stroke-width: 0.5"/>
     </g>
     <g id="line2d_21">
      <g>
       <use xlink:href="#m8ba8b0e6fb" x="302.4" y="242.888276" style="stroke: #000000; stroke-width: 0.8"/>
      </g>
     </g>
    </g>
    <g id="xtick_9">
     <g id="line2d_22">
      <path d="M 463.68 242.888276 
L 463.68 150.157241 
" clip-path="url(#p4de80b483f)" style="fill: none; stroke-dasharray: 1.85,0.8; stroke-dashoffset: 0; stroke: #b2b2b2; stroke-width: 0.5"/>
     </g>
     <g id="line2d_23">
      <g>
       <use xlink:href="#m8ba8b0e6fb" x="463.68" y="242.888276" style="stroke: #000000; stroke-width: 0.8"/>
      </g>
     </g>
    </g>
    <g id="xtick_10">
     <g id="line2d_24">
      <path d="M 624.96 242.888276 
L 624.96 150.157241 
" clip-path="url(#p4de80b483f)" style="fill: none; stroke-dasharray: 1.85,0.8; stroke-dashoffset: 0; stroke: #b2b2b2; stroke-width: 0.5"/>
     </g>
     <g id="line2d_25">
      <g>
       <use xlink:href="#m8ba8b0e6fb" x="624.96" y="242.888276" style="stroke: #000000; stroke-width: 0.8"/>
      </g>
     </g>
    </g>
    <g id="xtick_11">
     <g id="line2d_26">
      <path d="M 786.24 242.888276 
L 786.24 150.157241 
" clip-path="url(#p4de80b483f)" style="fill: none; stroke-dasharray: 1.85,0.8; stroke-dashoffset: 0; stroke: #b2b2b2; stroke-width: 0.5"/>
     </g>
     <g id="line2d_27">
      <g>
       <use xlink:href="#m8ba8b0e6fb" x="786.24" y="242.888276" style="stroke: #000000; stroke-width: 0.8"/>
      </g>
     </g>
    </g>
    <g id="xtick_12">
     <g id="line2d_28">
      <path d="M 947.52 242.888276 
L 947.52 150.157241 
" clip-path="url(#p4de80b483f)" style="fill: none; stroke-dasharray: 1.85,0.8; stroke-dashoffset: 0; stroke: #b2b2b2; stroke-width: 0.5"/>
     </g>
     <g id="line2d_29">
      <g>
       <use xlink:href="#m8ba8b0e6fb" x="947.52" y="242.888276" style="stroke: #000000; stroke-width: 0.8"/>
      </g>
     </g>
    </g>
   </g>
   <g id="matplotlib.axis_4">
    <g id="ytick_3">
     <g id="line2d_30">
      <path d="M 100.8 219.119178 
L 987.84 219.119178 
" clip-path="url(#p4de80b483f)" style="fill: none; stroke-dasharray: 1.85,0.8; stroke-dashoffset: 0; stroke: #b2b2b2; stroke-width: 0.5"/>
     </g>
     <g id="line2d_31">
      <g>
       <use xlink:href="#me6b6d091fd" x="100.8" y="219.119178" style="stroke: #000000; stroke-width: 0.8"/>
      </g>
     </g>
     <g id="text_4">
      <!-- 0 V -->
      <g transform="translate(74.36625 224.438084) scale(0.14 -0.14)">
       <use xlink:href="#DejaVuSans-30"/>
       <use xlink:href="#DejaVuSans-20" x="63.623047"/>
       <use xlink:href="#DejaVuSans-56" x="95.410156"/>
      </g>
     </g>
    </g>
    <g id="ytick_4">
     <g id="line2d_32">
      <path d="M 100.8 185.092013 
L 987.84 185.092013 
" clip-path="url(#p4de80b483f)" style="fill: none; stroke-dasharray: 1.85,0.8; stroke-dashoffset: 0; stroke: #b2b2b2; stroke-width: 0.5"/>
     </g>
     <g id="line2d_33">
      <g>
       <use xlink:href="#me6b6d091fd" x="100.8" y="185.092013" style="stroke: #000000; stroke-width: 0.8"/>
      </g>
     </g>
     <g id="text_5">
      <!-- 1 V -->
      <g transform="translate(74.36625 190.410919) scale(0.14 -0.14)">
       <defs>
        <path id="DejaVuSans-31" d="M 794 531 
L 1825 531 
L 1825 4091 
L 703 3866 
L 703 4441 
L 1819 4666 
L 2450 4666 
L 2450 531 
L 3481 531 
L 3481 0 
L 794 0 
L 794 531 
z
" transform="scale(0.015625)"/>
       </defs>
       <use xlink:href="#DejaVuSans-31"/>
       <use xlink:href="#DejaVuSans-20" x="63.623047"/>
       <use xlink:href="#DejaVuSans-56" x="95.410156"/>
      </g>
     </g>
    </g>
    <g id="ytick_5">
     <g id="line2d_34">
      <path d="M 100.8 151.064848 
L 987.84 151.064848 
" clip-path="url(#p4de80b483f)" style="fill: none; stroke-dasharray: 1.85,0.8; stroke-dashoffset: 0; stroke: #b2b2b2; stroke-width: 0.5"/>
     </g>
     <g id="line2d_35">
      <g>
       <use xlink:href="#me6b6d091fd" x="100.8" y="151.064848" style="stroke: #000000; stroke-width: 0.8"/>
      </g>
     </g>
     <g id="text_6">
      <!-- 2 V -->
      <g transform="translate(74.36625 156.383754) scale(0.14 -0.14)">
       <use xlink:href="#DejaVuSans-32"/>
       <use xlink:href="#DejaVuSans-20" x="63.623047"/>
       <use xlink:href="#DejaVuSans-56" x="95.410156"/>
      </g>
     </g>
    </g>
    <g id="text_7">
     <g id="patch_9">
      <path d="M 34.8768 224.531509 
L 34.8768 168.514009 
L 11.247425 168.514009 
L 11.247425 224.531509 
z
" style="fill: #ffff00; opacity: 0.2; stroke: #eeeeee; stroke-width: 0.5; stroke-linejoin: miter"/>
     </g>
     <!-- DFF IN -->
     <g transform="translate(26.925238 219.491509) rotate(-90) scale(0.14 -0.14)">
      <defs>
       <path id="DejaVuSans-44" d="M 1259 4147 
L 1259 519 
L 2022 519 
Q 2988 519 3436 956 
Q 3884 1394 3884 2338 
Q 3884 3275 3436 3711 
Q 2988 4147 2022 4147 
L 1259 4147 
z
M 628 4666 
L 1925 4666 
Q 3281 4666 3915 4102 
Q 4550 3538 4550 2338 
Q 4550 1131 3912 565 
Q 3275 0 1925 0 
L 628 0 
L 628 4666 
z
" transform="scale(0.015625)"/>
       <path id="DejaVuSans-46" d="M 628 4666 
L 3309 4666 
L 3309 4134 
L 1259 4134 
L 1259 2759 
L 3109 2759 
L 3109 2228 
L 1259 2228 
L 1259 0 
L 628 0 
L 628 4666 
z
" transform="scale(0.015625)"/>
       <path id="DejaVuSans-4e" d="M 628 4666 
L 1478 4666 
L 3547 763 
L 3547 4666 
L 4159 4666 
L 4159 0 
L 3309 0 
L 1241 3903 
L 1241 0 
L 628 0 
L 628 4666 
z
" transform="scale(0.015625)"/>
      </defs>
      <use xlink:href="#DejaVuSans-44"/>
      <use xlink:href="#DejaVuSans-46" x="77.001953"/>
      <use xlink:href="#DejaVuSans-46" x="134.521484"/>
      <use xlink:href="#DejaVuSans-20" x="192.041016"/>
      <use xlink:href="#DejaVuSans-49" x="223.828125"/>
      <use xlink:href="#DejaVuSans-4e" x="253.320312"/>
     </g>
    </g>
   </g>
   <g id="line2d_36">
    <path d="M 141.12 219.069485 
L 221.953536 219.022823 
L 224.437248 200.063285 
L 225.404928 194.295681 
L 228.243456 181.614437 
L 229.598208 180.341821 
L 231.178752 179.467323 
L 236.533248 179.011359 
L 243.5328 178.902472 
L 244.952064 178.861639 
L 248.145408 178.752752 
L 249.790464 178.688101 
L 251.887104 178.579214 
L 254.241792 178.232137 
L 254.757888 177.694507 
L 255.499776 177.354236 
L 256.338432 177.367847 
L 259.789824 177.983738 
L 262.467072 178.157277 
L 263.886336 178.204915 
L 264.144384 183.451904 
L 264.434688 187.022034 
L 265.176576 191.778011 
L 267.144192 209.13765 
L 268.402176 215.655553 
L 269.047296 216.940623 
L 270.46656 218.705952 
L 273.724416 219.121015 
L 282.530304 219.073531 
L 297.013248 219.063782 
L 305.754624 219.068641 
L 347.751936 219.024521 
L 350.235648 200.103437 
L 351.622656 191.452711 
L 352.751616 185.650059 
L 354.203136 180.535776 
L 354.880512 179.671486 
L 355.719168 178.943304 
L 359.686656 178.215123 
L 362.39616 178.32401 
L 363.428352 178.32401 
L 373.459968 178.429494 
L 373.814784 179.144065 
L 375.62112 183.414474 
L 376.621056 186.247576 
L 377.201664 186.907022 
L 378.104832 187.526997 
L 379.201536 188.336844 
L 380.362752 189.468587 
L 382.07232 191.470405 
L 382.685184 192.468762 
L 383.169024 193.739337 
L 383.8464 196.209709 
L 385.975296 204.60421 
L 387.491328 211.43108 
L 389.297664 218.035651 
L 390.910464 223.140509 
L 391.200768 223.624375 
L 391.555584 224.753396 
L 392.103936 225.828314 
L 392.684544 226.492525 
L 392.910336 227.129513 
L 393.458688 228.476649 
L 395.103744 231.427825 
L 395.490816 232.338732 
L 395.910144 233.206424 
L 396.10368 233.488169 
L 397.329408 235.646172 
L 397.5552 235.944931 
L 398.3616 237.394488 
L 399.297024 238.673229 
L 400.393728 237.299892 
L 401.006592 236.107581 
L 401.42592 235.754379 
L 401.942016 235.214368 
L 402.264576 234.575337 
L 402.651648 234.071735 
L 403.135488 233.725679 
L 403.329024 233.594674 
L 404.49024 232.513972 
L 404.877312 231.867796 
L 405.232128 231.602384 
L 405.361152 231.613273 
L 406.715904 230.614916 
L 407.199744 230.054828 
L 407.619072 229.363056 
L 407.973888 229.144942 
L 408.102912 229.172844 
L 409.32864 228.351088 
L 410.13504 227.503812 
L 410.522112 226.860698 
L 410.876928 226.689542 
L 411.038208 226.689882 
L 413.19936 225.15968 
L 413.84448 224.315126 
L 414.00576 224.287564 
L 414.683136 224.023513 
L 416.715264 222.431961 
L 417.650688 221.692925 
L 419.134464 220.418131 
L 420.069888 219.100403 
L 420.908544 217.93915 
L 421.90848 216.524607 
L 422.23104 216.056699 
L 424.585728 212.943248 
L 424.940544 212.484902 
L 426.295296 210.945173 
L 427.06944 210.121375 
L 427.71456 209.356444 
L 428.133888 208.199521 
L 430.520832 201.59791 
L 431.069184 200.720009 
L 432.036864 199.127538 
L 432.649728 198.408544 
L 433.230336 197.645315 
L 434.262528 196.229104 
L 435.13344 195.29642 
L 436.068864 194.093559 
L 437.488128 192.785215 
L 437.939712 192.163198 
L 438.35904 190.805514 
L 439.875072 185.524839 
L 440.713728 183.513153 
L 441.616896 181.947903 
L 442.326528 181.158473 
L 444.100608 179.518363 
L 444.616704 178.878653 
L 445.45536 177.742145 
L 452.454912 167.598647 
L 455.680512 163.382682 
L 455.745024 163.484763 
L 456.680448 165.727153 
L 457.099776 165.904095 
L 457.357824 165.808819 
L 457.809408 165.339244 
L 458.454528 164.114266 
L 460.970496 158.285412 
L 462.131712 156.430932 
L 463.615488 154.433537 
L 463.84128 154.409718 
L 465.744384 154.698949 
L 468.67968 155.117483 
L 471.227904 155.767402 
L 473.098752 156.243782 
L 474.32448 156.611276 
L 474.905088 156.795023 
L 476.195328 157.220362 
L 477.259776 157.557231 
L 477.808128 157.727367 
L 478.324224 157.890697 
L 483.51744 159.643096 
L 484.033536 159.891495 
L 485.839872 160.72516 
L 486.678528 161.106264 
L 496.000512 164.964945 
L 496.774656 164.008782 
L 497.06496 163.988365 
L 497.645568 164.223153 
L 498.19392 164.631479 
L 499.742208 165.795208 
L 501.129216 166.543805 
L 502.290432 167.037199 
L 502.838784 167.265181 
L 504.774144 167.962738 
L 510.257664 169.582431 
L 512.967168 170.266377 
L 513.644544 170.436513 
L 514.4832 170.630468 
L 515.096064 170.769979 
L 524.16 172.573419 
L 524.579328 172.638071 
L 525.482496 172.808206 
L 525.901824 172.872858 
L 527.643648 173.162089 
L 528.321024 173.267573 
L 529.030656 173.373057 
L 530.869248 173.648677 
L 534.610944 174.152279 
L 535.836672 174.301999 
L 536.352768 174.380261 
L 537.191424 175.421493 
L 538.03008 175.666488 
L 539.4816 175.404479 
L 540.352512 175.156081 
L 541.41696 175.043791 
L 542.38464 175.050597 
L 544.029696 175.159484 
L 549.061632 175.58142 
L 550.416384 175.686905 
L 551.25504 175.754959 
L 552.674304 175.863846 
L 553.51296 175.928497 
L 555.093504 176.033982 
L 555.577344 176.071412 
L 556.416 176.136063 
L 557.093376 176.17009 
L 557.899776 176.227937 
L 559.706112 176.336823 
L 561.996288 176.469529 
L 563.931648 176.578416 
L 565.996032 176.687303 
L 566.705664 176.717928 
L 568.641024 176.813204 
L 570.802176 176.915285 
L 571.189248 176.928896 
L 571.89888 176.962923 
L 574.64064 177.07181 
L 576.382464 177.14667 
L 576.705024 177.07181 
L 577.188864 176.544389 
L 578.059776 176.20752 
L 578.575872 176.258561 
L 579.31776 176.44571 
L 580.091904 176.656679 
L 583.220736 177.204516 
L 584.769024 177.31 
L 585.575424 177.367847 
L 587.284992 177.439304 
L 590.639616 177.548191 
L 591.058944 177.568607 
L 596.542464 177.674091 
L 597.026304 177.670688 
L 597.735936 177.704716 
L 605.348352 177.8102 
L 605.864448 177.806797 
L 616.992768 177.908878 
L 617.928192 178.745947 
L 618.928128 178.95011 
L 621.927936 178.52477 
L 624.218112 178.150471 
L 626.798592 178.041584 
L 628.153344 178.007557 
L 657.312768 177.915684 
L 657.828864 177.337222 
L 658.538496 177.010561 
L 659.6352 177.003756 
L 663.602688 177.728535 
L 665.28 177.796589 
L 697.600512 177.905476 
L 697.761792 178.08582 
L 698.277888 178.606435 
L 698.66496 178.790182 
L 699.277824 178.929693 
L 701.632512 178.820807 
L 703.922688 178.44991 
L 709.30944 177.990544 
L 737.952768 177.919087 
L 738.50112 177.303195 
L 739.049472 177.027575 
L 740.984832 177.136462 
L 744.242688 177.711521 
L 746.339328 177.823811 
L 778.272768 177.919087 
L 779.208192 178.756155 
L 780.143616 178.936499 
L 781.433856 178.967123 
L 784.207872 178.494146 
L 790.078464 177.983738 
L 818.592768 177.919087 
L 819.14112 177.303195 
L 819.689472 177.027575 
L 821.624832 177.136462 
L 824.882688 177.711521 
L 826.979328 177.823811 
L 858.912768 177.919087 
L 859.848192 178.756155 
L 860.783616 178.936499 
L 862.073856 178.967123 
L 864.847872 178.494146 
L 870.718464 177.983738 
L 899.232768 177.919087 
L 899.78112 177.303195 
L 900.329472 177.027575 
L 902.264832 177.136462 
L 905.522688 177.711521 
L 907.619328 177.823811 
L 939.552768 177.919087 
L 940.617216 178.786779 
L 941.55264 178.973929 
L 943.455744 178.865042 
L 944.810496 178.613241 
L 947.03616 178.255956 
L 947.52 178.181096 
L 947.52 178.181096 
" clip-path="url(#p4de80b483f)" style="fill: none; stroke: #008000; stroke-width: 2; stroke-linecap: square"/>
   </g>
   <g id="patch_10">
    <path d="M 100.8 242.888276 
L 100.8 150.157241 
" style="fill: none; stroke: #bcbcbc; stroke-width: 0.8; stroke-linejoin: miter; stroke-linecap: square"/>
   </g>
   <g id="patch_11">
    <path d="M 987.84 242.888276 
L 987.84 150.157241 
" style="fill: none; stroke: #bcbcbc; stroke-width: 0.8; stroke-linejoin: miter; stroke-linecap: square"/>
   </g>
   <g id="patch_12">
    <path d="M 100.8 242.888276 
L 987.84 242.888276 
" style="fill: none; stroke: #bcbcbc; stroke-width: 0.8; stroke-linejoin: miter; stroke-linecap: square"/>
   </g>
   <g id="patch_13">
    <path d="M 100.8 150.157241 
L 987.84 150.157241 
" style="fill: none; stroke: #bcbcbc; stroke-width: 0.8; stroke-linejoin: miter; stroke-linecap: square"/>
   </g>
  </g>
  <g id="axes_3">
   <g id="patch_14">
    <path d="M 100.8 354.165517 
L 987.84 354.165517 
L 987.84 261.434483 
L 100.8 261.434483 
z
" style="fill: #eeeeee"/>
   </g>
   <g id="matplotlib.axis_5">
    <g id="xtick_13">
     <g id="line2d_37">
      <path d="M 141.12 354.165517 
L 141.12 261.434483 
" clip-path="url(#p9c5ab6b4a9)" style="fill: none; stroke-dasharray: 1.85,0.8; stroke-dashoffset: 0; stroke: #b2b2b2; stroke-width: 0.5"/>
     </g>
     <g id="line2d_38">
      <g>
       <use xlink:href="#m8ba8b0e6fb" x="141.12" y="354.165517" style="stroke: #000000; stroke-width: 0.8"/>
      </g>
     </g>
    </g>
    <g id="xtick_14">
     <g id="line2d_39">
      <path d="M 302.4 354.165517 
L 302.4 261.434483 
" clip-path="url(#p9c5ab6b4a9)" style="fill: none; stroke-dasharray: 1.85,0.8; stroke-dashoffset: 0; stroke: #b2b2b2; stroke-width: 0.5"/>
     </g>
     <g id="line2d_40">
      <g>
       <use xlink:href="#m8ba8b0e6fb" x="302.4" y="354.165517" style="stroke: #000000; stroke-width: 0.8"/>
      </g>
     </g>
    </g>
    <g id="xtick_15">
     <g id="line2d_41">
      <path d="M 463.68 354.165517 
L 463.68 261.434483 
" clip-path="url(#p9c5ab6b4a9)" style="fill: none; stroke-dasharray: 1.85,0.8; stroke-dashoffset: 0; stroke: #b2b2b2; stroke-width: 0.5"/>
     </g>
     <g id="line2d_42">
      <g>
       <use xlink:href="#m8ba8b0e6fb" x="463.68" y="354.165517" style="stroke: #000000; stroke-width: 0.8"/>
      </g>
     </g>
    </g>
    <g id="xtick_16">
     <g id="line2d_43">
      <path d="M 624.96 354.165517 
L 624.96 261.434483 
" clip-path="url(#p9c5ab6b4a9)" style="fill: none; stroke-dasharray: 1.85,0.8; stroke-dashoffset: 0; stroke: #b2b2b2; stroke-width: 0.5"/>
     </g>
     <g id="line2d_44">
      <g>
       <use xlink:href="#m8ba8b0e6fb" x="624.96" y="354.165517" style="stroke: #000000; stroke-width: 0.8"/>
      </g>
     </g>
    </g>
    <g id="xtick_17">
     <g id="line2d_45">
      <path d="M 786.24 354.165517 
L 786.24 261.434483 
" clip-path="url(#p9c5ab6b4a9)" style="fill: none; stroke-dasharray: 1.85,0.8; stroke-dashoffset: 0; stroke: #b2b2b2; stroke-width: 0.5"/>
     </g>
     <g id="line2d_46">
      <g>
       <use xlink:href="#m8ba8b0e6fb" x="786.24" y="354.165517" style="stroke: #000000; stroke-width: 0.8"/>
      </g>
     </g>
    </g>
    <g id="xtick_18">
     <g id="line2d_47">
      <path d="M 947.52 354.165517 
L 947.52 261.434483 
" clip-path="url(#p9c5ab6b4a9)" style="fill: none; stroke-dasharray: 1.85,0.8; stroke-dashoffset: 0; stroke: #b2b2b2; stroke-width: 0.5"/>
     </g>
     <g id="line2d_48">
      <g>
       <use xlink:href="#m8ba8b0e6fb" x="947.52" y="354.165517" style="stroke: #000000; stroke-width: 0.8"/>
      </g>
     </g>
    </g>
   </g>
   <g id="matplotlib.axis_6">
    <g id="ytick_6">
     <g id="line2d_49">
      <path d="M 100.8 343.82709 
L 987.84 343.82709 
" clip-path="url(#p9c5ab6b4a9)" style="fill: none; stroke-dasharray: 1.85,0.8; stroke-dashoffset: 0; stroke: #b2b2b2; stroke-width: 0.5"/>
     </g>
     <g id="line2d_50">
      <g>
       <use xlink:href="#me6b6d091fd" x="100.8" y="343.82709" style="stroke: #000000; stroke-width: 0.8"/>
      </g>
     </g>
     <g id="text_8">
      <!-- 0 V -->
      <g transform="translate(74.36625 349.145996) scale(0.14 -0.14)">
       <use xlink:href="#DejaVuSans-30"/>
       <use xlink:href="#DejaVuSans-20" x="63.623047"/>
       <use xlink:href="#DejaVuSans-56" x="95.410156"/>
      </g>
     </g>
    </g>
    <g id="ytick_7">
     <g id="line2d_51">
      <path d="M 100.8 295.800575 
L 987.84 295.800575 
" clip-path="url(#p9c5ab6b4a9)" style="fill: none; stroke-dasharray: 1.85,0.8; stroke-dashoffset: 0; stroke: #b2b2b2; stroke-width: 0.5"/>
     </g>
     <g id="line2d_52">
      <g>
       <use xlink:href="#me6b6d091fd" x="100.8" y="295.800575" style="stroke: #000000; stroke-width: 0.8"/>
      </g>
     </g>
     <g id="text_9">
      <!-- 1 V -->
      <g transform="translate(74.36625 301.119482) scale(0.14 -0.14)">
       <use xlink:href="#DejaVuSans-31"/>
       <use xlink:href="#DejaVuSans-20" x="63.623047"/>
       <use xlink:href="#DejaVuSans-56" x="95.410156"/>
      </g>
     </g>
    </g>
    <g id="text_10">
     <g id="patch_15">
      <path d="M 34.8768 342.395313 
L 34.8768 273.204688 
L 11.247425 273.204688 
L 11.247425 342.395313 
z
" style="fill: #ffff00; opacity: 0.2; stroke: #eeeeee; stroke-width: 0.5; stroke-linejoin: miter"/>
     </g>
     <!-- CLK BUF -->
     <g transform="translate(26.925238 337.355313) rotate(-90) scale(0.14 -0.14)">
      <defs>
       <path id="DejaVuSans-43" d="M 4122 4306 
L 4122 3641 
Q 3803 3938 3442 4084 
Q 3081 4231 2675 4231 
Q 1875 4231 1450 3742 
Q 1025 3253 1025 2328 
Q 1025 1406 1450 917 
Q 1875 428 2675 428 
Q 3081 428 3442 575 
Q 3803 722 4122 1019 
L 4122 359 
Q 3791 134 3420 21 
Q 3050 -91 2638 -91 
Q 1578 -91 968 557 
Q 359 1206 359 2328 
Q 359 3453 968 4101 
Q 1578 4750 2638 4750 
Q 3056 4750 3426 4639 
Q 3797 4528 4122 4306 
z
" transform="scale(0.015625)"/>
       <path id="DejaVuSans-4b" d="M 628 4666 
L 1259 4666 
L 1259 2694 
L 3353 4666 
L 4166 4666 
L 1850 2491 
L 4331 0 
L 3500 0 
L 1259 2247 
L 1259 0 
L 628 0 
L 628 4666 
z
" transform="scale(0.015625)"/>
      </defs>
      <use xlink:href="#DejaVuSans-43"/>
      <use xlink:href="#DejaVuSans-4c" x="69.824219"/>
      <use xlink:href="#DejaVuSans-4b" x="125.537109"/>
      <use xlink:href="#DejaVuSans-20" x="191.113281"/>
      <use xlink:href="#DejaVuSans-42" x="222.900391"/>
      <use xlink:href="#DejaVuSans-55" x="291.503906"/>
      <use xlink:href="#DejaVuSans-46" x="364.697266"/>
     </g>
    </g>
   </g>
   <g id="line2d_53">
    <path d="M 141.12 343.82582 
L 173.376 343.82582 
L 173.601792 286.195273 
L 213.696 286.195273 
L 213.760512 332.165772 
L 213.825024 343.805149 
L 213.889536 343.736036 
L 213.954048 343.927897 
L 214.01856 343.832294 
L 215.212032 343.824133 
L 222.5664 343.825834 
L 254.016 343.825787 
L 254.17728 286.017574 
L 254.241792 286.324944 
L 254.403072 286.185667 
L 254.8224 286.195273 
L 294.336 286.195273 
L 294.400512 332.125429 
L 294.465024 344.185468 
L 294.529536 343.350465 
L 294.626304 343.902563 
L 294.65856 343.868388 
L 294.852096 343.783974 
L 295.206912 343.844566 
L 295.46496 343.825604 
L 318.076416 343.825821 
L 334.656 343.825822 
L 334.81728 286.108825 
L 334.881792 286.214483 
L 335.172096 286.200075 
L 373.427712 286.272115 
L 374.976 288.721467 
L 375.008256 291.775954 
L 375.13728 345.09134 
L 375.234048 345.240942 
L 375.266304 345.219282 
L 375.588864 345.317593 
L 376.814592 345.483572 
L 378.878976 345.513108 
L 385.007616 345.314615 
L 385.233408 345.307267 
L 386.523648 345.259192 
L 391.458816 345.194405 
L 393.007104 345.774949 
L 397.264896 348.651353 
L 399.232512 349.887075 
L 399.845376 349.520633 
L 401.135616 348.860749 
L 401.167872 348.946716 
L 401.232384 348.833854 
L 401.329152 348.892446 
L 401.458176 348.811281 
L 403.2 348.089299 
L 403.329024 348.076812 
L 409.393152 345.955096 
L 409.6512 345.87398 
L 414.457344 344.56252 
L 415.296 344.375552 
L 415.328256 345.838824 
L 415.489536 318.212629 
L 415.650816 317.967693 
L 419.069952 316.478871 
L 421.037568 315.177833 
L 423.005184 313.756248 
L 427.779072 310.340603 
L 430.682112 308.443555 
L 433.972224 306.466304 
L 437.971968 304.137498 
L 439.358976 301.220368 
L 441.649152 295.661299 
L 444.777984 288.039491 
L 447.552 281.714399 
L 453.551616 269.448427 
L 454.035456 268.550331 
L 454.745088 267.229602 
L 455.616 265.64953 
L 455.77728 342.288704 
L 455.809536 342.268341 
L 457.454592 342.290049 
L 459.00288 342.213255 
L 462.8736 342.318385 
L 463.712256 342.414822 
L 464.389632 343.174938 
L 465.099264 343.635373 
L 466.002432 343.954754 
L 467.260416 344.155596 
L 469.453824 344.253368 
L 476.292096 344.247307 
L 484.356096 344.336603 
L 487.033344 344.377714 
L 495.936 344.276358 
L 496.09728 267.426511 
L 496.194048 267.503353 
L 497.452032 268.127698 
L 500.903424 269.789415 
L 501.709824 270.144812 
L 508.870656 273.232916 
L 509.128704 273.343377 
L 510.967296 274.049367 
L 511.2576 274.159828 
L 512.451072 274.577659 
L 512.805888 274.68812 
L 513.99936 275.10595 
L 514.257408 275.211609 
L 514.676736 275.346083 
L 515.031552 275.451741 
L 515.45088 275.586216 
L 515.805696 275.691874 
L 516.321792 275.874375 
L 516.676608 275.980033 
L 517.095936 276.114507 
L 517.450752 276.220166 
L 517.87008 276.35464 
L 518.224896 276.460298 
L 518.579712 276.546746 
L 523.966464 278.035568 
L 524.418048 278.141226 
L 524.772864 278.227674 
L 527.256576 278.852019 
L 527.804928 278.957677 
L 528.159744 279.044125 
L 529.675776 279.38031 
L 530.224128 279.485969 
L 530.578944 279.572416 
L 531.09504 279.678075 
L 531.385344 279.726101 
L 531.933696 279.855773 
L 534.610944 280.364854 
L 534.933504 280.432091 
L 536.256 280.653013 
L 536.288256 288.39969 
L 536.352768 344.576543 
L 536.41728 343.938828 
L 536.449536 343.935937 
L 536.481792 344.052344 
L 536.546304 343.979223 
L 537.030144 343.974618 
L 576.576 343.868459 
L 576.73728 284.375068 
L 576.801792 284.624806 
L 576.834048 284.749674 
L 576.89856 284.658424 
L 577.963008 284.706451 
L 580.253184 284.816912 
L 580.575744 284.85053 
L 583.736832 284.960991 
L 584.059392 284.99461 
L 587.70432 285.105071 
L 588.02688 285.138689 
L 592.155648 285.24915 
L 592.478208 285.282769 
L 597.38112 285.39323 
L 597.70368 285.426848 
L 603.67104 285.537309 
L 603.9936 285.570928 
L 611.606016 285.681389 
L 611.928576 285.715007 
L 616.896 285.715007 
L 616.928256 290.24871 
L 616.992768 343.959134 
L 617.05728 343.667968 
L 617.154048 343.998477 
L 617.21856 343.847918 
L 617.992704 343.845186 
L 624.024576 343.831515 
L 644.087808 343.839602 
L 657.216 343.839573 
L 657.37728 285.618954 
L 657.441792 285.734218 
L 658.312704 285.715007 
L 697.536 285.715007 
L 697.665024 344.194007 
L 697.826304 343.914503 
L 698.084352 343.807504 
L 698.439168 343.859754 
L 698.729472 343.839428 
L 732.759552 343.839569 
L 737.856 343.839574 
L 738.01728 285.46527 
L 738.081792 286.007969 
L 738.17856 285.513296 
L 738.243072 285.695797 
L 738.694656 285.715007 
L 778.176 285.715007 
L 778.305024 344.193815 
L 778.466304 343.914551 
L 778.724352 343.807495 
L 779.079168 343.85974 
L 779.369472 343.839427 
L 813.399552 343.839569 
L 818.496 343.839574 
L 818.65728 285.46527 
L 818.721792 286.007969 
L 818.81856 285.513296 
L 818.883072 285.695797 
L 819.334656 285.715007 
L 858.816 285.715007 
L 858.945024 344.193926 
L 859.106304 343.914536 
L 859.364352 343.807489 
L 859.719168 343.859763 
L 860.009472 343.839428 
L 894.039552 343.839569 
L 899.136 343.839574 
L 899.29728 285.46527 
L 899.361792 286.007969 
L 899.45856 285.513296 
L 899.523072 285.695797 
L 899.974656 285.715007 
L 939.456 285.715007 
L 939.488256 294.374188 
L 939.61728 343.782455 
L 939.649536 343.92211 
L 939.714048 343.788492 
L 939.746304 343.746347 
L 939.810816 343.808337 
L 939.972096 343.903668 
L 940.004352 343.868315 
L 940.197888 343.838778 
L 945.068544 343.839583 
L 947.52 343.839562 
L 947.52 343.839562 
" clip-path="url(#p9c5ab6b4a9)" style="fill: none; stroke: #0000ff; stroke-width: 2; stroke-linecap: square"/>
   </g>
   <g id="patch_16">
    <path d="M 100.8 354.165517 
L 100.8 261.434483 
" style="fill: none; stroke: #bcbcbc; stroke-width: 0.8; stroke-linejoin: miter; stroke-linecap: square"/>
   </g>
   <g id="patch_17">
    <path d="M 987.84 354.165517 
L 987.84 261.434483 
" style="fill: none; stroke: #bcbcbc; stroke-width: 0.8; stroke-linejoin: miter; stroke-linecap: square"/>
   </g>
   <g id="patch_18">
    <path d="M 100.8 354.165517 
L 987.84 354.165517 
" style="fill: none; stroke: #bcbcbc; stroke-width: 0.8; stroke-linejoin: miter; stroke-linecap: square"/>
   </g>
   <g id="patch_19">
    <path d="M 100.8 261.434483 
L 987.84 261.434483 
" style="fill: none; stroke: #bcbcbc; stroke-width: 0.8; stroke-linejoin: miter; stroke-linecap: square"/>
   </g>
  </g>
  <g id="axes_4">
   <g id="patch_20">
    <path d="M 100.8 465.442759 
L 987.84 465.442759 
L 987.84 372.711724 
L 100.8 372.711724 
z
" style="fill: #eeeeee"/>
   </g>
   <g id="matplotlib.axis_7">
    <g id="xtick_19">
     <g id="line2d_54">
      <path d="M 141.12 465.442759 
L 141.12 372.711724 
" clip-path="url(#p619137afa2)" style="fill: none; stroke-dasharray: 1.85,0.8; stroke-dashoffset: 0; stroke: #b2b2b2; stroke-width: 0.5"/>
     </g>
     <g id="line2d_55">
      <g>
       <use xlink:href="#m8ba8b0e6fb" x="141.12" y="465.442759" style="stroke: #000000; stroke-width: 0.8"/>
      </g>
     </g>
    </g>
    <g id="xtick_20">
     <g id="line2d_56">
      <path d="M 302.4 465.442759 
L 302.4 372.711724 
" clip-path="url(#p619137afa2)" style="fill: none; stroke-dasharray: 1.85,0.8; stroke-dashoffset: 0; stroke: #b2b2b2; stroke-width: 0.5"/>
     </g>
     <g id="line2d_57">
      <g>
       <use xlink:href="#m8ba8b0e6fb" x="302.4" y="465.442759" style="stroke: #000000; stroke-width: 0.8"/>
      </g>
     </g>
    </g>
    <g id="xtick_21">
     <g id="line2d_58">
      <path d="M 463.68 465.442759 
L 463.68 372.711724 
" clip-path="url(#p619137afa2)" style="fill: none; stroke-dasharray: 1.85,0.8; stroke-dashoffset: 0; stroke: #b2b2b2; stroke-width: 0.5"/>
     </g>
     <g id="line2d_59">
      <g>
       <use xlink:href="#m8ba8b0e6fb" x="463.68" y="465.442759" style="stroke: #000000; stroke-width: 0.8"/>
      </g>
     </g>
    </g>
    <g id="xtick_22">
     <g id="line2d_60">
      <path d="M 624.96 465.442759 
L 624.96 372.711724 
" clip-path="url(#p619137afa2)" style="fill: none; stroke-dasharray: 1.85,0.8; stroke-dashoffset: 0; stroke: #b2b2b2; stroke-width: 0.5"/>
     </g>
     <g id="line2d_61">
      <g>
       <use xlink:href="#m8ba8b0e6fb" x="624.96" y="465.442759" style="stroke: #000000; stroke-width: 0.8"/>
      </g>
     </g>
    </g>
    <g id="xtick_23">
     <g id="line2d_62">
      <path d="M 786.24 465.442759 
L 786.24 372.711724 
" clip-path="url(#p619137afa2)" style="fill: none; stroke-dasharray: 1.85,0.8; stroke-dashoffset: 0; stroke: #b2b2b2; stroke-width: 0.5"/>
     </g>
     <g id="line2d_63">
      <g>
       <use xlink:href="#m8ba8b0e6fb" x="786.24" y="465.442759" style="stroke: #000000; stroke-width: 0.8"/>
      </g>
     </g>
    </g>
    <g id="xtick_24">
     <g id="line2d_64">
      <path d="M 947.52 465.442759 
L 947.52 372.711724 
" clip-path="url(#p619137afa2)" style="fill: none; stroke-dasharray: 1.85,0.8; stroke-dashoffset: 0; stroke: #b2b2b2; stroke-width: 0.5"/>
     </g>
     <g id="line2d_65">
      <g>
       <use xlink:href="#m8ba8b0e6fb" x="947.52" y="465.442759" style="stroke: #000000; stroke-width: 0.8"/>
      </g>
     </g>
    </g>
   </g>
   <g id="matplotlib.axis_8">
    <g id="ytick_8">
     <g id="line2d_66">
      <path d="M 100.8 438.896363 
L 987.84 438.896363 
" clip-path="url(#p619137afa2)" style="fill: none; stroke-dasharray: 1.85,0.8; stroke-dashoffset: 0; stroke: #b2b2b2; stroke-width: 0.5"/>
     </g>
     <g id="line2d_67">
      <g>
       <use xlink:href="#me6b6d091fd" x="100.8" y="438.896363" style="stroke: #000000; stroke-width: 0.8"/>
      </g>
     </g>
     <g id="text_11">
      <!-- 0 V -->
      <g transform="translate(74.36625 444.215269) scale(0.14 -0.14)">
       <use xlink:href="#DejaVuSans-30"/>
       <use xlink:href="#DejaVuSans-20" x="63.623047"/>
       <use xlink:href="#DejaVuSans-56" x="95.410156"/>
      </g>
     </g>
    </g>
    <g id="ytick_9">
     <g id="line2d_68">
      <path d="M 100.8 399.642805 
L 987.84 399.642805 
" clip-path="url(#p619137afa2)" style="fill: none; stroke-dasharray: 1.85,0.8; stroke-dashoffset: 0; stroke: #b2b2b2; stroke-width: 0.5"/>
     </g>
     <g id="line2d_69">
      <g>
       <use xlink:href="#me6b6d091fd" x="100.8" y="399.642805" style="stroke: #000000; stroke-width: 0.8"/>
      </g>
     </g>
     <g id="text_12">
      <!-- 1 V -->
      <g transform="translate(74.36625 404.961711) scale(0.14 -0.14)">
       <use xlink:href="#DejaVuSans-31"/>
       <use xlink:href="#DejaVuSans-20" x="63.623047"/>
       <use xlink:href="#DejaVuSans-56" x="95.410156"/>
      </g>
     </g>
    </g>
    <g id="text_13">
     <g id="patch_21">
      <path d="M 34.8768 454.693023 
L 34.8768 383.46146 
L 11.247425 383.46146 
L 11.247425 454.693023 
z
" style="fill: #ffff00; opacity: 0.2; stroke: #eeeeee; stroke-width: 0.5; stroke-linejoin: miter"/>
     </g>
     <!-- DFF OUT -->
     <g transform="translate(26.925238 449.653023) rotate(-90) scale(0.14 -0.14)">
      <defs>
       <path id="DejaVuSans-4f" d="M 2522 4238 
Q 1834 4238 1429 3725 
Q 1025 3213 1025 2328 
Q 1025 1447 1429 934 
Q 1834 422 2522 422 
Q 3209 422 3611 934 
Q 4013 1447 4013 2328 
Q 4013 3213 3611 3725 
Q 3209 4238 2522 4238 
z
M 2522 4750 
Q 3503 4750 4090 4092 
Q 4678 3434 4678 2328 
Q 4678 1225 4090 567 
Q 3503 -91 2522 -91 
Q 1538 -91 948 565 
Q 359 1222 359 2328 
Q 359 3434 948 4092 
Q 1538 4750 2522 4750 
z
" transform="scale(0.015625)"/>
       <path id="DejaVuSans-54" d="M -19 4666 
L 3928 4666 
L 3928 4134 
L 2272 4134 
L 2272 0 
L 1638 0 
L 1638 4134 
L -19 4134 
L -19 4666 
z
" transform="scale(0.015625)"/>
      </defs>
      <use xlink:href="#DejaVuSans-44"/>
      <use xlink:href="#DejaVuSans-46" x="77.001953"/>
      <use xlink:href="#DejaVuSans-46" x="134.521484"/>
      <use xlink:href="#DejaVuSans-20" x="192.041016"/>
      <use xlink:href="#DejaVuSans-4f" x="223.828125"/>
      <use xlink:href="#DejaVuSans-55" x="302.539062"/>
      <use xlink:href="#DejaVuSans-54" x="375.732422"/>
     </g>
    </g>
   </g>
   <g id="line2d_70">
    <path d="M 141.12 409.278376 
L 173.408256 409.326265 
L 173.440512 410.951362 
L 173.601792 438.898758 
L 174.117888 438.894199 
L 184.50432 438.895324 
L 254.048256 438.896961 
L 254.080512 439.053879 
L 254.112768 438.794315 
L 254.306304 434.961979 
L 254.596608 434.193786 
L 254.693376 433.645807 
L 255.14496 426.768583 
L 255.370752 410.604753 
L 255.596544 392.172853 
L 255.757824 391.850974 
L 255.983616 391.788168 
L 256.91904 391.792093 
L 295.755264 391.870601 
L 296.239104 394.410306 
L 296.59392 393.774398 
L 297.948672 392.113973 
L 299.593728 391.823496 
L 334.688256 391.807795 
L 334.720512 391.69396 
L 334.752768 392.270987 
L 334.785024 395.12472 
L 334.914048 438.880272 
L 334.97856 438.845726 
L 335.13984 438.888135 
L 335.526912 438.895679 
L 367.266816 438.895281 
L 373.459968 439.003462 
L 374.105088 439.561357 
L 374.911488 439.942509 
L 375.94368 440.170258 
L 377.524224 440.27428 
L 381.072384 440.220503 
L 383.620608 440.036443 
L 384.394752 439.781884 
L 384.81408 439.451251 
L 385.104384 438.926233 
L 385.330176 438.026622 
L 385.523712 436.275049 
L 385.749504 431.880182 
L 386.072064 425.813937 
L 386.2656 425.806871 
L 386.459136 426.190379 
L 386.846208 427.509691 
L 386.878464 427.007638 
L 386.91072 427.602722 
L 387.104256 428.567574 
L 388.6848 435.249432 
L 388.749312 435.057993 
L 388.813824 435.116912 
L 388.975104 435.796195 
L 389.136384 437.036882 
L 389.362176 437.928605 
L 389.394432 437.812062 
L 389.458944 437.703918 
L 389.4912 437.803897 
L 389.587968 438.59415 
L 389.65248 438.515721 
L 389.81376 439.681709 
L 390.233088 441.257346 
L 390.265344 440.888559 
L 390.329856 441.113207 
L 390.555648 442.414384 
L 390.974976 443.661745 
L 391.007232 443.604827 
L 391.039488 443.433289 
L 391.104 443.573032 
L 391.233024 444.232884 
L 391.26528 443.971455 
L 391.297536 444.063701 
L 391.458816 444.914326 
L 392.265216 446.692119 
L 392.329728 446.51116 
L 392.361984 446.573181 
L 392.55552 446.920575 
L 392.7168 447.262866 
L 392.87808 448.013394 
L 394.97472 452.639033 
L 395.232768 453.207425 
L 395.29728 453.589362 
L 395.361792 453.487695 
L 396.135936 455.371081 
L 396.168192 455.357342 
L 396.200448 455.269807 
L 396.232704 455.492374 
L 396.42624 455.958314 
L 396.458496 455.840946 
L 396.523008 455.950856 
L 396.652032 456.324157 
L 396.716544 456.365373 
L 396.845568 456.823855 
L 396.877824 456.74417 
L 397.264896 457.584589 
L 397.39392 457.89901 
L 397.748736 458.636584 
L 397.780992 458.615387 
L 397.845504 458.659744 
L 398.135808 459.409094 
L 399.168 461.180215 
L 399.264768 461.199057 
L 399.297024 461.173149 
L 399.458304 461.036154 
L 400.006656 460.197306 
L 400.103424 459.853445 
L 400.13568 459.946083 
L 400.522752 459.19477 
L 400.684032 458.742176 
L 401.135616 457.992826 
L 401.167872 458.056809 
L 401.200128 457.93159 
L 401.845248 456.971841 
L 401.877504 456.998926 
L 402.038784 456.644074 
L 402.07104 456.755161 
L 402.103296 456.559679 
L 402.87744 455.609742 
L 403.941888 454.368545 
L 404.16768 454.09691 
L 404.199936 454.253532 
L 404.232192 454.023506 
L 404.264448 454.200147 
L 404.393472 453.82292 
L 404.425728 454.024291 
L 404.457984 453.857856 
L 404.619264 453.552856 
L 405.13536 453.020578 
L 405.167616 453.218023 
L 405.232128 452.93422 
L 405.264384 453.134806 
L 405.393408 452.776813 
L 405.683712 452.588396 
L 406.199808 452.170738 
L 406.619136 451.457109 
L 406.651392 451.427668 
L 406.683648 451.632964 
L 406.715904 451.321684 
L 406.844928 451.183511 
L 407.55456 450.45418 
L 407.941632 450.11817 
L 407.973888 450.332102 
L 408.0384 450.126805 
L 408.070656 450.182546 
L 408.102912 450.053401 
L 408.328704 449.883826 
L 408.715776 449.626715 
L 409.070592 449.274611 
L 409.296384 448.730556 
L 409.393152 448.578253 
L 409.425408 448.84871 
L 409.48992 448.460099 
L 409.522176 448.719958 
L 409.586688 448.360003 
L 409.747968 448.194353 
L 409.81248 448.482866 
L 409.844736 448.123304 
L 409.909248 448.341946 
L 410.038272 447.887783 
L 411.74784 446.64266 
L 412.0704 446.295658 
L 412.23168 445.753567 
L 412.328448 445.848953 
L 412.489728 445.481539 
L 412.780032 445.200877 
L 412.812288 445.59773 
L 412.8768 445.183605 
L 412.973568 445.345722 
L 413.102592 444.898624 
L 413.19936 445.079191 
L 413.328384 444.749853 
L 413.812224 444.491565 
L 413.84448 444.601475 
L 413.876736 444.649364 
L 414.00576 444.440928 
L 414.296064 444.331803 
L 415.102464 443.606397 
L 415.45728 443.257825 
L 415.586304 442.644057 
L 415.650816 442.586158 
L 415.683072 443.047034 
L 415.747584 442.930058 
L 415.844352 442.331559 
L 415.876608 442.665725 
L 415.908864 442.785801 
L 416.037888 442.164339 
L 416.26368 442.326456 
L 416.295936 442.416268 
L 416.42496 441.877435 
L 416.457216 442.156685 
L 416.521728 441.820007 
L 416.74752 441.920221 
L 416.812032 441.828368 
L 416.844288 441.96234 
L 416.876544 441.644229 
L 416.973312 441.664995 
L 417.295872 441.573338 
L 418.489344 440.398675 
L 419.00544 439.670835 
L 420.392448 437.313463 
L 420.585984 436.333459 
L 420.61824 436.341231 
L 420.682752 436.2913 
L 420.747264 436.589392 
L 420.77952 436.2345 
L 420.9408 436.324823 
L 421.876224 434.607911 
L 421.940736 433.665826 
L 422.005248 434.365717 
L 422.166528 433.62775 
L 422.23104 433.672499 
L 422.263296 433.858561 
L 422.327808 433.713323 
L 422.972928 432.49293 
L 423.456768 431.696868 
L 423.52128 431.03466 
L 423.585792 431.108457 
L 423.618048 431.323566 
L 423.68256 431.216012 
L 424.198656 430.201307 
L 424.230912 430.293553 
L 424.263168 430.249981 
L 424.521216 429.62742 
L 424.585728 429.694936 
L 425.327616 428.46316 
L 425.746944 427.775437 
L 425.908224 427.169362 
L 425.94048 427.384864 
L 425.972736 427.09164 
L 426.134016 427.028442 
L 426.230784 427.010385 
L 426.359808 426.711666 
L 426.488832 426.64729 
L 427.456512 424.77254 
L 427.617792 424.133885 
L 427.811328 423.748022 
L 428.908032 421.008909 
L 429.198336 420.573587 
L 429.230592 419.878799 
L 429.32736 420.081347 
L 429.359616 420.007158 
L 429.391872 420.079777 
L 429.424128 420.143368 
L 429.48864 420.044057 
L 430.6176 417.948309 
L 430.649856 417.969899 
L 430.843392 417.676282 
L 432.87552 414.360141 
L 432.907776 414.386049 
L 433.004544 414.369955 
L 433.19808 413.955045 
L 433.230336 414.162303 
L 433.423872 414.718919 
L 433.585152 418.313367 
L 434.00448 438.352269 
L 436.552704 438.472071 
L 437.939712 438.415467 
L 438.617088 437.835692 
L 439.455744 437.458937 
L 440.552448 437.241119 
L 442.22976 437.165948 
L 445.810176 437.263846 
L 458.067456 437.602605 
L 460.486656 437.603743 
L 463.744512 437.790472 
L 464.421888 438.398667 
L 465.260544 438.814146 
L 466.389504 439.081318 
L 468.066816 439.222991 
L 472.453632 439.262563 
L 495.968256 439.273452 
L 496.000512 439.492389 
L 496.323072 430.487858 
L 496.516608 428.682587 
L 496.677888 423.877166 
L 496.839168 411.332122 
L 497.193984 376.926771 
L 497.935872 377.221173 
L 510.967296 381.864869 
L 511.289856 381.966928 
L 512.70912 382.375165 
L 513.03168 382.477224 
L 514.354176 382.846208 
L 514.773504 382.948267 
L 515.999232 383.277997 
L 516.41856 383.380056 
L 517.515264 383.666607 
L 518.450688 383.890352 
L 519.450624 384.13765 
L 520.515072 384.373171 
L 521.25696 384.534111 
L 521.644032 384.63617 
L 522.321408 384.769632 
L 522.70848 384.871691 
L 523.385856 385.005153 
L 523.869696 385.107213 
L 524.547072 385.240675 
L 525.030912 385.342734 
L 525.708288 385.476196 
L 526.192128 385.578255 
L 526.869504 385.711717 
L 527.450112 385.813777 
L 528.127488 385.947239 
L 528.708096 386.049298 
L 529.288704 386.143506 
L 529.772544 386.245566 
L 530.353152 386.339774 
L 530.93376 386.437908 
L 531.288576 386.496789 
L 531.90144 386.598848 
L 532.482048 386.693056 
L 533.062656 386.79119 
L 533.417472 386.850071 
L 534.127104 386.948204 
L 534.48192 387.007085 
L 535.191552 387.105219 
L 535.546368 387.164099 
L 536.256 387.262233 
L 536.449536 387.285785 
L 536.836608 387.34074 
L 537.191424 387.39962 
L 537.901056 387.497754 
L 538.255872 387.556635 
L 539.15904 387.654768 
L 539.513856 387.713649 
L 540.320256 387.811783 
L 540.675072 387.870663 
L 541.57824 387.968797 
L 541.868544 387.988424 
L 542.642688 388.086558 
L 542.997504 388.145438 
L 543.99744 388.243572 
L 544.352256 388.302452 
L 545.352192 388.400586 
L 545.642496 388.420213 
L 546.513408 388.518347 
L 546.803712 388.537974 
L 547.674624 388.636107 
L 547.964928 388.655734 
L 548.83584 388.753868 
L 549.126144 388.773495 
L 550.093824 388.871629 
L 550.384128 388.891256 
L 551.351808 388.989389 
L 551.642112 389.009016 
L 552.70656 389.10715 
L 552.996864 389.126777 
L 554.15808 389.224911 
L 554.448384 389.244538 
L 555.6096 389.342671 
L 555.899904 389.362298 
L 557.157888 389.460432 
L 557.448192 389.480059 
L 558.802944 389.578193 
L 559.093248 389.59782 
L 560.544768 389.695953 
L 560.835072 389.71558 
L 562.286592 389.813714 
L 562.54464 389.829416 
L 564.221952 389.931475 
L 564.512256 389.951102 
L 566.25408 390.049235 
L 566.544384 390.068862 
L 568.479744 390.166996 
L 568.770048 390.186623 
L 570.802176 390.284757 
L 571.09248 390.304384 
L 573.447168 390.414294 
L 574.705152 390.461398 
L 575.318016 390.496726 
L 576.608256 390.53598 
L 576.640512 390.767576 
L 576.705024 390.516353 
L 577.124352 390.524204 
L 577.575936 390.571308 
L 580.28544 390.677292 
L 580.543488 390.692994 
L 583.769088 390.795053 
L 584.027136 390.810755 
L 587.736576 390.912814 
L 588.091392 390.928515 
L 592.187904 391.030574 
L 592.54272 391.046276 
L 597.413376 391.148335 
L 597.768192 391.164037 
L 603.703296 391.266096 
L 604.058112 391.281797 
L 611.638272 391.383856 
L 611.89632 391.399558 
L 657.248256 391.415259 
L 657.280512 391.548721 
L 657.345024 391.368155 
L 657.635328 391.391707 
L 737.888256 391.395633 
L 737.920512 391.595826 
L 737.985024 391.395633 
L 738.17856 391.376006 
L 739.275264 391.399558 
L 818.528256 391.395633 
L 818.560512 391.595826 
L 818.625024 391.395633 
L 818.81856 391.376006 
L 819.915264 391.399558 
L 899.168256 391.395633 
L 899.200512 391.595826 
L 899.265024 391.395633 
L 899.45856 391.376006 
L 900.555264 391.399558 
L 947.52 391.399558 
L 947.52 391.399558 
" clip-path="url(#p619137afa2)" style="fill: none; stroke: #ff00ff; stroke-width: 2; stroke-linecap: square"/>
   </g>
   <g id="patch_22">
    <path d="M 100.8 465.442759 
L 100.8 372.711724 
" style="fill: none; stroke: #bcbcbc; stroke-width: 0.8; stroke-linejoin: miter; stroke-linecap: square"/>
   </g>
   <g id="patch_23">
    <path d="M 987.84 465.442759 
L 987.84 372.711724 
" style="fill: none; stroke: #bcbcbc; stroke-width: 0.8; stroke-linejoin: miter; stroke-linecap: square"/>
   </g>
   <g id="patch_24">
    <path d="M 100.8 465.442759 
L 987.84 465.442759 
" style="fill: none; stroke: #bcbcbc; stroke-width: 0.8; stroke-linejoin: miter; stroke-linecap: square"/>
   </g>
   <g id="patch_25">
    <path d="M 100.8 372.711724 
L 987.84 372.711724 
" style="fill: none; stroke: #bcbcbc; stroke-width: 0.8; stroke-linejoin: miter; stroke-linecap: square"/>
   </g>
  </g>
  <g id="axes_5">
   <g id="patch_26">
    <path d="M 100.8 576.72 
L 987.84 576.72 
L 987.84 483.988966 
L 100.8 483.988966 
z
" style="fill: #eeeeee"/>
   </g>
   <g id="matplotlib.axis_9">
    <g id="xtick_25">
     <g id="line2d_71">
      <path d="M 141.12 576.72 
L 141.12 483.988966 
" clip-path="url(#p75da7cb21f)" style="fill: none; stroke-dasharray: 1.85,0.8; stroke-dashoffset: 0; stroke: #b2b2b2; stroke-width: 0.5"/>
     </g>
     <g id="line2d_72">
      <g>
       <use xlink:href="#m8ba8b0e6fb" x="141.12" y="576.72" style="stroke: #000000; stroke-width: 0.8"/>
      </g>
     </g>
     <g id="text_14">
      <!-- 0 s -->
      <g transform="translate(130.795 590.857813) scale(0.14 -0.14)">
       <defs>
        <path id="DejaVuSans-73" d="M 2834 3397 
L 2834 2853 
Q 2591 2978 2328 3040 
Q 2066 3103 1784 3103 
Q 1356 3103 1142 2972 
Q 928 2841 928 2578 
Q 928 2378 1081 2264 
Q 1234 2150 1697 2047 
L 1894 2003 
Q 2506 1872 2764 1633 
Q 3022 1394 3022 966 
Q 3022 478 2636 193 
Q 2250 -91 1575 -91 
Q 1294 -91 989 -36 
Q 684 19 347 128 
L 347 722 
Q 666 556 975 473 
Q 1284 391 1588 391 
Q 1994 391 2212 530 
Q 2431 669 2431 922 
Q 2431 1156 2273 1281 
Q 2116 1406 1581 1522 
L 1381 1569 
Q 847 1681 609 1914 
Q 372 2147 372 2553 
Q 372 3047 722 3315 
Q 1072 3584 1716 3584 
Q 2034 3584 2315 3537 
Q 2597 3491 2834 3397 
z
" transform="scale(0.015625)"/>
       </defs>
       <use xlink:href="#DejaVuSans-30"/>
       <use xlink:href="#DejaVuSans-20" x="63.623047"/>
       <use xlink:href="#DejaVuSans-73" x="95.410156"/>
      </g>
     </g>
    </g>
    <g id="xtick_26">
     <g id="line2d_73">
      <path d="M 302.4 576.72 
L 302.4 483.988966 
" clip-path="url(#p75da7cb21f)" style="fill: none; stroke-dasharray: 1.85,0.8; stroke-dashoffset: 0; stroke: #b2b2b2; stroke-width: 0.5"/>
     </g>
     <g id="line2d_74">
      <g>
       <use xlink:href="#m8ba8b0e6fb" x="302.4" y="576.72" style="stroke: #000000; stroke-width: 0.8"/>
      </g>
     </g>
     <g id="text_15">
      <!-- 50 ns -->
      <g transform="translate(283.185 590.857813) scale(0.14 -0.14)">
       <defs>
        <path id="DejaVuSans-35" d="M 691 4666 
L 3169 4666 
L 3169 4134 
L 1269 4134 
L 1269 2991 
Q 1406 3038 1543 3061 
Q 1681 3084 1819 3084 
Q 2600 3084 3056 2656 
Q 3513 2228 3513 1497 
Q 3513 744 3044 326 
Q 2575 -91 1722 -91 
Q 1428 -91 1123 -41 
Q 819 9 494 109 
L 494 744 
Q 775 591 1075 516 
Q 1375 441 1709 441 
Q 2250 441 2565 725 
Q 2881 1009 2881 1497 
Q 2881 1984 2565 2268 
Q 2250 2553 1709 2553 
Q 1456 2553 1204 2497 
Q 953 2441 691 2322 
L 691 4666 
z
" transform="scale(0.015625)"/>
        <path id="DejaVuSans-6e" d="M 3513 2113 
L 3513 0 
L 2938 0 
L 2938 2094 
Q 2938 2591 2744 2837 
Q 2550 3084 2163 3084 
Q 1697 3084 1428 2787 
Q 1159 2491 1159 1978 
L 1159 0 
L 581 0 
L 581 3500 
L 1159 3500 
L 1159 2956 
Q 1366 3272 1645 3428 
Q 1925 3584 2291 3584 
Q 2894 3584 3203 3211 
Q 3513 2838 3513 2113 
z
" transform="scale(0.015625)"/>
       </defs>
       <use xlink:href="#DejaVuSans-35"/>
       <use xlink:href="#DejaVuSans-30" x="63.623047"/>
       <use xlink:href="#DejaVuSans-20" x="127.246094"/>
       <use xlink:href="#DejaVuSans-6e" x="159.033203"/>
       <use xlink:href="#DejaVuSans-73" x="222.412109"/>
      </g>
     </g>
    </g>
    <g id="xtick_27">
     <g id="line2d_75">
      <path d="M 463.68 576.72 
L 463.68 483.988966 
" clip-path="url(#p75da7cb21f)" style="fill: none; stroke-dasharray: 1.85,0.8; stroke-dashoffset: 0; stroke: #b2b2b2; stroke-width: 0.5"/>
     </g>
     <g id="line2d_76">
      <g>
       <use xlink:href="#m8ba8b0e6fb" x="463.68" y="576.72" style="stroke: #000000; stroke-width: 0.8"/>
      </g>
     </g>
     <g id="text_16">
      <!-- 100 ns -->
      <g transform="translate(440.01125 590.857813) scale(0.14 -0.14)">
       <use xlink:href="#DejaVuSans-31"/>
       <use xlink:href="#DejaVuSans-30" x="63.623047"/>
       <use xlink:href="#DejaVuSans-30" x="127.246094"/>
       <use xlink:href="#DejaVuSans-20" x="190.869141"/>
       <use xlink:href="#DejaVuSans-6e" x="222.65625"/>
       <use xlink:href="#DejaVuSans-73" x="286.035156"/>
      </g>
     </g>
    </g>
    <g id="xtick_28">
     <g id="line2d_77">
      <path d="M 624.96 576.72 
L 624.96 483.988966 
" clip-path="url(#p75da7cb21f)" style="fill: none; stroke-dasharray: 1.85,0.8; stroke-dashoffset: 0; stroke: #b2b2b2; stroke-width: 0.5"/>
     </g>
     <g id="line2d_78">
      <g>
       <use xlink:href="#m8ba8b0e6fb" x="624.96" y="576.72" style="stroke: #000000; stroke-width: 0.8"/>
      </g>
     </g>
     <g id="text_17">
      <!-- 150 ns -->
      <g transform="translate(601.29125 590.857813) scale(0.14 -0.14)">
       <use xlink:href="#DejaVuSans-31"/>
       <use xlink:href="#DejaVuSans-35" x="63.623047"/>
       <use xlink:href="#DejaVuSans-30" x="127.246094"/>
       <use xlink:href="#DejaVuSans-20" x="190.869141"/>
       <use xlink:href="#DejaVuSans-6e" x="222.65625"/>
       <use xlink:href="#DejaVuSans-73" x="286.035156"/>
      </g>
     </g>
    </g>
    <g id="xtick_29">
     <g id="line2d_79">
      <path d="M 786.24 576.72 
L 786.24 483.988966 
" clip-path="url(#p75da7cb21f)" style="fill: none; stroke-dasharray: 1.85,0.8; stroke-dashoffset: 0; stroke: #b2b2b2; stroke-width: 0.5"/>
     </g>
     <g id="line2d_80">
      <g>
       <use xlink:href="#m8ba8b0e6fb" x="786.24" y="576.72" style="stroke: #000000; stroke-width: 0.8"/>
      </g>
     </g>
     <g id="text_18">
      <!-- 200 ns -->
      <g transform="translate(762.57125 590.857813) scale(0.14 -0.14)">
       <use xlink:href="#DejaVuSans-32"/>
       <use xlink:href="#DejaVuSans-30" x="63.623047"/>
       <use xlink:href="#DejaVuSans-30" x="127.246094"/>
       <use xlink:href="#DejaVuSans-20" x="190.869141"/>
       <use xlink:href="#DejaVuSans-6e" x="222.65625"/>
       <use xlink:href="#DejaVuSans-73" x="286.035156"/>
      </g>
     </g>
    </g>
    <g id="xtick_30">
     <g id="line2d_81">
      <path d="M 947.52 576.72 
L 947.52 483.988966 
" clip-path="url(#p75da7cb21f)" style="fill: none; stroke-dasharray: 1.85,0.8; stroke-dashoffset: 0; stroke: #b2b2b2; stroke-width: 0.5"/>
     </g>
     <g id="line2d_82">
      <g>
       <use xlink:href="#m8ba8b0e6fb" x="947.52" y="576.72" style="stroke: #000000; stroke-width: 0.8"/>
      </g>
     </g>
     <g id="text_19">
      <!-- 250 ns -->
      <g transform="translate(923.85125 590.857813) scale(0.14 -0.14)">
       <use xlink:href="#DejaVuSans-32"/>
       <use xlink:href="#DejaVuSans-35" x="63.623047"/>
       <use xlink:href="#DejaVuSans-30" x="127.246094"/>
       <use xlink:href="#DejaVuSans-20" x="190.869141"/>
       <use xlink:href="#DejaVuSans-6e" x="222.65625"/>
       <use xlink:href="#DejaVuSans-73" x="286.035156"/>
      </g>
     </g>
    </g>
    <g id="text_20">
     <!-- Time -->
     <g transform="translate(527.192969 608.407187) scale(0.14 -0.14)">
      <defs>
       <path id="DejaVuSans-69" d="M 603 3500 
L 1178 3500 
L 1178 0 
L 603 0 
L 603 3500 
z
M 603 4863 
L 1178 4863 
L 1178 4134 
L 603 4134 
L 603 4863 
z
" transform="scale(0.015625)"/>
       <path id="DejaVuSans-6d" d="M 3328 2828 
Q 3544 3216 3844 3400 
Q 4144 3584 4550 3584 
Q 5097 3584 5394 3201 
Q 5691 2819 5691 2113 
L 5691 0 
L 5113 0 
L 5113 2094 
Q 5113 2597 4934 2840 
Q 4756 3084 4391 3084 
Q 3944 3084 3684 2787 
Q 3425 2491 3425 1978 
L 3425 0 
L 2847 0 
L 2847 2094 
Q 2847 2600 2669 2842 
Q 2491 3084 2119 3084 
Q 1678 3084 1418 2786 
Q 1159 2488 1159 1978 
L 1159 0 
L 581 0 
L 581 3500 
L 1159 3500 
L 1159 2956 
Q 1356 3278 1631 3431 
Q 1906 3584 2284 3584 
Q 2666 3584 2933 3390 
Q 3200 3197 3328 2828 
z
" transform="scale(0.015625)"/>
       <path id="DejaVuSans-65" d="M 3597 1894 
L 3597 1613 
L 953 1613 
Q 991 1019 1311 708 
Q 1631 397 2203 397 
Q 2534 397 2845 478 
Q 3156 559 3463 722 
L 3463 178 
Q 3153 47 2828 -22 
Q 2503 -91 2169 -91 
Q 1331 -91 842 396 
Q 353 884 353 1716 
Q 353 2575 817 3079 
Q 1281 3584 2069 3584 
Q 2775 3584 3186 3129 
Q 3597 2675 3597 1894 
z
M 3022 2063 
Q 3016 2534 2758 2815 
Q 2500 3097 2075 3097 
Q 1594 3097 1305 2825 
Q 1016 2553 972 2059 
L 3022 2063 
z
" transform="scale(0.015625)"/>
      </defs>
      <use xlink:href="#DejaVuSans-54"/>
      <use xlink:href="#DejaVuSans-69" x="57.958984"/>
      <use xlink:href="#DejaVuSans-6d" x="85.742188"/>
      <use xlink:href="#DejaVuSans-65" x="183.154297"/>
     </g>
    </g>
   </g>
   <g id="matplotlib.axis_10">
    <g id="ytick_10">
     <g id="line2d_83">
      <path d="M 100.8 569.737898 
L 987.84 569.737898 
" clip-path="url(#p75da7cb21f)" style="fill: none; stroke-dasharray: 1.85,0.8; stroke-dashoffset: 0; stroke: #b2b2b2; stroke-width: 0.5"/>
     </g>
     <g id="line2d_84">
      <g>
       <use xlink:href="#me6b6d091fd" x="100.8" y="569.737898" style="stroke: #000000; stroke-width: 0.8"/>
      </g>
     </g>
     <g id="text_21">
      <!-- 0 V -->
      <g transform="translate(74.36625 575.056805) scale(0.14 -0.14)">
       <use xlink:href="#DejaVuSans-30"/>
       <use xlink:href="#DejaVuSans-20" x="63.623047"/>
       <use xlink:href="#DejaVuSans-56" x="95.410156"/>
      </g>
     </g>
    </g>
    <g id="ytick_11">
     <g id="line2d_85">
      <path d="M 100.8 535.84453 
L 987.84 535.84453 
" clip-path="url(#p75da7cb21f)" style="fill: none; stroke-dasharray: 1.85,0.8; stroke-dashoffset: 0; stroke: #b2b2b2; stroke-width: 0.5"/>
     </g>
     <g id="line2d_86">
      <g>
       <use xlink:href="#me6b6d091fd" x="100.8" y="535.84453" style="stroke: #000000; stroke-width: 0.8"/>
      </g>
     </g>
     <g id="text_22">
      <!-- 500 mV -->
      <g transform="translate(42.914375 541.163437) scale(0.14 -0.14)">
       <use xlink:href="#DejaVuSans-35"/>
       <use xlink:href="#DejaVuSans-30" x="63.623047"/>
       <use xlink:href="#DejaVuSans-30" x="127.246094"/>
       <use xlink:href="#DejaVuSans-20" x="190.869141"/>
       <use xlink:href="#DejaVuSans-6d" x="222.65625"/>
       <use xlink:href="#DejaVuSans-56" x="320.068359"/>
      </g>
     </g>
    </g>
    <g id="ytick_12">
     <g id="line2d_87">
      <path d="M 100.8 501.951163 
L 987.84 501.951163 
" clip-path="url(#p75da7cb21f)" style="fill: none; stroke-dasharray: 1.85,0.8; stroke-dashoffset: 0; stroke: #b2b2b2; stroke-width: 0.5"/>
     </g>
     <g id="line2d_88">
      <g>
       <use xlink:href="#me6b6d091fd" x="100.8" y="501.951163" style="stroke: #000000; stroke-width: 0.8"/>
      </g>
     </g>
     <g id="text_23">
      <!-- 1 V -->
      <g transform="translate(74.36625 507.270069) scale(0.14 -0.14)">
       <use xlink:href="#DejaVuSans-31"/>
       <use xlink:href="#DejaVuSans-20" x="63.623047"/>
       <use xlink:href="#DejaVuSans-56" x="95.410156"/>
      </g>
     </g>
    </g>
    <g id="text_24">
     <g id="patch_27">
      <path d="M 34.8768 554.329483 
L 34.8768 506.379483 
L 11.247425 506.379483 
L 11.247425 554.329483 
z
" style="fill: #ffff00; opacity: 0.2; stroke: #eeeeee; stroke-width: 0.5; stroke-linejoin: miter"/>
     </g>
     <!-- FOUT -->
     <g transform="translate(26.925238 549.289483) rotate(-90) scale(0.14 -0.14)">
      <use xlink:href="#DejaVuSans-46"/>
      <use xlink:href="#DejaVuSans-4f" x="57.519531"/>
      <use xlink:href="#DejaVuSans-55" x="136.230469"/>
      <use xlink:href="#DejaVuSans-54" x="209.423828"/>
     </g>
    </g>
   </g>
   <g id="line2d_89">
    <path d="M 141.12 488.393815 
L 173.472768 488.400594 
L 173.505024 488.204013 
L 173.569536 526.657394 
L 173.69856 572.504953 
L 173.730816 572.369108 
L 173.827584 567.828617 
L 173.892096 569.351799 
L 174.053376 570.057126 
L 174.117888 569.939259 
L 174.408192 569.483332 
L 174.440448 569.532932 
L 174.66624 569.721921 
L 176.182272 569.732147 
L 180.085248 569.753796 
L 193.568256 569.74419 
L 212.8896 569.73602 
L 255.30624 569.735711 
L 255.6288 488.285357 
L 255.854592 488.427709 
L 256.209408 488.387037 
L 334.849536 488.407373 
L 334.881792 492.623708 
L 335.043072 572.18283 
L 335.107584 570.254711 
L 335.172096 568.326579 
L 335.236608 568.859586 
L 335.365632 570.778018 
L 335.430144 570.404018 
L 335.591424 569.789374 
L 335.881728 569.64017 
L 336.559104 569.810146 
L 337.107456 569.738156 
L 349.9776 569.736214 
L 431.230464 569.81226 
L 431.26272 569.851001 
L 431.327232 568.557325 
L 431.424 528.348673 
L 431.58528 488.793757 
L 431.714304 488.400594 
L 433.552896 488.400594 
L 433.649664 505.179167 
L 433.810944 569.741872 
L 434.391552 569.736213 
L 496.806912 569.729411 
L 496.839168 569.966428 
L 496.90368 551.361592 
L 497.06496 489.247928 
L 497.193984 488.400594 
L 947.52 488.393815 
L 947.52 488.393815 
" clip-path="url(#p75da7cb21f)" style="fill: none; stroke: #ff00ff; stroke-width: 2; stroke-linecap: square"/>
   </g>
   <g id="patch_28">
    <path d="M 100.8 576.72 
L 100.8 483.988966 
" style="fill: none; stroke: #bcbcbc; stroke-width: 0.8; stroke-linejoin: miter; stroke-linecap: square"/>
   </g>
   <g id="patch_29">
    <path d="M 987.84 576.72 
L 987.84 483.988966 
" style="fill: none; stroke: #bcbcbc; stroke-width: 0.8; stroke-linejoin: miter; stroke-linecap: square"/>
   </g>
   <g id="patch_30">
    <path d="M 100.8 576.72 
L 987.84 576.72 
" style="fill: none; stroke: #bcbcbc; stroke-width: 0.8; stroke-linejoin: miter; stroke-linecap: square"/>
   </g>
   <g id="patch_31">
    <path d="M 100.8 483.988966 
L 987.84 483.988966 
" style="fill: none; stroke: #bcbcbc; stroke-width: 0.8; stroke-linejoin: miter; stroke-linecap: square"/>
   </g>
  </g>
  <g id="axes_6">
   <g id="patch_32">
    <path d="M 201.6 628.56 
L 856.8 628.56 
L 856.8 615.6 
L 201.6 615.6 
z
" clip-path="url(#pd0ec3eb942)" style="fill: #d3d3d3"/>
   </g>
   <g id="patch_33">
    <path d="M 201.6 628.56 
L 463.68 628.56 
L 463.68 615.6 
L 201.6 615.6 
z
" clip-path="url(#pd0ec3eb942)" style="fill: #0000ff"/>
   </g>
   <g id="line2d_90">
    <path d="M 201.6 635.04 
L 201.6 609.12 
" clip-path="url(#p2c718ffffc)" style="fill: none; stroke: #ff0000; stroke-linecap: square"/>
   </g>
   <g id="line2d_91">
    <defs>
     <path id="m6bff197111" d="M 0 5 
C 1.326016 5 2.597899 4.473168 3.535534 3.535534 
C 4.473168 2.597899 5 1.326016 5 0 
C 5 -1.326016 4.473168 -2.597899 3.535534 -3.535534 
C 2.597899 -4.473168 1.326016 -5 0 -5 
C -1.326016 -5 -2.597899 -4.473168 -3.535534 -3.535534 
C -4.473168 -2.597899 -5 -1.326016 -5 0 
C -5 1.326016 -4.473168 2.597899 -3.535534 3.535534 
C -2.597899 4.473168 -1.326016 5 0 5 
z
" style="stroke: #bfbfbf"/>
    </defs>
    <g>
     <use xlink:href="#m6bff197111" x="463.68" y="622.08" style="fill: #ffffff; stroke: #bfbfbf"/>
    </g>
   </g>
   <g id="text_25">
    <!-- #Sweep -->
    <g transform="translate(138.622875 625.39125) scale(0.12 -0.12)">
     <defs>
      <path id="DejaVuSans-23" d="M 3272 2816 
L 2363 2816 
L 2100 1772 
L 3016 1772 
L 3272 2816 
z
M 2803 4594 
L 2478 3297 
L 3391 3297 
L 3719 4594 
L 4219 4594 
L 3897 3297 
L 4872 3297 
L 4872 2816 
L 3775 2816 
L 3519 1772 
L 4513 1772 
L 4513 1294 
L 3397 1294 
L 3072 0 
L 2572 0 
L 2894 1294 
L 1978 1294 
L 1656 0 
L 1153 0 
L 1478 1294 
L 494 1294 
L 494 1772 
L 1594 1772 
L 1856 2816 
L 850 2816 
L 850 3297 
L 1978 3297 
L 2297 4594 
L 2803 4594 
z
" transform="scale(0.015625)"/>
      <path id="DejaVuSans-77" d="M 269 3500 
L 844 3500 
L 1563 769 
L 2278 3500 
L 2956 3500 
L 3675 769 
L 4391 3500 
L 4966 3500 
L 4050 0 
L 3372 0 
L 2619 2869 
L 1863 0 
L 1184 0 
L 269 3500 
z
" transform="scale(0.015625)"/>
      <path id="DejaVuSans-70" d="M 1159 525 
L 1159 -1331 
L 581 -1331 
L 581 3500 
L 1159 3500 
L 1159 2969 
Q 1341 3281 1617 3432 
Q 1894 3584 2278 3584 
Q 2916 3584 3314 3078 
Q 3713 2572 3713 1747 
Q 3713 922 3314 415 
Q 2916 -91 2278 -91 
Q 1894 -91 1617 61 
Q 1341 213 1159 525 
z
M 3116 1747 
Q 3116 2381 2855 2742 
Q 2594 3103 2138 3103 
Q 1681 3103 1420 2742 
Q 1159 2381 1159 1747 
Q 1159 1113 1420 752 
Q 1681 391 2138 391 
Q 2594 391 2855 752 
Q 3116 1113 3116 1747 
z
" transform="scale(0.015625)"/>
     </defs>
     <use xlink:href="#DejaVuSans-23"/>
     <use xlink:href="#DejaVuSans-53" x="83.789062"/>
     <use xlink:href="#DejaVuSans-77" x="147.265625"/>
     <use xlink:href="#DejaVuSans-65" x="229.052734"/>
     <use xlink:href="#DejaVuSans-65" x="290.576172"/>
     <use xlink:href="#DejaVuSans-70" x="352.099609"/>
    </g>
   </g>
   <g id="text_26">
    <!-- $\mathdefault{56}$ -->
    <g transform="translate(869.904 625.39125) scale(0.12 -0.12)">
     <defs>
      <path id="DejaVuSans-36" d="M 2113 2584 
Q 1688 2584 1439 2293 
Q 1191 2003 1191 1497 
Q 1191 994 1439 701 
Q 1688 409 2113 409 
Q 2538 409 2786 701 
Q 3034 994 3034 1497 
Q 3034 2003 2786 2293 
Q 2538 2584 2113 2584 
z
M 3366 4563 
L 3366 3988 
Q 3128 4100 2886 4159 
Q 2644 4219 2406 4219 
Q 1781 4219 1451 3797 
Q 1122 3375 1075 2522 
Q 1259 2794 1537 2939 
Q 1816 3084 2150 3084 
Q 2853 3084 3261 2657 
Q 3669 2231 3669 1497 
Q 3669 778 3244 343 
Q 2819 -91 2113 -91 
Q 1303 -91 875 529 
Q 447 1150 447 2328 
Q 447 3434 972 4092 
Q 1497 4750 2381 4750 
Q 2619 4750 2861 4703 
Q 3103 4656 3366 4563 
z
" transform="scale(0.015625)"/>
     </defs>
     <use xlink:href="#DejaVuSans-35" transform="translate(0 0.78125)"/>
     <use xlink:href="#DejaVuSans-36" transform="translate(63.623047 0.78125)"/>
    </g>
   </g>
  </g>
  <g id="text_27">
   <!-- DFF under BBI sweep analysis (Sweep = 66E-9) -->
   <g transform="translate(313.34625 25.1175) scale(0.16 -0.16)">
    <defs>
     <path id="DejaVuSans-75" d="M 544 1381 
L 544 3500 
L 1119 3500 
L 1119 1403 
Q 1119 906 1312 657 
Q 1506 409 1894 409 
Q 2359 409 2629 706 
Q 2900 1003 2900 1516 
L 2900 3500 
L 3475 3500 
L 3475 0 
L 2900 0 
L 2900 538 
Q 2691 219 2414 64 
Q 2138 -91 1772 -91 
Q 1169 -91 856 284 
Q 544 659 544 1381 
z
M 1991 3584 
L 1991 3584 
z
" transform="scale(0.015625)"/>
     <path id="DejaVuSans-64" d="M 2906 2969 
L 2906 4863 
L 3481 4863 
L 3481 0 
L 2906 0 
L 2906 525 
Q 2725 213 2448 61 
Q 2172 -91 1784 -91 
Q 1150 -91 751 415 
Q 353 922 353 1747 
Q 353 2572 751 3078 
Q 1150 3584 1784 3584 
Q 2172 3584 2448 3432 
Q 2725 3281 2906 2969 
z
M 947 1747 
Q 947 1113 1208 752 
Q 1469 391 1925 391 
Q 2381 391 2643 752 
Q 2906 1113 2906 1747 
Q 2906 2381 2643 2742 
Q 2381 3103 1925 3103 
Q 1469 3103 1208 2742 
Q 947 2381 947 1747 
z
" transform="scale(0.015625)"/>
     <path id="DejaVuSans-72" d="M 2631 2963 
Q 2534 3019 2420 3045 
Q 2306 3072 2169 3072 
Q 1681 3072 1420 2755 
Q 1159 2438 1159 1844 
L 1159 0 
L 581 0 
L 581 3500 
L 1159 3500 
L 1159 2956 
Q 1341 3275 1631 3429 
Q 1922 3584 2338 3584 
Q 2397 3584 2469 3576 
Q 2541 3569 2628 3553 
L 2631 2963 
z
" transform="scale(0.015625)"/>
     <path id="DejaVuSans-61" d="M 2194 1759 
Q 1497 1759 1228 1600 
Q 959 1441 959 1056 
Q 959 750 1161 570 
Q 1363 391 1709 391 
Q 2188 391 2477 730 
Q 2766 1069 2766 1631 
L 2766 1759 
L 2194 1759 
z
M 3341 1997 
L 3341 0 
L 2766 0 
L 2766 531 
Q 2569 213 2275 61 
Q 1981 -91 1556 -91 
Q 1019 -91 701 211 
Q 384 513 384 1019 
Q 384 1609 779 1909 
Q 1175 2209 1959 2209 
L 2766 2209 
L 2766 2266 
Q 2766 2663 2505 2880 
Q 2244 3097 1772 3097 
Q 1472 3097 1187 3025 
Q 903 2953 641 2809 
L 641 3341 
Q 956 3463 1253 3523 
Q 1550 3584 1831 3584 
Q 2591 3584 2966 3190 
Q 3341 2797 3341 1997 
z
" transform="scale(0.015625)"/>
     <path id="DejaVuSans-6c" d="M 603 4863 
L 1178 4863 
L 1178 0 
L 603 0 
L 603 4863 
z
" transform="scale(0.015625)"/>
     <path id="DejaVuSans-79" d="M 2059 -325 
Q 1816 -950 1584 -1140 
Q 1353 -1331 966 -1331 
L 506 -1331 
L 506 -850 
L 844 -850 
Q 1081 -850 1212 -737 
Q 1344 -625 1503 -206 
L 1606 56 
L 191 3500 
L 800 3500 
L 1894 763 
L 2988 3500 
L 3597 3500 
L 2059 -325 
z
" transform="scale(0.015625)"/>
     <path id="DejaVuSans-28" d="M 1984 4856 
Q 1566 4138 1362 3434 
Q 1159 2731 1159 2009 
Q 1159 1288 1364 580 
Q 1569 -128 1984 -844 
L 1484 -844 
Q 1016 -109 783 600 
Q 550 1309 550 2009 
Q 550 2706 781 3412 
Q 1013 4119 1484 4856 
L 1984 4856 
z
" transform="scale(0.015625)"/>
     <path id="DejaVuSans-3d" d="M 678 2906 
L 4684 2906 
L 4684 2381 
L 678 2381 
L 678 2906 
z
M 678 1631 
L 4684 1631 
L 4684 1100 
L 678 1100 
L 678 1631 
z
" transform="scale(0.015625)"/>
     <path id="DejaVuSans-2d" d="M 313 2009 
L 1997 2009 
L 1997 1497 
L 313 1497 
L 313 2009 
z
" transform="scale(0.015625)"/>
     <path id="DejaVuSans-39" d="M 703 97 
L 703 672 
Q 941 559 1184 500 
Q 1428 441 1663 441 
Q 2288 441 2617 861 
Q 2947 1281 2994 2138 
Q 2813 1869 2534 1725 
Q 2256 1581 1919 1581 
Q 1219 1581 811 2004 
Q 403 2428 403 3163 
Q 403 3881 828 4315 
Q 1253 4750 1959 4750 
Q 2769 4750 3195 4129 
Q 3622 3509 3622 2328 
Q 3622 1225 3098 567 
Q 2575 -91 1691 -91 
Q 1453 -91 1209 -44 
Q 966 3 703 97 
z
M 1959 2075 
Q 2384 2075 2632 2365 
Q 2881 2656 2881 3163 
Q 2881 3666 2632 3958 
Q 2384 4250 1959 4250 
Q 1534 4250 1286 3958 
Q 1038 3666 1038 3163 
Q 1038 2656 1286 2365 
Q 1534 2075 1959 2075 
z
" transform="scale(0.015625)"/>
     <path id="DejaVuSans-29" d="M 513 4856 
L 1013 4856 
Q 1481 4119 1714 3412 
Q 1947 2706 1947 2009 
Q 1947 1309 1714 600 
Q 1481 -109 1013 -844 
L 513 -844 
Q 928 -128 1133 580 
Q 1338 1288 1338 2009 
Q 1338 2731 1133 3434 
Q 928 4138 513 4856 
z
" transform="scale(0.015625)"/>
    </defs>
    <use xlink:href="#DejaVuSans-44"/>
    <use xlink:href="#DejaVuSans-46" x="77.001953"/>
    <use xlink:href="#DejaVuSans-46" x="134.521484"/>
    <use xlink:href="#DejaVuSans-20" x="192.041016"/>
    <use xlink:href="#DejaVuSans-75" x="223.828125"/>
    <use xlink:href="#DejaVuSans-6e" x="287.207031"/>
    <use xlink:href="#DejaVuSans-64" x="350.585938"/>
    <use xlink:href="#DejaVuSans-65" x="414.0625"/>
    <use xlink:href="#DejaVuSans-72" x="475.585938"/>
    <use xlink:href="#DejaVuSans-20" x="516.699219"/>
    <use xlink:href="#DejaVuSans-42" x="548.486328"/>
    <use xlink:href="#DejaVuSans-42" x="617.089844"/>
    <use xlink:href="#DejaVuSans-49" x="685.693359"/>
    <use xlink:href="#DejaVuSans-20" x="715.185547"/>
    <use xlink:href="#DejaVuSans-73" x="746.972656"/>
    <use xlink:href="#DejaVuSans-77" x="799.072266"/>
    <use xlink:href="#DejaVuSans-65" x="880.859375"/>
    <use xlink:href="#DejaVuSans-65" x="942.382812"/>
    <use xlink:href="#DejaVuSans-70" x="1003.90625"/>
    <use xlink:href="#DejaVuSans-20" x="1067.382812"/>
    <use xlink:href="#DejaVuSans-61" x="1099.169922"/>
    <use xlink:href="#DejaVuSans-6e" x="1160.449219"/>
    <use xlink:href="#DejaVuSans-61" x="1223.828125"/>
    <use xlink:href="#DejaVuSans-6c" x="1285.107422"/>
    <use xlink:href="#DejaVuSans-79" x="1312.890625"/>
    <use xlink:href="#DejaVuSans-73" x="1372.070312"/>
    <use xlink:href="#DejaVuSans-69" x="1424.169922"/>
    <use xlink:href="#DejaVuSans-73" x="1451.953125"/>
    <use xlink:href="#DejaVuSans-20" x="1504.052734"/>
    <use xlink:href="#DejaVuSans-28" x="1535.839844"/>
    <use xlink:href="#DejaVuSans-53" x="1574.853516"/>
    <use xlink:href="#DejaVuSans-77" x="1638.330078"/>
    <use xlink:href="#DejaVuSans-65" x="1720.117188"/>
    <use xlink:href="#DejaVuSans-65" x="1781.640625"/>
    <use xlink:href="#DejaVuSans-70" x="1843.164062"/>
    <use xlink:href="#DejaVuSans-20" x="1906.640625"/>
    <use xlink:href="#DejaVuSans-3d" x="1938.427734"/>
    <use xlink:href="#DejaVuSans-20" x="2022.216797"/>
    <use xlink:href="#DejaVuSans-36" x="2054.003906"/>
    <use xlink:href="#DejaVuSans-36" x="2117.626953"/>
    <use xlink:href="#DejaVuSans-45" x="2181.25"/>
    <use xlink:href="#DejaVuSans-2d" x="2244.433594"/>
    <use xlink:href="#DejaVuSans-39" x="2280.517578"/>
    <use xlink:href="#DejaVuSans-29" x="2344.140625"/>
   </g>
  </g>
 </g>
 <defs>
  <clipPath id="p57b99beb4b">
   <rect x="100.8" y="38.88" width="887.04" height="92.731034"/>
  </clipPath>
  <clipPath id="p4de80b483f">
   <rect x="100.8" y="150.157241" width="887.04" height="92.731034"/>
  </clipPath>
  <clipPath id="p9c5ab6b4a9">
   <rect x="100.8" y="261.434483" width="887.04" height="92.731034"/>
  </clipPath>
  <clipPath id="p619137afa2">
   <rect x="100.8" y="372.711724" width="887.04" height="92.731034"/>
  </clipPath>
  <clipPath id="p75da7cb21f">
   <rect x="100.8" y="483.988966" width="887.04" height="92.731034"/>
  </clipPath>
  <clipPath id="pd0ec3eb942">
   <rect x="201.6" y="609.12" width="655.2" height="25.92"/>
  </clipPath>
  <clipPath id="p2c718ffffc">
   <path d="M 201.6 628.56 
L 856.8 628.56 
L 856.8 615.6 
L 201.6 615.6 
z
"/>
  </clipPath>
 </defs>
</svg>
