<?xml version="1.0" encoding="utf-8" standalone="no"?>
<!DOCTYPE svg PUBLIC "-//W3C//DTD SVG 1.1//EN"
  "http://www.w3.org/Graphics/SVG/1.1/DTD/svg11.dtd">
<svg xmlns:xlink="http://www.w3.org/1999/xlink" width="1008pt" height="648pt" viewBox="0 0 1008 648" xmlns="http://www.w3.org/2000/svg" version="1.1">
 <metadata>
  <rdf:RDF xmlns:dc="http://purl.org/dc/elements/1.1/" xmlns:cc="http://creativecommons.org/ns#" xmlns:rdf="http://www.w3.org/1999/02/22-rdf-syntax-ns#">
   <cc:Work>
    <dc:type rdf:resource="http://purl.org/dc/dcmitype/StillImage"/>
    <dc:date>2024-06-03T10:45:50.593155</dc:date>
    <dc:format>image/svg+xml</dc:format>
    <dc:creator>
     <cc:Agent>
      <dc:title>Matplotlib v3.9.0, https://matplotlib.org/</dc:title>
     </cc:Agent>
    </dc:creator>
   </cc:Work>
  </rdf:RDF>
 </metadata>
 <defs>
  <style type="text/css">*{stroke-linejoin: round; stroke-linecap: butt}</style>
 </defs>
 <g id="figure_1">
  <g id="patch_1">
   <path d="M 0 648 
L 1008 648 
L 1008 0 
L 0 0 
z
" style="fill: #ffffff"/>
  </g>
  <g id="axes_1">
   <g id="patch_2">
    <path d="M 100.8 131.611034 
L 987.84 131.611034 
L 987.84 38.88 
L 100.8 38.88 
z
" style="fill: #eeeeee"/>
   </g>
   <g id="matplotlib.axis_1">
    <g id="xtick_1">
     <g id="line2d_1">
      <path d="M 141.12 131.611034 
L 141.12 38.88 
" clip-path="url(#p024db7d32d)" style="fill: none; stroke-dasharray: 1.85,0.8; stroke-dashoffset: 0; stroke: #b2b2b2; stroke-width: 0.5"/>
     </g>
     <g id="line2d_2">
      <defs>
       <path id="mdabbb9edc9" d="M 0 0 
L 0 -3.5 
" style="stroke: #000000; stroke-width: 0.8"/>
      </defs>
      <g>
       <use xlink:href="#mdabbb9edc9" x="141.12" y="131.611034" style="stroke: #000000; stroke-width: 0.8"/>
      </g>
     </g>
    </g>
    <g id="xtick_2">
     <g id="line2d_3">
      <path d="M 302.4 131.611034 
L 302.4 38.88 
" clip-path="url(#p024db7d32d)" style="fill: none; stroke-dasharray: 1.85,0.8; stroke-dashoffset: 0; stroke: #b2b2b2; stroke-width: 0.5"/>
     </g>
     <g id="line2d_4">
      <g>
       <use xlink:href="#mdabbb9edc9" x="302.4" y="131.611034" style="stroke: #000000; stroke-width: 0.8"/>
      </g>
     </g>
    </g>
    <g id="xtick_3">
     <g id="line2d_5">
      <path d="M 463.68 131.611034 
L 463.68 38.88 
" clip-path="url(#p024db7d32d)" style="fill: none; stroke-dasharray: 1.85,0.8; stroke-dashoffset: 0; stroke: #b2b2b2; stroke-width: 0.5"/>
     </g>
     <g id="line2d_6">
      <g>
       <use xlink:href="#mdabbb9edc9" x="463.68" y="131.611034" style="stroke: #000000; stroke-width: 0.8"/>
      </g>
     </g>
    </g>
    <g id="xtick_4">
     <g id="line2d_7">
      <path d="M 624.96 131.611034 
L 624.96 38.88 
" clip-path="url(#p024db7d32d)" style="fill: none; stroke-dasharray: 1.85,0.8; stroke-dashoffset: 0; stroke: #b2b2b2; stroke-width: 0.5"/>
     </g>
     <g id="line2d_8">
      <g>
       <use xlink:href="#mdabbb9edc9" x="624.96" y="131.611034" style="stroke: #000000; stroke-width: 0.8"/>
      </g>
     </g>
    </g>
    <g id="xtick_5">
     <g id="line2d_9">
      <path d="M 786.24 131.611034 
L 786.24 38.88 
" clip-path="url(#p024db7d32d)" style="fill: none; stroke-dasharray: 1.85,0.8; stroke-dashoffset: 0; stroke: #b2b2b2; stroke-width: 0.5"/>
     </g>
     <g id="line2d_10">
      <g>
       <use xlink:href="#mdabbb9edc9" x="786.24" y="131.611034" style="stroke: #000000; stroke-width: 0.8"/>
      </g>
     </g>
    </g>
    <g id="xtick_6">
     <g id="line2d_11">
      <path d="M 947.52 131.611034 
L 947.52 38.88 
" clip-path="url(#p024db7d32d)" style="fill: none; stroke-dasharray: 1.85,0.8; stroke-dashoffset: 0; stroke: #b2b2b2; stroke-width: 0.5"/>
     </g>
     <g id="line2d_12">
      <g>
       <use xlink:href="#mdabbb9edc9" x="947.52" y="131.611034" style="stroke: #000000; stroke-width: 0.8"/>
      </g>
     </g>
    </g>
   </g>
   <g id="matplotlib.axis_2">
    <g id="ytick_1">
     <g id="line2d_13">
      <path d="M 100.8 98.340394 
L 987.84 98.340394 
" clip-path="url(#p024db7d32d)" style="fill: none; stroke-dasharray: 1.85,0.8; stroke-dashoffset: 0; stroke: #b2b2b2; stroke-width: 0.5"/>
     </g>
     <g id="line2d_14">
      <defs>
       <path id="m65d813b16c" d="M 0 0 
L 3.5 0 
" style="stroke: #000000; stroke-width: 0.8"/>
      </defs>
      <g>
       <use xlink:href="#m65d813b16c" x="100.8" y="98.340394" style="stroke: #000000; stroke-width: 0.8"/>
      </g>
     </g>
     <g id="text_1">
      <!-- −200 V -->
      <g transform="translate(44.819688 103.6593) scale(0.14 -0.14)">
       <defs>
        <path id="DejaVuSans-2212" d="M 678 2272 
L 4684 2272 
L 4684 1741 
L 678 1741 
L 678 2272 
z
" transform="scale(0.015625)"/>
        <path id="DejaVuSans-32" d="M 1228 531 
L 3431 531 
L 3431 0 
L 469 0 
L 469 531 
Q 828 903 1448 1529 
Q 2069 2156 2228 2338 
Q 2531 2678 2651 2914 
Q 2772 3150 2772 3378 
Q 2772 3750 2511 3984 
Q 2250 4219 1831 4219 
Q 1534 4219 1204 4116 
Q 875 4013 500 3803 
L 500 4441 
Q 881 4594 1212 4672 
Q 1544 4750 1819 4750 
Q 2544 4750 2975 4387 
Q 3406 4025 3406 3419 
Q 3406 3131 3298 2873 
Q 3191 2616 2906 2266 
Q 2828 2175 2409 1742 
Q 1991 1309 1228 531 
z
" transform="scale(0.015625)"/>
        <path id="DejaVuSans-30" d="M 2034 4250 
Q 1547 4250 1301 3770 
Q 1056 3291 1056 2328 
Q 1056 1369 1301 889 
Q 1547 409 2034 409 
Q 2525 409 2770 889 
Q 3016 1369 3016 2328 
Q 3016 3291 2770 3770 
Q 2525 4250 2034 4250 
z
M 2034 4750 
Q 2819 4750 3233 4129 
Q 3647 3509 3647 2328 
Q 3647 1150 3233 529 
Q 2819 -91 2034 -91 
Q 1250 -91 836 529 
Q 422 1150 422 2328 
Q 422 3509 836 4129 
Q 1250 4750 2034 4750 
z
" transform="scale(0.015625)"/>
        <path id="DejaVuSans-20" transform="scale(0.015625)"/>
        <path id="DejaVuSans-56" d="M 1831 0 
L 50 4666 
L 709 4666 
L 2188 738 
L 3669 4666 
L 4325 4666 
L 2547 0 
L 1831 0 
z
" transform="scale(0.015625)"/>
       </defs>
       <use xlink:href="#DejaVuSans-2212"/>
       <use xlink:href="#DejaVuSans-32" x="83.789062"/>
       <use xlink:href="#DejaVuSans-30" x="147.412109"/>
       <use xlink:href="#DejaVuSans-30" x="211.035156"/>
       <use xlink:href="#DejaVuSans-20" x="274.658203"/>
       <use xlink:href="#DejaVuSans-56" x="306.445312"/>
      </g>
     </g>
    </g>
    <g id="ytick_2">
     <g id="line2d_15">
      <path d="M 100.8 45.027377 
L 987.84 45.027377 
" clip-path="url(#p024db7d32d)" style="fill: none; stroke-dasharray: 1.85,0.8; stroke-dashoffset: 0; stroke: #b2b2b2; stroke-width: 0.5"/>
     </g>
     <g id="line2d_16">
      <g>
       <use xlink:href="#m65d813b16c" x="100.8" y="45.027377" style="stroke: #000000; stroke-width: 0.8"/>
      </g>
     </g>
     <g id="text_2">
      <!-- 0 V -->
      <g transform="translate(74.36625 50.346284) scale(0.14 -0.14)">
       <use xlink:href="#DejaVuSans-30"/>
       <use xlink:href="#DejaVuSans-20" x="63.623047"/>
       <use xlink:href="#DejaVuSans-56" x="95.410156"/>
      </g>
     </g>
    </g>
    <g id="text_3">
     <g id="patch_3">
      <path d="M 34.8768 131.080205 
L 34.8768 39.41083 
L 11.247425 39.41083 
L 11.247425 131.080205 
z
" style="fill: #ffff00; opacity: 0.2; stroke: #eeeeee; stroke-width: 0.5; stroke-linejoin: miter"/>
     </g>
     <!-- VPULSE BBI -->
     <g transform="translate(26.925238 126.040205) rotate(-90) scale(0.14 -0.14)">
      <defs>
       <path id="DejaVuSans-50" d="M 1259 4147 
L 1259 2394 
L 2053 2394 
Q 2494 2394 2734 2622 
Q 2975 2850 2975 3272 
Q 2975 3691 2734 3919 
Q 2494 4147 2053 4147 
L 1259 4147 
z
M 628 4666 
L 2053 4666 
Q 2838 4666 3239 4311 
Q 3641 3956 3641 3272 
Q 3641 2581 3239 2228 
Q 2838 1875 2053 1875 
L 1259 1875 
L 1259 0 
L 628 0 
L 628 4666 
z
" transform="scale(0.015625)"/>
       <path id="DejaVuSans-55" d="M 556 4666 
L 1191 4666 
L 1191 1831 
Q 1191 1081 1462 751 
Q 1734 422 2344 422 
Q 2950 422 3222 751 
Q 3494 1081 3494 1831 
L 3494 4666 
L 4128 4666 
L 4128 1753 
Q 4128 841 3676 375 
Q 3225 -91 2344 -91 
Q 1459 -91 1007 375 
Q 556 841 556 1753 
L 556 4666 
z
" transform="scale(0.015625)"/>
       <path id="DejaVuSans-4c" d="M 628 4666 
L 1259 4666 
L 1259 531 
L 3531 531 
L 3531 0 
L 628 0 
L 628 4666 
z
" transform="scale(0.015625)"/>
       <path id="DejaVuSans-53" d="M 3425 4513 
L 3425 3897 
Q 3066 4069 2747 4153 
Q 2428 4238 2131 4238 
Q 1616 4238 1336 4038 
Q 1056 3838 1056 3469 
Q 1056 3159 1242 3001 
Q 1428 2844 1947 2747 
L 2328 2669 
Q 3034 2534 3370 2195 
Q 3706 1856 3706 1288 
Q 3706 609 3251 259 
Q 2797 -91 1919 -91 
Q 1588 -91 1214 -16 
Q 841 59 441 206 
L 441 856 
Q 825 641 1194 531 
Q 1563 422 1919 422 
Q 2459 422 2753 634 
Q 3047 847 3047 1241 
Q 3047 1584 2836 1778 
Q 2625 1972 2144 2069 
L 1759 2144 
Q 1053 2284 737 2584 
Q 422 2884 422 3419 
Q 422 4038 858 4394 
Q 1294 4750 2059 4750 
Q 2388 4750 2728 4690 
Q 3069 4631 3425 4513 
z
" transform="scale(0.015625)"/>
       <path id="DejaVuSans-45" d="M 628 4666 
L 3578 4666 
L 3578 4134 
L 1259 4134 
L 1259 2753 
L 3481 2753 
L 3481 2222 
L 1259 2222 
L 1259 531 
L 3634 531 
L 3634 0 
L 628 0 
L 628 4666 
z
" transform="scale(0.015625)"/>
       <path id="DejaVuSans-42" d="M 1259 2228 
L 1259 519 
L 2272 519 
Q 2781 519 3026 730 
Q 3272 941 3272 1375 
Q 3272 1813 3026 2020 
Q 2781 2228 2272 2228 
L 1259 2228 
z
M 1259 4147 
L 1259 2741 
L 2194 2741 
Q 2656 2741 2882 2914 
Q 3109 3088 3109 3444 
Q 3109 3797 2882 3972 
Q 2656 4147 2194 4147 
L 1259 4147 
z
M 628 4666 
L 2241 4666 
Q 2963 4666 3353 4366 
Q 3744 4066 3744 3513 
Q 3744 3084 3544 2831 
Q 3344 2578 2956 2516 
Q 3422 2416 3680 2098 
Q 3938 1781 3938 1306 
Q 3938 681 3513 340 
Q 3088 0 2303 0 
L 628 0 
L 628 4666 
z
" transform="scale(0.015625)"/>
       <path id="DejaVuSans-49" d="M 628 4666 
L 1259 4666 
L 1259 0 
L 628 0 
L 628 4666 
z
" transform="scale(0.015625)"/>
      </defs>
      <use xlink:href="#DejaVuSans-56"/>
      <use xlink:href="#DejaVuSans-50" x="68.408203"/>
      <use xlink:href="#DejaVuSans-55" x="128.710938"/>
      <use xlink:href="#DejaVuSans-4c" x="201.904297"/>
      <use xlink:href="#DejaVuSans-53" x="257.617188"/>
      <use xlink:href="#DejaVuSans-45" x="321.09375"/>
      <use xlink:href="#DejaVuSans-20" x="384.277344"/>
      <use xlink:href="#DejaVuSans-42" x="416.064453"/>
      <use xlink:href="#DejaVuSans-42" x="484.667969"/>
      <use xlink:href="#DejaVuSans-49" x="553.271484"/>
     </g>
    </g>
   </g>
   <g id="line2d_17">
    <path d="M 141.12 45.027377 
L 505.645056 45.136282 
L 506.128896 46.425538 
L 514.354176 69.006772 
L 521.773056 89.863624 
L 523.385856 94.440546 
L 525.192192 99.673219 
L 528.67584 110.807642 
L 530.256384 115.853719 
L 531.482112 119.550977 
L 535.385088 121.36362 
L 535.965696 121.619522 
L 536.836608 122.003376 
L 537.481728 122.269941 
L 539.062272 122.936354 
L 539.707392 123.202919 
L 540.804096 123.629423 
L 541.545984 123.922644 
L 542.642688 124.349149 
L 543.545856 124.677024 
L 544.223232 124.943589 
L 545.029632 125.25547 
L 546.384384 125.804594 
L 549.029376 126.790885 
L 549.64224 127.022796 
L 551.5776 127.395987 
L 570.060288 127.289361 
L 570.28608 126.801547 
L 588.575232 75.087922 
L 592.316928 63.292417 
L 596.026368 51.617666 
L 600.638976 49.3412 
L 605.993472 46.984578 
L 614.702592 43.484472 
L 615.573504 43.268927 
L 629.862912 43.108189 
L 636.668928 43.184799 
L 652.022784 43.746186 
L 679.7952 44.46146 
L 705.43872 44.774399 
L 741.049344 44.945888 
L 789.078528 44.953885 
L 947.52 44.953885 
L 947.52 44.953885 
" clip-path="url(#p024db7d32d)" style="fill: none; stroke: #ff0000; stroke-width: 2; stroke-linecap: square"/>
   </g>
   <g id="patch_4">
    <path d="M 100.8 131.611034 
L 100.8 38.88 
" style="fill: none; stroke: #bcbcbc; stroke-width: 0.8; stroke-linejoin: miter; stroke-linecap: square"/>
   </g>
   <g id="patch_5">
    <path d="M 987.84 131.611034 
L 987.84 38.88 
" style="fill: none; stroke: #bcbcbc; stroke-width: 0.8; stroke-linejoin: miter; stroke-linecap: square"/>
   </g>
   <g id="patch_6">
    <path d="M 100.8 131.611034 
L 987.84 131.611034 
" style="fill: none; stroke: #bcbcbc; stroke-width: 0.8; stroke-linejoin: miter; stroke-linecap: square"/>
   </g>
   <g id="patch_7">
    <path d="M 100.8 38.88 
L 987.84 38.88 
" style="fill: none; stroke: #bcbcbc; stroke-width: 0.8; stroke-linejoin: miter; stroke-linecap: square"/>
   </g>
  </g>
  <g id="axes_2">
   <g id="patch_8">
    <path d="M 100.8 242.888276 
L 987.84 242.888276 
L 987.84 150.157241 
L 100.8 150.157241 
z
" style="fill: #eeeeee"/>
   </g>
   <g id="matplotlib.axis_3">
    <g id="xtick_7">
     <g id="line2d_18">
      <path d="M 141.12 242.888276 
L 141.12 150.157241 
" clip-path="url(#p70886e618d)" style="fill: none; stroke-dasharray: 1.85,0.8; stroke-dashoffset: 0; stroke: #b2b2b2; stroke-width: 0.5"/>
     </g>
     <g id="line2d_19">
      <g>
       <use xlink:href="#mdabbb9edc9" x="141.12" y="242.888276" style="stroke: #000000; stroke-width: 0.8"/>
      </g>
     </g>
    </g>
    <g id="xtick_8">
     <g id="line2d_20">
      <path d="M 302.4 242.888276 
L 302.4 150.157241 
" clip-path="url(#p70886e618d)" style="fill: none; stroke-dasharray: 1.85,0.8; stroke-dashoffset: 0; stroke: #b2b2b2; stroke-width: 0.5"/>
     </g>
     <g id="line2d_21">
      <g>
       <use xlink:href="#mdabbb9edc9" x="302.4" y="242.888276" style="stroke: #000000; stroke-width: 0.8"/>
      </g>
     </g>
    </g>
    <g id="xtick_9">
     <g id="line2d_22">
      <path d="M 463.68 242.888276 
L 463.68 150.157241 
" clip-path="url(#p70886e618d)" style="fill: none; stroke-dasharray: 1.85,0.8; stroke-dashoffset: 0; stroke: #b2b2b2; stroke-width: 0.5"/>
     </g>
     <g id="line2d_23">
      <g>
       <use xlink:href="#mdabbb9edc9" x="463.68" y="242.888276" style="stroke: #000000; stroke-width: 0.8"/>
      </g>
     </g>
    </g>
    <g id="xtick_10">
     <g id="line2d_24">
      <path d="M 624.96 242.888276 
L 624.96 150.157241 
" clip-path="url(#p70886e618d)" style="fill: none; stroke-dasharray: 1.85,0.8; stroke-dashoffset: 0; stroke: #b2b2b2; stroke-width: 0.5"/>
     </g>
     <g id="line2d_25">
      <g>
       <use xlink:href="#mdabbb9edc9" x="624.96" y="242.888276" style="stroke: #000000; stroke-width: 0.8"/>
      </g>
     </g>
    </g>
    <g id="xtick_11">
     <g id="line2d_26">
      <path d="M 786.24 242.888276 
L 786.24 150.157241 
" clip-path="url(#p70886e618d)" style="fill: none; stroke-dasharray: 1.85,0.8; stroke-dashoffset: 0; stroke: #b2b2b2; stroke-width: 0.5"/>
     </g>
     <g id="line2d_27">
      <g>
       <use xlink:href="#mdabbb9edc9" x="786.24" y="242.888276" style="stroke: #000000; stroke-width: 0.8"/>
      </g>
     </g>
    </g>
    <g id="xtick_12">
     <g id="line2d_28">
      <path d="M 947.52 242.888276 
L 947.52 150.157241 
" clip-path="url(#p70886e618d)" style="fill: none; stroke-dasharray: 1.85,0.8; stroke-dashoffset: 0; stroke: #b2b2b2; stroke-width: 0.5"/>
     </g>
     <g id="line2d_29">
      <g>
       <use xlink:href="#mdabbb9edc9" x="947.52" y="242.888276" style="stroke: #000000; stroke-width: 0.8"/>
      </g>
     </g>
    </g>
   </g>
   <g id="matplotlib.axis_4">
    <g id="ytick_3">
     <g id="line2d_30">
      <path d="M 100.8 219.265854 
L 987.84 219.265854 
" clip-path="url(#p70886e618d)" style="fill: none; stroke-dasharray: 1.85,0.8; stroke-dashoffset: 0; stroke: #b2b2b2; stroke-width: 0.5"/>
     </g>
     <g id="line2d_31">
      <g>
       <use xlink:href="#m65d813b16c" x="100.8" y="219.265854" style="stroke: #000000; stroke-width: 0.8"/>
      </g>
     </g>
     <g id="text_4">
      <!-- 0 V -->
      <g transform="translate(74.36625 224.584761) scale(0.14 -0.14)">
       <use xlink:href="#DejaVuSans-30"/>
       <use xlink:href="#DejaVuSans-20" x="63.623047"/>
       <use xlink:href="#DejaVuSans-56" x="95.410156"/>
      </g>
     </g>
    </g>
    <g id="ytick_4">
     <g id="line2d_32">
      <path d="M 100.8 185.732594 
L 987.84 185.732594 
" clip-path="url(#p70886e618d)" style="fill: none; stroke-dasharray: 1.85,0.8; stroke-dashoffset: 0; stroke: #b2b2b2; stroke-width: 0.5"/>
     </g>
     <g id="line2d_33">
      <g>
       <use xlink:href="#m65d813b16c" x="100.8" y="185.732594" style="stroke: #000000; stroke-width: 0.8"/>
      </g>
     </g>
     <g id="text_5">
      <!-- 1 V -->
      <g transform="translate(74.36625 191.0515) scale(0.14 -0.14)">
       <defs>
        <path id="DejaVuSans-31" d="M 794 531 
L 1825 531 
L 1825 4091 
L 703 3866 
L 703 4441 
L 1819 4666 
L 2450 4666 
L 2450 531 
L 3481 531 
L 3481 0 
L 794 0 
L 794 531 
z
" transform="scale(0.015625)"/>
       </defs>
       <use xlink:href="#DejaVuSans-31"/>
       <use xlink:href="#DejaVuSans-20" x="63.623047"/>
       <use xlink:href="#DejaVuSans-56" x="95.410156"/>
      </g>
     </g>
    </g>
    <g id="ytick_5">
     <g id="line2d_34">
      <path d="M 100.8 152.199333 
L 987.84 152.199333 
" clip-path="url(#p70886e618d)" style="fill: none; stroke-dasharray: 1.85,0.8; stroke-dashoffset: 0; stroke: #b2b2b2; stroke-width: 0.5"/>
     </g>
     <g id="line2d_35">
      <g>
       <use xlink:href="#m65d813b16c" x="100.8" y="152.199333" style="stroke: #000000; stroke-width: 0.8"/>
      </g>
     </g>
     <g id="text_6">
      <!-- 2 V -->
      <g transform="translate(74.36625 157.518239) scale(0.14 -0.14)">
       <use xlink:href="#DejaVuSans-32"/>
       <use xlink:href="#DejaVuSans-20" x="63.623047"/>
       <use xlink:href="#DejaVuSans-56" x="95.410156"/>
      </g>
     </g>
    </g>
    <g id="text_7">
     <g id="patch_9">
      <path d="M 34.8768 224.531509 
L 34.8768 168.514009 
L 11.247425 168.514009 
L 11.247425 224.531509 
z
" style="fill: #ffff00; opacity: 0.2; stroke: #eeeeee; stroke-width: 0.5; stroke-linejoin: miter"/>
     </g>
     <!-- DFF IN -->
     <g transform="translate(26.925238 219.491509) rotate(-90) scale(0.14 -0.14)">
      <defs>
       <path id="DejaVuSans-44" d="M 1259 4147 
L 1259 519 
L 2022 519 
Q 2988 519 3436 956 
Q 3884 1394 3884 2338 
Q 3884 3275 3436 3711 
Q 2988 4147 2022 4147 
L 1259 4147 
z
M 628 4666 
L 1925 4666 
Q 3281 4666 3915 4102 
Q 4550 3538 4550 2338 
Q 4550 1131 3912 565 
Q 3275 0 1925 0 
L 628 0 
L 628 4666 
z
" transform="scale(0.015625)"/>
       <path id="DejaVuSans-46" d="M 628 4666 
L 3309 4666 
L 3309 4134 
L 1259 4134 
L 1259 2759 
L 3109 2759 
L 3109 2228 
L 1259 2228 
L 1259 0 
L 628 0 
L 628 4666 
z
" transform="scale(0.015625)"/>
       <path id="DejaVuSans-4e" d="M 628 4666 
L 1478 4666 
L 3547 763 
L 3547 4666 
L 4159 4666 
L 4159 0 
L 3309 0 
L 1241 3903 
L 1241 0 
L 628 0 
L 628 4666 
z
" transform="scale(0.015625)"/>
      </defs>
      <use xlink:href="#DejaVuSans-44"/>
      <use xlink:href="#DejaVuSans-46" x="77.001953"/>
      <use xlink:href="#DejaVuSans-46" x="134.521484"/>
      <use xlink:href="#DejaVuSans-20" x="192.041016"/>
      <use xlink:href="#DejaVuSans-49" x="223.828125"/>
      <use xlink:href="#DejaVuSans-4e" x="253.320312"/>
     </g>
    </g>
   </g>
   <g id="line2d_36">
    <path d="M 141.12 219.216882 
L 221.953536 219.170898 
L 224.437248 200.486558 
L 225.404928 194.80267 
L 228.243456 182.305494 
L 229.598208 181.051351 
L 231.178752 180.189546 
L 236.565504 179.7402 
L 243.661824 179.62954 
L 245.1456 179.585947 
L 248.403456 179.475287 
L 250.113024 179.408221 
L 252.177408 179.297561 
L 254.241792 178.972288 
L 254.757888 178.442463 
L 255.499776 178.10713 
L 256.370688 178.12725 
L 257.531904 178.35863 
L 259.98336 178.757675 
L 262.370304 178.895162 
L 263.886336 178.945462 
L 264.144384 184.116291 
L 264.434688 187.6346 
L 265.176576 192.321544 
L 267.144192 209.429208 
L 268.402176 215.852504 
L 269.079552 217.162313 
L 270.46656 218.858626 
L 273.724416 219.267665 
L 282.594816 219.221312 
L 297.110016 219.210109 
L 305.883648 219.216088 
L 347.751936 219.172571 
L 350.235648 200.526127 
L 351.622656 192.000966 
L 352.687104 186.678567 
L 354.97728 179.874333 
L 358.493184 178.888455 
L 360.235008 178.958875 
L 363.073536 179.069535 
L 364.396032 179.096361 
L 375.169536 179.166781 
L 375.717888 180.145952 
L 376.169472 180.887038 
L 377.008128 181.782376 
L 377.524224 181.732076 
L 378.427392 181.44369 
L 380.45952 180.306912 
L 381.58848 179.95146 
L 387.201024 179.478641 
L 389.65248 179.367981 
L 391.813632 179.253968 
L 394.555392 179.143308 
L 395.9424 179.109775 
L 415.392768 179.002468 
L 415.973376 178.385456 
L 416.844288 178.053477 
L 417.908736 178.15743 
L 419.16672 178.435756 
L 420.908544 178.687256 
L 424.00512 178.898515 
L 455.712768 178.999115 
L 456.809472 179.877686 
L 457.261056 179.948106 
L 458.712576 179.988346 
L 462.744576 179.458521 
L 464.16384 179.274088 
L 467.518464 179.036002 
L 496.065024 178.958875 
L 496.645632 178.355276 
L 497.161728 178.110484 
L 497.71008 178.04677 
L 498.51648 178.154077 
L 501.967872 178.761029 
L 504.193536 178.881749 
L 505.645056 178.962228 
L 505.93536 179.455167 
L 507.515904 182.345734 
L 514.838016 192.425162 
L 515.2896 193.69339 
L 516.547584 198.115421 
L 516.934656 199.656274 
L 518.35392 205.688237 
L 519.515136 210.828886 
L 522.514944 221.279594 
L 523.418112 223.772054 
L 523.51488 223.963193 
L 524.127744 225.495328 
L 524.514816 226.015429 
L 524.676096 226.230713 
L 525.385728 227.768883 
L 526.224384 229.520996 
L 527.192064 231.235216 
L 527.256576 231.354595 
L 527.675904 232.269717 
L 528.256512 233.349153 
L 531.4176 238.635336 
L 531.57888 238.662498 
L 531.675648 238.623935 
L 531.90144 238.212147 
L 533.611008 235.726326 
L 534.288384 234.978534 
L 534.739968 234.274336 
L 534.933504 234.132825 
L 535.094784 233.985614 
L 536.73984 232.410557 
L 537.126912 231.827749 
L 537.255936 231.813665 
L 537.449472 231.6574 
L 537.643008 231.562836 
L 537.901056 231.297253 
L 539.223552 230.364358 
L 539.449344 230.032043 
L 539.707392 229.687321 
L 539.96544 229.507247 
L 540.352512 229.218861 
L 542.255616 227.787997 
L 542.449152 227.470437 
L 542.803968 226.880587 
L 543.287808 226.649208 
L 543.900672 226.421517 
L 545.384448 225.289099 
L 546.061824 224.602337 
L 548.02944 223.28884 
L 551.771136 220.035208 
L 552.803328 218.551663 
L 554.674176 215.99777 
L 557.932032 211.902621 
L 560.093184 209.333638 
L 560.835072 207.100993 
L 561.544704 204.977667 
L 563.18976 201.327572 
L 565.12512 198.627809 
L 565.996032 197.374 
L 566.705664 196.589322 
L 567.512064 195.65408 
L 568.35072 194.622932 
L 569.899008 193.275565 
L 570.189312 192.870484 
L 570.640896 191.431907 
L 571.834368 187.434742 
L 572.673024 185.460974 
L 573.640704 183.787665 
L 574.769664 182.228368 
L 576.705024 179.66978 
L 577.317888 177.734911 
L 577.898496 176.470707 
L 578.317824 175.940882 
L 578.704896 175.712855 
L 579.446784 175.377523 
L 580.12416 174.753804 
L 580.962816 173.724333 
L 582.285312 171.86659 
L 588.123648 164.153941 
L 588.962304 163.124469 
L 591.220224 160.133303 
L 593.18784 157.655195 
L 595.832832 154.466182 
L 595.994112 154.385702 
L 596.768256 154.824987 
L 597.477888 155.06978 
L 598.252032 155.207267 
L 598.67136 155.27098 
L 600.800256 155.824279 
L 604.509696 157.095189 
L 606.380544 157.759148 
L 606.961152 157.987174 
L 608.67072 158.580713 
L 615.76704 160.907921 
L 616.218624 161.146007 
L 616.992768 161.618826 
L 618.18624 166.739355 
L 618.476544 167.014328 
L 618.799104 167.007621 
L 619.089408 166.809775 
L 619.508736 166.387256 
L 620.218368 165.609284 
L 620.76672 165.176705 
L 622.37952 164.784366 
L 622.992384 164.831312 
L 624.1536 165.062692 
L 627.346944 165.83731 
L 640.152576 169.720462 
L 640.507392 169.831122 
L 642.345984 170.320707 
L 643.152384 170.538673 
L 644.700672 170.914246 
L 645.152256 171.024906 
L 657.312768 173.462774 
L 657.764352 172.882648 
L 658.086912 172.691509 
L 658.538496 172.621089 
L 658.893312 172.688155 
L 659.570688 172.939655 
L 661.377024 173.754513 
L 663.98976 174.455358 
L 664.570368 174.555958 
L 665.086464 174.656558 
L 667.21536 174.988537 
L 684.47232 176.67526 
L 684.988416 176.728913 
L 688.052736 176.936819 
L 689.95584 177.047479 
L 692.439552 177.195026 
L 694.503936 177.302332 
L 694.95552 177.329159 
L 696.987648 177.433112 
L 697.632768 177.469998 
L 698.471424 178.35863 
L 698.955264 178.536356 
L 699.503616 178.603422 
L 700.632576 178.37875 
L 701.761536 178.02665 
L 702.600192 177.879104 
L 703.50336 177.801978 
L 709.14816 177.912637 
L 710.793216 177.976351 
L 711.56736 178.00653 
L 712.115712 178.013237 
L 715.212288 178.120544 
L 715.792896 178.130604 
L 716.56704 178.160783 
L 720.27648 178.271443 
L 721.695744 178.30833 
L 722.727936 178.311683 
L 727.243776 178.422343 
L 728.598528 178.452523 
L 729.598464 178.459229 
L 730.243584 178.486056 
L 731.24352 178.492763 
L 738.081792 178.382103 
L 738.597888 177.909284 
L 739.049472 177.704731 
L 739.823616 177.651078 
L 740.791296 177.838864 
L 744.339456 178.465936 
L 747.5328 178.576596 
L 748.919808 178.610129 
L 778.305024 178.697316 
L 778.917888 179.341154 
L 779.30496 179.522234 
L 779.885568 179.653014 
L 782.208 179.545707 
L 784.530432 179.173488 
L 789.723648 178.744262 
L 818.592768 178.663782 
L 819.14112 178.05683 
L 819.689472 177.785211 
L 821.624832 177.892517 
L 822.947328 178.190963 
L 824.62464 178.42905 
L 827.04384 178.569889 
L 858.912768 178.663782 
L 859.848192 179.488701 
L 860.783616 179.666427 
L 862.912512 179.555767 
L 865.234944 179.183548 
L 870.653952 178.730849 
L 899.232768 178.663782 
L 899.78112 178.05683 
L 900.329472 177.785211 
L 902.264832 177.892517 
L 903.587328 178.190963 
L 905.26464 178.42905 
L 907.716096 178.573243 
L 939.552768 178.663782 
L 940.617216 179.518881 
L 941.55264 179.703313 
L 943.455744 179.596007 
L 946.423296 179.089655 
L 947.52 178.918635 
L 947.52 178.918635 
" clip-path="url(#p70886e618d)" style="fill: none; stroke: #008000; stroke-width: 2; stroke-linecap: square"/>
   </g>
   <g id="patch_10">
    <path d="M 100.8 242.888276 
L 100.8 150.157241 
" style="fill: none; stroke: #bcbcbc; stroke-width: 0.8; stroke-linejoin: miter; stroke-linecap: square"/>
   </g>
   <g id="patch_11">
    <path d="M 987.84 242.888276 
L 987.84 150.157241 
" style="fill: none; stroke: #bcbcbc; stroke-width: 0.8; stroke-linejoin: miter; stroke-linecap: square"/>
   </g>
   <g id="patch_12">
    <path d="M 100.8 242.888276 
L 987.84 242.888276 
" style="fill: none; stroke: #bcbcbc; stroke-width: 0.8; stroke-linejoin: miter; stroke-linecap: square"/>
   </g>
   <g id="patch_13">
    <path d="M 100.8 150.157241 
L 987.84 150.157241 
" style="fill: none; stroke: #bcbcbc; stroke-width: 0.8; stroke-linejoin: miter; stroke-linecap: square"/>
   </g>
  </g>
  <g id="axes_3">
   <g id="patch_14">
    <path d="M 100.8 354.165517 
L 987.84 354.165517 
L 987.84 261.434483 
L 100.8 261.434483 
z
" style="fill: #eeeeee"/>
   </g>
   <g id="matplotlib.axis_5">
    <g id="xtick_13">
     <g id="line2d_37">
      <path d="M 141.12 354.165517 
L 141.12 261.434483 
" clip-path="url(#pc3231e8062)" style="fill: none; stroke-dasharray: 1.85,0.8; stroke-dashoffset: 0; stroke: #b2b2b2; stroke-width: 0.5"/>
     </g>
     <g id="line2d_38">
      <g>
       <use xlink:href="#mdabbb9edc9" x="141.12" y="354.165517" style="stroke: #000000; stroke-width: 0.8"/>
      </g>
     </g>
    </g>
    <g id="xtick_14">
     <g id="line2d_39">
      <path d="M 302.4 354.165517 
L 302.4 261.434483 
" clip-path="url(#pc3231e8062)" style="fill: none; stroke-dasharray: 1.85,0.8; stroke-dashoffset: 0; stroke: #b2b2b2; stroke-width: 0.5"/>
     </g>
     <g id="line2d_40">
      <g>
       <use xlink:href="#mdabbb9edc9" x="302.4" y="354.165517" style="stroke: #000000; stroke-width: 0.8"/>
      </g>
     </g>
    </g>
    <g id="xtick_15">
     <g id="line2d_41">
      <path d="M 463.68 354.165517 
L 463.68 261.434483 
" clip-path="url(#pc3231e8062)" style="fill: none; stroke-dasharray: 1.85,0.8; stroke-dashoffset: 0; stroke: #b2b2b2; stroke-width: 0.5"/>
     </g>
     <g id="line2d_42">
      <g>
       <use xlink:href="#mdabbb9edc9" x="463.68" y="354.165517" style="stroke: #000000; stroke-width: 0.8"/>
      </g>
     </g>
    </g>
    <g id="xtick_16">
     <g id="line2d_43">
      <path d="M 624.96 354.165517 
L 624.96 261.434483 
" clip-path="url(#pc3231e8062)" style="fill: none; stroke-dasharray: 1.85,0.8; stroke-dashoffset: 0; stroke: #b2b2b2; stroke-width: 0.5"/>
     </g>
     <g id="line2d_44">
      <g>
       <use xlink:href="#mdabbb9edc9" x="624.96" y="354.165517" style="stroke: #000000; stroke-width: 0.8"/>
      </g>
     </g>
    </g>
    <g id="xtick_17">
     <g id="line2d_45">
      <path d="M 786.24 354.165517 
L 786.24 261.434483 
" clip-path="url(#pc3231e8062)" style="fill: none; stroke-dasharray: 1.85,0.8; stroke-dashoffset: 0; stroke: #b2b2b2; stroke-width: 0.5"/>
     </g>
     <g id="line2d_46">
      <g>
       <use xlink:href="#mdabbb9edc9" x="786.24" y="354.165517" style="stroke: #000000; stroke-width: 0.8"/>
      </g>
     </g>
    </g>
    <g id="xtick_18">
     <g id="line2d_47">
      <path d="M 947.52 354.165517 
L 947.52 261.434483 
" clip-path="url(#pc3231e8062)" style="fill: none; stroke-dasharray: 1.85,0.8; stroke-dashoffset: 0; stroke: #b2b2b2; stroke-width: 0.5"/>
     </g>
     <g id="line2d_48">
      <g>
       <use xlink:href="#mdabbb9edc9" x="947.52" y="354.165517" style="stroke: #000000; stroke-width: 0.8"/>
      </g>
     </g>
    </g>
   </g>
   <g id="matplotlib.axis_6">
    <g id="ytick_6">
     <g id="line2d_49">
      <path d="M 100.8 346.661765 
L 987.84 346.661765 
" clip-path="url(#pc3231e8062)" style="fill: none; stroke-dasharray: 1.85,0.8; stroke-dashoffset: 0; stroke: #b2b2b2; stroke-width: 0.5"/>
     </g>
     <g id="line2d_50">
      <g>
       <use xlink:href="#m65d813b16c" x="100.8" y="346.661765" style="stroke: #000000; stroke-width: 0.8"/>
      </g>
     </g>
     <g id="text_8">
      <!-- 0 V -->
      <g transform="translate(74.36625 351.980671) scale(0.14 -0.14)">
       <use xlink:href="#DejaVuSans-30"/>
       <use xlink:href="#DejaVuSans-20" x="63.623047"/>
       <use xlink:href="#DejaVuSans-56" x="95.410156"/>
      </g>
     </g>
    </g>
    <g id="ytick_7">
     <g id="line2d_51">
      <path d="M 100.8 304.625528 
L 987.84 304.625528 
" clip-path="url(#pc3231e8062)" style="fill: none; stroke-dasharray: 1.85,0.8; stroke-dashoffset: 0; stroke: #b2b2b2; stroke-width: 0.5"/>
     </g>
     <g id="line2d_52">
      <g>
       <use xlink:href="#m65d813b16c" x="100.8" y="304.625528" style="stroke: #000000; stroke-width: 0.8"/>
      </g>
     </g>
     <g id="text_9">
      <!-- 1 V -->
      <g transform="translate(74.36625 309.944435) scale(0.14 -0.14)">
       <use xlink:href="#DejaVuSans-31"/>
       <use xlink:href="#DejaVuSans-20" x="63.623047"/>
       <use xlink:href="#DejaVuSans-56" x="95.410156"/>
      </g>
     </g>
    </g>
    <g id="ytick_8">
     <g id="line2d_53">
      <path d="M 100.8 262.589292 
L 987.84 262.589292 
" clip-path="url(#pc3231e8062)" style="fill: none; stroke-dasharray: 1.85,0.8; stroke-dashoffset: 0; stroke: #b2b2b2; stroke-width: 0.5"/>
     </g>
     <g id="line2d_54">
      <g>
       <use xlink:href="#m65d813b16c" x="100.8" y="262.589292" style="stroke: #000000; stroke-width: 0.8"/>
      </g>
     </g>
     <g id="text_10">
      <!-- 2 V -->
      <g transform="translate(74.36625 267.908198) scale(0.14 -0.14)">
       <use xlink:href="#DejaVuSans-32"/>
       <use xlink:href="#DejaVuSans-20" x="63.623047"/>
       <use xlink:href="#DejaVuSans-56" x="95.410156"/>
      </g>
     </g>
    </g>
    <g id="text_11">
     <g id="patch_15">
      <path d="M 34.8768 342.395313 
L 34.8768 273.204688 
L 11.247425 273.204688 
L 11.247425 342.395313 
z
" style="fill: #ffff00; opacity: 0.2; stroke: #eeeeee; stroke-width: 0.5; stroke-linejoin: miter"/>
     </g>
     <!-- CLK BUF -->
     <g transform="translate(26.925238 337.355313) rotate(-90) scale(0.14 -0.14)">
      <defs>
       <path id="DejaVuSans-43" d="M 4122 4306 
L 4122 3641 
Q 3803 3938 3442 4084 
Q 3081 4231 2675 4231 
Q 1875 4231 1450 3742 
Q 1025 3253 1025 2328 
Q 1025 1406 1450 917 
Q 1875 428 2675 428 
Q 3081 428 3442 575 
Q 3803 722 4122 1019 
L 4122 359 
Q 3791 134 3420 21 
Q 3050 -91 2638 -91 
Q 1578 -91 968 557 
Q 359 1206 359 2328 
Q 359 3453 968 4101 
Q 1578 4750 2638 4750 
Q 3056 4750 3426 4639 
Q 3797 4528 4122 4306 
z
" transform="scale(0.015625)"/>
       <path id="DejaVuSans-4b" d="M 628 4666 
L 1259 4666 
L 1259 2694 
L 3353 4666 
L 4166 4666 
L 1850 2491 
L 4331 0 
L 3500 0 
L 1259 2247 
L 1259 0 
L 628 0 
L 628 4666 
z
" transform="scale(0.015625)"/>
      </defs>
      <use xlink:href="#DejaVuSans-43"/>
      <use xlink:href="#DejaVuSans-4c" x="69.824219"/>
      <use xlink:href="#DejaVuSans-4b" x="125.537109"/>
      <use xlink:href="#DejaVuSans-20" x="191.113281"/>
      <use xlink:href="#DejaVuSans-42" x="222.900391"/>
      <use xlink:href="#DejaVuSans-55" x="291.503906"/>
      <use xlink:href="#DejaVuSans-46" x="364.697266"/>
     </g>
    </g>
   </g>
   <g id="line2d_55">
    <path d="M 141.12 346.660654 
L 173.376 346.660654 
L 173.601792 296.218281 
L 213.696 296.218281 
L 213.760512 336.454947 
L 213.825024 346.642561 
L 213.889536 346.582069 
L 213.954048 346.749999 
L 214.01856 346.666321 
L 215.405568 346.656662 
L 223.630848 346.660585 
L 254.016 346.660625 
L 254.17728 296.062747 
L 254.241792 296.331779 
L 254.403072 296.209874 
L 254.854656 296.218281 
L 294.336 296.218281 
L 294.400512 336.419636 
L 294.465024 346.975444 
L 294.529536 346.244589 
L 294.626304 346.727825 
L 294.65856 346.697913 
L 294.884352 346.638486 
L 295.206912 346.677062 
L 295.497216 346.660326 
L 321.302016 346.660652 
L 334.656 346.660656 
L 334.81728 296.142616 
L 334.881792 296.235096 
L 335.204352 296.222485 
L 336.075264 296.218281 
L 374.976 296.218281 
L 375.040512 336.45873 
L 375.105024 346.662447 
L 375.169536 346.576739 
L 375.266304 346.731289 
L 375.29856 346.66646 
L 376.75008 346.656328 
L 385.265664 346.660578 
L 415.296 346.660655 
L 415.45728 296.062747 
L 415.521792 296.331779 
L 415.683072 296.20567 
L 416.650752 296.222485 
L 455.616 296.218281 
L 455.680512 336.422158 
L 455.745024 346.980623 
L 455.809536 346.050432 
L 455.906304 347.278521 
L 455.93856 346.730137 
L 456.132096 346.636519 
L 456.519168 346.661089 
L 490.77504 346.660662 
L 495.936 346.660655 
L 496.09728 296.066951 
L 496.161792 296.327575 
L 496.355328 296.214078 
L 496.806912 296.218281 
L 505.709568 296.327575 
L 507.354624 298.652179 
L 508.99968 301.426571 
L 515.93472 312.957531 
L 519.48288 318.212061 
L 523.03104 323.018904 
L 525.547008 325.641125 
L 527.901696 327.580677 
L 531.320832 329.900236 
L 531.514368 329.886785 
L 532.06272 329.578239 
L 532.224 329.500892 
L 532.901376 329.228497 
L 534.675456 328.550873 
L 534.707712 328.588285 
L 534.772224 328.531116 
L 535.320576 328.293191 
L 535.707648 328.179693 
L 536.288256 327.832474 
L 536.41728 326.613002 
L 536.449536 326.951815 
L 536.546304 335.070693 
L 536.73984 349.893763 
L 536.90112 349.937817 
L 538.03008 349.587697 
L 544.061952 347.886785 
L 547.5456 347.141819 
L 547.86816 347.081384 
L 553.093632 346.211347 
L 555.351552 346.112268 
L 561.351168 346.159895 
L 566.995968 346.232785 
L 570.189312 346.172043 
L 570.834432 345.56256 
L 571.640832 345.150731 
L 572.673024 344.90919 
L 574.221312 344.81154 
L 576.576 344.855846 
L 576.834048 298.206595 
L 577.156608 297.555033 
L 578.575872 294.679755 
L 580.672512 290.631665 
L 581.446656 289.185619 
L 585.12384 282.695224 
L 585.575424 281.930164 
L 586.768896 279.971276 
L 588.091392 277.886278 
L 589.413888 275.855928 
L 589.897728 275.053036 
L 590.994432 273.266496 
L 591.57504 272.329088 
L 592.54272 270.777951 
L 593.220096 269.722841 
L 594.381312 267.96993 
L 595.865088 265.8471 
L 596.187648 265.729399 
L 598.090752 265.838693 
L 603.703296 268.150686 
L 605.348352 268.88632 
L 607.86432 269.987669 
L 609.15456 270.538344 
L 616.057344 273.354772 
L 616.476672 273.594379 
L 616.896 273.817171 
L 616.960512 347.406731 
L 617.089536 347.127653 
L 617.960448 347.142912 
L 623.50848 347.104407 
L 646.41024 346.916971 
L 657.216 346.848221 
L 657.345024 289.269691 
L 657.409536 289.299117 
L 657.603072 289.370578 
L 659.79648 289.832977 
L 660.28032 289.942271 
L 660.828672 290.043158 
L 661.344768 290.152452 
L 661.89312 290.253339 
L 662.505984 290.362633 
L 663.054336 290.46352 
L 663.6672 290.568611 
L 664.022016 290.631665 
L 664.63488 290.740959 
L 665.183232 290.841846 
L 665.892864 290.946937 
L 666.24768 291.009991 
L 666.860544 291.115082 
L 667.21536 291.178136 
L 667.924992 291.283227 
L 668.279808 291.346281 
L 669.086208 291.451372 
L 669.441024 291.514426 
L 670.150656 291.619517 
L 670.505472 291.682571 
L 671.40864 291.787662 
L 671.763456 291.850716 
L 672.569856 291.955807 
L 672.924672 292.018861 
L 673.82784 292.123952 
L 674.085888 292.14497 
L 674.892288 292.25006 
L 675.214848 292.308911 
L 676.24704 292.418205 
L 676.5696 292.477056 
L 677.601792 292.58635 
L 677.85984 292.607368 
L 678.763008 292.712459 
L 679.021056 292.733477 
L 679.924224 292.838568 
L 680.182272 292.859586 
L 681.08544 292.964676 
L 681.343488 292.985695 
L 682.343424 293.090785 
L 682.601472 293.111803 
L 683.601408 293.216894 
L 683.859456 293.237912 
L 684.95616 293.343003 
L 685.214208 293.364021 
L 686.40768 293.469111 
L 686.665728 293.485926 
L 687.8592 293.59522 
L 688.117248 293.612034 
L 689.407488 293.721329 
L 689.665536 293.738143 
L 691.052544 293.847437 
L 691.310592 293.868456 
L 692.794368 293.973546 
L 693.052416 293.994564 
L 693.568512 294.032397 
L 695.052288 294.116469 
L 696.471552 294.225764 
L 696.7296 294.242578 
L 697.536 294.284614 
L 697.568256 298.576514 
L 697.632768 347.242874 
L 697.69728 346.671724 
L 697.729536 346.666794 
L 697.761792 346.798433 
L 697.826304 346.717064 
L 698.277888 346.712709 
L 737.856 346.675435 
L 737.985024 295.507869 
L 738.081792 295.676014 
L 738.630144 295.713846 
L 778.176 295.797919 
L 778.305024 346.982817 
L 778.466304 346.738355 
L 778.724352 346.644596 
L 779.079168 346.690354 
L 779.401728 346.672471 
L 818.237952 346.67269 
L 818.496 346.67269 
L 818.65728 295.57933 
L 818.721792 296.05434 
L 818.81856 295.621367 
L 818.883072 295.781104 
L 819.366912 295.797919 
L 858.816 295.797919 
L 858.945024 346.982989 
L 859.106304 346.738313 
L 859.364352 346.644606 
L 859.719168 346.690365 
L 860.041728 346.672472 
L 898.877952 346.67269 
L 899.136 346.67269 
L 899.29728 295.57933 
L 899.361792 296.05434 
L 899.45856 295.621367 
L 899.523072 295.781104 
L 900.006912 295.797919 
L 939.456 295.797919 
L 939.488256 303.377052 
L 939.61728 346.622698 
L 939.649536 346.744934 
L 939.714048 346.627983 
L 939.810816 346.645352 
L 940.004352 346.697848 
L 940.230144 346.671357 
L 945.778176 346.672695 
L 947.52 346.672682 
L 947.52 346.672682 
" clip-path="url(#pc3231e8062)" style="fill: none; stroke: #0000ff; stroke-width: 2; stroke-linecap: square"/>
   </g>
   <g id="patch_16">
    <path d="M 100.8 354.165517 
L 100.8 261.434483 
" style="fill: none; stroke: #bcbcbc; stroke-width: 0.8; stroke-linejoin: miter; stroke-linecap: square"/>
   </g>
   <g id="patch_17">
    <path d="M 987.84 354.165517 
L 987.84 261.434483 
" style="fill: none; stroke: #bcbcbc; stroke-width: 0.8; stroke-linejoin: miter; stroke-linecap: square"/>
   </g>
   <g id="patch_18">
    <path d="M 100.8 354.165517 
L 987.84 354.165517 
" style="fill: none; stroke: #bcbcbc; stroke-width: 0.8; stroke-linejoin: miter; stroke-linecap: square"/>
   </g>
   <g id="patch_19">
    <path d="M 100.8 261.434483 
L 987.84 261.434483 
" style="fill: none; stroke: #bcbcbc; stroke-width: 0.8; stroke-linejoin: miter; stroke-linecap: square"/>
   </g>
  </g>
  <g id="axes_4">
   <g id="patch_20">
    <path d="M 100.8 465.442759 
L 987.84 465.442759 
L 987.84 372.711724 
L 100.8 372.711724 
z
" style="fill: #eeeeee"/>
   </g>
   <g id="matplotlib.axis_7">
    <g id="xtick_19">
     <g id="line2d_56">
      <path d="M 141.12 465.442759 
L 141.12 372.711724 
" clip-path="url(#p60d62fc341)" style="fill: none; stroke-dasharray: 1.85,0.8; stroke-dashoffset: 0; stroke: #b2b2b2; stroke-width: 0.5"/>
     </g>
     <g id="line2d_57">
      <g>
       <use xlink:href="#mdabbb9edc9" x="141.12" y="465.442759" style="stroke: #000000; stroke-width: 0.8"/>
      </g>
     </g>
    </g>
    <g id="xtick_20">
     <g id="line2d_58">
      <path d="M 302.4 465.442759 
L 302.4 372.711724 
" clip-path="url(#p60d62fc341)" style="fill: none; stroke-dasharray: 1.85,0.8; stroke-dashoffset: 0; stroke: #b2b2b2; stroke-width: 0.5"/>
     </g>
     <g id="line2d_59">
      <g>
       <use xlink:href="#mdabbb9edc9" x="302.4" y="465.442759" style="stroke: #000000; stroke-width: 0.8"/>
      </g>
     </g>
    </g>
    <g id="xtick_21">
     <g id="line2d_60">
      <path d="M 463.68 465.442759 
L 463.68 372.711724 
" clip-path="url(#p60d62fc341)" style="fill: none; stroke-dasharray: 1.85,0.8; stroke-dashoffset: 0; stroke: #b2b2b2; stroke-width: 0.5"/>
     </g>
     <g id="line2d_61">
      <g>
       <use xlink:href="#mdabbb9edc9" x="463.68" y="465.442759" style="stroke: #000000; stroke-width: 0.8"/>
      </g>
     </g>
    </g>
    <g id="xtick_22">
     <g id="line2d_62">
      <path d="M 624.96 465.442759 
L 624.96 372.711724 
" clip-path="url(#p60d62fc341)" style="fill: none; stroke-dasharray: 1.85,0.8; stroke-dashoffset: 0; stroke: #b2b2b2; stroke-width: 0.5"/>
     </g>
     <g id="line2d_63">
      <g>
       <use xlink:href="#mdabbb9edc9" x="624.96" y="465.442759" style="stroke: #000000; stroke-width: 0.8"/>
      </g>
     </g>
    </g>
    <g id="xtick_23">
     <g id="line2d_64">
      <path d="M 786.24 465.442759 
L 786.24 372.711724 
" clip-path="url(#p60d62fc341)" style="fill: none; stroke-dasharray: 1.85,0.8; stroke-dashoffset: 0; stroke: #b2b2b2; stroke-width: 0.5"/>
     </g>
     <g id="line2d_65">
      <g>
       <use xlink:href="#mdabbb9edc9" x="786.24" y="465.442759" style="stroke: #000000; stroke-width: 0.8"/>
      </g>
     </g>
    </g>
    <g id="xtick_24">
     <g id="line2d_66">
      <path d="M 947.52 465.442759 
L 947.52 372.711724 
" clip-path="url(#p60d62fc341)" style="fill: none; stroke-dasharray: 1.85,0.8; stroke-dashoffset: 0; stroke: #b2b2b2; stroke-width: 0.5"/>
     </g>
     <g id="line2d_67">
      <g>
       <use xlink:href="#mdabbb9edc9" x="947.52" y="465.442759" style="stroke: #000000; stroke-width: 0.8"/>
      </g>
     </g>
    </g>
   </g>
   <g id="matplotlib.axis_8">
    <g id="ytick_9">
     <g id="line2d_68">
      <path d="M 100.8 436.215719 
L 987.84 436.215719 
" clip-path="url(#p60d62fc341)" style="fill: none; stroke-dasharray: 1.85,0.8; stroke-dashoffset: 0; stroke: #b2b2b2; stroke-width: 0.5"/>
     </g>
     <g id="line2d_69">
      <g>
       <use xlink:href="#m65d813b16c" x="100.8" y="436.215719" style="stroke: #000000; stroke-width: 0.8"/>
      </g>
     </g>
     <g id="text_12">
      <!-- 0 V -->
      <g transform="translate(74.36625 441.534625) scale(0.14 -0.14)">
       <use xlink:href="#DejaVuSans-30"/>
       <use xlink:href="#DejaVuSans-20" x="63.623047"/>
       <use xlink:href="#DejaVuSans-56" x="95.410156"/>
      </g>
     </g>
    </g>
    <g id="ytick_10">
     <g id="line2d_70">
      <path d="M 100.8 392.521307 
L 987.84 392.521307 
" clip-path="url(#p60d62fc341)" style="fill: none; stroke-dasharray: 1.85,0.8; stroke-dashoffset: 0; stroke: #b2b2b2; stroke-width: 0.5"/>
     </g>
     <g id="line2d_71">
      <g>
       <use xlink:href="#m65d813b16c" x="100.8" y="392.521307" style="stroke: #000000; stroke-width: 0.8"/>
      </g>
     </g>
     <g id="text_13">
      <!-- 1 V -->
      <g transform="translate(74.36625 397.840213) scale(0.14 -0.14)">
       <use xlink:href="#DejaVuSans-31"/>
       <use xlink:href="#DejaVuSans-20" x="63.623047"/>
       <use xlink:href="#DejaVuSans-56" x="95.410156"/>
      </g>
     </g>
    </g>
    <g id="text_14">
     <g id="patch_21">
      <path d="M 34.8768 454.693023 
L 34.8768 383.46146 
L 11.247425 383.46146 
L 11.247425 454.693023 
z
" style="fill: #ffff00; opacity: 0.2; stroke: #eeeeee; stroke-width: 0.5; stroke-linejoin: miter"/>
     </g>
     <!-- DFF OUT -->
     <g transform="translate(26.925238 449.653023) rotate(-90) scale(0.14 -0.14)">
      <defs>
       <path id="DejaVuSans-4f" d="M 2522 4238 
Q 1834 4238 1429 3725 
Q 1025 3213 1025 2328 
Q 1025 1447 1429 934 
Q 1834 422 2522 422 
Q 3209 422 3611 934 
Q 4013 1447 4013 2328 
Q 4013 3213 3611 3725 
Q 3209 4238 2522 4238 
z
M 2522 4750 
Q 3503 4750 4090 4092 
Q 4678 3434 4678 2328 
Q 4678 1225 4090 567 
Q 3503 -91 2522 -91 
Q 1538 -91 948 565 
Q 359 1222 359 2328 
Q 359 3434 948 4092 
Q 1538 4750 2522 4750 
z
" transform="scale(0.015625)"/>
       <path id="DejaVuSans-54" d="M -19 4666 
L 3928 4666 
L 3928 4134 
L 2272 4134 
L 2272 0 
L 1638 0 
L 1638 4134 
L -19 4134 
L -19 4666 
z
" transform="scale(0.015625)"/>
      </defs>
      <use xlink:href="#DejaVuSans-44"/>
      <use xlink:href="#DejaVuSans-46" x="77.001953"/>
      <use xlink:href="#DejaVuSans-46" x="134.521484"/>
      <use xlink:href="#DejaVuSans-20" x="192.041016"/>
      <use xlink:href="#DejaVuSans-4f" x="223.828125"/>
      <use xlink:href="#DejaVuSans-55" x="302.539062"/>
      <use xlink:href="#DejaVuSans-54" x="375.732422"/>
     </g>
    </g>
   </g>
   <g id="line2d_72">
    <path d="M 141.12 403.246974 
L 173.408256 403.300281 
L 173.440512 405.10923 
L 173.601792 436.218386 
L 174.053376 436.212536 
L 183.439872 436.214553 
L 254.048256 436.216385 
L 254.080512 436.391056 
L 254.112768 436.102127 
L 254.306304 431.836228 
L 254.596608 430.981129 
L 254.693376 430.371155 
L 255.14496 422.715894 
L 255.370752 404.723408 
L 255.596544 384.20626 
L 255.757824 383.847966 
L 255.983616 383.778055 
L 256.822272 383.782424 
L 295.755264 383.869813 
L 296.239104 386.696842 
L 296.561664 386.041426 
L 297.819648 384.184413 
L 298.980864 383.826119 
L 334.688256 383.799902 
L 334.720512 383.673188 
L 334.752768 384.315496 
L 334.785024 387.49208 
L 334.914048 436.197808 
L 334.97856 436.159353 
L 335.13984 436.206561 
L 335.4624 436.217948 
L 336.75264 436.214559 
L 415.328256 436.216358 
L 415.360512 436.390449 
L 415.392768 436.104547 
L 415.586304 431.73442 
L 415.844352 430.851356 
L 415.908864 430.611474 
L 416.1024 425.429754 
L 416.521728 410.344695 
L 416.9088 383.926616 
L 417.102336 383.786794 
L 417.682944 383.81738 
L 418.166784 383.773686 
L 418.908672 383.782424 
L 495.968256 383.778055 
L 496.000512 383.961572 
L 496.065024 383.786794 
L 496.194048 383.791163 
L 496.677888 383.769316 
L 505.677312 383.852336 
L 506.644992 385.206862 
L 507.935232 387.326041 
L 513.547776 397.420761 
L 514.16064 399.068041 
L 514.838016 401.728157 
L 516.096 407.684579 
L 516.128256 407.622096 
L 516.160512 407.536892 
L 516.192768 407.588451 
L 516.676608 410.617348 
L 516.708864 410.799553 
L 516.74112 410.44694 
L 516.773376 410.445629 
L 516.966912 412.062759 
L 517.54752 415.017375 
L 518.03136 417.561701 
L 518.063616 417.506646 
L 518.095872 417.110337 
L 518.128128 418.015686 
L 519.192576 423.777668 
L 520.45056 430.034271 
L 521.063424 432.753068 
L 521.09568 432.594239 
L 521.127936 432.344176 
L 521.160192 432.367465 
L 521.41824 434.293427 
L 521.708544 435.450936 
L 521.773056 435.347118 
L 521.805312 435.41314 
L 521.998848 436.80153 
L 522.482688 438.566042 
L 522.514944 438.556036 
L 522.5472 438.466506 
L 522.902016 440.514943 
L 523.127808 440.938648 
L 523.256832 441.227031 
L 523.385856 441.999112 
L 523.418112 441.560857 
L 523.482624 441.789378 
L 523.547136 441.972021 
L 523.708416 442.920627 
L 523.740672 442.676812 
L 523.805184 442.932424 
L 523.99872 443.666053 
L 524.934144 445.725371 
L 524.9664 445.496412 
L 524.998656 445.855143 
L 525.063168 445.74547 
L 525.28896 446.571295 
L 525.547008 447.544369 
L 529.030656 456.02764 
L 529.127424 456.07046 
L 531.4176 461.187076 
L 531.546624 461.181832 
L 531.707904 461.024533 
L 532.094976 460.252889 
L 532.320768 459.49348 
L 532.353024 459.554216 
L 532.417536 459.448038 
L 532.933632 458.308925 
L 532.965888 458.436513 
L 532.998144 458.164296 
L 535.352832 454.628108 
L 535.385088 454.670054 
L 535.546368 454.389536 
L 535.901184 454.03299 
L 536.126976 453.544923 
L 536.191488 453.441367 
L 536.223744 453.611776 
L 536.256 453.372767 
L 536.41728 453.139439 
L 536.449536 453.314654 
L 536.481792 452.980391 
L 536.610816 452.875962 
L 537.352704 452.023047 
L 537.417216 451.94964 
L 537.449472 451.88104 
L 537.481728 452.019114 
L 537.513984 452.016056 
L 537.643008 451.670433 
L 537.675264 451.656014 
L 537.70752 451.775736 
L 537.739776 451.611008 
L 537.965568 451.45633 
L 538.126848 451.349716 
L 538.610688 450.622204 
L 538.933248 450.125398 
L 538.965504 450.193125 
L 538.99776 450.044127 
L 539.030016 450.115786 
L 539.15904 449.871097 
L 539.610624 449.27729 
L 539.64288 449.57747 
L 539.675136 449.221798 
L 539.707392 449.382593 
L 539.771904 449.261123 
L 539.80416 449.088093 
L 539.868672 449.119116 
L 539.900928 449.286903 
L 539.933184 449.202572 
L 540.062208 448.794467 
L 540.12672 448.992839 
L 540.158976 448.807138 
L 540.191232 448.793593 
L 540.223488 448.940843 
L 540.255744 448.637604 
L 540.288 448.630176 
L 540.320256 448.834665 
L 540.352512 448.601337 
L 540.384768 448.63236 
L 540.642816 448.418695 
L 540.868608 448.26489 
L 541.352448 447.605979 
L 541.513728 447.217535 
L 541.965312 446.595327 
L 541.997568 446.566052 
L 542.06208 446.886769 
L 542.191104 446.277231 
L 542.22336 446.303885 
L 542.255616 446.680094 
L 542.287872 446.19028 
L 542.320128 446.20601 
L 542.352384 446.486965 
L 542.416896 446.107697 
L 543.02976 445.572441 
L 543.83616 445.004413 
L 544.255488 444.552613 
L 544.578048 443.758249 
L 544.64256 443.672608 
L 544.674816 444.061051 
L 544.739328 443.546331 
L 545.029632 443.232605 
L 545.061888 443.673918 
L 545.1264 443.115504 
L 545.190912 443.151333 
L 545.223168 443.469866 
L 545.255424 443.203767 
L 545.319936 443.415684 
L 545.384448 442.865135 
L 545.44896 442.894847 
L 545.481216 442.793476 
L 545.513472 442.796098 
L 545.545728 443.20464 
L 545.577984 442.68992 
L 545.642496 443.108076 
L 545.77152 442.577189 
L 545.803776 442.580247 
L 545.836032 442.827995 
L 545.868288 442.502908 
L 545.9328 442.741917 
L 545.997312 442.470137 
L 546.061824 442.517327 
L 546.126336 442.595103 
L 546.25536 442.389303 
L 546.57792 442.238557 
L 547.38432 441.429773 
L 547.577856 441.178967 
L 547.835904 440.383292 
L 547.932672 440.287514 
L 547.964928 440.701824 
L 548.02944 440.183128 
L 548.061696 440.13419 
L 548.126208 440.214107 
L 548.158464 440.44477 
L 548.19072 439.919913 
L 548.222976 439.961947 
L 548.255232 440.488377 
L 548.287488 439.859134 
L 548.352 440.251816 
L 548.416512 439.786033 
L 548.481024 439.939881 
L 548.51328 439.861013 
L 548.545536 440.199514 
L 548.577792 439.790796 
L 548.610048 439.641317 
L 548.642304 439.809104 
L 548.67456 439.757151 
L 548.706816 439.887142 
L 548.739072 439.780003 
L 548.771328 439.418869 
L 548.83584 439.898503 
L 548.868096 439.528193 
L 548.932608 439.695673 
L 549.061632 439.335238 
L 549.674496 439.072329 
L 550.900224 437.676598 
L 551.029248 437.475036 
L 551.126016 436.729784 
L 551.158272 437.038441 
L 551.287296 436.406978 
L 551.319552 436.39224 
L 551.351808 436.911334 
L 551.384064 436.326323 
L 551.41632 436.784052 
L 551.480832 436.179278 
L 551.5776 436.217753 
L 551.73888 436.198509 
L 552.70656 434.224346 
L 552.835584 433.411936 
L 552.932352 433.323892 
L 552.996864 433.653697 
L 553.02912 433.256777 
L 553.158144 433.407436 
L 553.1904 433.362168 
L 555.12576 429.282727 
L 555.674112 427.998985 
L 555.835392 427.40343 
L 555.899904 427.603551 
L 555.964416 427.502616 
L 556.964352 425.115154 
L 557.028864 424.628398 
L 557.06112 425.071459 
L 557.093376 425.190745 
L 557.125632 425.180258 
L 557.190144 424.59519 
L 557.254656 424.69394 
L 557.286912 424.821964 
L 557.351424 424.707922 
L 557.770752 423.645274 
L 557.996544 423.111328 
L 559.96416 418.887389 
L 559.996416 418.217117 
L 560.093184 418.396701 
L 560.802816 416.959155 
L 561.351168 415.858492 
L 561.447936 414.987226 
L 561.480192 415.666237 
L 561.57696 415.369115 
L 561.835008 414.984604 
L 563.060736 412.424986 
L 563.18976 412.160197 
L 563.222016 412.345025 
L 563.286528 412.208261 
L 563.802624 411.125077 
L 564.673536 409.687531 
L 564.705792 409.728603 
L 564.738048 409.636845 
L 566.028288 407.321478 
L 568.35072 403.989779 
L 568.479744 403.866124 
L 568.931328 403.260083 
L 570.28608 401.256694 
L 571.189248 398.340092 
L 576.608256 386.369134 
L 576.640512 386.386611 
L 576.672768 385.591373 
L 576.73728 397.808768 
L 576.834048 434.608027 
L 576.89856 434.319294 
L 589.63968 434.8303 
L 591.220224 434.754578 
L 595.381248 434.865038 
L 595.994112 434.984673 
L 596.671488 435.661674 
L 597.477888 436.111049 
L 598.445568 436.387198 
L 599.864832 436.554373 
L 602.735616 436.623781 
L 615.154176 436.554748 
L 616.154112 436.657644 
L 616.928256 436.692993 
L 616.960512 436.587192 
L 617.025024 436.71921 
L 618.5088 436.723361 
L 625.895424 436.652589 
L 657.248256 436.413249 
L 657.280512 436.79301 
L 657.570816 430.032523 
L 657.828864 428.610707 
L 657.990144 426.340345 
L 658.151424 419.804535 
L 658.34496 400.96263 
L 658.570752 377.119027 
L 658.732032 376.926771 
L 659.183616 377.022899 
L 659.538432 377.101549 
L 660.054528 377.197677 
L 660.473856 377.302543 
L 661.022208 377.40741 
L 661.602816 377.503537 
L 662.022144 377.608404 
L 662.570496 377.713271 
L 663.18336 377.822507 
L 663.50592 377.888048 
L 664.118784 377.984176 
L 664.4736 378.062826 
L 665.11872 378.172062 
L 665.44128 378.237604 
L 666.0864 378.34684 
L 666.40896 378.408012 
L 671.021568 379.133339 
L 671.279616 379.155186 
L 671.989248 379.264422 
L 672.311808 379.325594 
L 680.569344 380.334935 
L 681.472512 380.444171 
L 681.73056 380.466019 
L 682.730496 380.575255 
L 682.988544 380.597102 
L 684.085248 380.706338 
L 684.343296 380.728185 
L 685.44 380.837421 
L 685.698048 380.859268 
L 686.89152 380.968504 
L 687.149568 380.990352 
L 688.34304 381.099588 
L 688.601088 381.121435 
L 689.988096 381.230671 
L 690.246144 381.252518 
L 691.633152 381.361754 
L 691.8912 381.383601 
L 693.374976 381.492837 
L 693.633024 381.510315 
L 695.084544 381.597704 
L 696.439296 381.698201 
L 696.794112 381.733157 
L 697.277952 381.772481 
L 698.761728 381.86424 
L 700.729344 381.973476 
L 700.987392 381.995323 
L 703.051776 382.104559 
L 703.309824 382.126406 
L 705.664512 382.235642 
L 705.92256 382.25312 
L 708.34176 382.353617 
L 708.696576 382.384203 
L 711.438336 382.4847 
L 711.793152 382.515286 
L 714.825216 382.615784 
L 715.180032 382.64637 
L 716.308992 382.690064 
L 719.95392 382.790561 
L 720.308736 382.825517 
L 721.115136 382.825517 
L 724.437504 382.934753 
L 724.760064 382.9566 
L 725.59872 382.952231 
L 729.63072 383.052728 
L 729.985536 383.087683 
L 730.824192 383.083314 
L 735.92064 383.183811 
L 736.275456 383.214397 
L 737.888256 383.236244 
L 737.920512 383.441608 
L 737.985024 383.19255 
L 738.146304 383.210028 
L 743.855616 383.314894 
L 744.210432 383.34548 
L 818.528256 383.341111 
L 818.560512 383.563952 
L 818.625024 383.341111 
L 818.81856 383.319264 
L 819.818496 383.34548 
L 899.168256 383.341111 
L 899.200512 383.563952 
L 899.265024 383.341111 
L 899.45856 383.319264 
L 900.458496 383.34548 
L 947.52 383.34548 
L 947.52 383.34548 
" clip-path="url(#p60d62fc341)" style="fill: none; stroke: #ff00ff; stroke-width: 2; stroke-linecap: square"/>
   </g>
   <g id="patch_22">
    <path d="M 100.8 465.442759 
L 100.8 372.711724 
" style="fill: none; stroke: #bcbcbc; stroke-width: 0.8; stroke-linejoin: miter; stroke-linecap: square"/>
   </g>
   <g id="patch_23">
    <path d="M 987.84 465.442759 
L 987.84 372.711724 
" style="fill: none; stroke: #bcbcbc; stroke-width: 0.8; stroke-linejoin: miter; stroke-linecap: square"/>
   </g>
   <g id="patch_24">
    <path d="M 100.8 465.442759 
L 987.84 465.442759 
" style="fill: none; stroke: #bcbcbc; stroke-width: 0.8; stroke-linejoin: miter; stroke-linecap: square"/>
   </g>
   <g id="patch_25">
    <path d="M 100.8 372.711724 
L 987.84 372.711724 
" style="fill: none; stroke: #bcbcbc; stroke-width: 0.8; stroke-linejoin: miter; stroke-linecap: square"/>
   </g>
  </g>
  <g id="axes_5">
   <g id="patch_26">
    <path d="M 100.8 576.72 
L 987.84 576.72 
L 987.84 483.988966 
L 100.8 483.988966 
z
" style="fill: #eeeeee"/>
   </g>
   <g id="matplotlib.axis_9">
    <g id="xtick_25">
     <g id="line2d_73">
      <path d="M 141.12 576.72 
L 141.12 483.988966 
" clip-path="url(#pb06857b2d8)" style="fill: none; stroke-dasharray: 1.85,0.8; stroke-dashoffset: 0; stroke: #b2b2b2; stroke-width: 0.5"/>
     </g>
     <g id="line2d_74">
      <g>
       <use xlink:href="#mdabbb9edc9" x="141.12" y="576.72" style="stroke: #000000; stroke-width: 0.8"/>
      </g>
     </g>
     <g id="text_15">
      <!-- 0 s -->
      <g transform="translate(130.795 590.857813) scale(0.14 -0.14)">
       <defs>
        <path id="DejaVuSans-73" d="M 2834 3397 
L 2834 2853 
Q 2591 2978 2328 3040 
Q 2066 3103 1784 3103 
Q 1356 3103 1142 2972 
Q 928 2841 928 2578 
Q 928 2378 1081 2264 
Q 1234 2150 1697 2047 
L 1894 2003 
Q 2506 1872 2764 1633 
Q 3022 1394 3022 966 
Q 3022 478 2636 193 
Q 2250 -91 1575 -91 
Q 1294 -91 989 -36 
Q 684 19 347 128 
L 347 722 
Q 666 556 975 473 
Q 1284 391 1588 391 
Q 1994 391 2212 530 
Q 2431 669 2431 922 
Q 2431 1156 2273 1281 
Q 2116 1406 1581 1522 
L 1381 1569 
Q 847 1681 609 1914 
Q 372 2147 372 2553 
Q 372 3047 722 3315 
Q 1072 3584 1716 3584 
Q 2034 3584 2315 3537 
Q 2597 3491 2834 3397 
z
" transform="scale(0.015625)"/>
       </defs>
       <use xlink:href="#DejaVuSans-30"/>
       <use xlink:href="#DejaVuSans-20" x="63.623047"/>
       <use xlink:href="#DejaVuSans-73" x="95.410156"/>
      </g>
     </g>
    </g>
    <g id="xtick_26">
     <g id="line2d_75">
      <path d="M 302.4 576.72 
L 302.4 483.988966 
" clip-path="url(#pb06857b2d8)" style="fill: none; stroke-dasharray: 1.85,0.8; stroke-dashoffset: 0; stroke: #b2b2b2; stroke-width: 0.5"/>
     </g>
     <g id="line2d_76">
      <g>
       <use xlink:href="#mdabbb9edc9" x="302.4" y="576.72" style="stroke: #000000; stroke-width: 0.8"/>
      </g>
     </g>
     <g id="text_16">
      <!-- 50 ns -->
      <g transform="translate(283.185 590.857813) scale(0.14 -0.14)">
       <defs>
        <path id="DejaVuSans-35" d="M 691 4666 
L 3169 4666 
L 3169 4134 
L 1269 4134 
L 1269 2991 
Q 1406 3038 1543 3061 
Q 1681 3084 1819 3084 
Q 2600 3084 3056 2656 
Q 3513 2228 3513 1497 
Q 3513 744 3044 326 
Q 2575 -91 1722 -91 
Q 1428 -91 1123 -41 
Q 819 9 494 109 
L 494 744 
Q 775 591 1075 516 
Q 1375 441 1709 441 
Q 2250 441 2565 725 
Q 2881 1009 2881 1497 
Q 2881 1984 2565 2268 
Q 2250 2553 1709 2553 
Q 1456 2553 1204 2497 
Q 953 2441 691 2322 
L 691 4666 
z
" transform="scale(0.015625)"/>
        <path id="DejaVuSans-6e" d="M 3513 2113 
L 3513 0 
L 2938 0 
L 2938 2094 
Q 2938 2591 2744 2837 
Q 2550 3084 2163 3084 
Q 1697 3084 1428 2787 
Q 1159 2491 1159 1978 
L 1159 0 
L 581 0 
L 581 3500 
L 1159 3500 
L 1159 2956 
Q 1366 3272 1645 3428 
Q 1925 3584 2291 3584 
Q 2894 3584 3203 3211 
Q 3513 2838 3513 2113 
z
" transform="scale(0.015625)"/>
       </defs>
       <use xlink:href="#DejaVuSans-35"/>
       <use xlink:href="#DejaVuSans-30" x="63.623047"/>
       <use xlink:href="#DejaVuSans-20" x="127.246094"/>
       <use xlink:href="#DejaVuSans-6e" x="159.033203"/>
       <use xlink:href="#DejaVuSans-73" x="222.412109"/>
      </g>
     </g>
    </g>
    <g id="xtick_27">
     <g id="line2d_77">
      <path d="M 463.68 576.72 
L 463.68 483.988966 
" clip-path="url(#pb06857b2d8)" style="fill: none; stroke-dasharray: 1.85,0.8; stroke-dashoffset: 0; stroke: #b2b2b2; stroke-width: 0.5"/>
     </g>
     <g id="line2d_78">
      <g>
       <use xlink:href="#mdabbb9edc9" x="463.68" y="576.72" style="stroke: #000000; stroke-width: 0.8"/>
      </g>
     </g>
     <g id="text_17">
      <!-- 100 ns -->
      <g transform="translate(440.01125 590.857813) scale(0.14 -0.14)">
       <use xlink:href="#DejaVuSans-31"/>
       <use xlink:href="#DejaVuSans-30" x="63.623047"/>
       <use xlink:href="#DejaVuSans-30" x="127.246094"/>
       <use xlink:href="#DejaVuSans-20" x="190.869141"/>
       <use xlink:href="#DejaVuSans-6e" x="222.65625"/>
       <use xlink:href="#DejaVuSans-73" x="286.035156"/>
      </g>
     </g>
    </g>
    <g id="xtick_28">
     <g id="line2d_79">
      <path d="M 624.96 576.72 
L 624.96 483.988966 
" clip-path="url(#pb06857b2d8)" style="fill: none; stroke-dasharray: 1.85,0.8; stroke-dashoffset: 0; stroke: #b2b2b2; stroke-width: 0.5"/>
     </g>
     <g id="line2d_80">
      <g>
       <use xlink:href="#mdabbb9edc9" x="624.96" y="576.72" style="stroke: #000000; stroke-width: 0.8"/>
      </g>
     </g>
     <g id="text_18">
      <!-- 150 ns -->
      <g transform="translate(601.29125 590.857813) scale(0.14 -0.14)">
       <use xlink:href="#DejaVuSans-31"/>
       <use xlink:href="#DejaVuSans-35" x="63.623047"/>
       <use xlink:href="#DejaVuSans-30" x="127.246094"/>
       <use xlink:href="#DejaVuSans-20" x="190.869141"/>
       <use xlink:href="#DejaVuSans-6e" x="222.65625"/>
       <use xlink:href="#DejaVuSans-73" x="286.035156"/>
      </g>
     </g>
    </g>
    <g id="xtick_29">
     <g id="line2d_81">
      <path d="M 786.24 576.72 
L 786.24 483.988966 
" clip-path="url(#pb06857b2d8)" style="fill: none; stroke-dasharray: 1.85,0.8; stroke-dashoffset: 0; stroke: #b2b2b2; stroke-width: 0.5"/>
     </g>
     <g id="line2d_82">
      <g>
       <use xlink:href="#mdabbb9edc9" x="786.24" y="576.72" style="stroke: #000000; stroke-width: 0.8"/>
      </g>
     </g>
     <g id="text_19">
      <!-- 200 ns -->
      <g transform="translate(762.57125 590.857813) scale(0.14 -0.14)">
       <use xlink:href="#DejaVuSans-32"/>
       <use xlink:href="#DejaVuSans-30" x="63.623047"/>
       <use xlink:href="#DejaVuSans-30" x="127.246094"/>
       <use xlink:href="#DejaVuSans-20" x="190.869141"/>
       <use xlink:href="#DejaVuSans-6e" x="222.65625"/>
       <use xlink:href="#DejaVuSans-73" x="286.035156"/>
      </g>
     </g>
    </g>
    <g id="xtick_30">
     <g id="line2d_83">
      <path d="M 947.52 576.72 
L 947.52 483.988966 
" clip-path="url(#pb06857b2d8)" style="fill: none; stroke-dasharray: 1.85,0.8; stroke-dashoffset: 0; stroke: #b2b2b2; stroke-width: 0.5"/>
     </g>
     <g id="line2d_84">
      <g>
       <use xlink:href="#mdabbb9edc9" x="947.52" y="576.72" style="stroke: #000000; stroke-width: 0.8"/>
      </g>
     </g>
     <g id="text_20">
      <!-- 250 ns -->
      <g transform="translate(923.85125 590.857813) scale(0.14 -0.14)">
       <use xlink:href="#DejaVuSans-32"/>
       <use xlink:href="#DejaVuSans-35" x="63.623047"/>
       <use xlink:href="#DejaVuSans-30" x="127.246094"/>
       <use xlink:href="#DejaVuSans-20" x="190.869141"/>
       <use xlink:href="#DejaVuSans-6e" x="222.65625"/>
       <use xlink:href="#DejaVuSans-73" x="286.035156"/>
      </g>
     </g>
    </g>
    <g id="text_21">
     <!-- Time -->
     <g transform="translate(527.192969 608.407187) scale(0.14 -0.14)">
      <defs>
       <path id="DejaVuSans-69" d="M 603 3500 
L 1178 3500 
L 1178 0 
L 603 0 
L 603 3500 
z
M 603 4863 
L 1178 4863 
L 1178 4134 
L 603 4134 
L 603 4863 
z
" transform="scale(0.015625)"/>
       <path id="DejaVuSans-6d" d="M 3328 2828 
Q 3544 3216 3844 3400 
Q 4144 3584 4550 3584 
Q 5097 3584 5394 3201 
Q 5691 2819 5691 2113 
L 5691 0 
L 5113 0 
L 5113 2094 
Q 5113 2597 4934 2840 
Q 4756 3084 4391 3084 
Q 3944 3084 3684 2787 
Q 3425 2491 3425 1978 
L 3425 0 
L 2847 0 
L 2847 2094 
Q 2847 2600 2669 2842 
Q 2491 3084 2119 3084 
Q 1678 3084 1418 2786 
Q 1159 2488 1159 1978 
L 1159 0 
L 581 0 
L 581 3500 
L 1159 3500 
L 1159 2956 
Q 1356 3278 1631 3431 
Q 1906 3584 2284 3584 
Q 2666 3584 2933 3390 
Q 3200 3197 3328 2828 
z
" transform="scale(0.015625)"/>
       <path id="DejaVuSans-65" d="M 3597 1894 
L 3597 1613 
L 953 1613 
Q 991 1019 1311 708 
Q 1631 397 2203 397 
Q 2534 397 2845 478 
Q 3156 559 3463 722 
L 3463 178 
Q 3153 47 2828 -22 
Q 2503 -91 2169 -91 
Q 1331 -91 842 396 
Q 353 884 353 1716 
Q 353 2575 817 3079 
Q 1281 3584 2069 3584 
Q 2775 3584 3186 3129 
Q 3597 2675 3597 1894 
z
M 3022 2063 
Q 3016 2534 2758 2815 
Q 2500 3097 2075 3097 
Q 1594 3097 1305 2825 
Q 1016 2553 972 2059 
L 3022 2063 
z
" transform="scale(0.015625)"/>
      </defs>
      <use xlink:href="#DejaVuSans-54"/>
      <use xlink:href="#DejaVuSans-69" x="57.958984"/>
      <use xlink:href="#DejaVuSans-6d" x="85.742188"/>
      <use xlink:href="#DejaVuSans-65" x="183.154297"/>
     </g>
    </g>
   </g>
   <g id="matplotlib.axis_10">
    <g id="ytick_11">
     <g id="line2d_85">
      <path d="M 100.8 569.745885 
L 987.84 569.745885 
" clip-path="url(#pb06857b2d8)" style="fill: none; stroke-dasharray: 1.85,0.8; stroke-dashoffset: 0; stroke: #b2b2b2; stroke-width: 0.5"/>
     </g>
     <g id="line2d_86">
      <g>
       <use xlink:href="#m65d813b16c" x="100.8" y="569.745885" style="stroke: #000000; stroke-width: 0.8"/>
      </g>
     </g>
     <g id="text_22">
      <!-- 0 V -->
      <g transform="translate(74.36625 575.064792) scale(0.14 -0.14)">
       <use xlink:href="#DejaVuSans-30"/>
       <use xlink:href="#DejaVuSans-20" x="63.623047"/>
       <use xlink:href="#DejaVuSans-56" x="95.410156"/>
      </g>
     </g>
    </g>
    <g id="ytick_12">
     <g id="line2d_87">
      <path d="M 100.8 535.950348 
L 987.84 535.950348 
" clip-path="url(#pb06857b2d8)" style="fill: none; stroke-dasharray: 1.85,0.8; stroke-dashoffset: 0; stroke: #b2b2b2; stroke-width: 0.5"/>
     </g>
     <g id="line2d_88">
      <g>
       <use xlink:href="#m65d813b16c" x="100.8" y="535.950348" style="stroke: #000000; stroke-width: 0.8"/>
      </g>
     </g>
     <g id="text_23">
      <!-- 500 mV -->
      <g transform="translate(42.914375 541.269254) scale(0.14 -0.14)">
       <use xlink:href="#DejaVuSans-35"/>
       <use xlink:href="#DejaVuSans-30" x="63.623047"/>
       <use xlink:href="#DejaVuSans-30" x="127.246094"/>
       <use xlink:href="#DejaVuSans-20" x="190.869141"/>
       <use xlink:href="#DejaVuSans-6d" x="222.65625"/>
       <use xlink:href="#DejaVuSans-56" x="320.068359"/>
      </g>
     </g>
    </g>
    <g id="ytick_13">
     <g id="line2d_89">
      <path d="M 100.8 502.15481 
L 987.84 502.15481 
" clip-path="url(#pb06857b2d8)" style="fill: none; stroke-dasharray: 1.85,0.8; stroke-dashoffset: 0; stroke: #b2b2b2; stroke-width: 0.5"/>
     </g>
     <g id="line2d_90">
      <g>
       <use xlink:href="#m65d813b16c" x="100.8" y="502.15481" style="stroke: #000000; stroke-width: 0.8"/>
      </g>
     </g>
     <g id="text_24">
      <!-- 1 V -->
      <g transform="translate(74.36625 507.473717) scale(0.14 -0.14)">
       <use xlink:href="#DejaVuSans-31"/>
       <use xlink:href="#DejaVuSans-20" x="63.623047"/>
       <use xlink:href="#DejaVuSans-56" x="95.410156"/>
      </g>
     </g>
    </g>
    <g id="text_25">
     <g id="patch_27">
      <path d="M 34.8768 554.329483 
L 34.8768 506.379483 
L 11.247425 506.379483 
L 11.247425 554.329483 
z
" style="fill: #ffff00; opacity: 0.2; stroke: #eeeeee; stroke-width: 0.5; stroke-linejoin: miter"/>
     </g>
     <!-- FOUT -->
     <g transform="translate(26.925238 549.289483) rotate(-90) scale(0.14 -0.14)">
      <use xlink:href="#DejaVuSans-46"/>
      <use xlink:href="#DejaVuSans-4f" x="57.519531"/>
      <use xlink:href="#DejaVuSans-55" x="136.230469"/>
      <use xlink:href="#DejaVuSans-54" x="209.423828"/>
     </g>
    </g>
   </g>
   <g id="line2d_91">
    <path d="M 141.12 488.636595 
L 173.472768 488.643355 
L 173.505024 488.44734 
L 173.569536 526.789729 
L 173.69856 572.504953 
L 173.730816 572.3695 
L 173.827584 567.842115 
L 173.892096 569.3609 
L 174.053376 570.064192 
L 174.117888 569.946665 
L 174.408192 569.492054 
L 174.440448 569.54151 
L 174.66624 569.729954 
L 176.182272 569.740151 
L 180.117504 569.761449 
L 193.568256 569.752159 
L 212.954112 569.74401 
L 255.30624 569.743704 
L 255.6288 488.52845 
L 255.854592 488.670391 
L 256.209408 488.629836 
L 334.849536 488.650114 
L 334.881792 492.854278 
L 335.043072 572.18376 
L 335.107584 570.261206 
L 335.172096 568.338639 
L 335.236608 568.870108 
L 335.365632 570.783003 
L 335.430144 570.410083 
L 335.591424 569.797213 
L 335.881728 569.648439 
L 336.559104 569.817924 
L 337.107456 569.746143 
L 350.009856 569.744206 
L 416.489472 569.74333 
L 416.553984 567.480841 
L 416.812032 488.204013 
L 416.844288 488.339195 
L 416.973312 488.852887 
L 417.037824 488.778537 
L 417.39264 488.548727 
L 417.844224 488.717705 
L 418.457088 488.562245 
L 419.328 488.636595 
L 517.031424 488.541968 
L 517.06368 488.393268 
L 517.095936 488.758259 
L 517.160448 515.706145 
L 517.257216 570.086524 
L 517.321728 569.745586 
L 518.386176 569.744199 
L 563.480064 569.817343 
L 563.51232 569.864183 
L 563.576832 568.714108 
L 563.6736 528.674845 
L 563.83488 489.096215 
L 563.963904 488.643355 
L 576.769536 488.643355 
L 576.834048 493.509912 
L 576.995328 569.759554 
L 577.027584 569.737412 
L 577.70496 569.7442 
L 658.280448 569.736781 
L 658.312704 569.39867 
L 658.377216 544.433704 
L 658.538496 489.251674 
L 658.66752 488.643355 
L 947.52 488.636595 
L 947.52 488.636595 
" clip-path="url(#pb06857b2d8)" style="fill: none; stroke: #ff00ff; stroke-width: 2; stroke-linecap: square"/>
   </g>
   <g id="patch_28">
    <path d="M 100.8 576.72 
L 100.8 483.988966 
" style="fill: none; stroke: #bcbcbc; stroke-width: 0.8; stroke-linejoin: miter; stroke-linecap: square"/>
   </g>
   <g id="patch_29">
    <path d="M 987.84 576.72 
L 987.84 483.988966 
" style="fill: none; stroke: #bcbcbc; stroke-width: 0.8; stroke-linejoin: miter; stroke-linecap: square"/>
   </g>
   <g id="patch_30">
    <path d="M 100.8 576.72 
L 987.84 576.72 
" style="fill: none; stroke: #bcbcbc; stroke-width: 0.8; stroke-linejoin: miter; stroke-linecap: square"/>
   </g>
   <g id="patch_31">
    <path d="M 100.8 483.988966 
L 987.84 483.988966 
" style="fill: none; stroke: #bcbcbc; stroke-width: 0.8; stroke-linejoin: miter; stroke-linecap: square"/>
   </g>
  </g>
  <g id="axes_6">
   <g id="patch_32">
    <path d="M 201.6 628.56 
L 856.8 628.56 
L 856.8 615.6 
L 201.6 615.6 
z
" clip-path="url(#p334a06f3e1)" style="fill: #d3d3d3"/>
   </g>
   <g id="patch_33">
    <path d="M 201.6 628.56 
L 655.56 628.56 
L 655.56 615.6 
L 201.6 615.6 
z
" clip-path="url(#p334a06f3e1)" style="fill: #0000ff"/>
   </g>
   <g id="line2d_92">
    <path d="M 201.6 635.04 
L 201.6 609.12 
" clip-path="url(#pbcef19fec9)" style="fill: none; stroke: #ff0000; stroke-linecap: square"/>
   </g>
   <g id="line2d_93">
    <defs>
     <path id="m11694f8309" d="M 0 5 
C 1.326016 5 2.597899 4.473168 3.535534 3.535534 
C 4.473168 2.597899 5 1.326016 5 0 
C 5 -1.326016 4.473168 -2.597899 3.535534 -3.535534 
C 2.597899 -4.473168 1.326016 -5 0 -5 
C -1.326016 -5 -2.597899 -4.473168 -3.535534 -3.535534 
C -4.473168 -2.597899 -5 -1.326016 -5 0 
C -5 1.326016 -4.473168 2.597899 -3.535534 3.535534 
C -2.597899 4.473168 -1.326016 5 0 5 
z
" style="stroke: #bfbfbf"/>
    </defs>
    <g>
     <use xlink:href="#m11694f8309" x="655.56" y="622.08" style="fill: #ffffff; stroke: #bfbfbf"/>
    </g>
   </g>
   <g id="text_26">
    <!-- #Sweep -->
    <g transform="translate(138.622875 625.39125) scale(0.12 -0.12)">
     <defs>
      <path id="DejaVuSans-23" d="M 3272 2816 
L 2363 2816 
L 2100 1772 
L 3016 1772 
L 3272 2816 
z
M 2803 4594 
L 2478 3297 
L 3391 3297 
L 3719 4594 
L 4219 4594 
L 3897 3297 
L 4872 3297 
L 4872 2816 
L 3775 2816 
L 3519 1772 
L 4513 1772 
L 4513 1294 
L 3397 1294 
L 3072 0 
L 2572 0 
L 2894 1294 
L 1978 1294 
L 1656 0 
L 1153 0 
L 1478 1294 
L 494 1294 
L 494 1772 
L 1594 1772 
L 1856 2816 
L 850 2816 
L 850 3297 
L 1978 3297 
L 2297 4594 
L 2803 4594 
z
" transform="scale(0.015625)"/>
      <path id="DejaVuSans-77" d="M 269 3500 
L 844 3500 
L 1563 769 
L 2278 3500 
L 2956 3500 
L 3675 769 
L 4391 3500 
L 4966 3500 
L 4050 0 
L 3372 0 
L 2619 2869 
L 1863 0 
L 1184 0 
L 269 3500 
z
" transform="scale(0.015625)"/>
      <path id="DejaVuSans-70" d="M 1159 525 
L 1159 -1331 
L 581 -1331 
L 581 3500 
L 1159 3500 
L 1159 2969 
Q 1341 3281 1617 3432 
Q 1894 3584 2278 3584 
Q 2916 3584 3314 3078 
Q 3713 2572 3713 1747 
Q 3713 922 3314 415 
Q 2916 -91 2278 -91 
Q 1894 -91 1617 61 
Q 1341 213 1159 525 
z
M 3116 1747 
Q 3116 2381 2855 2742 
Q 2594 3103 2138 3103 
Q 1681 3103 1420 2742 
Q 1159 2381 1159 1747 
Q 1159 1113 1420 752 
Q 1681 391 2138 391 
Q 2594 391 2855 752 
Q 3116 1113 3116 1747 
z
" transform="scale(0.015625)"/>
     </defs>
     <use xlink:href="#DejaVuSans-23"/>
     <use xlink:href="#DejaVuSans-53" x="83.789062"/>
     <use xlink:href="#DejaVuSans-77" x="147.265625"/>
     <use xlink:href="#DejaVuSans-65" x="229.052734"/>
     <use xlink:href="#DejaVuSans-65" x="290.576172"/>
     <use xlink:href="#DejaVuSans-70" x="352.099609"/>
    </g>
   </g>
   <g id="text_27">
    <!-- $\mathdefault{97}$ -->
    <g transform="translate(869.904 625.39125) scale(0.12 -0.12)">
     <defs>
      <path id="DejaVuSans-39" d="M 703 97 
L 703 672 
Q 941 559 1184 500 
Q 1428 441 1663 441 
Q 2288 441 2617 861 
Q 2947 1281 2994 2138 
Q 2813 1869 2534 1725 
Q 2256 1581 1919 1581 
Q 1219 1581 811 2004 
Q 403 2428 403 3163 
Q 403 3881 828 4315 
Q 1253 4750 1959 4750 
Q 2769 4750 3195 4129 
Q 3622 3509 3622 2328 
Q 3622 1225 3098 567 
Q 2575 -91 1691 -91 
Q 1453 -91 1209 -44 
Q 966 3 703 97 
z
M 1959 2075 
Q 2384 2075 2632 2365 
Q 2881 2656 2881 3163 
Q 2881 3666 2632 3958 
Q 2384 4250 1959 4250 
Q 1534 4250 1286 3958 
Q 1038 3666 1038 3163 
Q 1038 2656 1286 2365 
Q 1534 2075 1959 2075 
z
" transform="scale(0.015625)"/>
      <path id="DejaVuSans-37" d="M 525 4666 
L 3525 4666 
L 3525 4397 
L 1831 0 
L 1172 0 
L 2766 4134 
L 525 4134 
L 525 4666 
z
" transform="scale(0.015625)"/>
     </defs>
     <use xlink:href="#DejaVuSans-39" transform="translate(0 0.78125)"/>
     <use xlink:href="#DejaVuSans-37" transform="translate(63.623047 0.78125)"/>
    </g>
   </g>
  </g>
  <g id="text_28">
   <!-- DFF under BBI sweep analysis (Sweep = 107E-9) -->
   <g transform="translate(308.25625 25.1175) scale(0.16 -0.16)">
    <defs>
     <path id="DejaVuSans-75" d="M 544 1381 
L 544 3500 
L 1119 3500 
L 1119 1403 
Q 1119 906 1312 657 
Q 1506 409 1894 409 
Q 2359 409 2629 706 
Q 2900 1003 2900 1516 
L 2900 3500 
L 3475 3500 
L 3475 0 
L 2900 0 
L 2900 538 
Q 2691 219 2414 64 
Q 2138 -91 1772 -91 
Q 1169 -91 856 284 
Q 544 659 544 1381 
z
M 1991 3584 
L 1991 3584 
z
" transform="scale(0.015625)"/>
     <path id="DejaVuSans-64" d="M 2906 2969 
L 2906 4863 
L 3481 4863 
L 3481 0 
L 2906 0 
L 2906 525 
Q 2725 213 2448 61 
Q 2172 -91 1784 -91 
Q 1150 -91 751 415 
Q 353 922 353 1747 
Q 353 2572 751 3078 
Q 1150 3584 1784 3584 
Q 2172 3584 2448 3432 
Q 2725 3281 2906 2969 
z
M 947 1747 
Q 947 1113 1208 752 
Q 1469 391 1925 391 
Q 2381 391 2643 752 
Q 2906 1113 2906 1747 
Q 2906 2381 2643 2742 
Q 2381 3103 1925 3103 
Q 1469 3103 1208 2742 
Q 947 2381 947 1747 
z
" transform="scale(0.015625)"/>
     <path id="DejaVuSans-72" d="M 2631 2963 
Q 2534 3019 2420 3045 
Q 2306 3072 2169 3072 
Q 1681 3072 1420 2755 
Q 1159 2438 1159 1844 
L 1159 0 
L 581 0 
L 581 3500 
L 1159 3500 
L 1159 2956 
Q 1341 3275 1631 3429 
Q 1922 3584 2338 3584 
Q 2397 3584 2469 3576 
Q 2541 3569 2628 3553 
L 2631 2963 
z
" transform="scale(0.015625)"/>
     <path id="DejaVuSans-61" d="M 2194 1759 
Q 1497 1759 1228 1600 
Q 959 1441 959 1056 
Q 959 750 1161 570 
Q 1363 391 1709 391 
Q 2188 391 2477 730 
Q 2766 1069 2766 1631 
L 2766 1759 
L 2194 1759 
z
M 3341 1997 
L 3341 0 
L 2766 0 
L 2766 531 
Q 2569 213 2275 61 
Q 1981 -91 1556 -91 
Q 1019 -91 701 211 
Q 384 513 384 1019 
Q 384 1609 779 1909 
Q 1175 2209 1959 2209 
L 2766 2209 
L 2766 2266 
Q 2766 2663 2505 2880 
Q 2244 3097 1772 3097 
Q 1472 3097 1187 3025 
Q 903 2953 641 2809 
L 641 3341 
Q 956 3463 1253 3523 
Q 1550 3584 1831 3584 
Q 2591 3584 2966 3190 
Q 3341 2797 3341 1997 
z
" transform="scale(0.015625)"/>
     <path id="DejaVuSans-6c" d="M 603 4863 
L 1178 4863 
L 1178 0 
L 603 0 
L 603 4863 
z
" transform="scale(0.015625)"/>
     <path id="DejaVuSans-79" d="M 2059 -325 
Q 1816 -950 1584 -1140 
Q 1353 -1331 966 -1331 
L 506 -1331 
L 506 -850 
L 844 -850 
Q 1081 -850 1212 -737 
Q 1344 -625 1503 -206 
L 1606 56 
L 191 3500 
L 800 3500 
L 1894 763 
L 2988 3500 
L 3597 3500 
L 2059 -325 
z
" transform="scale(0.015625)"/>
     <path id="DejaVuSans-28" d="M 1984 4856 
Q 1566 4138 1362 3434 
Q 1159 2731 1159 2009 
Q 1159 1288 1364 580 
Q 1569 -128 1984 -844 
L 1484 -844 
Q 1016 -109 783 600 
Q 550 1309 550 2009 
Q 550 2706 781 3412 
Q 1013 4119 1484 4856 
L 1984 4856 
z
" transform="scale(0.015625)"/>
     <path id="DejaVuSans-3d" d="M 678 2906 
L 4684 2906 
L 4684 2381 
L 678 2381 
L 678 2906 
z
M 678 1631 
L 4684 1631 
L 4684 1100 
L 678 1100 
L 678 1631 
z
" transform="scale(0.015625)"/>
     <path id="DejaVuSans-2d" d="M 313 2009 
L 1997 2009 
L 1997 1497 
L 313 1497 
L 313 2009 
z
" transform="scale(0.015625)"/>
     <path id="DejaVuSans-29" d="M 513 4856 
L 1013 4856 
Q 1481 4119 1714 3412 
Q 1947 2706 1947 2009 
Q 1947 1309 1714 600 
Q 1481 -109 1013 -844 
L 513 -844 
Q 928 -128 1133 580 
Q 1338 1288 1338 2009 
Q 1338 2731 1133 3434 
Q 928 4138 513 4856 
z
" transform="scale(0.015625)"/>
    </defs>
    <use xlink:href="#DejaVuSans-44"/>
    <use xlink:href="#DejaVuSans-46" x="77.001953"/>
    <use xlink:href="#DejaVuSans-46" x="134.521484"/>
    <use xlink:href="#DejaVuSans-20" x="192.041016"/>
    <use xlink:href="#DejaVuSans-75" x="223.828125"/>
    <use xlink:href="#DejaVuSans-6e" x="287.207031"/>
    <use xlink:href="#DejaVuSans-64" x="350.585938"/>
    <use xlink:href="#DejaVuSans-65" x="414.0625"/>
    <use xlink:href="#DejaVuSans-72" x="475.585938"/>
    <use xlink:href="#DejaVuSans-20" x="516.699219"/>
    <use xlink:href="#DejaVuSans-42" x="548.486328"/>
    <use xlink:href="#DejaVuSans-42" x="617.089844"/>
    <use xlink:href="#DejaVuSans-49" x="685.693359"/>
    <use xlink:href="#DejaVuSans-20" x="715.185547"/>
    <use xlink:href="#DejaVuSans-73" x="746.972656"/>
    <use xlink:href="#DejaVuSans-77" x="799.072266"/>
    <use xlink:href="#DejaVuSans-65" x="880.859375"/>
    <use xlink:href="#DejaVuSans-65" x="942.382812"/>
    <use xlink:href="#DejaVuSans-70" x="1003.90625"/>
    <use xlink:href="#DejaVuSans-20" x="1067.382812"/>
    <use xlink:href="#DejaVuSans-61" x="1099.169922"/>
    <use xlink:href="#DejaVuSans-6e" x="1160.449219"/>
    <use xlink:href="#DejaVuSans-61" x="1223.828125"/>
    <use xlink:href="#DejaVuSans-6c" x="1285.107422"/>
    <use xlink:href="#DejaVuSans-79" x="1312.890625"/>
    <use xlink:href="#DejaVuSans-73" x="1372.070312"/>
    <use xlink:href="#DejaVuSans-69" x="1424.169922"/>
    <use xlink:href="#DejaVuSans-73" x="1451.953125"/>
    <use xlink:href="#DejaVuSans-20" x="1504.052734"/>
    <use xlink:href="#DejaVuSans-28" x="1535.839844"/>
    <use xlink:href="#DejaVuSans-53" x="1574.853516"/>
    <use xlink:href="#DejaVuSans-77" x="1638.330078"/>
    <use xlink:href="#DejaVuSans-65" x="1720.117188"/>
    <use xlink:href="#DejaVuSans-65" x="1781.640625"/>
    <use xlink:href="#DejaVuSans-70" x="1843.164062"/>
    <use xlink:href="#DejaVuSans-20" x="1906.640625"/>
    <use xlink:href="#DejaVuSans-3d" x="1938.427734"/>
    <use xlink:href="#DejaVuSans-20" x="2022.216797"/>
    <use xlink:href="#DejaVuSans-31" x="2054.003906"/>
    <use xlink:href="#DejaVuSans-30" x="2117.626953"/>
    <use xlink:href="#DejaVuSans-37" x="2181.25"/>
    <use xlink:href="#DejaVuSans-45" x="2244.873047"/>
    <use xlink:href="#DejaVuSans-2d" x="2308.056641"/>
    <use xlink:href="#DejaVuSans-39" x="2344.140625"/>
    <use xlink:href="#DejaVuSans-29" x="2407.763672"/>
   </g>
  </g>
 </g>
 <defs>
  <clipPath id="p024db7d32d">
   <rect x="100.8" y="38.88" width="887.04" height="92.731034"/>
  </clipPath>
  <clipPath id="p70886e618d">
   <rect x="100.8" y="150.157241" width="887.04" height="92.731034"/>
  </clipPath>
  <clipPath id="pc3231e8062">
   <rect x="100.8" y="261.434483" width="887.04" height="92.731034"/>
  </clipPath>
  <clipPath id="p60d62fc341">
   <rect x="100.8" y="372.711724" width="887.04" height="92.731034"/>
  </clipPath>
  <clipPath id="pb06857b2d8">
   <rect x="100.8" y="483.988966" width="887.04" height="92.731034"/>
  </clipPath>
  <clipPath id="p334a06f3e1">
   <rect x="201.6" y="609.12" width="655.2" height="25.92"/>
  </clipPath>
  <clipPath id="pbcef19fec9">
   <path d="M 201.6 628.56 
L 856.8 628.56 
L 856.8 615.6 
L 201.6 615.6 
z
"/>
  </clipPath>
 </defs>
</svg>
