<?xml version="1.0" encoding="utf-8" standalone="no"?>
<!DOCTYPE svg PUBLIC "-//W3C//DTD SVG 1.1//EN"
  "http://www.w3.org/Graphics/SVG/1.1/DTD/svg11.dtd">
<svg xmlns:xlink="http://www.w3.org/1999/xlink" width="1008pt" height="648pt" viewBox="0 0 1008 648" xmlns="http://www.w3.org/2000/svg" version="1.1">
 <metadata>
  <rdf:RDF xmlns:dc="http://purl.org/dc/elements/1.1/" xmlns:cc="http://creativecommons.org/ns#" xmlns:rdf="http://www.w3.org/1999/02/22-rdf-syntax-ns#">
   <cc:Work>
    <dc:type rdf:resource="http://purl.org/dc/dcmitype/StillImage"/>
    <dc:date>2024-06-03T10:45:34.785228</dc:date>
    <dc:format>image/svg+xml</dc:format>
    <dc:creator>
     <cc:Agent>
      <dc:title>Matplotlib v3.9.0, https://matplotlib.org/</dc:title>
     </cc:Agent>
    </dc:creator>
   </cc:Work>
  </rdf:RDF>
 </metadata>
 <defs>
  <style type="text/css">*{stroke-linejoin: round; stroke-linecap: butt}</style>
 </defs>
 <g id="figure_1">
  <g id="patch_1">
   <path d="M 0 648 
L 1008 648 
L 1008 0 
L 0 0 
z
" style="fill: #ffffff"/>
  </g>
  <g id="axes_1">
   <g id="patch_2">
    <path d="M 100.8 131.611034 
L 987.84 131.611034 
L 987.84 38.88 
L 100.8 38.88 
z
" style="fill: #eeeeee"/>
   </g>
   <g id="matplotlib.axis_1">
    <g id="xtick_1">
     <g id="line2d_1">
      <path d="M 141.12 131.611034 
L 141.12 38.88 
" clip-path="url(#p04eb0dad33)" style="fill: none; stroke-dasharray: 1.85,0.8; stroke-dashoffset: 0; stroke: #b2b2b2; stroke-width: 0.5"/>
     </g>
     <g id="line2d_2">
      <defs>
       <path id="m01d779abbc" d="M 0 0 
L 0 -3.5 
" style="stroke: #000000; stroke-width: 0.8"/>
      </defs>
      <g>
       <use xlink:href="#m01d779abbc" x="141.12" y="131.611034" style="stroke: #000000; stroke-width: 0.8"/>
      </g>
     </g>
    </g>
    <g id="xtick_2">
     <g id="line2d_3">
      <path d="M 302.4 131.611034 
L 302.4 38.88 
" clip-path="url(#p04eb0dad33)" style="fill: none; stroke-dasharray: 1.85,0.8; stroke-dashoffset: 0; stroke: #b2b2b2; stroke-width: 0.5"/>
     </g>
     <g id="line2d_4">
      <g>
       <use xlink:href="#m01d779abbc" x="302.4" y="131.611034" style="stroke: #000000; stroke-width: 0.8"/>
      </g>
     </g>
    </g>
    <g id="xtick_3">
     <g id="line2d_5">
      <path d="M 463.68 131.611034 
L 463.68 38.88 
" clip-path="url(#p04eb0dad33)" style="fill: none; stroke-dasharray: 1.85,0.8; stroke-dashoffset: 0; stroke: #b2b2b2; stroke-width: 0.5"/>
     </g>
     <g id="line2d_6">
      <g>
       <use xlink:href="#m01d779abbc" x="463.68" y="131.611034" style="stroke: #000000; stroke-width: 0.8"/>
      </g>
     </g>
    </g>
    <g id="xtick_4">
     <g id="line2d_7">
      <path d="M 624.96 131.611034 
L 624.96 38.88 
" clip-path="url(#p04eb0dad33)" style="fill: none; stroke-dasharray: 1.85,0.8; stroke-dashoffset: 0; stroke: #b2b2b2; stroke-width: 0.5"/>
     </g>
     <g id="line2d_8">
      <g>
       <use xlink:href="#m01d779abbc" x="624.96" y="131.611034" style="stroke: #000000; stroke-width: 0.8"/>
      </g>
     </g>
    </g>
    <g id="xtick_5">
     <g id="line2d_9">
      <path d="M 786.24 131.611034 
L 786.24 38.88 
" clip-path="url(#p04eb0dad33)" style="fill: none; stroke-dasharray: 1.85,0.8; stroke-dashoffset: 0; stroke: #b2b2b2; stroke-width: 0.5"/>
     </g>
     <g id="line2d_10">
      <g>
       <use xlink:href="#m01d779abbc" x="786.24" y="131.611034" style="stroke: #000000; stroke-width: 0.8"/>
      </g>
     </g>
    </g>
    <g id="xtick_6">
     <g id="line2d_11">
      <path d="M 947.52 131.611034 
L 947.52 38.88 
" clip-path="url(#p04eb0dad33)" style="fill: none; stroke-dasharray: 1.85,0.8; stroke-dashoffset: 0; stroke: #b2b2b2; stroke-width: 0.5"/>
     </g>
     <g id="line2d_12">
      <g>
       <use xlink:href="#m01d779abbc" x="947.52" y="131.611034" style="stroke: #000000; stroke-width: 0.8"/>
      </g>
     </g>
    </g>
   </g>
   <g id="matplotlib.axis_2">
    <g id="ytick_1">
     <g id="line2d_13">
      <path d="M 100.8 98.340394 
L 987.84 98.340394 
" clip-path="url(#p04eb0dad33)" style="fill: none; stroke-dasharray: 1.85,0.8; stroke-dashoffset: 0; stroke: #b2b2b2; stroke-width: 0.5"/>
     </g>
     <g id="line2d_14">
      <defs>
       <path id="m7efaa54076" d="M 0 0 
L 3.5 0 
" style="stroke: #000000; stroke-width: 0.8"/>
      </defs>
      <g>
       <use xlink:href="#m7efaa54076" x="100.8" y="98.340394" style="stroke: #000000; stroke-width: 0.8"/>
      </g>
     </g>
     <g id="text_1">
      <!-- −200 V -->
      <g transform="translate(44.819688 103.6593) scale(0.14 -0.14)">
       <defs>
        <path id="DejaVuSans-2212" d="M 678 2272 
L 4684 2272 
L 4684 1741 
L 678 1741 
L 678 2272 
z
" transform="scale(0.015625)"/>
        <path id="DejaVuSans-32" d="M 1228 531 
L 3431 531 
L 3431 0 
L 469 0 
L 469 531 
Q 828 903 1448 1529 
Q 2069 2156 2228 2338 
Q 2531 2678 2651 2914 
Q 2772 3150 2772 3378 
Q 2772 3750 2511 3984 
Q 2250 4219 1831 4219 
Q 1534 4219 1204 4116 
Q 875 4013 500 3803 
L 500 4441 
Q 881 4594 1212 4672 
Q 1544 4750 1819 4750 
Q 2544 4750 2975 4387 
Q 3406 4025 3406 3419 
Q 3406 3131 3298 2873 
Q 3191 2616 2906 2266 
Q 2828 2175 2409 1742 
Q 1991 1309 1228 531 
z
" transform="scale(0.015625)"/>
        <path id="DejaVuSans-30" d="M 2034 4250 
Q 1547 4250 1301 3770 
Q 1056 3291 1056 2328 
Q 1056 1369 1301 889 
Q 1547 409 2034 409 
Q 2525 409 2770 889 
Q 3016 1369 3016 2328 
Q 3016 3291 2770 3770 
Q 2525 4250 2034 4250 
z
M 2034 4750 
Q 2819 4750 3233 4129 
Q 3647 3509 3647 2328 
Q 3647 1150 3233 529 
Q 2819 -91 2034 -91 
Q 1250 -91 836 529 
Q 422 1150 422 2328 
Q 422 3509 836 4129 
Q 1250 4750 2034 4750 
z
" transform="scale(0.015625)"/>
        <path id="DejaVuSans-20" transform="scale(0.015625)"/>
        <path id="DejaVuSans-56" d="M 1831 0 
L 50 4666 
L 709 4666 
L 2188 738 
L 3669 4666 
L 4325 4666 
L 2547 0 
L 1831 0 
z
" transform="scale(0.015625)"/>
       </defs>
       <use xlink:href="#DejaVuSans-2212"/>
       <use xlink:href="#DejaVuSans-32" x="83.789062"/>
       <use xlink:href="#DejaVuSans-30" x="147.412109"/>
       <use xlink:href="#DejaVuSans-30" x="211.035156"/>
       <use xlink:href="#DejaVuSans-20" x="274.658203"/>
       <use xlink:href="#DejaVuSans-56" x="306.445312"/>
      </g>
     </g>
    </g>
    <g id="ytick_2">
     <g id="line2d_15">
      <path d="M 100.8 45.027377 
L 987.84 45.027377 
" clip-path="url(#p04eb0dad33)" style="fill: none; stroke-dasharray: 1.85,0.8; stroke-dashoffset: 0; stroke: #b2b2b2; stroke-width: 0.5"/>
     </g>
     <g id="line2d_16">
      <g>
       <use xlink:href="#m7efaa54076" x="100.8" y="45.027377" style="stroke: #000000; stroke-width: 0.8"/>
      </g>
     </g>
     <g id="text_2">
      <!-- 0 V -->
      <g transform="translate(74.36625 50.346284) scale(0.14 -0.14)">
       <use xlink:href="#DejaVuSans-30"/>
       <use xlink:href="#DejaVuSans-20" x="63.623047"/>
       <use xlink:href="#DejaVuSans-56" x="95.410156"/>
      </g>
     </g>
    </g>
    <g id="text_3">
     <g id="patch_3">
      <path d="M 34.8768 131.080205 
L 34.8768 39.41083 
L 11.247425 39.41083 
L 11.247425 131.080205 
z
" style="fill: #ffff00; opacity: 0.2; stroke: #eeeeee; stroke-width: 0.5; stroke-linejoin: miter"/>
     </g>
     <!-- VPULSE BBI -->
     <g transform="translate(26.925238 126.040205) rotate(-90) scale(0.14 -0.14)">
      <defs>
       <path id="DejaVuSans-50" d="M 1259 4147 
L 1259 2394 
L 2053 2394 
Q 2494 2394 2734 2622 
Q 2975 2850 2975 3272 
Q 2975 3691 2734 3919 
Q 2494 4147 2053 4147 
L 1259 4147 
z
M 628 4666 
L 2053 4666 
Q 2838 4666 3239 4311 
Q 3641 3956 3641 3272 
Q 3641 2581 3239 2228 
Q 2838 1875 2053 1875 
L 1259 1875 
L 1259 0 
L 628 0 
L 628 4666 
z
" transform="scale(0.015625)"/>
       <path id="DejaVuSans-55" d="M 556 4666 
L 1191 4666 
L 1191 1831 
Q 1191 1081 1462 751 
Q 1734 422 2344 422 
Q 2950 422 3222 751 
Q 3494 1081 3494 1831 
L 3494 4666 
L 4128 4666 
L 4128 1753 
Q 4128 841 3676 375 
Q 3225 -91 2344 -91 
Q 1459 -91 1007 375 
Q 556 841 556 1753 
L 556 4666 
z
" transform="scale(0.015625)"/>
       <path id="DejaVuSans-4c" d="M 628 4666 
L 1259 4666 
L 1259 531 
L 3531 531 
L 3531 0 
L 628 0 
L 628 4666 
z
" transform="scale(0.015625)"/>
       <path id="DejaVuSans-53" d="M 3425 4513 
L 3425 3897 
Q 3066 4069 2747 4153 
Q 2428 4238 2131 4238 
Q 1616 4238 1336 4038 
Q 1056 3838 1056 3469 
Q 1056 3159 1242 3001 
Q 1428 2844 1947 2747 
L 2328 2669 
Q 3034 2534 3370 2195 
Q 3706 1856 3706 1288 
Q 3706 609 3251 259 
Q 2797 -91 1919 -91 
Q 1588 -91 1214 -16 
Q 841 59 441 206 
L 441 856 
Q 825 641 1194 531 
Q 1563 422 1919 422 
Q 2459 422 2753 634 
Q 3047 847 3047 1241 
Q 3047 1584 2836 1778 
Q 2625 1972 2144 2069 
L 1759 2144 
Q 1053 2284 737 2584 
Q 422 2884 422 3419 
Q 422 4038 858 4394 
Q 1294 4750 2059 4750 
Q 2388 4750 2728 4690 
Q 3069 4631 3425 4513 
z
" transform="scale(0.015625)"/>
       <path id="DejaVuSans-45" d="M 628 4666 
L 3578 4666 
L 3578 4134 
L 1259 4134 
L 1259 2753 
L 3481 2753 
L 3481 2222 
L 1259 2222 
L 1259 531 
L 3634 531 
L 3634 0 
L 628 0 
L 628 4666 
z
" transform="scale(0.015625)"/>
       <path id="DejaVuSans-42" d="M 1259 2228 
L 1259 519 
L 2272 519 
Q 2781 519 3026 730 
Q 3272 941 3272 1375 
Q 3272 1813 3026 2020 
Q 2781 2228 2272 2228 
L 1259 2228 
z
M 1259 4147 
L 1259 2741 
L 2194 2741 
Q 2656 2741 2882 2914 
Q 3109 3088 3109 3444 
Q 3109 3797 2882 3972 
Q 2656 4147 2194 4147 
L 1259 4147 
z
M 628 4666 
L 2241 4666 
Q 2963 4666 3353 4366 
Q 3744 4066 3744 3513 
Q 3744 3084 3544 2831 
Q 3344 2578 2956 2516 
Q 3422 2416 3680 2098 
Q 3938 1781 3938 1306 
Q 3938 681 3513 340 
Q 3088 0 2303 0 
L 628 0 
L 628 4666 
z
" transform="scale(0.015625)"/>
       <path id="DejaVuSans-49" d="M 628 4666 
L 1259 4666 
L 1259 0 
L 628 0 
L 628 4666 
z
" transform="scale(0.015625)"/>
      </defs>
      <use xlink:href="#DejaVuSans-56"/>
      <use xlink:href="#DejaVuSans-50" x="68.408203"/>
      <use xlink:href="#DejaVuSans-55" x="128.710938"/>
      <use xlink:href="#DejaVuSans-4c" x="201.904297"/>
      <use xlink:href="#DejaVuSans-53" x="257.617188"/>
      <use xlink:href="#DejaVuSans-45" x="321.09375"/>
      <use xlink:href="#DejaVuSans-20" x="384.277344"/>
      <use xlink:href="#DejaVuSans-42" x="416.064453"/>
      <use xlink:href="#DejaVuSans-42" x="484.667969"/>
      <use xlink:href="#DejaVuSans-49" x="553.271484"/>
     </g>
    </g>
   </g>
   <g id="line2d_17">
    <path d="M 141.12 45.027377 
L 279.853056 45.136282 
L 280.336896 46.425538 
L 288.562176 69.006772 
L 295.981056 89.863624 
L 297.593856 94.440546 
L 299.400192 99.673219 
L 302.88384 110.807642 
L 304.49664 115.952349 
L 305.754624 119.585631 
L 306.206208 119.80688 
L 307.270656 120.297359 
L 307.754496 120.526605 
L 308.818944 121.017085 
L 309.399552 121.272988 
L 310.270464 121.656841 
L 310.851072 121.912744 
L 311.689728 122.269941 
L 313.270272 122.936354 
L 313.915392 123.202919 
L 315.012096 123.629423 
L 315.753984 123.922644 
L 316.850688 124.349149 
L 317.753856 124.677024 
L 318.431232 124.943589 
L 319.237632 125.25547 
L 320.592384 125.804594 
L 323.237376 126.790885 
L 323.85024 127.022796 
L 325.7856 127.395987 
L 344.268288 127.289361 
L 344.49408 126.801547 
L 362.783232 75.087922 
L 366.524928 63.292417 
L 370.234368 51.617666 
L 374.846976 49.3412 
L 380.201472 46.984578 
L 388.910592 43.484472 
L 389.781504 43.268927 
L 404.070912 43.108189 
L 410.876928 43.184799 
L 426.230784 43.746186 
L 454.0032 44.46146 
L 479.64672 44.774399 
L 515.257344 44.945888 
L 563.286528 44.953885 
L 947.52 44.953885 
L 947.52 44.953885 
" clip-path="url(#p04eb0dad33)" style="fill: none; stroke: #ff0000; stroke-width: 2; stroke-linecap: square"/>
   </g>
   <g id="patch_4">
    <path d="M 100.8 131.611034 
L 100.8 38.88 
" style="fill: none; stroke: #bcbcbc; stroke-width: 0.8; stroke-linejoin: miter; stroke-linecap: square"/>
   </g>
   <g id="patch_5">
    <path d="M 987.84 131.611034 
L 987.84 38.88 
" style="fill: none; stroke: #bcbcbc; stroke-width: 0.8; stroke-linejoin: miter; stroke-linecap: square"/>
   </g>
   <g id="patch_6">
    <path d="M 100.8 131.611034 
L 987.84 131.611034 
" style="fill: none; stroke: #bcbcbc; stroke-width: 0.8; stroke-linejoin: miter; stroke-linecap: square"/>
   </g>
   <g id="patch_7">
    <path d="M 100.8 38.88 
L 987.84 38.88 
" style="fill: none; stroke: #bcbcbc; stroke-width: 0.8; stroke-linejoin: miter; stroke-linecap: square"/>
   </g>
  </g>
  <g id="axes_2">
   <g id="patch_8">
    <path d="M 100.8 242.888276 
L 987.84 242.888276 
L 987.84 150.157241 
L 100.8 150.157241 
z
" style="fill: #eeeeee"/>
   </g>
   <g id="matplotlib.axis_3">
    <g id="xtick_7">
     <g id="line2d_18">
      <path d="M 141.12 242.888276 
L 141.12 150.157241 
" clip-path="url(#p7e9bfa8ab9)" style="fill: none; stroke-dasharray: 1.85,0.8; stroke-dashoffset: 0; stroke: #b2b2b2; stroke-width: 0.5"/>
     </g>
     <g id="line2d_19">
      <g>
       <use xlink:href="#m01d779abbc" x="141.12" y="242.888276" style="stroke: #000000; stroke-width: 0.8"/>
      </g>
     </g>
    </g>
    <g id="xtick_8">
     <g id="line2d_20">
      <path d="M 302.4 242.888276 
L 302.4 150.157241 
" clip-path="url(#p7e9bfa8ab9)" style="fill: none; stroke-dasharray: 1.85,0.8; stroke-dashoffset: 0; stroke: #b2b2b2; stroke-width: 0.5"/>
     </g>
     <g id="line2d_21">
      <g>
       <use xlink:href="#m01d779abbc" x="302.4" y="242.888276" style="stroke: #000000; stroke-width: 0.8"/>
      </g>
     </g>
    </g>
    <g id="xtick_9">
     <g id="line2d_22">
      <path d="M 463.68 242.888276 
L 463.68 150.157241 
" clip-path="url(#p7e9bfa8ab9)" style="fill: none; stroke-dasharray: 1.85,0.8; stroke-dashoffset: 0; stroke: #b2b2b2; stroke-width: 0.5"/>
     </g>
     <g id="line2d_23">
      <g>
       <use xlink:href="#m01d779abbc" x="463.68" y="242.888276" style="stroke: #000000; stroke-width: 0.8"/>
      </g>
     </g>
    </g>
    <g id="xtick_10">
     <g id="line2d_24">
      <path d="M 624.96 242.888276 
L 624.96 150.157241 
" clip-path="url(#p7e9bfa8ab9)" style="fill: none; stroke-dasharray: 1.85,0.8; stroke-dashoffset: 0; stroke: #b2b2b2; stroke-width: 0.5"/>
     </g>
     <g id="line2d_25">
      <g>
       <use xlink:href="#m01d779abbc" x="624.96" y="242.888276" style="stroke: #000000; stroke-width: 0.8"/>
      </g>
     </g>
    </g>
    <g id="xtick_11">
     <g id="line2d_26">
      <path d="M 786.24 242.888276 
L 786.24 150.157241 
" clip-path="url(#p7e9bfa8ab9)" style="fill: none; stroke-dasharray: 1.85,0.8; stroke-dashoffset: 0; stroke: #b2b2b2; stroke-width: 0.5"/>
     </g>
     <g id="line2d_27">
      <g>
       <use xlink:href="#m01d779abbc" x="786.24" y="242.888276" style="stroke: #000000; stroke-width: 0.8"/>
      </g>
     </g>
    </g>
    <g id="xtick_12">
     <g id="line2d_28">
      <path d="M 947.52 242.888276 
L 947.52 150.157241 
" clip-path="url(#p7e9bfa8ab9)" style="fill: none; stroke-dasharray: 1.85,0.8; stroke-dashoffset: 0; stroke: #b2b2b2; stroke-width: 0.5"/>
     </g>
     <g id="line2d_29">
      <g>
       <use xlink:href="#m01d779abbc" x="947.52" y="242.888276" style="stroke: #000000; stroke-width: 0.8"/>
      </g>
     </g>
    </g>
   </g>
   <g id="matplotlib.axis_4">
    <g id="ytick_3">
     <g id="line2d_30">
      <path d="M 100.8 219.348821 
L 987.84 219.348821 
" clip-path="url(#p7e9bfa8ab9)" style="fill: none; stroke-dasharray: 1.85,0.8; stroke-dashoffset: 0; stroke: #b2b2b2; stroke-width: 0.5"/>
     </g>
     <g id="line2d_31">
      <g>
       <use xlink:href="#m7efaa54076" x="100.8" y="219.348821" style="stroke: #000000; stroke-width: 0.8"/>
      </g>
     </g>
     <g id="text_4">
      <!-- 0 V -->
      <g transform="translate(74.36625 224.667727) scale(0.14 -0.14)">
       <use xlink:href="#DejaVuSans-30"/>
       <use xlink:href="#DejaVuSans-20" x="63.623047"/>
       <use xlink:href="#DejaVuSans-56" x="95.410156"/>
      </g>
     </g>
    </g>
    <g id="ytick_4">
     <g id="line2d_32">
      <path d="M 100.8 185.772688 
L 987.84 185.772688 
" clip-path="url(#p7e9bfa8ab9)" style="fill: none; stroke-dasharray: 1.85,0.8; stroke-dashoffset: 0; stroke: #b2b2b2; stroke-width: 0.5"/>
     </g>
     <g id="line2d_33">
      <g>
       <use xlink:href="#m7efaa54076" x="100.8" y="185.772688" style="stroke: #000000; stroke-width: 0.8"/>
      </g>
     </g>
     <g id="text_5">
      <!-- 1 V -->
      <g transform="translate(74.36625 191.091594) scale(0.14 -0.14)">
       <defs>
        <path id="DejaVuSans-31" d="M 794 531 
L 1825 531 
L 1825 4091 
L 703 3866 
L 703 4441 
L 1819 4666 
L 2450 4666 
L 2450 531 
L 3481 531 
L 3481 0 
L 794 0 
L 794 531 
z
" transform="scale(0.015625)"/>
       </defs>
       <use xlink:href="#DejaVuSans-31"/>
       <use xlink:href="#DejaVuSans-20" x="63.623047"/>
       <use xlink:href="#DejaVuSans-56" x="95.410156"/>
      </g>
     </g>
    </g>
    <g id="ytick_5">
     <g id="line2d_34">
      <path d="M 100.8 152.196555 
L 987.84 152.196555 
" clip-path="url(#p7e9bfa8ab9)" style="fill: none; stroke-dasharray: 1.85,0.8; stroke-dashoffset: 0; stroke: #b2b2b2; stroke-width: 0.5"/>
     </g>
     <g id="line2d_35">
      <g>
       <use xlink:href="#m7efaa54076" x="100.8" y="152.196555" style="stroke: #000000; stroke-width: 0.8"/>
      </g>
     </g>
     <g id="text_6">
      <!-- 2 V -->
      <g transform="translate(74.36625 157.515461) scale(0.14 -0.14)">
       <use xlink:href="#DejaVuSans-32"/>
       <use xlink:href="#DejaVuSans-20" x="63.623047"/>
       <use xlink:href="#DejaVuSans-56" x="95.410156"/>
      </g>
     </g>
    </g>
    <g id="text_7">
     <g id="patch_9">
      <path d="M 34.8768 224.531509 
L 34.8768 168.514009 
L 11.247425 168.514009 
L 11.247425 224.531509 
z
" style="fill: #ffff00; opacity: 0.2; stroke: #eeeeee; stroke-width: 0.5; stroke-linejoin: miter"/>
     </g>
     <!-- DFF IN -->
     <g transform="translate(26.925238 219.491509) rotate(-90) scale(0.14 -0.14)">
      <defs>
       <path id="DejaVuSans-44" d="M 1259 4147 
L 1259 519 
L 2022 519 
Q 2988 519 3436 956 
Q 3884 1394 3884 2338 
Q 3884 3275 3436 3711 
Q 2988 4147 2022 4147 
L 1259 4147 
z
M 628 4666 
L 1925 4666 
Q 3281 4666 3915 4102 
Q 4550 3538 4550 2338 
Q 4550 1131 3912 565 
Q 3275 0 1925 0 
L 628 0 
L 628 4666 
z
" transform="scale(0.015625)"/>
       <path id="DejaVuSans-46" d="M 628 4666 
L 3309 4666 
L 3309 4134 
L 1259 4134 
L 1259 2759 
L 3109 2759 
L 3109 2228 
L 1259 2228 
L 1259 0 
L 628 0 
L 628 4666 
z
" transform="scale(0.015625)"/>
       <path id="DejaVuSans-4e" d="M 628 4666 
L 1478 4666 
L 3547 763 
L 3547 4666 
L 4159 4666 
L 4159 0 
L 3309 0 
L 1241 3903 
L 1241 0 
L 628 0 
L 628 4666 
z
" transform="scale(0.015625)"/>
      </defs>
      <use xlink:href="#DejaVuSans-44"/>
      <use xlink:href="#DejaVuSans-46" x="77.001953"/>
      <use xlink:href="#DejaVuSans-46" x="134.521484"/>
      <use xlink:href="#DejaVuSans-20" x="192.041016"/>
      <use xlink:href="#DejaVuSans-49" x="223.828125"/>
      <use xlink:href="#DejaVuSans-4e" x="253.320312"/>
     </g>
    </g>
   </g>
   <g id="line2d_36">
    <path d="M 141.12 219.299787 
L 221.953536 219.253744 
L 224.437248 200.545515 
L 225.404928 194.854361 
L 228.243456 182.341207 
L 229.598208 181.08546 
L 231.178752 180.222553 
L 236.565504 179.772633 
L 243.661824 179.661832 
L 245.1456 179.618183 
L 248.403456 179.507382 
L 250.113024 179.440229 
L 252.177408 179.329428 
L 254.241792 179.00374 
L 254.757888 178.473237 
L 255.499776 178.137475 
L 256.370688 178.157621 
L 257.531904 178.389296 
L 259.918848 178.775422 
L 262.40256 178.923157 
L 263.886336 178.976879 
L 264.144384 184.154318 
L 264.434688 187.676791 
L 265.176576 192.369727 
L 267.144192 209.499263 
L 268.434432 216.060341 
L 268.918272 217.03462 
L 270.111744 218.751166 
L 271.27296 219.14208 
L 272.756736 219.264532 
L 276.91776 219.299474 
L 279.917568 219.391661 
L 281.336832 220.746696 
L 283.239936 221.712581 
L 284.49792 221.955907 
L 286.401024 222.079232 
L 288.078336 222.240834 
L 288.916992 222.669971 
L 290.658816 223.567662 
L 292.948992 224.785804 
L 294.690816 225.766228 
L 295.335936 225.848825 
L 295.819776 225.735002 
L 297.529344 224.334205 
L 297.787392 224.602815 
L 298.271232 225.485531 
L 298.787328 226.175856 
L 299.109888 226.562989 
L 299.367936 227.237198 
L 299.948544 228.642695 
L 300.238848 228.971741 
L 300.367872 229.268554 
L 301.335552 231.185415 
L 302.045184 232.603 
L 302.4 233.273515 
L 302.658048 233.662662 
L 303.916032 235.790382 
L 304.65792 237.00013 
L 305.14176 237.946641 
L 305.754624 238.664163 
L 305.78688 238.618836 
L 306.432 237.878146 
L 307.88352 235.766207 
L 308.496384 235.077897 
L 309.01248 234.255953 
L 309.270528 234.00984 
L 309.431808 233.929929 
L 310.560768 233.027066 
L 311.076864 232.399193 
L 311.367168 231.914353 
L 311.560704 231.891186 
L 311.721984 231.773669 
L 312.334848 231.326435 
L 312.657408 231.129679 
L 313.786368 230.033754 
L 314.108928 229.440464 
L 314.431488 229.242029 
L 314.592768 229.269561 
L 314.754048 229.192 
L 315.012096 229.038222 
L 315.431424 228.745102 
L 316.528128 227.774416 
L 317.07648 226.922254 
L 317.528064 226.73557 
L 318.04416 226.557281 
L 319.65696 225.324701 
L 320.62464 224.476904 
L 321.172992 224.169011 
L 323.52768 222.266856 
L 325.882368 220.237246 
L 326.559744 219.25734 
L 327.301632 218.260652 
L 328.075776 217.221773 
L 328.978944 215.94823 
L 330.398208 214.079383 
L 332.011008 212.107121 
L 332.55936 211.490327 
L 332.978688 211.053166 
L 334.268928 209.91695 
L 335.881728 209.637596 
L 336.720384 209.832338 
L 337.462272 210.290652 
L 338.688 211.468167 
L 339.33312 212.239411 
L 342.494208 216.07995 
L 343.5264 216.862777 
L 344.365056 217.275629 
L 345.655296 216.276504 
L 347.39712 215.779678 
L 347.784192 215.696409 
L 347.945472 214.659914 
L 352.848384 180.272917 
L 353.52576 177.499529 
L 354.106368 175.797219 
L 354.751488 174.423955 
L 355.686912 172.892883 
L 356.944896 171.146925 
L 361.686528 164.915194 
L 363.783168 162.353335 
L 365.62176 159.865344 
L 370.1376 154.389076 
L 370.29888 154.42601 
L 371.008512 154.838997 
L 371.653632 155.050526 
L 372.524544 155.211692 
L 373.588992 155.429937 
L 375.072768 155.983943 
L 375.524352 158.955431 
L 375.879168 160.765184 
L 376.26624 161.641521 
L 376.556544 161.883269 
L 376.879104 161.846336 
L 377.266176 161.534078 
L 377.911296 160.708105 
L 379.008 159.506079 
L 379.782144 159.069589 
L 380.749824 158.878205 
L 381.394944 158.901709 
L 382.298112 159.01251 
L 383.427072 159.240828 
L 389.910528 160.701389 
L 390.426624 160.949853 
L 403.587072 166.315319 
L 404.425728 166.594001 
L 405.167616 166.855895 
L 405.974016 167.127861 
L 406.58688 167.325961 
L 415.360512 170.001978 
L 416.037888 169.199509 
L 416.521728 169.115568 
L 417.521664 169.541985 
L 418.715136 170.277303 
L 419.81184 170.841382 
L 420.489216 171.089845 
L 421.90848 171.566626 
L 423.68256 172.046765 
L 425.005056 172.34895 
L 425.521152 172.456394 
L 426.617856 172.684711 
L 427.811328 172.919744 
L 428.779008 173.111128 
L 429.359616 173.218572 
L 432.359424 173.732287 
L 434.262528 174.03783 
L 434.97216 174.145273 
L 436.810752 174.41724 
L 437.55264 174.524683 
L 437.971968 174.581763 
L 438.778368 174.685849 
L 439.488 174.793293 
L 440.77824 174.9511 
L 455.77728 176.599689 
L 456.196608 177.177198 
L 456.712704 177.512959 
L 457.583616 177.677482 
L 461.58336 176.945523 
L 462.163968 176.955596 
L 464.744448 177.066397 
L 466.808832 177.170483 
L 468.711936 177.274569 
L 469.16352 177.304787 
L 471.324672 177.412231 
L 471.744 177.429019 
L 473.84064 177.53982 
L 475.776 177.633833 
L 476.517888 177.664052 
L 477.130752 177.684198 
L 477.904896 177.714416 
L 480.517632 177.825217 
L 482.291712 177.899085 
L 483.065856 177.929303 
L 483.743232 177.959522 
L 486.74304 178.063608 
L 487.162368 178.080396 
L 490.61376 178.18784 
L 491.162112 178.194555 
L 491.968512 178.221416 
L 495.710208 178.332217 
L 496.065024 178.261707 
L 496.710144 177.613688 
L 497.22624 177.422304 
L 497.87136 177.395443 
L 498.83904 177.606973 
L 500.548608 178.026674 
L 502.129152 178.244919 
L 504.838656 178.416157 
L 508.290048 178.523601 
L 508.8384 178.530316 
L 515.547648 178.641117 
L 516.096 178.644475 
L 536.385024 178.725058 
L 536.997888 179.369719 
L 537.38496 179.551031 
L 537.965568 179.675262 
L 540.062208 179.567819 
L 542.54592 179.161547 
L 546.932736 178.815713 
L 576.640512 178.728415 
L 577.737216 177.838648 
L 578.221056 177.754707 
L 580.382208 178.090469 
L 581.349888 178.281853 
L 585.414144 178.594111 
L 616.992768 178.694839 
L 617.928192 179.520812 
L 618.863616 179.698766 
L 620.153856 179.728984 
L 622.927872 179.262276 
L 628.83072 178.758634 
L 657.345024 178.647833 
L 657.86112 178.087111 
L 658.409472 177.815145 
L 660.344832 177.922588 
L 663.602688 178.490025 
L 665.76384 178.604184 
L 697.632768 178.694839 
L 698.568192 179.527527 
L 699.47136 179.695408 
L 700.697088 179.712196 
L 702.567936 179.433514 
L 710.664192 178.701554 
L 738.01728 178.604184 
L 738.533376 178.083754 
L 739.178496 177.801714 
L 740.2752 177.791641 
L 744.242688 178.506813 
L 745.952256 178.573965 
L 778.240512 178.681409 
L 778.401792 178.859362 
L 778.917888 179.373077 
L 779.30496 179.554388 
L 779.917824 179.69205 
L 782.304768 179.581249 
L 784.078848 179.285779 
L 785.369088 179.127971 
L 789.917184 178.765349 
L 818.592768 178.694839 
L 819.14112 178.087111 
L 819.689472 177.815145 
L 821.624832 177.922588 
L 824.882688 178.490025 
L 827.04384 178.604184 
L 858.912768 178.694839 
L 859.848192 179.527527 
L 860.75136 179.698766 
L 862.815744 179.587964 
L 864.654336 179.315998 
L 871.653888 178.698197 
L 899.29728 178.604184 
L 899.813376 178.083754 
L 900.458496 177.801714 
L 901.5552 177.791641 
L 905.522688 178.506813 
L 907.232256 178.573965 
L 939.520512 178.681409 
L 939.681792 178.86272 
L 940.165632 179.339501 
L 940.778496 179.59468 
L 941.649408 179.752487 
L 946.06848 179.181693 
L 947.52 178.926515 
L 947.52 178.926515 
" clip-path="url(#p7e9bfa8ab9)" style="fill: none; stroke: #008000; stroke-width: 2; stroke-linecap: square"/>
   </g>
   <g id="patch_10">
    <path d="M 100.8 242.888276 
L 100.8 150.157241 
" style="fill: none; stroke: #bcbcbc; stroke-width: 0.8; stroke-linejoin: miter; stroke-linecap: square"/>
   </g>
   <g id="patch_11">
    <path d="M 987.84 242.888276 
L 987.84 150.157241 
" style="fill: none; stroke: #bcbcbc; stroke-width: 0.8; stroke-linejoin: miter; stroke-linecap: square"/>
   </g>
   <g id="patch_12">
    <path d="M 100.8 242.888276 
L 987.84 242.888276 
" style="fill: none; stroke: #bcbcbc; stroke-width: 0.8; stroke-linejoin: miter; stroke-linecap: square"/>
   </g>
   <g id="patch_13">
    <path d="M 100.8 150.157241 
L 987.84 150.157241 
" style="fill: none; stroke: #bcbcbc; stroke-width: 0.8; stroke-linejoin: miter; stroke-linecap: square"/>
   </g>
  </g>
  <g id="axes_3">
   <g id="patch_14">
    <path d="M 100.8 354.165517 
L 987.84 354.165517 
L 987.84 261.434483 
L 100.8 261.434483 
z
" style="fill: #eeeeee"/>
   </g>
   <g id="matplotlib.axis_5">
    <g id="xtick_13">
     <g id="line2d_37">
      <path d="M 141.12 354.165517 
L 141.12 261.434483 
" clip-path="url(#pc75299428a)" style="fill: none; stroke-dasharray: 1.85,0.8; stroke-dashoffset: 0; stroke: #b2b2b2; stroke-width: 0.5"/>
     </g>
     <g id="line2d_38">
      <g>
       <use xlink:href="#m01d779abbc" x="141.12" y="354.165517" style="stroke: #000000; stroke-width: 0.8"/>
      </g>
     </g>
    </g>
    <g id="xtick_14">
     <g id="line2d_39">
      <path d="M 302.4 354.165517 
L 302.4 261.434483 
" clip-path="url(#pc75299428a)" style="fill: none; stroke-dasharray: 1.85,0.8; stroke-dashoffset: 0; stroke: #b2b2b2; stroke-width: 0.5"/>
     </g>
     <g id="line2d_40">
      <g>
       <use xlink:href="#m01d779abbc" x="302.4" y="354.165517" style="stroke: #000000; stroke-width: 0.8"/>
      </g>
     </g>
    </g>
    <g id="xtick_15">
     <g id="line2d_41">
      <path d="M 463.68 354.165517 
L 463.68 261.434483 
" clip-path="url(#pc75299428a)" style="fill: none; stroke-dasharray: 1.85,0.8; stroke-dashoffset: 0; stroke: #b2b2b2; stroke-width: 0.5"/>
     </g>
     <g id="line2d_42">
      <g>
       <use xlink:href="#m01d779abbc" x="463.68" y="354.165517" style="stroke: #000000; stroke-width: 0.8"/>
      </g>
     </g>
    </g>
    <g id="xtick_16">
     <g id="line2d_43">
      <path d="M 624.96 354.165517 
L 624.96 261.434483 
" clip-path="url(#pc75299428a)" style="fill: none; stroke-dasharray: 1.85,0.8; stroke-dashoffset: 0; stroke: #b2b2b2; stroke-width: 0.5"/>
     </g>
     <g id="line2d_44">
      <g>
       <use xlink:href="#m01d779abbc" x="624.96" y="354.165517" style="stroke: #000000; stroke-width: 0.8"/>
      </g>
     </g>
    </g>
    <g id="xtick_17">
     <g id="line2d_45">
      <path d="M 786.24 354.165517 
L 786.24 261.434483 
" clip-path="url(#pc75299428a)" style="fill: none; stroke-dasharray: 1.85,0.8; stroke-dashoffset: 0; stroke: #b2b2b2; stroke-width: 0.5"/>
     </g>
     <g id="line2d_46">
      <g>
       <use xlink:href="#m01d779abbc" x="786.24" y="354.165517" style="stroke: #000000; stroke-width: 0.8"/>
      </g>
     </g>
    </g>
    <g id="xtick_18">
     <g id="line2d_47">
      <path d="M 947.52 354.165517 
L 947.52 261.434483 
" clip-path="url(#pc75299428a)" style="fill: none; stroke-dasharray: 1.85,0.8; stroke-dashoffset: 0; stroke: #b2b2b2; stroke-width: 0.5"/>
     </g>
     <g id="line2d_48">
      <g>
       <use xlink:href="#m01d779abbc" x="947.52" y="354.165517" style="stroke: #000000; stroke-width: 0.8"/>
      </g>
     </g>
    </g>
   </g>
   <g id="matplotlib.axis_6">
    <g id="ytick_6">
     <g id="line2d_49">
      <path d="M 100.8 344.747843 
L 987.84 344.747843 
" clip-path="url(#pc75299428a)" style="fill: none; stroke-dasharray: 1.85,0.8; stroke-dashoffset: 0; stroke: #b2b2b2; stroke-width: 0.5"/>
     </g>
     <g id="line2d_50">
      <g>
       <use xlink:href="#m7efaa54076" x="100.8" y="344.747843" style="stroke: #000000; stroke-width: 0.8"/>
      </g>
     </g>
     <g id="text_8">
      <!-- 0 V -->
      <g transform="translate(74.36625 350.06675) scale(0.14 -0.14)">
       <use xlink:href="#DejaVuSans-30"/>
       <use xlink:href="#DejaVuSans-20" x="63.623047"/>
       <use xlink:href="#DejaVuSans-56" x="95.410156"/>
      </g>
     </g>
    </g>
    <g id="ytick_7">
     <g id="line2d_51">
      <path d="M 100.8 303.704717 
L 987.84 303.704717 
" clip-path="url(#pc75299428a)" style="fill: none; stroke-dasharray: 1.85,0.8; stroke-dashoffset: 0; stroke: #b2b2b2; stroke-width: 0.5"/>
     </g>
     <g id="line2d_52">
      <g>
       <use xlink:href="#m7efaa54076" x="100.8" y="303.704717" style="stroke: #000000; stroke-width: 0.8"/>
      </g>
     </g>
     <g id="text_9">
      <!-- 1 V -->
      <g transform="translate(74.36625 309.023623) scale(0.14 -0.14)">
       <use xlink:href="#DejaVuSans-31"/>
       <use xlink:href="#DejaVuSans-20" x="63.623047"/>
       <use xlink:href="#DejaVuSans-56" x="95.410156"/>
      </g>
     </g>
    </g>
    <g id="ytick_8">
     <g id="line2d_53">
      <path d="M 100.8 262.66159 
L 987.84 262.66159 
" clip-path="url(#pc75299428a)" style="fill: none; stroke-dasharray: 1.85,0.8; stroke-dashoffset: 0; stroke: #b2b2b2; stroke-width: 0.5"/>
     </g>
     <g id="line2d_54">
      <g>
       <use xlink:href="#m7efaa54076" x="100.8" y="262.66159" style="stroke: #000000; stroke-width: 0.8"/>
      </g>
     </g>
     <g id="text_10">
      <!-- 2 V -->
      <g transform="translate(74.36625 267.980496) scale(0.14 -0.14)">
       <use xlink:href="#DejaVuSans-32"/>
       <use xlink:href="#DejaVuSans-20" x="63.623047"/>
       <use xlink:href="#DejaVuSans-56" x="95.410156"/>
      </g>
     </g>
    </g>
    <g id="text_11">
     <g id="patch_15">
      <path d="M 34.8768 342.395313 
L 34.8768 273.204688 
L 11.247425 273.204688 
L 11.247425 342.395313 
z
" style="fill: #ffff00; opacity: 0.2; stroke: #eeeeee; stroke-width: 0.5; stroke-linejoin: miter"/>
     </g>
     <!-- CLK BUF -->
     <g transform="translate(26.925238 337.355313) rotate(-90) scale(0.14 -0.14)">
      <defs>
       <path id="DejaVuSans-43" d="M 4122 4306 
L 4122 3641 
Q 3803 3938 3442 4084 
Q 3081 4231 2675 4231 
Q 1875 4231 1450 3742 
Q 1025 3253 1025 2328 
Q 1025 1406 1450 917 
Q 1875 428 2675 428 
Q 3081 428 3442 575 
Q 3803 722 4122 1019 
L 4122 359 
Q 3791 134 3420 21 
Q 3050 -91 2638 -91 
Q 1578 -91 968 557 
Q 359 1206 359 2328 
Q 359 3453 968 4101 
Q 1578 4750 2638 4750 
Q 3056 4750 3426 4639 
Q 3797 4528 4122 4306 
z
" transform="scale(0.015625)"/>
       <path id="DejaVuSans-4b" d="M 628 4666 
L 1259 4666 
L 1259 2694 
L 3353 4666 
L 4166 4666 
L 1850 2491 
L 4331 0 
L 3500 0 
L 1259 2247 
L 1259 0 
L 628 0 
L 628 4666 
z
" transform="scale(0.015625)"/>
      </defs>
      <use xlink:href="#DejaVuSans-43"/>
      <use xlink:href="#DejaVuSans-4c" x="69.824219"/>
      <use xlink:href="#DejaVuSans-4b" x="125.537109"/>
      <use xlink:href="#DejaVuSans-20" x="191.113281"/>
      <use xlink:href="#DejaVuSans-42" x="222.900391"/>
      <use xlink:href="#DejaVuSans-55" x="291.503906"/>
      <use xlink:href="#DejaVuSans-46" x="364.697266"/>
     </g>
    </g>
   </g>
   <g id="line2d_55">
    <path d="M 141.12 344.746758 
L 173.376 344.746758 
L 173.601792 295.496091 
L 213.696 295.496091 
L 213.760512 334.782162 
L 213.825024 344.729093 
L 213.889536 344.67003 
L 213.954048 344.833993 
L 214.01856 344.752291 
L 215.437824 344.742452 
L 223.824384 344.746672 
L 254.016 344.74673 
L 254.17728 295.344232 
L 254.241792 295.606908 
L 254.403072 295.487883 
L 254.854656 295.496091 
L 279.917568 295.602804 
L 281.562624 297.872489 
L 283.239936 300.634691 
L 290.14272 311.839465 
L 293.36832 316.522896 
L 294.336 317.853103 
L 294.368256 316.571327 
L 294.400512 316.887769 
L 294.561792 345.932512 
L 294.594048 345.924222 
L 296.013312 345.889171 
L 296.239104 345.885149 
L 296.658432 345.867664 
L 297.980928 345.929024 
L 298.593792 346.06463 
L 299.561472 346.463241 
L 302.4 348.086415 
L 302.432256 348.065113 
L 302.464512 348.117607 
L 302.658048 348.237905 
L 303.593472 348.796953 
L 305.593344 349.95047 
L 305.851392 349.831035 
L 306.819072 349.403365 
L 310.689792 348.086866 
L 311.141376 347.945555 
L 311.625216 347.79271 
L 319.237632 345.728241 
L 324.205056 344.810676 
L 325.204992 344.646315 
L 326.204928 344.441305 
L 328.140288 344.250729 
L 328.656384 344.231644 
L 331.301376 344.208496 
L 332.301312 344.219577 
L 334.656 344.247446 
L 334.688256 342.161183 
L 334.81728 316.043922 
L 334.881792 315.58465 
L 334.946304 315.729943 
L 335.397888 315.466446 
L 339.752448 313.155307 
L 344.526336 310.669325 
L 345.913344 308.144352 
L 348.397056 302.970045 
L 351.461376 296.604256 
L 352.138752 295.278563 
L 354.396672 290.927991 
L 359.944704 281.270544 
L 360.94464 279.686279 
L 362.71872 276.96512 
L 370.169856 265.768555 
L 371.621376 265.686469 
L 374.040576 266.408828 
L 374.976 266.823363 
L 375.040512 345.195542 
L 375.13728 345.089601 
L 375.846912 345.111301 
L 383.20128 345.101734 
L 389.4912 345.065472 
L 393.232896 345.219347 
L 413.070336 345.057768 
L 415.296 345.038252 
L 415.425024 284.270796 
L 415.521792 284.484221 
L 417.457152 285.116285 
L 417.747456 285.222997 
L 419.16672 285.649845 
L 419.48928 285.756558 
L 420.45696 286.019234 
L 420.747264 286.125946 
L 421.714944 286.388622 
L 422.102016 286.495334 
L 423.069696 286.75801 
L 423.456768 286.864722 
L 424.32768 287.086355 
L 424.714752 287.193067 
L 425.488896 287.373657 
L 425.875968 287.480369 
L 426.650112 287.660959 
L 427.037184 287.767671 
L 427.682304 287.907217 
L 428.101632 288.013929 
L 428.746752 288.153476 
L 429.16608 288.260188 
L 429.8112 288.399735 
L 430.327296 288.506447 
L 430.972416 288.645994 
L 431.488512 288.752706 
L 432.133632 288.892252 
L 432.649728 288.998965 
L 433.294848 289.138511 
L 433.907712 289.245223 
L 434.552832 289.38477 
L 435.165696 289.491482 
L 435.714048 289.589986 
L 436.230144 289.696698 
L 436.778496 289.795201 
L 437.39136 289.897809 
L 437.746176 289.959374 
L 438.35904 290.066086 
L 438.907392 290.164589 
L 439.520256 290.267197 
L 439.875072 290.328762 
L 440.584704 290.43137 
L 440.93952 290.492934 
L 441.649152 290.595542 
L 442.003968 290.657107 
L 442.7136 290.759715 
L 443.068416 290.821279 
L 443.778048 290.923887 
L 444.132864 290.985452 
L 444.939264 291.08806 
L 445.29408 291.149624 
L 446.197248 291.252232 
L 446.552064 291.313797 
L 447.455232 291.416405 
L 447.810048 291.477969 
L 448.713216 291.580577 
L 448.971264 291.601099 
L 449.777664 291.703707 
L 450.13248 291.761167 
L 455.551488 292.339875 
L 455.616 292.339875 
L 455.648256 299.214599 
L 455.77728 344.765448 
L 455.809536 344.905502 
L 455.874048 344.83499 
L 456.390144 344.831309 
L 495.936 344.770888 
L 496.065024 294.40024 
L 496.161792 294.642394 
L 496.613376 294.634186 
L 500.29056 294.740898 
L 500.548608 294.757315 
L 505.806336 294.864027 
L 506.064384 294.880445 
L 512.580096 294.987157 
L 512.838144 295.003574 
L 536.256 295.08566 
L 536.385024 345.061241 
L 536.546304 344.822587 
L 536.804352 344.731097 
L 537.159168 344.775746 
L 537.481728 344.758297 
L 576.576 344.758512 
L 576.705024 294.917383 
L 576.769536 295.089765 
L 576.834048 295.122599 
L 576.866304 295.093869 
L 577.05984 295.08566 
L 616.896 295.08566 
L 617.025024 345.061236 
L 617.186304 344.822587 
L 617.444352 344.731097 
L 617.799168 344.775746 
L 618.121728 344.758297 
L 657.216 344.758512 
L 657.37728 294.872236 
L 657.441792 295.336023 
L 657.53856 294.917383 
L 657.603072 295.069243 
L 658.086912 295.08566 
L 697.536 295.08566 
L 697.826304 345.356144 
L 697.955328 344.738666 
L 698.116608 344.744279 
L 698.66496 344.758734 
L 737.856 344.758513 
L 738.01728 295.003574 
L 738.081792 295.102077 
L 739.081728 295.08566 
L 778.176 295.08566 
L 778.305024 345.061232 
L 778.466304 344.822587 
L 778.724352 344.731095 
L 779.079168 344.775744 
L 779.401728 344.758297 
L 818.496 344.758512 
L 818.65728 294.872236 
L 818.721792 295.336023 
L 818.81856 294.917383 
L 818.883072 295.069243 
L 819.366912 295.08566 
L 858.816 295.08566 
L 859.106304 345.356062 
L 859.235328 344.738668 
L 859.396608 344.744281 
L 859.94496 344.758733 
L 899.136 344.758513 
L 899.29728 295.003574 
L 899.361792 295.102077 
L 900.361728 295.08566 
L 939.456 295.08566 
L 939.488256 302.485736 
L 939.61728 344.790155 
L 939.649536 345.462117 
L 939.714048 344.754091 
L 939.746304 344.680512 
L 939.810816 344.729749 
L 940.036608 344.766464 
L 940.713984 344.757857 
L 947.52 344.7562 
L 947.52 344.7562 
" clip-path="url(#pc75299428a)" style="fill: none; stroke: #0000ff; stroke-width: 2; stroke-linecap: square"/>
   </g>
   <g id="patch_16">
    <path d="M 100.8 354.165517 
L 100.8 261.434483 
" style="fill: none; stroke: #bcbcbc; stroke-width: 0.8; stroke-linejoin: miter; stroke-linecap: square"/>
   </g>
   <g id="patch_17">
    <path d="M 987.84 354.165517 
L 987.84 261.434483 
" style="fill: none; stroke: #bcbcbc; stroke-width: 0.8; stroke-linejoin: miter; stroke-linecap: square"/>
   </g>
   <g id="patch_18">
    <path d="M 100.8 354.165517 
L 987.84 354.165517 
" style="fill: none; stroke: #bcbcbc; stroke-width: 0.8; stroke-linejoin: miter; stroke-linecap: square"/>
   </g>
   <g id="patch_19">
    <path d="M 100.8 261.434483 
L 987.84 261.434483 
" style="fill: none; stroke: #bcbcbc; stroke-width: 0.8; stroke-linejoin: miter; stroke-linecap: square"/>
   </g>
  </g>
  <g id="axes_4">
   <g id="patch_20">
    <path d="M 100.8 465.442759 
L 987.84 465.442759 
L 987.84 372.711724 
L 100.8 372.711724 
z
" style="fill: #eeeeee"/>
   </g>
   <g id="matplotlib.axis_7">
    <g id="xtick_19">
     <g id="line2d_56">
      <path d="M 141.12 465.442759 
L 141.12 372.711724 
" clip-path="url(#pabf00285eb)" style="fill: none; stroke-dasharray: 1.85,0.8; stroke-dashoffset: 0; stroke: #b2b2b2; stroke-width: 0.5"/>
     </g>
     <g id="line2d_57">
      <g>
       <use xlink:href="#m01d779abbc" x="141.12" y="465.442759" style="stroke: #000000; stroke-width: 0.8"/>
      </g>
     </g>
    </g>
    <g id="xtick_20">
     <g id="line2d_58">
      <path d="M 302.4 465.442759 
L 302.4 372.711724 
" clip-path="url(#pabf00285eb)" style="fill: none; stroke-dasharray: 1.85,0.8; stroke-dashoffset: 0; stroke: #b2b2b2; stroke-width: 0.5"/>
     </g>
     <g id="line2d_59">
      <g>
       <use xlink:href="#m01d779abbc" x="302.4" y="465.442759" style="stroke: #000000; stroke-width: 0.8"/>
      </g>
     </g>
    </g>
    <g id="xtick_21">
     <g id="line2d_60">
      <path d="M 463.68 465.442759 
L 463.68 372.711724 
" clip-path="url(#pabf00285eb)" style="fill: none; stroke-dasharray: 1.85,0.8; stroke-dashoffset: 0; stroke: #b2b2b2; stroke-width: 0.5"/>
     </g>
     <g id="line2d_61">
      <g>
       <use xlink:href="#m01d779abbc" x="463.68" y="465.442759" style="stroke: #000000; stroke-width: 0.8"/>
      </g>
     </g>
    </g>
    <g id="xtick_22">
     <g id="line2d_62">
      <path d="M 624.96 465.442759 
L 624.96 372.711724 
" clip-path="url(#pabf00285eb)" style="fill: none; stroke-dasharray: 1.85,0.8; stroke-dashoffset: 0; stroke: #b2b2b2; stroke-width: 0.5"/>
     </g>
     <g id="line2d_63">
      <g>
       <use xlink:href="#m01d779abbc" x="624.96" y="465.442759" style="stroke: #000000; stroke-width: 0.8"/>
      </g>
     </g>
    </g>
    <g id="xtick_23">
     <g id="line2d_64">
      <path d="M 786.24 465.442759 
L 786.24 372.711724 
" clip-path="url(#pabf00285eb)" style="fill: none; stroke-dasharray: 1.85,0.8; stroke-dashoffset: 0; stroke: #b2b2b2; stroke-width: 0.5"/>
     </g>
     <g id="line2d_65">
      <g>
       <use xlink:href="#m01d779abbc" x="786.24" y="465.442759" style="stroke: #000000; stroke-width: 0.8"/>
      </g>
     </g>
    </g>
    <g id="xtick_24">
     <g id="line2d_66">
      <path d="M 947.52 465.442759 
L 947.52 372.711724 
" clip-path="url(#pabf00285eb)" style="fill: none; stroke-dasharray: 1.85,0.8; stroke-dashoffset: 0; stroke: #b2b2b2; stroke-width: 0.5"/>
     </g>
     <g id="line2d_67">
      <g>
       <use xlink:href="#m01d779abbc" x="947.52" y="465.442759" style="stroke: #000000; stroke-width: 0.8"/>
      </g>
     </g>
    </g>
   </g>
   <g id="matplotlib.axis_8">
    <g id="ytick_9">
     <g id="line2d_68">
      <path d="M 100.8 437.497598 
L 987.84 437.497598 
" clip-path="url(#pabf00285eb)" style="fill: none; stroke-dasharray: 1.85,0.8; stroke-dashoffset: 0; stroke: #b2b2b2; stroke-width: 0.5"/>
     </g>
     <g id="line2d_69">
      <g>
       <use xlink:href="#m7efaa54076" x="100.8" y="437.497598" style="stroke: #000000; stroke-width: 0.8"/>
      </g>
     </g>
     <g id="text_12">
      <!-- 0 V -->
      <g transform="translate(74.36625 442.816505) scale(0.14 -0.14)">
       <use xlink:href="#DejaVuSans-30"/>
       <use xlink:href="#DejaVuSans-20" x="63.623047"/>
       <use xlink:href="#DejaVuSans-56" x="95.410156"/>
      </g>
     </g>
    </g>
    <g id="ytick_10">
     <g id="line2d_70">
      <path d="M 100.8 395.97945 
L 987.84 395.97945 
" clip-path="url(#pabf00285eb)" style="fill: none; stroke-dasharray: 1.85,0.8; stroke-dashoffset: 0; stroke: #b2b2b2; stroke-width: 0.5"/>
     </g>
     <g id="line2d_71">
      <g>
       <use xlink:href="#m7efaa54076" x="100.8" y="395.97945" style="stroke: #000000; stroke-width: 0.8"/>
      </g>
     </g>
     <g id="text_13">
      <!-- 1 V -->
      <g transform="translate(74.36625 401.298356) scale(0.14 -0.14)">
       <use xlink:href="#DejaVuSans-31"/>
       <use xlink:href="#DejaVuSans-20" x="63.623047"/>
       <use xlink:href="#DejaVuSans-56" x="95.410156"/>
      </g>
     </g>
    </g>
    <g id="text_14">
     <g id="patch_21">
      <path d="M 34.8768 454.693023 
L 34.8768 383.46146 
L 11.247425 383.46146 
L 11.247425 454.693023 
z
" style="fill: #ffff00; opacity: 0.2; stroke: #eeeeee; stroke-width: 0.5; stroke-linejoin: miter"/>
     </g>
     <!-- DFF OUT -->
     <g transform="translate(26.925238 449.653023) rotate(-90) scale(0.14 -0.14)">
      <defs>
       <path id="DejaVuSans-4f" d="M 2522 4238 
Q 1834 4238 1429 3725 
Q 1025 3213 1025 2328 
Q 1025 1447 1429 934 
Q 1834 422 2522 422 
Q 3209 422 3611 934 
Q 4013 1447 4013 2328 
Q 4013 3213 3611 3725 
Q 3209 4238 2522 4238 
z
M 2522 4750 
Q 3503 4750 4090 4092 
Q 4678 3434 4678 2328 
Q 4678 1225 4090 567 
Q 3503 -91 2522 -91 
Q 1538 -91 948 565 
Q 359 1222 359 2328 
Q 359 3434 948 4092 
Q 1538 4750 2522 4750 
z
" transform="scale(0.015625)"/>
       <path id="DejaVuSans-54" d="M -19 4666 
L 3928 4666 
L 3928 4134 
L 2272 4134 
L 2272 0 
L 1638 0 
L 1638 4134 
L -19 4134 
L -19 4666 
z
" transform="scale(0.015625)"/>
      </defs>
      <use xlink:href="#DejaVuSans-44"/>
      <use xlink:href="#DejaVuSans-46" x="77.001953"/>
      <use xlink:href="#DejaVuSans-46" x="134.521484"/>
      <use xlink:href="#DejaVuSans-20" x="192.041016"/>
      <use xlink:href="#DejaVuSans-4f" x="223.828125"/>
      <use xlink:href="#DejaVuSans-55" x="302.539062"/>
      <use xlink:href="#DejaVuSans-54" x="375.732422"/>
     </g>
    </g>
   </g>
   <g id="line2d_72">
    <path d="M 141.12 406.17091 
L 173.408256 406.221562 
L 173.440512 407.940413 
L 173.601792 437.500132 
L 174.085632 437.494942 
L 183.923712 437.496499 
L 254.048256 437.498231 
L 254.080512 437.664202 
L 254.112768 437.389664 
L 254.306304 433.336234 
L 254.596608 432.523724 
L 254.693376 431.944131 
L 255.14496 424.670151 
L 255.370752 407.573808 
L 255.596544 388.078546 
L 255.757824 387.738097 
L 255.983616 387.671668 
L 256.854528 387.67582 
L 279.917568 387.779615 
L 281.530368 390.029899 
L 283.239936 392.882196 
L 287.788032 400.7038 
L 288.400896 402.244953 
L 289.304064 405.842916 
L 291.27168 414.996423 
L 291.465216 415.95134 
L 291.561984 415.867473 
L 291.691008 416.311302 
L 292.110336 419.142425 
L 292.23936 419.775161 
L 292.271616 419.194738 
L 292.303872 419.82955 
L 292.497408 421.004099 
L 294.49728 430.960566 
L 294.594048 430.681149 
L 294.690816 430.896628 
L 294.948864 432.842168 
L 295.206912 433.91097 
L 295.239168 433.381987 
L 295.30368 433.583433 
L 295.723008 436.03508 
L 295.9488 436.927554 
L 295.981056 436.438055 
L 296.045568 436.728724 
L 296.142336 437.602262 
L 296.335872 438.598909 
L 296.626176 439.733226 
L 296.658432 439.540582 
L 296.690688 439.50608 
L 296.851968 440.535689 
L 297.142272 441.680552 
L 297.368064 442.255578 
L 297.40032 442.060028 
L 297.464832 442.217797 
L 298.497024 445.246961 
L 298.722816 445.460364 
L 299.1744 446.349683 
L 299.33568 447.144756 
L 299.49696 447.293806 
L 299.755008 448.210942 
L 300.206592 449.029679 
L 300.30336 449.281695 
L 300.46464 449.976708 
L 301.10976 451.415312 
L 301.335552 451.830079 
L 301.367808 452.145201 
L 301.464576 452.095795 
L 301.690368 452.634285 
L 301.787136 453.133748 
L 301.819392 452.96477 
L 301.851648 453.013761 
L 301.980672 453.478349 
L 302.012928 453.454684 
L 302.045184 453.539796 
L 302.72256 455.20841 
L 302.754816 455.035695 
L 302.787072 455.125789 
L 302.916096 455.583734 
L 302.948352 455.439251 
L 303.657984 457.229929 
L 305.593344 461.185363 
L 305.657856 461.111046 
L 305.690112 461.107724 
L 305.722368 461.227712 
L 305.78688 461.050014 
L 305.980416 460.905531 
L 306.302976 460.235428 
L 306.399744 459.958502 
L 306.432 459.405065 
L 306.528768 459.592312 
L 306.59328 459.766273 
L 306.625536 459.687803 
L 307.012608 458.901865 
L 307.173888 458.4215 
L 307.593216 457.754718 
L 307.625472 457.778799 
L 307.657728 457.703651 
L 307.72224 456.977914 
L 307.786752 457.382301 
L 307.851264 457.393926 
L 307.88352 457.121151 
L 307.980288 457.150214 
L 308.754432 455.898857 
L 308.786688 456.047077 
L 308.818944 455.986045 
L 308.980224 455.609476 
L 309.17376 455.357461 
L 309.206016 455.535989 
L 309.238272 455.300996 
L 309.33504 455.169799 
L 309.367296 455.281898 
L 309.399552 455.269027 
L 309.528576 454.952243 
L 309.560832 455.068079 
L 309.625344 454.893288 
L 309.722112 454.802363 
L 310.399488 453.967848 
L 310.528512 453.656462 
L 310.560768 453.709605 
L 310.62528 453.791396 
L 310.689792 453.488313 
L 310.722048 453.68594 
L 310.754304 453.658953 
L 310.851072 453.288196 
L 310.883328 453.510318 
L 310.915584 453.328053 
L 311.076864 452.984283 
L 311.10912 452.960203 
L 311.141376 453.127936 
L 311.173632 452.875506 
L 311.367168 452.69075 
L 311.399424 452.906229 
L 311.463936 452.643419 
L 311.496192 452.625982 
L 311.528448 452.760085 
L 311.560704 452.448284 
L 311.657472 452.495615 
L 311.721984 452.498521 
L 311.851008 452.239032 
L 311.883264 452.366908 
L 311.91552 452.327466 
L 312.044544 452.020232 
L 312.367104 451.842534 
L 312.947712 450.949894 
L 313.20576 450.611936 
L 313.238016 450.868103 
L 313.270272 450.536373 
L 313.334784 450.447939 
L 313.36704 450.736906 
L 313.399296 450.42718 
L 313.431552 450.428011 
L 313.52832 450.223326 
L 313.560576 450.512293 
L 313.592832 450.089223 
L 313.657344 450.419292 
L 313.786368 449.919413 
L 314.044416 449.686081 
L 314.399232 449.366392 
L 314.431488 449.592666 
L 314.496 449.359749 
L 314.625024 449.370959 
L 314.786304 449.119774 
L 314.915328 449.082823 
L 315.14112 448.871495 
L 315.528192 448.473751 
L 315.753984 447.894988 
L 315.850752 447.737635 
L 315.883008 448.025771 
L 315.94752 447.612665 
L 315.979776 447.887515 
L 316.044288 447.505963 
L 316.076544 447.779983 
L 316.205568 447.29256 
L 316.27008 447.293806 
L 316.302336 447.233189 
L 316.689408 446.826727 
L 317.23776 446.38871 
L 318.108672 445.796246 
L 318.463488 445.419261 
L 318.786048 444.664461 
L 318.85056 444.583086 
L 318.882816 444.955504 
L 318.947328 444.463098 
L 318.979584 444.859181 
L 319.108608 444.276267 
L 319.140864 444.270869 
L 319.17312 444.688542 
L 319.205376 444.124725 
L 319.237632 444.459777 
L 319.398912 444.135935 
L 319.431168 444.375495 
L 319.463424 443.956162 
L 319.49568 443.970278 
L 319.560192 443.813339 
L 319.624704 444.172056 
L 319.81824 443.668856 
L 319.850496 444.047086 
L 319.882752 443.594123 
L 319.947264 443.968617 
L 320.076288 443.464587 
L 320.108544 443.482024 
L 320.173056 443.423484 
L 320.237568 443.695843 
L 320.398848 443.377399 
L 320.431104 443.446319 
L 320.495616 443.3583 
L 320.753664 443.245371 
L 321.624576 442.424557 
L 321.91488 442.109434 
L 322.043904 441.455358 
L 322.140672 441.367007 
L 322.172928 441.843303 
L 322.23744 441.268484 
L 322.527744 440.964904 
L 322.56 441.450583 
L 322.624512 440.912549 
L 322.753536 441.228627 
L 322.88256 440.627735 
L 322.914816 440.655759 
L 323.04384 440.817597 
L 323.076096 440.961582 
L 323.108352 440.884691 
L 323.269632 440.440363 
L 323.301888 440.451905 
L 323.85024 440.242903 
L 325.108224 438.885093 
L 325.559808 438.163134 
L 325.62432 437.607265 
L 325.656576 437.658037 
L 325.688832 437.897734 
L 325.721088 437.458813 
L 325.753344 437.768504 
L 326.204928 437.031557 
L 326.979072 435.583446 
L 327.108096 434.775129 
L 327.140352 434.868918 
L 327.204864 435.125085 
L 327.269376 434.735604 
L 327.333888 434.747146 
L 327.366144 434.829808 
L 327.430656 434.725722 
L 329.688576 430.187913 
L 329.720832 430.222788 
L 329.8176 429.179853 
L 329.882112 429.886076 
L 329.914368 429.692602 
L 330.043392 429.166152 
L 330.107904 429.307728 
L 330.172416 429.213482 
L 332.752896 424.02745 
L 332.817408 423.491451 
L 332.88192 423.643407 
L 332.914176 423.685756 
L 332.978688 423.600644 
L 333.817344 421.655518 
L 334.107648 421.091287 
L 334.236672 420.397103 
L 334.397952 420.532452 
L 334.430208 420.444434 
L 334.946304 419.340051 
L 335.591424 418.267637 
L 335.688192 417.452636 
L 335.720448 417.991127 
L 335.78496 417.503704 
L 335.849472 417.651508 
L 335.881728 417.682232 
L 335.913984 417.630334 
L 337.204224 415.223527 
L 337.23648 414.520625 
L 337.333248 414.603246 
L 337.494528 414.663447 
L 337.72032 414.392333 
L 337.913856 413.952656 
L 337.978368 413.86879 
L 338.010624 414.045242 
L 338.075136 413.811079 
L 338.107392 413.751293 
L 338.139648 413.829347 
L 338.462208 415.61878 
L 338.558976 420.0114 
L 338.817024 436.859132 
L 338.84928 436.673131 
L 339.01056 436.781078 
L 339.945984 436.902311 
L 342.88128 437.045175 
L 344.397312 436.989209 
L 345.074688 436.376982 
L 345.881088 435.988206 
L 346.881024 435.763261 
L 348.429312 435.668599 
L 351.816192 435.753255 
L 365.266944 436.110477 
L 368.5248 436.178442 
L 370.202112 436.327866 
L 370.879488 436.97119 
L 371.685888 437.398125 
L 372.653568 437.660528 
L 374.105088 437.821307 
L 377.07264 437.885432 
L 389.297664 437.82012 
L 390.491136 437.926564 
L 393.136128 437.979998 
L 408.489984 437.829465 
L 415.328256 437.79682 
L 415.360512 438.153834 
L 415.650816 430.456951 
L 415.876608 428.974338 
L 416.037888 426.101282 
L 416.199168 417.475056 
L 416.392704 392.819919 
L 416.58624 377.059629 
L 416.715264 376.926771 
L 418.5216 377.508025 
L 418.811904 377.615972 
L 420.102144 378.002091 
L 420.715008 378.180619 
L 421.231104 378.321781 
L 422.198784 378.587497 
L 422.585856 378.695444 
L 423.553536 378.96116 
L 423.940608 379.069108 
L 424.81152 379.293306 
L 425.198592 379.401253 
L 425.972736 379.583933 
L 426.359808 379.69188 
L 427.133952 379.87456 
L 427.617792 379.982507 
L 428.391936 380.165187 
L 428.875776 380.273134 
L 429.64992 380.455814 
L 430.13376 380.563761 
L 430.77888 380.704923 
L 431.294976 380.81287 
L 431.940096 380.954032 
L 432.456192 381.061979 
L 433.101312 381.20314 
L 433.617408 381.311088 
L 434.16576 381.410731 
L 434.681856 381.518678 
L 435.230208 381.618322 
L 435.843072 381.726269 
L 436.391424 381.825913 
L 436.90752 381.93386 
L 437.455872 382.033503 
L 438.068736 382.141451 
L 438.617088 382.241094 
L 439.32672 382.34489 
L 439.681536 382.407167 
L 440.2944 382.510962 
L 440.649216 382.573239 
L 441.358848 382.677035 
L 441.713664 382.739312 
L 442.423296 382.847259 
L 442.87488 382.905385 
L 443.487744 383.00918 
L 443.84256 383.071457 
L 444.64896 383.175253 
L 445.003776 383.23753 
L 445.906944 383.341325 
L 446.26176 383.403602 
L 447.06816 383.507398 
L 447.326208 383.528157 
L 448.03584 383.631952 
L 448.293888 383.652711 
L 449.100288 383.756507 
L 449.455104 383.818784 
L 450.45504 383.922579 
L 450.809856 383.984856 
L 451.809792 384.088652 
L 452.06784 384.109411 
L 452.971008 384.213206 
L 453.229056 384.233965 
L 454.132224 384.337761 
L 454.390272 384.35852 
L 455.29344 384.462315 
L 455.551488 384.483074 
L 456.551424 384.58687 
L 456.809472 384.607629 
L 457.809408 384.711424 
L 458.067456 384.732183 
L 459.16416 384.835979 
L 459.422208 384.856738 
L 460.61568 384.960533 
L 460.873728 384.981292 
L 462.0672 385.085087 
L 462.325248 385.105846 
L 463.615488 385.209642 
L 463.873536 385.230401 
L 465.260544 385.334196 
L 465.518592 385.354955 
L 467.002368 385.458751 
L 467.260416 385.47951 
L 468.744192 385.583305 
L 469.00224 385.599912 
L 470.679552 385.70786 
L 470.9376 385.728619 
L 472.71168 385.832414 
L 472.969728 385.853173 
L 474.937344 385.956969 
L 475.195392 385.977728 
L 477.259776 386.081523 
L 477.517824 386.102282 
L 479.872512 386.206077 
L 480.195072 386.222685 
L 482.582016 386.330632 
L 482.904576 386.347239 
L 485.678592 386.455186 
L 485.93664 386.471794 
L 489.065472 386.579741 
L 489.32352 386.596348 
L 492.839424 386.704295 
L 493.097472 386.720902 
L 495.968256 386.787332 
L 496.000512 387.040592 
L 496.065024 386.770724 
L 496.25856 386.799787 
L 500.258304 386.899431 
L 500.61312 386.928493 
L 505.806336 387.03644 
L 506.128896 387.053048 
L 512.580096 387.160995 
L 512.902656 387.177602 
L 536.385024 387.281397 
L 536.514048 387.260638 
L 536.965632 387.256487 
L 576.608256 387.256487 
L 576.640512 387.464077 
L 576.705024 387.235728 
L 576.963072 387.252335 
L 657.248256 387.256487 
L 657.280512 387.468229 
L 657.345024 387.256487 
L 657.53856 387.235728 
L 658.570752 387.260638 
L 737.888256 387.277246 
L 737.920512 387.418407 
L 737.985024 387.227424 
L 738.275328 387.252335 
L 818.528256 387.256487 
L 818.560512 387.468229 
L 818.625024 387.256487 
L 818.81856 387.235728 
L 819.850752 387.260638 
L 899.168256 387.277246 
L 899.200512 387.418407 
L 899.265024 387.227424 
L 899.555328 387.252335 
L 947.52 387.260638 
L 947.52 387.260638 
" clip-path="url(#pabf00285eb)" style="fill: none; stroke: #ff00ff; stroke-width: 2; stroke-linecap: square"/>
   </g>
   <g id="patch_22">
    <path d="M 100.8 465.442759 
L 100.8 372.711724 
" style="fill: none; stroke: #bcbcbc; stroke-width: 0.8; stroke-linejoin: miter; stroke-linecap: square"/>
   </g>
   <g id="patch_23">
    <path d="M 987.84 465.442759 
L 987.84 372.711724 
" style="fill: none; stroke: #bcbcbc; stroke-width: 0.8; stroke-linejoin: miter; stroke-linecap: square"/>
   </g>
   <g id="patch_24">
    <path d="M 100.8 465.442759 
L 987.84 465.442759 
" style="fill: none; stroke: #bcbcbc; stroke-width: 0.8; stroke-linejoin: miter; stroke-linecap: square"/>
   </g>
   <g id="patch_25">
    <path d="M 100.8 372.711724 
L 987.84 372.711724 
" style="fill: none; stroke: #bcbcbc; stroke-width: 0.8; stroke-linejoin: miter; stroke-linecap: square"/>
   </g>
  </g>
  <g id="axes_5">
   <g id="patch_26">
    <path d="M 100.8 576.72 
L 987.84 576.72 
L 987.84 483.988966 
L 100.8 483.988966 
z
" style="fill: #eeeeee"/>
   </g>
   <g id="matplotlib.axis_9">
    <g id="xtick_25">
     <g id="line2d_73">
      <path d="M 141.12 576.72 
L 141.12 483.988966 
" clip-path="url(#p2fee372b1f)" style="fill: none; stroke-dasharray: 1.85,0.8; stroke-dashoffset: 0; stroke: #b2b2b2; stroke-width: 0.5"/>
     </g>
     <g id="line2d_74">
      <g>
       <use xlink:href="#m01d779abbc" x="141.12" y="576.72" style="stroke: #000000; stroke-width: 0.8"/>
      </g>
     </g>
     <g id="text_15">
      <!-- 0 s -->
      <g transform="translate(130.795 590.857813) scale(0.14 -0.14)">
       <defs>
        <path id="DejaVuSans-73" d="M 2834 3397 
L 2834 2853 
Q 2591 2978 2328 3040 
Q 2066 3103 1784 3103 
Q 1356 3103 1142 2972 
Q 928 2841 928 2578 
Q 928 2378 1081 2264 
Q 1234 2150 1697 2047 
L 1894 2003 
Q 2506 1872 2764 1633 
Q 3022 1394 3022 966 
Q 3022 478 2636 193 
Q 2250 -91 1575 -91 
Q 1294 -91 989 -36 
Q 684 19 347 128 
L 347 722 
Q 666 556 975 473 
Q 1284 391 1588 391 
Q 1994 391 2212 530 
Q 2431 669 2431 922 
Q 2431 1156 2273 1281 
Q 2116 1406 1581 1522 
L 1381 1569 
Q 847 1681 609 1914 
Q 372 2147 372 2553 
Q 372 3047 722 3315 
Q 1072 3584 1716 3584 
Q 2034 3584 2315 3537 
Q 2597 3491 2834 3397 
z
" transform="scale(0.015625)"/>
       </defs>
       <use xlink:href="#DejaVuSans-30"/>
       <use xlink:href="#DejaVuSans-20" x="63.623047"/>
       <use xlink:href="#DejaVuSans-73" x="95.410156"/>
      </g>
     </g>
    </g>
    <g id="xtick_26">
     <g id="line2d_75">
      <path d="M 302.4 576.72 
L 302.4 483.988966 
" clip-path="url(#p2fee372b1f)" style="fill: none; stroke-dasharray: 1.85,0.8; stroke-dashoffset: 0; stroke: #b2b2b2; stroke-width: 0.5"/>
     </g>
     <g id="line2d_76">
      <g>
       <use xlink:href="#m01d779abbc" x="302.4" y="576.72" style="stroke: #000000; stroke-width: 0.8"/>
      </g>
     </g>
     <g id="text_16">
      <!-- 50 ns -->
      <g transform="translate(283.185 590.857813) scale(0.14 -0.14)">
       <defs>
        <path id="DejaVuSans-35" d="M 691 4666 
L 3169 4666 
L 3169 4134 
L 1269 4134 
L 1269 2991 
Q 1406 3038 1543 3061 
Q 1681 3084 1819 3084 
Q 2600 3084 3056 2656 
Q 3513 2228 3513 1497 
Q 3513 744 3044 326 
Q 2575 -91 1722 -91 
Q 1428 -91 1123 -41 
Q 819 9 494 109 
L 494 744 
Q 775 591 1075 516 
Q 1375 441 1709 441 
Q 2250 441 2565 725 
Q 2881 1009 2881 1497 
Q 2881 1984 2565 2268 
Q 2250 2553 1709 2553 
Q 1456 2553 1204 2497 
Q 953 2441 691 2322 
L 691 4666 
z
" transform="scale(0.015625)"/>
        <path id="DejaVuSans-6e" d="M 3513 2113 
L 3513 0 
L 2938 0 
L 2938 2094 
Q 2938 2591 2744 2837 
Q 2550 3084 2163 3084 
Q 1697 3084 1428 2787 
Q 1159 2491 1159 1978 
L 1159 0 
L 581 0 
L 581 3500 
L 1159 3500 
L 1159 2956 
Q 1366 3272 1645 3428 
Q 1925 3584 2291 3584 
Q 2894 3584 3203 3211 
Q 3513 2838 3513 2113 
z
" transform="scale(0.015625)"/>
       </defs>
       <use xlink:href="#DejaVuSans-35"/>
       <use xlink:href="#DejaVuSans-30" x="63.623047"/>
       <use xlink:href="#DejaVuSans-20" x="127.246094"/>
       <use xlink:href="#DejaVuSans-6e" x="159.033203"/>
       <use xlink:href="#DejaVuSans-73" x="222.412109"/>
      </g>
     </g>
    </g>
    <g id="xtick_27">
     <g id="line2d_77">
      <path d="M 463.68 576.72 
L 463.68 483.988966 
" clip-path="url(#p2fee372b1f)" style="fill: none; stroke-dasharray: 1.85,0.8; stroke-dashoffset: 0; stroke: #b2b2b2; stroke-width: 0.5"/>
     </g>
     <g id="line2d_78">
      <g>
       <use xlink:href="#m01d779abbc" x="463.68" y="576.72" style="stroke: #000000; stroke-width: 0.8"/>
      </g>
     </g>
     <g id="text_17">
      <!-- 100 ns -->
      <g transform="translate(440.01125 590.857813) scale(0.14 -0.14)">
       <use xlink:href="#DejaVuSans-31"/>
       <use xlink:href="#DejaVuSans-30" x="63.623047"/>
       <use xlink:href="#DejaVuSans-30" x="127.246094"/>
       <use xlink:href="#DejaVuSans-20" x="190.869141"/>
       <use xlink:href="#DejaVuSans-6e" x="222.65625"/>
       <use xlink:href="#DejaVuSans-73" x="286.035156"/>
      </g>
     </g>
    </g>
    <g id="xtick_28">
     <g id="line2d_79">
      <path d="M 624.96 576.72 
L 624.96 483.988966 
" clip-path="url(#p2fee372b1f)" style="fill: none; stroke-dasharray: 1.85,0.8; stroke-dashoffset: 0; stroke: #b2b2b2; stroke-width: 0.5"/>
     </g>
     <g id="line2d_80">
      <g>
       <use xlink:href="#m01d779abbc" x="624.96" y="576.72" style="stroke: #000000; stroke-width: 0.8"/>
      </g>
     </g>
     <g id="text_18">
      <!-- 150 ns -->
      <g transform="translate(601.29125 590.857813) scale(0.14 -0.14)">
       <use xlink:href="#DejaVuSans-31"/>
       <use xlink:href="#DejaVuSans-35" x="63.623047"/>
       <use xlink:href="#DejaVuSans-30" x="127.246094"/>
       <use xlink:href="#DejaVuSans-20" x="190.869141"/>
       <use xlink:href="#DejaVuSans-6e" x="222.65625"/>
       <use xlink:href="#DejaVuSans-73" x="286.035156"/>
      </g>
     </g>
    </g>
    <g id="xtick_29">
     <g id="line2d_81">
      <path d="M 786.24 576.72 
L 786.24 483.988966 
" clip-path="url(#p2fee372b1f)" style="fill: none; stroke-dasharray: 1.85,0.8; stroke-dashoffset: 0; stroke: #b2b2b2; stroke-width: 0.5"/>
     </g>
     <g id="line2d_82">
      <g>
       <use xlink:href="#m01d779abbc" x="786.24" y="576.72" style="stroke: #000000; stroke-width: 0.8"/>
      </g>
     </g>
     <g id="text_19">
      <!-- 200 ns -->
      <g transform="translate(762.57125 590.857813) scale(0.14 -0.14)">
       <use xlink:href="#DejaVuSans-32"/>
       <use xlink:href="#DejaVuSans-30" x="63.623047"/>
       <use xlink:href="#DejaVuSans-30" x="127.246094"/>
       <use xlink:href="#DejaVuSans-20" x="190.869141"/>
       <use xlink:href="#DejaVuSans-6e" x="222.65625"/>
       <use xlink:href="#DejaVuSans-73" x="286.035156"/>
      </g>
     </g>
    </g>
    <g id="xtick_30">
     <g id="line2d_83">
      <path d="M 947.52 576.72 
L 947.52 483.988966 
" clip-path="url(#p2fee372b1f)" style="fill: none; stroke-dasharray: 1.85,0.8; stroke-dashoffset: 0; stroke: #b2b2b2; stroke-width: 0.5"/>
     </g>
     <g id="line2d_84">
      <g>
       <use xlink:href="#m01d779abbc" x="947.52" y="576.72" style="stroke: #000000; stroke-width: 0.8"/>
      </g>
     </g>
     <g id="text_20">
      <!-- 250 ns -->
      <g transform="translate(923.85125 590.857813) scale(0.14 -0.14)">
       <use xlink:href="#DejaVuSans-32"/>
       <use xlink:href="#DejaVuSans-35" x="63.623047"/>
       <use xlink:href="#DejaVuSans-30" x="127.246094"/>
       <use xlink:href="#DejaVuSans-20" x="190.869141"/>
       <use xlink:href="#DejaVuSans-6e" x="222.65625"/>
       <use xlink:href="#DejaVuSans-73" x="286.035156"/>
      </g>
     </g>
    </g>
    <g id="text_21">
     <!-- Time -->
     <g transform="translate(527.192969 608.407187) scale(0.14 -0.14)">
      <defs>
       <path id="DejaVuSans-69" d="M 603 3500 
L 1178 3500 
L 1178 0 
L 603 0 
L 603 3500 
z
M 603 4863 
L 1178 4863 
L 1178 4134 
L 603 4134 
L 603 4863 
z
" transform="scale(0.015625)"/>
       <path id="DejaVuSans-6d" d="M 3328 2828 
Q 3544 3216 3844 3400 
Q 4144 3584 4550 3584 
Q 5097 3584 5394 3201 
Q 5691 2819 5691 2113 
L 5691 0 
L 5113 0 
L 5113 2094 
Q 5113 2597 4934 2840 
Q 4756 3084 4391 3084 
Q 3944 3084 3684 2787 
Q 3425 2491 3425 1978 
L 3425 0 
L 2847 0 
L 2847 2094 
Q 2847 2600 2669 2842 
Q 2491 3084 2119 3084 
Q 1678 3084 1418 2786 
Q 1159 2488 1159 1978 
L 1159 0 
L 581 0 
L 581 3500 
L 1159 3500 
L 1159 2956 
Q 1356 3278 1631 3431 
Q 1906 3584 2284 3584 
Q 2666 3584 2933 3390 
Q 3200 3197 3328 2828 
z
" transform="scale(0.015625)"/>
       <path id="DejaVuSans-65" d="M 3597 1894 
L 3597 1613 
L 953 1613 
Q 991 1019 1311 708 
Q 1631 397 2203 397 
Q 2534 397 2845 478 
Q 3156 559 3463 722 
L 3463 178 
Q 3153 47 2828 -22 
Q 2503 -91 2169 -91 
Q 1331 -91 842 396 
Q 353 884 353 1716 
Q 353 2575 817 3079 
Q 1281 3584 2069 3584 
Q 2775 3584 3186 3129 
Q 3597 2675 3597 1894 
z
M 3022 2063 
Q 3016 2534 2758 2815 
Q 2500 3097 2075 3097 
Q 1594 3097 1305 2825 
Q 1016 2553 972 2059 
L 3022 2063 
z
" transform="scale(0.015625)"/>
      </defs>
      <use xlink:href="#DejaVuSans-54"/>
      <use xlink:href="#DejaVuSans-69" x="57.958984"/>
      <use xlink:href="#DejaVuSans-6d" x="85.742188"/>
      <use xlink:href="#DejaVuSans-65" x="183.154297"/>
     </g>
    </g>
   </g>
   <g id="matplotlib.axis_10">
    <g id="ytick_11">
     <g id="line2d_85">
      <path d="M 100.8 569.740788 
L 987.84 569.740788 
" clip-path="url(#p2fee372b1f)" style="fill: none; stroke-dasharray: 1.85,0.8; stroke-dashoffset: 0; stroke: #b2b2b2; stroke-width: 0.5"/>
     </g>
     <g id="line2d_86">
      <g>
       <use xlink:href="#m7efaa54076" x="100.8" y="569.740788" style="stroke: #000000; stroke-width: 0.8"/>
      </g>
     </g>
     <g id="text_22">
      <!-- 0 V -->
      <g transform="translate(74.36625 575.059694) scale(0.14 -0.14)">
       <use xlink:href="#DejaVuSans-30"/>
       <use xlink:href="#DejaVuSans-20" x="63.623047"/>
       <use xlink:href="#DejaVuSans-56" x="95.410156"/>
      </g>
     </g>
    </g>
    <g id="ytick_12">
     <g id="line2d_87">
      <path d="M 100.8 535.882813 
L 987.84 535.882813 
" clip-path="url(#p2fee372b1f)" style="fill: none; stroke-dasharray: 1.85,0.8; stroke-dashoffset: 0; stroke: #b2b2b2; stroke-width: 0.5"/>
     </g>
     <g id="line2d_88">
      <g>
       <use xlink:href="#m7efaa54076" x="100.8" y="535.882813" style="stroke: #000000; stroke-width: 0.8"/>
      </g>
     </g>
     <g id="text_23">
      <!-- 500 mV -->
      <g transform="translate(42.914375 541.201719) scale(0.14 -0.14)">
       <use xlink:href="#DejaVuSans-35"/>
       <use xlink:href="#DejaVuSans-30" x="63.623047"/>
       <use xlink:href="#DejaVuSans-30" x="127.246094"/>
       <use xlink:href="#DejaVuSans-20" x="190.869141"/>
       <use xlink:href="#DejaVuSans-6d" x="222.65625"/>
       <use xlink:href="#DejaVuSans-56" x="320.068359"/>
      </g>
     </g>
    </g>
    <g id="ytick_13">
     <g id="line2d_89">
      <path d="M 100.8 502.024838 
L 987.84 502.024838 
" clip-path="url(#p2fee372b1f)" style="fill: none; stroke-dasharray: 1.85,0.8; stroke-dashoffset: 0; stroke: #b2b2b2; stroke-width: 0.5"/>
     </g>
     <g id="line2d_90">
      <g>
       <use xlink:href="#m7efaa54076" x="100.8" y="502.024838" style="stroke: #000000; stroke-width: 0.8"/>
      </g>
     </g>
     <g id="text_24">
      <!-- 1 V -->
      <g transform="translate(74.36625 507.343744) scale(0.14 -0.14)">
       <use xlink:href="#DejaVuSans-31"/>
       <use xlink:href="#DejaVuSans-20" x="63.623047"/>
       <use xlink:href="#DejaVuSans-56" x="95.410156"/>
      </g>
     </g>
    </g>
    <g id="text_25">
     <g id="patch_27">
      <path d="M 34.8768 554.329483 
L 34.8768 506.379483 
L 11.247425 506.379483 
L 11.247425 554.329483 
z
" style="fill: #ffff00; opacity: 0.2; stroke: #eeeeee; stroke-width: 0.5; stroke-linejoin: miter"/>
     </g>
     <!-- FOUT -->
     <g transform="translate(26.925238 549.289483) rotate(-90) scale(0.14 -0.14)">
      <use xlink:href="#DejaVuSans-46"/>
      <use xlink:href="#DejaVuSans-4f" x="57.519531"/>
      <use xlink:href="#DejaVuSans-55" x="136.230469"/>
      <use xlink:href="#DejaVuSans-54" x="209.423828"/>
     </g>
    </g>
   </g>
   <g id="line2d_91">
    <path d="M 141.12 488.481648 
L 173.472768 488.48842 
L 173.505024 488.292043 
L 173.569536 526.70527 
L 173.69856 572.504953 
L 173.730816 572.36925 
L 173.827584 567.8335 
L 173.892096 569.355091 
L 174.053376 570.059683 
L 174.117888 569.941938 
L 174.408192 569.486487 
L 174.440448 569.536035 
L 174.66624 569.724827 
L 176.182272 569.735043 
L 180.117504 569.756381 
L 193.503744 569.74747 
L 212.921856 569.73891 
L 255.30624 569.738603 
L 255.6288 488.373302 
L 255.854592 488.515506 
L 256.209408 488.474876 
L 291.239424 488.380074 
L 291.303936 488.204013 
L 291.368448 517.420059 
L 291.465216 570.096439 
L 291.529728 569.739744 
L 293.078016 569.739105 
L 337.817088 569.722287 
L 337.8816 563.012125 
L 338.139648 488.644166 
L 338.300928 488.474876 
L 338.397696 488.515506 
L 338.462208 488.766055 
L 338.52672 522.140538 
L 338.688 569.742299 
L 340.268544 569.739105 
L 416.26368 569.722461 
L 416.328192 565.218717 
L 416.521728 488.840542 
L 416.683008 488.481648 
L 947.52 488.481648 
L 947.52 488.481648 
" clip-path="url(#p2fee372b1f)" style="fill: none; stroke: #ff00ff; stroke-width: 2; stroke-linecap: square"/>
   </g>
   <g id="patch_28">
    <path d="M 100.8 576.72 
L 100.8 483.988966 
" style="fill: none; stroke: #bcbcbc; stroke-width: 0.8; stroke-linejoin: miter; stroke-linecap: square"/>
   </g>
   <g id="patch_29">
    <path d="M 987.84 576.72 
L 987.84 483.988966 
" style="fill: none; stroke: #bcbcbc; stroke-width: 0.8; stroke-linejoin: miter; stroke-linecap: square"/>
   </g>
   <g id="patch_30">
    <path d="M 100.8 576.72 
L 987.84 576.72 
" style="fill: none; stroke: #bcbcbc; stroke-width: 0.8; stroke-linejoin: miter; stroke-linecap: square"/>
   </g>
   <g id="patch_31">
    <path d="M 100.8 483.988966 
L 987.84 483.988966 
" style="fill: none; stroke: #bcbcbc; stroke-width: 0.8; stroke-linejoin: miter; stroke-linecap: square"/>
   </g>
  </g>
  <g id="axes_6">
   <g id="patch_32">
    <path d="M 201.6 628.56 
L 856.8 628.56 
L 856.8 615.6 
L 201.6 615.6 
z
" clip-path="url(#p949c559431)" style="fill: #d3d3d3"/>
   </g>
   <g id="patch_33">
    <path d="M 201.6 628.56 
L 327.96 628.56 
L 327.96 615.6 
L 201.6 615.6 
z
" clip-path="url(#p949c559431)" style="fill: #0000ff"/>
   </g>
   <g id="line2d_92">
    <path d="M 201.6 635.04 
L 201.6 609.12 
" clip-path="url(#padd0db5da1)" style="fill: none; stroke: #ff0000; stroke-linecap: square"/>
   </g>
   <g id="line2d_93">
    <defs>
     <path id="m7d12bb7c56" d="M 0 5 
C 1.326016 5 2.597899 4.473168 3.535534 3.535534 
C 4.473168 2.597899 5 1.326016 5 0 
C 5 -1.326016 4.473168 -2.597899 3.535534 -3.535534 
C 2.597899 -4.473168 1.326016 -5 0 -5 
C -1.326016 -5 -2.597899 -4.473168 -3.535534 -3.535534 
C -4.473168 -2.597899 -5 -1.326016 -5 0 
C -5 1.326016 -4.473168 2.597899 -3.535534 3.535534 
C -2.597899 4.473168 -1.326016 5 0 5 
z
" style="stroke: #bfbfbf"/>
    </defs>
    <g>
     <use xlink:href="#m7d12bb7c56" x="327.96" y="622.08" style="fill: #ffffff; stroke: #bfbfbf"/>
    </g>
   </g>
   <g id="text_26">
    <!-- #Sweep -->
    <g transform="translate(138.622875 625.39125) scale(0.12 -0.12)">
     <defs>
      <path id="DejaVuSans-23" d="M 3272 2816 
L 2363 2816 
L 2100 1772 
L 3016 1772 
L 3272 2816 
z
M 2803 4594 
L 2478 3297 
L 3391 3297 
L 3719 4594 
L 4219 4594 
L 3897 3297 
L 4872 3297 
L 4872 2816 
L 3775 2816 
L 3519 1772 
L 4513 1772 
L 4513 1294 
L 3397 1294 
L 3072 0 
L 2572 0 
L 2894 1294 
L 1978 1294 
L 1656 0 
L 1153 0 
L 1478 1294 
L 494 1294 
L 494 1772 
L 1594 1772 
L 1856 2816 
L 850 2816 
L 850 3297 
L 1978 3297 
L 2297 4594 
L 2803 4594 
z
" transform="scale(0.015625)"/>
      <path id="DejaVuSans-77" d="M 269 3500 
L 844 3500 
L 1563 769 
L 2278 3500 
L 2956 3500 
L 3675 769 
L 4391 3500 
L 4966 3500 
L 4050 0 
L 3372 0 
L 2619 2869 
L 1863 0 
L 1184 0 
L 269 3500 
z
" transform="scale(0.015625)"/>
      <path id="DejaVuSans-70" d="M 1159 525 
L 1159 -1331 
L 581 -1331 
L 581 3500 
L 1159 3500 
L 1159 2969 
Q 1341 3281 1617 3432 
Q 1894 3584 2278 3584 
Q 2916 3584 3314 3078 
Q 3713 2572 3713 1747 
Q 3713 922 3314 415 
Q 2916 -91 2278 -91 
Q 1894 -91 1617 61 
Q 1341 213 1159 525 
z
M 3116 1747 
Q 3116 2381 2855 2742 
Q 2594 3103 2138 3103 
Q 1681 3103 1420 2742 
Q 1159 2381 1159 1747 
Q 1159 1113 1420 752 
Q 1681 391 2138 391 
Q 2594 391 2855 752 
Q 3116 1113 3116 1747 
z
" transform="scale(0.015625)"/>
     </defs>
     <use xlink:href="#DejaVuSans-23"/>
     <use xlink:href="#DejaVuSans-53" x="83.789062"/>
     <use xlink:href="#DejaVuSans-77" x="147.265625"/>
     <use xlink:href="#DejaVuSans-65" x="229.052734"/>
     <use xlink:href="#DejaVuSans-65" x="290.576172"/>
     <use xlink:href="#DejaVuSans-70" x="352.099609"/>
    </g>
   </g>
   <g id="text_27">
    <!-- $\mathdefault{27}$ -->
    <g transform="translate(869.904 625.39125) scale(0.12 -0.12)">
     <defs>
      <path id="DejaVuSans-37" d="M 525 4666 
L 3525 4666 
L 3525 4397 
L 1831 0 
L 1172 0 
L 2766 4134 
L 525 4134 
L 525 4666 
z
" transform="scale(0.015625)"/>
     </defs>
     <use xlink:href="#DejaVuSans-32" transform="translate(0 0.78125)"/>
     <use xlink:href="#DejaVuSans-37" transform="translate(63.623047 0.78125)"/>
    </g>
   </g>
  </g>
  <g id="text_28">
   <!-- DFF under BBI sweep analysis (Sweep = 37E-9) -->
   <g transform="translate(313.34625 25.1175) scale(0.16 -0.16)">
    <defs>
     <path id="DejaVuSans-75" d="M 544 1381 
L 544 3500 
L 1119 3500 
L 1119 1403 
Q 1119 906 1312 657 
Q 1506 409 1894 409 
Q 2359 409 2629 706 
Q 2900 1003 2900 1516 
L 2900 3500 
L 3475 3500 
L 3475 0 
L 2900 0 
L 2900 538 
Q 2691 219 2414 64 
Q 2138 -91 1772 -91 
Q 1169 -91 856 284 
Q 544 659 544 1381 
z
M 1991 3584 
L 1991 3584 
z
" transform="scale(0.015625)"/>
     <path id="DejaVuSans-64" d="M 2906 2969 
L 2906 4863 
L 3481 4863 
L 3481 0 
L 2906 0 
L 2906 525 
Q 2725 213 2448 61 
Q 2172 -91 1784 -91 
Q 1150 -91 751 415 
Q 353 922 353 1747 
Q 353 2572 751 3078 
Q 1150 3584 1784 3584 
Q 2172 3584 2448 3432 
Q 2725 3281 2906 2969 
z
M 947 1747 
Q 947 1113 1208 752 
Q 1469 391 1925 391 
Q 2381 391 2643 752 
Q 2906 1113 2906 1747 
Q 2906 2381 2643 2742 
Q 2381 3103 1925 3103 
Q 1469 3103 1208 2742 
Q 947 2381 947 1747 
z
" transform="scale(0.015625)"/>
     <path id="DejaVuSans-72" d="M 2631 2963 
Q 2534 3019 2420 3045 
Q 2306 3072 2169 3072 
Q 1681 3072 1420 2755 
Q 1159 2438 1159 1844 
L 1159 0 
L 581 0 
L 581 3500 
L 1159 3500 
L 1159 2956 
Q 1341 3275 1631 3429 
Q 1922 3584 2338 3584 
Q 2397 3584 2469 3576 
Q 2541 3569 2628 3553 
L 2631 2963 
z
" transform="scale(0.015625)"/>
     <path id="DejaVuSans-61" d="M 2194 1759 
Q 1497 1759 1228 1600 
Q 959 1441 959 1056 
Q 959 750 1161 570 
Q 1363 391 1709 391 
Q 2188 391 2477 730 
Q 2766 1069 2766 1631 
L 2766 1759 
L 2194 1759 
z
M 3341 1997 
L 3341 0 
L 2766 0 
L 2766 531 
Q 2569 213 2275 61 
Q 1981 -91 1556 -91 
Q 1019 -91 701 211 
Q 384 513 384 1019 
Q 384 1609 779 1909 
Q 1175 2209 1959 2209 
L 2766 2209 
L 2766 2266 
Q 2766 2663 2505 2880 
Q 2244 3097 1772 3097 
Q 1472 3097 1187 3025 
Q 903 2953 641 2809 
L 641 3341 
Q 956 3463 1253 3523 
Q 1550 3584 1831 3584 
Q 2591 3584 2966 3190 
Q 3341 2797 3341 1997 
z
" transform="scale(0.015625)"/>
     <path id="DejaVuSans-6c" d="M 603 4863 
L 1178 4863 
L 1178 0 
L 603 0 
L 603 4863 
z
" transform="scale(0.015625)"/>
     <path id="DejaVuSans-79" d="M 2059 -325 
Q 1816 -950 1584 -1140 
Q 1353 -1331 966 -1331 
L 506 -1331 
L 506 -850 
L 844 -850 
Q 1081 -850 1212 -737 
Q 1344 -625 1503 -206 
L 1606 56 
L 191 3500 
L 800 3500 
L 1894 763 
L 2988 3500 
L 3597 3500 
L 2059 -325 
z
" transform="scale(0.015625)"/>
     <path id="DejaVuSans-28" d="M 1984 4856 
Q 1566 4138 1362 3434 
Q 1159 2731 1159 2009 
Q 1159 1288 1364 580 
Q 1569 -128 1984 -844 
L 1484 -844 
Q 1016 -109 783 600 
Q 550 1309 550 2009 
Q 550 2706 781 3412 
Q 1013 4119 1484 4856 
L 1984 4856 
z
" transform="scale(0.015625)"/>
     <path id="DejaVuSans-3d" d="M 678 2906 
L 4684 2906 
L 4684 2381 
L 678 2381 
L 678 2906 
z
M 678 1631 
L 4684 1631 
L 4684 1100 
L 678 1100 
L 678 1631 
z
" transform="scale(0.015625)"/>
     <path id="DejaVuSans-33" d="M 2597 2516 
Q 3050 2419 3304 2112 
Q 3559 1806 3559 1356 
Q 3559 666 3084 287 
Q 2609 -91 1734 -91 
Q 1441 -91 1130 -33 
Q 819 25 488 141 
L 488 750 
Q 750 597 1062 519 
Q 1375 441 1716 441 
Q 2309 441 2620 675 
Q 2931 909 2931 1356 
Q 2931 1769 2642 2001 
Q 2353 2234 1838 2234 
L 1294 2234 
L 1294 2753 
L 1863 2753 
Q 2328 2753 2575 2939 
Q 2822 3125 2822 3475 
Q 2822 3834 2567 4026 
Q 2313 4219 1838 4219 
Q 1578 4219 1281 4162 
Q 984 4106 628 3988 
L 628 4550 
Q 988 4650 1302 4700 
Q 1616 4750 1894 4750 
Q 2613 4750 3031 4423 
Q 3450 4097 3450 3541 
Q 3450 3153 3228 2886 
Q 3006 2619 2597 2516 
z
" transform="scale(0.015625)"/>
     <path id="DejaVuSans-2d" d="M 313 2009 
L 1997 2009 
L 1997 1497 
L 313 1497 
L 313 2009 
z
" transform="scale(0.015625)"/>
     <path id="DejaVuSans-39" d="M 703 97 
L 703 672 
Q 941 559 1184 500 
Q 1428 441 1663 441 
Q 2288 441 2617 861 
Q 2947 1281 2994 2138 
Q 2813 1869 2534 1725 
Q 2256 1581 1919 1581 
Q 1219 1581 811 2004 
Q 403 2428 403 3163 
Q 403 3881 828 4315 
Q 1253 4750 1959 4750 
Q 2769 4750 3195 4129 
Q 3622 3509 3622 2328 
Q 3622 1225 3098 567 
Q 2575 -91 1691 -91 
Q 1453 -91 1209 -44 
Q 966 3 703 97 
z
M 1959 2075 
Q 2384 2075 2632 2365 
Q 2881 2656 2881 3163 
Q 2881 3666 2632 3958 
Q 2384 4250 1959 4250 
Q 1534 4250 1286 3958 
Q 1038 3666 1038 3163 
Q 1038 2656 1286 2365 
Q 1534 2075 1959 2075 
z
" transform="scale(0.015625)"/>
     <path id="DejaVuSans-29" d="M 513 4856 
L 1013 4856 
Q 1481 4119 1714 3412 
Q 1947 2706 1947 2009 
Q 1947 1309 1714 600 
Q 1481 -109 1013 -844 
L 513 -844 
Q 928 -128 1133 580 
Q 1338 1288 1338 2009 
Q 1338 2731 1133 3434 
Q 928 4138 513 4856 
z
" transform="scale(0.015625)"/>
    </defs>
    <use xlink:href="#DejaVuSans-44"/>
    <use xlink:href="#DejaVuSans-46" x="77.001953"/>
    <use xlink:href="#DejaVuSans-46" x="134.521484"/>
    <use xlink:href="#DejaVuSans-20" x="192.041016"/>
    <use xlink:href="#DejaVuSans-75" x="223.828125"/>
    <use xlink:href="#DejaVuSans-6e" x="287.207031"/>
    <use xlink:href="#DejaVuSans-64" x="350.585938"/>
    <use xlink:href="#DejaVuSans-65" x="414.0625"/>
    <use xlink:href="#DejaVuSans-72" x="475.585938"/>
    <use xlink:href="#DejaVuSans-20" x="516.699219"/>
    <use xlink:href="#DejaVuSans-42" x="548.486328"/>
    <use xlink:href="#DejaVuSans-42" x="617.089844"/>
    <use xlink:href="#DejaVuSans-49" x="685.693359"/>
    <use xlink:href="#DejaVuSans-20" x="715.185547"/>
    <use xlink:href="#DejaVuSans-73" x="746.972656"/>
    <use xlink:href="#DejaVuSans-77" x="799.072266"/>
    <use xlink:href="#DejaVuSans-65" x="880.859375"/>
    <use xlink:href="#DejaVuSans-65" x="942.382812"/>
    <use xlink:href="#DejaVuSans-70" x="1003.90625"/>
    <use xlink:href="#DejaVuSans-20" x="1067.382812"/>
    <use xlink:href="#DejaVuSans-61" x="1099.169922"/>
    <use xlink:href="#DejaVuSans-6e" x="1160.449219"/>
    <use xlink:href="#DejaVuSans-61" x="1223.828125"/>
    <use xlink:href="#DejaVuSans-6c" x="1285.107422"/>
    <use xlink:href="#DejaVuSans-79" x="1312.890625"/>
    <use xlink:href="#DejaVuSans-73" x="1372.070312"/>
    <use xlink:href="#DejaVuSans-69" x="1424.169922"/>
    <use xlink:href="#DejaVuSans-73" x="1451.953125"/>
    <use xlink:href="#DejaVuSans-20" x="1504.052734"/>
    <use xlink:href="#DejaVuSans-28" x="1535.839844"/>
    <use xlink:href="#DejaVuSans-53" x="1574.853516"/>
    <use xlink:href="#DejaVuSans-77" x="1638.330078"/>
    <use xlink:href="#DejaVuSans-65" x="1720.117188"/>
    <use xlink:href="#DejaVuSans-65" x="1781.640625"/>
    <use xlink:href="#DejaVuSans-70" x="1843.164062"/>
    <use xlink:href="#DejaVuSans-20" x="1906.640625"/>
    <use xlink:href="#DejaVuSans-3d" x="1938.427734"/>
    <use xlink:href="#DejaVuSans-20" x="2022.216797"/>
    <use xlink:href="#DejaVuSans-33" x="2054.003906"/>
    <use xlink:href="#DejaVuSans-37" x="2117.626953"/>
    <use xlink:href="#DejaVuSans-45" x="2181.25"/>
    <use xlink:href="#DejaVuSans-2d" x="2244.433594"/>
    <use xlink:href="#DejaVuSans-39" x="2280.517578"/>
    <use xlink:href="#DejaVuSans-29" x="2344.140625"/>
   </g>
  </g>
 </g>
 <defs>
  <clipPath id="p04eb0dad33">
   <rect x="100.8" y="38.88" width="887.04" height="92.731034"/>
  </clipPath>
  <clipPath id="p7e9bfa8ab9">
   <rect x="100.8" y="150.157241" width="887.04" height="92.731034"/>
  </clipPath>
  <clipPath id="pc75299428a">
   <rect x="100.8" y="261.434483" width="887.04" height="92.731034"/>
  </clipPath>
  <clipPath id="pabf00285eb">
   <rect x="100.8" y="372.711724" width="887.04" height="92.731034"/>
  </clipPath>
  <clipPath id="p2fee372b1f">
   <rect x="100.8" y="483.988966" width="887.04" height="92.731034"/>
  </clipPath>
  <clipPath id="p949c559431">
   <rect x="201.6" y="609.12" width="655.2" height="25.92"/>
  </clipPath>
  <clipPath id="padd0db5da1">
   <path d="M 201.6 628.56 
L 856.8 628.56 
L 856.8 615.6 
L 201.6 615.6 
z
"/>
  </clipPath>
 </defs>
</svg>
