<?xml version="1.0" encoding="utf-8" standalone="no"?>
<!DOCTYPE svg PUBLIC "-//W3C//DTD SVG 1.1//EN"
  "http://www.w3.org/Graphics/SVG/1.1/DTD/svg11.dtd">
<svg xmlns:xlink="http://www.w3.org/1999/xlink" width="1008pt" height="648pt" viewBox="0 0 1008 648" xmlns="http://www.w3.org/2000/svg" version="1.1">
 <metadata>
  <rdf:RDF xmlns:dc="http://purl.org/dc/elements/1.1/" xmlns:cc="http://creativecommons.org/ns#" xmlns:rdf="http://www.w3.org/1999/02/22-rdf-syntax-ns#">
   <cc:Work>
    <dc:type rdf:resource="http://purl.org/dc/dcmitype/StillImage"/>
    <dc:date>2024-06-03T10:45:53.907543</dc:date>
    <dc:format>image/svg+xml</dc:format>
    <dc:creator>
     <cc:Agent>
      <dc:title>Matplotlib v3.9.0, https://matplotlib.org/</dc:title>
     </cc:Agent>
    </dc:creator>
   </cc:Work>
  </rdf:RDF>
 </metadata>
 <defs>
  <style type="text/css">*{stroke-linejoin: round; stroke-linecap: butt}</style>
 </defs>
 <g id="figure_1">
  <g id="patch_1">
   <path d="M 0 648 
L 1008 648 
L 1008 0 
L 0 0 
z
" style="fill: #ffffff"/>
  </g>
  <g id="axes_1">
   <g id="patch_2">
    <path d="M 100.8 131.611034 
L 987.84 131.611034 
L 987.84 38.88 
L 100.8 38.88 
z
" style="fill: #eeeeee"/>
   </g>
   <g id="matplotlib.axis_1">
    <g id="xtick_1">
     <g id="line2d_1">
      <path d="M 141.12 131.611034 
L 141.12 38.88 
" clip-path="url(#pec28992e91)" style="fill: none; stroke-dasharray: 1.85,0.8; stroke-dashoffset: 0; stroke: #b2b2b2; stroke-width: 0.5"/>
     </g>
     <g id="line2d_2">
      <defs>
       <path id="m03f62f2839" d="M 0 0 
L 0 -3.5 
" style="stroke: #000000; stroke-width: 0.8"/>
      </defs>
      <g>
       <use xlink:href="#m03f62f2839" x="141.12" y="131.611034" style="stroke: #000000; stroke-width: 0.8"/>
      </g>
     </g>
    </g>
    <g id="xtick_2">
     <g id="line2d_3">
      <path d="M 302.4 131.611034 
L 302.4 38.88 
" clip-path="url(#pec28992e91)" style="fill: none; stroke-dasharray: 1.85,0.8; stroke-dashoffset: 0; stroke: #b2b2b2; stroke-width: 0.5"/>
     </g>
     <g id="line2d_4">
      <g>
       <use xlink:href="#m03f62f2839" x="302.4" y="131.611034" style="stroke: #000000; stroke-width: 0.8"/>
      </g>
     </g>
    </g>
    <g id="xtick_3">
     <g id="line2d_5">
      <path d="M 463.68 131.611034 
L 463.68 38.88 
" clip-path="url(#pec28992e91)" style="fill: none; stroke-dasharray: 1.85,0.8; stroke-dashoffset: 0; stroke: #b2b2b2; stroke-width: 0.5"/>
     </g>
     <g id="line2d_6">
      <g>
       <use xlink:href="#m03f62f2839" x="463.68" y="131.611034" style="stroke: #000000; stroke-width: 0.8"/>
      </g>
     </g>
    </g>
    <g id="xtick_4">
     <g id="line2d_7">
      <path d="M 624.96 131.611034 
L 624.96 38.88 
" clip-path="url(#pec28992e91)" style="fill: none; stroke-dasharray: 1.85,0.8; stroke-dashoffset: 0; stroke: #b2b2b2; stroke-width: 0.5"/>
     </g>
     <g id="line2d_8">
      <g>
       <use xlink:href="#m03f62f2839" x="624.96" y="131.611034" style="stroke: #000000; stroke-width: 0.8"/>
      </g>
     </g>
    </g>
    <g id="xtick_5">
     <g id="line2d_9">
      <path d="M 786.24 131.611034 
L 786.24 38.88 
" clip-path="url(#pec28992e91)" style="fill: none; stroke-dasharray: 1.85,0.8; stroke-dashoffset: 0; stroke: #b2b2b2; stroke-width: 0.5"/>
     </g>
     <g id="line2d_10">
      <g>
       <use xlink:href="#m03f62f2839" x="786.24" y="131.611034" style="stroke: #000000; stroke-width: 0.8"/>
      </g>
     </g>
    </g>
    <g id="xtick_6">
     <g id="line2d_11">
      <path d="M 947.52 131.611034 
L 947.52 38.88 
" clip-path="url(#pec28992e91)" style="fill: none; stroke-dasharray: 1.85,0.8; stroke-dashoffset: 0; stroke: #b2b2b2; stroke-width: 0.5"/>
     </g>
     <g id="line2d_12">
      <g>
       <use xlink:href="#m03f62f2839" x="947.52" y="131.611034" style="stroke: #000000; stroke-width: 0.8"/>
      </g>
     </g>
    </g>
   </g>
   <g id="matplotlib.axis_2">
    <g id="ytick_1">
     <g id="line2d_13">
      <path d="M 100.8 98.340394 
L 987.84 98.340394 
" clip-path="url(#pec28992e91)" style="fill: none; stroke-dasharray: 1.85,0.8; stroke-dashoffset: 0; stroke: #b2b2b2; stroke-width: 0.5"/>
     </g>
     <g id="line2d_14">
      <defs>
       <path id="m07e0b2baa5" d="M 0 0 
L 3.5 0 
" style="stroke: #000000; stroke-width: 0.8"/>
      </defs>
      <g>
       <use xlink:href="#m07e0b2baa5" x="100.8" y="98.340394" style="stroke: #000000; stroke-width: 0.8"/>
      </g>
     </g>
     <g id="text_1">
      <!-- −200 V -->
      <g transform="translate(44.819688 103.6593) scale(0.14 -0.14)">
       <defs>
        <path id="DejaVuSans-2212" d="M 678 2272 
L 4684 2272 
L 4684 1741 
L 678 1741 
L 678 2272 
z
" transform="scale(0.015625)"/>
        <path id="DejaVuSans-32" d="M 1228 531 
L 3431 531 
L 3431 0 
L 469 0 
L 469 531 
Q 828 903 1448 1529 
Q 2069 2156 2228 2338 
Q 2531 2678 2651 2914 
Q 2772 3150 2772 3378 
Q 2772 3750 2511 3984 
Q 2250 4219 1831 4219 
Q 1534 4219 1204 4116 
Q 875 4013 500 3803 
L 500 4441 
Q 881 4594 1212 4672 
Q 1544 4750 1819 4750 
Q 2544 4750 2975 4387 
Q 3406 4025 3406 3419 
Q 3406 3131 3298 2873 
Q 3191 2616 2906 2266 
Q 2828 2175 2409 1742 
Q 1991 1309 1228 531 
z
" transform="scale(0.015625)"/>
        <path id="DejaVuSans-30" d="M 2034 4250 
Q 1547 4250 1301 3770 
Q 1056 3291 1056 2328 
Q 1056 1369 1301 889 
Q 1547 409 2034 409 
Q 2525 409 2770 889 
Q 3016 1369 3016 2328 
Q 3016 3291 2770 3770 
Q 2525 4250 2034 4250 
z
M 2034 4750 
Q 2819 4750 3233 4129 
Q 3647 3509 3647 2328 
Q 3647 1150 3233 529 
Q 2819 -91 2034 -91 
Q 1250 -91 836 529 
Q 422 1150 422 2328 
Q 422 3509 836 4129 
Q 1250 4750 2034 4750 
z
" transform="scale(0.015625)"/>
        <path id="DejaVuSans-20" transform="scale(0.015625)"/>
        <path id="DejaVuSans-56" d="M 1831 0 
L 50 4666 
L 709 4666 
L 2188 738 
L 3669 4666 
L 4325 4666 
L 2547 0 
L 1831 0 
z
" transform="scale(0.015625)"/>
       </defs>
       <use xlink:href="#DejaVuSans-2212"/>
       <use xlink:href="#DejaVuSans-32" x="83.789062"/>
       <use xlink:href="#DejaVuSans-30" x="147.412109"/>
       <use xlink:href="#DejaVuSans-30" x="211.035156"/>
       <use xlink:href="#DejaVuSans-20" x="274.658203"/>
       <use xlink:href="#DejaVuSans-56" x="306.445312"/>
      </g>
     </g>
    </g>
    <g id="ytick_2">
     <g id="line2d_15">
      <path d="M 100.8 45.027377 
L 987.84 45.027377 
" clip-path="url(#pec28992e91)" style="fill: none; stroke-dasharray: 1.85,0.8; stroke-dashoffset: 0; stroke: #b2b2b2; stroke-width: 0.5"/>
     </g>
     <g id="line2d_16">
      <g>
       <use xlink:href="#m07e0b2baa5" x="100.8" y="45.027377" style="stroke: #000000; stroke-width: 0.8"/>
      </g>
     </g>
     <g id="text_2">
      <!-- 0 V -->
      <g transform="translate(74.36625 50.346284) scale(0.14 -0.14)">
       <use xlink:href="#DejaVuSans-30"/>
       <use xlink:href="#DejaVuSans-20" x="63.623047"/>
       <use xlink:href="#DejaVuSans-56" x="95.410156"/>
      </g>
     </g>
    </g>
    <g id="text_3">
     <g id="patch_3">
      <path d="M 34.8768 131.080205 
L 34.8768 39.41083 
L 11.247425 39.41083 
L 11.247425 131.080205 
z
" style="fill: #ffff00; opacity: 0.2; stroke: #eeeeee; stroke-width: 0.5; stroke-linejoin: miter"/>
     </g>
     <!-- VPULSE BBI -->
     <g transform="translate(26.925238 126.040205) rotate(-90) scale(0.14 -0.14)">
      <defs>
       <path id="DejaVuSans-50" d="M 1259 4147 
L 1259 2394 
L 2053 2394 
Q 2494 2394 2734 2622 
Q 2975 2850 2975 3272 
Q 2975 3691 2734 3919 
Q 2494 4147 2053 4147 
L 1259 4147 
z
M 628 4666 
L 2053 4666 
Q 2838 4666 3239 4311 
Q 3641 3956 3641 3272 
Q 3641 2581 3239 2228 
Q 2838 1875 2053 1875 
L 1259 1875 
L 1259 0 
L 628 0 
L 628 4666 
z
" transform="scale(0.015625)"/>
       <path id="DejaVuSans-55" d="M 556 4666 
L 1191 4666 
L 1191 1831 
Q 1191 1081 1462 751 
Q 1734 422 2344 422 
Q 2950 422 3222 751 
Q 3494 1081 3494 1831 
L 3494 4666 
L 4128 4666 
L 4128 1753 
Q 4128 841 3676 375 
Q 3225 -91 2344 -91 
Q 1459 -91 1007 375 
Q 556 841 556 1753 
L 556 4666 
z
" transform="scale(0.015625)"/>
       <path id="DejaVuSans-4c" d="M 628 4666 
L 1259 4666 
L 1259 531 
L 3531 531 
L 3531 0 
L 628 0 
L 628 4666 
z
" transform="scale(0.015625)"/>
       <path id="DejaVuSans-53" d="M 3425 4513 
L 3425 3897 
Q 3066 4069 2747 4153 
Q 2428 4238 2131 4238 
Q 1616 4238 1336 4038 
Q 1056 3838 1056 3469 
Q 1056 3159 1242 3001 
Q 1428 2844 1947 2747 
L 2328 2669 
Q 3034 2534 3370 2195 
Q 3706 1856 3706 1288 
Q 3706 609 3251 259 
Q 2797 -91 1919 -91 
Q 1588 -91 1214 -16 
Q 841 59 441 206 
L 441 856 
Q 825 641 1194 531 
Q 1563 422 1919 422 
Q 2459 422 2753 634 
Q 3047 847 3047 1241 
Q 3047 1584 2836 1778 
Q 2625 1972 2144 2069 
L 1759 2144 
Q 1053 2284 737 2584 
Q 422 2884 422 3419 
Q 422 4038 858 4394 
Q 1294 4750 2059 4750 
Q 2388 4750 2728 4690 
Q 3069 4631 3425 4513 
z
" transform="scale(0.015625)"/>
       <path id="DejaVuSans-45" d="M 628 4666 
L 3578 4666 
L 3578 4134 
L 1259 4134 
L 1259 2753 
L 3481 2753 
L 3481 2222 
L 1259 2222 
L 1259 531 
L 3634 531 
L 3634 0 
L 628 0 
L 628 4666 
z
" transform="scale(0.015625)"/>
       <path id="DejaVuSans-42" d="M 1259 2228 
L 1259 519 
L 2272 519 
Q 2781 519 3026 730 
Q 3272 941 3272 1375 
Q 3272 1813 3026 2020 
Q 2781 2228 2272 2228 
L 1259 2228 
z
M 1259 4147 
L 1259 2741 
L 2194 2741 
Q 2656 2741 2882 2914 
Q 3109 3088 3109 3444 
Q 3109 3797 2882 3972 
Q 2656 4147 2194 4147 
L 1259 4147 
z
M 628 4666 
L 2241 4666 
Q 2963 4666 3353 4366 
Q 3744 4066 3744 3513 
Q 3744 3084 3544 2831 
Q 3344 2578 2956 2516 
Q 3422 2416 3680 2098 
Q 3938 1781 3938 1306 
Q 3938 681 3513 340 
Q 3088 0 2303 0 
L 628 0 
L 628 4666 
z
" transform="scale(0.015625)"/>
       <path id="DejaVuSans-49" d="M 628 4666 
L 1259 4666 
L 1259 0 
L 628 0 
L 628 4666 
z
" transform="scale(0.015625)"/>
      </defs>
      <use xlink:href="#DejaVuSans-56"/>
      <use xlink:href="#DejaVuSans-50" x="68.408203"/>
      <use xlink:href="#DejaVuSans-55" x="128.710938"/>
      <use xlink:href="#DejaVuSans-4c" x="201.904297"/>
      <use xlink:href="#DejaVuSans-53" x="257.617188"/>
      <use xlink:href="#DejaVuSans-45" x="321.09375"/>
      <use xlink:href="#DejaVuSans-20" x="384.277344"/>
      <use xlink:href="#DejaVuSans-42" x="416.064453"/>
      <use xlink:href="#DejaVuSans-42" x="484.667969"/>
      <use xlink:href="#DejaVuSans-49" x="553.271484"/>
     </g>
    </g>
   </g>
   <g id="line2d_17">
    <path d="M 141.12 45.027377 
L 554.029056 45.136282 
L 554.512896 46.425538 
L 562.738176 69.006772 
L 570.157056 89.863624 
L 571.769856 94.440546 
L 573.576192 99.673219 
L 577.05984 110.807642 
L 578.640384 115.853719 
L 579.866112 119.550977 
L 583.769088 121.36362 
L 584.349696 121.619522 
L 585.220608 122.003376 
L 585.865728 122.269941 
L 587.446272 122.936354 
L 588.091392 123.202919 
L 589.188096 123.629423 
L 589.929984 123.922644 
L 591.026688 124.349149 
L 591.929856 124.677024 
L 592.607232 124.943589 
L 593.413632 125.25547 
L 594.768384 125.804594 
L 597.413376 126.790885 
L 598.02624 127.022796 
L 599.9616 127.395987 
L 618.444288 127.289361 
L 618.67008 126.801547 
L 636.959232 75.087922 
L 640.700928 63.292417 
L 644.410368 51.617666 
L 649.022976 49.3412 
L 654.377472 46.984578 
L 663.086592 43.484472 
L 663.957504 43.268927 
L 678.246912 43.108189 
L 685.052928 43.184799 
L 700.406784 43.746186 
L 728.1792 44.46146 
L 753.82272 44.774399 
L 789.433344 44.945888 
L 837.462528 44.953885 
L 947.52 44.953885 
L 947.52 44.953885 
" clip-path="url(#pec28992e91)" style="fill: none; stroke: #ff0000; stroke-width: 2; stroke-linecap: square"/>
   </g>
   <g id="patch_4">
    <path d="M 100.8 131.611034 
L 100.8 38.88 
" style="fill: none; stroke: #bcbcbc; stroke-width: 0.8; stroke-linejoin: miter; stroke-linecap: square"/>
   </g>
   <g id="patch_5">
    <path d="M 987.84 131.611034 
L 987.84 38.88 
" style="fill: none; stroke: #bcbcbc; stroke-width: 0.8; stroke-linejoin: miter; stroke-linecap: square"/>
   </g>
   <g id="patch_6">
    <path d="M 100.8 131.611034 
L 987.84 131.611034 
" style="fill: none; stroke: #bcbcbc; stroke-width: 0.8; stroke-linejoin: miter; stroke-linecap: square"/>
   </g>
   <g id="patch_7">
    <path d="M 100.8 38.88 
L 987.84 38.88 
" style="fill: none; stroke: #bcbcbc; stroke-width: 0.8; stroke-linejoin: miter; stroke-linecap: square"/>
   </g>
  </g>
  <g id="axes_2">
   <g id="patch_8">
    <path d="M 100.8 242.888276 
L 987.84 242.888276 
L 987.84 150.157241 
L 100.8 150.157241 
z
" style="fill: #eeeeee"/>
   </g>
   <g id="matplotlib.axis_3">
    <g id="xtick_7">
     <g id="line2d_18">
      <path d="M 141.12 242.888276 
L 141.12 150.157241 
" clip-path="url(#pa3fad46044)" style="fill: none; stroke-dasharray: 1.85,0.8; stroke-dashoffset: 0; stroke: #b2b2b2; stroke-width: 0.5"/>
     </g>
     <g id="line2d_19">
      <g>
       <use xlink:href="#m03f62f2839" x="141.12" y="242.888276" style="stroke: #000000; stroke-width: 0.8"/>
      </g>
     </g>
    </g>
    <g id="xtick_8">
     <g id="line2d_20">
      <path d="M 302.4 242.888276 
L 302.4 150.157241 
" clip-path="url(#pa3fad46044)" style="fill: none; stroke-dasharray: 1.85,0.8; stroke-dashoffset: 0; stroke: #b2b2b2; stroke-width: 0.5"/>
     </g>
     <g id="line2d_21">
      <g>
       <use xlink:href="#m03f62f2839" x="302.4" y="242.888276" style="stroke: #000000; stroke-width: 0.8"/>
      </g>
     </g>
    </g>
    <g id="xtick_9">
     <g id="line2d_22">
      <path d="M 463.68 242.888276 
L 463.68 150.157241 
" clip-path="url(#pa3fad46044)" style="fill: none; stroke-dasharray: 1.85,0.8; stroke-dashoffset: 0; stroke: #b2b2b2; stroke-width: 0.5"/>
     </g>
     <g id="line2d_23">
      <g>
       <use xlink:href="#m03f62f2839" x="463.68" y="242.888276" style="stroke: #000000; stroke-width: 0.8"/>
      </g>
     </g>
    </g>
    <g id="xtick_10">
     <g id="line2d_24">
      <path d="M 624.96 242.888276 
L 624.96 150.157241 
" clip-path="url(#pa3fad46044)" style="fill: none; stroke-dasharray: 1.85,0.8; stroke-dashoffset: 0; stroke: #b2b2b2; stroke-width: 0.5"/>
     </g>
     <g id="line2d_25">
      <g>
       <use xlink:href="#m03f62f2839" x="624.96" y="242.888276" style="stroke: #000000; stroke-width: 0.8"/>
      </g>
     </g>
    </g>
    <g id="xtick_11">
     <g id="line2d_26">
      <path d="M 786.24 242.888276 
L 786.24 150.157241 
" clip-path="url(#pa3fad46044)" style="fill: none; stroke-dasharray: 1.85,0.8; stroke-dashoffset: 0; stroke: #b2b2b2; stroke-width: 0.5"/>
     </g>
     <g id="line2d_27">
      <g>
       <use xlink:href="#m03f62f2839" x="786.24" y="242.888276" style="stroke: #000000; stroke-width: 0.8"/>
      </g>
     </g>
    </g>
    <g id="xtick_12">
     <g id="line2d_28">
      <path d="M 947.52 242.888276 
L 947.52 150.157241 
" clip-path="url(#pa3fad46044)" style="fill: none; stroke-dasharray: 1.85,0.8; stroke-dashoffset: 0; stroke: #b2b2b2; stroke-width: 0.5"/>
     </g>
     <g id="line2d_29">
      <g>
       <use xlink:href="#m03f62f2839" x="947.52" y="242.888276" style="stroke: #000000; stroke-width: 0.8"/>
      </g>
     </g>
    </g>
   </g>
   <g id="matplotlib.axis_4">
    <g id="ytick_3">
     <g id="line2d_30">
      <path d="M 100.8 219.175489 
L 987.84 219.175489 
" clip-path="url(#pa3fad46044)" style="fill: none; stroke-dasharray: 1.85,0.8; stroke-dashoffset: 0; stroke: #b2b2b2; stroke-width: 0.5"/>
     </g>
     <g id="line2d_31">
      <g>
       <use xlink:href="#m07e0b2baa5" x="100.8" y="219.175489" style="stroke: #000000; stroke-width: 0.8"/>
      </g>
     </g>
     <g id="text_4">
      <!-- 0 V -->
      <g transform="translate(74.36625 224.494396) scale(0.14 -0.14)">
       <use xlink:href="#DejaVuSans-30"/>
       <use xlink:href="#DejaVuSans-20" x="63.623047"/>
       <use xlink:href="#DejaVuSans-56" x="95.410156"/>
      </g>
     </g>
    </g>
    <g id="ytick_4">
     <g id="line2d_32">
      <path d="M 100.8 185.175909 
L 987.84 185.175909 
" clip-path="url(#pa3fad46044)" style="fill: none; stroke-dasharray: 1.85,0.8; stroke-dashoffset: 0; stroke: #b2b2b2; stroke-width: 0.5"/>
     </g>
     <g id="line2d_33">
      <g>
       <use xlink:href="#m07e0b2baa5" x="100.8" y="185.175909" style="stroke: #000000; stroke-width: 0.8"/>
      </g>
     </g>
     <g id="text_5">
      <!-- 1 V -->
      <g transform="translate(74.36625 190.494815) scale(0.14 -0.14)">
       <defs>
        <path id="DejaVuSans-31" d="M 794 531 
L 1825 531 
L 1825 4091 
L 703 3866 
L 703 4441 
L 1819 4666 
L 2450 4666 
L 2450 531 
L 3481 531 
L 3481 0 
L 794 0 
L 794 531 
z
" transform="scale(0.015625)"/>
       </defs>
       <use xlink:href="#DejaVuSans-31"/>
       <use xlink:href="#DejaVuSans-20" x="63.623047"/>
       <use xlink:href="#DejaVuSans-56" x="95.410156"/>
      </g>
     </g>
    </g>
    <g id="ytick_5">
     <g id="line2d_34">
      <path d="M 100.8 151.176328 
L 987.84 151.176328 
" clip-path="url(#pa3fad46044)" style="fill: none; stroke-dasharray: 1.85,0.8; stroke-dashoffset: 0; stroke: #b2b2b2; stroke-width: 0.5"/>
     </g>
     <g id="line2d_35">
      <g>
       <use xlink:href="#m07e0b2baa5" x="100.8" y="151.176328" style="stroke: #000000; stroke-width: 0.8"/>
      </g>
     </g>
     <g id="text_6">
      <!-- 2 V -->
      <g transform="translate(74.36625 156.495234) scale(0.14 -0.14)">
       <use xlink:href="#DejaVuSans-32"/>
       <use xlink:href="#DejaVuSans-20" x="63.623047"/>
       <use xlink:href="#DejaVuSans-56" x="95.410156"/>
      </g>
     </g>
    </g>
    <g id="text_7">
     <g id="patch_9">
      <path d="M 34.8768 224.531509 
L 34.8768 168.514009 
L 11.247425 168.514009 
L 11.247425 224.531509 
z
" style="fill: #ffff00; opacity: 0.2; stroke: #eeeeee; stroke-width: 0.5; stroke-linejoin: miter"/>
     </g>
     <!-- DFF IN -->
     <g transform="translate(26.925238 219.491509) rotate(-90) scale(0.14 -0.14)">
      <defs>
       <path id="DejaVuSans-44" d="M 1259 4147 
L 1259 519 
L 2022 519 
Q 2988 519 3436 956 
Q 3884 1394 3884 2338 
Q 3884 3275 3436 3711 
Q 2988 4147 2022 4147 
L 1259 4147 
z
M 628 4666 
L 1925 4666 
Q 3281 4666 3915 4102 
Q 4550 3538 4550 2338 
Q 4550 1131 3912 565 
Q 3275 0 1925 0 
L 628 0 
L 628 4666 
z
" transform="scale(0.015625)"/>
       <path id="DejaVuSans-46" d="M 628 4666 
L 3309 4666 
L 3309 4134 
L 1259 4134 
L 1259 2759 
L 3109 2759 
L 3109 2228 
L 1259 2228 
L 1259 0 
L 628 0 
L 628 4666 
z
" transform="scale(0.015625)"/>
       <path id="DejaVuSans-4e" d="M 628 4666 
L 1478 4666 
L 3547 763 
L 3547 4666 
L 4159 4666 
L 4159 0 
L 3309 0 
L 1241 3903 
L 1241 0 
L 628 0 
L 628 4666 
z
" transform="scale(0.015625)"/>
      </defs>
      <use xlink:href="#DejaVuSans-44"/>
      <use xlink:href="#DejaVuSans-46" x="77.001953"/>
      <use xlink:href="#DejaVuSans-46" x="134.521484"/>
      <use xlink:href="#DejaVuSans-20" x="192.041016"/>
      <use xlink:href="#DejaVuSans-49" x="223.828125"/>
      <use xlink:href="#DejaVuSans-4e" x="253.320312"/>
     </g>
    </g>
   </g>
   <g id="line2d_36">
    <path d="M 141.12 219.125836 
L 221.953536 219.079213 
L 224.437248 200.135044 
L 225.404928 194.372115 
L 228.243456 181.701151 
L 229.598208 180.429567 
L 231.178752 179.555778 
L 236.533248 179.100183 
L 243.5328 178.991385 
L 244.952064 178.950585 
L 248.145408 178.841787 
L 249.790464 178.777187 
L 251.887104 178.668389 
L 254.241792 178.321593 
L 254.757888 177.7844 
L 255.499776 177.444404 
L 256.338432 177.458004 
L 259.789824 178.073396 
L 262.467072 178.246794 
L 263.886336 178.294393 
L 264.144384 183.537129 
L 264.434688 187.104365 
L 265.176576 191.856486 
L 267.144192 209.202052 
L 268.402176 215.714672 
L 269.047296 216.9987 
L 270.46656 218.762598 
L 273.724416 219.177325 
L 282.530304 219.129879 
L 297.045504 219.119747 
L 305.851392 219.12502 
L 347.751936 219.080909 
L 350.235648 200.175164 
L 351.622656 191.53145 
L 352.654848 186.236355 
L 354.97728 179.236182 
L 358.493184 178.236594 
L 360.202752 178.307993 
L 363.009024 178.416792 
L 364.33152 178.447392 
L 375.169536 178.518791 
L 375.717888 179.511578 
L 376.169472 180.262969 
L 377.008128 181.170758 
L 377.524224 181.119759 
L 378.427392 180.827362 
L 380.427264 179.688376 
L 381.58848 179.314381 
L 387.168768 178.834987 
L 389.587968 178.726188 
L 391.684608 178.613989 
L 394.232832 178.505191 
L 395.61984 178.467791 
L 415.360512 178.382792 
L 416.489472 177.451204 
L 417.037824 177.386605 
L 417.908736 177.495403 
L 419.16672 177.7776 
L 420.908544 178.032597 
L 423.940608 178.243394 
L 455.712768 178.348793 
L 456.809472 179.239582 
L 457.261056 179.310981 
L 458.68032 179.35518 
L 462.680064 178.824787 
L 464.131584 178.630989 
L 467.486208 178.386192 
L 496.065024 178.304593 
L 496.58112 177.764 
L 497.258496 177.458004 
L 498.3552 177.444404 
L 502.06464 178.114196 
L 504.193536 178.229794 
L 536.320512 178.331793 
L 536.481792 178.508591 
L 536.965632 178.998185 
L 537.481728 179.249782 
L 537.901056 179.314381 
L 539.32032 179.35858 
L 544.15872 178.739788 
L 545.868288 178.491591 
L 547.771392 178.399792 
L 554.093568 178.508591 
L 554.577408 179.40618 
L 555.44832 180.912361 
L 557.480448 183.713927 
L 563.254272 191.811607 
L 563.83488 193.726463 
L 565.641216 200.630418 
L 569.511936 216.516518 
L 569.737728 217.346108 
L 570.737664 220.769628 
L 571.124736 221.953969 
L 571.511808 223.17316 
L 571.89888 223.765773 
L 572.06016 224.365525 
L 572.479488 225.428012 
L 572.963328 226.133163 
L 573.221376 226.38476 
L 573.414912 226.837295 
L 574.253568 228.789551 
L 574.350336 228.85823 
L 575.221248 230.812186 
L 575.995392 231.980751 
L 577.027584 233.946947 
L 577.156608 234.162844 
L 577.801728 235.510248 
L 578.1888 236.085861 
L 578.608128 236.884511 
L 579.737088 238.56205 
L 579.995136 238.667109 
L 580.12416 238.59639 
L 580.898304 237.584902 
L 581.25312 236.782512 
L 581.607936 236.259599 
L 581.73696 236.1423 
L 582.607872 235.210372 
L 583.34976 234.051666 
L 583.414272 234.106065 
L 583.736832 233.848008 
L 584.381952 233.356374 
L 585.317376 232.212629 
L 585.60768 231.821973 
L 585.897984 231.684955 
L 586.09152 231.600976 
L 586.478592 231.28852 
L 586.833408 231.093022 
L 587.930112 229.851698 
L 588.091392 229.716719 
L 588.284928 229.609621 
L 588.639744 229.337624 
L 588.865536 229.114587 
L 589.31712 228.904469 
L 590.220288 228.172798 
L 590.962176 227.376528 
L 591.155712 227.149411 
L 591.73632 226.728836 
L 592.510464 226.259302 
L 594.413568 224.538583 
L 594.703872 224.334926 
L 595.252224 224.117668 
L 596.348928 223.305078 
L 599.026176 221.163683 
L 599.832576 220.350175 
L 600.800256 218.985636 
L 601.5744 217.955856 
L 603.1872 215.674212 
L 606.187008 211.84416 
L 608.444928 209.120113 
L 609.251328 206.654464 
L 610.251264 203.808019 
L 611.380224 201.234251 
L 613.122048 198.649262 
L 613.6704 198.02605 
L 614.218752 197.18252 
L 614.96064 196.260452 
L 615.734784 195.416242 
L 616.702464 194.172198 
L 618.476544 192.580337 
L 618.734592 191.951685 
L 620.702208 186.106477 
L 621.605376 184.22052 
L 622.637568 182.59194 
L 624.734208 179.902574 
L 625.411584 179.117183 
L 634.572288 166.751536 
L 634.733568 166.513539 
L 636.185088 164.711561 
L 644.442624 154.402888 
L 645.861888 154.739484 
L 647.023104 154.753084 
L 647.506944 154.807483 
L 652.893696 156.055268 
L 657.312768 157.391451 
L 657.69984 156.456463 
L 658.054656 156.102867 
L 658.34496 156.062068 
L 658.732032 156.204866 
L 659.344896 156.718259 
L 660.796416 157.949044 
L 662.635008 158.989431 
L 663.6672 159.431426 
L 665.634816 160.546612 
L 668.086272 161.716198 
L 668.860416 162.076593 
L 670.1184 162.617187 
L 675.795456 164.891759 
L 678.82752 165.966145 
L 680.343552 166.486339 
L 689.568768 169.287904 
L 691.471872 169.801298 
L 692.181504 169.984896 
L 696.24576 170.950484 
L 696.89088 171.103482 
L 697.632768 171.29048 
L 698.245632 172.283268 
L 698.66496 172.585864 
L 699.600384 172.766062 
L 702.277632 172.310467 
L 706.599936 172.87486 
L 708.954624 173.259055 
L 709.664256 173.367854 
L 711.599616 173.66705 
L 712.470528 173.772449 
L 712.922112 173.843848 
L 713.631744 173.952647 
L 715.083264 174.146445 
L 715.954176 174.251843 
L 717.276672 174.421841 
L 718.17984 174.52044 
L 718.599168 174.585039 
L 730.985472 175.781824 
L 732.340224 175.890623 
L 735.630336 176.12862 
L 736.210944 176.17282 
L 737.952768 176.261218 
L 738.404352 175.730825 
L 738.952704 175.452028 
L 739.597824 175.418029 
L 741.113856 175.846424 
L 742.04928 176.12862 
L 742.920192 176.325818 
L 743.404032 176.410817 
L 749.30688 176.92421 
L 751.435776 177.033009 
L 751.822848 177.046609 
L 752.53248 177.080608 
L 755.5968 177.189407 
L 757.306368 177.260806 
L 758.080512 177.284606 
L 759.499776 177.325405 
L 760.27392 177.345805 
L 760.983552 177.386605 
L 765.080064 177.495403 
L 766.40256 177.526003 
L 767.20896 177.549803 
L 771.660288 177.658601 
L 772.886016 177.679001 
L 778.272768 177.7878 
L 779.14368 178.634389 
L 779.853312 178.824787 
L 781.07904 178.722788 
L 783.17568 178.175395 
L 784.820736 178.066596 
L 786.24 178.025797 
L 818.65728 177.916998 
L 819.173376 177.390005 
L 819.818496 177.104408 
L 820.9152 177.094208 
L 824.882688 177.818399 
L 826.56 177.886398 
L 858.880512 177.995197 
L 859.041792 178.175395 
L 859.557888 178.695588 
L 859.94496 178.879186 
L 860.557824 179.018584 
L 862.912512 178.913186 
L 865.234944 178.53579 
L 870.58944 178.080196 
L 899.232768 178.008797 
L 899.78112 177.393405 
L 900.329472 177.118008 
L 902.264832 177.226807 
L 905.522688 177.801399 
L 907.619328 177.913598 
L 939.552768 178.008797 
L 940.617216 178.875786 
L 941.55264 179.062784 
L 943.455744 178.953985 
L 946.423296 178.440592 
L 947.52 178.267194 
L 947.52 178.267194 
" clip-path="url(#pa3fad46044)" style="fill: none; stroke: #008000; stroke-width: 2; stroke-linecap: square"/>
   </g>
   <g id="patch_10">
    <path d="M 100.8 242.888276 
L 100.8 150.157241 
" style="fill: none; stroke: #bcbcbc; stroke-width: 0.8; stroke-linejoin: miter; stroke-linecap: square"/>
   </g>
   <g id="patch_11">
    <path d="M 987.84 242.888276 
L 987.84 150.157241 
" style="fill: none; stroke: #bcbcbc; stroke-width: 0.8; stroke-linejoin: miter; stroke-linecap: square"/>
   </g>
   <g id="patch_12">
    <path d="M 100.8 242.888276 
L 987.84 242.888276 
" style="fill: none; stroke: #bcbcbc; stroke-width: 0.8; stroke-linejoin: miter; stroke-linecap: square"/>
   </g>
   <g id="patch_13">
    <path d="M 100.8 150.157241 
L 987.84 150.157241 
" style="fill: none; stroke: #bcbcbc; stroke-width: 0.8; stroke-linejoin: miter; stroke-linecap: square"/>
   </g>
  </g>
  <g id="axes_3">
   <g id="patch_14">
    <path d="M 100.8 354.165517 
L 987.84 354.165517 
L 987.84 261.434483 
L 100.8 261.434483 
z
" style="fill: #eeeeee"/>
   </g>
   <g id="matplotlib.axis_5">
    <g id="xtick_13">
     <g id="line2d_37">
      <path d="M 141.12 354.165517 
L 141.12 261.434483 
" clip-path="url(#p809c3e39ab)" style="fill: none; stroke-dasharray: 1.85,0.8; stroke-dashoffset: 0; stroke: #b2b2b2; stroke-width: 0.5"/>
     </g>
     <g id="line2d_38">
      <g>
       <use xlink:href="#m03f62f2839" x="141.12" y="354.165517" style="stroke: #000000; stroke-width: 0.8"/>
      </g>
     </g>
    </g>
    <g id="xtick_14">
     <g id="line2d_39">
      <path d="M 302.4 354.165517 
L 302.4 261.434483 
" clip-path="url(#p809c3e39ab)" style="fill: none; stroke-dasharray: 1.85,0.8; stroke-dashoffset: 0; stroke: #b2b2b2; stroke-width: 0.5"/>
     </g>
     <g id="line2d_40">
      <g>
       <use xlink:href="#m03f62f2839" x="302.4" y="354.165517" style="stroke: #000000; stroke-width: 0.8"/>
      </g>
     </g>
    </g>
    <g id="xtick_15">
     <g id="line2d_41">
      <path d="M 463.68 354.165517 
L 463.68 261.434483 
" clip-path="url(#p809c3e39ab)" style="fill: none; stroke-dasharray: 1.85,0.8; stroke-dashoffset: 0; stroke: #b2b2b2; stroke-width: 0.5"/>
     </g>
     <g id="line2d_42">
      <g>
       <use xlink:href="#m03f62f2839" x="463.68" y="354.165517" style="stroke: #000000; stroke-width: 0.8"/>
      </g>
     </g>
    </g>
    <g id="xtick_16">
     <g id="line2d_43">
      <path d="M 624.96 354.165517 
L 624.96 261.434483 
" clip-path="url(#p809c3e39ab)" style="fill: none; stroke-dasharray: 1.85,0.8; stroke-dashoffset: 0; stroke: #b2b2b2; stroke-width: 0.5"/>
     </g>
     <g id="line2d_44">
      <g>
       <use xlink:href="#m03f62f2839" x="624.96" y="354.165517" style="stroke: #000000; stroke-width: 0.8"/>
      </g>
     </g>
    </g>
    <g id="xtick_17">
     <g id="line2d_45">
      <path d="M 786.24 354.165517 
L 786.24 261.434483 
" clip-path="url(#p809c3e39ab)" style="fill: none; stroke-dasharray: 1.85,0.8; stroke-dashoffset: 0; stroke: #b2b2b2; stroke-width: 0.5"/>
     </g>
     <g id="line2d_46">
      <g>
       <use xlink:href="#m03f62f2839" x="786.24" y="354.165517" style="stroke: #000000; stroke-width: 0.8"/>
      </g>
     </g>
    </g>
    <g id="xtick_18">
     <g id="line2d_47">
      <path d="M 947.52 354.165517 
L 947.52 261.434483 
" clip-path="url(#p809c3e39ab)" style="fill: none; stroke-dasharray: 1.85,0.8; stroke-dashoffset: 0; stroke: #b2b2b2; stroke-width: 0.5"/>
     </g>
     <g id="line2d_48">
      <g>
       <use xlink:href="#m03f62f2839" x="947.52" y="354.165517" style="stroke: #000000; stroke-width: 0.8"/>
      </g>
     </g>
    </g>
   </g>
   <g id="matplotlib.axis_6">
    <g id="ytick_6">
     <g id="line2d_49">
      <path d="M 100.8 345.036773 
L 987.84 345.036773 
" clip-path="url(#p809c3e39ab)" style="fill: none; stroke-dasharray: 1.85,0.8; stroke-dashoffset: 0; stroke: #b2b2b2; stroke-width: 0.5"/>
     </g>
     <g id="line2d_50">
      <g>
       <use xlink:href="#m07e0b2baa5" x="100.8" y="345.036773" style="stroke: #000000; stroke-width: 0.8"/>
      </g>
     </g>
     <g id="text_8">
      <!-- 0 V -->
      <g transform="translate(74.36625 350.355679) scale(0.14 -0.14)">
       <use xlink:href="#DejaVuSans-30"/>
       <use xlink:href="#DejaVuSans-20" x="63.623047"/>
       <use xlink:href="#DejaVuSans-56" x="95.410156"/>
      </g>
     </g>
    </g>
    <g id="ytick_7">
     <g id="line2d_51">
      <path d="M 100.8 301.246579 
L 987.84 301.246579 
" clip-path="url(#p809c3e39ab)" style="fill: none; stroke-dasharray: 1.85,0.8; stroke-dashoffset: 0; stroke: #b2b2b2; stroke-width: 0.5"/>
     </g>
     <g id="line2d_52">
      <g>
       <use xlink:href="#m07e0b2baa5" x="100.8" y="301.246579" style="stroke: #000000; stroke-width: 0.8"/>
      </g>
     </g>
     <g id="text_9">
      <!-- 1 V -->
      <g transform="translate(74.36625 306.565485) scale(0.14 -0.14)">
       <use xlink:href="#DejaVuSans-31"/>
       <use xlink:href="#DejaVuSans-20" x="63.623047"/>
       <use xlink:href="#DejaVuSans-56" x="95.410156"/>
      </g>
     </g>
    </g>
    <g id="text_10">
     <g id="patch_15">
      <path d="M 34.8768 342.395313 
L 34.8768 273.204688 
L 11.247425 273.204688 
L 11.247425 342.395313 
z
" style="fill: #ffff00; opacity: 0.2; stroke: #eeeeee; stroke-width: 0.5; stroke-linejoin: miter"/>
     </g>
     <!-- CLK BUF -->
     <g transform="translate(26.925238 337.355313) rotate(-90) scale(0.14 -0.14)">
      <defs>
       <path id="DejaVuSans-43" d="M 4122 4306 
L 4122 3641 
Q 3803 3938 3442 4084 
Q 3081 4231 2675 4231 
Q 1875 4231 1450 3742 
Q 1025 3253 1025 2328 
Q 1025 1406 1450 917 
Q 1875 428 2675 428 
Q 3081 428 3442 575 
Q 3803 722 4122 1019 
L 4122 359 
Q 3791 134 3420 21 
Q 3050 -91 2638 -91 
Q 1578 -91 968 557 
Q 359 1206 359 2328 
Q 359 3453 968 4101 
Q 1578 4750 2638 4750 
Q 3056 4750 3426 4639 
Q 3797 4528 4122 4306 
z
" transform="scale(0.015625)"/>
       <path id="DejaVuSans-4b" d="M 628 4666 
L 1259 4666 
L 1259 2694 
L 3353 4666 
L 4166 4666 
L 1850 2491 
L 4331 0 
L 3500 0 
L 1259 2247 
L 1259 0 
L 628 0 
L 628 4666 
z
" transform="scale(0.015625)"/>
      </defs>
      <use xlink:href="#DejaVuSans-43"/>
      <use xlink:href="#DejaVuSans-4c" x="69.824219"/>
      <use xlink:href="#DejaVuSans-4b" x="125.537109"/>
      <use xlink:href="#DejaVuSans-20" x="191.113281"/>
      <use xlink:href="#DejaVuSans-42" x="222.900391"/>
      <use xlink:href="#DejaVuSans-55" x="291.503906"/>
      <use xlink:href="#DejaVuSans-46" x="364.697266"/>
     </g>
    </g>
   </g>
   <g id="line2d_53">
    <path d="M 141.12 345.035615 
L 173.376 345.035615 
L 173.601792 292.48854 
L 213.696 292.48854 
L 213.760512 334.404076 
L 213.825024 345.016767 
L 213.889536 344.953751 
L 213.954048 345.128688 
L 214.01856 345.041518 
L 215.341056 345.03233 
L 223.308288 345.035584 
L 254.016 345.035584 
L 254.17728 292.326516 
L 254.241792 292.606773 
L 254.403072 292.479782 
L 254.854656 292.48854 
L 294.336 292.48854 
L 294.400512 334.367292 
L 294.465024 345.363539 
L 294.529536 344.60219 
L 294.626304 345.105589 
L 294.65856 345.074428 
L 294.852096 344.99746 
L 295.206912 345.052707 
L 295.497216 345.035274 
L 320.237568 345.035614 
L 334.656 345.035617 
L 334.81728 292.409717 
L 334.881792 292.506056 
L 335.204352 292.492919 
L 336.043008 292.48854 
L 374.976 292.48854 
L 375.040512 334.408017 
L 375.105024 345.037483 
L 375.169536 344.948198 
L 375.234048 345.122172 
L 375.29856 345.041663 
L 376.685568 345.031951 
L 384.910848 345.035562 
L 415.296 345.035616 
L 415.45728 292.326516 
L 415.521792 292.606773 
L 415.683072 292.475403 
L 416.58624 292.48854 
L 455.616 292.48854 
L 455.680512 334.369919 
L 455.745024 345.368934 
L 455.809536 344.399932 
L 455.906304 345.679262 
L 455.93856 345.107997 
L 456.132096 345.010473 
L 456.519168 345.036068 
L 489.420288 345.035613 
L 495.936 345.035615 
L 496.09728 292.400959 
L 496.161792 292.506056 
L 497.097216 292.48854 
L 536.256 292.48854 
L 536.288256 296.333319 
L 536.41728 344.931724 
L 536.546304 345.094891 
L 536.610816 345.049871 
L 536.836608 345.023088 
L 537.094656 345.052305 
L 537.38496 345.035626 
L 553.932288 345.035806 
L 554.125824 345.197334 
L 554.770944 345.800868 
L 555.577344 346.215298 
L 556.480512 346.44327 
L 558.093312 346.573546 
L 561.157632 346.534047 
L 572.156928 346.297843 
L 573.156864 346.572013 
L 573.898752 346.963147 
L 576.576 348.559825 
L 576.608256 349.95047 
L 576.801792 325.656546 
L 576.834048 325.526489 
L 576.89856 325.576848 
L 576.995328 325.723107 
L 577.027584 325.714349 
L 577.124352 325.796237 
L 577.253376 325.875935 
L 577.86624 326.327412 
L 579.866112 327.582877 
L 580.898304 327.041192 
L 583.34976 326.058978 
L 583.446528 326.023508 
L 583.801344 325.878563 
L 584.769024 325.528241 
L 585.76896 325.156462 
L 585.897984 325.147266 
L 586.027008 325.038229 
L 586.41408 324.928753 
L 590.478336 323.408358 
L 590.510592 323.491997 
L 590.542848 323.460468 
L 590.671872 323.348365 
L 590.704128 323.429815 
L 590.800896 323.37245 
L 590.962176 323.226191 
L 590.994432 323.267353 
L 591.026688 323.315085 
L 591.058944 323.175394 
L 591.0912 323.22838 
L 591.41376 323.09701 
L 591.73632 323.031324 
L 593.768448 322.319734 
L 593.83296 322.293459 
L 593.897472 322.336812 
L 593.961984 322.221206 
L 593.99424 322.300028 
L 594.026496 322.235656 
L 594.15552 322.123991 
L 594.3168 322.158148 
L 594.445824 322.094652 
L 595.961856 321.570483 
L 599.510016 320.207733 
L 600.219648 319.806176 
L 605.348352 316.473305 
L 609.541632 313.81524 
L 613.83168 311.381819 
L 616.896 309.813254 
L 616.928256 309.182675 
L 617.121792 344.648104 
L 617.154048 344.728669 
L 617.186304 344.535594 
L 617.21856 344.607686 
L 617.734656 344.617762 
L 618.573312 344.526617 
L 619.218432 343.891659 
L 619.992576 343.474645 
L 620.992512 343.220706 
L 622.476288 343.111362 
L 625.153536 343.162815 
L 639.700992 343.565203 
L 643.926528 343.675335 
L 644.378112 343.790066 
L 645.023232 344.442146 
L 645.76512 344.876391 
L 646.700544 345.168112 
L 648.055296 345.349246 
L 650.506752 345.430245 
L 657.216 345.418014 
L 657.37728 265.64953 
L 657.474048 265.706457 
L 658.441728 266.113706 
L 658.732032 266.223181 
L 664.409088 268.644779 
L 664.989696 268.977585 
L 667.247616 270.321943 
L 667.666944 270.571548 
L 677.085696 275.56363 
L 679.762944 276.772239 
L 680.633856 277.12694 
L 681.278976 277.415955 
L 689.988096 280.844727 
L 690.246144 280.945445 
L 691.987968 281.54537 
L 692.278272 281.646088 
L 693.374976 281.983272 
L 693.633024 282.08399 
L 694.63296 282.377384 
L 694.891008 282.473722 
L 695.342592 282.596335 
L 697.536 283.235672 
L 697.568256 293.767213 
L 697.69728 345.261451 
L 698.116608 345.277316 
L 737.856 345.107402 
L 737.985024 289.738516 
L 738.081792 289.909297 
L 738.597888 289.948708 
L 740.404224 290.084458 
L 741.758976 290.193934 
L 742.017024 290.21145 
L 743.565312 290.312167 
L 743.920128 290.34282 
L 745.500672 290.443538 
L 745.855488 290.474191 
L 747.629568 290.574908 
L 747.984384 290.605561 
L 749.855232 290.706279 
L 750.210048 290.736932 
L 752.274432 290.837649 
L 752.629248 290.868303 
L 754.887168 290.96902 
L 755.241984 290.999673 
L 757.790208 291.100391 
L 758.145024 291.131044 
L 760.886784 291.231761 
L 761.2416 291.262414 
L 764.370432 291.363132 
L 764.725248 291.393785 
L 768.33792 291.494502 
L 768.692736 291.525155 
L 772.789248 291.625873 
L 773.144064 291.656526 
L 778.01472 291.757243 
L 778.176 291.787897 
L 778.208256 296.723051 
L 778.33728 344.983559 
L 778.466304 345.055468 
L 799.9488 345.048154 
L 818.496 345.048154 
L 818.65728 291.963057 
L 818.721792 292.068154 
L 819.657216 292.050638 
L 858.816 292.050638 
L 858.945024 345.371413 
L 859.106304 345.116519 
L 859.364352 345.018897 
L 859.719168 345.066566 
L 860.041728 345.047927 
L 897.136128 345.048154 
L 899.136 345.048155 
L 899.29728 291.822929 
L 899.361792 292.317758 
L 899.45856 291.866719 
L 899.523072 292.033122 
L 900.006912 292.050638 
L 939.456 292.050638 
L 939.488256 299.94601 
L 939.61728 344.996074 
L 939.649536 345.123411 
L 939.714048 345.001582 
L 939.746304 344.963157 
L 939.810816 345.019676 
L 940.004352 345.074362 
L 940.230144 345.046765 
L 945.552384 345.04816 
L 947.52 345.048145 
L 947.52 345.048145 
" clip-path="url(#p809c3e39ab)" style="fill: none; stroke: #0000ff; stroke-width: 2; stroke-linecap: square"/>
   </g>
   <g id="patch_16">
    <path d="M 100.8 354.165517 
L 100.8 261.434483 
" style="fill: none; stroke: #bcbcbc; stroke-width: 0.8; stroke-linejoin: miter; stroke-linecap: square"/>
   </g>
   <g id="patch_17">
    <path d="M 987.84 354.165517 
L 987.84 261.434483 
" style="fill: none; stroke: #bcbcbc; stroke-width: 0.8; stroke-linejoin: miter; stroke-linecap: square"/>
   </g>
   <g id="patch_18">
    <path d="M 100.8 354.165517 
L 987.84 354.165517 
" style="fill: none; stroke: #bcbcbc; stroke-width: 0.8; stroke-linejoin: miter; stroke-linecap: square"/>
   </g>
   <g id="patch_19">
    <path d="M 100.8 261.434483 
L 987.84 261.434483 
" style="fill: none; stroke: #bcbcbc; stroke-width: 0.8; stroke-linejoin: miter; stroke-linecap: square"/>
   </g>
  </g>
  <g id="axes_4">
   <g id="patch_20">
    <path d="M 100.8 465.442759 
L 987.84 465.442759 
L 987.84 372.711724 
L 100.8 372.711724 
z
" style="fill: #eeeeee"/>
   </g>
   <g id="matplotlib.axis_7">
    <g id="xtick_19">
     <g id="line2d_54">
      <path d="M 141.12 465.442759 
L 141.12 372.711724 
" clip-path="url(#pc2fc9fb1dc)" style="fill: none; stroke-dasharray: 1.85,0.8; stroke-dashoffset: 0; stroke: #b2b2b2; stroke-width: 0.5"/>
     </g>
     <g id="line2d_55">
      <g>
       <use xlink:href="#m03f62f2839" x="141.12" y="465.442759" style="stroke: #000000; stroke-width: 0.8"/>
      </g>
     </g>
    </g>
    <g id="xtick_20">
     <g id="line2d_56">
      <path d="M 302.4 465.442759 
L 302.4 372.711724 
" clip-path="url(#pc2fc9fb1dc)" style="fill: none; stroke-dasharray: 1.85,0.8; stroke-dashoffset: 0; stroke: #b2b2b2; stroke-width: 0.5"/>
     </g>
     <g id="line2d_57">
      <g>
       <use xlink:href="#m03f62f2839" x="302.4" y="465.442759" style="stroke: #000000; stroke-width: 0.8"/>
      </g>
     </g>
    </g>
    <g id="xtick_21">
     <g id="line2d_58">
      <path d="M 463.68 465.442759 
L 463.68 372.711724 
" clip-path="url(#pc2fc9fb1dc)" style="fill: none; stroke-dasharray: 1.85,0.8; stroke-dashoffset: 0; stroke: #b2b2b2; stroke-width: 0.5"/>
     </g>
     <g id="line2d_59">
      <g>
       <use xlink:href="#m03f62f2839" x="463.68" y="465.442759" style="stroke: #000000; stroke-width: 0.8"/>
      </g>
     </g>
    </g>
    <g id="xtick_22">
     <g id="line2d_60">
      <path d="M 624.96 465.442759 
L 624.96 372.711724 
" clip-path="url(#pc2fc9fb1dc)" style="fill: none; stroke-dasharray: 1.85,0.8; stroke-dashoffset: 0; stroke: #b2b2b2; stroke-width: 0.5"/>
     </g>
     <g id="line2d_61">
      <g>
       <use xlink:href="#m03f62f2839" x="624.96" y="465.442759" style="stroke: #000000; stroke-width: 0.8"/>
      </g>
     </g>
    </g>
    <g id="xtick_23">
     <g id="line2d_62">
      <path d="M 786.24 465.442759 
L 786.24 372.711724 
" clip-path="url(#pc2fc9fb1dc)" style="fill: none; stroke-dasharray: 1.85,0.8; stroke-dashoffset: 0; stroke: #b2b2b2; stroke-width: 0.5"/>
     </g>
     <g id="line2d_63">
      <g>
       <use xlink:href="#m03f62f2839" x="786.24" y="465.442759" style="stroke: #000000; stroke-width: 0.8"/>
      </g>
     </g>
    </g>
    <g id="xtick_24">
     <g id="line2d_64">
      <path d="M 947.52 465.442759 
L 947.52 372.711724 
" clip-path="url(#pc2fc9fb1dc)" style="fill: none; stroke-dasharray: 1.85,0.8; stroke-dashoffset: 0; stroke: #b2b2b2; stroke-width: 0.5"/>
     </g>
     <g id="line2d_65">
      <g>
       <use xlink:href="#m03f62f2839" x="947.52" y="465.442759" style="stroke: #000000; stroke-width: 0.8"/>
      </g>
     </g>
    </g>
   </g>
   <g id="matplotlib.axis_8">
    <g id="ytick_8">
     <g id="line2d_66">
      <path d="M 100.8 440.950874 
L 987.84 440.950874 
" clip-path="url(#pc2fc9fb1dc)" style="fill: none; stroke-dasharray: 1.85,0.8; stroke-dashoffset: 0; stroke: #b2b2b2; stroke-width: 0.5"/>
     </g>
     <g id="line2d_67">
      <g>
       <use xlink:href="#m07e0b2baa5" x="100.8" y="440.950874" style="stroke: #000000; stroke-width: 0.8"/>
      </g>
     </g>
     <g id="text_11">
      <!-- 0 V -->
      <g transform="translate(74.36625 446.26978) scale(0.14 -0.14)">
       <use xlink:href="#DejaVuSans-30"/>
       <use xlink:href="#DejaVuSans-20" x="63.623047"/>
       <use xlink:href="#DejaVuSans-56" x="95.410156"/>
      </g>
     </g>
    </g>
    <g id="ytick_9">
     <g id="line2d_68">
      <path d="M 100.8 405.533436 
L 987.84 405.533436 
" clip-path="url(#pc2fc9fb1dc)" style="fill: none; stroke-dasharray: 1.85,0.8; stroke-dashoffset: 0; stroke: #b2b2b2; stroke-width: 0.5"/>
     </g>
     <g id="line2d_69">
      <g>
       <use xlink:href="#m07e0b2baa5" x="100.8" y="405.533436" style="stroke: #000000; stroke-width: 0.8"/>
      </g>
     </g>
     <g id="text_12">
      <!-- 1 V -->
      <g transform="translate(74.36625 410.852342) scale(0.14 -0.14)">
       <use xlink:href="#DejaVuSans-31"/>
       <use xlink:href="#DejaVuSans-20" x="63.623047"/>
       <use xlink:href="#DejaVuSans-56" x="95.410156"/>
      </g>
     </g>
    </g>
    <g id="text_13">
     <g id="patch_21">
      <path d="M 34.8768 454.693023 
L 34.8768 383.46146 
L 11.247425 383.46146 
L 11.247425 454.693023 
z
" style="fill: #ffff00; opacity: 0.2; stroke: #eeeeee; stroke-width: 0.5; stroke-linejoin: miter"/>
     </g>
     <!-- DFF OUT -->
     <g transform="translate(26.925238 449.653023) rotate(-90) scale(0.14 -0.14)">
      <defs>
       <path id="DejaVuSans-4f" d="M 2522 4238 
Q 1834 4238 1429 3725 
Q 1025 3213 1025 2328 
Q 1025 1447 1429 934 
Q 1834 422 2522 422 
Q 3209 422 3611 934 
Q 4013 1447 4013 2328 
Q 4013 3213 3611 3725 
Q 3209 4238 2522 4238 
z
M 2522 4750 
Q 3503 4750 4090 4092 
Q 4678 3434 4678 2328 
Q 4678 1225 4090 567 
Q 3503 -91 2522 -91 
Q 1538 -91 948 565 
Q 359 1222 359 2328 
Q 359 3434 948 4092 
Q 1538 4750 2522 4750 
z
" transform="scale(0.015625)"/>
       <path id="DejaVuSans-54" d="M -19 4666 
L 3928 4666 
L 3928 4134 
L 2272 4134 
L 2272 0 
L 1638 0 
L 1638 4134 
L -19 4134 
L -19 4666 
z
" transform="scale(0.015625)"/>
      </defs>
      <use xlink:href="#DejaVuSans-44"/>
      <use xlink:href="#DejaVuSans-46" x="77.001953"/>
      <use xlink:href="#DejaVuSans-46" x="134.521484"/>
      <use xlink:href="#DejaVuSans-20" x="192.041016"/>
      <use xlink:href="#DejaVuSans-4f" x="223.828125"/>
      <use xlink:href="#DejaVuSans-55" x="302.539062"/>
      <use xlink:href="#DejaVuSans-54" x="375.732422"/>
     </g>
    </g>
   </g>
   <g id="line2d_70">
    <path d="M 141.12 414.227354 
L 173.408256 414.270564 
L 173.440512 415.736846 
L 173.601792 440.953036 
L 174.1824 440.94955 
L 185.601024 440.949925 
L 254.048256 440.951414 
L 254.080512 441.092997 
L 254.112768 440.858799 
L 254.306304 437.400984 
L 254.628864 436.606571 
L 254.693376 436.213438 
L 255.14496 430.008302 
L 255.370752 415.42411 
L 255.596544 398.793497 
L 255.757824 398.503074 
L 255.983616 398.446407 
L 257.015808 398.449948 
L 295.755264 398.520783 
L 296.239104 400.812291 
L 296.59392 400.238529 
L 297.980928 398.733288 
L 299.65824 398.474741 
L 334.688256 398.464115 
L 334.720512 398.361405 
L 334.752768 398.882041 
L 334.785024 401.456889 
L 334.914048 440.936356 
L 334.97856 440.905186 
L 335.13984 440.943451 
L 335.559168 440.950155 
L 370.685952 440.949898 
L 415.328256 440.951392 
L 415.360512 441.092505 
L 415.392768 440.860762 
L 415.586304 437.318462 
L 415.876608 436.505631 
L 415.908864 436.408233 
L 416.1024 432.208079 
L 416.521728 419.980563 
L 416.9088 398.566826 
L 417.102336 398.45349 
L 418.392576 398.421614 
L 495.968256 398.464115 
L 496.000512 398.584535 
L 496.065024 398.421614 
L 496.387584 398.442865 
L 554.093568 398.538492 
L 555.738624 400.507701 
L 561.996288 409.622025 
L 562.576896 410.878636 
L 563.480064 413.946494 
L 565.512192 422.02167 
L 565.641216 422.587287 
L 565.737984 422.499806 
L 565.867008 422.880543 
L 566.286336 425.280074 
L 568.479744 434.231478 
L 570.253824 440.924325 
L 570.28608 440.556713 
L 570.318336 441.130685 
L 570.802176 442.855659 
L 570.834432 442.47648 
L 570.898944 442.766195 
L 570.9312 442.760386 
L 571.41504 444.746915 
L 571.673088 445.403909 
L 571.705344 445.117382 
L 571.769856 445.239572 
L 571.931136 445.614288 
L 571.963392 446.07259 
L 572.06016 445.942608 
L 572.802048 447.796357 
L 572.963328 448.099884 
L 572.995584 447.864358 
L 573.060096 447.973444 
L 573.3504 448.501518 
L 573.51168 449.179407 
L 576.027648 454.410917 
L 576.059904 454.276685 
L 576.124416 454.39675 
L 576.317952 454.942533 
L 576.672768 455.498941 
L 577.05984 456.155226 
L 577.22112 456.676217 
L 579.930624 461.191586 
L 580.027392 461.024416 
L 580.059648 461.059833 
L 580.091904 461.043541 
L 580.253184 460.701054 
L 580.672512 460.111708 
L 580.833792 459.717866 
L 581.382144 458.746012 
L 581.4144 458.861473 
L 581.446656 458.816492 
L 581.607936 458.406358 
L 581.704704 458.370233 
L 581.962752 457.978162 
L 582.317568 457.472046 
L 582.930432 456.65107 
L 583.34976 456.189227 
L 583.382016 456.342939 
L 583.414272 456.105996 
L 583.446528 456.211186 
L 583.704576 455.877199 
L 583.769088 455.911908 
L 583.930368 455.725258 
L 584.15616 455.530462 
L 584.446464 455.224456 
L 584.865792 454.589421 
L 584.898048 454.760842 
L 584.96256 454.521774 
L 585.027072 454.439605 
L 585.091584 454.482106 
L 585.12384 454.472898 
L 585.28512 454.14387 
L 585.76896 453.697256 
L 585.801216 453.877885 
L 585.833472 453.668214 
L 585.897984 453.788987 
L 586.027008 453.531502 
L 586.123776 453.440834 
L 586.381824 453.272955 
L 586.73664 453.000241 
L 587.639808 452.004657 
L 587.801088 451.717775 
L 588.18816 451.379539 
L 588.252672 451.510937 
L 588.284928 451.552376 
L 588.317184 451.447894 
L 588.446208 451.157117 
L 588.478464 451.294891 
L 588.51072 451.279662 
L 588.639744 451.005885 
L 588.801024 451.019343 
L 588.962304 450.865986 
L 589.31712 450.655252 
L 589.575168 450.376517 
L 589.833216 450.15197 
L 589.96224 449.749982 
L 590.059008 449.644084 
L 590.381568 449.340557 
L 590.44608 449.601938 
L 590.478336 449.181178 
L 590.575104 449.206325 
L 590.639616 449.430871 
L 590.76864 449.051905 
L 590.800896 449.207387 
L 590.833152 449.128052 
L 590.92992 449.165241 
L 590.962176 448.79867 
L 590.994432 448.799733 
L 591.026688 449.081655 
L 591.058944 448.737044 
L 591.0912 448.73421 
L 591.187968 448.835858 
L 591.155712 448.661605 
L 591.220224 448.788045 
L 591.284736 448.844713 
L 591.349248 448.601749 
L 591.510528 448.658063 
L 591.639552 448.447683 
L 592.510464 447.836732 
L 592.671744 447.617144 
L 592.768512 447.312554 
L 592.800768 447.364264 
L 592.833024 447.524705 
L 592.86528 447.296616 
L 593.02656 446.991672 
L 593.123328 446.892858 
L 593.155584 447.185406 
L 593.18784 446.863461 
L 593.252352 447.063924 
L 593.381376 446.659103 
L 593.413632 446.639269 
L 593.445888 446.998047 
L 593.542656 446.939255 
L 593.574912 446.477765 
L 593.67168 446.596414 
L 593.736192 446.699124 
L 593.768448 446.367263 
L 593.800704 446.672561 
L 593.865216 446.282261 
L 593.929728 446.39843 
L 593.99424 446.545767 
L 594.058752 446.214968 
L 594.091008 446.380013 
L 594.123264 446.301741 
L 594.220032 446.378951 
L 594.252288 446.049214 
L 594.284544 446.058777 
L 594.3168 446.241885 
L 594.349056 446.025485 
L 594.381312 446.022297 
L 595.187712 445.650414 
L 595.961856 444.99165 
L 596.187648 444.784812 
L 596.284416 444.24119 
L 596.316672 444.248663 
L 596.381184 444.198476 
L 596.41344 444.425219 
L 596.445696 444.348859 
L 596.477952 444.052733 
L 596.542464 444.458936 
L 596.57472 444.18523 
L 596.639232 444.414275 
L 596.768256 443.86279 
L 596.800512 443.846816 
L 596.832768 444.157392 
L 596.929536 444.122081 
L 597.05856 443.642918 
L 597.155328 443.724307 
L 597.187584 443.847418 
L 597.252096 443.735428 
L 597.348864 443.492182 
L 597.38112 443.503338 
L 597.445632 443.45216 
L 597.510144 443.704509 
L 597.639168 443.425774 
L 597.671424 443.445997 
L 597.929472 443.366627 
L 599.122944 442.321883 
L 599.187456 442.105235 
L 599.219712 441.725064 
L 599.251968 442.143485 
L 599.284224 441.757967 
L 599.380992 441.973269 
L 599.413248 441.855435 
L 599.703552 441.099953 
L 599.768064 441.201112 
L 599.80032 441.406767 
L 599.832576 441.352437 
L 599.9616 440.942862 
L 600.12288 440.934208 
L 600.92928 439.67365 
L 600.961536 439.090892 
L 601.026048 439.261923 
L 601.058304 439.424949 
L 601.09056 439.308426 
L 601.219584 438.647784 
L 601.284096 438.911573 
L 601.316352 438.555912 
L 601.41312 438.616759 
L 601.542144 438.634042 
L 601.800192 438.243353 
L 602.3808 437.255419 
L 602.477568 436.49536 
L 602.509824 436.937724 
L 602.54208 436.975621 
L 602.574336 436.278606 
L 602.671104 436.544945 
L 602.767872 436.150395 
L 602.800128 436.195375 
L 602.961408 436.322523 
L 602.993664 436.272231 
L 603.638784 435.116914 
L 604.122624 434.403606 
L 604.15488 433.799031 
L 604.219392 433.864907 
L 604.31616 434.132663 
L 604.348416 434.034203 
L 604.96128 432.91147 
L 605.187072 432.538878 
L 605.219328 432.621047 
L 605.251584 432.447856 
L 605.896704 431.523815 
L 606.09024 431.107306 
L 606.122496 431.264559 
L 606.154752 431.085701 
L 606.348288 430.660692 
L 606.541824 430.374165 
L 606.57408 430.57569 
L 606.638592 430.276058 
L 606.703104 430.30758 
L 606.73536 430.089408 
L 606.767616 430.350435 
L 606.832128 430.074887 
L 606.993408 429.948093 
L 607.154688 429.835111 
L 607.767552 428.723358 
L 607.928832 428.068489 
L 607.993344 427.949487 
L 608.0256 428.230701 
L 608.057856 427.869797 
L 609.767424 424.497349 
L 609.896448 423.830793 
L 609.993216 423.918982 
L 610.025472 424.037985 
L 610.089984 423.984505 
L 610.4448 423.305552 
L 611.08992 422.049296 
L 611.347968 421.355822 
L 611.476992 421.364322 
L 611.702784 421.407532 
L 611.799552 421.284279 
L 612.122112 420.717954 
L 613.283328 419.181192 
L 613.444608 419.016146 
L 613.734912 418.55147 
L 613.83168 418.693493 
L 613.960704 418.784516 
L 614.057472 419.119919 
L 614.218752 422.434637 
L 614.63808 440.46608 
L 616.154112 440.538651 
L 617.734656 440.479255 
L 618.637824 440.345271 
L 619.186176 439.988405 
L 620.1216 439.641208 
L 621.282816 439.448112 
L 623.121408 439.390488 
L 628.217856 439.540481 
L 638.378496 439.800091 
L 640.636416 439.775405 
L 644.378112 439.953059 
L 645.087744 440.520836 
L 645.9264 440.886478 
L 647.087616 441.126364 
L 648.99072 441.254692 
L 653.66784 441.279612 
L 657.248256 441.279229 
L 657.280512 441.472006 
L 657.570816 430.002636 
L 657.732096 427.95232 
L 657.893376 421.853437 
L 658.054656 404.552373 
L 658.34496 376.926771 
L 658.377216 377.241986 
L 658.441728 377.068441 
L 659.280384 377.362406 
L 660.473856 377.766164 
L 664.763904 379.296198 
L 665.570304 379.699957 
L 666.344448 380.061214 
L 666.828288 380.298511 
L 670.344192 381.959589 
L 670.795776 382.175635 
L 672.118272 382.728148 
L 672.666624 382.965444 
L 673.98912 383.517956 
L 677.117952 384.771734 
L 680.408064 385.972385 
L 681.601536 386.376144 
L 690.342912 389.138704 
L 690.697728 389.241414 
L 691.40736 389.432669 
L 693.34272 389.953305 
L 693.794304 390.059557 
L 695.310336 390.449149 
L 695.729664 390.55186 
L 696.955392 390.838741 
L 697.471488 390.944993 
L 698.66496 391.228333 
L 699.213312 391.334585 
L 700.310016 391.582507 
L 700.858368 391.688759 
L 705.567744 392.609613 
L 706.180608 392.715865 
L 708.954624 393.211709 
L 709.664256 393.317962 
L 711.470592 393.601301 
L 712.180224 393.707553 
L 713.82528 393.955475 
L 714.696192 394.061728 
L 716.179968 394.274232 
L 717.115392 394.380485 
L 718.437888 394.557572 
L 719.341056 394.663824 
L 720.502272 394.805494 
L 721.56672 394.911746 
L 722.727936 395.053416 
L 723.889152 395.159668 
L 725.050368 395.301338 
L 726.308352 395.40759 
L 727.308288 395.513843 
L 728.630784 395.620095 
L 729.63072 395.726347 
L 731.049984 395.8326 
L 731.88864 395.903435 
L 733.275648 396.009687 
L 734.114304 396.080522 
L 735.694848 396.186774 
L 736.533504 396.257609 
L 737.888256 396.360319 
L 737.920512 396.576366 
L 737.985024 396.342611 
L 738.17856 396.356778 
L 739.501056 396.466572 
L 741.500928 396.576366 
L 743.533056 396.682618 
L 744.371712 396.753453 
L 746.823168 396.859705 
L 747.500544 396.895123 
L 748.17792 396.93054 
L 750.59712 397.036793 
L 751.274496 397.07221 
L 751.984128 397.104086 
L 754.854912 397.210338 
L 755.306496 397.249297 
L 758.725632 397.352008 
L 759.177216 397.387425 
L 763.17696 397.493677 
L 763.628544 397.532637 
L 768.305664 397.638889 
L 768.950784 397.670765 
L 774.402048 397.777017 
L 774.853632 397.812434 
L 782.04672 397.918687 
L 782.498304 397.957646 
L 792.20736 398.060356 
L 792.658944 398.095774 
L 818.528256 398.109941 
L 818.560512 398.23036 
L 818.625024 398.06744 
L 818.947584 398.08869 
L 899.168256 398.092232 
L 899.200512 398.272861 
L 899.265024 398.092232 
L 899.45856 398.074523 
L 900.652032 398.095774 
L 947.52 398.095774 
L 947.52 398.095774 
" clip-path="url(#pc2fc9fb1dc)" style="fill: none; stroke: #ff00ff; stroke-width: 2; stroke-linecap: square"/>
   </g>
   <g id="patch_22">
    <path d="M 100.8 465.442759 
L 100.8 372.711724 
" style="fill: none; stroke: #bcbcbc; stroke-width: 0.8; stroke-linejoin: miter; stroke-linecap: square"/>
   </g>
   <g id="patch_23">
    <path d="M 987.84 465.442759 
L 987.84 372.711724 
" style="fill: none; stroke: #bcbcbc; stroke-width: 0.8; stroke-linejoin: miter; stroke-linecap: square"/>
   </g>
   <g id="patch_24">
    <path d="M 100.8 465.442759 
L 987.84 465.442759 
" style="fill: none; stroke: #bcbcbc; stroke-width: 0.8; stroke-linejoin: miter; stroke-linecap: square"/>
   </g>
   <g id="patch_25">
    <path d="M 100.8 372.711724 
L 987.84 372.711724 
" style="fill: none; stroke: #bcbcbc; stroke-width: 0.8; stroke-linejoin: miter; stroke-linecap: square"/>
   </g>
  </g>
  <g id="axes_5">
   <g id="patch_26">
    <path d="M 100.8 576.72 
L 987.84 576.72 
L 987.84 483.988966 
L 100.8 483.988966 
z
" style="fill: #eeeeee"/>
   </g>
   <g id="matplotlib.axis_9">
    <g id="xtick_25">
     <g id="line2d_71">
      <path d="M 141.12 576.72 
L 141.12 483.988966 
" clip-path="url(#p98bc7c4d06)" style="fill: none; stroke-dasharray: 1.85,0.8; stroke-dashoffset: 0; stroke: #b2b2b2; stroke-width: 0.5"/>
     </g>
     <g id="line2d_72">
      <g>
       <use xlink:href="#m03f62f2839" x="141.12" y="576.72" style="stroke: #000000; stroke-width: 0.8"/>
      </g>
     </g>
     <g id="text_14">
      <!-- 0 s -->
      <g transform="translate(130.795 590.857813) scale(0.14 -0.14)">
       <defs>
        <path id="DejaVuSans-73" d="M 2834 3397 
L 2834 2853 
Q 2591 2978 2328 3040 
Q 2066 3103 1784 3103 
Q 1356 3103 1142 2972 
Q 928 2841 928 2578 
Q 928 2378 1081 2264 
Q 1234 2150 1697 2047 
L 1894 2003 
Q 2506 1872 2764 1633 
Q 3022 1394 3022 966 
Q 3022 478 2636 193 
Q 2250 -91 1575 -91 
Q 1294 -91 989 -36 
Q 684 19 347 128 
L 347 722 
Q 666 556 975 473 
Q 1284 391 1588 391 
Q 1994 391 2212 530 
Q 2431 669 2431 922 
Q 2431 1156 2273 1281 
Q 2116 1406 1581 1522 
L 1381 1569 
Q 847 1681 609 1914 
Q 372 2147 372 2553 
Q 372 3047 722 3315 
Q 1072 3584 1716 3584 
Q 2034 3584 2315 3537 
Q 2597 3491 2834 3397 
z
" transform="scale(0.015625)"/>
       </defs>
       <use xlink:href="#DejaVuSans-30"/>
       <use xlink:href="#DejaVuSans-20" x="63.623047"/>
       <use xlink:href="#DejaVuSans-73" x="95.410156"/>
      </g>
     </g>
    </g>
    <g id="xtick_26">
     <g id="line2d_73">
      <path d="M 302.4 576.72 
L 302.4 483.988966 
" clip-path="url(#p98bc7c4d06)" style="fill: none; stroke-dasharray: 1.85,0.8; stroke-dashoffset: 0; stroke: #b2b2b2; stroke-width: 0.5"/>
     </g>
     <g id="line2d_74">
      <g>
       <use xlink:href="#m03f62f2839" x="302.4" y="576.72" style="stroke: #000000; stroke-width: 0.8"/>
      </g>
     </g>
     <g id="text_15">
      <!-- 50 ns -->
      <g transform="translate(283.185 590.857813) scale(0.14 -0.14)">
       <defs>
        <path id="DejaVuSans-35" d="M 691 4666 
L 3169 4666 
L 3169 4134 
L 1269 4134 
L 1269 2991 
Q 1406 3038 1543 3061 
Q 1681 3084 1819 3084 
Q 2600 3084 3056 2656 
Q 3513 2228 3513 1497 
Q 3513 744 3044 326 
Q 2575 -91 1722 -91 
Q 1428 -91 1123 -41 
Q 819 9 494 109 
L 494 744 
Q 775 591 1075 516 
Q 1375 441 1709 441 
Q 2250 441 2565 725 
Q 2881 1009 2881 1497 
Q 2881 1984 2565 2268 
Q 2250 2553 1709 2553 
Q 1456 2553 1204 2497 
Q 953 2441 691 2322 
L 691 4666 
z
" transform="scale(0.015625)"/>
        <path id="DejaVuSans-6e" d="M 3513 2113 
L 3513 0 
L 2938 0 
L 2938 2094 
Q 2938 2591 2744 2837 
Q 2550 3084 2163 3084 
Q 1697 3084 1428 2787 
Q 1159 2491 1159 1978 
L 1159 0 
L 581 0 
L 581 3500 
L 1159 3500 
L 1159 2956 
Q 1366 3272 1645 3428 
Q 1925 3584 2291 3584 
Q 2894 3584 3203 3211 
Q 3513 2838 3513 2113 
z
" transform="scale(0.015625)"/>
       </defs>
       <use xlink:href="#DejaVuSans-35"/>
       <use xlink:href="#DejaVuSans-30" x="63.623047"/>
       <use xlink:href="#DejaVuSans-20" x="127.246094"/>
       <use xlink:href="#DejaVuSans-6e" x="159.033203"/>
       <use xlink:href="#DejaVuSans-73" x="222.412109"/>
      </g>
     </g>
    </g>
    <g id="xtick_27">
     <g id="line2d_75">
      <path d="M 463.68 576.72 
L 463.68 483.988966 
" clip-path="url(#p98bc7c4d06)" style="fill: none; stroke-dasharray: 1.85,0.8; stroke-dashoffset: 0; stroke: #b2b2b2; stroke-width: 0.5"/>
     </g>
     <g id="line2d_76">
      <g>
       <use xlink:href="#m03f62f2839" x="463.68" y="576.72" style="stroke: #000000; stroke-width: 0.8"/>
      </g>
     </g>
     <g id="text_16">
      <!-- 100 ns -->
      <g transform="translate(440.01125 590.857813) scale(0.14 -0.14)">
       <use xlink:href="#DejaVuSans-31"/>
       <use xlink:href="#DejaVuSans-30" x="63.623047"/>
       <use xlink:href="#DejaVuSans-30" x="127.246094"/>
       <use xlink:href="#DejaVuSans-20" x="190.869141"/>
       <use xlink:href="#DejaVuSans-6e" x="222.65625"/>
       <use xlink:href="#DejaVuSans-73" x="286.035156"/>
      </g>
     </g>
    </g>
    <g id="xtick_28">
     <g id="line2d_77">
      <path d="M 624.96 576.72 
L 624.96 483.988966 
" clip-path="url(#p98bc7c4d06)" style="fill: none; stroke-dasharray: 1.85,0.8; stroke-dashoffset: 0; stroke: #b2b2b2; stroke-width: 0.5"/>
     </g>
     <g id="line2d_78">
      <g>
       <use xlink:href="#m03f62f2839" x="624.96" y="576.72" style="stroke: #000000; stroke-width: 0.8"/>
      </g>
     </g>
     <g id="text_17">
      <!-- 150 ns -->
      <g transform="translate(601.29125 590.857813) scale(0.14 -0.14)">
       <use xlink:href="#DejaVuSans-31"/>
       <use xlink:href="#DejaVuSans-35" x="63.623047"/>
       <use xlink:href="#DejaVuSans-30" x="127.246094"/>
       <use xlink:href="#DejaVuSans-20" x="190.869141"/>
       <use xlink:href="#DejaVuSans-6e" x="222.65625"/>
       <use xlink:href="#DejaVuSans-73" x="286.035156"/>
      </g>
     </g>
    </g>
    <g id="xtick_29">
     <g id="line2d_79">
      <path d="M 786.24 576.72 
L 786.24 483.988966 
" clip-path="url(#p98bc7c4d06)" style="fill: none; stroke-dasharray: 1.85,0.8; stroke-dashoffset: 0; stroke: #b2b2b2; stroke-width: 0.5"/>
     </g>
     <g id="line2d_80">
      <g>
       <use xlink:href="#m03f62f2839" x="786.24" y="576.72" style="stroke: #000000; stroke-width: 0.8"/>
      </g>
     </g>
     <g id="text_18">
      <!-- 200 ns -->
      <g transform="translate(762.57125 590.857813) scale(0.14 -0.14)">
       <use xlink:href="#DejaVuSans-32"/>
       <use xlink:href="#DejaVuSans-30" x="63.623047"/>
       <use xlink:href="#DejaVuSans-30" x="127.246094"/>
       <use xlink:href="#DejaVuSans-20" x="190.869141"/>
       <use xlink:href="#DejaVuSans-6e" x="222.65625"/>
       <use xlink:href="#DejaVuSans-73" x="286.035156"/>
      </g>
     </g>
    </g>
    <g id="xtick_30">
     <g id="line2d_81">
      <path d="M 947.52 576.72 
L 947.52 483.988966 
" clip-path="url(#p98bc7c4d06)" style="fill: none; stroke-dasharray: 1.85,0.8; stroke-dashoffset: 0; stroke: #b2b2b2; stroke-width: 0.5"/>
     </g>
     <g id="line2d_82">
      <g>
       <use xlink:href="#m03f62f2839" x="947.52" y="576.72" style="stroke: #000000; stroke-width: 0.8"/>
      </g>
     </g>
     <g id="text_19">
      <!-- 250 ns -->
      <g transform="translate(923.85125 590.857813) scale(0.14 -0.14)">
       <use xlink:href="#DejaVuSans-32"/>
       <use xlink:href="#DejaVuSans-35" x="63.623047"/>
       <use xlink:href="#DejaVuSans-30" x="127.246094"/>
       <use xlink:href="#DejaVuSans-20" x="190.869141"/>
       <use xlink:href="#DejaVuSans-6e" x="222.65625"/>
       <use xlink:href="#DejaVuSans-73" x="286.035156"/>
      </g>
     </g>
    </g>
    <g id="text_20">
     <!-- Time -->
     <g transform="translate(527.192969 608.407187) scale(0.14 -0.14)">
      <defs>
       <path id="DejaVuSans-69" d="M 603 3500 
L 1178 3500 
L 1178 0 
L 603 0 
L 603 3500 
z
M 603 4863 
L 1178 4863 
L 1178 4134 
L 603 4134 
L 603 4863 
z
" transform="scale(0.015625)"/>
       <path id="DejaVuSans-6d" d="M 3328 2828 
Q 3544 3216 3844 3400 
Q 4144 3584 4550 3584 
Q 5097 3584 5394 3201 
Q 5691 2819 5691 2113 
L 5691 0 
L 5113 0 
L 5113 2094 
Q 5113 2597 4934 2840 
Q 4756 3084 4391 3084 
Q 3944 3084 3684 2787 
Q 3425 2491 3425 1978 
L 3425 0 
L 2847 0 
L 2847 2094 
Q 2847 2600 2669 2842 
Q 2491 3084 2119 3084 
Q 1678 3084 1418 2786 
Q 1159 2488 1159 1978 
L 1159 0 
L 581 0 
L 581 3500 
L 1159 3500 
L 1159 2956 
Q 1356 3278 1631 3431 
Q 1906 3584 2284 3584 
Q 2666 3584 2933 3390 
Q 3200 3197 3328 2828 
z
" transform="scale(0.015625)"/>
       <path id="DejaVuSans-65" d="M 3597 1894 
L 3597 1613 
L 953 1613 
Q 991 1019 1311 708 
Q 1631 397 2203 397 
Q 2534 397 2845 478 
Q 3156 559 3463 722 
L 3463 178 
Q 3153 47 2828 -22 
Q 2503 -91 2169 -91 
Q 1331 -91 842 396 
Q 353 884 353 1716 
Q 353 2575 817 3079 
Q 1281 3584 2069 3584 
Q 2775 3584 3186 3129 
Q 3597 2675 3597 1894 
z
M 3022 2063 
Q 3016 2534 2758 2815 
Q 2500 3097 2075 3097 
Q 1594 3097 1305 2825 
Q 1016 2553 972 2059 
L 3022 2063 
z
" transform="scale(0.015625)"/>
      </defs>
      <use xlink:href="#DejaVuSans-54"/>
      <use xlink:href="#DejaVuSans-69" x="57.958984"/>
      <use xlink:href="#DejaVuSans-6d" x="85.742188"/>
      <use xlink:href="#DejaVuSans-65" x="183.154297"/>
     </g>
    </g>
   </g>
   <g id="matplotlib.axis_10">
    <g id="ytick_10">
     <g id="line2d_83">
      <path d="M 100.8 569.745885 
L 987.84 569.745885 
" clip-path="url(#p98bc7c4d06)" style="fill: none; stroke-dasharray: 1.85,0.8; stroke-dashoffset: 0; stroke: #b2b2b2; stroke-width: 0.5"/>
     </g>
     <g id="line2d_84">
      <g>
       <use xlink:href="#m07e0b2baa5" x="100.8" y="569.745885" style="stroke: #000000; stroke-width: 0.8"/>
      </g>
     </g>
     <g id="text_21">
      <!-- 0 V -->
      <g transform="translate(74.36625 575.064792) scale(0.14 -0.14)">
       <use xlink:href="#DejaVuSans-30"/>
       <use xlink:href="#DejaVuSans-20" x="63.623047"/>
       <use xlink:href="#DejaVuSans-56" x="95.410156"/>
      </g>
     </g>
    </g>
    <g id="ytick_11">
     <g id="line2d_85">
      <path d="M 100.8 535.950348 
L 987.84 535.950348 
" clip-path="url(#p98bc7c4d06)" style="fill: none; stroke-dasharray: 1.85,0.8; stroke-dashoffset: 0; stroke: #b2b2b2; stroke-width: 0.5"/>
     </g>
     <g id="line2d_86">
      <g>
       <use xlink:href="#m07e0b2baa5" x="100.8" y="535.950348" style="stroke: #000000; stroke-width: 0.8"/>
      </g>
     </g>
     <g id="text_22">
      <!-- 500 mV -->
      <g transform="translate(42.914375 541.269254) scale(0.14 -0.14)">
       <use xlink:href="#DejaVuSans-35"/>
       <use xlink:href="#DejaVuSans-30" x="63.623047"/>
       <use xlink:href="#DejaVuSans-30" x="127.246094"/>
       <use xlink:href="#DejaVuSans-20" x="190.869141"/>
       <use xlink:href="#DejaVuSans-6d" x="222.65625"/>
       <use xlink:href="#DejaVuSans-56" x="320.068359"/>
      </g>
     </g>
    </g>
    <g id="ytick_12">
     <g id="line2d_87">
      <path d="M 100.8 502.15481 
L 987.84 502.15481 
" clip-path="url(#p98bc7c4d06)" style="fill: none; stroke-dasharray: 1.85,0.8; stroke-dashoffset: 0; stroke: #b2b2b2; stroke-width: 0.5"/>
     </g>
     <g id="line2d_88">
      <g>
       <use xlink:href="#m07e0b2baa5" x="100.8" y="502.15481" style="stroke: #000000; stroke-width: 0.8"/>
      </g>
     </g>
     <g id="text_23">
      <!-- 1 V -->
      <g transform="translate(74.36625 507.473717) scale(0.14 -0.14)">
       <use xlink:href="#DejaVuSans-31"/>
       <use xlink:href="#DejaVuSans-20" x="63.623047"/>
       <use xlink:href="#DejaVuSans-56" x="95.410156"/>
      </g>
     </g>
    </g>
    <g id="text_24">
     <g id="patch_27">
      <path d="M 34.8768 554.329483 
L 34.8768 506.379483 
L 11.247425 506.379483 
L 11.247425 554.329483 
z
" style="fill: #ffff00; opacity: 0.2; stroke: #eeeeee; stroke-width: 0.5; stroke-linejoin: miter"/>
     </g>
     <!-- FOUT -->
     <g transform="translate(26.925238 549.289483) rotate(-90) scale(0.14 -0.14)">
      <use xlink:href="#DejaVuSans-46"/>
      <use xlink:href="#DejaVuSans-4f" x="57.519531"/>
      <use xlink:href="#DejaVuSans-55" x="136.230469"/>
      <use xlink:href="#DejaVuSans-54" x="209.423828"/>
     </g>
    </g>
   </g>
   <g id="line2d_89">
    <path d="M 141.12 488.636595 
L 173.472768 488.643355 
L 173.505024 488.44734 
L 173.569536 526.789729 
L 173.69856 572.504953 
L 173.730816 572.3695 
L 173.827584 567.842115 
L 173.892096 569.3609 
L 174.053376 570.064192 
L 174.117888 569.946665 
L 174.408192 569.492054 
L 174.440448 569.54151 
L 174.66624 569.729954 
L 176.182272 569.740151 
L 180.117504 569.761449 
L 193.568256 569.752159 
L 212.954112 569.74401 
L 255.30624 569.743704 
L 255.6288 488.52845 
L 255.854592 488.670391 
L 256.209408 488.629836 
L 334.849536 488.650114 
L 334.881792 492.854278 
L 335.043072 572.18376 
L 335.107584 570.261206 
L 335.172096 568.338639 
L 335.236608 568.870108 
L 335.365632 570.783003 
L 335.430144 570.410083 
L 335.591424 569.797213 
L 335.881728 569.648439 
L 336.559104 569.817924 
L 337.107456 569.746143 
L 350.009856 569.744206 
L 416.489472 569.74333 
L 416.553984 567.480841 
L 416.812032 488.204013 
L 416.844288 488.339195 
L 416.973312 488.852887 
L 417.037824 488.778537 
L 417.39264 488.548727 
L 417.844224 488.717705 
L 418.457088 488.562245 
L 419.328 488.636595 
L 565.415424 488.575763 
L 565.44768 488.467618 
L 565.479936 488.514931 
L 565.512192 492.685301 
L 565.673472 570.247425 
L 565.737984 569.726271 
L 566.060544 569.744082 
L 603.445248 569.74419 
L 611.89632 569.828117 
L 611.960832 568.540061 
L 612.0576 528.420702 
L 612.21888 489.096215 
L 612.347904 488.643355 
L 614.186496 488.643355 
L 614.283264 506.611766 
L 614.444544 569.749031 
L 615.12192 569.744205 
L 657.925632 569.73319 
L 657.990144 567.79933 
L 658.215936 488.859646 
L 658.34496 488.623077 
L 658.377216 488.636595 
L 947.52 488.636595 
L 947.52 488.636595 
" clip-path="url(#p98bc7c4d06)" style="fill: none; stroke: #ff00ff; stroke-width: 2; stroke-linecap: square"/>
   </g>
   <g id="patch_28">
    <path d="M 100.8 576.72 
L 100.8 483.988966 
" style="fill: none; stroke: #bcbcbc; stroke-width: 0.8; stroke-linejoin: miter; stroke-linecap: square"/>
   </g>
   <g id="patch_29">
    <path d="M 987.84 576.72 
L 987.84 483.988966 
" style="fill: none; stroke: #bcbcbc; stroke-width: 0.8; stroke-linejoin: miter; stroke-linecap: square"/>
   </g>
   <g id="patch_30">
    <path d="M 100.8 576.72 
L 987.84 576.72 
" style="fill: none; stroke: #bcbcbc; stroke-width: 0.8; stroke-linejoin: miter; stroke-linecap: square"/>
   </g>
   <g id="patch_31">
    <path d="M 100.8 483.988966 
L 987.84 483.988966 
" style="fill: none; stroke: #bcbcbc; stroke-width: 0.8; stroke-linejoin: miter; stroke-linecap: square"/>
   </g>
  </g>
  <g id="axes_6">
   <g id="patch_32">
    <path d="M 201.6 628.56 
L 856.8 628.56 
L 856.8 615.6 
L 201.6 615.6 
z
" clip-path="url(#p929232fba7)" style="fill: #d3d3d3"/>
   </g>
   <g id="patch_33">
    <path d="M 201.6 628.56 
L 725.76 628.56 
L 725.76 615.6 
L 201.6 615.6 
z
" clip-path="url(#p929232fba7)" style="fill: #0000ff"/>
   </g>
   <g id="line2d_90">
    <path d="M 201.6 635.04 
L 201.6 609.12 
" clip-path="url(#pcd18a8a227)" style="fill: none; stroke: #ff0000; stroke-linecap: square"/>
   </g>
   <g id="line2d_91">
    <defs>
     <path id="m1cf7abe70e" d="M 0 5 
C 1.326016 5 2.597899 4.473168 3.535534 3.535534 
C 4.473168 2.597899 5 1.326016 5 0 
C 5 -1.326016 4.473168 -2.597899 3.535534 -3.535534 
C 2.597899 -4.473168 1.326016 -5 0 -5 
C -1.326016 -5 -2.597899 -4.473168 -3.535534 -3.535534 
C -4.473168 -2.597899 -5 -1.326016 -5 0 
C -5 1.326016 -4.473168 2.597899 -3.535534 3.535534 
C -2.597899 4.473168 -1.326016 5 0 5 
z
" style="stroke: #bfbfbf"/>
    </defs>
    <g>
     <use xlink:href="#m1cf7abe70e" x="725.76" y="622.08" style="fill: #ffffff; stroke: #bfbfbf"/>
    </g>
   </g>
   <g id="text_25">
    <!-- #Sweep -->
    <g transform="translate(138.622875 625.39125) scale(0.12 -0.12)">
     <defs>
      <path id="DejaVuSans-23" d="M 3272 2816 
L 2363 2816 
L 2100 1772 
L 3016 1772 
L 3272 2816 
z
M 2803 4594 
L 2478 3297 
L 3391 3297 
L 3719 4594 
L 4219 4594 
L 3897 3297 
L 4872 3297 
L 4872 2816 
L 3775 2816 
L 3519 1772 
L 4513 1772 
L 4513 1294 
L 3397 1294 
L 3072 0 
L 2572 0 
L 2894 1294 
L 1978 1294 
L 1656 0 
L 1153 0 
L 1478 1294 
L 494 1294 
L 494 1772 
L 1594 1772 
L 1856 2816 
L 850 2816 
L 850 3297 
L 1978 3297 
L 2297 4594 
L 2803 4594 
z
" transform="scale(0.015625)"/>
      <path id="DejaVuSans-77" d="M 269 3500 
L 844 3500 
L 1563 769 
L 2278 3500 
L 2956 3500 
L 3675 769 
L 4391 3500 
L 4966 3500 
L 4050 0 
L 3372 0 
L 2619 2869 
L 1863 0 
L 1184 0 
L 269 3500 
z
" transform="scale(0.015625)"/>
      <path id="DejaVuSans-70" d="M 1159 525 
L 1159 -1331 
L 581 -1331 
L 581 3500 
L 1159 3500 
L 1159 2969 
Q 1341 3281 1617 3432 
Q 1894 3584 2278 3584 
Q 2916 3584 3314 3078 
Q 3713 2572 3713 1747 
Q 3713 922 3314 415 
Q 2916 -91 2278 -91 
Q 1894 -91 1617 61 
Q 1341 213 1159 525 
z
M 3116 1747 
Q 3116 2381 2855 2742 
Q 2594 3103 2138 3103 
Q 1681 3103 1420 2742 
Q 1159 2381 1159 1747 
Q 1159 1113 1420 752 
Q 1681 391 2138 391 
Q 2594 391 2855 752 
Q 3116 1113 3116 1747 
z
" transform="scale(0.015625)"/>
     </defs>
     <use xlink:href="#DejaVuSans-23"/>
     <use xlink:href="#DejaVuSans-53" x="83.789062"/>
     <use xlink:href="#DejaVuSans-77" x="147.265625"/>
     <use xlink:href="#DejaVuSans-65" x="229.052734"/>
     <use xlink:href="#DejaVuSans-65" x="290.576172"/>
     <use xlink:href="#DejaVuSans-70" x="352.099609"/>
    </g>
   </g>
   <g id="text_26">
    <!-- $\mathdefault{112}$ -->
    <g transform="translate(869.904 625.39125) scale(0.12 -0.12)">
     <use xlink:href="#DejaVuSans-31" transform="translate(0 0.78125)"/>
     <use xlink:href="#DejaVuSans-31" transform="translate(63.623047 0.78125)"/>
     <use xlink:href="#DejaVuSans-32" transform="translate(127.246094 0.78125)"/>
    </g>
   </g>
  </g>
  <g id="text_27">
   <!-- DFF under BBI sweep analysis (Sweep = 122E-9) -->
   <g transform="translate(308.25625 25.1175) scale(0.16 -0.16)">
    <defs>
     <path id="DejaVuSans-75" d="M 544 1381 
L 544 3500 
L 1119 3500 
L 1119 1403 
Q 1119 906 1312 657 
Q 1506 409 1894 409 
Q 2359 409 2629 706 
Q 2900 1003 2900 1516 
L 2900 3500 
L 3475 3500 
L 3475 0 
L 2900 0 
L 2900 538 
Q 2691 219 2414 64 
Q 2138 -91 1772 -91 
Q 1169 -91 856 284 
Q 544 659 544 1381 
z
M 1991 3584 
L 1991 3584 
z
" transform="scale(0.015625)"/>
     <path id="DejaVuSans-64" d="M 2906 2969 
L 2906 4863 
L 3481 4863 
L 3481 0 
L 2906 0 
L 2906 525 
Q 2725 213 2448 61 
Q 2172 -91 1784 -91 
Q 1150 -91 751 415 
Q 353 922 353 1747 
Q 353 2572 751 3078 
Q 1150 3584 1784 3584 
Q 2172 3584 2448 3432 
Q 2725 3281 2906 2969 
z
M 947 1747 
Q 947 1113 1208 752 
Q 1469 391 1925 391 
Q 2381 391 2643 752 
Q 2906 1113 2906 1747 
Q 2906 2381 2643 2742 
Q 2381 3103 1925 3103 
Q 1469 3103 1208 2742 
Q 947 2381 947 1747 
z
" transform="scale(0.015625)"/>
     <path id="DejaVuSans-72" d="M 2631 2963 
Q 2534 3019 2420 3045 
Q 2306 3072 2169 3072 
Q 1681 3072 1420 2755 
Q 1159 2438 1159 1844 
L 1159 0 
L 581 0 
L 581 3500 
L 1159 3500 
L 1159 2956 
Q 1341 3275 1631 3429 
Q 1922 3584 2338 3584 
Q 2397 3584 2469 3576 
Q 2541 3569 2628 3553 
L 2631 2963 
z
" transform="scale(0.015625)"/>
     <path id="DejaVuSans-61" d="M 2194 1759 
Q 1497 1759 1228 1600 
Q 959 1441 959 1056 
Q 959 750 1161 570 
Q 1363 391 1709 391 
Q 2188 391 2477 730 
Q 2766 1069 2766 1631 
L 2766 1759 
L 2194 1759 
z
M 3341 1997 
L 3341 0 
L 2766 0 
L 2766 531 
Q 2569 213 2275 61 
Q 1981 -91 1556 -91 
Q 1019 -91 701 211 
Q 384 513 384 1019 
Q 384 1609 779 1909 
Q 1175 2209 1959 2209 
L 2766 2209 
L 2766 2266 
Q 2766 2663 2505 2880 
Q 2244 3097 1772 3097 
Q 1472 3097 1187 3025 
Q 903 2953 641 2809 
L 641 3341 
Q 956 3463 1253 3523 
Q 1550 3584 1831 3584 
Q 2591 3584 2966 3190 
Q 3341 2797 3341 1997 
z
" transform="scale(0.015625)"/>
     <path id="DejaVuSans-6c" d="M 603 4863 
L 1178 4863 
L 1178 0 
L 603 0 
L 603 4863 
z
" transform="scale(0.015625)"/>
     <path id="DejaVuSans-79" d="M 2059 -325 
Q 1816 -950 1584 -1140 
Q 1353 -1331 966 -1331 
L 506 -1331 
L 506 -850 
L 844 -850 
Q 1081 -850 1212 -737 
Q 1344 -625 1503 -206 
L 1606 56 
L 191 3500 
L 800 3500 
L 1894 763 
L 2988 3500 
L 3597 3500 
L 2059 -325 
z
" transform="scale(0.015625)"/>
     <path id="DejaVuSans-28" d="M 1984 4856 
Q 1566 4138 1362 3434 
Q 1159 2731 1159 2009 
Q 1159 1288 1364 580 
Q 1569 -128 1984 -844 
L 1484 -844 
Q 1016 -109 783 600 
Q 550 1309 550 2009 
Q 550 2706 781 3412 
Q 1013 4119 1484 4856 
L 1984 4856 
z
" transform="scale(0.015625)"/>
     <path id="DejaVuSans-3d" d="M 678 2906 
L 4684 2906 
L 4684 2381 
L 678 2381 
L 678 2906 
z
M 678 1631 
L 4684 1631 
L 4684 1100 
L 678 1100 
L 678 1631 
z
" transform="scale(0.015625)"/>
     <path id="DejaVuSans-2d" d="M 313 2009 
L 1997 2009 
L 1997 1497 
L 313 1497 
L 313 2009 
z
" transform="scale(0.015625)"/>
     <path id="DejaVuSans-39" d="M 703 97 
L 703 672 
Q 941 559 1184 500 
Q 1428 441 1663 441 
Q 2288 441 2617 861 
Q 2947 1281 2994 2138 
Q 2813 1869 2534 1725 
Q 2256 1581 1919 1581 
Q 1219 1581 811 2004 
Q 403 2428 403 3163 
Q 403 3881 828 4315 
Q 1253 4750 1959 4750 
Q 2769 4750 3195 4129 
Q 3622 3509 3622 2328 
Q 3622 1225 3098 567 
Q 2575 -91 1691 -91 
Q 1453 -91 1209 -44 
Q 966 3 703 97 
z
M 1959 2075 
Q 2384 2075 2632 2365 
Q 2881 2656 2881 3163 
Q 2881 3666 2632 3958 
Q 2384 4250 1959 4250 
Q 1534 4250 1286 3958 
Q 1038 3666 1038 3163 
Q 1038 2656 1286 2365 
Q 1534 2075 1959 2075 
z
" transform="scale(0.015625)"/>
     <path id="DejaVuSans-29" d="M 513 4856 
L 1013 4856 
Q 1481 4119 1714 3412 
Q 1947 2706 1947 2009 
Q 1947 1309 1714 600 
Q 1481 -109 1013 -844 
L 513 -844 
Q 928 -128 1133 580 
Q 1338 1288 1338 2009 
Q 1338 2731 1133 3434 
Q 928 4138 513 4856 
z
" transform="scale(0.015625)"/>
    </defs>
    <use xlink:href="#DejaVuSans-44"/>
    <use xlink:href="#DejaVuSans-46" x="77.001953"/>
    <use xlink:href="#DejaVuSans-46" x="134.521484"/>
    <use xlink:href="#DejaVuSans-20" x="192.041016"/>
    <use xlink:href="#DejaVuSans-75" x="223.828125"/>
    <use xlink:href="#DejaVuSans-6e" x="287.207031"/>
    <use xlink:href="#DejaVuSans-64" x="350.585938"/>
    <use xlink:href="#DejaVuSans-65" x="414.0625"/>
    <use xlink:href="#DejaVuSans-72" x="475.585938"/>
    <use xlink:href="#DejaVuSans-20" x="516.699219"/>
    <use xlink:href="#DejaVuSans-42" x="548.486328"/>
    <use xlink:href="#DejaVuSans-42" x="617.089844"/>
    <use xlink:href="#DejaVuSans-49" x="685.693359"/>
    <use xlink:href="#DejaVuSans-20" x="715.185547"/>
    <use xlink:href="#DejaVuSans-73" x="746.972656"/>
    <use xlink:href="#DejaVuSans-77" x="799.072266"/>
    <use xlink:href="#DejaVuSans-65" x="880.859375"/>
    <use xlink:href="#DejaVuSans-65" x="942.382812"/>
    <use xlink:href="#DejaVuSans-70" x="1003.90625"/>
    <use xlink:href="#DejaVuSans-20" x="1067.382812"/>
    <use xlink:href="#DejaVuSans-61" x="1099.169922"/>
    <use xlink:href="#DejaVuSans-6e" x="1160.449219"/>
    <use xlink:href="#DejaVuSans-61" x="1223.828125"/>
    <use xlink:href="#DejaVuSans-6c" x="1285.107422"/>
    <use xlink:href="#DejaVuSans-79" x="1312.890625"/>
    <use xlink:href="#DejaVuSans-73" x="1372.070312"/>
    <use xlink:href="#DejaVuSans-69" x="1424.169922"/>
    <use xlink:href="#DejaVuSans-73" x="1451.953125"/>
    <use xlink:href="#DejaVuSans-20" x="1504.052734"/>
    <use xlink:href="#DejaVuSans-28" x="1535.839844"/>
    <use xlink:href="#DejaVuSans-53" x="1574.853516"/>
    <use xlink:href="#DejaVuSans-77" x="1638.330078"/>
    <use xlink:href="#DejaVuSans-65" x="1720.117188"/>
    <use xlink:href="#DejaVuSans-65" x="1781.640625"/>
    <use xlink:href="#DejaVuSans-70" x="1843.164062"/>
    <use xlink:href="#DejaVuSans-20" x="1906.640625"/>
    <use xlink:href="#DejaVuSans-3d" x="1938.427734"/>
    <use xlink:href="#DejaVuSans-20" x="2022.216797"/>
    <use xlink:href="#DejaVuSans-31" x="2054.003906"/>
    <use xlink:href="#DejaVuSans-32" x="2117.626953"/>
    <use xlink:href="#DejaVuSans-32" x="2181.25"/>
    <use xlink:href="#DejaVuSans-45" x="2244.873047"/>
    <use xlink:href="#DejaVuSans-2d" x="2308.056641"/>
    <use xlink:href="#DejaVuSans-39" x="2344.140625"/>
    <use xlink:href="#DejaVuSans-29" x="2407.763672"/>
   </g>
  </g>
 </g>
 <defs>
  <clipPath id="pec28992e91">
   <rect x="100.8" y="38.88" width="887.04" height="92.731034"/>
  </clipPath>
  <clipPath id="pa3fad46044">
   <rect x="100.8" y="150.157241" width="887.04" height="92.731034"/>
  </clipPath>
  <clipPath id="p809c3e39ab">
   <rect x="100.8" y="261.434483" width="887.04" height="92.731034"/>
  </clipPath>
  <clipPath id="pc2fc9fb1dc">
   <rect x="100.8" y="372.711724" width="887.04" height="92.731034"/>
  </clipPath>
  <clipPath id="p98bc7c4d06">
   <rect x="100.8" y="483.988966" width="887.04" height="92.731034"/>
  </clipPath>
  <clipPath id="p929232fba7">
   <rect x="201.6" y="609.12" width="655.2" height="25.92"/>
  </clipPath>
  <clipPath id="pcd18a8a227">
   <path d="M 201.6 628.56 
L 856.8 628.56 
L 856.8 615.6 
L 201.6 615.6 
z
"/>
  </clipPath>
 </defs>
</svg>
