<?xml version="1.0" encoding="utf-8" standalone="no"?>
<!DOCTYPE svg PUBLIC "-//W3C//DTD SVG 1.1//EN"
  "http://www.w3.org/Graphics/SVG/1.1/DTD/svg11.dtd">
<svg xmlns:xlink="http://www.w3.org/1999/xlink" width="1008pt" height="648pt" viewBox="0 0 1008 648" xmlns="http://www.w3.org/2000/svg" version="1.1">
 <metadata>
  <rdf:RDF xmlns:dc="http://purl.org/dc/elements/1.1/" xmlns:cc="http://creativecommons.org/ns#" xmlns:rdf="http://www.w3.org/1999/02/22-rdf-syntax-ns#">
   <cc:Work>
    <dc:type rdf:resource="http://purl.org/dc/dcmitype/StillImage"/>
    <dc:date>2024-06-03T10:45:31.517601</dc:date>
    <dc:format>image/svg+xml</dc:format>
    <dc:creator>
     <cc:Agent>
      <dc:title>Matplotlib v3.9.0, https://matplotlib.org/</dc:title>
     </cc:Agent>
    </dc:creator>
   </cc:Work>
  </rdf:RDF>
 </metadata>
 <defs>
  <style type="text/css">*{stroke-linejoin: round; stroke-linecap: butt}</style>
 </defs>
 <g id="figure_1">
  <g id="patch_1">
   <path d="M 0 648 
L 1008 648 
L 1008 0 
L 0 0 
z
" style="fill: #ffffff"/>
  </g>
  <g id="axes_1">
   <g id="patch_2">
    <path d="M 100.8 131.611034 
L 987.84 131.611034 
L 987.84 38.88 
L 100.8 38.88 
z
" style="fill: #eeeeee"/>
   </g>
   <g id="matplotlib.axis_1">
    <g id="xtick_1">
     <g id="line2d_1">
      <path d="M 141.12 131.611034 
L 141.12 38.88 
" clip-path="url(#pa64410d14c)" style="fill: none; stroke-dasharray: 1.85,0.8; stroke-dashoffset: 0; stroke: #b2b2b2; stroke-width: 0.5"/>
     </g>
     <g id="line2d_2">
      <defs>
       <path id="meb16e1947c" d="M 0 0 
L 0 -3.5 
" style="stroke: #000000; stroke-width: 0.8"/>
      </defs>
      <g>
       <use xlink:href="#meb16e1947c" x="141.12" y="131.611034" style="stroke: #000000; stroke-width: 0.8"/>
      </g>
     </g>
    </g>
    <g id="xtick_2">
     <g id="line2d_3">
      <path d="M 302.4 131.611034 
L 302.4 38.88 
" clip-path="url(#pa64410d14c)" style="fill: none; stroke-dasharray: 1.85,0.8; stroke-dashoffset: 0; stroke: #b2b2b2; stroke-width: 0.5"/>
     </g>
     <g id="line2d_4">
      <g>
       <use xlink:href="#meb16e1947c" x="302.4" y="131.611034" style="stroke: #000000; stroke-width: 0.8"/>
      </g>
     </g>
    </g>
    <g id="xtick_3">
     <g id="line2d_5">
      <path d="M 463.68 131.611034 
L 463.68 38.88 
" clip-path="url(#pa64410d14c)" style="fill: none; stroke-dasharray: 1.85,0.8; stroke-dashoffset: 0; stroke: #b2b2b2; stroke-width: 0.5"/>
     </g>
     <g id="line2d_6">
      <g>
       <use xlink:href="#meb16e1947c" x="463.68" y="131.611034" style="stroke: #000000; stroke-width: 0.8"/>
      </g>
     </g>
    </g>
    <g id="xtick_4">
     <g id="line2d_7">
      <path d="M 624.96 131.611034 
L 624.96 38.88 
" clip-path="url(#pa64410d14c)" style="fill: none; stroke-dasharray: 1.85,0.8; stroke-dashoffset: 0; stroke: #b2b2b2; stroke-width: 0.5"/>
     </g>
     <g id="line2d_8">
      <g>
       <use xlink:href="#meb16e1947c" x="624.96" y="131.611034" style="stroke: #000000; stroke-width: 0.8"/>
      </g>
     </g>
    </g>
    <g id="xtick_5">
     <g id="line2d_9">
      <path d="M 786.24 131.611034 
L 786.24 38.88 
" clip-path="url(#pa64410d14c)" style="fill: none; stroke-dasharray: 1.85,0.8; stroke-dashoffset: 0; stroke: #b2b2b2; stroke-width: 0.5"/>
     </g>
     <g id="line2d_10">
      <g>
       <use xlink:href="#meb16e1947c" x="786.24" y="131.611034" style="stroke: #000000; stroke-width: 0.8"/>
      </g>
     </g>
    </g>
    <g id="xtick_6">
     <g id="line2d_11">
      <path d="M 947.52 131.611034 
L 947.52 38.88 
" clip-path="url(#pa64410d14c)" style="fill: none; stroke-dasharray: 1.85,0.8; stroke-dashoffset: 0; stroke: #b2b2b2; stroke-width: 0.5"/>
     </g>
     <g id="line2d_12">
      <g>
       <use xlink:href="#meb16e1947c" x="947.52" y="131.611034" style="stroke: #000000; stroke-width: 0.8"/>
      </g>
     </g>
    </g>
   </g>
   <g id="matplotlib.axis_2">
    <g id="ytick_1">
     <g id="line2d_13">
      <path d="M 100.8 98.340394 
L 987.84 98.340394 
" clip-path="url(#pa64410d14c)" style="fill: none; stroke-dasharray: 1.85,0.8; stroke-dashoffset: 0; stroke: #b2b2b2; stroke-width: 0.5"/>
     </g>
     <g id="line2d_14">
      <defs>
       <path id="me25bfe223a" d="M 0 0 
L 3.5 0 
" style="stroke: #000000; stroke-width: 0.8"/>
      </defs>
      <g>
       <use xlink:href="#me25bfe223a" x="100.8" y="98.340394" style="stroke: #000000; stroke-width: 0.8"/>
      </g>
     </g>
     <g id="text_1">
      <!-- −200 V -->
      <g transform="translate(44.819688 103.6593) scale(0.14 -0.14)">
       <defs>
        <path id="DejaVuSans-2212" d="M 678 2272 
L 4684 2272 
L 4684 1741 
L 678 1741 
L 678 2272 
z
" transform="scale(0.015625)"/>
        <path id="DejaVuSans-32" d="M 1228 531 
L 3431 531 
L 3431 0 
L 469 0 
L 469 531 
Q 828 903 1448 1529 
Q 2069 2156 2228 2338 
Q 2531 2678 2651 2914 
Q 2772 3150 2772 3378 
Q 2772 3750 2511 3984 
Q 2250 4219 1831 4219 
Q 1534 4219 1204 4116 
Q 875 4013 500 3803 
L 500 4441 
Q 881 4594 1212 4672 
Q 1544 4750 1819 4750 
Q 2544 4750 2975 4387 
Q 3406 4025 3406 3419 
Q 3406 3131 3298 2873 
Q 3191 2616 2906 2266 
Q 2828 2175 2409 1742 
Q 1991 1309 1228 531 
z
" transform="scale(0.015625)"/>
        <path id="DejaVuSans-30" d="M 2034 4250 
Q 1547 4250 1301 3770 
Q 1056 3291 1056 2328 
Q 1056 1369 1301 889 
Q 1547 409 2034 409 
Q 2525 409 2770 889 
Q 3016 1369 3016 2328 
Q 3016 3291 2770 3770 
Q 2525 4250 2034 4250 
z
M 2034 4750 
Q 2819 4750 3233 4129 
Q 3647 3509 3647 2328 
Q 3647 1150 3233 529 
Q 2819 -91 2034 -91 
Q 1250 -91 836 529 
Q 422 1150 422 2328 
Q 422 3509 836 4129 
Q 1250 4750 2034 4750 
z
" transform="scale(0.015625)"/>
        <path id="DejaVuSans-20" transform="scale(0.015625)"/>
        <path id="DejaVuSans-56" d="M 1831 0 
L 50 4666 
L 709 4666 
L 2188 738 
L 3669 4666 
L 4325 4666 
L 2547 0 
L 1831 0 
z
" transform="scale(0.015625)"/>
       </defs>
       <use xlink:href="#DejaVuSans-2212"/>
       <use xlink:href="#DejaVuSans-32" x="83.789062"/>
       <use xlink:href="#DejaVuSans-30" x="147.412109"/>
       <use xlink:href="#DejaVuSans-30" x="211.035156"/>
       <use xlink:href="#DejaVuSans-20" x="274.658203"/>
       <use xlink:href="#DejaVuSans-56" x="306.445312"/>
      </g>
     </g>
    </g>
    <g id="ytick_2">
     <g id="line2d_15">
      <path d="M 100.8 45.027377 
L 987.84 45.027377 
" clip-path="url(#pa64410d14c)" style="fill: none; stroke-dasharray: 1.85,0.8; stroke-dashoffset: 0; stroke: #b2b2b2; stroke-width: 0.5"/>
     </g>
     <g id="line2d_16">
      <g>
       <use xlink:href="#me25bfe223a" x="100.8" y="45.027377" style="stroke: #000000; stroke-width: 0.8"/>
      </g>
     </g>
     <g id="text_2">
      <!-- 0 V -->
      <g transform="translate(74.36625 50.346284) scale(0.14 -0.14)">
       <use xlink:href="#DejaVuSans-30"/>
       <use xlink:href="#DejaVuSans-20" x="63.623047"/>
       <use xlink:href="#DejaVuSans-56" x="95.410156"/>
      </g>
     </g>
    </g>
    <g id="text_3">
     <g id="patch_3">
      <path d="M 34.8768 131.080205 
L 34.8768 39.41083 
L 11.247425 39.41083 
L 11.247425 131.080205 
z
" style="fill: #ffff00; opacity: 0.2; stroke: #eeeeee; stroke-width: 0.5; stroke-linejoin: miter"/>
     </g>
     <!-- VPULSE BBI -->
     <g transform="translate(26.925238 126.040205) rotate(-90) scale(0.14 -0.14)">
      <defs>
       <path id="DejaVuSans-50" d="M 1259 4147 
L 1259 2394 
L 2053 2394 
Q 2494 2394 2734 2622 
Q 2975 2850 2975 3272 
Q 2975 3691 2734 3919 
Q 2494 4147 2053 4147 
L 1259 4147 
z
M 628 4666 
L 2053 4666 
Q 2838 4666 3239 4311 
Q 3641 3956 3641 3272 
Q 3641 2581 3239 2228 
Q 2838 1875 2053 1875 
L 1259 1875 
L 1259 0 
L 628 0 
L 628 4666 
z
" transform="scale(0.015625)"/>
       <path id="DejaVuSans-55" d="M 556 4666 
L 1191 4666 
L 1191 1831 
Q 1191 1081 1462 751 
Q 1734 422 2344 422 
Q 2950 422 3222 751 
Q 3494 1081 3494 1831 
L 3494 4666 
L 4128 4666 
L 4128 1753 
Q 4128 841 3676 375 
Q 3225 -91 2344 -91 
Q 1459 -91 1007 375 
Q 556 841 556 1753 
L 556 4666 
z
" transform="scale(0.015625)"/>
       <path id="DejaVuSans-4c" d="M 628 4666 
L 1259 4666 
L 1259 531 
L 3531 531 
L 3531 0 
L 628 0 
L 628 4666 
z
" transform="scale(0.015625)"/>
       <path id="DejaVuSans-53" d="M 3425 4513 
L 3425 3897 
Q 3066 4069 2747 4153 
Q 2428 4238 2131 4238 
Q 1616 4238 1336 4038 
Q 1056 3838 1056 3469 
Q 1056 3159 1242 3001 
Q 1428 2844 1947 2747 
L 2328 2669 
Q 3034 2534 3370 2195 
Q 3706 1856 3706 1288 
Q 3706 609 3251 259 
Q 2797 -91 1919 -91 
Q 1588 -91 1214 -16 
Q 841 59 441 206 
L 441 856 
Q 825 641 1194 531 
Q 1563 422 1919 422 
Q 2459 422 2753 634 
Q 3047 847 3047 1241 
Q 3047 1584 2836 1778 
Q 2625 1972 2144 2069 
L 1759 2144 
Q 1053 2284 737 2584 
Q 422 2884 422 3419 
Q 422 4038 858 4394 
Q 1294 4750 2059 4750 
Q 2388 4750 2728 4690 
Q 3069 4631 3425 4513 
z
" transform="scale(0.015625)"/>
       <path id="DejaVuSans-45" d="M 628 4666 
L 3578 4666 
L 3578 4134 
L 1259 4134 
L 1259 2753 
L 3481 2753 
L 3481 2222 
L 1259 2222 
L 1259 531 
L 3634 531 
L 3634 0 
L 628 0 
L 628 4666 
z
" transform="scale(0.015625)"/>
       <path id="DejaVuSans-42" d="M 1259 2228 
L 1259 519 
L 2272 519 
Q 2781 519 3026 730 
Q 3272 941 3272 1375 
Q 3272 1813 3026 2020 
Q 2781 2228 2272 2228 
L 1259 2228 
z
M 1259 4147 
L 1259 2741 
L 2194 2741 
Q 2656 2741 2882 2914 
Q 3109 3088 3109 3444 
Q 3109 3797 2882 3972 
Q 2656 4147 2194 4147 
L 1259 4147 
z
M 628 4666 
L 2241 4666 
Q 2963 4666 3353 4366 
Q 3744 4066 3744 3513 
Q 3744 3084 3544 2831 
Q 3344 2578 2956 2516 
Q 3422 2416 3680 2098 
Q 3938 1781 3938 1306 
Q 3938 681 3513 340 
Q 3088 0 2303 0 
L 628 0 
L 628 4666 
z
" transform="scale(0.015625)"/>
       <path id="DejaVuSans-49" d="M 628 4666 
L 1259 4666 
L 1259 0 
L 628 0 
L 628 4666 
z
" transform="scale(0.015625)"/>
      </defs>
      <use xlink:href="#DejaVuSans-56"/>
      <use xlink:href="#DejaVuSans-50" x="68.408203"/>
      <use xlink:href="#DejaVuSans-55" x="128.710938"/>
      <use xlink:href="#DejaVuSans-4c" x="201.904297"/>
      <use xlink:href="#DejaVuSans-53" x="257.617188"/>
      <use xlink:href="#DejaVuSans-45" x="321.09375"/>
      <use xlink:href="#DejaVuSans-20" x="384.277344"/>
      <use xlink:href="#DejaVuSans-42" x="416.064453"/>
      <use xlink:href="#DejaVuSans-42" x="484.667969"/>
      <use xlink:href="#DejaVuSans-49" x="553.271484"/>
     </g>
    </g>
   </g>
   <g id="line2d_17">
    <path d="M 141.12 45.027377 
L 231.469056 45.136282 
L 231.952896 46.425538 
L 240.178176 69.006772 
L 247.597056 89.863624 
L 249.209856 94.440546 
L 251.016192 99.673219 
L 254.467584 110.703682 
L 257.40288 119.593628 
L 258.112512 119.940162 
L 259.273728 120.483955 
L 259.757568 120.713201 
L 260.725248 121.150368 
L 261.305856 121.40627 
L 262.176768 121.790124 
L 262.757376 122.046026 
L 263.596032 122.403223 
L 265.079808 123.016323 
L 265.821696 123.309545 
L 267.176448 123.858669 
L 269.692416 124.802309 
L 270.78912 125.228813 
L 271.43424 125.495378 
L 272.530944 125.921883 
L 273.3696 126.241761 
L 274.369536 126.614952 
L 275.369472 126.969483 
L 275.95008 127.182735 
L 277.24032 127.395987 
L 295.884288 127.289361 
L 296.11008 126.801547 
L 314.399232 75.087922 
L 318.140928 63.292417 
L 321.850368 51.617666 
L 326.462976 49.3412 
L 331.817472 46.984578 
L 340.526592 43.484472 
L 341.397504 43.268927 
L 355.686912 43.108189 
L 362.492928 43.184799 
L 377.846784 43.746186 
L 405.6192 44.46146 
L 431.26272 44.774399 
L 466.873344 44.945888 
L 514.902528 44.953885 
L 947.52 44.953885 
L 947.52 44.953885 
" clip-path="url(#pa64410d14c)" style="fill: none; stroke: #ff0000; stroke-width: 2; stroke-linecap: square"/>
   </g>
   <g id="patch_4">
    <path d="M 100.8 131.611034 
L 100.8 38.88 
" style="fill: none; stroke: #bcbcbc; stroke-width: 0.8; stroke-linejoin: miter; stroke-linecap: square"/>
   </g>
   <g id="patch_5">
    <path d="M 987.84 131.611034 
L 987.84 38.88 
" style="fill: none; stroke: #bcbcbc; stroke-width: 0.8; stroke-linejoin: miter; stroke-linecap: square"/>
   </g>
   <g id="patch_6">
    <path d="M 100.8 131.611034 
L 987.84 131.611034 
" style="fill: none; stroke: #bcbcbc; stroke-width: 0.8; stroke-linejoin: miter; stroke-linecap: square"/>
   </g>
   <g id="patch_7">
    <path d="M 100.8 38.88 
L 987.84 38.88 
" style="fill: none; stroke: #bcbcbc; stroke-width: 0.8; stroke-linejoin: miter; stroke-linecap: square"/>
   </g>
  </g>
  <g id="axes_2">
   <g id="patch_8">
    <path d="M 100.8 242.888276 
L 987.84 242.888276 
L 987.84 150.157241 
L 100.8 150.157241 
z
" style="fill: #eeeeee"/>
   </g>
   <g id="matplotlib.axis_3">
    <g id="xtick_7">
     <g id="line2d_18">
      <path d="M 141.12 242.888276 
L 141.12 150.157241 
" clip-path="url(#pbd6ad906af)" style="fill: none; stroke-dasharray: 1.85,0.8; stroke-dashoffset: 0; stroke: #b2b2b2; stroke-width: 0.5"/>
     </g>
     <g id="line2d_19">
      <g>
       <use xlink:href="#meb16e1947c" x="141.12" y="242.888276" style="stroke: #000000; stroke-width: 0.8"/>
      </g>
     </g>
    </g>
    <g id="xtick_8">
     <g id="line2d_20">
      <path d="M 302.4 242.888276 
L 302.4 150.157241 
" clip-path="url(#pbd6ad906af)" style="fill: none; stroke-dasharray: 1.85,0.8; stroke-dashoffset: 0; stroke: #b2b2b2; stroke-width: 0.5"/>
     </g>
     <g id="line2d_21">
      <g>
       <use xlink:href="#meb16e1947c" x="302.4" y="242.888276" style="stroke: #000000; stroke-width: 0.8"/>
      </g>
     </g>
    </g>
    <g id="xtick_9">
     <g id="line2d_22">
      <path d="M 463.68 242.888276 
L 463.68 150.157241 
" clip-path="url(#pbd6ad906af)" style="fill: none; stroke-dasharray: 1.85,0.8; stroke-dashoffset: 0; stroke: #b2b2b2; stroke-width: 0.5"/>
     </g>
     <g id="line2d_23">
      <g>
       <use xlink:href="#meb16e1947c" x="463.68" y="242.888276" style="stroke: #000000; stroke-width: 0.8"/>
      </g>
     </g>
    </g>
    <g id="xtick_10">
     <g id="line2d_24">
      <path d="M 624.96 242.888276 
L 624.96 150.157241 
" clip-path="url(#pbd6ad906af)" style="fill: none; stroke-dasharray: 1.85,0.8; stroke-dashoffset: 0; stroke: #b2b2b2; stroke-width: 0.5"/>
     </g>
     <g id="line2d_25">
      <g>
       <use xlink:href="#meb16e1947c" x="624.96" y="242.888276" style="stroke: #000000; stroke-width: 0.8"/>
      </g>
     </g>
    </g>
    <g id="xtick_11">
     <g id="line2d_26">
      <path d="M 786.24 242.888276 
L 786.24 150.157241 
" clip-path="url(#pbd6ad906af)" style="fill: none; stroke-dasharray: 1.85,0.8; stroke-dashoffset: 0; stroke: #b2b2b2; stroke-width: 0.5"/>
     </g>
     <g id="line2d_27">
      <g>
       <use xlink:href="#meb16e1947c" x="786.24" y="242.888276" style="stroke: #000000; stroke-width: 0.8"/>
      </g>
     </g>
    </g>
    <g id="xtick_12">
     <g id="line2d_28">
      <path d="M 947.52 242.888276 
L 947.52 150.157241 
" clip-path="url(#pbd6ad906af)" style="fill: none; stroke-dasharray: 1.85,0.8; stroke-dashoffset: 0; stroke: #b2b2b2; stroke-width: 0.5"/>
     </g>
     <g id="line2d_29">
      <g>
       <use xlink:href="#meb16e1947c" x="947.52" y="242.888276" style="stroke: #000000; stroke-width: 0.8"/>
      </g>
     </g>
    </g>
   </g>
   <g id="matplotlib.axis_4">
    <g id="ytick_3">
     <g id="line2d_30">
      <path d="M 100.8 215.82933 
L 987.84 215.82933 
" clip-path="url(#pbd6ad906af)" style="fill: none; stroke-dasharray: 1.85,0.8; stroke-dashoffset: 0; stroke: #b2b2b2; stroke-width: 0.5"/>
     </g>
     <g id="line2d_31">
      <g>
       <use xlink:href="#me25bfe223a" x="100.8" y="215.82933" style="stroke: #000000; stroke-width: 0.8"/>
      </g>
     </g>
     <g id="text_4">
      <!-- 0 V -->
      <g transform="translate(74.36625 221.148236) scale(0.14 -0.14)">
       <use xlink:href="#DejaVuSans-30"/>
       <use xlink:href="#DejaVuSans-20" x="63.623047"/>
       <use xlink:href="#DejaVuSans-56" x="95.410156"/>
      </g>
     </g>
    </g>
    <g id="ytick_4">
     <g id="line2d_32">
      <path d="M 100.8 176.29949 
L 987.84 176.29949 
" clip-path="url(#pbd6ad906af)" style="fill: none; stroke-dasharray: 1.85,0.8; stroke-dashoffset: 0; stroke: #b2b2b2; stroke-width: 0.5"/>
     </g>
     <g id="line2d_33">
      <g>
       <use xlink:href="#me25bfe223a" x="100.8" y="176.29949" style="stroke: #000000; stroke-width: 0.8"/>
      </g>
     </g>
     <g id="text_5">
      <!-- 1 V -->
      <g transform="translate(74.36625 181.618397) scale(0.14 -0.14)">
       <defs>
        <path id="DejaVuSans-31" d="M 794 531 
L 1825 531 
L 1825 4091 
L 703 3866 
L 703 4441 
L 1819 4666 
L 2450 4666 
L 2450 531 
L 3481 531 
L 3481 0 
L 794 0 
L 794 531 
z
" transform="scale(0.015625)"/>
       </defs>
       <use xlink:href="#DejaVuSans-31"/>
       <use xlink:href="#DejaVuSans-20" x="63.623047"/>
       <use xlink:href="#DejaVuSans-56" x="95.410156"/>
      </g>
     </g>
    </g>
    <g id="text_6">
     <g id="patch_9">
      <path d="M 34.8768 224.531509 
L 34.8768 168.514009 
L 11.247425 168.514009 
L 11.247425 224.531509 
z
" style="fill: #ffff00; opacity: 0.2; stroke: #eeeeee; stroke-width: 0.5; stroke-linejoin: miter"/>
     </g>
     <!-- DFF IN -->
     <g transform="translate(26.925238 219.491509) rotate(-90) scale(0.14 -0.14)">
      <defs>
       <path id="DejaVuSans-44" d="M 1259 4147 
L 1259 519 
L 2022 519 
Q 2988 519 3436 956 
Q 3884 1394 3884 2338 
Q 3884 3275 3436 3711 
Q 2988 4147 2022 4147 
L 1259 4147 
z
M 628 4666 
L 1925 4666 
Q 3281 4666 3915 4102 
Q 4550 3538 4550 2338 
Q 4550 1131 3912 565 
Q 3275 0 1925 0 
L 628 0 
L 628 4666 
z
" transform="scale(0.015625)"/>
       <path id="DejaVuSans-46" d="M 628 4666 
L 3309 4666 
L 3309 4134 
L 1259 4134 
L 1259 2759 
L 3109 2759 
L 3109 2228 
L 1259 2228 
L 1259 0 
L 628 0 
L 628 4666 
z
" transform="scale(0.015625)"/>
       <path id="DejaVuSans-4e" d="M 628 4666 
L 1478 4666 
L 3547 763 
L 3547 4666 
L 4159 4666 
L 4159 0 
L 3309 0 
L 1241 3903 
L 1241 0 
L 628 0 
L 628 4666 
z
" transform="scale(0.015625)"/>
      </defs>
      <use xlink:href="#DejaVuSans-44"/>
      <use xlink:href="#DejaVuSans-46" x="77.001953"/>
      <use xlink:href="#DejaVuSans-46" x="134.521484"/>
      <use xlink:href="#DejaVuSans-20" x="192.041016"/>
      <use xlink:href="#DejaVuSans-49" x="223.828125"/>
      <use xlink:href="#DejaVuSans-4e" x="253.320312"/>
     </g>
    </g>
   </g>
   <g id="line2d_34">
    <path d="M 141.12 215.771601 
L 221.953536 215.71754 
L 224.566272 192.515026 
L 225.985536 182.32028 
L 226.953216 176.674629 
L 227.630592 173.959324 
L 228.243456 172.346506 
L 228.888576 171.247577 
L 229.533696 170.551852 
L 230.275584 170.057729 
L 231.243264 169.70196 
L 231.501312 169.733584 
L 231.92064 170.595335 
L 233.21088 173.184539 
L 234.307584 174.848745 
L 239.791104 183.109691 
L 240.662016 184.667957 
L 241.210368 186.229781 
L 242.307072 190.722743 
L 242.758656 192.783038 
L 242.88768 193.318272 
L 244.597248 202.067016 
L 245.435904 206.272201 
L 246.210048 209.71604 
L 246.984192 212.581637 
L 247.177728 213.518653 
L 247.661568 215.568927 
L 248.596992 219.283368 
L 249.01632 220.65118 
L 249.564672 222.090856 
L 250.016256 223.3147 
L 250.30656 223.743204 
L 250.532352 224.041259 
L 250.822656 224.774142 
L 251.854848 227.124982 
L 252.016128 227.587481 
L 252.72576 229.426409 
L 253.112832 230.009079 
L 253.435392 230.77912 
L 253.790208 231.812035 
L 254.112768 232.328294 
L 254.49984 232.993186 
L 254.628864 233.407854 
L 254.951424 234.163665 
L 255.499776 235.142028 
L 255.661056 235.453919 
L 255.95136 236.113276 
L 256.080384 236.437816 
L 256.822272 237.926115 
L 257.112576 238.253817 
L 257.467392 238.664137 
L 257.628672 238.375174 
L 259.467264 235.123449 
L 259.918848 234.656207 
L 260.241408 234.007127 
L 260.563968 233.420504 
L 260.918784 233.096754 
L 261.015552 232.953656 
L 261.338112 232.636232 
L 262.015488 232.114043 
L 262.918656 230.725755 
L 263.305728 230.269185 
L 263.467008 230.290136 
L 263.725056 229.9905 
L 263.886336 229.920927 
L 264.273408 229.685329 
L 265.853952 227.660216 
L 266.144256 227.413549 
L 266.27328 227.429757 
L 267.369984 226.587376 
L 268.20864 225.604269 
L 268.595712 224.826717 
L 269.01504 224.561076 
L 269.17632 224.542892 
L 269.595648 224.372519 
L 271.401984 222.704755 
L 272.208384 221.85012 
L 272.466432 221.743389 
L 273.85344 220.610859 
L 277.498368 216.891062 
L 279.8208 213.112997 
L 280.401408 212.127637 
L 283.497984 207.479442 
L 284.788224 205.803377 
L 285.723648 204.825408 
L 286.175232 204.584672 
L 286.530048 204.427343 
L 287.207424 204.347097 
L 288.433152 204.706424 
L 289.529856 205.615215 
L 290.594304 206.950928 
L 291.27168 207.960125 
L 293.20704 210.862406 
L 294.432768 212.302478 
L 295.561728 213.197196 
L 295.981056 213.390299 
L 296.948736 212.35695 
L 297.787392 211.995963 
L 299.109888 211.603985 
L 300.174336 211.506347 
L 301.5936 211.550225 
L 302.012928 211.614658 
L 303.399936 211.824957 
L 303.819264 211.882434 
L 304.593408 211.991615 
L 305.30304 212.104552 
L 305.94816 212.163174 
L 306.75456 212.287891 
L 307.173888 212.32165 
L 308.109312 212.423755 
L 309.625344 212.570371 
L 313.915392 212.768969 
L 314.65728 212.774662 
L 315.173376 212.775017 
L 317.270016 212.46119 
L 317.592576 212.416324 
L 318.624768 212.309316 
L 319.044096 212.267849 
L 319.882752 212.163767 
L 320.366592 212.113367 
L 321.043968 212.004344 
L 321.624576 211.923466 
L 321.785856 211.937775 
L 322.463232 212.616147 
L 323.3664 213.408443 
L 325.334016 214.300276 
L 326.817792 214.584417 
L 333.430272 215.14665 
L 342.816768 215.75184 
L 343.236096 215.811316 
L 344.365056 215.900318 
L 344.784384 215.937748 
L 345.881088 215.974582 
L 346.332672 216.016452 
L 347.39712 216.042344 
L 347.687424 216.035174 
L 347.71968 215.95245 
L 349.429248 191.199077 
L 350.525952 178.483909 
L 351.622656 168.255168 
L 352.687104 160.068538 
L 353.235456 157.427945 
L 353.719296 156.012777 
L 354.267648 155.071967 
L 354.686976 154.676668 
L 355.29984 154.423677 
L 356.235264 154.415771 
L 358.654464 155.119402 
L 365.94432 157.692795 
L 366.26688 157.795573 
L 368.299008 158.42805 
L 370.427904 159.056574 
L 370.976256 159.202835 
L 372.137472 159.515121 
L 375.072768 160.321529 
L 376.201728 163.812014 
L 376.556544 164.701435 
L 376.91136 164.903038 
L 377.298432 164.792354 
L 377.71776 164.420774 
L 378.588672 163.519493 
L 379.49184 162.887016 
L 380.749824 162.531247 
L 384.459264 162.641931 
L 385.104384 162.697273 
L 385.491456 162.713085 
L 386.168832 162.776332 
L 386.717184 162.815862 
L 387.55584 162.910734 
L 388.329984 163.017464 
L 389.32992 163.151866 
L 395.039232 163.962227 
L 396.039168 164.096629 
L 396.877824 164.207312 
L 406.683648 165.298336 
L 407.780352 165.405067 
L 408.19968 165.452502 
L 409.425408 165.559233 
L 409.780224 165.578998 
L 412.55424 165.808271 
L 413.747712 165.918955 
L 415.360512 166.04545 
L 416.295936 165.053251 
L 417.07008 164.974191 
L 418.5216 165.440643 
L 420.424704 166.029638 
L 427.101696 166.737222 
L 427.682304 166.772799 
L 429.262848 166.859765 
L 429.907968 166.891389 
L 431.26272 166.94673 
L 433.585152 167.053461 
L 434.101248 167.069273 
L 435.61728 167.14438 
L 436.294656 167.17205 
L 439.520256 167.278781 
L 440.004096 167.29064 
L 440.681472 167.310405 
L 441.229824 167.334123 
L 444.455424 167.4369 
L 444.777984 167.440853 
L 445.971456 167.47643 
L 450.261504 167.587114 
L 450.7776 167.602926 
L 455.712768 167.713609 
L 456.454656 168.626749 
L 457.325568 168.935081 
L 458.19648 168.935081 
L 461.615616 168.207732 
L 463.51872 168.08519 
L 496.000512 168.002177 
L 497.097216 166.934871 
L 498.322944 166.895342 
L 502.032384 167.693844 
L 504 167.824293 
L 512.064 167.934976 
L 512.999424 167.938929 
L 536.385024 168.00613 
L 537.0624 168.816492 
L 537.772032 169.128777 
L 539.15904 169.188072 
L 540.029952 169.081342 
L 542.352384 168.622796 
L 547.86816 168.057519 
L 576.672768 167.970553 
L 577.285632 167.191815 
L 577.70496 166.978354 
L 578.253312 166.832094 
L 579.027456 166.942777 
L 582.253056 167.622691 
L 585.252864 167.879635 
L 616.992768 167.9666 
L 617.928192 168.939034 
L 618.799104 169.144589 
L 620.089344 169.195978 
L 622.476288 168.72162 
L 629.024256 168.029848 
L 657.312768 167.9666 
L 657.828864 167.278781 
L 658.377216 166.934871 
L 659.667456 166.87953 
L 663.538176 167.717562 
L 665.570304 167.855917 
L 697.632768 167.9666 
L 698.568192 168.939034 
L 699.439104 169.144589 
L 700.729344 169.195978 
L 703.084032 168.729526 
L 709.696512 168.029848 
L 737.952768 167.9666 
L 738.468864 167.278781 
L 739.017216 166.934871 
L 740.307456 166.87953 
L 744.178176 167.717562 
L 746.210304 167.855917 
L 778.272768 167.9666 
L 779.208192 168.939034 
L 780.079104 169.148542 
L 782.175744 169.037859 
L 784.336896 168.618843 
L 789.852672 168.053566 
L 818.592768 167.9666 
L 819.108864 167.278781 
L 819.657216 166.934871 
L 820.947456 166.87953 
L 824.818176 167.717562 
L 826.850304 167.855917 
L 858.912768 167.9666 
L 859.848192 168.939034 
L 860.719104 169.148542 
L 862.815744 169.037859 
L 865.009152 168.610937 
L 870.42816 168.057519 
L 899.232768 167.9666 
L 899.748864 167.278781 
L 900.297216 166.934871 
L 901.587456 166.87953 
L 905.458176 167.717562 
L 907.490304 167.855917 
L 939.552768 167.9666 
L 940.58496 168.958799 
L 941.294592 169.195978 
L 943.358976 169.085295 
L 946.003968 168.547689 
L 947.52 168.27098 
L 947.52 168.27098 
" clip-path="url(#pbd6ad906af)" style="fill: none; stroke: #008000; stroke-width: 2; stroke-linecap: square"/>
   </g>
   <g id="patch_10">
    <path d="M 100.8 242.888276 
L 100.8 150.157241 
" style="fill: none; stroke: #bcbcbc; stroke-width: 0.8; stroke-linejoin: miter; stroke-linecap: square"/>
   </g>
   <g id="patch_11">
    <path d="M 987.84 242.888276 
L 987.84 150.157241 
" style="fill: none; stroke: #bcbcbc; stroke-width: 0.8; stroke-linejoin: miter; stroke-linecap: square"/>
   </g>
   <g id="patch_12">
    <path d="M 100.8 242.888276 
L 987.84 242.888276 
" style="fill: none; stroke: #bcbcbc; stroke-width: 0.8; stroke-linejoin: miter; stroke-linecap: square"/>
   </g>
   <g id="patch_13">
    <path d="M 100.8 150.157241 
L 987.84 150.157241 
" style="fill: none; stroke: #bcbcbc; stroke-width: 0.8; stroke-linejoin: miter; stroke-linecap: square"/>
   </g>
  </g>
  <g id="axes_3">
   <g id="patch_14">
    <path d="M 100.8 354.165517 
L 987.84 354.165517 
L 987.84 261.434483 
L 100.8 261.434483 
z
" style="fill: #eeeeee"/>
   </g>
   <g id="matplotlib.axis_5">
    <g id="xtick_13">
     <g id="line2d_35">
      <path d="M 141.12 354.165517 
L 141.12 261.434483 
" clip-path="url(#p99eb50ad0a)" style="fill: none; stroke-dasharray: 1.85,0.8; stroke-dashoffset: 0; stroke: #b2b2b2; stroke-width: 0.5"/>
     </g>
     <g id="line2d_36">
      <g>
       <use xlink:href="#meb16e1947c" x="141.12" y="354.165517" style="stroke: #000000; stroke-width: 0.8"/>
      </g>
     </g>
    </g>
    <g id="xtick_14">
     <g id="line2d_37">
      <path d="M 302.4 354.165517 
L 302.4 261.434483 
" clip-path="url(#p99eb50ad0a)" style="fill: none; stroke-dasharray: 1.85,0.8; stroke-dashoffset: 0; stroke: #b2b2b2; stroke-width: 0.5"/>
     </g>
     <g id="line2d_38">
      <g>
       <use xlink:href="#meb16e1947c" x="302.4" y="354.165517" style="stroke: #000000; stroke-width: 0.8"/>
      </g>
     </g>
    </g>
    <g id="xtick_15">
     <g id="line2d_39">
      <path d="M 463.68 354.165517 
L 463.68 261.434483 
" clip-path="url(#p99eb50ad0a)" style="fill: none; stroke-dasharray: 1.85,0.8; stroke-dashoffset: 0; stroke: #b2b2b2; stroke-width: 0.5"/>
     </g>
     <g id="line2d_40">
      <g>
       <use xlink:href="#meb16e1947c" x="463.68" y="354.165517" style="stroke: #000000; stroke-width: 0.8"/>
      </g>
     </g>
    </g>
    <g id="xtick_16">
     <g id="line2d_41">
      <path d="M 624.96 354.165517 
L 624.96 261.434483 
" clip-path="url(#p99eb50ad0a)" style="fill: none; stroke-dasharray: 1.85,0.8; stroke-dashoffset: 0; stroke: #b2b2b2; stroke-width: 0.5"/>
     </g>
     <g id="line2d_42">
      <g>
       <use xlink:href="#meb16e1947c" x="624.96" y="354.165517" style="stroke: #000000; stroke-width: 0.8"/>
      </g>
     </g>
    </g>
    <g id="xtick_17">
     <g id="line2d_43">
      <path d="M 786.24 354.165517 
L 786.24 261.434483 
" clip-path="url(#p99eb50ad0a)" style="fill: none; stroke-dasharray: 1.85,0.8; stroke-dashoffset: 0; stroke: #b2b2b2; stroke-width: 0.5"/>
     </g>
     <g id="line2d_44">
      <g>
       <use xlink:href="#meb16e1947c" x="786.24" y="354.165517" style="stroke: #000000; stroke-width: 0.8"/>
      </g>
     </g>
    </g>
    <g id="xtick_18">
     <g id="line2d_45">
      <path d="M 947.52 354.165517 
L 947.52 261.434483 
" clip-path="url(#p99eb50ad0a)" style="fill: none; stroke-dasharray: 1.85,0.8; stroke-dashoffset: 0; stroke: #b2b2b2; stroke-width: 0.5"/>
     </g>
     <g id="line2d_46">
      <g>
       <use xlink:href="#meb16e1947c" x="947.52" y="354.165517" style="stroke: #000000; stroke-width: 0.8"/>
      </g>
     </g>
    </g>
   </g>
   <g id="matplotlib.axis_6">
    <g id="ytick_5">
     <g id="line2d_47">
      <path d="M 100.8 345.002298 
L 987.84 345.002298 
" clip-path="url(#p99eb50ad0a)" style="fill: none; stroke-dasharray: 1.85,0.8; stroke-dashoffset: 0; stroke: #b2b2b2; stroke-width: 0.5"/>
     </g>
     <g id="line2d_48">
      <g>
       <use xlink:href="#me25bfe223a" x="100.8" y="345.002298" style="stroke: #000000; stroke-width: 0.8"/>
      </g>
     </g>
     <g id="text_7">
      <!-- 0 V -->
      <g transform="translate(74.36625 350.321205) scale(0.14 -0.14)">
       <use xlink:href="#DejaVuSans-30"/>
       <use xlink:href="#DejaVuSans-20" x="63.623047"/>
       <use xlink:href="#DejaVuSans-56" x="95.410156"/>
      </g>
     </g>
    </g>
    <g id="ytick_6">
     <g id="line2d_49">
      <path d="M 100.8 301.248015 
L 987.84 301.248015 
" clip-path="url(#p99eb50ad0a)" style="fill: none; stroke-dasharray: 1.85,0.8; stroke-dashoffset: 0; stroke: #b2b2b2; stroke-width: 0.5"/>
     </g>
     <g id="line2d_50">
      <g>
       <use xlink:href="#me25bfe223a" x="100.8" y="301.248015" style="stroke: #000000; stroke-width: 0.8"/>
      </g>
     </g>
     <g id="text_8">
      <!-- 1 V -->
      <g transform="translate(74.36625 306.566921) scale(0.14 -0.14)">
       <use xlink:href="#DejaVuSans-31"/>
       <use xlink:href="#DejaVuSans-20" x="63.623047"/>
       <use xlink:href="#DejaVuSans-56" x="95.410156"/>
      </g>
     </g>
    </g>
    <g id="text_9">
     <g id="patch_15">
      <path d="M 34.8768 342.395313 
L 34.8768 273.204688 
L 11.247425 273.204688 
L 11.247425 342.395313 
z
" style="fill: #ffff00; opacity: 0.2; stroke: #eeeeee; stroke-width: 0.5; stroke-linejoin: miter"/>
     </g>
     <!-- CLK BUF -->
     <g transform="translate(26.925238 337.355313) rotate(-90) scale(0.14 -0.14)">
      <defs>
       <path id="DejaVuSans-43" d="M 4122 4306 
L 4122 3641 
Q 3803 3938 3442 4084 
Q 3081 4231 2675 4231 
Q 1875 4231 1450 3742 
Q 1025 3253 1025 2328 
Q 1025 1406 1450 917 
Q 1875 428 2675 428 
Q 3081 428 3442 575 
Q 3803 722 4122 1019 
L 4122 359 
Q 3791 134 3420 21 
Q 3050 -91 2638 -91 
Q 1578 -91 968 557 
Q 359 1206 359 2328 
Q 359 3453 968 4101 
Q 1578 4750 2638 4750 
Q 3056 4750 3426 4639 
Q 3797 4528 4122 4306 
z
" transform="scale(0.015625)"/>
       <path id="DejaVuSans-4b" d="M 628 4666 
L 1259 4666 
L 1259 2694 
L 3353 4666 
L 4166 4666 
L 1850 2491 
L 4331 0 
L 3500 0 
L 1259 2247 
L 1259 0 
L 628 0 
L 628 4666 
z
" transform="scale(0.015625)"/>
      </defs>
      <use xlink:href="#DejaVuSans-43"/>
      <use xlink:href="#DejaVuSans-4c" x="69.824219"/>
      <use xlink:href="#DejaVuSans-4b" x="125.537109"/>
      <use xlink:href="#DejaVuSans-20" x="191.113281"/>
      <use xlink:href="#DejaVuSans-42" x="222.900391"/>
      <use xlink:href="#DejaVuSans-55" x="291.503906"/>
      <use xlink:href="#DejaVuSans-46" x="364.697266"/>
     </g>
    </g>
   </g>
   <g id="line2d_51">
    <path d="M 141.12 345.001142 
L 173.376 345.001142 
L 173.601792 292.497158 
L 213.696 292.497158 
L 213.728256 296.509426 
L 213.85728 344.889894 
L 213.954048 345.080045 
L 214.01856 345.023045 
L 214.212096 344.977514 
L 214.470144 345.03187 
L 214.82496 345.001067 
L 231.4368 345.03194 
L 231.694848 345.310862 
L 232.372224 345.873271 
L 233.178624 346.235207 
L 234.275328 346.458178 
L 235.984896 346.544243 
L 240.049152 346.455991 
L 242.88768 346.362225 
L 249.403392 346.227462 
L 249.854976 346.31147 
L 251.080704 346.776885 
L 254.016 348.55589 
L 254.048256 349.95047 
L 254.241792 325.655467 
L 254.274048 325.498389 
L 254.33856 325.598586 
L 255.14496 326.193207 
L 257.273856 327.575842 
L 258.015744 327.197368 
L 258.177024 327.098921 
L 259.886592 326.383538 
L 262.112256 325.544331 
L 264.918528 324.518293 
L 265.370112 324.341526 
L 265.499136 324.286395 
L 265.724928 324.233015 
L 265.853952 324.182698 
L 267.434496 323.618267 
L 276.466176 320.443894 
L 276.820992 320.274565 
L 277.756416 319.73595 
L 280.30464 318.123167 
L 287.142912 313.71011 
L 292.23936 310.864331 
L 294.336 309.807665 
L 294.368256 309.131662 
L 294.561792 344.61905 
L 294.594048 344.701011 
L 294.626304 344.498336 
L 294.65856 344.571975 
L 295.110144 344.581168 
L 296.013312 344.49558 
L 296.658432 343.858386 
L 297.432576 343.441452 
L 298.432512 343.187721 
L 299.916288 343.07851 
L 302.56128 343.128609 
L 316.141056 343.554207 
L 318.36672 343.548562 
L 321.785856 343.71566 
L 322.463232 344.408159 
L 323.20512 344.842004 
L 324.140544 345.133544 
L 325.495296 345.314511 
L 327.946752 345.395444 
L 334.656 345.383232 
L 334.688256 335.502368 
L 334.81728 265.64953 
L 334.946304 265.75454 
L 341.849088 268.672951 
L 342.429696 269.005483 
L 344.687616 270.34874 
L 345.106944 270.598139 
L 354.525696 275.586128 
L 357.202944 276.793746 
L 358.073856 277.148155 
L 358.718976 277.436934 
L 367.428096 280.862894 
L 367.686144 280.963529 
L 369.427968 281.562963 
L 369.718272 281.663598 
L 370.814976 282.000506 
L 371.073024 282.10114 
L 372.07296 282.394294 
L 372.331008 282.490553 
L 372.782592 282.613065 
L 374.976 283.251878 
L 375.008256 293.766032 
L 375.072768 345.435649 
L 375.13728 345.216672 
L 375.685632 345.240742 
L 380.29824 345.212301 
L 415.296 345.072865 
L 415.425024 289.740638 
L 415.521792 289.920031 
L 416.037888 289.95941 
L 417.844224 290.095048 
L 419.198976 290.204434 
L 419.457024 290.221935 
L 421.005312 290.32257 
L 421.360128 290.353198 
L 422.940672 290.453833 
L 423.295488 290.484461 
L 425.069568 290.585096 
L 425.424384 290.615724 
L 427.295232 290.716359 
L 427.650048 290.746987 
L 429.714432 290.847622 
L 430.069248 290.87825 
L 432.327168 290.978884 
L 432.681984 291.009512 
L 435.230208 291.110147 
L 435.585024 291.140775 
L 438.326784 291.24141 
L 438.6816 291.272038 
L 441.810432 291.372673 
L 442.165248 291.403301 
L 445.77792 291.503936 
L 446.132736 291.534564 
L 450.229248 291.635199 
L 450.584064 291.665827 
L 455.45472 291.766462 
L 455.616 291.79709 
L 455.648256 296.780702 
L 455.712768 347.107098 
L 455.77728 344.916667 
L 455.809536 345.083896 
L 455.906304 345.021311 
L 457.06752 345.020122 
L 495.936 345.013672 
L 496.09728 291.972107 
L 496.161792 292.077117 
L 497.097216 292.059615 
L 536.256 292.059615 
L 536.385024 345.336393 
L 536.546304 345.081979 
L 536.804352 344.984446 
L 537.159168 345.032044 
L 537.481728 345.013442 
L 574.80192 345.01367 
L 576.576 345.013672 
L 576.705024 291.880223 
L 576.769536 292.063991 
L 576.89856 292.059615 
L 616.896 292.059615 
L 617.025024 345.336402 
L 617.186304 345.081979 
L 617.444352 344.984447 
L 617.799168 345.032044 
L 618.121728 345.013442 
L 655.6032 345.01367 
L 657.216 345.013672 
L 657.37728 291.832093 
L 657.441792 292.326516 
L 657.53856 291.875847 
L 657.603072 292.042114 
L 658.086912 292.059615 
L 697.536 292.059615 
L 697.665024 345.336577 
L 697.826304 345.081935 
L 698.084352 344.984455 
L 698.439168 345.032057 
L 698.761728 345.013443 
L 736.08192 345.01367 
L 737.856 345.013672 
L 738.01728 291.832093 
L 738.081792 292.326516 
L 738.17856 291.875847 
L 738.243072 292.042114 
L 738.726912 292.059615 
L 778.176 292.059615 
L 778.305024 345.336402 
L 778.466304 345.081979 
L 778.724352 344.984446 
L 779.079168 345.032044 
L 779.401728 345.013442 
L 816.8832 345.01367 
L 818.496 345.013672 
L 818.65728 291.832093 
L 818.721792 292.326516 
L 818.81856 291.875847 
L 818.883072 292.042114 
L 819.366912 292.059615 
L 858.816 292.059615 
L 858.945024 345.336498 
L 859.106304 345.08197 
L 859.364352 344.984441 
L 859.719168 345.032065 
L 860.041728 345.013443 
L 897.168384 345.01367 
L 899.136 345.013672 
L 899.29728 291.832093 
L 899.361792 292.326516 
L 899.45856 291.875847 
L 899.523072 292.042114 
L 900.006912 292.059615 
L 939.456 292.059615 
L 939.488256 299.948513 
L 939.61728 344.961635 
L 939.649536 345.088857 
L 939.714048 344.967138 
L 939.746304 344.928747 
L 939.810816 344.985216 
L 940.004352 345.039854 
L 940.230144 345.012283 
L 945.552384 345.013677 
L 947.52 345.013661 
L 947.52 345.013661 
" clip-path="url(#p99eb50ad0a)" style="fill: none; stroke: #0000ff; stroke-width: 2; stroke-linecap: square"/>
   </g>
   <g id="patch_16">
    <path d="M 100.8 354.165517 
L 100.8 261.434483 
" style="fill: none; stroke: #bcbcbc; stroke-width: 0.8; stroke-linejoin: miter; stroke-linecap: square"/>
   </g>
   <g id="patch_17">
    <path d="M 987.84 354.165517 
L 987.84 261.434483 
" style="fill: none; stroke: #bcbcbc; stroke-width: 0.8; stroke-linejoin: miter; stroke-linecap: square"/>
   </g>
   <g id="patch_18">
    <path d="M 100.8 354.165517 
L 987.84 354.165517 
" style="fill: none; stroke: #bcbcbc; stroke-width: 0.8; stroke-linejoin: miter; stroke-linecap: square"/>
   </g>
   <g id="patch_19">
    <path d="M 100.8 261.434483 
L 987.84 261.434483 
" style="fill: none; stroke: #bcbcbc; stroke-width: 0.8; stroke-linejoin: miter; stroke-linecap: square"/>
   </g>
  </g>
  <g id="axes_4">
   <g id="patch_20">
    <path d="M 100.8 465.442759 
L 987.84 465.442759 
L 987.84 372.711724 
L 100.8 372.711724 
z
" style="fill: #eeeeee"/>
   </g>
   <g id="matplotlib.axis_7">
    <g id="xtick_19">
     <g id="line2d_52">
      <path d="M 141.12 465.442759 
L 141.12 372.711724 
" clip-path="url(#p14594622a3)" style="fill: none; stroke-dasharray: 1.85,0.8; stroke-dashoffset: 0; stroke: #b2b2b2; stroke-width: 0.5"/>
     </g>
     <g id="line2d_53">
      <g>
       <use xlink:href="#meb16e1947c" x="141.12" y="465.442759" style="stroke: #000000; stroke-width: 0.8"/>
      </g>
     </g>
    </g>
    <g id="xtick_20">
     <g id="line2d_54">
      <path d="M 302.4 465.442759 
L 302.4 372.711724 
" clip-path="url(#p14594622a3)" style="fill: none; stroke-dasharray: 1.85,0.8; stroke-dashoffset: 0; stroke: #b2b2b2; stroke-width: 0.5"/>
     </g>
     <g id="line2d_55">
      <g>
       <use xlink:href="#meb16e1947c" x="302.4" y="465.442759" style="stroke: #000000; stroke-width: 0.8"/>
      </g>
     </g>
    </g>
    <g id="xtick_21">
     <g id="line2d_56">
      <path d="M 463.68 465.442759 
L 463.68 372.711724 
" clip-path="url(#p14594622a3)" style="fill: none; stroke-dasharray: 1.85,0.8; stroke-dashoffset: 0; stroke: #b2b2b2; stroke-width: 0.5"/>
     </g>
     <g id="line2d_57">
      <g>
       <use xlink:href="#meb16e1947c" x="463.68" y="465.442759" style="stroke: #000000; stroke-width: 0.8"/>
      </g>
     </g>
    </g>
    <g id="xtick_22">
     <g id="line2d_58">
      <path d="M 624.96 465.442759 
L 624.96 372.711724 
" clip-path="url(#p14594622a3)" style="fill: none; stroke-dasharray: 1.85,0.8; stroke-dashoffset: 0; stroke: #b2b2b2; stroke-width: 0.5"/>
     </g>
     <g id="line2d_59">
      <g>
       <use xlink:href="#meb16e1947c" x="624.96" y="465.442759" style="stroke: #000000; stroke-width: 0.8"/>
      </g>
     </g>
    </g>
    <g id="xtick_23">
     <g id="line2d_60">
      <path d="M 786.24 465.442759 
L 786.24 372.711724 
" clip-path="url(#p14594622a3)" style="fill: none; stroke-dasharray: 1.85,0.8; stroke-dashoffset: 0; stroke: #b2b2b2; stroke-width: 0.5"/>
     </g>
     <g id="line2d_61">
      <g>
       <use xlink:href="#meb16e1947c" x="786.24" y="465.442759" style="stroke: #000000; stroke-width: 0.8"/>
      </g>
     </g>
    </g>
    <g id="xtick_24">
     <g id="line2d_62">
      <path d="M 947.52 465.442759 
L 947.52 372.711724 
" clip-path="url(#p14594622a3)" style="fill: none; stroke-dasharray: 1.85,0.8; stroke-dashoffset: 0; stroke: #b2b2b2; stroke-width: 0.5"/>
     </g>
     <g id="line2d_63">
      <g>
       <use xlink:href="#meb16e1947c" x="947.52" y="465.442759" style="stroke: #000000; stroke-width: 0.8"/>
      </g>
     </g>
    </g>
   </g>
   <g id="matplotlib.axis_8">
    <g id="ytick_7">
     <g id="line2d_64">
      <path d="M 100.8 434.844786 
L 987.84 434.844786 
" clip-path="url(#p14594622a3)" style="fill: none; stroke-dasharray: 1.85,0.8; stroke-dashoffset: 0; stroke: #b2b2b2; stroke-width: 0.5"/>
     </g>
     <g id="line2d_65">
      <g>
       <use xlink:href="#me25bfe223a" x="100.8" y="434.844786" style="stroke: #000000; stroke-width: 0.8"/>
      </g>
     </g>
     <g id="text_10">
      <!-- 0 V -->
      <g transform="translate(74.36625 440.163692) scale(0.14 -0.14)">
       <use xlink:href="#DejaVuSans-30"/>
       <use xlink:href="#DejaVuSans-20" x="63.623047"/>
       <use xlink:href="#DejaVuSans-56" x="95.410156"/>
      </g>
     </g>
    </g>
    <g id="ytick_8">
     <g id="line2d_66">
      <path d="M 100.8 388.728045 
L 987.84 388.728045 
" clip-path="url(#p14594622a3)" style="fill: none; stroke-dasharray: 1.85,0.8; stroke-dashoffset: 0; stroke: #b2b2b2; stroke-width: 0.5"/>
     </g>
     <g id="line2d_67">
      <g>
       <use xlink:href="#me25bfe223a" x="100.8" y="388.728045" style="stroke: #000000; stroke-width: 0.8"/>
      </g>
     </g>
     <g id="text_11">
      <!-- 1 V -->
      <g transform="translate(74.36625 394.046951) scale(0.14 -0.14)">
       <use xlink:href="#DejaVuSans-31"/>
       <use xlink:href="#DejaVuSans-20" x="63.623047"/>
       <use xlink:href="#DejaVuSans-56" x="95.410156"/>
      </g>
     </g>
    </g>
    <g id="text_12">
     <g id="patch_21">
      <path d="M 34.8768 454.693023 
L 34.8768 383.46146 
L 11.247425 383.46146 
L 11.247425 454.693023 
z
" style="fill: #ffff00; opacity: 0.2; stroke: #eeeeee; stroke-width: 0.5; stroke-linejoin: miter"/>
     </g>
     <!-- DFF OUT -->
     <g transform="translate(26.925238 449.653023) rotate(-90) scale(0.14 -0.14)">
      <defs>
       <path id="DejaVuSans-4f" d="M 2522 4238 
Q 1834 4238 1429 3725 
Q 1025 3213 1025 2328 
Q 1025 1447 1429 934 
Q 1834 422 2522 422 
Q 3209 422 3611 934 
Q 4013 1447 4013 2328 
Q 4013 3213 3611 3725 
Q 3209 4238 2522 4238 
z
M 2522 4750 
Q 3503 4750 4090 4092 
Q 4678 3434 4678 2328 
Q 4678 1225 4090 567 
Q 3503 -91 2522 -91 
Q 1538 -91 948 565 
Q 359 1222 359 2328 
Q 359 3434 948 4092 
Q 1538 4750 2522 4750 
z
" transform="scale(0.015625)"/>
       <path id="DejaVuSans-54" d="M -19 4666 
L 3928 4666 
L 3928 4134 
L 2272 4134 
L 2272 0 
L 1638 0 
L 1638 4134 
L -19 4134 
L -19 4666 
z
" transform="scale(0.015625)"/>
      </defs>
      <use xlink:href="#DejaVuSans-44"/>
      <use xlink:href="#DejaVuSans-46" x="77.001953"/>
      <use xlink:href="#DejaVuSans-46" x="134.521484"/>
      <use xlink:href="#DejaVuSans-20" x="192.041016"/>
      <use xlink:href="#DejaVuSans-4f" x="223.828125"/>
      <use xlink:href="#DejaVuSans-55" x="302.539062"/>
      <use xlink:href="#DejaVuSans-54" x="375.732422"/>
     </g>
    </g>
   </g>
   <g id="line2d_68">
    <path d="M 141.12 400.048321 
L 173.408256 400.104584 
L 173.440512 402.013817 
L 173.601792 434.8476 
L 174.053376 434.841426 
L 182.956032 434.843545 
L 231.501312 434.92911 
L 232.178688 435.626003 
L 232.952832 436.061253 
L 233.952768 436.331451 
L 235.404288 436.458641 
L 238.242816 436.429726 
L 241.468416 436.224368 
L 242.339328 435.979442 
L 242.823168 435.576566 
L 243.113472 435.0661 
L 243.37152 434.110376 
L 243.5328 432.870113 
L 243.758592 428.87774 
L 244.17792 419.571382 
L 244.210176 419.584295 
L 244.403712 419.715266 
L 244.435968 419.430726 
L 244.50048 419.7208 
L 244.532736 419.741553 
L 244.82304 421.187313 
L 248.919552 439.864593 
L 248.984064 439.923622 
L 249.01632 440.345129 
L 249.113088 440.172653 
L 249.33888 440.862098 
L 249.50016 441.816714 
L 249.532416 441.519261 
L 249.596928 441.721714 
L 249.758208 442.590092 
L 249.887232 442.912909 
L 250.338816 444.005876 
L 250.371072 443.829249 
L 250.403328 443.791433 
L 250.435584 443.863836 
L 250.661376 444.711001 
L 250.693632 444.431534 
L 250.725888 444.766802 
L 250.822656 445.201222 
L 250.854912 444.902385 
L 250.919424 445.15695 
L 250.983936 445.28331 
L 251.338752 446.695866 
L 251.693568 447.636647 
L 251.725824 447.608516 
L 251.75808 447.516282 
L 251.822592 447.654171 
L 251.91936 447.9341 
L 252.08064 448.706094 
L 252.822528 450.619017 
L 252.854784 450.563677 
L 252.919296 450.89295 
L 252.983808 450.845911 
L 253.338624 451.736425 
L 253.499904 452.455846 
L 253.53216 452.272763 
L 253.564416 452.402351 
L 253.790208 453.166505 
L 254.403072 454.431488 
L 254.564352 454.793965 
L 254.725632 455.467731 
L 257.306112 461.227712 
L 257.338368 461.21111 
L 257.88672 460.161954 
L 259.789824 456.285842 
L 259.82208 456.331497 
L 260.015616 455.873097 
L 260.531712 455.067899 
L 260.78976 454.686513 
L 260.822016 454.88666 
L 260.854272 454.588284 
L 261.241344 454.151559 
L 261.789696 453.446434 
L 261.950976 453.135607 
L 261.983232 453.293788 
L 262.047744 453.210316 
L 262.176768 453.032767 
L 262.305792 452.623711 
L 262.338048 452.825703 
L 262.370304 452.501963 
L 262.434816 452.430021 
L 262.467072 452.504269 
L 262.499328 452.632474 
L 262.531584 452.403734 
L 262.56384 452.464147 
L 262.72512 452.020966 
L 262.757376 452.147787 
L 262.789632 451.928732 
L 263.079936 451.599459 
L 263.305728 451.33936 
L 263.337984 451.571788 
L 263.37024 451.318608 
L 263.402496 451.347661 
L 264.273408 450.404113 
L 264.724992 449.875154 
L 264.886272 449.322675 
L 264.950784 449.194471 
L 264.98304 449.551414 
L 265.047552 449.118839 
L 265.079808 449.4352 
L 265.208832 448.879493 
L 265.241088 448.861508 
L 265.273344 449.201849 
L 265.3056 448.765585 
L 265.337856 449.116533 
L 265.402368 448.611555 
L 265.499136 448.635074 
L 265.563648 448.719468 
L 265.660416 448.384199 
L 265.692672 448.684881 
L 265.757184 448.273058 
L 266.112 447.954853 
L 266.144256 448.166067 
L 266.208768 448.011115 
L 267.208704 446.682953 
L 267.466752 446.220402 
L 267.499008 446.542297 
L 267.56352 446.082052 
L 267.628032 446.019794 
L 267.660288 446.373509 
L 267.692544 445.91557 
L 267.7248 445.952002 
L 267.821568 445.775837 
L 267.853824 446.149382 
L 267.918336 445.732487 
L 267.950592 445.926177 
L 268.015104 445.676686 
L 268.079616 445.879599 
L 268.176384 445.357097 
L 270.014976 443.721336 
L 270.111744 443.525801 
L 270.273024 443.002376 
L 270.337536 442.953031 
L 270.402048 443.167013 
L 270.531072 442.657884 
L 270.563328 442.707229 
L 270.692352 442.448053 
L 270.756864 442.372421 
L 270.78912 442.821137 
L 270.853632 442.253901 
L 270.885888 442.714146 
L 271.047168 442.056983 
L 271.079424 442.301401 
L 271.143936 442.270964 
L 271.208448 442.062517 
L 271.240704 442.33645 
L 271.305216 441.966594 
L 271.337472 442.019167 
L 271.369728 441.997492 
L 271.401984 441.877127 
L 271.43424 442.144604 
L 271.692288 441.474528 
L 271.724544 441.494358 
L 271.789056 441.436712 
L 271.853568 441.730476 
L 271.982592 441.375377 
L 272.337408 441.262391 
L 273.563136 439.777893 
L 273.627648 439.410066 
L 273.659904 439.780199 
L 273.69216 439.776049 
L 274.079232 438.760281 
L 274.240512 438.58988 
L 274.272768 439.037397 
L 274.33728 438.524532 
L 274.369536 438.544778 
L 274.401792 438.418049 
L 274.434048 438.765262 
L 274.49856 438.354408 
L 274.530816 438.674227 
L 274.563072 438.652276 
L 274.65984 438.433683 
L 274.692096 438.588496 
L 274.724352 438.400663 
L 274.756608 438.458908 
L 274.82112 438.173815 
L 274.853376 438.531404 
L 274.885632 438.275364 
L 274.917888 438.122487 
L 274.950144 438.42861 
L 275.014656 438.154307 
L 275.272704 438.075402 
L 275.595264 437.722839 
L 276.240384 437.004156 
L 276.337152 436.887942 
L 276.5952 436.321582 
L 276.627456 435.920274 
L 276.691968 436.326378 
L 276.788736 435.769611 
L 276.820992 436.161418 
L 276.853248 436.162525 
L 277.014528 435.091921 
L 277.07904 435.615396 
L 277.111296 434.992424 
L 277.143552 435.393206 
L 277.304832 434.809097 
L 277.208064 435.469068 
L 277.337088 434.856696 
L 277.369344 435.198842 
L 277.4016 434.81433 
L 277.433856 434.856918 
L 277.530624 434.882394 
L 277.56288 434.820516 
L 278.659584 432.576903 
L 278.85312 431.854991 
L 278.885376 431.998506 
L 278.949888 431.78826 
L 278.982144 431.874821 
L 279.046656 431.74966 
L 279.788544 430.144106 
L 279.885312 429.878474 
L 280.014336 428.820556 
L 280.046592 428.77075 
L 280.078848 429.522914 
L 280.175616 429.270194 
L 280.207872 428.655458 
L 280.30464 428.714026 
L 280.369152 428.780895 
L 280.401408 428.739851 
L 281.530368 426.378674 
L 281.562624 425.56702 
L 281.659392 425.687384 
L 281.691648 425.94656 
L 281.75616 425.707215 
L 281.820672 425.636195 
L 282.369024 424.558447 
L 282.40128 424.563981 
L 282.56256 424.023031 
L 283.20768 422.962346 
L 283.272192 422.842904 
L 283.594752 421.879986 
L 283.627008 422.099963 
L 283.659264 421.790981 
L 283.820544 421.379158 
L 283.981824 421.060031 
L 284.01408 421.311828 
L 284.046336 420.968258 
L 284.110848 420.835442 
L 284.143104 421.105686 
L 284.207616 421.006074 
L 284.272128 420.807311 
L 284.401152 420.50663 
L 284.594688 420.342454 
L 285.207552 418.871791 
L 285.368832 418.061981 
L 285.401088 418.40924 
L 285.433344 418.267201 
L 285.4656 417.895039 
L 285.530112 418.133462 
L 285.594624 417.972054 
L 285.78816 417.087996 
L 285.820416 417.137802 
L 285.852672 417.028966 
L 286.175232 416.155515 
L 287.110656 413.413414 
L 287.271936 412.545497 
L 287.368704 412.912125 
L 287.336448 412.465715 
L 287.40096 412.888605 
L 287.56224 412.682464 
L 288.175104 411.259762 
L 288.820224 410.056115 
L 288.884736 409.330238 
L 288.916992 409.37451 
L 288.949248 409.680725 
L 289.046016 409.630919 
L 289.207296 409.351451 
L 290.239488 407.463432 
L 290.271744 407.522923 
L 290.529792 407.894162 
L 290.62656 408.687831 
L 290.723328 412.825887 
L 291.078144 434.109961 
L 291.884544 434.203578 
L 294.594048 434.31864 
L 294.81984 434.265144 
L 296.11008 434.00108 
L 296.690688 433.498361 
L 297.497088 433.135238 
L 298.561536 432.90673 
L 300.045312 432.813159 
L 303.2064 432.897137 
L 315.979776 433.334508 
L 318.011904 433.312418 
L 321.785856 433.503111 
L 322.495488 434.260117 
L 323.269632 434.720427 
L 324.237312 435.019102 
L 325.656576 435.199995 
L 328.36608 435.274621 
L 334.720512 435.359679 
L 334.752768 435.173699 
L 334.849536 435.249663 
L 341.26848 435.230663 
L 342.849024 435.358849 
L 345.977856 435.37356 
L 357.364224 435.240347 
L 389.136384 435.015298 
L 397.522944 434.976186 
L 415.328256 434.919559 
L 415.360512 435.227112 
L 415.392768 434.603756 
L 415.554048 429.836969 
L 416.070144 426.893798 
L 416.231424 423.523587 
L 416.42496 412.43989 
L 416.9088 376.926771 
L 418.586112 377.028228 
L 418.940928 377.065121 
L 420.327936 377.166578 
L 420.682752 377.203472 
L 422.263296 377.304928 
L 422.618112 377.341822 
L 423.101952 377.383327 
L 424.230912 377.434055 
L 425.746944 377.535512 
L 426.10176 377.567794 
L 427.23072 377.618522 
L 428.84352 377.719979 
L 429.198336 377.756872 
L 429.746688 377.779931 
L 429.97248 377.802989 
L 430.585344 377.812213 
L 430.94016 377.849106 
L 431.488512 377.872164 
L 431.714304 377.895223 
L 432.327168 377.904446 
L 432.681984 377.936728 
L 433.810944 377.987456 
L 436.197888 378.088913 
L 436.552704 378.125806 
L 437.262336 378.13503 
L 437.617152 378.167311 
L 440.649216 378.27338 
L 441.004032 378.305662 
L 442.100736 378.351778 
L 445.77792 378.457847 
L 446.132736 378.49474 
L 446.90688 378.490129 
L 448.003584 378.536245 
L 451.874304 378.642314 
L 452.22912 378.674596 
L 455.712768 378.706877 
L 455.745024 378.826781 
L 455.841792 378.771441 
L 456.648192 378.766829 
L 461.74464 378.872898 
L 462.099456 378.905179 
L 469.679616 379.011248 
L 470.034432 379.04353 
L 495.968256 379.061976 
L 496.000512 379.218773 
L 496.065024 379.006636 
L 496.323072 379.034306 
L 576.608256 379.038918 
L 576.640512 379.269502 
L 576.705024 379.01586 
L 576.963072 379.038918 
L 657.248256 379.038918 
L 657.280512 379.274113 
L 657.345024 379.038918 
L 657.53856 379.01586 
L 658.473984 379.038918 
L 737.888256 379.038918 
L 737.920512 379.274113 
L 737.985024 379.038918 
L 738.17856 379.01586 
L 739.113984 379.038918 
L 818.528256 379.038918 
L 818.560512 379.274113 
L 818.625024 379.038918 
L 818.81856 379.01586 
L 819.753984 379.038918 
L 899.168256 379.038918 
L 899.200512 379.274113 
L 899.265024 379.038918 
L 899.45856 379.01586 
L 900.393984 379.038918 
L 947.52 379.04353 
L 947.52 379.04353 
" clip-path="url(#p14594622a3)" style="fill: none; stroke: #ff00ff; stroke-width: 2; stroke-linecap: square"/>
   </g>
   <g id="patch_22">
    <path d="M 100.8 465.442759 
L 100.8 372.711724 
" style="fill: none; stroke: #bcbcbc; stroke-width: 0.8; stroke-linejoin: miter; stroke-linecap: square"/>
   </g>
   <g id="patch_23">
    <path d="M 987.84 465.442759 
L 987.84 372.711724 
" style="fill: none; stroke: #bcbcbc; stroke-width: 0.8; stroke-linejoin: miter; stroke-linecap: square"/>
   </g>
   <g id="patch_24">
    <path d="M 100.8 465.442759 
L 987.84 465.442759 
" style="fill: none; stroke: #bcbcbc; stroke-width: 0.8; stroke-linejoin: miter; stroke-linecap: square"/>
   </g>
   <g id="patch_25">
    <path d="M 100.8 372.711724 
L 987.84 372.711724 
" style="fill: none; stroke: #bcbcbc; stroke-width: 0.8; stroke-linejoin: miter; stroke-linecap: square"/>
   </g>
  </g>
  <g id="axes_5">
   <g id="patch_26">
    <path d="M 100.8 576.72 
L 987.84 576.72 
L 987.84 483.988966 
L 100.8 483.988966 
z
" style="fill: #eeeeee"/>
   </g>
   <g id="matplotlib.axis_9">
    <g id="xtick_25">
     <g id="line2d_69">
      <path d="M 141.12 576.72 
L 141.12 483.988966 
" clip-path="url(#p09db1ce759)" style="fill: none; stroke-dasharray: 1.85,0.8; stroke-dashoffset: 0; stroke: #b2b2b2; stroke-width: 0.5"/>
     </g>
     <g id="line2d_70">
      <g>
       <use xlink:href="#meb16e1947c" x="141.12" y="576.72" style="stroke: #000000; stroke-width: 0.8"/>
      </g>
     </g>
     <g id="text_13">
      <!-- 0 s -->
      <g transform="translate(130.795 590.857813) scale(0.14 -0.14)">
       <defs>
        <path id="DejaVuSans-73" d="M 2834 3397 
L 2834 2853 
Q 2591 2978 2328 3040 
Q 2066 3103 1784 3103 
Q 1356 3103 1142 2972 
Q 928 2841 928 2578 
Q 928 2378 1081 2264 
Q 1234 2150 1697 2047 
L 1894 2003 
Q 2506 1872 2764 1633 
Q 3022 1394 3022 966 
Q 3022 478 2636 193 
Q 2250 -91 1575 -91 
Q 1294 -91 989 -36 
Q 684 19 347 128 
L 347 722 
Q 666 556 975 473 
Q 1284 391 1588 391 
Q 1994 391 2212 530 
Q 2431 669 2431 922 
Q 2431 1156 2273 1281 
Q 2116 1406 1581 1522 
L 1381 1569 
Q 847 1681 609 1914 
Q 372 2147 372 2553 
Q 372 3047 722 3315 
Q 1072 3584 1716 3584 
Q 2034 3584 2315 3537 
Q 2597 3491 2834 3397 
z
" transform="scale(0.015625)"/>
       </defs>
       <use xlink:href="#DejaVuSans-30"/>
       <use xlink:href="#DejaVuSans-20" x="63.623047"/>
       <use xlink:href="#DejaVuSans-73" x="95.410156"/>
      </g>
     </g>
    </g>
    <g id="xtick_26">
     <g id="line2d_71">
      <path d="M 302.4 576.72 
L 302.4 483.988966 
" clip-path="url(#p09db1ce759)" style="fill: none; stroke-dasharray: 1.85,0.8; stroke-dashoffset: 0; stroke: #b2b2b2; stroke-width: 0.5"/>
     </g>
     <g id="line2d_72">
      <g>
       <use xlink:href="#meb16e1947c" x="302.4" y="576.72" style="stroke: #000000; stroke-width: 0.8"/>
      </g>
     </g>
     <g id="text_14">
      <!-- 50 ns -->
      <g transform="translate(283.185 590.857813) scale(0.14 -0.14)">
       <defs>
        <path id="DejaVuSans-35" d="M 691 4666 
L 3169 4666 
L 3169 4134 
L 1269 4134 
L 1269 2991 
Q 1406 3038 1543 3061 
Q 1681 3084 1819 3084 
Q 2600 3084 3056 2656 
Q 3513 2228 3513 1497 
Q 3513 744 3044 326 
Q 2575 -91 1722 -91 
Q 1428 -91 1123 -41 
Q 819 9 494 109 
L 494 744 
Q 775 591 1075 516 
Q 1375 441 1709 441 
Q 2250 441 2565 725 
Q 2881 1009 2881 1497 
Q 2881 1984 2565 2268 
Q 2250 2553 1709 2553 
Q 1456 2553 1204 2497 
Q 953 2441 691 2322 
L 691 4666 
z
" transform="scale(0.015625)"/>
        <path id="DejaVuSans-6e" d="M 3513 2113 
L 3513 0 
L 2938 0 
L 2938 2094 
Q 2938 2591 2744 2837 
Q 2550 3084 2163 3084 
Q 1697 3084 1428 2787 
Q 1159 2491 1159 1978 
L 1159 0 
L 581 0 
L 581 3500 
L 1159 3500 
L 1159 2956 
Q 1366 3272 1645 3428 
Q 1925 3584 2291 3584 
Q 2894 3584 3203 3211 
Q 3513 2838 3513 2113 
z
" transform="scale(0.015625)"/>
       </defs>
       <use xlink:href="#DejaVuSans-35"/>
       <use xlink:href="#DejaVuSans-30" x="63.623047"/>
       <use xlink:href="#DejaVuSans-20" x="127.246094"/>
       <use xlink:href="#DejaVuSans-6e" x="159.033203"/>
       <use xlink:href="#DejaVuSans-73" x="222.412109"/>
      </g>
     </g>
    </g>
    <g id="xtick_27">
     <g id="line2d_73">
      <path d="M 463.68 576.72 
L 463.68 483.988966 
" clip-path="url(#p09db1ce759)" style="fill: none; stroke-dasharray: 1.85,0.8; stroke-dashoffset: 0; stroke: #b2b2b2; stroke-width: 0.5"/>
     </g>
     <g id="line2d_74">
      <g>
       <use xlink:href="#meb16e1947c" x="463.68" y="576.72" style="stroke: #000000; stroke-width: 0.8"/>
      </g>
     </g>
     <g id="text_15">
      <!-- 100 ns -->
      <g transform="translate(440.01125 590.857813) scale(0.14 -0.14)">
       <use xlink:href="#DejaVuSans-31"/>
       <use xlink:href="#DejaVuSans-30" x="63.623047"/>
       <use xlink:href="#DejaVuSans-30" x="127.246094"/>
       <use xlink:href="#DejaVuSans-20" x="190.869141"/>
       <use xlink:href="#DejaVuSans-6e" x="222.65625"/>
       <use xlink:href="#DejaVuSans-73" x="286.035156"/>
      </g>
     </g>
    </g>
    <g id="xtick_28">
     <g id="line2d_75">
      <path d="M 624.96 576.72 
L 624.96 483.988966 
" clip-path="url(#p09db1ce759)" style="fill: none; stroke-dasharray: 1.85,0.8; stroke-dashoffset: 0; stroke: #b2b2b2; stroke-width: 0.5"/>
     </g>
     <g id="line2d_76">
      <g>
       <use xlink:href="#meb16e1947c" x="624.96" y="576.72" style="stroke: #000000; stroke-width: 0.8"/>
      </g>
     </g>
     <g id="text_16">
      <!-- 150 ns -->
      <g transform="translate(601.29125 590.857813) scale(0.14 -0.14)">
       <use xlink:href="#DejaVuSans-31"/>
       <use xlink:href="#DejaVuSans-35" x="63.623047"/>
       <use xlink:href="#DejaVuSans-30" x="127.246094"/>
       <use xlink:href="#DejaVuSans-20" x="190.869141"/>
       <use xlink:href="#DejaVuSans-6e" x="222.65625"/>
       <use xlink:href="#DejaVuSans-73" x="286.035156"/>
      </g>
     </g>
    </g>
    <g id="xtick_29">
     <g id="line2d_77">
      <path d="M 786.24 576.72 
L 786.24 483.988966 
" clip-path="url(#p09db1ce759)" style="fill: none; stroke-dasharray: 1.85,0.8; stroke-dashoffset: 0; stroke: #b2b2b2; stroke-width: 0.5"/>
     </g>
     <g id="line2d_78">
      <g>
       <use xlink:href="#meb16e1947c" x="786.24" y="576.72" style="stroke: #000000; stroke-width: 0.8"/>
      </g>
     </g>
     <g id="text_17">
      <!-- 200 ns -->
      <g transform="translate(762.57125 590.857813) scale(0.14 -0.14)">
       <use xlink:href="#DejaVuSans-32"/>
       <use xlink:href="#DejaVuSans-30" x="63.623047"/>
       <use xlink:href="#DejaVuSans-30" x="127.246094"/>
       <use xlink:href="#DejaVuSans-20" x="190.869141"/>
       <use xlink:href="#DejaVuSans-6e" x="222.65625"/>
       <use xlink:href="#DejaVuSans-73" x="286.035156"/>
      </g>
     </g>
    </g>
    <g id="xtick_30">
     <g id="line2d_79">
      <path d="M 947.52 576.72 
L 947.52 483.988966 
" clip-path="url(#p09db1ce759)" style="fill: none; stroke-dasharray: 1.85,0.8; stroke-dashoffset: 0; stroke: #b2b2b2; stroke-width: 0.5"/>
     </g>
     <g id="line2d_80">
      <g>
       <use xlink:href="#meb16e1947c" x="947.52" y="576.72" style="stroke: #000000; stroke-width: 0.8"/>
      </g>
     </g>
     <g id="text_18">
      <!-- 250 ns -->
      <g transform="translate(923.85125 590.857813) scale(0.14 -0.14)">
       <use xlink:href="#DejaVuSans-32"/>
       <use xlink:href="#DejaVuSans-35" x="63.623047"/>
       <use xlink:href="#DejaVuSans-30" x="127.246094"/>
       <use xlink:href="#DejaVuSans-20" x="190.869141"/>
       <use xlink:href="#DejaVuSans-6e" x="222.65625"/>
       <use xlink:href="#DejaVuSans-73" x="286.035156"/>
      </g>
     </g>
    </g>
    <g id="text_19">
     <!-- Time -->
     <g transform="translate(527.192969 608.407187) scale(0.14 -0.14)">
      <defs>
       <path id="DejaVuSans-69" d="M 603 3500 
L 1178 3500 
L 1178 0 
L 603 0 
L 603 3500 
z
M 603 4863 
L 1178 4863 
L 1178 4134 
L 603 4134 
L 603 4863 
z
" transform="scale(0.015625)"/>
       <path id="DejaVuSans-6d" d="M 3328 2828 
Q 3544 3216 3844 3400 
Q 4144 3584 4550 3584 
Q 5097 3584 5394 3201 
Q 5691 2819 5691 2113 
L 5691 0 
L 5113 0 
L 5113 2094 
Q 5113 2597 4934 2840 
Q 4756 3084 4391 3084 
Q 3944 3084 3684 2787 
Q 3425 2491 3425 1978 
L 3425 0 
L 2847 0 
L 2847 2094 
Q 2847 2600 2669 2842 
Q 2491 3084 2119 3084 
Q 1678 3084 1418 2786 
Q 1159 2488 1159 1978 
L 1159 0 
L 581 0 
L 581 3500 
L 1159 3500 
L 1159 2956 
Q 1356 3278 1631 3431 
Q 1906 3584 2284 3584 
Q 2666 3584 2933 3390 
Q 3200 3197 3328 2828 
z
" transform="scale(0.015625)"/>
       <path id="DejaVuSans-65" d="M 3597 1894 
L 3597 1613 
L 953 1613 
Q 991 1019 1311 708 
Q 1631 397 2203 397 
Q 2534 397 2845 478 
Q 3156 559 3463 722 
L 3463 178 
Q 3153 47 2828 -22 
Q 2503 -91 2169 -91 
Q 1331 -91 842 396 
Q 353 884 353 1716 
Q 353 2575 817 3079 
Q 1281 3584 2069 3584 
Q 2775 3584 3186 3129 
Q 3597 2675 3597 1894 
z
M 3022 2063 
Q 3016 2534 2758 2815 
Q 2500 3097 2075 3097 
Q 1594 3097 1305 2825 
Q 1016 2553 972 2059 
L 3022 2063 
z
" transform="scale(0.015625)"/>
      </defs>
      <use xlink:href="#DejaVuSans-54"/>
      <use xlink:href="#DejaVuSans-69" x="57.958984"/>
      <use xlink:href="#DejaVuSans-6d" x="85.742188"/>
      <use xlink:href="#DejaVuSans-65" x="183.154297"/>
     </g>
    </g>
   </g>
   <g id="matplotlib.axis_10">
    <g id="ytick_9">
     <g id="line2d_81">
      <path d="M 100.8 569.737898 
L 987.84 569.737898 
" clip-path="url(#p09db1ce759)" style="fill: none; stroke-dasharray: 1.85,0.8; stroke-dashoffset: 0; stroke: #b2b2b2; stroke-width: 0.5"/>
     </g>
     <g id="line2d_82">
      <g>
       <use xlink:href="#me25bfe223a" x="100.8" y="569.737898" style="stroke: #000000; stroke-width: 0.8"/>
      </g>
     </g>
     <g id="text_20">
      <!-- 0 V -->
      <g transform="translate(74.36625 575.056805) scale(0.14 -0.14)">
       <use xlink:href="#DejaVuSans-30"/>
       <use xlink:href="#DejaVuSans-20" x="63.623047"/>
       <use xlink:href="#DejaVuSans-56" x="95.410156"/>
      </g>
     </g>
    </g>
    <g id="ytick_10">
     <g id="line2d_83">
      <path d="M 100.8 535.84453 
L 987.84 535.84453 
" clip-path="url(#p09db1ce759)" style="fill: none; stroke-dasharray: 1.85,0.8; stroke-dashoffset: 0; stroke: #b2b2b2; stroke-width: 0.5"/>
     </g>
     <g id="line2d_84">
      <g>
       <use xlink:href="#me25bfe223a" x="100.8" y="535.84453" style="stroke: #000000; stroke-width: 0.8"/>
      </g>
     </g>
     <g id="text_21">
      <!-- 500 mV -->
      <g transform="translate(42.914375 541.163437) scale(0.14 -0.14)">
       <use xlink:href="#DejaVuSans-35"/>
       <use xlink:href="#DejaVuSans-30" x="63.623047"/>
       <use xlink:href="#DejaVuSans-30" x="127.246094"/>
       <use xlink:href="#DejaVuSans-20" x="190.869141"/>
       <use xlink:href="#DejaVuSans-6d" x="222.65625"/>
       <use xlink:href="#DejaVuSans-56" x="320.068359"/>
      </g>
     </g>
    </g>
    <g id="ytick_11">
     <g id="line2d_85">
      <path d="M 100.8 501.951163 
L 987.84 501.951163 
" clip-path="url(#p09db1ce759)" style="fill: none; stroke-dasharray: 1.85,0.8; stroke-dashoffset: 0; stroke: #b2b2b2; stroke-width: 0.5"/>
     </g>
     <g id="line2d_86">
      <g>
       <use xlink:href="#me25bfe223a" x="100.8" y="501.951163" style="stroke: #000000; stroke-width: 0.8"/>
      </g>
     </g>
     <g id="text_22">
      <!-- 1 V -->
      <g transform="translate(74.36625 507.270069) scale(0.14 -0.14)">
       <use xlink:href="#DejaVuSans-31"/>
       <use xlink:href="#DejaVuSans-20" x="63.623047"/>
       <use xlink:href="#DejaVuSans-56" x="95.410156"/>
      </g>
     </g>
    </g>
    <g id="text_23">
     <g id="patch_27">
      <path d="M 34.8768 554.329483 
L 34.8768 506.379483 
L 11.247425 506.379483 
L 11.247425 554.329483 
z
" style="fill: #ffff00; opacity: 0.2; stroke: #eeeeee; stroke-width: 0.5; stroke-linejoin: miter"/>
     </g>
     <!-- FOUT -->
     <g transform="translate(26.925238 549.289483) rotate(-90) scale(0.14 -0.14)">
      <use xlink:href="#DejaVuSans-46"/>
      <use xlink:href="#DejaVuSans-4f" x="57.519531"/>
      <use xlink:href="#DejaVuSans-55" x="136.230469"/>
      <use xlink:href="#DejaVuSans-54" x="209.423828"/>
     </g>
    </g>
   </g>
   <g id="line2d_87">
    <path d="M 141.12 488.393815 
L 173.472768 488.400594 
L 173.505024 488.204013 
L 173.569536 526.657394 
L 173.69856 572.504953 
L 173.730816 572.369108 
L 173.827584 567.828617 
L 173.892096 569.351799 
L 174.053376 570.057126 
L 174.117888 569.939259 
L 174.408192 569.483332 
L 174.440448 569.532932 
L 174.66624 569.721921 
L 176.182272 569.732147 
L 180.085248 569.753796 
L 193.568256 569.74419 
L 212.8896 569.736081 
L 289.400832 569.833383 
L 289.433088 569.404489 
L 289.4976 555.556913 
L 289.691136 488.732749 
L 289.852416 488.400594 
L 290.400768 488.393815 
L 290.691072 488.387037 
L 290.755584 502.429059 
L 290.916864 569.781495 
L 290.94912 569.704782 
L 291.142656 569.736611 
L 301.335552 569.73623 
L 416.489472 569.780955 
L 416.521728 569.86733 
L 416.553984 566.259354 
L 416.74752 488.807314 
L 416.9088 488.393815 
L 947.52 488.393815 
L 947.52 488.393815 
" clip-path="url(#p09db1ce759)" style="fill: none; stroke: #ff00ff; stroke-width: 2; stroke-linecap: square"/>
   </g>
   <g id="patch_28">
    <path d="M 100.8 576.72 
L 100.8 483.988966 
" style="fill: none; stroke: #bcbcbc; stroke-width: 0.8; stroke-linejoin: miter; stroke-linecap: square"/>
   </g>
   <g id="patch_29">
    <path d="M 987.84 576.72 
L 987.84 483.988966 
" style="fill: none; stroke: #bcbcbc; stroke-width: 0.8; stroke-linejoin: miter; stroke-linecap: square"/>
   </g>
   <g id="patch_30">
    <path d="M 100.8 576.72 
L 987.84 576.72 
" style="fill: none; stroke: #bcbcbc; stroke-width: 0.8; stroke-linejoin: miter; stroke-linecap: square"/>
   </g>
   <g id="patch_31">
    <path d="M 100.8 483.988966 
L 987.84 483.988966 
" style="fill: none; stroke: #bcbcbc; stroke-width: 0.8; stroke-linejoin: miter; stroke-linecap: square"/>
   </g>
  </g>
  <g id="axes_6">
   <g id="patch_32">
    <path d="M 201.6 628.56 
L 856.8 628.56 
L 856.8 615.6 
L 201.6 615.6 
z
" clip-path="url(#p414bf83137)" style="fill: #d3d3d3"/>
   </g>
   <g id="patch_33">
    <path d="M 201.6 628.56 
L 257.76 628.56 
L 257.76 615.6 
L 201.6 615.6 
z
" clip-path="url(#p414bf83137)" style="fill: #0000ff"/>
   </g>
   <g id="line2d_88">
    <path d="M 201.6 635.04 
L 201.6 609.12 
" clip-path="url(#p4077fe8004)" style="fill: none; stroke: #ff0000; stroke-linecap: square"/>
   </g>
   <g id="line2d_89">
    <defs>
     <path id="md520f3e741" d="M 0 5 
C 1.326016 5 2.597899 4.473168 3.535534 3.535534 
C 4.473168 2.597899 5 1.326016 5 0 
C 5 -1.326016 4.473168 -2.597899 3.535534 -3.535534 
C 2.597899 -4.473168 1.326016 -5 0 -5 
C -1.326016 -5 -2.597899 -4.473168 -3.535534 -3.535534 
C -4.473168 -2.597899 -5 -1.326016 -5 0 
C -5 1.326016 -4.473168 2.597899 -3.535534 3.535534 
C -2.597899 4.473168 -1.326016 5 0 5 
z
" style="stroke: #bfbfbf"/>
    </defs>
    <g>
     <use xlink:href="#md520f3e741" x="257.76" y="622.08" style="fill: #ffffff; stroke: #bfbfbf"/>
    </g>
   </g>
   <g id="text_24">
    <!-- #Sweep -->
    <g transform="translate(138.622875 625.39125) scale(0.12 -0.12)">
     <defs>
      <path id="DejaVuSans-23" d="M 3272 2816 
L 2363 2816 
L 2100 1772 
L 3016 1772 
L 3272 2816 
z
M 2803 4594 
L 2478 3297 
L 3391 3297 
L 3719 4594 
L 4219 4594 
L 3897 3297 
L 4872 3297 
L 4872 2816 
L 3775 2816 
L 3519 1772 
L 4513 1772 
L 4513 1294 
L 3397 1294 
L 3072 0 
L 2572 0 
L 2894 1294 
L 1978 1294 
L 1656 0 
L 1153 0 
L 1478 1294 
L 494 1294 
L 494 1772 
L 1594 1772 
L 1856 2816 
L 850 2816 
L 850 3297 
L 1978 3297 
L 2297 4594 
L 2803 4594 
z
" transform="scale(0.015625)"/>
      <path id="DejaVuSans-77" d="M 269 3500 
L 844 3500 
L 1563 769 
L 2278 3500 
L 2956 3500 
L 3675 769 
L 4391 3500 
L 4966 3500 
L 4050 0 
L 3372 0 
L 2619 2869 
L 1863 0 
L 1184 0 
L 269 3500 
z
" transform="scale(0.015625)"/>
      <path id="DejaVuSans-70" d="M 1159 525 
L 1159 -1331 
L 581 -1331 
L 581 3500 
L 1159 3500 
L 1159 2969 
Q 1341 3281 1617 3432 
Q 1894 3584 2278 3584 
Q 2916 3584 3314 3078 
Q 3713 2572 3713 1747 
Q 3713 922 3314 415 
Q 2916 -91 2278 -91 
Q 1894 -91 1617 61 
Q 1341 213 1159 525 
z
M 3116 1747 
Q 3116 2381 2855 2742 
Q 2594 3103 2138 3103 
Q 1681 3103 1420 2742 
Q 1159 2381 1159 1747 
Q 1159 1113 1420 752 
Q 1681 391 2138 391 
Q 2594 391 2855 752 
Q 3116 1113 3116 1747 
z
" transform="scale(0.015625)"/>
     </defs>
     <use xlink:href="#DejaVuSans-23"/>
     <use xlink:href="#DejaVuSans-53" x="83.789062"/>
     <use xlink:href="#DejaVuSans-77" x="147.265625"/>
     <use xlink:href="#DejaVuSans-65" x="229.052734"/>
     <use xlink:href="#DejaVuSans-65" x="290.576172"/>
     <use xlink:href="#DejaVuSans-70" x="352.099609"/>
    </g>
   </g>
   <g id="text_25">
    <!-- $\mathdefault{12}$ -->
    <g transform="translate(869.904 625.39125) scale(0.12 -0.12)">
     <use xlink:href="#DejaVuSans-31" transform="translate(0 0.78125)"/>
     <use xlink:href="#DejaVuSans-32" transform="translate(63.623047 0.78125)"/>
    </g>
   </g>
  </g>
  <g id="text_26">
   <!-- DFF under BBI sweep analysis (Sweep = 22E-9) -->
   <g transform="translate(313.34625 25.1175) scale(0.16 -0.16)">
    <defs>
     <path id="DejaVuSans-75" d="M 544 1381 
L 544 3500 
L 1119 3500 
L 1119 1403 
Q 1119 906 1312 657 
Q 1506 409 1894 409 
Q 2359 409 2629 706 
Q 2900 1003 2900 1516 
L 2900 3500 
L 3475 3500 
L 3475 0 
L 2900 0 
L 2900 538 
Q 2691 219 2414 64 
Q 2138 -91 1772 -91 
Q 1169 -91 856 284 
Q 544 659 544 1381 
z
M 1991 3584 
L 1991 3584 
z
" transform="scale(0.015625)"/>
     <path id="DejaVuSans-64" d="M 2906 2969 
L 2906 4863 
L 3481 4863 
L 3481 0 
L 2906 0 
L 2906 525 
Q 2725 213 2448 61 
Q 2172 -91 1784 -91 
Q 1150 -91 751 415 
Q 353 922 353 1747 
Q 353 2572 751 3078 
Q 1150 3584 1784 3584 
Q 2172 3584 2448 3432 
Q 2725 3281 2906 2969 
z
M 947 1747 
Q 947 1113 1208 752 
Q 1469 391 1925 391 
Q 2381 391 2643 752 
Q 2906 1113 2906 1747 
Q 2906 2381 2643 2742 
Q 2381 3103 1925 3103 
Q 1469 3103 1208 2742 
Q 947 2381 947 1747 
z
" transform="scale(0.015625)"/>
     <path id="DejaVuSans-72" d="M 2631 2963 
Q 2534 3019 2420 3045 
Q 2306 3072 2169 3072 
Q 1681 3072 1420 2755 
Q 1159 2438 1159 1844 
L 1159 0 
L 581 0 
L 581 3500 
L 1159 3500 
L 1159 2956 
Q 1341 3275 1631 3429 
Q 1922 3584 2338 3584 
Q 2397 3584 2469 3576 
Q 2541 3569 2628 3553 
L 2631 2963 
z
" transform="scale(0.015625)"/>
     <path id="DejaVuSans-61" d="M 2194 1759 
Q 1497 1759 1228 1600 
Q 959 1441 959 1056 
Q 959 750 1161 570 
Q 1363 391 1709 391 
Q 2188 391 2477 730 
Q 2766 1069 2766 1631 
L 2766 1759 
L 2194 1759 
z
M 3341 1997 
L 3341 0 
L 2766 0 
L 2766 531 
Q 2569 213 2275 61 
Q 1981 -91 1556 -91 
Q 1019 -91 701 211 
Q 384 513 384 1019 
Q 384 1609 779 1909 
Q 1175 2209 1959 2209 
L 2766 2209 
L 2766 2266 
Q 2766 2663 2505 2880 
Q 2244 3097 1772 3097 
Q 1472 3097 1187 3025 
Q 903 2953 641 2809 
L 641 3341 
Q 956 3463 1253 3523 
Q 1550 3584 1831 3584 
Q 2591 3584 2966 3190 
Q 3341 2797 3341 1997 
z
" transform="scale(0.015625)"/>
     <path id="DejaVuSans-6c" d="M 603 4863 
L 1178 4863 
L 1178 0 
L 603 0 
L 603 4863 
z
" transform="scale(0.015625)"/>
     <path id="DejaVuSans-79" d="M 2059 -325 
Q 1816 -950 1584 -1140 
Q 1353 -1331 966 -1331 
L 506 -1331 
L 506 -850 
L 844 -850 
Q 1081 -850 1212 -737 
Q 1344 -625 1503 -206 
L 1606 56 
L 191 3500 
L 800 3500 
L 1894 763 
L 2988 3500 
L 3597 3500 
L 2059 -325 
z
" transform="scale(0.015625)"/>
     <path id="DejaVuSans-28" d="M 1984 4856 
Q 1566 4138 1362 3434 
Q 1159 2731 1159 2009 
Q 1159 1288 1364 580 
Q 1569 -128 1984 -844 
L 1484 -844 
Q 1016 -109 783 600 
Q 550 1309 550 2009 
Q 550 2706 781 3412 
Q 1013 4119 1484 4856 
L 1984 4856 
z
" transform="scale(0.015625)"/>
     <path id="DejaVuSans-3d" d="M 678 2906 
L 4684 2906 
L 4684 2381 
L 678 2381 
L 678 2906 
z
M 678 1631 
L 4684 1631 
L 4684 1100 
L 678 1100 
L 678 1631 
z
" transform="scale(0.015625)"/>
     <path id="DejaVuSans-2d" d="M 313 2009 
L 1997 2009 
L 1997 1497 
L 313 1497 
L 313 2009 
z
" transform="scale(0.015625)"/>
     <path id="DejaVuSans-39" d="M 703 97 
L 703 672 
Q 941 559 1184 500 
Q 1428 441 1663 441 
Q 2288 441 2617 861 
Q 2947 1281 2994 2138 
Q 2813 1869 2534 1725 
Q 2256 1581 1919 1581 
Q 1219 1581 811 2004 
Q 403 2428 403 3163 
Q 403 3881 828 4315 
Q 1253 4750 1959 4750 
Q 2769 4750 3195 4129 
Q 3622 3509 3622 2328 
Q 3622 1225 3098 567 
Q 2575 -91 1691 -91 
Q 1453 -91 1209 -44 
Q 966 3 703 97 
z
M 1959 2075 
Q 2384 2075 2632 2365 
Q 2881 2656 2881 3163 
Q 2881 3666 2632 3958 
Q 2384 4250 1959 4250 
Q 1534 4250 1286 3958 
Q 1038 3666 1038 3163 
Q 1038 2656 1286 2365 
Q 1534 2075 1959 2075 
z
" transform="scale(0.015625)"/>
     <path id="DejaVuSans-29" d="M 513 4856 
L 1013 4856 
Q 1481 4119 1714 3412 
Q 1947 2706 1947 2009 
Q 1947 1309 1714 600 
Q 1481 -109 1013 -844 
L 513 -844 
Q 928 -128 1133 580 
Q 1338 1288 1338 2009 
Q 1338 2731 1133 3434 
Q 928 4138 513 4856 
z
" transform="scale(0.015625)"/>
    </defs>
    <use xlink:href="#DejaVuSans-44"/>
    <use xlink:href="#DejaVuSans-46" x="77.001953"/>
    <use xlink:href="#DejaVuSans-46" x="134.521484"/>
    <use xlink:href="#DejaVuSans-20" x="192.041016"/>
    <use xlink:href="#DejaVuSans-75" x="223.828125"/>
    <use xlink:href="#DejaVuSans-6e" x="287.207031"/>
    <use xlink:href="#DejaVuSans-64" x="350.585938"/>
    <use xlink:href="#DejaVuSans-65" x="414.0625"/>
    <use xlink:href="#DejaVuSans-72" x="475.585938"/>
    <use xlink:href="#DejaVuSans-20" x="516.699219"/>
    <use xlink:href="#DejaVuSans-42" x="548.486328"/>
    <use xlink:href="#DejaVuSans-42" x="617.089844"/>
    <use xlink:href="#DejaVuSans-49" x="685.693359"/>
    <use xlink:href="#DejaVuSans-20" x="715.185547"/>
    <use xlink:href="#DejaVuSans-73" x="746.972656"/>
    <use xlink:href="#DejaVuSans-77" x="799.072266"/>
    <use xlink:href="#DejaVuSans-65" x="880.859375"/>
    <use xlink:href="#DejaVuSans-65" x="942.382812"/>
    <use xlink:href="#DejaVuSans-70" x="1003.90625"/>
    <use xlink:href="#DejaVuSans-20" x="1067.382812"/>
    <use xlink:href="#DejaVuSans-61" x="1099.169922"/>
    <use xlink:href="#DejaVuSans-6e" x="1160.449219"/>
    <use xlink:href="#DejaVuSans-61" x="1223.828125"/>
    <use xlink:href="#DejaVuSans-6c" x="1285.107422"/>
    <use xlink:href="#DejaVuSans-79" x="1312.890625"/>
    <use xlink:href="#DejaVuSans-73" x="1372.070312"/>
    <use xlink:href="#DejaVuSans-69" x="1424.169922"/>
    <use xlink:href="#DejaVuSans-73" x="1451.953125"/>
    <use xlink:href="#DejaVuSans-20" x="1504.052734"/>
    <use xlink:href="#DejaVuSans-28" x="1535.839844"/>
    <use xlink:href="#DejaVuSans-53" x="1574.853516"/>
    <use xlink:href="#DejaVuSans-77" x="1638.330078"/>
    <use xlink:href="#DejaVuSans-65" x="1720.117188"/>
    <use xlink:href="#DejaVuSans-65" x="1781.640625"/>
    <use xlink:href="#DejaVuSans-70" x="1843.164062"/>
    <use xlink:href="#DejaVuSans-20" x="1906.640625"/>
    <use xlink:href="#DejaVuSans-3d" x="1938.427734"/>
    <use xlink:href="#DejaVuSans-20" x="2022.216797"/>
    <use xlink:href="#DejaVuSans-32" x="2054.003906"/>
    <use xlink:href="#DejaVuSans-32" x="2117.626953"/>
    <use xlink:href="#DejaVuSans-45" x="2181.25"/>
    <use xlink:href="#DejaVuSans-2d" x="2244.433594"/>
    <use xlink:href="#DejaVuSans-39" x="2280.517578"/>
    <use xlink:href="#DejaVuSans-29" x="2344.140625"/>
   </g>
  </g>
 </g>
 <defs>
  <clipPath id="pa64410d14c">
   <rect x="100.8" y="38.88" width="887.04" height="92.731034"/>
  </clipPath>
  <clipPath id="pbd6ad906af">
   <rect x="100.8" y="150.157241" width="887.04" height="92.731034"/>
  </clipPath>
  <clipPath id="p99eb50ad0a">
   <rect x="100.8" y="261.434483" width="887.04" height="92.731034"/>
  </clipPath>
  <clipPath id="p14594622a3">
   <rect x="100.8" y="372.711724" width="887.04" height="92.731034"/>
  </clipPath>
  <clipPath id="p09db1ce759">
   <rect x="100.8" y="483.988966" width="887.04" height="92.731034"/>
  </clipPath>
  <clipPath id="p414bf83137">
   <rect x="201.6" y="609.12" width="655.2" height="25.92"/>
  </clipPath>
  <clipPath id="p4077fe8004">
   <path d="M 201.6 628.56 
L 856.8 628.56 
L 856.8 615.6 
L 201.6 615.6 
z
"/>
  </clipPath>
 </defs>
</svg>
