<?xml version="1.0" encoding="utf-8" standalone="no"?>
<!DOCTYPE svg PUBLIC "-//W3C//DTD SVG 1.1//EN"
  "http://www.w3.org/Graphics/SVG/1.1/DTD/svg11.dtd">
<svg xmlns:xlink="http://www.w3.org/1999/xlink" width="1008pt" height="648pt" viewBox="0 0 1008 648" xmlns="http://www.w3.org/2000/svg" version="1.1">
 <metadata>
  <rdf:RDF xmlns:dc="http://purl.org/dc/elements/1.1/" xmlns:cc="http://creativecommons.org/ns#" xmlns:rdf="http://www.w3.org/1999/02/22-rdf-syntax-ns#">
   <cc:Work>
    <dc:type rdf:resource="http://purl.org/dc/dcmitype/StillImage"/>
    <dc:date>2024-06-03T10:45:29.184928</dc:date>
    <dc:format>image/svg+xml</dc:format>
    <dc:creator>
     <cc:Agent>
      <dc:title>Matplotlib v3.9.0, https://matplotlib.org/</dc:title>
     </cc:Agent>
    </dc:creator>
   </cc:Work>
  </rdf:RDF>
 </metadata>
 <defs>
  <style type="text/css">*{stroke-linejoin: round; stroke-linecap: butt}</style>
 </defs>
 <g id="figure_1">
  <g id="patch_1">
   <path d="M 0 648 
L 1008 648 
L 1008 0 
L 0 0 
z
" style="fill: #ffffff"/>
  </g>
  <g id="axes_1">
   <g id="patch_2">
    <path d="M 100.8 131.611034 
L 987.84 131.611034 
L 987.84 38.88 
L 100.8 38.88 
z
" style="fill: #eeeeee"/>
   </g>
   <g id="matplotlib.axis_1">
    <g id="xtick_1">
     <g id="line2d_1">
      <path d="M 141.12 131.611034 
L 141.12 38.88 
" clip-path="url(#pb2c8e3b5ea)" style="fill: none; stroke-dasharray: 1.85,0.8; stroke-dashoffset: 0; stroke: #b2b2b2; stroke-width: 0.5"/>
     </g>
     <g id="line2d_2">
      <defs>
       <path id="m3f3b8f76ef" d="M 0 0 
L 0 -3.5 
" style="stroke: #000000; stroke-width: 0.8"/>
      </defs>
      <g>
       <use xlink:href="#m3f3b8f76ef" x="141.12" y="131.611034" style="stroke: #000000; stroke-width: 0.8"/>
      </g>
     </g>
    </g>
    <g id="xtick_2">
     <g id="line2d_3">
      <path d="M 302.4 131.611034 
L 302.4 38.88 
" clip-path="url(#pb2c8e3b5ea)" style="fill: none; stroke-dasharray: 1.85,0.8; stroke-dashoffset: 0; stroke: #b2b2b2; stroke-width: 0.5"/>
     </g>
     <g id="line2d_4">
      <g>
       <use xlink:href="#m3f3b8f76ef" x="302.4" y="131.611034" style="stroke: #000000; stroke-width: 0.8"/>
      </g>
     </g>
    </g>
    <g id="xtick_3">
     <g id="line2d_5">
      <path d="M 463.68 131.611034 
L 463.68 38.88 
" clip-path="url(#pb2c8e3b5ea)" style="fill: none; stroke-dasharray: 1.85,0.8; stroke-dashoffset: 0; stroke: #b2b2b2; stroke-width: 0.5"/>
     </g>
     <g id="line2d_6">
      <g>
       <use xlink:href="#m3f3b8f76ef" x="463.68" y="131.611034" style="stroke: #000000; stroke-width: 0.8"/>
      </g>
     </g>
    </g>
    <g id="xtick_4">
     <g id="line2d_7">
      <path d="M 624.96 131.611034 
L 624.96 38.88 
" clip-path="url(#pb2c8e3b5ea)" style="fill: none; stroke-dasharray: 1.85,0.8; stroke-dashoffset: 0; stroke: #b2b2b2; stroke-width: 0.5"/>
     </g>
     <g id="line2d_8">
      <g>
       <use xlink:href="#m3f3b8f76ef" x="624.96" y="131.611034" style="stroke: #000000; stroke-width: 0.8"/>
      </g>
     </g>
    </g>
    <g id="xtick_5">
     <g id="line2d_9">
      <path d="M 786.24 131.611034 
L 786.24 38.88 
" clip-path="url(#pb2c8e3b5ea)" style="fill: none; stroke-dasharray: 1.85,0.8; stroke-dashoffset: 0; stroke: #b2b2b2; stroke-width: 0.5"/>
     </g>
     <g id="line2d_10">
      <g>
       <use xlink:href="#m3f3b8f76ef" x="786.24" y="131.611034" style="stroke: #000000; stroke-width: 0.8"/>
      </g>
     </g>
    </g>
    <g id="xtick_6">
     <g id="line2d_11">
      <path d="M 947.52 131.611034 
L 947.52 38.88 
" clip-path="url(#pb2c8e3b5ea)" style="fill: none; stroke-dasharray: 1.85,0.8; stroke-dashoffset: 0; stroke: #b2b2b2; stroke-width: 0.5"/>
     </g>
     <g id="line2d_12">
      <g>
       <use xlink:href="#m3f3b8f76ef" x="947.52" y="131.611034" style="stroke: #000000; stroke-width: 0.8"/>
      </g>
     </g>
    </g>
   </g>
   <g id="matplotlib.axis_2">
    <g id="ytick_1">
     <g id="line2d_13">
      <path d="M 100.8 98.340394 
L 987.84 98.340394 
" clip-path="url(#pb2c8e3b5ea)" style="fill: none; stroke-dasharray: 1.85,0.8; stroke-dashoffset: 0; stroke: #b2b2b2; stroke-width: 0.5"/>
     </g>
     <g id="line2d_14">
      <defs>
       <path id="m92b16a5352" d="M 0 0 
L 3.5 0 
" style="stroke: #000000; stroke-width: 0.8"/>
      </defs>
      <g>
       <use xlink:href="#m92b16a5352" x="100.8" y="98.340394" style="stroke: #000000; stroke-width: 0.8"/>
      </g>
     </g>
     <g id="text_1">
      <!-- −200 V -->
      <g transform="translate(44.819688 103.6593) scale(0.14 -0.14)">
       <defs>
        <path id="DejaVuSans-2212" d="M 678 2272 
L 4684 2272 
L 4684 1741 
L 678 1741 
L 678 2272 
z
" transform="scale(0.015625)"/>
        <path id="DejaVuSans-32" d="M 1228 531 
L 3431 531 
L 3431 0 
L 469 0 
L 469 531 
Q 828 903 1448 1529 
Q 2069 2156 2228 2338 
Q 2531 2678 2651 2914 
Q 2772 3150 2772 3378 
Q 2772 3750 2511 3984 
Q 2250 4219 1831 4219 
Q 1534 4219 1204 4116 
Q 875 4013 500 3803 
L 500 4441 
Q 881 4594 1212 4672 
Q 1544 4750 1819 4750 
Q 2544 4750 2975 4387 
Q 3406 4025 3406 3419 
Q 3406 3131 3298 2873 
Q 3191 2616 2906 2266 
Q 2828 2175 2409 1742 
Q 1991 1309 1228 531 
z
" transform="scale(0.015625)"/>
        <path id="DejaVuSans-30" d="M 2034 4250 
Q 1547 4250 1301 3770 
Q 1056 3291 1056 2328 
Q 1056 1369 1301 889 
Q 1547 409 2034 409 
Q 2525 409 2770 889 
Q 3016 1369 3016 2328 
Q 3016 3291 2770 3770 
Q 2525 4250 2034 4250 
z
M 2034 4750 
Q 2819 4750 3233 4129 
Q 3647 3509 3647 2328 
Q 3647 1150 3233 529 
Q 2819 -91 2034 -91 
Q 1250 -91 836 529 
Q 422 1150 422 2328 
Q 422 3509 836 4129 
Q 1250 4750 2034 4750 
z
" transform="scale(0.015625)"/>
        <path id="DejaVuSans-20" transform="scale(0.015625)"/>
        <path id="DejaVuSans-56" d="M 1831 0 
L 50 4666 
L 709 4666 
L 2188 738 
L 3669 4666 
L 4325 4666 
L 2547 0 
L 1831 0 
z
" transform="scale(0.015625)"/>
       </defs>
       <use xlink:href="#DejaVuSans-2212"/>
       <use xlink:href="#DejaVuSans-32" x="83.789062"/>
       <use xlink:href="#DejaVuSans-30" x="147.412109"/>
       <use xlink:href="#DejaVuSans-30" x="211.035156"/>
       <use xlink:href="#DejaVuSans-20" x="274.658203"/>
       <use xlink:href="#DejaVuSans-56" x="306.445312"/>
      </g>
     </g>
    </g>
    <g id="ytick_2">
     <g id="line2d_15">
      <path d="M 100.8 45.027377 
L 987.84 45.027377 
" clip-path="url(#pb2c8e3b5ea)" style="fill: none; stroke-dasharray: 1.85,0.8; stroke-dashoffset: 0; stroke: #b2b2b2; stroke-width: 0.5"/>
     </g>
     <g id="line2d_16">
      <g>
       <use xlink:href="#m92b16a5352" x="100.8" y="45.027377" style="stroke: #000000; stroke-width: 0.8"/>
      </g>
     </g>
     <g id="text_2">
      <!-- 0 V -->
      <g transform="translate(74.36625 50.346284) scale(0.14 -0.14)">
       <use xlink:href="#DejaVuSans-30"/>
       <use xlink:href="#DejaVuSans-20" x="63.623047"/>
       <use xlink:href="#DejaVuSans-56" x="95.410156"/>
      </g>
     </g>
    </g>
    <g id="text_3">
     <g id="patch_3">
      <path d="M 34.8768 131.080205 
L 34.8768 39.41083 
L 11.247425 39.41083 
L 11.247425 131.080205 
z
" style="fill: #ffff00; opacity: 0.2; stroke: #eeeeee; stroke-width: 0.5; stroke-linejoin: miter"/>
     </g>
     <!-- VPULSE BBI -->
     <g transform="translate(26.925238 126.040205) rotate(-90) scale(0.14 -0.14)">
      <defs>
       <path id="DejaVuSans-50" d="M 1259 4147 
L 1259 2394 
L 2053 2394 
Q 2494 2394 2734 2622 
Q 2975 2850 2975 3272 
Q 2975 3691 2734 3919 
Q 2494 4147 2053 4147 
L 1259 4147 
z
M 628 4666 
L 2053 4666 
Q 2838 4666 3239 4311 
Q 3641 3956 3641 3272 
Q 3641 2581 3239 2228 
Q 2838 1875 2053 1875 
L 1259 1875 
L 1259 0 
L 628 0 
L 628 4666 
z
" transform="scale(0.015625)"/>
       <path id="DejaVuSans-55" d="M 556 4666 
L 1191 4666 
L 1191 1831 
Q 1191 1081 1462 751 
Q 1734 422 2344 422 
Q 2950 422 3222 751 
Q 3494 1081 3494 1831 
L 3494 4666 
L 4128 4666 
L 4128 1753 
Q 4128 841 3676 375 
Q 3225 -91 2344 -91 
Q 1459 -91 1007 375 
Q 556 841 556 1753 
L 556 4666 
z
" transform="scale(0.015625)"/>
       <path id="DejaVuSans-4c" d="M 628 4666 
L 1259 4666 
L 1259 531 
L 3531 531 
L 3531 0 
L 628 0 
L 628 4666 
z
" transform="scale(0.015625)"/>
       <path id="DejaVuSans-53" d="M 3425 4513 
L 3425 3897 
Q 3066 4069 2747 4153 
Q 2428 4238 2131 4238 
Q 1616 4238 1336 4038 
Q 1056 3838 1056 3469 
Q 1056 3159 1242 3001 
Q 1428 2844 1947 2747 
L 2328 2669 
Q 3034 2534 3370 2195 
Q 3706 1856 3706 1288 
Q 3706 609 3251 259 
Q 2797 -91 1919 -91 
Q 1588 -91 1214 -16 
Q 841 59 441 206 
L 441 856 
Q 825 641 1194 531 
Q 1563 422 1919 422 
Q 2459 422 2753 634 
Q 3047 847 3047 1241 
Q 3047 1584 2836 1778 
Q 2625 1972 2144 2069 
L 1759 2144 
Q 1053 2284 737 2584 
Q 422 2884 422 3419 
Q 422 4038 858 4394 
Q 1294 4750 2059 4750 
Q 2388 4750 2728 4690 
Q 3069 4631 3425 4513 
z
" transform="scale(0.015625)"/>
       <path id="DejaVuSans-45" d="M 628 4666 
L 3578 4666 
L 3578 4134 
L 1259 4134 
L 1259 2753 
L 3481 2753 
L 3481 2222 
L 1259 2222 
L 1259 531 
L 3634 531 
L 3634 0 
L 628 0 
L 628 4666 
z
" transform="scale(0.015625)"/>
       <path id="DejaVuSans-42" d="M 1259 2228 
L 1259 519 
L 2272 519 
Q 2781 519 3026 730 
Q 3272 941 3272 1375 
Q 3272 1813 3026 2020 
Q 2781 2228 2272 2228 
L 1259 2228 
z
M 1259 4147 
L 1259 2741 
L 2194 2741 
Q 2656 2741 2882 2914 
Q 3109 3088 3109 3444 
Q 3109 3797 2882 3972 
Q 2656 4147 2194 4147 
L 1259 4147 
z
M 628 4666 
L 2241 4666 
Q 2963 4666 3353 4366 
Q 3744 4066 3744 3513 
Q 3744 3084 3544 2831 
Q 3344 2578 2956 2516 
Q 3422 2416 3680 2098 
Q 3938 1781 3938 1306 
Q 3938 681 3513 340 
Q 3088 0 2303 0 
L 628 0 
L 628 4666 
z
" transform="scale(0.015625)"/>
       <path id="DejaVuSans-49" d="M 628 4666 
L 1259 4666 
L 1259 0 
L 628 0 
L 628 4666 
z
" transform="scale(0.015625)"/>
      </defs>
      <use xlink:href="#DejaVuSans-56"/>
      <use xlink:href="#DejaVuSans-50" x="68.408203"/>
      <use xlink:href="#DejaVuSans-55" x="128.710938"/>
      <use xlink:href="#DejaVuSans-4c" x="201.904297"/>
      <use xlink:href="#DejaVuSans-53" x="257.617188"/>
      <use xlink:href="#DejaVuSans-45" x="321.09375"/>
      <use xlink:href="#DejaVuSans-20" x="384.277344"/>
      <use xlink:href="#DejaVuSans-42" x="416.064453"/>
      <use xlink:href="#DejaVuSans-42" x="484.667969"/>
      <use xlink:href="#DejaVuSans-49" x="553.271484"/>
     </g>
    </g>
   </g>
   <g id="line2d_17">
    <path d="M 141.12 45.027377 
L 195.987456 45.136282 
L 196.471296 46.425538 
L 204.696576 69.006772 
L 212.115456 89.863624 
L 213.728256 94.440546 
L 215.534592 99.673219 
L 219.01824 110.807642 
L 220.598784 115.853719 
L 221.856768 119.566971 
L 223.082496 120.153414 
L 223.921152 120.545265 
L 224.953344 121.017085 
L 225.533952 121.272988 
L 226.404864 121.656841 
L 226.985472 121.912744 
L 227.824128 122.269941 
L 229.404672 122.936354 
L 230.049792 123.202919 
L 231.146496 123.629423 
L 231.888384 123.922644 
L 232.985088 124.349149 
L 233.888256 124.677024 
L 234.565632 124.943589 
L 235.372032 125.25547 
L 236.726784 125.804594 
L 239.371776 126.790885 
L 239.98464 127.022796 
L 241.92 127.395987 
L 260.402688 127.289361 
L 260.62848 126.801547 
L 278.917632 75.087922 
L 282.659328 63.292417 
L 286.368768 51.617666 
L 290.981376 49.3412 
L 296.335872 46.984578 
L 305.044992 43.484472 
L 305.915904 43.268927 
L 320.205312 43.108189 
L 327.011328 43.184799 
L 342.365184 43.746186 
L 370.1376 44.46146 
L 395.78112 44.774399 
L 431.391744 44.945888 
L 479.420928 44.953885 
L 947.52 44.953885 
L 947.52 44.953885 
" clip-path="url(#pb2c8e3b5ea)" style="fill: none; stroke: #ff0000; stroke-width: 2; stroke-linecap: square"/>
   </g>
   <g id="patch_4">
    <path d="M 100.8 131.611034 
L 100.8 38.88 
" style="fill: none; stroke: #bcbcbc; stroke-width: 0.8; stroke-linejoin: miter; stroke-linecap: square"/>
   </g>
   <g id="patch_5">
    <path d="M 987.84 131.611034 
L 987.84 38.88 
" style="fill: none; stroke: #bcbcbc; stroke-width: 0.8; stroke-linejoin: miter; stroke-linecap: square"/>
   </g>
   <g id="patch_6">
    <path d="M 100.8 131.611034 
L 987.84 131.611034 
" style="fill: none; stroke: #bcbcbc; stroke-width: 0.8; stroke-linejoin: miter; stroke-linecap: square"/>
   </g>
   <g id="patch_7">
    <path d="M 100.8 38.88 
L 987.84 38.88 
" style="fill: none; stroke: #bcbcbc; stroke-width: 0.8; stroke-linejoin: miter; stroke-linecap: square"/>
   </g>
  </g>
  <g id="axes_2">
   <g id="patch_8">
    <path d="M 100.8 242.888276 
L 987.84 242.888276 
L 987.84 150.157241 
L 100.8 150.157241 
z
" style="fill: #eeeeee"/>
   </g>
   <g id="matplotlib.axis_3">
    <g id="xtick_7">
     <g id="line2d_18">
      <path d="M 141.12 242.888276 
L 141.12 150.157241 
" clip-path="url(#pd0ecf18c06)" style="fill: none; stroke-dasharray: 1.85,0.8; stroke-dashoffset: 0; stroke: #b2b2b2; stroke-width: 0.5"/>
     </g>
     <g id="line2d_19">
      <g>
       <use xlink:href="#m3f3b8f76ef" x="141.12" y="242.888276" style="stroke: #000000; stroke-width: 0.8"/>
      </g>
     </g>
    </g>
    <g id="xtick_8">
     <g id="line2d_20">
      <path d="M 302.4 242.888276 
L 302.4 150.157241 
" clip-path="url(#pd0ecf18c06)" style="fill: none; stroke-dasharray: 1.85,0.8; stroke-dashoffset: 0; stroke: #b2b2b2; stroke-width: 0.5"/>
     </g>
     <g id="line2d_21">
      <g>
       <use xlink:href="#m3f3b8f76ef" x="302.4" y="242.888276" style="stroke: #000000; stroke-width: 0.8"/>
      </g>
     </g>
    </g>
    <g id="xtick_9">
     <g id="line2d_22">
      <path d="M 463.68 242.888276 
L 463.68 150.157241 
" clip-path="url(#pd0ecf18c06)" style="fill: none; stroke-dasharray: 1.85,0.8; stroke-dashoffset: 0; stroke: #b2b2b2; stroke-width: 0.5"/>
     </g>
     <g id="line2d_23">
      <g>
       <use xlink:href="#m3f3b8f76ef" x="463.68" y="242.888276" style="stroke: #000000; stroke-width: 0.8"/>
      </g>
     </g>
    </g>
    <g id="xtick_10">
     <g id="line2d_24">
      <path d="M 624.96 242.888276 
L 624.96 150.157241 
" clip-path="url(#pd0ecf18c06)" style="fill: none; stroke-dasharray: 1.85,0.8; stroke-dashoffset: 0; stroke: #b2b2b2; stroke-width: 0.5"/>
     </g>
     <g id="line2d_25">
      <g>
       <use xlink:href="#m3f3b8f76ef" x="624.96" y="242.888276" style="stroke: #000000; stroke-width: 0.8"/>
      </g>
     </g>
    </g>
    <g id="xtick_11">
     <g id="line2d_26">
      <path d="M 786.24 242.888276 
L 786.24 150.157241 
" clip-path="url(#pd0ecf18c06)" style="fill: none; stroke-dasharray: 1.85,0.8; stroke-dashoffset: 0; stroke: #b2b2b2; stroke-width: 0.5"/>
     </g>
     <g id="line2d_27">
      <g>
       <use xlink:href="#m3f3b8f76ef" x="786.24" y="242.888276" style="stroke: #000000; stroke-width: 0.8"/>
      </g>
     </g>
    </g>
    <g id="xtick_12">
     <g id="line2d_28">
      <path d="M 947.52 242.888276 
L 947.52 150.157241 
" clip-path="url(#pd0ecf18c06)" style="fill: none; stroke-dasharray: 1.85,0.8; stroke-dashoffset: 0; stroke: #b2b2b2; stroke-width: 0.5"/>
     </g>
     <g id="line2d_29">
      <g>
       <use xlink:href="#m3f3b8f76ef" x="947.52" y="242.888276" style="stroke: #000000; stroke-width: 0.8"/>
      </g>
     </g>
    </g>
   </g>
   <g id="matplotlib.axis_4">
    <g id="ytick_3">
     <g id="line2d_30">
      <path d="M 100.8 212.99135 
L 987.84 212.99135 
" clip-path="url(#pd0ecf18c06)" style="fill: none; stroke-dasharray: 1.85,0.8; stroke-dashoffset: 0; stroke: #b2b2b2; stroke-width: 0.5"/>
     </g>
     <g id="line2d_31">
      <g>
       <use xlink:href="#m92b16a5352" x="100.8" y="212.99135" style="stroke: #000000; stroke-width: 0.8"/>
      </g>
     </g>
     <g id="text_4">
      <!-- 0 V -->
      <g transform="translate(74.36625 218.310256) scale(0.14 -0.14)">
       <use xlink:href="#DejaVuSans-30"/>
       <use xlink:href="#DejaVuSans-20" x="63.623047"/>
       <use xlink:href="#DejaVuSans-56" x="95.410156"/>
      </g>
     </g>
    </g>
    <g id="ytick_4">
     <g id="line2d_32">
      <path d="M 100.8 168.359812 
L 987.84 168.359812 
" clip-path="url(#pd0ecf18c06)" style="fill: none; stroke-dasharray: 1.85,0.8; stroke-dashoffset: 0; stroke: #b2b2b2; stroke-width: 0.5"/>
     </g>
     <g id="line2d_33">
      <g>
       <use xlink:href="#m92b16a5352" x="100.8" y="168.359812" style="stroke: #000000; stroke-width: 0.8"/>
      </g>
     </g>
     <g id="text_5">
      <!-- 1 V -->
      <g transform="translate(74.36625 173.678718) scale(0.14 -0.14)">
       <defs>
        <path id="DejaVuSans-31" d="M 794 531 
L 1825 531 
L 1825 4091 
L 703 3866 
L 703 4441 
L 1819 4666 
L 2450 4666 
L 2450 531 
L 3481 531 
L 3481 0 
L 794 0 
L 794 531 
z
" transform="scale(0.015625)"/>
       </defs>
       <use xlink:href="#DejaVuSans-31"/>
       <use xlink:href="#DejaVuSans-20" x="63.623047"/>
       <use xlink:href="#DejaVuSans-56" x="95.410156"/>
      </g>
     </g>
    </g>
    <g id="text_6">
     <g id="patch_9">
      <path d="M 34.8768 224.531509 
L 34.8768 168.514009 
L 11.247425 168.514009 
L 11.247425 224.531509 
z
" style="fill: #ffff00; opacity: 0.2; stroke: #eeeeee; stroke-width: 0.5; stroke-linejoin: miter"/>
     </g>
     <!-- DFF IN -->
     <g transform="translate(26.925238 219.491509) rotate(-90) scale(0.14 -0.14)">
      <defs>
       <path id="DejaVuSans-44" d="M 1259 4147 
L 1259 519 
L 2022 519 
Q 2988 519 3436 956 
Q 3884 1394 3884 2338 
Q 3884 3275 3436 3711 
Q 2988 4147 2022 4147 
L 1259 4147 
z
M 628 4666 
L 1925 4666 
Q 3281 4666 3915 4102 
Q 4550 3538 4550 2338 
Q 4550 1131 3912 565 
Q 3275 0 1925 0 
L 628 0 
L 628 4666 
z
" transform="scale(0.015625)"/>
       <path id="DejaVuSans-46" d="M 628 4666 
L 3309 4666 
L 3309 4134 
L 1259 4134 
L 1259 2759 
L 3109 2759 
L 3109 2228 
L 1259 2228 
L 1259 0 
L 628 0 
L 628 4666 
z
" transform="scale(0.015625)"/>
       <path id="DejaVuSans-4e" d="M 628 4666 
L 1478 4666 
L 3547 763 
L 3547 4666 
L 4159 4666 
L 4159 0 
L 3309 0 
L 1241 3903 
L 1241 0 
L 628 0 
L 628 4666 
z
" transform="scale(0.015625)"/>
      </defs>
      <use xlink:href="#DejaVuSans-44"/>
      <use xlink:href="#DejaVuSans-46" x="77.001953"/>
      <use xlink:href="#DejaVuSans-46" x="134.521484"/>
      <use xlink:href="#DejaVuSans-20" x="192.041016"/>
      <use xlink:href="#DejaVuSans-49" x="223.828125"/>
      <use xlink:href="#DejaVuSans-4e" x="253.320312"/>
     </g>
    </g>
   </g>
   <g id="line2d_34">
    <path d="M 141.12 212.92617 
L 196.019712 213.002443 
L 197.40672 214.777414 
L 197.955072 215.290722 
L 198.600192 215.746544 
L 199.438848 216.1576 
L 200.567808 216.44592 
L 202.148352 216.607486 
L 204.148224 216.803686 
L 204.890112 217.290572 
L 206.180352 218.191816 
L 209.276928 220.420269 
L 210.405888 221.325397 
L 211.147776 221.637817 
L 211.696128 221.605683 
L 212.018688 221.411535 
L 212.308992 221.219174 
L 212.857344 220.55818 
L 213.599232 219.628506 
L 213.760512 219.732943 
L 214.083072 220.351536 
L 214.889472 222.059139 
L 214.953984 222.156882 
L 215.179776 222.480461 
L 215.341056 222.90089 
L 215.986176 225.09453 
L 216.27648 225.570748 
L 216.43776 225.961721 
L 216.534528 226.245577 
L 217.308672 228.485188 
L 218.244096 230.83727 
L 218.598912 231.59913 
L 218.727936 231.816039 
L 218.953728 232.265925 
L 219.244032 232.913529 
L 221.43744 238.126493 
L 221.469696 238.107301 
L 221.501952 238.166215 
L 221.856768 238.673229 
L 221.92128 238.632168 
L 221.985792 238.637524 
L 222.211584 238.253246 
L 222.24384 238.266189 
L 223.05024 236.648742 
L 223.3728 235.836895 
L 224.114688 234.709948 
L 224.534016 234.113671 
L 224.888832 233.213007 
L 225.30816 232.526574 
L 225.404928 232.560047 
L 225.437184 232.533268 
L 225.95328 232.004831 
L 226.727424 231.140318 
L 227.049984 230.600723 
L 227.469312 229.711662 
L 227.824128 229.372016 
L 227.985408 229.34613 
L 228.469248 228.91008 
L 228.727296 228.723074 
L 229.727232 227.525163 
L 230.14656 226.687876 
L 230.243328 226.676272 
L 230.727168 226.093384 
L 230.823936 226.015279 
L 231.11424 225.851481 
L 231.404544 225.654209 
L 232.598016 224.312139 
L 233.339904 222.954448 
L 233.53344 222.967391 
L 233.759232 222.903568 
L 234.33984 222.421101 
L 236.2752 220.133735 
L 236.43648 219.997608 
L 236.59776 219.884691 
L 239.307264 217.422592 
L 239.791104 216.728348 
L 240.403968 216.201964 
L 241.468416 214.978435 
L 242.468352 213.355958 
L 243.726336 211.065231 
L 244.50048 209.561327 
L 244.952064 208.733144 
L 248.435712 202.908193 
L 249.82272 200.977879 
L 250.30656 200.186562 
L 250.725888 198.684264 
L 253.145088 189.936929 
L 253.628928 188.937183 
L 254.628864 186.790406 
L 255.048192 186.058895 
L 255.46752 185.476453 
L 256.370688 183.749659 
L 257.08032 182.715993 
L 257.693184 181.812204 
L 258.660864 180.171549 
L 259.98336 178.584897 
L 260.531712 177.634692 
L 260.95104 175.850769 
L 262.467072 168.92574 
L 263.305728 166.288909 
L 263.950848 164.802679 
L 264.079872 166.257667 
L 264.595968 174.631882 
L 265.079808 182.176397 
L 265.918464 189.695919 
L 267.111936 198.535641 
L 267.950592 203.094753 
L 268.627968 205.472721 
L 269.369856 207.09597 
L 269.82144 207.714563 
L 270.9504 208.593893 
L 271.498752 208.811249 
L 272.047104 208.947509 
L 272.918016 209.146432 
L 274.272768 209.310542 
L 277.433856 209.495361 
L 278.304768 209.527585 
L 278.69184 209.533298 
L 279.207936 209.550392 
L 279.65952 209.550303 
L 281.336832 209.272025 
L 281.627136 209.212844 
L 282.594816 209.090018 
L 282.949632 209.054982 
L 283.756032 208.942332 
L 284.110848 208.888551 
L 284.755968 208.799288 
L 285.272064 208.731983 
L 285.78816 208.636338 
L 286.43328 208.762913 
L 287.465472 209.865803 
L 287.917056 210.277261 
L 289.82016 211.255495 
L 291.239424 211.57171 
L 294.787584 211.966163 
L 298.626048 212.259482 
L 305.528832 212.561628 
L 305.722368 212.608893 
L 306.786816 212.816648 
L 307.173888 212.886242 
L 308.270592 213.000828 
L 308.68992 213.066839 
L 309.464064 213.115367 
L 309.851136 213.155495 
L 310.689792 213.174214 
L 311.044608 213.185189 
L 311.91552 213.231525 
L 312.205824 213.223746 
L 313.592832 213.253872 
L 313.947648 213.272814 
L 315.270144 213.299901 
L 315.592704 213.310322 
L 317.592576 213.326617 
L 322.269696 213.367593 
L 334.365696 213.366643 
L 334.752768 213.347134 
L 335.978496 213.358627 
L 336.365568 213.339248 
L 337.204224 213.365304 
L 337.655808 213.341417 
L 338.333184 213.328148 
L 338.720256 213.33083 
L 339.365376 213.328443 
L 339.784704 213.323672 
L 340.46208 213.319423 
L 340.816896 213.322551 
L 341.42976 213.312732 
L 341.784576 213.317932 
L 342.300672 213.294969 
L 342.687744 213.306609 
L 343.268352 213.301173 
L 343.719936 213.285494 
L 344.300544 213.296473 
L 344.784384 213.277969 
L 345.364992 213.292818 
L 345.848832 213.2753 
L 346.332672 213.275715 
L 346.816512 213.26457 
L 347.300352 213.269618 
L 347.71968 213.257769 
L 347.88096 211.293566 
L 349.300224 193.591359 
L 350.751744 178.289437 
L 352.332288 164.771437 
L 353.138688 159.71022 
L 353.68704 157.523275 
L 354.428928 155.778182 
L 355.170816 154.934646 
L 355.912704 154.550815 
L 356.91264 154.376752 
L 358.170624 154.439236 
L 358.589952 154.492794 
L 359.557632 154.599909 
L 360.364032 154.711488 
L 361.073664 154.814141 
L 361.654272 154.867698 
L 362.299392 154.970351 
L 363.073536 155.073004 
L 370.427904 155.979024 
L 370.879488 156.028118 
L 373.84704 156.32715 
L 374.911488 156.434265 
L 375.105024 156.532455 
L 375.94368 158.884537 
L 376.363008 160.165462 
L 376.717824 160.549293 
L 377.07264 160.70104 
L 377.491968 160.656409 
L 377.911296 160.379693 
L 379.717632 158.768495 
L 381.846528 158.000832 
L 383.330304 157.893717 
L 384.265728 157.866938 
L 384.556032 157.871401 
L 385.491456 157.849085 
L 385.78176 157.866938 
L 386.781696 157.835696 
L 387.39456 157.808917 
L 388.297728 157.795527 
L 396.006912 157.902643 
L 397.103616 157.947275 
L 397.813248 157.960664 
L 398.168064 157.991906 
L 400.748544 158.090095 
L 401.071104 158.112411 
L 404.038656 158.219527 
L 404.457984 158.232916 
L 405.167616 158.246306 
L 405.683712 158.282011 
L 408.941568 158.3802 
L 409.264128 158.402516 
L 410.006016 158.411443 
L 413.19936 158.509632 
L 413.52192 158.531948 
L 415.425024 158.473927 
L 415.908864 157.755359 
L 416.42496 157.393843 
L 417.457152 157.358138 
L 418.102272 157.554517 
L 418.779648 157.804454 
L 421.231104 158.375737 
L 422.005248 158.482853 
L 422.650368 158.5498 
L 423.972864 158.621211 
L 426.26304 158.723863 
L 426.811392 158.764032 
L 431.649792 158.871147 
L 432.649728 158.897926 
L 455.745024 158.991653 
L 456.325632 159.812873 
L 456.712704 160.076199 
L 457.293312 160.277041 
L 458.099712 160.277041 
L 462.422016 159.567399 
L 463.421952 159.402263 
L 466.712064 159.0586 
L 496.032768 158.951484 
L 496.548864 158.174895 
L 497.097216 157.786601 
L 498.3552 157.715191 
L 502.129152 158.64799 
L 504.193536 158.822053 
L 528.546816 158.929168 
L 529.385472 158.933632 
L 536.385024 158.996116 
L 536.965632 159.817336 
L 537.352704 160.080662 
L 538.094592 160.281504 
L 540.191232 160.174388 
L 542.287872 159.705757 
L 547.771392 159.0586 
L 576.672768 158.955947 
L 577.253376 158.116874 
L 578.059776 157.692875 
L 580.220928 158.103485 
L 582.156288 158.527485 
L 584.96256 158.8042 
L 591.155712 158.911316 
L 592.026624 158.920242 
L 617.025024 158.996116 
L 617.605632 159.817336 
L 617.992704 160.080662 
L 618.734592 160.281504 
L 620.831232 160.174388 
L 622.927872 159.705757 
L 628.411392 159.0586 
L 657.312768 158.951484 
L 657.828864 158.174895 
L 658.377216 157.786601 
L 659.6352 157.715191 
L 663.409152 158.64799 
L 665.473536 158.822053 
L 681.440256 158.929168 
L 682.278912 158.933632 
L 697.665024 158.996116 
L 698.245632 159.817336 
L 698.632704 160.080662 
L 699.374592 160.281504 
L 701.471232 160.174388 
L 703.567872 159.705757 
L 709.051392 159.0586 
L 737.952768 158.951484 
L 738.468864 158.174895 
L 739.017216 157.786601 
L 740.2752 157.715191 
L 744.049152 158.64799 
L 746.113536 158.822053 
L 762.080256 158.929168 
L 762.918912 158.933632 
L 778.305024 158.996116 
L 778.885632 159.817336 
L 779.272704 160.080662 
L 780.014592 160.281504 
L 782.111232 160.174388 
L 784.207872 159.705757 
L 789.691392 159.0586 
L 818.592768 158.951484 
L 819.108864 158.174895 
L 819.657216 157.786601 
L 820.9152 157.715191 
L 824.689152 158.64799 
L 826.753536 158.822053 
L 842.720256 158.929168 
L 843.558912 158.933632 
L 858.945024 158.996116 
L 859.525632 159.817336 
L 859.912704 160.080662 
L 860.654592 160.281504 
L 862.751232 160.174388 
L 864.847872 159.705757 
L 870.331392 159.0586 
L 899.232768 158.951484 
L 899.748864 158.174895 
L 900.297216 157.786601 
L 901.5552 157.715191 
L 905.329152 158.64799 
L 907.393536 158.822053 
L 923.424768 158.929168 
L 924.263424 158.933632 
L 939.585024 158.991653 
L 940.10112 159.750389 
L 940.58496 160.071736 
L 941.294592 160.339525 
L 943.262208 160.236872 
L 945.74592 159.661126 
L 947.35872 159.326389 
L 947.52 159.290684 
L 947.52 159.290684 
" clip-path="url(#pd0ecf18c06)" style="fill: none; stroke: #008000; stroke-width: 2; stroke-linecap: square"/>
   </g>
   <g id="patch_10">
    <path d="M 100.8 242.888276 
L 100.8 150.157241 
" style="fill: none; stroke: #bcbcbc; stroke-width: 0.8; stroke-linejoin: miter; stroke-linecap: square"/>
   </g>
   <g id="patch_11">
    <path d="M 987.84 242.888276 
L 987.84 150.157241 
" style="fill: none; stroke: #bcbcbc; stroke-width: 0.8; stroke-linejoin: miter; stroke-linecap: square"/>
   </g>
   <g id="patch_12">
    <path d="M 100.8 242.888276 
L 987.84 242.888276 
" style="fill: none; stroke: #bcbcbc; stroke-width: 0.8; stroke-linejoin: miter; stroke-linecap: square"/>
   </g>
   <g id="patch_13">
    <path d="M 100.8 150.157241 
L 987.84 150.157241 
" style="fill: none; stroke: #bcbcbc; stroke-width: 0.8; stroke-linejoin: miter; stroke-linecap: square"/>
   </g>
  </g>
  <g id="axes_3">
   <g id="patch_14">
    <path d="M 100.8 354.165517 
L 987.84 354.165517 
L 987.84 261.434483 
L 100.8 261.434483 
z
" style="fill: #eeeeee"/>
   </g>
   <g id="matplotlib.axis_5">
    <g id="xtick_13">
     <g id="line2d_35">
      <path d="M 141.12 354.165517 
L 141.12 261.434483 
" clip-path="url(#pdbf4dafa57)" style="fill: none; stroke-dasharray: 1.85,0.8; stroke-dashoffset: 0; stroke: #b2b2b2; stroke-width: 0.5"/>
     </g>
     <g id="line2d_36">
      <g>
       <use xlink:href="#m3f3b8f76ef" x="141.12" y="354.165517" style="stroke: #000000; stroke-width: 0.8"/>
      </g>
     </g>
    </g>
    <g id="xtick_14">
     <g id="line2d_37">
      <path d="M 302.4 354.165517 
L 302.4 261.434483 
" clip-path="url(#pdbf4dafa57)" style="fill: none; stroke-dasharray: 1.85,0.8; stroke-dashoffset: 0; stroke: #b2b2b2; stroke-width: 0.5"/>
     </g>
     <g id="line2d_38">
      <g>
       <use xlink:href="#m3f3b8f76ef" x="302.4" y="354.165517" style="stroke: #000000; stroke-width: 0.8"/>
      </g>
     </g>
    </g>
    <g id="xtick_15">
     <g id="line2d_39">
      <path d="M 463.68 354.165517 
L 463.68 261.434483 
" clip-path="url(#pdbf4dafa57)" style="fill: none; stroke-dasharray: 1.85,0.8; stroke-dashoffset: 0; stroke: #b2b2b2; stroke-width: 0.5"/>
     </g>
     <g id="line2d_40">
      <g>
       <use xlink:href="#m3f3b8f76ef" x="463.68" y="354.165517" style="stroke: #000000; stroke-width: 0.8"/>
      </g>
     </g>
    </g>
    <g id="xtick_16">
     <g id="line2d_41">
      <path d="M 624.96 354.165517 
L 624.96 261.434483 
" clip-path="url(#pdbf4dafa57)" style="fill: none; stroke-dasharray: 1.85,0.8; stroke-dashoffset: 0; stroke: #b2b2b2; stroke-width: 0.5"/>
     </g>
     <g id="line2d_42">
      <g>
       <use xlink:href="#m3f3b8f76ef" x="624.96" y="354.165517" style="stroke: #000000; stroke-width: 0.8"/>
      </g>
     </g>
    </g>
    <g id="xtick_17">
     <g id="line2d_43">
      <path d="M 786.24 354.165517 
L 786.24 261.434483 
" clip-path="url(#pdbf4dafa57)" style="fill: none; stroke-dasharray: 1.85,0.8; stroke-dashoffset: 0; stroke: #b2b2b2; stroke-width: 0.5"/>
     </g>
     <g id="line2d_44">
      <g>
       <use xlink:href="#m3f3b8f76ef" x="786.24" y="354.165517" style="stroke: #000000; stroke-width: 0.8"/>
      </g>
     </g>
    </g>
    <g id="xtick_18">
     <g id="line2d_45">
      <path d="M 947.52 354.165517 
L 947.52 261.434483 
" clip-path="url(#pdbf4dafa57)" style="fill: none; stroke-dasharray: 1.85,0.8; stroke-dashoffset: 0; stroke: #b2b2b2; stroke-width: 0.5"/>
     </g>
     <g id="line2d_46">
      <g>
       <use xlink:href="#m3f3b8f76ef" x="947.52" y="354.165517" style="stroke: #000000; stroke-width: 0.8"/>
      </g>
     </g>
    </g>
   </g>
   <g id="matplotlib.axis_6">
    <g id="ytick_5">
     <g id="line2d_47">
      <path d="M 100.8 344.749769 
L 987.84 344.749769 
" clip-path="url(#pdbf4dafa57)" style="fill: none; stroke-dasharray: 1.85,0.8; stroke-dashoffset: 0; stroke: #b2b2b2; stroke-width: 0.5"/>
     </g>
     <g id="line2d_48">
      <g>
       <use xlink:href="#m92b16a5352" x="100.8" y="344.749769" style="stroke: #000000; stroke-width: 0.8"/>
      </g>
     </g>
     <g id="text_7">
      <!-- 0 V -->
      <g transform="translate(74.36625 350.068675) scale(0.14 -0.14)">
       <use xlink:href="#DejaVuSans-30"/>
       <use xlink:href="#DejaVuSans-20" x="63.623047"/>
       <use xlink:href="#DejaVuSans-56" x="95.410156"/>
      </g>
     </g>
    </g>
    <g id="ytick_6">
     <g id="line2d_49">
      <path d="M 100.8 303.705643 
L 987.84 303.705643 
" clip-path="url(#pdbf4dafa57)" style="fill: none; stroke-dasharray: 1.85,0.8; stroke-dashoffset: 0; stroke: #b2b2b2; stroke-width: 0.5"/>
     </g>
     <g id="line2d_50">
      <g>
       <use xlink:href="#m92b16a5352" x="100.8" y="303.705643" style="stroke: #000000; stroke-width: 0.8"/>
      </g>
     </g>
     <g id="text_8">
      <!-- 1 V -->
      <g transform="translate(74.36625 309.024549) scale(0.14 -0.14)">
       <use xlink:href="#DejaVuSans-31"/>
       <use xlink:href="#DejaVuSans-20" x="63.623047"/>
       <use xlink:href="#DejaVuSans-56" x="95.410156"/>
      </g>
     </g>
    </g>
    <g id="ytick_7">
     <g id="line2d_51">
      <path d="M 100.8 262.661517 
L 987.84 262.661517 
" clip-path="url(#pdbf4dafa57)" style="fill: none; stroke-dasharray: 1.85,0.8; stroke-dashoffset: 0; stroke: #b2b2b2; stroke-width: 0.5"/>
     </g>
     <g id="line2d_52">
      <g>
       <use xlink:href="#m92b16a5352" x="100.8" y="262.661517" style="stroke: #000000; stroke-width: 0.8"/>
      </g>
     </g>
     <g id="text_9">
      <!-- 2 V -->
      <g transform="translate(74.36625 267.980424) scale(0.14 -0.14)">
       <use xlink:href="#DejaVuSans-32"/>
       <use xlink:href="#DejaVuSans-20" x="63.623047"/>
       <use xlink:href="#DejaVuSans-56" x="95.410156"/>
      </g>
     </g>
    </g>
    <g id="text_10">
     <g id="patch_15">
      <path d="M 34.8768 342.395313 
L 34.8768 273.204688 
L 11.247425 273.204688 
L 11.247425 342.395313 
z
" style="fill: #ffff00; opacity: 0.2; stroke: #eeeeee; stroke-width: 0.5; stroke-linejoin: miter"/>
     </g>
     <!-- CLK BUF -->
     <g transform="translate(26.925238 337.355313) rotate(-90) scale(0.14 -0.14)">
      <defs>
       <path id="DejaVuSans-43" d="M 4122 4306 
L 4122 3641 
Q 3803 3938 3442 4084 
Q 3081 4231 2675 4231 
Q 1875 4231 1450 3742 
Q 1025 3253 1025 2328 
Q 1025 1406 1450 917 
Q 1875 428 2675 428 
Q 3081 428 3442 575 
Q 3803 722 4122 1019 
L 4122 359 
Q 3791 134 3420 21 
Q 3050 -91 2638 -91 
Q 1578 -91 968 557 
Q 359 1206 359 2328 
Q 359 3453 968 4101 
Q 1578 4750 2638 4750 
Q 3056 4750 3426 4639 
Q 3797 4528 4122 4306 
z
" transform="scale(0.015625)"/>
       <path id="DejaVuSans-4b" d="M 628 4666 
L 1259 4666 
L 1259 2694 
L 3353 4666 
L 4166 4666 
L 1850 2491 
L 4331 0 
L 3500 0 
L 1259 2247 
L 1259 0 
L 628 0 
L 628 4666 
z
" transform="scale(0.015625)"/>
      </defs>
      <use xlink:href="#DejaVuSans-43"/>
      <use xlink:href="#DejaVuSans-4c" x="69.824219"/>
      <use xlink:href="#DejaVuSans-4b" x="125.537109"/>
      <use xlink:href="#DejaVuSans-20" x="191.113281"/>
      <use xlink:href="#DejaVuSans-42" x="222.900391"/>
      <use xlink:href="#DejaVuSans-55" x="291.503906"/>
      <use xlink:href="#DejaVuSans-46" x="364.697266"/>
     </g>
    </g>
   </g>
   <g id="line2d_53">
    <path d="M 141.12 344.748684 
L 173.376 344.748684 
L 173.601792 295.496818 
L 196.051968 295.603533 
L 197.697024 297.873273 
L 199.374336 300.635543 
L 206.27712 311.840589 
L 209.50272 316.524134 
L 212.050944 319.937364 
L 212.341248 320.343701 
L 213.696 322.123784 
L 213.760512 320.607204 
L 213.792768 320.981526 
L 214.115328 345.929665 
L 215.3088 346.263107 
L 215.889408 346.571841 
L 217.469952 347.461431 
L 221.953536 349.851964 
L 222.759936 349.479284 
L 225.759744 348.371831 
L 225.792 348.44489 
L 225.888768 348.400849 
L 226.082304 348.327955 
L 227.72736 347.804683 
L 228.114432 347.68742 
L 229.114368 347.383817 
L 234.50112 345.921825 
L 237.791232 345.235937 
L 243.04896 344.343555 
L 243.629568 344.295328 
L 245.1456 344.221983 
L 249.854976 344.237005 
L 251.75808 344.266926 
L 252.274176 344.267295 
L 254.016 344.285396 
L 254.048256 341.174046 
L 254.209536 313.923989 
L 254.274048 313.98104 
L 254.33856 313.944921 
L 259.531776 311.425633 
L 260.531712 310.88344 
L 261.91872 308.400681 
L 264.01536 304.049183 
L 268.176384 295.455774 
L 268.85376 294.130049 
L 270.62784 290.76443 
L 276.079104 281.270924 
L 277.07904 279.686621 
L 278.85312 276.965395 
L 286.304256 265.768558 
L 287.755776 265.686469 
L 290.174976 266.408846 
L 291.691008 267.057343 
L 293.626368 267.906957 
L 294.045696 268.09576 
L 294.336 268.210683 
L 294.49728 345.084234 
L 294.529536 345.22153 
L 294.594048 345.127211 
L 294.916608 345.122716 
L 307.270656 345.198176 
L 311.238144 345.208889 
L 334.656 345.013921 
L 334.785024 285.28504 
L 334.881792 285.399963 
L 335.010816 285.568244 
L 335.430144 285.674959 
L 336.946176 286.142862 
L 337.365504 286.249577 
L 338.333184 286.512259 
L 338.720256 286.618974 
L 339.687936 286.881656 
L 340.075008 286.988371 
L 340.94592 287.210009 
L 341.332992 287.316724 
L 342.107136 287.497318 
L 342.494208 287.604033 
L 343.268352 287.784627 
L 343.752192 287.891342 
L 344.526336 288.071936 
L 345.010176 288.17865 
L 345.78432 288.359245 
L 346.26816 288.465959 
L 346.91328 288.605509 
L 347.429376 288.712224 
L 348.074496 288.851774 
L 348.590592 288.958489 
L 349.235712 289.098039 
L 349.751808 289.204754 
L 350.30016 289.303259 
L 350.816256 289.409974 
L 351.364608 289.50848 
L 351.977472 289.615195 
L 352.525824 289.713701 
L 353.04192 289.820415 
L 353.590272 289.918921 
L 354.203136 290.025636 
L 354.751488 290.124142 
L 355.46112 290.226752 
L 355.815936 290.288319 
L 356.4288 290.390929 
L 356.783616 290.452495 
L 357.493248 290.555105 
L 357.848064 290.616672 
L 358.557696 290.719282 
L 358.912512 290.780848 
L 359.622144 290.883458 
L 359.97696 290.945025 
L 360.78336 291.047635 
L 361.138176 291.109201 
L 362.041344 291.211811 
L 362.39616 291.273378 
L 363.20256 291.375988 
L 363.460608 291.39651 
L 364.17024 291.49912 
L 364.428288 291.519642 
L 365.234688 291.622253 
L 365.589504 291.679714 
L 371.331072 292.299481 
L 372.298752 292.402091 
L 372.5568 292.422613 
L 373.556736 292.525223 
L 373.814784 292.545745 
L 374.911488 292.648356 
L 374.976 292.664773 
L 375.008256 298.218044 
L 375.13728 344.850372 
L 375.330816 344.827289 
L 378.878976 344.817828 
L 415.296 344.770459 
L 415.45728 294.700562 
L 415.521792 294.721084 
L 416.360448 294.71698 
L 416.74752 294.758024 
L 421.940736 294.864739 
L 422.198784 294.881156 
L 428.714496 294.987871 
L 428.972544 295.004289 
L 455.616 295.086377 
L 455.745024 345.063231 
L 455.906304 344.82456 
L 456.164352 344.733003 
L 456.519168 344.777684 
L 456.841728 344.760225 
L 495.936 344.760437 
L 496.09728 294.872947 
L 496.161792 295.336746 
L 496.25856 294.913991 
L 496.323072 295.069959 
L 496.806912 295.086377 
L 536.256 295.086377 
L 536.385024 345.063231 
L 536.546304 344.82456 
L 536.804352 344.733003 
L 537.159168 344.777683 
L 537.481728 344.760222 
L 576.576 344.760438 
L 576.705024 294.918096 
L 576.769536 295.090481 
L 576.834048 295.119212 
L 576.866304 295.094586 
L 577.05984 295.086377 
L 616.896 295.086377 
L 617.025024 345.063215 
L 617.186304 344.824519 
L 617.444352 344.733021 
L 617.799168 344.777674 
L 618.121728 344.760222 
L 657.216 344.760438 
L 657.37728 294.872947 
L 657.441792 295.336746 
L 657.53856 294.918096 
L 657.603072 295.069959 
L 658.086912 295.086377 
L 697.536 295.086377 
L 697.665024 345.063231 
L 697.826304 344.824506 
L 698.084352 344.733016 
L 698.439168 344.777693 
L 698.761728 344.760223 
L 737.856 344.760438 
L 738.01728 294.872947 
L 738.081792 295.336746 
L 738.17856 294.913991 
L 738.243072 295.069959 
L 738.726912 295.086377 
L 778.176 295.086377 
L 778.305024 345.06317 
L 778.466304 344.824523 
L 778.724352 344.73302 
L 779.079168 344.777674 
L 779.401728 344.760222 
L 818.496 344.760438 
L 818.65728 294.872947 
L 818.721792 295.336746 
L 818.81856 294.913991 
L 818.883072 295.069959 
L 819.366912 295.086377 
L 858.816 295.086377 
L 858.945024 345.063268 
L 859.106304 344.824502 
L 859.364352 344.733019 
L 859.719168 344.777691 
L 860.041728 344.760223 
L 899.136 344.760438 
L 899.29728 294.872947 
L 899.361792 295.336746 
L 899.45856 294.913991 
L 899.523072 295.069959 
L 900.006912 295.086377 
L 939.456 295.086377 
L 939.488256 302.486633 
L 939.61728 344.711624 
L 939.649536 344.830967 
L 939.714048 344.716787 
L 939.810816 344.733745 
L 940.004352 344.784998 
L 940.230144 344.759135 
L 945.9072 344.76044 
L 947.52 344.760428 
L 947.52 344.760428 
" clip-path="url(#pdbf4dafa57)" style="fill: none; stroke: #0000ff; stroke-width: 2; stroke-linecap: square"/>
   </g>
   <g id="patch_16">
    <path d="M 100.8 354.165517 
L 100.8 261.434483 
" style="fill: none; stroke: #bcbcbc; stroke-width: 0.8; stroke-linejoin: miter; stroke-linecap: square"/>
   </g>
   <g id="patch_17">
    <path d="M 987.84 354.165517 
L 987.84 261.434483 
" style="fill: none; stroke: #bcbcbc; stroke-width: 0.8; stroke-linejoin: miter; stroke-linecap: square"/>
   </g>
   <g id="patch_18">
    <path d="M 100.8 354.165517 
L 987.84 354.165517 
" style="fill: none; stroke: #bcbcbc; stroke-width: 0.8; stroke-linejoin: miter; stroke-linecap: square"/>
   </g>
   <g id="patch_19">
    <path d="M 100.8 261.434483 
L 987.84 261.434483 
" style="fill: none; stroke: #bcbcbc; stroke-width: 0.8; stroke-linejoin: miter; stroke-linecap: square"/>
   </g>
  </g>
  <g id="axes_4">
   <g id="patch_20">
    <path d="M 100.8 465.442759 
L 987.84 465.442759 
L 987.84 372.711724 
L 100.8 372.711724 
z
" style="fill: #eeeeee"/>
   </g>
   <g id="matplotlib.axis_7">
    <g id="xtick_19">
     <g id="line2d_54">
      <path d="M 141.12 465.442759 
L 141.12 372.711724 
" clip-path="url(#pecd9b1f882)" style="fill: none; stroke-dasharray: 1.85,0.8; stroke-dashoffset: 0; stroke: #b2b2b2; stroke-width: 0.5"/>
     </g>
     <g id="line2d_55">
      <g>
       <use xlink:href="#m3f3b8f76ef" x="141.12" y="465.442759" style="stroke: #000000; stroke-width: 0.8"/>
      </g>
     </g>
    </g>
    <g id="xtick_20">
     <g id="line2d_56">
      <path d="M 302.4 465.442759 
L 302.4 372.711724 
" clip-path="url(#pecd9b1f882)" style="fill: none; stroke-dasharray: 1.85,0.8; stroke-dashoffset: 0; stroke: #b2b2b2; stroke-width: 0.5"/>
     </g>
     <g id="line2d_57">
      <g>
       <use xlink:href="#m3f3b8f76ef" x="302.4" y="465.442759" style="stroke: #000000; stroke-width: 0.8"/>
      </g>
     </g>
    </g>
    <g id="xtick_21">
     <g id="line2d_58">
      <path d="M 463.68 465.442759 
L 463.68 372.711724 
" clip-path="url(#pecd9b1f882)" style="fill: none; stroke-dasharray: 1.85,0.8; stroke-dashoffset: 0; stroke: #b2b2b2; stroke-width: 0.5"/>
     </g>
     <g id="line2d_59">
      <g>
       <use xlink:href="#m3f3b8f76ef" x="463.68" y="465.442759" style="stroke: #000000; stroke-width: 0.8"/>
      </g>
     </g>
    </g>
    <g id="xtick_22">
     <g id="line2d_60">
      <path d="M 624.96 465.442759 
L 624.96 372.711724 
" clip-path="url(#pecd9b1f882)" style="fill: none; stroke-dasharray: 1.85,0.8; stroke-dashoffset: 0; stroke: #b2b2b2; stroke-width: 0.5"/>
     </g>
     <g id="line2d_61">
      <g>
       <use xlink:href="#m3f3b8f76ef" x="624.96" y="465.442759" style="stroke: #000000; stroke-width: 0.8"/>
      </g>
     </g>
    </g>
    <g id="xtick_23">
     <g id="line2d_62">
      <path d="M 786.24 465.442759 
L 786.24 372.711724 
" clip-path="url(#pecd9b1f882)" style="fill: none; stroke-dasharray: 1.85,0.8; stroke-dashoffset: 0; stroke: #b2b2b2; stroke-width: 0.5"/>
     </g>
     <g id="line2d_63">
      <g>
       <use xlink:href="#m3f3b8f76ef" x="786.24" y="465.442759" style="stroke: #000000; stroke-width: 0.8"/>
      </g>
     </g>
    </g>
    <g id="xtick_24">
     <g id="line2d_64">
      <path d="M 947.52 465.442759 
L 947.52 372.711724 
" clip-path="url(#pecd9b1f882)" style="fill: none; stroke-dasharray: 1.85,0.8; stroke-dashoffset: 0; stroke: #b2b2b2; stroke-width: 0.5"/>
     </g>
     <g id="line2d_65">
      <g>
       <use xlink:href="#m3f3b8f76ef" x="947.52" y="465.442759" style="stroke: #000000; stroke-width: 0.8"/>
      </g>
     </g>
    </g>
   </g>
   <g id="matplotlib.axis_8">
    <g id="ytick_8">
     <g id="line2d_66">
      <path d="M 100.8 434.27467 
L 987.84 434.27467 
" clip-path="url(#pecd9b1f882)" style="fill: none; stroke-dasharray: 1.85,0.8; stroke-dashoffset: 0; stroke: #b2b2b2; stroke-width: 0.5"/>
     </g>
     <g id="line2d_67">
      <g>
       <use xlink:href="#m92b16a5352" x="100.8" y="434.27467" style="stroke: #000000; stroke-width: 0.8"/>
      </g>
     </g>
     <g id="text_11">
      <!-- 0 V -->
      <g transform="translate(74.36625 439.593576) scale(0.14 -0.14)">
       <use xlink:href="#DejaVuSans-30"/>
       <use xlink:href="#DejaVuSans-20" x="63.623047"/>
       <use xlink:href="#DejaVuSans-56" x="95.410156"/>
      </g>
     </g>
    </g>
    <g id="ytick_9">
     <g id="line2d_68">
      <path d="M 100.8 387.191009 
L 987.84 387.191009 
" clip-path="url(#pecd9b1f882)" style="fill: none; stroke-dasharray: 1.85,0.8; stroke-dashoffset: 0; stroke: #b2b2b2; stroke-width: 0.5"/>
     </g>
     <g id="line2d_69">
      <g>
       <use xlink:href="#m92b16a5352" x="100.8" y="387.191009" style="stroke: #000000; stroke-width: 0.8"/>
      </g>
     </g>
     <g id="text_12">
      <!-- 1 V -->
      <g transform="translate(74.36625 392.509915) scale(0.14 -0.14)">
       <use xlink:href="#DejaVuSans-31"/>
       <use xlink:href="#DejaVuSans-20" x="63.623047"/>
       <use xlink:href="#DejaVuSans-56" x="95.410156"/>
      </g>
     </g>
    </g>
    <g id="text_13">
     <g id="patch_21">
      <path d="M 34.8768 454.693023 
L 34.8768 383.46146 
L 11.247425 383.46146 
L 11.247425 454.693023 
z
" style="fill: #ffff00; opacity: 0.2; stroke: #eeeeee; stroke-width: 0.5; stroke-linejoin: miter"/>
     </g>
     <!-- DFF OUT -->
     <g transform="translate(26.925238 449.653023) rotate(-90) scale(0.14 -0.14)">
      <defs>
       <path id="DejaVuSans-4f" d="M 2522 4238 
Q 1834 4238 1429 3725 
Q 1025 3213 1025 2328 
Q 1025 1447 1429 934 
Q 1834 422 2522 422 
Q 3209 422 3611 934 
Q 4013 1447 4013 2328 
Q 4013 3213 3611 3725 
Q 3209 4238 2522 4238 
z
M 2522 4750 
Q 3503 4750 4090 4092 
Q 4678 3434 4678 2328 
Q 4678 1225 4090 567 
Q 3503 -91 2522 -91 
Q 1538 -91 948 565 
Q 359 1222 359 2328 
Q 359 3434 948 4092 
Q 1538 4750 2522 4750 
z
" transform="scale(0.015625)"/>
       <path id="DejaVuSans-54" d="M -19 4666 
L 3928 4666 
L 3928 4134 
L 2272 4134 
L 2272 0 
L 1638 0 
L 1638 4134 
L -19 4134 
L -19 4666 
z
" transform="scale(0.015625)"/>
      </defs>
      <use xlink:href="#DejaVuSans-44"/>
      <use xlink:href="#DejaVuSans-46" x="77.001953"/>
      <use xlink:href="#DejaVuSans-46" x="134.521484"/>
      <use xlink:href="#DejaVuSans-20" x="192.041016"/>
      <use xlink:href="#DejaVuSans-4f" x="223.828125"/>
      <use xlink:href="#DejaVuSans-55" x="302.539062"/>
      <use xlink:href="#DejaVuSans-54" x="375.732422"/>
     </g>
    </g>
   </g>
   <g id="line2d_70">
    <path d="M 141.12 398.748635 
L 173.408256 398.806077 
L 173.440512 400.755341 
L 173.601792 434.277544 
L 174.02112 434.271674 
L 182.149632 434.273387 
L 196.019712 434.360664 
L 196.697088 435.072314 
L 197.471232 435.51669 
L 198.438912 435.787138 
L 199.922688 435.922363 
L 202.72896 435.89383 
L 205.95456 435.688828 
L 206.857728 435.434717 
L 207.341568 435.042275 
L 207.631872 434.31701 
L 207.760896 433.229413 
L 207.857664 430.996847 
L 208.018944 418.40983 
L 208.180224 414.009862 
L 208.276992 414.158176 
L 208.631808 415.676624 
L 210.63168 426.908902 
L 210.663936 426.721509 
L 210.728448 426.551537 
L 210.760704 426.598621 
L 210.825216 426.834039 
L 210.986496 428.580372 
L 211.11552 429.109592 
L 211.341312 430.236351 
L 211.373568 429.646582 
L 211.43808 429.851301 
L 211.567104 430.573941 
L 211.728384 432.049402 
L 212.0832 433.643043 
L 212.115456 433.16552 
L 212.179968 433.406541 
L 212.24448 433.777137 
L 212.40576 435.224536 
L 212.599296 436.095254 
L 212.663808 436.003394 
L 212.696064 436.04285 
L 212.825088 436.54043 
L 212.954112 437.361145 
L 212.986368 437.247721 
L 213.147648 438.542804 
L 213.437952 439.388897 
L 213.470208 439.337105 
L 213.502464 439.409143 
L 213.85728 440.379067 
L 213.986304 441.286369 
L 214.050816 441.495891 
L 214.083072 441.233164 
L 214.147584 441.505779 
L 214.308864 442.212034 
L 214.792704 443.420671 
L 214.82496 443.268591 
L 214.889472 443.359462 
L 215.3088 444.312906 
L 215.405568 445.035641 
L 215.437824 444.754551 
L 215.63136 445.530961 
L 215.857152 446.320554 
L 216.1152 447.053176 
L 216.147456 447.005621 
L 216.179712 446.947708 
L 216.211968 447.023042 
L 216.340992 447.353569 
L 216.373248 447.79851 
L 216.470016 447.693513 
L 217.050624 449.694569 
L 217.502208 450.720993 
L 217.56672 450.761955 
L 217.857024 451.520944 
L 218.05056 452.329371 
L 220.114944 457.431356 
L 220.534272 458.308995 
L 220.598784 458.420584 
L 220.760064 458.76194 
L 221.792256 461.227712 
L 221.92128 461.023839 
L 221.953536 461.077044 
L 221.985792 460.943326 
L 222.695424 459.598146 
L 222.921216 458.890479 
L 223.437312 457.759529 
L 223.501824 457.794371 
L 223.630848 457.348489 
L 223.663104 457.461019 
L 223.69536 457.408756 
L 223.85664 457.034441 
L 223.953408 456.899311 
L 224.34048 456.091826 
L 224.372736 456.18976 
L 224.404992 455.962817 
L 224.437248 456.03203 
L 224.630784 455.561664 
L 224.856576 455.18829 
L 225.856512 453.909027 
L 225.888768 453.960349 
L 225.921024 453.842639 
L 227.598336 451.378751 
L 227.72736 451.216784 
L 227.759616 451.453614 
L 227.824128 451.1132 
L 227.953152 451.100958 
L 228.082176 450.891436 
L 228.114432 450.946523 
L 228.146688 450.86601 
L 228.307968 450.67438 
L 228.404736 450.615525 
L 228.662784 450.373986 
L 228.888576 449.908329 
L 229.436928 448.994435 
L 229.469184 449.127211 
L 229.50144 449.041519 
L 229.533696 448.835763 
L 229.565952 448.84518 
L 229.598208 449.169115 
L 229.66272 448.705341 
L 229.694976 448.703458 
L 229.759488 448.582924 
L 229.791744 448.931343 
L 229.824 448.551378 
L 229.856256 448.731237 
L 230.049792 448.234034 
L 230.082048 448.480281 
L 230.14656 448.1361 
L 230.178816 448.449677 
L 230.340096 447.912452 
L 230.533632 447.733534 
L 230.565888 447.989199 
L 230.6304 447.624771 
L 230.662656 447.729297 
L 230.694912 447.573921 
L 230.727168 447.568271 
L 230.759424 447.656317 
L 230.79168 447.514125 
L 231.211008 447.260344 
L 231.694848 446.54938 
L 231.856128 446.130336 
L 232.307712 445.459394 
L 232.339968 445.427848 
L 232.372224 445.758846 
L 232.40448 445.308726 
L 232.436736 445.233392 
L 232.468992 445.252225 
L 232.501248 445.669387 
L 232.56576 445.151937 
L 233.081856 444.590229 
L 233.436672 444.314319 
L 233.468928 444.524312 
L 233.53344 444.332682 
L 233.630208 444.26441 
L 234.6624 442.995506 
L 234.855936 442.445098 
L 234.888192 442.43521 
L 234.920448 442.861788 
L 234.98496 442.315147 
L 235.30752 441.913052 
L 235.372032 441.836306 
L 235.404288 442.312793 
L 235.4688 442.017578 
L 235.501056 442.015224 
L 235.63008 441.510016 
L 235.662336 441.533087 
L 235.694592 442.011928 
L 235.726848 441.441745 
L 235.759104 441.453987 
L 235.79136 441.471878 
L 235.855872 441.365469 
L 235.888128 441.805231 
L 235.920384 441.244464 
L 235.984896 441.701647 
L 236.11392 441.12958 
L 236.146176 441.132876 
L 236.178432 441.39984 
L 236.210688 441.042005 
L 236.242944 441.06178 
L 236.339712 441.015638 
L 236.371968 441.296727 
L 236.43648 440.996333 
L 236.468736 441.136172 
L 236.500992 440.923354 
L 236.533248 440.93842 
L 236.565504 441.0001 
L 236.630016 440.920529 
L 236.855808 440.821653 
L 237.629952 440.000985 
L 237.952512 439.594653 
L 238.081536 438.914153 
L 238.275072 438.662349 
L 238.307328 439.108749 
L 238.37184 438.549772 
L 238.436352 438.455087 
L 238.500864 438.997632 
L 238.53312 438.431027 
L 238.565376 438.476698 
L 238.629888 438.278335 
L 238.662144 438.588287 
L 238.6944 438.215478 
L 238.823424 438.026673 
L 238.85568 438.047766 
L 238.887936 438.493319 
L 238.952448 438.326972 
L 239.113728 437.759379 
L 239.145984 437.779813 
L 239.17824 438.243587 
L 239.242752 437.924407 
L 239.275008 437.978883 
L 239.404032 437.641623 
L 240.14592 437.210572 
L 241.178112 435.951743 
L 241.339392 434.979889 
L 241.371648 435.629502 
L 241.43616 435.149484 
L 241.532928 435.189647 
L 241.629696 434.420102 
L 241.726464 434.900647 
L 241.75872 434.797769 
L 241.823232 434.264084 
L 241.887744 434.503059 
L 241.92 434.522664 
L 241.984512 434.291408 
L 242.049024 434.319617 
L 243.145728 431.882726 
L 243.177984 431.194881 
L 243.242496 431.252652 
L 243.307008 431.683892 
L 243.339264 431.258773 
L 243.37152 431.06008 
L 243.436032 431.290508 
L 244.403712 429.211764 
L 244.532736 428.04456 
L 244.564992 428.070927 
L 244.629504 428.605797 
L 244.66176 428.038439 
L 244.694016 427.908017 
L 244.726272 428.034672 
L 244.82304 428.237603 
L 244.790784 427.897188 
L 244.855296 428.097765 
L 244.919808 428.182515 
L 244.952064 428.05586 
L 246.048768 425.59056 
L 246.081024 424.878655 
L 246.177792 425.176223 
L 246.210048 424.950693 
L 246.306816 425.010489 
L 247.790592 421.493339 
L 248.274432 420.305419 
L 248.85504 419.084539 
L 248.919552 418.402297 
L 248.984064 418.506823 
L 249.080832 418.558144 
L 249.113088 418.511531 
L 250.371072 415.288184 
L 250.435584 414.86961 
L 250.532352 415.034874 
L 250.887168 414.113446 
L 251.629056 412.181133 
L 251.661312 411.857668 
L 251.693568 412.380768 
L 251.725824 412.187725 
L 251.75808 412.212679 
L 251.790336 411.825651 
L 251.887104 411.89816 
L 252.08064 411.605771 
L 253.435392 408.800526 
L 253.499904 408.287785 
L 253.564416 408.533562 
L 253.661184 408.294377 
L 254.016 407.493484 
L 254.532096 406.545219 
L 254.564352 406.563111 
L 254.628864 406.614903 
L 254.66112 406.589948 
L 254.757888 406.550869 
L 254.790144 406.352176 
L 254.854656 406.63609 
L 254.951424 407.523146 
L 255.015936 409.382009 
L 255.14496 424.97753 
L 255.30624 433.497837 
L 255.886848 433.572135 
L 258.241536 433.728782 
L 260.499456 433.740506 
L 261.176832 433.025399 
L 261.950976 432.587945 
L 262.950912 432.318156 
L 264.370176 432.204166 
L 267.015168 432.255676 
L 280.885248 432.713093 
L 283.20768 432.72816 
L 286.304256 432.904865 
L 287.013888 433.677696 
L 287.788032 434.147671 
L 288.723456 434.445687 
L 290.110464 434.632548 
L 292.658688 434.712063 
L 300.916224 434.664042 
L 306.173952 434.72019 
L 308.109312 434.81665 
L 315.237888 434.75789 
L 334.688256 434.571071 
L 334.720512 434.728688 
L 334.752768 434.50013 
L 334.785024 434.516878 
L 334.946304 434.576829 
L 336.559104 434.563034 
L 355.880448 434.437236 
L 383.556096 434.342136 
L 395.974656 434.319886 
L 415.328256 434.295596 
L 415.360512 434.580582 
L 415.392768 434.024039 
L 415.586304 429.33889 
L 416.005632 427.415522 
L 416.199168 424.865942 
L 416.360448 419.126915 
L 416.58624 399.903598 
L 416.844288 377.110397 
L 417.005568 376.93148 
L 421.90848 377.035064 
L 422.23104 377.068022 
L 428.68224 377.176315 
L 429.0048 377.209273 
L 455.712768 377.279899 
L 455.809536 377.345816 
L 455.841792 377.312857 
L 456.26112 377.30344 
L 495.968256 377.298732 
L 496.000512 377.538859 
L 496.065024 377.298732 
L 496.25856 377.27519 
L 497.161728 377.298732 
L 576.608256 377.298732 
L 576.640512 377.53415 
L 576.705024 377.27519 
L 576.930816 377.294024 
L 657.248256 377.298732 
L 657.280512 377.538859 
L 657.345024 377.298732 
L 657.53856 377.27519 
L 658.441728 377.298732 
L 737.888256 377.298732 
L 737.920512 377.538859 
L 737.985024 377.298732 
L 738.17856 377.27519 
L 739.081728 377.298732 
L 818.528256 377.298732 
L 818.560512 377.538859 
L 818.625024 377.298732 
L 818.81856 377.27519 
L 819.721728 377.298732 
L 899.168256 377.298732 
L 899.200512 377.538859 
L 899.265024 377.298732 
L 899.45856 377.27519 
L 900.361728 377.298732 
L 947.52 377.30344 
L 947.52 377.30344 
" clip-path="url(#pecd9b1f882)" style="fill: none; stroke: #ff00ff; stroke-width: 2; stroke-linecap: square"/>
   </g>
   <g id="patch_22">
    <path d="M 100.8 465.442759 
L 100.8 372.711724 
" style="fill: none; stroke: #bcbcbc; stroke-width: 0.8; stroke-linejoin: miter; stroke-linecap: square"/>
   </g>
   <g id="patch_23">
    <path d="M 987.84 465.442759 
L 987.84 372.711724 
" style="fill: none; stroke: #bcbcbc; stroke-width: 0.8; stroke-linejoin: miter; stroke-linecap: square"/>
   </g>
   <g id="patch_24">
    <path d="M 100.8 465.442759 
L 987.84 465.442759 
" style="fill: none; stroke: #bcbcbc; stroke-width: 0.8; stroke-linejoin: miter; stroke-linecap: square"/>
   </g>
   <g id="patch_25">
    <path d="M 100.8 372.711724 
L 987.84 372.711724 
" style="fill: none; stroke: #bcbcbc; stroke-width: 0.8; stroke-linejoin: miter; stroke-linecap: square"/>
   </g>
  </g>
  <g id="axes_5">
   <g id="patch_26">
    <path d="M 100.8 576.72 
L 987.84 576.72 
L 987.84 483.988966 
L 100.8 483.988966 
z
" style="fill: #eeeeee"/>
   </g>
   <g id="matplotlib.axis_9">
    <g id="xtick_25">
     <g id="line2d_71">
      <path d="M 141.12 576.72 
L 141.12 483.988966 
" clip-path="url(#pc14649b4b5)" style="fill: none; stroke-dasharray: 1.85,0.8; stroke-dashoffset: 0; stroke: #b2b2b2; stroke-width: 0.5"/>
     </g>
     <g id="line2d_72">
      <g>
       <use xlink:href="#m3f3b8f76ef" x="141.12" y="576.72" style="stroke: #000000; stroke-width: 0.8"/>
      </g>
     </g>
     <g id="text_14">
      <!-- 0 s -->
      <g transform="translate(130.795 590.857813) scale(0.14 -0.14)">
       <defs>
        <path id="DejaVuSans-73" d="M 2834 3397 
L 2834 2853 
Q 2591 2978 2328 3040 
Q 2066 3103 1784 3103 
Q 1356 3103 1142 2972 
Q 928 2841 928 2578 
Q 928 2378 1081 2264 
Q 1234 2150 1697 2047 
L 1894 2003 
Q 2506 1872 2764 1633 
Q 3022 1394 3022 966 
Q 3022 478 2636 193 
Q 2250 -91 1575 -91 
Q 1294 -91 989 -36 
Q 684 19 347 128 
L 347 722 
Q 666 556 975 473 
Q 1284 391 1588 391 
Q 1994 391 2212 530 
Q 2431 669 2431 922 
Q 2431 1156 2273 1281 
Q 2116 1406 1581 1522 
L 1381 1569 
Q 847 1681 609 1914 
Q 372 2147 372 2553 
Q 372 3047 722 3315 
Q 1072 3584 1716 3584 
Q 2034 3584 2315 3537 
Q 2597 3491 2834 3397 
z
" transform="scale(0.015625)"/>
       </defs>
       <use xlink:href="#DejaVuSans-30"/>
       <use xlink:href="#DejaVuSans-20" x="63.623047"/>
       <use xlink:href="#DejaVuSans-73" x="95.410156"/>
      </g>
     </g>
    </g>
    <g id="xtick_26">
     <g id="line2d_73">
      <path d="M 302.4 576.72 
L 302.4 483.988966 
" clip-path="url(#pc14649b4b5)" style="fill: none; stroke-dasharray: 1.85,0.8; stroke-dashoffset: 0; stroke: #b2b2b2; stroke-width: 0.5"/>
     </g>
     <g id="line2d_74">
      <g>
       <use xlink:href="#m3f3b8f76ef" x="302.4" y="576.72" style="stroke: #000000; stroke-width: 0.8"/>
      </g>
     </g>
     <g id="text_15">
      <!-- 50 ns -->
      <g transform="translate(283.185 590.857813) scale(0.14 -0.14)">
       <defs>
        <path id="DejaVuSans-35" d="M 691 4666 
L 3169 4666 
L 3169 4134 
L 1269 4134 
L 1269 2991 
Q 1406 3038 1543 3061 
Q 1681 3084 1819 3084 
Q 2600 3084 3056 2656 
Q 3513 2228 3513 1497 
Q 3513 744 3044 326 
Q 2575 -91 1722 -91 
Q 1428 -91 1123 -41 
Q 819 9 494 109 
L 494 744 
Q 775 591 1075 516 
Q 1375 441 1709 441 
Q 2250 441 2565 725 
Q 2881 1009 2881 1497 
Q 2881 1984 2565 2268 
Q 2250 2553 1709 2553 
Q 1456 2553 1204 2497 
Q 953 2441 691 2322 
L 691 4666 
z
" transform="scale(0.015625)"/>
        <path id="DejaVuSans-6e" d="M 3513 2113 
L 3513 0 
L 2938 0 
L 2938 2094 
Q 2938 2591 2744 2837 
Q 2550 3084 2163 3084 
Q 1697 3084 1428 2787 
Q 1159 2491 1159 1978 
L 1159 0 
L 581 0 
L 581 3500 
L 1159 3500 
L 1159 2956 
Q 1366 3272 1645 3428 
Q 1925 3584 2291 3584 
Q 2894 3584 3203 3211 
Q 3513 2838 3513 2113 
z
" transform="scale(0.015625)"/>
       </defs>
       <use xlink:href="#DejaVuSans-35"/>
       <use xlink:href="#DejaVuSans-30" x="63.623047"/>
       <use xlink:href="#DejaVuSans-20" x="127.246094"/>
       <use xlink:href="#DejaVuSans-6e" x="159.033203"/>
       <use xlink:href="#DejaVuSans-73" x="222.412109"/>
      </g>
     </g>
    </g>
    <g id="xtick_27">
     <g id="line2d_75">
      <path d="M 463.68 576.72 
L 463.68 483.988966 
" clip-path="url(#pc14649b4b5)" style="fill: none; stroke-dasharray: 1.85,0.8; stroke-dashoffset: 0; stroke: #b2b2b2; stroke-width: 0.5"/>
     </g>
     <g id="line2d_76">
      <g>
       <use xlink:href="#m3f3b8f76ef" x="463.68" y="576.72" style="stroke: #000000; stroke-width: 0.8"/>
      </g>
     </g>
     <g id="text_16">
      <!-- 100 ns -->
      <g transform="translate(440.01125 590.857813) scale(0.14 -0.14)">
       <use xlink:href="#DejaVuSans-31"/>
       <use xlink:href="#DejaVuSans-30" x="63.623047"/>
       <use xlink:href="#DejaVuSans-30" x="127.246094"/>
       <use xlink:href="#DejaVuSans-20" x="190.869141"/>
       <use xlink:href="#DejaVuSans-6e" x="222.65625"/>
       <use xlink:href="#DejaVuSans-73" x="286.035156"/>
      </g>
     </g>
    </g>
    <g id="xtick_28">
     <g id="line2d_77">
      <path d="M 624.96 576.72 
L 624.96 483.988966 
" clip-path="url(#pc14649b4b5)" style="fill: none; stroke-dasharray: 1.85,0.8; stroke-dashoffset: 0; stroke: #b2b2b2; stroke-width: 0.5"/>
     </g>
     <g id="line2d_78">
      <g>
       <use xlink:href="#m3f3b8f76ef" x="624.96" y="576.72" style="stroke: #000000; stroke-width: 0.8"/>
      </g>
     </g>
     <g id="text_17">
      <!-- 150 ns -->
      <g transform="translate(601.29125 590.857813) scale(0.14 -0.14)">
       <use xlink:href="#DejaVuSans-31"/>
       <use xlink:href="#DejaVuSans-35" x="63.623047"/>
       <use xlink:href="#DejaVuSans-30" x="127.246094"/>
       <use xlink:href="#DejaVuSans-20" x="190.869141"/>
       <use xlink:href="#DejaVuSans-6e" x="222.65625"/>
       <use xlink:href="#DejaVuSans-73" x="286.035156"/>
      </g>
     </g>
    </g>
    <g id="xtick_29">
     <g id="line2d_79">
      <path d="M 786.24 576.72 
L 786.24 483.988966 
" clip-path="url(#pc14649b4b5)" style="fill: none; stroke-dasharray: 1.85,0.8; stroke-dashoffset: 0; stroke: #b2b2b2; stroke-width: 0.5"/>
     </g>
     <g id="line2d_80">
      <g>
       <use xlink:href="#m3f3b8f76ef" x="786.24" y="576.72" style="stroke: #000000; stroke-width: 0.8"/>
      </g>
     </g>
     <g id="text_18">
      <!-- 200 ns -->
      <g transform="translate(762.57125 590.857813) scale(0.14 -0.14)">
       <use xlink:href="#DejaVuSans-32"/>
       <use xlink:href="#DejaVuSans-30" x="63.623047"/>
       <use xlink:href="#DejaVuSans-30" x="127.246094"/>
       <use xlink:href="#DejaVuSans-20" x="190.869141"/>
       <use xlink:href="#DejaVuSans-6e" x="222.65625"/>
       <use xlink:href="#DejaVuSans-73" x="286.035156"/>
      </g>
     </g>
    </g>
    <g id="xtick_30">
     <g id="line2d_81">
      <path d="M 947.52 576.72 
L 947.52 483.988966 
" clip-path="url(#pc14649b4b5)" style="fill: none; stroke-dasharray: 1.85,0.8; stroke-dashoffset: 0; stroke: #b2b2b2; stroke-width: 0.5"/>
     </g>
     <g id="line2d_82">
      <g>
       <use xlink:href="#m3f3b8f76ef" x="947.52" y="576.72" style="stroke: #000000; stroke-width: 0.8"/>
      </g>
     </g>
     <g id="text_19">
      <!-- 250 ns -->
      <g transform="translate(923.85125 590.857813) scale(0.14 -0.14)">
       <use xlink:href="#DejaVuSans-32"/>
       <use xlink:href="#DejaVuSans-35" x="63.623047"/>
       <use xlink:href="#DejaVuSans-30" x="127.246094"/>
       <use xlink:href="#DejaVuSans-20" x="190.869141"/>
       <use xlink:href="#DejaVuSans-6e" x="222.65625"/>
       <use xlink:href="#DejaVuSans-73" x="286.035156"/>
      </g>
     </g>
    </g>
    <g id="text_20">
     <!-- Time -->
     <g transform="translate(527.192969 608.407187) scale(0.14 -0.14)">
      <defs>
       <path id="DejaVuSans-69" d="M 603 3500 
L 1178 3500 
L 1178 0 
L 603 0 
L 603 3500 
z
M 603 4863 
L 1178 4863 
L 1178 4134 
L 603 4134 
L 603 4863 
z
" transform="scale(0.015625)"/>
       <path id="DejaVuSans-6d" d="M 3328 2828 
Q 3544 3216 3844 3400 
Q 4144 3584 4550 3584 
Q 5097 3584 5394 3201 
Q 5691 2819 5691 2113 
L 5691 0 
L 5113 0 
L 5113 2094 
Q 5113 2597 4934 2840 
Q 4756 3084 4391 3084 
Q 3944 3084 3684 2787 
Q 3425 2491 3425 1978 
L 3425 0 
L 2847 0 
L 2847 2094 
Q 2847 2600 2669 2842 
Q 2491 3084 2119 3084 
Q 1678 3084 1418 2786 
Q 1159 2488 1159 1978 
L 1159 0 
L 581 0 
L 581 3500 
L 1159 3500 
L 1159 2956 
Q 1356 3278 1631 3431 
Q 1906 3584 2284 3584 
Q 2666 3584 2933 3390 
Q 3200 3197 3328 2828 
z
" transform="scale(0.015625)"/>
       <path id="DejaVuSans-65" d="M 3597 1894 
L 3597 1613 
L 953 1613 
Q 991 1019 1311 708 
Q 1631 397 2203 397 
Q 2534 397 2845 478 
Q 3156 559 3463 722 
L 3463 178 
Q 3153 47 2828 -22 
Q 2503 -91 2169 -91 
Q 1331 -91 842 396 
Q 353 884 353 1716 
Q 353 2575 817 3079 
Q 1281 3584 2069 3584 
Q 2775 3584 3186 3129 
Q 3597 2675 3597 1894 
z
M 3022 2063 
Q 3016 2534 2758 2815 
Q 2500 3097 2075 3097 
Q 1594 3097 1305 2825 
Q 1016 2553 972 2059 
L 3022 2063 
z
" transform="scale(0.015625)"/>
      </defs>
      <use xlink:href="#DejaVuSans-54"/>
      <use xlink:href="#DejaVuSans-69" x="57.958984"/>
      <use xlink:href="#DejaVuSans-6d" x="85.742188"/>
      <use xlink:href="#DejaVuSans-65" x="183.154297"/>
     </g>
    </g>
   </g>
   <g id="matplotlib.axis_10">
    <g id="ytick_10">
     <g id="line2d_83">
      <path d="M 100.8 569.747875 
L 987.84 569.747875 
" clip-path="url(#pc14649b4b5)" style="fill: none; stroke-dasharray: 1.85,0.8; stroke-dashoffset: 0; stroke: #b2b2b2; stroke-width: 0.5"/>
     </g>
     <g id="line2d_84">
      <g>
       <use xlink:href="#m92b16a5352" x="100.8" y="569.747875" style="stroke: #000000; stroke-width: 0.8"/>
      </g>
     </g>
     <g id="text_21">
      <!-- 0 V -->
      <g transform="translate(74.36625 575.066781) scale(0.14 -0.14)">
       <use xlink:href="#DejaVuSans-30"/>
       <use xlink:href="#DejaVuSans-20" x="63.623047"/>
       <use xlink:href="#DejaVuSans-56" x="95.410156"/>
      </g>
     </g>
    </g>
    <g id="ytick_11">
     <g id="line2d_85">
      <path d="M 100.8 535.976707 
L 987.84 535.976707 
" clip-path="url(#pc14649b4b5)" style="fill: none; stroke-dasharray: 1.85,0.8; stroke-dashoffset: 0; stroke: #b2b2b2; stroke-width: 0.5"/>
     </g>
     <g id="line2d_86">
      <g>
       <use xlink:href="#m92b16a5352" x="100.8" y="535.976707" style="stroke: #000000; stroke-width: 0.8"/>
      </g>
     </g>
     <g id="text_22">
      <!-- 500 mV -->
      <g transform="translate(42.914375 541.295613) scale(0.14 -0.14)">
       <use xlink:href="#DejaVuSans-35"/>
       <use xlink:href="#DejaVuSans-30" x="63.623047"/>
       <use xlink:href="#DejaVuSans-30" x="127.246094"/>
       <use xlink:href="#DejaVuSans-20" x="190.869141"/>
       <use xlink:href="#DejaVuSans-6d" x="222.65625"/>
       <use xlink:href="#DejaVuSans-56" x="320.068359"/>
      </g>
     </g>
    </g>
    <g id="ytick_12">
     <g id="line2d_87">
      <path d="M 100.8 502.205539 
L 987.84 502.205539 
" clip-path="url(#pc14649b4b5)" style="fill: none; stroke-dasharray: 1.85,0.8; stroke-dashoffset: 0; stroke: #b2b2b2; stroke-width: 0.5"/>
     </g>
     <g id="line2d_88">
      <g>
       <use xlink:href="#m92b16a5352" x="100.8" y="502.205539" style="stroke: #000000; stroke-width: 0.8"/>
      </g>
     </g>
     <g id="text_23">
      <!-- 1 V -->
      <g transform="translate(74.36625 507.524445) scale(0.14 -0.14)">
       <use xlink:href="#DejaVuSans-31"/>
       <use xlink:href="#DejaVuSans-20" x="63.623047"/>
       <use xlink:href="#DejaVuSans-56" x="95.410156"/>
      </g>
     </g>
    </g>
    <g id="text_24">
     <g id="patch_27">
      <path d="M 34.8768 554.329483 
L 34.8768 506.379483 
L 11.247425 506.379483 
L 11.247425 554.329483 
z
" style="fill: #ffff00; opacity: 0.2; stroke: #eeeeee; stroke-width: 0.5; stroke-linejoin: miter"/>
     </g>
     <!-- FOUT -->
     <g transform="translate(26.925238 549.289483) rotate(-90) scale(0.14 -0.14)">
      <use xlink:href="#DejaVuSans-46"/>
      <use xlink:href="#DejaVuSans-4f" x="57.519531"/>
      <use xlink:href="#DejaVuSans-55" x="136.230469"/>
      <use xlink:href="#DejaVuSans-54" x="209.423828"/>
     </g>
    </g>
   </g>
   <g id="line2d_89">
    <path d="M 141.12 488.697072 
L 173.472768 488.703826 
L 173.505024 488.507953 
L 173.569536 526.822694 
L 173.69856 572.504953 
L 173.730816 572.369598 
L 173.827584 567.845477 
L 173.892096 569.363167 
L 174.053376 570.065952 
L 174.117888 569.948509 
L 174.408192 569.494226 
L 174.440448 569.543647 
L 174.66624 569.731955 
L 176.150016 569.738669 
L 179.98848 569.746207 
L 253.85472 569.8547 
L 253.919232 567.92977 
L 253.983744 543.779873 
L 254.145024 489.365741 
L 254.306304 488.703826 
L 255.048192 488.602512 
L 255.080448 488.204013 
L 255.241728 569.767532 
L 255.273984 569.74467 
L 255.725568 569.745956 
L 416.553984 569.727484 
L 416.58624 569.010245 
L 416.876544 488.730843 
L 417.134592 488.697072 
L 947.52 488.697072 
L 947.52 488.697072 
" clip-path="url(#pc14649b4b5)" style="fill: none; stroke: #ff00ff; stroke-width: 2; stroke-linecap: square"/>
   </g>
   <g id="patch_28">
    <path d="M 100.8 576.72 
L 100.8 483.988966 
" style="fill: none; stroke: #bcbcbc; stroke-width: 0.8; stroke-linejoin: miter; stroke-linecap: square"/>
   </g>
   <g id="patch_29">
    <path d="M 987.84 576.72 
L 987.84 483.988966 
" style="fill: none; stroke: #bcbcbc; stroke-width: 0.8; stroke-linejoin: miter; stroke-linecap: square"/>
   </g>
   <g id="patch_30">
    <path d="M 100.8 576.72 
L 987.84 576.72 
" style="fill: none; stroke: #bcbcbc; stroke-width: 0.8; stroke-linejoin: miter; stroke-linecap: square"/>
   </g>
   <g id="patch_31">
    <path d="M 100.8 483.988966 
L 987.84 483.988966 
" style="fill: none; stroke: #bcbcbc; stroke-width: 0.8; stroke-linejoin: miter; stroke-linecap: square"/>
   </g>
  </g>
  <g id="axes_6">
   <g id="patch_32">
    <path d="M 201.6 628.56 
L 856.8 628.56 
L 856.8 615.6 
L 201.6 615.6 
z
" clip-path="url(#pa4a6c9ded3)" style="fill: #d3d3d3"/>
   </g>
   <g id="patch_33">
    <path d="M 201.6 628.56 
L 206.28 628.56 
L 206.28 615.6 
L 201.6 615.6 
z
" clip-path="url(#pa4a6c9ded3)" style="fill: #0000ff"/>
   </g>
   <g id="line2d_90">
    <path d="M 201.6 635.04 
L 201.6 609.12 
" clip-path="url(#pfea07634db)" style="fill: none; stroke: #ff0000; stroke-linecap: square"/>
   </g>
   <g id="line2d_91">
    <defs>
     <path id="mfdeca5ae30" d="M 0 5 
C 1.326016 5 2.597899 4.473168 3.535534 3.535534 
C 4.473168 2.597899 5 1.326016 5 0 
C 5 -1.326016 4.473168 -2.597899 3.535534 -3.535534 
C 2.597899 -4.473168 1.326016 -5 0 -5 
C -1.326016 -5 -2.597899 -4.473168 -3.535534 -3.535534 
C -4.473168 -2.597899 -5 -1.326016 -5 0 
C -5 1.326016 -4.473168 2.597899 -3.535534 3.535534 
C -2.597899 4.473168 -1.326016 5 0 5 
z
" style="stroke: #bfbfbf"/>
    </defs>
    <g>
     <use xlink:href="#mfdeca5ae30" x="206.28" y="622.08" style="fill: #ffffff; stroke: #bfbfbf"/>
    </g>
   </g>
   <g id="text_25">
    <!-- #Sweep -->
    <g transform="translate(138.622875 625.39125) scale(0.12 -0.12)">
     <defs>
      <path id="DejaVuSans-23" d="M 3272 2816 
L 2363 2816 
L 2100 1772 
L 3016 1772 
L 3272 2816 
z
M 2803 4594 
L 2478 3297 
L 3391 3297 
L 3719 4594 
L 4219 4594 
L 3897 3297 
L 4872 3297 
L 4872 2816 
L 3775 2816 
L 3519 1772 
L 4513 1772 
L 4513 1294 
L 3397 1294 
L 3072 0 
L 2572 0 
L 2894 1294 
L 1978 1294 
L 1656 0 
L 1153 0 
L 1478 1294 
L 494 1294 
L 494 1772 
L 1594 1772 
L 1856 2816 
L 850 2816 
L 850 3297 
L 1978 3297 
L 2297 4594 
L 2803 4594 
z
" transform="scale(0.015625)"/>
      <path id="DejaVuSans-77" d="M 269 3500 
L 844 3500 
L 1563 769 
L 2278 3500 
L 2956 3500 
L 3675 769 
L 4391 3500 
L 4966 3500 
L 4050 0 
L 3372 0 
L 2619 2869 
L 1863 0 
L 1184 0 
L 269 3500 
z
" transform="scale(0.015625)"/>
      <path id="DejaVuSans-70" d="M 1159 525 
L 1159 -1331 
L 581 -1331 
L 581 3500 
L 1159 3500 
L 1159 2969 
Q 1341 3281 1617 3432 
Q 1894 3584 2278 3584 
Q 2916 3584 3314 3078 
Q 3713 2572 3713 1747 
Q 3713 922 3314 415 
Q 2916 -91 2278 -91 
Q 1894 -91 1617 61 
Q 1341 213 1159 525 
z
M 3116 1747 
Q 3116 2381 2855 2742 
Q 2594 3103 2138 3103 
Q 1681 3103 1420 2742 
Q 1159 2381 1159 1747 
Q 1159 1113 1420 752 
Q 1681 391 2138 391 
Q 2594 391 2855 752 
Q 3116 1113 3116 1747 
z
" transform="scale(0.015625)"/>
     </defs>
     <use xlink:href="#DejaVuSans-23"/>
     <use xlink:href="#DejaVuSans-53" x="83.789062"/>
     <use xlink:href="#DejaVuSans-77" x="147.265625"/>
     <use xlink:href="#DejaVuSans-65" x="229.052734"/>
     <use xlink:href="#DejaVuSans-65" x="290.576172"/>
     <use xlink:href="#DejaVuSans-70" x="352.099609"/>
    </g>
   </g>
   <g id="text_26">
    <!-- $\mathdefault{1}$ -->
    <g transform="translate(869.904 625.39125) scale(0.12 -0.12)">
     <use xlink:href="#DejaVuSans-31" transform="translate(0 0.09375)"/>
    </g>
   </g>
  </g>
  <g id="text_27">
   <!-- DFF under BBI sweep analysis (Sweep = 11E-9) -->
   <g transform="translate(313.34625 25.1175) scale(0.16 -0.16)">
    <defs>
     <path id="DejaVuSans-75" d="M 544 1381 
L 544 3500 
L 1119 3500 
L 1119 1403 
Q 1119 906 1312 657 
Q 1506 409 1894 409 
Q 2359 409 2629 706 
Q 2900 1003 2900 1516 
L 2900 3500 
L 3475 3500 
L 3475 0 
L 2900 0 
L 2900 538 
Q 2691 219 2414 64 
Q 2138 -91 1772 -91 
Q 1169 -91 856 284 
Q 544 659 544 1381 
z
M 1991 3584 
L 1991 3584 
z
" transform="scale(0.015625)"/>
     <path id="DejaVuSans-64" d="M 2906 2969 
L 2906 4863 
L 3481 4863 
L 3481 0 
L 2906 0 
L 2906 525 
Q 2725 213 2448 61 
Q 2172 -91 1784 -91 
Q 1150 -91 751 415 
Q 353 922 353 1747 
Q 353 2572 751 3078 
Q 1150 3584 1784 3584 
Q 2172 3584 2448 3432 
Q 2725 3281 2906 2969 
z
M 947 1747 
Q 947 1113 1208 752 
Q 1469 391 1925 391 
Q 2381 391 2643 752 
Q 2906 1113 2906 1747 
Q 2906 2381 2643 2742 
Q 2381 3103 1925 3103 
Q 1469 3103 1208 2742 
Q 947 2381 947 1747 
z
" transform="scale(0.015625)"/>
     <path id="DejaVuSans-72" d="M 2631 2963 
Q 2534 3019 2420 3045 
Q 2306 3072 2169 3072 
Q 1681 3072 1420 2755 
Q 1159 2438 1159 1844 
L 1159 0 
L 581 0 
L 581 3500 
L 1159 3500 
L 1159 2956 
Q 1341 3275 1631 3429 
Q 1922 3584 2338 3584 
Q 2397 3584 2469 3576 
Q 2541 3569 2628 3553 
L 2631 2963 
z
" transform="scale(0.015625)"/>
     <path id="DejaVuSans-61" d="M 2194 1759 
Q 1497 1759 1228 1600 
Q 959 1441 959 1056 
Q 959 750 1161 570 
Q 1363 391 1709 391 
Q 2188 391 2477 730 
Q 2766 1069 2766 1631 
L 2766 1759 
L 2194 1759 
z
M 3341 1997 
L 3341 0 
L 2766 0 
L 2766 531 
Q 2569 213 2275 61 
Q 1981 -91 1556 -91 
Q 1019 -91 701 211 
Q 384 513 384 1019 
Q 384 1609 779 1909 
Q 1175 2209 1959 2209 
L 2766 2209 
L 2766 2266 
Q 2766 2663 2505 2880 
Q 2244 3097 1772 3097 
Q 1472 3097 1187 3025 
Q 903 2953 641 2809 
L 641 3341 
Q 956 3463 1253 3523 
Q 1550 3584 1831 3584 
Q 2591 3584 2966 3190 
Q 3341 2797 3341 1997 
z
" transform="scale(0.015625)"/>
     <path id="DejaVuSans-6c" d="M 603 4863 
L 1178 4863 
L 1178 0 
L 603 0 
L 603 4863 
z
" transform="scale(0.015625)"/>
     <path id="DejaVuSans-79" d="M 2059 -325 
Q 1816 -950 1584 -1140 
Q 1353 -1331 966 -1331 
L 506 -1331 
L 506 -850 
L 844 -850 
Q 1081 -850 1212 -737 
Q 1344 -625 1503 -206 
L 1606 56 
L 191 3500 
L 800 3500 
L 1894 763 
L 2988 3500 
L 3597 3500 
L 2059 -325 
z
" transform="scale(0.015625)"/>
     <path id="DejaVuSans-28" d="M 1984 4856 
Q 1566 4138 1362 3434 
Q 1159 2731 1159 2009 
Q 1159 1288 1364 580 
Q 1569 -128 1984 -844 
L 1484 -844 
Q 1016 -109 783 600 
Q 550 1309 550 2009 
Q 550 2706 781 3412 
Q 1013 4119 1484 4856 
L 1984 4856 
z
" transform="scale(0.015625)"/>
     <path id="DejaVuSans-3d" d="M 678 2906 
L 4684 2906 
L 4684 2381 
L 678 2381 
L 678 2906 
z
M 678 1631 
L 4684 1631 
L 4684 1100 
L 678 1100 
L 678 1631 
z
" transform="scale(0.015625)"/>
     <path id="DejaVuSans-2d" d="M 313 2009 
L 1997 2009 
L 1997 1497 
L 313 1497 
L 313 2009 
z
" transform="scale(0.015625)"/>
     <path id="DejaVuSans-39" d="M 703 97 
L 703 672 
Q 941 559 1184 500 
Q 1428 441 1663 441 
Q 2288 441 2617 861 
Q 2947 1281 2994 2138 
Q 2813 1869 2534 1725 
Q 2256 1581 1919 1581 
Q 1219 1581 811 2004 
Q 403 2428 403 3163 
Q 403 3881 828 4315 
Q 1253 4750 1959 4750 
Q 2769 4750 3195 4129 
Q 3622 3509 3622 2328 
Q 3622 1225 3098 567 
Q 2575 -91 1691 -91 
Q 1453 -91 1209 -44 
Q 966 3 703 97 
z
M 1959 2075 
Q 2384 2075 2632 2365 
Q 2881 2656 2881 3163 
Q 2881 3666 2632 3958 
Q 2384 4250 1959 4250 
Q 1534 4250 1286 3958 
Q 1038 3666 1038 3163 
Q 1038 2656 1286 2365 
Q 1534 2075 1959 2075 
z
" transform="scale(0.015625)"/>
     <path id="DejaVuSans-29" d="M 513 4856 
L 1013 4856 
Q 1481 4119 1714 3412 
Q 1947 2706 1947 2009 
Q 1947 1309 1714 600 
Q 1481 -109 1013 -844 
L 513 -844 
Q 928 -128 1133 580 
Q 1338 1288 1338 2009 
Q 1338 2731 1133 3434 
Q 928 4138 513 4856 
z
" transform="scale(0.015625)"/>
    </defs>
    <use xlink:href="#DejaVuSans-44"/>
    <use xlink:href="#DejaVuSans-46" x="77.001953"/>
    <use xlink:href="#DejaVuSans-46" x="134.521484"/>
    <use xlink:href="#DejaVuSans-20" x="192.041016"/>
    <use xlink:href="#DejaVuSans-75" x="223.828125"/>
    <use xlink:href="#DejaVuSans-6e" x="287.207031"/>
    <use xlink:href="#DejaVuSans-64" x="350.585938"/>
    <use xlink:href="#DejaVuSans-65" x="414.0625"/>
    <use xlink:href="#DejaVuSans-72" x="475.585938"/>
    <use xlink:href="#DejaVuSans-20" x="516.699219"/>
    <use xlink:href="#DejaVuSans-42" x="548.486328"/>
    <use xlink:href="#DejaVuSans-42" x="617.089844"/>
    <use xlink:href="#DejaVuSans-49" x="685.693359"/>
    <use xlink:href="#DejaVuSans-20" x="715.185547"/>
    <use xlink:href="#DejaVuSans-73" x="746.972656"/>
    <use xlink:href="#DejaVuSans-77" x="799.072266"/>
    <use xlink:href="#DejaVuSans-65" x="880.859375"/>
    <use xlink:href="#DejaVuSans-65" x="942.382812"/>
    <use xlink:href="#DejaVuSans-70" x="1003.90625"/>
    <use xlink:href="#DejaVuSans-20" x="1067.382812"/>
    <use xlink:href="#DejaVuSans-61" x="1099.169922"/>
    <use xlink:href="#DejaVuSans-6e" x="1160.449219"/>
    <use xlink:href="#DejaVuSans-61" x="1223.828125"/>
    <use xlink:href="#DejaVuSans-6c" x="1285.107422"/>
    <use xlink:href="#DejaVuSans-79" x="1312.890625"/>
    <use xlink:href="#DejaVuSans-73" x="1372.070312"/>
    <use xlink:href="#DejaVuSans-69" x="1424.169922"/>
    <use xlink:href="#DejaVuSans-73" x="1451.953125"/>
    <use xlink:href="#DejaVuSans-20" x="1504.052734"/>
    <use xlink:href="#DejaVuSans-28" x="1535.839844"/>
    <use xlink:href="#DejaVuSans-53" x="1574.853516"/>
    <use xlink:href="#DejaVuSans-77" x="1638.330078"/>
    <use xlink:href="#DejaVuSans-65" x="1720.117188"/>
    <use xlink:href="#DejaVuSans-65" x="1781.640625"/>
    <use xlink:href="#DejaVuSans-70" x="1843.164062"/>
    <use xlink:href="#DejaVuSans-20" x="1906.640625"/>
    <use xlink:href="#DejaVuSans-3d" x="1938.427734"/>
    <use xlink:href="#DejaVuSans-20" x="2022.216797"/>
    <use xlink:href="#DejaVuSans-31" x="2054.003906"/>
    <use xlink:href="#DejaVuSans-31" x="2117.626953"/>
    <use xlink:href="#DejaVuSans-45" x="2181.25"/>
    <use xlink:href="#DejaVuSans-2d" x="2244.433594"/>
    <use xlink:href="#DejaVuSans-39" x="2280.517578"/>
    <use xlink:href="#DejaVuSans-29" x="2344.140625"/>
   </g>
  </g>
 </g>
 <defs>
  <clipPath id="pb2c8e3b5ea">
   <rect x="100.8" y="38.88" width="887.04" height="92.731034"/>
  </clipPath>
  <clipPath id="pd0ecf18c06">
   <rect x="100.8" y="150.157241" width="887.04" height="92.731034"/>
  </clipPath>
  <clipPath id="pdbf4dafa57">
   <rect x="100.8" y="261.434483" width="887.04" height="92.731034"/>
  </clipPath>
  <clipPath id="pecd9b1f882">
   <rect x="100.8" y="372.711724" width="887.04" height="92.731034"/>
  </clipPath>
  <clipPath id="pc14649b4b5">
   <rect x="100.8" y="483.988966" width="887.04" height="92.731034"/>
  </clipPath>
  <clipPath id="pa4a6c9ded3">
   <rect x="201.6" y="609.12" width="655.2" height="25.92"/>
  </clipPath>
  <clipPath id="pfea07634db">
   <path d="M 201.6 628.56 
L 856.8 628.56 
L 856.8 615.6 
L 201.6 615.6 
z
"/>
  </clipPath>
 </defs>
</svg>
