<?xml version="1.0" encoding="utf-8" standalone="no"?>
<!DOCTYPE svg PUBLIC "-//W3C//DTD SVG 1.1//EN"
  "http://www.w3.org/Graphics/SVG/1.1/DTD/svg11.dtd">
<svg xmlns:xlink="http://www.w3.org/1999/xlink" width="1008pt" height="648pt" viewBox="0 0 1008 648" xmlns="http://www.w3.org/2000/svg" version="1.1">
 <metadata>
  <rdf:RDF xmlns:dc="http://purl.org/dc/elements/1.1/" xmlns:cc="http://creativecommons.org/ns#" xmlns:rdf="http://www.w3.org/1999/02/22-rdf-syntax-ns#">
   <cc:Work>
    <dc:type rdf:resource="http://purl.org/dc/dcmitype/StillImage"/>
    <dc:date>2024-06-03T10:45:38.111149</dc:date>
    <dc:format>image/svg+xml</dc:format>
    <dc:creator>
     <cc:Agent>
      <dc:title>Matplotlib v3.9.0, https://matplotlib.org/</dc:title>
     </cc:Agent>
    </dc:creator>
   </cc:Work>
  </rdf:RDF>
 </metadata>
 <defs>
  <style type="text/css">*{stroke-linejoin: round; stroke-linecap: butt}</style>
 </defs>
 <g id="figure_1">
  <g id="patch_1">
   <path d="M 0 648 
L 1008 648 
L 1008 0 
L 0 0 
z
" style="fill: #ffffff"/>
  </g>
  <g id="axes_1">
   <g id="patch_2">
    <path d="M 100.8 131.611034 
L 987.84 131.611034 
L 987.84 38.88 
L 100.8 38.88 
z
" style="fill: #eeeeee"/>
   </g>
   <g id="matplotlib.axis_1">
    <g id="xtick_1">
     <g id="line2d_1">
      <path d="M 141.12 131.611034 
L 141.12 38.88 
" clip-path="url(#p9b0380cb55)" style="fill: none; stroke-dasharray: 1.85,0.8; stroke-dashoffset: 0; stroke: #b2b2b2; stroke-width: 0.5"/>
     </g>
     <g id="line2d_2">
      <defs>
       <path id="mf02755a53a" d="M 0 0 
L 0 -3.5 
" style="stroke: #000000; stroke-width: 0.8"/>
      </defs>
      <g>
       <use xlink:href="#mf02755a53a" x="141.12" y="131.611034" style="stroke: #000000; stroke-width: 0.8"/>
      </g>
     </g>
    </g>
    <g id="xtick_2">
     <g id="line2d_3">
      <path d="M 302.4 131.611034 
L 302.4 38.88 
" clip-path="url(#p9b0380cb55)" style="fill: none; stroke-dasharray: 1.85,0.8; stroke-dashoffset: 0; stroke: #b2b2b2; stroke-width: 0.5"/>
     </g>
     <g id="line2d_4">
      <g>
       <use xlink:href="#mf02755a53a" x="302.4" y="131.611034" style="stroke: #000000; stroke-width: 0.8"/>
      </g>
     </g>
    </g>
    <g id="xtick_3">
     <g id="line2d_5">
      <path d="M 463.68 131.611034 
L 463.68 38.88 
" clip-path="url(#p9b0380cb55)" style="fill: none; stroke-dasharray: 1.85,0.8; stroke-dashoffset: 0; stroke: #b2b2b2; stroke-width: 0.5"/>
     </g>
     <g id="line2d_6">
      <g>
       <use xlink:href="#mf02755a53a" x="463.68" y="131.611034" style="stroke: #000000; stroke-width: 0.8"/>
      </g>
     </g>
    </g>
    <g id="xtick_4">
     <g id="line2d_7">
      <path d="M 624.96 131.611034 
L 624.96 38.88 
" clip-path="url(#p9b0380cb55)" style="fill: none; stroke-dasharray: 1.85,0.8; stroke-dashoffset: 0; stroke: #b2b2b2; stroke-width: 0.5"/>
     </g>
     <g id="line2d_8">
      <g>
       <use xlink:href="#mf02755a53a" x="624.96" y="131.611034" style="stroke: #000000; stroke-width: 0.8"/>
      </g>
     </g>
    </g>
    <g id="xtick_5">
     <g id="line2d_9">
      <path d="M 786.24 131.611034 
L 786.24 38.88 
" clip-path="url(#p9b0380cb55)" style="fill: none; stroke-dasharray: 1.85,0.8; stroke-dashoffset: 0; stroke: #b2b2b2; stroke-width: 0.5"/>
     </g>
     <g id="line2d_10">
      <g>
       <use xlink:href="#mf02755a53a" x="786.24" y="131.611034" style="stroke: #000000; stroke-width: 0.8"/>
      </g>
     </g>
    </g>
    <g id="xtick_6">
     <g id="line2d_11">
      <path d="M 947.52 131.611034 
L 947.52 38.88 
" clip-path="url(#p9b0380cb55)" style="fill: none; stroke-dasharray: 1.85,0.8; stroke-dashoffset: 0; stroke: #b2b2b2; stroke-width: 0.5"/>
     </g>
     <g id="line2d_12">
      <g>
       <use xlink:href="#mf02755a53a" x="947.52" y="131.611034" style="stroke: #000000; stroke-width: 0.8"/>
      </g>
     </g>
    </g>
   </g>
   <g id="matplotlib.axis_2">
    <g id="ytick_1">
     <g id="line2d_13">
      <path d="M 100.8 98.340394 
L 987.84 98.340394 
" clip-path="url(#p9b0380cb55)" style="fill: none; stroke-dasharray: 1.85,0.8; stroke-dashoffset: 0; stroke: #b2b2b2; stroke-width: 0.5"/>
     </g>
     <g id="line2d_14">
      <defs>
       <path id="m6882d8195e" d="M 0 0 
L 3.5 0 
" style="stroke: #000000; stroke-width: 0.8"/>
      </defs>
      <g>
       <use xlink:href="#m6882d8195e" x="100.8" y="98.340394" style="stroke: #000000; stroke-width: 0.8"/>
      </g>
     </g>
     <g id="text_1">
      <!-- −200 V -->
      <g transform="translate(44.819688 103.6593) scale(0.14 -0.14)">
       <defs>
        <path id="DejaVuSans-2212" d="M 678 2272 
L 4684 2272 
L 4684 1741 
L 678 1741 
L 678 2272 
z
" transform="scale(0.015625)"/>
        <path id="DejaVuSans-32" d="M 1228 531 
L 3431 531 
L 3431 0 
L 469 0 
L 469 531 
Q 828 903 1448 1529 
Q 2069 2156 2228 2338 
Q 2531 2678 2651 2914 
Q 2772 3150 2772 3378 
Q 2772 3750 2511 3984 
Q 2250 4219 1831 4219 
Q 1534 4219 1204 4116 
Q 875 4013 500 3803 
L 500 4441 
Q 881 4594 1212 4672 
Q 1544 4750 1819 4750 
Q 2544 4750 2975 4387 
Q 3406 4025 3406 3419 
Q 3406 3131 3298 2873 
Q 3191 2616 2906 2266 
Q 2828 2175 2409 1742 
Q 1991 1309 1228 531 
z
" transform="scale(0.015625)"/>
        <path id="DejaVuSans-30" d="M 2034 4250 
Q 1547 4250 1301 3770 
Q 1056 3291 1056 2328 
Q 1056 1369 1301 889 
Q 1547 409 2034 409 
Q 2525 409 2770 889 
Q 3016 1369 3016 2328 
Q 3016 3291 2770 3770 
Q 2525 4250 2034 4250 
z
M 2034 4750 
Q 2819 4750 3233 4129 
Q 3647 3509 3647 2328 
Q 3647 1150 3233 529 
Q 2819 -91 2034 -91 
Q 1250 -91 836 529 
Q 422 1150 422 2328 
Q 422 3509 836 4129 
Q 1250 4750 2034 4750 
z
" transform="scale(0.015625)"/>
        <path id="DejaVuSans-20" transform="scale(0.015625)"/>
        <path id="DejaVuSans-56" d="M 1831 0 
L 50 4666 
L 709 4666 
L 2188 738 
L 3669 4666 
L 4325 4666 
L 2547 0 
L 1831 0 
z
" transform="scale(0.015625)"/>
       </defs>
       <use xlink:href="#DejaVuSans-2212"/>
       <use xlink:href="#DejaVuSans-32" x="83.789062"/>
       <use xlink:href="#DejaVuSans-30" x="147.412109"/>
       <use xlink:href="#DejaVuSans-30" x="211.035156"/>
       <use xlink:href="#DejaVuSans-20" x="274.658203"/>
       <use xlink:href="#DejaVuSans-56" x="306.445312"/>
      </g>
     </g>
    </g>
    <g id="ytick_2">
     <g id="line2d_15">
      <path d="M 100.8 45.027377 
L 987.84 45.027377 
" clip-path="url(#p9b0380cb55)" style="fill: none; stroke-dasharray: 1.85,0.8; stroke-dashoffset: 0; stroke: #b2b2b2; stroke-width: 0.5"/>
     </g>
     <g id="line2d_16">
      <g>
       <use xlink:href="#m6882d8195e" x="100.8" y="45.027377" style="stroke: #000000; stroke-width: 0.8"/>
      </g>
     </g>
     <g id="text_2">
      <!-- 0 V -->
      <g transform="translate(74.36625 50.346284) scale(0.14 -0.14)">
       <use xlink:href="#DejaVuSans-30"/>
       <use xlink:href="#DejaVuSans-20" x="63.623047"/>
       <use xlink:href="#DejaVuSans-56" x="95.410156"/>
      </g>
     </g>
    </g>
    <g id="text_3">
     <g id="patch_3">
      <path d="M 34.8768 131.080205 
L 34.8768 39.41083 
L 11.247425 39.41083 
L 11.247425 131.080205 
z
" style="fill: #ffff00; opacity: 0.2; stroke: #eeeeee; stroke-width: 0.5; stroke-linejoin: miter"/>
     </g>
     <!-- VPULSE BBI -->
     <g transform="translate(26.925238 126.040205) rotate(-90) scale(0.14 -0.14)">
      <defs>
       <path id="DejaVuSans-50" d="M 1259 4147 
L 1259 2394 
L 2053 2394 
Q 2494 2394 2734 2622 
Q 2975 2850 2975 3272 
Q 2975 3691 2734 3919 
Q 2494 4147 2053 4147 
L 1259 4147 
z
M 628 4666 
L 2053 4666 
Q 2838 4666 3239 4311 
Q 3641 3956 3641 3272 
Q 3641 2581 3239 2228 
Q 2838 1875 2053 1875 
L 1259 1875 
L 1259 0 
L 628 0 
L 628 4666 
z
" transform="scale(0.015625)"/>
       <path id="DejaVuSans-55" d="M 556 4666 
L 1191 4666 
L 1191 1831 
Q 1191 1081 1462 751 
Q 1734 422 2344 422 
Q 2950 422 3222 751 
Q 3494 1081 3494 1831 
L 3494 4666 
L 4128 4666 
L 4128 1753 
Q 4128 841 3676 375 
Q 3225 -91 2344 -91 
Q 1459 -91 1007 375 
Q 556 841 556 1753 
L 556 4666 
z
" transform="scale(0.015625)"/>
       <path id="DejaVuSans-4c" d="M 628 4666 
L 1259 4666 
L 1259 531 
L 3531 531 
L 3531 0 
L 628 0 
L 628 4666 
z
" transform="scale(0.015625)"/>
       <path id="DejaVuSans-53" d="M 3425 4513 
L 3425 3897 
Q 3066 4069 2747 4153 
Q 2428 4238 2131 4238 
Q 1616 4238 1336 4038 
Q 1056 3838 1056 3469 
Q 1056 3159 1242 3001 
Q 1428 2844 1947 2747 
L 2328 2669 
Q 3034 2534 3370 2195 
Q 3706 1856 3706 1288 
Q 3706 609 3251 259 
Q 2797 -91 1919 -91 
Q 1588 -91 1214 -16 
Q 841 59 441 206 
L 441 856 
Q 825 641 1194 531 
Q 1563 422 1919 422 
Q 2459 422 2753 634 
Q 3047 847 3047 1241 
Q 3047 1584 2836 1778 
Q 2625 1972 2144 2069 
L 1759 2144 
Q 1053 2284 737 2584 
Q 422 2884 422 3419 
Q 422 4038 858 4394 
Q 1294 4750 2059 4750 
Q 2388 4750 2728 4690 
Q 3069 4631 3425 4513 
z
" transform="scale(0.015625)"/>
       <path id="DejaVuSans-45" d="M 628 4666 
L 3578 4666 
L 3578 4134 
L 1259 4134 
L 1259 2753 
L 3481 2753 
L 3481 2222 
L 1259 2222 
L 1259 531 
L 3634 531 
L 3634 0 
L 628 0 
L 628 4666 
z
" transform="scale(0.015625)"/>
       <path id="DejaVuSans-42" d="M 1259 2228 
L 1259 519 
L 2272 519 
Q 2781 519 3026 730 
Q 3272 941 3272 1375 
Q 3272 1813 3026 2020 
Q 2781 2228 2272 2228 
L 1259 2228 
z
M 1259 4147 
L 1259 2741 
L 2194 2741 
Q 2656 2741 2882 2914 
Q 3109 3088 3109 3444 
Q 3109 3797 2882 3972 
Q 2656 4147 2194 4147 
L 1259 4147 
z
M 628 4666 
L 2241 4666 
Q 2963 4666 3353 4366 
Q 3744 4066 3744 3513 
Q 3744 3084 3544 2831 
Q 3344 2578 2956 2516 
Q 3422 2416 3680 2098 
Q 3938 1781 3938 1306 
Q 3938 681 3513 340 
Q 3088 0 2303 0 
L 628 0 
L 628 4666 
z
" transform="scale(0.015625)"/>
       <path id="DejaVuSans-49" d="M 628 4666 
L 1259 4666 
L 1259 0 
L 628 0 
L 628 4666 
z
" transform="scale(0.015625)"/>
      </defs>
      <use xlink:href="#DejaVuSans-56"/>
      <use xlink:href="#DejaVuSans-50" x="68.408203"/>
      <use xlink:href="#DejaVuSans-55" x="128.710938"/>
      <use xlink:href="#DejaVuSans-4c" x="201.904297"/>
      <use xlink:href="#DejaVuSans-53" x="257.617188"/>
      <use xlink:href="#DejaVuSans-45" x="321.09375"/>
      <use xlink:href="#DejaVuSans-20" x="384.277344"/>
      <use xlink:href="#DejaVuSans-42" x="416.064453"/>
      <use xlink:href="#DejaVuSans-42" x="484.667969"/>
      <use xlink:href="#DejaVuSans-49" x="553.271484"/>
     </g>
    </g>
   </g>
   <g id="line2d_17">
    <path d="M 141.12 45.027377 
L 328.237056 45.136282 
L 328.720896 46.425538 
L 336.946176 69.006772 
L 344.365056 89.863624 
L 345.977856 94.440546 
L 347.784192 99.673219 
L 351.26784 110.807642 
L 352.848384 115.853719 
L 354.074112 119.550977 
L 357.977088 121.36362 
L 358.557696 121.619522 
L 359.428608 122.003376 
L 360.073728 122.269941 
L 361.654272 122.936354 
L 362.299392 123.202919 
L 363.396096 123.629423 
L 364.137984 123.922644 
L 365.234688 124.349149 
L 366.137856 124.677024 
L 366.815232 124.943589 
L 367.621632 125.25547 
L 368.976384 125.804594 
L 371.621376 126.790885 
L 372.23424 127.022796 
L 374.1696 127.395987 
L 392.652288 127.289361 
L 392.87808 126.801547 
L 411.167232 75.087922 
L 414.908928 63.292417 
L 418.618368 51.617666 
L 423.230976 49.3412 
L 428.585472 46.984578 
L 437.294592 43.484472 
L 438.165504 43.268927 
L 452.454912 43.108189 
L 459.260928 43.184799 
L 474.614784 43.746186 
L 502.3872 44.46146 
L 528.03072 44.774399 
L 563.641344 44.945888 
L 611.670528 44.953885 
L 947.52 44.953885 
L 947.52 44.953885 
" clip-path="url(#p9b0380cb55)" style="fill: none; stroke: #ff0000; stroke-width: 2; stroke-linecap: square"/>
   </g>
   <g id="patch_4">
    <path d="M 100.8 131.611034 
L 100.8 38.88 
" style="fill: none; stroke: #bcbcbc; stroke-width: 0.8; stroke-linejoin: miter; stroke-linecap: square"/>
   </g>
   <g id="patch_5">
    <path d="M 987.84 131.611034 
L 987.84 38.88 
" style="fill: none; stroke: #bcbcbc; stroke-width: 0.8; stroke-linejoin: miter; stroke-linecap: square"/>
   </g>
   <g id="patch_6">
    <path d="M 100.8 131.611034 
L 987.84 131.611034 
" style="fill: none; stroke: #bcbcbc; stroke-width: 0.8; stroke-linejoin: miter; stroke-linecap: square"/>
   </g>
   <g id="patch_7">
    <path d="M 100.8 38.88 
L 987.84 38.88 
" style="fill: none; stroke: #bcbcbc; stroke-width: 0.8; stroke-linejoin: miter; stroke-linecap: square"/>
   </g>
  </g>
  <g id="axes_2">
   <g id="patch_8">
    <path d="M 100.8 242.888276 
L 987.84 242.888276 
L 987.84 150.157241 
L 100.8 150.157241 
z
" style="fill: #eeeeee"/>
   </g>
   <g id="matplotlib.axis_3">
    <g id="xtick_7">
     <g id="line2d_18">
      <path d="M 141.12 242.888276 
L 141.12 150.157241 
" clip-path="url(#p6276e14e23)" style="fill: none; stroke-dasharray: 1.85,0.8; stroke-dashoffset: 0; stroke: #b2b2b2; stroke-width: 0.5"/>
     </g>
     <g id="line2d_19">
      <g>
       <use xlink:href="#mf02755a53a" x="141.12" y="242.888276" style="stroke: #000000; stroke-width: 0.8"/>
      </g>
     </g>
    </g>
    <g id="xtick_8">
     <g id="line2d_20">
      <path d="M 302.4 242.888276 
L 302.4 150.157241 
" clip-path="url(#p6276e14e23)" style="fill: none; stroke-dasharray: 1.85,0.8; stroke-dashoffset: 0; stroke: #b2b2b2; stroke-width: 0.5"/>
     </g>
     <g id="line2d_21">
      <g>
       <use xlink:href="#mf02755a53a" x="302.4" y="242.888276" style="stroke: #000000; stroke-width: 0.8"/>
      </g>
     </g>
    </g>
    <g id="xtick_9">
     <g id="line2d_22">
      <path d="M 463.68 242.888276 
L 463.68 150.157241 
" clip-path="url(#p6276e14e23)" style="fill: none; stroke-dasharray: 1.85,0.8; stroke-dashoffset: 0; stroke: #b2b2b2; stroke-width: 0.5"/>
     </g>
     <g id="line2d_23">
      <g>
       <use xlink:href="#mf02755a53a" x="463.68" y="242.888276" style="stroke: #000000; stroke-width: 0.8"/>
      </g>
     </g>
    </g>
    <g id="xtick_10">
     <g id="line2d_24">
      <path d="M 624.96 242.888276 
L 624.96 150.157241 
" clip-path="url(#p6276e14e23)" style="fill: none; stroke-dasharray: 1.85,0.8; stroke-dashoffset: 0; stroke: #b2b2b2; stroke-width: 0.5"/>
     </g>
     <g id="line2d_25">
      <g>
       <use xlink:href="#mf02755a53a" x="624.96" y="242.888276" style="stroke: #000000; stroke-width: 0.8"/>
      </g>
     </g>
    </g>
    <g id="xtick_11">
     <g id="line2d_26">
      <path d="M 786.24 242.888276 
L 786.24 150.157241 
" clip-path="url(#p6276e14e23)" style="fill: none; stroke-dasharray: 1.85,0.8; stroke-dashoffset: 0; stroke: #b2b2b2; stroke-width: 0.5"/>
     </g>
     <g id="line2d_27">
      <g>
       <use xlink:href="#mf02755a53a" x="786.24" y="242.888276" style="stroke: #000000; stroke-width: 0.8"/>
      </g>
     </g>
    </g>
    <g id="xtick_12">
     <g id="line2d_28">
      <path d="M 947.52 242.888276 
L 947.52 150.157241 
" clip-path="url(#p6276e14e23)" style="fill: none; stroke-dasharray: 1.85,0.8; stroke-dashoffset: 0; stroke: #b2b2b2; stroke-width: 0.5"/>
     </g>
     <g id="line2d_29">
      <g>
       <use xlink:href="#mf02755a53a" x="947.52" y="242.888276" style="stroke: #000000; stroke-width: 0.8"/>
      </g>
     </g>
    </g>
   </g>
   <g id="matplotlib.axis_4">
    <g id="ytick_3">
     <g id="line2d_30">
      <path d="M 100.8 219.967053 
L 987.84 219.967053 
" clip-path="url(#p6276e14e23)" style="fill: none; stroke-dasharray: 1.85,0.8; stroke-dashoffset: 0; stroke: #b2b2b2; stroke-width: 0.5"/>
     </g>
     <g id="line2d_31">
      <g>
       <use xlink:href="#m6882d8195e" x="100.8" y="219.967053" style="stroke: #000000; stroke-width: 0.8"/>
      </g>
     </g>
     <g id="text_4">
      <!-- 0 V -->
      <g transform="translate(74.36625 225.285959) scale(0.14 -0.14)">
       <use xlink:href="#DejaVuSans-30"/>
       <use xlink:href="#DejaVuSans-20" x="63.623047"/>
       <use xlink:href="#DejaVuSans-56" x="95.410156"/>
      </g>
     </g>
    </g>
    <g id="ytick_4">
     <g id="line2d_32">
      <path d="M 100.8 187.644808 
L 987.84 187.644808 
" clip-path="url(#p6276e14e23)" style="fill: none; stroke-dasharray: 1.85,0.8; stroke-dashoffset: 0; stroke: #b2b2b2; stroke-width: 0.5"/>
     </g>
     <g id="line2d_33">
      <g>
       <use xlink:href="#m6882d8195e" x="100.8" y="187.644808" style="stroke: #000000; stroke-width: 0.8"/>
      </g>
     </g>
     <g id="text_5">
      <!-- 1 V -->
      <g transform="translate(74.36625 192.963714) scale(0.14 -0.14)">
       <defs>
        <path id="DejaVuSans-31" d="M 794 531 
L 1825 531 
L 1825 4091 
L 703 3866 
L 703 4441 
L 1819 4666 
L 2450 4666 
L 2450 531 
L 3481 531 
L 3481 0 
L 794 0 
L 794 531 
z
" transform="scale(0.015625)"/>
       </defs>
       <use xlink:href="#DejaVuSans-31"/>
       <use xlink:href="#DejaVuSans-20" x="63.623047"/>
       <use xlink:href="#DejaVuSans-56" x="95.410156"/>
      </g>
     </g>
    </g>
    <g id="ytick_5">
     <g id="line2d_34">
      <path d="M 100.8 155.322562 
L 987.84 155.322562 
" clip-path="url(#p6276e14e23)" style="fill: none; stroke-dasharray: 1.85,0.8; stroke-dashoffset: 0; stroke: #b2b2b2; stroke-width: 0.5"/>
     </g>
     <g id="line2d_35">
      <g>
       <use xlink:href="#m6882d8195e" x="100.8" y="155.322562" style="stroke: #000000; stroke-width: 0.8"/>
      </g>
     </g>
     <g id="text_6">
      <!-- 2 V -->
      <g transform="translate(74.36625 160.641469) scale(0.14 -0.14)">
       <use xlink:href="#DejaVuSans-32"/>
       <use xlink:href="#DejaVuSans-20" x="63.623047"/>
       <use xlink:href="#DejaVuSans-56" x="95.410156"/>
      </g>
     </g>
    </g>
    <g id="text_7">
     <g id="patch_9">
      <path d="M 34.8768 224.531509 
L 34.8768 168.514009 
L 11.247425 168.514009 
L 11.247425 224.531509 
z
" style="fill: #ffff00; opacity: 0.2; stroke: #eeeeee; stroke-width: 0.5; stroke-linejoin: miter"/>
     </g>
     <!-- DFF IN -->
     <g transform="translate(26.925238 219.491509) rotate(-90) scale(0.14 -0.14)">
      <defs>
       <path id="DejaVuSans-44" d="M 1259 4147 
L 1259 519 
L 2022 519 
Q 2988 519 3436 956 
Q 3884 1394 3884 2338 
Q 3884 3275 3436 3711 
Q 2988 4147 2022 4147 
L 1259 4147 
z
M 628 4666 
L 1925 4666 
Q 3281 4666 3915 4102 
Q 4550 3538 4550 2338 
Q 4550 1131 3912 565 
Q 3275 0 1925 0 
L 628 0 
L 628 4666 
z
" transform="scale(0.015625)"/>
       <path id="DejaVuSans-46" d="M 628 4666 
L 3309 4666 
L 3309 4134 
L 1259 4134 
L 1259 2759 
L 3109 2759 
L 3109 2228 
L 1259 2228 
L 1259 0 
L 628 0 
L 628 4666 
z
" transform="scale(0.015625)"/>
       <path id="DejaVuSans-4e" d="M 628 4666 
L 1478 4666 
L 3547 763 
L 3547 4666 
L 4159 4666 
L 4159 0 
L 3309 0 
L 1241 3903 
L 1241 0 
L 628 0 
L 628 4666 
z
" transform="scale(0.015625)"/>
      </defs>
      <use xlink:href="#DejaVuSans-44"/>
      <use xlink:href="#DejaVuSans-46" x="77.001953"/>
      <use xlink:href="#DejaVuSans-46" x="134.521484"/>
      <use xlink:href="#DejaVuSans-20" x="192.041016"/>
      <use xlink:href="#DejaVuSans-49" x="223.828125"/>
      <use xlink:href="#DejaVuSans-4e" x="253.320312"/>
     </g>
    </g>
   </g>
   <g id="line2d_36">
    <path d="M 141.12 219.919849 
L 221.953536 219.875526 
L 224.437248 201.865949 
L 225.404928 196.387328 
L 228.243456 184.341474 
L 229.598208 183.132622 
L 231.178752 182.30194 
L 236.59776 181.868822 
L 243.758592 181.758927 
L 245.274624 181.716908 
L 248.564736 181.607012 
L 250.371072 181.535903 
L 252.499968 181.426008 
L 254.209536 181.173894 
L 254.725632 180.640577 
L 255.370752 180.320587 
L 255.886848 180.268871 
L 257.596416 180.550075 
L 260.080128 180.934709 
L 262.370304 181.054302 
L 263.886336 181.102785 
L 264.144384 186.086875 
L 264.434688 189.478125 
L 265.176576 193.995805 
L 267.144192 210.485645 
L 268.402176 216.676971 
L 269.079552 217.939478 
L 270.46656 219.574531 
L 273.756672 219.968247 
L 282.756096 219.925189 
L 297.335808 219.910721 
L 306.238464 219.919242 
L 328.301568 220.008797 
L 329.720832 221.313274 
L 331.623936 222.242377 
L 332.914176 222.480398 
L 334.81728 222.593882 
L 336.43008 222.775306 
L 337.39776 223.244205 
L 338.494464 223.77526 
L 340.397568 224.642789 
L 341.236224 225.141844 
L 342.945792 226.100522 
L 343.719936 226.2046 
L 344.203776 226.095027 
L 344.590848 225.874913 
L 345.268224 225.220064 
L 345.816576 224.743311 
L 346.042368 224.893609 
L 346.42944 225.470885 
L 347.139072 226.529438 
L 347.268096 226.692989 
L 348.816384 229.827277 
L 350.009856 232.062683 
L 351.5904 234.789065 
L 351.783936 235.104207 
L 352.138752 235.618777 
L 352.364544 236.022482 
L 352.88064 236.905525 
L 354.106368 238.672582 
L 354.299904 238.551374 
L 354.783744 237.821214 
L 355.009536 237.603363 
L 355.493376 236.754904 
L 355.977216 235.990806 
L 356.332032 235.694411 
L 356.783616 235.258384 
L 357.848064 234.00525 
L 358.815744 233.26701 
L 359.33184 232.639312 
L 359.589888 232.197144 
L 359.622144 232.215244 
L 359.751168 232.204578 
L 359.97696 231.950525 
L 360.202752 231.915294 
L 360.751104 231.483469 
L 361.041408 231.289858 
L 363.36384 229.299455 
L 363.750912 229.065441 
L 365.170176 227.756391 
L 365.395968 227.519792 
L 365.815296 227.260891 
L 367.428096 226.171631 
L 368.266752 225.469268 
L 368.653824 224.925932 
L 368.84736 224.915588 
L 370.331136 224.052908 
L 374.395392 220.658005 
L 376.5888 217.716681 
L 376.879104 217.302536 
L 377.782272 216.164664 
L 380.6208 212.730102 
L 382.007808 211.33572 
L 382.523904 210.7439 
L 383.136768 209.099667 
L 384.620544 205.005732 
L 385.588224 202.965552 
L 387.362304 200.441184 
L 388.03968 199.66836 
L 389.104128 198.281735 
L 390.007296 197.341158 
L 391.007232 196.166567 
L 391.9104 195.4196 
L 392.749056 194.555304 
L 393.232896 193.104358 
L 394.426368 189.269324 
L 395.265024 187.373301 
L 396.232704 185.763653 
L 397.974528 183.510792 
L 404.232192 175.82133 
L 405.103104 174.712677 
L 413.296128 164.689549 
L 415.392768 161.987409 
L 415.908864 158.567716 
L 416.42496 156.589594 
L 417.005568 155.371046 
L 417.55392 154.786013 
L 418.070016 154.508042 
L 418.5216 154.394914 
L 418.650624 154.537132 
L 420.45696 157.061499 
L 421.26336 157.6433 
L 422.618112 158.331763 
L 427.746816 160.267866 
L 430.198272 161.117941 
L 431.843328 161.657722 
L 433.0368 162.010035 
L 438.35904 163.716649 
L 439.068672 164.081891 
L 441.26208 165.061255 
L 441.74592 165.264885 
L 442.22976 165.47498 
L 450.648576 168.72983 
L 451.519488 169.017498 
L 453.164544 169.557279 
L 455.712768 170.397658 
L 456.4224 172.269116 
L 456.841728 173.245247 
L 457.261056 174.347436 
L 457.486848 174.460564 
L 457.809408 174.318346 
L 458.390016 173.778564 
L 459.16416 173.151513 
L 460.035072 172.753949 
L 460.809216 172.631125 
L 463.002624 172.74102 
L 464.583168 172.94465 
L 465.228288 173.051314 
L 466.195968 173.235551 
L 466.74432 173.345446 
L 480.098304 175.9086 
L 481.807872 176.189804 
L 482.517504 176.296467 
L 483.323904 176.403131 
L 485.388288 176.70696 
L 486.194688 176.816855 
L 490.226688 177.330779 
L 491.516928 177.476229 
L 496.09728 177.831774 
L 496.710144 177.249974 
L 497.129472 177.123917 
L 497.645568 177.130381 
L 498.322944 177.304921 
L 502.322688 178.397413 
L 511.773696 179.234559 
L 513.612288 179.341223 
L 514.063872 179.363848 
L 516.450816 179.493137 
L 517.095936 179.528692 
L 517.54752 179.55455 
L 519.611904 179.651516 
L 521.869824 179.75818 
L 522.289152 179.780805 
L 523.095552 179.806663 
L 525.063168 179.897165 
L 525.869568 179.923023 
L 527.70816 179.997364 
L 530.966016 180.10726 
L 531.57888 180.123421 
L 532.353024 180.155743 
L 536.288256 180.265639 
L 536.41728 180.359373 
L 536.868864 180.879762 
L 537.320448 181.141572 
L 538.288128 181.325809 
L 539.449344 181.102785 
L 540.513792 180.792492 
L 541.997568 180.60179 
L 542.836224 180.575933 
L 554.190336 180.682596 
L 554.867712 180.705222 
L 555.93216 180.701989 
L 563.576832 180.811885 
L 564.221952 180.828046 
L 576.73728 180.74724 
L 577.285632 180.210691 
L 578.092032 179.923023 
L 579.382272 180.026454 
L 580.801536 180.33998 
L 582.446592 180.556539 
L 585.317376 180.734312 
L 616.992768 180.831278 
L 617.928192 181.626406 
L 618.863616 181.797713 
L 620.992512 181.687818 
L 622.798848 181.396918 
L 624.1536 181.238539 
L 628.604928 180.902387 
L 657.312768 180.831278 
L 657.86112 180.246246 
L 658.409472 179.984435 
L 660.377088 180.094331 
L 661.73184 180.388464 
L 663.441408 180.617951 
L 665.796096 180.744008 
L 697.632768 180.831278 
L 698.568192 181.626406 
L 699.503616 181.797713 
L 701.632512 181.69105 
L 704.019456 181.325809 
L 709.438464 180.892691 
L 737.985024 180.786027 
L 738.50112 180.246246 
L 739.049472 179.984435 
L 741.017088 180.094331 
L 742.37184 180.388464 
L 744.081408 180.617951 
L 746.436096 180.744008 
L 778.272768 180.831278 
L 779.208192 181.626406 
L 780.143616 181.797713 
L 782.272512 181.687818 
L 784.111104 181.393685 
L 785.465856 181.235306 
L 789.884928 180.902387 
L 818.592768 180.831278 
L 819.14112 180.246246 
L 819.689472 179.984435 
L 821.657088 180.094331 
L 823.01184 180.388464 
L 824.721408 180.617951 
L 827.076096 180.744008 
L 858.912768 180.831278 
L 859.848192 181.626406 
L 860.783616 181.797713 
L 862.106112 181.820339 
L 864.94464 181.364595 
L 870.75072 180.892691 
L 899.265024 180.786027 
L 899.78112 180.246246 
L 900.329472 179.984435 
L 902.297088 180.094331 
L 903.65184 180.388464 
L 905.361408 180.617951 
L 907.716096 180.744008 
L 939.552768 180.831278 
L 940.617216 181.655496 
L 941.584896 181.833268 
L 943.488 181.723372 
L 944.907264 181.471259 
L 947.19744 181.125411 
L 947.52 181.076927 
L 947.52 181.076927 
" clip-path="url(#p6276e14e23)" style="fill: none; stroke: #008000; stroke-width: 2; stroke-linecap: square"/>
   </g>
   <g id="patch_10">
    <path d="M 100.8 242.888276 
L 100.8 150.157241 
" style="fill: none; stroke: #bcbcbc; stroke-width: 0.8; stroke-linejoin: miter; stroke-linecap: square"/>
   </g>
   <g id="patch_11">
    <path d="M 987.84 242.888276 
L 987.84 150.157241 
" style="fill: none; stroke: #bcbcbc; stroke-width: 0.8; stroke-linejoin: miter; stroke-linecap: square"/>
   </g>
   <g id="patch_12">
    <path d="M 100.8 242.888276 
L 987.84 242.888276 
" style="fill: none; stroke: #bcbcbc; stroke-width: 0.8; stroke-linejoin: miter; stroke-linecap: square"/>
   </g>
   <g id="patch_13">
    <path d="M 100.8 150.157241 
L 987.84 150.157241 
" style="fill: none; stroke: #bcbcbc; stroke-width: 0.8; stroke-linejoin: miter; stroke-linecap: square"/>
   </g>
  </g>
  <g id="axes_3">
   <g id="patch_14">
    <path d="M 100.8 354.165517 
L 987.84 354.165517 
L 987.84 261.434483 
L 100.8 261.434483 
z
" style="fill: #eeeeee"/>
   </g>
   <g id="matplotlib.axis_5">
    <g id="xtick_13">
     <g id="line2d_37">
      <path d="M 141.12 354.165517 
L 141.12 261.434483 
" clip-path="url(#pbdf8b5b201)" style="fill: none; stroke-dasharray: 1.85,0.8; stroke-dashoffset: 0; stroke: #b2b2b2; stroke-width: 0.5"/>
     </g>
     <g id="line2d_38">
      <g>
       <use xlink:href="#mf02755a53a" x="141.12" y="354.165517" style="stroke: #000000; stroke-width: 0.8"/>
      </g>
     </g>
    </g>
    <g id="xtick_14">
     <g id="line2d_39">
      <path d="M 302.4 354.165517 
L 302.4 261.434483 
" clip-path="url(#pbdf8b5b201)" style="fill: none; stroke-dasharray: 1.85,0.8; stroke-dashoffset: 0; stroke: #b2b2b2; stroke-width: 0.5"/>
     </g>
     <g id="line2d_40">
      <g>
       <use xlink:href="#mf02755a53a" x="302.4" y="354.165517" style="stroke: #000000; stroke-width: 0.8"/>
      </g>
     </g>
    </g>
    <g id="xtick_15">
     <g id="line2d_41">
      <path d="M 463.68 354.165517 
L 463.68 261.434483 
" clip-path="url(#pbdf8b5b201)" style="fill: none; stroke-dasharray: 1.85,0.8; stroke-dashoffset: 0; stroke: #b2b2b2; stroke-width: 0.5"/>
     </g>
     <g id="line2d_42">
      <g>
       <use xlink:href="#mf02755a53a" x="463.68" y="354.165517" style="stroke: #000000; stroke-width: 0.8"/>
      </g>
     </g>
    </g>
    <g id="xtick_16">
     <g id="line2d_43">
      <path d="M 624.96 354.165517 
L 624.96 261.434483 
" clip-path="url(#pbdf8b5b201)" style="fill: none; stroke-dasharray: 1.85,0.8; stroke-dashoffset: 0; stroke: #b2b2b2; stroke-width: 0.5"/>
     </g>
     <g id="line2d_44">
      <g>
       <use xlink:href="#mf02755a53a" x="624.96" y="354.165517" style="stroke: #000000; stroke-width: 0.8"/>
      </g>
     </g>
    </g>
    <g id="xtick_17">
     <g id="line2d_45">
      <path d="M 786.24 354.165517 
L 786.24 261.434483 
" clip-path="url(#pbdf8b5b201)" style="fill: none; stroke-dasharray: 1.85,0.8; stroke-dashoffset: 0; stroke: #b2b2b2; stroke-width: 0.5"/>
     </g>
     <g id="line2d_46">
      <g>
       <use xlink:href="#mf02755a53a" x="786.24" y="354.165517" style="stroke: #000000; stroke-width: 0.8"/>
      </g>
     </g>
    </g>
    <g id="xtick_18">
     <g id="line2d_47">
      <path d="M 947.52 354.165517 
L 947.52 261.434483 
" clip-path="url(#pbdf8b5b201)" style="fill: none; stroke-dasharray: 1.85,0.8; stroke-dashoffset: 0; stroke: #b2b2b2; stroke-width: 0.5"/>
     </g>
     <g id="line2d_48">
      <g>
       <use xlink:href="#mf02755a53a" x="947.52" y="354.165517" style="stroke: #000000; stroke-width: 0.8"/>
      </g>
     </g>
    </g>
   </g>
   <g id="matplotlib.axis_6">
    <g id="ytick_6">
     <g id="line2d_49">
      <path d="M 100.8 348.435941 
L 987.84 348.435941 
" clip-path="url(#pbdf8b5b201)" style="fill: none; stroke-dasharray: 1.85,0.8; stroke-dashoffset: 0; stroke: #b2b2b2; stroke-width: 0.5"/>
     </g>
     <g id="line2d_50">
      <g>
       <use xlink:href="#m6882d8195e" x="100.8" y="348.435941" style="stroke: #000000; stroke-width: 0.8"/>
      </g>
     </g>
     <g id="text_8">
      <!-- 0 V -->
      <g transform="translate(74.36625 353.754847) scale(0.14 -0.14)">
       <use xlink:href="#DejaVuSans-30"/>
       <use xlink:href="#DejaVuSans-20" x="63.623047"/>
       <use xlink:href="#DejaVuSans-56" x="95.410156"/>
      </g>
     </g>
    </g>
    <g id="ytick_7">
     <g id="line2d_51">
      <path d="M 100.8 305.479107 
L 987.84 305.479107 
" clip-path="url(#pbdf8b5b201)" style="fill: none; stroke-dasharray: 1.85,0.8; stroke-dashoffset: 0; stroke: #b2b2b2; stroke-width: 0.5"/>
     </g>
     <g id="line2d_52">
      <g>
       <use xlink:href="#m6882d8195e" x="100.8" y="305.479107" style="stroke: #000000; stroke-width: 0.8"/>
      </g>
     </g>
     <g id="text_9">
      <!-- 1 V -->
      <g transform="translate(74.36625 310.798013) scale(0.14 -0.14)">
       <use xlink:href="#DejaVuSans-31"/>
       <use xlink:href="#DejaVuSans-20" x="63.623047"/>
       <use xlink:href="#DejaVuSans-56" x="95.410156"/>
      </g>
     </g>
    </g>
    <g id="ytick_8">
     <g id="line2d_53">
      <path d="M 100.8 262.522272 
L 987.84 262.522272 
" clip-path="url(#pbdf8b5b201)" style="fill: none; stroke-dasharray: 1.85,0.8; stroke-dashoffset: 0; stroke: #b2b2b2; stroke-width: 0.5"/>
     </g>
     <g id="line2d_54">
      <g>
       <use xlink:href="#m6882d8195e" x="100.8" y="262.522272" style="stroke: #000000; stroke-width: 0.8"/>
      </g>
     </g>
     <g id="text_10">
      <!-- 2 V -->
      <g transform="translate(74.36625 267.841178) scale(0.14 -0.14)">
       <use xlink:href="#DejaVuSans-32"/>
       <use xlink:href="#DejaVuSans-20" x="63.623047"/>
       <use xlink:href="#DejaVuSans-56" x="95.410156"/>
      </g>
     </g>
    </g>
    <g id="text_11">
     <g id="patch_15">
      <path d="M 34.8768 342.395313 
L 34.8768 273.204688 
L 11.247425 273.204688 
L 11.247425 342.395313 
z
" style="fill: #ffff00; opacity: 0.2; stroke: #eeeeee; stroke-width: 0.5; stroke-linejoin: miter"/>
     </g>
     <!-- CLK BUF -->
     <g transform="translate(26.925238 337.355313) rotate(-90) scale(0.14 -0.14)">
      <defs>
       <path id="DejaVuSans-43" d="M 4122 4306 
L 4122 3641 
Q 3803 3938 3442 4084 
Q 3081 4231 2675 4231 
Q 1875 4231 1450 3742 
Q 1025 3253 1025 2328 
Q 1025 1406 1450 917 
Q 1875 428 2675 428 
Q 3081 428 3442 575 
Q 3803 722 4122 1019 
L 4122 359 
Q 3791 134 3420 21 
Q 3050 -91 2638 -91 
Q 1578 -91 968 557 
Q 359 1206 359 2328 
Q 359 3453 968 4101 
Q 1578 4750 2638 4750 
Q 3056 4750 3426 4639 
Q 3797 4528 4122 4306 
z
" transform="scale(0.015625)"/>
       <path id="DejaVuSans-4b" d="M 628 4666 
L 1259 4666 
L 1259 2694 
L 3353 4666 
L 4166 4666 
L 1850 2491 
L 4331 0 
L 3500 0 
L 1259 2247 
L 1259 0 
L 628 0 
L 628 4666 
z
" transform="scale(0.015625)"/>
      </defs>
      <use xlink:href="#DejaVuSans-43"/>
      <use xlink:href="#DejaVuSans-4c" x="69.824219"/>
      <use xlink:href="#DejaVuSans-4b" x="125.537109"/>
      <use xlink:href="#DejaVuSans-20" x="191.113281"/>
      <use xlink:href="#DejaVuSans-42" x="222.900391"/>
      <use xlink:href="#DejaVuSans-55" x="291.503906"/>
      <use xlink:href="#DejaVuSans-46" x="364.697266"/>
     </g>
    </g>
   </g>
   <g id="line2d_55">
    <path d="M 141.12 348.434805 
L 173.376 348.434805 
L 173.601792 296.88774 
L 213.696 296.88774 
L 213.760512 338.005592 
L 213.825024 348.416316 
L 213.889536 348.354499 
L 213.954048 348.526108 
L 214.01856 348.440596 
L 215.373312 348.431155 
L 223.469568 348.434755 
L 254.016 348.434776 
L 254.17728 296.728799 
L 254.241792 297.003723 
L 254.403072 296.879148 
L 254.854656 296.88774 
L 294.336 296.88774 
L 294.400512 337.969508 
L 294.465024 348.756489 
L 294.529536 348.009629 
L 294.626304 348.503448 
L 294.65856 348.47288 
L 294.852096 348.397377 
L 295.206912 348.451573 
L 295.497216 348.434471 
L 320.721408 348.434808 
L 328.269312 348.515497 
L 328.946688 349.163415 
L 329.720832 349.568799 
L 330.78528 349.831007 
L 332.204544 349.940891 
L 334.656 349.924009 
L 334.81728 307.800494 
L 334.881792 307.999384 
L 338.494464 313.942033 
L 342.07488 319.362326 
L 345.106944 323.589708 
L 345.332736 323.879667 
L 345.78432 324.511991 
L 345.816576 324.417486 
L 345.848832 324.608215 
L 345.913344 324.586307 
L 346.074624 324.842759 
L 348.816384 327.571377 
L 350.977536 329.297383 
L 353.170944 330.825357 
L 354.074112 331.314206 
L 355.106304 330.78283 
L 357.267456 329.927989 
L 357.331968 329.860547 
L 357.364224 329.923693 
L 357.590016 329.806421 
L 357.815808 329.672396 
L 357.944832 329.683565 
L 358.751232 329.379001 
L 359.364096 329.153048 
L 364.847616 327.256933 
L 364.97664 327.109591 
L 365.13792 327.161569 
L 365.266944 326.989742 
L 365.395968 327.048163 
L 365.589504 326.952799 
L 365.718528 326.914567 
L 365.847552 326.84154 
L 366.008832 326.825217 
L 373.943808 323.973313 
L 374.201856 323.816091 
L 374.976 323.365044 
L 375.040512 321.3087 
L 375.29856 348.009689 
L 375.363072 348.000058 
L 375.685632 347.97669 
L 377.975808 347.873851 
L 389.942784 348.001948 
L 392.781312 347.935537 
L 393.426432 347.312792 
L 394.200576 346.903499 
L 395.200512 346.654435 
L 396.684288 346.547215 
L 399.361536 346.597646 
L 413.941248 346.992334 
L 415.296 347.011793 
L 415.328256 338.040817 
L 415.45728 270.383373 
L 416.812032 268.25701 
L 418.102272 266.362613 
L 418.553856 265.774105 
L 420.005376 265.688191 
L 422.424576 266.444231 
L 423.908352 267.110062 
L 425.875968 268.012156 
L 426.295296 268.205461 
L 427.908096 268.940023 
L 430.198272 269.970987 
L 431.488512 270.533722 
L 438.617088 273.497743 
L 439.197696 273.824215 
L 441.455616 275.14299 
L 441.874944 275.387844 
L 451.358208 280.314993 
L 454.067712 281.513489 
L 455.003136 281.887213 
L 455.616 282.157841 
L 455.809536 348.877924 
L 455.841792 348.786765 
L 457.196544 348.774278 
L 465.61536 348.723984 
L 495.936 348.551276 
L 496.065024 292.287063 
L 496.161792 292.67797 
L 497.06496 292.776771 
L 497.355264 292.806841 
L 498.129408 292.905641 
L 498.613248 292.982964 
L 499.516416 293.090356 
L 499.774464 293.111834 
L 500.580864 293.219226 
L 500.838912 293.240705 
L 501.74208 293.348097 
L 502.000128 293.369575 
L 502.903296 293.476967 
L 503.161344 293.498446 
L 504.064512 293.605838 
L 504.32256 293.627316 
L 505.322496 293.734708 
L 505.580544 293.756187 
L 506.677248 293.863579 
L 506.935296 293.885057 
L 508.032 293.992449 
L 508.290048 294.013928 
L 509.48352 294.12132 
L 509.741568 294.142798 
L 510.93504 294.25019 
L 511.193088 294.271669 
L 512.580096 294.379061 
L 512.838144 294.400539 
L 514.225152 294.507931 
L 514.4832 294.52941 
L 515.966976 294.636802 
L 516.225024 294.653984 
L 517.773312 294.752785 
L 518.128128 294.782855 
L 519.708672 294.881656 
L 520.063488 294.911725 
L 521.837568 295.010526 
L 522.192384 295.040596 
L 524.063232 295.139397 
L 524.418048 295.169466 
L 526.482432 295.268267 
L 526.837248 295.298337 
L 529.095168 295.397138 
L 529.449984 295.427207 
L 531.998208 295.526008 
L 532.353024 295.556078 
L 535.094784 295.654879 
L 535.4496 295.684948 
L 536.256 295.697835 
L 536.288256 300.264147 
L 536.41728 348.416199 
L 536.57856 348.467175 
L 574.608384 348.447107 
L 576.576 348.447107 
L 576.705024 296.282048 
L 576.769536 296.462467 
L 576.834048 296.496833 
L 576.866304 296.466763 
L 577.027584 296.458171 
L 616.896 296.458171 
L 617.025024 348.764033 
L 617.186304 348.514213 
L 617.444352 348.418396 
L 617.799168 348.465156 
L 618.121728 348.446882 
L 655.958016 348.447106 
L 657.216 348.447107 
L 657.37728 296.234796 
L 657.441792 296.720208 
L 657.53856 296.282048 
L 657.603072 296.440989 
L 658.086912 296.458171 
L 697.536 296.458171 
L 697.665024 348.764131 
L 697.826304 348.514127 
L 698.084352 348.418423 
L 698.439168 348.465157 
L 698.761728 348.446883 
L 736.759296 348.447106 
L 737.856 348.447107 
L 738.01728 296.234796 
L 738.081792 296.720208 
L 738.17856 296.277753 
L 738.243072 296.440989 
L 738.726912 296.458171 
L 778.176 296.458171 
L 778.305024 348.763959 
L 778.466304 348.51417 
L 778.724352 348.418414 
L 779.079168 348.465145 
L 779.401728 348.446882 
L 817.592832 348.447107 
L 818.496 348.447107 
L 818.65728 296.234796 
L 818.721792 296.720208 
L 818.81856 296.277753 
L 818.883072 296.440989 
L 819.366912 296.458171 
L 858.816 296.458171 
L 858.945024 348.764136 
L 859.106304 348.514127 
L 859.364352 348.418423 
L 859.719168 348.465157 
L 860.041728 348.446883 
L 898.039296 348.447106 
L 899.136 348.447107 
L 899.29728 296.234796 
L 899.361792 296.720208 
L 899.45856 296.277753 
L 899.523072 296.440989 
L 900.006912 296.458171 
L 939.456 296.458171 
L 939.488256 304.203289 
L 939.61728 348.396018 
L 939.649536 348.520931 
L 939.714048 348.401418 
L 939.746304 348.363722 
L 939.810816 348.419168 
L 940.004352 348.472815 
L 940.230144 348.445743 
L 945.649152 348.447111 
L 947.52 348.447097 
L 947.52 348.447097 
" clip-path="url(#pbdf8b5b201)" style="fill: none; stroke: #0000ff; stroke-width: 2; stroke-linecap: square"/>
   </g>
   <g id="patch_16">
    <path d="M 100.8 354.165517 
L 100.8 261.434483 
" style="fill: none; stroke: #bcbcbc; stroke-width: 0.8; stroke-linejoin: miter; stroke-linecap: square"/>
   </g>
   <g id="patch_17">
    <path d="M 987.84 354.165517 
L 987.84 261.434483 
" style="fill: none; stroke: #bcbcbc; stroke-width: 0.8; stroke-linejoin: miter; stroke-linecap: square"/>
   </g>
   <g id="patch_18">
    <path d="M 100.8 354.165517 
L 987.84 354.165517 
" style="fill: none; stroke: #bcbcbc; stroke-width: 0.8; stroke-linejoin: miter; stroke-linecap: square"/>
   </g>
   <g id="patch_19">
    <path d="M 100.8 261.434483 
L 987.84 261.434483 
" style="fill: none; stroke: #bcbcbc; stroke-width: 0.8; stroke-linejoin: miter; stroke-linecap: square"/>
   </g>
  </g>
  <g id="axes_4">
   <g id="patch_20">
    <path d="M 100.8 465.442759 
L 987.84 465.442759 
L 987.84 372.711724 
L 100.8 372.711724 
z
" style="fill: #eeeeee"/>
   </g>
   <g id="matplotlib.axis_7">
    <g id="xtick_19">
     <g id="line2d_56">
      <path d="M 141.12 465.442759 
L 141.12 372.711724 
" clip-path="url(#pb3752df415)" style="fill: none; stroke-dasharray: 1.85,0.8; stroke-dashoffset: 0; stroke: #b2b2b2; stroke-width: 0.5"/>
     </g>
     <g id="line2d_57">
      <g>
       <use xlink:href="#mf02755a53a" x="141.12" y="465.442759" style="stroke: #000000; stroke-width: 0.8"/>
      </g>
     </g>
    </g>
    <g id="xtick_20">
     <g id="line2d_58">
      <path d="M 302.4 465.442759 
L 302.4 372.711724 
" clip-path="url(#pb3752df415)" style="fill: none; stroke-dasharray: 1.85,0.8; stroke-dashoffset: 0; stroke: #b2b2b2; stroke-width: 0.5"/>
     </g>
     <g id="line2d_59">
      <g>
       <use xlink:href="#mf02755a53a" x="302.4" y="465.442759" style="stroke: #000000; stroke-width: 0.8"/>
      </g>
     </g>
    </g>
    <g id="xtick_21">
     <g id="line2d_60">
      <path d="M 463.68 465.442759 
L 463.68 372.711724 
" clip-path="url(#pb3752df415)" style="fill: none; stroke-dasharray: 1.85,0.8; stroke-dashoffset: 0; stroke: #b2b2b2; stroke-width: 0.5"/>
     </g>
     <g id="line2d_61">
      <g>
       <use xlink:href="#mf02755a53a" x="463.68" y="465.442759" style="stroke: #000000; stroke-width: 0.8"/>
      </g>
     </g>
    </g>
    <g id="xtick_22">
     <g id="line2d_62">
      <path d="M 624.96 465.442759 
L 624.96 372.711724 
" clip-path="url(#pb3752df415)" style="fill: none; stroke-dasharray: 1.85,0.8; stroke-dashoffset: 0; stroke: #b2b2b2; stroke-width: 0.5"/>
     </g>
     <g id="line2d_63">
      <g>
       <use xlink:href="#mf02755a53a" x="624.96" y="465.442759" style="stroke: #000000; stroke-width: 0.8"/>
      </g>
     </g>
    </g>
    <g id="xtick_23">
     <g id="line2d_64">
      <path d="M 786.24 465.442759 
L 786.24 372.711724 
" clip-path="url(#pb3752df415)" style="fill: none; stroke-dasharray: 1.85,0.8; stroke-dashoffset: 0; stroke: #b2b2b2; stroke-width: 0.5"/>
     </g>
     <g id="line2d_65">
      <g>
       <use xlink:href="#mf02755a53a" x="786.24" y="465.442759" style="stroke: #000000; stroke-width: 0.8"/>
      </g>
     </g>
    </g>
    <g id="xtick_24">
     <g id="line2d_66">
      <path d="M 947.52 465.442759 
L 947.52 372.711724 
" clip-path="url(#pb3752df415)" style="fill: none; stroke-dasharray: 1.85,0.8; stroke-dashoffset: 0; stroke: #b2b2b2; stroke-width: 0.5"/>
     </g>
     <g id="line2d_67">
      <g>
       <use xlink:href="#mf02755a53a" x="947.52" y="465.442759" style="stroke: #000000; stroke-width: 0.8"/>
      </g>
     </g>
    </g>
   </g>
   <g id="matplotlib.axis_8">
    <g id="ytick_9">
     <g id="line2d_68">
      <path d="M 100.8 441.112754 
L 987.84 441.112754 
" clip-path="url(#pb3752df415)" style="fill: none; stroke-dasharray: 1.85,0.8; stroke-dashoffset: 0; stroke: #b2b2b2; stroke-width: 0.5"/>
     </g>
     <g id="line2d_69">
      <g>
       <use xlink:href="#m6882d8195e" x="100.8" y="441.112754" style="stroke: #000000; stroke-width: 0.8"/>
      </g>
     </g>
     <g id="text_12">
      <!-- 0 V -->
      <g transform="translate(74.36625 446.43166) scale(0.14 -0.14)">
       <use xlink:href="#DejaVuSans-30"/>
       <use xlink:href="#DejaVuSans-20" x="63.623047"/>
       <use xlink:href="#DejaVuSans-56" x="95.410156"/>
      </g>
     </g>
    </g>
    <g id="ytick_10">
     <g id="line2d_70">
      <path d="M 100.8 405.97316 
L 987.84 405.97316 
" clip-path="url(#pb3752df415)" style="fill: none; stroke-dasharray: 1.85,0.8; stroke-dashoffset: 0; stroke: #b2b2b2; stroke-width: 0.5"/>
     </g>
     <g id="line2d_71">
      <g>
       <use xlink:href="#m6882d8195e" x="100.8" y="405.97316" style="stroke: #000000; stroke-width: 0.8"/>
      </g>
     </g>
     <g id="text_13">
      <!-- 1 V -->
      <g transform="translate(74.36625 411.292066) scale(0.14 -0.14)">
       <use xlink:href="#DejaVuSans-31"/>
       <use xlink:href="#DejaVuSans-20" x="63.623047"/>
       <use xlink:href="#DejaVuSans-56" x="95.410156"/>
      </g>
     </g>
    </g>
    <g id="text_14">
     <g id="patch_21">
      <path d="M 34.8768 454.693023 
L 34.8768 383.46146 
L 11.247425 383.46146 
L 11.247425 454.693023 
z
" style="fill: #ffff00; opacity: 0.2; stroke: #eeeeee; stroke-width: 0.5; stroke-linejoin: miter"/>
     </g>
     <!-- DFF OUT -->
     <g transform="translate(26.925238 449.653023) rotate(-90) scale(0.14 -0.14)">
      <defs>
       <path id="DejaVuSans-4f" d="M 2522 4238 
Q 1834 4238 1429 3725 
Q 1025 3213 1025 2328 
Q 1025 1447 1429 934 
Q 1834 422 2522 422 
Q 3209 422 3611 934 
Q 4013 1447 4013 2328 
Q 4013 3213 3611 3725 
Q 3209 4238 2522 4238 
z
M 2522 4750 
Q 3503 4750 4090 4092 
Q 4678 3434 4678 2328 
Q 4678 1225 4090 567 
Q 3503 -91 2522 -91 
Q 1538 -91 948 565 
Q 359 1222 359 2328 
Q 359 3434 948 4092 
Q 1538 4750 2522 4750 
z
" transform="scale(0.015625)"/>
       <path id="DejaVuSans-54" d="M -19 4666 
L 3928 4666 
L 3928 4134 
L 2272 4134 
L 2272 0 
L 1638 0 
L 1638 4134 
L -19 4134 
L -19 4666 
z
" transform="scale(0.015625)"/>
      </defs>
      <use xlink:href="#DejaVuSans-44"/>
      <use xlink:href="#DejaVuSans-46" x="77.001953"/>
      <use xlink:href="#DejaVuSans-46" x="134.521484"/>
      <use xlink:href="#DejaVuSans-20" x="192.041016"/>
      <use xlink:href="#DejaVuSans-4f" x="223.828125"/>
      <use xlink:href="#DejaVuSans-55" x="302.539062"/>
      <use xlink:href="#DejaVuSans-54" x="375.732422"/>
     </g>
    </g>
   </g>
   <g id="line2d_72">
    <path d="M 141.12 414.598876 
L 173.408256 414.641746 
L 173.440512 416.096525 
L 173.601792 441.114898 
L 174.1824 441.11144 
L 185.697792 441.111812 
L 254.048256 441.113289 
L 254.080512 441.253762 
L 254.112768 441.021401 
L 254.306304 437.590712 
L 254.628864 436.802531 
L 254.693376 436.412482 
L 255.14496 430.256025 
L 255.370752 415.786243 
L 255.596544 399.286095 
L 255.757824 398.99795 
L 255.983616 398.941727 
L 257.015808 398.945241 
L 295.755264 399.01552 
L 296.239104 401.289052 
L 296.59392 400.71979 
L 297.980928 399.226358 
L 299.65824 398.969839 
L 328.333824 399.068229 
L 330.94656 402.367837 
L 334.720512 407.855939 
L 334.752768 407.456051 
L 334.785024 408.175358 
L 334.849536 416.599022 
L 335.010816 442.327881 
L 335.043072 442.294217 
L 335.268864 442.315231 
L 338.881536 442.074876 
L 339.462144 441.870469 
L 340.010496 441.322168 
L 340.3008 440.656501 
L 340.558848 439.223052 
L 340.78464 436.144367 
L 341.139456 430.306274 
L 341.171712 430.319627 
L 341.332992 430.601096 
L 342.139392 433.22532 
L 343.945728 439.401526 
L 344.300544 440.575118 
L 344.3328 440.280016 
L 344.397312 440.395625 
L 344.526336 441.158558 
L 344.719872 442.110367 
L 344.913408 442.752156 
L 344.97792 442.700501 
L 345.010176 442.550561 
L 345.074688 442.772432 
L 345.203712 443.7108 
L 345.235968 443.441771 
L 345.268224 443.857437 
L 345.590784 444.826306 
L 345.78432 445.326342 
L 345.816576 445.031873 
L 345.881088 445.18473 
L 346.10688 445.716743 
L 346.364928 446.650402 
L 347.042304 447.975516 
L 347.07456 447.826173 
L 347.203584 447.985707 
L 347.332608 448.383839 
L 347.364864 448.228522 
L 347.429376 448.348699 
L 347.493888 448.466065 
L 347.655168 449.138988 
L 351.461376 456.765335 
L 354.138624 461.190464 
L 354.33216 461.017928 
L 354.912768 460.069862 
L 355.106304 459.601451 
L 355.13856 459.623941 
L 355.332096 459.189264 
L 355.364352 459.214213 
L 355.493376 458.983697 
L 355.525632 459.035352 
L 355.557888 458.887415 
L 355.719168 458.592945 
L 355.751424 458.649168 
L 355.78368 458.504744 
L 355.848192 458.483661 
L 356.041728 458.149483 
L 356.944896 456.947358 
L 357.009408 457.022908 
L 357.170688 456.654996 
L 357.267456 456.554848 
L 357.299712 456.714031 
L 357.331968 456.491597 
L 357.364224 456.637778 
L 357.654528 456.218211 
L 357.686784 456.235429 
L 357.815808 455.969071 
L 357.88032 456.056569 
L 358.0416 455.798293 
L 358.460928 455.474657 
L 358.977024 454.731806 
L 359.00928 454.721967 
L 359.041536 454.862877 
L 359.073792 454.594762 
L 359.202816 454.514292 
L 359.589888 454.113701 
L 359.622144 454.32489 
L 359.6544 454.101051 
L 359.686656 454.221931 
L 359.718912 454.215254 
L 359.847936 453.863858 
L 360.073728 453.781983 
L 360.105984 453.859993 
L 360.170496 453.80377 
L 360.4608 453.400367 
L 360.94464 453.066892 
L 361.75104 452.108284 
L 361.880064 451.950859 
L 361.944576 452.027463 
L 362.041344 452.050304 
L 362.0736 451.719289 
L 362.105856 451.712964 
L 362.138112 451.961752 
L 362.202624 451.615627 
L 362.23488 451.791325 
L 362.331648 451.771998 
L 362.363904 451.620898 
L 362.460672 451.663768 
L 362.525184 451.597003 
L 362.654208 451.231551 
L 362.686464 451.261069 
L 362.71872 451.273719 
L 362.783232 451.157758 
L 362.815488 451.353134 
L 362.88 451.167246 
L 362.976768 451.195357 
L 363.105792 451.008415 
L 363.267072 450.921269 
L 363.52512 450.739246 
L 363.912192 450.403311 
L 364.137984 449.913816 
L 364.589568 449.436972 
L 364.621824 449.685058 
L 364.686336 449.423971 
L 364.718592 449.43381 
L 364.81536 449.229297 
L 364.847616 449.530092 
L 364.879872 449.204348 
L 364.912128 449.347015 
L 364.944384 449.35088 
L 365.073408 448.992105 
L 365.105664 448.978752 
L 365.13792 449.263383 
L 365.170176 448.900039 
L 365.202432 448.954857 
L 365.234688 449.122121 
L 365.266944 448.840302 
L 365.2992 448.835734 
L 365.331456 449.025136 
L 365.363712 448.762643 
L 365.395968 448.936584 
L 365.557248 448.699041 
L 365.589504 448.726098 
L 365.62176 448.84733 
L 365.654016 448.602407 
L 365.718528 448.692716 
L 365.750784 448.559185 
L 365.815296 448.631573 
L 365.847552 448.532128 
L 366.170112 448.417924 
L 366.75072 447.910508 
L 366.944256 447.607605 
L 367.105536 447.238288 
L 367.39584 446.955765 
L 367.460352 447.273427 
L 367.492608 446.852104 
L 367.621632 446.756875 
L 367.653888 447.113191 
L 367.7184 446.982472 
L 367.87968 446.520386 
L 367.911936 446.797989 
L 367.976448 446.463811 
L 368.008704 446.672189 
L 368.234496 446.484543 
L 368.36352 446.254028 
L 368.782848 446.08852 
L 368.815104 446.133148 
L 368.879616 446.074113 
L 369.105408 445.964478 
L 370.29888 445.01606 
L 370.556928 444.650959 
L 370.653696 444.679423 
L 370.685952 444.202684 
L 370.750464 444.594385 
L 370.78272 444.092591 
L 370.814976 444.12629 
L 370.847232 444.436819 
L 370.911744 444.046312 
L 370.944 444.027759 
L 371.008512 443.990054 
L 371.040768 444.334352 
L 371.073024 443.974347 
L 371.169792 444.008748 
L 371.202048 444.137183 
L 371.234304 444.028216 
L 371.298816 444.164452 
L 371.363328 443.704756 
L 371.395584 443.727842 
L 371.42784 444.074881 
L 371.492352 443.790356 
L 371.524608 443.891839 
L 371.556864 443.640696 
L 371.91168 443.632755 
L 372.105216 443.515634 
L 373.782528 441.904062 
L 373.879296 441.772535 
L 373.911552 441.225696 
L 373.976064 441.377235 
L 374.00832 441.577334 
L 374.040576 441.52972 
L 374.137344 441.091662 
L 374.201856 441.133311 
L 374.33088 441.09791 
L 375.13728 439.840454 
L 375.201792 439.203233 
L 375.266304 439.211877 
L 375.29856 439.596094 
L 375.330816 439.546933 
L 375.427584 438.762055 
L 375.45984 438.822601 
L 375.492096 438.813816 
L 375.524352 439.212791 
L 375.588864 438.992114 
L 375.717888 438.791256 
L 375.750144 438.859181 
L 375.814656 438.771297 
L 376.492032 437.623708 
L 376.75008 437.126167 
L 376.782336 436.471868 
L 376.846848 437.06397 
L 377.07264 436.413536 
L 377.137152 436.469056 
L 377.169408 436.498574 
L 377.201664 436.412833 
L 378.266112 434.432366 
L 378.298368 434.034937 
L 378.395136 434.068671 
L 378.52416 434.243666 
L 378.556416 434.199741 
L 380.362752 430.974629 
L 382.523904 427.223126 
L 382.588416 426.594479 
L 382.652928 426.74066 
L 382.910976 426.55688 
L 384.00768 424.500159 
L 384.039936 424.530379 
L 384.072192 424.023315 
L 384.16896 424.250317 
L 384.201216 424.398254 
L 384.233472 424.181092 
L 384.265728 424.287916 
L 384.459264 423.933358 
L 384.878592 423.227755 
L 387.104256 419.957313 
L 387.910656 418.844442 
L 388.910592 417.55025 
L 389.749248 416.631701 
L 389.97504 416.101093 
L 390.716928 415.297451 
L 391.362048 414.78371 
L 391.813632 414.181769 
L 392.103936 413.636051 
L 392.620032 413.231594 
L 392.845824 413.088576 
L 393.910272 410.4264 
L 397.5552 403.931549 
L 402.812928 394.985009 
L 408.328704 386.765858 
L 409.48992 385.209173 
L 410.554368 383.775478 
L 411.360768 382.73886 
L 412.199424 381.660074 
L 415.328256 377.36953 
L 415.360512 377.429267 
L 415.392768 376.926771 
L 415.650816 439.975496 
L 415.683072 439.962389 
L 418.424832 440.039837 
L 418.618368 440.155551 
L 419.295744 440.686089 
L 420.1344 441.048895 
L 421.295616 441.286849 
L 423.19872 441.414192 
L 427.908096 441.438789 
L 440.487936 441.518265 
L 446.971392 441.47817 
L 487.38816 441.23693 
L 495.968256 441.200873 
L 496.000512 441.447624 
L 496.032768 440.854411 
L 496.194048 437.033398 
L 496.710144 434.407065 
L 496.871424 431.026285 
L 497.06496 420.378636 
L 497.452032 395.638605 
L 498.064896 395.680773 
L 499.064832 395.786191 
L 500.064768 395.89161 
L 501.290496 395.997029 
L 502.290432 396.102448 
L 503.612928 396.207866 
L 504.451584 396.278146 
L 505.741824 396.383564 
L 506.58048 396.453844 
L 507.967488 396.559262 
L 508.806144 396.629542 
L 510.386688 396.73496 
L 511.225344 396.80524 
L 512.999424 396.910658 
L 513.83808 396.980938 
L 515.902464 397.086356 
L 516.74112 397.156635 
L 518.99904 397.262054 
L 519.80544 397.328819 
L 522.482688 397.437752 
L 523.160064 397.472892 
L 523.869696 397.504517 
L 526.450176 397.61345 
L 527.095296 397.645076 
L 530.030592 397.750495 
L 530.482176 397.785634 
L 533.99808 397.891053 
L 534.449664 397.926193 
L 536.352768 397.989444 
L 536.481792 397.999986 
L 541.158912 398.101891 
L 541.610496 398.140544 
L 546.964992 398.242449 
L 547.416576 398.277589 
L 554.125824 398.383007 
L 554.577408 398.418147 
L 563.51232 398.523566 
L 563.963904 398.562219 
L 576.608256 398.590331 
L 576.640512 398.766029 
L 576.705024 398.572761 
L 576.995328 398.586817 
L 657.248256 398.590331 
L 657.280512 398.769543 
L 657.345024 398.590331 
L 657.53856 398.572761 
L 658.732032 398.593845 
L 737.888256 398.590331 
L 737.920512 398.769543 
L 737.985024 398.590331 
L 738.17856 398.572761 
L 739.372032 398.593845 
L 818.528256 398.590331 
L 818.560512 398.769543 
L 818.625024 398.590331 
L 818.81856 398.572761 
L 820.012032 398.593845 
L 899.168256 398.590331 
L 899.200512 398.769543 
L 899.265024 398.590331 
L 899.45856 398.572761 
L 900.652032 398.593845 
L 947.52 398.593845 
L 947.52 398.593845 
" clip-path="url(#pb3752df415)" style="fill: none; stroke: #ff00ff; stroke-width: 2; stroke-linecap: square"/>
   </g>
   <g id="patch_22">
    <path d="M 100.8 465.442759 
L 100.8 372.711724 
" style="fill: none; stroke: #bcbcbc; stroke-width: 0.8; stroke-linejoin: miter; stroke-linecap: square"/>
   </g>
   <g id="patch_23">
    <path d="M 987.84 465.442759 
L 987.84 372.711724 
" style="fill: none; stroke: #bcbcbc; stroke-width: 0.8; stroke-linejoin: miter; stroke-linecap: square"/>
   </g>
   <g id="patch_24">
    <path d="M 100.8 465.442759 
L 987.84 465.442759 
" style="fill: none; stroke: #bcbcbc; stroke-width: 0.8; stroke-linejoin: miter; stroke-linecap: square"/>
   </g>
   <g id="patch_25">
    <path d="M 100.8 372.711724 
L 987.84 372.711724 
" style="fill: none; stroke: #bcbcbc; stroke-width: 0.8; stroke-linejoin: miter; stroke-linecap: square"/>
   </g>
  </g>
  <g id="axes_5">
   <g id="patch_26">
    <path d="M 100.8 576.72 
L 987.84 576.72 
L 987.84 483.988966 
L 100.8 483.988966 
z
" style="fill: #eeeeee"/>
   </g>
   <g id="matplotlib.axis_9">
    <g id="xtick_25">
     <g id="line2d_73">
      <path d="M 141.12 576.72 
L 141.12 483.988966 
" clip-path="url(#pb88edd4476)" style="fill: none; stroke-dasharray: 1.85,0.8; stroke-dashoffset: 0; stroke: #b2b2b2; stroke-width: 0.5"/>
     </g>
     <g id="line2d_74">
      <g>
       <use xlink:href="#mf02755a53a" x="141.12" y="576.72" style="stroke: #000000; stroke-width: 0.8"/>
      </g>
     </g>
     <g id="text_15">
      <!-- 0 s -->
      <g transform="translate(130.795 590.857813) scale(0.14 -0.14)">
       <defs>
        <path id="DejaVuSans-73" d="M 2834 3397 
L 2834 2853 
Q 2591 2978 2328 3040 
Q 2066 3103 1784 3103 
Q 1356 3103 1142 2972 
Q 928 2841 928 2578 
Q 928 2378 1081 2264 
Q 1234 2150 1697 2047 
L 1894 2003 
Q 2506 1872 2764 1633 
Q 3022 1394 3022 966 
Q 3022 478 2636 193 
Q 2250 -91 1575 -91 
Q 1294 -91 989 -36 
Q 684 19 347 128 
L 347 722 
Q 666 556 975 473 
Q 1284 391 1588 391 
Q 1994 391 2212 530 
Q 2431 669 2431 922 
Q 2431 1156 2273 1281 
Q 2116 1406 1581 1522 
L 1381 1569 
Q 847 1681 609 1914 
Q 372 2147 372 2553 
Q 372 3047 722 3315 
Q 1072 3584 1716 3584 
Q 2034 3584 2315 3537 
Q 2597 3491 2834 3397 
z
" transform="scale(0.015625)"/>
       </defs>
       <use xlink:href="#DejaVuSans-30"/>
       <use xlink:href="#DejaVuSans-20" x="63.623047"/>
       <use xlink:href="#DejaVuSans-73" x="95.410156"/>
      </g>
     </g>
    </g>
    <g id="xtick_26">
     <g id="line2d_75">
      <path d="M 302.4 576.72 
L 302.4 483.988966 
" clip-path="url(#pb88edd4476)" style="fill: none; stroke-dasharray: 1.85,0.8; stroke-dashoffset: 0; stroke: #b2b2b2; stroke-width: 0.5"/>
     </g>
     <g id="line2d_76">
      <g>
       <use xlink:href="#mf02755a53a" x="302.4" y="576.72" style="stroke: #000000; stroke-width: 0.8"/>
      </g>
     </g>
     <g id="text_16">
      <!-- 50 ns -->
      <g transform="translate(283.185 590.857813) scale(0.14 -0.14)">
       <defs>
        <path id="DejaVuSans-35" d="M 691 4666 
L 3169 4666 
L 3169 4134 
L 1269 4134 
L 1269 2991 
Q 1406 3038 1543 3061 
Q 1681 3084 1819 3084 
Q 2600 3084 3056 2656 
Q 3513 2228 3513 1497 
Q 3513 744 3044 326 
Q 2575 -91 1722 -91 
Q 1428 -91 1123 -41 
Q 819 9 494 109 
L 494 744 
Q 775 591 1075 516 
Q 1375 441 1709 441 
Q 2250 441 2565 725 
Q 2881 1009 2881 1497 
Q 2881 1984 2565 2268 
Q 2250 2553 1709 2553 
Q 1456 2553 1204 2497 
Q 953 2441 691 2322 
L 691 4666 
z
" transform="scale(0.015625)"/>
        <path id="DejaVuSans-6e" d="M 3513 2113 
L 3513 0 
L 2938 0 
L 2938 2094 
Q 2938 2591 2744 2837 
Q 2550 3084 2163 3084 
Q 1697 3084 1428 2787 
Q 1159 2491 1159 1978 
L 1159 0 
L 581 0 
L 581 3500 
L 1159 3500 
L 1159 2956 
Q 1366 3272 1645 3428 
Q 1925 3584 2291 3584 
Q 2894 3584 3203 3211 
Q 3513 2838 3513 2113 
z
" transform="scale(0.015625)"/>
       </defs>
       <use xlink:href="#DejaVuSans-35"/>
       <use xlink:href="#DejaVuSans-30" x="63.623047"/>
       <use xlink:href="#DejaVuSans-20" x="127.246094"/>
       <use xlink:href="#DejaVuSans-6e" x="159.033203"/>
       <use xlink:href="#DejaVuSans-73" x="222.412109"/>
      </g>
     </g>
    </g>
    <g id="xtick_27">
     <g id="line2d_77">
      <path d="M 463.68 576.72 
L 463.68 483.988966 
" clip-path="url(#pb88edd4476)" style="fill: none; stroke-dasharray: 1.85,0.8; stroke-dashoffset: 0; stroke: #b2b2b2; stroke-width: 0.5"/>
     </g>
     <g id="line2d_78">
      <g>
       <use xlink:href="#mf02755a53a" x="463.68" y="576.72" style="stroke: #000000; stroke-width: 0.8"/>
      </g>
     </g>
     <g id="text_17">
      <!-- 100 ns -->
      <g transform="translate(440.01125 590.857813) scale(0.14 -0.14)">
       <use xlink:href="#DejaVuSans-31"/>
       <use xlink:href="#DejaVuSans-30" x="63.623047"/>
       <use xlink:href="#DejaVuSans-30" x="127.246094"/>
       <use xlink:href="#DejaVuSans-20" x="190.869141"/>
       <use xlink:href="#DejaVuSans-6e" x="222.65625"/>
       <use xlink:href="#DejaVuSans-73" x="286.035156"/>
      </g>
     </g>
    </g>
    <g id="xtick_28">
     <g id="line2d_79">
      <path d="M 624.96 576.72 
L 624.96 483.988966 
" clip-path="url(#pb88edd4476)" style="fill: none; stroke-dasharray: 1.85,0.8; stroke-dashoffset: 0; stroke: #b2b2b2; stroke-width: 0.5"/>
     </g>
     <g id="line2d_80">
      <g>
       <use xlink:href="#mf02755a53a" x="624.96" y="576.72" style="stroke: #000000; stroke-width: 0.8"/>
      </g>
     </g>
     <g id="text_18">
      <!-- 150 ns -->
      <g transform="translate(601.29125 590.857813) scale(0.14 -0.14)">
       <use xlink:href="#DejaVuSans-31"/>
       <use xlink:href="#DejaVuSans-35" x="63.623047"/>
       <use xlink:href="#DejaVuSans-30" x="127.246094"/>
       <use xlink:href="#DejaVuSans-20" x="190.869141"/>
       <use xlink:href="#DejaVuSans-6e" x="222.65625"/>
       <use xlink:href="#DejaVuSans-73" x="286.035156"/>
      </g>
     </g>
    </g>
    <g id="xtick_29">
     <g id="line2d_81">
      <path d="M 786.24 576.72 
L 786.24 483.988966 
" clip-path="url(#pb88edd4476)" style="fill: none; stroke-dasharray: 1.85,0.8; stroke-dashoffset: 0; stroke: #b2b2b2; stroke-width: 0.5"/>
     </g>
     <g id="line2d_82">
      <g>
       <use xlink:href="#mf02755a53a" x="786.24" y="576.72" style="stroke: #000000; stroke-width: 0.8"/>
      </g>
     </g>
     <g id="text_19">
      <!-- 200 ns -->
      <g transform="translate(762.57125 590.857813) scale(0.14 -0.14)">
       <use xlink:href="#DejaVuSans-32"/>
       <use xlink:href="#DejaVuSans-30" x="63.623047"/>
       <use xlink:href="#DejaVuSans-30" x="127.246094"/>
       <use xlink:href="#DejaVuSans-20" x="190.869141"/>
       <use xlink:href="#DejaVuSans-6e" x="222.65625"/>
       <use xlink:href="#DejaVuSans-73" x="286.035156"/>
      </g>
     </g>
    </g>
    <g id="xtick_30">
     <g id="line2d_83">
      <path d="M 947.52 576.72 
L 947.52 483.988966 
" clip-path="url(#pb88edd4476)" style="fill: none; stroke-dasharray: 1.85,0.8; stroke-dashoffset: 0; stroke: #b2b2b2; stroke-width: 0.5"/>
     </g>
     <g id="line2d_84">
      <g>
       <use xlink:href="#mf02755a53a" x="947.52" y="576.72" style="stroke: #000000; stroke-width: 0.8"/>
      </g>
     </g>
     <g id="text_20">
      <!-- 250 ns -->
      <g transform="translate(923.85125 590.857813) scale(0.14 -0.14)">
       <use xlink:href="#DejaVuSans-32"/>
       <use xlink:href="#DejaVuSans-35" x="63.623047"/>
       <use xlink:href="#DejaVuSans-30" x="127.246094"/>
       <use xlink:href="#DejaVuSans-20" x="190.869141"/>
       <use xlink:href="#DejaVuSans-6e" x="222.65625"/>
       <use xlink:href="#DejaVuSans-73" x="286.035156"/>
      </g>
     </g>
    </g>
    <g id="text_21">
     <!-- Time -->
     <g transform="translate(527.192969 608.407187) scale(0.14 -0.14)">
      <defs>
       <path id="DejaVuSans-69" d="M 603 3500 
L 1178 3500 
L 1178 0 
L 603 0 
L 603 3500 
z
M 603 4863 
L 1178 4863 
L 1178 4134 
L 603 4134 
L 603 4863 
z
" transform="scale(0.015625)"/>
       <path id="DejaVuSans-6d" d="M 3328 2828 
Q 3544 3216 3844 3400 
Q 4144 3584 4550 3584 
Q 5097 3584 5394 3201 
Q 5691 2819 5691 2113 
L 5691 0 
L 5113 0 
L 5113 2094 
Q 5113 2597 4934 2840 
Q 4756 3084 4391 3084 
Q 3944 3084 3684 2787 
Q 3425 2491 3425 1978 
L 3425 0 
L 2847 0 
L 2847 2094 
Q 2847 2600 2669 2842 
Q 2491 3084 2119 3084 
Q 1678 3084 1418 2786 
Q 1159 2488 1159 1978 
L 1159 0 
L 581 0 
L 581 3500 
L 1159 3500 
L 1159 2956 
Q 1356 3278 1631 3431 
Q 1906 3584 2284 3584 
Q 2666 3584 2933 3390 
Q 3200 3197 3328 2828 
z
" transform="scale(0.015625)"/>
       <path id="DejaVuSans-65" d="M 3597 1894 
L 3597 1613 
L 953 1613 
Q 991 1019 1311 708 
Q 1631 397 2203 397 
Q 2534 397 2845 478 
Q 3156 559 3463 722 
L 3463 178 
Q 3153 47 2828 -22 
Q 2503 -91 2169 -91 
Q 1331 -91 842 396 
Q 353 884 353 1716 
Q 353 2575 817 3079 
Q 1281 3584 2069 3584 
Q 2775 3584 3186 3129 
Q 3597 2675 3597 1894 
z
M 3022 2063 
Q 3016 2534 2758 2815 
Q 2500 3097 2075 3097 
Q 1594 3097 1305 2825 
Q 1016 2553 972 2059 
L 3022 2063 
z
" transform="scale(0.015625)"/>
      </defs>
      <use xlink:href="#DejaVuSans-54"/>
      <use xlink:href="#DejaVuSans-69" x="57.958984"/>
      <use xlink:href="#DejaVuSans-6d" x="85.742188"/>
      <use xlink:href="#DejaVuSans-65" x="183.154297"/>
     </g>
    </g>
   </g>
   <g id="matplotlib.axis_10">
    <g id="ytick_11">
     <g id="line2d_85">
      <path d="M 100.8 569.719807 
L 987.84 569.719807 
" clip-path="url(#pb88edd4476)" style="fill: none; stroke-dasharray: 1.85,0.8; stroke-dashoffset: 0; stroke: #b2b2b2; stroke-width: 0.5"/>
     </g>
     <g id="line2d_86">
      <g>
       <use xlink:href="#m6882d8195e" x="100.8" y="569.719807" style="stroke: #000000; stroke-width: 0.8"/>
      </g>
     </g>
     <g id="text_22">
      <!-- 0 V -->
      <g transform="translate(74.36625 575.038714) scale(0.14 -0.14)">
       <use xlink:href="#DejaVuSans-30"/>
       <use xlink:href="#DejaVuSans-20" x="63.623047"/>
       <use xlink:href="#DejaVuSans-56" x="95.410156"/>
      </g>
     </g>
    </g>
    <g id="ytick_12">
     <g id="line2d_87">
      <path d="M 100.8 535.83396 
L 987.84 535.83396 
" clip-path="url(#pb88edd4476)" style="fill: none; stroke-dasharray: 1.85,0.8; stroke-dashoffset: 0; stroke: #b2b2b2; stroke-width: 0.5"/>
     </g>
     <g id="line2d_88">
      <g>
       <use xlink:href="#m6882d8195e" x="100.8" y="535.83396" style="stroke: #000000; stroke-width: 0.8"/>
      </g>
     </g>
     <g id="text_23">
      <!-- 500 mV -->
      <g transform="translate(42.914375 541.152866) scale(0.14 -0.14)">
       <use xlink:href="#DejaVuSans-35"/>
       <use xlink:href="#DejaVuSans-30" x="63.623047"/>
       <use xlink:href="#DejaVuSans-30" x="127.246094"/>
       <use xlink:href="#DejaVuSans-20" x="190.869141"/>
       <use xlink:href="#DejaVuSans-6d" x="222.65625"/>
       <use xlink:href="#DejaVuSans-56" x="320.068359"/>
      </g>
     </g>
    </g>
    <g id="ytick_13">
     <g id="line2d_89">
      <path d="M 100.8 501.948112 
L 987.84 501.948112 
" clip-path="url(#pb88edd4476)" style="fill: none; stroke-dasharray: 1.85,0.8; stroke-dashoffset: 0; stroke: #b2b2b2; stroke-width: 0.5"/>
     </g>
     <g id="line2d_90">
      <g>
       <use xlink:href="#m6882d8195e" x="100.8" y="501.948112" style="stroke: #000000; stroke-width: 0.8"/>
      </g>
     </g>
     <g id="text_24">
      <!-- 1 V -->
      <g transform="translate(74.36625 507.267019) scale(0.14 -0.14)">
       <use xlink:href="#DejaVuSans-31"/>
       <use xlink:href="#DejaVuSans-20" x="63.623047"/>
       <use xlink:href="#DejaVuSans-56" x="95.410156"/>
      </g>
     </g>
    </g>
    <g id="text_25">
     <g id="patch_27">
      <path d="M 34.8768 554.329483 
L 34.8768 506.379483 
L 11.247425 506.379483 
L 11.247425 554.329483 
z
" style="fill: #ffff00; opacity: 0.2; stroke: #eeeeee; stroke-width: 0.5; stroke-linejoin: miter"/>
     </g>
     <!-- FOUT -->
     <g transform="translate(26.925238 549.289483) rotate(-90) scale(0.14 -0.14)">
      <use xlink:href="#DejaVuSans-46"/>
      <use xlink:href="#DejaVuSans-4f" x="57.519531"/>
      <use xlink:href="#DejaVuSans-55" x="136.230469"/>
      <use xlink:href="#DejaVuSans-54" x="209.423828"/>
     </g>
    </g>
   </g>
   <g id="line2d_91">
    <path d="M 141.12 488.393773 
L 173.472768 488.40055 
L 173.505024 488.204013 
L 173.569536 526.648862 
L 173.69856 572.486248 
L 173.730816 572.350434 
L 173.827584 567.81095 
L 173.892096 569.333793 
L 174.053376 570.038965 
L 174.117888 569.921123 
L 174.408192 569.465298 
L 174.440448 569.514886 
L 174.66624 569.703834 
L 176.182272 569.714057 
L 180.085248 569.735702 
L 193.568256 569.726098 
L 212.8896 569.717929 
L 255.30624 569.71762 
L 255.6288 488.285339 
L 255.854592 488.427659 
L 256.209408 488.386996 
L 334.914048 488.461545 
L 334.97856 526.625142 
L 335.075328 572.504953 
L 335.107584 570.691586 
L 335.172096 568.594052 
L 335.204352 569.84347 
L 335.236608 569.902093 
L 335.268864 569.703815 
L 335.365632 569.725721 
L 335.849472 569.718129 
L 386.10432 569.792316 
L 386.136576 569.835412 
L 386.168832 569.727392 
L 386.233344 556.460275 
L 386.459136 488.583534 
L 386.620416 488.40055 
L 387.168768 488.393773 
L 415.489536 488.414105 
L 415.521792 489.396794 
L 415.715328 569.720748 
L 415.77984 569.718254 
L 436.359168 569.718419 
L 497.06496 569.711299 
L 497.129472 569.174327 
L 497.38752 488.475099 
L 497.5488 488.393773 
L 947.52 488.393773 
L 947.52 488.393773 
" clip-path="url(#pb88edd4476)" style="fill: none; stroke: #ff00ff; stroke-width: 2; stroke-linecap: square"/>
   </g>
   <g id="patch_28">
    <path d="M 100.8 576.72 
L 100.8 483.988966 
" style="fill: none; stroke: #bcbcbc; stroke-width: 0.8; stroke-linejoin: miter; stroke-linecap: square"/>
   </g>
   <g id="patch_29">
    <path d="M 987.84 576.72 
L 987.84 483.988966 
" style="fill: none; stroke: #bcbcbc; stroke-width: 0.8; stroke-linejoin: miter; stroke-linecap: square"/>
   </g>
   <g id="patch_30">
    <path d="M 100.8 576.72 
L 987.84 576.72 
" style="fill: none; stroke: #bcbcbc; stroke-width: 0.8; stroke-linejoin: miter; stroke-linecap: square"/>
   </g>
   <g id="patch_31">
    <path d="M 100.8 483.988966 
L 987.84 483.988966 
" style="fill: none; stroke: #bcbcbc; stroke-width: 0.8; stroke-linejoin: miter; stroke-linecap: square"/>
   </g>
  </g>
  <g id="axes_6">
   <g id="patch_32">
    <path d="M 201.6 628.56 
L 856.8 628.56 
L 856.8 615.6 
L 201.6 615.6 
z
" clip-path="url(#pf84a095544)" style="fill: #d3d3d3"/>
   </g>
   <g id="patch_33">
    <path d="M 201.6 628.56 
L 398.16 628.56 
L 398.16 615.6 
L 201.6 615.6 
z
" clip-path="url(#pf84a095544)" style="fill: #0000ff"/>
   </g>
   <g id="line2d_92">
    <path d="M 201.6 635.04 
L 201.6 609.12 
" clip-path="url(#p0d995f5a2a)" style="fill: none; stroke: #ff0000; stroke-linecap: square"/>
   </g>
   <g id="line2d_93">
    <defs>
     <path id="m916969e827" d="M 0 5 
C 1.326016 5 2.597899 4.473168 3.535534 3.535534 
C 4.473168 2.597899 5 1.326016 5 0 
C 5 -1.326016 4.473168 -2.597899 3.535534 -3.535534 
C 2.597899 -4.473168 1.326016 -5 0 -5 
C -1.326016 -5 -2.597899 -4.473168 -3.535534 -3.535534 
C -4.473168 -2.597899 -5 -1.326016 -5 0 
C -5 1.326016 -4.473168 2.597899 -3.535534 3.535534 
C -2.597899 4.473168 -1.326016 5 0 5 
z
" style="stroke: #bfbfbf"/>
    </defs>
    <g>
     <use xlink:href="#m916969e827" x="398.16" y="622.08" style="fill: #ffffff; stroke: #bfbfbf"/>
    </g>
   </g>
   <g id="text_26">
    <!-- #Sweep -->
    <g transform="translate(138.622875 625.39125) scale(0.12 -0.12)">
     <defs>
      <path id="DejaVuSans-23" d="M 3272 2816 
L 2363 2816 
L 2100 1772 
L 3016 1772 
L 3272 2816 
z
M 2803 4594 
L 2478 3297 
L 3391 3297 
L 3719 4594 
L 4219 4594 
L 3897 3297 
L 4872 3297 
L 4872 2816 
L 3775 2816 
L 3519 1772 
L 4513 1772 
L 4513 1294 
L 3397 1294 
L 3072 0 
L 2572 0 
L 2894 1294 
L 1978 1294 
L 1656 0 
L 1153 0 
L 1478 1294 
L 494 1294 
L 494 1772 
L 1594 1772 
L 1856 2816 
L 850 2816 
L 850 3297 
L 1978 3297 
L 2297 4594 
L 2803 4594 
z
" transform="scale(0.015625)"/>
      <path id="DejaVuSans-77" d="M 269 3500 
L 844 3500 
L 1563 769 
L 2278 3500 
L 2956 3500 
L 3675 769 
L 4391 3500 
L 4966 3500 
L 4050 0 
L 3372 0 
L 2619 2869 
L 1863 0 
L 1184 0 
L 269 3500 
z
" transform="scale(0.015625)"/>
      <path id="DejaVuSans-70" d="M 1159 525 
L 1159 -1331 
L 581 -1331 
L 581 3500 
L 1159 3500 
L 1159 2969 
Q 1341 3281 1617 3432 
Q 1894 3584 2278 3584 
Q 2916 3584 3314 3078 
Q 3713 2572 3713 1747 
Q 3713 922 3314 415 
Q 2916 -91 2278 -91 
Q 1894 -91 1617 61 
Q 1341 213 1159 525 
z
M 3116 1747 
Q 3116 2381 2855 2742 
Q 2594 3103 2138 3103 
Q 1681 3103 1420 2742 
Q 1159 2381 1159 1747 
Q 1159 1113 1420 752 
Q 1681 391 2138 391 
Q 2594 391 2855 752 
Q 3116 1113 3116 1747 
z
" transform="scale(0.015625)"/>
     </defs>
     <use xlink:href="#DejaVuSans-23"/>
     <use xlink:href="#DejaVuSans-53" x="83.789062"/>
     <use xlink:href="#DejaVuSans-77" x="147.265625"/>
     <use xlink:href="#DejaVuSans-65" x="229.052734"/>
     <use xlink:href="#DejaVuSans-65" x="290.576172"/>
     <use xlink:href="#DejaVuSans-70" x="352.099609"/>
    </g>
   </g>
   <g id="text_27">
    <!-- $\mathdefault{42}$ -->
    <g transform="translate(869.904 625.39125) scale(0.12 -0.12)">
     <defs>
      <path id="DejaVuSans-34" d="M 2419 4116 
L 825 1625 
L 2419 1625 
L 2419 4116 
z
M 2253 4666 
L 3047 4666 
L 3047 1625 
L 3713 1625 
L 3713 1100 
L 3047 1100 
L 3047 0 
L 2419 0 
L 2419 1100 
L 313 1100 
L 313 1709 
L 2253 4666 
z
" transform="scale(0.015625)"/>
     </defs>
     <use xlink:href="#DejaVuSans-34" transform="translate(0 0.78125)"/>
     <use xlink:href="#DejaVuSans-32" transform="translate(63.623047 0.78125)"/>
    </g>
   </g>
  </g>
  <g id="text_28">
   <!-- DFF under BBI sweep analysis (Sweep = 52E-9) -->
   <g transform="translate(313.34625 25.1175) scale(0.16 -0.16)">
    <defs>
     <path id="DejaVuSans-75" d="M 544 1381 
L 544 3500 
L 1119 3500 
L 1119 1403 
Q 1119 906 1312 657 
Q 1506 409 1894 409 
Q 2359 409 2629 706 
Q 2900 1003 2900 1516 
L 2900 3500 
L 3475 3500 
L 3475 0 
L 2900 0 
L 2900 538 
Q 2691 219 2414 64 
Q 2138 -91 1772 -91 
Q 1169 -91 856 284 
Q 544 659 544 1381 
z
M 1991 3584 
L 1991 3584 
z
" transform="scale(0.015625)"/>
     <path id="DejaVuSans-64" d="M 2906 2969 
L 2906 4863 
L 3481 4863 
L 3481 0 
L 2906 0 
L 2906 525 
Q 2725 213 2448 61 
Q 2172 -91 1784 -91 
Q 1150 -91 751 415 
Q 353 922 353 1747 
Q 353 2572 751 3078 
Q 1150 3584 1784 3584 
Q 2172 3584 2448 3432 
Q 2725 3281 2906 2969 
z
M 947 1747 
Q 947 1113 1208 752 
Q 1469 391 1925 391 
Q 2381 391 2643 752 
Q 2906 1113 2906 1747 
Q 2906 2381 2643 2742 
Q 2381 3103 1925 3103 
Q 1469 3103 1208 2742 
Q 947 2381 947 1747 
z
" transform="scale(0.015625)"/>
     <path id="DejaVuSans-72" d="M 2631 2963 
Q 2534 3019 2420 3045 
Q 2306 3072 2169 3072 
Q 1681 3072 1420 2755 
Q 1159 2438 1159 1844 
L 1159 0 
L 581 0 
L 581 3500 
L 1159 3500 
L 1159 2956 
Q 1341 3275 1631 3429 
Q 1922 3584 2338 3584 
Q 2397 3584 2469 3576 
Q 2541 3569 2628 3553 
L 2631 2963 
z
" transform="scale(0.015625)"/>
     <path id="DejaVuSans-61" d="M 2194 1759 
Q 1497 1759 1228 1600 
Q 959 1441 959 1056 
Q 959 750 1161 570 
Q 1363 391 1709 391 
Q 2188 391 2477 730 
Q 2766 1069 2766 1631 
L 2766 1759 
L 2194 1759 
z
M 3341 1997 
L 3341 0 
L 2766 0 
L 2766 531 
Q 2569 213 2275 61 
Q 1981 -91 1556 -91 
Q 1019 -91 701 211 
Q 384 513 384 1019 
Q 384 1609 779 1909 
Q 1175 2209 1959 2209 
L 2766 2209 
L 2766 2266 
Q 2766 2663 2505 2880 
Q 2244 3097 1772 3097 
Q 1472 3097 1187 3025 
Q 903 2953 641 2809 
L 641 3341 
Q 956 3463 1253 3523 
Q 1550 3584 1831 3584 
Q 2591 3584 2966 3190 
Q 3341 2797 3341 1997 
z
" transform="scale(0.015625)"/>
     <path id="DejaVuSans-6c" d="M 603 4863 
L 1178 4863 
L 1178 0 
L 603 0 
L 603 4863 
z
" transform="scale(0.015625)"/>
     <path id="DejaVuSans-79" d="M 2059 -325 
Q 1816 -950 1584 -1140 
Q 1353 -1331 966 -1331 
L 506 -1331 
L 506 -850 
L 844 -850 
Q 1081 -850 1212 -737 
Q 1344 -625 1503 -206 
L 1606 56 
L 191 3500 
L 800 3500 
L 1894 763 
L 2988 3500 
L 3597 3500 
L 2059 -325 
z
" transform="scale(0.015625)"/>
     <path id="DejaVuSans-28" d="M 1984 4856 
Q 1566 4138 1362 3434 
Q 1159 2731 1159 2009 
Q 1159 1288 1364 580 
Q 1569 -128 1984 -844 
L 1484 -844 
Q 1016 -109 783 600 
Q 550 1309 550 2009 
Q 550 2706 781 3412 
Q 1013 4119 1484 4856 
L 1984 4856 
z
" transform="scale(0.015625)"/>
     <path id="DejaVuSans-3d" d="M 678 2906 
L 4684 2906 
L 4684 2381 
L 678 2381 
L 678 2906 
z
M 678 1631 
L 4684 1631 
L 4684 1100 
L 678 1100 
L 678 1631 
z
" transform="scale(0.015625)"/>
     <path id="DejaVuSans-2d" d="M 313 2009 
L 1997 2009 
L 1997 1497 
L 313 1497 
L 313 2009 
z
" transform="scale(0.015625)"/>
     <path id="DejaVuSans-39" d="M 703 97 
L 703 672 
Q 941 559 1184 500 
Q 1428 441 1663 441 
Q 2288 441 2617 861 
Q 2947 1281 2994 2138 
Q 2813 1869 2534 1725 
Q 2256 1581 1919 1581 
Q 1219 1581 811 2004 
Q 403 2428 403 3163 
Q 403 3881 828 4315 
Q 1253 4750 1959 4750 
Q 2769 4750 3195 4129 
Q 3622 3509 3622 2328 
Q 3622 1225 3098 567 
Q 2575 -91 1691 -91 
Q 1453 -91 1209 -44 
Q 966 3 703 97 
z
M 1959 2075 
Q 2384 2075 2632 2365 
Q 2881 2656 2881 3163 
Q 2881 3666 2632 3958 
Q 2384 4250 1959 4250 
Q 1534 4250 1286 3958 
Q 1038 3666 1038 3163 
Q 1038 2656 1286 2365 
Q 1534 2075 1959 2075 
z
" transform="scale(0.015625)"/>
     <path id="DejaVuSans-29" d="M 513 4856 
L 1013 4856 
Q 1481 4119 1714 3412 
Q 1947 2706 1947 2009 
Q 1947 1309 1714 600 
Q 1481 -109 1013 -844 
L 513 -844 
Q 928 -128 1133 580 
Q 1338 1288 1338 2009 
Q 1338 2731 1133 3434 
Q 928 4138 513 4856 
z
" transform="scale(0.015625)"/>
    </defs>
    <use xlink:href="#DejaVuSans-44"/>
    <use xlink:href="#DejaVuSans-46" x="77.001953"/>
    <use xlink:href="#DejaVuSans-46" x="134.521484"/>
    <use xlink:href="#DejaVuSans-20" x="192.041016"/>
    <use xlink:href="#DejaVuSans-75" x="223.828125"/>
    <use xlink:href="#DejaVuSans-6e" x="287.207031"/>
    <use xlink:href="#DejaVuSans-64" x="350.585938"/>
    <use xlink:href="#DejaVuSans-65" x="414.0625"/>
    <use xlink:href="#DejaVuSans-72" x="475.585938"/>
    <use xlink:href="#DejaVuSans-20" x="516.699219"/>
    <use xlink:href="#DejaVuSans-42" x="548.486328"/>
    <use xlink:href="#DejaVuSans-42" x="617.089844"/>
    <use xlink:href="#DejaVuSans-49" x="685.693359"/>
    <use xlink:href="#DejaVuSans-20" x="715.185547"/>
    <use xlink:href="#DejaVuSans-73" x="746.972656"/>
    <use xlink:href="#DejaVuSans-77" x="799.072266"/>
    <use xlink:href="#DejaVuSans-65" x="880.859375"/>
    <use xlink:href="#DejaVuSans-65" x="942.382812"/>
    <use xlink:href="#DejaVuSans-70" x="1003.90625"/>
    <use xlink:href="#DejaVuSans-20" x="1067.382812"/>
    <use xlink:href="#DejaVuSans-61" x="1099.169922"/>
    <use xlink:href="#DejaVuSans-6e" x="1160.449219"/>
    <use xlink:href="#DejaVuSans-61" x="1223.828125"/>
    <use xlink:href="#DejaVuSans-6c" x="1285.107422"/>
    <use xlink:href="#DejaVuSans-79" x="1312.890625"/>
    <use xlink:href="#DejaVuSans-73" x="1372.070312"/>
    <use xlink:href="#DejaVuSans-69" x="1424.169922"/>
    <use xlink:href="#DejaVuSans-73" x="1451.953125"/>
    <use xlink:href="#DejaVuSans-20" x="1504.052734"/>
    <use xlink:href="#DejaVuSans-28" x="1535.839844"/>
    <use xlink:href="#DejaVuSans-53" x="1574.853516"/>
    <use xlink:href="#DejaVuSans-77" x="1638.330078"/>
    <use xlink:href="#DejaVuSans-65" x="1720.117188"/>
    <use xlink:href="#DejaVuSans-65" x="1781.640625"/>
    <use xlink:href="#DejaVuSans-70" x="1843.164062"/>
    <use xlink:href="#DejaVuSans-20" x="1906.640625"/>
    <use xlink:href="#DejaVuSans-3d" x="1938.427734"/>
    <use xlink:href="#DejaVuSans-20" x="2022.216797"/>
    <use xlink:href="#DejaVuSans-35" x="2054.003906"/>
    <use xlink:href="#DejaVuSans-32" x="2117.626953"/>
    <use xlink:href="#DejaVuSans-45" x="2181.25"/>
    <use xlink:href="#DejaVuSans-2d" x="2244.433594"/>
    <use xlink:href="#DejaVuSans-39" x="2280.517578"/>
    <use xlink:href="#DejaVuSans-29" x="2344.140625"/>
   </g>
  </g>
 </g>
 <defs>
  <clipPath id="p9b0380cb55">
   <rect x="100.8" y="38.88" width="887.04" height="92.731034"/>
  </clipPath>
  <clipPath id="p6276e14e23">
   <rect x="100.8" y="150.157241" width="887.04" height="92.731034"/>
  </clipPath>
  <clipPath id="pbdf8b5b201">
   <rect x="100.8" y="261.434483" width="887.04" height="92.731034"/>
  </clipPath>
  <clipPath id="pb3752df415">
   <rect x="100.8" y="372.711724" width="887.04" height="92.731034"/>
  </clipPath>
  <clipPath id="pb88edd4476">
   <rect x="100.8" y="483.988966" width="887.04" height="92.731034"/>
  </clipPath>
  <clipPath id="pf84a095544">
   <rect x="201.6" y="609.12" width="655.2" height="25.92"/>
  </clipPath>
  <clipPath id="p0d995f5a2a">
   <path d="M 201.6 628.56 
L 856.8 628.56 
L 856.8 615.6 
L 201.6 615.6 
z
"/>
  </clipPath>
 </defs>
</svg>
