<?xml version="1.0" encoding="utf-8" standalone="no"?>
<!DOCTYPE svg PUBLIC "-//W3C//DTD SVG 1.1//EN"
  "http://www.w3.org/Graphics/SVG/1.1/DTD/svg11.dtd">
<svg xmlns:xlink="http://www.w3.org/1999/xlink" width="1008pt" height="648pt" viewBox="0 0 1008 648" xmlns="http://www.w3.org/2000/svg" version="1.1">
 <metadata>
  <rdf:RDF xmlns:dc="http://purl.org/dc/elements/1.1/" xmlns:cc="http://creativecommons.org/ns#" xmlns:rdf="http://www.w3.org/1999/02/22-rdf-syntax-ns#">
   <cc:Work>
    <dc:type rdf:resource="http://purl.org/dc/dcmitype/StillImage"/>
    <dc:date>2024-06-03T10:45:46.412085</dc:date>
    <dc:format>image/svg+xml</dc:format>
    <dc:creator>
     <cc:Agent>
      <dc:title>Matplotlib v3.9.0, https://matplotlib.org/</dc:title>
     </cc:Agent>
    </dc:creator>
   </cc:Work>
  </rdf:RDF>
 </metadata>
 <defs>
  <style type="text/css">*{stroke-linejoin: round; stroke-linecap: butt}</style>
 </defs>
 <g id="figure_1">
  <g id="patch_1">
   <path d="M 0 648 
L 1008 648 
L 1008 0 
L 0 0 
z
" style="fill: #ffffff"/>
  </g>
  <g id="axes_1">
   <g id="patch_2">
    <path d="M 100.8 131.611034 
L 987.84 131.611034 
L 987.84 38.88 
L 100.8 38.88 
z
" style="fill: #eeeeee"/>
   </g>
   <g id="matplotlib.axis_1">
    <g id="xtick_1">
     <g id="line2d_1">
      <path d="M 141.12 131.611034 
L 141.12 38.88 
" clip-path="url(#p36b7cfd4df)" style="fill: none; stroke-dasharray: 1.85,0.8; stroke-dashoffset: 0; stroke: #b2b2b2; stroke-width: 0.5"/>
     </g>
     <g id="line2d_2">
      <defs>
       <path id="m9c46df5555" d="M 0 0 
L 0 -3.5 
" style="stroke: #000000; stroke-width: 0.8"/>
      </defs>
      <g>
       <use xlink:href="#m9c46df5555" x="141.12" y="131.611034" style="stroke: #000000; stroke-width: 0.8"/>
      </g>
     </g>
    </g>
    <g id="xtick_2">
     <g id="line2d_3">
      <path d="M 302.4 131.611034 
L 302.4 38.88 
" clip-path="url(#p36b7cfd4df)" style="fill: none; stroke-dasharray: 1.85,0.8; stroke-dashoffset: 0; stroke: #b2b2b2; stroke-width: 0.5"/>
     </g>
     <g id="line2d_4">
      <g>
       <use xlink:href="#m9c46df5555" x="302.4" y="131.611034" style="stroke: #000000; stroke-width: 0.8"/>
      </g>
     </g>
    </g>
    <g id="xtick_3">
     <g id="line2d_5">
      <path d="M 463.68 131.611034 
L 463.68 38.88 
" clip-path="url(#p36b7cfd4df)" style="fill: none; stroke-dasharray: 1.85,0.8; stroke-dashoffset: 0; stroke: #b2b2b2; stroke-width: 0.5"/>
     </g>
     <g id="line2d_6">
      <g>
       <use xlink:href="#m9c46df5555" x="463.68" y="131.611034" style="stroke: #000000; stroke-width: 0.8"/>
      </g>
     </g>
    </g>
    <g id="xtick_4">
     <g id="line2d_7">
      <path d="M 624.96 131.611034 
L 624.96 38.88 
" clip-path="url(#p36b7cfd4df)" style="fill: none; stroke-dasharray: 1.85,0.8; stroke-dashoffset: 0; stroke: #b2b2b2; stroke-width: 0.5"/>
     </g>
     <g id="line2d_8">
      <g>
       <use xlink:href="#m9c46df5555" x="624.96" y="131.611034" style="stroke: #000000; stroke-width: 0.8"/>
      </g>
     </g>
    </g>
    <g id="xtick_5">
     <g id="line2d_9">
      <path d="M 786.24 131.611034 
L 786.24 38.88 
" clip-path="url(#p36b7cfd4df)" style="fill: none; stroke-dasharray: 1.85,0.8; stroke-dashoffset: 0; stroke: #b2b2b2; stroke-width: 0.5"/>
     </g>
     <g id="line2d_10">
      <g>
       <use xlink:href="#m9c46df5555" x="786.24" y="131.611034" style="stroke: #000000; stroke-width: 0.8"/>
      </g>
     </g>
    </g>
    <g id="xtick_6">
     <g id="line2d_11">
      <path d="M 947.52 131.611034 
L 947.52 38.88 
" clip-path="url(#p36b7cfd4df)" style="fill: none; stroke-dasharray: 1.85,0.8; stroke-dashoffset: 0; stroke: #b2b2b2; stroke-width: 0.5"/>
     </g>
     <g id="line2d_12">
      <g>
       <use xlink:href="#m9c46df5555" x="947.52" y="131.611034" style="stroke: #000000; stroke-width: 0.8"/>
      </g>
     </g>
    </g>
   </g>
   <g id="matplotlib.axis_2">
    <g id="ytick_1">
     <g id="line2d_13">
      <path d="M 100.8 98.340394 
L 987.84 98.340394 
" clip-path="url(#p36b7cfd4df)" style="fill: none; stroke-dasharray: 1.85,0.8; stroke-dashoffset: 0; stroke: #b2b2b2; stroke-width: 0.5"/>
     </g>
     <g id="line2d_14">
      <defs>
       <path id="m041337ffd5" d="M 0 0 
L 3.5 0 
" style="stroke: #000000; stroke-width: 0.8"/>
      </defs>
      <g>
       <use xlink:href="#m041337ffd5" x="100.8" y="98.340394" style="stroke: #000000; stroke-width: 0.8"/>
      </g>
     </g>
     <g id="text_1">
      <!-- −200 V -->
      <g transform="translate(44.819688 103.6593) scale(0.14 -0.14)">
       <defs>
        <path id="DejaVuSans-2212" d="M 678 2272 
L 4684 2272 
L 4684 1741 
L 678 1741 
L 678 2272 
z
" transform="scale(0.015625)"/>
        <path id="DejaVuSans-32" d="M 1228 531 
L 3431 531 
L 3431 0 
L 469 0 
L 469 531 
Q 828 903 1448 1529 
Q 2069 2156 2228 2338 
Q 2531 2678 2651 2914 
Q 2772 3150 2772 3378 
Q 2772 3750 2511 3984 
Q 2250 4219 1831 4219 
Q 1534 4219 1204 4116 
Q 875 4013 500 3803 
L 500 4441 
Q 881 4594 1212 4672 
Q 1544 4750 1819 4750 
Q 2544 4750 2975 4387 
Q 3406 4025 3406 3419 
Q 3406 3131 3298 2873 
Q 3191 2616 2906 2266 
Q 2828 2175 2409 1742 
Q 1991 1309 1228 531 
z
" transform="scale(0.015625)"/>
        <path id="DejaVuSans-30" d="M 2034 4250 
Q 1547 4250 1301 3770 
Q 1056 3291 1056 2328 
Q 1056 1369 1301 889 
Q 1547 409 2034 409 
Q 2525 409 2770 889 
Q 3016 1369 3016 2328 
Q 3016 3291 2770 3770 
Q 2525 4250 2034 4250 
z
M 2034 4750 
Q 2819 4750 3233 4129 
Q 3647 3509 3647 2328 
Q 3647 1150 3233 529 
Q 2819 -91 2034 -91 
Q 1250 -91 836 529 
Q 422 1150 422 2328 
Q 422 3509 836 4129 
Q 1250 4750 2034 4750 
z
" transform="scale(0.015625)"/>
        <path id="DejaVuSans-20" transform="scale(0.015625)"/>
        <path id="DejaVuSans-56" d="M 1831 0 
L 50 4666 
L 709 4666 
L 2188 738 
L 3669 4666 
L 4325 4666 
L 2547 0 
L 1831 0 
z
" transform="scale(0.015625)"/>
       </defs>
       <use xlink:href="#DejaVuSans-2212"/>
       <use xlink:href="#DejaVuSans-32" x="83.789062"/>
       <use xlink:href="#DejaVuSans-30" x="147.412109"/>
       <use xlink:href="#DejaVuSans-30" x="211.035156"/>
       <use xlink:href="#DejaVuSans-20" x="274.658203"/>
       <use xlink:href="#DejaVuSans-56" x="306.445312"/>
      </g>
     </g>
    </g>
    <g id="ytick_2">
     <g id="line2d_15">
      <path d="M 100.8 45.027377 
L 987.84 45.027377 
" clip-path="url(#p36b7cfd4df)" style="fill: none; stroke-dasharray: 1.85,0.8; stroke-dashoffset: 0; stroke: #b2b2b2; stroke-width: 0.5"/>
     </g>
     <g id="line2d_16">
      <g>
       <use xlink:href="#m041337ffd5" x="100.8" y="45.027377" style="stroke: #000000; stroke-width: 0.8"/>
      </g>
     </g>
     <g id="text_2">
      <!-- 0 V -->
      <g transform="translate(74.36625 50.346284) scale(0.14 -0.14)">
       <use xlink:href="#DejaVuSans-30"/>
       <use xlink:href="#DejaVuSans-20" x="63.623047"/>
       <use xlink:href="#DejaVuSans-56" x="95.410156"/>
      </g>
     </g>
    </g>
    <g id="text_3">
     <g id="patch_3">
      <path d="M 34.8768 131.080205 
L 34.8768 39.41083 
L 11.247425 39.41083 
L 11.247425 131.080205 
z
" style="fill: #ffff00; opacity: 0.2; stroke: #eeeeee; stroke-width: 0.5; stroke-linejoin: miter"/>
     </g>
     <!-- VPULSE BBI -->
     <g transform="translate(26.925238 126.040205) rotate(-90) scale(0.14 -0.14)">
      <defs>
       <path id="DejaVuSans-50" d="M 1259 4147 
L 1259 2394 
L 2053 2394 
Q 2494 2394 2734 2622 
Q 2975 2850 2975 3272 
Q 2975 3691 2734 3919 
Q 2494 4147 2053 4147 
L 1259 4147 
z
M 628 4666 
L 2053 4666 
Q 2838 4666 3239 4311 
Q 3641 3956 3641 3272 
Q 3641 2581 3239 2228 
Q 2838 1875 2053 1875 
L 1259 1875 
L 1259 0 
L 628 0 
L 628 4666 
z
" transform="scale(0.015625)"/>
       <path id="DejaVuSans-55" d="M 556 4666 
L 1191 4666 
L 1191 1831 
Q 1191 1081 1462 751 
Q 1734 422 2344 422 
Q 2950 422 3222 751 
Q 3494 1081 3494 1831 
L 3494 4666 
L 4128 4666 
L 4128 1753 
Q 4128 841 3676 375 
Q 3225 -91 2344 -91 
Q 1459 -91 1007 375 
Q 556 841 556 1753 
L 556 4666 
z
" transform="scale(0.015625)"/>
       <path id="DejaVuSans-4c" d="M 628 4666 
L 1259 4666 
L 1259 531 
L 3531 531 
L 3531 0 
L 628 0 
L 628 4666 
z
" transform="scale(0.015625)"/>
       <path id="DejaVuSans-53" d="M 3425 4513 
L 3425 3897 
Q 3066 4069 2747 4153 
Q 2428 4238 2131 4238 
Q 1616 4238 1336 4038 
Q 1056 3838 1056 3469 
Q 1056 3159 1242 3001 
Q 1428 2844 1947 2747 
L 2328 2669 
Q 3034 2534 3370 2195 
Q 3706 1856 3706 1288 
Q 3706 609 3251 259 
Q 2797 -91 1919 -91 
Q 1588 -91 1214 -16 
Q 841 59 441 206 
L 441 856 
Q 825 641 1194 531 
Q 1563 422 1919 422 
Q 2459 422 2753 634 
Q 3047 847 3047 1241 
Q 3047 1584 2836 1778 
Q 2625 1972 2144 2069 
L 1759 2144 
Q 1053 2284 737 2584 
Q 422 2884 422 3419 
Q 422 4038 858 4394 
Q 1294 4750 2059 4750 
Q 2388 4750 2728 4690 
Q 3069 4631 3425 4513 
z
" transform="scale(0.015625)"/>
       <path id="DejaVuSans-45" d="M 628 4666 
L 3578 4666 
L 3578 4134 
L 1259 4134 
L 1259 2753 
L 3481 2753 
L 3481 2222 
L 1259 2222 
L 1259 531 
L 3634 531 
L 3634 0 
L 628 0 
L 628 4666 
z
" transform="scale(0.015625)"/>
       <path id="DejaVuSans-42" d="M 1259 2228 
L 1259 519 
L 2272 519 
Q 2781 519 3026 730 
Q 3272 941 3272 1375 
Q 3272 1813 3026 2020 
Q 2781 2228 2272 2228 
L 1259 2228 
z
M 1259 4147 
L 1259 2741 
L 2194 2741 
Q 2656 2741 2882 2914 
Q 3109 3088 3109 3444 
Q 3109 3797 2882 3972 
Q 2656 4147 2194 4147 
L 1259 4147 
z
M 628 4666 
L 2241 4666 
Q 2963 4666 3353 4366 
Q 3744 4066 3744 3513 
Q 3744 3084 3544 2831 
Q 3344 2578 2956 2516 
Q 3422 2416 3680 2098 
Q 3938 1781 3938 1306 
Q 3938 681 3513 340 
Q 3088 0 2303 0 
L 628 0 
L 628 4666 
z
" transform="scale(0.015625)"/>
       <path id="DejaVuSans-49" d="M 628 4666 
L 1259 4666 
L 1259 0 
L 628 0 
L 628 4666 
z
" transform="scale(0.015625)"/>
      </defs>
      <use xlink:href="#DejaVuSans-56"/>
      <use xlink:href="#DejaVuSans-50" x="68.408203"/>
      <use xlink:href="#DejaVuSans-55" x="128.710938"/>
      <use xlink:href="#DejaVuSans-4c" x="201.904297"/>
      <use xlink:href="#DejaVuSans-53" x="257.617188"/>
      <use xlink:href="#DejaVuSans-45" x="321.09375"/>
      <use xlink:href="#DejaVuSans-20" x="384.277344"/>
      <use xlink:href="#DejaVuSans-42" x="416.064453"/>
      <use xlink:href="#DejaVuSans-42" x="484.667969"/>
      <use xlink:href="#DejaVuSans-49" x="553.271484"/>
     </g>
    </g>
   </g>
   <g id="line2d_17">
    <path d="M 141.12 45.027377 
L 444.358656 45.136282 
L 444.842496 46.425538 
L 453.067776 69.006772 
L 460.486656 89.863624 
L 462.099456 94.440546 
L 463.905792 99.673219 
L 467.38944 110.807642 
L 468.969984 115.853719 
L 470.260224 119.585631 
L 470.711808 119.80688 
L 471.776256 120.297359 
L 472.260096 120.526605 
L 473.324544 121.017085 
L 473.905152 121.272988 
L 474.776064 121.656841 
L 475.356672 121.912744 
L 476.195328 122.269941 
L 477.775872 122.936354 
L 478.420992 123.202919 
L 479.517696 123.629423 
L 480.259584 123.922644 
L 481.356288 124.349149 
L 482.259456 124.677024 
L 482.936832 124.943589 
L 483.743232 125.25547 
L 485.097984 125.804594 
L 487.742976 126.790885 
L 488.35584 127.022796 
L 490.2912 127.395987 
L 508.773888 127.289361 
L 508.99968 126.801547 
L 527.288832 75.087922 
L 531.030528 63.292417 
L 534.739968 51.617666 
L 539.352576 49.3412 
L 544.707072 46.984578 
L 553.416192 43.484472 
L 554.287104 43.268927 
L 568.576512 43.108189 
L 575.382528 43.184799 
L 590.736384 43.746186 
L 618.5088 44.46146 
L 644.15232 44.774399 
L 679.762944 44.945888 
L 727.792128 44.953885 
L 947.52 44.953885 
L 947.52 44.953885 
" clip-path="url(#p36b7cfd4df)" style="fill: none; stroke: #ff0000; stroke-width: 2; stroke-linecap: square"/>
   </g>
   <g id="patch_4">
    <path d="M 100.8 131.611034 
L 100.8 38.88 
" style="fill: none; stroke: #bcbcbc; stroke-width: 0.8; stroke-linejoin: miter; stroke-linecap: square"/>
   </g>
   <g id="patch_5">
    <path d="M 987.84 131.611034 
L 987.84 38.88 
" style="fill: none; stroke: #bcbcbc; stroke-width: 0.8; stroke-linejoin: miter; stroke-linecap: square"/>
   </g>
   <g id="patch_6">
    <path d="M 100.8 131.611034 
L 987.84 131.611034 
" style="fill: none; stroke: #bcbcbc; stroke-width: 0.8; stroke-linejoin: miter; stroke-linecap: square"/>
   </g>
   <g id="patch_7">
    <path d="M 100.8 38.88 
L 987.84 38.88 
" style="fill: none; stroke: #bcbcbc; stroke-width: 0.8; stroke-linejoin: miter; stroke-linecap: square"/>
   </g>
  </g>
  <g id="axes_2">
   <g id="patch_8">
    <path d="M 100.8 242.888276 
L 987.84 242.888276 
L 987.84 150.157241 
L 100.8 150.157241 
z
" style="fill: #eeeeee"/>
   </g>
   <g id="matplotlib.axis_3">
    <g id="xtick_7">
     <g id="line2d_18">
      <path d="M 141.12 242.888276 
L 141.12 150.157241 
" clip-path="url(#pc85e2f59bb)" style="fill: none; stroke-dasharray: 1.85,0.8; stroke-dashoffset: 0; stroke: #b2b2b2; stroke-width: 0.5"/>
     </g>
     <g id="line2d_19">
      <g>
       <use xlink:href="#m9c46df5555" x="141.12" y="242.888276" style="stroke: #000000; stroke-width: 0.8"/>
      </g>
     </g>
    </g>
    <g id="xtick_8">
     <g id="line2d_20">
      <path d="M 302.4 242.888276 
L 302.4 150.157241 
" clip-path="url(#pc85e2f59bb)" style="fill: none; stroke-dasharray: 1.85,0.8; stroke-dashoffset: 0; stroke: #b2b2b2; stroke-width: 0.5"/>
     </g>
     <g id="line2d_21">
      <g>
       <use xlink:href="#m9c46df5555" x="302.4" y="242.888276" style="stroke: #000000; stroke-width: 0.8"/>
      </g>
     </g>
    </g>
    <g id="xtick_9">
     <g id="line2d_22">
      <path d="M 463.68 242.888276 
L 463.68 150.157241 
" clip-path="url(#pc85e2f59bb)" style="fill: none; stroke-dasharray: 1.85,0.8; stroke-dashoffset: 0; stroke: #b2b2b2; stroke-width: 0.5"/>
     </g>
     <g id="line2d_23">
      <g>
       <use xlink:href="#m9c46df5555" x="463.68" y="242.888276" style="stroke: #000000; stroke-width: 0.8"/>
      </g>
     </g>
    </g>
    <g id="xtick_10">
     <g id="line2d_24">
      <path d="M 624.96 242.888276 
L 624.96 150.157241 
" clip-path="url(#pc85e2f59bb)" style="fill: none; stroke-dasharray: 1.85,0.8; stroke-dashoffset: 0; stroke: #b2b2b2; stroke-width: 0.5"/>
     </g>
     <g id="line2d_25">
      <g>
       <use xlink:href="#m9c46df5555" x="624.96" y="242.888276" style="stroke: #000000; stroke-width: 0.8"/>
      </g>
     </g>
    </g>
    <g id="xtick_11">
     <g id="line2d_26">
      <path d="M 786.24 242.888276 
L 786.24 150.157241 
" clip-path="url(#pc85e2f59bb)" style="fill: none; stroke-dasharray: 1.85,0.8; stroke-dashoffset: 0; stroke: #b2b2b2; stroke-width: 0.5"/>
     </g>
     <g id="line2d_27">
      <g>
       <use xlink:href="#m9c46df5555" x="786.24" y="242.888276" style="stroke: #000000; stroke-width: 0.8"/>
      </g>
     </g>
    </g>
    <g id="xtick_12">
     <g id="line2d_28">
      <path d="M 947.52 242.888276 
L 947.52 150.157241 
" clip-path="url(#pc85e2f59bb)" style="fill: none; stroke-dasharray: 1.85,0.8; stroke-dashoffset: 0; stroke: #b2b2b2; stroke-width: 0.5"/>
     </g>
     <g id="line2d_29">
      <g>
       <use xlink:href="#m9c46df5555" x="947.52" y="242.888276" style="stroke: #000000; stroke-width: 0.8"/>
      </g>
     </g>
    </g>
   </g>
   <g id="matplotlib.axis_4">
    <g id="ytick_3">
     <g id="line2d_30">
      <path d="M 100.8 219.373675 
L 987.84 219.373675 
" clip-path="url(#pc85e2f59bb)" style="fill: none; stroke-dasharray: 1.85,0.8; stroke-dashoffset: 0; stroke: #b2b2b2; stroke-width: 0.5"/>
     </g>
     <g id="line2d_31">
      <g>
       <use xlink:href="#m041337ffd5" x="100.8" y="219.373675" style="stroke: #000000; stroke-width: 0.8"/>
      </g>
     </g>
     <g id="text_4">
      <!-- 0 V -->
      <g transform="translate(74.36625 224.692581) scale(0.14 -0.14)">
       <use xlink:href="#DejaVuSans-30"/>
       <use xlink:href="#DejaVuSans-20" x="63.623047"/>
       <use xlink:href="#DejaVuSans-56" x="95.410156"/>
      </g>
     </g>
    </g>
    <g id="ytick_4">
     <g id="line2d_32">
      <path d="M 100.8 185.784699 
L 987.84 185.784699 
" clip-path="url(#pc85e2f59bb)" style="fill: none; stroke-dasharray: 1.85,0.8; stroke-dashoffset: 0; stroke: #b2b2b2; stroke-width: 0.5"/>
     </g>
     <g id="line2d_33">
      <g>
       <use xlink:href="#m041337ffd5" x="100.8" y="185.784699" style="stroke: #000000; stroke-width: 0.8"/>
      </g>
     </g>
     <g id="text_5">
      <!-- 1 V -->
      <g transform="translate(74.36625 191.103605) scale(0.14 -0.14)">
       <defs>
        <path id="DejaVuSans-31" d="M 794 531 
L 1825 531 
L 1825 4091 
L 703 3866 
L 703 4441 
L 1819 4666 
L 2450 4666 
L 2450 531 
L 3481 531 
L 3481 0 
L 794 0 
L 794 531 
z
" transform="scale(0.015625)"/>
       </defs>
       <use xlink:href="#DejaVuSans-31"/>
       <use xlink:href="#DejaVuSans-20" x="63.623047"/>
       <use xlink:href="#DejaVuSans-56" x="95.410156"/>
      </g>
     </g>
    </g>
    <g id="ytick_5">
     <g id="line2d_34">
      <path d="M 100.8 152.195723 
L 987.84 152.195723 
" clip-path="url(#pc85e2f59bb)" style="fill: none; stroke-dasharray: 1.85,0.8; stroke-dashoffset: 0; stroke: #b2b2b2; stroke-width: 0.5"/>
     </g>
     <g id="line2d_35">
      <g>
       <use xlink:href="#m041337ffd5" x="100.8" y="152.195723" style="stroke: #000000; stroke-width: 0.8"/>
      </g>
     </g>
     <g id="text_6">
      <!-- 2 V -->
      <g transform="translate(74.36625 157.514629) scale(0.14 -0.14)">
       <use xlink:href="#DejaVuSans-32"/>
       <use xlink:href="#DejaVuSans-20" x="63.623047"/>
       <use xlink:href="#DejaVuSans-56" x="95.410156"/>
      </g>
     </g>
    </g>
    <g id="text_7">
     <g id="patch_9">
      <path d="M 34.8768 224.531509 
L 34.8768 168.514009 
L 11.247425 168.514009 
L 11.247425 224.531509 
z
" style="fill: #ffff00; opacity: 0.2; stroke: #eeeeee; stroke-width: 0.5; stroke-linejoin: miter"/>
     </g>
     <!-- DFF IN -->
     <g transform="translate(26.925238 219.491509) rotate(-90) scale(0.14 -0.14)">
      <defs>
       <path id="DejaVuSans-44" d="M 1259 4147 
L 1259 519 
L 2022 519 
Q 2988 519 3436 956 
Q 3884 1394 3884 2338 
Q 3884 3275 3436 3711 
Q 2988 4147 2022 4147 
L 1259 4147 
z
M 628 4666 
L 1925 4666 
Q 3281 4666 3915 4102 
Q 4550 3538 4550 2338 
Q 4550 1131 3912 565 
Q 3275 0 1925 0 
L 628 0 
L 628 4666 
z
" transform="scale(0.015625)"/>
       <path id="DejaVuSans-46" d="M 628 4666 
L 3309 4666 
L 3309 4134 
L 1259 4134 
L 1259 2759 
L 3109 2759 
L 3109 2228 
L 1259 2228 
L 1259 0 
L 628 0 
L 628 4666 
z
" transform="scale(0.015625)"/>
       <path id="DejaVuSans-4e" d="M 628 4666 
L 1478 4666 
L 3547 763 
L 3547 4666 
L 4159 4666 
L 4159 0 
L 3309 0 
L 1241 3903 
L 1241 0 
L 628 0 
L 628 4666 
z
" transform="scale(0.015625)"/>
      </defs>
      <use xlink:href="#DejaVuSans-44"/>
      <use xlink:href="#DejaVuSans-46" x="77.001953"/>
      <use xlink:href="#DejaVuSans-46" x="134.521484"/>
      <use xlink:href="#DejaVuSans-20" x="192.041016"/>
      <use xlink:href="#DejaVuSans-49" x="223.828125"/>
      <use xlink:href="#DejaVuSans-4e" x="253.320312"/>
     </g>
    </g>
   </g>
   <g id="line2d_36">
    <path d="M 141.12 219.324622 
L 221.953536 219.278561 
L 224.437248 200.563177 
L 225.404928 194.869845 
L 228.243456 182.351905 
L 229.598208 181.095678 
L 231.178752 180.232441 
L 236.565504 179.782349 
L 243.661824 179.671505 
L 245.1456 179.62784 
L 248.403456 179.516996 
L 250.113024 179.449818 
L 252.177408 179.338974 
L 254.241792 179.013161 
L 254.757888 178.482455 
L 255.499776 178.146566 
L 256.370688 178.166719 
L 257.531904 178.398483 
L 259.98336 178.798192 
L 262.370304 178.935907 
L 263.886336 178.98629 
L 264.144384 184.16571 
L 264.434688 187.689866 
L 265.176576 192.384597 
L 267.144192 209.520685 
L 268.402176 215.954653 
L 269.079552 217.266638 
L 270.46656 218.96577 
L 273.724416 219.375489 
L 282.594816 219.329059 
L 297.110016 219.317837 
L 305.883648 219.323826 
L 347.751936 219.280237 
L 350.235648 200.602812 
L 351.622656 192.063486 
L 352.687104 186.732244 
L 354.97728 179.916705 
L 358.493184 178.929189 
L 360.235008 178.999726 
L 363.073536 179.110569 
L 364.396032 179.13744 
L 375.169536 179.207977 
L 375.717888 180.188775 
L 376.169472 180.931092 
L 377.008128 181.827917 
L 377.524224 181.777534 
L 378.427392 181.488669 
L 380.45952 180.350003 
L 381.58848 179.993959 
L 387.201024 179.520355 
L 389.65248 179.409511 
L 391.813632 179.295309 
L 394.555392 179.184465 
L 395.9424 179.150876 
L 415.392768 179.043391 
L 415.973376 178.425354 
L 416.844288 178.092823 
L 417.908736 178.196949 
L 419.16672 178.475738 
L 420.908544 178.727655 
L 424.069632 178.945983 
L 444.3264 179.04675 
L 444.48768 179.248284 
L 446.197248 182.39893 
L 449.1648 186.529702 
L 453.648384 192.735602 
L 454.228992 194.541345 
L 456.486912 203.031295 
L 456.841728 204.682864 
L 457.035264 205.630745 
L 458.099712 210.402059 
L 459.712512 216.327692 
L 460.035072 217.420812 
L 461.067264 220.996325 
L 461.2608 221.399964 
L 461.970432 223.555502 
L 462.196224 223.856796 
L 462.357504 224.391532 
L 462.776832 225.487876 
L 463.228416 226.130769 
L 463.51872 226.4633 
L 463.744512 226.924813 
L 464.131584 228.004698 
L 464.679936 228.941159 
L 464.744448 229.051331 
L 465.002496 229.526279 
L 465.099264 229.788945 
L 465.550848 230.850692 
L 466.163712 231.70486 
L 468.35712 235.807753 
L 468.550656 236.057655 
L 468.776448 236.472479 
L 468.84096 236.555108 
L 469.066752 236.925594 
L 469.228032 237.255774 
L 469.744128 238.140844 
L 470.324736 238.613776 
L 470.711808 238.237244 
L 471.453696 237.083798 
L 471.808512 236.371712 
L 471.90528 236.287068 
L 472.131072 236.075793 
L 472.937472 235.219274 
L 473.67936 234.115541 
L 473.711616 234.143084 
L 474.034176 233.815591 
L 474.388992 233.583491 
L 474.776064 233.343666 
L 475.45344 232.596311 
L 475.840512 231.958457 
L 476.227584 231.712249 
L 476.453376 231.596367 
L 476.679168 231.402223 
L 476.937216 231.319594 
L 477.453312 230.919214 
L 478.485504 229.827572 
L 478.646784 229.684147 
L 479.16288 229.23775 
L 479.904768 228.801429 
L 481.130496 227.592897 
L 481.485312 227.017518 
L 481.969152 226.777357 
L 482.678784 226.493866 
L 485.743104 224.145997 
L 487.71072 222.618807 
L 490.61376 219.980695 
L 495.161856 213.758606 
L 497.06496 211.511167 
L 498.51648 209.970777 
L 498.871296 209.155237 
L 501.322752 202.38202 
L 501.806592 201.525501 
L 503.483904 199.057719 
L 503.967744 198.506859 
L 505.677312 196.35347 
L 506.483712 195.356885 
L 507.096576 194.645807 
L 508.128768 193.691544 
L 508.8384 192.870629 
L 509.064192 192.300624 
L 509.870592 189.324641 
L 510.806016 186.294915 
L 511.644672 184.289989 
L 512.580096 182.681077 
L 513.257472 181.938761 
L 515.708928 179.496843 
L 518.418432 175.644187 
L 520.644096 172.372621 
L 527.192064 163.68987 
L 528.192 162.500821 
L 530.12736 159.874163 
L 531.933696 157.613625 
L 534.6432 154.389083 
L 534.80448 154.426031 
L 535.514112 154.839175 
L 536.191488 155.070939 
L 536.320512 155.101169 
L 536.57856 156.716799 
L 537.030144 159.430788 
L 537.417216 160.542583 
L 537.772032 160.969163 
L 538.094592 160.965804 
L 538.449408 160.70381 
L 539.094528 159.88088 
L 540.062208 158.654883 
L 540.675072 158.161125 
L 542.22336 157.788287 
L 543.481344 157.895772 
L 547.287552 158.799315 
L 548.384256 159.02772 
L 552.416256 159.978289 
L 552.964608 160.149592 
L 553.577472 160.320896 
L 554.674176 160.777706 
L 556.545024 161.627507 
L 568.060416 166.309811 
L 568.931328 166.598676 
L 570.673152 167.206636 
L 576.672768 169.030518 
L 577.092096 168.419198 
L 577.511424 168.207588 
L 577.930752 168.217664 
L 578.575872 168.523324 
L 580.188672 169.567941 
L 582.156288 170.468126 
L 583.607808 170.955166 
L 586.2528 171.667252 
L 596.187648 173.62549 
L 597.897216 173.910996 
L 598.639104 174.031916 
L 599.445504 174.14276 
L 601.284096 174.418189 
L 602.05824 174.529033 
L 602.70336 174.619723 
L 603.50976 174.727208 
L 604.96128 174.922024 
L 605.864448 175.032868 
L 607.122432 175.184018 
L 607.961088 175.291503 
L 608.477184 175.338527 
L 617.05728 176.322684 
L 617.476608 176.920568 
L 617.86368 177.202715 
L 618.218496 177.34043 
L 619.121664 177.417685 
L 619.895808 177.232946 
L 620.60544 176.987746 
L 623.99232 176.745905 
L 626.056704 176.856749 
L 626.830848 176.910491 
L 628.66944 177.021335 
L 631.185408 177.172485 
L 631.927296 177.206074 
L 634.346496 177.350507 
L 635.088384 177.380737 
L 637.37856 177.511734 
L 638.152704 177.541964 
L 639.991296 177.622578 
L 642.571776 177.733421 
L 644.47488 177.820753 
L 645.249024 177.847624 
L 646.861824 177.904725 
L 649.700352 178.015569 
L 651.151872 178.055875 
L 651.89376 178.089464 
L 653.377536 178.13313 
L 656.957952 178.243974 
L 657.312768 178.22382 
L 657.990144 177.538605 
L 658.538496 177.320277 
L 659.280384 177.350507 
L 660.086784 177.541964 
L 661.796352 177.961826 
L 663.473664 178.200308 
L 666.0864 178.361535 
L 669.118464 178.46902 
L 669.666816 178.472379 
L 671.182848 178.519403 
L 678.537216 178.630247 
L 679.601664 178.630247 
L 697.665024 178.734373 
L 698.277888 179.379281 
L 698.66496 179.560662 
L 699.406848 179.681582 
L 701.277696 179.570738 
L 702.890496 179.29195 
L 704.277504 179.113928 
L 708.051456 178.831781 
L 737.920512 178.741091 
L 738.759168 177.948391 
L 739.243008 177.817394 
L 740.404224 177.800599 
L 741.72672 178.099541 
L 744.081408 178.479097 
L 746.436096 178.613452 
L 778.272768 178.704143 
L 779.208192 179.530432 
L 780.143616 179.708453 
L 781.433856 179.738683 
L 784.207872 179.271796 
L 790.11072 178.767962 
L 818.625024 178.657118 
L 819.14112 178.096182 
L 819.689472 177.824112 
L 821.624832 177.931596 
L 824.882688 178.49925 
L 827.04384 178.613452 
L 858.912768 178.704143 
L 859.848192 179.530432 
L 860.783616 179.708453 
L 862.073856 179.738683 
L 864.847872 179.271796 
L 870.75072 178.767962 
L 899.265024 178.657118 
L 899.78112 178.096182 
L 900.329472 177.824112 
L 902.264832 177.931596 
L 905.522688 178.49925 
L 907.68384 178.613452 
L 939.552768 178.704143 
L 940.617216 179.560662 
L 941.55264 179.745401 
L 943.488 179.634557 
L 946.455552 179.127364 
L 947.52 178.962778 
L 947.52 178.962778 
" clip-path="url(#pc85e2f59bb)" style="fill: none; stroke: #008000; stroke-width: 2; stroke-linecap: square"/>
   </g>
   <g id="patch_10">
    <path d="M 100.8 242.888276 
L 100.8 150.157241 
" style="fill: none; stroke: #bcbcbc; stroke-width: 0.8; stroke-linejoin: miter; stroke-linecap: square"/>
   </g>
   <g id="patch_11">
    <path d="M 987.84 242.888276 
L 987.84 150.157241 
" style="fill: none; stroke: #bcbcbc; stroke-width: 0.8; stroke-linejoin: miter; stroke-linecap: square"/>
   </g>
   <g id="patch_12">
    <path d="M 100.8 242.888276 
L 987.84 242.888276 
" style="fill: none; stroke: #bcbcbc; stroke-width: 0.8; stroke-linejoin: miter; stroke-linecap: square"/>
   </g>
   <g id="patch_13">
    <path d="M 100.8 150.157241 
L 987.84 150.157241 
" style="fill: none; stroke: #bcbcbc; stroke-width: 0.8; stroke-linejoin: miter; stroke-linecap: square"/>
   </g>
  </g>
  <g id="axes_3">
   <g id="patch_14">
    <path d="M 100.8 354.165517 
L 987.84 354.165517 
L 987.84 261.434483 
L 100.8 261.434483 
z
" style="fill: #eeeeee"/>
   </g>
   <g id="matplotlib.axis_5">
    <g id="xtick_13">
     <g id="line2d_37">
      <path d="M 141.12 354.165517 
L 141.12 261.434483 
" clip-path="url(#pf381079387)" style="fill: none; stroke-dasharray: 1.85,0.8; stroke-dashoffset: 0; stroke: #b2b2b2; stroke-width: 0.5"/>
     </g>
     <g id="line2d_38">
      <g>
       <use xlink:href="#m9c46df5555" x="141.12" y="354.165517" style="stroke: #000000; stroke-width: 0.8"/>
      </g>
     </g>
    </g>
    <g id="xtick_14">
     <g id="line2d_39">
      <path d="M 302.4 354.165517 
L 302.4 261.434483 
" clip-path="url(#pf381079387)" style="fill: none; stroke-dasharray: 1.85,0.8; stroke-dashoffset: 0; stroke: #b2b2b2; stroke-width: 0.5"/>
     </g>
     <g id="line2d_40">
      <g>
       <use xlink:href="#m9c46df5555" x="302.4" y="354.165517" style="stroke: #000000; stroke-width: 0.8"/>
      </g>
     </g>
    </g>
    <g id="xtick_15">
     <g id="line2d_41">
      <path d="M 463.68 354.165517 
L 463.68 261.434483 
" clip-path="url(#pf381079387)" style="fill: none; stroke-dasharray: 1.85,0.8; stroke-dashoffset: 0; stroke: #b2b2b2; stroke-width: 0.5"/>
     </g>
     <g id="line2d_42">
      <g>
       <use xlink:href="#m9c46df5555" x="463.68" y="354.165517" style="stroke: #000000; stroke-width: 0.8"/>
      </g>
     </g>
    </g>
    <g id="xtick_16">
     <g id="line2d_43">
      <path d="M 624.96 354.165517 
L 624.96 261.434483 
" clip-path="url(#pf381079387)" style="fill: none; stroke-dasharray: 1.85,0.8; stroke-dashoffset: 0; stroke: #b2b2b2; stroke-width: 0.5"/>
     </g>
     <g id="line2d_44">
      <g>
       <use xlink:href="#m9c46df5555" x="624.96" y="354.165517" style="stroke: #000000; stroke-width: 0.8"/>
      </g>
     </g>
    </g>
    <g id="xtick_17">
     <g id="line2d_45">
      <path d="M 786.24 354.165517 
L 786.24 261.434483 
" clip-path="url(#pf381079387)" style="fill: none; stroke-dasharray: 1.85,0.8; stroke-dashoffset: 0; stroke: #b2b2b2; stroke-width: 0.5"/>
     </g>
     <g id="line2d_46">
      <g>
       <use xlink:href="#m9c46df5555" x="786.24" y="354.165517" style="stroke: #000000; stroke-width: 0.8"/>
      </g>
     </g>
    </g>
    <g id="xtick_18">
     <g id="line2d_47">
      <path d="M 947.52 354.165517 
L 947.52 261.434483 
" clip-path="url(#pf381079387)" style="fill: none; stroke-dasharray: 1.85,0.8; stroke-dashoffset: 0; stroke: #b2b2b2; stroke-width: 0.5"/>
     </g>
     <g id="line2d_48">
      <g>
       <use xlink:href="#m9c46df5555" x="947.52" y="354.165517" style="stroke: #000000; stroke-width: 0.8"/>
      </g>
     </g>
    </g>
   </g>
   <g id="matplotlib.axis_6">
    <g id="ytick_6">
     <g id="line2d_49">
      <path d="M 100.8 344.750154 
L 987.84 344.750154 
" clip-path="url(#pf381079387)" style="fill: none; stroke-dasharray: 1.85,0.8; stroke-dashoffset: 0; stroke: #b2b2b2; stroke-width: 0.5"/>
     </g>
     <g id="line2d_50">
      <g>
       <use xlink:href="#m041337ffd5" x="100.8" y="344.750154" style="stroke: #000000; stroke-width: 0.8"/>
      </g>
     </g>
     <g id="text_8">
      <!-- 0 V -->
      <g transform="translate(74.36625 350.06906) scale(0.14 -0.14)">
       <use xlink:href="#DejaVuSans-30"/>
       <use xlink:href="#DejaVuSans-20" x="63.623047"/>
       <use xlink:href="#DejaVuSans-56" x="95.410156"/>
      </g>
     </g>
    </g>
    <g id="ytick_7">
     <g id="line2d_51">
      <path d="M 100.8 303.705829 
L 987.84 303.705829 
" clip-path="url(#pf381079387)" style="fill: none; stroke-dasharray: 1.85,0.8; stroke-dashoffset: 0; stroke: #b2b2b2; stroke-width: 0.5"/>
     </g>
     <g id="line2d_52">
      <g>
       <use xlink:href="#m041337ffd5" x="100.8" y="303.705829" style="stroke: #000000; stroke-width: 0.8"/>
      </g>
     </g>
     <g id="text_9">
      <!-- 1 V -->
      <g transform="translate(74.36625 309.024735) scale(0.14 -0.14)">
       <use xlink:href="#DejaVuSans-31"/>
       <use xlink:href="#DejaVuSans-20" x="63.623047"/>
       <use xlink:href="#DejaVuSans-56" x="95.410156"/>
      </g>
     </g>
    </g>
    <g id="ytick_8">
     <g id="line2d_53">
      <path d="M 100.8 262.661503 
L 987.84 262.661503 
" clip-path="url(#pf381079387)" style="fill: none; stroke-dasharray: 1.85,0.8; stroke-dashoffset: 0; stroke: #b2b2b2; stroke-width: 0.5"/>
     </g>
     <g id="line2d_54">
      <g>
       <use xlink:href="#m041337ffd5" x="100.8" y="262.661503" style="stroke: #000000; stroke-width: 0.8"/>
      </g>
     </g>
     <g id="text_10">
      <!-- 2 V -->
      <g transform="translate(74.36625 267.980409) scale(0.14 -0.14)">
       <use xlink:href="#DejaVuSans-32"/>
       <use xlink:href="#DejaVuSans-20" x="63.623047"/>
       <use xlink:href="#DejaVuSans-56" x="95.410156"/>
      </g>
     </g>
    </g>
    <g id="text_11">
     <g id="patch_15">
      <path d="M 34.8768 342.395313 
L 34.8768 273.204688 
L 11.247425 273.204688 
L 11.247425 342.395313 
z
" style="fill: #ffff00; opacity: 0.2; stroke: #eeeeee; stroke-width: 0.5; stroke-linejoin: miter"/>
     </g>
     <!-- CLK BUF -->
     <g transform="translate(26.925238 337.355313) rotate(-90) scale(0.14 -0.14)">
      <defs>
       <path id="DejaVuSans-43" d="M 4122 4306 
L 4122 3641 
Q 3803 3938 3442 4084 
Q 3081 4231 2675 4231 
Q 1875 4231 1450 3742 
Q 1025 3253 1025 2328 
Q 1025 1406 1450 917 
Q 1875 428 2675 428 
Q 3081 428 3442 575 
Q 3803 722 4122 1019 
L 4122 359 
Q 3791 134 3420 21 
Q 3050 -91 2638 -91 
Q 1578 -91 968 557 
Q 359 1206 359 2328 
Q 359 3453 968 4101 
Q 1578 4750 2638 4750 
Q 3056 4750 3426 4639 
Q 3797 4528 4122 4306 
z
" transform="scale(0.015625)"/>
       <path id="DejaVuSans-4b" d="M 628 4666 
L 1259 4666 
L 1259 2694 
L 3353 4666 
L 4166 4666 
L 1850 2491 
L 4331 0 
L 3500 0 
L 1259 2247 
L 1259 0 
L 628 0 
L 628 4666 
z
" transform="scale(0.015625)"/>
      </defs>
      <use xlink:href="#DejaVuSans-43"/>
      <use xlink:href="#DejaVuSans-4c" x="69.824219"/>
      <use xlink:href="#DejaVuSans-4b" x="125.537109"/>
      <use xlink:href="#DejaVuSans-20" x="191.113281"/>
      <use xlink:href="#DejaVuSans-42" x="222.900391"/>
      <use xlink:href="#DejaVuSans-55" x="291.503906"/>
      <use xlink:href="#DejaVuSans-46" x="364.697266"/>
     </g>
    </g>
   </g>
   <g id="line2d_55">
    <path d="M 141.12 344.749069 
L 173.376 344.749069 
L 173.601792 295.496963 
L 213.696 295.496963 
L 213.760512 334.784181 
L 213.825024 344.731403 
L 213.889536 344.672338 
L 213.954048 344.836306 
L 214.01856 344.754602 
L 215.437824 344.744763 
L 223.824384 344.748982 
L 254.016 344.749041 
L 254.17728 295.345099 
L 254.241792 295.607783 
L 254.403072 295.488755 
L 254.854656 295.496963 
L 294.336 295.496963 
L 294.400512 334.749704 
L 294.465024 345.056431 
L 294.529536 344.342822 
L 294.626304 344.814655 
L 294.65856 344.785449 
L 294.884352 344.727425 
L 295.206912 344.76509 
L 295.497216 344.748749 
L 321.91488 344.749068 
L 334.656 344.749071 
L 334.81728 295.423084 
L 334.881792 295.513381 
L 335.204352 295.501068 
L 336.10752 295.496963 
L 374.976 295.496963 
L 375.040512 334.787875 
L 375.105024 344.75082 
L 375.169536 344.667134 
L 375.266304 344.818037 
L 375.29856 344.754738 
L 376.782336 344.744451 
L 385.4592 344.748982 
L 415.296 344.749071 
L 415.45728 295.345099 
L 415.521792 295.607783 
L 415.683072 295.48465 
L 416.683008 295.501068 
L 444.423168 295.603679 
L 446.068224 297.87343 
L 447.745536 300.635713 
L 454.64832 311.841224 
L 455.616 313.278597 
L 455.648256 311.792382 
L 455.841792 346.023636 
L 455.906304 346.019204 
L 457.035264 345.988051 
L 462.809088 345.993182 
L 463.905792 346.379039 
L 468.163584 348.835296 
L 470.227968 349.907784 
L 470.873088 349.587638 
L 471.002112 349.52402 
L 471.292416 349.418125 
L 472.22784 349.072122 
L 473.776128 348.549668 
L 474.32448 348.371905 
L 477.808128 347.282343 
L 478.03392 347.233459 
L 479.16288 346.895418 
L 479.614464 346.770561 
L 485.162496 345.430259 
L 493.291008 344.228111 
L 495.936 344.218056 
L 495.968256 343.112568 
L 496.129536 317.718361 
L 496.452096 317.498774 
L 498.903552 316.038827 
L 503.419392 313.579451 
L 506.935296 311.870366 
L 508.902912 310.88366 
L 510.28992 308.400889 
L 512.38656 304.04937 
L 516.547584 295.455919 
L 517.22496 294.130187 
L 518.99904 290.764553 
L 524.450304 281.271 
L 525.45024 279.686689 
L 527.22432 276.96545 
L 534.675456 265.768558 
L 536.126976 265.68647 
L 536.256 265.72341 
L 536.41728 344.82231 
L 536.514048 344.739112 
L 536.546304 344.755914 
L 537.772032 344.987341 
L 539.80416 345.102856 
L 542.836224 345.124093 
L 555.996672 345.209276 
L 559.996416 345.205459 
L 576.576 345.068034 
L 576.705024 283.179561 
L 576.769536 283.479185 
L 576.930816 283.417618 
L 576.963072 283.454558 
L 577.124352 283.458663 
L 578.092032 283.828062 
L 580.672512 284.70641 
L 580.995072 284.813125 
L 582.736896 285.363119 
L 583.123968 285.469835 
L 584.64 285.93774 
L 585.059328 286.044455 
L 586.349568 286.426167 
L 587.123712 286.631389 
L 588.059136 286.881759 
L 588.446208 286.988475 
L 589.31712 287.210114 
L 589.704192 287.316829 
L 590.478336 287.497424 
L 590.865408 287.60414 
L 591.639552 287.784735 
L 592.123392 287.89145 
L 592.897536 288.072045 
L 593.381376 288.17876 
L 594.15552 288.359355 
L 594.63936 288.46607 
L 595.28448 288.605621 
L 595.800576 288.712336 
L 596.445696 288.851887 
L 596.961792 288.958602 
L 597.606912 289.098153 
L 598.123008 289.204868 
L 598.67136 289.303375 
L 599.187456 289.41009 
L 599.735808 289.508596 
L 600.348672 289.615312 
L 600.897024 289.713818 
L 601.41312 289.820533 
L 601.961472 289.91904 
L 602.574336 290.025755 
L 603.122688 290.124261 
L 603.83232 290.226872 
L 604.187136 290.288438 
L 604.8 290.391049 
L 605.154816 290.452616 
L 605.864448 290.555227 
L 606.219264 290.616793 
L 606.928896 290.719404 
L 607.283712 290.78097 
L 607.993344 290.883581 
L 608.34816 290.945148 
L 609.15456 291.047758 
L 609.509376 291.109325 
L 610.412544 291.211936 
L 610.76736 291.273502 
L 611.57376 291.376113 
L 611.831808 291.396635 
L 612.54144 291.499246 
L 612.799488 291.519768 
L 613.605888 291.622379 
L 613.960704 291.679841 
L 616.896 292.0123 
L 616.928256 297.643582 
L 616.992768 345.379282 
L 617.05728 344.809911 
L 617.089536 344.806455 
L 617.121792 344.917656 
L 617.186304 344.84637 
L 617.7024 344.842631 
L 657.216 344.77581 
L 657.345024 294.376453 
L 657.441792 294.557048 
L 658.34496 294.552944 
L 661.602816 294.659659 
L 661.860864 294.676077 
L 666.537984 294.782792 
L 666.796032 294.79921 
L 672.440832 294.905925 
L 672.69888 294.922343 
L 679.698432 295.029058 
L 679.95648 295.045476 
L 697.536 295.08652 
L 697.665024 345.063803 
L 697.826304 344.8249 
L 698.084352 344.733398 
L 698.439168 344.778079 
L 698.761728 344.760609 
L 737.856 344.760823 
L 738.01728 294.87309 
L 738.081792 295.336891 
L 738.17856 294.914134 
L 738.243072 295.070102 
L 738.726912 295.08652 
L 778.176 295.08652 
L 778.305024 345.063638 
L 778.466304 344.824941 
L 778.724352 344.733389 
L 779.079168 344.778068 
L 779.401728 344.760608 
L 818.496 344.760823 
L 818.65728 294.87309 
L 818.721792 295.336891 
L 818.81856 294.914134 
L 818.883072 295.070102 
L 819.366912 295.08652 
L 858.816 295.08652 
L 858.945024 345.063733 
L 859.106304 344.824859 
L 859.364352 344.733416 
L 859.719168 344.77807 
L 860.041728 344.760609 
L 899.136 344.760823 
L 899.29728 294.87309 
L 899.361792 295.336891 
L 899.45856 294.914134 
L 899.523072 295.070102 
L 900.006912 295.08652 
L 939.456 295.08652 
L 939.488256 302.486812 
L 939.61728 344.712009 
L 939.649536 344.83136 
L 939.714048 344.717169 
L 939.810816 344.734128 
L 940.004352 344.785386 
L 940.230144 344.75952 
L 945.9072 344.760825 
L 947.52 344.760813 
L 947.52 344.760813 
" clip-path="url(#pf381079387)" style="fill: none; stroke: #0000ff; stroke-width: 2; stroke-linecap: square"/>
   </g>
   <g id="patch_16">
    <path d="M 100.8 354.165517 
L 100.8 261.434483 
" style="fill: none; stroke: #bcbcbc; stroke-width: 0.8; stroke-linejoin: miter; stroke-linecap: square"/>
   </g>
   <g id="patch_17">
    <path d="M 987.84 354.165517 
L 987.84 261.434483 
" style="fill: none; stroke: #bcbcbc; stroke-width: 0.8; stroke-linejoin: miter; stroke-linecap: square"/>
   </g>
   <g id="patch_18">
    <path d="M 100.8 354.165517 
L 987.84 354.165517 
" style="fill: none; stroke: #bcbcbc; stroke-width: 0.8; stroke-linejoin: miter; stroke-linecap: square"/>
   </g>
   <g id="patch_19">
    <path d="M 100.8 261.434483 
L 987.84 261.434483 
" style="fill: none; stroke: #bcbcbc; stroke-width: 0.8; stroke-linejoin: miter; stroke-linecap: square"/>
   </g>
  </g>
  <g id="axes_4">
   <g id="patch_20">
    <path d="M 100.8 465.442759 
L 987.84 465.442759 
L 987.84 372.711724 
L 100.8 372.711724 
z
" style="fill: #eeeeee"/>
   </g>
   <g id="matplotlib.axis_7">
    <g id="xtick_19">
     <g id="line2d_56">
      <path d="M 141.12 465.442759 
L 141.12 372.711724 
" clip-path="url(#p302dfe5a94)" style="fill: none; stroke-dasharray: 1.85,0.8; stroke-dashoffset: 0; stroke: #b2b2b2; stroke-width: 0.5"/>
     </g>
     <g id="line2d_57">
      <g>
       <use xlink:href="#m9c46df5555" x="141.12" y="465.442759" style="stroke: #000000; stroke-width: 0.8"/>
      </g>
     </g>
    </g>
    <g id="xtick_20">
     <g id="line2d_58">
      <path d="M 302.4 465.442759 
L 302.4 372.711724 
" clip-path="url(#p302dfe5a94)" style="fill: none; stroke-dasharray: 1.85,0.8; stroke-dashoffset: 0; stroke: #b2b2b2; stroke-width: 0.5"/>
     </g>
     <g id="line2d_59">
      <g>
       <use xlink:href="#m9c46df5555" x="302.4" y="465.442759" style="stroke: #000000; stroke-width: 0.8"/>
      </g>
     </g>
    </g>
    <g id="xtick_21">
     <g id="line2d_60">
      <path d="M 463.68 465.442759 
L 463.68 372.711724 
" clip-path="url(#p302dfe5a94)" style="fill: none; stroke-dasharray: 1.85,0.8; stroke-dashoffset: 0; stroke: #b2b2b2; stroke-width: 0.5"/>
     </g>
     <g id="line2d_61">
      <g>
       <use xlink:href="#m9c46df5555" x="463.68" y="465.442759" style="stroke: #000000; stroke-width: 0.8"/>
      </g>
     </g>
    </g>
    <g id="xtick_22">
     <g id="line2d_62">
      <path d="M 624.96 465.442759 
L 624.96 372.711724 
" clip-path="url(#p302dfe5a94)" style="fill: none; stroke-dasharray: 1.85,0.8; stroke-dashoffset: 0; stroke: #b2b2b2; stroke-width: 0.5"/>
     </g>
     <g id="line2d_63">
      <g>
       <use xlink:href="#m9c46df5555" x="624.96" y="465.442759" style="stroke: #000000; stroke-width: 0.8"/>
      </g>
     </g>
    </g>
    <g id="xtick_23">
     <g id="line2d_64">
      <path d="M 786.24 465.442759 
L 786.24 372.711724 
" clip-path="url(#p302dfe5a94)" style="fill: none; stroke-dasharray: 1.85,0.8; stroke-dashoffset: 0; stroke: #b2b2b2; stroke-width: 0.5"/>
     </g>
     <g id="line2d_65">
      <g>
       <use xlink:href="#m9c46df5555" x="786.24" y="465.442759" style="stroke: #000000; stroke-width: 0.8"/>
      </g>
     </g>
    </g>
    <g id="xtick_24">
     <g id="line2d_66">
      <path d="M 947.52 465.442759 
L 947.52 372.711724 
" clip-path="url(#p302dfe5a94)" style="fill: none; stroke-dasharray: 1.85,0.8; stroke-dashoffset: 0; stroke: #b2b2b2; stroke-width: 0.5"/>
     </g>
     <g id="line2d_67">
      <g>
       <use xlink:href="#m9c46df5555" x="947.52" y="465.442759" style="stroke: #000000; stroke-width: 0.8"/>
      </g>
     </g>
    </g>
   </g>
   <g id="matplotlib.axis_8">
    <g id="ytick_9">
     <g id="line2d_68">
      <path d="M 100.8 437.842856 
L 987.84 437.842856 
" clip-path="url(#p302dfe5a94)" style="fill: none; stroke-dasharray: 1.85,0.8; stroke-dashoffset: 0; stroke: #b2b2b2; stroke-width: 0.5"/>
     </g>
     <g id="line2d_69">
      <g>
       <use xlink:href="#m041337ffd5" x="100.8" y="437.842856" style="stroke: #000000; stroke-width: 0.8"/>
      </g>
     </g>
     <g id="text_12">
      <!-- 0 V -->
      <g transform="translate(74.36625 443.161762) scale(0.14 -0.14)">
       <use xlink:href="#DejaVuSans-30"/>
       <use xlink:href="#DejaVuSans-20" x="63.623047"/>
       <use xlink:href="#DejaVuSans-56" x="95.410156"/>
      </g>
     </g>
    </g>
    <g id="ytick_10">
     <g id="line2d_70">
      <path d="M 100.8 396.841251 
L 987.84 396.841251 
" clip-path="url(#p302dfe5a94)" style="fill: none; stroke-dasharray: 1.85,0.8; stroke-dashoffset: 0; stroke: #b2b2b2; stroke-width: 0.5"/>
     </g>
     <g id="line2d_71">
      <g>
       <use xlink:href="#m041337ffd5" x="100.8" y="396.841251" style="stroke: #000000; stroke-width: 0.8"/>
      </g>
     </g>
     <g id="text_13">
      <!-- 1 V -->
      <g transform="translate(74.36625 402.160157) scale(0.14 -0.14)">
       <use xlink:href="#DejaVuSans-31"/>
       <use xlink:href="#DejaVuSans-20" x="63.623047"/>
       <use xlink:href="#DejaVuSans-56" x="95.410156"/>
      </g>
     </g>
    </g>
    <g id="text_14">
     <g id="patch_21">
      <path d="M 34.8768 454.693023 
L 34.8768 383.46146 
L 11.247425 383.46146 
L 11.247425 454.693023 
z
" style="fill: #ffff00; opacity: 0.2; stroke: #eeeeee; stroke-width: 0.5; stroke-linejoin: miter"/>
     </g>
     <!-- DFF OUT -->
     <g transform="translate(26.925238 449.653023) rotate(-90) scale(0.14 -0.14)">
      <defs>
       <path id="DejaVuSans-4f" d="M 2522 4238 
Q 1834 4238 1429 3725 
Q 1025 3213 1025 2328 
Q 1025 1447 1429 934 
Q 1834 422 2522 422 
Q 3209 422 3611 934 
Q 4013 1447 4013 2328 
Q 4013 3213 3611 3725 
Q 3209 4238 2522 4238 
z
M 2522 4750 
Q 3503 4750 4090 4092 
Q 4678 3434 4678 2328 
Q 4678 1225 4090 567 
Q 3503 -91 2522 -91 
Q 1538 -91 948 565 
Q 359 1222 359 2328 
Q 359 3434 948 4092 
Q 1538 4750 2522 4750 
z
" transform="scale(0.015625)"/>
       <path id="DejaVuSans-54" d="M -19 4666 
L 3928 4666 
L 3928 4134 
L 2272 4134 
L 2272 0 
L 1638 0 
L 1638 4134 
L -19 4134 
L -19 4666 
z
" transform="scale(0.015625)"/>
      </defs>
      <use xlink:href="#DejaVuSans-44"/>
      <use xlink:href="#DejaVuSans-46" x="77.001953"/>
      <use xlink:href="#DejaVuSans-46" x="134.521484"/>
      <use xlink:href="#DejaVuSans-20" x="192.041016"/>
      <use xlink:href="#DejaVuSans-4f" x="223.828125"/>
      <use xlink:href="#DejaVuSans-55" x="302.539062"/>
      <use xlink:href="#DejaVuSans-54" x="375.732422"/>
     </g>
    </g>
   </g>
   <g id="line2d_72">
    <path d="M 141.12 406.905915 
L 173.408256 406.955937 
L 173.440512 408.653403 
L 173.601792 437.845358 
L 174.117888 437.840597 
L 184.052736 437.841773 
L 254.048256 437.843481 
L 254.080512 438.007387 
L 254.112768 437.736264 
L 254.306304 433.733265 
L 254.596608 432.930864 
L 254.693376 432.358481 
L 255.14496 425.175 
L 255.370752 408.291359 
L 255.596544 389.038645 
L 255.757824 388.702432 
L 255.983616 388.63683 
L 256.886784 388.64093 
L 295.755264 388.722933 
L 296.239104 391.375737 
L 296.59392 390.711511 
L 297.948672 388.977143 
L 299.561472 388.673731 
L 334.688256 388.65733 
L 334.720512 388.538426 
L 334.752768 389.141149 
L 334.785024 392.121966 
L 334.914048 437.826049 
L 334.97856 437.789964 
L 335.13984 437.834263 
L 335.494656 437.84226 
L 365.912064 437.841727 
L 415.328256 437.843456 
L 415.360512 438.006817 
L 415.392768 437.738536 
L 415.586304 433.637731 
L 415.876608 432.696745 
L 415.908864 432.58399 
L 416.1024 427.72161 
L 416.521728 413.566216 
L 416.9088 388.776235 
L 417.102336 388.64503 
L 417.7152 388.677831 
L 444.455424 388.784435 
L 447.035904 392.581184 
L 452.22912 401.371108 
L 452.906496 403.034953 
L 453.229056 404.196939 
L 453.261312 404.186688 
L 453.325824 404.185048 
L 453.454848 404.751691 
L 453.777408 406.26137 
L 454.099968 407.646404 
L 454.8096 411.069218 
L 454.874112 410.931042 
L 454.906368 410.979834 
L 455.390208 413.806075 
L 455.422464 413.993042 
L 455.45472 413.854867 
L 455.486976 413.664619 
L 455.551488 413.815095 
L 455.712768 415.307144 
L 455.970816 416.556873 
L 456.035328 416.467489 
L 456.09984 416.557283 
L 456.132096 416.633956 
L 456.293376 418.109193 
L 457.196544 422.543517 
L 457.261056 422.440603 
L 457.293312 422.266346 
L 457.325568 422.529987 
L 457.357824 422.557868 
L 457.55136 424.254924 
L 457.906176 426.048334 
L 457.938432 425.863007 
L 457.970688 425.538684 
L 458.002944 425.722782 
L 458.164224 427.245171 
L 458.551296 429.077943 
L 459.067392 431.404784 
L 459.099648 431.199776 
L 459.131904 431.028799 
L 459.16416 431.080461 
L 459.32544 432.530688 
L 459.777024 434.484825 
L 459.80928 433.821255 
L 459.841536 434.125118 
L 460.002816 435.437292 
L 460.422144 437.090518 
L 460.4544 436.591733 
L 460.518912 437.121925 
L 460.744704 438.537013 
L 461.035008 439.668084 
L 461.067264 439.368198 
L 461.2608 440.197906 
L 461.454336 441.318726 
L 461.841408 442.55107 
L 461.873664 442.324742 
L 461.90592 442.667105 
L 461.938176 442.455947 
L 462.163968 442.979127 
L 462.260736 443.242357 
L 462.422016 444.131682 
L 462.454272 443.854101 
L 462.486528 444.248537 
L 462.518784 444.196055 
L 462.71232 444.83158 
L 462.970368 445.436353 
L 463.68 446.584398 
L 463.744512 447.13628 
L 463.809024 446.918971 
L 464.00256 447.525385 
L 464.16384 448.202322 
L 464.64768 449.401619 
L 464.679936 449.149049 
L 464.712192 449.242122 
L 464.873472 449.926029 
L 464.937984 449.811225 
L 464.97024 449.984661 
L 465.228288 450.802233 
L 466.002432 452.602204 
L 466.034688 452.523481 
L 466.066944 452.477559 
L 466.0992 452.548492 
L 467.131392 455.05656 
L 467.163648 454.972097 
L 467.195904 455.041799 
L 468.937728 458.820097 
L 469.00224 458.8898 
L 470.195712 461.227712 
L 470.356992 461.073136 
L 471.002112 460.026775 
L 471.163392 459.566737 
L 471.195648 459.630289 
L 471.227904 459.567147 
L 471.389184 459.069797 
L 471.808512 458.286666 
L 471.840768 458.37359 
L 471.873024 458.160382 
L 472.776192 456.721635 
L 472.808448 456.789698 
L 472.840704 456.824139 
L 473.001984 456.379682 
L 474.421248 454.785539 
L 474.64704 454.443996 
L 475.098624 453.731798 
L 475.13088 453.720318 
L 475.163136 453.883914 
L 475.195392 453.643645 
L 475.227648 453.828152 
L 475.356672 453.434126 
L 475.388928 453.644465 
L 475.421184 453.470618 
L 475.582464 453.152445 
L 476.09856 452.596054 
L 476.130816 452.802292 
L 476.195328 452.50585 
L 476.324352 452.541522 
L 476.453376 452.283621 
L 476.775936 452.071233 
L 476.969472 451.942078 
L 477.324288 451.363545 
L 477.646848 450.845695 
L 477.679104 450.911708 
L 477.71136 450.777222 
L 477.808128 450.693989 
L 477.840384 450.943689 
L 477.904896 450.595995 
L 478.001664 450.45413 
L 478.03392 450.735811 
L 478.098432 450.379097 
L 478.130688 450.632077 
L 478.1952 450.343015 
L 478.227456 450.415588 
L 478.259712 450.502512 
L 478.324224 450.097826 
L 478.388736 450.112586 
L 478.420992 450.146208 
L 478.453248 450.043294 
L 478.51776 449.912909 
L 478.550016 450.056824 
L 478.582272 450.147848 
L 478.646784 450.067485 
L 478.775808 449.655009 
L 478.808064 449.642298 
L 478.84032 449.762023 
L 478.872576 449.563985 
L 478.904832 449.561115 
L 478.937088 449.789904 
L 479.0016 449.591046 
L 479.033856 449.598836 
L 479.16288 449.372917 
L 479.195136 449.480342 
L 479.259648 449.328226 
L 479.32416 449.363487 
L 479.356416 449.289684 
L 479.549952 449.18718 
L 480.066048 448.531565 
L 480.259584 448.110068 
L 480.517632 447.769345 
L 480.582144 447.989113 
L 480.678912 447.555316 
L 480.711168 447.590988 
L 480.840192 447.440922 
L 480.872448 447.763604 
L 480.904704 447.299466 
L 480.93696 447.310127 
L 481.807872 446.585628 
L 482.71104 445.932883 
L 483.001344 445.558948 
L 483.162624 445.09727 
L 483.35616 444.84019 
L 483.388416 445.207974 
L 483.452928 444.721695 
L 483.485184 445.059549 
L 483.614208 444.613861 
L 483.743232 444.427304 
L 483.775488 444.84142 
L 483.872256 444.767207 
L 484.00128 444.150543 
L 484.033536 444.445755 
L 484.098048 444.08289 
L 484.227072 444.017288 
L 484.259328 444.399833 
L 484.291584 443.917244 
L 484.356096 444.310039 
L 484.48512 443.800799 
L 484.517376 443.81392 
L 484.549632 444.047219 
L 484.581888 443.736017 
L 484.6464 443.966446 
L 484.710912 443.711416 
L 484.775424 443.758158 
L 484.839936 443.759388 
L 485.001216 443.630233 
L 485.259264 443.518708 
L 486.033408 442.78929 
L 486.517248 442.2821 
L 486.646272 441.667486 
L 486.710784 441.609633 
L 486.74304 441.865237 
L 486.775296 441.776632 
L 486.872064 441.90427 
L 486.90432 441.319177 
L 486.936576 441.358785 
L 486.968832 441.844244 
L 487.033344 441.26526 
L 487.0656 441.291214 
L 487.097856 441.180715 
L 487.194624 441.14656 
L 487.259136 441.577118 
L 487.291392 441.116301 
L 487.355904 441.490195 
L 487.420416 441.28859 
L 487.613952 440.847003 
L 487.646208 441.147216 
L 487.678464 440.838228 
L 487.71072 440.84565 
L 487.807488 440.905881 
L 487.839744 440.844092 
L 488.097792 440.741301 
L 488.291328 440.611571 
L 489.4848 439.390093 
L 489.581568 439.14642 
L 489.710592 438.456773 
L 489.742848 439.022349 
L 489.775104 438.413311 
L 489.80736 438.485761 
L 489.904128 438.679371 
L 490.000896 437.965951 
L 490.033152 438.332743 
L 490.194432 437.953913 
L 490.226688 438.191333 
L 490.2912 438.072953 
L 490.581504 437.60403 
L 491.226624 436.429367 
L 491.323392 435.76428 
L 491.355648 436.119764 
L 491.484672 435.293663 
L 491.516928 435.611344 
L 491.613696 435.4589 
L 491.645952 435.56247 
L 491.678208 435.354674 
L 491.74272 435.062742 
L 491.904 435.150773 
L 491.968512 435.047326 
L 492.742656 433.525387 
L 492.903936 432.416704 
L 492.936192 432.936194 
L 493.000704 432.420804 
L 493.097472 432.289599 
L 493.129728 432.339621 
L 493.161984 432.737746 
L 493.226496 432.420804 
L 493.258752 432.459345 
L 493.291008 432.378162 
L 493.452288 432.102221 
L 494.419968 430.125534 
L 494.48448 429.606454 
L 494.548992 429.676566 
L 494.613504 429.843033 
L 494.64576 429.755699 
L 495.065088 428.880725 
L 496.774656 425.607567 
L 496.806912 425.828566 
L 496.871424 425.747793 
L 497.000448 425.270534 
L 497.032704 425.465701 
L 497.06496 425.247163 
L 497.097216 425.307435 
L 497.129472 425.304155 
L 497.290752 424.989263 
L 497.484288 424.848627 
L 498.19392 423.587418 
L 498.3552 422.727204 
L 498.451968 422.525066 
L 498.484224 422.760006 
L 498.548736 422.415182 
L 498.742272 422.09701 
L 499.129344 421.109691 
L 500.12928 418.772599 
L 500.161536 418.02022 
L 500.258304 418.046461 
L 500.419584 418.191607 
L 500.45184 418.136665 
L 500.93568 417.24488 
L 501.09696 416.811083 
L 501.322752 416.413777 
L 501.709824 415.801623 
L 501.806592 415.155438 
L 501.838848 415.20341 
L 501.871104 415.427278 
L 501.967872 415.348555 
L 502.096896 415.174299 
L 503.548416 412.788825 
L 504 412.444822 
L 504.193536 412.959802 
L 504.290304 414.288664 
L 504.387072 420.434395 
L 504.612864 437.512428 
L 504.64512 437.262437 
L 504.774144 437.260797 
L 506.386944 437.36203 
L 508.870656 437.378103 
L 509.548032 436.757052 
L 510.354432 436.363067 
L 511.386624 436.130096 
L 512.967168 436.036366 
L 516.354048 436.121322 
L 529.449984 436.477503 
L 532.901376 436.535725 
L 534.707712 436.687677 
L 535.385088 437.322997 
L 536.191488 437.744637 
L 537.191424 438.009011 
L 538.83648 438.174768 
L 542.255616 438.226955 
L 576.608256 438.167175 
L 576.640512 438.548904 
L 576.89856 430.656505 
L 577.124352 429.234159 
L 577.285632 426.613336 
L 577.446912 417.685237 
L 577.70496 384.405464 
L 577.86624 376.951372 
L 578.02752 376.959572 
L 580.704768 377.861608 
L 580.995072 377.968212 
L 582.736896 378.517633 
L 583.123968 378.624238 
L 584.64 379.091656 
L 585.059328 379.19826 
L 586.381824 379.583675 
L 586.801152 379.690279 
L 587.994624 380.030593 
L 588.897792 380.252001 
L 589.80096 380.48571 
L 590.188032 380.592315 
L 590.962176 380.772722 
L 591.446016 380.879326 
L 592.22016 381.059733 
L 592.607232 381.166337 
L 593.284608 381.305743 
L 593.67168 381.412347 
L 594.349056 381.551752 
L 594.832896 381.658356 
L 595.510272 381.797762 
L 595.994112 381.904366 
L 596.671488 382.043771 
L 597.155328 382.150376 
L 597.832704 382.289781 
L 598.413312 382.396385 
L 599.090688 382.535791 
L 599.671296 382.642395 
L 600.219648 382.740799 
L 600.735744 382.847403 
L 601.284096 382.945807 
L 601.89696 383.048311 
L 602.251776 383.109813 
L 602.86464 383.216417 
L 603.412992 383.314821 
L 604.025856 383.417325 
L 604.380672 383.478828 
L 605.090304 383.581332 
L 605.44512 383.642834 
L 606.154752 383.745338 
L 606.509568 383.806841 
L 607.2192 383.909345 
L 607.574016 383.970847 
L 608.283648 384.073351 
L 608.638464 384.134853 
L 609.444864 384.237357 
L 609.79968 384.29886 
L 610.702848 384.401364 
L 611.057664 384.462866 
L 611.960832 384.56537 
L 612.315648 384.626873 
L 613.218816 384.729377 
L 613.476864 384.749877 
L 614.283264 384.852381 
L 614.63808 384.913884 
L 615.638016 385.016388 
L 615.896064 385.036889 
L 616.702464 385.139393 
L 616.928256 385.168094 
L 616.960512 385.08199 
L 616.992768 385.127092 
L 617.025024 385.241897 
L 617.121792 385.196795 
L 618.250752 385.303399 
L 618.5088 385.3239 
L 619.411968 385.426404 
L 619.670016 385.446905 
L 620.669952 385.549409 
L 620.928 385.56991 
L 621.927936 385.672414 
L 622.185984 385.692914 
L 623.282688 385.795418 
L 623.540736 385.815919 
L 624.63744 385.918423 
L 624.895488 385.938924 
L 626.08896 386.041428 
L 626.347008 386.061929 
L 627.637248 386.164433 
L 627.895296 386.184934 
L 629.185536 386.287438 
L 629.443584 386.307938 
L 630.92736 386.410442 
L 631.185408 386.426843 
L 633.056256 386.553948 
L 634.604544 386.656452 
L 634.862592 386.676953 
L 636.539904 386.779457 
L 636.797952 386.795858 
L 638.6688 386.902462 
L 638.926848 386.918862 
L 640.991232 387.025467 
L 641.24928 387.045967 
L 643.5072 387.148471 
L 643.765248 387.168972 
L 646.216704 387.271476 
L 646.474752 387.291977 
L 649.119744 387.394481 
L 649.377792 387.414982 
L 652.409856 387.517486 
L 652.764672 387.533886 
L 655.990272 387.640491 
L 656.24832 387.656891 
L 657.248256 387.677392 
L 657.280512 387.8701 
L 657.345024 387.660991 
L 657.506304 387.693793 
L 661.602816 387.804497 
L 661.860864 387.820898 
L 666.537984 387.927502 
L 666.8928 387.943902 
L 672.440832 388.050507 
L 672.795648 388.071007 
L 679.698432 388.173511 
L 680.053248 388.194012 
L 737.888256 388.226814 
L 737.920512 388.435922 
L 737.985024 388.226814 
L 738.17856 388.206313 
L 739.243008 388.230914 
L 818.528256 388.226814 
L 818.560512 388.435922 
L 818.625024 388.226814 
L 818.81856 388.206313 
L 819.883008 388.230914 
L 899.168256 388.226814 
L 899.200512 388.435922 
L 899.265024 388.226814 
L 899.45856 388.206313 
L 900.523008 388.230914 
L 947.52 388.230914 
L 947.52 388.230914 
" clip-path="url(#p302dfe5a94)" style="fill: none; stroke: #ff00ff; stroke-width: 2; stroke-linecap: square"/>
   </g>
   <g id="patch_22">
    <path d="M 100.8 465.442759 
L 100.8 372.711724 
" style="fill: none; stroke: #bcbcbc; stroke-width: 0.8; stroke-linejoin: miter; stroke-linecap: square"/>
   </g>
   <g id="patch_23">
    <path d="M 987.84 465.442759 
L 987.84 372.711724 
" style="fill: none; stroke: #bcbcbc; stroke-width: 0.8; stroke-linejoin: miter; stroke-linecap: square"/>
   </g>
   <g id="patch_24">
    <path d="M 100.8 465.442759 
L 987.84 465.442759 
" style="fill: none; stroke: #bcbcbc; stroke-width: 0.8; stroke-linejoin: miter; stroke-linecap: square"/>
   </g>
   <g id="patch_25">
    <path d="M 100.8 372.711724 
L 987.84 372.711724 
" style="fill: none; stroke: #bcbcbc; stroke-width: 0.8; stroke-linejoin: miter; stroke-linecap: square"/>
   </g>
  </g>
  <g id="axes_5">
   <g id="patch_26">
    <path d="M 100.8 576.72 
L 987.84 576.72 
L 987.84 483.988966 
L 100.8 483.988966 
z
" style="fill: #eeeeee"/>
   </g>
   <g id="matplotlib.axis_9">
    <g id="xtick_25">
     <g id="line2d_73">
      <path d="M 141.12 576.72 
L 141.12 483.988966 
" clip-path="url(#pfa2f4d761d)" style="fill: none; stroke-dasharray: 1.85,0.8; stroke-dashoffset: 0; stroke: #b2b2b2; stroke-width: 0.5"/>
     </g>
     <g id="line2d_74">
      <g>
       <use xlink:href="#m9c46df5555" x="141.12" y="576.72" style="stroke: #000000; stroke-width: 0.8"/>
      </g>
     </g>
     <g id="text_15">
      <!-- 0 s -->
      <g transform="translate(130.795 590.857813) scale(0.14 -0.14)">
       <defs>
        <path id="DejaVuSans-73" d="M 2834 3397 
L 2834 2853 
Q 2591 2978 2328 3040 
Q 2066 3103 1784 3103 
Q 1356 3103 1142 2972 
Q 928 2841 928 2578 
Q 928 2378 1081 2264 
Q 1234 2150 1697 2047 
L 1894 2003 
Q 2506 1872 2764 1633 
Q 3022 1394 3022 966 
Q 3022 478 2636 193 
Q 2250 -91 1575 -91 
Q 1294 -91 989 -36 
Q 684 19 347 128 
L 347 722 
Q 666 556 975 473 
Q 1284 391 1588 391 
Q 1994 391 2212 530 
Q 2431 669 2431 922 
Q 2431 1156 2273 1281 
Q 2116 1406 1581 1522 
L 1381 1569 
Q 847 1681 609 1914 
Q 372 2147 372 2553 
Q 372 3047 722 3315 
Q 1072 3584 1716 3584 
Q 2034 3584 2315 3537 
Q 2597 3491 2834 3397 
z
" transform="scale(0.015625)"/>
       </defs>
       <use xlink:href="#DejaVuSans-30"/>
       <use xlink:href="#DejaVuSans-20" x="63.623047"/>
       <use xlink:href="#DejaVuSans-73" x="95.410156"/>
      </g>
     </g>
    </g>
    <g id="xtick_26">
     <g id="line2d_75">
      <path d="M 302.4 576.72 
L 302.4 483.988966 
" clip-path="url(#pfa2f4d761d)" style="fill: none; stroke-dasharray: 1.85,0.8; stroke-dashoffset: 0; stroke: #b2b2b2; stroke-width: 0.5"/>
     </g>
     <g id="line2d_76">
      <g>
       <use xlink:href="#m9c46df5555" x="302.4" y="576.72" style="stroke: #000000; stroke-width: 0.8"/>
      </g>
     </g>
     <g id="text_16">
      <!-- 50 ns -->
      <g transform="translate(283.185 590.857813) scale(0.14 -0.14)">
       <defs>
        <path id="DejaVuSans-35" d="M 691 4666 
L 3169 4666 
L 3169 4134 
L 1269 4134 
L 1269 2991 
Q 1406 3038 1543 3061 
Q 1681 3084 1819 3084 
Q 2600 3084 3056 2656 
Q 3513 2228 3513 1497 
Q 3513 744 3044 326 
Q 2575 -91 1722 -91 
Q 1428 -91 1123 -41 
Q 819 9 494 109 
L 494 744 
Q 775 591 1075 516 
Q 1375 441 1709 441 
Q 2250 441 2565 725 
Q 2881 1009 2881 1497 
Q 2881 1984 2565 2268 
Q 2250 2553 1709 2553 
Q 1456 2553 1204 2497 
Q 953 2441 691 2322 
L 691 4666 
z
" transform="scale(0.015625)"/>
        <path id="DejaVuSans-6e" d="M 3513 2113 
L 3513 0 
L 2938 0 
L 2938 2094 
Q 2938 2591 2744 2837 
Q 2550 3084 2163 3084 
Q 1697 3084 1428 2787 
Q 1159 2491 1159 1978 
L 1159 0 
L 581 0 
L 581 3500 
L 1159 3500 
L 1159 2956 
Q 1366 3272 1645 3428 
Q 1925 3584 2291 3584 
Q 2894 3584 3203 3211 
Q 3513 2838 3513 2113 
z
" transform="scale(0.015625)"/>
       </defs>
       <use xlink:href="#DejaVuSans-35"/>
       <use xlink:href="#DejaVuSans-30" x="63.623047"/>
       <use xlink:href="#DejaVuSans-20" x="127.246094"/>
       <use xlink:href="#DejaVuSans-6e" x="159.033203"/>
       <use xlink:href="#DejaVuSans-73" x="222.412109"/>
      </g>
     </g>
    </g>
    <g id="xtick_27">
     <g id="line2d_77">
      <path d="M 463.68 576.72 
L 463.68 483.988966 
" clip-path="url(#pfa2f4d761d)" style="fill: none; stroke-dasharray: 1.85,0.8; stroke-dashoffset: 0; stroke: #b2b2b2; stroke-width: 0.5"/>
     </g>
     <g id="line2d_78">
      <g>
       <use xlink:href="#m9c46df5555" x="463.68" y="576.72" style="stroke: #000000; stroke-width: 0.8"/>
      </g>
     </g>
     <g id="text_17">
      <!-- 100 ns -->
      <g transform="translate(440.01125 590.857813) scale(0.14 -0.14)">
       <use xlink:href="#DejaVuSans-31"/>
       <use xlink:href="#DejaVuSans-30" x="63.623047"/>
       <use xlink:href="#DejaVuSans-30" x="127.246094"/>
       <use xlink:href="#DejaVuSans-20" x="190.869141"/>
       <use xlink:href="#DejaVuSans-6e" x="222.65625"/>
       <use xlink:href="#DejaVuSans-73" x="286.035156"/>
      </g>
     </g>
    </g>
    <g id="xtick_28">
     <g id="line2d_79">
      <path d="M 624.96 576.72 
L 624.96 483.988966 
" clip-path="url(#pfa2f4d761d)" style="fill: none; stroke-dasharray: 1.85,0.8; stroke-dashoffset: 0; stroke: #b2b2b2; stroke-width: 0.5"/>
     </g>
     <g id="line2d_80">
      <g>
       <use xlink:href="#m9c46df5555" x="624.96" y="576.72" style="stroke: #000000; stroke-width: 0.8"/>
      </g>
     </g>
     <g id="text_18">
      <!-- 150 ns -->
      <g transform="translate(601.29125 590.857813) scale(0.14 -0.14)">
       <use xlink:href="#DejaVuSans-31"/>
       <use xlink:href="#DejaVuSans-35" x="63.623047"/>
       <use xlink:href="#DejaVuSans-30" x="127.246094"/>
       <use xlink:href="#DejaVuSans-20" x="190.869141"/>
       <use xlink:href="#DejaVuSans-6e" x="222.65625"/>
       <use xlink:href="#DejaVuSans-73" x="286.035156"/>
      </g>
     </g>
    </g>
    <g id="xtick_29">
     <g id="line2d_81">
      <path d="M 786.24 576.72 
L 786.24 483.988966 
" clip-path="url(#pfa2f4d761d)" style="fill: none; stroke-dasharray: 1.85,0.8; stroke-dashoffset: 0; stroke: #b2b2b2; stroke-width: 0.5"/>
     </g>
     <g id="line2d_82">
      <g>
       <use xlink:href="#m9c46df5555" x="786.24" y="576.72" style="stroke: #000000; stroke-width: 0.8"/>
      </g>
     </g>
     <g id="text_19">
      <!-- 200 ns -->
      <g transform="translate(762.57125 590.857813) scale(0.14 -0.14)">
       <use xlink:href="#DejaVuSans-32"/>
       <use xlink:href="#DejaVuSans-30" x="63.623047"/>
       <use xlink:href="#DejaVuSans-30" x="127.246094"/>
       <use xlink:href="#DejaVuSans-20" x="190.869141"/>
       <use xlink:href="#DejaVuSans-6e" x="222.65625"/>
       <use xlink:href="#DejaVuSans-73" x="286.035156"/>
      </g>
     </g>
    </g>
    <g id="xtick_30">
     <g id="line2d_83">
      <path d="M 947.52 576.72 
L 947.52 483.988966 
" clip-path="url(#pfa2f4d761d)" style="fill: none; stroke-dasharray: 1.85,0.8; stroke-dashoffset: 0; stroke: #b2b2b2; stroke-width: 0.5"/>
     </g>
     <g id="line2d_84">
      <g>
       <use xlink:href="#m9c46df5555" x="947.52" y="576.72" style="stroke: #000000; stroke-width: 0.8"/>
      </g>
     </g>
     <g id="text_20">
      <!-- 250 ns -->
      <g transform="translate(923.85125 590.857813) scale(0.14 -0.14)">
       <use xlink:href="#DejaVuSans-32"/>
       <use xlink:href="#DejaVuSans-35" x="63.623047"/>
       <use xlink:href="#DejaVuSans-30" x="127.246094"/>
       <use xlink:href="#DejaVuSans-20" x="190.869141"/>
       <use xlink:href="#DejaVuSans-6e" x="222.65625"/>
       <use xlink:href="#DejaVuSans-73" x="286.035156"/>
      </g>
     </g>
    </g>
    <g id="text_21">
     <!-- Time -->
     <g transform="translate(527.192969 608.407187) scale(0.14 -0.14)">
      <defs>
       <path id="DejaVuSans-69" d="M 603 3500 
L 1178 3500 
L 1178 0 
L 603 0 
L 603 3500 
z
M 603 4863 
L 1178 4863 
L 1178 4134 
L 603 4134 
L 603 4863 
z
" transform="scale(0.015625)"/>
       <path id="DejaVuSans-6d" d="M 3328 2828 
Q 3544 3216 3844 3400 
Q 4144 3584 4550 3584 
Q 5097 3584 5394 3201 
Q 5691 2819 5691 2113 
L 5691 0 
L 5113 0 
L 5113 2094 
Q 5113 2597 4934 2840 
Q 4756 3084 4391 3084 
Q 3944 3084 3684 2787 
Q 3425 2491 3425 1978 
L 3425 0 
L 2847 0 
L 2847 2094 
Q 2847 2600 2669 2842 
Q 2491 3084 2119 3084 
Q 1678 3084 1418 2786 
Q 1159 2488 1159 1978 
L 1159 0 
L 581 0 
L 581 3500 
L 1159 3500 
L 1159 2956 
Q 1356 3278 1631 3431 
Q 1906 3584 2284 3584 
Q 2666 3584 2933 3390 
Q 3200 3197 3328 2828 
z
" transform="scale(0.015625)"/>
       <path id="DejaVuSans-65" d="M 3597 1894 
L 3597 1613 
L 953 1613 
Q 991 1019 1311 708 
Q 1631 397 2203 397 
Q 2534 397 2845 478 
Q 3156 559 3463 722 
L 3463 178 
Q 3153 47 2828 -22 
Q 2503 -91 2169 -91 
Q 1331 -91 842 396 
Q 353 884 353 1716 
Q 353 2575 817 3079 
Q 1281 3584 2069 3584 
Q 2775 3584 3186 3129 
Q 3597 2675 3597 1894 
z
M 3022 2063 
Q 3016 2534 2758 2815 
Q 2500 3097 2075 3097 
Q 1594 3097 1305 2825 
Q 1016 2553 972 2059 
L 3022 2063 
z
" transform="scale(0.015625)"/>
      </defs>
      <use xlink:href="#DejaVuSans-54"/>
      <use xlink:href="#DejaVuSans-69" x="57.958984"/>
      <use xlink:href="#DejaVuSans-6d" x="85.742188"/>
      <use xlink:href="#DejaVuSans-65" x="183.154297"/>
     </g>
    </g>
   </g>
   <g id="matplotlib.axis_10">
    <g id="ytick_11">
     <g id="line2d_85">
      <path d="M 100.8 569.745885 
L 987.84 569.745885 
" clip-path="url(#pfa2f4d761d)" style="fill: none; stroke-dasharray: 1.85,0.8; stroke-dashoffset: 0; stroke: #b2b2b2; stroke-width: 0.5"/>
     </g>
     <g id="line2d_86">
      <g>
       <use xlink:href="#m041337ffd5" x="100.8" y="569.745885" style="stroke: #000000; stroke-width: 0.8"/>
      </g>
     </g>
     <g id="text_22">
      <!-- 0 V -->
      <g transform="translate(74.36625 575.064792) scale(0.14 -0.14)">
       <use xlink:href="#DejaVuSans-30"/>
       <use xlink:href="#DejaVuSans-20" x="63.623047"/>
       <use xlink:href="#DejaVuSans-56" x="95.410156"/>
      </g>
     </g>
    </g>
    <g id="ytick_12">
     <g id="line2d_87">
      <path d="M 100.8 535.950348 
L 987.84 535.950348 
" clip-path="url(#pfa2f4d761d)" style="fill: none; stroke-dasharray: 1.85,0.8; stroke-dashoffset: 0; stroke: #b2b2b2; stroke-width: 0.5"/>
     </g>
     <g id="line2d_88">
      <g>
       <use xlink:href="#m041337ffd5" x="100.8" y="535.950348" style="stroke: #000000; stroke-width: 0.8"/>
      </g>
     </g>
     <g id="text_23">
      <!-- 500 mV -->
      <g transform="translate(42.914375 541.269254) scale(0.14 -0.14)">
       <use xlink:href="#DejaVuSans-35"/>
       <use xlink:href="#DejaVuSans-30" x="63.623047"/>
       <use xlink:href="#DejaVuSans-30" x="127.246094"/>
       <use xlink:href="#DejaVuSans-20" x="190.869141"/>
       <use xlink:href="#DejaVuSans-6d" x="222.65625"/>
       <use xlink:href="#DejaVuSans-56" x="320.068359"/>
      </g>
     </g>
    </g>
    <g id="ytick_13">
     <g id="line2d_89">
      <path d="M 100.8 502.15481 
L 987.84 502.15481 
" clip-path="url(#pfa2f4d761d)" style="fill: none; stroke-dasharray: 1.85,0.8; stroke-dashoffset: 0; stroke: #b2b2b2; stroke-width: 0.5"/>
     </g>
     <g id="line2d_90">
      <g>
       <use xlink:href="#m041337ffd5" x="100.8" y="502.15481" style="stroke: #000000; stroke-width: 0.8"/>
      </g>
     </g>
     <g id="text_24">
      <!-- 1 V -->
      <g transform="translate(74.36625 507.473717) scale(0.14 -0.14)">
       <use xlink:href="#DejaVuSans-31"/>
       <use xlink:href="#DejaVuSans-20" x="63.623047"/>
       <use xlink:href="#DejaVuSans-56" x="95.410156"/>
      </g>
     </g>
    </g>
    <g id="text_25">
     <g id="patch_27">
      <path d="M 34.8768 554.329483 
L 34.8768 506.379483 
L 11.247425 506.379483 
L 11.247425 554.329483 
z
" style="fill: #ffff00; opacity: 0.2; stroke: #eeeeee; stroke-width: 0.5; stroke-linejoin: miter"/>
     </g>
     <!-- FOUT -->
     <g transform="translate(26.925238 549.289483) rotate(-90) scale(0.14 -0.14)">
      <use xlink:href="#DejaVuSans-46"/>
      <use xlink:href="#DejaVuSans-4f" x="57.519531"/>
      <use xlink:href="#DejaVuSans-55" x="136.230469"/>
      <use xlink:href="#DejaVuSans-54" x="209.423828"/>
     </g>
    </g>
   </g>
   <g id="line2d_91">
    <path d="M 141.12 488.636595 
L 173.472768 488.643355 
L 173.505024 488.44734 
L 173.569536 526.789729 
L 173.69856 572.504953 
L 173.730816 572.3695 
L 173.827584 567.842115 
L 173.892096 569.3609 
L 174.053376 570.064192 
L 174.117888 569.946665 
L 174.408192 569.492054 
L 174.440448 569.54151 
L 174.66624 569.729954 
L 176.182272 569.740151 
L 180.117504 569.761449 
L 193.568256 569.752159 
L 212.954112 569.74401 
L 255.30624 569.743704 
L 255.6288 488.52845 
L 255.854592 488.670391 
L 256.209408 488.629836 
L 334.849536 488.650114 
L 334.881792 492.854278 
L 335.043072 572.18376 
L 335.107584 570.261206 
L 335.172096 568.338639 
L 335.236608 568.870108 
L 335.365632 570.783003 
L 335.430144 570.410083 
L 335.591424 569.797213 
L 335.881728 569.648439 
L 336.559104 569.817924 
L 337.107456 569.746143 
L 350.009856 569.744206 
L 416.489472 569.74333 
L 416.553984 567.480841 
L 416.812032 488.204013 
L 416.844288 488.339195 
L 416.973312 488.852887 
L 417.037824 488.778537 
L 417.39264 488.548727 
L 417.844224 488.717705 
L 418.457088 488.562245 
L 419.328 488.636595 
L 455.745024 488.569004 
L 455.809536 488.251326 
L 455.874048 512.122466 
L 455.970816 570.090431 
L 456.035328 569.745614 
L 457.099776 569.7442 
L 502.290432 569.820276 
L 502.322688 568.569057 
L 502.419456 524.651824 
L 502.580736 488.83261 
L 502.742016 488.643355 
L 503.290368 488.636595 
L 504.32256 488.643355 
L 504.451584 528.709992 
L 504.612864 572.089065 
L 504.677376 569.727005 
L 504.870912 569.744211 
L 577.3824 569.74422 
L 577.446912 557.18476 
L 577.769472 488.670391 
L 578.02752 488.636595 
L 947.52 488.636595 
L 947.52 488.636595 
" clip-path="url(#pfa2f4d761d)" style="fill: none; stroke: #ff00ff; stroke-width: 2; stroke-linecap: square"/>
   </g>
   <g id="patch_28">
    <path d="M 100.8 576.72 
L 100.8 483.988966 
" style="fill: none; stroke: #bcbcbc; stroke-width: 0.8; stroke-linejoin: miter; stroke-linecap: square"/>
   </g>
   <g id="patch_29">
    <path d="M 987.84 576.72 
L 987.84 483.988966 
" style="fill: none; stroke: #bcbcbc; stroke-width: 0.8; stroke-linejoin: miter; stroke-linecap: square"/>
   </g>
   <g id="patch_30">
    <path d="M 100.8 576.72 
L 987.84 576.72 
" style="fill: none; stroke: #bcbcbc; stroke-width: 0.8; stroke-linejoin: miter; stroke-linecap: square"/>
   </g>
   <g id="patch_31">
    <path d="M 100.8 483.988966 
L 987.84 483.988966 
" style="fill: none; stroke: #bcbcbc; stroke-width: 0.8; stroke-linejoin: miter; stroke-linecap: square"/>
   </g>
  </g>
  <g id="axes_6">
   <g id="patch_32">
    <path d="M 201.6 628.56 
L 856.8 628.56 
L 856.8 615.6 
L 201.6 615.6 
z
" clip-path="url(#p40b47295c7)" style="fill: #d3d3d3"/>
   </g>
   <g id="patch_33">
    <path d="M 201.6 628.56 
L 566.64 628.56 
L 566.64 615.6 
L 201.6 615.6 
z
" clip-path="url(#p40b47295c7)" style="fill: #0000ff"/>
   </g>
   <g id="line2d_92">
    <path d="M 201.6 635.04 
L 201.6 609.12 
" clip-path="url(#pf5b7d6ee44)" style="fill: none; stroke: #ff0000; stroke-linecap: square"/>
   </g>
   <g id="line2d_93">
    <defs>
     <path id="mf5823bcf73" d="M 0 5 
C 1.326016 5 2.597899 4.473168 3.535534 3.535534 
C 4.473168 2.597899 5 1.326016 5 0 
C 5 -1.326016 4.473168 -2.597899 3.535534 -3.535534 
C 2.597899 -4.473168 1.326016 -5 0 -5 
C -1.326016 -5 -2.597899 -4.473168 -3.535534 -3.535534 
C -4.473168 -2.597899 -5 -1.326016 -5 0 
C -5 1.326016 -4.473168 2.597899 -3.535534 3.535534 
C -2.597899 4.473168 -1.326016 5 0 5 
z
" style="stroke: #bfbfbf"/>
    </defs>
    <g>
     <use xlink:href="#mf5823bcf73" x="566.64" y="622.08" style="fill: #ffffff; stroke: #bfbfbf"/>
    </g>
   </g>
   <g id="text_26">
    <!-- #Sweep -->
    <g transform="translate(138.622875 625.39125) scale(0.12 -0.12)">
     <defs>
      <path id="DejaVuSans-23" d="M 3272 2816 
L 2363 2816 
L 2100 1772 
L 3016 1772 
L 3272 2816 
z
M 2803 4594 
L 2478 3297 
L 3391 3297 
L 3719 4594 
L 4219 4594 
L 3897 3297 
L 4872 3297 
L 4872 2816 
L 3775 2816 
L 3519 1772 
L 4513 1772 
L 4513 1294 
L 3397 1294 
L 3072 0 
L 2572 0 
L 2894 1294 
L 1978 1294 
L 1656 0 
L 1153 0 
L 1478 1294 
L 494 1294 
L 494 1772 
L 1594 1772 
L 1856 2816 
L 850 2816 
L 850 3297 
L 1978 3297 
L 2297 4594 
L 2803 4594 
z
" transform="scale(0.015625)"/>
      <path id="DejaVuSans-77" d="M 269 3500 
L 844 3500 
L 1563 769 
L 2278 3500 
L 2956 3500 
L 3675 769 
L 4391 3500 
L 4966 3500 
L 4050 0 
L 3372 0 
L 2619 2869 
L 1863 0 
L 1184 0 
L 269 3500 
z
" transform="scale(0.015625)"/>
      <path id="DejaVuSans-70" d="M 1159 525 
L 1159 -1331 
L 581 -1331 
L 581 3500 
L 1159 3500 
L 1159 2969 
Q 1341 3281 1617 3432 
Q 1894 3584 2278 3584 
Q 2916 3584 3314 3078 
Q 3713 2572 3713 1747 
Q 3713 922 3314 415 
Q 2916 -91 2278 -91 
Q 1894 -91 1617 61 
Q 1341 213 1159 525 
z
M 3116 1747 
Q 3116 2381 2855 2742 
Q 2594 3103 2138 3103 
Q 1681 3103 1420 2742 
Q 1159 2381 1159 1747 
Q 1159 1113 1420 752 
Q 1681 391 2138 391 
Q 2594 391 2855 752 
Q 3116 1113 3116 1747 
z
" transform="scale(0.015625)"/>
     </defs>
     <use xlink:href="#DejaVuSans-23"/>
     <use xlink:href="#DejaVuSans-53" x="83.789062"/>
     <use xlink:href="#DejaVuSans-77" x="147.265625"/>
     <use xlink:href="#DejaVuSans-65" x="229.052734"/>
     <use xlink:href="#DejaVuSans-65" x="290.576172"/>
     <use xlink:href="#DejaVuSans-70" x="352.099609"/>
    </g>
   </g>
   <g id="text_27">
    <!-- $\mathdefault{78}$ -->
    <g transform="translate(869.904 625.39125) scale(0.12 -0.12)">
     <defs>
      <path id="DejaVuSans-37" d="M 525 4666 
L 3525 4666 
L 3525 4397 
L 1831 0 
L 1172 0 
L 2766 4134 
L 525 4134 
L 525 4666 
z
" transform="scale(0.015625)"/>
      <path id="DejaVuSans-38" d="M 2034 2216 
Q 1584 2216 1326 1975 
Q 1069 1734 1069 1313 
Q 1069 891 1326 650 
Q 1584 409 2034 409 
Q 2484 409 2743 651 
Q 3003 894 3003 1313 
Q 3003 1734 2745 1975 
Q 2488 2216 2034 2216 
z
M 1403 2484 
Q 997 2584 770 2862 
Q 544 3141 544 3541 
Q 544 4100 942 4425 
Q 1341 4750 2034 4750 
Q 2731 4750 3128 4425 
Q 3525 4100 3525 3541 
Q 3525 3141 3298 2862 
Q 3072 2584 2669 2484 
Q 3125 2378 3379 2068 
Q 3634 1759 3634 1313 
Q 3634 634 3220 271 
Q 2806 -91 2034 -91 
Q 1263 -91 848 271 
Q 434 634 434 1313 
Q 434 1759 690 2068 
Q 947 2378 1403 2484 
z
M 1172 3481 
Q 1172 3119 1398 2916 
Q 1625 2713 2034 2713 
Q 2441 2713 2670 2916 
Q 2900 3119 2900 3481 
Q 2900 3844 2670 4047 
Q 2441 4250 2034 4250 
Q 1625 4250 1398 4047 
Q 1172 3844 1172 3481 
z
" transform="scale(0.015625)"/>
     </defs>
     <use xlink:href="#DejaVuSans-37" transform="translate(0 0.78125)"/>
     <use xlink:href="#DejaVuSans-38" transform="translate(63.623047 0.78125)"/>
    </g>
   </g>
  </g>
  <g id="text_28">
   <!-- DFF under BBI sweep analysis (Sweep = 88E-9) -->
   <g transform="translate(313.34625 25.1175) scale(0.16 -0.16)">
    <defs>
     <path id="DejaVuSans-75" d="M 544 1381 
L 544 3500 
L 1119 3500 
L 1119 1403 
Q 1119 906 1312 657 
Q 1506 409 1894 409 
Q 2359 409 2629 706 
Q 2900 1003 2900 1516 
L 2900 3500 
L 3475 3500 
L 3475 0 
L 2900 0 
L 2900 538 
Q 2691 219 2414 64 
Q 2138 -91 1772 -91 
Q 1169 -91 856 284 
Q 544 659 544 1381 
z
M 1991 3584 
L 1991 3584 
z
" transform="scale(0.015625)"/>
     <path id="DejaVuSans-64" d="M 2906 2969 
L 2906 4863 
L 3481 4863 
L 3481 0 
L 2906 0 
L 2906 525 
Q 2725 213 2448 61 
Q 2172 -91 1784 -91 
Q 1150 -91 751 415 
Q 353 922 353 1747 
Q 353 2572 751 3078 
Q 1150 3584 1784 3584 
Q 2172 3584 2448 3432 
Q 2725 3281 2906 2969 
z
M 947 1747 
Q 947 1113 1208 752 
Q 1469 391 1925 391 
Q 2381 391 2643 752 
Q 2906 1113 2906 1747 
Q 2906 2381 2643 2742 
Q 2381 3103 1925 3103 
Q 1469 3103 1208 2742 
Q 947 2381 947 1747 
z
" transform="scale(0.015625)"/>
     <path id="DejaVuSans-72" d="M 2631 2963 
Q 2534 3019 2420 3045 
Q 2306 3072 2169 3072 
Q 1681 3072 1420 2755 
Q 1159 2438 1159 1844 
L 1159 0 
L 581 0 
L 581 3500 
L 1159 3500 
L 1159 2956 
Q 1341 3275 1631 3429 
Q 1922 3584 2338 3584 
Q 2397 3584 2469 3576 
Q 2541 3569 2628 3553 
L 2631 2963 
z
" transform="scale(0.015625)"/>
     <path id="DejaVuSans-61" d="M 2194 1759 
Q 1497 1759 1228 1600 
Q 959 1441 959 1056 
Q 959 750 1161 570 
Q 1363 391 1709 391 
Q 2188 391 2477 730 
Q 2766 1069 2766 1631 
L 2766 1759 
L 2194 1759 
z
M 3341 1997 
L 3341 0 
L 2766 0 
L 2766 531 
Q 2569 213 2275 61 
Q 1981 -91 1556 -91 
Q 1019 -91 701 211 
Q 384 513 384 1019 
Q 384 1609 779 1909 
Q 1175 2209 1959 2209 
L 2766 2209 
L 2766 2266 
Q 2766 2663 2505 2880 
Q 2244 3097 1772 3097 
Q 1472 3097 1187 3025 
Q 903 2953 641 2809 
L 641 3341 
Q 956 3463 1253 3523 
Q 1550 3584 1831 3584 
Q 2591 3584 2966 3190 
Q 3341 2797 3341 1997 
z
" transform="scale(0.015625)"/>
     <path id="DejaVuSans-6c" d="M 603 4863 
L 1178 4863 
L 1178 0 
L 603 0 
L 603 4863 
z
" transform="scale(0.015625)"/>
     <path id="DejaVuSans-79" d="M 2059 -325 
Q 1816 -950 1584 -1140 
Q 1353 -1331 966 -1331 
L 506 -1331 
L 506 -850 
L 844 -850 
Q 1081 -850 1212 -737 
Q 1344 -625 1503 -206 
L 1606 56 
L 191 3500 
L 800 3500 
L 1894 763 
L 2988 3500 
L 3597 3500 
L 2059 -325 
z
" transform="scale(0.015625)"/>
     <path id="DejaVuSans-28" d="M 1984 4856 
Q 1566 4138 1362 3434 
Q 1159 2731 1159 2009 
Q 1159 1288 1364 580 
Q 1569 -128 1984 -844 
L 1484 -844 
Q 1016 -109 783 600 
Q 550 1309 550 2009 
Q 550 2706 781 3412 
Q 1013 4119 1484 4856 
L 1984 4856 
z
" transform="scale(0.015625)"/>
     <path id="DejaVuSans-3d" d="M 678 2906 
L 4684 2906 
L 4684 2381 
L 678 2381 
L 678 2906 
z
M 678 1631 
L 4684 1631 
L 4684 1100 
L 678 1100 
L 678 1631 
z
" transform="scale(0.015625)"/>
     <path id="DejaVuSans-2d" d="M 313 2009 
L 1997 2009 
L 1997 1497 
L 313 1497 
L 313 2009 
z
" transform="scale(0.015625)"/>
     <path id="DejaVuSans-39" d="M 703 97 
L 703 672 
Q 941 559 1184 500 
Q 1428 441 1663 441 
Q 2288 441 2617 861 
Q 2947 1281 2994 2138 
Q 2813 1869 2534 1725 
Q 2256 1581 1919 1581 
Q 1219 1581 811 2004 
Q 403 2428 403 3163 
Q 403 3881 828 4315 
Q 1253 4750 1959 4750 
Q 2769 4750 3195 4129 
Q 3622 3509 3622 2328 
Q 3622 1225 3098 567 
Q 2575 -91 1691 -91 
Q 1453 -91 1209 -44 
Q 966 3 703 97 
z
M 1959 2075 
Q 2384 2075 2632 2365 
Q 2881 2656 2881 3163 
Q 2881 3666 2632 3958 
Q 2384 4250 1959 4250 
Q 1534 4250 1286 3958 
Q 1038 3666 1038 3163 
Q 1038 2656 1286 2365 
Q 1534 2075 1959 2075 
z
" transform="scale(0.015625)"/>
     <path id="DejaVuSans-29" d="M 513 4856 
L 1013 4856 
Q 1481 4119 1714 3412 
Q 1947 2706 1947 2009 
Q 1947 1309 1714 600 
Q 1481 -109 1013 -844 
L 513 -844 
Q 928 -128 1133 580 
Q 1338 1288 1338 2009 
Q 1338 2731 1133 3434 
Q 928 4138 513 4856 
z
" transform="scale(0.015625)"/>
    </defs>
    <use xlink:href="#DejaVuSans-44"/>
    <use xlink:href="#DejaVuSans-46" x="77.001953"/>
    <use xlink:href="#DejaVuSans-46" x="134.521484"/>
    <use xlink:href="#DejaVuSans-20" x="192.041016"/>
    <use xlink:href="#DejaVuSans-75" x="223.828125"/>
    <use xlink:href="#DejaVuSans-6e" x="287.207031"/>
    <use xlink:href="#DejaVuSans-64" x="350.585938"/>
    <use xlink:href="#DejaVuSans-65" x="414.0625"/>
    <use xlink:href="#DejaVuSans-72" x="475.585938"/>
    <use xlink:href="#DejaVuSans-20" x="516.699219"/>
    <use xlink:href="#DejaVuSans-42" x="548.486328"/>
    <use xlink:href="#DejaVuSans-42" x="617.089844"/>
    <use xlink:href="#DejaVuSans-49" x="685.693359"/>
    <use xlink:href="#DejaVuSans-20" x="715.185547"/>
    <use xlink:href="#DejaVuSans-73" x="746.972656"/>
    <use xlink:href="#DejaVuSans-77" x="799.072266"/>
    <use xlink:href="#DejaVuSans-65" x="880.859375"/>
    <use xlink:href="#DejaVuSans-65" x="942.382812"/>
    <use xlink:href="#DejaVuSans-70" x="1003.90625"/>
    <use xlink:href="#DejaVuSans-20" x="1067.382812"/>
    <use xlink:href="#DejaVuSans-61" x="1099.169922"/>
    <use xlink:href="#DejaVuSans-6e" x="1160.449219"/>
    <use xlink:href="#DejaVuSans-61" x="1223.828125"/>
    <use xlink:href="#DejaVuSans-6c" x="1285.107422"/>
    <use xlink:href="#DejaVuSans-79" x="1312.890625"/>
    <use xlink:href="#DejaVuSans-73" x="1372.070312"/>
    <use xlink:href="#DejaVuSans-69" x="1424.169922"/>
    <use xlink:href="#DejaVuSans-73" x="1451.953125"/>
    <use xlink:href="#DejaVuSans-20" x="1504.052734"/>
    <use xlink:href="#DejaVuSans-28" x="1535.839844"/>
    <use xlink:href="#DejaVuSans-53" x="1574.853516"/>
    <use xlink:href="#DejaVuSans-77" x="1638.330078"/>
    <use xlink:href="#DejaVuSans-65" x="1720.117188"/>
    <use xlink:href="#DejaVuSans-65" x="1781.640625"/>
    <use xlink:href="#DejaVuSans-70" x="1843.164062"/>
    <use xlink:href="#DejaVuSans-20" x="1906.640625"/>
    <use xlink:href="#DejaVuSans-3d" x="1938.427734"/>
    <use xlink:href="#DejaVuSans-20" x="2022.216797"/>
    <use xlink:href="#DejaVuSans-38" x="2054.003906"/>
    <use xlink:href="#DejaVuSans-38" x="2117.626953"/>
    <use xlink:href="#DejaVuSans-45" x="2181.25"/>
    <use xlink:href="#DejaVuSans-2d" x="2244.433594"/>
    <use xlink:href="#DejaVuSans-39" x="2280.517578"/>
    <use xlink:href="#DejaVuSans-29" x="2344.140625"/>
   </g>
  </g>
 </g>
 <defs>
  <clipPath id="p36b7cfd4df">
   <rect x="100.8" y="38.88" width="887.04" height="92.731034"/>
  </clipPath>
  <clipPath id="pc85e2f59bb">
   <rect x="100.8" y="150.157241" width="887.04" height="92.731034"/>
  </clipPath>
  <clipPath id="pf381079387">
   <rect x="100.8" y="261.434483" width="887.04" height="92.731034"/>
  </clipPath>
  <clipPath id="p302dfe5a94">
   <rect x="100.8" y="372.711724" width="887.04" height="92.731034"/>
  </clipPath>
  <clipPath id="pfa2f4d761d">
   <rect x="100.8" y="483.988966" width="887.04" height="92.731034"/>
  </clipPath>
  <clipPath id="p40b47295c7">
   <rect x="201.6" y="609.12" width="655.2" height="25.92"/>
  </clipPath>
  <clipPath id="pf5b7d6ee44">
   <path d="M 201.6 628.56 
L 856.8 628.56 
L 856.8 615.6 
L 201.6 615.6 
z
"/>
  </clipPath>
 </defs>
</svg>
