<?xml version="1.0" encoding="utf-8" standalone="no"?>
<!DOCTYPE svg PUBLIC "-//W3C//DTD SVG 1.1//EN"
  "http://www.w3.org/Graphics/SVG/1.1/DTD/svg11.dtd">
<svg xmlns:xlink="http://www.w3.org/1999/xlink" width="1008pt" height="648pt" viewBox="0 0 1008 648" xmlns="http://www.w3.org/2000/svg" version="1.1">
 <metadata>
  <rdf:RDF xmlns:dc="http://purl.org/dc/elements/1.1/" xmlns:cc="http://creativecommons.org/ns#" xmlns:rdf="http://www.w3.org/1999/02/22-rdf-syntax-ns#">
   <cc:Work>
    <dc:type rdf:resource="http://purl.org/dc/dcmitype/StillImage"/>
    <dc:date>2024-06-03T10:45:51.918330</dc:date>
    <dc:format>image/svg+xml</dc:format>
    <dc:creator>
     <cc:Agent>
      <dc:title>Matplotlib v3.9.0, https://matplotlib.org/</dc:title>
     </cc:Agent>
    </dc:creator>
   </cc:Work>
  </rdf:RDF>
 </metadata>
 <defs>
  <style type="text/css">*{stroke-linejoin: round; stroke-linecap: butt}</style>
 </defs>
 <g id="figure_1">
  <g id="patch_1">
   <path d="M 0 648 
L 1008 648 
L 1008 0 
L 0 0 
z
" style="fill: #ffffff"/>
  </g>
  <g id="axes_1">
   <g id="patch_2">
    <path d="M 100.8 131.611034 
L 987.84 131.611034 
L 987.84 38.88 
L 100.8 38.88 
z
" style="fill: #eeeeee"/>
   </g>
   <g id="matplotlib.axis_1">
    <g id="xtick_1">
     <g id="line2d_1">
      <path d="M 141.12 131.611034 
L 141.12 38.88 
" clip-path="url(#p2d89f27a7b)" style="fill: none; stroke-dasharray: 1.85,0.8; stroke-dashoffset: 0; stroke: #b2b2b2; stroke-width: 0.5"/>
     </g>
     <g id="line2d_2">
      <defs>
       <path id="m3d6240f2a9" d="M 0 0 
L 0 -3.5 
" style="stroke: #000000; stroke-width: 0.8"/>
      </defs>
      <g>
       <use xlink:href="#m3d6240f2a9" x="141.12" y="131.611034" style="stroke: #000000; stroke-width: 0.8"/>
      </g>
     </g>
    </g>
    <g id="xtick_2">
     <g id="line2d_3">
      <path d="M 302.4 131.611034 
L 302.4 38.88 
" clip-path="url(#p2d89f27a7b)" style="fill: none; stroke-dasharray: 1.85,0.8; stroke-dashoffset: 0; stroke: #b2b2b2; stroke-width: 0.5"/>
     </g>
     <g id="line2d_4">
      <g>
       <use xlink:href="#m3d6240f2a9" x="302.4" y="131.611034" style="stroke: #000000; stroke-width: 0.8"/>
      </g>
     </g>
    </g>
    <g id="xtick_3">
     <g id="line2d_5">
      <path d="M 463.68 131.611034 
L 463.68 38.88 
" clip-path="url(#p2d89f27a7b)" style="fill: none; stroke-dasharray: 1.85,0.8; stroke-dashoffset: 0; stroke: #b2b2b2; stroke-width: 0.5"/>
     </g>
     <g id="line2d_6">
      <g>
       <use xlink:href="#m3d6240f2a9" x="463.68" y="131.611034" style="stroke: #000000; stroke-width: 0.8"/>
      </g>
     </g>
    </g>
    <g id="xtick_4">
     <g id="line2d_7">
      <path d="M 624.96 131.611034 
L 624.96 38.88 
" clip-path="url(#p2d89f27a7b)" style="fill: none; stroke-dasharray: 1.85,0.8; stroke-dashoffset: 0; stroke: #b2b2b2; stroke-width: 0.5"/>
     </g>
     <g id="line2d_8">
      <g>
       <use xlink:href="#m3d6240f2a9" x="624.96" y="131.611034" style="stroke: #000000; stroke-width: 0.8"/>
      </g>
     </g>
    </g>
    <g id="xtick_5">
     <g id="line2d_9">
      <path d="M 786.24 131.611034 
L 786.24 38.88 
" clip-path="url(#p2d89f27a7b)" style="fill: none; stroke-dasharray: 1.85,0.8; stroke-dashoffset: 0; stroke: #b2b2b2; stroke-width: 0.5"/>
     </g>
     <g id="line2d_10">
      <g>
       <use xlink:href="#m3d6240f2a9" x="786.24" y="131.611034" style="stroke: #000000; stroke-width: 0.8"/>
      </g>
     </g>
    </g>
    <g id="xtick_6">
     <g id="line2d_11">
      <path d="M 947.52 131.611034 
L 947.52 38.88 
" clip-path="url(#p2d89f27a7b)" style="fill: none; stroke-dasharray: 1.85,0.8; stroke-dashoffset: 0; stroke: #b2b2b2; stroke-width: 0.5"/>
     </g>
     <g id="line2d_12">
      <g>
       <use xlink:href="#m3d6240f2a9" x="947.52" y="131.611034" style="stroke: #000000; stroke-width: 0.8"/>
      </g>
     </g>
    </g>
   </g>
   <g id="matplotlib.axis_2">
    <g id="ytick_1">
     <g id="line2d_13">
      <path d="M 100.8 98.340394 
L 987.84 98.340394 
" clip-path="url(#p2d89f27a7b)" style="fill: none; stroke-dasharray: 1.85,0.8; stroke-dashoffset: 0; stroke: #b2b2b2; stroke-width: 0.5"/>
     </g>
     <g id="line2d_14">
      <defs>
       <path id="m6f39356e85" d="M 0 0 
L 3.5 0 
" style="stroke: #000000; stroke-width: 0.8"/>
      </defs>
      <g>
       <use xlink:href="#m6f39356e85" x="100.8" y="98.340394" style="stroke: #000000; stroke-width: 0.8"/>
      </g>
     </g>
     <g id="text_1">
      <!-- −200 V -->
      <g transform="translate(44.819688 103.6593) scale(0.14 -0.14)">
       <defs>
        <path id="DejaVuSans-2212" d="M 678 2272 
L 4684 2272 
L 4684 1741 
L 678 1741 
L 678 2272 
z
" transform="scale(0.015625)"/>
        <path id="DejaVuSans-32" d="M 1228 531 
L 3431 531 
L 3431 0 
L 469 0 
L 469 531 
Q 828 903 1448 1529 
Q 2069 2156 2228 2338 
Q 2531 2678 2651 2914 
Q 2772 3150 2772 3378 
Q 2772 3750 2511 3984 
Q 2250 4219 1831 4219 
Q 1534 4219 1204 4116 
Q 875 4013 500 3803 
L 500 4441 
Q 881 4594 1212 4672 
Q 1544 4750 1819 4750 
Q 2544 4750 2975 4387 
Q 3406 4025 3406 3419 
Q 3406 3131 3298 2873 
Q 3191 2616 2906 2266 
Q 2828 2175 2409 1742 
Q 1991 1309 1228 531 
z
" transform="scale(0.015625)"/>
        <path id="DejaVuSans-30" d="M 2034 4250 
Q 1547 4250 1301 3770 
Q 1056 3291 1056 2328 
Q 1056 1369 1301 889 
Q 1547 409 2034 409 
Q 2525 409 2770 889 
Q 3016 1369 3016 2328 
Q 3016 3291 2770 3770 
Q 2525 4250 2034 4250 
z
M 2034 4750 
Q 2819 4750 3233 4129 
Q 3647 3509 3647 2328 
Q 3647 1150 3233 529 
Q 2819 -91 2034 -91 
Q 1250 -91 836 529 
Q 422 1150 422 2328 
Q 422 3509 836 4129 
Q 1250 4750 2034 4750 
z
" transform="scale(0.015625)"/>
        <path id="DejaVuSans-20" transform="scale(0.015625)"/>
        <path id="DejaVuSans-56" d="M 1831 0 
L 50 4666 
L 709 4666 
L 2188 738 
L 3669 4666 
L 4325 4666 
L 2547 0 
L 1831 0 
z
" transform="scale(0.015625)"/>
       </defs>
       <use xlink:href="#DejaVuSans-2212"/>
       <use xlink:href="#DejaVuSans-32" x="83.789062"/>
       <use xlink:href="#DejaVuSans-30" x="147.412109"/>
       <use xlink:href="#DejaVuSans-30" x="211.035156"/>
       <use xlink:href="#DejaVuSans-20" x="274.658203"/>
       <use xlink:href="#DejaVuSans-56" x="306.445312"/>
      </g>
     </g>
    </g>
    <g id="ytick_2">
     <g id="line2d_15">
      <path d="M 100.8 45.027377 
L 987.84 45.027377 
" clip-path="url(#p2d89f27a7b)" style="fill: none; stroke-dasharray: 1.85,0.8; stroke-dashoffset: 0; stroke: #b2b2b2; stroke-width: 0.5"/>
     </g>
     <g id="line2d_16">
      <g>
       <use xlink:href="#m6f39356e85" x="100.8" y="45.027377" style="stroke: #000000; stroke-width: 0.8"/>
      </g>
     </g>
     <g id="text_2">
      <!-- 0 V -->
      <g transform="translate(74.36625 50.346284) scale(0.14 -0.14)">
       <use xlink:href="#DejaVuSans-30"/>
       <use xlink:href="#DejaVuSans-20" x="63.623047"/>
       <use xlink:href="#DejaVuSans-56" x="95.410156"/>
      </g>
     </g>
    </g>
    <g id="text_3">
     <g id="patch_3">
      <path d="M 34.8768 131.080205 
L 34.8768 39.41083 
L 11.247425 39.41083 
L 11.247425 131.080205 
z
" style="fill: #ffff00; opacity: 0.2; stroke: #eeeeee; stroke-width: 0.5; stroke-linejoin: miter"/>
     </g>
     <!-- VPULSE BBI -->
     <g transform="translate(26.925238 126.040205) rotate(-90) scale(0.14 -0.14)">
      <defs>
       <path id="DejaVuSans-50" d="M 1259 4147 
L 1259 2394 
L 2053 2394 
Q 2494 2394 2734 2622 
Q 2975 2850 2975 3272 
Q 2975 3691 2734 3919 
Q 2494 4147 2053 4147 
L 1259 4147 
z
M 628 4666 
L 2053 4666 
Q 2838 4666 3239 4311 
Q 3641 3956 3641 3272 
Q 3641 2581 3239 2228 
Q 2838 1875 2053 1875 
L 1259 1875 
L 1259 0 
L 628 0 
L 628 4666 
z
" transform="scale(0.015625)"/>
       <path id="DejaVuSans-55" d="M 556 4666 
L 1191 4666 
L 1191 1831 
Q 1191 1081 1462 751 
Q 1734 422 2344 422 
Q 2950 422 3222 751 
Q 3494 1081 3494 1831 
L 3494 4666 
L 4128 4666 
L 4128 1753 
Q 4128 841 3676 375 
Q 3225 -91 2344 -91 
Q 1459 -91 1007 375 
Q 556 841 556 1753 
L 556 4666 
z
" transform="scale(0.015625)"/>
       <path id="DejaVuSans-4c" d="M 628 4666 
L 1259 4666 
L 1259 531 
L 3531 531 
L 3531 0 
L 628 0 
L 628 4666 
z
" transform="scale(0.015625)"/>
       <path id="DejaVuSans-53" d="M 3425 4513 
L 3425 3897 
Q 3066 4069 2747 4153 
Q 2428 4238 2131 4238 
Q 1616 4238 1336 4038 
Q 1056 3838 1056 3469 
Q 1056 3159 1242 3001 
Q 1428 2844 1947 2747 
L 2328 2669 
Q 3034 2534 3370 2195 
Q 3706 1856 3706 1288 
Q 3706 609 3251 259 
Q 2797 -91 1919 -91 
Q 1588 -91 1214 -16 
Q 841 59 441 206 
L 441 856 
Q 825 641 1194 531 
Q 1563 422 1919 422 
Q 2459 422 2753 634 
Q 3047 847 3047 1241 
Q 3047 1584 2836 1778 
Q 2625 1972 2144 2069 
L 1759 2144 
Q 1053 2284 737 2584 
Q 422 2884 422 3419 
Q 422 4038 858 4394 
Q 1294 4750 2059 4750 
Q 2388 4750 2728 4690 
Q 3069 4631 3425 4513 
z
" transform="scale(0.015625)"/>
       <path id="DejaVuSans-45" d="M 628 4666 
L 3578 4666 
L 3578 4134 
L 1259 4134 
L 1259 2753 
L 3481 2753 
L 3481 2222 
L 1259 2222 
L 1259 531 
L 3634 531 
L 3634 0 
L 628 0 
L 628 4666 
z
" transform="scale(0.015625)"/>
       <path id="DejaVuSans-42" d="M 1259 2228 
L 1259 519 
L 2272 519 
Q 2781 519 3026 730 
Q 3272 941 3272 1375 
Q 3272 1813 3026 2020 
Q 2781 2228 2272 2228 
L 1259 2228 
z
M 1259 4147 
L 1259 2741 
L 2194 2741 
Q 2656 2741 2882 2914 
Q 3109 3088 3109 3444 
Q 3109 3797 2882 3972 
Q 2656 4147 2194 4147 
L 1259 4147 
z
M 628 4666 
L 2241 4666 
Q 2963 4666 3353 4366 
Q 3744 4066 3744 3513 
Q 3744 3084 3544 2831 
Q 3344 2578 2956 2516 
Q 3422 2416 3680 2098 
Q 3938 1781 3938 1306 
Q 3938 681 3513 340 
Q 3088 0 2303 0 
L 628 0 
L 628 4666 
z
" transform="scale(0.015625)"/>
       <path id="DejaVuSans-49" d="M 628 4666 
L 1259 4666 
L 1259 0 
L 628 0 
L 628 4666 
z
" transform="scale(0.015625)"/>
      </defs>
      <use xlink:href="#DejaVuSans-56"/>
      <use xlink:href="#DejaVuSans-50" x="68.408203"/>
      <use xlink:href="#DejaVuSans-55" x="128.710938"/>
      <use xlink:href="#DejaVuSans-4c" x="201.904297"/>
      <use xlink:href="#DejaVuSans-53" x="257.617188"/>
      <use xlink:href="#DejaVuSans-45" x="321.09375"/>
      <use xlink:href="#DejaVuSans-20" x="384.277344"/>
      <use xlink:href="#DejaVuSans-42" x="416.064453"/>
      <use xlink:href="#DejaVuSans-42" x="484.667969"/>
      <use xlink:href="#DejaVuSans-49" x="553.271484"/>
     </g>
    </g>
   </g>
   <g id="line2d_17">
    <path d="M 141.12 45.027377 
L 524.998656 45.136282 
L 525.482496 46.425538 
L 533.707776 69.006772 
L 541.126656 89.863624 
L 542.739456 94.440546 
L 544.545792 99.673219 
L 548.02944 110.807642 
L 549.609984 115.853719 
L 550.867968 119.566971 
L 552.093696 120.153414 
L 552.932352 120.545265 
L 553.964544 121.017085 
L 554.545152 121.272988 
L 555.416064 121.656841 
L 555.996672 121.912744 
L 556.835328 122.269941 
L 558.415872 122.936354 
L 559.060992 123.202919 
L 560.157696 123.629423 
L 560.899584 123.922644 
L 561.996288 124.349149 
L 562.899456 124.677024 
L 563.576832 124.943589 
L 564.383232 125.25547 
L 565.737984 125.804594 
L 568.382976 126.790885 
L 568.99584 127.022796 
L 570.9312 127.395987 
L 589.413888 127.289361 
L 589.63968 126.801547 
L 607.928832 75.087922 
L 611.670528 63.292417 
L 615.379968 51.617666 
L 619.992576 49.3412 
L 625.347072 46.984578 
L 634.056192 43.484472 
L 634.927104 43.268927 
L 649.216512 43.108189 
L 656.022528 43.184799 
L 671.376384 43.746186 
L 699.1488 44.46146 
L 724.79232 44.774399 
L 760.402944 44.945888 
L 808.432128 44.953885 
L 947.52 44.953885 
L 947.52 44.953885 
" clip-path="url(#p2d89f27a7b)" style="fill: none; stroke: #ff0000; stroke-width: 2; stroke-linecap: square"/>
   </g>
   <g id="patch_4">
    <path d="M 100.8 131.611034 
L 100.8 38.88 
" style="fill: none; stroke: #bcbcbc; stroke-width: 0.8; stroke-linejoin: miter; stroke-linecap: square"/>
   </g>
   <g id="patch_5">
    <path d="M 987.84 131.611034 
L 987.84 38.88 
" style="fill: none; stroke: #bcbcbc; stroke-width: 0.8; stroke-linejoin: miter; stroke-linecap: square"/>
   </g>
   <g id="patch_6">
    <path d="M 100.8 131.611034 
L 987.84 131.611034 
" style="fill: none; stroke: #bcbcbc; stroke-width: 0.8; stroke-linejoin: miter; stroke-linecap: square"/>
   </g>
   <g id="patch_7">
    <path d="M 100.8 38.88 
L 987.84 38.88 
" style="fill: none; stroke: #bcbcbc; stroke-width: 0.8; stroke-linejoin: miter; stroke-linecap: square"/>
   </g>
  </g>
  <g id="axes_2">
   <g id="patch_8">
    <path d="M 100.8 242.888276 
L 987.84 242.888276 
L 987.84 150.157241 
L 100.8 150.157241 
z
" style="fill: #eeeeee"/>
   </g>
   <g id="matplotlib.axis_3">
    <g id="xtick_7">
     <g id="line2d_18">
      <path d="M 141.12 242.888276 
L 141.12 150.157241 
" clip-path="url(#p2cdc04d75c)" style="fill: none; stroke-dasharray: 1.85,0.8; stroke-dashoffset: 0; stroke: #b2b2b2; stroke-width: 0.5"/>
     </g>
     <g id="line2d_19">
      <g>
       <use xlink:href="#m3d6240f2a9" x="141.12" y="242.888276" style="stroke: #000000; stroke-width: 0.8"/>
      </g>
     </g>
    </g>
    <g id="xtick_8">
     <g id="line2d_20">
      <path d="M 302.4 242.888276 
L 302.4 150.157241 
" clip-path="url(#p2cdc04d75c)" style="fill: none; stroke-dasharray: 1.85,0.8; stroke-dashoffset: 0; stroke: #b2b2b2; stroke-width: 0.5"/>
     </g>
     <g id="line2d_21">
      <g>
       <use xlink:href="#m3d6240f2a9" x="302.4" y="242.888276" style="stroke: #000000; stroke-width: 0.8"/>
      </g>
     </g>
    </g>
    <g id="xtick_9">
     <g id="line2d_22">
      <path d="M 463.68 242.888276 
L 463.68 150.157241 
" clip-path="url(#p2cdc04d75c)" style="fill: none; stroke-dasharray: 1.85,0.8; stroke-dashoffset: 0; stroke: #b2b2b2; stroke-width: 0.5"/>
     </g>
     <g id="line2d_23">
      <g>
       <use xlink:href="#m3d6240f2a9" x="463.68" y="242.888276" style="stroke: #000000; stroke-width: 0.8"/>
      </g>
     </g>
    </g>
    <g id="xtick_10">
     <g id="line2d_24">
      <path d="M 624.96 242.888276 
L 624.96 150.157241 
" clip-path="url(#p2cdc04d75c)" style="fill: none; stroke-dasharray: 1.85,0.8; stroke-dashoffset: 0; stroke: #b2b2b2; stroke-width: 0.5"/>
     </g>
     <g id="line2d_25">
      <g>
       <use xlink:href="#m3d6240f2a9" x="624.96" y="242.888276" style="stroke: #000000; stroke-width: 0.8"/>
      </g>
     </g>
    </g>
    <g id="xtick_11">
     <g id="line2d_26">
      <path d="M 786.24 242.888276 
L 786.24 150.157241 
" clip-path="url(#p2cdc04d75c)" style="fill: none; stroke-dasharray: 1.85,0.8; stroke-dashoffset: 0; stroke: #b2b2b2; stroke-width: 0.5"/>
     </g>
     <g id="line2d_27">
      <g>
       <use xlink:href="#m3d6240f2a9" x="786.24" y="242.888276" style="stroke: #000000; stroke-width: 0.8"/>
      </g>
     </g>
    </g>
    <g id="xtick_12">
     <g id="line2d_28">
      <path d="M 947.52 242.888276 
L 947.52 150.157241 
" clip-path="url(#p2cdc04d75c)" style="fill: none; stroke-dasharray: 1.85,0.8; stroke-dashoffset: 0; stroke: #b2b2b2; stroke-width: 0.5"/>
     </g>
     <g id="line2d_29">
      <g>
       <use xlink:href="#m3d6240f2a9" x="947.52" y="242.888276" style="stroke: #000000; stroke-width: 0.8"/>
      </g>
     </g>
    </g>
   </g>
   <g id="matplotlib.axis_4">
    <g id="ytick_3">
     <g id="line2d_30">
      <path d="M 100.8 219.377042 
L 987.84 219.377042 
" clip-path="url(#p2cdc04d75c)" style="fill: none; stroke-dasharray: 1.85,0.8; stroke-dashoffset: 0; stroke: #b2b2b2; stroke-width: 0.5"/>
     </g>
     <g id="line2d_31">
      <g>
       <use xlink:href="#m6f39356e85" x="100.8" y="219.377042" style="stroke: #000000; stroke-width: 0.8"/>
      </g>
     </g>
     <g id="text_4">
      <!-- 0 V -->
      <g transform="translate(74.36625 224.695948) scale(0.14 -0.14)">
       <use xlink:href="#DejaVuSans-30"/>
       <use xlink:href="#DejaVuSans-20" x="63.623047"/>
       <use xlink:href="#DejaVuSans-56" x="95.410156"/>
      </g>
     </g>
    </g>
    <g id="ytick_4">
     <g id="line2d_32">
      <path d="M 100.8 185.786326 
L 987.84 185.786326 
" clip-path="url(#p2cdc04d75c)" style="fill: none; stroke-dasharray: 1.85,0.8; stroke-dashoffset: 0; stroke: #b2b2b2; stroke-width: 0.5"/>
     </g>
     <g id="line2d_33">
      <g>
       <use xlink:href="#m6f39356e85" x="100.8" y="185.786326" style="stroke: #000000; stroke-width: 0.8"/>
      </g>
     </g>
     <g id="text_5">
      <!-- 1 V -->
      <g transform="translate(74.36625 191.105232) scale(0.14 -0.14)">
       <defs>
        <path id="DejaVuSans-31" d="M 794 531 
L 1825 531 
L 1825 4091 
L 703 3866 
L 703 4441 
L 1819 4666 
L 2450 4666 
L 2450 531 
L 3481 531 
L 3481 0 
L 794 0 
L 794 531 
z
" transform="scale(0.015625)"/>
       </defs>
       <use xlink:href="#DejaVuSans-31"/>
       <use xlink:href="#DejaVuSans-20" x="63.623047"/>
       <use xlink:href="#DejaVuSans-56" x="95.410156"/>
      </g>
     </g>
    </g>
    <g id="ytick_5">
     <g id="line2d_34">
      <path d="M 100.8 152.19561 
L 987.84 152.19561 
" clip-path="url(#p2cdc04d75c)" style="fill: none; stroke-dasharray: 1.85,0.8; stroke-dashoffset: 0; stroke: #b2b2b2; stroke-width: 0.5"/>
     </g>
     <g id="line2d_35">
      <g>
       <use xlink:href="#m6f39356e85" x="100.8" y="152.19561" style="stroke: #000000; stroke-width: 0.8"/>
      </g>
     </g>
     <g id="text_6">
      <!-- 2 V -->
      <g transform="translate(74.36625 157.514516) scale(0.14 -0.14)">
       <use xlink:href="#DejaVuSans-32"/>
       <use xlink:href="#DejaVuSans-20" x="63.623047"/>
       <use xlink:href="#DejaVuSans-56" x="95.410156"/>
      </g>
     </g>
    </g>
    <g id="text_7">
     <g id="patch_9">
      <path d="M 34.8768 224.531509 
L 34.8768 168.514009 
L 11.247425 168.514009 
L 11.247425 224.531509 
z
" style="fill: #ffff00; opacity: 0.2; stroke: #eeeeee; stroke-width: 0.5; stroke-linejoin: miter"/>
     </g>
     <!-- DFF IN -->
     <g transform="translate(26.925238 219.491509) rotate(-90) scale(0.14 -0.14)">
      <defs>
       <path id="DejaVuSans-44" d="M 1259 4147 
L 1259 519 
L 2022 519 
Q 2988 519 3436 956 
Q 3884 1394 3884 2338 
Q 3884 3275 3436 3711 
Q 2988 4147 2022 4147 
L 1259 4147 
z
M 628 4666 
L 1925 4666 
Q 3281 4666 3915 4102 
Q 4550 3538 4550 2338 
Q 4550 1131 3912 565 
Q 3275 0 1925 0 
L 628 0 
L 628 4666 
z
" transform="scale(0.015625)"/>
       <path id="DejaVuSans-46" d="M 628 4666 
L 3309 4666 
L 3309 4134 
L 1259 4134 
L 1259 2759 
L 3109 2759 
L 3109 2228 
L 1259 2228 
L 1259 0 
L 628 0 
L 628 4666 
z
" transform="scale(0.015625)"/>
       <path id="DejaVuSans-4e" d="M 628 4666 
L 1478 4666 
L 3547 763 
L 3547 4666 
L 4159 4666 
L 4159 0 
L 3309 0 
L 1241 3903 
L 1241 0 
L 628 0 
L 628 4666 
z
" transform="scale(0.015625)"/>
      </defs>
      <use xlink:href="#DejaVuSans-44"/>
      <use xlink:href="#DejaVuSans-46" x="77.001953"/>
      <use xlink:href="#DejaVuSans-46" x="134.521484"/>
      <use xlink:href="#DejaVuSans-20" x="192.041016"/>
      <use xlink:href="#DejaVuSans-49" x="223.828125"/>
      <use xlink:href="#DejaVuSans-4e" x="253.320312"/>
     </g>
    </g>
   </g>
   <g id="line2d_36">
    <path d="M 141.12 219.327986 
L 221.953536 219.281923 
L 224.437248 200.565569 
L 225.404928 194.871943 
L 228.243456 182.353355 
L 229.598208 181.097062 
L 231.178752 180.233781 
L 236.565504 179.783665 
L 243.661824 179.672816 
L 245.1456 179.629148 
L 248.403456 179.518298 
L 250.113024 179.451117 
L 252.177408 179.340268 
L 254.241792 179.014438 
L 254.757888 178.483704 
L 255.499776 178.147797 
L 256.370688 178.167952 
L 257.531904 178.399728 
L 259.98336 178.799457 
L 262.370304 178.937179 
L 263.886336 178.987565 
L 264.144384 184.167254 
L 264.434688 187.691591 
L 265.176576 192.386566 
L 267.144192 209.523541 
L 268.402176 215.957843 
L 269.079552 217.269896 
L 270.46656 218.969116 
L 273.724416 219.378856 
L 282.594816 219.332423 
L 297.110016 219.321201 
L 305.883648 219.32719 
L 347.751936 219.283599 
L 350.235648 200.605206 
L 351.622656 192.065439 
L 352.687104 186.73392 
L 354.97728 179.918028 
L 358.493184 178.930461 
L 360.235008 179.001001 
L 363.073536 179.111851 
L 364.396032 179.138723 
L 375.169536 179.209264 
L 375.717888 180.190113 
L 376.169472 180.932468 
L 377.008128 181.82934 
L 377.524224 181.778954 
L 378.427392 181.490073 
L 380.45952 180.351348 
L 381.58848 179.995287 
L 387.201024 179.521657 
L 389.65248 179.410808 
L 391.813632 179.2966 
L 394.555392 179.18575 
L 395.9424 179.15216 
L 415.392768 179.044669 
L 415.973376 178.4266 
L 416.844288 178.094052 
L 417.908736 178.198183 
L 419.16672 178.476986 
L 420.908544 178.728917 
L 424.00512 178.940538 
L 455.712768 179.04131 
L 456.809472 179.921387 
L 457.261056 179.991928 
L 458.712576 180.032236 
L 462.744576 179.501503 
L 464.16384 179.316754 
L 467.518464 179.07826 
L 496.065024 178.997642 
L 496.58112 178.46355 
L 497.258496 178.161233 
L 498.387456 178.154515 
L 502.06464 178.809534 
L 504.290304 178.930461 
L 524.934144 179.034592 
L 525.095424 179.195828 
L 525.7728 180.532738 
L 526.837248 182.400382 
L 529.8048 186.532376 
L 534.191616 192.602218 
L 534.739968 194.101036 
L 535.997952 198.804744 
L 537.643008 205.449659 
L 538.739712 210.441912 
L 542.54592 223.487538 
L 543.02976 224.510711 
L 543.481344 225.611815 
L 543.868416 226.127432 
L 544.190976 226.49122 
L 544.384512 226.957123 
L 545.223168 228.868771 
L 549.190656 236.075323 
L 549.416448 236.399473 
L 550.12608 237.754859 
L 550.513152 238.250658 
L 550.964736 238.600673 
L 551.158272 238.42197 
L 552.254976 236.702797 
L 552.577536 236.284257 
L 552.771072 236.085736 
L 553.67424 235.032667 
L 554.15808 234.250675 
L 554.31936 234.12639 
L 554.351616 234.154606 
L 554.609664 233.973216 
L 555.867648 232.907718 
L 556.222464 232.429722 
L 556.512768 231.937283 
L 556.867584 231.719615 
L 556.964352 231.61985 
L 557.2224 231.466677 
L 557.577216 231.320893 
L 558.0288 230.975916 
L 558.931968 230.071318 
L 559.15776 229.686369 
L 559.286784 229.640013 
L 561.867264 227.566459 
L 562.189824 226.998104 
L 562.480128 226.852656 
L 562.641408 226.84493 
L 564.609024 225.510707 
L 565.221888 224.877858 
L 565.415424 224.724012 
L 566.834688 223.816391 
L 569.382912 221.812134 
L 570.44736 220.904479 
L 571.511808 219.60076 
L 572.673024 218.002611 
L 573.253632 217.193444 
L 574.060032 216.062713 
L 577.446912 211.800656 
L 578.962944 210.23197 
L 579.220992 209.872885 
L 579.704832 208.636411 
L 581.704704 203.03751 
L 582.317568 201.762406 
L 585.091584 197.817849 
L 585.510912 197.232027 
L 586.123776 196.572977 
L 586.865664 195.684502 
L 587.639808 194.70802 
L 589.4784 192.902183 
L 589.704192 192.323079 
L 590.510592 189.338544 
L 591.41376 186.388608 
L 592.284672 184.294898 
L 593.091072 182.860575 
L 593.929728 181.906598 
L 595.671552 180.321117 
L 597.70368 177.613705 
L 599.80032 174.536795 
L 600.60672 173.354402 
L 601.606656 171.903283 
L 607.509504 164.096801 
L 609.090048 162.121667 
L 612.412416 157.808619 
L 615.2832 154.389084 
L 615.44448 154.426034 
L 616.154112 154.839199 
L 616.831488 155.067616 
L 616.960512 155.101207 
L 617.21856 156.71692 
L 617.670144 159.43105 
L 618.089472 160.600007 
L 618.444288 160.979582 
L 618.734592 160.966146 
L 619.089408 160.704138 
L 619.734528 159.881166 
L 620.928 158.450201 
L 621.57312 158.053831 
L 622.444032 157.801901 
L 623.476224 157.801901 
L 625.089024 158.077344 
L 627.250176 158.638309 
L 632.636928 159.871089 
L 635.539968 160.888887 
L 637.21728 161.63796 
L 648.732672 166.317147 
L 654.861312 168.342667 
L 655.377408 168.490466 
L 657.312768 169.041354 
L 657.732096 168.426644 
L 658.151424 168.211663 
L 658.603008 168.228459 
L 659.570688 168.742397 
L 661.022208 169.666141 
L 662.022144 170.159925 
L 662.957568 170.532782 
L 663.441408 170.694017 
L 664.667136 171.090388 
L 665.376768 171.271778 
L 666.215424 171.506913 
L 667.118592 171.708457 
L 668.634624 172.074596 
L 669.215232 172.178727 
L 670.44096 172.447453 
L 671.505408 172.669151 
L 675.730944 173.441738 
L 676.40832 173.552587 
L 678.924288 173.965753 
L 681.149952 174.305019 
L 681.859584 174.415869 
L 685.246464 174.872702 
L 685.633536 174.923088 
L 686.504448 175.033938 
L 687.762432 175.185096 
L 688.601088 175.292586 
L 689.117184 175.339613 
L 697.69728 176.323821 
L 698.116608 176.921736 
L 698.50368 177.203898 
L 698.890752 177.351697 
L 699.729408 177.422238 
L 700.535808 177.23413 
L 701.24544 176.988917 
L 704.63232 176.747064 
L 706.696704 176.857914 
L 707.470848 176.911659 
L 709.30944 177.022508 
L 711.825408 177.173666 
L 712.567296 177.207257 
L 714.373632 177.318107 
L 716.373504 177.418879 
L 717.115392 177.445751 
L 717.954048 177.509574 
L 719.760384 177.586832 
L 722.340864 177.690963 
L 722.792448 177.721195 
L 725.501952 177.832044 
L 727.243776 177.902585 
L 730.308096 178.013434 
L 731.791872 178.057102 
L 732.53376 178.090693 
L 734.017536 178.134361 
L 737.597952 178.24521 
L 737.985024 178.184747 
L 738.855936 177.428956 
L 739.372032 177.324825 
L 739.984896 177.361774 
L 741.855744 177.835404 
L 743.597568 178.127643 
L 744.210432 178.20826 
L 745.75872 178.31911 
L 747.726336 178.413164 
L 752.20992 178.524013 
L 753.596928 178.557604 
L 762.37056 178.668453 
L 763.628544 178.688608 
L 778.33728 178.779303 
L 778.917888 179.380576 
L 779.30496 179.561966 
L 780.046848 179.682893 
L 781.917696 179.572044 
L 783.530496 179.293241 
L 784.917504 179.11521 
L 788.691456 178.833048 
L 818.560512 178.742353 
L 819.399168 177.949612 
L 819.883008 177.818608 
L 821.044224 177.801813 
L 822.36672 178.10077 
L 824.721408 178.480345 
L 827.076096 178.614708 
L 858.912768 178.705403 
L 859.848192 179.531735 
L 860.783616 179.709765 
L 862.073856 179.739997 
L 864.847872 179.273086 
L 870.782976 178.765866 
L 899.265024 178.658376 
L 899.78112 178.097411 
L 900.329472 177.825326 
L 902.264832 177.936176 
L 905.490432 178.497141 
L 907.651584 178.611349 
L 939.552768 178.705403 
L 940.617216 179.561966 
L 941.55264 179.746715 
L 943.488 179.635866 
L 946.455552 179.128646 
L 947.52 178.964052 
L 947.52 178.964052 
" clip-path="url(#p2cdc04d75c)" style="fill: none; stroke: #008000; stroke-width: 2; stroke-linecap: square"/>
   </g>
   <g id="patch_10">
    <path d="M 100.8 242.888276 
L 100.8 150.157241 
" style="fill: none; stroke: #bcbcbc; stroke-width: 0.8; stroke-linejoin: miter; stroke-linecap: square"/>
   </g>
   <g id="patch_11">
    <path d="M 987.84 242.888276 
L 987.84 150.157241 
" style="fill: none; stroke: #bcbcbc; stroke-width: 0.8; stroke-linejoin: miter; stroke-linecap: square"/>
   </g>
   <g id="patch_12">
    <path d="M 100.8 242.888276 
L 987.84 242.888276 
" style="fill: none; stroke: #bcbcbc; stroke-width: 0.8; stroke-linejoin: miter; stroke-linecap: square"/>
   </g>
   <g id="patch_13">
    <path d="M 100.8 150.157241 
L 987.84 150.157241 
" style="fill: none; stroke: #bcbcbc; stroke-width: 0.8; stroke-linejoin: miter; stroke-linecap: square"/>
   </g>
  </g>
  <g id="axes_3">
   <g id="patch_14">
    <path d="M 100.8 354.165517 
L 987.84 354.165517 
L 987.84 261.434483 
L 100.8 261.434483 
z
" style="fill: #eeeeee"/>
   </g>
   <g id="matplotlib.axis_5">
    <g id="xtick_13">
     <g id="line2d_37">
      <path d="M 141.12 354.165517 
L 141.12 261.434483 
" clip-path="url(#pd4587254df)" style="fill: none; stroke-dasharray: 1.85,0.8; stroke-dashoffset: 0; stroke: #b2b2b2; stroke-width: 0.5"/>
     </g>
     <g id="line2d_38">
      <g>
       <use xlink:href="#m3d6240f2a9" x="141.12" y="354.165517" style="stroke: #000000; stroke-width: 0.8"/>
      </g>
     </g>
    </g>
    <g id="xtick_14">
     <g id="line2d_39">
      <path d="M 302.4 354.165517 
L 302.4 261.434483 
" clip-path="url(#pd4587254df)" style="fill: none; stroke-dasharray: 1.85,0.8; stroke-dashoffset: 0; stroke: #b2b2b2; stroke-width: 0.5"/>
     </g>
     <g id="line2d_40">
      <g>
       <use xlink:href="#m3d6240f2a9" x="302.4" y="354.165517" style="stroke: #000000; stroke-width: 0.8"/>
      </g>
     </g>
    </g>
    <g id="xtick_15">
     <g id="line2d_41">
      <path d="M 463.68 354.165517 
L 463.68 261.434483 
" clip-path="url(#pd4587254df)" style="fill: none; stroke-dasharray: 1.85,0.8; stroke-dashoffset: 0; stroke: #b2b2b2; stroke-width: 0.5"/>
     </g>
     <g id="line2d_42">
      <g>
       <use xlink:href="#m3d6240f2a9" x="463.68" y="354.165517" style="stroke: #000000; stroke-width: 0.8"/>
      </g>
     </g>
    </g>
    <g id="xtick_16">
     <g id="line2d_43">
      <path d="M 624.96 354.165517 
L 624.96 261.434483 
" clip-path="url(#pd4587254df)" style="fill: none; stroke-dasharray: 1.85,0.8; stroke-dashoffset: 0; stroke: #b2b2b2; stroke-width: 0.5"/>
     </g>
     <g id="line2d_44">
      <g>
       <use xlink:href="#m3d6240f2a9" x="624.96" y="354.165517" style="stroke: #000000; stroke-width: 0.8"/>
      </g>
     </g>
    </g>
    <g id="xtick_17">
     <g id="line2d_45">
      <path d="M 786.24 354.165517 
L 786.24 261.434483 
" clip-path="url(#pd4587254df)" style="fill: none; stroke-dasharray: 1.85,0.8; stroke-dashoffset: 0; stroke: #b2b2b2; stroke-width: 0.5"/>
     </g>
     <g id="line2d_46">
      <g>
       <use xlink:href="#m3d6240f2a9" x="786.24" y="354.165517" style="stroke: #000000; stroke-width: 0.8"/>
      </g>
     </g>
    </g>
    <g id="xtick_18">
     <g id="line2d_47">
      <path d="M 947.52 354.165517 
L 947.52 261.434483 
" clip-path="url(#pd4587254df)" style="fill: none; stroke-dasharray: 1.85,0.8; stroke-dashoffset: 0; stroke: #b2b2b2; stroke-width: 0.5"/>
     </g>
     <g id="line2d_48">
      <g>
       <use xlink:href="#m3d6240f2a9" x="947.52" y="354.165517" style="stroke: #000000; stroke-width: 0.8"/>
      </g>
     </g>
    </g>
   </g>
   <g id="matplotlib.axis_6">
    <g id="ytick_6">
     <g id="line2d_49">
      <path d="M 100.8 344.749769 
L 987.84 344.749769 
" clip-path="url(#pd4587254df)" style="fill: none; stroke-dasharray: 1.85,0.8; stroke-dashoffset: 0; stroke: #b2b2b2; stroke-width: 0.5"/>
     </g>
     <g id="line2d_50">
      <g>
       <use xlink:href="#m6f39356e85" x="100.8" y="344.749769" style="stroke: #000000; stroke-width: 0.8"/>
      </g>
     </g>
     <g id="text_8">
      <!-- 0 V -->
      <g transform="translate(74.36625 350.068675) scale(0.14 -0.14)">
       <use xlink:href="#DejaVuSans-30"/>
       <use xlink:href="#DejaVuSans-20" x="63.623047"/>
       <use xlink:href="#DejaVuSans-56" x="95.410156"/>
      </g>
     </g>
    </g>
    <g id="ytick_7">
     <g id="line2d_51">
      <path d="M 100.8 303.705643 
L 987.84 303.705643 
" clip-path="url(#pd4587254df)" style="fill: none; stroke-dasharray: 1.85,0.8; stroke-dashoffset: 0; stroke: #b2b2b2; stroke-width: 0.5"/>
     </g>
     <g id="line2d_52">
      <g>
       <use xlink:href="#m6f39356e85" x="100.8" y="303.705643" style="stroke: #000000; stroke-width: 0.8"/>
      </g>
     </g>
     <g id="text_9">
      <!-- 1 V -->
      <g transform="translate(74.36625 309.024549) scale(0.14 -0.14)">
       <use xlink:href="#DejaVuSans-31"/>
       <use xlink:href="#DejaVuSans-20" x="63.623047"/>
       <use xlink:href="#DejaVuSans-56" x="95.410156"/>
      </g>
     </g>
    </g>
    <g id="ytick_8">
     <g id="line2d_53">
      <path d="M 100.8 262.661517 
L 987.84 262.661517 
" clip-path="url(#pd4587254df)" style="fill: none; stroke-dasharray: 1.85,0.8; stroke-dashoffset: 0; stroke: #b2b2b2; stroke-width: 0.5"/>
     </g>
     <g id="line2d_54">
      <g>
       <use xlink:href="#m6f39356e85" x="100.8" y="262.661517" style="stroke: #000000; stroke-width: 0.8"/>
      </g>
     </g>
     <g id="text_10">
      <!-- 2 V -->
      <g transform="translate(74.36625 267.980424) scale(0.14 -0.14)">
       <use xlink:href="#DejaVuSans-32"/>
       <use xlink:href="#DejaVuSans-20" x="63.623047"/>
       <use xlink:href="#DejaVuSans-56" x="95.410156"/>
      </g>
     </g>
    </g>
    <g id="text_11">
     <g id="patch_15">
      <path d="M 34.8768 342.395313 
L 34.8768 273.204688 
L 11.247425 273.204688 
L 11.247425 342.395313 
z
" style="fill: #ffff00; opacity: 0.2; stroke: #eeeeee; stroke-width: 0.5; stroke-linejoin: miter"/>
     </g>
     <!-- CLK BUF -->
     <g transform="translate(26.925238 337.355313) rotate(-90) scale(0.14 -0.14)">
      <defs>
       <path id="DejaVuSans-43" d="M 4122 4306 
L 4122 3641 
Q 3803 3938 3442 4084 
Q 3081 4231 2675 4231 
Q 1875 4231 1450 3742 
Q 1025 3253 1025 2328 
Q 1025 1406 1450 917 
Q 1875 428 2675 428 
Q 3081 428 3442 575 
Q 3803 722 4122 1019 
L 4122 359 
Q 3791 134 3420 21 
Q 3050 -91 2638 -91 
Q 1578 -91 968 557 
Q 359 1206 359 2328 
Q 359 3453 968 4101 
Q 1578 4750 2638 4750 
Q 3056 4750 3426 4639 
Q 3797 4528 4122 4306 
z
" transform="scale(0.015625)"/>
       <path id="DejaVuSans-4b" d="M 628 4666 
L 1259 4666 
L 1259 2694 
L 3353 4666 
L 4166 4666 
L 1850 2491 
L 4331 0 
L 3500 0 
L 1259 2247 
L 1259 0 
L 628 0 
L 628 4666 
z
" transform="scale(0.015625)"/>
      </defs>
      <use xlink:href="#DejaVuSans-43"/>
      <use xlink:href="#DejaVuSans-4c" x="69.824219"/>
      <use xlink:href="#DejaVuSans-4b" x="125.537109"/>
      <use xlink:href="#DejaVuSans-20" x="191.113281"/>
      <use xlink:href="#DejaVuSans-42" x="222.900391"/>
      <use xlink:href="#DejaVuSans-55" x="291.503906"/>
      <use xlink:href="#DejaVuSans-46" x="364.697266"/>
     </g>
    </g>
   </g>
   <g id="line2d_55">
    <path d="M 141.12 344.748684 
L 173.376 344.748684 
L 173.601792 295.496818 
L 213.696 295.496818 
L 213.760512 334.783845 
L 213.825024 344.731018 
L 213.889536 344.671953 
L 213.954048 344.835921 
L 214.01856 344.754217 
L 215.437824 344.744377 
L 223.824384 344.748597 
L 254.016 344.748655 
L 254.17728 295.344955 
L 254.241792 295.607637 
L 254.403072 295.488609 
L 254.854656 295.496818 
L 294.336 295.496818 
L 294.400512 334.749368 
L 294.465024 345.056044 
L 294.529536 344.342439 
L 294.626304 344.81427 
L 294.65856 344.785063 
L 294.884352 344.72704 
L 295.206912 344.764705 
L 295.497216 344.748364 
L 321.91488 344.748682 
L 334.656 344.748686 
L 334.81728 295.422939 
L 334.881792 295.513236 
L 335.204352 295.500922 
L 336.10752 295.496818 
L 374.976 295.496818 
L 375.040512 334.787539 
L 375.105024 344.750435 
L 375.169536 344.666749 
L 375.266304 344.817652 
L 375.29856 344.754353 
L 376.782336 344.744066 
L 385.4592 344.748597 
L 415.296 344.748685 
L 415.45728 295.344955 
L 415.521792 295.607637 
L 415.683072 295.484505 
L 416.683008 295.500922 
L 455.616 295.496818 
L 455.680512 334.75183 
L 455.745024 345.061101 
L 455.809536 344.152864 
L 455.906304 345.351968 
L 455.93856 344.816527 
L 456.132096 344.725119 
L 456.551424 344.749006 
L 491.613696 344.748683 
L 495.936 344.748684 
L 496.09728 295.41473 
L 496.161792 295.513236 
L 497.161728 295.496818 
L 525.063168 295.603533 
L 526.708224 297.873273 
L 528.385536 300.635543 
L 535.28832 311.840179 
L 536.256 313.278365 
L 536.288256 311.392387 
L 536.514048 346.024394 
L 536.546304 346.016555 
L 537.159168 346.003175 
L 540.384768 345.911933 
L 540.513792 345.90512 
L 543.578112 346.0246 
L 544.578048 346.387142 
L 544.836096 346.537938 
L 545.577984 346.941566 
L 546.126336 347.26208 
L 547.352064 347.969599 
L 547.997184 348.359107 
L 550.803456 349.95047 
L 551.513088 349.58723 
L 551.609856 349.549059 
L 552.803328 349.074178 
L 552.964608 349.016306 
L 553.125888 348.989627 
L 553.771008 348.759862 
L 559.15776 347.081855 
L 559.673856 346.938406 
L 560.189952 346.788472 
L 562.899456 346.07258 
L 568.35072 344.965238 
L 573.543936 344.231628 
L 573.963264 344.226785 
L 576.576 344.214348 
L 576.608256 343.06815 
L 576.769536 317.684862 
L 577.446912 317.281398 
L 582.414336 314.439093 
L 586.607616 312.322857 
L 589.607424 310.777136 
L 591.058944 308.145386 
L 593.542656 302.970953 
L 596.606976 296.605009 
L 597.284352 295.279284 
L 599.542272 290.928607 
L 605.090304 281.270924 
L 606.09024 279.686621 
L 607.86432 276.965395 
L 615.315456 265.768558 
L 616.766976 265.686469 
L 616.896 265.723409 
L 617.05728 344.821986 
L 617.154048 344.738759 
L 617.186304 344.755539 
L 618.412032 344.986947 
L 620.44416 345.102461 
L 623.476224 345.123706 
L 636.604416 345.207534 
L 639.442944 345.216359 
L 652.022784 345.089467 
L 657.216 345.067648 
L 657.345024 283.216416 
L 657.441792 283.442158 
L 657.506304 283.384697 
L 657.570816 283.421636 
L 658.312704 283.684319 
L 658.570752 283.758198 
L 659.441664 284.086551 
L 660.086784 284.279458 
L 662.570496 285.116759 
L 662.893056 285.223473 
L 664.31232 285.650332 
L 664.63488 285.757047 
L 665.60256 286.019729 
L 665.892864 286.126444 
L 666.860544 286.389127 
L 667.247616 286.495841 
L 668.215296 286.758524 
L 668.602368 286.865238 
L 669.47328 287.086877 
L 669.860352 287.193591 
L 670.634496 287.374186 
L 671.021568 287.4809 
L 671.795712 287.661494 
L 672.182784 287.768209 
L 672.827904 287.907759 
L 673.247232 288.014474 
L 673.892352 288.154024 
L 674.31168 288.260739 
L 674.9568 288.400289 
L 675.472896 288.507003 
L 676.118016 288.646553 
L 676.634112 288.753268 
L 677.279232 288.892818 
L 677.795328 288.999533 
L 678.440448 289.139083 
L 679.053312 289.245798 
L 679.698432 289.385348 
L 680.311296 289.492062 
L 680.859648 289.590568 
L 681.375744 289.697283 
L 681.924096 289.795789 
L 682.53696 289.898399 
L 682.891776 289.959965 
L 683.50464 290.06668 
L 684.052992 290.165186 
L 684.665856 290.267796 
L 685.020672 290.329363 
L 685.730304 290.431973 
L 686.08512 290.493539 
L 686.794752 290.596149 
L 687.149568 290.657716 
L 687.8592 290.760326 
L 688.214016 290.821892 
L 688.923648 290.924502 
L 689.278464 290.986069 
L 690.084864 291.088679 
L 690.43968 291.150245 
L 691.342848 291.252855 
L 691.697664 291.314422 
L 692.600832 291.417032 
L 692.955648 291.478598 
L 693.858816 291.581208 
L 694.116864 291.601731 
L 694.923264 291.704341 
L 695.27808 291.761803 
L 697.536 292.012172 
L 697.568256 297.643426 
L 697.632768 345.378893 
L 697.69728 344.809529 
L 697.729536 344.806069 
L 697.761792 344.917274 
L 697.826304 344.845985 
L 698.3424 344.842246 
L 737.856 344.775425 
L 737.985024 294.376313 
L 738.081792 294.556908 
L 738.98496 294.552803 
L 742.242816 294.659518 
L 742.500864 294.675936 
L 747.177984 294.78265 
L 747.436032 294.799068 
L 753.080832 294.905783 
L 753.33888 294.9222 
L 760.338432 295.028915 
L 760.59648 295.045333 
L 778.176 295.086377 
L 778.305024 345.063248 
L 778.466304 344.824551 
L 778.724352 344.733005 
L 779.079168 344.777683 
L 779.401728 344.760223 
L 818.496 344.760438 
L 818.65728 294.872947 
L 818.721792 295.336746 
L 818.81856 294.913991 
L 818.883072 295.069959 
L 819.366912 295.086377 
L 858.816 295.086377 
L 858.945024 345.063408 
L 859.106304 344.82451 
L 859.364352 344.733014 
L 859.719168 344.777693 
L 860.041728 344.760223 
L 899.136 344.760436 
L 899.29728 294.872947 
L 899.361792 295.336746 
L 899.45856 294.913991 
L 899.523072 295.069959 
L 900.006912 295.086377 
L 939.456 295.086377 
L 939.488256 302.486633 
L 939.61728 344.711656 
L 939.649536 344.83102 
L 939.714048 344.716804 
L 939.810816 344.733745 
L 940.004352 344.784996 
L 940.230144 344.759135 
L 945.9072 344.76044 
L 947.52 344.760428 
L 947.52 344.760428 
" clip-path="url(#pd4587254df)" style="fill: none; stroke: #0000ff; stroke-width: 2; stroke-linecap: square"/>
   </g>
   <g id="patch_16">
    <path d="M 100.8 354.165517 
L 100.8 261.434483 
" style="fill: none; stroke: #bcbcbc; stroke-width: 0.8; stroke-linejoin: miter; stroke-linecap: square"/>
   </g>
   <g id="patch_17">
    <path d="M 987.84 354.165517 
L 987.84 261.434483 
" style="fill: none; stroke: #bcbcbc; stroke-width: 0.8; stroke-linejoin: miter; stroke-linecap: square"/>
   </g>
   <g id="patch_18">
    <path d="M 100.8 354.165517 
L 987.84 354.165517 
" style="fill: none; stroke: #bcbcbc; stroke-width: 0.8; stroke-linejoin: miter; stroke-linecap: square"/>
   </g>
   <g id="patch_19">
    <path d="M 100.8 261.434483 
L 987.84 261.434483 
" style="fill: none; stroke: #bcbcbc; stroke-width: 0.8; stroke-linejoin: miter; stroke-linecap: square"/>
   </g>
  </g>
  <g id="axes_4">
   <g id="patch_20">
    <path d="M 100.8 465.442759 
L 987.84 465.442759 
L 987.84 372.711724 
L 100.8 372.711724 
z
" style="fill: #eeeeee"/>
   </g>
   <g id="matplotlib.axis_7">
    <g id="xtick_19">
     <g id="line2d_56">
      <path d="M 141.12 465.442759 
L 141.12 372.711724 
" clip-path="url(#p6d01ba8cbd)" style="fill: none; stroke-dasharray: 1.85,0.8; stroke-dashoffset: 0; stroke: #b2b2b2; stroke-width: 0.5"/>
     </g>
     <g id="line2d_57">
      <g>
       <use xlink:href="#m3d6240f2a9" x="141.12" y="465.442759" style="stroke: #000000; stroke-width: 0.8"/>
      </g>
     </g>
    </g>
    <g id="xtick_20">
     <g id="line2d_58">
      <path d="M 302.4 465.442759 
L 302.4 372.711724 
" clip-path="url(#p6d01ba8cbd)" style="fill: none; stroke-dasharray: 1.85,0.8; stroke-dashoffset: 0; stroke: #b2b2b2; stroke-width: 0.5"/>
     </g>
     <g id="line2d_59">
      <g>
       <use xlink:href="#m3d6240f2a9" x="302.4" y="465.442759" style="stroke: #000000; stroke-width: 0.8"/>
      </g>
     </g>
    </g>
    <g id="xtick_21">
     <g id="line2d_60">
      <path d="M 463.68 465.442759 
L 463.68 372.711724 
" clip-path="url(#p6d01ba8cbd)" style="fill: none; stroke-dasharray: 1.85,0.8; stroke-dashoffset: 0; stroke: #b2b2b2; stroke-width: 0.5"/>
     </g>
     <g id="line2d_61">
      <g>
       <use xlink:href="#m3d6240f2a9" x="463.68" y="465.442759" style="stroke: #000000; stroke-width: 0.8"/>
      </g>
     </g>
    </g>
    <g id="xtick_22">
     <g id="line2d_62">
      <path d="M 624.96 465.442759 
L 624.96 372.711724 
" clip-path="url(#p6d01ba8cbd)" style="fill: none; stroke-dasharray: 1.85,0.8; stroke-dashoffset: 0; stroke: #b2b2b2; stroke-width: 0.5"/>
     </g>
     <g id="line2d_63">
      <g>
       <use xlink:href="#m3d6240f2a9" x="624.96" y="465.442759" style="stroke: #000000; stroke-width: 0.8"/>
      </g>
     </g>
    </g>
    <g id="xtick_23">
     <g id="line2d_64">
      <path d="M 786.24 465.442759 
L 786.24 372.711724 
" clip-path="url(#p6d01ba8cbd)" style="fill: none; stroke-dasharray: 1.85,0.8; stroke-dashoffset: 0; stroke: #b2b2b2; stroke-width: 0.5"/>
     </g>
     <g id="line2d_65">
      <g>
       <use xlink:href="#m3d6240f2a9" x="786.24" y="465.442759" style="stroke: #000000; stroke-width: 0.8"/>
      </g>
     </g>
    </g>
    <g id="xtick_24">
     <g id="line2d_66">
      <path d="M 947.52 465.442759 
L 947.52 372.711724 
" clip-path="url(#p6d01ba8cbd)" style="fill: none; stroke-dasharray: 1.85,0.8; stroke-dashoffset: 0; stroke: #b2b2b2; stroke-width: 0.5"/>
     </g>
     <g id="line2d_67">
      <g>
       <use xlink:href="#m3d6240f2a9" x="947.52" y="465.442759" style="stroke: #000000; stroke-width: 0.8"/>
      </g>
     </g>
    </g>
   </g>
   <g id="matplotlib.axis_8">
    <g id="ytick_9">
     <g id="line2d_68">
      <path d="M 100.8 458.883454 
L 987.84 458.883454 
" clip-path="url(#p6d01ba8cbd)" style="fill: none; stroke-dasharray: 1.85,0.8; stroke-dashoffset: 0; stroke: #b2b2b2; stroke-width: 0.5"/>
     </g>
     <g id="line2d_69">
      <g>
       <use xlink:href="#m6f39356e85" x="100.8" y="458.883454" style="stroke: #000000; stroke-width: 0.8"/>
      </g>
     </g>
     <g id="text_12">
      <!-- −1 V -->
      <g transform="translate(62.634688 464.202361) scale(0.14 -0.14)">
       <use xlink:href="#DejaVuSans-2212"/>
       <use xlink:href="#DejaVuSans-31" x="83.789062"/>
       <use xlink:href="#DejaVuSans-20" x="147.412109"/>
       <use xlink:href="#DejaVuSans-56" x="179.199219"/>
      </g>
     </g>
    </g>
    <g id="ytick_10">
     <g id="line2d_70">
      <path d="M 100.8 425.912185 
L 987.84 425.912185 
" clip-path="url(#p6d01ba8cbd)" style="fill: none; stroke-dasharray: 1.85,0.8; stroke-dashoffset: 0; stroke: #b2b2b2; stroke-width: 0.5"/>
     </g>
     <g id="line2d_71">
      <g>
       <use xlink:href="#m6f39356e85" x="100.8" y="425.912185" style="stroke: #000000; stroke-width: 0.8"/>
      </g>
     </g>
     <g id="text_13">
      <!-- 0 V -->
      <g transform="translate(74.36625 431.231092) scale(0.14 -0.14)">
       <use xlink:href="#DejaVuSans-30"/>
       <use xlink:href="#DejaVuSans-20" x="63.623047"/>
       <use xlink:href="#DejaVuSans-56" x="95.410156"/>
      </g>
     </g>
    </g>
    <g id="ytick_11">
     <g id="line2d_72">
      <path d="M 100.8 392.940916 
L 987.84 392.940916 
" clip-path="url(#p6d01ba8cbd)" style="fill: none; stroke-dasharray: 1.85,0.8; stroke-dashoffset: 0; stroke: #b2b2b2; stroke-width: 0.5"/>
     </g>
     <g id="line2d_73">
      <g>
       <use xlink:href="#m6f39356e85" x="100.8" y="392.940916" style="stroke: #000000; stroke-width: 0.8"/>
      </g>
     </g>
     <g id="text_14">
      <!-- 1 V -->
      <g transform="translate(74.36625 398.259823) scale(0.14 -0.14)">
       <use xlink:href="#DejaVuSans-31"/>
       <use xlink:href="#DejaVuSans-20" x="63.623047"/>
       <use xlink:href="#DejaVuSans-56" x="95.410156"/>
      </g>
     </g>
    </g>
    <g id="text_15">
     <g id="patch_21">
      <path d="M 34.8768 454.693023 
L 34.8768 383.46146 
L 11.247425 383.46146 
L 11.247425 454.693023 
z
" style="fill: #ffff00; opacity: 0.2; stroke: #eeeeee; stroke-width: 0.5; stroke-linejoin: miter"/>
     </g>
     <!-- DFF OUT -->
     <g transform="translate(26.925238 449.653023) rotate(-90) scale(0.14 -0.14)">
      <defs>
       <path id="DejaVuSans-4f" d="M 2522 4238 
Q 1834 4238 1429 3725 
Q 1025 3213 1025 2328 
Q 1025 1447 1429 934 
Q 1834 422 2522 422 
Q 3209 422 3611 934 
Q 4013 1447 4013 2328 
Q 4013 3213 3611 3725 
Q 3209 4238 2522 4238 
z
M 2522 4750 
Q 3503 4750 4090 4092 
Q 4678 3434 4678 2328 
Q 4678 1225 4090 567 
Q 3503 -91 2522 -91 
Q 1538 -91 948 565 
Q 359 1222 359 2328 
Q 359 3434 948 4092 
Q 1538 4750 2522 4750 
z
" transform="scale(0.015625)"/>
       <path id="DejaVuSans-54" d="M -19 4666 
L 3928 4666 
L 3928 4134 
L 2272 4134 
L 2272 0 
L 1638 0 
L 1638 4134 
L -19 4134 
L -19 4666 
z
" transform="scale(0.015625)"/>
      </defs>
      <use xlink:href="#DejaVuSans-44"/>
      <use xlink:href="#DejaVuSans-46" x="77.001953"/>
      <use xlink:href="#DejaVuSans-46" x="134.521484"/>
      <use xlink:href="#DejaVuSans-20" x="192.041016"/>
      <use xlink:href="#DejaVuSans-4f" x="223.828125"/>
      <use xlink:href="#DejaVuSans-55" x="302.539062"/>
      <use xlink:href="#DejaVuSans-54" x="375.732422"/>
     </g>
    </g>
   </g>
   <g id="line2d_74">
    <path d="M 141.12 401.034374 
L 173.408256 401.074599 
L 173.440512 402.439609 
L 173.601792 425.914198 
L 174.246912 425.911538 
L 186.471936 425.911294 
L 254.048256 425.912688 
L 254.080512 426.044493 
L 254.112768 425.82647 
L 254.306304 422.607475 
L 254.628864 421.86793 
L 254.693376 421.501948 
L 255.14496 415.725382 
L 255.370752 402.148473 
L 255.596544 386.666484 
L 255.757824 386.39612 
L 256.015872 386.346663 
L 295.755264 386.412605 
L 296.239104 388.545846 
L 296.59392 388.011712 
L 297.980928 386.610433 
L 299.690496 386.369743 
L 334.720512 386.264235 
L 334.752768 386.748912 
L 334.785024 389.145923 
L 334.914048 425.89867 
L 334.97856 425.869652 
L 335.13984 425.905275 
L 335.591424 425.911421 
L 373.298688 425.911278 
L 415.328256 425.912668 
L 415.360512 426.044034 
L 415.392768 425.828297 
L 415.586304 422.530652 
L 415.876608 421.773961 
L 415.94112 421.262247 
L 416.521728 406.390227 
L 416.9088 386.455468 
L 417.102336 386.34996 
L 418.424832 386.320286 
L 419.747328 386.346663 
L 495.968256 386.359851 
L 496.000512 386.471954 
L 496.065024 386.320286 
L 496.387584 386.340068 
L 525.063168 386.429091 
L 526.708224 388.262293 
L 532.998144 396.801852 
L 533.546496 397.921556 
L 534.352896 400.435616 
L 534.514176 400.792694 
L 534.868992 402.234528 
L 535.514112 404.654619 
L 536.126976 406.979753 
L 536.159232 406.588384 
L 536.191488 406.622345 
L 536.352768 407.78689 
L 536.643072 408.899011 
L 536.675328 408.736133 
L 536.73984 408.830101 
L 536.90112 409.927714 
L 538.03008 414.380814 
L 540.029952 421.870238 
L 540.417024 423.213586 
L 540.481536 422.760297 
L 540.513792 422.94487 
L 541.062144 425.312801 
L 541.0944 425.039996 
L 541.126656 425.091498 
L 541.320192 426.23595 
L 541.73952 427.533251 
L 541.771776 427.4984 
L 541.804032 427.552968 
L 542.38464 429.448024 
L 542.54592 429.791585 
L 542.578176 429.621783 
L 542.642688 429.715421 
L 542.900736 430.253842 
L 543.062016 430.968989 
L 543.094272 430.745773 
L 543.126528 431.062627 
L 543.158784 431.019105 
L 543.35232 431.531809 
L 543.610368 432.028026 
L 543.868416 432.461928 
L 543.932928 432.567106 
L 543.965184 432.3795 
L 544.029696 432.4827 
L 544.255488 432.813072 
L 544.48128 433.486016 
L 544.513536 433.383475 
L 544.578048 433.52723 
L 544.739328 434.069937 
L 546.610176 437.682928 
L 546.642432 437.534228 
L 546.674688 437.615997 
L 546.868224 438.110236 
L 547.06176 438.557326 
L 548.803584 441.581451 
L 550.867968 444.764168 
L 550.996992 444.719657 
L 551.158272 444.382031 
L 551.867904 443.306178 
L 552.158208 442.763471 
L 553.83552 440.590005 
L 553.867776 440.736068 
L 553.900032 440.529338 
L 554.222592 440.184788 
L 554.254848 440.329202 
L 554.287104 440.128407 
L 554.351616 440.196988 
L 554.8032 439.696484 
L 554.867712 439.723191 
L 554.899968 439.667469 
L 555.190272 439.432054 
L 555.77088 438.664813 
L 555.803136 438.816151 
L 555.835392 438.56458 
L 555.867648 438.561613 
L 555.899904 438.746582 
L 555.93216 438.539522 
L 555.964416 438.694487 
L 556.125696 438.280698 
L 556.157952 438.285643 
L 556.190208 438.418847 
L 556.222464 438.218382 
L 556.73856 437.776237 
L 556.770816 437.941753 
L 556.835328 437.703371 
L 556.867584 437.787777 
L 556.89984 437.678312 
L 556.996608 437.590279 
L 557.028864 437.652265 
L 557.06112 437.670729 
L 557.2224 437.440919 
L 557.673984 437.158026 
L 558.093312 436.595206 
L 558.448128 436.209113 
L 558.480384 436.429031 
L 558.544896 436.113166 
L 558.577152 436.116463 
L 558.609408 436.341987 
L 558.706176 436.240435 
L 558.8352 435.864563 
L 558.867456 435.858298 
L 558.899712 436.092394 
L 558.964224 435.765979 
L 558.99648 435.931824 
L 559.060992 435.687507 
L 559.093248 435.859947 
L 559.222272 435.621894 
L 559.254528 435.767957 
L 559.286784 435.565514 
L 559.31904 435.537488 
L 559.351296 461.227712 
L 559.415808 435.494955 
L 559.448064 435.481767 
L 559.48032 435.595847 
L 559.512576 435.339001 
L 559.738368 435.361421 
L 559.867392 435.165902 
L 560.318976 434.925541 
L 560.673792 434.629459 
L 560.899584 434.16984 
L 561.157632 433.900794 
L 561.189888 434.1006 
L 561.222144 433.982563 
L 561.351168 433.720441 
L 561.383424 433.996081 
L 561.447936 433.652191 
L 561.512448 433.846062 
L 561.544704 433.546023 
L 561.641472 433.583611 
L 561.673728 433.709231 
L 561.705984 433.581962 
L 561.802752 433.652191 
L 561.835008 433.284231 
L 561.996288 433.201803 
L 562.447872 432.94199 
L 562.480128 433.089042 
L 562.54464 432.99936 
L 563.641344 432.117049 
L 563.802624 431.745462 
L 563.99616 431.539062 
L 564.028416 431.832177 
L 564.092928 431.443775 
L 564.383232 431.207042 
L 564.415488 431.540051 
L 564.512256 431.46125 
L 564.64128 430.985475 
L 564.80256 430.952174 
L 564.867072 430.877329 
L 564.899328 431.18561 
L 564.931584 430.797538 
L 564.996096 431.113073 
L 565.12512 430.706867 
L 565.157376 430.714121 
L 565.189632 430.901728 
L 565.221888 430.651146 
L 565.2864 430.836774 
L 565.350912 430.631363 
L 565.415424 430.66928 
L 565.479936 430.670269 
L 565.512192 430.606964 
L 565.737984 430.569377 
L 566.060544 430.357372 
L 567.028224 429.595406 
L 567.350784 429.356694 
L 567.447552 428.855234 
L 567.479808 429.239976 
L 567.54432 428.724964 
L 567.641088 428.681937 
L 567.770112 428.60851 
L 567.802368 429.002121 
L 567.834624 428.505046 
L 567.899136 428.860114 
L 568.02816 428.446951 
L 568.479744 428.253475 
L 569.124864 427.994156 
L 570.350592 426.904489 
L 570.382848 426.863143 
L 570.511872 426.347736 
L 570.544128 426.55529 
L 570.60864 426.314468 
L 570.705408 426.171376 
L 570.737664 426.326502 
L 570.76992 426.107642 
L 570.834432 425.884717 
L 570.898944 425.92495 
L 570.9312 426.113445 
L 570.995712 425.945173 
L 571.09248 425.897714 
L 571.931136 424.680906 
L 572.092416 424.045121 
L 572.124672 424.220792 
L 572.156928 424.08528 
L 572.285952 423.725663 
L 572.350464 423.979212 
L 572.38272 423.679602 
L 572.511744 423.793155 
L 572.544 423.741918 
L 573.060096 422.94609 
L 573.3504 422.476909 
L 573.51168 421.590641 
L 573.576192 421.568221 
L 573.608448 421.645044 
L 573.705216 421.666475 
L 573.737472 421.813857 
L 573.769728 421.490079 
L 573.866496 421.656254 
L 573.898752 421.577782 
L 574.47936 420.74262 
L 574.834176 420.171888 
L 574.9632 419.321888 
L 574.995456 419.891632 
L 575.059968 419.23979 
L 575.092224 419.214072 
L 575.12448 419.280344 
L 575.156736 419.672702 
L 575.221248 419.334417 
L 575.253504 419.451465 
L 575.318016 419.31925 
L 575.543808 418.969096 
L 576.995328 416.803872 
L 577.05984 416.729357 
L 577.285632 416.30139 
L 577.479168 415.99179 
L 577.930752 415.572725 
L 577.963008 415.620863 
L 578.02752 415.569098 
L 578.317824 415.241364 
L 578.866176 414.386419 
L 578.930688 413.889542 
L 578.9952 414.045166 
L 579.15648 413.612913 
L 580.640256 410.680778 
L 580.737024 410.612857 
L 580.76928 410.56373 
L 580.833792 409.973874 
L 580.898304 409.992008 
L 581.156352 409.96728 
L 582.38208 408.169356 
L 582.446592 407.681382 
L 582.511104 407.737763 
L 582.640128 407.740071 
L 582.833664 407.546529 
L 582.994944 407.21319 
L 584.15616 405.804987 
L 584.607744 405.489122 
L 584.736768 405.597927 
L 584.833536 405.907198 
L 584.898048 406.439024 
L 585.027072 411.543636 
L 585.220608 425.464271 
L 585.28512 425.408417 
L 585.543168 425.456391 
L 587.897856 425.547655 
L 589.575168 425.477723 
L 590.252544 425.005772 
L 591.123456 424.688457 
L 592.252416 424.513247 
L 594.187776 424.460362 
L 599.47776 424.608403 
L 609.057792 424.861193 
L 611.025408 424.810912 
L 615.2832 424.937192 
L 615.60576 425.211645 
L 616.379904 425.669659 
L 617.37984 425.971699 
L 619.121664 426.162685 
L 622.315008 426.220635 
L 657.280512 426.351528 
L 657.603072 419.922625 
L 657.796608 418.729724 
L 657.925632 416.972026 
L 658.086912 409.967609 
L 658.312704 387.098408 
L 658.50624 376.956445 
L 658.66752 376.953148 
L 661.828608 377.810401 
L 662.280192 377.919206 
L 664.344576 378.436855 
L 664.79616 378.54566 
L 666.537984 378.964396 
L 667.118592 379.073201 
L 668.408832 379.360051 
L 668.860416 379.465559 
L 669.441024 379.59085 
L 670.021632 379.699655 
L 671.118336 379.920562 
L 671.666688 380.02607 
L 672.247296 380.151361 
L 672.924672 380.256869 
L 673.50528 380.38216 
L 674.085888 380.487668 
L 674.601984 380.579988 
L 675.247104 380.685496 
L 675.7632 380.777815 
L 676.40832 380.883323 
L 676.924416 380.975643 
L 677.569536 381.081151 
L 678.085632 381.173471 
L 678.730752 381.278979 
L 679.15008 381.338327 
L 679.7952 381.443835 
L 680.214528 381.503183 
L 680.956416 381.608691 
L 681.472512 381.701011 
L 682.311168 381.806519 
L 683.085312 381.93181 
L 683.956224 382.037318 
L 684.375552 382.096666 
L 685.214208 382.202174 
L 685.633536 382.261522 
L 686.472192 382.367031 
L 687.149568 382.45935 
L 688.117248 382.564858 
L 688.794624 382.657178 
L 689.762304 382.762686 
L 690.43968 382.855005 
L 691.600896 382.960513 
L 692.278272 383.052833 
L 693.536256 383.158341 
L 694.084608 383.217689 
L 695.181312 383.323197 
L 695.729664 383.382546 
L 696.923136 383.488054 
L 697.471488 383.547402 
L 698.858496 383.65291 
L 699.406848 383.712258 
L 700.793856 383.817766 
L 701.342208 383.873818 
L 704.696832 384.107914 
L 706.212864 384.213422 
L 706.761216 384.269473 
L 709.14816 384.404655 
L 710.954496 384.510163 
L 711.40608 384.53654 
L 712.083456 384.569511 
L 712.954368 384.635454 
L 713.696256 384.668425 
L 715.792896 384.773933 
L 716.24448 384.797013 
L 718.308864 384.899224 
L 720.824832 385.004732 
L 721.276416 385.031109 
L 722.05056 385.060783 
L 724.985856 385.169588 
L 725.43744 385.192668 
L 727.179264 385.261908 
L 727.921152 385.294879 
L 731.856384 385.400387 
L 732.307968 385.426764 
L 733.082112 385.453141 
L 734.501376 385.48941 
L 737.888256 385.571838 
L 737.920512 385.726803 
L 737.985024 385.558649 
L 738.146304 385.585026 
L 743.726592 385.687237 
L 744.210432 385.720209 
L 750.91968 385.829014 
L 751.371264 385.852094 
L 760.306176 385.960899 
L 760.75776 385.987276 
L 761.854464 385.983979 
L 818.528256 386.013653 
L 818.560512 386.181806 
L 818.625024 386.013653 
L 818.850816 386.000464 
L 819.237888 386.007059 
L 899.168256 386.013653 
L 899.200512 386.181806 
L 899.265024 386.013653 
L 899.490816 386.000464 
L 899.877888 386.007059 
L 947.52 386.01695 
L 947.52 386.01695 
" clip-path="url(#p6d01ba8cbd)" style="fill: none; stroke: #ff00ff; stroke-width: 2; stroke-linecap: square"/>
   </g>
   <g id="patch_22">
    <path d="M 100.8 465.442759 
L 100.8 372.711724 
" style="fill: none; stroke: #bcbcbc; stroke-width: 0.8; stroke-linejoin: miter; stroke-linecap: square"/>
   </g>
   <g id="patch_23">
    <path d="M 987.84 465.442759 
L 987.84 372.711724 
" style="fill: none; stroke: #bcbcbc; stroke-width: 0.8; stroke-linejoin: miter; stroke-linecap: square"/>
   </g>
   <g id="patch_24">
    <path d="M 100.8 465.442759 
L 987.84 465.442759 
" style="fill: none; stroke: #bcbcbc; stroke-width: 0.8; stroke-linejoin: miter; stroke-linecap: square"/>
   </g>
   <g id="patch_25">
    <path d="M 100.8 372.711724 
L 987.84 372.711724 
" style="fill: none; stroke: #bcbcbc; stroke-width: 0.8; stroke-linejoin: miter; stroke-linecap: square"/>
   </g>
  </g>
  <g id="axes_5">
   <g id="patch_26">
    <path d="M 100.8 576.72 
L 987.84 576.72 
L 987.84 483.988966 
L 100.8 483.988966 
z
" style="fill: #eeeeee"/>
   </g>
   <g id="matplotlib.axis_9">
    <g id="xtick_25">
     <g id="line2d_75">
      <path d="M 141.12 576.72 
L 141.12 483.988966 
" clip-path="url(#p270c269cef)" style="fill: none; stroke-dasharray: 1.85,0.8; stroke-dashoffset: 0; stroke: #b2b2b2; stroke-width: 0.5"/>
     </g>
     <g id="line2d_76">
      <g>
       <use xlink:href="#m3d6240f2a9" x="141.12" y="576.72" style="stroke: #000000; stroke-width: 0.8"/>
      </g>
     </g>
     <g id="text_16">
      <!-- 0 s -->
      <g transform="translate(130.795 590.857813) scale(0.14 -0.14)">
       <defs>
        <path id="DejaVuSans-73" d="M 2834 3397 
L 2834 2853 
Q 2591 2978 2328 3040 
Q 2066 3103 1784 3103 
Q 1356 3103 1142 2972 
Q 928 2841 928 2578 
Q 928 2378 1081 2264 
Q 1234 2150 1697 2047 
L 1894 2003 
Q 2506 1872 2764 1633 
Q 3022 1394 3022 966 
Q 3022 478 2636 193 
Q 2250 -91 1575 -91 
Q 1294 -91 989 -36 
Q 684 19 347 128 
L 347 722 
Q 666 556 975 473 
Q 1284 391 1588 391 
Q 1994 391 2212 530 
Q 2431 669 2431 922 
Q 2431 1156 2273 1281 
Q 2116 1406 1581 1522 
L 1381 1569 
Q 847 1681 609 1914 
Q 372 2147 372 2553 
Q 372 3047 722 3315 
Q 1072 3584 1716 3584 
Q 2034 3584 2315 3537 
Q 2597 3491 2834 3397 
z
" transform="scale(0.015625)"/>
       </defs>
       <use xlink:href="#DejaVuSans-30"/>
       <use xlink:href="#DejaVuSans-20" x="63.623047"/>
       <use xlink:href="#DejaVuSans-73" x="95.410156"/>
      </g>
     </g>
    </g>
    <g id="xtick_26">
     <g id="line2d_77">
      <path d="M 302.4 576.72 
L 302.4 483.988966 
" clip-path="url(#p270c269cef)" style="fill: none; stroke-dasharray: 1.85,0.8; stroke-dashoffset: 0; stroke: #b2b2b2; stroke-width: 0.5"/>
     </g>
     <g id="line2d_78">
      <g>
       <use xlink:href="#m3d6240f2a9" x="302.4" y="576.72" style="stroke: #000000; stroke-width: 0.8"/>
      </g>
     </g>
     <g id="text_17">
      <!-- 50 ns -->
      <g transform="translate(283.185 590.857813) scale(0.14 -0.14)">
       <defs>
        <path id="DejaVuSans-35" d="M 691 4666 
L 3169 4666 
L 3169 4134 
L 1269 4134 
L 1269 2991 
Q 1406 3038 1543 3061 
Q 1681 3084 1819 3084 
Q 2600 3084 3056 2656 
Q 3513 2228 3513 1497 
Q 3513 744 3044 326 
Q 2575 -91 1722 -91 
Q 1428 -91 1123 -41 
Q 819 9 494 109 
L 494 744 
Q 775 591 1075 516 
Q 1375 441 1709 441 
Q 2250 441 2565 725 
Q 2881 1009 2881 1497 
Q 2881 1984 2565 2268 
Q 2250 2553 1709 2553 
Q 1456 2553 1204 2497 
Q 953 2441 691 2322 
L 691 4666 
z
" transform="scale(0.015625)"/>
        <path id="DejaVuSans-6e" d="M 3513 2113 
L 3513 0 
L 2938 0 
L 2938 2094 
Q 2938 2591 2744 2837 
Q 2550 3084 2163 3084 
Q 1697 3084 1428 2787 
Q 1159 2491 1159 1978 
L 1159 0 
L 581 0 
L 581 3500 
L 1159 3500 
L 1159 2956 
Q 1366 3272 1645 3428 
Q 1925 3584 2291 3584 
Q 2894 3584 3203 3211 
Q 3513 2838 3513 2113 
z
" transform="scale(0.015625)"/>
       </defs>
       <use xlink:href="#DejaVuSans-35"/>
       <use xlink:href="#DejaVuSans-30" x="63.623047"/>
       <use xlink:href="#DejaVuSans-20" x="127.246094"/>
       <use xlink:href="#DejaVuSans-6e" x="159.033203"/>
       <use xlink:href="#DejaVuSans-73" x="222.412109"/>
      </g>
     </g>
    </g>
    <g id="xtick_27">
     <g id="line2d_79">
      <path d="M 463.68 576.72 
L 463.68 483.988966 
" clip-path="url(#p270c269cef)" style="fill: none; stroke-dasharray: 1.85,0.8; stroke-dashoffset: 0; stroke: #b2b2b2; stroke-width: 0.5"/>
     </g>
     <g id="line2d_80">
      <g>
       <use xlink:href="#m3d6240f2a9" x="463.68" y="576.72" style="stroke: #000000; stroke-width: 0.8"/>
      </g>
     </g>
     <g id="text_18">
      <!-- 100 ns -->
      <g transform="translate(440.01125 590.857813) scale(0.14 -0.14)">
       <use xlink:href="#DejaVuSans-31"/>
       <use xlink:href="#DejaVuSans-30" x="63.623047"/>
       <use xlink:href="#DejaVuSans-30" x="127.246094"/>
       <use xlink:href="#DejaVuSans-20" x="190.869141"/>
       <use xlink:href="#DejaVuSans-6e" x="222.65625"/>
       <use xlink:href="#DejaVuSans-73" x="286.035156"/>
      </g>
     </g>
    </g>
    <g id="xtick_28">
     <g id="line2d_81">
      <path d="M 624.96 576.72 
L 624.96 483.988966 
" clip-path="url(#p270c269cef)" style="fill: none; stroke-dasharray: 1.85,0.8; stroke-dashoffset: 0; stroke: #b2b2b2; stroke-width: 0.5"/>
     </g>
     <g id="line2d_82">
      <g>
       <use xlink:href="#m3d6240f2a9" x="624.96" y="576.72" style="stroke: #000000; stroke-width: 0.8"/>
      </g>
     </g>
     <g id="text_19">
      <!-- 150 ns -->
      <g transform="translate(601.29125 590.857813) scale(0.14 -0.14)">
       <use xlink:href="#DejaVuSans-31"/>
       <use xlink:href="#DejaVuSans-35" x="63.623047"/>
       <use xlink:href="#DejaVuSans-30" x="127.246094"/>
       <use xlink:href="#DejaVuSans-20" x="190.869141"/>
       <use xlink:href="#DejaVuSans-6e" x="222.65625"/>
       <use xlink:href="#DejaVuSans-73" x="286.035156"/>
      </g>
     </g>
    </g>
    <g id="xtick_29">
     <g id="line2d_83">
      <path d="M 786.24 576.72 
L 786.24 483.988966 
" clip-path="url(#p270c269cef)" style="fill: none; stroke-dasharray: 1.85,0.8; stroke-dashoffset: 0; stroke: #b2b2b2; stroke-width: 0.5"/>
     </g>
     <g id="line2d_84">
      <g>
       <use xlink:href="#m3d6240f2a9" x="786.24" y="576.72" style="stroke: #000000; stroke-width: 0.8"/>
      </g>
     </g>
     <g id="text_20">
      <!-- 200 ns -->
      <g transform="translate(762.57125 590.857813) scale(0.14 -0.14)">
       <use xlink:href="#DejaVuSans-32"/>
       <use xlink:href="#DejaVuSans-30" x="63.623047"/>
       <use xlink:href="#DejaVuSans-30" x="127.246094"/>
       <use xlink:href="#DejaVuSans-20" x="190.869141"/>
       <use xlink:href="#DejaVuSans-6e" x="222.65625"/>
       <use xlink:href="#DejaVuSans-73" x="286.035156"/>
      </g>
     </g>
    </g>
    <g id="xtick_30">
     <g id="line2d_85">
      <path d="M 947.52 576.72 
L 947.52 483.988966 
" clip-path="url(#p270c269cef)" style="fill: none; stroke-dasharray: 1.85,0.8; stroke-dashoffset: 0; stroke: #b2b2b2; stroke-width: 0.5"/>
     </g>
     <g id="line2d_86">
      <g>
       <use xlink:href="#m3d6240f2a9" x="947.52" y="576.72" style="stroke: #000000; stroke-width: 0.8"/>
      </g>
     </g>
     <g id="text_21">
      <!-- 250 ns -->
      <g transform="translate(923.85125 590.857813) scale(0.14 -0.14)">
       <use xlink:href="#DejaVuSans-32"/>
       <use xlink:href="#DejaVuSans-35" x="63.623047"/>
       <use xlink:href="#DejaVuSans-30" x="127.246094"/>
       <use xlink:href="#DejaVuSans-20" x="190.869141"/>
       <use xlink:href="#DejaVuSans-6e" x="222.65625"/>
       <use xlink:href="#DejaVuSans-73" x="286.035156"/>
      </g>
     </g>
    </g>
    <g id="text_22">
     <!-- Time -->
     <g transform="translate(527.192969 608.407187) scale(0.14 -0.14)">
      <defs>
       <path id="DejaVuSans-69" d="M 603 3500 
L 1178 3500 
L 1178 0 
L 603 0 
L 603 3500 
z
M 603 4863 
L 1178 4863 
L 1178 4134 
L 603 4134 
L 603 4863 
z
" transform="scale(0.015625)"/>
       <path id="DejaVuSans-6d" d="M 3328 2828 
Q 3544 3216 3844 3400 
Q 4144 3584 4550 3584 
Q 5097 3584 5394 3201 
Q 5691 2819 5691 2113 
L 5691 0 
L 5113 0 
L 5113 2094 
Q 5113 2597 4934 2840 
Q 4756 3084 4391 3084 
Q 3944 3084 3684 2787 
Q 3425 2491 3425 1978 
L 3425 0 
L 2847 0 
L 2847 2094 
Q 2847 2600 2669 2842 
Q 2491 3084 2119 3084 
Q 1678 3084 1418 2786 
Q 1159 2488 1159 1978 
L 1159 0 
L 581 0 
L 581 3500 
L 1159 3500 
L 1159 2956 
Q 1356 3278 1631 3431 
Q 1906 3584 2284 3584 
Q 2666 3584 2933 3390 
Q 3200 3197 3328 2828 
z
" transform="scale(0.015625)"/>
       <path id="DejaVuSans-65" d="M 3597 1894 
L 3597 1613 
L 953 1613 
Q 991 1019 1311 708 
Q 1631 397 2203 397 
Q 2534 397 2845 478 
Q 3156 559 3463 722 
L 3463 178 
Q 3153 47 2828 -22 
Q 2503 -91 2169 -91 
Q 1331 -91 842 396 
Q 353 884 353 1716 
Q 353 2575 817 3079 
Q 1281 3584 2069 3584 
Q 2775 3584 3186 3129 
Q 3597 2675 3597 1894 
z
M 3022 2063 
Q 3016 2534 2758 2815 
Q 2500 3097 2075 3097 
Q 1594 3097 1305 2825 
Q 1016 2553 972 2059 
L 3022 2063 
z
" transform="scale(0.015625)"/>
      </defs>
      <use xlink:href="#DejaVuSans-54"/>
      <use xlink:href="#DejaVuSans-69" x="57.958984"/>
      <use xlink:href="#DejaVuSans-6d" x="85.742188"/>
      <use xlink:href="#DejaVuSans-65" x="183.154297"/>
     </g>
    </g>
   </g>
   <g id="matplotlib.axis_10">
    <g id="ytick_12">
     <g id="line2d_87">
      <path d="M 100.8 569.745885 
L 987.84 569.745885 
" clip-path="url(#p270c269cef)" style="fill: none; stroke-dasharray: 1.85,0.8; stroke-dashoffset: 0; stroke: #b2b2b2; stroke-width: 0.5"/>
     </g>
     <g id="line2d_88">
      <g>
       <use xlink:href="#m6f39356e85" x="100.8" y="569.745885" style="stroke: #000000; stroke-width: 0.8"/>
      </g>
     </g>
     <g id="text_23">
      <!-- 0 V -->
      <g transform="translate(74.36625 575.064792) scale(0.14 -0.14)">
       <use xlink:href="#DejaVuSans-30"/>
       <use xlink:href="#DejaVuSans-20" x="63.623047"/>
       <use xlink:href="#DejaVuSans-56" x="95.410156"/>
      </g>
     </g>
    </g>
    <g id="ytick_13">
     <g id="line2d_89">
      <path d="M 100.8 535.950348 
L 987.84 535.950348 
" clip-path="url(#p270c269cef)" style="fill: none; stroke-dasharray: 1.85,0.8; stroke-dashoffset: 0; stroke: #b2b2b2; stroke-width: 0.5"/>
     </g>
     <g id="line2d_90">
      <g>
       <use xlink:href="#m6f39356e85" x="100.8" y="535.950348" style="stroke: #000000; stroke-width: 0.8"/>
      </g>
     </g>
     <g id="text_24">
      <!-- 500 mV -->
      <g transform="translate(42.914375 541.269254) scale(0.14 -0.14)">
       <use xlink:href="#DejaVuSans-35"/>
       <use xlink:href="#DejaVuSans-30" x="63.623047"/>
       <use xlink:href="#DejaVuSans-30" x="127.246094"/>
       <use xlink:href="#DejaVuSans-20" x="190.869141"/>
       <use xlink:href="#DejaVuSans-6d" x="222.65625"/>
       <use xlink:href="#DejaVuSans-56" x="320.068359"/>
      </g>
     </g>
    </g>
    <g id="ytick_14">
     <g id="line2d_91">
      <path d="M 100.8 502.15481 
L 987.84 502.15481 
" clip-path="url(#p270c269cef)" style="fill: none; stroke-dasharray: 1.85,0.8; stroke-dashoffset: 0; stroke: #b2b2b2; stroke-width: 0.5"/>
     </g>
     <g id="line2d_92">
      <g>
       <use xlink:href="#m6f39356e85" x="100.8" y="502.15481" style="stroke: #000000; stroke-width: 0.8"/>
      </g>
     </g>
     <g id="text_25">
      <!-- 1 V -->
      <g transform="translate(74.36625 507.473717) scale(0.14 -0.14)">
       <use xlink:href="#DejaVuSans-31"/>
       <use xlink:href="#DejaVuSans-20" x="63.623047"/>
       <use xlink:href="#DejaVuSans-56" x="95.410156"/>
      </g>
     </g>
    </g>
    <g id="text_26">
     <g id="patch_27">
      <path d="M 34.8768 554.329483 
L 34.8768 506.379483 
L 11.247425 506.379483 
L 11.247425 554.329483 
z
" style="fill: #ffff00; opacity: 0.2; stroke: #eeeeee; stroke-width: 0.5; stroke-linejoin: miter"/>
     </g>
     <!-- FOUT -->
     <g transform="translate(26.925238 549.289483) rotate(-90) scale(0.14 -0.14)">
      <use xlink:href="#DejaVuSans-46"/>
      <use xlink:href="#DejaVuSans-4f" x="57.519531"/>
      <use xlink:href="#DejaVuSans-55" x="136.230469"/>
      <use xlink:href="#DejaVuSans-54" x="209.423828"/>
     </g>
    </g>
   </g>
   <g id="line2d_93">
    <path d="M 141.12 488.636595 
L 173.472768 488.643355 
L 173.505024 488.44734 
L 173.569536 526.789729 
L 173.69856 572.504953 
L 173.730816 572.3695 
L 173.827584 567.842115 
L 173.892096 569.3609 
L 174.053376 570.064192 
L 174.117888 569.946665 
L 174.408192 569.492054 
L 174.440448 569.54151 
L 174.66624 569.729954 
L 176.182272 569.740151 
L 180.117504 569.761449 
L 193.568256 569.752159 
L 212.954112 569.74401 
L 255.30624 569.743704 
L 255.6288 488.52845 
L 255.854592 488.670391 
L 256.209408 488.629836 
L 334.849536 488.650114 
L 334.881792 492.854278 
L 335.043072 572.18376 
L 335.107584 570.261206 
L 335.172096 568.338639 
L 335.236608 568.870108 
L 335.365632 570.783003 
L 335.430144 570.410083 
L 335.591424 569.797213 
L 335.881728 569.648439 
L 336.559104 569.817924 
L 337.107456 569.746143 
L 350.009856 569.744206 
L 416.489472 569.74333 
L 416.553984 567.480841 
L 416.812032 488.204013 
L 416.844288 488.339195 
L 416.973312 488.852887 
L 417.037824 488.778537 
L 417.39264 488.548727 
L 417.844224 488.717705 
L 418.457088 488.562245 
L 419.328 488.636595 
L 536.385024 488.535209 
L 536.41728 488.379749 
L 536.449536 488.961033 
L 536.514048 519.80284 
L 536.643072 570.042313 
L 536.675328 569.728212 
L 537.030144 569.744175 
L 582.930432 569.698695 
L 582.994944 556.481137 
L 583.220736 488.83261 
L 583.382016 488.643355 
L 583.930368 488.636595 
L 584.898048 488.636595 
L 584.994816 490.353409 
L 585.059328 526.862052 
L 585.220608 570.180347 
L 585.252864 569.559902 
L 585.349632 569.741579 
L 586.865664 569.744205 
L 658.0224 569.744217 
L 658.086912 557.212472 
L 658.409472 488.670391 
L 658.66752 488.636595 
L 947.52 488.636595 
L 947.52 488.636595 
" clip-path="url(#p270c269cef)" style="fill: none; stroke: #ff00ff; stroke-width: 2; stroke-linecap: square"/>
   </g>
   <g id="patch_28">
    <path d="M 100.8 576.72 
L 100.8 483.988966 
" style="fill: none; stroke: #bcbcbc; stroke-width: 0.8; stroke-linejoin: miter; stroke-linecap: square"/>
   </g>
   <g id="patch_29">
    <path d="M 987.84 576.72 
L 987.84 483.988966 
" style="fill: none; stroke: #bcbcbc; stroke-width: 0.8; stroke-linejoin: miter; stroke-linecap: square"/>
   </g>
   <g id="patch_30">
    <path d="M 100.8 576.72 
L 987.84 576.72 
" style="fill: none; stroke: #bcbcbc; stroke-width: 0.8; stroke-linejoin: miter; stroke-linecap: square"/>
   </g>
   <g id="patch_31">
    <path d="M 100.8 483.988966 
L 987.84 483.988966 
" style="fill: none; stroke: #bcbcbc; stroke-width: 0.8; stroke-linejoin: miter; stroke-linecap: square"/>
   </g>
  </g>
  <g id="axes_6">
   <g id="patch_32">
    <path d="M 201.6 628.56 
L 856.8 628.56 
L 856.8 615.6 
L 201.6 615.6 
z
" clip-path="url(#p9431a5dfb9)" style="fill: #d3d3d3"/>
   </g>
   <g id="patch_33">
    <path d="M 201.6 628.56 
L 683.64 628.56 
L 683.64 615.6 
L 201.6 615.6 
z
" clip-path="url(#p9431a5dfb9)" style="fill: #0000ff"/>
   </g>
   <g id="line2d_94">
    <path d="M 201.6 635.04 
L 201.6 609.12 
" clip-path="url(#p39bfcdeb51)" style="fill: none; stroke: #ff0000; stroke-linecap: square"/>
   </g>
   <g id="line2d_95">
    <defs>
     <path id="ma07755d539" d="M 0 5 
C 1.326016 5 2.597899 4.473168 3.535534 3.535534 
C 4.473168 2.597899 5 1.326016 5 0 
C 5 -1.326016 4.473168 -2.597899 3.535534 -3.535534 
C 2.597899 -4.473168 1.326016 -5 0 -5 
C -1.326016 -5 -2.597899 -4.473168 -3.535534 -3.535534 
C -4.473168 -2.597899 -5 -1.326016 -5 0 
C -5 1.326016 -4.473168 2.597899 -3.535534 3.535534 
C -2.597899 4.473168 -1.326016 5 0 5 
z
" style="stroke: #bfbfbf"/>
    </defs>
    <g>
     <use xlink:href="#ma07755d539" x="683.64" y="622.08" style="fill: #ffffff; stroke: #bfbfbf"/>
    </g>
   </g>
   <g id="text_27">
    <!-- #Sweep -->
    <g transform="translate(138.622875 625.39125) scale(0.12 -0.12)">
     <defs>
      <path id="DejaVuSans-23" d="M 3272 2816 
L 2363 2816 
L 2100 1772 
L 3016 1772 
L 3272 2816 
z
M 2803 4594 
L 2478 3297 
L 3391 3297 
L 3719 4594 
L 4219 4594 
L 3897 3297 
L 4872 3297 
L 4872 2816 
L 3775 2816 
L 3519 1772 
L 4513 1772 
L 4513 1294 
L 3397 1294 
L 3072 0 
L 2572 0 
L 2894 1294 
L 1978 1294 
L 1656 0 
L 1153 0 
L 1478 1294 
L 494 1294 
L 494 1772 
L 1594 1772 
L 1856 2816 
L 850 2816 
L 850 3297 
L 1978 3297 
L 2297 4594 
L 2803 4594 
z
" transform="scale(0.015625)"/>
      <path id="DejaVuSans-77" d="M 269 3500 
L 844 3500 
L 1563 769 
L 2278 3500 
L 2956 3500 
L 3675 769 
L 4391 3500 
L 4966 3500 
L 4050 0 
L 3372 0 
L 2619 2869 
L 1863 0 
L 1184 0 
L 269 3500 
z
" transform="scale(0.015625)"/>
      <path id="DejaVuSans-70" d="M 1159 525 
L 1159 -1331 
L 581 -1331 
L 581 3500 
L 1159 3500 
L 1159 2969 
Q 1341 3281 1617 3432 
Q 1894 3584 2278 3584 
Q 2916 3584 3314 3078 
Q 3713 2572 3713 1747 
Q 3713 922 3314 415 
Q 2916 -91 2278 -91 
Q 1894 -91 1617 61 
Q 1341 213 1159 525 
z
M 3116 1747 
Q 3116 2381 2855 2742 
Q 2594 3103 2138 3103 
Q 1681 3103 1420 2742 
Q 1159 2381 1159 1747 
Q 1159 1113 1420 752 
Q 1681 391 2138 391 
Q 2594 391 2855 752 
Q 3116 1113 3116 1747 
z
" transform="scale(0.015625)"/>
     </defs>
     <use xlink:href="#DejaVuSans-23"/>
     <use xlink:href="#DejaVuSans-53" x="83.789062"/>
     <use xlink:href="#DejaVuSans-77" x="147.265625"/>
     <use xlink:href="#DejaVuSans-65" x="229.052734"/>
     <use xlink:href="#DejaVuSans-65" x="290.576172"/>
     <use xlink:href="#DejaVuSans-70" x="352.099609"/>
    </g>
   </g>
   <g id="text_28">
    <!-- $\mathdefault{103}$ -->
    <g transform="translate(869.904 625.39125) scale(0.12 -0.12)">
     <defs>
      <path id="DejaVuSans-33" d="M 2597 2516 
Q 3050 2419 3304 2112 
Q 3559 1806 3559 1356 
Q 3559 666 3084 287 
Q 2609 -91 1734 -91 
Q 1441 -91 1130 -33 
Q 819 25 488 141 
L 488 750 
Q 750 597 1062 519 
Q 1375 441 1716 441 
Q 2309 441 2620 675 
Q 2931 909 2931 1356 
Q 2931 1769 2642 2001 
Q 2353 2234 1838 2234 
L 1294 2234 
L 1294 2753 
L 1863 2753 
Q 2328 2753 2575 2939 
Q 2822 3125 2822 3475 
Q 2822 3834 2567 4026 
Q 2313 4219 1838 4219 
Q 1578 4219 1281 4162 
Q 984 4106 628 3988 
L 628 4550 
Q 988 4650 1302 4700 
Q 1616 4750 1894 4750 
Q 2613 4750 3031 4423 
Q 3450 4097 3450 3541 
Q 3450 3153 3228 2886 
Q 3006 2619 2597 2516 
z
" transform="scale(0.015625)"/>
     </defs>
     <use xlink:href="#DejaVuSans-31" transform="translate(0 0.78125)"/>
     <use xlink:href="#DejaVuSans-30" transform="translate(63.623047 0.78125)"/>
     <use xlink:href="#DejaVuSans-33" transform="translate(127.246094 0.78125)"/>
    </g>
   </g>
  </g>
  <g id="text_29">
   <!-- DFF under BBI sweep analysis (Sweep = 113E-9) -->
   <g transform="translate(308.25625 25.1175) scale(0.16 -0.16)">
    <defs>
     <path id="DejaVuSans-75" d="M 544 1381 
L 544 3500 
L 1119 3500 
L 1119 1403 
Q 1119 906 1312 657 
Q 1506 409 1894 409 
Q 2359 409 2629 706 
Q 2900 1003 2900 1516 
L 2900 3500 
L 3475 3500 
L 3475 0 
L 2900 0 
L 2900 538 
Q 2691 219 2414 64 
Q 2138 -91 1772 -91 
Q 1169 -91 856 284 
Q 544 659 544 1381 
z
M 1991 3584 
L 1991 3584 
z
" transform="scale(0.015625)"/>
     <path id="DejaVuSans-64" d="M 2906 2969 
L 2906 4863 
L 3481 4863 
L 3481 0 
L 2906 0 
L 2906 525 
Q 2725 213 2448 61 
Q 2172 -91 1784 -91 
Q 1150 -91 751 415 
Q 353 922 353 1747 
Q 353 2572 751 3078 
Q 1150 3584 1784 3584 
Q 2172 3584 2448 3432 
Q 2725 3281 2906 2969 
z
M 947 1747 
Q 947 1113 1208 752 
Q 1469 391 1925 391 
Q 2381 391 2643 752 
Q 2906 1113 2906 1747 
Q 2906 2381 2643 2742 
Q 2381 3103 1925 3103 
Q 1469 3103 1208 2742 
Q 947 2381 947 1747 
z
" transform="scale(0.015625)"/>
     <path id="DejaVuSans-72" d="M 2631 2963 
Q 2534 3019 2420 3045 
Q 2306 3072 2169 3072 
Q 1681 3072 1420 2755 
Q 1159 2438 1159 1844 
L 1159 0 
L 581 0 
L 581 3500 
L 1159 3500 
L 1159 2956 
Q 1341 3275 1631 3429 
Q 1922 3584 2338 3584 
Q 2397 3584 2469 3576 
Q 2541 3569 2628 3553 
L 2631 2963 
z
" transform="scale(0.015625)"/>
     <path id="DejaVuSans-61" d="M 2194 1759 
Q 1497 1759 1228 1600 
Q 959 1441 959 1056 
Q 959 750 1161 570 
Q 1363 391 1709 391 
Q 2188 391 2477 730 
Q 2766 1069 2766 1631 
L 2766 1759 
L 2194 1759 
z
M 3341 1997 
L 3341 0 
L 2766 0 
L 2766 531 
Q 2569 213 2275 61 
Q 1981 -91 1556 -91 
Q 1019 -91 701 211 
Q 384 513 384 1019 
Q 384 1609 779 1909 
Q 1175 2209 1959 2209 
L 2766 2209 
L 2766 2266 
Q 2766 2663 2505 2880 
Q 2244 3097 1772 3097 
Q 1472 3097 1187 3025 
Q 903 2953 641 2809 
L 641 3341 
Q 956 3463 1253 3523 
Q 1550 3584 1831 3584 
Q 2591 3584 2966 3190 
Q 3341 2797 3341 1997 
z
" transform="scale(0.015625)"/>
     <path id="DejaVuSans-6c" d="M 603 4863 
L 1178 4863 
L 1178 0 
L 603 0 
L 603 4863 
z
" transform="scale(0.015625)"/>
     <path id="DejaVuSans-79" d="M 2059 -325 
Q 1816 -950 1584 -1140 
Q 1353 -1331 966 -1331 
L 506 -1331 
L 506 -850 
L 844 -850 
Q 1081 -850 1212 -737 
Q 1344 -625 1503 -206 
L 1606 56 
L 191 3500 
L 800 3500 
L 1894 763 
L 2988 3500 
L 3597 3500 
L 2059 -325 
z
" transform="scale(0.015625)"/>
     <path id="DejaVuSans-28" d="M 1984 4856 
Q 1566 4138 1362 3434 
Q 1159 2731 1159 2009 
Q 1159 1288 1364 580 
Q 1569 -128 1984 -844 
L 1484 -844 
Q 1016 -109 783 600 
Q 550 1309 550 2009 
Q 550 2706 781 3412 
Q 1013 4119 1484 4856 
L 1984 4856 
z
" transform="scale(0.015625)"/>
     <path id="DejaVuSans-3d" d="M 678 2906 
L 4684 2906 
L 4684 2381 
L 678 2381 
L 678 2906 
z
M 678 1631 
L 4684 1631 
L 4684 1100 
L 678 1100 
L 678 1631 
z
" transform="scale(0.015625)"/>
     <path id="DejaVuSans-2d" d="M 313 2009 
L 1997 2009 
L 1997 1497 
L 313 1497 
L 313 2009 
z
" transform="scale(0.015625)"/>
     <path id="DejaVuSans-39" d="M 703 97 
L 703 672 
Q 941 559 1184 500 
Q 1428 441 1663 441 
Q 2288 441 2617 861 
Q 2947 1281 2994 2138 
Q 2813 1869 2534 1725 
Q 2256 1581 1919 1581 
Q 1219 1581 811 2004 
Q 403 2428 403 3163 
Q 403 3881 828 4315 
Q 1253 4750 1959 4750 
Q 2769 4750 3195 4129 
Q 3622 3509 3622 2328 
Q 3622 1225 3098 567 
Q 2575 -91 1691 -91 
Q 1453 -91 1209 -44 
Q 966 3 703 97 
z
M 1959 2075 
Q 2384 2075 2632 2365 
Q 2881 2656 2881 3163 
Q 2881 3666 2632 3958 
Q 2384 4250 1959 4250 
Q 1534 4250 1286 3958 
Q 1038 3666 1038 3163 
Q 1038 2656 1286 2365 
Q 1534 2075 1959 2075 
z
" transform="scale(0.015625)"/>
     <path id="DejaVuSans-29" d="M 513 4856 
L 1013 4856 
Q 1481 4119 1714 3412 
Q 1947 2706 1947 2009 
Q 1947 1309 1714 600 
Q 1481 -109 1013 -844 
L 513 -844 
Q 928 -128 1133 580 
Q 1338 1288 1338 2009 
Q 1338 2731 1133 3434 
Q 928 4138 513 4856 
z
" transform="scale(0.015625)"/>
    </defs>
    <use xlink:href="#DejaVuSans-44"/>
    <use xlink:href="#DejaVuSans-46" x="77.001953"/>
    <use xlink:href="#DejaVuSans-46" x="134.521484"/>
    <use xlink:href="#DejaVuSans-20" x="192.041016"/>
    <use xlink:href="#DejaVuSans-75" x="223.828125"/>
    <use xlink:href="#DejaVuSans-6e" x="287.207031"/>
    <use xlink:href="#DejaVuSans-64" x="350.585938"/>
    <use xlink:href="#DejaVuSans-65" x="414.0625"/>
    <use xlink:href="#DejaVuSans-72" x="475.585938"/>
    <use xlink:href="#DejaVuSans-20" x="516.699219"/>
    <use xlink:href="#DejaVuSans-42" x="548.486328"/>
    <use xlink:href="#DejaVuSans-42" x="617.089844"/>
    <use xlink:href="#DejaVuSans-49" x="685.693359"/>
    <use xlink:href="#DejaVuSans-20" x="715.185547"/>
    <use xlink:href="#DejaVuSans-73" x="746.972656"/>
    <use xlink:href="#DejaVuSans-77" x="799.072266"/>
    <use xlink:href="#DejaVuSans-65" x="880.859375"/>
    <use xlink:href="#DejaVuSans-65" x="942.382812"/>
    <use xlink:href="#DejaVuSans-70" x="1003.90625"/>
    <use xlink:href="#DejaVuSans-20" x="1067.382812"/>
    <use xlink:href="#DejaVuSans-61" x="1099.169922"/>
    <use xlink:href="#DejaVuSans-6e" x="1160.449219"/>
    <use xlink:href="#DejaVuSans-61" x="1223.828125"/>
    <use xlink:href="#DejaVuSans-6c" x="1285.107422"/>
    <use xlink:href="#DejaVuSans-79" x="1312.890625"/>
    <use xlink:href="#DejaVuSans-73" x="1372.070312"/>
    <use xlink:href="#DejaVuSans-69" x="1424.169922"/>
    <use xlink:href="#DejaVuSans-73" x="1451.953125"/>
    <use xlink:href="#DejaVuSans-20" x="1504.052734"/>
    <use xlink:href="#DejaVuSans-28" x="1535.839844"/>
    <use xlink:href="#DejaVuSans-53" x="1574.853516"/>
    <use xlink:href="#DejaVuSans-77" x="1638.330078"/>
    <use xlink:href="#DejaVuSans-65" x="1720.117188"/>
    <use xlink:href="#DejaVuSans-65" x="1781.640625"/>
    <use xlink:href="#DejaVuSans-70" x="1843.164062"/>
    <use xlink:href="#DejaVuSans-20" x="1906.640625"/>
    <use xlink:href="#DejaVuSans-3d" x="1938.427734"/>
    <use xlink:href="#DejaVuSans-20" x="2022.216797"/>
    <use xlink:href="#DejaVuSans-31" x="2054.003906"/>
    <use xlink:href="#DejaVuSans-31" x="2117.626953"/>
    <use xlink:href="#DejaVuSans-33" x="2181.25"/>
    <use xlink:href="#DejaVuSans-45" x="2244.873047"/>
    <use xlink:href="#DejaVuSans-2d" x="2308.056641"/>
    <use xlink:href="#DejaVuSans-39" x="2344.140625"/>
    <use xlink:href="#DejaVuSans-29" x="2407.763672"/>
   </g>
  </g>
 </g>
 <defs>
  <clipPath id="p2d89f27a7b">
   <rect x="100.8" y="38.88" width="887.04" height="92.731034"/>
  </clipPath>
  <clipPath id="p2cdc04d75c">
   <rect x="100.8" y="150.157241" width="887.04" height="92.731034"/>
  </clipPath>
  <clipPath id="pd4587254df">
   <rect x="100.8" y="261.434483" width="887.04" height="92.731034"/>
  </clipPath>
  <clipPath id="p6d01ba8cbd">
   <rect x="100.8" y="372.711724" width="887.04" height="92.731034"/>
  </clipPath>
  <clipPath id="p270c269cef">
   <rect x="100.8" y="483.988966" width="887.04" height="92.731034"/>
  </clipPath>
  <clipPath id="p9431a5dfb9">
   <rect x="201.6" y="609.12" width="655.2" height="25.92"/>
  </clipPath>
  <clipPath id="p39bfcdeb51">
   <path d="M 201.6 628.56 
L 856.8 628.56 
L 856.8 615.6 
L 201.6 615.6 
z
"/>
  </clipPath>
 </defs>
</svg>
