<?xml version="1.0" encoding="utf-8" standalone="no"?>
<!DOCTYPE svg PUBLIC "-//W3C//DTD SVG 1.1//EN"
  "http://www.w3.org/Graphics/SVG/1.1/DTD/svg11.dtd">
<svg xmlns:xlink="http://www.w3.org/1999/xlink" width="1008pt" height="648pt" viewBox="0 0 1008 648" xmlns="http://www.w3.org/2000/svg" version="1.1">
 <metadata>
  <rdf:RDF xmlns:dc="http://purl.org/dc/elements/1.1/" xmlns:cc="http://creativecommons.org/ns#" xmlns:rdf="http://www.w3.org/1999/02/22-rdf-syntax-ns#">
   <cc:Work>
    <dc:type rdf:resource="http://purl.org/dc/dcmitype/StillImage"/>
    <dc:date>2024-06-03T10:45:31.945404</dc:date>
    <dc:format>image/svg+xml</dc:format>
    <dc:creator>
     <cc:Agent>
      <dc:title>Matplotlib v3.9.0, https://matplotlib.org/</dc:title>
     </cc:Agent>
    </dc:creator>
   </cc:Work>
  </rdf:RDF>
 </metadata>
 <defs>
  <style type="text/css">*{stroke-linejoin: round; stroke-linecap: butt}</style>
 </defs>
 <g id="figure_1">
  <g id="patch_1">
   <path d="M 0 648 
L 1008 648 
L 1008 0 
L 0 0 
z
" style="fill: #ffffff"/>
  </g>
  <g id="axes_1">
   <g id="patch_2">
    <path d="M 100.8 131.611034 
L 987.84 131.611034 
L 987.84 38.88 
L 100.8 38.88 
z
" style="fill: #eeeeee"/>
   </g>
   <g id="matplotlib.axis_1">
    <g id="xtick_1">
     <g id="line2d_1">
      <path d="M 141.12 131.611034 
L 141.12 38.88 
" clip-path="url(#p0814cb306f)" style="fill: none; stroke-dasharray: 1.85,0.8; stroke-dashoffset: 0; stroke: #b2b2b2; stroke-width: 0.5"/>
     </g>
     <g id="line2d_2">
      <defs>
       <path id="me8380f914d" d="M 0 0 
L 0 -3.5 
" style="stroke: #000000; stroke-width: 0.8"/>
      </defs>
      <g>
       <use xlink:href="#me8380f914d" x="141.12" y="131.611034" style="stroke: #000000; stroke-width: 0.8"/>
      </g>
     </g>
    </g>
    <g id="xtick_2">
     <g id="line2d_3">
      <path d="M 302.4 131.611034 
L 302.4 38.88 
" clip-path="url(#p0814cb306f)" style="fill: none; stroke-dasharray: 1.85,0.8; stroke-dashoffset: 0; stroke: #b2b2b2; stroke-width: 0.5"/>
     </g>
     <g id="line2d_4">
      <g>
       <use xlink:href="#me8380f914d" x="302.4" y="131.611034" style="stroke: #000000; stroke-width: 0.8"/>
      </g>
     </g>
    </g>
    <g id="xtick_3">
     <g id="line2d_5">
      <path d="M 463.68 131.611034 
L 463.68 38.88 
" clip-path="url(#p0814cb306f)" style="fill: none; stroke-dasharray: 1.85,0.8; stroke-dashoffset: 0; stroke: #b2b2b2; stroke-width: 0.5"/>
     </g>
     <g id="line2d_6">
      <g>
       <use xlink:href="#me8380f914d" x="463.68" y="131.611034" style="stroke: #000000; stroke-width: 0.8"/>
      </g>
     </g>
    </g>
    <g id="xtick_4">
     <g id="line2d_7">
      <path d="M 624.96 131.611034 
L 624.96 38.88 
" clip-path="url(#p0814cb306f)" style="fill: none; stroke-dasharray: 1.85,0.8; stroke-dashoffset: 0; stroke: #b2b2b2; stroke-width: 0.5"/>
     </g>
     <g id="line2d_8">
      <g>
       <use xlink:href="#me8380f914d" x="624.96" y="131.611034" style="stroke: #000000; stroke-width: 0.8"/>
      </g>
     </g>
    </g>
    <g id="xtick_5">
     <g id="line2d_9">
      <path d="M 786.24 131.611034 
L 786.24 38.88 
" clip-path="url(#p0814cb306f)" style="fill: none; stroke-dasharray: 1.85,0.8; stroke-dashoffset: 0; stroke: #b2b2b2; stroke-width: 0.5"/>
     </g>
     <g id="line2d_10">
      <g>
       <use xlink:href="#me8380f914d" x="786.24" y="131.611034" style="stroke: #000000; stroke-width: 0.8"/>
      </g>
     </g>
    </g>
    <g id="xtick_6">
     <g id="line2d_11">
      <path d="M 947.52 131.611034 
L 947.52 38.88 
" clip-path="url(#p0814cb306f)" style="fill: none; stroke-dasharray: 1.85,0.8; stroke-dashoffset: 0; stroke: #b2b2b2; stroke-width: 0.5"/>
     </g>
     <g id="line2d_12">
      <g>
       <use xlink:href="#me8380f914d" x="947.52" y="131.611034" style="stroke: #000000; stroke-width: 0.8"/>
      </g>
     </g>
    </g>
   </g>
   <g id="matplotlib.axis_2">
    <g id="ytick_1">
     <g id="line2d_13">
      <path d="M 100.8 98.340394 
L 987.84 98.340394 
" clip-path="url(#p0814cb306f)" style="fill: none; stroke-dasharray: 1.85,0.8; stroke-dashoffset: 0; stroke: #b2b2b2; stroke-width: 0.5"/>
     </g>
     <g id="line2d_14">
      <defs>
       <path id="mf86c24a9aa" d="M 0 0 
L 3.5 0 
" style="stroke: #000000; stroke-width: 0.8"/>
      </defs>
      <g>
       <use xlink:href="#mf86c24a9aa" x="100.8" y="98.340394" style="stroke: #000000; stroke-width: 0.8"/>
      </g>
     </g>
     <g id="text_1">
      <!-- −200 V -->
      <g transform="translate(44.819688 103.6593) scale(0.14 -0.14)">
       <defs>
        <path id="DejaVuSans-2212" d="M 678 2272 
L 4684 2272 
L 4684 1741 
L 678 1741 
L 678 2272 
z
" transform="scale(0.015625)"/>
        <path id="DejaVuSans-32" d="M 1228 531 
L 3431 531 
L 3431 0 
L 469 0 
L 469 531 
Q 828 903 1448 1529 
Q 2069 2156 2228 2338 
Q 2531 2678 2651 2914 
Q 2772 3150 2772 3378 
Q 2772 3750 2511 3984 
Q 2250 4219 1831 4219 
Q 1534 4219 1204 4116 
Q 875 4013 500 3803 
L 500 4441 
Q 881 4594 1212 4672 
Q 1544 4750 1819 4750 
Q 2544 4750 2975 4387 
Q 3406 4025 3406 3419 
Q 3406 3131 3298 2873 
Q 3191 2616 2906 2266 
Q 2828 2175 2409 1742 
Q 1991 1309 1228 531 
z
" transform="scale(0.015625)"/>
        <path id="DejaVuSans-30" d="M 2034 4250 
Q 1547 4250 1301 3770 
Q 1056 3291 1056 2328 
Q 1056 1369 1301 889 
Q 1547 409 2034 409 
Q 2525 409 2770 889 
Q 3016 1369 3016 2328 
Q 3016 3291 2770 3770 
Q 2525 4250 2034 4250 
z
M 2034 4750 
Q 2819 4750 3233 4129 
Q 3647 3509 3647 2328 
Q 3647 1150 3233 529 
Q 2819 -91 2034 -91 
Q 1250 -91 836 529 
Q 422 1150 422 2328 
Q 422 3509 836 4129 
Q 1250 4750 2034 4750 
z
" transform="scale(0.015625)"/>
        <path id="DejaVuSans-20" transform="scale(0.015625)"/>
        <path id="DejaVuSans-56" d="M 1831 0 
L 50 4666 
L 709 4666 
L 2188 738 
L 3669 4666 
L 4325 4666 
L 2547 0 
L 1831 0 
z
" transform="scale(0.015625)"/>
       </defs>
       <use xlink:href="#DejaVuSans-2212"/>
       <use xlink:href="#DejaVuSans-32" x="83.789062"/>
       <use xlink:href="#DejaVuSans-30" x="147.412109"/>
       <use xlink:href="#DejaVuSans-30" x="211.035156"/>
       <use xlink:href="#DejaVuSans-20" x="274.658203"/>
       <use xlink:href="#DejaVuSans-56" x="306.445312"/>
      </g>
     </g>
    </g>
    <g id="ytick_2">
     <g id="line2d_15">
      <path d="M 100.8 45.027377 
L 987.84 45.027377 
" clip-path="url(#p0814cb306f)" style="fill: none; stroke-dasharray: 1.85,0.8; stroke-dashoffset: 0; stroke: #b2b2b2; stroke-width: 0.5"/>
     </g>
     <g id="line2d_16">
      <g>
       <use xlink:href="#mf86c24a9aa" x="100.8" y="45.027377" style="stroke: #000000; stroke-width: 0.8"/>
      </g>
     </g>
     <g id="text_2">
      <!-- 0 V -->
      <g transform="translate(74.36625 50.346284) scale(0.14 -0.14)">
       <use xlink:href="#DejaVuSans-30"/>
       <use xlink:href="#DejaVuSans-20" x="63.623047"/>
       <use xlink:href="#DejaVuSans-56" x="95.410156"/>
      </g>
     </g>
    </g>
    <g id="text_3">
     <g id="patch_3">
      <path d="M 34.8768 131.080205 
L 34.8768 39.41083 
L 11.247425 39.41083 
L 11.247425 131.080205 
z
" style="fill: #ffff00; opacity: 0.2; stroke: #eeeeee; stroke-width: 0.5; stroke-linejoin: miter"/>
     </g>
     <!-- VPULSE BBI -->
     <g transform="translate(26.925238 126.040205) rotate(-90) scale(0.14 -0.14)">
      <defs>
       <path id="DejaVuSans-50" d="M 1259 4147 
L 1259 2394 
L 2053 2394 
Q 2494 2394 2734 2622 
Q 2975 2850 2975 3272 
Q 2975 3691 2734 3919 
Q 2494 4147 2053 4147 
L 1259 4147 
z
M 628 4666 
L 2053 4666 
Q 2838 4666 3239 4311 
Q 3641 3956 3641 3272 
Q 3641 2581 3239 2228 
Q 2838 1875 2053 1875 
L 1259 1875 
L 1259 0 
L 628 0 
L 628 4666 
z
" transform="scale(0.015625)"/>
       <path id="DejaVuSans-55" d="M 556 4666 
L 1191 4666 
L 1191 1831 
Q 1191 1081 1462 751 
Q 1734 422 2344 422 
Q 2950 422 3222 751 
Q 3494 1081 3494 1831 
L 3494 4666 
L 4128 4666 
L 4128 1753 
Q 4128 841 3676 375 
Q 3225 -91 2344 -91 
Q 1459 -91 1007 375 
Q 556 841 556 1753 
L 556 4666 
z
" transform="scale(0.015625)"/>
       <path id="DejaVuSans-4c" d="M 628 4666 
L 1259 4666 
L 1259 531 
L 3531 531 
L 3531 0 
L 628 0 
L 628 4666 
z
" transform="scale(0.015625)"/>
       <path id="DejaVuSans-53" d="M 3425 4513 
L 3425 3897 
Q 3066 4069 2747 4153 
Q 2428 4238 2131 4238 
Q 1616 4238 1336 4038 
Q 1056 3838 1056 3469 
Q 1056 3159 1242 3001 
Q 1428 2844 1947 2747 
L 2328 2669 
Q 3034 2534 3370 2195 
Q 3706 1856 3706 1288 
Q 3706 609 3251 259 
Q 2797 -91 1919 -91 
Q 1588 -91 1214 -16 
Q 841 59 441 206 
L 441 856 
Q 825 641 1194 531 
Q 1563 422 1919 422 
Q 2459 422 2753 634 
Q 3047 847 3047 1241 
Q 3047 1584 2836 1778 
Q 2625 1972 2144 2069 
L 1759 2144 
Q 1053 2284 737 2584 
Q 422 2884 422 3419 
Q 422 4038 858 4394 
Q 1294 4750 2059 4750 
Q 2388 4750 2728 4690 
Q 3069 4631 3425 4513 
z
" transform="scale(0.015625)"/>
       <path id="DejaVuSans-45" d="M 628 4666 
L 3578 4666 
L 3578 4134 
L 1259 4134 
L 1259 2753 
L 3481 2753 
L 3481 2222 
L 1259 2222 
L 1259 531 
L 3634 531 
L 3634 0 
L 628 0 
L 628 4666 
z
" transform="scale(0.015625)"/>
       <path id="DejaVuSans-42" d="M 1259 2228 
L 1259 519 
L 2272 519 
Q 2781 519 3026 730 
Q 3272 941 3272 1375 
Q 3272 1813 3026 2020 
Q 2781 2228 2272 2228 
L 1259 2228 
z
M 1259 4147 
L 1259 2741 
L 2194 2741 
Q 2656 2741 2882 2914 
Q 3109 3088 3109 3444 
Q 3109 3797 2882 3972 
Q 2656 4147 2194 4147 
L 1259 4147 
z
M 628 4666 
L 2241 4666 
Q 2963 4666 3353 4366 
Q 3744 4066 3744 3513 
Q 3744 3084 3544 2831 
Q 3344 2578 2956 2516 
Q 3422 2416 3680 2098 
Q 3938 1781 3938 1306 
Q 3938 681 3513 340 
Q 3088 0 2303 0 
L 628 0 
L 628 4666 
z
" transform="scale(0.015625)"/>
       <path id="DejaVuSans-49" d="M 628 4666 
L 1259 4666 
L 1259 0 
L 628 0 
L 628 4666 
z
" transform="scale(0.015625)"/>
      </defs>
      <use xlink:href="#DejaVuSans-56"/>
      <use xlink:href="#DejaVuSans-50" x="68.408203"/>
      <use xlink:href="#DejaVuSans-55" x="128.710938"/>
      <use xlink:href="#DejaVuSans-4c" x="201.904297"/>
      <use xlink:href="#DejaVuSans-53" x="257.617188"/>
      <use xlink:href="#DejaVuSans-45" x="321.09375"/>
      <use xlink:href="#DejaVuSans-20" x="384.277344"/>
      <use xlink:href="#DejaVuSans-42" x="416.064453"/>
      <use xlink:href="#DejaVuSans-42" x="484.667969"/>
      <use xlink:href="#DejaVuSans-49" x="553.271484"/>
     </g>
    </g>
   </g>
   <g id="line2d_17">
    <path d="M 141.12 45.027377 
L 237.920256 45.136282 
L 238.404096 46.425538 
L 246.629376 69.006772 
L 254.048256 89.863624 
L 255.661056 94.440546 
L 257.467392 99.673219 
L 260.95104 110.807642 
L 262.531584 115.853719 
L 263.757312 119.550977 
L 267.660288 121.36362 
L 268.240896 121.619522 
L 269.111808 122.003376 
L 269.756928 122.269941 
L 271.337472 122.936354 
L 271.982592 123.202919 
L 273.079296 123.629423 
L 273.821184 123.922644 
L 274.917888 124.349149 
L 275.821056 124.677024 
L 276.498432 124.943589 
L 277.304832 125.25547 
L 278.659584 125.804594 
L 281.304576 126.790885 
L 281.91744 127.022796 
L 283.8528 127.395987 
L 302.335488 127.289361 
L 302.56128 126.801547 
L 320.850432 75.087922 
L 324.592128 63.292417 
L 328.301568 51.617666 
L 332.914176 49.3412 
L 338.268672 46.984578 
L 346.977792 43.484472 
L 347.848704 43.268927 
L 362.138112 43.108189 
L 368.944128 43.184799 
L 384.297984 43.746186 
L 412.0704 44.46146 
L 437.71392 44.774399 
L 473.324544 44.945888 
L 521.353728 44.953885 
L 947.52 44.953885 
L 947.52 44.953885 
" clip-path="url(#p0814cb306f)" style="fill: none; stroke: #ff0000; stroke-width: 2; stroke-linecap: square"/>
   </g>
   <g id="patch_4">
    <path d="M 100.8 131.611034 
L 100.8 38.88 
" style="fill: none; stroke: #bcbcbc; stroke-width: 0.8; stroke-linejoin: miter; stroke-linecap: square"/>
   </g>
   <g id="patch_5">
    <path d="M 987.84 131.611034 
L 987.84 38.88 
" style="fill: none; stroke: #bcbcbc; stroke-width: 0.8; stroke-linejoin: miter; stroke-linecap: square"/>
   </g>
   <g id="patch_6">
    <path d="M 100.8 131.611034 
L 987.84 131.611034 
" style="fill: none; stroke: #bcbcbc; stroke-width: 0.8; stroke-linejoin: miter; stroke-linecap: square"/>
   </g>
   <g id="patch_7">
    <path d="M 100.8 38.88 
L 987.84 38.88 
" style="fill: none; stroke: #bcbcbc; stroke-width: 0.8; stroke-linejoin: miter; stroke-linecap: square"/>
   </g>
  </g>
  <g id="axes_2">
   <g id="patch_8">
    <path d="M 100.8 242.888276 
L 987.84 242.888276 
L 987.84 150.157241 
L 100.8 150.157241 
z
" style="fill: #eeeeee"/>
   </g>
   <g id="matplotlib.axis_3">
    <g id="xtick_7">
     <g id="line2d_18">
      <path d="M 141.12 242.888276 
L 141.12 150.157241 
" clip-path="url(#pf8a8bb0b4c)" style="fill: none; stroke-dasharray: 1.85,0.8; stroke-dashoffset: 0; stroke: #b2b2b2; stroke-width: 0.5"/>
     </g>
     <g id="line2d_19">
      <g>
       <use xlink:href="#me8380f914d" x="141.12" y="242.888276" style="stroke: #000000; stroke-width: 0.8"/>
      </g>
     </g>
    </g>
    <g id="xtick_8">
     <g id="line2d_20">
      <path d="M 302.4 242.888276 
L 302.4 150.157241 
" clip-path="url(#pf8a8bb0b4c)" style="fill: none; stroke-dasharray: 1.85,0.8; stroke-dashoffset: 0; stroke: #b2b2b2; stroke-width: 0.5"/>
     </g>
     <g id="line2d_21">
      <g>
       <use xlink:href="#me8380f914d" x="302.4" y="242.888276" style="stroke: #000000; stroke-width: 0.8"/>
      </g>
     </g>
    </g>
    <g id="xtick_9">
     <g id="line2d_22">
      <path d="M 463.68 242.888276 
L 463.68 150.157241 
" clip-path="url(#pf8a8bb0b4c)" style="fill: none; stroke-dasharray: 1.85,0.8; stroke-dashoffset: 0; stroke: #b2b2b2; stroke-width: 0.5"/>
     </g>
     <g id="line2d_23">
      <g>
       <use xlink:href="#me8380f914d" x="463.68" y="242.888276" style="stroke: #000000; stroke-width: 0.8"/>
      </g>
     </g>
    </g>
    <g id="xtick_10">
     <g id="line2d_24">
      <path d="M 624.96 242.888276 
L 624.96 150.157241 
" clip-path="url(#pf8a8bb0b4c)" style="fill: none; stroke-dasharray: 1.85,0.8; stroke-dashoffset: 0; stroke: #b2b2b2; stroke-width: 0.5"/>
     </g>
     <g id="line2d_25">
      <g>
       <use xlink:href="#me8380f914d" x="624.96" y="242.888276" style="stroke: #000000; stroke-width: 0.8"/>
      </g>
     </g>
    </g>
    <g id="xtick_11">
     <g id="line2d_26">
      <path d="M 786.24 242.888276 
L 786.24 150.157241 
" clip-path="url(#pf8a8bb0b4c)" style="fill: none; stroke-dasharray: 1.85,0.8; stroke-dashoffset: 0; stroke: #b2b2b2; stroke-width: 0.5"/>
     </g>
     <g id="line2d_27">
      <g>
       <use xlink:href="#me8380f914d" x="786.24" y="242.888276" style="stroke: #000000; stroke-width: 0.8"/>
      </g>
     </g>
    </g>
    <g id="xtick_12">
     <g id="line2d_28">
      <path d="M 947.52 242.888276 
L 947.52 150.157241 
" clip-path="url(#pf8a8bb0b4c)" style="fill: none; stroke-dasharray: 1.85,0.8; stroke-dashoffset: 0; stroke: #b2b2b2; stroke-width: 0.5"/>
     </g>
     <g id="line2d_29">
      <g>
       <use xlink:href="#me8380f914d" x="947.52" y="242.888276" style="stroke: #000000; stroke-width: 0.8"/>
      </g>
     </g>
    </g>
   </g>
   <g id="matplotlib.axis_4">
    <g id="ytick_3">
     <g id="line2d_30">
      <path d="M 100.8 216.560442 
L 987.84 216.560442 
" clip-path="url(#pf8a8bb0b4c)" style="fill: none; stroke-dasharray: 1.85,0.8; stroke-dashoffset: 0; stroke: #b2b2b2; stroke-width: 0.5"/>
     </g>
     <g id="line2d_31">
      <g>
       <use xlink:href="#mf86c24a9aa" x="100.8" y="216.560442" style="stroke: #000000; stroke-width: 0.8"/>
      </g>
     </g>
     <g id="text_4">
      <!-- 0 V -->
      <g transform="translate(74.36625 221.879348) scale(0.14 -0.14)">
       <use xlink:href="#DejaVuSans-30"/>
       <use xlink:href="#DejaVuSans-20" x="63.623047"/>
       <use xlink:href="#DejaVuSans-56" x="95.410156"/>
      </g>
     </g>
    </g>
    <g id="ytick_4">
     <g id="line2d_32">
      <path d="M 100.8 178.351943 
L 987.84 178.351943 
" clip-path="url(#pf8a8bb0b4c)" style="fill: none; stroke-dasharray: 1.85,0.8; stroke-dashoffset: 0; stroke: #b2b2b2; stroke-width: 0.5"/>
     </g>
     <g id="line2d_33">
      <g>
       <use xlink:href="#mf86c24a9aa" x="100.8" y="178.351943" style="stroke: #000000; stroke-width: 0.8"/>
      </g>
     </g>
     <g id="text_5">
      <!-- 1 V -->
      <g transform="translate(74.36625 183.670849) scale(0.14 -0.14)">
       <defs>
        <path id="DejaVuSans-31" d="M 794 531 
L 1825 531 
L 1825 4091 
L 703 3866 
L 703 4441 
L 1819 4666 
L 2450 4666 
L 2450 531 
L 3481 531 
L 3481 0 
L 794 0 
L 794 531 
z
" transform="scale(0.015625)"/>
       </defs>
       <use xlink:href="#DejaVuSans-31"/>
       <use xlink:href="#DejaVuSans-20" x="63.623047"/>
       <use xlink:href="#DejaVuSans-56" x="95.410156"/>
      </g>
     </g>
    </g>
    <g id="text_6">
     <g id="patch_9">
      <path d="M 34.8768 224.531509 
L 34.8768 168.514009 
L 11.247425 168.514009 
L 11.247425 224.531509 
z
" style="fill: #ffff00; opacity: 0.2; stroke: #eeeeee; stroke-width: 0.5; stroke-linejoin: miter"/>
     </g>
     <!-- DFF IN -->
     <g transform="translate(26.925238 219.491509) rotate(-90) scale(0.14 -0.14)">
      <defs>
       <path id="DejaVuSans-44" d="M 1259 4147 
L 1259 519 
L 2022 519 
Q 2988 519 3436 956 
Q 3884 1394 3884 2338 
Q 3884 3275 3436 3711 
Q 2988 4147 2022 4147 
L 1259 4147 
z
M 628 4666 
L 1925 4666 
Q 3281 4666 3915 4102 
Q 4550 3538 4550 2338 
Q 4550 1131 3912 565 
Q 3275 0 1925 0 
L 628 0 
L 628 4666 
z
" transform="scale(0.015625)"/>
       <path id="DejaVuSans-46" d="M 628 4666 
L 3309 4666 
L 3309 4134 
L 1259 4134 
L 1259 2759 
L 3109 2759 
L 3109 2228 
L 1259 2228 
L 1259 0 
L 628 0 
L 628 4666 
z
" transform="scale(0.015625)"/>
       <path id="DejaVuSans-4e" d="M 628 4666 
L 1478 4666 
L 3547 763 
L 3547 4666 
L 4159 4666 
L 4159 0 
L 3309 0 
L 1241 3903 
L 1241 0 
L 628 0 
L 628 4666 
z
" transform="scale(0.015625)"/>
      </defs>
      <use xlink:href="#DejaVuSans-44"/>
      <use xlink:href="#DejaVuSans-46" x="77.001953"/>
      <use xlink:href="#DejaVuSans-46" x="134.521484"/>
      <use xlink:href="#DejaVuSans-20" x="192.041016"/>
      <use xlink:href="#DejaVuSans-49" x="223.828125"/>
      <use xlink:href="#DejaVuSans-4e" x="253.320312"/>
     </g>
    </g>
   </g>
   <g id="line2d_34">
    <path d="M 141.12 216.504642 
L 221.953536 216.452381 
L 224.437248 195.162918 
L 225.501696 187.983923 
L 227.695104 176.151133 
L 229.082112 173.140303 
L 229.759488 172.567176 
L 230.79168 172.081928 
L 231.75936 171.852677 
L 234.6624 171.619605 
L 237.984768 171.680739 
L 238.404096 172.574817 
L 239.404032 174.573122 
L 241.565184 177.698577 
L 246.564864 184.997165 
L 247.209984 186.249639 
L 247.790592 188.311752 
L 250.048512 198.031994 
L 250.596864 200.919411 
L 251.532288 205.810481 
L 253.112832 212.499643 
L 255.370752 221.006001 
L 255.79008 221.921094 
L 256.564224 224.009953 
L 256.854528 224.338546 
L 256.983552 224.580024 
L 257.177088 224.831818 
L 257.306112 225.166906 
L 257.854464 226.773574 
L 258.144768 227.187372 
L 258.241536 227.429614 
L 258.596352 228.424181 
L 258.918912 229.178035 
L 259.402752 230.103445 
L 259.757568 230.658614 
L 262.499328 236.462485 
L 263.789568 238.672465 
L 263.950848 238.61668 
L 264.17664 238.216637 
L 264.98304 236.812093 
L 265.370112 235.896235 
L 265.46688 235.820582 
L 265.757184 235.382713 
L 266.176512 235.020114 
L 266.628096 234.35414 
L 267.015168 233.567045 
L 267.305472 233.337412 
L 267.499008 233.15936 
L 267.7248 232.928581 
L 267.918336 232.798672 
L 268.982784 231.708201 
L 269.208576 231.234798 
L 269.49888 230.773622 
L 269.789184 230.541696 
L 269.885952 230.561182 
L 270.30528 230.188267 
L 270.821376 229.874958 
L 271.59552 229.084042 
L 272.40192 228.058144 
L 273.627648 227.136172 
L 274.724352 225.93719 
L 275.079168 225.240649 
L 275.530752 224.982741 
L 276.240384 224.660644 
L 279.17568 222.096471 
L 280.30464 221.146226 
L 284.01408 217.486998 
L 284.723712 216.298412 
L 285.562368 215.029695 
L 286.11072 214.186777 
L 286.949376 212.81727 
L 290.433024 207.84088 
L 291.1104 207.028186 
L 292.142592 205.946503 
L 292.981248 205.541493 
L 293.594112 205.483034 
L 294.336 205.623259 
L 294.49728 205.655736 
L 295.1424 206.009929 
L 295.916544 206.663294 
L 296.884224 207.753001 
L 298.174464 209.653874 
L 298.271232 209.764296 
L 298.722816 210.471153 
L 301.43232 213.640663 
L 302.367744 214.226896 
L 302.625792 214.003109 
L 303.464448 213.14487 
L 304.49664 212.748991 
L 305.915904 212.417112 
L 307.270656 212.38005 
L 308.883456 212.548167 
L 310.14144 212.73195 
L 310.560768 212.783379 
L 311.2704 212.889828 
L 311.851008 212.965328 
L 312.367104 213.020081 
L 312.786432 213.085761 
L 313.786368 213.203634 
L 314.915328 213.320705 
L 315.3024 213.33702 
L 317.23776 213.468725 
L 319.97952 213.604136 
L 320.46336 213.612847 
L 320.979456 213.617967 
L 321.689088 213.606849 
L 322.011648 213.558935 
L 323.68896 213.300072 
L 324.1728 213.27134 
L 325.688832 213.094052 
L 326.075904 213.039796 
L 326.721024 212.97381 
L 327.23712 212.903354 
L 327.88224 212.797516 
L 328.333824 212.914358 
L 330.591744 214.643101 
L 331.365888 214.957443 
L 332.462592 215.208549 
L 334.623744 215.522699 
L 338.784768 215.821872 
L 339.17184 215.869518 
L 347.687424 216.23933 
L 347.751936 215.522584 
L 348.913152 197.527642 
L 350.042112 182.953774 
L 351.042048 172.593922 
L 352.23552 162.441923 
L 352.848384 158.594328 
L 353.36448 156.561635 
L 353.84832 155.442126 
L 354.461184 154.69324 
L 355.13856 154.406676 
L 356.396544 154.517481 
L 357.525504 154.895745 
L 360.073728 155.915912 
L 361.622016 156.527248 
L 374.524416 160.997642 
L 375.072768 161.200147 
L 376.653312 165.762242 
L 376.975872 165.838659 
L 377.427456 165.563558 
L 379.362816 163.878563 
L 380.6208 163.534687 
L 381.556224 163.534687 
L 382.2336 163.561432 
L 382.652928 163.59582 
L 389.878272 164.558674 
L 390.523392 164.6733 
L 392.265216 164.982789 
L 392.620032 165.051564 
L 393.297408 165.158548 
L 394.845696 165.414545 
L 395.587584 165.525349 
L 396.006912 165.601766 
L 396.619776 165.704929 
L 396.974592 165.758421 
L 397.748736 165.865405 
L 399.00672 166.052627 
L 399.845376 166.163431 
L 400.361472 166.236027 
L 401.071104 166.343011 
L 402.038784 166.461458 
L 402.780672 166.572262 
L 403.587072 166.656321 
L 404.49024 166.767126 
L 405.006336 166.835901 
L 413.941248 167.783472 
L 414.521856 167.825501 
L 415.392768 167.86753 
L 415.812096 167.286761 
L 416.42496 166.91996 
L 416.973312 166.897034 
L 417.7152 167.095719 
L 418.295808 167.317328 
L 420.682752 168.058573 
L 421.327872 168.169378 
L 422.489088 168.333674 
L 426.714624 168.727222 
L 427.262976 168.773072 
L 429.262848 168.89916 
L 431.069184 169.009964 
L 432.681984 169.090202 
L 433.327104 169.12459 
L 435.61728 169.235395 
L 436.939776 169.281245 
L 437.617152 169.311812 
L 439.100928 169.380587 
L 439.778304 169.407333 
L 440.13312 169.422616 
L 442.971648 169.533421 
L 444.261888 169.579271 
L 445.003776 169.602196 
L 448.293888 169.705359 
L 448.551936 169.713001 
L 452.261376 169.819985 
L 452.777472 169.831447 
L 455.712768 169.923148 
L 456.551424 170.859256 
L 457.357824 171.122895 
L 458.51904 171.01209 
L 460.228608 170.5192 
L 461.2608 170.38547 
L 463.099392 170.278487 
L 496.09728 170.190607 
L 496.613376 169.579271 
L 497.193984 169.292707 
L 499.00032 169.403512 
L 502.193664 170.049236 
L 504.32256 170.190607 
L 536.352768 170.297591 
L 537.288192 171.23752 
L 538.159104 171.436204 
L 539.449344 171.485875 
L 541.933056 171.008269 
L 548.319744 170.362545 
L 576.705024 170.251741 
L 577.188864 169.648046 
L 577.54368 169.418795 
L 578.253312 169.201007 
L 579.027456 169.307991 
L 582.285312 169.968998 
L 585.317376 170.217353 
L 616.992768 170.297591 
L 617.928192 171.23752 
L 618.799104 171.436204 
L 620.089344 171.485875 
L 622.573056 171.008269 
L 628.959744 170.362545 
L 657.312768 170.297591 
L 657.828864 169.636584 
L 658.34496 169.300349 
L 660.312576 169.411154 
L 661.473792 169.70918 
L 663.247872 170.018669 
L 665.634816 170.190607 
L 697.632768 170.297591 
L 698.568192 171.23752 
L 699.439104 171.436204 
L 700.729344 171.485875 
L 703.213056 171.008269 
L 709.599744 170.362545 
L 737.952768 170.297591 
L 738.468864 169.632763 
L 739.017216 169.300349 
L 740.339712 169.254499 
L 744.210432 170.060698 
L 746.24256 170.190607 
L 778.272768 170.297591 
L 779.208192 171.23752 
L 780.079104 171.436204 
L 781.369344 171.485875 
L 783.8208 171.015911 
L 790.272 170.362545 
L 818.592768 170.297591 
L 819.108864 169.632763 
L 819.657216 169.300349 
L 820.979712 169.254499 
L 824.850432 170.060698 
L 826.88256 170.190607 
L 858.912768 170.297591 
L 859.848192 171.23752 
L 860.719104 171.436204 
L 862.009344 171.485875 
L 864.4608 171.015911 
L 870.944256 170.358725 
L 899.232768 170.297591 
L 899.748864 169.632763 
L 900.297216 169.300349 
L 901.619712 169.254499 
L 905.490432 170.060698 
L 907.52256 170.190607 
L 939.552768 170.297591 
L 940.617216 171.271908 
L 941.520384 171.482054 
L 943.391232 171.37125 
L 944.649216 171.111432 
L 946.745856 170.725526 
L 947.52 170.587976 
L 947.52 170.587976 
" clip-path="url(#pf8a8bb0b4c)" style="fill: none; stroke: #008000; stroke-width: 2; stroke-linecap: square"/>
   </g>
   <g id="patch_10">
    <path d="M 100.8 242.888276 
L 100.8 150.157241 
" style="fill: none; stroke: #bcbcbc; stroke-width: 0.8; stroke-linejoin: miter; stroke-linecap: square"/>
   </g>
   <g id="patch_11">
    <path d="M 987.84 242.888276 
L 987.84 150.157241 
" style="fill: none; stroke: #bcbcbc; stroke-width: 0.8; stroke-linejoin: miter; stroke-linecap: square"/>
   </g>
   <g id="patch_12">
    <path d="M 100.8 242.888276 
L 987.84 242.888276 
" style="fill: none; stroke: #bcbcbc; stroke-width: 0.8; stroke-linejoin: miter; stroke-linecap: square"/>
   </g>
   <g id="patch_13">
    <path d="M 100.8 150.157241 
L 987.84 150.157241 
" style="fill: none; stroke: #bcbcbc; stroke-width: 0.8; stroke-linejoin: miter; stroke-linecap: square"/>
   </g>
  </g>
  <g id="axes_3">
   <g id="patch_14">
    <path d="M 100.8 354.165517 
L 987.84 354.165517 
L 987.84 261.434483 
L 100.8 261.434483 
z
" style="fill: #eeeeee"/>
   </g>
   <g id="matplotlib.axis_5">
    <g id="xtick_13">
     <g id="line2d_35">
      <path d="M 141.12 354.165517 
L 141.12 261.434483 
" clip-path="url(#pb6f1a590c6)" style="fill: none; stroke-dasharray: 1.85,0.8; stroke-dashoffset: 0; stroke: #b2b2b2; stroke-width: 0.5"/>
     </g>
     <g id="line2d_36">
      <g>
       <use xlink:href="#me8380f914d" x="141.12" y="354.165517" style="stroke: #000000; stroke-width: 0.8"/>
      </g>
     </g>
    </g>
    <g id="xtick_14">
     <g id="line2d_37">
      <path d="M 302.4 354.165517 
L 302.4 261.434483 
" clip-path="url(#pb6f1a590c6)" style="fill: none; stroke-dasharray: 1.85,0.8; stroke-dashoffset: 0; stroke: #b2b2b2; stroke-width: 0.5"/>
     </g>
     <g id="line2d_38">
      <g>
       <use xlink:href="#me8380f914d" x="302.4" y="354.165517" style="stroke: #000000; stroke-width: 0.8"/>
      </g>
     </g>
    </g>
    <g id="xtick_15">
     <g id="line2d_39">
      <path d="M 463.68 354.165517 
L 463.68 261.434483 
" clip-path="url(#pb6f1a590c6)" style="fill: none; stroke-dasharray: 1.85,0.8; stroke-dashoffset: 0; stroke: #b2b2b2; stroke-width: 0.5"/>
     </g>
     <g id="line2d_40">
      <g>
       <use xlink:href="#me8380f914d" x="463.68" y="354.165517" style="stroke: #000000; stroke-width: 0.8"/>
      </g>
     </g>
    </g>
    <g id="xtick_16">
     <g id="line2d_41">
      <path d="M 624.96 354.165517 
L 624.96 261.434483 
" clip-path="url(#pb6f1a590c6)" style="fill: none; stroke-dasharray: 1.85,0.8; stroke-dashoffset: 0; stroke: #b2b2b2; stroke-width: 0.5"/>
     </g>
     <g id="line2d_42">
      <g>
       <use xlink:href="#me8380f914d" x="624.96" y="354.165517" style="stroke: #000000; stroke-width: 0.8"/>
      </g>
     </g>
    </g>
    <g id="xtick_17">
     <g id="line2d_43">
      <path d="M 786.24 354.165517 
L 786.24 261.434483 
" clip-path="url(#pb6f1a590c6)" style="fill: none; stroke-dasharray: 1.85,0.8; stroke-dashoffset: 0; stroke: #b2b2b2; stroke-width: 0.5"/>
     </g>
     <g id="line2d_44">
      <g>
       <use xlink:href="#me8380f914d" x="786.24" y="354.165517" style="stroke: #000000; stroke-width: 0.8"/>
      </g>
     </g>
    </g>
    <g id="xtick_18">
     <g id="line2d_45">
      <path d="M 947.52 354.165517 
L 947.52 261.434483 
" clip-path="url(#pb6f1a590c6)" style="fill: none; stroke-dasharray: 1.85,0.8; stroke-dashoffset: 0; stroke: #b2b2b2; stroke-width: 0.5"/>
     </g>
     <g id="line2d_46">
      <g>
       <use xlink:href="#me8380f914d" x="947.52" y="354.165517" style="stroke: #000000; stroke-width: 0.8"/>
      </g>
     </g>
    </g>
   </g>
   <g id="matplotlib.axis_6">
    <g id="ytick_5">
     <g id="line2d_47">
      <path d="M 100.8 348.402211 
L 987.84 348.402211 
" clip-path="url(#pb6f1a590c6)" style="fill: none; stroke-dasharray: 1.85,0.8; stroke-dashoffset: 0; stroke: #b2b2b2; stroke-width: 0.5"/>
     </g>
     <g id="line2d_48">
      <g>
       <use xlink:href="#mf86c24a9aa" x="100.8" y="348.402211" style="stroke: #000000; stroke-width: 0.8"/>
      </g>
     </g>
     <g id="text_7">
      <!-- 0 V -->
      <g transform="translate(74.36625 353.721117) scale(0.14 -0.14)">
       <use xlink:href="#DejaVuSans-30"/>
       <use xlink:href="#DejaVuSans-20" x="63.623047"/>
       <use xlink:href="#DejaVuSans-56" x="95.410156"/>
      </g>
     </g>
    </g>
    <g id="ytick_6">
     <g id="line2d_49">
      <path d="M 100.8 304.489937 
L 987.84 304.489937 
" clip-path="url(#pb6f1a590c6)" style="fill: none; stroke-dasharray: 1.85,0.8; stroke-dashoffset: 0; stroke: #b2b2b2; stroke-width: 0.5"/>
     </g>
     <g id="line2d_50">
      <g>
       <use xlink:href="#mf86c24a9aa" x="100.8" y="304.489937" style="stroke: #000000; stroke-width: 0.8"/>
      </g>
     </g>
     <g id="text_8">
      <!-- 1 V -->
      <g transform="translate(74.36625 309.808843) scale(0.14 -0.14)">
       <use xlink:href="#DejaVuSans-31"/>
       <use xlink:href="#DejaVuSans-20" x="63.623047"/>
       <use xlink:href="#DejaVuSans-56" x="95.410156"/>
      </g>
     </g>
    </g>
    <g id="text_9">
     <g id="patch_15">
      <path d="M 34.8768 342.395313 
L 34.8768 273.204688 
L 11.247425 273.204688 
L 11.247425 342.395313 
z
" style="fill: #ffff00; opacity: 0.2; stroke: #eeeeee; stroke-width: 0.5; stroke-linejoin: miter"/>
     </g>
     <!-- CLK BUF -->
     <g transform="translate(26.925238 337.355313) rotate(-90) scale(0.14 -0.14)">
      <defs>
       <path id="DejaVuSans-43" d="M 4122 4306 
L 4122 3641 
Q 3803 3938 3442 4084 
Q 3081 4231 2675 4231 
Q 1875 4231 1450 3742 
Q 1025 3253 1025 2328 
Q 1025 1406 1450 917 
Q 1875 428 2675 428 
Q 3081 428 3442 575 
Q 3803 722 4122 1019 
L 4122 359 
Q 3791 134 3420 21 
Q 3050 -91 2638 -91 
Q 1578 -91 968 557 
Q 359 1206 359 2328 
Q 359 3453 968 4101 
Q 1578 4750 2638 4750 
Q 3056 4750 3426 4639 
Q 3797 4528 4122 4306 
z
" transform="scale(0.015625)"/>
       <path id="DejaVuSans-4b" d="M 628 4666 
L 1259 4666 
L 1259 2694 
L 3353 4666 
L 4166 4666 
L 1850 2491 
L 4331 0 
L 3500 0 
L 1259 2247 
L 1259 0 
L 628 0 
L 628 4666 
z
" transform="scale(0.015625)"/>
      </defs>
      <use xlink:href="#DejaVuSans-43"/>
      <use xlink:href="#DejaVuSans-4c" x="69.824219"/>
      <use xlink:href="#DejaVuSans-4b" x="125.537109"/>
      <use xlink:href="#DejaVuSans-20" x="191.113281"/>
      <use xlink:href="#DejaVuSans-42" x="222.900391"/>
      <use xlink:href="#DejaVuSans-55" x="291.503906"/>
      <use xlink:href="#DejaVuSans-46" x="364.697266"/>
     </g>
    </g>
   </g>
   <g id="line2d_51">
    <path d="M 141.12 348.40105 
L 173.376 348.40105 
L 173.601792 295.707482 
L 213.696 295.707482 
L 213.760512 337.739872 
L 213.825024 348.38215 
L 213.889536 348.318958 
L 213.954048 348.494383 
L 214.01856 348.40697 
L 215.341056 348.397756 
L 223.276032 348.401041 
L 237.952512 348.483603 
L 238.629888 349.145866 
L 239.404032 349.560266 
L 240.436224 349.822554 
L 241.694208 349.934223 
L 244.306944 349.924299 
L 254.016 349.579236 
L 254.048256 348.863949 
L 254.209536 322.22347 
L 254.403072 322.470257 
L 256.467456 325.093137 
L 258.402816 326.987951 
L 260.273664 328.548594 
L 263.85408 330.83818 
L 265.176576 330.190034 
L 267.208704 329.383366 
L 267.369984 329.335502 
L 267.499008 329.243286 
L 267.7248 329.203326 
L 267.950592 329.10628 
L 269.111808 328.637296 
L 269.240832 328.616658 
L 270.46656 328.171387 
L 271.59552 327.737095 
L 271.627776 327.797255 
L 271.660032 327.696256 
L 271.692288 327.715139 
L 272.111616 327.566715 
L 272.24064 327.468791 
L 272.272896 327.504799 
L 272.40192 327.486356 
L 272.530944 327.369549 
L 272.5632 327.441126 
L 272.756736 327.345397 
L 272.88576 327.303242 
L 274.33728 326.781125 
L 274.563072 326.622162 
L 274.595328 326.709108 
L 274.65984 326.60811 
L 274.82112 326.611184 
L 277.756416 325.577928 
L 277.788672 325.650384 
L 277.820928 325.579246 
L 277.949952 325.431261 
L 278.111232 325.514695 
L 278.240256 325.364515 
L 278.272512 325.437848 
L 278.337024 325.40711 
L 278.466048 325.344315 
L 278.724096 325.258686 
L 280.240128 324.742717 
L 280.562688 324.620202 
L 283.078656 323.683114 
L 285.981696 321.937601 
L 294.336 316.555273 
L 294.368256 314.612594 
L 294.400512 317.284217 
L 294.561792 347.893312 
L 294.787584 347.8952 
L 302.432256 347.931164 
L 303.109632 347.254344 
L 303.883776 346.835685 
L 304.883712 346.581081 
L 306.335232 346.472179 
L 309.044736 346.523029 
L 323.559936 346.926583 
L 327.656448 347.031226 
L 328.269312 347.151985 
L 328.914432 347.805926 
L 329.65632 348.241339 
L 330.591744 348.533931 
L 331.946496 348.715543 
L 334.397952 348.796785 
L 334.656 348.798805 
L 334.688256 339.499876 
L 334.785024 265.64953 
L 334.81728 265.847135 
L 335.075328 265.952524 
L 336.978432 266.839552 
L 337.430016 267.067896 
L 339.752448 268.134965 
L 340.978176 268.679477 
L 348.268032 271.770901 
L 348.880896 272.130982 
L 351.138816 273.479088 
L 351.558144 273.729388 
L 360.976896 278.735388 
L 363.654144 279.947366 
L 364.525056 280.303056 
L 365.170176 280.592877 
L 373.879296 284.031208 
L 374.137344 284.132206 
L 374.976 284.422027 
L 375.169536 348.797228 
L 375.234048 348.700613 
L 375.588864 348.69407 
L 415.296 348.489228 
L 415.425024 292.150587 
L 415.521792 292.545798 
L 416.812032 292.646796 
L 417.263616 292.721447 
L 418.650624 292.822445 
L 419.00544 292.853184 
L 421.42464 293.077136 
L 421.940736 293.116658 
L 423.295488 293.217656 
L 423.650304 293.252786 
L 424.134144 293.292307 
L 425.908224 293.424043 
L 427.456512 293.525042 
L 427.811328 293.55578 
L 429.391872 293.656779 
L 429.746688 293.687517 
L 431.520768 293.788515 
L 431.875584 293.819254 
L 433.746432 293.920252 
L 434.101248 293.950991 
L 436.165632 294.051989 
L 436.520448 294.082728 
L 438.778368 294.183726 
L 439.133184 294.214464 
L 441.681408 294.315463 
L 442.036224 294.346201 
L 444.777984 294.447199 
L 445.1328 294.477938 
L 448.261632 294.578936 
L 448.616448 294.609675 
L 452.22912 294.710673 
L 452.583936 294.741412 
L 455.616 294.829236 
L 455.648256 299.268767 
L 455.712768 348.534383 
L 455.77728 348.207364 
L 455.874048 348.438316 
L 455.906304 348.425248 
L 463.905792 348.420932 
L 468.486144 348.417282 
L 495.936 348.413619 
L 496.09728 295.040015 
L 496.161792 295.536224 
L 496.25856 295.083927 
L 496.323072 295.250794 
L 496.806912 295.268359 
L 536.256 295.268359 
L 536.385024 348.737578 
L 536.546304 348.482228 
L 536.804352 348.384273 
L 537.159168 348.432076 
L 537.481728 348.413394 
L 574.64064 348.413624 
L 576.576 348.413626 
L 576.705024 295.088319 
L 576.769536 295.27275 
L 576.89856 295.268359 
L 616.896 295.268359 
L 617.025024 348.7376 
L 617.186304 348.482224 
L 617.444352 348.384274 
L 617.799168 348.432076 
L 618.121728 348.413395 
L 655.312896 348.413623 
L 657.216 348.413624 
L 657.37728 295.040015 
L 657.441792 295.536224 
L 657.53856 295.088319 
L 657.603072 295.250794 
L 658.086912 295.268359 
L 697.536 295.268359 
L 697.665024 348.73778 
L 697.826304 348.48218 
L 698.084352 348.384307 
L 698.439168 348.432075 
L 698.761728 348.413396 
L 735.952896 348.413624 
L 737.856 348.413626 
L 738.01728 295.040015 
L 738.081792 295.536224 
L 738.17856 295.083927 
L 738.243072 295.250794 
L 738.726912 295.268359 
L 778.176 295.268359 
L 778.305024 348.737525 
L 778.466304 348.48218 
L 778.724352 348.384294 
L 779.079168 348.432065 
L 779.401728 348.413395 
L 816.754176 348.413624 
L 818.496 348.413626 
L 818.65728 295.040015 
L 818.721792 295.536224 
L 818.81856 295.083927 
L 818.883072 295.250794 
L 819.366912 295.268359 
L 858.816 295.268359 
L 858.945024 348.737609 
L 859.106304 348.482167 
L 859.364352 348.38429 
L 859.719168 348.432085 
L 860.041728 348.413396 
L 897.03936 348.413624 
L 899.136 348.413626 
L 899.29728 295.040015 
L 899.361792 295.536224 
L 899.45856 295.083927 
L 899.523072 295.250794 
L 900.006912 295.268359 
L 939.456 295.268359 
L 939.488256 303.185742 
L 939.61728 348.361402 
L 939.649536 348.489083 
L 939.714048 348.366924 
L 939.746304 348.328395 
L 939.810816 348.385066 
L 940.004352 348.439902 
L 940.197888 348.412898 
L 945.520128 348.413631 
L 947.52 348.413615 
L 947.52 348.413615 
" clip-path="url(#pb6f1a590c6)" style="fill: none; stroke: #0000ff; stroke-width: 2; stroke-linecap: square"/>
   </g>
   <g id="patch_16">
    <path d="M 100.8 354.165517 
L 100.8 261.434483 
" style="fill: none; stroke: #bcbcbc; stroke-width: 0.8; stroke-linejoin: miter; stroke-linecap: square"/>
   </g>
   <g id="patch_17">
    <path d="M 987.84 354.165517 
L 987.84 261.434483 
" style="fill: none; stroke: #bcbcbc; stroke-width: 0.8; stroke-linejoin: miter; stroke-linecap: square"/>
   </g>
   <g id="patch_18">
    <path d="M 100.8 354.165517 
L 987.84 354.165517 
" style="fill: none; stroke: #bcbcbc; stroke-width: 0.8; stroke-linejoin: miter; stroke-linecap: square"/>
   </g>
   <g id="patch_19">
    <path d="M 100.8 261.434483 
L 987.84 261.434483 
" style="fill: none; stroke: #bcbcbc; stroke-width: 0.8; stroke-linejoin: miter; stroke-linecap: square"/>
   </g>
  </g>
  <g id="axes_4">
   <g id="patch_20">
    <path d="M 100.8 465.442759 
L 987.84 465.442759 
L 987.84 372.711724 
L 100.8 372.711724 
z
" style="fill: #eeeeee"/>
   </g>
   <g id="matplotlib.axis_7">
    <g id="xtick_19">
     <g id="line2d_52">
      <path d="M 141.12 465.442759 
L 141.12 372.711724 
" clip-path="url(#p01b46b58e2)" style="fill: none; stroke-dasharray: 1.85,0.8; stroke-dashoffset: 0; stroke: #b2b2b2; stroke-width: 0.5"/>
     </g>
     <g id="line2d_53">
      <g>
       <use xlink:href="#me8380f914d" x="141.12" y="465.442759" style="stroke: #000000; stroke-width: 0.8"/>
      </g>
     </g>
    </g>
    <g id="xtick_20">
     <g id="line2d_54">
      <path d="M 302.4 465.442759 
L 302.4 372.711724 
" clip-path="url(#p01b46b58e2)" style="fill: none; stroke-dasharray: 1.85,0.8; stroke-dashoffset: 0; stroke: #b2b2b2; stroke-width: 0.5"/>
     </g>
     <g id="line2d_55">
      <g>
       <use xlink:href="#me8380f914d" x="302.4" y="465.442759" style="stroke: #000000; stroke-width: 0.8"/>
      </g>
     </g>
    </g>
    <g id="xtick_21">
     <g id="line2d_56">
      <path d="M 463.68 465.442759 
L 463.68 372.711724 
" clip-path="url(#p01b46b58e2)" style="fill: none; stroke-dasharray: 1.85,0.8; stroke-dashoffset: 0; stroke: #b2b2b2; stroke-width: 0.5"/>
     </g>
     <g id="line2d_57">
      <g>
       <use xlink:href="#me8380f914d" x="463.68" y="465.442759" style="stroke: #000000; stroke-width: 0.8"/>
      </g>
     </g>
    </g>
    <g id="xtick_22">
     <g id="line2d_58">
      <path d="M 624.96 465.442759 
L 624.96 372.711724 
" clip-path="url(#p01b46b58e2)" style="fill: none; stroke-dasharray: 1.85,0.8; stroke-dashoffset: 0; stroke: #b2b2b2; stroke-width: 0.5"/>
     </g>
     <g id="line2d_59">
      <g>
       <use xlink:href="#me8380f914d" x="624.96" y="465.442759" style="stroke: #000000; stroke-width: 0.8"/>
      </g>
     </g>
    </g>
    <g id="xtick_23">
     <g id="line2d_60">
      <path d="M 786.24 465.442759 
L 786.24 372.711724 
" clip-path="url(#p01b46b58e2)" style="fill: none; stroke-dasharray: 1.85,0.8; stroke-dashoffset: 0; stroke: #b2b2b2; stroke-width: 0.5"/>
     </g>
     <g id="line2d_61">
      <g>
       <use xlink:href="#me8380f914d" x="786.24" y="465.442759" style="stroke: #000000; stroke-width: 0.8"/>
      </g>
     </g>
    </g>
    <g id="xtick_24">
     <g id="line2d_62">
      <path d="M 947.52 465.442759 
L 947.52 372.711724 
" clip-path="url(#p01b46b58e2)" style="fill: none; stroke-dasharray: 1.85,0.8; stroke-dashoffset: 0; stroke: #b2b2b2; stroke-width: 0.5"/>
     </g>
     <g id="line2d_63">
      <g>
       <use xlink:href="#me8380f914d" x="947.52" y="465.442759" style="stroke: #000000; stroke-width: 0.8"/>
      </g>
     </g>
    </g>
   </g>
   <g id="matplotlib.axis_8">
    <g id="ytick_7">
     <g id="line2d_64">
      <path d="M 100.8 441.977096 
L 987.84 441.977096 
" clip-path="url(#p01b46b58e2)" style="fill: none; stroke-dasharray: 1.85,0.8; stroke-dashoffset: 0; stroke: #b2b2b2; stroke-width: 0.5"/>
     </g>
     <g id="line2d_65">
      <g>
       <use xlink:href="#mf86c24a9aa" x="100.8" y="441.977096" style="stroke: #000000; stroke-width: 0.8"/>
      </g>
     </g>
     <g id="text_10">
      <!-- 0 V -->
      <g transform="translate(74.36625 447.296002) scale(0.14 -0.14)">
       <use xlink:href="#DejaVuSans-30"/>
       <use xlink:href="#DejaVuSans-20" x="63.623047"/>
       <use xlink:href="#DejaVuSans-56" x="95.410156"/>
      </g>
     </g>
    </g>
    <g id="ytick_8">
     <g id="line2d_66">
      <path d="M 100.8 408.328055 
L 987.84 408.328055 
" clip-path="url(#p01b46b58e2)" style="fill: none; stroke-dasharray: 1.85,0.8; stroke-dashoffset: 0; stroke: #b2b2b2; stroke-width: 0.5"/>
     </g>
     <g id="line2d_67">
      <g>
       <use xlink:href="#mf86c24a9aa" x="100.8" y="408.328055" style="stroke: #000000; stroke-width: 0.8"/>
      </g>
     </g>
     <g id="text_11">
      <!-- 1 V -->
      <g transform="translate(74.36625 413.646962) scale(0.14 -0.14)">
       <use xlink:href="#DejaVuSans-31"/>
       <use xlink:href="#DejaVuSans-20" x="63.623047"/>
       <use xlink:href="#DejaVuSans-56" x="95.410156"/>
      </g>
     </g>
    </g>
    <g id="ytick_9">
     <g id="line2d_68">
      <path d="M 100.8 374.679015 
L 987.84 374.679015 
" clip-path="url(#p01b46b58e2)" style="fill: none; stroke-dasharray: 1.85,0.8; stroke-dashoffset: 0; stroke: #b2b2b2; stroke-width: 0.5"/>
     </g>
     <g id="line2d_69">
      <g>
       <use xlink:href="#mf86c24a9aa" x="100.8" y="374.679015" style="stroke: #000000; stroke-width: 0.8"/>
      </g>
     </g>
     <g id="text_12">
      <!-- 2 V -->
      <g transform="translate(74.36625 379.997922) scale(0.14 -0.14)">
       <use xlink:href="#DejaVuSans-32"/>
       <use xlink:href="#DejaVuSans-20" x="63.623047"/>
       <use xlink:href="#DejaVuSans-56" x="95.410156"/>
      </g>
     </g>
    </g>
    <g id="text_13">
     <g id="patch_21">
      <path d="M 34.8768 454.693023 
L 34.8768 383.46146 
L 11.247425 383.46146 
L 11.247425 454.693023 
z
" style="fill: #ffff00; opacity: 0.2; stroke: #eeeeee; stroke-width: 0.5; stroke-linejoin: miter"/>
     </g>
     <!-- DFF OUT -->
     <g transform="translate(26.925238 449.653023) rotate(-90) scale(0.14 -0.14)">
      <defs>
       <path id="DejaVuSans-4f" d="M 2522 4238 
Q 1834 4238 1429 3725 
Q 1025 3213 1025 2328 
Q 1025 1447 1429 934 
Q 1834 422 2522 422 
Q 3209 422 3611 934 
Q 4013 1447 4013 2328 
Q 4013 3213 3611 3725 
Q 3209 4238 2522 4238 
z
M 2522 4750 
Q 3503 4750 4090 4092 
Q 4678 3434 4678 2328 
Q 4678 1225 4090 567 
Q 3503 -91 2522 -91 
Q 1538 -91 948 565 
Q 359 1222 359 2328 
Q 359 3434 948 4092 
Q 1538 4750 2522 4750 
z
" transform="scale(0.015625)"/>
       <path id="DejaVuSans-54" d="M -19 4666 
L 3928 4666 
L 3928 4134 
L 2272 4134 
L 2272 0 
L 1638 0 
L 1638 4134 
L -19 4134 
L -19 4666 
z
" transform="scale(0.015625)"/>
      </defs>
      <use xlink:href="#DejaVuSans-44"/>
      <use xlink:href="#DejaVuSans-46" x="77.001953"/>
      <use xlink:href="#DejaVuSans-46" x="134.521484"/>
      <use xlink:href="#DejaVuSans-20" x="192.041016"/>
      <use xlink:href="#DejaVuSans-4f" x="223.828125"/>
      <use xlink:href="#DejaVuSans-55" x="302.539062"/>
      <use xlink:href="#DejaVuSans-54" x="375.732422"/>
     </g>
    </g>
   </g>
   <g id="line2d_70">
    <path d="M 141.12 416.587885 
L 173.408256 416.628937 
L 173.440512 418.022007 
L 173.601792 441.979149 
L 174.214656 441.976137 
L 186.213888 441.976188 
L 237.984768 442.068944 
L 238.662144 442.56444 
L 239.533056 442.900594 
L 240.662016 443.090273 
L 242.597376 443.162551 
L 247.08096 443.052822 
L 248.726016 442.818187 
L 249.274368 442.508683 
L 249.564672 442.099437 
L 249.790464 441.437937 
L 249.984 440.159038 
L 250.209792 436.781347 
L 250.596864 430.656549 
L 250.7904 430.653184 
L 250.822656 430.656549 
L 250.854912 430.505801 
L 250.919424 430.61045 
L 251.338752 431.973573 
L 251.403264 431.686883 
L 251.467776 431.74947 
L 251.629056 432.993811 
L 252.596736 436.398085 
L 252.661248 436.294446 
L 252.693504 436.340545 
L 252.854784 437.467115 
L 253.2096 438.740697 
L 253.274112 438.617475 
L 253.338624 438.683292 
L 253.435392 438.962983 
L 253.596672 440.101128 
L 254.112768 441.616176 
L 254.145024 441.528117 
L 254.306304 442.520831 
L 254.628864 443.588986 
L 254.66112 443.23981 
L 254.725632 443.405497 
L 255.338496 445.667722 
L 255.532032 446.08026 
L 255.564288 446.030796 
L 255.596544 445.890143 
L 255.661056 446.082279 
L 255.725568 446.188946 
L 256.338432 447.865678 
L 257.015808 448.964992 
L 257.048064 448.78497 
L 257.112576 448.907789 
L 257.2416 449.150062 
L 257.370624 449.731181 
L 257.40288 449.604997 
L 257.435136 449.818668 
L 257.467392 449.666574 
L 257.789952 450.585866 
L 258.725376 452.484009 
L 259.370496 453.687971 
L 259.435008 453.653986 
L 259.789824 454.303749 
L 259.918848 454.757674 
L 259.951104 454.632836 
L 260.015616 454.749598 
L 262.176768 458.752152 
L 263.789568 461.215598 
L 264.466944 460.329282 
L 264.724992 459.806376 
L 264.757248 459.854831 
L 264.789504 459.729656 
L 265.079808 459.175793 
L 266.531328 457.213381 
L 266.563584 457.36211 
L 266.59584 457.260153 
L 266.75712 456.958321 
L 267.757056 456.065612 
L 267.821568 456.034319 
L 268.466688 455.241884 
L 268.498944 455.377153 
L 268.5312 455.166846 
L 268.789248 454.939715 
L 268.886016 454.86064 
L 268.918272 454.895635 
L 268.982784 454.85391 
L 269.17632 454.510354 
L 269.756928 454.012684 
L 269.789184 454.182276 
L 269.82144 453.997206 
L 269.853696 454.018741 
L 269.885952 454.041286 
L 270.047232 453.802041 
L 270.78912 453.266349 
L 271.014912 452.88275 
L 271.27296 452.6075 
L 271.337472 452.771708 
L 271.466496 452.473577 
L 271.531008 452.584619 
L 271.692288 452.207077 
L 271.853568 452.068443 
L 271.885824 452.305669 
L 271.982592 452.220873 
L 272.047104 452.177802 
L 272.143872 451.862174 
L 272.176128 451.961102 
L 272.337408 451.67273 
L 272.40192 451.81843 
L 272.434176 451.675086 
L 272.498688 451.74373 
L 272.627712 451.482277 
L 272.692224 451.525011 
L 272.72448 451.440888 
L 273.176064 451.227553 
L 273.659904 450.613795 
L 273.950208 450.236926 
L 274.111488 450.08786 
L 274.143744 450.350659 
L 274.208256 450.003738 
L 274.369536 449.819677 
L 274.401792 450.132277 
L 274.466304 449.780981 
L 274.49856 450.069353 
L 274.724352 449.569329 
L 275.208192 449.233511 
L 275.62752 449.075361 
L 275.7888 449.024551 
L 276.788736 448.160107 
L 276.91776 447.72065 
L 276.950016 448.023155 
L 277.014528 447.623068 
L 277.046784 447.944753 
L 277.175808 447.508325 
L 277.208064 447.469629 
L 277.24032 447.797707 
L 277.304832 447.643931 
L 277.4016 447.67657 
L 277.466112 447.391899 
L 277.498368 447.422183 
L 277.530624 447.340753 
L 277.56288 447.154674 
L 277.595136 447.198754 
L 277.627392 447.456169 
L 277.691904 447.427231 
L 277.853184 446.971959 
L 277.88544 446.980035 
L 277.917696 447.286241 
L 277.949952 446.914756 
L 278.014464 447.222981 
L 278.143488 446.814482 
L 278.175744 446.829287 
L 278.208 447.003926 
L 278.240256 446.781506 
L 278.304768 446.958836 
L 278.595072 446.726321 
L 278.85312 446.615616 
L 279.724032 445.936915 
L 280.272384 445.492411 
L 280.369152 444.980474 
L 280.401408 445.115575 
L 280.6272 444.767913 
L 280.659456 444.888041 
L 280.723968 444.742609 
L 280.756224 444.639812 
L 280.820736 445.004365 
L 280.852992 444.593342 
L 280.885248 444.946792 
L 280.917504 444.943898 
L 281.046528 444.497072 
L 281.240064 444.417997 
L 281.304576 444.622651 
L 281.336832 444.354165 
L 281.369088 444.521333 
L 281.4336 444.336331 
L 281.498112 444.357294 
L 281.691648 444.352079 
L 282.014208 444.124678 
L 283.239936 443.025499 
L 283.594752 442.558652 
L 283.756032 441.969924 
L 283.788288 441.988842 
L 283.8528 442.18465 
L 283.885056 442.118381 
L 284.046336 441.916655 
L 284.788224 440.812637 
L 284.949504 439.925581 
L 284.98176 440.519655 
L 285.046272 439.885202 
L 285.078528 440.278997 
L 285.207552 439.740646 
L 285.239808 440.012496 
L 285.30432 439.780385 
L 285.368832 439.742799 
L 285.433344 439.792028 
L 285.562368 439.623278 
L 286.336512 438.353431 
L 286.368768 437.814373 
L 286.465536 437.821776 
L 286.497792 437.949306 
L 286.562304 437.868211 
L 286.59456 437.835572 
L 286.626816 437.936855 
L 286.659072 437.461058 
L 286.75584 437.5011 
L 286.884864 437.469807 
L 287.949312 435.704578 
L 288.013824 435.205563 
L 288.078336 435.262093 
L 288.20736 435.498982 
L 288.239616 435.355301 
L 288.52992 434.835423 
L 288.6912 434.726401 
L 288.755712 434.466293 
L 288.820224 434.524843 
L 289.239552 433.765384 
L 289.852416 432.872675 
L 290.433024 431.914687 
L 290.46528 432.096728 
L 290.497536 431.847389 
L 290.62656 431.648523 
L 290.658816 431.755863 
L 290.691072 431.851427 
L 290.755584 431.534789 
L 290.820096 431.690248 
L 291.626496 430.516906 
L 291.75552 430.153832 
L 291.884544 429.621505 
L 291.9168 429.834167 
L 291.949056 429.810276 
L 292.07808 429.267517 
L 292.110336 429.303858 
L 292.142592 429.211996 
L 292.7232 428.145994 
L 293.5296 425.846755 
L 293.561856 426.463542 
L 293.626368 425.726292 
L 294.077952 425.698027 
L 294.916608 424.359131 
L 294.98112 424.314714 
L 295.432704 423.424024 
L 295.529472 423.50209 
L 295.658496 423.358745 
L 296.91648 421.770174 
L 297.23904 421.425944 
L 297.5616 420.821271 
L 297.916416 420.338071 
L 297.948672 420.377777 
L 297.980928 420.417483 
L 298.04544 420.342782 
L 299.884032 418.08695 
L 301.722624 416.127903 
L 302.464512 415.331094 
L 303.819264 412.224614 
L 306.561024 407.550763 
L 309.560832 402.456298 
L 310.238208 401.362704 
L 311.463936 399.407695 
L 312.367104 397.9978 
L 313.657344 396.056251 
L 317.431296 390.739702 
L 320.495616 386.769115 
L 324.721152 381.304511 
L 326.495232 379.08031 
L 328.430592 376.997434 
L 329.720832 376.96715 
L 330.204672 377.061367 
L 330.688512 377.169044 
L 334.301184 378.407329 
L 334.752768 378.801023 
L 334.914048 442.28767 
L 335.010816 442.286105 
L 335.752704 442.292337 
L 375.008256 442.209806 
L 375.040512 442.151845 
L 375.105024 442.216122 
L 378.2016 442.184926 
L 405.45792 442.068537 
L 415.328256 442.037603 
L 415.360512 442.265182 
L 415.392768 441.773193 
L 415.554048 438.250128 
L 416.070144 435.97377 
L 416.231424 433.154317 
L 416.42496 424.409941 
L 416.876544 399.279829 
L 418.650624 399.387506 
L 419.102208 399.414425 
L 419.940864 399.481723 
L 421.650432 399.5894 
L 422.102016 399.616319 
L 423.876096 399.723996 
L 424.32768 399.750915 
L 425.005056 399.784564 
L 425.843712 399.851862 
L 428.133888 399.959539 
L 428.585472 399.986458 
L 430.746624 400.094135 
L 431.198208 400.121055 
L 433.746432 400.228732 
L 434.198016 400.255651 
L 434.97216 400.285935 
L 437.907456 400.396977 
L 438.326784 400.420531 
L 441.681408 400.531573 
L 442.100736 400.555127 
L 445.9392 400.666169 
L 446.358528 400.689723 
L 450.874368 400.800765 
L 451.325952 400.827684 
L 452.22912 400.834414 
L 452.648448 400.857969 
L 458.325504 400.96901 
L 458.744832 400.992565 
L 465.970176 401.103607 
L 466.42176 401.130526 
L 467.518464 401.127161 
L 476.130816 401.238203 
L 476.550144 401.261757 
L 495.968256 401.258392 
L 496.000512 401.430002 
L 496.065024 401.258392 
L 496.290816 401.244933 
L 496.677888 401.251662 
L 576.608256 401.258392 
L 576.640512 401.426637 
L 576.705024 401.244933 
L 577.092096 401.255027 
L 657.248256 401.258392 
L 657.280512 401.430002 
L 657.345024 401.258392 
L 657.570816 401.244933 
L 657.957888 401.251662 
L 737.888256 401.258392 
L 737.920512 401.430002 
L 737.985024 401.258392 
L 738.210816 401.244933 
L 738.597888 401.251662 
L 818.528256 401.258392 
L 818.560512 401.430002 
L 818.625024 401.258392 
L 818.850816 401.244933 
L 819.237888 401.251662 
L 899.168256 401.258392 
L 899.200512 401.430002 
L 899.265024 401.258392 
L 899.490816 401.244933 
L 899.877888 401.251662 
L 947.52 401.261757 
L 947.52 401.261757 
" clip-path="url(#p01b46b58e2)" style="fill: none; stroke: #ff00ff; stroke-width: 2; stroke-linecap: square"/>
   </g>
   <g id="patch_22">
    <path d="M 100.8 465.442759 
L 100.8 372.711724 
" style="fill: none; stroke: #bcbcbc; stroke-width: 0.8; stroke-linejoin: miter; stroke-linecap: square"/>
   </g>
   <g id="patch_23">
    <path d="M 987.84 465.442759 
L 987.84 372.711724 
" style="fill: none; stroke: #bcbcbc; stroke-width: 0.8; stroke-linejoin: miter; stroke-linecap: square"/>
   </g>
   <g id="patch_24">
    <path d="M 100.8 465.442759 
L 987.84 465.442759 
" style="fill: none; stroke: #bcbcbc; stroke-width: 0.8; stroke-linejoin: miter; stroke-linecap: square"/>
   </g>
   <g id="patch_25">
    <path d="M 100.8 372.711724 
L 987.84 372.711724 
" style="fill: none; stroke: #bcbcbc; stroke-width: 0.8; stroke-linejoin: miter; stroke-linecap: square"/>
   </g>
  </g>
  <g id="axes_5">
   <g id="patch_26">
    <path d="M 100.8 576.72 
L 987.84 576.72 
L 987.84 483.988966 
L 100.8 483.988966 
z
" style="fill: #eeeeee"/>
   </g>
   <g id="matplotlib.axis_9">
    <g id="xtick_25">
     <g id="line2d_71">
      <path d="M 141.12 576.72 
L 141.12 483.988966 
" clip-path="url(#p4e3d82cdfc)" style="fill: none; stroke-dasharray: 1.85,0.8; stroke-dashoffset: 0; stroke: #b2b2b2; stroke-width: 0.5"/>
     </g>
     <g id="line2d_72">
      <g>
       <use xlink:href="#me8380f914d" x="141.12" y="576.72" style="stroke: #000000; stroke-width: 0.8"/>
      </g>
     </g>
     <g id="text_14">
      <!-- 0 s -->
      <g transform="translate(130.795 590.857813) scale(0.14 -0.14)">
       <defs>
        <path id="DejaVuSans-73" d="M 2834 3397 
L 2834 2853 
Q 2591 2978 2328 3040 
Q 2066 3103 1784 3103 
Q 1356 3103 1142 2972 
Q 928 2841 928 2578 
Q 928 2378 1081 2264 
Q 1234 2150 1697 2047 
L 1894 2003 
Q 2506 1872 2764 1633 
Q 3022 1394 3022 966 
Q 3022 478 2636 193 
Q 2250 -91 1575 -91 
Q 1294 -91 989 -36 
Q 684 19 347 128 
L 347 722 
Q 666 556 975 473 
Q 1284 391 1588 391 
Q 1994 391 2212 530 
Q 2431 669 2431 922 
Q 2431 1156 2273 1281 
Q 2116 1406 1581 1522 
L 1381 1569 
Q 847 1681 609 1914 
Q 372 2147 372 2553 
Q 372 3047 722 3315 
Q 1072 3584 1716 3584 
Q 2034 3584 2315 3537 
Q 2597 3491 2834 3397 
z
" transform="scale(0.015625)"/>
       </defs>
       <use xlink:href="#DejaVuSans-30"/>
       <use xlink:href="#DejaVuSans-20" x="63.623047"/>
       <use xlink:href="#DejaVuSans-73" x="95.410156"/>
      </g>
     </g>
    </g>
    <g id="xtick_26">
     <g id="line2d_73">
      <path d="M 302.4 576.72 
L 302.4 483.988966 
" clip-path="url(#p4e3d82cdfc)" style="fill: none; stroke-dasharray: 1.85,0.8; stroke-dashoffset: 0; stroke: #b2b2b2; stroke-width: 0.5"/>
     </g>
     <g id="line2d_74">
      <g>
       <use xlink:href="#me8380f914d" x="302.4" y="576.72" style="stroke: #000000; stroke-width: 0.8"/>
      </g>
     </g>
     <g id="text_15">
      <!-- 50 ns -->
      <g transform="translate(283.185 590.857813) scale(0.14 -0.14)">
       <defs>
        <path id="DejaVuSans-35" d="M 691 4666 
L 3169 4666 
L 3169 4134 
L 1269 4134 
L 1269 2991 
Q 1406 3038 1543 3061 
Q 1681 3084 1819 3084 
Q 2600 3084 3056 2656 
Q 3513 2228 3513 1497 
Q 3513 744 3044 326 
Q 2575 -91 1722 -91 
Q 1428 -91 1123 -41 
Q 819 9 494 109 
L 494 744 
Q 775 591 1075 516 
Q 1375 441 1709 441 
Q 2250 441 2565 725 
Q 2881 1009 2881 1497 
Q 2881 1984 2565 2268 
Q 2250 2553 1709 2553 
Q 1456 2553 1204 2497 
Q 953 2441 691 2322 
L 691 4666 
z
" transform="scale(0.015625)"/>
        <path id="DejaVuSans-6e" d="M 3513 2113 
L 3513 0 
L 2938 0 
L 2938 2094 
Q 2938 2591 2744 2837 
Q 2550 3084 2163 3084 
Q 1697 3084 1428 2787 
Q 1159 2491 1159 1978 
L 1159 0 
L 581 0 
L 581 3500 
L 1159 3500 
L 1159 2956 
Q 1366 3272 1645 3428 
Q 1925 3584 2291 3584 
Q 2894 3584 3203 3211 
Q 3513 2838 3513 2113 
z
" transform="scale(0.015625)"/>
       </defs>
       <use xlink:href="#DejaVuSans-35"/>
       <use xlink:href="#DejaVuSans-30" x="63.623047"/>
       <use xlink:href="#DejaVuSans-20" x="127.246094"/>
       <use xlink:href="#DejaVuSans-6e" x="159.033203"/>
       <use xlink:href="#DejaVuSans-73" x="222.412109"/>
      </g>
     </g>
    </g>
    <g id="xtick_27">
     <g id="line2d_75">
      <path d="M 463.68 576.72 
L 463.68 483.988966 
" clip-path="url(#p4e3d82cdfc)" style="fill: none; stroke-dasharray: 1.85,0.8; stroke-dashoffset: 0; stroke: #b2b2b2; stroke-width: 0.5"/>
     </g>
     <g id="line2d_76">
      <g>
       <use xlink:href="#me8380f914d" x="463.68" y="576.72" style="stroke: #000000; stroke-width: 0.8"/>
      </g>
     </g>
     <g id="text_16">
      <!-- 100 ns -->
      <g transform="translate(440.01125 590.857813) scale(0.14 -0.14)">
       <use xlink:href="#DejaVuSans-31"/>
       <use xlink:href="#DejaVuSans-30" x="63.623047"/>
       <use xlink:href="#DejaVuSans-30" x="127.246094"/>
       <use xlink:href="#DejaVuSans-20" x="190.869141"/>
       <use xlink:href="#DejaVuSans-6e" x="222.65625"/>
       <use xlink:href="#DejaVuSans-73" x="286.035156"/>
      </g>
     </g>
    </g>
    <g id="xtick_28">
     <g id="line2d_77">
      <path d="M 624.96 576.72 
L 624.96 483.988966 
" clip-path="url(#p4e3d82cdfc)" style="fill: none; stroke-dasharray: 1.85,0.8; stroke-dashoffset: 0; stroke: #b2b2b2; stroke-width: 0.5"/>
     </g>
     <g id="line2d_78">
      <g>
       <use xlink:href="#me8380f914d" x="624.96" y="576.72" style="stroke: #000000; stroke-width: 0.8"/>
      </g>
     </g>
     <g id="text_17">
      <!-- 150 ns -->
      <g transform="translate(601.29125 590.857813) scale(0.14 -0.14)">
       <use xlink:href="#DejaVuSans-31"/>
       <use xlink:href="#DejaVuSans-35" x="63.623047"/>
       <use xlink:href="#DejaVuSans-30" x="127.246094"/>
       <use xlink:href="#DejaVuSans-20" x="190.869141"/>
       <use xlink:href="#DejaVuSans-6e" x="222.65625"/>
       <use xlink:href="#DejaVuSans-73" x="286.035156"/>
      </g>
     </g>
    </g>
    <g id="xtick_29">
     <g id="line2d_79">
      <path d="M 786.24 576.72 
L 786.24 483.988966 
" clip-path="url(#p4e3d82cdfc)" style="fill: none; stroke-dasharray: 1.85,0.8; stroke-dashoffset: 0; stroke: #b2b2b2; stroke-width: 0.5"/>
     </g>
     <g id="line2d_80">
      <g>
       <use xlink:href="#me8380f914d" x="786.24" y="576.72" style="stroke: #000000; stroke-width: 0.8"/>
      </g>
     </g>
     <g id="text_18">
      <!-- 200 ns -->
      <g transform="translate(762.57125 590.857813) scale(0.14 -0.14)">
       <use xlink:href="#DejaVuSans-32"/>
       <use xlink:href="#DejaVuSans-30" x="63.623047"/>
       <use xlink:href="#DejaVuSans-30" x="127.246094"/>
       <use xlink:href="#DejaVuSans-20" x="190.869141"/>
       <use xlink:href="#DejaVuSans-6e" x="222.65625"/>
       <use xlink:href="#DejaVuSans-73" x="286.035156"/>
      </g>
     </g>
    </g>
    <g id="xtick_30">
     <g id="line2d_81">
      <path d="M 947.52 576.72 
L 947.52 483.988966 
" clip-path="url(#p4e3d82cdfc)" style="fill: none; stroke-dasharray: 1.85,0.8; stroke-dashoffset: 0; stroke: #b2b2b2; stroke-width: 0.5"/>
     </g>
     <g id="line2d_82">
      <g>
       <use xlink:href="#me8380f914d" x="947.52" y="576.72" style="stroke: #000000; stroke-width: 0.8"/>
      </g>
     </g>
     <g id="text_19">
      <!-- 250 ns -->
      <g transform="translate(923.85125 590.857813) scale(0.14 -0.14)">
       <use xlink:href="#DejaVuSans-32"/>
       <use xlink:href="#DejaVuSans-35" x="63.623047"/>
       <use xlink:href="#DejaVuSans-30" x="127.246094"/>
       <use xlink:href="#DejaVuSans-20" x="190.869141"/>
       <use xlink:href="#DejaVuSans-6e" x="222.65625"/>
       <use xlink:href="#DejaVuSans-73" x="286.035156"/>
      </g>
     </g>
    </g>
    <g id="text_20">
     <!-- Time -->
     <g transform="translate(527.192969 608.407187) scale(0.14 -0.14)">
      <defs>
       <path id="DejaVuSans-69" d="M 603 3500 
L 1178 3500 
L 1178 0 
L 603 0 
L 603 3500 
z
M 603 4863 
L 1178 4863 
L 1178 4134 
L 603 4134 
L 603 4863 
z
" transform="scale(0.015625)"/>
       <path id="DejaVuSans-6d" d="M 3328 2828 
Q 3544 3216 3844 3400 
Q 4144 3584 4550 3584 
Q 5097 3584 5394 3201 
Q 5691 2819 5691 2113 
L 5691 0 
L 5113 0 
L 5113 2094 
Q 5113 2597 4934 2840 
Q 4756 3084 4391 3084 
Q 3944 3084 3684 2787 
Q 3425 2491 3425 1978 
L 3425 0 
L 2847 0 
L 2847 2094 
Q 2847 2600 2669 2842 
Q 2491 3084 2119 3084 
Q 1678 3084 1418 2786 
Q 1159 2488 1159 1978 
L 1159 0 
L 581 0 
L 581 3500 
L 1159 3500 
L 1159 2956 
Q 1356 3278 1631 3431 
Q 1906 3584 2284 3584 
Q 2666 3584 2933 3390 
Q 3200 3197 3328 2828 
z
" transform="scale(0.015625)"/>
       <path id="DejaVuSans-65" d="M 3597 1894 
L 3597 1613 
L 953 1613 
Q 991 1019 1311 708 
Q 1631 397 2203 397 
Q 2534 397 2845 478 
Q 3156 559 3463 722 
L 3463 178 
Q 3153 47 2828 -22 
Q 2503 -91 2169 -91 
Q 1331 -91 842 396 
Q 353 884 353 1716 
Q 353 2575 817 3079 
Q 1281 3584 2069 3584 
Q 2775 3584 3186 3129 
Q 3597 2675 3597 1894 
z
M 3022 2063 
Q 3016 2534 2758 2815 
Q 2500 3097 2075 3097 
Q 1594 3097 1305 2825 
Q 1016 2553 972 2059 
L 3022 2063 
z
" transform="scale(0.015625)"/>
      </defs>
      <use xlink:href="#DejaVuSans-54"/>
      <use xlink:href="#DejaVuSans-69" x="57.958984"/>
      <use xlink:href="#DejaVuSans-6d" x="85.742188"/>
      <use xlink:href="#DejaVuSans-65" x="183.154297"/>
     </g>
    </g>
   </g>
   <g id="matplotlib.axis_10">
    <g id="ytick_10">
     <g id="line2d_83">
      <path d="M 100.8 569.737898 
L 987.84 569.737898 
" clip-path="url(#p4e3d82cdfc)" style="fill: none; stroke-dasharray: 1.85,0.8; stroke-dashoffset: 0; stroke: #b2b2b2; stroke-width: 0.5"/>
     </g>
     <g id="line2d_84">
      <g>
       <use xlink:href="#mf86c24a9aa" x="100.8" y="569.737898" style="stroke: #000000; stroke-width: 0.8"/>
      </g>
     </g>
     <g id="text_21">
      <!-- 0 V -->
      <g transform="translate(74.36625 575.056805) scale(0.14 -0.14)">
       <use xlink:href="#DejaVuSans-30"/>
       <use xlink:href="#DejaVuSans-20" x="63.623047"/>
       <use xlink:href="#DejaVuSans-56" x="95.410156"/>
      </g>
     </g>
    </g>
    <g id="ytick_11">
     <g id="line2d_85">
      <path d="M 100.8 535.84453 
L 987.84 535.84453 
" clip-path="url(#p4e3d82cdfc)" style="fill: none; stroke-dasharray: 1.85,0.8; stroke-dashoffset: 0; stroke: #b2b2b2; stroke-width: 0.5"/>
     </g>
     <g id="line2d_86">
      <g>
       <use xlink:href="#mf86c24a9aa" x="100.8" y="535.84453" style="stroke: #000000; stroke-width: 0.8"/>
      </g>
     </g>
     <g id="text_22">
      <!-- 500 mV -->
      <g transform="translate(42.914375 541.163437) scale(0.14 -0.14)">
       <use xlink:href="#DejaVuSans-35"/>
       <use xlink:href="#DejaVuSans-30" x="63.623047"/>
       <use xlink:href="#DejaVuSans-30" x="127.246094"/>
       <use xlink:href="#DejaVuSans-20" x="190.869141"/>
       <use xlink:href="#DejaVuSans-6d" x="222.65625"/>
       <use xlink:href="#DejaVuSans-56" x="320.068359"/>
      </g>
     </g>
    </g>
    <g id="ytick_12">
     <g id="line2d_87">
      <path d="M 100.8 501.951163 
L 987.84 501.951163 
" clip-path="url(#p4e3d82cdfc)" style="fill: none; stroke-dasharray: 1.85,0.8; stroke-dashoffset: 0; stroke: #b2b2b2; stroke-width: 0.5"/>
     </g>
     <g id="line2d_88">
      <g>
       <use xlink:href="#mf86c24a9aa" x="100.8" y="501.951163" style="stroke: #000000; stroke-width: 0.8"/>
      </g>
     </g>
     <g id="text_23">
      <!-- 1 V -->
      <g transform="translate(74.36625 507.270069) scale(0.14 -0.14)">
       <use xlink:href="#DejaVuSans-31"/>
       <use xlink:href="#DejaVuSans-20" x="63.623047"/>
       <use xlink:href="#DejaVuSans-56" x="95.410156"/>
      </g>
     </g>
    </g>
    <g id="text_24">
     <g id="patch_27">
      <path d="M 34.8768 554.329483 
L 34.8768 506.379483 
L 11.247425 506.379483 
L 11.247425 554.329483 
z
" style="fill: #ffff00; opacity: 0.2; stroke: #eeeeee; stroke-width: 0.5; stroke-linejoin: miter"/>
     </g>
     <!-- FOUT -->
     <g transform="translate(26.925238 549.289483) rotate(-90) scale(0.14 -0.14)">
      <use xlink:href="#DejaVuSans-46"/>
      <use xlink:href="#DejaVuSans-4f" x="57.519531"/>
      <use xlink:href="#DejaVuSans-55" x="136.230469"/>
      <use xlink:href="#DejaVuSans-54" x="209.423828"/>
     </g>
    </g>
   </g>
   <g id="line2d_89">
    <path d="M 141.12 488.393815 
L 173.472768 488.400594 
L 173.505024 488.204013 
L 173.569536 526.657394 
L 173.69856 572.504953 
L 173.730816 572.369108 
L 173.827584 567.828617 
L 173.892096 569.351799 
L 174.053376 570.057126 
L 174.117888 569.939259 
L 174.408192 569.483332 
L 174.440448 569.532932 
L 174.66624 569.721921 
L 176.182272 569.732147 
L 180.085248 569.753796 
L 193.568256 569.74419 
L 212.8896 569.73602 
L 295.78752 569.813298 
L 295.819776 569.858898 
L 295.852032 569.683138 
L 295.916544 555.646392 
L 296.142336 488.570061 
L 296.303616 488.400594 
L 296.851968 488.393815 
L 334.849536 488.461602 
L 334.881792 488.631069 
L 335.010816 571.511877 
L 335.107584 569.746616 
L 335.526912 569.736214 
L 416.489472 569.719569 
L 416.521728 567.627697 
L 416.779776 488.454823 
L 416.973312 488.393815 
L 947.52 488.393815 
L 947.52 488.393815 
" clip-path="url(#p4e3d82cdfc)" style="fill: none; stroke: #ff00ff; stroke-width: 2; stroke-linecap: square"/>
   </g>
   <g id="patch_28">
    <path d="M 100.8 576.72 
L 100.8 483.988966 
" style="fill: none; stroke: #bcbcbc; stroke-width: 0.8; stroke-linejoin: miter; stroke-linecap: square"/>
   </g>
   <g id="patch_29">
    <path d="M 987.84 576.72 
L 987.84 483.988966 
" style="fill: none; stroke: #bcbcbc; stroke-width: 0.8; stroke-linejoin: miter; stroke-linecap: square"/>
   </g>
   <g id="patch_30">
    <path d="M 100.8 576.72 
L 987.84 576.72 
" style="fill: none; stroke: #bcbcbc; stroke-width: 0.8; stroke-linejoin: miter; stroke-linecap: square"/>
   </g>
   <g id="patch_31">
    <path d="M 100.8 483.988966 
L 987.84 483.988966 
" style="fill: none; stroke: #bcbcbc; stroke-width: 0.8; stroke-linejoin: miter; stroke-linecap: square"/>
   </g>
  </g>
  <g id="axes_6">
   <g id="patch_32">
    <path d="M 201.6 628.56 
L 856.8 628.56 
L 856.8 615.6 
L 201.6 615.6 
z
" clip-path="url(#pb9d12bb5bc)" style="fill: #d3d3d3"/>
   </g>
   <g id="patch_33">
    <path d="M 201.6 628.56 
L 267.12 628.56 
L 267.12 615.6 
L 201.6 615.6 
z
" clip-path="url(#pb9d12bb5bc)" style="fill: #0000ff"/>
   </g>
   <g id="line2d_90">
    <path d="M 201.6 635.04 
L 201.6 609.12 
" clip-path="url(#p2b070f9b51)" style="fill: none; stroke: #ff0000; stroke-linecap: square"/>
   </g>
   <g id="line2d_91">
    <defs>
     <path id="m436bf37ead" d="M 0 5 
C 1.326016 5 2.597899 4.473168 3.535534 3.535534 
C 4.473168 2.597899 5 1.326016 5 0 
C 5 -1.326016 4.473168 -2.597899 3.535534 -3.535534 
C 2.597899 -4.473168 1.326016 -5 0 -5 
C -1.326016 -5 -2.597899 -4.473168 -3.535534 -3.535534 
C -4.473168 -2.597899 -5 -1.326016 -5 0 
C -5 1.326016 -4.473168 2.597899 -3.535534 3.535534 
C -2.597899 4.473168 -1.326016 5 0 5 
z
" style="stroke: #bfbfbf"/>
    </defs>
    <g>
     <use xlink:href="#m436bf37ead" x="267.12" y="622.08" style="fill: #ffffff; stroke: #bfbfbf"/>
    </g>
   </g>
   <g id="text_25">
    <!-- #Sweep -->
    <g transform="translate(138.622875 625.39125) scale(0.12 -0.12)">
     <defs>
      <path id="DejaVuSans-23" d="M 3272 2816 
L 2363 2816 
L 2100 1772 
L 3016 1772 
L 3272 2816 
z
M 2803 4594 
L 2478 3297 
L 3391 3297 
L 3719 4594 
L 4219 4594 
L 3897 3297 
L 4872 3297 
L 4872 2816 
L 3775 2816 
L 3519 1772 
L 4513 1772 
L 4513 1294 
L 3397 1294 
L 3072 0 
L 2572 0 
L 2894 1294 
L 1978 1294 
L 1656 0 
L 1153 0 
L 1478 1294 
L 494 1294 
L 494 1772 
L 1594 1772 
L 1856 2816 
L 850 2816 
L 850 3297 
L 1978 3297 
L 2297 4594 
L 2803 4594 
z
" transform="scale(0.015625)"/>
      <path id="DejaVuSans-77" d="M 269 3500 
L 844 3500 
L 1563 769 
L 2278 3500 
L 2956 3500 
L 3675 769 
L 4391 3500 
L 4966 3500 
L 4050 0 
L 3372 0 
L 2619 2869 
L 1863 0 
L 1184 0 
L 269 3500 
z
" transform="scale(0.015625)"/>
      <path id="DejaVuSans-70" d="M 1159 525 
L 1159 -1331 
L 581 -1331 
L 581 3500 
L 1159 3500 
L 1159 2969 
Q 1341 3281 1617 3432 
Q 1894 3584 2278 3584 
Q 2916 3584 3314 3078 
Q 3713 2572 3713 1747 
Q 3713 922 3314 415 
Q 2916 -91 2278 -91 
Q 1894 -91 1617 61 
Q 1341 213 1159 525 
z
M 3116 1747 
Q 3116 2381 2855 2742 
Q 2594 3103 2138 3103 
Q 1681 3103 1420 2742 
Q 1159 2381 1159 1747 
Q 1159 1113 1420 752 
Q 1681 391 2138 391 
Q 2594 391 2855 752 
Q 3116 1113 3116 1747 
z
" transform="scale(0.015625)"/>
     </defs>
     <use xlink:href="#DejaVuSans-23"/>
     <use xlink:href="#DejaVuSans-53" x="83.789062"/>
     <use xlink:href="#DejaVuSans-77" x="147.265625"/>
     <use xlink:href="#DejaVuSans-65" x="229.052734"/>
     <use xlink:href="#DejaVuSans-65" x="290.576172"/>
     <use xlink:href="#DejaVuSans-70" x="352.099609"/>
    </g>
   </g>
   <g id="text_26">
    <!-- $\mathdefault{14}$ -->
    <g transform="translate(869.904 625.39125) scale(0.12 -0.12)">
     <defs>
      <path id="DejaVuSans-34" d="M 2419 4116 
L 825 1625 
L 2419 1625 
L 2419 4116 
z
M 2253 4666 
L 3047 4666 
L 3047 1625 
L 3713 1625 
L 3713 1100 
L 3047 1100 
L 3047 0 
L 2419 0 
L 2419 1100 
L 313 1100 
L 313 1709 
L 2253 4666 
z
" transform="scale(0.015625)"/>
     </defs>
     <use xlink:href="#DejaVuSans-31" transform="translate(0 0.09375)"/>
     <use xlink:href="#DejaVuSans-34" transform="translate(63.623047 0.09375)"/>
    </g>
   </g>
  </g>
  <g id="text_27">
   <!-- DFF under BBI sweep analysis (Sweep = 24E-9) -->
   <g transform="translate(313.34625 25.1175) scale(0.16 -0.16)">
    <defs>
     <path id="DejaVuSans-75" d="M 544 1381 
L 544 3500 
L 1119 3500 
L 1119 1403 
Q 1119 906 1312 657 
Q 1506 409 1894 409 
Q 2359 409 2629 706 
Q 2900 1003 2900 1516 
L 2900 3500 
L 3475 3500 
L 3475 0 
L 2900 0 
L 2900 538 
Q 2691 219 2414 64 
Q 2138 -91 1772 -91 
Q 1169 -91 856 284 
Q 544 659 544 1381 
z
M 1991 3584 
L 1991 3584 
z
" transform="scale(0.015625)"/>
     <path id="DejaVuSans-64" d="M 2906 2969 
L 2906 4863 
L 3481 4863 
L 3481 0 
L 2906 0 
L 2906 525 
Q 2725 213 2448 61 
Q 2172 -91 1784 -91 
Q 1150 -91 751 415 
Q 353 922 353 1747 
Q 353 2572 751 3078 
Q 1150 3584 1784 3584 
Q 2172 3584 2448 3432 
Q 2725 3281 2906 2969 
z
M 947 1747 
Q 947 1113 1208 752 
Q 1469 391 1925 391 
Q 2381 391 2643 752 
Q 2906 1113 2906 1747 
Q 2906 2381 2643 2742 
Q 2381 3103 1925 3103 
Q 1469 3103 1208 2742 
Q 947 2381 947 1747 
z
" transform="scale(0.015625)"/>
     <path id="DejaVuSans-72" d="M 2631 2963 
Q 2534 3019 2420 3045 
Q 2306 3072 2169 3072 
Q 1681 3072 1420 2755 
Q 1159 2438 1159 1844 
L 1159 0 
L 581 0 
L 581 3500 
L 1159 3500 
L 1159 2956 
Q 1341 3275 1631 3429 
Q 1922 3584 2338 3584 
Q 2397 3584 2469 3576 
Q 2541 3569 2628 3553 
L 2631 2963 
z
" transform="scale(0.015625)"/>
     <path id="DejaVuSans-61" d="M 2194 1759 
Q 1497 1759 1228 1600 
Q 959 1441 959 1056 
Q 959 750 1161 570 
Q 1363 391 1709 391 
Q 2188 391 2477 730 
Q 2766 1069 2766 1631 
L 2766 1759 
L 2194 1759 
z
M 3341 1997 
L 3341 0 
L 2766 0 
L 2766 531 
Q 2569 213 2275 61 
Q 1981 -91 1556 -91 
Q 1019 -91 701 211 
Q 384 513 384 1019 
Q 384 1609 779 1909 
Q 1175 2209 1959 2209 
L 2766 2209 
L 2766 2266 
Q 2766 2663 2505 2880 
Q 2244 3097 1772 3097 
Q 1472 3097 1187 3025 
Q 903 2953 641 2809 
L 641 3341 
Q 956 3463 1253 3523 
Q 1550 3584 1831 3584 
Q 2591 3584 2966 3190 
Q 3341 2797 3341 1997 
z
" transform="scale(0.015625)"/>
     <path id="DejaVuSans-6c" d="M 603 4863 
L 1178 4863 
L 1178 0 
L 603 0 
L 603 4863 
z
" transform="scale(0.015625)"/>
     <path id="DejaVuSans-79" d="M 2059 -325 
Q 1816 -950 1584 -1140 
Q 1353 -1331 966 -1331 
L 506 -1331 
L 506 -850 
L 844 -850 
Q 1081 -850 1212 -737 
Q 1344 -625 1503 -206 
L 1606 56 
L 191 3500 
L 800 3500 
L 1894 763 
L 2988 3500 
L 3597 3500 
L 2059 -325 
z
" transform="scale(0.015625)"/>
     <path id="DejaVuSans-28" d="M 1984 4856 
Q 1566 4138 1362 3434 
Q 1159 2731 1159 2009 
Q 1159 1288 1364 580 
Q 1569 -128 1984 -844 
L 1484 -844 
Q 1016 -109 783 600 
Q 550 1309 550 2009 
Q 550 2706 781 3412 
Q 1013 4119 1484 4856 
L 1984 4856 
z
" transform="scale(0.015625)"/>
     <path id="DejaVuSans-3d" d="M 678 2906 
L 4684 2906 
L 4684 2381 
L 678 2381 
L 678 2906 
z
M 678 1631 
L 4684 1631 
L 4684 1100 
L 678 1100 
L 678 1631 
z
" transform="scale(0.015625)"/>
     <path id="DejaVuSans-2d" d="M 313 2009 
L 1997 2009 
L 1997 1497 
L 313 1497 
L 313 2009 
z
" transform="scale(0.015625)"/>
     <path id="DejaVuSans-39" d="M 703 97 
L 703 672 
Q 941 559 1184 500 
Q 1428 441 1663 441 
Q 2288 441 2617 861 
Q 2947 1281 2994 2138 
Q 2813 1869 2534 1725 
Q 2256 1581 1919 1581 
Q 1219 1581 811 2004 
Q 403 2428 403 3163 
Q 403 3881 828 4315 
Q 1253 4750 1959 4750 
Q 2769 4750 3195 4129 
Q 3622 3509 3622 2328 
Q 3622 1225 3098 567 
Q 2575 -91 1691 -91 
Q 1453 -91 1209 -44 
Q 966 3 703 97 
z
M 1959 2075 
Q 2384 2075 2632 2365 
Q 2881 2656 2881 3163 
Q 2881 3666 2632 3958 
Q 2384 4250 1959 4250 
Q 1534 4250 1286 3958 
Q 1038 3666 1038 3163 
Q 1038 2656 1286 2365 
Q 1534 2075 1959 2075 
z
" transform="scale(0.015625)"/>
     <path id="DejaVuSans-29" d="M 513 4856 
L 1013 4856 
Q 1481 4119 1714 3412 
Q 1947 2706 1947 2009 
Q 1947 1309 1714 600 
Q 1481 -109 1013 -844 
L 513 -844 
Q 928 -128 1133 580 
Q 1338 1288 1338 2009 
Q 1338 2731 1133 3434 
Q 928 4138 513 4856 
z
" transform="scale(0.015625)"/>
    </defs>
    <use xlink:href="#DejaVuSans-44"/>
    <use xlink:href="#DejaVuSans-46" x="77.001953"/>
    <use xlink:href="#DejaVuSans-46" x="134.521484"/>
    <use xlink:href="#DejaVuSans-20" x="192.041016"/>
    <use xlink:href="#DejaVuSans-75" x="223.828125"/>
    <use xlink:href="#DejaVuSans-6e" x="287.207031"/>
    <use xlink:href="#DejaVuSans-64" x="350.585938"/>
    <use xlink:href="#DejaVuSans-65" x="414.0625"/>
    <use xlink:href="#DejaVuSans-72" x="475.585938"/>
    <use xlink:href="#DejaVuSans-20" x="516.699219"/>
    <use xlink:href="#DejaVuSans-42" x="548.486328"/>
    <use xlink:href="#DejaVuSans-42" x="617.089844"/>
    <use xlink:href="#DejaVuSans-49" x="685.693359"/>
    <use xlink:href="#DejaVuSans-20" x="715.185547"/>
    <use xlink:href="#DejaVuSans-73" x="746.972656"/>
    <use xlink:href="#DejaVuSans-77" x="799.072266"/>
    <use xlink:href="#DejaVuSans-65" x="880.859375"/>
    <use xlink:href="#DejaVuSans-65" x="942.382812"/>
    <use xlink:href="#DejaVuSans-70" x="1003.90625"/>
    <use xlink:href="#DejaVuSans-20" x="1067.382812"/>
    <use xlink:href="#DejaVuSans-61" x="1099.169922"/>
    <use xlink:href="#DejaVuSans-6e" x="1160.449219"/>
    <use xlink:href="#DejaVuSans-61" x="1223.828125"/>
    <use xlink:href="#DejaVuSans-6c" x="1285.107422"/>
    <use xlink:href="#DejaVuSans-79" x="1312.890625"/>
    <use xlink:href="#DejaVuSans-73" x="1372.070312"/>
    <use xlink:href="#DejaVuSans-69" x="1424.169922"/>
    <use xlink:href="#DejaVuSans-73" x="1451.953125"/>
    <use xlink:href="#DejaVuSans-20" x="1504.052734"/>
    <use xlink:href="#DejaVuSans-28" x="1535.839844"/>
    <use xlink:href="#DejaVuSans-53" x="1574.853516"/>
    <use xlink:href="#DejaVuSans-77" x="1638.330078"/>
    <use xlink:href="#DejaVuSans-65" x="1720.117188"/>
    <use xlink:href="#DejaVuSans-65" x="1781.640625"/>
    <use xlink:href="#DejaVuSans-70" x="1843.164062"/>
    <use xlink:href="#DejaVuSans-20" x="1906.640625"/>
    <use xlink:href="#DejaVuSans-3d" x="1938.427734"/>
    <use xlink:href="#DejaVuSans-20" x="2022.216797"/>
    <use xlink:href="#DejaVuSans-32" x="2054.003906"/>
    <use xlink:href="#DejaVuSans-34" x="2117.626953"/>
    <use xlink:href="#DejaVuSans-45" x="2181.25"/>
    <use xlink:href="#DejaVuSans-2d" x="2244.433594"/>
    <use xlink:href="#DejaVuSans-39" x="2280.517578"/>
    <use xlink:href="#DejaVuSans-29" x="2344.140625"/>
   </g>
  </g>
 </g>
 <defs>
  <clipPath id="p0814cb306f">
   <rect x="100.8" y="38.88" width="887.04" height="92.731034"/>
  </clipPath>
  <clipPath id="pf8a8bb0b4c">
   <rect x="100.8" y="150.157241" width="887.04" height="92.731034"/>
  </clipPath>
  <clipPath id="pb6f1a590c6">
   <rect x="100.8" y="261.434483" width="887.04" height="92.731034"/>
  </clipPath>
  <clipPath id="p01b46b58e2">
   <rect x="100.8" y="372.711724" width="887.04" height="92.731034"/>
  </clipPath>
  <clipPath id="p4e3d82cdfc">
   <rect x="100.8" y="483.988966" width="887.04" height="92.731034"/>
  </clipPath>
  <clipPath id="pb9d12bb5bc">
   <rect x="201.6" y="609.12" width="655.2" height="25.92"/>
  </clipPath>
  <clipPath id="p2b070f9b51">
   <path d="M 201.6 628.56 
L 856.8 628.56 
L 856.8 615.6 
L 201.6 615.6 
z
"/>
  </clipPath>
 </defs>
</svg>
