<?xml version="1.0" encoding="utf-8" standalone="no"?>
<!DOCTYPE svg PUBLIC "-//W3C//DTD SVG 1.1//EN"
  "http://www.w3.org/Graphics/SVG/1.1/DTD/svg11.dtd">
<svg xmlns:xlink="http://www.w3.org/1999/xlink" width="1008pt" height="648pt" viewBox="0 0 1008 648" xmlns="http://www.w3.org/2000/svg" version="1.1">
 <metadata>
  <rdf:RDF xmlns:dc="http://purl.org/dc/elements/1.1/" xmlns:cc="http://creativecommons.org/ns#" xmlns:rdf="http://www.w3.org/1999/02/22-rdf-syntax-ns#">
   <cc:Work>
    <dc:type rdf:resource="http://purl.org/dc/dcmitype/StillImage"/>
    <dc:date>2024-06-03T10:45:40.411141</dc:date>
    <dc:format>image/svg+xml</dc:format>
    <dc:creator>
     <cc:Agent>
      <dc:title>Matplotlib v3.9.0, https://matplotlib.org/</dc:title>
     </cc:Agent>
    </dc:creator>
   </cc:Work>
  </rdf:RDF>
 </metadata>
 <defs>
  <style type="text/css">*{stroke-linejoin: round; stroke-linecap: butt}</style>
 </defs>
 <g id="figure_1">
  <g id="patch_1">
   <path d="M 0 648 
L 1008 648 
L 1008 0 
L 0 0 
z
" style="fill: #ffffff"/>
  </g>
  <g id="axes_1">
   <g id="patch_2">
    <path d="M 100.8 131.611034 
L 987.84 131.611034 
L 987.84 38.88 
L 100.8 38.88 
z
" style="fill: #eeeeee"/>
   </g>
   <g id="matplotlib.axis_1">
    <g id="xtick_1">
     <g id="line2d_1">
      <path d="M 141.12 131.611034 
L 141.12 38.88 
" clip-path="url(#pb8e62d6bdc)" style="fill: none; stroke-dasharray: 1.85,0.8; stroke-dashoffset: 0; stroke: #b2b2b2; stroke-width: 0.5"/>
     </g>
     <g id="line2d_2">
      <defs>
       <path id="mc22c9f950c" d="M 0 0 
L 0 -3.5 
" style="stroke: #000000; stroke-width: 0.8"/>
      </defs>
      <g>
       <use xlink:href="#mc22c9f950c" x="141.12" y="131.611034" style="stroke: #000000; stroke-width: 0.8"/>
      </g>
     </g>
    </g>
    <g id="xtick_2">
     <g id="line2d_3">
      <path d="M 302.4 131.611034 
L 302.4 38.88 
" clip-path="url(#pb8e62d6bdc)" style="fill: none; stroke-dasharray: 1.85,0.8; stroke-dashoffset: 0; stroke: #b2b2b2; stroke-width: 0.5"/>
     </g>
     <g id="line2d_4">
      <g>
       <use xlink:href="#mc22c9f950c" x="302.4" y="131.611034" style="stroke: #000000; stroke-width: 0.8"/>
      </g>
     </g>
    </g>
    <g id="xtick_3">
     <g id="line2d_5">
      <path d="M 463.68 131.611034 
L 463.68 38.88 
" clip-path="url(#pb8e62d6bdc)" style="fill: none; stroke-dasharray: 1.85,0.8; stroke-dashoffset: 0; stroke: #b2b2b2; stroke-width: 0.5"/>
     </g>
     <g id="line2d_6">
      <g>
       <use xlink:href="#mc22c9f950c" x="463.68" y="131.611034" style="stroke: #000000; stroke-width: 0.8"/>
      </g>
     </g>
    </g>
    <g id="xtick_4">
     <g id="line2d_7">
      <path d="M 624.96 131.611034 
L 624.96 38.88 
" clip-path="url(#pb8e62d6bdc)" style="fill: none; stroke-dasharray: 1.85,0.8; stroke-dashoffset: 0; stroke: #b2b2b2; stroke-width: 0.5"/>
     </g>
     <g id="line2d_8">
      <g>
       <use xlink:href="#mc22c9f950c" x="624.96" y="131.611034" style="stroke: #000000; stroke-width: 0.8"/>
      </g>
     </g>
    </g>
    <g id="xtick_5">
     <g id="line2d_9">
      <path d="M 786.24 131.611034 
L 786.24 38.88 
" clip-path="url(#pb8e62d6bdc)" style="fill: none; stroke-dasharray: 1.85,0.8; stroke-dashoffset: 0; stroke: #b2b2b2; stroke-width: 0.5"/>
     </g>
     <g id="line2d_10">
      <g>
       <use xlink:href="#mc22c9f950c" x="786.24" y="131.611034" style="stroke: #000000; stroke-width: 0.8"/>
      </g>
     </g>
    </g>
    <g id="xtick_6">
     <g id="line2d_11">
      <path d="M 947.52 131.611034 
L 947.52 38.88 
" clip-path="url(#pb8e62d6bdc)" style="fill: none; stroke-dasharray: 1.85,0.8; stroke-dashoffset: 0; stroke: #b2b2b2; stroke-width: 0.5"/>
     </g>
     <g id="line2d_12">
      <g>
       <use xlink:href="#mc22c9f950c" x="947.52" y="131.611034" style="stroke: #000000; stroke-width: 0.8"/>
      </g>
     </g>
    </g>
   </g>
   <g id="matplotlib.axis_2">
    <g id="ytick_1">
     <g id="line2d_13">
      <path d="M 100.8 98.340394 
L 987.84 98.340394 
" clip-path="url(#pb8e62d6bdc)" style="fill: none; stroke-dasharray: 1.85,0.8; stroke-dashoffset: 0; stroke: #b2b2b2; stroke-width: 0.5"/>
     </g>
     <g id="line2d_14">
      <defs>
       <path id="m5c61c6be1a" d="M 0 0 
L 3.5 0 
" style="stroke: #000000; stroke-width: 0.8"/>
      </defs>
      <g>
       <use xlink:href="#m5c61c6be1a" x="100.8" y="98.340394" style="stroke: #000000; stroke-width: 0.8"/>
      </g>
     </g>
     <g id="text_1">
      <!-- −200 V -->
      <g transform="translate(44.819688 103.6593) scale(0.14 -0.14)">
       <defs>
        <path id="DejaVuSans-2212" d="M 678 2272 
L 4684 2272 
L 4684 1741 
L 678 1741 
L 678 2272 
z
" transform="scale(0.015625)"/>
        <path id="DejaVuSans-32" d="M 1228 531 
L 3431 531 
L 3431 0 
L 469 0 
L 469 531 
Q 828 903 1448 1529 
Q 2069 2156 2228 2338 
Q 2531 2678 2651 2914 
Q 2772 3150 2772 3378 
Q 2772 3750 2511 3984 
Q 2250 4219 1831 4219 
Q 1534 4219 1204 4116 
Q 875 4013 500 3803 
L 500 4441 
Q 881 4594 1212 4672 
Q 1544 4750 1819 4750 
Q 2544 4750 2975 4387 
Q 3406 4025 3406 3419 
Q 3406 3131 3298 2873 
Q 3191 2616 2906 2266 
Q 2828 2175 2409 1742 
Q 1991 1309 1228 531 
z
" transform="scale(0.015625)"/>
        <path id="DejaVuSans-30" d="M 2034 4250 
Q 1547 4250 1301 3770 
Q 1056 3291 1056 2328 
Q 1056 1369 1301 889 
Q 1547 409 2034 409 
Q 2525 409 2770 889 
Q 3016 1369 3016 2328 
Q 3016 3291 2770 3770 
Q 2525 4250 2034 4250 
z
M 2034 4750 
Q 2819 4750 3233 4129 
Q 3647 3509 3647 2328 
Q 3647 1150 3233 529 
Q 2819 -91 2034 -91 
Q 1250 -91 836 529 
Q 422 1150 422 2328 
Q 422 3509 836 4129 
Q 1250 4750 2034 4750 
z
" transform="scale(0.015625)"/>
        <path id="DejaVuSans-20" transform="scale(0.015625)"/>
        <path id="DejaVuSans-56" d="M 1831 0 
L 50 4666 
L 709 4666 
L 2188 738 
L 3669 4666 
L 4325 4666 
L 2547 0 
L 1831 0 
z
" transform="scale(0.015625)"/>
       </defs>
       <use xlink:href="#DejaVuSans-2212"/>
       <use xlink:href="#DejaVuSans-32" x="83.789062"/>
       <use xlink:href="#DejaVuSans-30" x="147.412109"/>
       <use xlink:href="#DejaVuSans-30" x="211.035156"/>
       <use xlink:href="#DejaVuSans-20" x="274.658203"/>
       <use xlink:href="#DejaVuSans-56" x="306.445312"/>
      </g>
     </g>
    </g>
    <g id="ytick_2">
     <g id="line2d_15">
      <path d="M 100.8 45.027377 
L 987.84 45.027377 
" clip-path="url(#pb8e62d6bdc)" style="fill: none; stroke-dasharray: 1.85,0.8; stroke-dashoffset: 0; stroke: #b2b2b2; stroke-width: 0.5"/>
     </g>
     <g id="line2d_16">
      <g>
       <use xlink:href="#m5c61c6be1a" x="100.8" y="45.027377" style="stroke: #000000; stroke-width: 0.8"/>
      </g>
     </g>
     <g id="text_2">
      <!-- 0 V -->
      <g transform="translate(74.36625 50.346284) scale(0.14 -0.14)">
       <use xlink:href="#DejaVuSans-30"/>
       <use xlink:href="#DejaVuSans-20" x="63.623047"/>
       <use xlink:href="#DejaVuSans-56" x="95.410156"/>
      </g>
     </g>
    </g>
    <g id="text_3">
     <g id="patch_3">
      <path d="M 34.8768 131.080205 
L 34.8768 39.41083 
L 11.247425 39.41083 
L 11.247425 131.080205 
z
" style="fill: #ffff00; opacity: 0.2; stroke: #eeeeee; stroke-width: 0.5; stroke-linejoin: miter"/>
     </g>
     <!-- VPULSE BBI -->
     <g transform="translate(26.925238 126.040205) rotate(-90) scale(0.14 -0.14)">
      <defs>
       <path id="DejaVuSans-50" d="M 1259 4147 
L 1259 2394 
L 2053 2394 
Q 2494 2394 2734 2622 
Q 2975 2850 2975 3272 
Q 2975 3691 2734 3919 
Q 2494 4147 2053 4147 
L 1259 4147 
z
M 628 4666 
L 2053 4666 
Q 2838 4666 3239 4311 
Q 3641 3956 3641 3272 
Q 3641 2581 3239 2228 
Q 2838 1875 2053 1875 
L 1259 1875 
L 1259 0 
L 628 0 
L 628 4666 
z
" transform="scale(0.015625)"/>
       <path id="DejaVuSans-55" d="M 556 4666 
L 1191 4666 
L 1191 1831 
Q 1191 1081 1462 751 
Q 1734 422 2344 422 
Q 2950 422 3222 751 
Q 3494 1081 3494 1831 
L 3494 4666 
L 4128 4666 
L 4128 1753 
Q 4128 841 3676 375 
Q 3225 -91 2344 -91 
Q 1459 -91 1007 375 
Q 556 841 556 1753 
L 556 4666 
z
" transform="scale(0.015625)"/>
       <path id="DejaVuSans-4c" d="M 628 4666 
L 1259 4666 
L 1259 531 
L 3531 531 
L 3531 0 
L 628 0 
L 628 4666 
z
" transform="scale(0.015625)"/>
       <path id="DejaVuSans-53" d="M 3425 4513 
L 3425 3897 
Q 3066 4069 2747 4153 
Q 2428 4238 2131 4238 
Q 1616 4238 1336 4038 
Q 1056 3838 1056 3469 
Q 1056 3159 1242 3001 
Q 1428 2844 1947 2747 
L 2328 2669 
Q 3034 2534 3370 2195 
Q 3706 1856 3706 1288 
Q 3706 609 3251 259 
Q 2797 -91 1919 -91 
Q 1588 -91 1214 -16 
Q 841 59 441 206 
L 441 856 
Q 825 641 1194 531 
Q 1563 422 1919 422 
Q 2459 422 2753 634 
Q 3047 847 3047 1241 
Q 3047 1584 2836 1778 
Q 2625 1972 2144 2069 
L 1759 2144 
Q 1053 2284 737 2584 
Q 422 2884 422 3419 
Q 422 4038 858 4394 
Q 1294 4750 2059 4750 
Q 2388 4750 2728 4690 
Q 3069 4631 3425 4513 
z
" transform="scale(0.015625)"/>
       <path id="DejaVuSans-45" d="M 628 4666 
L 3578 4666 
L 3578 4134 
L 1259 4134 
L 1259 2753 
L 3481 2753 
L 3481 2222 
L 1259 2222 
L 1259 531 
L 3634 531 
L 3634 0 
L 628 0 
L 628 4666 
z
" transform="scale(0.015625)"/>
       <path id="DejaVuSans-42" d="M 1259 2228 
L 1259 519 
L 2272 519 
Q 2781 519 3026 730 
Q 3272 941 3272 1375 
Q 3272 1813 3026 2020 
Q 2781 2228 2272 2228 
L 1259 2228 
z
M 1259 4147 
L 1259 2741 
L 2194 2741 
Q 2656 2741 2882 2914 
Q 3109 3088 3109 3444 
Q 3109 3797 2882 3972 
Q 2656 4147 2194 4147 
L 1259 4147 
z
M 628 4666 
L 2241 4666 
Q 2963 4666 3353 4366 
Q 3744 4066 3744 3513 
Q 3744 3084 3544 2831 
Q 3344 2578 2956 2516 
Q 3422 2416 3680 2098 
Q 3938 1781 3938 1306 
Q 3938 681 3513 340 
Q 3088 0 2303 0 
L 628 0 
L 628 4666 
z
" transform="scale(0.015625)"/>
       <path id="DejaVuSans-49" d="M 628 4666 
L 1259 4666 
L 1259 0 
L 628 0 
L 628 4666 
z
" transform="scale(0.015625)"/>
      </defs>
      <use xlink:href="#DejaVuSans-56"/>
      <use xlink:href="#DejaVuSans-50" x="68.408203"/>
      <use xlink:href="#DejaVuSans-55" x="128.710938"/>
      <use xlink:href="#DejaVuSans-4c" x="201.904297"/>
      <use xlink:href="#DejaVuSans-53" x="257.617188"/>
      <use xlink:href="#DejaVuSans-45" x="321.09375"/>
      <use xlink:href="#DejaVuSans-20" x="384.277344"/>
      <use xlink:href="#DejaVuSans-42" x="416.064453"/>
      <use xlink:href="#DejaVuSans-42" x="484.667969"/>
      <use xlink:href="#DejaVuSans-49" x="553.271484"/>
     </g>
    </g>
   </g>
   <g id="line2d_17">
    <path d="M 141.12 45.027377 
L 357.267456 45.136282 
L 357.751296 46.425538 
L 365.976576 69.006772 
L 373.395456 89.863624 
L 375.008256 94.440546 
L 376.814592 99.673219 
L 380.29824 110.807642 
L 381.878784 115.853719 
L 383.169024 119.585631 
L 383.620608 119.80688 
L 384.685056 120.297359 
L 385.168896 120.526605 
L 386.233344 121.017085 
L 386.813952 121.272988 
L 387.684864 121.656841 
L 388.265472 121.912744 
L 389.104128 122.269941 
L 390.684672 122.936354 
L 391.329792 123.202919 
L 392.426496 123.629423 
L 393.168384 123.922644 
L 394.265088 124.349149 
L 395.168256 124.677024 
L 395.845632 124.943589 
L 396.652032 125.25547 
L 398.006784 125.804594 
L 400.651776 126.790885 
L 401.26464 127.022796 
L 403.2 127.395987 
L 421.682688 127.289361 
L 421.90848 126.801547 
L 440.197632 75.087922 
L 443.939328 63.292417 
L 447.648768 51.617666 
L 452.261376 49.3412 
L 457.615872 46.984578 
L 466.324992 43.484472 
L 467.195904 43.268927 
L 481.485312 43.108189 
L 488.291328 43.184799 
L 503.645184 43.746186 
L 531.4176 44.46146 
L 557.06112 44.774399 
L 592.671744 44.945888 
L 640.700928 44.953885 
L 947.52 44.953885 
L 947.52 44.953885 
" clip-path="url(#pb8e62d6bdc)" style="fill: none; stroke: #ff0000; stroke-width: 2; stroke-linecap: square"/>
   </g>
   <g id="patch_4">
    <path d="M 100.8 131.611034 
L 100.8 38.88 
" style="fill: none; stroke: #bcbcbc; stroke-width: 0.8; stroke-linejoin: miter; stroke-linecap: square"/>
   </g>
   <g id="patch_5">
    <path d="M 987.84 131.611034 
L 987.84 38.88 
" style="fill: none; stroke: #bcbcbc; stroke-width: 0.8; stroke-linejoin: miter; stroke-linecap: square"/>
   </g>
   <g id="patch_6">
    <path d="M 100.8 131.611034 
L 987.84 131.611034 
" style="fill: none; stroke: #bcbcbc; stroke-width: 0.8; stroke-linejoin: miter; stroke-linecap: square"/>
   </g>
   <g id="patch_7">
    <path d="M 100.8 38.88 
L 987.84 38.88 
" style="fill: none; stroke: #bcbcbc; stroke-width: 0.8; stroke-linejoin: miter; stroke-linecap: square"/>
   </g>
  </g>
  <g id="axes_2">
   <g id="patch_8">
    <path d="M 100.8 242.888276 
L 987.84 242.888276 
L 987.84 150.157241 
L 100.8 150.157241 
z
" style="fill: #eeeeee"/>
   </g>
   <g id="matplotlib.axis_3">
    <g id="xtick_7">
     <g id="line2d_18">
      <path d="M 141.12 242.888276 
L 141.12 150.157241 
" clip-path="url(#pbf7a39da2d)" style="fill: none; stroke-dasharray: 1.85,0.8; stroke-dashoffset: 0; stroke: #b2b2b2; stroke-width: 0.5"/>
     </g>
     <g id="line2d_19">
      <g>
       <use xlink:href="#mc22c9f950c" x="141.12" y="242.888276" style="stroke: #000000; stroke-width: 0.8"/>
      </g>
     </g>
    </g>
    <g id="xtick_8">
     <g id="line2d_20">
      <path d="M 302.4 242.888276 
L 302.4 150.157241 
" clip-path="url(#pbf7a39da2d)" style="fill: none; stroke-dasharray: 1.85,0.8; stroke-dashoffset: 0; stroke: #b2b2b2; stroke-width: 0.5"/>
     </g>
     <g id="line2d_21">
      <g>
       <use xlink:href="#mc22c9f950c" x="302.4" y="242.888276" style="stroke: #000000; stroke-width: 0.8"/>
      </g>
     </g>
    </g>
    <g id="xtick_9">
     <g id="line2d_22">
      <path d="M 463.68 242.888276 
L 463.68 150.157241 
" clip-path="url(#pbf7a39da2d)" style="fill: none; stroke-dasharray: 1.85,0.8; stroke-dashoffset: 0; stroke: #b2b2b2; stroke-width: 0.5"/>
     </g>
     <g id="line2d_23">
      <g>
       <use xlink:href="#mc22c9f950c" x="463.68" y="242.888276" style="stroke: #000000; stroke-width: 0.8"/>
      </g>
     </g>
    </g>
    <g id="xtick_10">
     <g id="line2d_24">
      <path d="M 624.96 242.888276 
L 624.96 150.157241 
" clip-path="url(#pbf7a39da2d)" style="fill: none; stroke-dasharray: 1.85,0.8; stroke-dashoffset: 0; stroke: #b2b2b2; stroke-width: 0.5"/>
     </g>
     <g id="line2d_25">
      <g>
       <use xlink:href="#mc22c9f950c" x="624.96" y="242.888276" style="stroke: #000000; stroke-width: 0.8"/>
      </g>
     </g>
    </g>
    <g id="xtick_11">
     <g id="line2d_26">
      <path d="M 786.24 242.888276 
L 786.24 150.157241 
" clip-path="url(#pbf7a39da2d)" style="fill: none; stroke-dasharray: 1.85,0.8; stroke-dashoffset: 0; stroke: #b2b2b2; stroke-width: 0.5"/>
     </g>
     <g id="line2d_27">
      <g>
       <use xlink:href="#mc22c9f950c" x="786.24" y="242.888276" style="stroke: #000000; stroke-width: 0.8"/>
      </g>
     </g>
    </g>
    <g id="xtick_12">
     <g id="line2d_28">
      <path d="M 947.52 242.888276 
L 947.52 150.157241 
" clip-path="url(#pbf7a39da2d)" style="fill: none; stroke-dasharray: 1.85,0.8; stroke-dashoffset: 0; stroke: #b2b2b2; stroke-width: 0.5"/>
     </g>
     <g id="line2d_29">
      <g>
       <use xlink:href="#mc22c9f950c" x="947.52" y="242.888276" style="stroke: #000000; stroke-width: 0.8"/>
      </g>
     </g>
    </g>
   </g>
   <g id="matplotlib.axis_4">
    <g id="ytick_3">
     <g id="line2d_30">
      <path d="M 100.8 219.383518 
L 987.84 219.383518 
" clip-path="url(#pbf7a39da2d)" style="fill: none; stroke-dasharray: 1.85,0.8; stroke-dashoffset: 0; stroke: #b2b2b2; stroke-width: 0.5"/>
     </g>
     <g id="line2d_31">
      <g>
       <use xlink:href="#m5c61c6be1a" x="100.8" y="219.383518" style="stroke: #000000; stroke-width: 0.8"/>
      </g>
     </g>
     <g id="text_4">
      <!-- 0 V -->
      <g transform="translate(74.36625 224.702424) scale(0.14 -0.14)">
       <use xlink:href="#DejaVuSans-30"/>
       <use xlink:href="#DejaVuSans-20" x="63.623047"/>
       <use xlink:href="#DejaVuSans-56" x="95.410156"/>
      </g>
     </g>
    </g>
    <g id="ytick_4">
     <g id="line2d_32">
      <path d="M 100.8 185.789456 
L 987.84 185.789456 
" clip-path="url(#pbf7a39da2d)" style="fill: none; stroke-dasharray: 1.85,0.8; stroke-dashoffset: 0; stroke: #b2b2b2; stroke-width: 0.5"/>
     </g>
     <g id="line2d_33">
      <g>
       <use xlink:href="#m5c61c6be1a" x="100.8" y="185.789456" style="stroke: #000000; stroke-width: 0.8"/>
      </g>
     </g>
     <g id="text_5">
      <!-- 1 V -->
      <g transform="translate(74.36625 191.108362) scale(0.14 -0.14)">
       <defs>
        <path id="DejaVuSans-31" d="M 794 531 
L 1825 531 
L 1825 4091 
L 703 3866 
L 703 4441 
L 1819 4666 
L 2450 4666 
L 2450 531 
L 3481 531 
L 3481 0 
L 794 0 
L 794 531 
z
" transform="scale(0.015625)"/>
       </defs>
       <use xlink:href="#DejaVuSans-31"/>
       <use xlink:href="#DejaVuSans-20" x="63.623047"/>
       <use xlink:href="#DejaVuSans-56" x="95.410156"/>
      </g>
     </g>
    </g>
    <g id="ytick_5">
     <g id="line2d_34">
      <path d="M 100.8 152.195393 
L 987.84 152.195393 
" clip-path="url(#pbf7a39da2d)" style="fill: none; stroke-dasharray: 1.85,0.8; stroke-dashoffset: 0; stroke: #b2b2b2; stroke-width: 0.5"/>
     </g>
     <g id="line2d_35">
      <g>
       <use xlink:href="#m5c61c6be1a" x="100.8" y="152.195393" style="stroke: #000000; stroke-width: 0.8"/>
      </g>
     </g>
     <g id="text_6">
      <!-- 2 V -->
      <g transform="translate(74.36625 157.514299) scale(0.14 -0.14)">
       <use xlink:href="#DejaVuSans-32"/>
       <use xlink:href="#DejaVuSans-20" x="63.623047"/>
       <use xlink:href="#DejaVuSans-56" x="95.410156"/>
      </g>
     </g>
    </g>
    <g id="text_7">
     <g id="patch_9">
      <path d="M 34.8768 224.531509 
L 34.8768 168.514009 
L 11.247425 168.514009 
L 11.247425 224.531509 
z
" style="fill: #ffff00; opacity: 0.2; stroke: #eeeeee; stroke-width: 0.5; stroke-linejoin: miter"/>
     </g>
     <!-- DFF IN -->
     <g transform="translate(26.925238 219.491509) rotate(-90) scale(0.14 -0.14)">
      <defs>
       <path id="DejaVuSans-44" d="M 1259 4147 
L 1259 519 
L 2022 519 
Q 2988 519 3436 956 
Q 3884 1394 3884 2338 
Q 3884 3275 3436 3711 
Q 2988 4147 2022 4147 
L 1259 4147 
z
M 628 4666 
L 1925 4666 
Q 3281 4666 3915 4102 
Q 4550 3538 4550 2338 
Q 4550 1131 3912 565 
Q 3275 0 1925 0 
L 628 0 
L 628 4666 
z
" transform="scale(0.015625)"/>
       <path id="DejaVuSans-46" d="M 628 4666 
L 3309 4666 
L 3309 4134 
L 1259 4134 
L 1259 2759 
L 3109 2759 
L 3109 2228 
L 1259 2228 
L 1259 0 
L 628 0 
L 628 4666 
z
" transform="scale(0.015625)"/>
       <path id="DejaVuSans-4e" d="M 628 4666 
L 1478 4666 
L 3547 763 
L 3547 4666 
L 4159 4666 
L 4159 0 
L 3309 0 
L 1241 3903 
L 1241 0 
L 628 0 
L 628 4666 
z
" transform="scale(0.015625)"/>
      </defs>
      <use xlink:href="#DejaVuSans-44"/>
      <use xlink:href="#DejaVuSans-46" x="77.001953"/>
      <use xlink:href="#DejaVuSans-46" x="134.521484"/>
      <use xlink:href="#DejaVuSans-20" x="192.041016"/>
      <use xlink:href="#DejaVuSans-49" x="223.828125"/>
      <use xlink:href="#DejaVuSans-4e" x="253.320312"/>
     </g>
    </g>
   </g>
   <g id="line2d_36">
    <path d="M 141.12 219.334457 
L 221.953536 219.28839 
L 224.437248 200.570171 
L 225.404928 194.875978 
L 228.243456 182.356142 
L 229.598208 181.099725 
L 231.178752 180.236357 
L 236.565504 179.786197 
L 243.661824 179.675336 
L 245.1456 179.631664 
L 248.403456 179.520804 
L 250.113024 179.453615 
L 252.177408 179.342755 
L 254.241792 179.016893 
L 254.757888 178.486106 
L 255.499776 178.150166 
L 256.370688 178.170322 
L 257.531904 178.402121 
L 259.98336 178.801891 
L 262.370304 178.939626 
L 263.886336 178.990017 
L 264.144384 184.170222 
L 264.434688 187.694911 
L 265.176576 192.390353 
L 267.144192 209.529036 
L 268.402176 215.963979 
L 269.079552 217.276163 
L 270.46656 218.975552 
L 273.724416 219.385332 
L 282.594816 219.338895 
L 297.110016 219.327671 
L 305.883648 219.333661 
L 347.751936 219.289962 
L 350.364672 199.569068 
L 351.816192 190.681423 
L 352.912896 185.100777 
L 353.590272 182.729037 
L 354.203136 181.334883 
L 354.816 180.454719 
L 355.557888 179.829869 
L 356.622336 179.396506 
L 357.299712 179.346114 
L 357.751296 180.189325 
L 359.299584 183.1624 
L 360.525312 184.989917 
L 366.653952 193.467043 
L 367.105536 194.588748 
L 368.266752 198.844444 
L 369.686016 204.450285 
L 369.879552 205.238738 
L 370.524672 208.268251 
L 371.234304 211.28063 
L 372.750336 216.801982 
L 372.976128 217.607165 
L 373.911552 220.835151 
L 374.459904 222.529199 
L 374.879232 223.58244 
L 375.29856 224.521394 
L 375.717888 225.558779 
L 376.137216 226.132901 
L 376.459776 226.499748 
L 376.653312 226.933112 
L 377.040384 227.98427 
L 377.427456 228.66287 
L 377.620992 228.950099 
L 378.588672 230.999673 
L 378.911232 231.432029 
L 379.620864 233.019348 
L 379.943424 233.464469 
L 380.13696 233.78059 
L 380.653056 234.746083 
L 381.10464 235.587278 
L 383.04 238.605033 
L 383.233536 238.662143 
L 383.556096 238.330905 
L 383.8464 237.910308 
L 384.072192 237.667423 
L 384.394752 237.007299 
L 384.6528 236.564194 
L 384.81408 236.366996 
L 385.007616 236.13251 
L 385.330176 235.778093 
L 385.814016 235.281908 
L 386.717184 234.086296 
L 388.233216 232.820807 
L 388.942848 231.786782 
L 389.104128 231.780063 
L 389.32992 231.641656 
L 389.684736 231.396419 
L 390.491136 230.818265 
L 391.007232 230.31637 
L 391.58784 229.408994 
L 391.878144 229.318626 
L 392.103936 229.23968 
L 392.39424 229.069694 
L 392.749056 228.865442 
L 394.103808 227.632204 
L 394.3296 227.304998 
L 394.458624 227.206903 
L 396.877824 225.520481 
L 397.23264 225.059235 
L 397.587456 224.562043 
L 397.942272 224.462269 
L 398.426112 224.301353 
L 399.264768 223.706402 
L 400.61952 222.618526 
L 401.006592 222.202631 
L 401.716224 221.773568 
L 402.87744 220.741121 
L 404.780544 218.218174 
L 407.135232 215.009571 
L 407.328768 214.771053 
L 407.619072 214.380018 
L 409.393152 212.17356 
L 409.97376 211.512765 
L 411.58656 209.772593 
L 412.038144 208.564214 
L 414.4896 201.913934 
L 416.650752 198.79842 
L 417.263616 197.937069 
L 418.166784 196.757917 
L 418.940928 195.95166 
L 420.037632 194.600506 
L 420.876288 193.852031 
L 421.714944 192.915764 
L 421.972992 192.29293 
L 422.747136 189.445162 
L 423.650304 186.469735 
L 424.553472 184.287801 
L 425.488896 182.678645 
L 426.166272 181.932857 
L 427.940352 180.320342 
L 430.004736 177.568989 
L 436.455936 168.354137 
L 441.842688 161.447198 
L 444.455424 158.094511 
L 446.90688 155.118077 
L 447.616512 154.385726 
L 448.422912 154.839246 
L 449.100288 155.067685 
L 449.906688 155.205421 
L 452.583936 155.873943 
L 454.0032 156.347619 
L 454.8096 156.623091 
L 455.712768 157.063173 
L 456.873984 162.649865 
L 457.164288 162.90854 
L 457.454592 162.911899 
L 457.777152 162.703616 
L 458.648064 161.638684 
L 459.422208 160.761879 
L 460.228608 160.227733 
L 461.486592 159.948903 
L 462.38976 159.96234 
L 463.03488 160.049685 
L 463.421952 160.116873 
L 467.937792 161.168367 
L 469.840896 161.873843 
L 470.969856 162.344159 
L 471.453696 162.552443 
L 472.131072 162.84807 
L 479.098368 165.633018 
L 479.711232 165.871536 
L 481.453056 166.479589 
L 482.291712 166.765138 
L 494.678016 170.520954 
L 496.065024 170.742675 
L 496.484352 170.20517 
L 496.90368 169.993527 
L 497.452032 170.0372 
L 498.161664 170.369781 
L 499.903488 171.327212 
L 500.871168 171.743778 
L 502.161408 172.167063 
L 511.967232 174.102081 
L 512.70912 174.209582 
L 513.35424 174.303646 
L 514.063872 174.411147 
L 515.644416 174.629508 
L 516.41856 174.740368 
L 517.87008 174.931855 
L 518.773248 175.042715 
L 520.031232 175.193888 
L 520.869888 175.304749 
L 521.934336 175.415609 
L 533.740032 176.537651 
L 534.352896 176.584683 
L 534.868992 176.631714 
L 536.449536 176.900467 
L 536.965632 177.521957 
L 537.449472 177.783991 
L 538.546176 177.908289 
L 540.997632 177.253204 
L 541.513728 177.196094 
L 542.836224 177.169219 
L 544.32 177.212891 
L 546.610176 177.323752 
L 548.610048 177.424534 
L 549.384192 177.44805 
L 549.868032 177.488363 
L 550.60992 177.521957 
L 552.54528 177.612661 
L 553.287168 177.646255 
L 555.190272 177.733599 
L 555.93216 177.760475 
L 556.57728 177.78735 
L 559.383552 177.89821 
L 560.899584 177.945242 
L 563.83488 178.052743 
L 564.512256 178.082978 
L 566.028288 178.130009 
L 569.47968 178.24087 
L 570.028032 178.247589 
L 574.027776 178.358449 
L 575.44704 178.395402 
L 576.73728 178.29798 
L 577.22112 177.777272 
L 577.737216 177.528676 
L 578.83392 177.525316 
L 580.640256 177.978836 
L 586.89792 178.519701 
L 592.22016 178.630561 
L 593.5104 178.654077 
L 617.025024 178.738062 
L 617.637888 179.383068 
L 618.02496 179.564476 
L 618.605568 179.692133 
L 620.76672 179.581273 
L 622.444032 179.295723 
L 623.734272 179.137831 
L 627.927552 178.811969 
L 657.312768 178.707827 
L 657.86112 178.099775 
L 658.409472 177.827663 
L 660.344832 177.935164 
L 663.602688 178.502903 
L 665.76384 178.617123 
L 697.632768 178.707827 
L 698.568192 179.534241 
L 699.503616 179.71229 
L 701.600256 179.604789 
L 703.922688 179.231895 
L 709.341696 178.778375 
L 737.952768 178.707827 
L 738.50112 178.099775 
L 739.049472 177.827663 
L 740.984832 177.935164 
L 744.242688 178.502903 
L 746.40384 178.617123 
L 778.272768 178.707827 
L 779.208192 179.534241 
L 780.143616 179.71229 
L 782.240256 179.604789 
L 784.562688 179.231895 
L 789.981696 178.778375 
L 818.592768 178.707827 
L 819.14112 178.099775 
L 819.689472 177.827663 
L 821.624832 177.935164 
L 824.882688 178.502903 
L 827.04384 178.617123 
L 858.912768 178.707827 
L 859.848192 179.534241 
L 860.783616 179.71229 
L 862.880256 179.604789 
L 865.202688 179.231895 
L 870.621696 178.778375 
L 899.232768 178.707827 
L 899.78112 178.099775 
L 900.329472 177.827663 
L 902.264832 177.935164 
L 905.522688 178.502903 
L 907.68384 178.617123 
L 939.552768 178.707827 
L 940.617216 179.564476 
L 941.55264 179.749243 
L 943.455744 179.641742 
L 946.423296 179.134472 
L 947.52 178.966502 
L 947.52 178.966502 
" clip-path="url(#pbf7a39da2d)" style="fill: none; stroke: #008000; stroke-width: 2; stroke-linecap: square"/>
   </g>
   <g id="patch_10">
    <path d="M 100.8 242.888276 
L 100.8 150.157241 
" style="fill: none; stroke: #bcbcbc; stroke-width: 0.8; stroke-linejoin: miter; stroke-linecap: square"/>
   </g>
   <g id="patch_11">
    <path d="M 987.84 242.888276 
L 987.84 150.157241 
" style="fill: none; stroke: #bcbcbc; stroke-width: 0.8; stroke-linejoin: miter; stroke-linecap: square"/>
   </g>
   <g id="patch_12">
    <path d="M 100.8 242.888276 
L 987.84 242.888276 
" style="fill: none; stroke: #bcbcbc; stroke-width: 0.8; stroke-linejoin: miter; stroke-linecap: square"/>
   </g>
   <g id="patch_13">
    <path d="M 100.8 150.157241 
L 987.84 150.157241 
" style="fill: none; stroke: #bcbcbc; stroke-width: 0.8; stroke-linejoin: miter; stroke-linecap: square"/>
   </g>
  </g>
  <g id="axes_3">
   <g id="patch_14">
    <path d="M 100.8 354.165517 
L 987.84 354.165517 
L 987.84 261.434483 
L 100.8 261.434483 
z
" style="fill: #eeeeee"/>
   </g>
   <g id="matplotlib.axis_5">
    <g id="xtick_13">
     <g id="line2d_37">
      <path d="M 141.12 354.165517 
L 141.12 261.434483 
" clip-path="url(#pe24fe0cd39)" style="fill: none; stroke-dasharray: 1.85,0.8; stroke-dashoffset: 0; stroke: #b2b2b2; stroke-width: 0.5"/>
     </g>
     <g id="line2d_38">
      <g>
       <use xlink:href="#mc22c9f950c" x="141.12" y="354.165517" style="stroke: #000000; stroke-width: 0.8"/>
      </g>
     </g>
    </g>
    <g id="xtick_14">
     <g id="line2d_39">
      <path d="M 302.4 354.165517 
L 302.4 261.434483 
" clip-path="url(#pe24fe0cd39)" style="fill: none; stroke-dasharray: 1.85,0.8; stroke-dashoffset: 0; stroke: #b2b2b2; stroke-width: 0.5"/>
     </g>
     <g id="line2d_40">
      <g>
       <use xlink:href="#mc22c9f950c" x="302.4" y="354.165517" style="stroke: #000000; stroke-width: 0.8"/>
      </g>
     </g>
    </g>
    <g id="xtick_15">
     <g id="line2d_41">
      <path d="M 463.68 354.165517 
L 463.68 261.434483 
" clip-path="url(#pe24fe0cd39)" style="fill: none; stroke-dasharray: 1.85,0.8; stroke-dashoffset: 0; stroke: #b2b2b2; stroke-width: 0.5"/>
     </g>
     <g id="line2d_42">
      <g>
       <use xlink:href="#mc22c9f950c" x="463.68" y="354.165517" style="stroke: #000000; stroke-width: 0.8"/>
      </g>
     </g>
    </g>
    <g id="xtick_16">
     <g id="line2d_43">
      <path d="M 624.96 354.165517 
L 624.96 261.434483 
" clip-path="url(#pe24fe0cd39)" style="fill: none; stroke-dasharray: 1.85,0.8; stroke-dashoffset: 0; stroke: #b2b2b2; stroke-width: 0.5"/>
     </g>
     <g id="line2d_44">
      <g>
       <use xlink:href="#mc22c9f950c" x="624.96" y="354.165517" style="stroke: #000000; stroke-width: 0.8"/>
      </g>
     </g>
    </g>
    <g id="xtick_17">
     <g id="line2d_45">
      <path d="M 786.24 354.165517 
L 786.24 261.434483 
" clip-path="url(#pe24fe0cd39)" style="fill: none; stroke-dasharray: 1.85,0.8; stroke-dashoffset: 0; stroke: #b2b2b2; stroke-width: 0.5"/>
     </g>
     <g id="line2d_46">
      <g>
       <use xlink:href="#mc22c9f950c" x="786.24" y="354.165517" style="stroke: #000000; stroke-width: 0.8"/>
      </g>
     </g>
    </g>
    <g id="xtick_18">
     <g id="line2d_47">
      <path d="M 947.52 354.165517 
L 947.52 261.434483 
" clip-path="url(#pe24fe0cd39)" style="fill: none; stroke-dasharray: 1.85,0.8; stroke-dashoffset: 0; stroke: #b2b2b2; stroke-width: 0.5"/>
     </g>
     <g id="line2d_48">
      <g>
       <use xlink:href="#mc22c9f950c" x="947.52" y="354.165517" style="stroke: #000000; stroke-width: 0.8"/>
      </g>
     </g>
    </g>
   </g>
   <g id="matplotlib.axis_6">
    <g id="ytick_6">
     <g id="line2d_49">
      <path d="M 100.8 344.750154 
L 987.84 344.750154 
" clip-path="url(#pe24fe0cd39)" style="fill: none; stroke-dasharray: 1.85,0.8; stroke-dashoffset: 0; stroke: #b2b2b2; stroke-width: 0.5"/>
     </g>
     <g id="line2d_50">
      <g>
       <use xlink:href="#m5c61c6be1a" x="100.8" y="344.750154" style="stroke: #000000; stroke-width: 0.8"/>
      </g>
     </g>
     <g id="text_8">
      <!-- 0 V -->
      <g transform="translate(74.36625 350.06906) scale(0.14 -0.14)">
       <use xlink:href="#DejaVuSans-30"/>
       <use xlink:href="#DejaVuSans-20" x="63.623047"/>
       <use xlink:href="#DejaVuSans-56" x="95.410156"/>
      </g>
     </g>
    </g>
    <g id="ytick_7">
     <g id="line2d_51">
      <path d="M 100.8 303.705829 
L 987.84 303.705829 
" clip-path="url(#pe24fe0cd39)" style="fill: none; stroke-dasharray: 1.85,0.8; stroke-dashoffset: 0; stroke: #b2b2b2; stroke-width: 0.5"/>
     </g>
     <g id="line2d_52">
      <g>
       <use xlink:href="#m5c61c6be1a" x="100.8" y="303.705829" style="stroke: #000000; stroke-width: 0.8"/>
      </g>
     </g>
     <g id="text_9">
      <!-- 1 V -->
      <g transform="translate(74.36625 309.024735) scale(0.14 -0.14)">
       <use xlink:href="#DejaVuSans-31"/>
       <use xlink:href="#DejaVuSans-20" x="63.623047"/>
       <use xlink:href="#DejaVuSans-56" x="95.410156"/>
      </g>
     </g>
    </g>
    <g id="ytick_8">
     <g id="line2d_53">
      <path d="M 100.8 262.661503 
L 987.84 262.661503 
" clip-path="url(#pe24fe0cd39)" style="fill: none; stroke-dasharray: 1.85,0.8; stroke-dashoffset: 0; stroke: #b2b2b2; stroke-width: 0.5"/>
     </g>
     <g id="line2d_54">
      <g>
       <use xlink:href="#m5c61c6be1a" x="100.8" y="262.661503" style="stroke: #000000; stroke-width: 0.8"/>
      </g>
     </g>
     <g id="text_10">
      <!-- 2 V -->
      <g transform="translate(74.36625 267.980409) scale(0.14 -0.14)">
       <use xlink:href="#DejaVuSans-32"/>
       <use xlink:href="#DejaVuSans-20" x="63.623047"/>
       <use xlink:href="#DejaVuSans-56" x="95.410156"/>
      </g>
     </g>
    </g>
    <g id="text_11">
     <g id="patch_15">
      <path d="M 34.8768 342.395313 
L 34.8768 273.204688 
L 11.247425 273.204688 
L 11.247425 342.395313 
z
" style="fill: #ffff00; opacity: 0.2; stroke: #eeeeee; stroke-width: 0.5; stroke-linejoin: miter"/>
     </g>
     <!-- CLK BUF -->
     <g transform="translate(26.925238 337.355313) rotate(-90) scale(0.14 -0.14)">
      <defs>
       <path id="DejaVuSans-43" d="M 4122 4306 
L 4122 3641 
Q 3803 3938 3442 4084 
Q 3081 4231 2675 4231 
Q 1875 4231 1450 3742 
Q 1025 3253 1025 2328 
Q 1025 1406 1450 917 
Q 1875 428 2675 428 
Q 3081 428 3442 575 
Q 3803 722 4122 1019 
L 4122 359 
Q 3791 134 3420 21 
Q 3050 -91 2638 -91 
Q 1578 -91 968 557 
Q 359 1206 359 2328 
Q 359 3453 968 4101 
Q 1578 4750 2638 4750 
Q 3056 4750 3426 4639 
Q 3797 4528 4122 4306 
z
" transform="scale(0.015625)"/>
       <path id="DejaVuSans-4b" d="M 628 4666 
L 1259 4666 
L 1259 2694 
L 3353 4666 
L 4166 4666 
L 1850 2491 
L 4331 0 
L 3500 0 
L 1259 2247 
L 1259 0 
L 628 0 
L 628 4666 
z
" transform="scale(0.015625)"/>
      </defs>
      <use xlink:href="#DejaVuSans-43"/>
      <use xlink:href="#DejaVuSans-4c" x="69.824219"/>
      <use xlink:href="#DejaVuSans-4b" x="125.537109"/>
      <use xlink:href="#DejaVuSans-20" x="191.113281"/>
      <use xlink:href="#DejaVuSans-42" x="222.900391"/>
      <use xlink:href="#DejaVuSans-55" x="291.503906"/>
      <use xlink:href="#DejaVuSans-46" x="364.697266"/>
     </g>
    </g>
   </g>
   <g id="line2d_55">
    <path d="M 141.12 344.749069 
L 173.376 344.749069 
L 173.601792 295.496963 
L 213.696 295.496963 
L 213.760512 334.784181 
L 213.825024 344.731403 
L 213.889536 344.672338 
L 213.954048 344.836306 
L 214.01856 344.754602 
L 215.437824 344.744763 
L 223.824384 344.748982 
L 254.016 344.749041 
L 254.17728 295.345099 
L 254.241792 295.607783 
L 254.403072 295.488755 
L 254.854656 295.496963 
L 294.336 295.496963 
L 294.400512 334.749704 
L 294.465024 345.056431 
L 294.529536 344.342822 
L 294.626304 344.814655 
L 294.65856 344.785449 
L 294.884352 344.727425 
L 295.206912 344.76509 
L 295.497216 344.748749 
L 321.91488 344.749068 
L 334.656 344.749071 
L 334.81728 295.423084 
L 334.881792 295.513381 
L 335.204352 295.501068 
L 336.10752 295.496963 
L 357.331968 295.603679 
L 358.977024 297.87343 
L 360.654336 300.635713 
L 367.55712 311.840814 
L 370.78272 316.524382 
L 373.976064 320.804484 
L 374.976 322.04156 
L 375.040512 320.607061 
L 375.072768 320.983027 
L 375.395328 345.930302 
L 376.459776 346.211702 
L 377.201664 346.590459 
L 383.136768 349.908605 
L 383.749632 349.602004 
L 385.684992 348.881676 
L 386.620416 348.57056 
L 386.878464 348.481986 
L 387.362304 348.328398 
L 389.00736 347.805083 
L 389.426688 347.675096 
L 390.104064 347.470941 
L 394.232832 346.312835 
L 395.426304 346.008327 
L 398.909952 345.26682 
L 404.748288 344.307614 
L 409.844736 344.219164 
L 410.747904 344.232873 
L 415.296 344.291689 
L 415.328256 341.17466 
L 415.489536 313.924224 
L 415.554048 313.981275 
L 415.61856 313.945156 
L 420.811776 311.425856 
L 421.811712 310.88366 
L 423.19872 308.400889 
L 425.29536 304.04937 
L 429.456384 295.455919 
L 430.13376 294.130187 
L 431.90784 290.764553 
L 437.359104 281.271 
L 438.35904 279.686689 
L 440.13312 276.96545 
L 447.584256 265.768558 
L 449.035776 265.68647 
L 451.454976 266.40885 
L 452.971008 267.05735 
L 454.906368 267.906968 
L 455.325696 268.095772 
L 455.616 268.210696 
L 455.77728 345.08084 
L 455.809536 345.222492 
L 455.874048 345.127503 
L 456.196608 345.123268 
L 468.582912 345.199548 
L 470.9376 345.220563 
L 490.549248 345.059575 
L 495.000576 345.022586 
L 495.936 345.014291 
L 496.065024 285.239986 
L 496.161792 285.375433 
L 496.290816 285.568341 
L 496.710144 285.675056 
L 498.226176 286.142962 
L 498.645504 286.249677 
L 499.613184 286.512361 
L 500.000256 286.619076 
L 500.967936 286.881759 
L 501.355008 286.988475 
L 502.22592 287.210114 
L 502.612992 287.316829 
L 503.387136 287.497424 
L 503.774208 287.60414 
L 504.548352 287.784735 
L 505.032192 287.89145 
L 505.806336 288.072045 
L 506.290176 288.17876 
L 507.06432 288.359355 
L 507.54816 288.46607 
L 508.19328 288.605621 
L 508.709376 288.712336 
L 509.354496 288.851887 
L 509.870592 288.958602 
L 510.515712 289.098153 
L 511.031808 289.204868 
L 511.58016 289.303375 
L 512.096256 289.41009 
L 512.644608 289.508596 
L 513.257472 289.615312 
L 513.805824 289.713818 
L 514.32192 289.820533 
L 514.870272 289.91904 
L 515.483136 290.025755 
L 516.031488 290.124261 
L 516.74112 290.226872 
L 517.095936 290.288438 
L 517.7088 290.391049 
L 518.063616 290.452616 
L 518.773248 290.555227 
L 519.128064 290.616793 
L 519.837696 290.719404 
L 520.192512 290.78097 
L 520.902144 290.883581 
L 521.25696 290.945148 
L 522.06336 291.047758 
L 522.418176 291.109325 
L 523.321344 291.211936 
L 523.67616 291.273502 
L 524.48256 291.376113 
L 524.740608 291.396635 
L 525.45024 291.499246 
L 525.708288 291.519768 
L 526.514688 291.622379 
L 526.869504 291.679841 
L 532.611072 292.29961 
L 533.578752 292.402221 
L 533.8368 292.422743 
L 534.836736 292.525354 
L 535.094784 292.545876 
L 536.191488 292.648487 
L 536.256 292.669009 
L 536.288256 298.222307 
L 536.41728 344.83819 
L 536.675328 344.826332 
L 576.576 344.770845 
L 576.769536 294.713017 
L 577.995264 294.758166 
L 583.220736 294.864881 
L 583.478784 294.881299 
L 589.994496 294.988014 
L 590.252544 295.004431 
L 616.896 295.08652 
L 617.025024 345.063647 
L 617.186304 344.824941 
L 617.444352 344.733391 
L 617.799168 344.778068 
L 618.121728 344.760608 
L 657.216 344.760823 
L 657.37728 294.87309 
L 657.441792 295.336891 
L 657.53856 294.914134 
L 657.603072 295.070102 
L 658.086912 295.08652 
L 697.536 295.08652 
L 697.665024 345.063733 
L 697.826304 344.824859 
L 698.084352 344.733417 
L 698.439168 344.778069 
L 698.761728 344.760609 
L 737.856 344.760823 
L 738.01728 294.87309 
L 738.081792 295.336891 
L 738.17856 294.914134 
L 738.243072 295.070102 
L 738.726912 295.08652 
L 778.176 295.08652 
L 778.305024 345.063569 
L 778.466304 344.8249 
L 778.724352 344.733407 
L 779.079168 344.778058 
L 779.401728 344.760608 
L 818.496 344.760823 
L 818.65728 294.87309 
L 818.721792 295.336891 
L 818.81856 294.914134 
L 818.883072 295.070102 
L 819.366912 295.08652 
L 858.816 295.08652 
L 858.945024 345.063737 
L 859.106304 344.824859 
L 859.364352 344.733417 
L 859.719168 344.77807 
L 860.041728 344.760609 
L 899.136 344.760823 
L 899.29728 294.87309 
L 899.361792 295.336891 
L 899.45856 294.914134 
L 899.523072 295.070102 
L 900.006912 295.08652 
L 939.456 295.08652 
L 939.488256 302.486812 
L 939.61728 344.712009 
L 939.649536 344.83136 
L 939.714048 344.717168 
L 939.810816 344.734128 
L 940.004352 344.785386 
L 940.230144 344.75952 
L 945.9072 344.760825 
L 947.52 344.760813 
L 947.52 344.760813 
" clip-path="url(#pe24fe0cd39)" style="fill: none; stroke: #0000ff; stroke-width: 2; stroke-linecap: square"/>
   </g>
   <g id="patch_16">
    <path d="M 100.8 354.165517 
L 100.8 261.434483 
" style="fill: none; stroke: #bcbcbc; stroke-width: 0.8; stroke-linejoin: miter; stroke-linecap: square"/>
   </g>
   <g id="patch_17">
    <path d="M 987.84 354.165517 
L 987.84 261.434483 
" style="fill: none; stroke: #bcbcbc; stroke-width: 0.8; stroke-linejoin: miter; stroke-linecap: square"/>
   </g>
   <g id="patch_18">
    <path d="M 100.8 354.165517 
L 987.84 354.165517 
" style="fill: none; stroke: #bcbcbc; stroke-width: 0.8; stroke-linejoin: miter; stroke-linecap: square"/>
   </g>
   <g id="patch_19">
    <path d="M 100.8 261.434483 
L 987.84 261.434483 
" style="fill: none; stroke: #bcbcbc; stroke-width: 0.8; stroke-linejoin: miter; stroke-linecap: square"/>
   </g>
  </g>
  <g id="axes_4">
   <g id="patch_20">
    <path d="M 100.8 465.442759 
L 987.84 465.442759 
L 987.84 372.711724 
L 100.8 372.711724 
z
" style="fill: #eeeeee"/>
   </g>
   <g id="matplotlib.axis_7">
    <g id="xtick_19">
     <g id="line2d_56">
      <path d="M 141.12 465.442759 
L 141.12 372.711724 
" clip-path="url(#pf1eeb955e2)" style="fill: none; stroke-dasharray: 1.85,0.8; stroke-dashoffset: 0; stroke: #b2b2b2; stroke-width: 0.5"/>
     </g>
     <g id="line2d_57">
      <g>
       <use xlink:href="#mc22c9f950c" x="141.12" y="465.442759" style="stroke: #000000; stroke-width: 0.8"/>
      </g>
     </g>
    </g>
    <g id="xtick_20">
     <g id="line2d_58">
      <path d="M 302.4 465.442759 
L 302.4 372.711724 
" clip-path="url(#pf1eeb955e2)" style="fill: none; stroke-dasharray: 1.85,0.8; stroke-dashoffset: 0; stroke: #b2b2b2; stroke-width: 0.5"/>
     </g>
     <g id="line2d_59">
      <g>
       <use xlink:href="#mc22c9f950c" x="302.4" y="465.442759" style="stroke: #000000; stroke-width: 0.8"/>
      </g>
     </g>
    </g>
    <g id="xtick_21">
     <g id="line2d_60">
      <path d="M 463.68 465.442759 
L 463.68 372.711724 
" clip-path="url(#pf1eeb955e2)" style="fill: none; stroke-dasharray: 1.85,0.8; stroke-dashoffset: 0; stroke: #b2b2b2; stroke-width: 0.5"/>
     </g>
     <g id="line2d_61">
      <g>
       <use xlink:href="#mc22c9f950c" x="463.68" y="465.442759" style="stroke: #000000; stroke-width: 0.8"/>
      </g>
     </g>
    </g>
    <g id="xtick_22">
     <g id="line2d_62">
      <path d="M 624.96 465.442759 
L 624.96 372.711724 
" clip-path="url(#pf1eeb955e2)" style="fill: none; stroke-dasharray: 1.85,0.8; stroke-dashoffset: 0; stroke: #b2b2b2; stroke-width: 0.5"/>
     </g>
     <g id="line2d_63">
      <g>
       <use xlink:href="#mc22c9f950c" x="624.96" y="465.442759" style="stroke: #000000; stroke-width: 0.8"/>
      </g>
     </g>
    </g>
    <g id="xtick_23">
     <g id="line2d_64">
      <path d="M 786.24 465.442759 
L 786.24 372.711724 
" clip-path="url(#pf1eeb955e2)" style="fill: none; stroke-dasharray: 1.85,0.8; stroke-dashoffset: 0; stroke: #b2b2b2; stroke-width: 0.5"/>
     </g>
     <g id="line2d_65">
      <g>
       <use xlink:href="#mc22c9f950c" x="786.24" y="465.442759" style="stroke: #000000; stroke-width: 0.8"/>
      </g>
     </g>
    </g>
    <g id="xtick_24">
     <g id="line2d_66">
      <path d="M 947.52 465.442759 
L 947.52 372.711724 
" clip-path="url(#pf1eeb955e2)" style="fill: none; stroke-dasharray: 1.85,0.8; stroke-dashoffset: 0; stroke: #b2b2b2; stroke-width: 0.5"/>
     </g>
     <g id="line2d_67">
      <g>
       <use xlink:href="#mc22c9f950c" x="947.52" y="465.442759" style="stroke: #000000; stroke-width: 0.8"/>
      </g>
     </g>
    </g>
   </g>
   <g id="matplotlib.axis_8">
    <g id="ytick_9">
     <g id="line2d_68">
      <path d="M 100.8 437.249237 
L 987.84 437.249237 
" clip-path="url(#pf1eeb955e2)" style="fill: none; stroke-dasharray: 1.85,0.8; stroke-dashoffset: 0; stroke: #b2b2b2; stroke-width: 0.5"/>
     </g>
     <g id="line2d_69">
      <g>
       <use xlink:href="#m5c61c6be1a" x="100.8" y="437.249237" style="stroke: #000000; stroke-width: 0.8"/>
      </g>
     </g>
     <g id="text_12">
      <!-- 0 V -->
      <g transform="translate(74.36625 442.568143) scale(0.14 -0.14)">
       <use xlink:href="#DejaVuSans-30"/>
       <use xlink:href="#DejaVuSans-20" x="63.623047"/>
       <use xlink:href="#DejaVuSans-56" x="95.410156"/>
      </g>
     </g>
    </g>
    <g id="ytick_10">
     <g id="line2d_70">
      <path d="M 100.8 395.206816 
L 987.84 395.206816 
" clip-path="url(#pf1eeb955e2)" style="fill: none; stroke-dasharray: 1.85,0.8; stroke-dashoffset: 0; stroke: #b2b2b2; stroke-width: 0.5"/>
     </g>
     <g id="line2d_71">
      <g>
       <use xlink:href="#m5c61c6be1a" x="100.8" y="395.206816" style="stroke: #000000; stroke-width: 0.8"/>
      </g>
     </g>
     <g id="text_13">
      <!-- 1 V -->
      <g transform="translate(74.36625 400.525722) scale(0.14 -0.14)">
       <use xlink:href="#DejaVuSans-31"/>
       <use xlink:href="#DejaVuSans-20" x="63.623047"/>
       <use xlink:href="#DejaVuSans-56" x="95.410156"/>
      </g>
     </g>
    </g>
    <g id="text_14">
     <g id="patch_21">
      <path d="M 34.8768 454.693023 
L 34.8768 383.46146 
L 11.247425 383.46146 
L 11.247425 454.693023 
z
" style="fill: #ffff00; opacity: 0.2; stroke: #eeeeee; stroke-width: 0.5; stroke-linejoin: miter"/>
     </g>
     <!-- DFF OUT -->
     <g transform="translate(26.925238 449.653023) rotate(-90) scale(0.14 -0.14)">
      <defs>
       <path id="DejaVuSans-4f" d="M 2522 4238 
Q 1834 4238 1429 3725 
Q 1025 3213 1025 2328 
Q 1025 1447 1429 934 
Q 1834 422 2522 422 
Q 3209 422 3611 934 
Q 4013 1447 4013 2328 
Q 4013 3213 3611 3725 
Q 3209 4238 2522 4238 
z
M 2522 4750 
Q 3503 4750 4090 4092 
Q 4678 3434 4678 2328 
Q 4678 1225 4090 567 
Q 3503 -91 2522 -91 
Q 1538 -91 948 565 
Q 359 1222 359 2328 
Q 359 3434 948 4092 
Q 1538 4750 2522 4750 
z
" transform="scale(0.015625)"/>
       <path id="DejaVuSans-54" d="M -19 4666 
L 3928 4666 
L 3928 4134 
L 2272 4134 
L 2272 0 
L 1638 0 
L 1638 4134 
L -19 4134 
L -19 4666 
z
" transform="scale(0.015625)"/>
      </defs>
      <use xlink:href="#DejaVuSans-44"/>
      <use xlink:href="#DejaVuSans-46" x="77.001953"/>
      <use xlink:href="#DejaVuSans-46" x="134.521484"/>
      <use xlink:href="#DejaVuSans-20" x="192.041016"/>
      <use xlink:href="#DejaVuSans-4f" x="223.828125"/>
      <use xlink:href="#DejaVuSans-55" x="302.539062"/>
      <use xlink:href="#DejaVuSans-54" x="375.732422"/>
     </g>
    </g>
   </g>
   <g id="line2d_72">
    <path d="M 141.12 405.526969 
L 173.408256 405.578261 
L 173.440512 407.318817 
L 173.601792 437.251803 
L 174.085632 437.246547 
L 183.826944 437.248122 
L 254.048256 437.249878 
L 254.080512 437.417945 
L 254.112768 437.139939 
L 254.306304 433.035325 
L 254.596608 432.212555 
L 254.693376 431.625643 
L 255.14496 424.259811 
L 255.370752 406.947582 
L 255.596544 387.206143 
L 255.757824 386.861395 
L 255.983616 386.794127 
L 256.854528 386.798332 
L 295.755264 386.882416 
L 296.239104 389.602561 
L 296.59392 388.921474 
L 297.948672 387.14308 
L 299.561472 386.831966 
L 334.688256 386.815149 
L 334.720512 386.693226 
L 334.752768 387.311249 
L 334.785024 390.367733 
L 334.914048 437.232003 
L 334.97856 437.195002 
L 335.13984 437.240425 
L 335.494656 437.248626 
L 357.2352 437.277132 
L 357.493248 437.545237 
L 358.170624 438.086007 
L 359.00928 438.443116 
L 360.105984 438.651184 
L 361.91232 438.730392 
L 365.912064 438.621712 
L 366.008832 438.491044 
L 366.073344 437.896648 
L 366.137856 434.994082 
L 366.363648 403.7738 
L 366.395904 403.86335 
L 366.912 405.793098 
L 368.36352 412.777605 
L 368.395776 412.48541 
L 368.428032 412.511476 
L 368.68608 414.463927 
L 369.556992 418.750151 
L 369.589248 418.597537 
L 369.621504 418.444923 
L 369.686016 418.668589 
L 370.29888 422.600396 
L 372.266496 432.129311 
L 372.589056 433.490939 
L 372.621312 433.375112 
L 372.653568 433.119536 
L 372.71808 433.387388 
L 372.750336 433.317514 
L 372.782592 433.516501 
L 372.943872 434.977139 
L 373.3632 436.68095 
L 373.395456 436.265949 
L 373.427712 436.744476 
L 373.459968 436.537375 
L 374.00832 439.244697 
L 374.040576 438.962928 
L 374.105088 439.272318 
L 374.137344 439.908294 
L 374.234112 439.76905 
L 374.459904 441.129416 
L 374.65344 441.76123 
L 374.685696 441.704052 
L 374.911488 442.328382 
L 374.943744 442.141293 
L 375.008256 442.341836 
L 375.13728 442.701719 
L 375.234048 443.419803 
L 375.266304 443.075476 
L 375.395328 443.516501 
L 375.556608 444.256447 
L 376.169472 445.672436 
L 376.201728 445.427329 
L 376.26624 445.539582 
L 376.5888 446.213102 
L 376.685568 446.830705 
L 376.717824 446.612505 
L 376.91136 447.418458 
L 376.943616 447.32134 
L 377.137152 448.006211 
L 377.653248 449.339797 
L 377.71776 449.166582 
L 377.87904 449.899381 
L 378.556416 451.393989 
L 378.653184 451.688707 
L 378.68544 451.858978 
L 378.782208 451.835855 
L 378.975744 452.315559 
L 379.137024 452.942412 
L 379.556352 453.838336 
L 379.782144 454.388671 
L 379.8144 454.347469 
L 380.330496 455.558291 
L 380.395008 455.516249 
L 380.556288 456.116194 
L 383.104512 461.227712 
L 383.265792 461.06753 
L 383.330304 461.11756 
L 383.491584 460.689989 
L 383.52384 460.751791 
L 383.556096 460.583201 
L 385.072128 457.710443 
L 385.13664 456.975121 
L 385.201152 457.029776 
L 385.362432 457.258487 
L 385.523712 457.062569 
L 386.58816 455.332103 
L 386.620416 455.514987 
L 386.652672 455.243393 
L 387.007488 454.920508 
L 387.168768 454.790596 
L 387.330048 454.619484 
L 387.588096 454.238579 
L 387.813888 453.819837 
L 387.846144 453.948907 
L 387.8784 453.725242 
L 388.265472 453.23797 
L 389.00736 452.377362 
L 389.039616 452.588835 
L 389.071872 452.313037 
L 389.104128 452.408893 
L 389.297664 452.106188 
L 389.32992 452.161263 
L 389.362176 452.06835 
L 390.329856 450.931102 
L 390.555648 450.623772 
L 390.587904 450.691881 
L 390.62016 450.515303 
L 390.652416 450.48293 
L 390.716928 450.429536 
L 390.749184 450.67086 
L 390.910464 450.150374 
L 391.136256 449.933856 
L 391.813632 449.268745 
L 391.845888 449.497876 
L 391.942656 449.396133 
L 392.23296 449.00598 
L 392.523264 448.807119 
L 392.974848 448.210537 
L 393.168384 447.777921 
L 393.232896 447.669451 
L 393.265152 447.885549 
L 393.297408 447.572754 
L 393.329664 447.610171 
L 393.5232 447.29149 
L 393.619968 447.207825 
L 393.652224 447.309568 
L 393.68448 447.395755 
L 393.716736 447.195633 
L 393.748992 447.336475 
L 393.942528 446.853828 
L 393.974784 447.217075 
L 394.00704 446.762596 
L 394.071552 447.118275 
L 394.200576 446.557009 
L 394.232832 446.564156 
L 394.265088 446.872327 
L 394.3296 446.487218 
L 394.361856 446.714668 
L 394.394112 446.401452 
L 394.458624 446.626799 
L 394.619904 446.265655 
L 394.65216 446.395145 
L 394.716672 446.210579 
L 395.555328 445.624508 
L 395.910144 445.16078 
L 396.071424 444.687382 
L 396.329472 444.32876 
L 396.361728 444.743719 
L 396.42624 444.2884 
L 396.458496 444.214825 
L 396.490752 444.637772 
L 396.555264 444.108458 
L 396.652032 444.00083 
L 396.684288 444.425878 
L 396.781056 444.257288 
L 396.91008 443.712839 
L 397.07136 443.675421 
L 397.23264 443.500945 
L 397.684224 443.242384 
L 397.71648 443.360103 
L 397.780992 443.224306 
L 398.84544 442.444419 
L 399.232512 441.874324 
L 399.393792 441.343076 
L 399.555072 441.167128 
L 399.587328 441.565732 
L 399.619584 441.143542 
L 399.65184 441.453353 
L 399.716352 440.930682 
L 399.748608 441.284427 
L 399.780864 441.412992 
L 399.909888 440.754986 
L 399.942144 440.757215 
L 399.9744 441.132822 
L 400.038912 440.68528 
L 400.071168 441.055464 
L 400.200192 440.496383 
L 400.232448 440.517867 
L 400.264704 440.990046 
L 400.329216 440.740187 
L 400.522752 440.330989 
L 400.974336 440.213816 
L 401.135616 440.150585 
L 402.425856 438.7919 
L 402.522624 438.02513 
L 402.587136 438.262838 
L 402.651648 438.418521 
L 402.683904 438.31497 
L 402.780672 437.921537 
L 402.909696 437.455581 
L 402.941952 437.423385 
L 402.974208 437.889165 
L 403.03872 437.367553 
L 403.070976 437.712124 
L 403.135488 437.266979 
L 403.2 437.315635 
L 404.296704 435.496026 
L 404.554752 434.461867 
L 404.619264 434.783996 
L 404.65152 434.402124 
L 404.780544 434.547087 
L 404.8128 434.503447 
L 405.748224 432.66325 
L 405.844992 431.728226 
L 405.877248 432.403007 
L 405.974016 431.82072 
L 406.038528 431.955676 
L 406.10304 431.609246 
L 406.167552 431.778257 
L 406.199808 431.601679 
L 406.26432 431.560057 
L 407.296512 429.560099 
L 407.39328 428.809641 
L 407.425536 429.297754 
L 407.490048 428.913907 
L 407.522304 428.955108 
L 407.586816 428.863456 
L 408.780288 426.494786 
L 408.812544 426.012559 
L 408.877056 426.165594 
L 408.909312 426.285414 
L 408.973824 426.176945 
L 409.522176 424.845882 
L 413.070336 417.55909 
L 413.134848 416.890195 
L 413.19936 416.95536 
L 413.328384 417.056262 
L 413.36064 417.001187 
L 414.00576 415.671805 
L 415.812096 412.489194 
L 416.166912 412.776764 
L 416.26368 413.938817 
L 416.360448 420.610528 
L 416.58624 436.558564 
L 416.876544 436.590474 
L 418.973184 436.739094 
L 421.779456 436.77214 
L 422.456832 436.136711 
L 423.19872 435.75526 
L 424.134144 435.517047 
L 425.553408 435.402356 
L 428.52096 435.455161 
L 441.42336 435.899381 
L 443.229696 435.844516 
L 447.487488 435.966523 
L 447.810048 436.288021 
L 448.487424 436.845937 
L 449.32608 437.229288 
L 450.551808 437.489539 
L 452.358144 437.61409 
L 455.648256 437.636217 
L 455.680512 437.571358 
L 455.712768 437.679541 
L 455.745024 437.656662 
L 467.324928 437.633618 
L 469.16352 437.72974 
L 475.098624 437.696232 
L 495.968256 437.51402 
L 496.000512 437.850654 
L 496.290816 430.410617 
L 496.516608 429.004298 
L 496.677888 426.337127 
L 496.839168 418.531531 
L 497.032704 395.237507 
L 497.22624 377.107554 
L 497.355264 376.93518 
L 497.38752 376.947792 
L 498.806784 377.385034 
L 499.226112 377.494344 
L 500.193792 377.763415 
L 500.580864 377.872726 
L 501.451776 378.099755 
L 501.838848 378.209065 
L 502.70976 378.436094 
L 503.096832 378.545404 
L 503.870976 378.730391 
L 504.354816 378.839701 
L 505.12896 379.024688 
L 505.516032 379.133998 
L 506.161152 379.276943 
L 506.58048 379.386253 
L 507.2256 379.529197 
L 507.741696 379.638507 
L 508.386816 379.781452 
L 508.902912 379.890762 
L 509.548032 380.033706 
L 510.064128 380.143016 
L 510.709248 380.285961 
L 511.322112 380.395271 
L 511.967232 380.538215 
L 512.580096 380.647525 
L 513.128448 380.748427 
L 513.644544 380.857738 
L 514.192896 380.958639 
L 514.80576 381.063745 
L 515.160576 381.126809 
L 515.77344 381.236119 
L 516.321792 381.337021 
L 516.934656 381.442127 
L 517.289472 381.505191 
L 517.999104 381.610297 
L 518.35392 381.673361 
L 519.063552 381.778467 
L 519.418368 381.84153 
L 520.128 381.946636 
L 520.482816 382.0097 
L 521.192448 382.114806 
L 521.547264 382.17787 
L 522.353664 382.282976 
L 522.70848 382.346039 
L 523.611648 382.451145 
L 523.966464 382.514209 
L 524.869632 382.619315 
L 525.224448 382.682379 
L 526.127616 382.787485 
L 526.385664 382.808506 
L 527.192064 382.913612 
L 527.54688 382.976676 
L 528.546816 383.081782 
L 528.804864 383.102803 
L 529.611264 383.207909 
L 529.869312 383.22893 
L 530.77248 383.334036 
L 531.030528 383.355057 
L 531.933696 383.460163 
L 532.191744 383.481185 
L 533.094912 383.586291 
L 533.35296 383.607312 
L 534.352896 383.712418 
L 534.610944 383.733439 
L 535.707648 383.838545 
L 535.965696 383.859566 
L 537.0624 383.964672 
L 537.320448 383.985694 
L 538.51392 384.0908 
L 538.771968 384.111821 
L 539.96544 384.216927 
L 540.223488 384.237948 
L 541.610496 384.343054 
L 541.868544 384.364075 
L 543.255552 384.469182 
L 543.5136 384.490203 
L 544.997376 384.595309 
L 545.255424 384.612126 
L 546.835968 384.721436 
L 547.094016 384.738253 
L 548.771328 384.847563 
L 549.029376 384.86438 
L 550.900224 384.973691 
L 551.158272 384.990508 
L 553.125888 385.099818 
L 553.383936 385.116635 
L 555.545088 385.225945 
L 555.899904 385.246966 
L 558.157824 385.352072 
L 558.415872 385.368889 
L 561.060864 385.4782 
L 561.318912 385.499221 
L 564.15744 385.604327 
L 564.415488 385.621144 
L 567.641088 385.730454 
L 567.899136 385.747271 
L 571.608576 385.856581 
L 571.931136 385.877603 
L 572.769792 385.877603 
L 576.059904 385.982709 
L 576.382464 386.00373 
L 576.608256 385.999526 
L 576.640512 386.209738 
L 576.705024 385.995321 
L 581.25312 386.096223 
L 581.607936 386.129857 
L 582.478848 386.125653 
L 587.575296 386.234963 
L 587.897856 386.25178 
L 595.510272 386.36109 
L 595.76832 386.377907 
L 657.248256 386.373703 
L 657.280512 386.58812 
L 657.345024 386.373703 
L 657.53856 386.352682 
L 658.570752 386.377907 
L 737.888256 386.373703 
L 737.920512 386.58812 
L 737.985024 386.373703 
L 738.17856 386.352682 
L 739.210752 386.377907 
L 818.528256 386.373703 
L 818.560512 386.58812 
L 818.625024 386.373703 
L 818.81856 386.352682 
L 819.850752 386.377907 
L 899.168256 386.373703 
L 899.200512 386.58812 
L 899.265024 386.373703 
L 899.45856 386.352682 
L 900.490752 386.377907 
L 947.52 386.377907 
L 947.52 386.377907 
" clip-path="url(#pf1eeb955e2)" style="fill: none; stroke: #ff00ff; stroke-width: 2; stroke-linecap: square"/>
   </g>
   <g id="patch_22">
    <path d="M 100.8 465.442759 
L 100.8 372.711724 
" style="fill: none; stroke: #bcbcbc; stroke-width: 0.8; stroke-linejoin: miter; stroke-linecap: square"/>
   </g>
   <g id="patch_23">
    <path d="M 987.84 465.442759 
L 987.84 372.711724 
" style="fill: none; stroke: #bcbcbc; stroke-width: 0.8; stroke-linejoin: miter; stroke-linecap: square"/>
   </g>
   <g id="patch_24">
    <path d="M 100.8 465.442759 
L 987.84 465.442759 
" style="fill: none; stroke: #bcbcbc; stroke-width: 0.8; stroke-linejoin: miter; stroke-linecap: square"/>
   </g>
   <g id="patch_25">
    <path d="M 100.8 372.711724 
L 987.84 372.711724 
" style="fill: none; stroke: #bcbcbc; stroke-width: 0.8; stroke-linejoin: miter; stroke-linecap: square"/>
   </g>
  </g>
  <g id="axes_5">
   <g id="patch_26">
    <path d="M 100.8 576.72 
L 987.84 576.72 
L 987.84 483.988966 
L 100.8 483.988966 
z
" style="fill: #eeeeee"/>
   </g>
   <g id="matplotlib.axis_9">
    <g id="xtick_25">
     <g id="line2d_73">
      <path d="M 141.12 576.72 
L 141.12 483.988966 
" clip-path="url(#peb4fffebe7)" style="fill: none; stroke-dasharray: 1.85,0.8; stroke-dashoffset: 0; stroke: #b2b2b2; stroke-width: 0.5"/>
     </g>
     <g id="line2d_74">
      <g>
       <use xlink:href="#mc22c9f950c" x="141.12" y="576.72" style="stroke: #000000; stroke-width: 0.8"/>
      </g>
     </g>
     <g id="text_15">
      <!-- 0 s -->
      <g transform="translate(130.795 590.857813) scale(0.14 -0.14)">
       <defs>
        <path id="DejaVuSans-73" d="M 2834 3397 
L 2834 2853 
Q 2591 2978 2328 3040 
Q 2066 3103 1784 3103 
Q 1356 3103 1142 2972 
Q 928 2841 928 2578 
Q 928 2378 1081 2264 
Q 1234 2150 1697 2047 
L 1894 2003 
Q 2506 1872 2764 1633 
Q 3022 1394 3022 966 
Q 3022 478 2636 193 
Q 2250 -91 1575 -91 
Q 1294 -91 989 -36 
Q 684 19 347 128 
L 347 722 
Q 666 556 975 473 
Q 1284 391 1588 391 
Q 1994 391 2212 530 
Q 2431 669 2431 922 
Q 2431 1156 2273 1281 
Q 2116 1406 1581 1522 
L 1381 1569 
Q 847 1681 609 1914 
Q 372 2147 372 2553 
Q 372 3047 722 3315 
Q 1072 3584 1716 3584 
Q 2034 3584 2315 3537 
Q 2597 3491 2834 3397 
z
" transform="scale(0.015625)"/>
       </defs>
       <use xlink:href="#DejaVuSans-30"/>
       <use xlink:href="#DejaVuSans-20" x="63.623047"/>
       <use xlink:href="#DejaVuSans-73" x="95.410156"/>
      </g>
     </g>
    </g>
    <g id="xtick_26">
     <g id="line2d_75">
      <path d="M 302.4 576.72 
L 302.4 483.988966 
" clip-path="url(#peb4fffebe7)" style="fill: none; stroke-dasharray: 1.85,0.8; stroke-dashoffset: 0; stroke: #b2b2b2; stroke-width: 0.5"/>
     </g>
     <g id="line2d_76">
      <g>
       <use xlink:href="#mc22c9f950c" x="302.4" y="576.72" style="stroke: #000000; stroke-width: 0.8"/>
      </g>
     </g>
     <g id="text_16">
      <!-- 50 ns -->
      <g transform="translate(283.185 590.857813) scale(0.14 -0.14)">
       <defs>
        <path id="DejaVuSans-35" d="M 691 4666 
L 3169 4666 
L 3169 4134 
L 1269 4134 
L 1269 2991 
Q 1406 3038 1543 3061 
Q 1681 3084 1819 3084 
Q 2600 3084 3056 2656 
Q 3513 2228 3513 1497 
Q 3513 744 3044 326 
Q 2575 -91 1722 -91 
Q 1428 -91 1123 -41 
Q 819 9 494 109 
L 494 744 
Q 775 591 1075 516 
Q 1375 441 1709 441 
Q 2250 441 2565 725 
Q 2881 1009 2881 1497 
Q 2881 1984 2565 2268 
Q 2250 2553 1709 2553 
Q 1456 2553 1204 2497 
Q 953 2441 691 2322 
L 691 4666 
z
" transform="scale(0.015625)"/>
        <path id="DejaVuSans-6e" d="M 3513 2113 
L 3513 0 
L 2938 0 
L 2938 2094 
Q 2938 2591 2744 2837 
Q 2550 3084 2163 3084 
Q 1697 3084 1428 2787 
Q 1159 2491 1159 1978 
L 1159 0 
L 581 0 
L 581 3500 
L 1159 3500 
L 1159 2956 
Q 1366 3272 1645 3428 
Q 1925 3584 2291 3584 
Q 2894 3584 3203 3211 
Q 3513 2838 3513 2113 
z
" transform="scale(0.015625)"/>
       </defs>
       <use xlink:href="#DejaVuSans-35"/>
       <use xlink:href="#DejaVuSans-30" x="63.623047"/>
       <use xlink:href="#DejaVuSans-20" x="127.246094"/>
       <use xlink:href="#DejaVuSans-6e" x="159.033203"/>
       <use xlink:href="#DejaVuSans-73" x="222.412109"/>
      </g>
     </g>
    </g>
    <g id="xtick_27">
     <g id="line2d_77">
      <path d="M 463.68 576.72 
L 463.68 483.988966 
" clip-path="url(#peb4fffebe7)" style="fill: none; stroke-dasharray: 1.85,0.8; stroke-dashoffset: 0; stroke: #b2b2b2; stroke-width: 0.5"/>
     </g>
     <g id="line2d_78">
      <g>
       <use xlink:href="#mc22c9f950c" x="463.68" y="576.72" style="stroke: #000000; stroke-width: 0.8"/>
      </g>
     </g>
     <g id="text_17">
      <!-- 100 ns -->
      <g transform="translate(440.01125 590.857813) scale(0.14 -0.14)">
       <use xlink:href="#DejaVuSans-31"/>
       <use xlink:href="#DejaVuSans-30" x="63.623047"/>
       <use xlink:href="#DejaVuSans-30" x="127.246094"/>
       <use xlink:href="#DejaVuSans-20" x="190.869141"/>
       <use xlink:href="#DejaVuSans-6e" x="222.65625"/>
       <use xlink:href="#DejaVuSans-73" x="286.035156"/>
      </g>
     </g>
    </g>
    <g id="xtick_28">
     <g id="line2d_79">
      <path d="M 624.96 576.72 
L 624.96 483.988966 
" clip-path="url(#peb4fffebe7)" style="fill: none; stroke-dasharray: 1.85,0.8; stroke-dashoffset: 0; stroke: #b2b2b2; stroke-width: 0.5"/>
     </g>
     <g id="line2d_80">
      <g>
       <use xlink:href="#mc22c9f950c" x="624.96" y="576.72" style="stroke: #000000; stroke-width: 0.8"/>
      </g>
     </g>
     <g id="text_18">
      <!-- 150 ns -->
      <g transform="translate(601.29125 590.857813) scale(0.14 -0.14)">
       <use xlink:href="#DejaVuSans-31"/>
       <use xlink:href="#DejaVuSans-35" x="63.623047"/>
       <use xlink:href="#DejaVuSans-30" x="127.246094"/>
       <use xlink:href="#DejaVuSans-20" x="190.869141"/>
       <use xlink:href="#DejaVuSans-6e" x="222.65625"/>
       <use xlink:href="#DejaVuSans-73" x="286.035156"/>
      </g>
     </g>
    </g>
    <g id="xtick_29">
     <g id="line2d_81">
      <path d="M 786.24 576.72 
L 786.24 483.988966 
" clip-path="url(#peb4fffebe7)" style="fill: none; stroke-dasharray: 1.85,0.8; stroke-dashoffset: 0; stroke: #b2b2b2; stroke-width: 0.5"/>
     </g>
     <g id="line2d_82">
      <g>
       <use xlink:href="#mc22c9f950c" x="786.24" y="576.72" style="stroke: #000000; stroke-width: 0.8"/>
      </g>
     </g>
     <g id="text_19">
      <!-- 200 ns -->
      <g transform="translate(762.57125 590.857813) scale(0.14 -0.14)">
       <use xlink:href="#DejaVuSans-32"/>
       <use xlink:href="#DejaVuSans-30" x="63.623047"/>
       <use xlink:href="#DejaVuSans-30" x="127.246094"/>
       <use xlink:href="#DejaVuSans-20" x="190.869141"/>
       <use xlink:href="#DejaVuSans-6e" x="222.65625"/>
       <use xlink:href="#DejaVuSans-73" x="286.035156"/>
      </g>
     </g>
    </g>
    <g id="xtick_30">
     <g id="line2d_83">
      <path d="M 947.52 576.72 
L 947.52 483.988966 
" clip-path="url(#peb4fffebe7)" style="fill: none; stroke-dasharray: 1.85,0.8; stroke-dashoffset: 0; stroke: #b2b2b2; stroke-width: 0.5"/>
     </g>
     <g id="line2d_84">
      <g>
       <use xlink:href="#mc22c9f950c" x="947.52" y="576.72" style="stroke: #000000; stroke-width: 0.8"/>
      </g>
     </g>
     <g id="text_20">
      <!-- 250 ns -->
      <g transform="translate(923.85125 590.857813) scale(0.14 -0.14)">
       <use xlink:href="#DejaVuSans-32"/>
       <use xlink:href="#DejaVuSans-35" x="63.623047"/>
       <use xlink:href="#DejaVuSans-30" x="127.246094"/>
       <use xlink:href="#DejaVuSans-20" x="190.869141"/>
       <use xlink:href="#DejaVuSans-6e" x="222.65625"/>
       <use xlink:href="#DejaVuSans-73" x="286.035156"/>
      </g>
     </g>
    </g>
    <g id="text_21">
     <!-- Time -->
     <g transform="translate(527.192969 608.407187) scale(0.14 -0.14)">
      <defs>
       <path id="DejaVuSans-69" d="M 603 3500 
L 1178 3500 
L 1178 0 
L 603 0 
L 603 3500 
z
M 603 4863 
L 1178 4863 
L 1178 4134 
L 603 4134 
L 603 4863 
z
" transform="scale(0.015625)"/>
       <path id="DejaVuSans-6d" d="M 3328 2828 
Q 3544 3216 3844 3400 
Q 4144 3584 4550 3584 
Q 5097 3584 5394 3201 
Q 5691 2819 5691 2113 
L 5691 0 
L 5113 0 
L 5113 2094 
Q 5113 2597 4934 2840 
Q 4756 3084 4391 3084 
Q 3944 3084 3684 2787 
Q 3425 2491 3425 1978 
L 3425 0 
L 2847 0 
L 2847 2094 
Q 2847 2600 2669 2842 
Q 2491 3084 2119 3084 
Q 1678 3084 1418 2786 
Q 1159 2488 1159 1978 
L 1159 0 
L 581 0 
L 581 3500 
L 1159 3500 
L 1159 2956 
Q 1356 3278 1631 3431 
Q 1906 3584 2284 3584 
Q 2666 3584 2933 3390 
Q 3200 3197 3328 2828 
z
" transform="scale(0.015625)"/>
       <path id="DejaVuSans-65" d="M 3597 1894 
L 3597 1613 
L 953 1613 
Q 991 1019 1311 708 
Q 1631 397 2203 397 
Q 2534 397 2845 478 
Q 3156 559 3463 722 
L 3463 178 
Q 3153 47 2828 -22 
Q 2503 -91 2169 -91 
Q 1331 -91 842 396 
Q 353 884 353 1716 
Q 353 2575 817 3079 
Q 1281 3584 2069 3584 
Q 2775 3584 3186 3129 
Q 3597 2675 3597 1894 
z
M 3022 2063 
Q 3016 2534 2758 2815 
Q 2500 3097 2075 3097 
Q 1594 3097 1305 2825 
Q 1016 2553 972 2059 
L 3022 2063 
z
" transform="scale(0.015625)"/>
      </defs>
      <use xlink:href="#DejaVuSans-54"/>
      <use xlink:href="#DejaVuSans-69" x="57.958984"/>
      <use xlink:href="#DejaVuSans-6d" x="85.742188"/>
      <use xlink:href="#DejaVuSans-65" x="183.154297"/>
     </g>
    </g>
   </g>
   <g id="matplotlib.axis_10">
    <g id="ytick_11">
     <g id="line2d_85">
      <path d="M 100.8 569.740566 
L 987.84 569.740566 
" clip-path="url(#peb4fffebe7)" style="fill: none; stroke-dasharray: 1.85,0.8; stroke-dashoffset: 0; stroke: #b2b2b2; stroke-width: 0.5"/>
     </g>
     <g id="line2d_86">
      <g>
       <use xlink:href="#m5c61c6be1a" x="100.8" y="569.740566" style="stroke: #000000; stroke-width: 0.8"/>
      </g>
     </g>
     <g id="text_22">
      <!-- 0 V -->
      <g transform="translate(74.36625 575.059472) scale(0.14 -0.14)">
       <use xlink:href="#DejaVuSans-30"/>
       <use xlink:href="#DejaVuSans-20" x="63.623047"/>
       <use xlink:href="#DejaVuSans-56" x="95.410156"/>
      </g>
     </g>
    </g>
    <g id="ytick_12">
     <g id="line2d_87">
      <path d="M 100.8 535.879871 
L 987.84 535.879871 
" clip-path="url(#peb4fffebe7)" style="fill: none; stroke-dasharray: 1.85,0.8; stroke-dashoffset: 0; stroke: #b2b2b2; stroke-width: 0.5"/>
     </g>
     <g id="line2d_88">
      <g>
       <use xlink:href="#m5c61c6be1a" x="100.8" y="535.879871" style="stroke: #000000; stroke-width: 0.8"/>
      </g>
     </g>
     <g id="text_23">
      <!-- 500 mV -->
      <g transform="translate(42.914375 541.198777) scale(0.14 -0.14)">
       <use xlink:href="#DejaVuSans-35"/>
       <use xlink:href="#DejaVuSans-30" x="63.623047"/>
       <use xlink:href="#DejaVuSans-30" x="127.246094"/>
       <use xlink:href="#DejaVuSans-20" x="190.869141"/>
       <use xlink:href="#DejaVuSans-6d" x="222.65625"/>
       <use xlink:href="#DejaVuSans-56" x="320.068359"/>
      </g>
     </g>
    </g>
    <g id="ytick_13">
     <g id="line2d_89">
      <path d="M 100.8 502.019176 
L 987.84 502.019176 
" clip-path="url(#peb4fffebe7)" style="fill: none; stroke-dasharray: 1.85,0.8; stroke-dashoffset: 0; stroke: #b2b2b2; stroke-width: 0.5"/>
     </g>
     <g id="line2d_90">
      <g>
       <use xlink:href="#m5c61c6be1a" x="100.8" y="502.019176" style="stroke: #000000; stroke-width: 0.8"/>
      </g>
     </g>
     <g id="text_24">
      <!-- 1 V -->
      <g transform="translate(74.36625 507.338082) scale(0.14 -0.14)">
       <use xlink:href="#DejaVuSans-31"/>
       <use xlink:href="#DejaVuSans-20" x="63.623047"/>
       <use xlink:href="#DejaVuSans-56" x="95.410156"/>
      </g>
     </g>
    </g>
    <g id="text_25">
     <g id="patch_27">
      <path d="M 34.8768 554.329483 
L 34.8768 506.379483 
L 11.247425 506.379483 
L 11.247425 554.329483 
z
" style="fill: #ffff00; opacity: 0.2; stroke: #eeeeee; stroke-width: 0.5; stroke-linejoin: miter"/>
     </g>
     <!-- FOUT -->
     <g transform="translate(26.925238 549.289483) rotate(-90) scale(0.14 -0.14)">
      <use xlink:href="#DejaVuSans-46"/>
      <use xlink:href="#DejaVuSans-4f" x="57.519531"/>
      <use xlink:href="#DejaVuSans-55" x="136.230469"/>
      <use xlink:href="#DejaVuSans-54" x="209.423828"/>
     </g>
    </g>
   </g>
   <g id="line2d_91">
    <path d="M 141.12 488.474898 
L 173.472768 488.48167 
L 173.505024 488.285278 
L 173.569536 526.701591 
L 173.69856 572.504953 
L 173.730816 572.369239 
L 173.827584 567.833125 
L 173.892096 569.354838 
L 174.053376 570.059486 
L 174.117888 569.941732 
L 174.408192 569.486245 
L 174.440448 569.535797 
L 174.66624 569.724604 
L 176.182272 569.73482 
L 180.117504 569.75616 
L 193.503744 569.747249 
L 212.921856 569.738688 
L 255.30624 569.73838 
L 255.6288 488.366544 
L 255.854592 488.508759 
L 256.209408 488.468126 
L 334.849536 488.488442 
L 334.881792 492.700713 
L 335.043072 572.183141 
L 335.107584 570.25688 
L 335.172096 568.330607 
L 335.236608 568.8631 
L 335.365632 570.779683 
L 335.430144 570.406044 
L 335.591424 569.791992 
L 335.881728 569.642932 
L 336.59136 569.817186 
L 337.526784 569.691604 
L 337.8816 569.839669 
L 337.913856 569.755283 
L 338.171904 569.739155 
L 356.622336 569.738883 
L 366.26688 569.72452 
L 366.299136 569.919154 
L 366.363648 536.305161 
L 366.524928 488.67129 
L 366.58944 488.454582 
L 366.653952 488.474898 
L 368.653824 488.366544 
L 368.68608 488.204013 
L 368.718336 488.725467 
L 368.782848 517.673653 
L 368.879616 570.133032 
L 368.944128 569.736683 
L 372.427776 569.738686 
L 415.13472 569.824019 
L 415.199232 567.364967 
L 415.586304 488.48167 
L 416.295936 488.48167 
L 416.328192 488.366544 
L 416.360448 490.553945 
L 416.521728 569.753465 
L 416.553984 569.738151 
L 417.07008 569.73884 
L 496.935936 569.720247 
L 496.968192 569.017031 
L 497.258496 488.501987 
L 497.581056 488.474898 
L 947.52 488.474898 
L 947.52 488.474898 
" clip-path="url(#peb4fffebe7)" style="fill: none; stroke: #ff00ff; stroke-width: 2; stroke-linecap: square"/>
   </g>
   <g id="patch_28">
    <path d="M 100.8 576.72 
L 100.8 483.988966 
" style="fill: none; stroke: #bcbcbc; stroke-width: 0.8; stroke-linejoin: miter; stroke-linecap: square"/>
   </g>
   <g id="patch_29">
    <path d="M 987.84 576.72 
L 987.84 483.988966 
" style="fill: none; stroke: #bcbcbc; stroke-width: 0.8; stroke-linejoin: miter; stroke-linecap: square"/>
   </g>
   <g id="patch_30">
    <path d="M 100.8 576.72 
L 987.84 576.72 
" style="fill: none; stroke: #bcbcbc; stroke-width: 0.8; stroke-linejoin: miter; stroke-linecap: square"/>
   </g>
   <g id="patch_31">
    <path d="M 100.8 483.988966 
L 987.84 483.988966 
" style="fill: none; stroke: #bcbcbc; stroke-width: 0.8; stroke-linejoin: miter; stroke-linecap: square"/>
   </g>
  </g>
  <g id="axes_6">
   <g id="patch_32">
    <path d="M 201.6 628.56 
L 856.8 628.56 
L 856.8 615.6 
L 201.6 615.6 
z
" clip-path="url(#p18236cc7ee)" style="fill: #d3d3d3"/>
   </g>
   <g id="patch_33">
    <path d="M 201.6 628.56 
L 440.28 628.56 
L 440.28 615.6 
L 201.6 615.6 
z
" clip-path="url(#p18236cc7ee)" style="fill: #0000ff"/>
   </g>
   <g id="line2d_92">
    <path d="M 201.6 635.04 
L 201.6 609.12 
" clip-path="url(#pb54830c853)" style="fill: none; stroke: #ff0000; stroke-linecap: square"/>
   </g>
   <g id="line2d_93">
    <defs>
     <path id="m0b78988335" d="M 0 5 
C 1.326016 5 2.597899 4.473168 3.535534 3.535534 
C 4.473168 2.597899 5 1.326016 5 0 
C 5 -1.326016 4.473168 -2.597899 3.535534 -3.535534 
C 2.597899 -4.473168 1.326016 -5 0 -5 
C -1.326016 -5 -2.597899 -4.473168 -3.535534 -3.535534 
C -4.473168 -2.597899 -5 -1.326016 -5 0 
C -5 1.326016 -4.473168 2.597899 -3.535534 3.535534 
C -2.597899 4.473168 -1.326016 5 0 5 
z
" style="stroke: #bfbfbf"/>
    </defs>
    <g>
     <use xlink:href="#m0b78988335" x="440.28" y="622.08" style="fill: #ffffff; stroke: #bfbfbf"/>
    </g>
   </g>
   <g id="text_26">
    <!-- #Sweep -->
    <g transform="translate(138.622875 625.39125) scale(0.12 -0.12)">
     <defs>
      <path id="DejaVuSans-23" d="M 3272 2816 
L 2363 2816 
L 2100 1772 
L 3016 1772 
L 3272 2816 
z
M 2803 4594 
L 2478 3297 
L 3391 3297 
L 3719 4594 
L 4219 4594 
L 3897 3297 
L 4872 3297 
L 4872 2816 
L 3775 2816 
L 3519 1772 
L 4513 1772 
L 4513 1294 
L 3397 1294 
L 3072 0 
L 2572 0 
L 2894 1294 
L 1978 1294 
L 1656 0 
L 1153 0 
L 1478 1294 
L 494 1294 
L 494 1772 
L 1594 1772 
L 1856 2816 
L 850 2816 
L 850 3297 
L 1978 3297 
L 2297 4594 
L 2803 4594 
z
" transform="scale(0.015625)"/>
      <path id="DejaVuSans-77" d="M 269 3500 
L 844 3500 
L 1563 769 
L 2278 3500 
L 2956 3500 
L 3675 769 
L 4391 3500 
L 4966 3500 
L 4050 0 
L 3372 0 
L 2619 2869 
L 1863 0 
L 1184 0 
L 269 3500 
z
" transform="scale(0.015625)"/>
      <path id="DejaVuSans-70" d="M 1159 525 
L 1159 -1331 
L 581 -1331 
L 581 3500 
L 1159 3500 
L 1159 2969 
Q 1341 3281 1617 3432 
Q 1894 3584 2278 3584 
Q 2916 3584 3314 3078 
Q 3713 2572 3713 1747 
Q 3713 922 3314 415 
Q 2916 -91 2278 -91 
Q 1894 -91 1617 61 
Q 1341 213 1159 525 
z
M 3116 1747 
Q 3116 2381 2855 2742 
Q 2594 3103 2138 3103 
Q 1681 3103 1420 2742 
Q 1159 2381 1159 1747 
Q 1159 1113 1420 752 
Q 1681 391 2138 391 
Q 2594 391 2855 752 
Q 3116 1113 3116 1747 
z
" transform="scale(0.015625)"/>
     </defs>
     <use xlink:href="#DejaVuSans-23"/>
     <use xlink:href="#DejaVuSans-53" x="83.789062"/>
     <use xlink:href="#DejaVuSans-77" x="147.265625"/>
     <use xlink:href="#DejaVuSans-65" x="229.052734"/>
     <use xlink:href="#DejaVuSans-65" x="290.576172"/>
     <use xlink:href="#DejaVuSans-70" x="352.099609"/>
    </g>
   </g>
   <g id="text_27">
    <!-- $\mathdefault{51}$ -->
    <g transform="translate(869.904 625.39125) scale(0.12 -0.12)">
     <use xlink:href="#DejaVuSans-35" transform="translate(0 0.09375)"/>
     <use xlink:href="#DejaVuSans-31" transform="translate(63.623047 0.09375)"/>
    </g>
   </g>
  </g>
  <g id="text_28">
   <!-- DFF under BBI sweep analysis (Sweep = 61E-9) -->
   <g transform="translate(313.34625 25.1175) scale(0.16 -0.16)">
    <defs>
     <path id="DejaVuSans-75" d="M 544 1381 
L 544 3500 
L 1119 3500 
L 1119 1403 
Q 1119 906 1312 657 
Q 1506 409 1894 409 
Q 2359 409 2629 706 
Q 2900 1003 2900 1516 
L 2900 3500 
L 3475 3500 
L 3475 0 
L 2900 0 
L 2900 538 
Q 2691 219 2414 64 
Q 2138 -91 1772 -91 
Q 1169 -91 856 284 
Q 544 659 544 1381 
z
M 1991 3584 
L 1991 3584 
z
" transform="scale(0.015625)"/>
     <path id="DejaVuSans-64" d="M 2906 2969 
L 2906 4863 
L 3481 4863 
L 3481 0 
L 2906 0 
L 2906 525 
Q 2725 213 2448 61 
Q 2172 -91 1784 -91 
Q 1150 -91 751 415 
Q 353 922 353 1747 
Q 353 2572 751 3078 
Q 1150 3584 1784 3584 
Q 2172 3584 2448 3432 
Q 2725 3281 2906 2969 
z
M 947 1747 
Q 947 1113 1208 752 
Q 1469 391 1925 391 
Q 2381 391 2643 752 
Q 2906 1113 2906 1747 
Q 2906 2381 2643 2742 
Q 2381 3103 1925 3103 
Q 1469 3103 1208 2742 
Q 947 2381 947 1747 
z
" transform="scale(0.015625)"/>
     <path id="DejaVuSans-72" d="M 2631 2963 
Q 2534 3019 2420 3045 
Q 2306 3072 2169 3072 
Q 1681 3072 1420 2755 
Q 1159 2438 1159 1844 
L 1159 0 
L 581 0 
L 581 3500 
L 1159 3500 
L 1159 2956 
Q 1341 3275 1631 3429 
Q 1922 3584 2338 3584 
Q 2397 3584 2469 3576 
Q 2541 3569 2628 3553 
L 2631 2963 
z
" transform="scale(0.015625)"/>
     <path id="DejaVuSans-61" d="M 2194 1759 
Q 1497 1759 1228 1600 
Q 959 1441 959 1056 
Q 959 750 1161 570 
Q 1363 391 1709 391 
Q 2188 391 2477 730 
Q 2766 1069 2766 1631 
L 2766 1759 
L 2194 1759 
z
M 3341 1997 
L 3341 0 
L 2766 0 
L 2766 531 
Q 2569 213 2275 61 
Q 1981 -91 1556 -91 
Q 1019 -91 701 211 
Q 384 513 384 1019 
Q 384 1609 779 1909 
Q 1175 2209 1959 2209 
L 2766 2209 
L 2766 2266 
Q 2766 2663 2505 2880 
Q 2244 3097 1772 3097 
Q 1472 3097 1187 3025 
Q 903 2953 641 2809 
L 641 3341 
Q 956 3463 1253 3523 
Q 1550 3584 1831 3584 
Q 2591 3584 2966 3190 
Q 3341 2797 3341 1997 
z
" transform="scale(0.015625)"/>
     <path id="DejaVuSans-6c" d="M 603 4863 
L 1178 4863 
L 1178 0 
L 603 0 
L 603 4863 
z
" transform="scale(0.015625)"/>
     <path id="DejaVuSans-79" d="M 2059 -325 
Q 1816 -950 1584 -1140 
Q 1353 -1331 966 -1331 
L 506 -1331 
L 506 -850 
L 844 -850 
Q 1081 -850 1212 -737 
Q 1344 -625 1503 -206 
L 1606 56 
L 191 3500 
L 800 3500 
L 1894 763 
L 2988 3500 
L 3597 3500 
L 2059 -325 
z
" transform="scale(0.015625)"/>
     <path id="DejaVuSans-28" d="M 1984 4856 
Q 1566 4138 1362 3434 
Q 1159 2731 1159 2009 
Q 1159 1288 1364 580 
Q 1569 -128 1984 -844 
L 1484 -844 
Q 1016 -109 783 600 
Q 550 1309 550 2009 
Q 550 2706 781 3412 
Q 1013 4119 1484 4856 
L 1984 4856 
z
" transform="scale(0.015625)"/>
     <path id="DejaVuSans-3d" d="M 678 2906 
L 4684 2906 
L 4684 2381 
L 678 2381 
L 678 2906 
z
M 678 1631 
L 4684 1631 
L 4684 1100 
L 678 1100 
L 678 1631 
z
" transform="scale(0.015625)"/>
     <path id="DejaVuSans-36" d="M 2113 2584 
Q 1688 2584 1439 2293 
Q 1191 2003 1191 1497 
Q 1191 994 1439 701 
Q 1688 409 2113 409 
Q 2538 409 2786 701 
Q 3034 994 3034 1497 
Q 3034 2003 2786 2293 
Q 2538 2584 2113 2584 
z
M 3366 4563 
L 3366 3988 
Q 3128 4100 2886 4159 
Q 2644 4219 2406 4219 
Q 1781 4219 1451 3797 
Q 1122 3375 1075 2522 
Q 1259 2794 1537 2939 
Q 1816 3084 2150 3084 
Q 2853 3084 3261 2657 
Q 3669 2231 3669 1497 
Q 3669 778 3244 343 
Q 2819 -91 2113 -91 
Q 1303 -91 875 529 
Q 447 1150 447 2328 
Q 447 3434 972 4092 
Q 1497 4750 2381 4750 
Q 2619 4750 2861 4703 
Q 3103 4656 3366 4563 
z
" transform="scale(0.015625)"/>
     <path id="DejaVuSans-2d" d="M 313 2009 
L 1997 2009 
L 1997 1497 
L 313 1497 
L 313 2009 
z
" transform="scale(0.015625)"/>
     <path id="DejaVuSans-39" d="M 703 97 
L 703 672 
Q 941 559 1184 500 
Q 1428 441 1663 441 
Q 2288 441 2617 861 
Q 2947 1281 2994 2138 
Q 2813 1869 2534 1725 
Q 2256 1581 1919 1581 
Q 1219 1581 811 2004 
Q 403 2428 403 3163 
Q 403 3881 828 4315 
Q 1253 4750 1959 4750 
Q 2769 4750 3195 4129 
Q 3622 3509 3622 2328 
Q 3622 1225 3098 567 
Q 2575 -91 1691 -91 
Q 1453 -91 1209 -44 
Q 966 3 703 97 
z
M 1959 2075 
Q 2384 2075 2632 2365 
Q 2881 2656 2881 3163 
Q 2881 3666 2632 3958 
Q 2384 4250 1959 4250 
Q 1534 4250 1286 3958 
Q 1038 3666 1038 3163 
Q 1038 2656 1286 2365 
Q 1534 2075 1959 2075 
z
" transform="scale(0.015625)"/>
     <path id="DejaVuSans-29" d="M 513 4856 
L 1013 4856 
Q 1481 4119 1714 3412 
Q 1947 2706 1947 2009 
Q 1947 1309 1714 600 
Q 1481 -109 1013 -844 
L 513 -844 
Q 928 -128 1133 580 
Q 1338 1288 1338 2009 
Q 1338 2731 1133 3434 
Q 928 4138 513 4856 
z
" transform="scale(0.015625)"/>
    </defs>
    <use xlink:href="#DejaVuSans-44"/>
    <use xlink:href="#DejaVuSans-46" x="77.001953"/>
    <use xlink:href="#DejaVuSans-46" x="134.521484"/>
    <use xlink:href="#DejaVuSans-20" x="192.041016"/>
    <use xlink:href="#DejaVuSans-75" x="223.828125"/>
    <use xlink:href="#DejaVuSans-6e" x="287.207031"/>
    <use xlink:href="#DejaVuSans-64" x="350.585938"/>
    <use xlink:href="#DejaVuSans-65" x="414.0625"/>
    <use xlink:href="#DejaVuSans-72" x="475.585938"/>
    <use xlink:href="#DejaVuSans-20" x="516.699219"/>
    <use xlink:href="#DejaVuSans-42" x="548.486328"/>
    <use xlink:href="#DejaVuSans-42" x="617.089844"/>
    <use xlink:href="#DejaVuSans-49" x="685.693359"/>
    <use xlink:href="#DejaVuSans-20" x="715.185547"/>
    <use xlink:href="#DejaVuSans-73" x="746.972656"/>
    <use xlink:href="#DejaVuSans-77" x="799.072266"/>
    <use xlink:href="#DejaVuSans-65" x="880.859375"/>
    <use xlink:href="#DejaVuSans-65" x="942.382812"/>
    <use xlink:href="#DejaVuSans-70" x="1003.90625"/>
    <use xlink:href="#DejaVuSans-20" x="1067.382812"/>
    <use xlink:href="#DejaVuSans-61" x="1099.169922"/>
    <use xlink:href="#DejaVuSans-6e" x="1160.449219"/>
    <use xlink:href="#DejaVuSans-61" x="1223.828125"/>
    <use xlink:href="#DejaVuSans-6c" x="1285.107422"/>
    <use xlink:href="#DejaVuSans-79" x="1312.890625"/>
    <use xlink:href="#DejaVuSans-73" x="1372.070312"/>
    <use xlink:href="#DejaVuSans-69" x="1424.169922"/>
    <use xlink:href="#DejaVuSans-73" x="1451.953125"/>
    <use xlink:href="#DejaVuSans-20" x="1504.052734"/>
    <use xlink:href="#DejaVuSans-28" x="1535.839844"/>
    <use xlink:href="#DejaVuSans-53" x="1574.853516"/>
    <use xlink:href="#DejaVuSans-77" x="1638.330078"/>
    <use xlink:href="#DejaVuSans-65" x="1720.117188"/>
    <use xlink:href="#DejaVuSans-65" x="1781.640625"/>
    <use xlink:href="#DejaVuSans-70" x="1843.164062"/>
    <use xlink:href="#DejaVuSans-20" x="1906.640625"/>
    <use xlink:href="#DejaVuSans-3d" x="1938.427734"/>
    <use xlink:href="#DejaVuSans-20" x="2022.216797"/>
    <use xlink:href="#DejaVuSans-36" x="2054.003906"/>
    <use xlink:href="#DejaVuSans-31" x="2117.626953"/>
    <use xlink:href="#DejaVuSans-45" x="2181.25"/>
    <use xlink:href="#DejaVuSans-2d" x="2244.433594"/>
    <use xlink:href="#DejaVuSans-39" x="2280.517578"/>
    <use xlink:href="#DejaVuSans-29" x="2344.140625"/>
   </g>
  </g>
 </g>
 <defs>
  <clipPath id="pb8e62d6bdc">
   <rect x="100.8" y="38.88" width="887.04" height="92.731034"/>
  </clipPath>
  <clipPath id="pbf7a39da2d">
   <rect x="100.8" y="150.157241" width="887.04" height="92.731034"/>
  </clipPath>
  <clipPath id="pe24fe0cd39">
   <rect x="100.8" y="261.434483" width="887.04" height="92.731034"/>
  </clipPath>
  <clipPath id="pf1eeb955e2">
   <rect x="100.8" y="372.711724" width="887.04" height="92.731034"/>
  </clipPath>
  <clipPath id="peb4fffebe7">
   <rect x="100.8" y="483.988966" width="887.04" height="92.731034"/>
  </clipPath>
  <clipPath id="p18236cc7ee">
   <rect x="201.6" y="609.12" width="655.2" height="25.92"/>
  </clipPath>
  <clipPath id="pb54830c853">
   <path d="M 201.6 628.56 
L 856.8 628.56 
L 856.8 615.6 
L 201.6 615.6 
z
"/>
  </clipPath>
 </defs>
</svg>
