<?xml version="1.0" encoding="utf-8" standalone="no"?>
<!DOCTYPE svg PUBLIC "-//W3C//DTD SVG 1.1//EN"
  "http://www.w3.org/Graphics/SVG/1.1/DTD/svg11.dtd">
<svg xmlns:xlink="http://www.w3.org/1999/xlink" width="1008pt" height="648pt" viewBox="0 0 1008 648" xmlns="http://www.w3.org/2000/svg" version="1.1">
 <metadata>
  <rdf:RDF xmlns:dc="http://purl.org/dc/elements/1.1/" xmlns:cc="http://creativecommons.org/ns#" xmlns:rdf="http://www.w3.org/1999/02/22-rdf-syntax-ns#">
   <cc:Work>
    <dc:type rdf:resource="http://purl.org/dc/dcmitype/StillImage"/>
    <dc:date>2024-06-03T10:45:53.470707</dc:date>
    <dc:format>image/svg+xml</dc:format>
    <dc:creator>
     <cc:Agent>
      <dc:title>Matplotlib v3.9.0, https://matplotlib.org/</dc:title>
     </cc:Agent>
    </dc:creator>
   </cc:Work>
  </rdf:RDF>
 </metadata>
 <defs>
  <style type="text/css">*{stroke-linejoin: round; stroke-linecap: butt}</style>
 </defs>
 <g id="figure_1">
  <g id="patch_1">
   <path d="M 0 648 
L 1008 648 
L 1008 0 
L 0 0 
z
" style="fill: #ffffff"/>
  </g>
  <g id="axes_1">
   <g id="patch_2">
    <path d="M 100.8 131.611034 
L 987.84 131.611034 
L 987.84 38.88 
L 100.8 38.88 
z
" style="fill: #eeeeee"/>
   </g>
   <g id="matplotlib.axis_1">
    <g id="xtick_1">
     <g id="line2d_1">
      <path d="M 141.12 131.611034 
L 141.12 38.88 
" clip-path="url(#p47cc98c3bd)" style="fill: none; stroke-dasharray: 1.85,0.8; stroke-dashoffset: 0; stroke: #b2b2b2; stroke-width: 0.5"/>
     </g>
     <g id="line2d_2">
      <defs>
       <path id="mc0b6ae66d3" d="M 0 0 
L 0 -3.5 
" style="stroke: #000000; stroke-width: 0.8"/>
      </defs>
      <g>
       <use xlink:href="#mc0b6ae66d3" x="141.12" y="131.611034" style="stroke: #000000; stroke-width: 0.8"/>
      </g>
     </g>
    </g>
    <g id="xtick_2">
     <g id="line2d_3">
      <path d="M 302.4 131.611034 
L 302.4 38.88 
" clip-path="url(#p47cc98c3bd)" style="fill: none; stroke-dasharray: 1.85,0.8; stroke-dashoffset: 0; stroke: #b2b2b2; stroke-width: 0.5"/>
     </g>
     <g id="line2d_4">
      <g>
       <use xlink:href="#mc0b6ae66d3" x="302.4" y="131.611034" style="stroke: #000000; stroke-width: 0.8"/>
      </g>
     </g>
    </g>
    <g id="xtick_3">
     <g id="line2d_5">
      <path d="M 463.68 131.611034 
L 463.68 38.88 
" clip-path="url(#p47cc98c3bd)" style="fill: none; stroke-dasharray: 1.85,0.8; stroke-dashoffset: 0; stroke: #b2b2b2; stroke-width: 0.5"/>
     </g>
     <g id="line2d_6">
      <g>
       <use xlink:href="#mc0b6ae66d3" x="463.68" y="131.611034" style="stroke: #000000; stroke-width: 0.8"/>
      </g>
     </g>
    </g>
    <g id="xtick_4">
     <g id="line2d_7">
      <path d="M 624.96 131.611034 
L 624.96 38.88 
" clip-path="url(#p47cc98c3bd)" style="fill: none; stroke-dasharray: 1.85,0.8; stroke-dashoffset: 0; stroke: #b2b2b2; stroke-width: 0.5"/>
     </g>
     <g id="line2d_8">
      <g>
       <use xlink:href="#mc0b6ae66d3" x="624.96" y="131.611034" style="stroke: #000000; stroke-width: 0.8"/>
      </g>
     </g>
    </g>
    <g id="xtick_5">
     <g id="line2d_9">
      <path d="M 786.24 131.611034 
L 786.24 38.88 
" clip-path="url(#p47cc98c3bd)" style="fill: none; stroke-dasharray: 1.85,0.8; stroke-dashoffset: 0; stroke: #b2b2b2; stroke-width: 0.5"/>
     </g>
     <g id="line2d_10">
      <g>
       <use xlink:href="#mc0b6ae66d3" x="786.24" y="131.611034" style="stroke: #000000; stroke-width: 0.8"/>
      </g>
     </g>
    </g>
    <g id="xtick_6">
     <g id="line2d_11">
      <path d="M 947.52 131.611034 
L 947.52 38.88 
" clip-path="url(#p47cc98c3bd)" style="fill: none; stroke-dasharray: 1.85,0.8; stroke-dashoffset: 0; stroke: #b2b2b2; stroke-width: 0.5"/>
     </g>
     <g id="line2d_12">
      <g>
       <use xlink:href="#mc0b6ae66d3" x="947.52" y="131.611034" style="stroke: #000000; stroke-width: 0.8"/>
      </g>
     </g>
    </g>
   </g>
   <g id="matplotlib.axis_2">
    <g id="ytick_1">
     <g id="line2d_13">
      <path d="M 100.8 98.340394 
L 987.84 98.340394 
" clip-path="url(#p47cc98c3bd)" style="fill: none; stroke-dasharray: 1.85,0.8; stroke-dashoffset: 0; stroke: #b2b2b2; stroke-width: 0.5"/>
     </g>
     <g id="line2d_14">
      <defs>
       <path id="m8649bf1b4a" d="M 0 0 
L 3.5 0 
" style="stroke: #000000; stroke-width: 0.8"/>
      </defs>
      <g>
       <use xlink:href="#m8649bf1b4a" x="100.8" y="98.340394" style="stroke: #000000; stroke-width: 0.8"/>
      </g>
     </g>
     <g id="text_1">
      <!-- −200 V -->
      <g transform="translate(44.819688 103.6593) scale(0.14 -0.14)">
       <defs>
        <path id="DejaVuSans-2212" d="M 678 2272 
L 4684 2272 
L 4684 1741 
L 678 1741 
L 678 2272 
z
" transform="scale(0.015625)"/>
        <path id="DejaVuSans-32" d="M 1228 531 
L 3431 531 
L 3431 0 
L 469 0 
L 469 531 
Q 828 903 1448 1529 
Q 2069 2156 2228 2338 
Q 2531 2678 2651 2914 
Q 2772 3150 2772 3378 
Q 2772 3750 2511 3984 
Q 2250 4219 1831 4219 
Q 1534 4219 1204 4116 
Q 875 4013 500 3803 
L 500 4441 
Q 881 4594 1212 4672 
Q 1544 4750 1819 4750 
Q 2544 4750 2975 4387 
Q 3406 4025 3406 3419 
Q 3406 3131 3298 2873 
Q 3191 2616 2906 2266 
Q 2828 2175 2409 1742 
Q 1991 1309 1228 531 
z
" transform="scale(0.015625)"/>
        <path id="DejaVuSans-30" d="M 2034 4250 
Q 1547 4250 1301 3770 
Q 1056 3291 1056 2328 
Q 1056 1369 1301 889 
Q 1547 409 2034 409 
Q 2525 409 2770 889 
Q 3016 1369 3016 2328 
Q 3016 3291 2770 3770 
Q 2525 4250 2034 4250 
z
M 2034 4750 
Q 2819 4750 3233 4129 
Q 3647 3509 3647 2328 
Q 3647 1150 3233 529 
Q 2819 -91 2034 -91 
Q 1250 -91 836 529 
Q 422 1150 422 2328 
Q 422 3509 836 4129 
Q 1250 4750 2034 4750 
z
" transform="scale(0.015625)"/>
        <path id="DejaVuSans-20" transform="scale(0.015625)"/>
        <path id="DejaVuSans-56" d="M 1831 0 
L 50 4666 
L 709 4666 
L 2188 738 
L 3669 4666 
L 4325 4666 
L 2547 0 
L 1831 0 
z
" transform="scale(0.015625)"/>
       </defs>
       <use xlink:href="#DejaVuSans-2212"/>
       <use xlink:href="#DejaVuSans-32" x="83.789062"/>
       <use xlink:href="#DejaVuSans-30" x="147.412109"/>
       <use xlink:href="#DejaVuSans-30" x="211.035156"/>
       <use xlink:href="#DejaVuSans-20" x="274.658203"/>
       <use xlink:href="#DejaVuSans-56" x="306.445312"/>
      </g>
     </g>
    </g>
    <g id="ytick_2">
     <g id="line2d_15">
      <path d="M 100.8 45.027377 
L 987.84 45.027377 
" clip-path="url(#p47cc98c3bd)" style="fill: none; stroke-dasharray: 1.85,0.8; stroke-dashoffset: 0; stroke: #b2b2b2; stroke-width: 0.5"/>
     </g>
     <g id="line2d_16">
      <g>
       <use xlink:href="#m8649bf1b4a" x="100.8" y="45.027377" style="stroke: #000000; stroke-width: 0.8"/>
      </g>
     </g>
     <g id="text_2">
      <!-- 0 V -->
      <g transform="translate(74.36625 50.346284) scale(0.14 -0.14)">
       <use xlink:href="#DejaVuSans-30"/>
       <use xlink:href="#DejaVuSans-20" x="63.623047"/>
       <use xlink:href="#DejaVuSans-56" x="95.410156"/>
      </g>
     </g>
    </g>
    <g id="text_3">
     <g id="patch_3">
      <path d="M 34.8768 131.080205 
L 34.8768 39.41083 
L 11.247425 39.41083 
L 11.247425 131.080205 
z
" style="fill: #ffff00; opacity: 0.2; stroke: #eeeeee; stroke-width: 0.5; stroke-linejoin: miter"/>
     </g>
     <!-- VPULSE BBI -->
     <g transform="translate(26.925238 126.040205) rotate(-90) scale(0.14 -0.14)">
      <defs>
       <path id="DejaVuSans-50" d="M 1259 4147 
L 1259 2394 
L 2053 2394 
Q 2494 2394 2734 2622 
Q 2975 2850 2975 3272 
Q 2975 3691 2734 3919 
Q 2494 4147 2053 4147 
L 1259 4147 
z
M 628 4666 
L 2053 4666 
Q 2838 4666 3239 4311 
Q 3641 3956 3641 3272 
Q 3641 2581 3239 2228 
Q 2838 1875 2053 1875 
L 1259 1875 
L 1259 0 
L 628 0 
L 628 4666 
z
" transform="scale(0.015625)"/>
       <path id="DejaVuSans-55" d="M 556 4666 
L 1191 4666 
L 1191 1831 
Q 1191 1081 1462 751 
Q 1734 422 2344 422 
Q 2950 422 3222 751 
Q 3494 1081 3494 1831 
L 3494 4666 
L 4128 4666 
L 4128 1753 
Q 4128 841 3676 375 
Q 3225 -91 2344 -91 
Q 1459 -91 1007 375 
Q 556 841 556 1753 
L 556 4666 
z
" transform="scale(0.015625)"/>
       <path id="DejaVuSans-4c" d="M 628 4666 
L 1259 4666 
L 1259 531 
L 3531 531 
L 3531 0 
L 628 0 
L 628 4666 
z
" transform="scale(0.015625)"/>
       <path id="DejaVuSans-53" d="M 3425 4513 
L 3425 3897 
Q 3066 4069 2747 4153 
Q 2428 4238 2131 4238 
Q 1616 4238 1336 4038 
Q 1056 3838 1056 3469 
Q 1056 3159 1242 3001 
Q 1428 2844 1947 2747 
L 2328 2669 
Q 3034 2534 3370 2195 
Q 3706 1856 3706 1288 
Q 3706 609 3251 259 
Q 2797 -91 1919 -91 
Q 1588 -91 1214 -16 
Q 841 59 441 206 
L 441 856 
Q 825 641 1194 531 
Q 1563 422 1919 422 
Q 2459 422 2753 634 
Q 3047 847 3047 1241 
Q 3047 1584 2836 1778 
Q 2625 1972 2144 2069 
L 1759 2144 
Q 1053 2284 737 2584 
Q 422 2884 422 3419 
Q 422 4038 858 4394 
Q 1294 4750 2059 4750 
Q 2388 4750 2728 4690 
Q 3069 4631 3425 4513 
z
" transform="scale(0.015625)"/>
       <path id="DejaVuSans-45" d="M 628 4666 
L 3578 4666 
L 3578 4134 
L 1259 4134 
L 1259 2753 
L 3481 2753 
L 3481 2222 
L 1259 2222 
L 1259 531 
L 3634 531 
L 3634 0 
L 628 0 
L 628 4666 
z
" transform="scale(0.015625)"/>
       <path id="DejaVuSans-42" d="M 1259 2228 
L 1259 519 
L 2272 519 
Q 2781 519 3026 730 
Q 3272 941 3272 1375 
Q 3272 1813 3026 2020 
Q 2781 2228 2272 2228 
L 1259 2228 
z
M 1259 4147 
L 1259 2741 
L 2194 2741 
Q 2656 2741 2882 2914 
Q 3109 3088 3109 3444 
Q 3109 3797 2882 3972 
Q 2656 4147 2194 4147 
L 1259 4147 
z
M 628 4666 
L 2241 4666 
Q 2963 4666 3353 4366 
Q 3744 4066 3744 3513 
Q 3744 3084 3544 2831 
Q 3344 2578 2956 2516 
Q 3422 2416 3680 2098 
Q 3938 1781 3938 1306 
Q 3938 681 3513 340 
Q 3088 0 2303 0 
L 628 0 
L 628 4666 
z
" transform="scale(0.015625)"/>
       <path id="DejaVuSans-49" d="M 628 4666 
L 1259 4666 
L 1259 0 
L 628 0 
L 628 4666 
z
" transform="scale(0.015625)"/>
      </defs>
      <use xlink:href="#DejaVuSans-56"/>
      <use xlink:href="#DejaVuSans-50" x="68.408203"/>
      <use xlink:href="#DejaVuSans-55" x="128.710938"/>
      <use xlink:href="#DejaVuSans-4c" x="201.904297"/>
      <use xlink:href="#DejaVuSans-53" x="257.617188"/>
      <use xlink:href="#DejaVuSans-45" x="321.09375"/>
      <use xlink:href="#DejaVuSans-20" x="384.277344"/>
      <use xlink:href="#DejaVuSans-42" x="416.064453"/>
      <use xlink:href="#DejaVuSans-42" x="484.667969"/>
      <use xlink:href="#DejaVuSans-49" x="553.271484"/>
     </g>
    </g>
   </g>
   <g id="line2d_17">
    <path d="M 141.12 45.027377 
L 547.577856 45.136282 
L 548.061696 46.425538 
L 556.286976 69.006772 
L 563.705856 89.863624 
L 565.318656 94.440546 
L 567.124992 99.673219 
L 570.60864 110.807642 
L 572.189184 115.853719 
L 573.479424 119.585631 
L 573.931008 119.80688 
L 574.995456 120.297359 
L 575.479296 120.526605 
L 576.543744 121.017085 
L 577.124352 121.272988 
L 577.995264 121.656841 
L 578.575872 121.912744 
L 579.414528 122.269941 
L 580.995072 122.936354 
L 581.640192 123.202919 
L 582.736896 123.629423 
L 583.478784 123.922644 
L 584.575488 124.349149 
L 585.478656 124.677024 
L 586.156032 124.943589 
L 586.962432 125.25547 
L 588.317184 125.804594 
L 590.962176 126.790885 
L 591.57504 127.022796 
L 593.5104 127.395987 
L 611.993088 127.289361 
L 612.21888 126.801547 
L 630.508032 75.087922 
L 634.249728 63.292417 
L 637.959168 51.617666 
L 642.571776 49.3412 
L 647.926272 46.984578 
L 656.635392 43.484472 
L 657.506304 43.268927 
L 671.795712 43.108189 
L 678.601728 43.184799 
L 693.955584 43.746186 
L 721.728 44.46146 
L 747.37152 44.774399 
L 782.982144 44.945888 
L 831.011328 44.953885 
L 947.52 44.953885 
L 947.52 44.953885 
" clip-path="url(#p47cc98c3bd)" style="fill: none; stroke: #ff0000; stroke-width: 2; stroke-linecap: square"/>
   </g>
   <g id="patch_4">
    <path d="M 100.8 131.611034 
L 100.8 38.88 
" style="fill: none; stroke: #bcbcbc; stroke-width: 0.8; stroke-linejoin: miter; stroke-linecap: square"/>
   </g>
   <g id="patch_5">
    <path d="M 987.84 131.611034 
L 987.84 38.88 
" style="fill: none; stroke: #bcbcbc; stroke-width: 0.8; stroke-linejoin: miter; stroke-linecap: square"/>
   </g>
   <g id="patch_6">
    <path d="M 100.8 131.611034 
L 987.84 131.611034 
" style="fill: none; stroke: #bcbcbc; stroke-width: 0.8; stroke-linejoin: miter; stroke-linecap: square"/>
   </g>
   <g id="patch_7">
    <path d="M 100.8 38.88 
L 987.84 38.88 
" style="fill: none; stroke: #bcbcbc; stroke-width: 0.8; stroke-linejoin: miter; stroke-linecap: square"/>
   </g>
  </g>
  <g id="axes_2">
   <g id="patch_8">
    <path d="M 100.8 242.888276 
L 987.84 242.888276 
L 987.84 150.157241 
L 100.8 150.157241 
z
" style="fill: #eeeeee"/>
   </g>
   <g id="matplotlib.axis_3">
    <g id="xtick_7">
     <g id="line2d_18">
      <path d="M 141.12 242.888276 
L 141.12 150.157241 
" clip-path="url(#p1931815089)" style="fill: none; stroke-dasharray: 1.85,0.8; stroke-dashoffset: 0; stroke: #b2b2b2; stroke-width: 0.5"/>
     </g>
     <g id="line2d_19">
      <g>
       <use xlink:href="#mc0b6ae66d3" x="141.12" y="242.888276" style="stroke: #000000; stroke-width: 0.8"/>
      </g>
     </g>
    </g>
    <g id="xtick_8">
     <g id="line2d_20">
      <path d="M 302.4 242.888276 
L 302.4 150.157241 
" clip-path="url(#p1931815089)" style="fill: none; stroke-dasharray: 1.85,0.8; stroke-dashoffset: 0; stroke: #b2b2b2; stroke-width: 0.5"/>
     </g>
     <g id="line2d_21">
      <g>
       <use xlink:href="#mc0b6ae66d3" x="302.4" y="242.888276" style="stroke: #000000; stroke-width: 0.8"/>
      </g>
     </g>
    </g>
    <g id="xtick_9">
     <g id="line2d_22">
      <path d="M 463.68 242.888276 
L 463.68 150.157241 
" clip-path="url(#p1931815089)" style="fill: none; stroke-dasharray: 1.85,0.8; stroke-dashoffset: 0; stroke: #b2b2b2; stroke-width: 0.5"/>
     </g>
     <g id="line2d_23">
      <g>
       <use xlink:href="#mc0b6ae66d3" x="463.68" y="242.888276" style="stroke: #000000; stroke-width: 0.8"/>
      </g>
     </g>
    </g>
    <g id="xtick_10">
     <g id="line2d_24">
      <path d="M 624.96 242.888276 
L 624.96 150.157241 
" clip-path="url(#p1931815089)" style="fill: none; stroke-dasharray: 1.85,0.8; stroke-dashoffset: 0; stroke: #b2b2b2; stroke-width: 0.5"/>
     </g>
     <g id="line2d_25">
      <g>
       <use xlink:href="#mc0b6ae66d3" x="624.96" y="242.888276" style="stroke: #000000; stroke-width: 0.8"/>
      </g>
     </g>
    </g>
    <g id="xtick_11">
     <g id="line2d_26">
      <path d="M 786.24 242.888276 
L 786.24 150.157241 
" clip-path="url(#p1931815089)" style="fill: none; stroke-dasharray: 1.85,0.8; stroke-dashoffset: 0; stroke: #b2b2b2; stroke-width: 0.5"/>
     </g>
     <g id="line2d_27">
      <g>
       <use xlink:href="#mc0b6ae66d3" x="786.24" y="242.888276" style="stroke: #000000; stroke-width: 0.8"/>
      </g>
     </g>
    </g>
    <g id="xtick_12">
     <g id="line2d_28">
      <path d="M 947.52 242.888276 
L 947.52 150.157241 
" clip-path="url(#p1931815089)" style="fill: none; stroke-dasharray: 1.85,0.8; stroke-dashoffset: 0; stroke: #b2b2b2; stroke-width: 0.5"/>
     </g>
     <g id="line2d_29">
      <g>
       <use xlink:href="#mc0b6ae66d3" x="947.52" y="242.888276" style="stroke: #000000; stroke-width: 0.8"/>
      </g>
     </g>
    </g>
   </g>
   <g id="matplotlib.axis_4">
    <g id="ytick_3">
     <g id="line2d_30">
      <path d="M 100.8 219.158015 
L 987.84 219.158015 
" clip-path="url(#p1931815089)" style="fill: none; stroke-dasharray: 1.85,0.8; stroke-dashoffset: 0; stroke: #b2b2b2; stroke-width: 0.5"/>
     </g>
     <g id="line2d_31">
      <g>
       <use xlink:href="#m8649bf1b4a" x="100.8" y="219.158015" style="stroke: #000000; stroke-width: 0.8"/>
      </g>
     </g>
     <g id="text_4">
      <!-- 0 V -->
      <g transform="translate(74.36625 224.476921) scale(0.14 -0.14)">
       <use xlink:href="#DejaVuSans-30"/>
       <use xlink:href="#DejaVuSans-20" x="63.623047"/>
       <use xlink:href="#DejaVuSans-56" x="95.410156"/>
      </g>
     </g>
    </g>
    <g id="ytick_4">
     <g id="line2d_32">
      <path d="M 100.8 185.185426 
L 987.84 185.185426 
" clip-path="url(#p1931815089)" style="fill: none; stroke-dasharray: 1.85,0.8; stroke-dashoffset: 0; stroke: #b2b2b2; stroke-width: 0.5"/>
     </g>
     <g id="line2d_33">
      <g>
       <use xlink:href="#m8649bf1b4a" x="100.8" y="185.185426" style="stroke: #000000; stroke-width: 0.8"/>
      </g>
     </g>
     <g id="text_5">
      <!-- 1 V -->
      <g transform="translate(74.36625 190.504333) scale(0.14 -0.14)">
       <defs>
        <path id="DejaVuSans-31" d="M 794 531 
L 1825 531 
L 1825 4091 
L 703 3866 
L 703 4441 
L 1819 4666 
L 2450 4666 
L 2450 531 
L 3481 531 
L 3481 0 
L 794 0 
L 794 531 
z
" transform="scale(0.015625)"/>
       </defs>
       <use xlink:href="#DejaVuSans-31"/>
       <use xlink:href="#DejaVuSans-20" x="63.623047"/>
       <use xlink:href="#DejaVuSans-56" x="95.410156"/>
      </g>
     </g>
    </g>
    <g id="ytick_5">
     <g id="line2d_34">
      <path d="M 100.8 151.212838 
L 987.84 151.212838 
" clip-path="url(#p1931815089)" style="fill: none; stroke-dasharray: 1.85,0.8; stroke-dashoffset: 0; stroke: #b2b2b2; stroke-width: 0.5"/>
     </g>
     <g id="line2d_35">
      <g>
       <use xlink:href="#m8649bf1b4a" x="100.8" y="151.212838" style="stroke: #000000; stroke-width: 0.8"/>
      </g>
     </g>
     <g id="text_6">
      <!-- 2 V -->
      <g transform="translate(74.36625 156.531744) scale(0.14 -0.14)">
       <use xlink:href="#DejaVuSans-32"/>
       <use xlink:href="#DejaVuSans-20" x="63.623047"/>
       <use xlink:href="#DejaVuSans-56" x="95.410156"/>
      </g>
     </g>
    </g>
    <g id="text_7">
     <g id="patch_9">
      <path d="M 34.8768 224.531509 
L 34.8768 168.514009 
L 11.247425 168.514009 
L 11.247425 224.531509 
z
" style="fill: #ffff00; opacity: 0.2; stroke: #eeeeee; stroke-width: 0.5; stroke-linejoin: miter"/>
     </g>
     <!-- DFF IN -->
     <g transform="translate(26.925238 219.491509) rotate(-90) scale(0.14 -0.14)">
      <defs>
       <path id="DejaVuSans-44" d="M 1259 4147 
L 1259 519 
L 2022 519 
Q 2988 519 3436 956 
Q 3884 1394 3884 2338 
Q 3884 3275 3436 3711 
Q 2988 4147 2022 4147 
L 1259 4147 
z
M 628 4666 
L 1925 4666 
Q 3281 4666 3915 4102 
Q 4550 3538 4550 2338 
Q 4550 1131 3912 565 
Q 3275 0 1925 0 
L 628 0 
L 628 4666 
z
" transform="scale(0.015625)"/>
       <path id="DejaVuSans-46" d="M 628 4666 
L 3309 4666 
L 3309 4134 
L 1259 4134 
L 1259 2759 
L 3109 2759 
L 3109 2228 
L 1259 2228 
L 1259 0 
L 628 0 
L 628 4666 
z
" transform="scale(0.015625)"/>
       <path id="DejaVuSans-4e" d="M 628 4666 
L 1478 4666 
L 3547 763 
L 3547 4666 
L 4159 4666 
L 4159 0 
L 3309 0 
L 1241 3903 
L 1241 0 
L 628 0 
L 628 4666 
z
" transform="scale(0.015625)"/>
      </defs>
      <use xlink:href="#DejaVuSans-44"/>
      <use xlink:href="#DejaVuSans-46" x="77.001953"/>
      <use xlink:href="#DejaVuSans-46" x="134.521484"/>
      <use xlink:href="#DejaVuSans-20" x="192.041016"/>
      <use xlink:href="#DejaVuSans-49" x="223.828125"/>
      <use xlink:href="#DejaVuSans-4e" x="253.320312"/>
     </g>
    </g>
   </g>
   <g id="line2d_36">
    <path d="M 141.12 219.108401 
L 221.953536 219.061815 
L 224.437248 200.132686 
L 225.404928 194.374332 
L 228.243456 181.713428 
L 229.598208 180.442853 
L 231.178752 179.569757 
L 236.533248 179.114525 
L 243.5328 179.005812 
L 244.952064 178.965045 
L 248.145408 178.856333 
L 249.790464 178.791785 
L 251.887104 178.683073 
L 254.241792 178.336552 
L 254.757888 177.799786 
L 255.499776 177.46006 
L 256.338432 177.473649 
L 259.789824 178.088553 
L 262.467072 178.261813 
L 263.886336 178.309374 
L 264.144384 183.547948 
L 264.434688 187.112352 
L 265.176576 191.8607 
L 267.144192 209.192496 
L 268.402176 215.699945 
L 269.047296 216.982954 
L 270.46656 218.745452 
L 273.724416 219.159849 
L 282.530304 219.112441 
L 297.045504 219.102317 
L 305.851392 219.107586 
L 347.751936 219.06351 
L 350.235648 200.172774 
L 351.622656 191.535922 
L 352.654848 186.245031 
L 354.97728 179.250415 
L 358.493184 178.251621 
L 360.202752 178.322963 
L 363.009024 178.431676 
L 364.33152 178.462251 
L 375.169536 178.533593 
L 375.717888 179.525593 
L 376.169472 180.276387 
L 377.008128 181.183455 
L 377.524224 181.132496 
L 378.427392 180.840332 
L 380.427264 179.702251 
L 381.58848 179.328552 
L 387.168768 178.849539 
L 389.587968 178.740826 
L 391.684608 178.628717 
L 394.232832 178.520004 
L 395.61984 178.482635 
L 415.360512 178.397703 
L 416.489472 177.466854 
L 417.037824 177.402306 
L 417.908736 177.511019 
L 419.16672 177.792991 
L 420.908544 178.047785 
L 423.940608 178.258415 
L 455.712768 178.363731 
L 456.809472 179.253812 
L 457.261056 179.325155 
L 458.68032 179.369319 
L 462.680064 178.839347 
L 464.131584 178.645703 
L 467.486208 178.4011 
L 496.065024 178.319566 
L 496.58112 177.779402 
L 497.258496 177.473649 
L 498.3552 177.46006 
L 502.06464 178.12932 
L 504.193536 178.244826 
L 536.320512 178.350141 
L 536.449536 178.479237 
L 536.965632 179.012607 
L 537.610752 179.297977 
L 539.255808 179.362525 
L 540.707328 179.253812 
L 544.094208 178.652498 
L 546.642432 178.492826 
L 547.642368 178.591347 
L 548.061696 179.352333 
L 549.126144 181.135894 
L 550.93248 183.602304 
L 556.706304 191.678267 
L 557.093376 192.66653 
L 557.835264 195.410836 
L 560.673792 206.982579 
L 561.222144 209.711257 
L 562.802688 215.65714 
L 565.092864 223.198375 
L 565.77024 224.795426 
L 566.286336 225.892741 
L 566.544384 226.121037 
L 566.834688 226.460763 
L 567.124992 227.159239 
L 567.576576 228.369343 
L 569.221632 231.455413 
L 569.350656 231.586207 
L 569.673216 232.380486 
L 570.1248 233.235576 
L 570.415104 233.70134 
L 570.802176 234.273439 
L 571.156992 235.131247 
L 571.544064 235.7098 
L 571.834368 236.09369 
L 572.576256 237.486227 
L 573.318144 238.608681 
L 573.576192 238.588297 
L 573.99552 238.111662 
L 574.31808 237.72947 
L 574.608384 237.254534 
L 575.027712 236.461613 
L 576.188928 235.129888 
L 576.866304 234.053976 
L 577.05984 234.028497 
L 578.83392 232.259204 
L 579.027456 232.033286 
L 579.091968 231.980289 
L 579.31776 231.653473 
L 579.350016 231.668761 
L 579.608064 231.587906 
L 580.543488 230.930536 
L 581.607936 229.79823 
L 581.801472 229.574011 
L 581.89824 229.469375 
L 582.124032 229.163622 
L 582.156288 229.182307 
L 582.285312 229.199293 
L 583.059456 228.73217 
L 584.898048 226.988357 
L 585.156096 226.709102 
L 585.543168 226.60005 
L 585.962496 226.306867 
L 587.478528 225.0509 
L 587.897856 224.399306 
L 588.252672 224.281421 
L 588.704256 224.164895 
L 589.381632 223.705925 
L 593.252352 220.471022 
L 594.252288 219.121379 
L 595.1232 217.922262 
L 596.316672 216.213815 
L 598.252032 213.645623 
L 599.703552 211.8641 
L 601.638912 209.792112 
L 601.961472 209.19929 
L 602.606592 207.272025 
L 603.83232 203.724947 
L 604.896768 201.316291 
L 605.92896 199.662166 
L 606.606336 198.703459 
L 607.154688 198.096709 
L 608.961024 195.804238 
L 609.541632 195.033061 
L 610.28352 194.146716 
L 611.41248 193.114968 
L 611.993088 192.436536 
L 612.283392 191.757424 
L 613.057536 188.878926 
L 613.99296 185.786741 
L 614.863872 183.673646 
L 615.670272 182.226414 
L 616.508928 181.26499 
L 617.21856 180.802962 
L 618.315264 180.225428 
L 618.67008 179.875511 
L 620.250624 178.05458 
L 623.153664 174.21228 
L 624.282624 172.303021 
L 626.830848 168.477707 
L 632.959488 160.5553 
L 635.217408 157.650643 
L 637.926912 154.38248 
L 639.346176 154.718809 
L 643.120128 155.225 
L 646.119936 155.969 
L 657.345024 159.417218 
L 657.69984 158.72078 
L 658.119168 158.438807 
L 658.441728 158.513547 
L 658.893312 158.809108 
L 660.667392 160.51793 
L 661.957632 161.469162 
L 666.989568 163.996723 
L 670.376448 165.304667 
L 671.182848 165.583243 
L 672.795648 166.14379 
L 683.891712 169.537652 
L 684.569088 169.710912 
L 685.310976 169.907953 
L 688.6656 170.723295 
L 689.278464 170.862583 
L 690.504192 171.137761 
L 691.020288 171.246473 
L 697.69728 172.710692 
L 698.148864 173.430911 
L 698.729472 173.82839 
L 700.213248 173.875952 
L 701.793792 173.488664 
L 702.503424 173.458089 
L 703.245312 173.488664 
L 704.245248 173.587185 
L 708.599808 174.154527 
L 709.95456 174.327787 
L 710.954496 174.436499 
L 712.276992 174.602965 
L 713.276928 174.70828 
L 714.567168 174.867951 
L 715.534848 174.976663 
L 723.727872 175.730855 
L 725.082624 175.83617 
L 725.630976 175.900718 
L 727.308288 176.00943 
L 728.114688 176.067184 
L 731.114496 176.277814 
L 731.791872 176.315183 
L 734.372352 176.481649 
L 735.049728 176.519019 
L 736.952832 176.627731 
L 737.952768 176.651512 
L 738.404352 176.124937 
L 739.017216 175.808992 
L 740.178432 175.917704 
L 741.371904 176.281211 
L 742.146048 176.491841 
L 744.532992 176.885923 
L 745.855488 176.994635 
L 746.597376 177.042197 
L 747.242496 177.079567 
L 749.274624 177.184882 
L 751.629312 177.293594 
L 753.048576 177.337758 
L 753.82272 177.361539 
L 755.27424 177.409101 
L 756.08064 177.432882 
L 759.79008 177.541594 
L 761.112576 177.572169 
L 766.176768 177.680881 
L 767.467008 177.70806 
L 768.208896 177.738635 
L 774.78912 177.847347 
L 776.111616 177.877923 
L 778.305024 177.952662 
L 778.917888 178.618525 
L 779.563008 178.900497 
L 780.43392 178.975237 
L 781.304832 178.778196 
L 782.304768 178.47584 
L 783.0144 178.367128 
L 784.046592 178.261813 
L 785.820672 178.183676 
L 786.272256 178.170087 
L 798.465024 178.061374 
L 799.529472 178.057977 
L 818.625024 177.97984 
L 819.108864 177.446471 
L 819.818496 177.120334 
L 820.9152 177.110142 
L 824.882688 177.833758 
L 826.56 177.901703 
L 858.880512 178.010416 
L 859.041792 178.19047 
L 859.557888 178.710251 
L 859.94496 178.893703 
L 860.557824 179.032991 
L 862.912512 178.927675 
L 865.202688 178.557374 
L 870.653952 178.09195 
L 899.232768 178.024005 
L 899.78112 177.409101 
L 900.329472 177.133923 
L 902.264832 177.242635 
L 905.522688 177.816772 
L 907.619328 177.928881 
L 939.552768 178.024005 
L 940.617216 178.890306 
L 941.55264 179.077155 
L 943.455744 178.968443 
L 944.810496 178.717045 
L 947.03616 178.360333 
L 947.52 178.285594 
L 947.52 178.285594 
" clip-path="url(#p1931815089)" style="fill: none; stroke: #008000; stroke-width: 2; stroke-linecap: square"/>
   </g>
   <g id="patch_10">
    <path d="M 100.8 242.888276 
L 100.8 150.157241 
" style="fill: none; stroke: #bcbcbc; stroke-width: 0.8; stroke-linejoin: miter; stroke-linecap: square"/>
   </g>
   <g id="patch_11">
    <path d="M 987.84 242.888276 
L 987.84 150.157241 
" style="fill: none; stroke: #bcbcbc; stroke-width: 0.8; stroke-linejoin: miter; stroke-linecap: square"/>
   </g>
   <g id="patch_12">
    <path d="M 100.8 242.888276 
L 987.84 242.888276 
" style="fill: none; stroke: #bcbcbc; stroke-width: 0.8; stroke-linejoin: miter; stroke-linecap: square"/>
   </g>
   <g id="patch_13">
    <path d="M 100.8 150.157241 
L 987.84 150.157241 
" style="fill: none; stroke: #bcbcbc; stroke-width: 0.8; stroke-linejoin: miter; stroke-linecap: square"/>
   </g>
  </g>
  <g id="axes_3">
   <g id="patch_14">
    <path d="M 100.8 354.165517 
L 987.84 354.165517 
L 987.84 261.434483 
L 100.8 261.434483 
z
" style="fill: #eeeeee"/>
   </g>
   <g id="matplotlib.axis_5">
    <g id="xtick_13">
     <g id="line2d_37">
      <path d="M 141.12 354.165517 
L 141.12 261.434483 
" clip-path="url(#p201e1842ad)" style="fill: none; stroke-dasharray: 1.85,0.8; stroke-dashoffset: 0; stroke: #b2b2b2; stroke-width: 0.5"/>
     </g>
     <g id="line2d_38">
      <g>
       <use xlink:href="#mc0b6ae66d3" x="141.12" y="354.165517" style="stroke: #000000; stroke-width: 0.8"/>
      </g>
     </g>
    </g>
    <g id="xtick_14">
     <g id="line2d_39">
      <path d="M 302.4 354.165517 
L 302.4 261.434483 
" clip-path="url(#p201e1842ad)" style="fill: none; stroke-dasharray: 1.85,0.8; stroke-dashoffset: 0; stroke: #b2b2b2; stroke-width: 0.5"/>
     </g>
     <g id="line2d_40">
      <g>
       <use xlink:href="#mc0b6ae66d3" x="302.4" y="354.165517" style="stroke: #000000; stroke-width: 0.8"/>
      </g>
     </g>
    </g>
    <g id="xtick_15">
     <g id="line2d_41">
      <path d="M 463.68 354.165517 
L 463.68 261.434483 
" clip-path="url(#p201e1842ad)" style="fill: none; stroke-dasharray: 1.85,0.8; stroke-dashoffset: 0; stroke: #b2b2b2; stroke-width: 0.5"/>
     </g>
     <g id="line2d_42">
      <g>
       <use xlink:href="#mc0b6ae66d3" x="463.68" y="354.165517" style="stroke: #000000; stroke-width: 0.8"/>
      </g>
     </g>
    </g>
    <g id="xtick_16">
     <g id="line2d_43">
      <path d="M 624.96 354.165517 
L 624.96 261.434483 
" clip-path="url(#p201e1842ad)" style="fill: none; stroke-dasharray: 1.85,0.8; stroke-dashoffset: 0; stroke: #b2b2b2; stroke-width: 0.5"/>
     </g>
     <g id="line2d_44">
      <g>
       <use xlink:href="#mc0b6ae66d3" x="624.96" y="354.165517" style="stroke: #000000; stroke-width: 0.8"/>
      </g>
     </g>
    </g>
    <g id="xtick_17">
     <g id="line2d_45">
      <path d="M 786.24 354.165517 
L 786.24 261.434483 
" clip-path="url(#p201e1842ad)" style="fill: none; stroke-dasharray: 1.85,0.8; stroke-dashoffset: 0; stroke: #b2b2b2; stroke-width: 0.5"/>
     </g>
     <g id="line2d_46">
      <g>
       <use xlink:href="#mc0b6ae66d3" x="786.24" y="354.165517" style="stroke: #000000; stroke-width: 0.8"/>
      </g>
     </g>
    </g>
    <g id="xtick_18">
     <g id="line2d_47">
      <path d="M 947.52 354.165517 
L 947.52 261.434483 
" clip-path="url(#p201e1842ad)" style="fill: none; stroke-dasharray: 1.85,0.8; stroke-dashoffset: 0; stroke: #b2b2b2; stroke-width: 0.5"/>
     </g>
     <g id="line2d_48">
      <g>
       <use xlink:href="#mc0b6ae66d3" x="947.52" y="354.165517" style="stroke: #000000; stroke-width: 0.8"/>
      </g>
     </g>
    </g>
   </g>
   <g id="matplotlib.axis_6">
    <g id="ytick_6">
     <g id="line2d_49">
      <path d="M 100.8 344.29631 
L 987.84 344.29631 
" clip-path="url(#p201e1842ad)" style="fill: none; stroke-dasharray: 1.85,0.8; stroke-dashoffset: 0; stroke: #b2b2b2; stroke-width: 0.5"/>
     </g>
     <g id="line2d_50">
      <g>
       <use xlink:href="#m8649bf1b4a" x="100.8" y="344.29631" style="stroke: #000000; stroke-width: 0.8"/>
      </g>
     </g>
     <g id="text_8">
      <!-- 0 V -->
      <g transform="translate(74.36625 349.615217) scale(0.14 -0.14)">
       <use xlink:href="#DejaVuSans-30"/>
       <use xlink:href="#DejaVuSans-20" x="63.623047"/>
       <use xlink:href="#DejaVuSans-56" x="95.410156"/>
      </g>
     </g>
    </g>
    <g id="ytick_7">
     <g id="line2d_51">
      <path d="M 100.8 299.666427 
L 987.84 299.666427 
" clip-path="url(#p201e1842ad)" style="fill: none; stroke-dasharray: 1.85,0.8; stroke-dashoffset: 0; stroke: #b2b2b2; stroke-width: 0.5"/>
     </g>
     <g id="line2d_52">
      <g>
       <use xlink:href="#m8649bf1b4a" x="100.8" y="299.666427" style="stroke: #000000; stroke-width: 0.8"/>
      </g>
     </g>
     <g id="text_9">
      <!-- 1 V -->
      <g transform="translate(74.36625 304.985333) scale(0.14 -0.14)">
       <use xlink:href="#DejaVuSans-31"/>
       <use xlink:href="#DejaVuSans-20" x="63.623047"/>
       <use xlink:href="#DejaVuSans-56" x="95.410156"/>
      </g>
     </g>
    </g>
    <g id="text_10">
     <g id="patch_15">
      <path d="M 34.8768 342.395313 
L 34.8768 273.204688 
L 11.247425 273.204688 
L 11.247425 342.395313 
z
" style="fill: #ffff00; opacity: 0.2; stroke: #eeeeee; stroke-width: 0.5; stroke-linejoin: miter"/>
     </g>
     <!-- CLK BUF -->
     <g transform="translate(26.925238 337.355313) rotate(-90) scale(0.14 -0.14)">
      <defs>
       <path id="DejaVuSans-43" d="M 4122 4306 
L 4122 3641 
Q 3803 3938 3442 4084 
Q 3081 4231 2675 4231 
Q 1875 4231 1450 3742 
Q 1025 3253 1025 2328 
Q 1025 1406 1450 917 
Q 1875 428 2675 428 
Q 3081 428 3442 575 
Q 3803 722 4122 1019 
L 4122 359 
Q 3791 134 3420 21 
Q 3050 -91 2638 -91 
Q 1578 -91 968 557 
Q 359 1206 359 2328 
Q 359 3453 968 4101 
Q 1578 4750 2638 4750 
Q 3056 4750 3426 4639 
Q 3797 4528 4122 4306 
z
" transform="scale(0.015625)"/>
       <path id="DejaVuSans-4b" d="M 628 4666 
L 1259 4666 
L 1259 2694 
L 3353 4666 
L 4166 4666 
L 1850 2491 
L 4331 0 
L 3500 0 
L 1259 2247 
L 1259 0 
L 628 0 
L 628 4666 
z
" transform="scale(0.015625)"/>
      </defs>
      <use xlink:href="#DejaVuSans-43"/>
      <use xlink:href="#DejaVuSans-4c" x="69.824219"/>
      <use xlink:href="#DejaVuSans-4b" x="125.537109"/>
      <use xlink:href="#DejaVuSans-20" x="191.113281"/>
      <use xlink:href="#DejaVuSans-42" x="222.900391"/>
      <use xlink:href="#DejaVuSans-55" x="291.503906"/>
      <use xlink:href="#DejaVuSans-46" x="364.697266"/>
     </g>
    </g>
   </g>
   <g id="line2d_53">
    <path d="M 141.12 344.29513 
L 173.376 344.29513 
L 173.601792 290.74045 
L 213.696 290.74045 
L 213.760512 333.459728 
L 213.825024 344.275921 
L 213.889536 344.211696 
L 213.954048 344.389988 
L 214.01856 344.301147 
L 215.3088 344.292228 
L 223.147008 344.295119 
L 254.016 344.295099 
L 254.17728 290.57532 
L 254.241792 290.860951 
L 254.403072 290.731524 
L 254.8224 290.74045 
L 294.336 290.74045 
L 294.400512 333.422239 
L 294.465024 344.629343 
L 294.529536 343.853394 
L 294.626304 344.366446 
L 294.65856 344.334688 
L 294.852096 344.256244 
L 295.206912 344.312551 
L 295.497216 344.294783 
L 319.785984 344.29513 
L 334.656 344.295132 
L 334.81728 290.660116 
L 334.881792 290.758302 
L 335.172096 290.744913 
L 374.976 290.74045 
L 375.040512 333.463745 
L 375.105024 344.297034 
L 375.169536 344.206037 
L 375.234048 344.383347 
L 375.29856 344.301295 
L 376.653312 344.291826 
L 384.749568 344.295088 
L 415.296 344.295132 
L 415.45728 290.57532 
L 415.521792 290.860951 
L 415.683072 290.727061 
L 416.58624 290.74045 
L 455.616 290.74045 
L 455.680512 333.424917 
L 455.745024 344.634841 
L 455.809536 343.647258 
L 455.906304 344.95112 
L 455.93856 344.368901 
L 456.132096 344.269506 
L 456.519168 344.295593 
L 488.807424 344.295128 
L 495.936 344.29513 
L 496.09728 290.65119 
L 496.161792 290.758302 
L 497.097216 290.74045 
L 536.256 290.74045 
L 536.320512 333.424917 
L 536.385024 344.634792 
L 536.449536 343.647347 
L 536.546304 344.951031 
L 536.57856 344.368896 
L 536.772096 344.269509 
L 537.159168 344.295593 
L 547.577856 344.34668 
L 548.67456 345.295841 
L 549.545472 345.628378 
L 550.706688 345.814173 
L 552.674304 345.867684 
L 558.157824 345.711122 
L 565.641216 345.566834 
L 567.189504 346.098867 
L 567.641088 346.37276 
L 570.157056 347.922354 
L 570.382848 348.082353 
L 570.76992 348.345267 
L 573.479424 349.882186 
L 574.511616 349.370282 
L 576.576 348.575468 
L 576.608256 349.916998 
L 576.801792 325.111709 
L 576.963072 324.926048 
L 578.51136 324.338719 
L 578.704896 324.218665 
L 578.83392 324.205276 
L 581.25312 323.319819 
L 587.575296 321.02495 
L 587.607552 321.161518 
L 587.672064 320.978981 
L 587.801088 321.060208 
L 587.962368 320.927211 
L 593.123328 318.958587 
L 593.99424 318.446236 
L 596.058624 317.119835 
L 601.800192 313.280327 
L 604.864512 311.415244 
L 607.638528 309.855876 
L 612.186624 307.35571 
L 613.605888 304.56411 
L 616.379904 298.273975 
L 616.896 297.082357 
L 616.928256 296.283482 
L 617.05728 342.208703 
L 617.283072 342.337772 
L 618.83136 342.392533 
L 632.05632 342.830665 
L 634.15296 342.806431 
L 637.894656 342.983924 
L 638.572032 343.690281 
L 639.31392 344.132804 
L 640.249344 344.430155 
L 641.604096 344.614758 
L 644.023296 344.697163 
L 655.11936 344.64304 
L 657.216 344.641692 
L 657.248256 334.839238 
L 657.345024 265.64953 
L 657.37728 266.086903 
L 657.570816 266.207403 
L 658.312704 266.631387 
L 659.054592 267.104464 
L 659.731968 267.50167 
L 662.0544 268.907511 
L 662.602752 269.21992 
L 663.280128 269.617126 
L 669.408768 272.884034 
L 671.053824 273.682909 
L 672.408576 274.307727 
L 684.762624 279.319663 
L 685.052928 279.422312 
L 686.2464 279.810592 
L 686.504448 279.913241 
L 687.601152 280.256891 
L 687.955968 280.359539 
L 689.14944 280.747819 
L 689.504256 280.846005 
L 689.95584 280.970969 
L 697.536 283.023943 
L 697.568256 292.788962 
L 697.69728 344.51713 
L 697.955328 344.501286 
L 730.211328 344.371016 
L 734.501376 344.361452 
L 737.856 344.355762 
L 738.01728 288.58929 
L 738.081792 288.602679 
L 738.597888 288.642846 
L 740.404224 288.745494 
L 740.75904 288.776735 
L 742.629888 288.879384 
L 742.984704 288.910625 
L 744.95232 289.013274 
L 745.307136 289.044515 
L 747.565056 289.147163 
L 747.919872 289.178404 
L 750.27456 289.281053 
L 750.629376 289.312294 
L 753.371136 289.414943 
L 753.725952 289.446184 
L 756.758016 289.548832 
L 757.112832 289.580073 
L 760.531968 289.682722 
L 760.886784 289.713963 
L 764.78976 289.816612 
L 765.144576 289.847853 
L 769.724928 289.950501 
L 770.079744 289.981742 
L 775.627776 290.084391 
L 775.982592 290.115632 
L 778.176 290.160262 
L 778.208256 294.462582 
L 778.272768 344.425054 
L 778.33728 344.152245 
L 778.434048 344.455474 
L 778.49856 344.318931 
L 779.272704 344.311072 
L 818.496 344.307919 
L 818.65728 290.204892 
L 818.721792 290.312003 
L 819.657216 290.294151 
L 858.816 290.294151 
L 858.945024 344.637354 
L 859.106304 344.377586 
L 859.364352 344.278091 
L 859.719168 344.326675 
L 860.041728 344.307678 
L 896.458752 344.307909 
L 899.136 344.307911 
L 899.29728 290.062076 
L 899.361792 290.566394 
L 899.45856 290.106706 
L 899.523072 290.276299 
L 899.974656 290.294151 
L 939.456 290.294151 
L 939.488256 298.340919 
L 939.61728 344.254868 
L 939.649536 344.384664 
L 939.714048 344.260467 
L 939.746304 344.221292 
L 939.810816 344.278887 
L 940.004352 344.334616 
L 940.197888 344.307172 
L 945.455616 344.307917 
L 947.52 344.307901 
L 947.52 344.307901 
" clip-path="url(#p201e1842ad)" style="fill: none; stroke: #0000ff; stroke-width: 2; stroke-linecap: square"/>
   </g>
   <g id="patch_16">
    <path d="M 100.8 354.165517 
L 100.8 261.434483 
" style="fill: none; stroke: #bcbcbc; stroke-width: 0.8; stroke-linejoin: miter; stroke-linecap: square"/>
   </g>
   <g id="patch_17">
    <path d="M 987.84 354.165517 
L 987.84 261.434483 
" style="fill: none; stroke: #bcbcbc; stroke-width: 0.8; stroke-linejoin: miter; stroke-linecap: square"/>
   </g>
   <g id="patch_18">
    <path d="M 100.8 354.165517 
L 987.84 354.165517 
" style="fill: none; stroke: #bcbcbc; stroke-width: 0.8; stroke-linejoin: miter; stroke-linecap: square"/>
   </g>
   <g id="patch_19">
    <path d="M 100.8 261.434483 
L 987.84 261.434483 
" style="fill: none; stroke: #bcbcbc; stroke-width: 0.8; stroke-linejoin: miter; stroke-linecap: square"/>
   </g>
  </g>
  <g id="axes_4">
   <g id="patch_20">
    <path d="M 100.8 465.442759 
L 987.84 465.442759 
L 987.84 372.711724 
L 100.8 372.711724 
z
" style="fill: #eeeeee"/>
   </g>
   <g id="matplotlib.axis_7">
    <g id="xtick_19">
     <g id="line2d_54">
      <path d="M 141.12 465.442759 
L 141.12 372.711724 
" clip-path="url(#p5c7cf724e3)" style="fill: none; stroke-dasharray: 1.85,0.8; stroke-dashoffset: 0; stroke: #b2b2b2; stroke-width: 0.5"/>
     </g>
     <g id="line2d_55">
      <g>
       <use xlink:href="#mc0b6ae66d3" x="141.12" y="465.442759" style="stroke: #000000; stroke-width: 0.8"/>
      </g>
     </g>
    </g>
    <g id="xtick_20">
     <g id="line2d_56">
      <path d="M 302.4 465.442759 
L 302.4 372.711724 
" clip-path="url(#p5c7cf724e3)" style="fill: none; stroke-dasharray: 1.85,0.8; stroke-dashoffset: 0; stroke: #b2b2b2; stroke-width: 0.5"/>
     </g>
     <g id="line2d_57">
      <g>
       <use xlink:href="#mc0b6ae66d3" x="302.4" y="465.442759" style="stroke: #000000; stroke-width: 0.8"/>
      </g>
     </g>
    </g>
    <g id="xtick_21">
     <g id="line2d_58">
      <path d="M 463.68 465.442759 
L 463.68 372.711724 
" clip-path="url(#p5c7cf724e3)" style="fill: none; stroke-dasharray: 1.85,0.8; stroke-dashoffset: 0; stroke: #b2b2b2; stroke-width: 0.5"/>
     </g>
     <g id="line2d_59">
      <g>
       <use xlink:href="#mc0b6ae66d3" x="463.68" y="465.442759" style="stroke: #000000; stroke-width: 0.8"/>
      </g>
     </g>
    </g>
    <g id="xtick_22">
     <g id="line2d_60">
      <path d="M 624.96 465.442759 
L 624.96 372.711724 
" clip-path="url(#p5c7cf724e3)" style="fill: none; stroke-dasharray: 1.85,0.8; stroke-dashoffset: 0; stroke: #b2b2b2; stroke-width: 0.5"/>
     </g>
     <g id="line2d_61">
      <g>
       <use xlink:href="#mc0b6ae66d3" x="624.96" y="465.442759" style="stroke: #000000; stroke-width: 0.8"/>
      </g>
     </g>
    </g>
    <g id="xtick_23">
     <g id="line2d_62">
      <path d="M 786.24 465.442759 
L 786.24 372.711724 
" clip-path="url(#p5c7cf724e3)" style="fill: none; stroke-dasharray: 1.85,0.8; stroke-dashoffset: 0; stroke: #b2b2b2; stroke-width: 0.5"/>
     </g>
     <g id="line2d_63">
      <g>
       <use xlink:href="#mc0b6ae66d3" x="786.24" y="465.442759" style="stroke: #000000; stroke-width: 0.8"/>
      </g>
     </g>
    </g>
    <g id="xtick_24">
     <g id="line2d_64">
      <path d="M 947.52 465.442759 
L 947.52 372.711724 
" clip-path="url(#p5c7cf724e3)" style="fill: none; stroke-dasharray: 1.85,0.8; stroke-dashoffset: 0; stroke: #b2b2b2; stroke-width: 0.5"/>
     </g>
     <g id="line2d_65">
      <g>
       <use xlink:href="#mc0b6ae66d3" x="947.52" y="465.442759" style="stroke: #000000; stroke-width: 0.8"/>
      </g>
     </g>
    </g>
   </g>
   <g id="matplotlib.axis_8">
    <g id="ytick_8">
     <g id="line2d_66">
      <path d="M 100.8 440.35286 
L 987.84 440.35286 
" clip-path="url(#p5c7cf724e3)" style="fill: none; stroke-dasharray: 1.85,0.8; stroke-dashoffset: 0; stroke: #b2b2b2; stroke-width: 0.5"/>
     </g>
     <g id="line2d_67">
      <g>
       <use xlink:href="#m8649bf1b4a" x="100.8" y="440.35286" style="stroke: #000000; stroke-width: 0.8"/>
      </g>
     </g>
     <g id="text_11">
      <!-- 0 V -->
      <g transform="translate(74.36625 445.671766) scale(0.14 -0.14)">
       <use xlink:href="#DejaVuSans-30"/>
       <use xlink:href="#DejaVuSans-20" x="63.623047"/>
       <use xlink:href="#DejaVuSans-56" x="95.410156"/>
      </g>
     </g>
    </g>
    <g id="ytick_9">
     <g id="line2d_68">
      <path d="M 100.8 403.886414 
L 987.84 403.886414 
" clip-path="url(#p5c7cf724e3)" style="fill: none; stroke-dasharray: 1.85,0.8; stroke-dashoffset: 0; stroke: #b2b2b2; stroke-width: 0.5"/>
     </g>
     <g id="line2d_69">
      <g>
       <use xlink:href="#m8649bf1b4a" x="100.8" y="403.886414" style="stroke: #000000; stroke-width: 0.8"/>
      </g>
     </g>
     <g id="text_12">
      <!-- 1 V -->
      <g transform="translate(74.36625 409.20532) scale(0.14 -0.14)">
       <use xlink:href="#DejaVuSans-31"/>
       <use xlink:href="#DejaVuSans-20" x="63.623047"/>
       <use xlink:href="#DejaVuSans-56" x="95.410156"/>
      </g>
     </g>
    </g>
    <g id="text_13">
     <g id="patch_21">
      <path d="M 34.8768 454.693023 
L 34.8768 383.46146 
L 11.247425 383.46146 
L 11.247425 454.693023 
z
" style="fill: #ffff00; opacity: 0.2; stroke: #eeeeee; stroke-width: 0.5; stroke-linejoin: miter"/>
     </g>
     <!-- DFF OUT -->
     <g transform="translate(26.925238 449.653023) rotate(-90) scale(0.14 -0.14)">
      <defs>
       <path id="DejaVuSans-4f" d="M 2522 4238 
Q 1834 4238 1429 3725 
Q 1025 3213 1025 2328 
Q 1025 1447 1429 934 
Q 1834 422 2522 422 
Q 3209 422 3611 934 
Q 4013 1447 4013 2328 
Q 4013 3213 3611 3725 
Q 3209 4238 2522 4238 
z
M 2522 4750 
Q 3503 4750 4090 4092 
Q 4678 3434 4678 2328 
Q 4678 1225 4090 567 
Q 3503 -91 2522 -91 
Q 1538 -91 948 565 
Q 359 1222 359 2328 
Q 359 3434 948 4092 
Q 1538 4750 2522 4750 
z
" transform="scale(0.015625)"/>
       <path id="DejaVuSans-54" d="M -19 4666 
L 3928 4666 
L 3928 4134 
L 2272 4134 
L 2272 0 
L 1638 0 
L 1638 4134 
L -19 4134 
L -19 4666 
z
" transform="scale(0.015625)"/>
      </defs>
      <use xlink:href="#DejaVuSans-44"/>
      <use xlink:href="#DejaVuSans-46" x="77.001953"/>
      <use xlink:href="#DejaVuSans-46" x="134.521484"/>
      <use xlink:href="#DejaVuSans-20" x="192.041016"/>
      <use xlink:href="#DejaVuSans-4f" x="223.828125"/>
      <use xlink:href="#DejaVuSans-55" x="302.539062"/>
      <use xlink:href="#DejaVuSans-54" x="375.732422"/>
     </g>
    </g>
   </g>
   <g id="line2d_70">
    <path d="M 141.12 412.837833 
L 173.408256 412.882322 
L 173.440512 414.392032 
L 173.601792 440.355085 
L 174.1824 440.351497 
L 185.278464 440.351886 
L 254.048256 440.353415 
L 254.080512 440.499192 
L 254.112768 440.258058 
L 254.306304 436.697828 
L 254.596608 435.984179 
L 254.693376 435.475108 
L 255.14496 429.086187 
L 255.370752 414.070034 
L 255.596544 396.94685 
L 255.757824 396.647825 
L 255.983616 396.589479 
L 256.983552 396.593125 
L 295.755264 396.666058 
L 296.239104 399.025437 
L 296.59392 398.434681 
L 297.980928 396.884857 
L 299.65824 396.618652 
L 334.688256 396.607712 
L 334.720512 396.501959 
L 334.752768 397.038016 
L 334.785024 399.689126 
L 334.914048 440.337911 
L 334.97856 440.305818 
L 335.13984 440.345217 
L 335.559168 440.352119 
L 369.686016 440.351854 
L 415.328256 440.353393 
L 415.360512 440.498685 
L 415.392768 440.260078 
L 415.586304 436.612861 
L 415.876608 435.775956 
L 415.908864 435.675673 
L 416.1024 431.351118 
L 416.521728 418.761442 
L 416.9088 396.713464 
L 417.102336 396.596772 
L 418.36032 396.563952 
L 495.968256 396.607712 
L 496.000512 396.731698 
L 496.065024 396.563952 
L 496.355328 396.585832 
L 547.642368 396.684291 
L 549.255168 398.660773 
L 551.061504 401.311883 
L 555.512832 408.040672 
L 556.157952 409.49313 
L 558.577152 418.798273 
L 558.609408 418.975135 
L 558.67392 418.82927 
L 558.770688 418.978417 
L 558.867456 419.733637 
L 559.060992 420.863003 
L 562.8672 436.762045 
L 562.899456 436.636929 
L 562.931712 437.014174 
L 563.02848 436.853612 
L 563.18976 437.673889 
L 563.383296 438.752274 
L 563.544576 439.364655 
L 563.609088 439.188194 
L 563.641344 439.176999 
L 563.802624 440.32782 
L 563.83488 439.987612 
L 563.867136 440.520598 
L 564.125184 441.529632 
L 564.286464 442.090267 
L 564.350976 441.908919 
L 564.383232 441.907679 
L 564.576768 443.101153 
L 565.221888 444.935233 
L 565.254144 444.609952 
L 565.318656 445.062866 
L 565.350912 444.797025 
L 565.383168 444.960395 
L 565.576704 445.782349 
L 565.641216 445.943895 
L 565.673472 445.739683 
L 565.737984 445.945354 
L 565.899264 446.496362 
L 566.318592 447.328891 
L 566.350848 447.267627 
L 566.41536 447.314304 
L 566.447616 447.54696 
L 566.544384 447.484967 
L 566.866944 448.175277 
L 566.931456 448.542129 
L 566.995968 448.367455 
L 567.124992 448.665021 
L 567.286272 449.311936 
L 568.286208 451.509404 
L 568.35072 451.421155 
L 568.866816 452.7303 
L 568.899072 452.678883 
L 568.931328 452.793752 
L 568.99584 453.017656 
L 569.15712 453.131796 
L 569.189376 453.415505 
L 569.286144 453.366275 
L 571.640832 458.151038 
L 571.673088 458.074458 
L 571.7376 458.204279 
L 571.995648 458.688553 
L 572.22144 459.232268 
L 573.382656 461.227712 
L 573.414912 461.138369 
L 573.608448 460.967706 
L 573.640704 461.026052 
L 573.67296 460.88748 
L 574.382592 459.673876 
L 574.414848 459.730399 
L 574.447104 459.610425 
L 574.672896 459.11047 
L 575.027712 458.52883 
L 575.059968 458.640782 
L 575.092224 458.576236 
L 575.221248 458.220324 
L 575.253504 458.323889 
L 575.28576 458.265907 
L 575.479296 457.732767 
L 575.576064 457.72511 
L 575.705088 457.614616 
L 576.866304 456.074638 
L 576.930816 456.17565 
L 577.05984 455.917103 
L 577.124352 455.932054 
L 577.253376 455.685906 
L 577.285632 455.762485 
L 577.317888 455.732218 
L 577.350144 455.606044 
L 577.446912 455.634124 
L 577.737216 455.325982 
L 578.285568 454.733402 
L 578.446848 454.343576 
L 578.479104 454.40958 
L 578.51136 454.28523 
L 578.608128 454.184947 
L 578.640384 454.364362 
L 578.67264 454.223237 
L 578.83392 453.938434 
L 579.027456 453.764489 
L 579.059712 453.864772 
L 579.091968 453.693744 
L 579.31776 453.476404 
L 579.350016 453.660195 
L 579.414528 453.396178 
L 579.543552 453.438479 
L 579.672576 453.215304 
L 579.898368 453.057405 
L 580.349952 452.700763 
L 581.156352 451.641048 
L 581.188608 451.890843 
L 581.25312 451.531284 
L 581.285376 451.610781 
L 581.317632 451.428448 
L 581.349888 451.435377 
L 581.382144 451.706687 
L 581.4144 451.354422 
L 581.478912 451.614427 
L 581.607936 451.180112 
L 581.640192 451.165525 
L 581.672448 451.356974 
L 581.73696 451.089675 
L 581.769216 451.334 
L 581.930496 450.917189 
L 582.124032 450.778252 
L 582.156288 450.977723 
L 582.2208 450.83988 
L 582.253056 450.84535 
L 582.38208 450.632021 
L 582.672384 450.512776 
L 583.091712 450.092318 
L 583.382016 449.786 
L 583.543296 449.393621 
L 583.575552 449.346579 
L 583.607808 449.60075 
L 583.67232 449.23718 
L 583.704576 449.479317 
L 583.769088 449.143826 
L 583.930368 449.026768 
L 583.962624 449.295526 
L 583.99488 448.863034 
L 584.027136 448.920651 
L 584.059392 449.085479 
L 584.091648 448.973527 
L 584.252928 448.686901 
L 584.31744 448.643506 
L 584.381952 448.901324 
L 584.510976 448.425437 
L 584.543232 448.637307 
L 584.607744 448.337917 
L 584.64 448.561456 
L 584.833536 448.325519 
L 584.865792 448.46008 
L 584.898048 448.163972 
L 585.059328 448.111096 
L 585.93024 447.549148 
L 586.220544 447.216939 
L 586.317312 446.903327 
L 586.349568 446.956933 
L 586.381824 447.121761 
L 586.41408 446.797574 
L 586.57536 446.5744 
L 586.833408 446.342838 
L 586.865664 446.465365 
L 586.89792 446.362894 
L 586.962432 446.208277 
L 587.091456 446.488704 
L 587.123712 446.064599 
L 587.22048 446.163423 
L 587.284992 446.244014 
L 587.317248 445.876432 
L 587.349504 446.192232 
L 587.414016 445.855646 
L 587.768832 445.649246 
L 588.155904 445.512497 
L 588.51072 445.381218 
L 588.768768 445.131423 
L 589.704192 444.108174 
L 589.736448 443.823079 
L 589.768704 444.274826 
L 589.929984 444.081189 
L 590.12352 443.472528 
L 590.155776 443.481352 
L 590.188032 443.918913 
L 590.220288 443.373266 
L 590.252544 443.394161 
L 590.349312 443.334028 
L 590.381568 443.669337 
L 590.478336 443.548742 
L 590.575104 443.597717 
L 590.60736 443.122997 
L 590.736384 443.068005 
L 590.76864 443.426397 
L 590.833152 443.257521 
L 591.026688 442.944056 
L 591.058944 443.162526 
L 591.0912 442.918566 
L 591.123456 442.926078 
L 591.510528 442.814892 
L 592.704 441.721664 
L 592.897536 441.068185 
L 592.962048 441.396748 
L 592.994304 441.127115 
L 593.091072 440.873491 
L 593.123328 441.057865 
L 593.155584 440.86153 
L 593.18784 441.045759 
L 593.284608 440.462915 
L 593.316864 440.500374 
L 593.34912 440.67251 
L 593.413632 440.618685 
L 593.542656 440.368734 
L 593.574912 440.380935 
L 593.639424 440.384787 
L 593.67168 440.335381 
L 594.510336 438.985988 
L 594.63936 438.172604 
L 594.671616 438.201558 
L 594.703872 438.52848 
L 594.736128 438.056276 
L 594.768384 438.065247 
L 594.897408 437.893708 
L 594.929664 438.154626 
L 594.96192 437.877663 
L 594.994176 437.914057 
L 595.1232 437.933676 
L 596.09088 436.313471 
L 596.155392 435.562263 
L 596.187648 436.144996 
L 596.219904 436.066229 
L 596.316672 435.426608 
L 596.348928 435.457969 
L 596.510208 435.528714 
L 596.542464 435.468179 
L 600.380928 429.085822 
L 600.44544 429.14818 
L 600.477696 429.280917 
L 600.542208 429.116818 
L 601.445376 427.633363 
L 601.606656 426.861733 
L 601.671168 426.740665 
L 601.703424 426.948524 
L 601.767936 426.66445 
L 602.54208 424.858632 
L 602.800128 424.268605 
L 603.542016 422.785879 
L 603.638784 422.894184 
L 604.929024 420.749593 
L 604.993536 420.174517 
L 605.025792 420.210983 
L 605.058048 420.450568 
L 605.154816 420.410819 
L 605.348352 420.138415 
L 607.090176 417.523406 
L 607.154688 417.577376 
L 607.509504 417.306795 
L 607.54176 417.427135 
L 607.670784 418.512741 
L 607.832064 424.514388 
L 608.090112 439.818189 
L 608.34816 439.867127 
L 611.702784 439.980574 
L 612.122112 439.905635 
L 612.831744 439.350324 
L 613.6704 439.008415 
L 614.767104 438.811897 
L 616.508928 438.745455 
L 621.121536 438.877281 
L 632.024064 439.161938 
L 634.411008 439.14655 
L 637.926912 439.32549 
L 638.604288 439.890502 
L 639.442944 440.276481 
L 640.636416 440.53354 
L 642.475008 440.663747 
L 647.05536 440.691786 
L 657.248256 440.637546 
L 657.280512 440.890703 
L 657.603072 429.971957 
L 657.764352 427.931294 
L 657.925632 421.677664 
L 658.086912 404.528588 
L 658.377216 376.952298 
L 658.50624 376.981471 
L 661.08672 378.26509 
L 661.538304 378.487535 
L 670.860288 382.582717 
L 674.053632 383.782463 
L 675.182592 384.172654 
L 683.536896 386.896697 
L 683.956224 387.006097 
L 686.214144 387.662493 
L 686.665728 387.771892 
L 688.18176 388.173023 
L 688.601088 388.282422 
L 689.891328 388.61062 
L 690.342912 388.716373 
L 691.536384 389.011751 
L 692.084736 389.12115 
L 693.18144 389.376416 
L 693.729792 389.485815 
L 694.826496 389.74108 
L 695.471616 389.850479 
L 697.568256 390.29537 
L 697.600512 390.189617 
L 697.665024 390.357363 
L 697.890816 390.357363 
L 699.406848 390.638155 
L 700.11648 390.762141 
L 702.53568 391.199738 
L 703.213056 391.309137 
L 704.825856 391.564402 
L 705.535488 391.673802 
L 707.148288 391.929067 
L 707.954688 392.038466 
L 709.244928 392.220798 
L 710.083584 392.330198 
L 711.373824 392.51253 
L 712.309248 392.621929 
L 713.438208 392.767795 
L 714.438144 392.877194 
L 715.567104 393.02306 
L 716.760576 393.132459 
L 717.889536 393.278325 
L 719.179776 393.387725 
L 720.147456 393.497124 
L 721.40544 393.606523 
L 722.37312 393.715923 
L 723.82464 393.825322 
L 724.79232 393.934721 
L 726.437376 394.044121 
L 727.243776 394.117054 
L 728.759808 394.226453 
L 729.566208 394.299386 
L 731.275776 394.408785 
L 732.082176 394.478071 
L 734.049792 394.591117 
L 735.823872 394.700517 
L 736.630272 394.77345 
L 737.888256 394.839089 
L 737.920512 395.036008 
L 737.985024 394.842736 
L 738.694656 394.868262 
L 740.75904 394.992248 
L 741.40416 395.028715 
L 744.14592 395.138114 
L 744.79104 395.17458 
L 747.5328 395.28398 
L 748.17792 395.3168 
L 750.43584 395.426199 
L 751.72608 395.462665 
L 754.7904 395.572065 
L 756.08064 395.608531 
L 759.338496 395.71793 
L 760.306176 395.71793 
L 763.402752 395.82733 
L 764.370432 395.830976 
L 765.047808 395.863796 
L 770.176512 395.973196 
L 771.144192 395.973196 
L 775.982592 396.082595 
L 776.950272 396.082595 
L 783.240192 396.191994 
L 784.207872 396.195641 
L 785.207808 396.191994 
L 818.528256 396.243047 
L 818.560512 396.367033 
L 818.625024 396.199288 
L 818.915328 396.221167 
L 899.168256 396.224814 
L 899.200512 396.410793 
L 899.265024 396.224814 
L 899.45856 396.206581 
L 900.619776 396.228461 
L 947.52 396.228461 
L 947.52 396.228461 
" clip-path="url(#p5c7cf724e3)" style="fill: none; stroke: #ff00ff; stroke-width: 2; stroke-linecap: square"/>
   </g>
   <g id="patch_22">
    <path d="M 100.8 465.442759 
L 100.8 372.711724 
" style="fill: none; stroke: #bcbcbc; stroke-width: 0.8; stroke-linejoin: miter; stroke-linecap: square"/>
   </g>
   <g id="patch_23">
    <path d="M 987.84 465.442759 
L 987.84 372.711724 
" style="fill: none; stroke: #bcbcbc; stroke-width: 0.8; stroke-linejoin: miter; stroke-linecap: square"/>
   </g>
   <g id="patch_24">
    <path d="M 100.8 465.442759 
L 987.84 465.442759 
" style="fill: none; stroke: #bcbcbc; stroke-width: 0.8; stroke-linejoin: miter; stroke-linecap: square"/>
   </g>
   <g id="patch_25">
    <path d="M 100.8 372.711724 
L 987.84 372.711724 
" style="fill: none; stroke: #bcbcbc; stroke-width: 0.8; stroke-linejoin: miter; stroke-linecap: square"/>
   </g>
  </g>
  <g id="axes_5">
   <g id="patch_26">
    <path d="M 100.8 576.72 
L 987.84 576.72 
L 987.84 483.988966 
L 100.8 483.988966 
z
" style="fill: #eeeeee"/>
   </g>
   <g id="matplotlib.axis_9">
    <g id="xtick_25">
     <g id="line2d_71">
      <path d="M 141.12 576.72 
L 141.12 483.988966 
" clip-path="url(#p4baa839df1)" style="fill: none; stroke-dasharray: 1.85,0.8; stroke-dashoffset: 0; stroke: #b2b2b2; stroke-width: 0.5"/>
     </g>
     <g id="line2d_72">
      <g>
       <use xlink:href="#mc0b6ae66d3" x="141.12" y="576.72" style="stroke: #000000; stroke-width: 0.8"/>
      </g>
     </g>
     <g id="text_14">
      <!-- 0 s -->
      <g transform="translate(130.795 590.857813) scale(0.14 -0.14)">
       <defs>
        <path id="DejaVuSans-73" d="M 2834 3397 
L 2834 2853 
Q 2591 2978 2328 3040 
Q 2066 3103 1784 3103 
Q 1356 3103 1142 2972 
Q 928 2841 928 2578 
Q 928 2378 1081 2264 
Q 1234 2150 1697 2047 
L 1894 2003 
Q 2506 1872 2764 1633 
Q 3022 1394 3022 966 
Q 3022 478 2636 193 
Q 2250 -91 1575 -91 
Q 1294 -91 989 -36 
Q 684 19 347 128 
L 347 722 
Q 666 556 975 473 
Q 1284 391 1588 391 
Q 1994 391 2212 530 
Q 2431 669 2431 922 
Q 2431 1156 2273 1281 
Q 2116 1406 1581 1522 
L 1381 1569 
Q 847 1681 609 1914 
Q 372 2147 372 2553 
Q 372 3047 722 3315 
Q 1072 3584 1716 3584 
Q 2034 3584 2315 3537 
Q 2597 3491 2834 3397 
z
" transform="scale(0.015625)"/>
       </defs>
       <use xlink:href="#DejaVuSans-30"/>
       <use xlink:href="#DejaVuSans-20" x="63.623047"/>
       <use xlink:href="#DejaVuSans-73" x="95.410156"/>
      </g>
     </g>
    </g>
    <g id="xtick_26">
     <g id="line2d_73">
      <path d="M 302.4 576.72 
L 302.4 483.988966 
" clip-path="url(#p4baa839df1)" style="fill: none; stroke-dasharray: 1.85,0.8; stroke-dashoffset: 0; stroke: #b2b2b2; stroke-width: 0.5"/>
     </g>
     <g id="line2d_74">
      <g>
       <use xlink:href="#mc0b6ae66d3" x="302.4" y="576.72" style="stroke: #000000; stroke-width: 0.8"/>
      </g>
     </g>
     <g id="text_15">
      <!-- 50 ns -->
      <g transform="translate(283.185 590.857813) scale(0.14 -0.14)">
       <defs>
        <path id="DejaVuSans-35" d="M 691 4666 
L 3169 4666 
L 3169 4134 
L 1269 4134 
L 1269 2991 
Q 1406 3038 1543 3061 
Q 1681 3084 1819 3084 
Q 2600 3084 3056 2656 
Q 3513 2228 3513 1497 
Q 3513 744 3044 326 
Q 2575 -91 1722 -91 
Q 1428 -91 1123 -41 
Q 819 9 494 109 
L 494 744 
Q 775 591 1075 516 
Q 1375 441 1709 441 
Q 2250 441 2565 725 
Q 2881 1009 2881 1497 
Q 2881 1984 2565 2268 
Q 2250 2553 1709 2553 
Q 1456 2553 1204 2497 
Q 953 2441 691 2322 
L 691 4666 
z
" transform="scale(0.015625)"/>
        <path id="DejaVuSans-6e" d="M 3513 2113 
L 3513 0 
L 2938 0 
L 2938 2094 
Q 2938 2591 2744 2837 
Q 2550 3084 2163 3084 
Q 1697 3084 1428 2787 
Q 1159 2491 1159 1978 
L 1159 0 
L 581 0 
L 581 3500 
L 1159 3500 
L 1159 2956 
Q 1366 3272 1645 3428 
Q 1925 3584 2291 3584 
Q 2894 3584 3203 3211 
Q 3513 2838 3513 2113 
z
" transform="scale(0.015625)"/>
       </defs>
       <use xlink:href="#DejaVuSans-35"/>
       <use xlink:href="#DejaVuSans-30" x="63.623047"/>
       <use xlink:href="#DejaVuSans-20" x="127.246094"/>
       <use xlink:href="#DejaVuSans-6e" x="159.033203"/>
       <use xlink:href="#DejaVuSans-73" x="222.412109"/>
      </g>
     </g>
    </g>
    <g id="xtick_27">
     <g id="line2d_75">
      <path d="M 463.68 576.72 
L 463.68 483.988966 
" clip-path="url(#p4baa839df1)" style="fill: none; stroke-dasharray: 1.85,0.8; stroke-dashoffset: 0; stroke: #b2b2b2; stroke-width: 0.5"/>
     </g>
     <g id="line2d_76">
      <g>
       <use xlink:href="#mc0b6ae66d3" x="463.68" y="576.72" style="stroke: #000000; stroke-width: 0.8"/>
      </g>
     </g>
     <g id="text_16">
      <!-- 100 ns -->
      <g transform="translate(440.01125 590.857813) scale(0.14 -0.14)">
       <use xlink:href="#DejaVuSans-31"/>
       <use xlink:href="#DejaVuSans-30" x="63.623047"/>
       <use xlink:href="#DejaVuSans-30" x="127.246094"/>
       <use xlink:href="#DejaVuSans-20" x="190.869141"/>
       <use xlink:href="#DejaVuSans-6e" x="222.65625"/>
       <use xlink:href="#DejaVuSans-73" x="286.035156"/>
      </g>
     </g>
    </g>
    <g id="xtick_28">
     <g id="line2d_77">
      <path d="M 624.96 576.72 
L 624.96 483.988966 
" clip-path="url(#p4baa839df1)" style="fill: none; stroke-dasharray: 1.85,0.8; stroke-dashoffset: 0; stroke: #b2b2b2; stroke-width: 0.5"/>
     </g>
     <g id="line2d_78">
      <g>
       <use xlink:href="#mc0b6ae66d3" x="624.96" y="576.72" style="stroke: #000000; stroke-width: 0.8"/>
      </g>
     </g>
     <g id="text_17">
      <!-- 150 ns -->
      <g transform="translate(601.29125 590.857813) scale(0.14 -0.14)">
       <use xlink:href="#DejaVuSans-31"/>
       <use xlink:href="#DejaVuSans-35" x="63.623047"/>
       <use xlink:href="#DejaVuSans-30" x="127.246094"/>
       <use xlink:href="#DejaVuSans-20" x="190.869141"/>
       <use xlink:href="#DejaVuSans-6e" x="222.65625"/>
       <use xlink:href="#DejaVuSans-73" x="286.035156"/>
      </g>
     </g>
    </g>
    <g id="xtick_29">
     <g id="line2d_79">
      <path d="M 786.24 576.72 
L 786.24 483.988966 
" clip-path="url(#p4baa839df1)" style="fill: none; stroke-dasharray: 1.85,0.8; stroke-dashoffset: 0; stroke: #b2b2b2; stroke-width: 0.5"/>
     </g>
     <g id="line2d_80">
      <g>
       <use xlink:href="#mc0b6ae66d3" x="786.24" y="576.72" style="stroke: #000000; stroke-width: 0.8"/>
      </g>
     </g>
     <g id="text_18">
      <!-- 200 ns -->
      <g transform="translate(762.57125 590.857813) scale(0.14 -0.14)">
       <use xlink:href="#DejaVuSans-32"/>
       <use xlink:href="#DejaVuSans-30" x="63.623047"/>
       <use xlink:href="#DejaVuSans-30" x="127.246094"/>
       <use xlink:href="#DejaVuSans-20" x="190.869141"/>
       <use xlink:href="#DejaVuSans-6e" x="222.65625"/>
       <use xlink:href="#DejaVuSans-73" x="286.035156"/>
      </g>
     </g>
    </g>
    <g id="xtick_30">
     <g id="line2d_81">
      <path d="M 947.52 576.72 
L 947.52 483.988966 
" clip-path="url(#p4baa839df1)" style="fill: none; stroke-dasharray: 1.85,0.8; stroke-dashoffset: 0; stroke: #b2b2b2; stroke-width: 0.5"/>
     </g>
     <g id="line2d_82">
      <g>
       <use xlink:href="#mc0b6ae66d3" x="947.52" y="576.72" style="stroke: #000000; stroke-width: 0.8"/>
      </g>
     </g>
     <g id="text_19">
      <!-- 250 ns -->
      <g transform="translate(923.85125 590.857813) scale(0.14 -0.14)">
       <use xlink:href="#DejaVuSans-32"/>
       <use xlink:href="#DejaVuSans-35" x="63.623047"/>
       <use xlink:href="#DejaVuSans-30" x="127.246094"/>
       <use xlink:href="#DejaVuSans-20" x="190.869141"/>
       <use xlink:href="#DejaVuSans-6e" x="222.65625"/>
       <use xlink:href="#DejaVuSans-73" x="286.035156"/>
      </g>
     </g>
    </g>
    <g id="text_20">
     <!-- Time -->
     <g transform="translate(527.192969 608.407187) scale(0.14 -0.14)">
      <defs>
       <path id="DejaVuSans-69" d="M 603 3500 
L 1178 3500 
L 1178 0 
L 603 0 
L 603 3500 
z
M 603 4863 
L 1178 4863 
L 1178 4134 
L 603 4134 
L 603 4863 
z
" transform="scale(0.015625)"/>
       <path id="DejaVuSans-6d" d="M 3328 2828 
Q 3544 3216 3844 3400 
Q 4144 3584 4550 3584 
Q 5097 3584 5394 3201 
Q 5691 2819 5691 2113 
L 5691 0 
L 5113 0 
L 5113 2094 
Q 5113 2597 4934 2840 
Q 4756 3084 4391 3084 
Q 3944 3084 3684 2787 
Q 3425 2491 3425 1978 
L 3425 0 
L 2847 0 
L 2847 2094 
Q 2847 2600 2669 2842 
Q 2491 3084 2119 3084 
Q 1678 3084 1418 2786 
Q 1159 2488 1159 1978 
L 1159 0 
L 581 0 
L 581 3500 
L 1159 3500 
L 1159 2956 
Q 1356 3278 1631 3431 
Q 1906 3584 2284 3584 
Q 2666 3584 2933 3390 
Q 3200 3197 3328 2828 
z
" transform="scale(0.015625)"/>
       <path id="DejaVuSans-65" d="M 3597 1894 
L 3597 1613 
L 953 1613 
Q 991 1019 1311 708 
Q 1631 397 2203 397 
Q 2534 397 2845 478 
Q 3156 559 3463 722 
L 3463 178 
Q 3153 47 2828 -22 
Q 2503 -91 2169 -91 
Q 1331 -91 842 396 
Q 353 884 353 1716 
Q 353 2575 817 3079 
Q 1281 3584 2069 3584 
Q 2775 3584 3186 3129 
Q 3597 2675 3597 1894 
z
M 3022 2063 
Q 3016 2534 2758 2815 
Q 2500 3097 2075 3097 
Q 1594 3097 1305 2825 
Q 1016 2553 972 2059 
L 3022 2063 
z
" transform="scale(0.015625)"/>
      </defs>
      <use xlink:href="#DejaVuSans-54"/>
      <use xlink:href="#DejaVuSans-69" x="57.958984"/>
      <use xlink:href="#DejaVuSans-6d" x="85.742188"/>
      <use xlink:href="#DejaVuSans-65" x="183.154297"/>
     </g>
    </g>
   </g>
   <g id="matplotlib.axis_10">
    <g id="ytick_10">
     <g id="line2d_83">
      <path d="M 100.8 569.745885 
L 987.84 569.745885 
" clip-path="url(#p4baa839df1)" style="fill: none; stroke-dasharray: 1.85,0.8; stroke-dashoffset: 0; stroke: #b2b2b2; stroke-width: 0.5"/>
     </g>
     <g id="line2d_84">
      <g>
       <use xlink:href="#m8649bf1b4a" x="100.8" y="569.745885" style="stroke: #000000; stroke-width: 0.8"/>
      </g>
     </g>
     <g id="text_21">
      <!-- 0 V -->
      <g transform="translate(74.36625 575.064792) scale(0.14 -0.14)">
       <use xlink:href="#DejaVuSans-30"/>
       <use xlink:href="#DejaVuSans-20" x="63.623047"/>
       <use xlink:href="#DejaVuSans-56" x="95.410156"/>
      </g>
     </g>
    </g>
    <g id="ytick_11">
     <g id="line2d_85">
      <path d="M 100.8 535.950348 
L 987.84 535.950348 
" clip-path="url(#p4baa839df1)" style="fill: none; stroke-dasharray: 1.85,0.8; stroke-dashoffset: 0; stroke: #b2b2b2; stroke-width: 0.5"/>
     </g>
     <g id="line2d_86">
      <g>
       <use xlink:href="#m8649bf1b4a" x="100.8" y="535.950348" style="stroke: #000000; stroke-width: 0.8"/>
      </g>
     </g>
     <g id="text_22">
      <!-- 500 mV -->
      <g transform="translate(42.914375 541.269254) scale(0.14 -0.14)">
       <use xlink:href="#DejaVuSans-35"/>
       <use xlink:href="#DejaVuSans-30" x="63.623047"/>
       <use xlink:href="#DejaVuSans-30" x="127.246094"/>
       <use xlink:href="#DejaVuSans-20" x="190.869141"/>
       <use xlink:href="#DejaVuSans-6d" x="222.65625"/>
       <use xlink:href="#DejaVuSans-56" x="320.068359"/>
      </g>
     </g>
    </g>
    <g id="ytick_12">
     <g id="line2d_87">
      <path d="M 100.8 502.15481 
L 987.84 502.15481 
" clip-path="url(#p4baa839df1)" style="fill: none; stroke-dasharray: 1.85,0.8; stroke-dashoffset: 0; stroke: #b2b2b2; stroke-width: 0.5"/>
     </g>
     <g id="line2d_88">
      <g>
       <use xlink:href="#m8649bf1b4a" x="100.8" y="502.15481" style="stroke: #000000; stroke-width: 0.8"/>
      </g>
     </g>
     <g id="text_23">
      <!-- 1 V -->
      <g transform="translate(74.36625 507.473717) scale(0.14 -0.14)">
       <use xlink:href="#DejaVuSans-31"/>
       <use xlink:href="#DejaVuSans-20" x="63.623047"/>
       <use xlink:href="#DejaVuSans-56" x="95.410156"/>
      </g>
     </g>
    </g>
    <g id="text_24">
     <g id="patch_27">
      <path d="M 34.8768 554.329483 
L 34.8768 506.379483 
L 11.247425 506.379483 
L 11.247425 554.329483 
z
" style="fill: #ffff00; opacity: 0.2; stroke: #eeeeee; stroke-width: 0.5; stroke-linejoin: miter"/>
     </g>
     <!-- FOUT -->
     <g transform="translate(26.925238 549.289483) rotate(-90) scale(0.14 -0.14)">
      <use xlink:href="#DejaVuSans-46"/>
      <use xlink:href="#DejaVuSans-4f" x="57.519531"/>
      <use xlink:href="#DejaVuSans-55" x="136.230469"/>
      <use xlink:href="#DejaVuSans-54" x="209.423828"/>
     </g>
    </g>
   </g>
   <g id="line2d_89">
    <path d="M 141.12 488.636595 
L 173.472768 488.643355 
L 173.505024 488.44734 
L 173.569536 526.789729 
L 173.69856 572.504953 
L 173.730816 572.3695 
L 173.827584 567.842115 
L 173.892096 569.3609 
L 174.053376 570.064192 
L 174.117888 569.946665 
L 174.408192 569.492054 
L 174.440448 569.54151 
L 174.66624 569.729954 
L 176.182272 569.740151 
L 180.117504 569.761449 
L 193.568256 569.752159 
L 212.954112 569.74401 
L 255.30624 569.743704 
L 255.6288 488.52845 
L 255.854592 488.670391 
L 256.209408 488.629836 
L 334.849536 488.650114 
L 334.881792 492.854278 
L 335.043072 572.18376 
L 335.107584 570.261206 
L 335.172096 568.338639 
L 335.236608 568.870108 
L 335.365632 570.783003 
L 335.430144 570.410083 
L 335.591424 569.797213 
L 335.881728 569.648439 
L 336.559104 569.817924 
L 337.107456 569.746143 
L 350.009856 569.744206 
L 416.489472 569.74333 
L 416.553984 567.480841 
L 416.812032 488.204013 
L 416.844288 488.339195 
L 416.973312 488.852887 
L 417.037824 488.778537 
L 417.39264 488.548727 
L 417.844224 488.717705 
L 418.457088 488.562245 
L 419.328 488.636595 
L 558.99648 488.535209 
L 559.028736 488.379749 
L 559.060992 490.488591 
L 559.222272 570.272562 
L 559.351296 569.750602 
L 560.12544 569.744204 
L 605.44512 569.815159 
L 605.477376 569.868002 
L 605.509632 569.778689 
L 605.574144 557.594362 
L 605.832192 488.704186 
L 606.025728 488.636595 
L 607.670784 488.636595 
L 607.767552 517.650064 
L 607.928832 570.277726 
L 607.993344 569.737559 
L 608.34816 569.744206 
L 657.990144 569.809373 
L 658.0224 569.939628 
L 658.34496 488.643355 
L 947.52 488.636595 
L 947.52 488.636595 
" clip-path="url(#p4baa839df1)" style="fill: none; stroke: #ff00ff; stroke-width: 2; stroke-linecap: square"/>
   </g>
   <g id="patch_28">
    <path d="M 100.8 576.72 
L 100.8 483.988966 
" style="fill: none; stroke: #bcbcbc; stroke-width: 0.8; stroke-linejoin: miter; stroke-linecap: square"/>
   </g>
   <g id="patch_29">
    <path d="M 987.84 576.72 
L 987.84 483.988966 
" style="fill: none; stroke: #bcbcbc; stroke-width: 0.8; stroke-linejoin: miter; stroke-linecap: square"/>
   </g>
   <g id="patch_30">
    <path d="M 100.8 576.72 
L 987.84 576.72 
" style="fill: none; stroke: #bcbcbc; stroke-width: 0.8; stroke-linejoin: miter; stroke-linecap: square"/>
   </g>
   <g id="patch_31">
    <path d="M 100.8 483.988966 
L 987.84 483.988966 
" style="fill: none; stroke: #bcbcbc; stroke-width: 0.8; stroke-linejoin: miter; stroke-linecap: square"/>
   </g>
  </g>
  <g id="axes_6">
   <g id="patch_32">
    <path d="M 201.6 628.56 
L 856.8 628.56 
L 856.8 615.6 
L 201.6 615.6 
z
" clip-path="url(#pf94d968ec2)" style="fill: #d3d3d3"/>
   </g>
   <g id="patch_33">
    <path d="M 201.6 628.56 
L 716.4 628.56 
L 716.4 615.6 
L 201.6 615.6 
z
" clip-path="url(#pf94d968ec2)" style="fill: #0000ff"/>
   </g>
   <g id="line2d_90">
    <path d="M 201.6 635.04 
L 201.6 609.12 
" clip-path="url(#pff164f5a4b)" style="fill: none; stroke: #ff0000; stroke-linecap: square"/>
   </g>
   <g id="line2d_91">
    <defs>
     <path id="m4ecc5ee527" d="M 0 5 
C 1.326016 5 2.597899 4.473168 3.535534 3.535534 
C 4.473168 2.597899 5 1.326016 5 0 
C 5 -1.326016 4.473168 -2.597899 3.535534 -3.535534 
C 2.597899 -4.473168 1.326016 -5 0 -5 
C -1.326016 -5 -2.597899 -4.473168 -3.535534 -3.535534 
C -4.473168 -2.597899 -5 -1.326016 -5 0 
C -5 1.326016 -4.473168 2.597899 -3.535534 3.535534 
C -2.597899 4.473168 -1.326016 5 0 5 
z
" style="stroke: #bfbfbf"/>
    </defs>
    <g>
     <use xlink:href="#m4ecc5ee527" x="716.4" y="622.08" style="fill: #ffffff; stroke: #bfbfbf"/>
    </g>
   </g>
   <g id="text_25">
    <!-- #Sweep -->
    <g transform="translate(138.622875 625.39125) scale(0.12 -0.12)">
     <defs>
      <path id="DejaVuSans-23" d="M 3272 2816 
L 2363 2816 
L 2100 1772 
L 3016 1772 
L 3272 2816 
z
M 2803 4594 
L 2478 3297 
L 3391 3297 
L 3719 4594 
L 4219 4594 
L 3897 3297 
L 4872 3297 
L 4872 2816 
L 3775 2816 
L 3519 1772 
L 4513 1772 
L 4513 1294 
L 3397 1294 
L 3072 0 
L 2572 0 
L 2894 1294 
L 1978 1294 
L 1656 0 
L 1153 0 
L 1478 1294 
L 494 1294 
L 494 1772 
L 1594 1772 
L 1856 2816 
L 850 2816 
L 850 3297 
L 1978 3297 
L 2297 4594 
L 2803 4594 
z
" transform="scale(0.015625)"/>
      <path id="DejaVuSans-77" d="M 269 3500 
L 844 3500 
L 1563 769 
L 2278 3500 
L 2956 3500 
L 3675 769 
L 4391 3500 
L 4966 3500 
L 4050 0 
L 3372 0 
L 2619 2869 
L 1863 0 
L 1184 0 
L 269 3500 
z
" transform="scale(0.015625)"/>
      <path id="DejaVuSans-70" d="M 1159 525 
L 1159 -1331 
L 581 -1331 
L 581 3500 
L 1159 3500 
L 1159 2969 
Q 1341 3281 1617 3432 
Q 1894 3584 2278 3584 
Q 2916 3584 3314 3078 
Q 3713 2572 3713 1747 
Q 3713 922 3314 415 
Q 2916 -91 2278 -91 
Q 1894 -91 1617 61 
Q 1341 213 1159 525 
z
M 3116 1747 
Q 3116 2381 2855 2742 
Q 2594 3103 2138 3103 
Q 1681 3103 1420 2742 
Q 1159 2381 1159 1747 
Q 1159 1113 1420 752 
Q 1681 391 2138 391 
Q 2594 391 2855 752 
Q 3116 1113 3116 1747 
z
" transform="scale(0.015625)"/>
     </defs>
     <use xlink:href="#DejaVuSans-23"/>
     <use xlink:href="#DejaVuSans-53" x="83.789062"/>
     <use xlink:href="#DejaVuSans-77" x="147.265625"/>
     <use xlink:href="#DejaVuSans-65" x="229.052734"/>
     <use xlink:href="#DejaVuSans-65" x="290.576172"/>
     <use xlink:href="#DejaVuSans-70" x="352.099609"/>
    </g>
   </g>
   <g id="text_26">
    <!-- $\mathdefault{110}$ -->
    <g transform="translate(869.904 625.39125) scale(0.12 -0.12)">
     <use xlink:href="#DejaVuSans-31" transform="translate(0 0.78125)"/>
     <use xlink:href="#DejaVuSans-31" transform="translate(63.623047 0.78125)"/>
     <use xlink:href="#DejaVuSans-30" transform="translate(127.246094 0.78125)"/>
    </g>
   </g>
  </g>
  <g id="text_27">
   <!-- DFF under BBI sweep analysis (Sweep = 120E-9) -->
   <g transform="translate(308.25625 25.1175) scale(0.16 -0.16)">
    <defs>
     <path id="DejaVuSans-75" d="M 544 1381 
L 544 3500 
L 1119 3500 
L 1119 1403 
Q 1119 906 1312 657 
Q 1506 409 1894 409 
Q 2359 409 2629 706 
Q 2900 1003 2900 1516 
L 2900 3500 
L 3475 3500 
L 3475 0 
L 2900 0 
L 2900 538 
Q 2691 219 2414 64 
Q 2138 -91 1772 -91 
Q 1169 -91 856 284 
Q 544 659 544 1381 
z
M 1991 3584 
L 1991 3584 
z
" transform="scale(0.015625)"/>
     <path id="DejaVuSans-64" d="M 2906 2969 
L 2906 4863 
L 3481 4863 
L 3481 0 
L 2906 0 
L 2906 525 
Q 2725 213 2448 61 
Q 2172 -91 1784 -91 
Q 1150 -91 751 415 
Q 353 922 353 1747 
Q 353 2572 751 3078 
Q 1150 3584 1784 3584 
Q 2172 3584 2448 3432 
Q 2725 3281 2906 2969 
z
M 947 1747 
Q 947 1113 1208 752 
Q 1469 391 1925 391 
Q 2381 391 2643 752 
Q 2906 1113 2906 1747 
Q 2906 2381 2643 2742 
Q 2381 3103 1925 3103 
Q 1469 3103 1208 2742 
Q 947 2381 947 1747 
z
" transform="scale(0.015625)"/>
     <path id="DejaVuSans-72" d="M 2631 2963 
Q 2534 3019 2420 3045 
Q 2306 3072 2169 3072 
Q 1681 3072 1420 2755 
Q 1159 2438 1159 1844 
L 1159 0 
L 581 0 
L 581 3500 
L 1159 3500 
L 1159 2956 
Q 1341 3275 1631 3429 
Q 1922 3584 2338 3584 
Q 2397 3584 2469 3576 
Q 2541 3569 2628 3553 
L 2631 2963 
z
" transform="scale(0.015625)"/>
     <path id="DejaVuSans-61" d="M 2194 1759 
Q 1497 1759 1228 1600 
Q 959 1441 959 1056 
Q 959 750 1161 570 
Q 1363 391 1709 391 
Q 2188 391 2477 730 
Q 2766 1069 2766 1631 
L 2766 1759 
L 2194 1759 
z
M 3341 1997 
L 3341 0 
L 2766 0 
L 2766 531 
Q 2569 213 2275 61 
Q 1981 -91 1556 -91 
Q 1019 -91 701 211 
Q 384 513 384 1019 
Q 384 1609 779 1909 
Q 1175 2209 1959 2209 
L 2766 2209 
L 2766 2266 
Q 2766 2663 2505 2880 
Q 2244 3097 1772 3097 
Q 1472 3097 1187 3025 
Q 903 2953 641 2809 
L 641 3341 
Q 956 3463 1253 3523 
Q 1550 3584 1831 3584 
Q 2591 3584 2966 3190 
Q 3341 2797 3341 1997 
z
" transform="scale(0.015625)"/>
     <path id="DejaVuSans-6c" d="M 603 4863 
L 1178 4863 
L 1178 0 
L 603 0 
L 603 4863 
z
" transform="scale(0.015625)"/>
     <path id="DejaVuSans-79" d="M 2059 -325 
Q 1816 -950 1584 -1140 
Q 1353 -1331 966 -1331 
L 506 -1331 
L 506 -850 
L 844 -850 
Q 1081 -850 1212 -737 
Q 1344 -625 1503 -206 
L 1606 56 
L 191 3500 
L 800 3500 
L 1894 763 
L 2988 3500 
L 3597 3500 
L 2059 -325 
z
" transform="scale(0.015625)"/>
     <path id="DejaVuSans-28" d="M 1984 4856 
Q 1566 4138 1362 3434 
Q 1159 2731 1159 2009 
Q 1159 1288 1364 580 
Q 1569 -128 1984 -844 
L 1484 -844 
Q 1016 -109 783 600 
Q 550 1309 550 2009 
Q 550 2706 781 3412 
Q 1013 4119 1484 4856 
L 1984 4856 
z
" transform="scale(0.015625)"/>
     <path id="DejaVuSans-3d" d="M 678 2906 
L 4684 2906 
L 4684 2381 
L 678 2381 
L 678 2906 
z
M 678 1631 
L 4684 1631 
L 4684 1100 
L 678 1100 
L 678 1631 
z
" transform="scale(0.015625)"/>
     <path id="DejaVuSans-2d" d="M 313 2009 
L 1997 2009 
L 1997 1497 
L 313 1497 
L 313 2009 
z
" transform="scale(0.015625)"/>
     <path id="DejaVuSans-39" d="M 703 97 
L 703 672 
Q 941 559 1184 500 
Q 1428 441 1663 441 
Q 2288 441 2617 861 
Q 2947 1281 2994 2138 
Q 2813 1869 2534 1725 
Q 2256 1581 1919 1581 
Q 1219 1581 811 2004 
Q 403 2428 403 3163 
Q 403 3881 828 4315 
Q 1253 4750 1959 4750 
Q 2769 4750 3195 4129 
Q 3622 3509 3622 2328 
Q 3622 1225 3098 567 
Q 2575 -91 1691 -91 
Q 1453 -91 1209 -44 
Q 966 3 703 97 
z
M 1959 2075 
Q 2384 2075 2632 2365 
Q 2881 2656 2881 3163 
Q 2881 3666 2632 3958 
Q 2384 4250 1959 4250 
Q 1534 4250 1286 3958 
Q 1038 3666 1038 3163 
Q 1038 2656 1286 2365 
Q 1534 2075 1959 2075 
z
" transform="scale(0.015625)"/>
     <path id="DejaVuSans-29" d="M 513 4856 
L 1013 4856 
Q 1481 4119 1714 3412 
Q 1947 2706 1947 2009 
Q 1947 1309 1714 600 
Q 1481 -109 1013 -844 
L 513 -844 
Q 928 -128 1133 580 
Q 1338 1288 1338 2009 
Q 1338 2731 1133 3434 
Q 928 4138 513 4856 
z
" transform="scale(0.015625)"/>
    </defs>
    <use xlink:href="#DejaVuSans-44"/>
    <use xlink:href="#DejaVuSans-46" x="77.001953"/>
    <use xlink:href="#DejaVuSans-46" x="134.521484"/>
    <use xlink:href="#DejaVuSans-20" x="192.041016"/>
    <use xlink:href="#DejaVuSans-75" x="223.828125"/>
    <use xlink:href="#DejaVuSans-6e" x="287.207031"/>
    <use xlink:href="#DejaVuSans-64" x="350.585938"/>
    <use xlink:href="#DejaVuSans-65" x="414.0625"/>
    <use xlink:href="#DejaVuSans-72" x="475.585938"/>
    <use xlink:href="#DejaVuSans-20" x="516.699219"/>
    <use xlink:href="#DejaVuSans-42" x="548.486328"/>
    <use xlink:href="#DejaVuSans-42" x="617.089844"/>
    <use xlink:href="#DejaVuSans-49" x="685.693359"/>
    <use xlink:href="#DejaVuSans-20" x="715.185547"/>
    <use xlink:href="#DejaVuSans-73" x="746.972656"/>
    <use xlink:href="#DejaVuSans-77" x="799.072266"/>
    <use xlink:href="#DejaVuSans-65" x="880.859375"/>
    <use xlink:href="#DejaVuSans-65" x="942.382812"/>
    <use xlink:href="#DejaVuSans-70" x="1003.90625"/>
    <use xlink:href="#DejaVuSans-20" x="1067.382812"/>
    <use xlink:href="#DejaVuSans-61" x="1099.169922"/>
    <use xlink:href="#DejaVuSans-6e" x="1160.449219"/>
    <use xlink:href="#DejaVuSans-61" x="1223.828125"/>
    <use xlink:href="#DejaVuSans-6c" x="1285.107422"/>
    <use xlink:href="#DejaVuSans-79" x="1312.890625"/>
    <use xlink:href="#DejaVuSans-73" x="1372.070312"/>
    <use xlink:href="#DejaVuSans-69" x="1424.169922"/>
    <use xlink:href="#DejaVuSans-73" x="1451.953125"/>
    <use xlink:href="#DejaVuSans-20" x="1504.052734"/>
    <use xlink:href="#DejaVuSans-28" x="1535.839844"/>
    <use xlink:href="#DejaVuSans-53" x="1574.853516"/>
    <use xlink:href="#DejaVuSans-77" x="1638.330078"/>
    <use xlink:href="#DejaVuSans-65" x="1720.117188"/>
    <use xlink:href="#DejaVuSans-65" x="1781.640625"/>
    <use xlink:href="#DejaVuSans-70" x="1843.164062"/>
    <use xlink:href="#DejaVuSans-20" x="1906.640625"/>
    <use xlink:href="#DejaVuSans-3d" x="1938.427734"/>
    <use xlink:href="#DejaVuSans-20" x="2022.216797"/>
    <use xlink:href="#DejaVuSans-31" x="2054.003906"/>
    <use xlink:href="#DejaVuSans-32" x="2117.626953"/>
    <use xlink:href="#DejaVuSans-30" x="2181.25"/>
    <use xlink:href="#DejaVuSans-45" x="2244.873047"/>
    <use xlink:href="#DejaVuSans-2d" x="2308.056641"/>
    <use xlink:href="#DejaVuSans-39" x="2344.140625"/>
    <use xlink:href="#DejaVuSans-29" x="2407.763672"/>
   </g>
  </g>
 </g>
 <defs>
  <clipPath id="p47cc98c3bd">
   <rect x="100.8" y="38.88" width="887.04" height="92.731034"/>
  </clipPath>
  <clipPath id="p1931815089">
   <rect x="100.8" y="150.157241" width="887.04" height="92.731034"/>
  </clipPath>
  <clipPath id="p201e1842ad">
   <rect x="100.8" y="261.434483" width="887.04" height="92.731034"/>
  </clipPath>
  <clipPath id="p5c7cf724e3">
   <rect x="100.8" y="372.711724" width="887.04" height="92.731034"/>
  </clipPath>
  <clipPath id="p4baa839df1">
   <rect x="100.8" y="483.988966" width="887.04" height="92.731034"/>
  </clipPath>
  <clipPath id="pf94d968ec2">
   <rect x="201.6" y="609.12" width="655.2" height="25.92"/>
  </clipPath>
  <clipPath id="pff164f5a4b">
   <path d="M 201.6 628.56 
L 856.8 628.56 
L 856.8 615.6 
L 201.6 615.6 
z
"/>
  </clipPath>
 </defs>
</svg>
