<?xml version="1.0" encoding="utf-8" standalone="no"?>
<!DOCTYPE svg PUBLIC "-//W3C//DTD SVG 1.1//EN"
  "http://www.w3.org/Graphics/SVG/1.1/DTD/svg11.dtd">
<svg xmlns:xlink="http://www.w3.org/1999/xlink" width="1008pt" height="648pt" viewBox="0 0 1008 648" xmlns="http://www.w3.org/2000/svg" version="1.1">
 <metadata>
  <rdf:RDF xmlns:dc="http://purl.org/dc/elements/1.1/" xmlns:cc="http://creativecommons.org/ns#" xmlns:rdf="http://www.w3.org/1999/02/22-rdf-syntax-ns#">
   <cc:Work>
    <dc:type rdf:resource="http://purl.org/dc/dcmitype/StillImage"/>
    <dc:date>2024-06-03T10:45:59.842859</dc:date>
    <dc:format>image/svg+xml</dc:format>
    <dc:creator>
     <cc:Agent>
      <dc:title>Matplotlib v3.9.0, https://matplotlib.org/</dc:title>
     </cc:Agent>
    </dc:creator>
   </cc:Work>
  </rdf:RDF>
 </metadata>
 <defs>
  <style type="text/css">*{stroke-linejoin: round; stroke-linecap: butt}</style>
 </defs>
 <g id="figure_1">
  <g id="patch_1">
   <path d="M 0 648 
L 1008 648 
L 1008 0 
L 0 0 
z
" style="fill: #ffffff"/>
  </g>
  <g id="axes_1">
   <g id="patch_2">
    <path d="M 100.8 131.611034 
L 987.84 131.611034 
L 987.84 38.88 
L 100.8 38.88 
z
" style="fill: #eeeeee"/>
   </g>
   <g id="matplotlib.axis_1">
    <g id="xtick_1">
     <g id="line2d_1">
      <path d="M 141.12 131.611034 
L 141.12 38.88 
" clip-path="url(#pc76c18575f)" style="fill: none; stroke-dasharray: 1.85,0.8; stroke-dashoffset: 0; stroke: #b2b2b2; stroke-width: 0.5"/>
     </g>
     <g id="line2d_2">
      <defs>
       <path id="m5178252732" d="M 0 0 
L 0 -3.5 
" style="stroke: #000000; stroke-width: 0.8"/>
      </defs>
      <g>
       <use xlink:href="#m5178252732" x="141.12" y="131.611034" style="stroke: #000000; stroke-width: 0.8"/>
      </g>
     </g>
    </g>
    <g id="xtick_2">
     <g id="line2d_3">
      <path d="M 302.4 131.611034 
L 302.4 38.88 
" clip-path="url(#pc76c18575f)" style="fill: none; stroke-dasharray: 1.85,0.8; stroke-dashoffset: 0; stroke: #b2b2b2; stroke-width: 0.5"/>
     </g>
     <g id="line2d_4">
      <g>
       <use xlink:href="#m5178252732" x="302.4" y="131.611034" style="stroke: #000000; stroke-width: 0.8"/>
      </g>
     </g>
    </g>
    <g id="xtick_3">
     <g id="line2d_5">
      <path d="M 463.68 131.611034 
L 463.68 38.88 
" clip-path="url(#pc76c18575f)" style="fill: none; stroke-dasharray: 1.85,0.8; stroke-dashoffset: 0; stroke: #b2b2b2; stroke-width: 0.5"/>
     </g>
     <g id="line2d_6">
      <g>
       <use xlink:href="#m5178252732" x="463.68" y="131.611034" style="stroke: #000000; stroke-width: 0.8"/>
      </g>
     </g>
    </g>
    <g id="xtick_4">
     <g id="line2d_7">
      <path d="M 624.96 131.611034 
L 624.96 38.88 
" clip-path="url(#pc76c18575f)" style="fill: none; stroke-dasharray: 1.85,0.8; stroke-dashoffset: 0; stroke: #b2b2b2; stroke-width: 0.5"/>
     </g>
     <g id="line2d_8">
      <g>
       <use xlink:href="#m5178252732" x="624.96" y="131.611034" style="stroke: #000000; stroke-width: 0.8"/>
      </g>
     </g>
    </g>
    <g id="xtick_5">
     <g id="line2d_9">
      <path d="M 786.24 131.611034 
L 786.24 38.88 
" clip-path="url(#pc76c18575f)" style="fill: none; stroke-dasharray: 1.85,0.8; stroke-dashoffset: 0; stroke: #b2b2b2; stroke-width: 0.5"/>
     </g>
     <g id="line2d_10">
      <g>
       <use xlink:href="#m5178252732" x="786.24" y="131.611034" style="stroke: #000000; stroke-width: 0.8"/>
      </g>
     </g>
    </g>
    <g id="xtick_6">
     <g id="line2d_11">
      <path d="M 947.52 131.611034 
L 947.52 38.88 
" clip-path="url(#pc76c18575f)" style="fill: none; stroke-dasharray: 1.85,0.8; stroke-dashoffset: 0; stroke: #b2b2b2; stroke-width: 0.5"/>
     </g>
     <g id="line2d_12">
      <g>
       <use xlink:href="#m5178252732" x="947.52" y="131.611034" style="stroke: #000000; stroke-width: 0.8"/>
      </g>
     </g>
    </g>
   </g>
   <g id="matplotlib.axis_2">
    <g id="ytick_1">
     <g id="line2d_13">
      <path d="M 100.8 98.340394 
L 987.84 98.340394 
" clip-path="url(#pc76c18575f)" style="fill: none; stroke-dasharray: 1.85,0.8; stroke-dashoffset: 0; stroke: #b2b2b2; stroke-width: 0.5"/>
     </g>
     <g id="line2d_14">
      <defs>
       <path id="ma04fc4541d" d="M 0 0 
L 3.5 0 
" style="stroke: #000000; stroke-width: 0.8"/>
      </defs>
      <g>
       <use xlink:href="#ma04fc4541d" x="100.8" y="98.340394" style="stroke: #000000; stroke-width: 0.8"/>
      </g>
     </g>
     <g id="text_1">
      <!-- −200 V -->
      <g transform="translate(44.819688 103.6593) scale(0.14 -0.14)">
       <defs>
        <path id="DejaVuSans-2212" d="M 678 2272 
L 4684 2272 
L 4684 1741 
L 678 1741 
L 678 2272 
z
" transform="scale(0.015625)"/>
        <path id="DejaVuSans-32" d="M 1228 531 
L 3431 531 
L 3431 0 
L 469 0 
L 469 531 
Q 828 903 1448 1529 
Q 2069 2156 2228 2338 
Q 2531 2678 2651 2914 
Q 2772 3150 2772 3378 
Q 2772 3750 2511 3984 
Q 2250 4219 1831 4219 
Q 1534 4219 1204 4116 
Q 875 4013 500 3803 
L 500 4441 
Q 881 4594 1212 4672 
Q 1544 4750 1819 4750 
Q 2544 4750 2975 4387 
Q 3406 4025 3406 3419 
Q 3406 3131 3298 2873 
Q 3191 2616 2906 2266 
Q 2828 2175 2409 1742 
Q 1991 1309 1228 531 
z
" transform="scale(0.015625)"/>
        <path id="DejaVuSans-30" d="M 2034 4250 
Q 1547 4250 1301 3770 
Q 1056 3291 1056 2328 
Q 1056 1369 1301 889 
Q 1547 409 2034 409 
Q 2525 409 2770 889 
Q 3016 1369 3016 2328 
Q 3016 3291 2770 3770 
Q 2525 4250 2034 4250 
z
M 2034 4750 
Q 2819 4750 3233 4129 
Q 3647 3509 3647 2328 
Q 3647 1150 3233 529 
Q 2819 -91 2034 -91 
Q 1250 -91 836 529 
Q 422 1150 422 2328 
Q 422 3509 836 4129 
Q 1250 4750 2034 4750 
z
" transform="scale(0.015625)"/>
        <path id="DejaVuSans-20" transform="scale(0.015625)"/>
        <path id="DejaVuSans-56" d="M 1831 0 
L 50 4666 
L 709 4666 
L 2188 738 
L 3669 4666 
L 4325 4666 
L 2547 0 
L 1831 0 
z
" transform="scale(0.015625)"/>
       </defs>
       <use xlink:href="#DejaVuSans-2212"/>
       <use xlink:href="#DejaVuSans-32" x="83.789062"/>
       <use xlink:href="#DejaVuSans-30" x="147.412109"/>
       <use xlink:href="#DejaVuSans-30" x="211.035156"/>
       <use xlink:href="#DejaVuSans-20" x="274.658203"/>
       <use xlink:href="#DejaVuSans-56" x="306.445312"/>
      </g>
     </g>
    </g>
    <g id="ytick_2">
     <g id="line2d_15">
      <path d="M 100.8 45.027377 
L 987.84 45.027377 
" clip-path="url(#pc76c18575f)" style="fill: none; stroke-dasharray: 1.85,0.8; stroke-dashoffset: 0; stroke: #b2b2b2; stroke-width: 0.5"/>
     </g>
     <g id="line2d_16">
      <g>
       <use xlink:href="#ma04fc4541d" x="100.8" y="45.027377" style="stroke: #000000; stroke-width: 0.8"/>
      </g>
     </g>
     <g id="text_2">
      <!-- 0 V -->
      <g transform="translate(74.36625 50.346284) scale(0.14 -0.14)">
       <use xlink:href="#DejaVuSans-30"/>
       <use xlink:href="#DejaVuSans-20" x="63.623047"/>
       <use xlink:href="#DejaVuSans-56" x="95.410156"/>
      </g>
     </g>
    </g>
    <g id="text_3">
     <g id="patch_3">
      <path d="M 34.8768 131.080205 
L 34.8768 39.41083 
L 11.247425 39.41083 
L 11.247425 131.080205 
z
" style="fill: #ffff00; opacity: 0.2; stroke: #eeeeee; stroke-width: 0.5; stroke-linejoin: miter"/>
     </g>
     <!-- VPULSE BBI -->
     <g transform="translate(26.925238 126.040205) rotate(-90) scale(0.14 -0.14)">
      <defs>
       <path id="DejaVuSans-50" d="M 1259 4147 
L 1259 2394 
L 2053 2394 
Q 2494 2394 2734 2622 
Q 2975 2850 2975 3272 
Q 2975 3691 2734 3919 
Q 2494 4147 2053 4147 
L 1259 4147 
z
M 628 4666 
L 2053 4666 
Q 2838 4666 3239 4311 
Q 3641 3956 3641 3272 
Q 3641 2581 3239 2228 
Q 2838 1875 2053 1875 
L 1259 1875 
L 1259 0 
L 628 0 
L 628 4666 
z
" transform="scale(0.015625)"/>
       <path id="DejaVuSans-55" d="M 556 4666 
L 1191 4666 
L 1191 1831 
Q 1191 1081 1462 751 
Q 1734 422 2344 422 
Q 2950 422 3222 751 
Q 3494 1081 3494 1831 
L 3494 4666 
L 4128 4666 
L 4128 1753 
Q 4128 841 3676 375 
Q 3225 -91 2344 -91 
Q 1459 -91 1007 375 
Q 556 841 556 1753 
L 556 4666 
z
" transform="scale(0.015625)"/>
       <path id="DejaVuSans-4c" d="M 628 4666 
L 1259 4666 
L 1259 531 
L 3531 531 
L 3531 0 
L 628 0 
L 628 4666 
z
" transform="scale(0.015625)"/>
       <path id="DejaVuSans-53" d="M 3425 4513 
L 3425 3897 
Q 3066 4069 2747 4153 
Q 2428 4238 2131 4238 
Q 1616 4238 1336 4038 
Q 1056 3838 1056 3469 
Q 1056 3159 1242 3001 
Q 1428 2844 1947 2747 
L 2328 2669 
Q 3034 2534 3370 2195 
Q 3706 1856 3706 1288 
Q 3706 609 3251 259 
Q 2797 -91 1919 -91 
Q 1588 -91 1214 -16 
Q 841 59 441 206 
L 441 856 
Q 825 641 1194 531 
Q 1563 422 1919 422 
Q 2459 422 2753 634 
Q 3047 847 3047 1241 
Q 3047 1584 2836 1778 
Q 2625 1972 2144 2069 
L 1759 2144 
Q 1053 2284 737 2584 
Q 422 2884 422 3419 
Q 422 4038 858 4394 
Q 1294 4750 2059 4750 
Q 2388 4750 2728 4690 
Q 3069 4631 3425 4513 
z
" transform="scale(0.015625)"/>
       <path id="DejaVuSans-45" d="M 628 4666 
L 3578 4666 
L 3578 4134 
L 1259 4134 
L 1259 2753 
L 3481 2753 
L 3481 2222 
L 1259 2222 
L 1259 531 
L 3634 531 
L 3634 0 
L 628 0 
L 628 4666 
z
" transform="scale(0.015625)"/>
       <path id="DejaVuSans-42" d="M 1259 2228 
L 1259 519 
L 2272 519 
Q 2781 519 3026 730 
Q 3272 941 3272 1375 
Q 3272 1813 3026 2020 
Q 2781 2228 2272 2228 
L 1259 2228 
z
M 1259 4147 
L 1259 2741 
L 2194 2741 
Q 2656 2741 2882 2914 
Q 3109 3088 3109 3444 
Q 3109 3797 2882 3972 
Q 2656 4147 2194 4147 
L 1259 4147 
z
M 628 4666 
L 2241 4666 
Q 2963 4666 3353 4366 
Q 3744 4066 3744 3513 
Q 3744 3084 3544 2831 
Q 3344 2578 2956 2516 
Q 3422 2416 3680 2098 
Q 3938 1781 3938 1306 
Q 3938 681 3513 340 
Q 3088 0 2303 0 
L 628 0 
L 628 4666 
z
" transform="scale(0.015625)"/>
       <path id="DejaVuSans-49" d="M 628 4666 
L 1259 4666 
L 1259 0 
L 628 0 
L 628 4666 
z
" transform="scale(0.015625)"/>
      </defs>
      <use xlink:href="#DejaVuSans-56"/>
      <use xlink:href="#DejaVuSans-50" x="68.408203"/>
      <use xlink:href="#DejaVuSans-55" x="128.710938"/>
      <use xlink:href="#DejaVuSans-4c" x="201.904297"/>
      <use xlink:href="#DejaVuSans-53" x="257.617188"/>
      <use xlink:href="#DejaVuSans-45" x="321.09375"/>
      <use xlink:href="#DejaVuSans-20" x="384.277344"/>
      <use xlink:href="#DejaVuSans-42" x="416.064453"/>
      <use xlink:href="#DejaVuSans-42" x="484.667969"/>
      <use xlink:href="#DejaVuSans-49" x="553.271484"/>
     </g>
    </g>
   </g>
   <g id="line2d_17">
    <path d="M 141.12 45.027377 
L 641.120256 45.136282 
L 641.604096 46.425538 
L 649.829376 69.006772 
L 657.248256 89.863624 
L 658.861056 94.440546 
L 660.667392 99.673219 
L 664.15104 110.807642 
L 665.731584 115.853719 
L 666.957312 119.550977 
L 670.860288 121.36362 
L 671.440896 121.619522 
L 672.311808 122.003376 
L 672.956928 122.269941 
L 674.537472 122.936354 
L 675.182592 123.202919 
L 676.279296 123.629423 
L 677.021184 123.922644 
L 678.117888 124.349149 
L 679.021056 124.677024 
L 679.698432 124.943589 
L 680.504832 125.25547 
L 681.859584 125.804594 
L 684.504576 126.790885 
L 685.11744 127.022796 
L 687.0528 127.395987 
L 705.535488 127.289361 
L 705.76128 126.801547 
L 724.050432 75.087922 
L 727.792128 63.292417 
L 731.501568 51.617666 
L 736.114176 49.3412 
L 741.468672 46.984578 
L 750.177792 43.484472 
L 751.048704 43.268927 
L 765.338112 43.108189 
L 772.144128 43.184799 
L 787.497984 43.746186 
L 815.2704 44.46146 
L 840.91392 44.774399 
L 876.524544 44.945888 
L 924.553728 44.953885 
L 947.52 44.953885 
L 947.52 44.953885 
" clip-path="url(#pc76c18575f)" style="fill: none; stroke: #ff0000; stroke-width: 2; stroke-linecap: square"/>
   </g>
   <g id="patch_4">
    <path d="M 100.8 131.611034 
L 100.8 38.88 
" style="fill: none; stroke: #bcbcbc; stroke-width: 0.8; stroke-linejoin: miter; stroke-linecap: square"/>
   </g>
   <g id="patch_5">
    <path d="M 987.84 131.611034 
L 987.84 38.88 
" style="fill: none; stroke: #bcbcbc; stroke-width: 0.8; stroke-linejoin: miter; stroke-linecap: square"/>
   </g>
   <g id="patch_6">
    <path d="M 100.8 131.611034 
L 987.84 131.611034 
" style="fill: none; stroke: #bcbcbc; stroke-width: 0.8; stroke-linejoin: miter; stroke-linecap: square"/>
   </g>
   <g id="patch_7">
    <path d="M 100.8 38.88 
L 987.84 38.88 
" style="fill: none; stroke: #bcbcbc; stroke-width: 0.8; stroke-linejoin: miter; stroke-linecap: square"/>
   </g>
  </g>
  <g id="axes_2">
   <g id="patch_8">
    <path d="M 100.8 242.888276 
L 987.84 242.888276 
L 987.84 150.157241 
L 100.8 150.157241 
z
" style="fill: #eeeeee"/>
   </g>
   <g id="matplotlib.axis_3">
    <g id="xtick_7">
     <g id="line2d_18">
      <path d="M 141.12 242.888276 
L 141.12 150.157241 
" clip-path="url(#pf39d6cfffe)" style="fill: none; stroke-dasharray: 1.85,0.8; stroke-dashoffset: 0; stroke: #b2b2b2; stroke-width: 0.5"/>
     </g>
     <g id="line2d_19">
      <g>
       <use xlink:href="#m5178252732" x="141.12" y="242.888276" style="stroke: #000000; stroke-width: 0.8"/>
      </g>
     </g>
    </g>
    <g id="xtick_8">
     <g id="line2d_20">
      <path d="M 302.4 242.888276 
L 302.4 150.157241 
" clip-path="url(#pf39d6cfffe)" style="fill: none; stroke-dasharray: 1.85,0.8; stroke-dashoffset: 0; stroke: #b2b2b2; stroke-width: 0.5"/>
     </g>
     <g id="line2d_21">
      <g>
       <use xlink:href="#m5178252732" x="302.4" y="242.888276" style="stroke: #000000; stroke-width: 0.8"/>
      </g>
     </g>
    </g>
    <g id="xtick_9">
     <g id="line2d_22">
      <path d="M 463.68 242.888276 
L 463.68 150.157241 
" clip-path="url(#pf39d6cfffe)" style="fill: none; stroke-dasharray: 1.85,0.8; stroke-dashoffset: 0; stroke: #b2b2b2; stroke-width: 0.5"/>
     </g>
     <g id="line2d_23">
      <g>
       <use xlink:href="#m5178252732" x="463.68" y="242.888276" style="stroke: #000000; stroke-width: 0.8"/>
      </g>
     </g>
    </g>
    <g id="xtick_10">
     <g id="line2d_24">
      <path d="M 624.96 242.888276 
L 624.96 150.157241 
" clip-path="url(#pf39d6cfffe)" style="fill: none; stroke-dasharray: 1.85,0.8; stroke-dashoffset: 0; stroke: #b2b2b2; stroke-width: 0.5"/>
     </g>
     <g id="line2d_25">
      <g>
       <use xlink:href="#m5178252732" x="624.96" y="242.888276" style="stroke: #000000; stroke-width: 0.8"/>
      </g>
     </g>
    </g>
    <g id="xtick_11">
     <g id="line2d_26">
      <path d="M 786.24 242.888276 
L 786.24 150.157241 
" clip-path="url(#pf39d6cfffe)" style="fill: none; stroke-dasharray: 1.85,0.8; stroke-dashoffset: 0; stroke: #b2b2b2; stroke-width: 0.5"/>
     </g>
     <g id="line2d_27">
      <g>
       <use xlink:href="#m5178252732" x="786.24" y="242.888276" style="stroke: #000000; stroke-width: 0.8"/>
      </g>
     </g>
    </g>
    <g id="xtick_12">
     <g id="line2d_28">
      <path d="M 947.52 242.888276 
L 947.52 150.157241 
" clip-path="url(#pf39d6cfffe)" style="fill: none; stroke-dasharray: 1.85,0.8; stroke-dashoffset: 0; stroke: #b2b2b2; stroke-width: 0.5"/>
     </g>
     <g id="line2d_29">
      <g>
       <use xlink:href="#m5178252732" x="947.52" y="242.888276" style="stroke: #000000; stroke-width: 0.8"/>
      </g>
     </g>
    </g>
   </g>
   <g id="matplotlib.axis_4">
    <g id="ytick_3">
     <g id="line2d_30">
      <path d="M 100.8 219.186791 
L 987.84 219.186791 
" clip-path="url(#pf39d6cfffe)" style="fill: none; stroke-dasharray: 1.85,0.8; stroke-dashoffset: 0; stroke: #b2b2b2; stroke-width: 0.5"/>
     </g>
     <g id="line2d_31">
      <g>
       <use xlink:href="#ma04fc4541d" x="100.8" y="219.186791" style="stroke: #000000; stroke-width: 0.8"/>
      </g>
     </g>
     <g id="text_4">
      <!-- 0 V -->
      <g transform="translate(74.36625 224.505697) scale(0.14 -0.14)">
       <use xlink:href="#DejaVuSans-30"/>
       <use xlink:href="#DejaVuSans-20" x="63.623047"/>
       <use xlink:href="#DejaVuSans-56" x="95.410156"/>
      </g>
     </g>
    </g>
    <g id="ytick_4">
     <g id="line2d_32">
      <path d="M 100.8 185.516919 
L 987.84 185.516919 
" clip-path="url(#pf39d6cfffe)" style="fill: none; stroke-dasharray: 1.85,0.8; stroke-dashoffset: 0; stroke: #b2b2b2; stroke-width: 0.5"/>
     </g>
     <g id="line2d_33">
      <g>
       <use xlink:href="#ma04fc4541d" x="100.8" y="185.516919" style="stroke: #000000; stroke-width: 0.8"/>
      </g>
     </g>
     <g id="text_5">
      <!-- 1 V -->
      <g transform="translate(74.36625 190.835826) scale(0.14 -0.14)">
       <defs>
        <path id="DejaVuSans-31" d="M 794 531 
L 1825 531 
L 1825 4091 
L 703 3866 
L 703 4441 
L 1819 4666 
L 2450 4666 
L 2450 531 
L 3481 531 
L 3481 0 
L 794 0 
L 794 531 
z
" transform="scale(0.015625)"/>
       </defs>
       <use xlink:href="#DejaVuSans-31"/>
       <use xlink:href="#DejaVuSans-20" x="63.623047"/>
       <use xlink:href="#DejaVuSans-56" x="95.410156"/>
      </g>
     </g>
    </g>
    <g id="ytick_5">
     <g id="line2d_34">
      <path d="M 100.8 151.847048 
L 987.84 151.847048 
" clip-path="url(#pf39d6cfffe)" style="fill: none; stroke-dasharray: 1.85,0.8; stroke-dashoffset: 0; stroke: #b2b2b2; stroke-width: 0.5"/>
     </g>
     <g id="line2d_35">
      <g>
       <use xlink:href="#ma04fc4541d" x="100.8" y="151.847048" style="stroke: #000000; stroke-width: 0.8"/>
      </g>
     </g>
     <g id="text_6">
      <!-- 2 V -->
      <g transform="translate(74.36625 157.165954) scale(0.14 -0.14)">
       <use xlink:href="#DejaVuSans-32"/>
       <use xlink:href="#DejaVuSans-20" x="63.623047"/>
       <use xlink:href="#DejaVuSans-56" x="95.410156"/>
      </g>
     </g>
    </g>
    <g id="text_7">
     <g id="patch_9">
      <path d="M 34.8768 224.531509 
L 34.8768 168.514009 
L 11.247425 168.514009 
L 11.247425 224.531509 
z
" style="fill: #ffff00; opacity: 0.2; stroke: #eeeeee; stroke-width: 0.5; stroke-linejoin: miter"/>
     </g>
     <!-- DFF IN -->
     <g transform="translate(26.925238 219.491509) rotate(-90) scale(0.14 -0.14)">
      <defs>
       <path id="DejaVuSans-44" d="M 1259 4147 
L 1259 519 
L 2022 519 
Q 2988 519 3436 956 
Q 3884 1394 3884 2338 
Q 3884 3275 3436 3711 
Q 2988 4147 2022 4147 
L 1259 4147 
z
M 628 4666 
L 1925 4666 
Q 3281 4666 3915 4102 
Q 4550 3538 4550 2338 
Q 4550 1131 3912 565 
Q 3275 0 1925 0 
L 628 0 
L 628 4666 
z
" transform="scale(0.015625)"/>
       <path id="DejaVuSans-46" d="M 628 4666 
L 3309 4666 
L 3309 4134 
L 1259 4134 
L 1259 2759 
L 3109 2759 
L 3109 2228 
L 1259 2228 
L 1259 0 
L 628 0 
L 628 4666 
z
" transform="scale(0.015625)"/>
       <path id="DejaVuSans-4e" d="M 628 4666 
L 1478 4666 
L 3547 763 
L 3547 4666 
L 4159 4666 
L 4159 0 
L 3309 0 
L 1241 3903 
L 1241 0 
L 628 0 
L 628 4666 
z
" transform="scale(0.015625)"/>
      </defs>
      <use xlink:href="#DejaVuSans-44"/>
      <use xlink:href="#DejaVuSans-46" x="77.001953"/>
      <use xlink:href="#DejaVuSans-46" x="134.521484"/>
      <use xlink:href="#DejaVuSans-20" x="192.041016"/>
      <use xlink:href="#DejaVuSans-49" x="223.828125"/>
      <use xlink:href="#DejaVuSans-4e" x="253.320312"/>
     </g>
    </g>
   </g>
   <g id="line2d_36">
    <path d="M 141.12 219.137619 
L 221.953536 219.091448 
L 224.437248 200.330989 
L 225.404928 194.623946 
L 228.243456 182.075859 
L 229.598208 180.816605 
L 231.178752 179.95129 
L 236.565504 179.500113 
L 243.661824 179.389003 
L 245.1456 179.345232 
L 248.403456 179.234121 
L 250.113024 179.166782 
L 252.177408 179.055671 
L 254.241792 178.729073 
L 254.757888 178.197089 
L 255.499776 177.860391 
L 256.370688 177.880593 
L 257.531904 178.112915 
L 259.98336 178.513586 
L 262.370304 178.651633 
L 263.886336 178.702137 
L 264.144384 183.894032 
L 264.434688 187.426675 
L 265.176576 192.132712 
L 267.144192 209.310071 
L 268.402176 215.759535 
L 269.079552 217.07468 
L 270.46656 218.777904 
L 273.724416 219.188609 
L 282.56256 219.141845 
L 297.07776 219.131205 
L 305.851392 219.136811 
L 347.751936 219.093128 
L 350.235648 200.37072 
L 351.622656 191.810828 
L 352.687104 186.466746 
L 354.97728 179.634793 
L 358.493184 178.644899 
L 360.235008 178.715605 
L 363.073536 178.826716 
L 364.396032 178.853652 
L 375.169536 178.924359 
L 375.717888 179.907519 
L 376.169472 180.651623 
L 377.008128 181.550609 
L 377.524224 181.500104 
L 378.427392 181.210543 
L 380.427264 180.082602 
L 381.58848 179.712234 
L 387.201024 179.237488 
L 389.65248 179.126378 
L 391.813632 179.0119 
L 394.555392 178.90079 
L 395.9424 178.86712 
L 415.392768 178.759376 
L 415.973376 178.139851 
L 416.844288 177.806519 
L 417.908736 177.910895 
L 419.16672 178.190355 
L 420.908544 178.442879 
L 424.00512 178.655 
L 455.712768 178.756009 
L 456.809472 179.63816 
L 457.261056 179.708867 
L 458.712576 179.74927 
L 462.744576 179.217286 
L 464.16384 179.032102 
L 467.518464 178.793046 
L 496.065024 178.712238 
L 496.58112 178.176887 
L 497.258496 177.873859 
L 498.387456 177.867125 
L 502.06464 178.523687 
L 504.258048 178.641532 
L 536.352768 178.752642 
L 537.255936 179.550618 
L 537.901056 179.708867 
L 539.352576 179.74927 
L 544.449024 179.106176 
L 545.61024 178.974863 
L 548.803584 178.752642 
L 576.73728 178.668468 
L 577.22112 178.176887 
L 577.898496 177.873859 
L 579.027456 177.867125 
L 582.70464 178.523687 
L 584.898048 178.641532 
L 616.992768 178.752642 
L 618.057216 179.614591 
L 619.444224 179.793041 
L 621.08928 179.685298 
L 624.31488 179.123011 
L 627.992064 178.850285 
L 641.217024 178.961395 
L 643.700736 182.897403 
L 650.313216 192.046181 
L 650.7648 193.414188 
L 652.119552 198.403053 
L 652.506624 199.760285 
L 653.248512 202.761617 
L 653.893632 205.87204 
L 655.248384 211.708039 
L 657.151488 218.45299 
L 657.312768 219.024768 
L 658.8288 223.45613 
L 659.022336 223.888788 
L 659.441664 225.063867 
L 659.860992 225.87026 
L 660.312576 226.319753 
L 660.506112 226.732882 
L 660.893184 227.793483 
L 661.312512 228.593143 
L 661.473792 228.791458 
L 661.828608 229.698525 
L 662.828544 231.373264 
L 662.957568 231.778986 
L 663.376896 232.670227 
L 663.796224 233.328137 
L 664.054272 233.723084 
L 664.409088 234.513316 
L 666.8928 238.635182 
L 667.05408 238.662454 
L 667.183104 238.553701 
L 667.441152 238.123737 
L 667.731456 237.748654 
L 668.086272 237.258084 
L 669.053952 235.747317 
L 669.731328 235.021395 
L 670.408704 233.949346 
L 670.505472 233.975608 
L 670.537728 233.935541 
L 670.699008 233.810963 
L 670.9248 233.588068 
L 671.08608 233.476284 
L 671.827968 232.914671 
L 672.311808 232.27932 
L 672.634368 231.772252 
L 672.924672 231.604913 
L 673.085952 231.515014 
L 673.408512 231.263837 
L 674.924544 230.078657 
L 675.795456 229.222433 
L 676.343808 228.872266 
L 677.311488 228.100216 
L 678.053376 227.300556 
L 678.246912 227.09012 
L 678.859776 226.650728 
L 679.246848 226.469247 
L 681.24672 224.838952 
L 681.472512 224.596529 
L 681.633792 224.425486 
L 681.956352 224.279696 
L 682.407936 224.04165 
L 684.665856 222.291389 
L 685.020672 221.987047 
L 686.08512 221.175872 
L 686.859264 220.404697 
L 687.568896 219.506921 
L 688.6656 217.993935 
L 689.439744 216.926229 
L 690.310656 215.695899 
L 693.213696 211.99558 
L 695.503872 209.337343 
L 696.665088 205.890895 
L 697.761792 202.969361 
L 698.632704 201.213477 
L 701.600256 197.038749 
L 702.309888 196.327978 
L 703.116288 195.382528 
L 703.890432 194.425967 
L 705.212928 193.225973 
L 705.696768 192.558973 
L 706.051584 191.44248 
L 707.406336 186.976845 
L 708.244992 185.082578 
L 709.115904 183.59437 
L 710.212608 182.082593 
L 711.88992 179.98496 
L 712.664064 179.018634 
L 716.470272 174.075897 
L 720.986112 168.133165 
L 731.501568 155.113026 
L 733.0176 155.483394 
L 733.953024 155.493495 
L 736.275456 155.847029 
L 737.920512 156.271269 
L 738.081792 155.692147 
L 738.468864 154.719088 
L 738.82368 154.399224 
L 739.243008 154.412692 
L 739.726848 154.67195 
L 741.049344 155.628175 
L 742.275072 156.877327 
L 743.920128 157.944662 
L 746.694144 158.985061 
L 751.40352 160.570912 
L 753.887232 161.742623 
L 763.886592 165.799843 
L 778.33728 170.42945 
L 778.853376 171.604529 
L 779.30496 172.079274 
L 779.692032 172.200485 
L 780.11136 172.022035 
L 780.724224 171.597795 
L 781.853184 171.23416 
L 784.723968 171.641565 
L 785.788416 171.86042 
L 786.852864 172.079274 
L 787.8528 172.281293 
L 789.078528 172.520349 
L 790.046208 172.7089 
L 791.40096 172.961424 
L 792.20736 173.106205 
L 792.884736 173.217315 
L 794.62656 173.510243 
L 795.400704 173.641556 
L 796.174848 173.749299 
L 798.077952 174.03886 
L 798.787584 174.13987 
L 799.239168 174.210577 
L 800.045568 174.314953 
L 800.787456 174.432798 
L 802.174464 174.611248 
L 818.592768 176.230769 
L 819.044352 175.708886 
L 819.721728 175.409224 
L 820.205568 175.419325 
L 820.9152 175.597775 
L 821.56032 175.813262 
L 822.624768 176.146594 
L 823.947264 176.446256 
L 825.59232 176.681945 
L 826.689024 176.789689 
L 827.559936 176.863762 
L 828.1728 176.9109 
L 831.108096 177.106186 
L 833.269248 177.213929 
L 833.720832 177.247599 
L 834.46272 177.281269 
L 836.365824 177.368811 
L 839.010816 177.479921 
L 840.655872 177.543894 
L 841.430016 177.574197 
L 844.881408 177.685307 
L 845.300736 177.708876 
L 849.1392 177.819987 
L 849.78432 177.846923 
L 850.655232 177.867125 
L 852.074496 177.904162 
L 856.783872 178.015272 
L 857.461248 178.045575 
L 858.364416 178.059043 
L 858.783744 178.075878 
L 858.97728 178.16342 
L 859.493376 178.739174 
L 860.10624 179.052304 
L 861.009408 179.136479 
L 861.977088 178.931093 
L 863.17056 178.550623 
L 866.428416 178.318301 
L 866.912256 178.311567 
L 877.68576 178.419311 
L 878.201856 178.419311 
L 899.29728 178.325035 
L 899.845632 177.766115 
L 900.523008 177.530426 
L 901.684224 177.516958 
L 905.5872 178.220658 
L 907.651584 178.325035 
L 939.552768 178.419311 
L 940.617216 179.277892 
L 941.55264 179.463077 
L 943.455744 179.355333 
L 946.423296 178.846918 
L 947.52 178.675202 
L 947.52 178.675202 
" clip-path="url(#pf39d6cfffe)" style="fill: none; stroke: #008000; stroke-width: 2; stroke-linecap: square"/>
   </g>
   <g id="patch_10">
    <path d="M 100.8 242.888276 
L 100.8 150.157241 
" style="fill: none; stroke: #bcbcbc; stroke-width: 0.8; stroke-linejoin: miter; stroke-linecap: square"/>
   </g>
   <g id="patch_11">
    <path d="M 987.84 242.888276 
L 987.84 150.157241 
" style="fill: none; stroke: #bcbcbc; stroke-width: 0.8; stroke-linejoin: miter; stroke-linecap: square"/>
   </g>
   <g id="patch_12">
    <path d="M 100.8 242.888276 
L 987.84 242.888276 
" style="fill: none; stroke: #bcbcbc; stroke-width: 0.8; stroke-linejoin: miter; stroke-linecap: square"/>
   </g>
   <g id="patch_13">
    <path d="M 100.8 150.157241 
L 987.84 150.157241 
" style="fill: none; stroke: #bcbcbc; stroke-width: 0.8; stroke-linejoin: miter; stroke-linecap: square"/>
   </g>
  </g>
  <g id="axes_3">
   <g id="patch_14">
    <path d="M 100.8 354.165517 
L 987.84 354.165517 
L 987.84 261.434483 
L 100.8 261.434483 
z
" style="fill: #eeeeee"/>
   </g>
   <g id="matplotlib.axis_5">
    <g id="xtick_13">
     <g id="line2d_37">
      <path d="M 141.12 354.165517 
L 141.12 261.434483 
" clip-path="url(#p62f9d701d7)" style="fill: none; stroke-dasharray: 1.85,0.8; stroke-dashoffset: 0; stroke: #b2b2b2; stroke-width: 0.5"/>
     </g>
     <g id="line2d_38">
      <g>
       <use xlink:href="#m5178252732" x="141.12" y="354.165517" style="stroke: #000000; stroke-width: 0.8"/>
      </g>
     </g>
    </g>
    <g id="xtick_14">
     <g id="line2d_39">
      <path d="M 302.4 354.165517 
L 302.4 261.434483 
" clip-path="url(#p62f9d701d7)" style="fill: none; stroke-dasharray: 1.85,0.8; stroke-dashoffset: 0; stroke: #b2b2b2; stroke-width: 0.5"/>
     </g>
     <g id="line2d_40">
      <g>
       <use xlink:href="#m5178252732" x="302.4" y="354.165517" style="stroke: #000000; stroke-width: 0.8"/>
      </g>
     </g>
    </g>
    <g id="xtick_15">
     <g id="line2d_41">
      <path d="M 463.68 354.165517 
L 463.68 261.434483 
" clip-path="url(#p62f9d701d7)" style="fill: none; stroke-dasharray: 1.85,0.8; stroke-dashoffset: 0; stroke: #b2b2b2; stroke-width: 0.5"/>
     </g>
     <g id="line2d_42">
      <g>
       <use xlink:href="#m5178252732" x="463.68" y="354.165517" style="stroke: #000000; stroke-width: 0.8"/>
      </g>
     </g>
    </g>
    <g id="xtick_16">
     <g id="line2d_43">
      <path d="M 624.96 354.165517 
L 624.96 261.434483 
" clip-path="url(#p62f9d701d7)" style="fill: none; stroke-dasharray: 1.85,0.8; stroke-dashoffset: 0; stroke: #b2b2b2; stroke-width: 0.5"/>
     </g>
     <g id="line2d_44">
      <g>
       <use xlink:href="#m5178252732" x="624.96" y="354.165517" style="stroke: #000000; stroke-width: 0.8"/>
      </g>
     </g>
    </g>
    <g id="xtick_17">
     <g id="line2d_45">
      <path d="M 786.24 354.165517 
L 786.24 261.434483 
" clip-path="url(#p62f9d701d7)" style="fill: none; stroke-dasharray: 1.85,0.8; stroke-dashoffset: 0; stroke: #b2b2b2; stroke-width: 0.5"/>
     </g>
     <g id="line2d_46">
      <g>
       <use xlink:href="#m5178252732" x="786.24" y="354.165517" style="stroke: #000000; stroke-width: 0.8"/>
      </g>
     </g>
    </g>
    <g id="xtick_18">
     <g id="line2d_47">
      <path d="M 947.52 354.165517 
L 947.52 261.434483 
" clip-path="url(#p62f9d701d7)" style="fill: none; stroke-dasharray: 1.85,0.8; stroke-dashoffset: 0; stroke: #b2b2b2; stroke-width: 0.5"/>
     </g>
     <g id="line2d_48">
      <g>
       <use xlink:href="#m5178252732" x="947.52" y="354.165517" style="stroke: #000000; stroke-width: 0.8"/>
      </g>
     </g>
    </g>
   </g>
   <g id="matplotlib.axis_6">
    <g id="ytick_6">
     <g id="line2d_49">
      <path d="M 100.8 348.405634 
L 987.84 348.405634 
" clip-path="url(#p62f9d701d7)" style="fill: none; stroke-dasharray: 1.85,0.8; stroke-dashoffset: 0; stroke: #b2b2b2; stroke-width: 0.5"/>
     </g>
     <g id="line2d_50">
      <g>
       <use xlink:href="#ma04fc4541d" x="100.8" y="348.405634" style="stroke: #000000; stroke-width: 0.8"/>
      </g>
     </g>
     <g id="text_8">
      <!-- 0 V -->
      <g transform="translate(74.36625 353.72454) scale(0.14 -0.14)">
       <use xlink:href="#DejaVuSans-30"/>
       <use xlink:href="#DejaVuSans-20" x="63.623047"/>
       <use xlink:href="#DejaVuSans-56" x="95.410156"/>
      </g>
     </g>
    </g>
    <g id="ytick_7">
     <g id="line2d_51">
      <path d="M 100.8 304.589197 
L 987.84 304.589197 
" clip-path="url(#p62f9d701d7)" style="fill: none; stroke-dasharray: 1.85,0.8; stroke-dashoffset: 0; stroke: #b2b2b2; stroke-width: 0.5"/>
     </g>
     <g id="line2d_52">
      <g>
       <use xlink:href="#ma04fc4541d" x="100.8" y="304.589197" style="stroke: #000000; stroke-width: 0.8"/>
      </g>
     </g>
     <g id="text_9">
      <!-- 1 V -->
      <g transform="translate(74.36625 309.908103) scale(0.14 -0.14)">
       <use xlink:href="#DejaVuSans-31"/>
       <use xlink:href="#DejaVuSans-20" x="63.623047"/>
       <use xlink:href="#DejaVuSans-56" x="95.410156"/>
      </g>
     </g>
    </g>
    <g id="text_10">
     <g id="patch_15">
      <path d="M 34.8768 342.395313 
L 34.8768 273.204688 
L 11.247425 273.204688 
L 11.247425 342.395313 
z
" style="fill: #ffff00; opacity: 0.2; stroke: #eeeeee; stroke-width: 0.5; stroke-linejoin: miter"/>
     </g>
     <!-- CLK BUF -->
     <g transform="translate(26.925238 337.355313) rotate(-90) scale(0.14 -0.14)">
      <defs>
       <path id="DejaVuSans-43" d="M 4122 4306 
L 4122 3641 
Q 3803 3938 3442 4084 
Q 3081 4231 2675 4231 
Q 1875 4231 1450 3742 
Q 1025 3253 1025 2328 
Q 1025 1406 1450 917 
Q 1875 428 2675 428 
Q 3081 428 3442 575 
Q 3803 722 4122 1019 
L 4122 359 
Q 3791 134 3420 21 
Q 3050 -91 2638 -91 
Q 1578 -91 968 557 
Q 359 1206 359 2328 
Q 359 3453 968 4101 
Q 1578 4750 2638 4750 
Q 3056 4750 3426 4639 
Q 3797 4528 4122 4306 
z
" transform="scale(0.015625)"/>
       <path id="DejaVuSans-4b" d="M 628 4666 
L 1259 4666 
L 1259 2694 
L 3353 4666 
L 4166 4666 
L 1850 2491 
L 4331 0 
L 3500 0 
L 1259 2247 
L 1259 0 
L 628 0 
L 628 4666 
z
" transform="scale(0.015625)"/>
      </defs>
      <use xlink:href="#DejaVuSans-43"/>
      <use xlink:href="#DejaVuSans-4c" x="69.824219"/>
      <use xlink:href="#DejaVuSans-4b" x="125.537109"/>
      <use xlink:href="#DejaVuSans-20" x="191.113281"/>
      <use xlink:href="#DejaVuSans-42" x="222.900391"/>
      <use xlink:href="#DejaVuSans-55" x="291.503906"/>
      <use xlink:href="#DejaVuSans-46" x="364.697266"/>
     </g>
    </g>
   </g>
   <g id="line2d_53">
    <path d="M 141.12 348.404476 
L 173.376 348.404476 
L 173.601792 295.82591 
L 213.696 295.82591 
L 213.760512 337.766565 
L 213.825024 348.385617 
L 213.889536 348.322563 
L 213.954048 348.497605 
L 214.01856 348.410382 
L 215.341056 348.401189 
L 223.276032 348.404448 
L 254.016 348.404445 
L 254.17728 295.663789 
L 254.241792 295.944214 
L 254.403072 295.817147 
L 254.854656 295.82591 
L 294.336 295.82591 
L 294.400512 337.729759 
L 294.465024 348.732597 
L 294.529536 347.970791 
L 294.626304 348.474492 
L 294.65856 348.443312 
L 294.852096 348.366298 
L 295.206912 348.421578 
L 295.497216 348.404134 
L 320.237568 348.404475 
L 334.656 348.404478 
L 334.81728 295.74704 
L 334.881792 295.843436 
L 335.204352 295.830291 
L 336.043008 295.82591 
L 374.976 295.82591 
L 375.040512 337.770509 
L 375.105024 348.406345 
L 375.169536 348.317007 
L 375.234048 348.491085 
L 375.29856 348.410528 
L 376.685568 348.40081 
L 384.910848 348.404423 
L 415.296 348.404477 
L 415.45728 295.663789 
L 415.521792 295.944214 
L 415.683072 295.812765 
L 416.58624 295.82591 
L 455.616 295.82591 
L 455.680512 337.732388 
L 455.745024 348.737995 
L 455.809536 347.768412 
L 455.906304 349.048509 
L 455.93856 348.476902 
L 456.132096 348.379319 
L 456.519168 348.404929 
L 489.388032 348.404474 
L 495.936 348.404475 
L 496.09728 295.738277 
L 496.161792 295.843436 
L 497.097216 295.82591 
L 536.256 295.82591 
L 536.320512 337.732388 
L 536.385024 348.737947 
L 536.449536 347.768499 
L 536.546304 349.048421 
L 536.57856 348.476897 
L 536.772096 348.379321 
L 537.159168 348.404929 
L 570.028032 348.404474 
L 576.576 348.404476 
L 576.73728 295.738277 
L 576.801792 295.843436 
L 577.737216 295.82591 
L 616.896 295.82591 
L 616.960512 337.732388 
L 617.025024 348.359272 
L 617.089536 348.32467 
L 617.154048 348.506114 
L 617.21856 348.410742 
L 618.67008 348.401624 
L 627.314688 348.404178 
L 641.152512 348.486861 
L 641.829888 349.147622 
L 642.604032 349.561205 
L 643.636224 349.822877 
L 644.894208 349.934302 
L 647.506944 349.924399 
L 657.216 349.619919 
L 657.248256 349.062311 
L 657.409536 322.287971 
L 657.570816 322.486897 
L 659.764224 325.250838 
L 663.215616 328.390724 
L 663.957504 328.959461 
L 666.699264 330.870734 
L 666.957312 330.941279 
L 667.989504 330.399269 
L 670.44096 329.402007 
L 670.537728 329.426106 
L 670.699008 329.298162 
L 671.021568 329.196508 
L 671.989248 328.833708 
L 674.827776 327.782114 
L 674.9568 327.684841 
L 675.085824 327.717265 
L 675.44064 327.519215 
L 675.569664 327.517462 
L 675.795456 327.469702 
L 675.956736 327.404854 
L 676.24704 327.293998 
L 680.408064 325.828777 
L 680.92416 325.645186 
L 681.053184 325.515489 
L 681.182208 325.617143 
L 681.343488 325.439249 
L 681.375744 325.486132 
L 681.504768 325.473426 
L 681.633792 325.421284 
L 686.665728 323.527099 
L 687.37536 323.122236 
L 690.43968 321.163641 
L 694.47168 318.504859 
L 697.536 316.628201 
L 697.568256 314.53991 
L 697.600512 317.029998 
L 697.69728 348.137206 
L 697.761792 347.913751 
L 697.890816 347.898722 
L 700.374528 347.931759 
L 705.664512 347.898108 
L 706.309632 347.260229 
L 707.083776 346.842527 
L 708.083712 346.588479 
L 709.567488 346.479069 
L 712.244736 346.530554 
L 726.792192 346.933183 
L 730.856448 347.037641 
L 731.469312 347.15818 
L 732.114432 347.810651 
L 732.85632 348.245108 
L 733.791744 348.537048 
L 735.146496 348.718286 
L 737.597952 348.799351 
L 737.856 348.801358 
L 737.888256 339.518784 
L 737.985024 265.64953 
L 738.01728 266.105221 
L 738.146304 266.078931 
L 740.178432 267.016603 
L 740.468736 267.178723 
L 742.823424 268.256608 
L 744.081408 268.817458 
L 751.468032 271.94157 
L 752.080896 272.300865 
L 754.338816 273.64603 
L 754.758144 273.895783 
L 764.176896 278.890857 
L 766.854144 280.100191 
L 767.725056 280.455104 
L 768.370176 280.744292 
L 777.079296 284.175119 
L 777.337344 284.275897 
L 778.176 284.565086 
L 778.369536 348.799912 
L 778.434048 348.703393 
L 778.788864 348.696856 
L 818.496 348.492465 
L 818.625024 292.28116 
L 818.721792 292.671126 
L 820.012032 292.771904 
L 820.463616 292.846392 
L 821.850624 292.94717 
L 822.20544 292.977841 
L 824.62464 293.201305 
L 825.140736 293.24074 
L 826.495488 293.341518 
L 826.850304 293.376571 
L 827.334144 293.416006 
L 829.108224 293.547455 
L 830.656512 293.648233 
L 831.011328 293.678904 
L 832.591872 293.779682 
L 832.946688 293.810354 
L 834.720768 293.911132 
L 835.075584 293.941803 
L 836.946432 294.042581 
L 837.301248 294.073252 
L 839.365632 294.17403 
L 839.720448 294.204702 
L 841.978368 294.305479 
L 842.333184 294.336151 
L 844.881408 294.436929 
L 845.236224 294.4676 
L 847.977984 294.568378 
L 848.3328 294.59905 
L 851.461632 294.699827 
L 851.816448 294.730499 
L 855.42912 294.831277 
L 855.783936 294.861948 
L 858.816 294.949581 
L 858.848256 299.379423 
L 858.912768 348.537543 
L 858.97728 348.211339 
L 859.074048 348.441676 
L 859.106304 348.428621 
L 867.105792 348.424313 
L 871.7184 348.420713 
L 899.136 348.417019 
L 899.29728 295.1599 
L 899.361792 295.655026 
L 899.45856 295.203716 
L 899.523072 295.370219 
L 900.006912 295.387745 
L 939.456 295.387745 
L 939.488256 303.287849 
L 939.61728 348.364913 
L 939.649536 348.492325 
L 939.714048 348.370422 
L 939.746304 348.331974 
L 939.810816 348.388526 
L 940.004352 348.443246 
L 940.197888 348.416298 
L 945.520128 348.417029 
L 947.52 348.417013 
L 947.52 348.417013 
" clip-path="url(#p62f9d701d7)" style="fill: none; stroke: #0000ff; stroke-width: 2; stroke-linecap: square"/>
   </g>
   <g id="patch_16">
    <path d="M 100.8 354.165517 
L 100.8 261.434483 
" style="fill: none; stroke: #bcbcbc; stroke-width: 0.8; stroke-linejoin: miter; stroke-linecap: square"/>
   </g>
   <g id="patch_17">
    <path d="M 987.84 354.165517 
L 987.84 261.434483 
" style="fill: none; stroke: #bcbcbc; stroke-width: 0.8; stroke-linejoin: miter; stroke-linecap: square"/>
   </g>
   <g id="patch_18">
    <path d="M 100.8 354.165517 
L 987.84 354.165517 
" style="fill: none; stroke: #bcbcbc; stroke-width: 0.8; stroke-linejoin: miter; stroke-linecap: square"/>
   </g>
   <g id="patch_19">
    <path d="M 100.8 261.434483 
L 987.84 261.434483 
" style="fill: none; stroke: #bcbcbc; stroke-width: 0.8; stroke-linejoin: miter; stroke-linecap: square"/>
   </g>
  </g>
  <g id="axes_4">
   <g id="patch_20">
    <path d="M 100.8 465.442759 
L 987.84 465.442759 
L 987.84 372.711724 
L 100.8 372.711724 
z
" style="fill: #eeeeee"/>
   </g>
   <g id="matplotlib.axis_7">
    <g id="xtick_19">
     <g id="line2d_54">
      <path d="M 141.12 465.442759 
L 141.12 372.711724 
" clip-path="url(#p853cfa50a9)" style="fill: none; stroke-dasharray: 1.85,0.8; stroke-dashoffset: 0; stroke: #b2b2b2; stroke-width: 0.5"/>
     </g>
     <g id="line2d_55">
      <g>
       <use xlink:href="#m5178252732" x="141.12" y="465.442759" style="stroke: #000000; stroke-width: 0.8"/>
      </g>
     </g>
    </g>
    <g id="xtick_20">
     <g id="line2d_56">
      <path d="M 302.4 465.442759 
L 302.4 372.711724 
" clip-path="url(#p853cfa50a9)" style="fill: none; stroke-dasharray: 1.85,0.8; stroke-dashoffset: 0; stroke: #b2b2b2; stroke-width: 0.5"/>
     </g>
     <g id="line2d_57">
      <g>
       <use xlink:href="#m5178252732" x="302.4" y="465.442759" style="stroke: #000000; stroke-width: 0.8"/>
      </g>
     </g>
    </g>
    <g id="xtick_21">
     <g id="line2d_58">
      <path d="M 463.68 465.442759 
L 463.68 372.711724 
" clip-path="url(#p853cfa50a9)" style="fill: none; stroke-dasharray: 1.85,0.8; stroke-dashoffset: 0; stroke: #b2b2b2; stroke-width: 0.5"/>
     </g>
     <g id="line2d_59">
      <g>
       <use xlink:href="#m5178252732" x="463.68" y="465.442759" style="stroke: #000000; stroke-width: 0.8"/>
      </g>
     </g>
    </g>
    <g id="xtick_22">
     <g id="line2d_60">
      <path d="M 624.96 465.442759 
L 624.96 372.711724 
" clip-path="url(#p853cfa50a9)" style="fill: none; stroke-dasharray: 1.85,0.8; stroke-dashoffset: 0; stroke: #b2b2b2; stroke-width: 0.5"/>
     </g>
     <g id="line2d_61">
      <g>
       <use xlink:href="#m5178252732" x="624.96" y="465.442759" style="stroke: #000000; stroke-width: 0.8"/>
      </g>
     </g>
    </g>
    <g id="xtick_23">
     <g id="line2d_62">
      <path d="M 786.24 465.442759 
L 786.24 372.711724 
" clip-path="url(#p853cfa50a9)" style="fill: none; stroke-dasharray: 1.85,0.8; stroke-dashoffset: 0; stroke: #b2b2b2; stroke-width: 0.5"/>
     </g>
     <g id="line2d_63">
      <g>
       <use xlink:href="#m5178252732" x="786.24" y="465.442759" style="stroke: #000000; stroke-width: 0.8"/>
      </g>
     </g>
    </g>
    <g id="xtick_24">
     <g id="line2d_64">
      <path d="M 947.52 465.442759 
L 947.52 372.711724 
" clip-path="url(#p853cfa50a9)" style="fill: none; stroke-dasharray: 1.85,0.8; stroke-dashoffset: 0; stroke: #b2b2b2; stroke-width: 0.5"/>
     </g>
     <g id="line2d_65">
      <g>
       <use xlink:href="#m5178252732" x="947.52" y="465.442759" style="stroke: #000000; stroke-width: 0.8"/>
      </g>
     </g>
    </g>
   </g>
   <g id="matplotlib.axis_8">
    <g id="ytick_8">
     <g id="line2d_66">
      <path d="M 100.8 441.968788 
L 987.84 441.968788 
" clip-path="url(#p853cfa50a9)" style="fill: none; stroke-dasharray: 1.85,0.8; stroke-dashoffset: 0; stroke: #b2b2b2; stroke-width: 0.5"/>
     </g>
     <g id="line2d_67">
      <g>
       <use xlink:href="#ma04fc4541d" x="100.8" y="441.968788" style="stroke: #000000; stroke-width: 0.8"/>
      </g>
     </g>
     <g id="text_11">
      <!-- 0 V -->
      <g transform="translate(74.36625 447.287694) scale(0.14 -0.14)">
       <use xlink:href="#DejaVuSans-30"/>
       <use xlink:href="#DejaVuSans-20" x="63.623047"/>
       <use xlink:href="#DejaVuSans-56" x="95.410156"/>
      </g>
     </g>
    </g>
    <g id="ytick_9">
     <g id="line2d_68">
      <path d="M 100.8 408.324045 
L 987.84 408.324045 
" clip-path="url(#p853cfa50a9)" style="fill: none; stroke-dasharray: 1.85,0.8; stroke-dashoffset: 0; stroke: #b2b2b2; stroke-width: 0.5"/>
     </g>
     <g id="line2d_69">
      <g>
       <use xlink:href="#ma04fc4541d" x="100.8" y="408.324045" style="stroke: #000000; stroke-width: 0.8"/>
      </g>
     </g>
     <g id="text_12">
      <!-- 1 V -->
      <g transform="translate(74.36625 413.642951) scale(0.14 -0.14)">
       <use xlink:href="#DejaVuSans-31"/>
       <use xlink:href="#DejaVuSans-20" x="63.623047"/>
       <use xlink:href="#DejaVuSans-56" x="95.410156"/>
      </g>
     </g>
    </g>
    <g id="ytick_10">
     <g id="line2d_70">
      <path d="M 100.8 374.679302 
L 987.84 374.679302 
" clip-path="url(#p853cfa50a9)" style="fill: none; stroke-dasharray: 1.85,0.8; stroke-dashoffset: 0; stroke: #b2b2b2; stroke-width: 0.5"/>
     </g>
     <g id="line2d_71">
      <g>
       <use xlink:href="#ma04fc4541d" x="100.8" y="374.679302" style="stroke: #000000; stroke-width: 0.8"/>
      </g>
     </g>
     <g id="text_13">
      <!-- 2 V -->
      <g transform="translate(74.36625 379.998209) scale(0.14 -0.14)">
       <use xlink:href="#DejaVuSans-32"/>
       <use xlink:href="#DejaVuSans-20" x="63.623047"/>
       <use xlink:href="#DejaVuSans-56" x="95.410156"/>
      </g>
     </g>
    </g>
    <g id="text_14">
     <g id="patch_21">
      <path d="M 34.8768 454.693023 
L 34.8768 383.46146 
L 11.247425 383.46146 
L 11.247425 454.693023 
z
" style="fill: #ffff00; opacity: 0.2; stroke: #eeeeee; stroke-width: 0.5; stroke-linejoin: miter"/>
     </g>
     <!-- DFF OUT -->
     <g transform="translate(26.925238 449.653023) rotate(-90) scale(0.14 -0.14)">
      <defs>
       <path id="DejaVuSans-4f" d="M 2522 4238 
Q 1834 4238 1429 3725 
Q 1025 3213 1025 2328 
Q 1025 1447 1429 934 
Q 1834 422 2522 422 
Q 3209 422 3611 934 
Q 4013 1447 4013 2328 
Q 4013 3213 3611 3725 
Q 3209 4238 2522 4238 
z
M 2522 4750 
Q 3503 4750 4090 4092 
Q 4678 3434 4678 2328 
Q 4678 1225 4090 567 
Q 3503 -91 2522 -91 
Q 1538 -91 948 565 
Q 359 1222 359 2328 
Q 359 3434 948 4092 
Q 1538 4750 2522 4750 
z
" transform="scale(0.015625)"/>
       <path id="DejaVuSans-54" d="M -19 4666 
L 3928 4666 
L 3928 4134 
L 2272 4134 
L 2272 0 
L 1638 0 
L 1638 4134 
L -19 4134 
L -19 4666 
z
" transform="scale(0.015625)"/>
      </defs>
      <use xlink:href="#DejaVuSans-44"/>
      <use xlink:href="#DejaVuSans-46" x="77.001953"/>
      <use xlink:href="#DejaVuSans-46" x="134.521484"/>
      <use xlink:href="#DejaVuSans-20" x="192.041016"/>
      <use xlink:href="#DejaVuSans-4f" x="223.828125"/>
      <use xlink:href="#DejaVuSans-55" x="302.539062"/>
      <use xlink:href="#DejaVuSans-54" x="375.732422"/>
     </g>
    </g>
   </g>
   <g id="line2d_72">
    <path d="M 141.12 416.58282 
L 173.408256 416.623867 
L 173.440512 418.016759 
L 173.601792 441.970841 
L 174.214656 441.967829 
L 186.213888 441.967881 
L 254.048256 441.969301 
L 254.080512 442.103798 
L 254.112768 441.881322 
L 254.306304 438.596575 
L 254.628864 437.841924 
L 254.693376 437.468467 
L 255.14496 431.573908 
L 255.370752 417.719676 
L 255.596544 401.921451 
L 255.757824 401.645564 
L 255.983616 401.591732 
L 257.08032 401.595097 
L 295.755264 401.662386 
L 296.239104 403.839201 
L 296.59392 403.294156 
L 297.980928 401.864255 
L 299.690496 401.618648 
L 334.720512 401.510985 
L 334.752768 402.005562 
L 334.785024 404.451535 
L 334.914048 441.954996 
L 334.97856 441.925386 
L 335.13984 441.961736 
L 335.591424 441.968008 
L 372.5568 441.967861 
L 415.328256 441.96928 
L 415.360512 442.10333 
L 415.392768 441.883186 
L 415.586304 438.518183 
L 415.876608 437.746036 
L 415.94112 437.22387 
L 416.521728 422.048072 
L 416.9088 401.706124 
L 417.102336 401.598461 
L 418.424832 401.568181 
L 419.747328 401.595097 
L 495.968256 401.608554 
L 496.000512 401.722947 
L 496.065024 401.568181 
L 496.387584 401.588368 
L 576.608256 401.608554 
L 576.640512 401.722947 
L 576.705024 401.568181 
L 577.027584 401.588368 
L 641.184768 401.679208 
L 642.829824 403.549856 
L 649.119744 412.263845 
L 649.63584 413.364701 
L 650.28096 415.226264 
L 650.571264 416.304915 
L 650.732544 416.670296 
L 651.796992 420.888674 
L 652.184064 422.397641 
L 652.21632 422.107623 
L 652.248576 422.438351 
L 652.280832 422.171885 
L 652.474368 423.476628 
L 652.764672 424.610456 
L 652.829184 424.452998 
L 652.86144 424.495054 
L 653.119488 426.073666 
L 653.474304 427.459156 
L 654.022656 429.479523 
L 654.054912 429.170328 
L 654.119424 429.403149 
L 654.31296 430.781238 
L 654.63552 432.03686 
L 654.667776 431.63817 
L 654.732288 431.789571 
L 654.829056 432.505531 
L 655.022592 433.494687 
L 656.4096 438.654915 
L 656.441856 438.603641 
L 656.474112 438.531977 
L 656.538624 438.639035 
L 656.667648 439.025209 
L 656.89344 440.376685 
L 657.183744 441.3111 
L 657.216 440.924623 
L 657.248256 441.611346 
L 657.893376 443.688505 
L 657.925632 443.42325 
L 657.957888 443.809761 
L 657.990144 443.586293 
L 658.34496 445.192358 
L 658.635264 445.905896 
L 658.66752 445.76156 
L 658.732032 445.739691 
L 659.280384 447.319648 
L 659.893248 448.309476 
L 660.344832 448.949736 
L 660.473856 449.206445 
L 660.635136 449.849732 
L 662.69952 453.909644 
L 662.731776 453.788186 
L 662.796288 453.915027 
L 665.92512 459.654483 
L 666.957312 461.216609 
L 667.21536 461.026852 
L 667.828224 460.065622 
L 668.086272 459.499045 
L 668.118528 459.556914 
L 668.150784 459.388354 
L 669.537792 457.462192 
L 669.570048 457.579949 
L 669.602304 457.380772 
L 670.44096 456.485485 
L 670.473216 456.558158 
L 670.505472 456.365373 
L 670.537728 456.52384 
L 670.731264 456.184365 
L 671.634432 455.271583 
L 671.89248 454.99906 
L 671.924736 455.134312 
L 671.956992 454.936818 
L 671.989248 454.929416 
L 672.021504 454.992331 
L 672.05376 454.902836 
L 672.118272 454.981902 
L 672.21504 454.690875 
L 672.408576 454.470165 
L 672.86016 454.077531 
L 672.892416 454.248783 
L 672.924672 454.00284 
L 672.956928 454.096708 
L 672.989184 454.125306 
L 673.02144 454.016297 
L 673.085952 454.084933 
L 673.118208 453.891475 
L 673.150464 454.023699 
L 673.18272 453.988036 
L 673.311744 453.745794 
L 673.763328 453.478318 
L 674.182656 452.916114 
L 674.47296 452.597499 
L 674.505216 452.803741 
L 674.537472 452.527854 
L 674.698752 452.384864 
L 674.731008 452.614657 
L 674.763264 452.351556 
L 674.79552 452.532564 
L 674.989056 452.120416 
L 675.021312 452.359294 
L 675.053568 452.035968 
L 675.085824 452.192079 
L 675.214848 452.132528 
L 675.311616 451.882884 
L 675.343872 451.999295 
L 675.569664 451.653427 
L 675.634176 451.603969 
L 675.698688 451.733502 
L 675.827712 451.553166 
L 675.859968 451.594212 
L 675.892224 451.568306 
L 676.053504 451.409166 
L 676.24704 451.320008 
L 676.795392 450.864121 
L 677.472768 449.938891 
L 677.505024 449.930816 
L 677.569536 449.803303 
L 677.601792 450.122591 
L 677.763072 449.659303 
L 677.795328 449.657621 
L 677.827584 449.953358 
L 677.85984 449.585958 
L 677.892096 449.585958 
L 677.924352 449.729284 
L 677.956608 449.52136 
L 677.988864 449.5005 
L 678.02112 449.773022 
L 678.053376 449.419416 
L 678.085632 449.425472 
L 678.117888 449.497472 
L 678.150144 449.361547 
L 678.1824 449.362893 
L 678.214656 449.544911 
L 678.279168 449.420089 
L 678.472704 449.185922 
L 678.50496 449.289548 
L 678.569472 449.142184 
L 679.47264 448.607905 
L 679.762944 448.301401 
L 679.891968 447.971683 
L 679.924224 448.096505 
L 679.95648 447.890936 
L 680.150016 447.672918 
L 680.182272 447.634226 
L 680.214528 447.755011 
L 680.246784 447.781927 
L 680.408064 447.458601 
L 680.504832 447.371797 
L 680.537088 447.716656 
L 680.666112 447.205929 
L 680.698368 447.599909 
L 680.76288 447.141331 
L 680.795136 447.498638 
L 680.956416 447.089181 
L 680.988672 447.248321 
L 681.020928 447.196508 
L 681.053184 446.928023 
L 681.149952 447.03434 
L 681.182208 447.231162 
L 681.214464 447.12249 
L 681.343488 446.805556 
L 681.375744 446.82036 
L 681.408 446.99464 
L 681.440256 446.777967 
L 681.504768 446.951574 
L 681.633792 446.741295 
L 682.182144 446.505109 
L 683.278848 445.611168 
L 683.407872 445.106934 
L 683.472384 445.059428 
L 683.50464 445.26927 
L 683.536896 444.992475 
L 683.569152 445.006471 
L 683.633664 445.226676 
L 683.762688 444.794442 
L 683.891712 444.719885 
L 683.923968 445.121738 
L 683.956224 444.610573 
L 683.98848 444.914486 
L 684.085248 444.978108 
L 684.117504 444.580562 
L 684.14976 444.590655 
L 684.182016 444.76295 
L 684.246528 444.539953 
L 684.278784 444.729373 
L 684.31104 444.504828 
L 684.407808 444.577063 
L 684.536832 444.346832 
L 684.569088 444.36278 
L 684.601344 444.584734 
L 684.6336 444.336234 
L 684.665856 444.34303 
L 685.052928 444.239875 
L 686.278656 443.2018 
L 686.504448 442.921843 
L 686.633472 442.471676 
L 686.665728 442.612816 
L 686.697984 442.387497 
L 686.73024 442.408962 
L 686.762496 442.480794 
L 686.827008 442.056493 
L 686.859264 442.087749 
L 686.89152 442.340831 
L 686.956032 442.11126 
L 687.020544 442.133923 
L 687.0528 441.939537 
L 687.149568 442.012227 
L 687.278592 441.863029 
L 688.052736 440.707245 
L 688.084992 440.208831 
L 688.149504 440.554026 
L 688.18176 440.484113 
L 688.310784 439.919285 
L 688.34304 439.943206 
L 688.375296 440.116847 
L 688.407552 439.925038 
L 688.439808 439.991554 
L 688.601088 439.728755 
L 688.633344 439.776227 
L 688.697856 439.685891 
L 689.504256 438.437099 
L 689.568768 437.838223 
L 689.601024 438.292427 
L 689.63328 438.239605 
L 689.697792 437.534747 
L 689.730048 438.085848 
L 689.762304 438.023605 
L 689.826816 437.431794 
L 689.891328 437.624915 
L 689.923584 437.450299 
L 690.020352 437.505813 
L 690.052608 437.662934 
L 690.11712 437.467794 
L 691.181568 435.797669 
L 691.278336 435.242195 
L 691.310592 435.305447 
L 691.40736 435.492175 
L 691.633152 434.985822 
L 692.665344 433.514201 
L 692.923392 433.20837 
L 693.278208 432.682839 
L 693.439488 432.191289 
L 693.762048 431.757945 
L 693.794304 431.960823 
L 693.858816 431.821197 
L 694.020096 431.706468 
L 694.14912 431.519067 
L 694.3104 431.29533 
L 694.79424 430.562547 
L 694.95552 429.842886 
L 695.1168 429.521242 
L 695.149056 429.819335 
L 695.213568 429.707298 
L 696.7296 426.478075 
L 696.89088 426.304805 
L 696.955392 425.703573 
L 697.019904 425.722415 
L 697.277952 425.696845 
L 700.374528 421.257757 
L 700.503552 421.102655 
L 700.729344 420.687815 
L 701.793792 419.378698 
L 703.438848 417.63119 
L 703.66464 417.224762 
L 704.051712 416.970071 
L 704.696832 416.192205 
L 704.987136 415.664319 
L 705.535488 415.260582 
L 705.76128 415.042564 
L 706.4064 413.285299 
L 706.987008 412.269228 
L 709.79328 407.49302 
L 712.760832 402.456402 
L 713.98656 400.474727 
L 715.083264 398.75548 
L 716.115456 397.177542 
L 716.921856 395.962967 
L 719.437824 392.366344 
L 721.308672 389.82953 
L 723.921408 386.46842 
L 725.405184 384.597773 
L 728.598528 380.45274 
L 729.275904 379.594799 
L 730.082304 378.609008 
L 731.630592 376.994061 
L 733.598208 377.101724 
L 737.888256 378.555177 
L 737.920512 378.750316 
L 737.985024 378.548448 
L 738.17856 378.639289 
L 739.565568 379.187698 
L 739.759104 379.369379 
L 739.855872 379.71592 
L 739.95264 381.690867 
L 740.049408 391.696813 
L 740.339712 442.260636 
L 741.017088 442.280217 
L 752.951808 442.352439 
L 759.112704 442.325119 
L 793.078272 442.117316 
L 818.528256 442.029268 
L 818.560512 442.256794 
L 818.592768 441.76522 
L 818.754048 438.234558 
L 819.270144 435.828622 
L 819.431424 432.687549 
L 819.62496 423.139171 
L 820.044288 399.273609 
L 821.850624 399.384637 
L 822.302208 399.411553 
L 823.140864 399.478842 
L 824.850432 399.586505 
L 825.302016 399.613421 
L 827.076096 399.721084 
L 827.52768 399.748 
L 828.205056 399.781645 
L 829.043712 399.848934 
L 831.333888 399.956598 
L 831.785472 399.983513 
L 833.946624 400.091177 
L 834.398208 400.118092 
L 836.946432 400.225756 
L 837.398016 400.252671 
L 838.17216 400.282952 
L 841.107456 400.393979 
L 841.526784 400.417531 
L 844.881408 400.528558 
L 845.300736 400.55211 
L 849.1392 400.663137 
L 849.558528 400.686689 
L 854.074368 400.797716 
L 854.525952 400.824632 
L 855.42912 400.831361 
L 855.848448 400.854912 
L 861.525504 400.96594 
L 861.944832 400.989491 
L 869.170176 401.100519 
L 869.62176 401.127435 
L 870.718464 401.12407 
L 879.330816 401.235098 
L 879.750144 401.258649 
L 899.168256 401.255285 
L 899.200512 401.426873 
L 899.265024 401.255285 
L 899.490816 401.241827 
L 899.877888 401.248556 
L 947.52 401.258649 
L 947.52 401.258649 
" clip-path="url(#p853cfa50a9)" style="fill: none; stroke: #ff00ff; stroke-width: 2; stroke-linecap: square"/>
   </g>
   <g id="patch_22">
    <path d="M 100.8 465.442759 
L 100.8 372.711724 
" style="fill: none; stroke: #bcbcbc; stroke-width: 0.8; stroke-linejoin: miter; stroke-linecap: square"/>
   </g>
   <g id="patch_23">
    <path d="M 987.84 465.442759 
L 987.84 372.711724 
" style="fill: none; stroke: #bcbcbc; stroke-width: 0.8; stroke-linejoin: miter; stroke-linecap: square"/>
   </g>
   <g id="patch_24">
    <path d="M 100.8 465.442759 
L 987.84 465.442759 
" style="fill: none; stroke: #bcbcbc; stroke-width: 0.8; stroke-linejoin: miter; stroke-linecap: square"/>
   </g>
   <g id="patch_25">
    <path d="M 100.8 372.711724 
L 987.84 372.711724 
" style="fill: none; stroke: #bcbcbc; stroke-width: 0.8; stroke-linejoin: miter; stroke-linecap: square"/>
   </g>
  </g>
  <g id="axes_5">
   <g id="patch_26">
    <path d="M 100.8 576.72 
L 987.84 576.72 
L 987.84 483.988966 
L 100.8 483.988966 
z
" style="fill: #eeeeee"/>
   </g>
   <g id="matplotlib.axis_9">
    <g id="xtick_25">
     <g id="line2d_73">
      <path d="M 141.12 576.72 
L 141.12 483.988966 
" clip-path="url(#p91e5fc1bec)" style="fill: none; stroke-dasharray: 1.85,0.8; stroke-dashoffset: 0; stroke: #b2b2b2; stroke-width: 0.5"/>
     </g>
     <g id="line2d_74">
      <g>
       <use xlink:href="#m5178252732" x="141.12" y="576.72" style="stroke: #000000; stroke-width: 0.8"/>
      </g>
     </g>
     <g id="text_15">
      <!-- 0 s -->
      <g transform="translate(130.795 590.857813) scale(0.14 -0.14)">
       <defs>
        <path id="DejaVuSans-73" d="M 2834 3397 
L 2834 2853 
Q 2591 2978 2328 3040 
Q 2066 3103 1784 3103 
Q 1356 3103 1142 2972 
Q 928 2841 928 2578 
Q 928 2378 1081 2264 
Q 1234 2150 1697 2047 
L 1894 2003 
Q 2506 1872 2764 1633 
Q 3022 1394 3022 966 
Q 3022 478 2636 193 
Q 2250 -91 1575 -91 
Q 1294 -91 989 -36 
Q 684 19 347 128 
L 347 722 
Q 666 556 975 473 
Q 1284 391 1588 391 
Q 1994 391 2212 530 
Q 2431 669 2431 922 
Q 2431 1156 2273 1281 
Q 2116 1406 1581 1522 
L 1381 1569 
Q 847 1681 609 1914 
Q 372 2147 372 2553 
Q 372 3047 722 3315 
Q 1072 3584 1716 3584 
Q 2034 3584 2315 3537 
Q 2597 3491 2834 3397 
z
" transform="scale(0.015625)"/>
       </defs>
       <use xlink:href="#DejaVuSans-30"/>
       <use xlink:href="#DejaVuSans-20" x="63.623047"/>
       <use xlink:href="#DejaVuSans-73" x="95.410156"/>
      </g>
     </g>
    </g>
    <g id="xtick_26">
     <g id="line2d_75">
      <path d="M 302.4 576.72 
L 302.4 483.988966 
" clip-path="url(#p91e5fc1bec)" style="fill: none; stroke-dasharray: 1.85,0.8; stroke-dashoffset: 0; stroke: #b2b2b2; stroke-width: 0.5"/>
     </g>
     <g id="line2d_76">
      <g>
       <use xlink:href="#m5178252732" x="302.4" y="576.72" style="stroke: #000000; stroke-width: 0.8"/>
      </g>
     </g>
     <g id="text_16">
      <!-- 50 ns -->
      <g transform="translate(283.185 590.857813) scale(0.14 -0.14)">
       <defs>
        <path id="DejaVuSans-35" d="M 691 4666 
L 3169 4666 
L 3169 4134 
L 1269 4134 
L 1269 2991 
Q 1406 3038 1543 3061 
Q 1681 3084 1819 3084 
Q 2600 3084 3056 2656 
Q 3513 2228 3513 1497 
Q 3513 744 3044 326 
Q 2575 -91 1722 -91 
Q 1428 -91 1123 -41 
Q 819 9 494 109 
L 494 744 
Q 775 591 1075 516 
Q 1375 441 1709 441 
Q 2250 441 2565 725 
Q 2881 1009 2881 1497 
Q 2881 1984 2565 2268 
Q 2250 2553 1709 2553 
Q 1456 2553 1204 2497 
Q 953 2441 691 2322 
L 691 4666 
z
" transform="scale(0.015625)"/>
        <path id="DejaVuSans-6e" d="M 3513 2113 
L 3513 0 
L 2938 0 
L 2938 2094 
Q 2938 2591 2744 2837 
Q 2550 3084 2163 3084 
Q 1697 3084 1428 2787 
Q 1159 2491 1159 1978 
L 1159 0 
L 581 0 
L 581 3500 
L 1159 3500 
L 1159 2956 
Q 1366 3272 1645 3428 
Q 1925 3584 2291 3584 
Q 2894 3584 3203 3211 
Q 3513 2838 3513 2113 
z
" transform="scale(0.015625)"/>
       </defs>
       <use xlink:href="#DejaVuSans-35"/>
       <use xlink:href="#DejaVuSans-30" x="63.623047"/>
       <use xlink:href="#DejaVuSans-20" x="127.246094"/>
       <use xlink:href="#DejaVuSans-6e" x="159.033203"/>
       <use xlink:href="#DejaVuSans-73" x="222.412109"/>
      </g>
     </g>
    </g>
    <g id="xtick_27">
     <g id="line2d_77">
      <path d="M 463.68 576.72 
L 463.68 483.988966 
" clip-path="url(#p91e5fc1bec)" style="fill: none; stroke-dasharray: 1.85,0.8; stroke-dashoffset: 0; stroke: #b2b2b2; stroke-width: 0.5"/>
     </g>
     <g id="line2d_78">
      <g>
       <use xlink:href="#m5178252732" x="463.68" y="576.72" style="stroke: #000000; stroke-width: 0.8"/>
      </g>
     </g>
     <g id="text_17">
      <!-- 100 ns -->
      <g transform="translate(440.01125 590.857813) scale(0.14 -0.14)">
       <use xlink:href="#DejaVuSans-31"/>
       <use xlink:href="#DejaVuSans-30" x="63.623047"/>
       <use xlink:href="#DejaVuSans-30" x="127.246094"/>
       <use xlink:href="#DejaVuSans-20" x="190.869141"/>
       <use xlink:href="#DejaVuSans-6e" x="222.65625"/>
       <use xlink:href="#DejaVuSans-73" x="286.035156"/>
      </g>
     </g>
    </g>
    <g id="xtick_28">
     <g id="line2d_79">
      <path d="M 624.96 576.72 
L 624.96 483.988966 
" clip-path="url(#p91e5fc1bec)" style="fill: none; stroke-dasharray: 1.85,0.8; stroke-dashoffset: 0; stroke: #b2b2b2; stroke-width: 0.5"/>
     </g>
     <g id="line2d_80">
      <g>
       <use xlink:href="#m5178252732" x="624.96" y="576.72" style="stroke: #000000; stroke-width: 0.8"/>
      </g>
     </g>
     <g id="text_18">
      <!-- 150 ns -->
      <g transform="translate(601.29125 590.857813) scale(0.14 -0.14)">
       <use xlink:href="#DejaVuSans-31"/>
       <use xlink:href="#DejaVuSans-35" x="63.623047"/>
       <use xlink:href="#DejaVuSans-30" x="127.246094"/>
       <use xlink:href="#DejaVuSans-20" x="190.869141"/>
       <use xlink:href="#DejaVuSans-6e" x="222.65625"/>
       <use xlink:href="#DejaVuSans-73" x="286.035156"/>
      </g>
     </g>
    </g>
    <g id="xtick_29">
     <g id="line2d_81">
      <path d="M 786.24 576.72 
L 786.24 483.988966 
" clip-path="url(#p91e5fc1bec)" style="fill: none; stroke-dasharray: 1.85,0.8; stroke-dashoffset: 0; stroke: #b2b2b2; stroke-width: 0.5"/>
     </g>
     <g id="line2d_82">
      <g>
       <use xlink:href="#m5178252732" x="786.24" y="576.72" style="stroke: #000000; stroke-width: 0.8"/>
      </g>
     </g>
     <g id="text_19">
      <!-- 200 ns -->
      <g transform="translate(762.57125 590.857813) scale(0.14 -0.14)">
       <use xlink:href="#DejaVuSans-32"/>
       <use xlink:href="#DejaVuSans-30" x="63.623047"/>
       <use xlink:href="#DejaVuSans-30" x="127.246094"/>
       <use xlink:href="#DejaVuSans-20" x="190.869141"/>
       <use xlink:href="#DejaVuSans-6e" x="222.65625"/>
       <use xlink:href="#DejaVuSans-73" x="286.035156"/>
      </g>
     </g>
    </g>
    <g id="xtick_30">
     <g id="line2d_83">
      <path d="M 947.52 576.72 
L 947.52 483.988966 
" clip-path="url(#p91e5fc1bec)" style="fill: none; stroke-dasharray: 1.85,0.8; stroke-dashoffset: 0; stroke: #b2b2b2; stroke-width: 0.5"/>
     </g>
     <g id="line2d_84">
      <g>
       <use xlink:href="#m5178252732" x="947.52" y="576.72" style="stroke: #000000; stroke-width: 0.8"/>
      </g>
     </g>
     <g id="text_20">
      <!-- 250 ns -->
      <g transform="translate(923.85125 590.857813) scale(0.14 -0.14)">
       <use xlink:href="#DejaVuSans-32"/>
       <use xlink:href="#DejaVuSans-35" x="63.623047"/>
       <use xlink:href="#DejaVuSans-30" x="127.246094"/>
       <use xlink:href="#DejaVuSans-20" x="190.869141"/>
       <use xlink:href="#DejaVuSans-6e" x="222.65625"/>
       <use xlink:href="#DejaVuSans-73" x="286.035156"/>
      </g>
     </g>
    </g>
    <g id="text_21">
     <!-- Time -->
     <g transform="translate(527.192969 608.407187) scale(0.14 -0.14)">
      <defs>
       <path id="DejaVuSans-69" d="M 603 3500 
L 1178 3500 
L 1178 0 
L 603 0 
L 603 3500 
z
M 603 4863 
L 1178 4863 
L 1178 4134 
L 603 4134 
L 603 4863 
z
" transform="scale(0.015625)"/>
       <path id="DejaVuSans-6d" d="M 3328 2828 
Q 3544 3216 3844 3400 
Q 4144 3584 4550 3584 
Q 5097 3584 5394 3201 
Q 5691 2819 5691 2113 
L 5691 0 
L 5113 0 
L 5113 2094 
Q 5113 2597 4934 2840 
Q 4756 3084 4391 3084 
Q 3944 3084 3684 2787 
Q 3425 2491 3425 1978 
L 3425 0 
L 2847 0 
L 2847 2094 
Q 2847 2600 2669 2842 
Q 2491 3084 2119 3084 
Q 1678 3084 1418 2786 
Q 1159 2488 1159 1978 
L 1159 0 
L 581 0 
L 581 3500 
L 1159 3500 
L 1159 2956 
Q 1356 3278 1631 3431 
Q 1906 3584 2284 3584 
Q 2666 3584 2933 3390 
Q 3200 3197 3328 2828 
z
" transform="scale(0.015625)"/>
       <path id="DejaVuSans-65" d="M 3597 1894 
L 3597 1613 
L 953 1613 
Q 991 1019 1311 708 
Q 1631 397 2203 397 
Q 2534 397 2845 478 
Q 3156 559 3463 722 
L 3463 178 
Q 3153 47 2828 -22 
Q 2503 -91 2169 -91 
Q 1331 -91 842 396 
Q 353 884 353 1716 
Q 353 2575 817 3079 
Q 1281 3584 2069 3584 
Q 2775 3584 3186 3129 
Q 3597 2675 3597 1894 
z
M 3022 2063 
Q 3016 2534 2758 2815 
Q 2500 3097 2075 3097 
Q 1594 3097 1305 2825 
Q 1016 2553 972 2059 
L 3022 2063 
z
" transform="scale(0.015625)"/>
      </defs>
      <use xlink:href="#DejaVuSans-54"/>
      <use xlink:href="#DejaVuSans-69" x="57.958984"/>
      <use xlink:href="#DejaVuSans-6d" x="85.742188"/>
      <use xlink:href="#DejaVuSans-65" x="183.154297"/>
     </g>
    </g>
   </g>
   <g id="matplotlib.axis_10">
    <g id="ytick_11">
     <g id="line2d_85">
      <path d="M 100.8 569.746991 
L 987.84 569.746991 
" clip-path="url(#p91e5fc1bec)" style="fill: none; stroke-dasharray: 1.85,0.8; stroke-dashoffset: 0; stroke: #b2b2b2; stroke-width: 0.5"/>
     </g>
     <g id="line2d_86">
      <g>
       <use xlink:href="#ma04fc4541d" x="100.8" y="569.746991" style="stroke: #000000; stroke-width: 0.8"/>
      </g>
     </g>
     <g id="text_22">
      <!-- 0 V -->
      <g transform="translate(74.36625 575.065897) scale(0.14 -0.14)">
       <use xlink:href="#DejaVuSans-30"/>
       <use xlink:href="#DejaVuSans-20" x="63.623047"/>
       <use xlink:href="#DejaVuSans-56" x="95.410156"/>
      </g>
     </g>
    </g>
    <g id="ytick_12">
     <g id="line2d_87">
      <path d="M 100.8 535.964996 
L 987.84 535.964996 
" clip-path="url(#p91e5fc1bec)" style="fill: none; stroke-dasharray: 1.85,0.8; stroke-dashoffset: 0; stroke: #b2b2b2; stroke-width: 0.5"/>
     </g>
     <g id="line2d_88">
      <g>
       <use xlink:href="#ma04fc4541d" x="100.8" y="535.964996" style="stroke: #000000; stroke-width: 0.8"/>
      </g>
     </g>
     <g id="text_23">
      <!-- 500 mV -->
      <g transform="translate(42.914375 541.283903) scale(0.14 -0.14)">
       <use xlink:href="#DejaVuSans-35"/>
       <use xlink:href="#DejaVuSans-30" x="63.623047"/>
       <use xlink:href="#DejaVuSans-30" x="127.246094"/>
       <use xlink:href="#DejaVuSans-20" x="190.869141"/>
       <use xlink:href="#DejaVuSans-6d" x="222.65625"/>
       <use xlink:href="#DejaVuSans-56" x="320.068359"/>
      </g>
     </g>
    </g>
    <g id="ytick_13">
     <g id="line2d_89">
      <path d="M 100.8 502.183002 
L 987.84 502.183002 
" clip-path="url(#p91e5fc1bec)" style="fill: none; stroke-dasharray: 1.85,0.8; stroke-dashoffset: 0; stroke: #b2b2b2; stroke-width: 0.5"/>
     </g>
     <g id="line2d_90">
      <g>
       <use xlink:href="#ma04fc4541d" x="100.8" y="502.183002" style="stroke: #000000; stroke-width: 0.8"/>
      </g>
     </g>
     <g id="text_24">
      <!-- 1 V -->
      <g transform="translate(74.36625 507.501908) scale(0.14 -0.14)">
       <use xlink:href="#DejaVuSans-31"/>
       <use xlink:href="#DejaVuSans-20" x="63.623047"/>
       <use xlink:href="#DejaVuSans-56" x="95.410156"/>
      </g>
     </g>
    </g>
    <g id="text_25">
     <g id="patch_27">
      <path d="M 34.8768 554.329483 
L 34.8768 506.379483 
L 11.247425 506.379483 
L 11.247425 554.329483 
z
" style="fill: #ffff00; opacity: 0.2; stroke: #eeeeee; stroke-width: 0.5; stroke-linejoin: miter"/>
     </g>
     <!-- FOUT -->
     <g transform="translate(26.925238 549.289483) rotate(-90) scale(0.14 -0.14)">
      <use xlink:href="#DejaVuSans-46"/>
      <use xlink:href="#DejaVuSans-4f" x="57.519531"/>
      <use xlink:href="#DejaVuSans-55" x="136.230469"/>
      <use xlink:href="#DejaVuSans-54" x="209.423828"/>
     </g>
    </g>
   </g>
   <g id="line2d_91">
    <path d="M 141.12 488.670204 
L 173.472768 488.67696 
L 173.505024 488.481025 
L 173.569536 526.808049 
L 173.69856 572.504953 
L 173.730816 572.369555 
L 173.827584 567.843984 
L 173.892096 569.36216 
L 174.053376 570.06517 
L 174.117888 569.94769 
L 174.408192 569.493261 
L 174.440448 569.542698 
L 174.66624 569.731066 
L 176.182272 569.741259 
L 180.117504 569.762549 
L 193.600512 569.753064 
L 212.954112 569.745116 
L 255.30624 569.744811 
L 255.6288 488.562102 
L 255.854592 488.703986 
L 256.209408 488.663448 
L 334.849536 488.683717 
L 334.881792 492.886197 
L 335.043072 572.183889 
L 335.107584 570.262106 
L 335.172096 568.340309 
L 335.236608 568.871564 
L 335.365632 570.783693 
L 335.430144 570.410922 
L 335.591424 569.798298 
L 335.881728 569.649584 
L 336.559104 569.819001 
L 337.107456 569.747248 
L 350.009856 569.745312 
L 416.489472 569.744437 
L 416.553984 567.482854 
L 416.812032 488.237795 
L 416.844288 488.372923 
L 416.973312 488.886409 
L 417.037824 488.812088 
L 417.39264 488.582371 
L 417.844224 488.751281 
L 418.457088 488.595884 
L 419.328 488.670204 
L 652.506624 488.60264 
L 652.53888 488.487781 
L 652.571136 488.548589 
L 652.603392 492.460544 
L 652.764672 570.259437 
L 652.829184 569.737799 
L 653.054976 569.745012 
L 677.05344 569.745312 
L 698.98752 569.829561 
L 699.052032 567.306242 
L 699.406848 488.683717 
L 699.987456 488.670204 
L 740.146176 488.67696 
L 740.178432 488.204013 
L 740.242944 535.674471 
L 740.339712 570.142666 
L 740.371968 569.813858 
L 740.500992 569.745309 
L 819.657216 569.839952 
L 819.689472 570.018605 
L 819.753984 536.331193 
L 819.915264 489.028293 
L 820.076544 488.670204 
L 947.52 488.670204 
L 947.52 488.670204 
" clip-path="url(#p91e5fc1bec)" style="fill: none; stroke: #ff00ff; stroke-width: 2; stroke-linecap: square"/>
   </g>
   <g id="patch_28">
    <path d="M 100.8 576.72 
L 100.8 483.988966 
" style="fill: none; stroke: #bcbcbc; stroke-width: 0.8; stroke-linejoin: miter; stroke-linecap: square"/>
   </g>
   <g id="patch_29">
    <path d="M 987.84 576.72 
L 987.84 483.988966 
" style="fill: none; stroke: #bcbcbc; stroke-width: 0.8; stroke-linejoin: miter; stroke-linecap: square"/>
   </g>
   <g id="patch_30">
    <path d="M 100.8 576.72 
L 987.84 576.72 
" style="fill: none; stroke: #bcbcbc; stroke-width: 0.8; stroke-linejoin: miter; stroke-linecap: square"/>
   </g>
   <g id="patch_31">
    <path d="M 100.8 483.988966 
L 987.84 483.988966 
" style="fill: none; stroke: #bcbcbc; stroke-width: 0.8; stroke-linejoin: miter; stroke-linecap: square"/>
   </g>
  </g>
  <g id="axes_6">
   <g id="patch_32">
    <path d="M 201.6 628.56 
L 856.8 628.56 
L 856.8 615.6 
L 201.6 615.6 
z
" clip-path="url(#p9ce3c88589)" style="fill: #d3d3d3"/>
   </g>
   <g id="patch_33">
    <path d="M 201.6 628.56 
L 852.12 628.56 
L 852.12 615.6 
L 201.6 615.6 
z
" clip-path="url(#p9ce3c88589)" style="fill: #0000ff"/>
   </g>
   <g id="line2d_92">
    <path d="M 201.6 635.04 
L 201.6 609.12 
" clip-path="url(#p8b72833f97)" style="fill: none; stroke: #ff0000; stroke-linecap: square"/>
   </g>
   <g id="line2d_93">
    <defs>
     <path id="mbf2feec224" d="M 0 5 
C 1.326016 5 2.597899 4.473168 3.535534 3.535534 
C 4.473168 2.597899 5 1.326016 5 0 
C 5 -1.326016 4.473168 -2.597899 3.535534 -3.535534 
C 2.597899 -4.473168 1.326016 -5 0 -5 
C -1.326016 -5 -2.597899 -4.473168 -3.535534 -3.535534 
C -4.473168 -2.597899 -5 -1.326016 -5 0 
C -5 1.326016 -4.473168 2.597899 -3.535534 3.535534 
C -2.597899 4.473168 -1.326016 5 0 5 
z
" style="stroke: #bfbfbf"/>
    </defs>
    <g>
     <use xlink:href="#mbf2feec224" x="852.12" y="622.08" style="fill: #ffffff; stroke: #bfbfbf"/>
    </g>
   </g>
   <g id="text_26">
    <!-- #Sweep -->
    <g transform="translate(138.622875 625.39125) scale(0.12 -0.12)">
     <defs>
      <path id="DejaVuSans-23" d="M 3272 2816 
L 2363 2816 
L 2100 1772 
L 3016 1772 
L 3272 2816 
z
M 2803 4594 
L 2478 3297 
L 3391 3297 
L 3719 4594 
L 4219 4594 
L 3897 3297 
L 4872 3297 
L 4872 2816 
L 3775 2816 
L 3519 1772 
L 4513 1772 
L 4513 1294 
L 3397 1294 
L 3072 0 
L 2572 0 
L 2894 1294 
L 1978 1294 
L 1656 0 
L 1153 0 
L 1478 1294 
L 494 1294 
L 494 1772 
L 1594 1772 
L 1856 2816 
L 850 2816 
L 850 3297 
L 1978 3297 
L 2297 4594 
L 2803 4594 
z
" transform="scale(0.015625)"/>
      <path id="DejaVuSans-77" d="M 269 3500 
L 844 3500 
L 1563 769 
L 2278 3500 
L 2956 3500 
L 3675 769 
L 4391 3500 
L 4966 3500 
L 4050 0 
L 3372 0 
L 2619 2869 
L 1863 0 
L 1184 0 
L 269 3500 
z
" transform="scale(0.015625)"/>
      <path id="DejaVuSans-70" d="M 1159 525 
L 1159 -1331 
L 581 -1331 
L 581 3500 
L 1159 3500 
L 1159 2969 
Q 1341 3281 1617 3432 
Q 1894 3584 2278 3584 
Q 2916 3584 3314 3078 
Q 3713 2572 3713 1747 
Q 3713 922 3314 415 
Q 2916 -91 2278 -91 
Q 1894 -91 1617 61 
Q 1341 213 1159 525 
z
M 3116 1747 
Q 3116 2381 2855 2742 
Q 2594 3103 2138 3103 
Q 1681 3103 1420 2742 
Q 1159 2381 1159 1747 
Q 1159 1113 1420 752 
Q 1681 391 2138 391 
Q 2594 391 2855 752 
Q 3116 1113 3116 1747 
z
" transform="scale(0.015625)"/>
     </defs>
     <use xlink:href="#DejaVuSans-23"/>
     <use xlink:href="#DejaVuSans-53" x="83.789062"/>
     <use xlink:href="#DejaVuSans-77" x="147.265625"/>
     <use xlink:href="#DejaVuSans-65" x="229.052734"/>
     <use xlink:href="#DejaVuSans-65" x="290.576172"/>
     <use xlink:href="#DejaVuSans-70" x="352.099609"/>
    </g>
   </g>
   <g id="text_27">
    <!-- $\mathdefault{139}$ -->
    <g transform="translate(869.904 625.39125) scale(0.12 -0.12)">
     <defs>
      <path id="DejaVuSans-33" d="M 2597 2516 
Q 3050 2419 3304 2112 
Q 3559 1806 3559 1356 
Q 3559 666 3084 287 
Q 2609 -91 1734 -91 
Q 1441 -91 1130 -33 
Q 819 25 488 141 
L 488 750 
Q 750 597 1062 519 
Q 1375 441 1716 441 
Q 2309 441 2620 675 
Q 2931 909 2931 1356 
Q 2931 1769 2642 2001 
Q 2353 2234 1838 2234 
L 1294 2234 
L 1294 2753 
L 1863 2753 
Q 2328 2753 2575 2939 
Q 2822 3125 2822 3475 
Q 2822 3834 2567 4026 
Q 2313 4219 1838 4219 
Q 1578 4219 1281 4162 
Q 984 4106 628 3988 
L 628 4550 
Q 988 4650 1302 4700 
Q 1616 4750 1894 4750 
Q 2613 4750 3031 4423 
Q 3450 4097 3450 3541 
Q 3450 3153 3228 2886 
Q 3006 2619 2597 2516 
z
" transform="scale(0.015625)"/>
      <path id="DejaVuSans-39" d="M 703 97 
L 703 672 
Q 941 559 1184 500 
Q 1428 441 1663 441 
Q 2288 441 2617 861 
Q 2947 1281 2994 2138 
Q 2813 1869 2534 1725 
Q 2256 1581 1919 1581 
Q 1219 1581 811 2004 
Q 403 2428 403 3163 
Q 403 3881 828 4315 
Q 1253 4750 1959 4750 
Q 2769 4750 3195 4129 
Q 3622 3509 3622 2328 
Q 3622 1225 3098 567 
Q 2575 -91 1691 -91 
Q 1453 -91 1209 -44 
Q 966 3 703 97 
z
M 1959 2075 
Q 2384 2075 2632 2365 
Q 2881 2656 2881 3163 
Q 2881 3666 2632 3958 
Q 2384 4250 1959 4250 
Q 1534 4250 1286 3958 
Q 1038 3666 1038 3163 
Q 1038 2656 1286 2365 
Q 1534 2075 1959 2075 
z
" transform="scale(0.015625)"/>
     </defs>
     <use xlink:href="#DejaVuSans-31" transform="translate(0 0.78125)"/>
     <use xlink:href="#DejaVuSans-33" transform="translate(63.623047 0.78125)"/>
     <use xlink:href="#DejaVuSans-39" transform="translate(127.246094 0.78125)"/>
    </g>
   </g>
  </g>
  <g id="text_28">
   <!-- DFF under BBI sweep analysis (Sweep = 149E-9) -->
   <g transform="translate(308.25625 25.1175) scale(0.16 -0.16)">
    <defs>
     <path id="DejaVuSans-75" d="M 544 1381 
L 544 3500 
L 1119 3500 
L 1119 1403 
Q 1119 906 1312 657 
Q 1506 409 1894 409 
Q 2359 409 2629 706 
Q 2900 1003 2900 1516 
L 2900 3500 
L 3475 3500 
L 3475 0 
L 2900 0 
L 2900 538 
Q 2691 219 2414 64 
Q 2138 -91 1772 -91 
Q 1169 -91 856 284 
Q 544 659 544 1381 
z
M 1991 3584 
L 1991 3584 
z
" transform="scale(0.015625)"/>
     <path id="DejaVuSans-64" d="M 2906 2969 
L 2906 4863 
L 3481 4863 
L 3481 0 
L 2906 0 
L 2906 525 
Q 2725 213 2448 61 
Q 2172 -91 1784 -91 
Q 1150 -91 751 415 
Q 353 922 353 1747 
Q 353 2572 751 3078 
Q 1150 3584 1784 3584 
Q 2172 3584 2448 3432 
Q 2725 3281 2906 2969 
z
M 947 1747 
Q 947 1113 1208 752 
Q 1469 391 1925 391 
Q 2381 391 2643 752 
Q 2906 1113 2906 1747 
Q 2906 2381 2643 2742 
Q 2381 3103 1925 3103 
Q 1469 3103 1208 2742 
Q 947 2381 947 1747 
z
" transform="scale(0.015625)"/>
     <path id="DejaVuSans-72" d="M 2631 2963 
Q 2534 3019 2420 3045 
Q 2306 3072 2169 3072 
Q 1681 3072 1420 2755 
Q 1159 2438 1159 1844 
L 1159 0 
L 581 0 
L 581 3500 
L 1159 3500 
L 1159 2956 
Q 1341 3275 1631 3429 
Q 1922 3584 2338 3584 
Q 2397 3584 2469 3576 
Q 2541 3569 2628 3553 
L 2631 2963 
z
" transform="scale(0.015625)"/>
     <path id="DejaVuSans-61" d="M 2194 1759 
Q 1497 1759 1228 1600 
Q 959 1441 959 1056 
Q 959 750 1161 570 
Q 1363 391 1709 391 
Q 2188 391 2477 730 
Q 2766 1069 2766 1631 
L 2766 1759 
L 2194 1759 
z
M 3341 1997 
L 3341 0 
L 2766 0 
L 2766 531 
Q 2569 213 2275 61 
Q 1981 -91 1556 -91 
Q 1019 -91 701 211 
Q 384 513 384 1019 
Q 384 1609 779 1909 
Q 1175 2209 1959 2209 
L 2766 2209 
L 2766 2266 
Q 2766 2663 2505 2880 
Q 2244 3097 1772 3097 
Q 1472 3097 1187 3025 
Q 903 2953 641 2809 
L 641 3341 
Q 956 3463 1253 3523 
Q 1550 3584 1831 3584 
Q 2591 3584 2966 3190 
Q 3341 2797 3341 1997 
z
" transform="scale(0.015625)"/>
     <path id="DejaVuSans-6c" d="M 603 4863 
L 1178 4863 
L 1178 0 
L 603 0 
L 603 4863 
z
" transform="scale(0.015625)"/>
     <path id="DejaVuSans-79" d="M 2059 -325 
Q 1816 -950 1584 -1140 
Q 1353 -1331 966 -1331 
L 506 -1331 
L 506 -850 
L 844 -850 
Q 1081 -850 1212 -737 
Q 1344 -625 1503 -206 
L 1606 56 
L 191 3500 
L 800 3500 
L 1894 763 
L 2988 3500 
L 3597 3500 
L 2059 -325 
z
" transform="scale(0.015625)"/>
     <path id="DejaVuSans-28" d="M 1984 4856 
Q 1566 4138 1362 3434 
Q 1159 2731 1159 2009 
Q 1159 1288 1364 580 
Q 1569 -128 1984 -844 
L 1484 -844 
Q 1016 -109 783 600 
Q 550 1309 550 2009 
Q 550 2706 781 3412 
Q 1013 4119 1484 4856 
L 1984 4856 
z
" transform="scale(0.015625)"/>
     <path id="DejaVuSans-3d" d="M 678 2906 
L 4684 2906 
L 4684 2381 
L 678 2381 
L 678 2906 
z
M 678 1631 
L 4684 1631 
L 4684 1100 
L 678 1100 
L 678 1631 
z
" transform="scale(0.015625)"/>
     <path id="DejaVuSans-34" d="M 2419 4116 
L 825 1625 
L 2419 1625 
L 2419 4116 
z
M 2253 4666 
L 3047 4666 
L 3047 1625 
L 3713 1625 
L 3713 1100 
L 3047 1100 
L 3047 0 
L 2419 0 
L 2419 1100 
L 313 1100 
L 313 1709 
L 2253 4666 
z
" transform="scale(0.015625)"/>
     <path id="DejaVuSans-2d" d="M 313 2009 
L 1997 2009 
L 1997 1497 
L 313 1497 
L 313 2009 
z
" transform="scale(0.015625)"/>
     <path id="DejaVuSans-29" d="M 513 4856 
L 1013 4856 
Q 1481 4119 1714 3412 
Q 1947 2706 1947 2009 
Q 1947 1309 1714 600 
Q 1481 -109 1013 -844 
L 513 -844 
Q 928 -128 1133 580 
Q 1338 1288 1338 2009 
Q 1338 2731 1133 3434 
Q 928 4138 513 4856 
z
" transform="scale(0.015625)"/>
    </defs>
    <use xlink:href="#DejaVuSans-44"/>
    <use xlink:href="#DejaVuSans-46" x="77.001953"/>
    <use xlink:href="#DejaVuSans-46" x="134.521484"/>
    <use xlink:href="#DejaVuSans-20" x="192.041016"/>
    <use xlink:href="#DejaVuSans-75" x="223.828125"/>
    <use xlink:href="#DejaVuSans-6e" x="287.207031"/>
    <use xlink:href="#DejaVuSans-64" x="350.585938"/>
    <use xlink:href="#DejaVuSans-65" x="414.0625"/>
    <use xlink:href="#DejaVuSans-72" x="475.585938"/>
    <use xlink:href="#DejaVuSans-20" x="516.699219"/>
    <use xlink:href="#DejaVuSans-42" x="548.486328"/>
    <use xlink:href="#DejaVuSans-42" x="617.089844"/>
    <use xlink:href="#DejaVuSans-49" x="685.693359"/>
    <use xlink:href="#DejaVuSans-20" x="715.185547"/>
    <use xlink:href="#DejaVuSans-73" x="746.972656"/>
    <use xlink:href="#DejaVuSans-77" x="799.072266"/>
    <use xlink:href="#DejaVuSans-65" x="880.859375"/>
    <use xlink:href="#DejaVuSans-65" x="942.382812"/>
    <use xlink:href="#DejaVuSans-70" x="1003.90625"/>
    <use xlink:href="#DejaVuSans-20" x="1067.382812"/>
    <use xlink:href="#DejaVuSans-61" x="1099.169922"/>
    <use xlink:href="#DejaVuSans-6e" x="1160.449219"/>
    <use xlink:href="#DejaVuSans-61" x="1223.828125"/>
    <use xlink:href="#DejaVuSans-6c" x="1285.107422"/>
    <use xlink:href="#DejaVuSans-79" x="1312.890625"/>
    <use xlink:href="#DejaVuSans-73" x="1372.070312"/>
    <use xlink:href="#DejaVuSans-69" x="1424.169922"/>
    <use xlink:href="#DejaVuSans-73" x="1451.953125"/>
    <use xlink:href="#DejaVuSans-20" x="1504.052734"/>
    <use xlink:href="#DejaVuSans-28" x="1535.839844"/>
    <use xlink:href="#DejaVuSans-53" x="1574.853516"/>
    <use xlink:href="#DejaVuSans-77" x="1638.330078"/>
    <use xlink:href="#DejaVuSans-65" x="1720.117188"/>
    <use xlink:href="#DejaVuSans-65" x="1781.640625"/>
    <use xlink:href="#DejaVuSans-70" x="1843.164062"/>
    <use xlink:href="#DejaVuSans-20" x="1906.640625"/>
    <use xlink:href="#DejaVuSans-3d" x="1938.427734"/>
    <use xlink:href="#DejaVuSans-20" x="2022.216797"/>
    <use xlink:href="#DejaVuSans-31" x="2054.003906"/>
    <use xlink:href="#DejaVuSans-34" x="2117.626953"/>
    <use xlink:href="#DejaVuSans-39" x="2181.25"/>
    <use xlink:href="#DejaVuSans-45" x="2244.873047"/>
    <use xlink:href="#DejaVuSans-2d" x="2308.056641"/>
    <use xlink:href="#DejaVuSans-39" x="2344.140625"/>
    <use xlink:href="#DejaVuSans-29" x="2407.763672"/>
   </g>
  </g>
 </g>
 <defs>
  <clipPath id="pc76c18575f">
   <rect x="100.8" y="38.88" width="887.04" height="92.731034"/>
  </clipPath>
  <clipPath id="pf39d6cfffe">
   <rect x="100.8" y="150.157241" width="887.04" height="92.731034"/>
  </clipPath>
  <clipPath id="p62f9d701d7">
   <rect x="100.8" y="261.434483" width="887.04" height="92.731034"/>
  </clipPath>
  <clipPath id="p853cfa50a9">
   <rect x="100.8" y="372.711724" width="887.04" height="92.731034"/>
  </clipPath>
  <clipPath id="p91e5fc1bec">
   <rect x="100.8" y="483.988966" width="887.04" height="92.731034"/>
  </clipPath>
  <clipPath id="p9ce3c88589">
   <rect x="201.6" y="609.12" width="655.2" height="25.92"/>
  </clipPath>
  <clipPath id="p8b72833f97">
   <path d="M 201.6 628.56 
L 856.8 628.56 
L 856.8 615.6 
L 201.6 615.6 
z
"/>
  </clipPath>
 </defs>
</svg>
