<?xml version="1.0" encoding="utf-8" standalone="no"?>
<!DOCTYPE svg PUBLIC "-//W3C//DTD SVG 1.1//EN"
  "http://www.w3.org/Graphics/SVG/1.1/DTD/svg11.dtd">
<svg xmlns:xlink="http://www.w3.org/1999/xlink" width="1008pt" height="648pt" viewBox="0 0 1008 648" xmlns="http://www.w3.org/2000/svg" version="1.1">
 <metadata>
  <rdf:RDF xmlns:dc="http://purl.org/dc/elements/1.1/" xmlns:cc="http://creativecommons.org/ns#" xmlns:rdf="http://www.w3.org/1999/02/22-rdf-syntax-ns#">
   <cc:Work>
    <dc:type rdf:resource="http://purl.org/dc/dcmitype/StillImage"/>
    <dc:date>2024-06-03T10:45:41.299132</dc:date>
    <dc:format>image/svg+xml</dc:format>
    <dc:creator>
     <cc:Agent>
      <dc:title>Matplotlib v3.9.0, https://matplotlib.org/</dc:title>
     </cc:Agent>
    </dc:creator>
   </cc:Work>
  </rdf:RDF>
 </metadata>
 <defs>
  <style type="text/css">*{stroke-linejoin: round; stroke-linecap: butt}</style>
 </defs>
 <g id="figure_1">
  <g id="patch_1">
   <path d="M 0 648 
L 1008 648 
L 1008 0 
L 0 0 
z
" style="fill: #ffffff"/>
  </g>
  <g id="axes_1">
   <g id="patch_2">
    <path d="M 100.8 131.611034 
L 987.84 131.611034 
L 987.84 38.88 
L 100.8 38.88 
z
" style="fill: #eeeeee"/>
   </g>
   <g id="matplotlib.axis_1">
    <g id="xtick_1">
     <g id="line2d_1">
      <path d="M 141.12 131.611034 
L 141.12 38.88 
" clip-path="url(#pe17ec56884)" style="fill: none; stroke-dasharray: 1.85,0.8; stroke-dashoffset: 0; stroke: #b2b2b2; stroke-width: 0.5"/>
     </g>
     <g id="line2d_2">
      <defs>
       <path id="mc4e2b29e89" d="M 0 0 
L 0 -3.5 
" style="stroke: #000000; stroke-width: 0.8"/>
      </defs>
      <g>
       <use xlink:href="#mc4e2b29e89" x="141.12" y="131.611034" style="stroke: #000000; stroke-width: 0.8"/>
      </g>
     </g>
    </g>
    <g id="xtick_2">
     <g id="line2d_3">
      <path d="M 302.4 131.611034 
L 302.4 38.88 
" clip-path="url(#pe17ec56884)" style="fill: none; stroke-dasharray: 1.85,0.8; stroke-dashoffset: 0; stroke: #b2b2b2; stroke-width: 0.5"/>
     </g>
     <g id="line2d_4">
      <g>
       <use xlink:href="#mc4e2b29e89" x="302.4" y="131.611034" style="stroke: #000000; stroke-width: 0.8"/>
      </g>
     </g>
    </g>
    <g id="xtick_3">
     <g id="line2d_5">
      <path d="M 463.68 131.611034 
L 463.68 38.88 
" clip-path="url(#pe17ec56884)" style="fill: none; stroke-dasharray: 1.85,0.8; stroke-dashoffset: 0; stroke: #b2b2b2; stroke-width: 0.5"/>
     </g>
     <g id="line2d_6">
      <g>
       <use xlink:href="#mc4e2b29e89" x="463.68" y="131.611034" style="stroke: #000000; stroke-width: 0.8"/>
      </g>
     </g>
    </g>
    <g id="xtick_4">
     <g id="line2d_7">
      <path d="M 624.96 131.611034 
L 624.96 38.88 
" clip-path="url(#pe17ec56884)" style="fill: none; stroke-dasharray: 1.85,0.8; stroke-dashoffset: 0; stroke: #b2b2b2; stroke-width: 0.5"/>
     </g>
     <g id="line2d_8">
      <g>
       <use xlink:href="#mc4e2b29e89" x="624.96" y="131.611034" style="stroke: #000000; stroke-width: 0.8"/>
      </g>
     </g>
    </g>
    <g id="xtick_5">
     <g id="line2d_9">
      <path d="M 786.24 131.611034 
L 786.24 38.88 
" clip-path="url(#pe17ec56884)" style="fill: none; stroke-dasharray: 1.85,0.8; stroke-dashoffset: 0; stroke: #b2b2b2; stroke-width: 0.5"/>
     </g>
     <g id="line2d_10">
      <g>
       <use xlink:href="#mc4e2b29e89" x="786.24" y="131.611034" style="stroke: #000000; stroke-width: 0.8"/>
      </g>
     </g>
    </g>
    <g id="xtick_6">
     <g id="line2d_11">
      <path d="M 947.52 131.611034 
L 947.52 38.88 
" clip-path="url(#pe17ec56884)" style="fill: none; stroke-dasharray: 1.85,0.8; stroke-dashoffset: 0; stroke: #b2b2b2; stroke-width: 0.5"/>
     </g>
     <g id="line2d_12">
      <g>
       <use xlink:href="#mc4e2b29e89" x="947.52" y="131.611034" style="stroke: #000000; stroke-width: 0.8"/>
      </g>
     </g>
    </g>
   </g>
   <g id="matplotlib.axis_2">
    <g id="ytick_1">
     <g id="line2d_13">
      <path d="M 100.8 98.340394 
L 987.84 98.340394 
" clip-path="url(#pe17ec56884)" style="fill: none; stroke-dasharray: 1.85,0.8; stroke-dashoffset: 0; stroke: #b2b2b2; stroke-width: 0.5"/>
     </g>
     <g id="line2d_14">
      <defs>
       <path id="m207348fe87" d="M 0 0 
L 3.5 0 
" style="stroke: #000000; stroke-width: 0.8"/>
      </defs>
      <g>
       <use xlink:href="#m207348fe87" x="100.8" y="98.340394" style="stroke: #000000; stroke-width: 0.8"/>
      </g>
     </g>
     <g id="text_1">
      <!-- −200 V -->
      <g transform="translate(44.819688 103.6593) scale(0.14 -0.14)">
       <defs>
        <path id="DejaVuSans-2212" d="M 678 2272 
L 4684 2272 
L 4684 1741 
L 678 1741 
L 678 2272 
z
" transform="scale(0.015625)"/>
        <path id="DejaVuSans-32" d="M 1228 531 
L 3431 531 
L 3431 0 
L 469 0 
L 469 531 
Q 828 903 1448 1529 
Q 2069 2156 2228 2338 
Q 2531 2678 2651 2914 
Q 2772 3150 2772 3378 
Q 2772 3750 2511 3984 
Q 2250 4219 1831 4219 
Q 1534 4219 1204 4116 
Q 875 4013 500 3803 
L 500 4441 
Q 881 4594 1212 4672 
Q 1544 4750 1819 4750 
Q 2544 4750 2975 4387 
Q 3406 4025 3406 3419 
Q 3406 3131 3298 2873 
Q 3191 2616 2906 2266 
Q 2828 2175 2409 1742 
Q 1991 1309 1228 531 
z
" transform="scale(0.015625)"/>
        <path id="DejaVuSans-30" d="M 2034 4250 
Q 1547 4250 1301 3770 
Q 1056 3291 1056 2328 
Q 1056 1369 1301 889 
Q 1547 409 2034 409 
Q 2525 409 2770 889 
Q 3016 1369 3016 2328 
Q 3016 3291 2770 3770 
Q 2525 4250 2034 4250 
z
M 2034 4750 
Q 2819 4750 3233 4129 
Q 3647 3509 3647 2328 
Q 3647 1150 3233 529 
Q 2819 -91 2034 -91 
Q 1250 -91 836 529 
Q 422 1150 422 2328 
Q 422 3509 836 4129 
Q 1250 4750 2034 4750 
z
" transform="scale(0.015625)"/>
        <path id="DejaVuSans-20" transform="scale(0.015625)"/>
        <path id="DejaVuSans-56" d="M 1831 0 
L 50 4666 
L 709 4666 
L 2188 738 
L 3669 4666 
L 4325 4666 
L 2547 0 
L 1831 0 
z
" transform="scale(0.015625)"/>
       </defs>
       <use xlink:href="#DejaVuSans-2212"/>
       <use xlink:href="#DejaVuSans-32" x="83.789062"/>
       <use xlink:href="#DejaVuSans-30" x="147.412109"/>
       <use xlink:href="#DejaVuSans-30" x="211.035156"/>
       <use xlink:href="#DejaVuSans-20" x="274.658203"/>
       <use xlink:href="#DejaVuSans-56" x="306.445312"/>
      </g>
     </g>
    </g>
    <g id="ytick_2">
     <g id="line2d_15">
      <path d="M 100.8 45.027377 
L 987.84 45.027377 
" clip-path="url(#pe17ec56884)" style="fill: none; stroke-dasharray: 1.85,0.8; stroke-dashoffset: 0; stroke: #b2b2b2; stroke-width: 0.5"/>
     </g>
     <g id="line2d_16">
      <g>
       <use xlink:href="#m207348fe87" x="100.8" y="45.027377" style="stroke: #000000; stroke-width: 0.8"/>
      </g>
     </g>
     <g id="text_2">
      <!-- 0 V -->
      <g transform="translate(74.36625 50.346284) scale(0.14 -0.14)">
       <use xlink:href="#DejaVuSans-30"/>
       <use xlink:href="#DejaVuSans-20" x="63.623047"/>
       <use xlink:href="#DejaVuSans-56" x="95.410156"/>
      </g>
     </g>
    </g>
    <g id="text_3">
     <g id="patch_3">
      <path d="M 34.8768 131.080205 
L 34.8768 39.41083 
L 11.247425 39.41083 
L 11.247425 131.080205 
z
" style="fill: #ffff00; opacity: 0.2; stroke: #eeeeee; stroke-width: 0.5; stroke-linejoin: miter"/>
     </g>
     <!-- VPULSE BBI -->
     <g transform="translate(26.925238 126.040205) rotate(-90) scale(0.14 -0.14)">
      <defs>
       <path id="DejaVuSans-50" d="M 1259 4147 
L 1259 2394 
L 2053 2394 
Q 2494 2394 2734 2622 
Q 2975 2850 2975 3272 
Q 2975 3691 2734 3919 
Q 2494 4147 2053 4147 
L 1259 4147 
z
M 628 4666 
L 2053 4666 
Q 2838 4666 3239 4311 
Q 3641 3956 3641 3272 
Q 3641 2581 3239 2228 
Q 2838 1875 2053 1875 
L 1259 1875 
L 1259 0 
L 628 0 
L 628 4666 
z
" transform="scale(0.015625)"/>
       <path id="DejaVuSans-55" d="M 556 4666 
L 1191 4666 
L 1191 1831 
Q 1191 1081 1462 751 
Q 1734 422 2344 422 
Q 2950 422 3222 751 
Q 3494 1081 3494 1831 
L 3494 4666 
L 4128 4666 
L 4128 1753 
Q 4128 841 3676 375 
Q 3225 -91 2344 -91 
Q 1459 -91 1007 375 
Q 556 841 556 1753 
L 556 4666 
z
" transform="scale(0.015625)"/>
       <path id="DejaVuSans-4c" d="M 628 4666 
L 1259 4666 
L 1259 531 
L 3531 531 
L 3531 0 
L 628 0 
L 628 4666 
z
" transform="scale(0.015625)"/>
       <path id="DejaVuSans-53" d="M 3425 4513 
L 3425 3897 
Q 3066 4069 2747 4153 
Q 2428 4238 2131 4238 
Q 1616 4238 1336 4038 
Q 1056 3838 1056 3469 
Q 1056 3159 1242 3001 
Q 1428 2844 1947 2747 
L 2328 2669 
Q 3034 2534 3370 2195 
Q 3706 1856 3706 1288 
Q 3706 609 3251 259 
Q 2797 -91 1919 -91 
Q 1588 -91 1214 -16 
Q 841 59 441 206 
L 441 856 
Q 825 641 1194 531 
Q 1563 422 1919 422 
Q 2459 422 2753 634 
Q 3047 847 3047 1241 
Q 3047 1584 2836 1778 
Q 2625 1972 2144 2069 
L 1759 2144 
Q 1053 2284 737 2584 
Q 422 2884 422 3419 
Q 422 4038 858 4394 
Q 1294 4750 2059 4750 
Q 2388 4750 2728 4690 
Q 3069 4631 3425 4513 
z
" transform="scale(0.015625)"/>
       <path id="DejaVuSans-45" d="M 628 4666 
L 3578 4666 
L 3578 4134 
L 1259 4134 
L 1259 2753 
L 3481 2753 
L 3481 2222 
L 1259 2222 
L 1259 531 
L 3634 531 
L 3634 0 
L 628 0 
L 628 4666 
z
" transform="scale(0.015625)"/>
       <path id="DejaVuSans-42" d="M 1259 2228 
L 1259 519 
L 2272 519 
Q 2781 519 3026 730 
Q 3272 941 3272 1375 
Q 3272 1813 3026 2020 
Q 2781 2228 2272 2228 
L 1259 2228 
z
M 1259 4147 
L 1259 2741 
L 2194 2741 
Q 2656 2741 2882 2914 
Q 3109 3088 3109 3444 
Q 3109 3797 2882 3972 
Q 2656 4147 2194 4147 
L 1259 4147 
z
M 628 4666 
L 2241 4666 
Q 2963 4666 3353 4366 
Q 3744 4066 3744 3513 
Q 3744 3084 3544 2831 
Q 3344 2578 2956 2516 
Q 3422 2416 3680 2098 
Q 3938 1781 3938 1306 
Q 3938 681 3513 340 
Q 3088 0 2303 0 
L 628 0 
L 628 4666 
z
" transform="scale(0.015625)"/>
       <path id="DejaVuSans-49" d="M 628 4666 
L 1259 4666 
L 1259 0 
L 628 0 
L 628 4666 
z
" transform="scale(0.015625)"/>
      </defs>
      <use xlink:href="#DejaVuSans-56"/>
      <use xlink:href="#DejaVuSans-50" x="68.408203"/>
      <use xlink:href="#DejaVuSans-55" x="128.710938"/>
      <use xlink:href="#DejaVuSans-4c" x="201.904297"/>
      <use xlink:href="#DejaVuSans-53" x="257.617188"/>
      <use xlink:href="#DejaVuSans-45" x="321.09375"/>
      <use xlink:href="#DejaVuSans-20" x="384.277344"/>
      <use xlink:href="#DejaVuSans-42" x="416.064453"/>
      <use xlink:href="#DejaVuSans-42" x="484.667969"/>
      <use xlink:href="#DejaVuSans-49" x="553.271484"/>
     </g>
    </g>
   </g>
   <g id="line2d_17">
    <path d="M 141.12 45.027377 
L 370.169856 45.136282 
L 370.653696 46.425538 
L 378.878976 69.006772 
L 386.297856 89.863624 
L 387.910656 94.440546 
L 389.716992 99.673219 
L 393.20064 110.807642 
L 394.781184 115.853719 
L 396.006912 119.550977 
L 399.909888 121.36362 
L 400.490496 121.619522 
L 401.361408 122.003376 
L 402.006528 122.269941 
L 403.587072 122.936354 
L 404.232192 123.202919 
L 405.328896 123.629423 
L 406.070784 123.922644 
L 407.167488 124.349149 
L 408.070656 124.677024 
L 408.748032 124.943589 
L 409.554432 125.25547 
L 410.909184 125.804594 
L 413.554176 126.790885 
L 414.16704 127.022796 
L 416.1024 127.395987 
L 434.585088 127.289361 
L 434.81088 126.801547 
L 453.100032 75.087922 
L 456.841728 63.292417 
L 460.551168 51.617666 
L 465.163776 49.3412 
L 470.518272 46.984578 
L 479.227392 43.484472 
L 480.098304 43.268927 
L 494.387712 43.108189 
L 501.193728 43.184799 
L 516.547584 43.746186 
L 544.32 44.46146 
L 569.96352 44.774399 
L 605.574144 44.945888 
L 653.603328 44.953885 
L 947.52 44.953885 
L 947.52 44.953885 
" clip-path="url(#pe17ec56884)" style="fill: none; stroke: #ff0000; stroke-width: 2; stroke-linecap: square"/>
   </g>
   <g id="patch_4">
    <path d="M 100.8 131.611034 
L 100.8 38.88 
" style="fill: none; stroke: #bcbcbc; stroke-width: 0.8; stroke-linejoin: miter; stroke-linecap: square"/>
   </g>
   <g id="patch_5">
    <path d="M 987.84 131.611034 
L 987.84 38.88 
" style="fill: none; stroke: #bcbcbc; stroke-width: 0.8; stroke-linejoin: miter; stroke-linecap: square"/>
   </g>
   <g id="patch_6">
    <path d="M 100.8 131.611034 
L 987.84 131.611034 
" style="fill: none; stroke: #bcbcbc; stroke-width: 0.8; stroke-linejoin: miter; stroke-linecap: square"/>
   </g>
   <g id="patch_7">
    <path d="M 100.8 38.88 
L 987.84 38.88 
" style="fill: none; stroke: #bcbcbc; stroke-width: 0.8; stroke-linejoin: miter; stroke-linecap: square"/>
   </g>
  </g>
  <g id="axes_2">
   <g id="patch_8">
    <path d="M 100.8 242.888276 
L 987.84 242.888276 
L 987.84 150.157241 
L 100.8 150.157241 
z
" style="fill: #eeeeee"/>
   </g>
   <g id="matplotlib.axis_3">
    <g id="xtick_7">
     <g id="line2d_18">
      <path d="M 141.12 242.888276 
L 141.12 150.157241 
" clip-path="url(#p451b9ec83c)" style="fill: none; stroke-dasharray: 1.85,0.8; stroke-dashoffset: 0; stroke: #b2b2b2; stroke-width: 0.5"/>
     </g>
     <g id="line2d_19">
      <g>
       <use xlink:href="#mc4e2b29e89" x="141.12" y="242.888276" style="stroke: #000000; stroke-width: 0.8"/>
      </g>
     </g>
    </g>
    <g id="xtick_8">
     <g id="line2d_20">
      <path d="M 302.4 242.888276 
L 302.4 150.157241 
" clip-path="url(#p451b9ec83c)" style="fill: none; stroke-dasharray: 1.85,0.8; stroke-dashoffset: 0; stroke: #b2b2b2; stroke-width: 0.5"/>
     </g>
     <g id="line2d_21">
      <g>
       <use xlink:href="#mc4e2b29e89" x="302.4" y="242.888276" style="stroke: #000000; stroke-width: 0.8"/>
      </g>
     </g>
    </g>
    <g id="xtick_9">
     <g id="line2d_22">
      <path d="M 463.68 242.888276 
L 463.68 150.157241 
" clip-path="url(#p451b9ec83c)" style="fill: none; stroke-dasharray: 1.85,0.8; stroke-dashoffset: 0; stroke: #b2b2b2; stroke-width: 0.5"/>
     </g>
     <g id="line2d_23">
      <g>
       <use xlink:href="#mc4e2b29e89" x="463.68" y="242.888276" style="stroke: #000000; stroke-width: 0.8"/>
      </g>
     </g>
    </g>
    <g id="xtick_10">
     <g id="line2d_24">
      <path d="M 624.96 242.888276 
L 624.96 150.157241 
" clip-path="url(#p451b9ec83c)" style="fill: none; stroke-dasharray: 1.85,0.8; stroke-dashoffset: 0; stroke: #b2b2b2; stroke-width: 0.5"/>
     </g>
     <g id="line2d_25">
      <g>
       <use xlink:href="#mc4e2b29e89" x="624.96" y="242.888276" style="stroke: #000000; stroke-width: 0.8"/>
      </g>
     </g>
    </g>
    <g id="xtick_11">
     <g id="line2d_26">
      <path d="M 786.24 242.888276 
L 786.24 150.157241 
" clip-path="url(#p451b9ec83c)" style="fill: none; stroke-dasharray: 1.85,0.8; stroke-dashoffset: 0; stroke: #b2b2b2; stroke-width: 0.5"/>
     </g>
     <g id="line2d_27">
      <g>
       <use xlink:href="#mc4e2b29e89" x="786.24" y="242.888276" style="stroke: #000000; stroke-width: 0.8"/>
      </g>
     </g>
    </g>
    <g id="xtick_12">
     <g id="line2d_28">
      <path d="M 947.52 242.888276 
L 947.52 150.157241 
" clip-path="url(#p451b9ec83c)" style="fill: none; stroke-dasharray: 1.85,0.8; stroke-dashoffset: 0; stroke: #b2b2b2; stroke-width: 0.5"/>
     </g>
     <g id="line2d_29">
      <g>
       <use xlink:href="#mc4e2b29e89" x="947.52" y="242.888276" style="stroke: #000000; stroke-width: 0.8"/>
      </g>
     </g>
    </g>
   </g>
   <g id="matplotlib.axis_4">
    <g id="ytick_3">
     <g id="line2d_30">
      <path d="M 100.8 218.982623 
L 987.84 218.982623 
" clip-path="url(#p451b9ec83c)" style="fill: none; stroke-dasharray: 1.85,0.8; stroke-dashoffset: 0; stroke: #b2b2b2; stroke-width: 0.5"/>
     </g>
     <g id="line2d_31">
      <g>
       <use xlink:href="#m207348fe87" x="100.8" y="218.982623" style="stroke: #000000; stroke-width: 0.8"/>
      </g>
     </g>
     <g id="text_4">
      <!-- 0 V -->
      <g transform="translate(74.36625 224.30153) scale(0.14 -0.14)">
       <use xlink:href="#DejaVuSans-30"/>
       <use xlink:href="#DejaVuSans-20" x="63.623047"/>
       <use xlink:href="#DejaVuSans-56" x="95.410156"/>
      </g>
     </g>
    </g>
    <g id="ytick_4">
     <g id="line2d_32">
      <path d="M 100.8 184.701128 
L 987.84 184.701128 
" clip-path="url(#p451b9ec83c)" style="fill: none; stroke-dasharray: 1.85,0.8; stroke-dashoffset: 0; stroke: #b2b2b2; stroke-width: 0.5"/>
     </g>
     <g id="line2d_33">
      <g>
       <use xlink:href="#m207348fe87" x="100.8" y="184.701128" style="stroke: #000000; stroke-width: 0.8"/>
      </g>
     </g>
     <g id="text_5">
      <!-- 1 V -->
      <g transform="translate(74.36625 190.020034) scale(0.14 -0.14)">
       <defs>
        <path id="DejaVuSans-31" d="M 794 531 
L 1825 531 
L 1825 4091 
L 703 3866 
L 703 4441 
L 1819 4666 
L 2450 4666 
L 2450 531 
L 3481 531 
L 3481 0 
L 794 0 
L 794 531 
z
" transform="scale(0.015625)"/>
       </defs>
       <use xlink:href="#DejaVuSans-31"/>
       <use xlink:href="#DejaVuSans-20" x="63.623047"/>
       <use xlink:href="#DejaVuSans-56" x="95.410156"/>
      </g>
     </g>
    </g>
    <g id="ytick_5">
     <g id="line2d_34">
      <path d="M 100.8 150.419632 
L 987.84 150.419632 
" clip-path="url(#p451b9ec83c)" style="fill: none; stroke-dasharray: 1.85,0.8; stroke-dashoffset: 0; stroke: #b2b2b2; stroke-width: 0.5"/>
     </g>
     <g id="line2d_35">
      <g>
       <use xlink:href="#m207348fe87" x="100.8" y="150.419632" style="stroke: #000000; stroke-width: 0.8"/>
      </g>
     </g>
     <g id="text_6">
      <!-- 2 V -->
      <g transform="translate(74.36625 155.738538) scale(0.14 -0.14)">
       <use xlink:href="#DejaVuSans-32"/>
       <use xlink:href="#DejaVuSans-20" x="63.623047"/>
       <use xlink:href="#DejaVuSans-56" x="95.410156"/>
      </g>
     </g>
    </g>
    <g id="text_7">
     <g id="patch_9">
      <path d="M 34.8768 224.531509 
L 34.8768 168.514009 
L 11.247425 168.514009 
L 11.247425 224.531509 
z
" style="fill: #ffff00; opacity: 0.2; stroke: #eeeeee; stroke-width: 0.5; stroke-linejoin: miter"/>
     </g>
     <!-- DFF IN -->
     <g transform="translate(26.925238 219.491509) rotate(-90) scale(0.14 -0.14)">
      <defs>
       <path id="DejaVuSans-44" d="M 1259 4147 
L 1259 519 
L 2022 519 
Q 2988 519 3436 956 
Q 3884 1394 3884 2338 
Q 3884 3275 3436 3711 
Q 2988 4147 2022 4147 
L 1259 4147 
z
M 628 4666 
L 1925 4666 
Q 3281 4666 3915 4102 
Q 4550 3538 4550 2338 
Q 4550 1131 3912 565 
Q 3275 0 1925 0 
L 628 0 
L 628 4666 
z
" transform="scale(0.015625)"/>
       <path id="DejaVuSans-46" d="M 628 4666 
L 3309 4666 
L 3309 4134 
L 1259 4134 
L 1259 2759 
L 3109 2759 
L 3109 2228 
L 1259 2228 
L 1259 0 
L 628 0 
L 628 4666 
z
" transform="scale(0.015625)"/>
       <path id="DejaVuSans-4e" d="M 628 4666 
L 1478 4666 
L 3547 763 
L 3547 4666 
L 4159 4666 
L 4159 0 
L 3309 0 
L 1241 3903 
L 1241 0 
L 628 0 
L 628 4666 
z
" transform="scale(0.015625)"/>
      </defs>
      <use xlink:href="#DejaVuSans-44"/>
      <use xlink:href="#DejaVuSans-46" x="77.001953"/>
      <use xlink:href="#DejaVuSans-46" x="134.521484"/>
      <use xlink:href="#DejaVuSans-20" x="192.041016"/>
      <use xlink:href="#DejaVuSans-49" x="223.828125"/>
      <use xlink:href="#DejaVuSans-4e" x="253.320312"/>
     </g>
    </g>
   </g>
   <g id="line2d_36">
    <path d="M 141.12 218.932559 
L 221.953536 218.885548 
L 224.437248 199.7843 
L 225.404928 193.973587 
L 228.243456 181.197559 
L 229.598208 179.915431 
L 231.178752 179.034396 
L 236.533248 178.575024 
L 243.5328 178.465324 
L 244.952064 178.424186 
L 248.145408 178.314485 
L 249.790464 178.24935 
L 251.887104 178.139649 
L 254.241792 177.789978 
L 254.757888 177.24833 
L 255.499776 176.905516 
L 256.338432 176.919228 
L 259.789824 177.539723 
L 262.467072 177.714559 
L 263.886336 177.762553 
L 264.144384 183.04876 
L 264.434688 186.645574 
L 265.176576 191.437099 
L 267.144192 208.926489 
L 268.402176 215.49311 
L 269.047296 216.787785 
L 270.46656 218.566309 
L 273.724416 218.984474 
L 282.498048 218.936408 
L 296.980992 218.927207 
L 305.690112 218.931691 
L 347.751936 218.887259 
L 350.235648 199.81104 
L 351.687168 190.604744 
L 352.622592 185.851957 
L 354.65472 179.246942 
L 358.073856 177.673421 
L 358.557696 177.536295 
L 361.299456 177.642568 
L 362.492928 177.783122 
L 370.1376 177.882538 
L 370.266624 178.036805 
L 370.847232 179.30522 
L 371.814912 181.293547 
L 373.008384 183.230451 
L 375.556608 187.214304 
L 377.169408 190.146743 
L 377.814528 190.897165 
L 379.588608 192.76962 
L 379.97568 193.606775 
L 380.717568 196.282103 
L 383.394816 207.410219 
L 384.039936 210.351914 
L 385.684992 216.165781 
L 385.878528 216.978527 
L 386.297856 218.429046 
L 386.42688 218.8879 
L 387.104256 221.25888 
L 387.362304 222.226201 
L 387.781632 223.280494 
L 387.975168 223.507095 
L 388.652544 225.341498 
L 389.00736 225.845093 
L 389.32992 226.197164 
L 389.555712 226.690818 
L 389.942784 227.763486 
L 390.394368 228.567387 
L 390.62016 228.872149 
L 390.94272 229.815919 
L 391.458816 230.849163 
L 391.652352 231.159753 
L 392.426496 232.711334 
L 392.813568 233.315031 
L 393.103872 233.699327 
L 393.587712 234.695547 
L 393.974784 235.480593 
L 394.361856 236.043152 
L 394.877952 236.936528 
L 394.97472 237.134675 
L 395.877888 238.629349 
L 396.393984 238.379779 
L 396.7488 237.891268 
L 396.974592 237.64307 
L 397.297152 236.958468 
L 397.587456 236.466529 
L 397.684224 236.276609 
L 397.942272 235.970819 
L 398.297088 235.660228 
L 398.716416 235.201885 
L 399.716352 233.935183 
L 401.200128 232.600262 
L 401.74848 231.731569 
L 402.006528 231.597528 
L 402.167808 231.558447 
L 402.780672 231.159411 
L 403.458048 230.596851 
L 403.974144 229.975671 
L 404.393472 229.301696 
L 404.748288 229.083323 
L 404.909568 229.123775 
L 406.90944 227.432669 
L 407.296512 226.782349 
L 407.780352 226.538951 
L 408.489984 226.249958 
L 410.102784 224.808764 
L 410.489856 224.26026 
L 410.812416 224.193068 
L 411.457536 223.923958 
L 413.779968 222.112181 
L 414.263808 221.713487 
L 415.747584 220.438353 
L 416.553984 219.424512 
L 417.844224 217.58291 
L 418.68288 216.352924 
L 419.069952 215.800066 
L 422.843904 210.984065 
L 423.553536 210.228501 
L 424.1664 209.606977 
L 424.359936 209.357065 
L 424.65024 208.707431 
L 427.424256 201.102081 
L 428.391936 199.549129 
L 429.069312 198.497373 
L 433.35936 193.33458 
L 434.48832 192.152211 
L 434.746368 191.703809 
L 435.101184 190.552979 
L 436.681728 185.038458 
L 437.520384 183.041903 
L 438.262272 181.711781 
L 439.100928 180.741615 
L 440.842752 179.130385 
L 444.842496 173.415659 
L 446.810112 170.484591 
L 452.648448 162.599847 
L 453.51936 161.513124 
L 454.583808 160.100726 
L 455.519232 158.808314 
L 455.680512 158.606053 
L 455.712768 158.650619 
L 455.970816 159.637926 
L 456.325632 160.810353 
L 456.680448 161.365714 
L 457.003008 161.533693 
L 457.261056 161.509696 
L 457.615872 161.238872 
L 458.0352 160.638946 
L 458.551296 159.497372 
L 460.518912 154.742529 
L 460.970496 154.656825 
L 461.486592 154.608831 
L 462.196224 154.492274 
L 463.131648 154.386001 
L 463.615488 154.389429 
L 465.808896 154.732244 
L 468.5184 155.479581 
L 469.260288 155.657844 
L 469.711872 155.774402 
L 471.969792 156.367471 
L 480.711168 159.271114 
L 482.582016 160.141864 
L 483.452928 160.536101 
L 493.5168 164.694447 
L 494.3232 164.978983 
L 496.065024 165.452068 
L 496.452096 164.858998 
L 496.839168 164.605315 
L 497.258496 164.625884 
L 498.419712 165.362936 
L 500.322816 166.641636 
L 502.161408 167.495245 
L 502.742016 167.731787 
L 508.548096 169.466431 
L 509.289984 169.651551 
L 510.77376 170.011507 
L 511.225344 170.121208 
L 511.870464 170.275474 
L 513.096192 170.549726 
L 514.031616 170.755415 
L 515.096064 170.985101 
L 515.644416 171.087946 
L 516.74112 171.32106 
L 518.128128 171.578171 
L 519.063552 171.763291 
L 520.45056 172.016974 
L 521.25696 172.164385 
L 521.934336 172.270657 
L 524.32128 172.668323 
L 524.740608 172.726601 
L 525.482496 172.850015 
L 527.901696 173.216827 
L 528.288768 173.261393 
L 529.095168 173.367665 
L 529.837056 173.48765 
L 531.09504 173.641917 
L 536.352768 174.293266 
L 537.159168 175.294285 
L 537.836544 175.54454 
L 539.030016 175.438268 
L 539.933184 175.13659 
L 540.352512 175.023461 
L 541.287936 174.913761 
L 542.416896 174.903476 
L 544.384512 175.009749 
L 544.900608 175.061171 
L 548.51328 175.335423 
L 549.932544 175.445124 
L 550.351872 175.465693 
L 550.93248 175.513687 
L 551.73888 175.571965 
L 553.416192 175.681666 
L 554.190336 175.739945 
L 554.867712 175.777654 
L 557.480448 175.945634 
L 558.157824 175.983343 
L 560.318976 176.093044 
L 562.254336 176.189032 
L 564.189696 176.298733 
L 566.0928 176.394721 
L 566.834688 176.425575 
L 568.544256 176.497566 
L 571.09248 176.607267 
L 572.640768 176.662117 
L 575.479296 176.771818 
L 576.640512 176.812955 
L 577.446912 176.038194 
L 578.124288 175.85993 
L 579.414528 176.106757 
L 580.253184 176.343299 
L 582.962688 176.806099 
L 584.381952 176.9158 
L 585.220608 176.984363 
L 587.801088 177.094064 
L 588.381696 177.107776 
L 592.800768 177.217477 
L 593.961984 177.23119 
L 600.477696 177.340891 
L 601.058304 177.358031 
L 602.05824 177.358031 
L 603.34848 177.385456 
L 616.992768 177.467732 
L 617.928192 178.311057 
L 618.766848 178.461895 
L 622.734336 177.930532 
L 623.66976 177.844829 
L 625.185792 177.735128 
L 627.508224 177.598002 
L 657.280512 177.50887 
L 658.248192 176.631264 
L 658.570752 176.569557 
L 660.312576 176.679258 
L 663.602688 177.265471 
L 665.699328 177.3786 
L 697.632768 177.474588 
L 698.600448 178.348766 
L 700.019712 178.540743 
L 701.664768 178.431042 
L 703.438848 178.132793 
L 705.729024 177.759125 
L 709.083648 177.512298 
L 737.985024 177.430022 
L 738.468864 176.895231 
L 739.081728 176.572985 
L 740.2752 176.552416 
L 744.242688 177.282612 
L 745.92 177.351175 
L 778.240512 177.460876 
L 778.401792 177.642568 
L 778.82112 178.071086 
L 779.433984 178.393332 
L 780.659712 178.540743 
L 782.337024 178.431042 
L 784.046592 178.139649 
L 786.369024 177.759125 
L 789.723648 177.512298 
L 818.625024 177.430022 
L 819.108864 176.891803 
L 819.818496 176.562701 
L 820.9152 176.552416 
L 824.882688 177.282612 
L 826.56 177.351175 
L 858.880512 177.460876 
L 859.041792 177.642568 
L 859.46112 178.071086 
L 860.073984 178.393332 
L 861.299712 178.540743 
L 862.977024 178.431042 
L 864.686592 178.139649 
L 867.009024 177.759125 
L 870.363648 177.512298 
L 899.265024 177.430022 
L 899.748864 176.891803 
L 900.458496 176.562701 
L 901.5552 176.552416 
L 905.522688 177.282612 
L 907.2 177.351175 
L 939.520512 177.460876 
L 939.681792 177.645996 
L 940.165632 178.136221 
L 940.649472 178.359051 
L 941.55264 178.537315 
L 943.455744 178.427614 
L 946.423296 177.909963 
L 947.52 177.738556 
L 947.52 177.738556 
" clip-path="url(#p451b9ec83c)" style="fill: none; stroke: #008000; stroke-width: 2; stroke-linecap: square"/>
   </g>
   <g id="patch_10">
    <path d="M 100.8 242.888276 
L 100.8 150.157241 
" style="fill: none; stroke: #bcbcbc; stroke-width: 0.8; stroke-linejoin: miter; stroke-linecap: square"/>
   </g>
   <g id="patch_11">
    <path d="M 987.84 242.888276 
L 987.84 150.157241 
" style="fill: none; stroke: #bcbcbc; stroke-width: 0.8; stroke-linejoin: miter; stroke-linecap: square"/>
   </g>
   <g id="patch_12">
    <path d="M 100.8 242.888276 
L 987.84 242.888276 
" style="fill: none; stroke: #bcbcbc; stroke-width: 0.8; stroke-linejoin: miter; stroke-linecap: square"/>
   </g>
   <g id="patch_13">
    <path d="M 100.8 150.157241 
L 987.84 150.157241 
" style="fill: none; stroke: #bcbcbc; stroke-width: 0.8; stroke-linejoin: miter; stroke-linecap: square"/>
   </g>
  </g>
  <g id="axes_3">
   <g id="patch_14">
    <path d="M 100.8 354.165517 
L 987.84 354.165517 
L 987.84 261.434483 
L 100.8 261.434483 
z
" style="fill: #eeeeee"/>
   </g>
   <g id="matplotlib.axis_5">
    <g id="xtick_13">
     <g id="line2d_37">
      <path d="M 141.12 354.165517 
L 141.12 261.434483 
" clip-path="url(#p45088ce598)" style="fill: none; stroke-dasharray: 1.85,0.8; stroke-dashoffset: 0; stroke: #b2b2b2; stroke-width: 0.5"/>
     </g>
     <g id="line2d_38">
      <g>
       <use xlink:href="#mc4e2b29e89" x="141.12" y="354.165517" style="stroke: #000000; stroke-width: 0.8"/>
      </g>
     </g>
    </g>
    <g id="xtick_14">
     <g id="line2d_39">
      <path d="M 302.4 354.165517 
L 302.4 261.434483 
" clip-path="url(#p45088ce598)" style="fill: none; stroke-dasharray: 1.85,0.8; stroke-dashoffset: 0; stroke: #b2b2b2; stroke-width: 0.5"/>
     </g>
     <g id="line2d_40">
      <g>
       <use xlink:href="#mc4e2b29e89" x="302.4" y="354.165517" style="stroke: #000000; stroke-width: 0.8"/>
      </g>
     </g>
    </g>
    <g id="xtick_15">
     <g id="line2d_41">
      <path d="M 463.68 354.165517 
L 463.68 261.434483 
" clip-path="url(#p45088ce598)" style="fill: none; stroke-dasharray: 1.85,0.8; stroke-dashoffset: 0; stroke: #b2b2b2; stroke-width: 0.5"/>
     </g>
     <g id="line2d_42">
      <g>
       <use xlink:href="#mc4e2b29e89" x="463.68" y="354.165517" style="stroke: #000000; stroke-width: 0.8"/>
      </g>
     </g>
    </g>
    <g id="xtick_16">
     <g id="line2d_43">
      <path d="M 624.96 354.165517 
L 624.96 261.434483 
" clip-path="url(#p45088ce598)" style="fill: none; stroke-dasharray: 1.85,0.8; stroke-dashoffset: 0; stroke: #b2b2b2; stroke-width: 0.5"/>
     </g>
     <g id="line2d_44">
      <g>
       <use xlink:href="#mc4e2b29e89" x="624.96" y="354.165517" style="stroke: #000000; stroke-width: 0.8"/>
      </g>
     </g>
    </g>
    <g id="xtick_17">
     <g id="line2d_45">
      <path d="M 786.24 354.165517 
L 786.24 261.434483 
" clip-path="url(#p45088ce598)" style="fill: none; stroke-dasharray: 1.85,0.8; stroke-dashoffset: 0; stroke: #b2b2b2; stroke-width: 0.5"/>
     </g>
     <g id="line2d_46">
      <g>
       <use xlink:href="#mc4e2b29e89" x="786.24" y="354.165517" style="stroke: #000000; stroke-width: 0.8"/>
      </g>
     </g>
    </g>
    <g id="xtick_18">
     <g id="line2d_47">
      <path d="M 947.52 354.165517 
L 947.52 261.434483 
" clip-path="url(#p45088ce598)" style="fill: none; stroke-dasharray: 1.85,0.8; stroke-dashoffset: 0; stroke: #b2b2b2; stroke-width: 0.5"/>
     </g>
     <g id="line2d_48">
      <g>
       <use xlink:href="#mc4e2b29e89" x="947.52" y="354.165517" style="stroke: #000000; stroke-width: 0.8"/>
      </g>
     </g>
    </g>
   </g>
   <g id="matplotlib.axis_6">
    <g id="ytick_6">
     <g id="line2d_49">
      <path d="M 100.8 344.257618 
L 987.84 344.257618 
" clip-path="url(#p45088ce598)" style="fill: none; stroke-dasharray: 1.85,0.8; stroke-dashoffset: 0; stroke: #b2b2b2; stroke-width: 0.5"/>
     </g>
     <g id="line2d_50">
      <g>
       <use xlink:href="#m207348fe87" x="100.8" y="344.257618" style="stroke: #000000; stroke-width: 0.8"/>
      </g>
     </g>
     <g id="text_8">
      <!-- 0 V -->
      <g transform="translate(74.36625 349.576524) scale(0.14 -0.14)">
       <use xlink:href="#DejaVuSans-30"/>
       <use xlink:href="#DejaVuSans-20" x="63.623047"/>
       <use xlink:href="#DejaVuSans-56" x="95.410156"/>
      </g>
     </g>
    </g>
    <g id="ytick_7">
     <g id="line2d_51">
      <path d="M 100.8 299.325873 
L 987.84 299.325873 
" clip-path="url(#p45088ce598)" style="fill: none; stroke-dasharray: 1.85,0.8; stroke-dashoffset: 0; stroke: #b2b2b2; stroke-width: 0.5"/>
     </g>
     <g id="line2d_52">
      <g>
       <use xlink:href="#m207348fe87" x="100.8" y="299.325873" style="stroke: #000000; stroke-width: 0.8"/>
      </g>
     </g>
     <g id="text_9">
      <!-- 1 V -->
      <g transform="translate(74.36625 304.644779) scale(0.14 -0.14)">
       <use xlink:href="#DejaVuSans-31"/>
       <use xlink:href="#DejaVuSans-20" x="63.623047"/>
       <use xlink:href="#DejaVuSans-56" x="95.410156"/>
      </g>
     </g>
    </g>
    <g id="text_10">
     <g id="patch_15">
      <path d="M 34.8768 342.395313 
L 34.8768 273.204688 
L 11.247425 273.204688 
L 11.247425 342.395313 
z
" style="fill: #ffff00; opacity: 0.2; stroke: #eeeeee; stroke-width: 0.5; stroke-linejoin: miter"/>
     </g>
     <!-- CLK BUF -->
     <g transform="translate(26.925238 337.355313) rotate(-90) scale(0.14 -0.14)">
      <defs>
       <path id="DejaVuSans-43" d="M 4122 4306 
L 4122 3641 
Q 3803 3938 3442 4084 
Q 3081 4231 2675 4231 
Q 1875 4231 1450 3742 
Q 1025 3253 1025 2328 
Q 1025 1406 1450 917 
Q 1875 428 2675 428 
Q 3081 428 3442 575 
Q 3803 722 4122 1019 
L 4122 359 
Q 3791 134 3420 21 
Q 3050 -91 2638 -91 
Q 1578 -91 968 557 
Q 359 1206 359 2328 
Q 359 3453 968 4101 
Q 1578 4750 2638 4750 
Q 3056 4750 3426 4639 
Q 3797 4528 4122 4306 
z
" transform="scale(0.015625)"/>
       <path id="DejaVuSans-4b" d="M 628 4666 
L 1259 4666 
L 1259 2694 
L 3353 4666 
L 4166 4666 
L 1850 2491 
L 4331 0 
L 3500 0 
L 1259 2247 
L 1259 0 
L 628 0 
L 628 4666 
z
" transform="scale(0.015625)"/>
      </defs>
      <use xlink:href="#DejaVuSans-43"/>
      <use xlink:href="#DejaVuSans-4c" x="69.824219"/>
      <use xlink:href="#DejaVuSans-4b" x="125.537109"/>
      <use xlink:href="#DejaVuSans-20" x="191.113281"/>
      <use xlink:href="#DejaVuSans-42" x="222.900391"/>
      <use xlink:href="#DejaVuSans-55" x="291.503906"/>
      <use xlink:href="#DejaVuSans-46" x="364.697266"/>
     </g>
    </g>
   </g>
   <g id="line2d_53">
    <path d="M 141.12 344.25643 
L 173.376 344.25643 
L 173.601792 290.339524 
L 213.696 290.339524 
L 213.760512 333.347741 
L 213.825024 344.237091 
L 213.889536 344.172432 
L 213.954048 344.35193 
L 214.01856 344.262487 
L 215.3088 344.253508 
L 223.082496 344.256427 
L 254.016 344.256399 
L 254.17728 290.173276 
L 254.241792 290.46084 
L 254.403072 290.330537 
L 254.8224 290.339524 
L 294.336 290.339524 
L 294.400512 333.309998 
L 294.465024 344.592903 
L 294.529536 343.811706 
L 294.626304 344.328228 
L 294.65856 344.296255 
L 294.852096 344.217281 
L 295.206912 344.273968 
L 295.497216 344.25608 
L 319.624704 344.25643 
L 334.656 344.256432 
L 334.81728 290.258647 
L 334.881792 290.357496 
L 335.172096 290.344017 
L 370.202112 290.411415 
L 371.847168 292.882661 
L 374.976 298.602472 
L 375.008256 299.253982 
L 375.105024 345.842585 
L 375.13728 345.789791 
L 375.330816 345.839305 
L 383.427072 345.593843 
L 384.878592 345.548193 
L 385.330176 345.534309 
L 387.813888 345.494859 
L 389.039616 345.740231 
L 389.878272 346.13581 
L 395.910144 349.950021 
L 396.168192 349.821516 
L 396.845568 349.442741 
L 396.974592 349.421174 
L 397.87776 349.045545 
L 398.006784 348.945347 
L 398.103552 348.999714 
L 398.264832 348.909402 
L 399.103488 348.588948 
L 403.941888 346.934112 
L 408.780288 345.516156 
L 409.102848 345.436178 
L 409.554432 345.32906 
L 409.844736 345.260135 
L 410.393088 345.133293 
L 415.296 344.20773 
L 415.328256 345.235827 
L 415.489536 319.086854 
L 415.61856 318.802436 
L 418.618368 316.922492 
L 419.940864 316.012175 
L 424.65024 312.866504 
L 431.294976 309.014954 
L 434.81088 307.008303 
L 436.10112 304.465615 
L 438.165504 299.776988 
L 442.358784 290.294592 
L 443.03616 288.843297 
L 444.81024 285.158894 
L 450.261504 274.766181 
L 451.26144 273.031816 
L 453.003264 270.097773 
L 453.84192 268.745327 
L 455.035392 266.656001 
L 455.583744 265.707941 
L 455.616 265.64953 
L 455.680512 343.407285 
L 455.809536 342.744901 
L 456.196608 342.749125 
L 460.389888 342.871833 
L 460.712448 343.216774 
L 461.389824 343.811473 
L 462.196224 344.209968 
L 463.228416 344.466092 
L 464.841216 344.618815 
L 471.873024 344.656185 
L 481.065984 344.731064 
L 484.00128 344.772895 
L 489.581568 344.712732 
L 495.936 344.641776 
L 496.065024 274.060752 
L 496.194048 274.343822 
L 497.129472 274.739222 
L 506.128896 278.392173 
L 506.386944 278.495516 
L 508.128768 279.111081 
L 508.419072 279.214424 
L 509.515776 279.560398 
L 509.773824 279.663741 
L 510.77376 279.964784 
L 511.031808 280.063634 
L 511.483392 280.189443 
L 521.708544 282.930279 
L 522.160128 283.029129 
L 522.579456 283.136965 
L 523.224576 283.289733 
L 523.708416 283.388583 
L 524.063232 283.46946 
L 524.579328 283.56831 
L 524.998656 283.676146 
L 525.514752 283.779489 
L 527.22432 284.125463 
L 527.740416 284.228806 
L 530.12736 284.660151 
L 530.44992 284.723056 
L 533.804544 285.289196 
L 534.127104 285.3521 
L 536.256 285.666622 
L 536.288256 294.104804 
L 536.352768 345.303494 
L 536.41728 344.252717 
L 536.449536 344.774872 
L 536.514048 344.397149 
L 536.643072 344.384681 
L 538.6752 344.375434 
L 542.932992 344.361765 
L 547.126272 344.34789 
L 576.576 344.292381 
L 576.705024 288.699515 
L 576.801792 289.040996 
L 577.285632 289.081435 
L 580.511232 289.184778 
L 580.866048 289.21623 
L 584.47872 289.319573 
L 584.833536 289.351025 
L 588.930048 289.454368 
L 589.284864 289.485821 
L 594.15552 289.589164 
L 594.510336 289.620616 
L 600.44544 289.723959 
L 600.800256 289.755411 
L 608.380416 289.858754 
L 608.735232 289.890206 
L 616.896 289.890206 
L 617.025024 344.600721 
L 617.186304 344.339443 
L 617.444352 344.239285 
L 617.799168 344.288165 
L 618.121728 344.269062 
L 654.441984 344.269295 
L 657.216 344.269298 
L 657.37728 289.656561 
L 657.441792 290.16429 
L 657.53856 289.701493 
L 657.603072 289.872234 
L 658.054656 289.890206 
L 697.536 289.890206 
L 697.826304 344.369777 
L 697.987584 344.26655 
L 699.31008 344.266811 
L 707.599872 344.273075 
L 734.920704 344.269334 
L 737.856 344.269339 
L 738.01728 289.800343 
L 738.081792 289.908179 
L 738.98496 289.890206 
L 778.176 289.890206 
L 778.466304 344.369777 
L 778.627584 344.266545 
L 779.95008 344.266808 
L 788.239872 344.273098 
L 815.560704 344.269334 
L 818.496 344.269339 
L 818.65728 289.800343 
L 818.721792 289.908179 
L 819.62496 289.890206 
L 858.816 289.890206 
L 859.106304 344.369781 
L 859.267584 344.266549 
L 860.59008 344.266811 
L 868.879872 344.273094 
L 896.103936 344.269334 
L 899.136 344.269339 
L 899.29728 289.800343 
L 899.361792 289.908179 
L 900.26496 289.890206 
L 939.456 289.890206 
L 939.488256 297.9914 
L 939.61728 344.215857 
L 939.649536 344.346511 
L 939.714048 344.22151 
L 939.746304 344.182083 
L 939.810816 344.240076 
L 940.004352 344.296187 
L 940.197888 344.268553 
L 945.391104 344.269304 
L 947.52 344.269287 
L 947.52 344.269287 
" clip-path="url(#p45088ce598)" style="fill: none; stroke: #0000ff; stroke-width: 2; stroke-linecap: square"/>
   </g>
   <g id="patch_16">
    <path d="M 100.8 354.165517 
L 100.8 261.434483 
" style="fill: none; stroke: #bcbcbc; stroke-width: 0.8; stroke-linejoin: miter; stroke-linecap: square"/>
   </g>
   <g id="patch_17">
    <path d="M 987.84 354.165517 
L 987.84 261.434483 
" style="fill: none; stroke: #bcbcbc; stroke-width: 0.8; stroke-linejoin: miter; stroke-linecap: square"/>
   </g>
   <g id="patch_18">
    <path d="M 100.8 354.165517 
L 987.84 354.165517 
" style="fill: none; stroke: #bcbcbc; stroke-width: 0.8; stroke-linejoin: miter; stroke-linecap: square"/>
   </g>
   <g id="patch_19">
    <path d="M 100.8 261.434483 
L 987.84 261.434483 
" style="fill: none; stroke: #bcbcbc; stroke-width: 0.8; stroke-linejoin: miter; stroke-linecap: square"/>
   </g>
  </g>
  <g id="axes_4">
   <g id="patch_20">
    <path d="M 100.8 465.442759 
L 987.84 465.442759 
L 987.84 372.711724 
L 100.8 372.711724 
z
" style="fill: #eeeeee"/>
   </g>
   <g id="matplotlib.axis_7">
    <g id="xtick_19">
     <g id="line2d_54">
      <path d="M 141.12 465.442759 
L 141.12 372.711724 
" clip-path="url(#p1c8df39e68)" style="fill: none; stroke-dasharray: 1.85,0.8; stroke-dashoffset: 0; stroke: #b2b2b2; stroke-width: 0.5"/>
     </g>
     <g id="line2d_55">
      <g>
       <use xlink:href="#mc4e2b29e89" x="141.12" y="465.442759" style="stroke: #000000; stroke-width: 0.8"/>
      </g>
     </g>
    </g>
    <g id="xtick_20">
     <g id="line2d_56">
      <path d="M 302.4 465.442759 
L 302.4 372.711724 
" clip-path="url(#p1c8df39e68)" style="fill: none; stroke-dasharray: 1.85,0.8; stroke-dashoffset: 0; stroke: #b2b2b2; stroke-width: 0.5"/>
     </g>
     <g id="line2d_57">
      <g>
       <use xlink:href="#mc4e2b29e89" x="302.4" y="465.442759" style="stroke: #000000; stroke-width: 0.8"/>
      </g>
     </g>
    </g>
    <g id="xtick_21">
     <g id="line2d_58">
      <path d="M 463.68 465.442759 
L 463.68 372.711724 
" clip-path="url(#p1c8df39e68)" style="fill: none; stroke-dasharray: 1.85,0.8; stroke-dashoffset: 0; stroke: #b2b2b2; stroke-width: 0.5"/>
     </g>
     <g id="line2d_59">
      <g>
       <use xlink:href="#mc4e2b29e89" x="463.68" y="465.442759" style="stroke: #000000; stroke-width: 0.8"/>
      </g>
     </g>
    </g>
    <g id="xtick_22">
     <g id="line2d_60">
      <path d="M 624.96 465.442759 
L 624.96 372.711724 
" clip-path="url(#p1c8df39e68)" style="fill: none; stroke-dasharray: 1.85,0.8; stroke-dashoffset: 0; stroke: #b2b2b2; stroke-width: 0.5"/>
     </g>
     <g id="line2d_61">
      <g>
       <use xlink:href="#mc4e2b29e89" x="624.96" y="465.442759" style="stroke: #000000; stroke-width: 0.8"/>
      </g>
     </g>
    </g>
    <g id="xtick_23">
     <g id="line2d_62">
      <path d="M 786.24 465.442759 
L 786.24 372.711724 
" clip-path="url(#p1c8df39e68)" style="fill: none; stroke-dasharray: 1.85,0.8; stroke-dashoffset: 0; stroke: #b2b2b2; stroke-width: 0.5"/>
     </g>
     <g id="line2d_63">
      <g>
       <use xlink:href="#mc4e2b29e89" x="786.24" y="465.442759" style="stroke: #000000; stroke-width: 0.8"/>
      </g>
     </g>
    </g>
    <g id="xtick_24">
     <g id="line2d_64">
      <path d="M 947.52 465.442759 
L 947.52 372.711724 
" clip-path="url(#p1c8df39e68)" style="fill: none; stroke-dasharray: 1.85,0.8; stroke-dashoffset: 0; stroke: #b2b2b2; stroke-width: 0.5"/>
     </g>
     <g id="line2d_65">
      <g>
       <use xlink:href="#mc4e2b29e89" x="947.52" y="465.442759" style="stroke: #000000; stroke-width: 0.8"/>
      </g>
     </g>
    </g>
   </g>
   <g id="matplotlib.axis_8">
    <g id="ytick_8">
     <g id="line2d_66">
      <path d="M 100.8 438.57657 
L 987.84 438.57657 
" clip-path="url(#p1c8df39e68)" style="fill: none; stroke-dasharray: 1.85,0.8; stroke-dashoffset: 0; stroke: #b2b2b2; stroke-width: 0.5"/>
     </g>
     <g id="line2d_67">
      <g>
       <use xlink:href="#m207348fe87" x="100.8" y="438.57657" style="stroke: #000000; stroke-width: 0.8"/>
      </g>
     </g>
     <g id="text_11">
      <!-- 0 V -->
      <g transform="translate(74.36625 443.895476) scale(0.14 -0.14)">
       <use xlink:href="#DejaVuSans-30"/>
       <use xlink:href="#DejaVuSans-20" x="63.623047"/>
       <use xlink:href="#DejaVuSans-56" x="95.410156"/>
      </g>
     </g>
    </g>
    <g id="ytick_9">
     <g id="line2d_68">
      <path d="M 100.8 398.735676 
L 987.84 398.735676 
" clip-path="url(#p1c8df39e68)" style="fill: none; stroke-dasharray: 1.85,0.8; stroke-dashoffset: 0; stroke: #b2b2b2; stroke-width: 0.5"/>
     </g>
     <g id="line2d_69">
      <g>
       <use xlink:href="#m207348fe87" x="100.8" y="398.735676" style="stroke: #000000; stroke-width: 0.8"/>
      </g>
     </g>
     <g id="text_12">
      <!-- 1 V -->
      <g transform="translate(74.36625 404.054583) scale(0.14 -0.14)">
       <use xlink:href="#DejaVuSans-31"/>
       <use xlink:href="#DejaVuSans-20" x="63.623047"/>
       <use xlink:href="#DejaVuSans-56" x="95.410156"/>
      </g>
     </g>
    </g>
    <g id="text_13">
     <g id="patch_21">
      <path d="M 34.8768 454.693023 
L 34.8768 383.46146 
L 11.247425 383.46146 
L 11.247425 454.693023 
z
" style="fill: #ffff00; opacity: 0.2; stroke: #eeeeee; stroke-width: 0.5; stroke-linejoin: miter"/>
     </g>
     <!-- DFF OUT -->
     <g transform="translate(26.925238 449.653023) rotate(-90) scale(0.14 -0.14)">
      <defs>
       <path id="DejaVuSans-4f" d="M 2522 4238 
Q 1834 4238 1429 3725 
Q 1025 3213 1025 2328 
Q 1025 1447 1429 934 
Q 1834 422 2522 422 
Q 3209 422 3611 934 
Q 4013 1447 4013 2328 
Q 4013 3213 3611 3725 
Q 3209 4238 2522 4238 
z
M 2522 4750 
Q 3503 4750 4090 4092 
Q 4678 3434 4678 2328 
Q 4678 1225 4090 567 
Q 3503 -91 2522 -91 
Q 1538 -91 948 565 
Q 359 1222 359 2328 
Q 359 3434 948 4092 
Q 1538 4750 2522 4750 
z
" transform="scale(0.015625)"/>
       <path id="DejaVuSans-54" d="M -19 4666 
L 3928 4666 
L 3928 4134 
L 2272 4134 
L 2272 0 
L 1638 0 
L 1638 4134 
L -19 4134 
L -19 4666 
z
" transform="scale(0.015625)"/>
      </defs>
      <use xlink:href="#DejaVuSans-44"/>
      <use xlink:href="#DejaVuSans-46" x="77.001953"/>
      <use xlink:href="#DejaVuSans-46" x="134.521484"/>
      <use xlink:href="#DejaVuSans-20" x="192.041016"/>
      <use xlink:href="#DejaVuSans-4f" x="223.828125"/>
      <use xlink:href="#DejaVuSans-55" x="302.539062"/>
      <use xlink:href="#DejaVuSans-54" x="375.732422"/>
     </g>
    </g>
   </g>
   <g id="line2d_70">
    <path d="M 141.12 408.51542 
L 173.408256 408.564026 
L 173.440512 410.213439 
L 173.601792 438.579002 
L 174.117888 438.574374 
L 184.34304 438.575517 
L 254.048256 438.577177 
L 254.080512 438.736443 
L 254.112768 438.472996 
L 254.306304 434.583317 
L 254.596608 433.803631 
L 254.693376 433.247452 
L 255.14496 426.267327 
L 255.370752 409.861644 
L 255.596544 391.153954 
L 255.757824 390.827259 
L 255.983616 390.763514 
L 256.91904 390.767498 
L 295.755264 390.847179 
L 296.239104 393.424885 
L 296.59392 392.779463 
L 297.948672 391.094193 
L 299.593728 390.79937 
L 334.688256 390.783434 
L 334.720512 390.667895 
L 334.752768 391.253557 
L 334.785024 394.149989 
L 334.914048 438.560238 
L 334.97856 438.525175 
L 335.13984 438.56822 
L 335.494656 438.575991 
L 366.782976 438.575473 
L 370.234368 438.685272 
L 370.879488 439.251515 
L 371.685888 439.63837 
L 372.71808 439.870044 
L 374.266368 439.974587 
L 376.10496 439.952356 
L 376.26624 439.626059 
L 376.298496 439.64323 
L 376.5888 439.914427 
L 377.104896 439.939168 
L 379.97568 439.788052 
L 381.040128 439.54558 
L 381.58848 439.145179 
L 381.91104 438.50539 
L 382.136832 437.530746 
L 382.330368 435.584081 
L 382.620672 429.342248 
L 382.87872 425.399991 
L 383.007744 425.363338 
L 383.169024 425.61553 
L 383.233536 425.563737 
L 383.52384 426.78008 
L 384.81408 432.290872 
L 385.233408 434.050246 
L 386.233344 437.912143 
L 386.2656 437.389989 
L 386.330112 437.731465 
L 386.813952 440.268453 
L 386.91072 440.54463 
L 386.878464 440.117257 
L 386.942976 440.421642 
L 386.975232 440.245664 
L 387.007488 440.610647 
L 387.652608 443.163054 
L 387.684864 442.912853 
L 387.71712 443.330784 
L 387.749376 443.014049 
L 389.00736 446.427616 
L 389.039616 446.202117 
L 389.104128 446.295743 
L 389.4912 447.439974 
L 390.2976 449.264686 
L 390.426624 449.43401 
L 390.749184 450.232023 
L 390.910464 450.790194 
L 391.007232 450.878641 
L 391.233024 451.622869 
L 391.716864 452.489807 
L 391.9104 452.869491 
L 393.168384 455.618911 
L 393.5232 456.400589 
L 393.68448 456.79342 
L 394.039296 457.638445 
L 395.974656 461.227712 
L 396.232704 461.047631 
L 397.103616 459.522521 
L 397.297152 459.004191 
L 397.813248 458.115739 
L 397.845504 458.167533 
L 397.87776 458.124903 
L 398.03904 457.806972 
L 398.490624 457.097008 
L 399.103488 456.195807 
L 400.038912 455.190621 
L 400.071168 455.227673 
L 400.103424 455.144804 
L 400.716288 454.27946 
L 400.748544 454.401771 
L 400.7808 454.189818 
L 400.845312 454.284639 
L 400.94208 454.004159 
L 400.974336 454.163124 
L 401.006592 453.930055 
L 401.038848 454.108941 
L 401.296896 453.584635 
L 401.683968 453.155947 
L 401.90976 452.91212 
L 401.942016 453.11252 
L 401.974272 452.851961 
L 402.006528 452.967101 
L 402.264576 452.637617 
L 402.296832 452.732039 
L 402.329088 452.560325 
L 403.2 451.591793 
L 403.554816 451.11689 
L 403.619328 451.063503 
L 403.651584 451.305735 
L 403.84512 450.789796 
L 404.554752 450.09776 
L 404.716032 449.966683 
L 404.748288 450.183816 
L 404.845056 450.087401 
L 405.13536 449.716482 
L 405.361152 449.557119 
L 406.038528 448.608905 
L 406.167552 448.402928 
L 406.199808 448.679822 
L 406.26432 448.283405 
L 406.296576 448.546754 
L 406.361088 448.181811 
L 406.522368 448.013682 
L 406.554624 448.34476 
L 406.619136 447.93918 
L 406.651392 447.901331 
L 406.683648 448.041969 
L 406.715904 447.835992 
L 407.038464 447.494556 
L 407.586816 447.091366 
L 408.68352 446.284588 
L 408.812544 446.075423 
L 408.941568 445.686576 
L 409.00608 445.926418 
L 409.135104 445.396136 
L 409.16736 445.373426 
L 409.199616 445.494144 
L 409.231872 445.24474 
L 409.360896 445.174222 
L 409.554432 444.975017 
L 409.586688 445.37741 
L 409.6512 444.896531 
L 409.683456 445.300119 
L 409.81248 444.715255 
L 409.844736 444.719239 
L 409.876992 445.123624 
L 409.941504 444.655892 
L 410.586624 444.254296 
L 410.61888 444.365452 
L 410.683392 444.25071 
L 410.909184 444.205291 
L 412.005888 443.225205 
L 412.328448 442.890143 
L 412.457472 442.292928 
L 412.521984 442.236713 
L 412.55424 442.485081 
L 412.586496 442.398985 
L 412.683264 442.52305 
L 412.71552 441.95448 
L 412.747776 441.992966 
L 412.780032 442.464683 
L 412.812288 441.875994 
L 412.844544 442.256474 
L 413.005824 441.832726 
L 413.070336 442.152609 
L 413.102592 441.672128 
L 413.19936 441.71157 
L 413.231616 441.884798 
L 413.263872 441.73922 
L 413.296128 441.531011 
L 413.36064 441.577187 
L 413.392896 441.909938 
L 413.457408 441.760614 
L 413.52192 441.792527 
L 413.586432 441.508023 
L 413.650944 441.60902 
L 413.6832 441.454198 
L 413.747712 441.535752 
L 413.876736 441.381966 
L 414.038016 441.315113 
L 414.586368 440.813995 
L 415.554048 439.722593 
L 416.037888 438.826858 
L 416.1024 438.564763 
L 416.166912 438.60922 
L 416.231424 438.610284 
L 416.26368 438.557075 
L 417.521664 436.25528 
L 417.650688 435.977948 
L 417.747456 435.910138 
L 418.715136 434.105625 
L 418.84416 433.217571 
L 418.973184 433.264982 
L 419.00544 433.450242 
L 419.069952 433.294863 
L 419.457024 432.703225 
L 419.715072 432.13868 
L 420.231168 431.263774 
L 420.263424 430.554606 
L 420.360192 430.664168 
L 420.45696 430.843851 
L 420.521472 430.735484 
L 422.263296 427.436658 
L 422.682624 426.662549 
L 422.71488 426.878088 
L 422.747136 426.583266 
L 422.811648 426.471711 
L 422.843904 426.681673 
L 422.908416 426.567728 
L 423.101952 426.358165 
L 423.908352 424.948195 
L 424.069632 424.596002 
L 424.230912 423.747789 
L 424.263168 423.717112 
L 424.295424 423.949384 
L 424.359936 423.607948 
L 424.553472 423.260535 
L 425.069568 421.89718 
L 425.29536 421.246578 
L 425.61792 420.552151 
L 425.682432 420.440995 
L 425.811456 419.436606 
L 425.843712 420.148961 
L 425.908224 420.06171 
L 425.94048 419.338598 
L 426.037248 419.50075 
L 426.134016 419.48322 
L 426.198528 419.532623 
L 426.392064 419.185609 
L 427.101696 417.808707 
L 427.585536 417.09436 
L 427.650048 416.591568 
L 427.71456 416.656907 
L 427.779072 416.756111 
L 427.811328 416.703919 
L 429.843456 413.589955 
L 430.069248 413.409874 
L 430.101504 413.373221 
L 430.13376 413.499118 
L 430.262784 414.546535 
L 430.424064 420.398764 
L 430.714368 438.012662 
L 431.26272 438.066885 
L 434.6496 438.142025 
L 434.907648 437.882223 
L 435.585024 437.3872 
L 436.455936 437.052775 
L 437.617152 436.868312 
L 439.520256 436.824049 
L 444.745728 437.005444 
L 454.64832 437.273653 
L 456.90624 437.256362 
L 460.486656 437.417479 
L 461.228544 438.092822 
L 462.034944 438.493127 
L 463.163904 438.764292 
L 464.841216 438.908082 
L 469.16352 438.948062 
L 481.840128 439.027728 
L 486.194688 439.019043 
L 495.968256 438.936457 
L 496.000512 439.258447 
L 496.290816 430.693252 
L 496.516608 428.869336 
L 496.677888 424.714728 
L 496.871424 409.660846 
L 497.193984 376.982548 
L 497.22624 376.926771 
L 497.290752 376.998485 
L 506.483712 380.293327 
L 506.806272 380.396913 
L 508.548096 380.930781 
L 508.935168 381.034367 
L 510.4512 381.488553 
L 510.870528 381.59214 
L 512.193024 381.966644 
L 512.612352 382.070231 
L 513.805824 382.40091 
L 514.741248 382.628003 
L 515.61216 382.843144 
L 515.999232 382.94673 
L 516.773376 383.12203 
L 517.257216 383.225616 
L 518.03136 383.400916 
L 518.418432 383.504503 
L 519.095808 383.639962 
L 519.48288 383.743548 
L 520.160256 383.879007 
L 520.644096 383.982593 
L 521.321472 384.118052 
L 521.805312 384.221639 
L 522.482688 384.357098 
L 522.966528 384.460684 
L 523.643904 384.596143 
L 524.224512 384.69973 
L 524.901888 384.835189 
L 525.482496 384.938775 
L 526.030848 385.034393 
L 526.546944 385.137979 
L 527.095296 385.233597 
L 527.70816 385.3332 
L 528.062976 385.392961 
L 528.67584 385.496547 
L 529.224192 385.592166 
L 529.837056 385.691768 
L 530.191872 385.751529 
L 530.901504 385.851131 
L 531.25632 385.910893 
L 531.965952 386.010495 
L 532.320768 386.070256 
L 533.0304 386.169858 
L 533.385216 386.22962 
L 534.094848 386.329222 
L 534.449664 386.388983 
L 535.256064 386.488586 
L 535.61088 386.548347 
L 536.352768 386.596156 
L 536.385024 386.679822 
L 536.481792 386.632013 
L 536.868864 386.707711 
L 537.772032 386.807313 
L 538.126848 386.867074 
L 539.030016 386.966676 
L 539.32032 386.986597 
L 540.094464 387.086199 
L 540.44928 387.14596 
L 541.449216 387.245563 
L 541.73952 387.265483 
L 542.513664 387.365085 
L 542.803968 387.385006 
L 543.67488 387.484608 
L 543.965184 387.504528 
L 544.836096 387.604131 
L 545.1264 387.624051 
L 545.997312 387.723653 
L 546.287616 387.743574 
L 547.255296 387.843176 
L 547.5456 387.863096 
L 548.610048 387.962699 
L 548.900352 387.982619 
L 549.9648 388.082221 
L 550.255104 388.102142 
L 551.41632 388.201744 
L 551.706624 388.221665 
L 552.86784 388.321267 
L 553.158144 388.341187 
L 554.512896 388.440789 
L 554.8032 388.46071 
L 556.157952 388.560312 
L 556.448256 388.580233 
L 557.899776 388.679835 
L 558.157824 388.695771 
L 559.738368 388.799357 
L 559.996416 388.815294 
L 561.673728 388.91888 
L 561.931776 388.934816 
L 563.802624 389.038403 
L 564.060672 389.054339 
L 566.028288 389.157926 
L 566.286336 389.173862 
L 568.447488 389.277448 
L 568.802304 389.297369 
L 571.060224 389.396971 
L 571.318272 389.412907 
L 573.963264 389.516494 
L 574.253568 389.536414 
L 576.608256 389.596175 
L 576.640512 389.851157 
L 576.705024 389.580239 
L 576.89856 389.608128 
L 579.382272 389.715698 
L 579.64032 389.731634 
L 583.156224 389.835221 
L 583.414272 389.851157 
L 587.414016 389.954743 
L 587.672064 389.97068 
L 592.349184 390.074266 
L 592.704 390.090202 
L 598.252032 390.193789 
L 598.606848 390.213709 
L 605.509632 390.313311 
L 605.864448 390.333232 
L 657.248256 390.365105 
L 657.280512 390.568293 
L 657.345024 390.365105 
L 657.53856 390.345184 
L 658.635264 390.369089 
L 737.888256 390.385025 
L 737.920512 390.520484 
L 737.985024 390.337216 
L 738.275328 390.36112 
L 818.528256 390.385025 
L 818.560512 390.520484 
L 818.625024 390.337216 
L 818.915328 390.36112 
L 899.168256 390.385025 
L 899.200512 390.520484 
L 899.265024 390.337216 
L 899.555328 390.36112 
L 947.52 390.369089 
L 947.52 390.369089 
" clip-path="url(#p1c8df39e68)" style="fill: none; stroke: #ff00ff; stroke-width: 2; stroke-linecap: square"/>
   </g>
   <g id="patch_22">
    <path d="M 100.8 465.442759 
L 100.8 372.711724 
" style="fill: none; stroke: #bcbcbc; stroke-width: 0.8; stroke-linejoin: miter; stroke-linecap: square"/>
   </g>
   <g id="patch_23">
    <path d="M 987.84 465.442759 
L 987.84 372.711724 
" style="fill: none; stroke: #bcbcbc; stroke-width: 0.8; stroke-linejoin: miter; stroke-linecap: square"/>
   </g>
   <g id="patch_24">
    <path d="M 100.8 465.442759 
L 987.84 465.442759 
" style="fill: none; stroke: #bcbcbc; stroke-width: 0.8; stroke-linejoin: miter; stroke-linecap: square"/>
   </g>
   <g id="patch_25">
    <path d="M 100.8 372.711724 
L 987.84 372.711724 
" style="fill: none; stroke: #bcbcbc; stroke-width: 0.8; stroke-linejoin: miter; stroke-linecap: square"/>
   </g>
  </g>
  <g id="axes_5">
   <g id="patch_26">
    <path d="M 100.8 576.72 
L 987.84 576.72 
L 987.84 483.988966 
L 100.8 483.988966 
z
" style="fill: #eeeeee"/>
   </g>
   <g id="matplotlib.axis_9">
    <g id="xtick_25">
     <g id="line2d_71">
      <path d="M 141.12 576.72 
L 141.12 483.988966 
" clip-path="url(#pe9783be8ec)" style="fill: none; stroke-dasharray: 1.85,0.8; stroke-dashoffset: 0; stroke: #b2b2b2; stroke-width: 0.5"/>
     </g>
     <g id="line2d_72">
      <g>
       <use xlink:href="#mc4e2b29e89" x="141.12" y="576.72" style="stroke: #000000; stroke-width: 0.8"/>
      </g>
     </g>
     <g id="text_14">
      <!-- 0 s -->
      <g transform="translate(130.795 590.857813) scale(0.14 -0.14)">
       <defs>
        <path id="DejaVuSans-73" d="M 2834 3397 
L 2834 2853 
Q 2591 2978 2328 3040 
Q 2066 3103 1784 3103 
Q 1356 3103 1142 2972 
Q 928 2841 928 2578 
Q 928 2378 1081 2264 
Q 1234 2150 1697 2047 
L 1894 2003 
Q 2506 1872 2764 1633 
Q 3022 1394 3022 966 
Q 3022 478 2636 193 
Q 2250 -91 1575 -91 
Q 1294 -91 989 -36 
Q 684 19 347 128 
L 347 722 
Q 666 556 975 473 
Q 1284 391 1588 391 
Q 1994 391 2212 530 
Q 2431 669 2431 922 
Q 2431 1156 2273 1281 
Q 2116 1406 1581 1522 
L 1381 1569 
Q 847 1681 609 1914 
Q 372 2147 372 2553 
Q 372 3047 722 3315 
Q 1072 3584 1716 3584 
Q 2034 3584 2315 3537 
Q 2597 3491 2834 3397 
z
" transform="scale(0.015625)"/>
       </defs>
       <use xlink:href="#DejaVuSans-30"/>
       <use xlink:href="#DejaVuSans-20" x="63.623047"/>
       <use xlink:href="#DejaVuSans-73" x="95.410156"/>
      </g>
     </g>
    </g>
    <g id="xtick_26">
     <g id="line2d_73">
      <path d="M 302.4 576.72 
L 302.4 483.988966 
" clip-path="url(#pe9783be8ec)" style="fill: none; stroke-dasharray: 1.85,0.8; stroke-dashoffset: 0; stroke: #b2b2b2; stroke-width: 0.5"/>
     </g>
     <g id="line2d_74">
      <g>
       <use xlink:href="#mc4e2b29e89" x="302.4" y="576.72" style="stroke: #000000; stroke-width: 0.8"/>
      </g>
     </g>
     <g id="text_15">
      <!-- 50 ns -->
      <g transform="translate(283.185 590.857813) scale(0.14 -0.14)">
       <defs>
        <path id="DejaVuSans-35" d="M 691 4666 
L 3169 4666 
L 3169 4134 
L 1269 4134 
L 1269 2991 
Q 1406 3038 1543 3061 
Q 1681 3084 1819 3084 
Q 2600 3084 3056 2656 
Q 3513 2228 3513 1497 
Q 3513 744 3044 326 
Q 2575 -91 1722 -91 
Q 1428 -91 1123 -41 
Q 819 9 494 109 
L 494 744 
Q 775 591 1075 516 
Q 1375 441 1709 441 
Q 2250 441 2565 725 
Q 2881 1009 2881 1497 
Q 2881 1984 2565 2268 
Q 2250 2553 1709 2553 
Q 1456 2553 1204 2497 
Q 953 2441 691 2322 
L 691 4666 
z
" transform="scale(0.015625)"/>
        <path id="DejaVuSans-6e" d="M 3513 2113 
L 3513 0 
L 2938 0 
L 2938 2094 
Q 2938 2591 2744 2837 
Q 2550 3084 2163 3084 
Q 1697 3084 1428 2787 
Q 1159 2491 1159 1978 
L 1159 0 
L 581 0 
L 581 3500 
L 1159 3500 
L 1159 2956 
Q 1366 3272 1645 3428 
Q 1925 3584 2291 3584 
Q 2894 3584 3203 3211 
Q 3513 2838 3513 2113 
z
" transform="scale(0.015625)"/>
       </defs>
       <use xlink:href="#DejaVuSans-35"/>
       <use xlink:href="#DejaVuSans-30" x="63.623047"/>
       <use xlink:href="#DejaVuSans-20" x="127.246094"/>
       <use xlink:href="#DejaVuSans-6e" x="159.033203"/>
       <use xlink:href="#DejaVuSans-73" x="222.412109"/>
      </g>
     </g>
    </g>
    <g id="xtick_27">
     <g id="line2d_75">
      <path d="M 463.68 576.72 
L 463.68 483.988966 
" clip-path="url(#pe9783be8ec)" style="fill: none; stroke-dasharray: 1.85,0.8; stroke-dashoffset: 0; stroke: #b2b2b2; stroke-width: 0.5"/>
     </g>
     <g id="line2d_76">
      <g>
       <use xlink:href="#mc4e2b29e89" x="463.68" y="576.72" style="stroke: #000000; stroke-width: 0.8"/>
      </g>
     </g>
     <g id="text_16">
      <!-- 100 ns -->
      <g transform="translate(440.01125 590.857813) scale(0.14 -0.14)">
       <use xlink:href="#DejaVuSans-31"/>
       <use xlink:href="#DejaVuSans-30" x="63.623047"/>
       <use xlink:href="#DejaVuSans-30" x="127.246094"/>
       <use xlink:href="#DejaVuSans-20" x="190.869141"/>
       <use xlink:href="#DejaVuSans-6e" x="222.65625"/>
       <use xlink:href="#DejaVuSans-73" x="286.035156"/>
      </g>
     </g>
    </g>
    <g id="xtick_28">
     <g id="line2d_77">
      <path d="M 624.96 576.72 
L 624.96 483.988966 
" clip-path="url(#pe9783be8ec)" style="fill: none; stroke-dasharray: 1.85,0.8; stroke-dashoffset: 0; stroke: #b2b2b2; stroke-width: 0.5"/>
     </g>
     <g id="line2d_78">
      <g>
       <use xlink:href="#mc4e2b29e89" x="624.96" y="576.72" style="stroke: #000000; stroke-width: 0.8"/>
      </g>
     </g>
     <g id="text_17">
      <!-- 150 ns -->
      <g transform="translate(601.29125 590.857813) scale(0.14 -0.14)">
       <use xlink:href="#DejaVuSans-31"/>
       <use xlink:href="#DejaVuSans-35" x="63.623047"/>
       <use xlink:href="#DejaVuSans-30" x="127.246094"/>
       <use xlink:href="#DejaVuSans-20" x="190.869141"/>
       <use xlink:href="#DejaVuSans-6e" x="222.65625"/>
       <use xlink:href="#DejaVuSans-73" x="286.035156"/>
      </g>
     </g>
    </g>
    <g id="xtick_29">
     <g id="line2d_79">
      <path d="M 786.24 576.72 
L 786.24 483.988966 
" clip-path="url(#pe9783be8ec)" style="fill: none; stroke-dasharray: 1.85,0.8; stroke-dashoffset: 0; stroke: #b2b2b2; stroke-width: 0.5"/>
     </g>
     <g id="line2d_80">
      <g>
       <use xlink:href="#mc4e2b29e89" x="786.24" y="576.72" style="stroke: #000000; stroke-width: 0.8"/>
      </g>
     </g>
     <g id="text_18">
      <!-- 200 ns -->
      <g transform="translate(762.57125 590.857813) scale(0.14 -0.14)">
       <use xlink:href="#DejaVuSans-32"/>
       <use xlink:href="#DejaVuSans-30" x="63.623047"/>
       <use xlink:href="#DejaVuSans-30" x="127.246094"/>
       <use xlink:href="#DejaVuSans-20" x="190.869141"/>
       <use xlink:href="#DejaVuSans-6e" x="222.65625"/>
       <use xlink:href="#DejaVuSans-73" x="286.035156"/>
      </g>
     </g>
    </g>
    <g id="xtick_30">
     <g id="line2d_81">
      <path d="M 947.52 576.72 
L 947.52 483.988966 
" clip-path="url(#pe9783be8ec)" style="fill: none; stroke-dasharray: 1.85,0.8; stroke-dashoffset: 0; stroke: #b2b2b2; stroke-width: 0.5"/>
     </g>
     <g id="line2d_82">
      <g>
       <use xlink:href="#mc4e2b29e89" x="947.52" y="576.72" style="stroke: #000000; stroke-width: 0.8"/>
      </g>
     </g>
     <g id="text_19">
      <!-- 250 ns -->
      <g transform="translate(923.85125 590.857813) scale(0.14 -0.14)">
       <use xlink:href="#DejaVuSans-32"/>
       <use xlink:href="#DejaVuSans-35" x="63.623047"/>
       <use xlink:href="#DejaVuSans-30" x="127.246094"/>
       <use xlink:href="#DejaVuSans-20" x="190.869141"/>
       <use xlink:href="#DejaVuSans-6e" x="222.65625"/>
       <use xlink:href="#DejaVuSans-73" x="286.035156"/>
      </g>
     </g>
    </g>
    <g id="text_20">
     <!-- Time -->
     <g transform="translate(527.192969 608.407187) scale(0.14 -0.14)">
      <defs>
       <path id="DejaVuSans-69" d="M 603 3500 
L 1178 3500 
L 1178 0 
L 603 0 
L 603 3500 
z
M 603 4863 
L 1178 4863 
L 1178 4134 
L 603 4134 
L 603 4863 
z
" transform="scale(0.015625)"/>
       <path id="DejaVuSans-6d" d="M 3328 2828 
Q 3544 3216 3844 3400 
Q 4144 3584 4550 3584 
Q 5097 3584 5394 3201 
Q 5691 2819 5691 2113 
L 5691 0 
L 5113 0 
L 5113 2094 
Q 5113 2597 4934 2840 
Q 4756 3084 4391 3084 
Q 3944 3084 3684 2787 
Q 3425 2491 3425 1978 
L 3425 0 
L 2847 0 
L 2847 2094 
Q 2847 2600 2669 2842 
Q 2491 3084 2119 3084 
Q 1678 3084 1418 2786 
Q 1159 2488 1159 1978 
L 1159 0 
L 581 0 
L 581 3500 
L 1159 3500 
L 1159 2956 
Q 1356 3278 1631 3431 
Q 1906 3584 2284 3584 
Q 2666 3584 2933 3390 
Q 3200 3197 3328 2828 
z
" transform="scale(0.015625)"/>
       <path id="DejaVuSans-65" d="M 3597 1894 
L 3597 1613 
L 953 1613 
Q 991 1019 1311 708 
Q 1631 397 2203 397 
Q 2534 397 2845 478 
Q 3156 559 3463 722 
L 3463 178 
Q 3153 47 2828 -22 
Q 2503 -91 2169 -91 
Q 1331 -91 842 396 
Q 353 884 353 1716 
Q 353 2575 817 3079 
Q 1281 3584 2069 3584 
Q 2775 3584 3186 3129 
Q 3597 2675 3597 1894 
z
M 3022 2063 
Q 3016 2534 2758 2815 
Q 2500 3097 2075 3097 
Q 1594 3097 1305 2825 
Q 1016 2553 972 2059 
L 3022 2063 
z
" transform="scale(0.015625)"/>
      </defs>
      <use xlink:href="#DejaVuSans-54"/>
      <use xlink:href="#DejaVuSans-69" x="57.958984"/>
      <use xlink:href="#DejaVuSans-6d" x="85.742188"/>
      <use xlink:href="#DejaVuSans-65" x="183.154297"/>
     </g>
    </g>
   </g>
   <g id="matplotlib.axis_10">
    <g id="ytick_10">
     <g id="line2d_83">
      <path d="M 100.8 569.737898 
L 987.84 569.737898 
" clip-path="url(#pe9783be8ec)" style="fill: none; stroke-dasharray: 1.85,0.8; stroke-dashoffset: 0; stroke: #b2b2b2; stroke-width: 0.5"/>
     </g>
     <g id="line2d_84">
      <g>
       <use xlink:href="#m207348fe87" x="100.8" y="569.737898" style="stroke: #000000; stroke-width: 0.8"/>
      </g>
     </g>
     <g id="text_21">
      <!-- 0 V -->
      <g transform="translate(74.36625 575.056805) scale(0.14 -0.14)">
       <use xlink:href="#DejaVuSans-30"/>
       <use xlink:href="#DejaVuSans-20" x="63.623047"/>
       <use xlink:href="#DejaVuSans-56" x="95.410156"/>
      </g>
     </g>
    </g>
    <g id="ytick_11">
     <g id="line2d_85">
      <path d="M 100.8 535.84453 
L 987.84 535.84453 
" clip-path="url(#pe9783be8ec)" style="fill: none; stroke-dasharray: 1.85,0.8; stroke-dashoffset: 0; stroke: #b2b2b2; stroke-width: 0.5"/>
     </g>
     <g id="line2d_86">
      <g>
       <use xlink:href="#m207348fe87" x="100.8" y="535.84453" style="stroke: #000000; stroke-width: 0.8"/>
      </g>
     </g>
     <g id="text_22">
      <!-- 500 mV -->
      <g transform="translate(42.914375 541.163437) scale(0.14 -0.14)">
       <use xlink:href="#DejaVuSans-35"/>
       <use xlink:href="#DejaVuSans-30" x="63.623047"/>
       <use xlink:href="#DejaVuSans-30" x="127.246094"/>
       <use xlink:href="#DejaVuSans-20" x="190.869141"/>
       <use xlink:href="#DejaVuSans-6d" x="222.65625"/>
       <use xlink:href="#DejaVuSans-56" x="320.068359"/>
      </g>
     </g>
    </g>
    <g id="ytick_12">
     <g id="line2d_87">
      <path d="M 100.8 501.951163 
L 987.84 501.951163 
" clip-path="url(#pe9783be8ec)" style="fill: none; stroke-dasharray: 1.85,0.8; stroke-dashoffset: 0; stroke: #b2b2b2; stroke-width: 0.5"/>
     </g>
     <g id="line2d_88">
      <g>
       <use xlink:href="#m207348fe87" x="100.8" y="501.951163" style="stroke: #000000; stroke-width: 0.8"/>
      </g>
     </g>
     <g id="text_23">
      <!-- 1 V -->
      <g transform="translate(74.36625 507.270069) scale(0.14 -0.14)">
       <use xlink:href="#DejaVuSans-31"/>
       <use xlink:href="#DejaVuSans-20" x="63.623047"/>
       <use xlink:href="#DejaVuSans-56" x="95.410156"/>
      </g>
     </g>
    </g>
    <g id="text_24">
     <g id="patch_27">
      <path d="M 34.8768 554.329483 
L 34.8768 506.379483 
L 11.247425 506.379483 
L 11.247425 554.329483 
z
" style="fill: #ffff00; opacity: 0.2; stroke: #eeeeee; stroke-width: 0.5; stroke-linejoin: miter"/>
     </g>
     <!-- FOUT -->
     <g transform="translate(26.925238 549.289483) rotate(-90) scale(0.14 -0.14)">
      <use xlink:href="#DejaVuSans-46"/>
      <use xlink:href="#DejaVuSans-4f" x="57.519531"/>
      <use xlink:href="#DejaVuSans-55" x="136.230469"/>
      <use xlink:href="#DejaVuSans-54" x="209.423828"/>
     </g>
    </g>
   </g>
   <g id="line2d_89">
    <path d="M 141.12 488.393815 
L 173.472768 488.400594 
L 173.505024 488.204013 
L 173.569536 526.657394 
L 173.69856 572.504953 
L 173.730816 572.369108 
L 173.827584 567.828617 
L 173.892096 569.351799 
L 174.053376 570.057126 
L 174.117888 569.939259 
L 174.408192 569.483332 
L 174.440448 569.532932 
L 174.66624 569.721921 
L 176.182272 569.732147 
L 180.085248 569.753796 
L 193.568256 569.74419 
L 212.8896 569.73602 
L 255.30624 569.735711 
L 255.6288 488.285357 
L 255.854592 488.427709 
L 256.209408 488.387037 
L 334.849536 488.407373 
L 334.881792 492.623708 
L 335.043072 572.18283 
L 335.107584 570.254711 
L 335.172096 568.326579 
L 335.236608 568.859586 
L 335.365632 570.778018 
L 335.430144 570.404018 
L 335.591424 569.789374 
L 335.881728 569.64017 
L 336.559104 569.810146 
L 337.107456 569.738156 
L 349.9776 569.736214 
L 428.03712 569.80354 
L 428.069376 569.855285 
L 428.101632 569.824862 
L 428.133888 568.206732 
L 428.262912 504.305396 
L 428.391936 488.549725 
L 428.553216 488.400594 
L 429.101568 488.393815 
L 430.262784 488.393815 
L 430.359552 514.528314 
L 430.520832 570.711926 
L 430.6176 569.742918 
L 431.26272 569.736214 
L 496.839168 569.841727 
L 496.871424 570.040404 
L 496.935936 534.40813 
L 497.097216 488.72597 
L 497.22624 488.373479 
L 497.258496 488.393815 
L 947.52 488.393815 
L 947.52 488.393815 
" clip-path="url(#pe9783be8ec)" style="fill: none; stroke: #ff00ff; stroke-width: 2; stroke-linecap: square"/>
   </g>
   <g id="patch_28">
    <path d="M 100.8 576.72 
L 100.8 483.988966 
" style="fill: none; stroke: #bcbcbc; stroke-width: 0.8; stroke-linejoin: miter; stroke-linecap: square"/>
   </g>
   <g id="patch_29">
    <path d="M 987.84 576.72 
L 987.84 483.988966 
" style="fill: none; stroke: #bcbcbc; stroke-width: 0.8; stroke-linejoin: miter; stroke-linecap: square"/>
   </g>
   <g id="patch_30">
    <path d="M 100.8 576.72 
L 987.84 576.72 
" style="fill: none; stroke: #bcbcbc; stroke-width: 0.8; stroke-linejoin: miter; stroke-linecap: square"/>
   </g>
   <g id="patch_31">
    <path d="M 100.8 483.988966 
L 987.84 483.988966 
" style="fill: none; stroke: #bcbcbc; stroke-width: 0.8; stroke-linejoin: miter; stroke-linecap: square"/>
   </g>
  </g>
  <g id="axes_6">
   <g id="patch_32">
    <path d="M 201.6 628.56 
L 856.8 628.56 
L 856.8 615.6 
L 201.6 615.6 
z
" clip-path="url(#p7941a021f0)" style="fill: #d3d3d3"/>
   </g>
   <g id="patch_33">
    <path d="M 201.6 628.56 
L 459 628.56 
L 459 615.6 
L 201.6 615.6 
z
" clip-path="url(#p7941a021f0)" style="fill: #0000ff"/>
   </g>
   <g id="line2d_90">
    <path d="M 201.6 635.04 
L 201.6 609.12 
" clip-path="url(#pa2b737a441)" style="fill: none; stroke: #ff0000; stroke-linecap: square"/>
   </g>
   <g id="line2d_91">
    <defs>
     <path id="m3b8f91f723" d="M 0 5 
C 1.326016 5 2.597899 4.473168 3.535534 3.535534 
C 4.473168 2.597899 5 1.326016 5 0 
C 5 -1.326016 4.473168 -2.597899 3.535534 -3.535534 
C 2.597899 -4.473168 1.326016 -5 0 -5 
C -1.326016 -5 -2.597899 -4.473168 -3.535534 -3.535534 
C -4.473168 -2.597899 -5 -1.326016 -5 0 
C -5 1.326016 -4.473168 2.597899 -3.535534 3.535534 
C -2.597899 4.473168 -1.326016 5 0 5 
z
" style="stroke: #bfbfbf"/>
    </defs>
    <g>
     <use xlink:href="#m3b8f91f723" x="459" y="622.08" style="fill: #ffffff; stroke: #bfbfbf"/>
    </g>
   </g>
   <g id="text_25">
    <!-- #Sweep -->
    <g transform="translate(138.622875 625.39125) scale(0.12 -0.12)">
     <defs>
      <path id="DejaVuSans-23" d="M 3272 2816 
L 2363 2816 
L 2100 1772 
L 3016 1772 
L 3272 2816 
z
M 2803 4594 
L 2478 3297 
L 3391 3297 
L 3719 4594 
L 4219 4594 
L 3897 3297 
L 4872 3297 
L 4872 2816 
L 3775 2816 
L 3519 1772 
L 4513 1772 
L 4513 1294 
L 3397 1294 
L 3072 0 
L 2572 0 
L 2894 1294 
L 1978 1294 
L 1656 0 
L 1153 0 
L 1478 1294 
L 494 1294 
L 494 1772 
L 1594 1772 
L 1856 2816 
L 850 2816 
L 850 3297 
L 1978 3297 
L 2297 4594 
L 2803 4594 
z
" transform="scale(0.015625)"/>
      <path id="DejaVuSans-77" d="M 269 3500 
L 844 3500 
L 1563 769 
L 2278 3500 
L 2956 3500 
L 3675 769 
L 4391 3500 
L 4966 3500 
L 4050 0 
L 3372 0 
L 2619 2869 
L 1863 0 
L 1184 0 
L 269 3500 
z
" transform="scale(0.015625)"/>
      <path id="DejaVuSans-70" d="M 1159 525 
L 1159 -1331 
L 581 -1331 
L 581 3500 
L 1159 3500 
L 1159 2969 
Q 1341 3281 1617 3432 
Q 1894 3584 2278 3584 
Q 2916 3584 3314 3078 
Q 3713 2572 3713 1747 
Q 3713 922 3314 415 
Q 2916 -91 2278 -91 
Q 1894 -91 1617 61 
Q 1341 213 1159 525 
z
M 3116 1747 
Q 3116 2381 2855 2742 
Q 2594 3103 2138 3103 
Q 1681 3103 1420 2742 
Q 1159 2381 1159 1747 
Q 1159 1113 1420 752 
Q 1681 391 2138 391 
Q 2594 391 2855 752 
Q 3116 1113 3116 1747 
z
" transform="scale(0.015625)"/>
     </defs>
     <use xlink:href="#DejaVuSans-23"/>
     <use xlink:href="#DejaVuSans-53" x="83.789062"/>
     <use xlink:href="#DejaVuSans-77" x="147.265625"/>
     <use xlink:href="#DejaVuSans-65" x="229.052734"/>
     <use xlink:href="#DejaVuSans-65" x="290.576172"/>
     <use xlink:href="#DejaVuSans-70" x="352.099609"/>
    </g>
   </g>
   <g id="text_26">
    <!-- $\mathdefault{55}$ -->
    <g transform="translate(869.904 625.39125) scale(0.12 -0.12)">
     <use xlink:href="#DejaVuSans-35" transform="translate(0 0.09375)"/>
     <use xlink:href="#DejaVuSans-35" transform="translate(63.623047 0.09375)"/>
    </g>
   </g>
  </g>
  <g id="text_27">
   <!-- DFF under BBI sweep analysis (Sweep = 65E-9) -->
   <g transform="translate(313.34625 25.1175) scale(0.16 -0.16)">
    <defs>
     <path id="DejaVuSans-75" d="M 544 1381 
L 544 3500 
L 1119 3500 
L 1119 1403 
Q 1119 906 1312 657 
Q 1506 409 1894 409 
Q 2359 409 2629 706 
Q 2900 1003 2900 1516 
L 2900 3500 
L 3475 3500 
L 3475 0 
L 2900 0 
L 2900 538 
Q 2691 219 2414 64 
Q 2138 -91 1772 -91 
Q 1169 -91 856 284 
Q 544 659 544 1381 
z
M 1991 3584 
L 1991 3584 
z
" transform="scale(0.015625)"/>
     <path id="DejaVuSans-64" d="M 2906 2969 
L 2906 4863 
L 3481 4863 
L 3481 0 
L 2906 0 
L 2906 525 
Q 2725 213 2448 61 
Q 2172 -91 1784 -91 
Q 1150 -91 751 415 
Q 353 922 353 1747 
Q 353 2572 751 3078 
Q 1150 3584 1784 3584 
Q 2172 3584 2448 3432 
Q 2725 3281 2906 2969 
z
M 947 1747 
Q 947 1113 1208 752 
Q 1469 391 1925 391 
Q 2381 391 2643 752 
Q 2906 1113 2906 1747 
Q 2906 2381 2643 2742 
Q 2381 3103 1925 3103 
Q 1469 3103 1208 2742 
Q 947 2381 947 1747 
z
" transform="scale(0.015625)"/>
     <path id="DejaVuSans-72" d="M 2631 2963 
Q 2534 3019 2420 3045 
Q 2306 3072 2169 3072 
Q 1681 3072 1420 2755 
Q 1159 2438 1159 1844 
L 1159 0 
L 581 0 
L 581 3500 
L 1159 3500 
L 1159 2956 
Q 1341 3275 1631 3429 
Q 1922 3584 2338 3584 
Q 2397 3584 2469 3576 
Q 2541 3569 2628 3553 
L 2631 2963 
z
" transform="scale(0.015625)"/>
     <path id="DejaVuSans-61" d="M 2194 1759 
Q 1497 1759 1228 1600 
Q 959 1441 959 1056 
Q 959 750 1161 570 
Q 1363 391 1709 391 
Q 2188 391 2477 730 
Q 2766 1069 2766 1631 
L 2766 1759 
L 2194 1759 
z
M 3341 1997 
L 3341 0 
L 2766 0 
L 2766 531 
Q 2569 213 2275 61 
Q 1981 -91 1556 -91 
Q 1019 -91 701 211 
Q 384 513 384 1019 
Q 384 1609 779 1909 
Q 1175 2209 1959 2209 
L 2766 2209 
L 2766 2266 
Q 2766 2663 2505 2880 
Q 2244 3097 1772 3097 
Q 1472 3097 1187 3025 
Q 903 2953 641 2809 
L 641 3341 
Q 956 3463 1253 3523 
Q 1550 3584 1831 3584 
Q 2591 3584 2966 3190 
Q 3341 2797 3341 1997 
z
" transform="scale(0.015625)"/>
     <path id="DejaVuSans-6c" d="M 603 4863 
L 1178 4863 
L 1178 0 
L 603 0 
L 603 4863 
z
" transform="scale(0.015625)"/>
     <path id="DejaVuSans-79" d="M 2059 -325 
Q 1816 -950 1584 -1140 
Q 1353 -1331 966 -1331 
L 506 -1331 
L 506 -850 
L 844 -850 
Q 1081 -850 1212 -737 
Q 1344 -625 1503 -206 
L 1606 56 
L 191 3500 
L 800 3500 
L 1894 763 
L 2988 3500 
L 3597 3500 
L 2059 -325 
z
" transform="scale(0.015625)"/>
     <path id="DejaVuSans-28" d="M 1984 4856 
Q 1566 4138 1362 3434 
Q 1159 2731 1159 2009 
Q 1159 1288 1364 580 
Q 1569 -128 1984 -844 
L 1484 -844 
Q 1016 -109 783 600 
Q 550 1309 550 2009 
Q 550 2706 781 3412 
Q 1013 4119 1484 4856 
L 1984 4856 
z
" transform="scale(0.015625)"/>
     <path id="DejaVuSans-3d" d="M 678 2906 
L 4684 2906 
L 4684 2381 
L 678 2381 
L 678 2906 
z
M 678 1631 
L 4684 1631 
L 4684 1100 
L 678 1100 
L 678 1631 
z
" transform="scale(0.015625)"/>
     <path id="DejaVuSans-36" d="M 2113 2584 
Q 1688 2584 1439 2293 
Q 1191 2003 1191 1497 
Q 1191 994 1439 701 
Q 1688 409 2113 409 
Q 2538 409 2786 701 
Q 3034 994 3034 1497 
Q 3034 2003 2786 2293 
Q 2538 2584 2113 2584 
z
M 3366 4563 
L 3366 3988 
Q 3128 4100 2886 4159 
Q 2644 4219 2406 4219 
Q 1781 4219 1451 3797 
Q 1122 3375 1075 2522 
Q 1259 2794 1537 2939 
Q 1816 3084 2150 3084 
Q 2853 3084 3261 2657 
Q 3669 2231 3669 1497 
Q 3669 778 3244 343 
Q 2819 -91 2113 -91 
Q 1303 -91 875 529 
Q 447 1150 447 2328 
Q 447 3434 972 4092 
Q 1497 4750 2381 4750 
Q 2619 4750 2861 4703 
Q 3103 4656 3366 4563 
z
" transform="scale(0.015625)"/>
     <path id="DejaVuSans-2d" d="M 313 2009 
L 1997 2009 
L 1997 1497 
L 313 1497 
L 313 2009 
z
" transform="scale(0.015625)"/>
     <path id="DejaVuSans-39" d="M 703 97 
L 703 672 
Q 941 559 1184 500 
Q 1428 441 1663 441 
Q 2288 441 2617 861 
Q 2947 1281 2994 2138 
Q 2813 1869 2534 1725 
Q 2256 1581 1919 1581 
Q 1219 1581 811 2004 
Q 403 2428 403 3163 
Q 403 3881 828 4315 
Q 1253 4750 1959 4750 
Q 2769 4750 3195 4129 
Q 3622 3509 3622 2328 
Q 3622 1225 3098 567 
Q 2575 -91 1691 -91 
Q 1453 -91 1209 -44 
Q 966 3 703 97 
z
M 1959 2075 
Q 2384 2075 2632 2365 
Q 2881 2656 2881 3163 
Q 2881 3666 2632 3958 
Q 2384 4250 1959 4250 
Q 1534 4250 1286 3958 
Q 1038 3666 1038 3163 
Q 1038 2656 1286 2365 
Q 1534 2075 1959 2075 
z
" transform="scale(0.015625)"/>
     <path id="DejaVuSans-29" d="M 513 4856 
L 1013 4856 
Q 1481 4119 1714 3412 
Q 1947 2706 1947 2009 
Q 1947 1309 1714 600 
Q 1481 -109 1013 -844 
L 513 -844 
Q 928 -128 1133 580 
Q 1338 1288 1338 2009 
Q 1338 2731 1133 3434 
Q 928 4138 513 4856 
z
" transform="scale(0.015625)"/>
    </defs>
    <use xlink:href="#DejaVuSans-44"/>
    <use xlink:href="#DejaVuSans-46" x="77.001953"/>
    <use xlink:href="#DejaVuSans-46" x="134.521484"/>
    <use xlink:href="#DejaVuSans-20" x="192.041016"/>
    <use xlink:href="#DejaVuSans-75" x="223.828125"/>
    <use xlink:href="#DejaVuSans-6e" x="287.207031"/>
    <use xlink:href="#DejaVuSans-64" x="350.585938"/>
    <use xlink:href="#DejaVuSans-65" x="414.0625"/>
    <use xlink:href="#DejaVuSans-72" x="475.585938"/>
    <use xlink:href="#DejaVuSans-20" x="516.699219"/>
    <use xlink:href="#DejaVuSans-42" x="548.486328"/>
    <use xlink:href="#DejaVuSans-42" x="617.089844"/>
    <use xlink:href="#DejaVuSans-49" x="685.693359"/>
    <use xlink:href="#DejaVuSans-20" x="715.185547"/>
    <use xlink:href="#DejaVuSans-73" x="746.972656"/>
    <use xlink:href="#DejaVuSans-77" x="799.072266"/>
    <use xlink:href="#DejaVuSans-65" x="880.859375"/>
    <use xlink:href="#DejaVuSans-65" x="942.382812"/>
    <use xlink:href="#DejaVuSans-70" x="1003.90625"/>
    <use xlink:href="#DejaVuSans-20" x="1067.382812"/>
    <use xlink:href="#DejaVuSans-61" x="1099.169922"/>
    <use xlink:href="#DejaVuSans-6e" x="1160.449219"/>
    <use xlink:href="#DejaVuSans-61" x="1223.828125"/>
    <use xlink:href="#DejaVuSans-6c" x="1285.107422"/>
    <use xlink:href="#DejaVuSans-79" x="1312.890625"/>
    <use xlink:href="#DejaVuSans-73" x="1372.070312"/>
    <use xlink:href="#DejaVuSans-69" x="1424.169922"/>
    <use xlink:href="#DejaVuSans-73" x="1451.953125"/>
    <use xlink:href="#DejaVuSans-20" x="1504.052734"/>
    <use xlink:href="#DejaVuSans-28" x="1535.839844"/>
    <use xlink:href="#DejaVuSans-53" x="1574.853516"/>
    <use xlink:href="#DejaVuSans-77" x="1638.330078"/>
    <use xlink:href="#DejaVuSans-65" x="1720.117188"/>
    <use xlink:href="#DejaVuSans-65" x="1781.640625"/>
    <use xlink:href="#DejaVuSans-70" x="1843.164062"/>
    <use xlink:href="#DejaVuSans-20" x="1906.640625"/>
    <use xlink:href="#DejaVuSans-3d" x="1938.427734"/>
    <use xlink:href="#DejaVuSans-20" x="2022.216797"/>
    <use xlink:href="#DejaVuSans-36" x="2054.003906"/>
    <use xlink:href="#DejaVuSans-35" x="2117.626953"/>
    <use xlink:href="#DejaVuSans-45" x="2181.25"/>
    <use xlink:href="#DejaVuSans-2d" x="2244.433594"/>
    <use xlink:href="#DejaVuSans-39" x="2280.517578"/>
    <use xlink:href="#DejaVuSans-29" x="2344.140625"/>
   </g>
  </g>
 </g>
 <defs>
  <clipPath id="pe17ec56884">
   <rect x="100.8" y="38.88" width="887.04" height="92.731034"/>
  </clipPath>
  <clipPath id="p451b9ec83c">
   <rect x="100.8" y="150.157241" width="887.04" height="92.731034"/>
  </clipPath>
  <clipPath id="p45088ce598">
   <rect x="100.8" y="261.434483" width="887.04" height="92.731034"/>
  </clipPath>
  <clipPath id="p1c8df39e68">
   <rect x="100.8" y="372.711724" width="887.04" height="92.731034"/>
  </clipPath>
  <clipPath id="pe9783be8ec">
   <rect x="100.8" y="483.988966" width="887.04" height="92.731034"/>
  </clipPath>
  <clipPath id="p7941a021f0">
   <rect x="201.6" y="609.12" width="655.2" height="25.92"/>
  </clipPath>
  <clipPath id="pa2b737a441">
   <path d="M 201.6 628.56 
L 856.8 628.56 
L 856.8 615.6 
L 201.6 615.6 
z
"/>
  </clipPath>
 </defs>
</svg>
