<?xml version="1.0" encoding="utf-8" standalone="no"?>
<!DOCTYPE svg PUBLIC "-//W3C//DTD SVG 1.1//EN"
  "http://www.w3.org/Graphics/SVG/1.1/DTD/svg11.dtd">
<svg xmlns:xlink="http://www.w3.org/1999/xlink" width="1008pt" height="648pt" viewBox="0 0 1008 648" xmlns="http://www.w3.org/2000/svg" version="1.1">
 <metadata>
  <rdf:RDF xmlns:dc="http://purl.org/dc/elements/1.1/" xmlns:cc="http://creativecommons.org/ns#" xmlns:rdf="http://www.w3.org/1999/02/22-rdf-syntax-ns#">
   <cc:Work>
    <dc:type rdf:resource="http://purl.org/dc/dcmitype/StillImage"/>
    <dc:date>2024-06-03T10:45:33.473891</dc:date>
    <dc:format>image/svg+xml</dc:format>
    <dc:creator>
     <cc:Agent>
      <dc:title>Matplotlib v3.9.0, https://matplotlib.org/</dc:title>
     </cc:Agent>
    </dc:creator>
   </cc:Work>
  </rdf:RDF>
 </metadata>
 <defs>
  <style type="text/css">*{stroke-linejoin: round; stroke-linecap: butt}</style>
 </defs>
 <g id="figure_1">
  <g id="patch_1">
   <path d="M 0 648 
L 1008 648 
L 1008 0 
L 0 0 
z
" style="fill: #ffffff"/>
  </g>
  <g id="axes_1">
   <g id="patch_2">
    <path d="M 100.8 131.611034 
L 987.84 131.611034 
L 987.84 38.88 
L 100.8 38.88 
z
" style="fill: #eeeeee"/>
   </g>
   <g id="matplotlib.axis_1">
    <g id="xtick_1">
     <g id="line2d_1">
      <path d="M 141.12 131.611034 
L 141.12 38.88 
" clip-path="url(#p70051942a5)" style="fill: none; stroke-dasharray: 1.85,0.8; stroke-dashoffset: 0; stroke: #b2b2b2; stroke-width: 0.5"/>
     </g>
     <g id="line2d_2">
      <defs>
       <path id="mcb83e4209f" d="M 0 0 
L 0 -3.5 
" style="stroke: #000000; stroke-width: 0.8"/>
      </defs>
      <g>
       <use xlink:href="#mcb83e4209f" x="141.12" y="131.611034" style="stroke: #000000; stroke-width: 0.8"/>
      </g>
     </g>
    </g>
    <g id="xtick_2">
     <g id="line2d_3">
      <path d="M 302.4 131.611034 
L 302.4 38.88 
" clip-path="url(#p70051942a5)" style="fill: none; stroke-dasharray: 1.85,0.8; stroke-dashoffset: 0; stroke: #b2b2b2; stroke-width: 0.5"/>
     </g>
     <g id="line2d_4">
      <g>
       <use xlink:href="#mcb83e4209f" x="302.4" y="131.611034" style="stroke: #000000; stroke-width: 0.8"/>
      </g>
     </g>
    </g>
    <g id="xtick_3">
     <g id="line2d_5">
      <path d="M 463.68 131.611034 
L 463.68 38.88 
" clip-path="url(#p70051942a5)" style="fill: none; stroke-dasharray: 1.85,0.8; stroke-dashoffset: 0; stroke: #b2b2b2; stroke-width: 0.5"/>
     </g>
     <g id="line2d_6">
      <g>
       <use xlink:href="#mcb83e4209f" x="463.68" y="131.611034" style="stroke: #000000; stroke-width: 0.8"/>
      </g>
     </g>
    </g>
    <g id="xtick_4">
     <g id="line2d_7">
      <path d="M 624.96 131.611034 
L 624.96 38.88 
" clip-path="url(#p70051942a5)" style="fill: none; stroke-dasharray: 1.85,0.8; stroke-dashoffset: 0; stroke: #b2b2b2; stroke-width: 0.5"/>
     </g>
     <g id="line2d_8">
      <g>
       <use xlink:href="#mcb83e4209f" x="624.96" y="131.611034" style="stroke: #000000; stroke-width: 0.8"/>
      </g>
     </g>
    </g>
    <g id="xtick_5">
     <g id="line2d_9">
      <path d="M 786.24 131.611034 
L 786.24 38.88 
" clip-path="url(#p70051942a5)" style="fill: none; stroke-dasharray: 1.85,0.8; stroke-dashoffset: 0; stroke: #b2b2b2; stroke-width: 0.5"/>
     </g>
     <g id="line2d_10">
      <g>
       <use xlink:href="#mcb83e4209f" x="786.24" y="131.611034" style="stroke: #000000; stroke-width: 0.8"/>
      </g>
     </g>
    </g>
    <g id="xtick_6">
     <g id="line2d_11">
      <path d="M 947.52 131.611034 
L 947.52 38.88 
" clip-path="url(#p70051942a5)" style="fill: none; stroke-dasharray: 1.85,0.8; stroke-dashoffset: 0; stroke: #b2b2b2; stroke-width: 0.5"/>
     </g>
     <g id="line2d_12">
      <g>
       <use xlink:href="#mcb83e4209f" x="947.52" y="131.611034" style="stroke: #000000; stroke-width: 0.8"/>
      </g>
     </g>
    </g>
   </g>
   <g id="matplotlib.axis_2">
    <g id="ytick_1">
     <g id="line2d_13">
      <path d="M 100.8 98.340394 
L 987.84 98.340394 
" clip-path="url(#p70051942a5)" style="fill: none; stroke-dasharray: 1.85,0.8; stroke-dashoffset: 0; stroke: #b2b2b2; stroke-width: 0.5"/>
     </g>
     <g id="line2d_14">
      <defs>
       <path id="ma302fffc9e" d="M 0 0 
L 3.5 0 
" style="stroke: #000000; stroke-width: 0.8"/>
      </defs>
      <g>
       <use xlink:href="#ma302fffc9e" x="100.8" y="98.340394" style="stroke: #000000; stroke-width: 0.8"/>
      </g>
     </g>
     <g id="text_1">
      <!-- −200 V -->
      <g transform="translate(44.819688 103.6593) scale(0.14 -0.14)">
       <defs>
        <path id="DejaVuSans-2212" d="M 678 2272 
L 4684 2272 
L 4684 1741 
L 678 1741 
L 678 2272 
z
" transform="scale(0.015625)"/>
        <path id="DejaVuSans-32" d="M 1228 531 
L 3431 531 
L 3431 0 
L 469 0 
L 469 531 
Q 828 903 1448 1529 
Q 2069 2156 2228 2338 
Q 2531 2678 2651 2914 
Q 2772 3150 2772 3378 
Q 2772 3750 2511 3984 
Q 2250 4219 1831 4219 
Q 1534 4219 1204 4116 
Q 875 4013 500 3803 
L 500 4441 
Q 881 4594 1212 4672 
Q 1544 4750 1819 4750 
Q 2544 4750 2975 4387 
Q 3406 4025 3406 3419 
Q 3406 3131 3298 2873 
Q 3191 2616 2906 2266 
Q 2828 2175 2409 1742 
Q 1991 1309 1228 531 
z
" transform="scale(0.015625)"/>
        <path id="DejaVuSans-30" d="M 2034 4250 
Q 1547 4250 1301 3770 
Q 1056 3291 1056 2328 
Q 1056 1369 1301 889 
Q 1547 409 2034 409 
Q 2525 409 2770 889 
Q 3016 1369 3016 2328 
Q 3016 3291 2770 3770 
Q 2525 4250 2034 4250 
z
M 2034 4750 
Q 2819 4750 3233 4129 
Q 3647 3509 3647 2328 
Q 3647 1150 3233 529 
Q 2819 -91 2034 -91 
Q 1250 -91 836 529 
Q 422 1150 422 2328 
Q 422 3509 836 4129 
Q 1250 4750 2034 4750 
z
" transform="scale(0.015625)"/>
        <path id="DejaVuSans-20" transform="scale(0.015625)"/>
        <path id="DejaVuSans-56" d="M 1831 0 
L 50 4666 
L 709 4666 
L 2188 738 
L 3669 4666 
L 4325 4666 
L 2547 0 
L 1831 0 
z
" transform="scale(0.015625)"/>
       </defs>
       <use xlink:href="#DejaVuSans-2212"/>
       <use xlink:href="#DejaVuSans-32" x="83.789062"/>
       <use xlink:href="#DejaVuSans-30" x="147.412109"/>
       <use xlink:href="#DejaVuSans-30" x="211.035156"/>
       <use xlink:href="#DejaVuSans-20" x="274.658203"/>
       <use xlink:href="#DejaVuSans-56" x="306.445312"/>
      </g>
     </g>
    </g>
    <g id="ytick_2">
     <g id="line2d_15">
      <path d="M 100.8 45.027377 
L 987.84 45.027377 
" clip-path="url(#p70051942a5)" style="fill: none; stroke-dasharray: 1.85,0.8; stroke-dashoffset: 0; stroke: #b2b2b2; stroke-width: 0.5"/>
     </g>
     <g id="line2d_16">
      <g>
       <use xlink:href="#ma302fffc9e" x="100.8" y="45.027377" style="stroke: #000000; stroke-width: 0.8"/>
      </g>
     </g>
     <g id="text_2">
      <!-- 0 V -->
      <g transform="translate(74.36625 50.346284) scale(0.14 -0.14)">
       <use xlink:href="#DejaVuSans-30"/>
       <use xlink:href="#DejaVuSans-20" x="63.623047"/>
       <use xlink:href="#DejaVuSans-56" x="95.410156"/>
      </g>
     </g>
    </g>
    <g id="text_3">
     <g id="patch_3">
      <path d="M 34.8768 131.080205 
L 34.8768 39.41083 
L 11.247425 39.41083 
L 11.247425 131.080205 
z
" style="fill: #ffff00; opacity: 0.2; stroke: #eeeeee; stroke-width: 0.5; stroke-linejoin: miter"/>
     </g>
     <!-- VPULSE BBI -->
     <g transform="translate(26.925238 126.040205) rotate(-90) scale(0.14 -0.14)">
      <defs>
       <path id="DejaVuSans-50" d="M 1259 4147 
L 1259 2394 
L 2053 2394 
Q 2494 2394 2734 2622 
Q 2975 2850 2975 3272 
Q 2975 3691 2734 3919 
Q 2494 4147 2053 4147 
L 1259 4147 
z
M 628 4666 
L 2053 4666 
Q 2838 4666 3239 4311 
Q 3641 3956 3641 3272 
Q 3641 2581 3239 2228 
Q 2838 1875 2053 1875 
L 1259 1875 
L 1259 0 
L 628 0 
L 628 4666 
z
" transform="scale(0.015625)"/>
       <path id="DejaVuSans-55" d="M 556 4666 
L 1191 4666 
L 1191 1831 
Q 1191 1081 1462 751 
Q 1734 422 2344 422 
Q 2950 422 3222 751 
Q 3494 1081 3494 1831 
L 3494 4666 
L 4128 4666 
L 4128 1753 
Q 4128 841 3676 375 
Q 3225 -91 2344 -91 
Q 1459 -91 1007 375 
Q 556 841 556 1753 
L 556 4666 
z
" transform="scale(0.015625)"/>
       <path id="DejaVuSans-4c" d="M 628 4666 
L 1259 4666 
L 1259 531 
L 3531 531 
L 3531 0 
L 628 0 
L 628 4666 
z
" transform="scale(0.015625)"/>
       <path id="DejaVuSans-53" d="M 3425 4513 
L 3425 3897 
Q 3066 4069 2747 4153 
Q 2428 4238 2131 4238 
Q 1616 4238 1336 4038 
Q 1056 3838 1056 3469 
Q 1056 3159 1242 3001 
Q 1428 2844 1947 2747 
L 2328 2669 
Q 3034 2534 3370 2195 
Q 3706 1856 3706 1288 
Q 3706 609 3251 259 
Q 2797 -91 1919 -91 
Q 1588 -91 1214 -16 
Q 841 59 441 206 
L 441 856 
Q 825 641 1194 531 
Q 1563 422 1919 422 
Q 2459 422 2753 634 
Q 3047 847 3047 1241 
Q 3047 1584 2836 1778 
Q 2625 1972 2144 2069 
L 1759 2144 
Q 1053 2284 737 2584 
Q 422 2884 422 3419 
Q 422 4038 858 4394 
Q 1294 4750 2059 4750 
Q 2388 4750 2728 4690 
Q 3069 4631 3425 4513 
z
" transform="scale(0.015625)"/>
       <path id="DejaVuSans-45" d="M 628 4666 
L 3578 4666 
L 3578 4134 
L 1259 4134 
L 1259 2753 
L 3481 2753 
L 3481 2222 
L 1259 2222 
L 1259 531 
L 3634 531 
L 3634 0 
L 628 0 
L 628 4666 
z
" transform="scale(0.015625)"/>
       <path id="DejaVuSans-42" d="M 1259 2228 
L 1259 519 
L 2272 519 
Q 2781 519 3026 730 
Q 3272 941 3272 1375 
Q 3272 1813 3026 2020 
Q 2781 2228 2272 2228 
L 1259 2228 
z
M 1259 4147 
L 1259 2741 
L 2194 2741 
Q 2656 2741 2882 2914 
Q 3109 3088 3109 3444 
Q 3109 3797 2882 3972 
Q 2656 4147 2194 4147 
L 1259 4147 
z
M 628 4666 
L 2241 4666 
Q 2963 4666 3353 4366 
Q 3744 4066 3744 3513 
Q 3744 3084 3544 2831 
Q 3344 2578 2956 2516 
Q 3422 2416 3680 2098 
Q 3938 1781 3938 1306 
Q 3938 681 3513 340 
Q 3088 0 2303 0 
L 628 0 
L 628 4666 
z
" transform="scale(0.015625)"/>
       <path id="DejaVuSans-49" d="M 628 4666 
L 1259 4666 
L 1259 0 
L 628 0 
L 628 4666 
z
" transform="scale(0.015625)"/>
      </defs>
      <use xlink:href="#DejaVuSans-56"/>
      <use xlink:href="#DejaVuSans-50" x="68.408203"/>
      <use xlink:href="#DejaVuSans-55" x="128.710938"/>
      <use xlink:href="#DejaVuSans-4c" x="201.904297"/>
      <use xlink:href="#DejaVuSans-53" x="257.617188"/>
      <use xlink:href="#DejaVuSans-45" x="321.09375"/>
      <use xlink:href="#DejaVuSans-20" x="384.277344"/>
      <use xlink:href="#DejaVuSans-42" x="416.064453"/>
      <use xlink:href="#DejaVuSans-42" x="484.667969"/>
      <use xlink:href="#DejaVuSans-49" x="553.271484"/>
     </g>
    </g>
   </g>
   <g id="line2d_17">
    <path d="M 141.12 45.027377 
L 260.499456 45.136282 
L 260.983296 46.425538 
L 269.208576 69.006772 
L 276.627456 89.863624 
L 278.240256 94.440546 
L 280.046592 99.673219 
L 283.497984 110.703682 
L 286.43328 119.593628 
L 287.142912 119.940162 
L 288.304128 120.483955 
L 288.787968 120.713201 
L 289.755648 121.150368 
L 290.336256 121.40627 
L 291.207168 121.790124 
L 291.787776 122.046026 
L 292.626432 122.403223 
L 294.110208 123.016323 
L 294.852096 123.309545 
L 296.206848 123.858669 
L 298.722816 124.802309 
L 299.81952 125.228813 
L 300.46464 125.495378 
L 301.561344 125.921883 
L 302.4 126.241761 
L 303.399936 126.614952 
L 304.399872 126.969483 
L 304.98048 127.182735 
L 306.27072 127.395987 
L 324.914688 127.289361 
L 325.14048 126.801547 
L 343.429632 75.087922 
L 347.171328 63.292417 
L 350.880768 51.617666 
L 355.493376 49.3412 
L 360.847872 46.984578 
L 369.556992 43.484472 
L 370.427904 43.268927 
L 384.717312 43.108189 
L 391.523328 43.184799 
L 406.877184 43.746186 
L 434.6496 44.46146 
L 460.29312 44.774399 
L 495.903744 44.945888 
L 543.932928 44.953885 
L 947.52 44.953885 
L 947.52 44.953885 
" clip-path="url(#p70051942a5)" style="fill: none; stroke: #ff0000; stroke-width: 2; stroke-linecap: square"/>
   </g>
   <g id="patch_4">
    <path d="M 100.8 131.611034 
L 100.8 38.88 
" style="fill: none; stroke: #bcbcbc; stroke-width: 0.8; stroke-linejoin: miter; stroke-linecap: square"/>
   </g>
   <g id="patch_5">
    <path d="M 987.84 131.611034 
L 987.84 38.88 
" style="fill: none; stroke: #bcbcbc; stroke-width: 0.8; stroke-linejoin: miter; stroke-linecap: square"/>
   </g>
   <g id="patch_6">
    <path d="M 100.8 131.611034 
L 987.84 131.611034 
" style="fill: none; stroke: #bcbcbc; stroke-width: 0.8; stroke-linejoin: miter; stroke-linecap: square"/>
   </g>
   <g id="patch_7">
    <path d="M 100.8 38.88 
L 987.84 38.88 
" style="fill: none; stroke: #bcbcbc; stroke-width: 0.8; stroke-linejoin: miter; stroke-linecap: square"/>
   </g>
  </g>
  <g id="axes_2">
   <g id="patch_8">
    <path d="M 100.8 242.888276 
L 987.84 242.888276 
L 987.84 150.157241 
L 100.8 150.157241 
z
" style="fill: #eeeeee"/>
   </g>
   <g id="matplotlib.axis_3">
    <g id="xtick_7">
     <g id="line2d_18">
      <path d="M 141.12 242.888276 
L 141.12 150.157241 
" clip-path="url(#pd585ecf3bb)" style="fill: none; stroke-dasharray: 1.85,0.8; stroke-dashoffset: 0; stroke: #b2b2b2; stroke-width: 0.5"/>
     </g>
     <g id="line2d_19">
      <g>
       <use xlink:href="#mcb83e4209f" x="141.12" y="242.888276" style="stroke: #000000; stroke-width: 0.8"/>
      </g>
     </g>
    </g>
    <g id="xtick_8">
     <g id="line2d_20">
      <path d="M 302.4 242.888276 
L 302.4 150.157241 
" clip-path="url(#pd585ecf3bb)" style="fill: none; stroke-dasharray: 1.85,0.8; stroke-dashoffset: 0; stroke: #b2b2b2; stroke-width: 0.5"/>
     </g>
     <g id="line2d_21">
      <g>
       <use xlink:href="#mcb83e4209f" x="302.4" y="242.888276" style="stroke: #000000; stroke-width: 0.8"/>
      </g>
     </g>
    </g>
    <g id="xtick_9">
     <g id="line2d_22">
      <path d="M 463.68 242.888276 
L 463.68 150.157241 
" clip-path="url(#pd585ecf3bb)" style="fill: none; stroke-dasharray: 1.85,0.8; stroke-dashoffset: 0; stroke: #b2b2b2; stroke-width: 0.5"/>
     </g>
     <g id="line2d_23">
      <g>
       <use xlink:href="#mcb83e4209f" x="463.68" y="242.888276" style="stroke: #000000; stroke-width: 0.8"/>
      </g>
     </g>
    </g>
    <g id="xtick_10">
     <g id="line2d_24">
      <path d="M 624.96 242.888276 
L 624.96 150.157241 
" clip-path="url(#pd585ecf3bb)" style="fill: none; stroke-dasharray: 1.85,0.8; stroke-dashoffset: 0; stroke: #b2b2b2; stroke-width: 0.5"/>
     </g>
     <g id="line2d_25">
      <g>
       <use xlink:href="#mcb83e4209f" x="624.96" y="242.888276" style="stroke: #000000; stroke-width: 0.8"/>
      </g>
     </g>
    </g>
    <g id="xtick_11">
     <g id="line2d_26">
      <path d="M 786.24 242.888276 
L 786.24 150.157241 
" clip-path="url(#pd585ecf3bb)" style="fill: none; stroke-dasharray: 1.85,0.8; stroke-dashoffset: 0; stroke: #b2b2b2; stroke-width: 0.5"/>
     </g>
     <g id="line2d_27">
      <g>
       <use xlink:href="#mcb83e4209f" x="786.24" y="242.888276" style="stroke: #000000; stroke-width: 0.8"/>
      </g>
     </g>
    </g>
    <g id="xtick_12">
     <g id="line2d_28">
      <path d="M 947.52 242.888276 
L 947.52 150.157241 
" clip-path="url(#pd585ecf3bb)" style="fill: none; stroke-dasharray: 1.85,0.8; stroke-dashoffset: 0; stroke: #b2b2b2; stroke-width: 0.5"/>
     </g>
     <g id="line2d_29">
      <g>
       <use xlink:href="#mcb83e4209f" x="947.52" y="242.888276" style="stroke: #000000; stroke-width: 0.8"/>
      </g>
     </g>
    </g>
   </g>
   <g id="matplotlib.axis_4">
    <g id="ytick_3">
     <g id="line2d_30">
      <path d="M 100.8 218.88568 
L 987.84 218.88568 
" clip-path="url(#pd585ecf3bb)" style="fill: none; stroke-dasharray: 1.85,0.8; stroke-dashoffset: 0; stroke: #b2b2b2; stroke-width: 0.5"/>
     </g>
     <g id="line2d_31">
      <g>
       <use xlink:href="#ma302fffc9e" x="100.8" y="218.88568" style="stroke: #000000; stroke-width: 0.8"/>
      </g>
     </g>
     <g id="text_4">
      <!-- 0 V -->
      <g transform="translate(74.36625 224.204586) scale(0.14 -0.14)">
       <use xlink:href="#DejaVuSans-30"/>
       <use xlink:href="#DejaVuSans-20" x="63.623047"/>
       <use xlink:href="#DejaVuSans-56" x="95.410156"/>
      </g>
     </g>
    </g>
    <g id="ytick_4">
     <g id="line2d_32">
      <path d="M 100.8 184.695531 
L 987.84 184.695531 
" clip-path="url(#pd585ecf3bb)" style="fill: none; stroke-dasharray: 1.85,0.8; stroke-dashoffset: 0; stroke: #b2b2b2; stroke-width: 0.5"/>
     </g>
     <g id="line2d_33">
      <g>
       <use xlink:href="#ma302fffc9e" x="100.8" y="184.695531" style="stroke: #000000; stroke-width: 0.8"/>
      </g>
     </g>
     <g id="text_5">
      <!-- 1 V -->
      <g transform="translate(74.36625 190.014438) scale(0.14 -0.14)">
       <defs>
        <path id="DejaVuSans-31" d="M 794 531 
L 1825 531 
L 1825 4091 
L 703 3866 
L 703 4441 
L 1819 4666 
L 2450 4666 
L 2450 531 
L 3481 531 
L 3481 0 
L 794 0 
L 794 531 
z
" transform="scale(0.015625)"/>
       </defs>
       <use xlink:href="#DejaVuSans-31"/>
       <use xlink:href="#DejaVuSans-20" x="63.623047"/>
       <use xlink:href="#DejaVuSans-56" x="95.410156"/>
      </g>
     </g>
    </g>
    <g id="ytick_5">
     <g id="line2d_34">
      <path d="M 100.8 150.505383 
L 987.84 150.505383 
" clip-path="url(#pd585ecf3bb)" style="fill: none; stroke-dasharray: 1.85,0.8; stroke-dashoffset: 0; stroke: #b2b2b2; stroke-width: 0.5"/>
     </g>
     <g id="line2d_35">
      <g>
       <use xlink:href="#ma302fffc9e" x="100.8" y="150.505383" style="stroke: #000000; stroke-width: 0.8"/>
      </g>
     </g>
     <g id="text_6">
      <!-- 2 V -->
      <g transform="translate(74.36625 155.824289) scale(0.14 -0.14)">
       <use xlink:href="#DejaVuSans-32"/>
       <use xlink:href="#DejaVuSans-20" x="63.623047"/>
       <use xlink:href="#DejaVuSans-56" x="95.410156"/>
      </g>
     </g>
    </g>
    <g id="text_7">
     <g id="patch_9">
      <path d="M 34.8768 224.531509 
L 34.8768 168.514009 
L 11.247425 168.514009 
L 11.247425 224.531509 
z
" style="fill: #ffff00; opacity: 0.2; stroke: #eeeeee; stroke-width: 0.5; stroke-linejoin: miter"/>
     </g>
     <!-- DFF IN -->
     <g transform="translate(26.925238 219.491509) rotate(-90) scale(0.14 -0.14)">
      <defs>
       <path id="DejaVuSans-44" d="M 1259 4147 
L 1259 519 
L 2022 519 
Q 2988 519 3436 956 
Q 3884 1394 3884 2338 
Q 3884 3275 3436 3711 
Q 2988 4147 2022 4147 
L 1259 4147 
z
M 628 4666 
L 1925 4666 
Q 3281 4666 3915 4102 
Q 4550 3538 4550 2338 
Q 4550 1131 3912 565 
Q 3275 0 1925 0 
L 628 0 
L 628 4666 
z
" transform="scale(0.015625)"/>
       <path id="DejaVuSans-46" d="M 628 4666 
L 3309 4666 
L 3309 4134 
L 1259 4134 
L 1259 2759 
L 3109 2759 
L 3109 2228 
L 1259 2228 
L 1259 0 
L 628 0 
L 628 4666 
z
" transform="scale(0.015625)"/>
       <path id="DejaVuSans-4e" d="M 628 4666 
L 1478 4666 
L 3547 763 
L 3547 4666 
L 4159 4666 
L 4159 0 
L 3309 0 
L 1241 3903 
L 1241 0 
L 628 0 
L 628 4666 
z
" transform="scale(0.015625)"/>
      </defs>
      <use xlink:href="#DejaVuSans-44"/>
      <use xlink:href="#DejaVuSans-46" x="77.001953"/>
      <use xlink:href="#DejaVuSans-46" x="134.521484"/>
      <use xlink:href="#DejaVuSans-20" x="192.041016"/>
      <use xlink:href="#DejaVuSans-49" x="223.828125"/>
      <use xlink:href="#DejaVuSans-4e" x="253.320312"/>
     </g>
    </g>
   </g>
   <g id="line2d_36">
    <path d="M 141.12 218.835749 
L 221.953536 218.788864 
L 224.437248 199.738513 
L 225.404928 193.943283 
L 228.243456 181.201298 
L 229.598208 179.922587 
L 231.178752 179.0439 
L 236.500992 178.589171 
L 243.403776 178.479762 
L 244.82304 178.438734 
L 248.20992 178.329326 
L 250.113024 178.237012 
L 252.177408 178.127604 
L 254.241792 177.799378 
L 254.790144 177.218146 
L 255.30624 176.96172 
L 255.886848 176.88992 
L 256.725504 176.999329 
L 260.047872 177.590818 
L 260.563968 177.754931 
L 260.95104 178.517371 
L 262.176768 180.859397 
L 263.337984 182.61677 
L 263.918592 183.628799 
L 264.33792 190.16869 
L 264.757248 192.420112 
L 265.402368 195.89554 
L 267.273216 212.271254 
L 267.950592 215.945293 
L 268.756992 218.808663 
L 269.434368 220.414356 
L 270.111744 221.505603 
L 270.756864 222.212724 
L 272.014848 223.171415 
L 273.982464 224.530132 
L 275.079168 225.194788 
L 275.821056 225.384544 
L 276.401664 225.296333 
L 276.982272 224.932208 
L 277.756416 224.072668 
L 278.078976 223.860689 
L 278.272512 223.987192 
L 278.724096 224.758522 
L 279.33696 225.734309 
L 279.562752 225.995864 
L 279.724032 226.227673 
L 279.98208 226.739499 
L 280.30464 227.677335 
L 280.691712 228.472598 
L 280.820736 228.553629 
L 281.627136 230.468277 
L 282.014208 230.987283 
L 282.207744 231.249864 
L 282.369024 231.775366 
L 282.949632 232.95732 
L 286.465536 238.654424 
L 286.530048 238.622969 
L 286.723584 238.305001 
L 288.594432 235.523632 
L 288.916992 235.213186 
L 289.271808 234.641526 
L 289.594368 234.101664 
L 289.949184 233.830878 
L 290.045952 233.701639 
L 290.304 233.523509 
L 290.529792 233.391877 
L 291.27168 232.759701 
L 292.336128 231.512444 
L 292.529664 231.366452 
L 293.04576 231.046432 
L 293.303808 230.879584 
L 294.561792 229.510269 
L 294.884352 229.050753 
L 295.1424 229.001178 
L 295.30368 228.959808 
L 295.561728 228.757402 
L 295.9488 228.561834 
L 297.335808 227.305004 
L 297.851904 226.548376 
L 298.238976 226.415035 
L 298.52928 226.339475 
L 299.464704 225.629003 
L 300.690432 224.479189 
L 300.94848 224.173187 
L 301.206528 224.100362 
L 301.91616 223.719825 
L 303.754752 222.285002 
L 304.303104 221.714539 
L 304.851456 221.388365 
L 305.915904 220.46865 
L 306.883584 219.302219 
L 308.52864 217.030181 
L 312.173568 212.089704 
L 314.076672 209.959658 
L 314.883072 209.286112 
L 316.044288 208.929167 
L 316.721664 209.005411 
L 317.463552 209.243716 
L 318.592512 210.093 
L 319.689216 211.292732 
L 321.7536 214.015635 
L 322.947072 215.347 
L 323.882496 216.172179 
L 324.946944 216.802269 
L 325.108224 216.708999 
L 325.592064 216.153067 
L 326.075904 215.805934 
L 327.140352 215.452647 
L 328.495104 215.176391 
L 329.946624 215.147329 
L 331.75296 215.331614 
L 332.204544 215.394182 
L 333.430272 215.537986 
L 334.17216 215.640351 
L 334.849536 215.705518 
L 335.526912 215.785625 
L 335.978496 215.838449 
L 336.978432 215.927036 
L 337.333248 215.967038 
L 339.204096 216.09761 
L 344.397312 216.239705 
L 346.203648 215.979689 
L 347.39712 215.872947 
L 347.687424 215.84686 
L 347.751936 215.173998 
L 349.074432 194.242447 
L 350.332416 177.748093 
L 351.171072 169.159528 
L 352.203264 160.6496 
L 352.71936 157.87336 
L 353.235456 156.160433 
L 353.783808 155.148405 
L 354.396672 154.597943 
L 354.816 154.420155 
L 355.525632 154.382545 
L 356.848128 154.628715 
L 357.460992 154.830436 
L 360.396288 155.880074 
L 362.525184 156.663028 
L 363.396096 156.960483 
L 364.750848 157.415212 
L 370.685952 159.418754 
L 371.879424 160.041015 
L 372.621312 160.382917 
L 375.040512 161.487258 
L 375.266304 162.403554 
L 376.42752 166.571334 
L 376.653312 166.714932 
L 376.943616 166.663647 
L 377.3952 166.246527 
L 378.52416 165.097738 
L 379.201536 164.721646 
L 380.588544 164.540439 
L 381.136896 164.598562 
L 382.459392 164.844731 
L 383.556096 165.077224 
L 386.620416 165.836245 
L 387.491328 166.085833 
L 395.490816 168.513334 
L 396.135936 168.691123 
L 398.490624 169.32364 
L 398.909952 169.426211 
L 400.748544 169.894616 
L 401.232384 169.993767 
L 401.974272 170.188651 
L 403.103232 170.43482 
L 403.587072 170.544229 
L 404.65152 170.773303 
L 405.167616 170.882711 
L 406.232064 171.104947 
L 411.264 172.062271 
L 411.844608 172.168261 
L 414.457344 172.609314 
L 415.45728 172.609314 
L 415.908864 172.093043 
L 416.360448 171.884483 
L 416.715264 171.884483 
L 417.102336 171.949444 
L 420.521472 173.28286 
L 424.585728 174.031624 
L 438.84288 175.43342 
L 440.262144 175.542829 
L 441.004032 175.587276 
L 444.00384 175.799255 
L 444.713472 175.833445 
L 446.487552 175.942853 
L 447.22944 175.9873 
L 449.261568 176.096709 
L 449.906688 176.137737 
L 452.003328 176.247146 
L 452.3904 176.253984 
L 454.519296 176.363392 
L 455.809536 176.565114 
L 456.228864 177.084804 
L 456.809472 177.436963 
L 457.938432 177.563466 
L 459.196416 177.183956 
L 459.744768 177.013005 
L 460.712448 176.82154 
L 469.776384 176.930949 
L 471.163392 176.968558 
L 474.840576 177.077966 
L 476.09856 177.101899 
L 476.808192 177.136089 
L 482.098176 177.242079 
L 482.743296 177.266012 
L 488.936448 177.375421 
L 490.033152 177.382259 
L 490.904064 177.399354 
L 496.129536 177.310459 
L 496.645632 176.783931 
L 497.129472 176.554857 
L 497.742336 176.472801 
L 498.83904 176.695037 
L 500.097024 176.978815 
L 505.257984 177.416449 
L 536.385024 177.522438 
L 536.997888 178.178889 
L 537.38496 178.363516 
L 537.965568 178.500276 
L 540.288 178.394287 
L 542.610432 178.014776 
L 547.86816 177.566885 
L 576.672768 177.488248 
L 577.22112 176.865987 
L 577.575936 176.667684 
L 577.995264 176.565114 
L 579.543552 176.671103 
L 582.994944 177.289945 
L 584.865792 177.37884 
L 616.992768 177.488248 
L 617.928192 178.329326 
L 618.863616 178.510533 
L 620.960256 178.401125 
L 623.282688 178.021614 
L 628.66944 177.560047 
L 657.312768 177.488248 
L 657.86112 176.869406 
L 658.409472 176.592466 
L 660.344832 176.701875 
L 663.602688 177.279688 
L 665.699328 177.392516 
L 697.632768 177.488248 
L 698.600448 178.363516 
L 700.019712 178.551562 
L 701.664768 178.442153 
L 703.438848 178.144699 
L 705.729024 177.772026 
L 709.083648 177.525857 
L 737.985024 177.443801 
L 738.468864 176.907015 
L 739.178496 176.57879 
L 740.2752 176.568533 
L 744.242688 177.296783 
L 745.92 177.365163 
L 778.240512 177.474572 
L 778.401792 177.65578 
L 778.82112 178.083157 
L 779.433984 178.404544 
L 780.659712 178.551562 
L 782.337024 178.442153 
L 784.046592 178.151537 
L 786.369024 177.772026 
L 789.723648 177.525857 
L 818.625024 177.443801 
L 819.108864 176.907015 
L 819.818496 176.57879 
L 820.9152 176.568533 
L 824.882688 177.296783 
L 826.56 177.365163 
L 858.880512 177.474572 
L 859.041792 177.65578 
L 859.46112 178.083157 
L 860.073984 178.404544 
L 861.299712 178.551562 
L 862.977024 178.442153 
L 864.686592 178.151537 
L 867.009024 177.772026 
L 870.363648 177.525857 
L 899.265024 177.443801 
L 899.748864 176.907015 
L 900.458496 176.57879 
L 901.5552 176.568533 
L 905.522688 177.296783 
L 907.2 177.365163 
L 939.520512 177.474572 
L 939.681792 177.659199 
L 940.165632 178.148118 
L 940.649472 178.370354 
L 941.55264 178.548143 
L 943.455744 178.438734 
L 944.77824 178.189146 
L 946.971648 177.836988 
L 947.52 177.751512 
L 947.52 177.751512 
" clip-path="url(#pd585ecf3bb)" style="fill: none; stroke: #008000; stroke-width: 2; stroke-linecap: square"/>
   </g>
   <g id="patch_10">
    <path d="M 100.8 242.888276 
L 100.8 150.157241 
" style="fill: none; stroke: #bcbcbc; stroke-width: 0.8; stroke-linejoin: miter; stroke-linecap: square"/>
   </g>
   <g id="patch_11">
    <path d="M 987.84 242.888276 
L 987.84 150.157241 
" style="fill: none; stroke: #bcbcbc; stroke-width: 0.8; stroke-linejoin: miter; stroke-linecap: square"/>
   </g>
   <g id="patch_12">
    <path d="M 100.8 242.888276 
L 987.84 242.888276 
" style="fill: none; stroke: #bcbcbc; stroke-width: 0.8; stroke-linejoin: miter; stroke-linecap: square"/>
   </g>
   <g id="patch_13">
    <path d="M 100.8 150.157241 
L 987.84 150.157241 
" style="fill: none; stroke: #bcbcbc; stroke-width: 0.8; stroke-linejoin: miter; stroke-linecap: square"/>
   </g>
  </g>
  <g id="axes_3">
   <g id="patch_14">
    <path d="M 100.8 354.165517 
L 987.84 354.165517 
L 987.84 261.434483 
L 100.8 261.434483 
z
" style="fill: #eeeeee"/>
   </g>
   <g id="matplotlib.axis_5">
    <g id="xtick_13">
     <g id="line2d_37">
      <path d="M 141.12 354.165517 
L 141.12 261.434483 
" clip-path="url(#p170215c184)" style="fill: none; stroke-dasharray: 1.85,0.8; stroke-dashoffset: 0; stroke: #b2b2b2; stroke-width: 0.5"/>
     </g>
     <g id="line2d_38">
      <g>
       <use xlink:href="#mcb83e4209f" x="141.12" y="354.165517" style="stroke: #000000; stroke-width: 0.8"/>
      </g>
     </g>
    </g>
    <g id="xtick_14">
     <g id="line2d_39">
      <path d="M 302.4 354.165517 
L 302.4 261.434483 
" clip-path="url(#p170215c184)" style="fill: none; stroke-dasharray: 1.85,0.8; stroke-dashoffset: 0; stroke: #b2b2b2; stroke-width: 0.5"/>
     </g>
     <g id="line2d_40">
      <g>
       <use xlink:href="#mcb83e4209f" x="302.4" y="354.165517" style="stroke: #000000; stroke-width: 0.8"/>
      </g>
     </g>
    </g>
    <g id="xtick_15">
     <g id="line2d_41">
      <path d="M 463.68 354.165517 
L 463.68 261.434483 
" clip-path="url(#p170215c184)" style="fill: none; stroke-dasharray: 1.85,0.8; stroke-dashoffset: 0; stroke: #b2b2b2; stroke-width: 0.5"/>
     </g>
     <g id="line2d_42">
      <g>
       <use xlink:href="#mcb83e4209f" x="463.68" y="354.165517" style="stroke: #000000; stroke-width: 0.8"/>
      </g>
     </g>
    </g>
    <g id="xtick_16">
     <g id="line2d_43">
      <path d="M 624.96 354.165517 
L 624.96 261.434483 
" clip-path="url(#p170215c184)" style="fill: none; stroke-dasharray: 1.85,0.8; stroke-dashoffset: 0; stroke: #b2b2b2; stroke-width: 0.5"/>
     </g>
     <g id="line2d_44">
      <g>
       <use xlink:href="#mcb83e4209f" x="624.96" y="354.165517" style="stroke: #000000; stroke-width: 0.8"/>
      </g>
     </g>
    </g>
    <g id="xtick_17">
     <g id="line2d_45">
      <path d="M 786.24 354.165517 
L 786.24 261.434483 
" clip-path="url(#p170215c184)" style="fill: none; stroke-dasharray: 1.85,0.8; stroke-dashoffset: 0; stroke: #b2b2b2; stroke-width: 0.5"/>
     </g>
     <g id="line2d_46">
      <g>
       <use xlink:href="#mcb83e4209f" x="786.24" y="354.165517" style="stroke: #000000; stroke-width: 0.8"/>
      </g>
     </g>
    </g>
    <g id="xtick_18">
     <g id="line2d_47">
      <path d="M 947.52 354.165517 
L 947.52 261.434483 
" clip-path="url(#p170215c184)" style="fill: none; stroke-dasharray: 1.85,0.8; stroke-dashoffset: 0; stroke: #b2b2b2; stroke-width: 0.5"/>
     </g>
     <g id="line2d_48">
      <g>
       <use xlink:href="#mcb83e4209f" x="947.52" y="354.165517" style="stroke: #000000; stroke-width: 0.8"/>
      </g>
     </g>
    </g>
   </g>
   <g id="matplotlib.axis_6">
    <g id="ytick_6">
     <g id="line2d_49">
      <path d="M 100.8 347.486899 
L 987.84 347.486899 
" clip-path="url(#p170215c184)" style="fill: none; stroke-dasharray: 1.85,0.8; stroke-dashoffset: 0; stroke: #b2b2b2; stroke-width: 0.5"/>
     </g>
     <g id="line2d_50">
      <g>
       <use xlink:href="#ma302fffc9e" x="100.8" y="347.486899" style="stroke: #000000; stroke-width: 0.8"/>
      </g>
     </g>
     <g id="text_8">
      <!-- 0 V -->
      <g transform="translate(74.36625 352.805805) scale(0.14 -0.14)">
       <use xlink:href="#DejaVuSans-30"/>
       <use xlink:href="#DejaVuSans-20" x="63.623047"/>
       <use xlink:href="#DejaVuSans-56" x="95.410156"/>
      </g>
     </g>
    </g>
    <g id="ytick_7">
     <g id="line2d_51">
      <path d="M 100.8 305.022511 
L 987.84 305.022511 
" clip-path="url(#p170215c184)" style="fill: none; stroke-dasharray: 1.85,0.8; stroke-dashoffset: 0; stroke: #b2b2b2; stroke-width: 0.5"/>
     </g>
     <g id="line2d_52">
      <g>
       <use xlink:href="#ma302fffc9e" x="100.8" y="305.022511" style="stroke: #000000; stroke-width: 0.8"/>
      </g>
     </g>
     <g id="text_9">
      <!-- 1 V -->
      <g transform="translate(74.36625 310.341417) scale(0.14 -0.14)">
       <use xlink:href="#DejaVuSans-31"/>
       <use xlink:href="#DejaVuSans-20" x="63.623047"/>
       <use xlink:href="#DejaVuSans-56" x="95.410156"/>
      </g>
     </g>
    </g>
    <g id="ytick_8">
     <g id="line2d_53">
      <path d="M 100.8 262.558122 
L 987.84 262.558122 
" clip-path="url(#p170215c184)" style="fill: none; stroke-dasharray: 1.85,0.8; stroke-dashoffset: 0; stroke: #b2b2b2; stroke-width: 0.5"/>
     </g>
     <g id="line2d_54">
      <g>
       <use xlink:href="#ma302fffc9e" x="100.8" y="262.558122" style="stroke: #000000; stroke-width: 0.8"/>
      </g>
     </g>
     <g id="text_10">
      <!-- 2 V -->
      <g transform="translate(74.36625 267.877029) scale(0.14 -0.14)">
       <use xlink:href="#DejaVuSans-32"/>
       <use xlink:href="#DejaVuSans-20" x="63.623047"/>
       <use xlink:href="#DejaVuSans-56" x="95.410156"/>
      </g>
     </g>
    </g>
    <g id="text_11">
     <g id="patch_15">
      <path d="M 34.8768 342.395313 
L 34.8768 273.204688 
L 11.247425 273.204688 
L 11.247425 342.395313 
z
" style="fill: #ffff00; opacity: 0.2; stroke: #eeeeee; stroke-width: 0.5; stroke-linejoin: miter"/>
     </g>
     <!-- CLK BUF -->
     <g transform="translate(26.925238 337.355313) rotate(-90) scale(0.14 -0.14)">
      <defs>
       <path id="DejaVuSans-43" d="M 4122 4306 
L 4122 3641 
Q 3803 3938 3442 4084 
Q 3081 4231 2675 4231 
Q 1875 4231 1450 3742 
Q 1025 3253 1025 2328 
Q 1025 1406 1450 917 
Q 1875 428 2675 428 
Q 3081 428 3442 575 
Q 3803 722 4122 1019 
L 4122 359 
Q 3791 134 3420 21 
Q 3050 -91 2638 -91 
Q 1578 -91 968 557 
Q 359 1206 359 2328 
Q 359 3453 968 4101 
Q 1578 4750 2638 4750 
Q 3056 4750 3426 4639 
Q 3797 4528 4122 4306 
z
" transform="scale(0.015625)"/>
       <path id="DejaVuSans-4b" d="M 628 4666 
L 1259 4666 
L 1259 2694 
L 3353 4666 
L 4166 4666 
L 1850 2491 
L 4331 0 
L 3500 0 
L 1259 2247 
L 1259 0 
L 628 0 
L 628 4666 
z
" transform="scale(0.015625)"/>
      </defs>
      <use xlink:href="#DejaVuSans-43"/>
      <use xlink:href="#DejaVuSans-4c" x="69.824219"/>
      <use xlink:href="#DejaVuSans-4b" x="125.537109"/>
      <use xlink:href="#DejaVuSans-20" x="191.113281"/>
      <use xlink:href="#DejaVuSans-42" x="222.900391"/>
      <use xlink:href="#DejaVuSans-55" x="291.503906"/>
      <use xlink:href="#DejaVuSans-46" x="364.697266"/>
     </g>
    </g>
   </g>
   <g id="line2d_55">
    <path d="M 141.12 347.485776 
L 173.376 347.485776 
L 173.601792 296.529633 
L 213.696 296.529633 
L 213.760512 337.176121 
L 213.825024 347.467499 
L 213.889536 347.406391 
L 213.954048 347.576031 
L 214.01856 347.491501 
L 215.373312 347.482167 
L 223.566336 347.485715 
L 254.016 347.485776 
L 254.145024 296.347036 
L 254.241792 296.525386 
L 254.693376 296.529633 
L 260.563968 296.64004 
L 262.209024 298.988321 
L 263.85408 301.790971 
L 270.756864 313.38842 
L 274.33728 318.747001 
L 277.88544 323.604078 
L 280.401408 326.253855 
L 283.336704 328.675175 
L 283.36896 328.637806 
L 283.433472 328.701927 
L 284.788224 329.650157 
L 286.336512 330.561443 
L 287.368704 330.036158 
L 289.723392 329.118928 
L 289.755648 329.156721 
L 289.82016 329.07434 
L 289.949184 329.07986 
L 290.078208 328.989411 
L 294.368256 327.318438 
L 294.465024 325.936646 
L 294.49728 326.303539 
L 294.561792 331.868921 
L 294.755328 349.95047 
L 294.81984 349.717128 
L 294.884352 349.83484 
L 295.30368 349.701034 
L 295.690752 349.597634 
L 298.787328 348.750002 
L 299.529216 348.59161 
L 299.755008 348.529102 
L 303.657984 347.743074 
L 308.915712 346.959151 
L 309.367296 346.950106 
L 313.818624 346.94603 
L 314.65728 346.956094 
L 315.366912 346.969215 
L 325.011456 347.031723 
L 325.817856 346.290677 
L 326.592 345.927139 
L 327.624192 345.703394 
L 329.236992 345.616682 
L 332.72064 345.713543 
L 334.656 345.794056 
L 334.785024 292.015668 
L 334.881792 292.121829 
L 335.494656 290.954059 
L 336.655872 288.75865 
L 339.720192 283.29773 
L 341.042688 281.089581 
L 341.558784 280.227554 
L 343.332864 277.399426 
L 344.17152 276.121248 
L 345.364992 274.146654 
L 345.913344 273.250655 
L 348.20352 269.543514 
L 349.203456 268.048768 
L 350.074368 266.766343 
L 350.977536 265.747198 
L 351.525888 265.64953 
L 352.525824 265.751444 
L 353.461248 266.001984 
L 353.783808 266.103899 
L 357.55776 267.713299 
L 359.17056 268.43944 
L 361.396224 269.437353 
L 361.847808 269.662414 
L 370.556928 273.212437 
L 371.169792 273.564892 
L 371.814912 273.930085 
L 372.427776 274.278293 
L 374.685696 275.586197 
L 374.976 275.756054 
L 375.040512 348.112866 
L 375.169536 347.965472 
L 375.717888 347.96216 
L 406.715904 347.705939 
L 415.296 347.65848 
L 415.425024 290.079292 
L 415.521792 290.24915 
L 415.812096 290.317093 
L 416.360448 290.419007 
L 416.876544 290.529415 
L 417.424896 290.631329 
L 418.03776 290.741737 
L 418.586112 290.843651 
L 419.198976 290.954059 
L 419.747328 291.055973 
L 420.45696 291.162134 
L 420.811776 291.225831 
L 421.521408 291.331992 
L 421.876224 291.395688 
L 422.489088 291.501849 
L 422.843904 291.565546 
L 423.650304 291.671707 
L 424.00512 291.735403 
L 424.714752 291.841564 
L 425.069568 291.905261 
L 425.875968 292.011422 
L 426.134016 292.032654 
L 426.843648 292.138815 
L 427.198464 292.202512 
L 428.101632 292.308673 
L 428.456448 292.372369 
L 429.359616 292.47853 
L 429.617664 292.499762 
L 430.424064 292.605923 
L 430.746624 292.665374 
L 431.778816 292.775781 
L 432.036864 292.797013 
L 432.843264 292.903174 
L 433.101312 292.924406 
L 434.00448 293.030567 
L 434.262528 293.051799 
L 435.165696 293.15796 
L 435.423744 293.179193 
L 436.326912 293.285354 
L 436.58496 293.306586 
L 437.584896 293.412747 
L 437.842944 293.433979 
L 438.939648 293.54014 
L 439.197696 293.561372 
L 440.2944 293.667533 
L 440.552448 293.688765 
L 441.74592 293.794926 
L 442.003968 293.816158 
L 443.19744 293.922319 
L 443.455488 293.943552 
L 444.842496 294.049713 
L 445.100544 294.070945 
L 446.487552 294.177106 
L 446.7456 294.198338 
L 448.229376 294.304499 
L 448.487424 294.321485 
L 450.067968 294.431892 
L 450.326016 294.448878 
L 452.003328 294.559285 
L 452.261376 294.576271 
L 454.132224 294.686678 
L 454.390272 294.703664 
L 455.616 294.788593 
L 455.648256 300.075409 
L 455.77728 347.471034 
L 455.906304 347.53431 
L 463.809024 347.523271 
L 495.936 347.499256 
L 496.065024 295.82897 
L 496.161792 296.071017 
L 496.613376 296.062525 
L 536.256 296.104989 
L 536.385024 347.811208 
L 536.546304 347.564273 
L 536.804352 347.469538 
L 537.159168 347.515766 
L 537.481728 347.497714 
L 575.93088 347.497934 
L 576.576 347.497935 
L 576.73728 295.862942 
L 576.769536 296.066771 
L 576.801792 296.266354 
L 576.866304 296.121975 
L 577.124352 296.109235 
L 577.930752 296.104989 
L 616.896 296.104989 
L 617.025024 347.811127 
L 617.186304 347.564235 
L 617.444352 347.46957 
L 617.799168 347.515768 
L 618.121728 347.497714 
L 656.57088 347.497937 
L 657.216 347.497937 
L 657.37728 295.884174 
L 657.441792 296.364022 
L 657.53856 295.930885 
L 657.603072 296.088003 
L 658.086912 296.104989 
L 697.536 296.104989 
L 697.826304 347.592894 
L 697.987584 347.495339 
L 699.374592 347.494817 
L 707.986944 347.502944 
L 736.56576 347.497974 
L 737.856 347.497976 
L 738.01728 296.02006 
L 738.081792 296.121975 
L 739.049472 296.104989 
L 778.176 296.104989 
L 778.466304 347.592898 
L 778.627584 347.495335 
L 780.014592 347.494814 
L 788.626944 347.502968 
L 817.108992 347.497974 
L 818.496 347.497976 
L 818.65728 296.02006 
L 818.721792 296.121975 
L 819.689472 296.104989 
L 858.816 296.104989 
L 859.106304 347.592903 
L 859.267584 347.495339 
L 860.654592 347.494817 
L 869.266944 347.502964 
L 897.84576 347.497974 
L 899.136 347.497976 
L 899.29728 296.02006 
L 899.361792 296.121975 
L 900.329472 296.104989 
L 939.456 296.104989 
L 939.488256 303.761318 
L 939.61728 347.44742 
L 939.649536 347.570902 
L 939.714048 347.452771 
L 939.810816 347.470317 
L 940.004352 347.523347 
L 940.230144 347.496589 
L 945.713664 347.49794 
L 947.52 347.497927 
L 947.52 347.497927 
" clip-path="url(#p170215c184)" style="fill: none; stroke: #0000ff; stroke-width: 2; stroke-linecap: square"/>
   </g>
   <g id="patch_16">
    <path d="M 100.8 354.165517 
L 100.8 261.434483 
" style="fill: none; stroke: #bcbcbc; stroke-width: 0.8; stroke-linejoin: miter; stroke-linecap: square"/>
   </g>
   <g id="patch_17">
    <path d="M 987.84 354.165517 
L 987.84 261.434483 
" style="fill: none; stroke: #bcbcbc; stroke-width: 0.8; stroke-linejoin: miter; stroke-linecap: square"/>
   </g>
   <g id="patch_18">
    <path d="M 100.8 354.165517 
L 987.84 354.165517 
" style="fill: none; stroke: #bcbcbc; stroke-width: 0.8; stroke-linejoin: miter; stroke-linecap: square"/>
   </g>
   <g id="patch_19">
    <path d="M 100.8 261.434483 
L 987.84 261.434483 
" style="fill: none; stroke: #bcbcbc; stroke-width: 0.8; stroke-linejoin: miter; stroke-linecap: square"/>
   </g>
  </g>
  <g id="axes_4">
   <g id="patch_20">
    <path d="M 100.8 465.442759 
L 987.84 465.442759 
L 987.84 372.711724 
L 100.8 372.711724 
z
" style="fill: #eeeeee"/>
   </g>
   <g id="matplotlib.axis_7">
    <g id="xtick_19">
     <g id="line2d_56">
      <path d="M 141.12 465.442759 
L 141.12 372.711724 
" clip-path="url(#pdac1a27b9d)" style="fill: none; stroke-dasharray: 1.85,0.8; stroke-dashoffset: 0; stroke: #b2b2b2; stroke-width: 0.5"/>
     </g>
     <g id="line2d_57">
      <g>
       <use xlink:href="#mcb83e4209f" x="141.12" y="465.442759" style="stroke: #000000; stroke-width: 0.8"/>
      </g>
     </g>
    </g>
    <g id="xtick_20">
     <g id="line2d_58">
      <path d="M 302.4 465.442759 
L 302.4 372.711724 
" clip-path="url(#pdac1a27b9d)" style="fill: none; stroke-dasharray: 1.85,0.8; stroke-dashoffset: 0; stroke: #b2b2b2; stroke-width: 0.5"/>
     </g>
     <g id="line2d_59">
      <g>
       <use xlink:href="#mcb83e4209f" x="302.4" y="465.442759" style="stroke: #000000; stroke-width: 0.8"/>
      </g>
     </g>
    </g>
    <g id="xtick_21">
     <g id="line2d_60">
      <path d="M 463.68 465.442759 
L 463.68 372.711724 
" clip-path="url(#pdac1a27b9d)" style="fill: none; stroke-dasharray: 1.85,0.8; stroke-dashoffset: 0; stroke: #b2b2b2; stroke-width: 0.5"/>
     </g>
     <g id="line2d_61">
      <g>
       <use xlink:href="#mcb83e4209f" x="463.68" y="465.442759" style="stroke: #000000; stroke-width: 0.8"/>
      </g>
     </g>
    </g>
    <g id="xtick_22">
     <g id="line2d_62">
      <path d="M 624.96 465.442759 
L 624.96 372.711724 
" clip-path="url(#pdac1a27b9d)" style="fill: none; stroke-dasharray: 1.85,0.8; stroke-dashoffset: 0; stroke: #b2b2b2; stroke-width: 0.5"/>
     </g>
     <g id="line2d_63">
      <g>
       <use xlink:href="#mcb83e4209f" x="624.96" y="465.442759" style="stroke: #000000; stroke-width: 0.8"/>
      </g>
     </g>
    </g>
    <g id="xtick_23">
     <g id="line2d_64">
      <path d="M 786.24 465.442759 
L 786.24 372.711724 
" clip-path="url(#pdac1a27b9d)" style="fill: none; stroke-dasharray: 1.85,0.8; stroke-dashoffset: 0; stroke: #b2b2b2; stroke-width: 0.5"/>
     </g>
     <g id="line2d_65">
      <g>
       <use xlink:href="#mcb83e4209f" x="786.24" y="465.442759" style="stroke: #000000; stroke-width: 0.8"/>
      </g>
     </g>
    </g>
    <g id="xtick_24">
     <g id="line2d_66">
      <path d="M 947.52 465.442759 
L 947.52 372.711724 
" clip-path="url(#pdac1a27b9d)" style="fill: none; stroke-dasharray: 1.85,0.8; stroke-dashoffset: 0; stroke: #b2b2b2; stroke-width: 0.5"/>
     </g>
     <g id="line2d_67">
      <g>
       <use xlink:href="#mcb83e4209f" x="947.52" y="465.442759" style="stroke: #000000; stroke-width: 0.8"/>
      </g>
     </g>
    </g>
   </g>
   <g id="matplotlib.axis_8">
    <g id="ytick_9">
     <g id="line2d_68">
      <path d="M 100.8 436.019426 
L 987.84 436.019426 
" clip-path="url(#pdac1a27b9d)" style="fill: none; stroke-dasharray: 1.85,0.8; stroke-dashoffset: 0; stroke: #b2b2b2; stroke-width: 0.5"/>
     </g>
     <g id="line2d_69">
      <g>
       <use xlink:href="#ma302fffc9e" x="100.8" y="436.019426" style="stroke: #000000; stroke-width: 0.8"/>
      </g>
     </g>
     <g id="text_12">
      <!-- 0 V -->
      <g transform="translate(74.36625 441.338332) scale(0.14 -0.14)">
       <use xlink:href="#DejaVuSans-30"/>
       <use xlink:href="#DejaVuSans-20" x="63.623047"/>
       <use xlink:href="#DejaVuSans-56" x="95.410156"/>
      </g>
     </g>
    </g>
    <g id="ytick_10">
     <g id="line2d_70">
      <path d="M 100.8 391.98287 
L 987.84 391.98287 
" clip-path="url(#pdac1a27b9d)" style="fill: none; stroke-dasharray: 1.85,0.8; stroke-dashoffset: 0; stroke: #b2b2b2; stroke-width: 0.5"/>
     </g>
     <g id="line2d_71">
      <g>
       <use xlink:href="#ma302fffc9e" x="100.8" y="391.98287" style="stroke: #000000; stroke-width: 0.8"/>
      </g>
     </g>
     <g id="text_13">
      <!-- 1 V -->
      <g transform="translate(74.36625 397.301776) scale(0.14 -0.14)">
       <use xlink:href="#DejaVuSans-31"/>
       <use xlink:href="#DejaVuSans-20" x="63.623047"/>
       <use xlink:href="#DejaVuSans-56" x="95.410156"/>
      </g>
     </g>
    </g>
    <g id="text_14">
     <g id="patch_21">
      <path d="M 34.8768 454.693023 
L 34.8768 383.46146 
L 11.247425 383.46146 
L 11.247425 454.693023 
z
" style="fill: #ffff00; opacity: 0.2; stroke: #eeeeee; stroke-width: 0.5; stroke-linejoin: miter"/>
     </g>
     <!-- DFF OUT -->
     <g transform="translate(26.925238 449.653023) rotate(-90) scale(0.14 -0.14)">
      <defs>
       <path id="DejaVuSans-4f" d="M 2522 4238 
Q 1834 4238 1429 3725 
Q 1025 3213 1025 2328 
Q 1025 1447 1429 934 
Q 1834 422 2522 422 
Q 3209 422 3611 934 
Q 4013 1447 4013 2328 
Q 4013 3213 3611 3725 
Q 3209 4238 2522 4238 
z
M 2522 4750 
Q 3503 4750 4090 4092 
Q 4678 3434 4678 2328 
Q 4678 1225 4090 567 
Q 3503 -91 2522 -91 
Q 1538 -91 948 565 
Q 359 1222 359 2328 
Q 359 3434 948 4092 
Q 1538 4750 2522 4750 
z
" transform="scale(0.015625)"/>
       <path id="DejaVuSans-54" d="M -19 4666 
L 3928 4666 
L 3928 4134 
L 2272 4134 
L 2272 0 
L 1638 0 
L 1638 4134 
L -19 4134 
L -19 4666 
z
" transform="scale(0.015625)"/>
      </defs>
      <use xlink:href="#DejaVuSans-44"/>
      <use xlink:href="#DejaVuSans-46" x="77.001953"/>
      <use xlink:href="#DejaVuSans-46" x="134.521484"/>
      <use xlink:href="#DejaVuSans-20" x="192.041016"/>
      <use xlink:href="#DejaVuSans-4f" x="223.828125"/>
      <use xlink:href="#DejaVuSans-55" x="302.539062"/>
      <use xlink:href="#DejaVuSans-54" x="375.732422"/>
     </g>
    </g>
   </g>
   <g id="line2d_72">
    <path d="M 141.12 402.792523 
L 173.408256 402.846248 
L 173.440512 404.669361 
L 173.601792 436.022113 
L 174.053376 436.016218 
L 183.37536 436.018249 
L 254.048256 436.024317 
L 254.080512 436.258337 
L 254.112768 435.737235 
L 254.306304 431.671784 
L 254.854656 429.291961 
L 255.048192 426.269732 
L 255.273984 415.627858 
L 255.46752 394.491192 
L 255.6288 383.527851 
L 255.79008 383.184366 
L 256.660992 383.175558 
L 260.563968 383.28565 
L 262.176768 385.672431 
L 263.85408 388.640495 
L 268.434432 396.993789 
L 269.047296 398.655729 
L 270.176256 403.226723 
L 271.789056 411.526734 
L 272.337408 414.031092 
L 272.530944 415.332813 
L 272.788992 416.602387 
L 272.821248 416.454864 
L 272.853504 416.307342 
L 272.88576 416.567598 
L 272.918016 416.556149 
L 273.079296 418.18418 
L 273.434112 419.998926 
L 273.466368 419.591148 
L 273.498624 420.193128 
L 273.53088 419.799441 
L 273.69216 421.547252 
L 275.337216 429.938418 
L 276.562944 435.244867 
L 276.5952 434.867429 
L 276.659712 435.067619 
L 276.75648 435.552462 
L 276.91776 436.912091 
L 277.175808 437.773842 
L 277.208064 437.649747 
L 277.24032 437.756536 
L 277.337088 438.566456 
L 277.369344 438.463586 
L 277.4016 438.297613 
L 277.433856 438.492827 
L 278.04672 441.272546 
L 278.143488 441.356216 
L 278.175744 441.325831 
L 278.208 441.270344 
L 278.304768 441.8917 
L 278.337024 441.667995 
L 279.272448 444.537417 
L 279.304704 444.429967 
L 279.369216 444.4696 
L 279.401472 444.776535 
L 279.49824 444.73382 
L 279.562752 444.834223 
L 279.595008 445.302332 
L 279.691776 445.093598 
L 279.853056 445.497413 
L 279.98208 446.254842 
L 280.014336 445.984898 
L 280.078848 446.172934 
L 280.240128 446.924198 
L 283.078656 453.986781 
L 283.69152 455.329455 
L 283.917312 456.065306 
L 286.336512 461.212739 
L 286.43328 461.16606 
L 286.562304 461.022942 
L 286.949376 460.208265 
L 287.0784 459.898248 
L 287.110656 459.917184 
L 288.562176 456.946478 
L 288.594432 456.965854 
L 288.626688 456.869414 
L 289.723392 455.085493 
L 289.755648 455.281015 
L 289.787904 454.999181 
L 289.82016 455.039695 
L 289.852416 455.15463 
L 289.884672 454.863989 
L 289.916928 454.848576 
L 289.949184 455.025603 
L 289.98144 454.778998 
L 290.207232 454.521825 
L 290.239488 454.62443 
L 290.271744 454.462376 
L 290.304 454.478229 
L 290.529792 454.237789 
L 290.723328 454.006157 
L 291.27168 453.041316 
L 291.303936 453.26326 
L 291.336192 452.912729 
L 291.43296 452.857243 
L 291.820032 452.341135 
L 291.852288 452.608877 
L 291.9168 452.294456 
L 291.949056 452.349942 
L 292.110336 452.006897 
L 292.23936 451.867742 
L 292.271616 452.089686 
L 292.303872 451.811815 
L 292.336128 451.929833 
L 292.368384 451.91398 
L 292.497408 451.646238 
L 292.56192 451.750164 
L 292.690944 451.434422 
L 293.142528 451.125726 
L 293.948928 449.763235 
L 293.981184 449.816519 
L 294.01344 450.064445 
L 294.045696 449.662831 
L 294.077952 449.701143 
L 294.17472 449.519272 
L 294.206976 449.827088 
L 294.239232 449.398612 
L 294.303744 449.728005 
L 294.432768 449.181512 
L 294.465024 449.180631 
L 294.49728 449.402135 
L 294.561792 449.075384 
L 295.045632 448.607275 
L 295.077888 448.846834 
L 295.174656 448.740706 
L 295.432704 448.346138 
L 295.78752 448.08324 
L 296.174592 447.66137 
L 296.368128 447.135133 
L 296.400384 447.138656 
L 296.59392 446.745409 
L 296.690688 446.633997 
L 296.722944 446.984088 
L 296.787456 446.615061 
L 296.884224 446.431869 
L 296.91648 446.740125 
L 296.948736 446.376383 
L 297.013248 446.599208 
L 297.142272 446.168971 
L 297.23904 446.146072 
L 297.271296 446.392677 
L 297.303552 445.992825 
L 297.40032 446.028494 
L 297.626112 445.632606 
L 298.819584 444.750994 
L 299.142144 444.306665 
L 299.271168 443.877309 
L 299.303424 444.122592 
L 299.33568 443.752685 
L 299.49696 443.534704 
L 299.529216 443.930152 
L 299.593728 443.407439 
L 299.625984 443.7703 
L 299.690496 443.786593 
L 299.755008 443.27709 
L 299.787264 443.208393 
L 299.81952 443.646557 
L 299.884032 443.434301 
L 299.916288 443.159953 
L 299.9808 443.349751 
L 300.013056 443.430338 
L 300.14208 442.896614 
L 300.206592 443.12032 
L 300.271104 443.064834 
L 300.335616 442.617423 
L 300.432384 442.719147 
L 300.46464 442.988651 
L 300.496896 442.745129 
L 300.529152 442.48179 
L 300.561408 442.500285 
L 300.593664 442.883404 
L 300.62592 442.427185 
L 300.658176 442.43335 
L 300.916224 442.295515 
L 300.980736 442.386231 
L 301.012992 442.303882 
L 301.10976 442.22858 
L 301.142016 442.318414 
L 301.206528 442.237828 
L 301.367808 442.142709 
L 302.141952 441.375151 
L 302.496768 440.863887 
L 302.56128 440.474604 
L 302.593536 440.759961 
L 302.625792 440.825135 
L 302.754816 440.148513 
L 302.787072 440.12306 
L 302.819328 440.540659 
L 302.88384 440.017945 
L 302.980608 439.897681 
L 303.012864 440.330076 
L 303.077376 439.805028 
L 303.270912 439.619326 
L 303.303168 440.145343 
L 303.36768 439.59537 
L 303.399936 439.783494 
L 303.432192 439.423627 
L 303.496704 439.474093 
L 303.52896 439.364618 
L 303.657984 439.301514 
L 304.17408 439.125632 
L 304.399872 439.026109 
L 305.593344 437.726811 
L 305.883648 437.289792 
L 306.012672 436.396004 
L 306.044928 436.435223 
L 306.077184 436.332473 
L 306.141696 436.247746 
L 306.173952 436.277211 
L 306.206208 436.460187 
L 306.238464 436.066747 
L 306.27072 436.44728 
L 306.302976 436.027736 
L 306.399744 436.106111 
L 306.657792 435.883885 
L 307.39968 434.437192 
L 307.528704 433.443727 
L 307.56096 434.115989 
L 307.625472 433.395375 
L 307.657728 433.518369 
L 307.786752 433.099185 
L 307.819008 433.45227 
L 307.88352 433.169336 
L 307.948032 433.22469 
L 307.980288 433.102708 
L 308.012544 433.188624 
L 308.077056 433.069769 
L 308.818944 431.497752 
L 309.206016 430.506489 
L 309.238272 430.056435 
L 309.33504 430.167848 
L 309.431808 430.197352 
L 310.431744 428.058937 
L 310.464 428.091084 
L 310.496256 427.996405 
L 310.560768 427.872222 
L 310.62528 427.164115 
L 310.657536 427.639709 
L 311.012352 426.815345 
L 314.850816 418.414932 
L 314.947584 417.914236 
L 314.97984 417.997465 
L 315.012096 418.074089 
L 315.076608 417.994823 
L 316.1088 415.686867 
L 316.141056 415.730903 
L 316.205568 414.696485 
L 316.27008 415.150502 
L 316.334592 415.30507 
L 316.399104 414.728631 
L 316.43136 415.042612 
L 316.495872 414.880558 
L 316.560384 414.858539 
L 316.786176 414.412449 
L 317.270016 413.490764 
L 317.689344 411.78787 
L 317.88288 411.640788 
L 317.979648 412.145887 
L 318.011904 411.773779 
L 318.108672 411.938916 
L 318.495744 411.228166 
L 318.753792 410.699287 
L 319.49568 409.452171 
L 319.527936 409.476832 
L 319.624704 409.324025 
L 320.527872 407.549352 
L 320.560128 407.712727 
L 320.62464 407.629498 
L 320.721408 407.321242 
L 320.914944 406.895409 
L 321.398784 406.325136 
L 321.560064 406.098788 
L 323.753472 402.918468 
L 324.81792 401.358693 
L 325.075968 400.95796 
L 325.172736 400.682732 
L 326.043648 397.850741 
L 333.462528 381.497766 
L 334.33344 379.727496 
L 334.720512 378.978875 
L 334.752768 378.164198 
L 334.81728 402.985843 
L 334.97856 434.255585 
L 335.268864 434.290462 
L 341.42976 434.541162 
L 345.203712 434.566527 
L 347.429376 434.565338 
L 350.784 434.717177 
L 351.042048 435.012618 
L 351.719424 435.596996 
L 352.525824 435.987046 
L 353.558016 436.2376 
L 355.203072 436.387104 
L 359.00928 436.431361 
L 372.492288 436.52404 
L 375.008256 436.529369 
L 375.040512 436.406758 
L 375.105024 436.535182 
L 380.814336 436.459069 
L 413.650944 436.206814 
L 415.328256 436.199883 
L 415.360512 436.538572 
L 415.683072 429.849904 
L 415.94112 428.318313 
L 416.1024 425.757587 
L 416.26368 418.622344 
L 416.457216 398.469895 
L 416.683008 377.111725 
L 416.812032 376.926771 
L 416.844288 376.939982 
L 417.424896 377.058881 
L 418.03776 377.168972 
L 418.36032 377.235027 
L 418.973184 377.331907 
L 419.328 377.411173 
L 419.97312 377.521265 
L 420.29568 377.587319 
L 420.9408 377.697411 
L 421.26336 377.759062 
L 425.875968 378.490069 
L 426.134016 378.512087 
L 426.843648 378.622179 
L 427.166208 378.68383 
L 435.423744 379.701074 
L 436.326912 379.811166 
L 436.58496 379.833184 
L 437.584896 379.943275 
L 437.842944 379.965294 
L 438.939648 380.075385 
L 439.197696 380.097403 
L 440.2944 380.207495 
L 440.552448 380.229513 
L 441.74592 380.339604 
L 442.003968 380.361623 
L 443.19744 380.471714 
L 443.455488 380.493732 
L 444.842496 380.603824 
L 445.100544 380.625842 
L 446.487552 380.735933 
L 446.7456 380.757952 
L 448.229376 380.868043 
L 448.487424 380.885658 
L 450.035712 380.986942 
L 450.390528 381.022171 
L 452.003328 381.132262 
L 452.261376 381.149877 
L 454.099968 381.251161 
L 454.454784 381.28639 
L 455.712768 381.326023 
L 455.77728 381.409693 
L 455.841792 381.374463 
L 456.357888 381.396482 
L 456.615936 381.414096 
L 458.744832 381.51538 
L 459.099648 381.546206 
L 460.260864 381.594646 
L 460.77696 381.634279 
L 463.19616 381.735563 
L 463.550976 381.766389 
L 466.292736 381.867673 
L 466.647552 381.898498 
L 469.679616 381.999782 
L 470.034432 382.030608 
L 471.163392 382.074645 
L 474.80832 382.175929 
L 475.163136 382.211158 
L 475.969536 382.211158 
L 479.291904 382.321249 
L 479.614464 382.343268 
L 480.45312 382.338864 
L 484.48512 382.440148 
L 484.839936 382.475377 
L 485.678592 382.470974 
L 490.77504 382.572258 
L 491.129856 382.603083 
L 495.968256 382.673542 
L 496.000512 382.942165 
L 496.065024 382.655927 
L 496.226304 382.686753 
L 576.608256 382.730789 
L 576.640512 382.950972 
L 576.705024 382.735193 
L 576.866304 382.730789 
L 657.248256 382.730789 
L 657.280512 382.955376 
L 657.345024 382.730789 
L 657.53856 382.708771 
L 658.538496 382.735193 
L 737.888256 382.752808 
L 737.920512 382.902532 
L 737.985024 382.699964 
L 738.243072 382.726386 
L 818.528256 382.752808 
L 818.560512 382.902532 
L 818.625024 382.699964 
L 818.883072 382.726386 
L 899.168256 382.752808 
L 899.200512 382.902532 
L 899.265024 382.699964 
L 899.523072 382.726386 
L 947.52 382.735193 
L 947.52 382.735193 
" clip-path="url(#pdac1a27b9d)" style="fill: none; stroke: #ff00ff; stroke-width: 2; stroke-linecap: square"/>
   </g>
   <g id="patch_22">
    <path d="M 100.8 465.442759 
L 100.8 372.711724 
" style="fill: none; stroke: #bcbcbc; stroke-width: 0.8; stroke-linejoin: miter; stroke-linecap: square"/>
   </g>
   <g id="patch_23">
    <path d="M 987.84 465.442759 
L 987.84 372.711724 
" style="fill: none; stroke: #bcbcbc; stroke-width: 0.8; stroke-linejoin: miter; stroke-linecap: square"/>
   </g>
   <g id="patch_24">
    <path d="M 100.8 465.442759 
L 987.84 465.442759 
" style="fill: none; stroke: #bcbcbc; stroke-width: 0.8; stroke-linejoin: miter; stroke-linecap: square"/>
   </g>
   <g id="patch_25">
    <path d="M 100.8 372.711724 
L 987.84 372.711724 
" style="fill: none; stroke: #bcbcbc; stroke-width: 0.8; stroke-linejoin: miter; stroke-linecap: square"/>
   </g>
  </g>
  <g id="axes_5">
   <g id="patch_26">
    <path d="M 100.8 576.72 
L 987.84 576.72 
L 987.84 483.988966 
L 100.8 483.988966 
z
" style="fill: #eeeeee"/>
   </g>
   <g id="matplotlib.axis_9">
    <g id="xtick_25">
     <g id="line2d_73">
      <path d="M 141.12 576.72 
L 141.12 483.988966 
" clip-path="url(#pb02d6e586c)" style="fill: none; stroke-dasharray: 1.85,0.8; stroke-dashoffset: 0; stroke: #b2b2b2; stroke-width: 0.5"/>
     </g>
     <g id="line2d_74">
      <g>
       <use xlink:href="#mcb83e4209f" x="141.12" y="576.72" style="stroke: #000000; stroke-width: 0.8"/>
      </g>
     </g>
     <g id="text_15">
      <!-- 0 s -->
      <g transform="translate(130.795 590.857813) scale(0.14 -0.14)">
       <defs>
        <path id="DejaVuSans-73" d="M 2834 3397 
L 2834 2853 
Q 2591 2978 2328 3040 
Q 2066 3103 1784 3103 
Q 1356 3103 1142 2972 
Q 928 2841 928 2578 
Q 928 2378 1081 2264 
Q 1234 2150 1697 2047 
L 1894 2003 
Q 2506 1872 2764 1633 
Q 3022 1394 3022 966 
Q 3022 478 2636 193 
Q 2250 -91 1575 -91 
Q 1294 -91 989 -36 
Q 684 19 347 128 
L 347 722 
Q 666 556 975 473 
Q 1284 391 1588 391 
Q 1994 391 2212 530 
Q 2431 669 2431 922 
Q 2431 1156 2273 1281 
Q 2116 1406 1581 1522 
L 1381 1569 
Q 847 1681 609 1914 
Q 372 2147 372 2553 
Q 372 3047 722 3315 
Q 1072 3584 1716 3584 
Q 2034 3584 2315 3537 
Q 2597 3491 2834 3397 
z
" transform="scale(0.015625)"/>
       </defs>
       <use xlink:href="#DejaVuSans-30"/>
       <use xlink:href="#DejaVuSans-20" x="63.623047"/>
       <use xlink:href="#DejaVuSans-73" x="95.410156"/>
      </g>
     </g>
    </g>
    <g id="xtick_26">
     <g id="line2d_75">
      <path d="M 302.4 576.72 
L 302.4 483.988966 
" clip-path="url(#pb02d6e586c)" style="fill: none; stroke-dasharray: 1.85,0.8; stroke-dashoffset: 0; stroke: #b2b2b2; stroke-width: 0.5"/>
     </g>
     <g id="line2d_76">
      <g>
       <use xlink:href="#mcb83e4209f" x="302.4" y="576.72" style="stroke: #000000; stroke-width: 0.8"/>
      </g>
     </g>
     <g id="text_16">
      <!-- 50 ns -->
      <g transform="translate(283.185 590.857813) scale(0.14 -0.14)">
       <defs>
        <path id="DejaVuSans-35" d="M 691 4666 
L 3169 4666 
L 3169 4134 
L 1269 4134 
L 1269 2991 
Q 1406 3038 1543 3061 
Q 1681 3084 1819 3084 
Q 2600 3084 3056 2656 
Q 3513 2228 3513 1497 
Q 3513 744 3044 326 
Q 2575 -91 1722 -91 
Q 1428 -91 1123 -41 
Q 819 9 494 109 
L 494 744 
Q 775 591 1075 516 
Q 1375 441 1709 441 
Q 2250 441 2565 725 
Q 2881 1009 2881 1497 
Q 2881 1984 2565 2268 
Q 2250 2553 1709 2553 
Q 1456 2553 1204 2497 
Q 953 2441 691 2322 
L 691 4666 
z
" transform="scale(0.015625)"/>
        <path id="DejaVuSans-6e" d="M 3513 2113 
L 3513 0 
L 2938 0 
L 2938 2094 
Q 2938 2591 2744 2837 
Q 2550 3084 2163 3084 
Q 1697 3084 1428 2787 
Q 1159 2491 1159 1978 
L 1159 0 
L 581 0 
L 581 3500 
L 1159 3500 
L 1159 2956 
Q 1366 3272 1645 3428 
Q 1925 3584 2291 3584 
Q 2894 3584 3203 3211 
Q 3513 2838 3513 2113 
z
" transform="scale(0.015625)"/>
       </defs>
       <use xlink:href="#DejaVuSans-35"/>
       <use xlink:href="#DejaVuSans-30" x="63.623047"/>
       <use xlink:href="#DejaVuSans-20" x="127.246094"/>
       <use xlink:href="#DejaVuSans-6e" x="159.033203"/>
       <use xlink:href="#DejaVuSans-73" x="222.412109"/>
      </g>
     </g>
    </g>
    <g id="xtick_27">
     <g id="line2d_77">
      <path d="M 463.68 576.72 
L 463.68 483.988966 
" clip-path="url(#pb02d6e586c)" style="fill: none; stroke-dasharray: 1.85,0.8; stroke-dashoffset: 0; stroke: #b2b2b2; stroke-width: 0.5"/>
     </g>
     <g id="line2d_78">
      <g>
       <use xlink:href="#mcb83e4209f" x="463.68" y="576.72" style="stroke: #000000; stroke-width: 0.8"/>
      </g>
     </g>
     <g id="text_17">
      <!-- 100 ns -->
      <g transform="translate(440.01125 590.857813) scale(0.14 -0.14)">
       <use xlink:href="#DejaVuSans-31"/>
       <use xlink:href="#DejaVuSans-30" x="63.623047"/>
       <use xlink:href="#DejaVuSans-30" x="127.246094"/>
       <use xlink:href="#DejaVuSans-20" x="190.869141"/>
       <use xlink:href="#DejaVuSans-6e" x="222.65625"/>
       <use xlink:href="#DejaVuSans-73" x="286.035156"/>
      </g>
     </g>
    </g>
    <g id="xtick_28">
     <g id="line2d_79">
      <path d="M 624.96 576.72 
L 624.96 483.988966 
" clip-path="url(#pb02d6e586c)" style="fill: none; stroke-dasharray: 1.85,0.8; stroke-dashoffset: 0; stroke: #b2b2b2; stroke-width: 0.5"/>
     </g>
     <g id="line2d_80">
      <g>
       <use xlink:href="#mcb83e4209f" x="624.96" y="576.72" style="stroke: #000000; stroke-width: 0.8"/>
      </g>
     </g>
     <g id="text_18">
      <!-- 150 ns -->
      <g transform="translate(601.29125 590.857813) scale(0.14 -0.14)">
       <use xlink:href="#DejaVuSans-31"/>
       <use xlink:href="#DejaVuSans-35" x="63.623047"/>
       <use xlink:href="#DejaVuSans-30" x="127.246094"/>
       <use xlink:href="#DejaVuSans-20" x="190.869141"/>
       <use xlink:href="#DejaVuSans-6e" x="222.65625"/>
       <use xlink:href="#DejaVuSans-73" x="286.035156"/>
      </g>
     </g>
    </g>
    <g id="xtick_29">
     <g id="line2d_81">
      <path d="M 786.24 576.72 
L 786.24 483.988966 
" clip-path="url(#pb02d6e586c)" style="fill: none; stroke-dasharray: 1.85,0.8; stroke-dashoffset: 0; stroke: #b2b2b2; stroke-width: 0.5"/>
     </g>
     <g id="line2d_82">
      <g>
       <use xlink:href="#mcb83e4209f" x="786.24" y="576.72" style="stroke: #000000; stroke-width: 0.8"/>
      </g>
     </g>
     <g id="text_19">
      <!-- 200 ns -->
      <g transform="translate(762.57125 590.857813) scale(0.14 -0.14)">
       <use xlink:href="#DejaVuSans-32"/>
       <use xlink:href="#DejaVuSans-30" x="63.623047"/>
       <use xlink:href="#DejaVuSans-30" x="127.246094"/>
       <use xlink:href="#DejaVuSans-20" x="190.869141"/>
       <use xlink:href="#DejaVuSans-6e" x="222.65625"/>
       <use xlink:href="#DejaVuSans-73" x="286.035156"/>
      </g>
     </g>
    </g>
    <g id="xtick_30">
     <g id="line2d_83">
      <path d="M 947.52 576.72 
L 947.52 483.988966 
" clip-path="url(#pb02d6e586c)" style="fill: none; stroke-dasharray: 1.85,0.8; stroke-dashoffset: 0; stroke: #b2b2b2; stroke-width: 0.5"/>
     </g>
     <g id="line2d_84">
      <g>
       <use xlink:href="#mcb83e4209f" x="947.52" y="576.72" style="stroke: #000000; stroke-width: 0.8"/>
      </g>
     </g>
     <g id="text_20">
      <!-- 250 ns -->
      <g transform="translate(923.85125 590.857813) scale(0.14 -0.14)">
       <use xlink:href="#DejaVuSans-32"/>
       <use xlink:href="#DejaVuSans-35" x="63.623047"/>
       <use xlink:href="#DejaVuSans-30" x="127.246094"/>
       <use xlink:href="#DejaVuSans-20" x="190.869141"/>
       <use xlink:href="#DejaVuSans-6e" x="222.65625"/>
       <use xlink:href="#DejaVuSans-73" x="286.035156"/>
      </g>
     </g>
    </g>
    <g id="text_21">
     <!-- Time -->
     <g transform="translate(527.192969 608.407187) scale(0.14 -0.14)">
      <defs>
       <path id="DejaVuSans-69" d="M 603 3500 
L 1178 3500 
L 1178 0 
L 603 0 
L 603 3500 
z
M 603 4863 
L 1178 4863 
L 1178 4134 
L 603 4134 
L 603 4863 
z
" transform="scale(0.015625)"/>
       <path id="DejaVuSans-6d" d="M 3328 2828 
Q 3544 3216 3844 3400 
Q 4144 3584 4550 3584 
Q 5097 3584 5394 3201 
Q 5691 2819 5691 2113 
L 5691 0 
L 5113 0 
L 5113 2094 
Q 5113 2597 4934 2840 
Q 4756 3084 4391 3084 
Q 3944 3084 3684 2787 
Q 3425 2491 3425 1978 
L 3425 0 
L 2847 0 
L 2847 2094 
Q 2847 2600 2669 2842 
Q 2491 3084 2119 3084 
Q 1678 3084 1418 2786 
Q 1159 2488 1159 1978 
L 1159 0 
L 581 0 
L 581 3500 
L 1159 3500 
L 1159 2956 
Q 1356 3278 1631 3431 
Q 1906 3584 2284 3584 
Q 2666 3584 2933 3390 
Q 3200 3197 3328 2828 
z
" transform="scale(0.015625)"/>
       <path id="DejaVuSans-65" d="M 3597 1894 
L 3597 1613 
L 953 1613 
Q 991 1019 1311 708 
Q 1631 397 2203 397 
Q 2534 397 2845 478 
Q 3156 559 3463 722 
L 3463 178 
Q 3153 47 2828 -22 
Q 2503 -91 2169 -91 
Q 1331 -91 842 396 
Q 353 884 353 1716 
Q 353 2575 817 3079 
Q 1281 3584 2069 3584 
Q 2775 3584 3186 3129 
Q 3597 2675 3597 1894 
z
M 3022 2063 
Q 3016 2534 2758 2815 
Q 2500 3097 2075 3097 
Q 1594 3097 1305 2825 
Q 1016 2553 972 2059 
L 3022 2063 
z
" transform="scale(0.015625)"/>
      </defs>
      <use xlink:href="#DejaVuSans-54"/>
      <use xlink:href="#DejaVuSans-69" x="57.958984"/>
      <use xlink:href="#DejaVuSans-6d" x="85.742188"/>
      <use xlink:href="#DejaVuSans-65" x="183.154297"/>
     </g>
    </g>
   </g>
   <g id="matplotlib.axis_10">
    <g id="ytick_11">
     <g id="line2d_85">
      <path d="M 100.8 569.745664 
L 987.84 569.745664 
" clip-path="url(#pb02d6e586c)" style="fill: none; stroke-dasharray: 1.85,0.8; stroke-dashoffset: 0; stroke: #b2b2b2; stroke-width: 0.5"/>
     </g>
     <g id="line2d_86">
      <g>
       <use xlink:href="#ma302fffc9e" x="100.8" y="569.745664" style="stroke: #000000; stroke-width: 0.8"/>
      </g>
     </g>
     <g id="text_22">
      <!-- 0 V -->
      <g transform="translate(74.36625 575.06457) scale(0.14 -0.14)">
       <use xlink:href="#DejaVuSans-30"/>
       <use xlink:href="#DejaVuSans-20" x="63.623047"/>
       <use xlink:href="#DejaVuSans-56" x="95.410156"/>
      </g>
     </g>
    </g>
    <g id="ytick_12">
     <g id="line2d_87">
      <path d="M 100.8 535.947417 
L 987.84 535.947417 
" clip-path="url(#pb02d6e586c)" style="fill: none; stroke-dasharray: 1.85,0.8; stroke-dashoffset: 0; stroke: #b2b2b2; stroke-width: 0.5"/>
     </g>
     <g id="line2d_88">
      <g>
       <use xlink:href="#ma302fffc9e" x="100.8" y="535.947417" style="stroke: #000000; stroke-width: 0.8"/>
      </g>
     </g>
     <g id="text_23">
      <!-- 500 mV -->
      <g transform="translate(42.914375 541.266323) scale(0.14 -0.14)">
       <use xlink:href="#DejaVuSans-35"/>
       <use xlink:href="#DejaVuSans-30" x="63.623047"/>
       <use xlink:href="#DejaVuSans-30" x="127.246094"/>
       <use xlink:href="#DejaVuSans-20" x="190.869141"/>
       <use xlink:href="#DejaVuSans-6d" x="222.65625"/>
       <use xlink:href="#DejaVuSans-56" x="320.068359"/>
      </g>
     </g>
    </g>
    <g id="ytick_13">
     <g id="line2d_89">
      <path d="M 100.8 502.149169 
L 987.84 502.149169 
" clip-path="url(#pb02d6e586c)" style="fill: none; stroke-dasharray: 1.85,0.8; stroke-dashoffset: 0; stroke: #b2b2b2; stroke-width: 0.5"/>
     </g>
     <g id="line2d_90">
      <g>
       <use xlink:href="#ma302fffc9e" x="100.8" y="502.149169" style="stroke: #000000; stroke-width: 0.8"/>
      </g>
     </g>
     <g id="text_24">
      <!-- 1 V -->
      <g transform="translate(74.36625 507.468076) scale(0.14 -0.14)">
       <use xlink:href="#DejaVuSans-31"/>
       <use xlink:href="#DejaVuSans-20" x="63.623047"/>
       <use xlink:href="#DejaVuSans-56" x="95.410156"/>
      </g>
     </g>
    </g>
    <g id="text_25">
     <g id="patch_27">
      <path d="M 34.8768 554.329483 
L 34.8768 506.379483 
L 11.247425 506.379483 
L 11.247425 554.329483 
z
" style="fill: #ffff00; opacity: 0.2; stroke: #eeeeee; stroke-width: 0.5; stroke-linejoin: miter"/>
     </g>
     <!-- FOUT -->
     <g transform="translate(26.925238 549.289483) rotate(-90) scale(0.14 -0.14)">
      <use xlink:href="#DejaVuSans-46"/>
      <use xlink:href="#DejaVuSans-4f" x="57.519531"/>
      <use xlink:href="#DejaVuSans-55" x="136.230469"/>
      <use xlink:href="#DejaVuSans-54" x="209.423828"/>
     </g>
    </g>
   </g>
   <g id="line2d_91">
    <path d="M 141.12 488.62987 
L 173.472768 488.63663 
L 173.505024 488.4406 
L 173.569536 526.786064 
L 173.69856 572.504953 
L 173.730816 572.36949 
L 173.827584 567.841741 
L 173.892096 569.360648 
L 174.053376 570.063996 
L 174.117888 569.946459 
L 174.408192 569.491812 
L 174.440448 569.541273 
L 174.66624 569.729732 
L 176.182272 569.739929 
L 180.117504 569.76123 
L 193.568256 569.751938 
L 212.954112 569.743788 
L 255.403008 569.689097 
L 255.693312 488.650149 
L 256.015872 488.62987 
L 271.853568 488.582553 
L 271.91808 488.345965 
L 271.950336 489.190921 
L 272.014848 521.237744 
L 272.111616 570.113531 
L 272.176128 569.741987 
L 280.14336 569.743983 
L 318.495744 569.810807 
L 318.528 569.648291 
L 318.592512 556.563672 
L 318.818304 488.765063 
L 318.979584 488.63663 
L 319.527936 488.62987 
L 334.81728 488.62987 
L 334.881792 488.204013 
L 334.946304 535.134231 
L 335.043072 569.780013 
L 335.075328 569.724642 
L 335.333376 569.743985 
L 416.392704 569.792574 
L 416.42496 569.89318 
L 416.74752 488.63663 
L 947.52 488.62987 
L 947.52 488.62987 
" clip-path="url(#pb02d6e586c)" style="fill: none; stroke: #ff00ff; stroke-width: 2; stroke-linecap: square"/>
   </g>
   <g id="patch_28">
    <path d="M 100.8 576.72 
L 100.8 483.988966 
" style="fill: none; stroke: #bcbcbc; stroke-width: 0.8; stroke-linejoin: miter; stroke-linecap: square"/>
   </g>
   <g id="patch_29">
    <path d="M 987.84 576.72 
L 987.84 483.988966 
" style="fill: none; stroke: #bcbcbc; stroke-width: 0.8; stroke-linejoin: miter; stroke-linecap: square"/>
   </g>
   <g id="patch_30">
    <path d="M 100.8 576.72 
L 987.84 576.72 
" style="fill: none; stroke: #bcbcbc; stroke-width: 0.8; stroke-linejoin: miter; stroke-linecap: square"/>
   </g>
   <g id="patch_31">
    <path d="M 100.8 483.988966 
L 987.84 483.988966 
" style="fill: none; stroke: #bcbcbc; stroke-width: 0.8; stroke-linejoin: miter; stroke-linecap: square"/>
   </g>
  </g>
  <g id="axes_6">
   <g id="patch_32">
    <path d="M 201.6 628.56 
L 856.8 628.56 
L 856.8 615.6 
L 201.6 615.6 
z
" clip-path="url(#p7c641c05b7)" style="fill: #d3d3d3"/>
   </g>
   <g id="patch_33">
    <path d="M 201.6 628.56 
L 299.88 628.56 
L 299.88 615.6 
L 201.6 615.6 
z
" clip-path="url(#p7c641c05b7)" style="fill: #0000ff"/>
   </g>
   <g id="line2d_92">
    <path d="M 201.6 635.04 
L 201.6 609.12 
" clip-path="url(#p73ad54ebb7)" style="fill: none; stroke: #ff0000; stroke-linecap: square"/>
   </g>
   <g id="line2d_93">
    <defs>
     <path id="me715101462" d="M 0 5 
C 1.326016 5 2.597899 4.473168 3.535534 3.535534 
C 4.473168 2.597899 5 1.326016 5 0 
C 5 -1.326016 4.473168 -2.597899 3.535534 -3.535534 
C 2.597899 -4.473168 1.326016 -5 0 -5 
C -1.326016 -5 -2.597899 -4.473168 -3.535534 -3.535534 
C -4.473168 -2.597899 -5 -1.326016 -5 0 
C -5 1.326016 -4.473168 2.597899 -3.535534 3.535534 
C -2.597899 4.473168 -1.326016 5 0 5 
z
" style="stroke: #bfbfbf"/>
    </defs>
    <g>
     <use xlink:href="#me715101462" x="299.88" y="622.08" style="fill: #ffffff; stroke: #bfbfbf"/>
    </g>
   </g>
   <g id="text_26">
    <!-- #Sweep -->
    <g transform="translate(138.622875 625.39125) scale(0.12 -0.12)">
     <defs>
      <path id="DejaVuSans-23" d="M 3272 2816 
L 2363 2816 
L 2100 1772 
L 3016 1772 
L 3272 2816 
z
M 2803 4594 
L 2478 3297 
L 3391 3297 
L 3719 4594 
L 4219 4594 
L 3897 3297 
L 4872 3297 
L 4872 2816 
L 3775 2816 
L 3519 1772 
L 4513 1772 
L 4513 1294 
L 3397 1294 
L 3072 0 
L 2572 0 
L 2894 1294 
L 1978 1294 
L 1656 0 
L 1153 0 
L 1478 1294 
L 494 1294 
L 494 1772 
L 1594 1772 
L 1856 2816 
L 850 2816 
L 850 3297 
L 1978 3297 
L 2297 4594 
L 2803 4594 
z
" transform="scale(0.015625)"/>
      <path id="DejaVuSans-77" d="M 269 3500 
L 844 3500 
L 1563 769 
L 2278 3500 
L 2956 3500 
L 3675 769 
L 4391 3500 
L 4966 3500 
L 4050 0 
L 3372 0 
L 2619 2869 
L 1863 0 
L 1184 0 
L 269 3500 
z
" transform="scale(0.015625)"/>
      <path id="DejaVuSans-70" d="M 1159 525 
L 1159 -1331 
L 581 -1331 
L 581 3500 
L 1159 3500 
L 1159 2969 
Q 1341 3281 1617 3432 
Q 1894 3584 2278 3584 
Q 2916 3584 3314 3078 
Q 3713 2572 3713 1747 
Q 3713 922 3314 415 
Q 2916 -91 2278 -91 
Q 1894 -91 1617 61 
Q 1341 213 1159 525 
z
M 3116 1747 
Q 3116 2381 2855 2742 
Q 2594 3103 2138 3103 
Q 1681 3103 1420 2742 
Q 1159 2381 1159 1747 
Q 1159 1113 1420 752 
Q 1681 391 2138 391 
Q 2594 391 2855 752 
Q 3116 1113 3116 1747 
z
" transform="scale(0.015625)"/>
     </defs>
     <use xlink:href="#DejaVuSans-23"/>
     <use xlink:href="#DejaVuSans-53" x="83.789062"/>
     <use xlink:href="#DejaVuSans-77" x="147.265625"/>
     <use xlink:href="#DejaVuSans-65" x="229.052734"/>
     <use xlink:href="#DejaVuSans-65" x="290.576172"/>
     <use xlink:href="#DejaVuSans-70" x="352.099609"/>
    </g>
   </g>
   <g id="text_27">
    <!-- $\mathdefault{21}$ -->
    <g transform="translate(869.904 625.39125) scale(0.12 -0.12)">
     <use xlink:href="#DejaVuSans-32" transform="translate(0 0.78125)"/>
     <use xlink:href="#DejaVuSans-31" transform="translate(63.623047 0.78125)"/>
    </g>
   </g>
  </g>
  <g id="text_28">
   <!-- DFF under BBI sweep analysis (Sweep = 31E-9) -->
   <g transform="translate(313.34625 25.1175) scale(0.16 -0.16)">
    <defs>
     <path id="DejaVuSans-75" d="M 544 1381 
L 544 3500 
L 1119 3500 
L 1119 1403 
Q 1119 906 1312 657 
Q 1506 409 1894 409 
Q 2359 409 2629 706 
Q 2900 1003 2900 1516 
L 2900 3500 
L 3475 3500 
L 3475 0 
L 2900 0 
L 2900 538 
Q 2691 219 2414 64 
Q 2138 -91 1772 -91 
Q 1169 -91 856 284 
Q 544 659 544 1381 
z
M 1991 3584 
L 1991 3584 
z
" transform="scale(0.015625)"/>
     <path id="DejaVuSans-64" d="M 2906 2969 
L 2906 4863 
L 3481 4863 
L 3481 0 
L 2906 0 
L 2906 525 
Q 2725 213 2448 61 
Q 2172 -91 1784 -91 
Q 1150 -91 751 415 
Q 353 922 353 1747 
Q 353 2572 751 3078 
Q 1150 3584 1784 3584 
Q 2172 3584 2448 3432 
Q 2725 3281 2906 2969 
z
M 947 1747 
Q 947 1113 1208 752 
Q 1469 391 1925 391 
Q 2381 391 2643 752 
Q 2906 1113 2906 1747 
Q 2906 2381 2643 2742 
Q 2381 3103 1925 3103 
Q 1469 3103 1208 2742 
Q 947 2381 947 1747 
z
" transform="scale(0.015625)"/>
     <path id="DejaVuSans-72" d="M 2631 2963 
Q 2534 3019 2420 3045 
Q 2306 3072 2169 3072 
Q 1681 3072 1420 2755 
Q 1159 2438 1159 1844 
L 1159 0 
L 581 0 
L 581 3500 
L 1159 3500 
L 1159 2956 
Q 1341 3275 1631 3429 
Q 1922 3584 2338 3584 
Q 2397 3584 2469 3576 
Q 2541 3569 2628 3553 
L 2631 2963 
z
" transform="scale(0.015625)"/>
     <path id="DejaVuSans-61" d="M 2194 1759 
Q 1497 1759 1228 1600 
Q 959 1441 959 1056 
Q 959 750 1161 570 
Q 1363 391 1709 391 
Q 2188 391 2477 730 
Q 2766 1069 2766 1631 
L 2766 1759 
L 2194 1759 
z
M 3341 1997 
L 3341 0 
L 2766 0 
L 2766 531 
Q 2569 213 2275 61 
Q 1981 -91 1556 -91 
Q 1019 -91 701 211 
Q 384 513 384 1019 
Q 384 1609 779 1909 
Q 1175 2209 1959 2209 
L 2766 2209 
L 2766 2266 
Q 2766 2663 2505 2880 
Q 2244 3097 1772 3097 
Q 1472 3097 1187 3025 
Q 903 2953 641 2809 
L 641 3341 
Q 956 3463 1253 3523 
Q 1550 3584 1831 3584 
Q 2591 3584 2966 3190 
Q 3341 2797 3341 1997 
z
" transform="scale(0.015625)"/>
     <path id="DejaVuSans-6c" d="M 603 4863 
L 1178 4863 
L 1178 0 
L 603 0 
L 603 4863 
z
" transform="scale(0.015625)"/>
     <path id="DejaVuSans-79" d="M 2059 -325 
Q 1816 -950 1584 -1140 
Q 1353 -1331 966 -1331 
L 506 -1331 
L 506 -850 
L 844 -850 
Q 1081 -850 1212 -737 
Q 1344 -625 1503 -206 
L 1606 56 
L 191 3500 
L 800 3500 
L 1894 763 
L 2988 3500 
L 3597 3500 
L 2059 -325 
z
" transform="scale(0.015625)"/>
     <path id="DejaVuSans-28" d="M 1984 4856 
Q 1566 4138 1362 3434 
Q 1159 2731 1159 2009 
Q 1159 1288 1364 580 
Q 1569 -128 1984 -844 
L 1484 -844 
Q 1016 -109 783 600 
Q 550 1309 550 2009 
Q 550 2706 781 3412 
Q 1013 4119 1484 4856 
L 1984 4856 
z
" transform="scale(0.015625)"/>
     <path id="DejaVuSans-3d" d="M 678 2906 
L 4684 2906 
L 4684 2381 
L 678 2381 
L 678 2906 
z
M 678 1631 
L 4684 1631 
L 4684 1100 
L 678 1100 
L 678 1631 
z
" transform="scale(0.015625)"/>
     <path id="DejaVuSans-33" d="M 2597 2516 
Q 3050 2419 3304 2112 
Q 3559 1806 3559 1356 
Q 3559 666 3084 287 
Q 2609 -91 1734 -91 
Q 1441 -91 1130 -33 
Q 819 25 488 141 
L 488 750 
Q 750 597 1062 519 
Q 1375 441 1716 441 
Q 2309 441 2620 675 
Q 2931 909 2931 1356 
Q 2931 1769 2642 2001 
Q 2353 2234 1838 2234 
L 1294 2234 
L 1294 2753 
L 1863 2753 
Q 2328 2753 2575 2939 
Q 2822 3125 2822 3475 
Q 2822 3834 2567 4026 
Q 2313 4219 1838 4219 
Q 1578 4219 1281 4162 
Q 984 4106 628 3988 
L 628 4550 
Q 988 4650 1302 4700 
Q 1616 4750 1894 4750 
Q 2613 4750 3031 4423 
Q 3450 4097 3450 3541 
Q 3450 3153 3228 2886 
Q 3006 2619 2597 2516 
z
" transform="scale(0.015625)"/>
     <path id="DejaVuSans-2d" d="M 313 2009 
L 1997 2009 
L 1997 1497 
L 313 1497 
L 313 2009 
z
" transform="scale(0.015625)"/>
     <path id="DejaVuSans-39" d="M 703 97 
L 703 672 
Q 941 559 1184 500 
Q 1428 441 1663 441 
Q 2288 441 2617 861 
Q 2947 1281 2994 2138 
Q 2813 1869 2534 1725 
Q 2256 1581 1919 1581 
Q 1219 1581 811 2004 
Q 403 2428 403 3163 
Q 403 3881 828 4315 
Q 1253 4750 1959 4750 
Q 2769 4750 3195 4129 
Q 3622 3509 3622 2328 
Q 3622 1225 3098 567 
Q 2575 -91 1691 -91 
Q 1453 -91 1209 -44 
Q 966 3 703 97 
z
M 1959 2075 
Q 2384 2075 2632 2365 
Q 2881 2656 2881 3163 
Q 2881 3666 2632 3958 
Q 2384 4250 1959 4250 
Q 1534 4250 1286 3958 
Q 1038 3666 1038 3163 
Q 1038 2656 1286 2365 
Q 1534 2075 1959 2075 
z
" transform="scale(0.015625)"/>
     <path id="DejaVuSans-29" d="M 513 4856 
L 1013 4856 
Q 1481 4119 1714 3412 
Q 1947 2706 1947 2009 
Q 1947 1309 1714 600 
Q 1481 -109 1013 -844 
L 513 -844 
Q 928 -128 1133 580 
Q 1338 1288 1338 2009 
Q 1338 2731 1133 3434 
Q 928 4138 513 4856 
z
" transform="scale(0.015625)"/>
    </defs>
    <use xlink:href="#DejaVuSans-44"/>
    <use xlink:href="#DejaVuSans-46" x="77.001953"/>
    <use xlink:href="#DejaVuSans-46" x="134.521484"/>
    <use xlink:href="#DejaVuSans-20" x="192.041016"/>
    <use xlink:href="#DejaVuSans-75" x="223.828125"/>
    <use xlink:href="#DejaVuSans-6e" x="287.207031"/>
    <use xlink:href="#DejaVuSans-64" x="350.585938"/>
    <use xlink:href="#DejaVuSans-65" x="414.0625"/>
    <use xlink:href="#DejaVuSans-72" x="475.585938"/>
    <use xlink:href="#DejaVuSans-20" x="516.699219"/>
    <use xlink:href="#DejaVuSans-42" x="548.486328"/>
    <use xlink:href="#DejaVuSans-42" x="617.089844"/>
    <use xlink:href="#DejaVuSans-49" x="685.693359"/>
    <use xlink:href="#DejaVuSans-20" x="715.185547"/>
    <use xlink:href="#DejaVuSans-73" x="746.972656"/>
    <use xlink:href="#DejaVuSans-77" x="799.072266"/>
    <use xlink:href="#DejaVuSans-65" x="880.859375"/>
    <use xlink:href="#DejaVuSans-65" x="942.382812"/>
    <use xlink:href="#DejaVuSans-70" x="1003.90625"/>
    <use xlink:href="#DejaVuSans-20" x="1067.382812"/>
    <use xlink:href="#DejaVuSans-61" x="1099.169922"/>
    <use xlink:href="#DejaVuSans-6e" x="1160.449219"/>
    <use xlink:href="#DejaVuSans-61" x="1223.828125"/>
    <use xlink:href="#DejaVuSans-6c" x="1285.107422"/>
    <use xlink:href="#DejaVuSans-79" x="1312.890625"/>
    <use xlink:href="#DejaVuSans-73" x="1372.070312"/>
    <use xlink:href="#DejaVuSans-69" x="1424.169922"/>
    <use xlink:href="#DejaVuSans-73" x="1451.953125"/>
    <use xlink:href="#DejaVuSans-20" x="1504.052734"/>
    <use xlink:href="#DejaVuSans-28" x="1535.839844"/>
    <use xlink:href="#DejaVuSans-53" x="1574.853516"/>
    <use xlink:href="#DejaVuSans-77" x="1638.330078"/>
    <use xlink:href="#DejaVuSans-65" x="1720.117188"/>
    <use xlink:href="#DejaVuSans-65" x="1781.640625"/>
    <use xlink:href="#DejaVuSans-70" x="1843.164062"/>
    <use xlink:href="#DejaVuSans-20" x="1906.640625"/>
    <use xlink:href="#DejaVuSans-3d" x="1938.427734"/>
    <use xlink:href="#DejaVuSans-20" x="2022.216797"/>
    <use xlink:href="#DejaVuSans-33" x="2054.003906"/>
    <use xlink:href="#DejaVuSans-31" x="2117.626953"/>
    <use xlink:href="#DejaVuSans-45" x="2181.25"/>
    <use xlink:href="#DejaVuSans-2d" x="2244.433594"/>
    <use xlink:href="#DejaVuSans-39" x="2280.517578"/>
    <use xlink:href="#DejaVuSans-29" x="2344.140625"/>
   </g>
  </g>
 </g>
 <defs>
  <clipPath id="p70051942a5">
   <rect x="100.8" y="38.88" width="887.04" height="92.731034"/>
  </clipPath>
  <clipPath id="pd585ecf3bb">
   <rect x="100.8" y="150.157241" width="887.04" height="92.731034"/>
  </clipPath>
  <clipPath id="p170215c184">
   <rect x="100.8" y="261.434483" width="887.04" height="92.731034"/>
  </clipPath>
  <clipPath id="pdac1a27b9d">
   <rect x="100.8" y="372.711724" width="887.04" height="92.731034"/>
  </clipPath>
  <clipPath id="pb02d6e586c">
   <rect x="100.8" y="483.988966" width="887.04" height="92.731034"/>
  </clipPath>
  <clipPath id="p7c641c05b7">
   <rect x="201.6" y="609.12" width="655.2" height="25.92"/>
  </clipPath>
  <clipPath id="p73ad54ebb7">
   <path d="M 201.6 628.56 
L 856.8 628.56 
L 856.8 615.6 
L 201.6 615.6 
z
"/>
  </clipPath>
 </defs>
</svg>
