<?xml version="1.0" encoding="utf-8" standalone="no"?>
<!DOCTYPE svg PUBLIC "-//W3C//DTD SVG 1.1//EN"
  "http://www.w3.org/Graphics/SVG/1.1/DTD/svg11.dtd">
<svg xmlns:xlink="http://www.w3.org/1999/xlink" width="1008pt" height="648pt" viewBox="0 0 1008 648" xmlns="http://www.w3.org/2000/svg" version="1.1">
 <metadata>
  <rdf:RDF xmlns:dc="http://purl.org/dc/elements/1.1/" xmlns:cc="http://creativecommons.org/ns#" xmlns:rdf="http://www.w3.org/1999/02/22-rdf-syntax-ns#">
   <cc:Work>
    <dc:type rdf:resource="http://purl.org/dc/dcmitype/StillImage"/>
    <dc:date>2024-06-03T10:45:30.247876</dc:date>
    <dc:format>image/svg+xml</dc:format>
    <dc:creator>
     <cc:Agent>
      <dc:title>Matplotlib v3.9.0, https://matplotlib.org/</dc:title>
     </cc:Agent>
    </dc:creator>
   </cc:Work>
  </rdf:RDF>
 </metadata>
 <defs>
  <style type="text/css">*{stroke-linejoin: round; stroke-linecap: butt}</style>
 </defs>
 <g id="figure_1">
  <g id="patch_1">
   <path d="M 0 648 
L 1008 648 
L 1008 0 
L 0 0 
z
" style="fill: #ffffff"/>
  </g>
  <g id="axes_1">
   <g id="patch_2">
    <path d="M 100.8 131.611034 
L 987.84 131.611034 
L 987.84 38.88 
L 100.8 38.88 
z
" style="fill: #eeeeee"/>
   </g>
   <g id="matplotlib.axis_1">
    <g id="xtick_1">
     <g id="line2d_1">
      <path d="M 141.12 131.611034 
L 141.12 38.88 
" clip-path="url(#p042038e8a6)" style="fill: none; stroke-dasharray: 1.85,0.8; stroke-dashoffset: 0; stroke: #b2b2b2; stroke-width: 0.5"/>
     </g>
     <g id="line2d_2">
      <defs>
       <path id="m2f5ed1a584" d="M 0 0 
L 0 -3.5 
" style="stroke: #000000; stroke-width: 0.8"/>
      </defs>
      <g>
       <use xlink:href="#m2f5ed1a584" x="141.12" y="131.611034" style="stroke: #000000; stroke-width: 0.8"/>
      </g>
     </g>
    </g>
    <g id="xtick_2">
     <g id="line2d_3">
      <path d="M 302.4 131.611034 
L 302.4 38.88 
" clip-path="url(#p042038e8a6)" style="fill: none; stroke-dasharray: 1.85,0.8; stroke-dashoffset: 0; stroke: #b2b2b2; stroke-width: 0.5"/>
     </g>
     <g id="line2d_4">
      <g>
       <use xlink:href="#m2f5ed1a584" x="302.4" y="131.611034" style="stroke: #000000; stroke-width: 0.8"/>
      </g>
     </g>
    </g>
    <g id="xtick_3">
     <g id="line2d_5">
      <path d="M 463.68 131.611034 
L 463.68 38.88 
" clip-path="url(#p042038e8a6)" style="fill: none; stroke-dasharray: 1.85,0.8; stroke-dashoffset: 0; stroke: #b2b2b2; stroke-width: 0.5"/>
     </g>
     <g id="line2d_6">
      <g>
       <use xlink:href="#m2f5ed1a584" x="463.68" y="131.611034" style="stroke: #000000; stroke-width: 0.8"/>
      </g>
     </g>
    </g>
    <g id="xtick_4">
     <g id="line2d_7">
      <path d="M 624.96 131.611034 
L 624.96 38.88 
" clip-path="url(#p042038e8a6)" style="fill: none; stroke-dasharray: 1.85,0.8; stroke-dashoffset: 0; stroke: #b2b2b2; stroke-width: 0.5"/>
     </g>
     <g id="line2d_8">
      <g>
       <use xlink:href="#m2f5ed1a584" x="624.96" y="131.611034" style="stroke: #000000; stroke-width: 0.8"/>
      </g>
     </g>
    </g>
    <g id="xtick_5">
     <g id="line2d_9">
      <path d="M 786.24 131.611034 
L 786.24 38.88 
" clip-path="url(#p042038e8a6)" style="fill: none; stroke-dasharray: 1.85,0.8; stroke-dashoffset: 0; stroke: #b2b2b2; stroke-width: 0.5"/>
     </g>
     <g id="line2d_10">
      <g>
       <use xlink:href="#m2f5ed1a584" x="786.24" y="131.611034" style="stroke: #000000; stroke-width: 0.8"/>
      </g>
     </g>
    </g>
    <g id="xtick_6">
     <g id="line2d_11">
      <path d="M 947.52 131.611034 
L 947.52 38.88 
" clip-path="url(#p042038e8a6)" style="fill: none; stroke-dasharray: 1.85,0.8; stroke-dashoffset: 0; stroke: #b2b2b2; stroke-width: 0.5"/>
     </g>
     <g id="line2d_12">
      <g>
       <use xlink:href="#m2f5ed1a584" x="947.52" y="131.611034" style="stroke: #000000; stroke-width: 0.8"/>
      </g>
     </g>
    </g>
   </g>
   <g id="matplotlib.axis_2">
    <g id="ytick_1">
     <g id="line2d_13">
      <path d="M 100.8 98.340394 
L 987.84 98.340394 
" clip-path="url(#p042038e8a6)" style="fill: none; stroke-dasharray: 1.85,0.8; stroke-dashoffset: 0; stroke: #b2b2b2; stroke-width: 0.5"/>
     </g>
     <g id="line2d_14">
      <defs>
       <path id="mc27811ad4d" d="M 0 0 
L 3.5 0 
" style="stroke: #000000; stroke-width: 0.8"/>
      </defs>
      <g>
       <use xlink:href="#mc27811ad4d" x="100.8" y="98.340394" style="stroke: #000000; stroke-width: 0.8"/>
      </g>
     </g>
     <g id="text_1">
      <!-- −200 V -->
      <g transform="translate(44.819688 103.6593) scale(0.14 -0.14)">
       <defs>
        <path id="DejaVuSans-2212" d="M 678 2272 
L 4684 2272 
L 4684 1741 
L 678 1741 
L 678 2272 
z
" transform="scale(0.015625)"/>
        <path id="DejaVuSans-32" d="M 1228 531 
L 3431 531 
L 3431 0 
L 469 0 
L 469 531 
Q 828 903 1448 1529 
Q 2069 2156 2228 2338 
Q 2531 2678 2651 2914 
Q 2772 3150 2772 3378 
Q 2772 3750 2511 3984 
Q 2250 4219 1831 4219 
Q 1534 4219 1204 4116 
Q 875 4013 500 3803 
L 500 4441 
Q 881 4594 1212 4672 
Q 1544 4750 1819 4750 
Q 2544 4750 2975 4387 
Q 3406 4025 3406 3419 
Q 3406 3131 3298 2873 
Q 3191 2616 2906 2266 
Q 2828 2175 2409 1742 
Q 1991 1309 1228 531 
z
" transform="scale(0.015625)"/>
        <path id="DejaVuSans-30" d="M 2034 4250 
Q 1547 4250 1301 3770 
Q 1056 3291 1056 2328 
Q 1056 1369 1301 889 
Q 1547 409 2034 409 
Q 2525 409 2770 889 
Q 3016 1369 3016 2328 
Q 3016 3291 2770 3770 
Q 2525 4250 2034 4250 
z
M 2034 4750 
Q 2819 4750 3233 4129 
Q 3647 3509 3647 2328 
Q 3647 1150 3233 529 
Q 2819 -91 2034 -91 
Q 1250 -91 836 529 
Q 422 1150 422 2328 
Q 422 3509 836 4129 
Q 1250 4750 2034 4750 
z
" transform="scale(0.015625)"/>
        <path id="DejaVuSans-20" transform="scale(0.015625)"/>
        <path id="DejaVuSans-56" d="M 1831 0 
L 50 4666 
L 709 4666 
L 2188 738 
L 3669 4666 
L 4325 4666 
L 2547 0 
L 1831 0 
z
" transform="scale(0.015625)"/>
       </defs>
       <use xlink:href="#DejaVuSans-2212"/>
       <use xlink:href="#DejaVuSans-32" x="83.789062"/>
       <use xlink:href="#DejaVuSans-30" x="147.412109"/>
       <use xlink:href="#DejaVuSans-30" x="211.035156"/>
       <use xlink:href="#DejaVuSans-20" x="274.658203"/>
       <use xlink:href="#DejaVuSans-56" x="306.445312"/>
      </g>
     </g>
    </g>
    <g id="ytick_2">
     <g id="line2d_15">
      <path d="M 100.8 45.027377 
L 987.84 45.027377 
" clip-path="url(#p042038e8a6)" style="fill: none; stroke-dasharray: 1.85,0.8; stroke-dashoffset: 0; stroke: #b2b2b2; stroke-width: 0.5"/>
     </g>
     <g id="line2d_16">
      <g>
       <use xlink:href="#mc27811ad4d" x="100.8" y="45.027377" style="stroke: #000000; stroke-width: 0.8"/>
      </g>
     </g>
     <g id="text_2">
      <!-- 0 V -->
      <g transform="translate(74.36625 50.346284) scale(0.14 -0.14)">
       <use xlink:href="#DejaVuSans-30"/>
       <use xlink:href="#DejaVuSans-20" x="63.623047"/>
       <use xlink:href="#DejaVuSans-56" x="95.410156"/>
      </g>
     </g>
    </g>
    <g id="text_3">
     <g id="patch_3">
      <path d="M 34.8768 131.080205 
L 34.8768 39.41083 
L 11.247425 39.41083 
L 11.247425 131.080205 
z
" style="fill: #ffff00; opacity: 0.2; stroke: #eeeeee; stroke-width: 0.5; stroke-linejoin: miter"/>
     </g>
     <!-- VPULSE BBI -->
     <g transform="translate(26.925238 126.040205) rotate(-90) scale(0.14 -0.14)">
      <defs>
       <path id="DejaVuSans-50" d="M 1259 4147 
L 1259 2394 
L 2053 2394 
Q 2494 2394 2734 2622 
Q 2975 2850 2975 3272 
Q 2975 3691 2734 3919 
Q 2494 4147 2053 4147 
L 1259 4147 
z
M 628 4666 
L 2053 4666 
Q 2838 4666 3239 4311 
Q 3641 3956 3641 3272 
Q 3641 2581 3239 2228 
Q 2838 1875 2053 1875 
L 1259 1875 
L 1259 0 
L 628 0 
L 628 4666 
z
" transform="scale(0.015625)"/>
       <path id="DejaVuSans-55" d="M 556 4666 
L 1191 4666 
L 1191 1831 
Q 1191 1081 1462 751 
Q 1734 422 2344 422 
Q 2950 422 3222 751 
Q 3494 1081 3494 1831 
L 3494 4666 
L 4128 4666 
L 4128 1753 
Q 4128 841 3676 375 
Q 3225 -91 2344 -91 
Q 1459 -91 1007 375 
Q 556 841 556 1753 
L 556 4666 
z
" transform="scale(0.015625)"/>
       <path id="DejaVuSans-4c" d="M 628 4666 
L 1259 4666 
L 1259 531 
L 3531 531 
L 3531 0 
L 628 0 
L 628 4666 
z
" transform="scale(0.015625)"/>
       <path id="DejaVuSans-53" d="M 3425 4513 
L 3425 3897 
Q 3066 4069 2747 4153 
Q 2428 4238 2131 4238 
Q 1616 4238 1336 4038 
Q 1056 3838 1056 3469 
Q 1056 3159 1242 3001 
Q 1428 2844 1947 2747 
L 2328 2669 
Q 3034 2534 3370 2195 
Q 3706 1856 3706 1288 
Q 3706 609 3251 259 
Q 2797 -91 1919 -91 
Q 1588 -91 1214 -16 
Q 841 59 441 206 
L 441 856 
Q 825 641 1194 531 
Q 1563 422 1919 422 
Q 2459 422 2753 634 
Q 3047 847 3047 1241 
Q 3047 1584 2836 1778 
Q 2625 1972 2144 2069 
L 1759 2144 
Q 1053 2284 737 2584 
Q 422 2884 422 3419 
Q 422 4038 858 4394 
Q 1294 4750 2059 4750 
Q 2388 4750 2728 4690 
Q 3069 4631 3425 4513 
z
" transform="scale(0.015625)"/>
       <path id="DejaVuSans-45" d="M 628 4666 
L 3578 4666 
L 3578 4134 
L 1259 4134 
L 1259 2753 
L 3481 2753 
L 3481 2222 
L 1259 2222 
L 1259 531 
L 3634 531 
L 3634 0 
L 628 0 
L 628 4666 
z
" transform="scale(0.015625)"/>
       <path id="DejaVuSans-42" d="M 1259 2228 
L 1259 519 
L 2272 519 
Q 2781 519 3026 730 
Q 3272 941 3272 1375 
Q 3272 1813 3026 2020 
Q 2781 2228 2272 2228 
L 1259 2228 
z
M 1259 4147 
L 1259 2741 
L 2194 2741 
Q 2656 2741 2882 2914 
Q 3109 3088 3109 3444 
Q 3109 3797 2882 3972 
Q 2656 4147 2194 4147 
L 1259 4147 
z
M 628 4666 
L 2241 4666 
Q 2963 4666 3353 4366 
Q 3744 4066 3744 3513 
Q 3744 3084 3544 2831 
Q 3344 2578 2956 2516 
Q 3422 2416 3680 2098 
Q 3938 1781 3938 1306 
Q 3938 681 3513 340 
Q 3088 0 2303 0 
L 628 0 
L 628 4666 
z
" transform="scale(0.015625)"/>
       <path id="DejaVuSans-49" d="M 628 4666 
L 1259 4666 
L 1259 0 
L 628 0 
L 628 4666 
z
" transform="scale(0.015625)"/>
      </defs>
      <use xlink:href="#DejaVuSans-56"/>
      <use xlink:href="#DejaVuSans-50" x="68.408203"/>
      <use xlink:href="#DejaVuSans-55" x="128.710938"/>
      <use xlink:href="#DejaVuSans-4c" x="201.904297"/>
      <use xlink:href="#DejaVuSans-53" x="257.617188"/>
      <use xlink:href="#DejaVuSans-45" x="321.09375"/>
      <use xlink:href="#DejaVuSans-20" x="384.277344"/>
      <use xlink:href="#DejaVuSans-42" x="416.064453"/>
      <use xlink:href="#DejaVuSans-42" x="484.667969"/>
      <use xlink:href="#DejaVuSans-49" x="553.271484"/>
     </g>
    </g>
   </g>
   <g id="line2d_17">
    <path d="M 141.12 45.027377 
L 212.115456 45.136282 
L 212.599296 46.425538 
L 220.824576 69.006772 
L 228.243456 89.863624 
L 229.856256 94.440546 
L 231.662592 99.673219 
L 235.14624 110.807642 
L 236.726784 115.853719 
L 237.984768 119.566971 
L 239.210496 120.153414 
L 240.049152 120.545265 
L 241.081344 121.017085 
L 241.661952 121.272988 
L 242.532864 121.656841 
L 243.113472 121.912744 
L 243.952128 122.269941 
L 245.532672 122.936354 
L 246.177792 123.202919 
L 247.274496 123.629423 
L 248.016384 123.922644 
L 249.113088 124.349149 
L 250.016256 124.677024 
L 250.693632 124.943589 
L 251.500032 125.25547 
L 252.854784 125.804594 
L 255.499776 126.790885 
L 256.11264 127.022796 
L 258.048 127.395987 
L 276.530688 127.289361 
L 276.75648 126.801547 
L 295.045632 75.087922 
L 298.787328 63.292417 
L 302.496768 51.617666 
L 307.109376 49.3412 
L 312.463872 46.984578 
L 321.172992 43.484472 
L 322.043904 43.268927 
L 336.333312 43.108189 
L 343.139328 43.184799 
L 358.493184 43.746186 
L 386.2656 44.46146 
L 411.90912 44.774399 
L 447.519744 44.945888 
L 495.548928 44.953885 
L 947.52 44.953885 
L 947.52 44.953885 
" clip-path="url(#p042038e8a6)" style="fill: none; stroke: #ff0000; stroke-width: 2; stroke-linecap: square"/>
   </g>
   <g id="patch_4">
    <path d="M 100.8 131.611034 
L 100.8 38.88 
" style="fill: none; stroke: #bcbcbc; stroke-width: 0.8; stroke-linejoin: miter; stroke-linecap: square"/>
   </g>
   <g id="patch_5">
    <path d="M 987.84 131.611034 
L 987.84 38.88 
" style="fill: none; stroke: #bcbcbc; stroke-width: 0.8; stroke-linejoin: miter; stroke-linecap: square"/>
   </g>
   <g id="patch_6">
    <path d="M 100.8 131.611034 
L 987.84 131.611034 
" style="fill: none; stroke: #bcbcbc; stroke-width: 0.8; stroke-linejoin: miter; stroke-linecap: square"/>
   </g>
   <g id="patch_7">
    <path d="M 100.8 38.88 
L 987.84 38.88 
" style="fill: none; stroke: #bcbcbc; stroke-width: 0.8; stroke-linejoin: miter; stroke-linecap: square"/>
   </g>
  </g>
  <g id="axes_2">
   <g id="patch_8">
    <path d="M 100.8 242.888276 
L 987.84 242.888276 
L 987.84 150.157241 
L 100.8 150.157241 
z
" style="fill: #eeeeee"/>
   </g>
   <g id="matplotlib.axis_3">
    <g id="xtick_7">
     <g id="line2d_18">
      <path d="M 141.12 242.888276 
L 141.12 150.157241 
" clip-path="url(#pa685b252be)" style="fill: none; stroke-dasharray: 1.85,0.8; stroke-dashoffset: 0; stroke: #b2b2b2; stroke-width: 0.5"/>
     </g>
     <g id="line2d_19">
      <g>
       <use xlink:href="#m2f5ed1a584" x="141.12" y="242.888276" style="stroke: #000000; stroke-width: 0.8"/>
      </g>
     </g>
    </g>
    <g id="xtick_8">
     <g id="line2d_20">
      <path d="M 302.4 242.888276 
L 302.4 150.157241 
" clip-path="url(#pa685b252be)" style="fill: none; stroke-dasharray: 1.85,0.8; stroke-dashoffset: 0; stroke: #b2b2b2; stroke-width: 0.5"/>
     </g>
     <g id="line2d_21">
      <g>
       <use xlink:href="#m2f5ed1a584" x="302.4" y="242.888276" style="stroke: #000000; stroke-width: 0.8"/>
      </g>
     </g>
    </g>
    <g id="xtick_9">
     <g id="line2d_22">
      <path d="M 463.68 242.888276 
L 463.68 150.157241 
" clip-path="url(#pa685b252be)" style="fill: none; stroke-dasharray: 1.85,0.8; stroke-dashoffset: 0; stroke: #b2b2b2; stroke-width: 0.5"/>
     </g>
     <g id="line2d_23">
      <g>
       <use xlink:href="#m2f5ed1a584" x="463.68" y="242.888276" style="stroke: #000000; stroke-width: 0.8"/>
      </g>
     </g>
    </g>
    <g id="xtick_10">
     <g id="line2d_24">
      <path d="M 624.96 242.888276 
L 624.96 150.157241 
" clip-path="url(#pa685b252be)" style="fill: none; stroke-dasharray: 1.85,0.8; stroke-dashoffset: 0; stroke: #b2b2b2; stroke-width: 0.5"/>
     </g>
     <g id="line2d_25">
      <g>
       <use xlink:href="#m2f5ed1a584" x="624.96" y="242.888276" style="stroke: #000000; stroke-width: 0.8"/>
      </g>
     </g>
    </g>
    <g id="xtick_11">
     <g id="line2d_26">
      <path d="M 786.24 242.888276 
L 786.24 150.157241 
" clip-path="url(#pa685b252be)" style="fill: none; stroke-dasharray: 1.85,0.8; stroke-dashoffset: 0; stroke: #b2b2b2; stroke-width: 0.5"/>
     </g>
     <g id="line2d_27">
      <g>
       <use xlink:href="#m2f5ed1a584" x="786.24" y="242.888276" style="stroke: #000000; stroke-width: 0.8"/>
      </g>
     </g>
    </g>
    <g id="xtick_12">
     <g id="line2d_28">
      <path d="M 947.52 242.888276 
L 947.52 150.157241 
" clip-path="url(#pa685b252be)" style="fill: none; stroke-dasharray: 1.85,0.8; stroke-dashoffset: 0; stroke: #b2b2b2; stroke-width: 0.5"/>
     </g>
     <g id="line2d_29">
      <g>
       <use xlink:href="#m2f5ed1a584" x="947.52" y="242.888276" style="stroke: #000000; stroke-width: 0.8"/>
      </g>
     </g>
    </g>
   </g>
   <g id="matplotlib.axis_4">
    <g id="ytick_3">
     <g id="line2d_30">
      <path d="M 100.8 214.056645 
L 987.84 214.056645 
" clip-path="url(#pa685b252be)" style="fill: none; stroke-dasharray: 1.85,0.8; stroke-dashoffset: 0; stroke: #b2b2b2; stroke-width: 0.5"/>
     </g>
     <g id="line2d_31">
      <g>
       <use xlink:href="#mc27811ad4d" x="100.8" y="214.056645" style="stroke: #000000; stroke-width: 0.8"/>
      </g>
     </g>
     <g id="text_4">
      <!-- 0 V -->
      <g transform="translate(74.36625 219.375551) scale(0.14 -0.14)">
       <use xlink:href="#DejaVuSans-30"/>
       <use xlink:href="#DejaVuSans-20" x="63.623047"/>
       <use xlink:href="#DejaVuSans-56" x="95.410156"/>
      </g>
     </g>
    </g>
    <g id="ytick_4">
     <g id="line2d_32">
      <path d="M 100.8 171.216883 
L 987.84 171.216883 
" clip-path="url(#pa685b252be)" style="fill: none; stroke-dasharray: 1.85,0.8; stroke-dashoffset: 0; stroke: #b2b2b2; stroke-width: 0.5"/>
     </g>
     <g id="line2d_33">
      <g>
       <use xlink:href="#mc27811ad4d" x="100.8" y="171.216883" style="stroke: #000000; stroke-width: 0.8"/>
      </g>
     </g>
     <g id="text_5">
      <!-- 1 V -->
      <g transform="translate(74.36625 176.535789) scale(0.14 -0.14)">
       <defs>
        <path id="DejaVuSans-31" d="M 794 531 
L 1825 531 
L 1825 4091 
L 703 3866 
L 703 4441 
L 1819 4666 
L 2450 4666 
L 2450 531 
L 3481 531 
L 3481 0 
L 794 0 
L 794 531 
z
" transform="scale(0.015625)"/>
       </defs>
       <use xlink:href="#DejaVuSans-31"/>
       <use xlink:href="#DejaVuSans-20" x="63.623047"/>
       <use xlink:href="#DejaVuSans-56" x="95.410156"/>
      </g>
     </g>
    </g>
    <g id="text_6">
     <g id="patch_9">
      <path d="M 34.8768 224.531509 
L 34.8768 168.514009 
L 11.247425 168.514009 
L 11.247425 224.531509 
z
" style="fill: #ffff00; opacity: 0.2; stroke: #eeeeee; stroke-width: 0.5; stroke-linejoin: miter"/>
     </g>
     <!-- DFF IN -->
     <g transform="translate(26.925238 219.491509) rotate(-90) scale(0.14 -0.14)">
      <defs>
       <path id="DejaVuSans-44" d="M 1259 4147 
L 1259 519 
L 2022 519 
Q 2988 519 3436 956 
Q 3884 1394 3884 2338 
Q 3884 3275 3436 3711 
Q 2988 4147 2022 4147 
L 1259 4147 
z
M 628 4666 
L 1925 4666 
Q 3281 4666 3915 4102 
Q 4550 3538 4550 2338 
Q 4550 1131 3912 565 
Q 3275 0 1925 0 
L 628 0 
L 628 4666 
z
" transform="scale(0.015625)"/>
       <path id="DejaVuSans-46" d="M 628 4666 
L 3309 4666 
L 3309 4134 
L 1259 4134 
L 1259 2759 
L 3109 2759 
L 3109 2228 
L 1259 2228 
L 1259 0 
L 628 0 
L 628 4666 
z
" transform="scale(0.015625)"/>
       <path id="DejaVuSans-4e" d="M 628 4666 
L 1478 4666 
L 3547 763 
L 3547 4666 
L 4159 4666 
L 4159 0 
L 3309 0 
L 1241 3903 
L 1241 0 
L 628 0 
L 628 4666 
z
" transform="scale(0.015625)"/>
      </defs>
      <use xlink:href="#DejaVuSans-44"/>
      <use xlink:href="#DejaVuSans-46" x="77.001953"/>
      <use xlink:href="#DejaVuSans-46" x="134.521484"/>
      <use xlink:href="#DejaVuSans-20" x="192.041016"/>
      <use xlink:href="#DejaVuSans-49" x="223.828125"/>
      <use xlink:href="#DejaVuSans-4e" x="253.320312"/>
     </g>
    </g>
   </g>
   <g id="line2d_34">
    <path d="M 141.12 213.994082 
L 212.147712 214.067288 
L 213.566976 215.809605 
L 214.631424 216.661602 
L 216.43776 217.324976 
L 217.986048 217.512743 
L 220.179456 217.715632 
L 220.727808 217.995547 
L 222.018048 218.876546 
L 223.985664 211.363695 
L 224.759808 209.396964 
L 225.114624 208.942434 
L 225.275904 208.983989 
L 225.759744 209.765386 
L 226.43712 210.764024 
L 227.179008 211.533854 
L 227.824128 212.387179 
L 228.404736 214.147422 
L 228.920832 216.307103 
L 229.856256 219.582117 
L 230.017536 220.059352 
L 230.404608 221.471779 
L 230.856192 222.538489 
L 231.11424 222.905198 
L 231.404544 223.492102 
L 231.888384 225.066464 
L 232.694784 226.989541 
L 232.823808 227.317693 
L 233.662464 229.322166 
L 233.823744 229.556499 
L 234.17856 230.592793 
L 234.888192 232.187717 
L 234.98496 232.432761 
L 235.372032 233.192738 
L 237.662208 238.246973 
L 237.823488 238.482164 
L 237.952512 238.673229 
L 237.984768 238.657807 
L 238.726656 237.703765 
L 239.17824 236.804987 
L 239.5008 236.005597 
L 239.66208 235.735706 
L 239.887872 235.302596 
L 240.016896 235.156084 
L 240.500736 234.572178 
L 240.855552 233.859325 
L 241.210368 233.13062 
L 241.500672 232.857303 
L 241.694208 232.672235 
L 241.887744 232.45161 
L 242.371584 232.056199 
L 243.081216 231.168559 
L 243.758592 229.910784 
L 243.984384 229.811396 
L 244.081152 229.744994 
L 244.435968 229.38514 
L 244.629504 229.315311 
L 244.887552 229.123389 
L 245.887488 227.901599 
L 246.27456 227.10735 
L 246.371328 227.145049 
L 246.403584 227.107778 
L 246.661632 226.669956 
L 246.822912 226.716651 
L 247.08096 226.4549 
L 247.822848 225.916833 
L 248.951808 224.542962 
L 249.1776 224.148408 
L 249.242112 224.10771 
L 249.403392 223.950916 
L 249.919488 223.569642 
L 250.338816 223.234207 
L 251.91936 221.6667 
L 252.919296 220.584568 
L 253.403136 220.237994 
L 255.596544 218.057364 
L 255.95136 217.640876 
L 256.693248 217.017087 
L 258.20928 215.102149 
L 258.789888 214.01138 
L 259.628544 212.560852 
L 260.4672 211.073584 
L 261.11232 209.902387 
L 264.724992 204.138812 
L 265.757184 202.776079 
L 266.75712 201.905575 
L 267.628032 201.611266 
L 268.36992 201.680238 
L 269.079552 201.983971 
L 270.111744 202.897744 
L 270.982656 204.040708 
L 272.369664 206.280371 
L 273.982464 208.8499 
L 274.434048 209.433378 
L 275.433984 210.580798 
L 276.466176 211.366565 
L 276.627456 211.394539 
L 277.853184 210.158741 
L 279.33696 209.582032 
L 280.562688 209.385397 
L 282.014208 209.399963 
L 283.336704 209.588458 
L 283.659264 209.633011 
L 284.594688 209.795374 
L 285.014016 209.862803 
L 285.62688 209.961549 
L 286.175232 210.04333 
L 286.659072 210.105062 
L 287.368704 210.225528 
L 287.820288 210.256201 
L 288.594432 210.350363 
L 288.884736 210.389604 
L 290.46528 210.540614 
L 296.11008 210.7163 
L 297.432576 210.480467 
L 297.755136 210.429788 
L 298.722816 210.311421 
L 299.109888 210.269438 
L 300.013056 210.146017 
L 300.46464 210.08964 
L 301.077504 210.005031 
L 301.625856 209.921965 
L 302.141952 209.837142 
L 302.496768 209.924621 
L 303.2064 210.681086 
L 304.077312 211.468909 
L 304.593408 211.818653 
L 305.14176 212.068409 
L 306.044928 212.404701 
L 306.367488 212.470888 
L 307.948032 212.76811 
L 312.367104 213.190596 
L 319.915008 213.570328 
L 320.205312 213.586778 
L 327.849984 214.272523 
L 328.785408 214.301881 
L 329.107968 214.304906 
L 330.269184 214.344254 
L 330.559488 214.339344 
L 332.172288 214.36124 
L 332.494848 214.374233 
L 335.075328 214.386374 
L 343.010304 214.455693 
L 345.46176 214.441269 
L 345.752064 214.449246 
L 347.106816 214.43414 
L 347.39712 214.444752 
L 347.71968 214.408372 
L 350.525952 179.70858 
L 351.848448 167.678318 
L 352.71936 161.119551 
L 353.267712 158.326398 
L 353.84832 156.445733 
L 354.396672 155.421863 
L 354.848256 154.903501 
L 355.977216 154.419412 
L 356.880384 154.40656 
L 359.299584 154.834958 
L 359.912448 154.967761 
L 360.94464 155.211948 
L 361.58976 155.357603 
L 362.783232 155.623209 
L 363.396096 155.751729 
L 364.879872 156.055891 
L 365.492736 156.18441 
L 367.07328 156.492857 
L 368.944128 156.852711 
L 370.202112 157.075477 
L 370.78272 157.178293 
L 371.26656 157.259688 
L 375.040512 157.859445 
L 375.13728 158.039372 
L 376.621056 162.08773 
L 376.975872 162.284792 
L 377.298432 162.263373 
L 377.71776 161.989198 
L 379.782144 160.215632 
L 380.395008 159.941457 
L 381.26592 159.710123 
L 382.007808 159.620159 
L 382.814208 159.615875 
L 383.717376 159.603023 
L 384.265728 159.637295 
L 385.039872 159.645863 
L 390.523392 159.752963 
L 392.23296 159.86863 
L 392.813568 159.898618 
L 394.910208 160.069977 
L 395.490816 160.104249 
L 397.361664 160.241336 
L 397.942272 160.271324 
L 399.684096 160.391275 
L 401.006592 160.498374 
L 401.522688 160.528362 
L 403.03872 160.635462 
L 404.199936 160.682585 
L 404.683776 160.725425 
L 406.167552 160.815389 
L 406.780416 160.845376 
L 408.264192 160.931056 
L 410.360832 161.038155 
L 411.683328 161.102415 
L 413.941248 161.200946 
L 414.296064 161.235218 
L 415.425024 161.179527 
L 415.908864 160.498374 
L 416.779776 160.052841 
L 417.102336 160.074261 
L 419.360256 160.781117 
L 419.81184 160.905352 
L 421.42464 161.230934 
L 422.134272 161.31233 
L 423.424512 161.419429 
L 425.005056 161.517961 
L 426.714624 161.62506 
L 427.908096 161.672184 
L 431.165952 161.779283 
L 432.06912 161.787851 
L 436.10112 161.890667 
L 436.617216 161.91637 
L 442.423296 162.02347 
L 443.487744 162.053458 
L 444.3264 162.053458 
L 450.358272 162.156273 
L 450.680832 162.169125 
L 455.77728 162.276224 
L 456.228864 162.897401 
L 456.809472 163.291527 
L 457.615872 163.501442 
L 458.454528 163.394342 
L 459.777024 163.15444 
L 461.196288 162.854561 
L 462.325248 162.666066 
L 465.583104 162.344768 
L 475.29216 162.237669 
L 476.163072 162.233385 
L 496.065024 162.130569 
L 496.548864 161.457985 
L 497.22624 161.051007 
L 498.290688 161.021019 
L 499.064832 161.235218 
L 501.74208 161.834975 
L 504.096768 162.036322 
L 509.773824 162.143421 
L 510.676992 162.151989 
L 536.385024 162.229101 
L 537.030144 163.073044 
L 537.578496 163.368638 
L 539.223552 163.475738 
L 543.545856 162.790302 
L 544.771584 162.576103 
L 548.642304 162.173409 
L 576.73728 162.070594 
L 577.22112 161.432281 
L 577.86624 161.051007 
L 578.930688 161.016735 
L 582.54336 161.864963 
L 584.64 162.032038 
L 589.897728 162.139137 
L 590.800896 162.147705 
L 617.025024 162.229101 
L 617.7024 163.107316 
L 618.412032 163.44575 
L 619.702272 163.505726 
L 620.637696 163.398626 
L 622.024704 163.103032 
L 623.476224 162.828857 
L 628.34688 162.29336 
L 657.312768 162.186261 
L 657.828864 161.440849 
L 658.377216 161.068143 
L 659.667456 161.008168 
L 663.473664 161.907803 
L 665.473536 162.062026 
L 697.600512 162.169125 
L 697.729536 162.340484 
L 698.245632 163.017352 
L 698.632704 163.270107 
L 699.406848 163.462886 
L 701.471232 163.36007 
L 703.632384 162.897401 
L 709.051392 162.289076 
L 737.952768 162.186261 
L 738.468864 161.440849 
L 739.017216 161.068143 
L 740.307456 161.008168 
L 744.113664 161.907803 
L 746.113536 162.062026 
L 778.240512 162.169125 
L 778.369536 162.340484 
L 778.885632 163.017352 
L 779.272704 163.270107 
L 780.046848 163.462886 
L 782.111232 163.36007 
L 784.240128 162.905969 
L 789.723648 162.289076 
L 818.592768 162.186261 
L 819.108864 161.440849 
L 819.657216 161.063859 
L 821.495808 161.166675 
L 824.62464 161.886383 
L 826.818048 162.06631 
L 858.880512 162.169125 
L 859.009536 162.340484 
L 859.428864 162.905969 
L 860.170752 163.36007 
L 861.202944 163.527146 
L 862.493184 163.420046 
L 864.686592 163.017352 
L 866.783232 162.571819 
L 870.202368 162.229101 
L 899.265024 162.130569 
L 899.748864 161.457985 
L 900.42624 161.051007 
L 901.490688 161.016735 
L 905.10336 161.864963 
L 907.2 162.032038 
L 912.457728 162.139137 
L 913.360896 162.147705 
L 939.585024 162.224817 
L 940.10112 162.953093 
L 940.58496 163.261539 
L 941.294592 163.518578 
L 943.294464 163.411478 
L 944.45568 163.145872 
L 946.487808 162.717474 
L 947.52 162.511843 
L 947.52 162.511843 
" clip-path="url(#pa685b252be)" style="fill: none; stroke: #008000; stroke-width: 2; stroke-linecap: square"/>
   </g>
   <g id="patch_10">
    <path d="M 100.8 242.888276 
L 100.8 150.157241 
" style="fill: none; stroke: #bcbcbc; stroke-width: 0.8; stroke-linejoin: miter; stroke-linecap: square"/>
   </g>
   <g id="patch_11">
    <path d="M 987.84 242.888276 
L 987.84 150.157241 
" style="fill: none; stroke: #bcbcbc; stroke-width: 0.8; stroke-linejoin: miter; stroke-linecap: square"/>
   </g>
   <g id="patch_12">
    <path d="M 100.8 242.888276 
L 987.84 242.888276 
" style="fill: none; stroke: #bcbcbc; stroke-width: 0.8; stroke-linejoin: miter; stroke-linecap: square"/>
   </g>
   <g id="patch_13">
    <path d="M 100.8 150.157241 
L 987.84 150.157241 
" style="fill: none; stroke: #bcbcbc; stroke-width: 0.8; stroke-linejoin: miter; stroke-linecap: square"/>
   </g>
  </g>
  <g id="axes_3">
   <g id="patch_14">
    <path d="M 100.8 354.165517 
L 987.84 354.165517 
L 987.84 261.434483 
L 100.8 261.434483 
z
" style="fill: #eeeeee"/>
   </g>
   <g id="matplotlib.axis_5">
    <g id="xtick_13">
     <g id="line2d_35">
      <path d="M 141.12 354.165517 
L 141.12 261.434483 
" clip-path="url(#p2cda0f54d6)" style="fill: none; stroke-dasharray: 1.85,0.8; stroke-dashoffset: 0; stroke: #b2b2b2; stroke-width: 0.5"/>
     </g>
     <g id="line2d_36">
      <g>
       <use xlink:href="#m2f5ed1a584" x="141.12" y="354.165517" style="stroke: #000000; stroke-width: 0.8"/>
      </g>
     </g>
    </g>
    <g id="xtick_14">
     <g id="line2d_37">
      <path d="M 302.4 354.165517 
L 302.4 261.434483 
" clip-path="url(#p2cda0f54d6)" style="fill: none; stroke-dasharray: 1.85,0.8; stroke-dashoffset: 0; stroke: #b2b2b2; stroke-width: 0.5"/>
     </g>
     <g id="line2d_38">
      <g>
       <use xlink:href="#m2f5ed1a584" x="302.4" y="354.165517" style="stroke: #000000; stroke-width: 0.8"/>
      </g>
     </g>
    </g>
    <g id="xtick_15">
     <g id="line2d_39">
      <path d="M 463.68 354.165517 
L 463.68 261.434483 
" clip-path="url(#p2cda0f54d6)" style="fill: none; stroke-dasharray: 1.85,0.8; stroke-dashoffset: 0; stroke: #b2b2b2; stroke-width: 0.5"/>
     </g>
     <g id="line2d_40">
      <g>
       <use xlink:href="#m2f5ed1a584" x="463.68" y="354.165517" style="stroke: #000000; stroke-width: 0.8"/>
      </g>
     </g>
    </g>
    <g id="xtick_16">
     <g id="line2d_41">
      <path d="M 624.96 354.165517 
L 624.96 261.434483 
" clip-path="url(#p2cda0f54d6)" style="fill: none; stroke-dasharray: 1.85,0.8; stroke-dashoffset: 0; stroke: #b2b2b2; stroke-width: 0.5"/>
     </g>
     <g id="line2d_42">
      <g>
       <use xlink:href="#m2f5ed1a584" x="624.96" y="354.165517" style="stroke: #000000; stroke-width: 0.8"/>
      </g>
     </g>
    </g>
    <g id="xtick_17">
     <g id="line2d_43">
      <path d="M 786.24 354.165517 
L 786.24 261.434483 
" clip-path="url(#p2cda0f54d6)" style="fill: none; stroke-dasharray: 1.85,0.8; stroke-dashoffset: 0; stroke: #b2b2b2; stroke-width: 0.5"/>
     </g>
     <g id="line2d_44">
      <g>
       <use xlink:href="#m2f5ed1a584" x="786.24" y="354.165517" style="stroke: #000000; stroke-width: 0.8"/>
      </g>
     </g>
    </g>
    <g id="xtick_18">
     <g id="line2d_45">
      <path d="M 947.52 354.165517 
L 947.52 261.434483 
" clip-path="url(#p2cda0f54d6)" style="fill: none; stroke-dasharray: 1.85,0.8; stroke-dashoffset: 0; stroke: #b2b2b2; stroke-width: 0.5"/>
     </g>
     <g id="line2d_46">
      <g>
       <use xlink:href="#m2f5ed1a584" x="947.52" y="354.165517" style="stroke: #000000; stroke-width: 0.8"/>
      </g>
     </g>
    </g>
   </g>
   <g id="matplotlib.axis_6">
    <g id="ytick_5">
     <g id="line2d_47">
      <path d="M 100.8 343.863182 
L 987.84 343.863182 
" clip-path="url(#p2cda0f54d6)" style="fill: none; stroke-dasharray: 1.85,0.8; stroke-dashoffset: 0; stroke: #b2b2b2; stroke-width: 0.5"/>
     </g>
     <g id="line2d_48">
      <g>
       <use xlink:href="#mc27811ad4d" x="100.8" y="343.863182" style="stroke: #000000; stroke-width: 0.8"/>
      </g>
     </g>
     <g id="text_7">
      <!-- 0 V -->
      <g transform="translate(74.36625 349.182088) scale(0.14 -0.14)">
       <use xlink:href="#DejaVuSans-30"/>
       <use xlink:href="#DejaVuSans-20" x="63.623047"/>
       <use xlink:href="#DejaVuSans-56" x="95.410156"/>
      </g>
     </g>
    </g>
    <g id="ytick_6">
     <g id="line2d_49">
      <path d="M 100.8 295.814495 
L 987.84 295.814495 
" clip-path="url(#p2cda0f54d6)" style="fill: none; stroke-dasharray: 1.85,0.8; stroke-dashoffset: 0; stroke: #b2b2b2; stroke-width: 0.5"/>
     </g>
     <g id="line2d_50">
      <g>
       <use xlink:href="#mc27811ad4d" x="100.8" y="295.814495" style="stroke: #000000; stroke-width: 0.8"/>
      </g>
     </g>
     <g id="text_8">
      <!-- 1 V -->
      <g transform="translate(74.36625 301.133402) scale(0.14 -0.14)">
       <use xlink:href="#DejaVuSans-31"/>
       <use xlink:href="#DejaVuSans-20" x="63.623047"/>
       <use xlink:href="#DejaVuSans-56" x="95.410156"/>
      </g>
     </g>
    </g>
    <g id="text_9">
     <g id="patch_15">
      <path d="M 34.8768 342.395313 
L 34.8768 273.204688 
L 11.247425 273.204688 
L 11.247425 342.395313 
z
" style="fill: #ffff00; opacity: 0.2; stroke: #eeeeee; stroke-width: 0.5; stroke-linejoin: miter"/>
     </g>
     <!-- CLK BUF -->
     <g transform="translate(26.925238 337.355313) rotate(-90) scale(0.14 -0.14)">
      <defs>
       <path id="DejaVuSans-43" d="M 4122 4306 
L 4122 3641 
Q 3803 3938 3442 4084 
Q 3081 4231 2675 4231 
Q 1875 4231 1450 3742 
Q 1025 3253 1025 2328 
Q 1025 1406 1450 917 
Q 1875 428 2675 428 
Q 3081 428 3442 575 
Q 3803 722 4122 1019 
L 4122 359 
Q 3791 134 3420 21 
Q 3050 -91 2638 -91 
Q 1578 -91 968 557 
Q 359 1206 359 2328 
Q 359 3453 968 4101 
Q 1578 4750 2638 4750 
Q 3056 4750 3426 4639 
Q 3797 4528 4122 4306 
z
" transform="scale(0.015625)"/>
       <path id="DejaVuSans-4b" d="M 628 4666 
L 1259 4666 
L 1259 2694 
L 3353 4666 
L 4166 4666 
L 1850 2491 
L 4331 0 
L 3500 0 
L 1259 2247 
L 1259 0 
L 628 0 
L 628 4666 
z
" transform="scale(0.015625)"/>
      </defs>
      <use xlink:href="#DejaVuSans-43"/>
      <use xlink:href="#DejaVuSans-4c" x="69.824219"/>
      <use xlink:href="#DejaVuSans-4b" x="125.537109"/>
      <use xlink:href="#DejaVuSans-20" x="191.113281"/>
      <use xlink:href="#DejaVuSans-42" x="222.900391"/>
      <use xlink:href="#DejaVuSans-55" x="291.503906"/>
      <use xlink:href="#DejaVuSans-46" x="364.697266"/>
     </g>
    </g>
   </g>
   <g id="line2d_51">
    <path d="M 141.12 343.861912 
L 173.376 343.861912 
L 173.601792 286.204758 
L 212.147712 286.281636 
L 213.696 288.732119 
L 213.728256 291.788015 
L 213.85728 345.135848 
L 213.954048 345.291285 
L 213.986304 345.243573 
L 214.17984 345.323189 
L 215.373312 345.508657 
L 217.24416 345.55464 
L 222.114816 345.407419 
L 230.114304 345.226035 
L 231.630336 345.75164 
L 236.081664 348.754538 
L 237.984768 349.900019 
L 238.952448 349.370523 
L 241.984512 348.135191 
L 247.24224 346.272439 
L 250.435584 345.290228 
L 253.241856 344.585834 
L 254.016 344.411946 
L 254.048256 345.875701 
L 254.209536 318.292632 
L 254.370816 317.991847 
L 257.531904 316.666664 
L 257.951232 316.386541 
L 258.273792 316.200112 
L 260.4672 314.69811 
L 270.78912 307.605643 
L 273.143808 306.229048 
L 276.691968 304.155267 
L 278.078976 301.23679 
L 280.369152 295.675154 
L 283.497984 288.049828 
L 286.272 281.721816 
L 292.271616 269.450181 
L 292.755456 268.55167 
L 293.465088 267.230332 
L 294.336 265.64953 
L 294.49728 342.352579 
L 294.529536 342.306164 
L 296.7552 342.274741 
L 298.948608 342.264266 
L 302.496768 342.540113 
L 303.109632 343.210729 
L 303.819264 343.671386 
L 304.722432 343.99091 
L 305.980416 344.19184 
L 308.173824 344.289653 
L 315.012096 344.283579 
L 323.011584 344.369471 
L 325.817856 344.413772 
L 334.656 344.312668 
L 334.81728 267.451356 
L 334.881792 267.489794 
L 337.365504 268.719841 
L 338.623488 269.344474 
L 339.075072 269.522254 
L 348.074496 273.428612 
L 348.332544 273.539124 
L 350.074368 274.197391 
L 350.364672 274.307903 
L 351.461376 274.677878 
L 351.719424 274.78839 
L 352.687104 275.110316 
L 352.977408 275.216023 
L 353.396736 275.35056 
L 353.751552 275.456267 
L 354.17088 275.590803 
L 354.525696 275.69651 
L 355.041792 275.879095 
L 355.396608 275.984802 
L 355.815936 276.119339 
L 356.170752 276.225046 
L 356.59008 276.359582 
L 356.944896 276.465289 
L 357.299712 276.551777 
L 362.686464 278.041286 
L 363.138048 278.146993 
L 363.492864 278.233481 
L 365.976576 278.858114 
L 366.524928 278.963821 
L 366.879744 279.050309 
L 368.395776 279.386649 
L 368.944128 279.492356 
L 369.298944 279.578844 
L 369.81504 279.684551 
L 370.363392 279.814283 
L 373.298688 280.357233 
L 373.750272 280.44372 
L 374.363136 280.549428 
L 374.81472 280.635915 
L 374.976 280.65994 
L 375.008256 288.405388 
L 375.072768 344.616249 
L 375.13728 343.970326 
L 375.169536 343.97232 
L 375.201792 344.091663 
L 375.266304 344.015578 
L 375.717888 344.010644 
L 404.845056 343.921364 
L 415.296 343.904571 
L 415.45728 284.345274 
L 415.521792 284.628761 
L 415.554048 284.772907 
L 415.61856 284.6672 
L 416.715264 284.720054 
L 417.166848 284.763297 
L 420.1344 284.873809 
L 420.45696 284.907443 
L 423.714816 285.017955 
L 424.037376 285.051589 
L 427.779072 285.162101 
L 428.101632 285.195736 
L 432.520704 285.306248 
L 432.843264 285.339882 
L 438.03648 285.450394 
L 438.35904 285.484028 
L 444.81024 285.59454 
L 445.1328 285.628174 
L 455.616 285.724271 
L 455.648256 290.260067 
L 455.712768 343.992481 
L 455.77728 343.70404 
L 455.874048 344.03448 
L 455.93856 343.884013 
L 456.712704 343.881283 
L 462.357504 343.875653 
L 495.936 343.875713 
L 496.09728 285.628174 
L 496.161792 285.743491 
L 497.032704 285.724271 
L 536.256 285.724271 
L 536.514048 344.791435 
L 536.546304 344.183619 
L 536.675328 343.822859 
L 539.191296 343.876499 
L 576.576 343.875669 
L 576.73728 285.628174 
L 576.801792 285.743491 
L 577.672704 285.724271 
L 616.896 285.724271 
L 617.025024 344.230048 
L 617.186304 343.950693 
L 617.444352 343.843574 
L 617.799168 343.895849 
L 618.089472 343.875524 
L 652.248576 343.875668 
L 657.216 343.875672 
L 657.37728 285.474418 
L 657.441792 286.017368 
L 657.53856 285.527271 
L 657.603072 285.705052 
L 658.054656 285.724271 
L 697.536 285.724271 
L 697.665024 344.230279 
L 697.826304 343.950631 
L 698.084352 343.843589 
L 698.439168 343.89586 
L 698.729472 343.875526 
L 732.727296 343.875667 
L 737.856 343.875672 
L 738.01728 285.474418 
L 738.081792 286.017368 
L 738.17856 285.522467 
L 738.243072 285.705052 
L 738.694656 285.724271 
L 778.176 285.724271 
L 778.305024 344.230082 
L 778.466304 343.950684 
L 778.724352 343.843578 
L 779.079168 343.895847 
L 779.369472 343.875525 
L 813.367296 343.875667 
L 818.496 343.875672 
L 818.65728 285.474418 
L 818.721792 286.017368 
L 818.81856 285.522467 
L 818.883072 285.705052 
L 819.334656 285.724271 
L 858.816 285.724271 
L 859.106304 343.983121 
L 859.267584 343.872733 
L 860.493312 343.874318 
L 868.428288 343.877812 
L 894.362112 343.875708 
L 899.136 343.875717 
L 899.29728 285.628174 
L 899.361792 285.743491 
L 900.232704 285.724271 
L 939.456 285.724271 
L 939.488256 294.387449 
L 939.61728 343.818516 
L 939.649536 343.958237 
L 939.714048 343.82457 
L 939.746304 343.782412 
L 939.810816 343.844423 
L 939.972096 343.939791 
L 940.004352 343.904425 
L 940.197888 343.874876 
L 945.068544 343.875681 
L 947.52 343.87566 
L 947.52 343.87566 
" clip-path="url(#p2cda0f54d6)" style="fill: none; stroke: #0000ff; stroke-width: 2; stroke-linecap: square"/>
   </g>
   <g id="patch_16">
    <path d="M 100.8 354.165517 
L 100.8 261.434483 
" style="fill: none; stroke: #bcbcbc; stroke-width: 0.8; stroke-linejoin: miter; stroke-linecap: square"/>
   </g>
   <g id="patch_17">
    <path d="M 987.84 354.165517 
L 987.84 261.434483 
" style="fill: none; stroke: #bcbcbc; stroke-width: 0.8; stroke-linejoin: miter; stroke-linecap: square"/>
   </g>
   <g id="patch_18">
    <path d="M 100.8 354.165517 
L 987.84 354.165517 
" style="fill: none; stroke: #bcbcbc; stroke-width: 0.8; stroke-linejoin: miter; stroke-linecap: square"/>
   </g>
   <g id="patch_19">
    <path d="M 100.8 261.434483 
L 987.84 261.434483 
" style="fill: none; stroke: #bcbcbc; stroke-width: 0.8; stroke-linejoin: miter; stroke-linecap: square"/>
   </g>
  </g>
  <g id="axes_4">
   <g id="patch_20">
    <path d="M 100.8 465.442759 
L 987.84 465.442759 
L 987.84 372.711724 
L 100.8 372.711724 
z
" style="fill: #eeeeee"/>
   </g>
   <g id="matplotlib.axis_7">
    <g id="xtick_19">
     <g id="line2d_52">
      <path d="M 141.12 465.442759 
L 141.12 372.711724 
" clip-path="url(#p7524e70fe9)" style="fill: none; stroke-dasharray: 1.85,0.8; stroke-dashoffset: 0; stroke: #b2b2b2; stroke-width: 0.5"/>
     </g>
     <g id="line2d_53">
      <g>
       <use xlink:href="#m2f5ed1a584" x="141.12" y="465.442759" style="stroke: #000000; stroke-width: 0.8"/>
      </g>
     </g>
    </g>
    <g id="xtick_20">
     <g id="line2d_54">
      <path d="M 302.4 465.442759 
L 302.4 372.711724 
" clip-path="url(#p7524e70fe9)" style="fill: none; stroke-dasharray: 1.85,0.8; stroke-dashoffset: 0; stroke: #b2b2b2; stroke-width: 0.5"/>
     </g>
     <g id="line2d_55">
      <g>
       <use xlink:href="#m2f5ed1a584" x="302.4" y="465.442759" style="stroke: #000000; stroke-width: 0.8"/>
      </g>
     </g>
    </g>
    <g id="xtick_21">
     <g id="line2d_56">
      <path d="M 463.68 465.442759 
L 463.68 372.711724 
" clip-path="url(#p7524e70fe9)" style="fill: none; stroke-dasharray: 1.85,0.8; stroke-dashoffset: 0; stroke: #b2b2b2; stroke-width: 0.5"/>
     </g>
     <g id="line2d_57">
      <g>
       <use xlink:href="#m2f5ed1a584" x="463.68" y="465.442759" style="stroke: #000000; stroke-width: 0.8"/>
      </g>
     </g>
    </g>
    <g id="xtick_22">
     <g id="line2d_58">
      <path d="M 624.96 465.442759 
L 624.96 372.711724 
" clip-path="url(#p7524e70fe9)" style="fill: none; stroke-dasharray: 1.85,0.8; stroke-dashoffset: 0; stroke: #b2b2b2; stroke-width: 0.5"/>
     </g>
     <g id="line2d_59">
      <g>
       <use xlink:href="#m2f5ed1a584" x="624.96" y="465.442759" style="stroke: #000000; stroke-width: 0.8"/>
      </g>
     </g>
    </g>
    <g id="xtick_23">
     <g id="line2d_60">
      <path d="M 786.24 465.442759 
L 786.24 372.711724 
" clip-path="url(#p7524e70fe9)" style="fill: none; stroke-dasharray: 1.85,0.8; stroke-dashoffset: 0; stroke: #b2b2b2; stroke-width: 0.5"/>
     </g>
     <g id="line2d_61">
      <g>
       <use xlink:href="#m2f5ed1a584" x="786.24" y="465.442759" style="stroke: #000000; stroke-width: 0.8"/>
      </g>
     </g>
    </g>
    <g id="xtick_24">
     <g id="line2d_62">
      <path d="M 947.52 465.442759 
L 947.52 372.711724 
" clip-path="url(#p7524e70fe9)" style="fill: none; stroke-dasharray: 1.85,0.8; stroke-dashoffset: 0; stroke: #b2b2b2; stroke-width: 0.5"/>
     </g>
     <g id="line2d_63">
      <g>
       <use xlink:href="#m2f5ed1a584" x="947.52" y="465.442759" style="stroke: #000000; stroke-width: 0.8"/>
      </g>
     </g>
    </g>
   </g>
   <g id="matplotlib.axis_8">
    <g id="ytick_7">
     <g id="line2d_64">
      <path d="M 100.8 463.572189 
L 987.84 463.572189 
" clip-path="url(#p7524e70fe9)" style="fill: none; stroke-dasharray: 1.85,0.8; stroke-dashoffset: 0; stroke: #b2b2b2; stroke-width: 0.5"/>
     </g>
     <g id="line2d_65">
      <g>
       <use xlink:href="#mc27811ad4d" x="100.8" y="463.572189" style="stroke: #000000; stroke-width: 0.8"/>
      </g>
     </g>
     <g id="text_10">
      <!-- −1 V -->
      <g transform="translate(62.634688 468.891095) scale(0.14 -0.14)">
       <use xlink:href="#DejaVuSans-2212"/>
       <use xlink:href="#DejaVuSans-31" x="83.789062"/>
       <use xlink:href="#DejaVuSans-20" x="147.412109"/>
       <use xlink:href="#DejaVuSans-56" x="179.199219"/>
      </g>
     </g>
    </g>
    <g id="ytick_8">
     <g id="line2d_66">
      <path d="M 100.8 424.717742 
L 987.84 424.717742 
" clip-path="url(#p7524e70fe9)" style="fill: none; stroke-dasharray: 1.85,0.8; stroke-dashoffset: 0; stroke: #b2b2b2; stroke-width: 0.5"/>
     </g>
     <g id="line2d_67">
      <g>
       <use xlink:href="#mc27811ad4d" x="100.8" y="424.717742" style="stroke: #000000; stroke-width: 0.8"/>
      </g>
     </g>
     <g id="text_11">
      <!-- 0 V -->
      <g transform="translate(74.36625 430.036648) scale(0.14 -0.14)">
       <use xlink:href="#DejaVuSans-30"/>
       <use xlink:href="#DejaVuSans-20" x="63.623047"/>
       <use xlink:href="#DejaVuSans-56" x="95.410156"/>
      </g>
     </g>
    </g>
    <g id="ytick_9">
     <g id="line2d_68">
      <path d="M 100.8 385.863294 
L 987.84 385.863294 
" clip-path="url(#p7524e70fe9)" style="fill: none; stroke-dasharray: 1.85,0.8; stroke-dashoffset: 0; stroke: #b2b2b2; stroke-width: 0.5"/>
     </g>
     <g id="line2d_69">
      <g>
       <use xlink:href="#mc27811ad4d" x="100.8" y="385.863294" style="stroke: #000000; stroke-width: 0.8"/>
      </g>
     </g>
     <g id="text_12">
      <!-- 1 V -->
      <g transform="translate(74.36625 391.1822) scale(0.14 -0.14)">
       <use xlink:href="#DejaVuSans-31"/>
       <use xlink:href="#DejaVuSans-20" x="63.623047"/>
       <use xlink:href="#DejaVuSans-56" x="95.410156"/>
      </g>
     </g>
    </g>
    <g id="text_13">
     <g id="patch_21">
      <path d="M 34.8768 454.693023 
L 34.8768 383.46146 
L 11.247425 383.46146 
L 11.247425 454.693023 
z
" style="fill: #ffff00; opacity: 0.2; stroke: #eeeeee; stroke-width: 0.5; stroke-linejoin: miter"/>
     </g>
     <!-- DFF OUT -->
     <g transform="translate(26.925238 449.653023) rotate(-90) scale(0.14 -0.14)">
      <defs>
       <path id="DejaVuSans-4f" d="M 2522 4238 
Q 1834 4238 1429 3725 
Q 1025 3213 1025 2328 
Q 1025 1447 1429 934 
Q 1834 422 2522 422 
Q 3209 422 3611 934 
Q 4013 1447 4013 2328 
Q 4013 3213 3611 3725 
Q 3209 4238 2522 4238 
z
M 2522 4750 
Q 3503 4750 4090 4092 
Q 4678 3434 4678 2328 
Q 4678 1225 4090 567 
Q 3503 -91 2522 -91 
Q 1538 -91 948 565 
Q 359 1222 359 2328 
Q 359 3434 948 4092 
Q 1538 4750 2522 4750 
z
" transform="scale(0.015625)"/>
       <path id="DejaVuSans-54" d="M -19 4666 
L 3928 4666 
L 3928 4134 
L 2272 4134 
L 2272 0 
L 1638 0 
L 1638 4134 
L -19 4134 
L -19 4666 
z
" transform="scale(0.015625)"/>
      </defs>
      <use xlink:href="#DejaVuSans-44"/>
      <use xlink:href="#DejaVuSans-46" x="77.001953"/>
      <use xlink:href="#DejaVuSans-46" x="134.521484"/>
      <use xlink:href="#DejaVuSans-20" x="192.041016"/>
      <use xlink:href="#DejaVuSans-4f" x="223.828125"/>
      <use xlink:href="#DejaVuSans-55" x="302.539062"/>
      <use xlink:href="#DejaVuSans-54" x="375.732422"/>
     </g>
    </g>
   </g>
   <g id="line2d_70">
    <path d="M 141.12 395.400895 
L 173.408256 395.448298 
L 173.440512 397.056872 
L 173.601792 424.720113 
L 174.117888 424.7156 
L 184.601088 424.716711 
L 212.179968 424.823733 
L 212.825088 425.375975 
L 213.631488 425.753251 
L 214.695936 425.984202 
L 216.27648 426.082038 
L 219.82464 426.027564 
L 222.340608 425.849105 
L 223.276032 425.529761 
L 223.759872 425.024754 
L 224.082432 424.328731 
L 224.308224 423.252696 
L 224.534016 420.965917 
L 225.114624 412.270331 
L 225.372672 413.525718 
L 227.437056 421.500982 
L 227.469312 421.298589 
L 227.501568 421.033252 
L 227.533824 421.110689 
L 227.695104 422.483766 
L 227.791872 422.787841 
L 228.727296 426.396642 
L 228.759552 426.21729 
L 228.791808 426.635403 
L 228.85632 426.26477 
L 229.211136 428.134835 
L 229.598208 429.316165 
L 229.630464 429.020094 
L 229.66272 429.475857 
L 229.694976 429.10402 
L 230.727168 431.994402 
L 231.27552 432.684457 
L 231.404544 433.331384 
L 231.4368 433.138277 
L 231.469056 433.329053 
L 231.694848 433.986858 
L 233.920512 439.075237 
L 233.952768 438.893398 
L 234.01728 439.014624 
L 234.081792 439.160717 
L 234.17856 439.574517 
L 234.210816 439.46417 
L 234.6624 440.513629 
L 235.14624 441.396402 
L 235.275264 441.676931 
L 236.178432 443.68182 
L 236.210688 443.585461 
L 236.2752 443.722229 
L 237.855744 446.858171 
L 237.888 446.775023 
L 237.920256 446.814654 
L 237.952512 446.918396 
L 238.017024 446.774634 
L 238.04928 446.878376 
L 238.21056 446.581528 
L 238.242816 446.621159 
L 238.275072 446.539565 
L 238.468608 446.175887 
L 238.791168 445.676996 
L 238.952448 445.366938 
L 240.242688 443.112603 
L 240.95232 442.014187 
L 240.984576 442.185924 
L 241.016832 441.942695 
L 241.403904 441.465951 
L 241.43616 441.634579 
L 241.468416 441.594559 
L 241.59744 441.240595 
L 241.855488 441.11665 
L 242.016768 440.86565 
L 242.049024 440.899065 
L 242.113536 440.808922 
L 242.371584 440.524119 
L 242.661888 440.032222 
L 242.694144 440.151894 
L 242.7264 439.945188 
L 242.790912 439.929258 
L 242.823168 440.039993 
L 242.952192 439.670876 
L 242.984448 439.867091 
L 243.04896 439.600938 
L 243.37152 439.189858 
L 243.85536 438.698737 
L 243.887616 438.894175 
L 243.952128 438.625302 
L 243.984384 438.774892 
L 244.01664 438.596939 
L 244.274688 438.345162 
L 244.98432 437.680362 
L 245.403648 437.053251 
L 245.435904 437.170592 
L 245.46816 436.971657 
L 245.500416 436.947956 
L 245.532672 461.227712 
L 245.597184 437.083947 
L 246.177792 436.241582 
L 246.210048 436.445956 
L 246.27456 436.160376 
L 246.306816 436.420701 
L 246.468096 435.974263 
L 246.661632 435.825839 
L 246.693888 436.037596 
L 246.7584 435.833999 
L 246.790656 435.889561 
L 246.91968 435.644778 
L 247.339008 435.434575 
L 248.145408 434.462437 
L 248.306688 434.082829 
L 248.338944 434.303134 
L 248.3712 433.989578 
L 248.403456 434.06379 
L 248.500224 433.884671 
L 248.53248 434.207552 
L 248.564736 433.85553 
L 248.596992 434.00512 
L 248.822784 433.753343 
L 248.919552 433.828332 
L 248.984064 433.413755 
L 249.01632 433.728476 
L 249.048576 433.319728 
L 249.113088 433.635614 
L 249.242112 433.174023 
L 249.274368 433.178686 
L 249.306624 433.383837 
L 249.371136 433.210935 
L 249.403392 433.282427 
L 249.532416 433.010446 
L 249.564672 432.998401 
L 249.596928 433.170915 
L 249.66144 433.08427 
L 249.82272 432.915253 
L 250.177536 432.673967 
L 250.822656 432.016549 
L 250.95168 431.536697 
L 250.983936 431.582545 
L 251.016192 431.457045 
L 251.500032 430.958931 
L 251.532288 431.355247 
L 251.629056 431.273264 
L 251.75808 430.704823 
L 251.790336 430.708709 
L 251.822592 431.10347 
L 251.854848 430.632554 
L 251.887104 430.642268 
L 251.983872 430.569221 
L 252.016128 430.932122 
L 252.048384 430.474805 
L 252.112896 430.846254 
L 252.24192 430.367955 
L 252.274176 430.376503 
L 252.306432 430.597197 
L 252.338688 430.302291 
L 252.4032 430.520653 
L 252.467712 430.278979 
L 252.532224 430.323273 
L 253.112832 430.027202 
L 253.822464 429.37911 
L 254.016 429.186003 
L 254.145024 428.675456 
L 254.467584 428.283958 
L 254.49984 428.346397 
L 254.532096 428.43992 
L 254.628864 428.566702 
L 254.66112 428.030899 
L 254.725632 428.481766 
L 254.757888 428.117583 
L 254.790144 427.96574 
L 254.8224 428.352225 
L 254.886912 427.897395 
L 254.98368 427.820735 
L 255.015936 428.261423 
L 255.080448 427.746873 
L 255.112704 427.889391 
L 255.14496 427.615273 
L 255.177216 427.670524 
L 255.209472 428.078068 
L 255.241728 427.603889 
L 255.273984 427.610766 
L 255.30624 427.597944 
L 255.338496 427.954667 
L 255.403008 427.716955 
L 255.46752 427.781143 
L 255.532032 427.459622 
L 255.725568 427.459 
L 256.048128 427.340378 
L 257.273856 426.141407 
L 257.435136 425.754456 
L 257.499648 425.834613 
L 257.56416 425.293137 
L 257.596416 425.502951 
L 257.628672 425.149842 
L 257.660928 425.089652 
L 257.693184 425.347222 
L 257.72544 424.912643 
L 257.88672 425.228095 
L 257.951232 424.708343 
L 258.015744 424.773723 
L 258.241536 424.642566 
L 259.209216 422.976363 
L 259.33824 422.195932 
L 259.370496 422.159526 
L 259.402752 422.602894 
L 259.467264 422.214272 
L 259.564032 422.136252 
L 259.596288 422.171338 
L 259.6608 422.173125 
L 259.693056 422.117718 
L 260.660736 420.35905 
L 260.757504 419.527564 
L 260.78976 419.549711 
L 260.886528 419.477831 
L 260.918784 419.759137 
L 261.015552 419.660835 
L 261.2736 419.160778 
L 261.305856 419.164664 
L 261.563904 418.618759 
L 263.53152 415.247358 
L 264.305664 413.981481 
L 264.466944 413.370689 
L 264.628224 413.101039 
L 264.66048 413.312407 
L 264.692736 413.024107 
L 264.757248 412.912595 
L 264.789504 413.139505 
L 264.854016 413.083554 
L 264.950784 412.696953 
L 264.98304 412.790592 
L 265.015296 412.858199 
L 265.079808 412.740858 
L 266.015232 411.07983 
L 266.176512 410.264664 
L 266.208768 410.459325 
L 266.241024 410.117794 
L 266.27328 410.150821 
L 266.305536 410.044748 
L 266.853888 408.743513 
L 267.531264 407.198271 
L 267.88608 406.64343 
L 267.918336 405.930839 
L 268.015104 405.999223 
L 268.04736 406.211368 
L 268.111872 406.12006 
L 268.724736 405.14054 
L 269.49888 403.806666 
L 269.531136 403.205588 
L 269.627904 403.30117 
L 269.756928 403.330311 
L 269.885952 403.185384 
L 270.918144 401.529019 
L 270.9504 401.59274 
L 271.27296 402.273858 
L 271.337472 403.180333 
L 271.466496 411.065066 
L 271.660032 424.036196 
L 271.885824 424.128086 
L 274.046976 424.258715 
L 276.627456 424.276588 
L 277.337088 423.668943 
L 278.143488 423.305188 
L 279.17568 423.090712 
L 280.756224 423.00562 
L 284.239872 423.090828 
L 296.658432 423.443471 
L 298.948608 423.432398 
L 302.464512 423.623017 
L 303.141888 424.225145 
L 303.980544 424.636345 
L 305.14176 424.905595 
L 306.851328 425.043311 
L 310.818816 425.080712 
L 323.68896 425.155553 
L 328.04352 425.150347 
L 360.94464 424.904771 
L 375.008256 424.847756 
L 375.072768 424.774251 
L 375.105024 424.836216 
L 376.556544 424.833738 
L 402.264576 424.769193 
L 415.328256 424.761181 
L 415.360512 424.971609 
L 415.392768 424.610029 
L 415.554048 420.244818 
L 415.586304 420.405286 
L 415.683072 420.254143 
L 415.94112 419.338732 
L 416.134656 417.737151 
L 416.295936 414.21927 
L 416.489472 403.705256 
L 416.941056 376.934542 
L 417.87648 376.926771 
L 418.295808 376.965626 
L 421.327872 377.066647 
L 421.682688 377.086074 
L 425.101824 377.183211 
L 425.359872 377.198752 
L 429.359616 377.299774 
L 429.617664 377.315316 
L 434.294784 377.416337 
L 434.6496 377.431879 
L 440.197632 377.532901 
L 440.552448 377.552328 
L 447.487488 377.66112 
L 448.422912 377.665006 
L 495.968256 377.719402 
L 496.000512 377.851507 
L 496.065024 377.672777 
L 496.355328 377.696089 
L 576.608256 377.719402 
L 576.640512 377.851507 
L 576.705024 377.672777 
L 576.995328 377.696089 
L 657.248256 377.699975 
L 657.280512 377.898132 
L 657.345024 377.699975 
L 657.53856 377.680547 
L 658.635264 377.70386 
L 737.888256 377.699975 
L 737.920512 377.898132 
L 737.985024 377.699975 
L 738.17856 377.680547 
L 739.275264 377.70386 
L 818.528256 377.699975 
L 818.560512 377.898132 
L 818.625024 377.699975 
L 818.81856 377.680547 
L 819.915264 377.70386 
L 899.168256 377.719402 
L 899.200512 377.851507 
L 899.265024 377.672777 
L 899.555328 377.696089 
L 947.52 377.70386 
L 947.52 377.70386 
" clip-path="url(#p7524e70fe9)" style="fill: none; stroke: #ff00ff; stroke-width: 2; stroke-linecap: square"/>
   </g>
   <g id="patch_22">
    <path d="M 100.8 465.442759 
L 100.8 372.711724 
" style="fill: none; stroke: #bcbcbc; stroke-width: 0.8; stroke-linejoin: miter; stroke-linecap: square"/>
   </g>
   <g id="patch_23">
    <path d="M 987.84 465.442759 
L 987.84 372.711724 
" style="fill: none; stroke: #bcbcbc; stroke-width: 0.8; stroke-linejoin: miter; stroke-linecap: square"/>
   </g>
   <g id="patch_24">
    <path d="M 100.8 465.442759 
L 987.84 465.442759 
" style="fill: none; stroke: #bcbcbc; stroke-width: 0.8; stroke-linejoin: miter; stroke-linecap: square"/>
   </g>
   <g id="patch_25">
    <path d="M 100.8 372.711724 
L 987.84 372.711724 
" style="fill: none; stroke: #bcbcbc; stroke-width: 0.8; stroke-linejoin: miter; stroke-linecap: square"/>
   </g>
  </g>
  <g id="axes_5">
   <g id="patch_26">
    <path d="M 100.8 576.72 
L 987.84 576.72 
L 987.84 483.988966 
L 100.8 483.988966 
z
" style="fill: #eeeeee"/>
   </g>
   <g id="matplotlib.axis_9">
    <g id="xtick_25">
     <g id="line2d_71">
      <path d="M 141.12 576.72 
L 141.12 483.988966 
" clip-path="url(#pf7c5f3c97d)" style="fill: none; stroke-dasharray: 1.85,0.8; stroke-dashoffset: 0; stroke: #b2b2b2; stroke-width: 0.5"/>
     </g>
     <g id="line2d_72">
      <g>
       <use xlink:href="#m2f5ed1a584" x="141.12" y="576.72" style="stroke: #000000; stroke-width: 0.8"/>
      </g>
     </g>
     <g id="text_14">
      <!-- 0 s -->
      <g transform="translate(130.795 590.857813) scale(0.14 -0.14)">
       <defs>
        <path id="DejaVuSans-73" d="M 2834 3397 
L 2834 2853 
Q 2591 2978 2328 3040 
Q 2066 3103 1784 3103 
Q 1356 3103 1142 2972 
Q 928 2841 928 2578 
Q 928 2378 1081 2264 
Q 1234 2150 1697 2047 
L 1894 2003 
Q 2506 1872 2764 1633 
Q 3022 1394 3022 966 
Q 3022 478 2636 193 
Q 2250 -91 1575 -91 
Q 1294 -91 989 -36 
Q 684 19 347 128 
L 347 722 
Q 666 556 975 473 
Q 1284 391 1588 391 
Q 1994 391 2212 530 
Q 2431 669 2431 922 
Q 2431 1156 2273 1281 
Q 2116 1406 1581 1522 
L 1381 1569 
Q 847 1681 609 1914 
Q 372 2147 372 2553 
Q 372 3047 722 3315 
Q 1072 3584 1716 3584 
Q 2034 3584 2315 3537 
Q 2597 3491 2834 3397 
z
" transform="scale(0.015625)"/>
       </defs>
       <use xlink:href="#DejaVuSans-30"/>
       <use xlink:href="#DejaVuSans-20" x="63.623047"/>
       <use xlink:href="#DejaVuSans-73" x="95.410156"/>
      </g>
     </g>
    </g>
    <g id="xtick_26">
     <g id="line2d_73">
      <path d="M 302.4 576.72 
L 302.4 483.988966 
" clip-path="url(#pf7c5f3c97d)" style="fill: none; stroke-dasharray: 1.85,0.8; stroke-dashoffset: 0; stroke: #b2b2b2; stroke-width: 0.5"/>
     </g>
     <g id="line2d_74">
      <g>
       <use xlink:href="#m2f5ed1a584" x="302.4" y="576.72" style="stroke: #000000; stroke-width: 0.8"/>
      </g>
     </g>
     <g id="text_15">
      <!-- 50 ns -->
      <g transform="translate(283.185 590.857813) scale(0.14 -0.14)">
       <defs>
        <path id="DejaVuSans-35" d="M 691 4666 
L 3169 4666 
L 3169 4134 
L 1269 4134 
L 1269 2991 
Q 1406 3038 1543 3061 
Q 1681 3084 1819 3084 
Q 2600 3084 3056 2656 
Q 3513 2228 3513 1497 
Q 3513 744 3044 326 
Q 2575 -91 1722 -91 
Q 1428 -91 1123 -41 
Q 819 9 494 109 
L 494 744 
Q 775 591 1075 516 
Q 1375 441 1709 441 
Q 2250 441 2565 725 
Q 2881 1009 2881 1497 
Q 2881 1984 2565 2268 
Q 2250 2553 1709 2553 
Q 1456 2553 1204 2497 
Q 953 2441 691 2322 
L 691 4666 
z
" transform="scale(0.015625)"/>
        <path id="DejaVuSans-6e" d="M 3513 2113 
L 3513 0 
L 2938 0 
L 2938 2094 
Q 2938 2591 2744 2837 
Q 2550 3084 2163 3084 
Q 1697 3084 1428 2787 
Q 1159 2491 1159 1978 
L 1159 0 
L 581 0 
L 581 3500 
L 1159 3500 
L 1159 2956 
Q 1366 3272 1645 3428 
Q 1925 3584 2291 3584 
Q 2894 3584 3203 3211 
Q 3513 2838 3513 2113 
z
" transform="scale(0.015625)"/>
       </defs>
       <use xlink:href="#DejaVuSans-35"/>
       <use xlink:href="#DejaVuSans-30" x="63.623047"/>
       <use xlink:href="#DejaVuSans-20" x="127.246094"/>
       <use xlink:href="#DejaVuSans-6e" x="159.033203"/>
       <use xlink:href="#DejaVuSans-73" x="222.412109"/>
      </g>
     </g>
    </g>
    <g id="xtick_27">
     <g id="line2d_75">
      <path d="M 463.68 576.72 
L 463.68 483.988966 
" clip-path="url(#pf7c5f3c97d)" style="fill: none; stroke-dasharray: 1.85,0.8; stroke-dashoffset: 0; stroke: #b2b2b2; stroke-width: 0.5"/>
     </g>
     <g id="line2d_76">
      <g>
       <use xlink:href="#m2f5ed1a584" x="463.68" y="576.72" style="stroke: #000000; stroke-width: 0.8"/>
      </g>
     </g>
     <g id="text_16">
      <!-- 100 ns -->
      <g transform="translate(440.01125 590.857813) scale(0.14 -0.14)">
       <use xlink:href="#DejaVuSans-31"/>
       <use xlink:href="#DejaVuSans-30" x="63.623047"/>
       <use xlink:href="#DejaVuSans-30" x="127.246094"/>
       <use xlink:href="#DejaVuSans-20" x="190.869141"/>
       <use xlink:href="#DejaVuSans-6e" x="222.65625"/>
       <use xlink:href="#DejaVuSans-73" x="286.035156"/>
      </g>
     </g>
    </g>
    <g id="xtick_28">
     <g id="line2d_77">
      <path d="M 624.96 576.72 
L 624.96 483.988966 
" clip-path="url(#pf7c5f3c97d)" style="fill: none; stroke-dasharray: 1.85,0.8; stroke-dashoffset: 0; stroke: #b2b2b2; stroke-width: 0.5"/>
     </g>
     <g id="line2d_78">
      <g>
       <use xlink:href="#m2f5ed1a584" x="624.96" y="576.72" style="stroke: #000000; stroke-width: 0.8"/>
      </g>
     </g>
     <g id="text_17">
      <!-- 150 ns -->
      <g transform="translate(601.29125 590.857813) scale(0.14 -0.14)">
       <use xlink:href="#DejaVuSans-31"/>
       <use xlink:href="#DejaVuSans-35" x="63.623047"/>
       <use xlink:href="#DejaVuSans-30" x="127.246094"/>
       <use xlink:href="#DejaVuSans-20" x="190.869141"/>
       <use xlink:href="#DejaVuSans-6e" x="222.65625"/>
       <use xlink:href="#DejaVuSans-73" x="286.035156"/>
      </g>
     </g>
    </g>
    <g id="xtick_29">
     <g id="line2d_79">
      <path d="M 786.24 576.72 
L 786.24 483.988966 
" clip-path="url(#pf7c5f3c97d)" style="fill: none; stroke-dasharray: 1.85,0.8; stroke-dashoffset: 0; stroke: #b2b2b2; stroke-width: 0.5"/>
     </g>
     <g id="line2d_80">
      <g>
       <use xlink:href="#m2f5ed1a584" x="786.24" y="576.72" style="stroke: #000000; stroke-width: 0.8"/>
      </g>
     </g>
     <g id="text_18">
      <!-- 200 ns -->
      <g transform="translate(762.57125 590.857813) scale(0.14 -0.14)">
       <use xlink:href="#DejaVuSans-32"/>
       <use xlink:href="#DejaVuSans-30" x="63.623047"/>
       <use xlink:href="#DejaVuSans-30" x="127.246094"/>
       <use xlink:href="#DejaVuSans-20" x="190.869141"/>
       <use xlink:href="#DejaVuSans-6e" x="222.65625"/>
       <use xlink:href="#DejaVuSans-73" x="286.035156"/>
      </g>
     </g>
    </g>
    <g id="xtick_30">
     <g id="line2d_81">
      <path d="M 947.52 576.72 
L 947.52 483.988966 
" clip-path="url(#pf7c5f3c97d)" style="fill: none; stroke-dasharray: 1.85,0.8; stroke-dashoffset: 0; stroke: #b2b2b2; stroke-width: 0.5"/>
     </g>
     <g id="line2d_82">
      <g>
       <use xlink:href="#m2f5ed1a584" x="947.52" y="576.72" style="stroke: #000000; stroke-width: 0.8"/>
      </g>
     </g>
     <g id="text_19">
      <!-- 250 ns -->
      <g transform="translate(923.85125 590.857813) scale(0.14 -0.14)">
       <use xlink:href="#DejaVuSans-32"/>
       <use xlink:href="#DejaVuSans-35" x="63.623047"/>
       <use xlink:href="#DejaVuSans-30" x="127.246094"/>
       <use xlink:href="#DejaVuSans-20" x="190.869141"/>
       <use xlink:href="#DejaVuSans-6e" x="222.65625"/>
       <use xlink:href="#DejaVuSans-73" x="286.035156"/>
      </g>
     </g>
    </g>
    <g id="text_20">
     <!-- Time -->
     <g transform="translate(527.192969 608.407187) scale(0.14 -0.14)">
      <defs>
       <path id="DejaVuSans-69" d="M 603 3500 
L 1178 3500 
L 1178 0 
L 603 0 
L 603 3500 
z
M 603 4863 
L 1178 4863 
L 1178 4134 
L 603 4134 
L 603 4863 
z
" transform="scale(0.015625)"/>
       <path id="DejaVuSans-6d" d="M 3328 2828 
Q 3544 3216 3844 3400 
Q 4144 3584 4550 3584 
Q 5097 3584 5394 3201 
Q 5691 2819 5691 2113 
L 5691 0 
L 5113 0 
L 5113 2094 
Q 5113 2597 4934 2840 
Q 4756 3084 4391 3084 
Q 3944 3084 3684 2787 
Q 3425 2491 3425 1978 
L 3425 0 
L 2847 0 
L 2847 2094 
Q 2847 2600 2669 2842 
Q 2491 3084 2119 3084 
Q 1678 3084 1418 2786 
Q 1159 2488 1159 1978 
L 1159 0 
L 581 0 
L 581 3500 
L 1159 3500 
L 1159 2956 
Q 1356 3278 1631 3431 
Q 1906 3584 2284 3584 
Q 2666 3584 2933 3390 
Q 3200 3197 3328 2828 
z
" transform="scale(0.015625)"/>
       <path id="DejaVuSans-65" d="M 3597 1894 
L 3597 1613 
L 953 1613 
Q 991 1019 1311 708 
Q 1631 397 2203 397 
Q 2534 397 2845 478 
Q 3156 559 3463 722 
L 3463 178 
Q 3153 47 2828 -22 
Q 2503 -91 2169 -91 
Q 1331 -91 842 396 
Q 353 884 353 1716 
Q 353 2575 817 3079 
Q 1281 3584 2069 3584 
Q 2775 3584 3186 3129 
Q 3597 2675 3597 1894 
z
M 3022 2063 
Q 3016 2534 2758 2815 
Q 2500 3097 2075 3097 
Q 1594 3097 1305 2825 
Q 1016 2553 972 2059 
L 3022 2063 
z
" transform="scale(0.015625)"/>
      </defs>
      <use xlink:href="#DejaVuSans-54"/>
      <use xlink:href="#DejaVuSans-69" x="57.958984"/>
      <use xlink:href="#DejaVuSans-6d" x="85.742188"/>
      <use xlink:href="#DejaVuSans-65" x="183.154297"/>
     </g>
    </g>
   </g>
   <g id="matplotlib.axis_10">
    <g id="ytick_10">
     <g id="line2d_83">
      <path d="M 100.8 569.737898 
L 987.84 569.737898 
" clip-path="url(#pf7c5f3c97d)" style="fill: none; stroke-dasharray: 1.85,0.8; stroke-dashoffset: 0; stroke: #b2b2b2; stroke-width: 0.5"/>
     </g>
     <g id="line2d_84">
      <g>
       <use xlink:href="#mc27811ad4d" x="100.8" y="569.737898" style="stroke: #000000; stroke-width: 0.8"/>
      </g>
     </g>
     <g id="text_21">
      <!-- 0 V -->
      <g transform="translate(74.36625 575.056805) scale(0.14 -0.14)">
       <use xlink:href="#DejaVuSans-30"/>
       <use xlink:href="#DejaVuSans-20" x="63.623047"/>
       <use xlink:href="#DejaVuSans-56" x="95.410156"/>
      </g>
     </g>
    </g>
    <g id="ytick_11">
     <g id="line2d_85">
      <path d="M 100.8 535.84453 
L 987.84 535.84453 
" clip-path="url(#pf7c5f3c97d)" style="fill: none; stroke-dasharray: 1.85,0.8; stroke-dashoffset: 0; stroke: #b2b2b2; stroke-width: 0.5"/>
     </g>
     <g id="line2d_86">
      <g>
       <use xlink:href="#mc27811ad4d" x="100.8" y="535.84453" style="stroke: #000000; stroke-width: 0.8"/>
      </g>
     </g>
     <g id="text_22">
      <!-- 500 mV -->
      <g transform="translate(42.914375 541.163437) scale(0.14 -0.14)">
       <use xlink:href="#DejaVuSans-35"/>
       <use xlink:href="#DejaVuSans-30" x="63.623047"/>
       <use xlink:href="#DejaVuSans-30" x="127.246094"/>
       <use xlink:href="#DejaVuSans-20" x="190.869141"/>
       <use xlink:href="#DejaVuSans-6d" x="222.65625"/>
       <use xlink:href="#DejaVuSans-56" x="320.068359"/>
      </g>
     </g>
    </g>
    <g id="ytick_12">
     <g id="line2d_87">
      <path d="M 100.8 501.951163 
L 987.84 501.951163 
" clip-path="url(#pf7c5f3c97d)" style="fill: none; stroke-dasharray: 1.85,0.8; stroke-dashoffset: 0; stroke: #b2b2b2; stroke-width: 0.5"/>
     </g>
     <g id="line2d_88">
      <g>
       <use xlink:href="#mc27811ad4d" x="100.8" y="501.951163" style="stroke: #000000; stroke-width: 0.8"/>
      </g>
     </g>
     <g id="text_23">
      <!-- 1 V -->
      <g transform="translate(74.36625 507.270069) scale(0.14 -0.14)">
       <use xlink:href="#DejaVuSans-31"/>
       <use xlink:href="#DejaVuSans-20" x="63.623047"/>
       <use xlink:href="#DejaVuSans-56" x="95.410156"/>
      </g>
     </g>
    </g>
    <g id="text_24">
     <g id="patch_27">
      <path d="M 34.8768 554.329483 
L 34.8768 506.379483 
L 11.247425 506.379483 
L 11.247425 554.329483 
z
" style="fill: #ffff00; opacity: 0.2; stroke: #eeeeee; stroke-width: 0.5; stroke-linejoin: miter"/>
     </g>
     <!-- FOUT -->
     <g transform="translate(26.925238 549.289483) rotate(-90) scale(0.14 -0.14)">
      <use xlink:href="#DejaVuSans-46"/>
      <use xlink:href="#DejaVuSans-4f" x="57.519531"/>
      <use xlink:href="#DejaVuSans-55" x="136.230469"/>
      <use xlink:href="#DejaVuSans-54" x="209.423828"/>
     </g>
    </g>
   </g>
   <g id="line2d_89">
    <path d="M 141.12 488.393815 
L 173.472768 488.400594 
L 173.505024 488.204013 
L 173.569536 526.657394 
L 173.69856 572.504953 
L 173.730816 572.369108 
L 173.827584 567.828617 
L 173.892096 569.351799 
L 174.053376 570.057126 
L 174.117888 569.939259 
L 174.408192 569.483332 
L 174.440448 569.532932 
L 174.66624 569.721921 
L 176.182272 569.732147 
L 180.085248 569.753796 
L 194.439168 569.73623 
L 270.047232 569.825899 
L 270.079488 568.797154 
L 270.176256 526.596386 
L 270.337536 488.617512 
L 270.498816 488.400594 
L 271.047168 488.393815 
L 271.401984 488.380258 
L 271.466496 524.993908 
L 271.563264 569.738471 
L 271.59552 569.727786 
L 272.047104 569.736209 
L 416.521728 569.730404 
L 416.553984 569.891632 
L 416.618496 552.839343 
L 416.779776 489.308936 
L 416.9088 488.400594 
L 947.52 488.393815 
L 947.52 488.393815 
" clip-path="url(#pf7c5f3c97d)" style="fill: none; stroke: #ff00ff; stroke-width: 2; stroke-linecap: square"/>
   </g>
   <g id="patch_28">
    <path d="M 100.8 576.72 
L 100.8 483.988966 
" style="fill: none; stroke: #bcbcbc; stroke-width: 0.8; stroke-linejoin: miter; stroke-linecap: square"/>
   </g>
   <g id="patch_29">
    <path d="M 987.84 576.72 
L 987.84 483.988966 
" style="fill: none; stroke: #bcbcbc; stroke-width: 0.8; stroke-linejoin: miter; stroke-linecap: square"/>
   </g>
   <g id="patch_30">
    <path d="M 100.8 576.72 
L 987.84 576.72 
" style="fill: none; stroke: #bcbcbc; stroke-width: 0.8; stroke-linejoin: miter; stroke-linecap: square"/>
   </g>
   <g id="patch_31">
    <path d="M 100.8 483.988966 
L 987.84 483.988966 
" style="fill: none; stroke: #bcbcbc; stroke-width: 0.8; stroke-linejoin: miter; stroke-linecap: square"/>
   </g>
  </g>
  <g id="axes_6">
   <g id="patch_32">
    <path d="M 201.6 628.56 
L 856.8 628.56 
L 856.8 615.6 
L 201.6 615.6 
z
" clip-path="url(#p1989a131a2)" style="fill: #d3d3d3"/>
   </g>
   <g id="patch_33">
    <path d="M 201.6 628.56 
L 229.68 628.56 
L 229.68 615.6 
L 201.6 615.6 
z
" clip-path="url(#p1989a131a2)" style="fill: #0000ff"/>
   </g>
   <g id="line2d_90">
    <path d="M 201.6 635.04 
L 201.6 609.12 
" clip-path="url(#p2b0732283d)" style="fill: none; stroke: #ff0000; stroke-linecap: square"/>
   </g>
   <g id="line2d_91">
    <defs>
     <path id="mc47269f82d" d="M 0 5 
C 1.326016 5 2.597899 4.473168 3.535534 3.535534 
C 4.473168 2.597899 5 1.326016 5 0 
C 5 -1.326016 4.473168 -2.597899 3.535534 -3.535534 
C 2.597899 -4.473168 1.326016 -5 0 -5 
C -1.326016 -5 -2.597899 -4.473168 -3.535534 -3.535534 
C -4.473168 -2.597899 -5 -1.326016 -5 0 
C -5 1.326016 -4.473168 2.597899 -3.535534 3.535534 
C -2.597899 4.473168 -1.326016 5 0 5 
z
" style="stroke: #bfbfbf"/>
    </defs>
    <g>
     <use xlink:href="#mc47269f82d" x="229.68" y="622.08" style="fill: #ffffff; stroke: #bfbfbf"/>
    </g>
   </g>
   <g id="text_25">
    <!-- #Sweep -->
    <g transform="translate(138.622875 625.39125) scale(0.12 -0.12)">
     <defs>
      <path id="DejaVuSans-23" d="M 3272 2816 
L 2363 2816 
L 2100 1772 
L 3016 1772 
L 3272 2816 
z
M 2803 4594 
L 2478 3297 
L 3391 3297 
L 3719 4594 
L 4219 4594 
L 3897 3297 
L 4872 3297 
L 4872 2816 
L 3775 2816 
L 3519 1772 
L 4513 1772 
L 4513 1294 
L 3397 1294 
L 3072 0 
L 2572 0 
L 2894 1294 
L 1978 1294 
L 1656 0 
L 1153 0 
L 1478 1294 
L 494 1294 
L 494 1772 
L 1594 1772 
L 1856 2816 
L 850 2816 
L 850 3297 
L 1978 3297 
L 2297 4594 
L 2803 4594 
z
" transform="scale(0.015625)"/>
      <path id="DejaVuSans-77" d="M 269 3500 
L 844 3500 
L 1563 769 
L 2278 3500 
L 2956 3500 
L 3675 769 
L 4391 3500 
L 4966 3500 
L 4050 0 
L 3372 0 
L 2619 2869 
L 1863 0 
L 1184 0 
L 269 3500 
z
" transform="scale(0.015625)"/>
      <path id="DejaVuSans-70" d="M 1159 525 
L 1159 -1331 
L 581 -1331 
L 581 3500 
L 1159 3500 
L 1159 2969 
Q 1341 3281 1617 3432 
Q 1894 3584 2278 3584 
Q 2916 3584 3314 3078 
Q 3713 2572 3713 1747 
Q 3713 922 3314 415 
Q 2916 -91 2278 -91 
Q 1894 -91 1617 61 
Q 1341 213 1159 525 
z
M 3116 1747 
Q 3116 2381 2855 2742 
Q 2594 3103 2138 3103 
Q 1681 3103 1420 2742 
Q 1159 2381 1159 1747 
Q 1159 1113 1420 752 
Q 1681 391 2138 391 
Q 2594 391 2855 752 
Q 3116 1113 3116 1747 
z
" transform="scale(0.015625)"/>
     </defs>
     <use xlink:href="#DejaVuSans-23"/>
     <use xlink:href="#DejaVuSans-53" x="83.789062"/>
     <use xlink:href="#DejaVuSans-77" x="147.265625"/>
     <use xlink:href="#DejaVuSans-65" x="229.052734"/>
     <use xlink:href="#DejaVuSans-65" x="290.576172"/>
     <use xlink:href="#DejaVuSans-70" x="352.099609"/>
    </g>
   </g>
   <g id="text_26">
    <!-- $\mathdefault{6}$ -->
    <g transform="translate(869.904 625.39125) scale(0.12 -0.12)">
     <defs>
      <path id="DejaVuSans-36" d="M 2113 2584 
Q 1688 2584 1439 2293 
Q 1191 2003 1191 1497 
Q 1191 994 1439 701 
Q 1688 409 2113 409 
Q 2538 409 2786 701 
Q 3034 994 3034 1497 
Q 3034 2003 2786 2293 
Q 2538 2584 2113 2584 
z
M 3366 4563 
L 3366 3988 
Q 3128 4100 2886 4159 
Q 2644 4219 2406 4219 
Q 1781 4219 1451 3797 
Q 1122 3375 1075 2522 
Q 1259 2794 1537 2939 
Q 1816 3084 2150 3084 
Q 2853 3084 3261 2657 
Q 3669 2231 3669 1497 
Q 3669 778 3244 343 
Q 2819 -91 2113 -91 
Q 1303 -91 875 529 
Q 447 1150 447 2328 
Q 447 3434 972 4092 
Q 1497 4750 2381 4750 
Q 2619 4750 2861 4703 
Q 3103 4656 3366 4563 
z
" transform="scale(0.015625)"/>
     </defs>
     <use xlink:href="#DejaVuSans-36" transform="translate(0 0.78125)"/>
    </g>
   </g>
  </g>
  <g id="text_27">
   <!-- DFF under BBI sweep analysis (Sweep = 16E-9) -->
   <g transform="translate(313.34625 25.1175) scale(0.16 -0.16)">
    <defs>
     <path id="DejaVuSans-75" d="M 544 1381 
L 544 3500 
L 1119 3500 
L 1119 1403 
Q 1119 906 1312 657 
Q 1506 409 1894 409 
Q 2359 409 2629 706 
Q 2900 1003 2900 1516 
L 2900 3500 
L 3475 3500 
L 3475 0 
L 2900 0 
L 2900 538 
Q 2691 219 2414 64 
Q 2138 -91 1772 -91 
Q 1169 -91 856 284 
Q 544 659 544 1381 
z
M 1991 3584 
L 1991 3584 
z
" transform="scale(0.015625)"/>
     <path id="DejaVuSans-64" d="M 2906 2969 
L 2906 4863 
L 3481 4863 
L 3481 0 
L 2906 0 
L 2906 525 
Q 2725 213 2448 61 
Q 2172 -91 1784 -91 
Q 1150 -91 751 415 
Q 353 922 353 1747 
Q 353 2572 751 3078 
Q 1150 3584 1784 3584 
Q 2172 3584 2448 3432 
Q 2725 3281 2906 2969 
z
M 947 1747 
Q 947 1113 1208 752 
Q 1469 391 1925 391 
Q 2381 391 2643 752 
Q 2906 1113 2906 1747 
Q 2906 2381 2643 2742 
Q 2381 3103 1925 3103 
Q 1469 3103 1208 2742 
Q 947 2381 947 1747 
z
" transform="scale(0.015625)"/>
     <path id="DejaVuSans-72" d="M 2631 2963 
Q 2534 3019 2420 3045 
Q 2306 3072 2169 3072 
Q 1681 3072 1420 2755 
Q 1159 2438 1159 1844 
L 1159 0 
L 581 0 
L 581 3500 
L 1159 3500 
L 1159 2956 
Q 1341 3275 1631 3429 
Q 1922 3584 2338 3584 
Q 2397 3584 2469 3576 
Q 2541 3569 2628 3553 
L 2631 2963 
z
" transform="scale(0.015625)"/>
     <path id="DejaVuSans-61" d="M 2194 1759 
Q 1497 1759 1228 1600 
Q 959 1441 959 1056 
Q 959 750 1161 570 
Q 1363 391 1709 391 
Q 2188 391 2477 730 
Q 2766 1069 2766 1631 
L 2766 1759 
L 2194 1759 
z
M 3341 1997 
L 3341 0 
L 2766 0 
L 2766 531 
Q 2569 213 2275 61 
Q 1981 -91 1556 -91 
Q 1019 -91 701 211 
Q 384 513 384 1019 
Q 384 1609 779 1909 
Q 1175 2209 1959 2209 
L 2766 2209 
L 2766 2266 
Q 2766 2663 2505 2880 
Q 2244 3097 1772 3097 
Q 1472 3097 1187 3025 
Q 903 2953 641 2809 
L 641 3341 
Q 956 3463 1253 3523 
Q 1550 3584 1831 3584 
Q 2591 3584 2966 3190 
Q 3341 2797 3341 1997 
z
" transform="scale(0.015625)"/>
     <path id="DejaVuSans-6c" d="M 603 4863 
L 1178 4863 
L 1178 0 
L 603 0 
L 603 4863 
z
" transform="scale(0.015625)"/>
     <path id="DejaVuSans-79" d="M 2059 -325 
Q 1816 -950 1584 -1140 
Q 1353 -1331 966 -1331 
L 506 -1331 
L 506 -850 
L 844 -850 
Q 1081 -850 1212 -737 
Q 1344 -625 1503 -206 
L 1606 56 
L 191 3500 
L 800 3500 
L 1894 763 
L 2988 3500 
L 3597 3500 
L 2059 -325 
z
" transform="scale(0.015625)"/>
     <path id="DejaVuSans-28" d="M 1984 4856 
Q 1566 4138 1362 3434 
Q 1159 2731 1159 2009 
Q 1159 1288 1364 580 
Q 1569 -128 1984 -844 
L 1484 -844 
Q 1016 -109 783 600 
Q 550 1309 550 2009 
Q 550 2706 781 3412 
Q 1013 4119 1484 4856 
L 1984 4856 
z
" transform="scale(0.015625)"/>
     <path id="DejaVuSans-3d" d="M 678 2906 
L 4684 2906 
L 4684 2381 
L 678 2381 
L 678 2906 
z
M 678 1631 
L 4684 1631 
L 4684 1100 
L 678 1100 
L 678 1631 
z
" transform="scale(0.015625)"/>
     <path id="DejaVuSans-2d" d="M 313 2009 
L 1997 2009 
L 1997 1497 
L 313 1497 
L 313 2009 
z
" transform="scale(0.015625)"/>
     <path id="DejaVuSans-39" d="M 703 97 
L 703 672 
Q 941 559 1184 500 
Q 1428 441 1663 441 
Q 2288 441 2617 861 
Q 2947 1281 2994 2138 
Q 2813 1869 2534 1725 
Q 2256 1581 1919 1581 
Q 1219 1581 811 2004 
Q 403 2428 403 3163 
Q 403 3881 828 4315 
Q 1253 4750 1959 4750 
Q 2769 4750 3195 4129 
Q 3622 3509 3622 2328 
Q 3622 1225 3098 567 
Q 2575 -91 1691 -91 
Q 1453 -91 1209 -44 
Q 966 3 703 97 
z
M 1959 2075 
Q 2384 2075 2632 2365 
Q 2881 2656 2881 3163 
Q 2881 3666 2632 3958 
Q 2384 4250 1959 4250 
Q 1534 4250 1286 3958 
Q 1038 3666 1038 3163 
Q 1038 2656 1286 2365 
Q 1534 2075 1959 2075 
z
" transform="scale(0.015625)"/>
     <path id="DejaVuSans-29" d="M 513 4856 
L 1013 4856 
Q 1481 4119 1714 3412 
Q 1947 2706 1947 2009 
Q 1947 1309 1714 600 
Q 1481 -109 1013 -844 
L 513 -844 
Q 928 -128 1133 580 
Q 1338 1288 1338 2009 
Q 1338 2731 1133 3434 
Q 928 4138 513 4856 
z
" transform="scale(0.015625)"/>
    </defs>
    <use xlink:href="#DejaVuSans-44"/>
    <use xlink:href="#DejaVuSans-46" x="77.001953"/>
    <use xlink:href="#DejaVuSans-46" x="134.521484"/>
    <use xlink:href="#DejaVuSans-20" x="192.041016"/>
    <use xlink:href="#DejaVuSans-75" x="223.828125"/>
    <use xlink:href="#DejaVuSans-6e" x="287.207031"/>
    <use xlink:href="#DejaVuSans-64" x="350.585938"/>
    <use xlink:href="#DejaVuSans-65" x="414.0625"/>
    <use xlink:href="#DejaVuSans-72" x="475.585938"/>
    <use xlink:href="#DejaVuSans-20" x="516.699219"/>
    <use xlink:href="#DejaVuSans-42" x="548.486328"/>
    <use xlink:href="#DejaVuSans-42" x="617.089844"/>
    <use xlink:href="#DejaVuSans-49" x="685.693359"/>
    <use xlink:href="#DejaVuSans-20" x="715.185547"/>
    <use xlink:href="#DejaVuSans-73" x="746.972656"/>
    <use xlink:href="#DejaVuSans-77" x="799.072266"/>
    <use xlink:href="#DejaVuSans-65" x="880.859375"/>
    <use xlink:href="#DejaVuSans-65" x="942.382812"/>
    <use xlink:href="#DejaVuSans-70" x="1003.90625"/>
    <use xlink:href="#DejaVuSans-20" x="1067.382812"/>
    <use xlink:href="#DejaVuSans-61" x="1099.169922"/>
    <use xlink:href="#DejaVuSans-6e" x="1160.449219"/>
    <use xlink:href="#DejaVuSans-61" x="1223.828125"/>
    <use xlink:href="#DejaVuSans-6c" x="1285.107422"/>
    <use xlink:href="#DejaVuSans-79" x="1312.890625"/>
    <use xlink:href="#DejaVuSans-73" x="1372.070312"/>
    <use xlink:href="#DejaVuSans-69" x="1424.169922"/>
    <use xlink:href="#DejaVuSans-73" x="1451.953125"/>
    <use xlink:href="#DejaVuSans-20" x="1504.052734"/>
    <use xlink:href="#DejaVuSans-28" x="1535.839844"/>
    <use xlink:href="#DejaVuSans-53" x="1574.853516"/>
    <use xlink:href="#DejaVuSans-77" x="1638.330078"/>
    <use xlink:href="#DejaVuSans-65" x="1720.117188"/>
    <use xlink:href="#DejaVuSans-65" x="1781.640625"/>
    <use xlink:href="#DejaVuSans-70" x="1843.164062"/>
    <use xlink:href="#DejaVuSans-20" x="1906.640625"/>
    <use xlink:href="#DejaVuSans-3d" x="1938.427734"/>
    <use xlink:href="#DejaVuSans-20" x="2022.216797"/>
    <use xlink:href="#DejaVuSans-31" x="2054.003906"/>
    <use xlink:href="#DejaVuSans-36" x="2117.626953"/>
    <use xlink:href="#DejaVuSans-45" x="2181.25"/>
    <use xlink:href="#DejaVuSans-2d" x="2244.433594"/>
    <use xlink:href="#DejaVuSans-39" x="2280.517578"/>
    <use xlink:href="#DejaVuSans-29" x="2344.140625"/>
   </g>
  </g>
 </g>
 <defs>
  <clipPath id="p042038e8a6">
   <rect x="100.8" y="38.88" width="887.04" height="92.731034"/>
  </clipPath>
  <clipPath id="pa685b252be">
   <rect x="100.8" y="150.157241" width="887.04" height="92.731034"/>
  </clipPath>
  <clipPath id="p2cda0f54d6">
   <rect x="100.8" y="261.434483" width="887.04" height="92.731034"/>
  </clipPath>
  <clipPath id="p7524e70fe9">
   <rect x="100.8" y="372.711724" width="887.04" height="92.731034"/>
  </clipPath>
  <clipPath id="pf7c5f3c97d">
   <rect x="100.8" y="483.988966" width="887.04" height="92.731034"/>
  </clipPath>
  <clipPath id="p1989a131a2">
   <rect x="201.6" y="609.12" width="655.2" height="25.92"/>
  </clipPath>
  <clipPath id="p2b0732283d">
   <path d="M 201.6 628.56 
L 856.8 628.56 
L 856.8 615.6 
L 201.6 615.6 
z
"/>
  </clipPath>
 </defs>
</svg>
