<?xml version="1.0" encoding="utf-8" standalone="no"?>
<!DOCTYPE svg PUBLIC "-//W3C//DTD SVG 1.1//EN"
  "http://www.w3.org/Graphics/SVG/1.1/DTD/svg11.dtd">
<svg xmlns:xlink="http://www.w3.org/1999/xlink" width="1008pt" height="648pt" viewBox="0 0 1008 648" xmlns="http://www.w3.org/2000/svg" version="1.1">
 <metadata>
  <rdf:RDF xmlns:dc="http://purl.org/dc/elements/1.1/" xmlns:cc="http://creativecommons.org/ns#" xmlns:rdf="http://www.w3.org/1999/02/22-rdf-syntax-ns#">
   <cc:Work>
    <dc:type rdf:resource="http://purl.org/dc/dcmitype/StillImage"/>
    <dc:date>2024-06-03T10:45:57.654965</dc:date>
    <dc:format>image/svg+xml</dc:format>
    <dc:creator>
     <cc:Agent>
      <dc:title>Matplotlib v3.9.0, https://matplotlib.org/</dc:title>
     </cc:Agent>
    </dc:creator>
   </cc:Work>
  </rdf:RDF>
 </metadata>
 <defs>
  <style type="text/css">*{stroke-linejoin: round; stroke-linecap: butt}</style>
 </defs>
 <g id="figure_1">
  <g id="patch_1">
   <path d="M 0 648 
L 1008 648 
L 1008 0 
L 0 0 
z
" style="fill: #ffffff"/>
  </g>
  <g id="axes_1">
   <g id="patch_2">
    <path d="M 100.8 131.611034 
L 987.84 131.611034 
L 987.84 38.88 
L 100.8 38.88 
z
" style="fill: #eeeeee"/>
   </g>
   <g id="matplotlib.axis_1">
    <g id="xtick_1">
     <g id="line2d_1">
      <path d="M 141.12 131.611034 
L 141.12 38.88 
" clip-path="url(#pa86049da0c)" style="fill: none; stroke-dasharray: 1.85,0.8; stroke-dashoffset: 0; stroke: #b2b2b2; stroke-width: 0.5"/>
     </g>
     <g id="line2d_2">
      <defs>
       <path id="m4572413475" d="M 0 0 
L 0 -3.5 
" style="stroke: #000000; stroke-width: 0.8"/>
      </defs>
      <g>
       <use xlink:href="#m4572413475" x="141.12" y="131.611034" style="stroke: #000000; stroke-width: 0.8"/>
      </g>
     </g>
    </g>
    <g id="xtick_2">
     <g id="line2d_3">
      <path d="M 302.4 131.611034 
L 302.4 38.88 
" clip-path="url(#pa86049da0c)" style="fill: none; stroke-dasharray: 1.85,0.8; stroke-dashoffset: 0; stroke: #b2b2b2; stroke-width: 0.5"/>
     </g>
     <g id="line2d_4">
      <g>
       <use xlink:href="#m4572413475" x="302.4" y="131.611034" style="stroke: #000000; stroke-width: 0.8"/>
      </g>
     </g>
    </g>
    <g id="xtick_3">
     <g id="line2d_5">
      <path d="M 463.68 131.611034 
L 463.68 38.88 
" clip-path="url(#pa86049da0c)" style="fill: none; stroke-dasharray: 1.85,0.8; stroke-dashoffset: 0; stroke: #b2b2b2; stroke-width: 0.5"/>
     </g>
     <g id="line2d_6">
      <g>
       <use xlink:href="#m4572413475" x="463.68" y="131.611034" style="stroke: #000000; stroke-width: 0.8"/>
      </g>
     </g>
    </g>
    <g id="xtick_4">
     <g id="line2d_7">
      <path d="M 624.96 131.611034 
L 624.96 38.88 
" clip-path="url(#pa86049da0c)" style="fill: none; stroke-dasharray: 1.85,0.8; stroke-dashoffset: 0; stroke: #b2b2b2; stroke-width: 0.5"/>
     </g>
     <g id="line2d_8">
      <g>
       <use xlink:href="#m4572413475" x="624.96" y="131.611034" style="stroke: #000000; stroke-width: 0.8"/>
      </g>
     </g>
    </g>
    <g id="xtick_5">
     <g id="line2d_9">
      <path d="M 786.24 131.611034 
L 786.24 38.88 
" clip-path="url(#pa86049da0c)" style="fill: none; stroke-dasharray: 1.85,0.8; stroke-dashoffset: 0; stroke: #b2b2b2; stroke-width: 0.5"/>
     </g>
     <g id="line2d_10">
      <g>
       <use xlink:href="#m4572413475" x="786.24" y="131.611034" style="stroke: #000000; stroke-width: 0.8"/>
      </g>
     </g>
    </g>
    <g id="xtick_6">
     <g id="line2d_11">
      <path d="M 947.52 131.611034 
L 947.52 38.88 
" clip-path="url(#pa86049da0c)" style="fill: none; stroke-dasharray: 1.85,0.8; stroke-dashoffset: 0; stroke: #b2b2b2; stroke-width: 0.5"/>
     </g>
     <g id="line2d_12">
      <g>
       <use xlink:href="#m4572413475" x="947.52" y="131.611034" style="stroke: #000000; stroke-width: 0.8"/>
      </g>
     </g>
    </g>
   </g>
   <g id="matplotlib.axis_2">
    <g id="ytick_1">
     <g id="line2d_13">
      <path d="M 100.8 98.340394 
L 987.84 98.340394 
" clip-path="url(#pa86049da0c)" style="fill: none; stroke-dasharray: 1.85,0.8; stroke-dashoffset: 0; stroke: #b2b2b2; stroke-width: 0.5"/>
     </g>
     <g id="line2d_14">
      <defs>
       <path id="m51c8285d61" d="M 0 0 
L 3.5 0 
" style="stroke: #000000; stroke-width: 0.8"/>
      </defs>
      <g>
       <use xlink:href="#m51c8285d61" x="100.8" y="98.340394" style="stroke: #000000; stroke-width: 0.8"/>
      </g>
     </g>
     <g id="text_1">
      <!-- −200 V -->
      <g transform="translate(44.819688 103.6593) scale(0.14 -0.14)">
       <defs>
        <path id="DejaVuSans-2212" d="M 678 2272 
L 4684 2272 
L 4684 1741 
L 678 1741 
L 678 2272 
z
" transform="scale(0.015625)"/>
        <path id="DejaVuSans-32" d="M 1228 531 
L 3431 531 
L 3431 0 
L 469 0 
L 469 531 
Q 828 903 1448 1529 
Q 2069 2156 2228 2338 
Q 2531 2678 2651 2914 
Q 2772 3150 2772 3378 
Q 2772 3750 2511 3984 
Q 2250 4219 1831 4219 
Q 1534 4219 1204 4116 
Q 875 4013 500 3803 
L 500 4441 
Q 881 4594 1212 4672 
Q 1544 4750 1819 4750 
Q 2544 4750 2975 4387 
Q 3406 4025 3406 3419 
Q 3406 3131 3298 2873 
Q 3191 2616 2906 2266 
Q 2828 2175 2409 1742 
Q 1991 1309 1228 531 
z
" transform="scale(0.015625)"/>
        <path id="DejaVuSans-30" d="M 2034 4250 
Q 1547 4250 1301 3770 
Q 1056 3291 1056 2328 
Q 1056 1369 1301 889 
Q 1547 409 2034 409 
Q 2525 409 2770 889 
Q 3016 1369 3016 2328 
Q 3016 3291 2770 3770 
Q 2525 4250 2034 4250 
z
M 2034 4750 
Q 2819 4750 3233 4129 
Q 3647 3509 3647 2328 
Q 3647 1150 3233 529 
Q 2819 -91 2034 -91 
Q 1250 -91 836 529 
Q 422 1150 422 2328 
Q 422 3509 836 4129 
Q 1250 4750 2034 4750 
z
" transform="scale(0.015625)"/>
        <path id="DejaVuSans-20" transform="scale(0.015625)"/>
        <path id="DejaVuSans-56" d="M 1831 0 
L 50 4666 
L 709 4666 
L 2188 738 
L 3669 4666 
L 4325 4666 
L 2547 0 
L 1831 0 
z
" transform="scale(0.015625)"/>
       </defs>
       <use xlink:href="#DejaVuSans-2212"/>
       <use xlink:href="#DejaVuSans-32" x="83.789062"/>
       <use xlink:href="#DejaVuSans-30" x="147.412109"/>
       <use xlink:href="#DejaVuSans-30" x="211.035156"/>
       <use xlink:href="#DejaVuSans-20" x="274.658203"/>
       <use xlink:href="#DejaVuSans-56" x="306.445312"/>
      </g>
     </g>
    </g>
    <g id="ytick_2">
     <g id="line2d_15">
      <path d="M 100.8 45.027377 
L 987.84 45.027377 
" clip-path="url(#pa86049da0c)" style="fill: none; stroke-dasharray: 1.85,0.8; stroke-dashoffset: 0; stroke: #b2b2b2; stroke-width: 0.5"/>
     </g>
     <g id="line2d_16">
      <g>
       <use xlink:href="#m51c8285d61" x="100.8" y="45.027377" style="stroke: #000000; stroke-width: 0.8"/>
      </g>
     </g>
     <g id="text_2">
      <!-- 0 V -->
      <g transform="translate(74.36625 50.346284) scale(0.14 -0.14)">
       <use xlink:href="#DejaVuSans-30"/>
       <use xlink:href="#DejaVuSans-20" x="63.623047"/>
       <use xlink:href="#DejaVuSans-56" x="95.410156"/>
      </g>
     </g>
    </g>
    <g id="text_3">
     <g id="patch_3">
      <path d="M 34.8768 131.080205 
L 34.8768 39.41083 
L 11.247425 39.41083 
L 11.247425 131.080205 
z
" style="fill: #ffff00; opacity: 0.2; stroke: #eeeeee; stroke-width: 0.5; stroke-linejoin: miter"/>
     </g>
     <!-- VPULSE BBI -->
     <g transform="translate(26.925238 126.040205) rotate(-90) scale(0.14 -0.14)">
      <defs>
       <path id="DejaVuSans-50" d="M 1259 4147 
L 1259 2394 
L 2053 2394 
Q 2494 2394 2734 2622 
Q 2975 2850 2975 3272 
Q 2975 3691 2734 3919 
Q 2494 4147 2053 4147 
L 1259 4147 
z
M 628 4666 
L 2053 4666 
Q 2838 4666 3239 4311 
Q 3641 3956 3641 3272 
Q 3641 2581 3239 2228 
Q 2838 1875 2053 1875 
L 1259 1875 
L 1259 0 
L 628 0 
L 628 4666 
z
" transform="scale(0.015625)"/>
       <path id="DejaVuSans-55" d="M 556 4666 
L 1191 4666 
L 1191 1831 
Q 1191 1081 1462 751 
Q 1734 422 2344 422 
Q 2950 422 3222 751 
Q 3494 1081 3494 1831 
L 3494 4666 
L 4128 4666 
L 4128 1753 
Q 4128 841 3676 375 
Q 3225 -91 2344 -91 
Q 1459 -91 1007 375 
Q 556 841 556 1753 
L 556 4666 
z
" transform="scale(0.015625)"/>
       <path id="DejaVuSans-4c" d="M 628 4666 
L 1259 4666 
L 1259 531 
L 3531 531 
L 3531 0 
L 628 0 
L 628 4666 
z
" transform="scale(0.015625)"/>
       <path id="DejaVuSans-53" d="M 3425 4513 
L 3425 3897 
Q 3066 4069 2747 4153 
Q 2428 4238 2131 4238 
Q 1616 4238 1336 4038 
Q 1056 3838 1056 3469 
Q 1056 3159 1242 3001 
Q 1428 2844 1947 2747 
L 2328 2669 
Q 3034 2534 3370 2195 
Q 3706 1856 3706 1288 
Q 3706 609 3251 259 
Q 2797 -91 1919 -91 
Q 1588 -91 1214 -16 
Q 841 59 441 206 
L 441 856 
Q 825 641 1194 531 
Q 1563 422 1919 422 
Q 2459 422 2753 634 
Q 3047 847 3047 1241 
Q 3047 1584 2836 1778 
Q 2625 1972 2144 2069 
L 1759 2144 
Q 1053 2284 737 2584 
Q 422 2884 422 3419 
Q 422 4038 858 4394 
Q 1294 4750 2059 4750 
Q 2388 4750 2728 4690 
Q 3069 4631 3425 4513 
z
" transform="scale(0.015625)"/>
       <path id="DejaVuSans-45" d="M 628 4666 
L 3578 4666 
L 3578 4134 
L 1259 4134 
L 1259 2753 
L 3481 2753 
L 3481 2222 
L 1259 2222 
L 1259 531 
L 3634 531 
L 3634 0 
L 628 0 
L 628 4666 
z
" transform="scale(0.015625)"/>
       <path id="DejaVuSans-42" d="M 1259 2228 
L 1259 519 
L 2272 519 
Q 2781 519 3026 730 
Q 3272 941 3272 1375 
Q 3272 1813 3026 2020 
Q 2781 2228 2272 2228 
L 1259 2228 
z
M 1259 4147 
L 1259 2741 
L 2194 2741 
Q 2656 2741 2882 2914 
Q 3109 3088 3109 3444 
Q 3109 3797 2882 3972 
Q 2656 4147 2194 4147 
L 1259 4147 
z
M 628 4666 
L 2241 4666 
Q 2963 4666 3353 4366 
Q 3744 4066 3744 3513 
Q 3744 3084 3544 2831 
Q 3344 2578 2956 2516 
Q 3422 2416 3680 2098 
Q 3938 1781 3938 1306 
Q 3938 681 3513 340 
Q 3088 0 2303 0 
L 628 0 
L 628 4666 
z
" transform="scale(0.015625)"/>
       <path id="DejaVuSans-49" d="M 628 4666 
L 1259 4666 
L 1259 0 
L 628 0 
L 628 4666 
z
" transform="scale(0.015625)"/>
      </defs>
      <use xlink:href="#DejaVuSans-56"/>
      <use xlink:href="#DejaVuSans-50" x="68.408203"/>
      <use xlink:href="#DejaVuSans-55" x="128.710938"/>
      <use xlink:href="#DejaVuSans-4c" x="201.904297"/>
      <use xlink:href="#DejaVuSans-53" x="257.617188"/>
      <use xlink:href="#DejaVuSans-45" x="321.09375"/>
      <use xlink:href="#DejaVuSans-20" x="384.277344"/>
      <use xlink:href="#DejaVuSans-42" x="416.064453"/>
      <use xlink:href="#DejaVuSans-42" x="484.667969"/>
      <use xlink:href="#DejaVuSans-49" x="553.271484"/>
     </g>
    </g>
   </g>
   <g id="line2d_17">
    <path d="M 141.12 45.027377 
L 608.864256 45.136282 
L 609.348096 46.425538 
L 617.573376 69.006506 
L 625.992192 92.707873 
L 630.959616 107.83011 
L 634.15296 118.0049 
L 634.765824 119.585631 
L 635.217408 119.80688 
L 636.281856 120.297359 
L 636.765696 120.526605 
L 637.830144 121.017085 
L 638.410752 121.272988 
L 639.281664 121.656841 
L 639.862272 121.912744 
L 640.700928 122.269941 
L 642.281472 122.936354 
L 642.926592 123.202919 
L 644.023296 123.629423 
L 644.765184 123.922644 
L 645.861888 124.349149 
L 646.765056 124.677024 
L 647.442432 124.943589 
L 648.248832 125.25547 
L 649.603584 125.804594 
L 652.248576 126.790885 
L 652.86144 127.022796 
L 654.7968 127.395987 
L 673.279488 127.289361 
L 673.50528 126.801547 
L 691.794432 75.087922 
L 695.536128 63.292417 
L 699.245568 51.617666 
L 703.858176 49.3412 
L 709.212672 46.984578 
L 717.921792 43.484472 
L 718.792704 43.268927 
L 733.082112 43.108189 
L 739.888128 43.184799 
L 755.241984 43.746186 
L 783.0144 44.46146 
L 808.65792 44.774399 
L 844.268544 44.945888 
L 892.297728 44.953885 
L 947.52 44.953885 
L 947.52 44.953885 
" clip-path="url(#pa86049da0c)" style="fill: none; stroke: #ff0000; stroke-width: 2; stroke-linecap: square"/>
   </g>
   <g id="patch_4">
    <path d="M 100.8 131.611034 
L 100.8 38.88 
" style="fill: none; stroke: #bcbcbc; stroke-width: 0.8; stroke-linejoin: miter; stroke-linecap: square"/>
   </g>
   <g id="patch_5">
    <path d="M 987.84 131.611034 
L 987.84 38.88 
" style="fill: none; stroke: #bcbcbc; stroke-width: 0.8; stroke-linejoin: miter; stroke-linecap: square"/>
   </g>
   <g id="patch_6">
    <path d="M 100.8 131.611034 
L 987.84 131.611034 
" style="fill: none; stroke: #bcbcbc; stroke-width: 0.8; stroke-linejoin: miter; stroke-linecap: square"/>
   </g>
   <g id="patch_7">
    <path d="M 100.8 38.88 
L 987.84 38.88 
" style="fill: none; stroke: #bcbcbc; stroke-width: 0.8; stroke-linejoin: miter; stroke-linecap: square"/>
   </g>
  </g>
  <g id="axes_2">
   <g id="patch_8">
    <path d="M 100.8 242.888276 
L 987.84 242.888276 
L 987.84 150.157241 
L 100.8 150.157241 
z
" style="fill: #eeeeee"/>
   </g>
   <g id="matplotlib.axis_3">
    <g id="xtick_7">
     <g id="line2d_18">
      <path d="M 141.12 242.888276 
L 141.12 150.157241 
" clip-path="url(#p922fc444be)" style="fill: none; stroke-dasharray: 1.85,0.8; stroke-dashoffset: 0; stroke: #b2b2b2; stroke-width: 0.5"/>
     </g>
     <g id="line2d_19">
      <g>
       <use xlink:href="#m4572413475" x="141.12" y="242.888276" style="stroke: #000000; stroke-width: 0.8"/>
      </g>
     </g>
    </g>
    <g id="xtick_8">
     <g id="line2d_20">
      <path d="M 302.4 242.888276 
L 302.4 150.157241 
" clip-path="url(#p922fc444be)" style="fill: none; stroke-dasharray: 1.85,0.8; stroke-dashoffset: 0; stroke: #b2b2b2; stroke-width: 0.5"/>
     </g>
     <g id="line2d_21">
      <g>
       <use xlink:href="#m4572413475" x="302.4" y="242.888276" style="stroke: #000000; stroke-width: 0.8"/>
      </g>
     </g>
    </g>
    <g id="xtick_9">
     <g id="line2d_22">
      <path d="M 463.68 242.888276 
L 463.68 150.157241 
" clip-path="url(#p922fc444be)" style="fill: none; stroke-dasharray: 1.85,0.8; stroke-dashoffset: 0; stroke: #b2b2b2; stroke-width: 0.5"/>
     </g>
     <g id="line2d_23">
      <g>
       <use xlink:href="#m4572413475" x="463.68" y="242.888276" style="stroke: #000000; stroke-width: 0.8"/>
      </g>
     </g>
    </g>
    <g id="xtick_10">
     <g id="line2d_24">
      <path d="M 624.96 242.888276 
L 624.96 150.157241 
" clip-path="url(#p922fc444be)" style="fill: none; stroke-dasharray: 1.85,0.8; stroke-dashoffset: 0; stroke: #b2b2b2; stroke-width: 0.5"/>
     </g>
     <g id="line2d_25">
      <g>
       <use xlink:href="#m4572413475" x="624.96" y="242.888276" style="stroke: #000000; stroke-width: 0.8"/>
      </g>
     </g>
    </g>
    <g id="xtick_11">
     <g id="line2d_26">
      <path d="M 786.24 242.888276 
L 786.24 150.157241 
" clip-path="url(#p922fc444be)" style="fill: none; stroke-dasharray: 1.85,0.8; stroke-dashoffset: 0; stroke: #b2b2b2; stroke-width: 0.5"/>
     </g>
     <g id="line2d_27">
      <g>
       <use xlink:href="#m4572413475" x="786.24" y="242.888276" style="stroke: #000000; stroke-width: 0.8"/>
      </g>
     </g>
    </g>
    <g id="xtick_12">
     <g id="line2d_28">
      <path d="M 947.52 242.888276 
L 947.52 150.157241 
" clip-path="url(#p922fc444be)" style="fill: none; stroke-dasharray: 1.85,0.8; stroke-dashoffset: 0; stroke: #b2b2b2; stroke-width: 0.5"/>
     </g>
     <g id="line2d_29">
      <g>
       <use xlink:href="#m4572413475" x="947.52" y="242.888276" style="stroke: #000000; stroke-width: 0.8"/>
      </g>
     </g>
    </g>
   </g>
   <g id="matplotlib.axis_4">
    <g id="ytick_3">
     <g id="line2d_30">
      <path d="M 100.8 218.972658 
L 987.84 218.972658 
" clip-path="url(#p922fc444be)" style="fill: none; stroke-dasharray: 1.85,0.8; stroke-dashoffset: 0; stroke: #b2b2b2; stroke-width: 0.5"/>
     </g>
     <g id="line2d_31">
      <g>
       <use xlink:href="#m51c8285d61" x="100.8" y="218.972658" style="stroke: #000000; stroke-width: 0.8"/>
      </g>
     </g>
     <g id="text_4">
      <!-- 0 V -->
      <g transform="translate(74.36625 224.291564) scale(0.14 -0.14)">
       <use xlink:href="#DejaVuSans-30"/>
       <use xlink:href="#DejaVuSans-20" x="63.623047"/>
       <use xlink:href="#DejaVuSans-56" x="95.410156"/>
      </g>
     </g>
    </g>
    <g id="ytick_4">
     <g id="line2d_32">
      <path d="M 100.8 184.625375 
L 987.84 184.625375 
" clip-path="url(#p922fc444be)" style="fill: none; stroke-dasharray: 1.85,0.8; stroke-dashoffset: 0; stroke: #b2b2b2; stroke-width: 0.5"/>
     </g>
     <g id="line2d_33">
      <g>
       <use xlink:href="#m51c8285d61" x="100.8" y="184.625375" style="stroke: #000000; stroke-width: 0.8"/>
      </g>
     </g>
     <g id="text_5">
      <!-- 1 V -->
      <g transform="translate(74.36625 189.944281) scale(0.14 -0.14)">
       <defs>
        <path id="DejaVuSans-31" d="M 794 531 
L 1825 531 
L 1825 4091 
L 703 3866 
L 703 4441 
L 1819 4666 
L 2450 4666 
L 2450 531 
L 3481 531 
L 3481 0 
L 794 0 
L 794 531 
z
" transform="scale(0.015625)"/>
       </defs>
       <use xlink:href="#DejaVuSans-31"/>
       <use xlink:href="#DejaVuSans-20" x="63.623047"/>
       <use xlink:href="#DejaVuSans-56" x="95.410156"/>
      </g>
     </g>
    </g>
    <g id="ytick_5">
     <g id="line2d_34">
      <path d="M 100.8 150.278092 
L 987.84 150.278092 
" clip-path="url(#p922fc444be)" style="fill: none; stroke-dasharray: 1.85,0.8; stroke-dashoffset: 0; stroke: #b2b2b2; stroke-width: 0.5"/>
     </g>
     <g id="line2d_35">
      <g>
       <use xlink:href="#m51c8285d61" x="100.8" y="150.278092" style="stroke: #000000; stroke-width: 0.8"/>
      </g>
     </g>
     <g id="text_6">
      <!-- 2 V -->
      <g transform="translate(74.36625 155.596999) scale(0.14 -0.14)">
       <use xlink:href="#DejaVuSans-32"/>
       <use xlink:href="#DejaVuSans-20" x="63.623047"/>
       <use xlink:href="#DejaVuSans-56" x="95.410156"/>
      </g>
     </g>
    </g>
    <g id="text_7">
     <g id="patch_9">
      <path d="M 34.8768 224.531509 
L 34.8768 168.514009 
L 11.247425 168.514009 
L 11.247425 224.531509 
z
" style="fill: #ffff00; opacity: 0.2; stroke: #eeeeee; stroke-width: 0.5; stroke-linejoin: miter"/>
     </g>
     <!-- DFF IN -->
     <g transform="translate(26.925238 219.491509) rotate(-90) scale(0.14 -0.14)">
      <defs>
       <path id="DejaVuSans-44" d="M 1259 4147 
L 1259 519 
L 2022 519 
Q 2988 519 3436 956 
Q 3884 1394 3884 2338 
Q 3884 3275 3436 3711 
Q 2988 4147 2022 4147 
L 1259 4147 
z
M 628 4666 
L 1925 4666 
Q 3281 4666 3915 4102 
Q 4550 3538 4550 2338 
Q 4550 1131 3912 565 
Q 3275 0 1925 0 
L 628 0 
L 628 4666 
z
" transform="scale(0.015625)"/>
       <path id="DejaVuSans-46" d="M 628 4666 
L 3309 4666 
L 3309 4134 
L 1259 4134 
L 1259 2759 
L 3109 2759 
L 3109 2228 
L 1259 2228 
L 1259 0 
L 628 0 
L 628 4666 
z
" transform="scale(0.015625)"/>
       <path id="DejaVuSans-4e" d="M 628 4666 
L 1478 4666 
L 3547 763 
L 3547 4666 
L 4159 4666 
L 4159 0 
L 3309 0 
L 1241 3903 
L 1241 0 
L 628 0 
L 628 4666 
z
" transform="scale(0.015625)"/>
      </defs>
      <use xlink:href="#DejaVuSans-44"/>
      <use xlink:href="#DejaVuSans-46" x="77.001953"/>
      <use xlink:href="#DejaVuSans-46" x="134.521484"/>
      <use xlink:href="#DejaVuSans-20" x="192.041016"/>
      <use xlink:href="#DejaVuSans-49" x="223.828125"/>
      <use xlink:href="#DejaVuSans-4e" x="253.320312"/>
     </g>
    </g>
   </g>
   <g id="line2d_36">
    <path d="M 141.12 218.922497 
L 221.953536 218.875397 
L 224.437248 199.737493 
L 225.404928 193.915628 
L 228.243456 181.115083 
L 229.598208 179.830494 
L 231.178752 178.947769 
L 236.533248 178.487516 
L 243.5328 178.377604 
L 244.952064 178.336388 
L 248.145408 178.226476 
L 249.790464 178.161216 
L 251.887104 178.051305 
L 254.241792 177.700963 
L 254.757888 177.158276 
L 255.499776 176.814803 
L 256.338432 176.828542 
L 259.789824 177.450228 
L 262.467072 177.625399 
L 263.886336 177.673485 
L 264.144384 182.969836 
L 264.434688 186.573553 
L 265.176576 191.374273 
L 267.144192 208.897226 
L 268.402176 215.476448 
L 269.047296 216.773607 
L 270.46656 218.555544 
L 273.724416 218.974512 
L 282.498048 218.926354 
L 296.980992 218.917135 
L 305.657856 218.921618 
L 347.751936 218.877111 
L 350.235648 199.778022 
L 351.622656 191.045913 
L 352.654848 185.696667 
L 354.97728 178.624905 
L 358.493184 177.615095 
L 360.202752 177.687224 
L 363.009024 177.797135 
L 364.33152 177.828048 
L 375.169536 177.900177 
L 375.717888 178.903118 
L 376.169472 179.662193 
L 377.008128 180.579265 
L 377.524224 180.527744 
L 378.427392 180.232358 
L 380.427264 179.081724 
L 381.58848 178.703904 
L 387.168768 178.219607 
L 389.587968 178.109696 
L 391.684608 177.996349 
L 394.232832 177.886438 
L 395.61984 177.848656 
L 415.360512 177.762788 
L 416.489472 176.821672 
L 417.037824 176.756413 
L 417.908736 176.866324 
L 419.134464 177.144537 
L 420.908544 177.409011 
L 423.940608 177.621964 
L 455.712768 177.728441 
L 456.809472 178.62834 
L 457.261056 178.700469 
L 458.68032 178.74512 
L 462.680064 178.209303 
L 464.131584 178.013523 
L 467.486208 177.766223 
L 496.065024 177.683789 
L 496.58112 177.137667 
L 497.258496 176.828542 
L 498.3552 176.814803 
L 502.06464 177.491444 
L 504.193536 177.608225 
L 536.320512 177.711267 
L 536.481792 177.889873 
L 536.965632 178.384474 
L 537.610752 178.669556 
L 539.32032 178.74512 
L 544.352256 178.099391 
L 545.545728 177.958567 
L 548.771328 177.725006 
L 576.73728 177.639138 
L 577.22112 177.137667 
L 577.898496 176.828542 
L 578.9952 176.814803 
L 582.70464 177.491444 
L 584.833536 177.608225 
L 608.767488 177.711267 
L 608.961024 177.886438 
L 611.73504 182.688188 
L 613.863936 185.663693 
L 618.057216 191.701259 
L 618.605568 193.156897 
L 619.831296 197.656391 
L 620.218368 199.027534 
L 620.573184 200.660404 
L 621.669888 205.510927 
L 622.669824 210.073964 
L 624.992256 218.56997 
L 625.12128 218.930545 
L 626.25024 222.822301 
L 626.540544 223.328237 
L 626.701824 223.610915 
L 627.185664 225.028771 
L 627.70176 225.886079 
L 627.86304 226.056098 
L 628.379136 227.123268 
L 628.992 228.511929 
L 629.346816 229.031603 
L 629.669376 229.826743 
L 630.12096 230.787093 
L 630.314496 231.096562 
L 630.572544 231.406374 
L 630.991872 232.31589 
L 631.443456 233.278301 
L 631.862784 233.910635 
L 632.572416 235.368333 
L 634.604544 238.628921 
L 634.765824 238.648842 
L 635.056128 238.489127 
L 635.378688 237.973231 
L 635.636736 237.702918 
L 635.959296 237.074363 
L 636.314112 236.3541 
L 636.668928 236.01784 
L 636.959232 235.716271 
L 637.507584 235.060238 
L 638.055936 234.13767 
L 638.217216 234.108131 
L 638.83008 233.599792 
L 640.023552 232.306273 
L 640.313856 231.87178 
L 640.346112 231.916431 
L 640.410624 231.828159 
L 640.700928 231.575019 
L 640.829952 231.56918 
L 641.862144 230.866778 
L 642.797568 229.897498 
L 643.313664 229.283712 
L 643.539456 229.18754 
L 645.700608 227.422089 
L 645.9264 227.127733 
L 646.474752 226.67641 
L 646.765056 226.529747 
L 647.21664 226.228521 
L 649.861632 224.119598 
L 651.474432 222.927747 
L 652.409856 221.987628 
L 652.732416 221.792295 
L 653.248512 221.464175 
L 654.345216 220.503757 
L 655.345152 219.249095 
L 656.474112 217.661313 
L 657.441792 216.23779 
L 658.312704 215.04745 
L 661.957632 210.49197 
L 663.086592 209.25169 
L 663.602688 207.887759 
L 664.441344 205.239927 
L 664.989696 203.667852 
L 666.118656 201.04475 
L 667.086336 199.499466 
L 667.795968 198.405505 
L 669.118464 196.657915 
L 669.892608 195.738095 
L 670.666752 194.903113 
L 673.537536 191.386981 
L 673.98912 189.746898 
L 675.214848 185.421889 
L 676.118016 183.162181 
L 677.085696 181.451686 
L 677.763072 180.689176 
L 679.537152 179.043942 
L 683.536896 173.31825 
L 685.472256 170.433078 
L 691.375104 162.4439 
L 692.310528 161.286396 
L 695.9232 156.474342 
L 697.600512 154.372288 
L 697.632768 154.423809 
L 698.600448 157.679932 
L 698.890752 157.89632 
L 699.503616 158.20201 
L 699.858432 158.26727 
L 700.11648 158.109273 
L 700.503552 157.597498 
L 701.632512 155.986611 
L 702.471168 155.320273 
L 703.50336 155.000844 
L 704.30976 154.976801 
L 705.212928 155.076408 
L 705.76128 155.193188 
L 708.0192 155.787396 
L 710.051328 156.323214 
L 713.631744 157.19907 
L 719.437824 159.167169 
L 721.276416 160.025851 
L 721.760256 160.23537 
L 722.502144 160.582277 
L 723.3408 160.956663 
L 724.050432 161.286396 
L 725.11488 161.736346 
L 726.340608 162.265294 
L 731.24352 164.233393 
L 734.598144 165.41494 
L 735.27552 165.655371 
L 737.952768 166.448793 
L 738.33984 165.854585 
L 738.694656 165.617589 
L 739.30752 165.655371 
L 739.759104 165.912975 
L 743.275008 168.032203 
L 745.145856 168.712279 
L 746.339328 169.079795 
L 747.177984 169.327095 
L 747.629568 169.430137 
L 749.435904 169.89726 
L 749.887488 170.000302 
L 750.564864 170.168604 
L 751.790592 170.450251 
L 752.726016 170.656335 
L 753.790464 170.886462 
L 754.338816 170.989504 
L 755.403264 171.219631 
L 756.822528 171.48067 
L 757.757952 171.666145 
L 759.14496 171.92375 
L 759.95136 172.068008 
L 760.628736 172.174485 
L 763.01568 172.572914 
L 763.6608 172.675955 
L 764.402688 172.806475 
L 765.209088 172.912952 
L 765.821952 172.99882 
L 766.531584 173.101862 
L 767.20896 173.204904 
L 768.01536 173.314815 
L 769.46688 173.514029 
L 770.337792 173.620506 
L 771.628032 173.781938 
L 772.466688 173.891849 
L 772.950528 173.939935 
L 773.756928 174.046412 
L 774.78912 174.156323 
L 775.789056 174.2628 
L 776.88576 174.383015 
L 778.33728 174.644055 
L 778.756608 175.241697 
L 779.175936 175.574866 
L 779.756544 175.763776 
L 780.175872 175.798123 
L 784.014336 175.094004 
L 786.40128 175.200481 
L 787.143168 175.248567 
L 788.626944 175.358478 
L 789.368832 175.40313 
L 790.949376 175.513041 
L 793.852416 175.712255 
L 794.497536 175.750037 
L 796.852224 175.890861 
L 799.013376 176.000772 
L 800.948736 176.096945 
L 802.884096 176.206856 
L 804.7872 176.299594 
L 807.303168 176.409505 
L 809.109504 176.491939 
L 811.786752 176.60185 
L 813.270528 176.649936 
L 816.431616 176.759847 
L 817.108992 176.79076 
L 818.560512 176.838846 
L 819.495936 175.987033 
L 820.012032 175.880557 
L 820.59264 175.925208 
L 825.463296 176.84915 
L 827.398656 176.959062 
L 828.1728 177.010582 
L 831.527424 177.120494 
L 832.68864 177.134233 
L 838.688256 177.244144 
L 839.913984 177.264752 
L 858.880512 177.364359 
L 859.041792 177.549835 
L 859.46112 177.979176 
L 859.94496 178.253954 
L 861.170688 178.405082 
L 864.428544 177.948263 
L 866.39616 177.642572 
L 869.234688 177.450228 
L 899.265024 177.340316 
L 899.748864 176.801064 
L 900.458496 176.47133 
L 901.5552 176.461026 
L 905.522688 177.192623 
L 907.2 177.261318 
L 938.520576 177.371229 
L 939.714048 177.601356 
L 940.165632 178.04787 
L 940.649472 178.271128 
L 941.55264 178.449734 
L 943.455744 178.339822 
L 944.77824 178.089087 
L 946.971648 177.73531 
L 947.52 177.649442 
L 947.52 177.649442 
" clip-path="url(#p922fc444be)" style="fill: none; stroke: #008000; stroke-width: 2; stroke-linecap: square"/>
   </g>
   <g id="patch_10">
    <path d="M 100.8 242.888276 
L 100.8 150.157241 
" style="fill: none; stroke: #bcbcbc; stroke-width: 0.8; stroke-linejoin: miter; stroke-linecap: square"/>
   </g>
   <g id="patch_11">
    <path d="M 987.84 242.888276 
L 987.84 150.157241 
" style="fill: none; stroke: #bcbcbc; stroke-width: 0.8; stroke-linejoin: miter; stroke-linecap: square"/>
   </g>
   <g id="patch_12">
    <path d="M 100.8 242.888276 
L 987.84 242.888276 
" style="fill: none; stroke: #bcbcbc; stroke-width: 0.8; stroke-linejoin: miter; stroke-linecap: square"/>
   </g>
   <g id="patch_13">
    <path d="M 100.8 150.157241 
L 987.84 150.157241 
" style="fill: none; stroke: #bcbcbc; stroke-width: 0.8; stroke-linejoin: miter; stroke-linecap: square"/>
   </g>
  </g>
  <g id="axes_3">
   <g id="patch_14">
    <path d="M 100.8 354.165517 
L 987.84 354.165517 
L 987.84 261.434483 
L 100.8 261.434483 
z
" style="fill: #eeeeee"/>
   </g>
   <g id="matplotlib.axis_5">
    <g id="xtick_13">
     <g id="line2d_37">
      <path d="M 141.12 354.165517 
L 141.12 261.434483 
" clip-path="url(#p69c94ad24e)" style="fill: none; stroke-dasharray: 1.85,0.8; stroke-dashoffset: 0; stroke: #b2b2b2; stroke-width: 0.5"/>
     </g>
     <g id="line2d_38">
      <g>
       <use xlink:href="#m4572413475" x="141.12" y="354.165517" style="stroke: #000000; stroke-width: 0.8"/>
      </g>
     </g>
    </g>
    <g id="xtick_14">
     <g id="line2d_39">
      <path d="M 302.4 354.165517 
L 302.4 261.434483 
" clip-path="url(#p69c94ad24e)" style="fill: none; stroke-dasharray: 1.85,0.8; stroke-dashoffset: 0; stroke: #b2b2b2; stroke-width: 0.5"/>
     </g>
     <g id="line2d_40">
      <g>
       <use xlink:href="#m4572413475" x="302.4" y="354.165517" style="stroke: #000000; stroke-width: 0.8"/>
      </g>
     </g>
    </g>
    <g id="xtick_15">
     <g id="line2d_41">
      <path d="M 463.68 354.165517 
L 463.68 261.434483 
" clip-path="url(#p69c94ad24e)" style="fill: none; stroke-dasharray: 1.85,0.8; stroke-dashoffset: 0; stroke: #b2b2b2; stroke-width: 0.5"/>
     </g>
     <g id="line2d_42">
      <g>
       <use xlink:href="#m4572413475" x="463.68" y="354.165517" style="stroke: #000000; stroke-width: 0.8"/>
      </g>
     </g>
    </g>
    <g id="xtick_16">
     <g id="line2d_43">
      <path d="M 624.96 354.165517 
L 624.96 261.434483 
" clip-path="url(#p69c94ad24e)" style="fill: none; stroke-dasharray: 1.85,0.8; stroke-dashoffset: 0; stroke: #b2b2b2; stroke-width: 0.5"/>
     </g>
     <g id="line2d_44">
      <g>
       <use xlink:href="#m4572413475" x="624.96" y="354.165517" style="stroke: #000000; stroke-width: 0.8"/>
      </g>
     </g>
    </g>
    <g id="xtick_17">
     <g id="line2d_45">
      <path d="M 786.24 354.165517 
L 786.24 261.434483 
" clip-path="url(#p69c94ad24e)" style="fill: none; stroke-dasharray: 1.85,0.8; stroke-dashoffset: 0; stroke: #b2b2b2; stroke-width: 0.5"/>
     </g>
     <g id="line2d_46">
      <g>
       <use xlink:href="#m4572413475" x="786.24" y="354.165517" style="stroke: #000000; stroke-width: 0.8"/>
      </g>
     </g>
    </g>
    <g id="xtick_18">
     <g id="line2d_47">
      <path d="M 947.52 354.165517 
L 947.52 261.434483 
" clip-path="url(#p69c94ad24e)" style="fill: none; stroke-dasharray: 1.85,0.8; stroke-dashoffset: 0; stroke: #b2b2b2; stroke-width: 0.5"/>
     </g>
     <g id="line2d_48">
      <g>
       <use xlink:href="#m4572413475" x="947.52" y="354.165517" style="stroke: #000000; stroke-width: 0.8"/>
      </g>
     </g>
    </g>
   </g>
   <g id="matplotlib.axis_6">
    <g id="ytick_6">
     <g id="line2d_49">
      <path d="M 100.8 344.600235 
L 987.84 344.600235 
" clip-path="url(#p69c94ad24e)" style="fill: none; stroke-dasharray: 1.85,0.8; stroke-dashoffset: 0; stroke: #b2b2b2; stroke-width: 0.5"/>
     </g>
     <g id="line2d_50">
      <g>
       <use xlink:href="#m51c8285d61" x="100.8" y="344.600235" style="stroke: #000000; stroke-width: 0.8"/>
      </g>
     </g>
     <g id="text_8">
      <!-- 0 V -->
      <g transform="translate(74.36625 349.919141) scale(0.14 -0.14)">
       <use xlink:href="#DejaVuSans-30"/>
       <use xlink:href="#DejaVuSans-20" x="63.623047"/>
       <use xlink:href="#DejaVuSans-56" x="95.410156"/>
      </g>
     </g>
    </g>
    <g id="ytick_7">
     <g id="line2d_51">
      <path d="M 100.8 302.369315 
L 987.84 302.369315 
" clip-path="url(#p69c94ad24e)" style="fill: none; stroke-dasharray: 1.85,0.8; stroke-dashoffset: 0; stroke: #b2b2b2; stroke-width: 0.5"/>
     </g>
     <g id="line2d_52">
      <g>
       <use xlink:href="#m51c8285d61" x="100.8" y="302.369315" style="stroke: #000000; stroke-width: 0.8"/>
      </g>
     </g>
     <g id="text_9">
      <!-- 1 V -->
      <g transform="translate(74.36625 307.688221) scale(0.14 -0.14)">
       <use xlink:href="#DejaVuSans-31"/>
       <use xlink:href="#DejaVuSans-20" x="63.623047"/>
       <use xlink:href="#DejaVuSans-56" x="95.410156"/>
      </g>
     </g>
    </g>
    <g id="text_10">
     <g id="patch_15">
      <path d="M 34.8768 342.395313 
L 34.8768 273.204688 
L 11.247425 273.204688 
L 11.247425 342.395313 
z
" style="fill: #ffff00; opacity: 0.2; stroke: #eeeeee; stroke-width: 0.5; stroke-linejoin: miter"/>
     </g>
     <!-- CLK BUF -->
     <g transform="translate(26.925238 337.355313) rotate(-90) scale(0.14 -0.14)">
      <defs>
       <path id="DejaVuSans-43" d="M 4122 4306 
L 4122 3641 
Q 3803 3938 3442 4084 
Q 3081 4231 2675 4231 
Q 1875 4231 1450 3742 
Q 1025 3253 1025 2328 
Q 1025 1406 1450 917 
Q 1875 428 2675 428 
Q 3081 428 3442 575 
Q 3803 722 4122 1019 
L 4122 359 
Q 3791 134 3420 21 
Q 3050 -91 2638 -91 
Q 1578 -91 968 557 
Q 359 1206 359 2328 
Q 359 3453 968 4101 
Q 1578 4750 2638 4750 
Q 3056 4750 3426 4639 
Q 3797 4528 4122 4306 
z
" transform="scale(0.015625)"/>
       <path id="DejaVuSans-4b" d="M 628 4666 
L 1259 4666 
L 1259 2694 
L 3353 4666 
L 4166 4666 
L 1850 2491 
L 4331 0 
L 3500 0 
L 1259 2247 
L 1259 0 
L 628 0 
L 628 4666 
z
" transform="scale(0.015625)"/>
      </defs>
      <use xlink:href="#DejaVuSans-43"/>
      <use xlink:href="#DejaVuSans-4c" x="69.824219"/>
      <use xlink:href="#DejaVuSans-4b" x="125.537109"/>
      <use xlink:href="#DejaVuSans-20" x="191.113281"/>
      <use xlink:href="#DejaVuSans-42" x="222.900391"/>
      <use xlink:href="#DejaVuSans-55" x="291.503906"/>
      <use xlink:href="#DejaVuSans-46" x="364.697266"/>
     </g>
    </g>
   </g>
   <g id="line2d_53">
    <path d="M 141.12 344.599118 
L 173.376 344.599118 
L 173.601792 293.923131 
L 213.696 293.923131 
L 213.760512 334.346145 
L 213.825024 344.580942 
L 213.889536 344.520169 
L 213.954048 344.688878 
L 214.01856 344.604812 
L 215.405568 344.595109 
L 223.598592 344.599054 
L 254.016 344.599089 
L 254.17728 293.766876 
L 254.241792 294.037154 
L 254.403072 293.914685 
L 254.854656 293.923131 
L 294.336 293.923131 
L 294.400512 334.310671 
L 294.465024 344.915366 
L 294.529536 344.181127 
L 294.626304 344.666601 
L 294.65856 344.63655 
L 294.884352 344.576848 
L 295.206912 344.615602 
L 295.497216 344.598789 
L 321.172992 344.599117 
L 334.656 344.59912 
L 334.81728 293.847115 
L 334.881792 293.940023 
L 335.204352 293.927354 
L 336.075264 293.923131 
L 374.976 293.923131 
L 375.040512 334.349946 
L 375.105024 344.60092 
L 375.169536 344.514814 
L 375.234048 344.682594 
L 375.29856 344.604952 
L 376.75008 344.594773 
L 385.233408 344.599045 
L 415.296 344.59912 
L 415.45728 293.766876 
L 415.521792 294.037154 
L 415.683072 293.910462 
L 416.650752 293.927354 
L 455.616 293.923131 
L 455.680512 334.313205 
L 455.745024 344.920569 
L 455.809536 343.986071 
L 455.906304 345.219847 
L 455.93856 344.668924 
L 456.132096 344.574872 
L 456.519168 344.599556 
L 490.61376 344.599117 
L 495.936 344.599118 
L 496.09728 293.838669 
L 496.161792 293.940023 
L 497.129472 293.923131 
L 536.256 293.923131 
L 536.320512 334.313205 
L 536.385024 344.920523 
L 536.449536 343.986155 
L 536.546304 345.219763 
L 536.57856 344.668919 
L 536.772096 344.574874 
L 537.159168 344.599556 
L 571.25376 344.599117 
L 576.576 344.599119 
L 576.73728 293.838669 
L 576.801792 293.940023 
L 577.769472 293.923131 
L 608.928768 294.032931 
L 610.573824 296.368301 
L 612.21888 299.155542 
L 616.896 307.150277 
L 616.928256 307.612284 
L 617.025024 346.311854 
L 617.089536 345.350087 
L 617.154048 346.873356 
L 617.21856 346.041745 
L 617.347584 346.0053 
L 622.476288 345.843471 
L 622.605312 345.84043 
L 626.830848 345.784221 
L 627.346944 345.887518 
L 628.34688 346.235501 
L 628.992 346.600629 
L 634.830336 349.848271 
L 635.862528 349.377819 
L 638.765568 348.329985 
L 638.894592 348.304858 
L 644.539392 346.561819 
L 645.249024 346.358097 
L 646.668288 345.987732 
L 648.732672 345.500725 
L 649.442304 345.34844 
L 650.506752 345.131838 
L 656.312832 344.149293 
L 657.216 344.075685 
L 657.248256 344.139622 
L 657.409536 318.898919 
L 657.635328 318.697478 
L 664.570368 314.379366 
L 668.731392 312.109877 
L 672.344064 310.342513 
L 673.408512 309.754658 
L 674.79552 307.20011 
L 676.89216 302.722788 
L 681.053184 293.8809 
L 681.73056 292.516841 
L 683.50464 289.053906 
L 688.955904 279.285894 
L 689.95584 277.65578 
L 691.697664 274.898101 
L 692.53632 273.626951 
L 693.729792 271.663213 
L 694.278144 270.77214 
L 696.56832 267.085381 
L 697.536 265.64953 
L 697.69728 343.210458 
L 697.729536 343.346441 
L 697.794048 343.258305 
L 698.116608 343.266963 
L 699.181056 343.358393 
L 699.858432 344.026781 
L 700.60032 344.445514 
L 701.535744 344.727101 
L 702.955008 344.906346 
L 705.825792 344.982982 
L 716.599296 344.927639 
L 718.889472 344.976335 
L 720.695808 345.076135 
L 725.92128 345.053964 
L 737.856 344.933293 
L 737.985024 279.691311 
L 738.114048 280.172743 
L 744.823296 282.693929 
L 745.1136 282.80373 
L 746.855424 283.369624 
L 747.145728 283.479424 
L 748.564992 283.918626 
L 748.98432 284.028426 
L 750.403584 284.467628 
L 750.822912 284.577428 
L 751.790592 284.847706 
L 752.177664 284.957506 
L 753.048576 285.185553 
L 753.435648 285.295354 
L 754.30656 285.523401 
L 754.693632 285.633201 
L 755.467776 285.819017 
L 755.951616 285.928818 
L 756.72576 286.114634 
L 757.112832 286.224434 
L 757.757952 286.368019 
L 758.17728 286.47782 
L 758.8224 286.621405 
L 759.338496 286.731205 
L 759.983616 286.87479 
L 760.499712 286.984591 
L 761.144832 287.128176 
L 761.660928 287.237976 
L 762.306048 287.381561 
L 762.918912 287.491362 
L 763.564032 287.634947 
L 764.176896 287.744747 
L 764.725248 287.846101 
L 765.241344 287.955902 
L 765.789696 288.057256 
L 766.40256 288.162833 
L 766.757376 288.22618 
L 767.37024 288.33598 
L 767.918592 288.437334 
L 768.531456 288.542912 
L 768.886272 288.606258 
L 769.595904 288.711835 
L 769.95072 288.775182 
L 770.660352 288.880759 
L 771.015168 288.944105 
L 771.7248 289.049683 
L 772.079616 289.113029 
L 772.789248 289.218606 
L 773.144064 289.281953 
L 773.950464 289.38753 
L 774.30528 289.450876 
L 775.208448 289.556454 
L 775.563264 289.6198 
L 776.466432 289.725377 
L 776.821248 289.788724 
L 777.724416 289.894301 
L 777.982464 289.915416 
L 778.176 289.957647 
L 778.208256 296.461209 
L 778.33728 344.717865 
L 778.627584 344.706737 
L 818.496 344.629658 
L 818.625024 292.812458 
L 818.689536 292.820904 
L 819.237888 292.850465 
L 819.495936 292.867358 
L 823.205376 292.977158 
L 823.463424 292.994051 
L 827.656704 293.103851 
L 827.914752 293.120743 
L 832.882176 293.230544 
L 833.140224 293.247436 
L 839.172096 293.357236 
L 839.430144 293.374129 
L 847.107072 293.483929 
L 847.36512 293.500822 
L 858.816 293.500822 
L 858.848256 297.48742 
L 858.912768 344.713874 
L 858.97728 344.460459 
L 859.074048 344.750818 
L 859.13856 344.618545 
L 860.009472 344.614395 
L 866.621952 344.605178 
L 899.136 344.611229 
L 899.29728 293.41636 
L 899.361792 293.517714 
L 900.329472 293.500822 
L 939.456 293.500822 
L 939.488256 301.115056 
L 939.61728 344.561013 
L 939.649536 344.68384 
L 939.714048 344.566321 
L 939.810816 344.583751 
L 940.004352 344.636482 
L 940.230144 344.609872 
L 945.74592 344.611215 
L 947.52 344.611202 
L 947.52 344.611202 
" clip-path="url(#p69c94ad24e)" style="fill: none; stroke: #0000ff; stroke-width: 2; stroke-linecap: square"/>
   </g>
   <g id="patch_16">
    <path d="M 100.8 354.165517 
L 100.8 261.434483 
" style="fill: none; stroke: #bcbcbc; stroke-width: 0.8; stroke-linejoin: miter; stroke-linecap: square"/>
   </g>
   <g id="patch_17">
    <path d="M 987.84 354.165517 
L 987.84 261.434483 
" style="fill: none; stroke: #bcbcbc; stroke-width: 0.8; stroke-linejoin: miter; stroke-linecap: square"/>
   </g>
   <g id="patch_18">
    <path d="M 100.8 354.165517 
L 987.84 354.165517 
" style="fill: none; stroke: #bcbcbc; stroke-width: 0.8; stroke-linejoin: miter; stroke-linecap: square"/>
   </g>
   <g id="patch_19">
    <path d="M 100.8 261.434483 
L 987.84 261.434483 
" style="fill: none; stroke: #bcbcbc; stroke-width: 0.8; stroke-linejoin: miter; stroke-linecap: square"/>
   </g>
  </g>
  <g id="axes_4">
   <g id="patch_20">
    <path d="M 100.8 465.442759 
L 987.84 465.442759 
L 987.84 372.711724 
L 100.8 372.711724 
z
" style="fill: #eeeeee"/>
   </g>
   <g id="matplotlib.axis_7">
    <g id="xtick_19">
     <g id="line2d_54">
      <path d="M 141.12 465.442759 
L 141.12 372.711724 
" clip-path="url(#p94c5d04c8a)" style="fill: none; stroke-dasharray: 1.85,0.8; stroke-dashoffset: 0; stroke: #b2b2b2; stroke-width: 0.5"/>
     </g>
     <g id="line2d_55">
      <g>
       <use xlink:href="#m4572413475" x="141.12" y="465.442759" style="stroke: #000000; stroke-width: 0.8"/>
      </g>
     </g>
    </g>
    <g id="xtick_20">
     <g id="line2d_56">
      <path d="M 302.4 465.442759 
L 302.4 372.711724 
" clip-path="url(#p94c5d04c8a)" style="fill: none; stroke-dasharray: 1.85,0.8; stroke-dashoffset: 0; stroke: #b2b2b2; stroke-width: 0.5"/>
     </g>
     <g id="line2d_57">
      <g>
       <use xlink:href="#m4572413475" x="302.4" y="465.442759" style="stroke: #000000; stroke-width: 0.8"/>
      </g>
     </g>
    </g>
    <g id="xtick_21">
     <g id="line2d_58">
      <path d="M 463.68 465.442759 
L 463.68 372.711724 
" clip-path="url(#p94c5d04c8a)" style="fill: none; stroke-dasharray: 1.85,0.8; stroke-dashoffset: 0; stroke: #b2b2b2; stroke-width: 0.5"/>
     </g>
     <g id="line2d_59">
      <g>
       <use xlink:href="#m4572413475" x="463.68" y="465.442759" style="stroke: #000000; stroke-width: 0.8"/>
      </g>
     </g>
    </g>
    <g id="xtick_22">
     <g id="line2d_60">
      <path d="M 624.96 465.442759 
L 624.96 372.711724 
" clip-path="url(#p94c5d04c8a)" style="fill: none; stroke-dasharray: 1.85,0.8; stroke-dashoffset: 0; stroke: #b2b2b2; stroke-width: 0.5"/>
     </g>
     <g id="line2d_61">
      <g>
       <use xlink:href="#m4572413475" x="624.96" y="465.442759" style="stroke: #000000; stroke-width: 0.8"/>
      </g>
     </g>
    </g>
    <g id="xtick_23">
     <g id="line2d_62">
      <path d="M 786.24 465.442759 
L 786.24 372.711724 
" clip-path="url(#p94c5d04c8a)" style="fill: none; stroke-dasharray: 1.85,0.8; stroke-dashoffset: 0; stroke: #b2b2b2; stroke-width: 0.5"/>
     </g>
     <g id="line2d_63">
      <g>
       <use xlink:href="#m4572413475" x="786.24" y="465.442759" style="stroke: #000000; stroke-width: 0.8"/>
      </g>
     </g>
    </g>
    <g id="xtick_24">
     <g id="line2d_64">
      <path d="M 947.52 465.442759 
L 947.52 372.711724 
" clip-path="url(#p94c5d04c8a)" style="fill: none; stroke-dasharray: 1.85,0.8; stroke-dashoffset: 0; stroke: #b2b2b2; stroke-width: 0.5"/>
     </g>
     <g id="line2d_65">
      <g>
       <use xlink:href="#m4572413475" x="947.52" y="465.442759" style="stroke: #000000; stroke-width: 0.8"/>
      </g>
     </g>
    </g>
   </g>
   <g id="matplotlib.axis_8">
    <g id="ytick_8">
     <g id="line2d_66">
      <path d="M 100.8 438.191931 
L 987.84 438.191931 
" clip-path="url(#p94c5d04c8a)" style="fill: none; stroke-dasharray: 1.85,0.8; stroke-dashoffset: 0; stroke: #b2b2b2; stroke-width: 0.5"/>
     </g>
     <g id="line2d_67">
      <g>
       <use xlink:href="#m51c8285d61" x="100.8" y="438.191931" style="stroke: #000000; stroke-width: 0.8"/>
      </g>
     </g>
     <g id="text_11">
      <!-- 0 V -->
      <g transform="translate(74.36625 443.510837) scale(0.14 -0.14)">
       <use xlink:href="#DejaVuSans-30"/>
       <use xlink:href="#DejaVuSans-20" x="63.623047"/>
       <use xlink:href="#DejaVuSans-56" x="95.410156"/>
      </g>
     </g>
    </g>
    <g id="ytick_9">
     <g id="line2d_68">
      <path d="M 100.8 397.766223 
L 987.84 397.766223 
" clip-path="url(#p94c5d04c8a)" style="fill: none; stroke-dasharray: 1.85,0.8; stroke-dashoffset: 0; stroke: #b2b2b2; stroke-width: 0.5"/>
     </g>
     <g id="line2d_69">
      <g>
       <use xlink:href="#m51c8285d61" x="100.8" y="397.766223" style="stroke: #000000; stroke-width: 0.8"/>
      </g>
     </g>
     <g id="text_12">
      <!-- 1 V -->
      <g transform="translate(74.36625 403.08513) scale(0.14 -0.14)">
       <use xlink:href="#DejaVuSans-31"/>
       <use xlink:href="#DejaVuSans-20" x="63.623047"/>
       <use xlink:href="#DejaVuSans-56" x="95.410156"/>
      </g>
     </g>
    </g>
    <g id="text_13">
     <g id="patch_21">
      <path d="M 34.8768 454.693023 
L 34.8768 383.46146 
L 11.247425 383.46146 
L 11.247425 454.693023 
z
" style="fill: #ffff00; opacity: 0.2; stroke: #eeeeee; stroke-width: 0.5; stroke-linejoin: miter"/>
     </g>
     <!-- DFF OUT -->
     <g transform="translate(26.925238 449.653023) rotate(-90) scale(0.14 -0.14)">
      <defs>
       <path id="DejaVuSans-4f" d="M 2522 4238 
Q 1834 4238 1429 3725 
Q 1025 3213 1025 2328 
Q 1025 1447 1429 934 
Q 1834 422 2522 422 
Q 3209 422 3611 934 
Q 4013 1447 4013 2328 
Q 4013 3213 3611 3725 
Q 3209 4238 2522 4238 
z
M 2522 4750 
Q 3503 4750 4090 4092 
Q 4678 3434 4678 2328 
Q 4678 1225 4090 567 
Q 3503 -91 2522 -91 
Q 1538 -91 948 565 
Q 359 1222 359 2328 
Q 359 3434 948 4092 
Q 1538 4750 2522 4750 
z
" transform="scale(0.015625)"/>
       <path id="DejaVuSans-54" d="M -19 4666 
L 3928 4666 
L 3928 4134 
L 2272 4134 
L 2272 0 
L 1638 0 
L 1638 4134 
L -19 4134 
L -19 4666 
z
" transform="scale(0.015625)"/>
      </defs>
      <use xlink:href="#DejaVuSans-44"/>
      <use xlink:href="#DejaVuSans-46" x="77.001953"/>
      <use xlink:href="#DejaVuSans-46" x="134.521484"/>
      <use xlink:href="#DejaVuSans-20" x="192.041016"/>
      <use xlink:href="#DejaVuSans-4f" x="223.828125"/>
      <use xlink:href="#DejaVuSans-55" x="302.539062"/>
      <use xlink:href="#DejaVuSans-54" x="375.732422"/>
     </g>
    </g>
   </g>
   <g id="line2d_70">
    <path d="M 141.12 407.689522 
L 173.408256 407.738841 
L 173.440512 409.412465 
L 173.601792 438.194398 
L 174.117888 438.189703 
L 184.214016 438.190864 
L 254.048256 438.192547 
L 254.080512 438.354151 
L 254.112768 438.086836 
L 254.306304 434.140062 
L 254.596608 433.348931 
L 254.693376 432.784588 
L 255.14496 425.702004 
L 255.370752 409.055506 
L 255.596544 390.073211 
L 255.757824 389.74172 
L 255.983616 389.677039 
L 256.886784 389.681082 
L 295.755264 389.761933 
L 296.239104 392.377477 
L 296.59392 391.72258 
L 297.948672 390.012573 
L 299.593728 389.713422 
L 334.688256 389.697252 
L 334.720512 389.580018 
L 334.752768 390.174275 
L 334.785024 393.113224 
L 334.914048 438.175359 
L 334.97856 438.139782 
L 335.13984 438.183458 
L 335.494656 438.191343 
L 366.331392 438.190817 
L 415.328256 438.192522 
L 415.360512 438.353589 
L 415.392768 438.089076 
L 415.586304 434.04587 
L 415.876608 433.1181 
L 415.908864 433.00693 
L 416.1024 428.212845 
L 416.521728 414.256274 
L 416.9088 389.814487 
L 417.102336 389.685124 
L 417.7152 389.717465 
L 495.968256 389.697252 
L 496.000512 389.8347 
L 496.065024 389.648741 
L 496.355328 389.672997 
L 576.608256 389.697252 
L 576.640512 389.8347 
L 576.705024 389.648741 
L 576.995328 389.672997 
L 608.928768 389.782146 
L 610.541568 391.973219 
L 612.251136 394.750466 
L 616.831488 402.422052 
L 617.347584 403.67444 
L 618.218496 406.953774 
L 619.379712 411.920881 
L 619.411968 411.711071 
L 619.444224 411.677922 
L 619.79904 413.984613 
L 619.992576 414.723595 
L 620.024832 414.403827 
L 620.057088 414.780999 
L 620.218368 416.02692 
L 620.476416 417.228372 
L 621.08928 420.087278 
L 621.153792 419.927192 
L 621.186048 419.997937 
L 621.315072 420.547726 
L 621.508608 422.146967 
L 621.702144 422.887971 
L 621.7344 422.754566 
L 621.863424 423.12527 
L 622.024704 424.628702 
L 622.411776 426.533965 
L 622.444032 425.913026 
L 622.508544 426.369433 
L 622.669824 427.703077 
L 623.476224 431.324816 
L 623.66976 432.235607 
L 623.702016 431.675711 
L 623.734272 432.346373 
L 623.960064 433.492847 
L 624.895488 437.348287 
L 624.96 436.959108 
L 624.992256 437.192203 
L 625.12128 437.738435 
L 625.28256 438.976392 
L 625.701888 440.360204 
L 625.734144 440.351957 
L 625.7664 440.270459 
L 626.121216 442.157046 
L 626.347008 442.834015 
L 626.379264 442.584992 
L 626.41152 443.00542 
L 626.443776 442.683227 
L 627.604992 445.931028 
L 627.637248 445.827134 
L 627.70176 445.915262 
L 627.830784 446.102837 
L 627.86304 446.501435 
L 627.959808 446.3652 
L 628.02432 446.454541 
L 628.217856 447.271949 
L 628.282368 447.159565 
L 628.411392 447.635376 
L 628.443648 447.499546 
L 628.475904 447.652759 
L 630.411264 452.549525 
L 630.44352 452.464631 
L 630.475776 452.409248 
L 630.508032 452.463822 
L 631.862784 455.707581 
L 631.89504 455.688581 
L 631.927296 455.614198 
L 631.959552 455.674432 
L 632.894976 457.741803 
L 632.959488 457.826293 
L 633.088512 458.095528 
L 634.604544 461.227712 
L 634.733568 461.151307 
L 634.991616 460.982732 
L 635.185152 460.612837 
L 635.217408 460.620922 
L 635.378688 460.20575 
L 635.410944 460.255878 
L 635.4432 460.115196 
L 635.507712 460.062238 
L 636.926976 457.398184 
L 636.959232 457.432546 
L 636.991488 457.335524 
L 637.797888 456.0702 
L 638.088192 455.691411 
L 638.120448 455.868476 
L 638.152704 455.630368 
L 638.18496 455.714858 
L 638.959104 454.875216 
L 639.15264 454.558278 
L 639.410688 454.125723 
L 639.442944 454.250234 
L 639.4752 454.034765 
L 639.862272 453.566232 
L 640.313856 453.059697 
L 640.346112 453.221805 
L 640.378368 452.978846 
L 640.60416 452.738313 
L 640.636416 452.941654 
L 640.700928 452.648164 
L 640.733184 452.853931 
L 640.862208 452.490908 
L 641.442816 452.128693 
L 641.829888 451.521095 
L 642.152448 451.06105 
L 642.184704 451.08854 
L 642.313728 450.860539 
L 642.37824 451.045284 
L 642.507264 450.602623 
L 642.636288 450.477303 
L 642.668544 450.776049 
L 642.7008 450.449814 
L 642.733056 450.60424 
L 642.765312 450.593325 
L 642.797568 450.25577 
L 642.894336 450.300239 
L 642.926592 450.322473 
L 643.02336 450.092855 
L 643.055616 450.294983 
L 643.152384 450.197557 
L 643.281408 449.838173 
L 643.313664 449.826045 
L 643.34592 449.944088 
L 643.378176 449.748832 
L 643.410432 449.746002 
L 643.442688 449.971173 
L 643.5072 449.696279 
L 643.539456 449.776726 
L 643.571712 449.610576 
L 643.603968 449.604512 
L 643.636224 449.751662 
L 643.66848 449.581065 
L 643.700736 449.653832 
L 643.894272 449.475554 
L 644.120064 449.303341 
L 644.571648 448.730508 
L 644.732928 448.37072 
L 645.184512 447.794653 
L 645.249024 447.757866 
L 645.378048 447.968888 
L 645.507072 447.427992 
L 645.539328 447.634972 
L 645.571584 447.459524 
L 645.732864 447.237991 
L 645.76512 447.567461 
L 645.797376 447.143799 
L 645.861888 447.47246 
L 645.990912 446.984118 
L 646.055424 447.243651 
L 646.08768 446.930756 
L 646.119936 447.111055 
L 646.152192 447.134097 
L 646.281216 446.852734 
L 646.345728 446.989777 
L 646.474752 446.730649 
L 646.7328 446.612606 
L 647.248896 446.129923 
L 647.506944 445.799645 
L 647.668224 445.354962 
L 647.70048 445.34243 
L 647.86176 445.088556 
L 647.958528 444.970109 
L 647.990784 445.363451 
L 648.055296 444.889258 
L 648.248832 444.683895 
L 648.281088 445.092599 
L 648.3456 444.604256 
L 648.377856 445.021854 
L 648.50688 444.411022 
L 648.66816 444.371404 
L 648.732672 444.280042 
L 648.764928 444.658023 
L 648.797184 444.181404 
L 648.861696 444.569086 
L 648.99072 444.073871 
L 649.022976 444.079531 
L 649.055232 444.309149 
L 649.087488 444.007977 
L 649.152 444.229106 
L 649.216512 443.977658 
L 649.281024 444.023743 
L 649.345536 444.024956 
L 649.506816 443.896807 
L 649.764864 443.787657 
L 650.539008 443.068484 
L 651.022848 442.568418 
L 651.313152 441.726472 
L 651.377664 442.196178 
L 651.40992 441.619343 
L 651.442176 442.01123 
L 651.474432 441.983296 
L 651.603456 441.466292 
L 651.667968 441.880494 
L 651.73248 441.799359 
L 651.89376 441.259757 
L 651.926016 441.26857 
L 652.474368 441.044086 
L 652.796928 440.921636 
L 653.9904 439.717637 
L 654.63552 438.685003 
L 654.700032 438.587355 
L 654.764544 438.16612 
L 654.829056 438.201387 
L 654.861312 438.321592 
L 654.925824 438.232963 
L 655.76448 436.739435 
L 655.861248 435.950851 
L 655.893504 436.068166 
L 655.92576 436.396706 
L 655.990272 436.144207 
L 656.054784 435.801922 
L 656.119296 435.841378 
L 656.151552 435.943493 
L 656.183808 435.738616 
L 656.24832 435.450785 
L 656.4096 435.537336 
L 656.474112 435.436232 
L 657.37728 433.367931 
L 657.506304 432.804397 
L 657.667584 432.777311 
L 657.796608 432.824205 
L 657.828864 432.76478 
L 658.893312 430.684068 
L 659.022336 430.056257 
L 659.15136 430.394216 
L 659.506176 429.556595 
L 659.731968 429.29585 
L 661.022208 426.759136 
L 661.054464 426.878392 
L 661.215744 426.38439 
L 661.377024 426.108283 
L 661.40928 426.332241 
L 661.441536 426.231177 
L 661.473792 425.92475 
L 661.57056 425.940112 
L 661.602816 425.925558 
L 661.635072 426.048452 
L 661.667328 425.824494 
L 661.73184 425.692706 
L 661.89312 425.643387 
L 662.022144 425.442875 
L 662.53824 424.486807 
L 662.69952 423.620889 
L 662.764032 423.718315 
L 662.957568 423.074737 
L 662.989824 423.297483 
L 663.02208 423.072312 
L 663.280128 422.515246 
L 663.6672 421.57171 
L 664.247808 420.029873 
L 664.63488 419.341423 
L 664.667136 418.593952 
L 664.763904 418.689761 
L 664.989696 418.716846 
L 666.24768 416.379836 
L 666.312192 415.885834 
L 666.376704 416.098069 
L 666.957312 415.09915 
L 667.892736 413.638973 
L 667.924992 413.67576 
L 667.957248 413.590866 
L 668.247552 413.24078 
L 668.570112 412.97114 
L 668.795904 413.901336 
L 668.892672 416.253708 
L 669.247488 437.60123 
L 669.63456 437.649701 
L 673.18272 437.783429 
L 673.408512 437.696514 
L 674.085888 437.099628 
L 674.924544 436.711622 
L 675.988992 436.490857 
L 677.69856 436.409844 
L 681.182208 436.507109 
L 693.955584 436.845755 
L 697.439232 436.904129 
L 699.213312 437.052856 
L 699.890688 437.679252 
L 700.697088 438.095018 
L 701.697024 438.356366 
L 703.34208 438.51927 
L 706.793472 438.570643 
L 737.888256 438.505929 
L 737.920512 438.836923 
L 738.17856 430.752388 
L 738.404352 429.261892 
L 738.565632 426.300305 
L 738.726912 417.361372 
L 738.920448 392.029815 
L 739.113984 377.007623 
L 739.243008 376.951027 
L 744.823296 378.931886 
L 745.1136 379.036993 
L 746.855424 379.578698 
L 747.145728 379.683804 
L 748.564992 380.104232 
L 748.98432 380.209339 
L 750.403584 380.629766 
L 750.822912 380.734873 
L 752.016384 381.070406 
L 752.919552 381.288705 
L 753.82272 381.519132 
L 754.209792 381.624238 
L 754.983936 381.802111 
L 755.371008 381.907218 
L 756.145152 382.085091 
L 756.628992 382.190198 
L 757.403136 382.368071 
L 757.886976 382.473178 
L 758.66112 382.651051 
L 759.14496 382.756158 
L 759.822336 382.893606 
L 760.306176 382.998712 
L 760.983552 383.13616 
L 761.467392 383.241267 
L 762.144768 383.378714 
L 762.628608 383.483821 
L 763.17696 383.580843 
L 763.693056 383.685949 
L 764.241408 383.782971 
L 764.854272 383.888078 
L 765.402624 383.9851 
L 765.91872 384.090207 
L 766.467072 384.187228 
L 767.079936 384.292335 
L 767.628288 384.389357 
L 768.33792 384.490421 
L 768.692736 384.55106 
L 769.3056 384.652124 
L 769.660416 384.712762 
L 770.370048 384.813827 
L 770.724864 384.874465 
L 771.434496 384.979572 
L 771.88608 385.036168 
L 772.498944 385.137232 
L 772.85376 385.197871 
L 773.66016 385.298935 
L 774.014976 385.359574 
L 774.918144 385.460638 
L 775.27296 385.521277 
L 776.07936 385.622341 
L 776.337408 385.642554 
L 777.04704 385.743618 
L 777.305088 385.763831 
L 778.111488 385.864895 
L 778.208256 385.893193 
L 778.240512 385.788086 
L 778.305024 385.937661 
L 778.466304 385.925534 
L 779.46624 386.026598 
L 779.821056 386.087236 
L 780.820992 386.188301 
L 781.07904 386.208514 
L 781.982208 386.309578 
L 782.240256 386.329791 
L 783.143424 386.430855 
L 783.401472 386.451068 
L 784.30464 386.552132 
L 784.562688 386.572345 
L 785.562624 386.673409 
L 785.820672 386.693622 
L 786.820608 386.794686 
L 787.078656 386.814899 
L 788.17536 386.915963 
L 788.433408 386.936176 
L 789.62688 387.037241 
L 789.884928 387.057453 
L 791.0784 387.158518 
L 791.336448 387.178731 
L 792.626688 387.279795 
L 792.884736 387.300008 
L 794.271744 387.401072 
L 794.529792 387.421285 
L 796.013568 387.522349 
L 796.271616 387.542562 
L 797.755392 387.643626 
L 798.01344 387.659796 
L 799.690752 387.764903 
L 799.9488 387.785116 
L 801.72288 387.88618 
L 801.980928 387.906393 
L 803.948544 388.007458 
L 804.206592 388.02767 
L 806.270976 388.128735 
L 806.529024 388.148948 
L 808.883712 388.250012 
L 809.14176 388.266182 
L 811.593216 388.371289 
L 811.948032 388.387459 
L 814.689792 388.492566 
L 814.94784 388.508736 
L 818.076672 388.613843 
L 818.33472 388.630013 
L 818.528256 388.625971 
L 818.560512 388.84427 
L 818.625024 388.625971 
L 821.850624 388.73512 
L 822.108672 388.751291 
L 826.108416 388.856397 
L 826.366464 388.872568 
L 831.043584 388.977675 
L 831.3984 388.993845 
L 836.946432 389.098952 
L 837.301248 389.119165 
L 844.204032 389.220229 
L 844.558848 389.240442 
L 899.168256 389.292995 
L 899.200512 389.430442 
L 899.265024 389.244484 
L 899.555328 389.26874 
L 947.52 389.276825 
L 947.52 389.276825 
" clip-path="url(#p94c5d04c8a)" style="fill: none; stroke: #ff00ff; stroke-width: 2; stroke-linecap: square"/>
   </g>
   <g id="patch_22">
    <path d="M 100.8 465.442759 
L 100.8 372.711724 
" style="fill: none; stroke: #bcbcbc; stroke-width: 0.8; stroke-linejoin: miter; stroke-linecap: square"/>
   </g>
   <g id="patch_23">
    <path d="M 987.84 465.442759 
L 987.84 372.711724 
" style="fill: none; stroke: #bcbcbc; stroke-width: 0.8; stroke-linejoin: miter; stroke-linecap: square"/>
   </g>
   <g id="patch_24">
    <path d="M 100.8 465.442759 
L 987.84 465.442759 
" style="fill: none; stroke: #bcbcbc; stroke-width: 0.8; stroke-linejoin: miter; stroke-linecap: square"/>
   </g>
   <g id="patch_25">
    <path d="M 100.8 372.711724 
L 987.84 372.711724 
" style="fill: none; stroke: #bcbcbc; stroke-width: 0.8; stroke-linejoin: miter; stroke-linecap: square"/>
   </g>
  </g>
  <g id="axes_5">
   <g id="patch_26">
    <path d="M 100.8 576.72 
L 987.84 576.72 
L 987.84 483.988966 
L 100.8 483.988966 
z
" style="fill: #eeeeee"/>
   </g>
   <g id="matplotlib.axis_9">
    <g id="xtick_25">
     <g id="line2d_71">
      <path d="M 141.12 576.72 
L 141.12 483.988966 
" clip-path="url(#pc9d48e1b8a)" style="fill: none; stroke-dasharray: 1.85,0.8; stroke-dashoffset: 0; stroke: #b2b2b2; stroke-width: 0.5"/>
     </g>
     <g id="line2d_72">
      <g>
       <use xlink:href="#m4572413475" x="141.12" y="576.72" style="stroke: #000000; stroke-width: 0.8"/>
      </g>
     </g>
     <g id="text_14">
      <!-- 0 s -->
      <g transform="translate(130.795 590.857813) scale(0.14 -0.14)">
       <defs>
        <path id="DejaVuSans-73" d="M 2834 3397 
L 2834 2853 
Q 2591 2978 2328 3040 
Q 2066 3103 1784 3103 
Q 1356 3103 1142 2972 
Q 928 2841 928 2578 
Q 928 2378 1081 2264 
Q 1234 2150 1697 2047 
L 1894 2003 
Q 2506 1872 2764 1633 
Q 3022 1394 3022 966 
Q 3022 478 2636 193 
Q 2250 -91 1575 -91 
Q 1294 -91 989 -36 
Q 684 19 347 128 
L 347 722 
Q 666 556 975 473 
Q 1284 391 1588 391 
Q 1994 391 2212 530 
Q 2431 669 2431 922 
Q 2431 1156 2273 1281 
Q 2116 1406 1581 1522 
L 1381 1569 
Q 847 1681 609 1914 
Q 372 2147 372 2553 
Q 372 3047 722 3315 
Q 1072 3584 1716 3584 
Q 2034 3584 2315 3537 
Q 2597 3491 2834 3397 
z
" transform="scale(0.015625)"/>
       </defs>
       <use xlink:href="#DejaVuSans-30"/>
       <use xlink:href="#DejaVuSans-20" x="63.623047"/>
       <use xlink:href="#DejaVuSans-73" x="95.410156"/>
      </g>
     </g>
    </g>
    <g id="xtick_26">
     <g id="line2d_73">
      <path d="M 302.4 576.72 
L 302.4 483.988966 
" clip-path="url(#pc9d48e1b8a)" style="fill: none; stroke-dasharray: 1.85,0.8; stroke-dashoffset: 0; stroke: #b2b2b2; stroke-width: 0.5"/>
     </g>
     <g id="line2d_74">
      <g>
       <use xlink:href="#m4572413475" x="302.4" y="576.72" style="stroke: #000000; stroke-width: 0.8"/>
      </g>
     </g>
     <g id="text_15">
      <!-- 50 ns -->
      <g transform="translate(283.185 590.857813) scale(0.14 -0.14)">
       <defs>
        <path id="DejaVuSans-35" d="M 691 4666 
L 3169 4666 
L 3169 4134 
L 1269 4134 
L 1269 2991 
Q 1406 3038 1543 3061 
Q 1681 3084 1819 3084 
Q 2600 3084 3056 2656 
Q 3513 2228 3513 1497 
Q 3513 744 3044 326 
Q 2575 -91 1722 -91 
Q 1428 -91 1123 -41 
Q 819 9 494 109 
L 494 744 
Q 775 591 1075 516 
Q 1375 441 1709 441 
Q 2250 441 2565 725 
Q 2881 1009 2881 1497 
Q 2881 1984 2565 2268 
Q 2250 2553 1709 2553 
Q 1456 2553 1204 2497 
Q 953 2441 691 2322 
L 691 4666 
z
" transform="scale(0.015625)"/>
        <path id="DejaVuSans-6e" d="M 3513 2113 
L 3513 0 
L 2938 0 
L 2938 2094 
Q 2938 2591 2744 2837 
Q 2550 3084 2163 3084 
Q 1697 3084 1428 2787 
Q 1159 2491 1159 1978 
L 1159 0 
L 581 0 
L 581 3500 
L 1159 3500 
L 1159 2956 
Q 1366 3272 1645 3428 
Q 1925 3584 2291 3584 
Q 2894 3584 3203 3211 
Q 3513 2838 3513 2113 
z
" transform="scale(0.015625)"/>
       </defs>
       <use xlink:href="#DejaVuSans-35"/>
       <use xlink:href="#DejaVuSans-30" x="63.623047"/>
       <use xlink:href="#DejaVuSans-20" x="127.246094"/>
       <use xlink:href="#DejaVuSans-6e" x="159.033203"/>
       <use xlink:href="#DejaVuSans-73" x="222.412109"/>
      </g>
     </g>
    </g>
    <g id="xtick_27">
     <g id="line2d_75">
      <path d="M 463.68 576.72 
L 463.68 483.988966 
" clip-path="url(#pc9d48e1b8a)" style="fill: none; stroke-dasharray: 1.85,0.8; stroke-dashoffset: 0; stroke: #b2b2b2; stroke-width: 0.5"/>
     </g>
     <g id="line2d_76">
      <g>
       <use xlink:href="#m4572413475" x="463.68" y="576.72" style="stroke: #000000; stroke-width: 0.8"/>
      </g>
     </g>
     <g id="text_16">
      <!-- 100 ns -->
      <g transform="translate(440.01125 590.857813) scale(0.14 -0.14)">
       <use xlink:href="#DejaVuSans-31"/>
       <use xlink:href="#DejaVuSans-30" x="63.623047"/>
       <use xlink:href="#DejaVuSans-30" x="127.246094"/>
       <use xlink:href="#DejaVuSans-20" x="190.869141"/>
       <use xlink:href="#DejaVuSans-6e" x="222.65625"/>
       <use xlink:href="#DejaVuSans-73" x="286.035156"/>
      </g>
     </g>
    </g>
    <g id="xtick_28">
     <g id="line2d_77">
      <path d="M 624.96 576.72 
L 624.96 483.988966 
" clip-path="url(#pc9d48e1b8a)" style="fill: none; stroke-dasharray: 1.85,0.8; stroke-dashoffset: 0; stroke: #b2b2b2; stroke-width: 0.5"/>
     </g>
     <g id="line2d_78">
      <g>
       <use xlink:href="#m4572413475" x="624.96" y="576.72" style="stroke: #000000; stroke-width: 0.8"/>
      </g>
     </g>
     <g id="text_17">
      <!-- 150 ns -->
      <g transform="translate(601.29125 590.857813) scale(0.14 -0.14)">
       <use xlink:href="#DejaVuSans-31"/>
       <use xlink:href="#DejaVuSans-35" x="63.623047"/>
       <use xlink:href="#DejaVuSans-30" x="127.246094"/>
       <use xlink:href="#DejaVuSans-20" x="190.869141"/>
       <use xlink:href="#DejaVuSans-6e" x="222.65625"/>
       <use xlink:href="#DejaVuSans-73" x="286.035156"/>
      </g>
     </g>
    </g>
    <g id="xtick_29">
     <g id="line2d_79">
      <path d="M 786.24 576.72 
L 786.24 483.988966 
" clip-path="url(#pc9d48e1b8a)" style="fill: none; stroke-dasharray: 1.85,0.8; stroke-dashoffset: 0; stroke: #b2b2b2; stroke-width: 0.5"/>
     </g>
     <g id="line2d_80">
      <g>
       <use xlink:href="#m4572413475" x="786.24" y="576.72" style="stroke: #000000; stroke-width: 0.8"/>
      </g>
     </g>
     <g id="text_18">
      <!-- 200 ns -->
      <g transform="translate(762.57125 590.857813) scale(0.14 -0.14)">
       <use xlink:href="#DejaVuSans-32"/>
       <use xlink:href="#DejaVuSans-30" x="63.623047"/>
       <use xlink:href="#DejaVuSans-30" x="127.246094"/>
       <use xlink:href="#DejaVuSans-20" x="190.869141"/>
       <use xlink:href="#DejaVuSans-6e" x="222.65625"/>
       <use xlink:href="#DejaVuSans-73" x="286.035156"/>
      </g>
     </g>
    </g>
    <g id="xtick_30">
     <g id="line2d_81">
      <path d="M 947.52 576.72 
L 947.52 483.988966 
" clip-path="url(#pc9d48e1b8a)" style="fill: none; stroke-dasharray: 1.85,0.8; stroke-dashoffset: 0; stroke: #b2b2b2; stroke-width: 0.5"/>
     </g>
     <g id="line2d_82">
      <g>
       <use xlink:href="#m4572413475" x="947.52" y="576.72" style="stroke: #000000; stroke-width: 0.8"/>
      </g>
     </g>
     <g id="text_19">
      <!-- 250 ns -->
      <g transform="translate(923.85125 590.857813) scale(0.14 -0.14)">
       <use xlink:href="#DejaVuSans-32"/>
       <use xlink:href="#DejaVuSans-35" x="63.623047"/>
       <use xlink:href="#DejaVuSans-30" x="127.246094"/>
       <use xlink:href="#DejaVuSans-20" x="190.869141"/>
       <use xlink:href="#DejaVuSans-6e" x="222.65625"/>
       <use xlink:href="#DejaVuSans-73" x="286.035156"/>
      </g>
     </g>
    </g>
    <g id="text_20">
     <!-- Time -->
     <g transform="translate(527.192969 608.407187) scale(0.14 -0.14)">
      <defs>
       <path id="DejaVuSans-69" d="M 603 3500 
L 1178 3500 
L 1178 0 
L 603 0 
L 603 3500 
z
M 603 4863 
L 1178 4863 
L 1178 4134 
L 603 4134 
L 603 4863 
z
" transform="scale(0.015625)"/>
       <path id="DejaVuSans-6d" d="M 3328 2828 
Q 3544 3216 3844 3400 
Q 4144 3584 4550 3584 
Q 5097 3584 5394 3201 
Q 5691 2819 5691 2113 
L 5691 0 
L 5113 0 
L 5113 2094 
Q 5113 2597 4934 2840 
Q 4756 3084 4391 3084 
Q 3944 3084 3684 2787 
Q 3425 2491 3425 1978 
L 3425 0 
L 2847 0 
L 2847 2094 
Q 2847 2600 2669 2842 
Q 2491 3084 2119 3084 
Q 1678 3084 1418 2786 
Q 1159 2488 1159 1978 
L 1159 0 
L 581 0 
L 581 3500 
L 1159 3500 
L 1159 2956 
Q 1356 3278 1631 3431 
Q 1906 3584 2284 3584 
Q 2666 3584 2933 3390 
Q 3200 3197 3328 2828 
z
" transform="scale(0.015625)"/>
       <path id="DejaVuSans-65" d="M 3597 1894 
L 3597 1613 
L 953 1613 
Q 991 1019 1311 708 
Q 1631 397 2203 397 
Q 2534 397 2845 478 
Q 3156 559 3463 722 
L 3463 178 
Q 3153 47 2828 -22 
Q 2503 -91 2169 -91 
Q 1331 -91 842 396 
Q 353 884 353 1716 
Q 353 2575 817 3079 
Q 1281 3584 2069 3584 
Q 2775 3584 3186 3129 
Q 3597 2675 3597 1894 
z
M 3022 2063 
Q 3016 2534 2758 2815 
Q 2500 3097 2075 3097 
Q 1594 3097 1305 2825 
Q 1016 2553 972 2059 
L 3022 2063 
z
" transform="scale(0.015625)"/>
      </defs>
      <use xlink:href="#DejaVuSans-54"/>
      <use xlink:href="#DejaVuSans-69" x="57.958984"/>
      <use xlink:href="#DejaVuSans-6d" x="85.742188"/>
      <use xlink:href="#DejaVuSans-65" x="183.154297"/>
     </g>
    </g>
   </g>
   <g id="matplotlib.axis_10">
    <g id="ytick_10">
     <g id="line2d_83">
      <path d="M 100.8 569.745885 
L 987.84 569.745885 
" clip-path="url(#pc9d48e1b8a)" style="fill: none; stroke-dasharray: 1.85,0.8; stroke-dashoffset: 0; stroke: #b2b2b2; stroke-width: 0.5"/>
     </g>
     <g id="line2d_84">
      <g>
       <use xlink:href="#m51c8285d61" x="100.8" y="569.745885" style="stroke: #000000; stroke-width: 0.8"/>
      </g>
     </g>
     <g id="text_21">
      <!-- 0 V -->
      <g transform="translate(74.36625 575.064792) scale(0.14 -0.14)">
       <use xlink:href="#DejaVuSans-30"/>
       <use xlink:href="#DejaVuSans-20" x="63.623047"/>
       <use xlink:href="#DejaVuSans-56" x="95.410156"/>
      </g>
     </g>
    </g>
    <g id="ytick_11">
     <g id="line2d_85">
      <path d="M 100.8 535.950348 
L 987.84 535.950348 
" clip-path="url(#pc9d48e1b8a)" style="fill: none; stroke-dasharray: 1.85,0.8; stroke-dashoffset: 0; stroke: #b2b2b2; stroke-width: 0.5"/>
     </g>
     <g id="line2d_86">
      <g>
       <use xlink:href="#m51c8285d61" x="100.8" y="535.950348" style="stroke: #000000; stroke-width: 0.8"/>
      </g>
     </g>
     <g id="text_22">
      <!-- 500 mV -->
      <g transform="translate(42.914375 541.269254) scale(0.14 -0.14)">
       <use xlink:href="#DejaVuSans-35"/>
       <use xlink:href="#DejaVuSans-30" x="63.623047"/>
       <use xlink:href="#DejaVuSans-30" x="127.246094"/>
       <use xlink:href="#DejaVuSans-20" x="190.869141"/>
       <use xlink:href="#DejaVuSans-6d" x="222.65625"/>
       <use xlink:href="#DejaVuSans-56" x="320.068359"/>
      </g>
     </g>
    </g>
    <g id="ytick_12">
     <g id="line2d_87">
      <path d="M 100.8 502.15481 
L 987.84 502.15481 
" clip-path="url(#pc9d48e1b8a)" style="fill: none; stroke-dasharray: 1.85,0.8; stroke-dashoffset: 0; stroke: #b2b2b2; stroke-width: 0.5"/>
     </g>
     <g id="line2d_88">
      <g>
       <use xlink:href="#m51c8285d61" x="100.8" y="502.15481" style="stroke: #000000; stroke-width: 0.8"/>
      </g>
     </g>
     <g id="text_23">
      <!-- 1 V -->
      <g transform="translate(74.36625 507.473717) scale(0.14 -0.14)">
       <use xlink:href="#DejaVuSans-31"/>
       <use xlink:href="#DejaVuSans-20" x="63.623047"/>
       <use xlink:href="#DejaVuSans-56" x="95.410156"/>
      </g>
     </g>
    </g>
    <g id="text_24">
     <g id="patch_27">
      <path d="M 34.8768 554.329483 
L 34.8768 506.379483 
L 11.247425 506.379483 
L 11.247425 554.329483 
z
" style="fill: #ffff00; opacity: 0.2; stroke: #eeeeee; stroke-width: 0.5; stroke-linejoin: miter"/>
     </g>
     <!-- FOUT -->
     <g transform="translate(26.925238 549.289483) rotate(-90) scale(0.14 -0.14)">
      <use xlink:href="#DejaVuSans-46"/>
      <use xlink:href="#DejaVuSans-4f" x="57.519531"/>
      <use xlink:href="#DejaVuSans-55" x="136.230469"/>
      <use xlink:href="#DejaVuSans-54" x="209.423828"/>
     </g>
    </g>
   </g>
   <g id="line2d_89">
    <path d="M 141.12 488.636595 
L 173.472768 488.643355 
L 173.505024 488.44734 
L 173.569536 526.789729 
L 173.69856 572.504953 
L 173.730816 572.3695 
L 173.827584 567.842115 
L 173.892096 569.3609 
L 174.053376 570.064192 
L 174.117888 569.946665 
L 174.408192 569.492054 
L 174.440448 569.54151 
L 174.66624 569.729954 
L 176.182272 569.740151 
L 180.117504 569.761449 
L 193.568256 569.752159 
L 212.954112 569.74401 
L 255.30624 569.743704 
L 255.6288 488.52845 
L 255.854592 488.670391 
L 256.209408 488.629836 
L 334.849536 488.650114 
L 334.881792 492.854278 
L 335.043072 572.18376 
L 335.107584 570.261206 
L 335.172096 568.338639 
L 335.236608 568.870108 
L 335.365632 570.783003 
L 335.430144 570.410083 
L 335.591424 569.797213 
L 335.881728 569.648439 
L 336.559104 569.817924 
L 337.107456 569.746143 
L 350.009856 569.744206 
L 416.489472 569.74333 
L 416.553984 567.480841 
L 416.812032 488.204013 
L 416.844288 488.339195 
L 416.973312 488.852887 
L 417.037824 488.778537 
L 417.39264 488.548727 
L 417.844224 488.717705 
L 418.457088 488.562245 
L 419.328 488.636595 
L 620.250624 488.52845 
L 620.28288 488.37299 
L 620.315136 488.859646 
L 620.379648 517.370237 
L 620.508672 570.085929 
L 620.540928 569.785922 
L 620.669952 569.747108 
L 622.347264 569.744197 
L 666.73152 569.828144 
L 666.796032 567.814268 
L 666.860544 543.930826 
L 667.05408 488.933996 
L 667.183104 488.643355 
L 668.860416 488.643355 
L 668.924928 504.275818 
L 669.118464 572.148748 
L 669.182976 569.74223 
L 669.47328 569.744206 
L 738.791424 569.769076 
L 738.855936 555.872141 
L 739.017216 489.704534 
L 739.14624 488.643355 
L 947.52 488.636595 
L 947.52 488.636595 
" clip-path="url(#pc9d48e1b8a)" style="fill: none; stroke: #ff00ff; stroke-width: 2; stroke-linecap: square"/>
   </g>
   <g id="patch_28">
    <path d="M 100.8 576.72 
L 100.8 483.988966 
" style="fill: none; stroke: #bcbcbc; stroke-width: 0.8; stroke-linejoin: miter; stroke-linecap: square"/>
   </g>
   <g id="patch_29">
    <path d="M 987.84 576.72 
L 987.84 483.988966 
" style="fill: none; stroke: #bcbcbc; stroke-width: 0.8; stroke-linejoin: miter; stroke-linecap: square"/>
   </g>
   <g id="patch_30">
    <path d="M 100.8 576.72 
L 987.84 576.72 
" style="fill: none; stroke: #bcbcbc; stroke-width: 0.8; stroke-linejoin: miter; stroke-linecap: square"/>
   </g>
   <g id="patch_31">
    <path d="M 100.8 483.988966 
L 987.84 483.988966 
" style="fill: none; stroke: #bcbcbc; stroke-width: 0.8; stroke-linejoin: miter; stroke-linecap: square"/>
   </g>
  </g>
  <g id="axes_6">
   <g id="patch_32">
    <path d="M 201.6 628.56 
L 856.8 628.56 
L 856.8 615.6 
L 201.6 615.6 
z
" clip-path="url(#p382b392796)" style="fill: #d3d3d3"/>
   </g>
   <g id="patch_33">
    <path d="M 201.6 628.56 
L 805.32 628.56 
L 805.32 615.6 
L 201.6 615.6 
z
" clip-path="url(#p382b392796)" style="fill: #0000ff"/>
   </g>
   <g id="line2d_90">
    <path d="M 201.6 635.04 
L 201.6 609.12 
" clip-path="url(#pe785ee59e8)" style="fill: none; stroke: #ff0000; stroke-linecap: square"/>
   </g>
   <g id="line2d_91">
    <defs>
     <path id="mec231d04be" d="M 0 5 
C 1.326016 5 2.597899 4.473168 3.535534 3.535534 
C 4.473168 2.597899 5 1.326016 5 0 
C 5 -1.326016 4.473168 -2.597899 3.535534 -3.535534 
C 2.597899 -4.473168 1.326016 -5 0 -5 
C -1.326016 -5 -2.597899 -4.473168 -3.535534 -3.535534 
C -4.473168 -2.597899 -5 -1.326016 -5 0 
C -5 1.326016 -4.473168 2.597899 -3.535534 3.535534 
C -2.597899 4.473168 -1.326016 5 0 5 
z
" style="stroke: #bfbfbf"/>
    </defs>
    <g>
     <use xlink:href="#mec231d04be" x="805.32" y="622.08" style="fill: #ffffff; stroke: #bfbfbf"/>
    </g>
   </g>
   <g id="text_25">
    <!-- #Sweep -->
    <g transform="translate(138.622875 625.39125) scale(0.12 -0.12)">
     <defs>
      <path id="DejaVuSans-23" d="M 3272 2816 
L 2363 2816 
L 2100 1772 
L 3016 1772 
L 3272 2816 
z
M 2803 4594 
L 2478 3297 
L 3391 3297 
L 3719 4594 
L 4219 4594 
L 3897 3297 
L 4872 3297 
L 4872 2816 
L 3775 2816 
L 3519 1772 
L 4513 1772 
L 4513 1294 
L 3397 1294 
L 3072 0 
L 2572 0 
L 2894 1294 
L 1978 1294 
L 1656 0 
L 1153 0 
L 1478 1294 
L 494 1294 
L 494 1772 
L 1594 1772 
L 1856 2816 
L 850 2816 
L 850 3297 
L 1978 3297 
L 2297 4594 
L 2803 4594 
z
" transform="scale(0.015625)"/>
      <path id="DejaVuSans-77" d="M 269 3500 
L 844 3500 
L 1563 769 
L 2278 3500 
L 2956 3500 
L 3675 769 
L 4391 3500 
L 4966 3500 
L 4050 0 
L 3372 0 
L 2619 2869 
L 1863 0 
L 1184 0 
L 269 3500 
z
" transform="scale(0.015625)"/>
      <path id="DejaVuSans-70" d="M 1159 525 
L 1159 -1331 
L 581 -1331 
L 581 3500 
L 1159 3500 
L 1159 2969 
Q 1341 3281 1617 3432 
Q 1894 3584 2278 3584 
Q 2916 3584 3314 3078 
Q 3713 2572 3713 1747 
Q 3713 922 3314 415 
Q 2916 -91 2278 -91 
Q 1894 -91 1617 61 
Q 1341 213 1159 525 
z
M 3116 1747 
Q 3116 2381 2855 2742 
Q 2594 3103 2138 3103 
Q 1681 3103 1420 2742 
Q 1159 2381 1159 1747 
Q 1159 1113 1420 752 
Q 1681 391 2138 391 
Q 2594 391 2855 752 
Q 3116 1113 3116 1747 
z
" transform="scale(0.015625)"/>
     </defs>
     <use xlink:href="#DejaVuSans-23"/>
     <use xlink:href="#DejaVuSans-53" x="83.789062"/>
     <use xlink:href="#DejaVuSans-77" x="147.265625"/>
     <use xlink:href="#DejaVuSans-65" x="229.052734"/>
     <use xlink:href="#DejaVuSans-65" x="290.576172"/>
     <use xlink:href="#DejaVuSans-70" x="352.099609"/>
    </g>
   </g>
   <g id="text_26">
    <!-- $\mathdefault{129}$ -->
    <g transform="translate(869.904 625.39125) scale(0.12 -0.12)">
     <defs>
      <path id="DejaVuSans-39" d="M 703 97 
L 703 672 
Q 941 559 1184 500 
Q 1428 441 1663 441 
Q 2288 441 2617 861 
Q 2947 1281 2994 2138 
Q 2813 1869 2534 1725 
Q 2256 1581 1919 1581 
Q 1219 1581 811 2004 
Q 403 2428 403 3163 
Q 403 3881 828 4315 
Q 1253 4750 1959 4750 
Q 2769 4750 3195 4129 
Q 3622 3509 3622 2328 
Q 3622 1225 3098 567 
Q 2575 -91 1691 -91 
Q 1453 -91 1209 -44 
Q 966 3 703 97 
z
M 1959 2075 
Q 2384 2075 2632 2365 
Q 2881 2656 2881 3163 
Q 2881 3666 2632 3958 
Q 2384 4250 1959 4250 
Q 1534 4250 1286 3958 
Q 1038 3666 1038 3163 
Q 1038 2656 1286 2365 
Q 1534 2075 1959 2075 
z
" transform="scale(0.015625)"/>
     </defs>
     <use xlink:href="#DejaVuSans-31" transform="translate(0 0.78125)"/>
     <use xlink:href="#DejaVuSans-32" transform="translate(63.623047 0.78125)"/>
     <use xlink:href="#DejaVuSans-39" transform="translate(125.496094 0.78125)"/>
    </g>
   </g>
  </g>
  <g id="text_27">
   <!-- DFF under BBI sweep analysis (Sweep = 139E-9) -->
   <g transform="translate(308.25625 25.1175) scale(0.16 -0.16)">
    <defs>
     <path id="DejaVuSans-75" d="M 544 1381 
L 544 3500 
L 1119 3500 
L 1119 1403 
Q 1119 906 1312 657 
Q 1506 409 1894 409 
Q 2359 409 2629 706 
Q 2900 1003 2900 1516 
L 2900 3500 
L 3475 3500 
L 3475 0 
L 2900 0 
L 2900 538 
Q 2691 219 2414 64 
Q 2138 -91 1772 -91 
Q 1169 -91 856 284 
Q 544 659 544 1381 
z
M 1991 3584 
L 1991 3584 
z
" transform="scale(0.015625)"/>
     <path id="DejaVuSans-64" d="M 2906 2969 
L 2906 4863 
L 3481 4863 
L 3481 0 
L 2906 0 
L 2906 525 
Q 2725 213 2448 61 
Q 2172 -91 1784 -91 
Q 1150 -91 751 415 
Q 353 922 353 1747 
Q 353 2572 751 3078 
Q 1150 3584 1784 3584 
Q 2172 3584 2448 3432 
Q 2725 3281 2906 2969 
z
M 947 1747 
Q 947 1113 1208 752 
Q 1469 391 1925 391 
Q 2381 391 2643 752 
Q 2906 1113 2906 1747 
Q 2906 2381 2643 2742 
Q 2381 3103 1925 3103 
Q 1469 3103 1208 2742 
Q 947 2381 947 1747 
z
" transform="scale(0.015625)"/>
     <path id="DejaVuSans-72" d="M 2631 2963 
Q 2534 3019 2420 3045 
Q 2306 3072 2169 3072 
Q 1681 3072 1420 2755 
Q 1159 2438 1159 1844 
L 1159 0 
L 581 0 
L 581 3500 
L 1159 3500 
L 1159 2956 
Q 1341 3275 1631 3429 
Q 1922 3584 2338 3584 
Q 2397 3584 2469 3576 
Q 2541 3569 2628 3553 
L 2631 2963 
z
" transform="scale(0.015625)"/>
     <path id="DejaVuSans-61" d="M 2194 1759 
Q 1497 1759 1228 1600 
Q 959 1441 959 1056 
Q 959 750 1161 570 
Q 1363 391 1709 391 
Q 2188 391 2477 730 
Q 2766 1069 2766 1631 
L 2766 1759 
L 2194 1759 
z
M 3341 1997 
L 3341 0 
L 2766 0 
L 2766 531 
Q 2569 213 2275 61 
Q 1981 -91 1556 -91 
Q 1019 -91 701 211 
Q 384 513 384 1019 
Q 384 1609 779 1909 
Q 1175 2209 1959 2209 
L 2766 2209 
L 2766 2266 
Q 2766 2663 2505 2880 
Q 2244 3097 1772 3097 
Q 1472 3097 1187 3025 
Q 903 2953 641 2809 
L 641 3341 
Q 956 3463 1253 3523 
Q 1550 3584 1831 3584 
Q 2591 3584 2966 3190 
Q 3341 2797 3341 1997 
z
" transform="scale(0.015625)"/>
     <path id="DejaVuSans-6c" d="M 603 4863 
L 1178 4863 
L 1178 0 
L 603 0 
L 603 4863 
z
" transform="scale(0.015625)"/>
     <path id="DejaVuSans-79" d="M 2059 -325 
Q 1816 -950 1584 -1140 
Q 1353 -1331 966 -1331 
L 506 -1331 
L 506 -850 
L 844 -850 
Q 1081 -850 1212 -737 
Q 1344 -625 1503 -206 
L 1606 56 
L 191 3500 
L 800 3500 
L 1894 763 
L 2988 3500 
L 3597 3500 
L 2059 -325 
z
" transform="scale(0.015625)"/>
     <path id="DejaVuSans-28" d="M 1984 4856 
Q 1566 4138 1362 3434 
Q 1159 2731 1159 2009 
Q 1159 1288 1364 580 
Q 1569 -128 1984 -844 
L 1484 -844 
Q 1016 -109 783 600 
Q 550 1309 550 2009 
Q 550 2706 781 3412 
Q 1013 4119 1484 4856 
L 1984 4856 
z
" transform="scale(0.015625)"/>
     <path id="DejaVuSans-3d" d="M 678 2906 
L 4684 2906 
L 4684 2381 
L 678 2381 
L 678 2906 
z
M 678 1631 
L 4684 1631 
L 4684 1100 
L 678 1100 
L 678 1631 
z
" transform="scale(0.015625)"/>
     <path id="DejaVuSans-33" d="M 2597 2516 
Q 3050 2419 3304 2112 
Q 3559 1806 3559 1356 
Q 3559 666 3084 287 
Q 2609 -91 1734 -91 
Q 1441 -91 1130 -33 
Q 819 25 488 141 
L 488 750 
Q 750 597 1062 519 
Q 1375 441 1716 441 
Q 2309 441 2620 675 
Q 2931 909 2931 1356 
Q 2931 1769 2642 2001 
Q 2353 2234 1838 2234 
L 1294 2234 
L 1294 2753 
L 1863 2753 
Q 2328 2753 2575 2939 
Q 2822 3125 2822 3475 
Q 2822 3834 2567 4026 
Q 2313 4219 1838 4219 
Q 1578 4219 1281 4162 
Q 984 4106 628 3988 
L 628 4550 
Q 988 4650 1302 4700 
Q 1616 4750 1894 4750 
Q 2613 4750 3031 4423 
Q 3450 4097 3450 3541 
Q 3450 3153 3228 2886 
Q 3006 2619 2597 2516 
z
" transform="scale(0.015625)"/>
     <path id="DejaVuSans-2d" d="M 313 2009 
L 1997 2009 
L 1997 1497 
L 313 1497 
L 313 2009 
z
" transform="scale(0.015625)"/>
     <path id="DejaVuSans-29" d="M 513 4856 
L 1013 4856 
Q 1481 4119 1714 3412 
Q 1947 2706 1947 2009 
Q 1947 1309 1714 600 
Q 1481 -109 1013 -844 
L 513 -844 
Q 928 -128 1133 580 
Q 1338 1288 1338 2009 
Q 1338 2731 1133 3434 
Q 928 4138 513 4856 
z
" transform="scale(0.015625)"/>
    </defs>
    <use xlink:href="#DejaVuSans-44"/>
    <use xlink:href="#DejaVuSans-46" x="77.001953"/>
    <use xlink:href="#DejaVuSans-46" x="134.521484"/>
    <use xlink:href="#DejaVuSans-20" x="192.041016"/>
    <use xlink:href="#DejaVuSans-75" x="223.828125"/>
    <use xlink:href="#DejaVuSans-6e" x="287.207031"/>
    <use xlink:href="#DejaVuSans-64" x="350.585938"/>
    <use xlink:href="#DejaVuSans-65" x="414.0625"/>
    <use xlink:href="#DejaVuSans-72" x="475.585938"/>
    <use xlink:href="#DejaVuSans-20" x="516.699219"/>
    <use xlink:href="#DejaVuSans-42" x="548.486328"/>
    <use xlink:href="#DejaVuSans-42" x="617.089844"/>
    <use xlink:href="#DejaVuSans-49" x="685.693359"/>
    <use xlink:href="#DejaVuSans-20" x="715.185547"/>
    <use xlink:href="#DejaVuSans-73" x="746.972656"/>
    <use xlink:href="#DejaVuSans-77" x="799.072266"/>
    <use xlink:href="#DejaVuSans-65" x="880.859375"/>
    <use xlink:href="#DejaVuSans-65" x="942.382812"/>
    <use xlink:href="#DejaVuSans-70" x="1003.90625"/>
    <use xlink:href="#DejaVuSans-20" x="1067.382812"/>
    <use xlink:href="#DejaVuSans-61" x="1099.169922"/>
    <use xlink:href="#DejaVuSans-6e" x="1160.449219"/>
    <use xlink:href="#DejaVuSans-61" x="1223.828125"/>
    <use xlink:href="#DejaVuSans-6c" x="1285.107422"/>
    <use xlink:href="#DejaVuSans-79" x="1312.890625"/>
    <use xlink:href="#DejaVuSans-73" x="1372.070312"/>
    <use xlink:href="#DejaVuSans-69" x="1424.169922"/>
    <use xlink:href="#DejaVuSans-73" x="1451.953125"/>
    <use xlink:href="#DejaVuSans-20" x="1504.052734"/>
    <use xlink:href="#DejaVuSans-28" x="1535.839844"/>
    <use xlink:href="#DejaVuSans-53" x="1574.853516"/>
    <use xlink:href="#DejaVuSans-77" x="1638.330078"/>
    <use xlink:href="#DejaVuSans-65" x="1720.117188"/>
    <use xlink:href="#DejaVuSans-65" x="1781.640625"/>
    <use xlink:href="#DejaVuSans-70" x="1843.164062"/>
    <use xlink:href="#DejaVuSans-20" x="1906.640625"/>
    <use xlink:href="#DejaVuSans-3d" x="1938.427734"/>
    <use xlink:href="#DejaVuSans-20" x="2022.216797"/>
    <use xlink:href="#DejaVuSans-31" x="2054.003906"/>
    <use xlink:href="#DejaVuSans-33" x="2117.626953"/>
    <use xlink:href="#DejaVuSans-39" x="2181.25"/>
    <use xlink:href="#DejaVuSans-45" x="2244.873047"/>
    <use xlink:href="#DejaVuSans-2d" x="2308.056641"/>
    <use xlink:href="#DejaVuSans-39" x="2344.140625"/>
    <use xlink:href="#DejaVuSans-29" x="2407.763672"/>
   </g>
  </g>
 </g>
 <defs>
  <clipPath id="pa86049da0c">
   <rect x="100.8" y="38.88" width="887.04" height="92.731034"/>
  </clipPath>
  <clipPath id="p922fc444be">
   <rect x="100.8" y="150.157241" width="887.04" height="92.731034"/>
  </clipPath>
  <clipPath id="p69c94ad24e">
   <rect x="100.8" y="261.434483" width="887.04" height="92.731034"/>
  </clipPath>
  <clipPath id="p94c5d04c8a">
   <rect x="100.8" y="372.711724" width="887.04" height="92.731034"/>
  </clipPath>
  <clipPath id="pc9d48e1b8a">
   <rect x="100.8" y="483.988966" width="887.04" height="92.731034"/>
  </clipPath>
  <clipPath id="p382b392796">
   <rect x="201.6" y="609.12" width="655.2" height="25.92"/>
  </clipPath>
  <clipPath id="pe785ee59e8">
   <path d="M 201.6 628.56 
L 856.8 628.56 
L 856.8 615.6 
L 201.6 615.6 
z
"/>
  </clipPath>
 </defs>
</svg>
