<?xml version="1.0" encoding="utf-8" standalone="no"?>
<!DOCTYPE svg PUBLIC "-//W3C//DTD SVG 1.1//EN"
  "http://www.w3.org/Graphics/SVG/1.1/DTD/svg11.dtd">
<svg xmlns:xlink="http://www.w3.org/1999/xlink" width="1008pt" height="648pt" viewBox="0 0 1008 648" xmlns="http://www.w3.org/2000/svg" version="1.1">
 <metadata>
  <rdf:RDF xmlns:dc="http://purl.org/dc/elements/1.1/" xmlns:cc="http://creativecommons.org/ns#" xmlns:rdf="http://www.w3.org/1999/02/22-rdf-syntax-ns#">
   <cc:Work>
    <dc:type rdf:resource="http://purl.org/dc/dcmitype/StillImage"/>
    <dc:date>2024-06-03T10:45:53.022481</dc:date>
    <dc:format>image/svg+xml</dc:format>
    <dc:creator>
     <cc:Agent>
      <dc:title>Matplotlib v3.9.0, https://matplotlib.org/</dc:title>
     </cc:Agent>
    </dc:creator>
   </cc:Work>
  </rdf:RDF>
 </metadata>
 <defs>
  <style type="text/css">*{stroke-linejoin: round; stroke-linecap: butt}</style>
 </defs>
 <g id="figure_1">
  <g id="patch_1">
   <path d="M 0 648 
L 1008 648 
L 1008 0 
L 0 0 
z
" style="fill: #ffffff"/>
  </g>
  <g id="axes_1">
   <g id="patch_2">
    <path d="M 100.8 131.611034 
L 987.84 131.611034 
L 987.84 38.88 
L 100.8 38.88 
z
" style="fill: #eeeeee"/>
   </g>
   <g id="matplotlib.axis_1">
    <g id="xtick_1">
     <g id="line2d_1">
      <path d="M 141.12 131.611034 
L 141.12 38.88 
" clip-path="url(#p5764be9d70)" style="fill: none; stroke-dasharray: 1.85,0.8; stroke-dashoffset: 0; stroke: #b2b2b2; stroke-width: 0.5"/>
     </g>
     <g id="line2d_2">
      <defs>
       <path id="m04573cee44" d="M 0 0 
L 0 -3.5 
" style="stroke: #000000; stroke-width: 0.8"/>
      </defs>
      <g>
       <use xlink:href="#m04573cee44" x="141.12" y="131.611034" style="stroke: #000000; stroke-width: 0.8"/>
      </g>
     </g>
    </g>
    <g id="xtick_2">
     <g id="line2d_3">
      <path d="M 302.4 131.611034 
L 302.4 38.88 
" clip-path="url(#p5764be9d70)" style="fill: none; stroke-dasharray: 1.85,0.8; stroke-dashoffset: 0; stroke: #b2b2b2; stroke-width: 0.5"/>
     </g>
     <g id="line2d_4">
      <g>
       <use xlink:href="#m04573cee44" x="302.4" y="131.611034" style="stroke: #000000; stroke-width: 0.8"/>
      </g>
     </g>
    </g>
    <g id="xtick_3">
     <g id="line2d_5">
      <path d="M 463.68 131.611034 
L 463.68 38.88 
" clip-path="url(#p5764be9d70)" style="fill: none; stroke-dasharray: 1.85,0.8; stroke-dashoffset: 0; stroke: #b2b2b2; stroke-width: 0.5"/>
     </g>
     <g id="line2d_6">
      <g>
       <use xlink:href="#m04573cee44" x="463.68" y="131.611034" style="stroke: #000000; stroke-width: 0.8"/>
      </g>
     </g>
    </g>
    <g id="xtick_4">
     <g id="line2d_7">
      <path d="M 624.96 131.611034 
L 624.96 38.88 
" clip-path="url(#p5764be9d70)" style="fill: none; stroke-dasharray: 1.85,0.8; stroke-dashoffset: 0; stroke: #b2b2b2; stroke-width: 0.5"/>
     </g>
     <g id="line2d_8">
      <g>
       <use xlink:href="#m04573cee44" x="624.96" y="131.611034" style="stroke: #000000; stroke-width: 0.8"/>
      </g>
     </g>
    </g>
    <g id="xtick_5">
     <g id="line2d_9">
      <path d="M 786.24 131.611034 
L 786.24 38.88 
" clip-path="url(#p5764be9d70)" style="fill: none; stroke-dasharray: 1.85,0.8; stroke-dashoffset: 0; stroke: #b2b2b2; stroke-width: 0.5"/>
     </g>
     <g id="line2d_10">
      <g>
       <use xlink:href="#m04573cee44" x="786.24" y="131.611034" style="stroke: #000000; stroke-width: 0.8"/>
      </g>
     </g>
    </g>
    <g id="xtick_6">
     <g id="line2d_11">
      <path d="M 947.52 131.611034 
L 947.52 38.88 
" clip-path="url(#p5764be9d70)" style="fill: none; stroke-dasharray: 1.85,0.8; stroke-dashoffset: 0; stroke: #b2b2b2; stroke-width: 0.5"/>
     </g>
     <g id="line2d_12">
      <g>
       <use xlink:href="#m04573cee44" x="947.52" y="131.611034" style="stroke: #000000; stroke-width: 0.8"/>
      </g>
     </g>
    </g>
   </g>
   <g id="matplotlib.axis_2">
    <g id="ytick_1">
     <g id="line2d_13">
      <path d="M 100.8 98.340394 
L 987.84 98.340394 
" clip-path="url(#p5764be9d70)" style="fill: none; stroke-dasharray: 1.85,0.8; stroke-dashoffset: 0; stroke: #b2b2b2; stroke-width: 0.5"/>
     </g>
     <g id="line2d_14">
      <defs>
       <path id="m851982ef24" d="M 0 0 
L 3.5 0 
" style="stroke: #000000; stroke-width: 0.8"/>
      </defs>
      <g>
       <use xlink:href="#m851982ef24" x="100.8" y="98.340394" style="stroke: #000000; stroke-width: 0.8"/>
      </g>
     </g>
     <g id="text_1">
      <!-- −200 V -->
      <g transform="translate(44.819688 103.6593) scale(0.14 -0.14)">
       <defs>
        <path id="DejaVuSans-2212" d="M 678 2272 
L 4684 2272 
L 4684 1741 
L 678 1741 
L 678 2272 
z
" transform="scale(0.015625)"/>
        <path id="DejaVuSans-32" d="M 1228 531 
L 3431 531 
L 3431 0 
L 469 0 
L 469 531 
Q 828 903 1448 1529 
Q 2069 2156 2228 2338 
Q 2531 2678 2651 2914 
Q 2772 3150 2772 3378 
Q 2772 3750 2511 3984 
Q 2250 4219 1831 4219 
Q 1534 4219 1204 4116 
Q 875 4013 500 3803 
L 500 4441 
Q 881 4594 1212 4672 
Q 1544 4750 1819 4750 
Q 2544 4750 2975 4387 
Q 3406 4025 3406 3419 
Q 3406 3131 3298 2873 
Q 3191 2616 2906 2266 
Q 2828 2175 2409 1742 
Q 1991 1309 1228 531 
z
" transform="scale(0.015625)"/>
        <path id="DejaVuSans-30" d="M 2034 4250 
Q 1547 4250 1301 3770 
Q 1056 3291 1056 2328 
Q 1056 1369 1301 889 
Q 1547 409 2034 409 
Q 2525 409 2770 889 
Q 3016 1369 3016 2328 
Q 3016 3291 2770 3770 
Q 2525 4250 2034 4250 
z
M 2034 4750 
Q 2819 4750 3233 4129 
Q 3647 3509 3647 2328 
Q 3647 1150 3233 529 
Q 2819 -91 2034 -91 
Q 1250 -91 836 529 
Q 422 1150 422 2328 
Q 422 3509 836 4129 
Q 1250 4750 2034 4750 
z
" transform="scale(0.015625)"/>
        <path id="DejaVuSans-20" transform="scale(0.015625)"/>
        <path id="DejaVuSans-56" d="M 1831 0 
L 50 4666 
L 709 4666 
L 2188 738 
L 3669 4666 
L 4325 4666 
L 2547 0 
L 1831 0 
z
" transform="scale(0.015625)"/>
       </defs>
       <use xlink:href="#DejaVuSans-2212"/>
       <use xlink:href="#DejaVuSans-32" x="83.789062"/>
       <use xlink:href="#DejaVuSans-30" x="147.412109"/>
       <use xlink:href="#DejaVuSans-30" x="211.035156"/>
       <use xlink:href="#DejaVuSans-20" x="274.658203"/>
       <use xlink:href="#DejaVuSans-56" x="306.445312"/>
      </g>
     </g>
    </g>
    <g id="ytick_2">
     <g id="line2d_15">
      <path d="M 100.8 45.027377 
L 987.84 45.027377 
" clip-path="url(#p5764be9d70)" style="fill: none; stroke-dasharray: 1.85,0.8; stroke-dashoffset: 0; stroke: #b2b2b2; stroke-width: 0.5"/>
     </g>
     <g id="line2d_16">
      <g>
       <use xlink:href="#m851982ef24" x="100.8" y="45.027377" style="stroke: #000000; stroke-width: 0.8"/>
      </g>
     </g>
     <g id="text_2">
      <!-- 0 V -->
      <g transform="translate(74.36625 50.346284) scale(0.14 -0.14)">
       <use xlink:href="#DejaVuSans-30"/>
       <use xlink:href="#DejaVuSans-20" x="63.623047"/>
       <use xlink:href="#DejaVuSans-56" x="95.410156"/>
      </g>
     </g>
    </g>
    <g id="text_3">
     <g id="patch_3">
      <path d="M 34.8768 131.080205 
L 34.8768 39.41083 
L 11.247425 39.41083 
L 11.247425 131.080205 
z
" style="fill: #ffff00; opacity: 0.2; stroke: #eeeeee; stroke-width: 0.5; stroke-linejoin: miter"/>
     </g>
     <!-- VPULSE BBI -->
     <g transform="translate(26.925238 126.040205) rotate(-90) scale(0.14 -0.14)">
      <defs>
       <path id="DejaVuSans-50" d="M 1259 4147 
L 1259 2394 
L 2053 2394 
Q 2494 2394 2734 2622 
Q 2975 2850 2975 3272 
Q 2975 3691 2734 3919 
Q 2494 4147 2053 4147 
L 1259 4147 
z
M 628 4666 
L 2053 4666 
Q 2838 4666 3239 4311 
Q 3641 3956 3641 3272 
Q 3641 2581 3239 2228 
Q 2838 1875 2053 1875 
L 1259 1875 
L 1259 0 
L 628 0 
L 628 4666 
z
" transform="scale(0.015625)"/>
       <path id="DejaVuSans-55" d="M 556 4666 
L 1191 4666 
L 1191 1831 
Q 1191 1081 1462 751 
Q 1734 422 2344 422 
Q 2950 422 3222 751 
Q 3494 1081 3494 1831 
L 3494 4666 
L 4128 4666 
L 4128 1753 
Q 4128 841 3676 375 
Q 3225 -91 2344 -91 
Q 1459 -91 1007 375 
Q 556 841 556 1753 
L 556 4666 
z
" transform="scale(0.015625)"/>
       <path id="DejaVuSans-4c" d="M 628 4666 
L 1259 4666 
L 1259 531 
L 3531 531 
L 3531 0 
L 628 0 
L 628 4666 
z
" transform="scale(0.015625)"/>
       <path id="DejaVuSans-53" d="M 3425 4513 
L 3425 3897 
Q 3066 4069 2747 4153 
Q 2428 4238 2131 4238 
Q 1616 4238 1336 4038 
Q 1056 3838 1056 3469 
Q 1056 3159 1242 3001 
Q 1428 2844 1947 2747 
L 2328 2669 
Q 3034 2534 3370 2195 
Q 3706 1856 3706 1288 
Q 3706 609 3251 259 
Q 2797 -91 1919 -91 
Q 1588 -91 1214 -16 
Q 841 59 441 206 
L 441 856 
Q 825 641 1194 531 
Q 1563 422 1919 422 
Q 2459 422 2753 634 
Q 3047 847 3047 1241 
Q 3047 1584 2836 1778 
Q 2625 1972 2144 2069 
L 1759 2144 
Q 1053 2284 737 2584 
Q 422 2884 422 3419 
Q 422 4038 858 4394 
Q 1294 4750 2059 4750 
Q 2388 4750 2728 4690 
Q 3069 4631 3425 4513 
z
" transform="scale(0.015625)"/>
       <path id="DejaVuSans-45" d="M 628 4666 
L 3578 4666 
L 3578 4134 
L 1259 4134 
L 1259 2753 
L 3481 2753 
L 3481 2222 
L 1259 2222 
L 1259 531 
L 3634 531 
L 3634 0 
L 628 0 
L 628 4666 
z
" transform="scale(0.015625)"/>
       <path id="DejaVuSans-42" d="M 1259 2228 
L 1259 519 
L 2272 519 
Q 2781 519 3026 730 
Q 3272 941 3272 1375 
Q 3272 1813 3026 2020 
Q 2781 2228 2272 2228 
L 1259 2228 
z
M 1259 4147 
L 1259 2741 
L 2194 2741 
Q 2656 2741 2882 2914 
Q 3109 3088 3109 3444 
Q 3109 3797 2882 3972 
Q 2656 4147 2194 4147 
L 1259 4147 
z
M 628 4666 
L 2241 4666 
Q 2963 4666 3353 4366 
Q 3744 4066 3744 3513 
Q 3744 3084 3544 2831 
Q 3344 2578 2956 2516 
Q 3422 2416 3680 2098 
Q 3938 1781 3938 1306 
Q 3938 681 3513 340 
Q 3088 0 2303 0 
L 628 0 
L 628 4666 
z
" transform="scale(0.015625)"/>
       <path id="DejaVuSans-49" d="M 628 4666 
L 1259 4666 
L 1259 0 
L 628 0 
L 628 4666 
z
" transform="scale(0.015625)"/>
      </defs>
      <use xlink:href="#DejaVuSans-56"/>
      <use xlink:href="#DejaVuSans-50" x="68.408203"/>
      <use xlink:href="#DejaVuSans-55" x="128.710938"/>
      <use xlink:href="#DejaVuSans-4c" x="201.904297"/>
      <use xlink:href="#DejaVuSans-53" x="257.617188"/>
      <use xlink:href="#DejaVuSans-45" x="321.09375"/>
      <use xlink:href="#DejaVuSans-20" x="384.277344"/>
      <use xlink:href="#DejaVuSans-42" x="416.064453"/>
      <use xlink:href="#DejaVuSans-42" x="484.667969"/>
      <use xlink:href="#DejaVuSans-49" x="553.271484"/>
     </g>
    </g>
   </g>
   <g id="line2d_17">
    <path d="M 141.12 45.027377 
L 541.126656 45.136282 
L 541.610496 46.425538 
L 549.835776 69.006772 
L 557.254656 89.863624 
L 558.867456 94.440546 
L 560.673792 99.673219 
L 564.15744 110.807642 
L 565.737984 115.853719 
L 566.963712 119.550977 
L 570.866688 121.36362 
L 571.447296 121.619522 
L 572.318208 122.003376 
L 572.963328 122.269941 
L 574.543872 122.936354 
L 575.188992 123.202919 
L 576.285696 123.629423 
L 577.027584 123.922644 
L 578.124288 124.349149 
L 579.027456 124.677024 
L 579.704832 124.943589 
L 580.511232 125.25547 
L 581.865984 125.804594 
L 584.510976 126.790885 
L 585.12384 127.022796 
L 587.0592 127.395987 
L 605.541888 127.289361 
L 605.76768 126.801547 
L 624.056832 75.087922 
L 627.798528 63.292417 
L 631.507968 51.617666 
L 636.120576 49.3412 
L 641.475072 46.984578 
L 650.184192 43.484472 
L 651.055104 43.268927 
L 665.344512 43.108189 
L 672.150528 43.184799 
L 687.504384 43.746186 
L 715.2768 44.46146 
L 740.92032 44.774399 
L 776.530944 44.945888 
L 824.560128 44.953885 
L 947.52 44.953885 
L 947.52 44.953885 
" clip-path="url(#p5764be9d70)" style="fill: none; stroke: #ff0000; stroke-width: 2; stroke-linecap: square"/>
   </g>
   <g id="patch_4">
    <path d="M 100.8 131.611034 
L 100.8 38.88 
" style="fill: none; stroke: #bcbcbc; stroke-width: 0.8; stroke-linejoin: miter; stroke-linecap: square"/>
   </g>
   <g id="patch_5">
    <path d="M 987.84 131.611034 
L 987.84 38.88 
" style="fill: none; stroke: #bcbcbc; stroke-width: 0.8; stroke-linejoin: miter; stroke-linecap: square"/>
   </g>
   <g id="patch_6">
    <path d="M 100.8 131.611034 
L 987.84 131.611034 
" style="fill: none; stroke: #bcbcbc; stroke-width: 0.8; stroke-linejoin: miter; stroke-linecap: square"/>
   </g>
   <g id="patch_7">
    <path d="M 100.8 38.88 
L 987.84 38.88 
" style="fill: none; stroke: #bcbcbc; stroke-width: 0.8; stroke-linejoin: miter; stroke-linecap: square"/>
   </g>
  </g>
  <g id="axes_2">
   <g id="patch_8">
    <path d="M 100.8 242.888276 
L 987.84 242.888276 
L 987.84 150.157241 
L 100.8 150.157241 
z
" style="fill: #eeeeee"/>
   </g>
   <g id="matplotlib.axis_3">
    <g id="xtick_7">
     <g id="line2d_18">
      <path d="M 141.12 242.888276 
L 141.12 150.157241 
" clip-path="url(#pc3b6f2c890)" style="fill: none; stroke-dasharray: 1.85,0.8; stroke-dashoffset: 0; stroke: #b2b2b2; stroke-width: 0.5"/>
     </g>
     <g id="line2d_19">
      <g>
       <use xlink:href="#m04573cee44" x="141.12" y="242.888276" style="stroke: #000000; stroke-width: 0.8"/>
      </g>
     </g>
    </g>
    <g id="xtick_8">
     <g id="line2d_20">
      <path d="M 302.4 242.888276 
L 302.4 150.157241 
" clip-path="url(#pc3b6f2c890)" style="fill: none; stroke-dasharray: 1.85,0.8; stroke-dashoffset: 0; stroke: #b2b2b2; stroke-width: 0.5"/>
     </g>
     <g id="line2d_21">
      <g>
       <use xlink:href="#m04573cee44" x="302.4" y="242.888276" style="stroke: #000000; stroke-width: 0.8"/>
      </g>
     </g>
    </g>
    <g id="xtick_9">
     <g id="line2d_22">
      <path d="M 463.68 242.888276 
L 463.68 150.157241 
" clip-path="url(#pc3b6f2c890)" style="fill: none; stroke-dasharray: 1.85,0.8; stroke-dashoffset: 0; stroke: #b2b2b2; stroke-width: 0.5"/>
     </g>
     <g id="line2d_23">
      <g>
       <use xlink:href="#m04573cee44" x="463.68" y="242.888276" style="stroke: #000000; stroke-width: 0.8"/>
      </g>
     </g>
    </g>
    <g id="xtick_10">
     <g id="line2d_24">
      <path d="M 624.96 242.888276 
L 624.96 150.157241 
" clip-path="url(#pc3b6f2c890)" style="fill: none; stroke-dasharray: 1.85,0.8; stroke-dashoffset: 0; stroke: #b2b2b2; stroke-width: 0.5"/>
     </g>
     <g id="line2d_25">
      <g>
       <use xlink:href="#m04573cee44" x="624.96" y="242.888276" style="stroke: #000000; stroke-width: 0.8"/>
      </g>
     </g>
    </g>
    <g id="xtick_11">
     <g id="line2d_26">
      <path d="M 786.24 242.888276 
L 786.24 150.157241 
" clip-path="url(#pc3b6f2c890)" style="fill: none; stroke-dasharray: 1.85,0.8; stroke-dashoffset: 0; stroke: #b2b2b2; stroke-width: 0.5"/>
     </g>
     <g id="line2d_27">
      <g>
       <use xlink:href="#m04573cee44" x="786.24" y="242.888276" style="stroke: #000000; stroke-width: 0.8"/>
      </g>
     </g>
    </g>
    <g id="xtick_12">
     <g id="line2d_28">
      <path d="M 947.52 242.888276 
L 947.52 150.157241 
" clip-path="url(#pc3b6f2c890)" style="fill: none; stroke-dasharray: 1.85,0.8; stroke-dashoffset: 0; stroke: #b2b2b2; stroke-width: 0.5"/>
     </g>
     <g id="line2d_29">
      <g>
       <use xlink:href="#m04573cee44" x="947.52" y="242.888276" style="stroke: #000000; stroke-width: 0.8"/>
      </g>
     </g>
    </g>
   </g>
   <g id="matplotlib.axis_4">
    <g id="ytick_3">
     <g id="line2d_30">
      <path d="M 100.8 219.197486 
L 987.84 219.197486 
" clip-path="url(#pc3b6f2c890)" style="fill: none; stroke-dasharray: 1.85,0.8; stroke-dashoffset: 0; stroke: #b2b2b2; stroke-width: 0.5"/>
     </g>
     <g id="line2d_31">
      <g>
       <use xlink:href="#m851982ef24" x="100.8" y="219.197486" style="stroke: #000000; stroke-width: 0.8"/>
      </g>
     </g>
     <g id="text_4">
      <!-- 0 V -->
      <g transform="translate(74.36625 224.516392) scale(0.14 -0.14)">
       <use xlink:href="#DejaVuSans-30"/>
       <use xlink:href="#DejaVuSans-20" x="63.623047"/>
       <use xlink:href="#DejaVuSans-56" x="95.410156"/>
      </g>
     </g>
    </g>
    <g id="ytick_4">
     <g id="line2d_32">
      <path d="M 100.8 185.241592 
L 987.84 185.241592 
" clip-path="url(#pc3b6f2c890)" style="fill: none; stroke-dasharray: 1.85,0.8; stroke-dashoffset: 0; stroke: #b2b2b2; stroke-width: 0.5"/>
     </g>
     <g id="line2d_33">
      <g>
       <use xlink:href="#m851982ef24" x="100.8" y="185.241592" style="stroke: #000000; stroke-width: 0.8"/>
      </g>
     </g>
     <g id="text_5">
      <!-- 1 V -->
      <g transform="translate(74.36625 190.560498) scale(0.14 -0.14)">
       <defs>
        <path id="DejaVuSans-31" d="M 794 531 
L 1825 531 
L 1825 4091 
L 703 3866 
L 703 4441 
L 1819 4666 
L 2450 4666 
L 2450 531 
L 3481 531 
L 3481 0 
L 794 0 
L 794 531 
z
" transform="scale(0.015625)"/>
       </defs>
       <use xlink:href="#DejaVuSans-31"/>
       <use xlink:href="#DejaVuSans-20" x="63.623047"/>
       <use xlink:href="#DejaVuSans-56" x="95.410156"/>
      </g>
     </g>
    </g>
    <g id="ytick_5">
     <g id="line2d_34">
      <path d="M 100.8 151.285698 
L 987.84 151.285698 
" clip-path="url(#pc3b6f2c890)" style="fill: none; stroke-dasharray: 1.85,0.8; stroke-dashoffset: 0; stroke: #b2b2b2; stroke-width: 0.5"/>
     </g>
     <g id="line2d_35">
      <g>
       <use xlink:href="#m851982ef24" x="100.8" y="151.285698" style="stroke: #000000; stroke-width: 0.8"/>
      </g>
     </g>
     <g id="text_6">
      <!-- 2 V -->
      <g transform="translate(74.36625 156.604604) scale(0.14 -0.14)">
       <use xlink:href="#DejaVuSans-32"/>
       <use xlink:href="#DejaVuSans-20" x="63.623047"/>
       <use xlink:href="#DejaVuSans-56" x="95.410156"/>
      </g>
     </g>
    </g>
    <g id="text_7">
     <g id="patch_9">
      <path d="M 34.8768 224.531509 
L 34.8768 168.514009 
L 11.247425 168.514009 
L 11.247425 224.531509 
z
" style="fill: #ffff00; opacity: 0.2; stroke: #eeeeee; stroke-width: 0.5; stroke-linejoin: miter"/>
     </g>
     <!-- DFF IN -->
     <g transform="translate(26.925238 219.491509) rotate(-90) scale(0.14 -0.14)">
      <defs>
       <path id="DejaVuSans-44" d="M 1259 4147 
L 1259 519 
L 2022 519 
Q 2988 519 3436 956 
Q 3884 1394 3884 2338 
Q 3884 3275 3436 3711 
Q 2988 4147 2022 4147 
L 1259 4147 
z
M 628 4666 
L 1925 4666 
Q 3281 4666 3915 4102 
Q 4550 3538 4550 2338 
Q 4550 1131 3912 565 
Q 3275 0 1925 0 
L 628 0 
L 628 4666 
z
" transform="scale(0.015625)"/>
       <path id="DejaVuSans-46" d="M 628 4666 
L 3309 4666 
L 3309 4134 
L 1259 4134 
L 1259 2759 
L 3109 2759 
L 3109 2228 
L 1259 2228 
L 1259 0 
L 628 0 
L 628 4666 
z
" transform="scale(0.015625)"/>
       <path id="DejaVuSans-4e" d="M 628 4666 
L 1478 4666 
L 3547 763 
L 3547 4666 
L 4159 4666 
L 4159 0 
L 3309 0 
L 1241 3903 
L 1241 0 
L 628 0 
L 628 4666 
z
" transform="scale(0.015625)"/>
      </defs>
      <use xlink:href="#DejaVuSans-44"/>
      <use xlink:href="#DejaVuSans-46" x="77.001953"/>
      <use xlink:href="#DejaVuSans-46" x="134.521484"/>
      <use xlink:href="#DejaVuSans-20" x="192.041016"/>
      <use xlink:href="#DejaVuSans-49" x="223.828125"/>
      <use xlink:href="#DejaVuSans-4e" x="253.320312"/>
     </g>
    </g>
   </g>
   <g id="line2d_36">
    <path d="M 141.12 219.147897 
L 221.953536 219.101333 
L 224.437248 200.181506 
L 225.404928 194.425982 
L 228.243456 181.771299 
L 229.598208 180.501349 
L 231.178752 179.628683 
L 236.533248 179.173674 
L 243.5328 179.065015 
L 244.952064 179.024268 
L 248.145408 178.915609 
L 249.790464 178.851093 
L 251.887104 178.742434 
L 254.241792 178.396084 
L 254.757888 177.85958 
L 255.499776 177.520022 
L 256.338432 177.533604 
L 259.789824 178.148206 
L 262.467072 178.321381 
L 263.886336 178.368919 
L 264.144384 183.604918 
L 264.434688 187.16757 
L 265.176576 191.913586 
L 267.144192 209.236864 
L 268.402176 215.741116 
L 269.047296 217.023494 
L 270.46656 218.785126 
L 273.724416 219.19932 
L 282.530304 219.151934 
L 297.045504 219.141815 
L 305.851392 219.147082 
L 347.751936 219.103028 
L 350.235648 200.221574 
L 351.622656 191.588967 
L 352.654848 186.300676 
L 354.97728 179.309497 
L 358.493184 178.311194 
L 360.202752 178.382501 
L 363.009024 178.49116 
L 364.33152 178.52172 
L 375.169536 178.593028 
L 375.717888 179.58454 
L 376.169472 180.334965 
L 377.008128 181.241588 
L 377.524224 181.190654 
L 378.427392 180.898633 
L 380.427264 179.761111 
L 381.58848 179.387596 
L 387.168768 178.908818 
L 389.587968 178.800159 
L 391.684608 178.688104 
L 394.232832 178.579445 
L 395.61984 178.542094 
L 415.360512 178.457204 
L 416.489472 177.526813 
L 417.037824 177.462296 
L 417.908736 177.570955 
L 419.16672 177.852789 
L 420.908544 178.107458 
L 423.940608 178.317985 
L 455.712768 178.423248 
L 456.809472 179.312893 
L 457.261056 179.3842 
L 458.68032 179.428343 
L 462.680064 178.898631 
L 464.131584 178.705082 
L 467.486208 178.4606 
L 496.065024 178.379106 
L 496.58112 177.839207 
L 497.258496 177.533604 
L 498.3552 177.520022 
L 502.06464 178.188953 
L 504.193536 178.304403 
L 536.320512 178.409666 
L 536.449536 178.538698 
L 536.965632 179.071806 
L 537.643008 179.377409 
L 538.546176 179.462299 
L 541.158912 179.292519 
L 541.675008 180.114252 
L 542.578176 181.428345 
L 547.674624 188.044311 
L 550.28736 191.759086 
L 550.7712 193.21919 
L 552.093696 198.144832 
L 552.480768 199.540419 
L 552.674304 200.354002 
L 552.996864 201.509861 
L 553.35168 203.201883 
L 555.28704 211.775067 
L 557.093376 218.335652 
L 557.415936 219.286912 
L 557.932032 221.112836 
L 558.0288 221.368151 
L 559.028736 223.931617 
L 559.254528 224.484419 
L 559.673856 225.615829 
L 559.996416 226.018207 
L 560.351232 226.438581 
L 560.577024 227.022622 
L 561.318912 228.786291 
L 562.609152 231.22772 
L 562.8672 231.537398 
L 563.383296 232.778146 
L 563.867136 233.59139 
L 565.318656 236.075603 
L 565.479936 236.349967 
L 565.77024 236.870171 
L 566.641152 238.374077 
L 566.770176 238.466437 
L 567.028224 238.64946 
L 567.286272 238.470512 
L 567.737856 237.906505 
L 568.060416 237.470851 
L 569.028096 235.920424 
L 569.769984 235.108539 
L 570.318336 234.190372 
L 570.544128 234.087825 
L 570.834432 233.854887 
L 571.640832 233.226024 
L 572.447232 232.116685 
L 572.86656 231.677636 
L 573.060096 231.679333 
L 573.3504 231.440623 
L 573.67296 231.276277 
L 573.963264 231.084426 
L 574.995456 230.053865 
L 575.28576 229.494951 
L 575.318016 229.527209 
L 575.44704 229.51057 
L 575.672832 229.275256 
L 575.866368 229.198176 
L 576.382464 228.936037 
L 577.253376 228.236885 
L 577.963008 227.55505 
L 578.1888 227.222283 
L 578.317824 227.116001 
L 578.898432 226.714642 
L 579.350016 226.469141 
L 580.962816 225.198511 
L 581.511168 224.401566 
L 581.769216 224.378137 
L 582.575616 223.997491 
L 584.252928 222.718373 
L 585.575424 221.651648 
L 586.41408 220.999899 
L 587.317248 219.931409 
L 593.639424 211.452826 
L 594.284544 210.757069 
L 595.478016 209.386949 
L 596.09088 207.59985 
L 597.38112 203.825653 
L 598.445568 201.388638 
L 600.44544 198.466054 
L 601.058304 197.617157 
L 601.993728 196.367241 
L 602.993664 195.224285 
L 603.800064 194.228698 
L 605.12256 193.004249 
L 605.703168 192.177762 
L 606.057984 191.037523 
L 607.638528 185.575378 
L 608.477184 183.594731 
L 609.348096 182.100672 
L 610.025472 181.346851 
L 611.799552 179.720363 
L 613.83168 176.976727 
L 614.831616 175.503041 
L 616.444416 173.109151 
L 617.025024 172.331561 
L 617.37984 172.762801 
L 617.670144 172.983514 
L 618.18624 172.997096 
L 619.024896 172.531901 
L 619.734528 171.720355 
L 620.573184 170.19234 
L 621.831168 167.570944 
L 622.927872 165.625272 
L 625.992192 161.299291 
L 626.830848 160.161768 
L 629.056512 157.299286 
L 630.798336 155.115922 
L 631.4112 154.389266 
L 631.57248 154.413035 
L 633.572352 154.72543 
L 634.765824 154.834089 
L 639.604224 155.96482 
L 650.797056 159.611683 
L 653.248512 160.779766 
L 657.312768 162.518307 
L 657.345024 162.436813 
L 657.732096 161.78486 
L 658.119168 161.550564 
L 658.409472 161.591312 
L 659.054592 161.971618 
L 661.796352 164.138004 
L 663.118848 164.844286 
L 664.63488 165.523404 
L 666.57024 166.25006 
L 668.086272 166.769585 
L 677.472768 169.618485 
L 680.020992 170.267043 
L 680.795136 170.474173 
L 681.278976 170.582832 
L 692.923392 172.922393 
L 694.63296 173.204227 
L 695.084544 173.275535 
L 697.116672 173.59472 
L 697.729536 173.87995 
L 698.18112 174.545485 
L 698.568192 174.823924 
L 699.116544 174.997099 
L 699.729408 175.017472 
L 702.922752 174.450409 
L 713.728512 175.479272 
L 714.889728 175.587931 
L 719.760384 175.992006 
L 721.340928 176.093874 
L 721.857024 176.141412 
L 724.695552 176.331565 
L 726.308352 176.440224 
L 728.630784 176.576048 
L 729.340416 176.610004 
L 731.275776 176.718662 
L 733.211136 176.813739 
L 735.146496 176.922398 
L 737.0496 177.017474 
L 737.791488 177.048035 
L 737.952768 177.024265 
L 738.436608 176.463993 
L 738.888192 176.226302 
L 739.372032 176.141412 
L 740.565504 176.372312 
L 742.597632 176.898629 
L 744.403968 177.16688 
L 747.500544 177.387594 
L 748.210176 177.421549 
L 751.435776 177.523417 
L 751.919616 177.560769 
L 756.145152 177.669427 
L 757.499904 177.706779 
L 758.370816 177.720361 
L 758.790144 177.740735 
L 759.79008 177.74413 
L 765.144576 177.852789 
L 766.338048 177.869767 
L 767.144448 177.890141 
L 767.725056 177.900328 
L 768.789504 177.903723 
L 776.07936 178.012382 
L 777.337344 178.036151 
L 778.33728 178.124436 
L 778.853376 178.694895 
L 779.337216 178.959751 
L 779.659776 179.06841 
L 780.5952 179.058224 
L 781.917696 178.810345 
L 784.369152 178.40627 
L 786.981888 178.239886 
L 793.368576 178.131228 
L 794.46528 178.124436 
L 818.625024 178.042942 
L 819.108864 177.509835 
L 819.818496 177.180463 
L 820.9152 177.170276 
L 824.882688 177.893536 
L 826.56 177.961448 
L 858.880512 178.070107 
L 859.041792 178.250073 
L 859.557888 178.769598 
L 859.94496 178.95296 
L 860.557824 179.092179 
L 862.912512 178.986916 
L 865.234944 178.610006 
L 870.58944 178.154997 
L 899.232768 178.083689 
L 899.78112 177.469088 
L 900.329472 177.194045 
L 902.232576 177.295913 
L 903.555072 177.59812 
L 905.26464 177.845998 
L 907.651584 177.988613 
L 939.552768 178.083689 
L 940.617216 178.949565 
L 941.55264 179.136322 
L 943.455744 179.027663 
L 946.423296 178.514929 
L 947.52 178.341754 
L 947.52 178.341754 
" clip-path="url(#pc3b6f2c890)" style="fill: none; stroke: #008000; stroke-width: 2; stroke-linecap: square"/>
   </g>
   <g id="patch_10">
    <path d="M 100.8 242.888276 
L 100.8 150.157241 
" style="fill: none; stroke: #bcbcbc; stroke-width: 0.8; stroke-linejoin: miter; stroke-linecap: square"/>
   </g>
   <g id="patch_11">
    <path d="M 987.84 242.888276 
L 987.84 150.157241 
" style="fill: none; stroke: #bcbcbc; stroke-width: 0.8; stroke-linejoin: miter; stroke-linecap: square"/>
   </g>
   <g id="patch_12">
    <path d="M 100.8 242.888276 
L 987.84 242.888276 
" style="fill: none; stroke: #bcbcbc; stroke-width: 0.8; stroke-linejoin: miter; stroke-linecap: square"/>
   </g>
   <g id="patch_13">
    <path d="M 100.8 150.157241 
L 987.84 150.157241 
" style="fill: none; stroke: #bcbcbc; stroke-width: 0.8; stroke-linejoin: miter; stroke-linecap: square"/>
   </g>
  </g>
  <g id="axes_3">
   <g id="patch_14">
    <path d="M 100.8 354.165517 
L 987.84 354.165517 
L 987.84 261.434483 
L 100.8 261.434483 
z
" style="fill: #eeeeee"/>
   </g>
   <g id="matplotlib.axis_5">
    <g id="xtick_13">
     <g id="line2d_37">
      <path d="M 141.12 354.165517 
L 141.12 261.434483 
" clip-path="url(#pcc9a650053)" style="fill: none; stroke-dasharray: 1.85,0.8; stroke-dashoffset: 0; stroke: #b2b2b2; stroke-width: 0.5"/>
     </g>
     <g id="line2d_38">
      <g>
       <use xlink:href="#m04573cee44" x="141.12" y="354.165517" style="stroke: #000000; stroke-width: 0.8"/>
      </g>
     </g>
    </g>
    <g id="xtick_14">
     <g id="line2d_39">
      <path d="M 302.4 354.165517 
L 302.4 261.434483 
" clip-path="url(#pcc9a650053)" style="fill: none; stroke-dasharray: 1.85,0.8; stroke-dashoffset: 0; stroke: #b2b2b2; stroke-width: 0.5"/>
     </g>
     <g id="line2d_40">
      <g>
       <use xlink:href="#m04573cee44" x="302.4" y="354.165517" style="stroke: #000000; stroke-width: 0.8"/>
      </g>
     </g>
    </g>
    <g id="xtick_15">
     <g id="line2d_41">
      <path d="M 463.68 354.165517 
L 463.68 261.434483 
" clip-path="url(#pcc9a650053)" style="fill: none; stroke-dasharray: 1.85,0.8; stroke-dashoffset: 0; stroke: #b2b2b2; stroke-width: 0.5"/>
     </g>
     <g id="line2d_42">
      <g>
       <use xlink:href="#m04573cee44" x="463.68" y="354.165517" style="stroke: #000000; stroke-width: 0.8"/>
      </g>
     </g>
    </g>
    <g id="xtick_16">
     <g id="line2d_43">
      <path d="M 624.96 354.165517 
L 624.96 261.434483 
" clip-path="url(#pcc9a650053)" style="fill: none; stroke-dasharray: 1.85,0.8; stroke-dashoffset: 0; stroke: #b2b2b2; stroke-width: 0.5"/>
     </g>
     <g id="line2d_44">
      <g>
       <use xlink:href="#m04573cee44" x="624.96" y="354.165517" style="stroke: #000000; stroke-width: 0.8"/>
      </g>
     </g>
    </g>
    <g id="xtick_17">
     <g id="line2d_45">
      <path d="M 786.24 354.165517 
L 786.24 261.434483 
" clip-path="url(#pcc9a650053)" style="fill: none; stroke-dasharray: 1.85,0.8; stroke-dashoffset: 0; stroke: #b2b2b2; stroke-width: 0.5"/>
     </g>
     <g id="line2d_46">
      <g>
       <use xlink:href="#m04573cee44" x="786.24" y="354.165517" style="stroke: #000000; stroke-width: 0.8"/>
      </g>
     </g>
    </g>
    <g id="xtick_18">
     <g id="line2d_47">
      <path d="M 947.52 354.165517 
L 947.52 261.434483 
" clip-path="url(#pcc9a650053)" style="fill: none; stroke-dasharray: 1.85,0.8; stroke-dashoffset: 0; stroke: #b2b2b2; stroke-width: 0.5"/>
     </g>
     <g id="line2d_48">
      <g>
       <use xlink:href="#m04573cee44" x="947.52" y="354.165517" style="stroke: #000000; stroke-width: 0.8"/>
      </g>
     </g>
    </g>
   </g>
   <g id="matplotlib.axis_6">
    <g id="ytick_6">
     <g id="line2d_49">
      <path d="M 100.8 344.014642 
L 987.84 344.014642 
" clip-path="url(#pcc9a650053)" style="fill: none; stroke-dasharray: 1.85,0.8; stroke-dashoffset: 0; stroke: #b2b2b2; stroke-width: 0.5"/>
     </g>
     <g id="line2d_50">
      <g>
       <use xlink:href="#m851982ef24" x="100.8" y="344.014642" style="stroke: #000000; stroke-width: 0.8"/>
      </g>
     </g>
     <g id="text_8">
      <!-- 0 V -->
      <g transform="translate(74.36625 349.333548) scale(0.14 -0.14)">
       <use xlink:href="#DejaVuSans-30"/>
       <use xlink:href="#DejaVuSans-20" x="63.623047"/>
       <use xlink:href="#DejaVuSans-56" x="95.410156"/>
      </g>
     </g>
    </g>
    <g id="ytick_7">
     <g id="line2d_51">
      <path d="M 100.8 297.16517 
L 987.84 297.16517 
" clip-path="url(#pcc9a650053)" style="fill: none; stroke-dasharray: 1.85,0.8; stroke-dashoffset: 0; stroke: #b2b2b2; stroke-width: 0.5"/>
     </g>
     <g id="line2d_52">
      <g>
       <use xlink:href="#m851982ef24" x="100.8" y="297.16517" style="stroke: #000000; stroke-width: 0.8"/>
      </g>
     </g>
     <g id="text_9">
      <!-- 1 V -->
      <g transform="translate(74.36625 302.484076) scale(0.14 -0.14)">
       <use xlink:href="#DejaVuSans-31"/>
       <use xlink:href="#DejaVuSans-20" x="63.623047"/>
       <use xlink:href="#DejaVuSans-56" x="95.410156"/>
      </g>
     </g>
    </g>
    <g id="text_10">
     <g id="patch_15">
      <path d="M 34.8768 342.395313 
L 34.8768 273.204688 
L 11.247425 273.204688 
L 11.247425 342.395313 
z
" style="fill: #ffff00; opacity: 0.2; stroke: #eeeeee; stroke-width: 0.5; stroke-linejoin: miter"/>
     </g>
     <!-- CLK BUF -->
     <g transform="translate(26.925238 337.355313) rotate(-90) scale(0.14 -0.14)">
      <defs>
       <path id="DejaVuSans-43" d="M 4122 4306 
L 4122 3641 
Q 3803 3938 3442 4084 
Q 3081 4231 2675 4231 
Q 1875 4231 1450 3742 
Q 1025 3253 1025 2328 
Q 1025 1406 1450 917 
Q 1875 428 2675 428 
Q 3081 428 3442 575 
Q 3803 722 4122 1019 
L 4122 359 
Q 3791 134 3420 21 
Q 3050 -91 2638 -91 
Q 1578 -91 968 557 
Q 359 1206 359 2328 
Q 359 3453 968 4101 
Q 1578 4750 2638 4750 
Q 3056 4750 3426 4639 
Q 3797 4528 4122 4306 
z
" transform="scale(0.015625)"/>
       <path id="DejaVuSans-4b" d="M 628 4666 
L 1259 4666 
L 1259 2694 
L 3353 4666 
L 4166 4666 
L 1850 2491 
L 4331 0 
L 3500 0 
L 1259 2247 
L 1259 0 
L 628 0 
L 628 4666 
z
" transform="scale(0.015625)"/>
      </defs>
      <use xlink:href="#DejaVuSans-43"/>
      <use xlink:href="#DejaVuSans-4c" x="69.824219"/>
      <use xlink:href="#DejaVuSans-4b" x="125.537109"/>
      <use xlink:href="#DejaVuSans-20" x="191.113281"/>
      <use xlink:href="#DejaVuSans-42" x="222.900391"/>
      <use xlink:href="#DejaVuSans-55" x="291.503906"/>
      <use xlink:href="#DejaVuSans-46" x="364.697266"/>
     </g>
    </g>
   </g>
   <g id="line2d_53">
    <path d="M 141.12 344.013403 
L 173.376 344.013403 
L 173.601792 287.795275 
L 213.696 287.795275 
L 213.760512 332.639122 
L 213.825024 343.993239 
L 213.889536 343.92582 
L 213.954048 344.112979 
L 214.01856 344.019719 
L 215.244288 344.011291 
L 222.759936 344.013429 
L 254.016 344.013371 
L 254.17728 287.621932 
L 254.241792 287.921769 
L 254.403072 287.785905 
L 254.8224 287.795275 
L 294.336 287.795275 
L 294.400512 332.599768 
L 294.465024 344.364238 
L 294.529536 343.549699 
L 294.626304 344.088266 
L 294.65856 344.054928 
L 294.852096 343.972583 
L 295.206912 344.03169 
L 295.497216 344.013038 
L 318.624768 344.013404 
L 334.656 344.013406 
L 334.81728 287.710946 
L 334.881792 287.814015 
L 335.172096 287.79996 
L 374.976 287.795275 
L 375.040512 332.643338 
L 375.105024 344.015402 
L 375.169536 343.91988 
L 375.234048 344.106008 
L 375.29856 344.019875 
L 376.5888 344.010836 
L 384.33024 344.013392 
L 415.296 344.013405 
L 415.45728 287.621932 
L 415.521792 287.921769 
L 415.683072 287.78122 
L 416.42496 287.78122 
L 455.616 287.795275 
L 455.680512 332.602579 
L 455.745024 344.370009 
L 455.809536 343.33331 
L 455.906304 344.702018 
L 455.93856 344.090843 
L 456.132096 343.986505 
L 456.486912 344.014006 
L 487.291392 344.013401 
L 495.936 344.013403 
L 496.09728 287.701576 
L 496.161792 287.814015 
L 497.032704 287.795275 
L 536.256 287.795275 
L 536.288256 293.314143 
L 536.41728 343.916717 
L 536.449536 344.043876 
L 536.546304 344.010972 
L 537.643008 344.013398 
L 541.158912 344.101496 
L 541.804032 344.782739 
L 542.54592 345.223686 
L 543.449088 345.495835 
L 544.771584 345.643223 
L 547.126272 345.648752 
L 559.609344 345.442708 
L 560.60928 345.822657 
L 560.93184 346.038399 
L 562.125312 346.785648 
L 562.899456 347.308066 
L 563.157504 347.467964 
L 563.641344 347.805467 
L 566.8992 349.948596 
L 567.06048 349.85724 
L 568.092672 349.324561 
L 568.83456 348.997552 
L 568.963584 348.902916 
L 568.99584 348.964289 
L 569.060352 348.88933 
L 569.221632 348.864968 
L 569.931264 348.573798 
L 570.479616 348.375625 
L 570.76992 348.255363 
L 571.41504 348.023551 
L 576.09216 346.416333 
L 576.576 346.260559 
L 576.608256 347.571923 
L 576.801792 321.270629 
L 577.05984 321.131954 
L 577.70496 320.8532 
L 577.737216 320.943151 
L 577.769472 320.793701 
L 577.801728 320.874282 
L 578.059776 320.679388 
L 578.092032 320.735608 
L 578.124288 320.746852 
L 578.253312 320.597402 
L 578.317824 320.680325 
L 578.382336 320.61661 
L 578.543616 320.573509 
L 580.833792 319.710541 
L 580.962816 319.617311 
L 581.124096 319.615437 
L 582.027264 319.293581 
L 586.317312 317.623397 
L 588.736512 316.092825 
L 594.80064 311.825307 
L 598.3488 309.537178 
L 603.638784 306.515856 
L 605.638656 305.418173 
L 606.993408 302.66764 
L 608.961024 298.025795 
L 613.315584 287.748426 
L 613.99296 286.235188 
L 615.76704 282.393531 
L 616.896 280.018263 
L 616.928256 289.566185 
L 617.05728 342.253805 
L 617.21856 342.234315 
L 625.024512 342.534808 
L 626.927616 342.441015 
L 631.346688 342.569758 
L 631.669248 342.929046 
L 632.314368 343.527408 
L 633.120768 343.952759 
L 634.120704 344.219922 
L 635.636736 344.381801 
L 638.765568 344.442439 
L 657.216 344.529377 
L 657.345024 265.64953 
L 657.474048 266.019641 
L 658.441728 266.586519 
L 662.602752 268.877458 
L 664.118784 269.65516 
L 665.44128 270.296997 
L 668.924928 271.932044 
L 669.763584 272.292785 
L 676.5696 275.150603 
L 676.859904 275.258357 
L 678.698496 275.947044 
L 678.9888 276.054798 
L 680.182272 276.462388 
L 680.537088 276.570142 
L 681.73056 276.977732 
L 681.988608 277.080801 
L 682.407936 277.21198 
L 682.762752 277.315048 
L 683.18208 277.446227 
L 683.536896 277.549296 
L 684.052992 277.727324 
L 684.407808 277.830393 
L 684.827136 277.961571 
L 685.181952 278.06464 
L 685.60128 278.195818 
L 685.956096 278.298887 
L 686.310912 278.383216 
L 691.697664 279.83555 
L 692.149248 279.938619 
L 692.504064 280.022948 
L 694.987776 280.631991 
L 695.536128 280.73506 
L 695.890944 280.819389 
L 697.406976 281.147335 
L 697.536 281.1895 
L 697.568256 291.313671 
L 697.69728 344.12063 
L 697.729536 344.284795 
L 697.794048 344.196343 
L 698.18112 344.191251 
L 737.856 344.064424 
L 737.985024 285.61209 
L 738.081792 285.972831 
L 738.533376 285.996256 
L 738.759168 286.014995 
L 741.113856 286.122749 
L 741.436416 286.155544 
L 743.82336 286.263298 
L 744.14592 286.296092 
L 746.919936 286.403846 
L 747.242496 286.436641 
L 750.306816 286.544394 
L 750.629376 286.577189 
L 754.080768 286.684943 
L 754.403328 286.717737 
L 758.33856 286.825491 
L 758.66112 286.858286 
L 763.273728 286.96604 
L 763.596288 286.998834 
L 769.176576 287.106588 
L 769.499136 287.139383 
L 776.434176 287.247137 
L 776.756736 287.279931 
L 778.176 287.279931 
L 778.208256 293.5765 
L 778.33728 344.072562 
L 778.466304 344.027496 
L 792.110592 344.026819 
L 818.496 344.026811 
L 818.65728 287.233082 
L 818.721792 287.34552 
L 819.592704 287.326781 
L 858.816 287.326781 
L 858.945024 344.372549 
L 859.106304 344.099913 
L 859.364352 343.995536 
L 859.719168 344.046505 
L 860.009472 344.026678 
L 894.878208 344.026816 
L 899.136 344.026818 
L 899.29728 287.083163 
L 899.361792 287.612562 
L 899.45856 287.130013 
L 899.523072 287.308041 
L 899.974656 287.326781 
L 939.456 287.326781 
L 939.488256 295.77374 
L 939.61728 343.971097 
L 939.649536 344.107324 
L 939.714048 343.976987 
L 939.746304 343.935879 
L 939.810816 343.996346 
L 939.972096 344.089339 
L 940.004352 344.054856 
L 940.197888 344.026044 
L 945.197568 344.026828 
L 947.52 344.026809 
L 947.52 344.026809 
" clip-path="url(#pcc9a650053)" style="fill: none; stroke: #0000ff; stroke-width: 2; stroke-linecap: square"/>
   </g>
   <g id="patch_16">
    <path d="M 100.8 354.165517 
L 100.8 261.434483 
" style="fill: none; stroke: #bcbcbc; stroke-width: 0.8; stroke-linejoin: miter; stroke-linecap: square"/>
   </g>
   <g id="patch_17">
    <path d="M 987.84 354.165517 
L 987.84 261.434483 
" style="fill: none; stroke: #bcbcbc; stroke-width: 0.8; stroke-linejoin: miter; stroke-linecap: square"/>
   </g>
   <g id="patch_18">
    <path d="M 100.8 354.165517 
L 987.84 354.165517 
" style="fill: none; stroke: #bcbcbc; stroke-width: 0.8; stroke-linejoin: miter; stroke-linecap: square"/>
   </g>
   <g id="patch_19">
    <path d="M 100.8 261.434483 
L 987.84 261.434483 
" style="fill: none; stroke: #bcbcbc; stroke-width: 0.8; stroke-linejoin: miter; stroke-linecap: square"/>
   </g>
  </g>
  <g id="axes_4">
   <g id="patch_20">
    <path d="M 100.8 465.442759 
L 987.84 465.442759 
L 987.84 372.711724 
L 100.8 372.711724 
z
" style="fill: #eeeeee"/>
   </g>
   <g id="matplotlib.axis_7">
    <g id="xtick_19">
     <g id="line2d_54">
      <path d="M 141.12 465.442759 
L 141.12 372.711724 
" clip-path="url(#p22e4b18dd9)" style="fill: none; stroke-dasharray: 1.85,0.8; stroke-dashoffset: 0; stroke: #b2b2b2; stroke-width: 0.5"/>
     </g>
     <g id="line2d_55">
      <g>
       <use xlink:href="#m04573cee44" x="141.12" y="465.442759" style="stroke: #000000; stroke-width: 0.8"/>
      </g>
     </g>
    </g>
    <g id="xtick_20">
     <g id="line2d_56">
      <path d="M 302.4 465.442759 
L 302.4 372.711724 
" clip-path="url(#p22e4b18dd9)" style="fill: none; stroke-dasharray: 1.85,0.8; stroke-dashoffset: 0; stroke: #b2b2b2; stroke-width: 0.5"/>
     </g>
     <g id="line2d_57">
      <g>
       <use xlink:href="#m04573cee44" x="302.4" y="465.442759" style="stroke: #000000; stroke-width: 0.8"/>
      </g>
     </g>
    </g>
    <g id="xtick_21">
     <g id="line2d_58">
      <path d="M 463.68 465.442759 
L 463.68 372.711724 
" clip-path="url(#p22e4b18dd9)" style="fill: none; stroke-dasharray: 1.85,0.8; stroke-dashoffset: 0; stroke: #b2b2b2; stroke-width: 0.5"/>
     </g>
     <g id="line2d_59">
      <g>
       <use xlink:href="#m04573cee44" x="463.68" y="465.442759" style="stroke: #000000; stroke-width: 0.8"/>
      </g>
     </g>
    </g>
    <g id="xtick_22">
     <g id="line2d_60">
      <path d="M 624.96 465.442759 
L 624.96 372.711724 
" clip-path="url(#p22e4b18dd9)" style="fill: none; stroke-dasharray: 1.85,0.8; stroke-dashoffset: 0; stroke: #b2b2b2; stroke-width: 0.5"/>
     </g>
     <g id="line2d_61">
      <g>
       <use xlink:href="#m04573cee44" x="624.96" y="465.442759" style="stroke: #000000; stroke-width: 0.8"/>
      </g>
     </g>
    </g>
    <g id="xtick_23">
     <g id="line2d_62">
      <path d="M 786.24 465.442759 
L 786.24 372.711724 
" clip-path="url(#p22e4b18dd9)" style="fill: none; stroke-dasharray: 1.85,0.8; stroke-dashoffset: 0; stroke: #b2b2b2; stroke-width: 0.5"/>
     </g>
     <g id="line2d_63">
      <g>
       <use xlink:href="#m04573cee44" x="786.24" y="465.442759" style="stroke: #000000; stroke-width: 0.8"/>
      </g>
     </g>
    </g>
    <g id="xtick_24">
     <g id="line2d_64">
      <path d="M 947.52 465.442759 
L 947.52 372.711724 
" clip-path="url(#p22e4b18dd9)" style="fill: none; stroke-dasharray: 1.85,0.8; stroke-dashoffset: 0; stroke: #b2b2b2; stroke-width: 0.5"/>
     </g>
     <g id="line2d_65">
      <g>
       <use xlink:href="#m04573cee44" x="947.52" y="465.442759" style="stroke: #000000; stroke-width: 0.8"/>
      </g>
     </g>
    </g>
   </g>
   <g id="matplotlib.axis_8">
    <g id="ytick_8">
     <g id="line2d_66">
      <path d="M 100.8 439.614935 
L 987.84 439.614935 
" clip-path="url(#p22e4b18dd9)" style="fill: none; stroke-dasharray: 1.85,0.8; stroke-dashoffset: 0; stroke: #b2b2b2; stroke-width: 0.5"/>
     </g>
     <g id="line2d_67">
      <g>
       <use xlink:href="#m851982ef24" x="100.8" y="439.614935" style="stroke: #000000; stroke-width: 0.8"/>
      </g>
     </g>
     <g id="text_11">
      <!-- 0 V -->
      <g transform="translate(74.36625 444.933842) scale(0.14 -0.14)">
       <use xlink:href="#DejaVuSans-30"/>
       <use xlink:href="#DejaVuSans-20" x="63.623047"/>
       <use xlink:href="#DejaVuSans-56" x="95.410156"/>
      </g>
     </g>
    </g>
    <g id="ytick_9">
     <g id="line2d_68">
      <path d="M 100.8 401.686472 
L 987.84 401.686472 
" clip-path="url(#p22e4b18dd9)" style="fill: none; stroke-dasharray: 1.85,0.8; stroke-dashoffset: 0; stroke: #b2b2b2; stroke-width: 0.5"/>
     </g>
     <g id="line2d_69">
      <g>
       <use xlink:href="#m851982ef24" x="100.8" y="401.686472" style="stroke: #000000; stroke-width: 0.8"/>
      </g>
     </g>
     <g id="text_12">
      <!-- 1 V -->
      <g transform="translate(74.36625 407.005378) scale(0.14 -0.14)">
       <use xlink:href="#DejaVuSans-31"/>
       <use xlink:href="#DejaVuSans-20" x="63.623047"/>
       <use xlink:href="#DejaVuSans-56" x="95.410156"/>
      </g>
     </g>
    </g>
    <g id="text_13">
     <g id="patch_21">
      <path d="M 34.8768 454.693023 
L 34.8768 383.46146 
L 11.247425 383.46146 
L 11.247425 454.693023 
z
" style="fill: #ffff00; opacity: 0.2; stroke: #eeeeee; stroke-width: 0.5; stroke-linejoin: miter"/>
     </g>
     <!-- DFF OUT -->
     <g transform="translate(26.925238 449.653023) rotate(-90) scale(0.14 -0.14)">
      <defs>
       <path id="DejaVuSans-4f" d="M 2522 4238 
Q 1834 4238 1429 3725 
Q 1025 3213 1025 2328 
Q 1025 1447 1429 934 
Q 1834 422 2522 422 
Q 3209 422 3611 934 
Q 4013 1447 4013 2328 
Q 4013 3213 3611 3725 
Q 3209 4238 2522 4238 
z
M 2522 4750 
Q 3503 4750 4090 4092 
Q 4678 3434 4678 2328 
Q 4678 1225 4090 567 
Q 3503 -91 2522 -91 
Q 1538 -91 948 565 
Q 359 1222 359 2328 
Q 359 3434 948 4092 
Q 1538 4750 2522 4750 
z
" transform="scale(0.015625)"/>
       <path id="DejaVuSans-54" d="M -19 4666 
L 3928 4666 
L 3928 4134 
L 2272 4134 
L 2272 0 
L 1638 0 
L 1638 4134 
L -19 4134 
L -19 4666 
z
" transform="scale(0.015625)"/>
      </defs>
      <use xlink:href="#DejaVuSans-44"/>
      <use xlink:href="#DejaVuSans-46" x="77.001953"/>
      <use xlink:href="#DejaVuSans-46" x="134.521484"/>
      <use xlink:href="#DejaVuSans-20" x="192.041016"/>
      <use xlink:href="#DejaVuSans-4f" x="223.828125"/>
      <use xlink:href="#DejaVuSans-55" x="302.539062"/>
      <use xlink:href="#DejaVuSans-54" x="375.732422"/>
     </g>
    </g>
   </g>
   <g id="line2d_70">
    <path d="M 141.12 410.996772 
L 173.408256 411.043045 
L 173.440512 412.613283 
L 173.601792 439.61725 
L 174.150144 439.613181 
L 184.859136 439.613928 
L 254.048256 439.615513 
L 254.080512 439.767135 
L 254.112768 439.516333 
L 254.306304 435.813365 
L 254.596608 435.071105 
L 254.693376 434.541624 
L 255.14496 427.896557 
L 255.370752 412.278375 
L 255.596544 394.468685 
L 255.757824 394.157672 
L 255.983616 394.096987 
L 256.951296 394.100779 
L 295.755264 394.176636 
L 296.239104 396.630608 
L 296.59392 396.016167 
L 297.948672 394.411793 
L 299.625984 394.131122 
L 300.722688 394.112158 
L 334.720512 394.005958 
L 334.752768 394.563507 
L 334.785024 397.320906 
L 334.914048 439.599388 
L 334.97856 439.566008 
L 335.13984 439.606986 
L 335.526912 439.614275 
L 368.36352 439.613889 
L 415.328256 439.61549 
L 415.360512 439.766607 
L 415.392768 439.518434 
L 415.586304 435.724992 
L 415.876608 434.854534 
L 415.908864 434.750231 
L 416.1024 430.252294 
L 416.521728 417.157871 
L 416.9088 394.225943 
L 417.102336 394.104572 
L 418.102272 394.096987 
L 495.968256 394.115951 
L 496.000512 394.244908 
L 496.065024 394.070437 
L 496.355328 394.093194 
L 541.191168 394.195601 
L 542.803968 396.251323 
L 544.578048 398.959416 
L 549.061632 406.007283 
L 549.706752 407.516835 
L 549.997056 408.490459 
L 550.061568 408.471116 
L 550.12608 408.561765 
L 551.061504 412.676624 
L 551.5776 414.821857 
L 551.642112 414.719451 
L 551.706624 414.988743 
L 552.158208 417.379374 
L 552.190464 417.552328 
L 552.22272 417.424888 
L 552.254976 417.249279 
L 552.319488 417.388097 
L 552.54528 419.059225 
L 552.771072 420.027918 
L 552.803328 419.85231 
L 552.86784 419.923994 
L 552.964608 420.260041 
L 553.1904 421.940651 
L 553.448448 422.772422 
L 553.480704 422.632087 
L 553.545216 422.835004 
L 553.771008 424.509166 
L 554.061312 425.878384 
L 554.093568 425.290872 
L 554.15808 426.074853 
L 554.351616 427.144815 
L 554.577408 428.132093 
L 554.609664 427.814253 
L 554.706432 428.019825 
L 554.770944 428.284565 
L 554.932224 429.670472 
L 556.512768 436.280606 
L 556.545024 435.873255 
L 556.609536 435.991781 
L 557.093376 438.586315 
L 557.125632 438.347821 
L 557.190144 438.572016 
L 557.2224 438.438812 
L 557.254656 439.311701 
L 557.351424 438.963438 
L 557.803008 441.301007 
L 557.835264 441.056217 
L 557.86752 441.156462 
L 557.996544 441.658483 
L 558.0288 441.561159 
L 558.061056 441.793432 
L 558.222336 442.788144 
L 558.609408 443.968364 
L 558.641664 443.735104 
L 558.67392 444.129181 
L 558.706176 443.833339 
L 558.964224 444.770172 
L 558.99648 444.959435 
L 559.028736 444.663214 
L 559.093248 444.778137 
L 559.254528 445.262104 
L 559.415808 445.980849 
L 560.060928 447.268899 
L 560.093184 447.053466 
L 560.157696 447.172182 
L 560.351232 447.482057 
L 560.415744 447.751729 
L 560.480256 448.134427 
L 560.512512 447.887892 
L 560.544768 447.884099 
L 560.738304 448.630531 
L 560.77056 448.5835 
L 560.802816 448.67377 
L 560.996352 449.36255 
L 561.383424 450.222389 
L 561.41568 450.031988 
L 561.447936 450.086984 
L 561.57696 450.632775 
L 561.609216 450.530368 
L 561.673728 450.572468 
L 562.318848 452.313385 
L 563.415552 454.578473 
L 563.738112 455.293804 
L 563.770368 455.277115 
L 563.802624 455.384073 
L 563.963904 455.522891 
L 564.125184 456.037581 
L 564.15744 455.925692 
L 564.189696 456.078923 
L 564.221952 456.013306 
L 565.157376 458.062202 
L 566.866944 461.227712 
L 566.931456 461.185232 
L 567.124992 461.104823 
L 567.157248 461.198127 
L 567.189504 461.118478 
L 567.350784 460.763846 
L 568.060416 459.551274 
L 568.221696 459.124199 
L 568.253952 459.223951 
L 568.286208 459.002069 
L 568.35072 459.067306 
L 569.447424 457.245982 
L 569.47968 457.316149 
L 569.511936 457.134472 
L 570.28608 456.114196 
L 570.415104 455.964379 
L 570.44736 456.128988 
L 570.479616 456.089543 
L 570.60864 455.747428 
L 570.963456 455.522891 
L 571.124736 455.323767 
L 571.382784 455.044234 
L 571.608576 454.65433 
L 571.640832 454.742324 
L 571.673088 454.728669 
L 571.866624 454.312215 
L 571.931136 454.407415 
L 571.963392 454.214359 
L 571.995648 454.401726 
L 572.06016 454.146088 
L 572.124672 454.037234 
L 572.156928 454.240909 
L 572.22144 454.024717 
L 572.38272 453.741392 
L 572.86656 453.262355 
L 572.898816 453.453135 
L 572.963328 453.178533 
L 572.995584 453.368175 
L 573.124608 453.027957 
L 573.156864 453.20129 
L 573.221376 452.948687 
L 573.67296 452.716185 
L 573.963264 452.394172 
L 574.576128 451.47289 
L 574.64064 451.604123 
L 574.705152 451.647361 
L 574.769664 451.299178 
L 574.80192 451.427376 
L 574.834176 451.379965 
L 574.930944 451.421687 
L 574.9632 451.045816 
L 575.059968 450.987785 
L 575.28576 450.782971 
L 575.350272 450.998784 
L 575.414784 450.893722 
L 575.543808 450.548194 
L 575.576064 450.531126 
L 575.60832 450.641498 
L 575.640576 450.469303 
L 575.7696 450.395342 
L 575.801856 450.568676 
L 575.866368 450.445408 
L 575.898624 450.442753 
L 576.059904 450.231871 
L 576.479232 449.958027 
L 576.801792 449.645876 
L 577.027584 449.116774 
L 577.124352 448.971887 
L 577.156608 449.236628 
L 577.22112 448.856585 
L 577.253376 449.10843 
L 577.317888 448.759867 
L 577.479168 448.600188 
L 577.511424 448.867963 
L 577.575936 448.585775 
L 577.608192 448.65253 
L 577.640448 448.578948 
L 577.70496 448.380203 
L 577.737216 448.690079 
L 577.769472 448.319897 
L 577.801728 448.502333 
L 577.833984 448.478059 
L 577.930752 448.520159 
L 577.963008 448.107877 
L 577.995264 448.103325 
L 578.02752 448.412442 
L 578.059776 448.024055 
L 578.092032 448.079431 
L 578.124288 448.25997 
L 578.156544 447.956163 
L 578.1888 447.950853 
L 578.221056 448.155287 
L 578.253312 447.871962 
L 578.317824 448.076017 
L 578.446848 447.760831 
L 578.575872 447.702422 
L 578.608128 447.870824 
L 578.67264 447.744901 
L 578.866176 447.606842 
L 579.027456 447.52302 
L 579.511296 447.068258 
L 579.898368 446.381752 
L 579.930624 446.522846 
L 579.96288 446.613116 
L 580.091904 446.10753 
L 580.511232 445.707005 
L 580.543488 446.0916 
L 580.608 445.807136 
L 580.640256 445.850754 
L 580.76928 445.427852 
L 580.801536 445.66718 
L 580.866048 445.397888 
L 581.027328 445.34934 
L 581.156352 445.215452 
L 581.543424 445.022776 
L 581.57568 445.196109 
L 581.640192 445.024672 
L 581.89824 444.962849 
L 583.285248 443.720691 
L 583.382016 443.145089 
L 583.414272 443.147213 
L 583.478784 443.093468 
L 583.51104 443.459744 
L 583.575552 442.942703 
L 583.640064 443.416885 
L 583.67232 443.1317 
L 583.736832 443.305451 
L 583.769088 442.827514 
L 583.8336 443.140083 
L 583.865856 442.885127 
L 583.898112 442.719835 
L 583.930368 443.150209 
L 583.99488 443.004185 
L 584.059392 442.537589 
L 584.123904 442.590613 
L 584.252928 442.425093 
L 584.285184 442.438747 
L 584.31744 442.812305 
L 584.381952 442.63992 
L 584.47872 442.349729 
L 584.510976 442.647013 
L 584.543232 442.298715 
L 584.575488 442.314039 
L 584.607744 442.501784 
L 584.64 442.287337 
L 584.672256 442.293064 
L 585.027072 442.202643 
L 586.188288 441.103097 
L 586.833408 440.212612 
L 586.930176 440.059495 
L 586.962432 439.670576 
L 587.0592 439.690724 
L 587.155968 439.645079 
L 587.252736 439.543254 
L 588.02688 438.246438 
L 588.123648 437.740662 
L 588.155904 437.831994 
L 588.18816 437.830591 
L 588.317184 437.135779 
L 588.413952 437.097092 
L 588.478464 437.385083 
L 588.51072 437.171167 
L 588.704256 437.042741 
L 589.413888 435.809573 
L 589.671936 434.579173 
L 589.704192 434.611412 
L 589.736448 435.23837 
L 589.80096 434.556037 
L 589.833216 434.590931 
L 589.865472 434.905358 
L 589.897728 434.526073 
L 589.929984 434.542383 
L 590.059008 434.589414 
L 590.091264 434.534797 
L 591.220224 432.365289 
L 591.25248 431.956799 
L 591.316992 432.121788 
L 591.41376 432.314465 
L 591.607296 431.803189 
L 592.478208 430.358494 
L 592.510464 430.405525 
L 592.54272 430.303498 
L 592.704 430.058859 
L 592.962048 429.689056 
L 593.18784 429.074995 
L 593.220096 429.243397 
L 593.252352 429.07234 
L 593.445888 428.594062 
L 593.639424 428.275842 
L 593.67168 428.482173 
L 593.703936 428.200364 
L 593.99424 427.944726 
L 594.026496 428.063443 
L 594.091008 427.923107 
L 595.026432 426.329353 
L 595.28448 425.49872 
L 595.510272 424.99503 
L 595.542528 425.036751 
L 595.574784 424.912346 
L 595.736064 424.534199 
L 596.703744 422.206909 
L 596.865024 422.013853 
L 596.89728 421.419134 
L 596.994048 421.570848 
L 597.05856 421.607639 
L 597.123072 421.370586 
L 597.187584 421.450236 
L 597.800448 420.334001 
L 598.123008 419.737766 
L 598.542336 419.062639 
L 598.574592 418.598774 
L 598.67136 418.753901 
L 598.735872 418.830517 
L 598.800384 418.741764 
L 599.090688 418.156907 
L 600.155136 416.574532 
L 600.187392 416.608288 
L 600.251904 416.5275 
L 600.413184 416.312446 
L 600.768 415.771965 
L 600.864768 415.91268 
L 600.993792 416.020776 
L 601.09056 416.455057 
L 601.155072 417.216281 
L 601.348608 429.039721 
L 601.542144 439.038309 
L 601.767936 439.101384 
L 604.574208 439.212438 
L 605.670912 439.150084 
L 606.348288 438.59007 
L 607.186944 438.226071 
L 608.283648 438.01553 
L 610.025472 437.942935 
L 614.541312 438.075267 
L 625.185792 438.405966 
L 626.959872 438.346873 
L 631.378944 438.475185 
L 631.701504 438.778423 
L 632.37888 439.268815 
L 633.217536 439.605783 
L 634.411008 439.831727 
L 636.314112 439.946635 
L 641.378304 439.964897 
L 652.474368 440.036586 
L 655.990272 440.046599 
L 657.248256 440.05134 
L 657.280512 440.367398 
L 657.53856 430.81667 
L 657.764352 428.778015 
L 657.893376 425.496823 
L 658.054656 414.825271 
L 658.441728 376.926771 
L 658.473984 376.93815 
L 659.602944 377.453977 
L 663.086592 378.971115 
L 665.150976 379.81692 
L 666.699264 380.423775 
L 677.956608 384.2811 
L 678.279168 384.391093 
L 678.956544 384.580735 
L 679.569408 384.74762 
L 681.149952 385.191383 
L 681.56928 385.301376 
L 682.988544 385.684453 
L 683.407872 385.794446 
L 684.214272 385.995467 
L 684.762624 386.135802 
L 685.698048 386.351994 
L 686.697984 386.590944 
L 687.633408 386.807136 
L 688.439808 386.974021 
L 692.471808 387.808447 
L 692.987904 387.91844 
L 694.47168 388.195318 
L 694.95552 388.301517 
L 695.60064 388.41151 
L 697.503744 388.741487 
L 698.084352 388.832516 
L 698.697216 388.942508 
L 701.568 389.382479 
L 701.922816 389.439371 
L 702.664704 389.549364 
L 719.437824 391.411651 
L 720.470016 391.521644 
L 722.727936 391.677151 
L 723.953664 391.787143 
L 726.211584 391.94265 
L 727.824384 392.052642 
L 729.759744 392.170221 
L 731.4048 392.280213 
L 732.985344 392.35607 
L 734.759424 392.454684 
L 735.049728 392.469855 
L 737.017344 392.579848 
L 737.888256 392.606398 
L 737.920512 392.84914 
L 737.985024 392.591227 
L 738.17856 392.617776 
L 740.2752 392.720183 
L 740.565504 392.739148 
L 743.210496 392.84914 
L 744.46848 392.887069 
L 746.952192 392.985683 
L 747.242496 393.000854 
L 750.371328 393.110846 
L 750.855168 393.114639 
L 754.113024 393.213253 
L 754.403328 393.228425 
L 758.370816 393.327039 
L 758.66112 393.34221 
L 763.33824 393.452203 
L 764.30592 393.459788 
L 765.11232 393.467374 
L 765.499392 393.493924 
L 771.466752 393.603916 
L 772.434432 393.607709 
L 778.272768 393.664602 
L 778.401792 393.687359 
L 779.30496 393.683566 
L 779.724288 393.721495 
L 818.528256 393.736666 
L 818.560512 393.865623 
L 818.625024 393.691152 
L 818.915328 393.713909 
L 899.168256 393.717702 
L 899.200512 393.911137 
L 899.265024 393.717702 
L 899.45856 393.698738 
L 900.58752 393.721495 
L 947.52 393.721495 
L 947.52 393.721495 
" clip-path="url(#p22e4b18dd9)" style="fill: none; stroke: #ff00ff; stroke-width: 2; stroke-linecap: square"/>
   </g>
   <g id="patch_22">
    <path d="M 100.8 465.442759 
L 100.8 372.711724 
" style="fill: none; stroke: #bcbcbc; stroke-width: 0.8; stroke-linejoin: miter; stroke-linecap: square"/>
   </g>
   <g id="patch_23">
    <path d="M 987.84 465.442759 
L 987.84 372.711724 
" style="fill: none; stroke: #bcbcbc; stroke-width: 0.8; stroke-linejoin: miter; stroke-linecap: square"/>
   </g>
   <g id="patch_24">
    <path d="M 100.8 465.442759 
L 987.84 465.442759 
" style="fill: none; stroke: #bcbcbc; stroke-width: 0.8; stroke-linejoin: miter; stroke-linecap: square"/>
   </g>
   <g id="patch_25">
    <path d="M 100.8 372.711724 
L 987.84 372.711724 
" style="fill: none; stroke: #bcbcbc; stroke-width: 0.8; stroke-linejoin: miter; stroke-linecap: square"/>
   </g>
  </g>
  <g id="axes_5">
   <g id="patch_26">
    <path d="M 100.8 576.72 
L 987.84 576.72 
L 987.84 483.988966 
L 100.8 483.988966 
z
" style="fill: #eeeeee"/>
   </g>
   <g id="matplotlib.axis_9">
    <g id="xtick_25">
     <g id="line2d_71">
      <path d="M 141.12 576.72 
L 141.12 483.988966 
" clip-path="url(#p41f7b39966)" style="fill: none; stroke-dasharray: 1.85,0.8; stroke-dashoffset: 0; stroke: #b2b2b2; stroke-width: 0.5"/>
     </g>
     <g id="line2d_72">
      <g>
       <use xlink:href="#m04573cee44" x="141.12" y="576.72" style="stroke: #000000; stroke-width: 0.8"/>
      </g>
     </g>
     <g id="text_14">
      <!-- 0 s -->
      <g transform="translate(130.795 590.857813) scale(0.14 -0.14)">
       <defs>
        <path id="DejaVuSans-73" d="M 2834 3397 
L 2834 2853 
Q 2591 2978 2328 3040 
Q 2066 3103 1784 3103 
Q 1356 3103 1142 2972 
Q 928 2841 928 2578 
Q 928 2378 1081 2264 
Q 1234 2150 1697 2047 
L 1894 2003 
Q 2506 1872 2764 1633 
Q 3022 1394 3022 966 
Q 3022 478 2636 193 
Q 2250 -91 1575 -91 
Q 1294 -91 989 -36 
Q 684 19 347 128 
L 347 722 
Q 666 556 975 473 
Q 1284 391 1588 391 
Q 1994 391 2212 530 
Q 2431 669 2431 922 
Q 2431 1156 2273 1281 
Q 2116 1406 1581 1522 
L 1381 1569 
Q 847 1681 609 1914 
Q 372 2147 372 2553 
Q 372 3047 722 3315 
Q 1072 3584 1716 3584 
Q 2034 3584 2315 3537 
Q 2597 3491 2834 3397 
z
" transform="scale(0.015625)"/>
       </defs>
       <use xlink:href="#DejaVuSans-30"/>
       <use xlink:href="#DejaVuSans-20" x="63.623047"/>
       <use xlink:href="#DejaVuSans-73" x="95.410156"/>
      </g>
     </g>
    </g>
    <g id="xtick_26">
     <g id="line2d_73">
      <path d="M 302.4 576.72 
L 302.4 483.988966 
" clip-path="url(#p41f7b39966)" style="fill: none; stroke-dasharray: 1.85,0.8; stroke-dashoffset: 0; stroke: #b2b2b2; stroke-width: 0.5"/>
     </g>
     <g id="line2d_74">
      <g>
       <use xlink:href="#m04573cee44" x="302.4" y="576.72" style="stroke: #000000; stroke-width: 0.8"/>
      </g>
     </g>
     <g id="text_15">
      <!-- 50 ns -->
      <g transform="translate(283.185 590.857813) scale(0.14 -0.14)">
       <defs>
        <path id="DejaVuSans-35" d="M 691 4666 
L 3169 4666 
L 3169 4134 
L 1269 4134 
L 1269 2991 
Q 1406 3038 1543 3061 
Q 1681 3084 1819 3084 
Q 2600 3084 3056 2656 
Q 3513 2228 3513 1497 
Q 3513 744 3044 326 
Q 2575 -91 1722 -91 
Q 1428 -91 1123 -41 
Q 819 9 494 109 
L 494 744 
Q 775 591 1075 516 
Q 1375 441 1709 441 
Q 2250 441 2565 725 
Q 2881 1009 2881 1497 
Q 2881 1984 2565 2268 
Q 2250 2553 1709 2553 
Q 1456 2553 1204 2497 
Q 953 2441 691 2322 
L 691 4666 
z
" transform="scale(0.015625)"/>
        <path id="DejaVuSans-6e" d="M 3513 2113 
L 3513 0 
L 2938 0 
L 2938 2094 
Q 2938 2591 2744 2837 
Q 2550 3084 2163 3084 
Q 1697 3084 1428 2787 
Q 1159 2491 1159 1978 
L 1159 0 
L 581 0 
L 581 3500 
L 1159 3500 
L 1159 2956 
Q 1366 3272 1645 3428 
Q 1925 3584 2291 3584 
Q 2894 3584 3203 3211 
Q 3513 2838 3513 2113 
z
" transform="scale(0.015625)"/>
       </defs>
       <use xlink:href="#DejaVuSans-35"/>
       <use xlink:href="#DejaVuSans-30" x="63.623047"/>
       <use xlink:href="#DejaVuSans-20" x="127.246094"/>
       <use xlink:href="#DejaVuSans-6e" x="159.033203"/>
       <use xlink:href="#DejaVuSans-73" x="222.412109"/>
      </g>
     </g>
    </g>
    <g id="xtick_27">
     <g id="line2d_75">
      <path d="M 463.68 576.72 
L 463.68 483.988966 
" clip-path="url(#p41f7b39966)" style="fill: none; stroke-dasharray: 1.85,0.8; stroke-dashoffset: 0; stroke: #b2b2b2; stroke-width: 0.5"/>
     </g>
     <g id="line2d_76">
      <g>
       <use xlink:href="#m04573cee44" x="463.68" y="576.72" style="stroke: #000000; stroke-width: 0.8"/>
      </g>
     </g>
     <g id="text_16">
      <!-- 100 ns -->
      <g transform="translate(440.01125 590.857813) scale(0.14 -0.14)">
       <use xlink:href="#DejaVuSans-31"/>
       <use xlink:href="#DejaVuSans-30" x="63.623047"/>
       <use xlink:href="#DejaVuSans-30" x="127.246094"/>
       <use xlink:href="#DejaVuSans-20" x="190.869141"/>
       <use xlink:href="#DejaVuSans-6e" x="222.65625"/>
       <use xlink:href="#DejaVuSans-73" x="286.035156"/>
      </g>
     </g>
    </g>
    <g id="xtick_28">
     <g id="line2d_77">
      <path d="M 624.96 576.72 
L 624.96 483.988966 
" clip-path="url(#p41f7b39966)" style="fill: none; stroke-dasharray: 1.85,0.8; stroke-dashoffset: 0; stroke: #b2b2b2; stroke-width: 0.5"/>
     </g>
     <g id="line2d_78">
      <g>
       <use xlink:href="#m04573cee44" x="624.96" y="576.72" style="stroke: #000000; stroke-width: 0.8"/>
      </g>
     </g>
     <g id="text_17">
      <!-- 150 ns -->
      <g transform="translate(601.29125 590.857813) scale(0.14 -0.14)">
       <use xlink:href="#DejaVuSans-31"/>
       <use xlink:href="#DejaVuSans-35" x="63.623047"/>
       <use xlink:href="#DejaVuSans-30" x="127.246094"/>
       <use xlink:href="#DejaVuSans-20" x="190.869141"/>
       <use xlink:href="#DejaVuSans-6e" x="222.65625"/>
       <use xlink:href="#DejaVuSans-73" x="286.035156"/>
      </g>
     </g>
    </g>
    <g id="xtick_29">
     <g id="line2d_79">
      <path d="M 786.24 576.72 
L 786.24 483.988966 
" clip-path="url(#p41f7b39966)" style="fill: none; stroke-dasharray: 1.85,0.8; stroke-dashoffset: 0; stroke: #b2b2b2; stroke-width: 0.5"/>
     </g>
     <g id="line2d_80">
      <g>
       <use xlink:href="#m04573cee44" x="786.24" y="576.72" style="stroke: #000000; stroke-width: 0.8"/>
      </g>
     </g>
     <g id="text_18">
      <!-- 200 ns -->
      <g transform="translate(762.57125 590.857813) scale(0.14 -0.14)">
       <use xlink:href="#DejaVuSans-32"/>
       <use xlink:href="#DejaVuSans-30" x="63.623047"/>
       <use xlink:href="#DejaVuSans-30" x="127.246094"/>
       <use xlink:href="#DejaVuSans-20" x="190.869141"/>
       <use xlink:href="#DejaVuSans-6e" x="222.65625"/>
       <use xlink:href="#DejaVuSans-73" x="286.035156"/>
      </g>
     </g>
    </g>
    <g id="xtick_30">
     <g id="line2d_81">
      <path d="M 947.52 576.72 
L 947.52 483.988966 
" clip-path="url(#p41f7b39966)" style="fill: none; stroke-dasharray: 1.85,0.8; stroke-dashoffset: 0; stroke: #b2b2b2; stroke-width: 0.5"/>
     </g>
     <g id="line2d_82">
      <g>
       <use xlink:href="#m04573cee44" x="947.52" y="576.72" style="stroke: #000000; stroke-width: 0.8"/>
      </g>
     </g>
     <g id="text_19">
      <!-- 250 ns -->
      <g transform="translate(923.85125 590.857813) scale(0.14 -0.14)">
       <use xlink:href="#DejaVuSans-32"/>
       <use xlink:href="#DejaVuSans-35" x="63.623047"/>
       <use xlink:href="#DejaVuSans-30" x="127.246094"/>
       <use xlink:href="#DejaVuSans-20" x="190.869141"/>
       <use xlink:href="#DejaVuSans-6e" x="222.65625"/>
       <use xlink:href="#DejaVuSans-73" x="286.035156"/>
      </g>
     </g>
    </g>
    <g id="text_20">
     <!-- Time -->
     <g transform="translate(527.192969 608.407187) scale(0.14 -0.14)">
      <defs>
       <path id="DejaVuSans-69" d="M 603 3500 
L 1178 3500 
L 1178 0 
L 603 0 
L 603 3500 
z
M 603 4863 
L 1178 4863 
L 1178 4134 
L 603 4134 
L 603 4863 
z
" transform="scale(0.015625)"/>
       <path id="DejaVuSans-6d" d="M 3328 2828 
Q 3544 3216 3844 3400 
Q 4144 3584 4550 3584 
Q 5097 3584 5394 3201 
Q 5691 2819 5691 2113 
L 5691 0 
L 5113 0 
L 5113 2094 
Q 5113 2597 4934 2840 
Q 4756 3084 4391 3084 
Q 3944 3084 3684 2787 
Q 3425 2491 3425 1978 
L 3425 0 
L 2847 0 
L 2847 2094 
Q 2847 2600 2669 2842 
Q 2491 3084 2119 3084 
Q 1678 3084 1418 2786 
Q 1159 2488 1159 1978 
L 1159 0 
L 581 0 
L 581 3500 
L 1159 3500 
L 1159 2956 
Q 1356 3278 1631 3431 
Q 1906 3584 2284 3584 
Q 2666 3584 2933 3390 
Q 3200 3197 3328 2828 
z
" transform="scale(0.015625)"/>
       <path id="DejaVuSans-65" d="M 3597 1894 
L 3597 1613 
L 953 1613 
Q 991 1019 1311 708 
Q 1631 397 2203 397 
Q 2534 397 2845 478 
Q 3156 559 3463 722 
L 3463 178 
Q 3153 47 2828 -22 
Q 2503 -91 2169 -91 
Q 1331 -91 842 396 
Q 353 884 353 1716 
Q 353 2575 817 3079 
Q 1281 3584 2069 3584 
Q 2775 3584 3186 3129 
Q 3597 2675 3597 1894 
z
M 3022 2063 
Q 3016 2534 2758 2815 
Q 2500 3097 2075 3097 
Q 1594 3097 1305 2825 
Q 1016 2553 972 2059 
L 3022 2063 
z
" transform="scale(0.015625)"/>
      </defs>
      <use xlink:href="#DejaVuSans-54"/>
      <use xlink:href="#DejaVuSans-69" x="57.958984"/>
      <use xlink:href="#DejaVuSans-6d" x="85.742188"/>
      <use xlink:href="#DejaVuSans-65" x="183.154297"/>
     </g>
    </g>
   </g>
   <g id="matplotlib.axis_10">
    <g id="ytick_10">
     <g id="line2d_83">
      <path d="M 100.8 569.745885 
L 987.84 569.745885 
" clip-path="url(#p41f7b39966)" style="fill: none; stroke-dasharray: 1.85,0.8; stroke-dashoffset: 0; stroke: #b2b2b2; stroke-width: 0.5"/>
     </g>
     <g id="line2d_84">
      <g>
       <use xlink:href="#m851982ef24" x="100.8" y="569.745885" style="stroke: #000000; stroke-width: 0.8"/>
      </g>
     </g>
     <g id="text_21">
      <!-- 0 V -->
      <g transform="translate(74.36625 575.064792) scale(0.14 -0.14)">
       <use xlink:href="#DejaVuSans-30"/>
       <use xlink:href="#DejaVuSans-20" x="63.623047"/>
       <use xlink:href="#DejaVuSans-56" x="95.410156"/>
      </g>
     </g>
    </g>
    <g id="ytick_11">
     <g id="line2d_85">
      <path d="M 100.8 535.950348 
L 987.84 535.950348 
" clip-path="url(#p41f7b39966)" style="fill: none; stroke-dasharray: 1.85,0.8; stroke-dashoffset: 0; stroke: #b2b2b2; stroke-width: 0.5"/>
     </g>
     <g id="line2d_86">
      <g>
       <use xlink:href="#m851982ef24" x="100.8" y="535.950348" style="stroke: #000000; stroke-width: 0.8"/>
      </g>
     </g>
     <g id="text_22">
      <!-- 500 mV -->
      <g transform="translate(42.914375 541.269254) scale(0.14 -0.14)">
       <use xlink:href="#DejaVuSans-35"/>
       <use xlink:href="#DejaVuSans-30" x="63.623047"/>
       <use xlink:href="#DejaVuSans-30" x="127.246094"/>
       <use xlink:href="#DejaVuSans-20" x="190.869141"/>
       <use xlink:href="#DejaVuSans-6d" x="222.65625"/>
       <use xlink:href="#DejaVuSans-56" x="320.068359"/>
      </g>
     </g>
    </g>
    <g id="ytick_12">
     <g id="line2d_87">
      <path d="M 100.8 502.15481 
L 987.84 502.15481 
" clip-path="url(#p41f7b39966)" style="fill: none; stroke-dasharray: 1.85,0.8; stroke-dashoffset: 0; stroke: #b2b2b2; stroke-width: 0.5"/>
     </g>
     <g id="line2d_88">
      <g>
       <use xlink:href="#m851982ef24" x="100.8" y="502.15481" style="stroke: #000000; stroke-width: 0.8"/>
      </g>
     </g>
     <g id="text_23">
      <!-- 1 V -->
      <g transform="translate(74.36625 507.473717) scale(0.14 -0.14)">
       <use xlink:href="#DejaVuSans-31"/>
       <use xlink:href="#DejaVuSans-20" x="63.623047"/>
       <use xlink:href="#DejaVuSans-56" x="95.410156"/>
      </g>
     </g>
    </g>
    <g id="text_24">
     <g id="patch_27">
      <path d="M 34.8768 554.329483 
L 34.8768 506.379483 
L 11.247425 506.379483 
L 11.247425 554.329483 
z
" style="fill: #ffff00; opacity: 0.2; stroke: #eeeeee; stroke-width: 0.5; stroke-linejoin: miter"/>
     </g>
     <!-- FOUT -->
     <g transform="translate(26.925238 549.289483) rotate(-90) scale(0.14 -0.14)">
      <use xlink:href="#DejaVuSans-46"/>
      <use xlink:href="#DejaVuSans-4f" x="57.519531"/>
      <use xlink:href="#DejaVuSans-55" x="136.230469"/>
      <use xlink:href="#DejaVuSans-54" x="209.423828"/>
     </g>
    </g>
   </g>
   <g id="line2d_89">
    <path d="M 141.12 488.636595 
L 173.472768 488.643355 
L 173.505024 488.44734 
L 173.569536 526.789729 
L 173.69856 572.504953 
L 173.730816 572.3695 
L 173.827584 567.842115 
L 173.892096 569.3609 
L 174.053376 570.064192 
L 174.117888 569.946665 
L 174.408192 569.492054 
L 174.440448 569.54151 
L 174.66624 569.729954 
L 176.182272 569.740151 
L 180.117504 569.761449 
L 193.568256 569.752159 
L 212.954112 569.74401 
L 255.30624 569.743704 
L 255.6288 488.52845 
L 255.854592 488.670391 
L 256.209408 488.629836 
L 334.849536 488.650114 
L 334.881792 492.854278 
L 335.043072 572.18376 
L 335.107584 570.261206 
L 335.172096 568.338639 
L 335.236608 568.870108 
L 335.365632 570.783003 
L 335.430144 570.410083 
L 335.591424 569.797213 
L 335.881728 569.648439 
L 336.559104 569.817924 
L 337.107456 569.746143 
L 350.009856 569.744206 
L 416.489472 569.74333 
L 416.553984 567.480841 
L 416.812032 488.204013 
L 416.844288 488.339195 
L 416.973312 488.852887 
L 417.037824 488.778537 
L 417.39264 488.548727 
L 417.844224 488.717705 
L 418.457088 488.562245 
L 419.328 488.636595 
L 552.513024 488.562245 
L 552.54528 488.433822 
L 552.577536 488.582523 
L 552.642048 512.407701 
L 552.771072 570.195096 
L 552.803328 569.798338 
L 552.932352 569.746287 
L 554.416128 569.744219 
L 599.026176 569.718948 
L 599.058432 569.451364 
L 599.122944 554.685918 
L 599.348736 488.582523 
L 599.542272 488.636595 
L 601.122816 488.636595 
L 601.187328 504.03925 
L 601.380864 571.962129 
L 601.445376 569.730553 
L 601.73568 569.744209 
L 658.054656 569.724902 
L 658.086912 568.768924 
L 658.377216 488.663632 
L 658.699776 488.636595 
L 947.52 488.636595 
L 947.52 488.636595 
" clip-path="url(#p41f7b39966)" style="fill: none; stroke: #ff00ff; stroke-width: 2; stroke-linecap: square"/>
   </g>
   <g id="patch_28">
    <path d="M 100.8 576.72 
L 100.8 483.988966 
" style="fill: none; stroke: #bcbcbc; stroke-width: 0.8; stroke-linejoin: miter; stroke-linecap: square"/>
   </g>
   <g id="patch_29">
    <path d="M 987.84 576.72 
L 987.84 483.988966 
" style="fill: none; stroke: #bcbcbc; stroke-width: 0.8; stroke-linejoin: miter; stroke-linecap: square"/>
   </g>
   <g id="patch_30">
    <path d="M 100.8 576.72 
L 987.84 576.72 
" style="fill: none; stroke: #bcbcbc; stroke-width: 0.8; stroke-linejoin: miter; stroke-linecap: square"/>
   </g>
   <g id="patch_31">
    <path d="M 100.8 483.988966 
L 987.84 483.988966 
" style="fill: none; stroke: #bcbcbc; stroke-width: 0.8; stroke-linejoin: miter; stroke-linecap: square"/>
   </g>
  </g>
  <g id="axes_6">
   <g id="patch_32">
    <path d="M 201.6 628.56 
L 856.8 628.56 
L 856.8 615.6 
L 201.6 615.6 
z
" clip-path="url(#pe27840b17b)" style="fill: #d3d3d3"/>
   </g>
   <g id="patch_33">
    <path d="M 201.6 628.56 
L 707.04 628.56 
L 707.04 615.6 
L 201.6 615.6 
z
" clip-path="url(#pe27840b17b)" style="fill: #0000ff"/>
   </g>
   <g id="line2d_90">
    <path d="M 201.6 635.04 
L 201.6 609.12 
" clip-path="url(#p3928d81e78)" style="fill: none; stroke: #ff0000; stroke-linecap: square"/>
   </g>
   <g id="line2d_91">
    <defs>
     <path id="m9e7c4383a8" d="M 0 5 
C 1.326016 5 2.597899 4.473168 3.535534 3.535534 
C 4.473168 2.597899 5 1.326016 5 0 
C 5 -1.326016 4.473168 -2.597899 3.535534 -3.535534 
C 2.597899 -4.473168 1.326016 -5 0 -5 
C -1.326016 -5 -2.597899 -4.473168 -3.535534 -3.535534 
C -4.473168 -2.597899 -5 -1.326016 -5 0 
C -5 1.326016 -4.473168 2.597899 -3.535534 3.535534 
C -2.597899 4.473168 -1.326016 5 0 5 
z
" style="stroke: #bfbfbf"/>
    </defs>
    <g>
     <use xlink:href="#m9e7c4383a8" x="707.04" y="622.08" style="fill: #ffffff; stroke: #bfbfbf"/>
    </g>
   </g>
   <g id="text_25">
    <!-- #Sweep -->
    <g transform="translate(138.622875 625.39125) scale(0.12 -0.12)">
     <defs>
      <path id="DejaVuSans-23" d="M 3272 2816 
L 2363 2816 
L 2100 1772 
L 3016 1772 
L 3272 2816 
z
M 2803 4594 
L 2478 3297 
L 3391 3297 
L 3719 4594 
L 4219 4594 
L 3897 3297 
L 4872 3297 
L 4872 2816 
L 3775 2816 
L 3519 1772 
L 4513 1772 
L 4513 1294 
L 3397 1294 
L 3072 0 
L 2572 0 
L 2894 1294 
L 1978 1294 
L 1656 0 
L 1153 0 
L 1478 1294 
L 494 1294 
L 494 1772 
L 1594 1772 
L 1856 2816 
L 850 2816 
L 850 3297 
L 1978 3297 
L 2297 4594 
L 2803 4594 
z
" transform="scale(0.015625)"/>
      <path id="DejaVuSans-77" d="M 269 3500 
L 844 3500 
L 1563 769 
L 2278 3500 
L 2956 3500 
L 3675 769 
L 4391 3500 
L 4966 3500 
L 4050 0 
L 3372 0 
L 2619 2869 
L 1863 0 
L 1184 0 
L 269 3500 
z
" transform="scale(0.015625)"/>
      <path id="DejaVuSans-70" d="M 1159 525 
L 1159 -1331 
L 581 -1331 
L 581 3500 
L 1159 3500 
L 1159 2969 
Q 1341 3281 1617 3432 
Q 1894 3584 2278 3584 
Q 2916 3584 3314 3078 
Q 3713 2572 3713 1747 
Q 3713 922 3314 415 
Q 2916 -91 2278 -91 
Q 1894 -91 1617 61 
Q 1341 213 1159 525 
z
M 3116 1747 
Q 3116 2381 2855 2742 
Q 2594 3103 2138 3103 
Q 1681 3103 1420 2742 
Q 1159 2381 1159 1747 
Q 1159 1113 1420 752 
Q 1681 391 2138 391 
Q 2594 391 2855 752 
Q 3116 1113 3116 1747 
z
" transform="scale(0.015625)"/>
     </defs>
     <use xlink:href="#DejaVuSans-23"/>
     <use xlink:href="#DejaVuSans-53" x="83.789062"/>
     <use xlink:href="#DejaVuSans-77" x="147.265625"/>
     <use xlink:href="#DejaVuSans-65" x="229.052734"/>
     <use xlink:href="#DejaVuSans-65" x="290.576172"/>
     <use xlink:href="#DejaVuSans-70" x="352.099609"/>
    </g>
   </g>
   <g id="text_26">
    <!-- $\mathdefault{108}$ -->
    <g transform="translate(869.904 625.39125) scale(0.12 -0.12)">
     <defs>
      <path id="DejaVuSans-38" d="M 2034 2216 
Q 1584 2216 1326 1975 
Q 1069 1734 1069 1313 
Q 1069 891 1326 650 
Q 1584 409 2034 409 
Q 2484 409 2743 651 
Q 3003 894 3003 1313 
Q 3003 1734 2745 1975 
Q 2488 2216 2034 2216 
z
M 1403 2484 
Q 997 2584 770 2862 
Q 544 3141 544 3541 
Q 544 4100 942 4425 
Q 1341 4750 2034 4750 
Q 2731 4750 3128 4425 
Q 3525 4100 3525 3541 
Q 3525 3141 3298 2862 
Q 3072 2584 2669 2484 
Q 3125 2378 3379 2068 
Q 3634 1759 3634 1313 
Q 3634 634 3220 271 
Q 2806 -91 2034 -91 
Q 1263 -91 848 271 
Q 434 634 434 1313 
Q 434 1759 690 2068 
Q 947 2378 1403 2484 
z
M 1172 3481 
Q 1172 3119 1398 2916 
Q 1625 2713 2034 2713 
Q 2441 2713 2670 2916 
Q 2900 3119 2900 3481 
Q 2900 3844 2670 4047 
Q 2441 4250 2034 4250 
Q 1625 4250 1398 4047 
Q 1172 3844 1172 3481 
z
" transform="scale(0.015625)"/>
     </defs>
     <use xlink:href="#DejaVuSans-31" transform="translate(0 0.78125)"/>
     <use xlink:href="#DejaVuSans-30" transform="translate(63.623047 0.78125)"/>
     <use xlink:href="#DejaVuSans-38" transform="translate(127.246094 0.78125)"/>
    </g>
   </g>
  </g>
  <g id="text_27">
   <!-- DFF under BBI sweep analysis (Sweep = 118E-9) -->
   <g transform="translate(308.25625 25.1175) scale(0.16 -0.16)">
    <defs>
     <path id="DejaVuSans-75" d="M 544 1381 
L 544 3500 
L 1119 3500 
L 1119 1403 
Q 1119 906 1312 657 
Q 1506 409 1894 409 
Q 2359 409 2629 706 
Q 2900 1003 2900 1516 
L 2900 3500 
L 3475 3500 
L 3475 0 
L 2900 0 
L 2900 538 
Q 2691 219 2414 64 
Q 2138 -91 1772 -91 
Q 1169 -91 856 284 
Q 544 659 544 1381 
z
M 1991 3584 
L 1991 3584 
z
" transform="scale(0.015625)"/>
     <path id="DejaVuSans-64" d="M 2906 2969 
L 2906 4863 
L 3481 4863 
L 3481 0 
L 2906 0 
L 2906 525 
Q 2725 213 2448 61 
Q 2172 -91 1784 -91 
Q 1150 -91 751 415 
Q 353 922 353 1747 
Q 353 2572 751 3078 
Q 1150 3584 1784 3584 
Q 2172 3584 2448 3432 
Q 2725 3281 2906 2969 
z
M 947 1747 
Q 947 1113 1208 752 
Q 1469 391 1925 391 
Q 2381 391 2643 752 
Q 2906 1113 2906 1747 
Q 2906 2381 2643 2742 
Q 2381 3103 1925 3103 
Q 1469 3103 1208 2742 
Q 947 2381 947 1747 
z
" transform="scale(0.015625)"/>
     <path id="DejaVuSans-72" d="M 2631 2963 
Q 2534 3019 2420 3045 
Q 2306 3072 2169 3072 
Q 1681 3072 1420 2755 
Q 1159 2438 1159 1844 
L 1159 0 
L 581 0 
L 581 3500 
L 1159 3500 
L 1159 2956 
Q 1341 3275 1631 3429 
Q 1922 3584 2338 3584 
Q 2397 3584 2469 3576 
Q 2541 3569 2628 3553 
L 2631 2963 
z
" transform="scale(0.015625)"/>
     <path id="DejaVuSans-61" d="M 2194 1759 
Q 1497 1759 1228 1600 
Q 959 1441 959 1056 
Q 959 750 1161 570 
Q 1363 391 1709 391 
Q 2188 391 2477 730 
Q 2766 1069 2766 1631 
L 2766 1759 
L 2194 1759 
z
M 3341 1997 
L 3341 0 
L 2766 0 
L 2766 531 
Q 2569 213 2275 61 
Q 1981 -91 1556 -91 
Q 1019 -91 701 211 
Q 384 513 384 1019 
Q 384 1609 779 1909 
Q 1175 2209 1959 2209 
L 2766 2209 
L 2766 2266 
Q 2766 2663 2505 2880 
Q 2244 3097 1772 3097 
Q 1472 3097 1187 3025 
Q 903 2953 641 2809 
L 641 3341 
Q 956 3463 1253 3523 
Q 1550 3584 1831 3584 
Q 2591 3584 2966 3190 
Q 3341 2797 3341 1997 
z
" transform="scale(0.015625)"/>
     <path id="DejaVuSans-6c" d="M 603 4863 
L 1178 4863 
L 1178 0 
L 603 0 
L 603 4863 
z
" transform="scale(0.015625)"/>
     <path id="DejaVuSans-79" d="M 2059 -325 
Q 1816 -950 1584 -1140 
Q 1353 -1331 966 -1331 
L 506 -1331 
L 506 -850 
L 844 -850 
Q 1081 -850 1212 -737 
Q 1344 -625 1503 -206 
L 1606 56 
L 191 3500 
L 800 3500 
L 1894 763 
L 2988 3500 
L 3597 3500 
L 2059 -325 
z
" transform="scale(0.015625)"/>
     <path id="DejaVuSans-28" d="M 1984 4856 
Q 1566 4138 1362 3434 
Q 1159 2731 1159 2009 
Q 1159 1288 1364 580 
Q 1569 -128 1984 -844 
L 1484 -844 
Q 1016 -109 783 600 
Q 550 1309 550 2009 
Q 550 2706 781 3412 
Q 1013 4119 1484 4856 
L 1984 4856 
z
" transform="scale(0.015625)"/>
     <path id="DejaVuSans-3d" d="M 678 2906 
L 4684 2906 
L 4684 2381 
L 678 2381 
L 678 2906 
z
M 678 1631 
L 4684 1631 
L 4684 1100 
L 678 1100 
L 678 1631 
z
" transform="scale(0.015625)"/>
     <path id="DejaVuSans-2d" d="M 313 2009 
L 1997 2009 
L 1997 1497 
L 313 1497 
L 313 2009 
z
" transform="scale(0.015625)"/>
     <path id="DejaVuSans-39" d="M 703 97 
L 703 672 
Q 941 559 1184 500 
Q 1428 441 1663 441 
Q 2288 441 2617 861 
Q 2947 1281 2994 2138 
Q 2813 1869 2534 1725 
Q 2256 1581 1919 1581 
Q 1219 1581 811 2004 
Q 403 2428 403 3163 
Q 403 3881 828 4315 
Q 1253 4750 1959 4750 
Q 2769 4750 3195 4129 
Q 3622 3509 3622 2328 
Q 3622 1225 3098 567 
Q 2575 -91 1691 -91 
Q 1453 -91 1209 -44 
Q 966 3 703 97 
z
M 1959 2075 
Q 2384 2075 2632 2365 
Q 2881 2656 2881 3163 
Q 2881 3666 2632 3958 
Q 2384 4250 1959 4250 
Q 1534 4250 1286 3958 
Q 1038 3666 1038 3163 
Q 1038 2656 1286 2365 
Q 1534 2075 1959 2075 
z
" transform="scale(0.015625)"/>
     <path id="DejaVuSans-29" d="M 513 4856 
L 1013 4856 
Q 1481 4119 1714 3412 
Q 1947 2706 1947 2009 
Q 1947 1309 1714 600 
Q 1481 -109 1013 -844 
L 513 -844 
Q 928 -128 1133 580 
Q 1338 1288 1338 2009 
Q 1338 2731 1133 3434 
Q 928 4138 513 4856 
z
" transform="scale(0.015625)"/>
    </defs>
    <use xlink:href="#DejaVuSans-44"/>
    <use xlink:href="#DejaVuSans-46" x="77.001953"/>
    <use xlink:href="#DejaVuSans-46" x="134.521484"/>
    <use xlink:href="#DejaVuSans-20" x="192.041016"/>
    <use xlink:href="#DejaVuSans-75" x="223.828125"/>
    <use xlink:href="#DejaVuSans-6e" x="287.207031"/>
    <use xlink:href="#DejaVuSans-64" x="350.585938"/>
    <use xlink:href="#DejaVuSans-65" x="414.0625"/>
    <use xlink:href="#DejaVuSans-72" x="475.585938"/>
    <use xlink:href="#DejaVuSans-20" x="516.699219"/>
    <use xlink:href="#DejaVuSans-42" x="548.486328"/>
    <use xlink:href="#DejaVuSans-42" x="617.089844"/>
    <use xlink:href="#DejaVuSans-49" x="685.693359"/>
    <use xlink:href="#DejaVuSans-20" x="715.185547"/>
    <use xlink:href="#DejaVuSans-73" x="746.972656"/>
    <use xlink:href="#DejaVuSans-77" x="799.072266"/>
    <use xlink:href="#DejaVuSans-65" x="880.859375"/>
    <use xlink:href="#DejaVuSans-65" x="942.382812"/>
    <use xlink:href="#DejaVuSans-70" x="1003.90625"/>
    <use xlink:href="#DejaVuSans-20" x="1067.382812"/>
    <use xlink:href="#DejaVuSans-61" x="1099.169922"/>
    <use xlink:href="#DejaVuSans-6e" x="1160.449219"/>
    <use xlink:href="#DejaVuSans-61" x="1223.828125"/>
    <use xlink:href="#DejaVuSans-6c" x="1285.107422"/>
    <use xlink:href="#DejaVuSans-79" x="1312.890625"/>
    <use xlink:href="#DejaVuSans-73" x="1372.070312"/>
    <use xlink:href="#DejaVuSans-69" x="1424.169922"/>
    <use xlink:href="#DejaVuSans-73" x="1451.953125"/>
    <use xlink:href="#DejaVuSans-20" x="1504.052734"/>
    <use xlink:href="#DejaVuSans-28" x="1535.839844"/>
    <use xlink:href="#DejaVuSans-53" x="1574.853516"/>
    <use xlink:href="#DejaVuSans-77" x="1638.330078"/>
    <use xlink:href="#DejaVuSans-65" x="1720.117188"/>
    <use xlink:href="#DejaVuSans-65" x="1781.640625"/>
    <use xlink:href="#DejaVuSans-70" x="1843.164062"/>
    <use xlink:href="#DejaVuSans-20" x="1906.640625"/>
    <use xlink:href="#DejaVuSans-3d" x="1938.427734"/>
    <use xlink:href="#DejaVuSans-20" x="2022.216797"/>
    <use xlink:href="#DejaVuSans-31" x="2054.003906"/>
    <use xlink:href="#DejaVuSans-31" x="2117.626953"/>
    <use xlink:href="#DejaVuSans-38" x="2181.25"/>
    <use xlink:href="#DejaVuSans-45" x="2244.873047"/>
    <use xlink:href="#DejaVuSans-2d" x="2308.056641"/>
    <use xlink:href="#DejaVuSans-39" x="2344.140625"/>
    <use xlink:href="#DejaVuSans-29" x="2407.763672"/>
   </g>
  </g>
 </g>
 <defs>
  <clipPath id="p5764be9d70">
   <rect x="100.8" y="38.88" width="887.04" height="92.731034"/>
  </clipPath>
  <clipPath id="pc3b6f2c890">
   <rect x="100.8" y="150.157241" width="887.04" height="92.731034"/>
  </clipPath>
  <clipPath id="pcc9a650053">
   <rect x="100.8" y="261.434483" width="887.04" height="92.731034"/>
  </clipPath>
  <clipPath id="p22e4b18dd9">
   <rect x="100.8" y="372.711724" width="887.04" height="92.731034"/>
  </clipPath>
  <clipPath id="p41f7b39966">
   <rect x="100.8" y="483.988966" width="887.04" height="92.731034"/>
  </clipPath>
  <clipPath id="pe27840b17b">
   <rect x="201.6" y="609.12" width="655.2" height="25.92"/>
  </clipPath>
  <clipPath id="p3928d81e78">
   <path d="M 201.6 628.56 
L 856.8 628.56 
L 856.8 615.6 
L 201.6 615.6 
z
"/>
  </clipPath>
 </defs>
</svg>
