<?xml version="1.0" encoding="utf-8" standalone="no"?>
<!DOCTYPE svg PUBLIC "-//W3C//DTD SVG 1.1//EN"
  "http://www.w3.org/Graphics/SVG/1.1/DTD/svg11.dtd">
<svg xmlns:xlink="http://www.w3.org/1999/xlink" width="1008pt" height="648pt" viewBox="0 0 1008 648" xmlns="http://www.w3.org/2000/svg" version="1.1">
 <metadata>
  <rdf:RDF xmlns:dc="http://purl.org/dc/elements/1.1/" xmlns:cc="http://creativecommons.org/ns#" xmlns:rdf="http://www.w3.org/1999/02/22-rdf-syntax-ns#">
   <cc:Work>
    <dc:type rdf:resource="http://purl.org/dc/dcmitype/StillImage"/>
    <dc:date>2024-06-03T10:45:56.994386</dc:date>
    <dc:format>image/svg+xml</dc:format>
    <dc:creator>
     <cc:Agent>
      <dc:title>Matplotlib v3.9.0, https://matplotlib.org/</dc:title>
     </cc:Agent>
    </dc:creator>
   </cc:Work>
  </rdf:RDF>
 </metadata>
 <defs>
  <style type="text/css">*{stroke-linejoin: round; stroke-linecap: butt}</style>
 </defs>
 <g id="figure_1">
  <g id="patch_1">
   <path d="M 0 648 
L 1008 648 
L 1008 0 
L 0 0 
z
" style="fill: #ffffff"/>
  </g>
  <g id="axes_1">
   <g id="patch_2">
    <path d="M 100.8 131.611034 
L 987.84 131.611034 
L 987.84 38.88 
L 100.8 38.88 
z
" style="fill: #eeeeee"/>
   </g>
   <g id="matplotlib.axis_1">
    <g id="xtick_1">
     <g id="line2d_1">
      <path d="M 141.12 131.611034 
L 141.12 38.88 
" clip-path="url(#p24833a335d)" style="fill: none; stroke-dasharray: 1.85,0.8; stroke-dashoffset: 0; stroke: #b2b2b2; stroke-width: 0.5"/>
     </g>
     <g id="line2d_2">
      <defs>
       <path id="m3a3e84f105" d="M 0 0 
L 0 -3.5 
" style="stroke: #000000; stroke-width: 0.8"/>
      </defs>
      <g>
       <use xlink:href="#m3a3e84f105" x="141.12" y="131.611034" style="stroke: #000000; stroke-width: 0.8"/>
      </g>
     </g>
    </g>
    <g id="xtick_2">
     <g id="line2d_3">
      <path d="M 302.4 131.611034 
L 302.4 38.88 
" clip-path="url(#p24833a335d)" style="fill: none; stroke-dasharray: 1.85,0.8; stroke-dashoffset: 0; stroke: #b2b2b2; stroke-width: 0.5"/>
     </g>
     <g id="line2d_4">
      <g>
       <use xlink:href="#m3a3e84f105" x="302.4" y="131.611034" style="stroke: #000000; stroke-width: 0.8"/>
      </g>
     </g>
    </g>
    <g id="xtick_3">
     <g id="line2d_5">
      <path d="M 463.68 131.611034 
L 463.68 38.88 
" clip-path="url(#p24833a335d)" style="fill: none; stroke-dasharray: 1.85,0.8; stroke-dashoffset: 0; stroke: #b2b2b2; stroke-width: 0.5"/>
     </g>
     <g id="line2d_6">
      <g>
       <use xlink:href="#m3a3e84f105" x="463.68" y="131.611034" style="stroke: #000000; stroke-width: 0.8"/>
      </g>
     </g>
    </g>
    <g id="xtick_4">
     <g id="line2d_7">
      <path d="M 624.96 131.611034 
L 624.96 38.88 
" clip-path="url(#p24833a335d)" style="fill: none; stroke-dasharray: 1.85,0.8; stroke-dashoffset: 0; stroke: #b2b2b2; stroke-width: 0.5"/>
     </g>
     <g id="line2d_8">
      <g>
       <use xlink:href="#m3a3e84f105" x="624.96" y="131.611034" style="stroke: #000000; stroke-width: 0.8"/>
      </g>
     </g>
    </g>
    <g id="xtick_5">
     <g id="line2d_9">
      <path d="M 786.24 131.611034 
L 786.24 38.88 
" clip-path="url(#p24833a335d)" style="fill: none; stroke-dasharray: 1.85,0.8; stroke-dashoffset: 0; stroke: #b2b2b2; stroke-width: 0.5"/>
     </g>
     <g id="line2d_10">
      <g>
       <use xlink:href="#m3a3e84f105" x="786.24" y="131.611034" style="stroke: #000000; stroke-width: 0.8"/>
      </g>
     </g>
    </g>
    <g id="xtick_6">
     <g id="line2d_11">
      <path d="M 947.52 131.611034 
L 947.52 38.88 
" clip-path="url(#p24833a335d)" style="fill: none; stroke-dasharray: 1.85,0.8; stroke-dashoffset: 0; stroke: #b2b2b2; stroke-width: 0.5"/>
     </g>
     <g id="line2d_12">
      <g>
       <use xlink:href="#m3a3e84f105" x="947.52" y="131.611034" style="stroke: #000000; stroke-width: 0.8"/>
      </g>
     </g>
    </g>
   </g>
   <g id="matplotlib.axis_2">
    <g id="ytick_1">
     <g id="line2d_13">
      <path d="M 100.8 98.340394 
L 987.84 98.340394 
" clip-path="url(#p24833a335d)" style="fill: none; stroke-dasharray: 1.85,0.8; stroke-dashoffset: 0; stroke: #b2b2b2; stroke-width: 0.5"/>
     </g>
     <g id="line2d_14">
      <defs>
       <path id="m3affe72744" d="M 0 0 
L 3.5 0 
" style="stroke: #000000; stroke-width: 0.8"/>
      </defs>
      <g>
       <use xlink:href="#m3affe72744" x="100.8" y="98.340394" style="stroke: #000000; stroke-width: 0.8"/>
      </g>
     </g>
     <g id="text_1">
      <!-- −200 V -->
      <g transform="translate(44.819688 103.6593) scale(0.14 -0.14)">
       <defs>
        <path id="DejaVuSans-2212" d="M 678 2272 
L 4684 2272 
L 4684 1741 
L 678 1741 
L 678 2272 
z
" transform="scale(0.015625)"/>
        <path id="DejaVuSans-32" d="M 1228 531 
L 3431 531 
L 3431 0 
L 469 0 
L 469 531 
Q 828 903 1448 1529 
Q 2069 2156 2228 2338 
Q 2531 2678 2651 2914 
Q 2772 3150 2772 3378 
Q 2772 3750 2511 3984 
Q 2250 4219 1831 4219 
Q 1534 4219 1204 4116 
Q 875 4013 500 3803 
L 500 4441 
Q 881 4594 1212 4672 
Q 1544 4750 1819 4750 
Q 2544 4750 2975 4387 
Q 3406 4025 3406 3419 
Q 3406 3131 3298 2873 
Q 3191 2616 2906 2266 
Q 2828 2175 2409 1742 
Q 1991 1309 1228 531 
z
" transform="scale(0.015625)"/>
        <path id="DejaVuSans-30" d="M 2034 4250 
Q 1547 4250 1301 3770 
Q 1056 3291 1056 2328 
Q 1056 1369 1301 889 
Q 1547 409 2034 409 
Q 2525 409 2770 889 
Q 3016 1369 3016 2328 
Q 3016 3291 2770 3770 
Q 2525 4250 2034 4250 
z
M 2034 4750 
Q 2819 4750 3233 4129 
Q 3647 3509 3647 2328 
Q 3647 1150 3233 529 
Q 2819 -91 2034 -91 
Q 1250 -91 836 529 
Q 422 1150 422 2328 
Q 422 3509 836 4129 
Q 1250 4750 2034 4750 
z
" transform="scale(0.015625)"/>
        <path id="DejaVuSans-20" transform="scale(0.015625)"/>
        <path id="DejaVuSans-56" d="M 1831 0 
L 50 4666 
L 709 4666 
L 2188 738 
L 3669 4666 
L 4325 4666 
L 2547 0 
L 1831 0 
z
" transform="scale(0.015625)"/>
       </defs>
       <use xlink:href="#DejaVuSans-2212"/>
       <use xlink:href="#DejaVuSans-32" x="83.789062"/>
       <use xlink:href="#DejaVuSans-30" x="147.412109"/>
       <use xlink:href="#DejaVuSans-30" x="211.035156"/>
       <use xlink:href="#DejaVuSans-20" x="274.658203"/>
       <use xlink:href="#DejaVuSans-56" x="306.445312"/>
      </g>
     </g>
    </g>
    <g id="ytick_2">
     <g id="line2d_15">
      <path d="M 100.8 45.027377 
L 987.84 45.027377 
" clip-path="url(#p24833a335d)" style="fill: none; stroke-dasharray: 1.85,0.8; stroke-dashoffset: 0; stroke: #b2b2b2; stroke-width: 0.5"/>
     </g>
     <g id="line2d_16">
      <g>
       <use xlink:href="#m3affe72744" x="100.8" y="45.027377" style="stroke: #000000; stroke-width: 0.8"/>
      </g>
     </g>
     <g id="text_2">
      <!-- 0 V -->
      <g transform="translate(74.36625 50.346284) scale(0.14 -0.14)">
       <use xlink:href="#DejaVuSans-30"/>
       <use xlink:href="#DejaVuSans-20" x="63.623047"/>
       <use xlink:href="#DejaVuSans-56" x="95.410156"/>
      </g>
     </g>
    </g>
    <g id="text_3">
     <g id="patch_3">
      <path d="M 34.8768 131.080205 
L 34.8768 39.41083 
L 11.247425 39.41083 
L 11.247425 131.080205 
z
" style="fill: #ffff00; opacity: 0.2; stroke: #eeeeee; stroke-width: 0.5; stroke-linejoin: miter"/>
     </g>
     <!-- VPULSE BBI -->
     <g transform="translate(26.925238 126.040205) rotate(-90) scale(0.14 -0.14)">
      <defs>
       <path id="DejaVuSans-50" d="M 1259 4147 
L 1259 2394 
L 2053 2394 
Q 2494 2394 2734 2622 
Q 2975 2850 2975 3272 
Q 2975 3691 2734 3919 
Q 2494 4147 2053 4147 
L 1259 4147 
z
M 628 4666 
L 2053 4666 
Q 2838 4666 3239 4311 
Q 3641 3956 3641 3272 
Q 3641 2581 3239 2228 
Q 2838 1875 2053 1875 
L 1259 1875 
L 1259 0 
L 628 0 
L 628 4666 
z
" transform="scale(0.015625)"/>
       <path id="DejaVuSans-55" d="M 556 4666 
L 1191 4666 
L 1191 1831 
Q 1191 1081 1462 751 
Q 1734 422 2344 422 
Q 2950 422 3222 751 
Q 3494 1081 3494 1831 
L 3494 4666 
L 4128 4666 
L 4128 1753 
Q 4128 841 3676 375 
Q 3225 -91 2344 -91 
Q 1459 -91 1007 375 
Q 556 841 556 1753 
L 556 4666 
z
" transform="scale(0.015625)"/>
       <path id="DejaVuSans-4c" d="M 628 4666 
L 1259 4666 
L 1259 531 
L 3531 531 
L 3531 0 
L 628 0 
L 628 4666 
z
" transform="scale(0.015625)"/>
       <path id="DejaVuSans-53" d="M 3425 4513 
L 3425 3897 
Q 3066 4069 2747 4153 
Q 2428 4238 2131 4238 
Q 1616 4238 1336 4038 
Q 1056 3838 1056 3469 
Q 1056 3159 1242 3001 
Q 1428 2844 1947 2747 
L 2328 2669 
Q 3034 2534 3370 2195 
Q 3706 1856 3706 1288 
Q 3706 609 3251 259 
Q 2797 -91 1919 -91 
Q 1588 -91 1214 -16 
Q 841 59 441 206 
L 441 856 
Q 825 641 1194 531 
Q 1563 422 1919 422 
Q 2459 422 2753 634 
Q 3047 847 3047 1241 
Q 3047 1584 2836 1778 
Q 2625 1972 2144 2069 
L 1759 2144 
Q 1053 2284 737 2584 
Q 422 2884 422 3419 
Q 422 4038 858 4394 
Q 1294 4750 2059 4750 
Q 2388 4750 2728 4690 
Q 3069 4631 3425 4513 
z
" transform="scale(0.015625)"/>
       <path id="DejaVuSans-45" d="M 628 4666 
L 3578 4666 
L 3578 4134 
L 1259 4134 
L 1259 2753 
L 3481 2753 
L 3481 2222 
L 1259 2222 
L 1259 531 
L 3634 531 
L 3634 0 
L 628 0 
L 628 4666 
z
" transform="scale(0.015625)"/>
       <path id="DejaVuSans-42" d="M 1259 2228 
L 1259 519 
L 2272 519 
Q 2781 519 3026 730 
Q 3272 941 3272 1375 
Q 3272 1813 3026 2020 
Q 2781 2228 2272 2228 
L 1259 2228 
z
M 1259 4147 
L 1259 2741 
L 2194 2741 
Q 2656 2741 2882 2914 
Q 3109 3088 3109 3444 
Q 3109 3797 2882 3972 
Q 2656 4147 2194 4147 
L 1259 4147 
z
M 628 4666 
L 2241 4666 
Q 2963 4666 3353 4366 
Q 3744 4066 3744 3513 
Q 3744 3084 3544 2831 
Q 3344 2578 2956 2516 
Q 3422 2416 3680 2098 
Q 3938 1781 3938 1306 
Q 3938 681 3513 340 
Q 3088 0 2303 0 
L 628 0 
L 628 4666 
z
" transform="scale(0.015625)"/>
       <path id="DejaVuSans-49" d="M 628 4666 
L 1259 4666 
L 1259 0 
L 628 0 
L 628 4666 
z
" transform="scale(0.015625)"/>
      </defs>
      <use xlink:href="#DejaVuSans-56"/>
      <use xlink:href="#DejaVuSans-50" x="68.408203"/>
      <use xlink:href="#DejaVuSans-55" x="128.710938"/>
      <use xlink:href="#DejaVuSans-4c" x="201.904297"/>
      <use xlink:href="#DejaVuSans-53" x="257.617188"/>
      <use xlink:href="#DejaVuSans-45" x="321.09375"/>
      <use xlink:href="#DejaVuSans-20" x="384.277344"/>
      <use xlink:href="#DejaVuSans-42" x="416.064453"/>
      <use xlink:href="#DejaVuSans-42" x="484.667969"/>
      <use xlink:href="#DejaVuSans-49" x="553.271484"/>
     </g>
    </g>
   </g>
   <g id="line2d_17">
    <path d="M 141.12 45.027377 
L 599.187456 45.136282 
L 599.671296 46.425538 
L 607.896576 69.006772 
L 615.315456 89.863624 
L 616.928256 94.440546 
L 618.734592 99.673219 
L 622.21824 110.807642 
L 623.798784 115.851054 
L 625.056768 119.566971 
L 626.282496 120.153414 
L 627.121152 120.545265 
L 628.153344 121.017085 
L 628.733952 121.272988 
L 629.604864 121.656841 
L 630.185472 121.912744 
L 631.024128 122.269941 
L 632.604672 122.936354 
L 633.249792 123.202919 
L 634.346496 123.629423 
L 635.088384 123.922644 
L 636.185088 124.349149 
L 637.088256 124.677024 
L 637.765632 124.943589 
L 638.572032 125.25547 
L 639.926784 125.804594 
L 642.571776 126.790885 
L 643.18464 127.022796 
L 645.12 127.395987 
L 663.602688 127.289361 
L 663.82848 126.801547 
L 682.117632 75.087922 
L 685.859328 63.292417 
L 689.568768 51.617666 
L 694.181376 49.3412 
L 699.535872 46.984578 
L 708.244992 43.484472 
L 709.115904 43.268927 
L 723.405312 43.108189 
L 730.211328 43.184799 
L 745.565184 43.746186 
L 773.3376 44.46146 
L 798.98112 44.774399 
L 834.591744 44.945888 
L 882.620928 44.953885 
L 947.52 44.953885 
L 947.52 44.953885 
" clip-path="url(#p24833a335d)" style="fill: none; stroke: #ff0000; stroke-width: 2; stroke-linecap: square"/>
   </g>
   <g id="patch_4">
    <path d="M 100.8 131.611034 
L 100.8 38.88 
" style="fill: none; stroke: #bcbcbc; stroke-width: 0.8; stroke-linejoin: miter; stroke-linecap: square"/>
   </g>
   <g id="patch_5">
    <path d="M 987.84 131.611034 
L 987.84 38.88 
" style="fill: none; stroke: #bcbcbc; stroke-width: 0.8; stroke-linejoin: miter; stroke-linecap: square"/>
   </g>
   <g id="patch_6">
    <path d="M 100.8 131.611034 
L 987.84 131.611034 
" style="fill: none; stroke: #bcbcbc; stroke-width: 0.8; stroke-linejoin: miter; stroke-linecap: square"/>
   </g>
   <g id="patch_7">
    <path d="M 100.8 38.88 
L 987.84 38.88 
" style="fill: none; stroke: #bcbcbc; stroke-width: 0.8; stroke-linejoin: miter; stroke-linecap: square"/>
   </g>
  </g>
  <g id="axes_2">
   <g id="patch_8">
    <path d="M 100.8 242.888276 
L 987.84 242.888276 
L 987.84 150.157241 
L 100.8 150.157241 
z
" style="fill: #eeeeee"/>
   </g>
   <g id="matplotlib.axis_3">
    <g id="xtick_7">
     <g id="line2d_18">
      <path d="M 141.12 242.888276 
L 141.12 150.157241 
" clip-path="url(#pba0061966f)" style="fill: none; stroke-dasharray: 1.85,0.8; stroke-dashoffset: 0; stroke: #b2b2b2; stroke-width: 0.5"/>
     </g>
     <g id="line2d_19">
      <g>
       <use xlink:href="#m3a3e84f105" x="141.12" y="242.888276" style="stroke: #000000; stroke-width: 0.8"/>
      </g>
     </g>
    </g>
    <g id="xtick_8">
     <g id="line2d_20">
      <path d="M 302.4 242.888276 
L 302.4 150.157241 
" clip-path="url(#pba0061966f)" style="fill: none; stroke-dasharray: 1.85,0.8; stroke-dashoffset: 0; stroke: #b2b2b2; stroke-width: 0.5"/>
     </g>
     <g id="line2d_21">
      <g>
       <use xlink:href="#m3a3e84f105" x="302.4" y="242.888276" style="stroke: #000000; stroke-width: 0.8"/>
      </g>
     </g>
    </g>
    <g id="xtick_9">
     <g id="line2d_22">
      <path d="M 463.68 242.888276 
L 463.68 150.157241 
" clip-path="url(#pba0061966f)" style="fill: none; stroke-dasharray: 1.85,0.8; stroke-dashoffset: 0; stroke: #b2b2b2; stroke-width: 0.5"/>
     </g>
     <g id="line2d_23">
      <g>
       <use xlink:href="#m3a3e84f105" x="463.68" y="242.888276" style="stroke: #000000; stroke-width: 0.8"/>
      </g>
     </g>
    </g>
    <g id="xtick_10">
     <g id="line2d_24">
      <path d="M 624.96 242.888276 
L 624.96 150.157241 
" clip-path="url(#pba0061966f)" style="fill: none; stroke-dasharray: 1.85,0.8; stroke-dashoffset: 0; stroke: #b2b2b2; stroke-width: 0.5"/>
     </g>
     <g id="line2d_25">
      <g>
       <use xlink:href="#m3a3e84f105" x="624.96" y="242.888276" style="stroke: #000000; stroke-width: 0.8"/>
      </g>
     </g>
    </g>
    <g id="xtick_11">
     <g id="line2d_26">
      <path d="M 786.24 242.888276 
L 786.24 150.157241 
" clip-path="url(#pba0061966f)" style="fill: none; stroke-dasharray: 1.85,0.8; stroke-dashoffset: 0; stroke: #b2b2b2; stroke-width: 0.5"/>
     </g>
     <g id="line2d_27">
      <g>
       <use xlink:href="#m3a3e84f105" x="786.24" y="242.888276" style="stroke: #000000; stroke-width: 0.8"/>
      </g>
     </g>
    </g>
    <g id="xtick_12">
     <g id="line2d_28">
      <path d="M 947.52 242.888276 
L 947.52 150.157241 
" clip-path="url(#pba0061966f)" style="fill: none; stroke-dasharray: 1.85,0.8; stroke-dashoffset: 0; stroke: #b2b2b2; stroke-width: 0.5"/>
     </g>
     <g id="line2d_29">
      <g>
       <use xlink:href="#m3a3e84f105" x="947.52" y="242.888276" style="stroke: #000000; stroke-width: 0.8"/>
      </g>
     </g>
    </g>
   </g>
   <g id="matplotlib.axis_4">
    <g id="ytick_3">
     <g id="line2d_30">
      <path d="M 100.8 219.413315 
L 987.84 219.413315 
" clip-path="url(#pba0061966f)" style="fill: none; stroke-dasharray: 1.85,0.8; stroke-dashoffset: 0; stroke: #b2b2b2; stroke-width: 0.5"/>
     </g>
     <g id="line2d_31">
      <g>
       <use xlink:href="#m3affe72744" x="100.8" y="219.413315" style="stroke: #000000; stroke-width: 0.8"/>
      </g>
     </g>
     <g id="text_4">
      <!-- 0 V -->
      <g transform="translate(74.36625 224.732221) scale(0.14 -0.14)">
       <use xlink:href="#DejaVuSans-30"/>
       <use xlink:href="#DejaVuSans-20" x="63.623047"/>
       <use xlink:href="#DejaVuSans-56" x="95.410156"/>
      </g>
     </g>
    </g>
    <g id="ytick_4">
     <g id="line2d_32">
      <path d="M 100.8 185.805592 
L 987.84 185.805592 
" clip-path="url(#pba0061966f)" style="fill: none; stroke-dasharray: 1.85,0.8; stroke-dashoffset: 0; stroke: #b2b2b2; stroke-width: 0.5"/>
     </g>
     <g id="line2d_33">
      <g>
       <use xlink:href="#m3affe72744" x="100.8" y="185.805592" style="stroke: #000000; stroke-width: 0.8"/>
      </g>
     </g>
     <g id="text_5">
      <!-- 1 V -->
      <g transform="translate(74.36625 191.124498) scale(0.14 -0.14)">
       <defs>
        <path id="DejaVuSans-31" d="M 794 531 
L 1825 531 
L 1825 4091 
L 703 3866 
L 703 4441 
L 1819 4666 
L 2450 4666 
L 2450 531 
L 3481 531 
L 3481 0 
L 794 0 
L 794 531 
z
" transform="scale(0.015625)"/>
       </defs>
       <use xlink:href="#DejaVuSans-31"/>
       <use xlink:href="#DejaVuSans-20" x="63.623047"/>
       <use xlink:href="#DejaVuSans-56" x="95.410156"/>
      </g>
     </g>
    </g>
    <g id="ytick_5">
     <g id="line2d_34">
      <path d="M 100.8 152.197869 
L 987.84 152.197869 
" clip-path="url(#pba0061966f)" style="fill: none; stroke-dasharray: 1.85,0.8; stroke-dashoffset: 0; stroke: #b2b2b2; stroke-width: 0.5"/>
     </g>
     <g id="line2d_35">
      <g>
       <use xlink:href="#m3affe72744" x="100.8" y="152.197869" style="stroke: #000000; stroke-width: 0.8"/>
      </g>
     </g>
     <g id="text_6">
      <!-- 2 V -->
      <g transform="translate(74.36625 157.516775) scale(0.14 -0.14)">
       <use xlink:href="#DejaVuSans-32"/>
       <use xlink:href="#DejaVuSans-20" x="63.623047"/>
       <use xlink:href="#DejaVuSans-56" x="95.410156"/>
      </g>
     </g>
    </g>
    <g id="text_7">
     <g id="patch_9">
      <path d="M 34.8768 224.531509 
L 34.8768 168.514009 
L 11.247425 168.514009 
L 11.247425 224.531509 
z
" style="fill: #ffff00; opacity: 0.2; stroke: #eeeeee; stroke-width: 0.5; stroke-linejoin: miter"/>
     </g>
     <!-- DFF IN -->
     <g transform="translate(26.925238 219.491509) rotate(-90) scale(0.14 -0.14)">
      <defs>
       <path id="DejaVuSans-44" d="M 1259 4147 
L 1259 519 
L 2022 519 
Q 2988 519 3436 956 
Q 3884 1394 3884 2338 
Q 3884 3275 3436 3711 
Q 2988 4147 2022 4147 
L 1259 4147 
z
M 628 4666 
L 1925 4666 
Q 3281 4666 3915 4102 
Q 4550 3538 4550 2338 
Q 4550 1131 3912 565 
Q 3275 0 1925 0 
L 628 0 
L 628 4666 
z
" transform="scale(0.015625)"/>
       <path id="DejaVuSans-46" d="M 628 4666 
L 3309 4666 
L 3309 4134 
L 1259 4134 
L 1259 2759 
L 3109 2759 
L 3109 2228 
L 1259 2228 
L 1259 0 
L 628 0 
L 628 4666 
z
" transform="scale(0.015625)"/>
       <path id="DejaVuSans-4e" d="M 628 4666 
L 1478 4666 
L 3547 763 
L 3547 4666 
L 4159 4666 
L 4159 0 
L 3309 0 
L 1241 3903 
L 1241 0 
L 628 0 
L 628 4666 
z
" transform="scale(0.015625)"/>
      </defs>
      <use xlink:href="#DejaVuSans-44"/>
      <use xlink:href="#DejaVuSans-46" x="77.001953"/>
      <use xlink:href="#DejaVuSans-46" x="134.521484"/>
      <use xlink:href="#DejaVuSans-20" x="192.041016"/>
      <use xlink:href="#DejaVuSans-49" x="223.828125"/>
      <use xlink:href="#DejaVuSans-4e" x="253.320312"/>
     </g>
    </g>
   </g>
   <g id="line2d_36">
    <path d="M 141.12 219.364234 
L 221.953536 219.318148 
L 224.437248 200.592318 
L 225.404928 194.895809 
L 228.243456 182.370883 
L 229.598208 181.113954 
L 231.178752 180.250235 
L 236.565504 179.799892 
L 243.661824 179.688986 
L 245.1456 179.645296 
L 248.403456 179.534391 
L 250.113024 179.467175 
L 252.177408 179.35627 
L 254.241792 179.030275 
L 254.757888 178.499273 
L 255.499776 178.163196 
L 256.370688 178.18336 
L 257.531904 178.415253 
L 259.98336 178.815185 
L 262.370304 178.952977 
L 263.886336 179.003389 
L 264.144384 184.1857 
L 264.434688 187.711822 
L 265.176576 192.409173 
L 267.144192 209.554825 
L 268.402176 215.992385 
L 269.079552 217.305102 
L 270.46656 219.005183 
L 273.724416 219.41513 
L 282.594816 219.368674 
L 297.110016 219.357445 
L 305.883648 219.363438 
L 347.751936 219.319825 
L 350.235648 200.631975 
L 351.622656 192.087883 
L 352.687104 186.753666 
L 354.97728 179.934323 
L 358.493184 178.946256 
L 360.235008 179.016832 
L 363.073536 179.127737 
L 364.396032 179.154623 
L 375.169536 179.2252 
L 375.717888 180.206545 
L 376.169472 180.949276 
L 377.008128 181.846602 
L 377.524224 181.79619 
L 378.427392 181.507164 
L 380.427264 180.381305 
L 381.58848 180.01162 
L 387.201024 179.537751 
L 389.65248 179.426846 
L 391.813632 179.31258 
L 394.555392 179.201674 
L 395.9424 179.168066 
L 415.392768 179.060522 
L 415.973376 178.44214 
L 416.844288 178.109423 
L 417.908736 178.213607 
L 419.16672 178.492551 
L 420.908544 178.744609 
L 424.00512 178.956338 
L 455.712768 179.057161 
L 456.809472 179.937683 
L 457.261056 180.00826 
L 458.712576 180.048589 
L 462.744576 179.517587 
L 464.16384 179.332744 
L 467.518464 179.09413 
L 496.065024 179.013471 
L 496.58112 178.479108 
L 497.258496 178.176639 
L 498.387456 178.169917 
L 502.06464 178.825268 
L 504.258048 178.942895 
L 536.352768 179.0538 
L 537.255936 179.850303 
L 537.901056 180.00826 
L 539.352576 180.048589 
L 544.449024 179.406681 
L 545.61024 179.275611 
L 548.803584 179.0538 
L 576.73728 178.969781 
L 577.22112 178.479108 
L 577.898496 178.176639 
L 578.9952 178.166556 
L 582.478848 178.781578 
L 585.252864 178.959699 
L 599.1552 179.063883 
L 599.284224 179.208396 
L 602.025984 183.849622 
L 608.412672 192.686101 
L 608.961024 194.230376 
L 610.28352 199.186507 
L 611.476992 204.018625 
L 612.089856 206.652462 
L 612.251136 207.21808 
L 613.251072 211.694629 
L 614.605824 216.46091 
L 614.79936 216.989795 
L 615.573504 219.971472 
L 616.025088 221.274309 
L 616.186368 221.801715 
L 616.831488 223.674102 
L 617.121792 224.15234 
L 617.605632 225.500346 
L 618.089472 226.195353 
L 618.412032 226.580162 
L 618.637824 227.166617 
L 619.15392 228.465891 
L 619.670016 229.265419 
L 619.766784 229.469418 
L 620.540928 231.121237 
L 620.895744 231.6556 
L 621.315072 232.55091 
L 621.798912 233.447564 
L 621.927936 233.648874 
L 622.347264 234.226591 
L 623.605248 236.506203 
L 623.702016 236.658446 
L 624.024576 237.295312 
L 624.992256 238.671885 
L 625.250304 238.575094 
L 626.185728 237.385045 
L 626.766336 236.233644 
L 626.89536 236.191298 
L 627.830784 235.167943 
L 628.314624 234.391269 
L 628.379136 234.370432 
L 628.604928 234.123415 
L 628.798464 233.991673 
L 629.443584 233.532928 
L 630.185472 232.804312 
L 631.056384 231.808851 
L 631.24992 231.677109 
L 631.57248 231.422027 
L 632.314368 230.935051 
L 633.024 230.12981 
L 633.378816 229.560495 
L 633.8304 229.240213 
L 634.023936 229.233156 
L 634.217472 229.128972 
L 634.701312 228.872545 
L 635.92704 227.694258 
L 636.314112 227.059408 
L 636.668928 226.890361 
L 636.830208 226.885656 
L 638.604288 225.687541 
L 639.088128 225.215688 
L 639.507456 224.592265 
L 639.894528 224.480015 
L 640.313856 224.350625 
L 641.184768 223.73426 
L 642.442752 222.796268 
L 643.055616 222.214014 
L 643.797504 221.682038 
L 644.926464 220.624504 
L 645.571584 219.830017 
L 646.958592 217.91515 
L 647.70048 216.845584 
L 648.02304 216.371749 
L 653.087232 210.302933 
L 653.280768 210.101287 
L 653.474304 209.832425 
L 653.82912 208.908549 
L 655.958016 202.948219 
L 656.538624 201.782703 
L 658.473984 198.919661 
L 659.086848 198.099969 
L 660.086784 196.774817 
L 660.828672 195.998814 
L 661.989888 194.601741 
L 662.989824 193.684586 
L 663.602688 192.970758 
L 663.892992 192.305325 
L 664.667136 189.470514 
L 665.570304 186.495558 
L 666.473472 184.310048 
L 667.408896 182.700238 
L 668.118528 181.9239 
L 669.892608 180.300647 
L 670.634496 179.376434 
L 677.472768 169.593226 
L 679.504896 166.877722 
L 680.666112 165.378818 
L 689.568768 154.399175 
L 690.2784 154.81255 
L 691.020288 155.07469 
L 691.826688 155.212481 
L 692.923392 155.434292 
L 697.600512 156.963444 
L 697.794048 157.90446 
L 698.213376 160.64349 
L 698.568192 162.21297 
L 698.890752 162.784301 
L 699.245568 162.942258 
L 699.664896 162.743972 
L 700.568064 161.645 
L 701.342208 160.767838 
L 702.148608 160.236836 
L 703.051776 159.978057 
L 704.245248 159.961253 
L 705.92256 160.243558 
L 706.954752 160.455286 
L 707.470848 160.562831 
L 709.825536 161.164409 
L 719.14752 164.931835 
L 719.760384 165.167089 
L 722.37312 166.138352 
L 727.985664 168.006942 
L 729.211392 168.406874 
L 729.727488 168.56483 
L 730.791936 168.890825 
L 735.146496 170.141032 
L 735.823872 170.322514 
L 737.888256 170.853516 
L 737.952768 170.816547 
L 738.33984 170.268741 
L 738.82368 170.00324 
L 739.372032 170.04693 
L 740.081664 170.379647 
L 741.791232 171.327385 
L 742.791168 171.754203 
L 744.081408 172.17766 
L 753.725952 174.079857 
L 754.435584 174.187402 
L 756.338688 174.476428 
L 757.145088 174.587334 
L 758.725632 174.805784 
L 766.789632 175.756883 
L 767.660544 175.83082 
L 768.692736 175.935004 
L 769.176576 175.978694 
L 770.27328 176.089599 
L 775.692288 176.546664 
L 776.272896 176.597076 
L 776.788992 176.644126 
L 778.369536 176.912988 
L 778.885632 177.534731 
L 779.369472 177.796871 
L 780.466176 177.92122 
L 782.917632 177.265869 
L 783.433728 177.208736 
L 784.756224 177.18185 
L 786.24 177.22554 
L 788.530176 177.336446 
L 790.530048 177.437269 
L 791.304192 177.460794 
L 791.788032 177.501123 
L 792.52992 177.534731 
L 794.46528 177.625472 
L 795.207168 177.65908 
L 797.110272 177.74646 
L 797.85216 177.776707 
L 799.529472 177.840561 
L 802.109952 177.948106 
L 802.69056 177.958188 
L 804.400128 178.025404 
L 805.10976 178.059012 
L 806.593536 178.102702 
L 807.36768 178.129588 
L 808.915968 178.179999 
L 812.560896 178.290905 
L 813.98016 178.327873 
L 814.851072 178.341317 
L 815.528448 178.371563 
L 818.689536 178.26738 
L 819.270144 177.712852 
L 819.753984 177.52801 
L 820.43136 177.494402 
L 821.39904 177.706131 
L 824.914944 178.327873 
L 827.785728 178.516077 
L 832.559616 178.626982 
L 833.107968 178.630343 
L 858.912768 178.717723 
L 859.848192 179.544473 
L 860.493312 179.70579 
L 862.68672 179.594885 
L 864.364032 179.309219 
L 865.654272 179.151263 
L 869.847552 178.825268 
L 899.232768 178.721084 
L 899.78112 178.112784 
L 900.329472 177.840561 
L 902.264832 177.948106 
L 905.522688 178.516077 
L 907.68384 178.630343 
L 939.552768 178.721084 
L 940.617216 179.578081 
L 941.55264 179.762923 
L 943.488 179.652018 
L 946.455552 179.144541 
L 947.52 178.979863 
L 947.52 178.979863 
" clip-path="url(#pba0061966f)" style="fill: none; stroke: #008000; stroke-width: 2; stroke-linecap: square"/>
   </g>
   <g id="patch_10">
    <path d="M 100.8 242.888276 
L 100.8 150.157241 
" style="fill: none; stroke: #bcbcbc; stroke-width: 0.8; stroke-linejoin: miter; stroke-linecap: square"/>
   </g>
   <g id="patch_11">
    <path d="M 987.84 242.888276 
L 987.84 150.157241 
" style="fill: none; stroke: #bcbcbc; stroke-width: 0.8; stroke-linejoin: miter; stroke-linecap: square"/>
   </g>
   <g id="patch_12">
    <path d="M 100.8 242.888276 
L 987.84 242.888276 
" style="fill: none; stroke: #bcbcbc; stroke-width: 0.8; stroke-linejoin: miter; stroke-linecap: square"/>
   </g>
   <g id="patch_13">
    <path d="M 100.8 150.157241 
L 987.84 150.157241 
" style="fill: none; stroke: #bcbcbc; stroke-width: 0.8; stroke-linejoin: miter; stroke-linecap: square"/>
   </g>
  </g>
  <g id="axes_3">
   <g id="patch_14">
    <path d="M 100.8 354.165517 
L 987.84 354.165517 
L 987.84 261.434483 
L 100.8 261.434483 
z
" style="fill: #eeeeee"/>
   </g>
   <g id="matplotlib.axis_5">
    <g id="xtick_13">
     <g id="line2d_37">
      <path d="M 141.12 354.165517 
L 141.12 261.434483 
" clip-path="url(#pae7597a949)" style="fill: none; stroke-dasharray: 1.85,0.8; stroke-dashoffset: 0; stroke: #b2b2b2; stroke-width: 0.5"/>
     </g>
     <g id="line2d_38">
      <g>
       <use xlink:href="#m3a3e84f105" x="141.12" y="354.165517" style="stroke: #000000; stroke-width: 0.8"/>
      </g>
     </g>
    </g>
    <g id="xtick_14">
     <g id="line2d_39">
      <path d="M 302.4 354.165517 
L 302.4 261.434483 
" clip-path="url(#pae7597a949)" style="fill: none; stroke-dasharray: 1.85,0.8; stroke-dashoffset: 0; stroke: #b2b2b2; stroke-width: 0.5"/>
     </g>
     <g id="line2d_40">
      <g>
       <use xlink:href="#m3a3e84f105" x="302.4" y="354.165517" style="stroke: #000000; stroke-width: 0.8"/>
      </g>
     </g>
    </g>
    <g id="xtick_15">
     <g id="line2d_41">
      <path d="M 463.68 354.165517 
L 463.68 261.434483 
" clip-path="url(#pae7597a949)" style="fill: none; stroke-dasharray: 1.85,0.8; stroke-dashoffset: 0; stroke: #b2b2b2; stroke-width: 0.5"/>
     </g>
     <g id="line2d_42">
      <g>
       <use xlink:href="#m3a3e84f105" x="463.68" y="354.165517" style="stroke: #000000; stroke-width: 0.8"/>
      </g>
     </g>
    </g>
    <g id="xtick_16">
     <g id="line2d_43">
      <path d="M 624.96 354.165517 
L 624.96 261.434483 
" clip-path="url(#pae7597a949)" style="fill: none; stroke-dasharray: 1.85,0.8; stroke-dashoffset: 0; stroke: #b2b2b2; stroke-width: 0.5"/>
     </g>
     <g id="line2d_44">
      <g>
       <use xlink:href="#m3a3e84f105" x="624.96" y="354.165517" style="stroke: #000000; stroke-width: 0.8"/>
      </g>
     </g>
    </g>
    <g id="xtick_17">
     <g id="line2d_45">
      <path d="M 786.24 354.165517 
L 786.24 261.434483 
" clip-path="url(#pae7597a949)" style="fill: none; stroke-dasharray: 1.85,0.8; stroke-dashoffset: 0; stroke: #b2b2b2; stroke-width: 0.5"/>
     </g>
     <g id="line2d_46">
      <g>
       <use xlink:href="#m3a3e84f105" x="786.24" y="354.165517" style="stroke: #000000; stroke-width: 0.8"/>
      </g>
     </g>
    </g>
    <g id="xtick_18">
     <g id="line2d_47">
      <path d="M 947.52 354.165517 
L 947.52 261.434483 
" clip-path="url(#pae7597a949)" style="fill: none; stroke-dasharray: 1.85,0.8; stroke-dashoffset: 0; stroke: #b2b2b2; stroke-width: 0.5"/>
     </g>
     <g id="line2d_48">
      <g>
       <use xlink:href="#m3a3e84f105" x="947.52" y="354.165517" style="stroke: #000000; stroke-width: 0.8"/>
      </g>
     </g>
    </g>
   </g>
   <g id="matplotlib.axis_6">
    <g id="ytick_6">
     <g id="line2d_49">
      <path d="M 100.8 344.750924 
L 987.84 344.750924 
" clip-path="url(#pae7597a949)" style="fill: none; stroke-dasharray: 1.85,0.8; stroke-dashoffset: 0; stroke: #b2b2b2; stroke-width: 0.5"/>
     </g>
     <g id="line2d_50">
      <g>
       <use xlink:href="#m3affe72744" x="100.8" y="344.750924" style="stroke: #000000; stroke-width: 0.8"/>
      </g>
     </g>
     <g id="text_8">
      <!-- 0 V -->
      <g transform="translate(74.36625 350.069831) scale(0.14 -0.14)">
       <use xlink:href="#DejaVuSans-30"/>
       <use xlink:href="#DejaVuSans-20" x="63.623047"/>
       <use xlink:href="#DejaVuSans-56" x="95.410156"/>
      </g>
     </g>
    </g>
    <g id="ytick_7">
     <g id="line2d_51">
      <path d="M 100.8 303.706199 
L 987.84 303.706199 
" clip-path="url(#pae7597a949)" style="fill: none; stroke-dasharray: 1.85,0.8; stroke-dashoffset: 0; stroke: #b2b2b2; stroke-width: 0.5"/>
     </g>
     <g id="line2d_52">
      <g>
       <use xlink:href="#m3affe72744" x="100.8" y="303.706199" style="stroke: #000000; stroke-width: 0.8"/>
      </g>
     </g>
     <g id="text_9">
      <!-- 1 V -->
      <g transform="translate(74.36625 309.025105) scale(0.14 -0.14)">
       <use xlink:href="#DejaVuSans-31"/>
       <use xlink:href="#DejaVuSans-20" x="63.623047"/>
       <use xlink:href="#DejaVuSans-56" x="95.410156"/>
      </g>
     </g>
    </g>
    <g id="ytick_8">
     <g id="line2d_53">
      <path d="M 100.8 262.661474 
L 987.84 262.661474 
" clip-path="url(#pae7597a949)" style="fill: none; stroke-dasharray: 1.85,0.8; stroke-dashoffset: 0; stroke: #b2b2b2; stroke-width: 0.5"/>
     </g>
     <g id="line2d_54">
      <g>
       <use xlink:href="#m3affe72744" x="100.8" y="262.661474" style="stroke: #000000; stroke-width: 0.8"/>
      </g>
     </g>
     <g id="text_10">
      <!-- 2 V -->
      <g transform="translate(74.36625 267.98038) scale(0.14 -0.14)">
       <use xlink:href="#DejaVuSans-32"/>
       <use xlink:href="#DejaVuSans-20" x="63.623047"/>
       <use xlink:href="#DejaVuSans-56" x="95.410156"/>
      </g>
     </g>
    </g>
    <g id="text_11">
     <g id="patch_15">
      <path d="M 34.8768 342.395313 
L 34.8768 273.204688 
L 11.247425 273.204688 
L 11.247425 342.395313 
z
" style="fill: #ffff00; opacity: 0.2; stroke: #eeeeee; stroke-width: 0.5; stroke-linejoin: miter"/>
     </g>
     <!-- CLK BUF -->
     <g transform="translate(26.925238 337.355313) rotate(-90) scale(0.14 -0.14)">
      <defs>
       <path id="DejaVuSans-43" d="M 4122 4306 
L 4122 3641 
Q 3803 3938 3442 4084 
Q 3081 4231 2675 4231 
Q 1875 4231 1450 3742 
Q 1025 3253 1025 2328 
Q 1025 1406 1450 917 
Q 1875 428 2675 428 
Q 3081 428 3442 575 
Q 3803 722 4122 1019 
L 4122 359 
Q 3791 134 3420 21 
Q 3050 -91 2638 -91 
Q 1578 -91 968 557 
Q 359 1206 359 2328 
Q 359 3453 968 4101 
Q 1578 4750 2638 4750 
Q 3056 4750 3426 4639 
Q 3797 4528 4122 4306 
z
" transform="scale(0.015625)"/>
       <path id="DejaVuSans-4b" d="M 628 4666 
L 1259 4666 
L 1259 2694 
L 3353 4666 
L 4166 4666 
L 1850 2491 
L 4331 0 
L 3500 0 
L 1259 2247 
L 1259 0 
L 628 0 
L 628 4666 
z
" transform="scale(0.015625)"/>
      </defs>
      <use xlink:href="#DejaVuSans-43"/>
      <use xlink:href="#DejaVuSans-4c" x="69.824219"/>
      <use xlink:href="#DejaVuSans-4b" x="125.537109"/>
      <use xlink:href="#DejaVuSans-20" x="191.113281"/>
      <use xlink:href="#DejaVuSans-42" x="222.900391"/>
      <use xlink:href="#DejaVuSans-55" x="291.503906"/>
      <use xlink:href="#DejaVuSans-46" x="364.697266"/>
     </g>
    </g>
   </g>
   <g id="line2d_55">
    <path d="M 141.12 344.749839 
L 173.376 344.749839 
L 173.601792 295.497254 
L 213.696 295.497254 
L 213.760512 334.784855 
L 213.825024 344.732173 
L 213.889536 344.673108 
L 213.954048 344.837077 
L 214.01856 344.755372 
L 215.437824 344.745533 
L 223.824384 344.749753 
L 254.016 344.749811 
L 254.17728 295.345389 
L 254.241792 295.608075 
L 254.403072 295.489045 
L 254.854656 295.497254 
L 294.336 295.497254 
L 294.400512 334.750377 
L 294.465024 345.057204 
L 294.529536 344.343588 
L 294.626304 344.815426 
L 294.65856 344.786219 
L 294.884352 344.728195 
L 295.206912 344.76586 
L 295.497216 344.749519 
L 321.91488 344.749838 
L 334.656 344.749841 
L 334.81728 295.423374 
L 334.881792 295.513672 
L 335.204352 295.501359 
L 336.10752 295.497254 
L 374.976 295.497254 
L 375.040512 334.788549 
L 375.105024 344.75159 
L 375.169536 344.667903 
L 375.266304 344.818808 
L 375.29856 344.755509 
L 376.782336 344.745221 
L 385.4592 344.749752 
L 415.296 344.749841 
L 415.45728 295.345389 
L 415.521792 295.608075 
L 415.683072 295.484941 
L 416.683008 295.501359 
L 455.616 295.497254 
L 455.680512 334.75284 
L 455.745024 345.062261 
L 455.809536 344.154011 
L 455.906304 345.353133 
L 455.93856 344.817684 
L 456.132096 344.726274 
L 456.551424 344.750162 
L 491.613696 344.749838 
L 495.936 344.749839 
L 496.09728 295.415165 
L 496.161792 295.513672 
L 497.161728 295.497254 
L 536.256 295.497254 
L 536.320512 334.75284 
L 536.385024 345.062216 
L 536.449536 344.154093 
L 536.546304 345.353051 
L 536.57856 344.81768 
L 536.772096 344.726276 
L 537.191424 344.750162 
L 572.253696 344.749838 
L 576.576 344.74984 
L 576.73728 295.415165 
L 576.801792 295.513672 
L 577.801728 295.497254 
L 599.251968 295.60397 
L 600.897024 297.873744 
L 602.574336 300.636054 
L 609.47712 311.840853 
L 612.38016 316.073385 
L 615.896064 320.804611 
L 616.670208 321.774498 
L 616.863744 322.019945 
L 616.896 322.05237 
L 616.960512 320.605954 
L 616.992768 320.982745 
L 617.315328 345.928703 
L 617.960448 346.077244 
L 618.895872 346.468154 
L 621.540864 347.975193 
L 622.637568 348.624808 
L 625.12128 349.869612 
L 626.282496 349.354911 
L 626.89536 349.116852 
L 627.024384 349.021218 
L 627.05664 349.084837 
L 627.153408 349.031479 
L 627.508224 348.914501 
L 632.2176 347.413742 
L 637.572096 345.954027 
L 642.636288 344.951223 
L 645.087744 344.52712 
L 645.732864 344.415088 
L 647.732736 344.241354 
L 649.539072 344.210283 
L 657.216 344.289376 
L 657.248256 341.174985 
L 657.409536 313.924694 
L 657.474048 313.981746 
L 657.53856 313.945627 
L 662.731776 311.426301 
L 663.731712 310.884101 
L 665.11872 308.401305 
L 667.21536 304.049743 
L 671.376384 295.456209 
L 672.05376 294.130465 
L 673.82784 290.764797 
L 679.279104 281.271152 
L 680.27904 279.686826 
L 682.05312 276.965561 
L 689.504256 265.768559 
L 690.955776 265.68647 
L 693.374976 266.408857 
L 694.891008 267.057364 
L 696.826368 267.90699 
L 697.245696 268.095795 
L 697.536 268.210721 
L 697.69728 345.081622 
L 697.729536 345.223267 
L 697.794048 345.128281 
L 698.116608 345.124033 
L 710.502912 345.200323 
L 712.8576 345.221338 
L 732.469248 345.060348 
L 736.920576 345.023367 
L 737.856 345.015064 
L 737.985024 285.240177 
L 738.081792 285.375625 
L 738.210816 285.568535 
L 738.630144 285.675251 
L 740.146176 286.143161 
L 740.565504 286.249877 
L 741.533184 286.512564 
L 741.920256 286.61928 
L 742.887936 286.881966 
L 743.275008 286.988682 
L 744.14592 287.210324 
L 744.532992 287.31704 
L 745.307136 287.497637 
L 745.694208 287.604353 
L 746.468352 287.78495 
L 746.952192 287.891666 
L 747.726336 288.072263 
L 748.210176 288.17898 
L 748.98432 288.359576 
L 749.46816 288.466293 
L 750.11328 288.605845 
L 750.629376 288.712561 
L 751.274496 288.852113 
L 751.790592 288.958829 
L 752.435712 289.098381 
L 752.951808 289.205098 
L 753.50016 289.303605 
L 754.016256 289.410321 
L 754.564608 289.508829 
L 755.177472 289.615545 
L 755.725824 289.714052 
L 756.24192 289.820769 
L 756.790272 289.919276 
L 757.403136 290.025992 
L 757.951488 290.124499 
L 758.66112 290.227111 
L 759.015936 290.288678 
L 759.6288 290.39129 
L 759.983616 290.452857 
L 760.693248 290.555469 
L 761.048064 290.617036 
L 761.757696 290.719648 
L 762.112512 290.781215 
L 762.822144 290.883827 
L 763.17696 290.945394 
L 763.98336 291.048006 
L 764.338176 291.109573 
L 765.241344 291.212185 
L 765.59616 291.273752 
L 766.40256 291.376364 
L 766.660608 291.396886 
L 767.37024 291.499498 
L 767.628288 291.52002 
L 768.434688 291.622632 
L 768.789504 291.680095 
L 774.531072 292.29987 
L 775.498752 292.402482 
L 775.7568 292.423004 
L 776.756736 292.525616 
L 777.014784 292.546138 
L 778.111488 292.64875 
L 778.176 292.669272 
L 778.208256 298.222624 
L 778.33728 344.838961 
L 778.595328 344.827103 
L 818.496 344.771615 
L 818.592768 294.700986 
L 818.721792 294.717404 
L 823.205376 294.824121 
L 823.463424 294.840538 
L 829.495296 294.947255 
L 829.753344 294.963673 
L 837.430272 295.070389 
L 837.68832 295.086807 
L 858.816 295.086807 
L 858.945024 345.064572 
L 859.106304 344.825671 
L 859.364352 344.734169 
L 859.719168 344.77885 
L 860.041728 344.761379 
L 899.136 344.761594 
L 899.29728 294.873374 
L 899.361792 295.33718 
L 899.45856 294.914419 
L 899.523072 295.070389 
L 900.006912 295.086807 
L 939.456 295.086807 
L 939.488256 302.487171 
L 939.61728 344.712807 
L 939.649536 344.832177 
L 939.714048 344.717958 
L 939.810816 344.7349 
L 940.004352 344.786153 
L 940.230144 344.760291 
L 945.9072 344.761596 
L 947.52 344.761584 
L 947.52 344.761584 
" clip-path="url(#pae7597a949)" style="fill: none; stroke: #0000ff; stroke-width: 2; stroke-linecap: square"/>
   </g>
   <g id="patch_16">
    <path d="M 100.8 354.165517 
L 100.8 261.434483 
" style="fill: none; stroke: #bcbcbc; stroke-width: 0.8; stroke-linejoin: miter; stroke-linecap: square"/>
   </g>
   <g id="patch_17">
    <path d="M 987.84 354.165517 
L 987.84 261.434483 
" style="fill: none; stroke: #bcbcbc; stroke-width: 0.8; stroke-linejoin: miter; stroke-linecap: square"/>
   </g>
   <g id="patch_18">
    <path d="M 100.8 354.165517 
L 987.84 354.165517 
" style="fill: none; stroke: #bcbcbc; stroke-width: 0.8; stroke-linejoin: miter; stroke-linecap: square"/>
   </g>
   <g id="patch_19">
    <path d="M 100.8 261.434483 
L 987.84 261.434483 
" style="fill: none; stroke: #bcbcbc; stroke-width: 0.8; stroke-linejoin: miter; stroke-linecap: square"/>
   </g>
  </g>
  <g id="axes_4">
   <g id="patch_20">
    <path d="M 100.8 465.442759 
L 987.84 465.442759 
L 987.84 372.711724 
L 100.8 372.711724 
z
" style="fill: #eeeeee"/>
   </g>
   <g id="matplotlib.axis_7">
    <g id="xtick_19">
     <g id="line2d_56">
      <path d="M 141.12 465.442759 
L 141.12 372.711724 
" clip-path="url(#pb7ad273828)" style="fill: none; stroke-dasharray: 1.85,0.8; stroke-dashoffset: 0; stroke: #b2b2b2; stroke-width: 0.5"/>
     </g>
     <g id="line2d_57">
      <g>
       <use xlink:href="#m3a3e84f105" x="141.12" y="465.442759" style="stroke: #000000; stroke-width: 0.8"/>
      </g>
     </g>
    </g>
    <g id="xtick_20">
     <g id="line2d_58">
      <path d="M 302.4 465.442759 
L 302.4 372.711724 
" clip-path="url(#pb7ad273828)" style="fill: none; stroke-dasharray: 1.85,0.8; stroke-dashoffset: 0; stroke: #b2b2b2; stroke-width: 0.5"/>
     </g>
     <g id="line2d_59">
      <g>
       <use xlink:href="#m3a3e84f105" x="302.4" y="465.442759" style="stroke: #000000; stroke-width: 0.8"/>
      </g>
     </g>
    </g>
    <g id="xtick_21">
     <g id="line2d_60">
      <path d="M 463.68 465.442759 
L 463.68 372.711724 
" clip-path="url(#pb7ad273828)" style="fill: none; stroke-dasharray: 1.85,0.8; stroke-dashoffset: 0; stroke: #b2b2b2; stroke-width: 0.5"/>
     </g>
     <g id="line2d_61">
      <g>
       <use xlink:href="#m3a3e84f105" x="463.68" y="465.442759" style="stroke: #000000; stroke-width: 0.8"/>
      </g>
     </g>
    </g>
    <g id="xtick_22">
     <g id="line2d_62">
      <path d="M 624.96 465.442759 
L 624.96 372.711724 
" clip-path="url(#pb7ad273828)" style="fill: none; stroke-dasharray: 1.85,0.8; stroke-dashoffset: 0; stroke: #b2b2b2; stroke-width: 0.5"/>
     </g>
     <g id="line2d_63">
      <g>
       <use xlink:href="#m3a3e84f105" x="624.96" y="465.442759" style="stroke: #000000; stroke-width: 0.8"/>
      </g>
     </g>
    </g>
    <g id="xtick_23">
     <g id="line2d_64">
      <path d="M 786.24 465.442759 
L 786.24 372.711724 
" clip-path="url(#pb7ad273828)" style="fill: none; stroke-dasharray: 1.85,0.8; stroke-dashoffset: 0; stroke: #b2b2b2; stroke-width: 0.5"/>
     </g>
     <g id="line2d_65">
      <g>
       <use xlink:href="#m3a3e84f105" x="786.24" y="465.442759" style="stroke: #000000; stroke-width: 0.8"/>
      </g>
     </g>
    </g>
    <g id="xtick_24">
     <g id="line2d_66">
      <path d="M 947.52 465.442759 
L 947.52 372.711724 
" clip-path="url(#pb7ad273828)" style="fill: none; stroke-dasharray: 1.85,0.8; stroke-dashoffset: 0; stroke: #b2b2b2; stroke-width: 0.5"/>
     </g>
     <g id="line2d_67">
      <g>
       <use xlink:href="#m3a3e84f105" x="947.52" y="465.442759" style="stroke: #000000; stroke-width: 0.8"/>
      </g>
     </g>
    </g>
   </g>
   <g id="matplotlib.axis_8">
    <g id="ytick_9">
     <g id="line2d_68">
      <path d="M 100.8 437.300423 
L 987.84 437.300423 
" clip-path="url(#pb7ad273828)" style="fill: none; stroke-dasharray: 1.85,0.8; stroke-dashoffset: 0; stroke: #b2b2b2; stroke-width: 0.5"/>
     </g>
     <g id="line2d_69">
      <g>
       <use xlink:href="#m3affe72744" x="100.8" y="437.300423" style="stroke: #000000; stroke-width: 0.8"/>
      </g>
     </g>
     <g id="text_12">
      <!-- 0 V -->
      <g transform="translate(74.36625 442.619329) scale(0.14 -0.14)">
       <use xlink:href="#DejaVuSans-30"/>
       <use xlink:href="#DejaVuSans-20" x="63.623047"/>
       <use xlink:href="#DejaVuSans-56" x="95.410156"/>
      </g>
     </g>
    </g>
    <g id="ytick_10">
     <g id="line2d_70">
      <path d="M 100.8 395.222327 
L 987.84 395.222327 
" clip-path="url(#pb7ad273828)" style="fill: none; stroke-dasharray: 1.85,0.8; stroke-dashoffset: 0; stroke: #b2b2b2; stroke-width: 0.5"/>
     </g>
     <g id="line2d_71">
      <g>
       <use xlink:href="#m3affe72744" x="100.8" y="395.222327" style="stroke: #000000; stroke-width: 0.8"/>
      </g>
     </g>
     <g id="text_13">
      <!-- 1 V -->
      <g transform="translate(74.36625 400.541234) scale(0.14 -0.14)">
       <use xlink:href="#DejaVuSans-31"/>
       <use xlink:href="#DejaVuSans-20" x="63.623047"/>
       <use xlink:href="#DejaVuSans-56" x="95.410156"/>
      </g>
     </g>
    </g>
    <g id="text_14">
     <g id="patch_21">
      <path d="M 34.8768 454.693023 
L 34.8768 383.46146 
L 11.247425 383.46146 
L 11.247425 454.693023 
z
" style="fill: #ffff00; opacity: 0.2; stroke: #eeeeee; stroke-width: 0.5; stroke-linejoin: miter"/>
     </g>
     <!-- DFF OUT -->
     <g transform="translate(26.925238 449.653023) rotate(-90) scale(0.14 -0.14)">
      <defs>
       <path id="DejaVuSans-4f" d="M 2522 4238 
Q 1834 4238 1429 3725 
Q 1025 3213 1025 2328 
Q 1025 1447 1429 934 
Q 1834 422 2522 422 
Q 3209 422 3611 934 
Q 4013 1447 4013 2328 
Q 4013 3213 3611 3725 
Q 3209 4238 2522 4238 
z
M 2522 4750 
Q 3503 4750 4090 4092 
Q 4678 3434 4678 2328 
Q 4678 1225 4090 567 
Q 3503 -91 2522 -91 
Q 1538 -91 948 565 
Q 359 1222 359 2328 
Q 359 3434 948 4092 
Q 1538 4750 2522 4750 
z
" transform="scale(0.015625)"/>
       <path id="DejaVuSans-54" d="M -19 4666 
L 3928 4666 
L 3928 4134 
L 2272 4134 
L 2272 0 
L 1638 0 
L 1638 4134 
L -19 4134 
L -19 4666 
z
" transform="scale(0.015625)"/>
      </defs>
      <use xlink:href="#DejaVuSans-44"/>
      <use xlink:href="#DejaVuSans-46" x="77.001953"/>
      <use xlink:href="#DejaVuSans-46" x="134.521484"/>
      <use xlink:href="#DejaVuSans-20" x="192.041016"/>
      <use xlink:href="#DejaVuSans-4f" x="223.828125"/>
      <use xlink:href="#DejaVuSans-55" x="302.539062"/>
      <use xlink:href="#DejaVuSans-54" x="375.732422"/>
     </g>
    </g>
   </g>
   <g id="line2d_72">
    <path d="M 141.12 405.551237 
L 173.408256 405.602573 
L 173.440512 407.344606 
L 173.601792 437.302991 
L 174.085632 437.297731 
L 183.794688 437.299307 
L 254.048256 437.301064 
L 254.080512 437.469274 
L 254.112768 437.191033 
L 254.306304 433.082936 
L 254.596608 432.259467 
L 254.693376 431.672057 
L 255.14496 424.299975 
L 255.370752 406.973056 
L 255.596544 387.214866 
L 255.757824 386.869825 
L 255.983616 386.8025 
L 256.854528 386.806708 
L 295.755264 386.890864 
L 296.239104 389.613317 
L 296.59392 388.931652 
L 297.948672 387.151748 
L 299.561472 386.840371 
L 334.688256 386.823539 
L 334.720512 386.701513 
L 334.752768 387.320061 
L 334.785024 390.379138 
L 334.914048 437.283174 
L 334.97856 437.246142 
L 335.13984 437.291604 
L 335.494656 437.299812 
L 365.13792 437.299265 
L 415.328256 437.301039 
L 415.360512 437.468689 
L 415.392768 437.193364 
L 415.586304 432.984894 
L 415.844352 432.134495 
L 415.908864 431.903487 
L 416.1024 426.913445 
L 416.521728 412.386403 
L 416.9088 386.945566 
L 417.102336 386.810916 
L 417.682944 386.840371 
L 418.166784 386.798292 
L 418.940928 386.806708 
L 495.968256 386.823539 
L 496.000512 386.966605 
L 496.065024 386.773046 
L 496.323072 386.798292 
L 576.608256 386.823539 
L 576.640512 386.966605 
L 576.705024 386.773046 
L 576.963072 386.798292 
L 599.219712 386.874033 
L 600.187392 388.178454 
L 601.477632 390.219242 
L 607.122432 400.010394 
L 607.735296 401.578644 
L 608.541696 404.787099 
L 608.702976 405.242805 
L 609.057792 407.08288 
L 609.702912 410.171412 
L 610.315776 413.13876 
L 610.348032 412.639293 
L 610.380288 412.682633 
L 610.541568 414.240785 
L 610.993152 416.443153 
L 611.025408 415.934428 
L 611.057664 416.579906 
L 611.283456 417.847719 
L 611.541504 419.173179 
L 611.57376 418.539904 
L 611.638272 419.025906 
L 611.799552 420.420374 
L 612.025344 421.401635 
L 612.089856 421.320004 
L 612.186624 421.64653 
L 612.347904 423.286313 
L 614.121984 431.915689 
L 614.63808 434.09483 
L 614.670336 433.389054 
L 614.734848 434.264699 
L 614.928384 435.308825 
L 615.863808 439.192549 
L 615.896064 438.852432 
L 615.960576 439.106078 
L 615.992832 439.119712 
L 616.670208 442.133513 
L 616.702464 441.915549 
L 616.799232 442.082599 
L 616.831488 442.478974 
L 616.928256 442.397343 
L 617.05728 442.757111 
L 617.21856 443.661369 
L 617.831424 445.155141 
L 617.928192 445.192591 
L 618.315264 445.843118 
L 618.5088 446.272315 
L 618.67008 447.079793 
L 620.76672 452.034489 
L 620.895744 452.37953 
L 621.057024 453.006493 
L 621.121536 453.129782 
L 621.153792 452.92949 
L 621.218304 453.105798 
L 621.347328 453.605685 
L 621.379584 453.576231 
L 621.702144 454.456084 
L 621.7344 454.402644 
L 621.766656 454.47039 
L 624.96 461.187317 
L 625.089024 461.184371 
L 625.28256 460.978609 
L 625.314816 461.075389 
L 625.476096 460.695003 
L 625.508352 460.69879 
L 625.540608 460.546888 
L 625.60512 459.571939 
L 625.637376 460.351646 
L 625.701888 460.108855 
L 625.7664 459.507559 
L 625.798656 459.800002 
L 625.830912 460.065515 
L 625.895424 459.761711 
L 625.92768 459.815571 
L 625.959936 459.66451 
L 626.830848 457.917428 
L 626.863104 457.938467 
L 627.250176 457.412491 
L 627.572736 456.736716 
L 627.637248 456.822135 
L 628.02432 456.013815 
L 628.056576 456.182127 
L 628.088832 455.934708 
L 628.314624 455.669195 
L 628.34688 455.733995 
L 628.50816 455.400316 
L 628.540416 455.582093 
L 628.572672 455.309848 
L 629.088768 454.864241 
L 629.282304 454.656375 
L 629.63712 454.036565 
L 629.830656 453.750013 
L 629.862912 453.890975 
L 629.895168 453.652392 
L 629.927424 453.636402 
L 629.95968 453.813551 
L 629.991936 453.601898 
L 630.153216 453.344801 
L 630.185472 453.573285 
L 630.217728 453.244234 
L 630.249984 453.271585 
L 630.379008 453.054883 
L 630.637056 452.775484 
L 630.669312 452.977459 
L 630.701568 452.709422 
L 630.92736 452.441384 
L 630.959616 452.653037 
L 630.991872 452.384158 
L 631.024128 452.52007 
L 631.185408 452.180079 
L 631.217664 452.372376 
L 631.282176 452.100973 
L 631.89504 451.650316 
L 632.346624 451.092361 
L 632.475648 450.685886 
L 632.669184 450.390919 
L 632.70144 450.713237 
L 632.765952 450.325277 
L 633.572352 449.468567 
L 633.8304 449.261122 
L 633.862656 449.45384 
L 633.927168 449.293522 
L 633.959424 449.275428 
L 634.088448 449.090285 
L 634.443264 448.867692 
L 635.023872 448.10692 
L 635.185152 447.678565 
L 635.539968 447.267883 
L 635.572224 447.563692 
L 635.60448 447.524138 
L 635.636736 447.072219 
L 635.733504 447.079793 
L 636.056064 446.719605 
L 636.57216 446.311027 
L 636.636672 446.272736 
L 636.668928 446.460404 
L 636.73344 446.284097 
L 637.023744 446.146501 
L 638.313984 444.639685 
L 638.443008 444.21133 
L 638.572032 444.058586 
L 638.604288 444.484416 
L 638.6688 444.343034 
L 638.83008 443.772455 
L 638.959104 443.717333 
L 638.99136 444.136851 
L 639.023616 443.632335 
L 639.055872 443.637805 
L 639.668736 443.275934 
L 640.184832 443.050816 
L 641.152512 442.054827 
L 641.281536 441.453531 
L 641.57184 441.09208 
L 641.604096 441.570088 
L 641.636352 441.001781 
L 641.700864 441.467543 
L 641.829888 440.809105 
L 641.862144 440.811377 
L 641.8944 441.187261 
L 641.926656 440.711105 
L 641.958912 440.736478 
L 642.05568 440.770015 
L 642.023424 440.654216 
L 642.087936 440.724991 
L 642.184704 440.760505 
L 642.21696 440.549525 
L 642.313728 440.455439 
L 642.345984 440.741191 
L 642.442752 440.694737 
L 642.475008 440.367201 
L 642.53952 440.465495 
L 642.571776 440.59072 
L 642.604032 440.273788 
L 642.636288 440.293901 
L 642.668544 440.503282 
L 642.7008 440.263983 
L 642.733056 440.270548 
L 643.087872 440.172379 
L 644.3136 438.888493 
L 644.571648 438.514124 
L 644.732928 437.569609 
L 644.765184 437.588734 
L 644.79744 438.128436 
L 644.861952 437.472396 
L 644.894208 437.970853 
L 644.990976 437.371026 
L 645.023232 437.596182 
L 645.087744 437.556632 
L 645.12 437.283741 
L 645.216768 437.360309 
L 645.345792 437.17089 
L 646.023168 435.908858 
L 646.216704 434.831954 
L 646.24896 435.468132 
L 646.313472 434.695663 
L 646.442496 434.539132 
L 646.474752 435.017097 
L 646.539264 434.594339 
L 646.668288 434.512286 
L 646.700544 434.595938 
L 646.765056 434.482537 
L 647.506944 433.027813 
L 647.603712 432.749677 
L 647.732736 431.776411 
L 647.797248 432.237166 
L 647.86176 432.091155 
L 647.926272 431.572332 
L 648.02304 431.712452 
L 648.119808 431.741065 
L 648.99072 429.958637 
L 649.248768 429.541222 
L 649.281024 428.869656 
L 649.377792 428.905001 
L 649.47456 428.991262 
L 649.506816 428.907947 
L 653.50656 420.498219 
L 653.603328 419.991178 
L 653.700096 420.108155 
L 653.796864 420.00843 
L 654.764544 417.791756 
L 654.893568 417.182886 
L 654.925824 417.586835 
L 654.990336 417.421468 
L 655.11936 416.924947 
L 655.151616 417.252314 
L 655.248384 417.108407 
L 656.151552 415.290213 
L 656.24832 415.179968 
L 656.538624 414.692704 
L 656.667648 414.476843 
L 656.699904 414.100244 
L 656.796672 414.188187 
L 656.861184 414.129699 
L 657.86112 412.551349 
L 658.0224 412.526523 
L 658.119168 412.899335 
L 658.215936 414.620329 
L 658.34496 427.445733 
L 658.50624 436.625112 
L 658.699776 436.628604 
L 660.667392 436.780969 
L 663.763968 436.747307 
L 664.409088 436.163389 
L 665.215488 435.770716 
L 666.215424 435.542695 
L 667.763712 435.446757 
L 671.118336 435.531208 
L 683.472384 435.938145 
L 685.310976 435.895814 
L 689.439744 436.035934 
L 689.730048 436.338392 
L 690.407424 436.896781 
L 691.24608 437.280438 
L 692.471808 437.540929 
L 694.278144 437.665594 
L 697.568256 437.687731 
L 697.600512 437.622813 
L 697.632768 437.731092 
L 697.665024 437.708194 
L 709.244928 437.685131 
L 711.08352 437.781334 
L 717.018624 437.747797 
L 737.888256 437.565435 
L 737.920512 437.90235 
L 738.210816 430.455579 
L 738.436608 429.048067 
L 738.597888 426.379053 
L 738.759168 418.567255 
L 738.952704 395.255569 
L 739.14624 377.107707 
L 739.275264 376.935187 
L 739.30752 376.94781 
L 740.726784 377.385422 
L 741.146112 377.494825 
L 742.113792 377.764125 
L 742.500864 377.873528 
L 743.371776 378.10075 
L 743.758848 378.210153 
L 744.62976 378.437375 
L 745.016832 378.546778 
L 745.790976 378.731921 
L 746.274816 378.841325 
L 747.04896 379.026468 
L 747.436032 379.135871 
L 748.081152 379.278937 
L 748.50048 379.38834 
L 749.1456 379.531405 
L 749.661696 379.640808 
L 750.306816 379.783874 
L 750.822912 379.893277 
L 751.468032 380.036342 
L 751.984128 380.145745 
L 752.629248 380.288811 
L 753.242112 380.398214 
L 753.887232 380.54128 
L 754.500096 380.650683 
L 755.048448 380.75167 
L 755.564544 380.861073 
L 756.112896 380.962061 
L 756.72576 381.067256 
L 757.080576 381.130373 
L 757.69344 381.239776 
L 758.241792 381.340763 
L 758.854656 381.445959 
L 759.209472 381.509076 
L 759.919104 381.614271 
L 760.27392 381.677388 
L 760.983552 381.782583 
L 761.338368 381.845701 
L 762.048 381.950896 
L 762.402816 382.014013 
L 763.112448 382.119208 
L 763.467264 382.182325 
L 764.273664 382.287521 
L 764.62848 382.350638 
L 765.531648 382.455833 
L 765.886464 382.51895 
L 766.789632 382.624145 
L 767.144448 382.687262 
L 768.047616 382.792458 
L 768.305664 382.813497 
L 769.112064 382.918692 
L 769.46688 382.981809 
L 770.466816 383.087004 
L 770.724864 383.108043 
L 771.531264 383.213239 
L 771.789312 383.234278 
L 772.69248 383.339473 
L 772.950528 383.360512 
L 773.853696 383.465707 
L 774.111744 383.486746 
L 775.014912 383.591942 
L 775.27296 383.612981 
L 776.272896 383.718176 
L 776.530944 383.739215 
L 777.627648 383.84441 
L 777.885696 383.865449 
L 778.9824 383.970644 
L 779.240448 383.991683 
L 780.43392 384.096879 
L 780.691968 384.117918 
L 781.88544 384.223113 
L 782.143488 384.244152 
L 783.530496 384.349347 
L 783.788544 384.370386 
L 785.175552 384.475582 
L 785.4336 384.496621 
L 786.917376 384.601816 
L 787.175424 384.618647 
L 788.755968 384.72805 
L 789.014016 384.744881 
L 790.691328 384.854284 
L 790.949376 384.871116 
L 792.820224 384.980519 
L 793.078272 384.99735 
L 795.045888 385.106753 
L 795.303936 385.123584 
L 797.465088 385.232987 
L 797.819904 385.254026 
L 800.077824 385.359222 
L 800.335872 385.376053 
L 802.980864 385.485456 
L 803.238912 385.506495 
L 806.07744 385.61169 
L 806.335488 385.628521 
L 809.561088 385.737924 
L 809.819136 385.754756 
L 813.528576 385.864159 
L 813.851136 385.885198 
L 814.689792 385.885198 
L 817.979904 385.990393 
L 818.302464 386.011432 
L 818.528256 386.003016 
L 818.560512 386.204991 
L 818.625024 386.007224 
L 819.495936 386.003016 
L 823.17312 386.104004 
L 823.527936 386.137666 
L 824.398848 386.133459 
L 829.495296 386.242862 
L 829.817856 386.259693 
L 837.430272 386.369096 
L 837.68832 386.385927 
L 899.168256 386.381719 
L 899.200512 386.596318 
L 899.265024 386.381719 
L 899.45856 386.36068 
L 900.490752 386.385927 
L 947.52 386.385927 
L 947.52 386.385927 
" clip-path="url(#pb7ad273828)" style="fill: none; stroke: #ff00ff; stroke-width: 2; stroke-linecap: square"/>
   </g>
   <g id="patch_22">
    <path d="M 100.8 465.442759 
L 100.8 372.711724 
" style="fill: none; stroke: #bcbcbc; stroke-width: 0.8; stroke-linejoin: miter; stroke-linecap: square"/>
   </g>
   <g id="patch_23">
    <path d="M 987.84 465.442759 
L 987.84 372.711724 
" style="fill: none; stroke: #bcbcbc; stroke-width: 0.8; stroke-linejoin: miter; stroke-linecap: square"/>
   </g>
   <g id="patch_24">
    <path d="M 100.8 465.442759 
L 987.84 465.442759 
" style="fill: none; stroke: #bcbcbc; stroke-width: 0.8; stroke-linejoin: miter; stroke-linecap: square"/>
   </g>
   <g id="patch_25">
    <path d="M 100.8 372.711724 
L 987.84 372.711724 
" style="fill: none; stroke: #bcbcbc; stroke-width: 0.8; stroke-linejoin: miter; stroke-linecap: square"/>
   </g>
  </g>
  <g id="axes_5">
   <g id="patch_26">
    <path d="M 100.8 576.72 
L 987.84 576.72 
L 987.84 483.988966 
L 100.8 483.988966 
z
" style="fill: #eeeeee"/>
   </g>
   <g id="matplotlib.axis_9">
    <g id="xtick_25">
     <g id="line2d_73">
      <path d="M 141.12 576.72 
L 141.12 483.988966 
" clip-path="url(#pc6cd4a5065)" style="fill: none; stroke-dasharray: 1.85,0.8; stroke-dashoffset: 0; stroke: #b2b2b2; stroke-width: 0.5"/>
     </g>
     <g id="line2d_74">
      <g>
       <use xlink:href="#m3a3e84f105" x="141.12" y="576.72" style="stroke: #000000; stroke-width: 0.8"/>
      </g>
     </g>
     <g id="text_15">
      <!-- 0 s -->
      <g transform="translate(130.795 590.857813) scale(0.14 -0.14)">
       <defs>
        <path id="DejaVuSans-73" d="M 2834 3397 
L 2834 2853 
Q 2591 2978 2328 3040 
Q 2066 3103 1784 3103 
Q 1356 3103 1142 2972 
Q 928 2841 928 2578 
Q 928 2378 1081 2264 
Q 1234 2150 1697 2047 
L 1894 2003 
Q 2506 1872 2764 1633 
Q 3022 1394 3022 966 
Q 3022 478 2636 193 
Q 2250 -91 1575 -91 
Q 1294 -91 989 -36 
Q 684 19 347 128 
L 347 722 
Q 666 556 975 473 
Q 1284 391 1588 391 
Q 1994 391 2212 530 
Q 2431 669 2431 922 
Q 2431 1156 2273 1281 
Q 2116 1406 1581 1522 
L 1381 1569 
Q 847 1681 609 1914 
Q 372 2147 372 2553 
Q 372 3047 722 3315 
Q 1072 3584 1716 3584 
Q 2034 3584 2315 3537 
Q 2597 3491 2834 3397 
z
" transform="scale(0.015625)"/>
       </defs>
       <use xlink:href="#DejaVuSans-30"/>
       <use xlink:href="#DejaVuSans-20" x="63.623047"/>
       <use xlink:href="#DejaVuSans-73" x="95.410156"/>
      </g>
     </g>
    </g>
    <g id="xtick_26">
     <g id="line2d_75">
      <path d="M 302.4 576.72 
L 302.4 483.988966 
" clip-path="url(#pc6cd4a5065)" style="fill: none; stroke-dasharray: 1.85,0.8; stroke-dashoffset: 0; stroke: #b2b2b2; stroke-width: 0.5"/>
     </g>
     <g id="line2d_76">
      <g>
       <use xlink:href="#m3a3e84f105" x="302.4" y="576.72" style="stroke: #000000; stroke-width: 0.8"/>
      </g>
     </g>
     <g id="text_16">
      <!-- 50 ns -->
      <g transform="translate(283.185 590.857813) scale(0.14 -0.14)">
       <defs>
        <path id="DejaVuSans-35" d="M 691 4666 
L 3169 4666 
L 3169 4134 
L 1269 4134 
L 1269 2991 
Q 1406 3038 1543 3061 
Q 1681 3084 1819 3084 
Q 2600 3084 3056 2656 
Q 3513 2228 3513 1497 
Q 3513 744 3044 326 
Q 2575 -91 1722 -91 
Q 1428 -91 1123 -41 
Q 819 9 494 109 
L 494 744 
Q 775 591 1075 516 
Q 1375 441 1709 441 
Q 2250 441 2565 725 
Q 2881 1009 2881 1497 
Q 2881 1984 2565 2268 
Q 2250 2553 1709 2553 
Q 1456 2553 1204 2497 
Q 953 2441 691 2322 
L 691 4666 
z
" transform="scale(0.015625)"/>
        <path id="DejaVuSans-6e" d="M 3513 2113 
L 3513 0 
L 2938 0 
L 2938 2094 
Q 2938 2591 2744 2837 
Q 2550 3084 2163 3084 
Q 1697 3084 1428 2787 
Q 1159 2491 1159 1978 
L 1159 0 
L 581 0 
L 581 3500 
L 1159 3500 
L 1159 2956 
Q 1366 3272 1645 3428 
Q 1925 3584 2291 3584 
Q 2894 3584 3203 3211 
Q 3513 2838 3513 2113 
z
" transform="scale(0.015625)"/>
       </defs>
       <use xlink:href="#DejaVuSans-35"/>
       <use xlink:href="#DejaVuSans-30" x="63.623047"/>
       <use xlink:href="#DejaVuSans-20" x="127.246094"/>
       <use xlink:href="#DejaVuSans-6e" x="159.033203"/>
       <use xlink:href="#DejaVuSans-73" x="222.412109"/>
      </g>
     </g>
    </g>
    <g id="xtick_27">
     <g id="line2d_77">
      <path d="M 463.68 576.72 
L 463.68 483.988966 
" clip-path="url(#pc6cd4a5065)" style="fill: none; stroke-dasharray: 1.85,0.8; stroke-dashoffset: 0; stroke: #b2b2b2; stroke-width: 0.5"/>
     </g>
     <g id="line2d_78">
      <g>
       <use xlink:href="#m3a3e84f105" x="463.68" y="576.72" style="stroke: #000000; stroke-width: 0.8"/>
      </g>
     </g>
     <g id="text_17">
      <!-- 100 ns -->
      <g transform="translate(440.01125 590.857813) scale(0.14 -0.14)">
       <use xlink:href="#DejaVuSans-31"/>
       <use xlink:href="#DejaVuSans-30" x="63.623047"/>
       <use xlink:href="#DejaVuSans-30" x="127.246094"/>
       <use xlink:href="#DejaVuSans-20" x="190.869141"/>
       <use xlink:href="#DejaVuSans-6e" x="222.65625"/>
       <use xlink:href="#DejaVuSans-73" x="286.035156"/>
      </g>
     </g>
    </g>
    <g id="xtick_28">
     <g id="line2d_79">
      <path d="M 624.96 576.72 
L 624.96 483.988966 
" clip-path="url(#pc6cd4a5065)" style="fill: none; stroke-dasharray: 1.85,0.8; stroke-dashoffset: 0; stroke: #b2b2b2; stroke-width: 0.5"/>
     </g>
     <g id="line2d_80">
      <g>
       <use xlink:href="#m3a3e84f105" x="624.96" y="576.72" style="stroke: #000000; stroke-width: 0.8"/>
      </g>
     </g>
     <g id="text_18">
      <!-- 150 ns -->
      <g transform="translate(601.29125 590.857813) scale(0.14 -0.14)">
       <use xlink:href="#DejaVuSans-31"/>
       <use xlink:href="#DejaVuSans-35" x="63.623047"/>
       <use xlink:href="#DejaVuSans-30" x="127.246094"/>
       <use xlink:href="#DejaVuSans-20" x="190.869141"/>
       <use xlink:href="#DejaVuSans-6e" x="222.65625"/>
       <use xlink:href="#DejaVuSans-73" x="286.035156"/>
      </g>
     </g>
    </g>
    <g id="xtick_29">
     <g id="line2d_81">
      <path d="M 786.24 576.72 
L 786.24 483.988966 
" clip-path="url(#pc6cd4a5065)" style="fill: none; stroke-dasharray: 1.85,0.8; stroke-dashoffset: 0; stroke: #b2b2b2; stroke-width: 0.5"/>
     </g>
     <g id="line2d_82">
      <g>
       <use xlink:href="#m3a3e84f105" x="786.24" y="576.72" style="stroke: #000000; stroke-width: 0.8"/>
      </g>
     </g>
     <g id="text_19">
      <!-- 200 ns -->
      <g transform="translate(762.57125 590.857813) scale(0.14 -0.14)">
       <use xlink:href="#DejaVuSans-32"/>
       <use xlink:href="#DejaVuSans-30" x="63.623047"/>
       <use xlink:href="#DejaVuSans-30" x="127.246094"/>
       <use xlink:href="#DejaVuSans-20" x="190.869141"/>
       <use xlink:href="#DejaVuSans-6e" x="222.65625"/>
       <use xlink:href="#DejaVuSans-73" x="286.035156"/>
      </g>
     </g>
    </g>
    <g id="xtick_30">
     <g id="line2d_83">
      <path d="M 947.52 576.72 
L 947.52 483.988966 
" clip-path="url(#pc6cd4a5065)" style="fill: none; stroke-dasharray: 1.85,0.8; stroke-dashoffset: 0; stroke: #b2b2b2; stroke-width: 0.5"/>
     </g>
     <g id="line2d_84">
      <g>
       <use xlink:href="#m3a3e84f105" x="947.52" y="576.72" style="stroke: #000000; stroke-width: 0.8"/>
      </g>
     </g>
     <g id="text_20">
      <!-- 250 ns -->
      <g transform="translate(923.85125 590.857813) scale(0.14 -0.14)">
       <use xlink:href="#DejaVuSans-32"/>
       <use xlink:href="#DejaVuSans-35" x="63.623047"/>
       <use xlink:href="#DejaVuSans-30" x="127.246094"/>
       <use xlink:href="#DejaVuSans-20" x="190.869141"/>
       <use xlink:href="#DejaVuSans-6e" x="222.65625"/>
       <use xlink:href="#DejaVuSans-73" x="286.035156"/>
      </g>
     </g>
    </g>
    <g id="text_21">
     <!-- Time -->
     <g transform="translate(527.192969 608.407187) scale(0.14 -0.14)">
      <defs>
       <path id="DejaVuSans-69" d="M 603 3500 
L 1178 3500 
L 1178 0 
L 603 0 
L 603 3500 
z
M 603 4863 
L 1178 4863 
L 1178 4134 
L 603 4134 
L 603 4863 
z
" transform="scale(0.015625)"/>
       <path id="DejaVuSans-6d" d="M 3328 2828 
Q 3544 3216 3844 3400 
Q 4144 3584 4550 3584 
Q 5097 3584 5394 3201 
Q 5691 2819 5691 2113 
L 5691 0 
L 5113 0 
L 5113 2094 
Q 5113 2597 4934 2840 
Q 4756 3084 4391 3084 
Q 3944 3084 3684 2787 
Q 3425 2491 3425 1978 
L 3425 0 
L 2847 0 
L 2847 2094 
Q 2847 2600 2669 2842 
Q 2491 3084 2119 3084 
Q 1678 3084 1418 2786 
Q 1159 2488 1159 1978 
L 1159 0 
L 581 0 
L 581 3500 
L 1159 3500 
L 1159 2956 
Q 1356 3278 1631 3431 
Q 1906 3584 2284 3584 
Q 2666 3584 2933 3390 
Q 3200 3197 3328 2828 
z
" transform="scale(0.015625)"/>
       <path id="DejaVuSans-65" d="M 3597 1894 
L 3597 1613 
L 953 1613 
Q 991 1019 1311 708 
Q 1631 397 2203 397 
Q 2534 397 2845 478 
Q 3156 559 3463 722 
L 3463 178 
Q 3153 47 2828 -22 
Q 2503 -91 2169 -91 
Q 1331 -91 842 396 
Q 353 884 353 1716 
Q 353 2575 817 3079 
Q 1281 3584 2069 3584 
Q 2775 3584 3186 3129 
Q 3597 2675 3597 1894 
z
M 3022 2063 
Q 3016 2534 2758 2815 
Q 2500 3097 2075 3097 
Q 1594 3097 1305 2825 
Q 1016 2553 972 2059 
L 3022 2063 
z
" transform="scale(0.015625)"/>
      </defs>
      <use xlink:href="#DejaVuSans-54"/>
      <use xlink:href="#DejaVuSans-69" x="57.958984"/>
      <use xlink:href="#DejaVuSans-6d" x="85.742188"/>
      <use xlink:href="#DejaVuSans-65" x="183.154297"/>
     </g>
    </g>
   </g>
   <g id="matplotlib.axis_10">
    <g id="ytick_11">
     <g id="line2d_85">
      <path d="M 100.8 569.761503 
L 987.84 569.761503 
" clip-path="url(#pc6cd4a5065)" style="fill: none; stroke-dasharray: 1.85,0.8; stroke-dashoffset: 0; stroke: #b2b2b2; stroke-width: 0.5"/>
     </g>
     <g id="line2d_86">
      <g>
       <use xlink:href="#m3affe72744" x="100.8" y="569.761503" style="stroke: #000000; stroke-width: 0.8"/>
      </g>
     </g>
     <g id="text_22">
      <!-- 0 V -->
      <g transform="translate(74.36625 575.080409) scale(0.14 -0.14)">
       <use xlink:href="#DejaVuSans-30"/>
       <use xlink:href="#DejaVuSans-20" x="63.623047"/>
       <use xlink:href="#DejaVuSans-56" x="95.410156"/>
      </g>
     </g>
    </g>
    <g id="ytick_12">
     <g id="line2d_87">
      <path d="M 100.8 536.157263 
L 987.84 536.157263 
" clip-path="url(#pc6cd4a5065)" style="fill: none; stroke-dasharray: 1.85,0.8; stroke-dashoffset: 0; stroke: #b2b2b2; stroke-width: 0.5"/>
     </g>
     <g id="line2d_88">
      <g>
       <use xlink:href="#m3affe72744" x="100.8" y="536.157263" style="stroke: #000000; stroke-width: 0.8"/>
      </g>
     </g>
     <g id="text_23">
      <!-- 500 mV -->
      <g transform="translate(42.914375 541.476169) scale(0.14 -0.14)">
       <use xlink:href="#DejaVuSans-35"/>
       <use xlink:href="#DejaVuSans-30" x="63.623047"/>
       <use xlink:href="#DejaVuSans-30" x="127.246094"/>
       <use xlink:href="#DejaVuSans-20" x="190.869141"/>
       <use xlink:href="#DejaVuSans-6d" x="222.65625"/>
       <use xlink:href="#DejaVuSans-56" x="320.068359"/>
      </g>
     </g>
    </g>
    <g id="ytick_13">
     <g id="line2d_89">
      <path d="M 100.8 502.553023 
L 987.84 502.553023 
" clip-path="url(#pc6cd4a5065)" style="fill: none; stroke-dasharray: 1.85,0.8; stroke-dashoffset: 0; stroke: #b2b2b2; stroke-width: 0.5"/>
     </g>
     <g id="line2d_90">
      <g>
       <use xlink:href="#m3affe72744" x="100.8" y="502.553023" style="stroke: #000000; stroke-width: 0.8"/>
      </g>
     </g>
     <g id="text_24">
      <!-- 1 V -->
      <g transform="translate(74.36625 507.871929) scale(0.14 -0.14)">
       <use xlink:href="#DejaVuSans-31"/>
       <use xlink:href="#DejaVuSans-20" x="63.623047"/>
       <use xlink:href="#DejaVuSans-56" x="95.410156"/>
      </g>
     </g>
    </g>
    <g id="text_25">
     <g id="patch_27">
      <path d="M 34.8768 554.329483 
L 34.8768 506.379483 
L 11.247425 506.379483 
L 11.247425 554.329483 
z
" style="fill: #ffff00; opacity: 0.2; stroke: #eeeeee; stroke-width: 0.5; stroke-linejoin: miter"/>
     </g>
     <!-- FOUT -->
     <g transform="translate(26.925238 549.289483) rotate(-90) scale(0.14 -0.14)">
      <use xlink:href="#DejaVuSans-46"/>
      <use xlink:href="#DejaVuSans-4f" x="57.519531"/>
      <use xlink:href="#DejaVuSans-55" x="136.230469"/>
      <use xlink:href="#DejaVuSans-54" x="209.423828"/>
     </g>
    </g>
   </g>
   <g id="line2d_91">
    <path d="M 141.12 489.111327 
L 173.472768 489.118048 
L 173.505024 488.923143 
L 173.569536 527.048498 
L 173.69856 572.504953 
L 173.730816 572.370267 
L 173.827584 567.868509 
L 173.892096 569.378697 
L 174.053376 570.078008 
L 174.117888 569.961146 
L 174.408192 569.509108 
L 174.440448 569.558285 
L 174.66624 569.745662 
L 176.182272 569.755801 
L 180.14976 569.776692 
L 193.794048 569.766361 
L 213.05088 569.759634 
L 255.30624 569.759334 
L 255.6288 489.003793 
L 255.854592 489.144931 
L 256.209408 489.104606 
L 334.849536 489.124769 
L 334.881792 493.305136 
L 335.043072 572.185578 
L 335.107584 570.273907 
L 335.172096 568.362222 
L 335.236608 568.890683 
L 335.365632 570.79275 
L 335.430144 570.42194 
L 335.591424 569.81254 
L 335.881728 569.664608 
L 336.559104 569.833134 
L 337.107456 569.761759 
L 350.074368 569.759833 
L 416.489472 569.758962 
L 416.553984 567.509279 
L 416.812032 488.681193 
L 416.844288 488.81561 
L 416.973312 489.326394 
L 417.037824 489.252465 
L 417.39264 489.023956 
L 417.844224 489.191977 
L 418.457088 489.037398 
L 419.328 489.111327 
L 610.541568 489.071002 
L 610.60608 488.81561 
L 610.638336 489.709482 
L 610.702848 522.901062 
L 610.831872 569.976227 
L 610.864128 569.781266 
L 611.08992 569.761084 
L 613.089792 569.759791 
L 657.086976 569.881772 
L 657.119232 569.701877 
L 657.183744 555.659148 
L 657.409536 489.239023 
L 657.570816 489.118048 
L 658.119168 489.111327 
L 658.248192 489.091164 
L 658.280448 488.204013 
L 658.441728 569.796838 
L 658.570752 569.77118 
L 658.957824 569.759832 
L 738.855936 569.741369 
L 738.888192 569.04506 
L 739.178496 489.13821 
L 739.501056 489.111327 
L 947.52 489.111327 
L 947.52 489.111327 
" clip-path="url(#pc6cd4a5065)" style="fill: none; stroke: #ff00ff; stroke-width: 2; stroke-linecap: square"/>
   </g>
   <g id="patch_28">
    <path d="M 100.8 576.72 
L 100.8 483.988966 
" style="fill: none; stroke: #bcbcbc; stroke-width: 0.8; stroke-linejoin: miter; stroke-linecap: square"/>
   </g>
   <g id="patch_29">
    <path d="M 987.84 576.72 
L 987.84 483.988966 
" style="fill: none; stroke: #bcbcbc; stroke-width: 0.8; stroke-linejoin: miter; stroke-linecap: square"/>
   </g>
   <g id="patch_30">
    <path d="M 100.8 576.72 
L 987.84 576.72 
" style="fill: none; stroke: #bcbcbc; stroke-width: 0.8; stroke-linejoin: miter; stroke-linecap: square"/>
   </g>
   <g id="patch_31">
    <path d="M 100.8 483.988966 
L 987.84 483.988966 
" style="fill: none; stroke: #bcbcbc; stroke-width: 0.8; stroke-linejoin: miter; stroke-linecap: square"/>
   </g>
  </g>
  <g id="axes_6">
   <g id="patch_32">
    <path d="M 201.6 628.56 
L 856.8 628.56 
L 856.8 615.6 
L 201.6 615.6 
z
" clip-path="url(#p5f229c65f4)" style="fill: #d3d3d3"/>
   </g>
   <g id="patch_33">
    <path d="M 201.6 628.56 
L 791.28 628.56 
L 791.28 615.6 
L 201.6 615.6 
z
" clip-path="url(#p5f229c65f4)" style="fill: #0000ff"/>
   </g>
   <g id="line2d_92">
    <path d="M 201.6 635.04 
L 201.6 609.12 
" clip-path="url(#p0cb7e4ec81)" style="fill: none; stroke: #ff0000; stroke-linecap: square"/>
   </g>
   <g id="line2d_93">
    <defs>
     <path id="m9832121218" d="M 0 5 
C 1.326016 5 2.597899 4.473168 3.535534 3.535534 
C 4.473168 2.597899 5 1.326016 5 0 
C 5 -1.326016 4.473168 -2.597899 3.535534 -3.535534 
C 2.597899 -4.473168 1.326016 -5 0 -5 
C -1.326016 -5 -2.597899 -4.473168 -3.535534 -3.535534 
C -4.473168 -2.597899 -5 -1.326016 -5 0 
C -5 1.326016 -4.473168 2.597899 -3.535534 3.535534 
C -2.597899 4.473168 -1.326016 5 0 5 
z
" style="stroke: #bfbfbf"/>
    </defs>
    <g>
     <use xlink:href="#m9832121218" x="791.28" y="622.08" style="fill: #ffffff; stroke: #bfbfbf"/>
    </g>
   </g>
   <g id="text_26">
    <!-- #Sweep -->
    <g transform="translate(138.622875 625.39125) scale(0.12 -0.12)">
     <defs>
      <path id="DejaVuSans-23" d="M 3272 2816 
L 2363 2816 
L 2100 1772 
L 3016 1772 
L 3272 2816 
z
M 2803 4594 
L 2478 3297 
L 3391 3297 
L 3719 4594 
L 4219 4594 
L 3897 3297 
L 4872 3297 
L 4872 2816 
L 3775 2816 
L 3519 1772 
L 4513 1772 
L 4513 1294 
L 3397 1294 
L 3072 0 
L 2572 0 
L 2894 1294 
L 1978 1294 
L 1656 0 
L 1153 0 
L 1478 1294 
L 494 1294 
L 494 1772 
L 1594 1772 
L 1856 2816 
L 850 2816 
L 850 3297 
L 1978 3297 
L 2297 4594 
L 2803 4594 
z
" transform="scale(0.015625)"/>
      <path id="DejaVuSans-77" d="M 269 3500 
L 844 3500 
L 1563 769 
L 2278 3500 
L 2956 3500 
L 3675 769 
L 4391 3500 
L 4966 3500 
L 4050 0 
L 3372 0 
L 2619 2869 
L 1863 0 
L 1184 0 
L 269 3500 
z
" transform="scale(0.015625)"/>
      <path id="DejaVuSans-70" d="M 1159 525 
L 1159 -1331 
L 581 -1331 
L 581 3500 
L 1159 3500 
L 1159 2969 
Q 1341 3281 1617 3432 
Q 1894 3584 2278 3584 
Q 2916 3584 3314 3078 
Q 3713 2572 3713 1747 
Q 3713 922 3314 415 
Q 2916 -91 2278 -91 
Q 1894 -91 1617 61 
Q 1341 213 1159 525 
z
M 3116 1747 
Q 3116 2381 2855 2742 
Q 2594 3103 2138 3103 
Q 1681 3103 1420 2742 
Q 1159 2381 1159 1747 
Q 1159 1113 1420 752 
Q 1681 391 2138 391 
Q 2594 391 2855 752 
Q 3116 1113 3116 1747 
z
" transform="scale(0.015625)"/>
     </defs>
     <use xlink:href="#DejaVuSans-23"/>
     <use xlink:href="#DejaVuSans-53" x="83.789062"/>
     <use xlink:href="#DejaVuSans-77" x="147.265625"/>
     <use xlink:href="#DejaVuSans-65" x="229.052734"/>
     <use xlink:href="#DejaVuSans-65" x="290.576172"/>
     <use xlink:href="#DejaVuSans-70" x="352.099609"/>
    </g>
   </g>
   <g id="text_27">
    <!-- $\mathdefault{126}$ -->
    <g transform="translate(869.904 625.39125) scale(0.12 -0.12)">
     <defs>
      <path id="DejaVuSans-36" d="M 2113 2584 
Q 1688 2584 1439 2293 
Q 1191 2003 1191 1497 
Q 1191 994 1439 701 
Q 1688 409 2113 409 
Q 2538 409 2786 701 
Q 3034 994 3034 1497 
Q 3034 2003 2786 2293 
Q 2538 2584 2113 2584 
z
M 3366 4563 
L 3366 3988 
Q 3128 4100 2886 4159 
Q 2644 4219 2406 4219 
Q 1781 4219 1451 3797 
Q 1122 3375 1075 2522 
Q 1259 2794 1537 2939 
Q 1816 3084 2150 3084 
Q 2853 3084 3261 2657 
Q 3669 2231 3669 1497 
Q 3669 778 3244 343 
Q 2819 -91 2113 -91 
Q 1303 -91 875 529 
Q 447 1150 447 2328 
Q 447 3434 972 4092 
Q 1497 4750 2381 4750 
Q 2619 4750 2861 4703 
Q 3103 4656 3366 4563 
z
" transform="scale(0.015625)"/>
     </defs>
     <use xlink:href="#DejaVuSans-31" transform="translate(0 0.78125)"/>
     <use xlink:href="#DejaVuSans-32" transform="translate(63.623047 0.78125)"/>
     <use xlink:href="#DejaVuSans-36" transform="translate(127.246094 0.78125)"/>
    </g>
   </g>
  </g>
  <g id="text_28">
   <!-- DFF under BBI sweep analysis (Sweep = 136E-9) -->
   <g transform="translate(308.25625 25.1175) scale(0.16 -0.16)">
    <defs>
     <path id="DejaVuSans-75" d="M 544 1381 
L 544 3500 
L 1119 3500 
L 1119 1403 
Q 1119 906 1312 657 
Q 1506 409 1894 409 
Q 2359 409 2629 706 
Q 2900 1003 2900 1516 
L 2900 3500 
L 3475 3500 
L 3475 0 
L 2900 0 
L 2900 538 
Q 2691 219 2414 64 
Q 2138 -91 1772 -91 
Q 1169 -91 856 284 
Q 544 659 544 1381 
z
M 1991 3584 
L 1991 3584 
z
" transform="scale(0.015625)"/>
     <path id="DejaVuSans-64" d="M 2906 2969 
L 2906 4863 
L 3481 4863 
L 3481 0 
L 2906 0 
L 2906 525 
Q 2725 213 2448 61 
Q 2172 -91 1784 -91 
Q 1150 -91 751 415 
Q 353 922 353 1747 
Q 353 2572 751 3078 
Q 1150 3584 1784 3584 
Q 2172 3584 2448 3432 
Q 2725 3281 2906 2969 
z
M 947 1747 
Q 947 1113 1208 752 
Q 1469 391 1925 391 
Q 2381 391 2643 752 
Q 2906 1113 2906 1747 
Q 2906 2381 2643 2742 
Q 2381 3103 1925 3103 
Q 1469 3103 1208 2742 
Q 947 2381 947 1747 
z
" transform="scale(0.015625)"/>
     <path id="DejaVuSans-72" d="M 2631 2963 
Q 2534 3019 2420 3045 
Q 2306 3072 2169 3072 
Q 1681 3072 1420 2755 
Q 1159 2438 1159 1844 
L 1159 0 
L 581 0 
L 581 3500 
L 1159 3500 
L 1159 2956 
Q 1341 3275 1631 3429 
Q 1922 3584 2338 3584 
Q 2397 3584 2469 3576 
Q 2541 3569 2628 3553 
L 2631 2963 
z
" transform="scale(0.015625)"/>
     <path id="DejaVuSans-61" d="M 2194 1759 
Q 1497 1759 1228 1600 
Q 959 1441 959 1056 
Q 959 750 1161 570 
Q 1363 391 1709 391 
Q 2188 391 2477 730 
Q 2766 1069 2766 1631 
L 2766 1759 
L 2194 1759 
z
M 3341 1997 
L 3341 0 
L 2766 0 
L 2766 531 
Q 2569 213 2275 61 
Q 1981 -91 1556 -91 
Q 1019 -91 701 211 
Q 384 513 384 1019 
Q 384 1609 779 1909 
Q 1175 2209 1959 2209 
L 2766 2209 
L 2766 2266 
Q 2766 2663 2505 2880 
Q 2244 3097 1772 3097 
Q 1472 3097 1187 3025 
Q 903 2953 641 2809 
L 641 3341 
Q 956 3463 1253 3523 
Q 1550 3584 1831 3584 
Q 2591 3584 2966 3190 
Q 3341 2797 3341 1997 
z
" transform="scale(0.015625)"/>
     <path id="DejaVuSans-6c" d="M 603 4863 
L 1178 4863 
L 1178 0 
L 603 0 
L 603 4863 
z
" transform="scale(0.015625)"/>
     <path id="DejaVuSans-79" d="M 2059 -325 
Q 1816 -950 1584 -1140 
Q 1353 -1331 966 -1331 
L 506 -1331 
L 506 -850 
L 844 -850 
Q 1081 -850 1212 -737 
Q 1344 -625 1503 -206 
L 1606 56 
L 191 3500 
L 800 3500 
L 1894 763 
L 2988 3500 
L 3597 3500 
L 2059 -325 
z
" transform="scale(0.015625)"/>
     <path id="DejaVuSans-28" d="M 1984 4856 
Q 1566 4138 1362 3434 
Q 1159 2731 1159 2009 
Q 1159 1288 1364 580 
Q 1569 -128 1984 -844 
L 1484 -844 
Q 1016 -109 783 600 
Q 550 1309 550 2009 
Q 550 2706 781 3412 
Q 1013 4119 1484 4856 
L 1984 4856 
z
" transform="scale(0.015625)"/>
     <path id="DejaVuSans-3d" d="M 678 2906 
L 4684 2906 
L 4684 2381 
L 678 2381 
L 678 2906 
z
M 678 1631 
L 4684 1631 
L 4684 1100 
L 678 1100 
L 678 1631 
z
" transform="scale(0.015625)"/>
     <path id="DejaVuSans-33" d="M 2597 2516 
Q 3050 2419 3304 2112 
Q 3559 1806 3559 1356 
Q 3559 666 3084 287 
Q 2609 -91 1734 -91 
Q 1441 -91 1130 -33 
Q 819 25 488 141 
L 488 750 
Q 750 597 1062 519 
Q 1375 441 1716 441 
Q 2309 441 2620 675 
Q 2931 909 2931 1356 
Q 2931 1769 2642 2001 
Q 2353 2234 1838 2234 
L 1294 2234 
L 1294 2753 
L 1863 2753 
Q 2328 2753 2575 2939 
Q 2822 3125 2822 3475 
Q 2822 3834 2567 4026 
Q 2313 4219 1838 4219 
Q 1578 4219 1281 4162 
Q 984 4106 628 3988 
L 628 4550 
Q 988 4650 1302 4700 
Q 1616 4750 1894 4750 
Q 2613 4750 3031 4423 
Q 3450 4097 3450 3541 
Q 3450 3153 3228 2886 
Q 3006 2619 2597 2516 
z
" transform="scale(0.015625)"/>
     <path id="DejaVuSans-2d" d="M 313 2009 
L 1997 2009 
L 1997 1497 
L 313 1497 
L 313 2009 
z
" transform="scale(0.015625)"/>
     <path id="DejaVuSans-39" d="M 703 97 
L 703 672 
Q 941 559 1184 500 
Q 1428 441 1663 441 
Q 2288 441 2617 861 
Q 2947 1281 2994 2138 
Q 2813 1869 2534 1725 
Q 2256 1581 1919 1581 
Q 1219 1581 811 2004 
Q 403 2428 403 3163 
Q 403 3881 828 4315 
Q 1253 4750 1959 4750 
Q 2769 4750 3195 4129 
Q 3622 3509 3622 2328 
Q 3622 1225 3098 567 
Q 2575 -91 1691 -91 
Q 1453 -91 1209 -44 
Q 966 3 703 97 
z
M 1959 2075 
Q 2384 2075 2632 2365 
Q 2881 2656 2881 3163 
Q 2881 3666 2632 3958 
Q 2384 4250 1959 4250 
Q 1534 4250 1286 3958 
Q 1038 3666 1038 3163 
Q 1038 2656 1286 2365 
Q 1534 2075 1959 2075 
z
" transform="scale(0.015625)"/>
     <path id="DejaVuSans-29" d="M 513 4856 
L 1013 4856 
Q 1481 4119 1714 3412 
Q 1947 2706 1947 2009 
Q 1947 1309 1714 600 
Q 1481 -109 1013 -844 
L 513 -844 
Q 928 -128 1133 580 
Q 1338 1288 1338 2009 
Q 1338 2731 1133 3434 
Q 928 4138 513 4856 
z
" transform="scale(0.015625)"/>
    </defs>
    <use xlink:href="#DejaVuSans-44"/>
    <use xlink:href="#DejaVuSans-46" x="77.001953"/>
    <use xlink:href="#DejaVuSans-46" x="134.521484"/>
    <use xlink:href="#DejaVuSans-20" x="192.041016"/>
    <use xlink:href="#DejaVuSans-75" x="223.828125"/>
    <use xlink:href="#DejaVuSans-6e" x="287.207031"/>
    <use xlink:href="#DejaVuSans-64" x="350.585938"/>
    <use xlink:href="#DejaVuSans-65" x="414.0625"/>
    <use xlink:href="#DejaVuSans-72" x="475.585938"/>
    <use xlink:href="#DejaVuSans-20" x="516.699219"/>
    <use xlink:href="#DejaVuSans-42" x="548.486328"/>
    <use xlink:href="#DejaVuSans-42" x="617.089844"/>
    <use xlink:href="#DejaVuSans-49" x="685.693359"/>
    <use xlink:href="#DejaVuSans-20" x="715.185547"/>
    <use xlink:href="#DejaVuSans-73" x="746.972656"/>
    <use xlink:href="#DejaVuSans-77" x="799.072266"/>
    <use xlink:href="#DejaVuSans-65" x="880.859375"/>
    <use xlink:href="#DejaVuSans-65" x="942.382812"/>
    <use xlink:href="#DejaVuSans-70" x="1003.90625"/>
    <use xlink:href="#DejaVuSans-20" x="1067.382812"/>
    <use xlink:href="#DejaVuSans-61" x="1099.169922"/>
    <use xlink:href="#DejaVuSans-6e" x="1160.449219"/>
    <use xlink:href="#DejaVuSans-61" x="1223.828125"/>
    <use xlink:href="#DejaVuSans-6c" x="1285.107422"/>
    <use xlink:href="#DejaVuSans-79" x="1312.890625"/>
    <use xlink:href="#DejaVuSans-73" x="1372.070312"/>
    <use xlink:href="#DejaVuSans-69" x="1424.169922"/>
    <use xlink:href="#DejaVuSans-73" x="1451.953125"/>
    <use xlink:href="#DejaVuSans-20" x="1504.052734"/>
    <use xlink:href="#DejaVuSans-28" x="1535.839844"/>
    <use xlink:href="#DejaVuSans-53" x="1574.853516"/>
    <use xlink:href="#DejaVuSans-77" x="1638.330078"/>
    <use xlink:href="#DejaVuSans-65" x="1720.117188"/>
    <use xlink:href="#DejaVuSans-65" x="1781.640625"/>
    <use xlink:href="#DejaVuSans-70" x="1843.164062"/>
    <use xlink:href="#DejaVuSans-20" x="1906.640625"/>
    <use xlink:href="#DejaVuSans-3d" x="1938.427734"/>
    <use xlink:href="#DejaVuSans-20" x="2022.216797"/>
    <use xlink:href="#DejaVuSans-31" x="2054.003906"/>
    <use xlink:href="#DejaVuSans-33" x="2117.626953"/>
    <use xlink:href="#DejaVuSans-36" x="2181.25"/>
    <use xlink:href="#DejaVuSans-45" x="2244.873047"/>
    <use xlink:href="#DejaVuSans-2d" x="2308.056641"/>
    <use xlink:href="#DejaVuSans-39" x="2344.140625"/>
    <use xlink:href="#DejaVuSans-29" x="2407.763672"/>
   </g>
  </g>
 </g>
 <defs>
  <clipPath id="p24833a335d">
   <rect x="100.8" y="38.88" width="887.04" height="92.731034"/>
  </clipPath>
  <clipPath id="pba0061966f">
   <rect x="100.8" y="150.157241" width="887.04" height="92.731034"/>
  </clipPath>
  <clipPath id="pae7597a949">
   <rect x="100.8" y="261.434483" width="887.04" height="92.731034"/>
  </clipPath>
  <clipPath id="pb7ad273828">
   <rect x="100.8" y="372.711724" width="887.04" height="92.731034"/>
  </clipPath>
  <clipPath id="pc6cd4a5065">
   <rect x="100.8" y="483.988966" width="887.04" height="92.731034"/>
  </clipPath>
  <clipPath id="p5f229c65f4">
   <rect x="201.6" y="609.12" width="655.2" height="25.92"/>
  </clipPath>
  <clipPath id="p0cb7e4ec81">
   <path d="M 201.6 628.56 
L 856.8 628.56 
L 856.8 615.6 
L 201.6 615.6 
z
"/>
  </clipPath>
 </defs>
</svg>
