<?xml version="1.0" encoding="utf-8" standalone="no"?>
<!DOCTYPE svg PUBLIC "-//W3C//DTD SVG 1.1//EN"
  "http://www.w3.org/Graphics/SVG/1.1/DTD/svg11.dtd">
<svg xmlns:xlink="http://www.w3.org/1999/xlink" width="1008pt" height="648pt" viewBox="0 0 1008 648" xmlns="http://www.w3.org/2000/svg" version="1.1">
 <metadata>
  <rdf:RDF xmlns:dc="http://purl.org/dc/elements/1.1/" xmlns:cc="http://creativecommons.org/ns#" xmlns:rdf="http://www.w3.org/1999/02/22-rdf-syntax-ns#">
   <cc:Work>
    <dc:type rdf:resource="http://purl.org/dc/dcmitype/StillImage"/>
    <dc:date>2024-06-03T10:45:39.521400</dc:date>
    <dc:format>image/svg+xml</dc:format>
    <dc:creator>
     <cc:Agent>
      <dc:title>Matplotlib v3.9.0, https://matplotlib.org/</dc:title>
     </cc:Agent>
    </dc:creator>
   </cc:Work>
  </rdf:RDF>
 </metadata>
 <defs>
  <style type="text/css">*{stroke-linejoin: round; stroke-linecap: butt}</style>
 </defs>
 <g id="figure_1">
  <g id="patch_1">
   <path d="M 0 648 
L 1008 648 
L 1008 0 
L 0 0 
z
" style="fill: #ffffff"/>
  </g>
  <g id="axes_1">
   <g id="patch_2">
    <path d="M 100.8 131.611034 
L 987.84 131.611034 
L 987.84 38.88 
L 100.8 38.88 
z
" style="fill: #eeeeee"/>
   </g>
   <g id="matplotlib.axis_1">
    <g id="xtick_1">
     <g id="line2d_1">
      <path d="M 141.12 131.611034 
L 141.12 38.88 
" clip-path="url(#p9a084a61a2)" style="fill: none; stroke-dasharray: 1.85,0.8; stroke-dashoffset: 0; stroke: #b2b2b2; stroke-width: 0.5"/>
     </g>
     <g id="line2d_2">
      <defs>
       <path id="m4550cd2425" d="M 0 0 
L 0 -3.5 
" style="stroke: #000000; stroke-width: 0.8"/>
      </defs>
      <g>
       <use xlink:href="#m4550cd2425" x="141.12" y="131.611034" style="stroke: #000000; stroke-width: 0.8"/>
      </g>
     </g>
    </g>
    <g id="xtick_2">
     <g id="line2d_3">
      <path d="M 302.4 131.611034 
L 302.4 38.88 
" clip-path="url(#p9a084a61a2)" style="fill: none; stroke-dasharray: 1.85,0.8; stroke-dashoffset: 0; stroke: #b2b2b2; stroke-width: 0.5"/>
     </g>
     <g id="line2d_4">
      <g>
       <use xlink:href="#m4550cd2425" x="302.4" y="131.611034" style="stroke: #000000; stroke-width: 0.8"/>
      </g>
     </g>
    </g>
    <g id="xtick_3">
     <g id="line2d_5">
      <path d="M 463.68 131.611034 
L 463.68 38.88 
" clip-path="url(#p9a084a61a2)" style="fill: none; stroke-dasharray: 1.85,0.8; stroke-dashoffset: 0; stroke: #b2b2b2; stroke-width: 0.5"/>
     </g>
     <g id="line2d_6">
      <g>
       <use xlink:href="#m4550cd2425" x="463.68" y="131.611034" style="stroke: #000000; stroke-width: 0.8"/>
      </g>
     </g>
    </g>
    <g id="xtick_4">
     <g id="line2d_7">
      <path d="M 624.96 131.611034 
L 624.96 38.88 
" clip-path="url(#p9a084a61a2)" style="fill: none; stroke-dasharray: 1.85,0.8; stroke-dashoffset: 0; stroke: #b2b2b2; stroke-width: 0.5"/>
     </g>
     <g id="line2d_8">
      <g>
       <use xlink:href="#m4550cd2425" x="624.96" y="131.611034" style="stroke: #000000; stroke-width: 0.8"/>
      </g>
     </g>
    </g>
    <g id="xtick_5">
     <g id="line2d_9">
      <path d="M 786.24 131.611034 
L 786.24 38.88 
" clip-path="url(#p9a084a61a2)" style="fill: none; stroke-dasharray: 1.85,0.8; stroke-dashoffset: 0; stroke: #b2b2b2; stroke-width: 0.5"/>
     </g>
     <g id="line2d_10">
      <g>
       <use xlink:href="#m4550cd2425" x="786.24" y="131.611034" style="stroke: #000000; stroke-width: 0.8"/>
      </g>
     </g>
    </g>
    <g id="xtick_6">
     <g id="line2d_11">
      <path d="M 947.52 131.611034 
L 947.52 38.88 
" clip-path="url(#p9a084a61a2)" style="fill: none; stroke-dasharray: 1.85,0.8; stroke-dashoffset: 0; stroke: #b2b2b2; stroke-width: 0.5"/>
     </g>
     <g id="line2d_12">
      <g>
       <use xlink:href="#m4550cd2425" x="947.52" y="131.611034" style="stroke: #000000; stroke-width: 0.8"/>
      </g>
     </g>
    </g>
   </g>
   <g id="matplotlib.axis_2">
    <g id="ytick_1">
     <g id="line2d_13">
      <path d="M 100.8 98.340394 
L 987.84 98.340394 
" clip-path="url(#p9a084a61a2)" style="fill: none; stroke-dasharray: 1.85,0.8; stroke-dashoffset: 0; stroke: #b2b2b2; stroke-width: 0.5"/>
     </g>
     <g id="line2d_14">
      <defs>
       <path id="m99d266eb9d" d="M 0 0 
L 3.5 0 
" style="stroke: #000000; stroke-width: 0.8"/>
      </defs>
      <g>
       <use xlink:href="#m99d266eb9d" x="100.8" y="98.340394" style="stroke: #000000; stroke-width: 0.8"/>
      </g>
     </g>
     <g id="text_1">
      <!-- −200 V -->
      <g transform="translate(44.819688 103.6593) scale(0.14 -0.14)">
       <defs>
        <path id="DejaVuSans-2212" d="M 678 2272 
L 4684 2272 
L 4684 1741 
L 678 1741 
L 678 2272 
z
" transform="scale(0.015625)"/>
        <path id="DejaVuSans-32" d="M 1228 531 
L 3431 531 
L 3431 0 
L 469 0 
L 469 531 
Q 828 903 1448 1529 
Q 2069 2156 2228 2338 
Q 2531 2678 2651 2914 
Q 2772 3150 2772 3378 
Q 2772 3750 2511 3984 
Q 2250 4219 1831 4219 
Q 1534 4219 1204 4116 
Q 875 4013 500 3803 
L 500 4441 
Q 881 4594 1212 4672 
Q 1544 4750 1819 4750 
Q 2544 4750 2975 4387 
Q 3406 4025 3406 3419 
Q 3406 3131 3298 2873 
Q 3191 2616 2906 2266 
Q 2828 2175 2409 1742 
Q 1991 1309 1228 531 
z
" transform="scale(0.015625)"/>
        <path id="DejaVuSans-30" d="M 2034 4250 
Q 1547 4250 1301 3770 
Q 1056 3291 1056 2328 
Q 1056 1369 1301 889 
Q 1547 409 2034 409 
Q 2525 409 2770 889 
Q 3016 1369 3016 2328 
Q 3016 3291 2770 3770 
Q 2525 4250 2034 4250 
z
M 2034 4750 
Q 2819 4750 3233 4129 
Q 3647 3509 3647 2328 
Q 3647 1150 3233 529 
Q 2819 -91 2034 -91 
Q 1250 -91 836 529 
Q 422 1150 422 2328 
Q 422 3509 836 4129 
Q 1250 4750 2034 4750 
z
" transform="scale(0.015625)"/>
        <path id="DejaVuSans-20" transform="scale(0.015625)"/>
        <path id="DejaVuSans-56" d="M 1831 0 
L 50 4666 
L 709 4666 
L 2188 738 
L 3669 4666 
L 4325 4666 
L 2547 0 
L 1831 0 
z
" transform="scale(0.015625)"/>
       </defs>
       <use xlink:href="#DejaVuSans-2212"/>
       <use xlink:href="#DejaVuSans-32" x="83.789062"/>
       <use xlink:href="#DejaVuSans-30" x="147.412109"/>
       <use xlink:href="#DejaVuSans-30" x="211.035156"/>
       <use xlink:href="#DejaVuSans-20" x="274.658203"/>
       <use xlink:href="#DejaVuSans-56" x="306.445312"/>
      </g>
     </g>
    </g>
    <g id="ytick_2">
     <g id="line2d_15">
      <path d="M 100.8 45.027377 
L 987.84 45.027377 
" clip-path="url(#p9a084a61a2)" style="fill: none; stroke-dasharray: 1.85,0.8; stroke-dashoffset: 0; stroke: #b2b2b2; stroke-width: 0.5"/>
     </g>
     <g id="line2d_16">
      <g>
       <use xlink:href="#m99d266eb9d" x="100.8" y="45.027377" style="stroke: #000000; stroke-width: 0.8"/>
      </g>
     </g>
     <g id="text_2">
      <!-- 0 V -->
      <g transform="translate(74.36625 50.346284) scale(0.14 -0.14)">
       <use xlink:href="#DejaVuSans-30"/>
       <use xlink:href="#DejaVuSans-20" x="63.623047"/>
       <use xlink:href="#DejaVuSans-56" x="95.410156"/>
      </g>
     </g>
    </g>
    <g id="text_3">
     <g id="patch_3">
      <path d="M 34.8768 131.080205 
L 34.8768 39.41083 
L 11.247425 39.41083 
L 11.247425 131.080205 
z
" style="fill: #ffff00; opacity: 0.2; stroke: #eeeeee; stroke-width: 0.5; stroke-linejoin: miter"/>
     </g>
     <!-- VPULSE BBI -->
     <g transform="translate(26.925238 126.040205) rotate(-90) scale(0.14 -0.14)">
      <defs>
       <path id="DejaVuSans-50" d="M 1259 4147 
L 1259 2394 
L 2053 2394 
Q 2494 2394 2734 2622 
Q 2975 2850 2975 3272 
Q 2975 3691 2734 3919 
Q 2494 4147 2053 4147 
L 1259 4147 
z
M 628 4666 
L 2053 4666 
Q 2838 4666 3239 4311 
Q 3641 3956 3641 3272 
Q 3641 2581 3239 2228 
Q 2838 1875 2053 1875 
L 1259 1875 
L 1259 0 
L 628 0 
L 628 4666 
z
" transform="scale(0.015625)"/>
       <path id="DejaVuSans-55" d="M 556 4666 
L 1191 4666 
L 1191 1831 
Q 1191 1081 1462 751 
Q 1734 422 2344 422 
Q 2950 422 3222 751 
Q 3494 1081 3494 1831 
L 3494 4666 
L 4128 4666 
L 4128 1753 
Q 4128 841 3676 375 
Q 3225 -91 2344 -91 
Q 1459 -91 1007 375 
Q 556 841 556 1753 
L 556 4666 
z
" transform="scale(0.015625)"/>
       <path id="DejaVuSans-4c" d="M 628 4666 
L 1259 4666 
L 1259 531 
L 3531 531 
L 3531 0 
L 628 0 
L 628 4666 
z
" transform="scale(0.015625)"/>
       <path id="DejaVuSans-53" d="M 3425 4513 
L 3425 3897 
Q 3066 4069 2747 4153 
Q 2428 4238 2131 4238 
Q 1616 4238 1336 4038 
Q 1056 3838 1056 3469 
Q 1056 3159 1242 3001 
Q 1428 2844 1947 2747 
L 2328 2669 
Q 3034 2534 3370 2195 
Q 3706 1856 3706 1288 
Q 3706 609 3251 259 
Q 2797 -91 1919 -91 
Q 1588 -91 1214 -16 
Q 841 59 441 206 
L 441 856 
Q 825 641 1194 531 
Q 1563 422 1919 422 
Q 2459 422 2753 634 
Q 3047 847 3047 1241 
Q 3047 1584 2836 1778 
Q 2625 1972 2144 2069 
L 1759 2144 
Q 1053 2284 737 2584 
Q 422 2884 422 3419 
Q 422 4038 858 4394 
Q 1294 4750 2059 4750 
Q 2388 4750 2728 4690 
Q 3069 4631 3425 4513 
z
" transform="scale(0.015625)"/>
       <path id="DejaVuSans-45" d="M 628 4666 
L 3578 4666 
L 3578 4134 
L 1259 4134 
L 1259 2753 
L 3481 2753 
L 3481 2222 
L 1259 2222 
L 1259 531 
L 3634 531 
L 3634 0 
L 628 0 
L 628 4666 
z
" transform="scale(0.015625)"/>
       <path id="DejaVuSans-42" d="M 1259 2228 
L 1259 519 
L 2272 519 
Q 2781 519 3026 730 
Q 3272 941 3272 1375 
Q 3272 1813 3026 2020 
Q 2781 2228 2272 2228 
L 1259 2228 
z
M 1259 4147 
L 1259 2741 
L 2194 2741 
Q 2656 2741 2882 2914 
Q 3109 3088 3109 3444 
Q 3109 3797 2882 3972 
Q 2656 4147 2194 4147 
L 1259 4147 
z
M 628 4666 
L 2241 4666 
Q 2963 4666 3353 4366 
Q 3744 4066 3744 3513 
Q 3744 3084 3544 2831 
Q 3344 2578 2956 2516 
Q 3422 2416 3680 2098 
Q 3938 1781 3938 1306 
Q 3938 681 3513 340 
Q 3088 0 2303 0 
L 628 0 
L 628 4666 
z
" transform="scale(0.015625)"/>
       <path id="DejaVuSans-49" d="M 628 4666 
L 1259 4666 
L 1259 0 
L 628 0 
L 628 4666 
z
" transform="scale(0.015625)"/>
      </defs>
      <use xlink:href="#DejaVuSans-56"/>
      <use xlink:href="#DejaVuSans-50" x="68.408203"/>
      <use xlink:href="#DejaVuSans-55" x="128.710938"/>
      <use xlink:href="#DejaVuSans-4c" x="201.904297"/>
      <use xlink:href="#DejaVuSans-53" x="257.617188"/>
      <use xlink:href="#DejaVuSans-45" x="321.09375"/>
      <use xlink:href="#DejaVuSans-20" x="384.277344"/>
      <use xlink:href="#DejaVuSans-42" x="416.064453"/>
      <use xlink:href="#DejaVuSans-42" x="484.667969"/>
      <use xlink:href="#DejaVuSans-49" x="553.271484"/>
     </g>
    </g>
   </g>
   <g id="line2d_17">
    <path d="M 141.12 45.027377 
L 344.365056 45.136282 
L 344.848896 46.425538 
L 353.074176 69.006772 
L 360.493056 89.863624 
L 362.105856 94.440546 
L 363.912192 99.673219 
L 367.39584 110.807642 
L 368.976384 115.853719 
L 370.202112 119.550977 
L 374.105088 121.36362 
L 374.685696 121.619522 
L 375.556608 122.003376 
L 376.201728 122.269941 
L 377.782272 122.936354 
L 378.427392 123.202919 
L 379.524096 123.629423 
L 380.265984 123.922644 
L 381.362688 124.349149 
L 382.265856 124.677024 
L 382.943232 124.943589 
L 383.749632 125.25547 
L 385.104384 125.804594 
L 387.749376 126.790885 
L 388.36224 127.022796 
L 390.2976 127.395987 
L 408.780288 127.289361 
L 409.00608 126.801547 
L 427.295232 75.087922 
L 431.036928 63.292417 
L 434.746368 51.617666 
L 439.358976 49.3412 
L 444.713472 46.984578 
L 453.422592 43.484472 
L 454.293504 43.268927 
L 468.582912 43.108189 
L 475.388928 43.184799 
L 490.742784 43.746186 
L 518.5152 44.46146 
L 544.15872 44.774399 
L 579.769344 44.945888 
L 627.798528 44.953885 
L 947.52 44.953885 
L 947.52 44.953885 
" clip-path="url(#p9a084a61a2)" style="fill: none; stroke: #ff0000; stroke-width: 2; stroke-linecap: square"/>
   </g>
   <g id="patch_4">
    <path d="M 100.8 131.611034 
L 100.8 38.88 
" style="fill: none; stroke: #bcbcbc; stroke-width: 0.8; stroke-linejoin: miter; stroke-linecap: square"/>
   </g>
   <g id="patch_5">
    <path d="M 987.84 131.611034 
L 987.84 38.88 
" style="fill: none; stroke: #bcbcbc; stroke-width: 0.8; stroke-linejoin: miter; stroke-linecap: square"/>
   </g>
   <g id="patch_6">
    <path d="M 100.8 131.611034 
L 987.84 131.611034 
" style="fill: none; stroke: #bcbcbc; stroke-width: 0.8; stroke-linejoin: miter; stroke-linecap: square"/>
   </g>
   <g id="patch_7">
    <path d="M 100.8 38.88 
L 987.84 38.88 
" style="fill: none; stroke: #bcbcbc; stroke-width: 0.8; stroke-linejoin: miter; stroke-linecap: square"/>
   </g>
  </g>
  <g id="axes_2">
   <g id="patch_8">
    <path d="M 100.8 242.888276 
L 987.84 242.888276 
L 987.84 150.157241 
L 100.8 150.157241 
z
" style="fill: #eeeeee"/>
   </g>
   <g id="matplotlib.axis_3">
    <g id="xtick_7">
     <g id="line2d_18">
      <path d="M 141.12 242.888276 
L 141.12 150.157241 
" clip-path="url(#pc22e7b7df4)" style="fill: none; stroke-dasharray: 1.85,0.8; stroke-dashoffset: 0; stroke: #b2b2b2; stroke-width: 0.5"/>
     </g>
     <g id="line2d_19">
      <g>
       <use xlink:href="#m4550cd2425" x="141.12" y="242.888276" style="stroke: #000000; stroke-width: 0.8"/>
      </g>
     </g>
    </g>
    <g id="xtick_8">
     <g id="line2d_20">
      <path d="M 302.4 242.888276 
L 302.4 150.157241 
" clip-path="url(#pc22e7b7df4)" style="fill: none; stroke-dasharray: 1.85,0.8; stroke-dashoffset: 0; stroke: #b2b2b2; stroke-width: 0.5"/>
     </g>
     <g id="line2d_21">
      <g>
       <use xlink:href="#m4550cd2425" x="302.4" y="242.888276" style="stroke: #000000; stroke-width: 0.8"/>
      </g>
     </g>
    </g>
    <g id="xtick_9">
     <g id="line2d_22">
      <path d="M 463.68 242.888276 
L 463.68 150.157241 
" clip-path="url(#pc22e7b7df4)" style="fill: none; stroke-dasharray: 1.85,0.8; stroke-dashoffset: 0; stroke: #b2b2b2; stroke-width: 0.5"/>
     </g>
     <g id="line2d_23">
      <g>
       <use xlink:href="#m4550cd2425" x="463.68" y="242.888276" style="stroke: #000000; stroke-width: 0.8"/>
      </g>
     </g>
    </g>
    <g id="xtick_10">
     <g id="line2d_24">
      <path d="M 624.96 242.888276 
L 624.96 150.157241 
" clip-path="url(#pc22e7b7df4)" style="fill: none; stroke-dasharray: 1.85,0.8; stroke-dashoffset: 0; stroke: #b2b2b2; stroke-width: 0.5"/>
     </g>
     <g id="line2d_25">
      <g>
       <use xlink:href="#m4550cd2425" x="624.96" y="242.888276" style="stroke: #000000; stroke-width: 0.8"/>
      </g>
     </g>
    </g>
    <g id="xtick_11">
     <g id="line2d_26">
      <path d="M 786.24 242.888276 
L 786.24 150.157241 
" clip-path="url(#pc22e7b7df4)" style="fill: none; stroke-dasharray: 1.85,0.8; stroke-dashoffset: 0; stroke: #b2b2b2; stroke-width: 0.5"/>
     </g>
     <g id="line2d_27">
      <g>
       <use xlink:href="#m4550cd2425" x="786.24" y="242.888276" style="stroke: #000000; stroke-width: 0.8"/>
      </g>
     </g>
    </g>
    <g id="xtick_12">
     <g id="line2d_28">
      <path d="M 947.52 242.888276 
L 947.52 150.157241 
" clip-path="url(#pc22e7b7df4)" style="fill: none; stroke-dasharray: 1.85,0.8; stroke-dashoffset: 0; stroke: #b2b2b2; stroke-width: 0.5"/>
     </g>
     <g id="line2d_29">
      <g>
       <use xlink:href="#m4550cd2425" x="947.52" y="242.888276" style="stroke: #000000; stroke-width: 0.8"/>
      </g>
     </g>
    </g>
   </g>
   <g id="matplotlib.axis_4">
    <g id="ytick_3">
     <g id="line2d_30">
      <path d="M 100.8 219.276439 
L 987.84 219.276439 
" clip-path="url(#pc22e7b7df4)" style="fill: none; stroke-dasharray: 1.85,0.8; stroke-dashoffset: 0; stroke: #b2b2b2; stroke-width: 0.5"/>
     </g>
     <g id="line2d_31">
      <g>
       <use xlink:href="#m99d266eb9d" x="100.8" y="219.276439" style="stroke: #000000; stroke-width: 0.8"/>
      </g>
     </g>
     <g id="text_4">
      <!-- 0 V -->
      <g transform="translate(74.36625 224.595346) scale(0.14 -0.14)">
       <use xlink:href="#DejaVuSans-30"/>
       <use xlink:href="#DejaVuSans-20" x="63.623047"/>
       <use xlink:href="#DejaVuSans-56" x="95.410156"/>
      </g>
     </g>
    </g>
    <g id="ytick_4">
     <g id="line2d_32">
      <path d="M 100.8 185.737709 
L 987.84 185.737709 
" clip-path="url(#pc22e7b7df4)" style="fill: none; stroke-dasharray: 1.85,0.8; stroke-dashoffset: 0; stroke: #b2b2b2; stroke-width: 0.5"/>
     </g>
     <g id="line2d_33">
      <g>
       <use xlink:href="#m99d266eb9d" x="100.8" y="185.737709" style="stroke: #000000; stroke-width: 0.8"/>
      </g>
     </g>
     <g id="text_5">
      <!-- 1 V -->
      <g transform="translate(74.36625 191.056615) scale(0.14 -0.14)">
       <defs>
        <path id="DejaVuSans-31" d="M 794 531 
L 1825 531 
L 1825 4091 
L 703 3866 
L 703 4441 
L 1819 4666 
L 2450 4666 
L 2450 531 
L 3481 531 
L 3481 0 
L 794 0 
L 794 531 
z
" transform="scale(0.015625)"/>
       </defs>
       <use xlink:href="#DejaVuSans-31"/>
       <use xlink:href="#DejaVuSans-20" x="63.623047"/>
       <use xlink:href="#DejaVuSans-56" x="95.410156"/>
      </g>
     </g>
    </g>
    <g id="ytick_5">
     <g id="line2d_34">
      <path d="M 100.8 152.198979 
L 987.84 152.198979 
" clip-path="url(#pc22e7b7df4)" style="fill: none; stroke-dasharray: 1.85,0.8; stroke-dashoffset: 0; stroke: #b2b2b2; stroke-width: 0.5"/>
     </g>
     <g id="line2d_35">
      <g>
       <use xlink:href="#m99d266eb9d" x="100.8" y="152.198979" style="stroke: #000000; stroke-width: 0.8"/>
      </g>
     </g>
     <g id="text_6">
      <!-- 2 V -->
      <g transform="translate(74.36625 157.517885) scale(0.14 -0.14)">
       <use xlink:href="#DejaVuSans-32"/>
       <use xlink:href="#DejaVuSans-20" x="63.623047"/>
       <use xlink:href="#DejaVuSans-56" x="95.410156"/>
      </g>
     </g>
    </g>
    <g id="text_7">
     <g id="patch_9">
      <path d="M 34.8768 224.531509 
L 34.8768 168.514009 
L 11.247425 168.514009 
L 11.247425 224.531509 
z
" style="fill: #ffff00; opacity: 0.2; stroke: #eeeeee; stroke-width: 0.5; stroke-linejoin: miter"/>
     </g>
     <!-- DFF IN -->
     <g transform="translate(26.925238 219.491509) rotate(-90) scale(0.14 -0.14)">
      <defs>
       <path id="DejaVuSans-44" d="M 1259 4147 
L 1259 519 
L 2022 519 
Q 2988 519 3436 956 
Q 3884 1394 3884 2338 
Q 3884 3275 3436 3711 
Q 2988 4147 2022 4147 
L 1259 4147 
z
M 628 4666 
L 1925 4666 
Q 3281 4666 3915 4102 
Q 4550 3538 4550 2338 
Q 4550 1131 3912 565 
Q 3275 0 1925 0 
L 628 0 
L 628 4666 
z
" transform="scale(0.015625)"/>
       <path id="DejaVuSans-46" d="M 628 4666 
L 3309 4666 
L 3309 4134 
L 1259 4134 
L 1259 2759 
L 3109 2759 
L 3109 2228 
L 1259 2228 
L 1259 0 
L 628 0 
L 628 4666 
z
" transform="scale(0.015625)"/>
       <path id="DejaVuSans-4e" d="M 628 4666 
L 1478 4666 
L 3547 763 
L 3547 4666 
L 4159 4666 
L 4159 0 
L 3309 0 
L 1241 3903 
L 1241 0 
L 628 0 
L 628 4666 
z
" transform="scale(0.015625)"/>
      </defs>
      <use xlink:href="#DejaVuSans-44"/>
      <use xlink:href="#DejaVuSans-46" x="77.001953"/>
      <use xlink:href="#DejaVuSans-46" x="134.521484"/>
      <use xlink:href="#DejaVuSans-20" x="192.041016"/>
      <use xlink:href="#DejaVuSans-49" x="223.828125"/>
      <use xlink:href="#DejaVuSans-4e" x="253.320312"/>
     </g>
    </g>
   </g>
   <g id="line2d_36">
    <path d="M 141.12 219.22746 
L 221.953536 219.181468 
L 224.437248 200.49408 
L 225.404928 194.809265 
L 228.243456 182.310051 
L 229.598208 181.055702 
L 231.178752 180.193757 
L 236.565504 179.744338 
L 243.661824 179.63366 
L 245.1456 179.59006 
L 248.403456 179.479382 
L 250.113024 179.412305 
L 252.177408 179.301627 
L 254.241792 178.976301 
L 254.757888 178.446389 
L 255.499776 178.111002 
L 256.370688 178.131125 
L 257.531904 178.362542 
L 259.98336 178.761653 
L 262.370304 178.899162 
L 263.886336 178.94947 
L 264.144384 184.121142 
L 264.434688 187.640026 
L 265.176576 192.327734 
L 267.144192 209.438188 
L 268.402176 215.862532 
L 269.079552 217.172555 
L 270.46656 218.869145 
L 273.724416 219.27825 
L 282.594816 219.23189 
L 297.110016 219.220685 
L 305.883648 219.226665 
L 344.429568 219.320036 
L 345.848832 220.673395 
L 347.71968 221.629014 
L 347.784192 221.546106 
L 349.429248 212.624368 
L 350.654976 207.281313 
L 351.75168 203.406583 
L 352.364544 201.865814 
L 352.912896 200.960268 
L 353.622528 200.158692 
L 354.428928 199.528164 
L 354.97728 199.326596 
L 355.267584 199.44633 
L 355.686912 200.137563 
L 355.94496 201.311754 
L 359.073792 213.972289 
L 359.267328 214.441832 
L 359.783424 216.485447 
L 360.105984 217.601213 
L 361.073664 220.856751 
L 361.234944 221.244626 
L 361.944576 223.322217 
L 362.428416 224.348166 
L 363.105792 225.936896 
L 363.36384 226.259874 
L 363.52512 226.516445 
L 364.557312 228.688413 
L 364.718592 228.801439 
L 365.234688 230.077923 
L 365.686272 230.90633 
L 366.137856 231.525119 
L 368.944128 236.746093 
L 370.234368 238.673229 
L 370.395648 238.627616 
L 370.62144 238.275124 
L 372.137472 235.937139 
L 372.750336 235.338137 
L 373.879296 233.925822 
L 374.65344 233.342918 
L 375.45984 232.522561 
L 375.750144 232.015455 
L 376.10496 231.604271 
L 376.26624 231.613661 
L 376.524288 231.340992 
L 376.879104 231.224612 
L 377.169408 231.044174 
L 378.298368 229.956177 
L 378.52416 229.570482 
L 378.653184 229.537279 
L 378.911232 229.155943 
L 378.943488 229.173719 
L 379.072512 229.19183 
L 381.007872 227.759055 
L 381.91104 226.8193 
L 382.362624 226.619074 
L 383.36256 225.865123 
L 384.33024 224.960248 
L 384.685056 224.450459 
L 385.072128 224.333074 
L 385.491456 224.203614 
L 386.330112 223.609308 
L 387.749376 222.48888 
L 388.136448 222.090037 
L 388.813824 221.663492 
L 389.97504 220.648744 
L 390.878208 219.502823 
L 391.845888 218.152221 
L 393.103872 216.395161 
L 393.716736 215.585502 
L 397.813248 210.647595 
L 398.68416 209.642439 
L 399.393792 207.598924 
L 400.651776 203.985126 
L 401.619456 201.792699 
L 402.651648 200.171102 
L 403.393536 199.090148 
L 403.941888 198.509593 
L 405.909504 196.091786 
L 406.522368 195.265392 
L 407.135232 194.58858 
L 408.135168 193.724622 
L 408.877056 192.925394 
L 409.360896 191.418835 
L 410.554368 187.432757 
L 411.393024 185.462691 
L 412.360704 183.789109 
L 414.102528 181.448105 
L 415.425024 179.673907 
L 416.037888 177.738722 
L 416.618496 176.474312 
L 417.037824 175.9444 
L 417.424896 175.71969 
L 418.424832 175.186424 
L 419.328 174.20374 
L 422.102016 170.356847 
L 422.908416 169.270192 
L 424.521216 167.113652 
L 425.682432 165.617825 
L 427.488768 163.360668 
L 430.069248 159.966549 
L 432.004608 157.534991 
L 434.6496 154.389058 
L 434.81088 154.429304 
L 435.552768 154.855246 
L 436.197888 155.069894 
L 436.972032 155.204049 
L 437.617152 155.314727 
L 445.197312 157.793239 
L 447.358464 158.574691 
L 448.293888 158.879894 
L 449.293824 159.178388 
L 454.48704 160.908987 
L 454.938624 161.147112 
L 455.712768 161.620008 
L 456.90624 166.741372 
L 457.196544 167.01639 
L 457.486848 167.023098 
L 457.809408 166.811804 
L 458.228736 166.389216 
L 458.938368 165.611117 
L 459.48672 165.181821 
L 460.680192 164.789418 
L 463.260672 165.168406 
L 464.841216 165.547393 
L 465.679872 165.745272 
L 478.291968 169.565333 
L 480.001536 170.031522 
L 482.356224 170.651988 
L 482.775552 170.752604 
L 483.51744 170.943775 
L 484.96896 171.282516 
L 485.77536 171.473687 
L 486.388224 171.617904 
L 486.872064 171.725228 
L 495.516672 173.412226 
L 495.936 173.479303 
L 496.065024 173.422287 
L 496.516608 172.86219 
L 497.097216 172.624065 
L 498.000384 172.828652 
L 498.484224 173.039946 
L 499.1616 173.358564 
L 499.903488 173.693951 
L 500.742144 173.975676 
L 501.25824 174.123247 
L 502.06464 174.317771 
L 502.451712 174.404972 
L 503.645184 174.639743 
L 505.741824 174.968423 
L 506.58048 175.079101 
L 507.2256 175.166301 
L 508.483584 175.317226 
L 509.257728 175.424549 
L 510.322176 175.535227 
L 511.322112 175.645905 
L 520.095744 176.447481 
L 521.41824 176.551451 
L 521.966592 176.608467 
L 523.643904 176.715791 
L 524.192256 176.772806 
L 524.934144 176.806345 
L 526.546944 176.917023 
L 529.353216 177.098132 
L 530.030592 177.135025 
L 532.353024 177.26918 
L 533.127168 177.299365 
L 535.159296 177.406688 
L 535.93344 177.456997 
L 536.41728 177.560967 
L 536.965632 178.218326 
L 537.54624 178.51682 
L 538.83648 178.543651 
L 539.80416 178.231741 
L 540.707328 177.973493 
L 541.449216 177.856107 
L 543.255552 177.778968 
L 544.674816 177.815861 
L 548.126208 177.919831 
L 548.545536 177.943308 
L 551.642112 178.050632 
L 552.190464 178.053986 
L 555.12576 178.164664 
L 556.609536 178.208264 
L 561.125376 178.318942 
L 562.54464 178.359188 
L 563.415552 178.379312 
L 564.609024 178.392727 
L 570.318336 178.503405 
L 570.9312 178.520174 
L 572.06016 178.526882 
L 576.769536 178.42962 
L 577.253376 177.956724 
L 577.769472 177.708537 
L 578.543616 177.654875 
L 579.511296 177.842692 
L 583.059456 178.469866 
L 586.2528 178.580544 
L 587.639808 178.614083 
L 617.025024 178.701283 
L 617.637888 179.345227 
L 618.02496 179.526336 
L 618.605568 179.657137 
L 620.928 179.549813 
L 623.250432 179.177533 
L 628.443648 178.748238 
L 657.312768 178.667745 
L 657.86112 178.060694 
L 658.409472 177.78903 
L 660.344832 177.899708 
L 663.570432 178.459805 
L 665.731584 178.573836 
L 697.632768 178.667745 
L 698.600448 179.522982 
L 700.019712 179.710799 
L 701.72928 179.600121 
L 703.438848 179.311688 
L 705.729024 178.946116 
L 709.115904 178.704637 
L 737.985024 178.624144 
L 738.468864 178.10094 
L 739.081728 177.785676 
L 740.2752 177.765553 
L 744.242688 178.479928 
L 745.952256 178.547005 
L 778.240512 178.654329 
L 778.401792 178.832084 
L 778.82112 179.251319 
L 779.433984 179.566583 
L 780.659712 179.710799 
L 782.36928 179.600121 
L 784.078848 179.311688 
L 786.369024 178.946116 
L 789.755904 178.704637 
L 818.625024 178.624144 
L 819.108864 178.097586 
L 819.818496 177.775614 
L 820.9152 177.765553 
L 824.882688 178.479928 
L 826.592256 178.547005 
L 858.880512 178.654329 
L 859.041792 178.832084 
L 859.46112 179.251319 
L 860.073984 179.566583 
L 861.299712 179.710799 
L 863.00928 179.600121 
L 864.718848 179.311688 
L 867.009024 178.946116 
L 870.395904 178.704637 
L 899.265024 178.624144 
L 899.748864 178.097586 
L 900.458496 177.775614 
L 901.5552 177.765553 
L 905.522688 178.479928 
L 907.232256 178.547005 
L 939.520512 178.654329 
L 939.681792 178.835438 
L 940.165632 179.315042 
L 940.649472 179.533044 
L 941.55264 179.707445 
L 943.488 179.596768 
L 946.487808 179.083625 
L 947.52 178.925993 
L 947.52 178.925993 
" clip-path="url(#pc22e7b7df4)" style="fill: none; stroke: #008000; stroke-width: 2; stroke-linecap: square"/>
   </g>
   <g id="patch_10">
    <path d="M 100.8 242.888276 
L 100.8 150.157241 
" style="fill: none; stroke: #bcbcbc; stroke-width: 0.8; stroke-linejoin: miter; stroke-linecap: square"/>
   </g>
   <g id="patch_11">
    <path d="M 987.84 242.888276 
L 987.84 150.157241 
" style="fill: none; stroke: #bcbcbc; stroke-width: 0.8; stroke-linejoin: miter; stroke-linecap: square"/>
   </g>
   <g id="patch_12">
    <path d="M 100.8 242.888276 
L 987.84 242.888276 
" style="fill: none; stroke: #bcbcbc; stroke-width: 0.8; stroke-linejoin: miter; stroke-linecap: square"/>
   </g>
   <g id="patch_13">
    <path d="M 100.8 150.157241 
L 987.84 150.157241 
" style="fill: none; stroke: #bcbcbc; stroke-width: 0.8; stroke-linejoin: miter; stroke-linecap: square"/>
   </g>
  </g>
  <g id="axes_3">
   <g id="patch_14">
    <path d="M 100.8 354.165517 
L 987.84 354.165517 
L 987.84 261.434483 
L 100.8 261.434483 
z
" style="fill: #eeeeee"/>
   </g>
   <g id="matplotlib.axis_5">
    <g id="xtick_13">
     <g id="line2d_37">
      <path d="M 141.12 354.165517 
L 141.12 261.434483 
" clip-path="url(#p05c58eb628)" style="fill: none; stroke-dasharray: 1.85,0.8; stroke-dashoffset: 0; stroke: #b2b2b2; stroke-width: 0.5"/>
     </g>
     <g id="line2d_38">
      <g>
       <use xlink:href="#m4550cd2425" x="141.12" y="354.165517" style="stroke: #000000; stroke-width: 0.8"/>
      </g>
     </g>
    </g>
    <g id="xtick_14">
     <g id="line2d_39">
      <path d="M 302.4 354.165517 
L 302.4 261.434483 
" clip-path="url(#p05c58eb628)" style="fill: none; stroke-dasharray: 1.85,0.8; stroke-dashoffset: 0; stroke: #b2b2b2; stroke-width: 0.5"/>
     </g>
     <g id="line2d_40">
      <g>
       <use xlink:href="#m4550cd2425" x="302.4" y="354.165517" style="stroke: #000000; stroke-width: 0.8"/>
      </g>
     </g>
    </g>
    <g id="xtick_15">
     <g id="line2d_41">
      <path d="M 463.68 354.165517 
L 463.68 261.434483 
" clip-path="url(#p05c58eb628)" style="fill: none; stroke-dasharray: 1.85,0.8; stroke-dashoffset: 0; stroke: #b2b2b2; stroke-width: 0.5"/>
     </g>
     <g id="line2d_42">
      <g>
       <use xlink:href="#m4550cd2425" x="463.68" y="354.165517" style="stroke: #000000; stroke-width: 0.8"/>
      </g>
     </g>
    </g>
    <g id="xtick_16">
     <g id="line2d_43">
      <path d="M 624.96 354.165517 
L 624.96 261.434483 
" clip-path="url(#p05c58eb628)" style="fill: none; stroke-dasharray: 1.85,0.8; stroke-dashoffset: 0; stroke: #b2b2b2; stroke-width: 0.5"/>
     </g>
     <g id="line2d_44">
      <g>
       <use xlink:href="#m4550cd2425" x="624.96" y="354.165517" style="stroke: #000000; stroke-width: 0.8"/>
      </g>
     </g>
    </g>
    <g id="xtick_17">
     <g id="line2d_45">
      <path d="M 786.24 354.165517 
L 786.24 261.434483 
" clip-path="url(#p05c58eb628)" style="fill: none; stroke-dasharray: 1.85,0.8; stroke-dashoffset: 0; stroke: #b2b2b2; stroke-width: 0.5"/>
     </g>
     <g id="line2d_46">
      <g>
       <use xlink:href="#m4550cd2425" x="786.24" y="354.165517" style="stroke: #000000; stroke-width: 0.8"/>
      </g>
     </g>
    </g>
    <g id="xtick_18">
     <g id="line2d_47">
      <path d="M 947.52 354.165517 
L 947.52 261.434483 
" clip-path="url(#p05c58eb628)" style="fill: none; stroke-dasharray: 1.85,0.8; stroke-dashoffset: 0; stroke: #b2b2b2; stroke-width: 0.5"/>
     </g>
     <g id="line2d_48">
      <g>
       <use xlink:href="#m4550cd2425" x="947.52" y="354.165517" style="stroke: #000000; stroke-width: 0.8"/>
      </g>
     </g>
    </g>
   </g>
   <g id="matplotlib.axis_6">
    <g id="ytick_6">
     <g id="line2d_49">
      <path d="M 100.8 346.665361 
L 987.84 346.665361 
" clip-path="url(#p05c58eb628)" style="fill: none; stroke-dasharray: 1.85,0.8; stroke-dashoffset: 0; stroke: #b2b2b2; stroke-width: 0.5"/>
     </g>
     <g id="line2d_50">
      <g>
       <use xlink:href="#m99d266eb9d" x="100.8" y="346.665361" style="stroke: #000000; stroke-width: 0.8"/>
      </g>
     </g>
     <g id="text_8">
      <!-- 0 V -->
      <g transform="translate(74.36625 351.984267) scale(0.14 -0.14)">
       <use xlink:href="#DejaVuSans-30"/>
       <use xlink:href="#DejaVuSans-20" x="63.623047"/>
       <use xlink:href="#DejaVuSans-56" x="95.410156"/>
      </g>
     </g>
    </g>
    <g id="ytick_7">
     <g id="line2d_51">
      <path d="M 100.8 304.627258 
L 987.84 304.627258 
" clip-path="url(#p05c58eb628)" style="fill: none; stroke-dasharray: 1.85,0.8; stroke-dashoffset: 0; stroke: #b2b2b2; stroke-width: 0.5"/>
     </g>
     <g id="line2d_52">
      <g>
       <use xlink:href="#m99d266eb9d" x="100.8" y="304.627258" style="stroke: #000000; stroke-width: 0.8"/>
      </g>
     </g>
     <g id="text_9">
      <!-- 1 V -->
      <g transform="translate(74.36625 309.946165) scale(0.14 -0.14)">
       <use xlink:href="#DejaVuSans-31"/>
       <use xlink:href="#DejaVuSans-20" x="63.623047"/>
       <use xlink:href="#DejaVuSans-56" x="95.410156"/>
      </g>
     </g>
    </g>
    <g id="ytick_8">
     <g id="line2d_53">
      <path d="M 100.8 262.589156 
L 987.84 262.589156 
" clip-path="url(#p05c58eb628)" style="fill: none; stroke-dasharray: 1.85,0.8; stroke-dashoffset: 0; stroke: #b2b2b2; stroke-width: 0.5"/>
     </g>
     <g id="line2d_54">
      <g>
       <use xlink:href="#m99d266eb9d" x="100.8" y="262.589156" style="stroke: #000000; stroke-width: 0.8"/>
      </g>
     </g>
     <g id="text_10">
      <!-- 2 V -->
      <g transform="translate(74.36625 267.908062) scale(0.14 -0.14)">
       <use xlink:href="#DejaVuSans-32"/>
       <use xlink:href="#DejaVuSans-20" x="63.623047"/>
       <use xlink:href="#DejaVuSans-56" x="95.410156"/>
      </g>
     </g>
    </g>
    <g id="text_11">
     <g id="patch_15">
      <path d="M 34.8768 342.395313 
L 34.8768 273.204688 
L 11.247425 273.204688 
L 11.247425 342.395313 
z
" style="fill: #ffff00; opacity: 0.2; stroke: #eeeeee; stroke-width: 0.5; stroke-linejoin: miter"/>
     </g>
     <!-- CLK BUF -->
     <g transform="translate(26.925238 337.355313) rotate(-90) scale(0.14 -0.14)">
      <defs>
       <path id="DejaVuSans-43" d="M 4122 4306 
L 4122 3641 
Q 3803 3938 3442 4084 
Q 3081 4231 2675 4231 
Q 1875 4231 1450 3742 
Q 1025 3253 1025 2328 
Q 1025 1406 1450 917 
Q 1875 428 2675 428 
Q 3081 428 3442 575 
Q 3803 722 4122 1019 
L 4122 359 
Q 3791 134 3420 21 
Q 3050 -91 2638 -91 
Q 1578 -91 968 557 
Q 359 1206 359 2328 
Q 359 3453 968 4101 
Q 1578 4750 2638 4750 
Q 3056 4750 3426 4639 
Q 3797 4528 4122 4306 
z
" transform="scale(0.015625)"/>
       <path id="DejaVuSans-4b" d="M 628 4666 
L 1259 4666 
L 1259 2694 
L 3353 4666 
L 4166 4666 
L 1850 2491 
L 4331 0 
L 3500 0 
L 1259 2247 
L 1259 0 
L 628 0 
L 628 4666 
z
" transform="scale(0.015625)"/>
      </defs>
      <use xlink:href="#DejaVuSans-43"/>
      <use xlink:href="#DejaVuSans-4c" x="69.824219"/>
      <use xlink:href="#DejaVuSans-4b" x="125.537109"/>
      <use xlink:href="#DejaVuSans-20" x="191.113281"/>
      <use xlink:href="#DejaVuSans-42" x="222.900391"/>
      <use xlink:href="#DejaVuSans-55" x="291.503906"/>
      <use xlink:href="#DejaVuSans-46" x="364.697266"/>
     </g>
    </g>
   </g>
   <g id="line2d_55">
    <path d="M 141.12 346.664249 
L 173.376 346.664249 
L 173.601792 296.219638 
L 213.696 296.219638 
L 213.760512 336.458089 
L 213.825024 346.646156 
L 213.889536 346.585661 
L 213.954048 346.753599 
L 214.01856 346.669916 
L 215.405568 346.660258 
L 223.630848 346.664181 
L 254.016 346.66422 
L 254.17728 296.064097 
L 254.241792 296.333141 
L 254.403072 296.21123 
L 254.854656 296.219638 
L 294.336 296.219638 
L 294.400512 336.422777 
L 294.465024 346.979053 
L 294.529536 346.248166 
L 294.626304 346.731424 
L 294.65856 346.70151 
L 294.884352 346.642081 
L 295.206912 346.680658 
L 295.497216 346.663922 
L 321.302016 346.664248 
L 334.656 346.664249 
L 334.81728 296.106135 
L 334.881792 296.232249 
L 335.365632 296.219638 
L 344.429568 296.328937 
L 346.074624 298.653644 
L 347.71968 301.428159 
L 354.65472 312.959631 
L 358.20288 318.214814 
L 362.267136 323.645296 
L 363.331584 324.78663 
L 363.396096 324.740388 
L 363.52512 324.938388 
L 363.976704 325.364234 
L 364.750848 326.133951 
L 364.783104 326.099901 
L 364.847616 326.180193 
L 365.170176 326.443352 
L 367.299072 328.066863 
L 367.428096 328.147577 
L 368.137728 328.657919 
L 369.589248 329.616388 
L 370.202112 329.909814 
L 371.234304 329.389382 
L 373.68576 328.446888 
L 373.782528 328.417882 
L 374.040576 328.273691 
L 374.072832 328.314047 
L 374.976 327.984048 
L 375.105024 326.890637 
L 375.13728 326.615708 
L 375.169536 326.954535 
L 375.266304 335.037622 
L 375.45984 349.908432 
L 375.653376 349.933277 
L 376.524288 349.662635 
L 381.685248 348.160488 
L 382.040064 348.077463 
L 388.459008 346.767631 
L 393.5232 346.126012 
L 398.264832 346.141103 
L 399.00672 346.149974 
L 408.941568 346.137278 
L 409.586688 345.544289 
L 410.393088 345.143035 
L 411.393024 344.912708 
L 412.941312 344.815054 
L 415.296 344.859362 
L 415.521792 298.279505 
L 416.9088 295.475563 
L 418.973184 291.427294 
L 420.069888 289.354816 
L 423.84384 282.69598 
L 424.295424 281.930887 
L 425.488896 279.971911 
L 426.811392 277.886821 
L 428.133888 275.856381 
L 428.617728 275.053453 
L 429.714432 273.266834 
L 430.29504 272.329384 
L 431.26272 270.778178 
L 431.940096 269.723022 
L 433.101312 267.970033 
L 434.585088 265.847109 
L 434.907648 265.729402 
L 436.810752 265.838701 
L 442.39104 268.138185 
L 444.00384 268.857037 
L 446.455296 269.933212 
L 447.745536 270.483912 
L 454.745088 273.329891 
L 455.325696 273.649381 
L 455.616 273.817533 
L 455.680512 347.410318 
L 455.809536 347.131269 
L 456.680448 347.146529 
L 462.22848 347.108022 
L 485.13024 346.920578 
L 495.936 346.851825 
L 496.032768 288.446793 
L 496.161792 289.338 
L 496.613376 289.451503 
L 497.935872 289.733159 
L 498.484224 289.83405 
L 499.00032 289.943349 
L 499.548672 290.044241 
L 500.064768 290.15354 
L 500.61312 290.254431 
L 501.225984 290.36373 
L 501.774336 290.464622 
L 502.3872 290.569717 
L 502.742016 290.632774 
L 503.35488 290.742073 
L 503.903232 290.842965 
L 504.612864 290.94806 
L 504.96768 291.011117 
L 505.580544 291.116212 
L 505.93536 291.179269 
L 506.644992 291.284365 
L 506.999808 291.347422 
L 507.806208 291.452517 
L 508.161024 291.515574 
L 508.870656 291.620669 
L 509.225472 291.683727 
L 510.12864 291.788822 
L 510.483456 291.851879 
L 511.289856 291.956974 
L 511.644672 292.020031 
L 512.54784 292.125127 
L 512.805888 292.146146 
L 513.612288 292.251241 
L 513.934848 292.310094 
L 514.96704 292.419393 
L 515.2896 292.478247 
L 516.321792 292.587546 
L 516.57984 292.608565 
L 517.483008 292.71366 
L 517.741056 292.734679 
L 518.644224 292.839774 
L 518.902272 292.860793 
L 519.80544 292.965889 
L 520.063488 292.986908 
L 521.063424 293.092003 
L 521.321472 293.113022 
L 522.321408 293.218117 
L 522.579456 293.239136 
L 523.67616 293.344232 
L 523.934208 293.365251 
L 525.12768 293.470346 
L 525.385728 293.487161 
L 526.5792 293.59646 
L 526.837248 293.613275 
L 528.127488 293.722575 
L 528.385536 293.73939 
L 529.772544 293.848689 
L 530.030592 293.869708 
L 531.514368 293.974803 
L 531.772416 293.995822 
L 532.288512 294.033657 
L 533.772288 294.117733 
L 535.191552 294.227032 
L 535.4496 294.243847 
L 536.256 294.285885 
L 536.288256 298.577975 
L 536.352768 347.246495 
L 536.41728 346.67532 
L 536.449536 346.670389 
L 536.481792 346.802035 
L 536.546304 346.720662 
L 536.997888 346.716307 
L 576.576 346.679032 
L 576.705024 295.517602 
L 576.801792 295.677346 
L 577.350144 295.715181 
L 616.896 295.799257 
L 617.025024 346.986435 
L 617.186304 346.741958 
L 617.444352 346.64819 
L 617.799168 346.693951 
L 618.121728 346.676067 
L 656.957952 346.676286 
L 657.216 346.676286 
L 657.37728 295.580659 
L 657.441792 296.055689 
L 657.53856 295.622697 
L 657.603072 295.782442 
L 658.086912 295.799257 
L 697.536 295.799257 
L 697.826304 346.770372 
L 697.987584 346.673714 
L 699.406848 346.672816 
L 708.051456 346.681522 
L 736.662528 346.676325 
L 737.856 346.676327 
L 738.01728 295.715181 
L 738.081792 295.816072 
L 739.049472 295.799257 
L 778.176 295.799257 
L 778.466304 346.770376 
L 778.627584 346.67371 
L 780.046848 346.672812 
L 788.691456 346.681527 
L 817.399296 346.676326 
L 818.496 346.676327 
L 818.65728 295.715181 
L 818.721792 295.816072 
L 819.689472 295.799257 
L 858.816 295.799257 
L 859.106304 346.77038 
L 859.267584 346.673714 
L 860.686848 346.672816 
L 869.331456 346.681523 
L 898.039296 346.676325 
L 899.136 346.676327 
L 899.29728 295.715181 
L 899.361792 295.816072 
L 900.329472 295.799257 
L 939.456 295.799257 
L 939.488256 303.378727 
L 939.61728 346.626317 
L 939.649536 346.748575 
L 939.714048 346.631598 
L 939.810816 346.648949 
L 940.004352 346.70144 
L 940.230144 346.674954 
L 945.778176 346.676291 
L 947.52 346.676278 
L 947.52 346.676278 
" clip-path="url(#p05c58eb628)" style="fill: none; stroke: #0000ff; stroke-width: 2; stroke-linecap: square"/>
   </g>
   <g id="patch_16">
    <path d="M 100.8 354.165517 
L 100.8 261.434483 
" style="fill: none; stroke: #bcbcbc; stroke-width: 0.8; stroke-linejoin: miter; stroke-linecap: square"/>
   </g>
   <g id="patch_17">
    <path d="M 987.84 354.165517 
L 987.84 261.434483 
" style="fill: none; stroke: #bcbcbc; stroke-width: 0.8; stroke-linejoin: miter; stroke-linecap: square"/>
   </g>
   <g id="patch_18">
    <path d="M 100.8 354.165517 
L 987.84 354.165517 
" style="fill: none; stroke: #bcbcbc; stroke-width: 0.8; stroke-linejoin: miter; stroke-linecap: square"/>
   </g>
   <g id="patch_19">
    <path d="M 100.8 261.434483 
L 987.84 261.434483 
" style="fill: none; stroke: #bcbcbc; stroke-width: 0.8; stroke-linejoin: miter; stroke-linecap: square"/>
   </g>
  </g>
  <g id="axes_4">
   <g id="patch_20">
    <path d="M 100.8 465.442759 
L 987.84 465.442759 
L 987.84 372.711724 
L 100.8 372.711724 
z
" style="fill: #eeeeee"/>
   </g>
   <g id="matplotlib.axis_7">
    <g id="xtick_19">
     <g id="line2d_56">
      <path d="M 141.12 465.442759 
L 141.12 372.711724 
" clip-path="url(#p8228fffd88)" style="fill: none; stroke-dasharray: 1.85,0.8; stroke-dashoffset: 0; stroke: #b2b2b2; stroke-width: 0.5"/>
     </g>
     <g id="line2d_57">
      <g>
       <use xlink:href="#m4550cd2425" x="141.12" y="465.442759" style="stroke: #000000; stroke-width: 0.8"/>
      </g>
     </g>
    </g>
    <g id="xtick_20">
     <g id="line2d_58">
      <path d="M 302.4 465.442759 
L 302.4 372.711724 
" clip-path="url(#p8228fffd88)" style="fill: none; stroke-dasharray: 1.85,0.8; stroke-dashoffset: 0; stroke: #b2b2b2; stroke-width: 0.5"/>
     </g>
     <g id="line2d_59">
      <g>
       <use xlink:href="#m4550cd2425" x="302.4" y="465.442759" style="stroke: #000000; stroke-width: 0.8"/>
      </g>
     </g>
    </g>
    <g id="xtick_21">
     <g id="line2d_60">
      <path d="M 463.68 465.442759 
L 463.68 372.711724 
" clip-path="url(#p8228fffd88)" style="fill: none; stroke-dasharray: 1.85,0.8; stroke-dashoffset: 0; stroke: #b2b2b2; stroke-width: 0.5"/>
     </g>
     <g id="line2d_61">
      <g>
       <use xlink:href="#m4550cd2425" x="463.68" y="465.442759" style="stroke: #000000; stroke-width: 0.8"/>
      </g>
     </g>
    </g>
    <g id="xtick_22">
     <g id="line2d_62">
      <path d="M 624.96 465.442759 
L 624.96 372.711724 
" clip-path="url(#p8228fffd88)" style="fill: none; stroke-dasharray: 1.85,0.8; stroke-dashoffset: 0; stroke: #b2b2b2; stroke-width: 0.5"/>
     </g>
     <g id="line2d_63">
      <g>
       <use xlink:href="#m4550cd2425" x="624.96" y="465.442759" style="stroke: #000000; stroke-width: 0.8"/>
      </g>
     </g>
    </g>
    <g id="xtick_23">
     <g id="line2d_64">
      <path d="M 786.24 465.442759 
L 786.24 372.711724 
" clip-path="url(#p8228fffd88)" style="fill: none; stroke-dasharray: 1.85,0.8; stroke-dashoffset: 0; stroke: #b2b2b2; stroke-width: 0.5"/>
     </g>
     <g id="line2d_65">
      <g>
       <use xlink:href="#m4550cd2425" x="786.24" y="465.442759" style="stroke: #000000; stroke-width: 0.8"/>
      </g>
     </g>
    </g>
    <g id="xtick_24">
     <g id="line2d_66">
      <path d="M 947.52 465.442759 
L 947.52 372.711724 
" clip-path="url(#p8228fffd88)" style="fill: none; stroke-dasharray: 1.85,0.8; stroke-dashoffset: 0; stroke: #b2b2b2; stroke-width: 0.5"/>
     </g>
     <g id="line2d_67">
      <g>
       <use xlink:href="#m4550cd2425" x="947.52" y="465.442759" style="stroke: #000000; stroke-width: 0.8"/>
      </g>
     </g>
    </g>
   </g>
   <g id="matplotlib.axis_8">
    <g id="ytick_9">
     <g id="line2d_68">
      <path d="M 100.8 436.226169 
L 987.84 436.226169 
" clip-path="url(#p8228fffd88)" style="fill: none; stroke-dasharray: 1.85,0.8; stroke-dashoffset: 0; stroke: #b2b2b2; stroke-width: 0.5"/>
     </g>
     <g id="line2d_69">
      <g>
       <use xlink:href="#m99d266eb9d" x="100.8" y="436.226169" style="stroke: #000000; stroke-width: 0.8"/>
      </g>
     </g>
     <g id="text_12">
      <!-- 0 V -->
      <g transform="translate(74.36625 441.545076) scale(0.14 -0.14)">
       <use xlink:href="#DejaVuSans-30"/>
       <use xlink:href="#DejaVuSans-20" x="63.623047"/>
       <use xlink:href="#DejaVuSans-56" x="95.410156"/>
      </g>
     </g>
    </g>
    <g id="ytick_10">
     <g id="line2d_70">
      <path d="M 100.8 392.524056 
L 987.84 392.524056 
" clip-path="url(#p8228fffd88)" style="fill: none; stroke-dasharray: 1.85,0.8; stroke-dashoffset: 0; stroke: #b2b2b2; stroke-width: 0.5"/>
     </g>
     <g id="line2d_71">
      <g>
       <use xlink:href="#m99d266eb9d" x="100.8" y="392.524056" style="stroke: #000000; stroke-width: 0.8"/>
      </g>
     </g>
     <g id="text_13">
      <!-- 1 V -->
      <g transform="translate(74.36625 397.842962) scale(0.14 -0.14)">
       <use xlink:href="#DejaVuSans-31"/>
       <use xlink:href="#DejaVuSans-20" x="63.623047"/>
       <use xlink:href="#DejaVuSans-56" x="95.410156"/>
      </g>
     </g>
    </g>
    <g id="text_14">
     <g id="patch_21">
      <path d="M 34.8768 454.693023 
L 34.8768 383.46146 
L 11.247425 383.46146 
L 11.247425 454.693023 
z
" style="fill: #ffff00; opacity: 0.2; stroke: #eeeeee; stroke-width: 0.5; stroke-linejoin: miter"/>
     </g>
     <!-- DFF OUT -->
     <g transform="translate(26.925238 449.653023) rotate(-90) scale(0.14 -0.14)">
      <defs>
       <path id="DejaVuSans-4f" d="M 2522 4238 
Q 1834 4238 1429 3725 
Q 1025 3213 1025 2328 
Q 1025 1447 1429 934 
Q 1834 422 2522 422 
Q 3209 422 3611 934 
Q 4013 1447 4013 2328 
Q 4013 3213 3611 3725 
Q 3209 4238 2522 4238 
z
M 2522 4750 
Q 3503 4750 4090 4092 
Q 4678 3434 4678 2328 
Q 4678 1225 4090 567 
Q 3503 -91 2522 -91 
Q 1538 -91 948 565 
Q 359 1222 359 2328 
Q 359 3434 948 4092 
Q 1538 4750 2522 4750 
z
" transform="scale(0.015625)"/>
       <path id="DejaVuSans-54" d="M -19 4666 
L 3928 4666 
L 3928 4134 
L 2272 4134 
L 2272 0 
L 1638 0 
L 1638 4134 
L -19 4134 
L -19 4666 
z
" transform="scale(0.015625)"/>
      </defs>
      <use xlink:href="#DejaVuSans-44"/>
      <use xlink:href="#DejaVuSans-46" x="77.001953"/>
      <use xlink:href="#DejaVuSans-46" x="134.521484"/>
      <use xlink:href="#DejaVuSans-20" x="192.041016"/>
      <use xlink:href="#DejaVuSans-4f" x="223.828125"/>
      <use xlink:href="#DejaVuSans-55" x="302.539062"/>
      <use xlink:href="#DejaVuSans-54" x="375.732422"/>
     </g>
    </g>
   </g>
   <g id="line2d_72">
    <path d="M 141.12 403.251613 
L 173.408256 403.30493 
L 173.440512 405.114198 
L 173.601792 436.228837 
L 174.053376 436.222986 
L 183.439872 436.225003 
L 254.048256 436.226835 
L 254.080512 436.401537 
L 254.112768 436.112557 
L 254.306304 431.845906 
L 254.596608 430.990656 
L 254.693376 430.380575 
L 255.14496 422.723964 
L 255.370752 404.728308 
L 255.596544 384.207543 
L 255.757824 383.849186 
L 255.983616 383.779263 
L 256.822272 383.783633 
L 295.755264 383.871037 
L 296.239104 386.698564 
L 296.561664 386.043032 
L 297.819648 384.185692 
L 298.980864 383.827335 
L 334.720512 383.822965 
L 334.752768 383.154322 
L 335.107584 436.224892 
L 335.752704 436.224984 
L 344.397312 436.306009 
L 345.074688 436.966527 
L 345.848832 437.378987 
L 346.848768 437.634994 
L 348.3648 437.757229 
L 351.235584 437.725458 
L 354.364416 437.533868 
L 355.267584 437.292938 
L 355.654656 436.976404 
L 355.880448 436.527832 
L 356.009472 435.710091 
L 356.10624 433.013977 
L 356.396544 416.314612 
L 356.493312 416.499909 
L 356.880384 418.246246 
L 357.2352 420.248677 
L 357.299712 420.22027 
L 357.331968 419.840062 
L 357.364224 420.061631 
L 357.525504 421.874832 
L 358.68672 427.948115 
L 358.815744 428.378581 
L 359.299584 430.652402 
L 359.6544 432.20505 
L 359.686656 431.99292 
L 359.718912 431.953195 
L 359.751168 431.980859 
L 360.009216 433.729336 
L 360.428544 435.463873 
L 360.4608 435.093411 
L 360.493056 435.151709 
L 360.686592 436.662277 
L 361.170432 438.733447 
L 361.202688 438.288122 
L 361.234944 438.97394 
L 361.2672 438.465029 
L 361.718784 440.80484 
L 361.880064 441.34325 
L 361.91232 441.154894 
L 361.976832 441.12605 
L 362.525184 443.178739 
L 363.138048 444.464892 
L 363.299328 444.748519 
L 363.460608 445.312713 
L 363.492864 445.022968 
L 363.52512 445.414102 
L 363.654144 445.70341 
L 363.6864 445.497136 
L 363.750912 445.718268 
L 364.00896 446.500099 
L 364.17024 447.212007 
L 364.428288 447.919981 
L 364.750848 448.785283 
L 364.783104 448.750321 
L 364.81536 448.604793 
L 364.847616 448.823304 
L 365.008896 449.454362 
L 365.815296 451.435379 
L 365.879808 451.39124 
L 366.234624 452.235565 
L 366.363648 452.825106 
L 366.395904 452.662971 
L 366.460416 452.814618 
L 368.589312 457.943498 
L 370.202112 461.227712 
L 370.363392 461.11933 
L 370.556928 460.653903 
L 370.589184 460.681435 
L 370.62144 460.677939 
L 370.78272 460.217319 
L 370.814976 460.266702 
L 370.976256 459.941995 
L 372.331008 457.190947 
L 372.363264 457.22285 
L 372.39552 457.122335 
L 372.460032 457.010895 
L 372.782592 456.373281 
L 372.943872 456.250915 
L 373.105152 455.841863 
L 373.653504 455.067899 
L 373.68576 455.029004 
L 373.718016 455.218671 
L 373.750272 455.001034 
L 373.782528 455.072269 
L 373.943808 454.698616 
L 373.976064 454.809182 
L 374.201856 454.470054 
L 374.234112 454.541288 
L 374.266368 454.456506 
L 374.49216 454.213085 
L 374.81472 453.612181 
L 375.13728 453.152872 
L 375.169536 453.328118 
L 375.201792 453.071149 
L 375.330816 452.954464 
L 375.363072 453.012151 
L 375.45984 452.992048 
L 375.588864 452.524873 
L 375.62112 452.500399 
L 375.653376 452.619706 
L 375.685632 452.412558 
L 375.975936 452.100525 
L 376.10496 451.95019 
L 376.137216 452.169574 
L 376.201728 451.854045 
L 376.233984 452.076926 
L 376.395264 451.670933 
L 377.3952 450.612468 
L 377.55648 450.244059 
L 377.620992 450.178069 
L 377.653248 450.406194 
L 377.685504 450.077117 
L 377.814528 449.88745 
L 377.846784 450.182876 
L 377.87904 449.820149 
L 377.943552 450.091539 
L 378.104832 449.564928 
L 378.137088 449.724441 
L 378.169344 449.68205 
L 378.266112 449.719634 
L 378.298368 449.299657 
L 378.330624 449.286546 
L 378.36288 449.505057 
L 378.427392 449.181661 
L 378.459648 449.409349 
L 378.588672 449.094694 
L 378.620928 449.295723 
L 378.653184 449.055362 
L 378.814464 448.802327 
L 378.911232 448.716233 
L 378.943488 448.953099 
L 379.008 448.734588 
L 379.040256 448.820244 
L 379.16928 448.501219 
L 379.459584 448.398082 
L 380.040192 447.778823 
L 380.201472 447.239539 
L 380.233728 447.27319 
L 380.265984 447.318203 
L 380.427264 446.904344 
L 380.717568 446.577452 
L 380.749824 446.884241 
L 380.78208 446.459456 
L 380.814336 446.478248 
L 380.846592 446.670538 
L 380.94336 446.614162 
L 381.10464 446.132127 
L 381.136896 446.414443 
L 381.233664 446.400021 
L 381.4272 445.828398 
L 381.459456 446.154416 
L 381.491712 445.729194 
L 381.523968 445.742742 
L 381.556224 445.973926 
L 381.620736 445.779451 
L 381.652992 445.8603 
L 381.782016 445.555697 
L 382.427136 445.17811 
L 383.007744 444.45047 
L 383.169024 443.957947 
L 383.233536 443.839078 
L 383.265792 444.054966 
L 383.298048 443.786635 
L 383.427072 443.557636 
L 383.459328 444.017819 
L 383.52384 443.536659 
L 383.749632 443.244292 
L 383.781888 443.68612 
L 383.8464 443.562443 
L 383.910912 443.047195 
L 383.943168 443.360976 
L 383.975424 443.500823 
L 384.00768 443.029714 
L 384.104448 443.053314 
L 384.136704 443.217196 
L 384.16896 443.090897 
L 384.297984 442.74434 
L 385.039872 442.39516 
L 385.265664 442.282408 
L 386.330112 441.164071 
L 386.459136 440.514002 
L 386.620416 440.328793 
L 386.652672 440.298813 
L 386.684928 440.800033 
L 386.781696 440.577895 
L 386.91072 440.086421 
L 386.942976 440.540661 
L 387.007488 440.060636 
L 387.168768 439.776704 
L 387.23328 439.715608 
L 387.265536 440.21119 
L 387.330048 439.98713 
L 387.55584 439.466375 
L 387.588096 439.842781 
L 387.652608 439.828272 
L 387.781632 439.349603 
L 388.459008 439.017642 
L 389.65248 437.638316 
L 389.846016 437.321956 
L 390.039552 436.413533 
L 390.168576 436.464577 
L 390.233088 436.583932 
L 390.2976 436.220536 
L 390.426624 436.266321 
L 390.45888 436.207483 
L 391.555584 434.083061 
L 391.652352 433.302236 
L 391.74912 433.34301 
L 391.845888 433.367221 
L 391.9104 433.371809 
L 391.942656 433.309796 
L 392.87808 431.394464 
L 392.910336 430.434328 
L 392.974848 431.18819 
L 393.007104 431.106467 
L 393.136128 430.276564 
L 393.168384 430.440009 
L 393.20064 430.349546 
L 393.232896 430.51474 
L 393.265152 430.538776 
L 393.426432 430.170804 
L 394.426368 428.0648 
L 394.49088 427.438985 
L 394.523136 427.911842 
L 394.781184 427.301324 
L 398.555136 419.163116 
L 398.587392 418.513266 
L 398.651904 418.70337 
L 398.68416 418.896533 
L 398.780928 418.182004 
L 398.813184 418.417995 
L 400.103424 415.786254 
L 400.232448 415.057302 
L 400.264704 415.094012 
L 400.490496 415.122419 
L 401.071104 413.858116 
L 403.393536 409.694616 
L 403.425792 409.73657 
L 403.458048 409.64567 
L 403.716096 409.282505 
L 405.29664 406.6748 
L 405.522432 406.325183 
L 406.038528 405.435408 
L 406.199808 404.953811 
L 406.941696 404.055295 
L 407.619072 403.33727 
L 408.489984 402.012659 
L 408.780288 401.51664 
L 409.00608 401.260982 
L 409.909248 398.343866 
L 415.328256 386.353317 
L 415.360512 386.401389 
L 415.392768 385.57979 
L 415.45728 398.066358 
L 415.554048 434.639826 
L 415.61856 434.329891 
L 428.230656 434.854578 
L 430.198272 434.76512 
L 434.585088 434.892818 
L 434.875392 435.191172 
L 435.552768 435.786264 
L 436.391424 436.194032 
L 437.423616 436.442683 
L 439.100928 436.592384 
L 442.842624 436.635055 
L 455.680512 436.59769 
L 455.809536 436.723237 
L 466.58304 436.641741 
L 492.06528 436.442115 
L 495.968256 436.427422 
L 496.000512 436.621665 
L 496.032768 436.295621 
L 496.226304 430.367027 
L 496.58112 428.386447 
L 496.7424 425.741158 
L 496.90368 418.264164 
L 497.097216 396.917429 
L 497.290752 377.167133 
L 497.452032 376.926771 
L 497.903616 377.022916 
L 498.258432 377.10158 
L 498.774528 377.197724 
L 499.193856 377.302609 
L 499.742208 377.407494 
L 500.322816 377.503639 
L 500.742144 377.608524 
L 501.290496 377.713409 
L 501.90336 377.822664 
L 502.22592 377.888218 
L 502.838784 377.984362 
L 503.1936 378.063026 
L 503.83872 378.172281 
L 504.16128 378.237835 
L 504.8064 378.34709 
L 505.12896 378.408273 
L 509.741568 379.133728 
L 509.999616 379.155579 
L 510.709248 379.264834 
L 511.031808 379.326017 
L 519.289344 380.335536 
L 520.192512 380.444791 
L 520.45056 380.466642 
L 521.450496 380.575898 
L 521.708544 380.597749 
L 522.805248 380.707004 
L 523.063296 380.728855 
L 524.16 380.83811 
L 524.418048 380.859961 
L 525.61152 380.969217 
L 525.869568 380.991068 
L 527.06304 381.100323 
L 527.321088 381.122174 
L 528.708096 381.231429 
L 528.966144 381.25328 
L 530.353152 381.362536 
L 530.6112 381.384387 
L 532.094976 381.493642 
L 532.353024 381.511123 
L 533.901312 381.611638 
L 534.256128 381.646599 
L 535.868928 381.755855 
L 536.126976 381.773336 
L 537.965568 381.87385 
L 538.320384 381.904442 
L 539.771904 381.996216 
L 540.288 382.035548 
L 542.610432 382.136063 
L 542.965248 382.166655 
L 544.126464 382.214727 
L 544.64256 382.254059 
L 547.06176 382.354574 
L 547.416576 382.385165 
L 550.158336 382.48568 
L 550.513152 382.516272 
L 553.545216 382.616786 
L 553.900032 382.647378 
L 555.028992 382.69108 
L 558.67392 382.791595 
L 559.028736 382.826557 
L 559.835136 382.826557 
L 563.157504 382.935812 
L 563.480064 382.957663 
L 564.31872 382.953293 
L 568.35072 383.053808 
L 568.705536 383.088769 
L 569.544192 383.084399 
L 574.64064 383.184914 
L 574.995456 383.215505 
L 576.608256 383.211135 
L 576.640512 383.464607 
L 576.705024 383.193654 
L 576.866304 383.211135 
L 582.575616 383.31602 
L 582.930432 383.346612 
L 657.248256 383.342241 
L 657.280512 383.565122 
L 657.345024 383.342241 
L 657.53856 383.32039 
L 658.538496 383.346612 
L 737.888256 383.364093 
L 737.920512 383.51268 
L 737.985024 383.31165 
L 738.243072 383.337871 
L 818.528256 383.364093 
L 818.560512 383.51268 
L 818.625024 383.31165 
L 818.883072 383.337871 
L 899.168256 383.364093 
L 899.200512 383.51268 
L 899.265024 383.31165 
L 899.523072 383.337871 
L 947.52 383.346612 
L 947.52 383.346612 
" clip-path="url(#p8228fffd88)" style="fill: none; stroke: #ff00ff; stroke-width: 2; stroke-linecap: square"/>
   </g>
   <g id="patch_22">
    <path d="M 100.8 465.442759 
L 100.8 372.711724 
" style="fill: none; stroke: #bcbcbc; stroke-width: 0.8; stroke-linejoin: miter; stroke-linecap: square"/>
   </g>
   <g id="patch_23">
    <path d="M 987.84 465.442759 
L 987.84 372.711724 
" style="fill: none; stroke: #bcbcbc; stroke-width: 0.8; stroke-linejoin: miter; stroke-linecap: square"/>
   </g>
   <g id="patch_24">
    <path d="M 100.8 465.442759 
L 987.84 465.442759 
" style="fill: none; stroke: #bcbcbc; stroke-width: 0.8; stroke-linejoin: miter; stroke-linecap: square"/>
   </g>
   <g id="patch_25">
    <path d="M 100.8 372.711724 
L 987.84 372.711724 
" style="fill: none; stroke: #bcbcbc; stroke-width: 0.8; stroke-linejoin: miter; stroke-linecap: square"/>
   </g>
  </g>
  <g id="axes_5">
   <g id="patch_26">
    <path d="M 100.8 576.72 
L 987.84 576.72 
L 987.84 483.988966 
L 100.8 483.988966 
z
" style="fill: #eeeeee"/>
   </g>
   <g id="matplotlib.axis_9">
    <g id="xtick_25">
     <g id="line2d_73">
      <path d="M 141.12 576.72 
L 141.12 483.988966 
" clip-path="url(#p27ddecd21f)" style="fill: none; stroke-dasharray: 1.85,0.8; stroke-dashoffset: 0; stroke: #b2b2b2; stroke-width: 0.5"/>
     </g>
     <g id="line2d_74">
      <g>
       <use xlink:href="#m4550cd2425" x="141.12" y="576.72" style="stroke: #000000; stroke-width: 0.8"/>
      </g>
     </g>
     <g id="text_15">
      <!-- 0 s -->
      <g transform="translate(130.795 590.857813) scale(0.14 -0.14)">
       <defs>
        <path id="DejaVuSans-73" d="M 2834 3397 
L 2834 2853 
Q 2591 2978 2328 3040 
Q 2066 3103 1784 3103 
Q 1356 3103 1142 2972 
Q 928 2841 928 2578 
Q 928 2378 1081 2264 
Q 1234 2150 1697 2047 
L 1894 2003 
Q 2506 1872 2764 1633 
Q 3022 1394 3022 966 
Q 3022 478 2636 193 
Q 2250 -91 1575 -91 
Q 1294 -91 989 -36 
Q 684 19 347 128 
L 347 722 
Q 666 556 975 473 
Q 1284 391 1588 391 
Q 1994 391 2212 530 
Q 2431 669 2431 922 
Q 2431 1156 2273 1281 
Q 2116 1406 1581 1522 
L 1381 1569 
Q 847 1681 609 1914 
Q 372 2147 372 2553 
Q 372 3047 722 3315 
Q 1072 3584 1716 3584 
Q 2034 3584 2315 3537 
Q 2597 3491 2834 3397 
z
" transform="scale(0.015625)"/>
       </defs>
       <use xlink:href="#DejaVuSans-30"/>
       <use xlink:href="#DejaVuSans-20" x="63.623047"/>
       <use xlink:href="#DejaVuSans-73" x="95.410156"/>
      </g>
     </g>
    </g>
    <g id="xtick_26">
     <g id="line2d_75">
      <path d="M 302.4 576.72 
L 302.4 483.988966 
" clip-path="url(#p27ddecd21f)" style="fill: none; stroke-dasharray: 1.85,0.8; stroke-dashoffset: 0; stroke: #b2b2b2; stroke-width: 0.5"/>
     </g>
     <g id="line2d_76">
      <g>
       <use xlink:href="#m4550cd2425" x="302.4" y="576.72" style="stroke: #000000; stroke-width: 0.8"/>
      </g>
     </g>
     <g id="text_16">
      <!-- 50 ns -->
      <g transform="translate(283.185 590.857813) scale(0.14 -0.14)">
       <defs>
        <path id="DejaVuSans-35" d="M 691 4666 
L 3169 4666 
L 3169 4134 
L 1269 4134 
L 1269 2991 
Q 1406 3038 1543 3061 
Q 1681 3084 1819 3084 
Q 2600 3084 3056 2656 
Q 3513 2228 3513 1497 
Q 3513 744 3044 326 
Q 2575 -91 1722 -91 
Q 1428 -91 1123 -41 
Q 819 9 494 109 
L 494 744 
Q 775 591 1075 516 
Q 1375 441 1709 441 
Q 2250 441 2565 725 
Q 2881 1009 2881 1497 
Q 2881 1984 2565 2268 
Q 2250 2553 1709 2553 
Q 1456 2553 1204 2497 
Q 953 2441 691 2322 
L 691 4666 
z
" transform="scale(0.015625)"/>
        <path id="DejaVuSans-6e" d="M 3513 2113 
L 3513 0 
L 2938 0 
L 2938 2094 
Q 2938 2591 2744 2837 
Q 2550 3084 2163 3084 
Q 1697 3084 1428 2787 
Q 1159 2491 1159 1978 
L 1159 0 
L 581 0 
L 581 3500 
L 1159 3500 
L 1159 2956 
Q 1366 3272 1645 3428 
Q 1925 3584 2291 3584 
Q 2894 3584 3203 3211 
Q 3513 2838 3513 2113 
z
" transform="scale(0.015625)"/>
       </defs>
       <use xlink:href="#DejaVuSans-35"/>
       <use xlink:href="#DejaVuSans-30" x="63.623047"/>
       <use xlink:href="#DejaVuSans-20" x="127.246094"/>
       <use xlink:href="#DejaVuSans-6e" x="159.033203"/>
       <use xlink:href="#DejaVuSans-73" x="222.412109"/>
      </g>
     </g>
    </g>
    <g id="xtick_27">
     <g id="line2d_77">
      <path d="M 463.68 576.72 
L 463.68 483.988966 
" clip-path="url(#p27ddecd21f)" style="fill: none; stroke-dasharray: 1.85,0.8; stroke-dashoffset: 0; stroke: #b2b2b2; stroke-width: 0.5"/>
     </g>
     <g id="line2d_78">
      <g>
       <use xlink:href="#m4550cd2425" x="463.68" y="576.72" style="stroke: #000000; stroke-width: 0.8"/>
      </g>
     </g>
     <g id="text_17">
      <!-- 100 ns -->
      <g transform="translate(440.01125 590.857813) scale(0.14 -0.14)">
       <use xlink:href="#DejaVuSans-31"/>
       <use xlink:href="#DejaVuSans-30" x="63.623047"/>
       <use xlink:href="#DejaVuSans-30" x="127.246094"/>
       <use xlink:href="#DejaVuSans-20" x="190.869141"/>
       <use xlink:href="#DejaVuSans-6e" x="222.65625"/>
       <use xlink:href="#DejaVuSans-73" x="286.035156"/>
      </g>
     </g>
    </g>
    <g id="xtick_28">
     <g id="line2d_79">
      <path d="M 624.96 576.72 
L 624.96 483.988966 
" clip-path="url(#p27ddecd21f)" style="fill: none; stroke-dasharray: 1.85,0.8; stroke-dashoffset: 0; stroke: #b2b2b2; stroke-width: 0.5"/>
     </g>
     <g id="line2d_80">
      <g>
       <use xlink:href="#m4550cd2425" x="624.96" y="576.72" style="stroke: #000000; stroke-width: 0.8"/>
      </g>
     </g>
     <g id="text_18">
      <!-- 150 ns -->
      <g transform="translate(601.29125 590.857813) scale(0.14 -0.14)">
       <use xlink:href="#DejaVuSans-31"/>
       <use xlink:href="#DejaVuSans-35" x="63.623047"/>
       <use xlink:href="#DejaVuSans-30" x="127.246094"/>
       <use xlink:href="#DejaVuSans-20" x="190.869141"/>
       <use xlink:href="#DejaVuSans-6e" x="222.65625"/>
       <use xlink:href="#DejaVuSans-73" x="286.035156"/>
      </g>
     </g>
    </g>
    <g id="xtick_29">
     <g id="line2d_81">
      <path d="M 786.24 576.72 
L 786.24 483.988966 
" clip-path="url(#p27ddecd21f)" style="fill: none; stroke-dasharray: 1.85,0.8; stroke-dashoffset: 0; stroke: #b2b2b2; stroke-width: 0.5"/>
     </g>
     <g id="line2d_82">
      <g>
       <use xlink:href="#m4550cd2425" x="786.24" y="576.72" style="stroke: #000000; stroke-width: 0.8"/>
      </g>
     </g>
     <g id="text_19">
      <!-- 200 ns -->
      <g transform="translate(762.57125 590.857813) scale(0.14 -0.14)">
       <use xlink:href="#DejaVuSans-32"/>
       <use xlink:href="#DejaVuSans-30" x="63.623047"/>
       <use xlink:href="#DejaVuSans-30" x="127.246094"/>
       <use xlink:href="#DejaVuSans-20" x="190.869141"/>
       <use xlink:href="#DejaVuSans-6e" x="222.65625"/>
       <use xlink:href="#DejaVuSans-73" x="286.035156"/>
      </g>
     </g>
    </g>
    <g id="xtick_30">
     <g id="line2d_83">
      <path d="M 947.52 576.72 
L 947.52 483.988966 
" clip-path="url(#p27ddecd21f)" style="fill: none; stroke-dasharray: 1.85,0.8; stroke-dashoffset: 0; stroke: #b2b2b2; stroke-width: 0.5"/>
     </g>
     <g id="line2d_84">
      <g>
       <use xlink:href="#m4550cd2425" x="947.52" y="576.72" style="stroke: #000000; stroke-width: 0.8"/>
      </g>
     </g>
     <g id="text_20">
      <!-- 250 ns -->
      <g transform="translate(923.85125 590.857813) scale(0.14 -0.14)">
       <use xlink:href="#DejaVuSans-32"/>
       <use xlink:href="#DejaVuSans-35" x="63.623047"/>
       <use xlink:href="#DejaVuSans-30" x="127.246094"/>
       <use xlink:href="#DejaVuSans-20" x="190.869141"/>
       <use xlink:href="#DejaVuSans-6e" x="222.65625"/>
       <use xlink:href="#DejaVuSans-73" x="286.035156"/>
      </g>
     </g>
    </g>
    <g id="text_21">
     <!-- Time -->
     <g transform="translate(527.192969 608.407187) scale(0.14 -0.14)">
      <defs>
       <path id="DejaVuSans-69" d="M 603 3500 
L 1178 3500 
L 1178 0 
L 603 0 
L 603 3500 
z
M 603 4863 
L 1178 4863 
L 1178 4134 
L 603 4134 
L 603 4863 
z
" transform="scale(0.015625)"/>
       <path id="DejaVuSans-6d" d="M 3328 2828 
Q 3544 3216 3844 3400 
Q 4144 3584 4550 3584 
Q 5097 3584 5394 3201 
Q 5691 2819 5691 2113 
L 5691 0 
L 5113 0 
L 5113 2094 
Q 5113 2597 4934 2840 
Q 4756 3084 4391 3084 
Q 3944 3084 3684 2787 
Q 3425 2491 3425 1978 
L 3425 0 
L 2847 0 
L 2847 2094 
Q 2847 2600 2669 2842 
Q 2491 3084 2119 3084 
Q 1678 3084 1418 2786 
Q 1159 2488 1159 1978 
L 1159 0 
L 581 0 
L 581 3500 
L 1159 3500 
L 1159 2956 
Q 1356 3278 1631 3431 
Q 1906 3584 2284 3584 
Q 2666 3584 2933 3390 
Q 3200 3197 3328 2828 
z
" transform="scale(0.015625)"/>
       <path id="DejaVuSans-65" d="M 3597 1894 
L 3597 1613 
L 953 1613 
Q 991 1019 1311 708 
Q 1631 397 2203 397 
Q 2534 397 2845 478 
Q 3156 559 3463 722 
L 3463 178 
Q 3153 47 2828 -22 
Q 2503 -91 2169 -91 
Q 1331 -91 842 396 
Q 353 884 353 1716 
Q 353 2575 817 3079 
Q 1281 3584 2069 3584 
Q 2775 3584 3186 3129 
Q 3597 2675 3597 1894 
z
M 3022 2063 
Q 3016 2534 2758 2815 
Q 2500 3097 2075 3097 
Q 1594 3097 1305 2825 
Q 1016 2553 972 2059 
L 3022 2063 
z
" transform="scale(0.015625)"/>
      </defs>
      <use xlink:href="#DejaVuSans-54"/>
      <use xlink:href="#DejaVuSans-69" x="57.958984"/>
      <use xlink:href="#DejaVuSans-6d" x="85.742188"/>
      <use xlink:href="#DejaVuSans-65" x="183.154297"/>
     </g>
    </g>
   </g>
   <g id="matplotlib.axis_10">
    <g id="ytick_11">
     <g id="line2d_85">
      <path d="M 100.8 569.737898 
L 987.84 569.737898 
" clip-path="url(#p27ddecd21f)" style="fill: none; stroke-dasharray: 1.85,0.8; stroke-dashoffset: 0; stroke: #b2b2b2; stroke-width: 0.5"/>
     </g>
     <g id="line2d_86">
      <g>
       <use xlink:href="#m99d266eb9d" x="100.8" y="569.737898" style="stroke: #000000; stroke-width: 0.8"/>
      </g>
     </g>
     <g id="text_22">
      <!-- 0 V -->
      <g transform="translate(74.36625 575.056805) scale(0.14 -0.14)">
       <use xlink:href="#DejaVuSans-30"/>
       <use xlink:href="#DejaVuSans-20" x="63.623047"/>
       <use xlink:href="#DejaVuSans-56" x="95.410156"/>
      </g>
     </g>
    </g>
    <g id="ytick_12">
     <g id="line2d_87">
      <path d="M 100.8 535.84453 
L 987.84 535.84453 
" clip-path="url(#p27ddecd21f)" style="fill: none; stroke-dasharray: 1.85,0.8; stroke-dashoffset: 0; stroke: #b2b2b2; stroke-width: 0.5"/>
     </g>
     <g id="line2d_88">
      <g>
       <use xlink:href="#m99d266eb9d" x="100.8" y="535.84453" style="stroke: #000000; stroke-width: 0.8"/>
      </g>
     </g>
     <g id="text_23">
      <!-- 500 mV -->
      <g transform="translate(42.914375 541.163437) scale(0.14 -0.14)">
       <use xlink:href="#DejaVuSans-35"/>
       <use xlink:href="#DejaVuSans-30" x="63.623047"/>
       <use xlink:href="#DejaVuSans-30" x="127.246094"/>
       <use xlink:href="#DejaVuSans-20" x="190.869141"/>
       <use xlink:href="#DejaVuSans-6d" x="222.65625"/>
       <use xlink:href="#DejaVuSans-56" x="320.068359"/>
      </g>
     </g>
    </g>
    <g id="ytick_13">
     <g id="line2d_89">
      <path d="M 100.8 501.951163 
L 987.84 501.951163 
" clip-path="url(#p27ddecd21f)" style="fill: none; stroke-dasharray: 1.85,0.8; stroke-dashoffset: 0; stroke: #b2b2b2; stroke-width: 0.5"/>
     </g>
     <g id="line2d_90">
      <g>
       <use xlink:href="#m99d266eb9d" x="100.8" y="501.951163" style="stroke: #000000; stroke-width: 0.8"/>
      </g>
     </g>
     <g id="text_24">
      <!-- 1 V -->
      <g transform="translate(74.36625 507.270069) scale(0.14 -0.14)">
       <use xlink:href="#DejaVuSans-31"/>
       <use xlink:href="#DejaVuSans-20" x="63.623047"/>
       <use xlink:href="#DejaVuSans-56" x="95.410156"/>
      </g>
     </g>
    </g>
    <g id="text_25">
     <g id="patch_27">
      <path d="M 34.8768 554.329483 
L 34.8768 506.379483 
L 11.247425 506.379483 
L 11.247425 554.329483 
z
" style="fill: #ffff00; opacity: 0.2; stroke: #eeeeee; stroke-width: 0.5; stroke-linejoin: miter"/>
     </g>
     <!-- FOUT -->
     <g transform="translate(26.925238 549.289483) rotate(-90) scale(0.14 -0.14)">
      <use xlink:href="#DejaVuSans-46"/>
      <use xlink:href="#DejaVuSans-4f" x="57.519531"/>
      <use xlink:href="#DejaVuSans-55" x="136.230469"/>
      <use xlink:href="#DejaVuSans-54" x="209.423828"/>
     </g>
    </g>
   </g>
   <g id="line2d_91">
    <path d="M 141.12 488.393815 
L 173.472768 488.400594 
L 173.505024 488.204013 
L 173.569536 526.657394 
L 173.69856 572.504953 
L 173.730816 572.369108 
L 173.827584 567.828617 
L 173.892096 569.351799 
L 174.053376 570.057126 
L 174.117888 569.939259 
L 174.408192 569.483332 
L 174.440448 569.532932 
L 174.66624 569.721921 
L 176.182272 569.732147 
L 180.085248 569.753796 
L 193.568256 569.74419 
L 212.8896 569.73602 
L 255.30624 569.735711 
L 255.6288 488.285357 
L 255.854592 488.427709 
L 256.209408 488.387037 
L 334.849536 488.339586 
L 334.881792 488.915773 
L 335.043072 571.95222 
L 335.13984 568.947573 
L 335.172096 568.477201 
L 335.204352 569.103232 
L 335.268864 570.355246 
L 335.333376 569.721316 
L 335.62368 569.736214 
L 402.23232 569.810329 
L 402.264576 569.85357 
L 402.296832 569.746604 
L 402.361344 556.501183 
L 402.587136 488.583618 
L 402.748416 488.400594 
L 403.296768 488.393815 
L 415.489536 488.400594 
L 415.554048 493.416813 
L 415.715328 569.751343 
L 415.747584 569.729531 
L 416.42496 569.736209 
L 497.032704 569.845761 
L 497.097216 553.643972 
L 497.258496 489.349608 
L 497.38752 488.400594 
L 947.52 488.393815 
L 947.52 488.393815 
" clip-path="url(#p27ddecd21f)" style="fill: none; stroke: #ff00ff; stroke-width: 2; stroke-linecap: square"/>
   </g>
   <g id="patch_28">
    <path d="M 100.8 576.72 
L 100.8 483.988966 
" style="fill: none; stroke: #bcbcbc; stroke-width: 0.8; stroke-linejoin: miter; stroke-linecap: square"/>
   </g>
   <g id="patch_29">
    <path d="M 987.84 576.72 
L 987.84 483.988966 
" style="fill: none; stroke: #bcbcbc; stroke-width: 0.8; stroke-linejoin: miter; stroke-linecap: square"/>
   </g>
   <g id="patch_30">
    <path d="M 100.8 576.72 
L 987.84 576.72 
" style="fill: none; stroke: #bcbcbc; stroke-width: 0.8; stroke-linejoin: miter; stroke-linecap: square"/>
   </g>
   <g id="patch_31">
    <path d="M 100.8 483.988966 
L 987.84 483.988966 
" style="fill: none; stroke: #bcbcbc; stroke-width: 0.8; stroke-linejoin: miter; stroke-linecap: square"/>
   </g>
  </g>
  <g id="axes_6">
   <g id="patch_32">
    <path d="M 201.6 628.56 
L 856.8 628.56 
L 856.8 615.6 
L 201.6 615.6 
z
" clip-path="url(#p55bf618896)" style="fill: #d3d3d3"/>
   </g>
   <g id="patch_33">
    <path d="M 201.6 628.56 
L 421.56 628.56 
L 421.56 615.6 
L 201.6 615.6 
z
" clip-path="url(#p55bf618896)" style="fill: #0000ff"/>
   </g>
   <g id="line2d_92">
    <path d="M 201.6 635.04 
L 201.6 609.12 
" clip-path="url(#p55fae2e3aa)" style="fill: none; stroke: #ff0000; stroke-linecap: square"/>
   </g>
   <g id="line2d_93">
    <defs>
     <path id="mb935f6d3aa" d="M 0 5 
C 1.326016 5 2.597899 4.473168 3.535534 3.535534 
C 4.473168 2.597899 5 1.326016 5 0 
C 5 -1.326016 4.473168 -2.597899 3.535534 -3.535534 
C 2.597899 -4.473168 1.326016 -5 0 -5 
C -1.326016 -5 -2.597899 -4.473168 -3.535534 -3.535534 
C -4.473168 -2.597899 -5 -1.326016 -5 0 
C -5 1.326016 -4.473168 2.597899 -3.535534 3.535534 
C -2.597899 4.473168 -1.326016 5 0 5 
z
" style="stroke: #bfbfbf"/>
    </defs>
    <g>
     <use xlink:href="#mb935f6d3aa" x="421.56" y="622.08" style="fill: #ffffff; stroke: #bfbfbf"/>
    </g>
   </g>
   <g id="text_26">
    <!-- #Sweep -->
    <g transform="translate(138.622875 625.39125) scale(0.12 -0.12)">
     <defs>
      <path id="DejaVuSans-23" d="M 3272 2816 
L 2363 2816 
L 2100 1772 
L 3016 1772 
L 3272 2816 
z
M 2803 4594 
L 2478 3297 
L 3391 3297 
L 3719 4594 
L 4219 4594 
L 3897 3297 
L 4872 3297 
L 4872 2816 
L 3775 2816 
L 3519 1772 
L 4513 1772 
L 4513 1294 
L 3397 1294 
L 3072 0 
L 2572 0 
L 2894 1294 
L 1978 1294 
L 1656 0 
L 1153 0 
L 1478 1294 
L 494 1294 
L 494 1772 
L 1594 1772 
L 1856 2816 
L 850 2816 
L 850 3297 
L 1978 3297 
L 2297 4594 
L 2803 4594 
z
" transform="scale(0.015625)"/>
      <path id="DejaVuSans-77" d="M 269 3500 
L 844 3500 
L 1563 769 
L 2278 3500 
L 2956 3500 
L 3675 769 
L 4391 3500 
L 4966 3500 
L 4050 0 
L 3372 0 
L 2619 2869 
L 1863 0 
L 1184 0 
L 269 3500 
z
" transform="scale(0.015625)"/>
      <path id="DejaVuSans-70" d="M 1159 525 
L 1159 -1331 
L 581 -1331 
L 581 3500 
L 1159 3500 
L 1159 2969 
Q 1341 3281 1617 3432 
Q 1894 3584 2278 3584 
Q 2916 3584 3314 3078 
Q 3713 2572 3713 1747 
Q 3713 922 3314 415 
Q 2916 -91 2278 -91 
Q 1894 -91 1617 61 
Q 1341 213 1159 525 
z
M 3116 1747 
Q 3116 2381 2855 2742 
Q 2594 3103 2138 3103 
Q 1681 3103 1420 2742 
Q 1159 2381 1159 1747 
Q 1159 1113 1420 752 
Q 1681 391 2138 391 
Q 2594 391 2855 752 
Q 3116 1113 3116 1747 
z
" transform="scale(0.015625)"/>
     </defs>
     <use xlink:href="#DejaVuSans-23"/>
     <use xlink:href="#DejaVuSans-53" x="83.789062"/>
     <use xlink:href="#DejaVuSans-77" x="147.265625"/>
     <use xlink:href="#DejaVuSans-65" x="229.052734"/>
     <use xlink:href="#DejaVuSans-65" x="290.576172"/>
     <use xlink:href="#DejaVuSans-70" x="352.099609"/>
    </g>
   </g>
   <g id="text_27">
    <!-- $\mathdefault{47}$ -->
    <g transform="translate(869.904 625.39125) scale(0.12 -0.12)">
     <defs>
      <path id="DejaVuSans-34" d="M 2419 4116 
L 825 1625 
L 2419 1625 
L 2419 4116 
z
M 2253 4666 
L 3047 4666 
L 3047 1625 
L 3713 1625 
L 3713 1100 
L 3047 1100 
L 3047 0 
L 2419 0 
L 2419 1100 
L 313 1100 
L 313 1709 
L 2253 4666 
z
" transform="scale(0.015625)"/>
      <path id="DejaVuSans-37" d="M 525 4666 
L 3525 4666 
L 3525 4397 
L 1831 0 
L 1172 0 
L 2766 4134 
L 525 4134 
L 525 4666 
z
" transform="scale(0.015625)"/>
     </defs>
     <use xlink:href="#DejaVuSans-34" transform="translate(0 0.09375)"/>
     <use xlink:href="#DejaVuSans-37" transform="translate(63.623047 0.09375)"/>
    </g>
   </g>
  </g>
  <g id="text_28">
   <!-- DFF under BBI sweep analysis (Sweep = 57E-9) -->
   <g transform="translate(313.34625 25.1175) scale(0.16 -0.16)">
    <defs>
     <path id="DejaVuSans-75" d="M 544 1381 
L 544 3500 
L 1119 3500 
L 1119 1403 
Q 1119 906 1312 657 
Q 1506 409 1894 409 
Q 2359 409 2629 706 
Q 2900 1003 2900 1516 
L 2900 3500 
L 3475 3500 
L 3475 0 
L 2900 0 
L 2900 538 
Q 2691 219 2414 64 
Q 2138 -91 1772 -91 
Q 1169 -91 856 284 
Q 544 659 544 1381 
z
M 1991 3584 
L 1991 3584 
z
" transform="scale(0.015625)"/>
     <path id="DejaVuSans-64" d="M 2906 2969 
L 2906 4863 
L 3481 4863 
L 3481 0 
L 2906 0 
L 2906 525 
Q 2725 213 2448 61 
Q 2172 -91 1784 -91 
Q 1150 -91 751 415 
Q 353 922 353 1747 
Q 353 2572 751 3078 
Q 1150 3584 1784 3584 
Q 2172 3584 2448 3432 
Q 2725 3281 2906 2969 
z
M 947 1747 
Q 947 1113 1208 752 
Q 1469 391 1925 391 
Q 2381 391 2643 752 
Q 2906 1113 2906 1747 
Q 2906 2381 2643 2742 
Q 2381 3103 1925 3103 
Q 1469 3103 1208 2742 
Q 947 2381 947 1747 
z
" transform="scale(0.015625)"/>
     <path id="DejaVuSans-72" d="M 2631 2963 
Q 2534 3019 2420 3045 
Q 2306 3072 2169 3072 
Q 1681 3072 1420 2755 
Q 1159 2438 1159 1844 
L 1159 0 
L 581 0 
L 581 3500 
L 1159 3500 
L 1159 2956 
Q 1341 3275 1631 3429 
Q 1922 3584 2338 3584 
Q 2397 3584 2469 3576 
Q 2541 3569 2628 3553 
L 2631 2963 
z
" transform="scale(0.015625)"/>
     <path id="DejaVuSans-61" d="M 2194 1759 
Q 1497 1759 1228 1600 
Q 959 1441 959 1056 
Q 959 750 1161 570 
Q 1363 391 1709 391 
Q 2188 391 2477 730 
Q 2766 1069 2766 1631 
L 2766 1759 
L 2194 1759 
z
M 3341 1997 
L 3341 0 
L 2766 0 
L 2766 531 
Q 2569 213 2275 61 
Q 1981 -91 1556 -91 
Q 1019 -91 701 211 
Q 384 513 384 1019 
Q 384 1609 779 1909 
Q 1175 2209 1959 2209 
L 2766 2209 
L 2766 2266 
Q 2766 2663 2505 2880 
Q 2244 3097 1772 3097 
Q 1472 3097 1187 3025 
Q 903 2953 641 2809 
L 641 3341 
Q 956 3463 1253 3523 
Q 1550 3584 1831 3584 
Q 2591 3584 2966 3190 
Q 3341 2797 3341 1997 
z
" transform="scale(0.015625)"/>
     <path id="DejaVuSans-6c" d="M 603 4863 
L 1178 4863 
L 1178 0 
L 603 0 
L 603 4863 
z
" transform="scale(0.015625)"/>
     <path id="DejaVuSans-79" d="M 2059 -325 
Q 1816 -950 1584 -1140 
Q 1353 -1331 966 -1331 
L 506 -1331 
L 506 -850 
L 844 -850 
Q 1081 -850 1212 -737 
Q 1344 -625 1503 -206 
L 1606 56 
L 191 3500 
L 800 3500 
L 1894 763 
L 2988 3500 
L 3597 3500 
L 2059 -325 
z
" transform="scale(0.015625)"/>
     <path id="DejaVuSans-28" d="M 1984 4856 
Q 1566 4138 1362 3434 
Q 1159 2731 1159 2009 
Q 1159 1288 1364 580 
Q 1569 -128 1984 -844 
L 1484 -844 
Q 1016 -109 783 600 
Q 550 1309 550 2009 
Q 550 2706 781 3412 
Q 1013 4119 1484 4856 
L 1984 4856 
z
" transform="scale(0.015625)"/>
     <path id="DejaVuSans-3d" d="M 678 2906 
L 4684 2906 
L 4684 2381 
L 678 2381 
L 678 2906 
z
M 678 1631 
L 4684 1631 
L 4684 1100 
L 678 1100 
L 678 1631 
z
" transform="scale(0.015625)"/>
     <path id="DejaVuSans-2d" d="M 313 2009 
L 1997 2009 
L 1997 1497 
L 313 1497 
L 313 2009 
z
" transform="scale(0.015625)"/>
     <path id="DejaVuSans-39" d="M 703 97 
L 703 672 
Q 941 559 1184 500 
Q 1428 441 1663 441 
Q 2288 441 2617 861 
Q 2947 1281 2994 2138 
Q 2813 1869 2534 1725 
Q 2256 1581 1919 1581 
Q 1219 1581 811 2004 
Q 403 2428 403 3163 
Q 403 3881 828 4315 
Q 1253 4750 1959 4750 
Q 2769 4750 3195 4129 
Q 3622 3509 3622 2328 
Q 3622 1225 3098 567 
Q 2575 -91 1691 -91 
Q 1453 -91 1209 -44 
Q 966 3 703 97 
z
M 1959 2075 
Q 2384 2075 2632 2365 
Q 2881 2656 2881 3163 
Q 2881 3666 2632 3958 
Q 2384 4250 1959 4250 
Q 1534 4250 1286 3958 
Q 1038 3666 1038 3163 
Q 1038 2656 1286 2365 
Q 1534 2075 1959 2075 
z
" transform="scale(0.015625)"/>
     <path id="DejaVuSans-29" d="M 513 4856 
L 1013 4856 
Q 1481 4119 1714 3412 
Q 1947 2706 1947 2009 
Q 1947 1309 1714 600 
Q 1481 -109 1013 -844 
L 513 -844 
Q 928 -128 1133 580 
Q 1338 1288 1338 2009 
Q 1338 2731 1133 3434 
Q 928 4138 513 4856 
z
" transform="scale(0.015625)"/>
    </defs>
    <use xlink:href="#DejaVuSans-44"/>
    <use xlink:href="#DejaVuSans-46" x="77.001953"/>
    <use xlink:href="#DejaVuSans-46" x="134.521484"/>
    <use xlink:href="#DejaVuSans-20" x="192.041016"/>
    <use xlink:href="#DejaVuSans-75" x="223.828125"/>
    <use xlink:href="#DejaVuSans-6e" x="287.207031"/>
    <use xlink:href="#DejaVuSans-64" x="350.585938"/>
    <use xlink:href="#DejaVuSans-65" x="414.0625"/>
    <use xlink:href="#DejaVuSans-72" x="475.585938"/>
    <use xlink:href="#DejaVuSans-20" x="516.699219"/>
    <use xlink:href="#DejaVuSans-42" x="548.486328"/>
    <use xlink:href="#DejaVuSans-42" x="617.089844"/>
    <use xlink:href="#DejaVuSans-49" x="685.693359"/>
    <use xlink:href="#DejaVuSans-20" x="715.185547"/>
    <use xlink:href="#DejaVuSans-73" x="746.972656"/>
    <use xlink:href="#DejaVuSans-77" x="799.072266"/>
    <use xlink:href="#DejaVuSans-65" x="880.859375"/>
    <use xlink:href="#DejaVuSans-65" x="942.382812"/>
    <use xlink:href="#DejaVuSans-70" x="1003.90625"/>
    <use xlink:href="#DejaVuSans-20" x="1067.382812"/>
    <use xlink:href="#DejaVuSans-61" x="1099.169922"/>
    <use xlink:href="#DejaVuSans-6e" x="1160.449219"/>
    <use xlink:href="#DejaVuSans-61" x="1223.828125"/>
    <use xlink:href="#DejaVuSans-6c" x="1285.107422"/>
    <use xlink:href="#DejaVuSans-79" x="1312.890625"/>
    <use xlink:href="#DejaVuSans-73" x="1372.070312"/>
    <use xlink:href="#DejaVuSans-69" x="1424.169922"/>
    <use xlink:href="#DejaVuSans-73" x="1451.953125"/>
    <use xlink:href="#DejaVuSans-20" x="1504.052734"/>
    <use xlink:href="#DejaVuSans-28" x="1535.839844"/>
    <use xlink:href="#DejaVuSans-53" x="1574.853516"/>
    <use xlink:href="#DejaVuSans-77" x="1638.330078"/>
    <use xlink:href="#DejaVuSans-65" x="1720.117188"/>
    <use xlink:href="#DejaVuSans-65" x="1781.640625"/>
    <use xlink:href="#DejaVuSans-70" x="1843.164062"/>
    <use xlink:href="#DejaVuSans-20" x="1906.640625"/>
    <use xlink:href="#DejaVuSans-3d" x="1938.427734"/>
    <use xlink:href="#DejaVuSans-20" x="2022.216797"/>
    <use xlink:href="#DejaVuSans-35" x="2054.003906"/>
    <use xlink:href="#DejaVuSans-37" x="2117.626953"/>
    <use xlink:href="#DejaVuSans-45" x="2181.25"/>
    <use xlink:href="#DejaVuSans-2d" x="2244.433594"/>
    <use xlink:href="#DejaVuSans-39" x="2280.517578"/>
    <use xlink:href="#DejaVuSans-29" x="2344.140625"/>
   </g>
  </g>
 </g>
 <defs>
  <clipPath id="p9a084a61a2">
   <rect x="100.8" y="38.88" width="887.04" height="92.731034"/>
  </clipPath>
  <clipPath id="pc22e7b7df4">
   <rect x="100.8" y="150.157241" width="887.04" height="92.731034"/>
  </clipPath>
  <clipPath id="p05c58eb628">
   <rect x="100.8" y="261.434483" width="887.04" height="92.731034"/>
  </clipPath>
  <clipPath id="p8228fffd88">
   <rect x="100.8" y="372.711724" width="887.04" height="92.731034"/>
  </clipPath>
  <clipPath id="p27ddecd21f">
   <rect x="100.8" y="483.988966" width="887.04" height="92.731034"/>
  </clipPath>
  <clipPath id="p55bf618896">
   <rect x="201.6" y="609.12" width="655.2" height="25.92"/>
  </clipPath>
  <clipPath id="p55fae2e3aa">
   <path d="M 201.6 628.56 
L 856.8 628.56 
L 856.8 615.6 
L 201.6 615.6 
z
"/>
  </clipPath>
 </defs>
</svg>
