<?xml version="1.0" encoding="utf-8" standalone="no"?>
<!DOCTYPE svg PUBLIC "-//W3C//DTD SVG 1.1//EN"
  "http://www.w3.org/Graphics/SVG/1.1/DTD/svg11.dtd">
<svg xmlns:xlink="http://www.w3.org/1999/xlink" width="1008pt" height="648pt" viewBox="0 0 1008 648" xmlns="http://www.w3.org/2000/svg" version="1.1">
 <metadata>
  <rdf:RDF xmlns:dc="http://purl.org/dc/elements/1.1/" xmlns:cc="http://creativecommons.org/ns#" xmlns:rdf="http://www.w3.org/1999/02/22-rdf-syntax-ns#">
   <cc:Work>
    <dc:type rdf:resource="http://purl.org/dc/dcmitype/StillImage"/>
    <dc:date>2024-06-03T10:45:29.399745</dc:date>
    <dc:format>image/svg+xml</dc:format>
    <dc:creator>
     <cc:Agent>
      <dc:title>Matplotlib v3.9.0, https://matplotlib.org/</dc:title>
     </cc:Agent>
    </dc:creator>
   </cc:Work>
  </rdf:RDF>
 </metadata>
 <defs>
  <style type="text/css">*{stroke-linejoin: round; stroke-linecap: butt}</style>
 </defs>
 <g id="figure_1">
  <g id="patch_1">
   <path d="M 0 648 
L 1008 648 
L 1008 0 
L 0 0 
z
" style="fill: #ffffff"/>
  </g>
  <g id="axes_1">
   <g id="patch_2">
    <path d="M 100.8 131.611034 
L 987.84 131.611034 
L 987.84 38.88 
L 100.8 38.88 
z
" style="fill: #eeeeee"/>
   </g>
   <g id="matplotlib.axis_1">
    <g id="xtick_1">
     <g id="line2d_1">
      <path d="M 141.12 131.611034 
L 141.12 38.88 
" clip-path="url(#p9b9cd0a42d)" style="fill: none; stroke-dasharray: 1.85,0.8; stroke-dashoffset: 0; stroke: #b2b2b2; stroke-width: 0.5"/>
     </g>
     <g id="line2d_2">
      <defs>
       <path id="mdae3330cff" d="M 0 0 
L 0 -3.5 
" style="stroke: #000000; stroke-width: 0.8"/>
      </defs>
      <g>
       <use xlink:href="#mdae3330cff" x="141.12" y="131.611034" style="stroke: #000000; stroke-width: 0.8"/>
      </g>
     </g>
    </g>
    <g id="xtick_2">
     <g id="line2d_3">
      <path d="M 302.4 131.611034 
L 302.4 38.88 
" clip-path="url(#p9b9cd0a42d)" style="fill: none; stroke-dasharray: 1.85,0.8; stroke-dashoffset: 0; stroke: #b2b2b2; stroke-width: 0.5"/>
     </g>
     <g id="line2d_4">
      <g>
       <use xlink:href="#mdae3330cff" x="302.4" y="131.611034" style="stroke: #000000; stroke-width: 0.8"/>
      </g>
     </g>
    </g>
    <g id="xtick_3">
     <g id="line2d_5">
      <path d="M 463.68 131.611034 
L 463.68 38.88 
" clip-path="url(#p9b9cd0a42d)" style="fill: none; stroke-dasharray: 1.85,0.8; stroke-dashoffset: 0; stroke: #b2b2b2; stroke-width: 0.5"/>
     </g>
     <g id="line2d_6">
      <g>
       <use xlink:href="#mdae3330cff" x="463.68" y="131.611034" style="stroke: #000000; stroke-width: 0.8"/>
      </g>
     </g>
    </g>
    <g id="xtick_4">
     <g id="line2d_7">
      <path d="M 624.96 131.611034 
L 624.96 38.88 
" clip-path="url(#p9b9cd0a42d)" style="fill: none; stroke-dasharray: 1.85,0.8; stroke-dashoffset: 0; stroke: #b2b2b2; stroke-width: 0.5"/>
     </g>
     <g id="line2d_8">
      <g>
       <use xlink:href="#mdae3330cff" x="624.96" y="131.611034" style="stroke: #000000; stroke-width: 0.8"/>
      </g>
     </g>
    </g>
    <g id="xtick_5">
     <g id="line2d_9">
      <path d="M 786.24 131.611034 
L 786.24 38.88 
" clip-path="url(#p9b9cd0a42d)" style="fill: none; stroke-dasharray: 1.85,0.8; stroke-dashoffset: 0; stroke: #b2b2b2; stroke-width: 0.5"/>
     </g>
     <g id="line2d_10">
      <g>
       <use xlink:href="#mdae3330cff" x="786.24" y="131.611034" style="stroke: #000000; stroke-width: 0.8"/>
      </g>
     </g>
    </g>
    <g id="xtick_6">
     <g id="line2d_11">
      <path d="M 947.52 131.611034 
L 947.52 38.88 
" clip-path="url(#p9b9cd0a42d)" style="fill: none; stroke-dasharray: 1.85,0.8; stroke-dashoffset: 0; stroke: #b2b2b2; stroke-width: 0.5"/>
     </g>
     <g id="line2d_12">
      <g>
       <use xlink:href="#mdae3330cff" x="947.52" y="131.611034" style="stroke: #000000; stroke-width: 0.8"/>
      </g>
     </g>
    </g>
   </g>
   <g id="matplotlib.axis_2">
    <g id="ytick_1">
     <g id="line2d_13">
      <path d="M 100.8 98.340394 
L 987.84 98.340394 
" clip-path="url(#p9b9cd0a42d)" style="fill: none; stroke-dasharray: 1.85,0.8; stroke-dashoffset: 0; stroke: #b2b2b2; stroke-width: 0.5"/>
     </g>
     <g id="line2d_14">
      <defs>
       <path id="m3c227c8394" d="M 0 0 
L 3.5 0 
" style="stroke: #000000; stroke-width: 0.8"/>
      </defs>
      <g>
       <use xlink:href="#m3c227c8394" x="100.8" y="98.340394" style="stroke: #000000; stroke-width: 0.8"/>
      </g>
     </g>
     <g id="text_1">
      <!-- −200 V -->
      <g transform="translate(44.819688 103.6593) scale(0.14 -0.14)">
       <defs>
        <path id="DejaVuSans-2212" d="M 678 2272 
L 4684 2272 
L 4684 1741 
L 678 1741 
L 678 2272 
z
" transform="scale(0.015625)"/>
        <path id="DejaVuSans-32" d="M 1228 531 
L 3431 531 
L 3431 0 
L 469 0 
L 469 531 
Q 828 903 1448 1529 
Q 2069 2156 2228 2338 
Q 2531 2678 2651 2914 
Q 2772 3150 2772 3378 
Q 2772 3750 2511 3984 
Q 2250 4219 1831 4219 
Q 1534 4219 1204 4116 
Q 875 4013 500 3803 
L 500 4441 
Q 881 4594 1212 4672 
Q 1544 4750 1819 4750 
Q 2544 4750 2975 4387 
Q 3406 4025 3406 3419 
Q 3406 3131 3298 2873 
Q 3191 2616 2906 2266 
Q 2828 2175 2409 1742 
Q 1991 1309 1228 531 
z
" transform="scale(0.015625)"/>
        <path id="DejaVuSans-30" d="M 2034 4250 
Q 1547 4250 1301 3770 
Q 1056 3291 1056 2328 
Q 1056 1369 1301 889 
Q 1547 409 2034 409 
Q 2525 409 2770 889 
Q 3016 1369 3016 2328 
Q 3016 3291 2770 3770 
Q 2525 4250 2034 4250 
z
M 2034 4750 
Q 2819 4750 3233 4129 
Q 3647 3509 3647 2328 
Q 3647 1150 3233 529 
Q 2819 -91 2034 -91 
Q 1250 -91 836 529 
Q 422 1150 422 2328 
Q 422 3509 836 4129 
Q 1250 4750 2034 4750 
z
" transform="scale(0.015625)"/>
        <path id="DejaVuSans-20" transform="scale(0.015625)"/>
        <path id="DejaVuSans-56" d="M 1831 0 
L 50 4666 
L 709 4666 
L 2188 738 
L 3669 4666 
L 4325 4666 
L 2547 0 
L 1831 0 
z
" transform="scale(0.015625)"/>
       </defs>
       <use xlink:href="#DejaVuSans-2212"/>
       <use xlink:href="#DejaVuSans-32" x="83.789062"/>
       <use xlink:href="#DejaVuSans-30" x="147.412109"/>
       <use xlink:href="#DejaVuSans-30" x="211.035156"/>
       <use xlink:href="#DejaVuSans-20" x="274.658203"/>
       <use xlink:href="#DejaVuSans-56" x="306.445312"/>
      </g>
     </g>
    </g>
    <g id="ytick_2">
     <g id="line2d_15">
      <path d="M 100.8 45.027377 
L 987.84 45.027377 
" clip-path="url(#p9b9cd0a42d)" style="fill: none; stroke-dasharray: 1.85,0.8; stroke-dashoffset: 0; stroke: #b2b2b2; stroke-width: 0.5"/>
     </g>
     <g id="line2d_16">
      <g>
       <use xlink:href="#m3c227c8394" x="100.8" y="45.027377" style="stroke: #000000; stroke-width: 0.8"/>
      </g>
     </g>
     <g id="text_2">
      <!-- 0 V -->
      <g transform="translate(74.36625 50.346284) scale(0.14 -0.14)">
       <use xlink:href="#DejaVuSans-30"/>
       <use xlink:href="#DejaVuSans-20" x="63.623047"/>
       <use xlink:href="#DejaVuSans-56" x="95.410156"/>
      </g>
     </g>
    </g>
    <g id="text_3">
     <g id="patch_3">
      <path d="M 34.8768 131.080205 
L 34.8768 39.41083 
L 11.247425 39.41083 
L 11.247425 131.080205 
z
" style="fill: #ffff00; opacity: 0.2; stroke: #eeeeee; stroke-width: 0.5; stroke-linejoin: miter"/>
     </g>
     <!-- VPULSE BBI -->
     <g transform="translate(26.925238 126.040205) rotate(-90) scale(0.14 -0.14)">
      <defs>
       <path id="DejaVuSans-50" d="M 1259 4147 
L 1259 2394 
L 2053 2394 
Q 2494 2394 2734 2622 
Q 2975 2850 2975 3272 
Q 2975 3691 2734 3919 
Q 2494 4147 2053 4147 
L 1259 4147 
z
M 628 4666 
L 2053 4666 
Q 2838 4666 3239 4311 
Q 3641 3956 3641 3272 
Q 3641 2581 3239 2228 
Q 2838 1875 2053 1875 
L 1259 1875 
L 1259 0 
L 628 0 
L 628 4666 
z
" transform="scale(0.015625)"/>
       <path id="DejaVuSans-55" d="M 556 4666 
L 1191 4666 
L 1191 1831 
Q 1191 1081 1462 751 
Q 1734 422 2344 422 
Q 2950 422 3222 751 
Q 3494 1081 3494 1831 
L 3494 4666 
L 4128 4666 
L 4128 1753 
Q 4128 841 3676 375 
Q 3225 -91 2344 -91 
Q 1459 -91 1007 375 
Q 556 841 556 1753 
L 556 4666 
z
" transform="scale(0.015625)"/>
       <path id="DejaVuSans-4c" d="M 628 4666 
L 1259 4666 
L 1259 531 
L 3531 531 
L 3531 0 
L 628 0 
L 628 4666 
z
" transform="scale(0.015625)"/>
       <path id="DejaVuSans-53" d="M 3425 4513 
L 3425 3897 
Q 3066 4069 2747 4153 
Q 2428 4238 2131 4238 
Q 1616 4238 1336 4038 
Q 1056 3838 1056 3469 
Q 1056 3159 1242 3001 
Q 1428 2844 1947 2747 
L 2328 2669 
Q 3034 2534 3370 2195 
Q 3706 1856 3706 1288 
Q 3706 609 3251 259 
Q 2797 -91 1919 -91 
Q 1588 -91 1214 -16 
Q 841 59 441 206 
L 441 856 
Q 825 641 1194 531 
Q 1563 422 1919 422 
Q 2459 422 2753 634 
Q 3047 847 3047 1241 
Q 3047 1584 2836 1778 
Q 2625 1972 2144 2069 
L 1759 2144 
Q 1053 2284 737 2584 
Q 422 2884 422 3419 
Q 422 4038 858 4394 
Q 1294 4750 2059 4750 
Q 2388 4750 2728 4690 
Q 3069 4631 3425 4513 
z
" transform="scale(0.015625)"/>
       <path id="DejaVuSans-45" d="M 628 4666 
L 3578 4666 
L 3578 4134 
L 1259 4134 
L 1259 2753 
L 3481 2753 
L 3481 2222 
L 1259 2222 
L 1259 531 
L 3634 531 
L 3634 0 
L 628 0 
L 628 4666 
z
" transform="scale(0.015625)"/>
       <path id="DejaVuSans-42" d="M 1259 2228 
L 1259 519 
L 2272 519 
Q 2781 519 3026 730 
Q 3272 941 3272 1375 
Q 3272 1813 3026 2020 
Q 2781 2228 2272 2228 
L 1259 2228 
z
M 1259 4147 
L 1259 2741 
L 2194 2741 
Q 2656 2741 2882 2914 
Q 3109 3088 3109 3444 
Q 3109 3797 2882 3972 
Q 2656 4147 2194 4147 
L 1259 4147 
z
M 628 4666 
L 2241 4666 
Q 2963 4666 3353 4366 
Q 3744 4066 3744 3513 
Q 3744 3084 3544 2831 
Q 3344 2578 2956 2516 
Q 3422 2416 3680 2098 
Q 3938 1781 3938 1306 
Q 3938 681 3513 340 
Q 3088 0 2303 0 
L 628 0 
L 628 4666 
z
" transform="scale(0.015625)"/>
       <path id="DejaVuSans-49" d="M 628 4666 
L 1259 4666 
L 1259 0 
L 628 0 
L 628 4666 
z
" transform="scale(0.015625)"/>
      </defs>
      <use xlink:href="#DejaVuSans-56"/>
      <use xlink:href="#DejaVuSans-50" x="68.408203"/>
      <use xlink:href="#DejaVuSans-55" x="128.710938"/>
      <use xlink:href="#DejaVuSans-4c" x="201.904297"/>
      <use xlink:href="#DejaVuSans-53" x="257.617188"/>
      <use xlink:href="#DejaVuSans-45" x="321.09375"/>
      <use xlink:href="#DejaVuSans-20" x="384.277344"/>
      <use xlink:href="#DejaVuSans-42" x="416.064453"/>
      <use xlink:href="#DejaVuSans-42" x="484.667969"/>
      <use xlink:href="#DejaVuSans-49" x="553.271484"/>
     </g>
    </g>
   </g>
   <g id="line2d_17">
    <path d="M 141.12 45.027377 
L 199.213056 45.136282 
L 199.696896 46.425538 
L 207.922176 69.006772 
L 215.341056 89.863624 
L 216.953856 94.440546 
L 218.760192 99.673219 
L 222.24384 110.807642 
L 223.824384 115.851054 
L 225.082368 119.566971 
L 226.308096 120.153414 
L 227.146752 120.545265 
L 228.178944 121.017085 
L 228.759552 121.272988 
L 229.630464 121.656841 
L 230.211072 121.912744 
L 231.049728 122.269941 
L 232.630272 122.936354 
L 233.275392 123.202919 
L 234.372096 123.629423 
L 235.113984 123.922644 
L 236.210688 124.349149 
L 237.113856 124.677024 
L 237.791232 124.943589 
L 238.597632 125.25547 
L 239.952384 125.804594 
L 242.597376 126.790885 
L 243.21024 127.022796 
L 245.1456 127.395987 
L 263.628288 127.289361 
L 263.85408 126.801547 
L 282.143232 75.087922 
L 285.884928 63.292417 
L 289.594368 51.617666 
L 294.206976 49.3412 
L 299.561472 46.984578 
L 308.270592 43.484472 
L 309.141504 43.268927 
L 323.430912 43.108189 
L 330.236928 43.184799 
L 345.590784 43.746186 
L 373.3632 44.46146 
L 399.00672 44.774399 
L 434.617344 44.945888 
L 482.646528 44.953885 
L 947.52 44.953885 
L 947.52 44.953885 
" clip-path="url(#p9b9cd0a42d)" style="fill: none; stroke: #ff0000; stroke-width: 2; stroke-linecap: square"/>
   </g>
   <g id="patch_4">
    <path d="M 100.8 131.611034 
L 100.8 38.88 
" style="fill: none; stroke: #bcbcbc; stroke-width: 0.8; stroke-linejoin: miter; stroke-linecap: square"/>
   </g>
   <g id="patch_5">
    <path d="M 987.84 131.611034 
L 987.84 38.88 
" style="fill: none; stroke: #bcbcbc; stroke-width: 0.8; stroke-linejoin: miter; stroke-linecap: square"/>
   </g>
   <g id="patch_6">
    <path d="M 100.8 131.611034 
L 987.84 131.611034 
" style="fill: none; stroke: #bcbcbc; stroke-width: 0.8; stroke-linejoin: miter; stroke-linecap: square"/>
   </g>
   <g id="patch_7">
    <path d="M 100.8 38.88 
L 987.84 38.88 
" style="fill: none; stroke: #bcbcbc; stroke-width: 0.8; stroke-linejoin: miter; stroke-linecap: square"/>
   </g>
  </g>
  <g id="axes_2">
   <g id="patch_8">
    <path d="M 100.8 242.888276 
L 987.84 242.888276 
L 987.84 150.157241 
L 100.8 150.157241 
z
" style="fill: #eeeeee"/>
   </g>
   <g id="matplotlib.axis_3">
    <g id="xtick_7">
     <g id="line2d_18">
      <path d="M 141.12 242.888276 
L 141.12 150.157241 
" clip-path="url(#p3af7ede1c3)" style="fill: none; stroke-dasharray: 1.85,0.8; stroke-dashoffset: 0; stroke: #b2b2b2; stroke-width: 0.5"/>
     </g>
     <g id="line2d_19">
      <g>
       <use xlink:href="#mdae3330cff" x="141.12" y="242.888276" style="stroke: #000000; stroke-width: 0.8"/>
      </g>
     </g>
    </g>
    <g id="xtick_8">
     <g id="line2d_20">
      <path d="M 302.4 242.888276 
L 302.4 150.157241 
" clip-path="url(#p3af7ede1c3)" style="fill: none; stroke-dasharray: 1.85,0.8; stroke-dashoffset: 0; stroke: #b2b2b2; stroke-width: 0.5"/>
     </g>
     <g id="line2d_21">
      <g>
       <use xlink:href="#mdae3330cff" x="302.4" y="242.888276" style="stroke: #000000; stroke-width: 0.8"/>
      </g>
     </g>
    </g>
    <g id="xtick_9">
     <g id="line2d_22">
      <path d="M 463.68 242.888276 
L 463.68 150.157241 
" clip-path="url(#p3af7ede1c3)" style="fill: none; stroke-dasharray: 1.85,0.8; stroke-dashoffset: 0; stroke: #b2b2b2; stroke-width: 0.5"/>
     </g>
     <g id="line2d_23">
      <g>
       <use xlink:href="#mdae3330cff" x="463.68" y="242.888276" style="stroke: #000000; stroke-width: 0.8"/>
      </g>
     </g>
    </g>
    <g id="xtick_10">
     <g id="line2d_24">
      <path d="M 624.96 242.888276 
L 624.96 150.157241 
" clip-path="url(#p3af7ede1c3)" style="fill: none; stroke-dasharray: 1.85,0.8; stroke-dashoffset: 0; stroke: #b2b2b2; stroke-width: 0.5"/>
     </g>
     <g id="line2d_25">
      <g>
       <use xlink:href="#mdae3330cff" x="624.96" y="242.888276" style="stroke: #000000; stroke-width: 0.8"/>
      </g>
     </g>
    </g>
    <g id="xtick_11">
     <g id="line2d_26">
      <path d="M 786.24 242.888276 
L 786.24 150.157241 
" clip-path="url(#p3af7ede1c3)" style="fill: none; stroke-dasharray: 1.85,0.8; stroke-dashoffset: 0; stroke: #b2b2b2; stroke-width: 0.5"/>
     </g>
     <g id="line2d_27">
      <g>
       <use xlink:href="#mdae3330cff" x="786.24" y="242.888276" style="stroke: #000000; stroke-width: 0.8"/>
      </g>
     </g>
    </g>
    <g id="xtick_12">
     <g id="line2d_28">
      <path d="M 947.52 242.888276 
L 947.52 150.157241 
" clip-path="url(#p3af7ede1c3)" style="fill: none; stroke-dasharray: 1.85,0.8; stroke-dashoffset: 0; stroke: #b2b2b2; stroke-width: 0.5"/>
     </g>
     <g id="line2d_29">
      <g>
       <use xlink:href="#mdae3330cff" x="947.52" y="242.888276" style="stroke: #000000; stroke-width: 0.8"/>
      </g>
     </g>
    </g>
   </g>
   <g id="matplotlib.axis_4">
    <g id="ytick_3">
     <g id="line2d_30">
      <path d="M 100.8 213.16154 
L 987.84 213.16154 
" clip-path="url(#p3af7ede1c3)" style="fill: none; stroke-dasharray: 1.85,0.8; stroke-dashoffset: 0; stroke: #b2b2b2; stroke-width: 0.5"/>
     </g>
     <g id="line2d_31">
      <g>
       <use xlink:href="#m3c227c8394" x="100.8" y="213.16154" style="stroke: #000000; stroke-width: 0.8"/>
      </g>
     </g>
     <g id="text_4">
      <!-- 0 V -->
      <g transform="translate(74.36625 218.480446) scale(0.14 -0.14)">
       <use xlink:href="#DejaVuSans-30"/>
       <use xlink:href="#DejaVuSans-20" x="63.623047"/>
       <use xlink:href="#DejaVuSans-56" x="95.410156"/>
      </g>
     </g>
    </g>
    <g id="ytick_4">
     <g id="line2d_32">
      <path d="M 100.8 168.835783 
L 987.84 168.835783 
" clip-path="url(#p3af7ede1c3)" style="fill: none; stroke-dasharray: 1.85,0.8; stroke-dashoffset: 0; stroke: #b2b2b2; stroke-width: 0.5"/>
     </g>
     <g id="line2d_33">
      <g>
       <use xlink:href="#m3c227c8394" x="100.8" y="168.835783" style="stroke: #000000; stroke-width: 0.8"/>
      </g>
     </g>
     <g id="text_5">
      <!-- 1 V -->
      <g transform="translate(74.36625 174.154689) scale(0.14 -0.14)">
       <defs>
        <path id="DejaVuSans-31" d="M 794 531 
L 1825 531 
L 1825 4091 
L 703 3866 
L 703 4441 
L 1819 4666 
L 2450 4666 
L 2450 531 
L 3481 531 
L 3481 0 
L 794 0 
L 794 531 
z
" transform="scale(0.015625)"/>
       </defs>
       <use xlink:href="#DejaVuSans-31"/>
       <use xlink:href="#DejaVuSans-20" x="63.623047"/>
       <use xlink:href="#DejaVuSans-56" x="95.410156"/>
      </g>
     </g>
    </g>
    <g id="text_6">
     <g id="patch_9">
      <path d="M 34.8768 224.531509 
L 34.8768 168.514009 
L 11.247425 168.514009 
L 11.247425 224.531509 
z
" style="fill: #ffff00; opacity: 0.2; stroke: #eeeeee; stroke-width: 0.5; stroke-linejoin: miter"/>
     </g>
     <!-- DFF IN -->
     <g transform="translate(26.925238 219.491509) rotate(-90) scale(0.14 -0.14)">
      <defs>
       <path id="DejaVuSans-44" d="M 1259 4147 
L 1259 519 
L 2022 519 
Q 2988 519 3436 956 
Q 3884 1394 3884 2338 
Q 3884 3275 3436 3711 
Q 2988 4147 2022 4147 
L 1259 4147 
z
M 628 4666 
L 1925 4666 
Q 3281 4666 3915 4102 
Q 4550 3538 4550 2338 
Q 4550 1131 3912 565 
Q 3275 0 1925 0 
L 628 0 
L 628 4666 
z
" transform="scale(0.015625)"/>
       <path id="DejaVuSans-46" d="M 628 4666 
L 3309 4666 
L 3309 4134 
L 1259 4134 
L 1259 2759 
L 3109 2759 
L 3109 2228 
L 1259 2228 
L 1259 0 
L 628 0 
L 628 4666 
z
" transform="scale(0.015625)"/>
       <path id="DejaVuSans-4e" d="M 628 4666 
L 1478 4666 
L 3547 763 
L 3547 4666 
L 4159 4666 
L 4159 0 
L 3309 0 
L 1241 3903 
L 1241 0 
L 628 0 
L 628 4666 
z
" transform="scale(0.015625)"/>
      </defs>
      <use xlink:href="#DejaVuSans-44"/>
      <use xlink:href="#DejaVuSans-46" x="77.001953"/>
      <use xlink:href="#DejaVuSans-46" x="134.521484"/>
      <use xlink:href="#DejaVuSans-20" x="192.041016"/>
      <use xlink:href="#DejaVuSans-49" x="223.828125"/>
      <use xlink:href="#DejaVuSans-4e" x="253.320312"/>
     </g>
    </g>
   </g>
   <g id="line2d_34">
    <path d="M 141.12 213.096806 
L 199.245312 213.172556 
L 200.63232 214.935279 
L 201.180672 215.44507 
L 201.825792 215.897813 
L 202.664448 216.306142 
L 203.793408 216.592486 
L 205.373952 216.752945 
L 207.373824 216.9482 
L 208.180224 217.48206 
L 209.922048 218.673004 
L 211.889664 219.961111 
L 214.276608 221.724832 
L 214.728192 221.742563 
L 215.179776 221.595845 
L 215.599104 221.263401 
L 216.147456 220.556406 
L 216.824832 219.748347 
L 217.050624 219.977068 
L 217.437696 220.789559 
L 218.082816 222.07146 
L 218.37312 222.490338 
L 218.631168 223.213291 
L 219.373056 225.598017 
L 219.760128 226.318754 
L 219.856896 226.581606 
L 220.211712 227.735848 
L 220.63104 228.732735 
L 221.340672 230.478283 
L 221.824512 231.618341 
L 222.050304 232.029684 
L 222.276096 232.508403 
L 222.501888 233.028787 
L 222.985728 234.445438 
L 223.437312 235.285855 
L 224.66304 237.994158 
L 224.856576 238.346991 
L 225.050112 238.673229 
L 225.662976 237.913929 
L 227.211264 234.871852 
L 227.824128 233.999964 
L 228.501504 232.598384 
L 228.630528 232.610352 
L 229.791744 231.401145 
L 230.275584 230.632537 
L 230.662656 229.807634 
L 231.049728 229.422887 
L 231.081984 229.448152 
L 231.211008 229.405156 
L 231.4368 229.122358 
L 231.727104 228.95525 
L 231.985152 228.750465 
L 232.985088 227.494273 
L 233.436672 226.505809 
L 233.856 226.122391 
L 234.049536 226.155192 
L 234.565632 225.800143 
L 235.081728 225.255379 
L 235.95264 224.203972 
L 236.404224 223.195118 
L 236.855808 222.920741 
L 237.40416 222.679166 
L 238.952448 221.125105 
L 239.242752 220.439386 
L 239.565312 219.959781 
L 239.758848 219.952689 
L 239.952384 219.889303 
L 240.339456 219.682745 
L 241.339392 218.729298 
L 242.371584 217.731968 
L 242.88768 217.048908 
L 243.661824 216.322986 
L 244.758528 215.046758 
L 247.468032 210.301819 
L 247.822848 209.580063 
L 251.500032 203.413862 
L 253.628928 200.068598 
L 254.370816 197.181661 
L 255.79008 192.004413 
L 256.822272 189.307634 
L 257.757696 187.336467 
L 258.273792 186.427346 
L 258.69312 185.842689 
L 259.531776 184.234551 
L 260.273664 183.123304 
L 260.95104 182.102482 
L 261.886464 180.565708 
L 263.144448 179.036912 
L 263.789568 177.864496 
L 263.983104 177.191188 
L 264.01536 177.289148 
L 265.14432 183.290855 
L 265.563648 185.848895 
L 266.724864 193.374522 
L 267.982848 200.138632 
L 268.821504 203.533099 
L 269.531136 205.565435 
L 270.240768 206.887229 
L 271.047168 207.819843 
L 272.24064 208.578256 
L 275.14368 209.265217 
L 275.46624 209.298506 
L 276.401664 209.388044 
L 278.014464 209.550054 
L 283.304448 209.679574 
L 284.562432 209.467697 
L 284.852736 209.408921 
L 285.820416 209.286937 
L 286.175232 209.252096 
L 286.981632 209.14013 
L 287.336448 209.086806 
L 287.981568 208.998154 
L 288.497664 208.931311 
L 289.01376 208.836365 
L 289.65888 208.962073 
L 290.691072 210.057495 
L 291.142656 210.465824 
L 293.04576 211.437622 
L 294.432768 211.745908 
L 296.851968 212.05867 
L 297.142272 212.087571 
L 309.302784 212.835182 
L 309.722112 212.940638 
L 310.593024 213.087954 
L 310.980096 213.140387 
L 311.851008 213.226663 
L 312.23808 213.259358 
L 312.979968 213.304455 
L 313.302528 213.306334 
L 313.979904 213.36511 
L 314.270208 213.354024 
L 315.14112 213.399932 
L 315.431424 213.392175 
L 316.818432 213.422095 
L 317.173248 213.44092 
L 318.495744 213.467901 
L 318.818304 213.478247 
L 320.818176 213.494497 
L 325.527552 213.535494 
L 335.172096 213.543441 
L 335.4624 213.557736 
L 336.43008 213.539204 
L 336.720384 213.555547 
L 337.591296 213.53392 
L 337.946112 213.518353 
L 338.913792 213.535746 
L 339.300864 213.513411 
L 340.171776 213.529115 
L 340.558848 213.508446 
L 341.236224 213.503929 
L 341.655552 213.497329 
L 342.39744 213.509031 
L 342.784512 213.499727 
L 343.397376 213.482241 
L 343.784448 213.489462 
L 344.365056 213.473832 
L 344.752128 213.482986 
L 345.332736 213.469963 
L 345.719808 213.483939 
L 346.203648 213.457489 
L 346.59072 213.4717 
L 347.07456 213.449856 
L 347.461632 213.466403 
L 347.71968 213.432419 
L 348.52608 202.895694 
L 350.13888 184.162743 
L 351.26784 173.342383 
L 352.429056 163.809242 
L 353.138688 159.505211 
L 353.68704 157.382007 
L 354.17088 156.145319 
L 354.719232 155.307562 
L 355.557888 154.642676 
L 356.138496 154.456507 
L 356.557824 154.398884 
L 357.39648 154.390019 
L 357.751296 154.425479 
L 358.783488 154.536294 
L 375.13728 156.863396 
L 376.040448 159.518509 
L 376.42752 160.538001 
L 376.943616 160.954663 
L 377.459712 160.919203 
L 377.943552 160.600057 
L 379.8144 158.946706 
L 380.45952 158.636426 
L 381.072384 158.441393 
L 381.652992 158.321713 
L 382.427136 158.215332 
L 387.975168 158.104517 
L 388.781568 158.100085 
L 389.136384 158.086787 
L 394.265088 158.193169 
L 394.716672 158.206466 
L 396.039168 158.277388 
L 398.3616 158.383769 
L 398.68416 158.4015 
L 401.071104 158.503449 
L 401.393664 158.525612 
L 402.006528 158.552207 
L 405.006336 158.663022 
L 405.522432 158.69405 
L 406.619136 158.733943 
L 409.554432 158.83146 
L 409.81248 158.853622 
L 413.489664 158.964437 
L 414.00576 158.995465 
L 415.425024 158.928976 
L 415.973376 158.157708 
L 416.521728 157.838563 
L 416.941056 157.776507 
L 417.7152 157.882888 
L 419.263488 158.41923 
L 420.102144 158.649724 
L 424.359936 159.12401 
L 427.101696 159.234824 
L 428.1984 159.274717 
L 432.617472 159.385531 
L 433.004544 159.385531 
L 455.712768 159.487481 
L 456.615936 160.564597 
L 457.519104 160.830551 
L 458.8416 160.75963 
L 459.389952 160.648816 
L 461.067264 160.298642 
L 467.163648 159.5717 
L 496.032768 159.491913 
L 496.548864 158.720645 
L 497.097216 158.335011 
L 498.3552 158.26409 
L 502.161408 159.199363 
L 504.16128 159.363369 
L 536.320512 159.474183 
L 536.449536 159.651486 
L 536.965632 160.351833 
L 537.352704 160.613355 
L 538.126848 160.812821 
L 540.191232 160.706439 
L 542.287872 160.241019 
L 547.771392 159.598295 
L 576.672768 159.496346 
L 577.253376 158.658589 
L 578.221056 158.250792 
L 580.156416 158.627561 
L 581.124096 158.911246 
L 585.12384 159.350071 
L 592.639488 159.460885 
L 593.478144 159.465318 
L 617.025024 159.536239 
L 617.573376 160.29421 
L 618.121728 160.670978 
L 619.282944 160.879309 
L 620.573184 160.768495 
L 622.734336 160.360698 
L 624.830976 159.895278 
L 628.250112 159.536239 
L 657.345024 159.43429 
L 657.828864 158.738375 
L 658.50624 158.317281 
L 659.570688 158.28182 
L 663.118848 159.146172 
L 665.28 159.332341 
L 670.537728 159.443155 
L 671.40864 159.45202 
L 697.665024 159.531806 
L 698.148864 160.236586 
L 698.890752 160.706439 
L 699.922944 160.879309 
L 701.213184 160.768495 
L 703.374336 160.360698 
L 705.470976 159.895278 
L 708.890112 159.536239 
L 737.985024 159.43429 
L 738.468864 158.738375 
L 739.14624 158.317281 
L 740.210688 158.28182 
L 743.758848 159.146172 
L 745.92 159.332341 
L 751.177728 159.443155 
L 752.04864 159.45202 
L 778.305024 159.531806 
L 778.788864 160.236586 
L 779.530752 160.706439 
L 780.562944 160.879309 
L 781.853184 160.768495 
L 784.014336 160.360698 
L 786.110976 159.895278 
L 789.530112 159.536239 
L 818.625024 159.43429 
L 819.108864 158.738375 
L 819.78624 158.317281 
L 820.850688 158.28182 
L 824.398848 159.146172 
L 826.56 159.332341 
L 831.817728 159.443155 
L 832.68864 159.45202 
L 858.945024 159.531806 
L 859.428864 160.236586 
L 860.170752 160.706439 
L 861.202944 160.879309 
L 862.493184 160.768495 
L 864.654336 160.360698 
L 866.750976 159.895278 
L 870.170112 159.536239 
L 899.265024 159.43429 
L 899.748864 158.738375 
L 900.42624 158.317281 
L 901.490688 158.28182 
L 905.038848 159.146172 
L 907.2 159.332341 
L 912.457728 159.443155 
L 913.32864 159.45202 
L 939.585024 159.531806 
L 940.10112 160.285344 
L 940.58496 160.60449 
L 941.294592 160.870444 
L 943.294464 160.75963 
L 944.391168 160.498108 
L 946.326528 160.077013 
L 947.52 159.833222 
L 947.52 159.833222 
" clip-path="url(#p3af7ede1c3)" style="fill: none; stroke: #008000; stroke-width: 2; stroke-linecap: square"/>
   </g>
   <g id="patch_10">
    <path d="M 100.8 242.888276 
L 100.8 150.157241 
" style="fill: none; stroke: #bcbcbc; stroke-width: 0.8; stroke-linejoin: miter; stroke-linecap: square"/>
   </g>
   <g id="patch_11">
    <path d="M 987.84 242.888276 
L 987.84 150.157241 
" style="fill: none; stroke: #bcbcbc; stroke-width: 0.8; stroke-linejoin: miter; stroke-linecap: square"/>
   </g>
   <g id="patch_12">
    <path d="M 100.8 242.888276 
L 987.84 242.888276 
" style="fill: none; stroke: #bcbcbc; stroke-width: 0.8; stroke-linejoin: miter; stroke-linecap: square"/>
   </g>
   <g id="patch_13">
    <path d="M 100.8 150.157241 
L 987.84 150.157241 
" style="fill: none; stroke: #bcbcbc; stroke-width: 0.8; stroke-linejoin: miter; stroke-linecap: square"/>
   </g>
  </g>
  <g id="axes_3">
   <g id="patch_14">
    <path d="M 100.8 354.165517 
L 987.84 354.165517 
L 987.84 261.434483 
L 100.8 261.434483 
z
" style="fill: #eeeeee"/>
   </g>
   <g id="matplotlib.axis_5">
    <g id="xtick_13">
     <g id="line2d_35">
      <path d="M 141.12 354.165517 
L 141.12 261.434483 
" clip-path="url(#p6a9c574b18)" style="fill: none; stroke-dasharray: 1.85,0.8; stroke-dashoffset: 0; stroke: #b2b2b2; stroke-width: 0.5"/>
     </g>
     <g id="line2d_36">
      <g>
       <use xlink:href="#mdae3330cff" x="141.12" y="354.165517" style="stroke: #000000; stroke-width: 0.8"/>
      </g>
     </g>
    </g>
    <g id="xtick_14">
     <g id="line2d_37">
      <path d="M 302.4 354.165517 
L 302.4 261.434483 
" clip-path="url(#p6a9c574b18)" style="fill: none; stroke-dasharray: 1.85,0.8; stroke-dashoffset: 0; stroke: #b2b2b2; stroke-width: 0.5"/>
     </g>
     <g id="line2d_38">
      <g>
       <use xlink:href="#mdae3330cff" x="302.4" y="354.165517" style="stroke: #000000; stroke-width: 0.8"/>
      </g>
     </g>
    </g>
    <g id="xtick_15">
     <g id="line2d_39">
      <path d="M 463.68 354.165517 
L 463.68 261.434483 
" clip-path="url(#p6a9c574b18)" style="fill: none; stroke-dasharray: 1.85,0.8; stroke-dashoffset: 0; stroke: #b2b2b2; stroke-width: 0.5"/>
     </g>
     <g id="line2d_40">
      <g>
       <use xlink:href="#mdae3330cff" x="463.68" y="354.165517" style="stroke: #000000; stroke-width: 0.8"/>
      </g>
     </g>
    </g>
    <g id="xtick_16">
     <g id="line2d_41">
      <path d="M 624.96 354.165517 
L 624.96 261.434483 
" clip-path="url(#p6a9c574b18)" style="fill: none; stroke-dasharray: 1.85,0.8; stroke-dashoffset: 0; stroke: #b2b2b2; stroke-width: 0.5"/>
     </g>
     <g id="line2d_42">
      <g>
       <use xlink:href="#mdae3330cff" x="624.96" y="354.165517" style="stroke: #000000; stroke-width: 0.8"/>
      </g>
     </g>
    </g>
    <g id="xtick_17">
     <g id="line2d_43">
      <path d="M 786.24 354.165517 
L 786.24 261.434483 
" clip-path="url(#p6a9c574b18)" style="fill: none; stroke-dasharray: 1.85,0.8; stroke-dashoffset: 0; stroke: #b2b2b2; stroke-width: 0.5"/>
     </g>
     <g id="line2d_44">
      <g>
       <use xlink:href="#mdae3330cff" x="786.24" y="354.165517" style="stroke: #000000; stroke-width: 0.8"/>
      </g>
     </g>
    </g>
    <g id="xtick_18">
     <g id="line2d_45">
      <path d="M 947.52 354.165517 
L 947.52 261.434483 
" clip-path="url(#p6a9c574b18)" style="fill: none; stroke-dasharray: 1.85,0.8; stroke-dashoffset: 0; stroke: #b2b2b2; stroke-width: 0.5"/>
     </g>
     <g id="line2d_46">
      <g>
       <use xlink:href="#mdae3330cff" x="947.52" y="354.165517" style="stroke: #000000; stroke-width: 0.8"/>
      </g>
     </g>
    </g>
   </g>
   <g id="matplotlib.axis_6">
    <g id="ytick_5">
     <g id="line2d_47">
      <path d="M 100.8 344.750539 
L 987.84 344.750539 
" clip-path="url(#p6a9c574b18)" style="fill: none; stroke-dasharray: 1.85,0.8; stroke-dashoffset: 0; stroke: #b2b2b2; stroke-width: 0.5"/>
     </g>
     <g id="line2d_48">
      <g>
       <use xlink:href="#m3c227c8394" x="100.8" y="344.750539" style="stroke: #000000; stroke-width: 0.8"/>
      </g>
     </g>
     <g id="text_7">
      <!-- 0 V -->
      <g transform="translate(74.36625 350.069446) scale(0.14 -0.14)">
       <use xlink:href="#DejaVuSans-30"/>
       <use xlink:href="#DejaVuSans-20" x="63.623047"/>
       <use xlink:href="#DejaVuSans-56" x="95.410156"/>
      </g>
     </g>
    </g>
    <g id="ytick_6">
     <g id="line2d_49">
      <path d="M 100.8 303.706014 
L 987.84 303.706014 
" clip-path="url(#p6a9c574b18)" style="fill: none; stroke-dasharray: 1.85,0.8; stroke-dashoffset: 0; stroke: #b2b2b2; stroke-width: 0.5"/>
     </g>
     <g id="line2d_50">
      <g>
       <use xlink:href="#m3c227c8394" x="100.8" y="303.706014" style="stroke: #000000; stroke-width: 0.8"/>
      </g>
     </g>
     <g id="text_8">
      <!-- 1 V -->
      <g transform="translate(74.36625 309.02492) scale(0.14 -0.14)">
       <use xlink:href="#DejaVuSans-31"/>
       <use xlink:href="#DejaVuSans-20" x="63.623047"/>
       <use xlink:href="#DejaVuSans-56" x="95.410156"/>
      </g>
     </g>
    </g>
    <g id="ytick_7">
     <g id="line2d_51">
      <path d="M 100.8 262.661488 
L 987.84 262.661488 
" clip-path="url(#p6a9c574b18)" style="fill: none; stroke-dasharray: 1.85,0.8; stroke-dashoffset: 0; stroke: #b2b2b2; stroke-width: 0.5"/>
     </g>
     <g id="line2d_52">
      <g>
       <use xlink:href="#m3c227c8394" x="100.8" y="262.661488" style="stroke: #000000; stroke-width: 0.8"/>
      </g>
     </g>
     <g id="text_9">
      <!-- 2 V -->
      <g transform="translate(74.36625 267.980395) scale(0.14 -0.14)">
       <use xlink:href="#DejaVuSans-32"/>
       <use xlink:href="#DejaVuSans-20" x="63.623047"/>
       <use xlink:href="#DejaVuSans-56" x="95.410156"/>
      </g>
     </g>
    </g>
    <g id="text_10">
     <g id="patch_15">
      <path d="M 34.8768 342.395313 
L 34.8768 273.204688 
L 11.247425 273.204688 
L 11.247425 342.395313 
z
" style="fill: #ffff00; opacity: 0.2; stroke: #eeeeee; stroke-width: 0.5; stroke-linejoin: miter"/>
     </g>
     <!-- CLK BUF -->
     <g transform="translate(26.925238 337.355313) rotate(-90) scale(0.14 -0.14)">
      <defs>
       <path id="DejaVuSans-43" d="M 4122 4306 
L 4122 3641 
Q 3803 3938 3442 4084 
Q 3081 4231 2675 4231 
Q 1875 4231 1450 3742 
Q 1025 3253 1025 2328 
Q 1025 1406 1450 917 
Q 1875 428 2675 428 
Q 3081 428 3442 575 
Q 3803 722 4122 1019 
L 4122 359 
Q 3791 134 3420 21 
Q 3050 -91 2638 -91 
Q 1578 -91 968 557 
Q 359 1206 359 2328 
Q 359 3453 968 4101 
Q 1578 4750 2638 4750 
Q 3056 4750 3426 4639 
Q 3797 4528 4122 4306 
z
" transform="scale(0.015625)"/>
       <path id="DejaVuSans-4b" d="M 628 4666 
L 1259 4666 
L 1259 2694 
L 3353 4666 
L 4166 4666 
L 1850 2491 
L 4331 0 
L 3500 0 
L 1259 2247 
L 1259 0 
L 628 0 
L 628 4666 
z
" transform="scale(0.015625)"/>
      </defs>
      <use xlink:href="#DejaVuSans-43"/>
      <use xlink:href="#DejaVuSans-4c" x="69.824219"/>
      <use xlink:href="#DejaVuSans-4b" x="125.537109"/>
      <use xlink:href="#DejaVuSans-20" x="191.113281"/>
      <use xlink:href="#DejaVuSans-42" x="222.900391"/>
      <use xlink:href="#DejaVuSans-55" x="291.503906"/>
      <use xlink:href="#DejaVuSans-46" x="364.697266"/>
     </g>
    </g>
   </g>
   <g id="line2d_53">
    <path d="M 141.12 344.749454 
L 173.376 344.749454 
L 173.601792 295.497109 
L 199.277568 295.603824 
L 200.922624 297.873587 
L 202.599936 300.635883 
L 209.50272 311.840218 
L 212.147712 315.712358 
L 213.696 317.855293 
L 213.728256 316.573062 
L 213.760512 316.889515 
L 213.954048 345.911196 
L 215.018496 345.899211 
L 217.469952 345.949204 
L 219.469824 346.761105 
L 219.889152 347.005279 
L 220.79232 347.520634 
L 225.050112 349.929538 
L 225.792 349.510473 
L 225.921024 349.500622 
L 226.469376 349.29581 
L 228.469248 348.599654 
L 233.339904 347.092827 
L 236.59776 346.204624 
L 240.242688 345.385539 
L 246.048768 344.375692 
L 246.468096 344.329012 
L 248.951808 344.213677 
L 254.016 344.249837 
L 254.048256 342.164365 
L 254.17728 315.432845 
L 254.209536 315.727134 
L 254.241792 316.021424 
L 254.306304 315.72303 
L 255.112704 315.268257 
L 259.080192 313.173344 
L 262.757376 311.426079 
L 263.757312 310.88388 
L 265.14432 308.401097 
L 267.24096 304.049556 
L 271.401984 295.456064 
L 272.07936 294.130326 
L 273.85344 290.764675 
L 279.304704 281.271076 
L 280.30464 279.686757 
L 282.07872 276.965505 
L 289.529856 265.768559 
L 290.981376 265.68647 
L 293.432832 266.421167 
L 294.336 266.823403 
L 294.400512 345.172272 
L 294.49728 345.09588 
L 295.852032 345.120621 
L 305.174016 345.075994 
L 309.722112 345.159778 
L 312.141312 345.223331 
L 323.817984 345.112281 
L 334.656 345.040938 
L 334.785024 284.304267 
L 334.881792 284.484863 
L 336.817152 285.116948 
L 337.107456 285.223664 
L 338.52672 285.650527 
L 338.84928 285.757243 
L 339.81696 286.019928 
L 340.107264 286.126644 
L 341.074944 286.389329 
L 341.462016 286.496044 
L 342.429696 286.758729 
L 342.816768 286.865445 
L 343.68768 287.087085 
L 344.074752 287.193801 
L 344.848896 287.374397 
L 345.235968 287.481113 
L 346.010112 287.661709 
L 346.397184 287.768425 
L 347.042304 287.907976 
L 347.461632 288.014692 
L 348.106752 288.154243 
L 348.52608 288.260959 
L 349.1712 288.40051 
L 349.687296 288.507226 
L 350.332416 288.646777 
L 350.848512 288.753493 
L 351.493632 288.893045 
L 352.009728 288.99976 
L 352.654848 289.139312 
L 353.267712 289.246027 
L 353.912832 289.385579 
L 354.525696 289.492295 
L 355.074048 289.590801 
L 355.590144 289.697517 
L 356.138496 289.796024 
L 356.75136 289.90274 
L 357.299712 290.001247 
L 357.912576 290.107963 
L 358.460928 290.206469 
L 359.17056 290.309081 
L 359.525376 290.370647 
L 360.235008 290.473259 
L 360.589824 290.534826 
L 361.202688 290.637437 
L 361.557504 290.699004 
L 362.363904 290.801615 
L 362.71872 290.863182 
L 363.428352 290.965793 
L 363.783168 291.02736 
L 364.589568 291.129971 
L 364.847616 291.150493 
L 365.557248 291.253105 
L 365.912064 291.314672 
L 366.815232 291.417283 
L 367.170048 291.47885 
L 368.073216 291.581461 
L 368.331264 291.601983 
L 369.137664 291.704595 
L 369.49248 291.762057 
L 374.911488 292.340785 
L 374.976 292.340785 
L 375.008256 299.211638 
L 375.13728 344.7603 
L 375.169536 344.921518 
L 375.234048 344.838034 
L 375.717888 344.834003 
L 415.296 344.773582 
L 415.425024 294.323235 
L 415.521792 294.639278 
L 416.392704 294.635174 
L 416.779776 294.676218 
L 421.392384 294.782934 
L 421.650432 294.799352 
L 427.295232 294.906068 
L 427.55328 294.922485 
L 434.552832 295.029201 
L 434.81088 295.045619 
L 455.616 295.086663 
L 455.745024 345.064029 
L 455.906304 344.825322 
L 456.164352 344.733775 
L 456.519168 344.778453 
L 456.841728 344.760997 
L 495.936 344.761209 
L 496.09728 294.873232 
L 496.161792 295.337035 
L 496.25856 294.914276 
L 496.323072 295.070246 
L 496.806912 295.086663 
L 536.256 295.086663 
L 536.385024 345.063955 
L 536.546304 344.825285 
L 536.804352 344.733791 
L 537.159168 344.778441 
L 537.481728 344.760993 
L 576.576 344.761208 
L 576.705024 294.918381 
L 576.769536 295.090768 
L 576.834048 295.119499 
L 576.866304 295.094872 
L 577.05984 295.086663 
L 616.896 295.086663 
L 617.186304 344.852995 
L 617.347584 344.758694 
L 618.799104 344.757446 
L 627.637248 344.76635 
L 657.216 344.761247 
L 657.37728 295.004574 
L 657.441792 295.103081 
L 658.441728 295.086663 
L 697.536 295.086663 
L 697.826304 344.852995 
L 697.987584 344.758698 
L 699.439104 344.757449 
L 708.309504 344.766243 
L 737.856 344.761247 
L 738.01728 295.004574 
L 738.081792 295.103081 
L 739.081728 295.086663 
L 778.176 295.086663 
L 778.466304 344.852999 
L 778.627584 344.758694 
L 780.079104 344.757446 
L 788.917248 344.766336 
L 818.496 344.761247 
L 818.65728 295.004574 
L 818.721792 295.103081 
L 819.721728 295.086663 
L 858.816 295.086663 
L 859.106304 344.852999 
L 859.267584 344.758698 
L 860.719104 344.757449 
L 869.589504 344.766243 
L 899.136 344.761246 
L 899.29728 295.004574 
L 899.361792 295.103081 
L 900.361728 295.086663 
L 939.456 295.086663 
L 939.488256 302.486991 
L 939.61728 344.712384 
L 939.649536 344.831738 
L 939.714048 344.717558 
L 939.810816 344.734516 
L 940.004352 344.78577 
L 940.230144 344.759906 
L 945.9072 344.76121 
L 947.52 344.761199 
L 947.52 344.761199 
" clip-path="url(#p6a9c574b18)" style="fill: none; stroke: #0000ff; stroke-width: 2; stroke-linecap: square"/>
   </g>
   <g id="patch_16">
    <path d="M 100.8 354.165517 
L 100.8 261.434483 
" style="fill: none; stroke: #bcbcbc; stroke-width: 0.8; stroke-linejoin: miter; stroke-linecap: square"/>
   </g>
   <g id="patch_17">
    <path d="M 987.84 354.165517 
L 987.84 261.434483 
" style="fill: none; stroke: #bcbcbc; stroke-width: 0.8; stroke-linejoin: miter; stroke-linecap: square"/>
   </g>
   <g id="patch_18">
    <path d="M 100.8 354.165517 
L 987.84 354.165517 
" style="fill: none; stroke: #bcbcbc; stroke-width: 0.8; stroke-linejoin: miter; stroke-linecap: square"/>
   </g>
   <g id="patch_19">
    <path d="M 100.8 261.434483 
L 987.84 261.434483 
" style="fill: none; stroke: #bcbcbc; stroke-width: 0.8; stroke-linejoin: miter; stroke-linecap: square"/>
   </g>
  </g>
  <g id="axes_4">
   <g id="patch_20">
    <path d="M 100.8 465.442759 
L 987.84 465.442759 
L 987.84 372.711724 
L 100.8 372.711724 
z
" style="fill: #eeeeee"/>
   </g>
   <g id="matplotlib.axis_7">
    <g id="xtick_19">
     <g id="line2d_54">
      <path d="M 141.12 465.442759 
L 141.12 372.711724 
" clip-path="url(#pa38ae0090f)" style="fill: none; stroke-dasharray: 1.85,0.8; stroke-dashoffset: 0; stroke: #b2b2b2; stroke-width: 0.5"/>
     </g>
     <g id="line2d_55">
      <g>
       <use xlink:href="#mdae3330cff" x="141.12" y="465.442759" style="stroke: #000000; stroke-width: 0.8"/>
      </g>
     </g>
    </g>
    <g id="xtick_20">
     <g id="line2d_56">
      <path d="M 302.4 465.442759 
L 302.4 372.711724 
" clip-path="url(#pa38ae0090f)" style="fill: none; stroke-dasharray: 1.85,0.8; stroke-dashoffset: 0; stroke: #b2b2b2; stroke-width: 0.5"/>
     </g>
     <g id="line2d_57">
      <g>
       <use xlink:href="#mdae3330cff" x="302.4" y="465.442759" style="stroke: #000000; stroke-width: 0.8"/>
      </g>
     </g>
    </g>
    <g id="xtick_21">
     <g id="line2d_58">
      <path d="M 463.68 465.442759 
L 463.68 372.711724 
" clip-path="url(#pa38ae0090f)" style="fill: none; stroke-dasharray: 1.85,0.8; stroke-dashoffset: 0; stroke: #b2b2b2; stroke-width: 0.5"/>
     </g>
     <g id="line2d_59">
      <g>
       <use xlink:href="#mdae3330cff" x="463.68" y="465.442759" style="stroke: #000000; stroke-width: 0.8"/>
      </g>
     </g>
    </g>
    <g id="xtick_22">
     <g id="line2d_60">
      <path d="M 624.96 465.442759 
L 624.96 372.711724 
" clip-path="url(#pa38ae0090f)" style="fill: none; stroke-dasharray: 1.85,0.8; stroke-dashoffset: 0; stroke: #b2b2b2; stroke-width: 0.5"/>
     </g>
     <g id="line2d_61">
      <g>
       <use xlink:href="#mdae3330cff" x="624.96" y="465.442759" style="stroke: #000000; stroke-width: 0.8"/>
      </g>
     </g>
    </g>
    <g id="xtick_23">
     <g id="line2d_62">
      <path d="M 786.24 465.442759 
L 786.24 372.711724 
" clip-path="url(#pa38ae0090f)" style="fill: none; stroke-dasharray: 1.85,0.8; stroke-dashoffset: 0; stroke: #b2b2b2; stroke-width: 0.5"/>
     </g>
     <g id="line2d_63">
      <g>
       <use xlink:href="#mdae3330cff" x="786.24" y="465.442759" style="stroke: #000000; stroke-width: 0.8"/>
      </g>
     </g>
    </g>
    <g id="xtick_24">
     <g id="line2d_64">
      <path d="M 947.52 465.442759 
L 947.52 372.711724 
" clip-path="url(#pa38ae0090f)" style="fill: none; stroke-dasharray: 1.85,0.8; stroke-dashoffset: 0; stroke: #b2b2b2; stroke-width: 0.5"/>
     </g>
     <g id="line2d_65">
      <g>
       <use xlink:href="#mdae3330cff" x="947.52" y="465.442759" style="stroke: #000000; stroke-width: 0.8"/>
      </g>
     </g>
    </g>
   </g>
   <g id="matplotlib.axis_8">
    <g id="ytick_8">
     <g id="line2d_66">
      <path d="M 100.8 434.338696 
L 987.84 434.338696 
" clip-path="url(#pa38ae0090f)" style="fill: none; stroke-dasharray: 1.85,0.8; stroke-dashoffset: 0; stroke: #b2b2b2; stroke-width: 0.5"/>
     </g>
     <g id="line2d_67">
      <g>
       <use xlink:href="#m3c227c8394" x="100.8" y="434.338696" style="stroke: #000000; stroke-width: 0.8"/>
      </g>
     </g>
     <g id="text_11">
      <!-- 0 V -->
      <g transform="translate(74.36625 439.657602) scale(0.14 -0.14)">
       <use xlink:href="#DejaVuSans-30"/>
       <use xlink:href="#DejaVuSans-20" x="63.623047"/>
       <use xlink:href="#DejaVuSans-56" x="95.410156"/>
      </g>
     </g>
    </g>
    <g id="ytick_9">
     <g id="line2d_68">
      <path d="M 100.8 387.279741 
L 987.84 387.279741 
" clip-path="url(#pa38ae0090f)" style="fill: none; stroke-dasharray: 1.85,0.8; stroke-dashoffset: 0; stroke: #b2b2b2; stroke-width: 0.5"/>
     </g>
     <g id="line2d_69">
      <g>
       <use xlink:href="#m3c227c8394" x="100.8" y="387.279741" style="stroke: #000000; stroke-width: 0.8"/>
      </g>
     </g>
     <g id="text_12">
      <!-- 1 V -->
      <g transform="translate(74.36625 392.598647) scale(0.14 -0.14)">
       <use xlink:href="#DejaVuSans-31"/>
       <use xlink:href="#DejaVuSans-20" x="63.623047"/>
       <use xlink:href="#DejaVuSans-56" x="95.410156"/>
      </g>
     </g>
    </g>
    <g id="text_13">
     <g id="patch_21">
      <path d="M 34.8768 454.693023 
L 34.8768 383.46146 
L 11.247425 383.46146 
L 11.247425 454.693023 
z
" style="fill: #ffff00; opacity: 0.2; stroke: #eeeeee; stroke-width: 0.5; stroke-linejoin: miter"/>
     </g>
     <!-- DFF OUT -->
     <g transform="translate(26.925238 449.653023) rotate(-90) scale(0.14 -0.14)">
      <defs>
       <path id="DejaVuSans-4f" d="M 2522 4238 
Q 1834 4238 1429 3725 
Q 1025 3213 1025 2328 
Q 1025 1447 1429 934 
Q 1834 422 2522 422 
Q 3209 422 3611 934 
Q 4013 1447 4013 2328 
Q 4013 3213 3611 3725 
Q 3209 4238 2522 4238 
z
M 2522 4750 
Q 3503 4750 4090 4092 
Q 4678 3434 4678 2328 
Q 4678 1225 4090 567 
Q 3503 -91 2522 -91 
Q 1538 -91 948 565 
Q 359 1222 359 2328 
Q 359 3434 948 4092 
Q 1538 4750 2522 4750 
z
" transform="scale(0.015625)"/>
       <path id="DejaVuSans-54" d="M -19 4666 
L 3928 4666 
L 3928 4134 
L 2272 4134 
L 2272 0 
L 1638 0 
L 1638 4134 
L -19 4134 
L -19 4666 
z
" transform="scale(0.015625)"/>
      </defs>
      <use xlink:href="#DejaVuSans-44"/>
      <use xlink:href="#DejaVuSans-46" x="77.001953"/>
      <use xlink:href="#DejaVuSans-46" x="134.521484"/>
      <use xlink:href="#DejaVuSans-20" x="192.041016"/>
      <use xlink:href="#DejaVuSans-4f" x="223.828125"/>
      <use xlink:href="#DejaVuSans-55" x="302.539062"/>
      <use xlink:href="#DejaVuSans-54" x="375.732422"/>
     </g>
    </g>
   </g>
   <g id="line2d_70">
    <path d="M 141.12 398.831303 
L 173.408256 398.888715 
L 173.440512 400.836955 
L 173.601792 434.341568 
L 174.02112 434.335701 
L 182.149632 434.337412 
L 199.245312 434.424644 
L 199.922688 435.135921 
L 200.696832 435.580064 
L 201.664512 435.85037 
L 203.148288 435.985524 
L 205.95456 435.957053 
L 209.212416 435.7467 
L 210.115584 435.487358 
L 210.502656 435.170792 
L 210.760704 434.708311 
L 210.921984 434.014196 
L 211.051008 432.272337 
L 211.180032 425.2422 
L 211.405824 414.090169 
L 211.470336 414.150875 
L 211.696128 415.007818 
L 212.308992 418.475593 
L 212.760576 421.310424 
L 213.53472 425.448789 
L 213.566976 425.384788 
L 213.792768 426.697733 
L 214.631424 430.599579 
L 214.695936 429.939201 
L 214.728192 430.156331 
L 214.921728 431.929465 
L 215.244288 433.382081 
L 215.276544 433.19601 
L 215.3088 432.998315 
L 215.341056 433.178834 
L 215.437824 433.63027 
L 215.599104 435.106133 
L 215.986176 436.802185 
L 216.018432 436.308489 
L 216.082944 436.681055 
L 216.340992 438.466048 
L 216.663552 439.447416 
L 216.695808 439.396592 
L 216.728064 439.468122 
L 216.76032 439.934476 
L 216.857088 439.76977 
L 217.08288 440.44083 
L 217.147392 441.15095 
L 217.211904 440.845067 
L 218.018304 443.518956 
L 218.115072 443.76131 
L 218.147328 443.489309 
L 218.21184 443.61731 
L 218.5344 444.371194 
L 218.566656 444.913313 
L 218.663424 444.82296 
L 218.824704 445.527433 
L 218.85696 445.46908 
L 218.889216 445.582021 
L 219.050496 446.273317 
L 219.469824 447.500144 
L 219.50208 447.260143 
L 219.534336 447.331673 
L 219.66336 448.019204 
L 219.695616 447.884616 
L 219.727872 447.849321 
L 219.760128 447.93591 
L 219.856896 448.471441 
L 220.082688 449.212149 
L 220.695552 450.8738 
L 220.727808 450.8498 
L 220.760064 450.751447 
L 220.824576 450.888389 
L 220.889088 451.046507 
L 221.018112 451.694979 
L 221.050368 451.511449 
L 221.082624 451.849803 
L 221.43744 452.802276 
L 221.501952 452.950983 
L 225.050112 461.227712 
L 225.114624 461.052182 
L 225.14688 461.177829 
L 225.243648 461.115711 
L 225.63072 460.207473 
L 225.662976 460.211238 
L 225.792 459.121353 
L 225.824256 459.220177 
L 225.95328 459.577825 
L 225.985536 459.472413 
L 226.11456 459.072411 
L 226.404864 458.327939 
L 228.017664 455.332636 
L 228.04992 455.473813 
L 228.082176 455.385813 
L 228.243456 455.015459 
L 228.69504 454.431928 
L 228.727296 454.558517 
L 228.759552 454.326045 
L 228.920832 454.140162 
L 228.953088 454.146751 
L 229.114368 453.966986 
L 229.34016 453.703926 
L 229.630464 453.11616 
L 229.98528 452.560864 
L 230.017536 452.7491 
L 230.049792 452.390511 
L 230.14656 452.328393 
L 230.95296 451.271919 
L 230.985216 451.508626 
L 231.049728 451.168389 
L 231.081984 451.28886 
L 231.146496 451.270037 
L 231.4368 450.792388 
L 231.92064 450.388152 
L 232.178688 450.031916 
L 232.339968 449.528385 
L 232.40448 449.61262 
L 232.694784 448.992383 
L 232.72704 449.332149 
L 232.759296 448.936854 
L 232.823808 449.216855 
L 232.952832 448.662971 
L 233.21088 448.363205 
L 233.791488 447.768851 
L 233.856 447.715203 
L 233.888256 447.930263 
L 233.920512 447.665792 
L 233.952768 447.844145 
L 234.6624 447.014966 
L 234.791424 446.870966 
L 234.952704 446.600847 
L 235.113984 446.12367 
L 235.210752 445.943434 
L 235.243008 446.270023 
L 235.30752 445.802728 
L 235.339776 446.113787 
L 235.404288 445.714727 
L 235.436544 445.899669 
L 235.4688 445.559903 
L 235.501056 445.547668 
L 235.565568 445.462962 
L 235.597824 445.773551 
L 235.662336 445.302961 
L 235.694592 445.588609 
L 235.726848 445.726021 
L 235.855872 445.080843 
L 235.888128 445.097784 
L 235.920384 445.400373 
L 235.984896 444.991902 
L 236.59776 444.4159 
L 237.371904 443.847899 
L 237.855744 443.19472 
L 237.984768 442.735895 
L 238.017024 442.907661 
L 238.04928 442.620601 
L 238.21056 442.366012 
L 238.242816 442.80319 
L 238.275072 442.331659 
L 238.307328 442.360836 
L 238.404096 442.134953 
L 238.436352 442.608366 
L 238.468608 442.014011 
L 238.500864 442.014952 
L 238.597632 441.895893 
L 238.629888 442.371189 
L 238.726656 442.211188 
L 238.85568 441.588598 
L 238.887936 441.594245 
L 238.920192 442.071894 
L 238.952448 441.464362 
L 238.984704 441.511421 
L 239.404032 441.170715 
L 239.629824 441.04695 
L 239.66208 441.158479 
L 239.726592 441.04695 
L 239.952384 440.988126 
L 240.210432 440.774478 
L 240.694272 440.243653 
L 241.27488 439.566475 
L 241.403904 438.824732 
L 241.59744 438.579507 
L 241.629696 439.114238 
L 241.661952 438.478472 
L 241.726464 439.054944 
L 241.855488 438.493484 
L 241.92 438.73979 
L 241.952256 438.250612 
L 242.016768 438.514566 
L 242.049024 438.376072 
L 242.24256 437.915647 
L 242.274816 437.920635 
L 242.307072 438.408778 
L 242.339328 437.887647 
L 242.371584 438.043741 
L 242.40384 437.874094 
L 242.500608 437.9332 
L 242.532864 437.898988 
L 242.56512 438.134094 
L 242.629632 437.816305 
L 242.661888 437.853341 
L 242.694144 437.802988 
L 242.7264 437.636069 
L 242.823168 437.655928 
L 243.081216 437.557199 
L 244.597248 435.673146 
L 244.66176 434.998086 
L 244.726272 435.453852 
L 244.887552 434.522108 
L 244.919808 434.707534 
L 244.952064 434.960815 
L 244.98432 434.683694 
L 245.081088 434.476108 
L 245.048832 434.757756 
L 245.113344 434.486018 
L 245.984256 432.914833 
L 246.339072 432.003301 
L 246.500352 431.217558 
L 246.564864 431.579817 
L 246.59712 431.150075 
L 246.726144 431.314687 
L 246.7584 431.266593 
L 247.145472 430.394638 
L 247.693824 429.205975 
L 247.758336 428.317032 
L 247.822848 428.867622 
L 247.855104 428.837974 
L 247.951872 428.069502 
L 248.016384 428.144796 
L 248.080896 428.170208 
L 248.145408 428.030913 
L 248.20992 427.970678 
L 251.080704 421.487366 
L 251.338752 420.759834 
L 253.564416 415.581938 
L 253.596672 414.970171 
L 253.69344 415.080289 
L 253.725696 415.154172 
L 253.790208 415.069936 
L 254.951424 412.495341 
L 255.015936 411.57675 
L 255.048192 411.604515 
L 255.080448 412.072751 
L 255.14496 411.781456 
L 255.30624 411.74475 
L 256.59648 408.888272 
L 256.628736 408.259094 
L 256.725504 408.404035 
L 256.822272 408.578624 
L 256.886784 408.456271 
L 257.951232 406.362618 
L 258.015744 406.551324 
L 258.20928 406.682148 
L 258.338304 407.203091 
L 258.435072 408.872742 
L 258.596352 422.760781 
L 258.757632 433.492011 
L 258.951168 433.612058 
L 260.338176 433.740765 
L 263.6928 433.826035 
L 263.918592 433.556952 
L 264.4992 433.022268 
L 265.241088 432.627961 
L 266.176512 432.383161 
L 267.595776 432.269184 
L 270.240768 432.320761 
L 284.110848 432.777938 
L 286.43328 432.79295 
L 289.529856 432.969609 
L 290.239488 433.741988 
L 291.013632 434.211754 
L 291.981312 434.516602 
L 293.400576 434.701153 
L 294.368256 434.740108 
L 294.400512 434.656391 
L 294.465024 434.766744 
L 295.690752 434.773191 
L 303.04512 434.742678 
L 309.044736 434.737436 
L 310.560768 434.861897 
L 313.560576 434.878838 
L 334.688256 434.67512 
L 334.720512 434.838509 
L 334.752768 434.570287 
L 334.785024 434.620631 
L 334.914048 434.670259 
L 337.39776 434.648282 
L 369.266688 434.457063 
L 415.328256 434.35573 
L 415.360512 434.646682 
L 415.392768 434.16686 
L 415.554048 429.580565 
L 416.1024 426.506203 
L 416.26368 423.050664 
L 416.457216 412.497223 
L 416.650752 389.008687 
L 416.812032 377.289125 
L 416.973312 376.936183 
L 417.747456 376.926771 
L 418.811904 376.978536 
L 419.586048 376.97383 
L 419.940864 377.020889 
L 425.13408 377.129125 
L 425.45664 377.162066 
L 431.90784 377.270302 
L 432.2304 377.303243 
L 455.712768 377.373831 
L 455.809536 377.439714 
L 455.841792 377.406772 
L 456.26112 377.397361 
L 495.968256 377.392655 
L 496.000512 377.632655 
L 496.065024 377.392655 
L 496.25856 377.369125 
L 497.161728 377.392655 
L 576.608256 377.392655 
L 576.640512 377.62795 
L 576.705024 377.373831 
L 576.995328 377.387949 
L 657.248256 377.416184 
L 657.280512 377.576185 
L 657.345024 377.359714 
L 657.603072 377.387949 
L 737.888256 377.416184 
L 737.920512 377.576185 
L 737.985024 377.359714 
L 738.243072 377.387949 
L 818.528256 377.416184 
L 818.560512 377.576185 
L 818.625024 377.359714 
L 818.883072 377.387949 
L 899.168256 377.416184 
L 899.200512 377.576185 
L 899.265024 377.359714 
L 899.523072 377.387949 
L 947.52 377.397361 
L 947.52 377.397361 
" clip-path="url(#pa38ae0090f)" style="fill: none; stroke: #ff00ff; stroke-width: 2; stroke-linecap: square"/>
   </g>
   <g id="patch_22">
    <path d="M 100.8 465.442759 
L 100.8 372.711724 
" style="fill: none; stroke: #bcbcbc; stroke-width: 0.8; stroke-linejoin: miter; stroke-linecap: square"/>
   </g>
   <g id="patch_23">
    <path d="M 987.84 465.442759 
L 987.84 372.711724 
" style="fill: none; stroke: #bcbcbc; stroke-width: 0.8; stroke-linejoin: miter; stroke-linecap: square"/>
   </g>
   <g id="patch_24">
    <path d="M 100.8 465.442759 
L 987.84 465.442759 
" style="fill: none; stroke: #bcbcbc; stroke-width: 0.8; stroke-linejoin: miter; stroke-linecap: square"/>
   </g>
   <g id="patch_25">
    <path d="M 100.8 372.711724 
L 987.84 372.711724 
" style="fill: none; stroke: #bcbcbc; stroke-width: 0.8; stroke-linejoin: miter; stroke-linecap: square"/>
   </g>
  </g>
  <g id="axes_5">
   <g id="patch_26">
    <path d="M 100.8 576.72 
L 987.84 576.72 
L 987.84 483.988966 
L 100.8 483.988966 
z
" style="fill: #eeeeee"/>
   </g>
   <g id="matplotlib.axis_9">
    <g id="xtick_25">
     <g id="line2d_71">
      <path d="M 141.12 576.72 
L 141.12 483.988966 
" clip-path="url(#p6bdd39ac7b)" style="fill: none; stroke-dasharray: 1.85,0.8; stroke-dashoffset: 0; stroke: #b2b2b2; stroke-width: 0.5"/>
     </g>
     <g id="line2d_72">
      <g>
       <use xlink:href="#mdae3330cff" x="141.12" y="576.72" style="stroke: #000000; stroke-width: 0.8"/>
      </g>
     </g>
     <g id="text_14">
      <!-- 0 s -->
      <g transform="translate(130.795 590.857813) scale(0.14 -0.14)">
       <defs>
        <path id="DejaVuSans-73" d="M 2834 3397 
L 2834 2853 
Q 2591 2978 2328 3040 
Q 2066 3103 1784 3103 
Q 1356 3103 1142 2972 
Q 928 2841 928 2578 
Q 928 2378 1081 2264 
Q 1234 2150 1697 2047 
L 1894 2003 
Q 2506 1872 2764 1633 
Q 3022 1394 3022 966 
Q 3022 478 2636 193 
Q 2250 -91 1575 -91 
Q 1294 -91 989 -36 
Q 684 19 347 128 
L 347 722 
Q 666 556 975 473 
Q 1284 391 1588 391 
Q 1994 391 2212 530 
Q 2431 669 2431 922 
Q 2431 1156 2273 1281 
Q 2116 1406 1581 1522 
L 1381 1569 
Q 847 1681 609 1914 
Q 372 2147 372 2553 
Q 372 3047 722 3315 
Q 1072 3584 1716 3584 
Q 2034 3584 2315 3537 
Q 2597 3491 2834 3397 
z
" transform="scale(0.015625)"/>
       </defs>
       <use xlink:href="#DejaVuSans-30"/>
       <use xlink:href="#DejaVuSans-20" x="63.623047"/>
       <use xlink:href="#DejaVuSans-73" x="95.410156"/>
      </g>
     </g>
    </g>
    <g id="xtick_26">
     <g id="line2d_73">
      <path d="M 302.4 576.72 
L 302.4 483.988966 
" clip-path="url(#p6bdd39ac7b)" style="fill: none; stroke-dasharray: 1.85,0.8; stroke-dashoffset: 0; stroke: #b2b2b2; stroke-width: 0.5"/>
     </g>
     <g id="line2d_74">
      <g>
       <use xlink:href="#mdae3330cff" x="302.4" y="576.72" style="stroke: #000000; stroke-width: 0.8"/>
      </g>
     </g>
     <g id="text_15">
      <!-- 50 ns -->
      <g transform="translate(283.185 590.857813) scale(0.14 -0.14)">
       <defs>
        <path id="DejaVuSans-35" d="M 691 4666 
L 3169 4666 
L 3169 4134 
L 1269 4134 
L 1269 2991 
Q 1406 3038 1543 3061 
Q 1681 3084 1819 3084 
Q 2600 3084 3056 2656 
Q 3513 2228 3513 1497 
Q 3513 744 3044 326 
Q 2575 -91 1722 -91 
Q 1428 -91 1123 -41 
Q 819 9 494 109 
L 494 744 
Q 775 591 1075 516 
Q 1375 441 1709 441 
Q 2250 441 2565 725 
Q 2881 1009 2881 1497 
Q 2881 1984 2565 2268 
Q 2250 2553 1709 2553 
Q 1456 2553 1204 2497 
Q 953 2441 691 2322 
L 691 4666 
z
" transform="scale(0.015625)"/>
        <path id="DejaVuSans-6e" d="M 3513 2113 
L 3513 0 
L 2938 0 
L 2938 2094 
Q 2938 2591 2744 2837 
Q 2550 3084 2163 3084 
Q 1697 3084 1428 2787 
Q 1159 2491 1159 1978 
L 1159 0 
L 581 0 
L 581 3500 
L 1159 3500 
L 1159 2956 
Q 1366 3272 1645 3428 
Q 1925 3584 2291 3584 
Q 2894 3584 3203 3211 
Q 3513 2838 3513 2113 
z
" transform="scale(0.015625)"/>
       </defs>
       <use xlink:href="#DejaVuSans-35"/>
       <use xlink:href="#DejaVuSans-30" x="63.623047"/>
       <use xlink:href="#DejaVuSans-20" x="127.246094"/>
       <use xlink:href="#DejaVuSans-6e" x="159.033203"/>
       <use xlink:href="#DejaVuSans-73" x="222.412109"/>
      </g>
     </g>
    </g>
    <g id="xtick_27">
     <g id="line2d_75">
      <path d="M 463.68 576.72 
L 463.68 483.988966 
" clip-path="url(#p6bdd39ac7b)" style="fill: none; stroke-dasharray: 1.85,0.8; stroke-dashoffset: 0; stroke: #b2b2b2; stroke-width: 0.5"/>
     </g>
     <g id="line2d_76">
      <g>
       <use xlink:href="#mdae3330cff" x="463.68" y="576.72" style="stroke: #000000; stroke-width: 0.8"/>
      </g>
     </g>
     <g id="text_16">
      <!-- 100 ns -->
      <g transform="translate(440.01125 590.857813) scale(0.14 -0.14)">
       <use xlink:href="#DejaVuSans-31"/>
       <use xlink:href="#DejaVuSans-30" x="63.623047"/>
       <use xlink:href="#DejaVuSans-30" x="127.246094"/>
       <use xlink:href="#DejaVuSans-20" x="190.869141"/>
       <use xlink:href="#DejaVuSans-6e" x="222.65625"/>
       <use xlink:href="#DejaVuSans-73" x="286.035156"/>
      </g>
     </g>
    </g>
    <g id="xtick_28">
     <g id="line2d_77">
      <path d="M 624.96 576.72 
L 624.96 483.988966 
" clip-path="url(#p6bdd39ac7b)" style="fill: none; stroke-dasharray: 1.85,0.8; stroke-dashoffset: 0; stroke: #b2b2b2; stroke-width: 0.5"/>
     </g>
     <g id="line2d_78">
      <g>
       <use xlink:href="#mdae3330cff" x="624.96" y="576.72" style="stroke: #000000; stroke-width: 0.8"/>
      </g>
     </g>
     <g id="text_17">
      <!-- 150 ns -->
      <g transform="translate(601.29125 590.857813) scale(0.14 -0.14)">
       <use xlink:href="#DejaVuSans-31"/>
       <use xlink:href="#DejaVuSans-35" x="63.623047"/>
       <use xlink:href="#DejaVuSans-30" x="127.246094"/>
       <use xlink:href="#DejaVuSans-20" x="190.869141"/>
       <use xlink:href="#DejaVuSans-6e" x="222.65625"/>
       <use xlink:href="#DejaVuSans-73" x="286.035156"/>
      </g>
     </g>
    </g>
    <g id="xtick_29">
     <g id="line2d_79">
      <path d="M 786.24 576.72 
L 786.24 483.988966 
" clip-path="url(#p6bdd39ac7b)" style="fill: none; stroke-dasharray: 1.85,0.8; stroke-dashoffset: 0; stroke: #b2b2b2; stroke-width: 0.5"/>
     </g>
     <g id="line2d_80">
      <g>
       <use xlink:href="#mdae3330cff" x="786.24" y="576.72" style="stroke: #000000; stroke-width: 0.8"/>
      </g>
     </g>
     <g id="text_18">
      <!-- 200 ns -->
      <g transform="translate(762.57125 590.857813) scale(0.14 -0.14)">
       <use xlink:href="#DejaVuSans-32"/>
       <use xlink:href="#DejaVuSans-30" x="63.623047"/>
       <use xlink:href="#DejaVuSans-30" x="127.246094"/>
       <use xlink:href="#DejaVuSans-20" x="190.869141"/>
       <use xlink:href="#DejaVuSans-6e" x="222.65625"/>
       <use xlink:href="#DejaVuSans-73" x="286.035156"/>
      </g>
     </g>
    </g>
    <g id="xtick_30">
     <g id="line2d_81">
      <path d="M 947.52 576.72 
L 947.52 483.988966 
" clip-path="url(#p6bdd39ac7b)" style="fill: none; stroke-dasharray: 1.85,0.8; stroke-dashoffset: 0; stroke: #b2b2b2; stroke-width: 0.5"/>
     </g>
     <g id="line2d_82">
      <g>
       <use xlink:href="#mdae3330cff" x="947.52" y="576.72" style="stroke: #000000; stroke-width: 0.8"/>
      </g>
     </g>
     <g id="text_19">
      <!-- 250 ns -->
      <g transform="translate(923.85125 590.857813) scale(0.14 -0.14)">
       <use xlink:href="#DejaVuSans-32"/>
       <use xlink:href="#DejaVuSans-35" x="63.623047"/>
       <use xlink:href="#DejaVuSans-30" x="127.246094"/>
       <use xlink:href="#DejaVuSans-20" x="190.869141"/>
       <use xlink:href="#DejaVuSans-6e" x="222.65625"/>
       <use xlink:href="#DejaVuSans-73" x="286.035156"/>
      </g>
     </g>
    </g>
    <g id="text_20">
     <!-- Time -->
     <g transform="translate(527.192969 608.407187) scale(0.14 -0.14)">
      <defs>
       <path id="DejaVuSans-69" d="M 603 3500 
L 1178 3500 
L 1178 0 
L 603 0 
L 603 3500 
z
M 603 4863 
L 1178 4863 
L 1178 4134 
L 603 4134 
L 603 4863 
z
" transform="scale(0.015625)"/>
       <path id="DejaVuSans-6d" d="M 3328 2828 
Q 3544 3216 3844 3400 
Q 4144 3584 4550 3584 
Q 5097 3584 5394 3201 
Q 5691 2819 5691 2113 
L 5691 0 
L 5113 0 
L 5113 2094 
Q 5113 2597 4934 2840 
Q 4756 3084 4391 3084 
Q 3944 3084 3684 2787 
Q 3425 2491 3425 1978 
L 3425 0 
L 2847 0 
L 2847 2094 
Q 2847 2600 2669 2842 
Q 2491 3084 2119 3084 
Q 1678 3084 1418 2786 
Q 1159 2488 1159 1978 
L 1159 0 
L 581 0 
L 581 3500 
L 1159 3500 
L 1159 2956 
Q 1356 3278 1631 3431 
Q 1906 3584 2284 3584 
Q 2666 3584 2933 3390 
Q 3200 3197 3328 2828 
z
" transform="scale(0.015625)"/>
       <path id="DejaVuSans-65" d="M 3597 1894 
L 3597 1613 
L 953 1613 
Q 991 1019 1311 708 
Q 1631 397 2203 397 
Q 2534 397 2845 478 
Q 3156 559 3463 722 
L 3463 178 
Q 3153 47 2828 -22 
Q 2503 -91 2169 -91 
Q 1331 -91 842 396 
Q 353 884 353 1716 
Q 353 2575 817 3079 
Q 1281 3584 2069 3584 
Q 2775 3584 3186 3129 
Q 3597 2675 3597 1894 
z
M 3022 2063 
Q 3016 2534 2758 2815 
Q 2500 3097 2075 3097 
Q 1594 3097 1305 2825 
Q 1016 2553 972 2059 
L 3022 2063 
z
" transform="scale(0.015625)"/>
      </defs>
      <use xlink:href="#DejaVuSans-54"/>
      <use xlink:href="#DejaVuSans-69" x="57.958984"/>
      <use xlink:href="#DejaVuSans-6d" x="85.742188"/>
      <use xlink:href="#DejaVuSans-65" x="183.154297"/>
     </g>
    </g>
   </g>
   <g id="matplotlib.axis_10">
    <g id="ytick_10">
     <g id="line2d_83">
      <path d="M 100.8 569.737898 
L 987.84 569.737898 
" clip-path="url(#p6bdd39ac7b)" style="fill: none; stroke-dasharray: 1.85,0.8; stroke-dashoffset: 0; stroke: #b2b2b2; stroke-width: 0.5"/>
     </g>
     <g id="line2d_84">
      <g>
       <use xlink:href="#m3c227c8394" x="100.8" y="569.737898" style="stroke: #000000; stroke-width: 0.8"/>
      </g>
     </g>
     <g id="text_21">
      <!-- 0 V -->
      <g transform="translate(74.36625 575.056805) scale(0.14 -0.14)">
       <use xlink:href="#DejaVuSans-30"/>
       <use xlink:href="#DejaVuSans-20" x="63.623047"/>
       <use xlink:href="#DejaVuSans-56" x="95.410156"/>
      </g>
     </g>
    </g>
    <g id="ytick_11">
     <g id="line2d_85">
      <path d="M 100.8 535.84453 
L 987.84 535.84453 
" clip-path="url(#p6bdd39ac7b)" style="fill: none; stroke-dasharray: 1.85,0.8; stroke-dashoffset: 0; stroke: #b2b2b2; stroke-width: 0.5"/>
     </g>
     <g id="line2d_86">
      <g>
       <use xlink:href="#m3c227c8394" x="100.8" y="535.84453" style="stroke: #000000; stroke-width: 0.8"/>
      </g>
     </g>
     <g id="text_22">
      <!-- 500 mV -->
      <g transform="translate(42.914375 541.163437) scale(0.14 -0.14)">
       <use xlink:href="#DejaVuSans-35"/>
       <use xlink:href="#DejaVuSans-30" x="63.623047"/>
       <use xlink:href="#DejaVuSans-30" x="127.246094"/>
       <use xlink:href="#DejaVuSans-20" x="190.869141"/>
       <use xlink:href="#DejaVuSans-6d" x="222.65625"/>
       <use xlink:href="#DejaVuSans-56" x="320.068359"/>
      </g>
     </g>
    </g>
    <g id="ytick_12">
     <g id="line2d_87">
      <path d="M 100.8 501.951163 
L 987.84 501.951163 
" clip-path="url(#p6bdd39ac7b)" style="fill: none; stroke-dasharray: 1.85,0.8; stroke-dashoffset: 0; stroke: #b2b2b2; stroke-width: 0.5"/>
     </g>
     <g id="line2d_88">
      <g>
       <use xlink:href="#m3c227c8394" x="100.8" y="501.951163" style="stroke: #000000; stroke-width: 0.8"/>
      </g>
     </g>
     <g id="text_23">
      <!-- 1 V -->
      <g transform="translate(74.36625 507.270069) scale(0.14 -0.14)">
       <use xlink:href="#DejaVuSans-31"/>
       <use xlink:href="#DejaVuSans-20" x="63.623047"/>
       <use xlink:href="#DejaVuSans-56" x="95.410156"/>
      </g>
     </g>
    </g>
    <g id="text_24">
     <g id="patch_27">
      <path d="M 34.8768 554.329483 
L 34.8768 506.379483 
L 11.247425 506.379483 
L 11.247425 554.329483 
z
" style="fill: #ffff00; opacity: 0.2; stroke: #eeeeee; stroke-width: 0.5; stroke-linejoin: miter"/>
     </g>
     <!-- FOUT -->
     <g transform="translate(26.925238 549.289483) rotate(-90) scale(0.14 -0.14)">
      <use xlink:href="#DejaVuSans-46"/>
      <use xlink:href="#DejaVuSans-4f" x="57.519531"/>
      <use xlink:href="#DejaVuSans-55" x="136.230469"/>
      <use xlink:href="#DejaVuSans-54" x="209.423828"/>
     </g>
    </g>
   </g>
   <g id="line2d_89">
    <path d="M 141.12 488.393815 
L 173.472768 488.400594 
L 173.505024 488.204013 
L 173.569536 526.657394 
L 173.69856 572.504953 
L 173.730816 572.369108 
L 173.827584 567.828617 
L 173.892096 569.351799 
L 174.053376 570.057126 
L 174.117888 569.939259 
L 174.408192 569.483332 
L 174.440448 569.532932 
L 174.66624 569.721921 
L 176.182272 569.732147 
L 180.859392 569.736207 
L 257.144832 569.837938 
L 257.177088 568.913883 
L 257.273856 527.321704 
L 257.435136 488.631069 
L 257.596416 488.400594 
L 258.144768 488.393815 
L 258.435072 488.400594 
L 258.564096 537.126378 
L 258.69312 569.754865 
L 258.983424 569.736211 
L 416.58624 569.660113 
L 416.876544 488.414151 
L 417.199104 488.393815 
L 947.52 488.393815 
L 947.52 488.393815 
" clip-path="url(#p6bdd39ac7b)" style="fill: none; stroke: #ff00ff; stroke-width: 2; stroke-linecap: square"/>
   </g>
   <g id="patch_28">
    <path d="M 100.8 576.72 
L 100.8 483.988966 
" style="fill: none; stroke: #bcbcbc; stroke-width: 0.8; stroke-linejoin: miter; stroke-linecap: square"/>
   </g>
   <g id="patch_29">
    <path d="M 987.84 576.72 
L 987.84 483.988966 
" style="fill: none; stroke: #bcbcbc; stroke-width: 0.8; stroke-linejoin: miter; stroke-linecap: square"/>
   </g>
   <g id="patch_30">
    <path d="M 100.8 576.72 
L 987.84 576.72 
" style="fill: none; stroke: #bcbcbc; stroke-width: 0.8; stroke-linejoin: miter; stroke-linecap: square"/>
   </g>
   <g id="patch_31">
    <path d="M 100.8 483.988966 
L 987.84 483.988966 
" style="fill: none; stroke: #bcbcbc; stroke-width: 0.8; stroke-linejoin: miter; stroke-linecap: square"/>
   </g>
  </g>
  <g id="axes_6">
   <g id="patch_32">
    <path d="M 201.6 628.56 
L 856.8 628.56 
L 856.8 615.6 
L 201.6 615.6 
z
" clip-path="url(#pe1d8983667)" style="fill: #d3d3d3"/>
   </g>
   <g id="patch_33">
    <path d="M 201.6 628.56 
L 210.96 628.56 
L 210.96 615.6 
L 201.6 615.6 
z
" clip-path="url(#pe1d8983667)" style="fill: #0000ff"/>
   </g>
   <g id="line2d_90">
    <path d="M 201.6 635.04 
L 201.6 609.12 
" clip-path="url(#p71393be7ae)" style="fill: none; stroke: #ff0000; stroke-linecap: square"/>
   </g>
   <g id="line2d_91">
    <defs>
     <path id="mb552fd2e8a" d="M 0 5 
C 1.326016 5 2.597899 4.473168 3.535534 3.535534 
C 4.473168 2.597899 5 1.326016 5 0 
C 5 -1.326016 4.473168 -2.597899 3.535534 -3.535534 
C 2.597899 -4.473168 1.326016 -5 0 -5 
C -1.326016 -5 -2.597899 -4.473168 -3.535534 -3.535534 
C -4.473168 -2.597899 -5 -1.326016 -5 0 
C -5 1.326016 -4.473168 2.597899 -3.535534 3.535534 
C -2.597899 4.473168 -1.326016 5 0 5 
z
" style="stroke: #bfbfbf"/>
    </defs>
    <g>
     <use xlink:href="#mb552fd2e8a" x="210.96" y="622.08" style="fill: #ffffff; stroke: #bfbfbf"/>
    </g>
   </g>
   <g id="text_25">
    <!-- #Sweep -->
    <g transform="translate(138.622875 625.39125) scale(0.12 -0.12)">
     <defs>
      <path id="DejaVuSans-23" d="M 3272 2816 
L 2363 2816 
L 2100 1772 
L 3016 1772 
L 3272 2816 
z
M 2803 4594 
L 2478 3297 
L 3391 3297 
L 3719 4594 
L 4219 4594 
L 3897 3297 
L 4872 3297 
L 4872 2816 
L 3775 2816 
L 3519 1772 
L 4513 1772 
L 4513 1294 
L 3397 1294 
L 3072 0 
L 2572 0 
L 2894 1294 
L 1978 1294 
L 1656 0 
L 1153 0 
L 1478 1294 
L 494 1294 
L 494 1772 
L 1594 1772 
L 1856 2816 
L 850 2816 
L 850 3297 
L 1978 3297 
L 2297 4594 
L 2803 4594 
z
" transform="scale(0.015625)"/>
      <path id="DejaVuSans-77" d="M 269 3500 
L 844 3500 
L 1563 769 
L 2278 3500 
L 2956 3500 
L 3675 769 
L 4391 3500 
L 4966 3500 
L 4050 0 
L 3372 0 
L 2619 2869 
L 1863 0 
L 1184 0 
L 269 3500 
z
" transform="scale(0.015625)"/>
      <path id="DejaVuSans-70" d="M 1159 525 
L 1159 -1331 
L 581 -1331 
L 581 3500 
L 1159 3500 
L 1159 2969 
Q 1341 3281 1617 3432 
Q 1894 3584 2278 3584 
Q 2916 3584 3314 3078 
Q 3713 2572 3713 1747 
Q 3713 922 3314 415 
Q 2916 -91 2278 -91 
Q 1894 -91 1617 61 
Q 1341 213 1159 525 
z
M 3116 1747 
Q 3116 2381 2855 2742 
Q 2594 3103 2138 3103 
Q 1681 3103 1420 2742 
Q 1159 2381 1159 1747 
Q 1159 1113 1420 752 
Q 1681 391 2138 391 
Q 2594 391 2855 752 
Q 3116 1113 3116 1747 
z
" transform="scale(0.015625)"/>
     </defs>
     <use xlink:href="#DejaVuSans-23"/>
     <use xlink:href="#DejaVuSans-53" x="83.789062"/>
     <use xlink:href="#DejaVuSans-77" x="147.265625"/>
     <use xlink:href="#DejaVuSans-65" x="229.052734"/>
     <use xlink:href="#DejaVuSans-65" x="290.576172"/>
     <use xlink:href="#DejaVuSans-70" x="352.099609"/>
    </g>
   </g>
   <g id="text_26">
    <!-- $\mathdefault{2}$ -->
    <g transform="translate(869.904 625.39125) scale(0.12 -0.12)">
     <use xlink:href="#DejaVuSans-32" transform="translate(0 0.78125)"/>
    </g>
   </g>
  </g>
  <g id="text_27">
   <!-- DFF under BBI sweep analysis (Sweep = 12E-9) -->
   <g transform="translate(313.34625 25.1175) scale(0.16 -0.16)">
    <defs>
     <path id="DejaVuSans-75" d="M 544 1381 
L 544 3500 
L 1119 3500 
L 1119 1403 
Q 1119 906 1312 657 
Q 1506 409 1894 409 
Q 2359 409 2629 706 
Q 2900 1003 2900 1516 
L 2900 3500 
L 3475 3500 
L 3475 0 
L 2900 0 
L 2900 538 
Q 2691 219 2414 64 
Q 2138 -91 1772 -91 
Q 1169 -91 856 284 
Q 544 659 544 1381 
z
M 1991 3584 
L 1991 3584 
z
" transform="scale(0.015625)"/>
     <path id="DejaVuSans-64" d="M 2906 2969 
L 2906 4863 
L 3481 4863 
L 3481 0 
L 2906 0 
L 2906 525 
Q 2725 213 2448 61 
Q 2172 -91 1784 -91 
Q 1150 -91 751 415 
Q 353 922 353 1747 
Q 353 2572 751 3078 
Q 1150 3584 1784 3584 
Q 2172 3584 2448 3432 
Q 2725 3281 2906 2969 
z
M 947 1747 
Q 947 1113 1208 752 
Q 1469 391 1925 391 
Q 2381 391 2643 752 
Q 2906 1113 2906 1747 
Q 2906 2381 2643 2742 
Q 2381 3103 1925 3103 
Q 1469 3103 1208 2742 
Q 947 2381 947 1747 
z
" transform="scale(0.015625)"/>
     <path id="DejaVuSans-72" d="M 2631 2963 
Q 2534 3019 2420 3045 
Q 2306 3072 2169 3072 
Q 1681 3072 1420 2755 
Q 1159 2438 1159 1844 
L 1159 0 
L 581 0 
L 581 3500 
L 1159 3500 
L 1159 2956 
Q 1341 3275 1631 3429 
Q 1922 3584 2338 3584 
Q 2397 3584 2469 3576 
Q 2541 3569 2628 3553 
L 2631 2963 
z
" transform="scale(0.015625)"/>
     <path id="DejaVuSans-61" d="M 2194 1759 
Q 1497 1759 1228 1600 
Q 959 1441 959 1056 
Q 959 750 1161 570 
Q 1363 391 1709 391 
Q 2188 391 2477 730 
Q 2766 1069 2766 1631 
L 2766 1759 
L 2194 1759 
z
M 3341 1997 
L 3341 0 
L 2766 0 
L 2766 531 
Q 2569 213 2275 61 
Q 1981 -91 1556 -91 
Q 1019 -91 701 211 
Q 384 513 384 1019 
Q 384 1609 779 1909 
Q 1175 2209 1959 2209 
L 2766 2209 
L 2766 2266 
Q 2766 2663 2505 2880 
Q 2244 3097 1772 3097 
Q 1472 3097 1187 3025 
Q 903 2953 641 2809 
L 641 3341 
Q 956 3463 1253 3523 
Q 1550 3584 1831 3584 
Q 2591 3584 2966 3190 
Q 3341 2797 3341 1997 
z
" transform="scale(0.015625)"/>
     <path id="DejaVuSans-6c" d="M 603 4863 
L 1178 4863 
L 1178 0 
L 603 0 
L 603 4863 
z
" transform="scale(0.015625)"/>
     <path id="DejaVuSans-79" d="M 2059 -325 
Q 1816 -950 1584 -1140 
Q 1353 -1331 966 -1331 
L 506 -1331 
L 506 -850 
L 844 -850 
Q 1081 -850 1212 -737 
Q 1344 -625 1503 -206 
L 1606 56 
L 191 3500 
L 800 3500 
L 1894 763 
L 2988 3500 
L 3597 3500 
L 2059 -325 
z
" transform="scale(0.015625)"/>
     <path id="DejaVuSans-28" d="M 1984 4856 
Q 1566 4138 1362 3434 
Q 1159 2731 1159 2009 
Q 1159 1288 1364 580 
Q 1569 -128 1984 -844 
L 1484 -844 
Q 1016 -109 783 600 
Q 550 1309 550 2009 
Q 550 2706 781 3412 
Q 1013 4119 1484 4856 
L 1984 4856 
z
" transform="scale(0.015625)"/>
     <path id="DejaVuSans-3d" d="M 678 2906 
L 4684 2906 
L 4684 2381 
L 678 2381 
L 678 2906 
z
M 678 1631 
L 4684 1631 
L 4684 1100 
L 678 1100 
L 678 1631 
z
" transform="scale(0.015625)"/>
     <path id="DejaVuSans-2d" d="M 313 2009 
L 1997 2009 
L 1997 1497 
L 313 1497 
L 313 2009 
z
" transform="scale(0.015625)"/>
     <path id="DejaVuSans-39" d="M 703 97 
L 703 672 
Q 941 559 1184 500 
Q 1428 441 1663 441 
Q 2288 441 2617 861 
Q 2947 1281 2994 2138 
Q 2813 1869 2534 1725 
Q 2256 1581 1919 1581 
Q 1219 1581 811 2004 
Q 403 2428 403 3163 
Q 403 3881 828 4315 
Q 1253 4750 1959 4750 
Q 2769 4750 3195 4129 
Q 3622 3509 3622 2328 
Q 3622 1225 3098 567 
Q 2575 -91 1691 -91 
Q 1453 -91 1209 -44 
Q 966 3 703 97 
z
M 1959 2075 
Q 2384 2075 2632 2365 
Q 2881 2656 2881 3163 
Q 2881 3666 2632 3958 
Q 2384 4250 1959 4250 
Q 1534 4250 1286 3958 
Q 1038 3666 1038 3163 
Q 1038 2656 1286 2365 
Q 1534 2075 1959 2075 
z
" transform="scale(0.015625)"/>
     <path id="DejaVuSans-29" d="M 513 4856 
L 1013 4856 
Q 1481 4119 1714 3412 
Q 1947 2706 1947 2009 
Q 1947 1309 1714 600 
Q 1481 -109 1013 -844 
L 513 -844 
Q 928 -128 1133 580 
Q 1338 1288 1338 2009 
Q 1338 2731 1133 3434 
Q 928 4138 513 4856 
z
" transform="scale(0.015625)"/>
    </defs>
    <use xlink:href="#DejaVuSans-44"/>
    <use xlink:href="#DejaVuSans-46" x="77.001953"/>
    <use xlink:href="#DejaVuSans-46" x="134.521484"/>
    <use xlink:href="#DejaVuSans-20" x="192.041016"/>
    <use xlink:href="#DejaVuSans-75" x="223.828125"/>
    <use xlink:href="#DejaVuSans-6e" x="287.207031"/>
    <use xlink:href="#DejaVuSans-64" x="350.585938"/>
    <use xlink:href="#DejaVuSans-65" x="414.0625"/>
    <use xlink:href="#DejaVuSans-72" x="475.585938"/>
    <use xlink:href="#DejaVuSans-20" x="516.699219"/>
    <use xlink:href="#DejaVuSans-42" x="548.486328"/>
    <use xlink:href="#DejaVuSans-42" x="617.089844"/>
    <use xlink:href="#DejaVuSans-49" x="685.693359"/>
    <use xlink:href="#DejaVuSans-20" x="715.185547"/>
    <use xlink:href="#DejaVuSans-73" x="746.972656"/>
    <use xlink:href="#DejaVuSans-77" x="799.072266"/>
    <use xlink:href="#DejaVuSans-65" x="880.859375"/>
    <use xlink:href="#DejaVuSans-65" x="942.382812"/>
    <use xlink:href="#DejaVuSans-70" x="1003.90625"/>
    <use xlink:href="#DejaVuSans-20" x="1067.382812"/>
    <use xlink:href="#DejaVuSans-61" x="1099.169922"/>
    <use xlink:href="#DejaVuSans-6e" x="1160.449219"/>
    <use xlink:href="#DejaVuSans-61" x="1223.828125"/>
    <use xlink:href="#DejaVuSans-6c" x="1285.107422"/>
    <use xlink:href="#DejaVuSans-79" x="1312.890625"/>
    <use xlink:href="#DejaVuSans-73" x="1372.070312"/>
    <use xlink:href="#DejaVuSans-69" x="1424.169922"/>
    <use xlink:href="#DejaVuSans-73" x="1451.953125"/>
    <use xlink:href="#DejaVuSans-20" x="1504.052734"/>
    <use xlink:href="#DejaVuSans-28" x="1535.839844"/>
    <use xlink:href="#DejaVuSans-53" x="1574.853516"/>
    <use xlink:href="#DejaVuSans-77" x="1638.330078"/>
    <use xlink:href="#DejaVuSans-65" x="1720.117188"/>
    <use xlink:href="#DejaVuSans-65" x="1781.640625"/>
    <use xlink:href="#DejaVuSans-70" x="1843.164062"/>
    <use xlink:href="#DejaVuSans-20" x="1906.640625"/>
    <use xlink:href="#DejaVuSans-3d" x="1938.427734"/>
    <use xlink:href="#DejaVuSans-20" x="2022.216797"/>
    <use xlink:href="#DejaVuSans-31" x="2054.003906"/>
    <use xlink:href="#DejaVuSans-32" x="2117.626953"/>
    <use xlink:href="#DejaVuSans-45" x="2181.25"/>
    <use xlink:href="#DejaVuSans-2d" x="2244.433594"/>
    <use xlink:href="#DejaVuSans-39" x="2280.517578"/>
    <use xlink:href="#DejaVuSans-29" x="2344.140625"/>
   </g>
  </g>
 </g>
 <defs>
  <clipPath id="p9b9cd0a42d">
   <rect x="100.8" y="38.88" width="887.04" height="92.731034"/>
  </clipPath>
  <clipPath id="p3af7ede1c3">
   <rect x="100.8" y="150.157241" width="887.04" height="92.731034"/>
  </clipPath>
  <clipPath id="p6a9c574b18">
   <rect x="100.8" y="261.434483" width="887.04" height="92.731034"/>
  </clipPath>
  <clipPath id="pa38ae0090f">
   <rect x="100.8" y="372.711724" width="887.04" height="92.731034"/>
  </clipPath>
  <clipPath id="p6bdd39ac7b">
   <rect x="100.8" y="483.988966" width="887.04" height="92.731034"/>
  </clipPath>
  <clipPath id="pe1d8983667">
   <rect x="201.6" y="609.12" width="655.2" height="25.92"/>
  </clipPath>
  <clipPath id="p71393be7ae">
   <path d="M 201.6 628.56 
L 856.8 628.56 
L 856.8 615.6 
L 201.6 615.6 
z
"/>
  </clipPath>
 </defs>
</svg>
