<?xml version="1.0" encoding="utf-8" standalone="no"?>
<!DOCTYPE svg PUBLIC "-//W3C//DTD SVG 1.1//EN"
  "http://www.w3.org/Graphics/SVG/1.1/DTD/svg11.dtd">
<svg xmlns:xlink="http://www.w3.org/1999/xlink" width="1008pt" height="648pt" viewBox="0 0 1008 648" xmlns="http://www.w3.org/2000/svg" version="1.1">
 <metadata>
  <rdf:RDF xmlns:dc="http://purl.org/dc/elements/1.1/" xmlns:cc="http://creativecommons.org/ns#" xmlns:rdf="http://www.w3.org/1999/02/22-rdf-syntax-ns#">
   <cc:Work>
    <dc:type rdf:resource="http://purl.org/dc/dcmitype/StillImage"/>
    <dc:date>2024-06-03T10:45:33.695938</dc:date>
    <dc:format>image/svg+xml</dc:format>
    <dc:creator>
     <cc:Agent>
      <dc:title>Matplotlib v3.9.0, https://matplotlib.org/</dc:title>
     </cc:Agent>
    </dc:creator>
   </cc:Work>
  </rdf:RDF>
 </metadata>
 <defs>
  <style type="text/css">*{stroke-linejoin: round; stroke-linecap: butt}</style>
 </defs>
 <g id="figure_1">
  <g id="patch_1">
   <path d="M 0 648 
L 1008 648 
L 1008 0 
L 0 0 
z
" style="fill: #ffffff"/>
  </g>
  <g id="axes_1">
   <g id="patch_2">
    <path d="M 100.8 131.611034 
L 987.84 131.611034 
L 987.84 38.88 
L 100.8 38.88 
z
" style="fill: #eeeeee"/>
   </g>
   <g id="matplotlib.axis_1">
    <g id="xtick_1">
     <g id="line2d_1">
      <path d="M 141.12 131.611034 
L 141.12 38.88 
" clip-path="url(#p763f0928e8)" style="fill: none; stroke-dasharray: 1.85,0.8; stroke-dashoffset: 0; stroke: #b2b2b2; stroke-width: 0.5"/>
     </g>
     <g id="line2d_2">
      <defs>
       <path id="m8a9d1afda6" d="M 0 0 
L 0 -3.5 
" style="stroke: #000000; stroke-width: 0.8"/>
      </defs>
      <g>
       <use xlink:href="#m8a9d1afda6" x="141.12" y="131.611034" style="stroke: #000000; stroke-width: 0.8"/>
      </g>
     </g>
    </g>
    <g id="xtick_2">
     <g id="line2d_3">
      <path d="M 302.4 131.611034 
L 302.4 38.88 
" clip-path="url(#p763f0928e8)" style="fill: none; stroke-dasharray: 1.85,0.8; stroke-dashoffset: 0; stroke: #b2b2b2; stroke-width: 0.5"/>
     </g>
     <g id="line2d_4">
      <g>
       <use xlink:href="#m8a9d1afda6" x="302.4" y="131.611034" style="stroke: #000000; stroke-width: 0.8"/>
      </g>
     </g>
    </g>
    <g id="xtick_3">
     <g id="line2d_5">
      <path d="M 463.68 131.611034 
L 463.68 38.88 
" clip-path="url(#p763f0928e8)" style="fill: none; stroke-dasharray: 1.85,0.8; stroke-dashoffset: 0; stroke: #b2b2b2; stroke-width: 0.5"/>
     </g>
     <g id="line2d_6">
      <g>
       <use xlink:href="#m8a9d1afda6" x="463.68" y="131.611034" style="stroke: #000000; stroke-width: 0.8"/>
      </g>
     </g>
    </g>
    <g id="xtick_4">
     <g id="line2d_7">
      <path d="M 624.96 131.611034 
L 624.96 38.88 
" clip-path="url(#p763f0928e8)" style="fill: none; stroke-dasharray: 1.85,0.8; stroke-dashoffset: 0; stroke: #b2b2b2; stroke-width: 0.5"/>
     </g>
     <g id="line2d_8">
      <g>
       <use xlink:href="#m8a9d1afda6" x="624.96" y="131.611034" style="stroke: #000000; stroke-width: 0.8"/>
      </g>
     </g>
    </g>
    <g id="xtick_5">
     <g id="line2d_9">
      <path d="M 786.24 131.611034 
L 786.24 38.88 
" clip-path="url(#p763f0928e8)" style="fill: none; stroke-dasharray: 1.85,0.8; stroke-dashoffset: 0; stroke: #b2b2b2; stroke-width: 0.5"/>
     </g>
     <g id="line2d_10">
      <g>
       <use xlink:href="#m8a9d1afda6" x="786.24" y="131.611034" style="stroke: #000000; stroke-width: 0.8"/>
      </g>
     </g>
    </g>
    <g id="xtick_6">
     <g id="line2d_11">
      <path d="M 947.52 131.611034 
L 947.52 38.88 
" clip-path="url(#p763f0928e8)" style="fill: none; stroke-dasharray: 1.85,0.8; stroke-dashoffset: 0; stroke: #b2b2b2; stroke-width: 0.5"/>
     </g>
     <g id="line2d_12">
      <g>
       <use xlink:href="#m8a9d1afda6" x="947.52" y="131.611034" style="stroke: #000000; stroke-width: 0.8"/>
      </g>
     </g>
    </g>
   </g>
   <g id="matplotlib.axis_2">
    <g id="ytick_1">
     <g id="line2d_13">
      <path d="M 100.8 98.340394 
L 987.84 98.340394 
" clip-path="url(#p763f0928e8)" style="fill: none; stroke-dasharray: 1.85,0.8; stroke-dashoffset: 0; stroke: #b2b2b2; stroke-width: 0.5"/>
     </g>
     <g id="line2d_14">
      <defs>
       <path id="me3d8e49b56" d="M 0 0 
L 3.5 0 
" style="stroke: #000000; stroke-width: 0.8"/>
      </defs>
      <g>
       <use xlink:href="#me3d8e49b56" x="100.8" y="98.340394" style="stroke: #000000; stroke-width: 0.8"/>
      </g>
     </g>
     <g id="text_1">
      <!-- −200 V -->
      <g transform="translate(44.819688 103.6593) scale(0.14 -0.14)">
       <defs>
        <path id="DejaVuSans-2212" d="M 678 2272 
L 4684 2272 
L 4684 1741 
L 678 1741 
L 678 2272 
z
" transform="scale(0.015625)"/>
        <path id="DejaVuSans-32" d="M 1228 531 
L 3431 531 
L 3431 0 
L 469 0 
L 469 531 
Q 828 903 1448 1529 
Q 2069 2156 2228 2338 
Q 2531 2678 2651 2914 
Q 2772 3150 2772 3378 
Q 2772 3750 2511 3984 
Q 2250 4219 1831 4219 
Q 1534 4219 1204 4116 
Q 875 4013 500 3803 
L 500 4441 
Q 881 4594 1212 4672 
Q 1544 4750 1819 4750 
Q 2544 4750 2975 4387 
Q 3406 4025 3406 3419 
Q 3406 3131 3298 2873 
Q 3191 2616 2906 2266 
Q 2828 2175 2409 1742 
Q 1991 1309 1228 531 
z
" transform="scale(0.015625)"/>
        <path id="DejaVuSans-30" d="M 2034 4250 
Q 1547 4250 1301 3770 
Q 1056 3291 1056 2328 
Q 1056 1369 1301 889 
Q 1547 409 2034 409 
Q 2525 409 2770 889 
Q 3016 1369 3016 2328 
Q 3016 3291 2770 3770 
Q 2525 4250 2034 4250 
z
M 2034 4750 
Q 2819 4750 3233 4129 
Q 3647 3509 3647 2328 
Q 3647 1150 3233 529 
Q 2819 -91 2034 -91 
Q 1250 -91 836 529 
Q 422 1150 422 2328 
Q 422 3509 836 4129 
Q 1250 4750 2034 4750 
z
" transform="scale(0.015625)"/>
        <path id="DejaVuSans-20" transform="scale(0.015625)"/>
        <path id="DejaVuSans-56" d="M 1831 0 
L 50 4666 
L 709 4666 
L 2188 738 
L 3669 4666 
L 4325 4666 
L 2547 0 
L 1831 0 
z
" transform="scale(0.015625)"/>
       </defs>
       <use xlink:href="#DejaVuSans-2212"/>
       <use xlink:href="#DejaVuSans-32" x="83.789062"/>
       <use xlink:href="#DejaVuSans-30" x="147.412109"/>
       <use xlink:href="#DejaVuSans-30" x="211.035156"/>
       <use xlink:href="#DejaVuSans-20" x="274.658203"/>
       <use xlink:href="#DejaVuSans-56" x="306.445312"/>
      </g>
     </g>
    </g>
    <g id="ytick_2">
     <g id="line2d_15">
      <path d="M 100.8 45.027377 
L 987.84 45.027377 
" clip-path="url(#p763f0928e8)" style="fill: none; stroke-dasharray: 1.85,0.8; stroke-dashoffset: 0; stroke: #b2b2b2; stroke-width: 0.5"/>
     </g>
     <g id="line2d_16">
      <g>
       <use xlink:href="#me3d8e49b56" x="100.8" y="45.027377" style="stroke: #000000; stroke-width: 0.8"/>
      </g>
     </g>
     <g id="text_2">
      <!-- 0 V -->
      <g transform="translate(74.36625 50.346284) scale(0.14 -0.14)">
       <use xlink:href="#DejaVuSans-30"/>
       <use xlink:href="#DejaVuSans-20" x="63.623047"/>
       <use xlink:href="#DejaVuSans-56" x="95.410156"/>
      </g>
     </g>
    </g>
    <g id="text_3">
     <g id="patch_3">
      <path d="M 34.8768 131.080205 
L 34.8768 39.41083 
L 11.247425 39.41083 
L 11.247425 131.080205 
z
" style="fill: #ffff00; opacity: 0.2; stroke: #eeeeee; stroke-width: 0.5; stroke-linejoin: miter"/>
     </g>
     <!-- VPULSE BBI -->
     <g transform="translate(26.925238 126.040205) rotate(-90) scale(0.14 -0.14)">
      <defs>
       <path id="DejaVuSans-50" d="M 1259 4147 
L 1259 2394 
L 2053 2394 
Q 2494 2394 2734 2622 
Q 2975 2850 2975 3272 
Q 2975 3691 2734 3919 
Q 2494 4147 2053 4147 
L 1259 4147 
z
M 628 4666 
L 2053 4666 
Q 2838 4666 3239 4311 
Q 3641 3956 3641 3272 
Q 3641 2581 3239 2228 
Q 2838 1875 2053 1875 
L 1259 1875 
L 1259 0 
L 628 0 
L 628 4666 
z
" transform="scale(0.015625)"/>
       <path id="DejaVuSans-55" d="M 556 4666 
L 1191 4666 
L 1191 1831 
Q 1191 1081 1462 751 
Q 1734 422 2344 422 
Q 2950 422 3222 751 
Q 3494 1081 3494 1831 
L 3494 4666 
L 4128 4666 
L 4128 1753 
Q 4128 841 3676 375 
Q 3225 -91 2344 -91 
Q 1459 -91 1007 375 
Q 556 841 556 1753 
L 556 4666 
z
" transform="scale(0.015625)"/>
       <path id="DejaVuSans-4c" d="M 628 4666 
L 1259 4666 
L 1259 531 
L 3531 531 
L 3531 0 
L 628 0 
L 628 4666 
z
" transform="scale(0.015625)"/>
       <path id="DejaVuSans-53" d="M 3425 4513 
L 3425 3897 
Q 3066 4069 2747 4153 
Q 2428 4238 2131 4238 
Q 1616 4238 1336 4038 
Q 1056 3838 1056 3469 
Q 1056 3159 1242 3001 
Q 1428 2844 1947 2747 
L 2328 2669 
Q 3034 2534 3370 2195 
Q 3706 1856 3706 1288 
Q 3706 609 3251 259 
Q 2797 -91 1919 -91 
Q 1588 -91 1214 -16 
Q 841 59 441 206 
L 441 856 
Q 825 641 1194 531 
Q 1563 422 1919 422 
Q 2459 422 2753 634 
Q 3047 847 3047 1241 
Q 3047 1584 2836 1778 
Q 2625 1972 2144 2069 
L 1759 2144 
Q 1053 2284 737 2584 
Q 422 2884 422 3419 
Q 422 4038 858 4394 
Q 1294 4750 2059 4750 
Q 2388 4750 2728 4690 
Q 3069 4631 3425 4513 
z
" transform="scale(0.015625)"/>
       <path id="DejaVuSans-45" d="M 628 4666 
L 3578 4666 
L 3578 4134 
L 1259 4134 
L 1259 2753 
L 3481 2753 
L 3481 2222 
L 1259 2222 
L 1259 531 
L 3634 531 
L 3634 0 
L 628 0 
L 628 4666 
z
" transform="scale(0.015625)"/>
       <path id="DejaVuSans-42" d="M 1259 2228 
L 1259 519 
L 2272 519 
Q 2781 519 3026 730 
Q 3272 941 3272 1375 
Q 3272 1813 3026 2020 
Q 2781 2228 2272 2228 
L 1259 2228 
z
M 1259 4147 
L 1259 2741 
L 2194 2741 
Q 2656 2741 2882 2914 
Q 3109 3088 3109 3444 
Q 3109 3797 2882 3972 
Q 2656 4147 2194 4147 
L 1259 4147 
z
M 628 4666 
L 2241 4666 
Q 2963 4666 3353 4366 
Q 3744 4066 3744 3513 
Q 3744 3084 3544 2831 
Q 3344 2578 2956 2516 
Q 3422 2416 3680 2098 
Q 3938 1781 3938 1306 
Q 3938 681 3513 340 
Q 3088 0 2303 0 
L 628 0 
L 628 4666 
z
" transform="scale(0.015625)"/>
       <path id="DejaVuSans-49" d="M 628 4666 
L 1259 4666 
L 1259 0 
L 628 0 
L 628 4666 
z
" transform="scale(0.015625)"/>
      </defs>
      <use xlink:href="#DejaVuSans-56"/>
      <use xlink:href="#DejaVuSans-50" x="68.408203"/>
      <use xlink:href="#DejaVuSans-55" x="128.710938"/>
      <use xlink:href="#DejaVuSans-4c" x="201.904297"/>
      <use xlink:href="#DejaVuSans-53" x="257.617188"/>
      <use xlink:href="#DejaVuSans-45" x="321.09375"/>
      <use xlink:href="#DejaVuSans-20" x="384.277344"/>
      <use xlink:href="#DejaVuSans-42" x="416.064453"/>
      <use xlink:href="#DejaVuSans-42" x="484.667969"/>
      <use xlink:href="#DejaVuSans-49" x="553.271484"/>
     </g>
    </g>
   </g>
   <g id="line2d_17">
    <path d="M 141.12 45.027377 
L 263.725056 45.136282 
L 264.208896 46.425538 
L 272.434176 69.006772 
L 279.853056 89.863624 
L 281.465856 94.440546 
L 283.272192 99.673219 
L 286.75584 110.807642 
L 288.336384 115.853719 
L 289.562112 119.550977 
L 293.465088 121.36362 
L 294.045696 121.619522 
L 294.916608 122.003376 
L 295.561728 122.269941 
L 297.142272 122.936354 
L 297.787392 123.202919 
L 298.884096 123.629423 
L 299.625984 123.922644 
L 300.722688 124.349149 
L 301.625856 124.677024 
L 302.303232 124.943589 
L 303.109632 125.25547 
L 304.464384 125.804594 
L 307.109376 126.790885 
L 307.72224 127.022796 
L 309.6576 127.395987 
L 328.140288 127.289361 
L 328.36608 126.801547 
L 346.655232 75.087922 
L 350.396928 63.292417 
L 354.106368 51.617666 
L 358.718976 49.3412 
L 364.073472 46.984578 
L 372.782592 43.484472 
L 373.653504 43.268927 
L 387.942912 43.108189 
L 394.748928 43.184799 
L 410.102784 43.746186 
L 437.8752 44.46146 
L 463.51872 44.774399 
L 499.129344 44.945888 
L 547.158528 44.953885 
L 947.52 44.953885 
L 947.52 44.953885 
" clip-path="url(#p763f0928e8)" style="fill: none; stroke: #ff0000; stroke-width: 2; stroke-linecap: square"/>
   </g>
   <g id="patch_4">
    <path d="M 100.8 131.611034 
L 100.8 38.88 
" style="fill: none; stroke: #bcbcbc; stroke-width: 0.8; stroke-linejoin: miter; stroke-linecap: square"/>
   </g>
   <g id="patch_5">
    <path d="M 987.84 131.611034 
L 987.84 38.88 
" style="fill: none; stroke: #bcbcbc; stroke-width: 0.8; stroke-linejoin: miter; stroke-linecap: square"/>
   </g>
   <g id="patch_6">
    <path d="M 100.8 131.611034 
L 987.84 131.611034 
" style="fill: none; stroke: #bcbcbc; stroke-width: 0.8; stroke-linejoin: miter; stroke-linecap: square"/>
   </g>
   <g id="patch_7">
    <path d="M 100.8 38.88 
L 987.84 38.88 
" style="fill: none; stroke: #bcbcbc; stroke-width: 0.8; stroke-linejoin: miter; stroke-linecap: square"/>
   </g>
  </g>
  <g id="axes_2">
   <g id="patch_8">
    <path d="M 100.8 242.888276 
L 987.84 242.888276 
L 987.84 150.157241 
L 100.8 150.157241 
z
" style="fill: #eeeeee"/>
   </g>
   <g id="matplotlib.axis_3">
    <g id="xtick_7">
     <g id="line2d_18">
      <path d="M 141.12 242.888276 
L 141.12 150.157241 
" clip-path="url(#p1a26fac0d4)" style="fill: none; stroke-dasharray: 1.85,0.8; stroke-dashoffset: 0; stroke: #b2b2b2; stroke-width: 0.5"/>
     </g>
     <g id="line2d_19">
      <g>
       <use xlink:href="#m8a9d1afda6" x="141.12" y="242.888276" style="stroke: #000000; stroke-width: 0.8"/>
      </g>
     </g>
    </g>
    <g id="xtick_8">
     <g id="line2d_20">
      <path d="M 302.4 242.888276 
L 302.4 150.157241 
" clip-path="url(#p1a26fac0d4)" style="fill: none; stroke-dasharray: 1.85,0.8; stroke-dashoffset: 0; stroke: #b2b2b2; stroke-width: 0.5"/>
     </g>
     <g id="line2d_21">
      <g>
       <use xlink:href="#m8a9d1afda6" x="302.4" y="242.888276" style="stroke: #000000; stroke-width: 0.8"/>
      </g>
     </g>
    </g>
    <g id="xtick_9">
     <g id="line2d_22">
      <path d="M 463.68 242.888276 
L 463.68 150.157241 
" clip-path="url(#p1a26fac0d4)" style="fill: none; stroke-dasharray: 1.85,0.8; stroke-dashoffset: 0; stroke: #b2b2b2; stroke-width: 0.5"/>
     </g>
     <g id="line2d_23">
      <g>
       <use xlink:href="#m8a9d1afda6" x="463.68" y="242.888276" style="stroke: #000000; stroke-width: 0.8"/>
      </g>
     </g>
    </g>
    <g id="xtick_10">
     <g id="line2d_24">
      <path d="M 624.96 242.888276 
L 624.96 150.157241 
" clip-path="url(#p1a26fac0d4)" style="fill: none; stroke-dasharray: 1.85,0.8; stroke-dashoffset: 0; stroke: #b2b2b2; stroke-width: 0.5"/>
     </g>
     <g id="line2d_25">
      <g>
       <use xlink:href="#m8a9d1afda6" x="624.96" y="242.888276" style="stroke: #000000; stroke-width: 0.8"/>
      </g>
     </g>
    </g>
    <g id="xtick_11">
     <g id="line2d_26">
      <path d="M 786.24 242.888276 
L 786.24 150.157241 
" clip-path="url(#p1a26fac0d4)" style="fill: none; stroke-dasharray: 1.85,0.8; stroke-dashoffset: 0; stroke: #b2b2b2; stroke-width: 0.5"/>
     </g>
     <g id="line2d_27">
      <g>
       <use xlink:href="#m8a9d1afda6" x="786.24" y="242.888276" style="stroke: #000000; stroke-width: 0.8"/>
      </g>
     </g>
    </g>
    <g id="xtick_12">
     <g id="line2d_28">
      <path d="M 947.52 242.888276 
L 947.52 150.157241 
" clip-path="url(#p1a26fac0d4)" style="fill: none; stroke-dasharray: 1.85,0.8; stroke-dashoffset: 0; stroke: #b2b2b2; stroke-width: 0.5"/>
     </g>
     <g id="line2d_29">
      <g>
       <use xlink:href="#m8a9d1afda6" x="947.52" y="242.888276" style="stroke: #000000; stroke-width: 0.8"/>
      </g>
     </g>
    </g>
   </g>
   <g id="matplotlib.axis_4">
    <g id="ytick_3">
     <g id="line2d_30">
      <path d="M 100.8 219.1543 
L 987.84 219.1543 
" clip-path="url(#p1a26fac0d4)" style="fill: none; stroke-dasharray: 1.85,0.8; stroke-dashoffset: 0; stroke: #b2b2b2; stroke-width: 0.5"/>
     </g>
     <g id="line2d_31">
      <g>
       <use xlink:href="#me3d8e49b56" x="100.8" y="219.1543" style="stroke: #000000; stroke-width: 0.8"/>
      </g>
     </g>
     <g id="text_4">
      <!-- 0 V -->
      <g transform="translate(74.36625 224.473206) scale(0.14 -0.14)">
       <use xlink:href="#DejaVuSans-30"/>
       <use xlink:href="#DejaVuSans-20" x="63.623047"/>
       <use xlink:href="#DejaVuSans-56" x="95.410156"/>
      </g>
     </g>
    </g>
    <g id="ytick_4">
     <g id="line2d_32">
      <path d="M 100.8 185.42421 
L 987.84 185.42421 
" clip-path="url(#p1a26fac0d4)" style="fill: none; stroke-dasharray: 1.85,0.8; stroke-dashoffset: 0; stroke: #b2b2b2; stroke-width: 0.5"/>
     </g>
     <g id="line2d_33">
      <g>
       <use xlink:href="#me3d8e49b56" x="100.8" y="185.42421" style="stroke: #000000; stroke-width: 0.8"/>
      </g>
     </g>
     <g id="text_5">
      <!-- 1 V -->
      <g transform="translate(74.36625 190.743116) scale(0.14 -0.14)">
       <defs>
        <path id="DejaVuSans-31" d="M 794 531 
L 1825 531 
L 1825 4091 
L 703 3866 
L 703 4441 
L 1819 4666 
L 2450 4666 
L 2450 531 
L 3481 531 
L 3481 0 
L 794 0 
L 794 531 
z
" transform="scale(0.015625)"/>
       </defs>
       <use xlink:href="#DejaVuSans-31"/>
       <use xlink:href="#DejaVuSans-20" x="63.623047"/>
       <use xlink:href="#DejaVuSans-56" x="95.410156"/>
      </g>
     </g>
    </g>
    <g id="ytick_5">
     <g id="line2d_34">
      <path d="M 100.8 151.694119 
L 987.84 151.694119 
" clip-path="url(#p1a26fac0d4)" style="fill: none; stroke-dasharray: 1.85,0.8; stroke-dashoffset: 0; stroke: #b2b2b2; stroke-width: 0.5"/>
     </g>
     <g id="line2d_35">
      <g>
       <use xlink:href="#me3d8e49b56" x="100.8" y="151.694119" style="stroke: #000000; stroke-width: 0.8"/>
      </g>
     </g>
     <g id="text_6">
      <!-- 2 V -->
      <g transform="translate(74.36625 157.013025) scale(0.14 -0.14)">
       <use xlink:href="#DejaVuSans-32"/>
       <use xlink:href="#DejaVuSans-20" x="63.623047"/>
       <use xlink:href="#DejaVuSans-56" x="95.410156"/>
      </g>
     </g>
    </g>
    <g id="text_7">
     <g id="patch_9">
      <path d="M 34.8768 224.531509 
L 34.8768 168.514009 
L 11.247425 168.514009 
L 11.247425 224.531509 
z
" style="fill: #ffff00; opacity: 0.2; stroke: #eeeeee; stroke-width: 0.5; stroke-linejoin: miter"/>
     </g>
     <!-- DFF IN -->
     <g transform="translate(26.925238 219.491509) rotate(-90) scale(0.14 -0.14)">
      <defs>
       <path id="DejaVuSans-44" d="M 1259 4147 
L 1259 519 
L 2022 519 
Q 2988 519 3436 956 
Q 3884 1394 3884 2338 
Q 3884 3275 3436 3711 
Q 2988 4147 2022 4147 
L 1259 4147 
z
M 628 4666 
L 1925 4666 
Q 3281 4666 3915 4102 
Q 4550 3538 4550 2338 
Q 4550 1131 3912 565 
Q 3275 0 1925 0 
L 628 0 
L 628 4666 
z
" transform="scale(0.015625)"/>
       <path id="DejaVuSans-46" d="M 628 4666 
L 3309 4666 
L 3309 4134 
L 1259 4134 
L 1259 2759 
L 3109 2759 
L 3109 2228 
L 1259 2228 
L 1259 0 
L 628 0 
L 628 4666 
z
" transform="scale(0.015625)"/>
       <path id="DejaVuSans-4e" d="M 628 4666 
L 1478 4666 
L 3547 763 
L 3547 4666 
L 4159 4666 
L 4159 0 
L 3309 0 
L 1241 3903 
L 1241 0 
L 628 0 
L 628 4666 
z
" transform="scale(0.015625)"/>
      </defs>
      <use xlink:href="#DejaVuSans-44"/>
      <use xlink:href="#DejaVuSans-46" x="77.001953"/>
      <use xlink:href="#DejaVuSans-46" x="134.521484"/>
      <use xlink:href="#DejaVuSans-20" x="192.041016"/>
      <use xlink:href="#DejaVuSans-49" x="223.828125"/>
      <use xlink:href="#DejaVuSans-4e" x="253.320312"/>
     </g>
    </g>
   </g>
   <g id="line2d_36">
    <path d="M 141.12 219.105041 
L 221.953536 219.058787 
L 224.437248 200.264775 
L 225.404928 194.547525 
L 228.243456 181.976994 
L 229.598208 180.715489 
L 231.178752 179.848626 
L 236.533248 179.400016 
L 243.403776 179.292079 
L 244.855296 179.251603 
L 248.113152 179.143667 
L 249.887232 179.069461 
L 251.951616 178.961524 
L 254.241792 178.624223 
L 254.790144 178.047439 
L 255.30624 177.794463 
L 255.886848 177.72363 
L 256.725504 177.831566 
L 260.047872 178.415097 
L 262.144512 178.523033 
L 263.725056 178.607358 
L 263.85408 178.792874 
L 263.918592 179.403389 
L 264.370176 187.838272 
L 264.757248 190.056026 
L 265.112064 192.281537 
L 265.62816 198.364422 
L 266.724864 209.430252 
L 267.434496 214.652345 
L 268.04736 217.622853 
L 268.627968 219.368817 
L 269.208576 220.416143 
L 269.789184 221.023723 
L 270.498816 221.438266 
L 271.789056 221.852707 
L 272.434176 222.186096 
L 273.20832 222.684491 
L 274.82112 223.501434 
L 277.498368 225.078653 
L 278.240256 225.48139 
L 279.046656 225.677362 
L 279.627264 225.586628 
L 280.240128 225.221331 
L 280.885248 224.509964 
L 281.304576 224.160183 
L 281.498112 224.242147 
L 281.788416 224.658376 
L 282.627072 225.969465 
L 282.88512 226.283155 
L 283.143168 226.865336 
L 284.01408 228.660451 
L 284.110848 228.898249 
L 284.465664 229.710807 
L 285.175296 231.057312 
L 285.530112 231.762945 
L 286.078464 232.864907 
L 287.659008 235.52014 
L 287.852544 235.871608 
L 288.239616 236.615356 
L 289.562112 238.672892 
L 289.755648 238.622296 
L 290.207232 237.84077 
L 290.852352 236.839661 
L 291.174912 236.223412 
L 291.27168 236.098274 
L 291.529728 235.888473 
L 292.594176 234.478892 
L 292.819968 234.262682 
L 293.013504 234.086948 
L 293.594112 233.578973 
L 294.142464 233.185343 
L 294.852096 232.379869 
L 295.206912 231.792965 
L 295.561728 231.592608 
L 295.78752 231.478601 
L 297.5616 230.012354 
L 297.948672 229.534398 
L 298.238976 229.256462 
L 298.400256 229.150212 
L 298.69056 228.973804 
L 300.754944 227.184085 
L 300.916224 227.036685 
L 301.625856 226.564464 
L 302.012928 226.330714 
L 303.948288 224.670856 
L 304.17408 224.451948 
L 304.432128 224.315341 
L 305.206272 223.878874 
L 306.948096 222.556992 
L 307.593216 221.922529 
L 308.141568 221.576559 
L 309.238272 220.617815 
L 310.205952 219.423274 
L 311.367168 217.79572 
L 312.0768 216.807091 
L 312.367104 216.344044 
L 312.8832 215.667958 
L 315.366912 212.47473 
L 317.786112 209.885271 
L 318.269952 209.613069 
L 319.17312 209.345253 
L 319.721472 209.369201 
L 320.78592 209.715946 
L 321.721344 210.354457 
L 322.656768 211.30261 
L 324.624384 213.880938 
L 325.527552 214.98661 
L 326.656512 216.131713 
L 327.753216 216.900961 
L 328.269312 217.071568 
L 329.688576 215.980872 
L 331.333632 215.547542 
L 332.527104 215.460181 
L 334.204416 215.552264 
L 335.94624 215.772184 
L 336.397824 215.818563 
L 337.107456 215.923194 
L 337.752576 215.996725 
L 338.333184 216.058991 
L 339.236352 216.157854 
L 340.204032 216.237322 
L 340.558848 216.276719 
L 342.461952 216.405871 
L 347.687424 216.529795 
L 347.751936 215.908791 
L 349.300224 193.971415 
L 350.493696 179.828388 
L 352.009728 164.828616 
L 352.654848 159.914142 
L 353.267712 156.868315 
L 353.912832 154.800661 
L 354.138624 154.466733 
L 354.461184 154.379034 
L 356.525568 154.706216 
L 357.07392 154.817526 
L 358.783488 155.286374 
L 361.976832 156.40284 
L 364.00896 157.138156 
L 364.686336 157.391131 
L 373.556736 160.288546 
L 374.49216 160.791125 
L 375.105024 161.317314 
L 376.169472 166.022662 
L 376.459776 166.488137 
L 376.75008 166.569089 
L 377.169408 166.322859 
L 377.588736 165.894487 
L 378.266112 165.155798 
L 378.84672 164.700442 
L 380.395008 164.315919 
L 386.58816 165.719091 
L 387.652608 166.046273 
L 388.717056 166.380201 
L 400.038912 169.82067 
L 400.748544 170.006185 
L 401.490432 170.198447 
L 404.522496 170.940509 
L 405.232128 171.119278 
L 406.26432 171.338524 
L 407.425536 171.5915 
L 407.973888 171.699436 
L 414.844416 173.028401 
L 415.489536 172.930584 
L 415.908864 172.45499 
L 416.457216 172.235744 
L 417.360384 172.441498 
L 417.844224 172.653997 
L 418.5216 172.974433 
L 418.973184 173.173441 
L 420.61824 173.743479 
L 421.42464 173.939114 
L 422.037504 174.077407 
L 423.36 174.323637 
L 424.069632 174.434946 
L 424.747008 174.539509 
L 426.198528 174.735144 
L 427.004928 174.84308 
L 441.197568 176.215895 
L 442.616832 176.317085 
L 443.165184 176.374426 
L 444.907008 176.47899 
L 445.713408 176.536331 
L 448.68096 176.735338 
L 450.745344 176.843275 
L 453.132288 176.981568 
L 453.906432 177.011925 
L 455.841792 177.298631 
L 456.228864 177.777598 
L 456.712704 178.098034 
L 457.87392 178.229581 
L 458.68032 178.040693 
L 459.841536 177.673035 
L 460.680192 177.524622 
L 461.58336 177.447043 
L 466.937856 177.551607 
L 467.615232 177.581964 
L 468.453888 177.595456 
L 468.873216 177.62244 
L 469.64736 177.652797 
L 470.195712 177.659543 
L 473.292288 177.767479 
L 473.872896 177.777598 
L 474.64704 177.807955 
L 478.324224 177.912519 
L 478.904832 177.926011 
L 479.678976 177.956368 
L 484.710912 178.064304 
L 486.065664 178.094661 
L 492.162048 178.202597 
L 493.258752 178.20597 
L 496.09728 178.121645 
L 496.548864 177.649424 
L 497.129472 177.349226 
L 497.903616 177.295258 
L 498.871296 177.484146 
L 502.419456 178.114899 
L 505.45152 178.222835 
L 506.838528 178.256565 
L 536.385024 178.347637 
L 537.0624 179.039104 
L 537.804288 179.305571 
L 540.288 179.201008 
L 542.610432 178.826604 
L 547.803648 178.394859 
L 576.672768 178.31728 
L 577.285632 177.666289 
L 578.253312 177.372837 
L 579.382272 177.474027 
L 580.76928 177.794463 
L 582.38208 178.020455 
L 585.252864 178.209343 
L 616.992768 178.313907 
L 617.928192 179.143667 
L 618.863616 179.322436 
L 620.960256 179.2145 
L 622.70208 178.921048 
L 624.185856 178.722041 
L 628.733952 178.357756 
L 657.345024 178.263311 
L 657.86112 177.703392 
L 658.409472 177.430178 
L 660.312576 177.534742 
L 663.570432 178.10478 
L 665.731584 178.219462 
L 697.632768 178.313907 
L 698.568192 179.143667 
L 699.503616 179.322436 
L 701.600256 179.2145 
L 703.374336 178.917675 
L 704.696832 178.752398 
L 709.244928 178.388113 
L 737.952768 178.313907 
L 738.50112 177.703392 
L 739.049472 177.430178 
L 740.984832 177.538115 
L 744.242688 178.108153 
L 746.40384 178.222835 
L 778.272768 178.313907 
L 779.208192 179.143667 
L 780.143616 179.322436 
L 781.433856 179.352793 
L 784.207872 178.883945 
L 790.11072 178.377994 
L 818.592768 178.313907 
L 819.14112 177.703392 
L 819.689472 177.430178 
L 821.624832 177.538115 
L 824.882688 178.108153 
L 827.04384 178.222835 
L 858.912768 178.313907 
L 859.880448 179.177397 
L 861.299712 179.362912 
L 862.977024 179.254976 
L 864.718848 178.961524 
L 867.009024 178.593866 
L 870.395904 178.35101 
L 899.265024 178.270057 
L 899.748864 177.743868 
L 900.361728 177.426805 
L 901.5552 177.406567 
L 905.522688 178.125018 
L 907.232256 178.192478 
L 939.520512 178.300415 
L 939.681792 178.482557 
L 940.165632 178.964897 
L 940.649472 179.184143 
L 941.55264 179.359539 
L 943.455744 179.251603 
L 944.842752 178.995254 
L 947.068416 178.641088 
L 947.52 178.570255 
L 947.52 178.570255 
" clip-path="url(#p1a26fac0d4)" style="fill: none; stroke: #008000; stroke-width: 2; stroke-linecap: square"/>
   </g>
   <g id="patch_10">
    <path d="M 100.8 242.888276 
L 100.8 150.157241 
" style="fill: none; stroke: #bcbcbc; stroke-width: 0.8; stroke-linejoin: miter; stroke-linecap: square"/>
   </g>
   <g id="patch_11">
    <path d="M 987.84 242.888276 
L 987.84 150.157241 
" style="fill: none; stroke: #bcbcbc; stroke-width: 0.8; stroke-linejoin: miter; stroke-linecap: square"/>
   </g>
   <g id="patch_12">
    <path d="M 100.8 242.888276 
L 987.84 242.888276 
" style="fill: none; stroke: #bcbcbc; stroke-width: 0.8; stroke-linejoin: miter; stroke-linecap: square"/>
   </g>
   <g id="patch_13">
    <path d="M 100.8 150.157241 
L 987.84 150.157241 
" style="fill: none; stroke: #bcbcbc; stroke-width: 0.8; stroke-linejoin: miter; stroke-linecap: square"/>
   </g>
  </g>
  <g id="axes_3">
   <g id="patch_14">
    <path d="M 100.8 354.165517 
L 987.84 354.165517 
L 987.84 261.434483 
L 100.8 261.434483 
z
" style="fill: #eeeeee"/>
   </g>
   <g id="matplotlib.axis_5">
    <g id="xtick_13">
     <g id="line2d_37">
      <path d="M 141.12 354.165517 
L 141.12 261.434483 
" clip-path="url(#pa59107cb9e)" style="fill: none; stroke-dasharray: 1.85,0.8; stroke-dashoffset: 0; stroke: #b2b2b2; stroke-width: 0.5"/>
     </g>
     <g id="line2d_38">
      <g>
       <use xlink:href="#m8a9d1afda6" x="141.12" y="354.165517" style="stroke: #000000; stroke-width: 0.8"/>
      </g>
     </g>
    </g>
    <g id="xtick_14">
     <g id="line2d_39">
      <path d="M 302.4 354.165517 
L 302.4 261.434483 
" clip-path="url(#pa59107cb9e)" style="fill: none; stroke-dasharray: 1.85,0.8; stroke-dashoffset: 0; stroke: #b2b2b2; stroke-width: 0.5"/>
     </g>
     <g id="line2d_40">
      <g>
       <use xlink:href="#m8a9d1afda6" x="302.4" y="354.165517" style="stroke: #000000; stroke-width: 0.8"/>
      </g>
     </g>
    </g>
    <g id="xtick_15">
     <g id="line2d_41">
      <path d="M 463.68 354.165517 
L 463.68 261.434483 
" clip-path="url(#pa59107cb9e)" style="fill: none; stroke-dasharray: 1.85,0.8; stroke-dashoffset: 0; stroke: #b2b2b2; stroke-width: 0.5"/>
     </g>
     <g id="line2d_42">
      <g>
       <use xlink:href="#m8a9d1afda6" x="463.68" y="354.165517" style="stroke: #000000; stroke-width: 0.8"/>
      </g>
     </g>
    </g>
    <g id="xtick_16">
     <g id="line2d_43">
      <path d="M 624.96 354.165517 
L 624.96 261.434483 
" clip-path="url(#pa59107cb9e)" style="fill: none; stroke-dasharray: 1.85,0.8; stroke-dashoffset: 0; stroke: #b2b2b2; stroke-width: 0.5"/>
     </g>
     <g id="line2d_44">
      <g>
       <use xlink:href="#m8a9d1afda6" x="624.96" y="354.165517" style="stroke: #000000; stroke-width: 0.8"/>
      </g>
     </g>
    </g>
    <g id="xtick_17">
     <g id="line2d_45">
      <path d="M 786.24 354.165517 
L 786.24 261.434483 
" clip-path="url(#pa59107cb9e)" style="fill: none; stroke-dasharray: 1.85,0.8; stroke-dashoffset: 0; stroke: #b2b2b2; stroke-width: 0.5"/>
     </g>
     <g id="line2d_46">
      <g>
       <use xlink:href="#m8a9d1afda6" x="786.24" y="354.165517" style="stroke: #000000; stroke-width: 0.8"/>
      </g>
     </g>
    </g>
    <g id="xtick_18">
     <g id="line2d_47">
      <path d="M 947.52 354.165517 
L 947.52 261.434483 
" clip-path="url(#pa59107cb9e)" style="fill: none; stroke-dasharray: 1.85,0.8; stroke-dashoffset: 0; stroke: #b2b2b2; stroke-width: 0.5"/>
     </g>
     <g id="line2d_48">
      <g>
       <use xlink:href="#m8a9d1afda6" x="947.52" y="354.165517" style="stroke: #000000; stroke-width: 0.8"/>
      </g>
     </g>
    </g>
   </g>
   <g id="matplotlib.axis_6">
    <g id="ytick_6">
     <g id="line2d_49">
      <path d="M 100.8 346.633498 
L 987.84 346.633498 
" clip-path="url(#pa59107cb9e)" style="fill: none; stroke-dasharray: 1.85,0.8; stroke-dashoffset: 0; stroke: #b2b2b2; stroke-width: 0.5"/>
     </g>
     <g id="line2d_50">
      <g>
       <use xlink:href="#me3d8e49b56" x="100.8" y="346.633498" style="stroke: #000000; stroke-width: 0.8"/>
      </g>
     </g>
     <g id="text_8">
      <!-- 0 V -->
      <g transform="translate(74.36625 351.952404) scale(0.14 -0.14)">
       <use xlink:href="#DejaVuSans-30"/>
       <use xlink:href="#DejaVuSans-20" x="63.623047"/>
       <use xlink:href="#DejaVuSans-56" x="95.410156"/>
      </g>
     </g>
    </g>
    <g id="ytick_7">
     <g id="line2d_51">
      <path d="M 100.8 304.611929 
L 987.84 304.611929 
" clip-path="url(#pa59107cb9e)" style="fill: none; stroke-dasharray: 1.85,0.8; stroke-dashoffset: 0; stroke: #b2b2b2; stroke-width: 0.5"/>
     </g>
     <g id="line2d_52">
      <g>
       <use xlink:href="#me3d8e49b56" x="100.8" y="304.611929" style="stroke: #000000; stroke-width: 0.8"/>
      </g>
     </g>
     <g id="text_9">
      <!-- 1 V -->
      <g transform="translate(74.36625 309.930835) scale(0.14 -0.14)">
       <use xlink:href="#DejaVuSans-31"/>
       <use xlink:href="#DejaVuSans-20" x="63.623047"/>
       <use xlink:href="#DejaVuSans-56" x="95.410156"/>
      </g>
     </g>
    </g>
    <g id="ytick_8">
     <g id="line2d_53">
      <path d="M 100.8 262.59036 
L 987.84 262.59036 
" clip-path="url(#pa59107cb9e)" style="fill: none; stroke-dasharray: 1.85,0.8; stroke-dashoffset: 0; stroke: #b2b2b2; stroke-width: 0.5"/>
     </g>
     <g id="line2d_54">
      <g>
       <use xlink:href="#me3d8e49b56" x="100.8" y="262.59036" style="stroke: #000000; stroke-width: 0.8"/>
      </g>
     </g>
     <g id="text_10">
      <!-- 2 V -->
      <g transform="translate(74.36625 267.909266) scale(0.14 -0.14)">
       <use xlink:href="#DejaVuSans-32"/>
       <use xlink:href="#DejaVuSans-20" x="63.623047"/>
       <use xlink:href="#DejaVuSans-56" x="95.410156"/>
      </g>
     </g>
    </g>
    <g id="text_11">
     <g id="patch_15">
      <path d="M 34.8768 342.395313 
L 34.8768 273.204688 
L 11.247425 273.204688 
L 11.247425 342.395313 
z
" style="fill: #ffff00; opacity: 0.2; stroke: #eeeeee; stroke-width: 0.5; stroke-linejoin: miter"/>
     </g>
     <!-- CLK BUF -->
     <g transform="translate(26.925238 337.355313) rotate(-90) scale(0.14 -0.14)">
      <defs>
       <path id="DejaVuSans-43" d="M 4122 4306 
L 4122 3641 
Q 3803 3938 3442 4084 
Q 3081 4231 2675 4231 
Q 1875 4231 1450 3742 
Q 1025 3253 1025 2328 
Q 1025 1406 1450 917 
Q 1875 428 2675 428 
Q 3081 428 3442 575 
Q 3803 722 4122 1019 
L 4122 359 
Q 3791 134 3420 21 
Q 3050 -91 2638 -91 
Q 1578 -91 968 557 
Q 359 1206 359 2328 
Q 359 3453 968 4101 
Q 1578 4750 2638 4750 
Q 3056 4750 3426 4639 
Q 3797 4528 4122 4306 
z
" transform="scale(0.015625)"/>
       <path id="DejaVuSans-4b" d="M 628 4666 
L 1259 4666 
L 1259 2694 
L 3353 4666 
L 4166 4666 
L 1850 2491 
L 4331 0 
L 3500 0 
L 1259 2247 
L 1259 0 
L 628 0 
L 628 4666 
z
" transform="scale(0.015625)"/>
      </defs>
      <use xlink:href="#DejaVuSans-43"/>
      <use xlink:href="#DejaVuSans-4c" x="69.824219"/>
      <use xlink:href="#DejaVuSans-4b" x="125.537109"/>
      <use xlink:href="#DejaVuSans-20" x="191.113281"/>
      <use xlink:href="#DejaVuSans-42" x="222.900391"/>
      <use xlink:href="#DejaVuSans-55" x="291.503906"/>
      <use xlink:href="#DejaVuSans-46" x="364.697266"/>
     </g>
    </g>
   </g>
   <g id="line2d_55">
    <path d="M 141.12 346.632387 
L 173.376 346.632387 
L 173.601792 296.207615 
L 213.696 296.207615 
L 213.760512 336.43024 
L 213.825024 346.6143 
L 213.889536 346.553829 
L 213.954048 346.721701 
L 214.01856 346.638052 
L 215.405568 346.628397 
L 223.630848 346.632318 
L 254.016 346.632369 
L 254.17728 296.052135 
L 254.241792 296.321073 
L 254.403072 296.19921 
L 254.854656 296.207615 
L 263.789568 296.316871 
L 265.434624 298.640664 
L 267.07968 301.414087 
L 273.982464 312.891018 
L 277.917696 318.690415 
L 281.207808 323.114025 
L 281.240064 323.091754 
L 281.27232 323.160249 
L 281.401344 323.445996 
L 281.465856 323.393889 
L 281.627136 323.622066 
L 282.659328 324.789005 
L 282.691584 324.72051 
L 282.788352 324.813798 
L 282.981888 325.050379 
L 283.014144 324.997852 
L 283.0464 325.028108 
L 283.20768 325.216365 
L 284.272128 326.196308 
L 286.723584 328.097784 
L 289.368576 329.857227 
L 289.562112 329.884541 
L 290.594304 329.365574 
L 292.755456 328.528505 
L 292.787712 328.565484 
L 292.819968 328.456228 
L 293.271552 328.346131 
L 293.400576 328.250322 
L 293.5296 328.240237 
L 293.981184 328.083496 
L 294.336 327.959533 
L 294.465024 326.867392 
L 294.49728 326.661907 
L 294.529536 327.037159 
L 294.594048 331.017442 
L 294.81984 349.95047 
L 294.852096 349.884496 
L 295.013376 349.894287 
L 295.400448 349.781586 
L 300.400128 348.310621 
L 300.916224 348.178 
L 301.174272 348.106228 
L 304.851456 347.266679 
L 311.173632 346.183068 
L 314.33472 346.080284 
L 318.915072 346.125121 
L 328.269312 346.143988 
L 328.914432 345.53476 
L 329.720832 345.12299 
L 330.753024 344.881534 
L 332.301312 344.783876 
L 334.656 344.828167 
L 334.881792 298.266672 
L 336.2688 295.463833 
L 338.333184 291.417156 
L 339.526656 289.177406 
L 343.20384 282.689276 
L 343.655424 281.924483 
L 344.848896 279.966278 
L 346.171392 277.882009 
L 347.493888 275.852367 
L 347.977728 275.049755 
L 349.074432 273.263838 
L 349.65504 272.326757 
L 350.62272 270.776161 
L 351.300096 269.72142 
L 352.493568 267.918695 
L 354.106368 265.76719 
L 354.686976 265.666338 
L 355.009536 265.64953 
L 355.751424 265.750382 
L 356.686848 265.998309 
L 357.009408 266.099161 
L 360.751104 267.679172 
L 362.331648 268.380932 
L 364.589568 269.372641 
L 365.073408 269.620568 
L 373.782528 273.133571 
L 374.395392 273.48235 
L 374.976 273.814321 
L 375.040512 347.378162 
L 375.169536 347.099223 
L 376.040448 347.114477 
L 381.58848 347.075985 
L 404.522496 346.888316 
L 415.296 346.819884 
L 415.392768 288.437827 
L 415.521792 289.328684 
L 415.973376 289.442142 
L 417.295872 289.723687 
L 417.844224 289.824538 
L 418.36032 289.933795 
L 418.908672 290.034646 
L 419.424768 290.143902 
L 419.97312 290.244754 
L 420.585984 290.35401 
L 421.134336 290.454862 
L 421.7472 290.559916 
L 422.102016 290.622948 
L 422.71488 290.732204 
L 423.263232 290.833056 
L 423.972864 290.93811 
L 424.32768 291.001142 
L 424.940544 291.106196 
L 425.29536 291.169229 
L 426.004992 291.274283 
L 426.359808 291.337315 
L 427.166208 291.442369 
L 427.521024 291.505401 
L 428.230656 291.610455 
L 428.585472 291.673487 
L 429.48864 291.778541 
L 429.843456 291.841574 
L 430.649856 291.946628 
L 431.004672 292.00966 
L 431.90784 292.114714 
L 432.165888 292.135725 
L 432.972288 292.240779 
L 433.294848 292.299609 
L 434.32704 292.408865 
L 434.6496 292.467695 
L 435.681792 292.576951 
L 435.93984 292.597962 
L 436.843008 292.703016 
L 437.101056 292.724027 
L 438.004224 292.829081 
L 438.262272 292.850091 
L 439.16544 292.955145 
L 439.423488 292.976156 
L 440.423424 293.08121 
L 440.681472 293.102221 
L 441.681408 293.207275 
L 441.939456 293.228286 
L 443.03616 293.333339 
L 443.294208 293.35435 
L 444.48768 293.459404 
L 444.745728 293.476213 
L 445.9392 293.585469 
L 446.197248 293.602278 
L 447.487488 293.711534 
L 447.745536 293.728342 
L 449.132544 293.837598 
L 449.390592 293.858609 
L 450.874368 293.963663 
L 451.132416 293.984674 
L 451.648512 294.022493 
L 453.132288 294.106536 
L 454.551552 294.215792 
L 454.8096 294.232601 
L 455.616 294.274623 
L 455.648256 298.565025 
L 455.712768 347.214404 
L 455.77728 346.646734 
L 455.93856 346.687878 
L 457.325568 346.683751 
L 495.548928 346.647346 
L 495.936 346.647165 
L 496.065024 295.49745 
L 496.161792 295.665537 
L 496.710144 295.703356 
L 536.256 295.787399 
L 536.385024 346.95437 
L 536.546304 346.710023 
L 536.804352 346.616352 
L 537.159168 346.662066 
L 537.481728 346.6442 
L 576.511488 346.644421 
L 576.576 346.644421 
L 576.705024 295.615111 
L 576.769536 295.791601 
L 576.834048 295.825219 
L 576.866304 295.795803 
L 577.027584 295.787399 
L 616.896 295.787399 
L 617.025024 346.954366 
L 617.186304 346.710023 
L 617.444352 346.616352 
L 617.799168 346.662066 
L 618.121728 346.6442 
L 657.119232 346.644546 
L 657.216 346.644546 
L 657.37728 295.568887 
L 657.441792 296.043731 
L 657.53856 295.615111 
L 657.603072 295.77059 
L 658.086912 295.787399 
L 697.536 295.787399 
L 697.665024 346.954542 
L 697.826304 346.709981 
L 698.084352 346.616361 
L 698.439168 346.662077 
L 698.761728 346.644201 
L 737.597952 346.644421 
L 737.856 346.644421 
L 738.01728 295.568887 
L 738.081792 296.043731 
L 738.17856 295.610909 
L 738.243072 295.77059 
L 738.726912 295.787399 
L 778.176 295.787399 
L 778.305024 346.95437 
L 778.466304 346.710023 
L 778.724352 346.616352 
L 779.079168 346.662066 
L 779.401728 346.6442 
L 818.431488 346.644421 
L 818.496 346.644421 
L 818.65728 295.568887 
L 818.721792 296.043731 
L 818.81856 295.610909 
L 818.883072 295.77059 
L 819.366912 295.787399 
L 858.816 295.787399 
L 859.106304 346.738392 
L 859.267584 346.64185 
L 860.686848 346.640953 
L 869.331456 346.649614 
L 898.16832 346.644459 
L 899.136 346.64446 
L 899.29728 295.703356 
L 899.361792 295.804208 
L 900.329472 295.787399 
L 939.456 295.787399 
L 939.488256 303.363888 
L 939.61728 346.594434 
L 939.649536 346.716629 
L 939.714048 346.599728 
L 939.810816 346.617091 
L 940.004352 346.669567 
L 940.230144 346.643087 
L 945.778176 346.644424 
L 947.52 346.644411 
L 947.52 346.644411 
" clip-path="url(#pa59107cb9e)" style="fill: none; stroke: #0000ff; stroke-width: 2; stroke-linecap: square"/>
   </g>
   <g id="patch_16">
    <path d="M 100.8 354.165517 
L 100.8 261.434483 
" style="fill: none; stroke: #bcbcbc; stroke-width: 0.8; stroke-linejoin: miter; stroke-linecap: square"/>
   </g>
   <g id="patch_17">
    <path d="M 987.84 354.165517 
L 987.84 261.434483 
" style="fill: none; stroke: #bcbcbc; stroke-width: 0.8; stroke-linejoin: miter; stroke-linecap: square"/>
   </g>
   <g id="patch_18">
    <path d="M 100.8 354.165517 
L 987.84 354.165517 
" style="fill: none; stroke: #bcbcbc; stroke-width: 0.8; stroke-linejoin: miter; stroke-linecap: square"/>
   </g>
   <g id="patch_19">
    <path d="M 100.8 261.434483 
L 987.84 261.434483 
" style="fill: none; stroke: #bcbcbc; stroke-width: 0.8; stroke-linejoin: miter; stroke-linecap: square"/>
   </g>
  </g>
  <g id="axes_4">
   <g id="patch_20">
    <path d="M 100.8 465.442759 
L 987.84 465.442759 
L 987.84 372.711724 
L 100.8 372.711724 
z
" style="fill: #eeeeee"/>
   </g>
   <g id="matplotlib.axis_7">
    <g id="xtick_19">
     <g id="line2d_56">
      <path d="M 141.12 465.442759 
L 141.12 372.711724 
" clip-path="url(#p930b99f96f)" style="fill: none; stroke-dasharray: 1.85,0.8; stroke-dashoffset: 0; stroke: #b2b2b2; stroke-width: 0.5"/>
     </g>
     <g id="line2d_57">
      <g>
       <use xlink:href="#m8a9d1afda6" x="141.12" y="465.442759" style="stroke: #000000; stroke-width: 0.8"/>
      </g>
     </g>
    </g>
    <g id="xtick_20">
     <g id="line2d_58">
      <path d="M 302.4 465.442759 
L 302.4 372.711724 
" clip-path="url(#p930b99f96f)" style="fill: none; stroke-dasharray: 1.85,0.8; stroke-dashoffset: 0; stroke: #b2b2b2; stroke-width: 0.5"/>
     </g>
     <g id="line2d_59">
      <g>
       <use xlink:href="#m8a9d1afda6" x="302.4" y="465.442759" style="stroke: #000000; stroke-width: 0.8"/>
      </g>
     </g>
    </g>
    <g id="xtick_21">
     <g id="line2d_60">
      <path d="M 463.68 465.442759 
L 463.68 372.711724 
" clip-path="url(#p930b99f96f)" style="fill: none; stroke-dasharray: 1.85,0.8; stroke-dashoffset: 0; stroke: #b2b2b2; stroke-width: 0.5"/>
     </g>
     <g id="line2d_61">
      <g>
       <use xlink:href="#m8a9d1afda6" x="463.68" y="465.442759" style="stroke: #000000; stroke-width: 0.8"/>
      </g>
     </g>
    </g>
    <g id="xtick_22">
     <g id="line2d_62">
      <path d="M 624.96 465.442759 
L 624.96 372.711724 
" clip-path="url(#p930b99f96f)" style="fill: none; stroke-dasharray: 1.85,0.8; stroke-dashoffset: 0; stroke: #b2b2b2; stroke-width: 0.5"/>
     </g>
     <g id="line2d_63">
      <g>
       <use xlink:href="#m8a9d1afda6" x="624.96" y="465.442759" style="stroke: #000000; stroke-width: 0.8"/>
      </g>
     </g>
    </g>
    <g id="xtick_23">
     <g id="line2d_64">
      <path d="M 786.24 465.442759 
L 786.24 372.711724 
" clip-path="url(#p930b99f96f)" style="fill: none; stroke-dasharray: 1.85,0.8; stroke-dashoffset: 0; stroke: #b2b2b2; stroke-width: 0.5"/>
     </g>
     <g id="line2d_65">
      <g>
       <use xlink:href="#m8a9d1afda6" x="786.24" y="465.442759" style="stroke: #000000; stroke-width: 0.8"/>
      </g>
     </g>
    </g>
    <g id="xtick_24">
     <g id="line2d_66">
      <path d="M 947.52 465.442759 
L 947.52 372.711724 
" clip-path="url(#p930b99f96f)" style="fill: none; stroke-dasharray: 1.85,0.8; stroke-dashoffset: 0; stroke: #b2b2b2; stroke-width: 0.5"/>
     </g>
     <g id="line2d_67">
      <g>
       <use xlink:href="#m8a9d1afda6" x="947.52" y="465.442759" style="stroke: #000000; stroke-width: 0.8"/>
      </g>
     </g>
    </g>
   </g>
   <g id="matplotlib.axis_8">
    <g id="ytick_9">
     <g id="line2d_68">
      <path d="M 100.8 436.215719 
L 987.84 436.215719 
" clip-path="url(#p930b99f96f)" style="fill: none; stroke-dasharray: 1.85,0.8; stroke-dashoffset: 0; stroke: #b2b2b2; stroke-width: 0.5"/>
     </g>
     <g id="line2d_69">
      <g>
       <use xlink:href="#me3d8e49b56" x="100.8" y="436.215719" style="stroke: #000000; stroke-width: 0.8"/>
      </g>
     </g>
     <g id="text_12">
      <!-- 0 V -->
      <g transform="translate(74.36625 441.534625) scale(0.14 -0.14)">
       <use xlink:href="#DejaVuSans-30"/>
       <use xlink:href="#DejaVuSans-20" x="63.623047"/>
       <use xlink:href="#DejaVuSans-56" x="95.410156"/>
      </g>
     </g>
    </g>
    <g id="ytick_10">
     <g id="line2d_70">
      <path d="M 100.8 392.521307 
L 987.84 392.521307 
" clip-path="url(#p930b99f96f)" style="fill: none; stroke-dasharray: 1.85,0.8; stroke-dashoffset: 0; stroke: #b2b2b2; stroke-width: 0.5"/>
     </g>
     <g id="line2d_71">
      <g>
       <use xlink:href="#me3d8e49b56" x="100.8" y="392.521307" style="stroke: #000000; stroke-width: 0.8"/>
      </g>
     </g>
     <g id="text_13">
      <!-- 1 V -->
      <g transform="translate(74.36625 397.840213) scale(0.14 -0.14)">
       <use xlink:href="#DejaVuSans-31"/>
       <use xlink:href="#DejaVuSans-20" x="63.623047"/>
       <use xlink:href="#DejaVuSans-56" x="95.410156"/>
      </g>
     </g>
    </g>
    <g id="text_14">
     <g id="patch_21">
      <path d="M 34.8768 454.693023 
L 34.8768 383.46146 
L 11.247425 383.46146 
L 11.247425 454.693023 
z
" style="fill: #ffff00; opacity: 0.2; stroke: #eeeeee; stroke-width: 0.5; stroke-linejoin: miter"/>
     </g>
     <!-- DFF OUT -->
     <g transform="translate(26.925238 449.653023) rotate(-90) scale(0.14 -0.14)">
      <defs>
       <path id="DejaVuSans-4f" d="M 2522 4238 
Q 1834 4238 1429 3725 
Q 1025 3213 1025 2328 
Q 1025 1447 1429 934 
Q 1834 422 2522 422 
Q 3209 422 3611 934 
Q 4013 1447 4013 2328 
Q 4013 3213 3611 3725 
Q 3209 4238 2522 4238 
z
M 2522 4750 
Q 3503 4750 4090 4092 
Q 4678 3434 4678 2328 
Q 4678 1225 4090 567 
Q 3503 -91 2522 -91 
Q 1538 -91 948 565 
Q 359 1222 359 2328 
Q 359 3434 948 4092 
Q 1538 4750 2522 4750 
z
" transform="scale(0.015625)"/>
       <path id="DejaVuSans-54" d="M -19 4666 
L 3928 4666 
L 3928 4134 
L 2272 4134 
L 2272 0 
L 1638 0 
L 1638 4134 
L -19 4134 
L -19 4666 
z
" transform="scale(0.015625)"/>
      </defs>
      <use xlink:href="#DejaVuSans-44"/>
      <use xlink:href="#DejaVuSans-46" x="77.001953"/>
      <use xlink:href="#DejaVuSans-46" x="134.521484"/>
      <use xlink:href="#DejaVuSans-20" x="192.041016"/>
      <use xlink:href="#DejaVuSans-4f" x="223.828125"/>
      <use xlink:href="#DejaVuSans-55" x="302.539062"/>
      <use xlink:href="#DejaVuSans-54" x="375.732422"/>
     </g>
    </g>
   </g>
   <g id="line2d_72">
    <path d="M 141.12 403.246974 
L 173.408256 403.300281 
L 173.440512 405.10923 
L 173.601792 436.218386 
L 174.053376 436.212536 
L 183.439872 436.214553 
L 254.048256 436.216387 
L 254.080512 436.391056 
L 254.112768 436.102127 
L 254.306304 431.834044 
L 254.628864 430.892429 
L 254.854656 429.536154 
L 255.048192 426.552263 
L 255.241728 418.155071 
L 255.435264 400.107968 
L 255.6288 384.12761 
L 255.79008 383.791163 
L 256.660992 383.782424 
L 263.789568 383.89166 
L 265.402368 386.259898 
L 267.07968 389.204901 
L 271.627776 397.426005 
L 272.272896 399.122222 
L 272.756736 400.992343 
L 272.788992 400.85689 
L 272.821248 400.924179 
L 273.143808 402.753227 
L 273.917952 406.271938 
L 275.46624 413.531765 
L 275.530752 413.942929 
L 275.563008 413.883068 
L 275.724288 415.521172 
L 276.11136 417.564322 
L 276.143616 416.953038 
L 276.175872 417.859697 
L 278.208 428.575751 
L 278.272512 428.750966 
L 278.433792 429.621358 
L 278.466048 428.962447 
L 278.53056 429.163004 
L 278.562816 429.290155 
L 278.724096 430.898109 
L 279.0144 432.177569 
L 279.046656 431.93773 
L 279.143424 432.010394 
L 279.401472 433.849317 
L 279.8208 435.621519 
L 279.853056 435.102386 
L 279.917568 435.799049 
L 279.949824 435.720836 
L 279.98208 435.774449 
L 280.14336 437.080475 
L 280.562688 438.840923 
L 280.594944 438.618169 
L 280.659456 438.683754 
L 280.885248 440.125451 
L 281.304576 441.522406 
L 281.336832 441.241887 
L 281.401344 441.354619 
L 281.627136 441.971584 
L 281.885184 443.168374 
L 282.56256 444.83619 
L 282.594816 444.584073 
L 282.659328 444.685881 
L 283.36896 446.680094 
L 283.627008 447.54568 
L 289.433088 461.104056 
L 289.626624 461.181832 
L 289.755648 461.015357 
L 289.949184 460.58016 
L 290.78784 458.952544 
L 291.75552 457.111698 
L 291.820032 456.99984 
L 292.142592 456.33219 
L 292.207104 456.447106 
L 292.368384 455.974332 
L 292.40064 456.15348 
L 292.432896 455.890876 
L 292.755456 455.417666 
L 292.787712 455.616038 
L 292.819968 455.342948 
L 293.013504 455.010871 
L 293.04576 455.158558 
L 293.078016 455.195698 
L 293.20704 454.79939 
L 293.271552 454.9095 
L 293.432832 454.571742 
L 293.884416 454.156645 
L 294.142464 453.654159 
L 294.690816 452.875525 
L 294.723072 452.944999 
L 294.755328 452.793379 
L 294.787584 452.73745 
L 294.81984 452.940192 
L 294.852096 452.66885 
L 295.30368 452.126166 
L 295.46496 451.937406 
L 295.497216 452.156752 
L 295.529472 451.872738 
L 295.561728 452.041398 
L 295.723008 451.6665 
L 295.755264 451.853949 
L 295.819776 451.574742 
L 296.077824 451.454145 
L 296.27136 451.269755 
L 296.59392 450.869514 
L 296.91648 450.230702 
L 297.174528 449.890322 
L 297.206784 450.173025 
L 297.23904 450.139818 
L 297.368064 449.615485 
L 297.40032 449.60762 
L 297.432576 449.912607 
L 297.464832 449.488771 
L 297.529344 449.814294 
L 297.658368 449.274231 
L 297.787392 449.168054 
L 297.819648 449.484838 
L 297.851904 449.085471 
L 297.88416 449.140089 
L 297.916416 449.176793 
L 297.948672 449.075422 
L 297.980928 448.984974 
L 298.013184 449.244956 
L 298.077696 448.871369 
L 298.109952 449.017308 
L 298.142208 448.803642 
L 298.174464 448.790534 
L 298.20672 448.917248 
L 298.238976 448.706204 
L 298.271232 448.702708 
L 298.303488 448.828111 
L 298.335744 448.679987 
L 298.368 448.63236 
L 298.400256 448.833355 
L 298.432512 448.600463 
L 298.464768 448.749461 
L 298.626048 448.454524 
L 298.755072 448.409082 
L 298.916352 448.303778 
L 299.432448 447.605542 
L 299.593728 447.217098 
L 299.625984 447.446931 
L 299.65824 447.127088 
L 299.916288 446.74782 
L 299.948544 447.086452 
L 300.013056 446.637273 
L 300.077568 446.528911 
L 300.14208 446.850502 
L 300.174336 446.55775 
L 300.206592 446.673977 
L 300.238848 446.554691 
L 300.30336 446.305633 
L 300.335616 446.67922 
L 300.400128 446.199018 
L 300.432384 446.582218 
L 300.561408 445.998461 
L 300.593664 445.993218 
L 300.62592 446.348453 
L 300.658176 445.890099 
L 300.722688 446.244024 
L 300.7872 445.814945 
L 300.851712 445.850774 
L 300.883968 445.84422 
L 300.916224 446.036038 
L 300.94848 445.659393 
L 300.980736 445.658082 
L 301.012992 445.802273 
L 301.077504 445.58686 
L 301.883904 445.044612 
L 302.367744 444.438571 
L 302.529024 443.946135 
L 302.819328 443.506132 
L 302.851584 443.943513 
L 302.916096 443.448018 
L 303.012864 443.346647 
L 303.04512 443.773105 
L 303.109632 443.23479 
L 303.141888 443.671734 
L 303.238656 443.133855 
L 303.270912 443.190658 
L 303.303168 443.350143 
L 303.335424 443.191969 
L 303.464448 442.864261 
L 303.496704 442.879117 
L 303.52896 443.029863 
L 303.561216 442.790854 
L 303.593472 442.796535 
L 303.625728 443.205077 
L 303.657984 442.69997 
L 303.722496 443.10895 
L 303.85152 442.567576 
L 303.883776 442.57981 
L 303.916032 442.828432 
L 303.948288 442.496354 
L 303.980544 442.514706 
L 304.077312 442.471885 
L 304.109568 442.732741 
L 304.17408 442.453533 
L 304.206336 442.544855 
L 304.238592 442.39105 
L 304.270848 442.400663 
L 304.303104 442.457029 
L 304.367616 442.383185 
L 304.593408 442.291427 
L 305.367552 441.529834 
L 305.980416 440.863931 
L 306.077184 440.160014 
L 306.10944 440.518264 
L 306.141696 440.559774 
L 306.27072 440.005729 
L 306.302976 440.361139 
L 306.367488 439.853323 
L 306.432 440.054011 
L 306.464256 439.786295 
L 306.528768 440.076732 
L 306.657792 439.593603 
L 306.690048 439.930225 
L 306.75456 439.49966 
L 306.819072 439.520633 
L 306.851328 439.484061 
L 307.819008 439.006656 
L 309.01248 437.628491 
L 309.109248 437.454936 
L 309.270528 436.636191 
L 309.302784 436.906615 
L 309.33504 436.751937 
L 309.367296 436.457306 
L 309.399552 436.948256 
L 309.431808 436.75067 
L 309.464064 436.782829 
L 309.560832 436.188003 
L 309.625344 436.232235 
L 309.6576 436.482478 
L 309.722112 436.259435 
L 309.81888 436.196283 
L 310.818816 434.265375 
L 312.302592 431.252471 
L 312.463872 430.308235 
L 312.496128 430.352366 
L 312.657408 430.514472 
L 312.689664 430.444561 
L 313.754112 428.00685 
L 313.786368 427.381583 
L 313.883136 427.525774 
L 314.01216 427.701863 
L 314.044416 427.619717 
L 314.463744 426.595083 
L 318.04416 418.865979 
L 318.140928 418.172112 
L 318.173184 418.406751 
L 319.205376 416.198872 
L 319.3344 415.240654 
L 319.398912 416.015355 
L 319.431168 415.948503 
L 319.560192 414.980672 
L 319.592448 415.543456 
L 319.65696 415.193464 
L 319.785984 415.234973 
L 319.81824 415.177734 
L 321.076224 412.739148 
L 321.10848 412.059263 
L 321.172992 412.414062 
L 321.205248 412.538591 
L 321.237504 412.167625 
L 321.334272 412.330606 
L 321.689088 411.724564 
L 321.91488 411.213776 
L 322.72128 409.85488 
L 322.753536 409.878912 
L 322.818048 409.763559 
L 323.817984 407.833577 
L 324.430848 406.926044 
L 324.463104 407.00382 
L 324.527616 406.935657 
L 327.656448 402.472272 
L 328.2048 401.701066 
L 328.430592 401.0356 
L 329.140224 398.638962 
L 333.914112 388.04263 
L 334.397952 386.967747 
L 334.688256 386.351656 
L 334.720512 386.39972 
L 334.752768 385.556418 
L 334.81728 397.668509 
L 334.914048 434.553584 
L 334.97856 434.320299 
L 338.20416 434.487911 
L 347.203584 434.840219 
L 348.461568 434.772493 
L 350.816256 434.776818 
L 354.041856 434.944518 
L 354.751488 435.661718 
L 355.557888 436.111027 
L 356.525568 436.387185 
L 357.944832 436.554373 
L 360.815616 436.623781 
L 373.234176 436.554753 
L 374.234112 436.657644 
L 375.008256 436.692993 
L 375.040512 436.587126 
L 375.105024 436.719254 
L 376.556544 436.72323 
L 384.6528 436.645109 
L 415.328256 436.416932 
L 415.360512 436.611162 
L 415.392768 436.285093 
L 415.586304 430.357172 
L 415.94112 428.375194 
L 416.1024 425.72906 
L 416.26368 418.246829 
L 416.457216 396.886379 
L 416.650752 377.162721 
L 416.812032 376.926771 
L 417.263616 377.022899 
L 417.618432 377.101549 
L 418.134528 377.197677 
L 418.553856 377.302543 
L 419.102208 377.40741 
L 419.682816 377.503537 
L 420.102144 377.608404 
L 420.650496 377.713271 
L 421.26336 377.822507 
L 421.58592 377.888048 
L 422.198784 377.984176 
L 422.5536 378.062826 
L 423.19872 378.172062 
L 423.52128 378.237604 
L 424.1664 378.34684 
L 424.48896 378.408012 
L 429.101568 379.133339 
L 429.359616 379.155186 
L 430.069248 379.264422 
L 430.391808 379.325594 
L 438.649344 380.334935 
L 439.552512 380.444171 
L 439.81056 380.466019 
L 440.810496 380.575255 
L 441.068544 380.597102 
L 442.165248 380.706338 
L 442.423296 380.728185 
L 443.52 380.837421 
L 443.778048 380.859268 
L 444.97152 380.968504 
L 445.229568 380.990352 
L 446.42304 381.099588 
L 446.681088 381.121435 
L 448.068096 381.230671 
L 448.326144 381.252518 
L 449.713152 381.361754 
L 449.9712 381.383601 
L 451.454976 381.492837 
L 451.713024 381.510315 
L 453.164544 381.597704 
L 454.519296 381.698201 
L 454.874112 381.733157 
L 455.357952 381.772481 
L 456.841728 381.86424 
L 458.809344 381.973476 
L 459.067392 381.995323 
L 461.131776 382.104559 
L 461.389824 382.126406 
L 463.744512 382.235642 
L 464.00256 382.25312 
L 466.42176 382.353617 
L 466.776576 382.384203 
L 469.518336 382.4847 
L 469.873152 382.515286 
L 472.905216 382.615784 
L 473.260032 382.64637 
L 474.388992 382.690064 
L 478.03392 382.790561 
L 478.388736 382.825517 
L 479.195136 382.825517 
L 482.517504 382.934753 
L 482.840064 382.9566 
L 483.67872 382.952231 
L 487.71072 383.052728 
L 488.065536 383.087683 
L 488.904192 383.083314 
L 494.00064 383.183811 
L 494.355456 383.214397 
L 495.968256 383.236244 
L 496.000512 383.441608 
L 496.065024 383.19255 
L 496.226304 383.210028 
L 501.935616 383.314894 
L 502.290432 383.34548 
L 576.608256 383.341111 
L 576.640512 383.559583 
L 576.705024 383.319264 
L 576.963072 383.336741 
L 657.248256 383.341111 
L 657.280512 383.563952 
L 657.345024 383.341111 
L 657.53856 383.319264 
L 658.538496 383.34548 
L 737.888256 383.341111 
L 737.920512 383.563952 
L 737.985024 383.341111 
L 738.17856 383.319264 
L 739.178496 383.34548 
L 818.528256 383.341111 
L 818.560512 383.563952 
L 818.625024 383.341111 
L 818.81856 383.319264 
L 819.818496 383.34548 
L 899.168256 383.362958 
L 899.200512 383.511519 
L 899.265024 383.310525 
L 899.523072 383.336741 
L 947.52 383.34548 
L 947.52 383.34548 
" clip-path="url(#p930b99f96f)" style="fill: none; stroke: #ff00ff; stroke-width: 2; stroke-linecap: square"/>
   </g>
   <g id="patch_22">
    <path d="M 100.8 465.442759 
L 100.8 372.711724 
" style="fill: none; stroke: #bcbcbc; stroke-width: 0.8; stroke-linejoin: miter; stroke-linecap: square"/>
   </g>
   <g id="patch_23">
    <path d="M 987.84 465.442759 
L 987.84 372.711724 
" style="fill: none; stroke: #bcbcbc; stroke-width: 0.8; stroke-linejoin: miter; stroke-linecap: square"/>
   </g>
   <g id="patch_24">
    <path d="M 100.8 465.442759 
L 987.84 465.442759 
" style="fill: none; stroke: #bcbcbc; stroke-width: 0.8; stroke-linejoin: miter; stroke-linecap: square"/>
   </g>
   <g id="patch_25">
    <path d="M 100.8 372.711724 
L 987.84 372.711724 
" style="fill: none; stroke: #bcbcbc; stroke-width: 0.8; stroke-linejoin: miter; stroke-linecap: square"/>
   </g>
  </g>
  <g id="axes_5">
   <g id="patch_26">
    <path d="M 100.8 576.72 
L 987.84 576.72 
L 987.84 483.988966 
L 100.8 483.988966 
z
" style="fill: #eeeeee"/>
   </g>
   <g id="matplotlib.axis_9">
    <g id="xtick_25">
     <g id="line2d_73">
      <path d="M 141.12 576.72 
L 141.12 483.988966 
" clip-path="url(#pd08a6297c5)" style="fill: none; stroke-dasharray: 1.85,0.8; stroke-dashoffset: 0; stroke: #b2b2b2; stroke-width: 0.5"/>
     </g>
     <g id="line2d_74">
      <g>
       <use xlink:href="#m8a9d1afda6" x="141.12" y="576.72" style="stroke: #000000; stroke-width: 0.8"/>
      </g>
     </g>
     <g id="text_15">
      <!-- 0 s -->
      <g transform="translate(130.795 590.857813) scale(0.14 -0.14)">
       <defs>
        <path id="DejaVuSans-73" d="M 2834 3397 
L 2834 2853 
Q 2591 2978 2328 3040 
Q 2066 3103 1784 3103 
Q 1356 3103 1142 2972 
Q 928 2841 928 2578 
Q 928 2378 1081 2264 
Q 1234 2150 1697 2047 
L 1894 2003 
Q 2506 1872 2764 1633 
Q 3022 1394 3022 966 
Q 3022 478 2636 193 
Q 2250 -91 1575 -91 
Q 1294 -91 989 -36 
Q 684 19 347 128 
L 347 722 
Q 666 556 975 473 
Q 1284 391 1588 391 
Q 1994 391 2212 530 
Q 2431 669 2431 922 
Q 2431 1156 2273 1281 
Q 2116 1406 1581 1522 
L 1381 1569 
Q 847 1681 609 1914 
Q 372 2147 372 2553 
Q 372 3047 722 3315 
Q 1072 3584 1716 3584 
Q 2034 3584 2315 3537 
Q 2597 3491 2834 3397 
z
" transform="scale(0.015625)"/>
       </defs>
       <use xlink:href="#DejaVuSans-30"/>
       <use xlink:href="#DejaVuSans-20" x="63.623047"/>
       <use xlink:href="#DejaVuSans-73" x="95.410156"/>
      </g>
     </g>
    </g>
    <g id="xtick_26">
     <g id="line2d_75">
      <path d="M 302.4 576.72 
L 302.4 483.988966 
" clip-path="url(#pd08a6297c5)" style="fill: none; stroke-dasharray: 1.85,0.8; stroke-dashoffset: 0; stroke: #b2b2b2; stroke-width: 0.5"/>
     </g>
     <g id="line2d_76">
      <g>
       <use xlink:href="#m8a9d1afda6" x="302.4" y="576.72" style="stroke: #000000; stroke-width: 0.8"/>
      </g>
     </g>
     <g id="text_16">
      <!-- 50 ns -->
      <g transform="translate(283.185 590.857813) scale(0.14 -0.14)">
       <defs>
        <path id="DejaVuSans-35" d="M 691 4666 
L 3169 4666 
L 3169 4134 
L 1269 4134 
L 1269 2991 
Q 1406 3038 1543 3061 
Q 1681 3084 1819 3084 
Q 2600 3084 3056 2656 
Q 3513 2228 3513 1497 
Q 3513 744 3044 326 
Q 2575 -91 1722 -91 
Q 1428 -91 1123 -41 
Q 819 9 494 109 
L 494 744 
Q 775 591 1075 516 
Q 1375 441 1709 441 
Q 2250 441 2565 725 
Q 2881 1009 2881 1497 
Q 2881 1984 2565 2268 
Q 2250 2553 1709 2553 
Q 1456 2553 1204 2497 
Q 953 2441 691 2322 
L 691 4666 
z
" transform="scale(0.015625)"/>
        <path id="DejaVuSans-6e" d="M 3513 2113 
L 3513 0 
L 2938 0 
L 2938 2094 
Q 2938 2591 2744 2837 
Q 2550 3084 2163 3084 
Q 1697 3084 1428 2787 
Q 1159 2491 1159 1978 
L 1159 0 
L 581 0 
L 581 3500 
L 1159 3500 
L 1159 2956 
Q 1366 3272 1645 3428 
Q 1925 3584 2291 3584 
Q 2894 3584 3203 3211 
Q 3513 2838 3513 2113 
z
" transform="scale(0.015625)"/>
       </defs>
       <use xlink:href="#DejaVuSans-35"/>
       <use xlink:href="#DejaVuSans-30" x="63.623047"/>
       <use xlink:href="#DejaVuSans-20" x="127.246094"/>
       <use xlink:href="#DejaVuSans-6e" x="159.033203"/>
       <use xlink:href="#DejaVuSans-73" x="222.412109"/>
      </g>
     </g>
    </g>
    <g id="xtick_27">
     <g id="line2d_77">
      <path d="M 463.68 576.72 
L 463.68 483.988966 
" clip-path="url(#pd08a6297c5)" style="fill: none; stroke-dasharray: 1.85,0.8; stroke-dashoffset: 0; stroke: #b2b2b2; stroke-width: 0.5"/>
     </g>
     <g id="line2d_78">
      <g>
       <use xlink:href="#m8a9d1afda6" x="463.68" y="576.72" style="stroke: #000000; stroke-width: 0.8"/>
      </g>
     </g>
     <g id="text_17">
      <!-- 100 ns -->
      <g transform="translate(440.01125 590.857813) scale(0.14 -0.14)">
       <use xlink:href="#DejaVuSans-31"/>
       <use xlink:href="#DejaVuSans-30" x="63.623047"/>
       <use xlink:href="#DejaVuSans-30" x="127.246094"/>
       <use xlink:href="#DejaVuSans-20" x="190.869141"/>
       <use xlink:href="#DejaVuSans-6e" x="222.65625"/>
       <use xlink:href="#DejaVuSans-73" x="286.035156"/>
      </g>
     </g>
    </g>
    <g id="xtick_28">
     <g id="line2d_79">
      <path d="M 624.96 576.72 
L 624.96 483.988966 
" clip-path="url(#pd08a6297c5)" style="fill: none; stroke-dasharray: 1.85,0.8; stroke-dashoffset: 0; stroke: #b2b2b2; stroke-width: 0.5"/>
     </g>
     <g id="line2d_80">
      <g>
       <use xlink:href="#m8a9d1afda6" x="624.96" y="576.72" style="stroke: #000000; stroke-width: 0.8"/>
      </g>
     </g>
     <g id="text_18">
      <!-- 150 ns -->
      <g transform="translate(601.29125 590.857813) scale(0.14 -0.14)">
       <use xlink:href="#DejaVuSans-31"/>
       <use xlink:href="#DejaVuSans-35" x="63.623047"/>
       <use xlink:href="#DejaVuSans-30" x="127.246094"/>
       <use xlink:href="#DejaVuSans-20" x="190.869141"/>
       <use xlink:href="#DejaVuSans-6e" x="222.65625"/>
       <use xlink:href="#DejaVuSans-73" x="286.035156"/>
      </g>
     </g>
    </g>
    <g id="xtick_29">
     <g id="line2d_81">
      <path d="M 786.24 576.72 
L 786.24 483.988966 
" clip-path="url(#pd08a6297c5)" style="fill: none; stroke-dasharray: 1.85,0.8; stroke-dashoffset: 0; stroke: #b2b2b2; stroke-width: 0.5"/>
     </g>
     <g id="line2d_82">
      <g>
       <use xlink:href="#m8a9d1afda6" x="786.24" y="576.72" style="stroke: #000000; stroke-width: 0.8"/>
      </g>
     </g>
     <g id="text_19">
      <!-- 200 ns -->
      <g transform="translate(762.57125 590.857813) scale(0.14 -0.14)">
       <use xlink:href="#DejaVuSans-32"/>
       <use xlink:href="#DejaVuSans-30" x="63.623047"/>
       <use xlink:href="#DejaVuSans-30" x="127.246094"/>
       <use xlink:href="#DejaVuSans-20" x="190.869141"/>
       <use xlink:href="#DejaVuSans-6e" x="222.65625"/>
       <use xlink:href="#DejaVuSans-73" x="286.035156"/>
      </g>
     </g>
    </g>
    <g id="xtick_30">
     <g id="line2d_83">
      <path d="M 947.52 576.72 
L 947.52 483.988966 
" clip-path="url(#pd08a6297c5)" style="fill: none; stroke-dasharray: 1.85,0.8; stroke-dashoffset: 0; stroke: #b2b2b2; stroke-width: 0.5"/>
     </g>
     <g id="line2d_84">
      <g>
       <use xlink:href="#m8a9d1afda6" x="947.52" y="576.72" style="stroke: #000000; stroke-width: 0.8"/>
      </g>
     </g>
     <g id="text_20">
      <!-- 250 ns -->
      <g transform="translate(923.85125 590.857813) scale(0.14 -0.14)">
       <use xlink:href="#DejaVuSans-32"/>
       <use xlink:href="#DejaVuSans-35" x="63.623047"/>
       <use xlink:href="#DejaVuSans-30" x="127.246094"/>
       <use xlink:href="#DejaVuSans-20" x="190.869141"/>
       <use xlink:href="#DejaVuSans-6e" x="222.65625"/>
       <use xlink:href="#DejaVuSans-73" x="286.035156"/>
      </g>
     </g>
    </g>
    <g id="text_21">
     <!-- Time -->
     <g transform="translate(527.192969 608.407187) scale(0.14 -0.14)">
      <defs>
       <path id="DejaVuSans-69" d="M 603 3500 
L 1178 3500 
L 1178 0 
L 603 0 
L 603 3500 
z
M 603 4863 
L 1178 4863 
L 1178 4134 
L 603 4134 
L 603 4863 
z
" transform="scale(0.015625)"/>
       <path id="DejaVuSans-6d" d="M 3328 2828 
Q 3544 3216 3844 3400 
Q 4144 3584 4550 3584 
Q 5097 3584 5394 3201 
Q 5691 2819 5691 2113 
L 5691 0 
L 5113 0 
L 5113 2094 
Q 5113 2597 4934 2840 
Q 4756 3084 4391 3084 
Q 3944 3084 3684 2787 
Q 3425 2491 3425 1978 
L 3425 0 
L 2847 0 
L 2847 2094 
Q 2847 2600 2669 2842 
Q 2491 3084 2119 3084 
Q 1678 3084 1418 2786 
Q 1159 2488 1159 1978 
L 1159 0 
L 581 0 
L 581 3500 
L 1159 3500 
L 1159 2956 
Q 1356 3278 1631 3431 
Q 1906 3584 2284 3584 
Q 2666 3584 2933 3390 
Q 3200 3197 3328 2828 
z
" transform="scale(0.015625)"/>
       <path id="DejaVuSans-65" d="M 3597 1894 
L 3597 1613 
L 953 1613 
Q 991 1019 1311 708 
Q 1631 397 2203 397 
Q 2534 397 2845 478 
Q 3156 559 3463 722 
L 3463 178 
Q 3153 47 2828 -22 
Q 2503 -91 2169 -91 
Q 1331 -91 842 396 
Q 353 884 353 1716 
Q 353 2575 817 3079 
Q 1281 3584 2069 3584 
Q 2775 3584 3186 3129 
Q 3597 2675 3597 1894 
z
M 3022 2063 
Q 3016 2534 2758 2815 
Q 2500 3097 2075 3097 
Q 1594 3097 1305 2825 
Q 1016 2553 972 2059 
L 3022 2063 
z
" transform="scale(0.015625)"/>
      </defs>
      <use xlink:href="#DejaVuSans-54"/>
      <use xlink:href="#DejaVuSans-69" x="57.958984"/>
      <use xlink:href="#DejaVuSans-6d" x="85.742188"/>
      <use xlink:href="#DejaVuSans-65" x="183.154297"/>
     </g>
    </g>
   </g>
   <g id="matplotlib.axis_10">
    <g id="ytick_11">
     <g id="line2d_85">
      <path d="M 100.8 569.740344 
L 987.84 569.740344 
" clip-path="url(#pd08a6297c5)" style="fill: none; stroke-dasharray: 1.85,0.8; stroke-dashoffset: 0; stroke: #b2b2b2; stroke-width: 0.5"/>
     </g>
     <g id="line2d_86">
      <g>
       <use xlink:href="#me3d8e49b56" x="100.8" y="569.740344" style="stroke: #000000; stroke-width: 0.8"/>
      </g>
     </g>
     <g id="text_22">
      <!-- 0 V -->
      <g transform="translate(74.36625 575.05925) scale(0.14 -0.14)">
       <use xlink:href="#DejaVuSans-30"/>
       <use xlink:href="#DejaVuSans-20" x="63.623047"/>
       <use xlink:href="#DejaVuSans-56" x="95.410156"/>
      </g>
     </g>
    </g>
    <g id="ytick_12">
     <g id="line2d_87">
      <path d="M 100.8 535.876929 
L 987.84 535.876929 
" clip-path="url(#pd08a6297c5)" style="fill: none; stroke-dasharray: 1.85,0.8; stroke-dashoffset: 0; stroke: #b2b2b2; stroke-width: 0.5"/>
     </g>
     <g id="line2d_88">
      <g>
       <use xlink:href="#me3d8e49b56" x="100.8" y="535.876929" style="stroke: #000000; stroke-width: 0.8"/>
      </g>
     </g>
     <g id="text_23">
      <!-- 500 mV -->
      <g transform="translate(42.914375 541.195835) scale(0.14 -0.14)">
       <use xlink:href="#DejaVuSans-35"/>
       <use xlink:href="#DejaVuSans-30" x="63.623047"/>
       <use xlink:href="#DejaVuSans-30" x="127.246094"/>
       <use xlink:href="#DejaVuSans-20" x="190.869141"/>
       <use xlink:href="#DejaVuSans-6d" x="222.65625"/>
       <use xlink:href="#DejaVuSans-56" x="320.068359"/>
      </g>
     </g>
    </g>
    <g id="ytick_13">
     <g id="line2d_89">
      <path d="M 100.8 502.013513 
L 987.84 502.013513 
" clip-path="url(#pd08a6297c5)" style="fill: none; stroke-dasharray: 1.85,0.8; stroke-dashoffset: 0; stroke: #b2b2b2; stroke-width: 0.5"/>
     </g>
     <g id="line2d_90">
      <g>
       <use xlink:href="#me3d8e49b56" x="100.8" y="502.013513" style="stroke: #000000; stroke-width: 0.8"/>
      </g>
     </g>
     <g id="text_24">
      <!-- 1 V -->
      <g transform="translate(74.36625 507.33242) scale(0.14 -0.14)">
       <use xlink:href="#DejaVuSans-31"/>
       <use xlink:href="#DejaVuSans-20" x="63.623047"/>
       <use xlink:href="#DejaVuSans-56" x="95.410156"/>
      </g>
     </g>
    </g>
    <g id="text_25">
     <g id="patch_27">
      <path d="M 34.8768 554.329483 
L 34.8768 506.379483 
L 11.247425 506.379483 
L 11.247425 554.329483 
z
" style="fill: #ffff00; opacity: 0.2; stroke: #eeeeee; stroke-width: 0.5; stroke-linejoin: miter"/>
     </g>
     <!-- FOUT -->
     <g transform="translate(26.925238 549.289483) rotate(-90) scale(0.14 -0.14)">
      <use xlink:href="#DejaVuSans-46"/>
      <use xlink:href="#DejaVuSans-4f" x="57.519531"/>
      <use xlink:href="#DejaVuSans-55" x="136.230469"/>
      <use xlink:href="#DejaVuSans-54" x="209.423828"/>
     </g>
    </g>
   </g>
   <g id="line2d_91">
    <path d="M 141.12 488.468147 
L 173.472768 488.47492 
L 173.505024 488.278512 
L 173.569536 526.697911 
L 173.69856 572.504953 
L 173.730816 572.369228 
L 173.827584 567.83275 
L 173.892096 569.354585 
L 174.053376 570.05929 
L 174.117888 569.941526 
L 174.408192 569.486002 
L 174.440448 569.535558 
L 174.66624 569.724381 
L 176.182272 569.734598 
L 180.117504 569.755939 
L 193.503744 569.747027 
L 212.921856 569.738465 
L 255.338496 569.732748 
L 255.370752 569.50586 
L 255.403008 568.13366 
L 255.757824 488.47492 
L 256.306176 488.468147 
L 275.111424 488.359784 
L 275.14368 488.204013 
L 275.175936 488.759373 
L 275.240448 518.136563 
L 275.337216 570.042358 
L 275.401728 569.73885 
L 277.433856 569.738661 
L 321.721344 569.729988 
L 321.7536 569.563807 
L 321.818112 555.424924 
L 322.043904 488.590055 
L 322.205184 488.47492 
L 322.753536 488.468147 
L 334.849536 488.47492 
L 334.914048 493.100662 
L 335.075328 569.754535 
L 335.107584 569.731612 
L 335.752704 569.738654 
L 416.360448 569.73409 
L 416.392704 569.850332 
L 416.457216 553.617294 
L 416.618496 489.423095 
L 416.74752 488.47492 
L 947.52 488.468147 
L 947.52 488.468147 
" clip-path="url(#pd08a6297c5)" style="fill: none; stroke: #ff00ff; stroke-width: 2; stroke-linecap: square"/>
   </g>
   <g id="patch_28">
    <path d="M 100.8 576.72 
L 100.8 483.988966 
" style="fill: none; stroke: #bcbcbc; stroke-width: 0.8; stroke-linejoin: miter; stroke-linecap: square"/>
   </g>
   <g id="patch_29">
    <path d="M 987.84 576.72 
L 987.84 483.988966 
" style="fill: none; stroke: #bcbcbc; stroke-width: 0.8; stroke-linejoin: miter; stroke-linecap: square"/>
   </g>
   <g id="patch_30">
    <path d="M 100.8 576.72 
L 987.84 576.72 
" style="fill: none; stroke: #bcbcbc; stroke-width: 0.8; stroke-linejoin: miter; stroke-linecap: square"/>
   </g>
   <g id="patch_31">
    <path d="M 100.8 483.988966 
L 987.84 483.988966 
" style="fill: none; stroke: #bcbcbc; stroke-width: 0.8; stroke-linejoin: miter; stroke-linecap: square"/>
   </g>
  </g>
  <g id="axes_6">
   <g id="patch_32">
    <path d="M 201.6 628.56 
L 856.8 628.56 
L 856.8 615.6 
L 201.6 615.6 
z
" clip-path="url(#p99f08dbbca)" style="fill: #d3d3d3"/>
   </g>
   <g id="patch_33">
    <path d="M 201.6 628.56 
L 304.56 628.56 
L 304.56 615.6 
L 201.6 615.6 
z
" clip-path="url(#p99f08dbbca)" style="fill: #0000ff"/>
   </g>
   <g id="line2d_92">
    <path d="M 201.6 635.04 
L 201.6 609.12 
" clip-path="url(#p68c8a1b319)" style="fill: none; stroke: #ff0000; stroke-linecap: square"/>
   </g>
   <g id="line2d_93">
    <defs>
     <path id="mc2d6ff5f71" d="M 0 5 
C 1.326016 5 2.597899 4.473168 3.535534 3.535534 
C 4.473168 2.597899 5 1.326016 5 0 
C 5 -1.326016 4.473168 -2.597899 3.535534 -3.535534 
C 2.597899 -4.473168 1.326016 -5 0 -5 
C -1.326016 -5 -2.597899 -4.473168 -3.535534 -3.535534 
C -4.473168 -2.597899 -5 -1.326016 -5 0 
C -5 1.326016 -4.473168 2.597899 -3.535534 3.535534 
C -2.597899 4.473168 -1.326016 5 0 5 
z
" style="stroke: #bfbfbf"/>
    </defs>
    <g>
     <use xlink:href="#mc2d6ff5f71" x="304.56" y="622.08" style="fill: #ffffff; stroke: #bfbfbf"/>
    </g>
   </g>
   <g id="text_26">
    <!-- #Sweep -->
    <g transform="translate(138.622875 625.39125) scale(0.12 -0.12)">
     <defs>
      <path id="DejaVuSans-23" d="M 3272 2816 
L 2363 2816 
L 2100 1772 
L 3016 1772 
L 3272 2816 
z
M 2803 4594 
L 2478 3297 
L 3391 3297 
L 3719 4594 
L 4219 4594 
L 3897 3297 
L 4872 3297 
L 4872 2816 
L 3775 2816 
L 3519 1772 
L 4513 1772 
L 4513 1294 
L 3397 1294 
L 3072 0 
L 2572 0 
L 2894 1294 
L 1978 1294 
L 1656 0 
L 1153 0 
L 1478 1294 
L 494 1294 
L 494 1772 
L 1594 1772 
L 1856 2816 
L 850 2816 
L 850 3297 
L 1978 3297 
L 2297 4594 
L 2803 4594 
z
" transform="scale(0.015625)"/>
      <path id="DejaVuSans-77" d="M 269 3500 
L 844 3500 
L 1563 769 
L 2278 3500 
L 2956 3500 
L 3675 769 
L 4391 3500 
L 4966 3500 
L 4050 0 
L 3372 0 
L 2619 2869 
L 1863 0 
L 1184 0 
L 269 3500 
z
" transform="scale(0.015625)"/>
      <path id="DejaVuSans-70" d="M 1159 525 
L 1159 -1331 
L 581 -1331 
L 581 3500 
L 1159 3500 
L 1159 2969 
Q 1341 3281 1617 3432 
Q 1894 3584 2278 3584 
Q 2916 3584 3314 3078 
Q 3713 2572 3713 1747 
Q 3713 922 3314 415 
Q 2916 -91 2278 -91 
Q 1894 -91 1617 61 
Q 1341 213 1159 525 
z
M 3116 1747 
Q 3116 2381 2855 2742 
Q 2594 3103 2138 3103 
Q 1681 3103 1420 2742 
Q 1159 2381 1159 1747 
Q 1159 1113 1420 752 
Q 1681 391 2138 391 
Q 2594 391 2855 752 
Q 3116 1113 3116 1747 
z
" transform="scale(0.015625)"/>
     </defs>
     <use xlink:href="#DejaVuSans-23"/>
     <use xlink:href="#DejaVuSans-53" x="83.789062"/>
     <use xlink:href="#DejaVuSans-77" x="147.265625"/>
     <use xlink:href="#DejaVuSans-65" x="229.052734"/>
     <use xlink:href="#DejaVuSans-65" x="290.576172"/>
     <use xlink:href="#DejaVuSans-70" x="352.099609"/>
    </g>
   </g>
   <g id="text_27">
    <!-- $\mathdefault{22}$ -->
    <g transform="translate(869.904 625.39125) scale(0.12 -0.12)">
     <use xlink:href="#DejaVuSans-32" transform="translate(0 0.78125)"/>
     <use xlink:href="#DejaVuSans-32" transform="translate(63.623047 0.78125)"/>
    </g>
   </g>
  </g>
  <g id="text_28">
   <!-- DFF under BBI sweep analysis (Sweep = 32E-9) -->
   <g transform="translate(313.34625 25.1175) scale(0.16 -0.16)">
    <defs>
     <path id="DejaVuSans-75" d="M 544 1381 
L 544 3500 
L 1119 3500 
L 1119 1403 
Q 1119 906 1312 657 
Q 1506 409 1894 409 
Q 2359 409 2629 706 
Q 2900 1003 2900 1516 
L 2900 3500 
L 3475 3500 
L 3475 0 
L 2900 0 
L 2900 538 
Q 2691 219 2414 64 
Q 2138 -91 1772 -91 
Q 1169 -91 856 284 
Q 544 659 544 1381 
z
M 1991 3584 
L 1991 3584 
z
" transform="scale(0.015625)"/>
     <path id="DejaVuSans-64" d="M 2906 2969 
L 2906 4863 
L 3481 4863 
L 3481 0 
L 2906 0 
L 2906 525 
Q 2725 213 2448 61 
Q 2172 -91 1784 -91 
Q 1150 -91 751 415 
Q 353 922 353 1747 
Q 353 2572 751 3078 
Q 1150 3584 1784 3584 
Q 2172 3584 2448 3432 
Q 2725 3281 2906 2969 
z
M 947 1747 
Q 947 1113 1208 752 
Q 1469 391 1925 391 
Q 2381 391 2643 752 
Q 2906 1113 2906 1747 
Q 2906 2381 2643 2742 
Q 2381 3103 1925 3103 
Q 1469 3103 1208 2742 
Q 947 2381 947 1747 
z
" transform="scale(0.015625)"/>
     <path id="DejaVuSans-72" d="M 2631 2963 
Q 2534 3019 2420 3045 
Q 2306 3072 2169 3072 
Q 1681 3072 1420 2755 
Q 1159 2438 1159 1844 
L 1159 0 
L 581 0 
L 581 3500 
L 1159 3500 
L 1159 2956 
Q 1341 3275 1631 3429 
Q 1922 3584 2338 3584 
Q 2397 3584 2469 3576 
Q 2541 3569 2628 3553 
L 2631 2963 
z
" transform="scale(0.015625)"/>
     <path id="DejaVuSans-61" d="M 2194 1759 
Q 1497 1759 1228 1600 
Q 959 1441 959 1056 
Q 959 750 1161 570 
Q 1363 391 1709 391 
Q 2188 391 2477 730 
Q 2766 1069 2766 1631 
L 2766 1759 
L 2194 1759 
z
M 3341 1997 
L 3341 0 
L 2766 0 
L 2766 531 
Q 2569 213 2275 61 
Q 1981 -91 1556 -91 
Q 1019 -91 701 211 
Q 384 513 384 1019 
Q 384 1609 779 1909 
Q 1175 2209 1959 2209 
L 2766 2209 
L 2766 2266 
Q 2766 2663 2505 2880 
Q 2244 3097 1772 3097 
Q 1472 3097 1187 3025 
Q 903 2953 641 2809 
L 641 3341 
Q 956 3463 1253 3523 
Q 1550 3584 1831 3584 
Q 2591 3584 2966 3190 
Q 3341 2797 3341 1997 
z
" transform="scale(0.015625)"/>
     <path id="DejaVuSans-6c" d="M 603 4863 
L 1178 4863 
L 1178 0 
L 603 0 
L 603 4863 
z
" transform="scale(0.015625)"/>
     <path id="DejaVuSans-79" d="M 2059 -325 
Q 1816 -950 1584 -1140 
Q 1353 -1331 966 -1331 
L 506 -1331 
L 506 -850 
L 844 -850 
Q 1081 -850 1212 -737 
Q 1344 -625 1503 -206 
L 1606 56 
L 191 3500 
L 800 3500 
L 1894 763 
L 2988 3500 
L 3597 3500 
L 2059 -325 
z
" transform="scale(0.015625)"/>
     <path id="DejaVuSans-28" d="M 1984 4856 
Q 1566 4138 1362 3434 
Q 1159 2731 1159 2009 
Q 1159 1288 1364 580 
Q 1569 -128 1984 -844 
L 1484 -844 
Q 1016 -109 783 600 
Q 550 1309 550 2009 
Q 550 2706 781 3412 
Q 1013 4119 1484 4856 
L 1984 4856 
z
" transform="scale(0.015625)"/>
     <path id="DejaVuSans-3d" d="M 678 2906 
L 4684 2906 
L 4684 2381 
L 678 2381 
L 678 2906 
z
M 678 1631 
L 4684 1631 
L 4684 1100 
L 678 1100 
L 678 1631 
z
" transform="scale(0.015625)"/>
     <path id="DejaVuSans-33" d="M 2597 2516 
Q 3050 2419 3304 2112 
Q 3559 1806 3559 1356 
Q 3559 666 3084 287 
Q 2609 -91 1734 -91 
Q 1441 -91 1130 -33 
Q 819 25 488 141 
L 488 750 
Q 750 597 1062 519 
Q 1375 441 1716 441 
Q 2309 441 2620 675 
Q 2931 909 2931 1356 
Q 2931 1769 2642 2001 
Q 2353 2234 1838 2234 
L 1294 2234 
L 1294 2753 
L 1863 2753 
Q 2328 2753 2575 2939 
Q 2822 3125 2822 3475 
Q 2822 3834 2567 4026 
Q 2313 4219 1838 4219 
Q 1578 4219 1281 4162 
Q 984 4106 628 3988 
L 628 4550 
Q 988 4650 1302 4700 
Q 1616 4750 1894 4750 
Q 2613 4750 3031 4423 
Q 3450 4097 3450 3541 
Q 3450 3153 3228 2886 
Q 3006 2619 2597 2516 
z
" transform="scale(0.015625)"/>
     <path id="DejaVuSans-2d" d="M 313 2009 
L 1997 2009 
L 1997 1497 
L 313 1497 
L 313 2009 
z
" transform="scale(0.015625)"/>
     <path id="DejaVuSans-39" d="M 703 97 
L 703 672 
Q 941 559 1184 500 
Q 1428 441 1663 441 
Q 2288 441 2617 861 
Q 2947 1281 2994 2138 
Q 2813 1869 2534 1725 
Q 2256 1581 1919 1581 
Q 1219 1581 811 2004 
Q 403 2428 403 3163 
Q 403 3881 828 4315 
Q 1253 4750 1959 4750 
Q 2769 4750 3195 4129 
Q 3622 3509 3622 2328 
Q 3622 1225 3098 567 
Q 2575 -91 1691 -91 
Q 1453 -91 1209 -44 
Q 966 3 703 97 
z
M 1959 2075 
Q 2384 2075 2632 2365 
Q 2881 2656 2881 3163 
Q 2881 3666 2632 3958 
Q 2384 4250 1959 4250 
Q 1534 4250 1286 3958 
Q 1038 3666 1038 3163 
Q 1038 2656 1286 2365 
Q 1534 2075 1959 2075 
z
" transform="scale(0.015625)"/>
     <path id="DejaVuSans-29" d="M 513 4856 
L 1013 4856 
Q 1481 4119 1714 3412 
Q 1947 2706 1947 2009 
Q 1947 1309 1714 600 
Q 1481 -109 1013 -844 
L 513 -844 
Q 928 -128 1133 580 
Q 1338 1288 1338 2009 
Q 1338 2731 1133 3434 
Q 928 4138 513 4856 
z
" transform="scale(0.015625)"/>
    </defs>
    <use xlink:href="#DejaVuSans-44"/>
    <use xlink:href="#DejaVuSans-46" x="77.001953"/>
    <use xlink:href="#DejaVuSans-46" x="134.521484"/>
    <use xlink:href="#DejaVuSans-20" x="192.041016"/>
    <use xlink:href="#DejaVuSans-75" x="223.828125"/>
    <use xlink:href="#DejaVuSans-6e" x="287.207031"/>
    <use xlink:href="#DejaVuSans-64" x="350.585938"/>
    <use xlink:href="#DejaVuSans-65" x="414.0625"/>
    <use xlink:href="#DejaVuSans-72" x="475.585938"/>
    <use xlink:href="#DejaVuSans-20" x="516.699219"/>
    <use xlink:href="#DejaVuSans-42" x="548.486328"/>
    <use xlink:href="#DejaVuSans-42" x="617.089844"/>
    <use xlink:href="#DejaVuSans-49" x="685.693359"/>
    <use xlink:href="#DejaVuSans-20" x="715.185547"/>
    <use xlink:href="#DejaVuSans-73" x="746.972656"/>
    <use xlink:href="#DejaVuSans-77" x="799.072266"/>
    <use xlink:href="#DejaVuSans-65" x="880.859375"/>
    <use xlink:href="#DejaVuSans-65" x="942.382812"/>
    <use xlink:href="#DejaVuSans-70" x="1003.90625"/>
    <use xlink:href="#DejaVuSans-20" x="1067.382812"/>
    <use xlink:href="#DejaVuSans-61" x="1099.169922"/>
    <use xlink:href="#DejaVuSans-6e" x="1160.449219"/>
    <use xlink:href="#DejaVuSans-61" x="1223.828125"/>
    <use xlink:href="#DejaVuSans-6c" x="1285.107422"/>
    <use xlink:href="#DejaVuSans-79" x="1312.890625"/>
    <use xlink:href="#DejaVuSans-73" x="1372.070312"/>
    <use xlink:href="#DejaVuSans-69" x="1424.169922"/>
    <use xlink:href="#DejaVuSans-73" x="1451.953125"/>
    <use xlink:href="#DejaVuSans-20" x="1504.052734"/>
    <use xlink:href="#DejaVuSans-28" x="1535.839844"/>
    <use xlink:href="#DejaVuSans-53" x="1574.853516"/>
    <use xlink:href="#DejaVuSans-77" x="1638.330078"/>
    <use xlink:href="#DejaVuSans-65" x="1720.117188"/>
    <use xlink:href="#DejaVuSans-65" x="1781.640625"/>
    <use xlink:href="#DejaVuSans-70" x="1843.164062"/>
    <use xlink:href="#DejaVuSans-20" x="1906.640625"/>
    <use xlink:href="#DejaVuSans-3d" x="1938.427734"/>
    <use xlink:href="#DejaVuSans-20" x="2022.216797"/>
    <use xlink:href="#DejaVuSans-33" x="2054.003906"/>
    <use xlink:href="#DejaVuSans-32" x="2117.626953"/>
    <use xlink:href="#DejaVuSans-45" x="2181.25"/>
    <use xlink:href="#DejaVuSans-2d" x="2244.433594"/>
    <use xlink:href="#DejaVuSans-39" x="2280.517578"/>
    <use xlink:href="#DejaVuSans-29" x="2344.140625"/>
   </g>
  </g>
 </g>
 <defs>
  <clipPath id="p763f0928e8">
   <rect x="100.8" y="38.88" width="887.04" height="92.731034"/>
  </clipPath>
  <clipPath id="p1a26fac0d4">
   <rect x="100.8" y="150.157241" width="887.04" height="92.731034"/>
  </clipPath>
  <clipPath id="pa59107cb9e">
   <rect x="100.8" y="261.434483" width="887.04" height="92.731034"/>
  </clipPath>
  <clipPath id="p930b99f96f">
   <rect x="100.8" y="372.711724" width="887.04" height="92.731034"/>
  </clipPath>
  <clipPath id="pd08a6297c5">
   <rect x="100.8" y="483.988966" width="887.04" height="92.731034"/>
  </clipPath>
  <clipPath id="p99f08dbbca">
   <rect x="201.6" y="609.12" width="655.2" height="25.92"/>
  </clipPath>
  <clipPath id="p68c8a1b319">
   <path d="M 201.6 628.56 
L 856.8 628.56 
L 856.8 615.6 
L 201.6 615.6 
z
"/>
  </clipPath>
 </defs>
</svg>
