<?xml version="1.0" encoding="utf-8" standalone="no"?>
<!DOCTYPE svg PUBLIC "-//W3C//DTD SVG 1.1//EN"
  "http://www.w3.org/Graphics/SVG/1.1/DTD/svg11.dtd">
<svg xmlns:xlink="http://www.w3.org/1999/xlink" width="1008pt" height="648pt" viewBox="0 0 1008 648" xmlns="http://www.w3.org/2000/svg" version="1.1">
 <metadata>
  <rdf:RDF xmlns:dc="http://purl.org/dc/elements/1.1/" xmlns:cc="http://creativecommons.org/ns#" xmlns:rdf="http://www.w3.org/1999/02/22-rdf-syntax-ns#">
   <cc:Work>
    <dc:type rdf:resource="http://purl.org/dc/dcmitype/StillImage"/>
    <dc:date>2024-06-03T10:45:50.812787</dc:date>
    <dc:format>image/svg+xml</dc:format>
    <dc:creator>
     <cc:Agent>
      <dc:title>Matplotlib v3.9.0, https://matplotlib.org/</dc:title>
     </cc:Agent>
    </dc:creator>
   </cc:Work>
  </rdf:RDF>
 </metadata>
 <defs>
  <style type="text/css">*{stroke-linejoin: round; stroke-linecap: butt}</style>
 </defs>
 <g id="figure_1">
  <g id="patch_1">
   <path d="M 0 648 
L 1008 648 
L 1008 0 
L 0 0 
z
" style="fill: #ffffff"/>
  </g>
  <g id="axes_1">
   <g id="patch_2">
    <path d="M 100.8 131.611034 
L 987.84 131.611034 
L 987.84 38.88 
L 100.8 38.88 
z
" style="fill: #eeeeee"/>
   </g>
   <g id="matplotlib.axis_1">
    <g id="xtick_1">
     <g id="line2d_1">
      <path d="M 141.12 131.611034 
L 141.12 38.88 
" clip-path="url(#pc7c6dae783)" style="fill: none; stroke-dasharray: 1.85,0.8; stroke-dashoffset: 0; stroke: #b2b2b2; stroke-width: 0.5"/>
     </g>
     <g id="line2d_2">
      <defs>
       <path id="m9899679292" d="M 0 0 
L 0 -3.5 
" style="stroke: #000000; stroke-width: 0.8"/>
      </defs>
      <g>
       <use xlink:href="#m9899679292" x="141.12" y="131.611034" style="stroke: #000000; stroke-width: 0.8"/>
      </g>
     </g>
    </g>
    <g id="xtick_2">
     <g id="line2d_3">
      <path d="M 302.4 131.611034 
L 302.4 38.88 
" clip-path="url(#pc7c6dae783)" style="fill: none; stroke-dasharray: 1.85,0.8; stroke-dashoffset: 0; stroke: #b2b2b2; stroke-width: 0.5"/>
     </g>
     <g id="line2d_4">
      <g>
       <use xlink:href="#m9899679292" x="302.4" y="131.611034" style="stroke: #000000; stroke-width: 0.8"/>
      </g>
     </g>
    </g>
    <g id="xtick_3">
     <g id="line2d_5">
      <path d="M 463.68 131.611034 
L 463.68 38.88 
" clip-path="url(#pc7c6dae783)" style="fill: none; stroke-dasharray: 1.85,0.8; stroke-dashoffset: 0; stroke: #b2b2b2; stroke-width: 0.5"/>
     </g>
     <g id="line2d_6">
      <g>
       <use xlink:href="#m9899679292" x="463.68" y="131.611034" style="stroke: #000000; stroke-width: 0.8"/>
      </g>
     </g>
    </g>
    <g id="xtick_4">
     <g id="line2d_7">
      <path d="M 624.96 131.611034 
L 624.96 38.88 
" clip-path="url(#pc7c6dae783)" style="fill: none; stroke-dasharray: 1.85,0.8; stroke-dashoffset: 0; stroke: #b2b2b2; stroke-width: 0.5"/>
     </g>
     <g id="line2d_8">
      <g>
       <use xlink:href="#m9899679292" x="624.96" y="131.611034" style="stroke: #000000; stroke-width: 0.8"/>
      </g>
     </g>
    </g>
    <g id="xtick_5">
     <g id="line2d_9">
      <path d="M 786.24 131.611034 
L 786.24 38.88 
" clip-path="url(#pc7c6dae783)" style="fill: none; stroke-dasharray: 1.85,0.8; stroke-dashoffset: 0; stroke: #b2b2b2; stroke-width: 0.5"/>
     </g>
     <g id="line2d_10">
      <g>
       <use xlink:href="#m9899679292" x="786.24" y="131.611034" style="stroke: #000000; stroke-width: 0.8"/>
      </g>
     </g>
    </g>
    <g id="xtick_6">
     <g id="line2d_11">
      <path d="M 947.52 131.611034 
L 947.52 38.88 
" clip-path="url(#pc7c6dae783)" style="fill: none; stroke-dasharray: 1.85,0.8; stroke-dashoffset: 0; stroke: #b2b2b2; stroke-width: 0.5"/>
     </g>
     <g id="line2d_12">
      <g>
       <use xlink:href="#m9899679292" x="947.52" y="131.611034" style="stroke: #000000; stroke-width: 0.8"/>
      </g>
     </g>
    </g>
   </g>
   <g id="matplotlib.axis_2">
    <g id="ytick_1">
     <g id="line2d_13">
      <path d="M 100.8 98.340394 
L 987.84 98.340394 
" clip-path="url(#pc7c6dae783)" style="fill: none; stroke-dasharray: 1.85,0.8; stroke-dashoffset: 0; stroke: #b2b2b2; stroke-width: 0.5"/>
     </g>
     <g id="line2d_14">
      <defs>
       <path id="m3e8bc6b09a" d="M 0 0 
L 3.5 0 
" style="stroke: #000000; stroke-width: 0.8"/>
      </defs>
      <g>
       <use xlink:href="#m3e8bc6b09a" x="100.8" y="98.340394" style="stroke: #000000; stroke-width: 0.8"/>
      </g>
     </g>
     <g id="text_1">
      <!-- −200 V -->
      <g transform="translate(44.819688 103.6593) scale(0.14 -0.14)">
       <defs>
        <path id="DejaVuSans-2212" d="M 678 2272 
L 4684 2272 
L 4684 1741 
L 678 1741 
L 678 2272 
z
" transform="scale(0.015625)"/>
        <path id="DejaVuSans-32" d="M 1228 531 
L 3431 531 
L 3431 0 
L 469 0 
L 469 531 
Q 828 903 1448 1529 
Q 2069 2156 2228 2338 
Q 2531 2678 2651 2914 
Q 2772 3150 2772 3378 
Q 2772 3750 2511 3984 
Q 2250 4219 1831 4219 
Q 1534 4219 1204 4116 
Q 875 4013 500 3803 
L 500 4441 
Q 881 4594 1212 4672 
Q 1544 4750 1819 4750 
Q 2544 4750 2975 4387 
Q 3406 4025 3406 3419 
Q 3406 3131 3298 2873 
Q 3191 2616 2906 2266 
Q 2828 2175 2409 1742 
Q 1991 1309 1228 531 
z
" transform="scale(0.015625)"/>
        <path id="DejaVuSans-30" d="M 2034 4250 
Q 1547 4250 1301 3770 
Q 1056 3291 1056 2328 
Q 1056 1369 1301 889 
Q 1547 409 2034 409 
Q 2525 409 2770 889 
Q 3016 1369 3016 2328 
Q 3016 3291 2770 3770 
Q 2525 4250 2034 4250 
z
M 2034 4750 
Q 2819 4750 3233 4129 
Q 3647 3509 3647 2328 
Q 3647 1150 3233 529 
Q 2819 -91 2034 -91 
Q 1250 -91 836 529 
Q 422 1150 422 2328 
Q 422 3509 836 4129 
Q 1250 4750 2034 4750 
z
" transform="scale(0.015625)"/>
        <path id="DejaVuSans-20" transform="scale(0.015625)"/>
        <path id="DejaVuSans-56" d="M 1831 0 
L 50 4666 
L 709 4666 
L 2188 738 
L 3669 4666 
L 4325 4666 
L 2547 0 
L 1831 0 
z
" transform="scale(0.015625)"/>
       </defs>
       <use xlink:href="#DejaVuSans-2212"/>
       <use xlink:href="#DejaVuSans-32" x="83.789062"/>
       <use xlink:href="#DejaVuSans-30" x="147.412109"/>
       <use xlink:href="#DejaVuSans-30" x="211.035156"/>
       <use xlink:href="#DejaVuSans-20" x="274.658203"/>
       <use xlink:href="#DejaVuSans-56" x="306.445312"/>
      </g>
     </g>
    </g>
    <g id="ytick_2">
     <g id="line2d_15">
      <path d="M 100.8 45.027377 
L 987.84 45.027377 
" clip-path="url(#pc7c6dae783)" style="fill: none; stroke-dasharray: 1.85,0.8; stroke-dashoffset: 0; stroke: #b2b2b2; stroke-width: 0.5"/>
     </g>
     <g id="line2d_16">
      <g>
       <use xlink:href="#m3e8bc6b09a" x="100.8" y="45.027377" style="stroke: #000000; stroke-width: 0.8"/>
      </g>
     </g>
     <g id="text_2">
      <!-- 0 V -->
      <g transform="translate(74.36625 50.346284) scale(0.14 -0.14)">
       <use xlink:href="#DejaVuSans-30"/>
       <use xlink:href="#DejaVuSans-20" x="63.623047"/>
       <use xlink:href="#DejaVuSans-56" x="95.410156"/>
      </g>
     </g>
    </g>
    <g id="text_3">
     <g id="patch_3">
      <path d="M 34.8768 131.080205 
L 34.8768 39.41083 
L 11.247425 39.41083 
L 11.247425 131.080205 
z
" style="fill: #ffff00; opacity: 0.2; stroke: #eeeeee; stroke-width: 0.5; stroke-linejoin: miter"/>
     </g>
     <!-- VPULSE BBI -->
     <g transform="translate(26.925238 126.040205) rotate(-90) scale(0.14 -0.14)">
      <defs>
       <path id="DejaVuSans-50" d="M 1259 4147 
L 1259 2394 
L 2053 2394 
Q 2494 2394 2734 2622 
Q 2975 2850 2975 3272 
Q 2975 3691 2734 3919 
Q 2494 4147 2053 4147 
L 1259 4147 
z
M 628 4666 
L 2053 4666 
Q 2838 4666 3239 4311 
Q 3641 3956 3641 3272 
Q 3641 2581 3239 2228 
Q 2838 1875 2053 1875 
L 1259 1875 
L 1259 0 
L 628 0 
L 628 4666 
z
" transform="scale(0.015625)"/>
       <path id="DejaVuSans-55" d="M 556 4666 
L 1191 4666 
L 1191 1831 
Q 1191 1081 1462 751 
Q 1734 422 2344 422 
Q 2950 422 3222 751 
Q 3494 1081 3494 1831 
L 3494 4666 
L 4128 4666 
L 4128 1753 
Q 4128 841 3676 375 
Q 3225 -91 2344 -91 
Q 1459 -91 1007 375 
Q 556 841 556 1753 
L 556 4666 
z
" transform="scale(0.015625)"/>
       <path id="DejaVuSans-4c" d="M 628 4666 
L 1259 4666 
L 1259 531 
L 3531 531 
L 3531 0 
L 628 0 
L 628 4666 
z
" transform="scale(0.015625)"/>
       <path id="DejaVuSans-53" d="M 3425 4513 
L 3425 3897 
Q 3066 4069 2747 4153 
Q 2428 4238 2131 4238 
Q 1616 4238 1336 4038 
Q 1056 3838 1056 3469 
Q 1056 3159 1242 3001 
Q 1428 2844 1947 2747 
L 2328 2669 
Q 3034 2534 3370 2195 
Q 3706 1856 3706 1288 
Q 3706 609 3251 259 
Q 2797 -91 1919 -91 
Q 1588 -91 1214 -16 
Q 841 59 441 206 
L 441 856 
Q 825 641 1194 531 
Q 1563 422 1919 422 
Q 2459 422 2753 634 
Q 3047 847 3047 1241 
Q 3047 1584 2836 1778 
Q 2625 1972 2144 2069 
L 1759 2144 
Q 1053 2284 737 2584 
Q 422 2884 422 3419 
Q 422 4038 858 4394 
Q 1294 4750 2059 4750 
Q 2388 4750 2728 4690 
Q 3069 4631 3425 4513 
z
" transform="scale(0.015625)"/>
       <path id="DejaVuSans-45" d="M 628 4666 
L 3578 4666 
L 3578 4134 
L 1259 4134 
L 1259 2753 
L 3481 2753 
L 3481 2222 
L 1259 2222 
L 1259 531 
L 3634 531 
L 3634 0 
L 628 0 
L 628 4666 
z
" transform="scale(0.015625)"/>
       <path id="DejaVuSans-42" d="M 1259 2228 
L 1259 519 
L 2272 519 
Q 2781 519 3026 730 
Q 3272 941 3272 1375 
Q 3272 1813 3026 2020 
Q 2781 2228 2272 2228 
L 1259 2228 
z
M 1259 4147 
L 1259 2741 
L 2194 2741 
Q 2656 2741 2882 2914 
Q 3109 3088 3109 3444 
Q 3109 3797 2882 3972 
Q 2656 4147 2194 4147 
L 1259 4147 
z
M 628 4666 
L 2241 4666 
Q 2963 4666 3353 4366 
Q 3744 4066 3744 3513 
Q 3744 3084 3544 2831 
Q 3344 2578 2956 2516 
Q 3422 2416 3680 2098 
Q 3938 1781 3938 1306 
Q 3938 681 3513 340 
Q 3088 0 2303 0 
L 628 0 
L 628 4666 
z
" transform="scale(0.015625)"/>
       <path id="DejaVuSans-49" d="M 628 4666 
L 1259 4666 
L 1259 0 
L 628 0 
L 628 4666 
z
" transform="scale(0.015625)"/>
      </defs>
      <use xlink:href="#DejaVuSans-56"/>
      <use xlink:href="#DejaVuSans-50" x="68.408203"/>
      <use xlink:href="#DejaVuSans-55" x="128.710938"/>
      <use xlink:href="#DejaVuSans-4c" x="201.904297"/>
      <use xlink:href="#DejaVuSans-53" x="257.617188"/>
      <use xlink:href="#DejaVuSans-45" x="321.09375"/>
      <use xlink:href="#DejaVuSans-20" x="384.277344"/>
      <use xlink:href="#DejaVuSans-42" x="416.064453"/>
      <use xlink:href="#DejaVuSans-42" x="484.667969"/>
      <use xlink:href="#DejaVuSans-49" x="553.271484"/>
     </g>
    </g>
   </g>
   <g id="line2d_17">
    <path d="M 141.12 45.027377 
L 508.870656 45.136282 
L 509.354496 46.425538 
L 517.579776 69.006772 
L 524.998656 89.863624 
L 526.611456 94.440546 
L 528.417792 99.675885 
L 534.675456 119.532318 
L 535.965696 120.153414 
L 536.804352 120.545265 
L 537.836544 121.017085 
L 538.417152 121.272988 
L 539.288064 121.656841 
L 539.868672 121.912744 
L 540.707328 122.269941 
L 542.287872 122.936354 
L 542.932992 123.202919 
L 544.029696 123.629423 
L 544.771584 123.922644 
L 545.868288 124.349149 
L 546.771456 124.677024 
L 547.448832 124.943589 
L 548.255232 125.25547 
L 549.609984 125.804594 
L 552.254976 126.790885 
L 552.86784 127.022796 
L 554.8032 127.395987 
L 573.285888 127.289361 
L 573.51168 126.801547 
L 591.800832 75.087922 
L 595.542528 63.292417 
L 599.251968 51.617666 
L 603.864576 49.3412 
L 609.219072 46.984578 
L 617.928192 43.484472 
L 618.799104 43.268927 
L 633.088512 43.108189 
L 639.894528 43.184799 
L 655.248384 43.746186 
L 683.0208 44.46146 
L 708.66432 44.774399 
L 744.274944 44.945888 
L 792.304128 44.953885 
L 947.52 44.953885 
L 947.52 44.953885 
" clip-path="url(#pc7c6dae783)" style="fill: none; stroke: #ff0000; stroke-width: 2; stroke-linecap: square"/>
   </g>
   <g id="patch_4">
    <path d="M 100.8 131.611034 
L 100.8 38.88 
" style="fill: none; stroke: #bcbcbc; stroke-width: 0.8; stroke-linejoin: miter; stroke-linecap: square"/>
   </g>
   <g id="patch_5">
    <path d="M 987.84 131.611034 
L 987.84 38.88 
" style="fill: none; stroke: #bcbcbc; stroke-width: 0.8; stroke-linejoin: miter; stroke-linecap: square"/>
   </g>
   <g id="patch_6">
    <path d="M 100.8 131.611034 
L 987.84 131.611034 
" style="fill: none; stroke: #bcbcbc; stroke-width: 0.8; stroke-linejoin: miter; stroke-linecap: square"/>
   </g>
   <g id="patch_7">
    <path d="M 100.8 38.88 
L 987.84 38.88 
" style="fill: none; stroke: #bcbcbc; stroke-width: 0.8; stroke-linejoin: miter; stroke-linecap: square"/>
   </g>
  </g>
  <g id="axes_2">
   <g id="patch_8">
    <path d="M 100.8 242.888276 
L 987.84 242.888276 
L 987.84 150.157241 
L 100.8 150.157241 
z
" style="fill: #eeeeee"/>
   </g>
   <g id="matplotlib.axis_3">
    <g id="xtick_7">
     <g id="line2d_18">
      <path d="M 141.12 242.888276 
L 141.12 150.157241 
" clip-path="url(#pd3ea3a8ad2)" style="fill: none; stroke-dasharray: 1.85,0.8; stroke-dashoffset: 0; stroke: #b2b2b2; stroke-width: 0.5"/>
     </g>
     <g id="line2d_19">
      <g>
       <use xlink:href="#m9899679292" x="141.12" y="242.888276" style="stroke: #000000; stroke-width: 0.8"/>
      </g>
     </g>
    </g>
    <g id="xtick_8">
     <g id="line2d_20">
      <path d="M 302.4 242.888276 
L 302.4 150.157241 
" clip-path="url(#pd3ea3a8ad2)" style="fill: none; stroke-dasharray: 1.85,0.8; stroke-dashoffset: 0; stroke: #b2b2b2; stroke-width: 0.5"/>
     </g>
     <g id="line2d_21">
      <g>
       <use xlink:href="#m9899679292" x="302.4" y="242.888276" style="stroke: #000000; stroke-width: 0.8"/>
      </g>
     </g>
    </g>
    <g id="xtick_9">
     <g id="line2d_22">
      <path d="M 463.68 242.888276 
L 463.68 150.157241 
" clip-path="url(#pd3ea3a8ad2)" style="fill: none; stroke-dasharray: 1.85,0.8; stroke-dashoffset: 0; stroke: #b2b2b2; stroke-width: 0.5"/>
     </g>
     <g id="line2d_23">
      <g>
       <use xlink:href="#m9899679292" x="463.68" y="242.888276" style="stroke: #000000; stroke-width: 0.8"/>
      </g>
     </g>
    </g>
    <g id="xtick_10">
     <g id="line2d_24">
      <path d="M 624.96 242.888276 
L 624.96 150.157241 
" clip-path="url(#pd3ea3a8ad2)" style="fill: none; stroke-dasharray: 1.85,0.8; stroke-dashoffset: 0; stroke: #b2b2b2; stroke-width: 0.5"/>
     </g>
     <g id="line2d_25">
      <g>
       <use xlink:href="#m9899679292" x="624.96" y="242.888276" style="stroke: #000000; stroke-width: 0.8"/>
      </g>
     </g>
    </g>
    <g id="xtick_11">
     <g id="line2d_26">
      <path d="M 786.24 242.888276 
L 786.24 150.157241 
" clip-path="url(#pd3ea3a8ad2)" style="fill: none; stroke-dasharray: 1.85,0.8; stroke-dashoffset: 0; stroke: #b2b2b2; stroke-width: 0.5"/>
     </g>
     <g id="line2d_27">
      <g>
       <use xlink:href="#m9899679292" x="786.24" y="242.888276" style="stroke: #000000; stroke-width: 0.8"/>
      </g>
     </g>
    </g>
    <g id="xtick_12">
     <g id="line2d_28">
      <path d="M 947.52 242.888276 
L 947.52 150.157241 
" clip-path="url(#pd3ea3a8ad2)" style="fill: none; stroke-dasharray: 1.85,0.8; stroke-dashoffset: 0; stroke: #b2b2b2; stroke-width: 0.5"/>
     </g>
     <g id="line2d_29">
      <g>
       <use xlink:href="#m9899679292" x="947.52" y="242.888276" style="stroke: #000000; stroke-width: 0.8"/>
      </g>
     </g>
    </g>
   </g>
   <g id="matplotlib.axis_4">
    <g id="ytick_3">
     <g id="line2d_30">
      <path d="M 100.8 219.280052 
L 987.84 219.280052 
" clip-path="url(#pd3ea3a8ad2)" style="fill: none; stroke-dasharray: 1.85,0.8; stroke-dashoffset: 0; stroke: #b2b2b2; stroke-width: 0.5"/>
     </g>
     <g id="line2d_31">
      <g>
       <use xlink:href="#m3e8bc6b09a" x="100.8" y="219.280052" style="stroke: #000000; stroke-width: 0.8"/>
      </g>
     </g>
     <g id="text_4">
      <!-- 0 V -->
      <g transform="translate(74.36625 224.598958) scale(0.14 -0.14)">
       <use xlink:href="#DejaVuSans-30"/>
       <use xlink:href="#DejaVuSans-20" x="63.623047"/>
       <use xlink:href="#DejaVuSans-56" x="95.410156"/>
      </g>
     </g>
    </g>
    <g id="ytick_4">
     <g id="line2d_32">
      <path d="M 100.8 185.741188 
L 987.84 185.741188 
" clip-path="url(#pd3ea3a8ad2)" style="fill: none; stroke-dasharray: 1.85,0.8; stroke-dashoffset: 0; stroke: #b2b2b2; stroke-width: 0.5"/>
     </g>
     <g id="line2d_33">
      <g>
       <use xlink:href="#m3e8bc6b09a" x="100.8" y="185.741188" style="stroke: #000000; stroke-width: 0.8"/>
      </g>
     </g>
     <g id="text_5">
      <!-- 1 V -->
      <g transform="translate(74.36625 191.060094) scale(0.14 -0.14)">
       <defs>
        <path id="DejaVuSans-31" d="M 794 531 
L 1825 531 
L 1825 4091 
L 703 3866 
L 703 4441 
L 1819 4666 
L 2450 4666 
L 2450 531 
L 3481 531 
L 3481 0 
L 794 0 
L 794 531 
z
" transform="scale(0.015625)"/>
       </defs>
       <use xlink:href="#DejaVuSans-31"/>
       <use xlink:href="#DejaVuSans-20" x="63.623047"/>
       <use xlink:href="#DejaVuSans-56" x="95.410156"/>
      </g>
     </g>
    </g>
    <g id="ytick_5">
     <g id="line2d_34">
      <path d="M 100.8 152.202324 
L 987.84 152.202324 
" clip-path="url(#pd3ea3a8ad2)" style="fill: none; stroke-dasharray: 1.85,0.8; stroke-dashoffset: 0; stroke: #b2b2b2; stroke-width: 0.5"/>
     </g>
     <g id="line2d_35">
      <g>
       <use xlink:href="#m3e8bc6b09a" x="100.8" y="152.202324" style="stroke: #000000; stroke-width: 0.8"/>
      </g>
     </g>
     <g id="text_6">
      <!-- 2 V -->
      <g transform="translate(74.36625 157.52123) scale(0.14 -0.14)">
       <use xlink:href="#DejaVuSans-32"/>
       <use xlink:href="#DejaVuSans-20" x="63.623047"/>
       <use xlink:href="#DejaVuSans-56" x="95.410156"/>
      </g>
     </g>
    </g>
    <g id="text_7">
     <g id="patch_9">
      <path d="M 34.8768 224.531509 
L 34.8768 168.514009 
L 11.247425 168.514009 
L 11.247425 224.531509 
z
" style="fill: #ffff00; opacity: 0.2; stroke: #eeeeee; stroke-width: 0.5; stroke-linejoin: miter"/>
     </g>
     <!-- DFF IN -->
     <g transform="translate(26.925238 219.491509) rotate(-90) scale(0.14 -0.14)">
      <defs>
       <path id="DejaVuSans-44" d="M 1259 4147 
L 1259 519 
L 2022 519 
Q 2988 519 3436 956 
Q 3884 1394 3884 2338 
Q 3884 3275 3436 3711 
Q 2988 4147 2022 4147 
L 1259 4147 
z
M 628 4666 
L 1925 4666 
Q 3281 4666 3915 4102 
Q 4550 3538 4550 2338 
Q 4550 1131 3912 565 
Q 3275 0 1925 0 
L 628 0 
L 628 4666 
z
" transform="scale(0.015625)"/>
       <path id="DejaVuSans-46" d="M 628 4666 
L 3309 4666 
L 3309 4134 
L 1259 4134 
L 1259 2759 
L 3109 2759 
L 3109 2228 
L 1259 2228 
L 1259 0 
L 628 0 
L 628 4666 
z
" transform="scale(0.015625)"/>
       <path id="DejaVuSans-4e" d="M 628 4666 
L 1478 4666 
L 3547 763 
L 3547 4666 
L 4159 4666 
L 4159 0 
L 3309 0 
L 1241 3903 
L 1241 0 
L 628 0 
L 628 4666 
z
" transform="scale(0.015625)"/>
      </defs>
      <use xlink:href="#DejaVuSans-44"/>
      <use xlink:href="#DejaVuSans-46" x="77.001953"/>
      <use xlink:href="#DejaVuSans-46" x="134.521484"/>
      <use xlink:href="#DejaVuSans-20" x="192.041016"/>
      <use xlink:href="#DejaVuSans-49" x="223.828125"/>
      <use xlink:href="#DejaVuSans-4e" x="253.320312"/>
     </g>
    </g>
   </g>
   <g id="line2d_36">
    <path d="M 141.12 219.231071 
L 221.953536 219.18508 
L 224.437248 200.497617 
L 225.404928 194.81278 
L 228.243456 182.313516 
L 229.598208 181.059162 
L 231.178752 180.197214 
L 236.565504 179.747793 
L 243.661824 179.637115 
L 245.1456 179.593514 
L 248.403456 179.482836 
L 250.113024 179.415758 
L 252.177408 179.30508 
L 254.241792 178.979753 
L 254.757888 178.449839 
L 255.499776 178.11445 
L 256.370688 178.134573 
L 257.531904 178.365992 
L 259.98336 178.765104 
L 262.370304 178.902613 
L 263.886336 178.952922 
L 264.144384 184.124615 
L 264.434688 187.643512 
L 265.176576 192.331239 
L 267.144192 209.441761 
L 268.402176 215.866131 
L 269.079552 217.176159 
L 270.46656 218.872756 
L 273.724416 219.281863 
L 282.594816 219.235502 
L 297.110016 219.224297 
L 305.883648 219.230277 
L 347.751936 219.186753 
L 350.235648 200.537193 
L 351.622656 192.010608 
L 352.687104 186.687319 
L 354.97728 179.881948 
L 358.493184 178.895906 
L 360.235008 178.966337 
L 363.073536 179.077016 
L 364.396032 179.103847 
L 375.169536 179.174278 
L 375.717888 180.153613 
L 376.169472 180.894822 
L 377.008128 181.79031 
L 377.524224 181.740001 
L 378.427392 181.451567 
L 380.45952 180.3146 
L 381.58848 179.959088 
L 387.201024 179.48619 
L 389.65248 179.375511 
L 391.813632 179.261479 
L 394.555392 179.150801 
L 395.9424 179.117262 
L 415.392768 179.009938 
L 415.973376 178.392823 
L 416.844288 178.060788 
L 417.908736 178.164758 
L 419.16672 178.443131 
L 420.908544 178.694672 
L 424.00512 178.905967 
L 455.712768 179.006584 
L 456.809472 179.885302 
L 457.261056 179.955734 
L 458.712576 179.99598 
L 462.744576 179.466066 
L 464.16384 179.281603 
L 467.518464 179.043477 
L 496.065024 178.966337 
L 496.613376 178.396177 
L 497.193984 178.154697 
L 499.097088 178.262021 
L 502.129152 178.785227 
L 504.419328 178.895906 
L 505.838592 178.932798 
L 508.902912 179.043477 
L 509.354496 179.885302 
L 510.709248 182.326931 
L 512.160768 184.389572 
L 518.160384 192.650529 
L 518.740992 194.475714 
L 521.031168 203.148193 
L 521.385984 204.698024 
L 521.7408 206.464181 
L 523.19232 212.563559 
L 524.998656 218.709723 
L 525.159936 219.203576 
L 526.224384 222.936794 
L 526.546944 223.587112 
L 526.611456 223.73133 
L 527.675904 226.06161 
L 528.03072 226.34233 
L 528.256512 226.781689 
L 528.579072 227.756329 
L 529.64352 229.896444 
L 530.901504 232.29246 
L 532.288512 234.744486 
L 533.804544 237.235418 
L 534.288384 238.134259 
L 534.417408 238.198319 
L 534.707712 238.664844 
L 534.901248 238.636671 
L 535.352832 237.863265 
L 536.030208 236.796729 
L 536.352768 236.287609 
L 536.514048 236.101469 
L 536.772096 235.735224 
L 537.54624 234.917547 
L 538.03008 234.127707 
L 538.255872 234.007302 
L 538.449408 233.852017 
L 538.642944 233.713166 
L 539.707392 232.813319 
L 539.96544 232.471222 
L 540.513792 231.845387 
L 540.642816 231.715592 
L 540.900864 231.500272 
L 540.997632 231.432524 
L 541.287936 231.233303 
L 541.707264 231.017983 
L 542.642688 230.09164 
L 542.965248 229.643225 
L 543.287808 229.409795 
L 543.449088 229.26759 
L 543.67488 229.108951 
L 543.965184 228.949977 
L 544.287744 228.796033 
L 545.61024 227.654706 
L 546.545664 226.671682 
L 547.126272 226.437245 
L 548.545536 225.355617 
L 548.964864 224.763656 
L 549.287424 224.405796 
L 549.609984 224.352134 
L 550.029312 224.191818 
L 550.964736 223.519699 
L 554.835456 220.242852 
L 555.545088 219.242122 
L 556.448256 218.011075 
L 562.157568 210.807128 
L 562.318848 210.646477 
L 563.318784 209.344499 
L 563.963904 207.39522 
L 565.12512 204.083257 
L 566.189568 201.710047 
L 569.092608 197.562631 
L 569.834496 196.690621 
L 570.673152 195.793456 
L 571.57632 194.641731 
L 572.995584 193.383353 
L 573.414912 192.836334 
L 573.83424 191.532008 
L 575.188992 187.087102 
L 575.995392 185.271644 
L 576.930816 183.302912 
L 577.737216 181.364366 
L 578.446848 180.143551 
L 578.930688 179.660592 
L 579.382272 179.452651 
L 579.96288 179.221233 
L 580.543488 178.808705 
L 581.57568 177.581182 
L 583.414272 174.914843 
L 585.317376 172.157948 
L 586.639872 170.299895 
L 588.639744 167.583247 
L 591.187968 164.316562 
L 592.123392 163.186302 
L 594.63936 159.872662 
L 596.477952 157.571896 
L 599.1552 154.389058 
L 599.31648 154.429304 
L 599.993856 154.828417 
L 600.703488 155.073251 
L 601.509888 155.21076 
L 602.606592 155.432116 
L 608.541696 157.397494 
L 610.702848 158.178949 
L 611.57376 158.470738 
L 612.993024 158.943636 
L 616.992768 160.275128 
L 618.250752 165.513899 
L 618.573312 165.701717 
L 618.863616 165.664824 
L 619.186176 165.456883 
L 620.089344 164.460779 
L 620.831232 163.836956 
L 621.508608 163.545168 
L 623.02464 163.491505 
L 623.605248 163.615599 
L 626.669568 164.457425 
L 628.314624 164.910199 
L 633.217536 166.553604 
L 634.765824 167.080164 
L 645.216768 170.226109 
L 645.894144 170.407219 
L 647.732736 170.866702 
L 651.700224 171.802436 
L 652.829184 172.040562 
L 653.893632 172.258564 
L 654.95808 172.479921 
L 655.538688 172.587245 
L 657.312768 172.879033 
L 657.796608 172.278688 
L 658.18368 172.087516 
L 658.893312 172.114347 
L 663.34464 173.855014 
L 663.892992 173.965693 
L 667.6992 174.649885 
L 668.441088 174.75721 
L 669.95712 174.961797 
L 670.828032 175.069121 
L 671.505408 175.166384 
L 672.440832 175.273708 
L 673.537536 175.394448 
L 674.601984 175.505127 
L 675.698688 175.625866 
L 676.698624 175.736545 
L 677.795328 175.853931 
L 679.053312 175.961255 
L 680.053248 176.061872 
L 681.182208 176.169196 
L 682.05312 176.246335 
L 682.665984 176.289936 
L 687.149568 176.645448 
L 688.633344 176.756126 
L 689.052672 176.776249 
L 689.63328 176.823204 
L 692.439552 177.004314 
L 693.116928 177.04456 
L 695.665152 177.202193 
L 696.439296 177.229024 
L 697.729536 177.460442 
L 698.116608 177.953464 
L 698.632704 178.29556 
L 699.245568 178.443131 
L 700.27776 178.339161 
L 701.568 177.916571 
L 703.245312 177.678445 
L 704.600064 177.644906 
L 705.954816 177.678445 
L 706.72896 177.705276 
L 708.406272 177.769 
L 709.180416 177.799185 
L 712.083456 177.909863 
L 713.470464 177.943402 
L 716.147712 178.05408 
L 717.599232 178.097681 
L 718.405632 178.124512 
L 719.95392 178.178174 
L 720.792576 178.201651 
L 724.760064 178.312329 
L 725.889024 178.319037 
L 730.469376 178.429715 
L 731.824128 178.4599 
L 732.824064 178.466608 
L 733.469184 178.493439 
L 734.46912 178.500147 
L 738.049536 178.409592 
L 738.597888 177.852847 
L 739.081728 177.634844 
L 739.533312 177.604659 
L 740.404224 177.715338 
L 744.403968 178.436423 
L 746.56512 178.550455 
L 778.240512 178.65778 
L 778.401792 178.835536 
L 778.917888 179.34868 
L 779.30496 179.52979 
L 780.079104 179.663946 
L 782.143488 179.556621 
L 784.498176 179.177632 
L 789.62688 178.755042 
L 818.592768 178.671195 
L 819.14112 178.064142 
L 819.689472 177.792477 
L 821.624832 177.899801 
L 824.882688 178.466608 
L 827.04384 178.58064 
L 858.912768 178.671195 
L 859.848192 179.496251 
L 860.783616 179.674007 
L 862.073856 179.704192 
L 864.847872 179.238002 
L 870.75072 178.734919 
L 899.265024 178.624241 
L 899.78112 178.064142 
L 900.329472 177.792477 
L 902.264832 177.899801 
L 905.522688 178.466608 
L 907.68384 178.58064 
L 939.552768 178.671195 
L 940.617216 179.526436 
L 941.55264 179.7109 
L 943.488 179.600222 
L 946.487808 179.087077 
L 947.52 178.926091 
L 947.52 178.926091 
" clip-path="url(#pd3ea3a8ad2)" style="fill: none; stroke: #008000; stroke-width: 2; stroke-linecap: square"/>
   </g>
   <g id="patch_10">
    <path d="M 100.8 242.888276 
L 100.8 150.157241 
" style="fill: none; stroke: #bcbcbc; stroke-width: 0.8; stroke-linejoin: miter; stroke-linecap: square"/>
   </g>
   <g id="patch_11">
    <path d="M 987.84 242.888276 
L 987.84 150.157241 
" style="fill: none; stroke: #bcbcbc; stroke-width: 0.8; stroke-linejoin: miter; stroke-linecap: square"/>
   </g>
   <g id="patch_12">
    <path d="M 100.8 242.888276 
L 987.84 242.888276 
" style="fill: none; stroke: #bcbcbc; stroke-width: 0.8; stroke-linejoin: miter; stroke-linecap: square"/>
   </g>
   <g id="patch_13">
    <path d="M 100.8 150.157241 
L 987.84 150.157241 
" style="fill: none; stroke: #bcbcbc; stroke-width: 0.8; stroke-linejoin: miter; stroke-linecap: square"/>
   </g>
  </g>
  <g id="axes_3">
   <g id="patch_14">
    <path d="M 100.8 354.165517 
L 987.84 354.165517 
L 987.84 261.434483 
L 100.8 261.434483 
z
" style="fill: #eeeeee"/>
   </g>
   <g id="matplotlib.axis_5">
    <g id="xtick_13">
     <g id="line2d_37">
      <path d="M 141.12 354.165517 
L 141.12 261.434483 
" clip-path="url(#ped606d7e17)" style="fill: none; stroke-dasharray: 1.85,0.8; stroke-dashoffset: 0; stroke: #b2b2b2; stroke-width: 0.5"/>
     </g>
     <g id="line2d_38">
      <g>
       <use xlink:href="#m9899679292" x="141.12" y="354.165517" style="stroke: #000000; stroke-width: 0.8"/>
      </g>
     </g>
    </g>
    <g id="xtick_14">
     <g id="line2d_39">
      <path d="M 302.4 354.165517 
L 302.4 261.434483 
" clip-path="url(#ped606d7e17)" style="fill: none; stroke-dasharray: 1.85,0.8; stroke-dashoffset: 0; stroke: #b2b2b2; stroke-width: 0.5"/>
     </g>
     <g id="line2d_40">
      <g>
       <use xlink:href="#m9899679292" x="302.4" y="354.165517" style="stroke: #000000; stroke-width: 0.8"/>
      </g>
     </g>
    </g>
    <g id="xtick_15">
     <g id="line2d_41">
      <path d="M 463.68 354.165517 
L 463.68 261.434483 
" clip-path="url(#ped606d7e17)" style="fill: none; stroke-dasharray: 1.85,0.8; stroke-dashoffset: 0; stroke: #b2b2b2; stroke-width: 0.5"/>
     </g>
     <g id="line2d_42">
      <g>
       <use xlink:href="#m9899679292" x="463.68" y="354.165517" style="stroke: #000000; stroke-width: 0.8"/>
      </g>
     </g>
    </g>
    <g id="xtick_16">
     <g id="line2d_43">
      <path d="M 624.96 354.165517 
L 624.96 261.434483 
" clip-path="url(#ped606d7e17)" style="fill: none; stroke-dasharray: 1.85,0.8; stroke-dashoffset: 0; stroke: #b2b2b2; stroke-width: 0.5"/>
     </g>
     <g id="line2d_44">
      <g>
       <use xlink:href="#m9899679292" x="624.96" y="354.165517" style="stroke: #000000; stroke-width: 0.8"/>
      </g>
     </g>
    </g>
    <g id="xtick_17">
     <g id="line2d_45">
      <path d="M 786.24 354.165517 
L 786.24 261.434483 
" clip-path="url(#ped606d7e17)" style="fill: none; stroke-dasharray: 1.85,0.8; stroke-dashoffset: 0; stroke: #b2b2b2; stroke-width: 0.5"/>
     </g>
     <g id="line2d_46">
      <g>
       <use xlink:href="#m9899679292" x="786.24" y="354.165517" style="stroke: #000000; stroke-width: 0.8"/>
      </g>
     </g>
    </g>
    <g id="xtick_18">
     <g id="line2d_47">
      <path d="M 947.52 354.165517 
L 947.52 261.434483 
" clip-path="url(#ped606d7e17)" style="fill: none; stroke-dasharray: 1.85,0.8; stroke-dashoffset: 0; stroke: #b2b2b2; stroke-width: 0.5"/>
     </g>
     <g id="line2d_48">
      <g>
       <use xlink:href="#m9899679292" x="947.52" y="354.165517" style="stroke: #000000; stroke-width: 0.8"/>
      </g>
     </g>
    </g>
   </g>
   <g id="matplotlib.axis_6">
    <g id="ytick_6">
     <g id="line2d_49">
      <path d="M 100.8 345.607781 
L 987.84 345.607781 
" clip-path="url(#ped606d7e17)" style="fill: none; stroke-dasharray: 1.85,0.8; stroke-dashoffset: 0; stroke: #b2b2b2; stroke-width: 0.5"/>
     </g>
     <g id="line2d_50">
      <g>
       <use xlink:href="#m3e8bc6b09a" x="100.8" y="345.607781" style="stroke: #000000; stroke-width: 0.8"/>
      </g>
     </g>
     <g id="text_8">
      <!-- 0 V -->
      <g transform="translate(74.36625 350.926688) scale(0.14 -0.14)">
       <use xlink:href="#DejaVuSans-30"/>
       <use xlink:href="#DejaVuSans-20" x="63.623047"/>
       <use xlink:href="#DejaVuSans-56" x="95.410156"/>
      </g>
     </g>
    </g>
    <g id="ytick_7">
     <g id="line2d_51">
      <path d="M 100.8 304.118444 
L 987.84 304.118444 
" clip-path="url(#ped606d7e17)" style="fill: none; stroke-dasharray: 1.85,0.8; stroke-dashoffset: 0; stroke: #b2b2b2; stroke-width: 0.5"/>
     </g>
     <g id="line2d_52">
      <g>
       <use xlink:href="#m3e8bc6b09a" x="100.8" y="304.118444" style="stroke: #000000; stroke-width: 0.8"/>
      </g>
     </g>
     <g id="text_9">
      <!-- 1 V -->
      <g transform="translate(74.36625 309.43735) scale(0.14 -0.14)">
       <use xlink:href="#DejaVuSans-31"/>
       <use xlink:href="#DejaVuSans-20" x="63.623047"/>
       <use xlink:href="#DejaVuSans-56" x="95.410156"/>
      </g>
     </g>
    </g>
    <g id="ytick_8">
     <g id="line2d_53">
      <path d="M 100.8 262.629106 
L 987.84 262.629106 
" clip-path="url(#ped606d7e17)" style="fill: none; stroke-dasharray: 1.85,0.8; stroke-dashoffset: 0; stroke: #b2b2b2; stroke-width: 0.5"/>
     </g>
     <g id="line2d_54">
      <g>
       <use xlink:href="#m3e8bc6b09a" x="100.8" y="262.629106" style="stroke: #000000; stroke-width: 0.8"/>
      </g>
     </g>
     <g id="text_10">
      <!-- 2 V -->
      <g transform="translate(74.36625 267.948012) scale(0.14 -0.14)">
       <use xlink:href="#DejaVuSans-32"/>
       <use xlink:href="#DejaVuSans-20" x="63.623047"/>
       <use xlink:href="#DejaVuSans-56" x="95.410156"/>
      </g>
     </g>
    </g>
    <g id="text_11">
     <g id="patch_15">
      <path d="M 34.8768 342.395313 
L 34.8768 273.204688 
L 11.247425 273.204688 
L 11.247425 342.395313 
z
" style="fill: #ffff00; opacity: 0.2; stroke: #eeeeee; stroke-width: 0.5; stroke-linejoin: miter"/>
     </g>
     <!-- CLK BUF -->
     <g transform="translate(26.925238 337.355313) rotate(-90) scale(0.14 -0.14)">
      <defs>
       <path id="DejaVuSans-43" d="M 4122 4306 
L 4122 3641 
Q 3803 3938 3442 4084 
Q 3081 4231 2675 4231 
Q 1875 4231 1450 3742 
Q 1025 3253 1025 2328 
Q 1025 1406 1450 917 
Q 1875 428 2675 428 
Q 3081 428 3442 575 
Q 3803 722 4122 1019 
L 4122 359 
Q 3791 134 3420 21 
Q 3050 -91 2638 -91 
Q 1578 -91 968 557 
Q 359 1206 359 2328 
Q 359 3453 968 4101 
Q 1578 4750 2638 4750 
Q 3056 4750 3426 4639 
Q 3797 4528 4122 4306 
z
" transform="scale(0.015625)"/>
       <path id="DejaVuSans-4b" d="M 628 4666 
L 1259 4666 
L 1259 2694 
L 3353 4666 
L 4166 4666 
L 1850 2491 
L 4331 0 
L 3500 0 
L 1259 2247 
L 1259 0 
L 628 0 
L 628 4666 
z
" transform="scale(0.015625)"/>
      </defs>
      <use xlink:href="#DejaVuSans-43"/>
      <use xlink:href="#DejaVuSans-4c" x="69.824219"/>
      <use xlink:href="#DejaVuSans-4b" x="125.537109"/>
      <use xlink:href="#DejaVuSans-20" x="191.113281"/>
      <use xlink:href="#DejaVuSans-42" x="222.900391"/>
      <use xlink:href="#DejaVuSans-55" x="291.503906"/>
      <use xlink:href="#DejaVuSans-46" x="364.697266"/>
     </g>
    </g>
   </g>
   <g id="line2d_55">
    <path d="M 141.12 345.606684 
L 173.376 345.606684 
L 173.601792 295.820576 
L 213.696 295.820576 
L 213.760512 335.533755 
L 213.825024 345.588827 
L 213.889536 345.529122 
L 213.954048 345.694867 
L 214.01856 345.612277 
L 215.405568 345.602745 
L 223.759872 345.606602 
L 254.016 345.606656 
L 254.17728 295.667066 
L 254.241792 295.932597 
L 254.403072 295.812278 
L 254.854656 295.820576 
L 294.336 295.820576 
L 294.400512 335.498904 
L 294.465024 345.917379 
L 294.529536 345.196033 
L 294.626304 345.672982 
L 294.65856 345.643458 
L 294.884352 345.584805 
L 295.206912 345.622879 
L 295.497216 345.606361 
L 321.624576 345.606683 
L 334.656 345.606686 
L 334.81728 295.745895 
L 334.881792 295.837172 
L 335.204352 295.824725 
L 336.10752 295.820576 
L 374.976 295.820576 
L 375.040512 335.537489 
L 375.105024 345.608454 
L 375.169536 345.523861 
L 375.266304 345.6764 
L 375.29856 345.612415 
L 376.782336 345.602016 
L 385.362432 345.606603 
L 415.296 345.606686 
L 415.45728 295.667066 
L 415.521792 295.932597 
L 415.683072 295.808129 
L 416.683008 295.824725 
L 455.616 295.820576 
L 455.680512 335.501393 
L 455.745024 345.92249 
L 455.809536 345.004402 
L 455.906304 346.216513 
L 455.93856 345.675264 
L 456.132096 345.582864 
L 456.519168 345.607114 
L 491.194368 345.606792 
L 495.936 345.606685 
L 496.09728 295.671214 
L 496.161792 295.928448 
L 496.355328 295.816427 
L 496.806912 295.820576 
L 508.935168 295.928448 
L 510.580224 298.222809 
L 512.257536 301.015041 
L 519.16032 312.342045 
L 522.70848 317.527798 
L 526.25664 322.270859 
L 528.288768 324.417102 
L 528.546816 324.645708 
L 529.256448 325.288793 
L 530.901504 326.607324 
L 532.224 327.546228 
L 532.933632 328.030823 
L 533.094912 328.111728 
L 533.320704 328.289717 
L 533.417472 328.347802 
L 533.772288 328.597568 
L 534.288384 328.904174 
L 534.739968 329.051046 
L 535.28832 328.757302 
L 536.288256 328.352366 
L 536.449536 327.28443 
L 536.481792 327.351228 
L 536.546304 329.316163 
L 536.868864 349.95047 
L 536.90112 349.797789 
L 537.030144 349.870396 
L 547.319808 346.809105 
L 550.674432 346.099305 
L 555.899904 345.205272 
L 556.319232 345.163513 
L 558.609408 345.065723 
L 566.25408 345.128455 
L 566.673408 345.139408 
L 573.414912 345.124472 
L 574.060032 344.52296 
L 574.866432 344.116406 
L 575.898624 343.878008 
L 576.576 343.811915 
L 576.866304 304.534582 
L 579.31776 299.338872 
L 581.09184 295.725151 
L 582.511104 292.945365 
L 584.059392 290.012069 
L 585.349632 287.651326 
L 586.027008 286.431539 
L 588.34944 282.473456 
L 588.801024 281.71835 
L 590.026752 279.739309 
L 590.60736 278.818246 
L 591.41376 277.586012 
L 592.155648 276.457502 
L 595.058688 271.814845 
L 595.671552 270.848144 
L 597.090816 268.686549 
L 598.316544 266.935699 
L 599.187456 265.769849 
L 600.638976 265.68687 
L 603.058176 266.417083 
L 604.574208 267.072614 
L 606.509568 267.931443 
L 606.928896 268.118145 
L 608.606208 268.856656 
L 611.08992 269.931229 
L 612.412416 270.487187 
L 616.896 272.217292 
L 617.089536 345.980791 
L 617.121792 345.997839 
L 617.154048 345.914076 
L 617.186304 345.830309 
L 617.250816 345.923793 
L 617.573376 345.925195 
L 627.3792 346.037777 
L 650.184192 345.854659 
L 654.925824 345.82287 
L 657.216 345.807818 
L 657.345024 287.950049 
L 657.441792 288.319304 
L 658.377216 288.547495 
L 659.022336 288.688559 
L 659.538432 288.796431 
L 660.183552 288.937495 
L 660.699648 289.045367 
L 661.344768 289.186431 
L 661.860864 289.294303 
L 662.505984 289.435367 
L 663.118848 289.543239 
L 663.763968 289.684303 
L 664.376832 289.792175 
L 664.925184 289.89175 
L 665.538048 289.999622 
L 666.0864 290.099196 
L 666.602496 290.207069 
L 667.150848 290.306643 
L 667.86048 290.414515 
L 668.408832 290.51409 
L 669.118464 290.617813 
L 669.47328 290.680047 
L 670.086144 290.783771 
L 670.44096 290.846005 
L 671.150592 290.949728 
L 671.505408 291.011962 
L 672.311808 291.115685 
L 672.666624 291.177919 
L 673.376256 291.281643 
L 673.731072 291.343877 
L 674.63424 291.4476 
L 674.989056 291.509834 
L 675.795456 291.613557 
L 676.150272 291.675791 
L 677.05344 291.779515 
L 677.311488 291.800259 
L 678.117888 291.903983 
L 678.472704 291.962068 
L 684.214272 292.588557 
L 685.181952 292.69228 
L 685.44 292.713025 
L 686.439936 292.816748 
L 686.697984 292.837493 
L 687.794688 292.941216 
L 688.052736 292.957812 
L 690.891264 293.210897 
L 692.149248 293.31462 
L 692.407296 293.331216 
L 693.697536 293.439088 
L 693.955584 293.459833 
L 695.43936 293.563556 
L 695.697408 293.580152 
L 697.181184 293.688024 
L 697.439232 293.70462 
L 697.536 293.70462 
L 697.568256 298.787064 
L 697.69728 345.677595 
L 697.923072 345.664302 
L 737.856 345.622855 
L 737.952768 295.22313 
L 738.081792 295.239725 
L 744.210432 295.347598 
L 744.46848 295.364193 
L 778.176 295.405683 
L 778.305024 345.92466 
L 778.466304 345.683375 
L 778.724352 345.590835 
L 779.079168 345.635998 
L 779.401728 345.618348 
L 818.496 345.618566 
L 818.65728 295.189938 
L 818.721792 295.658768 
L 818.81856 295.231428 
L 818.883072 295.389087 
L 819.366912 295.405683 
L 858.816 295.405683 
L 858.945024 345.92483 
L 859.106304 345.683333 
L 859.364352 345.590832 
L 859.719168 345.635996 
L 860.041728 345.618349 
L 899.136 345.618566 
L 899.29728 295.189938 
L 899.361792 295.658768 
L 899.45856 295.231428 
L 899.523072 295.389087 
L 900.006912 295.405683 
L 939.456 295.405683 
L 939.488256 302.88621 
L 939.61728 345.569224 
L 939.649536 345.689864 
L 939.714048 345.574439 
L 939.810816 345.591582 
L 940.004352 345.643394 
L 940.230144 345.617249 
L 945.842688 345.618568 
L 947.52 345.618556 
L 947.52 345.618556 
" clip-path="url(#ped606d7e17)" style="fill: none; stroke: #0000ff; stroke-width: 2; stroke-linecap: square"/>
   </g>
   <g id="patch_16">
    <path d="M 100.8 354.165517 
L 100.8 261.434483 
" style="fill: none; stroke: #bcbcbc; stroke-width: 0.8; stroke-linejoin: miter; stroke-linecap: square"/>
   </g>
   <g id="patch_17">
    <path d="M 987.84 354.165517 
L 987.84 261.434483 
" style="fill: none; stroke: #bcbcbc; stroke-width: 0.8; stroke-linejoin: miter; stroke-linecap: square"/>
   </g>
   <g id="patch_18">
    <path d="M 100.8 354.165517 
L 987.84 354.165517 
" style="fill: none; stroke: #bcbcbc; stroke-width: 0.8; stroke-linejoin: miter; stroke-linecap: square"/>
   </g>
   <g id="patch_19">
    <path d="M 100.8 261.434483 
L 987.84 261.434483 
" style="fill: none; stroke: #bcbcbc; stroke-width: 0.8; stroke-linejoin: miter; stroke-linecap: square"/>
   </g>
  </g>
  <g id="axes_4">
   <g id="patch_20">
    <path d="M 100.8 465.442759 
L 987.84 465.442759 
L 987.84 372.711724 
L 100.8 372.711724 
z
" style="fill: #eeeeee"/>
   </g>
   <g id="matplotlib.axis_7">
    <g id="xtick_19">
     <g id="line2d_56">
      <path d="M 141.12 465.442759 
L 141.12 372.711724 
" clip-path="url(#pbea8dc1de3)" style="fill: none; stroke-dasharray: 1.85,0.8; stroke-dashoffset: 0; stroke: #b2b2b2; stroke-width: 0.5"/>
     </g>
     <g id="line2d_57">
      <g>
       <use xlink:href="#m9899679292" x="141.12" y="465.442759" style="stroke: #000000; stroke-width: 0.8"/>
      </g>
     </g>
    </g>
    <g id="xtick_20">
     <g id="line2d_58">
      <path d="M 302.4 465.442759 
L 302.4 372.711724 
" clip-path="url(#pbea8dc1de3)" style="fill: none; stroke-dasharray: 1.85,0.8; stroke-dashoffset: 0; stroke: #b2b2b2; stroke-width: 0.5"/>
     </g>
     <g id="line2d_59">
      <g>
       <use xlink:href="#m9899679292" x="302.4" y="465.442759" style="stroke: #000000; stroke-width: 0.8"/>
      </g>
     </g>
    </g>
    <g id="xtick_21">
     <g id="line2d_60">
      <path d="M 463.68 465.442759 
L 463.68 372.711724 
" clip-path="url(#pbea8dc1de3)" style="fill: none; stroke-dasharray: 1.85,0.8; stroke-dashoffset: 0; stroke: #b2b2b2; stroke-width: 0.5"/>
     </g>
     <g id="line2d_61">
      <g>
       <use xlink:href="#m9899679292" x="463.68" y="465.442759" style="stroke: #000000; stroke-width: 0.8"/>
      </g>
     </g>
    </g>
    <g id="xtick_22">
     <g id="line2d_62">
      <path d="M 624.96 465.442759 
L 624.96 372.711724 
" clip-path="url(#pbea8dc1de3)" style="fill: none; stroke-dasharray: 1.85,0.8; stroke-dashoffset: 0; stroke: #b2b2b2; stroke-width: 0.5"/>
     </g>
     <g id="line2d_63">
      <g>
       <use xlink:href="#m9899679292" x="624.96" y="465.442759" style="stroke: #000000; stroke-width: 0.8"/>
      </g>
     </g>
    </g>
    <g id="xtick_23">
     <g id="line2d_64">
      <path d="M 786.24 465.442759 
L 786.24 372.711724 
" clip-path="url(#pbea8dc1de3)" style="fill: none; stroke-dasharray: 1.85,0.8; stroke-dashoffset: 0; stroke: #b2b2b2; stroke-width: 0.5"/>
     </g>
     <g id="line2d_65">
      <g>
       <use xlink:href="#m9899679292" x="786.24" y="465.442759" style="stroke: #000000; stroke-width: 0.8"/>
      </g>
     </g>
    </g>
    <g id="xtick_24">
     <g id="line2d_66">
      <path d="M 947.52 465.442759 
L 947.52 372.711724 
" clip-path="url(#pbea8dc1de3)" style="fill: none; stroke-dasharray: 1.85,0.8; stroke-dashoffset: 0; stroke: #b2b2b2; stroke-width: 0.5"/>
     </g>
     <g id="line2d_67">
      <g>
       <use xlink:href="#m9899679292" x="947.52" y="465.442759" style="stroke: #000000; stroke-width: 0.8"/>
      </g>
     </g>
    </g>
   </g>
   <g id="matplotlib.axis_8">
    <g id="ytick_9">
     <g id="line2d_68">
      <path d="M 100.8 436.443969 
L 987.84 436.443969 
" clip-path="url(#pbea8dc1de3)" style="fill: none; stroke-dasharray: 1.85,0.8; stroke-dashoffset: 0; stroke: #b2b2b2; stroke-width: 0.5"/>
     </g>
     <g id="line2d_69">
      <g>
       <use xlink:href="#m3e8bc6b09a" x="100.8" y="436.443969" style="stroke: #000000; stroke-width: 0.8"/>
      </g>
     </g>
     <g id="text_12">
      <!-- 0 V -->
      <g transform="translate(74.36625 441.762875) scale(0.14 -0.14)">
       <use xlink:href="#DejaVuSans-30"/>
       <use xlink:href="#DejaVuSans-20" x="63.623047"/>
       <use xlink:href="#DejaVuSans-56" x="95.410156"/>
      </g>
     </g>
    </g>
    <g id="ytick_10">
     <g id="line2d_70">
      <path d="M 100.8 393.124078 
L 987.84 393.124078 
" clip-path="url(#pbea8dc1de3)" style="fill: none; stroke-dasharray: 1.85,0.8; stroke-dashoffset: 0; stroke: #b2b2b2; stroke-width: 0.5"/>
     </g>
     <g id="line2d_71">
      <g>
       <use xlink:href="#m3e8bc6b09a" x="100.8" y="393.124078" style="stroke: #000000; stroke-width: 0.8"/>
      </g>
     </g>
     <g id="text_13">
      <!-- 1 V -->
      <g transform="translate(74.36625 398.442985) scale(0.14 -0.14)">
       <use xlink:href="#DejaVuSans-31"/>
       <use xlink:href="#DejaVuSans-20" x="63.623047"/>
       <use xlink:href="#DejaVuSans-56" x="95.410156"/>
      </g>
     </g>
    </g>
    <g id="text_14">
     <g id="patch_21">
      <path d="M 34.8768 454.693023 
L 34.8768 383.46146 
L 11.247425 383.46146 
L 11.247425 454.693023 
z
" style="fill: #ffff00; opacity: 0.2; stroke: #eeeeee; stroke-width: 0.5; stroke-linejoin: miter"/>
     </g>
     <!-- DFF OUT -->
     <g transform="translate(26.925238 449.653023) rotate(-90) scale(0.14 -0.14)">
      <defs>
       <path id="DejaVuSans-4f" d="M 2522 4238 
Q 1834 4238 1429 3725 
Q 1025 3213 1025 2328 
Q 1025 1447 1429 934 
Q 1834 422 2522 422 
Q 3209 422 3611 934 
Q 4013 1447 4013 2328 
Q 4013 3213 3611 3725 
Q 3209 4238 2522 4238 
z
M 2522 4750 
Q 3503 4750 4090 4092 
Q 4678 3434 4678 2328 
Q 4678 1225 4090 567 
Q 3503 -91 2522 -91 
Q 1538 -91 948 565 
Q 359 1222 359 2328 
Q 359 3434 948 4092 
Q 1538 4750 2522 4750 
z
" transform="scale(0.015625)"/>
       <path id="DejaVuSans-54" d="M -19 4666 
L 3928 4666 
L 3928 4134 
L 2272 4134 
L 2272 0 
L 1638 0 
L 1638 4134 
L -19 4134 
L -19 4666 
z
" transform="scale(0.015625)"/>
      </defs>
      <use xlink:href="#DejaVuSans-44"/>
      <use xlink:href="#DejaVuSans-46" x="77.001953"/>
      <use xlink:href="#DejaVuSans-46" x="134.521484"/>
      <use xlink:href="#DejaVuSans-20" x="192.041016"/>
      <use xlink:href="#DejaVuSans-4f" x="223.828125"/>
      <use xlink:href="#DejaVuSans-55" x="302.539062"/>
      <use xlink:href="#DejaVuSans-54" x="375.732422"/>
     </g>
    </g>
   </g>
   <g id="line2d_72">
    <path d="M 141.12 403.757812 
L 173.408256 403.810662 
L 173.440512 405.604106 
L 173.601792 436.446613 
L 174.085632 436.441197 
L 183.53664 436.442815 
L 254.048256 436.444629 
L 254.080512 436.617803 
L 254.112768 436.33135 
L 254.306304 432.102016 
L 254.596608 431.254246 
L 254.693376 430.6495 
L 255.14496 423.059856 
L 255.370752 405.221591 
L 255.596544 384.880303 
L 255.757824 384.52508 
L 255.983616 384.455768 
L 256.822272 384.4601 
L 295.755264 384.54674 
L 296.239104 387.349537 
L 296.59392 386.647755 
L 297.948672 384.815323 
L 299.561472 384.494756 
L 334.688256 384.477428 
L 334.720512 384.3518 
L 334.752768 384.988603 
L 334.785024 388.137959 
L 334.914048 436.426211 
L 334.97856 436.388086 
L 335.13984 436.43489 
L 335.4624 436.446178 
L 336.75264 436.442819 
L 415.328256 436.444603 
L 415.360512 436.617201 
L 415.392768 436.33375 
L 415.586304 432.001081 
L 415.844352 431.125586 
L 415.908864 430.88776 
L 416.1024 425.750454 
L 416.521728 410.794695 
L 416.9088 384.603056 
L 417.102336 384.464432 
L 417.682944 384.494756 
L 418.166784 384.451436 
L 418.908672 384.4601 
L 495.968256 384.455768 
L 496.000512 384.637712 
L 496.065024 384.464432 
L 496.194048 384.468764 
L 496.677888 384.451436 
L 508.902912 384.529412 
L 509.870592 385.872329 
L 511.160832 387.973343 
L 516.773376 397.986736 
L 517.450752 399.783212 
L 517.741056 400.895667 
L 517.805568 400.873574 
L 517.87008 400.977108 
L 518.773248 405.518765 
L 519.3216 408.157813 
L 519.386112 408.002728 
L 519.450624 408.057744 
L 519.515136 408.398239 
L 519.80544 410.504452 
L 519.998976 411.297206 
L 520.031232 410.954112 
L 520.063488 411.35872 
L 520.224768 412.694272 
L 520.482816 413.983039 
L 521.09568 417.05182 
L 521.127936 416.891103 
L 521.160192 417.121565 
L 521.25696 417.952874 
L 521.289216 417.300476 
L 521.321472 417.783926 
L 521.482752 419.066628 
L 521.773056 420.673363 
L 521.805312 420.092876 
L 521.837568 420.235832 
L 521.998848 421.846465 
L 523.579392 429.896601 
L 523.611648 429.31958 
L 523.67616 429.448673 
L 523.805184 430.803719 
L 524.837376 435.365694 
L 524.934144 435.088403 
L 525.095424 435.796986 
L 525.256704 437.160133 
L 525.579264 438.528782 
L 525.61152 438.226582 
L 525.676032 438.317511 
L 526.41792 441.461279 
L 526.450176 441.327853 
L 526.482432 441.41276 
L 526.611456 442.176923 
L 526.643712 441.817368 
L 526.708224 441.997146 
L 526.804992 442.236272 
L 526.90176 442.876973 
L 526.934016 442.634815 
L 527.417856 444.336853 
L 527.675904 444.786947 
L 527.70816 444.70074 
L 527.772672 444.806007 
L 528.159744 445.598761 
L 528.224256 445.767709 
L 528.385536 446.593386 
L 531.643392 454.69204 
L 534.707712 461.227712 
L 534.80448 461.181793 
L 534.901248 461.08129 
L 535.062528 460.660221 
L 535.094784 460.698776 
L 535.28832 460.225723 
L 537.191424 456.581653 
L 537.22368 456.661795 
L 537.255936 456.454293 
L 538.35264 455.101413 
L 538.481664 454.745323 
L 538.771968 454.559048 
L 538.933248 454.344181 
L 539.094528 454.145343 
L 539.417088 453.518937 
L 539.449344 453.651929 
L 539.4816 453.421034 
L 539.513856 453.379447 
L 539.546112 453.524135 
L 539.578368 453.278512 
L 539.64288 453.340459 
L 539.739648 453.063212 
L 539.771904 453.302771 
L 539.836416 452.96011 
L 539.868672 453.196637 
L 540.158976 452.536875 
L 540.320256 452.375292 
L 540.352512 452.617883 
L 540.417024 452.540341 
L 540.546048 452.288652 
L 540.707328 451.935162 
L 540.739584 452.157393 
L 540.77184 451.846356 
L 540.804096 451.999708 
L 540.868608 451.8117 
L 540.93312 451.872348 
L 541.126656 451.573008 
L 541.610496 451.177064 
L 541.836288 450.72827 
L 542.158848 450.235723 
L 542.191104 450.281208 
L 542.352384 449.977103 
L 542.38464 450.180273 
L 542.416896 449.863171 
L 542.449152 449.934216 
L 542.771712 449.473292 
L 542.900736 449.337701 
L 542.932992 449.497552 
L 542.965248 449.433871 
L 543.094272 449.09511 
L 543.126528 449.350697 
L 543.19104 448.988543 
L 543.223296 448.991142 
L 543.255552 449.136697 
L 543.287808 448.924863 
L 543.320064 448.911433 
L 543.35232 449.037928 
L 543.384576 448.828692 
L 543.416832 448.82566 
L 543.449088 448.951288 
L 543.5136 448.757215 
L 543.642624 448.734688 
L 543.803904 448.569206 
L 544.15872 448.31102 
L 544.578048 447.829303 
L 545.223168 446.705585 
L 545.255424 447.06514 
L 545.28768 446.894026 
L 545.416704 446.46256 
L 545.44896 446.857204 
L 545.513472 446.341698 
L 545.545728 446.600751 
L 545.642496 446.48552 
L 545.739264 446.137228 
L 545.77152 446.489852 
L 545.803776 446.041058 
L 545.868288 446.387617 
L 545.9328 445.963515 
L 545.997312 446.006835 
L 546.029568 446.036292 
L 546.061824 445.996005 
L 546.190848 445.746049 
L 546.803712 445.450174 
L 547.352064 444.866222 
L 547.513344 444.596339 
L 547.674624 444.108557 
L 547.70688 444.43259 
L 547.739136 444.101193 
L 547.771392 444.210359 
L 547.86816 443.837375 
L 547.900416 444.221189 
L 547.964928 444.161841 
L 548.093952 443.589585 
L 548.255232 443.400277 
L 548.287488 443.837808 
L 548.352 443.693119 
L 548.416512 443.232196 
L 548.51328 443.291544 
L 548.545536 443.453127 
L 548.577792 443.068013 
L 548.67456 443.267718 
L 548.771328 443.372552 
L 548.803584 442.921592 
L 549.190656 442.662539 
L 549.287424 442.618786 
L 549.351936 442.792932 
L 549.384192 442.571134 
L 549.64224 442.537778 
L 549.868032 442.364065 
L 550.835712 441.338683 
L 550.964736 440.694257 
L 551.126016 440.51071 
L 551.158272 440.480993 
L 551.190528 440.977829 
L 551.287296 440.757634 
L 551.41632 440.270458 
L 551.448576 440.720725 
L 551.480832 440.200886 
L 551.513088 440.234416 
L 551.642112 440.365762 
L 551.706624 439.87928 
L 551.73888 440.223023 
L 551.771136 440.349474 
L 551.90016 439.736541 
L 552.029184 439.669871 
L 552.06144 440.095576 
L 552.125952 439.895178 
L 552.287232 439.503739 
L 552.319488 439.525573 
L 552.351744 439.741176 
L 552.384 439.494816 
L 552.416256 439.501617 
L 552.771072 439.400551 
L 553.9968 438.078688 
L 554.15808 437.844588 
L 554.31936 437.101478 
L 554.448384 437.317601 
L 554.577408 436.657137 
L 554.609664 436.607688 
L 554.64192 436.826033 
L 554.706432 436.762219 
L 554.835456 436.424294 
L 554.867712 436.549942 
L 556.028928 434.384325 
L 556.125696 433.599282 
L 556.157952 434.06692 
L 556.222464 433.813845 
L 556.351488 433.578835 
L 556.383744 433.661619 
L 556.448256 433.552366 
L 557.2224 431.930903 
L 557.319168 431.087464 
L 557.351424 431.716036 
L 557.415936 430.886027 
L 557.512704 431.358214 
L 557.54496 431.079667 
L 557.609472 430.572391 
L 557.641728 430.631306 
L 557.673984 431.051509 
L 557.738496 430.71578 
L 557.770752 430.756067 
L 557.803008 430.669861 
L 557.932032 430.448496 
L 560.318976 425.513494 
L 560.448 425.31249 
L 561.835008 422.17613 
L 561.867264 421.954332 
L 561.964032 422.012814 
L 562.254336 421.205764 
L 564.31872 416.760277 
L 564.350976 416.779338 
L 564.383232 416.721289 
L 564.834816 415.577644 
L 564.867072 415.629628 
L 564.899328 415.708037 
L 564.96384 415.593672 
L 566.060544 413.366164 
L 566.125056 413.360532 
L 566.157312 413.30335 
L 566.286336 412.86062 
L 566.383104 412.560414 
L 566.350848 412.933398 
L 566.41536 412.592904 
L 566.479872 412.699037 
L 566.512128 412.645321 
L 567.06048 411.510339 
L 567.899136 410.141864 
L 567.931392 410.183451 
L 567.963648 410.093346 
L 568.415232 409.236045 
L 569.382912 407.609817 
L 570.576384 405.695511 
L 570.866688 405.208595 
L 571.511808 404.512011 
L 571.7376 404.356493 
L 572.189184 403.766476 
L 573.02784 402.444786 
L 573.285888 402.038445 
L 573.51168 401.785024 
L 574.414848 398.894721 
L 576.672768 393.695034 
L 576.705024 393.756115 
L 576.801792 419.784872 
L 576.930816 434.48617 
L 577.092096 434.541489 
L 580.704768 434.618295 
L 593.284608 435.031697 
L 595.155456 435.000334 
L 599.1552 435.162956 
L 599.413248 435.453546 
L 600.090624 436.028414 
L 600.897024 436.412112 
L 601.929216 436.658597 
L 603.606528 436.806981 
L 607.38048 436.849196 
L 616.928256 436.779287 
L 616.960512 436.70926 
L 616.992768 436.814055 
L 617.025024 436.799764 
L 619.15392 436.863219 
L 621.315072 436.94544 
L 630.701568 436.859749 
L 657.248256 436.64603 
L 657.280512 436.979663 
L 657.603072 429.994504 
L 657.828864 428.642057 
L 657.990144 426.127337 
L 658.151424 419.042369 
L 658.34496 398.536465 
L 658.570752 377.095719 
L 658.699776 376.926771 
L 658.732032 376.939767 
L 659.409408 377.100051 
L 659.893248 377.195354 
L 660.344832 377.312318 
L 661.635072 377.585233 
L 662.086656 377.702197 
L 663.6672 378.018432 
L 664.022016 378.092076 
L 665.731584 378.421307 
L 666.0864 378.486287 
L 666.57024 378.581591 
L 666.925056 378.655235 
L 669.602304 379.114426 
L 669.95712 379.179405 
L 670.666752 379.287705 
L 671.021568 379.352685 
L 671.7312 379.460985 
L 672.086016 379.525965 
L 672.795648 379.634264 
L 673.150464 379.699244 
L 673.956864 379.807544 
L 674.31168 379.872524 
L 675.214848 379.980823 
L 675.569664 380.045803 
L 676.472832 380.154103 
L 676.827648 380.219083 
L 677.730816 380.327383 
L 677.988864 380.349043 
L 678.795264 380.457342 
L 679.15008 380.522322 
L 680.150016 380.630622 
L 680.408064 380.652282 
L 681.214464 380.760581 
L 681.472512 380.782241 
L 682.37568 380.890541 
L 682.633728 380.912201 
L 683.536896 381.020501 
L 683.794944 381.042161 
L 684.698112 381.150461 
L 684.95616 381.17212 
L 685.956096 381.28042 
L 686.214144 381.30208 
L 687.310848 381.41038 
L 687.568896 381.43204 
L 688.6656 381.54034 
L 688.923648 381.561999 
L 690.11712 381.670299 
L 690.375168 381.691959 
L 691.56864 381.800259 
L 691.826688 381.821919 
L 693.213696 381.930219 
L 693.471744 381.951878 
L 694.858752 382.060178 
L 695.1168 382.081838 
L 696.600576 382.190138 
L 696.858624 382.207466 
L 697.568256 382.263782 
L 697.600512 382.164146 
L 697.665024 382.311434 
L 697.826304 382.294106 
L 699.664896 382.393741 
L 700.019712 382.428397 
L 700.503552 382.467385 
L 701.987328 382.558357 
L 703.954944 382.666657 
L 704.212992 382.688317 
L 706.277376 382.796616 
L 706.535424 382.818276 
L 708.890112 382.926576 
L 709.212672 382.943904 
L 711.56736 383.04354 
L 711.922176 383.073864 
L 714.663936 383.173499 
L 715.018752 383.203823 
L 718.050816 383.303459 
L 718.405632 383.333783 
L 719.534592 383.377103 
L 723.17952 383.476739 
L 723.534336 383.511395 
L 724.340736 383.511395 
L 727.663104 383.619694 
L 727.985664 383.641354 
L 728.82432 383.637022 
L 732.85632 383.736658 
L 733.211136 383.771314 
L 734.049792 383.766982 
L 737.888256 383.84929 
L 737.920512 384.057225 
L 737.985024 383.853622 
L 738.82368 383.844958 
L 740.049408 383.901274 
L 747.113472 384.009573 
L 747.37152 384.026901 
L 818.528256 384.022569 
L 818.560512 384.243501 
L 818.625024 384.022569 
L 818.81856 384.000909 
L 819.818496 384.026901 
L 899.168256 384.022569 
L 899.200512 384.243501 
L 899.265024 384.022569 
L 899.45856 384.000909 
L 900.458496 384.026901 
L 947.52 384.026901 
L 947.52 384.026901 
" clip-path="url(#pbea8dc1de3)" style="fill: none; stroke: #ff00ff; stroke-width: 2; stroke-linecap: square"/>
   </g>
   <g id="patch_22">
    <path d="M 100.8 465.442759 
L 100.8 372.711724 
" style="fill: none; stroke: #bcbcbc; stroke-width: 0.8; stroke-linejoin: miter; stroke-linecap: square"/>
   </g>
   <g id="patch_23">
    <path d="M 987.84 465.442759 
L 987.84 372.711724 
" style="fill: none; stroke: #bcbcbc; stroke-width: 0.8; stroke-linejoin: miter; stroke-linecap: square"/>
   </g>
   <g id="patch_24">
    <path d="M 100.8 465.442759 
L 987.84 465.442759 
" style="fill: none; stroke: #bcbcbc; stroke-width: 0.8; stroke-linejoin: miter; stroke-linecap: square"/>
   </g>
   <g id="patch_25">
    <path d="M 100.8 372.711724 
L 987.84 372.711724 
" style="fill: none; stroke: #bcbcbc; stroke-width: 0.8; stroke-linejoin: miter; stroke-linecap: square"/>
   </g>
  </g>
  <g id="axes_5">
   <g id="patch_26">
    <path d="M 100.8 576.72 
L 987.84 576.72 
L 987.84 483.988966 
L 100.8 483.988966 
z
" style="fill: #eeeeee"/>
   </g>
   <g id="matplotlib.axis_9">
    <g id="xtick_25">
     <g id="line2d_73">
      <path d="M 141.12 576.72 
L 141.12 483.988966 
" clip-path="url(#p197f80f338)" style="fill: none; stroke-dasharray: 1.85,0.8; stroke-dashoffset: 0; stroke: #b2b2b2; stroke-width: 0.5"/>
     </g>
     <g id="line2d_74">
      <g>
       <use xlink:href="#m9899679292" x="141.12" y="576.72" style="stroke: #000000; stroke-width: 0.8"/>
      </g>
     </g>
     <g id="text_15">
      <!-- 0 s -->
      <g transform="translate(130.795 590.857813) scale(0.14 -0.14)">
       <defs>
        <path id="DejaVuSans-73" d="M 2834 3397 
L 2834 2853 
Q 2591 2978 2328 3040 
Q 2066 3103 1784 3103 
Q 1356 3103 1142 2972 
Q 928 2841 928 2578 
Q 928 2378 1081 2264 
Q 1234 2150 1697 2047 
L 1894 2003 
Q 2506 1872 2764 1633 
Q 3022 1394 3022 966 
Q 3022 478 2636 193 
Q 2250 -91 1575 -91 
Q 1294 -91 989 -36 
Q 684 19 347 128 
L 347 722 
Q 666 556 975 473 
Q 1284 391 1588 391 
Q 1994 391 2212 530 
Q 2431 669 2431 922 
Q 2431 1156 2273 1281 
Q 2116 1406 1581 1522 
L 1381 1569 
Q 847 1681 609 1914 
Q 372 2147 372 2553 
Q 372 3047 722 3315 
Q 1072 3584 1716 3584 
Q 2034 3584 2315 3537 
Q 2597 3491 2834 3397 
z
" transform="scale(0.015625)"/>
       </defs>
       <use xlink:href="#DejaVuSans-30"/>
       <use xlink:href="#DejaVuSans-20" x="63.623047"/>
       <use xlink:href="#DejaVuSans-73" x="95.410156"/>
      </g>
     </g>
    </g>
    <g id="xtick_26">
     <g id="line2d_75">
      <path d="M 302.4 576.72 
L 302.4 483.988966 
" clip-path="url(#p197f80f338)" style="fill: none; stroke-dasharray: 1.85,0.8; stroke-dashoffset: 0; stroke: #b2b2b2; stroke-width: 0.5"/>
     </g>
     <g id="line2d_76">
      <g>
       <use xlink:href="#m9899679292" x="302.4" y="576.72" style="stroke: #000000; stroke-width: 0.8"/>
      </g>
     </g>
     <g id="text_16">
      <!-- 50 ns -->
      <g transform="translate(283.185 590.857813) scale(0.14 -0.14)">
       <defs>
        <path id="DejaVuSans-35" d="M 691 4666 
L 3169 4666 
L 3169 4134 
L 1269 4134 
L 1269 2991 
Q 1406 3038 1543 3061 
Q 1681 3084 1819 3084 
Q 2600 3084 3056 2656 
Q 3513 2228 3513 1497 
Q 3513 744 3044 326 
Q 2575 -91 1722 -91 
Q 1428 -91 1123 -41 
Q 819 9 494 109 
L 494 744 
Q 775 591 1075 516 
Q 1375 441 1709 441 
Q 2250 441 2565 725 
Q 2881 1009 2881 1497 
Q 2881 1984 2565 2268 
Q 2250 2553 1709 2553 
Q 1456 2553 1204 2497 
Q 953 2441 691 2322 
L 691 4666 
z
" transform="scale(0.015625)"/>
        <path id="DejaVuSans-6e" d="M 3513 2113 
L 3513 0 
L 2938 0 
L 2938 2094 
Q 2938 2591 2744 2837 
Q 2550 3084 2163 3084 
Q 1697 3084 1428 2787 
Q 1159 2491 1159 1978 
L 1159 0 
L 581 0 
L 581 3500 
L 1159 3500 
L 1159 2956 
Q 1366 3272 1645 3428 
Q 1925 3584 2291 3584 
Q 2894 3584 3203 3211 
Q 3513 2838 3513 2113 
z
" transform="scale(0.015625)"/>
       </defs>
       <use xlink:href="#DejaVuSans-35"/>
       <use xlink:href="#DejaVuSans-30" x="63.623047"/>
       <use xlink:href="#DejaVuSans-20" x="127.246094"/>
       <use xlink:href="#DejaVuSans-6e" x="159.033203"/>
       <use xlink:href="#DejaVuSans-73" x="222.412109"/>
      </g>
     </g>
    </g>
    <g id="xtick_27">
     <g id="line2d_77">
      <path d="M 463.68 576.72 
L 463.68 483.988966 
" clip-path="url(#p197f80f338)" style="fill: none; stroke-dasharray: 1.85,0.8; stroke-dashoffset: 0; stroke: #b2b2b2; stroke-width: 0.5"/>
     </g>
     <g id="line2d_78">
      <g>
       <use xlink:href="#m9899679292" x="463.68" y="576.72" style="stroke: #000000; stroke-width: 0.8"/>
      </g>
     </g>
     <g id="text_17">
      <!-- 100 ns -->
      <g transform="translate(440.01125 590.857813) scale(0.14 -0.14)">
       <use xlink:href="#DejaVuSans-31"/>
       <use xlink:href="#DejaVuSans-30" x="63.623047"/>
       <use xlink:href="#DejaVuSans-30" x="127.246094"/>
       <use xlink:href="#DejaVuSans-20" x="190.869141"/>
       <use xlink:href="#DejaVuSans-6e" x="222.65625"/>
       <use xlink:href="#DejaVuSans-73" x="286.035156"/>
      </g>
     </g>
    </g>
    <g id="xtick_28">
     <g id="line2d_79">
      <path d="M 624.96 576.72 
L 624.96 483.988966 
" clip-path="url(#p197f80f338)" style="fill: none; stroke-dasharray: 1.85,0.8; stroke-dashoffset: 0; stroke: #b2b2b2; stroke-width: 0.5"/>
     </g>
     <g id="line2d_80">
      <g>
       <use xlink:href="#m9899679292" x="624.96" y="576.72" style="stroke: #000000; stroke-width: 0.8"/>
      </g>
     </g>
     <g id="text_18">
      <!-- 150 ns -->
      <g transform="translate(601.29125 590.857813) scale(0.14 -0.14)">
       <use xlink:href="#DejaVuSans-31"/>
       <use xlink:href="#DejaVuSans-35" x="63.623047"/>
       <use xlink:href="#DejaVuSans-30" x="127.246094"/>
       <use xlink:href="#DejaVuSans-20" x="190.869141"/>
       <use xlink:href="#DejaVuSans-6e" x="222.65625"/>
       <use xlink:href="#DejaVuSans-73" x="286.035156"/>
      </g>
     </g>
    </g>
    <g id="xtick_29">
     <g id="line2d_81">
      <path d="M 786.24 576.72 
L 786.24 483.988966 
" clip-path="url(#p197f80f338)" style="fill: none; stroke-dasharray: 1.85,0.8; stroke-dashoffset: 0; stroke: #b2b2b2; stroke-width: 0.5"/>
     </g>
     <g id="line2d_82">
      <g>
       <use xlink:href="#m9899679292" x="786.24" y="576.72" style="stroke: #000000; stroke-width: 0.8"/>
      </g>
     </g>
     <g id="text_19">
      <!-- 200 ns -->
      <g transform="translate(762.57125 590.857813) scale(0.14 -0.14)">
       <use xlink:href="#DejaVuSans-32"/>
       <use xlink:href="#DejaVuSans-30" x="63.623047"/>
       <use xlink:href="#DejaVuSans-30" x="127.246094"/>
       <use xlink:href="#DejaVuSans-20" x="190.869141"/>
       <use xlink:href="#DejaVuSans-6e" x="222.65625"/>
       <use xlink:href="#DejaVuSans-73" x="286.035156"/>
      </g>
     </g>
    </g>
    <g id="xtick_30">
     <g id="line2d_83">
      <path d="M 947.52 576.72 
L 947.52 483.988966 
" clip-path="url(#p197f80f338)" style="fill: none; stroke-dasharray: 1.85,0.8; stroke-dashoffset: 0; stroke: #b2b2b2; stroke-width: 0.5"/>
     </g>
     <g id="line2d_84">
      <g>
       <use xlink:href="#m9899679292" x="947.52" y="576.72" style="stroke: #000000; stroke-width: 0.8"/>
      </g>
     </g>
     <g id="text_20">
      <!-- 250 ns -->
      <g transform="translate(923.85125 590.857813) scale(0.14 -0.14)">
       <use xlink:href="#DejaVuSans-32"/>
       <use xlink:href="#DejaVuSans-35" x="63.623047"/>
       <use xlink:href="#DejaVuSans-30" x="127.246094"/>
       <use xlink:href="#DejaVuSans-20" x="190.869141"/>
       <use xlink:href="#DejaVuSans-6e" x="222.65625"/>
       <use xlink:href="#DejaVuSans-73" x="286.035156"/>
      </g>
     </g>
    </g>
    <g id="text_21">
     <!-- Time -->
     <g transform="translate(527.192969 608.407187) scale(0.14 -0.14)">
      <defs>
       <path id="DejaVuSans-69" d="M 603 3500 
L 1178 3500 
L 1178 0 
L 603 0 
L 603 3500 
z
M 603 4863 
L 1178 4863 
L 1178 4134 
L 603 4134 
L 603 4863 
z
" transform="scale(0.015625)"/>
       <path id="DejaVuSans-6d" d="M 3328 2828 
Q 3544 3216 3844 3400 
Q 4144 3584 4550 3584 
Q 5097 3584 5394 3201 
Q 5691 2819 5691 2113 
L 5691 0 
L 5113 0 
L 5113 2094 
Q 5113 2597 4934 2840 
Q 4756 3084 4391 3084 
Q 3944 3084 3684 2787 
Q 3425 2491 3425 1978 
L 3425 0 
L 2847 0 
L 2847 2094 
Q 2847 2600 2669 2842 
Q 2491 3084 2119 3084 
Q 1678 3084 1418 2786 
Q 1159 2488 1159 1978 
L 1159 0 
L 581 0 
L 581 3500 
L 1159 3500 
L 1159 2956 
Q 1356 3278 1631 3431 
Q 1906 3584 2284 3584 
Q 2666 3584 2933 3390 
Q 3200 3197 3328 2828 
z
" transform="scale(0.015625)"/>
       <path id="DejaVuSans-65" d="M 3597 1894 
L 3597 1613 
L 953 1613 
Q 991 1019 1311 708 
Q 1631 397 2203 397 
Q 2534 397 2845 478 
Q 3156 559 3463 722 
L 3463 178 
Q 3153 47 2828 -22 
Q 2503 -91 2169 -91 
Q 1331 -91 842 396 
Q 353 884 353 1716 
Q 353 2575 817 3079 
Q 1281 3584 2069 3584 
Q 2775 3584 3186 3129 
Q 3597 2675 3597 1894 
z
M 3022 2063 
Q 3016 2534 2758 2815 
Q 2500 3097 2075 3097 
Q 1594 3097 1305 2825 
Q 1016 2553 972 2059 
L 3022 2063 
z
" transform="scale(0.015625)"/>
      </defs>
      <use xlink:href="#DejaVuSans-54"/>
      <use xlink:href="#DejaVuSans-69" x="57.958984"/>
      <use xlink:href="#DejaVuSans-6d" x="85.742188"/>
      <use xlink:href="#DejaVuSans-65" x="183.154297"/>
     </g>
    </g>
   </g>
   <g id="matplotlib.axis_10">
    <g id="ytick_11">
     <g id="line2d_85">
      <path d="M 100.8 569.745885 
L 987.84 569.745885 
" clip-path="url(#p197f80f338)" style="fill: none; stroke-dasharray: 1.85,0.8; stroke-dashoffset: 0; stroke: #b2b2b2; stroke-width: 0.5"/>
     </g>
     <g id="line2d_86">
      <g>
       <use xlink:href="#m3e8bc6b09a" x="100.8" y="569.745885" style="stroke: #000000; stroke-width: 0.8"/>
      </g>
     </g>
     <g id="text_22">
      <!-- 0 V -->
      <g transform="translate(74.36625 575.064792) scale(0.14 -0.14)">
       <use xlink:href="#DejaVuSans-30"/>
       <use xlink:href="#DejaVuSans-20" x="63.623047"/>
       <use xlink:href="#DejaVuSans-56" x="95.410156"/>
      </g>
     </g>
    </g>
    <g id="ytick_12">
     <g id="line2d_87">
      <path d="M 100.8 535.950348 
L 987.84 535.950348 
" clip-path="url(#p197f80f338)" style="fill: none; stroke-dasharray: 1.85,0.8; stroke-dashoffset: 0; stroke: #b2b2b2; stroke-width: 0.5"/>
     </g>
     <g id="line2d_88">
      <g>
       <use xlink:href="#m3e8bc6b09a" x="100.8" y="535.950348" style="stroke: #000000; stroke-width: 0.8"/>
      </g>
     </g>
     <g id="text_23">
      <!-- 500 mV -->
      <g transform="translate(42.914375 541.269254) scale(0.14 -0.14)">
       <use xlink:href="#DejaVuSans-35"/>
       <use xlink:href="#DejaVuSans-30" x="63.623047"/>
       <use xlink:href="#DejaVuSans-30" x="127.246094"/>
       <use xlink:href="#DejaVuSans-20" x="190.869141"/>
       <use xlink:href="#DejaVuSans-6d" x="222.65625"/>
       <use xlink:href="#DejaVuSans-56" x="320.068359"/>
      </g>
     </g>
    </g>
    <g id="ytick_13">
     <g id="line2d_89">
      <path d="M 100.8 502.15481 
L 987.84 502.15481 
" clip-path="url(#p197f80f338)" style="fill: none; stroke-dasharray: 1.85,0.8; stroke-dashoffset: 0; stroke: #b2b2b2; stroke-width: 0.5"/>
     </g>
     <g id="line2d_90">
      <g>
       <use xlink:href="#m3e8bc6b09a" x="100.8" y="502.15481" style="stroke: #000000; stroke-width: 0.8"/>
      </g>
     </g>
     <g id="text_24">
      <!-- 1 V -->
      <g transform="translate(74.36625 507.473717) scale(0.14 -0.14)">
       <use xlink:href="#DejaVuSans-31"/>
       <use xlink:href="#DejaVuSans-20" x="63.623047"/>
       <use xlink:href="#DejaVuSans-56" x="95.410156"/>
      </g>
     </g>
    </g>
    <g id="text_25">
     <g id="patch_27">
      <path d="M 34.8768 554.329483 
L 34.8768 506.379483 
L 11.247425 506.379483 
L 11.247425 554.329483 
z
" style="fill: #ffff00; opacity: 0.2; stroke: #eeeeee; stroke-width: 0.5; stroke-linejoin: miter"/>
     </g>
     <!-- FOUT -->
     <g transform="translate(26.925238 549.289483) rotate(-90) scale(0.14 -0.14)">
      <use xlink:href="#DejaVuSans-46"/>
      <use xlink:href="#DejaVuSans-4f" x="57.519531"/>
      <use xlink:href="#DejaVuSans-55" x="136.230469"/>
      <use xlink:href="#DejaVuSans-54" x="209.423828"/>
     </g>
    </g>
   </g>
   <g id="line2d_91">
    <path d="M 141.12 488.636595 
L 173.472768 488.643355 
L 173.505024 488.44734 
L 173.569536 526.789729 
L 173.69856 572.504953 
L 173.730816 572.3695 
L 173.827584 567.842115 
L 173.892096 569.3609 
L 174.053376 570.064192 
L 174.117888 569.946665 
L 174.408192 569.492054 
L 174.440448 569.54151 
L 174.66624 569.729954 
L 176.182272 569.740151 
L 180.117504 569.761449 
L 193.568256 569.752159 
L 212.954112 569.74401 
L 255.30624 569.743704 
L 255.6288 488.52845 
L 255.854592 488.670391 
L 256.209408 488.629836 
L 334.849536 488.650114 
L 334.881792 492.854278 
L 335.043072 572.18376 
L 335.107584 570.261206 
L 335.172096 568.338639 
L 335.236608 568.870108 
L 335.365632 570.783003 
L 335.430144 570.410083 
L 335.591424 569.797213 
L 335.881728 569.648439 
L 336.559104 569.817924 
L 337.107456 569.746143 
L 350.009856 569.744206 
L 416.489472 569.74333 
L 416.553984 567.480841 
L 416.812032 488.204013 
L 416.844288 488.339195 
L 416.973312 488.852887 
L 417.037824 488.778537 
L 417.39264 488.548727 
L 417.844224 488.717705 
L 418.457088 488.562245 
L 419.328 488.636595 
L 520.257024 488.52845 
L 520.28928 488.37299 
L 520.321536 488.879923 
L 520.386048 517.646009 
L 520.515072 570.098941 
L 520.547328 569.725369 
L 520.869888 569.744186 
L 566.802432 569.742753 
L 566.834688 567.863947 
L 567.189504 488.643355 
L 576.801792 488.643355 
L 576.834048 488.285122 
L 576.866304 494.239896 
L 577.027584 569.75322 
L 577.317888 569.744205 
L 658.248192 569.738164 
L 658.312704 569.449863 
L 658.570752 488.724464 
L 658.732032 488.636595 
L 947.52 488.636595 
L 947.52 488.636595 
" clip-path="url(#p197f80f338)" style="fill: none; stroke: #ff00ff; stroke-width: 2; stroke-linecap: square"/>
   </g>
   <g id="patch_28">
    <path d="M 100.8 576.72 
L 100.8 483.988966 
" style="fill: none; stroke: #bcbcbc; stroke-width: 0.8; stroke-linejoin: miter; stroke-linecap: square"/>
   </g>
   <g id="patch_29">
    <path d="M 987.84 576.72 
L 987.84 483.988966 
" style="fill: none; stroke: #bcbcbc; stroke-width: 0.8; stroke-linejoin: miter; stroke-linecap: square"/>
   </g>
   <g id="patch_30">
    <path d="M 100.8 576.72 
L 987.84 576.72 
" style="fill: none; stroke: #bcbcbc; stroke-width: 0.8; stroke-linejoin: miter; stroke-linecap: square"/>
   </g>
   <g id="patch_31">
    <path d="M 100.8 483.988966 
L 987.84 483.988966 
" style="fill: none; stroke: #bcbcbc; stroke-width: 0.8; stroke-linejoin: miter; stroke-linecap: square"/>
   </g>
  </g>
  <g id="axes_6">
   <g id="patch_32">
    <path d="M 201.6 628.56 
L 856.8 628.56 
L 856.8 615.6 
L 201.6 615.6 
z
" clip-path="url(#pad592152a1)" style="fill: #d3d3d3"/>
   </g>
   <g id="patch_33">
    <path d="M 201.6 628.56 
L 660.24 628.56 
L 660.24 615.6 
L 201.6 615.6 
z
" clip-path="url(#pad592152a1)" style="fill: #0000ff"/>
   </g>
   <g id="line2d_92">
    <path d="M 201.6 635.04 
L 201.6 609.12 
" clip-path="url(#p163b179827)" style="fill: none; stroke: #ff0000; stroke-linecap: square"/>
   </g>
   <g id="line2d_93">
    <defs>
     <path id="mad3422425e" d="M 0 5 
C 1.326016 5 2.597899 4.473168 3.535534 3.535534 
C 4.473168 2.597899 5 1.326016 5 0 
C 5 -1.326016 4.473168 -2.597899 3.535534 -3.535534 
C 2.597899 -4.473168 1.326016 -5 0 -5 
C -1.326016 -5 -2.597899 -4.473168 -3.535534 -3.535534 
C -4.473168 -2.597899 -5 -1.326016 -5 0 
C -5 1.326016 -4.473168 2.597899 -3.535534 3.535534 
C -2.597899 4.473168 -1.326016 5 0 5 
z
" style="stroke: #bfbfbf"/>
    </defs>
    <g>
     <use xlink:href="#mad3422425e" x="660.24" y="622.08" style="fill: #ffffff; stroke: #bfbfbf"/>
    </g>
   </g>
   <g id="text_26">
    <!-- #Sweep -->
    <g transform="translate(138.622875 625.39125) scale(0.12 -0.12)">
     <defs>
      <path id="DejaVuSans-23" d="M 3272 2816 
L 2363 2816 
L 2100 1772 
L 3016 1772 
L 3272 2816 
z
M 2803 4594 
L 2478 3297 
L 3391 3297 
L 3719 4594 
L 4219 4594 
L 3897 3297 
L 4872 3297 
L 4872 2816 
L 3775 2816 
L 3519 1772 
L 4513 1772 
L 4513 1294 
L 3397 1294 
L 3072 0 
L 2572 0 
L 2894 1294 
L 1978 1294 
L 1656 0 
L 1153 0 
L 1478 1294 
L 494 1294 
L 494 1772 
L 1594 1772 
L 1856 2816 
L 850 2816 
L 850 3297 
L 1978 3297 
L 2297 4594 
L 2803 4594 
z
" transform="scale(0.015625)"/>
      <path id="DejaVuSans-77" d="M 269 3500 
L 844 3500 
L 1563 769 
L 2278 3500 
L 2956 3500 
L 3675 769 
L 4391 3500 
L 4966 3500 
L 4050 0 
L 3372 0 
L 2619 2869 
L 1863 0 
L 1184 0 
L 269 3500 
z
" transform="scale(0.015625)"/>
      <path id="DejaVuSans-70" d="M 1159 525 
L 1159 -1331 
L 581 -1331 
L 581 3500 
L 1159 3500 
L 1159 2969 
Q 1341 3281 1617 3432 
Q 1894 3584 2278 3584 
Q 2916 3584 3314 3078 
Q 3713 2572 3713 1747 
Q 3713 922 3314 415 
Q 2916 -91 2278 -91 
Q 1894 -91 1617 61 
Q 1341 213 1159 525 
z
M 3116 1747 
Q 3116 2381 2855 2742 
Q 2594 3103 2138 3103 
Q 1681 3103 1420 2742 
Q 1159 2381 1159 1747 
Q 1159 1113 1420 752 
Q 1681 391 2138 391 
Q 2594 391 2855 752 
Q 3116 1113 3116 1747 
z
" transform="scale(0.015625)"/>
     </defs>
     <use xlink:href="#DejaVuSans-23"/>
     <use xlink:href="#DejaVuSans-53" x="83.789062"/>
     <use xlink:href="#DejaVuSans-77" x="147.265625"/>
     <use xlink:href="#DejaVuSans-65" x="229.052734"/>
     <use xlink:href="#DejaVuSans-65" x="290.576172"/>
     <use xlink:href="#DejaVuSans-70" x="352.099609"/>
    </g>
   </g>
   <g id="text_27">
    <!-- $\mathdefault{98}$ -->
    <g transform="translate(869.904 625.39125) scale(0.12 -0.12)">
     <defs>
      <path id="DejaVuSans-39" d="M 703 97 
L 703 672 
Q 941 559 1184 500 
Q 1428 441 1663 441 
Q 2288 441 2617 861 
Q 2947 1281 2994 2138 
Q 2813 1869 2534 1725 
Q 2256 1581 1919 1581 
Q 1219 1581 811 2004 
Q 403 2428 403 3163 
Q 403 3881 828 4315 
Q 1253 4750 1959 4750 
Q 2769 4750 3195 4129 
Q 3622 3509 3622 2328 
Q 3622 1225 3098 567 
Q 2575 -91 1691 -91 
Q 1453 -91 1209 -44 
Q 966 3 703 97 
z
M 1959 2075 
Q 2384 2075 2632 2365 
Q 2881 2656 2881 3163 
Q 2881 3666 2632 3958 
Q 2384 4250 1959 4250 
Q 1534 4250 1286 3958 
Q 1038 3666 1038 3163 
Q 1038 2656 1286 2365 
Q 1534 2075 1959 2075 
z
" transform="scale(0.015625)"/>
      <path id="DejaVuSans-38" d="M 2034 2216 
Q 1584 2216 1326 1975 
Q 1069 1734 1069 1313 
Q 1069 891 1326 650 
Q 1584 409 2034 409 
Q 2484 409 2743 651 
Q 3003 894 3003 1313 
Q 3003 1734 2745 1975 
Q 2488 2216 2034 2216 
z
M 1403 2484 
Q 997 2584 770 2862 
Q 544 3141 544 3541 
Q 544 4100 942 4425 
Q 1341 4750 2034 4750 
Q 2731 4750 3128 4425 
Q 3525 4100 3525 3541 
Q 3525 3141 3298 2862 
Q 3072 2584 2669 2484 
Q 3125 2378 3379 2068 
Q 3634 1759 3634 1313 
Q 3634 634 3220 271 
Q 2806 -91 2034 -91 
Q 1263 -91 848 271 
Q 434 634 434 1313 
Q 434 1759 690 2068 
Q 947 2378 1403 2484 
z
M 1172 3481 
Q 1172 3119 1398 2916 
Q 1625 2713 2034 2713 
Q 2441 2713 2670 2916 
Q 2900 3119 2900 3481 
Q 2900 3844 2670 4047 
Q 2441 4250 2034 4250 
Q 1625 4250 1398 4047 
Q 1172 3844 1172 3481 
z
" transform="scale(0.015625)"/>
     </defs>
     <use xlink:href="#DejaVuSans-39" transform="translate(0 0.78125)"/>
     <use xlink:href="#DejaVuSans-38" transform="translate(63.623047 0.78125)"/>
    </g>
   </g>
  </g>
  <g id="text_28">
   <!-- DFF under BBI sweep analysis (Sweep = 108E-9) -->
   <g transform="translate(308.25625 25.1175) scale(0.16 -0.16)">
    <defs>
     <path id="DejaVuSans-75" d="M 544 1381 
L 544 3500 
L 1119 3500 
L 1119 1403 
Q 1119 906 1312 657 
Q 1506 409 1894 409 
Q 2359 409 2629 706 
Q 2900 1003 2900 1516 
L 2900 3500 
L 3475 3500 
L 3475 0 
L 2900 0 
L 2900 538 
Q 2691 219 2414 64 
Q 2138 -91 1772 -91 
Q 1169 -91 856 284 
Q 544 659 544 1381 
z
M 1991 3584 
L 1991 3584 
z
" transform="scale(0.015625)"/>
     <path id="DejaVuSans-64" d="M 2906 2969 
L 2906 4863 
L 3481 4863 
L 3481 0 
L 2906 0 
L 2906 525 
Q 2725 213 2448 61 
Q 2172 -91 1784 -91 
Q 1150 -91 751 415 
Q 353 922 353 1747 
Q 353 2572 751 3078 
Q 1150 3584 1784 3584 
Q 2172 3584 2448 3432 
Q 2725 3281 2906 2969 
z
M 947 1747 
Q 947 1113 1208 752 
Q 1469 391 1925 391 
Q 2381 391 2643 752 
Q 2906 1113 2906 1747 
Q 2906 2381 2643 2742 
Q 2381 3103 1925 3103 
Q 1469 3103 1208 2742 
Q 947 2381 947 1747 
z
" transform="scale(0.015625)"/>
     <path id="DejaVuSans-72" d="M 2631 2963 
Q 2534 3019 2420 3045 
Q 2306 3072 2169 3072 
Q 1681 3072 1420 2755 
Q 1159 2438 1159 1844 
L 1159 0 
L 581 0 
L 581 3500 
L 1159 3500 
L 1159 2956 
Q 1341 3275 1631 3429 
Q 1922 3584 2338 3584 
Q 2397 3584 2469 3576 
Q 2541 3569 2628 3553 
L 2631 2963 
z
" transform="scale(0.015625)"/>
     <path id="DejaVuSans-61" d="M 2194 1759 
Q 1497 1759 1228 1600 
Q 959 1441 959 1056 
Q 959 750 1161 570 
Q 1363 391 1709 391 
Q 2188 391 2477 730 
Q 2766 1069 2766 1631 
L 2766 1759 
L 2194 1759 
z
M 3341 1997 
L 3341 0 
L 2766 0 
L 2766 531 
Q 2569 213 2275 61 
Q 1981 -91 1556 -91 
Q 1019 -91 701 211 
Q 384 513 384 1019 
Q 384 1609 779 1909 
Q 1175 2209 1959 2209 
L 2766 2209 
L 2766 2266 
Q 2766 2663 2505 2880 
Q 2244 3097 1772 3097 
Q 1472 3097 1187 3025 
Q 903 2953 641 2809 
L 641 3341 
Q 956 3463 1253 3523 
Q 1550 3584 1831 3584 
Q 2591 3584 2966 3190 
Q 3341 2797 3341 1997 
z
" transform="scale(0.015625)"/>
     <path id="DejaVuSans-6c" d="M 603 4863 
L 1178 4863 
L 1178 0 
L 603 0 
L 603 4863 
z
" transform="scale(0.015625)"/>
     <path id="DejaVuSans-79" d="M 2059 -325 
Q 1816 -950 1584 -1140 
Q 1353 -1331 966 -1331 
L 506 -1331 
L 506 -850 
L 844 -850 
Q 1081 -850 1212 -737 
Q 1344 -625 1503 -206 
L 1606 56 
L 191 3500 
L 800 3500 
L 1894 763 
L 2988 3500 
L 3597 3500 
L 2059 -325 
z
" transform="scale(0.015625)"/>
     <path id="DejaVuSans-28" d="M 1984 4856 
Q 1566 4138 1362 3434 
Q 1159 2731 1159 2009 
Q 1159 1288 1364 580 
Q 1569 -128 1984 -844 
L 1484 -844 
Q 1016 -109 783 600 
Q 550 1309 550 2009 
Q 550 2706 781 3412 
Q 1013 4119 1484 4856 
L 1984 4856 
z
" transform="scale(0.015625)"/>
     <path id="DejaVuSans-3d" d="M 678 2906 
L 4684 2906 
L 4684 2381 
L 678 2381 
L 678 2906 
z
M 678 1631 
L 4684 1631 
L 4684 1100 
L 678 1100 
L 678 1631 
z
" transform="scale(0.015625)"/>
     <path id="DejaVuSans-2d" d="M 313 2009 
L 1997 2009 
L 1997 1497 
L 313 1497 
L 313 2009 
z
" transform="scale(0.015625)"/>
     <path id="DejaVuSans-29" d="M 513 4856 
L 1013 4856 
Q 1481 4119 1714 3412 
Q 1947 2706 1947 2009 
Q 1947 1309 1714 600 
Q 1481 -109 1013 -844 
L 513 -844 
Q 928 -128 1133 580 
Q 1338 1288 1338 2009 
Q 1338 2731 1133 3434 
Q 928 4138 513 4856 
z
" transform="scale(0.015625)"/>
    </defs>
    <use xlink:href="#DejaVuSans-44"/>
    <use xlink:href="#DejaVuSans-46" x="77.001953"/>
    <use xlink:href="#DejaVuSans-46" x="134.521484"/>
    <use xlink:href="#DejaVuSans-20" x="192.041016"/>
    <use xlink:href="#DejaVuSans-75" x="223.828125"/>
    <use xlink:href="#DejaVuSans-6e" x="287.207031"/>
    <use xlink:href="#DejaVuSans-64" x="350.585938"/>
    <use xlink:href="#DejaVuSans-65" x="414.0625"/>
    <use xlink:href="#DejaVuSans-72" x="475.585938"/>
    <use xlink:href="#DejaVuSans-20" x="516.699219"/>
    <use xlink:href="#DejaVuSans-42" x="548.486328"/>
    <use xlink:href="#DejaVuSans-42" x="617.089844"/>
    <use xlink:href="#DejaVuSans-49" x="685.693359"/>
    <use xlink:href="#DejaVuSans-20" x="715.185547"/>
    <use xlink:href="#DejaVuSans-73" x="746.972656"/>
    <use xlink:href="#DejaVuSans-77" x="799.072266"/>
    <use xlink:href="#DejaVuSans-65" x="880.859375"/>
    <use xlink:href="#DejaVuSans-65" x="942.382812"/>
    <use xlink:href="#DejaVuSans-70" x="1003.90625"/>
    <use xlink:href="#DejaVuSans-20" x="1067.382812"/>
    <use xlink:href="#DejaVuSans-61" x="1099.169922"/>
    <use xlink:href="#DejaVuSans-6e" x="1160.449219"/>
    <use xlink:href="#DejaVuSans-61" x="1223.828125"/>
    <use xlink:href="#DejaVuSans-6c" x="1285.107422"/>
    <use xlink:href="#DejaVuSans-79" x="1312.890625"/>
    <use xlink:href="#DejaVuSans-73" x="1372.070312"/>
    <use xlink:href="#DejaVuSans-69" x="1424.169922"/>
    <use xlink:href="#DejaVuSans-73" x="1451.953125"/>
    <use xlink:href="#DejaVuSans-20" x="1504.052734"/>
    <use xlink:href="#DejaVuSans-28" x="1535.839844"/>
    <use xlink:href="#DejaVuSans-53" x="1574.853516"/>
    <use xlink:href="#DejaVuSans-77" x="1638.330078"/>
    <use xlink:href="#DejaVuSans-65" x="1720.117188"/>
    <use xlink:href="#DejaVuSans-65" x="1781.640625"/>
    <use xlink:href="#DejaVuSans-70" x="1843.164062"/>
    <use xlink:href="#DejaVuSans-20" x="1906.640625"/>
    <use xlink:href="#DejaVuSans-3d" x="1938.427734"/>
    <use xlink:href="#DejaVuSans-20" x="2022.216797"/>
    <use xlink:href="#DejaVuSans-31" x="2054.003906"/>
    <use xlink:href="#DejaVuSans-30" x="2117.626953"/>
    <use xlink:href="#DejaVuSans-38" x="2181.25"/>
    <use xlink:href="#DejaVuSans-45" x="2244.873047"/>
    <use xlink:href="#DejaVuSans-2d" x="2308.056641"/>
    <use xlink:href="#DejaVuSans-39" x="2344.140625"/>
    <use xlink:href="#DejaVuSans-29" x="2407.763672"/>
   </g>
  </g>
 </g>
 <defs>
  <clipPath id="pc7c6dae783">
   <rect x="100.8" y="38.88" width="887.04" height="92.731034"/>
  </clipPath>
  <clipPath id="pd3ea3a8ad2">
   <rect x="100.8" y="150.157241" width="887.04" height="92.731034"/>
  </clipPath>
  <clipPath id="ped606d7e17">
   <rect x="100.8" y="261.434483" width="887.04" height="92.731034"/>
  </clipPath>
  <clipPath id="pbea8dc1de3">
   <rect x="100.8" y="372.711724" width="887.04" height="92.731034"/>
  </clipPath>
  <clipPath id="p197f80f338">
   <rect x="100.8" y="483.988966" width="887.04" height="92.731034"/>
  </clipPath>
  <clipPath id="pad592152a1">
   <rect x="201.6" y="609.12" width="655.2" height="25.92"/>
  </clipPath>
  <clipPath id="p163b179827">
   <path d="M 201.6 628.56 
L 856.8 628.56 
L 856.8 615.6 
L 201.6 615.6 
z
"/>
  </clipPath>
 </defs>
</svg>
