<?xml version="1.0" encoding="utf-8" standalone="no"?>
<!DOCTYPE svg PUBLIC "-//W3C//DTD SVG 1.1//EN"
  "http://www.w3.org/Graphics/SVG/1.1/DTD/svg11.dtd">
<svg xmlns:xlink="http://www.w3.org/1999/xlink" width="1008pt" height="648pt" viewBox="0 0 1008 648" xmlns="http://www.w3.org/2000/svg" version="1.1">
 <metadata>
  <rdf:RDF xmlns:dc="http://purl.org/dc/elements/1.1/" xmlns:cc="http://creativecommons.org/ns#" xmlns:rdf="http://www.w3.org/1999/02/22-rdf-syntax-ns#">
   <cc:Work>
    <dc:type rdf:resource="http://purl.org/dc/dcmitype/StillImage"/>
    <dc:date>2024-06-03T10:45:33.023771</dc:date>
    <dc:format>image/svg+xml</dc:format>
    <dc:creator>
     <cc:Agent>
      <dc:title>Matplotlib v3.9.0, https://matplotlib.org/</dc:title>
     </cc:Agent>
    </dc:creator>
   </cc:Work>
  </rdf:RDF>
 </metadata>
 <defs>
  <style type="text/css">*{stroke-linejoin: round; stroke-linecap: butt}</style>
 </defs>
 <g id="figure_1">
  <g id="patch_1">
   <path d="M 0 648 
L 1008 648 
L 1008 0 
L 0 0 
z
" style="fill: #ffffff"/>
  </g>
  <g id="axes_1">
   <g id="patch_2">
    <path d="M 100.8 131.611034 
L 987.84 131.611034 
L 987.84 38.88 
L 100.8 38.88 
z
" style="fill: #eeeeee"/>
   </g>
   <g id="matplotlib.axis_1">
    <g id="xtick_1">
     <g id="line2d_1">
      <path d="M 141.12 131.611034 
L 141.12 38.88 
" clip-path="url(#p93d4e5a3f6)" style="fill: none; stroke-dasharray: 1.85,0.8; stroke-dashoffset: 0; stroke: #b2b2b2; stroke-width: 0.5"/>
     </g>
     <g id="line2d_2">
      <defs>
       <path id="m6d870f4d9e" d="M 0 0 
L 0 -3.5 
" style="stroke: #000000; stroke-width: 0.8"/>
      </defs>
      <g>
       <use xlink:href="#m6d870f4d9e" x="141.12" y="131.611034" style="stroke: #000000; stroke-width: 0.8"/>
      </g>
     </g>
    </g>
    <g id="xtick_2">
     <g id="line2d_3">
      <path d="M 302.4 131.611034 
L 302.4 38.88 
" clip-path="url(#p93d4e5a3f6)" style="fill: none; stroke-dasharray: 1.85,0.8; stroke-dashoffset: 0; stroke: #b2b2b2; stroke-width: 0.5"/>
     </g>
     <g id="line2d_4">
      <g>
       <use xlink:href="#m6d870f4d9e" x="302.4" y="131.611034" style="stroke: #000000; stroke-width: 0.8"/>
      </g>
     </g>
    </g>
    <g id="xtick_3">
     <g id="line2d_5">
      <path d="M 463.68 131.611034 
L 463.68 38.88 
" clip-path="url(#p93d4e5a3f6)" style="fill: none; stroke-dasharray: 1.85,0.8; stroke-dashoffset: 0; stroke: #b2b2b2; stroke-width: 0.5"/>
     </g>
     <g id="line2d_6">
      <g>
       <use xlink:href="#m6d870f4d9e" x="463.68" y="131.611034" style="stroke: #000000; stroke-width: 0.8"/>
      </g>
     </g>
    </g>
    <g id="xtick_4">
     <g id="line2d_7">
      <path d="M 624.96 131.611034 
L 624.96 38.88 
" clip-path="url(#p93d4e5a3f6)" style="fill: none; stroke-dasharray: 1.85,0.8; stroke-dashoffset: 0; stroke: #b2b2b2; stroke-width: 0.5"/>
     </g>
     <g id="line2d_8">
      <g>
       <use xlink:href="#m6d870f4d9e" x="624.96" y="131.611034" style="stroke: #000000; stroke-width: 0.8"/>
      </g>
     </g>
    </g>
    <g id="xtick_5">
     <g id="line2d_9">
      <path d="M 786.24 131.611034 
L 786.24 38.88 
" clip-path="url(#p93d4e5a3f6)" style="fill: none; stroke-dasharray: 1.85,0.8; stroke-dashoffset: 0; stroke: #b2b2b2; stroke-width: 0.5"/>
     </g>
     <g id="line2d_10">
      <g>
       <use xlink:href="#m6d870f4d9e" x="786.24" y="131.611034" style="stroke: #000000; stroke-width: 0.8"/>
      </g>
     </g>
    </g>
    <g id="xtick_6">
     <g id="line2d_11">
      <path d="M 947.52 131.611034 
L 947.52 38.88 
" clip-path="url(#p93d4e5a3f6)" style="fill: none; stroke-dasharray: 1.85,0.8; stroke-dashoffset: 0; stroke: #b2b2b2; stroke-width: 0.5"/>
     </g>
     <g id="line2d_12">
      <g>
       <use xlink:href="#m6d870f4d9e" x="947.52" y="131.611034" style="stroke: #000000; stroke-width: 0.8"/>
      </g>
     </g>
    </g>
   </g>
   <g id="matplotlib.axis_2">
    <g id="ytick_1">
     <g id="line2d_13">
      <path d="M 100.8 98.340394 
L 987.84 98.340394 
" clip-path="url(#p93d4e5a3f6)" style="fill: none; stroke-dasharray: 1.85,0.8; stroke-dashoffset: 0; stroke: #b2b2b2; stroke-width: 0.5"/>
     </g>
     <g id="line2d_14">
      <defs>
       <path id="m8766ffc532" d="M 0 0 
L 3.5 0 
" style="stroke: #000000; stroke-width: 0.8"/>
      </defs>
      <g>
       <use xlink:href="#m8766ffc532" x="100.8" y="98.340394" style="stroke: #000000; stroke-width: 0.8"/>
      </g>
     </g>
     <g id="text_1">
      <!-- −200 V -->
      <g transform="translate(44.819688 103.6593) scale(0.14 -0.14)">
       <defs>
        <path id="DejaVuSans-2212" d="M 678 2272 
L 4684 2272 
L 4684 1741 
L 678 1741 
L 678 2272 
z
" transform="scale(0.015625)"/>
        <path id="DejaVuSans-32" d="M 1228 531 
L 3431 531 
L 3431 0 
L 469 0 
L 469 531 
Q 828 903 1448 1529 
Q 2069 2156 2228 2338 
Q 2531 2678 2651 2914 
Q 2772 3150 2772 3378 
Q 2772 3750 2511 3984 
Q 2250 4219 1831 4219 
Q 1534 4219 1204 4116 
Q 875 4013 500 3803 
L 500 4441 
Q 881 4594 1212 4672 
Q 1544 4750 1819 4750 
Q 2544 4750 2975 4387 
Q 3406 4025 3406 3419 
Q 3406 3131 3298 2873 
Q 3191 2616 2906 2266 
Q 2828 2175 2409 1742 
Q 1991 1309 1228 531 
z
" transform="scale(0.015625)"/>
        <path id="DejaVuSans-30" d="M 2034 4250 
Q 1547 4250 1301 3770 
Q 1056 3291 1056 2328 
Q 1056 1369 1301 889 
Q 1547 409 2034 409 
Q 2525 409 2770 889 
Q 3016 1369 3016 2328 
Q 3016 3291 2770 3770 
Q 2525 4250 2034 4250 
z
M 2034 4750 
Q 2819 4750 3233 4129 
Q 3647 3509 3647 2328 
Q 3647 1150 3233 529 
Q 2819 -91 2034 -91 
Q 1250 -91 836 529 
Q 422 1150 422 2328 
Q 422 3509 836 4129 
Q 1250 4750 2034 4750 
z
" transform="scale(0.015625)"/>
        <path id="DejaVuSans-20" transform="scale(0.015625)"/>
        <path id="DejaVuSans-56" d="M 1831 0 
L 50 4666 
L 709 4666 
L 2188 738 
L 3669 4666 
L 4325 4666 
L 2547 0 
L 1831 0 
z
" transform="scale(0.015625)"/>
       </defs>
       <use xlink:href="#DejaVuSans-2212"/>
       <use xlink:href="#DejaVuSans-32" x="83.789062"/>
       <use xlink:href="#DejaVuSans-30" x="147.412109"/>
       <use xlink:href="#DejaVuSans-30" x="211.035156"/>
       <use xlink:href="#DejaVuSans-20" x="274.658203"/>
       <use xlink:href="#DejaVuSans-56" x="306.445312"/>
      </g>
     </g>
    </g>
    <g id="ytick_2">
     <g id="line2d_15">
      <path d="M 100.8 45.027377 
L 987.84 45.027377 
" clip-path="url(#p93d4e5a3f6)" style="fill: none; stroke-dasharray: 1.85,0.8; stroke-dashoffset: 0; stroke: #b2b2b2; stroke-width: 0.5"/>
     </g>
     <g id="line2d_16">
      <g>
       <use xlink:href="#m8766ffc532" x="100.8" y="45.027377" style="stroke: #000000; stroke-width: 0.8"/>
      </g>
     </g>
     <g id="text_2">
      <!-- 0 V -->
      <g transform="translate(74.36625 50.346284) scale(0.14 -0.14)">
       <use xlink:href="#DejaVuSans-30"/>
       <use xlink:href="#DejaVuSans-20" x="63.623047"/>
       <use xlink:href="#DejaVuSans-56" x="95.410156"/>
      </g>
     </g>
    </g>
    <g id="text_3">
     <g id="patch_3">
      <path d="M 34.8768 131.080205 
L 34.8768 39.41083 
L 11.247425 39.41083 
L 11.247425 131.080205 
z
" style="fill: #ffff00; opacity: 0.2; stroke: #eeeeee; stroke-width: 0.5; stroke-linejoin: miter"/>
     </g>
     <!-- VPULSE BBI -->
     <g transform="translate(26.925238 126.040205) rotate(-90) scale(0.14 -0.14)">
      <defs>
       <path id="DejaVuSans-50" d="M 1259 4147 
L 1259 2394 
L 2053 2394 
Q 2494 2394 2734 2622 
Q 2975 2850 2975 3272 
Q 2975 3691 2734 3919 
Q 2494 4147 2053 4147 
L 1259 4147 
z
M 628 4666 
L 2053 4666 
Q 2838 4666 3239 4311 
Q 3641 3956 3641 3272 
Q 3641 2581 3239 2228 
Q 2838 1875 2053 1875 
L 1259 1875 
L 1259 0 
L 628 0 
L 628 4666 
z
" transform="scale(0.015625)"/>
       <path id="DejaVuSans-55" d="M 556 4666 
L 1191 4666 
L 1191 1831 
Q 1191 1081 1462 751 
Q 1734 422 2344 422 
Q 2950 422 3222 751 
Q 3494 1081 3494 1831 
L 3494 4666 
L 4128 4666 
L 4128 1753 
Q 4128 841 3676 375 
Q 3225 -91 2344 -91 
Q 1459 -91 1007 375 
Q 556 841 556 1753 
L 556 4666 
z
" transform="scale(0.015625)"/>
       <path id="DejaVuSans-4c" d="M 628 4666 
L 1259 4666 
L 1259 531 
L 3531 531 
L 3531 0 
L 628 0 
L 628 4666 
z
" transform="scale(0.015625)"/>
       <path id="DejaVuSans-53" d="M 3425 4513 
L 3425 3897 
Q 3066 4069 2747 4153 
Q 2428 4238 2131 4238 
Q 1616 4238 1336 4038 
Q 1056 3838 1056 3469 
Q 1056 3159 1242 3001 
Q 1428 2844 1947 2747 
L 2328 2669 
Q 3034 2534 3370 2195 
Q 3706 1856 3706 1288 
Q 3706 609 3251 259 
Q 2797 -91 1919 -91 
Q 1588 -91 1214 -16 
Q 841 59 441 206 
L 441 856 
Q 825 641 1194 531 
Q 1563 422 1919 422 
Q 2459 422 2753 634 
Q 3047 847 3047 1241 
Q 3047 1584 2836 1778 
Q 2625 1972 2144 2069 
L 1759 2144 
Q 1053 2284 737 2584 
Q 422 2884 422 3419 
Q 422 4038 858 4394 
Q 1294 4750 2059 4750 
Q 2388 4750 2728 4690 
Q 3069 4631 3425 4513 
z
" transform="scale(0.015625)"/>
       <path id="DejaVuSans-45" d="M 628 4666 
L 3578 4666 
L 3578 4134 
L 1259 4134 
L 1259 2753 
L 3481 2753 
L 3481 2222 
L 1259 2222 
L 1259 531 
L 3634 531 
L 3634 0 
L 628 0 
L 628 4666 
z
" transform="scale(0.015625)"/>
       <path id="DejaVuSans-42" d="M 1259 2228 
L 1259 519 
L 2272 519 
Q 2781 519 3026 730 
Q 3272 941 3272 1375 
Q 3272 1813 3026 2020 
Q 2781 2228 2272 2228 
L 1259 2228 
z
M 1259 4147 
L 1259 2741 
L 2194 2741 
Q 2656 2741 2882 2914 
Q 3109 3088 3109 3444 
Q 3109 3797 2882 3972 
Q 2656 4147 2194 4147 
L 1259 4147 
z
M 628 4666 
L 2241 4666 
Q 2963 4666 3353 4366 
Q 3744 4066 3744 3513 
Q 3744 3084 3544 2831 
Q 3344 2578 2956 2516 
Q 3422 2416 3680 2098 
Q 3938 1781 3938 1306 
Q 3938 681 3513 340 
Q 3088 0 2303 0 
L 628 0 
L 628 4666 
z
" transform="scale(0.015625)"/>
       <path id="DejaVuSans-49" d="M 628 4666 
L 1259 4666 
L 1259 0 
L 628 0 
L 628 4666 
z
" transform="scale(0.015625)"/>
      </defs>
      <use xlink:href="#DejaVuSans-56"/>
      <use xlink:href="#DejaVuSans-50" x="68.408203"/>
      <use xlink:href="#DejaVuSans-55" x="128.710938"/>
      <use xlink:href="#DejaVuSans-4c" x="201.904297"/>
      <use xlink:href="#DejaVuSans-53" x="257.617188"/>
      <use xlink:href="#DejaVuSans-45" x="321.09375"/>
      <use xlink:href="#DejaVuSans-20" x="384.277344"/>
      <use xlink:href="#DejaVuSans-42" x="416.064453"/>
      <use xlink:href="#DejaVuSans-42" x="484.667969"/>
      <use xlink:href="#DejaVuSans-49" x="553.271484"/>
     </g>
    </g>
   </g>
   <g id="line2d_17">
    <path d="M 141.12 45.027377 
L 254.048256 45.136282 
L 254.532096 46.425538 
L 262.757376 69.006772 
L 270.176256 89.863624 
L 271.789056 94.440546 
L 273.595392 99.673219 
L 277.07904 110.807642 
L 278.659584 115.853719 
L 279.949824 119.585631 
L 280.401408 119.80688 
L 281.465856 120.297359 
L 281.949696 120.526605 
L 283.014144 121.017085 
L 283.594752 121.272988 
L 284.465664 121.656841 
L 285.046272 121.912744 
L 285.884928 122.269941 
L 287.465472 122.936354 
L 288.110592 123.202919 
L 289.207296 123.629423 
L 289.949184 123.922644 
L 291.045888 124.349149 
L 291.949056 124.677024 
L 292.626432 124.943589 
L 293.432832 125.25547 
L 294.787584 125.804594 
L 297.432576 126.790885 
L 298.04544 127.022796 
L 299.9808 127.395987 
L 318.463488 127.289361 
L 318.68928 126.801547 
L 336.978432 75.087922 
L 340.720128 63.292417 
L 344.429568 51.617666 
L 349.042176 49.3412 
L 354.396672 46.984578 
L 363.105792 43.484472 
L 363.976704 43.268927 
L 378.266112 43.108189 
L 385.072128 43.184799 
L 400.425984 43.746186 
L 428.1984 44.46146 
L 453.84192 44.774399 
L 489.452544 44.945888 
L 537.481728 44.953885 
L 947.52 44.953885 
L 947.52 44.953885 
" clip-path="url(#p93d4e5a3f6)" style="fill: none; stroke: #ff0000; stroke-width: 2; stroke-linecap: square"/>
   </g>
   <g id="patch_4">
    <path d="M 100.8 131.611034 
L 100.8 38.88 
" style="fill: none; stroke: #bcbcbc; stroke-width: 0.8; stroke-linejoin: miter; stroke-linecap: square"/>
   </g>
   <g id="patch_5">
    <path d="M 987.84 131.611034 
L 987.84 38.88 
" style="fill: none; stroke: #bcbcbc; stroke-width: 0.8; stroke-linejoin: miter; stroke-linecap: square"/>
   </g>
   <g id="patch_6">
    <path d="M 100.8 131.611034 
L 987.84 131.611034 
" style="fill: none; stroke: #bcbcbc; stroke-width: 0.8; stroke-linejoin: miter; stroke-linecap: square"/>
   </g>
   <g id="patch_7">
    <path d="M 100.8 38.88 
L 987.84 38.88 
" style="fill: none; stroke: #bcbcbc; stroke-width: 0.8; stroke-linejoin: miter; stroke-linecap: square"/>
   </g>
  </g>
  <g id="axes_2">
   <g id="patch_8">
    <path d="M 100.8 242.888276 
L 987.84 242.888276 
L 987.84 150.157241 
L 100.8 150.157241 
z
" style="fill: #eeeeee"/>
   </g>
   <g id="matplotlib.axis_3">
    <g id="xtick_7">
     <g id="line2d_18">
      <path d="M 141.12 242.888276 
L 141.12 150.157241 
" clip-path="url(#pd4ebe042f3)" style="fill: none; stroke-dasharray: 1.85,0.8; stroke-dashoffset: 0; stroke: #b2b2b2; stroke-width: 0.5"/>
     </g>
     <g id="line2d_19">
      <g>
       <use xlink:href="#m6d870f4d9e" x="141.12" y="242.888276" style="stroke: #000000; stroke-width: 0.8"/>
      </g>
     </g>
    </g>
    <g id="xtick_8">
     <g id="line2d_20">
      <path d="M 302.4 242.888276 
L 302.4 150.157241 
" clip-path="url(#pd4ebe042f3)" style="fill: none; stroke-dasharray: 1.85,0.8; stroke-dashoffset: 0; stroke: #b2b2b2; stroke-width: 0.5"/>
     </g>
     <g id="line2d_21">
      <g>
       <use xlink:href="#m6d870f4d9e" x="302.4" y="242.888276" style="stroke: #000000; stroke-width: 0.8"/>
      </g>
     </g>
    </g>
    <g id="xtick_9">
     <g id="line2d_22">
      <path d="M 463.68 242.888276 
L 463.68 150.157241 
" clip-path="url(#pd4ebe042f3)" style="fill: none; stroke-dasharray: 1.85,0.8; stroke-dashoffset: 0; stroke: #b2b2b2; stroke-width: 0.5"/>
     </g>
     <g id="line2d_23">
      <g>
       <use xlink:href="#m6d870f4d9e" x="463.68" y="242.888276" style="stroke: #000000; stroke-width: 0.8"/>
      </g>
     </g>
    </g>
    <g id="xtick_10">
     <g id="line2d_24">
      <path d="M 624.96 242.888276 
L 624.96 150.157241 
" clip-path="url(#pd4ebe042f3)" style="fill: none; stroke-dasharray: 1.85,0.8; stroke-dashoffset: 0; stroke: #b2b2b2; stroke-width: 0.5"/>
     </g>
     <g id="line2d_25">
      <g>
       <use xlink:href="#m6d870f4d9e" x="624.96" y="242.888276" style="stroke: #000000; stroke-width: 0.8"/>
      </g>
     </g>
    </g>
    <g id="xtick_11">
     <g id="line2d_26">
      <path d="M 786.24 242.888276 
L 786.24 150.157241 
" clip-path="url(#pd4ebe042f3)" style="fill: none; stroke-dasharray: 1.85,0.8; stroke-dashoffset: 0; stroke: #b2b2b2; stroke-width: 0.5"/>
     </g>
     <g id="line2d_27">
      <g>
       <use xlink:href="#m6d870f4d9e" x="786.24" y="242.888276" style="stroke: #000000; stroke-width: 0.8"/>
      </g>
     </g>
    </g>
    <g id="xtick_12">
     <g id="line2d_28">
      <path d="M 947.52 242.888276 
L 947.52 150.157241 
" clip-path="url(#pd4ebe042f3)" style="fill: none; stroke-dasharray: 1.85,0.8; stroke-dashoffset: 0; stroke: #b2b2b2; stroke-width: 0.5"/>
     </g>
     <g id="line2d_29">
      <g>
       <use xlink:href="#m6d870f4d9e" x="947.52" y="242.888276" style="stroke: #000000; stroke-width: 0.8"/>
      </g>
     </g>
    </g>
   </g>
   <g id="matplotlib.axis_4">
    <g id="ytick_3">
     <g id="line2d_30">
      <path d="M 100.8 218.292716 
L 987.84 218.292716 
" clip-path="url(#pd4ebe042f3)" style="fill: none; stroke-dasharray: 1.85,0.8; stroke-dashoffset: 0; stroke: #b2b2b2; stroke-width: 0.5"/>
     </g>
     <g id="line2d_31">
      <g>
       <use xlink:href="#m8766ffc532" x="100.8" y="218.292716" style="stroke: #000000; stroke-width: 0.8"/>
      </g>
     </g>
     <g id="text_4">
      <!-- 0 V -->
      <g transform="translate(74.36625 223.611622) scale(0.14 -0.14)">
       <use xlink:href="#DejaVuSans-30"/>
       <use xlink:href="#DejaVuSans-20" x="63.623047"/>
       <use xlink:href="#DejaVuSans-56" x="95.410156"/>
      </g>
     </g>
    </g>
    <g id="ytick_4">
     <g id="line2d_32">
      <path d="M 100.8 183.07679 
L 987.84 183.07679 
" clip-path="url(#pd4ebe042f3)" style="fill: none; stroke-dasharray: 1.85,0.8; stroke-dashoffset: 0; stroke: #b2b2b2; stroke-width: 0.5"/>
     </g>
     <g id="line2d_33">
      <g>
       <use xlink:href="#m8766ffc532" x="100.8" y="183.07679" style="stroke: #000000; stroke-width: 0.8"/>
      </g>
     </g>
     <g id="text_5">
      <!-- 1 V -->
      <g transform="translate(74.36625 188.395696) scale(0.14 -0.14)">
       <defs>
        <path id="DejaVuSans-31" d="M 794 531 
L 1825 531 
L 1825 4091 
L 703 3866 
L 703 4441 
L 1819 4666 
L 2450 4666 
L 2450 531 
L 3481 531 
L 3481 0 
L 794 0 
L 794 531 
z
" transform="scale(0.015625)"/>
       </defs>
       <use xlink:href="#DejaVuSans-31"/>
       <use xlink:href="#DejaVuSans-20" x="63.623047"/>
       <use xlink:href="#DejaVuSans-56" x="95.410156"/>
      </g>
     </g>
    </g>
    <g id="text_6">
     <g id="patch_9">
      <path d="M 34.8768 224.531509 
L 34.8768 168.514009 
L 11.247425 168.514009 
L 11.247425 224.531509 
z
" style="fill: #ffff00; opacity: 0.2; stroke: #eeeeee; stroke-width: 0.5; stroke-linejoin: miter"/>
     </g>
     <!-- DFF IN -->
     <g transform="translate(26.925238 219.491509) rotate(-90) scale(0.14 -0.14)">
      <defs>
       <path id="DejaVuSans-44" d="M 1259 4147 
L 1259 519 
L 2022 519 
Q 2988 519 3436 956 
Q 3884 1394 3884 2338 
Q 3884 3275 3436 3711 
Q 2988 4147 2022 4147 
L 1259 4147 
z
M 628 4666 
L 1925 4666 
Q 3281 4666 3915 4102 
Q 4550 3538 4550 2338 
Q 4550 1131 3912 565 
Q 3275 0 1925 0 
L 628 0 
L 628 4666 
z
" transform="scale(0.015625)"/>
       <path id="DejaVuSans-46" d="M 628 4666 
L 3309 4666 
L 3309 4134 
L 1259 4134 
L 1259 2759 
L 3109 2759 
L 3109 2228 
L 1259 2228 
L 1259 0 
L 628 0 
L 628 4666 
z
" transform="scale(0.015625)"/>
       <path id="DejaVuSans-4e" d="M 628 4666 
L 1478 4666 
L 3547 763 
L 3547 4666 
L 4159 4666 
L 4159 0 
L 3309 0 
L 1241 3903 
L 1241 0 
L 628 0 
L 628 4666 
z
" transform="scale(0.015625)"/>
      </defs>
      <use xlink:href="#DejaVuSans-44"/>
      <use xlink:href="#DejaVuSans-46" x="77.001953"/>
      <use xlink:href="#DejaVuSans-46" x="134.521484"/>
      <use xlink:href="#DejaVuSans-20" x="192.041016"/>
      <use xlink:href="#DejaVuSans-49" x="223.828125"/>
      <use xlink:href="#DejaVuSans-4e" x="253.320312"/>
     </g>
    </g>
   </g>
   <g id="line2d_34">
    <path d="M 141.12 218.241287 
L 221.953536 218.192995 
L 224.437248 198.571093 
L 225.404928 192.601993 
L 228.243456 179.51646 
L 229.66272 178.421244 
L 232.501248 176.364634 
L 235.14624 176.833006 
L 236.307456 176.815398 
L 242.210304 176.706229 
L 243.565056 176.667491 
L 247.209984 176.558322 
L 248.790528 176.494933 
L 250.887168 176.385764 
L 253.145088 176.248422 
L 254.274048 176.354069 
L 254.66112 176.73088 
L 255.499776 178.01274 
L 257.209344 180.826492 
L 259.854336 184.948516 
L 263.37024 190.343948 
L 263.950848 192.362525 
L 264.434688 195.789035 
L 264.950784 197.681187 
L 265.95072 201.313005 
L 266.563584 204.37503 
L 267.466752 207.920217 
L 271.692288 222.700341 
L 271.789056 222.911989 
L 272.530944 224.82034 
L 272.88576 225.343296 
L 273.20832 225.714825 
L 273.788928 227.2358 
L 274.208256 228.045767 
L 274.305024 228.244737 
L 274.724352 229.223387 
L 275.14368 230.158018 
L 275.595264 230.814795 
L 275.821056 231.168363 
L 276.304896 232.411133 
L 277.4016 234.442387 
L 278.208 235.776719 
L 279.788544 238.596458 
L 279.98208 238.662664 
L 280.111104 238.55279 
L 280.401408 238.070684 
L 280.917504 237.357562 
L 282.046464 235.541124 
L 282.691584 234.791377 
L 283.143168 234.050786 
L 283.336704 233.908866 
L 283.8528 233.369006 
L 284.046336 233.246807 
L 284.852736 232.539319 
L 285.207552 231.992415 
L 285.497856 231.52017 
L 285.659136 231.459246 
L 285.884928 231.203227 
L 286.013952 231.200057 
L 286.59456 230.825008 
L 286.852608 230.643293 
L 288.820224 228.700431 
L 290.820096 227.011475 
L 291.207168 226.292366 
L 291.561984 226.148333 
L 291.723264 226.102552 
L 292.819968 225.398233 
L 293.948928 224.341403 
L 294.206976 224.01953 
L 294.432768 223.805065 
L 294.723072 223.627224 
L 295.206912 223.447975 
L 296.142336 222.7588 
L 296.787456 222.234435 
L 297.464832 221.678551 
L 297.819648 221.329174 
L 298.400256 220.8882 
L 299.690496 219.692162 
L 300.496896 218.634067 
L 301.819392 216.718388 
L 302.432256 215.80288 
L 303.174144 214.716539 
L 304.593408 212.760294 
L 306.335232 210.533239 
L 307.915776 208.801672 
L 308.496384 208.386828 
L 309.689856 208.069885 
L 310.173696 208.105101 
L 311.012352 208.368516 
L 312.23808 209.297512 
L 313.302528 210.528661 
L 317.011968 215.17174 
L 318.140928 215.979663 
L 318.560256 216.148383 
L 319.947264 214.999921 
L 321.785856 214.5063 
L 322.979328 214.434459 
L 324.463104 214.52919 
L 325.656576 214.670054 
L 326.140416 214.739781 
L 327.043584 214.864551 
L 327.656448 214.954317 
L 328.333824 215.009148 
L 329.301504 215.142863 
L 329.785344 215.174733 
L 331.10784 215.29253 
L 331.462656 215.325457 
L 333.8496 215.47928 
L 336.59136 215.574469 
L 337.107456 215.579787 
L 337.849344 215.575103 
L 338.171904 215.519321 
L 339.849216 215.291932 
L 340.333056 215.255413 
L 341.494272 215.127192 
L 342.042624 215.089581 
L 342.849024 214.988124 
L 343.461888 214.914769 
L 344.17152 214.825814 
L 344.365056 214.826342 
L 345.106944 215.489986 
L 346.10688 216.241705 
L 347.687424 216.877036 
L 347.751936 216.118097 
L 348.784128 199.080667 
L 349.913088 183.768431 
L 350.880768 173.427626 
L 352.171008 162.348696 
L 352.783872 158.471422 
L 353.332224 156.421855 
L 353.783808 155.421723 
L 354.235392 154.837139 
L 354.816 154.460328 
L 355.686912 154.379332 
L 356.977152 154.625843 
L 357.751296 154.847703 
L 359.138304 155.263251 
L 364.234752 157.048699 
L 365.395968 157.672021 
L 366.137856 158.031223 
L 375.072768 161.993015 
L 375.814656 164.461651 
L 376.5888 166.944374 
L 376.879104 166.969025 
L 377.201664 166.75773 
L 378.782208 165.190621 
L 379.49184 164.849026 
L 380.685312 164.70112 
L 381.717504 164.81381 
L 383.68512 165.137797 
L 388.329984 166.264707 
L 389.00736 166.447829 
L 389.684736 166.627431 
L 390.426624 166.835205 
L 392.910336 167.490221 
L 394.361856 167.852945 
L 395.103744 168.036068 
L 395.716608 168.187496 
L 405.199872 170.145502 
L 405.748224 170.254671 
L 407.490048 170.554006 
L 409.6512 170.913209 
L 410.360832 171.015335 
L 411.005952 171.11394 
L 411.715584 171.219587 
L 412.39296 171.325235 
L 413.167104 171.434405 
L 414.65088 171.649222 
L 415.489536 171.543574 
L 416.005632 171.001249 
L 416.553984 170.80404 
L 418.03776 171.240717 
L 422.06976 172.448623 
L 434.520576 173.70231 
L 435.165696 173.737526 
L 438.068736 173.9453 
L 439.746048 174.05447 
L 442.003968 174.191812 
L 444.229632 174.300981 
L 446.10048 174.396064 
L 446.777856 174.43128 
L 448.648704 174.526363 
L 450.971136 174.635532 
L 452.583936 174.702443 
L 453.293568 174.734137 
L 455.712768 174.822177 
L 456.648192 175.773007 
L 457.196544 175.949086 
L 457.87392 175.987824 
L 459.228672 175.582841 
L 460.035072 175.350416 
L 461.42208 175.16025 
L 462.71232 175.128555 
L 468.324864 175.234203 
L 468.937728 175.255333 
L 473.131008 175.36098 
L 473.67936 175.371545 
L 479.420928 175.477193 
L 479.904768 175.47015 
L 485.194752 175.575798 
L 485.710848 175.575798 
L 496.129536 175.501844 
L 496.613376 174.987692 
L 497.193984 174.727094 
L 498.451968 174.698921 
L 502.3872 175.445499 
L 504.387072 175.554668 
L 536.352768 175.653273 
L 537.288192 176.519584 
L 538.19136 176.702707 
L 539.4816 176.737923 
L 542.191104 176.258986 
L 548.093952 175.723704 
L 576.672768 175.656794 
L 577.285632 174.977127 
L 578.253312 174.670748 
L 579.382272 174.776396 
L 580.737024 175.103904 
L 582.349824 175.343372 
L 585.188352 175.544103 
L 616.992768 175.653273 
L 617.928192 176.519584 
L 618.83136 176.706229 
L 620.928 176.600581 
L 623.218176 176.213206 
L 628.66944 175.727226 
L 657.312768 175.653273 
L 657.86112 175.015864 
L 658.409472 174.730615 
L 660.312576 174.836263 
L 663.570432 175.434934 
L 665.667072 175.554668 
L 697.632768 175.653273 
L 698.568192 176.519584 
L 699.47136 176.706229 
L 701.568 176.600581 
L 703.890432 176.206163 
L 709.244928 175.730748 
L 737.952768 175.653273 
L 738.50112 175.015864 
L 739.049472 174.730615 
L 740.952576 174.836263 
L 744.210432 175.434934 
L 746.307072 175.554668 
L 778.272768 175.653273 
L 779.208192 176.519584 
L 780.11136 176.706229 
L 782.208 176.600581 
L 784.530432 176.206163 
L 789.884928 175.730748 
L 818.592768 175.653273 
L 819.14112 175.015864 
L 819.689472 174.730615 
L 821.592576 174.836263 
L 824.850432 175.434934 
L 826.947072 175.554668 
L 858.912768 175.653273 
L 859.848192 176.519584 
L 860.75136 176.706229 
L 862.848 176.600581 
L 865.138176 176.213206 
L 870.58944 175.727226 
L 899.232768 175.653273 
L 899.78112 175.015864 
L 900.329472 174.730615 
L 902.232576 174.836263 
L 905.458176 175.427891 
L 907.619328 175.554668 
L 939.552768 175.653273 
L 940.617216 176.551279 
L 941.55264 176.744966 
L 943.423488 176.639318 
L 946.326528 176.118123 
L 947.52 175.924435 
L 947.52 175.924435 
" clip-path="url(#pd4ebe042f3)" style="fill: none; stroke: #008000; stroke-width: 2; stroke-linecap: square"/>
   </g>
   <g id="patch_10">
    <path d="M 100.8 242.888276 
L 100.8 150.157241 
" style="fill: none; stroke: #bcbcbc; stroke-width: 0.8; stroke-linejoin: miter; stroke-linecap: square"/>
   </g>
   <g id="patch_11">
    <path d="M 987.84 242.888276 
L 987.84 150.157241 
" style="fill: none; stroke: #bcbcbc; stroke-width: 0.8; stroke-linejoin: miter; stroke-linecap: square"/>
   </g>
   <g id="patch_12">
    <path d="M 100.8 242.888276 
L 987.84 242.888276 
" style="fill: none; stroke: #bcbcbc; stroke-width: 0.8; stroke-linejoin: miter; stroke-linecap: square"/>
   </g>
   <g id="patch_13">
    <path d="M 100.8 150.157241 
L 987.84 150.157241 
" style="fill: none; stroke: #bcbcbc; stroke-width: 0.8; stroke-linejoin: miter; stroke-linecap: square"/>
   </g>
  </g>
  <g id="axes_3">
   <g id="patch_14">
    <path d="M 100.8 354.165517 
L 987.84 354.165517 
L 987.84 261.434483 
L 100.8 261.434483 
z
" style="fill: #eeeeee"/>
   </g>
   <g id="matplotlib.axis_5">
    <g id="xtick_13">
     <g id="line2d_35">
      <path d="M 141.12 354.165517 
L 141.12 261.434483 
" clip-path="url(#pc518f9758f)" style="fill: none; stroke-dasharray: 1.85,0.8; stroke-dashoffset: 0; stroke: #b2b2b2; stroke-width: 0.5"/>
     </g>
     <g id="line2d_36">
      <g>
       <use xlink:href="#m6d870f4d9e" x="141.12" y="354.165517" style="stroke: #000000; stroke-width: 0.8"/>
      </g>
     </g>
    </g>
    <g id="xtick_14">
     <g id="line2d_37">
      <path d="M 302.4 354.165517 
L 302.4 261.434483 
" clip-path="url(#pc518f9758f)" style="fill: none; stroke-dasharray: 1.85,0.8; stroke-dashoffset: 0; stroke: #b2b2b2; stroke-width: 0.5"/>
     </g>
     <g id="line2d_38">
      <g>
       <use xlink:href="#m6d870f4d9e" x="302.4" y="354.165517" style="stroke: #000000; stroke-width: 0.8"/>
      </g>
     </g>
    </g>
    <g id="xtick_15">
     <g id="line2d_39">
      <path d="M 463.68 354.165517 
L 463.68 261.434483 
" clip-path="url(#pc518f9758f)" style="fill: none; stroke-dasharray: 1.85,0.8; stroke-dashoffset: 0; stroke: #b2b2b2; stroke-width: 0.5"/>
     </g>
     <g id="line2d_40">
      <g>
       <use xlink:href="#m6d870f4d9e" x="463.68" y="354.165517" style="stroke: #000000; stroke-width: 0.8"/>
      </g>
     </g>
    </g>
    <g id="xtick_16">
     <g id="line2d_41">
      <path d="M 624.96 354.165517 
L 624.96 261.434483 
" clip-path="url(#pc518f9758f)" style="fill: none; stroke-dasharray: 1.85,0.8; stroke-dashoffset: 0; stroke: #b2b2b2; stroke-width: 0.5"/>
     </g>
     <g id="line2d_42">
      <g>
       <use xlink:href="#m6d870f4d9e" x="624.96" y="354.165517" style="stroke: #000000; stroke-width: 0.8"/>
      </g>
     </g>
    </g>
    <g id="xtick_17">
     <g id="line2d_43">
      <path d="M 786.24 354.165517 
L 786.24 261.434483 
" clip-path="url(#pc518f9758f)" style="fill: none; stroke-dasharray: 1.85,0.8; stroke-dashoffset: 0; stroke: #b2b2b2; stroke-width: 0.5"/>
     </g>
     <g id="line2d_44">
      <g>
       <use xlink:href="#m6d870f4d9e" x="786.24" y="354.165517" style="stroke: #000000; stroke-width: 0.8"/>
      </g>
     </g>
    </g>
    <g id="xtick_18">
     <g id="line2d_45">
      <path d="M 947.52 354.165517 
L 947.52 261.434483 
" clip-path="url(#pc518f9758f)" style="fill: none; stroke-dasharray: 1.85,0.8; stroke-dashoffset: 0; stroke: #b2b2b2; stroke-width: 0.5"/>
     </g>
     <g id="line2d_46">
      <g>
       <use xlink:href="#m6d870f4d9e" x="947.52" y="354.165517" style="stroke: #000000; stroke-width: 0.8"/>
      </g>
     </g>
    </g>
   </g>
   <g id="matplotlib.axis_6">
    <g id="ytick_5">
     <g id="line2d_47">
      <path d="M 100.8 349.193494 
L 987.84 349.193494 
" clip-path="url(#pc518f9758f)" style="fill: none; stroke-dasharray: 1.85,0.8; stroke-dashoffset: 0; stroke: #b2b2b2; stroke-width: 0.5"/>
     </g>
     <g id="line2d_48">
      <g>
       <use xlink:href="#m8766ffc532" x="100.8" y="349.193494" style="stroke: #000000; stroke-width: 0.8"/>
      </g>
     </g>
     <g id="text_7">
      <!-- 0 V -->
      <g transform="translate(74.36625 354.5124) scale(0.14 -0.14)">
       <use xlink:href="#DejaVuSans-30"/>
       <use xlink:href="#DejaVuSans-20" x="63.623047"/>
       <use xlink:href="#DejaVuSans-56" x="95.410156"/>
      </g>
     </g>
    </g>
    <g id="ytick_6">
     <g id="line2d_49">
      <path d="M 100.8 305.843575 
L 987.84 305.843575 
" clip-path="url(#pc518f9758f)" style="fill: none; stroke-dasharray: 1.85,0.8; stroke-dashoffset: 0; stroke: #b2b2b2; stroke-width: 0.5"/>
     </g>
     <g id="line2d_50">
      <g>
       <use xlink:href="#m8766ffc532" x="100.8" y="305.843575" style="stroke: #000000; stroke-width: 0.8"/>
      </g>
     </g>
     <g id="text_8">
      <!-- 1 V -->
      <g transform="translate(74.36625 311.162481) scale(0.14 -0.14)">
       <use xlink:href="#DejaVuSans-31"/>
       <use xlink:href="#DejaVuSans-20" x="63.623047"/>
       <use xlink:href="#DejaVuSans-56" x="95.410156"/>
      </g>
     </g>
    </g>
    <g id="ytick_7">
     <g id="line2d_51">
      <path d="M 100.8 262.493656 
L 987.84 262.493656 
" clip-path="url(#pc518f9758f)" style="fill: none; stroke-dasharray: 1.85,0.8; stroke-dashoffset: 0; stroke: #b2b2b2; stroke-width: 0.5"/>
     </g>
     <g id="line2d_52">
      <g>
       <use xlink:href="#m8766ffc532" x="100.8" y="262.493656" style="stroke: #000000; stroke-width: 0.8"/>
      </g>
     </g>
     <g id="text_9">
      <!-- 2 V -->
      <g transform="translate(74.36625 267.812562) scale(0.14 -0.14)">
       <use xlink:href="#DejaVuSans-32"/>
       <use xlink:href="#DejaVuSans-20" x="63.623047"/>
       <use xlink:href="#DejaVuSans-56" x="95.410156"/>
      </g>
     </g>
    </g>
    <g id="text_10">
     <g id="patch_15">
      <path d="M 34.8768 342.395313 
L 34.8768 273.204688 
L 11.247425 273.204688 
L 11.247425 342.395313 
z
" style="fill: #ffff00; opacity: 0.2; stroke: #eeeeee; stroke-width: 0.5; stroke-linejoin: miter"/>
     </g>
     <!-- CLK BUF -->
     <g transform="translate(26.925238 337.355313) rotate(-90) scale(0.14 -0.14)">
      <defs>
       <path id="DejaVuSans-43" d="M 4122 4306 
L 4122 3641 
Q 3803 3938 3442 4084 
Q 3081 4231 2675 4231 
Q 1875 4231 1450 3742 
Q 1025 3253 1025 2328 
Q 1025 1406 1450 917 
Q 1875 428 2675 428 
Q 3081 428 3442 575 
Q 3803 722 4122 1019 
L 4122 359 
Q 3791 134 3420 21 
Q 3050 -91 2638 -91 
Q 1578 -91 968 557 
Q 359 1206 359 2328 
Q 359 3453 968 4101 
Q 1578 4750 2638 4750 
Q 3056 4750 3426 4639 
Q 3797 4528 4122 4306 
z
" transform="scale(0.015625)"/>
       <path id="DejaVuSans-4b" d="M 628 4666 
L 1259 4666 
L 1259 2694 
L 3353 4666 
L 4166 4666 
L 1850 2491 
L 4331 0 
L 3500 0 
L 1259 2247 
L 1259 0 
L 628 0 
L 628 4666 
z
" transform="scale(0.015625)"/>
      </defs>
      <use xlink:href="#DejaVuSans-43"/>
      <use xlink:href="#DejaVuSans-4c" x="69.824219"/>
      <use xlink:href="#DejaVuSans-4b" x="125.537109"/>
      <use xlink:href="#DejaVuSans-20" x="191.113281"/>
      <use xlink:href="#DejaVuSans-42" x="222.900391"/>
      <use xlink:href="#DejaVuSans-55" x="291.503906"/>
      <use xlink:href="#DejaVuSans-46" x="364.697266"/>
     </g>
    </g>
   </g>
   <g id="line2d_53">
    <path d="M 141.12 349.192348 
L 173.376 349.192348 
L 173.601792 297.173591 
L 213.696 297.173591 
L 213.760512 338.6677 
L 213.825024 349.17369 
L 213.889536 349.111307 
L 213.954048 349.284485 
L 214.01856 349.198192 
L 215.341056 349.189096 
L 223.3728 349.192309 
L 254.016 349.222807 
L 254.145024 297.147581 
L 254.241792 297.4597 
L 255.725568 299.627196 
L 264.241152 314.282937 
L 268.240896 320.367532 
L 271.692288 325.163767 
L 271.724544 325.097441 
L 271.7568 325.27691 
L 271.950336 325.452044 
L 272.756736 326.348087 
L 274.885632 328.363858 
L 276.43392 329.614069 
L 279.917568 331.894709 
L 280.46592 331.575653 
L 280.659456 331.504559 
L 282.465792 330.750271 
L 293.948928 326.619024 
L 293.981184 326.755576 
L 294.045696 326.575674 
L 294.110208 326.641999 
L 294.142464 326.548363 
L 294.271488 326.52192 
L 294.336 326.486806 
L 294.400512 325.19888 
L 294.465024 325.941031 
L 294.65856 349.95047 
L 294.723072 349.922813 
L 294.98112 349.886009 
L 298.658304 349.221667 
L 303.496704 348.633543 
L 305.980416 348.630509 
L 318.624768 348.648932 
L 319.237632 348.060284 
L 320.011776 347.647029 
L 321.011712 347.395686 
L 322.463232 347.288178 
L 325.14048 347.33712 
L 334.656 347.722805 
L 334.785024 280.670277 
L 334.946304 280.804662 
L 335.4624 279.941998 
L 336.365568 278.468101 
L 337.139712 277.245633 
L 339.849216 272.732907 
L 340.429824 271.779208 
L 341.978112 269.286588 
L 342.945792 267.808356 
L 343.816704 266.503523 
L 344.49408 265.76224 
L 345.042432 265.653865 
L 345.62304 265.68421 
L 346.848768 265.952979 
L 351.654912 268.007765 
L 352.07424 268.215845 
L 354.557952 269.334273 
L 356.235264 270.110236 
L 364.17024 273.426505 
L 364.718592 273.729955 
L 365.363712 274.102764 
L 365.976576 274.458233 
L 368.234496 275.793411 
L 368.879616 276.18356 
L 369.65376 276.612724 
L 374.976 279.391454 
L 375.13728 349.654867 
L 375.169536 349.614625 
L 379.137024 349.570716 
L 405.6192 349.385781 
L 409.747968 349.363907 
L 415.296 349.336982 
L 415.45728 291.923916 
L 415.521792 291.941256 
L 416.1024 292.062636 
L 416.9088 292.17101 
L 417.263616 292.236035 
L 417.973248 292.34441 
L 418.328064 292.409435 
L 419.134464 292.51781 
L 419.48928 292.582835 
L 420.392448 292.691209 
L 420.747264 292.756234 
L 421.650432 292.864609 
L 422.005248 292.929634 
L 422.908416 293.038009 
L 423.166464 293.059684 
L 423.972864 293.168058 
L 424.295424 293.228748 
L 425.29536 293.328453 
L 425.746944 293.402148 
L 426.74688 293.501853 
L 427.198464 293.575548 
L 428.295168 293.675252 
L 428.746752 293.748947 
L 429.843456 293.848652 
L 430.198272 293.883332 
L 431.133696 293.991707 
L 431.391744 294.013382 
L 432.488448 294.121757 
L 432.746496 294.143432 
L 433.8432 294.251806 
L 434.101248 294.273481 
L 435.29472 294.381856 
L 435.552768 294.403531 
L 436.74624 294.511906 
L 437.004288 294.533581 
L 438.391296 294.641956 
L 438.649344 294.663631 
L 440.036352 294.772005 
L 440.2944 294.79368 
L 440.810496 294.832695 
L 442.262016 294.919395 
L 443.584512 295.0191 
L 443.939328 295.049445 
L 445.519872 295.14915 
L 445.874688 295.179495 
L 447.648768 295.2792 
L 448.003584 295.309544 
L 449.874432 295.409249 
L 450.229248 295.439594 
L 452.293632 295.539299 
L 452.648448 295.569644 
L 454.906368 295.669349 
L 455.261184 295.699694 
L 455.616 295.699694 
L 455.648256 299.991336 
L 455.712768 349.720542 
L 455.77728 348.982904 
L 455.841792 349.465974 
L 455.906304 349.240442 
L 456.09984 349.232004 
L 466.131456 349.2213 
L 495.936 349.204762 
L 496.09728 296.514672 
L 496.161792 297.004526 
L 496.25856 296.558022 
L 496.323072 296.722752 
L 496.806912 296.740092 
L 536.256 296.740092 
L 536.385024 349.524497 
L 536.546304 349.272434 
L 536.804352 349.175806 
L 537.159168 349.222964 
L 537.481728 349.204535 
L 575.12448 349.204761 
L 576.576 349.204762 
L 576.705024 296.562357 
L 576.769536 296.744427 
L 576.834048 296.774772 
L 576.866304 296.748762 
L 577.027584 296.740092 
L 616.896 296.740092 
L 617.025024 349.524501 
L 617.186304 349.272438 
L 617.444352 349.175805 
L 617.799168 349.222965 
L 618.121728 349.204535 
L 655.76448 349.204761 
L 657.216 349.204762 
L 657.37728 296.514672 
L 657.441792 297.004526 
L 657.53856 296.562357 
L 657.603072 296.722752 
L 658.086912 296.740092 
L 697.536 296.740092 
L 697.665024 349.524713 
L 697.826304 349.272391 
L 698.084352 349.175817 
L 698.439168 349.222977 
L 698.761728 349.204536 
L 736.436736 349.204761 
L 737.856 349.204762 
L 738.01728 296.514672 
L 738.081792 297.004526 
L 738.17856 296.558022 
L 738.243072 296.722752 
L 738.726912 296.740092 
L 778.176 296.740092 
L 778.305024 349.524531 
L 778.466304 349.272443 
L 778.724352 349.175805 
L 779.079168 349.222965 
L 779.401728 349.204535 
L 817.04448 349.204761 
L 818.496 349.204762 
L 818.65728 296.514672 
L 818.721792 297.004526 
L 818.81856 296.558022 
L 818.883072 296.722752 
L 819.366912 296.740092 
L 858.816 296.740092 
L 858.945024 349.524713 
L 859.106304 349.272395 
L 859.364352 349.175817 
L 859.719168 349.222977 
L 860.041728 349.204536 
L 897.716736 349.204761 
L 899.136 349.204762 
L 899.29728 296.514672 
L 899.361792 297.004526 
L 899.45856 296.558022 
L 899.523072 296.722752 
L 900.006912 296.740092 
L 939.456 296.740092 
L 939.488256 304.556082 
L 939.61728 349.153207 
L 939.649536 349.279253 
L 939.714048 349.158658 
L 939.746304 349.120623 
L 939.810816 349.176569 
L 940.004352 349.230703 
L 940.230144 349.203386 
L 945.58464 349.204767 
L 947.52 349.204752 
L 947.52 349.204752 
" clip-path="url(#pc518f9758f)" style="fill: none; stroke: #0000ff; stroke-width: 2; stroke-linecap: square"/>
   </g>
   <g id="patch_16">
    <path d="M 100.8 354.165517 
L 100.8 261.434483 
" style="fill: none; stroke: #bcbcbc; stroke-width: 0.8; stroke-linejoin: miter; stroke-linecap: square"/>
   </g>
   <g id="patch_17">
    <path d="M 987.84 354.165517 
L 987.84 261.434483 
" style="fill: none; stroke: #bcbcbc; stroke-width: 0.8; stroke-linejoin: miter; stroke-linecap: square"/>
   </g>
   <g id="patch_18">
    <path d="M 100.8 354.165517 
L 987.84 354.165517 
" style="fill: none; stroke: #bcbcbc; stroke-width: 0.8; stroke-linejoin: miter; stroke-linecap: square"/>
   </g>
   <g id="patch_19">
    <path d="M 100.8 261.434483 
L 987.84 261.434483 
" style="fill: none; stroke: #bcbcbc; stroke-width: 0.8; stroke-linejoin: miter; stroke-linecap: square"/>
   </g>
  </g>
  <g id="axes_4">
   <g id="patch_20">
    <path d="M 100.8 465.442759 
L 987.84 465.442759 
L 987.84 372.711724 
L 100.8 372.711724 
z
" style="fill: #eeeeee"/>
   </g>
   <g id="matplotlib.axis_7">
    <g id="xtick_19">
     <g id="line2d_54">
      <path d="M 141.12 465.442759 
L 141.12 372.711724 
" clip-path="url(#pea904a240d)" style="fill: none; stroke-dasharray: 1.85,0.8; stroke-dashoffset: 0; stroke: #b2b2b2; stroke-width: 0.5"/>
     </g>
     <g id="line2d_55">
      <g>
       <use xlink:href="#m6d870f4d9e" x="141.12" y="465.442759" style="stroke: #000000; stroke-width: 0.8"/>
      </g>
     </g>
    </g>
    <g id="xtick_20">
     <g id="line2d_56">
      <path d="M 302.4 465.442759 
L 302.4 372.711724 
" clip-path="url(#pea904a240d)" style="fill: none; stroke-dasharray: 1.85,0.8; stroke-dashoffset: 0; stroke: #b2b2b2; stroke-width: 0.5"/>
     </g>
     <g id="line2d_57">
      <g>
       <use xlink:href="#m6d870f4d9e" x="302.4" y="465.442759" style="stroke: #000000; stroke-width: 0.8"/>
      </g>
     </g>
    </g>
    <g id="xtick_21">
     <g id="line2d_58">
      <path d="M 463.68 465.442759 
L 463.68 372.711724 
" clip-path="url(#pea904a240d)" style="fill: none; stroke-dasharray: 1.85,0.8; stroke-dashoffset: 0; stroke: #b2b2b2; stroke-width: 0.5"/>
     </g>
     <g id="line2d_59">
      <g>
       <use xlink:href="#m6d870f4d9e" x="463.68" y="465.442759" style="stroke: #000000; stroke-width: 0.8"/>
      </g>
     </g>
    </g>
    <g id="xtick_22">
     <g id="line2d_60">
      <path d="M 624.96 465.442759 
L 624.96 372.711724 
" clip-path="url(#pea904a240d)" style="fill: none; stroke-dasharray: 1.85,0.8; stroke-dashoffset: 0; stroke: #b2b2b2; stroke-width: 0.5"/>
     </g>
     <g id="line2d_61">
      <g>
       <use xlink:href="#m6d870f4d9e" x="624.96" y="465.442759" style="stroke: #000000; stroke-width: 0.8"/>
      </g>
     </g>
    </g>
    <g id="xtick_23">
     <g id="line2d_62">
      <path d="M 786.24 465.442759 
L 786.24 372.711724 
" clip-path="url(#pea904a240d)" style="fill: none; stroke-dasharray: 1.85,0.8; stroke-dashoffset: 0; stroke: #b2b2b2; stroke-width: 0.5"/>
     </g>
     <g id="line2d_63">
      <g>
       <use xlink:href="#m6d870f4d9e" x="786.24" y="465.442759" style="stroke: #000000; stroke-width: 0.8"/>
      </g>
     </g>
    </g>
    <g id="xtick_24">
     <g id="line2d_64">
      <path d="M 947.52 465.442759 
L 947.52 372.711724 
" clip-path="url(#pea904a240d)" style="fill: none; stroke-dasharray: 1.85,0.8; stroke-dashoffset: 0; stroke: #b2b2b2; stroke-width: 0.5"/>
     </g>
     <g id="line2d_65">
      <g>
       <use xlink:href="#m6d870f4d9e" x="947.52" y="465.442759" style="stroke: #000000; stroke-width: 0.8"/>
      </g>
     </g>
    </g>
   </g>
   <g id="matplotlib.axis_8">
    <g id="ytick_8">
     <g id="line2d_66">
      <path d="M 100.8 438.703916 
L 987.84 438.703916 
" clip-path="url(#pea904a240d)" style="fill: none; stroke-dasharray: 1.85,0.8; stroke-dashoffset: 0; stroke: #b2b2b2; stroke-width: 0.5"/>
     </g>
     <g id="line2d_67">
      <g>
       <use xlink:href="#m8766ffc532" x="100.8" y="438.703916" style="stroke: #000000; stroke-width: 0.8"/>
      </g>
     </g>
     <g id="text_11">
      <!-- 0 V -->
      <g transform="translate(74.36625 444.022823) scale(0.14 -0.14)">
       <use xlink:href="#DejaVuSans-30"/>
       <use xlink:href="#DejaVuSans-20" x="63.623047"/>
       <use xlink:href="#DejaVuSans-56" x="95.410156"/>
      </g>
     </g>
    </g>
    <g id="ytick_9">
     <g id="line2d_68">
      <path d="M 100.8 399.332847 
L 987.84 399.332847 
" clip-path="url(#pea904a240d)" style="fill: none; stroke-dasharray: 1.85,0.8; stroke-dashoffset: 0; stroke: #b2b2b2; stroke-width: 0.5"/>
     </g>
     <g id="line2d_69">
      <g>
       <use xlink:href="#m8766ffc532" x="100.8" y="399.332847" style="stroke: #000000; stroke-width: 0.8"/>
      </g>
     </g>
     <g id="text_12">
      <!-- 1 V -->
      <g transform="translate(74.36625 404.651753) scale(0.14 -0.14)">
       <use xlink:href="#DejaVuSans-31"/>
       <use xlink:href="#DejaVuSans-20" x="63.623047"/>
       <use xlink:href="#DejaVuSans-56" x="95.410156"/>
      </g>
     </g>
    </g>
    <g id="text_13">
     <g id="patch_21">
      <path d="M 34.8768 454.693023 
L 34.8768 383.46146 
L 11.247425 383.46146 
L 11.247425 454.693023 
z
" style="fill: #ffff00; opacity: 0.2; stroke: #eeeeee; stroke-width: 0.5; stroke-linejoin: miter"/>
     </g>
     <!-- DFF OUT -->
     <g transform="translate(26.925238 449.653023) rotate(-90) scale(0.14 -0.14)">
      <defs>
       <path id="DejaVuSans-4f" d="M 2522 4238 
Q 1834 4238 1429 3725 
Q 1025 3213 1025 2328 
Q 1025 1447 1429 934 
Q 1834 422 2522 422 
Q 3209 422 3611 934 
Q 4013 1447 4013 2328 
Q 4013 3213 3611 3725 
Q 3209 4238 2522 4238 
z
M 2522 4750 
Q 3503 4750 4090 4092 
Q 4678 3434 4678 2328 
Q 4678 1225 4090 567 
Q 3503 -91 2522 -91 
Q 1538 -91 948 565 
Q 359 1222 359 2328 
Q 359 3434 948 4092 
Q 1538 4750 2522 4750 
z
" transform="scale(0.015625)"/>
       <path id="DejaVuSans-54" d="M -19 4666 
L 3928 4666 
L 3928 4134 
L 2272 4134 
L 2272 0 
L 1638 0 
L 1638 4134 
L -19 4134 
L -19 4666 
z
" transform="scale(0.015625)"/>
      </defs>
      <use xlink:href="#DejaVuSans-44"/>
      <use xlink:href="#DejaVuSans-46" x="77.001953"/>
      <use xlink:href="#DejaVuSans-46" x="134.521484"/>
      <use xlink:href="#DejaVuSans-20" x="192.041016"/>
      <use xlink:href="#DejaVuSans-4f" x="223.828125"/>
      <use xlink:href="#DejaVuSans-55" x="302.539062"/>
      <use xlink:href="#DejaVuSans-54" x="375.732422"/>
     </g>
    </g>
   </g>
   <g id="line2d_70">
    <path d="M 141.12 408.997263 
L 173.408256 409.045296 
L 173.440512 410.675258 
L 173.601792 438.706319 
L 174.117888 438.701747 
L 184.472064 438.702875 
L 254.048256 438.74565 
L 254.080512 438.998743 
L 254.112768 438.477919 
L 254.306304 435.117763 
L 254.98368 433.805368 
L 255.209472 432.506123 
L 255.403008 430.137559 
L 255.6288 424.115754 
L 255.886848 410.354384 
L 256.144896 394.628004 
L 256.27392 394.588633 
L 256.531968 394.94691 
L 256.983552 395.659526 
L 259.628544 399.962784 
L 262.176768 404.204229 
L 262.789632 405.942462 
L 263.85408 410.044534 
L 264.241152 411.722922 
L 264.563712 413.119021 
L 264.595968 412.915078 
L 264.628224 412.8824 
L 264.98304 415.129701 
L 265.724928 418.608923 
L 265.78944 418.287261 
L 265.853952 418.482148 
L 266.015232 419.916829 
L 266.27328 421.150719 
L 266.370048 420.993628 
L 266.402304 421.035362 
L 266.75712 423.351955 
L 267.499008 427.009528 
L 267.56352 426.689835 
L 267.595776 426.661094 
L 267.757056 428.278457 
L 268.886016 433.204565 
L 269.305344 434.931892 
L 269.49888 435.701636 
L 269.531136 435.042683 
L 269.595648 435.861483 
L 269.789184 436.837806 
L 270.111744 438.013466 
L 270.144 437.556525 
L 270.208512 437.851966 
L 270.30528 438.286465 
L 270.46656 439.48059 
L 270.821376 440.839403 
L 270.853632 440.414589 
L 270.918144 440.942122 
L 270.9504 440.836647 
L 270.982656 440.92413 
L 271.143936 442.043804 
L 271.498752 443.125288 
L 271.627776 443.489864 
L 271.660032 443.159147 
L 271.724544 443.293402 
L 271.7568 443.394586 
L 271.853568 443.913103 
L 271.885824 443.754831 
L 271.91808 443.765067 
L 272.337408 445.317469 
L 272.950272 446.595454 
L 272.982528 446.366314 
L 273.04704 446.49427 
L 273.143808 446.642699 
L 273.305088 446.947431 
L 273.434112 447.53406 
L 273.466368 447.402561 
L 273.563136 447.775011 
L 273.595392 447.689182 
L 273.69216 448.0699 
L 273.885696 448.690388 
L 274.788864 450.847135 
L 274.82112 450.656579 
L 274.885632 450.906979 
L 275.111424 451.605422 
L 277.498368 456.682322 
L 277.530624 456.549247 
L 277.56288 456.792561 
L 277.595136 456.750827 
L 278.595072 458.902456 
L 279.885312 461.227712 
L 280.078848 461.108024 
L 280.30464 460.611161 
L 280.691712 459.924923 
L 280.820736 459.617041 
L 281.562624 458.239054 
L 281.723904 457.973693 
L 281.75616 458.002434 
L 281.91744 457.250446 
L 281.981952 457.713844 
L 282.014208 457.634708 
L 282.046464 457.363441 
L 282.143232 457.442971 
L 282.369024 457.007527 
L 282.40128 457.080757 
L 282.433536 456.891776 
L 283.078656 456.005927 
L 283.110912 456.18664 
L 283.143168 455.957894 
L 283.175424 455.99254 
L 283.336704 455.658674 
L 283.401216 455.777181 
L 283.562496 455.436621 
L 284.6592 454.138951 
L 284.723712 454.184621 
L 284.917248 453.870834 
L 284.949504 453.934221 
L 285.110784 453.599961 
L 285.14304 453.779886 
L 285.175296 453.534605 
L 285.497856 453.186564 
L 285.530112 453.375939 
L 285.562368 453.124358 
L 285.594624 453.079475 
L 285.62688 453.234203 
L 285.659136 453.002308 
L 285.852672 452.808602 
L 285.884928 452.910179 
L 285.917184 452.96963 
L 286.046208 452.639306 
L 286.723584 452.135751 
L 287.110656 451.522743 
L 287.40096 451.142812 
L 287.433216 451.273524 
L 287.465472 451.065251 
L 287.497728 451.038873 
L 287.529984 451.28691 
L 287.56224 451.157773 
L 287.691264 450.849104 
L 287.820288 450.67154 
L 287.852544 450.961705 
L 287.917056 450.582956 
L 287.981568 450.508938 
L 288.013824 450.788079 
L 288.078336 450.480197 
L 288.142848 450.550278 
L 288.239616 450.26405 
L 288.271872 450.520749 
L 288.336384 450.168772 
L 288.562176 449.980972 
L 288.626688 450.13255 
L 288.658944 449.981759 
L 288.6912 449.968373 
L 288.723456 450.080187 
L 288.755712 449.919947 
L 288.787968 449.958924 
L 289.787904 448.81047 
L 290.045952 448.415972 
L 290.239488 448.195888 
L 290.271744 448.509675 
L 290.368512 448.376207 
L 290.497536 447.87147 
L 290.62656 448.164784 
L 290.755584 447.665166 
L 291.013632 447.431695 
L 291.497472 447.100584 
L 291.529728 447.275786 
L 291.59424 447.217123 
L 291.75552 447.0057 
L 292.013568 446.865933 
L 292.56192 446.32025 
L 292.690944 446.114733 
L 292.852224 445.670627 
L 293.04576 445.423377 
L 293.078016 445.774567 
L 293.142528 445.309988 
L 293.336064 445.130456 
L 293.36832 445.51393 
L 293.432832 445.029272 
L 293.465088 445.422196 
L 293.594112 444.857615 
L 293.658624 445.102503 
L 293.69088 444.774935 
L 293.755392 445.175733 
L 293.884416 444.667059 
L 294.077952 444.522173 
L 294.110208 444.708005 
L 294.17472 444.442644 
L 294.206976 444.681232 
L 294.368256 444.357208 
L 295.335936 443.829636 
L 296.045568 442.863076 
L 296.11008 442.680394 
L 296.142336 443.03749 
L 296.174592 442.563423 
L 296.335872 442.372237 
L 296.368128 442.618464 
L 296.400384 442.298574 
L 296.464896 442.579053 
L 296.59392 442.118176 
L 296.722944 441.991361 
L 296.7552 442.45157 
L 296.819712 442.168925 
L 296.884224 442.072151 
L 296.948736 442.196642 
L 297.110016 441.700409 
L 297.206784 441.635289 
L 297.23904 442.022898 
L 297.303552 441.692456 
L 297.335808 441.704464 
L 297.368064 441.527885 
L 297.40032 441.541744 
L 297.432576 441.851437 
L 297.464832 441.483711 
L 297.497088 441.504499 
L 297.529344 441.700449 
L 297.593856 441.486821 
L 297.626112 441.59269 
L 297.690624 441.479104 
L 297.916416 441.397016 
L 299.206656 440.148008 
L 299.303424 439.474211 
L 299.400192 439.732919 
L 299.432448 439.80355 
L 299.464704 439.665988 
L 299.49696 439.632365 
L 299.529216 439.279206 
L 299.625984 439.354523 
L 299.690496 439.063614 
L 299.755008 439.149991 
L 299.787264 439.216921 
L 299.81952 439.092013 
L 299.884032 438.684981 
L 299.916288 438.717373 
L 299.948544 439.010038 
L 299.9808 438.680415 
L 300.013056 438.71716 
L 300.109824 438.739653 
L 300.14208 438.686507 
L 300.94848 437.266676 
L 301.012992 436.847531 
L 301.077504 436.881508 
L 301.10976 437.000645 
L 301.238784 436.122159 
L 301.27104 436.142474 
L 301.335552 436.092591 
L 301.367808 436.409331 
L 301.43232 436.152041 
L 301.496832 436.20594 
L 301.529088 436.096764 
L 301.561344 436.173931 
L 301.625856 436.068102 
L 302.012928 435.367573 
L 302.625792 434.022303 
L 302.754816 433.416775 
L 302.851584 433.803006 
L 302.948352 433.580559 
L 303.174144 433.128973 
L 304.045056 431.523814 
L 304.141824 430.701747 
L 304.17408 430.86868 
L 304.206336 431.121836 
L 304.270848 430.882066 
L 304.33536 430.932855 
L 304.367616 430.850569 
L 308.109312 423.487785 
L 308.36736 422.944858 
L 308.496384 422.50469 
L 308.560896 422.659812 
L 308.593152 422.618472 
L 308.947968 421.846799 
L 309.851136 419.960531 
L 309.883392 420.184159 
L 309.915648 419.65265 
L 310.012416 419.787692 
L 310.109184 419.791629 
L 310.367232 419.334531 
L 310.94784 418.223086 
L 311.399424 417.540785 
L 311.43168 416.936046 
L 311.496192 417.252195 
L 311.528448 417.366372 
L 311.560704 417.031717 
L 311.657472 417.176603 
L 311.947776 416.680921 
L 312.205824 416.227367 
L 313.076736 414.925365 
L 313.108992 414.963161 
L 313.141248 414.887569 
L 314.850816 412.214273 
L 314.883072 412.253251 
L 315.14112 411.909148 
L 317.205504 409.226009 
L 318.657024 407.32478 
L 319.592448 404.580223 
L 325.721088 392.411413 
L 328.36608 387.478218 
L 329.591808 385.328557 
L 330.688512 383.426935 
L 333.52704 378.79296 
L 333.978624 378.072469 
L 334.720512 376.926771 
L 334.752768 377.580331 
L 335.043072 437.38286 
L 336.655872 437.437034 
L 338.978304 437.397033 
L 341.687808 437.421522 
L 344.397312 437.594676 
L 345.074688 438.204691 
L 345.881088 438.609587 
L 346.881024 438.864105 
L 348.590592 439.025661 
L 352.041984 439.072579 
L 388.975104 438.988774 
L 415.328256 438.838861 
L 415.360512 439.0347 
L 415.392768 438.598678 
L 415.586304 433.794738 
L 415.973376 431.948235 
L 416.134656 429.563135 
L 416.295936 423.177935 
L 416.489472 405.54442 
L 416.715264 387.076633 
L 416.876544 386.9034 
L 417.263616 386.974268 
L 417.973248 387.072696 
L 418.328064 387.131752 
L 419.134464 387.23018 
L 419.48928 387.289237 
L 420.392448 387.387664 
L 420.747264 387.446721 
L 421.650432 387.545149 
L 422.005248 387.604205 
L 422.908416 387.702633 
L 423.19872 387.722318 
L 423.972864 387.820746 
L 424.32768 387.879803 
L 425.327616 387.97823 
L 425.61792 387.997916 
L 426.392064 388.096344 
L 426.682368 388.116029 
L 427.55328 388.214457 
L 427.843584 388.234142 
L 428.714496 388.33257 
L 429.0048 388.352256 
L 429.875712 388.450683 
L 430.166016 388.470369 
L 431.133696 388.568796 
L 431.424 388.588482 
L 432.488448 388.68691 
L 432.778752 388.706595 
L 433.8432 388.805023 
L 434.133504 388.824708 
L 435.29472 388.923136 
L 435.585024 388.942822 
L 436.74624 389.041249 
L 437.036544 389.060935 
L 438.391296 389.159362 
L 438.6816 389.179048 
L 440.036352 389.277476 
L 440.326656 389.297161 
L 441.778176 389.395589 
L 442.036224 389.411337 
L 443.616768 389.513702 
L 443.874816 389.529451 
L 445.552128 389.631815 
L 445.810176 389.647564 
L 447.681024 389.749929 
L 447.939072 389.765677 
L 449.906688 389.868042 
L 450.164736 389.88379 
L 452.325888 389.986155 
L 452.583936 390.001903 
L 454.938624 390.104268 
L 455.196672 390.120017 
L 457.841664 390.222381 
L 458.131968 390.242067 
L 460.93824 390.340495 
L 461.196288 390.356243 
L 464.421888 390.458608 
L 464.679936 390.474356 
L 468.389376 390.576721 
L 468.744192 390.592469 
L 472.840704 390.694834 
L 473.19552 390.710583 
L 478.066176 390.812947 
L 478.420992 390.828696 
L 484.356096 390.931061 
L 484.710912 390.946809 
L 492.291072 391.049174 
L 492.54912 391.064922 
L 495.968256 391.060985 
L 496.000512 391.261778 
L 496.065024 391.060985 
L 496.25856 391.0413 
L 497.355264 391.064922 
L 576.608256 391.060985 
L 576.640512 391.25784 
L 576.705024 391.045237 
L 577.05984 391.057048 
L 657.248256 391.060985 
L 657.280512 391.261778 
L 657.345024 391.060985 
L 657.53856 391.0413 
L 658.635264 391.064922 
L 737.888256 391.060985 
L 737.920512 391.261778 
L 737.985024 391.060985 
L 738.17856 391.0413 
L 739.275264 391.064922 
L 818.528256 391.060985 
L 818.560512 391.261778 
L 818.625024 391.060985 
L 818.81856 391.0413 
L 819.915264 391.064922 
L 899.168256 391.060985 
L 899.200512 391.261778 
L 899.265024 391.060985 
L 899.45856 391.0413 
L 900.555264 391.064922 
L 947.52 391.064922 
L 947.52 391.064922 
" clip-path="url(#pea904a240d)" style="fill: none; stroke: #ff00ff; stroke-width: 2; stroke-linecap: square"/>
   </g>
   <g id="patch_22">
    <path d="M 100.8 465.442759 
L 100.8 372.711724 
" style="fill: none; stroke: #bcbcbc; stroke-width: 0.8; stroke-linejoin: miter; stroke-linecap: square"/>
   </g>
   <g id="patch_23">
    <path d="M 987.84 465.442759 
L 987.84 372.711724 
" style="fill: none; stroke: #bcbcbc; stroke-width: 0.8; stroke-linejoin: miter; stroke-linecap: square"/>
   </g>
   <g id="patch_24">
    <path d="M 100.8 465.442759 
L 987.84 465.442759 
" style="fill: none; stroke: #bcbcbc; stroke-width: 0.8; stroke-linejoin: miter; stroke-linecap: square"/>
   </g>
   <g id="patch_25">
    <path d="M 100.8 372.711724 
L 987.84 372.711724 
" style="fill: none; stroke: #bcbcbc; stroke-width: 0.8; stroke-linejoin: miter; stroke-linecap: square"/>
   </g>
  </g>
  <g id="axes_5">
   <g id="patch_26">
    <path d="M 100.8 576.72 
L 987.84 576.72 
L 987.84 483.988966 
L 100.8 483.988966 
z
" style="fill: #eeeeee"/>
   </g>
   <g id="matplotlib.axis_9">
    <g id="xtick_25">
     <g id="line2d_71">
      <path d="M 141.12 576.72 
L 141.12 483.988966 
" clip-path="url(#p5cfd2eec8b)" style="fill: none; stroke-dasharray: 1.85,0.8; stroke-dashoffset: 0; stroke: #b2b2b2; stroke-width: 0.5"/>
     </g>
     <g id="line2d_72">
      <g>
       <use xlink:href="#m6d870f4d9e" x="141.12" y="576.72" style="stroke: #000000; stroke-width: 0.8"/>
      </g>
     </g>
     <g id="text_14">
      <!-- 0 s -->
      <g transform="translate(130.795 590.857813) scale(0.14 -0.14)">
       <defs>
        <path id="DejaVuSans-73" d="M 2834 3397 
L 2834 2853 
Q 2591 2978 2328 3040 
Q 2066 3103 1784 3103 
Q 1356 3103 1142 2972 
Q 928 2841 928 2578 
Q 928 2378 1081 2264 
Q 1234 2150 1697 2047 
L 1894 2003 
Q 2506 1872 2764 1633 
Q 3022 1394 3022 966 
Q 3022 478 2636 193 
Q 2250 -91 1575 -91 
Q 1294 -91 989 -36 
Q 684 19 347 128 
L 347 722 
Q 666 556 975 473 
Q 1284 391 1588 391 
Q 1994 391 2212 530 
Q 2431 669 2431 922 
Q 2431 1156 2273 1281 
Q 2116 1406 1581 1522 
L 1381 1569 
Q 847 1681 609 1914 
Q 372 2147 372 2553 
Q 372 3047 722 3315 
Q 1072 3584 1716 3584 
Q 2034 3584 2315 3537 
Q 2597 3491 2834 3397 
z
" transform="scale(0.015625)"/>
       </defs>
       <use xlink:href="#DejaVuSans-30"/>
       <use xlink:href="#DejaVuSans-20" x="63.623047"/>
       <use xlink:href="#DejaVuSans-73" x="95.410156"/>
      </g>
     </g>
    </g>
    <g id="xtick_26">
     <g id="line2d_73">
      <path d="M 302.4 576.72 
L 302.4 483.988966 
" clip-path="url(#p5cfd2eec8b)" style="fill: none; stroke-dasharray: 1.85,0.8; stroke-dashoffset: 0; stroke: #b2b2b2; stroke-width: 0.5"/>
     </g>
     <g id="line2d_74">
      <g>
       <use xlink:href="#m6d870f4d9e" x="302.4" y="576.72" style="stroke: #000000; stroke-width: 0.8"/>
      </g>
     </g>
     <g id="text_15">
      <!-- 50 ns -->
      <g transform="translate(283.185 590.857813) scale(0.14 -0.14)">
       <defs>
        <path id="DejaVuSans-35" d="M 691 4666 
L 3169 4666 
L 3169 4134 
L 1269 4134 
L 1269 2991 
Q 1406 3038 1543 3061 
Q 1681 3084 1819 3084 
Q 2600 3084 3056 2656 
Q 3513 2228 3513 1497 
Q 3513 744 3044 326 
Q 2575 -91 1722 -91 
Q 1428 -91 1123 -41 
Q 819 9 494 109 
L 494 744 
Q 775 591 1075 516 
Q 1375 441 1709 441 
Q 2250 441 2565 725 
Q 2881 1009 2881 1497 
Q 2881 1984 2565 2268 
Q 2250 2553 1709 2553 
Q 1456 2553 1204 2497 
Q 953 2441 691 2322 
L 691 4666 
z
" transform="scale(0.015625)"/>
        <path id="DejaVuSans-6e" d="M 3513 2113 
L 3513 0 
L 2938 0 
L 2938 2094 
Q 2938 2591 2744 2837 
Q 2550 3084 2163 3084 
Q 1697 3084 1428 2787 
Q 1159 2491 1159 1978 
L 1159 0 
L 581 0 
L 581 3500 
L 1159 3500 
L 1159 2956 
Q 1366 3272 1645 3428 
Q 1925 3584 2291 3584 
Q 2894 3584 3203 3211 
Q 3513 2838 3513 2113 
z
" transform="scale(0.015625)"/>
       </defs>
       <use xlink:href="#DejaVuSans-35"/>
       <use xlink:href="#DejaVuSans-30" x="63.623047"/>
       <use xlink:href="#DejaVuSans-20" x="127.246094"/>
       <use xlink:href="#DejaVuSans-6e" x="159.033203"/>
       <use xlink:href="#DejaVuSans-73" x="222.412109"/>
      </g>
     </g>
    </g>
    <g id="xtick_27">
     <g id="line2d_75">
      <path d="M 463.68 576.72 
L 463.68 483.988966 
" clip-path="url(#p5cfd2eec8b)" style="fill: none; stroke-dasharray: 1.85,0.8; stroke-dashoffset: 0; stroke: #b2b2b2; stroke-width: 0.5"/>
     </g>
     <g id="line2d_76">
      <g>
       <use xlink:href="#m6d870f4d9e" x="463.68" y="576.72" style="stroke: #000000; stroke-width: 0.8"/>
      </g>
     </g>
     <g id="text_16">
      <!-- 100 ns -->
      <g transform="translate(440.01125 590.857813) scale(0.14 -0.14)">
       <use xlink:href="#DejaVuSans-31"/>
       <use xlink:href="#DejaVuSans-30" x="63.623047"/>
       <use xlink:href="#DejaVuSans-30" x="127.246094"/>
       <use xlink:href="#DejaVuSans-20" x="190.869141"/>
       <use xlink:href="#DejaVuSans-6e" x="222.65625"/>
       <use xlink:href="#DejaVuSans-73" x="286.035156"/>
      </g>
     </g>
    </g>
    <g id="xtick_28">
     <g id="line2d_77">
      <path d="M 624.96 576.72 
L 624.96 483.988966 
" clip-path="url(#p5cfd2eec8b)" style="fill: none; stroke-dasharray: 1.85,0.8; stroke-dashoffset: 0; stroke: #b2b2b2; stroke-width: 0.5"/>
     </g>
     <g id="line2d_78">
      <g>
       <use xlink:href="#m6d870f4d9e" x="624.96" y="576.72" style="stroke: #000000; stroke-width: 0.8"/>
      </g>
     </g>
     <g id="text_17">
      <!-- 150 ns -->
      <g transform="translate(601.29125 590.857813) scale(0.14 -0.14)">
       <use xlink:href="#DejaVuSans-31"/>
       <use xlink:href="#DejaVuSans-35" x="63.623047"/>
       <use xlink:href="#DejaVuSans-30" x="127.246094"/>
       <use xlink:href="#DejaVuSans-20" x="190.869141"/>
       <use xlink:href="#DejaVuSans-6e" x="222.65625"/>
       <use xlink:href="#DejaVuSans-73" x="286.035156"/>
      </g>
     </g>
    </g>
    <g id="xtick_29">
     <g id="line2d_79">
      <path d="M 786.24 576.72 
L 786.24 483.988966 
" clip-path="url(#p5cfd2eec8b)" style="fill: none; stroke-dasharray: 1.85,0.8; stroke-dashoffset: 0; stroke: #b2b2b2; stroke-width: 0.5"/>
     </g>
     <g id="line2d_80">
      <g>
       <use xlink:href="#m6d870f4d9e" x="786.24" y="576.72" style="stroke: #000000; stroke-width: 0.8"/>
      </g>
     </g>
     <g id="text_18">
      <!-- 200 ns -->
      <g transform="translate(762.57125 590.857813) scale(0.14 -0.14)">
       <use xlink:href="#DejaVuSans-32"/>
       <use xlink:href="#DejaVuSans-30" x="63.623047"/>
       <use xlink:href="#DejaVuSans-30" x="127.246094"/>
       <use xlink:href="#DejaVuSans-20" x="190.869141"/>
       <use xlink:href="#DejaVuSans-6e" x="222.65625"/>
       <use xlink:href="#DejaVuSans-73" x="286.035156"/>
      </g>
     </g>
    </g>
    <g id="xtick_30">
     <g id="line2d_81">
      <path d="M 947.52 576.72 
L 947.52 483.988966 
" clip-path="url(#p5cfd2eec8b)" style="fill: none; stroke-dasharray: 1.85,0.8; stroke-dashoffset: 0; stroke: #b2b2b2; stroke-width: 0.5"/>
     </g>
     <g id="line2d_82">
      <g>
       <use xlink:href="#m6d870f4d9e" x="947.52" y="576.72" style="stroke: #000000; stroke-width: 0.8"/>
      </g>
     </g>
     <g id="text_19">
      <!-- 250 ns -->
      <g transform="translate(923.85125 590.857813) scale(0.14 -0.14)">
       <use xlink:href="#DejaVuSans-32"/>
       <use xlink:href="#DejaVuSans-35" x="63.623047"/>
       <use xlink:href="#DejaVuSans-30" x="127.246094"/>
       <use xlink:href="#DejaVuSans-20" x="190.869141"/>
       <use xlink:href="#DejaVuSans-6e" x="222.65625"/>
       <use xlink:href="#DejaVuSans-73" x="286.035156"/>
      </g>
     </g>
    </g>
    <g id="text_20">
     <!-- Time -->
     <g transform="translate(527.192969 608.407187) scale(0.14 -0.14)">
      <defs>
       <path id="DejaVuSans-69" d="M 603 3500 
L 1178 3500 
L 1178 0 
L 603 0 
L 603 3500 
z
M 603 4863 
L 1178 4863 
L 1178 4134 
L 603 4134 
L 603 4863 
z
" transform="scale(0.015625)"/>
       <path id="DejaVuSans-6d" d="M 3328 2828 
Q 3544 3216 3844 3400 
Q 4144 3584 4550 3584 
Q 5097 3584 5394 3201 
Q 5691 2819 5691 2113 
L 5691 0 
L 5113 0 
L 5113 2094 
Q 5113 2597 4934 2840 
Q 4756 3084 4391 3084 
Q 3944 3084 3684 2787 
Q 3425 2491 3425 1978 
L 3425 0 
L 2847 0 
L 2847 2094 
Q 2847 2600 2669 2842 
Q 2491 3084 2119 3084 
Q 1678 3084 1418 2786 
Q 1159 2488 1159 1978 
L 1159 0 
L 581 0 
L 581 3500 
L 1159 3500 
L 1159 2956 
Q 1356 3278 1631 3431 
Q 1906 3584 2284 3584 
Q 2666 3584 2933 3390 
Q 3200 3197 3328 2828 
z
" transform="scale(0.015625)"/>
       <path id="DejaVuSans-65" d="M 3597 1894 
L 3597 1613 
L 953 1613 
Q 991 1019 1311 708 
Q 1631 397 2203 397 
Q 2534 397 2845 478 
Q 3156 559 3463 722 
L 3463 178 
Q 3153 47 2828 -22 
Q 2503 -91 2169 -91 
Q 1331 -91 842 396 
Q 353 884 353 1716 
Q 353 2575 817 3079 
Q 1281 3584 2069 3584 
Q 2775 3584 3186 3129 
Q 3597 2675 3597 1894 
z
M 3022 2063 
Q 3016 2534 2758 2815 
Q 2500 3097 2075 3097 
Q 1594 3097 1305 2825 
Q 1016 2553 972 2059 
L 3022 2063 
z
" transform="scale(0.015625)"/>
      </defs>
      <use xlink:href="#DejaVuSans-54"/>
      <use xlink:href="#DejaVuSans-69" x="57.958984"/>
      <use xlink:href="#DejaVuSans-6d" x="85.742188"/>
      <use xlink:href="#DejaVuSans-65" x="183.154297"/>
     </g>
    </g>
   </g>
   <g id="matplotlib.axis_10">
    <g id="ytick_10">
     <g id="line2d_83">
      <path d="M 100.8 569.74101 
L 987.84 569.74101 
" clip-path="url(#p5cfd2eec8b)" style="fill: none; stroke-dasharray: 1.85,0.8; stroke-dashoffset: 0; stroke: #b2b2b2; stroke-width: 0.5"/>
     </g>
     <g id="line2d_84">
      <g>
       <use xlink:href="#m8766ffc532" x="100.8" y="569.74101" style="stroke: #000000; stroke-width: 0.8"/>
      </g>
     </g>
     <g id="text_21">
      <!-- 0 V -->
      <g transform="translate(74.36625 575.059916) scale(0.14 -0.14)">
       <use xlink:href="#DejaVuSans-30"/>
       <use xlink:href="#DejaVuSans-20" x="63.623047"/>
       <use xlink:href="#DejaVuSans-56" x="95.410156"/>
      </g>
     </g>
    </g>
    <g id="ytick_11">
     <g id="line2d_85">
      <path d="M 100.8 535.885754 
L 987.84 535.885754 
" clip-path="url(#p5cfd2eec8b)" style="fill: none; stroke-dasharray: 1.85,0.8; stroke-dashoffset: 0; stroke: #b2b2b2; stroke-width: 0.5"/>
     </g>
     <g id="line2d_86">
      <g>
       <use xlink:href="#m8766ffc532" x="100.8" y="535.885754" style="stroke: #000000; stroke-width: 0.8"/>
      </g>
     </g>
     <g id="text_22">
      <!-- 500 mV -->
      <g transform="translate(42.914375 541.204661) scale(0.14 -0.14)">
       <use xlink:href="#DejaVuSans-35"/>
       <use xlink:href="#DejaVuSans-30" x="63.623047"/>
       <use xlink:href="#DejaVuSans-30" x="127.246094"/>
       <use xlink:href="#DejaVuSans-20" x="190.869141"/>
       <use xlink:href="#DejaVuSans-6d" x="222.65625"/>
       <use xlink:href="#DejaVuSans-56" x="320.068359"/>
      </g>
     </g>
    </g>
    <g id="ytick_12">
     <g id="line2d_87">
      <path d="M 100.8 502.030499 
L 987.84 502.030499 
" clip-path="url(#p5cfd2eec8b)" style="fill: none; stroke-dasharray: 1.85,0.8; stroke-dashoffset: 0; stroke: #b2b2b2; stroke-width: 0.5"/>
     </g>
     <g id="line2d_88">
      <g>
       <use xlink:href="#m8766ffc532" x="100.8" y="502.030499" style="stroke: #000000; stroke-width: 0.8"/>
      </g>
     </g>
     <g id="text_23">
      <!-- 1 V -->
      <g transform="translate(74.36625 507.349405) scale(0.14 -0.14)">
       <use xlink:href="#DejaVuSans-31"/>
       <use xlink:href="#DejaVuSans-20" x="63.623047"/>
       <use xlink:href="#DejaVuSans-56" x="95.410156"/>
      </g>
     </g>
    </g>
    <g id="text_24">
     <g id="patch_27">
      <path d="M 34.8768 554.329483 
L 34.8768 506.379483 
L 11.247425 506.379483 
L 11.247425 554.329483 
z
" style="fill: #ffff00; opacity: 0.2; stroke: #eeeeee; stroke-width: 0.5; stroke-linejoin: miter"/>
     </g>
     <!-- FOUT -->
     <g transform="translate(26.925238 549.289483) rotate(-90) scale(0.14 -0.14)">
      <use xlink:href="#DejaVuSans-46"/>
      <use xlink:href="#DejaVuSans-4f" x="57.519531"/>
      <use xlink:href="#DejaVuSans-55" x="136.230469"/>
      <use xlink:href="#DejaVuSans-54" x="209.423828"/>
     </g>
    </g>
   </g>
   <g id="line2d_89">
    <path d="M 141.12 488.488397 
L 173.472768 488.495168 
L 173.505024 488.298807 
L 173.569536 526.708949 
L 173.69856 572.504953 
L 173.730816 572.369261 
L 173.827584 567.833876 
L 173.892096 569.355344 
L 174.053376 570.059879 
L 174.117888 569.942144 
L 174.408192 569.48673 
L 174.440448 569.536274 
L 174.66624 569.725051 
L 176.182272 569.735265 
L 180.117504 569.756602 
L 193.503744 569.747692 
L 212.921856 569.739132 
L 255.822336 569.810637 
L 255.854592 568.088603 
L 255.95136 515.470358 
L 256.11264 488.603505 
L 256.27392 488.488397 
L 265.402368 488.440999 
L 265.46688 488.204013 
L 265.499136 489.050394 
L 265.563648 521.148562 
L 265.692672 570.008609 
L 265.724928 569.766286 
L 265.95072 569.738611 
L 277.627392 569.739352 
L 311.980032 569.819811 
L 312.012288 569.855651 
L 312.0768 567.346834 
L 312.431616 488.495168 
L 334.81728 488.488397 
L 334.881792 488.264952 
L 335.043072 569.755883 
L 335.075328 569.732169 
L 335.720448 569.739318 
L 416.42496 569.822486 
L 416.457216 569.984192 
L 416.779776 488.495168 
L 947.52 488.488397 
L 947.52 488.488397 
" clip-path="url(#p5cfd2eec8b)" style="fill: none; stroke: #ff00ff; stroke-width: 2; stroke-linecap: square"/>
   </g>
   <g id="patch_28">
    <path d="M 100.8 576.72 
L 100.8 483.988966 
" style="fill: none; stroke: #bcbcbc; stroke-width: 0.8; stroke-linejoin: miter; stroke-linecap: square"/>
   </g>
   <g id="patch_29">
    <path d="M 987.84 576.72 
L 987.84 483.988966 
" style="fill: none; stroke: #bcbcbc; stroke-width: 0.8; stroke-linejoin: miter; stroke-linecap: square"/>
   </g>
   <g id="patch_30">
    <path d="M 100.8 576.72 
L 987.84 576.72 
" style="fill: none; stroke: #bcbcbc; stroke-width: 0.8; stroke-linejoin: miter; stroke-linecap: square"/>
   </g>
   <g id="patch_31">
    <path d="M 100.8 483.988966 
L 987.84 483.988966 
" style="fill: none; stroke: #bcbcbc; stroke-width: 0.8; stroke-linejoin: miter; stroke-linecap: square"/>
   </g>
  </g>
  <g id="axes_6">
   <g id="patch_32">
    <path d="M 201.6 628.56 
L 856.8 628.56 
L 856.8 615.6 
L 201.6 615.6 
z
" clip-path="url(#p38a02095ab)" style="fill: #d3d3d3"/>
   </g>
   <g id="patch_33">
    <path d="M 201.6 628.56 
L 290.52 628.56 
L 290.52 615.6 
L 201.6 615.6 
z
" clip-path="url(#p38a02095ab)" style="fill: #0000ff"/>
   </g>
   <g id="line2d_90">
    <path d="M 201.6 635.04 
L 201.6 609.12 
" clip-path="url(#pdc48f46d8a)" style="fill: none; stroke: #ff0000; stroke-linecap: square"/>
   </g>
   <g id="line2d_91">
    <defs>
     <path id="m9a4163de8a" d="M 0 5 
C 1.326016 5 2.597899 4.473168 3.535534 3.535534 
C 4.473168 2.597899 5 1.326016 5 0 
C 5 -1.326016 4.473168 -2.597899 3.535534 -3.535534 
C 2.597899 -4.473168 1.326016 -5 0 -5 
C -1.326016 -5 -2.597899 -4.473168 -3.535534 -3.535534 
C -4.473168 -2.597899 -5 -1.326016 -5 0 
C -5 1.326016 -4.473168 2.597899 -3.535534 3.535534 
C -2.597899 4.473168 -1.326016 5 0 5 
z
" style="stroke: #bfbfbf"/>
    </defs>
    <g>
     <use xlink:href="#m9a4163de8a" x="290.52" y="622.08" style="fill: #ffffff; stroke: #bfbfbf"/>
    </g>
   </g>
   <g id="text_25">
    <!-- #Sweep -->
    <g transform="translate(138.622875 625.39125) scale(0.12 -0.12)">
     <defs>
      <path id="DejaVuSans-23" d="M 3272 2816 
L 2363 2816 
L 2100 1772 
L 3016 1772 
L 3272 2816 
z
M 2803 4594 
L 2478 3297 
L 3391 3297 
L 3719 4594 
L 4219 4594 
L 3897 3297 
L 4872 3297 
L 4872 2816 
L 3775 2816 
L 3519 1772 
L 4513 1772 
L 4513 1294 
L 3397 1294 
L 3072 0 
L 2572 0 
L 2894 1294 
L 1978 1294 
L 1656 0 
L 1153 0 
L 1478 1294 
L 494 1294 
L 494 1772 
L 1594 1772 
L 1856 2816 
L 850 2816 
L 850 3297 
L 1978 3297 
L 2297 4594 
L 2803 4594 
z
" transform="scale(0.015625)"/>
      <path id="DejaVuSans-77" d="M 269 3500 
L 844 3500 
L 1563 769 
L 2278 3500 
L 2956 3500 
L 3675 769 
L 4391 3500 
L 4966 3500 
L 4050 0 
L 3372 0 
L 2619 2869 
L 1863 0 
L 1184 0 
L 269 3500 
z
" transform="scale(0.015625)"/>
      <path id="DejaVuSans-70" d="M 1159 525 
L 1159 -1331 
L 581 -1331 
L 581 3500 
L 1159 3500 
L 1159 2969 
Q 1341 3281 1617 3432 
Q 1894 3584 2278 3584 
Q 2916 3584 3314 3078 
Q 3713 2572 3713 1747 
Q 3713 922 3314 415 
Q 2916 -91 2278 -91 
Q 1894 -91 1617 61 
Q 1341 213 1159 525 
z
M 3116 1747 
Q 3116 2381 2855 2742 
Q 2594 3103 2138 3103 
Q 1681 3103 1420 2742 
Q 1159 2381 1159 1747 
Q 1159 1113 1420 752 
Q 1681 391 2138 391 
Q 2594 391 2855 752 
Q 3116 1113 3116 1747 
z
" transform="scale(0.015625)"/>
     </defs>
     <use xlink:href="#DejaVuSans-23"/>
     <use xlink:href="#DejaVuSans-53" x="83.789062"/>
     <use xlink:href="#DejaVuSans-77" x="147.265625"/>
     <use xlink:href="#DejaVuSans-65" x="229.052734"/>
     <use xlink:href="#DejaVuSans-65" x="290.576172"/>
     <use xlink:href="#DejaVuSans-70" x="352.099609"/>
    </g>
   </g>
   <g id="text_26">
    <!-- $\mathdefault{19}$ -->
    <g transform="translate(869.904 625.39125) scale(0.12 -0.12)">
     <defs>
      <path id="DejaVuSans-39" d="M 703 97 
L 703 672 
Q 941 559 1184 500 
Q 1428 441 1663 441 
Q 2288 441 2617 861 
Q 2947 1281 2994 2138 
Q 2813 1869 2534 1725 
Q 2256 1581 1919 1581 
Q 1219 1581 811 2004 
Q 403 2428 403 3163 
Q 403 3881 828 4315 
Q 1253 4750 1959 4750 
Q 2769 4750 3195 4129 
Q 3622 3509 3622 2328 
Q 3622 1225 3098 567 
Q 2575 -91 1691 -91 
Q 1453 -91 1209 -44 
Q 966 3 703 97 
z
M 1959 2075 
Q 2384 2075 2632 2365 
Q 2881 2656 2881 3163 
Q 2881 3666 2632 3958 
Q 2384 4250 1959 4250 
Q 1534 4250 1286 3958 
Q 1038 3666 1038 3163 
Q 1038 2656 1286 2365 
Q 1534 2075 1959 2075 
z
" transform="scale(0.015625)"/>
     </defs>
     <use xlink:href="#DejaVuSans-31" transform="translate(0 0.78125)"/>
     <use xlink:href="#DejaVuSans-39" transform="translate(63.623047 0.78125)"/>
    </g>
   </g>
  </g>
  <g id="text_27">
   <!-- DFF under BBI sweep analysis (Sweep = 29E-9) -->
   <g transform="translate(313.34625 25.1175) scale(0.16 -0.16)">
    <defs>
     <path id="DejaVuSans-75" d="M 544 1381 
L 544 3500 
L 1119 3500 
L 1119 1403 
Q 1119 906 1312 657 
Q 1506 409 1894 409 
Q 2359 409 2629 706 
Q 2900 1003 2900 1516 
L 2900 3500 
L 3475 3500 
L 3475 0 
L 2900 0 
L 2900 538 
Q 2691 219 2414 64 
Q 2138 -91 1772 -91 
Q 1169 -91 856 284 
Q 544 659 544 1381 
z
M 1991 3584 
L 1991 3584 
z
" transform="scale(0.015625)"/>
     <path id="DejaVuSans-64" d="M 2906 2969 
L 2906 4863 
L 3481 4863 
L 3481 0 
L 2906 0 
L 2906 525 
Q 2725 213 2448 61 
Q 2172 -91 1784 -91 
Q 1150 -91 751 415 
Q 353 922 353 1747 
Q 353 2572 751 3078 
Q 1150 3584 1784 3584 
Q 2172 3584 2448 3432 
Q 2725 3281 2906 2969 
z
M 947 1747 
Q 947 1113 1208 752 
Q 1469 391 1925 391 
Q 2381 391 2643 752 
Q 2906 1113 2906 1747 
Q 2906 2381 2643 2742 
Q 2381 3103 1925 3103 
Q 1469 3103 1208 2742 
Q 947 2381 947 1747 
z
" transform="scale(0.015625)"/>
     <path id="DejaVuSans-72" d="M 2631 2963 
Q 2534 3019 2420 3045 
Q 2306 3072 2169 3072 
Q 1681 3072 1420 2755 
Q 1159 2438 1159 1844 
L 1159 0 
L 581 0 
L 581 3500 
L 1159 3500 
L 1159 2956 
Q 1341 3275 1631 3429 
Q 1922 3584 2338 3584 
Q 2397 3584 2469 3576 
Q 2541 3569 2628 3553 
L 2631 2963 
z
" transform="scale(0.015625)"/>
     <path id="DejaVuSans-61" d="M 2194 1759 
Q 1497 1759 1228 1600 
Q 959 1441 959 1056 
Q 959 750 1161 570 
Q 1363 391 1709 391 
Q 2188 391 2477 730 
Q 2766 1069 2766 1631 
L 2766 1759 
L 2194 1759 
z
M 3341 1997 
L 3341 0 
L 2766 0 
L 2766 531 
Q 2569 213 2275 61 
Q 1981 -91 1556 -91 
Q 1019 -91 701 211 
Q 384 513 384 1019 
Q 384 1609 779 1909 
Q 1175 2209 1959 2209 
L 2766 2209 
L 2766 2266 
Q 2766 2663 2505 2880 
Q 2244 3097 1772 3097 
Q 1472 3097 1187 3025 
Q 903 2953 641 2809 
L 641 3341 
Q 956 3463 1253 3523 
Q 1550 3584 1831 3584 
Q 2591 3584 2966 3190 
Q 3341 2797 3341 1997 
z
" transform="scale(0.015625)"/>
     <path id="DejaVuSans-6c" d="M 603 4863 
L 1178 4863 
L 1178 0 
L 603 0 
L 603 4863 
z
" transform="scale(0.015625)"/>
     <path id="DejaVuSans-79" d="M 2059 -325 
Q 1816 -950 1584 -1140 
Q 1353 -1331 966 -1331 
L 506 -1331 
L 506 -850 
L 844 -850 
Q 1081 -850 1212 -737 
Q 1344 -625 1503 -206 
L 1606 56 
L 191 3500 
L 800 3500 
L 1894 763 
L 2988 3500 
L 3597 3500 
L 2059 -325 
z
" transform="scale(0.015625)"/>
     <path id="DejaVuSans-28" d="M 1984 4856 
Q 1566 4138 1362 3434 
Q 1159 2731 1159 2009 
Q 1159 1288 1364 580 
Q 1569 -128 1984 -844 
L 1484 -844 
Q 1016 -109 783 600 
Q 550 1309 550 2009 
Q 550 2706 781 3412 
Q 1013 4119 1484 4856 
L 1984 4856 
z
" transform="scale(0.015625)"/>
     <path id="DejaVuSans-3d" d="M 678 2906 
L 4684 2906 
L 4684 2381 
L 678 2381 
L 678 2906 
z
M 678 1631 
L 4684 1631 
L 4684 1100 
L 678 1100 
L 678 1631 
z
" transform="scale(0.015625)"/>
     <path id="DejaVuSans-2d" d="M 313 2009 
L 1997 2009 
L 1997 1497 
L 313 1497 
L 313 2009 
z
" transform="scale(0.015625)"/>
     <path id="DejaVuSans-29" d="M 513 4856 
L 1013 4856 
Q 1481 4119 1714 3412 
Q 1947 2706 1947 2009 
Q 1947 1309 1714 600 
Q 1481 -109 1013 -844 
L 513 -844 
Q 928 -128 1133 580 
Q 1338 1288 1338 2009 
Q 1338 2731 1133 3434 
Q 928 4138 513 4856 
z
" transform="scale(0.015625)"/>
    </defs>
    <use xlink:href="#DejaVuSans-44"/>
    <use xlink:href="#DejaVuSans-46" x="77.001953"/>
    <use xlink:href="#DejaVuSans-46" x="134.521484"/>
    <use xlink:href="#DejaVuSans-20" x="192.041016"/>
    <use xlink:href="#DejaVuSans-75" x="223.828125"/>
    <use xlink:href="#DejaVuSans-6e" x="287.207031"/>
    <use xlink:href="#DejaVuSans-64" x="350.585938"/>
    <use xlink:href="#DejaVuSans-65" x="414.0625"/>
    <use xlink:href="#DejaVuSans-72" x="475.585938"/>
    <use xlink:href="#DejaVuSans-20" x="516.699219"/>
    <use xlink:href="#DejaVuSans-42" x="548.486328"/>
    <use xlink:href="#DejaVuSans-42" x="617.089844"/>
    <use xlink:href="#DejaVuSans-49" x="685.693359"/>
    <use xlink:href="#DejaVuSans-20" x="715.185547"/>
    <use xlink:href="#DejaVuSans-73" x="746.972656"/>
    <use xlink:href="#DejaVuSans-77" x="799.072266"/>
    <use xlink:href="#DejaVuSans-65" x="880.859375"/>
    <use xlink:href="#DejaVuSans-65" x="942.382812"/>
    <use xlink:href="#DejaVuSans-70" x="1003.90625"/>
    <use xlink:href="#DejaVuSans-20" x="1067.382812"/>
    <use xlink:href="#DejaVuSans-61" x="1099.169922"/>
    <use xlink:href="#DejaVuSans-6e" x="1160.449219"/>
    <use xlink:href="#DejaVuSans-61" x="1223.828125"/>
    <use xlink:href="#DejaVuSans-6c" x="1285.107422"/>
    <use xlink:href="#DejaVuSans-79" x="1312.890625"/>
    <use xlink:href="#DejaVuSans-73" x="1372.070312"/>
    <use xlink:href="#DejaVuSans-69" x="1424.169922"/>
    <use xlink:href="#DejaVuSans-73" x="1451.953125"/>
    <use xlink:href="#DejaVuSans-20" x="1504.052734"/>
    <use xlink:href="#DejaVuSans-28" x="1535.839844"/>
    <use xlink:href="#DejaVuSans-53" x="1574.853516"/>
    <use xlink:href="#DejaVuSans-77" x="1638.330078"/>
    <use xlink:href="#DejaVuSans-65" x="1720.117188"/>
    <use xlink:href="#DejaVuSans-65" x="1781.640625"/>
    <use xlink:href="#DejaVuSans-70" x="1843.164062"/>
    <use xlink:href="#DejaVuSans-20" x="1906.640625"/>
    <use xlink:href="#DejaVuSans-3d" x="1938.427734"/>
    <use xlink:href="#DejaVuSans-20" x="2022.216797"/>
    <use xlink:href="#DejaVuSans-32" x="2054.003906"/>
    <use xlink:href="#DejaVuSans-39" x="2117.626953"/>
    <use xlink:href="#DejaVuSans-45" x="2181.25"/>
    <use xlink:href="#DejaVuSans-2d" x="2244.433594"/>
    <use xlink:href="#DejaVuSans-39" x="2280.517578"/>
    <use xlink:href="#DejaVuSans-29" x="2344.140625"/>
   </g>
  </g>
 </g>
 <defs>
  <clipPath id="p93d4e5a3f6">
   <rect x="100.8" y="38.88" width="887.04" height="92.731034"/>
  </clipPath>
  <clipPath id="pd4ebe042f3">
   <rect x="100.8" y="150.157241" width="887.04" height="92.731034"/>
  </clipPath>
  <clipPath id="pc518f9758f">
   <rect x="100.8" y="261.434483" width="887.04" height="92.731034"/>
  </clipPath>
  <clipPath id="pea904a240d">
   <rect x="100.8" y="372.711724" width="887.04" height="92.731034"/>
  </clipPath>
  <clipPath id="p5cfd2eec8b">
   <rect x="100.8" y="483.988966" width="887.04" height="92.731034"/>
  </clipPath>
  <clipPath id="p38a02095ab">
   <rect x="201.6" y="609.12" width="655.2" height="25.92"/>
  </clipPath>
  <clipPath id="pdc48f46d8a">
   <path d="M 201.6 628.56 
L 856.8 628.56 
L 856.8 615.6 
L 201.6 615.6 
z
"/>
  </clipPath>
 </defs>
</svg>
