<?xml version="1.0" encoding="utf-8" standalone="no"?>
<!DOCTYPE svg PUBLIC "-//W3C//DTD SVG 1.1//EN"
  "http://www.w3.org/Graphics/SVG/1.1/DTD/svg11.dtd">
<svg xmlns:xlink="http://www.w3.org/1999/xlink" width="1008pt" height="648pt" viewBox="0 0 1008 648" xmlns="http://www.w3.org/2000/svg" version="1.1">
 <metadata>
  <rdf:RDF xmlns:dc="http://purl.org/dc/elements/1.1/" xmlns:cc="http://creativecommons.org/ns#" xmlns:rdf="http://www.w3.org/1999/02/22-rdf-syntax-ns#">
   <cc:Work>
    <dc:type rdf:resource="http://purl.org/dc/dcmitype/StillImage"/>
    <dc:date>2024-06-03T10:45:51.255427</dc:date>
    <dc:format>image/svg+xml</dc:format>
    <dc:creator>
     <cc:Agent>
      <dc:title>Matplotlib v3.9.0, https://matplotlib.org/</dc:title>
     </cc:Agent>
    </dc:creator>
   </cc:Work>
  </rdf:RDF>
 </metadata>
 <defs>
  <style type="text/css">*{stroke-linejoin: round; stroke-linecap: butt}</style>
 </defs>
 <g id="figure_1">
  <g id="patch_1">
   <path d="M 0 648 
L 1008 648 
L 1008 0 
L 0 0 
z
" style="fill: #ffffff"/>
  </g>
  <g id="axes_1">
   <g id="patch_2">
    <path d="M 100.8 131.611034 
L 987.84 131.611034 
L 987.84 38.88 
L 100.8 38.88 
z
" style="fill: #eeeeee"/>
   </g>
   <g id="matplotlib.axis_1">
    <g id="xtick_1">
     <g id="line2d_1">
      <path d="M 141.12 131.611034 
L 141.12 38.88 
" clip-path="url(#pb3e98d5690)" style="fill: none; stroke-dasharray: 1.85,0.8; stroke-dashoffset: 0; stroke: #b2b2b2; stroke-width: 0.5"/>
     </g>
     <g id="line2d_2">
      <defs>
       <path id="mc613d3c5ab" d="M 0 0 
L 0 -3.5 
" style="stroke: #000000; stroke-width: 0.8"/>
      </defs>
      <g>
       <use xlink:href="#mc613d3c5ab" x="141.12" y="131.611034" style="stroke: #000000; stroke-width: 0.8"/>
      </g>
     </g>
    </g>
    <g id="xtick_2">
     <g id="line2d_3">
      <path d="M 302.4 131.611034 
L 302.4 38.88 
" clip-path="url(#pb3e98d5690)" style="fill: none; stroke-dasharray: 1.85,0.8; stroke-dashoffset: 0; stroke: #b2b2b2; stroke-width: 0.5"/>
     </g>
     <g id="line2d_4">
      <g>
       <use xlink:href="#mc613d3c5ab" x="302.4" y="131.611034" style="stroke: #000000; stroke-width: 0.8"/>
      </g>
     </g>
    </g>
    <g id="xtick_3">
     <g id="line2d_5">
      <path d="M 463.68 131.611034 
L 463.68 38.88 
" clip-path="url(#pb3e98d5690)" style="fill: none; stroke-dasharray: 1.85,0.8; stroke-dashoffset: 0; stroke: #b2b2b2; stroke-width: 0.5"/>
     </g>
     <g id="line2d_6">
      <g>
       <use xlink:href="#mc613d3c5ab" x="463.68" y="131.611034" style="stroke: #000000; stroke-width: 0.8"/>
      </g>
     </g>
    </g>
    <g id="xtick_4">
     <g id="line2d_7">
      <path d="M 624.96 131.611034 
L 624.96 38.88 
" clip-path="url(#pb3e98d5690)" style="fill: none; stroke-dasharray: 1.85,0.8; stroke-dashoffset: 0; stroke: #b2b2b2; stroke-width: 0.5"/>
     </g>
     <g id="line2d_8">
      <g>
       <use xlink:href="#mc613d3c5ab" x="624.96" y="131.611034" style="stroke: #000000; stroke-width: 0.8"/>
      </g>
     </g>
    </g>
    <g id="xtick_5">
     <g id="line2d_9">
      <path d="M 786.24 131.611034 
L 786.24 38.88 
" clip-path="url(#pb3e98d5690)" style="fill: none; stroke-dasharray: 1.85,0.8; stroke-dashoffset: 0; stroke: #b2b2b2; stroke-width: 0.5"/>
     </g>
     <g id="line2d_10">
      <g>
       <use xlink:href="#mc613d3c5ab" x="786.24" y="131.611034" style="stroke: #000000; stroke-width: 0.8"/>
      </g>
     </g>
    </g>
    <g id="xtick_6">
     <g id="line2d_11">
      <path d="M 947.52 131.611034 
L 947.52 38.88 
" clip-path="url(#pb3e98d5690)" style="fill: none; stroke-dasharray: 1.85,0.8; stroke-dashoffset: 0; stroke: #b2b2b2; stroke-width: 0.5"/>
     </g>
     <g id="line2d_12">
      <g>
       <use xlink:href="#mc613d3c5ab" x="947.52" y="131.611034" style="stroke: #000000; stroke-width: 0.8"/>
      </g>
     </g>
    </g>
   </g>
   <g id="matplotlib.axis_2">
    <g id="ytick_1">
     <g id="line2d_13">
      <path d="M 100.8 98.340394 
L 987.84 98.340394 
" clip-path="url(#pb3e98d5690)" style="fill: none; stroke-dasharray: 1.85,0.8; stroke-dashoffset: 0; stroke: #b2b2b2; stroke-width: 0.5"/>
     </g>
     <g id="line2d_14">
      <defs>
       <path id="m092e296823" d="M 0 0 
L 3.5 0 
" style="stroke: #000000; stroke-width: 0.8"/>
      </defs>
      <g>
       <use xlink:href="#m092e296823" x="100.8" y="98.340394" style="stroke: #000000; stroke-width: 0.8"/>
      </g>
     </g>
     <g id="text_1">
      <!-- −200 V -->
      <g transform="translate(44.819688 103.6593) scale(0.14 -0.14)">
       <defs>
        <path id="DejaVuSans-2212" d="M 678 2272 
L 4684 2272 
L 4684 1741 
L 678 1741 
L 678 2272 
z
" transform="scale(0.015625)"/>
        <path id="DejaVuSans-32" d="M 1228 531 
L 3431 531 
L 3431 0 
L 469 0 
L 469 531 
Q 828 903 1448 1529 
Q 2069 2156 2228 2338 
Q 2531 2678 2651 2914 
Q 2772 3150 2772 3378 
Q 2772 3750 2511 3984 
Q 2250 4219 1831 4219 
Q 1534 4219 1204 4116 
Q 875 4013 500 3803 
L 500 4441 
Q 881 4594 1212 4672 
Q 1544 4750 1819 4750 
Q 2544 4750 2975 4387 
Q 3406 4025 3406 3419 
Q 3406 3131 3298 2873 
Q 3191 2616 2906 2266 
Q 2828 2175 2409 1742 
Q 1991 1309 1228 531 
z
" transform="scale(0.015625)"/>
        <path id="DejaVuSans-30" d="M 2034 4250 
Q 1547 4250 1301 3770 
Q 1056 3291 1056 2328 
Q 1056 1369 1301 889 
Q 1547 409 2034 409 
Q 2525 409 2770 889 
Q 3016 1369 3016 2328 
Q 3016 3291 2770 3770 
Q 2525 4250 2034 4250 
z
M 2034 4750 
Q 2819 4750 3233 4129 
Q 3647 3509 3647 2328 
Q 3647 1150 3233 529 
Q 2819 -91 2034 -91 
Q 1250 -91 836 529 
Q 422 1150 422 2328 
Q 422 3509 836 4129 
Q 1250 4750 2034 4750 
z
" transform="scale(0.015625)"/>
        <path id="DejaVuSans-20" transform="scale(0.015625)"/>
        <path id="DejaVuSans-56" d="M 1831 0 
L 50 4666 
L 709 4666 
L 2188 738 
L 3669 4666 
L 4325 4666 
L 2547 0 
L 1831 0 
z
" transform="scale(0.015625)"/>
       </defs>
       <use xlink:href="#DejaVuSans-2212"/>
       <use xlink:href="#DejaVuSans-32" x="83.789062"/>
       <use xlink:href="#DejaVuSans-30" x="147.412109"/>
       <use xlink:href="#DejaVuSans-30" x="211.035156"/>
       <use xlink:href="#DejaVuSans-20" x="274.658203"/>
       <use xlink:href="#DejaVuSans-56" x="306.445312"/>
      </g>
     </g>
    </g>
    <g id="ytick_2">
     <g id="line2d_15">
      <path d="M 100.8 45.027377 
L 987.84 45.027377 
" clip-path="url(#pb3e98d5690)" style="fill: none; stroke-dasharray: 1.85,0.8; stroke-dashoffset: 0; stroke: #b2b2b2; stroke-width: 0.5"/>
     </g>
     <g id="line2d_16">
      <g>
       <use xlink:href="#m092e296823" x="100.8" y="45.027377" style="stroke: #000000; stroke-width: 0.8"/>
      </g>
     </g>
     <g id="text_2">
      <!-- 0 V -->
      <g transform="translate(74.36625 50.346284) scale(0.14 -0.14)">
       <use xlink:href="#DejaVuSans-30"/>
       <use xlink:href="#DejaVuSans-20" x="63.623047"/>
       <use xlink:href="#DejaVuSans-56" x="95.410156"/>
      </g>
     </g>
    </g>
    <g id="text_3">
     <g id="patch_3">
      <path d="M 34.8768 131.080205 
L 34.8768 39.41083 
L 11.247425 39.41083 
L 11.247425 131.080205 
z
" style="fill: #ffff00; opacity: 0.2; stroke: #eeeeee; stroke-width: 0.5; stroke-linejoin: miter"/>
     </g>
     <!-- VPULSE BBI -->
     <g transform="translate(26.925238 126.040205) rotate(-90) scale(0.14 -0.14)">
      <defs>
       <path id="DejaVuSans-50" d="M 1259 4147 
L 1259 2394 
L 2053 2394 
Q 2494 2394 2734 2622 
Q 2975 2850 2975 3272 
Q 2975 3691 2734 3919 
Q 2494 4147 2053 4147 
L 1259 4147 
z
M 628 4666 
L 2053 4666 
Q 2838 4666 3239 4311 
Q 3641 3956 3641 3272 
Q 3641 2581 3239 2228 
Q 2838 1875 2053 1875 
L 1259 1875 
L 1259 0 
L 628 0 
L 628 4666 
z
" transform="scale(0.015625)"/>
       <path id="DejaVuSans-55" d="M 556 4666 
L 1191 4666 
L 1191 1831 
Q 1191 1081 1462 751 
Q 1734 422 2344 422 
Q 2950 422 3222 751 
Q 3494 1081 3494 1831 
L 3494 4666 
L 4128 4666 
L 4128 1753 
Q 4128 841 3676 375 
Q 3225 -91 2344 -91 
Q 1459 -91 1007 375 
Q 556 841 556 1753 
L 556 4666 
z
" transform="scale(0.015625)"/>
       <path id="DejaVuSans-4c" d="M 628 4666 
L 1259 4666 
L 1259 531 
L 3531 531 
L 3531 0 
L 628 0 
L 628 4666 
z
" transform="scale(0.015625)"/>
       <path id="DejaVuSans-53" d="M 3425 4513 
L 3425 3897 
Q 3066 4069 2747 4153 
Q 2428 4238 2131 4238 
Q 1616 4238 1336 4038 
Q 1056 3838 1056 3469 
Q 1056 3159 1242 3001 
Q 1428 2844 1947 2747 
L 2328 2669 
Q 3034 2534 3370 2195 
Q 3706 1856 3706 1288 
Q 3706 609 3251 259 
Q 2797 -91 1919 -91 
Q 1588 -91 1214 -16 
Q 841 59 441 206 
L 441 856 
Q 825 641 1194 531 
Q 1563 422 1919 422 
Q 2459 422 2753 634 
Q 3047 847 3047 1241 
Q 3047 1584 2836 1778 
Q 2625 1972 2144 2069 
L 1759 2144 
Q 1053 2284 737 2584 
Q 422 2884 422 3419 
Q 422 4038 858 4394 
Q 1294 4750 2059 4750 
Q 2388 4750 2728 4690 
Q 3069 4631 3425 4513 
z
" transform="scale(0.015625)"/>
       <path id="DejaVuSans-45" d="M 628 4666 
L 3578 4666 
L 3578 4134 
L 1259 4134 
L 1259 2753 
L 3481 2753 
L 3481 2222 
L 1259 2222 
L 1259 531 
L 3634 531 
L 3634 0 
L 628 0 
L 628 4666 
z
" transform="scale(0.015625)"/>
       <path id="DejaVuSans-42" d="M 1259 2228 
L 1259 519 
L 2272 519 
Q 2781 519 3026 730 
Q 3272 941 3272 1375 
Q 3272 1813 3026 2020 
Q 2781 2228 2272 2228 
L 1259 2228 
z
M 1259 4147 
L 1259 2741 
L 2194 2741 
Q 2656 2741 2882 2914 
Q 3109 3088 3109 3444 
Q 3109 3797 2882 3972 
Q 2656 4147 2194 4147 
L 1259 4147 
z
M 628 4666 
L 2241 4666 
Q 2963 4666 3353 4366 
Q 3744 4066 3744 3513 
Q 3744 3084 3544 2831 
Q 3344 2578 2956 2516 
Q 3422 2416 3680 2098 
Q 3938 1781 3938 1306 
Q 3938 681 3513 340 
Q 3088 0 2303 0 
L 628 0 
L 628 4666 
z
" transform="scale(0.015625)"/>
       <path id="DejaVuSans-49" d="M 628 4666 
L 1259 4666 
L 1259 0 
L 628 0 
L 628 4666 
z
" transform="scale(0.015625)"/>
      </defs>
      <use xlink:href="#DejaVuSans-56"/>
      <use xlink:href="#DejaVuSans-50" x="68.408203"/>
      <use xlink:href="#DejaVuSans-55" x="128.710938"/>
      <use xlink:href="#DejaVuSans-4c" x="201.904297"/>
      <use xlink:href="#DejaVuSans-53" x="257.617188"/>
      <use xlink:href="#DejaVuSans-45" x="321.09375"/>
      <use xlink:href="#DejaVuSans-20" x="384.277344"/>
      <use xlink:href="#DejaVuSans-42" x="416.064453"/>
      <use xlink:href="#DejaVuSans-42" x="484.667969"/>
      <use xlink:href="#DejaVuSans-49" x="553.271484"/>
     </g>
    </g>
   </g>
   <g id="line2d_17">
    <path d="M 141.12 45.027377 
L 515.321856 45.136282 
L 515.805696 46.425538 
L 524.030976 69.006772 
L 531.449856 89.863624 
L 533.062656 94.440546 
L 534.868992 99.673219 
L 538.35264 110.807642 
L 539.933184 115.853719 
L 541.223424 119.585631 
L 541.675008 119.80688 
L 542.739456 120.297359 
L 543.223296 120.526605 
L 544.287744 121.017085 
L 544.868352 121.272988 
L 545.739264 121.656841 
L 546.319872 121.912744 
L 547.158528 122.269941 
L 548.739072 122.936354 
L 549.384192 123.202919 
L 550.480896 123.629423 
L 551.222784 123.922644 
L 552.319488 124.349149 
L 553.222656 124.677024 
L 553.900032 124.943589 
L 554.706432 125.25547 
L 556.061184 125.804594 
L 558.706176 126.790885 
L 559.31904 127.022796 
L 561.2544 127.395987 
L 579.737088 127.289361 
L 579.96288 126.801547 
L 598.252032 75.087922 
L 601.993728 63.292417 
L 605.703168 51.617666 
L 610.315776 49.3412 
L 615.670272 46.984578 
L 624.379392 43.484472 
L 625.250304 43.268927 
L 639.539712 43.108189 
L 646.345728 43.184799 
L 661.699584 43.746186 
L 689.472 44.46146 
L 715.11552 44.774399 
L 750.726144 44.945888 
L 798.755328 44.953885 
L 947.52 44.953885 
L 947.52 44.953885 
" clip-path="url(#pb3e98d5690)" style="fill: none; stroke: #ff0000; stroke-width: 2; stroke-linecap: square"/>
   </g>
   <g id="patch_4">
    <path d="M 100.8 131.611034 
L 100.8 38.88 
" style="fill: none; stroke: #bcbcbc; stroke-width: 0.8; stroke-linejoin: miter; stroke-linecap: square"/>
   </g>
   <g id="patch_5">
    <path d="M 987.84 131.611034 
L 987.84 38.88 
" style="fill: none; stroke: #bcbcbc; stroke-width: 0.8; stroke-linejoin: miter; stroke-linecap: square"/>
   </g>
   <g id="patch_6">
    <path d="M 100.8 131.611034 
L 987.84 131.611034 
" style="fill: none; stroke: #bcbcbc; stroke-width: 0.8; stroke-linejoin: miter; stroke-linecap: square"/>
   </g>
   <g id="patch_7">
    <path d="M 100.8 38.88 
L 987.84 38.88 
" style="fill: none; stroke: #bcbcbc; stroke-width: 0.8; stroke-linejoin: miter; stroke-linecap: square"/>
   </g>
  </g>
  <g id="axes_2">
   <g id="patch_8">
    <path d="M 100.8 242.888276 
L 987.84 242.888276 
L 987.84 150.157241 
L 100.8 150.157241 
z
" style="fill: #eeeeee"/>
   </g>
   <g id="matplotlib.axis_3">
    <g id="xtick_7">
     <g id="line2d_18">
      <path d="M 141.12 242.888276 
L 141.12 150.157241 
" clip-path="url(#p61c5782765)" style="fill: none; stroke-dasharray: 1.85,0.8; stroke-dashoffset: 0; stroke: #b2b2b2; stroke-width: 0.5"/>
     </g>
     <g id="line2d_19">
      <g>
       <use xlink:href="#mc613d3c5ab" x="141.12" y="242.888276" style="stroke: #000000; stroke-width: 0.8"/>
      </g>
     </g>
    </g>
    <g id="xtick_8">
     <g id="line2d_20">
      <path d="M 302.4 242.888276 
L 302.4 150.157241 
" clip-path="url(#p61c5782765)" style="fill: none; stroke-dasharray: 1.85,0.8; stroke-dashoffset: 0; stroke: #b2b2b2; stroke-width: 0.5"/>
     </g>
     <g id="line2d_21">
      <g>
       <use xlink:href="#mc613d3c5ab" x="302.4" y="242.888276" style="stroke: #000000; stroke-width: 0.8"/>
      </g>
     </g>
    </g>
    <g id="xtick_9">
     <g id="line2d_22">
      <path d="M 463.68 242.888276 
L 463.68 150.157241 
" clip-path="url(#p61c5782765)" style="fill: none; stroke-dasharray: 1.85,0.8; stroke-dashoffset: 0; stroke: #b2b2b2; stroke-width: 0.5"/>
     </g>
     <g id="line2d_23">
      <g>
       <use xlink:href="#mc613d3c5ab" x="463.68" y="242.888276" style="stroke: #000000; stroke-width: 0.8"/>
      </g>
     </g>
    </g>
    <g id="xtick_10">
     <g id="line2d_24">
      <path d="M 624.96 242.888276 
L 624.96 150.157241 
" clip-path="url(#p61c5782765)" style="fill: none; stroke-dasharray: 1.85,0.8; stroke-dashoffset: 0; stroke: #b2b2b2; stroke-width: 0.5"/>
     </g>
     <g id="line2d_25">
      <g>
       <use xlink:href="#mc613d3c5ab" x="624.96" y="242.888276" style="stroke: #000000; stroke-width: 0.8"/>
      </g>
     </g>
    </g>
    <g id="xtick_11">
     <g id="line2d_26">
      <path d="M 786.24 242.888276 
L 786.24 150.157241 
" clip-path="url(#p61c5782765)" style="fill: none; stroke-dasharray: 1.85,0.8; stroke-dashoffset: 0; stroke: #b2b2b2; stroke-width: 0.5"/>
     </g>
     <g id="line2d_27">
      <g>
       <use xlink:href="#mc613d3c5ab" x="786.24" y="242.888276" style="stroke: #000000; stroke-width: 0.8"/>
      </g>
     </g>
    </g>
    <g id="xtick_12">
     <g id="line2d_28">
      <path d="M 947.52 242.888276 
L 947.52 150.157241 
" clip-path="url(#p61c5782765)" style="fill: none; stroke-dasharray: 1.85,0.8; stroke-dashoffset: 0; stroke: #b2b2b2; stroke-width: 0.5"/>
     </g>
     <g id="line2d_29">
      <g>
       <use xlink:href="#mc613d3c5ab" x="947.52" y="242.888276" style="stroke: #000000; stroke-width: 0.8"/>
      </g>
     </g>
    </g>
   </g>
   <g id="matplotlib.axis_4">
    <g id="ytick_3">
     <g id="line2d_30">
      <path d="M 100.8 219.360987 
L 987.84 219.360987 
" clip-path="url(#p61c5782765)" style="fill: none; stroke-dasharray: 1.85,0.8; stroke-dashoffset: 0; stroke: #b2b2b2; stroke-width: 0.5"/>
     </g>
     <g id="line2d_31">
      <g>
       <use xlink:href="#m092e296823" x="100.8" y="219.360987" style="stroke: #000000; stroke-width: 0.8"/>
      </g>
     </g>
     <g id="text_4">
      <!-- 0 V -->
      <g transform="translate(74.36625 224.679893) scale(0.14 -0.14)">
       <use xlink:href="#DejaVuSans-30"/>
       <use xlink:href="#DejaVuSans-20" x="63.623047"/>
       <use xlink:href="#DejaVuSans-56" x="95.410156"/>
      </g>
     </g>
    </g>
    <g id="ytick_4">
     <g id="line2d_32">
      <path d="M 100.8 185.778567 
L 987.84 185.778567 
" clip-path="url(#p61c5782765)" style="fill: none; stroke-dasharray: 1.85,0.8; stroke-dashoffset: 0; stroke: #b2b2b2; stroke-width: 0.5"/>
     </g>
     <g id="line2d_33">
      <g>
       <use xlink:href="#m092e296823" x="100.8" y="185.778567" style="stroke: #000000; stroke-width: 0.8"/>
      </g>
     </g>
     <g id="text_5">
      <!-- 1 V -->
      <g transform="translate(74.36625 191.097473) scale(0.14 -0.14)">
       <defs>
        <path id="DejaVuSans-31" d="M 794 531 
L 1825 531 
L 1825 4091 
L 703 3866 
L 703 4441 
L 1819 4666 
L 2450 4666 
L 2450 531 
L 3481 531 
L 3481 0 
L 794 0 
L 794 531 
z
" transform="scale(0.015625)"/>
       </defs>
       <use xlink:href="#DejaVuSans-31"/>
       <use xlink:href="#DejaVuSans-20" x="63.623047"/>
       <use xlink:href="#DejaVuSans-56" x="95.410156"/>
      </g>
     </g>
    </g>
    <g id="ytick_5">
     <g id="line2d_34">
      <path d="M 100.8 152.196148 
L 987.84 152.196148 
" clip-path="url(#p61c5782765)" style="fill: none; stroke-dasharray: 1.85,0.8; stroke-dashoffset: 0; stroke: #b2b2b2; stroke-width: 0.5"/>
     </g>
     <g id="line2d_35">
      <g>
       <use xlink:href="#m092e296823" x="100.8" y="152.196148" style="stroke: #000000; stroke-width: 0.8"/>
      </g>
     </g>
     <g id="text_6">
      <!-- 2 V -->
      <g transform="translate(74.36625 157.515054) scale(0.14 -0.14)">
       <use xlink:href="#DejaVuSans-32"/>
       <use xlink:href="#DejaVuSans-20" x="63.623047"/>
       <use xlink:href="#DejaVuSans-56" x="95.410156"/>
      </g>
     </g>
    </g>
    <g id="text_7">
     <g id="patch_9">
      <path d="M 34.8768 224.531509 
L 34.8768 168.514009 
L 11.247425 168.514009 
L 11.247425 224.531509 
z
" style="fill: #ffff00; opacity: 0.2; stroke: #eeeeee; stroke-width: 0.5; stroke-linejoin: miter"/>
     </g>
     <!-- DFF IN -->
     <g transform="translate(26.925238 219.491509) rotate(-90) scale(0.14 -0.14)">
      <defs>
       <path id="DejaVuSans-44" d="M 1259 4147 
L 1259 519 
L 2022 519 
Q 2988 519 3436 956 
Q 3884 1394 3884 2338 
Q 3884 3275 3436 3711 
Q 2988 4147 2022 4147 
L 1259 4147 
z
M 628 4666 
L 1925 4666 
Q 3281 4666 3915 4102 
Q 4550 3538 4550 2338 
Q 4550 1131 3912 565 
Q 3275 0 1925 0 
L 628 0 
L 628 4666 
z
" transform="scale(0.015625)"/>
       <path id="DejaVuSans-46" d="M 628 4666 
L 3309 4666 
L 3309 4134 
L 1259 4134 
L 1259 2759 
L 3109 2759 
L 3109 2228 
L 1259 2228 
L 1259 0 
L 628 0 
L 628 4666 
z
" transform="scale(0.015625)"/>
       <path id="DejaVuSans-4e" d="M 628 4666 
L 1478 4666 
L 3547 763 
L 3547 4666 
L 4159 4666 
L 4159 0 
L 3309 0 
L 1241 3903 
L 1241 0 
L 628 0 
L 628 4666 
z
" transform="scale(0.015625)"/>
      </defs>
      <use xlink:href="#DejaVuSans-44"/>
      <use xlink:href="#DejaVuSans-46" x="77.001953"/>
      <use xlink:href="#DejaVuSans-46" x="134.521484"/>
      <use xlink:href="#DejaVuSans-20" x="192.041016"/>
      <use xlink:href="#DejaVuSans-49" x="223.828125"/>
      <use xlink:href="#DejaVuSans-4e" x="253.320312"/>
     </g>
    </g>
   </g>
   <g id="line2d_36">
    <path d="M 141.12 219.311943 
L 221.953536 219.265891 
L 224.437248 200.55416 
L 225.404928 194.86194 
L 228.243456 182.346444 
L 229.598208 181.090461 
L 231.178752 180.227393 
L 236.565504 179.777389 
L 243.661824 179.666567 
L 245.1456 179.62291 
L 248.403456 179.512088 
L 250.113024 179.444923 
L 252.177408 179.334101 
L 254.241792 179.008351 
L 254.757888 178.477749 
L 255.499776 178.141925 
L 256.370688 178.162074 
L 257.531904 178.393793 
L 259.98336 178.793424 
L 262.370304 178.931112 
L 263.886336 178.981485 
L 264.144384 184.159895 
L 264.434688 187.683362 
L 265.176576 192.377177 
L 267.144192 209.50992 
L 268.402176 215.942632 
L 269.079552 217.254362 
L 270.46656 218.953162 
L 273.724416 219.3628 
L 282.594816 219.316379 
L 297.110016 219.305159 
L 305.883648 219.311147 
L 347.751936 219.267567 
L 350.235648 200.593787 
L 351.622656 192.056129 
L 352.687104 186.725927 
L 354.97728 179.911719 
L 358.493184 178.924395 
L 360.235008 178.994918 
L 363.073536 179.10574 
L 364.396032 179.132606 
L 375.169536 179.203129 
L 375.717888 180.183736 
L 376.169472 180.925908 
L 377.008128 181.822558 
L 377.524224 181.772185 
L 378.427392 181.483376 
L 380.45952 180.344932 
L 381.58848 179.988958 
L 387.201024 179.515446 
L 389.65248 179.404624 
L 391.813632 179.290444 
L 394.555392 179.179622 
L 395.9424 179.146039 
L 415.392768 179.038576 
L 415.973376 178.420659 
L 416.844288 178.088193 
L 417.908736 178.192299 
L 419.16672 178.471033 
L 420.908544 178.722901 
L 424.00512 178.93447 
L 455.712768 179.035217 
L 456.809472 179.915077 
L 457.261056 179.9856 
L 458.712576 180.025899 
L 462.744576 179.495297 
L 464.16384 179.310593 
L 467.518464 179.072158 
L 496.065024 178.99156 
L 496.58112 178.4576 
L 497.258496 178.155358 
L 498.387456 178.148641 
L 502.06464 178.803499 
L 504.258048 178.921037 
L 515.257344 179.021784 
L 515.45088 179.24007 
L 517.579776 183.001301 
L 519.96672 186.285326 
L 524.547072 192.592776 
L 525.063168 194.08182 
L 526.804992 200.432592 
L 527.192064 201.859173 
L 527.482368 203.202806 
L 527.901696 205.10928 
L 529.224192 211.033218 
L 531.288576 218.497348 
L 531.57888 219.261046 
L 532.901376 223.514125 
L 533.094912 223.765993 
L 533.578752 225.088133 
L 534.030336 225.988813 
L 534.610944 226.633931 
L 534.933504 227.465432 
L 535.417344 228.597831 
L 535.643136 229.036418 
L 536.352768 230.549642 
L 536.804352 231.244798 
L 537.38496 232.343279 
L 537.836544 233.259407 
L 538.6752 234.589942 
L 539.030016 235.386182 
L 540.804096 238.245725 
L 540.997632 238.490876 
L 541.25568 238.616475 
L 541.707264 238.187627 
L 542.7072 236.470894 
L 543.02976 236.127681 
L 545.061888 233.803106 
L 546.09408 232.987054 
L 546.610176 232.241524 
L 546.90048 231.852304 
L 547.190784 231.649466 
L 547.22304 231.689093 
L 547.5456 231.46577 
L 547.86816 231.311291 
L 548.158464 231.116849 
L 549.093888 230.182586 
L 549.384192 229.80344 
L 549.545472 229.773552 
L 549.900288 229.278883 
L 550.061568 229.309443 
L 551.513088 228.248238 
L 552.22272 227.45435 
L 552.513024 226.978487 
L 552.932352 226.763895 
L 553.641984 226.479452 
L 555.674112 224.698912 
L 555.964416 224.4635 
L 556.57728 224.22137 
L 557.577216 223.479871 
L 558.706176 222.529992 
L 559.060992 222.172305 
L 559.738368 221.773548 
L 560.835072 220.822695 
L 562.093056 219.170991 
L 562.802688 218.252666 
L 568.382976 211.11348 
L 569.3184 210.181232 
L 569.737728 209.513278 
L 570.350592 207.716619 
L 570.898944 206.064028 
L 571.995648 203.154447 
L 573.060096 201.122711 
L 575.93088 197.103567 
L 577.511424 195.108435 
L 578.124288 194.514698 
L 579.027456 193.711742 
L 579.737088 192.908451 
L 580.027392 192.248892 
L 580.704768 189.781256 
L 581.672448 186.526112 
L 582.575616 184.314374 
L 583.382016 182.877046 
L 584.027136 182.118083 
L 586.768896 179.401266 
L 588.123648 177.490426 
L 594.768384 168.000034 
L 595.76832 166.69032 
L 597.768192 164.16828 
L 605.703168 154.399154 
L 606.477312 154.839084 
L 607.122432 155.054012 
L 607.993344 155.211849 
L 609.057792 155.430135 
L 614.992896 157.398064 
L 616.992768 158.220834 
L 617.637888 161.901467 
L 617.992704 163.369019 
L 618.315264 163.845889 
L 618.605568 163.943278 
L 618.99264 163.761933 
L 619.605504 163.046627 
L 620.702208 161.740271 
L 621.540864 161.186161 
L 622.37952 160.954443 
L 623.089152 160.917502 
L 623.702016 160.961159 
L 625.153536 161.219744 
L 627.05664 161.89475 
L 628.250112 162.247366 
L 628.895232 162.458935 
L 630.862848 163.184315 
L 631.830528 163.563797 
L 632.991744 164.033951 
L 633.572352 164.272386 
L 635.056128 164.850003 
L 638.055936 165.981731 
L 638.894592 166.267181 
L 645.184512 168.345933 
L 645.700608 168.493696 
L 651.474432 170.182892 
L 653.538816 170.72021 
L 654.31296 170.925063 
L 654.829056 171.035885 
L 656.312832 171.391859 
L 656.764416 171.499322 
L 657.280512 171.620219 
L 657.925632 170.85454 
L 658.248192 170.743718 
L 658.570752 170.74036 
L 659.602944 171.170215 
L 661.054464 171.945969 
L 662.086656 172.359032 
L 665.11872 173.195235 
L 666.24768 173.423595 
L 669.666816 174.028079 
L 670.376448 174.135542 
L 672.279552 174.424351 
L 673.02144 174.535173 
L 673.66656 174.625846 
L 674.47296 174.733309 
L 675.92448 174.928087 
L 676.827648 175.038909 
L 678.085632 175.19003 
L 678.924288 175.300852 
L 679.988736 175.415033 
L 681.053184 175.522496 
L 681.666048 175.599736 
L 682.69824 175.7072 
L 683.8272 175.814663 
L 684.375552 175.875112 
L 691.375104 176.493028 
L 692.826624 176.60385 
L 693.66528 176.667657 
L 696.923136 176.896017 
L 697.536 176.943033 
L 697.69728 177.063929 
L 698.213376 177.708712 
L 698.729472 177.997521 
L 699.439104 178.108343 
L 700.051968 178.061327 
L 701.08416 177.738936 
L 701.632512 177.571024 
L 703.116288 177.369529 
L 707.69664 177.480351 
L 709.406208 177.550874 
L 710.180352 177.581099 
L 712.276992 177.688562 
L 713.083392 177.715428 
L 715.825152 177.82625 
L 717.53472 177.896773 
L 718.276608 177.930356 
L 721.598976 178.037819 
L 722.308608 178.07476 
L 725.695488 178.178866 
L 726.114816 178.195657 
L 730.308096 178.306479 
L 731.759616 178.346778 
L 736.920576 178.4576 
L 737.952768 178.454241 
L 738.565632 177.802743 
L 739.049472 177.567666 
L 740.049408 177.567666 
L 741.791232 177.997521 
L 744.016896 178.350136 
L 746.661888 178.51469 
L 750.984192 178.625512 
L 751.5648 178.638945 
L 778.305024 178.729617 
L 778.917888 179.377758 
L 779.369472 179.582611 
L 780.079104 179.690075 
L 782.078976 179.579253 
L 783.788544 179.290444 
L 785.078784 179.132606 
L 789.368832 178.796782 
L 818.592768 178.699393 
L 819.14112 178.091551 
L 819.689472 177.819534 
L 821.624832 177.926998 
L 824.882688 178.49454 
L 827.04384 178.608721 
L 858.912768 178.699393 
L 859.848192 179.525521 
L 860.783616 179.703508 
L 862.073856 179.733732 
L 864.847872 179.266936 
L 870.782976 178.759842 
L 899.265024 178.652378 
L 899.78112 178.091551 
L 900.329472 177.819534 
L 902.264832 177.926998 
L 905.522688 178.49454 
L 907.68384 178.608721 
L 939.552768 178.699393 
L 940.617216 179.555745 
L 941.55264 179.740448 
L 943.488 179.629626 
L 946.455552 179.122532 
L 947.52 178.957978 
L 947.52 178.957978 
" clip-path="url(#p61c5782765)" style="fill: none; stroke: #008000; stroke-width: 2; stroke-linecap: square"/>
   </g>
   <g id="patch_10">
    <path d="M 100.8 242.888276 
L 100.8 150.157241 
" style="fill: none; stroke: #bcbcbc; stroke-width: 0.8; stroke-linejoin: miter; stroke-linecap: square"/>
   </g>
   <g id="patch_11">
    <path d="M 987.84 242.888276 
L 987.84 150.157241 
" style="fill: none; stroke: #bcbcbc; stroke-width: 0.8; stroke-linejoin: miter; stroke-linecap: square"/>
   </g>
   <g id="patch_12">
    <path d="M 100.8 242.888276 
L 987.84 242.888276 
" style="fill: none; stroke: #bcbcbc; stroke-width: 0.8; stroke-linejoin: miter; stroke-linecap: square"/>
   </g>
   <g id="patch_13">
    <path d="M 100.8 150.157241 
L 987.84 150.157241 
" style="fill: none; stroke: #bcbcbc; stroke-width: 0.8; stroke-linejoin: miter; stroke-linecap: square"/>
   </g>
  </g>
  <g id="axes_3">
   <g id="patch_14">
    <path d="M 100.8 354.165517 
L 987.84 354.165517 
L 987.84 261.434483 
L 100.8 261.434483 
z
" style="fill: #eeeeee"/>
   </g>
   <g id="matplotlib.axis_5">
    <g id="xtick_13">
     <g id="line2d_37">
      <path d="M 141.12 354.165517 
L 141.12 261.434483 
" clip-path="url(#p9d7a4b3a3a)" style="fill: none; stroke-dasharray: 1.85,0.8; stroke-dashoffset: 0; stroke: #b2b2b2; stroke-width: 0.5"/>
     </g>
     <g id="line2d_38">
      <g>
       <use xlink:href="#mc613d3c5ab" x="141.12" y="354.165517" style="stroke: #000000; stroke-width: 0.8"/>
      </g>
     </g>
    </g>
    <g id="xtick_14">
     <g id="line2d_39">
      <path d="M 302.4 354.165517 
L 302.4 261.434483 
" clip-path="url(#p9d7a4b3a3a)" style="fill: none; stroke-dasharray: 1.85,0.8; stroke-dashoffset: 0; stroke: #b2b2b2; stroke-width: 0.5"/>
     </g>
     <g id="line2d_40">
      <g>
       <use xlink:href="#mc613d3c5ab" x="302.4" y="354.165517" style="stroke: #000000; stroke-width: 0.8"/>
      </g>
     </g>
    </g>
    <g id="xtick_15">
     <g id="line2d_41">
      <path d="M 463.68 354.165517 
L 463.68 261.434483 
" clip-path="url(#p9d7a4b3a3a)" style="fill: none; stroke-dasharray: 1.85,0.8; stroke-dashoffset: 0; stroke: #b2b2b2; stroke-width: 0.5"/>
     </g>
     <g id="line2d_42">
      <g>
       <use xlink:href="#mc613d3c5ab" x="463.68" y="354.165517" style="stroke: #000000; stroke-width: 0.8"/>
      </g>
     </g>
    </g>
    <g id="xtick_16">
     <g id="line2d_43">
      <path d="M 624.96 354.165517 
L 624.96 261.434483 
" clip-path="url(#p9d7a4b3a3a)" style="fill: none; stroke-dasharray: 1.85,0.8; stroke-dashoffset: 0; stroke: #b2b2b2; stroke-width: 0.5"/>
     </g>
     <g id="line2d_44">
      <g>
       <use xlink:href="#mc613d3c5ab" x="624.96" y="354.165517" style="stroke: #000000; stroke-width: 0.8"/>
      </g>
     </g>
    </g>
    <g id="xtick_17">
     <g id="line2d_45">
      <path d="M 786.24 354.165517 
L 786.24 261.434483 
" clip-path="url(#p9d7a4b3a3a)" style="fill: none; stroke-dasharray: 1.85,0.8; stroke-dashoffset: 0; stroke: #b2b2b2; stroke-width: 0.5"/>
     </g>
     <g id="line2d_46">
      <g>
       <use xlink:href="#mc613d3c5ab" x="786.24" y="354.165517" style="stroke: #000000; stroke-width: 0.8"/>
      </g>
     </g>
    </g>
    <g id="xtick_18">
     <g id="line2d_47">
      <path d="M 947.52 354.165517 
L 947.52 261.434483 
" clip-path="url(#p9d7a4b3a3a)" style="fill: none; stroke-dasharray: 1.85,0.8; stroke-dashoffset: 0; stroke: #b2b2b2; stroke-width: 0.5"/>
     </g>
     <g id="line2d_48">
      <g>
       <use xlink:href="#mc613d3c5ab" x="947.52" y="354.165517" style="stroke: #000000; stroke-width: 0.8"/>
      </g>
     </g>
    </g>
   </g>
   <g id="matplotlib.axis_6">
    <g id="ytick_6">
     <g id="line2d_49">
      <path d="M 100.8 344.750924 
L 987.84 344.750924 
" clip-path="url(#p9d7a4b3a3a)" style="fill: none; stroke-dasharray: 1.85,0.8; stroke-dashoffset: 0; stroke: #b2b2b2; stroke-width: 0.5"/>
     </g>
     <g id="line2d_50">
      <g>
       <use xlink:href="#m092e296823" x="100.8" y="344.750924" style="stroke: #000000; stroke-width: 0.8"/>
      </g>
     </g>
     <g id="text_8">
      <!-- 0 V -->
      <g transform="translate(74.36625 350.069831) scale(0.14 -0.14)">
       <use xlink:href="#DejaVuSans-30"/>
       <use xlink:href="#DejaVuSans-20" x="63.623047"/>
       <use xlink:href="#DejaVuSans-56" x="95.410156"/>
      </g>
     </g>
    </g>
    <g id="ytick_7">
     <g id="line2d_51">
      <path d="M 100.8 303.706199 
L 987.84 303.706199 
" clip-path="url(#p9d7a4b3a3a)" style="fill: none; stroke-dasharray: 1.85,0.8; stroke-dashoffset: 0; stroke: #b2b2b2; stroke-width: 0.5"/>
     </g>
     <g id="line2d_52">
      <g>
       <use xlink:href="#m092e296823" x="100.8" y="303.706199" style="stroke: #000000; stroke-width: 0.8"/>
      </g>
     </g>
     <g id="text_9">
      <!-- 1 V -->
      <g transform="translate(74.36625 309.025105) scale(0.14 -0.14)">
       <use xlink:href="#DejaVuSans-31"/>
       <use xlink:href="#DejaVuSans-20" x="63.623047"/>
       <use xlink:href="#DejaVuSans-56" x="95.410156"/>
      </g>
     </g>
    </g>
    <g id="ytick_8">
     <g id="line2d_53">
      <path d="M 100.8 262.661474 
L 987.84 262.661474 
" clip-path="url(#p9d7a4b3a3a)" style="fill: none; stroke-dasharray: 1.85,0.8; stroke-dashoffset: 0; stroke: #b2b2b2; stroke-width: 0.5"/>
     </g>
     <g id="line2d_54">
      <g>
       <use xlink:href="#m092e296823" x="100.8" y="262.661474" style="stroke: #000000; stroke-width: 0.8"/>
      </g>
     </g>
     <g id="text_10">
      <!-- 2 V -->
      <g transform="translate(74.36625 267.98038) scale(0.14 -0.14)">
       <use xlink:href="#DejaVuSans-32"/>
       <use xlink:href="#DejaVuSans-20" x="63.623047"/>
       <use xlink:href="#DejaVuSans-56" x="95.410156"/>
      </g>
     </g>
    </g>
    <g id="text_11">
     <g id="patch_15">
      <path d="M 34.8768 342.395313 
L 34.8768 273.204688 
L 11.247425 273.204688 
L 11.247425 342.395313 
z
" style="fill: #ffff00; opacity: 0.2; stroke: #eeeeee; stroke-width: 0.5; stroke-linejoin: miter"/>
     </g>
     <!-- CLK BUF -->
     <g transform="translate(26.925238 337.355313) rotate(-90) scale(0.14 -0.14)">
      <defs>
       <path id="DejaVuSans-43" d="M 4122 4306 
L 4122 3641 
Q 3803 3938 3442 4084 
Q 3081 4231 2675 4231 
Q 1875 4231 1450 3742 
Q 1025 3253 1025 2328 
Q 1025 1406 1450 917 
Q 1875 428 2675 428 
Q 3081 428 3442 575 
Q 3803 722 4122 1019 
L 4122 359 
Q 3791 134 3420 21 
Q 3050 -91 2638 -91 
Q 1578 -91 968 557 
Q 359 1206 359 2328 
Q 359 3453 968 4101 
Q 1578 4750 2638 4750 
Q 3056 4750 3426 4639 
Q 3797 4528 4122 4306 
z
" transform="scale(0.015625)"/>
       <path id="DejaVuSans-4b" d="M 628 4666 
L 1259 4666 
L 1259 2694 
L 3353 4666 
L 4166 4666 
L 1850 2491 
L 4331 0 
L 3500 0 
L 1259 2247 
L 1259 0 
L 628 0 
L 628 4666 
z
" transform="scale(0.015625)"/>
      </defs>
      <use xlink:href="#DejaVuSans-43"/>
      <use xlink:href="#DejaVuSans-4c" x="69.824219"/>
      <use xlink:href="#DejaVuSans-4b" x="125.537109"/>
      <use xlink:href="#DejaVuSans-20" x="191.113281"/>
      <use xlink:href="#DejaVuSans-42" x="222.900391"/>
      <use xlink:href="#DejaVuSans-55" x="291.503906"/>
      <use xlink:href="#DejaVuSans-46" x="364.697266"/>
     </g>
    </g>
   </g>
   <g id="line2d_55">
    <path d="M 141.12 344.749839 
L 173.376 344.749839 
L 173.601792 295.497254 
L 213.696 295.497254 
L 213.760512 334.784855 
L 213.825024 344.732173 
L 213.889536 344.673108 
L 213.954048 344.837077 
L 214.01856 344.755372 
L 215.437824 344.745533 
L 223.824384 344.749753 
L 254.016 344.749811 
L 254.17728 295.345389 
L 254.241792 295.608075 
L 254.403072 295.489045 
L 254.854656 295.497254 
L 294.336 295.497254 
L 294.400512 334.750377 
L 294.465024 345.057204 
L 294.529536 344.343588 
L 294.626304 344.815426 
L 294.65856 344.786219 
L 294.884352 344.728195 
L 295.206912 344.76586 
L 295.497216 344.749519 
L 321.91488 344.749838 
L 334.656 344.749841 
L 334.81728 295.423374 
L 334.881792 295.513672 
L 335.204352 295.501359 
L 336.10752 295.497254 
L 374.976 295.497254 
L 375.040512 334.788549 
L 375.105024 344.75159 
L 375.169536 344.667903 
L 375.266304 344.818808 
L 375.29856 344.755509 
L 376.782336 344.745221 
L 385.4592 344.749752 
L 415.296 344.749841 
L 415.45728 295.345389 
L 415.521792 295.608075 
L 415.683072 295.484941 
L 416.683008 295.501359 
L 455.616 295.497254 
L 455.680512 334.75284 
L 455.745024 345.062261 
L 455.809536 344.154011 
L 455.906304 345.353133 
L 455.93856 344.817684 
L 456.132096 344.726274 
L 456.551424 344.750162 
L 491.613696 344.749838 
L 495.936 344.749839 
L 496.09728 295.415165 
L 496.161792 295.513672 
L 497.161728 295.497254 
L 515.386368 295.60397 
L 517.031424 297.873744 
L 518.708736 300.636054 
L 525.61152 311.841674 
L 529.15968 316.971444 
L 532.288512 321.137894 
L 532.578816 321.498267 
L 535.352832 324.340203 
L 536.256 325.113486 
L 536.385024 323.826323 
L 536.41728 324.534755 
L 536.804352 347.458317 
L 537.643008 347.957051 
L 541.25568 349.869612 
L 542.287872 349.405807 
L 546.158592 348.080431 
L 546.352128 348.027155 
L 546.7392 347.907182 
L 549.868032 346.97325 
L 550.28736 346.854056 
L 556.706304 345.31648 
L 564.221952 344.229451 
L 576.576 344.33116 
L 576.608256 339.92899 
L 576.73728 312.367047 
L 576.866304 312.357196 
L 578.446848 311.615518 
L 579.866112 310.884101 
L 581.25312 308.401305 
L 583.34976 304.049743 
L 587.510784 295.456209 
L 588.18816 294.130465 
L 589.96224 290.764797 
L 595.413504 281.271152 
L 596.41344 279.686826 
L 598.18752 276.965561 
L 605.638656 265.768559 
L 607.090176 265.68647 
L 609.541632 266.421171 
L 611.08992 267.086095 
L 612.960768 267.90699 
L 613.380096 268.091691 
L 615.057408 268.822287 
L 616.896 269.618555 
L 617.05728 345.156922 
L 617.21856 345.113957 
L 626.476032 345.195028 
L 630.217728 345.213006 
L 657.216 344.990999 
L 657.37728 286.422265 
L 657.409536 286.434579 
L 666.860544 288.728979 
L 667.344384 288.835695 
L 667.989504 288.975247 
L 668.5056 289.081963 
L 669.15072 289.221516 
L 669.763584 289.328232 
L 670.311936 289.426739 
L 670.828032 289.533455 
L 671.376384 289.631963 
L 671.989248 289.738679 
L 672.5376 289.837186 
L 673.053696 289.943903 
L 673.602048 290.04241 
L 674.31168 290.149126 
L 674.860032 290.247634 
L 675.569664 290.350245 
L 675.92448 290.411813 
L 676.537344 290.514424 
L 676.89216 290.575991 
L 677.601792 290.678603 
L 677.956608 290.74017 
L 678.763008 290.842782 
L 679.117824 290.904349 
L 679.827456 291.006961 
L 680.182272 291.068528 
L 681.08544 291.17114 
L 681.440256 291.232707 
L 682.246656 291.335319 
L 682.601472 291.396886 
L 683.50464 291.499498 
L 683.762688 291.52002 
L 684.569088 291.622632 
L 684.923904 291.680095 
L 690.665472 292.29987 
L 691.633152 292.402482 
L 691.8912 292.423004 
L 692.891136 292.525616 
L 693.149184 292.546138 
L 694.245888 292.64875 
L 694.503936 292.665168 
L 697.342464 292.915541 
L 697.536 292.936063 
L 697.568256 297.86143 
L 697.632768 345.344718 
L 697.69728 344.600495 
L 697.761792 345.008767 
L 697.826304 344.825749 
L 698.052096 344.820269 
L 702.632448 344.81 
L 737.856 344.769489 
L 737.985024 294.647628 
L 738.081792 294.803598 
L 738.98496 294.799494 
L 743.404032 294.90621 
L 743.66208 294.922628 
L 750.661632 295.029344 
L 750.91968 295.045762 
L 778.176 295.086807 
L 778.305024 345.064408 
L 778.466304 344.825667 
L 778.724352 344.734179 
L 779.079168 344.778828 
L 779.401728 344.761379 
L 818.496 344.761594 
L 818.65728 294.873374 
L 818.721792 295.33718 
L 818.81856 294.914419 
L 818.883072 295.070389 
L 819.366912 295.086807 
L 858.816 295.086807 
L 858.945024 345.064412 
L 859.106304 344.825659 
L 859.364352 344.734175 
L 859.719168 344.778846 
L 860.041728 344.761379 
L 899.136 344.761594 
L 899.29728 294.873374 
L 899.361792 295.33718 
L 899.45856 294.914419 
L 899.523072 295.070389 
L 900.006912 295.086807 
L 939.456 295.086807 
L 939.488256 302.487171 
L 939.61728 344.712778 
L 939.649536 344.832131 
L 939.714048 344.71794 
L 939.810816 344.7349 
L 940.004352 344.786157 
L 940.230144 344.76029 
L 945.9072 344.761596 
L 947.52 344.761584 
L 947.52 344.761584 
" clip-path="url(#p9d7a4b3a3a)" style="fill: none; stroke: #0000ff; stroke-width: 2; stroke-linecap: square"/>
   </g>
   <g id="patch_16">
    <path d="M 100.8 354.165517 
L 100.8 261.434483 
" style="fill: none; stroke: #bcbcbc; stroke-width: 0.8; stroke-linejoin: miter; stroke-linecap: square"/>
   </g>
   <g id="patch_17">
    <path d="M 987.84 354.165517 
L 987.84 261.434483 
" style="fill: none; stroke: #bcbcbc; stroke-width: 0.8; stroke-linejoin: miter; stroke-linecap: square"/>
   </g>
   <g id="patch_18">
    <path d="M 100.8 354.165517 
L 987.84 354.165517 
" style="fill: none; stroke: #bcbcbc; stroke-width: 0.8; stroke-linejoin: miter; stroke-linecap: square"/>
   </g>
   <g id="patch_19">
    <path d="M 100.8 261.434483 
L 987.84 261.434483 
" style="fill: none; stroke: #bcbcbc; stroke-width: 0.8; stroke-linejoin: miter; stroke-linecap: square"/>
   </g>
  </g>
  <g id="axes_4">
   <g id="patch_20">
    <path d="M 100.8 465.442759 
L 987.84 465.442759 
L 987.84 372.711724 
L 100.8 372.711724 
z
" style="fill: #eeeeee"/>
   </g>
   <g id="matplotlib.axis_7">
    <g id="xtick_19">
     <g id="line2d_56">
      <path d="M 141.12 465.442759 
L 141.12 372.711724 
" clip-path="url(#p2fa80ba652)" style="fill: none; stroke-dasharray: 1.85,0.8; stroke-dashoffset: 0; stroke: #b2b2b2; stroke-width: 0.5"/>
     </g>
     <g id="line2d_57">
      <g>
       <use xlink:href="#mc613d3c5ab" x="141.12" y="465.442759" style="stroke: #000000; stroke-width: 0.8"/>
      </g>
     </g>
    </g>
    <g id="xtick_20">
     <g id="line2d_58">
      <path d="M 302.4 465.442759 
L 302.4 372.711724 
" clip-path="url(#p2fa80ba652)" style="fill: none; stroke-dasharray: 1.85,0.8; stroke-dashoffset: 0; stroke: #b2b2b2; stroke-width: 0.5"/>
     </g>
     <g id="line2d_59">
      <g>
       <use xlink:href="#mc613d3c5ab" x="302.4" y="465.442759" style="stroke: #000000; stroke-width: 0.8"/>
      </g>
     </g>
    </g>
    <g id="xtick_21">
     <g id="line2d_60">
      <path d="M 463.68 465.442759 
L 463.68 372.711724 
" clip-path="url(#p2fa80ba652)" style="fill: none; stroke-dasharray: 1.85,0.8; stroke-dashoffset: 0; stroke: #b2b2b2; stroke-width: 0.5"/>
     </g>
     <g id="line2d_61">
      <g>
       <use xlink:href="#mc613d3c5ab" x="463.68" y="465.442759" style="stroke: #000000; stroke-width: 0.8"/>
      </g>
     </g>
    </g>
    <g id="xtick_22">
     <g id="line2d_62">
      <path d="M 624.96 465.442759 
L 624.96 372.711724 
" clip-path="url(#p2fa80ba652)" style="fill: none; stroke-dasharray: 1.85,0.8; stroke-dashoffset: 0; stroke: #b2b2b2; stroke-width: 0.5"/>
     </g>
     <g id="line2d_63">
      <g>
       <use xlink:href="#mc613d3c5ab" x="624.96" y="465.442759" style="stroke: #000000; stroke-width: 0.8"/>
      </g>
     </g>
    </g>
    <g id="xtick_23">
     <g id="line2d_64">
      <path d="M 786.24 465.442759 
L 786.24 372.711724 
" clip-path="url(#p2fa80ba652)" style="fill: none; stroke-dasharray: 1.85,0.8; stroke-dashoffset: 0; stroke: #b2b2b2; stroke-width: 0.5"/>
     </g>
     <g id="line2d_65">
      <g>
       <use xlink:href="#mc613d3c5ab" x="786.24" y="465.442759" style="stroke: #000000; stroke-width: 0.8"/>
      </g>
     </g>
    </g>
    <g id="xtick_24">
     <g id="line2d_66">
      <path d="M 947.52 465.442759 
L 947.52 372.711724 
" clip-path="url(#p2fa80ba652)" style="fill: none; stroke-dasharray: 1.85,0.8; stroke-dashoffset: 0; stroke: #b2b2b2; stroke-width: 0.5"/>
     </g>
     <g id="line2d_67">
      <g>
       <use xlink:href="#mc613d3c5ab" x="947.52" y="465.442759" style="stroke: #000000; stroke-width: 0.8"/>
      </g>
     </g>
    </g>
   </g>
   <g id="matplotlib.axis_8">
    <g id="ytick_9">
     <g id="line2d_68">
      <path d="M 100.8 436.942911 
L 987.84 436.942911 
" clip-path="url(#p2fa80ba652)" style="fill: none; stroke-dasharray: 1.85,0.8; stroke-dashoffset: 0; stroke: #b2b2b2; stroke-width: 0.5"/>
     </g>
     <g id="line2d_69">
      <g>
       <use xlink:href="#m092e296823" x="100.8" y="436.942911" style="stroke: #000000; stroke-width: 0.8"/>
      </g>
     </g>
     <g id="text_12">
      <!-- 0 V -->
      <g transform="translate(74.36625 442.261817) scale(0.14 -0.14)">
       <use xlink:href="#DejaVuSans-30"/>
       <use xlink:href="#DejaVuSans-20" x="63.623047"/>
       <use xlink:href="#DejaVuSans-56" x="95.410156"/>
      </g>
     </g>
    </g>
    <g id="ytick_10">
     <g id="line2d_70">
      <path d="M 100.8 394.447591 
L 987.84 394.447591 
" clip-path="url(#p2fa80ba652)" style="fill: none; stroke-dasharray: 1.85,0.8; stroke-dashoffset: 0; stroke: #b2b2b2; stroke-width: 0.5"/>
     </g>
     <g id="line2d_71">
      <g>
       <use xlink:href="#m092e296823" x="100.8" y="394.447591" style="stroke: #000000; stroke-width: 0.8"/>
      </g>
     </g>
     <g id="text_13">
      <!-- 1 V -->
      <g transform="translate(74.36625 399.766498) scale(0.14 -0.14)">
       <use xlink:href="#DejaVuSans-31"/>
       <use xlink:href="#DejaVuSans-20" x="63.623047"/>
       <use xlink:href="#DejaVuSans-56" x="95.410156"/>
      </g>
     </g>
    </g>
    <g id="text_14">
     <g id="patch_21">
      <path d="M 34.8768 454.693023 
L 34.8768 383.46146 
L 11.247425 383.46146 
L 11.247425 454.693023 
z
" style="fill: #ffff00; opacity: 0.2; stroke: #eeeeee; stroke-width: 0.5; stroke-linejoin: miter"/>
     </g>
     <!-- DFF OUT -->
     <g transform="translate(26.925238 449.653023) rotate(-90) scale(0.14 -0.14)">
      <defs>
       <path id="DejaVuSans-4f" d="M 2522 4238 
Q 1834 4238 1429 3725 
Q 1025 3213 1025 2328 
Q 1025 1447 1429 934 
Q 1834 422 2522 422 
Q 3209 422 3611 934 
Q 4013 1447 4013 2328 
Q 4013 3213 3611 3725 
Q 3209 4238 2522 4238 
z
M 2522 4750 
Q 3503 4750 4090 4092 
Q 4678 3434 4678 2328 
Q 4678 1225 4090 567 
Q 3503 -91 2522 -91 
Q 1538 -91 948 565 
Q 359 1222 359 2328 
Q 359 3434 948 4092 
Q 1538 4750 2522 4750 
z
" transform="scale(0.015625)"/>
       <path id="DejaVuSans-54" d="M -19 4666 
L 3928 4666 
L 3928 4134 
L 2272 4134 
L 2272 0 
L 1638 0 
L 1638 4134 
L -19 4134 
L -19 4666 
z
" transform="scale(0.015625)"/>
      </defs>
      <use xlink:href="#DejaVuSans-44"/>
      <use xlink:href="#DejaVuSans-46" x="77.001953"/>
      <use xlink:href="#DejaVuSans-46" x="134.521484"/>
      <use xlink:href="#DejaVuSans-20" x="192.041016"/>
      <use xlink:href="#DejaVuSans-4f" x="223.828125"/>
      <use xlink:href="#DejaVuSans-55" x="302.539062"/>
      <use xlink:href="#DejaVuSans-54" x="375.732422"/>
     </g>
    </g>
   </g>
   <g id="line2d_72">
    <path d="M 141.12 404.878918 
L 173.408256 404.930762 
L 173.440512 406.690068 
L 173.601792 436.945505 
L 174.085632 436.940192 
L 183.730176 436.941783 
L 254.048256 436.943559 
L 254.080512 437.113436 
L 254.112768 436.832436 
L 254.306304 432.683605 
L 254.596608 431.851972 
L 254.693376 431.258737 
L 255.14496 423.813557 
L 255.370752 406.314834 
L 255.596544 386.360732 
L 255.757824 386.012271 
L 255.983616 385.944278 
L 256.854528 385.948528 
L 295.755264 386.033518 
L 296.239104 388.782965 
L 296.59392 388.094541 
L 297.948672 386.296989 
L 299.561472 385.982524 
L 334.688256 385.965526 
L 334.720512 385.842289 
L 334.752768 386.46697 
L 334.785024 389.55638 
L 334.914048 436.925492 
L 334.97856 436.888092 
L 335.13984 436.934005 
L 335.494656 436.942294 
L 364.847616 436.941742 
L 415.328256 436.943533 
L 415.360512 437.112846 
L 415.392768 436.83479 
L 415.586304 432.584591 
L 415.844352 431.725761 
L 415.908864 431.492462 
L 416.1024 426.452942 
L 416.521728 411.781857 
L 416.9088 386.088762 
L 417.102336 385.952777 
L 417.682944 385.982524 
L 418.166784 385.940028 
L 418.940928 385.948528 
L 495.968256 385.965526 
L 496.000512 386.11001 
L 496.065024 385.914531 
L 496.323072 385.940028 
L 515.354112 386.01652 
L 516.321792 387.333875 
L 517.612032 389.394898 
L 523.224576 399.217691 
L 523.83744 400.814665 
L 524.514816 403.40773 
L 524.869632 404.698313 
L 525.12768 406.010993 
L 525.579264 408.140858 
L 526.353408 412.036829 
L 526.41792 411.860899 
L 526.514688 412.039804 
L 526.611456 412.869313 
L 526.804992 414.232137 
L 526.998528 415.252875 
L 527.030784 414.852994 
L 527.06304 414.830897 
L 527.192064 415.739446 
L 527.353344 416.980735 
L 527.70816 418.800809 
L 527.740416 418.74684 
L 527.772672 418.361833 
L 527.804928 419.241911 
L 528.901632 425.024674 
L 530.224128 431.366675 
L 530.514432 432.536572 
L 531.4176 436.370584 
L 531.449856 435.812408 
L 531.482112 436.403773 
L 531.514368 436.262774 
L 531.546624 436.251087 
L 531.998208 438.853713 
L 532.030464 438.570482 
L 532.06272 439.106008 
L 532.094976 439.219555 
L 532.127232 438.75113 
L 532.191744 439.404793 
L 532.224 439.251087 
L 532.256256 439.531599 
L 532.449792 440.627255 
L 533.062656 442.570566 
L 533.094912 442.197458 
L 533.127168 442.746497 
L 533.159424 442.58544 
L 533.19168 442.381887 
L 533.288448 443.182074 
L 533.320704 442.814065 
L 533.578752 443.945715 
L 534.094848 444.953279 
L 534.514176 445.697797 
L 534.868992 446.631419 
L 535.094784 447.544644 
L 537.22368 452.580764 
L 537.288192 452.740121 
L 537.449472 453.303609 
L 537.70752 453.997983 
L 539.094528 457.070819 
L 539.191296 456.83752 
L 539.255808 456.640342 
L 539.384832 457.506821 
L 539.546112 458.060535 
L 539.64288 458.059261 
L 539.900928 458.809303 
L 541.0944 461.227712 
L 541.25568 461.048806 
L 541.449216 460.858002 
L 541.868544 460.025094 
L 541.9008 459.443758 
L 541.997568 459.586117 
L 542.06208 459.750149 
L 542.126592 459.592917 
L 543.062016 457.590112 
L 543.158784 456.760604 
L 543.19104 456.778027 
L 543.255552 457.468576 
L 543.320064 457.282871 
L 543.449088 457.060621 
L 544.126464 455.901773 
L 544.15872 456.091727 
L 544.190976 455.819332 
L 545.642496 454.077449 
L 546.061824 453.410698 
L 546.126336 453.368202 
L 546.158592 453.306584 
L 546.190848 453.511411 
L 546.25536 453.234342 
L 546.319872 453.333356 
L 546.384384 453.031214 
L 546.41664 453.182923 
L 546.448896 452.917327 
L 546.481152 452.892255 
L 546.513408 453.061811 
L 546.545664 452.803439 
L 547.158528 452.139663 
L 547.190784 452.353839 
L 547.255296 452.16601 
L 547.513344 451.808624 
L 547.86816 451.61952 
L 548.126208 451.312704 
L 548.481024 450.606006 
L 548.51328 450.735192 
L 548.545536 450.549488 
L 548.706816 450.318738 
L 548.739072 450.445799 
L 548.771328 450.264769 
L 548.803584 450.163205 
L 548.83584 450.488719 
L 548.900352 450.070565 
L 548.99712 449.971126 
L 549.287424 449.646462 
L 549.31968 449.938405 
L 549.351936 449.633714 
L 549.416448 449.850015 
L 549.545472 449.700431 
L 549.609984 449.565721 
L 549.739008 449.203661 
L 549.868032 449.090198 
L 549.900288 449.321373 
L 549.997056 449.218959 
L 550.28736 448.821203 
L 550.545408 448.661421 
L 551.029248 448.020591 
L 551.190528 447.642808 
L 551.319552 447.423532 
L 551.351808 447.716325 
L 551.41632 447.336417 
L 551.513088 447.186833 
L 551.545344 447.513197 
L 551.609856 447.067421 
L 551.803392 446.888516 
L 551.835648 447.038524 
L 551.867904 446.778028 
L 551.90016 446.871943 
L 551.932416 446.890641 
L 552.093696 446.570651 
L 552.125952 446.916988 
L 552.190464 446.453364 
L 552.771072 446.003763 
L 553.67424 445.328088 
L 553.964544 444.940105 
L 554.125824 444.461608 
L 554.15808 444.779473 
L 554.190336 444.454384 
L 554.222592 444.71658 
L 554.383872 444.046854 
L 554.416128 444.064702 
L 554.448384 444.491355 
L 554.512896 443.981836 
L 554.706432 443.76681 
L 554.738688 444.196012 
L 554.835456 444.125045 
L 554.96448 443.627 
L 554.996736 443.864124 
L 555.028992 443.72049 
L 555.158016 443.347806 
L 555.190272 443.343556 
L 555.222528 443.740038 
L 555.254784 443.239018 
L 555.319296 443.646548 
L 555.44832 443.12598 
L 555.480576 443.132355 
L 555.512832 443.373303 
L 555.545088 443.056713 
L 555.6096 443.289162 
L 555.738624 442.99637 
L 556.416 442.638134 
L 557.480448 441.543879 
L 557.609472 440.906875 
L 557.673984 440.846914 
L 557.70624 441.11183 
L 557.738496 441.02004 
L 557.770752 440.659934 
L 557.835264 441.152328 
L 557.86752 440.697373 
L 557.899776 441.139367 
L 557.964288 440.573839 
L 558.157824 440.329448 
L 558.19008 440.56347 
L 558.286848 440.486851 
L 558.67392 440.009416 
L 559.060992 439.94869 
L 559.254528 439.786571 
L 560.641536 438.270125 
L 560.706048 438.168901 
L 560.867328 437.214937 
L 560.899584 437.234191 
L 560.93184 437.779304 
L 560.996352 437.11667 
L 561.028608 437.619989 
L 561.125376 437.014218 
L 561.157632 437.241611 
L 561.222144 437.201674 
L 561.2544 436.926076 
L 561.351168 437.003412 
L 561.480192 436.812149 
L 562.480128 434.920516 
L 562.512384 434.180885 
L 562.609152 434.384183 
L 562.641408 434.524248 
L 562.673664 434.271018 
L 562.802688 434.129041 
L 562.834944 434.212034 
L 562.899456 434.105159 
L 563.641344 432.439682 
L 563.6736 432.541671 
L 563.738112 431.716412 
L 563.802624 432.106944 
L 563.83488 432.240379 
L 563.867136 431.278285 
L 563.931648 431.828599 
L 563.963904 431.969684 
L 563.99616 431.64332 
L 564.092928 431.241314 
L 564.15744 431.313981 
L 564.189696 431.515409 
L 564.254208 431.368375 
L 564.512256 430.87118 
L 565.254144 429.316701 
L 565.2864 428.649525 
L 565.350912 428.904072 
L 565.383168 428.999686 
L 565.415424 428.565384 
L 565.512192 428.646125 
L 565.641216 428.463395 
L 566.834688 426.072608 
L 566.866944 425.584762 
L 566.931456 425.739445 
L 566.963712 425.860982 
L 567.028224 425.750919 
L 567.447552 424.684286 
L 567.737856 424.06513 
L 568.157184 423.190151 
L 568.18944 423.264943 
L 568.253952 422.615189 
L 568.318464 422.715903 
L 568.415232 422.765198 
L 568.447488 422.722702 
L 569.673216 420.032749 
L 569.705472 419.453537 
L 569.80224 419.555526 
L 569.899008 419.544052 
L 571.027968 417.144342 
L 571.124736 416.488639 
L 571.156992 416.518386 
L 571.221504 416.770808 
L 571.25376 416.495438 
L 571.318272 416.442319 
L 571.350528 416.588503 
L 571.41504 416.493313 
L 573.931008 411.759335 
L 576.221184 408.230099 
L 576.382464 408.013372 
L 576.672768 407.525526 
L 576.705024 407.598193 
L 576.73728 408.014222 
L 576.834048 420.166184 
L 576.995328 436.413929 
L 577.22112 436.438067 
L 579.833856 436.459654 
L 580.511232 435.81738 
L 581.317632 435.409255 
L 582.349824 435.167797 
L 583.865856 435.07129 
L 586.89792 435.141705 
L 599.348736 435.591815 
L 601.026048 435.521825 
L 604.993536 435.627256 
L 605.670912 435.745648 
L 606.348288 436.404113 
L 607.154688 436.841114 
L 608.122368 437.109667 
L 609.573888 437.274239 
L 612.509184 437.340089 
L 626.992128 437.424128 
L 631.120896 437.417371 
L 657.248256 437.196817 
L 657.280512 437.580936 
L 657.506304 430.577537 
L 657.796608 428.894298 
L 657.957888 426.434244 
L 658.119168 419.278882 
L 658.312704 397.861665 
L 658.538496 377.058507 
L 658.66752 376.93952 
L 659.570688 377.168994 
L 660.473856 377.411218 
L 660.860928 377.521706 
L 661.635072 377.708685 
L 662.022144 377.819173 
L 662.796288 378.006152 
L 663.280128 378.11664 
L 664.054272 378.30362 
L 664.441344 378.414107 
L 665.086464 378.558591 
L 665.60256 378.669079 
L 666.24768 378.813563 
L 666.763776 378.924051 
L 667.408896 379.068535 
L 667.924992 379.179023 
L 668.570112 379.323507 
L 669.086208 379.433995 
L 669.63456 379.535984 
L 670.150656 379.646472 
L 670.699008 379.74846 
L 671.311872 379.858948 
L 671.860224 379.960937 
L 672.37632 380.071425 
L 672.924672 380.173414 
L 673.537536 380.283901 
L 674.085888 380.38589 
L 674.79552 380.492128 
L 675.150336 380.555871 
L 675.7632 380.66211 
L 676.118016 380.725853 
L 676.827648 380.832091 
L 677.182464 380.895834 
L 677.892096 381.006322 
L 678.34368 381.065815 
L 678.956544 381.172054 
L 679.31136 381.235797 
L 680.11776 381.342035 
L 680.472576 381.405778 
L 681.375744 381.512016 
L 681.73056 381.575759 
L 682.53696 381.681997 
L 682.795008 381.703245 
L 683.50464 381.809483 
L 683.762688 381.830731 
L 684.569088 381.936969 
L 684.923904 382.000712 
L 685.92384 382.106951 
L 686.278656 382.170694 
L 687.278592 382.276932 
L 687.53664 382.29818 
L 688.439808 382.404418 
L 688.697856 382.425666 
L 689.601024 382.531904 
L 689.859072 382.553151 
L 690.76224 382.65939 
L 691.020288 382.680637 
L 692.020224 382.786876 
L 692.278272 382.808123 
L 693.278208 382.914362 
L 693.536256 382.935609 
L 694.63296 383.041848 
L 694.891008 383.063095 
L 696.08448 383.169334 
L 696.342528 383.190581 
L 697.536 383.29682 
L 697.729536 383.335065 
L 697.890816 383.318067 
L 699.084288 383.424306 
L 699.342336 383.441304 
L 701.180928 383.573039 
L 702.471168 383.679277 
L 702.729216 383.700525 
L 704.212992 383.806763 
L 704.47104 383.823762 
L 706.148352 383.934249 
L 706.4064 383.955497 
L 708.18048 384.061735 
L 708.438528 384.082983 
L 710.406144 384.189221 
L 710.664192 384.210469 
L 712.728576 384.316707 
L 712.986624 384.337955 
L 715.341312 384.444193 
L 715.663872 384.461191 
L 718.050816 384.571679 
L 718.373376 384.588677 
L 721.147392 384.699165 
L 721.40544 384.716163 
L 724.534272 384.826651 
L 724.79232 384.843649 
L 728.308224 384.954137 
L 728.566272 384.971135 
L 732.566016 385.081623 
L 732.824064 385.098621 
L 737.501184 385.209109 
L 737.823744 385.226107 
L 737.888256 385.221858 
L 737.920512 385.47258 
L 737.985024 385.204859 
L 738.98496 385.226107 
L 743.404032 385.336595 
L 743.758848 385.357843 
L 750.661632 385.464081 
L 751.016448 385.485329 
L 818.528256 385.519325 
L 818.560512 385.736051 
L 818.625024 385.519325 
L 818.81856 385.498077 
L 819.850752 385.523574 
L 899.168256 385.519325 
L 899.200512 385.736051 
L 899.265024 385.519325 
L 899.45856 385.498077 
L 900.490752 385.523574 
L 947.52 385.523574 
L 947.52 385.523574 
" clip-path="url(#p2fa80ba652)" style="fill: none; stroke: #ff00ff; stroke-width: 2; stroke-linecap: square"/>
   </g>
   <g id="patch_22">
    <path d="M 100.8 465.442759 
L 100.8 372.711724 
" style="fill: none; stroke: #bcbcbc; stroke-width: 0.8; stroke-linejoin: miter; stroke-linecap: square"/>
   </g>
   <g id="patch_23">
    <path d="M 987.84 465.442759 
L 987.84 372.711724 
" style="fill: none; stroke: #bcbcbc; stroke-width: 0.8; stroke-linejoin: miter; stroke-linecap: square"/>
   </g>
   <g id="patch_24">
    <path d="M 100.8 465.442759 
L 987.84 465.442759 
" style="fill: none; stroke: #bcbcbc; stroke-width: 0.8; stroke-linejoin: miter; stroke-linecap: square"/>
   </g>
   <g id="patch_25">
    <path d="M 100.8 372.711724 
L 987.84 372.711724 
" style="fill: none; stroke: #bcbcbc; stroke-width: 0.8; stroke-linejoin: miter; stroke-linecap: square"/>
   </g>
  </g>
  <g id="axes_5">
   <g id="patch_26">
    <path d="M 100.8 576.72 
L 987.84 576.72 
L 987.84 483.988966 
L 100.8 483.988966 
z
" style="fill: #eeeeee"/>
   </g>
   <g id="matplotlib.axis_9">
    <g id="xtick_25">
     <g id="line2d_73">
      <path d="M 141.12 576.72 
L 141.12 483.988966 
" clip-path="url(#pd592c5fd0d)" style="fill: none; stroke-dasharray: 1.85,0.8; stroke-dashoffset: 0; stroke: #b2b2b2; stroke-width: 0.5"/>
     </g>
     <g id="line2d_74">
      <g>
       <use xlink:href="#mc613d3c5ab" x="141.12" y="576.72" style="stroke: #000000; stroke-width: 0.8"/>
      </g>
     </g>
     <g id="text_15">
      <!-- 0 s -->
      <g transform="translate(130.795 590.857813) scale(0.14 -0.14)">
       <defs>
        <path id="DejaVuSans-73" d="M 2834 3397 
L 2834 2853 
Q 2591 2978 2328 3040 
Q 2066 3103 1784 3103 
Q 1356 3103 1142 2972 
Q 928 2841 928 2578 
Q 928 2378 1081 2264 
Q 1234 2150 1697 2047 
L 1894 2003 
Q 2506 1872 2764 1633 
Q 3022 1394 3022 966 
Q 3022 478 2636 193 
Q 2250 -91 1575 -91 
Q 1294 -91 989 -36 
Q 684 19 347 128 
L 347 722 
Q 666 556 975 473 
Q 1284 391 1588 391 
Q 1994 391 2212 530 
Q 2431 669 2431 922 
Q 2431 1156 2273 1281 
Q 2116 1406 1581 1522 
L 1381 1569 
Q 847 1681 609 1914 
Q 372 2147 372 2553 
Q 372 3047 722 3315 
Q 1072 3584 1716 3584 
Q 2034 3584 2315 3537 
Q 2597 3491 2834 3397 
z
" transform="scale(0.015625)"/>
       </defs>
       <use xlink:href="#DejaVuSans-30"/>
       <use xlink:href="#DejaVuSans-20" x="63.623047"/>
       <use xlink:href="#DejaVuSans-73" x="95.410156"/>
      </g>
     </g>
    </g>
    <g id="xtick_26">
     <g id="line2d_75">
      <path d="M 302.4 576.72 
L 302.4 483.988966 
" clip-path="url(#pd592c5fd0d)" style="fill: none; stroke-dasharray: 1.85,0.8; stroke-dashoffset: 0; stroke: #b2b2b2; stroke-width: 0.5"/>
     </g>
     <g id="line2d_76">
      <g>
       <use xlink:href="#mc613d3c5ab" x="302.4" y="576.72" style="stroke: #000000; stroke-width: 0.8"/>
      </g>
     </g>
     <g id="text_16">
      <!-- 50 ns -->
      <g transform="translate(283.185 590.857813) scale(0.14 -0.14)">
       <defs>
        <path id="DejaVuSans-35" d="M 691 4666 
L 3169 4666 
L 3169 4134 
L 1269 4134 
L 1269 2991 
Q 1406 3038 1543 3061 
Q 1681 3084 1819 3084 
Q 2600 3084 3056 2656 
Q 3513 2228 3513 1497 
Q 3513 744 3044 326 
Q 2575 -91 1722 -91 
Q 1428 -91 1123 -41 
Q 819 9 494 109 
L 494 744 
Q 775 591 1075 516 
Q 1375 441 1709 441 
Q 2250 441 2565 725 
Q 2881 1009 2881 1497 
Q 2881 1984 2565 2268 
Q 2250 2553 1709 2553 
Q 1456 2553 1204 2497 
Q 953 2441 691 2322 
L 691 4666 
z
" transform="scale(0.015625)"/>
        <path id="DejaVuSans-6e" d="M 3513 2113 
L 3513 0 
L 2938 0 
L 2938 2094 
Q 2938 2591 2744 2837 
Q 2550 3084 2163 3084 
Q 1697 3084 1428 2787 
Q 1159 2491 1159 1978 
L 1159 0 
L 581 0 
L 581 3500 
L 1159 3500 
L 1159 2956 
Q 1366 3272 1645 3428 
Q 1925 3584 2291 3584 
Q 2894 3584 3203 3211 
Q 3513 2838 3513 2113 
z
" transform="scale(0.015625)"/>
       </defs>
       <use xlink:href="#DejaVuSans-35"/>
       <use xlink:href="#DejaVuSans-30" x="63.623047"/>
       <use xlink:href="#DejaVuSans-20" x="127.246094"/>
       <use xlink:href="#DejaVuSans-6e" x="159.033203"/>
       <use xlink:href="#DejaVuSans-73" x="222.412109"/>
      </g>
     </g>
    </g>
    <g id="xtick_27">
     <g id="line2d_77">
      <path d="M 463.68 576.72 
L 463.68 483.988966 
" clip-path="url(#pd592c5fd0d)" style="fill: none; stroke-dasharray: 1.85,0.8; stroke-dashoffset: 0; stroke: #b2b2b2; stroke-width: 0.5"/>
     </g>
     <g id="line2d_78">
      <g>
       <use xlink:href="#mc613d3c5ab" x="463.68" y="576.72" style="stroke: #000000; stroke-width: 0.8"/>
      </g>
     </g>
     <g id="text_17">
      <!-- 100 ns -->
      <g transform="translate(440.01125 590.857813) scale(0.14 -0.14)">
       <use xlink:href="#DejaVuSans-31"/>
       <use xlink:href="#DejaVuSans-30" x="63.623047"/>
       <use xlink:href="#DejaVuSans-30" x="127.246094"/>
       <use xlink:href="#DejaVuSans-20" x="190.869141"/>
       <use xlink:href="#DejaVuSans-6e" x="222.65625"/>
       <use xlink:href="#DejaVuSans-73" x="286.035156"/>
      </g>
     </g>
    </g>
    <g id="xtick_28">
     <g id="line2d_79">
      <path d="M 624.96 576.72 
L 624.96 483.988966 
" clip-path="url(#pd592c5fd0d)" style="fill: none; stroke-dasharray: 1.85,0.8; stroke-dashoffset: 0; stroke: #b2b2b2; stroke-width: 0.5"/>
     </g>
     <g id="line2d_80">
      <g>
       <use xlink:href="#mc613d3c5ab" x="624.96" y="576.72" style="stroke: #000000; stroke-width: 0.8"/>
      </g>
     </g>
     <g id="text_18">
      <!-- 150 ns -->
      <g transform="translate(601.29125 590.857813) scale(0.14 -0.14)">
       <use xlink:href="#DejaVuSans-31"/>
       <use xlink:href="#DejaVuSans-35" x="63.623047"/>
       <use xlink:href="#DejaVuSans-30" x="127.246094"/>
       <use xlink:href="#DejaVuSans-20" x="190.869141"/>
       <use xlink:href="#DejaVuSans-6e" x="222.65625"/>
       <use xlink:href="#DejaVuSans-73" x="286.035156"/>
      </g>
     </g>
    </g>
    <g id="xtick_29">
     <g id="line2d_81">
      <path d="M 786.24 576.72 
L 786.24 483.988966 
" clip-path="url(#pd592c5fd0d)" style="fill: none; stroke-dasharray: 1.85,0.8; stroke-dashoffset: 0; stroke: #b2b2b2; stroke-width: 0.5"/>
     </g>
     <g id="line2d_82">
      <g>
       <use xlink:href="#mc613d3c5ab" x="786.24" y="576.72" style="stroke: #000000; stroke-width: 0.8"/>
      </g>
     </g>
     <g id="text_19">
      <!-- 200 ns -->
      <g transform="translate(762.57125 590.857813) scale(0.14 -0.14)">
       <use xlink:href="#DejaVuSans-32"/>
       <use xlink:href="#DejaVuSans-30" x="63.623047"/>
       <use xlink:href="#DejaVuSans-30" x="127.246094"/>
       <use xlink:href="#DejaVuSans-20" x="190.869141"/>
       <use xlink:href="#DejaVuSans-6e" x="222.65625"/>
       <use xlink:href="#DejaVuSans-73" x="286.035156"/>
      </g>
     </g>
    </g>
    <g id="xtick_30">
     <g id="line2d_83">
      <path d="M 947.52 576.72 
L 947.52 483.988966 
" clip-path="url(#pd592c5fd0d)" style="fill: none; stroke-dasharray: 1.85,0.8; stroke-dashoffset: 0; stroke: #b2b2b2; stroke-width: 0.5"/>
     </g>
     <g id="line2d_84">
      <g>
       <use xlink:href="#mc613d3c5ab" x="947.52" y="576.72" style="stroke: #000000; stroke-width: 0.8"/>
      </g>
     </g>
     <g id="text_20">
      <!-- 250 ns -->
      <g transform="translate(923.85125 590.857813) scale(0.14 -0.14)">
       <use xlink:href="#DejaVuSans-32"/>
       <use xlink:href="#DejaVuSans-35" x="63.623047"/>
       <use xlink:href="#DejaVuSans-30" x="127.246094"/>
       <use xlink:href="#DejaVuSans-20" x="190.869141"/>
       <use xlink:href="#DejaVuSans-6e" x="222.65625"/>
       <use xlink:href="#DejaVuSans-73" x="286.035156"/>
      </g>
     </g>
    </g>
    <g id="text_21">
     <!-- Time -->
     <g transform="translate(527.192969 608.407187) scale(0.14 -0.14)">
      <defs>
       <path id="DejaVuSans-69" d="M 603 3500 
L 1178 3500 
L 1178 0 
L 603 0 
L 603 3500 
z
M 603 4863 
L 1178 4863 
L 1178 4134 
L 603 4134 
L 603 4863 
z
" transform="scale(0.015625)"/>
       <path id="DejaVuSans-6d" d="M 3328 2828 
Q 3544 3216 3844 3400 
Q 4144 3584 4550 3584 
Q 5097 3584 5394 3201 
Q 5691 2819 5691 2113 
L 5691 0 
L 5113 0 
L 5113 2094 
Q 5113 2597 4934 2840 
Q 4756 3084 4391 3084 
Q 3944 3084 3684 2787 
Q 3425 2491 3425 1978 
L 3425 0 
L 2847 0 
L 2847 2094 
Q 2847 2600 2669 2842 
Q 2491 3084 2119 3084 
Q 1678 3084 1418 2786 
Q 1159 2488 1159 1978 
L 1159 0 
L 581 0 
L 581 3500 
L 1159 3500 
L 1159 2956 
Q 1356 3278 1631 3431 
Q 1906 3584 2284 3584 
Q 2666 3584 2933 3390 
Q 3200 3197 3328 2828 
z
" transform="scale(0.015625)"/>
       <path id="DejaVuSans-65" d="M 3597 1894 
L 3597 1613 
L 953 1613 
Q 991 1019 1311 708 
Q 1631 397 2203 397 
Q 2534 397 2845 478 
Q 3156 559 3463 722 
L 3463 178 
Q 3153 47 2828 -22 
Q 2503 -91 2169 -91 
Q 1331 -91 842 396 
Q 353 884 353 1716 
Q 353 2575 817 3079 
Q 1281 3584 2069 3584 
Q 2775 3584 3186 3129 
Q 3597 2675 3597 1894 
z
M 3022 2063 
Q 3016 2534 2758 2815 
Q 2500 3097 2075 3097 
Q 1594 3097 1305 2825 
Q 1016 2553 972 2059 
L 3022 2063 
z
" transform="scale(0.015625)"/>
      </defs>
      <use xlink:href="#DejaVuSans-54"/>
      <use xlink:href="#DejaVuSans-69" x="57.958984"/>
      <use xlink:href="#DejaVuSans-6d" x="85.742188"/>
      <use xlink:href="#DejaVuSans-65" x="183.154297"/>
     </g>
    </g>
   </g>
   <g id="matplotlib.axis_10">
    <g id="ytick_11">
     <g id="line2d_85">
      <path d="M 100.8 569.757341 
L 987.84 569.757341 
" clip-path="url(#pd592c5fd0d)" style="fill: none; stroke-dasharray: 1.85,0.8; stroke-dashoffset: 0; stroke: #b2b2b2; stroke-width: 0.5"/>
     </g>
     <g id="line2d_86">
      <g>
       <use xlink:href="#m092e296823" x="100.8" y="569.757341" style="stroke: #000000; stroke-width: 0.8"/>
      </g>
     </g>
     <g id="text_22">
      <!-- 0 V -->
      <g transform="translate(74.36625 575.076247) scale(0.14 -0.14)">
       <use xlink:href="#DejaVuSans-30"/>
       <use xlink:href="#DejaVuSans-20" x="63.623047"/>
       <use xlink:href="#DejaVuSans-56" x="95.410156"/>
      </g>
     </g>
    </g>
    <g id="ytick_12">
     <g id="line2d_87">
      <path d="M 100.8 536.102121 
L 987.84 536.102121 
" clip-path="url(#pd592c5fd0d)" style="fill: none; stroke-dasharray: 1.85,0.8; stroke-dashoffset: 0; stroke: #b2b2b2; stroke-width: 0.5"/>
     </g>
     <g id="line2d_88">
      <g>
       <use xlink:href="#m092e296823" x="100.8" y="536.102121" style="stroke: #000000; stroke-width: 0.8"/>
      </g>
     </g>
     <g id="text_23">
      <!-- 500 mV -->
      <g transform="translate(42.914375 541.421027) scale(0.14 -0.14)">
       <use xlink:href="#DejaVuSans-35"/>
       <use xlink:href="#DejaVuSans-30" x="63.623047"/>
       <use xlink:href="#DejaVuSans-30" x="127.246094"/>
       <use xlink:href="#DejaVuSans-20" x="190.869141"/>
       <use xlink:href="#DejaVuSans-6d" x="222.65625"/>
       <use xlink:href="#DejaVuSans-56" x="320.068359"/>
      </g>
     </g>
    </g>
    <g id="ytick_13">
     <g id="line2d_89">
      <path d="M 100.8 502.446902 
L 987.84 502.446902 
" clip-path="url(#pd592c5fd0d)" style="fill: none; stroke-dasharray: 1.85,0.8; stroke-dashoffset: 0; stroke: #b2b2b2; stroke-width: 0.5"/>
     </g>
     <g id="line2d_90">
      <g>
       <use xlink:href="#m092e296823" x="100.8" y="502.446902" style="stroke: #000000; stroke-width: 0.8"/>
      </g>
     </g>
     <g id="text_24">
      <!-- 1 V -->
      <g transform="translate(74.36625 507.765808) scale(0.14 -0.14)">
       <use xlink:href="#DejaVuSans-31"/>
       <use xlink:href="#DejaVuSans-20" x="63.623047"/>
       <use xlink:href="#DejaVuSans-56" x="95.410156"/>
      </g>
     </g>
    </g>
    <g id="text_25">
     <g id="patch_27">
      <path d="M 34.8768 554.329483 
L 34.8768 506.379483 
L 11.247425 506.379483 
L 11.247425 554.329483 
z
" style="fill: #ffff00; opacity: 0.2; stroke: #eeeeee; stroke-width: 0.5; stroke-linejoin: miter"/>
     </g>
     <!-- FOUT -->
     <g transform="translate(26.925238 549.289483) rotate(-90) scale(0.14 -0.14)">
      <use xlink:href="#DejaVuSans-46"/>
      <use xlink:href="#DejaVuSans-4f" x="57.519531"/>
      <use xlink:href="#DejaVuSans-55" x="136.230469"/>
      <use xlink:href="#DejaVuSans-54" x="209.423828"/>
     </g>
    </g>
   </g>
   <g id="line2d_91">
    <path d="M 141.12 488.984814 
L 173.472768 488.991545 
L 173.505024 488.796344 
L 173.569536 526.979537 
L 173.69856 572.504953 
L 173.730816 572.370063 
L 173.827584 567.861475 
L 173.892096 569.373954 
L 174.053376 570.074326 
L 174.117888 569.957287 
L 174.408192 569.504563 
L 174.440448 569.553814 
L 174.66624 569.741476 
L 176.182272 569.75163 
L 180.14976 569.772553 
L 193.729536 569.762601 
L 213.018624 569.755471 
L 255.30624 569.755169 
L 255.6288 488.877117 
L 255.854592 489.018469 
L 256.209408 488.978083 
L 334.849536 488.998276 
L 334.881792 493.184985 
L 335.043072 572.185094 
L 335.107584 570.270522 
L 335.172096 568.355937 
L 335.236608 568.885199 
L 335.365632 570.790152 
L 335.430144 570.41878 
L 335.591424 569.808455 
L 335.881728 569.660299 
L 336.559104 569.82908 
L 337.107456 569.757597 
L 350.042112 569.755669 
L 416.489472 569.754796 
L 416.553984 567.501701 
L 416.812032 488.554027 
L 416.844288 488.688648 
L 416.973312 489.200207 
L 417.037824 489.126166 
L 417.39264 488.89731 
L 417.844224 489.065586 
L 418.457088 488.910772 
L 419.328 488.984814 
L 526.74048 488.890579 
L 526.772736 488.735765 
L 526.804992 490.681037 
L 527.095296 569.755399 
L 529.869312 569.755656 
L 573.18912 569.832803 
L 573.221376 569.880485 
L 573.253632 569.708115 
L 573.318144 555.747346 
L 573.543936 489.159821 
L 573.705216 488.991545 
L 574.253568 488.984814 
L 576.834048 489.005007 
L 576.866304 488.204013 
L 577.027584 569.892985 
L 577.092096 569.754998 
L 581.640192 569.755776 
L 658.215936 569.744417 
L 658.280448 567.616061 
L 658.50624 489.173283 
L 658.66752 488.984814 
L 947.52 488.984814 
L 947.52 488.984814 
" clip-path="url(#pd592c5fd0d)" style="fill: none; stroke: #ff00ff; stroke-width: 2; stroke-linecap: square"/>
   </g>
   <g id="patch_28">
    <path d="M 100.8 576.72 
L 100.8 483.988966 
" style="fill: none; stroke: #bcbcbc; stroke-width: 0.8; stroke-linejoin: miter; stroke-linecap: square"/>
   </g>
   <g id="patch_29">
    <path d="M 987.84 576.72 
L 987.84 483.988966 
" style="fill: none; stroke: #bcbcbc; stroke-width: 0.8; stroke-linejoin: miter; stroke-linecap: square"/>
   </g>
   <g id="patch_30">
    <path d="M 100.8 576.72 
L 987.84 576.72 
" style="fill: none; stroke: #bcbcbc; stroke-width: 0.8; stroke-linejoin: miter; stroke-linecap: square"/>
   </g>
   <g id="patch_31">
    <path d="M 100.8 483.988966 
L 987.84 483.988966 
" style="fill: none; stroke: #bcbcbc; stroke-width: 0.8; stroke-linejoin: miter; stroke-linecap: square"/>
   </g>
  </g>
  <g id="axes_6">
   <g id="patch_32">
    <path d="M 201.6 628.56 
L 856.8 628.56 
L 856.8 615.6 
L 201.6 615.6 
z
" clip-path="url(#p2cfa789b1d)" style="fill: #d3d3d3"/>
   </g>
   <g id="patch_33">
    <path d="M 201.6 628.56 
L 669.6 628.56 
L 669.6 615.6 
L 201.6 615.6 
z
" clip-path="url(#p2cfa789b1d)" style="fill: #0000ff"/>
   </g>
   <g id="line2d_92">
    <path d="M 201.6 635.04 
L 201.6 609.12 
" clip-path="url(#pe203c7093d)" style="fill: none; stroke: #ff0000; stroke-linecap: square"/>
   </g>
   <g id="line2d_93">
    <defs>
     <path id="maee188f4e1" d="M 0 5 
C 1.326016 5 2.597899 4.473168 3.535534 3.535534 
C 4.473168 2.597899 5 1.326016 5 0 
C 5 -1.326016 4.473168 -2.597899 3.535534 -3.535534 
C 2.597899 -4.473168 1.326016 -5 0 -5 
C -1.326016 -5 -2.597899 -4.473168 -3.535534 -3.535534 
C -4.473168 -2.597899 -5 -1.326016 -5 0 
C -5 1.326016 -4.473168 2.597899 -3.535534 3.535534 
C -2.597899 4.473168 -1.326016 5 0 5 
z
" style="stroke: #bfbfbf"/>
    </defs>
    <g>
     <use xlink:href="#maee188f4e1" x="669.6" y="622.08" style="fill: #ffffff; stroke: #bfbfbf"/>
    </g>
   </g>
   <g id="text_26">
    <!-- #Sweep -->
    <g transform="translate(138.622875 625.39125) scale(0.12 -0.12)">
     <defs>
      <path id="DejaVuSans-23" d="M 3272 2816 
L 2363 2816 
L 2100 1772 
L 3016 1772 
L 3272 2816 
z
M 2803 4594 
L 2478 3297 
L 3391 3297 
L 3719 4594 
L 4219 4594 
L 3897 3297 
L 4872 3297 
L 4872 2816 
L 3775 2816 
L 3519 1772 
L 4513 1772 
L 4513 1294 
L 3397 1294 
L 3072 0 
L 2572 0 
L 2894 1294 
L 1978 1294 
L 1656 0 
L 1153 0 
L 1478 1294 
L 494 1294 
L 494 1772 
L 1594 1772 
L 1856 2816 
L 850 2816 
L 850 3297 
L 1978 3297 
L 2297 4594 
L 2803 4594 
z
" transform="scale(0.015625)"/>
      <path id="DejaVuSans-77" d="M 269 3500 
L 844 3500 
L 1563 769 
L 2278 3500 
L 2956 3500 
L 3675 769 
L 4391 3500 
L 4966 3500 
L 4050 0 
L 3372 0 
L 2619 2869 
L 1863 0 
L 1184 0 
L 269 3500 
z
" transform="scale(0.015625)"/>
      <path id="DejaVuSans-70" d="M 1159 525 
L 1159 -1331 
L 581 -1331 
L 581 3500 
L 1159 3500 
L 1159 2969 
Q 1341 3281 1617 3432 
Q 1894 3584 2278 3584 
Q 2916 3584 3314 3078 
Q 3713 2572 3713 1747 
Q 3713 922 3314 415 
Q 2916 -91 2278 -91 
Q 1894 -91 1617 61 
Q 1341 213 1159 525 
z
M 3116 1747 
Q 3116 2381 2855 2742 
Q 2594 3103 2138 3103 
Q 1681 3103 1420 2742 
Q 1159 2381 1159 1747 
Q 1159 1113 1420 752 
Q 1681 391 2138 391 
Q 2594 391 2855 752 
Q 3116 1113 3116 1747 
z
" transform="scale(0.015625)"/>
     </defs>
     <use xlink:href="#DejaVuSans-23"/>
     <use xlink:href="#DejaVuSans-53" x="83.789062"/>
     <use xlink:href="#DejaVuSans-77" x="147.265625"/>
     <use xlink:href="#DejaVuSans-65" x="229.052734"/>
     <use xlink:href="#DejaVuSans-65" x="290.576172"/>
     <use xlink:href="#DejaVuSans-70" x="352.099609"/>
    </g>
   </g>
   <g id="text_27">
    <!-- $\mathdefault{100}$ -->
    <g transform="translate(869.904 625.39125) scale(0.12 -0.12)">
     <use xlink:href="#DejaVuSans-31" transform="translate(0 0.78125)"/>
     <use xlink:href="#DejaVuSans-30" transform="translate(63.623047 0.78125)"/>
     <use xlink:href="#DejaVuSans-30" transform="translate(127.246094 0.78125)"/>
    </g>
   </g>
  </g>
  <g id="text_28">
   <!-- DFF under BBI sweep analysis (Sweep = 110E-9) -->
   <g transform="translate(308.25625 25.1175) scale(0.16 -0.16)">
    <defs>
     <path id="DejaVuSans-75" d="M 544 1381 
L 544 3500 
L 1119 3500 
L 1119 1403 
Q 1119 906 1312 657 
Q 1506 409 1894 409 
Q 2359 409 2629 706 
Q 2900 1003 2900 1516 
L 2900 3500 
L 3475 3500 
L 3475 0 
L 2900 0 
L 2900 538 
Q 2691 219 2414 64 
Q 2138 -91 1772 -91 
Q 1169 -91 856 284 
Q 544 659 544 1381 
z
M 1991 3584 
L 1991 3584 
z
" transform="scale(0.015625)"/>
     <path id="DejaVuSans-64" d="M 2906 2969 
L 2906 4863 
L 3481 4863 
L 3481 0 
L 2906 0 
L 2906 525 
Q 2725 213 2448 61 
Q 2172 -91 1784 -91 
Q 1150 -91 751 415 
Q 353 922 353 1747 
Q 353 2572 751 3078 
Q 1150 3584 1784 3584 
Q 2172 3584 2448 3432 
Q 2725 3281 2906 2969 
z
M 947 1747 
Q 947 1113 1208 752 
Q 1469 391 1925 391 
Q 2381 391 2643 752 
Q 2906 1113 2906 1747 
Q 2906 2381 2643 2742 
Q 2381 3103 1925 3103 
Q 1469 3103 1208 2742 
Q 947 2381 947 1747 
z
" transform="scale(0.015625)"/>
     <path id="DejaVuSans-72" d="M 2631 2963 
Q 2534 3019 2420 3045 
Q 2306 3072 2169 3072 
Q 1681 3072 1420 2755 
Q 1159 2438 1159 1844 
L 1159 0 
L 581 0 
L 581 3500 
L 1159 3500 
L 1159 2956 
Q 1341 3275 1631 3429 
Q 1922 3584 2338 3584 
Q 2397 3584 2469 3576 
Q 2541 3569 2628 3553 
L 2631 2963 
z
" transform="scale(0.015625)"/>
     <path id="DejaVuSans-61" d="M 2194 1759 
Q 1497 1759 1228 1600 
Q 959 1441 959 1056 
Q 959 750 1161 570 
Q 1363 391 1709 391 
Q 2188 391 2477 730 
Q 2766 1069 2766 1631 
L 2766 1759 
L 2194 1759 
z
M 3341 1997 
L 3341 0 
L 2766 0 
L 2766 531 
Q 2569 213 2275 61 
Q 1981 -91 1556 -91 
Q 1019 -91 701 211 
Q 384 513 384 1019 
Q 384 1609 779 1909 
Q 1175 2209 1959 2209 
L 2766 2209 
L 2766 2266 
Q 2766 2663 2505 2880 
Q 2244 3097 1772 3097 
Q 1472 3097 1187 3025 
Q 903 2953 641 2809 
L 641 3341 
Q 956 3463 1253 3523 
Q 1550 3584 1831 3584 
Q 2591 3584 2966 3190 
Q 3341 2797 3341 1997 
z
" transform="scale(0.015625)"/>
     <path id="DejaVuSans-6c" d="M 603 4863 
L 1178 4863 
L 1178 0 
L 603 0 
L 603 4863 
z
" transform="scale(0.015625)"/>
     <path id="DejaVuSans-79" d="M 2059 -325 
Q 1816 -950 1584 -1140 
Q 1353 -1331 966 -1331 
L 506 -1331 
L 506 -850 
L 844 -850 
Q 1081 -850 1212 -737 
Q 1344 -625 1503 -206 
L 1606 56 
L 191 3500 
L 800 3500 
L 1894 763 
L 2988 3500 
L 3597 3500 
L 2059 -325 
z
" transform="scale(0.015625)"/>
     <path id="DejaVuSans-28" d="M 1984 4856 
Q 1566 4138 1362 3434 
Q 1159 2731 1159 2009 
Q 1159 1288 1364 580 
Q 1569 -128 1984 -844 
L 1484 -844 
Q 1016 -109 783 600 
Q 550 1309 550 2009 
Q 550 2706 781 3412 
Q 1013 4119 1484 4856 
L 1984 4856 
z
" transform="scale(0.015625)"/>
     <path id="DejaVuSans-3d" d="M 678 2906 
L 4684 2906 
L 4684 2381 
L 678 2381 
L 678 2906 
z
M 678 1631 
L 4684 1631 
L 4684 1100 
L 678 1100 
L 678 1631 
z
" transform="scale(0.015625)"/>
     <path id="DejaVuSans-2d" d="M 313 2009 
L 1997 2009 
L 1997 1497 
L 313 1497 
L 313 2009 
z
" transform="scale(0.015625)"/>
     <path id="DejaVuSans-39" d="M 703 97 
L 703 672 
Q 941 559 1184 500 
Q 1428 441 1663 441 
Q 2288 441 2617 861 
Q 2947 1281 2994 2138 
Q 2813 1869 2534 1725 
Q 2256 1581 1919 1581 
Q 1219 1581 811 2004 
Q 403 2428 403 3163 
Q 403 3881 828 4315 
Q 1253 4750 1959 4750 
Q 2769 4750 3195 4129 
Q 3622 3509 3622 2328 
Q 3622 1225 3098 567 
Q 2575 -91 1691 -91 
Q 1453 -91 1209 -44 
Q 966 3 703 97 
z
M 1959 2075 
Q 2384 2075 2632 2365 
Q 2881 2656 2881 3163 
Q 2881 3666 2632 3958 
Q 2384 4250 1959 4250 
Q 1534 4250 1286 3958 
Q 1038 3666 1038 3163 
Q 1038 2656 1286 2365 
Q 1534 2075 1959 2075 
z
" transform="scale(0.015625)"/>
     <path id="DejaVuSans-29" d="M 513 4856 
L 1013 4856 
Q 1481 4119 1714 3412 
Q 1947 2706 1947 2009 
Q 1947 1309 1714 600 
Q 1481 -109 1013 -844 
L 513 -844 
Q 928 -128 1133 580 
Q 1338 1288 1338 2009 
Q 1338 2731 1133 3434 
Q 928 4138 513 4856 
z
" transform="scale(0.015625)"/>
    </defs>
    <use xlink:href="#DejaVuSans-44"/>
    <use xlink:href="#DejaVuSans-46" x="77.001953"/>
    <use xlink:href="#DejaVuSans-46" x="134.521484"/>
    <use xlink:href="#DejaVuSans-20" x="192.041016"/>
    <use xlink:href="#DejaVuSans-75" x="223.828125"/>
    <use xlink:href="#DejaVuSans-6e" x="287.207031"/>
    <use xlink:href="#DejaVuSans-64" x="350.585938"/>
    <use xlink:href="#DejaVuSans-65" x="414.0625"/>
    <use xlink:href="#DejaVuSans-72" x="475.585938"/>
    <use xlink:href="#DejaVuSans-20" x="516.699219"/>
    <use xlink:href="#DejaVuSans-42" x="548.486328"/>
    <use xlink:href="#DejaVuSans-42" x="617.089844"/>
    <use xlink:href="#DejaVuSans-49" x="685.693359"/>
    <use xlink:href="#DejaVuSans-20" x="715.185547"/>
    <use xlink:href="#DejaVuSans-73" x="746.972656"/>
    <use xlink:href="#DejaVuSans-77" x="799.072266"/>
    <use xlink:href="#DejaVuSans-65" x="880.859375"/>
    <use xlink:href="#DejaVuSans-65" x="942.382812"/>
    <use xlink:href="#DejaVuSans-70" x="1003.90625"/>
    <use xlink:href="#DejaVuSans-20" x="1067.382812"/>
    <use xlink:href="#DejaVuSans-61" x="1099.169922"/>
    <use xlink:href="#DejaVuSans-6e" x="1160.449219"/>
    <use xlink:href="#DejaVuSans-61" x="1223.828125"/>
    <use xlink:href="#DejaVuSans-6c" x="1285.107422"/>
    <use xlink:href="#DejaVuSans-79" x="1312.890625"/>
    <use xlink:href="#DejaVuSans-73" x="1372.070312"/>
    <use xlink:href="#DejaVuSans-69" x="1424.169922"/>
    <use xlink:href="#DejaVuSans-73" x="1451.953125"/>
    <use xlink:href="#DejaVuSans-20" x="1504.052734"/>
    <use xlink:href="#DejaVuSans-28" x="1535.839844"/>
    <use xlink:href="#DejaVuSans-53" x="1574.853516"/>
    <use xlink:href="#DejaVuSans-77" x="1638.330078"/>
    <use xlink:href="#DejaVuSans-65" x="1720.117188"/>
    <use xlink:href="#DejaVuSans-65" x="1781.640625"/>
    <use xlink:href="#DejaVuSans-70" x="1843.164062"/>
    <use xlink:href="#DejaVuSans-20" x="1906.640625"/>
    <use xlink:href="#DejaVuSans-3d" x="1938.427734"/>
    <use xlink:href="#DejaVuSans-20" x="2022.216797"/>
    <use xlink:href="#DejaVuSans-31" x="2054.003906"/>
    <use xlink:href="#DejaVuSans-31" x="2117.626953"/>
    <use xlink:href="#DejaVuSans-30" x="2181.25"/>
    <use xlink:href="#DejaVuSans-45" x="2244.873047"/>
    <use xlink:href="#DejaVuSans-2d" x="2308.056641"/>
    <use xlink:href="#DejaVuSans-39" x="2344.140625"/>
    <use xlink:href="#DejaVuSans-29" x="2407.763672"/>
   </g>
  </g>
 </g>
 <defs>
  <clipPath id="pb3e98d5690">
   <rect x="100.8" y="38.88" width="887.04" height="92.731034"/>
  </clipPath>
  <clipPath id="p61c5782765">
   <rect x="100.8" y="150.157241" width="887.04" height="92.731034"/>
  </clipPath>
  <clipPath id="p9d7a4b3a3a">
   <rect x="100.8" y="261.434483" width="887.04" height="92.731034"/>
  </clipPath>
  <clipPath id="p2fa80ba652">
   <rect x="100.8" y="372.711724" width="887.04" height="92.731034"/>
  </clipPath>
  <clipPath id="pd592c5fd0d">
   <rect x="100.8" y="483.988966" width="887.04" height="92.731034"/>
  </clipPath>
  <clipPath id="p2cfa789b1d">
   <rect x="201.6" y="609.12" width="655.2" height="25.92"/>
  </clipPath>
  <clipPath id="pe203c7093d">
   <path d="M 201.6 628.56 
L 856.8 628.56 
L 856.8 615.6 
L 201.6 615.6 
z
"/>
  </clipPath>
 </defs>
</svg>
