<?xml version="1.0" encoding="utf-8" standalone="no"?>
<!DOCTYPE svg PUBLIC "-//W3C//DTD SVG 1.1//EN"
  "http://www.w3.org/Graphics/SVG/1.1/DTD/svg11.dtd">
<svg xmlns:xlink="http://www.w3.org/1999/xlink" width="1008pt" height="648pt" viewBox="0 0 1008 648" xmlns="http://www.w3.org/2000/svg" version="1.1">
 <metadata>
  <rdf:RDF xmlns:dc="http://purl.org/dc/elements/1.1/" xmlns:cc="http://creativecommons.org/ns#" xmlns:rdf="http://www.w3.org/1999/02/22-rdf-syntax-ns#">
   <cc:Work>
    <dc:type rdf:resource="http://purl.org/dc/dcmitype/StillImage"/>
    <dc:date>2024-06-03T10:45:47.510718</dc:date>
    <dc:format>image/svg+xml</dc:format>
    <dc:creator>
     <cc:Agent>
      <dc:title>Matplotlib v3.9.0, https://matplotlib.org/</dc:title>
     </cc:Agent>
    </dc:creator>
   </cc:Work>
  </rdf:RDF>
 </metadata>
 <defs>
  <style type="text/css">*{stroke-linejoin: round; stroke-linecap: butt}</style>
 </defs>
 <g id="figure_1">
  <g id="patch_1">
   <path d="M 0 648 
L 1008 648 
L 1008 0 
L 0 0 
z
" style="fill: #ffffff"/>
  </g>
  <g id="axes_1">
   <g id="patch_2">
    <path d="M 100.8 131.611034 
L 987.84 131.611034 
L 987.84 38.88 
L 100.8 38.88 
z
" style="fill: #eeeeee"/>
   </g>
   <g id="matplotlib.axis_1">
    <g id="xtick_1">
     <g id="line2d_1">
      <path d="M 141.12 131.611034 
L 141.12 38.88 
" clip-path="url(#pce0f07fda6)" style="fill: none; stroke-dasharray: 1.85,0.8; stroke-dashoffset: 0; stroke: #b2b2b2; stroke-width: 0.5"/>
     </g>
     <g id="line2d_2">
      <defs>
       <path id="m0bb7bb918a" d="M 0 0 
L 0 -3.5 
" style="stroke: #000000; stroke-width: 0.8"/>
      </defs>
      <g>
       <use xlink:href="#m0bb7bb918a" x="141.12" y="131.611034" style="stroke: #000000; stroke-width: 0.8"/>
      </g>
     </g>
    </g>
    <g id="xtick_2">
     <g id="line2d_3">
      <path d="M 302.4 131.611034 
L 302.4 38.88 
" clip-path="url(#pce0f07fda6)" style="fill: none; stroke-dasharray: 1.85,0.8; stroke-dashoffset: 0; stroke: #b2b2b2; stroke-width: 0.5"/>
     </g>
     <g id="line2d_4">
      <g>
       <use xlink:href="#m0bb7bb918a" x="302.4" y="131.611034" style="stroke: #000000; stroke-width: 0.8"/>
      </g>
     </g>
    </g>
    <g id="xtick_3">
     <g id="line2d_5">
      <path d="M 463.68 131.611034 
L 463.68 38.88 
" clip-path="url(#pce0f07fda6)" style="fill: none; stroke-dasharray: 1.85,0.8; stroke-dashoffset: 0; stroke: #b2b2b2; stroke-width: 0.5"/>
     </g>
     <g id="line2d_6">
      <g>
       <use xlink:href="#m0bb7bb918a" x="463.68" y="131.611034" style="stroke: #000000; stroke-width: 0.8"/>
      </g>
     </g>
    </g>
    <g id="xtick_4">
     <g id="line2d_7">
      <path d="M 624.96 131.611034 
L 624.96 38.88 
" clip-path="url(#pce0f07fda6)" style="fill: none; stroke-dasharray: 1.85,0.8; stroke-dashoffset: 0; stroke: #b2b2b2; stroke-width: 0.5"/>
     </g>
     <g id="line2d_8">
      <g>
       <use xlink:href="#m0bb7bb918a" x="624.96" y="131.611034" style="stroke: #000000; stroke-width: 0.8"/>
      </g>
     </g>
    </g>
    <g id="xtick_5">
     <g id="line2d_9">
      <path d="M 786.24 131.611034 
L 786.24 38.88 
" clip-path="url(#pce0f07fda6)" style="fill: none; stroke-dasharray: 1.85,0.8; stroke-dashoffset: 0; stroke: #b2b2b2; stroke-width: 0.5"/>
     </g>
     <g id="line2d_10">
      <g>
       <use xlink:href="#m0bb7bb918a" x="786.24" y="131.611034" style="stroke: #000000; stroke-width: 0.8"/>
      </g>
     </g>
    </g>
    <g id="xtick_6">
     <g id="line2d_11">
      <path d="M 947.52 131.611034 
L 947.52 38.88 
" clip-path="url(#pce0f07fda6)" style="fill: none; stroke-dasharray: 1.85,0.8; stroke-dashoffset: 0; stroke: #b2b2b2; stroke-width: 0.5"/>
     </g>
     <g id="line2d_12">
      <g>
       <use xlink:href="#m0bb7bb918a" x="947.52" y="131.611034" style="stroke: #000000; stroke-width: 0.8"/>
      </g>
     </g>
    </g>
   </g>
   <g id="matplotlib.axis_2">
    <g id="ytick_1">
     <g id="line2d_13">
      <path d="M 100.8 98.340394 
L 987.84 98.340394 
" clip-path="url(#pce0f07fda6)" style="fill: none; stroke-dasharray: 1.85,0.8; stroke-dashoffset: 0; stroke: #b2b2b2; stroke-width: 0.5"/>
     </g>
     <g id="line2d_14">
      <defs>
       <path id="m7e766f3585" d="M 0 0 
L 3.5 0 
" style="stroke: #000000; stroke-width: 0.8"/>
      </defs>
      <g>
       <use xlink:href="#m7e766f3585" x="100.8" y="98.340394" style="stroke: #000000; stroke-width: 0.8"/>
      </g>
     </g>
     <g id="text_1">
      <!-- −200 V -->
      <g transform="translate(44.819688 103.6593) scale(0.14 -0.14)">
       <defs>
        <path id="DejaVuSans-2212" d="M 678 2272 
L 4684 2272 
L 4684 1741 
L 678 1741 
L 678 2272 
z
" transform="scale(0.015625)"/>
        <path id="DejaVuSans-32" d="M 1228 531 
L 3431 531 
L 3431 0 
L 469 0 
L 469 531 
Q 828 903 1448 1529 
Q 2069 2156 2228 2338 
Q 2531 2678 2651 2914 
Q 2772 3150 2772 3378 
Q 2772 3750 2511 3984 
Q 2250 4219 1831 4219 
Q 1534 4219 1204 4116 
Q 875 4013 500 3803 
L 500 4441 
Q 881 4594 1212 4672 
Q 1544 4750 1819 4750 
Q 2544 4750 2975 4387 
Q 3406 4025 3406 3419 
Q 3406 3131 3298 2873 
Q 3191 2616 2906 2266 
Q 2828 2175 2409 1742 
Q 1991 1309 1228 531 
z
" transform="scale(0.015625)"/>
        <path id="DejaVuSans-30" d="M 2034 4250 
Q 1547 4250 1301 3770 
Q 1056 3291 1056 2328 
Q 1056 1369 1301 889 
Q 1547 409 2034 409 
Q 2525 409 2770 889 
Q 3016 1369 3016 2328 
Q 3016 3291 2770 3770 
Q 2525 4250 2034 4250 
z
M 2034 4750 
Q 2819 4750 3233 4129 
Q 3647 3509 3647 2328 
Q 3647 1150 3233 529 
Q 2819 -91 2034 -91 
Q 1250 -91 836 529 
Q 422 1150 422 2328 
Q 422 3509 836 4129 
Q 1250 4750 2034 4750 
z
" transform="scale(0.015625)"/>
        <path id="DejaVuSans-20" transform="scale(0.015625)"/>
        <path id="DejaVuSans-56" d="M 1831 0 
L 50 4666 
L 709 4666 
L 2188 738 
L 3669 4666 
L 4325 4666 
L 2547 0 
L 1831 0 
z
" transform="scale(0.015625)"/>
       </defs>
       <use xlink:href="#DejaVuSans-2212"/>
       <use xlink:href="#DejaVuSans-32" x="83.789062"/>
       <use xlink:href="#DejaVuSans-30" x="147.412109"/>
       <use xlink:href="#DejaVuSans-30" x="211.035156"/>
       <use xlink:href="#DejaVuSans-20" x="274.658203"/>
       <use xlink:href="#DejaVuSans-56" x="306.445312"/>
      </g>
     </g>
    </g>
    <g id="ytick_2">
     <g id="line2d_15">
      <path d="M 100.8 45.027377 
L 987.84 45.027377 
" clip-path="url(#pce0f07fda6)" style="fill: none; stroke-dasharray: 1.85,0.8; stroke-dashoffset: 0; stroke: #b2b2b2; stroke-width: 0.5"/>
     </g>
     <g id="line2d_16">
      <g>
       <use xlink:href="#m7e766f3585" x="100.8" y="45.027377" style="stroke: #000000; stroke-width: 0.8"/>
      </g>
     </g>
     <g id="text_2">
      <!-- 0 V -->
      <g transform="translate(74.36625 50.346284) scale(0.14 -0.14)">
       <use xlink:href="#DejaVuSans-30"/>
       <use xlink:href="#DejaVuSans-20" x="63.623047"/>
       <use xlink:href="#DejaVuSans-56" x="95.410156"/>
      </g>
     </g>
    </g>
    <g id="text_3">
     <g id="patch_3">
      <path d="M 34.8768 131.080205 
L 34.8768 39.41083 
L 11.247425 39.41083 
L 11.247425 131.080205 
z
" style="fill: #ffff00; opacity: 0.2; stroke: #eeeeee; stroke-width: 0.5; stroke-linejoin: miter"/>
     </g>
     <!-- VPULSE BBI -->
     <g transform="translate(26.925238 126.040205) rotate(-90) scale(0.14 -0.14)">
      <defs>
       <path id="DejaVuSans-50" d="M 1259 4147 
L 1259 2394 
L 2053 2394 
Q 2494 2394 2734 2622 
Q 2975 2850 2975 3272 
Q 2975 3691 2734 3919 
Q 2494 4147 2053 4147 
L 1259 4147 
z
M 628 4666 
L 2053 4666 
Q 2838 4666 3239 4311 
Q 3641 3956 3641 3272 
Q 3641 2581 3239 2228 
Q 2838 1875 2053 1875 
L 1259 1875 
L 1259 0 
L 628 0 
L 628 4666 
z
" transform="scale(0.015625)"/>
       <path id="DejaVuSans-55" d="M 556 4666 
L 1191 4666 
L 1191 1831 
Q 1191 1081 1462 751 
Q 1734 422 2344 422 
Q 2950 422 3222 751 
Q 3494 1081 3494 1831 
L 3494 4666 
L 4128 4666 
L 4128 1753 
Q 4128 841 3676 375 
Q 3225 -91 2344 -91 
Q 1459 -91 1007 375 
Q 556 841 556 1753 
L 556 4666 
z
" transform="scale(0.015625)"/>
       <path id="DejaVuSans-4c" d="M 628 4666 
L 1259 4666 
L 1259 531 
L 3531 531 
L 3531 0 
L 628 0 
L 628 4666 
z
" transform="scale(0.015625)"/>
       <path id="DejaVuSans-53" d="M 3425 4513 
L 3425 3897 
Q 3066 4069 2747 4153 
Q 2428 4238 2131 4238 
Q 1616 4238 1336 4038 
Q 1056 3838 1056 3469 
Q 1056 3159 1242 3001 
Q 1428 2844 1947 2747 
L 2328 2669 
Q 3034 2534 3370 2195 
Q 3706 1856 3706 1288 
Q 3706 609 3251 259 
Q 2797 -91 1919 -91 
Q 1588 -91 1214 -16 
Q 841 59 441 206 
L 441 856 
Q 825 641 1194 531 
Q 1563 422 1919 422 
Q 2459 422 2753 634 
Q 3047 847 3047 1241 
Q 3047 1584 2836 1778 
Q 2625 1972 2144 2069 
L 1759 2144 
Q 1053 2284 737 2584 
Q 422 2884 422 3419 
Q 422 4038 858 4394 
Q 1294 4750 2059 4750 
Q 2388 4750 2728 4690 
Q 3069 4631 3425 4513 
z
" transform="scale(0.015625)"/>
       <path id="DejaVuSans-45" d="M 628 4666 
L 3578 4666 
L 3578 4134 
L 1259 4134 
L 1259 2753 
L 3481 2753 
L 3481 2222 
L 1259 2222 
L 1259 531 
L 3634 531 
L 3634 0 
L 628 0 
L 628 4666 
z
" transform="scale(0.015625)"/>
       <path id="DejaVuSans-42" d="M 1259 2228 
L 1259 519 
L 2272 519 
Q 2781 519 3026 730 
Q 3272 941 3272 1375 
Q 3272 1813 3026 2020 
Q 2781 2228 2272 2228 
L 1259 2228 
z
M 1259 4147 
L 1259 2741 
L 2194 2741 
Q 2656 2741 2882 2914 
Q 3109 3088 3109 3444 
Q 3109 3797 2882 3972 
Q 2656 4147 2194 4147 
L 1259 4147 
z
M 628 4666 
L 2241 4666 
Q 2963 4666 3353 4366 
Q 3744 4066 3744 3513 
Q 3744 3084 3544 2831 
Q 3344 2578 2956 2516 
Q 3422 2416 3680 2098 
Q 3938 1781 3938 1306 
Q 3938 681 3513 340 
Q 3088 0 2303 0 
L 628 0 
L 628 4666 
z
" transform="scale(0.015625)"/>
       <path id="DejaVuSans-49" d="M 628 4666 
L 1259 4666 
L 1259 0 
L 628 0 
L 628 4666 
z
" transform="scale(0.015625)"/>
      </defs>
      <use xlink:href="#DejaVuSans-56"/>
      <use xlink:href="#DejaVuSans-50" x="68.408203"/>
      <use xlink:href="#DejaVuSans-55" x="128.710938"/>
      <use xlink:href="#DejaVuSans-4c" x="201.904297"/>
      <use xlink:href="#DejaVuSans-53" x="257.617188"/>
      <use xlink:href="#DejaVuSans-45" x="321.09375"/>
      <use xlink:href="#DejaVuSans-20" x="384.277344"/>
      <use xlink:href="#DejaVuSans-42" x="416.064453"/>
      <use xlink:href="#DejaVuSans-42" x="484.667969"/>
      <use xlink:href="#DejaVuSans-49" x="553.271484"/>
     </g>
    </g>
   </g>
   <g id="line2d_17">
    <path d="M 141.12 45.027377 
L 460.486656 45.136282 
L 460.970496 46.425538 
L 469.195776 69.006772 
L 476.614656 89.863624 
L 478.227456 94.440546 
L 480.033792 99.673219 
L 483.51744 110.807642 
L 485.097984 115.853719 
L 486.388224 119.585631 
L 486.839808 119.80688 
L 487.904256 120.297359 
L 488.388096 120.526605 
L 489.452544 121.017085 
L 490.033152 121.272988 
L 490.904064 121.656841 
L 491.484672 121.912744 
L 492.323328 122.269941 
L 493.903872 122.936354 
L 494.548992 123.202919 
L 495.645696 123.629423 
L 496.387584 123.922644 
L 497.484288 124.349149 
L 498.387456 124.677024 
L 499.064832 124.943589 
L 499.871232 125.25547 
L 501.225984 125.804594 
L 503.870976 126.790885 
L 504.48384 127.022796 
L 506.4192 127.395987 
L 524.901888 127.289361 
L 525.12768 126.801547 
L 543.416832 75.087922 
L 547.158528 63.292417 
L 550.867968 51.617666 
L 555.480576 49.3412 
L 560.835072 46.984578 
L 569.544192 43.484472 
L 570.415104 43.268927 
L 584.704512 43.108189 
L 591.510528 43.184799 
L 606.864384 43.746186 
L 634.6368 44.46146 
L 660.28032 44.774399 
L 695.890944 44.945888 
L 743.920128 44.953885 
L 947.52 44.953885 
L 947.52 44.953885 
" clip-path="url(#pce0f07fda6)" style="fill: none; stroke: #ff0000; stroke-width: 2; stroke-linecap: square"/>
   </g>
   <g id="patch_4">
    <path d="M 100.8 131.611034 
L 100.8 38.88 
" style="fill: none; stroke: #bcbcbc; stroke-width: 0.8; stroke-linejoin: miter; stroke-linecap: square"/>
   </g>
   <g id="patch_5">
    <path d="M 987.84 131.611034 
L 987.84 38.88 
" style="fill: none; stroke: #bcbcbc; stroke-width: 0.8; stroke-linejoin: miter; stroke-linecap: square"/>
   </g>
   <g id="patch_6">
    <path d="M 100.8 131.611034 
L 987.84 131.611034 
" style="fill: none; stroke: #bcbcbc; stroke-width: 0.8; stroke-linejoin: miter; stroke-linecap: square"/>
   </g>
   <g id="patch_7">
    <path d="M 100.8 38.88 
L 987.84 38.88 
" style="fill: none; stroke: #bcbcbc; stroke-width: 0.8; stroke-linejoin: miter; stroke-linecap: square"/>
   </g>
  </g>
  <g id="axes_2">
   <g id="patch_8">
    <path d="M 100.8 242.888276 
L 987.84 242.888276 
L 987.84 150.157241 
L 100.8 150.157241 
z
" style="fill: #eeeeee"/>
   </g>
   <g id="matplotlib.axis_3">
    <g id="xtick_7">
     <g id="line2d_18">
      <path d="M 141.12 242.888276 
L 141.12 150.157241 
" clip-path="url(#p7c3428cfea)" style="fill: none; stroke-dasharray: 1.85,0.8; stroke-dashoffset: 0; stroke: #b2b2b2; stroke-width: 0.5"/>
     </g>
     <g id="line2d_19">
      <g>
       <use xlink:href="#m0bb7bb918a" x="141.12" y="242.888276" style="stroke: #000000; stroke-width: 0.8"/>
      </g>
     </g>
    </g>
    <g id="xtick_8">
     <g id="line2d_20">
      <path d="M 302.4 242.888276 
L 302.4 150.157241 
" clip-path="url(#p7c3428cfea)" style="fill: none; stroke-dasharray: 1.85,0.8; stroke-dashoffset: 0; stroke: #b2b2b2; stroke-width: 0.5"/>
     </g>
     <g id="line2d_21">
      <g>
       <use xlink:href="#m0bb7bb918a" x="302.4" y="242.888276" style="stroke: #000000; stroke-width: 0.8"/>
      </g>
     </g>
    </g>
    <g id="xtick_9">
     <g id="line2d_22">
      <path d="M 463.68 242.888276 
L 463.68 150.157241 
" clip-path="url(#p7c3428cfea)" style="fill: none; stroke-dasharray: 1.85,0.8; stroke-dashoffset: 0; stroke: #b2b2b2; stroke-width: 0.5"/>
     </g>
     <g id="line2d_23">
      <g>
       <use xlink:href="#m0bb7bb918a" x="463.68" y="242.888276" style="stroke: #000000; stroke-width: 0.8"/>
      </g>
     </g>
    </g>
    <g id="xtick_10">
     <g id="line2d_24">
      <path d="M 624.96 242.888276 
L 624.96 150.157241 
" clip-path="url(#p7c3428cfea)" style="fill: none; stroke-dasharray: 1.85,0.8; stroke-dashoffset: 0; stroke: #b2b2b2; stroke-width: 0.5"/>
     </g>
     <g id="line2d_25">
      <g>
       <use xlink:href="#m0bb7bb918a" x="624.96" y="242.888276" style="stroke: #000000; stroke-width: 0.8"/>
      </g>
     </g>
    </g>
    <g id="xtick_11">
     <g id="line2d_26">
      <path d="M 786.24 242.888276 
L 786.24 150.157241 
" clip-path="url(#p7c3428cfea)" style="fill: none; stroke-dasharray: 1.85,0.8; stroke-dashoffset: 0; stroke: #b2b2b2; stroke-width: 0.5"/>
     </g>
     <g id="line2d_27">
      <g>
       <use xlink:href="#m0bb7bb918a" x="786.24" y="242.888276" style="stroke: #000000; stroke-width: 0.8"/>
      </g>
     </g>
    </g>
    <g id="xtick_12">
     <g id="line2d_28">
      <path d="M 947.52 242.888276 
L 947.52 150.157241 
" clip-path="url(#p7c3428cfea)" style="fill: none; stroke-dasharray: 1.85,0.8; stroke-dashoffset: 0; stroke: #b2b2b2; stroke-width: 0.5"/>
     </g>
     <g id="line2d_29">
      <g>
       <use xlink:href="#m0bb7bb918a" x="947.52" y="242.888276" style="stroke: #000000; stroke-width: 0.8"/>
      </g>
     </g>
    </g>
   </g>
   <g id="matplotlib.axis_4">
    <g id="ytick_3">
     <g id="line2d_30">
      <path d="M 100.8 219.199314 
L 987.84 219.199314 
" clip-path="url(#p7c3428cfea)" style="fill: none; stroke-dasharray: 1.85,0.8; stroke-dashoffset: 0; stroke: #b2b2b2; stroke-width: 0.5"/>
     </g>
     <g id="line2d_31">
      <g>
       <use xlink:href="#m7e766f3585" x="100.8" y="219.199314" style="stroke: #000000; stroke-width: 0.8"/>
      </g>
     </g>
     <g id="text_4">
      <!-- 0 V -->
      <g transform="translate(74.36625 224.51822) scale(0.14 -0.14)">
       <use xlink:href="#DejaVuSans-30"/>
       <use xlink:href="#DejaVuSans-20" x="63.623047"/>
       <use xlink:href="#DejaVuSans-56" x="95.410156"/>
      </g>
     </g>
    </g>
    <g id="ytick_4">
     <g id="line2d_32">
      <path d="M 100.8 185.242462 
L 987.84 185.242462 
" clip-path="url(#p7c3428cfea)" style="fill: none; stroke-dasharray: 1.85,0.8; stroke-dashoffset: 0; stroke: #b2b2b2; stroke-width: 0.5"/>
     </g>
     <g id="line2d_33">
      <g>
       <use xlink:href="#m7e766f3585" x="100.8" y="185.242462" style="stroke: #000000; stroke-width: 0.8"/>
      </g>
     </g>
     <g id="text_5">
      <!-- 1 V -->
      <g transform="translate(74.36625 190.561369) scale(0.14 -0.14)">
       <defs>
        <path id="DejaVuSans-31" d="M 794 531 
L 1825 531 
L 1825 4091 
L 703 3866 
L 703 4441 
L 1819 4666 
L 2450 4666 
L 2450 531 
L 3481 531 
L 3481 0 
L 794 0 
L 794 531 
z
" transform="scale(0.015625)"/>
       </defs>
       <use xlink:href="#DejaVuSans-31"/>
       <use xlink:href="#DejaVuSans-20" x="63.623047"/>
       <use xlink:href="#DejaVuSans-56" x="95.410156"/>
      </g>
     </g>
    </g>
    <g id="ytick_5">
     <g id="line2d_34">
      <path d="M 100.8 151.285611 
L 987.84 151.285611 
" clip-path="url(#p7c3428cfea)" style="fill: none; stroke-dasharray: 1.85,0.8; stroke-dashoffset: 0; stroke: #b2b2b2; stroke-width: 0.5"/>
     </g>
     <g id="line2d_35">
      <g>
       <use xlink:href="#m7e766f3585" x="100.8" y="151.285611" style="stroke: #000000; stroke-width: 0.8"/>
      </g>
     </g>
     <g id="text_6">
      <!-- 2 V -->
      <g transform="translate(74.36625 156.604517) scale(0.14 -0.14)">
       <use xlink:href="#DejaVuSans-32"/>
       <use xlink:href="#DejaVuSans-20" x="63.623047"/>
       <use xlink:href="#DejaVuSans-56" x="95.410156"/>
      </g>
     </g>
    </g>
    <g id="text_7">
     <g id="patch_9">
      <path d="M 34.8768 224.531509 
L 34.8768 168.514009 
L 11.247425 168.514009 
L 11.247425 224.531509 
z
" style="fill: #ffff00; opacity: 0.2; stroke: #eeeeee; stroke-width: 0.5; stroke-linejoin: miter"/>
     </g>
     <!-- DFF IN -->
     <g transform="translate(26.925238 219.491509) rotate(-90) scale(0.14 -0.14)">
      <defs>
       <path id="DejaVuSans-44" d="M 1259 4147 
L 1259 519 
L 2022 519 
Q 2988 519 3436 956 
Q 3884 1394 3884 2338 
Q 3884 3275 3436 3711 
Q 2988 4147 2022 4147 
L 1259 4147 
z
M 628 4666 
L 1925 4666 
Q 3281 4666 3915 4102 
Q 4550 3538 4550 2338 
Q 4550 1131 3912 565 
Q 3275 0 1925 0 
L 628 0 
L 628 4666 
z
" transform="scale(0.015625)"/>
       <path id="DejaVuSans-46" d="M 628 4666 
L 3309 4666 
L 3309 4134 
L 1259 4134 
L 1259 2759 
L 3109 2759 
L 3109 2228 
L 1259 2228 
L 1259 0 
L 628 0 
L 628 4666 
z
" transform="scale(0.015625)"/>
       <path id="DejaVuSans-4e" d="M 628 4666 
L 1478 4666 
L 3547 763 
L 3547 4666 
L 4159 4666 
L 4159 0 
L 3309 0 
L 1241 3903 
L 1241 0 
L 628 0 
L 628 4666 
z
" transform="scale(0.015625)"/>
      </defs>
      <use xlink:href="#DejaVuSans-44"/>
      <use xlink:href="#DejaVuSans-46" x="77.001953"/>
      <use xlink:href="#DejaVuSans-46" x="134.521484"/>
      <use xlink:href="#DejaVuSans-20" x="192.041016"/>
      <use xlink:href="#DejaVuSans-49" x="223.828125"/>
      <use xlink:href="#DejaVuSans-4e" x="253.320312"/>
     </g>
    </g>
   </g>
   <g id="line2d_36">
    <path d="M 141.12 219.149723 
L 221.953536 219.103158 
L 224.437248 200.182798 
L 225.404928 194.427112 
L 228.243456 181.772072 
L 229.598208 180.502086 
L 231.178752 179.629395 
L 236.533248 179.174373 
L 243.5328 179.065711 
L 244.952064 179.024963 
L 248.145408 178.916301 
L 249.790464 178.851783 
L 251.887104 178.743121 
L 254.241792 178.396761 
L 254.757888 177.860243 
L 255.499776 177.520674 
L 256.338432 177.534257 
L 259.789824 178.148876 
L 262.467072 178.322056 
L 263.886336 178.369595 
L 264.144384 183.605742 
L 264.434688 187.168495 
L 265.176576 191.914644 
L 267.144192 209.238411 
L 268.402176 215.742846 
L 269.047296 217.02526 
L 270.46656 218.786942 
L 273.724416 219.201147 
L 282.530304 219.153761 
L 297.045504 219.143642 
L 305.851392 219.148908 
L 347.751936 219.104853 
L 350.235648 200.222867 
L 351.622656 191.590017 
L 352.654848 186.301576 
L 354.97728 179.3102 
L 358.493184 178.311869 
L 360.202752 178.383178 
L 363.009024 178.49184 
L 364.33152 178.522401 
L 375.169536 178.593711 
L 375.717888 179.585251 
L 376.169472 180.335697 
L 377.008128 181.242345 
L 377.524224 181.19141 
L 378.427392 180.899381 
L 380.427264 179.761826 
L 381.58848 179.388301 
L 387.168768 178.909509 
L 389.587968 178.800848 
L 391.684608 178.68879 
L 394.232832 178.580128 
L 395.61984 178.542775 
L 415.360512 178.457883 
L 416.489472 177.527466 
L 417.037824 177.462948 
L 417.908736 177.571609 
L 419.16672 177.853451 
L 420.908544 178.108128 
L 423.940608 178.31866 
L 455.712768 178.420531 
L 457.003008 179.378114 
L 457.906176 179.463006 
L 460.518912 179.293222 
L 461.035008 180.114978 
L 461.938176 181.432504 
L 464.16384 184.179613 
L 466.324992 187.088357 
L 469.64736 191.751312 
L 470.098944 193.110265 
L 471.42144 197.912782 
L 471.808512 199.435068 
L 472.034304 200.350205 
L 472.356864 201.57401 
L 472.582656 202.475225 
L 473.51808 206.956511 
L 474.840576 212.511852 
L 477.195264 220.844388 
L 477.517824 221.695516 
L 477.937152 223.133555 
L 478.388736 223.988249 
L 478.775808 225.08913 
L 479.259648 225.961142 
L 479.678976 226.392054 
L 479.937024 226.954719 
L 480.324096 228.042018 
L 480.646656 228.578196 
L 480.93696 228.98466 
L 481.25952 229.855653 
L 481.678848 230.81018 
L 482.517504 232.21905 
L 483.065856 233.302613 
L 483.323904 233.74575 
L 484.388352 235.687742 
L 484.80768 236.333262 
L 485.710848 237.966926 
L 486.226944 238.64844 
L 486.484992 238.619917 
L 486.839808 238.211416 
L 487.22688 237.763864 
L 487.517184 237.283714 
L 488.03328 236.241579 
L 488.388096 235.93359 
L 489.355776 234.617762 
L 489.775104 234.087696 
L 489.936384 234.0843 
L 491.194368 233.03775 
L 491.645952 232.469652 
L 491.968512 231.924644 
L 492.323328 231.700189 
L 492.484608 231.649933 
L 492.807168 231.374204 
L 493.258752 231.142618 
L 494.64576 229.568378 
L 494.96832 229.224395 
L 495.097344 229.242732 
L 495.29088 229.18908 
L 495.548928 229.011146 
L 495.968256 228.784314 
L 497.516544 227.338092 
L 498.03264 226.776106 
L 498.3552 226.674915 
L 498.774528 226.424653 
L 500.806656 224.663651 
L 501.09696 224.372301 
L 501.935616 224.002511 
L 503.774208 222.595678 
L 505.29024 221.338664 
L 506.290176 220.353711 
L 507.096576 219.26319 
L 508.064256 217.921925 
L 508.644864 217.144313 
L 509.6448 215.715341 
L 512.580096 211.945791 
L 514.773504 209.46762 
L 515.45088 207.519515 
L 516.676608 203.925862 
L 517.773312 201.436824 
L 518.934528 199.555954 
L 519.579648 198.705675 
L 520.095744 198.114486 
L 522.127872 195.581305 
L 522.805248 194.646473 
L 523.385856 194.070904 
L 524.676096 192.79175 
L 525.063168 192.186638 
L 525.417984 191.046367 
L 526.998528 185.579314 
L 527.837184 183.598951 
L 528.708096 182.104849 
L 529.385472 181.354403 
L 531.836928 178.882344 
L 533.127168 177.079235 
L 535.28832 173.870313 
L 536.09472 172.675031 
L 536.385024 172.328672 
L 537.288192 173.031578 
L 537.772032 172.922916 
L 538.35264 172.559578 
L 538.965504 171.900815 
L 539.4816 171.079059 
L 540.900864 168.151979 
L 541.965312 166.162107 
L 543.287808 164.148466 
L 544.932864 161.900522 
L 545.997312 160.423399 
L 548.416512 157.295973 
L 549.1584 156.355369 
L 550.835712 154.382475 
L 552.22272 154.708461 
L 553.158144 154.718648 
L 555.190272 155.041238 
L 558.706176 155.893555 
L 570.221568 159.645787 
L 572.124672 160.566018 
L 573.608448 161.224781 
L 576.672768 162.521933 
L 576.705024 162.443832 
L 577.092096 161.788465 
L 577.446912 161.560954 
L 577.737216 161.581328 
L 578.253312 161.852983 
L 579.220992 162.698508 
L 579.96288 163.32671 
L 581.640192 164.430308 
L 583.801344 165.445618 
L 585.543168 166.111172 
L 587.22048 166.702021 
L 588.123648 167.004237 
L 596.41344 169.506857 
L 598.381056 170.029793 
L 599.058432 170.196181 
L 600.509952 170.545937 
L 600.92928 170.647807 
L 602.316288 170.970398 
L 611.2512 172.739549 
L 611.864064 172.848211 
L 613.476864 173.123262 
L 614.283264 173.269276 
L 615.057408 173.367751 
L 615.508992 173.442456 
L 616.992768 173.686946 
L 617.573376 174.583407 
L 618.250752 174.960328 
L 619.379712 174.970515 
L 621.218304 174.498514 
L 624.411648 174.607176 
L 625.476096 174.719234 
L 626.508288 174.8245 
L 627.024384 174.875435 
L 627.992064 174.984097 
L 636.701184 175.79227 
L 637.991424 175.897537 
L 638.83008 175.96545 
L 640.217088 176.067321 
L 640.668672 176.097882 
L 641.24928 176.145422 
L 644.055552 176.332184 
L 645.668352 176.440846 
L 647.990784 176.576674 
L 648.700416 176.610631 
L 650.635776 176.719292 
L 652.571136 176.814372 
L 654.506496 176.923034 
L 656.4096 177.018113 
L 657.151488 177.048674 
L 657.312768 177.024904 
L 657.796608 176.464616 
L 658.248192 176.226918 
L 658.732032 176.142026 
L 659.925504 176.372933 
L 661.957632 176.899264 
L 663.763968 177.167523 
L 666.860544 177.388242 
L 667.570176 177.422199 
L 670.795776 177.52407 
L 671.279616 177.561422 
L 675.505152 177.670084 
L 676.859904 177.707437 
L 677.730816 177.72102 
L 678.150144 177.741394 
L 679.15008 177.744789 
L 684.504576 177.853451 
L 685.698048 177.87043 
L 686.504448 177.890804 
L 687.085056 177.900991 
L 688.149504 177.904387 
L 695.43936 178.013049 
L 696.697344 178.036818 
L 697.69728 178.125106 
L 698.213376 178.698977 
L 698.82624 179.024963 
L 699.697152 179.106459 
L 703.438848 178.430718 
L 706.24512 178.243955 
L 712.180224 178.135293 
L 713.309184 178.125106 
L 737.985024 178.04361 
L 738.468864 177.510487 
L 739.178496 177.181106 
L 740.2752 177.170919 
L 744.242688 177.8942 
L 745.92 177.962113 
L 778.240512 178.070775 
L 778.401792 178.250747 
L 778.917888 178.770286 
L 779.30496 178.953653 
L 779.917824 179.092876 
L 782.272512 178.98761 
L 784.562688 178.617481 
L 790.013952 178.152272 
L 818.592768 178.084358 
L 819.14112 177.469739 
L 819.689472 177.194688 
L 821.592576 177.296559 
L 822.915072 177.598775 
L 824.62464 177.84666 
L 827.011584 177.989279 
L 858.912768 178.084358 
L 859.848192 178.919696 
L 860.783616 179.099668 
L 862.880256 178.991006 
L 864.589824 178.702373 
L 865.944576 178.529193 
L 870.492672 178.159063 
L 899.232768 178.084358 
L 899.78112 177.469739 
L 900.329472 177.194688 
L 902.264832 177.30335 
L 905.522688 177.877221 
L 907.619328 177.989279 
L 939.552768 178.084358 
L 940.617216 178.950258 
L 941.55264 179.13702 
L 943.455744 179.028358 
L 946.423296 178.51561 
L 947.52 178.34243 
L 947.52 178.34243 
" clip-path="url(#p7c3428cfea)" style="fill: none; stroke: #008000; stroke-width: 2; stroke-linecap: square"/>
   </g>
   <g id="patch_10">
    <path d="M 100.8 242.888276 
L 100.8 150.157241 
" style="fill: none; stroke: #bcbcbc; stroke-width: 0.8; stroke-linejoin: miter; stroke-linecap: square"/>
   </g>
   <g id="patch_11">
    <path d="M 987.84 242.888276 
L 987.84 150.157241 
" style="fill: none; stroke: #bcbcbc; stroke-width: 0.8; stroke-linejoin: miter; stroke-linecap: square"/>
   </g>
   <g id="patch_12">
    <path d="M 100.8 242.888276 
L 987.84 242.888276 
" style="fill: none; stroke: #bcbcbc; stroke-width: 0.8; stroke-linejoin: miter; stroke-linecap: square"/>
   </g>
   <g id="patch_13">
    <path d="M 100.8 150.157241 
L 987.84 150.157241 
" style="fill: none; stroke: #bcbcbc; stroke-width: 0.8; stroke-linejoin: miter; stroke-linecap: square"/>
   </g>
  </g>
  <g id="axes_3">
   <g id="patch_14">
    <path d="M 100.8 354.165517 
L 987.84 354.165517 
L 987.84 261.434483 
L 100.8 261.434483 
z
" style="fill: #eeeeee"/>
   </g>
   <g id="matplotlib.axis_5">
    <g id="xtick_13">
     <g id="line2d_37">
      <path d="M 141.12 354.165517 
L 141.12 261.434483 
" clip-path="url(#pfbd2afacba)" style="fill: none; stroke-dasharray: 1.85,0.8; stroke-dashoffset: 0; stroke: #b2b2b2; stroke-width: 0.5"/>
     </g>
     <g id="line2d_38">
      <g>
       <use xlink:href="#m0bb7bb918a" x="141.12" y="354.165517" style="stroke: #000000; stroke-width: 0.8"/>
      </g>
     </g>
    </g>
    <g id="xtick_14">
     <g id="line2d_39">
      <path d="M 302.4 354.165517 
L 302.4 261.434483 
" clip-path="url(#pfbd2afacba)" style="fill: none; stroke-dasharray: 1.85,0.8; stroke-dashoffset: 0; stroke: #b2b2b2; stroke-width: 0.5"/>
     </g>
     <g id="line2d_40">
      <g>
       <use xlink:href="#m0bb7bb918a" x="302.4" y="354.165517" style="stroke: #000000; stroke-width: 0.8"/>
      </g>
     </g>
    </g>
    <g id="xtick_15">
     <g id="line2d_41">
      <path d="M 463.68 354.165517 
L 463.68 261.434483 
" clip-path="url(#pfbd2afacba)" style="fill: none; stroke-dasharray: 1.85,0.8; stroke-dashoffset: 0; stroke: #b2b2b2; stroke-width: 0.5"/>
     </g>
     <g id="line2d_42">
      <g>
       <use xlink:href="#m0bb7bb918a" x="463.68" y="354.165517" style="stroke: #000000; stroke-width: 0.8"/>
      </g>
     </g>
    </g>
    <g id="xtick_16">
     <g id="line2d_43">
      <path d="M 624.96 354.165517 
L 624.96 261.434483 
" clip-path="url(#pfbd2afacba)" style="fill: none; stroke-dasharray: 1.85,0.8; stroke-dashoffset: 0; stroke: #b2b2b2; stroke-width: 0.5"/>
     </g>
     <g id="line2d_44">
      <g>
       <use xlink:href="#m0bb7bb918a" x="624.96" y="354.165517" style="stroke: #000000; stroke-width: 0.8"/>
      </g>
     </g>
    </g>
    <g id="xtick_17">
     <g id="line2d_45">
      <path d="M 786.24 354.165517 
L 786.24 261.434483 
" clip-path="url(#pfbd2afacba)" style="fill: none; stroke-dasharray: 1.85,0.8; stroke-dashoffset: 0; stroke: #b2b2b2; stroke-width: 0.5"/>
     </g>
     <g id="line2d_46">
      <g>
       <use xlink:href="#m0bb7bb918a" x="786.24" y="354.165517" style="stroke: #000000; stroke-width: 0.8"/>
      </g>
     </g>
    </g>
    <g id="xtick_18">
     <g id="line2d_47">
      <path d="M 947.52 354.165517 
L 947.52 261.434483 
" clip-path="url(#pfbd2afacba)" style="fill: none; stroke-dasharray: 1.85,0.8; stroke-dashoffset: 0; stroke: #b2b2b2; stroke-width: 0.5"/>
     </g>
     <g id="line2d_48">
      <g>
       <use xlink:href="#m0bb7bb918a" x="947.52" y="354.165517" style="stroke: #000000; stroke-width: 0.8"/>
      </g>
     </g>
    </g>
   </g>
   <g id="matplotlib.axis_6">
    <g id="ytick_6">
     <g id="line2d_49">
      <path d="M 100.8 344.015302 
L 987.84 344.015302 
" clip-path="url(#pfbd2afacba)" style="fill: none; stroke-dasharray: 1.85,0.8; stroke-dashoffset: 0; stroke: #b2b2b2; stroke-width: 0.5"/>
     </g>
     <g id="line2d_50">
      <g>
       <use xlink:href="#m7e766f3585" x="100.8" y="344.015302" style="stroke: #000000; stroke-width: 0.8"/>
      </g>
     </g>
     <g id="text_8">
      <!-- 0 V -->
      <g transform="translate(74.36625 349.334208) scale(0.14 -0.14)">
       <use xlink:href="#DejaVuSans-30"/>
       <use xlink:href="#DejaVuSans-20" x="63.623047"/>
       <use xlink:href="#DejaVuSans-56" x="95.410156"/>
      </g>
     </g>
    </g>
    <g id="ytick_7">
     <g id="line2d_51">
      <path d="M 100.8 297.171036 
L 987.84 297.171036 
" clip-path="url(#pfbd2afacba)" style="fill: none; stroke-dasharray: 1.85,0.8; stroke-dashoffset: 0; stroke: #b2b2b2; stroke-width: 0.5"/>
     </g>
     <g id="line2d_52">
      <g>
       <use xlink:href="#m7e766f3585" x="100.8" y="297.171036" style="stroke: #000000; stroke-width: 0.8"/>
      </g>
     </g>
     <g id="text_9">
      <!-- 1 V -->
      <g transform="translate(74.36625 302.489942) scale(0.14 -0.14)">
       <use xlink:href="#DejaVuSans-31"/>
       <use xlink:href="#DejaVuSans-20" x="63.623047"/>
       <use xlink:href="#DejaVuSans-56" x="95.410156"/>
      </g>
     </g>
    </g>
    <g id="text_10">
     <g id="patch_15">
      <path d="M 34.8768 342.395313 
L 34.8768 273.204688 
L 11.247425 273.204688 
L 11.247425 342.395313 
z
" style="fill: #ffff00; opacity: 0.2; stroke: #eeeeee; stroke-width: 0.5; stroke-linejoin: miter"/>
     </g>
     <!-- CLK BUF -->
     <g transform="translate(26.925238 337.355313) rotate(-90) scale(0.14 -0.14)">
      <defs>
       <path id="DejaVuSans-43" d="M 4122 4306 
L 4122 3641 
Q 3803 3938 3442 4084 
Q 3081 4231 2675 4231 
Q 1875 4231 1450 3742 
Q 1025 3253 1025 2328 
Q 1025 1406 1450 917 
Q 1875 428 2675 428 
Q 3081 428 3442 575 
Q 3803 722 4122 1019 
L 4122 359 
Q 3791 134 3420 21 
Q 3050 -91 2638 -91 
Q 1578 -91 968 557 
Q 359 1206 359 2328 
Q 359 3453 968 4101 
Q 1578 4750 2638 4750 
Q 3056 4750 3426 4639 
Q 3797 4528 4122 4306 
z
" transform="scale(0.015625)"/>
       <path id="DejaVuSans-4b" d="M 628 4666 
L 1259 4666 
L 1259 2694 
L 3353 4666 
L 4166 4666 
L 1850 2491 
L 4331 0 
L 3500 0 
L 1259 2247 
L 1259 0 
L 628 0 
L 628 4666 
z
" transform="scale(0.015625)"/>
      </defs>
      <use xlink:href="#DejaVuSans-43"/>
      <use xlink:href="#DejaVuSans-4c" x="69.824219"/>
      <use xlink:href="#DejaVuSans-4b" x="125.537109"/>
      <use xlink:href="#DejaVuSans-20" x="191.113281"/>
      <use xlink:href="#DejaVuSans-42" x="222.900391"/>
      <use xlink:href="#DejaVuSans-55" x="291.503906"/>
      <use xlink:href="#DejaVuSans-46" x="364.697266"/>
     </g>
    </g>
   </g>
   <g id="line2d_53">
    <path d="M 141.12 344.014063 
L 173.376 344.014063 
L 173.601792 287.802183 
L 213.696 287.802183 
L 213.760512 332.641046 
L 213.825024 343.993901 
L 213.889536 343.92649 
L 213.954048 344.113628 
L 214.01856 344.020378 
L 215.244288 344.011951 
L 222.759936 344.014089 
L 254.016 344.014031 
L 254.17728 287.628859 
L 254.241792 287.928663 
L 254.403072 287.792814 
L 254.8224 287.802183 
L 294.336 287.802183 
L 294.400512 332.601696 
L 294.465024 344.364858 
L 294.529536 343.55041 
L 294.626304 344.088918 
L 294.65856 344.055584 
L 294.852096 343.973247 
L 295.206912 344.032348 
L 295.497216 344.013698 
L 318.624768 344.014064 
L 334.656 344.014065 
L 334.81728 287.717863 
L 334.881792 287.820921 
L 335.172096 287.806867 
L 374.976 287.802183 
L 375.040512 332.645262 
L 375.105024 344.016062 
L 375.169536 343.92055 
L 375.234048 344.106657 
L 375.29856 344.020534 
L 376.5888 344.011496 
L 384.33024 344.014052 
L 415.296 344.014065 
L 415.45728 287.628859 
L 415.521792 287.928663 
L 415.683072 287.78813 
L 416.42496 287.78813 
L 455.616 287.802183 
L 455.648256 293.320437 
L 455.77728 343.917402 
L 455.809536 344.044553 
L 455.906304 344.011633 
L 457.003008 344.014058 
L 460.518912 344.102146 
L 461.164032 344.783313 
L 461.90592 345.224212 
L 462.809088 345.49633 
L 464.131584 345.643702 
L 466.486272 345.649183 
L 475.324416 345.349239 
L 475.485696 345.348396 
L 476.679168 345.316167 
L 477.937152 345.296211 
L 479.066112 345.470472 
L 480.066048 345.89624 
L 480.549888 346.19267 
L 486.065664 349.859592 
L 486.194688 349.94438 
L 486.388224 349.879267 
L 487.259136 349.419256 
L 488.001024 349.091815 
L 495.032832 346.551216 
L 495.387648 346.43434 
L 495.936 346.261016 
L 495.968256 347.73914 
L 496.161792 321.274753 
L 496.41984 321.135157 
L 497.032704 320.883603 
L 497.06496 320.951059 
L 497.097216 320.86955 
L 497.22624 320.810058 
L 497.355264 320.832075 
L 497.5488 320.698569 
L 497.677824 320.652661 
L 497.806848 320.547262 
L 497.935872 320.557099 
L 498.484224 320.354732 
L 500.548608 319.568685 
L 500.61312 319.479681 
L 500.677632 319.595386 
L 500.806656 319.464222 
L 500.967936 319.453448 
L 502.677504 318.816834 
L 505.870848 317.53986 
L 506.064384 317.386211 
L 506.354688 317.232093 
L 513.6768 312.157454 
L 517.676544 309.560408 
L 524.256768 305.864863 
L 525.030912 305.363161 
L 526.41792 302.529552 
L 528.482304 297.641353 
L 532.675584 287.755339 
L 533.35296 286.242269 
L 535.12704 282.401039 
L 536.256 280.026035 
L 536.288256 289.572896 
L 536.41728 342.254754 
L 536.57856 342.235173 
L 544.384512 342.535632 
L 546.287616 342.441803 
L 550.706688 342.570531 
L 551.029248 342.929826 
L 551.674368 343.528075 
L 552.480768 343.95336 
L 553.480704 344.22055 
L 554.996736 344.382406 
L 558.125568 344.443046 
L 576.576 344.52998 
L 576.705024 265.64953 
L 576.866304 266.05239 
L 577.672704 266.516149 
L 578.1888 266.825321 
L 581.930496 268.872415 
L 583.478784 269.664083 
L 584.80128 270.30585 
L 588.284928 271.940715 
L 589.123584 272.301416 
L 595.9296 275.158916 
L 596.219904 275.266658 
L 598.058496 275.955268 
L 598.3488 276.06301 
L 599.542272 276.470555 
L 599.897088 276.578297 
L 601.09056 276.985842 
L 601.348608 277.088899 
L 601.767936 277.220063 
L 602.122752 277.323121 
L 602.54208 277.454285 
L 602.896896 277.557342 
L 603.412992 277.73535 
L 603.767808 277.838408 
L 604.187136 277.969572 
L 604.541952 278.072629 
L 604.96128 278.203793 
L 605.316096 278.30685 
L 605.670912 278.39117 
L 611.057664 279.843342 
L 611.509248 279.9464 
L 611.864064 280.030719 
L 614.347776 280.639695 
L 614.896128 280.742752 
L 615.250944 280.827072 
L 616.766976 281.154982 
L 616.896 281.197142 
L 616.928256 291.320187 
L 617.05728 344.121278 
L 617.089536 344.285425 
L 617.154048 344.196978 
L 617.54112 344.191891 
L 657.216 344.065078 
L 657.345024 285.61924 
L 657.441792 285.979941 
L 657.893376 286.003363 
L 658.119168 286.022101 
L 660.473856 286.129843 
L 660.796416 286.162634 
L 663.18336 286.270376 
L 663.50592 286.303166 
L 666.279936 286.410908 
L 666.602496 286.443699 
L 669.666816 286.551441 
L 669.989376 286.584232 
L 673.440768 286.691974 
L 673.763328 286.724765 
L 677.69856 286.832507 
L 678.02112 286.865298 
L 682.633728 286.973039 
L 682.956288 287.00583 
L 688.536576 287.113572 
L 688.859136 287.146363 
L 695.794176 287.254105 
L 696.116736 287.286896 
L 697.536 287.286896 
L 697.568256 293.582765 
L 697.69728 344.073239 
L 697.826304 344.028154 
L 711.470592 344.027478 
L 737.856 344.02747 
L 738.01728 287.240052 
L 738.081792 287.352478 
L 738.952704 287.33374 
L 778.176 287.33374 
L 778.305024 344.373075 
L 778.466304 344.100657 
L 778.724352 343.996168 
L 779.079168 344.047161 
L 779.369472 344.027336 
L 814.076928 344.027474 
L 818.496 344.027476 
L 818.65728 287.09015 
L 818.721792 287.61949 
L 818.81856 287.141679 
L 818.883072 287.315003 
L 819.334656 287.33374 
L 858.816 287.33374 
L 858.945024 344.373272 
L 859.106304 344.100605 
L 859.364352 343.996179 
L 859.719168 344.047173 
L 860.009472 344.027337 
L 894.716928 344.027475 
L 899.136 344.027478 
L 899.29728 287.09015 
L 899.361792 287.61949 
L 899.45856 287.136994 
L 899.523072 287.315003 
L 899.974656 287.33374 
L 939.456 287.33374 
L 939.488256 295.779761 
L 939.61728 343.971766 
L 939.649536 344.107983 
L 939.714048 343.977654 
L 939.746304 343.936547 
L 939.810816 343.99701 
L 939.972096 344.089995 
L 940.004352 344.055512 
L 940.197888 344.026702 
L 945.197568 344.027486 
L 947.52 344.027467 
L 947.52 344.027467 
" clip-path="url(#pfbd2afacba)" style="fill: none; stroke: #0000ff; stroke-width: 2; stroke-linecap: square"/>
   </g>
   <g id="patch_16">
    <path d="M 100.8 354.165517 
L 100.8 261.434483 
" style="fill: none; stroke: #bcbcbc; stroke-width: 0.8; stroke-linejoin: miter; stroke-linecap: square"/>
   </g>
   <g id="patch_17">
    <path d="M 987.84 354.165517 
L 987.84 261.434483 
" style="fill: none; stroke: #bcbcbc; stroke-width: 0.8; stroke-linejoin: miter; stroke-linecap: square"/>
   </g>
   <g id="patch_18">
    <path d="M 100.8 354.165517 
L 987.84 354.165517 
" style="fill: none; stroke: #bcbcbc; stroke-width: 0.8; stroke-linejoin: miter; stroke-linecap: square"/>
   </g>
   <g id="patch_19">
    <path d="M 100.8 261.434483 
L 987.84 261.434483 
" style="fill: none; stroke: #bcbcbc; stroke-width: 0.8; stroke-linejoin: miter; stroke-linecap: square"/>
   </g>
  </g>
  <g id="axes_4">
   <g id="patch_20">
    <path d="M 100.8 465.442759 
L 987.84 465.442759 
L 987.84 372.711724 
L 100.8 372.711724 
z
" style="fill: #eeeeee"/>
   </g>
   <g id="matplotlib.axis_7">
    <g id="xtick_19">
     <g id="line2d_54">
      <path d="M 141.12 465.442759 
L 141.12 372.711724 
" clip-path="url(#p01ece56e10)" style="fill: none; stroke-dasharray: 1.85,0.8; stroke-dashoffset: 0; stroke: #b2b2b2; stroke-width: 0.5"/>
     </g>
     <g id="line2d_55">
      <g>
       <use xlink:href="#m0bb7bb918a" x="141.12" y="465.442759" style="stroke: #000000; stroke-width: 0.8"/>
      </g>
     </g>
    </g>
    <g id="xtick_20">
     <g id="line2d_56">
      <path d="M 302.4 465.442759 
L 302.4 372.711724 
" clip-path="url(#p01ece56e10)" style="fill: none; stroke-dasharray: 1.85,0.8; stroke-dashoffset: 0; stroke: #b2b2b2; stroke-width: 0.5"/>
     </g>
     <g id="line2d_57">
      <g>
       <use xlink:href="#m0bb7bb918a" x="302.4" y="465.442759" style="stroke: #000000; stroke-width: 0.8"/>
      </g>
     </g>
    </g>
    <g id="xtick_21">
     <g id="line2d_58">
      <path d="M 463.68 465.442759 
L 463.68 372.711724 
" clip-path="url(#p01ece56e10)" style="fill: none; stroke-dasharray: 1.85,0.8; stroke-dashoffset: 0; stroke: #b2b2b2; stroke-width: 0.5"/>
     </g>
     <g id="line2d_59">
      <g>
       <use xlink:href="#m0bb7bb918a" x="463.68" y="465.442759" style="stroke: #000000; stroke-width: 0.8"/>
      </g>
     </g>
    </g>
    <g id="xtick_22">
     <g id="line2d_60">
      <path d="M 624.96 465.442759 
L 624.96 372.711724 
" clip-path="url(#p01ece56e10)" style="fill: none; stroke-dasharray: 1.85,0.8; stroke-dashoffset: 0; stroke: #b2b2b2; stroke-width: 0.5"/>
     </g>
     <g id="line2d_61">
      <g>
       <use xlink:href="#m0bb7bb918a" x="624.96" y="465.442759" style="stroke: #000000; stroke-width: 0.8"/>
      </g>
     </g>
    </g>
    <g id="xtick_23">
     <g id="line2d_62">
      <path d="M 786.24 465.442759 
L 786.24 372.711724 
" clip-path="url(#p01ece56e10)" style="fill: none; stroke-dasharray: 1.85,0.8; stroke-dashoffset: 0; stroke: #b2b2b2; stroke-width: 0.5"/>
     </g>
     <g id="line2d_63">
      <g>
       <use xlink:href="#m0bb7bb918a" x="786.24" y="465.442759" style="stroke: #000000; stroke-width: 0.8"/>
      </g>
     </g>
    </g>
    <g id="xtick_24">
     <g id="line2d_64">
      <path d="M 947.52 465.442759 
L 947.52 372.711724 
" clip-path="url(#p01ece56e10)" style="fill: none; stroke-dasharray: 1.85,0.8; stroke-dashoffset: 0; stroke: #b2b2b2; stroke-width: 0.5"/>
     </g>
     <g id="line2d_65">
      <g>
       <use xlink:href="#m0bb7bb918a" x="947.52" y="465.442759" style="stroke: #000000; stroke-width: 0.8"/>
      </g>
     </g>
    </g>
   </g>
   <g id="matplotlib.axis_8">
    <g id="ytick_8">
     <g id="line2d_66">
      <path d="M 100.8 439.646981 
L 987.84 439.646981 
" clip-path="url(#p01ece56e10)" style="fill: none; stroke-dasharray: 1.85,0.8; stroke-dashoffset: 0; stroke: #b2b2b2; stroke-width: 0.5"/>
     </g>
     <g id="line2d_67">
      <g>
       <use xlink:href="#m7e766f3585" x="100.8" y="439.646981" style="stroke: #000000; stroke-width: 0.8"/>
      </g>
     </g>
     <g id="text_11">
      <!-- 0 V -->
      <g transform="translate(74.36625 444.965887) scale(0.14 -0.14)">
       <use xlink:href="#DejaVuSans-30"/>
       <use xlink:href="#DejaVuSans-20" x="63.623047"/>
       <use xlink:href="#DejaVuSans-56" x="95.410156"/>
      </g>
     </g>
    </g>
    <g id="ytick_9">
     <g id="line2d_68">
      <path d="M 100.8 401.696833 
L 987.84 401.696833 
" clip-path="url(#p01ece56e10)" style="fill: none; stroke-dasharray: 1.85,0.8; stroke-dashoffset: 0; stroke: #b2b2b2; stroke-width: 0.5"/>
     </g>
     <g id="line2d_69">
      <g>
       <use xlink:href="#m7e766f3585" x="100.8" y="401.696833" style="stroke: #000000; stroke-width: 0.8"/>
      </g>
     </g>
     <g id="text_12">
      <!-- 1 V -->
      <g transform="translate(74.36625 407.015739) scale(0.14 -0.14)">
       <use xlink:href="#DejaVuSans-31"/>
       <use xlink:href="#DejaVuSans-20" x="63.623047"/>
       <use xlink:href="#DejaVuSans-56" x="95.410156"/>
      </g>
     </g>
    </g>
    <g id="text_13">
     <g id="patch_21">
      <path d="M 34.8768 454.693023 
L 34.8768 383.46146 
L 11.247425 383.46146 
L 11.247425 454.693023 
z
" style="fill: #ffff00; opacity: 0.2; stroke: #eeeeee; stroke-width: 0.5; stroke-linejoin: miter"/>
     </g>
     <!-- DFF OUT -->
     <g transform="translate(26.925238 449.653023) rotate(-90) scale(0.14 -0.14)">
      <defs>
       <path id="DejaVuSans-4f" d="M 2522 4238 
Q 1834 4238 1429 3725 
Q 1025 3213 1025 2328 
Q 1025 1447 1429 934 
Q 1834 422 2522 422 
Q 3209 422 3611 934 
Q 4013 1447 4013 2328 
Q 4013 3213 3611 3725 
Q 3209 4238 2522 4238 
z
M 2522 4750 
Q 3503 4750 4090 4092 
Q 4678 3434 4678 2328 
Q 4678 1225 4090 567 
Q 3503 -91 2522 -91 
Q 1538 -91 948 565 
Q 359 1222 359 2328 
Q 359 3434 948 4092 
Q 1538 4750 2522 4750 
z
" transform="scale(0.015625)"/>
       <path id="DejaVuSans-54" d="M -19 4666 
L 3928 4666 
L 3928 4134 
L 2272 4134 
L 2272 0 
L 1638 0 
L 1638 4134 
L -19 4134 
L -19 4666 
z
" transform="scale(0.015625)"/>
      </defs>
      <use xlink:href="#DejaVuSans-44"/>
      <use xlink:href="#DejaVuSans-46" x="77.001953"/>
      <use xlink:href="#DejaVuSans-46" x="134.521484"/>
      <use xlink:href="#DejaVuSans-20" x="192.041016"/>
      <use xlink:href="#DejaVuSans-4f" x="223.828125"/>
      <use xlink:href="#DejaVuSans-55" x="302.539062"/>
      <use xlink:href="#DejaVuSans-54" x="375.732422"/>
     </g>
    </g>
   </g>
   <g id="line2d_70">
    <path d="M 141.12 411.012455 
L 173.408256 411.058755 
L 173.440512 412.629891 
L 173.601792 439.649297 
L 174.150144 439.645226 
L 184.859136 439.645972 
L 254.048256 439.647559 
L 254.080512 439.799267 
L 254.112768 439.548322 
L 254.306304 435.843237 
L 254.596608 435.100553 
L 254.693376 434.570769 
L 255.14496 427.921903 
L 255.370752 412.294791 
L 255.596544 394.47492 
L 255.757824 394.163728 
L 255.983616 394.103008 
L 256.951296 394.106803 
L 295.755264 394.182703 
L 296.239104 396.638078 
L 296.59392 396.023286 
L 297.948672 394.417994 
L 299.625984 394.137163 
L 300.722688 394.118188 
L 334.720512 394.011928 
L 334.752768 394.569795 
L 334.785024 397.328771 
L 334.914048 439.631424 
L 334.97856 439.598025 
L 335.13984 439.639027 
L 335.526912 439.64632 
L 368.36352 439.645934 
L 415.328256 439.647536 
L 415.360512 439.798739 
L 415.392768 439.550424 
L 415.586304 435.754813 
L 415.876608 434.883857 
L 415.908864 434.779495 
L 416.1024 430.278987 
L 416.521728 417.177077 
L 416.9088 394.232039 
L 417.102336 394.110598 
L 418.102272 394.103008 
L 460.551168 394.201678 
L 462.163968 396.258576 
L 463.938048 398.968217 
L 468.453888 406.078177 
L 469.034496 407.424269 
L 470.195712 411.542619 
L 470.9376 414.865154 
L 470.969856 414.810886 
L 471.002112 414.736883 
L 471.034368 414.782423 
L 471.518208 417.413507 
L 471.58272 417.244249 
L 471.614976 417.617299 
L 471.647232 417.316734 
L 471.679488 417.869288 
L 471.711744 417.582385 
L 471.90528 419.079518 
L 472.131072 420.067361 
L 472.195584 419.890134 
L 472.22784 419.937192 
L 472.485888 421.718192 
L 472.840704 423.280979 
L 473.421312 425.902575 
L 473.453568 425.314728 
L 473.51808 426.099157 
L 473.711616 427.169731 
L 473.937408 428.157573 
L 473.969664 427.839551 
L 474.066432 428.045241 
L 474.130944 428.310133 
L 474.292224 429.696831 
L 475.872768 436.310783 
L 475.905024 435.93261 
L 475.969536 436.03276 
L 476.163072 437.465644 
L 476.550144 438.914467 
L 476.5824 438.581568 
L 476.614656 439.233286 
L 477.163008 441.331663 
L 477.195264 441.147529 
L 477.22752 441.433977 
L 477.259776 441.184645 
L 477.808128 443.557743 
L 478.130688 444.415037 
L 478.162944 444.076901 
L 478.227456 444.548242 
L 478.259712 444.271586 
L 478.291968 444.441982 
L 478.485504 445.29586 
L 478.550016 445.464359 
L 478.582272 445.207057 
L 478.614528 445.570999 
L 478.646784 445.509519 
L 478.84032 446.114065 
L 479.130624 446.729996 
L 479.388672 446.9706 
L 479.775744 447.664329 
L 479.808 447.737573 
L 479.96928 448.463938 
L 480.001536 448.194113 
L 480.066048 448.396008 
L 480.227328 449.04154 
L 483.065856 455.127605 
L 483.614208 456.134422 
L 483.775488 456.677109 
L 486.291456 461.227712 
L 486.614016 461.030371 
L 486.807552 460.654285 
L 488.452608 457.883165 
L 488.581632 457.737816 
L 488.807424 457.288866 
L 489.420288 456.430813 
L 490.516992 455.345818 
L 490.710528 455.142405 
L 491.226624 454.352663 
L 491.25888 454.450195 
L 491.291136 454.299153 
L 491.355648 454.205416 
L 491.387904 454.418317 
L 491.42016 454.180369 
L 491.452416 454.358735 
L 491.613696 453.942801 
L 492.000768 453.534458 
L 492.22656 453.302203 
L 492.258816 453.493092 
L 492.291072 453.246037 
L 492.323328 453.354194 
L 492.484608 453.066912 
L 492.516864 453.240723 
L 492.581376 452.992909 
L 493.097472 452.662743 
L 493.5168 452.045673 
L 493.83936 451.634294 
L 493.903872 451.791407 
L 493.936128 451.593308 
L 493.968384 451.640366 
L 494.00064 451.427845 
L 494.065152 451.686665 
L 494.097408 451.504884 
L 494.226432 451.250618 
L 494.258688 451.484391 
L 494.3232 451.202801 
L 494.355456 451.4009 
L 494.387712 451.364848 
L 494.516736 450.901856 
L 494.678016 450.788385 
L 495.032832 450.496169 
L 495.065088 450.702997 
L 495.161856 450.611537 
L 495.45216 450.258221 
L 495.77472 450.044562 
L 496.161792 449.684415 
L 496.387584 449.154252 
L 496.548864 448.920099 
L 496.58112 449.219905 
L 496.645632 448.851789 
L 496.871424 448.592969 
L 496.90368 448.631299 
L 496.935936 448.62257 
L 496.968192 448.740595 
L 497.000448 448.629401 
L 497.129472 448.332631 
L 497.06496 448.768678 
L 497.161728 448.484052 
L 497.193984 448.490124 
L 497.323008 448.284434 
L 497.355264 448.482154 
L 497.38752 448.350467 
L 497.419776 448.017645 
L 497.516544 448.111002 
L 497.581056 448.191077 
L 497.71008 447.850664 
L 497.774592 448.041174 
L 497.806848 447.783872 
L 497.839104 447.786149 
L 497.87136 447.902276 
L 497.935872 447.736434 
L 498.806784 447.172495 
L 499.129344 446.790337 
L 499.258368 446.386547 
L 499.290624 446.691287 
L 499.355136 446.304195 
L 499.48416 446.124312 
L 499.516416 446.465104 
L 499.580928 446.014256 
L 499.613184 446.327725 
L 499.742208 445.88181 
L 499.871232 445.742154 
L 499.903488 446.126209 
L 500.000256 446.022226 
L 500.12928 445.689403 
L 500.161536 445.891677 
L 500.226048 445.613123 
L 500.29056 445.701547 
L 500.419584 445.254115 
L 500.484096 445.514073 
L 500.516352 445.21958 
L 500.548608 445.234001 
L 500.580864 445.563788 
L 500.61312 445.170625 
L 500.677632 445.46322 
L 500.806656 445.084478 
L 501.355008 444.924708 
L 502.129152 444.248436 
L 502.580736 443.569887 
L 502.612992 443.679184 
L 502.645248 443.253231 
L 502.677504 443.72776 
L 502.70976 443.704231 
L 502.935552 442.96834 
L 503.000064 443.449965 
L 503.064576 443.214864 
L 503.096832 443.332054 
L 503.225856 442.753428 
L 503.258112 442.748494 
L 503.35488 443.111791 
L 503.387136 443.029629 
L 503.51616 442.531571 
L 503.645184 442.472141 
L 503.67744 442.845609 
L 503.741952 442.559275 
L 503.774208 442.545271 
L 503.83872 442.382237 
L 503.870976 442.67988 
L 503.903232 442.326147 
L 503.967744 442.596694 
L 504.096768 442.348462 
L 505.6128 441.077853 
L 505.870848 440.739983 
L 505.93536 440.130352 
L 505.999872 440.448943 
L 506.064384 439.876594 
L 506.09664 439.892852 
L 506.161152 440.293082 
L 506.193408 439.990095 
L 506.322432 439.656342 
L 506.386944 439.906708 
L 506.451456 439.805346 
L 506.612736 439.578036 
L 507.38688 438.279675 
L 507.515904 437.344697 
L 507.54816 437.84192 
L 507.612672 437.279726 
L 507.773952 437.132783 
L 507.806208 437.550083 
L 507.87072 437.070583 
L 507.999744 437.164434 
L 508.032 437.13062 
L 508.8384 435.71914 
L 508.99968 434.738129 
L 509.064192 434.647428 
L 509.096448 435.268672 
L 509.16096 434.872852 
L 509.193216 434.957481 
L 509.289984 434.56204 
L 509.32224 434.593539 
L 509.386752 434.670198 
L 509.419008 434.605683 
L 509.773824 434.051231 
L 510.031872 433.513098 
L 511.483392 431.080873 
L 512.515584 429.405374 
L 512.676864 428.849784 
L 512.999424 428.299127 
L 513.03168 428.504438 
L 513.063936 428.223227 
L 513.096192 428.187174 
L 513.128448 428.283568 
L 513.160704 428.348083 
L 513.321984 427.90103 
L 513.418752 427.994008 
L 513.483264 427.896476 
L 514.354176 426.403897 
L 514.515456 425.60201 
L 515.225088 424.184193 
L 515.321856 423.759151 
L 515.386368 423.768259 
L 515.547648 423.32614 
L 515.77344 422.782314 
L 516.25728 421.97853 
L 516.321792 421.300361 
L 516.386304 421.321613 
L 516.644352 421.292771 
L 517.87008 419.223729 
L 517.934592 418.654856 
L 517.999104 418.729239 
L 518.160384 418.75125 
L 518.450688 418.240441 
L 518.67648 417.813122 
L 519.579648 416.544449 
L 519.611904 416.54369 
L 519.773184 416.322061 
L 520.257024 415.901573 
L 520.386048 416.027567 
L 520.515072 416.873476 
L 520.708608 426.687764 
L 520.9344 439.090024 
L 521.321472 439.14194 
L 524.64384 439.257916 
L 525.030912 439.182319 
L 525.708288 438.622592 
L 526.546944 438.257322 
L 527.643648 438.046699 
L 529.385472 437.974024 
L 533.869056 438.10518 
L 544.771584 438.418344 
L 546.706944 438.381381 
L 550.803456 438.542897 
L 551.545344 439.18619 
L 552.384 439.577961 
L 553.51296 439.830454 
L 555.254784 439.966145 
L 559.448064 440.000877 
L 576.608256 440.069517 
L 576.640512 440.385718 
L 576.930816 430.641031 
L 577.124352 428.825116 
L 577.253376 425.575825 
L 577.414656 414.979764 
L 577.801728 376.926771 
L 577.833984 376.934361 
L 578.962944 377.450483 
L 582.446592 378.968489 
L 584.510976 379.814777 
L 586.059264 380.42198 
L 597.316608 384.28151 
L 597.639168 384.391565 
L 598.316544 384.581316 
L 598.929408 384.748297 
L 600.509952 385.192313 
L 600.92928 385.302369 
L 602.348544 385.685665 
L 602.767872 385.795721 
L 603.574272 385.996856 
L 604.122624 386.137272 
L 605.058048 386.353588 
L 606.057984 386.592674 
L 606.993408 386.80899 
L 607.799808 386.97597 
L 611.831808 387.810874 
L 612.347904 387.920929 
L 613.83168 388.197965 
L 614.31552 388.304225 
L 614.96064 388.414281 
L 616.863744 388.744447 
L 617.444352 388.835528 
L 618.057216 388.945583 
L 620.928 389.385805 
L 621.282816 389.44273 
L 622.024704 389.552785 
L 638.797824 391.416138 
L 639.830016 391.526193 
L 642.087936 391.681789 
L 643.313664 391.791844 
L 645.571584 391.94744 
L 647.184384 392.057495 
L 649.119744 392.175141 
L 650.7648 392.285196 
L 652.345344 392.361096 
L 654.119424 392.459767 
L 654.409728 392.474947 
L 656.377344 392.585002 
L 657.248256 392.611567 
L 657.280512 392.854448 
L 657.345024 392.596387 
L 657.53856 392.622952 
L 659.6352 392.725418 
L 659.925504 392.744393 
L 662.570496 392.854448 
L 663.82848 392.892398 
L 666.312192 392.991069 
L 666.602496 393.006249 
L 669.731328 393.116304 
L 670.215168 393.120099 
L 673.473024 393.21877 
L 673.763328 393.23395 
L 677.730816 393.33262 
L 678.02112 393.3478 
L 682.69824 393.457856 
L 683.66592 393.465446 
L 684.47232 393.473036 
L 684.859392 393.499601 
L 690.826752 393.609656 
L 691.794432 393.613451 
L 697.632768 393.670376 
L 697.761792 393.693146 
L 698.66496 393.689351 
L 699.084288 393.727302 
L 737.888256 393.742482 
L 737.920512 393.871512 
L 737.985024 393.696941 
L 738.275328 393.719712 
L 818.528256 393.723507 
L 818.560512 393.917052 
L 818.625024 393.723507 
L 818.81856 393.704532 
L 819.94752 393.727302 
L 899.168256 393.723507 
L 899.200512 393.917052 
L 899.265024 393.723507 
L 899.45856 393.704532 
L 900.58752 393.727302 
L 947.52 393.727302 
L 947.52 393.727302 
" clip-path="url(#p01ece56e10)" style="fill: none; stroke: #ff00ff; stroke-width: 2; stroke-linecap: square"/>
   </g>
   <g id="patch_22">
    <path d="M 100.8 465.442759 
L 100.8 372.711724 
" style="fill: none; stroke: #bcbcbc; stroke-width: 0.8; stroke-linejoin: miter; stroke-linecap: square"/>
   </g>
   <g id="patch_23">
    <path d="M 987.84 465.442759 
L 987.84 372.711724 
" style="fill: none; stroke: #bcbcbc; stroke-width: 0.8; stroke-linejoin: miter; stroke-linecap: square"/>
   </g>
   <g id="patch_24">
    <path d="M 100.8 465.442759 
L 987.84 465.442759 
" style="fill: none; stroke: #bcbcbc; stroke-width: 0.8; stroke-linejoin: miter; stroke-linecap: square"/>
   </g>
   <g id="patch_25">
    <path d="M 100.8 372.711724 
L 987.84 372.711724 
" style="fill: none; stroke: #bcbcbc; stroke-width: 0.8; stroke-linejoin: miter; stroke-linecap: square"/>
   </g>
  </g>
  <g id="axes_5">
   <g id="patch_26">
    <path d="M 100.8 576.72 
L 987.84 576.72 
L 987.84 483.988966 
L 100.8 483.988966 
z
" style="fill: #eeeeee"/>
   </g>
   <g id="matplotlib.axis_9">
    <g id="xtick_25">
     <g id="line2d_71">
      <path d="M 141.12 576.72 
L 141.12 483.988966 
" clip-path="url(#p11153e3e39)" style="fill: none; stroke-dasharray: 1.85,0.8; stroke-dashoffset: 0; stroke: #b2b2b2; stroke-width: 0.5"/>
     </g>
     <g id="line2d_72">
      <g>
       <use xlink:href="#m0bb7bb918a" x="141.12" y="576.72" style="stroke: #000000; stroke-width: 0.8"/>
      </g>
     </g>
     <g id="text_14">
      <!-- 0 s -->
      <g transform="translate(130.795 590.857813) scale(0.14 -0.14)">
       <defs>
        <path id="DejaVuSans-73" d="M 2834 3397 
L 2834 2853 
Q 2591 2978 2328 3040 
Q 2066 3103 1784 3103 
Q 1356 3103 1142 2972 
Q 928 2841 928 2578 
Q 928 2378 1081 2264 
Q 1234 2150 1697 2047 
L 1894 2003 
Q 2506 1872 2764 1633 
Q 3022 1394 3022 966 
Q 3022 478 2636 193 
Q 2250 -91 1575 -91 
Q 1294 -91 989 -36 
Q 684 19 347 128 
L 347 722 
Q 666 556 975 473 
Q 1284 391 1588 391 
Q 1994 391 2212 530 
Q 2431 669 2431 922 
Q 2431 1156 2273 1281 
Q 2116 1406 1581 1522 
L 1381 1569 
Q 847 1681 609 1914 
Q 372 2147 372 2553 
Q 372 3047 722 3315 
Q 1072 3584 1716 3584 
Q 2034 3584 2315 3537 
Q 2597 3491 2834 3397 
z
" transform="scale(0.015625)"/>
       </defs>
       <use xlink:href="#DejaVuSans-30"/>
       <use xlink:href="#DejaVuSans-20" x="63.623047"/>
       <use xlink:href="#DejaVuSans-73" x="95.410156"/>
      </g>
     </g>
    </g>
    <g id="xtick_26">
     <g id="line2d_73">
      <path d="M 302.4 576.72 
L 302.4 483.988966 
" clip-path="url(#p11153e3e39)" style="fill: none; stroke-dasharray: 1.85,0.8; stroke-dashoffset: 0; stroke: #b2b2b2; stroke-width: 0.5"/>
     </g>
     <g id="line2d_74">
      <g>
       <use xlink:href="#m0bb7bb918a" x="302.4" y="576.72" style="stroke: #000000; stroke-width: 0.8"/>
      </g>
     </g>
     <g id="text_15">
      <!-- 50 ns -->
      <g transform="translate(283.185 590.857813) scale(0.14 -0.14)">
       <defs>
        <path id="DejaVuSans-35" d="M 691 4666 
L 3169 4666 
L 3169 4134 
L 1269 4134 
L 1269 2991 
Q 1406 3038 1543 3061 
Q 1681 3084 1819 3084 
Q 2600 3084 3056 2656 
Q 3513 2228 3513 1497 
Q 3513 744 3044 326 
Q 2575 -91 1722 -91 
Q 1428 -91 1123 -41 
Q 819 9 494 109 
L 494 744 
Q 775 591 1075 516 
Q 1375 441 1709 441 
Q 2250 441 2565 725 
Q 2881 1009 2881 1497 
Q 2881 1984 2565 2268 
Q 2250 2553 1709 2553 
Q 1456 2553 1204 2497 
Q 953 2441 691 2322 
L 691 4666 
z
" transform="scale(0.015625)"/>
        <path id="DejaVuSans-6e" d="M 3513 2113 
L 3513 0 
L 2938 0 
L 2938 2094 
Q 2938 2591 2744 2837 
Q 2550 3084 2163 3084 
Q 1697 3084 1428 2787 
Q 1159 2491 1159 1978 
L 1159 0 
L 581 0 
L 581 3500 
L 1159 3500 
L 1159 2956 
Q 1366 3272 1645 3428 
Q 1925 3584 2291 3584 
Q 2894 3584 3203 3211 
Q 3513 2838 3513 2113 
z
" transform="scale(0.015625)"/>
       </defs>
       <use xlink:href="#DejaVuSans-35"/>
       <use xlink:href="#DejaVuSans-30" x="63.623047"/>
       <use xlink:href="#DejaVuSans-20" x="127.246094"/>
       <use xlink:href="#DejaVuSans-6e" x="159.033203"/>
       <use xlink:href="#DejaVuSans-73" x="222.412109"/>
      </g>
     </g>
    </g>
    <g id="xtick_27">
     <g id="line2d_75">
      <path d="M 463.68 576.72 
L 463.68 483.988966 
" clip-path="url(#p11153e3e39)" style="fill: none; stroke-dasharray: 1.85,0.8; stroke-dashoffset: 0; stroke: #b2b2b2; stroke-width: 0.5"/>
     </g>
     <g id="line2d_76">
      <g>
       <use xlink:href="#m0bb7bb918a" x="463.68" y="576.72" style="stroke: #000000; stroke-width: 0.8"/>
      </g>
     </g>
     <g id="text_16">
      <!-- 100 ns -->
      <g transform="translate(440.01125 590.857813) scale(0.14 -0.14)">
       <use xlink:href="#DejaVuSans-31"/>
       <use xlink:href="#DejaVuSans-30" x="63.623047"/>
       <use xlink:href="#DejaVuSans-30" x="127.246094"/>
       <use xlink:href="#DejaVuSans-20" x="190.869141"/>
       <use xlink:href="#DejaVuSans-6e" x="222.65625"/>
       <use xlink:href="#DejaVuSans-73" x="286.035156"/>
      </g>
     </g>
    </g>
    <g id="xtick_28">
     <g id="line2d_77">
      <path d="M 624.96 576.72 
L 624.96 483.988966 
" clip-path="url(#p11153e3e39)" style="fill: none; stroke-dasharray: 1.85,0.8; stroke-dashoffset: 0; stroke: #b2b2b2; stroke-width: 0.5"/>
     </g>
     <g id="line2d_78">
      <g>
       <use xlink:href="#m0bb7bb918a" x="624.96" y="576.72" style="stroke: #000000; stroke-width: 0.8"/>
      </g>
     </g>
     <g id="text_17">
      <!-- 150 ns -->
      <g transform="translate(601.29125 590.857813) scale(0.14 -0.14)">
       <use xlink:href="#DejaVuSans-31"/>
       <use xlink:href="#DejaVuSans-35" x="63.623047"/>
       <use xlink:href="#DejaVuSans-30" x="127.246094"/>
       <use xlink:href="#DejaVuSans-20" x="190.869141"/>
       <use xlink:href="#DejaVuSans-6e" x="222.65625"/>
       <use xlink:href="#DejaVuSans-73" x="286.035156"/>
      </g>
     </g>
    </g>
    <g id="xtick_29">
     <g id="line2d_79">
      <path d="M 786.24 576.72 
L 786.24 483.988966 
" clip-path="url(#p11153e3e39)" style="fill: none; stroke-dasharray: 1.85,0.8; stroke-dashoffset: 0; stroke: #b2b2b2; stroke-width: 0.5"/>
     </g>
     <g id="line2d_80">
      <g>
       <use xlink:href="#m0bb7bb918a" x="786.24" y="576.72" style="stroke: #000000; stroke-width: 0.8"/>
      </g>
     </g>
     <g id="text_18">
      <!-- 200 ns -->
      <g transform="translate(762.57125 590.857813) scale(0.14 -0.14)">
       <use xlink:href="#DejaVuSans-32"/>
       <use xlink:href="#DejaVuSans-30" x="63.623047"/>
       <use xlink:href="#DejaVuSans-30" x="127.246094"/>
       <use xlink:href="#DejaVuSans-20" x="190.869141"/>
       <use xlink:href="#DejaVuSans-6e" x="222.65625"/>
       <use xlink:href="#DejaVuSans-73" x="286.035156"/>
      </g>
     </g>
    </g>
    <g id="xtick_30">
     <g id="line2d_81">
      <path d="M 947.52 576.72 
L 947.52 483.988966 
" clip-path="url(#p11153e3e39)" style="fill: none; stroke-dasharray: 1.85,0.8; stroke-dashoffset: 0; stroke: #b2b2b2; stroke-width: 0.5"/>
     </g>
     <g id="line2d_82">
      <g>
       <use xlink:href="#m0bb7bb918a" x="947.52" y="576.72" style="stroke: #000000; stroke-width: 0.8"/>
      </g>
     </g>
     <g id="text_19">
      <!-- 250 ns -->
      <g transform="translate(923.85125 590.857813) scale(0.14 -0.14)">
       <use xlink:href="#DejaVuSans-32"/>
       <use xlink:href="#DejaVuSans-35" x="63.623047"/>
       <use xlink:href="#DejaVuSans-30" x="127.246094"/>
       <use xlink:href="#DejaVuSans-20" x="190.869141"/>
       <use xlink:href="#DejaVuSans-6e" x="222.65625"/>
       <use xlink:href="#DejaVuSans-73" x="286.035156"/>
      </g>
     </g>
    </g>
    <g id="text_20">
     <!-- Time -->
     <g transform="translate(527.192969 608.407187) scale(0.14 -0.14)">
      <defs>
       <path id="DejaVuSans-69" d="M 603 3500 
L 1178 3500 
L 1178 0 
L 603 0 
L 603 3500 
z
M 603 4863 
L 1178 4863 
L 1178 4134 
L 603 4134 
L 603 4863 
z
" transform="scale(0.015625)"/>
       <path id="DejaVuSans-6d" d="M 3328 2828 
Q 3544 3216 3844 3400 
Q 4144 3584 4550 3584 
Q 5097 3584 5394 3201 
Q 5691 2819 5691 2113 
L 5691 0 
L 5113 0 
L 5113 2094 
Q 5113 2597 4934 2840 
Q 4756 3084 4391 3084 
Q 3944 3084 3684 2787 
Q 3425 2491 3425 1978 
L 3425 0 
L 2847 0 
L 2847 2094 
Q 2847 2600 2669 2842 
Q 2491 3084 2119 3084 
Q 1678 3084 1418 2786 
Q 1159 2488 1159 1978 
L 1159 0 
L 581 0 
L 581 3500 
L 1159 3500 
L 1159 2956 
Q 1356 3278 1631 3431 
Q 1906 3584 2284 3584 
Q 2666 3584 2933 3390 
Q 3200 3197 3328 2828 
z
" transform="scale(0.015625)"/>
       <path id="DejaVuSans-65" d="M 3597 1894 
L 3597 1613 
L 953 1613 
Q 991 1019 1311 708 
Q 1631 397 2203 397 
Q 2534 397 2845 478 
Q 3156 559 3463 722 
L 3463 178 
Q 3153 47 2828 -22 
Q 2503 -91 2169 -91 
Q 1331 -91 842 396 
Q 353 884 353 1716 
Q 353 2575 817 3079 
Q 1281 3584 2069 3584 
Q 2775 3584 3186 3129 
Q 3597 2675 3597 1894 
z
M 3022 2063 
Q 3016 2534 2758 2815 
Q 2500 3097 2075 3097 
Q 1594 3097 1305 2825 
Q 1016 2553 972 2059 
L 3022 2063 
z
" transform="scale(0.015625)"/>
      </defs>
      <use xlink:href="#DejaVuSans-54"/>
      <use xlink:href="#DejaVuSans-69" x="57.958984"/>
      <use xlink:href="#DejaVuSans-6d" x="85.742188"/>
      <use xlink:href="#DejaVuSans-65" x="183.154297"/>
     </g>
    </g>
   </g>
   <g id="matplotlib.axis_10">
    <g id="ytick_10">
     <g id="line2d_83">
      <path d="M 100.8 569.745885 
L 987.84 569.745885 
" clip-path="url(#p11153e3e39)" style="fill: none; stroke-dasharray: 1.85,0.8; stroke-dashoffset: 0; stroke: #b2b2b2; stroke-width: 0.5"/>
     </g>
     <g id="line2d_84">
      <g>
       <use xlink:href="#m7e766f3585" x="100.8" y="569.745885" style="stroke: #000000; stroke-width: 0.8"/>
      </g>
     </g>
     <g id="text_21">
      <!-- 0 V -->
      <g transform="translate(74.36625 575.064792) scale(0.14 -0.14)">
       <use xlink:href="#DejaVuSans-30"/>
       <use xlink:href="#DejaVuSans-20" x="63.623047"/>
       <use xlink:href="#DejaVuSans-56" x="95.410156"/>
      </g>
     </g>
    </g>
    <g id="ytick_11">
     <g id="line2d_85">
      <path d="M 100.8 535.950348 
L 987.84 535.950348 
" clip-path="url(#p11153e3e39)" style="fill: none; stroke-dasharray: 1.85,0.8; stroke-dashoffset: 0; stroke: #b2b2b2; stroke-width: 0.5"/>
     </g>
     <g id="line2d_86">
      <g>
       <use xlink:href="#m7e766f3585" x="100.8" y="535.950348" style="stroke: #000000; stroke-width: 0.8"/>
      </g>
     </g>
     <g id="text_22">
      <!-- 500 mV -->
      <g transform="translate(42.914375 541.269254) scale(0.14 -0.14)">
       <use xlink:href="#DejaVuSans-35"/>
       <use xlink:href="#DejaVuSans-30" x="63.623047"/>
       <use xlink:href="#DejaVuSans-30" x="127.246094"/>
       <use xlink:href="#DejaVuSans-20" x="190.869141"/>
       <use xlink:href="#DejaVuSans-6d" x="222.65625"/>
       <use xlink:href="#DejaVuSans-56" x="320.068359"/>
      </g>
     </g>
    </g>
    <g id="ytick_12">
     <g id="line2d_87">
      <path d="M 100.8 502.15481 
L 987.84 502.15481 
" clip-path="url(#p11153e3e39)" style="fill: none; stroke-dasharray: 1.85,0.8; stroke-dashoffset: 0; stroke: #b2b2b2; stroke-width: 0.5"/>
     </g>
     <g id="line2d_88">
      <g>
       <use xlink:href="#m7e766f3585" x="100.8" y="502.15481" style="stroke: #000000; stroke-width: 0.8"/>
      </g>
     </g>
     <g id="text_23">
      <!-- 1 V -->
      <g transform="translate(74.36625 507.473717) scale(0.14 -0.14)">
       <use xlink:href="#DejaVuSans-31"/>
       <use xlink:href="#DejaVuSans-20" x="63.623047"/>
       <use xlink:href="#DejaVuSans-56" x="95.410156"/>
      </g>
     </g>
    </g>
    <g id="text_24">
     <g id="patch_27">
      <path d="M 34.8768 554.329483 
L 34.8768 506.379483 
L 11.247425 506.379483 
L 11.247425 554.329483 
z
" style="fill: #ffff00; opacity: 0.2; stroke: #eeeeee; stroke-width: 0.5; stroke-linejoin: miter"/>
     </g>
     <!-- FOUT -->
     <g transform="translate(26.925238 549.289483) rotate(-90) scale(0.14 -0.14)">
      <use xlink:href="#DejaVuSans-46"/>
      <use xlink:href="#DejaVuSans-4f" x="57.519531"/>
      <use xlink:href="#DejaVuSans-55" x="136.230469"/>
      <use xlink:href="#DejaVuSans-54" x="209.423828"/>
     </g>
    </g>
   </g>
   <g id="line2d_89">
    <path d="M 141.12 488.636595 
L 173.472768 488.643355 
L 173.505024 488.44734 
L 173.569536 526.789729 
L 173.69856 572.504953 
L 173.730816 572.3695 
L 173.827584 567.842115 
L 173.892096 569.3609 
L 174.053376 570.064192 
L 174.117888 569.946665 
L 174.408192 569.492054 
L 174.440448 569.54151 
L 174.66624 569.729954 
L 176.182272 569.740151 
L 180.117504 569.761449 
L 193.568256 569.752159 
L 212.954112 569.74401 
L 255.30624 569.743704 
L 255.6288 488.52845 
L 255.854592 488.670391 
L 256.209408 488.629836 
L 334.849536 488.650114 
L 334.881792 492.854278 
L 335.043072 572.18376 
L 335.107584 570.261206 
L 335.172096 568.338639 
L 335.236608 568.870108 
L 335.365632 570.783003 
L 335.430144 570.410083 
L 335.591424 569.797213 
L 335.881728 569.648439 
L 336.559104 569.817924 
L 337.107456 569.746143 
L 350.009856 569.744206 
L 416.489472 569.74333 
L 416.553984 567.480841 
L 416.812032 488.204013 
L 416.844288 488.339195 
L 416.973312 488.852887 
L 417.037824 488.778537 
L 417.39264 488.548727 
L 417.844224 488.717705 
L 418.457088 488.562245 
L 419.328 488.636595 
L 471.873024 488.569004 
L 471.90528 488.4541 
L 471.937536 488.514931 
L 471.969792 492.435214 
L 472.131072 570.258314 
L 472.195584 569.736692 
L 472.421376 569.743905 
L 496.387584 569.744206 
L 518.418432 569.799962 
L 518.450688 569.291673 
L 518.5152 557.298313 
L 518.708736 489.042142 
L 518.870016 488.643355 
L 519.418368 488.636595 
L 520.482816 488.636595 
L 520.547328 500.377165 
L 520.805376 569.776604 
L 520.902144 569.744526 
L 526.611456 569.744193 
L 577.414656 569.725929 
L 577.446912 569.062877 
L 577.737216 488.663632 
L 578.059776 488.636595 
L 947.52 488.636595 
L 947.52 488.636595 
" clip-path="url(#p11153e3e39)" style="fill: none; stroke: #ff00ff; stroke-width: 2; stroke-linecap: square"/>
   </g>
   <g id="patch_28">
    <path d="M 100.8 576.72 
L 100.8 483.988966 
" style="fill: none; stroke: #bcbcbc; stroke-width: 0.8; stroke-linejoin: miter; stroke-linecap: square"/>
   </g>
   <g id="patch_29">
    <path d="M 987.84 576.72 
L 987.84 483.988966 
" style="fill: none; stroke: #bcbcbc; stroke-width: 0.8; stroke-linejoin: miter; stroke-linecap: square"/>
   </g>
   <g id="patch_30">
    <path d="M 100.8 576.72 
L 987.84 576.72 
" style="fill: none; stroke: #bcbcbc; stroke-width: 0.8; stroke-linejoin: miter; stroke-linecap: square"/>
   </g>
   <g id="patch_31">
    <path d="M 100.8 483.988966 
L 987.84 483.988966 
" style="fill: none; stroke: #bcbcbc; stroke-width: 0.8; stroke-linejoin: miter; stroke-linecap: square"/>
   </g>
  </g>
  <g id="axes_6">
   <g id="patch_32">
    <path d="M 201.6 628.56 
L 856.8 628.56 
L 856.8 615.6 
L 201.6 615.6 
z
" clip-path="url(#pa9562207ae)" style="fill: #d3d3d3"/>
   </g>
   <g id="patch_33">
    <path d="M 201.6 628.56 
L 590.04 628.56 
L 590.04 615.6 
L 201.6 615.6 
z
" clip-path="url(#pa9562207ae)" style="fill: #0000ff"/>
   </g>
   <g id="line2d_90">
    <path d="M 201.6 635.04 
L 201.6 609.12 
" clip-path="url(#p509ba1cb55)" style="fill: none; stroke: #ff0000; stroke-linecap: square"/>
   </g>
   <g id="line2d_91">
    <defs>
     <path id="m1cfff34459" d="M 0 5 
C 1.326016 5 2.597899 4.473168 3.535534 3.535534 
C 4.473168 2.597899 5 1.326016 5 0 
C 5 -1.326016 4.473168 -2.597899 3.535534 -3.535534 
C 2.597899 -4.473168 1.326016 -5 0 -5 
C -1.326016 -5 -2.597899 -4.473168 -3.535534 -3.535534 
C -4.473168 -2.597899 -5 -1.326016 -5 0 
C -5 1.326016 -4.473168 2.597899 -3.535534 3.535534 
C -2.597899 4.473168 -1.326016 5 0 5 
z
" style="stroke: #bfbfbf"/>
    </defs>
    <g>
     <use xlink:href="#m1cfff34459" x="590.04" y="622.08" style="fill: #ffffff; stroke: #bfbfbf"/>
    </g>
   </g>
   <g id="text_25">
    <!-- #Sweep -->
    <g transform="translate(138.622875 625.39125) scale(0.12 -0.12)">
     <defs>
      <path id="DejaVuSans-23" d="M 3272 2816 
L 2363 2816 
L 2100 1772 
L 3016 1772 
L 3272 2816 
z
M 2803 4594 
L 2478 3297 
L 3391 3297 
L 3719 4594 
L 4219 4594 
L 3897 3297 
L 4872 3297 
L 4872 2816 
L 3775 2816 
L 3519 1772 
L 4513 1772 
L 4513 1294 
L 3397 1294 
L 3072 0 
L 2572 0 
L 2894 1294 
L 1978 1294 
L 1656 0 
L 1153 0 
L 1478 1294 
L 494 1294 
L 494 1772 
L 1594 1772 
L 1856 2816 
L 850 2816 
L 850 3297 
L 1978 3297 
L 2297 4594 
L 2803 4594 
z
" transform="scale(0.015625)"/>
      <path id="DejaVuSans-77" d="M 269 3500 
L 844 3500 
L 1563 769 
L 2278 3500 
L 2956 3500 
L 3675 769 
L 4391 3500 
L 4966 3500 
L 4050 0 
L 3372 0 
L 2619 2869 
L 1863 0 
L 1184 0 
L 269 3500 
z
" transform="scale(0.015625)"/>
      <path id="DejaVuSans-70" d="M 1159 525 
L 1159 -1331 
L 581 -1331 
L 581 3500 
L 1159 3500 
L 1159 2969 
Q 1341 3281 1617 3432 
Q 1894 3584 2278 3584 
Q 2916 3584 3314 3078 
Q 3713 2572 3713 1747 
Q 3713 922 3314 415 
Q 2916 -91 2278 -91 
Q 1894 -91 1617 61 
Q 1341 213 1159 525 
z
M 3116 1747 
Q 3116 2381 2855 2742 
Q 2594 3103 2138 3103 
Q 1681 3103 1420 2742 
Q 1159 2381 1159 1747 
Q 1159 1113 1420 752 
Q 1681 391 2138 391 
Q 2594 391 2855 752 
Q 3116 1113 3116 1747 
z
" transform="scale(0.015625)"/>
     </defs>
     <use xlink:href="#DejaVuSans-23"/>
     <use xlink:href="#DejaVuSans-53" x="83.789062"/>
     <use xlink:href="#DejaVuSans-77" x="147.265625"/>
     <use xlink:href="#DejaVuSans-65" x="229.052734"/>
     <use xlink:href="#DejaVuSans-65" x="290.576172"/>
     <use xlink:href="#DejaVuSans-70" x="352.099609"/>
    </g>
   </g>
   <g id="text_26">
    <!-- $\mathdefault{83}$ -->
    <g transform="translate(869.904 625.39125) scale(0.12 -0.12)">
     <defs>
      <path id="DejaVuSans-38" d="M 2034 2216 
Q 1584 2216 1326 1975 
Q 1069 1734 1069 1313 
Q 1069 891 1326 650 
Q 1584 409 2034 409 
Q 2484 409 2743 651 
Q 3003 894 3003 1313 
Q 3003 1734 2745 1975 
Q 2488 2216 2034 2216 
z
M 1403 2484 
Q 997 2584 770 2862 
Q 544 3141 544 3541 
Q 544 4100 942 4425 
Q 1341 4750 2034 4750 
Q 2731 4750 3128 4425 
Q 3525 4100 3525 3541 
Q 3525 3141 3298 2862 
Q 3072 2584 2669 2484 
Q 3125 2378 3379 2068 
Q 3634 1759 3634 1313 
Q 3634 634 3220 271 
Q 2806 -91 2034 -91 
Q 1263 -91 848 271 
Q 434 634 434 1313 
Q 434 1759 690 2068 
Q 947 2378 1403 2484 
z
M 1172 3481 
Q 1172 3119 1398 2916 
Q 1625 2713 2034 2713 
Q 2441 2713 2670 2916 
Q 2900 3119 2900 3481 
Q 2900 3844 2670 4047 
Q 2441 4250 2034 4250 
Q 1625 4250 1398 4047 
Q 1172 3844 1172 3481 
z
" transform="scale(0.015625)"/>
      <path id="DejaVuSans-33" d="M 2597 2516 
Q 3050 2419 3304 2112 
Q 3559 1806 3559 1356 
Q 3559 666 3084 287 
Q 2609 -91 1734 -91 
Q 1441 -91 1130 -33 
Q 819 25 488 141 
L 488 750 
Q 750 597 1062 519 
Q 1375 441 1716 441 
Q 2309 441 2620 675 
Q 2931 909 2931 1356 
Q 2931 1769 2642 2001 
Q 2353 2234 1838 2234 
L 1294 2234 
L 1294 2753 
L 1863 2753 
Q 2328 2753 2575 2939 
Q 2822 3125 2822 3475 
Q 2822 3834 2567 4026 
Q 2313 4219 1838 4219 
Q 1578 4219 1281 4162 
Q 984 4106 628 3988 
L 628 4550 
Q 988 4650 1302 4700 
Q 1616 4750 1894 4750 
Q 2613 4750 3031 4423 
Q 3450 4097 3450 3541 
Q 3450 3153 3228 2886 
Q 3006 2619 2597 2516 
z
" transform="scale(0.015625)"/>
     </defs>
     <use xlink:href="#DejaVuSans-38" transform="translate(0 0.78125)"/>
     <use xlink:href="#DejaVuSans-33" transform="translate(63.623047 0.78125)"/>
    </g>
   </g>
  </g>
  <g id="text_27">
   <!-- DFF under BBI sweep analysis (Sweep = 93E-9) -->
   <g transform="translate(313.34625 25.1175) scale(0.16 -0.16)">
    <defs>
     <path id="DejaVuSans-75" d="M 544 1381 
L 544 3500 
L 1119 3500 
L 1119 1403 
Q 1119 906 1312 657 
Q 1506 409 1894 409 
Q 2359 409 2629 706 
Q 2900 1003 2900 1516 
L 2900 3500 
L 3475 3500 
L 3475 0 
L 2900 0 
L 2900 538 
Q 2691 219 2414 64 
Q 2138 -91 1772 -91 
Q 1169 -91 856 284 
Q 544 659 544 1381 
z
M 1991 3584 
L 1991 3584 
z
" transform="scale(0.015625)"/>
     <path id="DejaVuSans-64" d="M 2906 2969 
L 2906 4863 
L 3481 4863 
L 3481 0 
L 2906 0 
L 2906 525 
Q 2725 213 2448 61 
Q 2172 -91 1784 -91 
Q 1150 -91 751 415 
Q 353 922 353 1747 
Q 353 2572 751 3078 
Q 1150 3584 1784 3584 
Q 2172 3584 2448 3432 
Q 2725 3281 2906 2969 
z
M 947 1747 
Q 947 1113 1208 752 
Q 1469 391 1925 391 
Q 2381 391 2643 752 
Q 2906 1113 2906 1747 
Q 2906 2381 2643 2742 
Q 2381 3103 1925 3103 
Q 1469 3103 1208 2742 
Q 947 2381 947 1747 
z
" transform="scale(0.015625)"/>
     <path id="DejaVuSans-72" d="M 2631 2963 
Q 2534 3019 2420 3045 
Q 2306 3072 2169 3072 
Q 1681 3072 1420 2755 
Q 1159 2438 1159 1844 
L 1159 0 
L 581 0 
L 581 3500 
L 1159 3500 
L 1159 2956 
Q 1341 3275 1631 3429 
Q 1922 3584 2338 3584 
Q 2397 3584 2469 3576 
Q 2541 3569 2628 3553 
L 2631 2963 
z
" transform="scale(0.015625)"/>
     <path id="DejaVuSans-61" d="M 2194 1759 
Q 1497 1759 1228 1600 
Q 959 1441 959 1056 
Q 959 750 1161 570 
Q 1363 391 1709 391 
Q 2188 391 2477 730 
Q 2766 1069 2766 1631 
L 2766 1759 
L 2194 1759 
z
M 3341 1997 
L 3341 0 
L 2766 0 
L 2766 531 
Q 2569 213 2275 61 
Q 1981 -91 1556 -91 
Q 1019 -91 701 211 
Q 384 513 384 1019 
Q 384 1609 779 1909 
Q 1175 2209 1959 2209 
L 2766 2209 
L 2766 2266 
Q 2766 2663 2505 2880 
Q 2244 3097 1772 3097 
Q 1472 3097 1187 3025 
Q 903 2953 641 2809 
L 641 3341 
Q 956 3463 1253 3523 
Q 1550 3584 1831 3584 
Q 2591 3584 2966 3190 
Q 3341 2797 3341 1997 
z
" transform="scale(0.015625)"/>
     <path id="DejaVuSans-6c" d="M 603 4863 
L 1178 4863 
L 1178 0 
L 603 0 
L 603 4863 
z
" transform="scale(0.015625)"/>
     <path id="DejaVuSans-79" d="M 2059 -325 
Q 1816 -950 1584 -1140 
Q 1353 -1331 966 -1331 
L 506 -1331 
L 506 -850 
L 844 -850 
Q 1081 -850 1212 -737 
Q 1344 -625 1503 -206 
L 1606 56 
L 191 3500 
L 800 3500 
L 1894 763 
L 2988 3500 
L 3597 3500 
L 2059 -325 
z
" transform="scale(0.015625)"/>
     <path id="DejaVuSans-28" d="M 1984 4856 
Q 1566 4138 1362 3434 
Q 1159 2731 1159 2009 
Q 1159 1288 1364 580 
Q 1569 -128 1984 -844 
L 1484 -844 
Q 1016 -109 783 600 
Q 550 1309 550 2009 
Q 550 2706 781 3412 
Q 1013 4119 1484 4856 
L 1984 4856 
z
" transform="scale(0.015625)"/>
     <path id="DejaVuSans-3d" d="M 678 2906 
L 4684 2906 
L 4684 2381 
L 678 2381 
L 678 2906 
z
M 678 1631 
L 4684 1631 
L 4684 1100 
L 678 1100 
L 678 1631 
z
" transform="scale(0.015625)"/>
     <path id="DejaVuSans-39" d="M 703 97 
L 703 672 
Q 941 559 1184 500 
Q 1428 441 1663 441 
Q 2288 441 2617 861 
Q 2947 1281 2994 2138 
Q 2813 1869 2534 1725 
Q 2256 1581 1919 1581 
Q 1219 1581 811 2004 
Q 403 2428 403 3163 
Q 403 3881 828 4315 
Q 1253 4750 1959 4750 
Q 2769 4750 3195 4129 
Q 3622 3509 3622 2328 
Q 3622 1225 3098 567 
Q 2575 -91 1691 -91 
Q 1453 -91 1209 -44 
Q 966 3 703 97 
z
M 1959 2075 
Q 2384 2075 2632 2365 
Q 2881 2656 2881 3163 
Q 2881 3666 2632 3958 
Q 2384 4250 1959 4250 
Q 1534 4250 1286 3958 
Q 1038 3666 1038 3163 
Q 1038 2656 1286 2365 
Q 1534 2075 1959 2075 
z
" transform="scale(0.015625)"/>
     <path id="DejaVuSans-2d" d="M 313 2009 
L 1997 2009 
L 1997 1497 
L 313 1497 
L 313 2009 
z
" transform="scale(0.015625)"/>
     <path id="DejaVuSans-29" d="M 513 4856 
L 1013 4856 
Q 1481 4119 1714 3412 
Q 1947 2706 1947 2009 
Q 1947 1309 1714 600 
Q 1481 -109 1013 -844 
L 513 -844 
Q 928 -128 1133 580 
Q 1338 1288 1338 2009 
Q 1338 2731 1133 3434 
Q 928 4138 513 4856 
z
" transform="scale(0.015625)"/>
    </defs>
    <use xlink:href="#DejaVuSans-44"/>
    <use xlink:href="#DejaVuSans-46" x="77.001953"/>
    <use xlink:href="#DejaVuSans-46" x="134.521484"/>
    <use xlink:href="#DejaVuSans-20" x="192.041016"/>
    <use xlink:href="#DejaVuSans-75" x="223.828125"/>
    <use xlink:href="#DejaVuSans-6e" x="287.207031"/>
    <use xlink:href="#DejaVuSans-64" x="350.585938"/>
    <use xlink:href="#DejaVuSans-65" x="414.0625"/>
    <use xlink:href="#DejaVuSans-72" x="475.585938"/>
    <use xlink:href="#DejaVuSans-20" x="516.699219"/>
    <use xlink:href="#DejaVuSans-42" x="548.486328"/>
    <use xlink:href="#DejaVuSans-42" x="617.089844"/>
    <use xlink:href="#DejaVuSans-49" x="685.693359"/>
    <use xlink:href="#DejaVuSans-20" x="715.185547"/>
    <use xlink:href="#DejaVuSans-73" x="746.972656"/>
    <use xlink:href="#DejaVuSans-77" x="799.072266"/>
    <use xlink:href="#DejaVuSans-65" x="880.859375"/>
    <use xlink:href="#DejaVuSans-65" x="942.382812"/>
    <use xlink:href="#DejaVuSans-70" x="1003.90625"/>
    <use xlink:href="#DejaVuSans-20" x="1067.382812"/>
    <use xlink:href="#DejaVuSans-61" x="1099.169922"/>
    <use xlink:href="#DejaVuSans-6e" x="1160.449219"/>
    <use xlink:href="#DejaVuSans-61" x="1223.828125"/>
    <use xlink:href="#DejaVuSans-6c" x="1285.107422"/>
    <use xlink:href="#DejaVuSans-79" x="1312.890625"/>
    <use xlink:href="#DejaVuSans-73" x="1372.070312"/>
    <use xlink:href="#DejaVuSans-69" x="1424.169922"/>
    <use xlink:href="#DejaVuSans-73" x="1451.953125"/>
    <use xlink:href="#DejaVuSans-20" x="1504.052734"/>
    <use xlink:href="#DejaVuSans-28" x="1535.839844"/>
    <use xlink:href="#DejaVuSans-53" x="1574.853516"/>
    <use xlink:href="#DejaVuSans-77" x="1638.330078"/>
    <use xlink:href="#DejaVuSans-65" x="1720.117188"/>
    <use xlink:href="#DejaVuSans-65" x="1781.640625"/>
    <use xlink:href="#DejaVuSans-70" x="1843.164062"/>
    <use xlink:href="#DejaVuSans-20" x="1906.640625"/>
    <use xlink:href="#DejaVuSans-3d" x="1938.427734"/>
    <use xlink:href="#DejaVuSans-20" x="2022.216797"/>
    <use xlink:href="#DejaVuSans-39" x="2054.003906"/>
    <use xlink:href="#DejaVuSans-33" x="2117.626953"/>
    <use xlink:href="#DejaVuSans-45" x="2181.25"/>
    <use xlink:href="#DejaVuSans-2d" x="2244.433594"/>
    <use xlink:href="#DejaVuSans-39" x="2280.517578"/>
    <use xlink:href="#DejaVuSans-29" x="2344.140625"/>
   </g>
  </g>
 </g>
 <defs>
  <clipPath id="pce0f07fda6">
   <rect x="100.8" y="38.88" width="887.04" height="92.731034"/>
  </clipPath>
  <clipPath id="p7c3428cfea">
   <rect x="100.8" y="150.157241" width="887.04" height="92.731034"/>
  </clipPath>
  <clipPath id="pfbd2afacba">
   <rect x="100.8" y="261.434483" width="887.04" height="92.731034"/>
  </clipPath>
  <clipPath id="p01ece56e10">
   <rect x="100.8" y="372.711724" width="887.04" height="92.731034"/>
  </clipPath>
  <clipPath id="p11153e3e39">
   <rect x="100.8" y="483.988966" width="887.04" height="92.731034"/>
  </clipPath>
  <clipPath id="pa9562207ae">
   <rect x="201.6" y="609.12" width="655.2" height="25.92"/>
  </clipPath>
  <clipPath id="p509ba1cb55">
   <path d="M 201.6 628.56 
L 856.8 628.56 
L 856.8 615.6 
L 201.6 615.6 
z
"/>
  </clipPath>
 </defs>
</svg>
