<?xml version="1.0" encoding="utf-8" standalone="no"?>
<!DOCTYPE svg PUBLIC "-//W3C//DTD SVG 1.1//EN"
  "http://www.w3.org/Graphics/SVG/1.1/DTD/svg11.dtd">
<svg xmlns:xlink="http://www.w3.org/1999/xlink" width="1008pt" height="648pt" viewBox="0 0 1008 648" xmlns="http://www.w3.org/2000/svg" version="1.1">
 <metadata>
  <rdf:RDF xmlns:dc="http://purl.org/dc/elements/1.1/" xmlns:cc="http://creativecommons.org/ns#" xmlns:rdf="http://www.w3.org/1999/02/22-rdf-syntax-ns#">
   <cc:Work>
    <dc:type rdf:resource="http://purl.org/dc/dcmitype/StillImage"/>
    <dc:date>2024-06-03T10:45:56.110690</dc:date>
    <dc:format>image/svg+xml</dc:format>
    <dc:creator>
     <cc:Agent>
      <dc:title>Matplotlib v3.9.0, https://matplotlib.org/</dc:title>
     </cc:Agent>
    </dc:creator>
   </cc:Work>
  </rdf:RDF>
 </metadata>
 <defs>
  <style type="text/css">*{stroke-linejoin: round; stroke-linecap: butt}</style>
 </defs>
 <g id="figure_1">
  <g id="patch_1">
   <path d="M 0 648 
L 1008 648 
L 1008 0 
L 0 0 
z
" style="fill: #ffffff"/>
  </g>
  <g id="axes_1">
   <g id="patch_2">
    <path d="M 100.8 131.611034 
L 987.84 131.611034 
L 987.84 38.88 
L 100.8 38.88 
z
" style="fill: #eeeeee"/>
   </g>
   <g id="matplotlib.axis_1">
    <g id="xtick_1">
     <g id="line2d_1">
      <path d="M 141.12 131.611034 
L 141.12 38.88 
" clip-path="url(#p190810e3ed)" style="fill: none; stroke-dasharray: 1.85,0.8; stroke-dashoffset: 0; stroke: #b2b2b2; stroke-width: 0.5"/>
     </g>
     <g id="line2d_2">
      <defs>
       <path id="mc42ceff1c4" d="M 0 0 
L 0 -3.5 
" style="stroke: #000000; stroke-width: 0.8"/>
      </defs>
      <g>
       <use xlink:href="#mc42ceff1c4" x="141.12" y="131.611034" style="stroke: #000000; stroke-width: 0.8"/>
      </g>
     </g>
    </g>
    <g id="xtick_2">
     <g id="line2d_3">
      <path d="M 302.4 131.611034 
L 302.4 38.88 
" clip-path="url(#p190810e3ed)" style="fill: none; stroke-dasharray: 1.85,0.8; stroke-dashoffset: 0; stroke: #b2b2b2; stroke-width: 0.5"/>
     </g>
     <g id="line2d_4">
      <g>
       <use xlink:href="#mc42ceff1c4" x="302.4" y="131.611034" style="stroke: #000000; stroke-width: 0.8"/>
      </g>
     </g>
    </g>
    <g id="xtick_3">
     <g id="line2d_5">
      <path d="M 463.68 131.611034 
L 463.68 38.88 
" clip-path="url(#p190810e3ed)" style="fill: none; stroke-dasharray: 1.85,0.8; stroke-dashoffset: 0; stroke: #b2b2b2; stroke-width: 0.5"/>
     </g>
     <g id="line2d_6">
      <g>
       <use xlink:href="#mc42ceff1c4" x="463.68" y="131.611034" style="stroke: #000000; stroke-width: 0.8"/>
      </g>
     </g>
    </g>
    <g id="xtick_4">
     <g id="line2d_7">
      <path d="M 624.96 131.611034 
L 624.96 38.88 
" clip-path="url(#p190810e3ed)" style="fill: none; stroke-dasharray: 1.85,0.8; stroke-dashoffset: 0; stroke: #b2b2b2; stroke-width: 0.5"/>
     </g>
     <g id="line2d_8">
      <g>
       <use xlink:href="#mc42ceff1c4" x="624.96" y="131.611034" style="stroke: #000000; stroke-width: 0.8"/>
      </g>
     </g>
    </g>
    <g id="xtick_5">
     <g id="line2d_9">
      <path d="M 786.24 131.611034 
L 786.24 38.88 
" clip-path="url(#p190810e3ed)" style="fill: none; stroke-dasharray: 1.85,0.8; stroke-dashoffset: 0; stroke: #b2b2b2; stroke-width: 0.5"/>
     </g>
     <g id="line2d_10">
      <g>
       <use xlink:href="#mc42ceff1c4" x="786.24" y="131.611034" style="stroke: #000000; stroke-width: 0.8"/>
      </g>
     </g>
    </g>
    <g id="xtick_6">
     <g id="line2d_11">
      <path d="M 947.52 131.611034 
L 947.52 38.88 
" clip-path="url(#p190810e3ed)" style="fill: none; stroke-dasharray: 1.85,0.8; stroke-dashoffset: 0; stroke: #b2b2b2; stroke-width: 0.5"/>
     </g>
     <g id="line2d_12">
      <g>
       <use xlink:href="#mc42ceff1c4" x="947.52" y="131.611034" style="stroke: #000000; stroke-width: 0.8"/>
      </g>
     </g>
    </g>
   </g>
   <g id="matplotlib.axis_2">
    <g id="ytick_1">
     <g id="line2d_13">
      <path d="M 100.8 98.340394 
L 987.84 98.340394 
" clip-path="url(#p190810e3ed)" style="fill: none; stroke-dasharray: 1.85,0.8; stroke-dashoffset: 0; stroke: #b2b2b2; stroke-width: 0.5"/>
     </g>
     <g id="line2d_14">
      <defs>
       <path id="m2226b751ea" d="M 0 0 
L 3.5 0 
" style="stroke: #000000; stroke-width: 0.8"/>
      </defs>
      <g>
       <use xlink:href="#m2226b751ea" x="100.8" y="98.340394" style="stroke: #000000; stroke-width: 0.8"/>
      </g>
     </g>
     <g id="text_1">
      <!-- −200 V -->
      <g transform="translate(44.819688 103.6593) scale(0.14 -0.14)">
       <defs>
        <path id="DejaVuSans-2212" d="M 678 2272 
L 4684 2272 
L 4684 1741 
L 678 1741 
L 678 2272 
z
" transform="scale(0.015625)"/>
        <path id="DejaVuSans-32" d="M 1228 531 
L 3431 531 
L 3431 0 
L 469 0 
L 469 531 
Q 828 903 1448 1529 
Q 2069 2156 2228 2338 
Q 2531 2678 2651 2914 
Q 2772 3150 2772 3378 
Q 2772 3750 2511 3984 
Q 2250 4219 1831 4219 
Q 1534 4219 1204 4116 
Q 875 4013 500 3803 
L 500 4441 
Q 881 4594 1212 4672 
Q 1544 4750 1819 4750 
Q 2544 4750 2975 4387 
Q 3406 4025 3406 3419 
Q 3406 3131 3298 2873 
Q 3191 2616 2906 2266 
Q 2828 2175 2409 1742 
Q 1991 1309 1228 531 
z
" transform="scale(0.015625)"/>
        <path id="DejaVuSans-30" d="M 2034 4250 
Q 1547 4250 1301 3770 
Q 1056 3291 1056 2328 
Q 1056 1369 1301 889 
Q 1547 409 2034 409 
Q 2525 409 2770 889 
Q 3016 1369 3016 2328 
Q 3016 3291 2770 3770 
Q 2525 4250 2034 4250 
z
M 2034 4750 
Q 2819 4750 3233 4129 
Q 3647 3509 3647 2328 
Q 3647 1150 3233 529 
Q 2819 -91 2034 -91 
Q 1250 -91 836 529 
Q 422 1150 422 2328 
Q 422 3509 836 4129 
Q 1250 4750 2034 4750 
z
" transform="scale(0.015625)"/>
        <path id="DejaVuSans-20" transform="scale(0.015625)"/>
        <path id="DejaVuSans-56" d="M 1831 0 
L 50 4666 
L 709 4666 
L 2188 738 
L 3669 4666 
L 4325 4666 
L 2547 0 
L 1831 0 
z
" transform="scale(0.015625)"/>
       </defs>
       <use xlink:href="#DejaVuSans-2212"/>
       <use xlink:href="#DejaVuSans-32" x="83.789062"/>
       <use xlink:href="#DejaVuSans-30" x="147.412109"/>
       <use xlink:href="#DejaVuSans-30" x="211.035156"/>
       <use xlink:href="#DejaVuSans-20" x="274.658203"/>
       <use xlink:href="#DejaVuSans-56" x="306.445312"/>
      </g>
     </g>
    </g>
    <g id="ytick_2">
     <g id="line2d_15">
      <path d="M 100.8 45.027377 
L 987.84 45.027377 
" clip-path="url(#p190810e3ed)" style="fill: none; stroke-dasharray: 1.85,0.8; stroke-dashoffset: 0; stroke: #b2b2b2; stroke-width: 0.5"/>
     </g>
     <g id="line2d_16">
      <g>
       <use xlink:href="#m2226b751ea" x="100.8" y="45.027377" style="stroke: #000000; stroke-width: 0.8"/>
      </g>
     </g>
     <g id="text_2">
      <!-- 0 V -->
      <g transform="translate(74.36625 50.346284) scale(0.14 -0.14)">
       <use xlink:href="#DejaVuSans-30"/>
       <use xlink:href="#DejaVuSans-20" x="63.623047"/>
       <use xlink:href="#DejaVuSans-56" x="95.410156"/>
      </g>
     </g>
    </g>
    <g id="text_3">
     <g id="patch_3">
      <path d="M 34.8768 131.080205 
L 34.8768 39.41083 
L 11.247425 39.41083 
L 11.247425 131.080205 
z
" style="fill: #ffff00; opacity: 0.2; stroke: #eeeeee; stroke-width: 0.5; stroke-linejoin: miter"/>
     </g>
     <!-- VPULSE BBI -->
     <g transform="translate(26.925238 126.040205) rotate(-90) scale(0.14 -0.14)">
      <defs>
       <path id="DejaVuSans-50" d="M 1259 4147 
L 1259 2394 
L 2053 2394 
Q 2494 2394 2734 2622 
Q 2975 2850 2975 3272 
Q 2975 3691 2734 3919 
Q 2494 4147 2053 4147 
L 1259 4147 
z
M 628 4666 
L 2053 4666 
Q 2838 4666 3239 4311 
Q 3641 3956 3641 3272 
Q 3641 2581 3239 2228 
Q 2838 1875 2053 1875 
L 1259 1875 
L 1259 0 
L 628 0 
L 628 4666 
z
" transform="scale(0.015625)"/>
       <path id="DejaVuSans-55" d="M 556 4666 
L 1191 4666 
L 1191 1831 
Q 1191 1081 1462 751 
Q 1734 422 2344 422 
Q 2950 422 3222 751 
Q 3494 1081 3494 1831 
L 3494 4666 
L 4128 4666 
L 4128 1753 
Q 4128 841 3676 375 
Q 3225 -91 2344 -91 
Q 1459 -91 1007 375 
Q 556 841 556 1753 
L 556 4666 
z
" transform="scale(0.015625)"/>
       <path id="DejaVuSans-4c" d="M 628 4666 
L 1259 4666 
L 1259 531 
L 3531 531 
L 3531 0 
L 628 0 
L 628 4666 
z
" transform="scale(0.015625)"/>
       <path id="DejaVuSans-53" d="M 3425 4513 
L 3425 3897 
Q 3066 4069 2747 4153 
Q 2428 4238 2131 4238 
Q 1616 4238 1336 4038 
Q 1056 3838 1056 3469 
Q 1056 3159 1242 3001 
Q 1428 2844 1947 2747 
L 2328 2669 
Q 3034 2534 3370 2195 
Q 3706 1856 3706 1288 
Q 3706 609 3251 259 
Q 2797 -91 1919 -91 
Q 1588 -91 1214 -16 
Q 841 59 441 206 
L 441 856 
Q 825 641 1194 531 
Q 1563 422 1919 422 
Q 2459 422 2753 634 
Q 3047 847 3047 1241 
Q 3047 1584 2836 1778 
Q 2625 1972 2144 2069 
L 1759 2144 
Q 1053 2284 737 2584 
Q 422 2884 422 3419 
Q 422 4038 858 4394 
Q 1294 4750 2059 4750 
Q 2388 4750 2728 4690 
Q 3069 4631 3425 4513 
z
" transform="scale(0.015625)"/>
       <path id="DejaVuSans-45" d="M 628 4666 
L 3578 4666 
L 3578 4134 
L 1259 4134 
L 1259 2753 
L 3481 2753 
L 3481 2222 
L 1259 2222 
L 1259 531 
L 3634 531 
L 3634 0 
L 628 0 
L 628 4666 
z
" transform="scale(0.015625)"/>
       <path id="DejaVuSans-42" d="M 1259 2228 
L 1259 519 
L 2272 519 
Q 2781 519 3026 730 
Q 3272 941 3272 1375 
Q 3272 1813 3026 2020 
Q 2781 2228 2272 2228 
L 1259 2228 
z
M 1259 4147 
L 1259 2741 
L 2194 2741 
Q 2656 2741 2882 2914 
Q 3109 3088 3109 3444 
Q 3109 3797 2882 3972 
Q 2656 4147 2194 4147 
L 1259 4147 
z
M 628 4666 
L 2241 4666 
Q 2963 4666 3353 4366 
Q 3744 4066 3744 3513 
Q 3744 3084 3544 2831 
Q 3344 2578 2956 2516 
Q 3422 2416 3680 2098 
Q 3938 1781 3938 1306 
Q 3938 681 3513 340 
Q 3088 0 2303 0 
L 628 0 
L 628 4666 
z
" transform="scale(0.015625)"/>
       <path id="DejaVuSans-49" d="M 628 4666 
L 1259 4666 
L 1259 0 
L 628 0 
L 628 4666 
z
" transform="scale(0.015625)"/>
      </defs>
      <use xlink:href="#DejaVuSans-56"/>
      <use xlink:href="#DejaVuSans-50" x="68.408203"/>
      <use xlink:href="#DejaVuSans-55" x="128.710938"/>
      <use xlink:href="#DejaVuSans-4c" x="201.904297"/>
      <use xlink:href="#DejaVuSans-53" x="257.617188"/>
      <use xlink:href="#DejaVuSans-45" x="321.09375"/>
      <use xlink:href="#DejaVuSans-20" x="384.277344"/>
      <use xlink:href="#DejaVuSans-42" x="416.064453"/>
      <use xlink:href="#DejaVuSans-42" x="484.667969"/>
      <use xlink:href="#DejaVuSans-49" x="553.271484"/>
     </g>
    </g>
   </g>
   <g id="line2d_17">
    <path d="M 141.12 45.027377 
L 586.285056 45.136282 
L 586.768896 46.425538 
L 594.994176 69.006772 
L 602.413056 89.863624 
L 604.025856 94.440546 
L 605.832192 99.675885 
L 612.089856 119.532318 
L 613.380096 120.153414 
L 614.218752 120.545265 
L 615.250944 121.017085 
L 615.831552 121.272988 
L 616.702464 121.656841 
L 617.283072 121.912744 
L 618.121728 122.269941 
L 619.702272 122.936354 
L 620.347392 123.202919 
L 621.444096 123.629423 
L 622.185984 123.922644 
L 623.282688 124.349149 
L 624.185856 124.677024 
L 624.863232 124.943589 
L 625.669632 125.25547 
L 627.024384 125.804594 
L 629.669376 126.790885 
L 630.28224 127.022796 
L 632.2176 127.395987 
L 650.700288 127.289361 
L 650.92608 126.801547 
L 669.215232 75.087922 
L 672.956928 63.292417 
L 676.666368 51.617666 
L 681.278976 49.3412 
L 686.633472 46.984578 
L 695.342592 43.484472 
L 696.213504 43.268927 
L 710.502912 43.108189 
L 717.308928 43.184799 
L 732.662784 43.746186 
L 760.4352 44.46146 
L 786.07872 44.774399 
L 821.689344 44.945888 
L 869.718528 44.953885 
L 947.52 44.953885 
L 947.52 44.953885 
" clip-path="url(#p190810e3ed)" style="fill: none; stroke: #ff0000; stroke-width: 2; stroke-linecap: square"/>
   </g>
   <g id="patch_4">
    <path d="M 100.8 131.611034 
L 100.8 38.88 
" style="fill: none; stroke: #bcbcbc; stroke-width: 0.8; stroke-linejoin: miter; stroke-linecap: square"/>
   </g>
   <g id="patch_5">
    <path d="M 987.84 131.611034 
L 987.84 38.88 
" style="fill: none; stroke: #bcbcbc; stroke-width: 0.8; stroke-linejoin: miter; stroke-linecap: square"/>
   </g>
   <g id="patch_6">
    <path d="M 100.8 131.611034 
L 987.84 131.611034 
" style="fill: none; stroke: #bcbcbc; stroke-width: 0.8; stroke-linejoin: miter; stroke-linecap: square"/>
   </g>
   <g id="patch_7">
    <path d="M 100.8 38.88 
L 987.84 38.88 
" style="fill: none; stroke: #bcbcbc; stroke-width: 0.8; stroke-linejoin: miter; stroke-linecap: square"/>
   </g>
  </g>
  <g id="axes_2">
   <g id="patch_8">
    <path d="M 100.8 242.888276 
L 987.84 242.888276 
L 987.84 150.157241 
L 100.8 150.157241 
z
" style="fill: #eeeeee"/>
   </g>
   <g id="matplotlib.axis_3">
    <g id="xtick_7">
     <g id="line2d_18">
      <path d="M 141.12 242.888276 
L 141.12 150.157241 
" clip-path="url(#pbe9e5f402a)" style="fill: none; stroke-dasharray: 1.85,0.8; stroke-dashoffset: 0; stroke: #b2b2b2; stroke-width: 0.5"/>
     </g>
     <g id="line2d_19">
      <g>
       <use xlink:href="#mc42ceff1c4" x="141.12" y="242.888276" style="stroke: #000000; stroke-width: 0.8"/>
      </g>
     </g>
    </g>
    <g id="xtick_8">
     <g id="line2d_20">
      <path d="M 302.4 242.888276 
L 302.4 150.157241 
" clip-path="url(#pbe9e5f402a)" style="fill: none; stroke-dasharray: 1.85,0.8; stroke-dashoffset: 0; stroke: #b2b2b2; stroke-width: 0.5"/>
     </g>
     <g id="line2d_21">
      <g>
       <use xlink:href="#mc42ceff1c4" x="302.4" y="242.888276" style="stroke: #000000; stroke-width: 0.8"/>
      </g>
     </g>
    </g>
    <g id="xtick_9">
     <g id="line2d_22">
      <path d="M 463.68 242.888276 
L 463.68 150.157241 
" clip-path="url(#pbe9e5f402a)" style="fill: none; stroke-dasharray: 1.85,0.8; stroke-dashoffset: 0; stroke: #b2b2b2; stroke-width: 0.5"/>
     </g>
     <g id="line2d_23">
      <g>
       <use xlink:href="#mc42ceff1c4" x="463.68" y="242.888276" style="stroke: #000000; stroke-width: 0.8"/>
      </g>
     </g>
    </g>
    <g id="xtick_10">
     <g id="line2d_24">
      <path d="M 624.96 242.888276 
L 624.96 150.157241 
" clip-path="url(#pbe9e5f402a)" style="fill: none; stroke-dasharray: 1.85,0.8; stroke-dashoffset: 0; stroke: #b2b2b2; stroke-width: 0.5"/>
     </g>
     <g id="line2d_25">
      <g>
       <use xlink:href="#mc42ceff1c4" x="624.96" y="242.888276" style="stroke: #000000; stroke-width: 0.8"/>
      </g>
     </g>
    </g>
    <g id="xtick_11">
     <g id="line2d_26">
      <path d="M 786.24 242.888276 
L 786.24 150.157241 
" clip-path="url(#pbe9e5f402a)" style="fill: none; stroke-dasharray: 1.85,0.8; stroke-dashoffset: 0; stroke: #b2b2b2; stroke-width: 0.5"/>
     </g>
     <g id="line2d_27">
      <g>
       <use xlink:href="#mc42ceff1c4" x="786.24" y="242.888276" style="stroke: #000000; stroke-width: 0.8"/>
      </g>
     </g>
    </g>
    <g id="xtick_12">
     <g id="line2d_28">
      <path d="M 947.52 242.888276 
L 947.52 150.157241 
" clip-path="url(#pbe9e5f402a)" style="fill: none; stroke-dasharray: 1.85,0.8; stroke-dashoffset: 0; stroke: #b2b2b2; stroke-width: 0.5"/>
     </g>
     <g id="line2d_29">
      <g>
       <use xlink:href="#mc42ceff1c4" x="947.52" y="242.888276" style="stroke: #000000; stroke-width: 0.8"/>
      </g>
     </g>
    </g>
   </g>
   <g id="matplotlib.axis_4">
    <g id="ytick_3">
     <g id="line2d_30">
      <path d="M 100.8 219.27928 
L 987.84 219.27928 
" clip-path="url(#pbe9e5f402a)" style="fill: none; stroke-dasharray: 1.85,0.8; stroke-dashoffset: 0; stroke: #b2b2b2; stroke-width: 0.5"/>
     </g>
     <g id="line2d_31">
      <g>
       <use xlink:href="#m2226b751ea" x="100.8" y="219.27928" style="stroke: #000000; stroke-width: 0.8"/>
      </g>
     </g>
     <g id="text_4">
      <!-- 0 V -->
      <g transform="translate(74.36625 224.598186) scale(0.14 -0.14)">
       <use xlink:href="#DejaVuSans-30"/>
       <use xlink:href="#DejaVuSans-20" x="63.623047"/>
       <use xlink:href="#DejaVuSans-56" x="95.410156"/>
      </g>
     </g>
    </g>
    <g id="ytick_4">
     <g id="line2d_32">
      <path d="M 100.8 185.739082 
L 987.84 185.739082 
" clip-path="url(#pbe9e5f402a)" style="fill: none; stroke-dasharray: 1.85,0.8; stroke-dashoffset: 0; stroke: #b2b2b2; stroke-width: 0.5"/>
     </g>
     <g id="line2d_33">
      <g>
       <use xlink:href="#m2226b751ea" x="100.8" y="185.739082" style="stroke: #000000; stroke-width: 0.8"/>
      </g>
     </g>
     <g id="text_5">
      <!-- 1 V -->
      <g transform="translate(74.36625 191.057988) scale(0.14 -0.14)">
       <defs>
        <path id="DejaVuSans-31" d="M 794 531 
L 1825 531 
L 1825 4091 
L 703 3866 
L 703 4441 
L 1819 4666 
L 2450 4666 
L 2450 531 
L 3481 531 
L 3481 0 
L 794 0 
L 794 531 
z
" transform="scale(0.015625)"/>
       </defs>
       <use xlink:href="#DejaVuSans-31"/>
       <use xlink:href="#DejaVuSans-20" x="63.623047"/>
       <use xlink:href="#DejaVuSans-56" x="95.410156"/>
      </g>
     </g>
    </g>
    <g id="ytick_5">
     <g id="line2d_34">
      <path d="M 100.8 152.198884 
L 987.84 152.198884 
" clip-path="url(#pbe9e5f402a)" style="fill: none; stroke-dasharray: 1.85,0.8; stroke-dashoffset: 0; stroke: #b2b2b2; stroke-width: 0.5"/>
     </g>
     <g id="line2d_35">
      <g>
       <use xlink:href="#m2226b751ea" x="100.8" y="152.198884" style="stroke: #000000; stroke-width: 0.8"/>
      </g>
     </g>
     <g id="text_6">
      <!-- 2 V -->
      <g transform="translate(74.36625 157.51779) scale(0.14 -0.14)">
       <use xlink:href="#DejaVuSans-32"/>
       <use xlink:href="#DejaVuSans-20" x="63.623047"/>
       <use xlink:href="#DejaVuSans-56" x="95.410156"/>
      </g>
     </g>
    </g>
    <g id="text_7">
     <g id="patch_9">
      <path d="M 34.8768 224.531509 
L 34.8768 168.514009 
L 11.247425 168.514009 
L 11.247425 224.531509 
z
" style="fill: #ffff00; opacity: 0.2; stroke: #eeeeee; stroke-width: 0.5; stroke-linejoin: miter"/>
     </g>
     <!-- DFF IN -->
     <g transform="translate(26.925238 219.491509) rotate(-90) scale(0.14 -0.14)">
      <defs>
       <path id="DejaVuSans-44" d="M 1259 4147 
L 1259 519 
L 2022 519 
Q 2988 519 3436 956 
Q 3884 1394 3884 2338 
Q 3884 3275 3436 3711 
Q 2988 4147 2022 4147 
L 1259 4147 
z
M 628 4666 
L 1925 4666 
Q 3281 4666 3915 4102 
Q 4550 3538 4550 2338 
Q 4550 1131 3912 565 
Q 3275 0 1925 0 
L 628 0 
L 628 4666 
z
" transform="scale(0.015625)"/>
       <path id="DejaVuSans-46" d="M 628 4666 
L 3309 4666 
L 3309 4134 
L 1259 4134 
L 1259 2759 
L 3109 2759 
L 3109 2228 
L 1259 2228 
L 1259 0 
L 628 0 
L 628 4666 
z
" transform="scale(0.015625)"/>
       <path id="DejaVuSans-4e" d="M 628 4666 
L 1478 4666 
L 3547 763 
L 3547 4666 
L 4159 4666 
L 4159 0 
L 3309 0 
L 1241 3903 
L 1241 0 
L 628 0 
L 628 4666 
z
" transform="scale(0.015625)"/>
      </defs>
      <use xlink:href="#DejaVuSans-44"/>
      <use xlink:href="#DejaVuSans-46" x="77.001953"/>
      <use xlink:href="#DejaVuSans-46" x="134.521484"/>
      <use xlink:href="#DejaVuSans-20" x="192.041016"/>
      <use xlink:href="#DejaVuSans-49" x="223.828125"/>
      <use xlink:href="#DejaVuSans-4e" x="253.320312"/>
     </g>
    </g>
   </g>
   <g id="line2d_36">
    <path d="M 141.12 219.230298 
L 221.953536 219.184304 
L 224.437248 200.496098 
L 225.404928 194.811035 
L 228.243456 182.311274 
L 229.598208 181.05687 
L 231.178752 180.194887 
L 236.565504 179.745448 
L 243.661824 179.634766 
L 245.1456 179.591163 
L 248.403456 179.480481 
L 250.113024 179.4134 
L 252.177408 179.302718 
L 254.241792 178.977378 
L 254.757888 178.447443 
L 255.499776 178.112041 
L 256.370688 178.132165 
L 257.531904 178.363592 
L 259.98336 178.762721 
L 262.370304 178.900235 
L 263.886336 178.950546 
L 264.144384 184.122444 
L 264.434688 187.641482 
L 265.176576 192.329395 
L 267.144192 209.440598 
L 268.402176 215.865223 
L 269.079552 217.175303 
L 270.46656 218.871968 
L 273.724416 219.281091 
L 282.594816 219.234729 
L 297.110016 219.223523 
L 305.883648 219.229503 
L 347.751936 219.185978 
L 350.235648 200.535676 
L 351.622656 192.008751 
L 352.687104 186.685251 
L 354.97728 179.879609 
L 358.493184 178.893527 
L 360.235008 178.963962 
L 363.073536 179.074644 
L 364.396032 179.101477 
L 375.169536 179.171911 
L 375.717888 180.151285 
L 376.169472 180.892523 
L 377.008128 181.788046 
L 377.524224 181.737736 
L 378.427392 181.44929 
L 380.45952 180.312278 
L 381.58848 179.956752 
L 387.201024 179.483835 
L 389.65248 179.373152 
L 391.813632 179.259115 
L 394.555392 179.148433 
L 395.9424 179.114893 
L 415.392768 179.007564 
L 415.973376 178.390424 
L 416.844288 178.058376 
L 417.908736 178.162351 
L 419.16672 178.440735 
L 420.908544 178.692286 
L 424.00512 178.903589 
L 455.712768 179.00421 
L 456.809472 179.882963 
L 457.261056 179.953398 
L 458.712576 179.993646 
L 462.744576 179.463711 
L 464.16384 179.27924 
L 467.518464 179.041104 
L 496.065024 178.960608 
L 496.58112 178.427319 
L 497.258496 178.125457 
L 498.387456 178.118749 
L 502.06464 178.772783 
L 504.258048 178.890173 
L 536.352768 179.000856 
L 537.255936 179.795759 
L 537.901056 179.953398 
L 539.352576 179.993646 
L 544.449024 179.353028 
L 545.61024 179.222221 
L 548.803584 179.000856 
L 576.73728 178.920359 
L 577.285632 178.360238 
L 577.801728 178.115395 
L 578.575872 178.065084 
L 579.769344 178.299866 
L 582.511104 178.759367 
L 584.80128 178.886819 
L 586.285056 178.967316 
L 586.57536 179.460357 
L 588.155904 182.351522 
L 595.478016 192.430687 
L 595.961856 193.796108 
L 597.284352 198.614158 
L 597.639168 199.807518 
L 597.993984 201.401348 
L 599.1552 206.462564 
L 600.60672 212.56252 
L 602.413056 218.708929 
L 602.574336 219.202802 
L 603.638784 222.936168 
L 603.961344 223.586512 
L 604.025856 223.730735 
L 605.090304 226.061108 
L 605.44512 226.34184 
L 605.670912 226.781216 
L 605.993472 227.755894 
L 607.05792 229.896094 
L 608.315904 232.292206 
L 609.702912 234.74433 
L 611.218944 237.235361 
L 611.702784 238.134238 
L 611.831808 238.1983 
L 612.122112 238.664844 
L 612.315648 238.63667 
L 612.767232 237.863233 
L 613.444608 236.778878 
L 613.734912 236.37975 
L 616.121856 233.557007 
L 616.992768 232.950936 
L 617.508864 232.301933 
L 617.734656 231.929972 
L 617.86368 231.994369 
L 617.895936 231.954121 
L 618.250752 231.61939 
L 619.540992 230.670873 
L 620.089344 230.055075 
L 620.411904 229.602618 
L 620.798976 229.332284 
L 620.960256 229.221266 
L 621.218304 229.038136 
L 623.218176 227.408418 
L 623.476224 227.099177 
L 624.024576 226.740633 
L 624.347136 226.584671 
L 626.153472 225.170951 
L 626.73408 224.516917 
L 627.024384 224.361962 
L 627.475968 224.173801 
L 628.637184 223.335967 
L 632.475648 219.96028 
L 634.701312 216.869853 
L 635.056128 216.328514 
L 635.572224 215.66633 
L 639.378432 211.012292 
L 640.636416 209.557989 
L 641.152512 208.078866 
L 642.507264 204.148626 
L 643.539456 201.791085 
L 644.668416 200.016138 
L 645.44256 198.97505 
L 646.023168 198.279762 
L 647.184384 196.746304 
L 648.087552 195.793092 
L 648.99072 194.640315 
L 650.409984 193.381887 
L 650.861568 192.754685 
L 651.24864 191.530132 
L 652.603392 187.084715 
L 653.409792 185.269519 
L 654.47424 183.508659 
L 656.022528 181.44929 
L 657.345024 179.675014 
L 657.957888 177.739745 
L 658.538496 176.471925 
L 658.99008 175.915158 
L 659.344896 175.717271 
L 660.086784 175.378515 
L 660.796416 174.727835 
L 661.989888 173.195048 
L 669.312 163.478452 
L 670.505472 161.949019 
L 672.086016 159.839341 
L 676.601856 154.372288 
L 677.408256 154.825081 
L 678.117888 155.069925 
L 678.924288 155.207439 
L 680.020992 155.428805 
L 685.956096 157.39426 
L 688.117248 158.175747 
L 688.98816 158.467547 
L 690.407424 158.940463 
L 696.471552 160.946167 
L 697.600512 161.516351 
L 697.987584 163.132988 
L 698.310144 164.672483 
L 698.729472 166.54738 
L 699.019776 166.969987 
L 699.374592 167.033713 
L 699.729408 166.812348 
L 700.148736 166.386387 
L 701.019648 165.47074 
L 701.761536 164.994469 
L 702.825984 164.766396 
L 704.95488 165.098444 
L 705.76128 165.316455 
L 708.599808 166.017445 
L 721.276416 169.857798 
L 721.921536 170.032207 
L 724.276224 170.652701 
L 724.695552 170.753321 
L 725.43744 170.9445 
L 726.88896 171.283256 
L 727.69536 171.474435 
L 728.308224 171.618658 
L 728.792064 171.725987 
L 737.436672 173.413059 
L 737.856 173.480139 
L 737.985024 173.423121 
L 738.436608 172.863 
L 739.017216 172.624864 
L 739.920384 172.829459 
L 740.404224 173.040763 
L 741.0816 173.359395 
L 741.823488 173.694797 
L 742.662144 173.976534 
L 743.17824 174.124111 
L 743.98464 174.318644 
L 744.371712 174.405849 
L 745.565184 174.64063 
L 747.661824 174.969324 
L 748.50048 175.080007 
L 749.1456 175.167211 
L 750.403584 175.318142 
L 751.177728 175.425471 
L 752.242176 175.536153 
L 753.242112 175.646836 
L 762.015744 176.448447 
L 763.33824 176.552421 
L 763.886592 176.60944 
L 765.563904 176.716768 
L 766.112256 176.773787 
L 766.854144 176.807327 
L 768.466944 176.91801 
L 771.273216 177.099127 
L 771.950592 177.136021 
L 774.273024 177.270182 
L 775.047168 177.300368 
L 777.079296 177.407697 
L 777.85344 177.458007 
L 778.33728 177.561981 
L 778.950144 178.259618 
L 779.62752 178.551417 
L 780.369408 178.59502 
L 781.24032 178.397132 
L 782.401536 178.031544 
L 783.240192 177.883967 
L 784.14336 177.806825 
L 789.78816 177.917508 
L 791.433216 177.981234 
L 792.20736 178.01142 
L 792.755712 178.018128 
L 793.529856 178.048314 
L 795.045888 178.095271 
L 798.49728 178.205953 
L 799.884288 178.239493 
L 803.916288 178.350176 
L 804.46464 178.360238 
L 805.335552 178.380362 
L 806.529024 178.393778 
L 812.238336 178.504461 
L 812.8512 178.521231 
L 813.98016 178.527939 
L 818.689536 178.430673 
L 819.173376 177.957756 
L 819.689472 177.709558 
L 820.463616 177.655894 
L 821.431296 177.843719 
L 824.979456 178.470921 
L 828.1728 178.581603 
L 829.559808 178.615144 
L 858.945024 178.702348 
L 859.557888 179.34632 
L 859.94496 179.527437 
L 860.525568 179.658244 
L 862.848 179.550915 
L 865.170432 179.178619 
L 870.363648 178.749304 
L 899.232768 178.668808 
L 899.78112 178.06173 
L 900.329472 177.790055 
L 902.264832 177.897383 
L 905.522688 178.464213 
L 907.68384 178.578249 
L 939.552768 178.668808 
L 940.617216 179.524083 
L 941.55264 179.708554 
L 943.455744 179.601226 
L 946.423296 179.094769 
L 947.52 178.923714 
L 947.52 178.923714 
" clip-path="url(#pbe9e5f402a)" style="fill: none; stroke: #008000; stroke-width: 2; stroke-linecap: square"/>
   </g>
   <g id="patch_10">
    <path d="M 100.8 242.888276 
L 100.8 150.157241 
" style="fill: none; stroke: #bcbcbc; stroke-width: 0.8; stroke-linejoin: miter; stroke-linecap: square"/>
   </g>
   <g id="patch_11">
    <path d="M 987.84 242.888276 
L 987.84 150.157241 
" style="fill: none; stroke: #bcbcbc; stroke-width: 0.8; stroke-linejoin: miter; stroke-linecap: square"/>
   </g>
   <g id="patch_12">
    <path d="M 100.8 242.888276 
L 987.84 242.888276 
" style="fill: none; stroke: #bcbcbc; stroke-width: 0.8; stroke-linejoin: miter; stroke-linecap: square"/>
   </g>
   <g id="patch_13">
    <path d="M 100.8 150.157241 
L 987.84 150.157241 
" style="fill: none; stroke: #bcbcbc; stroke-width: 0.8; stroke-linejoin: miter; stroke-linecap: square"/>
   </g>
  </g>
  <g id="axes_3">
   <g id="patch_14">
    <path d="M 100.8 354.165517 
L 987.84 354.165517 
L 987.84 261.434483 
L 100.8 261.434483 
z
" style="fill: #eeeeee"/>
   </g>
   <g id="matplotlib.axis_5">
    <g id="xtick_13">
     <g id="line2d_37">
      <path d="M 141.12 354.165517 
L 141.12 261.434483 
" clip-path="url(#p2ffc6b265f)" style="fill: none; stroke-dasharray: 1.85,0.8; stroke-dashoffset: 0; stroke: #b2b2b2; stroke-width: 0.5"/>
     </g>
     <g id="line2d_38">
      <g>
       <use xlink:href="#mc42ceff1c4" x="141.12" y="354.165517" style="stroke: #000000; stroke-width: 0.8"/>
      </g>
     </g>
    </g>
    <g id="xtick_14">
     <g id="line2d_39">
      <path d="M 302.4 354.165517 
L 302.4 261.434483 
" clip-path="url(#p2ffc6b265f)" style="fill: none; stroke-dasharray: 1.85,0.8; stroke-dashoffset: 0; stroke: #b2b2b2; stroke-width: 0.5"/>
     </g>
     <g id="line2d_40">
      <g>
       <use xlink:href="#mc42ceff1c4" x="302.4" y="354.165517" style="stroke: #000000; stroke-width: 0.8"/>
      </g>
     </g>
    </g>
    <g id="xtick_15">
     <g id="line2d_41">
      <path d="M 463.68 354.165517 
L 463.68 261.434483 
" clip-path="url(#p2ffc6b265f)" style="fill: none; stroke-dasharray: 1.85,0.8; stroke-dashoffset: 0; stroke: #b2b2b2; stroke-width: 0.5"/>
     </g>
     <g id="line2d_42">
      <g>
       <use xlink:href="#mc42ceff1c4" x="463.68" y="354.165517" style="stroke: #000000; stroke-width: 0.8"/>
      </g>
     </g>
    </g>
    <g id="xtick_16">
     <g id="line2d_43">
      <path d="M 624.96 354.165517 
L 624.96 261.434483 
" clip-path="url(#p2ffc6b265f)" style="fill: none; stroke-dasharray: 1.85,0.8; stroke-dashoffset: 0; stroke: #b2b2b2; stroke-width: 0.5"/>
     </g>
     <g id="line2d_44">
      <g>
       <use xlink:href="#mc42ceff1c4" x="624.96" y="354.165517" style="stroke: #000000; stroke-width: 0.8"/>
      </g>
     </g>
    </g>
    <g id="xtick_17">
     <g id="line2d_45">
      <path d="M 786.24 354.165517 
L 786.24 261.434483 
" clip-path="url(#p2ffc6b265f)" style="fill: none; stroke-dasharray: 1.85,0.8; stroke-dashoffset: 0; stroke: #b2b2b2; stroke-width: 0.5"/>
     </g>
     <g id="line2d_46">
      <g>
       <use xlink:href="#mc42ceff1c4" x="786.24" y="354.165517" style="stroke: #000000; stroke-width: 0.8"/>
      </g>
     </g>
    </g>
    <g id="xtick_18">
     <g id="line2d_47">
      <path d="M 947.52 354.165517 
L 947.52 261.434483 
" clip-path="url(#p2ffc6b265f)" style="fill: none; stroke-dasharray: 1.85,0.8; stroke-dashoffset: 0; stroke: #b2b2b2; stroke-width: 0.5"/>
     </g>
     <g id="line2d_48">
      <g>
       <use xlink:href="#mc42ceff1c4" x="947.52" y="354.165517" style="stroke: #000000; stroke-width: 0.8"/>
      </g>
     </g>
    </g>
   </g>
   <g id="matplotlib.axis_6">
    <g id="ytick_6">
     <g id="line2d_49">
      <path d="M 100.8 346.668068 
L 987.84 346.668068 
" clip-path="url(#p2ffc6b265f)" style="fill: none; stroke-dasharray: 1.85,0.8; stroke-dashoffset: 0; stroke: #b2b2b2; stroke-width: 0.5"/>
     </g>
     <g id="line2d_50">
      <g>
       <use xlink:href="#m2226b751ea" x="100.8" y="346.668068" style="stroke: #000000; stroke-width: 0.8"/>
      </g>
     </g>
     <g id="text_8">
      <!-- 0 V -->
      <g transform="translate(74.36625 351.986974) scale(0.14 -0.14)">
       <use xlink:href="#DejaVuSans-30"/>
       <use xlink:href="#DejaVuSans-20" x="63.623047"/>
       <use xlink:href="#DejaVuSans-56" x="95.410156"/>
      </g>
     </g>
    </g>
    <g id="ytick_7">
     <g id="line2d_51">
      <path d="M 100.8 304.628561 
L 987.84 304.628561 
" clip-path="url(#p2ffc6b265f)" style="fill: none; stroke-dasharray: 1.85,0.8; stroke-dashoffset: 0; stroke: #b2b2b2; stroke-width: 0.5"/>
     </g>
     <g id="line2d_52">
      <g>
       <use xlink:href="#m2226b751ea" x="100.8" y="304.628561" style="stroke: #000000; stroke-width: 0.8"/>
      </g>
     </g>
     <g id="text_9">
      <!-- 1 V -->
      <g transform="translate(74.36625 309.947467) scale(0.14 -0.14)">
       <use xlink:href="#DejaVuSans-31"/>
       <use xlink:href="#DejaVuSans-20" x="63.623047"/>
       <use xlink:href="#DejaVuSans-56" x="95.410156"/>
      </g>
     </g>
    </g>
    <g id="ytick_8">
     <g id="line2d_53">
      <path d="M 100.8 262.589054 
L 987.84 262.589054 
" clip-path="url(#p2ffc6b265f)" style="fill: none; stroke-dasharray: 1.85,0.8; stroke-dashoffset: 0; stroke: #b2b2b2; stroke-width: 0.5"/>
     </g>
     <g id="line2d_54">
      <g>
       <use xlink:href="#m2226b751ea" x="100.8" y="262.589054" style="stroke: #000000; stroke-width: 0.8"/>
      </g>
     </g>
     <g id="text_10">
      <!-- 2 V -->
      <g transform="translate(74.36625 267.90796) scale(0.14 -0.14)">
       <use xlink:href="#DejaVuSans-32"/>
       <use xlink:href="#DejaVuSans-20" x="63.623047"/>
       <use xlink:href="#DejaVuSans-56" x="95.410156"/>
      </g>
     </g>
    </g>
    <g id="text_11">
     <g id="patch_15">
      <path d="M 34.8768 342.395313 
L 34.8768 273.204688 
L 11.247425 273.204688 
L 11.247425 342.395313 
z
" style="fill: #ffff00; opacity: 0.2; stroke: #eeeeee; stroke-width: 0.5; stroke-linejoin: miter"/>
     </g>
     <!-- CLK BUF -->
     <g transform="translate(26.925238 337.355313) rotate(-90) scale(0.14 -0.14)">
      <defs>
       <path id="DejaVuSans-43" d="M 4122 4306 
L 4122 3641 
Q 3803 3938 3442 4084 
Q 3081 4231 2675 4231 
Q 1875 4231 1450 3742 
Q 1025 3253 1025 2328 
Q 1025 1406 1450 917 
Q 1875 428 2675 428 
Q 3081 428 3442 575 
Q 3803 722 4122 1019 
L 4122 359 
Q 3791 134 3420 21 
Q 3050 -91 2638 -91 
Q 1578 -91 968 557 
Q 359 1206 359 2328 
Q 359 3453 968 4101 
Q 1578 4750 2638 4750 
Q 3056 4750 3426 4639 
Q 3797 4528 4122 4306 
z
" transform="scale(0.015625)"/>
       <path id="DejaVuSans-4b" d="M 628 4666 
L 1259 4666 
L 1259 2694 
L 3353 4666 
L 4166 4666 
L 1850 2491 
L 4331 0 
L 3500 0 
L 1259 2247 
L 1259 0 
L 628 0 
L 628 4666 
z
" transform="scale(0.015625)"/>
      </defs>
      <use xlink:href="#DejaVuSans-43"/>
      <use xlink:href="#DejaVuSans-4c" x="69.824219"/>
      <use xlink:href="#DejaVuSans-4b" x="125.537109"/>
      <use xlink:href="#DejaVuSans-20" x="191.113281"/>
      <use xlink:href="#DejaVuSans-42" x="222.900391"/>
      <use xlink:href="#DejaVuSans-55" x="291.503906"/>
      <use xlink:href="#DejaVuSans-46" x="364.697266"/>
     </g>
    </g>
   </g>
   <g id="line2d_55">
    <path d="M 141.12 346.666956 
L 173.376 346.666956 
L 173.601792 296.220659 
L 213.696 296.220659 
L 213.760512 336.460455 
L 213.825024 346.648862 
L 213.889536 346.588365 
L 213.954048 346.756308 
L 214.01856 346.672623 
L 215.405568 346.662964 
L 223.630848 346.666888 
L 254.016 346.666927 
L 254.17728 296.065113 
L 254.241792 296.334166 
L 254.403072 296.212251 
L 254.854656 296.220659 
L 294.336 296.220659 
L 294.400512 336.425142 
L 294.465024 346.981771 
L 294.529536 346.250859 
L 294.626304 346.734133 
L 294.65856 346.704218 
L 294.884352 346.644787 
L 295.206912 346.683365 
L 295.497216 346.666628 
L 321.302016 346.666955 
L 334.656 346.666958 
L 334.81728 296.144988 
L 334.881792 296.237475 
L 335.204352 296.224863 
L 336.075264 296.220659 
L 374.976 296.220659 
L 375.040512 336.464238 
L 375.105024 346.66875 
L 375.169536 346.583034 
L 375.266304 346.737597 
L 375.29856 346.672763 
L 376.75008 346.66263 
L 385.265664 346.666881 
L 415.296 346.666958 
L 415.45728 296.065113 
L 415.521792 296.334166 
L 415.683072 296.208047 
L 416.650752 296.224863 
L 455.616 296.220659 
L 455.680512 336.427664 
L 455.745024 346.98695 
L 455.809536 346.056687 
L 455.906304 347.284871 
L 455.93856 346.736445 
L 456.132096 346.642819 
L 456.519168 346.667391 
L 490.77504 346.666955 
L 495.936 346.666956 
L 496.09728 296.13658 
L 496.161792 296.237475 
L 497.129472 296.220659 
L 536.256 296.220659 
L 536.320512 336.427664 
L 536.385024 346.986904 
L 536.449536 346.056771 
L 536.546304 347.284787 
L 536.57856 346.736441 
L 536.772096 346.642822 
L 537.159168 346.667392 
L 571.41504 346.666966 
L 576.576 346.666957 
L 576.73728 296.166008 
L 576.801792 296.17862 
L 576.89856 296.29633 
L 576.963072 296.212251 
L 577.86624 296.220659 
L 586.349568 296.329962 
L 587.994624 298.654747 
L 589.63968 301.429354 
L 596.57472 312.961211 
L 600.12288 318.215729 
L 603.67104 323.021686 
L 605.703168 325.196389 
L 605.961216 325.428027 
L 606.670848 326.079639 
L 608.315904 327.415655 
L 609.6384 328.367009 
L 610.348032 328.85803 
L 610.509312 328.940007 
L 610.735104 329.120357 
L 610.831872 329.179212 
L 611.186688 329.43229 
L 611.702784 329.742962 
L 612.154368 329.891782 
L 612.70272 329.594142 
L 615.315456 328.555766 
L 615.347712 328.586035 
L 615.379968 328.49565 
L 615.831552 328.366589 
L 616.928256 327.837311 
L 617.05728 326.669033 
L 617.089536 326.892683 
L 617.154048 331.033155 
L 617.412096 349.938279 
L 617.960448 349.818088 
L 618.379776 349.680577 
L 618.637824 349.606713 
L 620.798976 348.940429 
L 621.08928 348.864842 
L 621.960192 348.620761 
L 624.895488 347.845594 
L 625.28256 347.757732 
L 627.443712 347.293531 
L 633.120768 346.284133 
L 633.540096 346.235229 
L 634.249728 346.177298 
L 636.89472 346.114323 
L 647.668224 346.239475 
L 650.829312 346.178349 
L 651.474432 345.568861 
L 652.248576 345.16835 
L 653.280768 344.919981 
L 654.764544 344.81896 
L 657.216 344.862008 
L 657.441792 298.280595 
L 658.8288 295.47656 
L 660.893184 291.428155 
L 661.989888 289.355608 
L 665.76384 282.69655 
L 666.215424 281.931431 
L 667.408896 279.97239 
L 668.731392 277.88723 
L 670.053888 275.856722 
L 670.537728 275.053767 
L 671.634432 273.267088 
L 672.21504 272.329607 
L 673.18272 270.77835 
L 673.860096 269.723158 
L 675.021312 267.970111 
L 676.505088 265.847115 
L 676.827648 265.729405 
L 678.730752 265.838708 
L 684.343296 268.15088 
L 685.956096 268.869756 
L 688.375296 269.933356 
L 689.665536 270.484073 
L 696.665088 273.330148 
L 697.245696 273.649648 
L 697.536 273.817806 
L 697.600512 347.41305 
L 697.729536 347.133991 
L 698.600448 347.149252 
L 704.14848 347.110744 
L 727.05024 346.923294 
L 737.856 346.854538 
L 737.952768 288.447554 
L 738.081792 289.338792 
L 738.533376 289.452299 
L 739.855872 289.733963 
L 740.404224 289.834858 
L 740.92032 289.944161 
L 741.468672 290.045056 
L 741.984768 290.154358 
L 742.53312 290.255253 
L 743.145984 290.364556 
L 743.694336 290.465451 
L 744.3072 290.570549 
L 744.662016 290.633609 
L 745.27488 290.742911 
L 745.823232 290.843806 
L 746.532864 290.948905 
L 746.88768 291.011964 
L 747.500544 291.117063 
L 747.85536 291.180122 
L 748.564992 291.285221 
L 748.919808 291.34828 
L 749.726208 291.453379 
L 750.081024 291.516438 
L 750.790656 291.621537 
L 751.145472 291.684596 
L 752.04864 291.789695 
L 752.403456 291.852754 
L 753.209856 291.957853 
L 753.564672 292.020912 
L 754.46784 292.126011 
L 754.725888 292.147031 
L 755.532288 292.25213 
L 755.854848 292.310985 
L 756.88704 292.420288 
L 757.2096 292.479143 
L 758.241792 292.588446 
L 758.49984 292.609466 
L 759.403008 292.714564 
L 759.661056 292.735584 
L 760.564224 292.840683 
L 760.822272 292.861703 
L 761.72544 292.966801 
L 761.983488 292.987821 
L 762.983424 293.09292 
L 763.241472 293.11394 
L 764.241408 293.219038 
L 764.499456 293.240058 
L 765.59616 293.345157 
L 765.854208 293.366177 
L 767.04768 293.471275 
L 767.305728 293.488091 
L 768.4992 293.597394 
L 768.757248 293.61421 
L 770.047488 293.723513 
L 770.305536 293.740328 
L 771.692544 293.849631 
L 771.950592 293.870651 
L 773.434368 293.97575 
L 773.692416 293.996769 
L 774.208512 294.034605 
L 775.692288 294.118684 
L 777.111552 294.227987 
L 777.3696 294.244802 
L 778.176 294.286842 
L 778.208256 298.579076 
L 778.272768 347.249222 
L 778.33728 346.681307 
L 778.49856 346.722471 
L 779.885568 346.718343 
L 818.076672 346.681937 
L 818.496 346.68174 
L 818.625024 295.510192 
L 818.721792 295.67835 
L 819.270144 295.716185 
L 858.816 295.800264 
L 858.945024 346.989312 
L 859.106304 346.744626 
L 859.364352 346.650927 
L 859.719168 346.696658 
L 860.041728 346.678776 
L 898.877952 346.678995 
L 899.136 346.678995 
L 899.29728 295.581659 
L 899.361792 296.056705 
L 899.45856 295.623698 
L 899.523072 295.783448 
L 900.006912 295.800264 
L 939.456 295.800264 
L 939.488256 303.379987 
L 939.61728 346.628997 
L 939.649536 346.751243 
L 939.714048 346.634284 
L 939.810816 346.651655 
L 940.004352 346.704155 
L 940.230144 346.677661 
L 945.778176 346.678998 
L 947.52 346.678985 
L 947.52 346.678985 
" clip-path="url(#p2ffc6b265f)" style="fill: none; stroke: #0000ff; stroke-width: 2; stroke-linecap: square"/>
   </g>
   <g id="patch_16">
    <path d="M 100.8 354.165517 
L 100.8 261.434483 
" style="fill: none; stroke: #bcbcbc; stroke-width: 0.8; stroke-linejoin: miter; stroke-linecap: square"/>
   </g>
   <g id="patch_17">
    <path d="M 987.84 354.165517 
L 987.84 261.434483 
" style="fill: none; stroke: #bcbcbc; stroke-width: 0.8; stroke-linejoin: miter; stroke-linecap: square"/>
   </g>
   <g id="patch_18">
    <path d="M 100.8 354.165517 
L 987.84 354.165517 
" style="fill: none; stroke: #bcbcbc; stroke-width: 0.8; stroke-linejoin: miter; stroke-linecap: square"/>
   </g>
   <g id="patch_19">
    <path d="M 100.8 261.434483 
L 987.84 261.434483 
" style="fill: none; stroke: #bcbcbc; stroke-width: 0.8; stroke-linejoin: miter; stroke-linecap: square"/>
   </g>
  </g>
  <g id="axes_4">
   <g id="patch_20">
    <path d="M 100.8 465.442759 
L 987.84 465.442759 
L 987.84 372.711724 
L 100.8 372.711724 
z
" style="fill: #eeeeee"/>
   </g>
   <g id="matplotlib.axis_7">
    <g id="xtick_19">
     <g id="line2d_56">
      <path d="M 141.12 465.442759 
L 141.12 372.711724 
" clip-path="url(#p9d3cc7c817)" style="fill: none; stroke-dasharray: 1.85,0.8; stroke-dashoffset: 0; stroke: #b2b2b2; stroke-width: 0.5"/>
     </g>
     <g id="line2d_57">
      <g>
       <use xlink:href="#mc42ceff1c4" x="141.12" y="465.442759" style="stroke: #000000; stroke-width: 0.8"/>
      </g>
     </g>
    </g>
    <g id="xtick_20">
     <g id="line2d_58">
      <path d="M 302.4 465.442759 
L 302.4 372.711724 
" clip-path="url(#p9d3cc7c817)" style="fill: none; stroke-dasharray: 1.85,0.8; stroke-dashoffset: 0; stroke: #b2b2b2; stroke-width: 0.5"/>
     </g>
     <g id="line2d_59">
      <g>
       <use xlink:href="#mc42ceff1c4" x="302.4" y="465.442759" style="stroke: #000000; stroke-width: 0.8"/>
      </g>
     </g>
    </g>
    <g id="xtick_21">
     <g id="line2d_60">
      <path d="M 463.68 465.442759 
L 463.68 372.711724 
" clip-path="url(#p9d3cc7c817)" style="fill: none; stroke-dasharray: 1.85,0.8; stroke-dashoffset: 0; stroke: #b2b2b2; stroke-width: 0.5"/>
     </g>
     <g id="line2d_61">
      <g>
       <use xlink:href="#mc42ceff1c4" x="463.68" y="465.442759" style="stroke: #000000; stroke-width: 0.8"/>
      </g>
     </g>
    </g>
    <g id="xtick_22">
     <g id="line2d_62">
      <path d="M 624.96 465.442759 
L 624.96 372.711724 
" clip-path="url(#p9d3cc7c817)" style="fill: none; stroke-dasharray: 1.85,0.8; stroke-dashoffset: 0; stroke: #b2b2b2; stroke-width: 0.5"/>
     </g>
     <g id="line2d_63">
      <g>
       <use xlink:href="#mc42ceff1c4" x="624.96" y="465.442759" style="stroke: #000000; stroke-width: 0.8"/>
      </g>
     </g>
    </g>
    <g id="xtick_23">
     <g id="line2d_64">
      <path d="M 786.24 465.442759 
L 786.24 372.711724 
" clip-path="url(#p9d3cc7c817)" style="fill: none; stroke-dasharray: 1.85,0.8; stroke-dashoffset: 0; stroke: #b2b2b2; stroke-width: 0.5"/>
     </g>
     <g id="line2d_65">
      <g>
       <use xlink:href="#mc42ceff1c4" x="786.24" y="465.442759" style="stroke: #000000; stroke-width: 0.8"/>
      </g>
     </g>
    </g>
    <g id="xtick_24">
     <g id="line2d_66">
      <path d="M 947.52 465.442759 
L 947.52 372.711724 
" clip-path="url(#p9d3cc7c817)" style="fill: none; stroke-dasharray: 1.85,0.8; stroke-dashoffset: 0; stroke: #b2b2b2; stroke-width: 0.5"/>
     </g>
     <g id="line2d_67">
      <g>
       <use xlink:href="#mc42ceff1c4" x="947.52" y="465.442759" style="stroke: #000000; stroke-width: 0.8"/>
      </g>
     </g>
    </g>
   </g>
   <g id="matplotlib.axis_8">
    <g id="ytick_9">
     <g id="line2d_68">
      <path d="M 100.8 436.225555 
L 987.84 436.225555 
" clip-path="url(#p9d3cc7c817)" style="fill: none; stroke-dasharray: 1.85,0.8; stroke-dashoffset: 0; stroke: #b2b2b2; stroke-width: 0.5"/>
     </g>
     <g id="line2d_69">
      <g>
       <use xlink:href="#m2226b751ea" x="100.8" y="436.225555" style="stroke: #000000; stroke-width: 0.8"/>
      </g>
     </g>
     <g id="text_12">
      <!-- 0 V -->
      <g transform="translate(74.36625 441.544461) scale(0.14 -0.14)">
       <use xlink:href="#DejaVuSans-30"/>
       <use xlink:href="#DejaVuSans-20" x="63.623047"/>
       <use xlink:href="#DejaVuSans-56" x="95.410156"/>
      </g>
     </g>
    </g>
    <g id="ytick_10">
     <g id="line2d_70">
      <path d="M 100.8 392.523894 
L 987.84 392.523894 
" clip-path="url(#p9d3cc7c817)" style="fill: none; stroke-dasharray: 1.85,0.8; stroke-dashoffset: 0; stroke: #b2b2b2; stroke-width: 0.5"/>
     </g>
     <g id="line2d_71">
      <g>
       <use xlink:href="#m2226b751ea" x="100.8" y="392.523894" style="stroke: #000000; stroke-width: 0.8"/>
      </g>
     </g>
     <g id="text_13">
      <!-- 1 V -->
      <g transform="translate(74.36625 397.8428) scale(0.14 -0.14)">
       <use xlink:href="#DejaVuSans-31"/>
       <use xlink:href="#DejaVuSans-20" x="63.623047"/>
       <use xlink:href="#DejaVuSans-56" x="95.410156"/>
      </g>
     </g>
    </g>
    <g id="text_14">
     <g id="patch_21">
      <path d="M 34.8768 454.693023 
L 34.8768 383.46146 
L 11.247425 383.46146 
L 11.247425 454.693023 
z
" style="fill: #ffff00; opacity: 0.2; stroke: #eeeeee; stroke-width: 0.5; stroke-linejoin: miter"/>
     </g>
     <!-- DFF OUT -->
     <g transform="translate(26.925238 449.653023) rotate(-90) scale(0.14 -0.14)">
      <defs>
       <path id="DejaVuSans-4f" d="M 2522 4238 
Q 1834 4238 1429 3725 
Q 1025 3213 1025 2328 
Q 1025 1447 1429 934 
Q 1834 422 2522 422 
Q 3209 422 3611 934 
Q 4013 1447 4013 2328 
Q 4013 3213 3611 3725 
Q 3209 4238 2522 4238 
z
M 2522 4750 
Q 3503 4750 4090 4092 
Q 4678 3434 4678 2328 
Q 4678 1225 4090 567 
Q 3503 -91 2522 -91 
Q 1538 -91 948 565 
Q 359 1222 359 2328 
Q 359 3434 948 4092 
Q 1538 4750 2522 4750 
z
" transform="scale(0.015625)"/>
       <path id="DejaVuSans-54" d="M -19 4666 
L 3928 4666 
L 3928 4134 
L 2272 4134 
L 2272 0 
L 1638 0 
L 1638 4134 
L -19 4134 
L -19 4666 
z
" transform="scale(0.015625)"/>
      </defs>
      <use xlink:href="#DejaVuSans-44"/>
      <use xlink:href="#DejaVuSans-46" x="77.001953"/>
      <use xlink:href="#DejaVuSans-46" x="134.521484"/>
      <use xlink:href="#DejaVuSans-20" x="192.041016"/>
      <use xlink:href="#DejaVuSans-4f" x="223.828125"/>
      <use xlink:href="#DejaVuSans-55" x="302.539062"/>
      <use xlink:href="#DejaVuSans-54" x="375.732422"/>
     </g>
    </g>
   </g>
   <g id="line2d_72">
    <path d="M 141.12 403.25134 
L 173.408256 403.304657 
L 173.440512 405.113905 
L 173.601792 436.228222 
L 174.053376 436.222371 
L 183.439872 436.224388 
L 254.048256 436.22622 
L 254.080512 436.400921 
L 254.112768 436.111943 
L 254.306304 431.845337 
L 254.596608 430.990096 
L 254.693376 430.38002 
L 255.14496 422.723489 
L 255.370752 404.72802 
L 255.596544 384.207468 
L 255.757824 383.849114 
L 255.983616 383.779192 
L 256.822272 383.783562 
L 295.755264 383.870965 
L 296.239104 386.698462 
L 296.561664 386.042938 
L 297.819648 384.185617 
L 298.980864 383.827263 
L 334.688256 383.801042 
L 334.720512 383.674308 
L 334.752768 384.316722 
L 334.785024 387.493833 
L 334.914048 436.20764 
L 334.97856 436.169179 
L 335.13984 436.216395 
L 335.4624 436.227783 
L 336.75264 436.224394 
L 415.328256 436.226194 
L 415.360512 436.400313 
L 415.392768 436.114364 
L 415.586304 431.743512 
L 415.844352 430.860302 
L 415.908864 430.62038 
L 416.1024 425.4378 
L 416.521728 410.350238 
L 416.9088 383.927777 
L 417.102336 383.787932 
L 417.682944 383.818523 
L 418.166784 383.774821 
L 418.908672 383.783562 
L 495.968256 383.801042 
L 496.000512 383.949628 
L 496.065024 383.7486 
L 496.323072 383.774821 
L 576.608256 383.801042 
L 576.640512 383.967109 
L 576.705024 383.761711 
L 577.05984 383.774821 
L 586.317312 383.853484 
L 587.284992 385.208236 
L 588.575232 387.327766 
L 594.187776 397.424161 
L 594.80064 399.071714 
L 595.478016 401.732271 
L 596.736 407.690118 
L 596.768256 407.661275 
L 596.832768 407.53017 
L 596.865024 407.589167 
L 596.929536 407.932662 
L 597.21984 410.057437 
L 597.413376 410.857178 
L 597.445632 410.51106 
L 597.477888 410.919234 
L 597.639168 412.266556 
L 597.897216 413.56668 
L 598.51008 416.662506 
L 598.542336 416.500373 
L 598.574592 416.732866 
L 598.67136 417.571501 
L 598.703616 416.913354 
L 598.735872 417.401064 
L 598.897152 418.69507 
L 599.187456 420.315965 
L 599.219712 419.730363 
L 599.251968 419.874578 
L 599.413248 421.499406 
L 600.993792 429.620486 
L 601.026048 429.038379 
L 601.09056 429.16861 
L 601.219584 430.535598 
L 602.251776 435.137776 
L 602.348544 434.858086 
L 602.509824 435.572914 
L 602.671104 436.948074 
L 602.993664 438.328784 
L 603.02592 438.023878 
L 603.090432 438.115608 
L 603.83232 441.287081 
L 603.864576 441.15248 
L 603.896832 441.238135 
L 604.025856 442.009032 
L 604.058112 441.646309 
L 604.122624 441.82767 
L 604.219392 442.068904 
L 604.31616 442.715251 
L 604.348416 442.470959 
L 604.832256 444.187997 
L 605.090304 444.642057 
L 605.12256 444.555091 
L 605.187072 444.661286 
L 605.574144 445.461026 
L 605.638656 445.631463 
L 605.799936 446.464417 
L 609.057792 454.634442 
L 612.122112 461.227712 
L 612.21888 461.181388 
L 612.315648 461.08 
L 612.476928 460.65522 
L 612.509184 460.694114 
L 612.70272 460.216892 
L 614.089728 457.536232 
L 614.186496 456.644281 
L 614.218752 456.694975 
L 614.347776 457.07518 
L 614.412288 456.93752 
L 614.896128 456.03071 
L 615.315456 455.430686 
L 615.347712 455.592382 
L 615.379968 455.355956 
L 615.412224 455.492306 
L 615.44448 455.480069 
L 615.573504 455.061407 
L 615.60576 455.026883 
L 615.638016 455.213489 
L 615.670272 454.936421 
L 616.41216 454.212721 
L 616.73472 453.611823 
L 617.025024 453.163444 
L 617.05728 453.274883 
L 617.089536 453.260462 
L 617.21856 452.922648 
L 617.250816 452.888561 
L 617.283072 453.125424 
L 617.315328 452.8418 
L 617.347584 452.893368 
L 617.37984 452.860155 
L 617.54112 452.501801 
L 617.7024 452.337483 
L 617.734656 452.410465 
L 617.86368 452.420516 
L 617.960448 452.296403 
L 618.089472 451.907458 
L 618.121728 452.008409 
L 618.153984 451.895222 
L 618.250752 451.962523 
L 618.283008 451.748821 
L 618.315264 451.799952 
L 618.34752 451.773731 
L 618.5088 451.504529 
L 619.024896 451.087178 
L 619.250688 450.634429 
L 619.63776 450.054071 
L 619.670016 450.12749 
L 619.831296 449.800164 
L 620.315136 449.208881 
L 620.347392 449.525281 
L 620.379648 449.173483 
L 620.411904 449.177416 
L 620.476416 449.372325 
L 620.540928 449.250397 
L 620.798976 448.726415 
L 620.831232 448.716363 
L 620.928 448.647315 
L 620.960256 448.85009 
L 621.08928 448.514024 
L 621.121536 448.50441 
L 621.153792 448.625027 
L 621.218304 448.457649 
L 621.57312 448.197187 
L 621.992448 447.711225 
L 622.37952 446.869531 
L 622.411776 447.161895 
L 622.476288 446.760277 
L 622.637568 446.577167 
L 622.669824 446.939454 
L 622.70208 446.498941 
L 622.734336 446.569301 
L 622.798848 446.645778 
L 622.927872 446.340304 
L 622.960128 446.618246 
L 622.992384 446.55182 
L 623.121408 446.007734 
L 623.153664 446.035703 
L 623.18592 446.360407 
L 623.218176 445.908094 
L 623.250432 446.118299 
L 623.314944 445.918583 
L 623.3472 445.999431 
L 623.379456 446.064109 
L 623.50848 445.676039 
L 623.540736 445.670357 
L 623.572992 445.814573 
L 623.637504 445.598687 
L 623.766528 445.734162 
L 623.895552 445.454471 
L 624.218112 445.308508 
L 624.766464 444.721157 
L 624.927744 444.449333 
L 625.056768 444.023242 
L 625.153536 443.952445 
L 625.185792 444.205478 
L 625.28256 443.680184 
L 625.314816 443.813911 
L 625.411584 443.525043 
L 625.44384 443.548205 
L 625.669632 443.243604 
L 625.701888 443.684991 
L 625.7664 443.324015 
L 625.798656 443.440699 
L 625.830912 443.066175 
L 625.92768 443.136098 
L 625.959936 443.296483 
L 625.992192 442.907975 
L 626.153472 443.247974 
L 626.185728 442.801343 
L 626.282496 442.960417 
L 626.379264 443.037332 
L 626.41152 442.584583 
L 626.443776 442.590701 
L 626.476032 442.838927 
L 626.508288 442.506794 
L 626.540544 442.525149 
L 626.605056 442.47664 
L 626.669568 442.627411 
L 626.798592 442.421576 
L 627.21792 442.203505 
L 628.217856 441.211477 
L 628.604928 440.818162 
L 628.927488 440.464179 
L 629.056512 439.807517 
L 629.121024 439.899859 
L 629.15328 439.737114 
L 629.185536 440.211758 
L 629.217792 439.579482 
L 629.250048 439.941288 
L 629.411328 439.433868 
L 629.47584 439.467956 
L 629.508096 439.868088 
L 629.572608 439.692713 
L 629.701632 439.334491 
L 629.733888 439.336851 
L 629.766144 439.552606 
L 629.7984 439.303856 
L 629.830656 439.310717 
L 630.185472 439.208717 
L 631.378944 437.919256 
L 631.475712 437.646427 
L 631.604736 437.078698 
L 631.669248 437.482371 
L 631.701504 437.156356 
L 631.830528 436.579953 
L 631.991808 436.369783 
L 632.024064 436.839082 
L 632.120832 436.64041 
L 632.153088 436.577602 
L 632.185344 436.204393 
L 632.282112 436.292331 
L 632.475648 436.032489 
L 633.475584 434.082512 
L 633.66912 433.241649 
L 633.733632 433.490268 
L 633.798144 433.417373 
L 634.088448 432.825828 
L 634.701312 431.507086 
L 634.79808 430.490149 
L 634.830336 430.610328 
L 634.862592 430.602899 
L 634.894848 430.876908 
L 634.927104 430.335008 
L 634.95936 430.647912 
L 635.023872 430.303105 
L 635.056128 430.359481 
L 635.088384 430.784261 
L 635.152896 430.456935 
L 635.185152 430.490149 
L 635.217408 430.36691 
L 635.28192 430.309661 
L 637.830144 424.868367 
L 637.8624 424.6468 
L 637.926912 424.830346 
L 638.120448 424.442276 
L 638.281728 423.895131 
L 638.475264 423.509682 
L 638.701056 422.97827 
L 639.15264 422.12434 
L 639.249408 421.564084 
L 639.281664 421.630511 
L 639.410688 421.599483 
L 640.217088 419.636841 
L 640.668672 418.751008 
L 640.700928 418.260676 
L 640.797696 418.363375 
L 640.894464 418.26155 
L 642.087936 415.767933 
L 642.120192 415.08138 
L 642.21696 415.140814 
L 642.249216 415.128141 
L 642.281472 415.351019 
L 642.345984 415.263616 
L 643.66848 412.624036 
L 643.797504 412.131081 
L 643.82976 412.164294 
L 643.894272 412.271363 
L 643.926528 412.216736 
L 644.47488 411.07219 
L 645.313536 409.692528 
L 645.345792 409.734482 
L 645.378048 409.643582 
L 645.829632 408.777415 
L 646.797312 407.137292 
L 647.990784 405.205679 
L 648.281088 404.714909 
L 648.893952 404.027919 
L 649.248768 403.738177 
L 650.409984 402.013709 
L 650.700288 401.516822 
L 650.92608 401.26073 
L 651.829248 398.345392 
L 657.248256 386.353219 
L 657.280512 386.401291 
L 657.312768 385.5797 
L 657.37728 398.066575 
L 657.474048 434.639272 
L 657.53856 434.329296 
L 670.27968 434.839906 
L 671.860224 434.764171 
L 675.859968 434.869055 
L 676.634112 434.994304 
L 677.311488 435.671461 
L 678.117888 436.120867 
L 679.085568 436.397062 
L 680.504832 436.564255 
L 683.375616 436.633693 
L 710.954496 436.612887 
L 721.88928 436.535522 
L 737.920512 436.620875 
L 737.952768 436.295075 
L 738.146304 430.366473 
L 738.50112 428.38504 
L 738.6624 425.740652 
L 738.82368 418.262424 
L 739.017216 396.9146 
L 739.210752 377.16713 
L 739.372032 376.926771 
L 739.823616 377.022915 
L 740.178432 377.101578 
L 740.694528 377.197721 
L 741.113856 377.302605 
L 741.662208 377.407489 
L 742.242816 377.503633 
L 742.662144 377.608517 
L 743.210496 377.713401 
L 743.82336 377.822655 
L 744.14592 377.888208 
L 744.758784 377.984351 
L 745.1136 378.063014 
L 745.75872 378.172268 
L 746.08128 378.237821 
L 746.7264 378.347075 
L 747.04896 378.408257 
L 751.661568 379.133705 
L 751.919616 379.155556 
L 752.629248 379.26481 
L 752.951808 379.325992 
L 761.209344 380.335501 
L 762.112512 380.444755 
L 762.37056 380.466606 
L 763.370496 380.57586 
L 763.628544 380.597711 
L 764.725248 380.706965 
L 764.983296 380.728816 
L 766.08 380.83807 
L 766.338048 380.859921 
L 767.53152 380.969175 
L 767.789568 380.991026 
L 768.98304 381.10028 
L 769.241088 381.122131 
L 770.628096 381.231385 
L 770.886144 381.253236 
L 772.273152 381.36249 
L 772.5312 381.384341 
L 774.014976 381.493595 
L 774.273024 381.511075 
L 775.821312 381.611589 
L 776.176128 381.646551 
L 777.788928 381.755805 
L 778.046976 381.773285 
L 779.885568 381.873799 
L 780.240384 381.90439 
L 781.691904 381.996164 
L 782.208 382.035495 
L 784.530432 382.136009 
L 784.885248 382.1666 
L 786.046464 382.214672 
L 786.56256 382.254004 
L 788.98176 382.354517 
L 789.336576 382.385109 
L 792.078336 382.485622 
L 792.433152 382.516214 
L 795.465216 382.616727 
L 795.820032 382.647319 
L 796.948992 382.69102 
L 800.59392 382.791534 
L 800.948736 382.826495 
L 801.755136 382.826495 
L 805.077504 382.93575 
L 805.400064 382.9576 
L 806.23872 382.95323 
L 810.27072 383.053744 
L 810.625536 383.088705 
L 811.464192 383.084335 
L 816.56064 383.184849 
L 816.915456 383.21544 
L 818.528256 383.237291 
L 818.560512 383.442689 
L 818.625024 383.193589 
L 818.786304 383.21107 
L 824.495616 383.315954 
L 824.850432 383.346545 
L 899.168256 383.342175 
L 899.200512 383.565053 
L 899.265024 383.342175 
L 899.45856 383.320324 
L 900.458496 383.346545 
L 947.52 383.346545 
L 947.52 383.346545 
" clip-path="url(#p9d3cc7c817)" style="fill: none; stroke: #ff00ff; stroke-width: 2; stroke-linecap: square"/>
   </g>
   <g id="patch_22">
    <path d="M 100.8 465.442759 
L 100.8 372.711724 
" style="fill: none; stroke: #bcbcbc; stroke-width: 0.8; stroke-linejoin: miter; stroke-linecap: square"/>
   </g>
   <g id="patch_23">
    <path d="M 987.84 465.442759 
L 987.84 372.711724 
" style="fill: none; stroke: #bcbcbc; stroke-width: 0.8; stroke-linejoin: miter; stroke-linecap: square"/>
   </g>
   <g id="patch_24">
    <path d="M 100.8 465.442759 
L 987.84 465.442759 
" style="fill: none; stroke: #bcbcbc; stroke-width: 0.8; stroke-linejoin: miter; stroke-linecap: square"/>
   </g>
   <g id="patch_25">
    <path d="M 100.8 372.711724 
L 987.84 372.711724 
" style="fill: none; stroke: #bcbcbc; stroke-width: 0.8; stroke-linejoin: miter; stroke-linecap: square"/>
   </g>
  </g>
  <g id="axes_5">
   <g id="patch_26">
    <path d="M 100.8 576.72 
L 987.84 576.72 
L 987.84 483.988966 
L 100.8 483.988966 
z
" style="fill: #eeeeee"/>
   </g>
   <g id="matplotlib.axis_9">
    <g id="xtick_25">
     <g id="line2d_73">
      <path d="M 141.12 576.72 
L 141.12 483.988966 
" clip-path="url(#p4d79d30a97)" style="fill: none; stroke-dasharray: 1.85,0.8; stroke-dashoffset: 0; stroke: #b2b2b2; stroke-width: 0.5"/>
     </g>
     <g id="line2d_74">
      <g>
       <use xlink:href="#mc42ceff1c4" x="141.12" y="576.72" style="stroke: #000000; stroke-width: 0.8"/>
      </g>
     </g>
     <g id="text_15">
      <!-- 0 s -->
      <g transform="translate(130.795 590.857813) scale(0.14 -0.14)">
       <defs>
        <path id="DejaVuSans-73" d="M 2834 3397 
L 2834 2853 
Q 2591 2978 2328 3040 
Q 2066 3103 1784 3103 
Q 1356 3103 1142 2972 
Q 928 2841 928 2578 
Q 928 2378 1081 2264 
Q 1234 2150 1697 2047 
L 1894 2003 
Q 2506 1872 2764 1633 
Q 3022 1394 3022 966 
Q 3022 478 2636 193 
Q 2250 -91 1575 -91 
Q 1294 -91 989 -36 
Q 684 19 347 128 
L 347 722 
Q 666 556 975 473 
Q 1284 391 1588 391 
Q 1994 391 2212 530 
Q 2431 669 2431 922 
Q 2431 1156 2273 1281 
Q 2116 1406 1581 1522 
L 1381 1569 
Q 847 1681 609 1914 
Q 372 2147 372 2553 
Q 372 3047 722 3315 
Q 1072 3584 1716 3584 
Q 2034 3584 2315 3537 
Q 2597 3491 2834 3397 
z
" transform="scale(0.015625)"/>
       </defs>
       <use xlink:href="#DejaVuSans-30"/>
       <use xlink:href="#DejaVuSans-20" x="63.623047"/>
       <use xlink:href="#DejaVuSans-73" x="95.410156"/>
      </g>
     </g>
    </g>
    <g id="xtick_26">
     <g id="line2d_75">
      <path d="M 302.4 576.72 
L 302.4 483.988966 
" clip-path="url(#p4d79d30a97)" style="fill: none; stroke-dasharray: 1.85,0.8; stroke-dashoffset: 0; stroke: #b2b2b2; stroke-width: 0.5"/>
     </g>
     <g id="line2d_76">
      <g>
       <use xlink:href="#mc42ceff1c4" x="302.4" y="576.72" style="stroke: #000000; stroke-width: 0.8"/>
      </g>
     </g>
     <g id="text_16">
      <!-- 50 ns -->
      <g transform="translate(283.185 590.857813) scale(0.14 -0.14)">
       <defs>
        <path id="DejaVuSans-35" d="M 691 4666 
L 3169 4666 
L 3169 4134 
L 1269 4134 
L 1269 2991 
Q 1406 3038 1543 3061 
Q 1681 3084 1819 3084 
Q 2600 3084 3056 2656 
Q 3513 2228 3513 1497 
Q 3513 744 3044 326 
Q 2575 -91 1722 -91 
Q 1428 -91 1123 -41 
Q 819 9 494 109 
L 494 744 
Q 775 591 1075 516 
Q 1375 441 1709 441 
Q 2250 441 2565 725 
Q 2881 1009 2881 1497 
Q 2881 1984 2565 2268 
Q 2250 2553 1709 2553 
Q 1456 2553 1204 2497 
Q 953 2441 691 2322 
L 691 4666 
z
" transform="scale(0.015625)"/>
        <path id="DejaVuSans-6e" d="M 3513 2113 
L 3513 0 
L 2938 0 
L 2938 2094 
Q 2938 2591 2744 2837 
Q 2550 3084 2163 3084 
Q 1697 3084 1428 2787 
Q 1159 2491 1159 1978 
L 1159 0 
L 581 0 
L 581 3500 
L 1159 3500 
L 1159 2956 
Q 1366 3272 1645 3428 
Q 1925 3584 2291 3584 
Q 2894 3584 3203 3211 
Q 3513 2838 3513 2113 
z
" transform="scale(0.015625)"/>
       </defs>
       <use xlink:href="#DejaVuSans-35"/>
       <use xlink:href="#DejaVuSans-30" x="63.623047"/>
       <use xlink:href="#DejaVuSans-20" x="127.246094"/>
       <use xlink:href="#DejaVuSans-6e" x="159.033203"/>
       <use xlink:href="#DejaVuSans-73" x="222.412109"/>
      </g>
     </g>
    </g>
    <g id="xtick_27">
     <g id="line2d_77">
      <path d="M 463.68 576.72 
L 463.68 483.988966 
" clip-path="url(#p4d79d30a97)" style="fill: none; stroke-dasharray: 1.85,0.8; stroke-dashoffset: 0; stroke: #b2b2b2; stroke-width: 0.5"/>
     </g>
     <g id="line2d_78">
      <g>
       <use xlink:href="#mc42ceff1c4" x="463.68" y="576.72" style="stroke: #000000; stroke-width: 0.8"/>
      </g>
     </g>
     <g id="text_17">
      <!-- 100 ns -->
      <g transform="translate(440.01125 590.857813) scale(0.14 -0.14)">
       <use xlink:href="#DejaVuSans-31"/>
       <use xlink:href="#DejaVuSans-30" x="63.623047"/>
       <use xlink:href="#DejaVuSans-30" x="127.246094"/>
       <use xlink:href="#DejaVuSans-20" x="190.869141"/>
       <use xlink:href="#DejaVuSans-6e" x="222.65625"/>
       <use xlink:href="#DejaVuSans-73" x="286.035156"/>
      </g>
     </g>
    </g>
    <g id="xtick_28">
     <g id="line2d_79">
      <path d="M 624.96 576.72 
L 624.96 483.988966 
" clip-path="url(#p4d79d30a97)" style="fill: none; stroke-dasharray: 1.85,0.8; stroke-dashoffset: 0; stroke: #b2b2b2; stroke-width: 0.5"/>
     </g>
     <g id="line2d_80">
      <g>
       <use xlink:href="#mc42ceff1c4" x="624.96" y="576.72" style="stroke: #000000; stroke-width: 0.8"/>
      </g>
     </g>
     <g id="text_18">
      <!-- 150 ns -->
      <g transform="translate(601.29125 590.857813) scale(0.14 -0.14)">
       <use xlink:href="#DejaVuSans-31"/>
       <use xlink:href="#DejaVuSans-35" x="63.623047"/>
       <use xlink:href="#DejaVuSans-30" x="127.246094"/>
       <use xlink:href="#DejaVuSans-20" x="190.869141"/>
       <use xlink:href="#DejaVuSans-6e" x="222.65625"/>
       <use xlink:href="#DejaVuSans-73" x="286.035156"/>
      </g>
     </g>
    </g>
    <g id="xtick_29">
     <g id="line2d_81">
      <path d="M 786.24 576.72 
L 786.24 483.988966 
" clip-path="url(#p4d79d30a97)" style="fill: none; stroke-dasharray: 1.85,0.8; stroke-dashoffset: 0; stroke: #b2b2b2; stroke-width: 0.5"/>
     </g>
     <g id="line2d_82">
      <g>
       <use xlink:href="#mc42ceff1c4" x="786.24" y="576.72" style="stroke: #000000; stroke-width: 0.8"/>
      </g>
     </g>
     <g id="text_19">
      <!-- 200 ns -->
      <g transform="translate(762.57125 590.857813) scale(0.14 -0.14)">
       <use xlink:href="#DejaVuSans-32"/>
       <use xlink:href="#DejaVuSans-30" x="63.623047"/>
       <use xlink:href="#DejaVuSans-30" x="127.246094"/>
       <use xlink:href="#DejaVuSans-20" x="190.869141"/>
       <use xlink:href="#DejaVuSans-6e" x="222.65625"/>
       <use xlink:href="#DejaVuSans-73" x="286.035156"/>
      </g>
     </g>
    </g>
    <g id="xtick_30">
     <g id="line2d_83">
      <path d="M 947.52 576.72 
L 947.52 483.988966 
" clip-path="url(#p4d79d30a97)" style="fill: none; stroke-dasharray: 1.85,0.8; stroke-dashoffset: 0; stroke: #b2b2b2; stroke-width: 0.5"/>
     </g>
     <g id="line2d_84">
      <g>
       <use xlink:href="#mc42ceff1c4" x="947.52" y="576.72" style="stroke: #000000; stroke-width: 0.8"/>
      </g>
     </g>
     <g id="text_20">
      <!-- 250 ns -->
      <g transform="translate(923.85125 590.857813) scale(0.14 -0.14)">
       <use xlink:href="#DejaVuSans-32"/>
       <use xlink:href="#DejaVuSans-35" x="63.623047"/>
       <use xlink:href="#DejaVuSans-30" x="127.246094"/>
       <use xlink:href="#DejaVuSans-20" x="190.869141"/>
       <use xlink:href="#DejaVuSans-6e" x="222.65625"/>
       <use xlink:href="#DejaVuSans-73" x="286.035156"/>
      </g>
     </g>
    </g>
    <g id="text_21">
     <!-- Time -->
     <g transform="translate(527.192969 608.407187) scale(0.14 -0.14)">
      <defs>
       <path id="DejaVuSans-69" d="M 603 3500 
L 1178 3500 
L 1178 0 
L 603 0 
L 603 3500 
z
M 603 4863 
L 1178 4863 
L 1178 4134 
L 603 4134 
L 603 4863 
z
" transform="scale(0.015625)"/>
       <path id="DejaVuSans-6d" d="M 3328 2828 
Q 3544 3216 3844 3400 
Q 4144 3584 4550 3584 
Q 5097 3584 5394 3201 
Q 5691 2819 5691 2113 
L 5691 0 
L 5113 0 
L 5113 2094 
Q 5113 2597 4934 2840 
Q 4756 3084 4391 3084 
Q 3944 3084 3684 2787 
Q 3425 2491 3425 1978 
L 3425 0 
L 2847 0 
L 2847 2094 
Q 2847 2600 2669 2842 
Q 2491 3084 2119 3084 
Q 1678 3084 1418 2786 
Q 1159 2488 1159 1978 
L 1159 0 
L 581 0 
L 581 3500 
L 1159 3500 
L 1159 2956 
Q 1356 3278 1631 3431 
Q 1906 3584 2284 3584 
Q 2666 3584 2933 3390 
Q 3200 3197 3328 2828 
z
" transform="scale(0.015625)"/>
       <path id="DejaVuSans-65" d="M 3597 1894 
L 3597 1613 
L 953 1613 
Q 991 1019 1311 708 
Q 1631 397 2203 397 
Q 2534 397 2845 478 
Q 3156 559 3463 722 
L 3463 178 
Q 3153 47 2828 -22 
Q 2503 -91 2169 -91 
Q 1331 -91 842 396 
Q 353 884 353 1716 
Q 353 2575 817 3079 
Q 1281 3584 2069 3584 
Q 2775 3584 3186 3129 
Q 3597 2675 3597 1894 
z
M 3022 2063 
Q 3016 2534 2758 2815 
Q 2500 3097 2075 3097 
Q 1594 3097 1305 2825 
Q 1016 2553 972 2059 
L 3022 2063 
z
" transform="scale(0.015625)"/>
      </defs>
      <use xlink:href="#DejaVuSans-54"/>
      <use xlink:href="#DejaVuSans-69" x="57.958984"/>
      <use xlink:href="#DejaVuSans-6d" x="85.742188"/>
      <use xlink:href="#DejaVuSans-65" x="183.154297"/>
     </g>
    </g>
   </g>
   <g id="matplotlib.axis_10">
    <g id="ytick_11">
     <g id="line2d_85">
      <path d="M 100.8 569.745885 
L 987.84 569.745885 
" clip-path="url(#p4d79d30a97)" style="fill: none; stroke-dasharray: 1.85,0.8; stroke-dashoffset: 0; stroke: #b2b2b2; stroke-width: 0.5"/>
     </g>
     <g id="line2d_86">
      <g>
       <use xlink:href="#m2226b751ea" x="100.8" y="569.745885" style="stroke: #000000; stroke-width: 0.8"/>
      </g>
     </g>
     <g id="text_22">
      <!-- 0 V -->
      <g transform="translate(74.36625 575.064792) scale(0.14 -0.14)">
       <use xlink:href="#DejaVuSans-30"/>
       <use xlink:href="#DejaVuSans-20" x="63.623047"/>
       <use xlink:href="#DejaVuSans-56" x="95.410156"/>
      </g>
     </g>
    </g>
    <g id="ytick_12">
     <g id="line2d_87">
      <path d="M 100.8 535.950348 
L 987.84 535.950348 
" clip-path="url(#p4d79d30a97)" style="fill: none; stroke-dasharray: 1.85,0.8; stroke-dashoffset: 0; stroke: #b2b2b2; stroke-width: 0.5"/>
     </g>
     <g id="line2d_88">
      <g>
       <use xlink:href="#m2226b751ea" x="100.8" y="535.950348" style="stroke: #000000; stroke-width: 0.8"/>
      </g>
     </g>
     <g id="text_23">
      <!-- 500 mV -->
      <g transform="translate(42.914375 541.269254) scale(0.14 -0.14)">
       <use xlink:href="#DejaVuSans-35"/>
       <use xlink:href="#DejaVuSans-30" x="63.623047"/>
       <use xlink:href="#DejaVuSans-30" x="127.246094"/>
       <use xlink:href="#DejaVuSans-20" x="190.869141"/>
       <use xlink:href="#DejaVuSans-6d" x="222.65625"/>
       <use xlink:href="#DejaVuSans-56" x="320.068359"/>
      </g>
     </g>
    </g>
    <g id="ytick_13">
     <g id="line2d_89">
      <path d="M 100.8 502.15481 
L 987.84 502.15481 
" clip-path="url(#p4d79d30a97)" style="fill: none; stroke-dasharray: 1.85,0.8; stroke-dashoffset: 0; stroke: #b2b2b2; stroke-width: 0.5"/>
     </g>
     <g id="line2d_90">
      <g>
       <use xlink:href="#m2226b751ea" x="100.8" y="502.15481" style="stroke: #000000; stroke-width: 0.8"/>
      </g>
     </g>
     <g id="text_24">
      <!-- 1 V -->
      <g transform="translate(74.36625 507.473717) scale(0.14 -0.14)">
       <use xlink:href="#DejaVuSans-31"/>
       <use xlink:href="#DejaVuSans-20" x="63.623047"/>
       <use xlink:href="#DejaVuSans-56" x="95.410156"/>
      </g>
     </g>
    </g>
    <g id="text_25">
     <g id="patch_27">
      <path d="M 34.8768 554.329483 
L 34.8768 506.379483 
L 11.247425 506.379483 
L 11.247425 554.329483 
z
" style="fill: #ffff00; opacity: 0.2; stroke: #eeeeee; stroke-width: 0.5; stroke-linejoin: miter"/>
     </g>
     <!-- FOUT -->
     <g transform="translate(26.925238 549.289483) rotate(-90) scale(0.14 -0.14)">
      <use xlink:href="#DejaVuSans-46"/>
      <use xlink:href="#DejaVuSans-4f" x="57.519531"/>
      <use xlink:href="#DejaVuSans-55" x="136.230469"/>
      <use xlink:href="#DejaVuSans-54" x="209.423828"/>
     </g>
    </g>
   </g>
   <g id="line2d_91">
    <path d="M 141.12 488.636595 
L 173.472768 488.643355 
L 173.505024 488.44734 
L 173.569536 526.789729 
L 173.69856 572.504953 
L 173.730816 572.3695 
L 173.827584 567.842115 
L 173.892096 569.3609 
L 174.053376 570.064192 
L 174.117888 569.946665 
L 174.408192 569.492054 
L 174.440448 569.54151 
L 174.66624 569.729954 
L 176.182272 569.740151 
L 180.117504 569.761449 
L 193.568256 569.752159 
L 212.954112 569.74401 
L 255.30624 569.743704 
L 255.6288 488.52845 
L 255.854592 488.670391 
L 256.209408 488.629836 
L 334.849536 488.650114 
L 334.881792 492.854278 
L 335.043072 572.18376 
L 335.107584 570.261206 
L 335.172096 568.338639 
L 335.236608 568.870108 
L 335.365632 570.783003 
L 335.430144 570.410083 
L 335.591424 569.797213 
L 335.881728 569.648439 
L 336.559104 569.817924 
L 337.107456 569.746143 
L 350.009856 569.744206 
L 416.489472 569.74333 
L 416.553984 567.480841 
L 416.812032 488.204013 
L 416.844288 488.339195 
L 416.973312 488.852887 
L 417.037824 488.778537 
L 417.39264 488.548727 
L 417.844224 488.717705 
L 418.457088 488.562245 
L 419.328 488.636595 
L 597.671424 488.52845 
L 597.70368 488.37299 
L 597.735936 488.879923 
L 597.800448 517.646009 
L 597.929472 570.098941 
L 597.961728 569.725369 
L 598.284288 569.744186 
L 644.216832 569.742038 
L 644.249088 567.858675 
L 644.603904 488.643355 
L 657.409536 488.643355 
L 657.474048 493.645094 
L 657.635328 569.75929 
L 657.667584 569.737542 
L 658.34496 569.7442 
L 738.952704 569.853713 
L 739.017216 553.693005 
L 739.178496 489.58963 
L 739.30752 488.643355 
L 947.52 488.636595 
L 947.52 488.636595 
" clip-path="url(#p4d79d30a97)" style="fill: none; stroke: #ff00ff; stroke-width: 2; stroke-linecap: square"/>
   </g>
   <g id="patch_28">
    <path d="M 100.8 576.72 
L 100.8 483.988966 
" style="fill: none; stroke: #bcbcbc; stroke-width: 0.8; stroke-linejoin: miter; stroke-linecap: square"/>
   </g>
   <g id="patch_29">
    <path d="M 987.84 576.72 
L 987.84 483.988966 
" style="fill: none; stroke: #bcbcbc; stroke-width: 0.8; stroke-linejoin: miter; stroke-linecap: square"/>
   </g>
   <g id="patch_30">
    <path d="M 100.8 576.72 
L 987.84 576.72 
" style="fill: none; stroke: #bcbcbc; stroke-width: 0.8; stroke-linejoin: miter; stroke-linecap: square"/>
   </g>
   <g id="patch_31">
    <path d="M 100.8 483.988966 
L 987.84 483.988966 
" style="fill: none; stroke: #bcbcbc; stroke-width: 0.8; stroke-linejoin: miter; stroke-linecap: square"/>
   </g>
  </g>
  <g id="axes_6">
   <g id="patch_32">
    <path d="M 201.6 628.56 
L 856.8 628.56 
L 856.8 615.6 
L 201.6 615.6 
z
" clip-path="url(#pa0ff1868cf)" style="fill: #d3d3d3"/>
   </g>
   <g id="patch_33">
    <path d="M 201.6 628.56 
L 772.56 628.56 
L 772.56 615.6 
L 201.6 615.6 
z
" clip-path="url(#pa0ff1868cf)" style="fill: #0000ff"/>
   </g>
   <g id="line2d_92">
    <path d="M 201.6 635.04 
L 201.6 609.12 
" clip-path="url(#p73038669a0)" style="fill: none; stroke: #ff0000; stroke-linecap: square"/>
   </g>
   <g id="line2d_93">
    <defs>
     <path id="m678fbdb9cf" d="M 0 5 
C 1.326016 5 2.597899 4.473168 3.535534 3.535534 
C 4.473168 2.597899 5 1.326016 5 0 
C 5 -1.326016 4.473168 -2.597899 3.535534 -3.535534 
C 2.597899 -4.473168 1.326016 -5 0 -5 
C -1.326016 -5 -2.597899 -4.473168 -3.535534 -3.535534 
C -4.473168 -2.597899 -5 -1.326016 -5 0 
C -5 1.326016 -4.473168 2.597899 -3.535534 3.535534 
C -2.597899 4.473168 -1.326016 5 0 5 
z
" style="stroke: #bfbfbf"/>
    </defs>
    <g>
     <use xlink:href="#m678fbdb9cf" x="772.56" y="622.08" style="fill: #ffffff; stroke: #bfbfbf"/>
    </g>
   </g>
   <g id="text_26">
    <!-- #Sweep -->
    <g transform="translate(138.622875 625.39125) scale(0.12 -0.12)">
     <defs>
      <path id="DejaVuSans-23" d="M 3272 2816 
L 2363 2816 
L 2100 1772 
L 3016 1772 
L 3272 2816 
z
M 2803 4594 
L 2478 3297 
L 3391 3297 
L 3719 4594 
L 4219 4594 
L 3897 3297 
L 4872 3297 
L 4872 2816 
L 3775 2816 
L 3519 1772 
L 4513 1772 
L 4513 1294 
L 3397 1294 
L 3072 0 
L 2572 0 
L 2894 1294 
L 1978 1294 
L 1656 0 
L 1153 0 
L 1478 1294 
L 494 1294 
L 494 1772 
L 1594 1772 
L 1856 2816 
L 850 2816 
L 850 3297 
L 1978 3297 
L 2297 4594 
L 2803 4594 
z
" transform="scale(0.015625)"/>
      <path id="DejaVuSans-77" d="M 269 3500 
L 844 3500 
L 1563 769 
L 2278 3500 
L 2956 3500 
L 3675 769 
L 4391 3500 
L 4966 3500 
L 4050 0 
L 3372 0 
L 2619 2869 
L 1863 0 
L 1184 0 
L 269 3500 
z
" transform="scale(0.015625)"/>
      <path id="DejaVuSans-70" d="M 1159 525 
L 1159 -1331 
L 581 -1331 
L 581 3500 
L 1159 3500 
L 1159 2969 
Q 1341 3281 1617 3432 
Q 1894 3584 2278 3584 
Q 2916 3584 3314 3078 
Q 3713 2572 3713 1747 
Q 3713 922 3314 415 
Q 2916 -91 2278 -91 
Q 1894 -91 1617 61 
Q 1341 213 1159 525 
z
M 3116 1747 
Q 3116 2381 2855 2742 
Q 2594 3103 2138 3103 
Q 1681 3103 1420 2742 
Q 1159 2381 1159 1747 
Q 1159 1113 1420 752 
Q 1681 391 2138 391 
Q 2594 391 2855 752 
Q 3116 1113 3116 1747 
z
" transform="scale(0.015625)"/>
     </defs>
     <use xlink:href="#DejaVuSans-23"/>
     <use xlink:href="#DejaVuSans-53" x="83.789062"/>
     <use xlink:href="#DejaVuSans-77" x="147.265625"/>
     <use xlink:href="#DejaVuSans-65" x="229.052734"/>
     <use xlink:href="#DejaVuSans-65" x="290.576172"/>
     <use xlink:href="#DejaVuSans-70" x="352.099609"/>
    </g>
   </g>
   <g id="text_27">
    <!-- $\mathdefault{122}$ -->
    <g transform="translate(869.904 625.39125) scale(0.12 -0.12)">
     <use xlink:href="#DejaVuSans-31" transform="translate(0 0.78125)"/>
     <use xlink:href="#DejaVuSans-32" transform="translate(63.623047 0.78125)"/>
     <use xlink:href="#DejaVuSans-32" transform="translate(127.246094 0.78125)"/>
    </g>
   </g>
  </g>
  <g id="text_28">
   <!-- DFF under BBI sweep analysis (Sweep = 132E-9) -->
   <g transform="translate(308.25625 25.1175) scale(0.16 -0.16)">
    <defs>
     <path id="DejaVuSans-75" d="M 544 1381 
L 544 3500 
L 1119 3500 
L 1119 1403 
Q 1119 906 1312 657 
Q 1506 409 1894 409 
Q 2359 409 2629 706 
Q 2900 1003 2900 1516 
L 2900 3500 
L 3475 3500 
L 3475 0 
L 2900 0 
L 2900 538 
Q 2691 219 2414 64 
Q 2138 -91 1772 -91 
Q 1169 -91 856 284 
Q 544 659 544 1381 
z
M 1991 3584 
L 1991 3584 
z
" transform="scale(0.015625)"/>
     <path id="DejaVuSans-64" d="M 2906 2969 
L 2906 4863 
L 3481 4863 
L 3481 0 
L 2906 0 
L 2906 525 
Q 2725 213 2448 61 
Q 2172 -91 1784 -91 
Q 1150 -91 751 415 
Q 353 922 353 1747 
Q 353 2572 751 3078 
Q 1150 3584 1784 3584 
Q 2172 3584 2448 3432 
Q 2725 3281 2906 2969 
z
M 947 1747 
Q 947 1113 1208 752 
Q 1469 391 1925 391 
Q 2381 391 2643 752 
Q 2906 1113 2906 1747 
Q 2906 2381 2643 2742 
Q 2381 3103 1925 3103 
Q 1469 3103 1208 2742 
Q 947 2381 947 1747 
z
" transform="scale(0.015625)"/>
     <path id="DejaVuSans-72" d="M 2631 2963 
Q 2534 3019 2420 3045 
Q 2306 3072 2169 3072 
Q 1681 3072 1420 2755 
Q 1159 2438 1159 1844 
L 1159 0 
L 581 0 
L 581 3500 
L 1159 3500 
L 1159 2956 
Q 1341 3275 1631 3429 
Q 1922 3584 2338 3584 
Q 2397 3584 2469 3576 
Q 2541 3569 2628 3553 
L 2631 2963 
z
" transform="scale(0.015625)"/>
     <path id="DejaVuSans-61" d="M 2194 1759 
Q 1497 1759 1228 1600 
Q 959 1441 959 1056 
Q 959 750 1161 570 
Q 1363 391 1709 391 
Q 2188 391 2477 730 
Q 2766 1069 2766 1631 
L 2766 1759 
L 2194 1759 
z
M 3341 1997 
L 3341 0 
L 2766 0 
L 2766 531 
Q 2569 213 2275 61 
Q 1981 -91 1556 -91 
Q 1019 -91 701 211 
Q 384 513 384 1019 
Q 384 1609 779 1909 
Q 1175 2209 1959 2209 
L 2766 2209 
L 2766 2266 
Q 2766 2663 2505 2880 
Q 2244 3097 1772 3097 
Q 1472 3097 1187 3025 
Q 903 2953 641 2809 
L 641 3341 
Q 956 3463 1253 3523 
Q 1550 3584 1831 3584 
Q 2591 3584 2966 3190 
Q 3341 2797 3341 1997 
z
" transform="scale(0.015625)"/>
     <path id="DejaVuSans-6c" d="M 603 4863 
L 1178 4863 
L 1178 0 
L 603 0 
L 603 4863 
z
" transform="scale(0.015625)"/>
     <path id="DejaVuSans-79" d="M 2059 -325 
Q 1816 -950 1584 -1140 
Q 1353 -1331 966 -1331 
L 506 -1331 
L 506 -850 
L 844 -850 
Q 1081 -850 1212 -737 
Q 1344 -625 1503 -206 
L 1606 56 
L 191 3500 
L 800 3500 
L 1894 763 
L 2988 3500 
L 3597 3500 
L 2059 -325 
z
" transform="scale(0.015625)"/>
     <path id="DejaVuSans-28" d="M 1984 4856 
Q 1566 4138 1362 3434 
Q 1159 2731 1159 2009 
Q 1159 1288 1364 580 
Q 1569 -128 1984 -844 
L 1484 -844 
Q 1016 -109 783 600 
Q 550 1309 550 2009 
Q 550 2706 781 3412 
Q 1013 4119 1484 4856 
L 1984 4856 
z
" transform="scale(0.015625)"/>
     <path id="DejaVuSans-3d" d="M 678 2906 
L 4684 2906 
L 4684 2381 
L 678 2381 
L 678 2906 
z
M 678 1631 
L 4684 1631 
L 4684 1100 
L 678 1100 
L 678 1631 
z
" transform="scale(0.015625)"/>
     <path id="DejaVuSans-33" d="M 2597 2516 
Q 3050 2419 3304 2112 
Q 3559 1806 3559 1356 
Q 3559 666 3084 287 
Q 2609 -91 1734 -91 
Q 1441 -91 1130 -33 
Q 819 25 488 141 
L 488 750 
Q 750 597 1062 519 
Q 1375 441 1716 441 
Q 2309 441 2620 675 
Q 2931 909 2931 1356 
Q 2931 1769 2642 2001 
Q 2353 2234 1838 2234 
L 1294 2234 
L 1294 2753 
L 1863 2753 
Q 2328 2753 2575 2939 
Q 2822 3125 2822 3475 
Q 2822 3834 2567 4026 
Q 2313 4219 1838 4219 
Q 1578 4219 1281 4162 
Q 984 4106 628 3988 
L 628 4550 
Q 988 4650 1302 4700 
Q 1616 4750 1894 4750 
Q 2613 4750 3031 4423 
Q 3450 4097 3450 3541 
Q 3450 3153 3228 2886 
Q 3006 2619 2597 2516 
z
" transform="scale(0.015625)"/>
     <path id="DejaVuSans-2d" d="M 313 2009 
L 1997 2009 
L 1997 1497 
L 313 1497 
L 313 2009 
z
" transform="scale(0.015625)"/>
     <path id="DejaVuSans-39" d="M 703 97 
L 703 672 
Q 941 559 1184 500 
Q 1428 441 1663 441 
Q 2288 441 2617 861 
Q 2947 1281 2994 2138 
Q 2813 1869 2534 1725 
Q 2256 1581 1919 1581 
Q 1219 1581 811 2004 
Q 403 2428 403 3163 
Q 403 3881 828 4315 
Q 1253 4750 1959 4750 
Q 2769 4750 3195 4129 
Q 3622 3509 3622 2328 
Q 3622 1225 3098 567 
Q 2575 -91 1691 -91 
Q 1453 -91 1209 -44 
Q 966 3 703 97 
z
M 1959 2075 
Q 2384 2075 2632 2365 
Q 2881 2656 2881 3163 
Q 2881 3666 2632 3958 
Q 2384 4250 1959 4250 
Q 1534 4250 1286 3958 
Q 1038 3666 1038 3163 
Q 1038 2656 1286 2365 
Q 1534 2075 1959 2075 
z
" transform="scale(0.015625)"/>
     <path id="DejaVuSans-29" d="M 513 4856 
L 1013 4856 
Q 1481 4119 1714 3412 
Q 1947 2706 1947 2009 
Q 1947 1309 1714 600 
Q 1481 -109 1013 -844 
L 513 -844 
Q 928 -128 1133 580 
Q 1338 1288 1338 2009 
Q 1338 2731 1133 3434 
Q 928 4138 513 4856 
z
" transform="scale(0.015625)"/>
    </defs>
    <use xlink:href="#DejaVuSans-44"/>
    <use xlink:href="#DejaVuSans-46" x="77.001953"/>
    <use xlink:href="#DejaVuSans-46" x="134.521484"/>
    <use xlink:href="#DejaVuSans-20" x="192.041016"/>
    <use xlink:href="#DejaVuSans-75" x="223.828125"/>
    <use xlink:href="#DejaVuSans-6e" x="287.207031"/>
    <use xlink:href="#DejaVuSans-64" x="350.585938"/>
    <use xlink:href="#DejaVuSans-65" x="414.0625"/>
    <use xlink:href="#DejaVuSans-72" x="475.585938"/>
    <use xlink:href="#DejaVuSans-20" x="516.699219"/>
    <use xlink:href="#DejaVuSans-42" x="548.486328"/>
    <use xlink:href="#DejaVuSans-42" x="617.089844"/>
    <use xlink:href="#DejaVuSans-49" x="685.693359"/>
    <use xlink:href="#DejaVuSans-20" x="715.185547"/>
    <use xlink:href="#DejaVuSans-73" x="746.972656"/>
    <use xlink:href="#DejaVuSans-77" x="799.072266"/>
    <use xlink:href="#DejaVuSans-65" x="880.859375"/>
    <use xlink:href="#DejaVuSans-65" x="942.382812"/>
    <use xlink:href="#DejaVuSans-70" x="1003.90625"/>
    <use xlink:href="#DejaVuSans-20" x="1067.382812"/>
    <use xlink:href="#DejaVuSans-61" x="1099.169922"/>
    <use xlink:href="#DejaVuSans-6e" x="1160.449219"/>
    <use xlink:href="#DejaVuSans-61" x="1223.828125"/>
    <use xlink:href="#DejaVuSans-6c" x="1285.107422"/>
    <use xlink:href="#DejaVuSans-79" x="1312.890625"/>
    <use xlink:href="#DejaVuSans-73" x="1372.070312"/>
    <use xlink:href="#DejaVuSans-69" x="1424.169922"/>
    <use xlink:href="#DejaVuSans-73" x="1451.953125"/>
    <use xlink:href="#DejaVuSans-20" x="1504.052734"/>
    <use xlink:href="#DejaVuSans-28" x="1535.839844"/>
    <use xlink:href="#DejaVuSans-53" x="1574.853516"/>
    <use xlink:href="#DejaVuSans-77" x="1638.330078"/>
    <use xlink:href="#DejaVuSans-65" x="1720.117188"/>
    <use xlink:href="#DejaVuSans-65" x="1781.640625"/>
    <use xlink:href="#DejaVuSans-70" x="1843.164062"/>
    <use xlink:href="#DejaVuSans-20" x="1906.640625"/>
    <use xlink:href="#DejaVuSans-3d" x="1938.427734"/>
    <use xlink:href="#DejaVuSans-20" x="2022.216797"/>
    <use xlink:href="#DejaVuSans-31" x="2054.003906"/>
    <use xlink:href="#DejaVuSans-33" x="2117.626953"/>
    <use xlink:href="#DejaVuSans-32" x="2181.25"/>
    <use xlink:href="#DejaVuSans-45" x="2244.873047"/>
    <use xlink:href="#DejaVuSans-2d" x="2308.056641"/>
    <use xlink:href="#DejaVuSans-39" x="2344.140625"/>
    <use xlink:href="#DejaVuSans-29" x="2407.763672"/>
   </g>
  </g>
 </g>
 <defs>
  <clipPath id="p190810e3ed">
   <rect x="100.8" y="38.88" width="887.04" height="92.731034"/>
  </clipPath>
  <clipPath id="pbe9e5f402a">
   <rect x="100.8" y="150.157241" width="887.04" height="92.731034"/>
  </clipPath>
  <clipPath id="p2ffc6b265f">
   <rect x="100.8" y="261.434483" width="887.04" height="92.731034"/>
  </clipPath>
  <clipPath id="p9d3cc7c817">
   <rect x="100.8" y="372.711724" width="887.04" height="92.731034"/>
  </clipPath>
  <clipPath id="p4d79d30a97">
   <rect x="100.8" y="483.988966" width="887.04" height="92.731034"/>
  </clipPath>
  <clipPath id="pa0ff1868cf">
   <rect x="201.6" y="609.12" width="655.2" height="25.92"/>
  </clipPath>
  <clipPath id="p73038669a0">
   <path d="M 201.6 628.56 
L 856.8 628.56 
L 856.8 615.6 
L 201.6 615.6 
z
"/>
  </clipPath>
 </defs>
</svg>
