<?xml version="1.0" encoding="utf-8" standalone="no"?>
<!DOCTYPE svg PUBLIC "-//W3C//DTD SVG 1.1//EN"
  "http://www.w3.org/Graphics/SVG/1.1/DTD/svg11.dtd">
<svg xmlns:xlink="http://www.w3.org/1999/xlink" width="1008pt" height="648pt" viewBox="0 0 1008 648" xmlns="http://www.w3.org/2000/svg" version="1.1">
 <metadata>
  <rdf:RDF xmlns:dc="http://purl.org/dc/elements/1.1/" xmlns:cc="http://creativecommons.org/ns#" xmlns:rdf="http://www.w3.org/1999/02/22-rdf-syntax-ns#">
   <cc:Work>
    <dc:type rdf:resource="http://purl.org/dc/dcmitype/StillImage"/>
    <dc:date>2024-06-03T10:45:56.331322</dc:date>
    <dc:format>image/svg+xml</dc:format>
    <dc:creator>
     <cc:Agent>
      <dc:title>Matplotlib v3.9.0, https://matplotlib.org/</dc:title>
     </cc:Agent>
    </dc:creator>
   </cc:Work>
  </rdf:RDF>
 </metadata>
 <defs>
  <style type="text/css">*{stroke-linejoin: round; stroke-linecap: butt}</style>
 </defs>
 <g id="figure_1">
  <g id="patch_1">
   <path d="M 0 648 
L 1008 648 
L 1008 0 
L 0 0 
z
" style="fill: #ffffff"/>
  </g>
  <g id="axes_1">
   <g id="patch_2">
    <path d="M 100.8 131.611034 
L 987.84 131.611034 
L 987.84 38.88 
L 100.8 38.88 
z
" style="fill: #eeeeee"/>
   </g>
   <g id="matplotlib.axis_1">
    <g id="xtick_1">
     <g id="line2d_1">
      <path d="M 141.12 131.611034 
L 141.12 38.88 
" clip-path="url(#p52179d133e)" style="fill: none; stroke-dasharray: 1.85,0.8; stroke-dashoffset: 0; stroke: #b2b2b2; stroke-width: 0.5"/>
     </g>
     <g id="line2d_2">
      <defs>
       <path id="m3be8cd2aac" d="M 0 0 
L 0 -3.5 
" style="stroke: #000000; stroke-width: 0.8"/>
      </defs>
      <g>
       <use xlink:href="#m3be8cd2aac" x="141.12" y="131.611034" style="stroke: #000000; stroke-width: 0.8"/>
      </g>
     </g>
    </g>
    <g id="xtick_2">
     <g id="line2d_3">
      <path d="M 302.4 131.611034 
L 302.4 38.88 
" clip-path="url(#p52179d133e)" style="fill: none; stroke-dasharray: 1.85,0.8; stroke-dashoffset: 0; stroke: #b2b2b2; stroke-width: 0.5"/>
     </g>
     <g id="line2d_4">
      <g>
       <use xlink:href="#m3be8cd2aac" x="302.4" y="131.611034" style="stroke: #000000; stroke-width: 0.8"/>
      </g>
     </g>
    </g>
    <g id="xtick_3">
     <g id="line2d_5">
      <path d="M 463.68 131.611034 
L 463.68 38.88 
" clip-path="url(#p52179d133e)" style="fill: none; stroke-dasharray: 1.85,0.8; stroke-dashoffset: 0; stroke: #b2b2b2; stroke-width: 0.5"/>
     </g>
     <g id="line2d_6">
      <g>
       <use xlink:href="#m3be8cd2aac" x="463.68" y="131.611034" style="stroke: #000000; stroke-width: 0.8"/>
      </g>
     </g>
    </g>
    <g id="xtick_4">
     <g id="line2d_7">
      <path d="M 624.96 131.611034 
L 624.96 38.88 
" clip-path="url(#p52179d133e)" style="fill: none; stroke-dasharray: 1.85,0.8; stroke-dashoffset: 0; stroke: #b2b2b2; stroke-width: 0.5"/>
     </g>
     <g id="line2d_8">
      <g>
       <use xlink:href="#m3be8cd2aac" x="624.96" y="131.611034" style="stroke: #000000; stroke-width: 0.8"/>
      </g>
     </g>
    </g>
    <g id="xtick_5">
     <g id="line2d_9">
      <path d="M 786.24 131.611034 
L 786.24 38.88 
" clip-path="url(#p52179d133e)" style="fill: none; stroke-dasharray: 1.85,0.8; stroke-dashoffset: 0; stroke: #b2b2b2; stroke-width: 0.5"/>
     </g>
     <g id="line2d_10">
      <g>
       <use xlink:href="#m3be8cd2aac" x="786.24" y="131.611034" style="stroke: #000000; stroke-width: 0.8"/>
      </g>
     </g>
    </g>
    <g id="xtick_6">
     <g id="line2d_11">
      <path d="M 947.52 131.611034 
L 947.52 38.88 
" clip-path="url(#p52179d133e)" style="fill: none; stroke-dasharray: 1.85,0.8; stroke-dashoffset: 0; stroke: #b2b2b2; stroke-width: 0.5"/>
     </g>
     <g id="line2d_12">
      <g>
       <use xlink:href="#m3be8cd2aac" x="947.52" y="131.611034" style="stroke: #000000; stroke-width: 0.8"/>
      </g>
     </g>
    </g>
   </g>
   <g id="matplotlib.axis_2">
    <g id="ytick_1">
     <g id="line2d_13">
      <path d="M 100.8 98.340394 
L 987.84 98.340394 
" clip-path="url(#p52179d133e)" style="fill: none; stroke-dasharray: 1.85,0.8; stroke-dashoffset: 0; stroke: #b2b2b2; stroke-width: 0.5"/>
     </g>
     <g id="line2d_14">
      <defs>
       <path id="mfdeda7a0a5" d="M 0 0 
L 3.5 0 
" style="stroke: #000000; stroke-width: 0.8"/>
      </defs>
      <g>
       <use xlink:href="#mfdeda7a0a5" x="100.8" y="98.340394" style="stroke: #000000; stroke-width: 0.8"/>
      </g>
     </g>
     <g id="text_1">
      <!-- −200 V -->
      <g transform="translate(44.819688 103.6593) scale(0.14 -0.14)">
       <defs>
        <path id="DejaVuSans-2212" d="M 678 2272 
L 4684 2272 
L 4684 1741 
L 678 1741 
L 678 2272 
z
" transform="scale(0.015625)"/>
        <path id="DejaVuSans-32" d="M 1228 531 
L 3431 531 
L 3431 0 
L 469 0 
L 469 531 
Q 828 903 1448 1529 
Q 2069 2156 2228 2338 
Q 2531 2678 2651 2914 
Q 2772 3150 2772 3378 
Q 2772 3750 2511 3984 
Q 2250 4219 1831 4219 
Q 1534 4219 1204 4116 
Q 875 4013 500 3803 
L 500 4441 
Q 881 4594 1212 4672 
Q 1544 4750 1819 4750 
Q 2544 4750 2975 4387 
Q 3406 4025 3406 3419 
Q 3406 3131 3298 2873 
Q 3191 2616 2906 2266 
Q 2828 2175 2409 1742 
Q 1991 1309 1228 531 
z
" transform="scale(0.015625)"/>
        <path id="DejaVuSans-30" d="M 2034 4250 
Q 1547 4250 1301 3770 
Q 1056 3291 1056 2328 
Q 1056 1369 1301 889 
Q 1547 409 2034 409 
Q 2525 409 2770 889 
Q 3016 1369 3016 2328 
Q 3016 3291 2770 3770 
Q 2525 4250 2034 4250 
z
M 2034 4750 
Q 2819 4750 3233 4129 
Q 3647 3509 3647 2328 
Q 3647 1150 3233 529 
Q 2819 -91 2034 -91 
Q 1250 -91 836 529 
Q 422 1150 422 2328 
Q 422 3509 836 4129 
Q 1250 4750 2034 4750 
z
" transform="scale(0.015625)"/>
        <path id="DejaVuSans-20" transform="scale(0.015625)"/>
        <path id="DejaVuSans-56" d="M 1831 0 
L 50 4666 
L 709 4666 
L 2188 738 
L 3669 4666 
L 4325 4666 
L 2547 0 
L 1831 0 
z
" transform="scale(0.015625)"/>
       </defs>
       <use xlink:href="#DejaVuSans-2212"/>
       <use xlink:href="#DejaVuSans-32" x="83.789062"/>
       <use xlink:href="#DejaVuSans-30" x="147.412109"/>
       <use xlink:href="#DejaVuSans-30" x="211.035156"/>
       <use xlink:href="#DejaVuSans-20" x="274.658203"/>
       <use xlink:href="#DejaVuSans-56" x="306.445312"/>
      </g>
     </g>
    </g>
    <g id="ytick_2">
     <g id="line2d_15">
      <path d="M 100.8 45.027377 
L 987.84 45.027377 
" clip-path="url(#p52179d133e)" style="fill: none; stroke-dasharray: 1.85,0.8; stroke-dashoffset: 0; stroke: #b2b2b2; stroke-width: 0.5"/>
     </g>
     <g id="line2d_16">
      <g>
       <use xlink:href="#mfdeda7a0a5" x="100.8" y="45.027377" style="stroke: #000000; stroke-width: 0.8"/>
      </g>
     </g>
     <g id="text_2">
      <!-- 0 V -->
      <g transform="translate(74.36625 50.346284) scale(0.14 -0.14)">
       <use xlink:href="#DejaVuSans-30"/>
       <use xlink:href="#DejaVuSans-20" x="63.623047"/>
       <use xlink:href="#DejaVuSans-56" x="95.410156"/>
      </g>
     </g>
    </g>
    <g id="text_3">
     <g id="patch_3">
      <path d="M 34.8768 131.080205 
L 34.8768 39.41083 
L 11.247425 39.41083 
L 11.247425 131.080205 
z
" style="fill: #ffff00; opacity: 0.2; stroke: #eeeeee; stroke-width: 0.5; stroke-linejoin: miter"/>
     </g>
     <!-- VPULSE BBI -->
     <g transform="translate(26.925238 126.040205) rotate(-90) scale(0.14 -0.14)">
      <defs>
       <path id="DejaVuSans-50" d="M 1259 4147 
L 1259 2394 
L 2053 2394 
Q 2494 2394 2734 2622 
Q 2975 2850 2975 3272 
Q 2975 3691 2734 3919 
Q 2494 4147 2053 4147 
L 1259 4147 
z
M 628 4666 
L 2053 4666 
Q 2838 4666 3239 4311 
Q 3641 3956 3641 3272 
Q 3641 2581 3239 2228 
Q 2838 1875 2053 1875 
L 1259 1875 
L 1259 0 
L 628 0 
L 628 4666 
z
" transform="scale(0.015625)"/>
       <path id="DejaVuSans-55" d="M 556 4666 
L 1191 4666 
L 1191 1831 
Q 1191 1081 1462 751 
Q 1734 422 2344 422 
Q 2950 422 3222 751 
Q 3494 1081 3494 1831 
L 3494 4666 
L 4128 4666 
L 4128 1753 
Q 4128 841 3676 375 
Q 3225 -91 2344 -91 
Q 1459 -91 1007 375 
Q 556 841 556 1753 
L 556 4666 
z
" transform="scale(0.015625)"/>
       <path id="DejaVuSans-4c" d="M 628 4666 
L 1259 4666 
L 1259 531 
L 3531 531 
L 3531 0 
L 628 0 
L 628 4666 
z
" transform="scale(0.015625)"/>
       <path id="DejaVuSans-53" d="M 3425 4513 
L 3425 3897 
Q 3066 4069 2747 4153 
Q 2428 4238 2131 4238 
Q 1616 4238 1336 4038 
Q 1056 3838 1056 3469 
Q 1056 3159 1242 3001 
Q 1428 2844 1947 2747 
L 2328 2669 
Q 3034 2534 3370 2195 
Q 3706 1856 3706 1288 
Q 3706 609 3251 259 
Q 2797 -91 1919 -91 
Q 1588 -91 1214 -16 
Q 841 59 441 206 
L 441 856 
Q 825 641 1194 531 
Q 1563 422 1919 422 
Q 2459 422 2753 634 
Q 3047 847 3047 1241 
Q 3047 1584 2836 1778 
Q 2625 1972 2144 2069 
L 1759 2144 
Q 1053 2284 737 2584 
Q 422 2884 422 3419 
Q 422 4038 858 4394 
Q 1294 4750 2059 4750 
Q 2388 4750 2728 4690 
Q 3069 4631 3425 4513 
z
" transform="scale(0.015625)"/>
       <path id="DejaVuSans-45" d="M 628 4666 
L 3578 4666 
L 3578 4134 
L 1259 4134 
L 1259 2753 
L 3481 2753 
L 3481 2222 
L 1259 2222 
L 1259 531 
L 3634 531 
L 3634 0 
L 628 0 
L 628 4666 
z
" transform="scale(0.015625)"/>
       <path id="DejaVuSans-42" d="M 1259 2228 
L 1259 519 
L 2272 519 
Q 2781 519 3026 730 
Q 3272 941 3272 1375 
Q 3272 1813 3026 2020 
Q 2781 2228 2272 2228 
L 1259 2228 
z
M 1259 4147 
L 1259 2741 
L 2194 2741 
Q 2656 2741 2882 2914 
Q 3109 3088 3109 3444 
Q 3109 3797 2882 3972 
Q 2656 4147 2194 4147 
L 1259 4147 
z
M 628 4666 
L 2241 4666 
Q 2963 4666 3353 4366 
Q 3744 4066 3744 3513 
Q 3744 3084 3544 2831 
Q 3344 2578 2956 2516 
Q 3422 2416 3680 2098 
Q 3938 1781 3938 1306 
Q 3938 681 3513 340 
Q 3088 0 2303 0 
L 628 0 
L 628 4666 
z
" transform="scale(0.015625)"/>
       <path id="DejaVuSans-49" d="M 628 4666 
L 1259 4666 
L 1259 0 
L 628 0 
L 628 4666 
z
" transform="scale(0.015625)"/>
      </defs>
      <use xlink:href="#DejaVuSans-56"/>
      <use xlink:href="#DejaVuSans-50" x="68.408203"/>
      <use xlink:href="#DejaVuSans-55" x="128.710938"/>
      <use xlink:href="#DejaVuSans-4c" x="201.904297"/>
      <use xlink:href="#DejaVuSans-53" x="257.617188"/>
      <use xlink:href="#DejaVuSans-45" x="321.09375"/>
      <use xlink:href="#DejaVuSans-20" x="384.277344"/>
      <use xlink:href="#DejaVuSans-42" x="416.064453"/>
      <use xlink:href="#DejaVuSans-42" x="484.667969"/>
      <use xlink:href="#DejaVuSans-49" x="553.271484"/>
     </g>
    </g>
   </g>
   <g id="line2d_17">
    <path d="M 141.12 45.027377 
L 589.510656 45.136282 
L 589.994496 46.425538 
L 598.219776 69.006772 
L 605.638656 89.863624 
L 607.251456 94.440546 
L 609.057792 99.675885 
L 615.315456 119.532318 
L 616.605696 120.153414 
L 617.444352 120.545265 
L 618.476544 121.017085 
L 619.057152 121.272988 
L 619.928064 121.656841 
L 620.508672 121.912744 
L 621.347328 122.269941 
L 622.927872 122.936354 
L 623.572992 123.202919 
L 624.669696 123.629423 
L 625.411584 123.922644 
L 626.508288 124.349149 
L 627.411456 124.677024 
L 628.088832 124.943589 
L 628.895232 125.25547 
L 630.249984 125.804594 
L 632.894976 126.790885 
L 633.50784 127.022796 
L 635.4432 127.395987 
L 653.925888 127.289361 
L 654.15168 126.801547 
L 672.440832 75.087922 
L 676.182528 63.292417 
L 679.891968 51.617666 
L 684.504576 49.3412 
L 689.859072 46.984578 
L 698.568192 43.484472 
L 699.439104 43.268927 
L 713.728512 43.108189 
L 720.534528 43.184799 
L 735.888384 43.746186 
L 763.6608 44.46146 
L 789.30432 44.774399 
L 824.914944 44.945888 
L 872.944128 44.953885 
L 947.52 44.953885 
L 947.52 44.953885 
" clip-path="url(#p52179d133e)" style="fill: none; stroke: #ff0000; stroke-width: 2; stroke-linecap: square"/>
   </g>
   <g id="patch_4">
    <path d="M 100.8 131.611034 
L 100.8 38.88 
" style="fill: none; stroke: #bcbcbc; stroke-width: 0.8; stroke-linejoin: miter; stroke-linecap: square"/>
   </g>
   <g id="patch_5">
    <path d="M 987.84 131.611034 
L 987.84 38.88 
" style="fill: none; stroke: #bcbcbc; stroke-width: 0.8; stroke-linejoin: miter; stroke-linecap: square"/>
   </g>
   <g id="patch_6">
    <path d="M 100.8 131.611034 
L 987.84 131.611034 
" style="fill: none; stroke: #bcbcbc; stroke-width: 0.8; stroke-linejoin: miter; stroke-linecap: square"/>
   </g>
   <g id="patch_7">
    <path d="M 100.8 38.88 
L 987.84 38.88 
" style="fill: none; stroke: #bcbcbc; stroke-width: 0.8; stroke-linejoin: miter; stroke-linecap: square"/>
   </g>
  </g>
  <g id="axes_2">
   <g id="patch_8">
    <path d="M 100.8 242.888276 
L 987.84 242.888276 
L 987.84 150.157241 
L 100.8 150.157241 
z
" style="fill: #eeeeee"/>
   </g>
   <g id="matplotlib.axis_3">
    <g id="xtick_7">
     <g id="line2d_18">
      <path d="M 141.12 242.888276 
L 141.12 150.157241 
" clip-path="url(#pdf397971e8)" style="fill: none; stroke-dasharray: 1.85,0.8; stroke-dashoffset: 0; stroke: #b2b2b2; stroke-width: 0.5"/>
     </g>
     <g id="line2d_19">
      <g>
       <use xlink:href="#m3be8cd2aac" x="141.12" y="242.888276" style="stroke: #000000; stroke-width: 0.8"/>
      </g>
     </g>
    </g>
    <g id="xtick_8">
     <g id="line2d_20">
      <path d="M 302.4 242.888276 
L 302.4 150.157241 
" clip-path="url(#pdf397971e8)" style="fill: none; stroke-dasharray: 1.85,0.8; stroke-dashoffset: 0; stroke: #b2b2b2; stroke-width: 0.5"/>
     </g>
     <g id="line2d_21">
      <g>
       <use xlink:href="#m3be8cd2aac" x="302.4" y="242.888276" style="stroke: #000000; stroke-width: 0.8"/>
      </g>
     </g>
    </g>
    <g id="xtick_9">
     <g id="line2d_22">
      <path d="M 463.68 242.888276 
L 463.68 150.157241 
" clip-path="url(#pdf397971e8)" style="fill: none; stroke-dasharray: 1.85,0.8; stroke-dashoffset: 0; stroke: #b2b2b2; stroke-width: 0.5"/>
     </g>
     <g id="line2d_23">
      <g>
       <use xlink:href="#m3be8cd2aac" x="463.68" y="242.888276" style="stroke: #000000; stroke-width: 0.8"/>
      </g>
     </g>
    </g>
    <g id="xtick_10">
     <g id="line2d_24">
      <path d="M 624.96 242.888276 
L 624.96 150.157241 
" clip-path="url(#pdf397971e8)" style="fill: none; stroke-dasharray: 1.85,0.8; stroke-dashoffset: 0; stroke: #b2b2b2; stroke-width: 0.5"/>
     </g>
     <g id="line2d_25">
      <g>
       <use xlink:href="#m3be8cd2aac" x="624.96" y="242.888276" style="stroke: #000000; stroke-width: 0.8"/>
      </g>
     </g>
    </g>
    <g id="xtick_11">
     <g id="line2d_26">
      <path d="M 786.24 242.888276 
L 786.24 150.157241 
" clip-path="url(#pdf397971e8)" style="fill: none; stroke-dasharray: 1.85,0.8; stroke-dashoffset: 0; stroke: #b2b2b2; stroke-width: 0.5"/>
     </g>
     <g id="line2d_27">
      <g>
       <use xlink:href="#m3be8cd2aac" x="786.24" y="242.888276" style="stroke: #000000; stroke-width: 0.8"/>
      </g>
     </g>
    </g>
    <g id="xtick_12">
     <g id="line2d_28">
      <path d="M 947.52 242.888276 
L 947.52 150.157241 
" clip-path="url(#pdf397971e8)" style="fill: none; stroke-dasharray: 1.85,0.8; stroke-dashoffset: 0; stroke: #b2b2b2; stroke-width: 0.5"/>
     </g>
     <g id="line2d_29">
      <g>
       <use xlink:href="#m3be8cd2aac" x="947.52" y="242.888276" style="stroke: #000000; stroke-width: 0.8"/>
      </g>
     </g>
    </g>
   </g>
   <g id="matplotlib.axis_4">
    <g id="ytick_3">
     <g id="line2d_30">
      <path d="M 100.8 219.265596 
L 987.84 219.265596 
" clip-path="url(#pdf397971e8)" style="fill: none; stroke-dasharray: 1.85,0.8; stroke-dashoffset: 0; stroke: #b2b2b2; stroke-width: 0.5"/>
     </g>
     <g id="line2d_31">
      <g>
       <use xlink:href="#mfdeda7a0a5" x="100.8" y="219.265596" style="stroke: #000000; stroke-width: 0.8"/>
      </g>
     </g>
     <g id="text_4">
      <!-- 0 V -->
      <g transform="translate(74.36625 224.584502) scale(0.14 -0.14)">
       <use xlink:href="#DejaVuSans-30"/>
       <use xlink:href="#DejaVuSans-20" x="63.623047"/>
       <use xlink:href="#DejaVuSans-56" x="95.410156"/>
      </g>
     </g>
    </g>
    <g id="ytick_4">
     <g id="line2d_32">
      <path d="M 100.8 185.732469 
L 987.84 185.732469 
" clip-path="url(#pdf397971e8)" style="fill: none; stroke-dasharray: 1.85,0.8; stroke-dashoffset: 0; stroke: #b2b2b2; stroke-width: 0.5"/>
     </g>
     <g id="line2d_33">
      <g>
       <use xlink:href="#mfdeda7a0a5" x="100.8" y="185.732469" style="stroke: #000000; stroke-width: 0.8"/>
      </g>
     </g>
     <g id="text_5">
      <!-- 1 V -->
      <g transform="translate(74.36625 191.051375) scale(0.14 -0.14)">
       <defs>
        <path id="DejaVuSans-31" d="M 794 531 
L 1825 531 
L 1825 4091 
L 703 3866 
L 703 4441 
L 1819 4666 
L 2450 4666 
L 2450 531 
L 3481 531 
L 3481 0 
L 794 0 
L 794 531 
z
" transform="scale(0.015625)"/>
       </defs>
       <use xlink:href="#DejaVuSans-31"/>
       <use xlink:href="#DejaVuSans-20" x="63.623047"/>
       <use xlink:href="#DejaVuSans-56" x="95.410156"/>
      </g>
     </g>
    </g>
    <g id="ytick_5">
     <g id="line2d_34">
      <path d="M 100.8 152.199342 
L 987.84 152.199342 
" clip-path="url(#pdf397971e8)" style="fill: none; stroke-dasharray: 1.85,0.8; stroke-dashoffset: 0; stroke: #b2b2b2; stroke-width: 0.5"/>
     </g>
     <g id="line2d_35">
      <g>
       <use xlink:href="#mfdeda7a0a5" x="100.8" y="152.199342" style="stroke: #000000; stroke-width: 0.8"/>
      </g>
     </g>
     <g id="text_6">
      <!-- 2 V -->
      <g transform="translate(74.36625 157.518248) scale(0.14 -0.14)">
       <use xlink:href="#DejaVuSans-32"/>
       <use xlink:href="#DejaVuSans-20" x="63.623047"/>
       <use xlink:href="#DejaVuSans-56" x="95.410156"/>
      </g>
     </g>
    </g>
    <g id="text_7">
     <g id="patch_9">
      <path d="M 34.8768 224.531509 
L 34.8768 168.514009 
L 11.247425 168.514009 
L 11.247425 224.531509 
z
" style="fill: #ffff00; opacity: 0.2; stroke: #eeeeee; stroke-width: 0.5; stroke-linejoin: miter"/>
     </g>
     <!-- DFF IN -->
     <g transform="translate(26.925238 219.491509) rotate(-90) scale(0.14 -0.14)">
      <defs>
       <path id="DejaVuSans-44" d="M 1259 4147 
L 1259 519 
L 2022 519 
Q 2988 519 3436 956 
Q 3884 1394 3884 2338 
Q 3884 3275 3436 3711 
Q 2988 4147 2022 4147 
L 1259 4147 
z
M 628 4666 
L 1925 4666 
Q 3281 4666 3915 4102 
Q 4550 3538 4550 2338 
Q 4550 1131 3912 565 
Q 3275 0 1925 0 
L 628 0 
L 628 4666 
z
" transform="scale(0.015625)"/>
       <path id="DejaVuSans-46" d="M 628 4666 
L 3309 4666 
L 3309 4134 
L 1259 4134 
L 1259 2759 
L 3109 2759 
L 3109 2228 
L 1259 2228 
L 1259 0 
L 628 0 
L 628 4666 
z
" transform="scale(0.015625)"/>
       <path id="DejaVuSans-4e" d="M 628 4666 
L 1478 4666 
L 3547 763 
L 3547 4666 
L 4159 4666 
L 4159 0 
L 3309 0 
L 1241 3903 
L 1241 0 
L 628 0 
L 628 4666 
z
" transform="scale(0.015625)"/>
      </defs>
      <use xlink:href="#DejaVuSans-44"/>
      <use xlink:href="#DejaVuSans-46" x="77.001953"/>
      <use xlink:href="#DejaVuSans-46" x="134.521484"/>
      <use xlink:href="#DejaVuSans-20" x="192.041016"/>
      <use xlink:href="#DejaVuSans-49" x="223.828125"/>
      <use xlink:href="#DejaVuSans-4e" x="253.320312"/>
     </g>
    </g>
   </g>
   <g id="line2d_36">
    <path d="M 141.12 219.216624 
L 221.953536 219.17064 
L 224.437248 200.486374 
L 225.404928 194.802509 
L 228.243456 182.305383 
L 229.598208 181.051244 
L 231.178752 180.189443 
L 236.565504 179.740099 
L 243.661824 179.62944 
L 245.1456 179.585847 
L 248.403456 179.475187 
L 250.113024 179.408121 
L 252.177408 179.297462 
L 254.241792 178.972191 
L 254.757888 178.442367 
L 255.499776 178.107036 
L 256.370688 178.127156 
L 257.531904 178.358534 
L 259.98336 178.757578 
L 262.370304 178.895064 
L 263.886336 178.945364 
L 264.144384 184.116172 
L 264.434688 187.634468 
L 265.176576 192.321393 
L 267.144192 209.428989 
L 268.402176 215.852259 
L 269.079552 217.162063 
L 270.46656 218.85837 
L 273.724416 219.267407 
L 282.594816 219.221054 
L 297.110016 219.209851 
L 305.883648 219.21583 
L 347.751936 219.172314 
L 350.235648 200.525943 
L 351.622656 192.000816 
L 352.687104 186.678438 
L 354.97728 179.874232 
L 358.493184 178.888358 
L 360.235008 178.958777 
L 363.073536 179.069437 
L 364.396032 179.096263 
L 375.169536 179.166683 
L 375.717888 180.14585 
L 376.169472 180.886932 
L 377.008128 181.782267 
L 377.524224 181.731967 
L 378.427392 181.443582 
L 380.45952 180.306809 
L 381.58848 179.951358 
L 387.201024 179.478541 
L 389.65248 179.367881 
L 391.813632 179.253869 
L 394.555392 179.143209 
L 395.9424 179.109676 
L 415.392768 179.00237 
L 415.973376 178.385361 
L 416.844288 178.053383 
L 417.908736 178.157336 
L 419.16672 178.43566 
L 420.908544 178.687159 
L 424.00512 178.898418 
L 455.712768 178.999017 
L 456.809472 179.877585 
L 457.261056 179.948005 
L 458.712576 179.988244 
L 462.744576 179.458421 
L 464.16384 179.273989 
L 467.518464 179.035903 
L 496.065024 178.955424 
L 496.58112 178.422247 
L 497.258496 178.120449 
L 498.387456 178.113742 
L 502.06464 178.767638 
L 504.258048 178.885004 
L 536.352768 178.995664 
L 537.255936 179.790399 
L 537.901056 179.948005 
L 539.352576 179.988244 
L 544.449024 179.347762 
L 545.61024 179.216982 
L 548.803584 178.995664 
L 576.73728 178.915184 
L 577.253376 178.388714 
L 577.737216 178.160689 
L 578.382336 178.073503 
L 580.188672 178.371948 
L 582.575616 178.757578 
L 584.833536 178.881651 
L 589.4784 178.985604 
L 589.63968 179.186803 
L 591.768576 182.942513 
L 594.15552 186.221047 
L 598.800384 192.62688 
L 599.413248 194.580185 
L 601.703424 203.329983 
L 602.187264 205.52305 
L 603.122688 209.798859 
L 604.380672 214.548156 
L 606.316032 221.049626 
L 606.445056 221.413359 
L 606.993408 223.235583 
L 607.70304 224.869317 
L 608.251392 225.927623 
L 608.702976 226.368918 
L 608.896512 226.766621 
L 609.251328 227.806819 
L 609.79968 228.83025 
L 609.864192 228.908382 
L 610.638336 230.621925 
L 612.605952 234.186496 
L 613.6704 235.929548 
L 613.799424 236.070723 
L 614.089728 236.634079 
L 615.476736 238.65445 
L 615.573504 238.551168 
L 616.186368 237.676289 
L 616.541184 237.109579 
L 616.992768 236.250125 
L 617.089536 236.105933 
L 617.412096 235.706888 
L 618.153984 234.971172 
L 618.702336 234.072819 
L 618.960384 233.943717 
L 619.508736 233.519523 
L 620.60544 232.508834 
L 621.347328 231.567559 
L 621.379584 231.602769 
L 621.508608 231.595056 
L 622.024704 231.211773 
L 622.315008 231.031364 
L 623.443968 229.935837 
L 623.766528 229.343642 
L 624.089088 229.146132 
L 624.218112 229.168264 
L 626.25024 227.634794 
L 626.540544 227.254193 
L 626.959872 226.897736 
L 627.185664 226.750861 
L 630.991872 223.96124 
L 632.70144 222.674239 
L 633.411072 222.004045 
L 634.056192 221.576565 
L 635.12064 220.616881 
L 635.92704 219.637277 
L 638.313984 216.26304 
L 640.829952 212.995237 
L 641.346048 212.404718 
L 643.152384 210.426264 
L 643.732992 209.813614 
L 644.055552 209.068507 
L 646.474752 202.348133 
L 646.990848 201.441398 
L 648.700416 198.936473 
L 649.377792 198.081378 
L 650.313216 196.831263 
L 651.635712 195.341722 
L 652.248576 194.618748 
L 653.82912 193.230476 
L 654.054912 192.909229 
L 654.506496 191.45255 
L 655.667712 187.532527 
L 656.506368 185.53127 
L 657.732096 182.865387 
L 658.570752 180.977472 
L 659.248128 179.944651 
L 659.764224 179.55902 
L 661.054464 178.905124 
L 661.989888 177.879011 
L 662.473728 177.221761 
L 664.183296 174.73025 
L 665.247744 173.17096 
L 668.66688 168.389136 
L 671.602176 164.606599 
L 676.311552 158.557223 
L 677.763072 156.776614 
L 679.95648 154.425941 
L 680.666112 154.838399 
L 681.311232 155.053011 
L 682.182144 155.210617 
L 683.246592 155.428582 
L 689.181696 157.393623 
L 691.342848 158.174945 
L 692.21376 158.466683 
L 693.633024 158.9395 
L 697.632768 160.270765 
L 698.890752 165.50864 
L 699.213312 165.696425 
L 699.503616 165.659539 
L 699.826176 165.44828 
L 700.7616 164.422167 
L 701.503488 163.80851 
L 702.3744 163.473179 
L 702.922752 163.422879 
L 703.50336 163.469826 
L 706.08384 164.117015 
L 706.922496 164.351747 
L 708.793344 164.851391 
L 709.95456 165.220255 
L 710.825472 165.511993 
L 714.63168 166.809725 
L 715.341312 167.054517 
L 725.856768 170.220044 
L 726.534144 170.401123 
L 728.372736 170.860527 
L 732.340224 171.796101 
L 733.469184 172.034186 
L 734.533632 172.252152 
L 735.59808 172.47347 
L 736.178688 172.580776 
L 737.952768 172.872515 
L 738.436608 172.275625 
L 738.791424 172.087839 
L 739.339776 172.06772 
L 743.66208 173.754436 
L 744.500736 173.952281 
L 748.3392 174.643064 
L 749.081088 174.75037 
L 750.59712 174.954922 
L 751.468032 175.062228 
L 752.145408 175.159474 
L 753.080832 175.26678 
L 754.177536 175.387499 
L 755.241984 175.498159 
L 756.338688 175.618878 
L 757.338624 175.729537 
L 758.435328 175.846903 
L 759.693312 175.954209 
L 760.693248 176.054808 
L 761.822208 176.162114 
L 762.69312 176.239241 
L 763.305984 176.282834 
L 767.789568 176.638285 
L 769.273344 176.748944 
L 769.692672 176.769064 
L 770.27328 176.81601 
L 773.079552 176.997089 
L 773.756928 177.037329 
L 776.305152 177.194935 
L 777.079296 177.221761 
L 778.369536 177.45314 
L 778.756608 177.946077 
L 779.272704 178.288115 
L 779.724288 178.405481 
L 780.401664 178.439014 
L 780.91776 178.331708 
L 782.208 177.90919 
L 783.885312 177.671105 
L 785.240064 177.637572 
L 786.594816 177.671105 
L 787.36896 177.697932 
L 789.046272 177.761645 
L 789.820416 177.791824 
L 792.723456 177.902484 
L 794.110464 177.936017 
L 796.787712 178.046676 
L 798.239232 178.086916 
L 801.690624 178.194222 
L 802.271232 178.204282 
L 806.270976 178.314941 
L 807.69024 178.351828 
L 813.464064 178.459134 
L 814.109184 178.48596 
L 815.10912 178.492667 
L 818.689536 178.402127 
L 819.237888 177.845477 
L 819.721728 177.627512 
L 820.173312 177.597332 
L 821.044224 177.707992 
L 825.043968 178.428954 
L 827.20512 178.542966 
L 858.880512 178.650272 
L 859.041792 178.827998 
L 859.557888 179.341055 
L 859.94496 179.522134 
L 860.719104 179.656266 
L 862.815744 179.545607 
L 865.170432 179.166683 
L 870.26688 178.747519 
L 899.232768 178.663686 
L 899.78112 178.056736 
L 900.329472 177.785118 
L 902.264832 177.892424 
L 905.522688 178.459134 
L 907.68384 178.573146 
L 939.552768 178.663686 
L 940.617216 179.51878 
L 941.55264 179.703213 
L 943.488 179.592553 
L 946.455552 179.086203 
L 947.52 178.921891 
L 947.52 178.921891 
" clip-path="url(#pdf397971e8)" style="fill: none; stroke: #008000; stroke-width: 2; stroke-linecap: square"/>
   </g>
   <g id="patch_10">
    <path d="M 100.8 242.888276 
L 100.8 150.157241 
" style="fill: none; stroke: #bcbcbc; stroke-width: 0.8; stroke-linejoin: miter; stroke-linecap: square"/>
   </g>
   <g id="patch_11">
    <path d="M 987.84 242.888276 
L 987.84 150.157241 
" style="fill: none; stroke: #bcbcbc; stroke-width: 0.8; stroke-linejoin: miter; stroke-linecap: square"/>
   </g>
   <g id="patch_12">
    <path d="M 100.8 242.888276 
L 987.84 242.888276 
" style="fill: none; stroke: #bcbcbc; stroke-width: 0.8; stroke-linejoin: miter; stroke-linecap: square"/>
   </g>
   <g id="patch_13">
    <path d="M 100.8 150.157241 
L 987.84 150.157241 
" style="fill: none; stroke: #bcbcbc; stroke-width: 0.8; stroke-linejoin: miter; stroke-linecap: square"/>
   </g>
  </g>
  <g id="axes_3">
   <g id="patch_14">
    <path d="M 100.8 354.165517 
L 987.84 354.165517 
L 987.84 261.434483 
L 100.8 261.434483 
z
" style="fill: #eeeeee"/>
   </g>
   <g id="matplotlib.axis_5">
    <g id="xtick_13">
     <g id="line2d_37">
      <path d="M 141.12 354.165517 
L 141.12 261.434483 
" clip-path="url(#p7a1ec883bd)" style="fill: none; stroke-dasharray: 1.85,0.8; stroke-dashoffset: 0; stroke: #b2b2b2; stroke-width: 0.5"/>
     </g>
     <g id="line2d_38">
      <g>
       <use xlink:href="#m3be8cd2aac" x="141.12" y="354.165517" style="stroke: #000000; stroke-width: 0.8"/>
      </g>
     </g>
    </g>
    <g id="xtick_14">
     <g id="line2d_39">
      <path d="M 302.4 354.165517 
L 302.4 261.434483 
" clip-path="url(#p7a1ec883bd)" style="fill: none; stroke-dasharray: 1.85,0.8; stroke-dashoffset: 0; stroke: #b2b2b2; stroke-width: 0.5"/>
     </g>
     <g id="line2d_40">
      <g>
       <use xlink:href="#m3be8cd2aac" x="302.4" y="354.165517" style="stroke: #000000; stroke-width: 0.8"/>
      </g>
     </g>
    </g>
    <g id="xtick_15">
     <g id="line2d_41">
      <path d="M 463.68 354.165517 
L 463.68 261.434483 
" clip-path="url(#p7a1ec883bd)" style="fill: none; stroke-dasharray: 1.85,0.8; stroke-dashoffset: 0; stroke: #b2b2b2; stroke-width: 0.5"/>
     </g>
     <g id="line2d_42">
      <g>
       <use xlink:href="#m3be8cd2aac" x="463.68" y="354.165517" style="stroke: #000000; stroke-width: 0.8"/>
      </g>
     </g>
    </g>
    <g id="xtick_16">
     <g id="line2d_43">
      <path d="M 624.96 354.165517 
L 624.96 261.434483 
" clip-path="url(#p7a1ec883bd)" style="fill: none; stroke-dasharray: 1.85,0.8; stroke-dashoffset: 0; stroke: #b2b2b2; stroke-width: 0.5"/>
     </g>
     <g id="line2d_44">
      <g>
       <use xlink:href="#m3be8cd2aac" x="624.96" y="354.165517" style="stroke: #000000; stroke-width: 0.8"/>
      </g>
     </g>
    </g>
    <g id="xtick_17">
     <g id="line2d_45">
      <path d="M 786.24 354.165517 
L 786.24 261.434483 
" clip-path="url(#p7a1ec883bd)" style="fill: none; stroke-dasharray: 1.85,0.8; stroke-dashoffset: 0; stroke: #b2b2b2; stroke-width: 0.5"/>
     </g>
     <g id="line2d_46">
      <g>
       <use xlink:href="#m3be8cd2aac" x="786.24" y="354.165517" style="stroke: #000000; stroke-width: 0.8"/>
      </g>
     </g>
    </g>
    <g id="xtick_18">
     <g id="line2d_47">
      <path d="M 947.52 354.165517 
L 947.52 261.434483 
" clip-path="url(#p7a1ec883bd)" style="fill: none; stroke-dasharray: 1.85,0.8; stroke-dashoffset: 0; stroke: #b2b2b2; stroke-width: 0.5"/>
     </g>
     <g id="line2d_48">
      <g>
       <use xlink:href="#m3be8cd2aac" x="947.52" y="354.165517" style="stroke: #000000; stroke-width: 0.8"/>
      </g>
     </g>
    </g>
   </g>
   <g id="matplotlib.axis_6">
    <g id="ytick_6">
     <g id="line2d_49">
      <path d="M 100.8 345.621163 
L 987.84 345.621163 
" clip-path="url(#p7a1ec883bd)" style="fill: none; stroke-dasharray: 1.85,0.8; stroke-dashoffset: 0; stroke: #b2b2b2; stroke-width: 0.5"/>
     </g>
     <g id="line2d_50">
      <g>
       <use xlink:href="#mfdeda7a0a5" x="100.8" y="345.621163" style="stroke: #000000; stroke-width: 0.8"/>
      </g>
     </g>
     <g id="text_8">
      <!-- 0 V -->
      <g transform="translate(74.36625 350.940069) scale(0.14 -0.14)">
       <use xlink:href="#DejaVuSans-30"/>
       <use xlink:href="#DejaVuSans-20" x="63.623047"/>
       <use xlink:href="#DejaVuSans-56" x="95.410156"/>
      </g>
     </g>
    </g>
    <g id="ytick_7">
     <g id="line2d_51">
      <path d="M 100.8 304.124882 
L 987.84 304.124882 
" clip-path="url(#p7a1ec883bd)" style="fill: none; stroke-dasharray: 1.85,0.8; stroke-dashoffset: 0; stroke: #b2b2b2; stroke-width: 0.5"/>
     </g>
     <g id="line2d_52">
      <g>
       <use xlink:href="#mfdeda7a0a5" x="100.8" y="304.124882" style="stroke: #000000; stroke-width: 0.8"/>
      </g>
     </g>
     <g id="text_9">
      <!-- 1 V -->
      <g transform="translate(74.36625 309.443788) scale(0.14 -0.14)">
       <use xlink:href="#DejaVuSans-31"/>
       <use xlink:href="#DejaVuSans-20" x="63.623047"/>
       <use xlink:href="#DejaVuSans-56" x="95.410156"/>
      </g>
     </g>
    </g>
    <g id="ytick_8">
     <g id="line2d_53">
      <path d="M 100.8 262.6286 
L 987.84 262.6286 
" clip-path="url(#p7a1ec883bd)" style="fill: none; stroke-dasharray: 1.85,0.8; stroke-dashoffset: 0; stroke: #b2b2b2; stroke-width: 0.5"/>
     </g>
     <g id="line2d_54">
      <g>
       <use xlink:href="#mfdeda7a0a5" x="100.8" y="262.6286" style="stroke: #000000; stroke-width: 0.8"/>
      </g>
     </g>
     <g id="text_10">
      <!-- 2 V -->
      <g transform="translate(74.36625 267.947507) scale(0.14 -0.14)">
       <use xlink:href="#DejaVuSans-32"/>
       <use xlink:href="#DejaVuSans-20" x="63.623047"/>
       <use xlink:href="#DejaVuSans-56" x="95.410156"/>
      </g>
     </g>
    </g>
    <g id="text_11">
     <g id="patch_15">
      <path d="M 34.8768 342.395313 
L 34.8768 273.204688 
L 11.247425 273.204688 
L 11.247425 342.395313 
z
" style="fill: #ffff00; opacity: 0.2; stroke: #eeeeee; stroke-width: 0.5; stroke-linejoin: miter"/>
     </g>
     <!-- CLK BUF -->
     <g transform="translate(26.925238 337.355313) rotate(-90) scale(0.14 -0.14)">
      <defs>
       <path id="DejaVuSans-43" d="M 4122 4306 
L 4122 3641 
Q 3803 3938 3442 4084 
Q 3081 4231 2675 4231 
Q 1875 4231 1450 3742 
Q 1025 3253 1025 2328 
Q 1025 1406 1450 917 
Q 1875 428 2675 428 
Q 3081 428 3442 575 
Q 3803 722 4122 1019 
L 4122 359 
Q 3791 134 3420 21 
Q 3050 -91 2638 -91 
Q 1578 -91 968 557 
Q 359 1206 359 2328 
Q 359 3453 968 4101 
Q 1578 4750 2638 4750 
Q 3056 4750 3426 4639 
Q 3797 4528 4122 4306 
z
" transform="scale(0.015625)"/>
       <path id="DejaVuSans-4b" d="M 628 4666 
L 1259 4666 
L 1259 2694 
L 3353 4666 
L 4166 4666 
L 1850 2491 
L 4331 0 
L 3500 0 
L 1259 2247 
L 1259 0 
L 628 0 
L 628 4666 
z
" transform="scale(0.015625)"/>
      </defs>
      <use xlink:href="#DejaVuSans-43"/>
      <use xlink:href="#DejaVuSans-4c" x="69.824219"/>
      <use xlink:href="#DejaVuSans-4b" x="125.537109"/>
      <use xlink:href="#DejaVuSans-20" x="191.113281"/>
      <use xlink:href="#DejaVuSans-42" x="222.900391"/>
      <use xlink:href="#DejaVuSans-55" x="291.503906"/>
      <use xlink:href="#DejaVuSans-46" x="364.697266"/>
     </g>
    </g>
   </g>
   <g id="line2d_55">
    <path d="M 141.12 345.620066 
L 173.376 345.620066 
L 173.601792 295.825626 
L 213.696 295.825626 
L 213.760512 335.545451 
L 213.825024 345.602206 
L 213.889536 345.54249 
L 213.954048 345.708264 
L 214.01856 345.62566 
L 215.405568 345.616126 
L 223.759872 345.619983 
L 254.016 345.620037 
L 254.17728 295.672089 
L 254.241792 295.937666 
L 254.403072 295.817326 
L 254.854656 295.825626 
L 294.336 295.825626 
L 294.400512 335.510594 
L 294.465024 345.930813 
L 294.529536 345.209346 
L 294.626304 345.686375 
L 294.65856 345.656846 
L 294.884352 345.598183 
L 295.206912 345.636263 
L 295.497216 345.619743 
L 321.624576 345.620065 
L 334.656 345.620068 
L 334.81728 295.750932 
L 334.881792 295.842224 
L 335.204352 295.829775 
L 336.075264 295.825626 
L 374.976 295.825626 
L 375.040512 335.549186 
L 375.105024 345.621836 
L 375.169536 345.537229 
L 375.266304 345.689794 
L 375.29856 345.625798 
L 376.782336 345.615397 
L 385.362432 345.619985 
L 415.296 345.620068 
L 415.45728 295.672089 
L 415.521792 295.937666 
L 415.683072 295.813177 
L 416.650752 295.829775 
L 455.616 295.825626 
L 455.680512 335.513084 
L 455.745024 345.935925 
L 455.809536 345.017683 
L 455.906304 346.229997 
L 455.93856 345.688657 
L 456.132096 345.596241 
L 456.519168 345.620496 
L 491.226624 345.620065 
L 495.936 345.620066 
L 496.09728 295.742633 
L 496.161792 295.842224 
L 497.129472 295.825626 
L 536.256 295.825626 
L 536.320512 335.513084 
L 536.385024 345.935879 
L 536.449536 345.017766 
L 536.546304 346.229914 
L 536.57856 345.688653 
L 536.772096 345.596243 
L 537.159168 345.620496 
L 571.866624 345.620092 
L 576.576 345.620067 
L 576.73728 295.77168 
L 576.801792 295.784129 
L 576.930816 295.875421 
L 576.963072 295.817326 
L 577.898496 295.829775 
L 589.575168 295.933516 
L 591.220224 298.22826 
L 592.897536 301.02096 
L 599.80032 312.34903 
L 602.70336 316.628126 
L 605.832192 320.902658 
L 607.444992 322.935146 
L 608.702976 324.197878 
L 611.380224 326.495527 
L 613.928448 328.267833 
L 614.025216 328.347921 
L 614.251008 328.484029 
L 614.63808 328.729687 
L 615.379968 329.061657 
L 615.960576 328.735911 
L 616.347648 328.581545 
L 616.928256 328.359955 
L 617.089536 327.303875 
L 617.154048 327.954121 
L 617.283072 338.412014 
L 617.476608 349.906069 
L 617.508864 349.95047 
L 617.573376 349.891131 
L 617.960448 349.78656 
L 618.573312 349.577585 
L 623.250432 348.101562 
L 623.540736 348.016992 
L 630.733824 346.221946 
L 631.507968 346.077083 
L 637.120512 345.163003 
L 639.63648 345.059884 
L 639.79776 345.083122 
L 640.12032 345.074574 
L 649.79712 345.185618 
L 654.054912 345.137773 
L 654.700032 344.536367 
L 655.474176 344.140825 
L 656.506368 343.895665 
L 657.216 343.824997 
L 657.441792 304.682592 
L 658.699776 302.000272 
L 661.183488 296.833985 
L 663.82848 291.634501 
L 665.021952 289.422749 
L 669.118464 282.27294 
L 672.021504 277.629506 
L 672.795648 276.459311 
L 675.698688 271.815877 
L 676.311552 270.849014 
L 677.730816 268.687058 
L 678.956544 266.935915 
L 679.827456 265.769869 
L 681.278976 265.686876 
L 683.730432 266.42966 
L 685.27872 267.1019 
L 687.149568 267.931825 
L 687.568896 268.118559 
L 689.246208 268.857192 
L 691.72992 269.931946 
L 693.052416 270.487996 
L 697.536 272.218391 
L 697.729536 345.994236 
L 697.761792 346.011286 
L 697.794048 345.927509 
L 697.826304 345.843728 
L 697.890816 345.937224 
L 698.213376 345.93863 
L 708.0192 346.051231 
L 730.824192 345.868083 
L 735.565824 345.836288 
L 737.856 345.821233 
L 737.985024 287.953781 
L 738.081792 288.323098 
L 739.017216 288.551327 
L 739.662336 288.692415 
L 740.178432 288.800305 
L 740.823552 288.941392 
L 741.339648 289.049283 
L 741.984768 289.19037 
L 742.500864 289.298261 
L 743.145984 289.439348 
L 743.758848 289.547238 
L 744.403968 289.688326 
L 745.016832 289.796216 
L 745.565184 289.895807 
L 746.178048 290.003697 
L 746.7264 290.103288 
L 747.242496 290.211179 
L 747.790848 290.31077 
L 748.50048 290.41866 
L 749.048832 290.518251 
L 749.758464 290.621992 
L 750.11328 290.684236 
L 750.726144 290.787977 
L 751.08096 290.850221 
L 751.790592 290.953962 
L 752.145408 291.016207 
L 752.951808 291.119947 
L 753.306624 291.182192 
L 754.016256 291.285932 
L 754.371072 291.348177 
L 755.27424 291.451918 
L 755.629056 291.514162 
L 756.435456 291.617903 
L 756.790272 291.680147 
L 757.69344 291.783888 
L 757.951488 291.804636 
L 758.757888 291.908377 
L 759.112704 291.966471 
L 764.822016 292.593065 
L 765.821952 292.696806 
L 766.08 292.717554 
L 767.079936 292.821295 
L 767.337984 292.842043 
L 768.434688 292.945784 
L 768.692736 292.962382 
L 771.144192 293.169864 
L 772.20864 293.277754 
L 772.466688 293.298502 
L 773.853696 293.402243 
L 774.111744 293.422991 
L 775.498752 293.526732 
L 775.7568 293.54748 
L 776.272896 293.584826 
L 778.079232 293.709315 
L 778.176 293.709315 
L 778.208256 298.79261 
L 778.33728 345.690989 
L 778.563072 345.677694 
L 818.496 345.636239 
L 818.592768 295.228079 
L 818.721792 295.244678 
L 824.850432 295.352568 
L 825.10848 295.369166 
L 858.816 295.410663 
L 858.945024 345.938269 
L 859.106304 345.696728 
L 859.364352 345.604225 
L 859.719168 345.649396 
L 860.041728 345.631733 
L 899.136 345.63195 
L 899.29728 295.194882 
L 899.361792 295.66379 
L 899.45856 295.236378 
L 899.523072 295.394064 
L 900.006912 295.410663 
L 939.456 295.410663 
L 939.488256 302.892442 
L 939.61728 345.582631 
L 939.649536 345.703313 
L 939.714048 345.587839 
L 939.810816 345.604965 
L 940.004352 345.656779 
L 940.230144 345.630633 
L 945.842688 345.631952 
L 947.52 345.63194 
L 947.52 345.63194 
" clip-path="url(#p7a1ec883bd)" style="fill: none; stroke: #0000ff; stroke-width: 2; stroke-linecap: square"/>
   </g>
   <g id="patch_16">
    <path d="M 100.8 354.165517 
L 100.8 261.434483 
" style="fill: none; stroke: #bcbcbc; stroke-width: 0.8; stroke-linejoin: miter; stroke-linecap: square"/>
   </g>
   <g id="patch_17">
    <path d="M 987.84 354.165517 
L 987.84 261.434483 
" style="fill: none; stroke: #bcbcbc; stroke-width: 0.8; stroke-linejoin: miter; stroke-linecap: square"/>
   </g>
   <g id="patch_18">
    <path d="M 100.8 354.165517 
L 987.84 354.165517 
" style="fill: none; stroke: #bcbcbc; stroke-width: 0.8; stroke-linejoin: miter; stroke-linecap: square"/>
   </g>
   <g id="patch_19">
    <path d="M 100.8 261.434483 
L 987.84 261.434483 
" style="fill: none; stroke: #bcbcbc; stroke-width: 0.8; stroke-linejoin: miter; stroke-linecap: square"/>
   </g>
  </g>
  <g id="axes_4">
   <g id="patch_20">
    <path d="M 100.8 465.442759 
L 987.84 465.442759 
L 987.84 372.711724 
L 100.8 372.711724 
z
" style="fill: #eeeeee"/>
   </g>
   <g id="matplotlib.axis_7">
    <g id="xtick_19">
     <g id="line2d_56">
      <path d="M 141.12 465.442759 
L 141.12 372.711724 
" clip-path="url(#pe7f85999f7)" style="fill: none; stroke-dasharray: 1.85,0.8; stroke-dashoffset: 0; stroke: #b2b2b2; stroke-width: 0.5"/>
     </g>
     <g id="line2d_57">
      <g>
       <use xlink:href="#m3be8cd2aac" x="141.12" y="465.442759" style="stroke: #000000; stroke-width: 0.8"/>
      </g>
     </g>
    </g>
    <g id="xtick_20">
     <g id="line2d_58">
      <path d="M 302.4 465.442759 
L 302.4 372.711724 
" clip-path="url(#pe7f85999f7)" style="fill: none; stroke-dasharray: 1.85,0.8; stroke-dashoffset: 0; stroke: #b2b2b2; stroke-width: 0.5"/>
     </g>
     <g id="line2d_59">
      <g>
       <use xlink:href="#m3be8cd2aac" x="302.4" y="465.442759" style="stroke: #000000; stroke-width: 0.8"/>
      </g>
     </g>
    </g>
    <g id="xtick_21">
     <g id="line2d_60">
      <path d="M 463.68 465.442759 
L 463.68 372.711724 
" clip-path="url(#pe7f85999f7)" style="fill: none; stroke-dasharray: 1.85,0.8; stroke-dashoffset: 0; stroke: #b2b2b2; stroke-width: 0.5"/>
     </g>
     <g id="line2d_61">
      <g>
       <use xlink:href="#m3be8cd2aac" x="463.68" y="465.442759" style="stroke: #000000; stroke-width: 0.8"/>
      </g>
     </g>
    </g>
    <g id="xtick_22">
     <g id="line2d_62">
      <path d="M 624.96 465.442759 
L 624.96 372.711724 
" clip-path="url(#pe7f85999f7)" style="fill: none; stroke-dasharray: 1.85,0.8; stroke-dashoffset: 0; stroke: #b2b2b2; stroke-width: 0.5"/>
     </g>
     <g id="line2d_63">
      <g>
       <use xlink:href="#m3be8cd2aac" x="624.96" y="465.442759" style="stroke: #000000; stroke-width: 0.8"/>
      </g>
     </g>
    </g>
    <g id="xtick_23">
     <g id="line2d_64">
      <path d="M 786.24 465.442759 
L 786.24 372.711724 
" clip-path="url(#pe7f85999f7)" style="fill: none; stroke-dasharray: 1.85,0.8; stroke-dashoffset: 0; stroke: #b2b2b2; stroke-width: 0.5"/>
     </g>
     <g id="line2d_65">
      <g>
       <use xlink:href="#m3be8cd2aac" x="786.24" y="465.442759" style="stroke: #000000; stroke-width: 0.8"/>
      </g>
     </g>
    </g>
    <g id="xtick_24">
     <g id="line2d_66">
      <path d="M 947.52 465.442759 
L 947.52 372.711724 
" clip-path="url(#pe7f85999f7)" style="fill: none; stroke-dasharray: 1.85,0.8; stroke-dashoffset: 0; stroke: #b2b2b2; stroke-width: 0.5"/>
     </g>
     <g id="line2d_67">
      <g>
       <use xlink:href="#m3be8cd2aac" x="947.52" y="465.442759" style="stroke: #000000; stroke-width: 0.8"/>
      </g>
     </g>
    </g>
   </g>
   <g id="matplotlib.axis_8">
    <g id="ytick_9">
     <g id="line2d_68">
      <path d="M 100.8 456.164181 
L 987.84 456.164181 
" clip-path="url(#pe7f85999f7)" style="fill: none; stroke-dasharray: 1.85,0.8; stroke-dashoffset: 0; stroke: #b2b2b2; stroke-width: 0.5"/>
     </g>
     <g id="line2d_69">
      <g>
       <use xlink:href="#mfdeda7a0a5" x="100.8" y="456.164181" style="stroke: #000000; stroke-width: 0.8"/>
      </g>
     </g>
     <g id="text_12">
      <!-- −1 V -->
      <g transform="translate(62.634688 461.483087) scale(0.14 -0.14)">
       <use xlink:href="#DejaVuSans-2212"/>
       <use xlink:href="#DejaVuSans-31" x="83.789062"/>
       <use xlink:href="#DejaVuSans-20" x="147.412109"/>
       <use xlink:href="#DejaVuSans-56" x="179.199219"/>
      </g>
     </g>
    </g>
    <g id="ytick_10">
     <g id="line2d_70">
      <path d="M 100.8 422.785602 
L 987.84 422.785602 
" clip-path="url(#pe7f85999f7)" style="fill: none; stroke-dasharray: 1.85,0.8; stroke-dashoffset: 0; stroke: #b2b2b2; stroke-width: 0.5"/>
     </g>
     <g id="line2d_71">
      <g>
       <use xlink:href="#mfdeda7a0a5" x="100.8" y="422.785602" style="stroke: #000000; stroke-width: 0.8"/>
      </g>
     </g>
     <g id="text_13">
      <!-- 0 V -->
      <g transform="translate(74.36625 428.104508) scale(0.14 -0.14)">
       <use xlink:href="#DejaVuSans-30"/>
       <use xlink:href="#DejaVuSans-20" x="63.623047"/>
       <use xlink:href="#DejaVuSans-56" x="95.410156"/>
      </g>
     </g>
    </g>
    <g id="ytick_11">
     <g id="line2d_72">
      <path d="M 100.8 389.407022 
L 987.84 389.407022 
" clip-path="url(#pe7f85999f7)" style="fill: none; stroke-dasharray: 1.85,0.8; stroke-dashoffset: 0; stroke: #b2b2b2; stroke-width: 0.5"/>
     </g>
     <g id="line2d_73">
      <g>
       <use xlink:href="#mfdeda7a0a5" x="100.8" y="389.407022" style="stroke: #000000; stroke-width: 0.8"/>
      </g>
     </g>
     <g id="text_14">
      <!-- 1 V -->
      <g transform="translate(74.36625 394.725928) scale(0.14 -0.14)">
       <use xlink:href="#DejaVuSans-31"/>
       <use xlink:href="#DejaVuSans-20" x="63.623047"/>
       <use xlink:href="#DejaVuSans-56" x="95.410156"/>
      </g>
     </g>
    </g>
    <g id="text_15">
     <g id="patch_21">
      <path d="M 34.8768 454.693023 
L 34.8768 383.46146 
L 11.247425 383.46146 
L 11.247425 454.693023 
z
" style="fill: #ffff00; opacity: 0.2; stroke: #eeeeee; stroke-width: 0.5; stroke-linejoin: miter"/>
     </g>
     <!-- DFF OUT -->
     <g transform="translate(26.925238 449.653023) rotate(-90) scale(0.14 -0.14)">
      <defs>
       <path id="DejaVuSans-4f" d="M 2522 4238 
Q 1834 4238 1429 3725 
Q 1025 3213 1025 2328 
Q 1025 1447 1429 934 
Q 1834 422 2522 422 
Q 3209 422 3611 934 
Q 4013 1447 4013 2328 
Q 4013 3213 3611 3725 
Q 3209 4238 2522 4238 
z
M 2522 4750 
Q 3503 4750 4090 4092 
Q 4678 3434 4678 2328 
Q 4678 1225 4090 567 
Q 3503 -91 2522 -91 
Q 1538 -91 948 565 
Q 359 1222 359 2328 
Q 359 3434 948 4092 
Q 1538 4750 2522 4750 
z
" transform="scale(0.015625)"/>
       <path id="DejaVuSans-54" d="M -19 4666 
L 3928 4666 
L 3928 4134 
L 2272 4134 
L 2272 0 
L 1638 0 
L 1638 4134 
L -19 4134 
L -19 4666 
z
" transform="scale(0.015625)"/>
      </defs>
      <use xlink:href="#DejaVuSans-44"/>
      <use xlink:href="#DejaVuSans-46" x="77.001953"/>
      <use xlink:href="#DejaVuSans-46" x="134.521484"/>
      <use xlink:href="#DejaVuSans-20" x="192.041016"/>
      <use xlink:href="#DejaVuSans-4f" x="223.828125"/>
      <use xlink:href="#DejaVuSans-55" x="302.539062"/>
      <use xlink:href="#DejaVuSans-54" x="375.732422"/>
     </g>
    </g>
   </g>
   <g id="line2d_74">
    <path d="M 141.12 397.600462 
L 173.408256 397.641184 
L 173.440512 399.023057 
L 173.601792 422.787639 
L 174.214656 422.78465 
L 186.310656 422.784701 
L 254.048256 422.78611 
L 254.080512 422.919543 
L 254.112768 422.698827 
L 254.306304 419.440067 
L 254.628864 418.691385 
L 254.693376 418.320883 
L 255.14496 412.472956 
L 255.370752 398.728324 
L 255.596544 383.055078 
L 255.757824 382.781374 
L 256.015872 382.731306 
L 295.755264 382.798063 
L 296.239104 384.957657 
L 296.59392 384.416924 
L 297.980928 382.998335 
L 299.690496 382.754671 
L 334.720512 382.64786 
L 334.752768 383.138525 
L 334.785024 385.565148 
L 334.914048 422.771919 
L 334.97856 422.742543 
L 335.13984 422.778606 
L 335.591424 422.784828 
L 372.847104 422.784683 
L 415.328256 422.78609 
L 415.360512 422.919079 
L 415.392768 422.700676 
L 415.586304 419.362294 
L 415.876608 418.596256 
L 415.94112 418.07822 
L 416.521728 403.022478 
L 416.9088 382.841455 
L 417.102336 382.734644 
L 418.424832 382.704603 
L 419.747328 382.731306 
L 495.968256 382.744658 
L 496.000512 382.858145 
L 496.065024 382.704603 
L 496.387584 382.72463 
L 576.608256 382.744658 
L 576.640512 382.871496 
L 576.705024 382.714617 
L 577.188864 382.72463 
L 589.575168 382.814753 
L 591.220224 384.670602 
L 597.510144 393.315654 
L 598.058496 394.448856 
L 598.3488 395.279649 
L 598.381056 395.20655 
L 598.477824 395.365766 
L 601.542144 407.10568 
L 601.832448 408.189816 
L 601.864704 407.840009 
L 601.89696 408.436484 
L 601.929216 408.403773 
L 602.122752 409.396118 
L 604.96128 420.237714 
L 604.993536 419.680392 
L 605.058048 420.373899 
L 605.251584 421.200887 
L 606.219264 424.39238 
L 606.25152 424.159364 
L 606.445056 424.664715 
L 606.670848 425.773018 
L 607.05792 426.651509 
L 607.090176 426.548703 
L 607.122432 426.614125 
L 607.315968 427.201588 
L 607.348224 427.064402 
L 607.412736 427.185232 
L 607.444992 427.248651 
L 607.54176 427.742321 
L 607.574016 427.555734 
L 608.057856 428.867179 
L 608.541696 429.721003 
L 608.573952 429.475003 
L 608.638464 429.583817 
L 608.832 429.904251 
L 608.864256 429.970007 
L 609.025536 430.606203 
L 612.831744 437.813639 
L 612.960768 438.026929 
L 612.993024 461.227712 
L 613.057536 438.097357 
L 613.444608 438.86373 
L 615.379968 441.869471 
L 615.60576 441.694233 
L 615.896064 441.160176 
L 617.831424 438.301968 
L 617.86368 438.388085 
L 617.895936 438.203835 
L 618.67008 437.30495 
L 618.734592 437.23352 
L 618.766848 437.379384 
L 618.799104 437.183452 
L 619.186176 436.840654 
L 619.250688 436.835981 
L 619.411968 436.690116 
L 619.540992 436.592985 
L 619.766784 436.363006 
L 620.057088 435.942102 
L 620.089344 436.043573 
L 620.1216 435.865999 
L 620.186112 435.94544 
L 620.28288 435.695435 
L 620.315136 435.848642 
L 620.347392 435.634018 
L 620.44416 435.564591 
L 620.476416 435.724474 
L 620.508672 435.452105 
L 620.540928 435.651709 
L 620.669952 435.312249 
L 620.702208 435.445095 
L 620.734464 435.242487 
L 621.25056 434.795548 
L 621.282816 434.963109 
L 621.347328 434.722115 
L 621.379584 434.89268 
L 621.702144 434.470107 
L 622.282752 434.108617 
L 622.605312 433.605602 
L 622.798848 433.411672 
L 622.831104 433.463743 
L 622.86336 433.349588 
L 622.895616 433.372286 
L 623.056896 433.15399 
L 623.250432 432.952383 
L 623.282688 433.197048 
L 623.3472 432.866934 
L 623.379456 433.063534 
L 623.411712 432.940033 
L 623.540736 432.702711 
L 624.056832 432.32787 
L 624.089088 432.509783 
L 624.1536 432.286814 
L 624.185856 432.353571 
L 624.218112 432.215718 
L 624.250368 432.263449 
L 624.282624 432.293156 
L 624.31488 432.192019 
L 624.63744 432.061509 
L 625.185792 431.609563 
L 625.863168 430.692319 
L 625.895424 430.969028 
L 625.92768 430.616216 
L 625.959936 430.544786 
L 625.992192 430.566816 
L 626.024448 430.863218 
L 626.08896 430.725698 
L 626.153472 430.383568 
L 626.185728 430.409603 
L 626.217984 430.699329 
L 626.25024 430.338173 
L 626.282496 430.340175 
L 626.314752 430.482702 
L 626.347008 430.262737 
L 626.379264 430.450659 
L 626.476032 430.181293 
L 626.508288 430.447654 
L 626.5728 430.250387 
L 626.605056 430.316143 
L 626.73408 429.998045 
L 626.766336 430.149918 
L 626.830848 429.939966 
L 627.088896 429.972677 
L 627.21792 429.823475 
L 627.346944 429.784422 
L 627.572736 429.620533 
L 628.153344 429.066449 
L 628.314624 428.69094 
L 628.34688 428.940612 
L 628.411392 428.891211 
L 628.701696 428.312427 
L 628.895232 428.145534 
L 628.927488 428.482324 
L 628.992 428.214294 
L 629.024256 428.219968 
L 629.056512 427.978975 
L 629.088768 428.006679 
L 629.121024 428.344136 
L 629.15328 427.927906 
L 629.185536 427.935583 
L 629.250048 427.864486 
L 629.31456 428.207618 
L 629.443584 427.726299 
L 629.47584 427.745325 
L 629.508096 428.050405 
L 629.540352 427.737981 
L 629.604864 427.948934 
L 629.733888 427.581436 
L 629.766144 427.59679 
L 629.7984 427.771026 
L 629.830656 427.566082 
L 629.862912 427.563411 
L 630.701568 427.193243 
L 631.4112 426.624472 
L 631.57248 426.493628 
L 631.701504 425.967481 
L 631.89504 425.793579 
L 631.927296 426.17286 
L 631.959552 425.721915 
L 632.024064 426.130803 
L 632.153088 425.555089 
L 632.249856 425.53129 
L 632.314368 425.842913 
L 632.37888 425.685466 
L 632.411136 425.827058 
L 632.54016 425.353082 
L 632.959488 425.163458 
L 633.636864 424.892691 
L 634.862592 423.790297 
L 635.152896 423.412318 
L 635.217408 422.887042 
L 635.28192 423.007532 
L 635.346432 423.048274 
L 635.410944 422.818119 
L 635.4432 422.766938 
L 635.507712 422.817658 
L 635.60448 422.772115 
L 636.346368 421.682072 
L 636.539904 420.827581 
L 636.57216 421.332332 
L 636.636672 420.719501 
L 636.862464 420.560752 
L 636.926976 420.561453 
L 636.959232 420.740529 
L 637.023744 420.608684 
L 637.152768 420.455977 
L 638.055936 419.044864 
L 638.088192 418.410671 
L 638.18496 418.611276 
L 638.217216 418.746126 
L 638.249472 418.291843 
L 638.34624 418.351257 
L 638.443008 418.36828 
L 639.604224 416.580857 
L 639.63648 416.075172 
L 639.733248 416.12791 
L 639.765504 416.241063 
L 639.830016 416.128911 
L 643.894272 409.383768 
L 643.926528 409.068007 
L 644.023296 409.176487 
L 644.120064 409.06567 
L 645.152256 407.349677 
L 645.216768 406.617018 
L 645.249024 406.632706 
L 645.28128 407.188459 
L 645.345792 406.819292 
L 645.378048 406.616684 
L 645.44256 406.830974 
L 645.474816 406.85267 
L 645.507072 406.784244 
L 646.345728 405.513188 
L 648.442368 402.619599 
L 649.087488 401.782464 
L 649.571328 401.108884 
L 650.377728 400.246382 
L 650.60352 400.024414 
L 651.345408 399.038745 
L 651.506688 398.722984 
L 652.05504 398.226978 
L 652.474368 397.939922 
L 654.15168 396.080401 
L 654.893568 394.132428 
L 657.280512 390.130336 
L 657.312768 389.718444 
L 657.345024 390.060241 
L 657.69984 421.319481 
L 665.699328 421.521455 
L 673.892352 421.699262 
L 676.182528 421.678835 
L 679.827456 421.814519 
L 680.6016 422.397943 
L 681.440256 422.734179 
L 682.601472 422.954804 
L 684.569088 423.074507 
L 689.988096 423.092865 
L 700.084224 423.126864 
L 703.051776 423.172893 
L 737.888256 422.941283 
L 737.920512 423.198361 
L 738.243072 417.816199 
L 738.468864 416.774119 
L 738.630144 414.836493 
L 738.791424 409.378761 
L 738.98496 393.581013 
L 739.210752 377.056948 
L 739.372032 376.936785 
L 740.242944 377.093664 
L 740.92032 377.200476 
L 741.436416 377.293936 
L 742.081536 377.400747 
L 742.597632 377.494207 
L 743.242752 377.601018 
L 743.66208 377.6611 
L 744.3072 377.767911 
L 744.726528 377.827993 
L 745.468416 377.934804 
L 745.984512 378.028264 
L 746.823168 378.135076 
L 747.597312 378.261914 
L 748.468224 378.368726 
L 748.887552 378.428807 
L 749.726208 378.535619 
L 750.145536 378.5957 
L 750.984192 378.702512 
L 751.629312 378.795972 
L 752.629248 378.902783 
L 753.274368 378.996243 
L 754.274304 379.103055 
L 754.919424 379.193177 
L 765.692928 380.197872 
L 767.04768 380.304683 
L 767.596032 380.364765 
L 769.273344 380.471576 
L 769.724928 380.498279 
L 770.563584 380.565036 
L 772.176384 380.671848 
L 772.627968 380.698551 
L 774.30528 380.805362 
L 774.756864 380.832065 
L 776.627712 380.938876 
L 777.079296 380.965579 
L 779.046912 381.072391 
L 779.498496 381.099094 
L 780.240384 381.132472 
L 782.337024 381.239284 
L 782.788608 381.265986 
L 785.336832 381.372798 
L 785.788416 381.399501 
L 786.56256 381.429542 
L 789.497856 381.539691 
L 789.917184 381.563056 
L 793.271808 381.673205 
L 793.691136 381.69657 
L 797.5296 381.806719 
L 797.948928 381.830084 
L 802.464768 381.940234 
L 802.916352 381.966937 
L 803.81952 381.973612 
L 804.238848 381.996977 
L 809.915904 382.107127 
L 810.335232 382.130492 
L 817.560576 382.240641 
L 818.01216 382.267344 
L 818.528256 382.260668 
L 818.560512 382.420885 
L 818.625024 382.264006 
L 819.689472 382.264006 
L 827.721216 382.374155 
L 828.140544 382.39752 
L 899.168256 382.394182 
L 899.200512 382.564413 
L 899.265024 382.394182 
L 899.490816 382.380831 
L 899.877888 382.387507 
L 947.52 382.39752 
L 947.52 382.39752 
" clip-path="url(#pe7f85999f7)" style="fill: none; stroke: #ff00ff; stroke-width: 2; stroke-linecap: square"/>
   </g>
   <g id="patch_22">
    <path d="M 100.8 465.442759 
L 100.8 372.711724 
" style="fill: none; stroke: #bcbcbc; stroke-width: 0.8; stroke-linejoin: miter; stroke-linecap: square"/>
   </g>
   <g id="patch_23">
    <path d="M 987.84 465.442759 
L 987.84 372.711724 
" style="fill: none; stroke: #bcbcbc; stroke-width: 0.8; stroke-linejoin: miter; stroke-linecap: square"/>
   </g>
   <g id="patch_24">
    <path d="M 100.8 465.442759 
L 987.84 465.442759 
" style="fill: none; stroke: #bcbcbc; stroke-width: 0.8; stroke-linejoin: miter; stroke-linecap: square"/>
   </g>
   <g id="patch_25">
    <path d="M 100.8 372.711724 
L 987.84 372.711724 
" style="fill: none; stroke: #bcbcbc; stroke-width: 0.8; stroke-linejoin: miter; stroke-linecap: square"/>
   </g>
  </g>
  <g id="axes_5">
   <g id="patch_26">
    <path d="M 100.8 576.72 
L 987.84 576.72 
L 987.84 483.988966 
L 100.8 483.988966 
z
" style="fill: #eeeeee"/>
   </g>
   <g id="matplotlib.axis_9">
    <g id="xtick_25">
     <g id="line2d_75">
      <path d="M 141.12 576.72 
L 141.12 483.988966 
" clip-path="url(#pef632c4e08)" style="fill: none; stroke-dasharray: 1.85,0.8; stroke-dashoffset: 0; stroke: #b2b2b2; stroke-width: 0.5"/>
     </g>
     <g id="line2d_76">
      <g>
       <use xlink:href="#m3be8cd2aac" x="141.12" y="576.72" style="stroke: #000000; stroke-width: 0.8"/>
      </g>
     </g>
     <g id="text_16">
      <!-- 0 s -->
      <g transform="translate(130.795 590.857813) scale(0.14 -0.14)">
       <defs>
        <path id="DejaVuSans-73" d="M 2834 3397 
L 2834 2853 
Q 2591 2978 2328 3040 
Q 2066 3103 1784 3103 
Q 1356 3103 1142 2972 
Q 928 2841 928 2578 
Q 928 2378 1081 2264 
Q 1234 2150 1697 2047 
L 1894 2003 
Q 2506 1872 2764 1633 
Q 3022 1394 3022 966 
Q 3022 478 2636 193 
Q 2250 -91 1575 -91 
Q 1294 -91 989 -36 
Q 684 19 347 128 
L 347 722 
Q 666 556 975 473 
Q 1284 391 1588 391 
Q 1994 391 2212 530 
Q 2431 669 2431 922 
Q 2431 1156 2273 1281 
Q 2116 1406 1581 1522 
L 1381 1569 
Q 847 1681 609 1914 
Q 372 2147 372 2553 
Q 372 3047 722 3315 
Q 1072 3584 1716 3584 
Q 2034 3584 2315 3537 
Q 2597 3491 2834 3397 
z
" transform="scale(0.015625)"/>
       </defs>
       <use xlink:href="#DejaVuSans-30"/>
       <use xlink:href="#DejaVuSans-20" x="63.623047"/>
       <use xlink:href="#DejaVuSans-73" x="95.410156"/>
      </g>
     </g>
    </g>
    <g id="xtick_26">
     <g id="line2d_77">
      <path d="M 302.4 576.72 
L 302.4 483.988966 
" clip-path="url(#pef632c4e08)" style="fill: none; stroke-dasharray: 1.85,0.8; stroke-dashoffset: 0; stroke: #b2b2b2; stroke-width: 0.5"/>
     </g>
     <g id="line2d_78">
      <g>
       <use xlink:href="#m3be8cd2aac" x="302.4" y="576.72" style="stroke: #000000; stroke-width: 0.8"/>
      </g>
     </g>
     <g id="text_17">
      <!-- 50 ns -->
      <g transform="translate(283.185 590.857813) scale(0.14 -0.14)">
       <defs>
        <path id="DejaVuSans-35" d="M 691 4666 
L 3169 4666 
L 3169 4134 
L 1269 4134 
L 1269 2991 
Q 1406 3038 1543 3061 
Q 1681 3084 1819 3084 
Q 2600 3084 3056 2656 
Q 3513 2228 3513 1497 
Q 3513 744 3044 326 
Q 2575 -91 1722 -91 
Q 1428 -91 1123 -41 
Q 819 9 494 109 
L 494 744 
Q 775 591 1075 516 
Q 1375 441 1709 441 
Q 2250 441 2565 725 
Q 2881 1009 2881 1497 
Q 2881 1984 2565 2268 
Q 2250 2553 1709 2553 
Q 1456 2553 1204 2497 
Q 953 2441 691 2322 
L 691 4666 
z
" transform="scale(0.015625)"/>
        <path id="DejaVuSans-6e" d="M 3513 2113 
L 3513 0 
L 2938 0 
L 2938 2094 
Q 2938 2591 2744 2837 
Q 2550 3084 2163 3084 
Q 1697 3084 1428 2787 
Q 1159 2491 1159 1978 
L 1159 0 
L 581 0 
L 581 3500 
L 1159 3500 
L 1159 2956 
Q 1366 3272 1645 3428 
Q 1925 3584 2291 3584 
Q 2894 3584 3203 3211 
Q 3513 2838 3513 2113 
z
" transform="scale(0.015625)"/>
       </defs>
       <use xlink:href="#DejaVuSans-35"/>
       <use xlink:href="#DejaVuSans-30" x="63.623047"/>
       <use xlink:href="#DejaVuSans-20" x="127.246094"/>
       <use xlink:href="#DejaVuSans-6e" x="159.033203"/>
       <use xlink:href="#DejaVuSans-73" x="222.412109"/>
      </g>
     </g>
    </g>
    <g id="xtick_27">
     <g id="line2d_79">
      <path d="M 463.68 576.72 
L 463.68 483.988966 
" clip-path="url(#pef632c4e08)" style="fill: none; stroke-dasharray: 1.85,0.8; stroke-dashoffset: 0; stroke: #b2b2b2; stroke-width: 0.5"/>
     </g>
     <g id="line2d_80">
      <g>
       <use xlink:href="#m3be8cd2aac" x="463.68" y="576.72" style="stroke: #000000; stroke-width: 0.8"/>
      </g>
     </g>
     <g id="text_18">
      <!-- 100 ns -->
      <g transform="translate(440.01125 590.857813) scale(0.14 -0.14)">
       <use xlink:href="#DejaVuSans-31"/>
       <use xlink:href="#DejaVuSans-30" x="63.623047"/>
       <use xlink:href="#DejaVuSans-30" x="127.246094"/>
       <use xlink:href="#DejaVuSans-20" x="190.869141"/>
       <use xlink:href="#DejaVuSans-6e" x="222.65625"/>
       <use xlink:href="#DejaVuSans-73" x="286.035156"/>
      </g>
     </g>
    </g>
    <g id="xtick_28">
     <g id="line2d_81">
      <path d="M 624.96 576.72 
L 624.96 483.988966 
" clip-path="url(#pef632c4e08)" style="fill: none; stroke-dasharray: 1.85,0.8; stroke-dashoffset: 0; stroke: #b2b2b2; stroke-width: 0.5"/>
     </g>
     <g id="line2d_82">
      <g>
       <use xlink:href="#m3be8cd2aac" x="624.96" y="576.72" style="stroke: #000000; stroke-width: 0.8"/>
      </g>
     </g>
     <g id="text_19">
      <!-- 150 ns -->
      <g transform="translate(601.29125 590.857813) scale(0.14 -0.14)">
       <use xlink:href="#DejaVuSans-31"/>
       <use xlink:href="#DejaVuSans-35" x="63.623047"/>
       <use xlink:href="#DejaVuSans-30" x="127.246094"/>
       <use xlink:href="#DejaVuSans-20" x="190.869141"/>
       <use xlink:href="#DejaVuSans-6e" x="222.65625"/>
       <use xlink:href="#DejaVuSans-73" x="286.035156"/>
      </g>
     </g>
    </g>
    <g id="xtick_29">
     <g id="line2d_83">
      <path d="M 786.24 576.72 
L 786.24 483.988966 
" clip-path="url(#pef632c4e08)" style="fill: none; stroke-dasharray: 1.85,0.8; stroke-dashoffset: 0; stroke: #b2b2b2; stroke-width: 0.5"/>
     </g>
     <g id="line2d_84">
      <g>
       <use xlink:href="#m3be8cd2aac" x="786.24" y="576.72" style="stroke: #000000; stroke-width: 0.8"/>
      </g>
     </g>
     <g id="text_20">
      <!-- 200 ns -->
      <g transform="translate(762.57125 590.857813) scale(0.14 -0.14)">
       <use xlink:href="#DejaVuSans-32"/>
       <use xlink:href="#DejaVuSans-30" x="63.623047"/>
       <use xlink:href="#DejaVuSans-30" x="127.246094"/>
       <use xlink:href="#DejaVuSans-20" x="190.869141"/>
       <use xlink:href="#DejaVuSans-6e" x="222.65625"/>
       <use xlink:href="#DejaVuSans-73" x="286.035156"/>
      </g>
     </g>
    </g>
    <g id="xtick_30">
     <g id="line2d_85">
      <path d="M 947.52 576.72 
L 947.52 483.988966 
" clip-path="url(#pef632c4e08)" style="fill: none; stroke-dasharray: 1.85,0.8; stroke-dashoffset: 0; stroke: #b2b2b2; stroke-width: 0.5"/>
     </g>
     <g id="line2d_86">
      <g>
       <use xlink:href="#m3be8cd2aac" x="947.52" y="576.72" style="stroke: #000000; stroke-width: 0.8"/>
      </g>
     </g>
     <g id="text_21">
      <!-- 250 ns -->
      <g transform="translate(923.85125 590.857813) scale(0.14 -0.14)">
       <use xlink:href="#DejaVuSans-32"/>
       <use xlink:href="#DejaVuSans-35" x="63.623047"/>
       <use xlink:href="#DejaVuSans-30" x="127.246094"/>
       <use xlink:href="#DejaVuSans-20" x="190.869141"/>
       <use xlink:href="#DejaVuSans-6e" x="222.65625"/>
       <use xlink:href="#DejaVuSans-73" x="286.035156"/>
      </g>
     </g>
    </g>
    <g id="text_22">
     <!-- Time -->
     <g transform="translate(527.192969 608.407187) scale(0.14 -0.14)">
      <defs>
       <path id="DejaVuSans-69" d="M 603 3500 
L 1178 3500 
L 1178 0 
L 603 0 
L 603 3500 
z
M 603 4863 
L 1178 4863 
L 1178 4134 
L 603 4134 
L 603 4863 
z
" transform="scale(0.015625)"/>
       <path id="DejaVuSans-6d" d="M 3328 2828 
Q 3544 3216 3844 3400 
Q 4144 3584 4550 3584 
Q 5097 3584 5394 3201 
Q 5691 2819 5691 2113 
L 5691 0 
L 5113 0 
L 5113 2094 
Q 5113 2597 4934 2840 
Q 4756 3084 4391 3084 
Q 3944 3084 3684 2787 
Q 3425 2491 3425 1978 
L 3425 0 
L 2847 0 
L 2847 2094 
Q 2847 2600 2669 2842 
Q 2491 3084 2119 3084 
Q 1678 3084 1418 2786 
Q 1159 2488 1159 1978 
L 1159 0 
L 581 0 
L 581 3500 
L 1159 3500 
L 1159 2956 
Q 1356 3278 1631 3431 
Q 1906 3584 2284 3584 
Q 2666 3584 2933 3390 
Q 3200 3197 3328 2828 
z
" transform="scale(0.015625)"/>
       <path id="DejaVuSans-65" d="M 3597 1894 
L 3597 1613 
L 953 1613 
Q 991 1019 1311 708 
Q 1631 397 2203 397 
Q 2534 397 2845 478 
Q 3156 559 3463 722 
L 3463 178 
Q 3153 47 2828 -22 
Q 2503 -91 2169 -91 
Q 1331 -91 842 396 
Q 353 884 353 1716 
Q 353 2575 817 3079 
Q 1281 3584 2069 3584 
Q 2775 3584 3186 3129 
Q 3597 2675 3597 1894 
z
M 3022 2063 
Q 3016 2534 2758 2815 
Q 2500 3097 2075 3097 
Q 1594 3097 1305 2825 
Q 1016 2553 972 2059 
L 3022 2063 
z
" transform="scale(0.015625)"/>
      </defs>
      <use xlink:href="#DejaVuSans-54"/>
      <use xlink:href="#DejaVuSans-69" x="57.958984"/>
      <use xlink:href="#DejaVuSans-6d" x="85.742188"/>
      <use xlink:href="#DejaVuSans-65" x="183.154297"/>
     </g>
    </g>
   </g>
   <g id="matplotlib.axis_10">
    <g id="ytick_12">
     <g id="line2d_87">
      <path d="M 100.8 569.745885 
L 987.84 569.745885 
" clip-path="url(#pef632c4e08)" style="fill: none; stroke-dasharray: 1.85,0.8; stroke-dashoffset: 0; stroke: #b2b2b2; stroke-width: 0.5"/>
     </g>
     <g id="line2d_88">
      <g>
       <use xlink:href="#mfdeda7a0a5" x="100.8" y="569.745885" style="stroke: #000000; stroke-width: 0.8"/>
      </g>
     </g>
     <g id="text_23">
      <!-- 0 V -->
      <g transform="translate(74.36625 575.064792) scale(0.14 -0.14)">
       <use xlink:href="#DejaVuSans-30"/>
       <use xlink:href="#DejaVuSans-20" x="63.623047"/>
       <use xlink:href="#DejaVuSans-56" x="95.410156"/>
      </g>
     </g>
    </g>
    <g id="ytick_13">
     <g id="line2d_89">
      <path d="M 100.8 535.950348 
L 987.84 535.950348 
" clip-path="url(#pef632c4e08)" style="fill: none; stroke-dasharray: 1.85,0.8; stroke-dashoffset: 0; stroke: #b2b2b2; stroke-width: 0.5"/>
     </g>
     <g id="line2d_90">
      <g>
       <use xlink:href="#mfdeda7a0a5" x="100.8" y="535.950348" style="stroke: #000000; stroke-width: 0.8"/>
      </g>
     </g>
     <g id="text_24">
      <!-- 500 mV -->
      <g transform="translate(42.914375 541.269254) scale(0.14 -0.14)">
       <use xlink:href="#DejaVuSans-35"/>
       <use xlink:href="#DejaVuSans-30" x="63.623047"/>
       <use xlink:href="#DejaVuSans-30" x="127.246094"/>
       <use xlink:href="#DejaVuSans-20" x="190.869141"/>
       <use xlink:href="#DejaVuSans-6d" x="222.65625"/>
       <use xlink:href="#DejaVuSans-56" x="320.068359"/>
      </g>
     </g>
    </g>
    <g id="ytick_14">
     <g id="line2d_91">
      <path d="M 100.8 502.15481 
L 987.84 502.15481 
" clip-path="url(#pef632c4e08)" style="fill: none; stroke-dasharray: 1.85,0.8; stroke-dashoffset: 0; stroke: #b2b2b2; stroke-width: 0.5"/>
     </g>
     <g id="line2d_92">
      <g>
       <use xlink:href="#mfdeda7a0a5" x="100.8" y="502.15481" style="stroke: #000000; stroke-width: 0.8"/>
      </g>
     </g>
     <g id="text_25">
      <!-- 1 V -->
      <g transform="translate(74.36625 507.473717) scale(0.14 -0.14)">
       <use xlink:href="#DejaVuSans-31"/>
       <use xlink:href="#DejaVuSans-20" x="63.623047"/>
       <use xlink:href="#DejaVuSans-56" x="95.410156"/>
      </g>
     </g>
    </g>
    <g id="text_26">
     <g id="patch_27">
      <path d="M 34.8768 554.329483 
L 34.8768 506.379483 
L 11.247425 506.379483 
L 11.247425 554.329483 
z
" style="fill: #ffff00; opacity: 0.2; stroke: #eeeeee; stroke-width: 0.5; stroke-linejoin: miter"/>
     </g>
     <!-- FOUT -->
     <g transform="translate(26.925238 549.289483) rotate(-90) scale(0.14 -0.14)">
      <use xlink:href="#DejaVuSans-46"/>
      <use xlink:href="#DejaVuSans-4f" x="57.519531"/>
      <use xlink:href="#DejaVuSans-55" x="136.230469"/>
      <use xlink:href="#DejaVuSans-54" x="209.423828"/>
     </g>
    </g>
   </g>
   <g id="line2d_93">
    <path d="M 141.12 488.636595 
L 173.472768 488.643355 
L 173.505024 488.44734 
L 173.569536 526.789729 
L 173.69856 572.504953 
L 173.730816 572.3695 
L 173.827584 567.842115 
L 173.892096 569.3609 
L 174.053376 570.064192 
L 174.117888 569.946665 
L 174.408192 569.492054 
L 174.440448 569.54151 
L 174.66624 569.729954 
L 176.182272 569.740151 
L 180.117504 569.761449 
L 193.568256 569.752159 
L 212.954112 569.74401 
L 255.30624 569.743704 
L 255.6288 488.52845 
L 255.854592 488.670391 
L 256.209408 488.629836 
L 334.849536 488.650114 
L 334.881792 492.854278 
L 335.043072 572.18376 
L 335.107584 570.261206 
L 335.172096 568.338639 
L 335.236608 568.870108 
L 335.365632 570.783003 
L 335.430144 570.410083 
L 335.591424 569.797213 
L 335.881728 569.648439 
L 336.559104 569.817924 
L 337.107456 569.746143 
L 350.009856 569.744206 
L 416.489472 569.74333 
L 416.553984 567.480841 
L 416.812032 488.204013 
L 416.844288 488.339195 
L 416.973312 488.852887 
L 417.037824 488.778537 
L 417.39264 488.548727 
L 417.844224 488.717705 
L 418.457088 488.562245 
L 419.328 488.636595 
L 600.864768 488.582523 
L 600.92928 488.325676 
L 600.961536 489.467966 
L 601.058304 551.993765 
L 601.155072 569.924224 
L 601.187328 569.765784 
L 601.348608 569.744221 
L 606.89664 569.744207 
L 647.442432 569.743153 
L 647.474688 567.867529 
L 647.829504 488.643355 
L 657.441792 488.629836 
L 657.474048 488.386508 
L 657.53856 534.522824 
L 657.667584 569.750344 
L 658.086912 569.744206 
L 738.920448 569.633873 
L 738.952704 569.45302 
L 739.210752 488.724464 
L 739.372032 488.636595 
L 947.52 488.636595 
L 947.52 488.636595 
" clip-path="url(#pef632c4e08)" style="fill: none; stroke: #ff00ff; stroke-width: 2; stroke-linecap: square"/>
   </g>
   <g id="patch_28">
    <path d="M 100.8 576.72 
L 100.8 483.988966 
" style="fill: none; stroke: #bcbcbc; stroke-width: 0.8; stroke-linejoin: miter; stroke-linecap: square"/>
   </g>
   <g id="patch_29">
    <path d="M 987.84 576.72 
L 987.84 483.988966 
" style="fill: none; stroke: #bcbcbc; stroke-width: 0.8; stroke-linejoin: miter; stroke-linecap: square"/>
   </g>
   <g id="patch_30">
    <path d="M 100.8 576.72 
L 987.84 576.72 
" style="fill: none; stroke: #bcbcbc; stroke-width: 0.8; stroke-linejoin: miter; stroke-linecap: square"/>
   </g>
   <g id="patch_31">
    <path d="M 100.8 483.988966 
L 987.84 483.988966 
" style="fill: none; stroke: #bcbcbc; stroke-width: 0.8; stroke-linejoin: miter; stroke-linecap: square"/>
   </g>
  </g>
  <g id="axes_6">
   <g id="patch_32">
    <path d="M 201.6 628.56 
L 856.8 628.56 
L 856.8 615.6 
L 201.6 615.6 
z
" clip-path="url(#p98c39fb5b8)" style="fill: #d3d3d3"/>
   </g>
   <g id="patch_33">
    <path d="M 201.6 628.56 
L 777.24 628.56 
L 777.24 615.6 
L 201.6 615.6 
z
" clip-path="url(#p98c39fb5b8)" style="fill: #0000ff"/>
   </g>
   <g id="line2d_94">
    <path d="M 201.6 635.04 
L 201.6 609.12 
" clip-path="url(#pdc21693c5b)" style="fill: none; stroke: #ff0000; stroke-linecap: square"/>
   </g>
   <g id="line2d_95">
    <defs>
     <path id="m3963a5ba6f" d="M 0 5 
C 1.326016 5 2.597899 4.473168 3.535534 3.535534 
C 4.473168 2.597899 5 1.326016 5 0 
C 5 -1.326016 4.473168 -2.597899 3.535534 -3.535534 
C 2.597899 -4.473168 1.326016 -5 0 -5 
C -1.326016 -5 -2.597899 -4.473168 -3.535534 -3.535534 
C -4.473168 -2.597899 -5 -1.326016 -5 0 
C -5 1.326016 -4.473168 2.597899 -3.535534 3.535534 
C -2.597899 4.473168 -1.326016 5 0 5 
z
" style="stroke: #bfbfbf"/>
    </defs>
    <g>
     <use xlink:href="#m3963a5ba6f" x="777.24" y="622.08" style="fill: #ffffff; stroke: #bfbfbf"/>
    </g>
   </g>
   <g id="text_27">
    <!-- #Sweep -->
    <g transform="translate(138.622875 625.39125) scale(0.12 -0.12)">
     <defs>
      <path id="DejaVuSans-23" d="M 3272 2816 
L 2363 2816 
L 2100 1772 
L 3016 1772 
L 3272 2816 
z
M 2803 4594 
L 2478 3297 
L 3391 3297 
L 3719 4594 
L 4219 4594 
L 3897 3297 
L 4872 3297 
L 4872 2816 
L 3775 2816 
L 3519 1772 
L 4513 1772 
L 4513 1294 
L 3397 1294 
L 3072 0 
L 2572 0 
L 2894 1294 
L 1978 1294 
L 1656 0 
L 1153 0 
L 1478 1294 
L 494 1294 
L 494 1772 
L 1594 1772 
L 1856 2816 
L 850 2816 
L 850 3297 
L 1978 3297 
L 2297 4594 
L 2803 4594 
z
" transform="scale(0.015625)"/>
      <path id="DejaVuSans-77" d="M 269 3500 
L 844 3500 
L 1563 769 
L 2278 3500 
L 2956 3500 
L 3675 769 
L 4391 3500 
L 4966 3500 
L 4050 0 
L 3372 0 
L 2619 2869 
L 1863 0 
L 1184 0 
L 269 3500 
z
" transform="scale(0.015625)"/>
      <path id="DejaVuSans-70" d="M 1159 525 
L 1159 -1331 
L 581 -1331 
L 581 3500 
L 1159 3500 
L 1159 2969 
Q 1341 3281 1617 3432 
Q 1894 3584 2278 3584 
Q 2916 3584 3314 3078 
Q 3713 2572 3713 1747 
Q 3713 922 3314 415 
Q 2916 -91 2278 -91 
Q 1894 -91 1617 61 
Q 1341 213 1159 525 
z
M 3116 1747 
Q 3116 2381 2855 2742 
Q 2594 3103 2138 3103 
Q 1681 3103 1420 2742 
Q 1159 2381 1159 1747 
Q 1159 1113 1420 752 
Q 1681 391 2138 391 
Q 2594 391 2855 752 
Q 3116 1113 3116 1747 
z
" transform="scale(0.015625)"/>
     </defs>
     <use xlink:href="#DejaVuSans-23"/>
     <use xlink:href="#DejaVuSans-53" x="83.789062"/>
     <use xlink:href="#DejaVuSans-77" x="147.265625"/>
     <use xlink:href="#DejaVuSans-65" x="229.052734"/>
     <use xlink:href="#DejaVuSans-65" x="290.576172"/>
     <use xlink:href="#DejaVuSans-70" x="352.099609"/>
    </g>
   </g>
   <g id="text_28">
    <!-- $\mathdefault{123}$ -->
    <g transform="translate(869.904 625.39125) scale(0.12 -0.12)">
     <defs>
      <path id="DejaVuSans-33" d="M 2597 2516 
Q 3050 2419 3304 2112 
Q 3559 1806 3559 1356 
Q 3559 666 3084 287 
Q 2609 -91 1734 -91 
Q 1441 -91 1130 -33 
Q 819 25 488 141 
L 488 750 
Q 750 597 1062 519 
Q 1375 441 1716 441 
Q 2309 441 2620 675 
Q 2931 909 2931 1356 
Q 2931 1769 2642 2001 
Q 2353 2234 1838 2234 
L 1294 2234 
L 1294 2753 
L 1863 2753 
Q 2328 2753 2575 2939 
Q 2822 3125 2822 3475 
Q 2822 3834 2567 4026 
Q 2313 4219 1838 4219 
Q 1578 4219 1281 4162 
Q 984 4106 628 3988 
L 628 4550 
Q 988 4650 1302 4700 
Q 1616 4750 1894 4750 
Q 2613 4750 3031 4423 
Q 3450 4097 3450 3541 
Q 3450 3153 3228 2886 
Q 3006 2619 2597 2516 
z
" transform="scale(0.015625)"/>
     </defs>
     <use xlink:href="#DejaVuSans-31" transform="translate(0 0.78125)"/>
     <use xlink:href="#DejaVuSans-32" transform="translate(63.623047 0.78125)"/>
     <use xlink:href="#DejaVuSans-33" transform="translate(127.246094 0.78125)"/>
    </g>
   </g>
  </g>
  <g id="text_29">
   <!-- DFF under BBI sweep analysis (Sweep = 133E-9) -->
   <g transform="translate(308.25625 25.1175) scale(0.16 -0.16)">
    <defs>
     <path id="DejaVuSans-75" d="M 544 1381 
L 544 3500 
L 1119 3500 
L 1119 1403 
Q 1119 906 1312 657 
Q 1506 409 1894 409 
Q 2359 409 2629 706 
Q 2900 1003 2900 1516 
L 2900 3500 
L 3475 3500 
L 3475 0 
L 2900 0 
L 2900 538 
Q 2691 219 2414 64 
Q 2138 -91 1772 -91 
Q 1169 -91 856 284 
Q 544 659 544 1381 
z
M 1991 3584 
L 1991 3584 
z
" transform="scale(0.015625)"/>
     <path id="DejaVuSans-64" d="M 2906 2969 
L 2906 4863 
L 3481 4863 
L 3481 0 
L 2906 0 
L 2906 525 
Q 2725 213 2448 61 
Q 2172 -91 1784 -91 
Q 1150 -91 751 415 
Q 353 922 353 1747 
Q 353 2572 751 3078 
Q 1150 3584 1784 3584 
Q 2172 3584 2448 3432 
Q 2725 3281 2906 2969 
z
M 947 1747 
Q 947 1113 1208 752 
Q 1469 391 1925 391 
Q 2381 391 2643 752 
Q 2906 1113 2906 1747 
Q 2906 2381 2643 2742 
Q 2381 3103 1925 3103 
Q 1469 3103 1208 2742 
Q 947 2381 947 1747 
z
" transform="scale(0.015625)"/>
     <path id="DejaVuSans-72" d="M 2631 2963 
Q 2534 3019 2420 3045 
Q 2306 3072 2169 3072 
Q 1681 3072 1420 2755 
Q 1159 2438 1159 1844 
L 1159 0 
L 581 0 
L 581 3500 
L 1159 3500 
L 1159 2956 
Q 1341 3275 1631 3429 
Q 1922 3584 2338 3584 
Q 2397 3584 2469 3576 
Q 2541 3569 2628 3553 
L 2631 2963 
z
" transform="scale(0.015625)"/>
     <path id="DejaVuSans-61" d="M 2194 1759 
Q 1497 1759 1228 1600 
Q 959 1441 959 1056 
Q 959 750 1161 570 
Q 1363 391 1709 391 
Q 2188 391 2477 730 
Q 2766 1069 2766 1631 
L 2766 1759 
L 2194 1759 
z
M 3341 1997 
L 3341 0 
L 2766 0 
L 2766 531 
Q 2569 213 2275 61 
Q 1981 -91 1556 -91 
Q 1019 -91 701 211 
Q 384 513 384 1019 
Q 384 1609 779 1909 
Q 1175 2209 1959 2209 
L 2766 2209 
L 2766 2266 
Q 2766 2663 2505 2880 
Q 2244 3097 1772 3097 
Q 1472 3097 1187 3025 
Q 903 2953 641 2809 
L 641 3341 
Q 956 3463 1253 3523 
Q 1550 3584 1831 3584 
Q 2591 3584 2966 3190 
Q 3341 2797 3341 1997 
z
" transform="scale(0.015625)"/>
     <path id="DejaVuSans-6c" d="M 603 4863 
L 1178 4863 
L 1178 0 
L 603 0 
L 603 4863 
z
" transform="scale(0.015625)"/>
     <path id="DejaVuSans-79" d="M 2059 -325 
Q 1816 -950 1584 -1140 
Q 1353 -1331 966 -1331 
L 506 -1331 
L 506 -850 
L 844 -850 
Q 1081 -850 1212 -737 
Q 1344 -625 1503 -206 
L 1606 56 
L 191 3500 
L 800 3500 
L 1894 763 
L 2988 3500 
L 3597 3500 
L 2059 -325 
z
" transform="scale(0.015625)"/>
     <path id="DejaVuSans-28" d="M 1984 4856 
Q 1566 4138 1362 3434 
Q 1159 2731 1159 2009 
Q 1159 1288 1364 580 
Q 1569 -128 1984 -844 
L 1484 -844 
Q 1016 -109 783 600 
Q 550 1309 550 2009 
Q 550 2706 781 3412 
Q 1013 4119 1484 4856 
L 1984 4856 
z
" transform="scale(0.015625)"/>
     <path id="DejaVuSans-3d" d="M 678 2906 
L 4684 2906 
L 4684 2381 
L 678 2381 
L 678 2906 
z
M 678 1631 
L 4684 1631 
L 4684 1100 
L 678 1100 
L 678 1631 
z
" transform="scale(0.015625)"/>
     <path id="DejaVuSans-2d" d="M 313 2009 
L 1997 2009 
L 1997 1497 
L 313 1497 
L 313 2009 
z
" transform="scale(0.015625)"/>
     <path id="DejaVuSans-39" d="M 703 97 
L 703 672 
Q 941 559 1184 500 
Q 1428 441 1663 441 
Q 2288 441 2617 861 
Q 2947 1281 2994 2138 
Q 2813 1869 2534 1725 
Q 2256 1581 1919 1581 
Q 1219 1581 811 2004 
Q 403 2428 403 3163 
Q 403 3881 828 4315 
Q 1253 4750 1959 4750 
Q 2769 4750 3195 4129 
Q 3622 3509 3622 2328 
Q 3622 1225 3098 567 
Q 2575 -91 1691 -91 
Q 1453 -91 1209 -44 
Q 966 3 703 97 
z
M 1959 2075 
Q 2384 2075 2632 2365 
Q 2881 2656 2881 3163 
Q 2881 3666 2632 3958 
Q 2384 4250 1959 4250 
Q 1534 4250 1286 3958 
Q 1038 3666 1038 3163 
Q 1038 2656 1286 2365 
Q 1534 2075 1959 2075 
z
" transform="scale(0.015625)"/>
     <path id="DejaVuSans-29" d="M 513 4856 
L 1013 4856 
Q 1481 4119 1714 3412 
Q 1947 2706 1947 2009 
Q 1947 1309 1714 600 
Q 1481 -109 1013 -844 
L 513 -844 
Q 928 -128 1133 580 
Q 1338 1288 1338 2009 
Q 1338 2731 1133 3434 
Q 928 4138 513 4856 
z
" transform="scale(0.015625)"/>
    </defs>
    <use xlink:href="#DejaVuSans-44"/>
    <use xlink:href="#DejaVuSans-46" x="77.001953"/>
    <use xlink:href="#DejaVuSans-46" x="134.521484"/>
    <use xlink:href="#DejaVuSans-20" x="192.041016"/>
    <use xlink:href="#DejaVuSans-75" x="223.828125"/>
    <use xlink:href="#DejaVuSans-6e" x="287.207031"/>
    <use xlink:href="#DejaVuSans-64" x="350.585938"/>
    <use xlink:href="#DejaVuSans-65" x="414.0625"/>
    <use xlink:href="#DejaVuSans-72" x="475.585938"/>
    <use xlink:href="#DejaVuSans-20" x="516.699219"/>
    <use xlink:href="#DejaVuSans-42" x="548.486328"/>
    <use xlink:href="#DejaVuSans-42" x="617.089844"/>
    <use xlink:href="#DejaVuSans-49" x="685.693359"/>
    <use xlink:href="#DejaVuSans-20" x="715.185547"/>
    <use xlink:href="#DejaVuSans-73" x="746.972656"/>
    <use xlink:href="#DejaVuSans-77" x="799.072266"/>
    <use xlink:href="#DejaVuSans-65" x="880.859375"/>
    <use xlink:href="#DejaVuSans-65" x="942.382812"/>
    <use xlink:href="#DejaVuSans-70" x="1003.90625"/>
    <use xlink:href="#DejaVuSans-20" x="1067.382812"/>
    <use xlink:href="#DejaVuSans-61" x="1099.169922"/>
    <use xlink:href="#DejaVuSans-6e" x="1160.449219"/>
    <use xlink:href="#DejaVuSans-61" x="1223.828125"/>
    <use xlink:href="#DejaVuSans-6c" x="1285.107422"/>
    <use xlink:href="#DejaVuSans-79" x="1312.890625"/>
    <use xlink:href="#DejaVuSans-73" x="1372.070312"/>
    <use xlink:href="#DejaVuSans-69" x="1424.169922"/>
    <use xlink:href="#DejaVuSans-73" x="1451.953125"/>
    <use xlink:href="#DejaVuSans-20" x="1504.052734"/>
    <use xlink:href="#DejaVuSans-28" x="1535.839844"/>
    <use xlink:href="#DejaVuSans-53" x="1574.853516"/>
    <use xlink:href="#DejaVuSans-77" x="1638.330078"/>
    <use xlink:href="#DejaVuSans-65" x="1720.117188"/>
    <use xlink:href="#DejaVuSans-65" x="1781.640625"/>
    <use xlink:href="#DejaVuSans-70" x="1843.164062"/>
    <use xlink:href="#DejaVuSans-20" x="1906.640625"/>
    <use xlink:href="#DejaVuSans-3d" x="1938.427734"/>
    <use xlink:href="#DejaVuSans-20" x="2022.216797"/>
    <use xlink:href="#DejaVuSans-31" x="2054.003906"/>
    <use xlink:href="#DejaVuSans-33" x="2117.626953"/>
    <use xlink:href="#DejaVuSans-33" x="2181.25"/>
    <use xlink:href="#DejaVuSans-45" x="2244.873047"/>
    <use xlink:href="#DejaVuSans-2d" x="2308.056641"/>
    <use xlink:href="#DejaVuSans-39" x="2344.140625"/>
    <use xlink:href="#DejaVuSans-29" x="2407.763672"/>
   </g>
  </g>
 </g>
 <defs>
  <clipPath id="p52179d133e">
   <rect x="100.8" y="38.88" width="887.04" height="92.731034"/>
  </clipPath>
  <clipPath id="pdf397971e8">
   <rect x="100.8" y="150.157241" width="887.04" height="92.731034"/>
  </clipPath>
  <clipPath id="p7a1ec883bd">
   <rect x="100.8" y="261.434483" width="887.04" height="92.731034"/>
  </clipPath>
  <clipPath id="pe7f85999f7">
   <rect x="100.8" y="372.711724" width="887.04" height="92.731034"/>
  </clipPath>
  <clipPath id="pef632c4e08">
   <rect x="100.8" y="483.988966" width="887.04" height="92.731034"/>
  </clipPath>
  <clipPath id="p98c39fb5b8">
   <rect x="201.6" y="609.12" width="655.2" height="25.92"/>
  </clipPath>
  <clipPath id="pdc21693c5b">
   <path d="M 201.6 628.56 
L 856.8 628.56 
L 856.8 615.6 
L 201.6 615.6 
z
"/>
  </clipPath>
 </defs>
</svg>
