<?xml version="1.0" encoding="utf-8" standalone="no"?>
<!DOCTYPE svg PUBLIC "-//W3C//DTD SVG 1.1//EN"
  "http://www.w3.org/Graphics/SVG/1.1/DTD/svg11.dtd">
<svg xmlns:xlink="http://www.w3.org/1999/xlink" width="1008pt" height="648pt" viewBox="0 0 1008 648" xmlns="http://www.w3.org/2000/svg" version="1.1">
 <metadata>
  <rdf:RDF xmlns:dc="http://purl.org/dc/elements/1.1/" xmlns:cc="http://creativecommons.org/ns#" xmlns:rdf="http://www.w3.org/1999/02/22-rdf-syntax-ns#">
   <cc:Work>
    <dc:type rdf:resource="http://purl.org/dc/dcmitype/StillImage"/>
    <dc:date>2024-06-03T10:45:44.184765</dc:date>
    <dc:format>image/svg+xml</dc:format>
    <dc:creator>
     <cc:Agent>
      <dc:title>Matplotlib v3.9.0, https://matplotlib.org/</dc:title>
     </cc:Agent>
    </dc:creator>
   </cc:Work>
  </rdf:RDF>
 </metadata>
 <defs>
  <style type="text/css">*{stroke-linejoin: round; stroke-linecap: butt}</style>
 </defs>
 <g id="figure_1">
  <g id="patch_1">
   <path d="M 0 648 
L 1008 648 
L 1008 0 
L 0 0 
z
" style="fill: #ffffff"/>
  </g>
  <g id="axes_1">
   <g id="patch_2">
    <path d="M 100.8 131.611034 
L 987.84 131.611034 
L 987.84 38.88 
L 100.8 38.88 
z
" style="fill: #eeeeee"/>
   </g>
   <g id="matplotlib.axis_1">
    <g id="xtick_1">
     <g id="line2d_1">
      <path d="M 141.12 131.611034 
L 141.12 38.88 
" clip-path="url(#pcfaa9b8502)" style="fill: none; stroke-dasharray: 1.85,0.8; stroke-dashoffset: 0; stroke: #b2b2b2; stroke-width: 0.5"/>
     </g>
     <g id="line2d_2">
      <defs>
       <path id="m1f8c6a1ac4" d="M 0 0 
L 0 -3.5 
" style="stroke: #000000; stroke-width: 0.8"/>
      </defs>
      <g>
       <use xlink:href="#m1f8c6a1ac4" x="141.12" y="131.611034" style="stroke: #000000; stroke-width: 0.8"/>
      </g>
     </g>
    </g>
    <g id="xtick_2">
     <g id="line2d_3">
      <path d="M 302.4 131.611034 
L 302.4 38.88 
" clip-path="url(#pcfaa9b8502)" style="fill: none; stroke-dasharray: 1.85,0.8; stroke-dashoffset: 0; stroke: #b2b2b2; stroke-width: 0.5"/>
     </g>
     <g id="line2d_4">
      <g>
       <use xlink:href="#m1f8c6a1ac4" x="302.4" y="131.611034" style="stroke: #000000; stroke-width: 0.8"/>
      </g>
     </g>
    </g>
    <g id="xtick_3">
     <g id="line2d_5">
      <path d="M 463.68 131.611034 
L 463.68 38.88 
" clip-path="url(#pcfaa9b8502)" style="fill: none; stroke-dasharray: 1.85,0.8; stroke-dashoffset: 0; stroke: #b2b2b2; stroke-width: 0.5"/>
     </g>
     <g id="line2d_6">
      <g>
       <use xlink:href="#m1f8c6a1ac4" x="463.68" y="131.611034" style="stroke: #000000; stroke-width: 0.8"/>
      </g>
     </g>
    </g>
    <g id="xtick_4">
     <g id="line2d_7">
      <path d="M 624.96 131.611034 
L 624.96 38.88 
" clip-path="url(#pcfaa9b8502)" style="fill: none; stroke-dasharray: 1.85,0.8; stroke-dashoffset: 0; stroke: #b2b2b2; stroke-width: 0.5"/>
     </g>
     <g id="line2d_8">
      <g>
       <use xlink:href="#m1f8c6a1ac4" x="624.96" y="131.611034" style="stroke: #000000; stroke-width: 0.8"/>
      </g>
     </g>
    </g>
    <g id="xtick_5">
     <g id="line2d_9">
      <path d="M 786.24 131.611034 
L 786.24 38.88 
" clip-path="url(#pcfaa9b8502)" style="fill: none; stroke-dasharray: 1.85,0.8; stroke-dashoffset: 0; stroke: #b2b2b2; stroke-width: 0.5"/>
     </g>
     <g id="line2d_10">
      <g>
       <use xlink:href="#m1f8c6a1ac4" x="786.24" y="131.611034" style="stroke: #000000; stroke-width: 0.8"/>
      </g>
     </g>
    </g>
    <g id="xtick_6">
     <g id="line2d_11">
      <path d="M 947.52 131.611034 
L 947.52 38.88 
" clip-path="url(#pcfaa9b8502)" style="fill: none; stroke-dasharray: 1.85,0.8; stroke-dashoffset: 0; stroke: #b2b2b2; stroke-width: 0.5"/>
     </g>
     <g id="line2d_12">
      <g>
       <use xlink:href="#m1f8c6a1ac4" x="947.52" y="131.611034" style="stroke: #000000; stroke-width: 0.8"/>
      </g>
     </g>
    </g>
   </g>
   <g id="matplotlib.axis_2">
    <g id="ytick_1">
     <g id="line2d_13">
      <path d="M 100.8 98.340394 
L 987.84 98.340394 
" clip-path="url(#pcfaa9b8502)" style="fill: none; stroke-dasharray: 1.85,0.8; stroke-dashoffset: 0; stroke: #b2b2b2; stroke-width: 0.5"/>
     </g>
     <g id="line2d_14">
      <defs>
       <path id="m938e0a950e" d="M 0 0 
L 3.5 0 
" style="stroke: #000000; stroke-width: 0.8"/>
      </defs>
      <g>
       <use xlink:href="#m938e0a950e" x="100.8" y="98.340394" style="stroke: #000000; stroke-width: 0.8"/>
      </g>
     </g>
     <g id="text_1">
      <!-- −200 V -->
      <g transform="translate(44.819688 103.6593) scale(0.14 -0.14)">
       <defs>
        <path id="DejaVuSans-2212" d="M 678 2272 
L 4684 2272 
L 4684 1741 
L 678 1741 
L 678 2272 
z
" transform="scale(0.015625)"/>
        <path id="DejaVuSans-32" d="M 1228 531 
L 3431 531 
L 3431 0 
L 469 0 
L 469 531 
Q 828 903 1448 1529 
Q 2069 2156 2228 2338 
Q 2531 2678 2651 2914 
Q 2772 3150 2772 3378 
Q 2772 3750 2511 3984 
Q 2250 4219 1831 4219 
Q 1534 4219 1204 4116 
Q 875 4013 500 3803 
L 500 4441 
Q 881 4594 1212 4672 
Q 1544 4750 1819 4750 
Q 2544 4750 2975 4387 
Q 3406 4025 3406 3419 
Q 3406 3131 3298 2873 
Q 3191 2616 2906 2266 
Q 2828 2175 2409 1742 
Q 1991 1309 1228 531 
z
" transform="scale(0.015625)"/>
        <path id="DejaVuSans-30" d="M 2034 4250 
Q 1547 4250 1301 3770 
Q 1056 3291 1056 2328 
Q 1056 1369 1301 889 
Q 1547 409 2034 409 
Q 2525 409 2770 889 
Q 3016 1369 3016 2328 
Q 3016 3291 2770 3770 
Q 2525 4250 2034 4250 
z
M 2034 4750 
Q 2819 4750 3233 4129 
Q 3647 3509 3647 2328 
Q 3647 1150 3233 529 
Q 2819 -91 2034 -91 
Q 1250 -91 836 529 
Q 422 1150 422 2328 
Q 422 3509 836 4129 
Q 1250 4750 2034 4750 
z
" transform="scale(0.015625)"/>
        <path id="DejaVuSans-20" transform="scale(0.015625)"/>
        <path id="DejaVuSans-56" d="M 1831 0 
L 50 4666 
L 709 4666 
L 2188 738 
L 3669 4666 
L 4325 4666 
L 2547 0 
L 1831 0 
z
" transform="scale(0.015625)"/>
       </defs>
       <use xlink:href="#DejaVuSans-2212"/>
       <use xlink:href="#DejaVuSans-32" x="83.789062"/>
       <use xlink:href="#DejaVuSans-30" x="147.412109"/>
       <use xlink:href="#DejaVuSans-30" x="211.035156"/>
       <use xlink:href="#DejaVuSans-20" x="274.658203"/>
       <use xlink:href="#DejaVuSans-56" x="306.445312"/>
      </g>
     </g>
    </g>
    <g id="ytick_2">
     <g id="line2d_15">
      <path d="M 100.8 45.027377 
L 987.84 45.027377 
" clip-path="url(#pcfaa9b8502)" style="fill: none; stroke-dasharray: 1.85,0.8; stroke-dashoffset: 0; stroke: #b2b2b2; stroke-width: 0.5"/>
     </g>
     <g id="line2d_16">
      <g>
       <use xlink:href="#m938e0a950e" x="100.8" y="45.027377" style="stroke: #000000; stroke-width: 0.8"/>
      </g>
     </g>
     <g id="text_2">
      <!-- 0 V -->
      <g transform="translate(74.36625 50.346284) scale(0.14 -0.14)">
       <use xlink:href="#DejaVuSans-30"/>
       <use xlink:href="#DejaVuSans-20" x="63.623047"/>
       <use xlink:href="#DejaVuSans-56" x="95.410156"/>
      </g>
     </g>
    </g>
    <g id="text_3">
     <g id="patch_3">
      <path d="M 34.8768 131.080205 
L 34.8768 39.41083 
L 11.247425 39.41083 
L 11.247425 131.080205 
z
" style="fill: #ffff00; opacity: 0.2; stroke: #eeeeee; stroke-width: 0.5; stroke-linejoin: miter"/>
     </g>
     <!-- VPULSE BBI -->
     <g transform="translate(26.925238 126.040205) rotate(-90) scale(0.14 -0.14)">
      <defs>
       <path id="DejaVuSans-50" d="M 1259 4147 
L 1259 2394 
L 2053 2394 
Q 2494 2394 2734 2622 
Q 2975 2850 2975 3272 
Q 2975 3691 2734 3919 
Q 2494 4147 2053 4147 
L 1259 4147 
z
M 628 4666 
L 2053 4666 
Q 2838 4666 3239 4311 
Q 3641 3956 3641 3272 
Q 3641 2581 3239 2228 
Q 2838 1875 2053 1875 
L 1259 1875 
L 1259 0 
L 628 0 
L 628 4666 
z
" transform="scale(0.015625)"/>
       <path id="DejaVuSans-55" d="M 556 4666 
L 1191 4666 
L 1191 1831 
Q 1191 1081 1462 751 
Q 1734 422 2344 422 
Q 2950 422 3222 751 
Q 3494 1081 3494 1831 
L 3494 4666 
L 4128 4666 
L 4128 1753 
Q 4128 841 3676 375 
Q 3225 -91 2344 -91 
Q 1459 -91 1007 375 
Q 556 841 556 1753 
L 556 4666 
z
" transform="scale(0.015625)"/>
       <path id="DejaVuSans-4c" d="M 628 4666 
L 1259 4666 
L 1259 531 
L 3531 531 
L 3531 0 
L 628 0 
L 628 4666 
z
" transform="scale(0.015625)"/>
       <path id="DejaVuSans-53" d="M 3425 4513 
L 3425 3897 
Q 3066 4069 2747 4153 
Q 2428 4238 2131 4238 
Q 1616 4238 1336 4038 
Q 1056 3838 1056 3469 
Q 1056 3159 1242 3001 
Q 1428 2844 1947 2747 
L 2328 2669 
Q 3034 2534 3370 2195 
Q 3706 1856 3706 1288 
Q 3706 609 3251 259 
Q 2797 -91 1919 -91 
Q 1588 -91 1214 -16 
Q 841 59 441 206 
L 441 856 
Q 825 641 1194 531 
Q 1563 422 1919 422 
Q 2459 422 2753 634 
Q 3047 847 3047 1241 
Q 3047 1584 2836 1778 
Q 2625 1972 2144 2069 
L 1759 2144 
Q 1053 2284 737 2584 
Q 422 2884 422 3419 
Q 422 4038 858 4394 
Q 1294 4750 2059 4750 
Q 2388 4750 2728 4690 
Q 3069 4631 3425 4513 
z
" transform="scale(0.015625)"/>
       <path id="DejaVuSans-45" d="M 628 4666 
L 3578 4666 
L 3578 4134 
L 1259 4134 
L 1259 2753 
L 3481 2753 
L 3481 2222 
L 1259 2222 
L 1259 531 
L 3634 531 
L 3634 0 
L 628 0 
L 628 4666 
z
" transform="scale(0.015625)"/>
       <path id="DejaVuSans-42" d="M 1259 2228 
L 1259 519 
L 2272 519 
Q 2781 519 3026 730 
Q 3272 941 3272 1375 
Q 3272 1813 3026 2020 
Q 2781 2228 2272 2228 
L 1259 2228 
z
M 1259 4147 
L 1259 2741 
L 2194 2741 
Q 2656 2741 2882 2914 
Q 3109 3088 3109 3444 
Q 3109 3797 2882 3972 
Q 2656 4147 2194 4147 
L 1259 4147 
z
M 628 4666 
L 2241 4666 
Q 2963 4666 3353 4366 
Q 3744 4066 3744 3513 
Q 3744 3084 3544 2831 
Q 3344 2578 2956 2516 
Q 3422 2416 3680 2098 
Q 3938 1781 3938 1306 
Q 3938 681 3513 340 
Q 3088 0 2303 0 
L 628 0 
L 628 4666 
z
" transform="scale(0.015625)"/>
       <path id="DejaVuSans-49" d="M 628 4666 
L 1259 4666 
L 1259 0 
L 628 0 
L 628 4666 
z
" transform="scale(0.015625)"/>
      </defs>
      <use xlink:href="#DejaVuSans-56"/>
      <use xlink:href="#DejaVuSans-50" x="68.408203"/>
      <use xlink:href="#DejaVuSans-55" x="128.710938"/>
      <use xlink:href="#DejaVuSans-4c" x="201.904297"/>
      <use xlink:href="#DejaVuSans-53" x="257.617188"/>
      <use xlink:href="#DejaVuSans-45" x="321.09375"/>
      <use xlink:href="#DejaVuSans-20" x="384.277344"/>
      <use xlink:href="#DejaVuSans-42" x="416.064453"/>
      <use xlink:href="#DejaVuSans-42" x="484.667969"/>
      <use xlink:href="#DejaVuSans-49" x="553.271484"/>
     </g>
    </g>
   </g>
   <g id="line2d_17">
    <path d="M 141.12 45.027377 
L 412.102656 45.136282 
L 412.586496 46.425538 
L 420.811776 69.006772 
L 428.230656 89.863624 
L 429.843456 94.440546 
L 431.649792 99.673219 
L 435.13344 110.807642 
L 436.713984 115.853719 
L 437.939712 119.550977 
L 441.842688 121.36362 
L 442.423296 121.619522 
L 443.294208 122.003376 
L 443.939328 122.269941 
L 445.519872 122.936354 
L 446.164992 123.202919 
L 447.261696 123.629423 
L 448.003584 123.922644 
L 449.100288 124.349149 
L 450.003456 124.677024 
L 450.680832 124.943589 
L 451.487232 125.25547 
L 452.841984 125.804594 
L 455.486976 126.790885 
L 456.09984 127.022796 
L 458.0352 127.395987 
L 476.517888 127.289361 
L 476.74368 126.801547 
L 495.032832 75.087922 
L 498.774528 63.292417 
L 502.483968 51.617666 
L 507.096576 49.3412 
L 512.451072 46.984578 
L 521.160192 43.484472 
L 522.031104 43.268927 
L 536.320512 43.108189 
L 543.126528 43.184799 
L 558.480384 43.746186 
L 586.2528 44.46146 
L 611.89632 44.774399 
L 647.506944 44.945888 
L 695.536128 44.953885 
L 947.52 44.953885 
L 947.52 44.953885 
" clip-path="url(#pcfaa9b8502)" style="fill: none; stroke: #ff0000; stroke-width: 2; stroke-linecap: square"/>
   </g>
   <g id="patch_4">
    <path d="M 100.8 131.611034 
L 100.8 38.88 
" style="fill: none; stroke: #bcbcbc; stroke-width: 0.8; stroke-linejoin: miter; stroke-linecap: square"/>
   </g>
   <g id="patch_5">
    <path d="M 987.84 131.611034 
L 987.84 38.88 
" style="fill: none; stroke: #bcbcbc; stroke-width: 0.8; stroke-linejoin: miter; stroke-linecap: square"/>
   </g>
   <g id="patch_6">
    <path d="M 100.8 131.611034 
L 987.84 131.611034 
" style="fill: none; stroke: #bcbcbc; stroke-width: 0.8; stroke-linejoin: miter; stroke-linecap: square"/>
   </g>
   <g id="patch_7">
    <path d="M 100.8 38.88 
L 987.84 38.88 
" style="fill: none; stroke: #bcbcbc; stroke-width: 0.8; stroke-linejoin: miter; stroke-linecap: square"/>
   </g>
  </g>
  <g id="axes_2">
   <g id="patch_8">
    <path d="M 100.8 242.888276 
L 987.84 242.888276 
L 987.84 150.157241 
L 100.8 150.157241 
z
" style="fill: #eeeeee"/>
   </g>
   <g id="matplotlib.axis_3">
    <g id="xtick_7">
     <g id="line2d_18">
      <path d="M 141.12 242.888276 
L 141.12 150.157241 
" clip-path="url(#pb6be1bb0dc)" style="fill: none; stroke-dasharray: 1.85,0.8; stroke-dashoffset: 0; stroke: #b2b2b2; stroke-width: 0.5"/>
     </g>
     <g id="line2d_19">
      <g>
       <use xlink:href="#m1f8c6a1ac4" x="141.12" y="242.888276" style="stroke: #000000; stroke-width: 0.8"/>
      </g>
     </g>
    </g>
    <g id="xtick_8">
     <g id="line2d_20">
      <path d="M 302.4 242.888276 
L 302.4 150.157241 
" clip-path="url(#pb6be1bb0dc)" style="fill: none; stroke-dasharray: 1.85,0.8; stroke-dashoffset: 0; stroke: #b2b2b2; stroke-width: 0.5"/>
     </g>
     <g id="line2d_21">
      <g>
       <use xlink:href="#m1f8c6a1ac4" x="302.4" y="242.888276" style="stroke: #000000; stroke-width: 0.8"/>
      </g>
     </g>
    </g>
    <g id="xtick_9">
     <g id="line2d_22">
      <path d="M 463.68 242.888276 
L 463.68 150.157241 
" clip-path="url(#pb6be1bb0dc)" style="fill: none; stroke-dasharray: 1.85,0.8; stroke-dashoffset: 0; stroke: #b2b2b2; stroke-width: 0.5"/>
     </g>
     <g id="line2d_23">
      <g>
       <use xlink:href="#m1f8c6a1ac4" x="463.68" y="242.888276" style="stroke: #000000; stroke-width: 0.8"/>
      </g>
     </g>
    </g>
    <g id="xtick_10">
     <g id="line2d_24">
      <path d="M 624.96 242.888276 
L 624.96 150.157241 
" clip-path="url(#pb6be1bb0dc)" style="fill: none; stroke-dasharray: 1.85,0.8; stroke-dashoffset: 0; stroke: #b2b2b2; stroke-width: 0.5"/>
     </g>
     <g id="line2d_25">
      <g>
       <use xlink:href="#m1f8c6a1ac4" x="624.96" y="242.888276" style="stroke: #000000; stroke-width: 0.8"/>
      </g>
     </g>
    </g>
    <g id="xtick_11">
     <g id="line2d_26">
      <path d="M 786.24 242.888276 
L 786.24 150.157241 
" clip-path="url(#pb6be1bb0dc)" style="fill: none; stroke-dasharray: 1.85,0.8; stroke-dashoffset: 0; stroke: #b2b2b2; stroke-width: 0.5"/>
     </g>
     <g id="line2d_27">
      <g>
       <use xlink:href="#m1f8c6a1ac4" x="786.24" y="242.888276" style="stroke: #000000; stroke-width: 0.8"/>
      </g>
     </g>
    </g>
    <g id="xtick_12">
     <g id="line2d_28">
      <path d="M 947.52 242.888276 
L 947.52 150.157241 
" clip-path="url(#pb6be1bb0dc)" style="fill: none; stroke-dasharray: 1.85,0.8; stroke-dashoffset: 0; stroke: #b2b2b2; stroke-width: 0.5"/>
     </g>
     <g id="line2d_29">
      <g>
       <use xlink:href="#m1f8c6a1ac4" x="947.52" y="242.888276" style="stroke: #000000; stroke-width: 0.8"/>
      </g>
     </g>
    </g>
   </g>
   <g id="matplotlib.axis_4">
    <g id="ytick_3">
     <g id="line2d_30">
      <path d="M 100.8 219.284204 
L 987.84 219.284204 
" clip-path="url(#pb6be1bb0dc)" style="fill: none; stroke-dasharray: 1.85,0.8; stroke-dashoffset: 0; stroke: #b2b2b2; stroke-width: 0.5"/>
     </g>
     <g id="line2d_31">
      <g>
       <use xlink:href="#m938e0a950e" x="100.8" y="219.284204" style="stroke: #000000; stroke-width: 0.8"/>
      </g>
     </g>
     <g id="text_4">
      <!-- 0 V -->
      <g transform="translate(74.36625 224.60311) scale(0.14 -0.14)">
       <use xlink:href="#DejaVuSans-30"/>
       <use xlink:href="#DejaVuSans-20" x="63.623047"/>
       <use xlink:href="#DejaVuSans-56" x="95.410156"/>
      </g>
     </g>
    </g>
    <g id="ytick_4">
     <g id="line2d_32">
      <path d="M 100.8 185.732793 
L 987.84 185.732793 
" clip-path="url(#pb6be1bb0dc)" style="fill: none; stroke-dasharray: 1.85,0.8; stroke-dashoffset: 0; stroke: #b2b2b2; stroke-width: 0.5"/>
     </g>
     <g id="line2d_33">
      <g>
       <use xlink:href="#m938e0a950e" x="100.8" y="185.732793" style="stroke: #000000; stroke-width: 0.8"/>
      </g>
     </g>
     <g id="text_5">
      <!-- 1 V -->
      <g transform="translate(74.36625 191.051699) scale(0.14 -0.14)">
       <defs>
        <path id="DejaVuSans-31" d="M 794 531 
L 1825 531 
L 1825 4091 
L 703 3866 
L 703 4441 
L 1819 4666 
L 2450 4666 
L 2450 531 
L 3481 531 
L 3481 0 
L 794 0 
L 794 531 
z
" transform="scale(0.015625)"/>
       </defs>
       <use xlink:href="#DejaVuSans-31"/>
       <use xlink:href="#DejaVuSans-20" x="63.623047"/>
       <use xlink:href="#DejaVuSans-56" x="95.410156"/>
      </g>
     </g>
    </g>
    <g id="ytick_5">
     <g id="line2d_34">
      <path d="M 100.8 152.181381 
L 987.84 152.181381 
" clip-path="url(#pb6be1bb0dc)" style="fill: none; stroke-dasharray: 1.85,0.8; stroke-dashoffset: 0; stroke: #b2b2b2; stroke-width: 0.5"/>
     </g>
     <g id="line2d_35">
      <g>
       <use xlink:href="#m938e0a950e" x="100.8" y="152.181381" style="stroke: #000000; stroke-width: 0.8"/>
      </g>
     </g>
     <g id="text_6">
      <!-- 2 V -->
      <g transform="translate(74.36625 157.500287) scale(0.14 -0.14)">
       <use xlink:href="#DejaVuSans-32"/>
       <use xlink:href="#DejaVuSans-20" x="63.623047"/>
       <use xlink:href="#DejaVuSans-56" x="95.410156"/>
      </g>
     </g>
    </g>
    <g id="text_7">
     <g id="patch_9">
      <path d="M 34.8768 224.531509 
L 34.8768 168.514009 
L 11.247425 168.514009 
L 11.247425 224.531509 
z
" style="fill: #ffff00; opacity: 0.2; stroke: #eeeeee; stroke-width: 0.5; stroke-linejoin: miter"/>
     </g>
     <!-- DFF IN -->
     <g transform="translate(26.925238 219.491509) rotate(-90) scale(0.14 -0.14)">
      <defs>
       <path id="DejaVuSans-44" d="M 1259 4147 
L 1259 519 
L 2022 519 
Q 2988 519 3436 956 
Q 3884 1394 3884 2338 
Q 3884 3275 3436 3711 
Q 2988 4147 2022 4147 
L 1259 4147 
z
M 628 4666 
L 1925 4666 
Q 3281 4666 3915 4102 
Q 4550 3538 4550 2338 
Q 4550 1131 3912 565 
Q 3275 0 1925 0 
L 628 0 
L 628 4666 
z
" transform="scale(0.015625)"/>
       <path id="DejaVuSans-46" d="M 628 4666 
L 3309 4666 
L 3309 4134 
L 1259 4134 
L 1259 2759 
L 3109 2759 
L 3109 2228 
L 1259 2228 
L 1259 0 
L 628 0 
L 628 4666 
z
" transform="scale(0.015625)"/>
       <path id="DejaVuSans-4e" d="M 628 4666 
L 1478 4666 
L 3547 763 
L 3547 4666 
L 4159 4666 
L 4159 0 
L 3309 0 
L 1241 3903 
L 1241 0 
L 628 0 
L 628 4666 
z
" transform="scale(0.015625)"/>
      </defs>
      <use xlink:href="#DejaVuSans-44"/>
      <use xlink:href="#DejaVuSans-46" x="77.001953"/>
      <use xlink:href="#DejaVuSans-46" x="134.521484"/>
      <use xlink:href="#DejaVuSans-20" x="192.041016"/>
      <use xlink:href="#DejaVuSans-49" x="223.828125"/>
      <use xlink:href="#DejaVuSans-4e" x="253.320312"/>
     </g>
    </g>
   </g>
   <g id="line2d_36">
    <path d="M 141.12 219.235205 
L 221.953536 219.189196 
L 224.437248 200.494742 
L 225.404928 194.807778 
L 228.243456 182.303838 
L 229.598208 181.049016 
L 231.178752 180.186744 
L 236.565504 179.737155 
L 243.661824 179.626436 
L 245.1456 179.582819 
L 248.403456 179.472099 
L 250.113024 179.404996 
L 252.177408 179.294277 
L 254.241792 178.968828 
L 254.757888 178.438716 
L 255.499776 178.103202 
L 256.370688 178.123332 
L 257.531904 178.354837 
L 259.98336 178.754099 
L 262.370304 178.89166 
L 263.886336 178.941987 
L 264.144384 184.115614 
L 264.434688 187.635829 
L 265.176576 192.325309 
L 267.144192 209.442233 
L 268.402176 215.869006 
L 269.079552 217.179524 
L 270.46656 218.876755 
L 273.724416 219.286015 
L 282.594816 219.239637 
L 297.110016 219.228428 
L 305.883648 219.23441 
L 347.751936 219.19087 
L 350.235648 200.534333 
L 351.622656 192.004558 
L 352.687104 186.679278 
L 354.97728 179.871361 
L 358.493184 178.884949 
L 360.235008 178.955407 
L 363.073536 179.066127 
L 364.396032 179.092968 
L 375.169536 179.163426 
L 375.717888 180.143127 
L 376.169472 180.884614 
L 377.008128 181.780436 
L 377.524224 181.730109 
L 378.427392 181.441567 
L 380.45952 180.304174 
L 381.58848 179.948529 
L 387.201024 179.475454 
L 389.65248 179.364735 
L 391.845888 179.247305 
L 394.136064 179.136585 
L 395.490816 179.106389 
L 412.199424 179.200333 
L 414.683136 183.122493 
L 415.650816 184.253175 
L 416.521728 185.219456 
L 417.747456 186.925545 
L 421.26336 192.152184 
L 421.714944 193.51001 
L 423.68256 200.857433 
L 426.166272 211.569728 
L 427.521024 216.486788 
L 427.682304 216.900443 
L 428.101632 218.461154 
L 428.295168 218.948153 
L 429.553152 223.169122 
L 429.97248 223.997506 
L 430.166016 224.573584 
L 430.682112 225.699234 
L 431.004672 226.099502 
L 431.133696 226.27095 
L 431.714304 227.472426 
L 432.165888 228.475613 
L 432.488448 229.031895 
L 432.972288 230.105876 
L 433.488384 231.038605 
L 437.810688 238.413876 
L 438.133248 238.638 
L 438.746112 237.724395 
L 439.100928 237.239913 
L 439.584768 236.348787 
L 440.907264 234.673901 
L 441.165312 234.302486 
L 441.391104 234.170294 
L 441.616896 233.882758 
L 441.74592 233.80861 
L 443.229696 232.463534 
L 443.584512 231.862963 
L 443.939328 231.539863 
L 443.971584 231.588848 
L 444.100608 231.570395 
L 444.3264 231.3711 
L 444.64896 231.218441 
L 444.939264 231.028875 
L 446.035968 229.957243 
L 446.26176 229.626762 
L 446.487552 229.488866 
L 447.22944 228.974522 
L 447.616512 228.728926 
L 449.132544 227.300642 
L 449.32608 227.106044 
L 449.842176 226.716848 
L 450.390528 226.423944 
L 454.0032 223.666689 
L 454.583808 223.239915 
L 455.486976 222.541039 
L 456.228864 221.920372 
L 457.422336 220.932518 
L 458.583552 219.560245 
L 459.680256 218.045318 
L 464.841216 211.397274 
L 466.357248 209.778082 
L 466.776576 208.69672 
L 468.84096 202.942318 
L 469.905408 200.952384 
L 471.776256 198.367247 
L 473.131008 196.625258 
L 473.937408 195.708969 
L 474.80832 194.628614 
L 476.227584 193.387211 
L 476.646912 192.841666 
L 477.06624 191.525108 
L 478.388736 187.164096 
L 479.227392 185.263073 
L 480.29184 183.501624 
L 481.840128 181.441567 
L 488.097792 173.459686 
L 488.936448 172.35249 
L 492.194304 168.128367 
L 492.903936 167.232544 
L 496.032768 163.31374 
L 496.548864 160.052542 
L 497.097216 157.958934 
L 497.613312 156.737663 
L 498.258432 155.808289 
L 499.032576 155.23456 
L 499.613184 155.003055 
L 500.226048 155.050027 
L 501.129216 155.224494 
L 501.484032 155.076868 
L 501.935616 154.774905 
L 502.451712 154.392419 
L 503.580672 154.969504 
L 504.193536 155.110419 
L 504.903168 155.217784 
L 505.999872 155.449289 
L 506.709504 155.633821 
L 507.354624 155.845195 
L 510.999552 157.096663 
L 512.838144 157.744205 
L 515.644416 158.733972 
L 516.25728 158.931925 
L 522.22464 160.898038 
L 522.902016 161.257038 
L 523.83744 161.713337 
L 535.417344 166.41389 
L 536.352768 166.769535 
L 537.739776 171.043985 
L 537.997824 171.298975 
L 538.255872 171.265424 
L 538.578432 171.023854 
L 540.352512 169.503975 
L 541.287936 169.232208 
L 542.320128 169.235564 
L 545.255424 169.651601 
L 552.287232 171.225162 
L 553.641984 171.540546 
L 554.222592 171.651265 
L 563.254272 173.419425 
L 563.867136 173.526789 
L 566.25408 173.919341 
L 566.673408 173.976378 
L 567.124992 174.050191 
L 569.47968 174.405836 
L 570.995712 174.6105 
L 571.705344 174.717864 
L 573.02784 174.882266 
L 576.73728 175.194294 
L 577.124352 174.744705 
L 577.833984 174.432677 
L 578.930688 174.657472 
L 580.28544 175.194294 
L 580.866048 175.375472 
L 585.12384 176.150509 
L 592.22016 176.777921 
L 592.86528 176.821538 
L 595.671552 177.002715 
L 596.348928 177.042977 
L 598.897152 177.200669 
L 599.671296 177.230865 
L 602.090496 177.371781 
L 602.832384 177.401977 
L 604.8 177.495921 
L 607.154688 177.606641 
L 607.574016 177.623416 
L 610.315776 177.734136 
L 611.928576 177.794529 
L 612.70272 177.824725 
L 615.863808 177.932089 
L 616.283136 177.955575 
L 617.05728 178.066295 
L 617.54112 178.640024 
L 618.18624 178.982249 
L 619.15392 179.076193 
L 619.928064 178.89166 
L 621.08928 178.525949 
L 621.992448 178.358192 
L 622.798848 178.2978 
L 623.605248 178.274314 
L 624.669696 178.270959 
L 625.92768 178.291089 
L 632.507904 178.401809 
L 633.8304 178.432005 
L 634.701312 178.448781 
L 635.92704 178.465557 
L 642.53952 178.576276 
L 643.732992 178.589697 
L 657.409536 178.519239 
L 657.893376 178.029388 
L 658.50624 177.777753 
L 659.731968 177.750912 
L 661.054464 178.049519 
L 663.473664 178.442071 
L 665.731584 178.566211 
L 697.632768 178.660155 
L 698.568192 179.48552 
L 699.503616 179.663342 
L 701.600256 179.555978 
L 703.922688 179.183557 
L 709.373952 178.727258 
L 737.952768 178.660155 
L 738.50112 178.052874 
L 739.049472 177.781108 
L 740.984832 177.888473 
L 744.242688 178.455491 
L 746.40384 178.569566 
L 778.272768 178.660155 
L 779.208192 179.48552 
L 780.143616 179.663342 
L 782.272512 179.552623 
L 784.594944 179.180202 
L 790.013952 178.727258 
L 818.592768 178.660155 
L 819.14112 178.052874 
L 819.689472 177.781108 
L 821.624832 177.888473 
L 824.882688 178.455491 
L 827.04384 178.569566 
L 858.912768 178.660155 
L 859.848192 179.48552 
L 860.783616 179.663342 
L 862.912512 179.552623 
L 865.202688 179.186912 
L 870.718464 178.723903 
L 899.265024 178.613183 
L 899.78112 178.052874 
L 900.329472 177.781108 
L 902.264832 177.888473 
L 905.522688 178.455491 
L 907.68384 178.569566 
L 939.552768 178.660155 
L 940.617216 179.515716 
L 941.55264 179.700249 
L 943.488 179.589529 
L 946.455552 179.082903 
L 947.52 178.918501 
L 947.52 178.918501 
" clip-path="url(#pb6be1bb0dc)" style="fill: none; stroke: #008000; stroke-width: 2; stroke-linecap: square"/>
   </g>
   <g id="patch_10">
    <path d="M 100.8 242.888276 
L 100.8 150.157241 
" style="fill: none; stroke: #bcbcbc; stroke-width: 0.8; stroke-linejoin: miter; stroke-linecap: square"/>
   </g>
   <g id="patch_11">
    <path d="M 987.84 242.888276 
L 987.84 150.157241 
" style="fill: none; stroke: #bcbcbc; stroke-width: 0.8; stroke-linejoin: miter; stroke-linecap: square"/>
   </g>
   <g id="patch_12">
    <path d="M 100.8 242.888276 
L 987.84 242.888276 
" style="fill: none; stroke: #bcbcbc; stroke-width: 0.8; stroke-linejoin: miter; stroke-linecap: square"/>
   </g>
   <g id="patch_13">
    <path d="M 100.8 150.157241 
L 987.84 150.157241 
" style="fill: none; stroke: #bcbcbc; stroke-width: 0.8; stroke-linejoin: miter; stroke-linecap: square"/>
   </g>
  </g>
  <g id="axes_3">
   <g id="patch_14">
    <path d="M 100.8 354.165517 
L 987.84 354.165517 
L 987.84 261.434483 
L 100.8 261.434483 
z
" style="fill: #eeeeee"/>
   </g>
   <g id="matplotlib.axis_5">
    <g id="xtick_13">
     <g id="line2d_37">
      <path d="M 141.12 354.165517 
L 141.12 261.434483 
" clip-path="url(#p809d302dfd)" style="fill: none; stroke-dasharray: 1.85,0.8; stroke-dashoffset: 0; stroke: #b2b2b2; stroke-width: 0.5"/>
     </g>
     <g id="line2d_38">
      <g>
       <use xlink:href="#m1f8c6a1ac4" x="141.12" y="354.165517" style="stroke: #000000; stroke-width: 0.8"/>
      </g>
     </g>
    </g>
    <g id="xtick_14">
     <g id="line2d_39">
      <path d="M 302.4 354.165517 
L 302.4 261.434483 
" clip-path="url(#p809d302dfd)" style="fill: none; stroke-dasharray: 1.85,0.8; stroke-dashoffset: 0; stroke: #b2b2b2; stroke-width: 0.5"/>
     </g>
     <g id="line2d_40">
      <g>
       <use xlink:href="#m1f8c6a1ac4" x="302.4" y="354.165517" style="stroke: #000000; stroke-width: 0.8"/>
      </g>
     </g>
    </g>
    <g id="xtick_15">
     <g id="line2d_41">
      <path d="M 463.68 354.165517 
L 463.68 261.434483 
" clip-path="url(#p809d302dfd)" style="fill: none; stroke-dasharray: 1.85,0.8; stroke-dashoffset: 0; stroke: #b2b2b2; stroke-width: 0.5"/>
     </g>
     <g id="line2d_42">
      <g>
       <use xlink:href="#m1f8c6a1ac4" x="463.68" y="354.165517" style="stroke: #000000; stroke-width: 0.8"/>
      </g>
     </g>
    </g>
    <g id="xtick_16">
     <g id="line2d_43">
      <path d="M 624.96 354.165517 
L 624.96 261.434483 
" clip-path="url(#p809d302dfd)" style="fill: none; stroke-dasharray: 1.85,0.8; stroke-dashoffset: 0; stroke: #b2b2b2; stroke-width: 0.5"/>
     </g>
     <g id="line2d_44">
      <g>
       <use xlink:href="#m1f8c6a1ac4" x="624.96" y="354.165517" style="stroke: #000000; stroke-width: 0.8"/>
      </g>
     </g>
    </g>
    <g id="xtick_17">
     <g id="line2d_45">
      <path d="M 786.24 354.165517 
L 786.24 261.434483 
" clip-path="url(#p809d302dfd)" style="fill: none; stroke-dasharray: 1.85,0.8; stroke-dashoffset: 0; stroke: #b2b2b2; stroke-width: 0.5"/>
     </g>
     <g id="line2d_46">
      <g>
       <use xlink:href="#m1f8c6a1ac4" x="786.24" y="354.165517" style="stroke: #000000; stroke-width: 0.8"/>
      </g>
     </g>
    </g>
    <g id="xtick_18">
     <g id="line2d_47">
      <path d="M 947.52 354.165517 
L 947.52 261.434483 
" clip-path="url(#p809d302dfd)" style="fill: none; stroke-dasharray: 1.85,0.8; stroke-dashoffset: 0; stroke: #b2b2b2; stroke-width: 0.5"/>
     </g>
     <g id="line2d_48">
      <g>
       <use xlink:href="#m1f8c6a1ac4" x="947.52" y="354.165517" style="stroke: #000000; stroke-width: 0.8"/>
      </g>
     </g>
    </g>
   </g>
   <g id="matplotlib.axis_6">
    <g id="ytick_6">
     <g id="line2d_49">
      <path d="M 100.8 348.483511 
L 987.84 348.483511 
" clip-path="url(#p809d302dfd)" style="fill: none; stroke-dasharray: 1.85,0.8; stroke-dashoffset: 0; stroke: #b2b2b2; stroke-width: 0.5"/>
     </g>
     <g id="line2d_50">
      <g>
       <use xlink:href="#m938e0a950e" x="100.8" y="348.483511" style="stroke: #000000; stroke-width: 0.8"/>
      </g>
     </g>
     <g id="text_8">
      <!-- 0 V -->
      <g transform="translate(74.36625 353.802417) scale(0.14 -0.14)">
       <use xlink:href="#DejaVuSans-30"/>
       <use xlink:href="#DejaVuSans-20" x="63.623047"/>
       <use xlink:href="#DejaVuSans-56" x="95.410156"/>
      </g>
     </g>
    </g>
    <g id="ytick_7">
     <g id="line2d_51">
      <path d="M 100.8 305.501993 
L 987.84 305.501993 
" clip-path="url(#p809d302dfd)" style="fill: none; stroke-dasharray: 1.85,0.8; stroke-dashoffset: 0; stroke: #b2b2b2; stroke-width: 0.5"/>
     </g>
     <g id="line2d_52">
      <g>
       <use xlink:href="#m938e0a950e" x="100.8" y="305.501993" style="stroke: #000000; stroke-width: 0.8"/>
      </g>
     </g>
     <g id="text_9">
      <!-- 1 V -->
      <g transform="translate(74.36625 310.820899) scale(0.14 -0.14)">
       <use xlink:href="#DejaVuSans-31"/>
       <use xlink:href="#DejaVuSans-20" x="63.623047"/>
       <use xlink:href="#DejaVuSans-56" x="95.410156"/>
      </g>
     </g>
    </g>
    <g id="ytick_8">
     <g id="line2d_53">
      <path d="M 100.8 262.520475 
L 987.84 262.520475 
" clip-path="url(#p809d302dfd)" style="fill: none; stroke-dasharray: 1.85,0.8; stroke-dashoffset: 0; stroke: #b2b2b2; stroke-width: 0.5"/>
     </g>
     <g id="line2d_54">
      <g>
       <use xlink:href="#m938e0a950e" x="100.8" y="262.520475" style="stroke: #000000; stroke-width: 0.8"/>
      </g>
     </g>
     <g id="text_10">
      <!-- 2 V -->
      <g transform="translate(74.36625 267.839382) scale(0.14 -0.14)">
       <use xlink:href="#DejaVuSans-32"/>
       <use xlink:href="#DejaVuSans-20" x="63.623047"/>
       <use xlink:href="#DejaVuSans-56" x="95.410156"/>
      </g>
     </g>
    </g>
    <g id="text_11">
     <g id="patch_15">
      <path d="M 34.8768 342.395313 
L 34.8768 273.204688 
L 11.247425 273.204688 
L 11.247425 342.395313 
z
" style="fill: #ffff00; opacity: 0.2; stroke: #eeeeee; stroke-width: 0.5; stroke-linejoin: miter"/>
     </g>
     <!-- CLK BUF -->
     <g transform="translate(26.925238 337.355313) rotate(-90) scale(0.14 -0.14)">
      <defs>
       <path id="DejaVuSans-43" d="M 4122 4306 
L 4122 3641 
Q 3803 3938 3442 4084 
Q 3081 4231 2675 4231 
Q 1875 4231 1450 3742 
Q 1025 3253 1025 2328 
Q 1025 1406 1450 917 
Q 1875 428 2675 428 
Q 3081 428 3442 575 
Q 3803 722 4122 1019 
L 4122 359 
Q 3791 134 3420 21 
Q 3050 -91 2638 -91 
Q 1578 -91 968 557 
Q 359 1206 359 2328 
Q 359 3453 968 4101 
Q 1578 4750 2638 4750 
Q 3056 4750 3426 4639 
Q 3797 4528 4122 4306 
z
" transform="scale(0.015625)"/>
       <path id="DejaVuSans-4b" d="M 628 4666 
L 1259 4666 
L 1259 2694 
L 3353 4666 
L 4166 4666 
L 1850 2491 
L 4331 0 
L 3500 0 
L 1259 2247 
L 1259 0 
L 628 0 
L 628 4666 
z
" transform="scale(0.015625)"/>
      </defs>
      <use xlink:href="#DejaVuSans-43"/>
      <use xlink:href="#DejaVuSans-4c" x="69.824219"/>
      <use xlink:href="#DejaVuSans-4b" x="125.537109"/>
      <use xlink:href="#DejaVuSans-20" x="191.113281"/>
      <use xlink:href="#DejaVuSans-42" x="222.900391"/>
      <use xlink:href="#DejaVuSans-55" x="291.503906"/>
      <use xlink:href="#DejaVuSans-46" x="364.697266"/>
     </g>
    </g>
   </g>
   <g id="line2d_55">
    <path d="M 141.12 348.482375 
L 173.376 348.482375 
L 173.601792 296.90569 
L 213.696 296.90569 
L 213.760512 338.047169 
L 213.825024 348.463875 
L 213.889536 348.402022 
L 213.954048 348.573729 
L 214.01856 348.488169 
L 215.373312 348.478722 
L 223.437312 348.482328 
L 254.016 348.482345 
L 254.17728 296.746658 
L 254.241792 297.02174 
L 254.403072 296.897093 
L 254.854656 296.90569 
L 294.336 296.90569 
L 294.400512 338.011064 
L 294.465024 348.804243 
L 294.529536 348.056954 
L 294.626304 348.551056 
L 294.65856 348.520471 
L 294.852096 348.444924 
L 295.206912 348.499152 
L 295.497216 348.48204 
L 320.721408 348.482374 
L 334.656 348.482377 
L 334.81728 296.828323 
L 334.881792 296.922882 
L 335.204352 296.909988 
L 336.075264 296.90569 
L 374.976 296.90569 
L 375.040512 338.051037 
L 375.105024 348.484208 
L 375.169536 348.396572 
L 375.234048 348.567334 
L 375.29856 348.488312 
L 376.717824 348.478365 
L 385.072128 348.482311 
L 412.134912 348.563199 
L 412.812288 349.21136 
L 413.586432 349.617063 
L 414.65088 349.879293 
L 415.296 349.95047 
L 415.425024 302.059174 
L 415.521792 302.334255 
L 416.650752 304.350088 
L 422.005248 313.406724 
L 425.585664 318.877412 
L 427.87584 322.128104 
L 430.488576 325.500434 
L 432.71424 327.634896 
L 432.746496 327.618133 
L 432.778752 327.702377 
L 433.423872 328.215576 
L 433.617408 328.3918 
L 433.649664 328.357845 
L 433.68192 328.427475 
L 434.198016 328.850843 
L 437.359104 331.071268 
L 437.939712 331.351938 
L 439.00416 330.802634 
L 440.520192 330.194875 
L 441.165312 330.002748 
L 441.294336 329.845006 
L 441.42336 329.851023 
L 441.842688 329.698868 
L 445.906944 328.217296 
L 446.035968 328.142078 
L 446.197248 328.170446 
L 446.229504 328.04451 
L 446.294016 328.105114 
L 446.390784 328.083193 
L 446.519808 327.943073 
L 446.58432 328.010125 
L 446.648832 327.960696 
L 446.777856 327.960266 
L 446.90688 327.846365 
L 447.06816 327.838628 
L 447.326208 327.737622 
L 451.390464 326.336854 
L 451.90656 326.164068 
L 452.035584 326.057044 
L 452.196864 326.11378 
L 452.325888 325.95131 
L 452.454912 325.999019 
L 455.616 324.844966 
L 455.712768 323.050917 
L 455.77728 332.744539 
L 455.93856 348.691688 
L 456.003072 348.547472 
L 456.09984 348.601504 
L 457.422336 348.383678 
L 458.873856 348.099901 
L 460.970496 347.940525 
L 463.03488 347.91061 
L 463.454208 347.921184 
L 464.228352 347.925869 
L 472.38912 348.032334 
L 476.646912 347.982776 
L 477.292032 347.359544 
L 478.066176 346.950188 
L 479.066112 346.700982 
L 480.549888 346.593657 
L 483.259392 346.645277 
L 495.936 347.132903 
L 496.000512 299.819836 
L 496.09728 275.664223 
L 496.129536 275.720099 
L 496.387584 275.204321 
L 499.00032 270.893275 
L 499.677696 269.814439 
L 500.838912 268.02211 
L 502.322688 265.851543 
L 502.645248 265.731195 
L 504.516096 265.830052 
L 509.999616 268.13816 
L 511.612416 268.873144 
L 513.934848 269.917595 
L 515.225088 270.480652 
L 522.450432 273.476464 
L 523.063296 273.828913 
L 525.321216 275.148445 
L 525.740544 275.39344 
L 535.223808 280.32342 
L 536.256 280.779024 
L 536.385024 349.15961 
L 536.481792 348.83779 
L 536.675328 348.86079 
L 538.610688 348.843954 
L 542.416896 348.827372 
L 567.641088 348.653344 
L 571.705344 348.632283 
L 576.511488 348.611467 
L 576.576 348.612069 
L 576.73728 292.108952 
L 576.769536 292.371139 
L 576.834048 292.083163 
L 576.89856 292.246493 
L 577.253376 292.310965 
L 578.156544 292.418419 
L 578.51136 292.482891 
L 579.31776 292.590345 
L 579.575808 292.611836 
L 580.28544 292.71929 
L 580.543488 292.74078 
L 581.349888 292.848234 
L 581.672448 292.908408 
L 582.672384 293.007266 
L 583.156224 293.084633 
L 584.059392 293.192086 
L 584.31744 293.213577 
L 585.220608 293.321031 
L 585.478656 293.342522 
L 586.381824 293.449976 
L 586.639872 293.471466 
L 587.54304 293.57892 
L 587.801088 293.600411 
L 588.801024 293.707865 
L 589.059072 293.729355 
L 590.059008 293.836809 
L 590.317056 293.8583 
L 591.41376 293.965754 
L 591.671808 293.987245 
L 592.86528 294.094698 
L 593.123328 294.111891 
L 594.284544 294.210748 
L 594.63936 294.240835 
L 596.800512 294.41706 
L 598.090752 294.524513 
L 598.3488 294.546004 
L 599.832576 294.653458 
L 600.090624 294.670651 
L 601.638912 294.769508 
L 601.993728 294.799595 
L 603.574272 294.898453 
L 603.929088 294.92854 
L 605.703168 295.027397 
L 606.057984 295.057484 
L 607.928832 295.156342 
L 608.283648 295.186429 
L 610.348032 295.285286 
L 610.702848 295.315373 
L 612.960768 295.414231 
L 613.315584 295.444318 
L 615.863808 295.543175 
L 616.218624 295.573263 
L 616.896 295.616244 
L 616.928256 300.743939 
L 617.05728 348.451572 
L 617.186304 348.518461 
L 628.314624 348.507545 
L 657.216 348.494685 
L 657.37728 296.252371 
L 657.441792 296.738062 
L 657.53856 296.295352 
L 657.603072 296.458682 
L 658.086912 296.475874 
L 697.536 296.475874 
L 697.665024 348.811971 
L 697.826304 348.561785 
L 698.084352 348.465966 
L 698.439168 348.512754 
L 698.761728 348.494459 
L 736.759296 348.494683 
L 737.856 348.494684 
L 738.01728 296.252371 
L 738.081792 296.738062 
L 738.17856 296.295352 
L 738.243072 296.458682 
L 738.726912 296.475874 
L 778.176 296.475874 
L 778.305024 348.811714 
L 778.466304 348.561785 
L 778.724352 348.465974 
L 779.079168 348.512733 
L 779.401728 348.494458 
L 817.399296 348.494683 
L 818.496 348.494684 
L 818.65728 296.252371 
L 818.721792 296.738062 
L 818.81856 296.295352 
L 818.883072 296.458682 
L 819.366912 296.475874 
L 858.816 296.475874 
L 858.945024 348.811886 
L 859.106304 348.561742 
L 859.364352 348.465983 
L 859.719168 348.512741 
L 860.041728 348.494459 
L 898.200576 348.494683 
L 899.136 348.494684 
L 899.29728 296.252371 
L 899.361792 296.738062 
L 899.45856 296.295352 
L 899.523072 296.458682 
L 900.006912 296.475874 
L 939.456 296.475874 
L 939.488256 304.225442 
L 939.61728 348.443565 
L 939.649536 348.56855 
L 939.714048 348.448971 
L 939.746304 348.411255 
L 939.810816 348.46673 
L 940.004352 348.520406 
L 940.230144 348.493319 
L 945.649152 348.494687 
L 947.52 348.494673 
L 947.52 348.494673 
" clip-path="url(#p809d302dfd)" style="fill: none; stroke: #0000ff; stroke-width: 2; stroke-linecap: square"/>
   </g>
   <g id="patch_16">
    <path d="M 100.8 354.165517 
L 100.8 261.434483 
" style="fill: none; stroke: #bcbcbc; stroke-width: 0.8; stroke-linejoin: miter; stroke-linecap: square"/>
   </g>
   <g id="patch_17">
    <path d="M 987.84 354.165517 
L 987.84 261.434483 
" style="fill: none; stroke: #bcbcbc; stroke-width: 0.8; stroke-linejoin: miter; stroke-linecap: square"/>
   </g>
   <g id="patch_18">
    <path d="M 100.8 354.165517 
L 987.84 354.165517 
" style="fill: none; stroke: #bcbcbc; stroke-width: 0.8; stroke-linejoin: miter; stroke-linecap: square"/>
   </g>
   <g id="patch_19">
    <path d="M 100.8 261.434483 
L 987.84 261.434483 
" style="fill: none; stroke: #bcbcbc; stroke-width: 0.8; stroke-linejoin: miter; stroke-linecap: square"/>
   </g>
  </g>
  <g id="axes_4">
   <g id="patch_20">
    <path d="M 100.8 465.442759 
L 987.84 465.442759 
L 987.84 372.711724 
L 100.8 372.711724 
z
" style="fill: #eeeeee"/>
   </g>
   <g id="matplotlib.axis_7">
    <g id="xtick_19">
     <g id="line2d_56">
      <path d="M 141.12 465.442759 
L 141.12 372.711724 
" clip-path="url(#p4a5164106f)" style="fill: none; stroke-dasharray: 1.85,0.8; stroke-dashoffset: 0; stroke: #b2b2b2; stroke-width: 0.5"/>
     </g>
     <g id="line2d_57">
      <g>
       <use xlink:href="#m1f8c6a1ac4" x="141.12" y="465.442759" style="stroke: #000000; stroke-width: 0.8"/>
      </g>
     </g>
    </g>
    <g id="xtick_20">
     <g id="line2d_58">
      <path d="M 302.4 465.442759 
L 302.4 372.711724 
" clip-path="url(#p4a5164106f)" style="fill: none; stroke-dasharray: 1.85,0.8; stroke-dashoffset: 0; stroke: #b2b2b2; stroke-width: 0.5"/>
     </g>
     <g id="line2d_59">
      <g>
       <use xlink:href="#m1f8c6a1ac4" x="302.4" y="465.442759" style="stroke: #000000; stroke-width: 0.8"/>
      </g>
     </g>
    </g>
    <g id="xtick_21">
     <g id="line2d_60">
      <path d="M 463.68 465.442759 
L 463.68 372.711724 
" clip-path="url(#p4a5164106f)" style="fill: none; stroke-dasharray: 1.85,0.8; stroke-dashoffset: 0; stroke: #b2b2b2; stroke-width: 0.5"/>
     </g>
     <g id="line2d_61">
      <g>
       <use xlink:href="#m1f8c6a1ac4" x="463.68" y="465.442759" style="stroke: #000000; stroke-width: 0.8"/>
      </g>
     </g>
    </g>
    <g id="xtick_22">
     <g id="line2d_62">
      <path d="M 624.96 465.442759 
L 624.96 372.711724 
" clip-path="url(#p4a5164106f)" style="fill: none; stroke-dasharray: 1.85,0.8; stroke-dashoffset: 0; stroke: #b2b2b2; stroke-width: 0.5"/>
     </g>
     <g id="line2d_63">
      <g>
       <use xlink:href="#m1f8c6a1ac4" x="624.96" y="465.442759" style="stroke: #000000; stroke-width: 0.8"/>
      </g>
     </g>
    </g>
    <g id="xtick_23">
     <g id="line2d_64">
      <path d="M 786.24 465.442759 
L 786.24 372.711724 
" clip-path="url(#p4a5164106f)" style="fill: none; stroke-dasharray: 1.85,0.8; stroke-dashoffset: 0; stroke: #b2b2b2; stroke-width: 0.5"/>
     </g>
     <g id="line2d_65">
      <g>
       <use xlink:href="#m1f8c6a1ac4" x="786.24" y="465.442759" style="stroke: #000000; stroke-width: 0.8"/>
      </g>
     </g>
    </g>
    <g id="xtick_24">
     <g id="line2d_66">
      <path d="M 947.52 465.442759 
L 947.52 372.711724 
" clip-path="url(#p4a5164106f)" style="fill: none; stroke-dasharray: 1.85,0.8; stroke-dashoffset: 0; stroke: #b2b2b2; stroke-width: 0.5"/>
     </g>
     <g id="line2d_67">
      <g>
       <use xlink:href="#m1f8c6a1ac4" x="947.52" y="465.442759" style="stroke: #000000; stroke-width: 0.8"/>
      </g>
     </g>
    </g>
   </g>
   <g id="matplotlib.axis_8">
    <g id="ytick_9">
     <g id="line2d_68">
      <path d="M 100.8 440.046586 
L 987.84 440.046586 
" clip-path="url(#p4a5164106f)" style="fill: none; stroke-dasharray: 1.85,0.8; stroke-dashoffset: 0; stroke: #b2b2b2; stroke-width: 0.5"/>
     </g>
     <g id="line2d_69">
      <g>
       <use xlink:href="#m938e0a950e" x="100.8" y="440.046586" style="stroke: #000000; stroke-width: 0.8"/>
      </g>
     </g>
     <g id="text_12">
      <!-- 0 V -->
      <g transform="translate(74.36625 445.365492) scale(0.14 -0.14)">
       <use xlink:href="#DejaVuSans-30"/>
       <use xlink:href="#DejaVuSans-20" x="63.623047"/>
       <use xlink:href="#DejaVuSans-56" x="95.410156"/>
      </g>
     </g>
    </g>
    <g id="ytick_10">
     <g id="line2d_70">
      <path d="M 100.8 403.021824 
L 987.84 403.021824 
" clip-path="url(#p4a5164106f)" style="fill: none; stroke-dasharray: 1.85,0.8; stroke-dashoffset: 0; stroke: #b2b2b2; stroke-width: 0.5"/>
     </g>
     <g id="line2d_71">
      <g>
       <use xlink:href="#m938e0a950e" x="100.8" y="403.021824" style="stroke: #000000; stroke-width: 0.8"/>
      </g>
     </g>
     <g id="text_13">
      <!-- 1 V -->
      <g transform="translate(74.36625 408.34073) scale(0.14 -0.14)">
       <use xlink:href="#DejaVuSans-31"/>
       <use xlink:href="#DejaVuSans-20" x="63.623047"/>
       <use xlink:href="#DejaVuSans-56" x="95.410156"/>
      </g>
     </g>
    </g>
    <g id="text_14">
     <g id="patch_21">
      <path d="M 34.8768 454.693023 
L 34.8768 383.46146 
L 11.247425 383.46146 
L 11.247425 454.693023 
z
" style="fill: #ffff00; opacity: 0.2; stroke: #eeeeee; stroke-width: 0.5; stroke-linejoin: miter"/>
     </g>
     <!-- DFF OUT -->
     <g transform="translate(26.925238 449.653023) rotate(-90) scale(0.14 -0.14)">
      <defs>
       <path id="DejaVuSans-4f" d="M 2522 4238 
Q 1834 4238 1429 3725 
Q 1025 3213 1025 2328 
Q 1025 1447 1429 934 
Q 1834 422 2522 422 
Q 3209 422 3611 934 
Q 4013 1447 4013 2328 
Q 4013 3213 3611 3725 
Q 3209 4238 2522 4238 
z
M 2522 4750 
Q 3503 4750 4090 4092 
Q 4678 3434 4678 2328 
Q 4678 1225 4090 567 
Q 3503 -91 2522 -91 
Q 1538 -91 948 565 
Q 359 1222 359 2328 
Q 359 3434 948 4092 
Q 1538 4750 2522 4750 
z
" transform="scale(0.015625)"/>
       <path id="DejaVuSans-54" d="M -19 4666 
L 3928 4666 
L 3928 4134 
L 2272 4134 
L 2272 0 
L 1638 0 
L 1638 4134 
L -19 4134 
L -19 4666 
z
" transform="scale(0.015625)"/>
      </defs>
      <use xlink:href="#DejaVuSans-44"/>
      <use xlink:href="#DejaVuSans-46" x="77.001953"/>
      <use xlink:href="#DejaVuSans-46" x="134.521484"/>
      <use xlink:href="#DejaVuSans-20" x="192.041016"/>
      <use xlink:href="#DejaVuSans-4f" x="223.828125"/>
      <use xlink:href="#DejaVuSans-55" x="302.539062"/>
      <use xlink:href="#DejaVuSans-54" x="375.732422"/>
     </g>
    </g>
   </g>
   <g id="line2d_72">
    <path d="M 141.12 412.110292 
L 173.408256 412.155462 
L 173.440512 413.688287 
L 173.601792 440.048845 
L 174.150144 440.044874 
L 185.117184 440.045599 
L 254.048256 440.04715 
L 254.080512 440.195159 
L 254.112768 439.950332 
L 254.306304 436.335594 
L 254.596608 435.611019 
L 254.693376 435.094153 
L 255.14496 428.607415 
L 255.370752 413.361359 
L 255.596544 395.976011 
L 255.757824 395.672408 
L 255.983616 395.613169 
L 256.983552 395.616871 
L 295.755264 395.690921 
L 296.239104 398.086423 
L 296.59392 397.486622 
L 297.980928 395.913069 
L 299.625984 395.646491 
L 300.754944 395.627979 
L 334.720512 395.524309 
L 334.752768 396.068573 
L 334.785024 398.760273 
L 334.914048 440.031408 
L 334.97856 439.998824 
L 335.13984 440.038826 
L 335.526912 440.045941 
L 369.16992 440.045564 
L 412.167168 440.147641 
L 412.844544 440.692816 
L 413.6832 441.053252 
L 414.779904 441.264367 
L 415.328256 441.315535 
L 415.360512 441.48074 
L 415.392768 441.235303 
L 415.586304 438.09016 
L 415.812096 437.841909 
L 416.199168 437.339372 
L 416.521728 436.582808 
L 416.812032 435.235958 
L 417.037824 433.043352 
L 417.263616 428.70405 
L 417.55392 418.13348 
L 417.908736 404.129975 
L 418.070016 404.222166 
L 418.84416 405.346979 
L 420.198912 407.541066 
L 420.61824 408.570725 
L 421.295616 410.839972 
L 421.811712 412.81006 
L 421.843968 412.803395 
L 422.71488 416.225964 
L 422.908416 417.410387 
L 423.134208 418.34193 
L 423.19872 418.193831 
L 423.295488 418.344892 
L 423.36 419.072058 
L 423.553536 420.120969 
L 423.747072 420.94403 
L 423.811584 420.770384 
L 423.84384 420.866278 
L 424.00512 422.100313 
L 424.392192 423.751247 
L 424.456704 423.483188 
L 424.521216 423.677198 
L 424.682496 425.061554 
L 425.585664 429.214251 
L 426.843648 434.570253 
L 427.392 436.612798 
L 427.424256 436.444854 
L 427.488768 436.436227 
L 427.521024 436.480694 
L 427.617792 436.765933 
L 427.87584 438.405611 
L 428.166144 439.393839 
L 428.1984 438.982309 
L 428.230656 439.140553 
L 428.391936 440.307503 
L 428.908032 442.172029 
L 428.940288 441.794043 
L 428.972544 442.375628 
L 429.0048 442.262777 
L 429.037056 442.136967 
L 429.069312 442.272996 
L 429.456384 443.947515 
L 429.746688 444.470304 
L 429.778944 444.353306 
L 429.8112 444.455494 
L 430.488576 446.418177 
L 431.165952 447.659247 
L 431.198208 447.614817 
L 431.230464 447.501522 
L 431.391744 448.222023 
L 431.424 447.9921 
L 431.488512 448.040972 
L 431.617536 448.473422 
L 431.649792 448.484529 
L 431.811072 449.185037 
L 431.972352 449.566393 
L 433.133568 452.103329 
L 436.455936 458.681519 
L 437.939712 461.227712 
L 438.100992 461.13626 
L 438.326784 460.691223 
L 438.6816 460.126595 
L 438.713856 459.694886 
L 438.810624 459.827435 
L 438.84288 459.827805 
L 439.100928 459.278358 
L 439.552512 458.561188 
L 439.584768 458.617096 
L 439.617024 458.558596 
L 439.778304 458.162061 
L 440.165376 457.744792 
L 440.45568 457.204231 
L 440.487936 457.236072 
L 440.649216 456.975418 
L 441.004032 456.459292 
L 441.133056 456.317488 
L 441.165312 456.487431 
L 441.197568 456.272317 
L 441.229824 456.402645 
L 441.358848 456.180126 
L 441.520128 455.885779 
L 441.552384 455.941316 
L 441.58464 455.802103 
L 442.294272 455.231551 
L 442.842624 454.395902 
L 442.87488 454.576954 
L 442.907136 454.292974 
L 443.068416 454.165608 
L 443.100672 454.225589 
L 443.132928 454.328517 
L 443.165184 454.144134 
L 443.261952 453.94383 
L 443.294208 454.09267 
L 443.326464 453.867929 
L 443.939328 453.289603 
L 443.971584 453.47991 
L 444.036096 453.213332 
L 444.068352 453.325146 
L 444.100608 453.146687 
L 444.64896 452.8068 
L 444.939264 452.501345 
L 445.197312 452.0452 
L 445.584384 451.56647 
L 445.61664 451.85045 
L 445.681152 451.579429 
L 445.745664 451.459839 
L 445.77792 451.531297 
L 445.810176 451.547217 
L 445.9392 451.199555 
L 445.971456 451.41615 
L 446.035968 451.185485 
L 446.164992 451.024057 
L 446.197248 451.287674 
L 446.26176 450.947786 
L 446.326272 451.160309 
L 446.390784 451.080705 
L 446.519808 450.689354 
L 446.58432 450.874848 
L 446.616576 450.628263 
L 446.874624 450.527185 
L 447.003648 450.420554 
L 447.06816 450.450544 
L 447.100416 450.38427 
L 447.326208 450.258015 
L 447.810048 449.700792 
L 448.003584 449.316475 
L 448.164864 449.092105 
L 448.19712 449.254274 
L 448.229376 449.047676 
L 448.293888 448.971405 
L 448.326144 449.217619 
L 448.3584 448.911054 
L 448.390656 448.953262 
L 448.455168 448.791094 
L 448.487424 448.811458 
L 448.51968 449.088773 
L 448.551936 448.670393 
L 448.584192 449.019167 
L 448.745472 448.493045 
L 448.84224 448.446393 
L 448.874496 448.766658 
L 449.035776 448.24683 
L 449.068032 448.568945 
L 449.132544 448.180926 
L 449.1648 448.182777 
L 449.197056 448.383081 
L 449.229312 448.106506 
L 449.293824 448.3368 
L 449.422848 448.055782 
L 449.48736 448.195366 
L 449.616384 447.879174 
L 449.80992 447.854368 
L 450.100224 447.698864 
L 450.874368 446.954666 
L 451.003392 446.46779 
L 451.196928 446.244531 
L 451.229184 446.626256 
L 451.26144 446.150858 
L 451.325952 446.476676 
L 451.454976 445.996465 
L 451.487232 445.992022 
L 451.519488 446.379301 
L 451.584 446.174924 
L 451.809792 445.676571 
L 451.842048 445.836518 
L 451.874304 446.079771 
L 451.90656 445.886131 
L 451.971072 445.909087 
L 452.035584 445.537728 
L 452.06784 445.551427 
L 452.100096 445.888353 
L 452.132352 445.491447 
L 452.196864 445.818746 
L 452.325888 445.374819 
L 452.358144 445.385927 
L 452.3904 445.577715 
L 452.422656 445.338905 
L 452.487168 445.530323 
L 452.648448 445.287811 
L 452.680704 445.334832 
L 452.745216 445.272631 
L 453.003264 445.180439 
L 454.067712 444.121161 
L 454.228992 443.651613 
L 454.390272 443.496738 
L 454.48704 443.385071 
L 454.519296 443.842735 
L 454.64832 443.322314 
L 454.680576 443.702337 
L 454.712832 443.159665 
L 454.777344 443.135376 
L 454.8096 443.585746 
L 454.841856 443.063252 
L 454.874112 443.071435 
L 454.938624 443.14404 
L 454.97088 443.321981 
L 455.003136 443.164885 
L 455.13216 442.853877 
L 455.164416 442.864022 
L 455.196672 443.248709 
L 455.228928 442.796859 
L 455.261184 442.803524 
L 455.29344 442.791416 
L 455.325696 443.1316 
L 455.390208 443.098722 
L 455.519232 442.657609 
L 455.551488 442.680305 
L 455.583744 442.925039 
L 455.616 442.651759 
L 455.648256 442.660904 
L 456.035328 442.545979 
L 457.2288 441.443382 
L 457.55136 440.975944 
L 457.71264 440.271404 
L 457.777152 440.200235 
L 457.809408 440.617359 
L 457.87392 440.084336 
L 457.970688 440.370301 
L 458.0352 440.040033 
L 458.099712 440.079874 
L 458.19648 440.030922 
L 459.067392 438.610654 
L 459.228672 437.744904 
L 459.260928 438.03155 
L 459.357696 437.893929 
L 459.422208 438.003041 
L 459.454464 437.904703 
L 459.518976 437.586253 
L 459.583488 437.594584 
L 459.615744 437.666967 
L 459.680256 437.567408 
L 460.486656 435.755416 
L 460.551168 435.439224 
L 460.583424 436.004963 
L 460.61568 435.299641 
L 460.647936 435.138953 
L 460.680192 435.165611 
L 460.712448 435.778001 
L 460.77696 435.538451 
L 460.93824 435.052686 
L 460.970496 435.267429 
L 461.035008 435.171905 
L 461.164032 434.983079 
L 462.196224 433.082598 
L 462.22848 432.522784 
L 462.325248 432.706427 
L 462.38976 432.807874 
L 462.422016 432.709018 
L 462.71232 432.130321 
L 466.357248 425.42958 
L 466.454016 424.784608 
L 466.486272 424.798308 
L 466.679808 424.881243 
L 469.16352 420.272771 
L 469.421568 419.551529 
L 469.48608 419.535978 
L 469.582848 419.946583 
L 469.615104 419.629281 
L 469.711872 419.738874 
L 470.195712 418.886564 
L 471.131136 417.565891 
L 471.163392 417.601064 
L 471.195648 417.523682 
L 471.453696 417.219709 
L 471.679488 416.733574 
L 472.453632 415.60617 
L 473.001984 415.028584 
L 473.19552 414.79866 
L 473.647104 414.098522 
L 473.84064 413.69273 
L 474.582528 412.851898 
L 475.743744 411.741525 
L 476.227584 411.059899 
L 476.517888 410.640039 
L 476.74368 410.423814 
L 477.485568 408.263419 
L 483.872256 396.331449 
L 486.42048 391.873668 
L 487.646208 389.852116 
L 488.742912 388.06382 
L 491.58144 383.706005 
L 492.033024 383.028452 
L 494.613504 379.374108 
L 495.419904 378.281877 
L 496.000512 377.4192 
L 496.032768 376.926771 
L 496.323072 438.852685 
L 498.097152 438.809736 
L 502.354944 438.933955 
L 502.677504 439.230005 
L 503.35488 439.708742 
L 504.193536 440.037683 
L 505.419264 440.261914 
L 507.644928 440.378005 
L 514.257408 440.380997 
L 523.127808 440.447379 
L 526.643712 440.470556 
L 570.157056 440.182089 
L 576.608256 440.158186 
L 576.640512 440.365758 
L 576.73728 436.964756 
L 576.89856 435.396276 
L 577.188864 434.28109 
L 577.350144 432.840826 
L 577.511424 429.072076 
L 577.70496 417.314492 
L 578.059776 391.781106 
L 578.1888 391.766296 
L 588.220416 392.806692 
L 589.607424 392.917766 
L 590.413824 392.991815 
L 591.833088 393.10289 
L 592.639488 393.176939 
L 594.252288 393.288014 
L 595.058688 393.362063 
L 596.865024 393.473137 
L 597.671424 393.547187 
L 599.768064 393.658261 
L 600.574464 393.732311 
L 602.86464 393.843385 
L 603.477504 393.876707 
L 604.993536 393.987782 
L 606.316032 394.028509 
L 608.67072 394.139583 
L 609.31584 394.176608 
L 612.0576 394.287682 
L 612.670464 394.321004 
L 614.96064 394.432079 
L 616.25088 394.469103 
L 619.3152 394.580178 
L 620.60544 394.617203 
L 623.863296 394.728277 
L 624.830976 394.728277 
L 627.927552 394.839351 
L 628.895232 394.843054 
L 629.572608 394.876376 
L 634.701312 394.98745 
L 635.668992 394.98745 
L 640.507392 395.098524 
L 641.475072 395.098524 
L 647.764992 395.209599 
L 648.732672 395.213301 
L 649.732608 395.209599 
L 657.248256 395.242921 
L 657.280512 395.431747 
L 657.345024 395.242921 
L 657.53856 395.224409 
L 658.699776 395.246623 
L 737.888256 395.242921 
L 737.920512 395.431747 
L 737.985024 395.242921 
L 738.17856 395.224409 
L 739.339776 395.246623 
L 818.528256 395.242921 
L 818.560512 395.431747 
L 818.625024 395.242921 
L 818.81856 395.224409 
L 819.979776 395.246623 
L 899.168256 395.242921 
L 899.200512 395.431747 
L 899.265024 395.242921 
L 899.45856 395.224409 
L 900.619776 395.246623 
L 947.52 395.246623 
L 947.52 395.246623 
" clip-path="url(#p4a5164106f)" style="fill: none; stroke: #ff00ff; stroke-width: 2; stroke-linecap: square"/>
   </g>
   <g id="patch_22">
    <path d="M 100.8 465.442759 
L 100.8 372.711724 
" style="fill: none; stroke: #bcbcbc; stroke-width: 0.8; stroke-linejoin: miter; stroke-linecap: square"/>
   </g>
   <g id="patch_23">
    <path d="M 987.84 465.442759 
L 987.84 372.711724 
" style="fill: none; stroke: #bcbcbc; stroke-width: 0.8; stroke-linejoin: miter; stroke-linecap: square"/>
   </g>
   <g id="patch_24">
    <path d="M 100.8 465.442759 
L 987.84 465.442759 
" style="fill: none; stroke: #bcbcbc; stroke-width: 0.8; stroke-linejoin: miter; stroke-linecap: square"/>
   </g>
   <g id="patch_25">
    <path d="M 100.8 372.711724 
L 987.84 372.711724 
" style="fill: none; stroke: #bcbcbc; stroke-width: 0.8; stroke-linejoin: miter; stroke-linecap: square"/>
   </g>
  </g>
  <g id="axes_5">
   <g id="patch_26">
    <path d="M 100.8 576.72 
L 987.84 576.72 
L 987.84 483.988966 
L 100.8 483.988966 
z
" style="fill: #eeeeee"/>
   </g>
   <g id="matplotlib.axis_9">
    <g id="xtick_25">
     <g id="line2d_73">
      <path d="M 141.12 576.72 
L 141.12 483.988966 
" clip-path="url(#pc9ada80611)" style="fill: none; stroke-dasharray: 1.85,0.8; stroke-dashoffset: 0; stroke: #b2b2b2; stroke-width: 0.5"/>
     </g>
     <g id="line2d_74">
      <g>
       <use xlink:href="#m1f8c6a1ac4" x="141.12" y="576.72" style="stroke: #000000; stroke-width: 0.8"/>
      </g>
     </g>
     <g id="text_15">
      <!-- 0 s -->
      <g transform="translate(130.795 590.857813) scale(0.14 -0.14)">
       <defs>
        <path id="DejaVuSans-73" d="M 2834 3397 
L 2834 2853 
Q 2591 2978 2328 3040 
Q 2066 3103 1784 3103 
Q 1356 3103 1142 2972 
Q 928 2841 928 2578 
Q 928 2378 1081 2264 
Q 1234 2150 1697 2047 
L 1894 2003 
Q 2506 1872 2764 1633 
Q 3022 1394 3022 966 
Q 3022 478 2636 193 
Q 2250 -91 1575 -91 
Q 1294 -91 989 -36 
Q 684 19 347 128 
L 347 722 
Q 666 556 975 473 
Q 1284 391 1588 391 
Q 1994 391 2212 530 
Q 2431 669 2431 922 
Q 2431 1156 2273 1281 
Q 2116 1406 1581 1522 
L 1381 1569 
Q 847 1681 609 1914 
Q 372 2147 372 2553 
Q 372 3047 722 3315 
Q 1072 3584 1716 3584 
Q 2034 3584 2315 3537 
Q 2597 3491 2834 3397 
z
" transform="scale(0.015625)"/>
       </defs>
       <use xlink:href="#DejaVuSans-30"/>
       <use xlink:href="#DejaVuSans-20" x="63.623047"/>
       <use xlink:href="#DejaVuSans-73" x="95.410156"/>
      </g>
     </g>
    </g>
    <g id="xtick_26">
     <g id="line2d_75">
      <path d="M 302.4 576.72 
L 302.4 483.988966 
" clip-path="url(#pc9ada80611)" style="fill: none; stroke-dasharray: 1.85,0.8; stroke-dashoffset: 0; stroke: #b2b2b2; stroke-width: 0.5"/>
     </g>
     <g id="line2d_76">
      <g>
       <use xlink:href="#m1f8c6a1ac4" x="302.4" y="576.72" style="stroke: #000000; stroke-width: 0.8"/>
      </g>
     </g>
     <g id="text_16">
      <!-- 50 ns -->
      <g transform="translate(283.185 590.857813) scale(0.14 -0.14)">
       <defs>
        <path id="DejaVuSans-35" d="M 691 4666 
L 3169 4666 
L 3169 4134 
L 1269 4134 
L 1269 2991 
Q 1406 3038 1543 3061 
Q 1681 3084 1819 3084 
Q 2600 3084 3056 2656 
Q 3513 2228 3513 1497 
Q 3513 744 3044 326 
Q 2575 -91 1722 -91 
Q 1428 -91 1123 -41 
Q 819 9 494 109 
L 494 744 
Q 775 591 1075 516 
Q 1375 441 1709 441 
Q 2250 441 2565 725 
Q 2881 1009 2881 1497 
Q 2881 1984 2565 2268 
Q 2250 2553 1709 2553 
Q 1456 2553 1204 2497 
Q 953 2441 691 2322 
L 691 4666 
z
" transform="scale(0.015625)"/>
        <path id="DejaVuSans-6e" d="M 3513 2113 
L 3513 0 
L 2938 0 
L 2938 2094 
Q 2938 2591 2744 2837 
Q 2550 3084 2163 3084 
Q 1697 3084 1428 2787 
Q 1159 2491 1159 1978 
L 1159 0 
L 581 0 
L 581 3500 
L 1159 3500 
L 1159 2956 
Q 1366 3272 1645 3428 
Q 1925 3584 2291 3584 
Q 2894 3584 3203 3211 
Q 3513 2838 3513 2113 
z
" transform="scale(0.015625)"/>
       </defs>
       <use xlink:href="#DejaVuSans-35"/>
       <use xlink:href="#DejaVuSans-30" x="63.623047"/>
       <use xlink:href="#DejaVuSans-20" x="127.246094"/>
       <use xlink:href="#DejaVuSans-6e" x="159.033203"/>
       <use xlink:href="#DejaVuSans-73" x="222.412109"/>
      </g>
     </g>
    </g>
    <g id="xtick_27">
     <g id="line2d_77">
      <path d="M 463.68 576.72 
L 463.68 483.988966 
" clip-path="url(#pc9ada80611)" style="fill: none; stroke-dasharray: 1.85,0.8; stroke-dashoffset: 0; stroke: #b2b2b2; stroke-width: 0.5"/>
     </g>
     <g id="line2d_78">
      <g>
       <use xlink:href="#m1f8c6a1ac4" x="463.68" y="576.72" style="stroke: #000000; stroke-width: 0.8"/>
      </g>
     </g>
     <g id="text_17">
      <!-- 100 ns -->
      <g transform="translate(440.01125 590.857813) scale(0.14 -0.14)">
       <use xlink:href="#DejaVuSans-31"/>
       <use xlink:href="#DejaVuSans-30" x="63.623047"/>
       <use xlink:href="#DejaVuSans-30" x="127.246094"/>
       <use xlink:href="#DejaVuSans-20" x="190.869141"/>
       <use xlink:href="#DejaVuSans-6e" x="222.65625"/>
       <use xlink:href="#DejaVuSans-73" x="286.035156"/>
      </g>
     </g>
    </g>
    <g id="xtick_28">
     <g id="line2d_79">
      <path d="M 624.96 576.72 
L 624.96 483.988966 
" clip-path="url(#pc9ada80611)" style="fill: none; stroke-dasharray: 1.85,0.8; stroke-dashoffset: 0; stroke: #b2b2b2; stroke-width: 0.5"/>
     </g>
     <g id="line2d_80">
      <g>
       <use xlink:href="#m1f8c6a1ac4" x="624.96" y="576.72" style="stroke: #000000; stroke-width: 0.8"/>
      </g>
     </g>
     <g id="text_18">
      <!-- 150 ns -->
      <g transform="translate(601.29125 590.857813) scale(0.14 -0.14)">
       <use xlink:href="#DejaVuSans-31"/>
       <use xlink:href="#DejaVuSans-35" x="63.623047"/>
       <use xlink:href="#DejaVuSans-30" x="127.246094"/>
       <use xlink:href="#DejaVuSans-20" x="190.869141"/>
       <use xlink:href="#DejaVuSans-6e" x="222.65625"/>
       <use xlink:href="#DejaVuSans-73" x="286.035156"/>
      </g>
     </g>
    </g>
    <g id="xtick_29">
     <g id="line2d_81">
      <path d="M 786.24 576.72 
L 786.24 483.988966 
" clip-path="url(#pc9ada80611)" style="fill: none; stroke-dasharray: 1.85,0.8; stroke-dashoffset: 0; stroke: #b2b2b2; stroke-width: 0.5"/>
     </g>
     <g id="line2d_82">
      <g>
       <use xlink:href="#m1f8c6a1ac4" x="786.24" y="576.72" style="stroke: #000000; stroke-width: 0.8"/>
      </g>
     </g>
     <g id="text_19">
      <!-- 200 ns -->
      <g transform="translate(762.57125 590.857813) scale(0.14 -0.14)">
       <use xlink:href="#DejaVuSans-32"/>
       <use xlink:href="#DejaVuSans-30" x="63.623047"/>
       <use xlink:href="#DejaVuSans-30" x="127.246094"/>
       <use xlink:href="#DejaVuSans-20" x="190.869141"/>
       <use xlink:href="#DejaVuSans-6e" x="222.65625"/>
       <use xlink:href="#DejaVuSans-73" x="286.035156"/>
      </g>
     </g>
    </g>
    <g id="xtick_30">
     <g id="line2d_83">
      <path d="M 947.52 576.72 
L 947.52 483.988966 
" clip-path="url(#pc9ada80611)" style="fill: none; stroke-dasharray: 1.85,0.8; stroke-dashoffset: 0; stroke: #b2b2b2; stroke-width: 0.5"/>
     </g>
     <g id="line2d_84">
      <g>
       <use xlink:href="#m1f8c6a1ac4" x="947.52" y="576.72" style="stroke: #000000; stroke-width: 0.8"/>
      </g>
     </g>
     <g id="text_20">
      <!-- 250 ns -->
      <g transform="translate(923.85125 590.857813) scale(0.14 -0.14)">
       <use xlink:href="#DejaVuSans-32"/>
       <use xlink:href="#DejaVuSans-35" x="63.623047"/>
       <use xlink:href="#DejaVuSans-30" x="127.246094"/>
       <use xlink:href="#DejaVuSans-20" x="190.869141"/>
       <use xlink:href="#DejaVuSans-6e" x="222.65625"/>
       <use xlink:href="#DejaVuSans-73" x="286.035156"/>
      </g>
     </g>
    </g>
    <g id="text_21">
     <!-- Time -->
     <g transform="translate(527.192969 608.407187) scale(0.14 -0.14)">
      <defs>
       <path id="DejaVuSans-69" d="M 603 3500 
L 1178 3500 
L 1178 0 
L 603 0 
L 603 3500 
z
M 603 4863 
L 1178 4863 
L 1178 4134 
L 603 4134 
L 603 4863 
z
" transform="scale(0.015625)"/>
       <path id="DejaVuSans-6d" d="M 3328 2828 
Q 3544 3216 3844 3400 
Q 4144 3584 4550 3584 
Q 5097 3584 5394 3201 
Q 5691 2819 5691 2113 
L 5691 0 
L 5113 0 
L 5113 2094 
Q 5113 2597 4934 2840 
Q 4756 3084 4391 3084 
Q 3944 3084 3684 2787 
Q 3425 2491 3425 1978 
L 3425 0 
L 2847 0 
L 2847 2094 
Q 2847 2600 2669 2842 
Q 2491 3084 2119 3084 
Q 1678 3084 1418 2786 
Q 1159 2488 1159 1978 
L 1159 0 
L 581 0 
L 581 3500 
L 1159 3500 
L 1159 2956 
Q 1356 3278 1631 3431 
Q 1906 3584 2284 3584 
Q 2666 3584 2933 3390 
Q 3200 3197 3328 2828 
z
" transform="scale(0.015625)"/>
       <path id="DejaVuSans-65" d="M 3597 1894 
L 3597 1613 
L 953 1613 
Q 991 1019 1311 708 
Q 1631 397 2203 397 
Q 2534 397 2845 478 
Q 3156 559 3463 722 
L 3463 178 
Q 3153 47 2828 -22 
Q 2503 -91 2169 -91 
Q 1331 -91 842 396 
Q 353 884 353 1716 
Q 353 2575 817 3079 
Q 1281 3584 2069 3584 
Q 2775 3584 3186 3129 
Q 3597 2675 3597 1894 
z
M 3022 2063 
Q 3016 2534 2758 2815 
Q 2500 3097 2075 3097 
Q 1594 3097 1305 2825 
Q 1016 2553 972 2059 
L 3022 2063 
z
" transform="scale(0.015625)"/>
      </defs>
      <use xlink:href="#DejaVuSans-54"/>
      <use xlink:href="#DejaVuSans-69" x="57.958984"/>
      <use xlink:href="#DejaVuSans-6d" x="85.742188"/>
      <use xlink:href="#DejaVuSans-65" x="183.154297"/>
     </g>
    </g>
   </g>
   <g id="matplotlib.axis_10">
    <g id="ytick_11">
     <g id="line2d_85">
      <path d="M 100.8 569.757341 
L 987.84 569.757341 
" clip-path="url(#pc9ada80611)" style="fill: none; stroke-dasharray: 1.85,0.8; stroke-dashoffset: 0; stroke: #b2b2b2; stroke-width: 0.5"/>
     </g>
     <g id="line2d_86">
      <g>
       <use xlink:href="#m938e0a950e" x="100.8" y="569.757341" style="stroke: #000000; stroke-width: 0.8"/>
      </g>
     </g>
     <g id="text_22">
      <!-- 0 V -->
      <g transform="translate(74.36625 575.076247) scale(0.14 -0.14)">
       <use xlink:href="#DejaVuSans-30"/>
       <use xlink:href="#DejaVuSans-20" x="63.623047"/>
       <use xlink:href="#DejaVuSans-56" x="95.410156"/>
      </g>
     </g>
    </g>
    <g id="ytick_12">
     <g id="line2d_87">
      <path d="M 100.8 536.102121 
L 987.84 536.102121 
" clip-path="url(#pc9ada80611)" style="fill: none; stroke-dasharray: 1.85,0.8; stroke-dashoffset: 0; stroke: #b2b2b2; stroke-width: 0.5"/>
     </g>
     <g id="line2d_88">
      <g>
       <use xlink:href="#m938e0a950e" x="100.8" y="536.102121" style="stroke: #000000; stroke-width: 0.8"/>
      </g>
     </g>
     <g id="text_23">
      <!-- 500 mV -->
      <g transform="translate(42.914375 541.421027) scale(0.14 -0.14)">
       <use xlink:href="#DejaVuSans-35"/>
       <use xlink:href="#DejaVuSans-30" x="63.623047"/>
       <use xlink:href="#DejaVuSans-30" x="127.246094"/>
       <use xlink:href="#DejaVuSans-20" x="190.869141"/>
       <use xlink:href="#DejaVuSans-6d" x="222.65625"/>
       <use xlink:href="#DejaVuSans-56" x="320.068359"/>
      </g>
     </g>
    </g>
    <g id="ytick_13">
     <g id="line2d_89">
      <path d="M 100.8 502.446902 
L 987.84 502.446902 
" clip-path="url(#pc9ada80611)" style="fill: none; stroke-dasharray: 1.85,0.8; stroke-dashoffset: 0; stroke: #b2b2b2; stroke-width: 0.5"/>
     </g>
     <g id="line2d_90">
      <g>
       <use xlink:href="#m938e0a950e" x="100.8" y="502.446902" style="stroke: #000000; stroke-width: 0.8"/>
      </g>
     </g>
     <g id="text_24">
      <!-- 1 V -->
      <g transform="translate(74.36625 507.765808) scale(0.14 -0.14)">
       <use xlink:href="#DejaVuSans-31"/>
       <use xlink:href="#DejaVuSans-20" x="63.623047"/>
       <use xlink:href="#DejaVuSans-56" x="95.410156"/>
      </g>
     </g>
    </g>
    <g id="text_25">
     <g id="patch_27">
      <path d="M 34.8768 554.329483 
L 34.8768 506.379483 
L 11.247425 506.379483 
L 11.247425 554.329483 
z
" style="fill: #ffff00; opacity: 0.2; stroke: #eeeeee; stroke-width: 0.5; stroke-linejoin: miter"/>
     </g>
     <!-- FOUT -->
     <g transform="translate(26.925238 549.289483) rotate(-90) scale(0.14 -0.14)">
      <use xlink:href="#DejaVuSans-46"/>
      <use xlink:href="#DejaVuSans-4f" x="57.519531"/>
      <use xlink:href="#DejaVuSans-55" x="136.230469"/>
      <use xlink:href="#DejaVuSans-54" x="209.423828"/>
     </g>
    </g>
   </g>
   <g id="line2d_91">
    <path d="M 141.12 488.984814 
L 173.472768 488.991545 
L 173.505024 488.796344 
L 173.569536 526.979537 
L 173.69856 572.504953 
L 173.730816 572.370063 
L 173.827584 567.861475 
L 173.892096 569.373954 
L 174.053376 570.074326 
L 174.117888 569.957287 
L 174.408192 569.504563 
L 174.440448 569.553814 
L 174.66624 569.741476 
L 176.182272 569.75163 
L 180.14976 569.772553 
L 193.729536 569.762601 
L 213.018624 569.755471 
L 255.30624 569.755169 
L 255.6288 488.877117 
L 255.854592 489.018469 
L 256.209408 488.978083 
L 334.849536 488.998276 
L 334.881792 493.184985 
L 335.043072 572.185094 
L 335.107584 570.270522 
L 335.172096 568.355937 
L 335.236608 568.885199 
L 335.365632 570.790152 
L 335.430144 570.41878 
L 335.591424 569.808455 
L 335.881728 569.660299 
L 336.559104 569.82908 
L 337.107456 569.757597 
L 350.042112 569.755669 
L 417.55392 569.746851 
L 417.586176 568.992021 
L 417.650688 548.544456 
L 417.811968 489.792539 
L 417.940992 488.991545 
L 423.489024 488.924234 
L 423.52128 488.816538 
L 423.553536 488.856924 
L 423.585792 492.935936 
L 423.747072 570.258743 
L 423.811584 569.748309 
L 424.037376 569.75568 
L 469.453824 569.773353 
L 469.550592 569.738779 
L 469.711872 569.764207 
L 469.96992 569.797484 
L 470.034432 566.533575 
L 470.389248 488.991545 
L 496.129536 488.998276 
L 496.161792 488.204013 
L 496.323072 569.869931 
L 496.387584 569.755452 
L 513.321984 569.75586 
L 577.70496 569.749055 
L 577.737216 569.983995 
L 577.801728 551.538424 
L 577.963008 489.832925 
L 578.092032 488.991545 
L 947.52 488.984814 
L 947.52 488.984814 
" clip-path="url(#pc9ada80611)" style="fill: none; stroke: #ff00ff; stroke-width: 2; stroke-linecap: square"/>
   </g>
   <g id="patch_28">
    <path d="M 100.8 576.72 
L 100.8 483.988966 
" style="fill: none; stroke: #bcbcbc; stroke-width: 0.8; stroke-linejoin: miter; stroke-linecap: square"/>
   </g>
   <g id="patch_29">
    <path d="M 987.84 576.72 
L 987.84 483.988966 
" style="fill: none; stroke: #bcbcbc; stroke-width: 0.8; stroke-linejoin: miter; stroke-linecap: square"/>
   </g>
   <g id="patch_30">
    <path d="M 100.8 576.72 
L 987.84 576.72 
" style="fill: none; stroke: #bcbcbc; stroke-width: 0.8; stroke-linejoin: miter; stroke-linecap: square"/>
   </g>
   <g id="patch_31">
    <path d="M 100.8 483.988966 
L 987.84 483.988966 
" style="fill: none; stroke: #bcbcbc; stroke-width: 0.8; stroke-linejoin: miter; stroke-linecap: square"/>
   </g>
  </g>
  <g id="axes_6">
   <g id="patch_32">
    <path d="M 201.6 628.56 
L 856.8 628.56 
L 856.8 615.6 
L 201.6 615.6 
z
" clip-path="url(#pae8b6a6960)" style="fill: #d3d3d3"/>
   </g>
   <g id="patch_33">
    <path d="M 201.6 628.56 
L 519.84 628.56 
L 519.84 615.6 
L 201.6 615.6 
z
" clip-path="url(#pae8b6a6960)" style="fill: #0000ff"/>
   </g>
   <g id="line2d_92">
    <path d="M 201.6 635.04 
L 201.6 609.12 
" clip-path="url(#p7e8ebeedd1)" style="fill: none; stroke: #ff0000; stroke-linecap: square"/>
   </g>
   <g id="line2d_93">
    <defs>
     <path id="m1decea5c77" d="M 0 5 
C 1.326016 5 2.597899 4.473168 3.535534 3.535534 
C 4.473168 2.597899 5 1.326016 5 0 
C 5 -1.326016 4.473168 -2.597899 3.535534 -3.535534 
C 2.597899 -4.473168 1.326016 -5 0 -5 
C -1.326016 -5 -2.597899 -4.473168 -3.535534 -3.535534 
C -4.473168 -2.597899 -5 -1.326016 -5 0 
C -5 1.326016 -4.473168 2.597899 -3.535534 3.535534 
C -2.597899 4.473168 -1.326016 5 0 5 
z
" style="stroke: #bfbfbf"/>
    </defs>
    <g>
     <use xlink:href="#m1decea5c77" x="519.84" y="622.08" style="fill: #ffffff; stroke: #bfbfbf"/>
    </g>
   </g>
   <g id="text_26">
    <!-- #Sweep -->
    <g transform="translate(138.622875 625.39125) scale(0.12 -0.12)">
     <defs>
      <path id="DejaVuSans-23" d="M 3272 2816 
L 2363 2816 
L 2100 1772 
L 3016 1772 
L 3272 2816 
z
M 2803 4594 
L 2478 3297 
L 3391 3297 
L 3719 4594 
L 4219 4594 
L 3897 3297 
L 4872 3297 
L 4872 2816 
L 3775 2816 
L 3519 1772 
L 4513 1772 
L 4513 1294 
L 3397 1294 
L 3072 0 
L 2572 0 
L 2894 1294 
L 1978 1294 
L 1656 0 
L 1153 0 
L 1478 1294 
L 494 1294 
L 494 1772 
L 1594 1772 
L 1856 2816 
L 850 2816 
L 850 3297 
L 1978 3297 
L 2297 4594 
L 2803 4594 
z
" transform="scale(0.015625)"/>
      <path id="DejaVuSans-77" d="M 269 3500 
L 844 3500 
L 1563 769 
L 2278 3500 
L 2956 3500 
L 3675 769 
L 4391 3500 
L 4966 3500 
L 4050 0 
L 3372 0 
L 2619 2869 
L 1863 0 
L 1184 0 
L 269 3500 
z
" transform="scale(0.015625)"/>
      <path id="DejaVuSans-70" d="M 1159 525 
L 1159 -1331 
L 581 -1331 
L 581 3500 
L 1159 3500 
L 1159 2969 
Q 1341 3281 1617 3432 
Q 1894 3584 2278 3584 
Q 2916 3584 3314 3078 
Q 3713 2572 3713 1747 
Q 3713 922 3314 415 
Q 2916 -91 2278 -91 
Q 1894 -91 1617 61 
Q 1341 213 1159 525 
z
M 3116 1747 
Q 3116 2381 2855 2742 
Q 2594 3103 2138 3103 
Q 1681 3103 1420 2742 
Q 1159 2381 1159 1747 
Q 1159 1113 1420 752 
Q 1681 391 2138 391 
Q 2594 391 2855 752 
Q 3116 1113 3116 1747 
z
" transform="scale(0.015625)"/>
     </defs>
     <use xlink:href="#DejaVuSans-23"/>
     <use xlink:href="#DejaVuSans-53" x="83.789062"/>
     <use xlink:href="#DejaVuSans-77" x="147.265625"/>
     <use xlink:href="#DejaVuSans-65" x="229.052734"/>
     <use xlink:href="#DejaVuSans-65" x="290.576172"/>
     <use xlink:href="#DejaVuSans-70" x="352.099609"/>
    </g>
   </g>
   <g id="text_27">
    <!-- $\mathdefault{68}$ -->
    <g transform="translate(869.904 625.39125) scale(0.12 -0.12)">
     <defs>
      <path id="DejaVuSans-36" d="M 2113 2584 
Q 1688 2584 1439 2293 
Q 1191 2003 1191 1497 
Q 1191 994 1439 701 
Q 1688 409 2113 409 
Q 2538 409 2786 701 
Q 3034 994 3034 1497 
Q 3034 2003 2786 2293 
Q 2538 2584 2113 2584 
z
M 3366 4563 
L 3366 3988 
Q 3128 4100 2886 4159 
Q 2644 4219 2406 4219 
Q 1781 4219 1451 3797 
Q 1122 3375 1075 2522 
Q 1259 2794 1537 2939 
Q 1816 3084 2150 3084 
Q 2853 3084 3261 2657 
Q 3669 2231 3669 1497 
Q 3669 778 3244 343 
Q 2819 -91 2113 -91 
Q 1303 -91 875 529 
Q 447 1150 447 2328 
Q 447 3434 972 4092 
Q 1497 4750 2381 4750 
Q 2619 4750 2861 4703 
Q 3103 4656 3366 4563 
z
" transform="scale(0.015625)"/>
      <path id="DejaVuSans-38" d="M 2034 2216 
Q 1584 2216 1326 1975 
Q 1069 1734 1069 1313 
Q 1069 891 1326 650 
Q 1584 409 2034 409 
Q 2484 409 2743 651 
Q 3003 894 3003 1313 
Q 3003 1734 2745 1975 
Q 2488 2216 2034 2216 
z
M 1403 2484 
Q 997 2584 770 2862 
Q 544 3141 544 3541 
Q 544 4100 942 4425 
Q 1341 4750 2034 4750 
Q 2731 4750 3128 4425 
Q 3525 4100 3525 3541 
Q 3525 3141 3298 2862 
Q 3072 2584 2669 2484 
Q 3125 2378 3379 2068 
Q 3634 1759 3634 1313 
Q 3634 634 3220 271 
Q 2806 -91 2034 -91 
Q 1263 -91 848 271 
Q 434 634 434 1313 
Q 434 1759 690 2068 
Q 947 2378 1403 2484 
z
M 1172 3481 
Q 1172 3119 1398 2916 
Q 1625 2713 2034 2713 
Q 2441 2713 2670 2916 
Q 2900 3119 2900 3481 
Q 2900 3844 2670 4047 
Q 2441 4250 2034 4250 
Q 1625 4250 1398 4047 
Q 1172 3844 1172 3481 
z
" transform="scale(0.015625)"/>
     </defs>
     <use xlink:href="#DejaVuSans-36" transform="translate(0 0.78125)"/>
     <use xlink:href="#DejaVuSans-38" transform="translate(63.623047 0.78125)"/>
    </g>
   </g>
  </g>
  <g id="text_28">
   <!-- DFF under BBI sweep analysis (Sweep = 78E-9) -->
   <g transform="translate(313.34625 25.1175) scale(0.16 -0.16)">
    <defs>
     <path id="DejaVuSans-75" d="M 544 1381 
L 544 3500 
L 1119 3500 
L 1119 1403 
Q 1119 906 1312 657 
Q 1506 409 1894 409 
Q 2359 409 2629 706 
Q 2900 1003 2900 1516 
L 2900 3500 
L 3475 3500 
L 3475 0 
L 2900 0 
L 2900 538 
Q 2691 219 2414 64 
Q 2138 -91 1772 -91 
Q 1169 -91 856 284 
Q 544 659 544 1381 
z
M 1991 3584 
L 1991 3584 
z
" transform="scale(0.015625)"/>
     <path id="DejaVuSans-64" d="M 2906 2969 
L 2906 4863 
L 3481 4863 
L 3481 0 
L 2906 0 
L 2906 525 
Q 2725 213 2448 61 
Q 2172 -91 1784 -91 
Q 1150 -91 751 415 
Q 353 922 353 1747 
Q 353 2572 751 3078 
Q 1150 3584 1784 3584 
Q 2172 3584 2448 3432 
Q 2725 3281 2906 2969 
z
M 947 1747 
Q 947 1113 1208 752 
Q 1469 391 1925 391 
Q 2381 391 2643 752 
Q 2906 1113 2906 1747 
Q 2906 2381 2643 2742 
Q 2381 3103 1925 3103 
Q 1469 3103 1208 2742 
Q 947 2381 947 1747 
z
" transform="scale(0.015625)"/>
     <path id="DejaVuSans-72" d="M 2631 2963 
Q 2534 3019 2420 3045 
Q 2306 3072 2169 3072 
Q 1681 3072 1420 2755 
Q 1159 2438 1159 1844 
L 1159 0 
L 581 0 
L 581 3500 
L 1159 3500 
L 1159 2956 
Q 1341 3275 1631 3429 
Q 1922 3584 2338 3584 
Q 2397 3584 2469 3576 
Q 2541 3569 2628 3553 
L 2631 2963 
z
" transform="scale(0.015625)"/>
     <path id="DejaVuSans-61" d="M 2194 1759 
Q 1497 1759 1228 1600 
Q 959 1441 959 1056 
Q 959 750 1161 570 
Q 1363 391 1709 391 
Q 2188 391 2477 730 
Q 2766 1069 2766 1631 
L 2766 1759 
L 2194 1759 
z
M 3341 1997 
L 3341 0 
L 2766 0 
L 2766 531 
Q 2569 213 2275 61 
Q 1981 -91 1556 -91 
Q 1019 -91 701 211 
Q 384 513 384 1019 
Q 384 1609 779 1909 
Q 1175 2209 1959 2209 
L 2766 2209 
L 2766 2266 
Q 2766 2663 2505 2880 
Q 2244 3097 1772 3097 
Q 1472 3097 1187 3025 
Q 903 2953 641 2809 
L 641 3341 
Q 956 3463 1253 3523 
Q 1550 3584 1831 3584 
Q 2591 3584 2966 3190 
Q 3341 2797 3341 1997 
z
" transform="scale(0.015625)"/>
     <path id="DejaVuSans-6c" d="M 603 4863 
L 1178 4863 
L 1178 0 
L 603 0 
L 603 4863 
z
" transform="scale(0.015625)"/>
     <path id="DejaVuSans-79" d="M 2059 -325 
Q 1816 -950 1584 -1140 
Q 1353 -1331 966 -1331 
L 506 -1331 
L 506 -850 
L 844 -850 
Q 1081 -850 1212 -737 
Q 1344 -625 1503 -206 
L 1606 56 
L 191 3500 
L 800 3500 
L 1894 763 
L 2988 3500 
L 3597 3500 
L 2059 -325 
z
" transform="scale(0.015625)"/>
     <path id="DejaVuSans-28" d="M 1984 4856 
Q 1566 4138 1362 3434 
Q 1159 2731 1159 2009 
Q 1159 1288 1364 580 
Q 1569 -128 1984 -844 
L 1484 -844 
Q 1016 -109 783 600 
Q 550 1309 550 2009 
Q 550 2706 781 3412 
Q 1013 4119 1484 4856 
L 1984 4856 
z
" transform="scale(0.015625)"/>
     <path id="DejaVuSans-3d" d="M 678 2906 
L 4684 2906 
L 4684 2381 
L 678 2381 
L 678 2906 
z
M 678 1631 
L 4684 1631 
L 4684 1100 
L 678 1100 
L 678 1631 
z
" transform="scale(0.015625)"/>
     <path id="DejaVuSans-37" d="M 525 4666 
L 3525 4666 
L 3525 4397 
L 1831 0 
L 1172 0 
L 2766 4134 
L 525 4134 
L 525 4666 
z
" transform="scale(0.015625)"/>
     <path id="DejaVuSans-2d" d="M 313 2009 
L 1997 2009 
L 1997 1497 
L 313 1497 
L 313 2009 
z
" transform="scale(0.015625)"/>
     <path id="DejaVuSans-39" d="M 703 97 
L 703 672 
Q 941 559 1184 500 
Q 1428 441 1663 441 
Q 2288 441 2617 861 
Q 2947 1281 2994 2138 
Q 2813 1869 2534 1725 
Q 2256 1581 1919 1581 
Q 1219 1581 811 2004 
Q 403 2428 403 3163 
Q 403 3881 828 4315 
Q 1253 4750 1959 4750 
Q 2769 4750 3195 4129 
Q 3622 3509 3622 2328 
Q 3622 1225 3098 567 
Q 2575 -91 1691 -91 
Q 1453 -91 1209 -44 
Q 966 3 703 97 
z
M 1959 2075 
Q 2384 2075 2632 2365 
Q 2881 2656 2881 3163 
Q 2881 3666 2632 3958 
Q 2384 4250 1959 4250 
Q 1534 4250 1286 3958 
Q 1038 3666 1038 3163 
Q 1038 2656 1286 2365 
Q 1534 2075 1959 2075 
z
" transform="scale(0.015625)"/>
     <path id="DejaVuSans-29" d="M 513 4856 
L 1013 4856 
Q 1481 4119 1714 3412 
Q 1947 2706 1947 2009 
Q 1947 1309 1714 600 
Q 1481 -109 1013 -844 
L 513 -844 
Q 928 -128 1133 580 
Q 1338 1288 1338 2009 
Q 1338 2731 1133 3434 
Q 928 4138 513 4856 
z
" transform="scale(0.015625)"/>
    </defs>
    <use xlink:href="#DejaVuSans-44"/>
    <use xlink:href="#DejaVuSans-46" x="77.001953"/>
    <use xlink:href="#DejaVuSans-46" x="134.521484"/>
    <use xlink:href="#DejaVuSans-20" x="192.041016"/>
    <use xlink:href="#DejaVuSans-75" x="223.828125"/>
    <use xlink:href="#DejaVuSans-6e" x="287.207031"/>
    <use xlink:href="#DejaVuSans-64" x="350.585938"/>
    <use xlink:href="#DejaVuSans-65" x="414.0625"/>
    <use xlink:href="#DejaVuSans-72" x="475.585938"/>
    <use xlink:href="#DejaVuSans-20" x="516.699219"/>
    <use xlink:href="#DejaVuSans-42" x="548.486328"/>
    <use xlink:href="#DejaVuSans-42" x="617.089844"/>
    <use xlink:href="#DejaVuSans-49" x="685.693359"/>
    <use xlink:href="#DejaVuSans-20" x="715.185547"/>
    <use xlink:href="#DejaVuSans-73" x="746.972656"/>
    <use xlink:href="#DejaVuSans-77" x="799.072266"/>
    <use xlink:href="#DejaVuSans-65" x="880.859375"/>
    <use xlink:href="#DejaVuSans-65" x="942.382812"/>
    <use xlink:href="#DejaVuSans-70" x="1003.90625"/>
    <use xlink:href="#DejaVuSans-20" x="1067.382812"/>
    <use xlink:href="#DejaVuSans-61" x="1099.169922"/>
    <use xlink:href="#DejaVuSans-6e" x="1160.449219"/>
    <use xlink:href="#DejaVuSans-61" x="1223.828125"/>
    <use xlink:href="#DejaVuSans-6c" x="1285.107422"/>
    <use xlink:href="#DejaVuSans-79" x="1312.890625"/>
    <use xlink:href="#DejaVuSans-73" x="1372.070312"/>
    <use xlink:href="#DejaVuSans-69" x="1424.169922"/>
    <use xlink:href="#DejaVuSans-73" x="1451.953125"/>
    <use xlink:href="#DejaVuSans-20" x="1504.052734"/>
    <use xlink:href="#DejaVuSans-28" x="1535.839844"/>
    <use xlink:href="#DejaVuSans-53" x="1574.853516"/>
    <use xlink:href="#DejaVuSans-77" x="1638.330078"/>
    <use xlink:href="#DejaVuSans-65" x="1720.117188"/>
    <use xlink:href="#DejaVuSans-65" x="1781.640625"/>
    <use xlink:href="#DejaVuSans-70" x="1843.164062"/>
    <use xlink:href="#DejaVuSans-20" x="1906.640625"/>
    <use xlink:href="#DejaVuSans-3d" x="1938.427734"/>
    <use xlink:href="#DejaVuSans-20" x="2022.216797"/>
    <use xlink:href="#DejaVuSans-37" x="2054.003906"/>
    <use xlink:href="#DejaVuSans-38" x="2117.626953"/>
    <use xlink:href="#DejaVuSans-45" x="2181.25"/>
    <use xlink:href="#DejaVuSans-2d" x="2244.433594"/>
    <use xlink:href="#DejaVuSans-39" x="2280.517578"/>
    <use xlink:href="#DejaVuSans-29" x="2344.140625"/>
   </g>
  </g>
 </g>
 <defs>
  <clipPath id="pcfaa9b8502">
   <rect x="100.8" y="38.88" width="887.04" height="92.731034"/>
  </clipPath>
  <clipPath id="pb6be1bb0dc">
   <rect x="100.8" y="150.157241" width="887.04" height="92.731034"/>
  </clipPath>
  <clipPath id="p809d302dfd">
   <rect x="100.8" y="261.434483" width="887.04" height="92.731034"/>
  </clipPath>
  <clipPath id="p4a5164106f">
   <rect x="100.8" y="372.711724" width="887.04" height="92.731034"/>
  </clipPath>
  <clipPath id="pc9ada80611">
   <rect x="100.8" y="483.988966" width="887.04" height="92.731034"/>
  </clipPath>
  <clipPath id="pae8b6a6960">
   <rect x="201.6" y="609.12" width="655.2" height="25.92"/>
  </clipPath>
  <clipPath id="p7e8ebeedd1">
   <path d="M 201.6 628.56 
L 856.8 628.56 
L 856.8 615.6 
L 201.6 615.6 
z
"/>
  </clipPath>
 </defs>
</svg>
