<?xml version="1.0" encoding="utf-8" standalone="no"?>
<!DOCTYPE svg PUBLIC "-//W3C//DTD SVG 1.1//EN"
  "http://www.w3.org/Graphics/SVG/1.1/DTD/svg11.dtd">
<svg xmlns:xlink="http://www.w3.org/1999/xlink" width="1008pt" height="648pt" viewBox="0 0 1008 648" xmlns="http://www.w3.org/2000/svg" version="1.1">
 <metadata>
  <rdf:RDF xmlns:dc="http://purl.org/dc/elements/1.1/" xmlns:cc="http://creativecommons.org/ns#" xmlns:rdf="http://www.w3.org/1999/02/22-rdf-syntax-ns#">
   <cc:Work>
    <dc:type rdf:resource="http://purl.org/dc/dcmitype/StillImage"/>
    <dc:date>2024-06-03T10:45:28.924803</dc:date>
    <dc:format>image/svg+xml</dc:format>
    <dc:creator>
     <cc:Agent>
      <dc:title>Matplotlib v3.9.0, https://matplotlib.org/</dc:title>
     </cc:Agent>
    </dc:creator>
   </cc:Work>
  </rdf:RDF>
 </metadata>
 <defs>
  <style type="text/css">*{stroke-linejoin: round; stroke-linecap: butt}</style>
 </defs>
 <g id="figure_1">
  <g id="patch_1">
   <path d="M 0 648 
L 1008 648 
L 1008 0 
L 0 0 
z
" style="fill: #ffffff"/>
  </g>
  <g id="axes_1">
   <g id="patch_2">
    <path d="M 100.8 131.611034 
L 987.84 131.611034 
L 987.84 38.88 
L 100.8 38.88 
z
" style="fill: #eeeeee"/>
   </g>
   <g id="matplotlib.axis_1">
    <g id="xtick_1">
     <g id="line2d_1">
      <path d="M 141.12 131.611034 
L 141.12 38.88 
" clip-path="url(#p29c52dc6e0)" style="fill: none; stroke-dasharray: 1.85,0.8; stroke-dashoffset: 0; stroke: #b2b2b2; stroke-width: 0.5"/>
     </g>
     <g id="line2d_2">
      <defs>
       <path id="m9253af44d2" d="M 0 0 
L 0 -3.5 
" style="stroke: #000000; stroke-width: 0.8"/>
      </defs>
      <g>
       <use xlink:href="#m9253af44d2" x="141.12" y="131.611034" style="stroke: #000000; stroke-width: 0.8"/>
      </g>
     </g>
    </g>
    <g id="xtick_2">
     <g id="line2d_3">
      <path d="M 302.4 131.611034 
L 302.4 38.88 
" clip-path="url(#p29c52dc6e0)" style="fill: none; stroke-dasharray: 1.85,0.8; stroke-dashoffset: 0; stroke: #b2b2b2; stroke-width: 0.5"/>
     </g>
     <g id="line2d_4">
      <g>
       <use xlink:href="#m9253af44d2" x="302.4" y="131.611034" style="stroke: #000000; stroke-width: 0.8"/>
      </g>
     </g>
    </g>
    <g id="xtick_3">
     <g id="line2d_5">
      <path d="M 463.68 131.611034 
L 463.68 38.88 
" clip-path="url(#p29c52dc6e0)" style="fill: none; stroke-dasharray: 1.85,0.8; stroke-dashoffset: 0; stroke: #b2b2b2; stroke-width: 0.5"/>
     </g>
     <g id="line2d_6">
      <g>
       <use xlink:href="#m9253af44d2" x="463.68" y="131.611034" style="stroke: #000000; stroke-width: 0.8"/>
      </g>
     </g>
    </g>
    <g id="xtick_4">
     <g id="line2d_7">
      <path d="M 624.96 131.611034 
L 624.96 38.88 
" clip-path="url(#p29c52dc6e0)" style="fill: none; stroke-dasharray: 1.85,0.8; stroke-dashoffset: 0; stroke: #b2b2b2; stroke-width: 0.5"/>
     </g>
     <g id="line2d_8">
      <g>
       <use xlink:href="#m9253af44d2" x="624.96" y="131.611034" style="stroke: #000000; stroke-width: 0.8"/>
      </g>
     </g>
    </g>
    <g id="xtick_5">
     <g id="line2d_9">
      <path d="M 786.24 131.611034 
L 786.24 38.88 
" clip-path="url(#p29c52dc6e0)" style="fill: none; stroke-dasharray: 1.85,0.8; stroke-dashoffset: 0; stroke: #b2b2b2; stroke-width: 0.5"/>
     </g>
     <g id="line2d_10">
      <g>
       <use xlink:href="#m9253af44d2" x="786.24" y="131.611034" style="stroke: #000000; stroke-width: 0.8"/>
      </g>
     </g>
    </g>
    <g id="xtick_6">
     <g id="line2d_11">
      <path d="M 947.52 131.611034 
L 947.52 38.88 
" clip-path="url(#p29c52dc6e0)" style="fill: none; stroke-dasharray: 1.85,0.8; stroke-dashoffset: 0; stroke: #b2b2b2; stroke-width: 0.5"/>
     </g>
     <g id="line2d_12">
      <g>
       <use xlink:href="#m9253af44d2" x="947.52" y="131.611034" style="stroke: #000000; stroke-width: 0.8"/>
      </g>
     </g>
    </g>
   </g>
   <g id="matplotlib.axis_2">
    <g id="ytick_1">
     <g id="line2d_13">
      <path d="M 100.8 98.340394 
L 987.84 98.340394 
" clip-path="url(#p29c52dc6e0)" style="fill: none; stroke-dasharray: 1.85,0.8; stroke-dashoffset: 0; stroke: #b2b2b2; stroke-width: 0.5"/>
     </g>
     <g id="line2d_14">
      <defs>
       <path id="mec10ec7dba" d="M 0 0 
L 3.5 0 
" style="stroke: #000000; stroke-width: 0.8"/>
      </defs>
      <g>
       <use xlink:href="#mec10ec7dba" x="100.8" y="98.340394" style="stroke: #000000; stroke-width: 0.8"/>
      </g>
     </g>
     <g id="text_1">
      <!-- −200 V -->
      <g transform="translate(44.819688 103.6593) scale(0.14 -0.14)">
       <defs>
        <path id="DejaVuSans-2212" d="M 678 2272 
L 4684 2272 
L 4684 1741 
L 678 1741 
L 678 2272 
z
" transform="scale(0.015625)"/>
        <path id="DejaVuSans-32" d="M 1228 531 
L 3431 531 
L 3431 0 
L 469 0 
L 469 531 
Q 828 903 1448 1529 
Q 2069 2156 2228 2338 
Q 2531 2678 2651 2914 
Q 2772 3150 2772 3378 
Q 2772 3750 2511 3984 
Q 2250 4219 1831 4219 
Q 1534 4219 1204 4116 
Q 875 4013 500 3803 
L 500 4441 
Q 881 4594 1212 4672 
Q 1544 4750 1819 4750 
Q 2544 4750 2975 4387 
Q 3406 4025 3406 3419 
Q 3406 3131 3298 2873 
Q 3191 2616 2906 2266 
Q 2828 2175 2409 1742 
Q 1991 1309 1228 531 
z
" transform="scale(0.015625)"/>
        <path id="DejaVuSans-30" d="M 2034 4250 
Q 1547 4250 1301 3770 
Q 1056 3291 1056 2328 
Q 1056 1369 1301 889 
Q 1547 409 2034 409 
Q 2525 409 2770 889 
Q 3016 1369 3016 2328 
Q 3016 3291 2770 3770 
Q 2525 4250 2034 4250 
z
M 2034 4750 
Q 2819 4750 3233 4129 
Q 3647 3509 3647 2328 
Q 3647 1150 3233 529 
Q 2819 -91 2034 -91 
Q 1250 -91 836 529 
Q 422 1150 422 2328 
Q 422 3509 836 4129 
Q 1250 4750 2034 4750 
z
" transform="scale(0.015625)"/>
        <path id="DejaVuSans-20" transform="scale(0.015625)"/>
        <path id="DejaVuSans-56" d="M 1831 0 
L 50 4666 
L 709 4666 
L 2188 738 
L 3669 4666 
L 4325 4666 
L 2547 0 
L 1831 0 
z
" transform="scale(0.015625)"/>
       </defs>
       <use xlink:href="#DejaVuSans-2212"/>
       <use xlink:href="#DejaVuSans-32" x="83.789062"/>
       <use xlink:href="#DejaVuSans-30" x="147.412109"/>
       <use xlink:href="#DejaVuSans-30" x="211.035156"/>
       <use xlink:href="#DejaVuSans-20" x="274.658203"/>
       <use xlink:href="#DejaVuSans-56" x="306.445312"/>
      </g>
     </g>
    </g>
    <g id="ytick_2">
     <g id="line2d_15">
      <path d="M 100.8 45.027377 
L 987.84 45.027377 
" clip-path="url(#p29c52dc6e0)" style="fill: none; stroke-dasharray: 1.85,0.8; stroke-dashoffset: 0; stroke: #b2b2b2; stroke-width: 0.5"/>
     </g>
     <g id="line2d_16">
      <g>
       <use xlink:href="#mec10ec7dba" x="100.8" y="45.027377" style="stroke: #000000; stroke-width: 0.8"/>
      </g>
     </g>
     <g id="text_2">
      <!-- 0 V -->
      <g transform="translate(74.36625 50.346284) scale(0.14 -0.14)">
       <use xlink:href="#DejaVuSans-30"/>
       <use xlink:href="#DejaVuSans-20" x="63.623047"/>
       <use xlink:href="#DejaVuSans-56" x="95.410156"/>
      </g>
     </g>
    </g>
    <g id="text_3">
     <g id="patch_3">
      <path d="M 34.8768 131.080205 
L 34.8768 39.41083 
L 11.247425 39.41083 
L 11.247425 131.080205 
z
" style="fill: #ffff00; opacity: 0.2; stroke: #eeeeee; stroke-width: 0.5; stroke-linejoin: miter"/>
     </g>
     <!-- VPULSE BBI -->
     <g transform="translate(26.925238 126.040205) rotate(-90) scale(0.14 -0.14)">
      <defs>
       <path id="DejaVuSans-50" d="M 1259 4147 
L 1259 2394 
L 2053 2394 
Q 2494 2394 2734 2622 
Q 2975 2850 2975 3272 
Q 2975 3691 2734 3919 
Q 2494 4147 2053 4147 
L 1259 4147 
z
M 628 4666 
L 2053 4666 
Q 2838 4666 3239 4311 
Q 3641 3956 3641 3272 
Q 3641 2581 3239 2228 
Q 2838 1875 2053 1875 
L 1259 1875 
L 1259 0 
L 628 0 
L 628 4666 
z
" transform="scale(0.015625)"/>
       <path id="DejaVuSans-55" d="M 556 4666 
L 1191 4666 
L 1191 1831 
Q 1191 1081 1462 751 
Q 1734 422 2344 422 
Q 2950 422 3222 751 
Q 3494 1081 3494 1831 
L 3494 4666 
L 4128 4666 
L 4128 1753 
Q 4128 841 3676 375 
Q 3225 -91 2344 -91 
Q 1459 -91 1007 375 
Q 556 841 556 1753 
L 556 4666 
z
" transform="scale(0.015625)"/>
       <path id="DejaVuSans-4c" d="M 628 4666 
L 1259 4666 
L 1259 531 
L 3531 531 
L 3531 0 
L 628 0 
L 628 4666 
z
" transform="scale(0.015625)"/>
       <path id="DejaVuSans-53" d="M 3425 4513 
L 3425 3897 
Q 3066 4069 2747 4153 
Q 2428 4238 2131 4238 
Q 1616 4238 1336 4038 
Q 1056 3838 1056 3469 
Q 1056 3159 1242 3001 
Q 1428 2844 1947 2747 
L 2328 2669 
Q 3034 2534 3370 2195 
Q 3706 1856 3706 1288 
Q 3706 609 3251 259 
Q 2797 -91 1919 -91 
Q 1588 -91 1214 -16 
Q 841 59 441 206 
L 441 856 
Q 825 641 1194 531 
Q 1563 422 1919 422 
Q 2459 422 2753 634 
Q 3047 847 3047 1241 
Q 3047 1584 2836 1778 
Q 2625 1972 2144 2069 
L 1759 2144 
Q 1053 2284 737 2584 
Q 422 2884 422 3419 
Q 422 4038 858 4394 
Q 1294 4750 2059 4750 
Q 2388 4750 2728 4690 
Q 3069 4631 3425 4513 
z
" transform="scale(0.015625)"/>
       <path id="DejaVuSans-45" d="M 628 4666 
L 3578 4666 
L 3578 4134 
L 1259 4134 
L 1259 2753 
L 3481 2753 
L 3481 2222 
L 1259 2222 
L 1259 531 
L 3634 531 
L 3634 0 
L 628 0 
L 628 4666 
z
" transform="scale(0.015625)"/>
       <path id="DejaVuSans-42" d="M 1259 2228 
L 1259 519 
L 2272 519 
Q 2781 519 3026 730 
Q 3272 941 3272 1375 
Q 3272 1813 3026 2020 
Q 2781 2228 2272 2228 
L 1259 2228 
z
M 1259 4147 
L 1259 2741 
L 2194 2741 
Q 2656 2741 2882 2914 
Q 3109 3088 3109 3444 
Q 3109 3797 2882 3972 
Q 2656 4147 2194 4147 
L 1259 4147 
z
M 628 4666 
L 2241 4666 
Q 2963 4666 3353 4366 
Q 3744 4066 3744 3513 
Q 3744 3084 3544 2831 
Q 3344 2578 2956 2516 
Q 3422 2416 3680 2098 
Q 3938 1781 3938 1306 
Q 3938 681 3513 340 
Q 3088 0 2303 0 
L 628 0 
L 628 4666 
z
" transform="scale(0.015625)"/>
       <path id="DejaVuSans-49" d="M 628 4666 
L 1259 4666 
L 1259 0 
L 628 0 
L 628 4666 
z
" transform="scale(0.015625)"/>
      </defs>
      <use xlink:href="#DejaVuSans-56"/>
      <use xlink:href="#DejaVuSans-50" x="68.408203"/>
      <use xlink:href="#DejaVuSans-55" x="128.710938"/>
      <use xlink:href="#DejaVuSans-4c" x="201.904297"/>
      <use xlink:href="#DejaVuSans-53" x="257.617188"/>
      <use xlink:href="#DejaVuSans-45" x="321.09375"/>
      <use xlink:href="#DejaVuSans-20" x="384.277344"/>
      <use xlink:href="#DejaVuSans-42" x="416.064453"/>
      <use xlink:href="#DejaVuSans-42" x="484.667969"/>
      <use xlink:href="#DejaVuSans-49" x="553.271484"/>
     </g>
    </g>
   </g>
   <g id="line2d_17">
    <path d="M 141.12 45.027377 
L 192.761856 45.136282 
L 193.245696 46.425538 
L 201.470976 69.006772 
L 208.889856 89.863624 
L 210.502656 94.440546 
L 212.308992 99.673219 
L 215.79264 110.807642 
L 217.373184 115.853719 
L 218.598912 119.550977 
L 222.501888 121.36362 
L 223.082496 121.619522 
L 223.953408 122.003376 
L 224.598528 122.269941 
L 226.179072 122.936354 
L 226.824192 123.202919 
L 227.920896 123.629423 
L 228.662784 123.922644 
L 229.759488 124.349149 
L 230.662656 124.677024 
L 231.340032 124.943589 
L 232.146432 125.25547 
L 233.501184 125.804594 
L 236.146176 126.790885 
L 236.75904 127.022796 
L 238.6944 127.395987 
L 257.177088 127.289361 
L 257.40288 126.801547 
L 275.692032 75.087922 
L 279.433728 63.292417 
L 283.143168 51.617666 
L 287.755776 49.3412 
L 293.110272 46.984578 
L 301.819392 43.484472 
L 302.690304 43.268927 
L 316.979712 43.108189 
L 323.785728 43.184799 
L 339.139584 43.746186 
L 366.912 44.46146 
L 392.55552 44.774399 
L 428.166144 44.945888 
L 476.195328 44.953885 
L 947.52 44.953885 
L 947.52 44.953885 
" clip-path="url(#p29c52dc6e0)" style="fill: none; stroke: #ff0000; stroke-width: 2; stroke-linecap: square"/>
   </g>
   <g id="patch_4">
    <path d="M 100.8 131.611034 
L 100.8 38.88 
" style="fill: none; stroke: #bcbcbc; stroke-width: 0.8; stroke-linejoin: miter; stroke-linecap: square"/>
   </g>
   <g id="patch_5">
    <path d="M 987.84 131.611034 
L 987.84 38.88 
" style="fill: none; stroke: #bcbcbc; stroke-width: 0.8; stroke-linejoin: miter; stroke-linecap: square"/>
   </g>
   <g id="patch_6">
    <path d="M 100.8 131.611034 
L 987.84 131.611034 
" style="fill: none; stroke: #bcbcbc; stroke-width: 0.8; stroke-linejoin: miter; stroke-linecap: square"/>
   </g>
   <g id="patch_7">
    <path d="M 100.8 38.88 
L 987.84 38.88 
" style="fill: none; stroke: #bcbcbc; stroke-width: 0.8; stroke-linejoin: miter; stroke-linecap: square"/>
   </g>
  </g>
  <g id="axes_2">
   <g id="patch_8">
    <path d="M 100.8 242.888276 
L 987.84 242.888276 
L 987.84 150.157241 
L 100.8 150.157241 
z
" style="fill: #eeeeee"/>
   </g>
   <g id="matplotlib.axis_3">
    <g id="xtick_7">
     <g id="line2d_18">
      <path d="M 141.12 242.888276 
L 141.12 150.157241 
" clip-path="url(#p75568125dc)" style="fill: none; stroke-dasharray: 1.85,0.8; stroke-dashoffset: 0; stroke: #b2b2b2; stroke-width: 0.5"/>
     </g>
     <g id="line2d_19">
      <g>
       <use xlink:href="#m9253af44d2" x="141.12" y="242.888276" style="stroke: #000000; stroke-width: 0.8"/>
      </g>
     </g>
    </g>
    <g id="xtick_8">
     <g id="line2d_20">
      <path d="M 302.4 242.888276 
L 302.4 150.157241 
" clip-path="url(#p75568125dc)" style="fill: none; stroke-dasharray: 1.85,0.8; stroke-dashoffset: 0; stroke: #b2b2b2; stroke-width: 0.5"/>
     </g>
     <g id="line2d_21">
      <g>
       <use xlink:href="#m9253af44d2" x="302.4" y="242.888276" style="stroke: #000000; stroke-width: 0.8"/>
      </g>
     </g>
    </g>
    <g id="xtick_9">
     <g id="line2d_22">
      <path d="M 463.68 242.888276 
L 463.68 150.157241 
" clip-path="url(#p75568125dc)" style="fill: none; stroke-dasharray: 1.85,0.8; stroke-dashoffset: 0; stroke: #b2b2b2; stroke-width: 0.5"/>
     </g>
     <g id="line2d_23">
      <g>
       <use xlink:href="#m9253af44d2" x="463.68" y="242.888276" style="stroke: #000000; stroke-width: 0.8"/>
      </g>
     </g>
    </g>
    <g id="xtick_10">
     <g id="line2d_24">
      <path d="M 624.96 242.888276 
L 624.96 150.157241 
" clip-path="url(#p75568125dc)" style="fill: none; stroke-dasharray: 1.85,0.8; stroke-dashoffset: 0; stroke: #b2b2b2; stroke-width: 0.5"/>
     </g>
     <g id="line2d_25">
      <g>
       <use xlink:href="#m9253af44d2" x="624.96" y="242.888276" style="stroke: #000000; stroke-width: 0.8"/>
      </g>
     </g>
    </g>
    <g id="xtick_11">
     <g id="line2d_26">
      <path d="M 786.24 242.888276 
L 786.24 150.157241 
" clip-path="url(#p75568125dc)" style="fill: none; stroke-dasharray: 1.85,0.8; stroke-dashoffset: 0; stroke: #b2b2b2; stroke-width: 0.5"/>
     </g>
     <g id="line2d_27">
      <g>
       <use xlink:href="#m9253af44d2" x="786.24" y="242.888276" style="stroke: #000000; stroke-width: 0.8"/>
      </g>
     </g>
    </g>
    <g id="xtick_12">
     <g id="line2d_28">
      <path d="M 947.52 242.888276 
L 947.52 150.157241 
" clip-path="url(#p75568125dc)" style="fill: none; stroke-dasharray: 1.85,0.8; stroke-dashoffset: 0; stroke: #b2b2b2; stroke-width: 0.5"/>
     </g>
     <g id="line2d_29">
      <g>
       <use xlink:href="#m9253af44d2" x="947.52" y="242.888276" style="stroke: #000000; stroke-width: 0.8"/>
      </g>
     </g>
    </g>
   </g>
   <g id="matplotlib.axis_4">
    <g id="ytick_3">
     <g id="line2d_30">
      <path d="M 100.8 212.84667 
L 987.84 212.84667 
" clip-path="url(#p75568125dc)" style="fill: none; stroke-dasharray: 1.85,0.8; stroke-dashoffset: 0; stroke: #b2b2b2; stroke-width: 0.5"/>
     </g>
     <g id="line2d_31">
      <g>
       <use xlink:href="#mec10ec7dba" x="100.8" y="212.84667" style="stroke: #000000; stroke-width: 0.8"/>
      </g>
     </g>
     <g id="text_4">
      <!-- 0 V -->
      <g transform="translate(74.36625 218.165576) scale(0.14 -0.14)">
       <use xlink:href="#DejaVuSans-30"/>
       <use xlink:href="#DejaVuSans-20" x="63.623047"/>
       <use xlink:href="#DejaVuSans-56" x="95.410156"/>
      </g>
     </g>
    </g>
    <g id="ytick_4">
     <g id="line2d_32">
      <path d="M 100.8 167.928571 
L 987.84 167.928571 
" clip-path="url(#p75568125dc)" style="fill: none; stroke-dasharray: 1.85,0.8; stroke-dashoffset: 0; stroke: #b2b2b2; stroke-width: 0.5"/>
     </g>
     <g id="line2d_33">
      <g>
       <use xlink:href="#mec10ec7dba" x="100.8" y="167.928571" style="stroke: #000000; stroke-width: 0.8"/>
      </g>
     </g>
     <g id="text_5">
      <!-- 1 V -->
      <g transform="translate(74.36625 173.247477) scale(0.14 -0.14)">
       <defs>
        <path id="DejaVuSans-31" d="M 794 531 
L 1825 531 
L 1825 4091 
L 703 3866 
L 703 4441 
L 1819 4666 
L 2450 4666 
L 2450 531 
L 3481 531 
L 3481 0 
L 794 0 
L 794 531 
z
" transform="scale(0.015625)"/>
       </defs>
       <use xlink:href="#DejaVuSans-31"/>
       <use xlink:href="#DejaVuSans-20" x="63.623047"/>
       <use xlink:href="#DejaVuSans-56" x="95.410156"/>
      </g>
     </g>
    </g>
    <g id="text_6">
     <g id="patch_9">
      <path d="M 34.8768 224.531509 
L 34.8768 168.514009 
L 11.247425 168.514009 
L 11.247425 224.531509 
z
" style="fill: #ffff00; opacity: 0.2; stroke: #eeeeee; stroke-width: 0.5; stroke-linejoin: miter"/>
     </g>
     <!-- DFF IN -->
     <g transform="translate(26.925238 219.491509) rotate(-90) scale(0.14 -0.14)">
      <defs>
       <path id="DejaVuSans-44" d="M 1259 4147 
L 1259 519 
L 2022 519 
Q 2988 519 3436 956 
Q 3884 1394 3884 2338 
Q 3884 3275 3436 3711 
Q 2988 4147 2022 4147 
L 1259 4147 
z
M 628 4666 
L 1925 4666 
Q 3281 4666 3915 4102 
Q 4550 3538 4550 2338 
Q 4550 1131 3912 565 
Q 3275 0 1925 0 
L 628 0 
L 628 4666 
z
" transform="scale(0.015625)"/>
       <path id="DejaVuSans-46" d="M 628 4666 
L 3309 4666 
L 3309 4134 
L 1259 4134 
L 1259 2759 
L 3109 2759 
L 3109 2228 
L 1259 2228 
L 1259 0 
L 628 0 
L 628 4666 
z
" transform="scale(0.015625)"/>
       <path id="DejaVuSans-4e" d="M 628 4666 
L 1478 4666 
L 3547 763 
L 3547 4666 
L 4159 4666 
L 4159 0 
L 3309 0 
L 1241 3903 
L 1241 0 
L 628 0 
L 628 4666 
z
" transform="scale(0.015625)"/>
      </defs>
      <use xlink:href="#DejaVuSans-44"/>
      <use xlink:href="#DejaVuSans-46" x="77.001953"/>
      <use xlink:href="#DejaVuSans-46" x="134.521484"/>
      <use xlink:href="#DejaVuSans-20" x="192.041016"/>
      <use xlink:href="#DejaVuSans-49" x="223.828125"/>
      <use xlink:href="#DejaVuSans-4e" x="253.320312"/>
     </g>
    </g>
   </g>
   <g id="line2d_34">
    <path d="M 141.12 212.781071 
L 192.794112 212.85785 
L 194.18112 214.644157 
L 194.729472 215.16076 
L 195.374592 215.619554 
L 196.213248 216.033294 
L 197.309952 216.31785 
L 198.922752 216.486069 
L 200.922624 216.686358 
L 201.632256 217.142592 
L 203.37408 218.356773 
L 205.567488 219.85569 
L 206.019072 220.297235 
L 207.2448 221.279144 
L 207.954432 221.553145 
L 208.567296 221.481725 
L 209.051136 221.153374 
L 209.534976 220.564048 
L 210.405888 219.475233 
L 210.599424 219.695781 
L 210.95424 220.484992 
L 211.59936 221.843316 
L 211.76064 222.06566 
L 212.018688 222.660825 
L 212.179968 222.961776 
L 212.825088 225.189265 
L 213.21216 225.910649 
L 213.792768 227.786878 
L 214.276608 228.879736 
L 215.050752 230.891168 
L 215.437824 231.715865 
L 215.599104 232.071167 
L 216.082944 233.091706 
L 218.566656 238.673229 
L 218.792448 238.575757 
L 218.889216 238.498497 
L 219.211776 237.9213 
L 219.98592 236.153323 
L 220.340736 235.32728 
L 220.502016 235.235647 
L 220.727808 234.89382 
L 221.340672 234.042173 
L 222.050304 232.54101 
L 222.114816 232.582784 
L 222.340608 232.393679 
L 222.856704 231.851068 
L 223.179264 231.5317 
L 223.792128 230.63783 
L 224.114688 230.061531 
L 224.66304 229.451094 
L 224.921088 228.996523 
L 225.243648 228.860421 
L 225.501696 228.67985 
L 226.501632 227.46796 
L 227.049984 226.300089 
L 227.308032 226.050794 
L 227.340288 226.082237 
L 227.501568 226.141528 
L 228.630528 225.107065 
L 229.598208 223.868673 
L 230.082048 222.971209 
L 230.340096 222.83331 
L 231.081984 222.371103 
L 232.694784 220.46433 
L 233.0496 219.787414 
L 233.307648 219.698926 
L 234.372096 219.015721 
L 236.242944 216.906906 
L 236.565504 216.571278 
L 237.0816 216.168049 
L 238.146048 214.994518 
L 245.887488 201.72405 
L 247.08096 199.902621 
L 247.597056 197.982372 
L 249.371136 191.330002 
L 250.274304 188.869838 
L 253.53216 182.838684 
L 254.403072 181.4862 
L 255.14496 180.109461 
L 255.822336 179.340014 
L 256.725504 178.182474 
L 257.370624 176.949472 
L 257.854464 174.759266 
L 259.144704 168.806719 
L 260.015616 165.970142 
L 260.822016 164.052139 
L 261.370368 163.16276 
L 262.047744 162.408136 
L 262.918656 161.406463 
L 263.434752 160.674298 
L 263.886336 159.933149 
L 264.01536 162.444071 
L 264.854016 179.717775 
L 265.918464 191.1665 
L 266.789376 198.780567 
L 267.531264 203.320439 
L 268.079616 205.508849 
L 268.789248 207.209448 
L 269.305344 207.946105 
L 269.853696 208.429558 
L 270.595584 208.843074 
L 271.563264 209.090079 
L 273.821184 209.313322 
L 274.756608 209.348448 
L 275.175936 209.372794 
L 275.7888 209.378947 
L 276.240384 209.384068 
L 277.595136 209.17996 
L 277.88544 209.131044 
L 278.949888 208.967228 
L 279.240192 208.923119 
L 280.175616 208.803322 
L 280.594944 208.766714 
L 281.207808 208.684963 
L 281.659392 208.62356 
L 282.304512 208.499586 
L 282.917376 208.408222 
L 283.078656 208.424438 
L 283.723776 209.170707 
L 284.207616 209.671813 
L 285.336576 210.555712 
L 285.852672 210.797506 
L 286.691328 211.114897 
L 286.981632 211.175447 
L 288.52992 211.487178 
L 292.819968 211.925669 
L 303.141888 212.585062 
L 303.464448 212.634966 
L 304.432128 212.811862 
L 304.722432 212.821108 
L 305.657856 212.926044 
L 306.044928 212.971488 
L 306.91584 213.003654 
L 307.302912 213.043757 
L 308.238336 213.05212 
L 308.593152 213.06684 
L 309.883392 213.099195 
L 310.238208 213.117732 
L 311.463936 213.145254 
L 311.786496 213.154673 
L 313.657344 213.166114 
L 314.01216 213.19332 
L 316.366848 213.1977 
L 320.689152 213.206724 
L 320.979456 213.209338 
L 323.85024 213.257446 
L 324.140544 213.247842 
L 326.075904 213.261776 
L 326.366208 213.255325 
L 327.72096 213.254131 
L 328.04352 213.253183 
L 329.527296 213.25851 
L 329.882112 213.249419 
L 331.075584 213.246935 
L 331.494912 213.208377 
L 332.462592 213.22559 
L 332.849664 213.202812 
L 333.720576 213.218506 
L 334.107648 213.19752 
L 334.785024 213.18431 
L 335.172096 213.175353 
L 335.94624 213.19549 
L 336.333312 213.186704 
L 336.946176 213.16986 
L 337.333248 213.17733 
L 337.913856 213.16217 
L 338.300928 213.171504 
L 338.84928 213.167587 
L 339.236352 213.167376 
L 339.752448 213.146727 
L 340.13952 213.161065 
L 340.62336 213.139329 
L 341.010432 213.15602 
L 341.494272 213.136454 
L 341.881344 213.157444 
L 342.365184 213.137335 
L 342.849024 213.136602 
L 343.300608 213.13234 
L 343.784448 213.121896 
L 344.268288 213.126428 
L 344.752128 213.117553 
L 345.235968 213.123208 
L 345.719808 213.114301 
L 346.203648 213.120522 
L 346.784256 213.092987 
L 347.268096 213.10635 
L 347.71968 213.109324 
L 348.235776 206.461562 
L 349.9776 186.070542 
L 351.138816 174.796548 
L 352.364544 164.636074 
L 353.138688 159.807378 
L 353.751552 157.413244 
L 354.33216 156.029766 
L 354.816 155.329044 
L 355.428864 154.803502 
L 355.977216 154.551961 
L 356.59008 154.412715 
L 357.55776 154.381272 
L 359.299584 154.516026 
L 360.202752 154.62383 
L 361.041408 154.745109 
L 366.1056 155.342519 
L 367.008768 155.450323 
L 367.686144 155.526684 
L 370.524672 155.818651 
L 370.976256 155.859077 
L 373.298688 156.074684 
L 374.459904 156.173504 
L 374.81472 156.209439 
L 375.105024 156.317242 
L 375.975936 158.796721 
L 376.363008 159.906198 
L 376.75008 160.337412 
L 377.23392 160.490133 
L 377.71776 160.314953 
L 379.233792 158.904525 
L 379.685376 158.558655 
L 380.491776 158.12295 
L 382.362624 157.714195 
L 383.814144 157.615375 
L 384.523776 157.610883 
L 385.491456 157.583932 
L 389.136384 157.476129 
L 390.104064 157.444686 
L 390.523392 157.458162 
L 391.362048 157.449178 
L 395.684352 157.556982 
L 396.458496 157.556982 
L 397.006848 157.588424 
L 399.65184 157.696228 
L 400.103424 157.709703 
L 403.135488 157.813015 
L 403.36128 157.821998 
L 407.038464 157.929802 
L 407.55456 157.961245 
L 411.522048 158.069048 
L 412.521984 158.100491 
L 413.19936 158.113966 
L 413.650944 158.131933 
L 415.45728 158.02413 
L 415.908864 157.359342 
L 416.618496 156.910161 
L 417.07008 156.896686 
L 421.392384 157.988195 
L 423.553536 158.181343 
L 425.843712 158.289147 
L 426.779136 158.311606 
L 431.004672 158.419409 
L 431.294976 158.428393 
L 455.745024 158.49577 
L 456.26112 159.263869 
L 456.680448 159.573804 
L 457.132032 159.76246 
L 458.260992 159.816362 
L 460.873728 159.344722 
L 462.905856 158.891049 
L 465.389568 158.652983 
L 469.744128 158.54518 
L 470.61504 158.531704 
L 496.032768 158.468819 
L 496.484352 157.754621 
L 496.968192 157.372817 
L 497.5488 157.175178 
L 498.387456 157.282981 
L 501.871104 158.140917 
L 503.096832 158.24872 
L 504.354816 158.316097 
L 511.644672 158.423901 
L 512.451072 158.428393 
L 536.385024 158.500262 
L 536.965632 159.335738 
L 537.449472 159.659149 
L 537.804288 159.771444 
L 539.030016 159.838821 
L 541.836288 159.34023 
L 542.836224 159.039279 
L 546.513408 158.635016 
L 552.384 158.527213 
L 553.222656 158.518229 
L 576.672768 158.464327 
L 577.156608 157.741146 
L 577.801728 157.25603 
L 578.317824 157.152719 
L 578.962944 157.260522 
L 582.511104 158.140917 
L 583.769088 158.24872 
L 585.027072 158.316097 
L 592.38144 158.423901 
L 593.18784 158.428393 
L 617.025024 158.500262 
L 617.605632 159.335738 
L 618.089472 159.659149 
L 618.444288 159.771444 
L 619.670016 159.838821 
L 622.476288 159.34023 
L 624.734208 158.823672 
L 625.7664 158.715869 
L 627.088896 158.639508 
L 632.346624 158.531704 
L 633.18528 158.522721 
L 657.312768 158.468819 
L 657.828864 157.687244 
L 658.34496 157.323407 
L 658.99008 157.170686 
L 659.6352 157.273998 
L 663.151104 158.140917 
L 664.376832 158.24872 
L 665.60256 158.311606 
L 672.05376 158.419409 
L 672.86016 158.423901 
L 697.665024 158.500262 
L 698.245632 159.335738 
L 698.729472 159.659149 
L 699.084288 159.771444 
L 700.310016 159.838821 
L 703.084032 159.344722 
L 705.051648 158.909016 
L 707.85792 158.626032 
L 715.180032 158.518229 
L 716.018688 158.509245 
L 737.985024 158.401442 
L 738.436608 157.741146 
L 739.081728 157.251539 
L 739.823616 157.157211 
L 740.791296 157.399768 
L 741.888 157.741146 
L 743.629824 158.113966 
L 745.629696 158.284655 
L 749.435904 158.392458 
L 750.306816 158.405934 
L 778.305024 158.500262 
L 778.885632 159.335738 
L 779.369472 159.659149 
L 779.724288 159.771444 
L 780.950016 159.838821 
L 783.724032 159.344722 
L 785.691648 158.909016 
L 788.49792 158.626032 
L 795.820032 158.518229 
L 796.658688 158.509245 
L 818.625024 158.401442 
L 819.076608 157.741146 
L 819.721728 157.251539 
L 820.463616 157.157211 
L 821.431296 157.399768 
L 822.528 157.741146 
L 824.269824 158.113966 
L 826.269696 158.284655 
L 830.075904 158.392458 
L 830.946816 158.405934 
L 858.945024 158.500262 
L 859.525632 159.335738 
L 860.009472 159.659149 
L 860.364288 159.771444 
L 861.590016 159.838821 
L 864.364032 159.344722 
L 866.331648 158.909016 
L 869.13792 158.626032 
L 876.460032 158.518229 
L 877.298688 158.509245 
L 899.265024 158.401442 
L 899.716608 157.741146 
L 900.361728 157.251539 
L 901.103616 157.157211 
L 902.071296 157.399768 
L 903.168 157.741146 
L 904.909824 158.113966 
L 906.909696 158.284655 
L 910.715904 158.392458 
L 911.586816 158.405934 
L 939.585024 158.500262 
L 940.165632 159.326755 
L 940.617216 159.623214 
L 941.165568 159.81187 
L 943.423488 159.704067 
L 944.681472 159.421083 
L 947.068416 158.86859 
L 947.52 158.796721 
L 947.52 158.796721 
" clip-path="url(#p75568125dc)" style="fill: none; stroke: #008000; stroke-width: 2; stroke-linecap: square"/>
   </g>
   <g id="patch_10">
    <path d="M 100.8 242.888276 
L 100.8 150.157241 
" style="fill: none; stroke: #bcbcbc; stroke-width: 0.8; stroke-linejoin: miter; stroke-linecap: square"/>
   </g>
   <g id="patch_11">
    <path d="M 987.84 242.888276 
L 987.84 150.157241 
" style="fill: none; stroke: #bcbcbc; stroke-width: 0.8; stroke-linejoin: miter; stroke-linecap: square"/>
   </g>
   <g id="patch_12">
    <path d="M 100.8 242.888276 
L 987.84 242.888276 
" style="fill: none; stroke: #bcbcbc; stroke-width: 0.8; stroke-linejoin: miter; stroke-linecap: square"/>
   </g>
   <g id="patch_13">
    <path d="M 100.8 150.157241 
L 987.84 150.157241 
" style="fill: none; stroke: #bcbcbc; stroke-width: 0.8; stroke-linejoin: miter; stroke-linecap: square"/>
   </g>
  </g>
  <g id="axes_3">
   <g id="patch_14">
    <path d="M 100.8 354.165517 
L 987.84 354.165517 
L 987.84 261.434483 
L 100.8 261.434483 
z
" style="fill: #eeeeee"/>
   </g>
   <g id="matplotlib.axis_5">
    <g id="xtick_13">
     <g id="line2d_35">
      <path d="M 141.12 354.165517 
L 141.12 261.434483 
" clip-path="url(#p35fdb451e5)" style="fill: none; stroke-dasharray: 1.85,0.8; stroke-dashoffset: 0; stroke: #b2b2b2; stroke-width: 0.5"/>
     </g>
     <g id="line2d_36">
      <g>
       <use xlink:href="#m9253af44d2" x="141.12" y="354.165517" style="stroke: #000000; stroke-width: 0.8"/>
      </g>
     </g>
    </g>
    <g id="xtick_14">
     <g id="line2d_37">
      <path d="M 302.4 354.165517 
L 302.4 261.434483 
" clip-path="url(#p35fdb451e5)" style="fill: none; stroke-dasharray: 1.85,0.8; stroke-dashoffset: 0; stroke: #b2b2b2; stroke-width: 0.5"/>
     </g>
     <g id="line2d_38">
      <g>
       <use xlink:href="#m9253af44d2" x="302.4" y="354.165517" style="stroke: #000000; stroke-width: 0.8"/>
      </g>
     </g>
    </g>
    <g id="xtick_15">
     <g id="line2d_39">
      <path d="M 463.68 354.165517 
L 463.68 261.434483 
" clip-path="url(#p35fdb451e5)" style="fill: none; stroke-dasharray: 1.85,0.8; stroke-dashoffset: 0; stroke: #b2b2b2; stroke-width: 0.5"/>
     </g>
     <g id="line2d_40">
      <g>
       <use xlink:href="#m9253af44d2" x="463.68" y="354.165517" style="stroke: #000000; stroke-width: 0.8"/>
      </g>
     </g>
    </g>
    <g id="xtick_16">
     <g id="line2d_41">
      <path d="M 624.96 354.165517 
L 624.96 261.434483 
" clip-path="url(#p35fdb451e5)" style="fill: none; stroke-dasharray: 1.85,0.8; stroke-dashoffset: 0; stroke: #b2b2b2; stroke-width: 0.5"/>
     </g>
     <g id="line2d_42">
      <g>
       <use xlink:href="#m9253af44d2" x="624.96" y="354.165517" style="stroke: #000000; stroke-width: 0.8"/>
      </g>
     </g>
    </g>
    <g id="xtick_17">
     <g id="line2d_43">
      <path d="M 786.24 354.165517 
L 786.24 261.434483 
" clip-path="url(#p35fdb451e5)" style="fill: none; stroke-dasharray: 1.85,0.8; stroke-dashoffset: 0; stroke: #b2b2b2; stroke-width: 0.5"/>
     </g>
     <g id="line2d_44">
      <g>
       <use xlink:href="#m9253af44d2" x="786.24" y="354.165517" style="stroke: #000000; stroke-width: 0.8"/>
      </g>
     </g>
    </g>
    <g id="xtick_18">
     <g id="line2d_45">
      <path d="M 947.52 354.165517 
L 947.52 261.434483 
" clip-path="url(#p35fdb451e5)" style="fill: none; stroke-dasharray: 1.85,0.8; stroke-dashoffset: 0; stroke: #b2b2b2; stroke-width: 0.5"/>
     </g>
     <g id="line2d_46">
      <g>
       <use xlink:href="#m9253af44d2" x="947.52" y="354.165517" style="stroke: #000000; stroke-width: 0.8"/>
      </g>
     </g>
    </g>
   </g>
   <g id="matplotlib.axis_6">
    <g id="ytick_5">
     <g id="line2d_47">
      <path d="M 100.8 344.747458 
L 987.84 344.747458 
" clip-path="url(#p35fdb451e5)" style="fill: none; stroke-dasharray: 1.85,0.8; stroke-dashoffset: 0; stroke: #b2b2b2; stroke-width: 0.5"/>
     </g>
     <g id="line2d_48">
      <g>
       <use xlink:href="#mec10ec7dba" x="100.8" y="344.747458" style="stroke: #000000; stroke-width: 0.8"/>
      </g>
     </g>
     <g id="text_7">
      <!-- 0 V -->
      <g transform="translate(74.36625 350.066365) scale(0.14 -0.14)">
       <use xlink:href="#DejaVuSans-30"/>
       <use xlink:href="#DejaVuSans-20" x="63.623047"/>
       <use xlink:href="#DejaVuSans-56" x="95.410156"/>
      </g>
     </g>
    </g>
    <g id="ytick_6">
     <g id="line2d_49">
      <path d="M 100.8 303.704532 
L 987.84 303.704532 
" clip-path="url(#p35fdb451e5)" style="fill: none; stroke-dasharray: 1.85,0.8; stroke-dashoffset: 0; stroke: #b2b2b2; stroke-width: 0.5"/>
     </g>
     <g id="line2d_50">
      <g>
       <use xlink:href="#mec10ec7dba" x="100.8" y="303.704532" style="stroke: #000000; stroke-width: 0.8"/>
      </g>
     </g>
     <g id="text_8">
      <!-- 1 V -->
      <g transform="translate(74.36625 309.023438) scale(0.14 -0.14)">
       <use xlink:href="#DejaVuSans-31"/>
       <use xlink:href="#DejaVuSans-20" x="63.623047"/>
       <use xlink:href="#DejaVuSans-56" x="95.410156"/>
      </g>
     </g>
    </g>
    <g id="ytick_7">
     <g id="line2d_51">
      <path d="M 100.8 262.661605 
L 987.84 262.661605 
" clip-path="url(#p35fdb451e5)" style="fill: none; stroke-dasharray: 1.85,0.8; stroke-dashoffset: 0; stroke: #b2b2b2; stroke-width: 0.5"/>
     </g>
     <g id="line2d_52">
      <g>
       <use xlink:href="#mec10ec7dba" x="100.8" y="262.661605" style="stroke: #000000; stroke-width: 0.8"/>
      </g>
     </g>
     <g id="text_9">
      <!-- 2 V -->
      <g transform="translate(74.36625 267.980511) scale(0.14 -0.14)">
       <use xlink:href="#DejaVuSans-32"/>
       <use xlink:href="#DejaVuSans-20" x="63.623047"/>
       <use xlink:href="#DejaVuSans-56" x="95.410156"/>
      </g>
     </g>
    </g>
    <g id="text_10">
     <g id="patch_15">
      <path d="M 34.8768 342.395313 
L 34.8768 273.204688 
L 11.247425 273.204688 
L 11.247425 342.395313 
z
" style="fill: #ffff00; opacity: 0.2; stroke: #eeeeee; stroke-width: 0.5; stroke-linejoin: miter"/>
     </g>
     <!-- CLK BUF -->
     <g transform="translate(26.925238 337.355313) rotate(-90) scale(0.14 -0.14)">
      <defs>
       <path id="DejaVuSans-43" d="M 4122 4306 
L 4122 3641 
Q 3803 3938 3442 4084 
Q 3081 4231 2675 4231 
Q 1875 4231 1450 3742 
Q 1025 3253 1025 2328 
Q 1025 1406 1450 917 
Q 1875 428 2675 428 
Q 3081 428 3442 575 
Q 3803 722 4122 1019 
L 4122 359 
Q 3791 134 3420 21 
Q 3050 -91 2638 -91 
Q 1578 -91 968 557 
Q 359 1206 359 2328 
Q 359 3453 968 4101 
Q 1578 4750 2638 4750 
Q 3056 4750 3426 4639 
Q 3797 4528 4122 4306 
z
" transform="scale(0.015625)"/>
       <path id="DejaVuSans-4b" d="M 628 4666 
L 1259 4666 
L 1259 2694 
L 3353 4666 
L 4166 4666 
L 1850 2491 
L 4331 0 
L 3500 0 
L 1259 2247 
L 1259 0 
L 628 0 
L 628 4666 
z
" transform="scale(0.015625)"/>
      </defs>
      <use xlink:href="#DejaVuSans-43"/>
      <use xlink:href="#DejaVuSans-4c" x="69.824219"/>
      <use xlink:href="#DejaVuSans-4b" x="125.537109"/>
      <use xlink:href="#DejaVuSans-20" x="191.113281"/>
      <use xlink:href="#DejaVuSans-42" x="222.900391"/>
      <use xlink:href="#DejaVuSans-55" x="291.503906"/>
      <use xlink:href="#DejaVuSans-46" x="364.697266"/>
     </g>
    </g>
   </g>
   <g id="line2d_53">
    <path d="M 141.12 344.746373 
L 173.376 344.746373 
L 173.601792 295.50005 
L 192.826368 295.602658 
L 194.471424 297.872332 
L 196.148736 300.634521 
L 203.05152 311.83965 
L 206.59968 316.968374 
L 208.760832 319.865594 
L 209.051136 320.260017 
L 211.405824 323.057913 
L 213.696 325.108418 
L 213.825024 323.845527 
L 213.85728 324.530944 
L 214.244352 347.45584 
L 216.147456 348.588379 
L 217.502208 349.382847 
L 218.308608 349.849505 
L 218.437632 349.927897 
L 218.631168 349.905733 
L 219.373056 349.547018 
L 225.211392 347.584181 
L 228.791808 346.568943 
L 228.985344 346.496667 
L 230.759424 346.046877 
L 231.823872 345.796844 
L 232.307712 345.695099 
L 233.339904 345.474985 
L 236.726784 344.86709 
L 241.790976 344.222684 
L 246.468096 344.232616 
L 254.016 344.327671 
L 254.048256 339.821076 
L 254.17728 312.444623 
L 254.435328 312.292354 
L 257.370624 310.775817 
L 258.822144 308.144145 
L 261.305856 302.969863 
L 264.370176 296.604105 
L 265.047552 295.278419 
L 267.305472 290.927868 
L 272.853504 281.270468 
L 273.85344 279.686211 
L 275.62752 276.965065 
L 283.078656 265.768554 
L 284.530176 265.686468 
L 286.981632 266.421137 
L 288.497664 267.069615 
L 290.400768 267.906891 
L 290.820096 268.091584 
L 292.497408 268.822148 
L 294.336 269.618381 
L 294.49728 345.139619 
L 294.723072 345.110458 
L 303.52896 345.174018 
L 306.173952 345.218877 
L 334.656 344.987547 
L 334.81728 286.413146 
L 334.849536 286.429564 
L 344.300544 288.727968 
L 344.784384 288.834679 
L 345.429504 288.974225 
L 345.9456 289.080937 
L 346.59072 289.220483 
L 347.203584 289.327194 
L 347.751936 289.425697 
L 348.268032 289.532409 
L 348.816384 289.630912 
L 349.429248 289.737624 
L 349.9776 289.836127 
L 350.493696 289.942838 
L 351.042048 290.041341 
L 351.75168 290.148053 
L 352.300032 290.246556 
L 353.009664 290.349163 
L 353.36448 290.410728 
L 353.977344 290.513335 
L 354.33216 290.574899 
L 355.041792 290.677507 
L 355.396608 290.739071 
L 356.203008 290.841678 
L 356.557824 290.903243 
L 357.267456 291.00585 
L 357.622272 291.067414 
L 358.52544 291.170022 
L 358.880256 291.231586 
L 359.686656 291.334193 
L 360.041472 291.395758 
L 360.94464 291.498365 
L 361.202688 291.518887 
L 362.009088 291.621494 
L 362.363904 291.678954 
L 368.105472 292.298702 
L 369.073152 292.401309 
L 369.3312 292.421831 
L 370.331136 292.524438 
L 370.589184 292.54496 
L 371.685888 292.647567 
L 371.943936 292.663984 
L 374.782464 292.914346 
L 374.976 292.934868 
L 375.008256 297.642491 
L 375.13728 344.774914 
L 375.29856 344.815959 
L 382.87872 344.801528 
L 415.296 344.766023 
L 415.425024 294.765382 
L 415.521792 294.798216 
L 420.844032 294.904928 
L 421.10208 294.921345 
L 428.101632 295.028057 
L 428.35968 295.044474 
L 455.616 295.085517 
L 455.648256 301.582612 
L 455.77728 344.753734 
L 456.003072 344.75769 
L 456.325632 344.75739 
L 478.453248 344.758128 
L 495.936 344.758126 
L 496.09728 295.085517 
L 496.161792 295.089621 
L 497.06496 295.085517 
L 536.256 295.085517 
L 536.288256 301.582612 
L 536.41728 344.753711 
L 536.643072 344.757725 
L 536.965632 344.757386 
L 558.867456 344.758118 
L 576.576 344.758118 
L 576.73728 295.081413 
L 576.801792 295.089621 
L 577.70496 295.085517 
L 616.896 295.085517 
L 616.928256 301.582612 
L 617.05728 344.753717 
L 617.283072 344.757725 
L 617.605632 344.757386 
L 639.507456 344.758126 
L 657.216 344.758125 
L 657.37728 295.085517 
L 657.441792 295.089621 
L 658.34496 295.085517 
L 697.536 295.085517 
L 697.568256 301.586717 
L 697.69728 344.753231 
L 697.955328 344.768774 
L 698.245632 344.757391 
L 719.276544 344.758126 
L 737.856 344.758126 
L 738.01728 295.081413 
L 738.081792 295.089621 
L 738.98496 295.085517 
L 778.176 295.085517 
L 778.208256 301.586717 
L 778.33728 344.753231 
L 778.595328 344.768774 
L 778.885632 344.757391 
L 799.916544 344.758126 
L 818.496 344.758126 
L 818.65728 295.081413 
L 818.721792 295.089621 
L 819.62496 295.085517 
L 858.816 295.085517 
L 858.848256 301.586717 
L 858.97728 344.753231 
L 859.235328 344.768774 
L 859.525632 344.757391 
L 880.556544 344.758126 
L 899.136 344.758126 
L 899.29728 295.081413 
L 899.361792 295.089621 
L 900.26496 295.085517 
L 939.456 295.085517 
L 939.488256 303.051949 
L 939.61728 344.688127 
L 939.746304 344.782686 
L 939.93984 344.769069 
L 940.230144 344.757958 
L 947.52 344.75901 
L 947.52 344.75901 
" clip-path="url(#p35fdb451e5)" style="fill: none; stroke: #0000ff; stroke-width: 2; stroke-linecap: square"/>
   </g>
   <g id="patch_16">
    <path d="M 100.8 354.165517 
L 100.8 261.434483 
" style="fill: none; stroke: #bcbcbc; stroke-width: 0.8; stroke-linejoin: miter; stroke-linecap: square"/>
   </g>
   <g id="patch_17">
    <path d="M 987.84 354.165517 
L 987.84 261.434483 
" style="fill: none; stroke: #bcbcbc; stroke-width: 0.8; stroke-linejoin: miter; stroke-linecap: square"/>
   </g>
   <g id="patch_18">
    <path d="M 100.8 354.165517 
L 987.84 354.165517 
" style="fill: none; stroke: #bcbcbc; stroke-width: 0.8; stroke-linejoin: miter; stroke-linecap: square"/>
   </g>
   <g id="patch_19">
    <path d="M 100.8 261.434483 
L 987.84 261.434483 
" style="fill: none; stroke: #bcbcbc; stroke-width: 0.8; stroke-linejoin: miter; stroke-linecap: square"/>
   </g>
  </g>
  <g id="axes_4">
   <g id="patch_20">
    <path d="M 100.8 465.442759 
L 987.84 465.442759 
L 987.84 372.711724 
L 100.8 372.711724 
z
" style="fill: #eeeeee"/>
   </g>
   <g id="matplotlib.axis_7">
    <g id="xtick_19">
     <g id="line2d_54">
      <path d="M 141.12 465.442759 
L 141.12 372.711724 
" clip-path="url(#pa92d7a04a5)" style="fill: none; stroke-dasharray: 1.85,0.8; stroke-dashoffset: 0; stroke: #b2b2b2; stroke-width: 0.5"/>
     </g>
     <g id="line2d_55">
      <g>
       <use xlink:href="#m9253af44d2" x="141.12" y="465.442759" style="stroke: #000000; stroke-width: 0.8"/>
      </g>
     </g>
    </g>
    <g id="xtick_20">
     <g id="line2d_56">
      <path d="M 302.4 465.442759 
L 302.4 372.711724 
" clip-path="url(#pa92d7a04a5)" style="fill: none; stroke-dasharray: 1.85,0.8; stroke-dashoffset: 0; stroke: #b2b2b2; stroke-width: 0.5"/>
     </g>
     <g id="line2d_57">
      <g>
       <use xlink:href="#m9253af44d2" x="302.4" y="465.442759" style="stroke: #000000; stroke-width: 0.8"/>
      </g>
     </g>
    </g>
    <g id="xtick_21">
     <g id="line2d_58">
      <path d="M 463.68 465.442759 
L 463.68 372.711724 
" clip-path="url(#pa92d7a04a5)" style="fill: none; stroke-dasharray: 1.85,0.8; stroke-dashoffset: 0; stroke: #b2b2b2; stroke-width: 0.5"/>
     </g>
     <g id="line2d_59">
      <g>
       <use xlink:href="#m9253af44d2" x="463.68" y="465.442759" style="stroke: #000000; stroke-width: 0.8"/>
      </g>
     </g>
    </g>
    <g id="xtick_22">
     <g id="line2d_60">
      <path d="M 624.96 465.442759 
L 624.96 372.711724 
" clip-path="url(#pa92d7a04a5)" style="fill: none; stroke-dasharray: 1.85,0.8; stroke-dashoffset: 0; stroke: #b2b2b2; stroke-width: 0.5"/>
     </g>
     <g id="line2d_61">
      <g>
       <use xlink:href="#m9253af44d2" x="624.96" y="465.442759" style="stroke: #000000; stroke-width: 0.8"/>
      </g>
     </g>
    </g>
    <g id="xtick_23">
     <g id="line2d_62">
      <path d="M 786.24 465.442759 
L 786.24 372.711724 
" clip-path="url(#pa92d7a04a5)" style="fill: none; stroke-dasharray: 1.85,0.8; stroke-dashoffset: 0; stroke: #b2b2b2; stroke-width: 0.5"/>
     </g>
     <g id="line2d_63">
      <g>
       <use xlink:href="#m9253af44d2" x="786.24" y="465.442759" style="stroke: #000000; stroke-width: 0.8"/>
      </g>
     </g>
    </g>
    <g id="xtick_24">
     <g id="line2d_64">
      <path d="M 947.52 465.442759 
L 947.52 372.711724 
" clip-path="url(#pa92d7a04a5)" style="fill: none; stroke-dasharray: 1.85,0.8; stroke-dashoffset: 0; stroke: #b2b2b2; stroke-width: 0.5"/>
     </g>
     <g id="line2d_65">
      <g>
       <use xlink:href="#m9253af44d2" x="947.52" y="465.442759" style="stroke: #000000; stroke-width: 0.8"/>
      </g>
     </g>
    </g>
   </g>
   <g id="matplotlib.axis_8">
    <g id="ytick_8">
     <g id="line2d_66">
      <path d="M 100.8 434.306129 
L 987.84 434.306129 
" clip-path="url(#pa92d7a04a5)" style="fill: none; stroke-dasharray: 1.85,0.8; stroke-dashoffset: 0; stroke: #b2b2b2; stroke-width: 0.5"/>
     </g>
     <g id="line2d_67">
      <g>
       <use xlink:href="#mec10ec7dba" x="100.8" y="434.306129" style="stroke: #000000; stroke-width: 0.8"/>
      </g>
     </g>
     <g id="text_11">
      <!-- 0 V -->
      <g transform="translate(74.36625 439.625035) scale(0.14 -0.14)">
       <use xlink:href="#DejaVuSans-30"/>
       <use xlink:href="#DejaVuSans-20" x="63.623047"/>
       <use xlink:href="#DejaVuSans-56" x="95.410156"/>
      </g>
     </g>
    </g>
    <g id="ytick_9">
     <g id="line2d_68">
      <path d="M 100.8 387.119157 
L 987.84 387.119157 
" clip-path="url(#pa92d7a04a5)" style="fill: none; stroke-dasharray: 1.85,0.8; stroke-dashoffset: 0; stroke: #b2b2b2; stroke-width: 0.5"/>
     </g>
     <g id="line2d_69">
      <g>
       <use xlink:href="#mec10ec7dba" x="100.8" y="387.119157" style="stroke: #000000; stroke-width: 0.8"/>
      </g>
     </g>
     <g id="text_12">
      <!-- 1 V -->
      <g transform="translate(74.36625 392.438063) scale(0.14 -0.14)">
       <use xlink:href="#DejaVuSans-31"/>
       <use xlink:href="#DejaVuSans-20" x="63.623047"/>
       <use xlink:href="#DejaVuSans-56" x="95.410156"/>
      </g>
     </g>
    </g>
    <g id="text_13">
     <g id="patch_21">
      <path d="M 34.8768 454.693023 
L 34.8768 383.46146 
L 11.247425 383.46146 
L 11.247425 454.693023 
z
" style="fill: #ffff00; opacity: 0.2; stroke: #eeeeee; stroke-width: 0.5; stroke-linejoin: miter"/>
     </g>
     <!-- DFF OUT -->
     <g transform="translate(26.925238 449.653023) rotate(-90) scale(0.14 -0.14)">
      <defs>
       <path id="DejaVuSans-4f" d="M 2522 4238 
Q 1834 4238 1429 3725 
Q 1025 3213 1025 2328 
Q 1025 1447 1429 934 
Q 1834 422 2522 422 
Q 3209 422 3611 934 
Q 4013 1447 4013 2328 
Q 4013 3213 3611 3725 
Q 3209 4238 2522 4238 
z
M 2522 4750 
Q 3503 4750 4090 4092 
Q 4678 3434 4678 2328 
Q 4678 1225 4090 567 
Q 3503 -91 2522 -91 
Q 1538 -91 948 565 
Q 359 1222 359 2328 
Q 359 3434 948 4092 
Q 1538 4750 2522 4750 
z
" transform="scale(0.015625)"/>
       <path id="DejaVuSans-54" d="M -19 4666 
L 3928 4666 
L 3928 4134 
L 2272 4134 
L 2272 0 
L 1638 0 
L 1638 4134 
L -19 4134 
L -19 4666 
z
" transform="scale(0.015625)"/>
      </defs>
      <use xlink:href="#DejaVuSans-44"/>
      <use xlink:href="#DejaVuSans-46" x="77.001953"/>
      <use xlink:href="#DejaVuSans-46" x="134.521484"/>
      <use xlink:href="#DejaVuSans-20" x="192.041016"/>
      <use xlink:href="#DejaVuSans-4f" x="223.828125"/>
      <use xlink:href="#DejaVuSans-55" x="302.539062"/>
      <use xlink:href="#DejaVuSans-54" x="375.732422"/>
     </g>
    </g>
   </g>
   <g id="line2d_70">
    <path d="M 141.12 398.702143 
L 173.408256 398.66864 
L 173.440512 397.953286 
L 173.634048 434.28783 
L 175.375872 434.304835 
L 192.794112 434.392481 
L 193.471488 435.105523 
L 194.245632 435.550874 
L 195.213312 435.821916 
L 196.697088 435.957437 
L 199.50336 435.928889 
L 202.761216 435.717868 
L 203.599872 435.490663 
L 204.083712 435.103164 
L 204.34176 434.612622 
L 204.50304 433.859603 
L 204.632064 431.771056 
L 204.761088 423.621111 
L 204.954624 414.133226 
L 205.051392 414.233263 
L 205.30944 415.18644 
L 206.825472 424.057118 
L 207.502848 427.372003 
L 208.147968 430.423302 
L 208.21248 429.859795 
L 208.244736 429.935294 
L 208.309248 430.911356 
L 208.502784 432.075081 
L 208.825344 433.478894 
L 208.8576 433.073227 
L 208.922112 433.200915 
L 208.986624 433.709968 
L 209.147904 435.086082 
L 209.534976 436.787786 
L 209.567232 436.406421 
L 209.631744 436.712287 
L 209.664 436.730123 
L 209.82528 438.172488 
L 210.276864 439.831251 
L 210.30912 439.53067 
L 210.373632 439.673175 
L 210.567168 440.306896 
L 210.857472 441.634265 
L 211.59936 443.615174 
L 211.631616 443.342906 
L 211.696128 443.585447 
L 211.728384 443.548641 
L 211.792896 443.642071 
L 211.954176 444.309295 
L 211.986432 444.098369 
L 212.050944 444.276264 
L 212.147712 444.708968 
L 212.308992 445.336083 
L 212.373504 445.270493 
L 212.438016 445.715938 
L 212.696064 446.626647 
L 213.696 449.348391 
L 213.921792 450.032603 
L 214.050816 450.179354 
L 214.17984 450.558265 
L 214.276608 450.908865 
L 214.308864 450.726251 
L 215.373312 453.811807 
L 215.405568 453.675909 
L 215.437824 453.784911 
L 215.760384 454.719213 
L 215.79264 454.582842 
L 215.824896 454.762153 
L 215.857152 454.69326 
L 216.179712 455.781863 
L 216.211968 455.680883 
L 216.27648 455.829994 
L 216.889344 457.512209 
L 217.24416 458.228036 
L 217.276416 458.224733 
L 217.437696 458.742374 
L 217.469952 458.694715 
L 217.502208 458.76408 
L 217.663488 459.341176 
L 217.695744 459.245387 
L 217.728 459.32702 
L 218.179584 460.560016 
L 218.21184 460.518491 
L 218.276352 460.608619 
L 218.502144 461.227712 
L 218.631168 461.107857 
L 218.824704 461.076713 
L 218.953728 460.660996 
L 218.985984 460.692139 
L 219.01824 460.67704 
L 219.17952 460.301903 
L 219.211776 460.28586 
L 219.308544 459.169416 
L 219.373056 459.263318 
L 219.469824 459.500668 
L 219.534336 459.388835 
L 220.340736 457.56034 
L 220.372992 457.700957 
L 220.405248 457.505131 
L 220.46976 457.453226 
L 220.63104 457.082808 
L 220.760064 456.956819 
L 221.630976 455.26611 
L 222.147072 454.478559 
L 222.179328 454.716853 
L 222.211584 454.561608 
L 222.276096 454.580955 
L 222.340608 454.342661 
L 223.147008 453.194602 
L 223.53408 452.515109 
L 223.566336 452.693948 
L 223.598592 452.398085 
L 223.630848 452.407523 
L 223.663104 452.673186 
L 223.727616 452.296633 
L 223.824384 452.156016 
L 223.85664 452.370717 
L 223.888896 452.051261 
L 224.211456 451.658666 
L 224.243712 451.837032 
L 224.275968 451.536923 
L 224.437248 451.471333 
L 224.469504 451.275036 
L 224.534016 451.525598 
L 224.566272 451.30146 
L 224.630784 451.346288 
L 224.792064 450.98342 
L 225.30816 450.604037 
L 225.566208 450.262875 
L 225.985536 449.40596 
L 226.050048 449.384725 
L 226.082304 449.559317 
L 226.11456 449.242221 
L 226.211328 449.02752 
L 226.243584 449.090751 
L 226.308096 448.929843 
L 226.340352 449.275252 
L 226.501632 448.638699 
L 226.533888 448.644834 
L 226.566144 448.805269 
L 226.5984 448.524035 
L 226.630656 448.727411 
L 227.211264 447.88937 
L 227.308032 447.79594 
L 227.340288 448.05594 
L 227.437056 447.938917 
L 227.72736 447.501022 
L 228.017664 447.277355 
L 228.501504 446.546901 
L 228.662784 446.12269 
L 228.759552 445.943851 
L 228.791808 446.27652 
L 228.85632 445.797572 
L 228.920832 445.703198 
L 229.114368 445.481419 
L 229.146624 445.868824 
L 229.17888 445.564468 
L 229.275648 445.588534 
L 229.307904 445.232744 
L 229.372416 445.414414 
L 229.50144 445.061455 
L 229.565952 444.979822 
L 229.598208 445.057208 
L 229.630464 445.292199 
L 229.66272 444.992562 
L 229.759488 444.666028 
L 229.727232 445.030312 
L 229.791744 444.678297 
L 229.824 444.924613 
L 229.888512 444.597607 
L 230.340096 444.454159 
L 230.404608 444.268242 
L 230.46912 444.28287 
L 231.4368 442.891326 
L 231.823872 442.251943 
L 231.856128 442.582723 
L 231.888384 442.182578 
L 232.049664 442.007514 
L 232.339968 441.966934 
L 232.372224 442.001852 
L 232.56576 441.478548 
L 233.178624 441.032631 
L 233.21088 441.279891 
L 233.275392 440.976007 
L 233.53344 440.95902 
L 234.726912 439.637785 
L 234.855936 438.959236 
L 235.049472 438.703483 
L 235.081728 439.111178 
L 235.113984 438.599294 
L 235.14624 438.613025 
L 235.178496 438.510629 
L 235.210752 438.52908 
L 235.243008 439.024731 
L 235.30752 438.444379 
L 235.339776 438.361047 
L 235.372032 438.846978 
L 235.404288 438.233312 
L 235.436544 438.243268 
L 235.501056 438.187871 
L 235.533312 438.544887 
L 235.597824 438.028756 
L 235.662336 438.409413 
L 235.694592 437.940469 
L 235.79136 437.935798 
L 236.178432 437.67962 
L 236.855808 437.320904 
L 237.920256 436.037702 
L 238.017024 435.19985 
L 238.04928 435.61368 
L 238.21056 434.928525 
L 238.275072 434.732203 
L 238.307328 435.207447 
L 238.37184 434.912717 
L 238.404096 434.643534 
L 238.436352 434.98043 
L 238.468608 434.74778 
L 238.53312 434.924278 
L 238.565376 434.371129 
L 238.662144 434.470047 
L 238.726656 434.296978 
L 238.791168 434.405207 
L 239.242752 433.507631 
L 239.758848 432.330646 
L 239.952384 431.279651 
L 240.049152 431.183436 
L 240.081408 431.596228 
L 240.14592 431.07434 
L 240.178176 431.364823 
L 240.274944 431.271912 
L 240.532992 430.707745 
L 241.242624 429.158502 
L 241.307136 428.071314 
L 241.371648 428.548374 
L 241.500672 427.9793 
L 241.532928 428.269028 
L 241.59744 428.202022 
L 241.823232 427.775452 
L 242.855424 425.531239 
L 242.88768 424.760676 
L 242.984448 424.945649 
L 243.04896 425.080132 
L 243.242496 424.518607 
L 244.274688 421.903505 
L 244.306944 421.74826 
L 244.371456 421.891708 
L 244.403712 422.007316 
L 244.468224 421.879912 
L 245.403648 419.493666 
L 245.435904 419.553122 
L 245.564928 419.132686 
L 245.597184 419.178929 
L 245.693952 418.6896 
L 245.758464 418.442341 
L 245.822976 418.574464 
L 245.919744 418.436678 
L 247.016448 415.691812 
L 247.113216 414.836784 
L 247.145472 414.872174 
L 247.339008 415.039688 
L 247.822848 413.73025 
L 247.855104 413.756203 
L 248.080896 413.216855 
L 248.435712 411.632317 
L 248.467968 411.43885 
L 248.500224 411.472825 
L 248.53248 412.016891 
L 248.629248 411.84513 
L 248.69376 411.843243 
L 248.726016 411.510575 
L 248.822784 411.582771 
L 248.887296 411.518596 
L 250.209792 408.776561 
L 250.242048 408.249955 
L 250.338816 408.395291 
L 250.371072 408.429265 
L 250.403328 408.375944 
L 250.596864 407.989955 
L 250.758144 407.532713 
L 251.75808 405.700443 
L 252.24192 404.978482 
L 252.435456 404.37732 
L 252.693504 403.900732 
L 253.53216 402.546937 
L 254.080512 401.761746 
L 254.112768 401.652744 
L 254.145024 401.710312 
L 254.209536 404.468391 
L 254.49984 433.738469 
L 257.273856 433.769849 
L 257.951232 433.056665 
L 258.725376 432.61575 
L 259.693056 432.350465 
L 261.144576 432.230987 
L 263.85408 432.285299 
L 276.691968 432.818088 
L 278.272512 432.728527 
L 281.885184 432.823608 
L 283.110912 432.976683 
L 283.756032 433.681515 
L 284.49792 434.149171 
L 285.401088 434.455107 
L 286.723584 434.65157 
L 289.110528 434.741834 
L 294.368256 434.725243 
L 294.400512 434.653576 
L 294.465024 434.750899 
L 295.368192 434.730146 
L 302.593536 434.705934 
L 304.109568 434.830753 
L 307.206144 434.847316 
L 319.753728 434.699583 
L 334.688256 434.58465 
L 334.720512 434.733959 
L 334.752768 434.495108 
L 334.785024 434.543451 
L 334.97856 434.581696 
L 367.266816 434.408968 
L 375.008256 434.395331 
L 375.040512 434.292851 
L 375.105024 434.366962 
L 375.363072 434.392519 
L 380.556288 434.373804 
L 402.71616 434.339002 
L 415.328256 434.33662 
L 415.360512 434.603175 
L 415.392768 434.126082 
L 415.586304 429.410952 
L 416.037888 427.162965 
L 416.134656 425.657701 
L 416.392704 416.954535 
L 416.553984 404.152238 
L 416.876544 377.044739 
L 417.037824 376.93149 
L 423.03744 377.035301 
L 423.36 377.068332 
L 430.972416 377.176862 
L 431.294976 377.209893 
L 495.968256 377.214612 
L 496.000512 377.47414 
L 496.065024 377.205174 
L 576.608256 377.209893 
L 576.640512 377.47414 
L 576.705024 377.205174 
L 657.248256 377.214612 
L 657.280512 377.47414 
L 657.345024 377.205174 
L 737.888256 377.209893 
L 737.920512 377.47414 
L 737.985024 377.205174 
L 818.528256 377.209893 
L 818.560512 377.47414 
L 818.625024 377.205174 
L 899.168256 377.209893 
L 899.200512 377.47414 
L 899.265024 377.205174 
L 947.52 377.209893 
L 947.52 377.209893 
" clip-path="url(#pa92d7a04a5)" style="fill: none; stroke: #ff00ff; stroke-width: 2; stroke-linecap: square"/>
   </g>
   <g id="patch_22">
    <path d="M 100.8 465.442759 
L 100.8 372.711724 
" style="fill: none; stroke: #bcbcbc; stroke-width: 0.8; stroke-linejoin: miter; stroke-linecap: square"/>
   </g>
   <g id="patch_23">
    <path d="M 987.84 465.442759 
L 987.84 372.711724 
" style="fill: none; stroke: #bcbcbc; stroke-width: 0.8; stroke-linejoin: miter; stroke-linecap: square"/>
   </g>
   <g id="patch_24">
    <path d="M 100.8 465.442759 
L 987.84 465.442759 
" style="fill: none; stroke: #bcbcbc; stroke-width: 0.8; stroke-linejoin: miter; stroke-linecap: square"/>
   </g>
   <g id="patch_25">
    <path d="M 100.8 372.711724 
L 987.84 372.711724 
" style="fill: none; stroke: #bcbcbc; stroke-width: 0.8; stroke-linejoin: miter; stroke-linecap: square"/>
   </g>
  </g>
  <g id="axes_5">
   <g id="patch_26">
    <path d="M 100.8 576.72 
L 987.84 576.72 
L 987.84 483.988966 
L 100.8 483.988966 
z
" style="fill: #eeeeee"/>
   </g>
   <g id="matplotlib.axis_9">
    <g id="xtick_25">
     <g id="line2d_71">
      <path d="M 141.12 576.72 
L 141.12 483.988966 
" clip-path="url(#pe7c22326b5)" style="fill: none; stroke-dasharray: 1.85,0.8; stroke-dashoffset: 0; stroke: #b2b2b2; stroke-width: 0.5"/>
     </g>
     <g id="line2d_72">
      <g>
       <use xlink:href="#m9253af44d2" x="141.12" y="576.72" style="stroke: #000000; stroke-width: 0.8"/>
      </g>
     </g>
     <g id="text_14">
      <!-- 0 s -->
      <g transform="translate(130.795 590.857813) scale(0.14 -0.14)">
       <defs>
        <path id="DejaVuSans-73" d="M 2834 3397 
L 2834 2853 
Q 2591 2978 2328 3040 
Q 2066 3103 1784 3103 
Q 1356 3103 1142 2972 
Q 928 2841 928 2578 
Q 928 2378 1081 2264 
Q 1234 2150 1697 2047 
L 1894 2003 
Q 2506 1872 2764 1633 
Q 3022 1394 3022 966 
Q 3022 478 2636 193 
Q 2250 -91 1575 -91 
Q 1294 -91 989 -36 
Q 684 19 347 128 
L 347 722 
Q 666 556 975 473 
Q 1284 391 1588 391 
Q 1994 391 2212 530 
Q 2431 669 2431 922 
Q 2431 1156 2273 1281 
Q 2116 1406 1581 1522 
L 1381 1569 
Q 847 1681 609 1914 
Q 372 2147 372 2553 
Q 372 3047 722 3315 
Q 1072 3584 1716 3584 
Q 2034 3584 2315 3537 
Q 2597 3491 2834 3397 
z
" transform="scale(0.015625)"/>
       </defs>
       <use xlink:href="#DejaVuSans-30"/>
       <use xlink:href="#DejaVuSans-20" x="63.623047"/>
       <use xlink:href="#DejaVuSans-73" x="95.410156"/>
      </g>
     </g>
    </g>
    <g id="xtick_26">
     <g id="line2d_73">
      <path d="M 302.4 576.72 
L 302.4 483.988966 
" clip-path="url(#pe7c22326b5)" style="fill: none; stroke-dasharray: 1.85,0.8; stroke-dashoffset: 0; stroke: #b2b2b2; stroke-width: 0.5"/>
     </g>
     <g id="line2d_74">
      <g>
       <use xlink:href="#m9253af44d2" x="302.4" y="576.72" style="stroke: #000000; stroke-width: 0.8"/>
      </g>
     </g>
     <g id="text_15">
      <!-- 50 ns -->
      <g transform="translate(283.185 590.857813) scale(0.14 -0.14)">
       <defs>
        <path id="DejaVuSans-35" d="M 691 4666 
L 3169 4666 
L 3169 4134 
L 1269 4134 
L 1269 2991 
Q 1406 3038 1543 3061 
Q 1681 3084 1819 3084 
Q 2600 3084 3056 2656 
Q 3513 2228 3513 1497 
Q 3513 744 3044 326 
Q 2575 -91 1722 -91 
Q 1428 -91 1123 -41 
Q 819 9 494 109 
L 494 744 
Q 775 591 1075 516 
Q 1375 441 1709 441 
Q 2250 441 2565 725 
Q 2881 1009 2881 1497 
Q 2881 1984 2565 2268 
Q 2250 2553 1709 2553 
Q 1456 2553 1204 2497 
Q 953 2441 691 2322 
L 691 4666 
z
" transform="scale(0.015625)"/>
        <path id="DejaVuSans-6e" d="M 3513 2113 
L 3513 0 
L 2938 0 
L 2938 2094 
Q 2938 2591 2744 2837 
Q 2550 3084 2163 3084 
Q 1697 3084 1428 2787 
Q 1159 2491 1159 1978 
L 1159 0 
L 581 0 
L 581 3500 
L 1159 3500 
L 1159 2956 
Q 1366 3272 1645 3428 
Q 1925 3584 2291 3584 
Q 2894 3584 3203 3211 
Q 3513 2838 3513 2113 
z
" transform="scale(0.015625)"/>
       </defs>
       <use xlink:href="#DejaVuSans-35"/>
       <use xlink:href="#DejaVuSans-30" x="63.623047"/>
       <use xlink:href="#DejaVuSans-20" x="127.246094"/>
       <use xlink:href="#DejaVuSans-6e" x="159.033203"/>
       <use xlink:href="#DejaVuSans-73" x="222.412109"/>
      </g>
     </g>
    </g>
    <g id="xtick_27">
     <g id="line2d_75">
      <path d="M 463.68 576.72 
L 463.68 483.988966 
" clip-path="url(#pe7c22326b5)" style="fill: none; stroke-dasharray: 1.85,0.8; stroke-dashoffset: 0; stroke: #b2b2b2; stroke-width: 0.5"/>
     </g>
     <g id="line2d_76">
      <g>
       <use xlink:href="#m9253af44d2" x="463.68" y="576.72" style="stroke: #000000; stroke-width: 0.8"/>
      </g>
     </g>
     <g id="text_16">
      <!-- 100 ns -->
      <g transform="translate(440.01125 590.857813) scale(0.14 -0.14)">
       <use xlink:href="#DejaVuSans-31"/>
       <use xlink:href="#DejaVuSans-30" x="63.623047"/>
       <use xlink:href="#DejaVuSans-30" x="127.246094"/>
       <use xlink:href="#DejaVuSans-20" x="190.869141"/>
       <use xlink:href="#DejaVuSans-6e" x="222.65625"/>
       <use xlink:href="#DejaVuSans-73" x="286.035156"/>
      </g>
     </g>
    </g>
    <g id="xtick_28">
     <g id="line2d_77">
      <path d="M 624.96 576.72 
L 624.96 483.988966 
" clip-path="url(#pe7c22326b5)" style="fill: none; stroke-dasharray: 1.85,0.8; stroke-dashoffset: 0; stroke: #b2b2b2; stroke-width: 0.5"/>
     </g>
     <g id="line2d_78">
      <g>
       <use xlink:href="#m9253af44d2" x="624.96" y="576.72" style="stroke: #000000; stroke-width: 0.8"/>
      </g>
     </g>
     <g id="text_17">
      <!-- 150 ns -->
      <g transform="translate(601.29125 590.857813) scale(0.14 -0.14)">
       <use xlink:href="#DejaVuSans-31"/>
       <use xlink:href="#DejaVuSans-35" x="63.623047"/>
       <use xlink:href="#DejaVuSans-30" x="127.246094"/>
       <use xlink:href="#DejaVuSans-20" x="190.869141"/>
       <use xlink:href="#DejaVuSans-6e" x="222.65625"/>
       <use xlink:href="#DejaVuSans-73" x="286.035156"/>
      </g>
     </g>
    </g>
    <g id="xtick_29">
     <g id="line2d_79">
      <path d="M 786.24 576.72 
L 786.24 483.988966 
" clip-path="url(#pe7c22326b5)" style="fill: none; stroke-dasharray: 1.85,0.8; stroke-dashoffset: 0; stroke: #b2b2b2; stroke-width: 0.5"/>
     </g>
     <g id="line2d_80">
      <g>
       <use xlink:href="#m9253af44d2" x="786.24" y="576.72" style="stroke: #000000; stroke-width: 0.8"/>
      </g>
     </g>
     <g id="text_18">
      <!-- 200 ns -->
      <g transform="translate(762.57125 590.857813) scale(0.14 -0.14)">
       <use xlink:href="#DejaVuSans-32"/>
       <use xlink:href="#DejaVuSans-30" x="63.623047"/>
       <use xlink:href="#DejaVuSans-30" x="127.246094"/>
       <use xlink:href="#DejaVuSans-20" x="190.869141"/>
       <use xlink:href="#DejaVuSans-6e" x="222.65625"/>
       <use xlink:href="#DejaVuSans-73" x="286.035156"/>
      </g>
     </g>
    </g>
    <g id="xtick_30">
     <g id="line2d_81">
      <path d="M 947.52 576.72 
L 947.52 483.988966 
" clip-path="url(#pe7c22326b5)" style="fill: none; stroke-dasharray: 1.85,0.8; stroke-dashoffset: 0; stroke: #b2b2b2; stroke-width: 0.5"/>
     </g>
     <g id="line2d_82">
      <g>
       <use xlink:href="#m9253af44d2" x="947.52" y="576.72" style="stroke: #000000; stroke-width: 0.8"/>
      </g>
     </g>
     <g id="text_19">
      <!-- 250 ns -->
      <g transform="translate(923.85125 590.857813) scale(0.14 -0.14)">
       <use xlink:href="#DejaVuSans-32"/>
       <use xlink:href="#DejaVuSans-35" x="63.623047"/>
       <use xlink:href="#DejaVuSans-30" x="127.246094"/>
       <use xlink:href="#DejaVuSans-20" x="190.869141"/>
       <use xlink:href="#DejaVuSans-6e" x="222.65625"/>
       <use xlink:href="#DejaVuSans-73" x="286.035156"/>
      </g>
     </g>
    </g>
    <g id="text_20">
     <!-- Time -->
     <g transform="translate(527.192969 608.407187) scale(0.14 -0.14)">
      <defs>
       <path id="DejaVuSans-69" d="M 603 3500 
L 1178 3500 
L 1178 0 
L 603 0 
L 603 3500 
z
M 603 4863 
L 1178 4863 
L 1178 4134 
L 603 4134 
L 603 4863 
z
" transform="scale(0.015625)"/>
       <path id="DejaVuSans-6d" d="M 3328 2828 
Q 3544 3216 3844 3400 
Q 4144 3584 4550 3584 
Q 5097 3584 5394 3201 
Q 5691 2819 5691 2113 
L 5691 0 
L 5113 0 
L 5113 2094 
Q 5113 2597 4934 2840 
Q 4756 3084 4391 3084 
Q 3944 3084 3684 2787 
Q 3425 2491 3425 1978 
L 3425 0 
L 2847 0 
L 2847 2094 
Q 2847 2600 2669 2842 
Q 2491 3084 2119 3084 
Q 1678 3084 1418 2786 
Q 1159 2488 1159 1978 
L 1159 0 
L 581 0 
L 581 3500 
L 1159 3500 
L 1159 2956 
Q 1356 3278 1631 3431 
Q 1906 3584 2284 3584 
Q 2666 3584 2933 3390 
Q 3200 3197 3328 2828 
z
" transform="scale(0.015625)"/>
       <path id="DejaVuSans-65" d="M 3597 1894 
L 3597 1613 
L 953 1613 
Q 991 1019 1311 708 
Q 1631 397 2203 397 
Q 2534 397 2845 478 
Q 3156 559 3463 722 
L 3463 178 
Q 3153 47 2828 -22 
Q 2503 -91 2169 -91 
Q 1331 -91 842 396 
Q 353 884 353 1716 
Q 353 2575 817 3079 
Q 1281 3584 2069 3584 
Q 2775 3584 3186 3129 
Q 3597 2675 3597 1894 
z
M 3022 2063 
Q 3016 2534 2758 2815 
Q 2500 3097 2075 3097 
Q 1594 3097 1305 2825 
Q 1016 2553 972 2059 
L 3022 2063 
z
" transform="scale(0.015625)"/>
      </defs>
      <use xlink:href="#DejaVuSans-54"/>
      <use xlink:href="#DejaVuSans-69" x="57.958984"/>
      <use xlink:href="#DejaVuSans-6d" x="85.742188"/>
      <use xlink:href="#DejaVuSans-65" x="183.154297"/>
     </g>
    </g>
   </g>
   <g id="matplotlib.axis_10">
    <g id="ytick_10">
     <g id="line2d_83">
      <path d="M 100.8 570.962109 
L 987.84 570.962109 
" clip-path="url(#pe7c22326b5)" style="fill: none; stroke-dasharray: 1.85,0.8; stroke-dashoffset: 0; stroke: #b2b2b2; stroke-width: 0.5"/>
     </g>
     <g id="line2d_84">
      <g>
       <use xlink:href="#mec10ec7dba" x="100.8" y="570.962109" style="stroke: #000000; stroke-width: 0.8"/>
      </g>
     </g>
     <g id="text_21">
      <!-- 0 V -->
      <g transform="translate(74.36625 576.281015) scale(0.14 -0.14)">
       <use xlink:href="#DejaVuSans-30"/>
       <use xlink:href="#DejaVuSans-20" x="63.623047"/>
       <use xlink:href="#DejaVuSans-56" x="95.410156"/>
      </g>
     </g>
    </g>
    <g id="ytick_11">
     <g id="line2d_85">
      <path d="M 100.8 536.614099 
L 987.84 536.614099 
" clip-path="url(#pe7c22326b5)" style="fill: none; stroke-dasharray: 1.85,0.8; stroke-dashoffset: 0; stroke: #b2b2b2; stroke-width: 0.5"/>
     </g>
     <g id="line2d_86">
      <g>
       <use xlink:href="#mec10ec7dba" x="100.8" y="536.614099" style="stroke: #000000; stroke-width: 0.8"/>
      </g>
     </g>
     <g id="text_22">
      <!-- 500 mV -->
      <g transform="translate(42.914375 541.933005) scale(0.14 -0.14)">
       <use xlink:href="#DejaVuSans-35"/>
       <use xlink:href="#DejaVuSans-30" x="63.623047"/>
       <use xlink:href="#DejaVuSans-30" x="127.246094"/>
       <use xlink:href="#DejaVuSans-20" x="190.869141"/>
       <use xlink:href="#DejaVuSans-6d" x="222.65625"/>
       <use xlink:href="#DejaVuSans-56" x="320.068359"/>
      </g>
     </g>
    </g>
    <g id="ytick_12">
     <g id="line2d_87">
      <path d="M 100.8 502.266088 
L 987.84 502.266088 
" clip-path="url(#pe7c22326b5)" style="fill: none; stroke-dasharray: 1.85,0.8; stroke-dashoffset: 0; stroke: #b2b2b2; stroke-width: 0.5"/>
     </g>
     <g id="line2d_88">
      <g>
       <use xlink:href="#mec10ec7dba" x="100.8" y="502.266088" style="stroke: #000000; stroke-width: 0.8"/>
      </g>
     </g>
     <g id="text_23">
      <!-- 1 V -->
      <g transform="translate(74.36625 507.584994) scale(0.14 -0.14)">
       <use xlink:href="#DejaVuSans-31"/>
       <use xlink:href="#DejaVuSans-20" x="63.623047"/>
       <use xlink:href="#DejaVuSans-56" x="95.410156"/>
      </g>
     </g>
    </g>
    <g id="text_24">
     <g id="patch_27">
      <path d="M 34.8768 554.329483 
L 34.8768 506.379483 
L 11.247425 506.379483 
L 11.247425 554.329483 
z
" style="fill: #ffff00; opacity: 0.2; stroke: #eeeeee; stroke-width: 0.5; stroke-linejoin: miter"/>
     </g>
     <!-- FOUT -->
     <g transform="translate(26.925238 549.289483) rotate(-90) scale(0.14 -0.14)">
      <use xlink:href="#DejaVuSans-46"/>
      <use xlink:href="#DejaVuSans-4f" x="57.519531"/>
      <use xlink:href="#DejaVuSans-55" x="136.230469"/>
      <use xlink:href="#DejaVuSans-54" x="209.423828"/>
     </g>
    </g>
   </g>
   <g id="line2d_89">
    <path d="M 141.12 488.526884 
L 173.505024 488.58871 
L 173.53728 490.773244 
L 173.69856 572.504953 
L 173.730816 571.279306 
L 173.763072 570.920998 
L 173.85984 570.986895 
L 174.440448 570.965693 
L 182.988288 570.961679 
L 201.27744 570.9604 
L 250.62912 571.036349 
L 250.661376 571.077752 
L 250.693632 570.959675 
L 250.725888 568.713207 
L 251.080704 488.533753 
L 254.274048 488.568101 
L 254.306304 488.204013 
L 254.467584 571.080527 
L 254.532096 570.960023 
L 261.305856 570.960595 
L 416.553984 570.951603 
L 416.58624 571.160503 
L 416.650752 535.105534 
L 416.812032 488.925321 
L 416.973312 488.533753 
L 417.521664 488.526884 
L 947.52 488.526884 
L 947.52 488.526884 
" clip-path="url(#pe7c22326b5)" style="fill: none; stroke: #ff00ff; stroke-width: 2; stroke-linecap: square"/>
   </g>
   <g id="patch_28">
    <path d="M 100.8 576.72 
L 100.8 483.988966 
" style="fill: none; stroke: #bcbcbc; stroke-width: 0.8; stroke-linejoin: miter; stroke-linecap: square"/>
   </g>
   <g id="patch_29">
    <path d="M 987.84 576.72 
L 987.84 483.988966 
" style="fill: none; stroke: #bcbcbc; stroke-width: 0.8; stroke-linejoin: miter; stroke-linecap: square"/>
   </g>
   <g id="patch_30">
    <path d="M 100.8 576.72 
L 987.84 576.72 
" style="fill: none; stroke: #bcbcbc; stroke-width: 0.8; stroke-linejoin: miter; stroke-linecap: square"/>
   </g>
   <g id="patch_31">
    <path d="M 100.8 483.988966 
L 987.84 483.988966 
" style="fill: none; stroke: #bcbcbc; stroke-width: 0.8; stroke-linejoin: miter; stroke-linecap: square"/>
   </g>
  </g>
  <g id="axes_6">
   <g id="patch_32">
    <path d="M 201.6 628.56 
L 856.8 628.56 
L 856.8 615.6 
L 201.6 615.6 
z
" clip-path="url(#p1a3a15f420)" style="fill: #d3d3d3"/>
   </g>
   <g id="patch_33">
    <path d="M 201.6 628.56 
L 201.6 628.56 
L 201.6 615.6 
L 201.6 615.6 
z
" clip-path="url(#p1a3a15f420)" style="fill: #0000ff"/>
   </g>
   <g id="line2d_90">
    <path d="M 201.6 635.04 
L 201.6 609.12 
" clip-path="url(#pd45e922b39)" style="fill: none; stroke: #ff0000; stroke-linecap: square"/>
   </g>
   <g id="line2d_91">
    <defs>
     <path id="me101bd0e6c" d="M 0 5 
C 1.326016 5 2.597899 4.473168 3.535534 3.535534 
C 4.473168 2.597899 5 1.326016 5 0 
C 5 -1.326016 4.473168 -2.597899 3.535534 -3.535534 
C 2.597899 -4.473168 1.326016 -5 0 -5 
C -1.326016 -5 -2.597899 -4.473168 -3.535534 -3.535534 
C -4.473168 -2.597899 -5 -1.326016 -5 0 
C -5 1.326016 -4.473168 2.597899 -3.535534 3.535534 
C -2.597899 4.473168 -1.326016 5 0 5 
z
" style="stroke: #bfbfbf"/>
    </defs>
    <g>
     <use xlink:href="#me101bd0e6c" x="201.6" y="622.08" style="fill: #ffffff; stroke: #bfbfbf"/>
    </g>
   </g>
   <g id="text_25">
    <!-- #Sweep -->
    <g transform="translate(138.622875 625.39125) scale(0.12 -0.12)">
     <defs>
      <path id="DejaVuSans-23" d="M 3272 2816 
L 2363 2816 
L 2100 1772 
L 3016 1772 
L 3272 2816 
z
M 2803 4594 
L 2478 3297 
L 3391 3297 
L 3719 4594 
L 4219 4594 
L 3897 3297 
L 4872 3297 
L 4872 2816 
L 3775 2816 
L 3519 1772 
L 4513 1772 
L 4513 1294 
L 3397 1294 
L 3072 0 
L 2572 0 
L 2894 1294 
L 1978 1294 
L 1656 0 
L 1153 0 
L 1478 1294 
L 494 1294 
L 494 1772 
L 1594 1772 
L 1856 2816 
L 850 2816 
L 850 3297 
L 1978 3297 
L 2297 4594 
L 2803 4594 
z
" transform="scale(0.015625)"/>
      <path id="DejaVuSans-77" d="M 269 3500 
L 844 3500 
L 1563 769 
L 2278 3500 
L 2956 3500 
L 3675 769 
L 4391 3500 
L 4966 3500 
L 4050 0 
L 3372 0 
L 2619 2869 
L 1863 0 
L 1184 0 
L 269 3500 
z
" transform="scale(0.015625)"/>
      <path id="DejaVuSans-70" d="M 1159 525 
L 1159 -1331 
L 581 -1331 
L 581 3500 
L 1159 3500 
L 1159 2969 
Q 1341 3281 1617 3432 
Q 1894 3584 2278 3584 
Q 2916 3584 3314 3078 
Q 3713 2572 3713 1747 
Q 3713 922 3314 415 
Q 2916 -91 2278 -91 
Q 1894 -91 1617 61 
Q 1341 213 1159 525 
z
M 3116 1747 
Q 3116 2381 2855 2742 
Q 2594 3103 2138 3103 
Q 1681 3103 1420 2742 
Q 1159 2381 1159 1747 
Q 1159 1113 1420 752 
Q 1681 391 2138 391 
Q 2594 391 2855 752 
Q 3116 1113 3116 1747 
z
" transform="scale(0.015625)"/>
     </defs>
     <use xlink:href="#DejaVuSans-23"/>
     <use xlink:href="#DejaVuSans-53" x="83.789062"/>
     <use xlink:href="#DejaVuSans-77" x="147.265625"/>
     <use xlink:href="#DejaVuSans-65" x="229.052734"/>
     <use xlink:href="#DejaVuSans-65" x="290.576172"/>
     <use xlink:href="#DejaVuSans-70" x="352.099609"/>
    </g>
   </g>
   <g id="text_26">
    <!-- $\mathdefault{0}$ -->
    <g transform="translate(869.904 625.39125) scale(0.12 -0.12)">
     <use xlink:href="#DejaVuSans-30" transform="translate(0 0.78125)"/>
    </g>
   </g>
  </g>
  <g id="text_27">
   <!-- DFF under BBI sweep analysis (Sweep = 10E-9) -->
   <g transform="translate(313.34625 25.1175) scale(0.16 -0.16)">
    <defs>
     <path id="DejaVuSans-75" d="M 544 1381 
L 544 3500 
L 1119 3500 
L 1119 1403 
Q 1119 906 1312 657 
Q 1506 409 1894 409 
Q 2359 409 2629 706 
Q 2900 1003 2900 1516 
L 2900 3500 
L 3475 3500 
L 3475 0 
L 2900 0 
L 2900 538 
Q 2691 219 2414 64 
Q 2138 -91 1772 -91 
Q 1169 -91 856 284 
Q 544 659 544 1381 
z
M 1991 3584 
L 1991 3584 
z
" transform="scale(0.015625)"/>
     <path id="DejaVuSans-64" d="M 2906 2969 
L 2906 4863 
L 3481 4863 
L 3481 0 
L 2906 0 
L 2906 525 
Q 2725 213 2448 61 
Q 2172 -91 1784 -91 
Q 1150 -91 751 415 
Q 353 922 353 1747 
Q 353 2572 751 3078 
Q 1150 3584 1784 3584 
Q 2172 3584 2448 3432 
Q 2725 3281 2906 2969 
z
M 947 1747 
Q 947 1113 1208 752 
Q 1469 391 1925 391 
Q 2381 391 2643 752 
Q 2906 1113 2906 1747 
Q 2906 2381 2643 2742 
Q 2381 3103 1925 3103 
Q 1469 3103 1208 2742 
Q 947 2381 947 1747 
z
" transform="scale(0.015625)"/>
     <path id="DejaVuSans-72" d="M 2631 2963 
Q 2534 3019 2420 3045 
Q 2306 3072 2169 3072 
Q 1681 3072 1420 2755 
Q 1159 2438 1159 1844 
L 1159 0 
L 581 0 
L 581 3500 
L 1159 3500 
L 1159 2956 
Q 1341 3275 1631 3429 
Q 1922 3584 2338 3584 
Q 2397 3584 2469 3576 
Q 2541 3569 2628 3553 
L 2631 2963 
z
" transform="scale(0.015625)"/>
     <path id="DejaVuSans-61" d="M 2194 1759 
Q 1497 1759 1228 1600 
Q 959 1441 959 1056 
Q 959 750 1161 570 
Q 1363 391 1709 391 
Q 2188 391 2477 730 
Q 2766 1069 2766 1631 
L 2766 1759 
L 2194 1759 
z
M 3341 1997 
L 3341 0 
L 2766 0 
L 2766 531 
Q 2569 213 2275 61 
Q 1981 -91 1556 -91 
Q 1019 -91 701 211 
Q 384 513 384 1019 
Q 384 1609 779 1909 
Q 1175 2209 1959 2209 
L 2766 2209 
L 2766 2266 
Q 2766 2663 2505 2880 
Q 2244 3097 1772 3097 
Q 1472 3097 1187 3025 
Q 903 2953 641 2809 
L 641 3341 
Q 956 3463 1253 3523 
Q 1550 3584 1831 3584 
Q 2591 3584 2966 3190 
Q 3341 2797 3341 1997 
z
" transform="scale(0.015625)"/>
     <path id="DejaVuSans-6c" d="M 603 4863 
L 1178 4863 
L 1178 0 
L 603 0 
L 603 4863 
z
" transform="scale(0.015625)"/>
     <path id="DejaVuSans-79" d="M 2059 -325 
Q 1816 -950 1584 -1140 
Q 1353 -1331 966 -1331 
L 506 -1331 
L 506 -850 
L 844 -850 
Q 1081 -850 1212 -737 
Q 1344 -625 1503 -206 
L 1606 56 
L 191 3500 
L 800 3500 
L 1894 763 
L 2988 3500 
L 3597 3500 
L 2059 -325 
z
" transform="scale(0.015625)"/>
     <path id="DejaVuSans-28" d="M 1984 4856 
Q 1566 4138 1362 3434 
Q 1159 2731 1159 2009 
Q 1159 1288 1364 580 
Q 1569 -128 1984 -844 
L 1484 -844 
Q 1016 -109 783 600 
Q 550 1309 550 2009 
Q 550 2706 781 3412 
Q 1013 4119 1484 4856 
L 1984 4856 
z
" transform="scale(0.015625)"/>
     <path id="DejaVuSans-3d" d="M 678 2906 
L 4684 2906 
L 4684 2381 
L 678 2381 
L 678 2906 
z
M 678 1631 
L 4684 1631 
L 4684 1100 
L 678 1100 
L 678 1631 
z
" transform="scale(0.015625)"/>
     <path id="DejaVuSans-2d" d="M 313 2009 
L 1997 2009 
L 1997 1497 
L 313 1497 
L 313 2009 
z
" transform="scale(0.015625)"/>
     <path id="DejaVuSans-39" d="M 703 97 
L 703 672 
Q 941 559 1184 500 
Q 1428 441 1663 441 
Q 2288 441 2617 861 
Q 2947 1281 2994 2138 
Q 2813 1869 2534 1725 
Q 2256 1581 1919 1581 
Q 1219 1581 811 2004 
Q 403 2428 403 3163 
Q 403 3881 828 4315 
Q 1253 4750 1959 4750 
Q 2769 4750 3195 4129 
Q 3622 3509 3622 2328 
Q 3622 1225 3098 567 
Q 2575 -91 1691 -91 
Q 1453 -91 1209 -44 
Q 966 3 703 97 
z
M 1959 2075 
Q 2384 2075 2632 2365 
Q 2881 2656 2881 3163 
Q 2881 3666 2632 3958 
Q 2384 4250 1959 4250 
Q 1534 4250 1286 3958 
Q 1038 3666 1038 3163 
Q 1038 2656 1286 2365 
Q 1534 2075 1959 2075 
z
" transform="scale(0.015625)"/>
     <path id="DejaVuSans-29" d="M 513 4856 
L 1013 4856 
Q 1481 4119 1714 3412 
Q 1947 2706 1947 2009 
Q 1947 1309 1714 600 
Q 1481 -109 1013 -844 
L 513 -844 
Q 928 -128 1133 580 
Q 1338 1288 1338 2009 
Q 1338 2731 1133 3434 
Q 928 4138 513 4856 
z
" transform="scale(0.015625)"/>
    </defs>
    <use xlink:href="#DejaVuSans-44"/>
    <use xlink:href="#DejaVuSans-46" x="77.001953"/>
    <use xlink:href="#DejaVuSans-46" x="134.521484"/>
    <use xlink:href="#DejaVuSans-20" x="192.041016"/>
    <use xlink:href="#DejaVuSans-75" x="223.828125"/>
    <use xlink:href="#DejaVuSans-6e" x="287.207031"/>
    <use xlink:href="#DejaVuSans-64" x="350.585938"/>
    <use xlink:href="#DejaVuSans-65" x="414.0625"/>
    <use xlink:href="#DejaVuSans-72" x="475.585938"/>
    <use xlink:href="#DejaVuSans-20" x="516.699219"/>
    <use xlink:href="#DejaVuSans-42" x="548.486328"/>
    <use xlink:href="#DejaVuSans-42" x="617.089844"/>
    <use xlink:href="#DejaVuSans-49" x="685.693359"/>
    <use xlink:href="#DejaVuSans-20" x="715.185547"/>
    <use xlink:href="#DejaVuSans-73" x="746.972656"/>
    <use xlink:href="#DejaVuSans-77" x="799.072266"/>
    <use xlink:href="#DejaVuSans-65" x="880.859375"/>
    <use xlink:href="#DejaVuSans-65" x="942.382812"/>
    <use xlink:href="#DejaVuSans-70" x="1003.90625"/>
    <use xlink:href="#DejaVuSans-20" x="1067.382812"/>
    <use xlink:href="#DejaVuSans-61" x="1099.169922"/>
    <use xlink:href="#DejaVuSans-6e" x="1160.449219"/>
    <use xlink:href="#DejaVuSans-61" x="1223.828125"/>
    <use xlink:href="#DejaVuSans-6c" x="1285.107422"/>
    <use xlink:href="#DejaVuSans-79" x="1312.890625"/>
    <use xlink:href="#DejaVuSans-73" x="1372.070312"/>
    <use xlink:href="#DejaVuSans-69" x="1424.169922"/>
    <use xlink:href="#DejaVuSans-73" x="1451.953125"/>
    <use xlink:href="#DejaVuSans-20" x="1504.052734"/>
    <use xlink:href="#DejaVuSans-28" x="1535.839844"/>
    <use xlink:href="#DejaVuSans-53" x="1574.853516"/>
    <use xlink:href="#DejaVuSans-77" x="1638.330078"/>
    <use xlink:href="#DejaVuSans-65" x="1720.117188"/>
    <use xlink:href="#DejaVuSans-65" x="1781.640625"/>
    <use xlink:href="#DejaVuSans-70" x="1843.164062"/>
    <use xlink:href="#DejaVuSans-20" x="1906.640625"/>
    <use xlink:href="#DejaVuSans-3d" x="1938.427734"/>
    <use xlink:href="#DejaVuSans-20" x="2022.216797"/>
    <use xlink:href="#DejaVuSans-31" x="2054.003906"/>
    <use xlink:href="#DejaVuSans-30" x="2117.626953"/>
    <use xlink:href="#DejaVuSans-45" x="2181.25"/>
    <use xlink:href="#DejaVuSans-2d" x="2244.433594"/>
    <use xlink:href="#DejaVuSans-39" x="2280.517578"/>
    <use xlink:href="#DejaVuSans-29" x="2344.140625"/>
   </g>
  </g>
 </g>
 <defs>
  <clipPath id="p29c52dc6e0">
   <rect x="100.8" y="38.88" width="887.04" height="92.731034"/>
  </clipPath>
  <clipPath id="p75568125dc">
   <rect x="100.8" y="150.157241" width="887.04" height="92.731034"/>
  </clipPath>
  <clipPath id="p35fdb451e5">
   <rect x="100.8" y="261.434483" width="887.04" height="92.731034"/>
  </clipPath>
  <clipPath id="pa92d7a04a5">
   <rect x="100.8" y="372.711724" width="887.04" height="92.731034"/>
  </clipPath>
  <clipPath id="pe7c22326b5">
   <rect x="100.8" y="483.988966" width="887.04" height="92.731034"/>
  </clipPath>
  <clipPath id="p1a3a15f420">
   <rect x="201.6" y="609.12" width="655.2" height="25.92"/>
  </clipPath>
  <clipPath id="pd45e922b39">
   <path d="M 201.6 628.56 
L 856.8 628.56 
L 856.8 615.6 
L 201.6 615.6 
z
"/>
  </clipPath>
 </defs>
</svg>
