<?xml version="1.0" encoding="utf-8" standalone="no"?>
<!DOCTYPE svg PUBLIC "-//W3C//DTD SVG 1.1//EN"
  "http://www.w3.org/Graphics/SVG/1.1/DTD/svg11.dtd">
<svg xmlns:xlink="http://www.w3.org/1999/xlink" width="1008pt" height="648pt" viewBox="0 0 1008 648" xmlns="http://www.w3.org/2000/svg" version="1.1">
 <metadata>
  <rdf:RDF xmlns:dc="http://purl.org/dc/elements/1.1/" xmlns:cc="http://creativecommons.org/ns#" xmlns:rdf="http://www.w3.org/1999/02/22-rdf-syntax-ns#">
   <cc:Work>
    <dc:type rdf:resource="http://purl.org/dc/dcmitype/StillImage"/>
    <dc:date>2024-06-03T10:45:36.560735</dc:date>
    <dc:format>image/svg+xml</dc:format>
    <dc:creator>
     <cc:Agent>
      <dc:title>Matplotlib v3.9.0, https://matplotlib.org/</dc:title>
     </cc:Agent>
    </dc:creator>
   </cc:Work>
  </rdf:RDF>
 </metadata>
 <defs>
  <style type="text/css">*{stroke-linejoin: round; stroke-linecap: butt}</style>
 </defs>
 <g id="figure_1">
  <g id="patch_1">
   <path d="M 0 648 
L 1008 648 
L 1008 0 
L 0 0 
z
" style="fill: #ffffff"/>
  </g>
  <g id="axes_1">
   <g id="patch_2">
    <path d="M 100.8 131.611034 
L 987.84 131.611034 
L 987.84 38.88 
L 100.8 38.88 
z
" style="fill: #eeeeee"/>
   </g>
   <g id="matplotlib.axis_1">
    <g id="xtick_1">
     <g id="line2d_1">
      <path d="M 141.12 131.611034 
L 141.12 38.88 
" clip-path="url(#p096e7ba683)" style="fill: none; stroke-dasharray: 1.85,0.8; stroke-dashoffset: 0; stroke: #b2b2b2; stroke-width: 0.5"/>
     </g>
     <g id="line2d_2">
      <defs>
       <path id="m1009817426" d="M 0 0 
L 0 -3.5 
" style="stroke: #000000; stroke-width: 0.8"/>
      </defs>
      <g>
       <use xlink:href="#m1009817426" x="141.12" y="131.611034" style="stroke: #000000; stroke-width: 0.8"/>
      </g>
     </g>
    </g>
    <g id="xtick_2">
     <g id="line2d_3">
      <path d="M 302.4 131.611034 
L 302.4 38.88 
" clip-path="url(#p096e7ba683)" style="fill: none; stroke-dasharray: 1.85,0.8; stroke-dashoffset: 0; stroke: #b2b2b2; stroke-width: 0.5"/>
     </g>
     <g id="line2d_4">
      <g>
       <use xlink:href="#m1009817426" x="302.4" y="131.611034" style="stroke: #000000; stroke-width: 0.8"/>
      </g>
     </g>
    </g>
    <g id="xtick_3">
     <g id="line2d_5">
      <path d="M 463.68 131.611034 
L 463.68 38.88 
" clip-path="url(#p096e7ba683)" style="fill: none; stroke-dasharray: 1.85,0.8; stroke-dashoffset: 0; stroke: #b2b2b2; stroke-width: 0.5"/>
     </g>
     <g id="line2d_6">
      <g>
       <use xlink:href="#m1009817426" x="463.68" y="131.611034" style="stroke: #000000; stroke-width: 0.8"/>
      </g>
     </g>
    </g>
    <g id="xtick_4">
     <g id="line2d_7">
      <path d="M 624.96 131.611034 
L 624.96 38.88 
" clip-path="url(#p096e7ba683)" style="fill: none; stroke-dasharray: 1.85,0.8; stroke-dashoffset: 0; stroke: #b2b2b2; stroke-width: 0.5"/>
     </g>
     <g id="line2d_8">
      <g>
       <use xlink:href="#m1009817426" x="624.96" y="131.611034" style="stroke: #000000; stroke-width: 0.8"/>
      </g>
     </g>
    </g>
    <g id="xtick_5">
     <g id="line2d_9">
      <path d="M 786.24 131.611034 
L 786.24 38.88 
" clip-path="url(#p096e7ba683)" style="fill: none; stroke-dasharray: 1.85,0.8; stroke-dashoffset: 0; stroke: #b2b2b2; stroke-width: 0.5"/>
     </g>
     <g id="line2d_10">
      <g>
       <use xlink:href="#m1009817426" x="786.24" y="131.611034" style="stroke: #000000; stroke-width: 0.8"/>
      </g>
     </g>
    </g>
    <g id="xtick_6">
     <g id="line2d_11">
      <path d="M 947.52 131.611034 
L 947.52 38.88 
" clip-path="url(#p096e7ba683)" style="fill: none; stroke-dasharray: 1.85,0.8; stroke-dashoffset: 0; stroke: #b2b2b2; stroke-width: 0.5"/>
     </g>
     <g id="line2d_12">
      <g>
       <use xlink:href="#m1009817426" x="947.52" y="131.611034" style="stroke: #000000; stroke-width: 0.8"/>
      </g>
     </g>
    </g>
   </g>
   <g id="matplotlib.axis_2">
    <g id="ytick_1">
     <g id="line2d_13">
      <path d="M 100.8 98.340394 
L 987.84 98.340394 
" clip-path="url(#p096e7ba683)" style="fill: none; stroke-dasharray: 1.85,0.8; stroke-dashoffset: 0; stroke: #b2b2b2; stroke-width: 0.5"/>
     </g>
     <g id="line2d_14">
      <defs>
       <path id="mc28a266c81" d="M 0 0 
L 3.5 0 
" style="stroke: #000000; stroke-width: 0.8"/>
      </defs>
      <g>
       <use xlink:href="#mc28a266c81" x="100.8" y="98.340394" style="stroke: #000000; stroke-width: 0.8"/>
      </g>
     </g>
     <g id="text_1">
      <!-- −200 V -->
      <g transform="translate(44.819688 103.6593) scale(0.14 -0.14)">
       <defs>
        <path id="DejaVuSans-2212" d="M 678 2272 
L 4684 2272 
L 4684 1741 
L 678 1741 
L 678 2272 
z
" transform="scale(0.015625)"/>
        <path id="DejaVuSans-32" d="M 1228 531 
L 3431 531 
L 3431 0 
L 469 0 
L 469 531 
Q 828 903 1448 1529 
Q 2069 2156 2228 2338 
Q 2531 2678 2651 2914 
Q 2772 3150 2772 3378 
Q 2772 3750 2511 3984 
Q 2250 4219 1831 4219 
Q 1534 4219 1204 4116 
Q 875 4013 500 3803 
L 500 4441 
Q 881 4594 1212 4672 
Q 1544 4750 1819 4750 
Q 2544 4750 2975 4387 
Q 3406 4025 3406 3419 
Q 3406 3131 3298 2873 
Q 3191 2616 2906 2266 
Q 2828 2175 2409 1742 
Q 1991 1309 1228 531 
z
" transform="scale(0.015625)"/>
        <path id="DejaVuSans-30" d="M 2034 4250 
Q 1547 4250 1301 3770 
Q 1056 3291 1056 2328 
Q 1056 1369 1301 889 
Q 1547 409 2034 409 
Q 2525 409 2770 889 
Q 3016 1369 3016 2328 
Q 3016 3291 2770 3770 
Q 2525 4250 2034 4250 
z
M 2034 4750 
Q 2819 4750 3233 4129 
Q 3647 3509 3647 2328 
Q 3647 1150 3233 529 
Q 2819 -91 2034 -91 
Q 1250 -91 836 529 
Q 422 1150 422 2328 
Q 422 3509 836 4129 
Q 1250 4750 2034 4750 
z
" transform="scale(0.015625)"/>
        <path id="DejaVuSans-20" transform="scale(0.015625)"/>
        <path id="DejaVuSans-56" d="M 1831 0 
L 50 4666 
L 709 4666 
L 2188 738 
L 3669 4666 
L 4325 4666 
L 2547 0 
L 1831 0 
z
" transform="scale(0.015625)"/>
       </defs>
       <use xlink:href="#DejaVuSans-2212"/>
       <use xlink:href="#DejaVuSans-32" x="83.789062"/>
       <use xlink:href="#DejaVuSans-30" x="147.412109"/>
       <use xlink:href="#DejaVuSans-30" x="211.035156"/>
       <use xlink:href="#DejaVuSans-20" x="274.658203"/>
       <use xlink:href="#DejaVuSans-56" x="306.445312"/>
      </g>
     </g>
    </g>
    <g id="ytick_2">
     <g id="line2d_15">
      <path d="M 100.8 45.027377 
L 987.84 45.027377 
" clip-path="url(#p096e7ba683)" style="fill: none; stroke-dasharray: 1.85,0.8; stroke-dashoffset: 0; stroke: #b2b2b2; stroke-width: 0.5"/>
     </g>
     <g id="line2d_16">
      <g>
       <use xlink:href="#mc28a266c81" x="100.8" y="45.027377" style="stroke: #000000; stroke-width: 0.8"/>
      </g>
     </g>
     <g id="text_2">
      <!-- 0 V -->
      <g transform="translate(74.36625 50.346284) scale(0.14 -0.14)">
       <use xlink:href="#DejaVuSans-30"/>
       <use xlink:href="#DejaVuSans-20" x="63.623047"/>
       <use xlink:href="#DejaVuSans-56" x="95.410156"/>
      </g>
     </g>
    </g>
    <g id="text_3">
     <g id="patch_3">
      <path d="M 34.8768 131.080205 
L 34.8768 39.41083 
L 11.247425 39.41083 
L 11.247425 131.080205 
z
" style="fill: #ffff00; opacity: 0.2; stroke: #eeeeee; stroke-width: 0.5; stroke-linejoin: miter"/>
     </g>
     <!-- VPULSE BBI -->
     <g transform="translate(26.925238 126.040205) rotate(-90) scale(0.14 -0.14)">
      <defs>
       <path id="DejaVuSans-50" d="M 1259 4147 
L 1259 2394 
L 2053 2394 
Q 2494 2394 2734 2622 
Q 2975 2850 2975 3272 
Q 2975 3691 2734 3919 
Q 2494 4147 2053 4147 
L 1259 4147 
z
M 628 4666 
L 2053 4666 
Q 2838 4666 3239 4311 
Q 3641 3956 3641 3272 
Q 3641 2581 3239 2228 
Q 2838 1875 2053 1875 
L 1259 1875 
L 1259 0 
L 628 0 
L 628 4666 
z
" transform="scale(0.015625)"/>
       <path id="DejaVuSans-55" d="M 556 4666 
L 1191 4666 
L 1191 1831 
Q 1191 1081 1462 751 
Q 1734 422 2344 422 
Q 2950 422 3222 751 
Q 3494 1081 3494 1831 
L 3494 4666 
L 4128 4666 
L 4128 1753 
Q 4128 841 3676 375 
Q 3225 -91 2344 -91 
Q 1459 -91 1007 375 
Q 556 841 556 1753 
L 556 4666 
z
" transform="scale(0.015625)"/>
       <path id="DejaVuSans-4c" d="M 628 4666 
L 1259 4666 
L 1259 531 
L 3531 531 
L 3531 0 
L 628 0 
L 628 4666 
z
" transform="scale(0.015625)"/>
       <path id="DejaVuSans-53" d="M 3425 4513 
L 3425 3897 
Q 3066 4069 2747 4153 
Q 2428 4238 2131 4238 
Q 1616 4238 1336 4038 
Q 1056 3838 1056 3469 
Q 1056 3159 1242 3001 
Q 1428 2844 1947 2747 
L 2328 2669 
Q 3034 2534 3370 2195 
Q 3706 1856 3706 1288 
Q 3706 609 3251 259 
Q 2797 -91 1919 -91 
Q 1588 -91 1214 -16 
Q 841 59 441 206 
L 441 856 
Q 825 641 1194 531 
Q 1563 422 1919 422 
Q 2459 422 2753 634 
Q 3047 847 3047 1241 
Q 3047 1584 2836 1778 
Q 2625 1972 2144 2069 
L 1759 2144 
Q 1053 2284 737 2584 
Q 422 2884 422 3419 
Q 422 4038 858 4394 
Q 1294 4750 2059 4750 
Q 2388 4750 2728 4690 
Q 3069 4631 3425 4513 
z
" transform="scale(0.015625)"/>
       <path id="DejaVuSans-45" d="M 628 4666 
L 3578 4666 
L 3578 4134 
L 1259 4134 
L 1259 2753 
L 3481 2753 
L 3481 2222 
L 1259 2222 
L 1259 531 
L 3634 531 
L 3634 0 
L 628 0 
L 628 4666 
z
" transform="scale(0.015625)"/>
       <path id="DejaVuSans-42" d="M 1259 2228 
L 1259 519 
L 2272 519 
Q 2781 519 3026 730 
Q 3272 941 3272 1375 
Q 3272 1813 3026 2020 
Q 2781 2228 2272 2228 
L 1259 2228 
z
M 1259 4147 
L 1259 2741 
L 2194 2741 
Q 2656 2741 2882 2914 
Q 3109 3088 3109 3444 
Q 3109 3797 2882 3972 
Q 2656 4147 2194 4147 
L 1259 4147 
z
M 628 4666 
L 2241 4666 
Q 2963 4666 3353 4366 
Q 3744 4066 3744 3513 
Q 3744 3084 3544 2831 
Q 3344 2578 2956 2516 
Q 3422 2416 3680 2098 
Q 3938 1781 3938 1306 
Q 3938 681 3513 340 
Q 3088 0 2303 0 
L 628 0 
L 628 4666 
z
" transform="scale(0.015625)"/>
       <path id="DejaVuSans-49" d="M 628 4666 
L 1259 4666 
L 1259 0 
L 628 0 
L 628 4666 
z
" transform="scale(0.015625)"/>
      </defs>
      <use xlink:href="#DejaVuSans-56"/>
      <use xlink:href="#DejaVuSans-50" x="68.408203"/>
      <use xlink:href="#DejaVuSans-55" x="128.710938"/>
      <use xlink:href="#DejaVuSans-4c" x="201.904297"/>
      <use xlink:href="#DejaVuSans-53" x="257.617188"/>
      <use xlink:href="#DejaVuSans-45" x="321.09375"/>
      <use xlink:href="#DejaVuSans-20" x="384.277344"/>
      <use xlink:href="#DejaVuSans-42" x="416.064453"/>
      <use xlink:href="#DejaVuSans-42" x="484.667969"/>
      <use xlink:href="#DejaVuSans-49" x="553.271484"/>
     </g>
    </g>
   </g>
   <g id="line2d_17">
    <path d="M 141.12 45.027377 
L 305.657856 45.136282 
L 306.141696 46.425538 
L 314.366976 69.006772 
L 321.785856 89.863624 
L 323.398656 94.440546 
L 325.204992 99.673219 
L 328.656384 110.703682 
L 331.59168 119.593628 
L 332.301312 119.940162 
L 333.462528 120.483955 
L 333.946368 120.713201 
L 334.914048 121.150368 
L 335.494656 121.40627 
L 336.365568 121.790124 
L 336.946176 122.046026 
L 337.784832 122.403223 
L 339.268608 123.016323 
L 340.010496 123.309545 
L 341.365248 123.858669 
L 343.881216 124.802309 
L 344.97792 125.228813 
L 345.62304 125.495378 
L 346.719744 125.921883 
L 347.5584 126.241761 
L 348.558336 126.614952 
L 349.558272 126.969483 
L 350.13888 127.182735 
L 351.42912 127.395987 
L 370.073088 127.289361 
L 370.29888 126.801547 
L 388.588032 75.087922 
L 392.329728 63.292417 
L 396.039168 51.617666 
L 400.651776 49.3412 
L 406.006272 46.984578 
L 414.715392 43.484472 
L 415.586304 43.268927 
L 429.875712 43.108189 
L 436.681728 43.184799 
L 452.035584 43.746186 
L 479.808 44.46146 
L 505.45152 44.774399 
L 541.062144 44.945888 
L 589.091328 44.953885 
L 947.52 44.953885 
L 947.52 44.953885 
" clip-path="url(#p096e7ba683)" style="fill: none; stroke: #ff0000; stroke-width: 2; stroke-linecap: square"/>
   </g>
   <g id="patch_4">
    <path d="M 100.8 131.611034 
L 100.8 38.88 
" style="fill: none; stroke: #bcbcbc; stroke-width: 0.8; stroke-linejoin: miter; stroke-linecap: square"/>
   </g>
   <g id="patch_5">
    <path d="M 987.84 131.611034 
L 987.84 38.88 
" style="fill: none; stroke: #bcbcbc; stroke-width: 0.8; stroke-linejoin: miter; stroke-linecap: square"/>
   </g>
   <g id="patch_6">
    <path d="M 100.8 131.611034 
L 987.84 131.611034 
" style="fill: none; stroke: #bcbcbc; stroke-width: 0.8; stroke-linejoin: miter; stroke-linecap: square"/>
   </g>
   <g id="patch_7">
    <path d="M 100.8 38.88 
L 987.84 38.88 
" style="fill: none; stroke: #bcbcbc; stroke-width: 0.8; stroke-linejoin: miter; stroke-linecap: square"/>
   </g>
  </g>
  <g id="axes_2">
   <g id="patch_8">
    <path d="M 100.8 242.888276 
L 987.84 242.888276 
L 987.84 150.157241 
L 100.8 150.157241 
z
" style="fill: #eeeeee"/>
   </g>
   <g id="matplotlib.axis_3">
    <g id="xtick_7">
     <g id="line2d_18">
      <path d="M 141.12 242.888276 
L 141.12 150.157241 
" clip-path="url(#p54f7d28aaf)" style="fill: none; stroke-dasharray: 1.85,0.8; stroke-dashoffset: 0; stroke: #b2b2b2; stroke-width: 0.5"/>
     </g>
     <g id="line2d_19">
      <g>
       <use xlink:href="#m1009817426" x="141.12" y="242.888276" style="stroke: #000000; stroke-width: 0.8"/>
      </g>
     </g>
    </g>
    <g id="xtick_8">
     <g id="line2d_20">
      <path d="M 302.4 242.888276 
L 302.4 150.157241 
" clip-path="url(#p54f7d28aaf)" style="fill: none; stroke-dasharray: 1.85,0.8; stroke-dashoffset: 0; stroke: #b2b2b2; stroke-width: 0.5"/>
     </g>
     <g id="line2d_21">
      <g>
       <use xlink:href="#m1009817426" x="302.4" y="242.888276" style="stroke: #000000; stroke-width: 0.8"/>
      </g>
     </g>
    </g>
    <g id="xtick_9">
     <g id="line2d_22">
      <path d="M 463.68 242.888276 
L 463.68 150.157241 
" clip-path="url(#p54f7d28aaf)" style="fill: none; stroke-dasharray: 1.85,0.8; stroke-dashoffset: 0; stroke: #b2b2b2; stroke-width: 0.5"/>
     </g>
     <g id="line2d_23">
      <g>
       <use xlink:href="#m1009817426" x="463.68" y="242.888276" style="stroke: #000000; stroke-width: 0.8"/>
      </g>
     </g>
    </g>
    <g id="xtick_10">
     <g id="line2d_24">
      <path d="M 624.96 242.888276 
L 624.96 150.157241 
" clip-path="url(#p54f7d28aaf)" style="fill: none; stroke-dasharray: 1.85,0.8; stroke-dashoffset: 0; stroke: #b2b2b2; stroke-width: 0.5"/>
     </g>
     <g id="line2d_25">
      <g>
       <use xlink:href="#m1009817426" x="624.96" y="242.888276" style="stroke: #000000; stroke-width: 0.8"/>
      </g>
     </g>
    </g>
    <g id="xtick_11">
     <g id="line2d_26">
      <path d="M 786.24 242.888276 
L 786.24 150.157241 
" clip-path="url(#p54f7d28aaf)" style="fill: none; stroke-dasharray: 1.85,0.8; stroke-dashoffset: 0; stroke: #b2b2b2; stroke-width: 0.5"/>
     </g>
     <g id="line2d_27">
      <g>
       <use xlink:href="#m1009817426" x="786.24" y="242.888276" style="stroke: #000000; stroke-width: 0.8"/>
      </g>
     </g>
    </g>
    <g id="xtick_12">
     <g id="line2d_28">
      <path d="M 947.52 242.888276 
L 947.52 150.157241 
" clip-path="url(#p54f7d28aaf)" style="fill: none; stroke-dasharray: 1.85,0.8; stroke-dashoffset: 0; stroke: #b2b2b2; stroke-width: 0.5"/>
     </g>
     <g id="line2d_29">
      <g>
       <use xlink:href="#m1009817426" x="947.52" y="242.888276" style="stroke: #000000; stroke-width: 0.8"/>
      </g>
     </g>
    </g>
   </g>
   <g id="matplotlib.axis_4">
    <g id="ytick_3">
     <g id="line2d_30">
      <path d="M 100.8 219.145225 
L 987.84 219.145225 
" clip-path="url(#p54f7d28aaf)" style="fill: none; stroke-dasharray: 1.85,0.8; stroke-dashoffset: 0; stroke: #b2b2b2; stroke-width: 0.5"/>
     </g>
     <g id="line2d_31">
      <g>
       <use xlink:href="#mc28a266c81" x="100.8" y="219.145225" style="stroke: #000000; stroke-width: 0.8"/>
      </g>
     </g>
     <g id="text_4">
      <!-- 0 V -->
      <g transform="translate(74.36625 224.464131) scale(0.14 -0.14)">
       <use xlink:href="#DejaVuSans-30"/>
       <use xlink:href="#DejaVuSans-20" x="63.623047"/>
       <use xlink:href="#DejaVuSans-56" x="95.410156"/>
      </g>
     </g>
    </g>
    <g id="ytick_4">
     <g id="line2d_32">
      <path d="M 100.8 185.179343 
L 987.84 185.179343 
" clip-path="url(#p54f7d28aaf)" style="fill: none; stroke-dasharray: 1.85,0.8; stroke-dashoffset: 0; stroke: #b2b2b2; stroke-width: 0.5"/>
     </g>
     <g id="line2d_33">
      <g>
       <use xlink:href="#mc28a266c81" x="100.8" y="185.179343" style="stroke: #000000; stroke-width: 0.8"/>
      </g>
     </g>
     <g id="text_5">
      <!-- 1 V -->
      <g transform="translate(74.36625 190.498249) scale(0.14 -0.14)">
       <defs>
        <path id="DejaVuSans-31" d="M 794 531 
L 1825 531 
L 1825 4091 
L 703 3866 
L 703 4441 
L 1819 4666 
L 2450 4666 
L 2450 531 
L 3481 531 
L 3481 0 
L 794 0 
L 794 531 
z
" transform="scale(0.015625)"/>
       </defs>
       <use xlink:href="#DejaVuSans-31"/>
       <use xlink:href="#DejaVuSans-20" x="63.623047"/>
       <use xlink:href="#DejaVuSans-56" x="95.410156"/>
      </g>
     </g>
    </g>
    <g id="ytick_5">
     <g id="line2d_34">
      <path d="M 100.8 151.213461 
L 987.84 151.213461 
" clip-path="url(#p54f7d28aaf)" style="fill: none; stroke-dasharray: 1.85,0.8; stroke-dashoffset: 0; stroke: #b2b2b2; stroke-width: 0.5"/>
     </g>
     <g id="line2d_35">
      <g>
       <use xlink:href="#mc28a266c81" x="100.8" y="151.213461" style="stroke: #000000; stroke-width: 0.8"/>
      </g>
     </g>
     <g id="text_6">
      <!-- 2 V -->
      <g transform="translate(74.36625 156.532368) scale(0.14 -0.14)">
       <use xlink:href="#DejaVuSans-32"/>
       <use xlink:href="#DejaVuSans-20" x="63.623047"/>
       <use xlink:href="#DejaVuSans-56" x="95.410156"/>
      </g>
     </g>
    </g>
    <g id="text_7">
     <g id="patch_9">
      <path d="M 34.8768 224.531509 
L 34.8768 168.514009 
L 11.247425 168.514009 
L 11.247425 224.531509 
z
" style="fill: #ffff00; opacity: 0.2; stroke: #eeeeee; stroke-width: 0.5; stroke-linejoin: miter"/>
     </g>
     <!-- DFF IN -->
     <g transform="translate(26.925238 219.491509) rotate(-90) scale(0.14 -0.14)">
      <defs>
       <path id="DejaVuSans-44" d="M 1259 4147 
L 1259 519 
L 2022 519 
Q 2988 519 3436 956 
Q 3884 1394 3884 2338 
Q 3884 3275 3436 3711 
Q 2988 4147 2022 4147 
L 1259 4147 
z
M 628 4666 
L 1925 4666 
Q 3281 4666 3915 4102 
Q 4550 3538 4550 2338 
Q 4550 1131 3912 565 
Q 3275 0 1925 0 
L 628 0 
L 628 4666 
z
" transform="scale(0.015625)"/>
       <path id="DejaVuSans-46" d="M 628 4666 
L 3309 4666 
L 3309 4134 
L 1259 4134 
L 1259 2759 
L 3109 2759 
L 3109 2228 
L 1259 2228 
L 1259 0 
L 628 0 
L 628 4666 
z
" transform="scale(0.015625)"/>
       <path id="DejaVuSans-4e" d="M 628 4666 
L 1478 4666 
L 3547 763 
L 3547 4666 
L 4159 4666 
L 4159 0 
L 3309 0 
L 1241 3903 
L 1241 0 
L 628 0 
L 628 4666 
z
" transform="scale(0.015625)"/>
      </defs>
      <use xlink:href="#DejaVuSans-44"/>
      <use xlink:href="#DejaVuSans-46" x="77.001953"/>
      <use xlink:href="#DejaVuSans-46" x="134.521484"/>
      <use xlink:href="#DejaVuSans-20" x="192.041016"/>
      <use xlink:href="#DejaVuSans-49" x="223.828125"/>
      <use xlink:href="#DejaVuSans-4e" x="253.320312"/>
     </g>
    </g>
   </g>
   <g id="line2d_36">
    <path d="M 141.12 219.095621 
L 221.953536 219.049043 
L 224.437248 200.123652 
L 225.404928 194.366435 
L 228.243456 181.70803 
L 229.598208 180.437706 
L 231.178752 179.564783 
L 236.533248 179.10964 
L 243.5328 179.000949 
L 244.952064 178.96019 
L 248.145408 178.851499 
L 249.790464 178.786964 
L 251.887104 178.678273 
L 254.241792 178.331821 
L 254.757888 177.79516 
L 255.499776 177.455502 
L 256.338432 177.469088 
L 259.789824 178.08387 
L 262.467072 178.257096 
L 263.886336 178.304649 
L 264.144384 183.542187 
L 264.434688 187.105888 
L 265.176576 191.853299 
L 267.144192 209.181673 
L 268.402176 215.687837 
L 269.047296 216.970593 
L 270.46656 218.732743 
L 273.724416 219.147059 
L 282.465792 219.10096 
L 296.658432 219.094649 
L 305.657856 219.126329 
L 306.464256 219.951507 
L 307.754496 220.984103 
L 308.52864 221.35783 
L 309.593088 221.668516 
L 311.173632 221.868439 
L 313.947648 222.13215 
L 314.883072 222.624689 
L 315.850752 223.106665 
L 320.818176 225.705735 
L 321.463296 225.653427 
L 322.011648 225.364717 
L 322.56 224.817187 
L 323.237376 224.156551 
L 323.430912 224.248259 
L 323.817984 224.85421 
L 324.559872 226.066113 
L 324.721152 226.243075 
L 324.882432 226.449927 
L 325.043712 226.806229 
L 327.011328 230.912025 
L 327.462912 231.612741 
L 328.720896 233.947216 
L 329.17248 234.845274 
L 329.720832 235.941693 
L 329.785344 235.990264 
L 330.30144 236.735815 
L 331.462656 238.673229 
L 331.494912 238.647415 
L 332.043264 238.196348 
L 332.430336 237.668518 
L 332.752896 237.062906 
L 333.139968 236.287805 
L 333.462528 235.987547 
L 334.462464 234.696164 
L 334.81728 234.18226 
L 334.914048 234.118744 
L 334.946304 234.155087 
L 335.075328 234.088854 
L 336.688128 232.624585 
L 336.91392 232.212579 
L 337.23648 231.777815 
L 337.526784 231.57402 
L 337.55904 231.611043 
L 337.688064 231.500993 
L 337.913856 231.378037 
L 338.333184 231.168467 
L 339.300864 230.32917 
L 340.204032 229.199125 
L 340.236288 229.232412 
L 340.429824 229.166858 
L 340.94592 228.86626 
L 341.59104 228.359829 
L 342.590976 227.370742 
L 342.913536 226.812683 
L 343.171584 226.725051 
L 343.332864 226.680555 
L 344.429568 225.99852 
L 345.78432 224.805299 
L 346.042368 224.494172 
L 346.332672 224.297509 
L 346.91328 224.07741 
L 348.20352 223.110062 
L 348.945408 222.536616 
L 350.816256 220.982575 
L 352.009728 219.616263 
L 354.816 215.647758 
L 357.783552 211.860562 
L 358.396416 211.137768 
L 358.944768 210.574953 
L 359.944704 209.419094 
L 360.170496 208.861714 
L 362.71872 201.766581 
L 363.20256 200.980611 
L 366.42816 196.422729 
L 368.911872 193.715309 
L 370.202112 192.331199 
L 370.653696 190.820397 
L 371.976192 186.094384 
L 372.847104 183.895433 
L 373.621248 182.4349 
L 374.33088 181.511028 
L 375.072768 180.882659 
L 375.7824 180.556587 
L 376.330752 180.267877 
L 377.137152 179.445902 
L 378.814464 177.503054 
L 379.943424 176.154608 
L 380.878848 174.795973 
L 381.814272 173.219956 
L 383.233536 170.90688 
L 384.846336 168.563234 
L 387.523584 165.081731 
L 388.36224 164.049168 
L 389.071872 163.193228 
L 390.104064 161.827799 
L 391.620096 159.789847 
L 393.555456 157.323924 
L 395.523072 154.874983 
L 396.006912 154.382478 
L 397.426176 154.71874 
L 401.200128 155.224832 
L 404.232192 155.975478 
L 415.425024 159.416222 
L 415.77984 158.719921 
L 416.199168 158.438004 
L 416.521728 158.512729 
L 416.973312 158.808233 
L 418.747392 160.516716 
L 420.037632 161.467761 
L 425.069568 163.994823 
L 428.456448 165.302509 
L 429.262848 165.584426 
L 430.843392 166.134673 
L 431.778816 166.443763 
L 432.359424 166.630575 
L 441.552384 169.422571 
L 442.262016 169.605986 
L 444.294144 170.132457 
L 450.035712 171.45373 
L 450.551808 171.559024 
L 451.680768 171.783199 
L 452.583936 171.956425 
L 453.712896 172.1806 
L 454.583808 172.34024 
L 455.164416 172.448931 
L 455.712768 172.561018 
L 456.26112 173.461114 
L 456.74496 173.810962 
L 457.938432 173.950223 
L 460.809216 173.454321 
L 467.744256 174.293278 
L 468.937728 174.432538 
L 469.840896 174.541229 
L 470.227968 174.595574 
L 471.356928 174.704265 
L 472.647168 174.863905 
L 473.614848 174.972596 
L 481.775616 175.723242 
L 483.162624 175.831932 
L 483.710976 175.893071 
L 486.678528 176.100263 
L 487.323648 176.134229 
L 488.162304 176.20216 
L 488.807424 176.239523 
L 491.452416 176.412749 
L 492.162048 176.446715 
L 492.968448 176.507853 
L 494.936064 176.616544 
L 496.032768 176.647114 
L 496.484352 176.120642 
L 497.097216 175.80476 
L 498.258432 175.91345 
L 498.774528 176.069694 
L 499.742208 176.358404 
L 502.742016 176.881478 
L 503.935488 176.990169 
L 504.677376 177.037721 
L 505.322496 177.075084 
L 507.354624 177.180378 
L 509.709312 177.289069 
L 511.128576 177.333224 
L 511.90272 177.357 
L 513.35424 177.404553 
L 514.16064 177.428329 
L 517.87008 177.53702 
L 519.192576 177.567589 
L 524.256768 177.67628 
L 525.547008 177.703452 
L 526.288896 177.734022 
L 532.86912 177.842713 
L 534.191616 177.873282 
L 536.385024 177.948007 
L 536.997888 178.613738 
L 537.643008 178.895655 
L 538.51392 178.97038 
L 539.384832 178.773378 
L 541.029888 178.369184 
L 543.868416 178.168785 
L 544.223232 178.172182 
L 554.222592 178.063491 
L 555.28704 178.060094 
L 576.705024 177.97518 
L 577.188864 177.441915 
L 577.898496 177.115843 
L 578.9952 177.105653 
L 582.962688 177.829126 
L 584.64 177.897058 
L 616.960512 178.005749 
L 617.121792 178.185768 
L 617.637888 178.705446 
L 618.02496 178.888862 
L 618.637824 179.028122 
L 620.992512 178.922828 
L 623.314944 178.545806 
L 628.66944 178.090663 
L 657.312768 178.019335 
L 657.86112 177.404553 
L 658.409472 177.129429 
L 660.344832 177.23812 
L 663.602688 177.812143 
L 665.699328 177.924231 
L 697.632768 178.019335 
L 698.568192 178.854896 
L 699.503616 179.034915 
L 700.793856 179.065484 
L 703.567872 178.593359 
L 709.438464 178.08387 
L 737.952768 178.019335 
L 738.50112 177.404553 
L 739.049472 177.129429 
L 740.984832 177.23812 
L 744.242688 177.812143 
L 746.339328 177.924231 
L 778.272768 178.019335 
L 779.208192 178.854896 
L 780.143616 179.034915 
L 781.433856 179.065484 
L 784.207872 178.593359 
L 790.078464 178.08387 
L 818.592768 178.019335 
L 819.14112 177.404553 
L 819.689472 177.129429 
L 821.624832 177.23812 
L 824.882688 177.812143 
L 826.979328 177.924231 
L 858.912768 178.019335 
L 859.848192 178.854896 
L 860.783616 179.034915 
L 862.073856 179.065484 
L 864.847872 178.593359 
L 870.718464 178.08387 
L 899.232768 178.019335 
L 899.78112 177.404553 
L 900.329472 177.129429 
L 902.264832 177.23812 
L 905.522688 177.812143 
L 907.619328 177.924231 
L 939.552768 178.019335 
L 940.617216 178.885465 
L 941.55264 179.072277 
L 943.455744 178.963587 
L 944.810496 178.712239 
L 947.03616 178.355597 
L 947.52 178.280872 
L 947.52 178.280872 
" clip-path="url(#p54f7d28aaf)" style="fill: none; stroke: #008000; stroke-width: 2; stroke-linecap: square"/>
   </g>
   <g id="patch_10">
    <path d="M 100.8 242.888276 
L 100.8 150.157241 
" style="fill: none; stroke: #bcbcbc; stroke-width: 0.8; stroke-linejoin: miter; stroke-linecap: square"/>
   </g>
   <g id="patch_11">
    <path d="M 987.84 242.888276 
L 987.84 150.157241 
" style="fill: none; stroke: #bcbcbc; stroke-width: 0.8; stroke-linejoin: miter; stroke-linecap: square"/>
   </g>
   <g id="patch_12">
    <path d="M 100.8 242.888276 
L 987.84 242.888276 
" style="fill: none; stroke: #bcbcbc; stroke-width: 0.8; stroke-linejoin: miter; stroke-linecap: square"/>
   </g>
   <g id="patch_13">
    <path d="M 100.8 150.157241 
L 987.84 150.157241 
" style="fill: none; stroke: #bcbcbc; stroke-width: 0.8; stroke-linejoin: miter; stroke-linecap: square"/>
   </g>
  </g>
  <g id="axes_3">
   <g id="patch_14">
    <path d="M 100.8 354.165517 
L 987.84 354.165517 
L 987.84 261.434483 
L 100.8 261.434483 
z
" style="fill: #eeeeee"/>
   </g>
   <g id="matplotlib.axis_5">
    <g id="xtick_13">
     <g id="line2d_37">
      <path d="M 141.12 354.165517 
L 141.12 261.434483 
" clip-path="url(#pd64335b499)" style="fill: none; stroke-dasharray: 1.85,0.8; stroke-dashoffset: 0; stroke: #b2b2b2; stroke-width: 0.5"/>
     </g>
     <g id="line2d_38">
      <g>
       <use xlink:href="#m1009817426" x="141.12" y="354.165517" style="stroke: #000000; stroke-width: 0.8"/>
      </g>
     </g>
    </g>
    <g id="xtick_14">
     <g id="line2d_39">
      <path d="M 302.4 354.165517 
L 302.4 261.434483 
" clip-path="url(#pd64335b499)" style="fill: none; stroke-dasharray: 1.85,0.8; stroke-dashoffset: 0; stroke: #b2b2b2; stroke-width: 0.5"/>
     </g>
     <g id="line2d_40">
      <g>
       <use xlink:href="#m1009817426" x="302.4" y="354.165517" style="stroke: #000000; stroke-width: 0.8"/>
      </g>
     </g>
    </g>
    <g id="xtick_15">
     <g id="line2d_41">
      <path d="M 463.68 354.165517 
L 463.68 261.434483 
" clip-path="url(#pd64335b499)" style="fill: none; stroke-dasharray: 1.85,0.8; stroke-dashoffset: 0; stroke: #b2b2b2; stroke-width: 0.5"/>
     </g>
     <g id="line2d_42">
      <g>
       <use xlink:href="#m1009817426" x="463.68" y="354.165517" style="stroke: #000000; stroke-width: 0.8"/>
      </g>
     </g>
    </g>
    <g id="xtick_16">
     <g id="line2d_43">
      <path d="M 624.96 354.165517 
L 624.96 261.434483 
" clip-path="url(#pd64335b499)" style="fill: none; stroke-dasharray: 1.85,0.8; stroke-dashoffset: 0; stroke: #b2b2b2; stroke-width: 0.5"/>
     </g>
     <g id="line2d_44">
      <g>
       <use xlink:href="#m1009817426" x="624.96" y="354.165517" style="stroke: #000000; stroke-width: 0.8"/>
      </g>
     </g>
    </g>
    <g id="xtick_17">
     <g id="line2d_45">
      <path d="M 786.24 354.165517 
L 786.24 261.434483 
" clip-path="url(#pd64335b499)" style="fill: none; stroke-dasharray: 1.85,0.8; stroke-dashoffset: 0; stroke: #b2b2b2; stroke-width: 0.5"/>
     </g>
     <g id="line2d_46">
      <g>
       <use xlink:href="#m1009817426" x="786.24" y="354.165517" style="stroke: #000000; stroke-width: 0.8"/>
      </g>
     </g>
    </g>
    <g id="xtick_18">
     <g id="line2d_47">
      <path d="M 947.52 354.165517 
L 947.52 261.434483 
" clip-path="url(#pd64335b499)" style="fill: none; stroke-dasharray: 1.85,0.8; stroke-dashoffset: 0; stroke: #b2b2b2; stroke-width: 0.5"/>
     </g>
     <g id="line2d_48">
      <g>
       <use xlink:href="#m1009817426" x="947.52" y="354.165517" style="stroke: #000000; stroke-width: 0.8"/>
      </g>
     </g>
    </g>
   </g>
   <g id="matplotlib.axis_6">
    <g id="ytick_6">
     <g id="line2d_49">
      <path d="M 100.8 343.979902 
L 987.84 343.979902 
" clip-path="url(#pd64335b499)" style="fill: none; stroke-dasharray: 1.85,0.8; stroke-dashoffset: 0; stroke: #b2b2b2; stroke-width: 0.5"/>
     </g>
     <g id="line2d_50">
      <g>
       <use xlink:href="#mc28a266c81" x="100.8" y="343.979902" style="stroke: #000000; stroke-width: 0.8"/>
      </g>
     </g>
     <g id="text_8">
      <!-- 0 V -->
      <g transform="translate(74.36625 349.298808) scale(0.14 -0.14)">
       <use xlink:href="#DejaVuSans-30"/>
       <use xlink:href="#DejaVuSans-20" x="63.623047"/>
       <use xlink:href="#DejaVuSans-56" x="95.410156"/>
      </g>
     </g>
    </g>
    <g id="ytick_7">
     <g id="line2d_51">
      <path d="M 100.8 299.529572 
L 987.84 299.529572 
" clip-path="url(#pd64335b499)" style="fill: none; stroke-dasharray: 1.85,0.8; stroke-dashoffset: 0; stroke: #b2b2b2; stroke-width: 0.5"/>
     </g>
     <g id="line2d_52">
      <g>
       <use xlink:href="#mc28a266c81" x="100.8" y="299.529572" style="stroke: #000000; stroke-width: 0.8"/>
      </g>
     </g>
     <g id="text_9">
      <!-- 1 V -->
      <g transform="translate(74.36625 304.848478) scale(0.14 -0.14)">
       <use xlink:href="#DejaVuSans-31"/>
       <use xlink:href="#DejaVuSans-20" x="63.623047"/>
       <use xlink:href="#DejaVuSans-56" x="95.410156"/>
      </g>
     </g>
    </g>
    <g id="text_10">
     <g id="patch_15">
      <path d="M 34.8768 342.395313 
L 34.8768 273.204688 
L 11.247425 273.204688 
L 11.247425 342.395313 
z
" style="fill: #ffff00; opacity: 0.2; stroke: #eeeeee; stroke-width: 0.5; stroke-linejoin: miter"/>
     </g>
     <!-- CLK BUF -->
     <g transform="translate(26.925238 337.355313) rotate(-90) scale(0.14 -0.14)">
      <defs>
       <path id="DejaVuSans-43" d="M 4122 4306 
L 4122 3641 
Q 3803 3938 3442 4084 
Q 3081 4231 2675 4231 
Q 1875 4231 1450 3742 
Q 1025 3253 1025 2328 
Q 1025 1406 1450 917 
Q 1875 428 2675 428 
Q 3081 428 3442 575 
Q 3803 722 4122 1019 
L 4122 359 
Q 3791 134 3420 21 
Q 3050 -91 2638 -91 
Q 1578 -91 968 557 
Q 359 1206 359 2328 
Q 359 3453 968 4101 
Q 1578 4750 2638 4750 
Q 3056 4750 3426 4639 
Q 3797 4528 4122 4306 
z
" transform="scale(0.015625)"/>
       <path id="DejaVuSans-4b" d="M 628 4666 
L 1259 4666 
L 1259 2694 
L 3353 4666 
L 4166 4666 
L 1850 2491 
L 4331 0 
L 3500 0 
L 1259 2247 
L 1259 0 
L 628 0 
L 628 4666 
z
" transform="scale(0.015625)"/>
      </defs>
      <use xlink:href="#DejaVuSans-43"/>
      <use xlink:href="#DejaVuSans-4c" x="69.824219"/>
      <use xlink:href="#DejaVuSans-4b" x="125.537109"/>
      <use xlink:href="#DejaVuSans-20" x="191.113281"/>
      <use xlink:href="#DejaVuSans-42" x="222.900391"/>
      <use xlink:href="#DejaVuSans-55" x="291.503906"/>
      <use xlink:href="#DejaVuSans-46" x="364.697266"/>
     </g>
    </g>
   </g>
   <g id="line2d_53">
    <path d="M 141.12 343.978727 
L 173.376 343.978727 
L 173.601792 290.639505 
L 213.696 290.639505 
L 213.760512 333.186917 
L 213.825024 343.959595 
L 213.889536 343.895628 
L 213.954048 344.073203 
L 214.01856 343.984719 
L 215.3088 343.975836 
L 223.179264 343.978711 
L 254.016 343.978696 
L 254.17728 290.475039 
L 254.241792 290.759521 
L 254.403072 290.630615 
L 254.8224 290.639505 
L 294.336 290.639505 
L 294.400512 333.149579 
L 294.465024 344.311595 
L 294.529536 343.538772 
L 294.626304 344.049756 
L 294.65856 344.018125 
L 294.852096 343.939997 
L 295.206912 343.996077 
L 295.497216 343.97838 
L 305.657856 344.030068 
L 306.75456 344.975456 
L 307.625472 345.306655 
L 308.786688 345.491658 
L 310.754304 345.544954 
L 316.141056 345.391333 
L 316.624896 345.373642 
L 317.88288 345.332303 
L 318.269952 345.323324 
L 321.334272 345.226556 
L 324.1728 345.343238 
L 325.204992 345.739157 
L 325.753344 346.0664 
L 328.04352 347.496901 
L 329.366016 348.342391 
L 329.753088 348.589401 
L 330.011136 348.756534 
L 331.527168 349.566864 
L 332.043264 349.214817 
L 332.07552 349.307274 
L 332.140032 349.206816 
L 332.430336 349.101024 
L 334.656 348.241533 
L 334.688256 349.95047 
L 334.849536 325.036949 
L 335.010816 324.703127 
L 335.172096 324.616004 
L 335.881728 324.369305 
L 339.558912 323.005569 
L 339.687936 322.925558 
L 340.010496 322.85266 
L 340.171776 322.752202 
L 340.333056 322.721976 
L 340.46208 322.640632 
L 340.62336 322.623741 
L 342.268416 322.01566 
L 342.39744 321.903201 
L 342.55872 321.963209 
L 342.590976 321.815189 
L 342.687744 321.874753 
L 345.494016 320.894178 
L 345.62304 320.772829 
L 345.687552 320.724378 
L 345.752064 320.847061 
L 345.881088 320.679483 
L 345.9456 320.756827 
L 346.010112 320.705709 
L 346.493952 320.548355 
L 351.493632 318.579205 
L 353.396736 317.40216 
L 364.4928 310.347004 
L 368.976384 308.001804 
L 370.234368 307.245704 
L 371.653632 304.476893 
L 374.1696 298.809476 
L 374.976 296.955897 
L 375.008256 296.160237 
L 375.13728 341.900782 
L 375.363072 342.029244 
L 376.91136 342.083784 
L 390.13632 342.520153 
L 392.297472 342.497394 
L 395.45856 342.59523 
L 396.006912 342.714401 
L 396.652032 343.376311 
L 397.39392 343.817054 
L 398.329344 344.113208 
L 399.684096 344.297068 
L 402.103296 344.379141 
L 413.263872 344.324988 
L 415.296 344.32389 
L 415.328256 334.560877 
L 415.425024 265.64953 
L 415.45728 266.085143 
L 415.650816 266.205159 
L 416.392704 266.627437 
L 417.134592 267.098611 
L 417.908736 267.538669 
L 420.1344 268.889959 
L 420.553728 269.147771 
L 421.360128 269.601164 
L 427.488768 272.854928 
L 429.230592 273.69504 
L 430.585344 274.317344 
L 442.842624 279.264666 
L 443.132928 279.366902 
L 444.681216 279.886971 
L 445.068288 279.989206 
L 446.616576 280.509275 
L 447.003648 280.607066 
L 447.519744 280.775977 
L 447.87456 280.873768 
L 448.326144 280.998229 
L 455.616 282.954043 
L 455.648256 292.679776 
L 455.77728 344.199833 
L 456.035328 344.184053 
L 488.291328 344.054307 
L 492.613632 344.044666 
L 495.936 344.039114 
L 496.09728 288.497 
L 496.161792 288.510335 
L 496.677888 288.55034 
L 498.484224 288.652576 
L 498.83904 288.683691 
L 500.709888 288.785927 
L 501.064704 288.817042 
L 503.03232 288.919278 
L 503.387136 288.950393 
L 505.645056 289.052629 
L 505.999872 289.083744 
L 508.35456 289.18598 
L 508.709376 289.217095 
L 511.451136 289.319331 
L 511.805952 289.350446 
L 514.838016 289.452682 
L 515.192832 289.483797 
L 518.611968 289.586033 
L 518.966784 289.617148 
L 522.86976 289.719384 
L 523.224576 289.750499 
L 527.804928 289.852735 
L 528.159744 289.88385 
L 533.707776 289.986086 
L 534.062592 290.017201 
L 536.256 290.061651 
L 536.288256 294.346663 
L 536.352768 344.108105 
L 536.41728 343.836416 
L 536.514048 344.138336 
L 536.57856 344.002426 
L 537.352704 343.994604 
L 576.576 343.991465 
L 576.73728 290.106102 
L 576.801792 290.212782 
L 577.737216 290.195002 
L 616.896 290.195002 
L 617.025024 344.319302 
L 617.186304 344.060855 
L 617.444352 343.961764 
L 617.799168 344.010121 
L 618.121728 343.991223 
L 654.861312 343.991454 
L 657.216 343.991456 
L 657.37728 289.96386 
L 657.441792 290.466149 
L 657.53856 290.012756 
L 657.603072 290.177222 
L 658.054656 290.195002 
L 697.536 290.195002 
L 697.665024 344.319409 
L 697.826304 344.060837 
L 698.084352 343.961762 
L 698.439168 344.010141 
L 698.761728 343.991223 
L 735.501312 343.991454 
L 737.856 343.991456 
L 738.01728 289.96386 
L 738.081792 290.466149 
L 738.17856 290.008311 
L 738.243072 290.177222 
L 738.694656 290.195002 
L 778.176 290.195002 
L 778.305024 344.319342 
L 778.466304 344.06085 
L 778.724352 343.961765 
L 779.079168 344.010121 
L 779.401728 343.991223 
L 816.302592 343.991454 
L 818.496 343.991456 
L 818.65728 289.96386 
L 818.721792 290.466149 
L 818.81856 290.008311 
L 818.883072 290.177222 
L 819.334656 290.195002 
L 858.816 290.195002 
L 858.945024 344.319422 
L 859.106304 344.060841 
L 859.364352 343.96176 
L 859.719168 344.010142 
L 860.041728 343.991224 
L 896.587776 343.991454 
L 899.136 343.991456 
L 899.29728 289.96386 
L 899.361792 290.466149 
L 899.45856 290.008311 
L 899.523072 290.177222 
L 899.974656 290.195002 
L 939.456 290.195002 
L 939.488256 298.209397 
L 939.61728 343.938591 
L 939.649536 344.067847 
L 939.714048 343.944178 
L 939.746304 343.905176 
L 939.810816 343.962545 
L 940.004352 344.018058 
L 940.197888 343.99072 
L 945.455616 343.991462 
L 947.52 343.991446 
L 947.52 343.991446 
" clip-path="url(#pd64335b499)" style="fill: none; stroke: #0000ff; stroke-width: 2; stroke-linecap: square"/>
   </g>
   <g id="patch_16">
    <path d="M 100.8 354.165517 
L 100.8 261.434483 
" style="fill: none; stroke: #bcbcbc; stroke-width: 0.8; stroke-linejoin: miter; stroke-linecap: square"/>
   </g>
   <g id="patch_17">
    <path d="M 987.84 354.165517 
L 987.84 261.434483 
" style="fill: none; stroke: #bcbcbc; stroke-width: 0.8; stroke-linejoin: miter; stroke-linecap: square"/>
   </g>
   <g id="patch_18">
    <path d="M 100.8 354.165517 
L 987.84 354.165517 
" style="fill: none; stroke: #bcbcbc; stroke-width: 0.8; stroke-linejoin: miter; stroke-linecap: square"/>
   </g>
   <g id="patch_19">
    <path d="M 100.8 261.434483 
L 987.84 261.434483 
" style="fill: none; stroke: #bcbcbc; stroke-width: 0.8; stroke-linejoin: miter; stroke-linecap: square"/>
   </g>
  </g>
  <g id="axes_4">
   <g id="patch_20">
    <path d="M 100.8 465.442759 
L 987.84 465.442759 
L 987.84 372.711724 
L 100.8 372.711724 
z
" style="fill: #eeeeee"/>
   </g>
   <g id="matplotlib.axis_7">
    <g id="xtick_19">
     <g id="line2d_54">
      <path d="M 141.12 465.442759 
L 141.12 372.711724 
" clip-path="url(#p33ff48bfb4)" style="fill: none; stroke-dasharray: 1.85,0.8; stroke-dashoffset: 0; stroke: #b2b2b2; stroke-width: 0.5"/>
     </g>
     <g id="line2d_55">
      <g>
       <use xlink:href="#m1009817426" x="141.12" y="465.442759" style="stroke: #000000; stroke-width: 0.8"/>
      </g>
     </g>
    </g>
    <g id="xtick_20">
     <g id="line2d_56">
      <path d="M 302.4 465.442759 
L 302.4 372.711724 
" clip-path="url(#p33ff48bfb4)" style="fill: none; stroke-dasharray: 1.85,0.8; stroke-dashoffset: 0; stroke: #b2b2b2; stroke-width: 0.5"/>
     </g>
     <g id="line2d_57">
      <g>
       <use xlink:href="#m1009817426" x="302.4" y="465.442759" style="stroke: #000000; stroke-width: 0.8"/>
      </g>
     </g>
    </g>
    <g id="xtick_21">
     <g id="line2d_58">
      <path d="M 463.68 465.442759 
L 463.68 372.711724 
" clip-path="url(#p33ff48bfb4)" style="fill: none; stroke-dasharray: 1.85,0.8; stroke-dashoffset: 0; stroke: #b2b2b2; stroke-width: 0.5"/>
     </g>
     <g id="line2d_59">
      <g>
       <use xlink:href="#m1009817426" x="463.68" y="465.442759" style="stroke: #000000; stroke-width: 0.8"/>
      </g>
     </g>
    </g>
    <g id="xtick_22">
     <g id="line2d_60">
      <path d="M 624.96 465.442759 
L 624.96 372.711724 
" clip-path="url(#p33ff48bfb4)" style="fill: none; stroke-dasharray: 1.85,0.8; stroke-dashoffset: 0; stroke: #b2b2b2; stroke-width: 0.5"/>
     </g>
     <g id="line2d_61">
      <g>
       <use xlink:href="#m1009817426" x="624.96" y="465.442759" style="stroke: #000000; stroke-width: 0.8"/>
      </g>
     </g>
    </g>
    <g id="xtick_23">
     <g id="line2d_62">
      <path d="M 786.24 465.442759 
L 786.24 372.711724 
" clip-path="url(#p33ff48bfb4)" style="fill: none; stroke-dasharray: 1.85,0.8; stroke-dashoffset: 0; stroke: #b2b2b2; stroke-width: 0.5"/>
     </g>
     <g id="line2d_63">
      <g>
       <use xlink:href="#m1009817426" x="786.24" y="465.442759" style="stroke: #000000; stroke-width: 0.8"/>
      </g>
     </g>
    </g>
    <g id="xtick_24">
     <g id="line2d_64">
      <path d="M 947.52 465.442759 
L 947.52 372.711724 
" clip-path="url(#p33ff48bfb4)" style="fill: none; stroke-dasharray: 1.85,0.8; stroke-dashoffset: 0; stroke: #b2b2b2; stroke-width: 0.5"/>
     </g>
     <g id="line2d_65">
      <g>
       <use xlink:href="#m1009817426" x="947.52" y="465.442759" style="stroke: #000000; stroke-width: 0.8"/>
      </g>
     </g>
    </g>
   </g>
   <g id="matplotlib.axis_8">
    <g id="ytick_8">
     <g id="line2d_66">
      <path d="M 100.8 440.380857 
L 987.84 440.380857 
" clip-path="url(#p33ff48bfb4)" style="fill: none; stroke-dasharray: 1.85,0.8; stroke-dashoffset: 0; stroke: #b2b2b2; stroke-width: 0.5"/>
     </g>
     <g id="line2d_67">
      <g>
       <use xlink:href="#mc28a266c81" x="100.8" y="440.380857" style="stroke: #000000; stroke-width: 0.8"/>
      </g>
     </g>
     <g id="text_11">
      <!-- 0 V -->
      <g transform="translate(74.36625 445.699763) scale(0.14 -0.14)">
       <use xlink:href="#DejaVuSans-30"/>
       <use xlink:href="#DejaVuSans-20" x="63.623047"/>
       <use xlink:href="#DejaVuSans-56" x="95.410156"/>
      </g>
     </g>
    </g>
    <g id="ytick_9">
     <g id="line2d_68">
      <path d="M 100.8 403.898315 
L 987.84 403.898315 
" clip-path="url(#p33ff48bfb4)" style="fill: none; stroke-dasharray: 1.85,0.8; stroke-dashoffset: 0; stroke: #b2b2b2; stroke-width: 0.5"/>
     </g>
     <g id="line2d_69">
      <g>
       <use xlink:href="#mc28a266c81" x="100.8" y="403.898315" style="stroke: #000000; stroke-width: 0.8"/>
      </g>
     </g>
     <g id="text_12">
      <!-- 1 V -->
      <g transform="translate(74.36625 409.217221) scale(0.14 -0.14)">
       <use xlink:href="#DejaVuSans-31"/>
       <use xlink:href="#DejaVuSans-20" x="63.623047"/>
       <use xlink:href="#DejaVuSans-56" x="95.410156"/>
      </g>
     </g>
    </g>
    <g id="text_13">
     <g id="patch_21">
      <path d="M 34.8768 454.693023 
L 34.8768 383.46146 
L 11.247425 383.46146 
L 11.247425 454.693023 
z
" style="fill: #ffff00; opacity: 0.2; stroke: #eeeeee; stroke-width: 0.5; stroke-linejoin: miter"/>
     </g>
     <!-- DFF OUT -->
     <g transform="translate(26.925238 449.653023) rotate(-90) scale(0.14 -0.14)">
      <defs>
       <path id="DejaVuSans-4f" d="M 2522 4238 
Q 1834 4238 1429 3725 
Q 1025 3213 1025 2328 
Q 1025 1447 1429 934 
Q 1834 422 2522 422 
Q 3209 422 3611 934 
Q 4013 1447 4013 2328 
Q 4013 3213 3611 3725 
Q 3209 4238 2522 4238 
z
M 2522 4750 
Q 3503 4750 4090 4092 
Q 4678 3434 4678 2328 
Q 4678 1225 4090 567 
Q 3503 -91 2522 -91 
Q 1538 -91 948 565 
Q 359 1222 359 2328 
Q 359 3434 948 4092 
Q 1538 4750 2522 4750 
z
" transform="scale(0.015625)"/>
       <path id="DejaVuSans-54" d="M -19 4666 
L 3928 4666 
L 3928 4134 
L 2272 4134 
L 2272 0 
L 1638 0 
L 1638 4134 
L -19 4134 
L -19 4666 
z
" transform="scale(0.015625)"/>
      </defs>
      <use xlink:href="#DejaVuSans-44"/>
      <use xlink:href="#DejaVuSans-46" x="77.001953"/>
      <use xlink:href="#DejaVuSans-46" x="134.521484"/>
      <use xlink:href="#DejaVuSans-20" x="192.041016"/>
      <use xlink:href="#DejaVuSans-4f" x="223.828125"/>
      <use xlink:href="#DejaVuSans-55" x="302.539062"/>
      <use xlink:href="#DejaVuSans-54" x="375.732422"/>
     </g>
    </g>
   </g>
   <g id="line2d_70">
    <path d="M 141.12 412.853684 
L 173.408256 412.898193 
L 173.440512 414.40857 
L 173.601792 440.383084 
L 174.1824 440.379494 
L 185.278464 440.379883 
L 254.048256 440.381413 
L 254.080512 440.527254 
L 254.112768 440.286014 
L 254.306304 436.724212 
L 254.596608 436.010249 
L 254.693376 435.500952 
L 255.14496 429.109211 
L 255.370752 414.08643 
L 255.596544 396.955687 
L 255.757824 396.65653 
L 255.983616 396.598158 
L 256.983552 396.601806 
L 295.755264 396.660178 
L 295.981056 398.367561 
L 296.077824 399.06073 
L 296.142336 398.958579 
L 296.497152 398.542678 
L 296.851968 398.170556 
L 297.819648 396.922853 
L 298.400256 396.714902 
L 299.271168 396.627344 
L 305.754624 396.729495 
L 308.36736 400.155206 
L 313.52832 407.928906 
L 314.17344 409.364494 
L 314.81856 411.352428 
L 315.076608 412.276895 
L 315.399168 413.512194 
L 316.399104 417.80546 
L 316.463616 417.990791 
L 318.302208 425.960767 
L 318.495744 426.876479 
L 318.528 426.620372 
L 318.592512 426.705741 
L 318.753792 428.289448 
L 319.592448 432.330984 
L 320.9472 437.238579 
L 320.979456 437.012862 
L 321.043968 436.959597 
L 321.076224 436.995168 
L 321.140736 437.162696 
L 321.26976 438.340826 
L 321.721344 439.932888 
L 321.7536 439.428517 
L 321.818112 439.69473 
L 321.882624 439.977616 
L 322.043904 441.173258 
L 322.430976 442.510015 
L 322.463232 442.096923 
L 322.527744 442.224794 
L 322.624512 442.739527 
L 322.785792 443.695004 
L 323.237376 444.944094 
L 323.301888 444.66938 
L 323.3664 444.795974 
L 323.495424 445.563567 
L 323.52768 445.185608 
L 323.592192 445.328984 
L 324.108288 446.922907 
L 324.49536 447.648909 
L 324.527616 447.463578 
L 324.624384 447.555514 
L 324.753408 448.122818 
L 324.785664 447.784989 
L 324.850176 447.923988 
L 325.011456 448.248317 
L 325.14048 448.803947 
L 325.172736 448.624452 
L 325.204992 448.745939 
L 325.430784 449.535786 
L 325.850112 450.431798 
L 325.914624 450.3322 
L 325.94688 450.391667 
L 326.237184 451.193918 
L 326.495232 451.852428 
L 328.430592 455.606117 
L 328.495104 455.679447 
L 328.656384 455.984076 
L 328.817664 456.373709 
L 328.978944 456.8115 
L 331.4304 461.227712 
L 331.494912 461.114251 
L 331.75296 460.910678 
L 331.785216 460.994588 
L 331.946496 460.66661 
L 332.011008 460.589632 
L 332.2368 460.17519 
L 332.269056 460.177014 
L 332.333568 459.762938 
L 332.39808 459.910327 
L 332.430336 459.88406 
L 332.623872 459.395923 
L 333.236736 458.359819 
L 333.268992 458.467442 
L 333.301248 458.278098 
L 333.52704 457.989521 
L 333.591552 458.003384 
L 333.623808 457.943553 
L 333.656064 457.903422 
L 333.785088 457.653152 
L 334.849536 456.208079 
L 334.881792 456.174879 
L 334.914048 456.335767 
L 334.946304 456.271558 
L 335.043072 456.050839 
L 335.075328 456.072364 
L 335.30112 455.812243 
L 335.494656 455.602833 
L 335.94624 455.156287 
L 336.10752 454.895437 
L 336.139776 455.014735 
L 336.365568 454.769207 
L 336.494592 454.425177 
L 336.526848 454.433933 
L 336.623616 454.292745 
L 336.655872 454.351482 
L 336.688128 454.452539 
L 336.720384 454.201174 
L 337.365504 453.54157 
L 337.494528 453.429933 
L 337.526784 453.61417 
L 337.55904 453.413516 
L 337.591296 453.436865 
L 337.623552 453.461308 
L 337.784832 453.202282 
L 337.817088 453.283638 
L 337.849344 453.176014 
L 337.8816 453.234387 
L 338.04288 453.062189 
L 338.429952 452.756465 
L 338.655744 452.514221 
L 338.881536 452.292042 
L 339.042816 451.835646 
L 339.107328 451.822877 
L 339.139584 452.038854 
L 339.17184 451.950566 
L 339.300864 451.598874 
L 339.526656 451.38837 
L 339.558912 451.63937 
L 339.623424 451.287678 
L 339.97824 450.972469 
L 340.010496 451.054919 
L 340.042752 450.97101 
L 340.204032 450.811946 
L 340.236288 451.014789 
L 340.268544 450.733508 
L 340.3008 450.842956 
L 340.333056 450.852077 
L 340.46208 450.63683 
L 340.494336 450.675866 
L 340.558848 450.598523 
L 340.881408 450.443837 
L 341.397504 449.913381 
L 341.558784 449.516086 
L 341.75232 449.26618 
L 341.784576 449.551474 
L 341.849088 449.177893 
L 341.978112 449.023207 
L 342.010368 449.055311 
L 342.042624 449.144694 
L 342.07488 449.123169 
L 342.203904 448.788989 
L 342.23616 449.141045 
L 342.300672 448.68246 
L 342.332928 448.928717 
L 342.39744 448.634668 
L 342.429696 448.63941 
L 342.461952 448.946229 
L 342.494208 448.54638 
L 342.55872 448.842618 
L 342.687744 448.425623 
L 343.107072 448.161124 
L 343.139328 448.323472 
L 343.20384 448.20162 
L 343.397376 448.069188 
L 343.5264 447.9809 
L 344.074752 447.52122 
L 344.526336 447.084524 
L 344.65536 446.605144 
L 344.719872 446.522693 
L 344.752128 446.886789 
L 344.81664 446.408138 
L 344.913408 446.370196 
L 345.042432 446.241048 
L 345.074688 446.610981 
L 345.171456 446.53911 
L 345.30048 445.99552 
L 345.364992 446.378587 
L 345.429504 446.290664 
L 345.590784 445.794502 
L 345.62304 445.806176 
L 345.655296 446.137802 
L 345.687552 445.73467 
L 345.752064 446.06885 
L 345.881088 445.632884 
L 345.913344 445.642369 
L 345.9456 445.831349 
L 345.977856 445.608441 
L 346.010112 445.605157 
L 346.752 445.266599 
L 346.977792 445.050258 
L 347.07456 445.003925 
L 347.622912 444.503749 
L 347.784192 443.880372 
L 347.848704 443.989455 
L 347.913216 443.9197 
L 348.009984 443.691976 
L 348.04224 443.907843 
L 348.074496 443.693946 
L 348.106752 443.575196 
L 348.171264 444.037138 
L 348.20352 443.763008 
L 348.268032 443.872565 
L 348.332544 443.42963 
L 348.493824 443.288333 
L 348.52608 443.39665 
L 348.558336 443.543565 
L 348.590592 443.199571 
L 348.719616 443.160134 
L 348.816384 443.099609 
L 348.945408 443.38877 
L 348.977664 443.18144 
L 349.074432 443.264073 
L 349.235712 443.128759 
L 349.364736 442.942406 
L 349.49376 442.904428 
L 351.042048 441.430314 
L 351.203328 440.626779 
L 351.235584 441.133638 
L 351.26784 440.565437 
L 351.332352 440.983622 
L 351.396864 440.52388 
L 351.461376 440.582117 
L 351.493632 440.629106 
L 351.525888 440.572471 
L 351.816192 440.261143 
L 352.654848 438.911049 
L 352.687104 438.196319 
L 352.783872 438.228898 
L 352.816128 438.373223 
L 352.945152 437.958927 
L 352.977408 438.131344 
L 353.04192 437.886947 
L 353.2032 437.992236 
L 354.299904 436.118237 
L 354.33216 435.447688 
L 354.428928 435.49548 
L 354.65472 435.441121 
L 355.719168 433.691418 
L 355.751424 433.069026 
L 355.848192 433.139802 
L 355.880448 433.34374 
L 355.977216 433.252533 
L 356.235264 432.697999 
L 356.944896 431.523626 
L 356.977152 431.611913 
L 357.041664 431.49444 
L 357.202944 431.212794 
L 357.428736 430.931149 
L 357.783552 430.158814 
L 358.073856 429.621791 
L 358.170624 429.472212 
L 358.20288 429.669948 
L 358.235136 429.399247 
L 358.493184 429.088416 
L 358.52544 429.18327 
L 358.557696 429.242372 
L 358.622208 429.135114 
L 359.525376 427.650274 
L 359.589888 427.211389 
L 359.751168 426.766302 
L 359.783424 426.976077 
L 359.847936 426.691878 
L 360.364032 425.512032 
L 360.654336 424.746628 
L 361.299456 423.533219 
L 361.331712 423.576633 
L 361.363968 423.485062 
L 361.42848 423.408084 
L 361.525248 422.752128 
L 361.557504 422.769275 
L 361.686528 422.944026 
L 361.75104 422.844064 
L 363.073536 420.7102 
L 363.138048 420.24979 
L 363.20256 420.308892 
L 363.267072 420.400098 
L 363.331584 420.304514 
L 365.331456 417.521626 
L 365.524992 417.474563 
L 365.62176 417.599334 
L 365.750784 418.341024 
L 365.879808 423.331835 
L 365.976576 431.396666 
L 366.137856 439.817494 
L 366.395904 439.89086 
L 369.137664 439.994689 
L 370.202112 439.93391 
L 370.879488 439.396157 
L 371.718144 439.044939 
L 372.847104 438.839178 
L 374.588928 438.772743 
L 379.201536 438.904628 
L 390.104064 439.18941 
L 392.491008 439.174015 
L 396.006912 439.353035 
L 396.684288 439.918295 
L 397.522944 440.304445 
L 398.716416 440.561617 
L 400.555008 440.691878 
L 405.13536 440.71993 
L 415.328256 440.665676 
L 415.360512 440.918938 
L 415.683072 429.988805 
L 415.844352 427.953079 
L 416.005632 421.697053 
L 416.166912 404.541867 
L 416.457216 376.952309 
L 416.58624 376.981495 
L 419.16672 378.26568 
L 419.618304 378.488224 
L 428.940288 382.585213 
L 432.133632 383.785489 
L 433.262592 384.175852 
L 441.616896 386.901098 
L 442.036224 387.010546 
L 444.294144 387.667232 
L 444.745728 387.776679 
L 446.26176 388.177987 
L 446.681088 388.287435 
L 447.971328 388.615778 
L 448.422912 388.721577 
L 449.616384 389.017086 
L 450.164736 389.126533 
L 451.26144 389.381911 
L 451.809792 389.491359 
L 455.648256 390.301271 
L 455.680512 390.195472 
L 455.745024 390.363292 
L 455.93856 390.352347 
L 456.648192 390.476387 
L 459.551232 391.023626 
L 460.228608 391.133073 
L 462.163968 391.461416 
L 462.938112 391.570864 
L 464.550912 391.826241 
L 465.260544 391.935689 
L 466.550784 392.118102 
L 467.38944 392.227549 
L 468.67968 392.409962 
L 469.518336 392.51941 
L 470.647296 392.66534 
L 471.647232 392.774788 
L 472.776192 392.920718 
L 473.776128 393.030165 
L 474.743808 393.139613 
L 475.808256 393.249061 
L 476.775936 393.358508 
L 477.937152 393.467956 
L 478.904832 393.577404 
L 480.259584 393.686851 
L 481.227264 393.796299 
L 482.678784 393.905746 
L 483.485184 393.978711 
L 484.904448 394.088159 
L 485.710848 394.161124 
L 487.323648 394.270572 
L 488.130048 394.343537 
L 489.936384 394.452985 
L 490.742784 394.52595 
L 492.742656 394.635397 
L 493.549056 394.708362 
L 495.839232 394.81781 
L 495.968256 394.846996 
L 496.000512 395.044002 
L 496.065024 394.850644 
L 496.774656 394.876182 
L 498.83904 395.000223 
L 499.48416 395.036705 
L 502.22592 395.146153 
L 502.87104 395.182635 
L 505.6128 395.292083 
L 506.25792 395.324917 
L 508.51584 395.434365 
L 509.80608 395.470847 
L 512.8704 395.580295 
L 514.16064 395.616778 
L 517.418496 395.726225 
L 518.386176 395.726225 
L 521.482752 395.835673 
L 522.450432 395.839321 
L 523.127808 395.872155 
L 528.256512 395.981603 
L 529.224192 395.981603 
L 534.062592 396.091051 
L 535.030272 396.091051 
L 541.320192 396.200498 
L 542.287872 396.204147 
L 543.287808 396.200498 
L 576.608256 396.251574 
L 576.640512 396.375615 
L 576.705024 396.207795 
L 576.995328 396.229684 
L 657.248256 396.233333 
L 657.280512 396.419394 
L 657.345024 396.233333 
L 657.53856 396.215091 
L 658.699776 396.236981 
L 737.888256 396.233333 
L 737.920512 396.419394 
L 737.985024 396.233333 
L 738.17856 396.215091 
L 739.339776 396.236981 
L 818.528256 396.233333 
L 818.560512 396.419394 
L 818.625024 396.233333 
L 818.81856 396.215091 
L 819.979776 396.236981 
L 899.168256 396.233333 
L 899.200512 396.419394 
L 899.265024 396.233333 
L 899.45856 396.215091 
L 900.619776 396.236981 
L 947.52 396.236981 
L 947.52 396.236981 
" clip-path="url(#p33ff48bfb4)" style="fill: none; stroke: #ff00ff; stroke-width: 2; stroke-linecap: square"/>
   </g>
   <g id="patch_22">
    <path d="M 100.8 465.442759 
L 100.8 372.711724 
" style="fill: none; stroke: #bcbcbc; stroke-width: 0.8; stroke-linejoin: miter; stroke-linecap: square"/>
   </g>
   <g id="patch_23">
    <path d="M 987.84 465.442759 
L 987.84 372.711724 
" style="fill: none; stroke: #bcbcbc; stroke-width: 0.8; stroke-linejoin: miter; stroke-linecap: square"/>
   </g>
   <g id="patch_24">
    <path d="M 100.8 465.442759 
L 987.84 465.442759 
" style="fill: none; stroke: #bcbcbc; stroke-width: 0.8; stroke-linejoin: miter; stroke-linecap: square"/>
   </g>
   <g id="patch_25">
    <path d="M 100.8 372.711724 
L 987.84 372.711724 
" style="fill: none; stroke: #bcbcbc; stroke-width: 0.8; stroke-linejoin: miter; stroke-linecap: square"/>
   </g>
  </g>
  <g id="axes_5">
   <g id="patch_26">
    <path d="M 100.8 576.72 
L 987.84 576.72 
L 987.84 483.988966 
L 100.8 483.988966 
z
" style="fill: #eeeeee"/>
   </g>
   <g id="matplotlib.axis_9">
    <g id="xtick_25">
     <g id="line2d_71">
      <path d="M 141.12 576.72 
L 141.12 483.988966 
" clip-path="url(#pe069686174)" style="fill: none; stroke-dasharray: 1.85,0.8; stroke-dashoffset: 0; stroke: #b2b2b2; stroke-width: 0.5"/>
     </g>
     <g id="line2d_72">
      <g>
       <use xlink:href="#m1009817426" x="141.12" y="576.72" style="stroke: #000000; stroke-width: 0.8"/>
      </g>
     </g>
     <g id="text_14">
      <!-- 0 s -->
      <g transform="translate(130.795 590.857813) scale(0.14 -0.14)">
       <defs>
        <path id="DejaVuSans-73" d="M 2834 3397 
L 2834 2853 
Q 2591 2978 2328 3040 
Q 2066 3103 1784 3103 
Q 1356 3103 1142 2972 
Q 928 2841 928 2578 
Q 928 2378 1081 2264 
Q 1234 2150 1697 2047 
L 1894 2003 
Q 2506 1872 2764 1633 
Q 3022 1394 3022 966 
Q 3022 478 2636 193 
Q 2250 -91 1575 -91 
Q 1294 -91 989 -36 
Q 684 19 347 128 
L 347 722 
Q 666 556 975 473 
Q 1284 391 1588 391 
Q 1994 391 2212 530 
Q 2431 669 2431 922 
Q 2431 1156 2273 1281 
Q 2116 1406 1581 1522 
L 1381 1569 
Q 847 1681 609 1914 
Q 372 2147 372 2553 
Q 372 3047 722 3315 
Q 1072 3584 1716 3584 
Q 2034 3584 2315 3537 
Q 2597 3491 2834 3397 
z
" transform="scale(0.015625)"/>
       </defs>
       <use xlink:href="#DejaVuSans-30"/>
       <use xlink:href="#DejaVuSans-20" x="63.623047"/>
       <use xlink:href="#DejaVuSans-73" x="95.410156"/>
      </g>
     </g>
    </g>
    <g id="xtick_26">
     <g id="line2d_73">
      <path d="M 302.4 576.72 
L 302.4 483.988966 
" clip-path="url(#pe069686174)" style="fill: none; stroke-dasharray: 1.85,0.8; stroke-dashoffset: 0; stroke: #b2b2b2; stroke-width: 0.5"/>
     </g>
     <g id="line2d_74">
      <g>
       <use xlink:href="#m1009817426" x="302.4" y="576.72" style="stroke: #000000; stroke-width: 0.8"/>
      </g>
     </g>
     <g id="text_15">
      <!-- 50 ns -->
      <g transform="translate(283.185 590.857813) scale(0.14 -0.14)">
       <defs>
        <path id="DejaVuSans-35" d="M 691 4666 
L 3169 4666 
L 3169 4134 
L 1269 4134 
L 1269 2991 
Q 1406 3038 1543 3061 
Q 1681 3084 1819 3084 
Q 2600 3084 3056 2656 
Q 3513 2228 3513 1497 
Q 3513 744 3044 326 
Q 2575 -91 1722 -91 
Q 1428 -91 1123 -41 
Q 819 9 494 109 
L 494 744 
Q 775 591 1075 516 
Q 1375 441 1709 441 
Q 2250 441 2565 725 
Q 2881 1009 2881 1497 
Q 2881 1984 2565 2268 
Q 2250 2553 1709 2553 
Q 1456 2553 1204 2497 
Q 953 2441 691 2322 
L 691 4666 
z
" transform="scale(0.015625)"/>
        <path id="DejaVuSans-6e" d="M 3513 2113 
L 3513 0 
L 2938 0 
L 2938 2094 
Q 2938 2591 2744 2837 
Q 2550 3084 2163 3084 
Q 1697 3084 1428 2787 
Q 1159 2491 1159 1978 
L 1159 0 
L 581 0 
L 581 3500 
L 1159 3500 
L 1159 2956 
Q 1366 3272 1645 3428 
Q 1925 3584 2291 3584 
Q 2894 3584 3203 3211 
Q 3513 2838 3513 2113 
z
" transform="scale(0.015625)"/>
       </defs>
       <use xlink:href="#DejaVuSans-35"/>
       <use xlink:href="#DejaVuSans-30" x="63.623047"/>
       <use xlink:href="#DejaVuSans-20" x="127.246094"/>
       <use xlink:href="#DejaVuSans-6e" x="159.033203"/>
       <use xlink:href="#DejaVuSans-73" x="222.412109"/>
      </g>
     </g>
    </g>
    <g id="xtick_27">
     <g id="line2d_75">
      <path d="M 463.68 576.72 
L 463.68 483.988966 
" clip-path="url(#pe069686174)" style="fill: none; stroke-dasharray: 1.85,0.8; stroke-dashoffset: 0; stroke: #b2b2b2; stroke-width: 0.5"/>
     </g>
     <g id="line2d_76">
      <g>
       <use xlink:href="#m1009817426" x="463.68" y="576.72" style="stroke: #000000; stroke-width: 0.8"/>
      </g>
     </g>
     <g id="text_16">
      <!-- 100 ns -->
      <g transform="translate(440.01125 590.857813) scale(0.14 -0.14)">
       <use xlink:href="#DejaVuSans-31"/>
       <use xlink:href="#DejaVuSans-30" x="63.623047"/>
       <use xlink:href="#DejaVuSans-30" x="127.246094"/>
       <use xlink:href="#DejaVuSans-20" x="190.869141"/>
       <use xlink:href="#DejaVuSans-6e" x="222.65625"/>
       <use xlink:href="#DejaVuSans-73" x="286.035156"/>
      </g>
     </g>
    </g>
    <g id="xtick_28">
     <g id="line2d_77">
      <path d="M 624.96 576.72 
L 624.96 483.988966 
" clip-path="url(#pe069686174)" style="fill: none; stroke-dasharray: 1.85,0.8; stroke-dashoffset: 0; stroke: #b2b2b2; stroke-width: 0.5"/>
     </g>
     <g id="line2d_78">
      <g>
       <use xlink:href="#m1009817426" x="624.96" y="576.72" style="stroke: #000000; stroke-width: 0.8"/>
      </g>
     </g>
     <g id="text_17">
      <!-- 150 ns -->
      <g transform="translate(601.29125 590.857813) scale(0.14 -0.14)">
       <use xlink:href="#DejaVuSans-31"/>
       <use xlink:href="#DejaVuSans-35" x="63.623047"/>
       <use xlink:href="#DejaVuSans-30" x="127.246094"/>
       <use xlink:href="#DejaVuSans-20" x="190.869141"/>
       <use xlink:href="#DejaVuSans-6e" x="222.65625"/>
       <use xlink:href="#DejaVuSans-73" x="286.035156"/>
      </g>
     </g>
    </g>
    <g id="xtick_29">
     <g id="line2d_79">
      <path d="M 786.24 576.72 
L 786.24 483.988966 
" clip-path="url(#pe069686174)" style="fill: none; stroke-dasharray: 1.85,0.8; stroke-dashoffset: 0; stroke: #b2b2b2; stroke-width: 0.5"/>
     </g>
     <g id="line2d_80">
      <g>
       <use xlink:href="#m1009817426" x="786.24" y="576.72" style="stroke: #000000; stroke-width: 0.8"/>
      </g>
     </g>
     <g id="text_18">
      <!-- 200 ns -->
      <g transform="translate(762.57125 590.857813) scale(0.14 -0.14)">
       <use xlink:href="#DejaVuSans-32"/>
       <use xlink:href="#DejaVuSans-30" x="63.623047"/>
       <use xlink:href="#DejaVuSans-30" x="127.246094"/>
       <use xlink:href="#DejaVuSans-20" x="190.869141"/>
       <use xlink:href="#DejaVuSans-6e" x="222.65625"/>
       <use xlink:href="#DejaVuSans-73" x="286.035156"/>
      </g>
     </g>
    </g>
    <g id="xtick_30">
     <g id="line2d_81">
      <path d="M 947.52 576.72 
L 947.52 483.988966 
" clip-path="url(#pe069686174)" style="fill: none; stroke-dasharray: 1.85,0.8; stroke-dashoffset: 0; stroke: #b2b2b2; stroke-width: 0.5"/>
     </g>
     <g id="line2d_82">
      <g>
       <use xlink:href="#m1009817426" x="947.52" y="576.72" style="stroke: #000000; stroke-width: 0.8"/>
      </g>
     </g>
     <g id="text_19">
      <!-- 250 ns -->
      <g transform="translate(923.85125 590.857813) scale(0.14 -0.14)">
       <use xlink:href="#DejaVuSans-32"/>
       <use xlink:href="#DejaVuSans-35" x="63.623047"/>
       <use xlink:href="#DejaVuSans-30" x="127.246094"/>
       <use xlink:href="#DejaVuSans-20" x="190.869141"/>
       <use xlink:href="#DejaVuSans-6e" x="222.65625"/>
       <use xlink:href="#DejaVuSans-73" x="286.035156"/>
      </g>
     </g>
    </g>
    <g id="text_20">
     <!-- Time -->
     <g transform="translate(527.192969 608.407187) scale(0.14 -0.14)">
      <defs>
       <path id="DejaVuSans-69" d="M 603 3500 
L 1178 3500 
L 1178 0 
L 603 0 
L 603 3500 
z
M 603 4863 
L 1178 4863 
L 1178 4134 
L 603 4134 
L 603 4863 
z
" transform="scale(0.015625)"/>
       <path id="DejaVuSans-6d" d="M 3328 2828 
Q 3544 3216 3844 3400 
Q 4144 3584 4550 3584 
Q 5097 3584 5394 3201 
Q 5691 2819 5691 2113 
L 5691 0 
L 5113 0 
L 5113 2094 
Q 5113 2597 4934 2840 
Q 4756 3084 4391 3084 
Q 3944 3084 3684 2787 
Q 3425 2491 3425 1978 
L 3425 0 
L 2847 0 
L 2847 2094 
Q 2847 2600 2669 2842 
Q 2491 3084 2119 3084 
Q 1678 3084 1418 2786 
Q 1159 2488 1159 1978 
L 1159 0 
L 581 0 
L 581 3500 
L 1159 3500 
L 1159 2956 
Q 1356 3278 1631 3431 
Q 1906 3584 2284 3584 
Q 2666 3584 2933 3390 
Q 3200 3197 3328 2828 
z
" transform="scale(0.015625)"/>
       <path id="DejaVuSans-65" d="M 3597 1894 
L 3597 1613 
L 953 1613 
Q 991 1019 1311 708 
Q 1631 397 2203 397 
Q 2534 397 2845 478 
Q 3156 559 3463 722 
L 3463 178 
Q 3153 47 2828 -22 
Q 2503 -91 2169 -91 
Q 1331 -91 842 396 
Q 353 884 353 1716 
Q 353 2575 817 3079 
Q 1281 3584 2069 3584 
Q 2775 3584 3186 3129 
Q 3597 2675 3597 1894 
z
M 3022 2063 
Q 3016 2534 2758 2815 
Q 2500 3097 2075 3097 
Q 1594 3097 1305 2825 
Q 1016 2553 972 2059 
L 3022 2063 
z
" transform="scale(0.015625)"/>
      </defs>
      <use xlink:href="#DejaVuSans-54"/>
      <use xlink:href="#DejaVuSans-69" x="57.958984"/>
      <use xlink:href="#DejaVuSans-6d" x="85.742188"/>
      <use xlink:href="#DejaVuSans-65" x="183.154297"/>
     </g>
    </g>
   </g>
   <g id="matplotlib.axis_10">
    <g id="ytick_10">
     <g id="line2d_83">
      <path d="M 100.8 569.740788 
L 987.84 569.740788 
" clip-path="url(#pe069686174)" style="fill: none; stroke-dasharray: 1.85,0.8; stroke-dashoffset: 0; stroke: #b2b2b2; stroke-width: 0.5"/>
     </g>
     <g id="line2d_84">
      <g>
       <use xlink:href="#mc28a266c81" x="100.8" y="569.740788" style="stroke: #000000; stroke-width: 0.8"/>
      </g>
     </g>
     <g id="text_21">
      <!-- 0 V -->
      <g transform="translate(74.36625 575.059694) scale(0.14 -0.14)">
       <use xlink:href="#DejaVuSans-30"/>
       <use xlink:href="#DejaVuSans-20" x="63.623047"/>
       <use xlink:href="#DejaVuSans-56" x="95.410156"/>
      </g>
     </g>
    </g>
    <g id="ytick_11">
     <g id="line2d_85">
      <path d="M 100.8 535.882813 
L 987.84 535.882813 
" clip-path="url(#pe069686174)" style="fill: none; stroke-dasharray: 1.85,0.8; stroke-dashoffset: 0; stroke: #b2b2b2; stroke-width: 0.5"/>
     </g>
     <g id="line2d_86">
      <g>
       <use xlink:href="#mc28a266c81" x="100.8" y="535.882813" style="stroke: #000000; stroke-width: 0.8"/>
      </g>
     </g>
     <g id="text_22">
      <!-- 500 mV -->
      <g transform="translate(42.914375 541.201719) scale(0.14 -0.14)">
       <use xlink:href="#DejaVuSans-35"/>
       <use xlink:href="#DejaVuSans-30" x="63.623047"/>
       <use xlink:href="#DejaVuSans-30" x="127.246094"/>
       <use xlink:href="#DejaVuSans-20" x="190.869141"/>
       <use xlink:href="#DejaVuSans-6d" x="222.65625"/>
       <use xlink:href="#DejaVuSans-56" x="320.068359"/>
      </g>
     </g>
    </g>
    <g id="ytick_12">
     <g id="line2d_87">
      <path d="M 100.8 502.024838 
L 987.84 502.024838 
" clip-path="url(#pe069686174)" style="fill: none; stroke-dasharray: 1.85,0.8; stroke-dashoffset: 0; stroke: #b2b2b2; stroke-width: 0.5"/>
     </g>
     <g id="line2d_88">
      <g>
       <use xlink:href="#mc28a266c81" x="100.8" y="502.024838" style="stroke: #000000; stroke-width: 0.8"/>
      </g>
     </g>
     <g id="text_23">
      <!-- 1 V -->
      <g transform="translate(74.36625 507.343744) scale(0.14 -0.14)">
       <use xlink:href="#DejaVuSans-31"/>
       <use xlink:href="#DejaVuSans-20" x="63.623047"/>
       <use xlink:href="#DejaVuSans-56" x="95.410156"/>
      </g>
     </g>
    </g>
    <g id="text_24">
     <g id="patch_27">
      <path d="M 34.8768 554.329483 
L 34.8768 506.379483 
L 11.247425 506.379483 
L 11.247425 554.329483 
z
" style="fill: #ffff00; opacity: 0.2; stroke: #eeeeee; stroke-width: 0.5; stroke-linejoin: miter"/>
     </g>
     <!-- FOUT -->
     <g transform="translate(26.925238 549.289483) rotate(-90) scale(0.14 -0.14)">
      <use xlink:href="#DejaVuSans-46"/>
      <use xlink:href="#DejaVuSans-4f" x="57.519531"/>
      <use xlink:href="#DejaVuSans-55" x="136.230469"/>
      <use xlink:href="#DejaVuSans-54" x="209.423828"/>
     </g>
    </g>
   </g>
   <g id="line2d_89">
    <path d="M 141.12 488.481648 
L 173.472768 488.48842 
L 173.505024 488.292043 
L 173.569536 526.70527 
L 173.69856 572.504953 
L 173.730816 572.36925 
L 173.827584 567.8335 
L 173.892096 569.355091 
L 174.053376 570.059683 
L 174.117888 569.941938 
L 174.408192 569.486487 
L 174.440448 569.536035 
L 174.66624 569.724827 
L 176.182272 569.735043 
L 180.117504 569.756381 
L 193.503744 569.74747 
L 212.921856 569.73891 
L 255.30624 569.738603 
L 255.6288 488.373302 
L 255.854592 488.515506 
L 256.209408 488.474876 
L 317.011968 488.420704 
L 317.07648 488.204013 
L 317.108736 489.741165 
L 317.270016 570.117099 
L 317.431296 569.739019 
L 339.526656 569.739105 
L 363.52512 569.806282 
L 363.557376 569.858099 
L 363.589632 569.828297 
L 363.621888 568.216163 
L 363.750912 504.396928 
L 363.879936 488.637395 
L 364.041216 488.48842 
L 364.589568 488.481648 
L 365.750784 488.481648 
L 365.847552 517.499287 
L 366.008832 570.281398 
L 366.073344 569.732313 
L 366.395904 569.739105 
L 416.070144 569.804388 
L 416.1024 569.934875 
L 416.42496 488.48842 
L 947.52 488.481648 
L 947.52 488.481648 
" clip-path="url(#pe069686174)" style="fill: none; stroke: #ff00ff; stroke-width: 2; stroke-linecap: square"/>
   </g>
   <g id="patch_28">
    <path d="M 100.8 576.72 
L 100.8 483.988966 
" style="fill: none; stroke: #bcbcbc; stroke-width: 0.8; stroke-linejoin: miter; stroke-linecap: square"/>
   </g>
   <g id="patch_29">
    <path d="M 987.84 576.72 
L 987.84 483.988966 
" style="fill: none; stroke: #bcbcbc; stroke-width: 0.8; stroke-linejoin: miter; stroke-linecap: square"/>
   </g>
   <g id="patch_30">
    <path d="M 100.8 576.72 
L 987.84 576.72 
" style="fill: none; stroke: #bcbcbc; stroke-width: 0.8; stroke-linejoin: miter; stroke-linecap: square"/>
   </g>
   <g id="patch_31">
    <path d="M 100.8 483.988966 
L 987.84 483.988966 
" style="fill: none; stroke: #bcbcbc; stroke-width: 0.8; stroke-linejoin: miter; stroke-linecap: square"/>
   </g>
  </g>
  <g id="axes_6">
   <g id="patch_32">
    <path d="M 201.6 628.56 
L 856.8 628.56 
L 856.8 615.6 
L 201.6 615.6 
z
" clip-path="url(#p9f3ae6c3c0)" style="fill: #d3d3d3"/>
   </g>
   <g id="patch_33">
    <path d="M 201.6 628.56 
L 365.4 628.56 
L 365.4 615.6 
L 201.6 615.6 
z
" clip-path="url(#p9f3ae6c3c0)" style="fill: #0000ff"/>
   </g>
   <g id="line2d_90">
    <path d="M 201.6 635.04 
L 201.6 609.12 
" clip-path="url(#pce5b7de889)" style="fill: none; stroke: #ff0000; stroke-linecap: square"/>
   </g>
   <g id="line2d_91">
    <defs>
     <path id="m510a7803cc" d="M 0 5 
C 1.326016 5 2.597899 4.473168 3.535534 3.535534 
C 4.473168 2.597899 5 1.326016 5 0 
C 5 -1.326016 4.473168 -2.597899 3.535534 -3.535534 
C 2.597899 -4.473168 1.326016 -5 0 -5 
C -1.326016 -5 -2.597899 -4.473168 -3.535534 -3.535534 
C -4.473168 -2.597899 -5 -1.326016 -5 0 
C -5 1.326016 -4.473168 2.597899 -3.535534 3.535534 
C -2.597899 4.473168 -1.326016 5 0 5 
z
" style="stroke: #bfbfbf"/>
    </defs>
    <g>
     <use xlink:href="#m510a7803cc" x="365.4" y="622.08" style="fill: #ffffff; stroke: #bfbfbf"/>
    </g>
   </g>
   <g id="text_25">
    <!-- #Sweep -->
    <g transform="translate(138.622875 625.39125) scale(0.12 -0.12)">
     <defs>
      <path id="DejaVuSans-23" d="M 3272 2816 
L 2363 2816 
L 2100 1772 
L 3016 1772 
L 3272 2816 
z
M 2803 4594 
L 2478 3297 
L 3391 3297 
L 3719 4594 
L 4219 4594 
L 3897 3297 
L 4872 3297 
L 4872 2816 
L 3775 2816 
L 3519 1772 
L 4513 1772 
L 4513 1294 
L 3397 1294 
L 3072 0 
L 2572 0 
L 2894 1294 
L 1978 1294 
L 1656 0 
L 1153 0 
L 1478 1294 
L 494 1294 
L 494 1772 
L 1594 1772 
L 1856 2816 
L 850 2816 
L 850 3297 
L 1978 3297 
L 2297 4594 
L 2803 4594 
z
" transform="scale(0.015625)"/>
      <path id="DejaVuSans-77" d="M 269 3500 
L 844 3500 
L 1563 769 
L 2278 3500 
L 2956 3500 
L 3675 769 
L 4391 3500 
L 4966 3500 
L 4050 0 
L 3372 0 
L 2619 2869 
L 1863 0 
L 1184 0 
L 269 3500 
z
" transform="scale(0.015625)"/>
      <path id="DejaVuSans-70" d="M 1159 525 
L 1159 -1331 
L 581 -1331 
L 581 3500 
L 1159 3500 
L 1159 2969 
Q 1341 3281 1617 3432 
Q 1894 3584 2278 3584 
Q 2916 3584 3314 3078 
Q 3713 2572 3713 1747 
Q 3713 922 3314 415 
Q 2916 -91 2278 -91 
Q 1894 -91 1617 61 
Q 1341 213 1159 525 
z
M 3116 1747 
Q 3116 2381 2855 2742 
Q 2594 3103 2138 3103 
Q 1681 3103 1420 2742 
Q 1159 2381 1159 1747 
Q 1159 1113 1420 752 
Q 1681 391 2138 391 
Q 2594 391 2855 752 
Q 3116 1113 3116 1747 
z
" transform="scale(0.015625)"/>
     </defs>
     <use xlink:href="#DejaVuSans-23"/>
     <use xlink:href="#DejaVuSans-53" x="83.789062"/>
     <use xlink:href="#DejaVuSans-77" x="147.265625"/>
     <use xlink:href="#DejaVuSans-65" x="229.052734"/>
     <use xlink:href="#DejaVuSans-65" x="290.576172"/>
     <use xlink:href="#DejaVuSans-70" x="352.099609"/>
    </g>
   </g>
   <g id="text_26">
    <!-- $\mathdefault{35}$ -->
    <g transform="translate(869.904 625.39125) scale(0.12 -0.12)">
     <defs>
      <path id="DejaVuSans-33" d="M 2597 2516 
Q 3050 2419 3304 2112 
Q 3559 1806 3559 1356 
Q 3559 666 3084 287 
Q 2609 -91 1734 -91 
Q 1441 -91 1130 -33 
Q 819 25 488 141 
L 488 750 
Q 750 597 1062 519 
Q 1375 441 1716 441 
Q 2309 441 2620 675 
Q 2931 909 2931 1356 
Q 2931 1769 2642 2001 
Q 2353 2234 1838 2234 
L 1294 2234 
L 1294 2753 
L 1863 2753 
Q 2328 2753 2575 2939 
Q 2822 3125 2822 3475 
Q 2822 3834 2567 4026 
Q 2313 4219 1838 4219 
Q 1578 4219 1281 4162 
Q 984 4106 628 3988 
L 628 4550 
Q 988 4650 1302 4700 
Q 1616 4750 1894 4750 
Q 2613 4750 3031 4423 
Q 3450 4097 3450 3541 
Q 3450 3153 3228 2886 
Q 3006 2619 2597 2516 
z
" transform="scale(0.015625)"/>
     </defs>
     <use xlink:href="#DejaVuSans-33" transform="translate(0 0.78125)"/>
     <use xlink:href="#DejaVuSans-35" transform="translate(63.623047 0.78125)"/>
    </g>
   </g>
  </g>
  <g id="text_27">
   <!-- DFF under BBI sweep analysis (Sweep = 45E-9) -->
   <g transform="translate(313.34625 25.1175) scale(0.16 -0.16)">
    <defs>
     <path id="DejaVuSans-75" d="M 544 1381 
L 544 3500 
L 1119 3500 
L 1119 1403 
Q 1119 906 1312 657 
Q 1506 409 1894 409 
Q 2359 409 2629 706 
Q 2900 1003 2900 1516 
L 2900 3500 
L 3475 3500 
L 3475 0 
L 2900 0 
L 2900 538 
Q 2691 219 2414 64 
Q 2138 -91 1772 -91 
Q 1169 -91 856 284 
Q 544 659 544 1381 
z
M 1991 3584 
L 1991 3584 
z
" transform="scale(0.015625)"/>
     <path id="DejaVuSans-64" d="M 2906 2969 
L 2906 4863 
L 3481 4863 
L 3481 0 
L 2906 0 
L 2906 525 
Q 2725 213 2448 61 
Q 2172 -91 1784 -91 
Q 1150 -91 751 415 
Q 353 922 353 1747 
Q 353 2572 751 3078 
Q 1150 3584 1784 3584 
Q 2172 3584 2448 3432 
Q 2725 3281 2906 2969 
z
M 947 1747 
Q 947 1113 1208 752 
Q 1469 391 1925 391 
Q 2381 391 2643 752 
Q 2906 1113 2906 1747 
Q 2906 2381 2643 2742 
Q 2381 3103 1925 3103 
Q 1469 3103 1208 2742 
Q 947 2381 947 1747 
z
" transform="scale(0.015625)"/>
     <path id="DejaVuSans-72" d="M 2631 2963 
Q 2534 3019 2420 3045 
Q 2306 3072 2169 3072 
Q 1681 3072 1420 2755 
Q 1159 2438 1159 1844 
L 1159 0 
L 581 0 
L 581 3500 
L 1159 3500 
L 1159 2956 
Q 1341 3275 1631 3429 
Q 1922 3584 2338 3584 
Q 2397 3584 2469 3576 
Q 2541 3569 2628 3553 
L 2631 2963 
z
" transform="scale(0.015625)"/>
     <path id="DejaVuSans-61" d="M 2194 1759 
Q 1497 1759 1228 1600 
Q 959 1441 959 1056 
Q 959 750 1161 570 
Q 1363 391 1709 391 
Q 2188 391 2477 730 
Q 2766 1069 2766 1631 
L 2766 1759 
L 2194 1759 
z
M 3341 1997 
L 3341 0 
L 2766 0 
L 2766 531 
Q 2569 213 2275 61 
Q 1981 -91 1556 -91 
Q 1019 -91 701 211 
Q 384 513 384 1019 
Q 384 1609 779 1909 
Q 1175 2209 1959 2209 
L 2766 2209 
L 2766 2266 
Q 2766 2663 2505 2880 
Q 2244 3097 1772 3097 
Q 1472 3097 1187 3025 
Q 903 2953 641 2809 
L 641 3341 
Q 956 3463 1253 3523 
Q 1550 3584 1831 3584 
Q 2591 3584 2966 3190 
Q 3341 2797 3341 1997 
z
" transform="scale(0.015625)"/>
     <path id="DejaVuSans-6c" d="M 603 4863 
L 1178 4863 
L 1178 0 
L 603 0 
L 603 4863 
z
" transform="scale(0.015625)"/>
     <path id="DejaVuSans-79" d="M 2059 -325 
Q 1816 -950 1584 -1140 
Q 1353 -1331 966 -1331 
L 506 -1331 
L 506 -850 
L 844 -850 
Q 1081 -850 1212 -737 
Q 1344 -625 1503 -206 
L 1606 56 
L 191 3500 
L 800 3500 
L 1894 763 
L 2988 3500 
L 3597 3500 
L 2059 -325 
z
" transform="scale(0.015625)"/>
     <path id="DejaVuSans-28" d="M 1984 4856 
Q 1566 4138 1362 3434 
Q 1159 2731 1159 2009 
Q 1159 1288 1364 580 
Q 1569 -128 1984 -844 
L 1484 -844 
Q 1016 -109 783 600 
Q 550 1309 550 2009 
Q 550 2706 781 3412 
Q 1013 4119 1484 4856 
L 1984 4856 
z
" transform="scale(0.015625)"/>
     <path id="DejaVuSans-3d" d="M 678 2906 
L 4684 2906 
L 4684 2381 
L 678 2381 
L 678 2906 
z
M 678 1631 
L 4684 1631 
L 4684 1100 
L 678 1100 
L 678 1631 
z
" transform="scale(0.015625)"/>
     <path id="DejaVuSans-34" d="M 2419 4116 
L 825 1625 
L 2419 1625 
L 2419 4116 
z
M 2253 4666 
L 3047 4666 
L 3047 1625 
L 3713 1625 
L 3713 1100 
L 3047 1100 
L 3047 0 
L 2419 0 
L 2419 1100 
L 313 1100 
L 313 1709 
L 2253 4666 
z
" transform="scale(0.015625)"/>
     <path id="DejaVuSans-2d" d="M 313 2009 
L 1997 2009 
L 1997 1497 
L 313 1497 
L 313 2009 
z
" transform="scale(0.015625)"/>
     <path id="DejaVuSans-39" d="M 703 97 
L 703 672 
Q 941 559 1184 500 
Q 1428 441 1663 441 
Q 2288 441 2617 861 
Q 2947 1281 2994 2138 
Q 2813 1869 2534 1725 
Q 2256 1581 1919 1581 
Q 1219 1581 811 2004 
Q 403 2428 403 3163 
Q 403 3881 828 4315 
Q 1253 4750 1959 4750 
Q 2769 4750 3195 4129 
Q 3622 3509 3622 2328 
Q 3622 1225 3098 567 
Q 2575 -91 1691 -91 
Q 1453 -91 1209 -44 
Q 966 3 703 97 
z
M 1959 2075 
Q 2384 2075 2632 2365 
Q 2881 2656 2881 3163 
Q 2881 3666 2632 3958 
Q 2384 4250 1959 4250 
Q 1534 4250 1286 3958 
Q 1038 3666 1038 3163 
Q 1038 2656 1286 2365 
Q 1534 2075 1959 2075 
z
" transform="scale(0.015625)"/>
     <path id="DejaVuSans-29" d="M 513 4856 
L 1013 4856 
Q 1481 4119 1714 3412 
Q 1947 2706 1947 2009 
Q 1947 1309 1714 600 
Q 1481 -109 1013 -844 
L 513 -844 
Q 928 -128 1133 580 
Q 1338 1288 1338 2009 
Q 1338 2731 1133 3434 
Q 928 4138 513 4856 
z
" transform="scale(0.015625)"/>
    </defs>
    <use xlink:href="#DejaVuSans-44"/>
    <use xlink:href="#DejaVuSans-46" x="77.001953"/>
    <use xlink:href="#DejaVuSans-46" x="134.521484"/>
    <use xlink:href="#DejaVuSans-20" x="192.041016"/>
    <use xlink:href="#DejaVuSans-75" x="223.828125"/>
    <use xlink:href="#DejaVuSans-6e" x="287.207031"/>
    <use xlink:href="#DejaVuSans-64" x="350.585938"/>
    <use xlink:href="#DejaVuSans-65" x="414.0625"/>
    <use xlink:href="#DejaVuSans-72" x="475.585938"/>
    <use xlink:href="#DejaVuSans-20" x="516.699219"/>
    <use xlink:href="#DejaVuSans-42" x="548.486328"/>
    <use xlink:href="#DejaVuSans-42" x="617.089844"/>
    <use xlink:href="#DejaVuSans-49" x="685.693359"/>
    <use xlink:href="#DejaVuSans-20" x="715.185547"/>
    <use xlink:href="#DejaVuSans-73" x="746.972656"/>
    <use xlink:href="#DejaVuSans-77" x="799.072266"/>
    <use xlink:href="#DejaVuSans-65" x="880.859375"/>
    <use xlink:href="#DejaVuSans-65" x="942.382812"/>
    <use xlink:href="#DejaVuSans-70" x="1003.90625"/>
    <use xlink:href="#DejaVuSans-20" x="1067.382812"/>
    <use xlink:href="#DejaVuSans-61" x="1099.169922"/>
    <use xlink:href="#DejaVuSans-6e" x="1160.449219"/>
    <use xlink:href="#DejaVuSans-61" x="1223.828125"/>
    <use xlink:href="#DejaVuSans-6c" x="1285.107422"/>
    <use xlink:href="#DejaVuSans-79" x="1312.890625"/>
    <use xlink:href="#DejaVuSans-73" x="1372.070312"/>
    <use xlink:href="#DejaVuSans-69" x="1424.169922"/>
    <use xlink:href="#DejaVuSans-73" x="1451.953125"/>
    <use xlink:href="#DejaVuSans-20" x="1504.052734"/>
    <use xlink:href="#DejaVuSans-28" x="1535.839844"/>
    <use xlink:href="#DejaVuSans-53" x="1574.853516"/>
    <use xlink:href="#DejaVuSans-77" x="1638.330078"/>
    <use xlink:href="#DejaVuSans-65" x="1720.117188"/>
    <use xlink:href="#DejaVuSans-65" x="1781.640625"/>
    <use xlink:href="#DejaVuSans-70" x="1843.164062"/>
    <use xlink:href="#DejaVuSans-20" x="1906.640625"/>
    <use xlink:href="#DejaVuSans-3d" x="1938.427734"/>
    <use xlink:href="#DejaVuSans-20" x="2022.216797"/>
    <use xlink:href="#DejaVuSans-34" x="2054.003906"/>
    <use xlink:href="#DejaVuSans-35" x="2117.626953"/>
    <use xlink:href="#DejaVuSans-45" x="2181.25"/>
    <use xlink:href="#DejaVuSans-2d" x="2244.433594"/>
    <use xlink:href="#DejaVuSans-39" x="2280.517578"/>
    <use xlink:href="#DejaVuSans-29" x="2344.140625"/>
   </g>
  </g>
 </g>
 <defs>
  <clipPath id="p096e7ba683">
   <rect x="100.8" y="38.88" width="887.04" height="92.731034"/>
  </clipPath>
  <clipPath id="p54f7d28aaf">
   <rect x="100.8" y="150.157241" width="887.04" height="92.731034"/>
  </clipPath>
  <clipPath id="pd64335b499">
   <rect x="100.8" y="261.434483" width="887.04" height="92.731034"/>
  </clipPath>
  <clipPath id="p33ff48bfb4">
   <rect x="100.8" y="372.711724" width="887.04" height="92.731034"/>
  </clipPath>
  <clipPath id="pe069686174">
   <rect x="100.8" y="483.988966" width="887.04" height="92.731034"/>
  </clipPath>
  <clipPath id="p9f3ae6c3c0">
   <rect x="201.6" y="609.12" width="655.2" height="25.92"/>
  </clipPath>
  <clipPath id="pce5b7de889">
   <path d="M 201.6 628.56 
L 856.8 628.56 
L 856.8 615.6 
L 201.6 615.6 
z
"/>
  </clipPath>
 </defs>
</svg>
