<?xml version="1.0" encoding="utf-8" standalone="no"?>
<!DOCTYPE svg PUBLIC "-//W3C//DTD SVG 1.1//EN"
  "http://www.w3.org/Graphics/SVG/1.1/DTD/svg11.dtd">
<svg xmlns:xlink="http://www.w3.org/1999/xlink" width="1008pt" height="648pt" viewBox="0 0 1008 648" xmlns="http://www.w3.org/2000/svg" version="1.1">
 <metadata>
  <rdf:RDF xmlns:dc="http://purl.org/dc/elements/1.1/" xmlns:cc="http://creativecommons.org/ns#" xmlns:rdf="http://www.w3.org/1999/02/22-rdf-syntax-ns#">
   <cc:Work>
    <dc:type rdf:resource="http://purl.org/dc/dcmitype/StillImage"/>
    <dc:date>2024-06-03T10:45:34.564379</dc:date>
    <dc:format>image/svg+xml</dc:format>
    <dc:creator>
     <cc:Agent>
      <dc:title>Matplotlib v3.9.0, https://matplotlib.org/</dc:title>
     </cc:Agent>
    </dc:creator>
   </cc:Work>
  </rdf:RDF>
 </metadata>
 <defs>
  <style type="text/css">*{stroke-linejoin: round; stroke-linecap: butt}</style>
 </defs>
 <g id="figure_1">
  <g id="patch_1">
   <path d="M 0 648 
L 1008 648 
L 1008 0 
L 0 0 
z
" style="fill: #ffffff"/>
  </g>
  <g id="axes_1">
   <g id="patch_2">
    <path d="M 100.8 131.611034 
L 987.84 131.611034 
L 987.84 38.88 
L 100.8 38.88 
z
" style="fill: #eeeeee"/>
   </g>
   <g id="matplotlib.axis_1">
    <g id="xtick_1">
     <g id="line2d_1">
      <path d="M 141.12 131.611034 
L 141.12 38.88 
" clip-path="url(#pe5247f9ec2)" style="fill: none; stroke-dasharray: 1.85,0.8; stroke-dashoffset: 0; stroke: #b2b2b2; stroke-width: 0.5"/>
     </g>
     <g id="line2d_2">
      <defs>
       <path id="m3d7516a159" d="M 0 0 
L 0 -3.5 
" style="stroke: #000000; stroke-width: 0.8"/>
      </defs>
      <g>
       <use xlink:href="#m3d7516a159" x="141.12" y="131.611034" style="stroke: #000000; stroke-width: 0.8"/>
      </g>
     </g>
    </g>
    <g id="xtick_2">
     <g id="line2d_3">
      <path d="M 302.4 131.611034 
L 302.4 38.88 
" clip-path="url(#pe5247f9ec2)" style="fill: none; stroke-dasharray: 1.85,0.8; stroke-dashoffset: 0; stroke: #b2b2b2; stroke-width: 0.5"/>
     </g>
     <g id="line2d_4">
      <g>
       <use xlink:href="#m3d7516a159" x="302.4" y="131.611034" style="stroke: #000000; stroke-width: 0.8"/>
      </g>
     </g>
    </g>
    <g id="xtick_3">
     <g id="line2d_5">
      <path d="M 463.68 131.611034 
L 463.68 38.88 
" clip-path="url(#pe5247f9ec2)" style="fill: none; stroke-dasharray: 1.85,0.8; stroke-dashoffset: 0; stroke: #b2b2b2; stroke-width: 0.5"/>
     </g>
     <g id="line2d_6">
      <g>
       <use xlink:href="#m3d7516a159" x="463.68" y="131.611034" style="stroke: #000000; stroke-width: 0.8"/>
      </g>
     </g>
    </g>
    <g id="xtick_4">
     <g id="line2d_7">
      <path d="M 624.96 131.611034 
L 624.96 38.88 
" clip-path="url(#pe5247f9ec2)" style="fill: none; stroke-dasharray: 1.85,0.8; stroke-dashoffset: 0; stroke: #b2b2b2; stroke-width: 0.5"/>
     </g>
     <g id="line2d_8">
      <g>
       <use xlink:href="#m3d7516a159" x="624.96" y="131.611034" style="stroke: #000000; stroke-width: 0.8"/>
      </g>
     </g>
    </g>
    <g id="xtick_5">
     <g id="line2d_9">
      <path d="M 786.24 131.611034 
L 786.24 38.88 
" clip-path="url(#pe5247f9ec2)" style="fill: none; stroke-dasharray: 1.85,0.8; stroke-dashoffset: 0; stroke: #b2b2b2; stroke-width: 0.5"/>
     </g>
     <g id="line2d_10">
      <g>
       <use xlink:href="#m3d7516a159" x="786.24" y="131.611034" style="stroke: #000000; stroke-width: 0.8"/>
      </g>
     </g>
    </g>
    <g id="xtick_6">
     <g id="line2d_11">
      <path d="M 947.52 131.611034 
L 947.52 38.88 
" clip-path="url(#pe5247f9ec2)" style="fill: none; stroke-dasharray: 1.85,0.8; stroke-dashoffset: 0; stroke: #b2b2b2; stroke-width: 0.5"/>
     </g>
     <g id="line2d_12">
      <g>
       <use xlink:href="#m3d7516a159" x="947.52" y="131.611034" style="stroke: #000000; stroke-width: 0.8"/>
      </g>
     </g>
    </g>
   </g>
   <g id="matplotlib.axis_2">
    <g id="ytick_1">
     <g id="line2d_13">
      <path d="M 100.8 98.340394 
L 987.84 98.340394 
" clip-path="url(#pe5247f9ec2)" style="fill: none; stroke-dasharray: 1.85,0.8; stroke-dashoffset: 0; stroke: #b2b2b2; stroke-width: 0.5"/>
     </g>
     <g id="line2d_14">
      <defs>
       <path id="m389badb602" d="M 0 0 
L 3.5 0 
" style="stroke: #000000; stroke-width: 0.8"/>
      </defs>
      <g>
       <use xlink:href="#m389badb602" x="100.8" y="98.340394" style="stroke: #000000; stroke-width: 0.8"/>
      </g>
     </g>
     <g id="text_1">
      <!-- −200 V -->
      <g transform="translate(44.819688 103.6593) scale(0.14 -0.14)">
       <defs>
        <path id="DejaVuSans-2212" d="M 678 2272 
L 4684 2272 
L 4684 1741 
L 678 1741 
L 678 2272 
z
" transform="scale(0.015625)"/>
        <path id="DejaVuSans-32" d="M 1228 531 
L 3431 531 
L 3431 0 
L 469 0 
L 469 531 
Q 828 903 1448 1529 
Q 2069 2156 2228 2338 
Q 2531 2678 2651 2914 
Q 2772 3150 2772 3378 
Q 2772 3750 2511 3984 
Q 2250 4219 1831 4219 
Q 1534 4219 1204 4116 
Q 875 4013 500 3803 
L 500 4441 
Q 881 4594 1212 4672 
Q 1544 4750 1819 4750 
Q 2544 4750 2975 4387 
Q 3406 4025 3406 3419 
Q 3406 3131 3298 2873 
Q 3191 2616 2906 2266 
Q 2828 2175 2409 1742 
Q 1991 1309 1228 531 
z
" transform="scale(0.015625)"/>
        <path id="DejaVuSans-30" d="M 2034 4250 
Q 1547 4250 1301 3770 
Q 1056 3291 1056 2328 
Q 1056 1369 1301 889 
Q 1547 409 2034 409 
Q 2525 409 2770 889 
Q 3016 1369 3016 2328 
Q 3016 3291 2770 3770 
Q 2525 4250 2034 4250 
z
M 2034 4750 
Q 2819 4750 3233 4129 
Q 3647 3509 3647 2328 
Q 3647 1150 3233 529 
Q 2819 -91 2034 -91 
Q 1250 -91 836 529 
Q 422 1150 422 2328 
Q 422 3509 836 4129 
Q 1250 4750 2034 4750 
z
" transform="scale(0.015625)"/>
        <path id="DejaVuSans-20" transform="scale(0.015625)"/>
        <path id="DejaVuSans-56" d="M 1831 0 
L 50 4666 
L 709 4666 
L 2188 738 
L 3669 4666 
L 4325 4666 
L 2547 0 
L 1831 0 
z
" transform="scale(0.015625)"/>
       </defs>
       <use xlink:href="#DejaVuSans-2212"/>
       <use xlink:href="#DejaVuSans-32" x="83.789062"/>
       <use xlink:href="#DejaVuSans-30" x="147.412109"/>
       <use xlink:href="#DejaVuSans-30" x="211.035156"/>
       <use xlink:href="#DejaVuSans-20" x="274.658203"/>
       <use xlink:href="#DejaVuSans-56" x="306.445312"/>
      </g>
     </g>
    </g>
    <g id="ytick_2">
     <g id="line2d_15">
      <path d="M 100.8 45.027377 
L 987.84 45.027377 
" clip-path="url(#pe5247f9ec2)" style="fill: none; stroke-dasharray: 1.85,0.8; stroke-dashoffset: 0; stroke: #b2b2b2; stroke-width: 0.5"/>
     </g>
     <g id="line2d_16">
      <g>
       <use xlink:href="#m389badb602" x="100.8" y="45.027377" style="stroke: #000000; stroke-width: 0.8"/>
      </g>
     </g>
     <g id="text_2">
      <!-- 0 V -->
      <g transform="translate(74.36625 50.346284) scale(0.14 -0.14)">
       <use xlink:href="#DejaVuSans-30"/>
       <use xlink:href="#DejaVuSans-20" x="63.623047"/>
       <use xlink:href="#DejaVuSans-56" x="95.410156"/>
      </g>
     </g>
    </g>
    <g id="text_3">
     <g id="patch_3">
      <path d="M 34.8768 131.080205 
L 34.8768 39.41083 
L 11.247425 39.41083 
L 11.247425 131.080205 
z
" style="fill: #ffff00; opacity: 0.2; stroke: #eeeeee; stroke-width: 0.5; stroke-linejoin: miter"/>
     </g>
     <!-- VPULSE BBI -->
     <g transform="translate(26.925238 126.040205) rotate(-90) scale(0.14 -0.14)">
      <defs>
       <path id="DejaVuSans-50" d="M 1259 4147 
L 1259 2394 
L 2053 2394 
Q 2494 2394 2734 2622 
Q 2975 2850 2975 3272 
Q 2975 3691 2734 3919 
Q 2494 4147 2053 4147 
L 1259 4147 
z
M 628 4666 
L 2053 4666 
Q 2838 4666 3239 4311 
Q 3641 3956 3641 3272 
Q 3641 2581 3239 2228 
Q 2838 1875 2053 1875 
L 1259 1875 
L 1259 0 
L 628 0 
L 628 4666 
z
" transform="scale(0.015625)"/>
       <path id="DejaVuSans-55" d="M 556 4666 
L 1191 4666 
L 1191 1831 
Q 1191 1081 1462 751 
Q 1734 422 2344 422 
Q 2950 422 3222 751 
Q 3494 1081 3494 1831 
L 3494 4666 
L 4128 4666 
L 4128 1753 
Q 4128 841 3676 375 
Q 3225 -91 2344 -91 
Q 1459 -91 1007 375 
Q 556 841 556 1753 
L 556 4666 
z
" transform="scale(0.015625)"/>
       <path id="DejaVuSans-4c" d="M 628 4666 
L 1259 4666 
L 1259 531 
L 3531 531 
L 3531 0 
L 628 0 
L 628 4666 
z
" transform="scale(0.015625)"/>
       <path id="DejaVuSans-53" d="M 3425 4513 
L 3425 3897 
Q 3066 4069 2747 4153 
Q 2428 4238 2131 4238 
Q 1616 4238 1336 4038 
Q 1056 3838 1056 3469 
Q 1056 3159 1242 3001 
Q 1428 2844 1947 2747 
L 2328 2669 
Q 3034 2534 3370 2195 
Q 3706 1856 3706 1288 
Q 3706 609 3251 259 
Q 2797 -91 1919 -91 
Q 1588 -91 1214 -16 
Q 841 59 441 206 
L 441 856 
Q 825 641 1194 531 
Q 1563 422 1919 422 
Q 2459 422 2753 634 
Q 3047 847 3047 1241 
Q 3047 1584 2836 1778 
Q 2625 1972 2144 2069 
L 1759 2144 
Q 1053 2284 737 2584 
Q 422 2884 422 3419 
Q 422 4038 858 4394 
Q 1294 4750 2059 4750 
Q 2388 4750 2728 4690 
Q 3069 4631 3425 4513 
z
" transform="scale(0.015625)"/>
       <path id="DejaVuSans-45" d="M 628 4666 
L 3578 4666 
L 3578 4134 
L 1259 4134 
L 1259 2753 
L 3481 2753 
L 3481 2222 
L 1259 2222 
L 1259 531 
L 3634 531 
L 3634 0 
L 628 0 
L 628 4666 
z
" transform="scale(0.015625)"/>
       <path id="DejaVuSans-42" d="M 1259 2228 
L 1259 519 
L 2272 519 
Q 2781 519 3026 730 
Q 3272 941 3272 1375 
Q 3272 1813 3026 2020 
Q 2781 2228 2272 2228 
L 1259 2228 
z
M 1259 4147 
L 1259 2741 
L 2194 2741 
Q 2656 2741 2882 2914 
Q 3109 3088 3109 3444 
Q 3109 3797 2882 3972 
Q 2656 4147 2194 4147 
L 1259 4147 
z
M 628 4666 
L 2241 4666 
Q 2963 4666 3353 4366 
Q 3744 4066 3744 3513 
Q 3744 3084 3544 2831 
Q 3344 2578 2956 2516 
Q 3422 2416 3680 2098 
Q 3938 1781 3938 1306 
Q 3938 681 3513 340 
Q 3088 0 2303 0 
L 628 0 
L 628 4666 
z
" transform="scale(0.015625)"/>
       <path id="DejaVuSans-49" d="M 628 4666 
L 1259 4666 
L 1259 0 
L 628 0 
L 628 4666 
z
" transform="scale(0.015625)"/>
      </defs>
      <use xlink:href="#DejaVuSans-56"/>
      <use xlink:href="#DejaVuSans-50" x="68.408203"/>
      <use xlink:href="#DejaVuSans-55" x="128.710938"/>
      <use xlink:href="#DejaVuSans-4c" x="201.904297"/>
      <use xlink:href="#DejaVuSans-53" x="257.617188"/>
      <use xlink:href="#DejaVuSans-45" x="321.09375"/>
      <use xlink:href="#DejaVuSans-20" x="384.277344"/>
      <use xlink:href="#DejaVuSans-42" x="416.064453"/>
      <use xlink:href="#DejaVuSans-42" x="484.667969"/>
      <use xlink:href="#DejaVuSans-49" x="553.271484"/>
     </g>
    </g>
   </g>
   <g id="line2d_17">
    <path d="M 141.12 45.027377 
L 276.627456 45.136282 
L 277.111296 46.425538 
L 285.336576 69.006772 
L 292.755456 89.863624 
L 294.368256 94.440546 
L 296.174592 99.673219 
L 299.65824 110.807642 
L 301.238784 115.853719 
L 302.464512 119.550977 
L 306.367488 121.36362 
L 306.948096 121.619522 
L 307.819008 122.003376 
L 308.464128 122.269941 
L 310.044672 122.936354 
L 310.689792 123.202919 
L 311.786496 123.629423 
L 312.528384 123.922644 
L 313.625088 124.349149 
L 314.528256 124.677024 
L 315.205632 124.943589 
L 316.012032 125.25547 
L 317.366784 125.804594 
L 320.011776 126.790885 
L 320.62464 127.022796 
L 322.56 127.395987 
L 341.042688 127.289361 
L 341.26848 126.801547 
L 359.557632 75.087922 
L 363.299328 63.292417 
L 367.008768 51.617666 
L 371.621376 49.3412 
L 376.975872 46.984578 
L 385.684992 43.484472 
L 386.555904 43.268927 
L 400.845312 43.108189 
L 407.651328 43.184799 
L 423.005184 43.746186 
L 450.7776 44.46146 
L 476.42112 44.774399 
L 512.031744 44.945888 
L 560.060928 44.953885 
L 947.52 44.953885 
L 947.52 44.953885 
" clip-path="url(#pe5247f9ec2)" style="fill: none; stroke: #ff0000; stroke-width: 2; stroke-linecap: square"/>
   </g>
   <g id="patch_4">
    <path d="M 100.8 131.611034 
L 100.8 38.88 
" style="fill: none; stroke: #bcbcbc; stroke-width: 0.8; stroke-linejoin: miter; stroke-linecap: square"/>
   </g>
   <g id="patch_5">
    <path d="M 987.84 131.611034 
L 987.84 38.88 
" style="fill: none; stroke: #bcbcbc; stroke-width: 0.8; stroke-linejoin: miter; stroke-linecap: square"/>
   </g>
   <g id="patch_6">
    <path d="M 100.8 131.611034 
L 987.84 131.611034 
" style="fill: none; stroke: #bcbcbc; stroke-width: 0.8; stroke-linejoin: miter; stroke-linecap: square"/>
   </g>
   <g id="patch_7">
    <path d="M 100.8 38.88 
L 987.84 38.88 
" style="fill: none; stroke: #bcbcbc; stroke-width: 0.8; stroke-linejoin: miter; stroke-linecap: square"/>
   </g>
  </g>
  <g id="axes_2">
   <g id="patch_8">
    <path d="M 100.8 242.888276 
L 987.84 242.888276 
L 987.84 150.157241 
L 100.8 150.157241 
z
" style="fill: #eeeeee"/>
   </g>
   <g id="matplotlib.axis_3">
    <g id="xtick_7">
     <g id="line2d_18">
      <path d="M 141.12 242.888276 
L 141.12 150.157241 
" clip-path="url(#p41c0521619)" style="fill: none; stroke-dasharray: 1.85,0.8; stroke-dashoffset: 0; stroke: #b2b2b2; stroke-width: 0.5"/>
     </g>
     <g id="line2d_19">
      <g>
       <use xlink:href="#m3d7516a159" x="141.12" y="242.888276" style="stroke: #000000; stroke-width: 0.8"/>
      </g>
     </g>
    </g>
    <g id="xtick_8">
     <g id="line2d_20">
      <path d="M 302.4 242.888276 
L 302.4 150.157241 
" clip-path="url(#p41c0521619)" style="fill: none; stroke-dasharray: 1.85,0.8; stroke-dashoffset: 0; stroke: #b2b2b2; stroke-width: 0.5"/>
     </g>
     <g id="line2d_21">
      <g>
       <use xlink:href="#m3d7516a159" x="302.4" y="242.888276" style="stroke: #000000; stroke-width: 0.8"/>
      </g>
     </g>
    </g>
    <g id="xtick_9">
     <g id="line2d_22">
      <path d="M 463.68 242.888276 
L 463.68 150.157241 
" clip-path="url(#p41c0521619)" style="fill: none; stroke-dasharray: 1.85,0.8; stroke-dashoffset: 0; stroke: #b2b2b2; stroke-width: 0.5"/>
     </g>
     <g id="line2d_23">
      <g>
       <use xlink:href="#m3d7516a159" x="463.68" y="242.888276" style="stroke: #000000; stroke-width: 0.8"/>
      </g>
     </g>
    </g>
    <g id="xtick_10">
     <g id="line2d_24">
      <path d="M 624.96 242.888276 
L 624.96 150.157241 
" clip-path="url(#p41c0521619)" style="fill: none; stroke-dasharray: 1.85,0.8; stroke-dashoffset: 0; stroke: #b2b2b2; stroke-width: 0.5"/>
     </g>
     <g id="line2d_25">
      <g>
       <use xlink:href="#m3d7516a159" x="624.96" y="242.888276" style="stroke: #000000; stroke-width: 0.8"/>
      </g>
     </g>
    </g>
    <g id="xtick_11">
     <g id="line2d_26">
      <path d="M 786.24 242.888276 
L 786.24 150.157241 
" clip-path="url(#p41c0521619)" style="fill: none; stroke-dasharray: 1.85,0.8; stroke-dashoffset: 0; stroke: #b2b2b2; stroke-width: 0.5"/>
     </g>
     <g id="line2d_27">
      <g>
       <use xlink:href="#m3d7516a159" x="786.24" y="242.888276" style="stroke: #000000; stroke-width: 0.8"/>
      </g>
     </g>
    </g>
    <g id="xtick_12">
     <g id="line2d_28">
      <path d="M 947.52 242.888276 
L 947.52 150.157241 
" clip-path="url(#p41c0521619)" style="fill: none; stroke-dasharray: 1.85,0.8; stroke-dashoffset: 0; stroke: #b2b2b2; stroke-width: 0.5"/>
     </g>
     <g id="line2d_29">
      <g>
       <use xlink:href="#m3d7516a159" x="947.52" y="242.888276" style="stroke: #000000; stroke-width: 0.8"/>
      </g>
     </g>
    </g>
   </g>
   <g id="matplotlib.axis_4">
    <g id="ytick_3">
     <g id="line2d_30">
      <path d="M 100.8 219.411241 
L 987.84 219.411241 
" clip-path="url(#p41c0521619)" style="fill: none; stroke-dasharray: 1.85,0.8; stroke-dashoffset: 0; stroke: #b2b2b2; stroke-width: 0.5"/>
     </g>
     <g id="line2d_31">
      <g>
       <use xlink:href="#m389badb602" x="100.8" y="219.411241" style="stroke: #000000; stroke-width: 0.8"/>
      </g>
     </g>
     <g id="text_4">
      <!-- 0 V -->
      <g transform="translate(74.36625 224.730147) scale(0.14 -0.14)">
       <use xlink:href="#DejaVuSans-30"/>
       <use xlink:href="#DejaVuSans-20" x="63.623047"/>
       <use xlink:href="#DejaVuSans-56" x="95.410156"/>
      </g>
     </g>
    </g>
    <g id="ytick_4">
     <g id="line2d_32">
      <path d="M 100.8 185.804589 
L 987.84 185.804589 
" clip-path="url(#p41c0521619)" style="fill: none; stroke-dasharray: 1.85,0.8; stroke-dashoffset: 0; stroke: #b2b2b2; stroke-width: 0.5"/>
     </g>
     <g id="line2d_33">
      <g>
       <use xlink:href="#m389badb602" x="100.8" y="185.804589" style="stroke: #000000; stroke-width: 0.8"/>
      </g>
     </g>
     <g id="text_5">
      <!-- 1 V -->
      <g transform="translate(74.36625 191.123496) scale(0.14 -0.14)">
       <defs>
        <path id="DejaVuSans-31" d="M 794 531 
L 1825 531 
L 1825 4091 
L 703 3866 
L 703 4441 
L 1819 4666 
L 2450 4666 
L 2450 531 
L 3481 531 
L 3481 0 
L 794 0 
L 794 531 
z
" transform="scale(0.015625)"/>
       </defs>
       <use xlink:href="#DejaVuSans-31"/>
       <use xlink:href="#DejaVuSans-20" x="63.623047"/>
       <use xlink:href="#DejaVuSans-56" x="95.410156"/>
      </g>
     </g>
    </g>
    <g id="ytick_5">
     <g id="line2d_34">
      <path d="M 100.8 152.197938 
L 987.84 152.197938 
" clip-path="url(#p41c0521619)" style="fill: none; stroke-dasharray: 1.85,0.8; stroke-dashoffset: 0; stroke: #b2b2b2; stroke-width: 0.5"/>
     </g>
     <g id="line2d_35">
      <g>
       <use xlink:href="#m389badb602" x="100.8" y="152.197938" style="stroke: #000000; stroke-width: 0.8"/>
      </g>
     </g>
     <g id="text_6">
      <!-- 2 V -->
      <g transform="translate(74.36625 157.516844) scale(0.14 -0.14)">
       <use xlink:href="#DejaVuSans-32"/>
       <use xlink:href="#DejaVuSans-20" x="63.623047"/>
       <use xlink:href="#DejaVuSans-56" x="95.410156"/>
      </g>
     </g>
    </g>
    <g id="text_7">
     <g id="patch_9">
      <path d="M 34.8768 224.531509 
L 34.8768 168.514009 
L 11.247425 168.514009 
L 11.247425 224.531509 
z
" style="fill: #ffff00; opacity: 0.2; stroke: #eeeeee; stroke-width: 0.5; stroke-linejoin: miter"/>
     </g>
     <!-- DFF IN -->
     <g transform="translate(26.925238 219.491509) rotate(-90) scale(0.14 -0.14)">
      <defs>
       <path id="DejaVuSans-44" d="M 1259 4147 
L 1259 519 
L 2022 519 
Q 2988 519 3436 956 
Q 3884 1394 3884 2338 
Q 3884 3275 3436 3711 
Q 2988 4147 2022 4147 
L 1259 4147 
z
M 628 4666 
L 1925 4666 
Q 3281 4666 3915 4102 
Q 4550 3538 4550 2338 
Q 4550 1131 3912 565 
Q 3275 0 1925 0 
L 628 0 
L 628 4666 
z
" transform="scale(0.015625)"/>
       <path id="DejaVuSans-46" d="M 628 4666 
L 3309 4666 
L 3309 4134 
L 1259 4134 
L 1259 2759 
L 3109 2759 
L 3109 2228 
L 1259 2228 
L 1259 0 
L 628 0 
L 628 4666 
z
" transform="scale(0.015625)"/>
       <path id="DejaVuSans-4e" d="M 628 4666 
L 1478 4666 
L 3547 763 
L 3547 4666 
L 4159 4666 
L 4159 0 
L 3309 0 
L 1241 3903 
L 1241 0 
L 628 0 
L 628 4666 
z
" transform="scale(0.015625)"/>
      </defs>
      <use xlink:href="#DejaVuSans-44"/>
      <use xlink:href="#DejaVuSans-46" x="77.001953"/>
      <use xlink:href="#DejaVuSans-46" x="134.521484"/>
      <use xlink:href="#DejaVuSans-20" x="192.041016"/>
      <use xlink:href="#DejaVuSans-49" x="223.828125"/>
      <use xlink:href="#DejaVuSans-4e" x="253.320312"/>
     </g>
    </g>
   </g>
   <g id="line2d_36">
    <path d="M 141.12 219.362161 
L 221.953536 219.316077 
L 224.437248 200.590844 
L 225.404928 194.894516 
L 228.243456 182.36999 
L 229.598208 181.113101 
L 231.178752 180.24941 
L 236.565504 179.799081 
L 243.661824 179.688179 
L 245.1456 179.64449 
L 248.403456 179.533588 
L 250.113024 179.466375 
L 252.177408 179.355473 
L 254.241792 179.029488 
L 254.757888 178.498503 
L 255.499776 178.162437 
L 256.370688 178.182601 
L 257.499648 178.411126 
L 259.789824 178.777439 
L 262.40256 178.93875 
L 263.886336 179.002603 
L 264.144384 184.184749 
L 264.434688 187.711431 
L 265.176576 192.409641 
L 267.24096 210.443306 
L 267.950592 214.520801 
L 268.5312 216.517674 
L 269.079552 217.67781 
L 269.66016 218.407948 
L 270.30528 218.859285 
L 271.11168 219.137887 
L 272.305152 219.294814 
L 274.885632 219.357675 
L 276.691968 219.453669 
L 278.111232 220.810319 
L 280.014336 221.777115 
L 281.27232 222.02073 
L 283.20768 222.14531 
L 284.852736 222.306084 
L 285.691392 222.737392 
L 288.20736 223.99754 
L 289.755648 224.895846 
L 291.142656 225.745422 
L 291.9168 225.933956 
L 292.529664 225.842545 
L 293.078016 225.513536 
L 294.336 224.435099 
L 294.561792 224.689501 
L 294.948864 225.378774 
L 295.529472 226.188358 
L 295.852032 226.577859 
L 296.11008 227.215377 
L 296.819712 228.900079 
L 298.04544 231.184995 
L 298.303488 231.552988 
L 299.1744 233.35464 
L 299.367936 233.655084 
L 299.81952 234.311422 
L 300.238848 235.215104 
L 300.593664 235.812295 
L 302.432256 238.672557 
L 302.690304 238.572073 
L 303.625728 237.39584 
L 304.141824 236.421919 
L 306.238464 234.010978 
L 307.302912 233.132836 
L 307.657728 232.715106 
L 308.141568 231.969374 
L 308.464128 231.726062 
L 308.496384 231.765382 
L 308.625408 231.693127 
L 308.8512 231.515348 
L 309.399552 231.231036 
L 310.464 230.238295 
L 310.722048 229.885426 
L 313.431552 227.58169 
L 313.754112 227.061795 
L 314.108928 226.888384 
L 314.270208 226.884016 
L 314.463744 226.832597 
L 314.915328 226.563072 
L 316.947456 224.808469 
L 317.205504 224.582968 
L 319.947264 222.713161 
L 320.560128 222.187923 
L 321.656832 221.34164 
L 322.334208 220.657207 
L 323.076096 219.728961 
L 324.269568 218.076116 
L 324.9792 217.077259 
L 325.559808 216.267876 
L 327.23712 214.053668 
L 328.882176 212.059786 
L 331.075584 209.955337 
L 331.720704 209.702615 
L 332.462592 209.642123 
L 333.139968 209.762771 
L 333.914112 210.120346 
L 334.688256 210.709134 
L 335.204352 211.220628 
L 337.300992 213.859422 
L 338.978304 215.812304 
L 339.945984 216.678583 
L 341.074944 217.340533 
L 341.26848 217.214038 
L 342.139392 216.446529 
L 343.397376 216.021338 
L 344.65536 215.769624 
L 346.139136 215.740386 
L 347.751936 215.876493 
L 348.20352 211.929728 
L 351.493632 184.54434 
L 352.55808 176.989565 
L 353.170944 174.028819 
L 353.816064 171.867911 
L 354.557952 170.170775 
L 355.29984 168.940772 
L 357.912576 165.586828 
L 366.976512 154.389092 
L 367.782912 154.842782 
L 368.460288 155.074667 
L 369.234432 155.212455 
L 369.65376 155.276307 
L 371.782656 155.830817 
L 375.040512 156.963361 
L 375.234048 157.904347 
L 375.653376 160.64329 
L 376.008192 162.21272 
L 376.330752 162.780673 
L 376.653312 162.945345 
L 377.008128 162.810919 
L 377.362944 162.468131 
L 379.008 160.582798 
L 379.782144 160.149272 
L 380.45952 159.981238 
L 381.685248 159.961075 
L 383.394816 160.250092 
L 387.265536 161.164193 
L 396.58752 164.931498 
L 397.200384 165.170105 
L 398.84544 165.79855 
L 400.587264 166.410191 
L 401.393664 166.682405 
L 402.103296 166.927733 
L 403.425792 167.361259 
L 413.425152 170.372415 
L 415.45728 170.695039 
L 415.876608 170.187578 
L 416.26368 170.002742 
L 416.812032 170.046431 
L 417.521664 170.379136 
L 419.231232 171.326844 
L 420.231168 171.753648 
L 421.521408 172.177092 
L 431.327232 174.112835 
L 432.06912 174.220377 
L 432.71424 174.314475 
L 433.423872 174.422017 
L 435.004416 174.64046 
L 435.77856 174.751362 
L 437.23008 174.94292 
L 438.133248 175.053822 
L 439.391232 175.205052 
L 440.229888 175.315953 
L 441.294336 175.426855 
L 453.100032 176.549318 
L 453.712896 176.596367 
L 454.228992 176.643416 
L 455.809536 176.912269 
L 456.325632 177.533992 
L 456.809472 177.796124 
L 457.906176 177.920469 
L 460.357632 177.265139 
L 460.873728 177.208008 
L 462.196224 177.181123 
L 463.68 177.224811 
L 465.970176 177.335713 
L 467.970048 177.436533 
L 468.744192 177.460058 
L 469.228032 177.500386 
L 469.96992 177.533992 
L 471.90528 177.62473 
L 472.647168 177.658337 
L 474.550272 177.745714 
L 475.29216 177.77596 
L 476.969472 177.839813 
L 479.549952 177.947354 
L 480.162816 177.964158 
L 480.969216 177.991043 
L 482.678784 178.061617 
L 483.485184 178.07842 
L 483.936768 178.105306 
L 484.775424 178.12883 
L 488.388096 178.239732 
L 489.871872 178.283421 
L 490.839552 178.293503 
L 492.581376 178.364077 
L 496.129536 178.266617 
L 496.710144 177.712108 
L 497.193984 177.527271 
L 497.87136 177.493664 
L 498.83904 177.705386 
L 502.354944 178.327109 
L 505.225728 178.515307 
L 509.999616 178.626209 
L 510.547968 178.629569 
L 536.352768 178.716947 
L 537.288192 179.54367 
L 537.933312 179.704982 
L 540.12672 179.59408 
L 541.804032 179.308424 
L 543.094272 179.150472 
L 547.287552 178.824488 
L 576.672768 178.723668 
L 577.285632 178.061617 
L 577.737216 177.866698 
L 578.285568 177.755796 
L 579.124224 177.863338 
L 582.446592 178.444733 
L 585.478656 178.649733 
L 617.025024 178.753914 
L 617.7024 179.436129 
L 618.250752 179.664654 
L 619.992576 179.735228 
L 621.540864 179.523506 
L 630.28224 178.723668 
L 657.37728 178.629569 
L 657.893376 178.108666 
L 658.538496 177.82637 
L 659.6352 177.816288 
L 663.602688 178.53211 
L 665.312256 178.599323 
L 697.600512 178.706865 
L 697.761792 178.88498 
L 698.245632 179.365555 
L 698.697216 179.600802 
L 699.439104 179.721785 
L 701.535744 179.614244 
L 703.374336 179.34203 
L 710.373888 178.723668 
L 738.01728 178.629569 
L 738.533376 178.108666 
L 739.178496 177.82637 
L 740.2752 177.816288 
L 744.242688 178.53211 
L 745.952256 178.599323 
L 778.240512 178.706865 
L 778.401792 178.88498 
L 778.917888 179.399162 
L 779.30496 179.580638 
L 779.917824 179.718425 
L 782.304768 179.607523 
L 784.078848 179.311784 
L 785.369088 179.153833 
L 789.917184 178.790881 
L 818.592768 178.720307 
L 819.14112 178.112027 
L 819.689472 177.839813 
L 821.624832 177.947354 
L 824.882688 178.515307 
L 827.04384 178.629569 
L 858.912768 178.720307 
L 859.848192 179.553752 
L 860.75136 179.725146 
L 862.815744 179.614244 
L 864.654336 179.34203 
L 871.653888 178.723668 
L 899.29728 178.629569 
L 899.813376 178.108666 
L 900.458496 177.82301 
L 901.5552 177.816288 
L 905.458176 178.518667 
L 907.329024 178.602684 
L 939.520512 178.706865 
L 939.681792 178.888341 
L 940.165632 179.365555 
L 940.778496 179.620965 
L 941.649408 179.778917 
L 946.06848 179.207604 
L 947.52 178.952193 
L 947.52 178.952193 
" clip-path="url(#p41c0521619)" style="fill: none; stroke: #008000; stroke-width: 2; stroke-linecap: square"/>
   </g>
   <g id="patch_10">
    <path d="M 100.8 242.888276 
L 100.8 150.157241 
" style="fill: none; stroke: #bcbcbc; stroke-width: 0.8; stroke-linejoin: miter; stroke-linecap: square"/>
   </g>
   <g id="patch_11">
    <path d="M 987.84 242.888276 
L 987.84 150.157241 
" style="fill: none; stroke: #bcbcbc; stroke-width: 0.8; stroke-linejoin: miter; stroke-linecap: square"/>
   </g>
   <g id="patch_12">
    <path d="M 100.8 242.888276 
L 987.84 242.888276 
" style="fill: none; stroke: #bcbcbc; stroke-width: 0.8; stroke-linejoin: miter; stroke-linecap: square"/>
   </g>
   <g id="patch_13">
    <path d="M 100.8 150.157241 
L 987.84 150.157241 
" style="fill: none; stroke: #bcbcbc; stroke-width: 0.8; stroke-linejoin: miter; stroke-linecap: square"/>
   </g>
  </g>
  <g id="axes_3">
   <g id="patch_14">
    <path d="M 100.8 354.165517 
L 987.84 354.165517 
L 987.84 261.434483 
L 100.8 261.434483 
z
" style="fill: #eeeeee"/>
   </g>
   <g id="matplotlib.axis_5">
    <g id="xtick_13">
     <g id="line2d_37">
      <path d="M 141.12 354.165517 
L 141.12 261.434483 
" clip-path="url(#pb971ff5c4e)" style="fill: none; stroke-dasharray: 1.85,0.8; stroke-dashoffset: 0; stroke: #b2b2b2; stroke-width: 0.5"/>
     </g>
     <g id="line2d_38">
      <g>
       <use xlink:href="#m3d7516a159" x="141.12" y="354.165517" style="stroke: #000000; stroke-width: 0.8"/>
      </g>
     </g>
    </g>
    <g id="xtick_14">
     <g id="line2d_39">
      <path d="M 302.4 354.165517 
L 302.4 261.434483 
" clip-path="url(#pb971ff5c4e)" style="fill: none; stroke-dasharray: 1.85,0.8; stroke-dashoffset: 0; stroke: #b2b2b2; stroke-width: 0.5"/>
     </g>
     <g id="line2d_40">
      <g>
       <use xlink:href="#m3d7516a159" x="302.4" y="354.165517" style="stroke: #000000; stroke-width: 0.8"/>
      </g>
     </g>
    </g>
    <g id="xtick_15">
     <g id="line2d_41">
      <path d="M 463.68 354.165517 
L 463.68 261.434483 
" clip-path="url(#pb971ff5c4e)" style="fill: none; stroke-dasharray: 1.85,0.8; stroke-dashoffset: 0; stroke: #b2b2b2; stroke-width: 0.5"/>
     </g>
     <g id="line2d_42">
      <g>
       <use xlink:href="#m3d7516a159" x="463.68" y="354.165517" style="stroke: #000000; stroke-width: 0.8"/>
      </g>
     </g>
    </g>
    <g id="xtick_16">
     <g id="line2d_43">
      <path d="M 624.96 354.165517 
L 624.96 261.434483 
" clip-path="url(#pb971ff5c4e)" style="fill: none; stroke-dasharray: 1.85,0.8; stroke-dashoffset: 0; stroke: #b2b2b2; stroke-width: 0.5"/>
     </g>
     <g id="line2d_44">
      <g>
       <use xlink:href="#m3d7516a159" x="624.96" y="354.165517" style="stroke: #000000; stroke-width: 0.8"/>
      </g>
     </g>
    </g>
    <g id="xtick_17">
     <g id="line2d_45">
      <path d="M 786.24 354.165517 
L 786.24 261.434483 
" clip-path="url(#pb971ff5c4e)" style="fill: none; stroke-dasharray: 1.85,0.8; stroke-dashoffset: 0; stroke: #b2b2b2; stroke-width: 0.5"/>
     </g>
     <g id="line2d_46">
      <g>
       <use xlink:href="#m3d7516a159" x="786.24" y="354.165517" style="stroke: #000000; stroke-width: 0.8"/>
      </g>
     </g>
    </g>
    <g id="xtick_18">
     <g id="line2d_47">
      <path d="M 947.52 354.165517 
L 947.52 261.434483 
" clip-path="url(#pb971ff5c4e)" style="fill: none; stroke-dasharray: 1.85,0.8; stroke-dashoffset: 0; stroke: #b2b2b2; stroke-width: 0.5"/>
     </g>
     <g id="line2d_48">
      <g>
       <use xlink:href="#m3d7516a159" x="947.52" y="354.165517" style="stroke: #000000; stroke-width: 0.8"/>
      </g>
     </g>
    </g>
   </g>
   <g id="matplotlib.axis_6">
    <g id="ytick_6">
     <g id="line2d_49">
      <path d="M 100.8 344.726284 
L 987.84 344.726284 
" clip-path="url(#pb971ff5c4e)" style="fill: none; stroke-dasharray: 1.85,0.8; stroke-dashoffset: 0; stroke: #b2b2b2; stroke-width: 0.5"/>
     </g>
     <g id="line2d_50">
      <g>
       <use xlink:href="#m389badb602" x="100.8" y="344.726284" style="stroke: #000000; stroke-width: 0.8"/>
      </g>
     </g>
     <g id="text_8">
      <!-- 0 V -->
      <g transform="translate(74.36625 350.04519) scale(0.14 -0.14)">
       <use xlink:href="#DejaVuSans-30"/>
       <use xlink:href="#DejaVuSans-20" x="63.623047"/>
       <use xlink:href="#DejaVuSans-56" x="95.410156"/>
      </g>
     </g>
    </g>
    <g id="ytick_7">
     <g id="line2d_51">
      <path d="M 100.8 303.694344 
L 987.84 303.694344 
" clip-path="url(#pb971ff5c4e)" style="fill: none; stroke-dasharray: 1.85,0.8; stroke-dashoffset: 0; stroke: #b2b2b2; stroke-width: 0.5"/>
     </g>
     <g id="line2d_52">
      <g>
       <use xlink:href="#m389badb602" x="100.8" y="303.694344" style="stroke: #000000; stroke-width: 0.8"/>
      </g>
     </g>
     <g id="text_9">
      <!-- 1 V -->
      <g transform="translate(74.36625 309.01325) scale(0.14 -0.14)">
       <use xlink:href="#DejaVuSans-31"/>
       <use xlink:href="#DejaVuSans-20" x="63.623047"/>
       <use xlink:href="#DejaVuSans-56" x="95.410156"/>
      </g>
     </g>
    </g>
    <g id="ytick_8">
     <g id="line2d_53">
      <path d="M 100.8 262.662405 
L 987.84 262.662405 
" clip-path="url(#pb971ff5c4e)" style="fill: none; stroke-dasharray: 1.85,0.8; stroke-dashoffset: 0; stroke: #b2b2b2; stroke-width: 0.5"/>
     </g>
     <g id="line2d_54">
      <g>
       <use xlink:href="#m389badb602" x="100.8" y="262.662405" style="stroke: #000000; stroke-width: 0.8"/>
      </g>
     </g>
     <g id="text_10">
      <!-- 2 V -->
      <g transform="translate(74.36625 267.981311) scale(0.14 -0.14)">
       <use xlink:href="#DejaVuSans-32"/>
       <use xlink:href="#DejaVuSans-20" x="63.623047"/>
       <use xlink:href="#DejaVuSans-56" x="95.410156"/>
      </g>
     </g>
    </g>
    <g id="text_11">
     <g id="patch_15">
      <path d="M 34.8768 342.395313 
L 34.8768 273.204688 
L 11.247425 273.204688 
L 11.247425 342.395313 
z
" style="fill: #ffff00; opacity: 0.2; stroke: #eeeeee; stroke-width: 0.5; stroke-linejoin: miter"/>
     </g>
     <!-- CLK BUF -->
     <g transform="translate(26.925238 337.355313) rotate(-90) scale(0.14 -0.14)">
      <defs>
       <path id="DejaVuSans-43" d="M 4122 4306 
L 4122 3641 
Q 3803 3938 3442 4084 
Q 3081 4231 2675 4231 
Q 1875 4231 1450 3742 
Q 1025 3253 1025 2328 
Q 1025 1406 1450 917 
Q 1875 428 2675 428 
Q 3081 428 3442 575 
Q 3803 722 4122 1019 
L 4122 359 
Q 3791 134 3420 21 
Q 3050 -91 2638 -91 
Q 1578 -91 968 557 
Q 359 1206 359 2328 
Q 359 3453 968 4101 
Q 1578 4750 2638 4750 
Q 3056 4750 3426 4639 
Q 3797 4528 4122 4306 
z
" transform="scale(0.015625)"/>
       <path id="DejaVuSans-4b" d="M 628 4666 
L 1259 4666 
L 1259 2694 
L 3353 4666 
L 4166 4666 
L 1850 2491 
L 4331 0 
L 3500 0 
L 1259 2247 
L 1259 0 
L 628 0 
L 628 4666 
z
" transform="scale(0.015625)"/>
      </defs>
      <use xlink:href="#DejaVuSans-43"/>
      <use xlink:href="#DejaVuSans-4c" x="69.824219"/>
      <use xlink:href="#DejaVuSans-4b" x="125.537109"/>
      <use xlink:href="#DejaVuSans-20" x="191.113281"/>
      <use xlink:href="#DejaVuSans-42" x="222.900391"/>
      <use xlink:href="#DejaVuSans-55" x="291.503906"/>
      <use xlink:href="#DejaVuSans-46" x="364.697266"/>
     </g>
    </g>
   </g>
   <g id="line2d_55">
    <path d="M 141.12 344.725199 
L 173.376 344.725199 
L 173.601792 295.487956 
L 213.696 295.487956 
L 213.760512 334.763318 
L 213.825024 344.707538 
L 213.889536 344.648491 
L 213.954048 344.81241 
L 214.01856 344.73073 
L 215.437824 344.720894 
L 223.85664 344.725122 
L 254.016 344.72517 
L 254.17728 295.336138 
L 254.241792 295.598742 
L 254.403072 295.47975 
L 254.854656 295.487956 
L 276.691968 295.594639 
L 278.337024 297.863706 
L 280.014336 300.625155 
L 286.91712 311.827285 
L 290.46528 316.955867 
L 294.01344 321.64869 
L 294.336 322.032339 
L 294.400512 320.587604 
L 294.432768 320.964687 
L 294.755328 345.906116 
L 296.819712 346.705664 
L 302.496768 349.881947 
L 303.52896 349.404745 
L 306.786816 348.279321 
L 312.915456 346.476009 
L 314.592768 346.033397 
L 317.979648 345.29831 
L 323.559936 344.339837 
L 324.01152 344.28757 
L 324.882432 344.230823 
L 328.011264 344.189011 
L 328.720896 344.194099 
L 334.656 344.266357 
L 334.688256 341.757705 
L 334.81728 314.111943 
L 334.97856 313.931813 
L 338.36544 312.248273 
L 341.203968 310.817079 
L 342.623232 308.261199 
L 345.171456 302.959872 
L 348.235776 296.595819 
L 348.913152 295.270487 
L 351.171072 290.921101 
L 356.719104 281.266286 
L 357.71904 279.682453 
L 359.49312 276.962036 
L 366.944256 265.768522 
L 368.395776 265.686459 
L 370.847232 266.42093 
L 372.363264 267.069235 
L 374.266368 267.906286 
L 374.685696 268.095033 
L 374.976 268.209923 
L 375.13728 345.056857 
L 375.169536 345.198356 
L 375.234048 345.103531 
L 375.556608 345.099276 
L 387.942912 345.175542 
L 390.2976 345.196551 
L 409.909248 345.035611 
L 414.360576 344.998633 
L 415.296 344.990341 
L 415.425024 285.234075 
L 415.521792 285.36948 
L 415.650816 285.56233 
L 416.070144 285.669013 
L 417.586176 286.136777 
L 418.005504 286.24346 
L 418.973184 286.506065 
L 419.360256 286.612748 
L 420.327936 286.875352 
L 420.715008 286.982035 
L 421.58592 287.203608 
L 421.972992 287.310291 
L 422.747136 287.490831 
L 423.134208 287.597514 
L 423.908352 287.778055 
L 424.392192 287.884738 
L 425.166336 288.065278 
L 425.650176 288.171961 
L 426.42432 288.352502 
L 426.90816 288.459185 
L 427.55328 288.598694 
L 428.069376 288.705377 
L 428.714496 288.844885 
L 429.230592 288.951568 
L 429.875712 289.091077 
L 430.391808 289.19776 
L 430.94016 289.296237 
L 431.456256 289.40292 
L 432.004608 289.501396 
L 432.617472 289.608079 
L 433.165824 289.706556 
L 433.68192 289.813239 
L 434.230272 289.911716 
L 434.843136 290.018399 
L 435.391488 290.116875 
L 436.10112 290.219455 
L 436.455936 290.281003 
L 437.0688 290.383583 
L 437.423616 290.445131 
L 438.133248 290.547711 
L 438.488064 290.609259 
L 439.197696 290.711838 
L 439.552512 290.773386 
L 440.262144 290.875966 
L 440.61696 290.937514 
L 441.42336 291.040094 
L 441.778176 291.101642 
L 442.681344 291.204222 
L 443.03616 291.26577 
L 443.84256 291.368349 
L 444.100608 291.388865 
L 444.81024 291.491445 
L 445.068288 291.511961 
L 445.874688 291.614541 
L 446.229504 291.671986 
L 451.971072 292.291568 
L 452.938752 292.394148 
L 453.1968 292.414664 
L 454.196736 292.517244 
L 454.454784 292.53776 
L 455.551488 292.64034 
L 455.616 292.660856 
L 455.648256 298.21658 
L 455.77728 344.814297 
L 456.035328 344.802439 
L 495.936 344.746968 
L 496.032768 294.691937 
L 496.161792 294.708349 
L 500.645376 294.815032 
L 500.903424 294.831445 
L 506.935296 294.938128 
L 507.193344 294.954541 
L 514.870272 295.061224 
L 515.12832 295.077637 
L 536.256 295.077637 
L 536.385024 345.039595 
L 536.546304 344.801007 
L 536.804352 344.709541 
L 537.159168 344.754178 
L 537.481728 344.736734 
L 576.576 344.73695 
L 576.705024 294.909406 
L 576.769536 295.08174 
L 576.89856 295.077637 
L 616.896 295.077637 
L 617.025024 344.870626 
L 617.186304 344.78951 
L 617.37984 344.698361 
L 617.670144 344.772953 
L 617.928192 344.737138 
L 634.95936 344.737264 
L 657.216 344.736947 
L 657.37728 294.995573 
L 657.441792 295.09405 
L 658.441728 295.077637 
L 697.536 295.077637 
L 697.826304 345.334418 
L 697.955328 344.717108 
L 698.116608 344.722717 
L 698.66496 344.737171 
L 737.856 344.73695 
L 738.01728 294.995573 
L 738.081792 295.09405 
L 739.081728 295.077637 
L 778.176 295.077637 
L 778.305024 345.039587 
L 778.466304 344.801007 
L 778.724352 344.709542 
L 779.079168 344.754178 
L 779.401728 344.736734 
L 818.496 344.73695 
L 818.65728 294.864271 
L 818.721792 295.327932 
L 818.81856 294.909406 
L 818.883072 295.061224 
L 819.366912 295.077637 
L 858.816 295.077637 
L 859.106304 345.334336 
L 859.235328 344.717111 
L 859.396608 344.72272 
L 859.94496 344.737171 
L 899.136 344.73695 
L 899.29728 294.995573 
L 899.361792 295.09405 
L 900.361728 295.077637 
L 939.456 295.077637 
L 939.488256 302.475696 
L 939.61728 344.768596 
L 939.649536 345.440363 
L 939.714048 344.732529 
L 939.746304 344.658971 
L 939.810816 344.708194 
L 940.036608 344.744899 
L 940.713984 344.736294 
L 947.52 344.734638 
L 947.52 344.734638 
" clip-path="url(#pb971ff5c4e)" style="fill: none; stroke: #0000ff; stroke-width: 2; stroke-linecap: square"/>
   </g>
   <g id="patch_16">
    <path d="M 100.8 354.165517 
L 100.8 261.434483 
" style="fill: none; stroke: #bcbcbc; stroke-width: 0.8; stroke-linejoin: miter; stroke-linecap: square"/>
   </g>
   <g id="patch_17">
    <path d="M 987.84 354.165517 
L 987.84 261.434483 
" style="fill: none; stroke: #bcbcbc; stroke-width: 0.8; stroke-linejoin: miter; stroke-linecap: square"/>
   </g>
   <g id="patch_18">
    <path d="M 100.8 354.165517 
L 987.84 354.165517 
" style="fill: none; stroke: #bcbcbc; stroke-width: 0.8; stroke-linejoin: miter; stroke-linecap: square"/>
   </g>
   <g id="patch_19">
    <path d="M 100.8 261.434483 
L 987.84 261.434483 
" style="fill: none; stroke: #bcbcbc; stroke-width: 0.8; stroke-linejoin: miter; stroke-linecap: square"/>
   </g>
  </g>
  <g id="axes_4">
   <g id="patch_20">
    <path d="M 100.8 465.442759 
L 987.84 465.442759 
L 987.84 372.711724 
L 100.8 372.711724 
z
" style="fill: #eeeeee"/>
   </g>
   <g id="matplotlib.axis_7">
    <g id="xtick_19">
     <g id="line2d_56">
      <path d="M 141.12 465.442759 
L 141.12 372.711724 
" clip-path="url(#p976cc72699)" style="fill: none; stroke-dasharray: 1.85,0.8; stroke-dashoffset: 0; stroke: #b2b2b2; stroke-width: 0.5"/>
     </g>
     <g id="line2d_57">
      <g>
       <use xlink:href="#m3d7516a159" x="141.12" y="465.442759" style="stroke: #000000; stroke-width: 0.8"/>
      </g>
     </g>
    </g>
    <g id="xtick_20">
     <g id="line2d_58">
      <path d="M 302.4 465.442759 
L 302.4 372.711724 
" clip-path="url(#p976cc72699)" style="fill: none; stroke-dasharray: 1.85,0.8; stroke-dashoffset: 0; stroke: #b2b2b2; stroke-width: 0.5"/>
     </g>
     <g id="line2d_59">
      <g>
       <use xlink:href="#m3d7516a159" x="302.4" y="465.442759" style="stroke: #000000; stroke-width: 0.8"/>
      </g>
     </g>
    </g>
    <g id="xtick_21">
     <g id="line2d_60">
      <path d="M 463.68 465.442759 
L 463.68 372.711724 
" clip-path="url(#p976cc72699)" style="fill: none; stroke-dasharray: 1.85,0.8; stroke-dashoffset: 0; stroke: #b2b2b2; stroke-width: 0.5"/>
     </g>
     <g id="line2d_61">
      <g>
       <use xlink:href="#m3d7516a159" x="463.68" y="465.442759" style="stroke: #000000; stroke-width: 0.8"/>
      </g>
     </g>
    </g>
    <g id="xtick_22">
     <g id="line2d_62">
      <path d="M 624.96 465.442759 
L 624.96 372.711724 
" clip-path="url(#p976cc72699)" style="fill: none; stroke-dasharray: 1.85,0.8; stroke-dashoffset: 0; stroke: #b2b2b2; stroke-width: 0.5"/>
     </g>
     <g id="line2d_63">
      <g>
       <use xlink:href="#m3d7516a159" x="624.96" y="465.442759" style="stroke: #000000; stroke-width: 0.8"/>
      </g>
     </g>
    </g>
    <g id="xtick_23">
     <g id="line2d_64">
      <path d="M 786.24 465.442759 
L 786.24 372.711724 
" clip-path="url(#p976cc72699)" style="fill: none; stroke-dasharray: 1.85,0.8; stroke-dashoffset: 0; stroke: #b2b2b2; stroke-width: 0.5"/>
     </g>
     <g id="line2d_65">
      <g>
       <use xlink:href="#m3d7516a159" x="786.24" y="465.442759" style="stroke: #000000; stroke-width: 0.8"/>
      </g>
     </g>
    </g>
    <g id="xtick_24">
     <g id="line2d_66">
      <path d="M 947.52 465.442759 
L 947.52 372.711724 
" clip-path="url(#p976cc72699)" style="fill: none; stroke-dasharray: 1.85,0.8; stroke-dashoffset: 0; stroke: #b2b2b2; stroke-width: 0.5"/>
     </g>
     <g id="line2d_67">
      <g>
       <use xlink:href="#m3d7516a159" x="947.52" y="465.442759" style="stroke: #000000; stroke-width: 0.8"/>
      </g>
     </g>
    </g>
   </g>
   <g id="matplotlib.axis_8">
    <g id="ytick_9">
     <g id="line2d_68">
      <path d="M 100.8 437.300725 
L 987.84 437.300725 
" clip-path="url(#p976cc72699)" style="fill: none; stroke-dasharray: 1.85,0.8; stroke-dashoffset: 0; stroke: #b2b2b2; stroke-width: 0.5"/>
     </g>
     <g id="line2d_69">
      <g>
       <use xlink:href="#m389badb602" x="100.8" y="437.300725" style="stroke: #000000; stroke-width: 0.8"/>
      </g>
     </g>
     <g id="text_12">
      <!-- 0 V -->
      <g transform="translate(74.36625 442.619631) scale(0.14 -0.14)">
       <use xlink:href="#DejaVuSans-30"/>
       <use xlink:href="#DejaVuSans-20" x="63.623047"/>
       <use xlink:href="#DejaVuSans-56" x="95.410156"/>
      </g>
     </g>
    </g>
    <g id="ytick_10">
     <g id="line2d_70">
      <path d="M 100.8 395.222419 
L 987.84 395.222419 
" clip-path="url(#p976cc72699)" style="fill: none; stroke-dasharray: 1.85,0.8; stroke-dashoffset: 0; stroke: #b2b2b2; stroke-width: 0.5"/>
     </g>
     <g id="line2d_71">
      <g>
       <use xlink:href="#m389badb602" x="100.8" y="395.222419" style="stroke: #000000; stroke-width: 0.8"/>
      </g>
     </g>
     <g id="text_13">
      <!-- 1 V -->
      <g transform="translate(74.36625 400.541325) scale(0.14 -0.14)">
       <use xlink:href="#DejaVuSans-31"/>
       <use xlink:href="#DejaVuSans-20" x="63.623047"/>
       <use xlink:href="#DejaVuSans-56" x="95.410156"/>
      </g>
     </g>
    </g>
    <g id="text_14">
     <g id="patch_21">
      <path d="M 34.8768 454.693023 
L 34.8768 383.46146 
L 11.247425 383.46146 
L 11.247425 454.693023 
z
" style="fill: #ffff00; opacity: 0.2; stroke: #eeeeee; stroke-width: 0.5; stroke-linejoin: miter"/>
     </g>
     <!-- DFF OUT -->
     <g transform="translate(26.925238 449.653023) rotate(-90) scale(0.14 -0.14)">
      <defs>
       <path id="DejaVuSans-4f" d="M 2522 4238 
Q 1834 4238 1429 3725 
Q 1025 3213 1025 2328 
Q 1025 1447 1429 934 
Q 1834 422 2522 422 
Q 3209 422 3611 934 
Q 4013 1447 4013 2328 
Q 4013 3213 3611 3725 
Q 3209 4238 2522 4238 
z
M 2522 4750 
Q 3503 4750 4090 4092 
Q 4678 3434 4678 2328 
Q 4678 1225 4090 567 
Q 3503 -91 2522 -91 
Q 1538 -91 948 565 
Q 359 1222 359 2328 
Q 359 3434 948 4092 
Q 1538 4750 2522 4750 
z
" transform="scale(0.015625)"/>
       <path id="DejaVuSans-54" d="M -19 4666 
L 3928 4666 
L 3928 4134 
L 2272 4134 
L 2272 0 
L 1638 0 
L 1638 4134 
L -19 4134 
L -19 4666 
z
" transform="scale(0.015625)"/>
      </defs>
      <use xlink:href="#DejaVuSans-44"/>
      <use xlink:href="#DejaVuSans-46" x="77.001953"/>
      <use xlink:href="#DejaVuSans-46" x="134.521484"/>
      <use xlink:href="#DejaVuSans-20" x="192.041016"/>
      <use xlink:href="#DejaVuSans-4f" x="223.828125"/>
      <use xlink:href="#DejaVuSans-55" x="302.539062"/>
      <use xlink:href="#DejaVuSans-54" x="375.732422"/>
     </g>
    </g>
   </g>
   <g id="line2d_72">
    <path d="M 141.12 405.55138 
L 173.408256 405.602716 
L 173.440512 407.344758 
L 173.601792 437.303293 
L 174.085632 437.298032 
L 183.794688 437.299608 
L 254.048256 437.301366 
L 254.080512 437.469576 
L 254.112768 437.191334 
L 254.306304 433.083216 
L 254.596608 432.259743 
L 254.693376 431.67233 
L 255.14496 424.300211 
L 255.370752 406.973206 
L 255.596544 387.214917 
L 255.757824 386.869875 
L 255.983616 386.80255 
L 256.854528 386.806757 
L 276.691968 386.911953 
L 278.304768 389.192597 
L 279.98208 392.028675 
L 284.562432 400.010509 
L 285.175296 401.572456 
L 286.336512 406.140477 
L 287.8848 413.765486 
L 288.400896 415.984276 
L 288.465408 415.789874 
L 288.626688 417.374964 
L 289.562112 422.030928 
L 289.594368 421.451089 
L 289.626624 421.652223 
L 289.787904 423.306742 
L 290.078208 424.819878 
L 290.110464 424.383947 
L 290.14272 424.679337 
L 290.304 426.016164 
L 291.465216 431.492656 
L 292.7232 436.736539 
L 292.755456 436.309865 
L 292.819968 436.531365 
L 292.88448 436.855999 
L 293.04576 438.155082 
L 293.239296 438.926841 
L 293.303808 438.845335 
L 293.336064 438.880639 
L 293.465088 439.325238 
L 293.626368 440.005602 
L 293.787648 441.065344 
L 294.077952 441.851914 
L 294.110208 441.826246 
L 294.142464 441.889785 
L 294.49728 442.758281 
L 294.690816 443.755537 
L 295.529472 445.727747 
L 295.561728 445.483693 
L 295.62624 445.596883 
L 295.9488 446.271399 
L 295.981056 446.756141 
L 296.077824 446.743096 
L 296.206848 447.00314 
L 296.884224 449.069185 
L 296.948736 448.924857 
L 297.013248 449.311556 
L 297.045504 449.1525 
L 297.07776 449.207623 
L 297.23904 449.959141 
L 298.109952 452.083254 
L 298.142208 452.045384 
L 298.174464 451.973851 
L 298.238976 452.09714 
L 298.335744 452.430821 
L 298.52928 453.068307 
L 298.916352 453.903141 
L 299.1744 454.406818 
L 299.65824 455.362417 
L 299.81952 455.978864 
L 299.851776 455.81013 
L 299.916288 455.965819 
L 300.271104 456.872607 
L 300.722688 457.915728 
L 301.561344 459.693537 
L 302.4 461.188579 
L 302.529024 461.184792 
L 302.754816 460.983657 
L 303.077376 460.412655 
L 303.238656 459.558886 
L 303.270912 459.610642 
L 303.36768 459.887938 
L 303.52896 459.371217 
L 304.077312 458.281389 
L 304.109568 458.404257 
L 304.17408 458.270869 
L 305.851392 455.515582 
L 305.883648 455.699885 
L 305.915904 455.452043 
L 305.94816 455.539987 
L 306.690048 454.683273 
L 306.819072 454.554513 
L 307.39968 453.563148 
L 307.431936 453.77354 
L 307.464192 453.44028 
L 307.593216 453.346024 
L 308.36736 452.442182 
L 308.399616 452.545274 
L 308.431872 452.3656 
L 308.464128 452.347927 
L 308.496384 452.563788 
L 308.52864 452.270082 
L 308.560896 452.288176 
L 308.8512 452.013404 
L 308.883456 452.099665 
L 308.915712 451.98437 
L 308.947968 451.978479 
L 309.593088 451.174784 
L 310.012416 450.564227 
L 310.044672 450.811227 
L 310.076928 450.503635 
L 310.238208 450.257056 
L 310.14144 450.622295 
L 310.270464 450.275149 
L 310.30272 450.530565 
L 310.334976 450.467447 
L 310.464 450.082431 
L 310.657536 449.885504 
L 310.689792 449.980601 
L 310.722048 449.895603 
L 310.818816 449.914538 
L 310.851072 449.702884 
L 310.94784 449.479449 
L 310.980096 449.672588 
L 311.012352 449.707092 
L 311.141376 449.32965 
L 311.173632 449.326704 
L 311.205888 449.448311 
L 311.2704 449.260641 
L 311.399424 449.160916 
L 312.302592 448.424966 
L 312.528384 447.836712 
L 312.818688 447.442017 
L 312.850944 447.769386 
L 312.8832 447.423503 
L 312.947712 447.678497 
L 313.076736 447.195438 
L 313.141248 447.397835 
L 313.302528 446.914355 
L 314.81856 445.754256 
L 315.270144 445.219441 
L 315.431424 444.745639 
L 315.592704 444.53104 
L 315.657216 444.868508 
L 315.689472 444.445621 
L 315.721728 444.473393 
L 315.850752 444.237754 
L 315.915264 444.168325 
L 315.94752 444.576905 
L 316.012032 444.385028 
L 316.173312 444.016001 
L 316.205568 444.212928 
L 316.237824 444.103524 
L 316.334592 444.215453 
L 316.366848 443.67138 
L 316.399104 444.006323 
L 316.463616 443.624673 
L 316.495872 443.636876 
L 316.528128 444.030308 
L 316.560384 443.544304 
L 316.624896 443.937736 
L 316.75392 443.423118 
L 316.786176 443.429009 
L 316.818432 443.668014 
L 316.850688 443.348219 
L 316.9152 443.585119 
L 317.044224 443.307823 
L 317.302272 443.238394 
L 317.528064 443.127308 
L 318.463488 442.210421 
L 318.624768 442.026539 
L 318.753792 441.399151 
L 319.01184 441.092485 
L 319.044096 441.57041 
L 319.076352 441.002185 
L 319.108608 441.005467 
L 319.302144 440.814305 
L 319.3344 441.306243 
L 319.398912 441.268709 
L 319.49568 440.585315 
L 319.560192 440.739027 
L 319.592448 441.068248 
L 319.65696 440.742688 
L 319.689216 440.837364 
L 319.721472 440.733473 
L 319.753728 440.392133 
L 319.81824 440.422093 
L 319.850496 440.807236 
L 319.915008 440.364951 
L 320.011776 440.560867 
L 320.044032 440.273599 
L 320.1408 440.32018 
L 320.30208 440.264762 
L 320.495616 440.20316 
L 321.818112 438.799007 
L 321.91488 438.661158 
L 322.07616 437.764007 
L 322.108416 437.822622 
L 322.140672 437.811934 
L 322.172928 438.189124 
L 322.23744 437.684382 
L 322.269696 438.02464 
L 322.39872 437.414403 
L 322.430976 437.800446 
L 322.495488 437.450443 
L 322.527744 437.603831 
L 322.56 437.351332 
L 322.947072 436.885521 
L 324.946944 433.028514 
L 325.204992 432.518525 
L 326.656512 429.605865 
L 326.721024 428.707493 
L 326.785536 428.891796 
L 326.817792 428.846351 
L 326.850048 428.954072 
L 326.882304 429.004566 
L 326.946816 428.908206 
L 329.430528 423.775915 
L 329.49504 422.9941 
L 329.559552 423.101821 
L 329.720832 423.247833 
L 329.753088 423.207017 
L 330.817536 420.834642 
L 330.914304 420.237551 
L 330.94656 420.614152 
L 330.978816 420.06545 
L 331.011072 419.980452 
L 331.075584 420.041045 
L 331.172352 420.138246 
L 331.204608 420.075549 
L 332.39808 417.667829 
L 332.494848 416.926409 
L 332.527104 416.946186 
L 332.55936 417.219274 
L 332.623872 417.083361 
L 332.785152 416.92683 
L 333.978624 414.686581 
L 334.01088 414.034367 
L 334.075392 414.36931 
L 334.107648 414.49302 
L 334.139904 414.135355 
L 334.236672 414.289782 
L 334.688256 413.519749 
L 334.720512 413.364059 
L 334.752768 413.374158 
L 334.849536 414.430744 
L 334.946304 419.273957 
L 335.204352 436.598858 
L 335.236608 436.452931 
L 335.333376 436.520635 
L 336.043008 436.616279 
L 336.720384 436.698542 
L 339.752448 436.845016 
L 341.171712 436.785013 
L 341.849088 436.164905 
L 342.655488 435.770968 
L 343.655424 435.542987 
L 345.203712 435.447049 
L 348.558336 435.5315 
L 360.912384 435.938439 
L 362.750976 435.896109 
L 366.879744 436.036229 
L 367.170048 436.338688 
L 367.847424 436.89708 
L 368.68608 437.280755 
L 369.911808 437.541231 
L 371.718144 437.665888 
L 375.008256 437.688034 
L 375.040512 437.623027 
L 375.072768 437.731396 
L 375.105024 437.708505 
L 386.652672 437.681697 
L 388.459008 437.780543 
L 393.619968 437.757527 
L 415.328256 437.565738 
L 415.360512 437.902655 
L 415.650816 430.455846 
L 415.876608 429.048748 
L 416.037888 426.378879 
L 416.199168 418.567042 
L 416.392704 395.252715 
L 416.58624 377.107708 
L 416.715264 376.935187 
L 416.74752 376.94781 
L 418.166784 377.385425 
L 418.586112 377.494828 
L 419.553792 377.764129 
L 419.940864 377.873533 
L 420.811776 378.100756 
L 421.198848 378.210159 
L 422.06976 378.437382 
L 422.456832 378.546786 
L 423.230976 378.73193 
L 423.714816 378.841334 
L 424.48896 379.026479 
L 424.876032 379.135882 
L 425.521152 379.278948 
L 425.94048 379.388352 
L 426.5856 379.531418 
L 427.101696 379.640822 
L 427.746816 379.783888 
L 428.262912 379.893292 
L 428.908032 380.036358 
L 429.424128 380.145762 
L 430.069248 380.288828 
L 430.682112 380.398231 
L 431.327232 380.541298 
L 431.940096 380.650701 
L 432.488448 380.751689 
L 433.004544 380.861093 
L 433.552896 380.962081 
L 434.16576 381.067276 
L 434.520576 381.130394 
L 435.13344 381.239798 
L 435.681792 381.340785 
L 436.294656 381.445981 
L 436.649472 381.509099 
L 437.359104 381.614294 
L 437.71392 381.677412 
L 438.423552 381.782608 
L 438.778368 381.845725 
L 439.488 381.950921 
L 439.842816 382.014038 
L 440.552448 382.119234 
L 440.907264 382.182352 
L 441.713664 382.287547 
L 442.06848 382.350665 
L 442.971648 382.455861 
L 443.326464 382.518978 
L 444.229632 382.624174 
L 444.584448 382.687291 
L 445.487616 382.792487 
L 445.745664 382.813526 
L 446.552064 382.918722 
L 446.90688 382.981839 
L 447.906816 383.087035 
L 448.164864 383.108074 
L 448.971264 383.21327 
L 449.229312 383.234309 
L 450.13248 383.339505 
L 450.390528 383.360544 
L 451.293696 383.46574 
L 451.551744 383.486779 
L 452.454912 383.591975 
L 452.71296 383.613014 
L 453.712896 383.71821 
L 453.970944 383.739249 
L 455.067648 383.844445 
L 455.325696 383.865484 
L 456.4224 383.97068 
L 456.680448 383.991719 
L 457.87392 384.096914 
L 458.131968 384.117954 
L 459.32544 384.223149 
L 459.583488 384.244189 
L 460.970496 384.349384 
L 461.228544 384.370423 
L 462.615552 384.475619 
L 462.8736 384.496658 
L 464.357376 384.601854 
L 464.615424 384.618685 
L 466.195968 384.728089 
L 466.454016 384.74492 
L 468.131328 384.854324 
L 468.389376 384.871155 
L 470.260224 384.980559 
L 470.518272 384.99739 
L 472.485888 385.106794 
L 472.743936 385.123625 
L 474.905088 385.233029 
L 475.259904 385.254068 
L 477.517824 385.359264 
L 477.775872 385.376095 
L 480.420864 385.485499 
L 480.678912 385.506538 
L 483.51744 385.611734 
L 483.775488 385.628565 
L 487.001088 385.737968 
L 487.259136 385.7548 
L 490.968576 385.864203 
L 491.291136 385.885242 
L 492.129792 385.885242 
L 495.419904 385.990438 
L 495.742464 386.011477 
L 495.968256 386.003062 
L 496.000512 386.205038 
L 496.065024 386.00727 
L 496.935936 386.003062 
L 500.61312 386.10405 
L 500.967936 386.137712 
L 501.838848 386.133504 
L 506.935296 386.242908 
L 507.257856 386.259739 
L 514.870272 386.369143 
L 515.12832 386.385974 
L 576.608256 386.381767 
L 576.640512 386.592158 
L 576.705024 386.364935 
L 577.027584 386.377559 
L 657.248256 386.402806 
L 657.280512 386.545872 
L 657.345024 386.352312 
L 657.603072 386.377559 
L 737.888256 386.402806 
L 737.920512 386.545872 
L 737.985024 386.352312 
L 738.243072 386.377559 
L 818.528256 386.381767 
L 818.560512 386.596366 
L 818.625024 386.381767 
L 818.81856 386.360727 
L 819.850752 386.385974 
L 899.168256 386.402806 
L 899.200512 386.545872 
L 899.265024 386.352312 
L 899.523072 386.377559 
L 947.52 386.385974 
L 947.52 386.385974 
" clip-path="url(#p976cc72699)" style="fill: none; stroke: #ff00ff; stroke-width: 2; stroke-linecap: square"/>
   </g>
   <g id="patch_22">
    <path d="M 100.8 465.442759 
L 100.8 372.711724 
" style="fill: none; stroke: #bcbcbc; stroke-width: 0.8; stroke-linejoin: miter; stroke-linecap: square"/>
   </g>
   <g id="patch_23">
    <path d="M 987.84 465.442759 
L 987.84 372.711724 
" style="fill: none; stroke: #bcbcbc; stroke-width: 0.8; stroke-linejoin: miter; stroke-linecap: square"/>
   </g>
   <g id="patch_24">
    <path d="M 100.8 465.442759 
L 987.84 465.442759 
" style="fill: none; stroke: #bcbcbc; stroke-width: 0.8; stroke-linejoin: miter; stroke-linecap: square"/>
   </g>
   <g id="patch_25">
    <path d="M 100.8 372.711724 
L 987.84 372.711724 
" style="fill: none; stroke: #bcbcbc; stroke-width: 0.8; stroke-linejoin: miter; stroke-linecap: square"/>
   </g>
  </g>
  <g id="axes_5">
   <g id="patch_26">
    <path d="M 100.8 576.72 
L 987.84 576.72 
L 987.84 483.988966 
L 100.8 483.988966 
z
" style="fill: #eeeeee"/>
   </g>
   <g id="matplotlib.axis_9">
    <g id="xtick_25">
     <g id="line2d_73">
      <path d="M 141.12 576.72 
L 141.12 483.988966 
" clip-path="url(#p4c3c265e6b)" style="fill: none; stroke-dasharray: 1.85,0.8; stroke-dashoffset: 0; stroke: #b2b2b2; stroke-width: 0.5"/>
     </g>
     <g id="line2d_74">
      <g>
       <use xlink:href="#m3d7516a159" x="141.12" y="576.72" style="stroke: #000000; stroke-width: 0.8"/>
      </g>
     </g>
     <g id="text_15">
      <!-- 0 s -->
      <g transform="translate(130.795 590.857813) scale(0.14 -0.14)">
       <defs>
        <path id="DejaVuSans-73" d="M 2834 3397 
L 2834 2853 
Q 2591 2978 2328 3040 
Q 2066 3103 1784 3103 
Q 1356 3103 1142 2972 
Q 928 2841 928 2578 
Q 928 2378 1081 2264 
Q 1234 2150 1697 2047 
L 1894 2003 
Q 2506 1872 2764 1633 
Q 3022 1394 3022 966 
Q 3022 478 2636 193 
Q 2250 -91 1575 -91 
Q 1294 -91 989 -36 
Q 684 19 347 128 
L 347 722 
Q 666 556 975 473 
Q 1284 391 1588 391 
Q 1994 391 2212 530 
Q 2431 669 2431 922 
Q 2431 1156 2273 1281 
Q 2116 1406 1581 1522 
L 1381 1569 
Q 847 1681 609 1914 
Q 372 2147 372 2553 
Q 372 3047 722 3315 
Q 1072 3584 1716 3584 
Q 2034 3584 2315 3537 
Q 2597 3491 2834 3397 
z
" transform="scale(0.015625)"/>
       </defs>
       <use xlink:href="#DejaVuSans-30"/>
       <use xlink:href="#DejaVuSans-20" x="63.623047"/>
       <use xlink:href="#DejaVuSans-73" x="95.410156"/>
      </g>
     </g>
    </g>
    <g id="xtick_26">
     <g id="line2d_75">
      <path d="M 302.4 576.72 
L 302.4 483.988966 
" clip-path="url(#p4c3c265e6b)" style="fill: none; stroke-dasharray: 1.85,0.8; stroke-dashoffset: 0; stroke: #b2b2b2; stroke-width: 0.5"/>
     </g>
     <g id="line2d_76">
      <g>
       <use xlink:href="#m3d7516a159" x="302.4" y="576.72" style="stroke: #000000; stroke-width: 0.8"/>
      </g>
     </g>
     <g id="text_16">
      <!-- 50 ns -->
      <g transform="translate(283.185 590.857813) scale(0.14 -0.14)">
       <defs>
        <path id="DejaVuSans-35" d="M 691 4666 
L 3169 4666 
L 3169 4134 
L 1269 4134 
L 1269 2991 
Q 1406 3038 1543 3061 
Q 1681 3084 1819 3084 
Q 2600 3084 3056 2656 
Q 3513 2228 3513 1497 
Q 3513 744 3044 326 
Q 2575 -91 1722 -91 
Q 1428 -91 1123 -41 
Q 819 9 494 109 
L 494 744 
Q 775 591 1075 516 
Q 1375 441 1709 441 
Q 2250 441 2565 725 
Q 2881 1009 2881 1497 
Q 2881 1984 2565 2268 
Q 2250 2553 1709 2553 
Q 1456 2553 1204 2497 
Q 953 2441 691 2322 
L 691 4666 
z
" transform="scale(0.015625)"/>
        <path id="DejaVuSans-6e" d="M 3513 2113 
L 3513 0 
L 2938 0 
L 2938 2094 
Q 2938 2591 2744 2837 
Q 2550 3084 2163 3084 
Q 1697 3084 1428 2787 
Q 1159 2491 1159 1978 
L 1159 0 
L 581 0 
L 581 3500 
L 1159 3500 
L 1159 2956 
Q 1366 3272 1645 3428 
Q 1925 3584 2291 3584 
Q 2894 3584 3203 3211 
Q 3513 2838 3513 2113 
z
" transform="scale(0.015625)"/>
       </defs>
       <use xlink:href="#DejaVuSans-35"/>
       <use xlink:href="#DejaVuSans-30" x="63.623047"/>
       <use xlink:href="#DejaVuSans-20" x="127.246094"/>
       <use xlink:href="#DejaVuSans-6e" x="159.033203"/>
       <use xlink:href="#DejaVuSans-73" x="222.412109"/>
      </g>
     </g>
    </g>
    <g id="xtick_27">
     <g id="line2d_77">
      <path d="M 463.68 576.72 
L 463.68 483.988966 
" clip-path="url(#p4c3c265e6b)" style="fill: none; stroke-dasharray: 1.85,0.8; stroke-dashoffset: 0; stroke: #b2b2b2; stroke-width: 0.5"/>
     </g>
     <g id="line2d_78">
      <g>
       <use xlink:href="#m3d7516a159" x="463.68" y="576.72" style="stroke: #000000; stroke-width: 0.8"/>
      </g>
     </g>
     <g id="text_17">
      <!-- 100 ns -->
      <g transform="translate(440.01125 590.857813) scale(0.14 -0.14)">
       <use xlink:href="#DejaVuSans-31"/>
       <use xlink:href="#DejaVuSans-30" x="63.623047"/>
       <use xlink:href="#DejaVuSans-30" x="127.246094"/>
       <use xlink:href="#DejaVuSans-20" x="190.869141"/>
       <use xlink:href="#DejaVuSans-6e" x="222.65625"/>
       <use xlink:href="#DejaVuSans-73" x="286.035156"/>
      </g>
     </g>
    </g>
    <g id="xtick_28">
     <g id="line2d_79">
      <path d="M 624.96 576.72 
L 624.96 483.988966 
" clip-path="url(#p4c3c265e6b)" style="fill: none; stroke-dasharray: 1.85,0.8; stroke-dashoffset: 0; stroke: #b2b2b2; stroke-width: 0.5"/>
     </g>
     <g id="line2d_80">
      <g>
       <use xlink:href="#m3d7516a159" x="624.96" y="576.72" style="stroke: #000000; stroke-width: 0.8"/>
      </g>
     </g>
     <g id="text_18">
      <!-- 150 ns -->
      <g transform="translate(601.29125 590.857813) scale(0.14 -0.14)">
       <use xlink:href="#DejaVuSans-31"/>
       <use xlink:href="#DejaVuSans-35" x="63.623047"/>
       <use xlink:href="#DejaVuSans-30" x="127.246094"/>
       <use xlink:href="#DejaVuSans-20" x="190.869141"/>
       <use xlink:href="#DejaVuSans-6e" x="222.65625"/>
       <use xlink:href="#DejaVuSans-73" x="286.035156"/>
      </g>
     </g>
    </g>
    <g id="xtick_29">
     <g id="line2d_81">
      <path d="M 786.24 576.72 
L 786.24 483.988966 
" clip-path="url(#p4c3c265e6b)" style="fill: none; stroke-dasharray: 1.85,0.8; stroke-dashoffset: 0; stroke: #b2b2b2; stroke-width: 0.5"/>
     </g>
     <g id="line2d_82">
      <g>
       <use xlink:href="#m3d7516a159" x="786.24" y="576.72" style="stroke: #000000; stroke-width: 0.8"/>
      </g>
     </g>
     <g id="text_19">
      <!-- 200 ns -->
      <g transform="translate(762.57125 590.857813) scale(0.14 -0.14)">
       <use xlink:href="#DejaVuSans-32"/>
       <use xlink:href="#DejaVuSans-30" x="63.623047"/>
       <use xlink:href="#DejaVuSans-30" x="127.246094"/>
       <use xlink:href="#DejaVuSans-20" x="190.869141"/>
       <use xlink:href="#DejaVuSans-6e" x="222.65625"/>
       <use xlink:href="#DejaVuSans-73" x="286.035156"/>
      </g>
     </g>
    </g>
    <g id="xtick_30">
     <g id="line2d_83">
      <path d="M 947.52 576.72 
L 947.52 483.988966 
" clip-path="url(#p4c3c265e6b)" style="fill: none; stroke-dasharray: 1.85,0.8; stroke-dashoffset: 0; stroke: #b2b2b2; stroke-width: 0.5"/>
     </g>
     <g id="line2d_84">
      <g>
       <use xlink:href="#m3d7516a159" x="947.52" y="576.72" style="stroke: #000000; stroke-width: 0.8"/>
      </g>
     </g>
     <g id="text_20">
      <!-- 250 ns -->
      <g transform="translate(923.85125 590.857813) scale(0.14 -0.14)">
       <use xlink:href="#DejaVuSans-32"/>
       <use xlink:href="#DejaVuSans-35" x="63.623047"/>
       <use xlink:href="#DejaVuSans-30" x="127.246094"/>
       <use xlink:href="#DejaVuSans-20" x="190.869141"/>
       <use xlink:href="#DejaVuSans-6e" x="222.65625"/>
       <use xlink:href="#DejaVuSans-73" x="286.035156"/>
      </g>
     </g>
    </g>
    <g id="text_21">
     <!-- Time -->
     <g transform="translate(527.192969 608.407187) scale(0.14 -0.14)">
      <defs>
       <path id="DejaVuSans-69" d="M 603 3500 
L 1178 3500 
L 1178 0 
L 603 0 
L 603 3500 
z
M 603 4863 
L 1178 4863 
L 1178 4134 
L 603 4134 
L 603 4863 
z
" transform="scale(0.015625)"/>
       <path id="DejaVuSans-6d" d="M 3328 2828 
Q 3544 3216 3844 3400 
Q 4144 3584 4550 3584 
Q 5097 3584 5394 3201 
Q 5691 2819 5691 2113 
L 5691 0 
L 5113 0 
L 5113 2094 
Q 5113 2597 4934 2840 
Q 4756 3084 4391 3084 
Q 3944 3084 3684 2787 
Q 3425 2491 3425 1978 
L 3425 0 
L 2847 0 
L 2847 2094 
Q 2847 2600 2669 2842 
Q 2491 3084 2119 3084 
Q 1678 3084 1418 2786 
Q 1159 2488 1159 1978 
L 1159 0 
L 581 0 
L 581 3500 
L 1159 3500 
L 1159 2956 
Q 1356 3278 1631 3431 
Q 1906 3584 2284 3584 
Q 2666 3584 2933 3390 
Q 3200 3197 3328 2828 
z
" transform="scale(0.015625)"/>
       <path id="DejaVuSans-65" d="M 3597 1894 
L 3597 1613 
L 953 1613 
Q 991 1019 1311 708 
Q 1631 397 2203 397 
Q 2534 397 2845 478 
Q 3156 559 3463 722 
L 3463 178 
Q 3153 47 2828 -22 
Q 2503 -91 2169 -91 
Q 1331 -91 842 396 
Q 353 884 353 1716 
Q 353 2575 817 3079 
Q 1281 3584 2069 3584 
Q 2775 3584 3186 3129 
Q 3597 2675 3597 1894 
z
M 3022 2063 
Q 3016 2534 2758 2815 
Q 2500 3097 2075 3097 
Q 1594 3097 1305 2825 
Q 1016 2553 972 2059 
L 3022 2063 
z
" transform="scale(0.015625)"/>
      </defs>
      <use xlink:href="#DejaVuSans-54"/>
      <use xlink:href="#DejaVuSans-69" x="57.958984"/>
      <use xlink:href="#DejaVuSans-6d" x="85.742188"/>
      <use xlink:href="#DejaVuSans-65" x="183.154297"/>
     </g>
    </g>
   </g>
   <g id="matplotlib.axis_10">
    <g id="ytick_11">
     <g id="line2d_85">
      <path d="M 100.8 569.74101 
L 987.84 569.74101 
" clip-path="url(#p4c3c265e6b)" style="fill: none; stroke-dasharray: 1.85,0.8; stroke-dashoffset: 0; stroke: #b2b2b2; stroke-width: 0.5"/>
     </g>
     <g id="line2d_86">
      <g>
       <use xlink:href="#m389badb602" x="100.8" y="569.74101" style="stroke: #000000; stroke-width: 0.8"/>
      </g>
     </g>
     <g id="text_22">
      <!-- 0 V -->
      <g transform="translate(74.36625 575.059916) scale(0.14 -0.14)">
       <use xlink:href="#DejaVuSans-30"/>
       <use xlink:href="#DejaVuSans-20" x="63.623047"/>
       <use xlink:href="#DejaVuSans-56" x="95.410156"/>
      </g>
     </g>
    </g>
    <g id="ytick_12">
     <g id="line2d_87">
      <path d="M 100.8 535.885754 
L 987.84 535.885754 
" clip-path="url(#p4c3c265e6b)" style="fill: none; stroke-dasharray: 1.85,0.8; stroke-dashoffset: 0; stroke: #b2b2b2; stroke-width: 0.5"/>
     </g>
     <g id="line2d_88">
      <g>
       <use xlink:href="#m389badb602" x="100.8" y="535.885754" style="stroke: #000000; stroke-width: 0.8"/>
      </g>
     </g>
     <g id="text_23">
      <!-- 500 mV -->
      <g transform="translate(42.914375 541.204661) scale(0.14 -0.14)">
       <use xlink:href="#DejaVuSans-35"/>
       <use xlink:href="#DejaVuSans-30" x="63.623047"/>
       <use xlink:href="#DejaVuSans-30" x="127.246094"/>
       <use xlink:href="#DejaVuSans-20" x="190.869141"/>
       <use xlink:href="#DejaVuSans-6d" x="222.65625"/>
       <use xlink:href="#DejaVuSans-56" x="320.068359"/>
      </g>
     </g>
    </g>
    <g id="ytick_13">
     <g id="line2d_89">
      <path d="M 100.8 502.030499 
L 987.84 502.030499 
" clip-path="url(#p4c3c265e6b)" style="fill: none; stroke-dasharray: 1.85,0.8; stroke-dashoffset: 0; stroke: #b2b2b2; stroke-width: 0.5"/>
     </g>
     <g id="line2d_90">
      <g>
       <use xlink:href="#m389badb602" x="100.8" y="502.030499" style="stroke: #000000; stroke-width: 0.8"/>
      </g>
     </g>
     <g id="text_24">
      <!-- 1 V -->
      <g transform="translate(74.36625 507.349405) scale(0.14 -0.14)">
       <use xlink:href="#DejaVuSans-31"/>
       <use xlink:href="#DejaVuSans-20" x="63.623047"/>
       <use xlink:href="#DejaVuSans-56" x="95.410156"/>
      </g>
     </g>
    </g>
    <g id="text_25">
     <g id="patch_27">
      <path d="M 34.8768 554.329483 
L 34.8768 506.379483 
L 11.247425 506.379483 
L 11.247425 554.329483 
z
" style="fill: #ffff00; opacity: 0.2; stroke: #eeeeee; stroke-width: 0.5; stroke-linejoin: miter"/>
     </g>
     <!-- FOUT -->
     <g transform="translate(26.925238 549.289483) rotate(-90) scale(0.14 -0.14)">
      <use xlink:href="#DejaVuSans-46"/>
      <use xlink:href="#DejaVuSans-4f" x="57.519531"/>
      <use xlink:href="#DejaVuSans-55" x="136.230469"/>
      <use xlink:href="#DejaVuSans-54" x="209.423828"/>
     </g>
    </g>
   </g>
   <g id="line2d_91">
    <path d="M 141.12 488.488397 
L 173.472768 488.495168 
L 173.505024 488.298807 
L 173.569536 526.708949 
L 173.69856 572.504953 
L 173.730816 572.369261 
L 173.827584 567.833876 
L 173.892096 569.355344 
L 174.053376 570.059879 
L 174.117888 569.942144 
L 174.408192 569.48673 
L 174.440448 569.536274 
L 174.66624 569.725051 
L 176.182272 569.735265 
L 180.117504 569.756602 
L 193.503744 569.747692 
L 212.921856 569.739132 
L 255.30624 569.738825 
L 255.6288 488.38006 
L 255.854592 488.522252 
L 256.209408 488.481626 
L 287.981568 488.440999 
L 288.04608 488.204013 
L 288.078336 489.057165 
L 288.142848 521.171583 
L 288.239616 570.109788 
L 288.304128 569.737326 
L 296.206848 569.739038 
L 334.656 569.675681 
L 334.688256 568.807824 
L 334.752768 550.187569 
L 334.881792 491.47443 
L 334.914048 496.268334 
L 335.107584 569.742699 
L 335.204352 569.738154 
L 337.365504 569.739326 
L 416.295936 569.720728 
L 416.328192 569.016914 
L 416.618496 488.515481 
L 416.941056 488.488397 
L 947.52 488.488397 
L 947.52 488.488397 
" clip-path="url(#p4c3c265e6b)" style="fill: none; stroke: #ff00ff; stroke-width: 2; stroke-linecap: square"/>
   </g>
   <g id="patch_28">
    <path d="M 100.8 576.72 
L 100.8 483.988966 
" style="fill: none; stroke: #bcbcbc; stroke-width: 0.8; stroke-linejoin: miter; stroke-linecap: square"/>
   </g>
   <g id="patch_29">
    <path d="M 987.84 576.72 
L 987.84 483.988966 
" style="fill: none; stroke: #bcbcbc; stroke-width: 0.8; stroke-linejoin: miter; stroke-linecap: square"/>
   </g>
   <g id="patch_30">
    <path d="M 100.8 576.72 
L 987.84 576.72 
" style="fill: none; stroke: #bcbcbc; stroke-width: 0.8; stroke-linejoin: miter; stroke-linecap: square"/>
   </g>
   <g id="patch_31">
    <path d="M 100.8 483.988966 
L 987.84 483.988966 
" style="fill: none; stroke: #bcbcbc; stroke-width: 0.8; stroke-linejoin: miter; stroke-linecap: square"/>
   </g>
  </g>
  <g id="axes_6">
   <g id="patch_32">
    <path d="M 201.6 628.56 
L 856.8 628.56 
L 856.8 615.6 
L 201.6 615.6 
z
" clip-path="url(#p8c60540fc0)" style="fill: #d3d3d3"/>
   </g>
   <g id="patch_33">
    <path d="M 201.6 628.56 
L 323.28 628.56 
L 323.28 615.6 
L 201.6 615.6 
z
" clip-path="url(#p8c60540fc0)" style="fill: #0000ff"/>
   </g>
   <g id="line2d_92">
    <path d="M 201.6 635.04 
L 201.6 609.12 
" clip-path="url(#pb5bd64afef)" style="fill: none; stroke: #ff0000; stroke-linecap: square"/>
   </g>
   <g id="line2d_93">
    <defs>
     <path id="mf0fe522a97" d="M 0 5 
C 1.326016 5 2.597899 4.473168 3.535534 3.535534 
C 4.473168 2.597899 5 1.326016 5 0 
C 5 -1.326016 4.473168 -2.597899 3.535534 -3.535534 
C 2.597899 -4.473168 1.326016 -5 0 -5 
C -1.326016 -5 -2.597899 -4.473168 -3.535534 -3.535534 
C -4.473168 -2.597899 -5 -1.326016 -5 0 
C -5 1.326016 -4.473168 2.597899 -3.535534 3.535534 
C -2.597899 4.473168 -1.326016 5 0 5 
z
" style="stroke: #bfbfbf"/>
    </defs>
    <g>
     <use xlink:href="#mf0fe522a97" x="323.28" y="622.08" style="fill: #ffffff; stroke: #bfbfbf"/>
    </g>
   </g>
   <g id="text_26">
    <!-- #Sweep -->
    <g transform="translate(138.622875 625.39125) scale(0.12 -0.12)">
     <defs>
      <path id="DejaVuSans-23" d="M 3272 2816 
L 2363 2816 
L 2100 1772 
L 3016 1772 
L 3272 2816 
z
M 2803 4594 
L 2478 3297 
L 3391 3297 
L 3719 4594 
L 4219 4594 
L 3897 3297 
L 4872 3297 
L 4872 2816 
L 3775 2816 
L 3519 1772 
L 4513 1772 
L 4513 1294 
L 3397 1294 
L 3072 0 
L 2572 0 
L 2894 1294 
L 1978 1294 
L 1656 0 
L 1153 0 
L 1478 1294 
L 494 1294 
L 494 1772 
L 1594 1772 
L 1856 2816 
L 850 2816 
L 850 3297 
L 1978 3297 
L 2297 4594 
L 2803 4594 
z
" transform="scale(0.015625)"/>
      <path id="DejaVuSans-77" d="M 269 3500 
L 844 3500 
L 1563 769 
L 2278 3500 
L 2956 3500 
L 3675 769 
L 4391 3500 
L 4966 3500 
L 4050 0 
L 3372 0 
L 2619 2869 
L 1863 0 
L 1184 0 
L 269 3500 
z
" transform="scale(0.015625)"/>
      <path id="DejaVuSans-70" d="M 1159 525 
L 1159 -1331 
L 581 -1331 
L 581 3500 
L 1159 3500 
L 1159 2969 
Q 1341 3281 1617 3432 
Q 1894 3584 2278 3584 
Q 2916 3584 3314 3078 
Q 3713 2572 3713 1747 
Q 3713 922 3314 415 
Q 2916 -91 2278 -91 
Q 1894 -91 1617 61 
Q 1341 213 1159 525 
z
M 3116 1747 
Q 3116 2381 2855 2742 
Q 2594 3103 2138 3103 
Q 1681 3103 1420 2742 
Q 1159 2381 1159 1747 
Q 1159 1113 1420 752 
Q 1681 391 2138 391 
Q 2594 391 2855 752 
Q 3116 1113 3116 1747 
z
" transform="scale(0.015625)"/>
     </defs>
     <use xlink:href="#DejaVuSans-23"/>
     <use xlink:href="#DejaVuSans-53" x="83.789062"/>
     <use xlink:href="#DejaVuSans-77" x="147.265625"/>
     <use xlink:href="#DejaVuSans-65" x="229.052734"/>
     <use xlink:href="#DejaVuSans-65" x="290.576172"/>
     <use xlink:href="#DejaVuSans-70" x="352.099609"/>
    </g>
   </g>
   <g id="text_27">
    <!-- $\mathdefault{26}$ -->
    <g transform="translate(869.904 625.39125) scale(0.12 -0.12)">
     <defs>
      <path id="DejaVuSans-36" d="M 2113 2584 
Q 1688 2584 1439 2293 
Q 1191 2003 1191 1497 
Q 1191 994 1439 701 
Q 1688 409 2113 409 
Q 2538 409 2786 701 
Q 3034 994 3034 1497 
Q 3034 2003 2786 2293 
Q 2538 2584 2113 2584 
z
M 3366 4563 
L 3366 3988 
Q 3128 4100 2886 4159 
Q 2644 4219 2406 4219 
Q 1781 4219 1451 3797 
Q 1122 3375 1075 2522 
Q 1259 2794 1537 2939 
Q 1816 3084 2150 3084 
Q 2853 3084 3261 2657 
Q 3669 2231 3669 1497 
Q 3669 778 3244 343 
Q 2819 -91 2113 -91 
Q 1303 -91 875 529 
Q 447 1150 447 2328 
Q 447 3434 972 4092 
Q 1497 4750 2381 4750 
Q 2619 4750 2861 4703 
Q 3103 4656 3366 4563 
z
" transform="scale(0.015625)"/>
     </defs>
     <use xlink:href="#DejaVuSans-32" transform="translate(0 0.78125)"/>
     <use xlink:href="#DejaVuSans-36" transform="translate(63.623047 0.78125)"/>
    </g>
   </g>
  </g>
  <g id="text_28">
   <!-- DFF under BBI sweep analysis (Sweep = 36E-9) -->
   <g transform="translate(313.34625 25.1175) scale(0.16 -0.16)">
    <defs>
     <path id="DejaVuSans-75" d="M 544 1381 
L 544 3500 
L 1119 3500 
L 1119 1403 
Q 1119 906 1312 657 
Q 1506 409 1894 409 
Q 2359 409 2629 706 
Q 2900 1003 2900 1516 
L 2900 3500 
L 3475 3500 
L 3475 0 
L 2900 0 
L 2900 538 
Q 2691 219 2414 64 
Q 2138 -91 1772 -91 
Q 1169 -91 856 284 
Q 544 659 544 1381 
z
M 1991 3584 
L 1991 3584 
z
" transform="scale(0.015625)"/>
     <path id="DejaVuSans-64" d="M 2906 2969 
L 2906 4863 
L 3481 4863 
L 3481 0 
L 2906 0 
L 2906 525 
Q 2725 213 2448 61 
Q 2172 -91 1784 -91 
Q 1150 -91 751 415 
Q 353 922 353 1747 
Q 353 2572 751 3078 
Q 1150 3584 1784 3584 
Q 2172 3584 2448 3432 
Q 2725 3281 2906 2969 
z
M 947 1747 
Q 947 1113 1208 752 
Q 1469 391 1925 391 
Q 2381 391 2643 752 
Q 2906 1113 2906 1747 
Q 2906 2381 2643 2742 
Q 2381 3103 1925 3103 
Q 1469 3103 1208 2742 
Q 947 2381 947 1747 
z
" transform="scale(0.015625)"/>
     <path id="DejaVuSans-72" d="M 2631 2963 
Q 2534 3019 2420 3045 
Q 2306 3072 2169 3072 
Q 1681 3072 1420 2755 
Q 1159 2438 1159 1844 
L 1159 0 
L 581 0 
L 581 3500 
L 1159 3500 
L 1159 2956 
Q 1341 3275 1631 3429 
Q 1922 3584 2338 3584 
Q 2397 3584 2469 3576 
Q 2541 3569 2628 3553 
L 2631 2963 
z
" transform="scale(0.015625)"/>
     <path id="DejaVuSans-61" d="M 2194 1759 
Q 1497 1759 1228 1600 
Q 959 1441 959 1056 
Q 959 750 1161 570 
Q 1363 391 1709 391 
Q 2188 391 2477 730 
Q 2766 1069 2766 1631 
L 2766 1759 
L 2194 1759 
z
M 3341 1997 
L 3341 0 
L 2766 0 
L 2766 531 
Q 2569 213 2275 61 
Q 1981 -91 1556 -91 
Q 1019 -91 701 211 
Q 384 513 384 1019 
Q 384 1609 779 1909 
Q 1175 2209 1959 2209 
L 2766 2209 
L 2766 2266 
Q 2766 2663 2505 2880 
Q 2244 3097 1772 3097 
Q 1472 3097 1187 3025 
Q 903 2953 641 2809 
L 641 3341 
Q 956 3463 1253 3523 
Q 1550 3584 1831 3584 
Q 2591 3584 2966 3190 
Q 3341 2797 3341 1997 
z
" transform="scale(0.015625)"/>
     <path id="DejaVuSans-6c" d="M 603 4863 
L 1178 4863 
L 1178 0 
L 603 0 
L 603 4863 
z
" transform="scale(0.015625)"/>
     <path id="DejaVuSans-79" d="M 2059 -325 
Q 1816 -950 1584 -1140 
Q 1353 -1331 966 -1331 
L 506 -1331 
L 506 -850 
L 844 -850 
Q 1081 -850 1212 -737 
Q 1344 -625 1503 -206 
L 1606 56 
L 191 3500 
L 800 3500 
L 1894 763 
L 2988 3500 
L 3597 3500 
L 2059 -325 
z
" transform="scale(0.015625)"/>
     <path id="DejaVuSans-28" d="M 1984 4856 
Q 1566 4138 1362 3434 
Q 1159 2731 1159 2009 
Q 1159 1288 1364 580 
Q 1569 -128 1984 -844 
L 1484 -844 
Q 1016 -109 783 600 
Q 550 1309 550 2009 
Q 550 2706 781 3412 
Q 1013 4119 1484 4856 
L 1984 4856 
z
" transform="scale(0.015625)"/>
     <path id="DejaVuSans-3d" d="M 678 2906 
L 4684 2906 
L 4684 2381 
L 678 2381 
L 678 2906 
z
M 678 1631 
L 4684 1631 
L 4684 1100 
L 678 1100 
L 678 1631 
z
" transform="scale(0.015625)"/>
     <path id="DejaVuSans-33" d="M 2597 2516 
Q 3050 2419 3304 2112 
Q 3559 1806 3559 1356 
Q 3559 666 3084 287 
Q 2609 -91 1734 -91 
Q 1441 -91 1130 -33 
Q 819 25 488 141 
L 488 750 
Q 750 597 1062 519 
Q 1375 441 1716 441 
Q 2309 441 2620 675 
Q 2931 909 2931 1356 
Q 2931 1769 2642 2001 
Q 2353 2234 1838 2234 
L 1294 2234 
L 1294 2753 
L 1863 2753 
Q 2328 2753 2575 2939 
Q 2822 3125 2822 3475 
Q 2822 3834 2567 4026 
Q 2313 4219 1838 4219 
Q 1578 4219 1281 4162 
Q 984 4106 628 3988 
L 628 4550 
Q 988 4650 1302 4700 
Q 1616 4750 1894 4750 
Q 2613 4750 3031 4423 
Q 3450 4097 3450 3541 
Q 3450 3153 3228 2886 
Q 3006 2619 2597 2516 
z
" transform="scale(0.015625)"/>
     <path id="DejaVuSans-2d" d="M 313 2009 
L 1997 2009 
L 1997 1497 
L 313 1497 
L 313 2009 
z
" transform="scale(0.015625)"/>
     <path id="DejaVuSans-39" d="M 703 97 
L 703 672 
Q 941 559 1184 500 
Q 1428 441 1663 441 
Q 2288 441 2617 861 
Q 2947 1281 2994 2138 
Q 2813 1869 2534 1725 
Q 2256 1581 1919 1581 
Q 1219 1581 811 2004 
Q 403 2428 403 3163 
Q 403 3881 828 4315 
Q 1253 4750 1959 4750 
Q 2769 4750 3195 4129 
Q 3622 3509 3622 2328 
Q 3622 1225 3098 567 
Q 2575 -91 1691 -91 
Q 1453 -91 1209 -44 
Q 966 3 703 97 
z
M 1959 2075 
Q 2384 2075 2632 2365 
Q 2881 2656 2881 3163 
Q 2881 3666 2632 3958 
Q 2384 4250 1959 4250 
Q 1534 4250 1286 3958 
Q 1038 3666 1038 3163 
Q 1038 2656 1286 2365 
Q 1534 2075 1959 2075 
z
" transform="scale(0.015625)"/>
     <path id="DejaVuSans-29" d="M 513 4856 
L 1013 4856 
Q 1481 4119 1714 3412 
Q 1947 2706 1947 2009 
Q 1947 1309 1714 600 
Q 1481 -109 1013 -844 
L 513 -844 
Q 928 -128 1133 580 
Q 1338 1288 1338 2009 
Q 1338 2731 1133 3434 
Q 928 4138 513 4856 
z
" transform="scale(0.015625)"/>
    </defs>
    <use xlink:href="#DejaVuSans-44"/>
    <use xlink:href="#DejaVuSans-46" x="77.001953"/>
    <use xlink:href="#DejaVuSans-46" x="134.521484"/>
    <use xlink:href="#DejaVuSans-20" x="192.041016"/>
    <use xlink:href="#DejaVuSans-75" x="223.828125"/>
    <use xlink:href="#DejaVuSans-6e" x="287.207031"/>
    <use xlink:href="#DejaVuSans-64" x="350.585938"/>
    <use xlink:href="#DejaVuSans-65" x="414.0625"/>
    <use xlink:href="#DejaVuSans-72" x="475.585938"/>
    <use xlink:href="#DejaVuSans-20" x="516.699219"/>
    <use xlink:href="#DejaVuSans-42" x="548.486328"/>
    <use xlink:href="#DejaVuSans-42" x="617.089844"/>
    <use xlink:href="#DejaVuSans-49" x="685.693359"/>
    <use xlink:href="#DejaVuSans-20" x="715.185547"/>
    <use xlink:href="#DejaVuSans-73" x="746.972656"/>
    <use xlink:href="#DejaVuSans-77" x="799.072266"/>
    <use xlink:href="#DejaVuSans-65" x="880.859375"/>
    <use xlink:href="#DejaVuSans-65" x="942.382812"/>
    <use xlink:href="#DejaVuSans-70" x="1003.90625"/>
    <use xlink:href="#DejaVuSans-20" x="1067.382812"/>
    <use xlink:href="#DejaVuSans-61" x="1099.169922"/>
    <use xlink:href="#DejaVuSans-6e" x="1160.449219"/>
    <use xlink:href="#DejaVuSans-61" x="1223.828125"/>
    <use xlink:href="#DejaVuSans-6c" x="1285.107422"/>
    <use xlink:href="#DejaVuSans-79" x="1312.890625"/>
    <use xlink:href="#DejaVuSans-73" x="1372.070312"/>
    <use xlink:href="#DejaVuSans-69" x="1424.169922"/>
    <use xlink:href="#DejaVuSans-73" x="1451.953125"/>
    <use xlink:href="#DejaVuSans-20" x="1504.052734"/>
    <use xlink:href="#DejaVuSans-28" x="1535.839844"/>
    <use xlink:href="#DejaVuSans-53" x="1574.853516"/>
    <use xlink:href="#DejaVuSans-77" x="1638.330078"/>
    <use xlink:href="#DejaVuSans-65" x="1720.117188"/>
    <use xlink:href="#DejaVuSans-65" x="1781.640625"/>
    <use xlink:href="#DejaVuSans-70" x="1843.164062"/>
    <use xlink:href="#DejaVuSans-20" x="1906.640625"/>
    <use xlink:href="#DejaVuSans-3d" x="1938.427734"/>
    <use xlink:href="#DejaVuSans-20" x="2022.216797"/>
    <use xlink:href="#DejaVuSans-33" x="2054.003906"/>
    <use xlink:href="#DejaVuSans-36" x="2117.626953"/>
    <use xlink:href="#DejaVuSans-45" x="2181.25"/>
    <use xlink:href="#DejaVuSans-2d" x="2244.433594"/>
    <use xlink:href="#DejaVuSans-39" x="2280.517578"/>
    <use xlink:href="#DejaVuSans-29" x="2344.140625"/>
   </g>
  </g>
 </g>
 <defs>
  <clipPath id="pe5247f9ec2">
   <rect x="100.8" y="38.88" width="887.04" height="92.731034"/>
  </clipPath>
  <clipPath id="p41c0521619">
   <rect x="100.8" y="150.157241" width="887.04" height="92.731034"/>
  </clipPath>
  <clipPath id="pb971ff5c4e">
   <rect x="100.8" y="261.434483" width="887.04" height="92.731034"/>
  </clipPath>
  <clipPath id="p976cc72699">
   <rect x="100.8" y="372.711724" width="887.04" height="92.731034"/>
  </clipPath>
  <clipPath id="p4c3c265e6b">
   <rect x="100.8" y="483.988966" width="887.04" height="92.731034"/>
  </clipPath>
  <clipPath id="p8c60540fc0">
   <rect x="201.6" y="609.12" width="655.2" height="25.92"/>
  </clipPath>
  <clipPath id="pb5bd64afef">
   <path d="M 201.6 628.56 
L 856.8 628.56 
L 856.8 615.6 
L 201.6 615.6 
z
"/>
  </clipPath>
 </defs>
</svg>
