<?xml version="1.0" encoding="utf-8" standalone="no"?>
<!DOCTYPE svg PUBLIC "-//W3C//DTD SVG 1.1//EN"
  "http://www.w3.org/Graphics/SVG/1.1/DTD/svg11.dtd">
<svg xmlns:xlink="http://www.w3.org/1999/xlink" width="1008pt" height="648pt" viewBox="0 0 1008 648" xmlns="http://www.w3.org/2000/svg" version="1.1">
 <metadata>
  <rdf:RDF xmlns:dc="http://purl.org/dc/elements/1.1/" xmlns:cc="http://creativecommons.org/ns#" xmlns:rdf="http://www.w3.org/1999/02/22-rdf-syntax-ns#">
   <cc:Work>
    <dc:type rdf:resource="http://purl.org/dc/dcmitype/StillImage"/>
    <dc:date>2024-06-03T10:45:34.133632</dc:date>
    <dc:format>image/svg+xml</dc:format>
    <dc:creator>
     <cc:Agent>
      <dc:title>Matplotlib v3.9.0, https://matplotlib.org/</dc:title>
     </cc:Agent>
    </dc:creator>
   </cc:Work>
  </rdf:RDF>
 </metadata>
 <defs>
  <style type="text/css">*{stroke-linejoin: round; stroke-linecap: butt}</style>
 </defs>
 <g id="figure_1">
  <g id="patch_1">
   <path d="M 0 648 
L 1008 648 
L 1008 0 
L 0 0 
z
" style="fill: #ffffff"/>
  </g>
  <g id="axes_1">
   <g id="patch_2">
    <path d="M 100.8 131.611034 
L 987.84 131.611034 
L 987.84 38.88 
L 100.8 38.88 
z
" style="fill: #eeeeee"/>
   </g>
   <g id="matplotlib.axis_1">
    <g id="xtick_1">
     <g id="line2d_1">
      <path d="M 141.12 131.611034 
L 141.12 38.88 
" clip-path="url(#p39d0d79204)" style="fill: none; stroke-dasharray: 1.85,0.8; stroke-dashoffset: 0; stroke: #b2b2b2; stroke-width: 0.5"/>
     </g>
     <g id="line2d_2">
      <defs>
       <path id="m6a999decb9" d="M 0 0 
L 0 -3.5 
" style="stroke: #000000; stroke-width: 0.8"/>
      </defs>
      <g>
       <use xlink:href="#m6a999decb9" x="141.12" y="131.611034" style="stroke: #000000; stroke-width: 0.8"/>
      </g>
     </g>
    </g>
    <g id="xtick_2">
     <g id="line2d_3">
      <path d="M 302.4 131.611034 
L 302.4 38.88 
" clip-path="url(#p39d0d79204)" style="fill: none; stroke-dasharray: 1.85,0.8; stroke-dashoffset: 0; stroke: #b2b2b2; stroke-width: 0.5"/>
     </g>
     <g id="line2d_4">
      <g>
       <use xlink:href="#m6a999decb9" x="302.4" y="131.611034" style="stroke: #000000; stroke-width: 0.8"/>
      </g>
     </g>
    </g>
    <g id="xtick_3">
     <g id="line2d_5">
      <path d="M 463.68 131.611034 
L 463.68 38.88 
" clip-path="url(#p39d0d79204)" style="fill: none; stroke-dasharray: 1.85,0.8; stroke-dashoffset: 0; stroke: #b2b2b2; stroke-width: 0.5"/>
     </g>
     <g id="line2d_6">
      <g>
       <use xlink:href="#m6a999decb9" x="463.68" y="131.611034" style="stroke: #000000; stroke-width: 0.8"/>
      </g>
     </g>
    </g>
    <g id="xtick_4">
     <g id="line2d_7">
      <path d="M 624.96 131.611034 
L 624.96 38.88 
" clip-path="url(#p39d0d79204)" style="fill: none; stroke-dasharray: 1.85,0.8; stroke-dashoffset: 0; stroke: #b2b2b2; stroke-width: 0.5"/>
     </g>
     <g id="line2d_8">
      <g>
       <use xlink:href="#m6a999decb9" x="624.96" y="131.611034" style="stroke: #000000; stroke-width: 0.8"/>
      </g>
     </g>
    </g>
    <g id="xtick_5">
     <g id="line2d_9">
      <path d="M 786.24 131.611034 
L 786.24 38.88 
" clip-path="url(#p39d0d79204)" style="fill: none; stroke-dasharray: 1.85,0.8; stroke-dashoffset: 0; stroke: #b2b2b2; stroke-width: 0.5"/>
     </g>
     <g id="line2d_10">
      <g>
       <use xlink:href="#m6a999decb9" x="786.24" y="131.611034" style="stroke: #000000; stroke-width: 0.8"/>
      </g>
     </g>
    </g>
    <g id="xtick_6">
     <g id="line2d_11">
      <path d="M 947.52 131.611034 
L 947.52 38.88 
" clip-path="url(#p39d0d79204)" style="fill: none; stroke-dasharray: 1.85,0.8; stroke-dashoffset: 0; stroke: #b2b2b2; stroke-width: 0.5"/>
     </g>
     <g id="line2d_12">
      <g>
       <use xlink:href="#m6a999decb9" x="947.52" y="131.611034" style="stroke: #000000; stroke-width: 0.8"/>
      </g>
     </g>
    </g>
   </g>
   <g id="matplotlib.axis_2">
    <g id="ytick_1">
     <g id="line2d_13">
      <path d="M 100.8 98.340394 
L 987.84 98.340394 
" clip-path="url(#p39d0d79204)" style="fill: none; stroke-dasharray: 1.85,0.8; stroke-dashoffset: 0; stroke: #b2b2b2; stroke-width: 0.5"/>
     </g>
     <g id="line2d_14">
      <defs>
       <path id="m3652f37b14" d="M 0 0 
L 3.5 0 
" style="stroke: #000000; stroke-width: 0.8"/>
      </defs>
      <g>
       <use xlink:href="#m3652f37b14" x="100.8" y="98.340394" style="stroke: #000000; stroke-width: 0.8"/>
      </g>
     </g>
     <g id="text_1">
      <!-- −200 V -->
      <g transform="translate(44.819688 103.6593) scale(0.14 -0.14)">
       <defs>
        <path id="DejaVuSans-2212" d="M 678 2272 
L 4684 2272 
L 4684 1741 
L 678 1741 
L 678 2272 
z
" transform="scale(0.015625)"/>
        <path id="DejaVuSans-32" d="M 1228 531 
L 3431 531 
L 3431 0 
L 469 0 
L 469 531 
Q 828 903 1448 1529 
Q 2069 2156 2228 2338 
Q 2531 2678 2651 2914 
Q 2772 3150 2772 3378 
Q 2772 3750 2511 3984 
Q 2250 4219 1831 4219 
Q 1534 4219 1204 4116 
Q 875 4013 500 3803 
L 500 4441 
Q 881 4594 1212 4672 
Q 1544 4750 1819 4750 
Q 2544 4750 2975 4387 
Q 3406 4025 3406 3419 
Q 3406 3131 3298 2873 
Q 3191 2616 2906 2266 
Q 2828 2175 2409 1742 
Q 1991 1309 1228 531 
z
" transform="scale(0.015625)"/>
        <path id="DejaVuSans-30" d="M 2034 4250 
Q 1547 4250 1301 3770 
Q 1056 3291 1056 2328 
Q 1056 1369 1301 889 
Q 1547 409 2034 409 
Q 2525 409 2770 889 
Q 3016 1369 3016 2328 
Q 3016 3291 2770 3770 
Q 2525 4250 2034 4250 
z
M 2034 4750 
Q 2819 4750 3233 4129 
Q 3647 3509 3647 2328 
Q 3647 1150 3233 529 
Q 2819 -91 2034 -91 
Q 1250 -91 836 529 
Q 422 1150 422 2328 
Q 422 3509 836 4129 
Q 1250 4750 2034 4750 
z
" transform="scale(0.015625)"/>
        <path id="DejaVuSans-20" transform="scale(0.015625)"/>
        <path id="DejaVuSans-56" d="M 1831 0 
L 50 4666 
L 709 4666 
L 2188 738 
L 3669 4666 
L 4325 4666 
L 2547 0 
L 1831 0 
z
" transform="scale(0.015625)"/>
       </defs>
       <use xlink:href="#DejaVuSans-2212"/>
       <use xlink:href="#DejaVuSans-32" x="83.789062"/>
       <use xlink:href="#DejaVuSans-30" x="147.412109"/>
       <use xlink:href="#DejaVuSans-30" x="211.035156"/>
       <use xlink:href="#DejaVuSans-20" x="274.658203"/>
       <use xlink:href="#DejaVuSans-56" x="306.445312"/>
      </g>
     </g>
    </g>
    <g id="ytick_2">
     <g id="line2d_15">
      <path d="M 100.8 45.027377 
L 987.84 45.027377 
" clip-path="url(#p39d0d79204)" style="fill: none; stroke-dasharray: 1.85,0.8; stroke-dashoffset: 0; stroke: #b2b2b2; stroke-width: 0.5"/>
     </g>
     <g id="line2d_16">
      <g>
       <use xlink:href="#m3652f37b14" x="100.8" y="45.027377" style="stroke: #000000; stroke-width: 0.8"/>
      </g>
     </g>
     <g id="text_2">
      <!-- 0 V -->
      <g transform="translate(74.36625 50.346284) scale(0.14 -0.14)">
       <use xlink:href="#DejaVuSans-30"/>
       <use xlink:href="#DejaVuSans-20" x="63.623047"/>
       <use xlink:href="#DejaVuSans-56" x="95.410156"/>
      </g>
     </g>
    </g>
    <g id="text_3">
     <g id="patch_3">
      <path d="M 34.8768 131.080205 
L 34.8768 39.41083 
L 11.247425 39.41083 
L 11.247425 131.080205 
z
" style="fill: #ffff00; opacity: 0.2; stroke: #eeeeee; stroke-width: 0.5; stroke-linejoin: miter"/>
     </g>
     <!-- VPULSE BBI -->
     <g transform="translate(26.925238 126.040205) rotate(-90) scale(0.14 -0.14)">
      <defs>
       <path id="DejaVuSans-50" d="M 1259 4147 
L 1259 2394 
L 2053 2394 
Q 2494 2394 2734 2622 
Q 2975 2850 2975 3272 
Q 2975 3691 2734 3919 
Q 2494 4147 2053 4147 
L 1259 4147 
z
M 628 4666 
L 2053 4666 
Q 2838 4666 3239 4311 
Q 3641 3956 3641 3272 
Q 3641 2581 3239 2228 
Q 2838 1875 2053 1875 
L 1259 1875 
L 1259 0 
L 628 0 
L 628 4666 
z
" transform="scale(0.015625)"/>
       <path id="DejaVuSans-55" d="M 556 4666 
L 1191 4666 
L 1191 1831 
Q 1191 1081 1462 751 
Q 1734 422 2344 422 
Q 2950 422 3222 751 
Q 3494 1081 3494 1831 
L 3494 4666 
L 4128 4666 
L 4128 1753 
Q 4128 841 3676 375 
Q 3225 -91 2344 -91 
Q 1459 -91 1007 375 
Q 556 841 556 1753 
L 556 4666 
z
" transform="scale(0.015625)"/>
       <path id="DejaVuSans-4c" d="M 628 4666 
L 1259 4666 
L 1259 531 
L 3531 531 
L 3531 0 
L 628 0 
L 628 4666 
z
" transform="scale(0.015625)"/>
       <path id="DejaVuSans-53" d="M 3425 4513 
L 3425 3897 
Q 3066 4069 2747 4153 
Q 2428 4238 2131 4238 
Q 1616 4238 1336 4038 
Q 1056 3838 1056 3469 
Q 1056 3159 1242 3001 
Q 1428 2844 1947 2747 
L 2328 2669 
Q 3034 2534 3370 2195 
Q 3706 1856 3706 1288 
Q 3706 609 3251 259 
Q 2797 -91 1919 -91 
Q 1588 -91 1214 -16 
Q 841 59 441 206 
L 441 856 
Q 825 641 1194 531 
Q 1563 422 1919 422 
Q 2459 422 2753 634 
Q 3047 847 3047 1241 
Q 3047 1584 2836 1778 
Q 2625 1972 2144 2069 
L 1759 2144 
Q 1053 2284 737 2584 
Q 422 2884 422 3419 
Q 422 4038 858 4394 
Q 1294 4750 2059 4750 
Q 2388 4750 2728 4690 
Q 3069 4631 3425 4513 
z
" transform="scale(0.015625)"/>
       <path id="DejaVuSans-45" d="M 628 4666 
L 3578 4666 
L 3578 4134 
L 1259 4134 
L 1259 2753 
L 3481 2753 
L 3481 2222 
L 1259 2222 
L 1259 531 
L 3634 531 
L 3634 0 
L 628 0 
L 628 4666 
z
" transform="scale(0.015625)"/>
       <path id="DejaVuSans-42" d="M 1259 2228 
L 1259 519 
L 2272 519 
Q 2781 519 3026 730 
Q 3272 941 3272 1375 
Q 3272 1813 3026 2020 
Q 2781 2228 2272 2228 
L 1259 2228 
z
M 1259 4147 
L 1259 2741 
L 2194 2741 
Q 2656 2741 2882 2914 
Q 3109 3088 3109 3444 
Q 3109 3797 2882 3972 
Q 2656 4147 2194 4147 
L 1259 4147 
z
M 628 4666 
L 2241 4666 
Q 2963 4666 3353 4366 
Q 3744 4066 3744 3513 
Q 3744 3084 3544 2831 
Q 3344 2578 2956 2516 
Q 3422 2416 3680 2098 
Q 3938 1781 3938 1306 
Q 3938 681 3513 340 
Q 3088 0 2303 0 
L 628 0 
L 628 4666 
z
" transform="scale(0.015625)"/>
       <path id="DejaVuSans-49" d="M 628 4666 
L 1259 4666 
L 1259 0 
L 628 0 
L 628 4666 
z
" transform="scale(0.015625)"/>
      </defs>
      <use xlink:href="#DejaVuSans-56"/>
      <use xlink:href="#DejaVuSans-50" x="68.408203"/>
      <use xlink:href="#DejaVuSans-55" x="128.710938"/>
      <use xlink:href="#DejaVuSans-4c" x="201.904297"/>
      <use xlink:href="#DejaVuSans-53" x="257.617188"/>
      <use xlink:href="#DejaVuSans-45" x="321.09375"/>
      <use xlink:href="#DejaVuSans-20" x="384.277344"/>
      <use xlink:href="#DejaVuSans-42" x="416.064453"/>
      <use xlink:href="#DejaVuSans-42" x="484.667969"/>
      <use xlink:href="#DejaVuSans-49" x="553.271484"/>
     </g>
    </g>
   </g>
   <g id="line2d_17">
    <path d="M 141.12 45.027377 
L 270.176256 45.136282 
L 270.660096 46.425538 
L 278.885376 69.006772 
L 286.304256 89.863624 
L 287.917056 94.440546 
L 289.723392 99.673219 
L 293.20704 110.807642 
L 294.81984 115.952349 
L 296.077824 119.585631 
L 296.529408 119.80688 
L 297.593856 120.297359 
L 298.077696 120.526605 
L 299.142144 121.017085 
L 299.722752 121.272988 
L 300.593664 121.656841 
L 301.174272 121.912744 
L 302.012928 122.269941 
L 303.593472 122.936354 
L 304.238592 123.202919 
L 305.335296 123.629423 
L 306.077184 123.922644 
L 307.173888 124.349149 
L 308.077056 124.677024 
L 308.754432 124.943589 
L 309.560832 125.25547 
L 310.915584 125.804594 
L 313.560576 126.790885 
L 314.17344 127.022796 
L 316.1088 127.395987 
L 334.591488 127.289361 
L 334.81728 126.801547 
L 353.106432 75.087922 
L 356.848128 63.292417 
L 360.557568 51.617666 
L 365.170176 49.3412 
L 370.524672 46.984578 
L 379.233792 43.484472 
L 380.104704 43.268927 
L 394.394112 43.108189 
L 401.200128 43.184799 
L 416.553984 43.746186 
L 444.3264 44.46146 
L 469.96992 44.774399 
L 505.580544 44.945888 
L 553.609728 44.953885 
L 947.52 44.953885 
L 947.52 44.953885 
" clip-path="url(#p39d0d79204)" style="fill: none; stroke: #ff0000; stroke-width: 2; stroke-linecap: square"/>
   </g>
   <g id="patch_4">
    <path d="M 100.8 131.611034 
L 100.8 38.88 
" style="fill: none; stroke: #bcbcbc; stroke-width: 0.8; stroke-linejoin: miter; stroke-linecap: square"/>
   </g>
   <g id="patch_5">
    <path d="M 987.84 131.611034 
L 987.84 38.88 
" style="fill: none; stroke: #bcbcbc; stroke-width: 0.8; stroke-linejoin: miter; stroke-linecap: square"/>
   </g>
   <g id="patch_6">
    <path d="M 100.8 131.611034 
L 987.84 131.611034 
" style="fill: none; stroke: #bcbcbc; stroke-width: 0.8; stroke-linejoin: miter; stroke-linecap: square"/>
   </g>
   <g id="patch_7">
    <path d="M 100.8 38.88 
L 987.84 38.88 
" style="fill: none; stroke: #bcbcbc; stroke-width: 0.8; stroke-linejoin: miter; stroke-linecap: square"/>
   </g>
  </g>
  <g id="axes_2">
   <g id="patch_8">
    <path d="M 100.8 242.888276 
L 987.84 242.888276 
L 987.84 150.157241 
L 100.8 150.157241 
z
" style="fill: #eeeeee"/>
   </g>
   <g id="matplotlib.axis_3">
    <g id="xtick_7">
     <g id="line2d_18">
      <path d="M 141.12 242.888276 
L 141.12 150.157241 
" clip-path="url(#p119c04812b)" style="fill: none; stroke-dasharray: 1.85,0.8; stroke-dashoffset: 0; stroke: #b2b2b2; stroke-width: 0.5"/>
     </g>
     <g id="line2d_19">
      <g>
       <use xlink:href="#m6a999decb9" x="141.12" y="242.888276" style="stroke: #000000; stroke-width: 0.8"/>
      </g>
     </g>
    </g>
    <g id="xtick_8">
     <g id="line2d_20">
      <path d="M 302.4 242.888276 
L 302.4 150.157241 
" clip-path="url(#p119c04812b)" style="fill: none; stroke-dasharray: 1.85,0.8; stroke-dashoffset: 0; stroke: #b2b2b2; stroke-width: 0.5"/>
     </g>
     <g id="line2d_21">
      <g>
       <use xlink:href="#m6a999decb9" x="302.4" y="242.888276" style="stroke: #000000; stroke-width: 0.8"/>
      </g>
     </g>
    </g>
    <g id="xtick_9">
     <g id="line2d_22">
      <path d="M 463.68 242.888276 
L 463.68 150.157241 
" clip-path="url(#p119c04812b)" style="fill: none; stroke-dasharray: 1.85,0.8; stroke-dashoffset: 0; stroke: #b2b2b2; stroke-width: 0.5"/>
     </g>
     <g id="line2d_23">
      <g>
       <use xlink:href="#m6a999decb9" x="463.68" y="242.888276" style="stroke: #000000; stroke-width: 0.8"/>
      </g>
     </g>
    </g>
    <g id="xtick_10">
     <g id="line2d_24">
      <path d="M 624.96 242.888276 
L 624.96 150.157241 
" clip-path="url(#p119c04812b)" style="fill: none; stroke-dasharray: 1.85,0.8; stroke-dashoffset: 0; stroke: #b2b2b2; stroke-width: 0.5"/>
     </g>
     <g id="line2d_25">
      <g>
       <use xlink:href="#m6a999decb9" x="624.96" y="242.888276" style="stroke: #000000; stroke-width: 0.8"/>
      </g>
     </g>
    </g>
    <g id="xtick_11">
     <g id="line2d_26">
      <path d="M 786.24 242.888276 
L 786.24 150.157241 
" clip-path="url(#p119c04812b)" style="fill: none; stroke-dasharray: 1.85,0.8; stroke-dashoffset: 0; stroke: #b2b2b2; stroke-width: 0.5"/>
     </g>
     <g id="line2d_27">
      <g>
       <use xlink:href="#m6a999decb9" x="786.24" y="242.888276" style="stroke: #000000; stroke-width: 0.8"/>
      </g>
     </g>
    </g>
    <g id="xtick_12">
     <g id="line2d_28">
      <path d="M 947.52 242.888276 
L 947.52 150.157241 
" clip-path="url(#p119c04812b)" style="fill: none; stroke-dasharray: 1.85,0.8; stroke-dashoffset: 0; stroke: #b2b2b2; stroke-width: 0.5"/>
     </g>
     <g id="line2d_29">
      <g>
       <use xlink:href="#m6a999decb9" x="947.52" y="242.888276" style="stroke: #000000; stroke-width: 0.8"/>
      </g>
     </g>
    </g>
   </g>
   <g id="matplotlib.axis_4">
    <g id="ytick_3">
     <g id="line2d_30">
      <path d="M 100.8 219.354487 
L 987.84 219.354487 
" clip-path="url(#p119c04812b)" style="fill: none; stroke-dasharray: 1.85,0.8; stroke-dashoffset: 0; stroke: #b2b2b2; stroke-width: 0.5"/>
     </g>
     <g id="line2d_31">
      <g>
       <use xlink:href="#m3652f37b14" x="100.8" y="219.354487" style="stroke: #000000; stroke-width: 0.8"/>
      </g>
     </g>
     <g id="text_4">
      <!-- 0 V -->
      <g transform="translate(74.36625 224.673393) scale(0.14 -0.14)">
       <use xlink:href="#DejaVuSans-30"/>
       <use xlink:href="#DejaVuSans-20" x="63.623047"/>
       <use xlink:href="#DejaVuSans-56" x="95.410156"/>
      </g>
     </g>
    </g>
    <g id="ytick_4">
     <g id="line2d_32">
      <path d="M 100.8 185.782365 
L 987.84 185.782365 
" clip-path="url(#p119c04812b)" style="fill: none; stroke-dasharray: 1.85,0.8; stroke-dashoffset: 0; stroke: #b2b2b2; stroke-width: 0.5"/>
     </g>
     <g id="line2d_33">
      <g>
       <use xlink:href="#m3652f37b14" x="100.8" y="185.782365" style="stroke: #000000; stroke-width: 0.8"/>
      </g>
     </g>
     <g id="text_5">
      <!-- 1 V -->
      <g transform="translate(74.36625 191.101272) scale(0.14 -0.14)">
       <defs>
        <path id="DejaVuSans-31" d="M 794 531 
L 1825 531 
L 1825 4091 
L 703 3866 
L 703 4441 
L 1819 4666 
L 2450 4666 
L 2450 531 
L 3481 531 
L 3481 0 
L 794 0 
L 794 531 
z
" transform="scale(0.015625)"/>
       </defs>
       <use xlink:href="#DejaVuSans-31"/>
       <use xlink:href="#DejaVuSans-20" x="63.623047"/>
       <use xlink:href="#DejaVuSans-56" x="95.410156"/>
      </g>
     </g>
    </g>
    <g id="ytick_5">
     <g id="line2d_34">
      <path d="M 100.8 152.210244 
L 987.84 152.210244 
" clip-path="url(#p119c04812b)" style="fill: none; stroke-dasharray: 1.85,0.8; stroke-dashoffset: 0; stroke: #b2b2b2; stroke-width: 0.5"/>
     </g>
     <g id="line2d_35">
      <g>
       <use xlink:href="#m3652f37b14" x="100.8" y="152.210244" style="stroke: #000000; stroke-width: 0.8"/>
      </g>
     </g>
     <g id="text_6">
      <!-- 2 V -->
      <g transform="translate(74.36625 157.52915) scale(0.14 -0.14)">
       <use xlink:href="#DejaVuSans-32"/>
       <use xlink:href="#DejaVuSans-20" x="63.623047"/>
       <use xlink:href="#DejaVuSans-56" x="95.410156"/>
      </g>
     </g>
    </g>
    <g id="text_7">
     <g id="patch_9">
      <path d="M 34.8768 224.531509 
L 34.8768 168.514009 
L 11.247425 168.514009 
L 11.247425 224.531509 
z
" style="fill: #ffff00; opacity: 0.2; stroke: #eeeeee; stroke-width: 0.5; stroke-linejoin: miter"/>
     </g>
     <!-- DFF IN -->
     <g transform="translate(26.925238 219.491509) rotate(-90) scale(0.14 -0.14)">
      <defs>
       <path id="DejaVuSans-44" d="M 1259 4147 
L 1259 519 
L 2022 519 
Q 2988 519 3436 956 
Q 3884 1394 3884 2338 
Q 3884 3275 3436 3711 
Q 2988 4147 2022 4147 
L 1259 4147 
z
M 628 4666 
L 1925 4666 
Q 3281 4666 3915 4102 
Q 4550 3538 4550 2338 
Q 4550 1131 3912 565 
Q 3275 0 1925 0 
L 628 0 
L 628 4666 
z
" transform="scale(0.015625)"/>
       <path id="DejaVuSans-46" d="M 628 4666 
L 3309 4666 
L 3309 4134 
L 1259 4134 
L 1259 2759 
L 3109 2759 
L 3109 2228 
L 1259 2228 
L 1259 0 
L 628 0 
L 628 4666 
z
" transform="scale(0.015625)"/>
       <path id="DejaVuSans-4e" d="M 628 4666 
L 1478 4666 
L 3547 763 
L 3547 4666 
L 4159 4666 
L 4159 0 
L 3309 0 
L 1241 3903 
L 1241 0 
L 628 0 
L 628 4666 
z
" transform="scale(0.015625)"/>
      </defs>
      <use xlink:href="#DejaVuSans-44"/>
      <use xlink:href="#DejaVuSans-46" x="77.001953"/>
      <use xlink:href="#DejaVuSans-46" x="134.521484"/>
      <use xlink:href="#DejaVuSans-20" x="192.041016"/>
      <use xlink:href="#DejaVuSans-49" x="223.828125"/>
      <use xlink:href="#DejaVuSans-4e" x="253.320312"/>
     </g>
    </g>
   </g>
   <g id="line2d_36">
    <path d="M 141.12 219.305458 
L 221.953536 219.259421 
L 224.437248 200.553428 
L 225.404928 194.862953 
L 228.243456 182.351295 
L 229.598208 181.095697 
L 231.178752 180.232894 
L 236.565504 179.783027 
L 243.661824 179.672239 
L 245.1456 179.628596 
L 248.53248 179.517808 
L 250.46784 179.427163 
L 252.435456 179.316375 
L 254.209536 179.057869 
L 254.693376 178.524073 
L 255.499776 178.148065 
L 256.11264 178.131279 
L 257.435136 178.379713 
L 260.112384 178.829579 
L 262.950912 178.940367 
L 263.886336 179.1418 
L 264.595968 188.592016 
L 265.112064 191.084075 
L 265.660416 197.067298 
L 266.692608 206.736069 
L 267.466752 212.241897 
L 268.079616 215.156965 
L 268.660224 216.888279 
L 269.208576 217.880705 
L 269.789184 218.500547 
L 270.369792 219.085188 
L 271.208448 220.180697 
L 272.40192 221.192796 
L 273.143808 221.550473 
L 274.176 221.850239 
L 275.724288 222.045528 
L 278.466048 222.270259 
L 279.207936 222.655332 
L 279.691776 222.919175 
L 281.949696 224.014969 
L 282.917376 224.533994 
L 285.30432 225.849686 
L 285.917184 225.817792 
L 286.465536 225.557272 
L 287.0784 224.999639 
L 287.788032 224.335919 
L 287.981568 224.448049 
L 288.433152 225.189322 
L 289.01376 226.078983 
L 289.33632 226.419404 
L 289.626624 227.035117 
L 290.239488 228.582792 
L 291.787776 231.361221 
L 291.949056 231.667734 
L 292.23936 232.385506 
L 293.239296 234.239023 
L 296.013312 238.673229 
L 296.529408 238.234441 
L 297.303552 236.974144 
L 297.626112 236.348695 
L 297.755136 236.251336 
L 298.077696 235.910579 
L 298.819584 235.083698 
L 299.367936 234.176915 
L 299.561472 234.120178 
L 301.045248 232.872973 
L 301.335552 232.480851 
L 301.658112 231.935975 
L 301.948416 231.785237 
L 302.174208 231.674784 
L 302.432256 231.396471 
L 303.657984 230.54844 
L 304.109568 230.017329 
L 304.33536 229.696379 
L 304.49664 229.588613 
L 304.754688 229.224355 
L 305.206272 229.034337 
L 305.593344 228.878898 
L 306.91584 227.748189 
L 307.657728 226.929029 
L 307.819008 226.858863 
L 308.173824 226.701075 
L 309.044736 226.04944 
L 310.173696 225.058726 
L 310.528512 224.530973 
L 310.851072 224.444021 
L 311.367168 224.251988 
L 312.367104 223.52213 
L 313.786368 222.321289 
L 314.302464 221.985635 
L 315.399168 221.103192 
L 316.59264 219.726567 
L 319.01184 216.324536 
L 321.205248 213.456873 
L 322.72128 211.65875 
L 324.527616 209.948922 
L 325.14048 209.670944 
L 325.7856 209.568214 
L 326.075904 209.59205 
L 326.946816 209.787104 
L 327.785472 210.279271 
L 328.624128 211.031287 
L 329.785344 212.407744 
L 332.301312 215.55278 
L 332.72064 215.98586 
L 333.075456 216.329303 
L 334.591488 217.322669 
L 334.81728 217.186668 
L 335.752704 216.331284 
L 336.817152 215.984182 
L 338.171904 215.713926 
L 339.623424 215.686061 
L 341.42976 215.866344 
L 341.881344 215.927445 
L 342.978048 216.05747 
L 343.590912 216.148887 
L 344.526336 216.24121 
L 345.364992 216.338938 
L 346.235904 216.406049 
L 347.429376 216.508041 
L 347.71968 216.512036 
L 348.493824 207.418255 
L 350.13888 189.643495 
L 351.687168 175.452224 
L 352.55808 168.801586 
L 353.2032 165.615592 
L 353.84832 163.540835 
L 354.848256 161.325075 
L 355.751424 159.941903 
L 357.041664 158.370728 
L 357.71904 157.58514 
L 360.62208 154.426004 
L 361.234944 154.798654 
L 362.009088 155.08066 
L 362.815488 155.218306 
L 365.46048 155.879677 
L 369.040896 157.111774 
L 370.911744 157.776502 
L 371.492352 158.004792 
L 373.20192 158.599019 
L 375.072768 159.293961 
L 376.330752 164.67893 
L 376.653312 164.840076 
L 376.975872 164.73936 
L 377.427456 164.282779 
L 379.008 162.479956 
L 379.717632 162.093876 
L 380.072448 162.033447 
L 380.749824 162.070376 
L 381.943296 162.305381 
L 383.265792 162.69146 
L 389.716992 164.819933 
L 392.200704 165.736452 
L 395.265024 166.807402 
L 396.006912 167.069265 
L 406.58688 170.258616 
L 408.457728 170.758841 
L 409.941504 171.107991 
L 415.45728 172.165513 
L 415.94112 171.61493 
L 416.521728 171.433641 
L 417.23136 171.61493 
L 419.940864 172.9041 
L 421.037568 173.239821 
L 421.779456 173.431182 
L 423.03744 173.716545 
L 423.585792 173.827333 
L 426.650112 174.354415 
L 427.392 174.461846 
L 429.069312 174.700208 
L 429.8112 174.810996 
L 431.230464 174.995643 
L 432.133632 175.103074 
L 433.423872 175.260863 
L 447.06816 176.570175 
L 447.681024 176.613819 
L 448.51968 176.677606 
L 451.777536 176.905896 
L 452.3904 176.952897 
L 455.13216 177.13083 
L 455.712768 177.164402 
L 456.486912 178.03392 
L 457.035264 178.248781 
L 458.164224 178.258853 
L 460.647936 177.597482 
L 467.55072 177.704913 
L 467.970048 177.725056 
L 468.744192 177.755271 
L 471.453696 177.866059 
L 473.19552 177.936561 
L 476.453376 178.043991 
L 477.163008 178.080921 
L 480.549888 178.184994 
L 480.969216 178.20178 
L 485.162496 178.312568 
L 486.614016 178.352855 
L 491.774976 178.463643 
L 493.097472 178.493858 
L 494.097408 178.500572 
L 496.09728 178.419999 
L 496.710144 177.825773 
L 497.161728 177.631054 
L 497.677824 177.573982 
L 498.903552 177.812344 
L 502.322688 178.413285 
L 504 178.524073 
L 505.741824 178.594574 
L 536.352768 178.705362 
L 537.449472 179.588309 
L 538.159104 179.69574 
L 539.417088 179.71924 
L 541.126656 179.43052 
L 542.900736 179.172015 
L 547.577856 178.796007 
L 576.672768 178.708719 
L 577.285632 178.060777 
L 578.092032 177.761986 
L 579.382272 177.869416 
L 580.76928 178.188352 
L 582.38208 178.413285 
L 585.252864 178.601289 
L 616.992768 178.705362 
L 617.928192 179.531236 
L 618.863616 179.709169 
L 620.153856 179.739384 
L 622.927872 179.272731 
L 628.83072 178.769149 
L 657.345024 178.658361 
L 657.86112 178.097707 
L 658.409472 177.825773 
L 660.344832 177.933203 
L 663.602688 178.500572 
L 665.76384 178.614717 
L 697.632768 178.705362 
L 698.568192 179.531236 
L 699.503616 179.709169 
L 700.793856 179.739384 
L 703.567872 179.272731 
L 709.47072 178.769149 
L 737.985024 178.658361 
L 738.50112 178.097707 
L 739.049472 177.825773 
L 740.984832 177.933203 
L 744.242688 178.500572 
L 746.40384 178.614717 
L 778.272768 178.705362 
L 779.208192 179.531236 
L 780.143616 179.709169 
L 781.433856 179.739384 
L 784.207872 179.272731 
L 790.11072 178.769149 
L 818.625024 178.658361 
L 819.14112 178.097707 
L 819.689472 177.825773 
L 821.624832 177.933203 
L 824.882688 178.500572 
L 827.04384 178.614717 
L 858.912768 178.705362 
L 859.848192 179.531236 
L 860.783616 179.709169 
L 862.073856 179.739384 
L 864.847872 179.272731 
L 870.75072 178.769149 
L 899.265024 178.658361 
L 899.78112 178.097707 
L 900.329472 177.825773 
L 902.264832 177.933203 
L 905.522688 178.500572 
L 907.68384 178.614717 
L 939.552768 178.705362 
L 940.617216 179.561451 
L 941.55264 179.746098 
L 943.488 179.63531 
L 946.455552 179.128371 
L 947.52 178.963868 
L 947.52 178.963868 
" clip-path="url(#p119c04812b)" style="fill: none; stroke: #008000; stroke-width: 2; stroke-linecap: square"/>
   </g>
   <g id="patch_10">
    <path d="M 100.8 242.888276 
L 100.8 150.157241 
" style="fill: none; stroke: #bcbcbc; stroke-width: 0.8; stroke-linejoin: miter; stroke-linecap: square"/>
   </g>
   <g id="patch_11">
    <path d="M 987.84 242.888276 
L 987.84 150.157241 
" style="fill: none; stroke: #bcbcbc; stroke-width: 0.8; stroke-linejoin: miter; stroke-linecap: square"/>
   </g>
   <g id="patch_12">
    <path d="M 100.8 242.888276 
L 987.84 242.888276 
" style="fill: none; stroke: #bcbcbc; stroke-width: 0.8; stroke-linejoin: miter; stroke-linecap: square"/>
   </g>
   <g id="patch_13">
    <path d="M 100.8 150.157241 
L 987.84 150.157241 
" style="fill: none; stroke: #bcbcbc; stroke-width: 0.8; stroke-linejoin: miter; stroke-linecap: square"/>
   </g>
  </g>
  <g id="axes_3">
   <g id="patch_14">
    <path d="M 100.8 354.165517 
L 987.84 354.165517 
L 987.84 261.434483 
L 100.8 261.434483 
z
" style="fill: #eeeeee"/>
   </g>
   <g id="matplotlib.axis_5">
    <g id="xtick_13">
     <g id="line2d_37">
      <path d="M 141.12 354.165517 
L 141.12 261.434483 
" clip-path="url(#pc105f7a68a)" style="fill: none; stroke-dasharray: 1.85,0.8; stroke-dashoffset: 0; stroke: #b2b2b2; stroke-width: 0.5"/>
     </g>
     <g id="line2d_38">
      <g>
       <use xlink:href="#m6a999decb9" x="141.12" y="354.165517" style="stroke: #000000; stroke-width: 0.8"/>
      </g>
     </g>
    </g>
    <g id="xtick_14">
     <g id="line2d_39">
      <path d="M 302.4 354.165517 
L 302.4 261.434483 
" clip-path="url(#pc105f7a68a)" style="fill: none; stroke-dasharray: 1.85,0.8; stroke-dashoffset: 0; stroke: #b2b2b2; stroke-width: 0.5"/>
     </g>
     <g id="line2d_40">
      <g>
       <use xlink:href="#m6a999decb9" x="302.4" y="354.165517" style="stroke: #000000; stroke-width: 0.8"/>
      </g>
     </g>
    </g>
    <g id="xtick_15">
     <g id="line2d_41">
      <path d="M 463.68 354.165517 
L 463.68 261.434483 
" clip-path="url(#pc105f7a68a)" style="fill: none; stroke-dasharray: 1.85,0.8; stroke-dashoffset: 0; stroke: #b2b2b2; stroke-width: 0.5"/>
     </g>
     <g id="line2d_42">
      <g>
       <use xlink:href="#m6a999decb9" x="463.68" y="354.165517" style="stroke: #000000; stroke-width: 0.8"/>
      </g>
     </g>
    </g>
    <g id="xtick_16">
     <g id="line2d_43">
      <path d="M 624.96 354.165517 
L 624.96 261.434483 
" clip-path="url(#pc105f7a68a)" style="fill: none; stroke-dasharray: 1.85,0.8; stroke-dashoffset: 0; stroke: #b2b2b2; stroke-width: 0.5"/>
     </g>
     <g id="line2d_44">
      <g>
       <use xlink:href="#m6a999decb9" x="624.96" y="354.165517" style="stroke: #000000; stroke-width: 0.8"/>
      </g>
     </g>
    </g>
    <g id="xtick_17">
     <g id="line2d_45">
      <path d="M 786.24 354.165517 
L 786.24 261.434483 
" clip-path="url(#pc105f7a68a)" style="fill: none; stroke-dasharray: 1.85,0.8; stroke-dashoffset: 0; stroke: #b2b2b2; stroke-width: 0.5"/>
     </g>
     <g id="line2d_46">
      <g>
       <use xlink:href="#m6a999decb9" x="786.24" y="354.165517" style="stroke: #000000; stroke-width: 0.8"/>
      </g>
     </g>
    </g>
    <g id="xtick_18">
     <g id="line2d_47">
      <path d="M 947.52 354.165517 
L 947.52 261.434483 
" clip-path="url(#pc105f7a68a)" style="fill: none; stroke-dasharray: 1.85,0.8; stroke-dashoffset: 0; stroke: #b2b2b2; stroke-width: 0.5"/>
     </g>
     <g id="line2d_48">
      <g>
       <use xlink:href="#m6a999decb9" x="947.52" y="354.165517" style="stroke: #000000; stroke-width: 0.8"/>
      </g>
     </g>
    </g>
   </g>
   <g id="matplotlib.axis_6">
    <g id="ytick_6">
     <g id="line2d_49">
      <path d="M 100.8 344.750924 
L 987.84 344.750924 
" clip-path="url(#pc105f7a68a)" style="fill: none; stroke-dasharray: 1.85,0.8; stroke-dashoffset: 0; stroke: #b2b2b2; stroke-width: 0.5"/>
     </g>
     <g id="line2d_50">
      <g>
       <use xlink:href="#m3652f37b14" x="100.8" y="344.750924" style="stroke: #000000; stroke-width: 0.8"/>
      </g>
     </g>
     <g id="text_8">
      <!-- 0 V -->
      <g transform="translate(74.36625 350.069831) scale(0.14 -0.14)">
       <use xlink:href="#DejaVuSans-30"/>
       <use xlink:href="#DejaVuSans-20" x="63.623047"/>
       <use xlink:href="#DejaVuSans-56" x="95.410156"/>
      </g>
     </g>
    </g>
    <g id="ytick_7">
     <g id="line2d_51">
      <path d="M 100.8 303.706199 
L 987.84 303.706199 
" clip-path="url(#pc105f7a68a)" style="fill: none; stroke-dasharray: 1.85,0.8; stroke-dashoffset: 0; stroke: #b2b2b2; stroke-width: 0.5"/>
     </g>
     <g id="line2d_52">
      <g>
       <use xlink:href="#m3652f37b14" x="100.8" y="303.706199" style="stroke: #000000; stroke-width: 0.8"/>
      </g>
     </g>
     <g id="text_9">
      <!-- 1 V -->
      <g transform="translate(74.36625 309.025105) scale(0.14 -0.14)">
       <use xlink:href="#DejaVuSans-31"/>
       <use xlink:href="#DejaVuSans-20" x="63.623047"/>
       <use xlink:href="#DejaVuSans-56" x="95.410156"/>
      </g>
     </g>
    </g>
    <g id="ytick_8">
     <g id="line2d_53">
      <path d="M 100.8 262.661474 
L 987.84 262.661474 
" clip-path="url(#pc105f7a68a)" style="fill: none; stroke-dasharray: 1.85,0.8; stroke-dashoffset: 0; stroke: #b2b2b2; stroke-width: 0.5"/>
     </g>
     <g id="line2d_54">
      <g>
       <use xlink:href="#m3652f37b14" x="100.8" y="262.661474" style="stroke: #000000; stroke-width: 0.8"/>
      </g>
     </g>
     <g id="text_10">
      <!-- 2 V -->
      <g transform="translate(74.36625 267.98038) scale(0.14 -0.14)">
       <use xlink:href="#DejaVuSans-32"/>
       <use xlink:href="#DejaVuSans-20" x="63.623047"/>
       <use xlink:href="#DejaVuSans-56" x="95.410156"/>
      </g>
     </g>
    </g>
    <g id="text_11">
     <g id="patch_15">
      <path d="M 34.8768 342.395313 
L 34.8768 273.204688 
L 11.247425 273.204688 
L 11.247425 342.395313 
z
" style="fill: #ffff00; opacity: 0.2; stroke: #eeeeee; stroke-width: 0.5; stroke-linejoin: miter"/>
     </g>
     <!-- CLK BUF -->
     <g transform="translate(26.925238 337.355313) rotate(-90) scale(0.14 -0.14)">
      <defs>
       <path id="DejaVuSans-43" d="M 4122 4306 
L 4122 3641 
Q 3803 3938 3442 4084 
Q 3081 4231 2675 4231 
Q 1875 4231 1450 3742 
Q 1025 3253 1025 2328 
Q 1025 1406 1450 917 
Q 1875 428 2675 428 
Q 3081 428 3442 575 
Q 3803 722 4122 1019 
L 4122 359 
Q 3791 134 3420 21 
Q 3050 -91 2638 -91 
Q 1578 -91 968 557 
Q 359 1206 359 2328 
Q 359 3453 968 4101 
Q 1578 4750 2638 4750 
Q 3056 4750 3426 4639 
Q 3797 4528 4122 4306 
z
" transform="scale(0.015625)"/>
       <path id="DejaVuSans-4b" d="M 628 4666 
L 1259 4666 
L 1259 2694 
L 3353 4666 
L 4166 4666 
L 1850 2491 
L 4331 0 
L 3500 0 
L 1259 2247 
L 1259 0 
L 628 0 
L 628 4666 
z
" transform="scale(0.015625)"/>
      </defs>
      <use xlink:href="#DejaVuSans-43"/>
      <use xlink:href="#DejaVuSans-4c" x="69.824219"/>
      <use xlink:href="#DejaVuSans-4b" x="125.537109"/>
      <use xlink:href="#DejaVuSans-20" x="191.113281"/>
      <use xlink:href="#DejaVuSans-42" x="222.900391"/>
      <use xlink:href="#DejaVuSans-55" x="291.503906"/>
      <use xlink:href="#DejaVuSans-46" x="364.697266"/>
     </g>
    </g>
   </g>
   <g id="line2d_55">
    <path d="M 141.12 344.749839 
L 173.376 344.749839 
L 173.601792 295.497254 
L 213.696 295.497254 
L 213.760512 334.784855 
L 213.825024 344.732173 
L 213.889536 344.673108 
L 213.954048 344.837077 
L 214.01856 344.755372 
L 215.437824 344.745533 
L 223.824384 344.749753 
L 254.016 344.749823 
L 254.17728 295.345389 
L 254.241792 295.608075 
L 254.403072 295.489045 
L 254.854656 295.497254 
L 270.240768 295.60397 
L 271.885824 297.873744 
L 273.563136 300.636054 
L 280.46592 311.841674 
L 284.01408 316.971854 
L 287.56224 321.665729 
L 290.207232 324.33692 
L 291.174912 325.16274 
L 292.658688 326.282029 
L 294.368256 327.441543 
L 294.49728 326.670312 
L 294.690816 336.340039 
L 294.916608 349.558083 
L 295.174656 349.388568 
L 295.206912 349.443568 
L 295.432704 349.83103 
L 295.497216 349.745657 
L 295.78752 349.891776 
L 296.013312 349.927896 
L 297.303552 349.345061 
L 299.400192 348.610688 
L 299.916288 348.438506 
L 300.045312 348.401565 
L 307.528704 346.213061 
L 312.0768 345.219655 
L 312.39936 345.160538 
L 318.237696 344.264339 
L 325.7856 344.258839 
L 329.624064 344.30957 
L 334.656 344.328533 
L 334.946304 310.510183 
L 336.333312 307.953097 
L 338.720256 302.971499 
L 341.784576 296.605462 
L 342.461952 295.279717 
L 344.719872 290.928976 
L 350.267904 281.271152 
L 351.26784 279.686826 
L 353.04192 276.965561 
L 360.493056 265.768559 
L 361.944576 265.68647 
L 364.363776 266.408857 
L 365.879808 267.057364 
L 367.815168 267.90699 
L 368.234496 268.091691 
L 369.911808 268.822287 
L 372.39552 269.885345 
L 373.750272 270.451763 
L 374.976 270.919673 
L 375.040512 345.760502 
L 375.169536 345.080091 
L 375.556608 345.079496 
L 380.78208 345.166913 
L 383.169024 345.222939 
L 403.458048 345.060344 
L 407.941632 345.023026 
L 415.296 344.968819 
L 415.425024 287.107712 
L 415.521792 287.31704 
L 420.360192 288.441666 
L 420.844032 288.548382 
L 421.489152 288.687934 
L 422.005248 288.79465 
L 422.650368 288.934202 
L 423.166464 289.040919 
L 423.811584 289.180471 
L 424.424448 289.287187 
L 425.069568 289.426739 
L 425.682432 289.533455 
L 426.230784 289.631963 
L 426.843648 289.738679 
L 427.392 289.837186 
L 427.908096 289.943903 
L 428.456448 290.04241 
L 429.16608 290.149126 
L 429.714432 290.247634 
L 430.424064 290.350245 
L 430.77888 290.411813 
L 431.391744 290.514424 
L 431.74656 290.575991 
L 432.456192 290.678603 
L 432.811008 290.74017 
L 433.617408 290.842782 
L 433.972224 290.904349 
L 434.681856 291.006961 
L 435.036672 291.068528 
L 435.93984 291.17114 
L 436.294656 291.232707 
L 437.101056 291.335319 
L 437.455872 291.396886 
L 438.35904 291.499498 
L 438.617088 291.52002 
L 439.423488 291.622632 
L 439.778304 291.680095 
L 445.519872 292.29987 
L 446.487552 292.402482 
L 446.7456 292.423004 
L 447.745536 292.525616 
L 448.003584 292.546138 
L 449.100288 292.64875 
L 449.358336 292.665168 
L 452.196864 292.915541 
L 453.454848 293.018153 
L 453.712896 293.034571 
L 455.003136 293.141287 
L 455.261184 293.161809 
L 455.616 293.198749 
L 455.648256 298.60434 
L 455.77728 344.75594 
L 455.906304 344.813596 
L 461.90592 344.802251 
L 495.936 344.767574 
L 496.065024 294.610688 
L 496.161792 294.885688 
L 497.06496 294.881583 
L 502.903296 294.988299 
L 503.161344 295.004717 
L 536.256 295.086807 
L 536.385024 345.064416 
L 536.546304 344.825671 
L 536.804352 344.734179 
L 537.159168 344.778828 
L 537.481728 344.761378 
L 576.576 344.761594 
L 576.705024 294.918523 
L 576.769536 295.090911 
L 576.834048 295.123747 
L 576.866304 295.095016 
L 577.05984 295.086807 
L 616.896 295.086807 
L 617.025024 345.064321 
L 617.186304 344.825675 
L 617.444352 344.734177 
L 617.799168 344.778829 
L 618.121728 344.761378 
L 657.216 344.761594 
L 657.37728 294.873374 
L 657.441792 295.33718 
L 657.53856 294.918523 
L 657.603072 295.070389 
L 658.086912 295.086807 
L 697.536 295.086807 
L 697.665024 345.06442 
L 697.826304 344.825659 
L 698.084352 344.734174 
L 698.439168 344.778847 
L 698.761728 344.761379 
L 737.856 344.761594 
L 738.01728 294.873374 
L 738.081792 295.33718 
L 738.17856 294.914419 
L 738.243072 295.070389 
L 738.726912 295.086807 
L 778.176 295.086807 
L 778.305024 345.064346 
L 778.466304 344.825671 
L 778.724352 344.734178 
L 779.079168 344.778828 
L 779.401728 344.761378 
L 818.496 344.761594 
L 818.65728 294.873374 
L 818.721792 295.33718 
L 818.81856 294.914419 
L 818.883072 295.070389 
L 819.366912 295.086807 
L 858.816 295.086807 
L 858.945024 345.064424 
L 859.106304 344.825659 
L 859.364352 344.734174 
L 859.719168 344.778847 
L 860.041728 344.761379 
L 899.136 344.761594 
L 899.29728 294.873374 
L 899.361792 295.33718 
L 899.45856 294.914419 
L 899.523072 295.070389 
L 900.006912 295.086807 
L 939.456 295.086807 
L 939.488256 302.487171 
L 939.61728 344.71278 
L 939.649536 344.832123 
L 939.714048 344.717942 
L 939.810816 344.7349 
L 940.004352 344.786155 
L 940.230144 344.760291 
L 945.9072 344.761596 
L 947.52 344.761584 
L 947.52 344.761584 
" clip-path="url(#pc105f7a68a)" style="fill: none; stroke: #0000ff; stroke-width: 2; stroke-linecap: square"/>
   </g>
   <g id="patch_16">
    <path d="M 100.8 354.165517 
L 100.8 261.434483 
" style="fill: none; stroke: #bcbcbc; stroke-width: 0.8; stroke-linejoin: miter; stroke-linecap: square"/>
   </g>
   <g id="patch_17">
    <path d="M 987.84 354.165517 
L 987.84 261.434483 
" style="fill: none; stroke: #bcbcbc; stroke-width: 0.8; stroke-linejoin: miter; stroke-linecap: square"/>
   </g>
   <g id="patch_18">
    <path d="M 100.8 354.165517 
L 987.84 354.165517 
" style="fill: none; stroke: #bcbcbc; stroke-width: 0.8; stroke-linejoin: miter; stroke-linecap: square"/>
   </g>
   <g id="patch_19">
    <path d="M 100.8 261.434483 
L 987.84 261.434483 
" style="fill: none; stroke: #bcbcbc; stroke-width: 0.8; stroke-linejoin: miter; stroke-linecap: square"/>
   </g>
  </g>
  <g id="axes_4">
   <g id="patch_20">
    <path d="M 100.8 465.442759 
L 987.84 465.442759 
L 987.84 372.711724 
L 100.8 372.711724 
z
" style="fill: #eeeeee"/>
   </g>
   <g id="matplotlib.axis_7">
    <g id="xtick_19">
     <g id="line2d_56">
      <path d="M 141.12 465.442759 
L 141.12 372.711724 
" clip-path="url(#p227cd9036f)" style="fill: none; stroke-dasharray: 1.85,0.8; stroke-dashoffset: 0; stroke: #b2b2b2; stroke-width: 0.5"/>
     </g>
     <g id="line2d_57">
      <g>
       <use xlink:href="#m6a999decb9" x="141.12" y="465.442759" style="stroke: #000000; stroke-width: 0.8"/>
      </g>
     </g>
    </g>
    <g id="xtick_20">
     <g id="line2d_58">
      <path d="M 302.4 465.442759 
L 302.4 372.711724 
" clip-path="url(#p227cd9036f)" style="fill: none; stroke-dasharray: 1.85,0.8; stroke-dashoffset: 0; stroke: #b2b2b2; stroke-width: 0.5"/>
     </g>
     <g id="line2d_59">
      <g>
       <use xlink:href="#m6a999decb9" x="302.4" y="465.442759" style="stroke: #000000; stroke-width: 0.8"/>
      </g>
     </g>
    </g>
    <g id="xtick_21">
     <g id="line2d_60">
      <path d="M 463.68 465.442759 
L 463.68 372.711724 
" clip-path="url(#p227cd9036f)" style="fill: none; stroke-dasharray: 1.85,0.8; stroke-dashoffset: 0; stroke: #b2b2b2; stroke-width: 0.5"/>
     </g>
     <g id="line2d_61">
      <g>
       <use xlink:href="#m6a999decb9" x="463.68" y="465.442759" style="stroke: #000000; stroke-width: 0.8"/>
      </g>
     </g>
    </g>
    <g id="xtick_22">
     <g id="line2d_62">
      <path d="M 624.96 465.442759 
L 624.96 372.711724 
" clip-path="url(#p227cd9036f)" style="fill: none; stroke-dasharray: 1.85,0.8; stroke-dashoffset: 0; stroke: #b2b2b2; stroke-width: 0.5"/>
     </g>
     <g id="line2d_63">
      <g>
       <use xlink:href="#m6a999decb9" x="624.96" y="465.442759" style="stroke: #000000; stroke-width: 0.8"/>
      </g>
     </g>
    </g>
    <g id="xtick_23">
     <g id="line2d_64">
      <path d="M 786.24 465.442759 
L 786.24 372.711724 
" clip-path="url(#p227cd9036f)" style="fill: none; stroke-dasharray: 1.85,0.8; stroke-dashoffset: 0; stroke: #b2b2b2; stroke-width: 0.5"/>
     </g>
     <g id="line2d_65">
      <g>
       <use xlink:href="#m6a999decb9" x="786.24" y="465.442759" style="stroke: #000000; stroke-width: 0.8"/>
      </g>
     </g>
    </g>
    <g id="xtick_24">
     <g id="line2d_66">
      <path d="M 947.52 465.442759 
L 947.52 372.711724 
" clip-path="url(#p227cd9036f)" style="fill: none; stroke-dasharray: 1.85,0.8; stroke-dashoffset: 0; stroke: #b2b2b2; stroke-width: 0.5"/>
     </g>
     <g id="line2d_67">
      <g>
       <use xlink:href="#m6a999decb9" x="947.52" y="465.442759" style="stroke: #000000; stroke-width: 0.8"/>
      </g>
     </g>
    </g>
   </g>
   <g id="matplotlib.axis_8">
    <g id="ytick_9">
     <g id="line2d_68">
      <path d="M 100.8 436.699571 
L 987.84 436.699571 
" clip-path="url(#p227cd9036f)" style="fill: none; stroke-dasharray: 1.85,0.8; stroke-dashoffset: 0; stroke: #b2b2b2; stroke-width: 0.5"/>
     </g>
     <g id="line2d_69">
      <g>
       <use xlink:href="#m3652f37b14" x="100.8" y="436.699571" style="stroke: #000000; stroke-width: 0.8"/>
      </g>
     </g>
     <g id="text_12">
      <!-- 0 V -->
      <g transform="translate(74.36625 442.018478) scale(0.14 -0.14)">
       <use xlink:href="#DejaVuSans-30"/>
       <use xlink:href="#DejaVuSans-20" x="63.623047"/>
       <use xlink:href="#DejaVuSans-56" x="95.410156"/>
      </g>
     </g>
    </g>
    <g id="ytick_10">
     <g id="line2d_70">
      <path d="M 100.8 393.771677 
L 987.84 393.771677 
" clip-path="url(#p227cd9036f)" style="fill: none; stroke-dasharray: 1.85,0.8; stroke-dashoffset: 0; stroke: #b2b2b2; stroke-width: 0.5"/>
     </g>
     <g id="line2d_71">
      <g>
       <use xlink:href="#m3652f37b14" x="100.8" y="393.771677" style="stroke: #000000; stroke-width: 0.8"/>
      </g>
     </g>
     <g id="text_13">
      <!-- 1 V -->
      <g transform="translate(74.36625 399.090583) scale(0.14 -0.14)">
       <use xlink:href="#DejaVuSans-31"/>
       <use xlink:href="#DejaVuSans-20" x="63.623047"/>
       <use xlink:href="#DejaVuSans-56" x="95.410156"/>
      </g>
     </g>
    </g>
    <g id="text_14">
     <g id="patch_21">
      <path d="M 34.8768 454.693023 
L 34.8768 383.46146 
L 11.247425 383.46146 
L 11.247425 454.693023 
z
" style="fill: #ffff00; opacity: 0.2; stroke: #eeeeee; stroke-width: 0.5; stroke-linejoin: miter"/>
     </g>
     <!-- DFF OUT -->
     <g transform="translate(26.925238 449.653023) rotate(-90) scale(0.14 -0.14)">
      <defs>
       <path id="DejaVuSans-4f" d="M 2522 4238 
Q 1834 4238 1429 3725 
Q 1025 3213 1025 2328 
Q 1025 1447 1429 934 
Q 1834 422 2522 422 
Q 3209 422 3611 934 
Q 4013 1447 4013 2328 
Q 4013 3213 3611 3725 
Q 3209 4238 2522 4238 
z
M 2522 4750 
Q 3503 4750 4090 4092 
Q 4678 3434 4678 2328 
Q 4678 1225 4090 567 
Q 3503 -91 2522 -91 
Q 1538 -91 948 565 
Q 359 1222 359 2328 
Q 359 3434 948 4092 
Q 1538 4750 2522 4750 
z
" transform="scale(0.015625)"/>
       <path id="DejaVuSans-54" d="M -19 4666 
L 3928 4666 
L 3928 4134 
L 2272 4134 
L 2272 0 
L 1638 0 
L 1638 4134 
L -19 4134 
L -19 4666 
z
" transform="scale(0.015625)"/>
      </defs>
      <use xlink:href="#DejaVuSans-44"/>
      <use xlink:href="#DejaVuSans-46" x="77.001953"/>
      <use xlink:href="#DejaVuSans-46" x="134.521484"/>
      <use xlink:href="#DejaVuSans-20" x="192.041016"/>
      <use xlink:href="#DejaVuSans-4f" x="223.828125"/>
      <use xlink:href="#DejaVuSans-55" x="302.539062"/>
      <use xlink:href="#DejaVuSans-54" x="375.732422"/>
     </g>
    </g>
   </g>
   <g id="line2d_72">
    <path d="M 141.12 404.309187 
L 173.408256 404.361559 
L 173.440512 406.138774 
L 173.601792 436.702191 
L 174.085632 436.696825 
L 183.633408 436.698429 
L 254.048256 436.70023 
L 254.080512 436.871832 
L 254.112768 436.58801 
L 254.306304 432.39605 
L 254.596608 431.555092 
L 254.693376 430.95496 
L 255.14496 423.421544 
L 255.370752 405.713359 
L 255.596544 385.598206 
L 255.757824 385.25049 
L 255.95136 385.181805 
L 270.208512 385.254783 
L 271.176192 386.585547 
L 272.466432 388.66755 
L 278.078976 398.590333 
L 278.756352 400.368836 
L 279.724032 404.40878 
L 280.6272 408.668944 
L 280.723968 408.512257 
L 280.78848 408.627304 
L 280.94976 410.186016 
L 281.304576 411.810407 
L 281.336832 411.423198 
L 281.369088 412.064541 
L 281.401344 411.737859 
L 281.59488 413.438662 
L 281.788416 414.421282 
L 281.885184 414.334997 
L 281.981952 414.61918 
L 282.24 416.694743 
L 282.465792 417.809151 
L 282.498048 417.652894 
L 282.530304 417.497066 
L 282.594816 417.722008 
L 282.756096 419.358848 
L 286.272 436.127128 
L 286.304256 435.690294 
L 286.368768 435.909226 
L 286.43328 436.246725 
L 286.59456 437.566414 
L 286.788096 438.360237 
L 286.852608 438.276227 
L 286.884864 438.312158 
L 287.013888 438.765948 
L 287.175168 439.460865 
L 287.336448 440.591843 
L 287.626752 441.521662 
L 287.659008 441.344799 
L 287.691264 441.385151 
L 287.788032 441.826879 
L 287.820288 441.664612 
L 287.8848 441.812284 
L 288.013824 442.662685 
L 288.04608 442.224821 
L 288.078336 442.86831 
L 288.110592 442.46951 
L 288.142848 442.985932 
L 288.239616 442.943863 
L 288.304128 443.097974 
L 288.465408 443.90974 
L 289.078272 445.299746 
L 289.110528 445.051193 
L 289.17504 445.165811 
L 289.755648 446.598744 
L 290.400768 448.615067 
L 291.336192 451.005721 
L 291.465216 451.143091 
L 291.626496 451.668957 
L 291.691008 451.598126 
L 291.723264 451.66166 
L 291.9168 452.101241 
L 292.07808 452.776926 
L 293.336064 455.671554 
L 293.626368 456.148483 
L 293.69088 456.277267 
L 294.271488 457.730805 
L 295.045632 459.404564 
L 295.9488 461.227712 
L 296.077824 461.068878 
L 296.335872 460.809165 
L 296.561664 460.312918 
L 296.59392 460.35327 
L 296.626176 460.315923 
L 296.7552 459.409715 
L 296.819712 459.850155 
L 296.980992 459.580139 
L 298.52928 456.59107 
L 298.561536 456.708692 
L 298.593792 456.470013 
L 298.626048 456.615539 
L 298.69056 456.37085 
L 298.948608 455.908087 
L 299.400192 455.282198 
L 299.432448 455.43588 
L 299.464704 455.212226 
L 299.49696 455.306238 
L 299.529216 455.331136 
L 299.65824 454.958522 
L 299.884032 454.784664 
L 300.045312 454.579898 
L 300.432384 454.168219 
L 300.754944 453.571092 
L 300.916224 453.371048 
L 300.94848 453.546194 
L 300.980736 453.279183 
L 301.012992 453.23883 
L 301.045248 453.437157 
L 301.077504 453.290773 
L 301.238784 453.055099 
L 301.27104 453.052094 
L 301.43232 452.688495 
L 301.787136 452.293987 
L 301.819392 452.521935 
L 301.851648 452.274241 
L 301.980672 452.113261 
L 302.012928 452.289265 
L 302.07744 452.055308 
L 302.109696 452.117554 
L 302.141952 452.026976 
L 302.367744 451.727769 
L 302.88384 451.299777 
L 303.2064 450.723685 
L 303.52896 450.258776 
L 303.561216 450.400867 
L 303.593472 450.173779 
L 303.657984 450.084918 
L 303.69024 450.319304 
L 303.787008 450.254054 
L 303.916032 449.815331 
L 303.948288 449.828209 
L 303.980544 449.734197 
L 304.0128 449.711875 
L 304.045056 449.862122 
L 304.077312 449.713592 
L 304.17408 449.7445 
L 304.206336 449.443146 
L 304.238592 449.641044 
L 304.270848 449.522563 
L 304.33536 449.335826 
L 304.367616 449.486503 
L 304.399872 449.526855 
L 304.432128 449.486932 
L 304.690176 448.992403 
L 304.8192 448.900537 
L 304.851456 449.096718 
L 304.915968 448.824126 
L 305.851392 448.048848 
L 306.012672 447.518259 
L 306.044928 447.551314 
L 306.077184 447.45258 
L 306.173952 447.286878 
L 306.206208 447.584797 
L 306.27072 447.158094 
L 306.335232 447.100142 
L 306.367488 447.428111 
L 306.399744 447.3869 
L 306.528768 446.832271 
L 306.561024 446.771314 
L 306.625536 446.845579 
L 306.657792 446.998832 
L 306.690048 446.907825 
L 306.75456 446.61291 
L 306.786816 446.979943 
L 306.819072 446.679448 
L 306.851328 446.503444 
L 306.91584 446.576421 
L 306.948096 446.812954 
L 306.980352 446.685887 
L 307.109376 446.2081 
L 307.141632 446.352338 
L 307.206144 446.143708 
L 307.2384 446.132118 
L 307.270656 446.363928 
L 307.302912 446.044545 
L 307.335168 446.047979 
L 307.367424 446.211534 
L 307.464192 446.163026 
L 307.593216 445.86253 
L 307.625472 445.849223 
L 307.657728 446.039823 
L 307.72224 445.909751 
L 307.88352 445.751347 
L 308.173824 445.570191 
L 308.818944 444.777742 
L 308.980224 444.305536 
L 309.01248 444.292228 
L 309.141504 444.073725 
L 309.17376 444.460076 
L 309.238272 444.03509 
L 309.399552 443.777952 
L 309.464064 443.705404 
L 309.49632 444.122234 
L 309.560832 443.595508 
L 309.593088 444.022641 
L 309.722112 443.420792 
L 309.754368 443.843631 
L 309.81888 443.402333 
L 309.883392 443.620836 
L 309.947904 443.680505 
L 310.012416 443.115145 
L 310.044672 443.476169 
L 310.109184 443.081232 
L 310.30272 442.98121 
L 310.593024 442.818084 
L 310.657536 442.990225 
L 310.689792 442.770434 
L 310.980096 442.721067 
L 311.947776 441.794254 
L 312.141312 441.422498 
L 312.302592 440.879718 
L 312.463872 440.699979 
L 312.496128 440.968192 
L 312.56064 440.601631 
L 312.625152 440.455161 
L 312.657408 440.475895 
L 312.689664 441.005668 
L 312.72192 440.371022 
L 312.754176 440.382785 
L 312.947712 440.208884 
L 312.979968 440.58519 
L 313.076736 440.528439 
L 313.173504 439.929209 
L 313.141248 440.53784 
L 313.20576 440.16132 
L 313.238016 440.207467 
L 313.270272 440.128995 
L 313.36704 440.022405 
L 313.399296 440.240479 
L 313.463808 440.097872 
L 313.560576 440.131227 
L 313.592832 439.73702 
L 313.786368 439.729465 
L 314.108928 439.598964 
L 315.3024 438.319842 
L 315.78624 437.558172 
L 315.915264 436.760173 
L 315.94752 437.078741 
L 315.979776 436.733174 
L 316.012032 437.004574 
L 316.1088 436.674192 
L 316.173312 436.739481 
L 316.237824 436.739305 
L 316.27008 436.681424 
L 317.56032 434.219627 
L 317.592576 433.80357 
L 317.689344 433.942141 
L 318.011904 433.318613 
L 318.721536 431.886067 
L 318.85056 430.906881 
L 319.01184 430.991449 
L 319.108608 431.083744 
L 319.140864 431.027938 
L 320.269824 428.718417 
L 320.366592 428.159496 
L 320.398848 428.184823 
L 320.431104 428.241918 
L 320.495616 428.137173 
L 322.979328 422.954918 
L 323.076096 422.171484 
L 323.140608 422.262062 
L 323.269632 422.366377 
L 323.301888 422.324307 
L 324.527616 419.606113 
L 324.592128 418.999542 
L 324.65664 419.194864 
L 324.753408 419.132618 
L 326.366208 415.834898 
L 326.592 415.293577 
L 327.462912 413.789813 
L 327.527424 413.649438 
L 327.55968 413.240336 
L 327.624192 413.330913 
L 327.656448 413.443385 
L 327.688704 413.074205 
L 327.785472 413.185817 
L 327.88224 413.11284 
L 328.269312 412.527303 
L 328.430592 412.019037 
L 329.301504 410.639334 
L 329.591808 410.214348 
L 329.97888 409.330463 
L 330.46272 408.504101 
L 331.075584 407.746853 
L 331.333632 407.384542 
L 333.107712 404.823034 
L 334.559232 403.017058 
L 334.720512 402.726006 
L 334.785024 402.288142 
L 334.81728 403.067283 
L 334.946304 429.549501 
L 335.075328 435.788556 
L 335.817216 435.299306 
L 336.655872 435.007869 
L 337.849344 434.84118 
L 339.81696 434.816239 
L 345.977856 435.057837 
L 354.299904 435.324333 
L 356.10624 435.26505 
L 360.396288 435.389884 
L 360.686592 435.68291 
L 361.363968 436.267416 
L 362.202624 436.668003 
L 363.234816 436.912249 
L 364.912128 437.05929 
L 368.68608 437.101136 
L 375.008256 437.056148 
L 375.040512 436.943681 
L 375.105024 437.068073 
L 376.75008 437.043935 
L 380.685312 437.133744 
L 383.072256 437.198694 
L 392.007168 437.111589 
L 415.328256 436.931691 
L 415.360512 437.282275 
L 415.650816 430.23506 
L 415.876608 428.97255 
L 416.037888 426.809414 
L 416.199168 420.407577 
L 416.392704 401.387515 
L 416.618496 377.403271 
L 416.683008 376.926771 
L 416.74752 376.952528 
L 417.07008 377.01692 
L 417.811968 377.205802 
L 418.19904 377.300244 
L 418.650624 377.416149 
L 419.682816 377.660838 
L 420.327936 377.806793 
L 420.811776 377.901234 
L 421.26336 378.01714 
L 422.585856 378.304757 
L 423.230976 378.450711 
L 423.714816 378.545153 
L 424.069632 378.622423 
L 424.585728 378.716864 
L 425.037312 378.83277 
L 427.037184 379.20195 
L 427.392 379.266341 
L 427.87584 379.360783 
L 428.230656 379.43376 
L 431.198208 379.931724 
L 431.553024 379.996116 
L 432.165888 380.103435 
L 432.520704 380.167827 
L 433.327104 380.275147 
L 433.68192 380.339539 
L 434.359296 380.43398 
L 434.714112 380.506958 
L 445.906944 381.884943 
L 446.874624 381.992263 
L 447.132672 382.013727 
L 448.132608 382.121046 
L 448.390656 382.14251 
L 449.48736 382.24983 
L 449.745408 382.271294 
L 450.93888 382.378614 
L 451.196928 382.400078 
L 452.3904 382.507397 
L 452.648448 382.528861 
L 453.938688 382.636181 
L 454.196736 382.657645 
L 455.583744 382.764965 
L 455.841792 382.782136 
L 457.293312 382.88087 
L 457.648128 382.915212 
L 458.19648 382.953848 
L 459.712512 383.052582 
L 460.067328 383.086924 
L 461.680128 383.194244 
L 461.938176 383.211415 
L 463.776768 383.310149 
L 464.131584 383.344491 
L 466.034688 383.451811 
L 466.292736 383.468982 
L 468.421632 383.567716 
L 468.776448 383.597766 
L 469.937664 383.644987 
L 470.486016 383.683622 
L 472.87296 383.782356 
L 473.227776 383.812405 
L 475.969536 383.91114 
L 476.324352 383.941189 
L 479.356416 384.039923 
L 479.711232 384.069973 
L 480.904704 384.117193 
L 484.517376 384.224513 
L 484.839936 384.245977 
L 485.678592 384.245977 
L 488.968704 384.353297 
L 489.291264 384.374761 
L 490.162176 384.370468 
L 491.323392 384.413396 
L 495.968256 384.482081 
L 496.000512 384.743941 
L 496.065024 384.464909 
L 496.25856 384.537887 
L 502.87104 384.640914 
L 503.225856 384.670963 
L 536.385024 384.778283 
L 536.514048 384.756819 
L 536.933376 384.756819 
L 537.739776 384.761112 
L 576.608256 384.752526 
L 576.640512 384.967166 
L 576.705024 384.731062 
L 576.963072 384.748234 
L 657.248256 384.752526 
L 657.280512 384.971459 
L 657.345024 384.752526 
L 657.53856 384.731062 
L 658.570752 384.756819 
L 737.888256 384.752526 
L 737.920512 384.971459 
L 737.985024 384.752526 
L 738.17856 384.731062 
L 739.210752 384.756819 
L 818.528256 384.752526 
L 818.560512 384.971459 
L 818.625024 384.752526 
L 818.81856 384.731062 
L 819.850752 384.756819 
L 899.168256 384.752526 
L 899.200512 384.971459 
L 899.265024 384.752526 
L 899.45856 384.731062 
L 900.490752 384.756819 
L 947.52 384.756819 
L 947.52 384.756819 
" clip-path="url(#p227cd9036f)" style="fill: none; stroke: #ff00ff; stroke-width: 2; stroke-linecap: square"/>
   </g>
   <g id="patch_22">
    <path d="M 100.8 465.442759 
L 100.8 372.711724 
" style="fill: none; stroke: #bcbcbc; stroke-width: 0.8; stroke-linejoin: miter; stroke-linecap: square"/>
   </g>
   <g id="patch_23">
    <path d="M 987.84 465.442759 
L 987.84 372.711724 
" style="fill: none; stroke: #bcbcbc; stroke-width: 0.8; stroke-linejoin: miter; stroke-linecap: square"/>
   </g>
   <g id="patch_24">
    <path d="M 100.8 465.442759 
L 987.84 465.442759 
" style="fill: none; stroke: #bcbcbc; stroke-width: 0.8; stroke-linejoin: miter; stroke-linecap: square"/>
   </g>
   <g id="patch_25">
    <path d="M 100.8 372.711724 
L 987.84 372.711724 
" style="fill: none; stroke: #bcbcbc; stroke-width: 0.8; stroke-linejoin: miter; stroke-linecap: square"/>
   </g>
  </g>
  <g id="axes_5">
   <g id="patch_26">
    <path d="M 100.8 576.72 
L 987.84 576.72 
L 987.84 483.988966 
L 100.8 483.988966 
z
" style="fill: #eeeeee"/>
   </g>
   <g id="matplotlib.axis_9">
    <g id="xtick_25">
     <g id="line2d_73">
      <path d="M 141.12 576.72 
L 141.12 483.988966 
" clip-path="url(#p0f9c4657a3)" style="fill: none; stroke-dasharray: 1.85,0.8; stroke-dashoffset: 0; stroke: #b2b2b2; stroke-width: 0.5"/>
     </g>
     <g id="line2d_74">
      <g>
       <use xlink:href="#m6a999decb9" x="141.12" y="576.72" style="stroke: #000000; stroke-width: 0.8"/>
      </g>
     </g>
     <g id="text_15">
      <!-- 0 s -->
      <g transform="translate(130.795 590.857813) scale(0.14 -0.14)">
       <defs>
        <path id="DejaVuSans-73" d="M 2834 3397 
L 2834 2853 
Q 2591 2978 2328 3040 
Q 2066 3103 1784 3103 
Q 1356 3103 1142 2972 
Q 928 2841 928 2578 
Q 928 2378 1081 2264 
Q 1234 2150 1697 2047 
L 1894 2003 
Q 2506 1872 2764 1633 
Q 3022 1394 3022 966 
Q 3022 478 2636 193 
Q 2250 -91 1575 -91 
Q 1294 -91 989 -36 
Q 684 19 347 128 
L 347 722 
Q 666 556 975 473 
Q 1284 391 1588 391 
Q 1994 391 2212 530 
Q 2431 669 2431 922 
Q 2431 1156 2273 1281 
Q 2116 1406 1581 1522 
L 1381 1569 
Q 847 1681 609 1914 
Q 372 2147 372 2553 
Q 372 3047 722 3315 
Q 1072 3584 1716 3584 
Q 2034 3584 2315 3537 
Q 2597 3491 2834 3397 
z
" transform="scale(0.015625)"/>
       </defs>
       <use xlink:href="#DejaVuSans-30"/>
       <use xlink:href="#DejaVuSans-20" x="63.623047"/>
       <use xlink:href="#DejaVuSans-73" x="95.410156"/>
      </g>
     </g>
    </g>
    <g id="xtick_26">
     <g id="line2d_75">
      <path d="M 302.4 576.72 
L 302.4 483.988966 
" clip-path="url(#p0f9c4657a3)" style="fill: none; stroke-dasharray: 1.85,0.8; stroke-dashoffset: 0; stroke: #b2b2b2; stroke-width: 0.5"/>
     </g>
     <g id="line2d_76">
      <g>
       <use xlink:href="#m6a999decb9" x="302.4" y="576.72" style="stroke: #000000; stroke-width: 0.8"/>
      </g>
     </g>
     <g id="text_16">
      <!-- 50 ns -->
      <g transform="translate(283.185 590.857813) scale(0.14 -0.14)">
       <defs>
        <path id="DejaVuSans-35" d="M 691 4666 
L 3169 4666 
L 3169 4134 
L 1269 4134 
L 1269 2991 
Q 1406 3038 1543 3061 
Q 1681 3084 1819 3084 
Q 2600 3084 3056 2656 
Q 3513 2228 3513 1497 
Q 3513 744 3044 326 
Q 2575 -91 1722 -91 
Q 1428 -91 1123 -41 
Q 819 9 494 109 
L 494 744 
Q 775 591 1075 516 
Q 1375 441 1709 441 
Q 2250 441 2565 725 
Q 2881 1009 2881 1497 
Q 2881 1984 2565 2268 
Q 2250 2553 1709 2553 
Q 1456 2553 1204 2497 
Q 953 2441 691 2322 
L 691 4666 
z
" transform="scale(0.015625)"/>
        <path id="DejaVuSans-6e" d="M 3513 2113 
L 3513 0 
L 2938 0 
L 2938 2094 
Q 2938 2591 2744 2837 
Q 2550 3084 2163 3084 
Q 1697 3084 1428 2787 
Q 1159 2491 1159 1978 
L 1159 0 
L 581 0 
L 581 3500 
L 1159 3500 
L 1159 2956 
Q 1366 3272 1645 3428 
Q 1925 3584 2291 3584 
Q 2894 3584 3203 3211 
Q 3513 2838 3513 2113 
z
" transform="scale(0.015625)"/>
       </defs>
       <use xlink:href="#DejaVuSans-35"/>
       <use xlink:href="#DejaVuSans-30" x="63.623047"/>
       <use xlink:href="#DejaVuSans-20" x="127.246094"/>
       <use xlink:href="#DejaVuSans-6e" x="159.033203"/>
       <use xlink:href="#DejaVuSans-73" x="222.412109"/>
      </g>
     </g>
    </g>
    <g id="xtick_27">
     <g id="line2d_77">
      <path d="M 463.68 576.72 
L 463.68 483.988966 
" clip-path="url(#p0f9c4657a3)" style="fill: none; stroke-dasharray: 1.85,0.8; stroke-dashoffset: 0; stroke: #b2b2b2; stroke-width: 0.5"/>
     </g>
     <g id="line2d_78">
      <g>
       <use xlink:href="#m6a999decb9" x="463.68" y="576.72" style="stroke: #000000; stroke-width: 0.8"/>
      </g>
     </g>
     <g id="text_17">
      <!-- 100 ns -->
      <g transform="translate(440.01125 590.857813) scale(0.14 -0.14)">
       <use xlink:href="#DejaVuSans-31"/>
       <use xlink:href="#DejaVuSans-30" x="63.623047"/>
       <use xlink:href="#DejaVuSans-30" x="127.246094"/>
       <use xlink:href="#DejaVuSans-20" x="190.869141"/>
       <use xlink:href="#DejaVuSans-6e" x="222.65625"/>
       <use xlink:href="#DejaVuSans-73" x="286.035156"/>
      </g>
     </g>
    </g>
    <g id="xtick_28">
     <g id="line2d_79">
      <path d="M 624.96 576.72 
L 624.96 483.988966 
" clip-path="url(#p0f9c4657a3)" style="fill: none; stroke-dasharray: 1.85,0.8; stroke-dashoffset: 0; stroke: #b2b2b2; stroke-width: 0.5"/>
     </g>
     <g id="line2d_80">
      <g>
       <use xlink:href="#m6a999decb9" x="624.96" y="576.72" style="stroke: #000000; stroke-width: 0.8"/>
      </g>
     </g>
     <g id="text_18">
      <!-- 150 ns -->
      <g transform="translate(601.29125 590.857813) scale(0.14 -0.14)">
       <use xlink:href="#DejaVuSans-31"/>
       <use xlink:href="#DejaVuSans-35" x="63.623047"/>
       <use xlink:href="#DejaVuSans-30" x="127.246094"/>
       <use xlink:href="#DejaVuSans-20" x="190.869141"/>
       <use xlink:href="#DejaVuSans-6e" x="222.65625"/>
       <use xlink:href="#DejaVuSans-73" x="286.035156"/>
      </g>
     </g>
    </g>
    <g id="xtick_29">
     <g id="line2d_81">
      <path d="M 786.24 576.72 
L 786.24 483.988966 
" clip-path="url(#p0f9c4657a3)" style="fill: none; stroke-dasharray: 1.85,0.8; stroke-dashoffset: 0; stroke: #b2b2b2; stroke-width: 0.5"/>
     </g>
     <g id="line2d_82">
      <g>
       <use xlink:href="#m6a999decb9" x="786.24" y="576.72" style="stroke: #000000; stroke-width: 0.8"/>
      </g>
     </g>
     <g id="text_19">
      <!-- 200 ns -->
      <g transform="translate(762.57125 590.857813) scale(0.14 -0.14)">
       <use xlink:href="#DejaVuSans-32"/>
       <use xlink:href="#DejaVuSans-30" x="63.623047"/>
       <use xlink:href="#DejaVuSans-30" x="127.246094"/>
       <use xlink:href="#DejaVuSans-20" x="190.869141"/>
       <use xlink:href="#DejaVuSans-6e" x="222.65625"/>
       <use xlink:href="#DejaVuSans-73" x="286.035156"/>
      </g>
     </g>
    </g>
    <g id="xtick_30">
     <g id="line2d_83">
      <path d="M 947.52 576.72 
L 947.52 483.988966 
" clip-path="url(#p0f9c4657a3)" style="fill: none; stroke-dasharray: 1.85,0.8; stroke-dashoffset: 0; stroke: #b2b2b2; stroke-width: 0.5"/>
     </g>
     <g id="line2d_84">
      <g>
       <use xlink:href="#m6a999decb9" x="947.52" y="576.72" style="stroke: #000000; stroke-width: 0.8"/>
      </g>
     </g>
     <g id="text_20">
      <!-- 250 ns -->
      <g transform="translate(923.85125 590.857813) scale(0.14 -0.14)">
       <use xlink:href="#DejaVuSans-32"/>
       <use xlink:href="#DejaVuSans-35" x="63.623047"/>
       <use xlink:href="#DejaVuSans-30" x="127.246094"/>
       <use xlink:href="#DejaVuSans-20" x="190.869141"/>
       <use xlink:href="#DejaVuSans-6e" x="222.65625"/>
       <use xlink:href="#DejaVuSans-73" x="286.035156"/>
      </g>
     </g>
    </g>
    <g id="text_21">
     <!-- Time -->
     <g transform="translate(527.192969 608.407187) scale(0.14 -0.14)">
      <defs>
       <path id="DejaVuSans-69" d="M 603 3500 
L 1178 3500 
L 1178 0 
L 603 0 
L 603 3500 
z
M 603 4863 
L 1178 4863 
L 1178 4134 
L 603 4134 
L 603 4863 
z
" transform="scale(0.015625)"/>
       <path id="DejaVuSans-6d" d="M 3328 2828 
Q 3544 3216 3844 3400 
Q 4144 3584 4550 3584 
Q 5097 3584 5394 3201 
Q 5691 2819 5691 2113 
L 5691 0 
L 5113 0 
L 5113 2094 
Q 5113 2597 4934 2840 
Q 4756 3084 4391 3084 
Q 3944 3084 3684 2787 
Q 3425 2491 3425 1978 
L 3425 0 
L 2847 0 
L 2847 2094 
Q 2847 2600 2669 2842 
Q 2491 3084 2119 3084 
Q 1678 3084 1418 2786 
Q 1159 2488 1159 1978 
L 1159 0 
L 581 0 
L 581 3500 
L 1159 3500 
L 1159 2956 
Q 1356 3278 1631 3431 
Q 1906 3584 2284 3584 
Q 2666 3584 2933 3390 
Q 3200 3197 3328 2828 
z
" transform="scale(0.015625)"/>
       <path id="DejaVuSans-65" d="M 3597 1894 
L 3597 1613 
L 953 1613 
Q 991 1019 1311 708 
Q 1631 397 2203 397 
Q 2534 397 2845 478 
Q 3156 559 3463 722 
L 3463 178 
Q 3153 47 2828 -22 
Q 2503 -91 2169 -91 
Q 1331 -91 842 396 
Q 353 884 353 1716 
Q 353 2575 817 3079 
Q 1281 3584 2069 3584 
Q 2775 3584 3186 3129 
Q 3597 2675 3597 1894 
z
M 3022 2063 
Q 3016 2534 2758 2815 
Q 2500 3097 2075 3097 
Q 1594 3097 1305 2825 
Q 1016 2553 972 2059 
L 3022 2063 
z
" transform="scale(0.015625)"/>
      </defs>
      <use xlink:href="#DejaVuSans-54"/>
      <use xlink:href="#DejaVuSans-69" x="57.958984"/>
      <use xlink:href="#DejaVuSans-6d" x="85.742188"/>
      <use xlink:href="#DejaVuSans-65" x="183.154297"/>
     </g>
    </g>
   </g>
   <g id="matplotlib.axis_10">
    <g id="ytick_11">
     <g id="line2d_85">
      <path d="M 100.8 569.745664 
L 987.84 569.745664 
" clip-path="url(#p0f9c4657a3)" style="fill: none; stroke-dasharray: 1.85,0.8; stroke-dashoffset: 0; stroke: #b2b2b2; stroke-width: 0.5"/>
     </g>
     <g id="line2d_86">
      <g>
       <use xlink:href="#m3652f37b14" x="100.8" y="569.745664" style="stroke: #000000; stroke-width: 0.8"/>
      </g>
     </g>
     <g id="text_22">
      <!-- 0 V -->
      <g transform="translate(74.36625 575.06457) scale(0.14 -0.14)">
       <use xlink:href="#DejaVuSans-30"/>
       <use xlink:href="#DejaVuSans-20" x="63.623047"/>
       <use xlink:href="#DejaVuSans-56" x="95.410156"/>
      </g>
     </g>
    </g>
    <g id="ytick_12">
     <g id="line2d_87">
      <path d="M 100.8 535.947417 
L 987.84 535.947417 
" clip-path="url(#p0f9c4657a3)" style="fill: none; stroke-dasharray: 1.85,0.8; stroke-dashoffset: 0; stroke: #b2b2b2; stroke-width: 0.5"/>
     </g>
     <g id="line2d_88">
      <g>
       <use xlink:href="#m3652f37b14" x="100.8" y="535.947417" style="stroke: #000000; stroke-width: 0.8"/>
      </g>
     </g>
     <g id="text_23">
      <!-- 500 mV -->
      <g transform="translate(42.914375 541.266323) scale(0.14 -0.14)">
       <use xlink:href="#DejaVuSans-35"/>
       <use xlink:href="#DejaVuSans-30" x="63.623047"/>
       <use xlink:href="#DejaVuSans-30" x="127.246094"/>
       <use xlink:href="#DejaVuSans-20" x="190.869141"/>
       <use xlink:href="#DejaVuSans-6d" x="222.65625"/>
       <use xlink:href="#DejaVuSans-56" x="320.068359"/>
      </g>
     </g>
    </g>
    <g id="ytick_13">
     <g id="line2d_89">
      <path d="M 100.8 502.149169 
L 987.84 502.149169 
" clip-path="url(#p0f9c4657a3)" style="fill: none; stroke-dasharray: 1.85,0.8; stroke-dashoffset: 0; stroke: #b2b2b2; stroke-width: 0.5"/>
     </g>
     <g id="line2d_90">
      <g>
       <use xlink:href="#m3652f37b14" x="100.8" y="502.149169" style="stroke: #000000; stroke-width: 0.8"/>
      </g>
     </g>
     <g id="text_24">
      <!-- 1 V -->
      <g transform="translate(74.36625 507.468076) scale(0.14 -0.14)">
       <use xlink:href="#DejaVuSans-31"/>
       <use xlink:href="#DejaVuSans-20" x="63.623047"/>
       <use xlink:href="#DejaVuSans-56" x="95.410156"/>
      </g>
     </g>
    </g>
    <g id="text_25">
     <g id="patch_27">
      <path d="M 34.8768 554.329483 
L 34.8768 506.379483 
L 11.247425 506.379483 
L 11.247425 554.329483 
z
" style="fill: #ffff00; opacity: 0.2; stroke: #eeeeee; stroke-width: 0.5; stroke-linejoin: miter"/>
     </g>
     <!-- FOUT -->
     <g transform="translate(26.925238 549.289483) rotate(-90) scale(0.14 -0.14)">
      <use xlink:href="#DejaVuSans-46"/>
      <use xlink:href="#DejaVuSans-4f" x="57.519531"/>
      <use xlink:href="#DejaVuSans-55" x="136.230469"/>
      <use xlink:href="#DejaVuSans-54" x="209.423828"/>
     </g>
    </g>
   </g>
   <g id="line2d_91">
    <path d="M 141.12 488.62987 
L 173.472768 488.63663 
L 173.505024 488.4406 
L 173.569536 526.786064 
L 173.69856 572.504953 
L 173.730816 572.36949 
L 173.827584 567.841741 
L 173.892096 569.360648 
L 174.053376 570.063996 
L 174.117888 569.946459 
L 174.408192 569.491812 
L 174.440448 569.541273 
L 174.66624 569.729732 
L 176.182272 569.739929 
L 180.117504 569.76123 
L 193.568256 569.751938 
L 212.954112 569.743788 
L 255.30624 569.743474 
L 255.6288 488.521716 
L 255.854592 488.663669 
L 256.209408 488.623111 
L 281.562624 488.562274 
L 281.627136 488.204013 
L 281.691648 511.728945 
L 281.788416 569.880864 
L 281.852928 569.742809 
L 308.754432 569.743983 
L 328.2048 569.756661 
L 328.237056 569.371348 
L 328.301568 561.615834 
L 328.52736 488.893497 
L 328.68864 488.63663 
L 329.236992 488.62987 
L 334.914048 488.623111 
L 334.97856 502.168772 
L 335.13984 569.749268 
L 335.62368 569.743984 
L 416.328192 569.734891 
L 416.360448 569.330392 
L 416.42496 541.314578 
L 416.58624 489.238239 
L 416.683008 488.528476 
L 416.74752 488.623111 
L 417.295872 488.62987 
L 947.52 488.62987 
L 947.52 488.62987 
" clip-path="url(#p0f9c4657a3)" style="fill: none; stroke: #ff00ff; stroke-width: 2; stroke-linecap: square"/>
   </g>
   <g id="patch_28">
    <path d="M 100.8 576.72 
L 100.8 483.988966 
" style="fill: none; stroke: #bcbcbc; stroke-width: 0.8; stroke-linejoin: miter; stroke-linecap: square"/>
   </g>
   <g id="patch_29">
    <path d="M 987.84 576.72 
L 987.84 483.988966 
" style="fill: none; stroke: #bcbcbc; stroke-width: 0.8; stroke-linejoin: miter; stroke-linecap: square"/>
   </g>
   <g id="patch_30">
    <path d="M 100.8 576.72 
L 987.84 576.72 
" style="fill: none; stroke: #bcbcbc; stroke-width: 0.8; stroke-linejoin: miter; stroke-linecap: square"/>
   </g>
   <g id="patch_31">
    <path d="M 100.8 483.988966 
L 987.84 483.988966 
" style="fill: none; stroke: #bcbcbc; stroke-width: 0.8; stroke-linejoin: miter; stroke-linecap: square"/>
   </g>
  </g>
  <g id="axes_6">
   <g id="patch_32">
    <path d="M 201.6 628.56 
L 856.8 628.56 
L 856.8 615.6 
L 201.6 615.6 
z
" clip-path="url(#p4c9c34c601)" style="fill: #d3d3d3"/>
   </g>
   <g id="patch_33">
    <path d="M 201.6 628.56 
L 313.92 628.56 
L 313.92 615.6 
L 201.6 615.6 
z
" clip-path="url(#p4c9c34c601)" style="fill: #0000ff"/>
   </g>
   <g id="line2d_92">
    <path d="M 201.6 635.04 
L 201.6 609.12 
" clip-path="url(#pfe115cc112)" style="fill: none; stroke: #ff0000; stroke-linecap: square"/>
   </g>
   <g id="line2d_93">
    <defs>
     <path id="m6940b6c695" d="M 0 5 
C 1.326016 5 2.597899 4.473168 3.535534 3.535534 
C 4.473168 2.597899 5 1.326016 5 0 
C 5 -1.326016 4.473168 -2.597899 3.535534 -3.535534 
C 2.597899 -4.473168 1.326016 -5 0 -5 
C -1.326016 -5 -2.597899 -4.473168 -3.535534 -3.535534 
C -4.473168 -2.597899 -5 -1.326016 -5 0 
C -5 1.326016 -4.473168 2.597899 -3.535534 3.535534 
C -2.597899 4.473168 -1.326016 5 0 5 
z
" style="stroke: #bfbfbf"/>
    </defs>
    <g>
     <use xlink:href="#m6940b6c695" x="313.92" y="622.08" style="fill: #ffffff; stroke: #bfbfbf"/>
    </g>
   </g>
   <g id="text_26">
    <!-- #Sweep -->
    <g transform="translate(138.622875 625.39125) scale(0.12 -0.12)">
     <defs>
      <path id="DejaVuSans-23" d="M 3272 2816 
L 2363 2816 
L 2100 1772 
L 3016 1772 
L 3272 2816 
z
M 2803 4594 
L 2478 3297 
L 3391 3297 
L 3719 4594 
L 4219 4594 
L 3897 3297 
L 4872 3297 
L 4872 2816 
L 3775 2816 
L 3519 1772 
L 4513 1772 
L 4513 1294 
L 3397 1294 
L 3072 0 
L 2572 0 
L 2894 1294 
L 1978 1294 
L 1656 0 
L 1153 0 
L 1478 1294 
L 494 1294 
L 494 1772 
L 1594 1772 
L 1856 2816 
L 850 2816 
L 850 3297 
L 1978 3297 
L 2297 4594 
L 2803 4594 
z
" transform="scale(0.015625)"/>
      <path id="DejaVuSans-77" d="M 269 3500 
L 844 3500 
L 1563 769 
L 2278 3500 
L 2956 3500 
L 3675 769 
L 4391 3500 
L 4966 3500 
L 4050 0 
L 3372 0 
L 2619 2869 
L 1863 0 
L 1184 0 
L 269 3500 
z
" transform="scale(0.015625)"/>
      <path id="DejaVuSans-70" d="M 1159 525 
L 1159 -1331 
L 581 -1331 
L 581 3500 
L 1159 3500 
L 1159 2969 
Q 1341 3281 1617 3432 
Q 1894 3584 2278 3584 
Q 2916 3584 3314 3078 
Q 3713 2572 3713 1747 
Q 3713 922 3314 415 
Q 2916 -91 2278 -91 
Q 1894 -91 1617 61 
Q 1341 213 1159 525 
z
M 3116 1747 
Q 3116 2381 2855 2742 
Q 2594 3103 2138 3103 
Q 1681 3103 1420 2742 
Q 1159 2381 1159 1747 
Q 1159 1113 1420 752 
Q 1681 391 2138 391 
Q 2594 391 2855 752 
Q 3116 1113 3116 1747 
z
" transform="scale(0.015625)"/>
     </defs>
     <use xlink:href="#DejaVuSans-23"/>
     <use xlink:href="#DejaVuSans-53" x="83.789062"/>
     <use xlink:href="#DejaVuSans-77" x="147.265625"/>
     <use xlink:href="#DejaVuSans-65" x="229.052734"/>
     <use xlink:href="#DejaVuSans-65" x="290.576172"/>
     <use xlink:href="#DejaVuSans-70" x="352.099609"/>
    </g>
   </g>
   <g id="text_27">
    <!-- $\mathdefault{24}$ -->
    <g transform="translate(869.904 625.39125) scale(0.12 -0.12)">
     <defs>
      <path id="DejaVuSans-34" d="M 2419 4116 
L 825 1625 
L 2419 1625 
L 2419 4116 
z
M 2253 4666 
L 3047 4666 
L 3047 1625 
L 3713 1625 
L 3713 1100 
L 3047 1100 
L 3047 0 
L 2419 0 
L 2419 1100 
L 313 1100 
L 313 1709 
L 2253 4666 
z
" transform="scale(0.015625)"/>
     </defs>
     <use xlink:href="#DejaVuSans-32" transform="translate(0 0.78125)"/>
     <use xlink:href="#DejaVuSans-34" transform="translate(63.623047 0.78125)"/>
    </g>
   </g>
  </g>
  <g id="text_28">
   <!-- DFF under BBI sweep analysis (Sweep = 34E-9) -->
   <g transform="translate(313.34625 25.1175) scale(0.16 -0.16)">
    <defs>
     <path id="DejaVuSans-75" d="M 544 1381 
L 544 3500 
L 1119 3500 
L 1119 1403 
Q 1119 906 1312 657 
Q 1506 409 1894 409 
Q 2359 409 2629 706 
Q 2900 1003 2900 1516 
L 2900 3500 
L 3475 3500 
L 3475 0 
L 2900 0 
L 2900 538 
Q 2691 219 2414 64 
Q 2138 -91 1772 -91 
Q 1169 -91 856 284 
Q 544 659 544 1381 
z
M 1991 3584 
L 1991 3584 
z
" transform="scale(0.015625)"/>
     <path id="DejaVuSans-64" d="M 2906 2969 
L 2906 4863 
L 3481 4863 
L 3481 0 
L 2906 0 
L 2906 525 
Q 2725 213 2448 61 
Q 2172 -91 1784 -91 
Q 1150 -91 751 415 
Q 353 922 353 1747 
Q 353 2572 751 3078 
Q 1150 3584 1784 3584 
Q 2172 3584 2448 3432 
Q 2725 3281 2906 2969 
z
M 947 1747 
Q 947 1113 1208 752 
Q 1469 391 1925 391 
Q 2381 391 2643 752 
Q 2906 1113 2906 1747 
Q 2906 2381 2643 2742 
Q 2381 3103 1925 3103 
Q 1469 3103 1208 2742 
Q 947 2381 947 1747 
z
" transform="scale(0.015625)"/>
     <path id="DejaVuSans-72" d="M 2631 2963 
Q 2534 3019 2420 3045 
Q 2306 3072 2169 3072 
Q 1681 3072 1420 2755 
Q 1159 2438 1159 1844 
L 1159 0 
L 581 0 
L 581 3500 
L 1159 3500 
L 1159 2956 
Q 1341 3275 1631 3429 
Q 1922 3584 2338 3584 
Q 2397 3584 2469 3576 
Q 2541 3569 2628 3553 
L 2631 2963 
z
" transform="scale(0.015625)"/>
     <path id="DejaVuSans-61" d="M 2194 1759 
Q 1497 1759 1228 1600 
Q 959 1441 959 1056 
Q 959 750 1161 570 
Q 1363 391 1709 391 
Q 2188 391 2477 730 
Q 2766 1069 2766 1631 
L 2766 1759 
L 2194 1759 
z
M 3341 1997 
L 3341 0 
L 2766 0 
L 2766 531 
Q 2569 213 2275 61 
Q 1981 -91 1556 -91 
Q 1019 -91 701 211 
Q 384 513 384 1019 
Q 384 1609 779 1909 
Q 1175 2209 1959 2209 
L 2766 2209 
L 2766 2266 
Q 2766 2663 2505 2880 
Q 2244 3097 1772 3097 
Q 1472 3097 1187 3025 
Q 903 2953 641 2809 
L 641 3341 
Q 956 3463 1253 3523 
Q 1550 3584 1831 3584 
Q 2591 3584 2966 3190 
Q 3341 2797 3341 1997 
z
" transform="scale(0.015625)"/>
     <path id="DejaVuSans-6c" d="M 603 4863 
L 1178 4863 
L 1178 0 
L 603 0 
L 603 4863 
z
" transform="scale(0.015625)"/>
     <path id="DejaVuSans-79" d="M 2059 -325 
Q 1816 -950 1584 -1140 
Q 1353 -1331 966 -1331 
L 506 -1331 
L 506 -850 
L 844 -850 
Q 1081 -850 1212 -737 
Q 1344 -625 1503 -206 
L 1606 56 
L 191 3500 
L 800 3500 
L 1894 763 
L 2988 3500 
L 3597 3500 
L 2059 -325 
z
" transform="scale(0.015625)"/>
     <path id="DejaVuSans-28" d="M 1984 4856 
Q 1566 4138 1362 3434 
Q 1159 2731 1159 2009 
Q 1159 1288 1364 580 
Q 1569 -128 1984 -844 
L 1484 -844 
Q 1016 -109 783 600 
Q 550 1309 550 2009 
Q 550 2706 781 3412 
Q 1013 4119 1484 4856 
L 1984 4856 
z
" transform="scale(0.015625)"/>
     <path id="DejaVuSans-3d" d="M 678 2906 
L 4684 2906 
L 4684 2381 
L 678 2381 
L 678 2906 
z
M 678 1631 
L 4684 1631 
L 4684 1100 
L 678 1100 
L 678 1631 
z
" transform="scale(0.015625)"/>
     <path id="DejaVuSans-33" d="M 2597 2516 
Q 3050 2419 3304 2112 
Q 3559 1806 3559 1356 
Q 3559 666 3084 287 
Q 2609 -91 1734 -91 
Q 1441 -91 1130 -33 
Q 819 25 488 141 
L 488 750 
Q 750 597 1062 519 
Q 1375 441 1716 441 
Q 2309 441 2620 675 
Q 2931 909 2931 1356 
Q 2931 1769 2642 2001 
Q 2353 2234 1838 2234 
L 1294 2234 
L 1294 2753 
L 1863 2753 
Q 2328 2753 2575 2939 
Q 2822 3125 2822 3475 
Q 2822 3834 2567 4026 
Q 2313 4219 1838 4219 
Q 1578 4219 1281 4162 
Q 984 4106 628 3988 
L 628 4550 
Q 988 4650 1302 4700 
Q 1616 4750 1894 4750 
Q 2613 4750 3031 4423 
Q 3450 4097 3450 3541 
Q 3450 3153 3228 2886 
Q 3006 2619 2597 2516 
z
" transform="scale(0.015625)"/>
     <path id="DejaVuSans-2d" d="M 313 2009 
L 1997 2009 
L 1997 1497 
L 313 1497 
L 313 2009 
z
" transform="scale(0.015625)"/>
     <path id="DejaVuSans-39" d="M 703 97 
L 703 672 
Q 941 559 1184 500 
Q 1428 441 1663 441 
Q 2288 441 2617 861 
Q 2947 1281 2994 2138 
Q 2813 1869 2534 1725 
Q 2256 1581 1919 1581 
Q 1219 1581 811 2004 
Q 403 2428 403 3163 
Q 403 3881 828 4315 
Q 1253 4750 1959 4750 
Q 2769 4750 3195 4129 
Q 3622 3509 3622 2328 
Q 3622 1225 3098 567 
Q 2575 -91 1691 -91 
Q 1453 -91 1209 -44 
Q 966 3 703 97 
z
M 1959 2075 
Q 2384 2075 2632 2365 
Q 2881 2656 2881 3163 
Q 2881 3666 2632 3958 
Q 2384 4250 1959 4250 
Q 1534 4250 1286 3958 
Q 1038 3666 1038 3163 
Q 1038 2656 1286 2365 
Q 1534 2075 1959 2075 
z
" transform="scale(0.015625)"/>
     <path id="DejaVuSans-29" d="M 513 4856 
L 1013 4856 
Q 1481 4119 1714 3412 
Q 1947 2706 1947 2009 
Q 1947 1309 1714 600 
Q 1481 -109 1013 -844 
L 513 -844 
Q 928 -128 1133 580 
Q 1338 1288 1338 2009 
Q 1338 2731 1133 3434 
Q 928 4138 513 4856 
z
" transform="scale(0.015625)"/>
    </defs>
    <use xlink:href="#DejaVuSans-44"/>
    <use xlink:href="#DejaVuSans-46" x="77.001953"/>
    <use xlink:href="#DejaVuSans-46" x="134.521484"/>
    <use xlink:href="#DejaVuSans-20" x="192.041016"/>
    <use xlink:href="#DejaVuSans-75" x="223.828125"/>
    <use xlink:href="#DejaVuSans-6e" x="287.207031"/>
    <use xlink:href="#DejaVuSans-64" x="350.585938"/>
    <use xlink:href="#DejaVuSans-65" x="414.0625"/>
    <use xlink:href="#DejaVuSans-72" x="475.585938"/>
    <use xlink:href="#DejaVuSans-20" x="516.699219"/>
    <use xlink:href="#DejaVuSans-42" x="548.486328"/>
    <use xlink:href="#DejaVuSans-42" x="617.089844"/>
    <use xlink:href="#DejaVuSans-49" x="685.693359"/>
    <use xlink:href="#DejaVuSans-20" x="715.185547"/>
    <use xlink:href="#DejaVuSans-73" x="746.972656"/>
    <use xlink:href="#DejaVuSans-77" x="799.072266"/>
    <use xlink:href="#DejaVuSans-65" x="880.859375"/>
    <use xlink:href="#DejaVuSans-65" x="942.382812"/>
    <use xlink:href="#DejaVuSans-70" x="1003.90625"/>
    <use xlink:href="#DejaVuSans-20" x="1067.382812"/>
    <use xlink:href="#DejaVuSans-61" x="1099.169922"/>
    <use xlink:href="#DejaVuSans-6e" x="1160.449219"/>
    <use xlink:href="#DejaVuSans-61" x="1223.828125"/>
    <use xlink:href="#DejaVuSans-6c" x="1285.107422"/>
    <use xlink:href="#DejaVuSans-79" x="1312.890625"/>
    <use xlink:href="#DejaVuSans-73" x="1372.070312"/>
    <use xlink:href="#DejaVuSans-69" x="1424.169922"/>
    <use xlink:href="#DejaVuSans-73" x="1451.953125"/>
    <use xlink:href="#DejaVuSans-20" x="1504.052734"/>
    <use xlink:href="#DejaVuSans-28" x="1535.839844"/>
    <use xlink:href="#DejaVuSans-53" x="1574.853516"/>
    <use xlink:href="#DejaVuSans-77" x="1638.330078"/>
    <use xlink:href="#DejaVuSans-65" x="1720.117188"/>
    <use xlink:href="#DejaVuSans-65" x="1781.640625"/>
    <use xlink:href="#DejaVuSans-70" x="1843.164062"/>
    <use xlink:href="#DejaVuSans-20" x="1906.640625"/>
    <use xlink:href="#DejaVuSans-3d" x="1938.427734"/>
    <use xlink:href="#DejaVuSans-20" x="2022.216797"/>
    <use xlink:href="#DejaVuSans-33" x="2054.003906"/>
    <use xlink:href="#DejaVuSans-34" x="2117.626953"/>
    <use xlink:href="#DejaVuSans-45" x="2181.25"/>
    <use xlink:href="#DejaVuSans-2d" x="2244.433594"/>
    <use xlink:href="#DejaVuSans-39" x="2280.517578"/>
    <use xlink:href="#DejaVuSans-29" x="2344.140625"/>
   </g>
  </g>
 </g>
 <defs>
  <clipPath id="p39d0d79204">
   <rect x="100.8" y="38.88" width="887.04" height="92.731034"/>
  </clipPath>
  <clipPath id="p119c04812b">
   <rect x="100.8" y="150.157241" width="887.04" height="92.731034"/>
  </clipPath>
  <clipPath id="pc105f7a68a">
   <rect x="100.8" y="261.434483" width="887.04" height="92.731034"/>
  </clipPath>
  <clipPath id="p227cd9036f">
   <rect x="100.8" y="372.711724" width="887.04" height="92.731034"/>
  </clipPath>
  <clipPath id="p0f9c4657a3">
   <rect x="100.8" y="483.988966" width="887.04" height="92.731034"/>
  </clipPath>
  <clipPath id="p4c9c34c601">
   <rect x="201.6" y="609.12" width="655.2" height="25.92"/>
  </clipPath>
  <clipPath id="pfe115cc112">
   <path d="M 201.6 628.56 
L 856.8 628.56 
L 856.8 615.6 
L 201.6 615.6 
z
"/>
  </clipPath>
 </defs>
</svg>
