<?xml version="1.0" encoding="utf-8" standalone="no"?>
<!DOCTYPE svg PUBLIC "-//W3C//DTD SVG 1.1//EN"
  "http://www.w3.org/Graphics/SVG/1.1/DTD/svg11.dtd">
<svg xmlns:xlink="http://www.w3.org/1999/xlink" width="1008pt" height="648pt" viewBox="0 0 1008 648" xmlns="http://www.w3.org/2000/svg" version="1.1">
 <metadata>
  <rdf:RDF xmlns:dc="http://purl.org/dc/elements/1.1/" xmlns:cc="http://creativecommons.org/ns#" xmlns:rdf="http://www.w3.org/1999/02/22-rdf-syntax-ns#">
   <cc:Work>
    <dc:type rdf:resource="http://purl.org/dc/dcmitype/StillImage"/>
    <dc:date>2024-06-03T10:45:39.300023</dc:date>
    <dc:format>image/svg+xml</dc:format>
    <dc:creator>
     <cc:Agent>
      <dc:title>Matplotlib v3.9.0, https://matplotlib.org/</dc:title>
     </cc:Agent>
    </dc:creator>
   </cc:Work>
  </rdf:RDF>
 </metadata>
 <defs>
  <style type="text/css">*{stroke-linejoin: round; stroke-linecap: butt}</style>
 </defs>
 <g id="figure_1">
  <g id="patch_1">
   <path d="M 0 648 
L 1008 648 
L 1008 0 
L 0 0 
z
" style="fill: #ffffff"/>
  </g>
  <g id="axes_1">
   <g id="patch_2">
    <path d="M 100.8 131.611034 
L 987.84 131.611034 
L 987.84 38.88 
L 100.8 38.88 
z
" style="fill: #eeeeee"/>
   </g>
   <g id="matplotlib.axis_1">
    <g id="xtick_1">
     <g id="line2d_1">
      <path d="M 141.12 131.611034 
L 141.12 38.88 
" clip-path="url(#p12c115ef5e)" style="fill: none; stroke-dasharray: 1.85,0.8; stroke-dashoffset: 0; stroke: #b2b2b2; stroke-width: 0.5"/>
     </g>
     <g id="line2d_2">
      <defs>
       <path id="m6aa8ace10f" d="M 0 0 
L 0 -3.5 
" style="stroke: #000000; stroke-width: 0.8"/>
      </defs>
      <g>
       <use xlink:href="#m6aa8ace10f" x="141.12" y="131.611034" style="stroke: #000000; stroke-width: 0.8"/>
      </g>
     </g>
    </g>
    <g id="xtick_2">
     <g id="line2d_3">
      <path d="M 302.4 131.611034 
L 302.4 38.88 
" clip-path="url(#p12c115ef5e)" style="fill: none; stroke-dasharray: 1.85,0.8; stroke-dashoffset: 0; stroke: #b2b2b2; stroke-width: 0.5"/>
     </g>
     <g id="line2d_4">
      <g>
       <use xlink:href="#m6aa8ace10f" x="302.4" y="131.611034" style="stroke: #000000; stroke-width: 0.8"/>
      </g>
     </g>
    </g>
    <g id="xtick_3">
     <g id="line2d_5">
      <path d="M 463.68 131.611034 
L 463.68 38.88 
" clip-path="url(#p12c115ef5e)" style="fill: none; stroke-dasharray: 1.85,0.8; stroke-dashoffset: 0; stroke: #b2b2b2; stroke-width: 0.5"/>
     </g>
     <g id="line2d_6">
      <g>
       <use xlink:href="#m6aa8ace10f" x="463.68" y="131.611034" style="stroke: #000000; stroke-width: 0.8"/>
      </g>
     </g>
    </g>
    <g id="xtick_4">
     <g id="line2d_7">
      <path d="M 624.96 131.611034 
L 624.96 38.88 
" clip-path="url(#p12c115ef5e)" style="fill: none; stroke-dasharray: 1.85,0.8; stroke-dashoffset: 0; stroke: #b2b2b2; stroke-width: 0.5"/>
     </g>
     <g id="line2d_8">
      <g>
       <use xlink:href="#m6aa8ace10f" x="624.96" y="131.611034" style="stroke: #000000; stroke-width: 0.8"/>
      </g>
     </g>
    </g>
    <g id="xtick_5">
     <g id="line2d_9">
      <path d="M 786.24 131.611034 
L 786.24 38.88 
" clip-path="url(#p12c115ef5e)" style="fill: none; stroke-dasharray: 1.85,0.8; stroke-dashoffset: 0; stroke: #b2b2b2; stroke-width: 0.5"/>
     </g>
     <g id="line2d_10">
      <g>
       <use xlink:href="#m6aa8ace10f" x="786.24" y="131.611034" style="stroke: #000000; stroke-width: 0.8"/>
      </g>
     </g>
    </g>
    <g id="xtick_6">
     <g id="line2d_11">
      <path d="M 947.52 131.611034 
L 947.52 38.88 
" clip-path="url(#p12c115ef5e)" style="fill: none; stroke-dasharray: 1.85,0.8; stroke-dashoffset: 0; stroke: #b2b2b2; stroke-width: 0.5"/>
     </g>
     <g id="line2d_12">
      <g>
       <use xlink:href="#m6aa8ace10f" x="947.52" y="131.611034" style="stroke: #000000; stroke-width: 0.8"/>
      </g>
     </g>
    </g>
   </g>
   <g id="matplotlib.axis_2">
    <g id="ytick_1">
     <g id="line2d_13">
      <path d="M 100.8 98.340394 
L 987.84 98.340394 
" clip-path="url(#p12c115ef5e)" style="fill: none; stroke-dasharray: 1.85,0.8; stroke-dashoffset: 0; stroke: #b2b2b2; stroke-width: 0.5"/>
     </g>
     <g id="line2d_14">
      <defs>
       <path id="m0212071e67" d="M 0 0 
L 3.5 0 
" style="stroke: #000000; stroke-width: 0.8"/>
      </defs>
      <g>
       <use xlink:href="#m0212071e67" x="100.8" y="98.340394" style="stroke: #000000; stroke-width: 0.8"/>
      </g>
     </g>
     <g id="text_1">
      <!-- −200 V -->
      <g transform="translate(44.819688 103.6593) scale(0.14 -0.14)">
       <defs>
        <path id="DejaVuSans-2212" d="M 678 2272 
L 4684 2272 
L 4684 1741 
L 678 1741 
L 678 2272 
z
" transform="scale(0.015625)"/>
        <path id="DejaVuSans-32" d="M 1228 531 
L 3431 531 
L 3431 0 
L 469 0 
L 469 531 
Q 828 903 1448 1529 
Q 2069 2156 2228 2338 
Q 2531 2678 2651 2914 
Q 2772 3150 2772 3378 
Q 2772 3750 2511 3984 
Q 2250 4219 1831 4219 
Q 1534 4219 1204 4116 
Q 875 4013 500 3803 
L 500 4441 
Q 881 4594 1212 4672 
Q 1544 4750 1819 4750 
Q 2544 4750 2975 4387 
Q 3406 4025 3406 3419 
Q 3406 3131 3298 2873 
Q 3191 2616 2906 2266 
Q 2828 2175 2409 1742 
Q 1991 1309 1228 531 
z
" transform="scale(0.015625)"/>
        <path id="DejaVuSans-30" d="M 2034 4250 
Q 1547 4250 1301 3770 
Q 1056 3291 1056 2328 
Q 1056 1369 1301 889 
Q 1547 409 2034 409 
Q 2525 409 2770 889 
Q 3016 1369 3016 2328 
Q 3016 3291 2770 3770 
Q 2525 4250 2034 4250 
z
M 2034 4750 
Q 2819 4750 3233 4129 
Q 3647 3509 3647 2328 
Q 3647 1150 3233 529 
Q 2819 -91 2034 -91 
Q 1250 -91 836 529 
Q 422 1150 422 2328 
Q 422 3509 836 4129 
Q 1250 4750 2034 4750 
z
" transform="scale(0.015625)"/>
        <path id="DejaVuSans-20" transform="scale(0.015625)"/>
        <path id="DejaVuSans-56" d="M 1831 0 
L 50 4666 
L 709 4666 
L 2188 738 
L 3669 4666 
L 4325 4666 
L 2547 0 
L 1831 0 
z
" transform="scale(0.015625)"/>
       </defs>
       <use xlink:href="#DejaVuSans-2212"/>
       <use xlink:href="#DejaVuSans-32" x="83.789062"/>
       <use xlink:href="#DejaVuSans-30" x="147.412109"/>
       <use xlink:href="#DejaVuSans-30" x="211.035156"/>
       <use xlink:href="#DejaVuSans-20" x="274.658203"/>
       <use xlink:href="#DejaVuSans-56" x="306.445312"/>
      </g>
     </g>
    </g>
    <g id="ytick_2">
     <g id="line2d_15">
      <path d="M 100.8 45.027377 
L 987.84 45.027377 
" clip-path="url(#p12c115ef5e)" style="fill: none; stroke-dasharray: 1.85,0.8; stroke-dashoffset: 0; stroke: #b2b2b2; stroke-width: 0.5"/>
     </g>
     <g id="line2d_16">
      <g>
       <use xlink:href="#m0212071e67" x="100.8" y="45.027377" style="stroke: #000000; stroke-width: 0.8"/>
      </g>
     </g>
     <g id="text_2">
      <!-- 0 V -->
      <g transform="translate(74.36625 50.346284) scale(0.14 -0.14)">
       <use xlink:href="#DejaVuSans-30"/>
       <use xlink:href="#DejaVuSans-20" x="63.623047"/>
       <use xlink:href="#DejaVuSans-56" x="95.410156"/>
      </g>
     </g>
    </g>
    <g id="text_3">
     <g id="patch_3">
      <path d="M 34.8768 131.080205 
L 34.8768 39.41083 
L 11.247425 39.41083 
L 11.247425 131.080205 
z
" style="fill: #ffff00; opacity: 0.2; stroke: #eeeeee; stroke-width: 0.5; stroke-linejoin: miter"/>
     </g>
     <!-- VPULSE BBI -->
     <g transform="translate(26.925238 126.040205) rotate(-90) scale(0.14 -0.14)">
      <defs>
       <path id="DejaVuSans-50" d="M 1259 4147 
L 1259 2394 
L 2053 2394 
Q 2494 2394 2734 2622 
Q 2975 2850 2975 3272 
Q 2975 3691 2734 3919 
Q 2494 4147 2053 4147 
L 1259 4147 
z
M 628 4666 
L 2053 4666 
Q 2838 4666 3239 4311 
Q 3641 3956 3641 3272 
Q 3641 2581 3239 2228 
Q 2838 1875 2053 1875 
L 1259 1875 
L 1259 0 
L 628 0 
L 628 4666 
z
" transform="scale(0.015625)"/>
       <path id="DejaVuSans-55" d="M 556 4666 
L 1191 4666 
L 1191 1831 
Q 1191 1081 1462 751 
Q 1734 422 2344 422 
Q 2950 422 3222 751 
Q 3494 1081 3494 1831 
L 3494 4666 
L 4128 4666 
L 4128 1753 
Q 4128 841 3676 375 
Q 3225 -91 2344 -91 
Q 1459 -91 1007 375 
Q 556 841 556 1753 
L 556 4666 
z
" transform="scale(0.015625)"/>
       <path id="DejaVuSans-4c" d="M 628 4666 
L 1259 4666 
L 1259 531 
L 3531 531 
L 3531 0 
L 628 0 
L 628 4666 
z
" transform="scale(0.015625)"/>
       <path id="DejaVuSans-53" d="M 3425 4513 
L 3425 3897 
Q 3066 4069 2747 4153 
Q 2428 4238 2131 4238 
Q 1616 4238 1336 4038 
Q 1056 3838 1056 3469 
Q 1056 3159 1242 3001 
Q 1428 2844 1947 2747 
L 2328 2669 
Q 3034 2534 3370 2195 
Q 3706 1856 3706 1288 
Q 3706 609 3251 259 
Q 2797 -91 1919 -91 
Q 1588 -91 1214 -16 
Q 841 59 441 206 
L 441 856 
Q 825 641 1194 531 
Q 1563 422 1919 422 
Q 2459 422 2753 634 
Q 3047 847 3047 1241 
Q 3047 1584 2836 1778 
Q 2625 1972 2144 2069 
L 1759 2144 
Q 1053 2284 737 2584 
Q 422 2884 422 3419 
Q 422 4038 858 4394 
Q 1294 4750 2059 4750 
Q 2388 4750 2728 4690 
Q 3069 4631 3425 4513 
z
" transform="scale(0.015625)"/>
       <path id="DejaVuSans-45" d="M 628 4666 
L 3578 4666 
L 3578 4134 
L 1259 4134 
L 1259 2753 
L 3481 2753 
L 3481 2222 
L 1259 2222 
L 1259 531 
L 3634 531 
L 3634 0 
L 628 0 
L 628 4666 
z
" transform="scale(0.015625)"/>
       <path id="DejaVuSans-42" d="M 1259 2228 
L 1259 519 
L 2272 519 
Q 2781 519 3026 730 
Q 3272 941 3272 1375 
Q 3272 1813 3026 2020 
Q 2781 2228 2272 2228 
L 1259 2228 
z
M 1259 4147 
L 1259 2741 
L 2194 2741 
Q 2656 2741 2882 2914 
Q 3109 3088 3109 3444 
Q 3109 3797 2882 3972 
Q 2656 4147 2194 4147 
L 1259 4147 
z
M 628 4666 
L 2241 4666 
Q 2963 4666 3353 4366 
Q 3744 4066 3744 3513 
Q 3744 3084 3544 2831 
Q 3344 2578 2956 2516 
Q 3422 2416 3680 2098 
Q 3938 1781 3938 1306 
Q 3938 681 3513 340 
Q 3088 0 2303 0 
L 628 0 
L 628 4666 
z
" transform="scale(0.015625)"/>
       <path id="DejaVuSans-49" d="M 628 4666 
L 1259 4666 
L 1259 0 
L 628 0 
L 628 4666 
z
" transform="scale(0.015625)"/>
      </defs>
      <use xlink:href="#DejaVuSans-56"/>
      <use xlink:href="#DejaVuSans-50" x="68.408203"/>
      <use xlink:href="#DejaVuSans-55" x="128.710938"/>
      <use xlink:href="#DejaVuSans-4c" x="201.904297"/>
      <use xlink:href="#DejaVuSans-53" x="257.617188"/>
      <use xlink:href="#DejaVuSans-45" x="321.09375"/>
      <use xlink:href="#DejaVuSans-20" x="384.277344"/>
      <use xlink:href="#DejaVuSans-42" x="416.064453"/>
      <use xlink:href="#DejaVuSans-42" x="484.667969"/>
      <use xlink:href="#DejaVuSans-49" x="553.271484"/>
     </g>
    </g>
   </g>
   <g id="line2d_17">
    <path d="M 141.12 45.027377 
L 341.139456 45.136282 
L 341.623296 46.425538 
L 349.848576 69.006772 
L 357.267456 89.863624 
L 358.880256 94.440546 
L 360.686592 99.673219 
L 364.17024 110.807642 
L 365.750784 115.853719 
L 366.976512 119.550977 
L 370.879488 121.36362 
L 371.460096 121.619522 
L 372.331008 122.003376 
L 372.976128 122.269941 
L 374.556672 122.936354 
L 375.201792 123.202919 
L 376.298496 123.629423 
L 377.040384 123.922644 
L 378.137088 124.349149 
L 379.040256 124.677024 
L 379.717632 124.943589 
L 380.524032 125.25547 
L 381.878784 125.804594 
L 384.523776 126.790885 
L 385.13664 127.022796 
L 387.072 127.395987 
L 405.554688 127.289361 
L 405.78048 126.801547 
L 424.069632 75.087922 
L 427.811328 63.292417 
L 431.520768 51.617666 
L 436.133376 49.3412 
L 441.487872 46.984578 
L 450.196992 43.484472 
L 451.067904 43.268927 
L 465.357312 43.108189 
L 472.163328 43.184799 
L 487.517184 43.746186 
L 515.2896 44.46146 
L 540.93312 44.774399 
L 576.543744 44.945888 
L 624.572928 44.953885 
L 947.52 44.953885 
L 947.52 44.953885 
" clip-path="url(#p12c115ef5e)" style="fill: none; stroke: #ff0000; stroke-width: 2; stroke-linecap: square"/>
   </g>
   <g id="patch_4">
    <path d="M 100.8 131.611034 
L 100.8 38.88 
" style="fill: none; stroke: #bcbcbc; stroke-width: 0.8; stroke-linejoin: miter; stroke-linecap: square"/>
   </g>
   <g id="patch_5">
    <path d="M 987.84 131.611034 
L 987.84 38.88 
" style="fill: none; stroke: #bcbcbc; stroke-width: 0.8; stroke-linejoin: miter; stroke-linecap: square"/>
   </g>
   <g id="patch_6">
    <path d="M 100.8 131.611034 
L 987.84 131.611034 
" style="fill: none; stroke: #bcbcbc; stroke-width: 0.8; stroke-linejoin: miter; stroke-linecap: square"/>
   </g>
   <g id="patch_7">
    <path d="M 100.8 38.88 
L 987.84 38.88 
" style="fill: none; stroke: #bcbcbc; stroke-width: 0.8; stroke-linejoin: miter; stroke-linecap: square"/>
   </g>
  </g>
  <g id="axes_2">
   <g id="patch_8">
    <path d="M 100.8 242.888276 
L 987.84 242.888276 
L 987.84 150.157241 
L 100.8 150.157241 
z
" style="fill: #eeeeee"/>
   </g>
   <g id="matplotlib.axis_3">
    <g id="xtick_7">
     <g id="line2d_18">
      <path d="M 141.12 242.888276 
L 141.12 150.157241 
" clip-path="url(#p0db5746d90)" style="fill: none; stroke-dasharray: 1.85,0.8; stroke-dashoffset: 0; stroke: #b2b2b2; stroke-width: 0.5"/>
     </g>
     <g id="line2d_19">
      <g>
       <use xlink:href="#m6aa8ace10f" x="141.12" y="242.888276" style="stroke: #000000; stroke-width: 0.8"/>
      </g>
     </g>
    </g>
    <g id="xtick_8">
     <g id="line2d_20">
      <path d="M 302.4 242.888276 
L 302.4 150.157241 
" clip-path="url(#p0db5746d90)" style="fill: none; stroke-dasharray: 1.85,0.8; stroke-dashoffset: 0; stroke: #b2b2b2; stroke-width: 0.5"/>
     </g>
     <g id="line2d_21">
      <g>
       <use xlink:href="#m6aa8ace10f" x="302.4" y="242.888276" style="stroke: #000000; stroke-width: 0.8"/>
      </g>
     </g>
    </g>
    <g id="xtick_9">
     <g id="line2d_22">
      <path d="M 463.68 242.888276 
L 463.68 150.157241 
" clip-path="url(#p0db5746d90)" style="fill: none; stroke-dasharray: 1.85,0.8; stroke-dashoffset: 0; stroke: #b2b2b2; stroke-width: 0.5"/>
     </g>
     <g id="line2d_23">
      <g>
       <use xlink:href="#m6aa8ace10f" x="463.68" y="242.888276" style="stroke: #000000; stroke-width: 0.8"/>
      </g>
     </g>
    </g>
    <g id="xtick_10">
     <g id="line2d_24">
      <path d="M 624.96 242.888276 
L 624.96 150.157241 
" clip-path="url(#p0db5746d90)" style="fill: none; stroke-dasharray: 1.85,0.8; stroke-dashoffset: 0; stroke: #b2b2b2; stroke-width: 0.5"/>
     </g>
     <g id="line2d_25">
      <g>
       <use xlink:href="#m6aa8ace10f" x="624.96" y="242.888276" style="stroke: #000000; stroke-width: 0.8"/>
      </g>
     </g>
    </g>
    <g id="xtick_11">
     <g id="line2d_26">
      <path d="M 786.24 242.888276 
L 786.24 150.157241 
" clip-path="url(#p0db5746d90)" style="fill: none; stroke-dasharray: 1.85,0.8; stroke-dashoffset: 0; stroke: #b2b2b2; stroke-width: 0.5"/>
     </g>
     <g id="line2d_27">
      <g>
       <use xlink:href="#m6aa8ace10f" x="786.24" y="242.888276" style="stroke: #000000; stroke-width: 0.8"/>
      </g>
     </g>
    </g>
    <g id="xtick_12">
     <g id="line2d_28">
      <path d="M 947.52 242.888276 
L 947.52 150.157241 
" clip-path="url(#p0db5746d90)" style="fill: none; stroke-dasharray: 1.85,0.8; stroke-dashoffset: 0; stroke: #b2b2b2; stroke-width: 0.5"/>
     </g>
     <g id="line2d_29">
      <g>
       <use xlink:href="#m6aa8ace10f" x="947.52" y="242.888276" style="stroke: #000000; stroke-width: 0.8"/>
      </g>
     </g>
    </g>
   </g>
   <g id="matplotlib.axis_4">
    <g id="ytick_3">
     <g id="line2d_30">
      <path d="M 100.8 219.265345 
L 987.84 219.265345 
" clip-path="url(#p0db5746d90)" style="fill: none; stroke-dasharray: 1.85,0.8; stroke-dashoffset: 0; stroke: #b2b2b2; stroke-width: 0.5"/>
     </g>
     <g id="line2d_31">
      <g>
       <use xlink:href="#m0212071e67" x="100.8" y="219.265345" style="stroke: #000000; stroke-width: 0.8"/>
      </g>
     </g>
     <g id="text_4">
      <!-- 0 V -->
      <g transform="translate(74.36625 224.584251) scale(0.14 -0.14)">
       <use xlink:href="#DejaVuSans-30"/>
       <use xlink:href="#DejaVuSans-20" x="63.623047"/>
       <use xlink:href="#DejaVuSans-56" x="95.410156"/>
      </g>
     </g>
    </g>
    <g id="ytick_4">
     <g id="line2d_32">
      <path d="M 100.8 185.727148 
L 987.84 185.727148 
" clip-path="url(#p0db5746d90)" style="fill: none; stroke-dasharray: 1.85,0.8; stroke-dashoffset: 0; stroke: #b2b2b2; stroke-width: 0.5"/>
     </g>
     <g id="line2d_33">
      <g>
       <use xlink:href="#m0212071e67" x="100.8" y="185.727148" style="stroke: #000000; stroke-width: 0.8"/>
      </g>
     </g>
     <g id="text_5">
      <!-- 1 V -->
      <g transform="translate(74.36625 191.046055) scale(0.14 -0.14)">
       <defs>
        <path id="DejaVuSans-31" d="M 794 531 
L 1825 531 
L 1825 4091 
L 703 3866 
L 703 4441 
L 1819 4666 
L 2450 4666 
L 2450 531 
L 3481 531 
L 3481 0 
L 794 0 
L 794 531 
z
" transform="scale(0.015625)"/>
       </defs>
       <use xlink:href="#DejaVuSans-31"/>
       <use xlink:href="#DejaVuSans-20" x="63.623047"/>
       <use xlink:href="#DejaVuSans-56" x="95.410156"/>
      </g>
     </g>
    </g>
    <g id="ytick_5">
     <g id="line2d_34">
      <path d="M 100.8 152.188952 
L 987.84 152.188952 
" clip-path="url(#p0db5746d90)" style="fill: none; stroke-dasharray: 1.85,0.8; stroke-dashoffset: 0; stroke: #b2b2b2; stroke-width: 0.5"/>
     </g>
     <g id="line2d_35">
      <g>
       <use xlink:href="#m0212071e67" x="100.8" y="152.188952" style="stroke: #000000; stroke-width: 0.8"/>
      </g>
     </g>
     <g id="text_6">
      <!-- 2 V -->
      <g transform="translate(74.36625 157.507858) scale(0.14 -0.14)">
       <use xlink:href="#DejaVuSans-32"/>
       <use xlink:href="#DejaVuSans-20" x="63.623047"/>
       <use xlink:href="#DejaVuSans-56" x="95.410156"/>
      </g>
     </g>
    </g>
    <g id="text_7">
     <g id="patch_9">
      <path d="M 34.8768 224.531509 
L 34.8768 168.514009 
L 11.247425 168.514009 
L 11.247425 224.531509 
z
" style="fill: #ffff00; opacity: 0.2; stroke: #eeeeee; stroke-width: 0.5; stroke-linejoin: miter"/>
     </g>
     <!-- DFF IN -->
     <g transform="translate(26.925238 219.491509) rotate(-90) scale(0.14 -0.14)">
      <defs>
       <path id="DejaVuSans-44" d="M 1259 4147 
L 1259 519 
L 2022 519 
Q 2988 519 3436 956 
Q 3884 1394 3884 2338 
Q 3884 3275 3436 3711 
Q 2988 4147 2022 4147 
L 1259 4147 
z
M 628 4666 
L 1925 4666 
Q 3281 4666 3915 4102 
Q 4550 3538 4550 2338 
Q 4550 1131 3912 565 
Q 3275 0 1925 0 
L 628 0 
L 628 4666 
z
" transform="scale(0.015625)"/>
       <path id="DejaVuSans-46" d="M 628 4666 
L 3309 4666 
L 3309 4134 
L 1259 4134 
L 1259 2759 
L 3109 2759 
L 3109 2228 
L 1259 2228 
L 1259 0 
L 628 0 
L 628 4666 
z
" transform="scale(0.015625)"/>
       <path id="DejaVuSans-4e" d="M 628 4666 
L 1478 4666 
L 3547 763 
L 3547 4666 
L 4159 4666 
L 4159 0 
L 3309 0 
L 1241 3903 
L 1241 0 
L 628 0 
L 628 4666 
z
" transform="scale(0.015625)"/>
      </defs>
      <use xlink:href="#DejaVuSans-44"/>
      <use xlink:href="#DejaVuSans-46" x="77.001953"/>
      <use xlink:href="#DejaVuSans-46" x="134.521484"/>
      <use xlink:href="#DejaVuSans-20" x="192.041016"/>
      <use xlink:href="#DejaVuSans-49" x="223.828125"/>
      <use xlink:href="#DejaVuSans-4e" x="253.320312"/>
     </g>
    </g>
   </g>
   <g id="line2d_36">
    <path d="M 141.12 219.216366 
L 221.953536 219.170375 
L 224.437248 200.483284 
L 225.404928 194.79856 
L 228.243456 182.299545 
L 229.598208 181.045216 
L 231.178752 180.183285 
L 236.565504 179.733873 
L 243.661824 179.623197 
L 245.1456 179.579597 
L 248.403456 179.468921 
L 250.113024 179.401845 
L 252.177408 179.291169 
L 254.241792 178.965848 
L 254.757888 178.435945 
L 255.499776 178.100563 
L 256.370688 178.120685 
L 257.531904 178.352099 
L 259.98336 178.751204 
L 262.370304 178.88871 
L 263.886336 178.939017 
L 264.144384 184.110607 
L 264.434688 187.629435 
L 265.176576 192.317069 
L 267.144192 209.427251 
L 268.402176 215.851492 
L 269.079552 217.161494 
L 270.46656 218.858057 
L 273.724416 219.267156 
L 282.594816 219.220796 
L 297.110016 219.209591 
L 305.883648 219.215571 
L 341.203968 219.309263 
L 342.623232 220.663217 
L 344.526336 221.627038 
L 345.78432 221.869754 
L 347.71968 221.993577 
L 347.784192 221.994046 
L 348.04224 220.8022 
L 349.235712 215.671057 
L 350.203392 212.601305 
L 351.783936 208.573368 
L 353.009664 206.425582 
L 353.590272 205.874885 
L 353.719296 205.986232 
L 353.977344 206.561412 
L 354.751488 209.788457 
L 355.94496 214.316113 
L 358.460928 222.846889 
L 358.783488 223.438503 
L 358.977024 223.818491 
L 359.81568 225.855936 
L 360.105984 226.158786 
L 360.364032 226.423402 
L 361.170432 228.429657 
L 364.97664 235.439141 
L 365.266944 235.874466 
L 365.654016 236.627063 
L 366.976512 238.672893 
L 367.170048 238.614202 
L 367.653888 237.80459 
L 367.87968 237.604702 
L 368.20224 237.069097 
L 368.557056 236.335281 
L 368.653824 236.290675 
L 369.234432 235.586038 
L 369.524736 235.313372 
L 370.944 233.563014 
L 371.943936 232.841272 
L 372.266496 232.342223 
L 372.621312 231.829089 
L 373.008384 231.537642 
L 373.04064 231.574199 
L 374.846976 230.203493 
L 375.45984 229.273478 
L 375.7824 229.14771 
L 375.94368 229.135301 
L 376.685568 228.678846 
L 378.072576 227.389303 
L 378.298368 227.074379 
L 378.395136 226.986173 
L 378.491904 226.887236 
L 378.782208 226.665548 
L 379.459584 226.375443 
L 381.491712 224.59054 
L 381.782016 224.359797 
L 382.39488 224.119328 
L 383.459328 223.340236 
L 386.394624 220.979449 
L 387.55584 219.636848 
L 389.071872 217.581761 
L 393.297408 212.034175 
L 395.61984 209.222332 
L 398.232576 202.072995 
L 398.748672 201.235881 
L 401.974272 196.793076 
L 403.03872 195.636009 
L 403.84512 194.627851 
L 405.328896 193.302421 
L 405.683712 192.822154 
L 406.10304 191.517854 
L 407.457792 187.072701 
L 408.264192 185.257614 
L 409.32864 183.496858 
L 410.876928 181.437613 
L 415.392768 175.672397 
L 415.94112 173.358262 
L 416.650752 171.409692 
L 417.166848 170.648375 
L 417.521664 170.52093 
L 418.295808 170.413608 
L 418.811904 170.088287 
L 419.328 169.585214 
L 426.26304 160.757961 
L 428.68224 157.672447 
L 431.456256 154.372288 
L 432.327168 154.851885 
L 432.940032 155.04976 
L 433.778688 155.197328 
L 434.907648 155.422034 
L 440.584704 157.306881 
L 442.55232 158.007829 
L 451.035648 160.764669 
L 454.48704 162.438225 
L 455.325696 162.810499 
L 455.745024 163.186126 
L 456.841728 167.707075 
L 457.132032 168.17661 
L 457.454592 168.236979 
L 457.71264 168.099472 
L 458.164224 167.646707 
L 459.228672 166.580192 
L 460.4544 166.056996 
L 461.647872 166.043581 
L 463.067136 166.301825 
L 467.808768 167.39517 
L 468.808704 167.69366 
L 476.066304 169.843459 
L 477.840384 170.319701 
L 478.646784 170.537699 
L 480.195072 170.913327 
L 480.646656 171.024003 
L 494.032896 173.700351 
L 494.64576 173.800966 
L 495.097344 173.871396 
L 496.09728 173.871396 
L 496.548864 173.364969 
L 497.000448 173.160386 
L 497.355264 173.160386 
L 497.742336 173.224109 
L 501.161472 174.532098 
L 505.225728 175.266585 
L 519.773184 176.668482 
L 521.385984 176.77245 
L 521.869824 176.809342 
L 524.708352 176.993802 
L 526.514688 177.104478 
L 527.288832 177.154785 
L 528.03072 177.18497 
L 530.514432 177.332538 
L 532.643328 177.43986 
L 533.0304 177.446568 
L 535.320576 177.557244 
L 536.449536 177.751765 
L 536.90112 178.288376 
L 537.352704 178.566743 
L 537.8688 178.714312 
L 538.417152 178.724373 
L 540.029952 178.278315 
L 541.223424 178.020071 
L 542.126592 177.942933 
L 548.706816 178.053609 
L 550.158336 178.093855 
L 554.061312 178.197823 
L 554.545152 178.234715 
L 559.254528 178.345391 
L 560.577024 178.372222 
L 565.899264 178.482898 
L 566.963712 178.482898 
L 573.769728 178.593574 
L 575.059968 178.617051 
L 576.73728 178.526498 
L 577.285632 177.96641 
L 577.769472 177.741704 
L 578.382336 177.664566 
L 579.15648 177.775242 
L 582.607872 178.382283 
L 585.60768 178.583513 
L 617.025024 178.690835 
L 617.637888 179.334768 
L 618.02496 179.515874 
L 618.605568 179.650027 
L 620.960256 179.539351 
L 622.70208 179.247569 
L 623.960064 179.096647 
L 628.50816 178.734434 
L 657.312768 178.657297 
L 657.86112 178.050255 
L 658.409472 177.778596 
L 660.344832 177.885918 
L 663.602688 178.452714 
L 665.76384 178.566743 
L 697.632768 178.657297 
L 698.600448 179.512521 
L 700.019712 179.700335 
L 701.72928 179.589658 
L 703.438848 179.30123 
L 705.729024 178.935664 
L 709.115904 178.694189 
L 737.985024 178.613697 
L 738.468864 178.090501 
L 739.081728 177.775242 
L 740.2752 177.755119 
L 744.242688 178.469483 
L 745.952256 178.536559 
L 778.240512 178.643881 
L 778.401792 178.821634 
L 778.82112 179.240861 
L 779.433984 179.55612 
L 780.659712 179.700335 
L 782.36928 179.589658 
L 784.078848 179.30123 
L 786.369024 178.935664 
L 789.755904 178.694189 
L 818.625024 178.613697 
L 819.108864 178.087147 
L 819.818496 177.765181 
L 820.9152 177.755119 
L 824.882688 178.469483 
L 826.592256 178.536559 
L 858.880512 178.643881 
L 859.041792 178.821634 
L 859.46112 179.240861 
L 860.073984 179.55612 
L 861.299712 179.700335 
L 863.00928 179.589658 
L 864.718848 179.30123 
L 867.009024 178.935664 
L 870.395904 178.694189 
L 899.265024 178.613697 
L 899.748864 178.087147 
L 900.458496 177.765181 
L 901.5552 177.755119 
L 905.522688 178.469483 
L 907.232256 178.536559 
L 939.520512 178.643881 
L 939.681792 178.824988 
L 940.165632 179.304584 
L 940.649472 179.522582 
L 941.55264 179.696981 
L 943.488 179.586305 
L 946.487808 179.07317 
L 947.52 178.915541 
L 947.52 178.915541 
" clip-path="url(#p0db5746d90)" style="fill: none; stroke: #008000; stroke-width: 2; stroke-linecap: square"/>
   </g>
   <g id="patch_10">
    <path d="M 100.8 242.888276 
L 100.8 150.157241 
" style="fill: none; stroke: #bcbcbc; stroke-width: 0.8; stroke-linejoin: miter; stroke-linecap: square"/>
   </g>
   <g id="patch_11">
    <path d="M 987.84 242.888276 
L 987.84 150.157241 
" style="fill: none; stroke: #bcbcbc; stroke-width: 0.8; stroke-linejoin: miter; stroke-linecap: square"/>
   </g>
   <g id="patch_12">
    <path d="M 100.8 242.888276 
L 987.84 242.888276 
" style="fill: none; stroke: #bcbcbc; stroke-width: 0.8; stroke-linejoin: miter; stroke-linecap: square"/>
   </g>
   <g id="patch_13">
    <path d="M 100.8 150.157241 
L 987.84 150.157241 
" style="fill: none; stroke: #bcbcbc; stroke-width: 0.8; stroke-linejoin: miter; stroke-linecap: square"/>
   </g>
  </g>
  <g id="axes_3">
   <g id="patch_14">
    <path d="M 100.8 354.165517 
L 987.84 354.165517 
L 987.84 261.434483 
L 100.8 261.434483 
z
" style="fill: #eeeeee"/>
   </g>
   <g id="matplotlib.axis_5">
    <g id="xtick_13">
     <g id="line2d_37">
      <path d="M 141.12 354.165517 
L 141.12 261.434483 
" clip-path="url(#p20794d408b)" style="fill: none; stroke-dasharray: 1.85,0.8; stroke-dashoffset: 0; stroke: #b2b2b2; stroke-width: 0.5"/>
     </g>
     <g id="line2d_38">
      <g>
       <use xlink:href="#m6aa8ace10f" x="141.12" y="354.165517" style="stroke: #000000; stroke-width: 0.8"/>
      </g>
     </g>
    </g>
    <g id="xtick_14">
     <g id="line2d_39">
      <path d="M 302.4 354.165517 
L 302.4 261.434483 
" clip-path="url(#p20794d408b)" style="fill: none; stroke-dasharray: 1.85,0.8; stroke-dashoffset: 0; stroke: #b2b2b2; stroke-width: 0.5"/>
     </g>
     <g id="line2d_40">
      <g>
       <use xlink:href="#m6aa8ace10f" x="302.4" y="354.165517" style="stroke: #000000; stroke-width: 0.8"/>
      </g>
     </g>
    </g>
    <g id="xtick_15">
     <g id="line2d_41">
      <path d="M 463.68 354.165517 
L 463.68 261.434483 
" clip-path="url(#p20794d408b)" style="fill: none; stroke-dasharray: 1.85,0.8; stroke-dashoffset: 0; stroke: #b2b2b2; stroke-width: 0.5"/>
     </g>
     <g id="line2d_42">
      <g>
       <use xlink:href="#m6aa8ace10f" x="463.68" y="354.165517" style="stroke: #000000; stroke-width: 0.8"/>
      </g>
     </g>
    </g>
    <g id="xtick_16">
     <g id="line2d_43">
      <path d="M 624.96 354.165517 
L 624.96 261.434483 
" clip-path="url(#p20794d408b)" style="fill: none; stroke-dasharray: 1.85,0.8; stroke-dashoffset: 0; stroke: #b2b2b2; stroke-width: 0.5"/>
     </g>
     <g id="line2d_44">
      <g>
       <use xlink:href="#m6aa8ace10f" x="624.96" y="354.165517" style="stroke: #000000; stroke-width: 0.8"/>
      </g>
     </g>
    </g>
    <g id="xtick_17">
     <g id="line2d_45">
      <path d="M 786.24 354.165517 
L 786.24 261.434483 
" clip-path="url(#p20794d408b)" style="fill: none; stroke-dasharray: 1.85,0.8; stroke-dashoffset: 0; stroke: #b2b2b2; stroke-width: 0.5"/>
     </g>
     <g id="line2d_46">
      <g>
       <use xlink:href="#m6aa8ace10f" x="786.24" y="354.165517" style="stroke: #000000; stroke-width: 0.8"/>
      </g>
     </g>
    </g>
    <g id="xtick_18">
     <g id="line2d_47">
      <path d="M 947.52 354.165517 
L 947.52 261.434483 
" clip-path="url(#p20794d408b)" style="fill: none; stroke-dasharray: 1.85,0.8; stroke-dashoffset: 0; stroke: #b2b2b2; stroke-width: 0.5"/>
     </g>
     <g id="line2d_48">
      <g>
       <use xlink:href="#m6aa8ace10f" x="947.52" y="354.165517" style="stroke: #000000; stroke-width: 0.8"/>
      </g>
     </g>
    </g>
   </g>
   <g id="matplotlib.axis_6">
    <g id="ytick_6">
     <g id="line2d_49">
      <path d="M 100.8 347.485992 
L 987.84 347.485992 
" clip-path="url(#p20794d408b)" style="fill: none; stroke-dasharray: 1.85,0.8; stroke-dashoffset: 0; stroke: #b2b2b2; stroke-width: 0.5"/>
     </g>
     <g id="line2d_50">
      <g>
       <use xlink:href="#m0212071e67" x="100.8" y="347.485992" style="stroke: #000000; stroke-width: 0.8"/>
      </g>
     </g>
     <g id="text_8">
      <!-- 0 V -->
      <g transform="translate(74.36625 352.804898) scale(0.14 -0.14)">
       <use xlink:href="#DejaVuSans-30"/>
       <use xlink:href="#DejaVuSans-20" x="63.623047"/>
       <use xlink:href="#DejaVuSans-56" x="95.410156"/>
      </g>
     </g>
    </g>
    <g id="ytick_7">
     <g id="line2d_51">
      <path d="M 100.8 305.022074 
L 987.84 305.022074 
" clip-path="url(#p20794d408b)" style="fill: none; stroke-dasharray: 1.85,0.8; stroke-dashoffset: 0; stroke: #b2b2b2; stroke-width: 0.5"/>
     </g>
     <g id="line2d_52">
      <g>
       <use xlink:href="#m0212071e67" x="100.8" y="305.022074" style="stroke: #000000; stroke-width: 0.8"/>
      </g>
     </g>
     <g id="text_9">
      <!-- 1 V -->
      <g transform="translate(74.36625 310.34098) scale(0.14 -0.14)">
       <use xlink:href="#DejaVuSans-31"/>
       <use xlink:href="#DejaVuSans-20" x="63.623047"/>
       <use xlink:href="#DejaVuSans-56" x="95.410156"/>
      </g>
     </g>
    </g>
    <g id="ytick_8">
     <g id="line2d_53">
      <path d="M 100.8 262.558157 
L 987.84 262.558157 
" clip-path="url(#p20794d408b)" style="fill: none; stroke-dasharray: 1.85,0.8; stroke-dashoffset: 0; stroke: #b2b2b2; stroke-width: 0.5"/>
     </g>
     <g id="line2d_54">
      <g>
       <use xlink:href="#m0212071e67" x="100.8" y="262.558157" style="stroke: #000000; stroke-width: 0.8"/>
      </g>
     </g>
     <g id="text_10">
      <!-- 2 V -->
      <g transform="translate(74.36625 267.877063) scale(0.14 -0.14)">
       <use xlink:href="#DejaVuSans-32"/>
       <use xlink:href="#DejaVuSans-20" x="63.623047"/>
       <use xlink:href="#DejaVuSans-56" x="95.410156"/>
      </g>
     </g>
    </g>
    <g id="text_11">
     <g id="patch_15">
      <path d="M 34.8768 342.395313 
L 34.8768 273.204688 
L 11.247425 273.204688 
L 11.247425 342.395313 
z
" style="fill: #ffff00; opacity: 0.2; stroke: #eeeeee; stroke-width: 0.5; stroke-linejoin: miter"/>
     </g>
     <!-- CLK BUF -->
     <g transform="translate(26.925238 337.355313) rotate(-90) scale(0.14 -0.14)">
      <defs>
       <path id="DejaVuSans-43" d="M 4122 4306 
L 4122 3641 
Q 3803 3938 3442 4084 
Q 3081 4231 2675 4231 
Q 1875 4231 1450 3742 
Q 1025 3253 1025 2328 
Q 1025 1406 1450 917 
Q 1875 428 2675 428 
Q 3081 428 3442 575 
Q 3803 722 4122 1019 
L 4122 359 
Q 3791 134 3420 21 
Q 3050 -91 2638 -91 
Q 1578 -91 968 557 
Q 359 1206 359 2328 
Q 359 3453 968 4101 
Q 1578 4750 2638 4750 
Q 3056 4750 3426 4639 
Q 3797 4528 4122 4306 
z
" transform="scale(0.015625)"/>
       <path id="DejaVuSans-4b" d="M 628 4666 
L 1259 4666 
L 1259 2694 
L 3353 4666 
L 4166 4666 
L 1850 2491 
L 4331 0 
L 3500 0 
L 1259 2247 
L 1259 0 
L 628 0 
L 628 4666 
z
" transform="scale(0.015625)"/>
      </defs>
      <use xlink:href="#DejaVuSans-43"/>
      <use xlink:href="#DejaVuSans-4c" x="69.824219"/>
      <use xlink:href="#DejaVuSans-4b" x="125.537109"/>
      <use xlink:href="#DejaVuSans-20" x="191.113281"/>
      <use xlink:href="#DejaVuSans-42" x="222.900391"/>
      <use xlink:href="#DejaVuSans-55" x="291.503906"/>
      <use xlink:href="#DejaVuSans-46" x="364.697266"/>
     </g>
    </g>
   </g>
   <g id="line2d_55">
    <path d="M 141.12 347.484869 
L 173.376 347.484869 
L 173.601792 296.529291 
L 213.696 296.529291 
L 213.760512 337.175328 
L 213.825024 347.466592 
L 213.889536 347.405484 
L 213.954048 347.575124 
L 214.01856 347.490594 
L 215.373312 347.481261 
L 223.566336 347.484808 
L 254.016 347.48484 
L 254.17728 296.372174 
L 254.241792 296.643943 
L 254.403072 296.520798 
L 254.854656 296.529291 
L 294.336 296.529291 
L 294.400512 337.139658 
L 294.465024 347.802862 
L 294.529536 347.064571 
L 294.626304 347.552724 
L 294.65856 347.522507 
L 294.884352 347.462476 
L 295.206912 347.501444 
L 295.497216 347.484538 
L 321.043968 347.484863 
L 334.656 347.48487 
L 334.785024 296.38916 
L 334.881792 296.525044 
L 335.333376 296.529291 
L 341.203968 296.639697 
L 342.849024 298.987952 
L 344.49408 301.79057 
L 351.396864 313.38874 
L 354.97728 318.746412 
L 358.52544 323.603435 
L 361.396224 326.589498 
L 361.42848 326.535993 
L 361.492992 326.623469 
L 361.525248 326.632811 
L 361.686528 326.861267 
L 361.75104 326.84046 
L 361.91232 327.026876 
L 362.944512 327.868511 
L 365.363712 329.606984 
L 366.976512 330.560724 
L 368.008704 330.035445 
L 370.556928 329.032023 
L 370.589184 329.079582 
L 370.62144 328.983614 
L 370.653696 329.001448 
L 371.169792 328.828196 
L 374.976 327.472747 
L 375.105024 326.037467 
L 375.13728 326.711794 
L 375.201792 331.981142 
L 375.395328 349.95047 
L 375.427584 349.832803 
L 375.45984 349.715135 
L 375.524352 349.83 
L 376.717824 349.485066 
L 383.007744 347.976493 
L 389.426688 346.971711 
L 389.910528 346.951371 
L 392.652288 346.927082 
L 392.845824 346.931031 
L 394.81344 346.953197 
L 405.748224 346.91396 
L 406.393344 346.332077 
L 407.167488 345.948246 
L 408.135168 345.720257 
L 409.586688 345.618938 
L 412.263936 345.668791 
L 415.296 345.793168 
L 415.425024 292.019623 
L 415.521792 292.125782 
L 421.26336 281.764587 
L 421.811712 280.864351 
L 423.908352 277.48847 
L 425.392128 275.148708 
L 426.488832 273.343992 
L 427.06944 272.397046 
L 428.03712 270.830128 
L 428.714496 269.764283 
L 429.875712 267.993538 
L 431.359488 265.84911 
L 431.682048 265.730211 
L 433.585152 265.840617 
L 439.16544 268.163394 
L 440.77824 268.889527 
L 443.229696 269.976603 
L 444.519936 270.53288 
L 451.519488 273.407688 
L 452.100096 273.730413 
L 454.358016 275.034056 
L 454.777344 275.2761 
L 455.616 275.751696 
L 455.680512 348.11191 
L 455.809536 347.96456 
L 456.357888 347.961163 
L 495.516672 347.658896 
L 495.936 347.657572 
L 496.065024 290.079022 
L 496.161792 290.248877 
L 496.452096 290.31682 
L 497.000448 290.418733 
L 497.516544 290.529139 
L 498.064896 290.631053 
L 498.67776 290.741459 
L 499.226112 290.843372 
L 499.838976 290.953778 
L 500.387328 291.055692 
L 501.09696 291.161851 
L 501.451776 291.225547 
L 502.161408 291.331707 
L 502.516224 291.395403 
L 503.129088 291.501563 
L 503.483904 291.565259 
L 504.290304 291.671419 
L 504.64512 291.735114 
L 505.354752 291.841274 
L 505.709568 291.90497 
L 506.515968 292.01113 
L 506.774016 292.032362 
L 507.483648 292.138522 
L 507.838464 292.202217 
L 508.741632 292.308377 
L 509.096448 292.372073 
L 509.999616 292.478233 
L 510.257664 292.499465 
L 511.064064 292.605625 
L 511.386624 292.665074 
L 512.418816 292.77548 
L 512.676864 292.796712 
L 513.483264 292.902872 
L 513.741312 292.924104 
L 514.64448 293.030264 
L 514.902528 293.051496 
L 515.805696 293.157656 
L 516.063744 293.178888 
L 516.966912 293.285047 
L 517.22496 293.306279 
L 518.224896 293.412439 
L 518.482944 293.433671 
L 519.579648 293.539831 
L 519.837696 293.561063 
L 520.9344 293.667223 
L 521.192448 293.688455 
L 522.38592 293.794614 
L 522.643968 293.815846 
L 523.83744 293.922006 
L 524.095488 293.943238 
L 525.482496 294.049398 
L 525.740544 294.07063 
L 527.127552 294.17679 
L 527.3856 294.198022 
L 528.869376 294.304181 
L 529.127424 294.321167 
L 530.707968 294.431573 
L 530.966016 294.448559 
L 532.643328 294.558965 
L 532.901376 294.57595 
L 534.772224 294.686357 
L 535.030272 294.703342 
L 536.256 294.78827 
L 536.288256 300.075028 
L 536.41728 347.470128 
L 536.546304 347.533403 
L 544.449024 347.522364 
L 576.576 347.498349 
L 576.705024 295.828636 
L 576.801792 296.07068 
L 577.253376 296.062188 
L 616.896 296.104652 
L 617.025024 347.810327 
L 617.186304 347.563365 
L 617.444352 347.468648 
L 617.799168 347.514872 
L 618.121728 347.496807 
L 656.377344 347.497029 
L 657.216 347.49703 
L 657.37728 295.883839 
L 657.441792 296.363681 
L 657.53856 295.930549 
L 657.603072 296.087666 
L 658.086912 296.104652 
L 697.536 296.104652 
L 697.826304 347.592071 
L 697.987584 347.49443 
L 699.374592 347.493908 
L 707.986944 347.502058 
L 736.468992 347.497067 
L 737.856 347.497069 
L 738.01728 296.019724 
L 738.081792 296.121637 
L 739.049472 296.104652 
L 778.176 296.104652 
L 778.466304 347.592075 
L 778.627584 347.494426 
L 780.014592 347.493905 
L 788.626944 347.502081 
L 816.979968 347.497067 
L 818.496 347.497069 
L 818.65728 296.019724 
L 818.721792 296.121637 
L 819.689472 296.104652 
L 858.816 296.104652 
L 859.106304 347.592075 
L 859.267584 347.49443 
L 860.654592 347.493908 
L 869.266944 347.502078 
L 897.716736 347.497067 
L 899.136 347.497069 
L 899.29728 296.019724 
L 899.361792 296.121637 
L 900.329472 296.104652 
L 939.456 296.104652 
L 939.488256 303.760896 
L 939.61728 347.446557 
L 939.649536 347.570053 
L 939.714048 347.451891 
L 939.810816 347.469417 
L 940.004352 347.522438 
L 940.230144 347.495682 
L 945.713664 347.497033 
L 947.52 347.49702 
L 947.52 347.49702 
" clip-path="url(#p20794d408b)" style="fill: none; stroke: #0000ff; stroke-width: 2; stroke-linecap: square"/>
   </g>
   <g id="patch_16">
    <path d="M 100.8 354.165517 
L 100.8 261.434483 
" style="fill: none; stroke: #bcbcbc; stroke-width: 0.8; stroke-linejoin: miter; stroke-linecap: square"/>
   </g>
   <g id="patch_17">
    <path d="M 987.84 354.165517 
L 987.84 261.434483 
" style="fill: none; stroke: #bcbcbc; stroke-width: 0.8; stroke-linejoin: miter; stroke-linecap: square"/>
   </g>
   <g id="patch_18">
    <path d="M 100.8 354.165517 
L 987.84 354.165517 
" style="fill: none; stroke: #bcbcbc; stroke-width: 0.8; stroke-linejoin: miter; stroke-linecap: square"/>
   </g>
   <g id="patch_19">
    <path d="M 100.8 261.434483 
L 987.84 261.434483 
" style="fill: none; stroke: #bcbcbc; stroke-width: 0.8; stroke-linejoin: miter; stroke-linecap: square"/>
   </g>
  </g>
  <g id="axes_4">
   <g id="patch_20">
    <path d="M 100.8 465.442759 
L 987.84 465.442759 
L 987.84 372.711724 
L 100.8 372.711724 
z
" style="fill: #eeeeee"/>
   </g>
   <g id="matplotlib.axis_7">
    <g id="xtick_19">
     <g id="line2d_56">
      <path d="M 141.12 465.442759 
L 141.12 372.711724 
" clip-path="url(#p98ec4f54e9)" style="fill: none; stroke-dasharray: 1.85,0.8; stroke-dashoffset: 0; stroke: #b2b2b2; stroke-width: 0.5"/>
     </g>
     <g id="line2d_57">
      <g>
       <use xlink:href="#m6aa8ace10f" x="141.12" y="465.442759" style="stroke: #000000; stroke-width: 0.8"/>
      </g>
     </g>
    </g>
    <g id="xtick_20">
     <g id="line2d_58">
      <path d="M 302.4 465.442759 
L 302.4 372.711724 
" clip-path="url(#p98ec4f54e9)" style="fill: none; stroke-dasharray: 1.85,0.8; stroke-dashoffset: 0; stroke: #b2b2b2; stroke-width: 0.5"/>
     </g>
     <g id="line2d_59">
      <g>
       <use xlink:href="#m6aa8ace10f" x="302.4" y="465.442759" style="stroke: #000000; stroke-width: 0.8"/>
      </g>
     </g>
    </g>
    <g id="xtick_21">
     <g id="line2d_60">
      <path d="M 463.68 465.442759 
L 463.68 372.711724 
" clip-path="url(#p98ec4f54e9)" style="fill: none; stroke-dasharray: 1.85,0.8; stroke-dashoffset: 0; stroke: #b2b2b2; stroke-width: 0.5"/>
     </g>
     <g id="line2d_61">
      <g>
       <use xlink:href="#m6aa8ace10f" x="463.68" y="465.442759" style="stroke: #000000; stroke-width: 0.8"/>
      </g>
     </g>
    </g>
    <g id="xtick_22">
     <g id="line2d_62">
      <path d="M 624.96 465.442759 
L 624.96 372.711724 
" clip-path="url(#p98ec4f54e9)" style="fill: none; stroke-dasharray: 1.85,0.8; stroke-dashoffset: 0; stroke: #b2b2b2; stroke-width: 0.5"/>
     </g>
     <g id="line2d_63">
      <g>
       <use xlink:href="#m6aa8ace10f" x="624.96" y="465.442759" style="stroke: #000000; stroke-width: 0.8"/>
      </g>
     </g>
    </g>
    <g id="xtick_23">
     <g id="line2d_64">
      <path d="M 786.24 465.442759 
L 786.24 372.711724 
" clip-path="url(#p98ec4f54e9)" style="fill: none; stroke-dasharray: 1.85,0.8; stroke-dashoffset: 0; stroke: #b2b2b2; stroke-width: 0.5"/>
     </g>
     <g id="line2d_65">
      <g>
       <use xlink:href="#m6aa8ace10f" x="786.24" y="465.442759" style="stroke: #000000; stroke-width: 0.8"/>
      </g>
     </g>
    </g>
    <g id="xtick_24">
     <g id="line2d_66">
      <path d="M 947.52 465.442759 
L 947.52 372.711724 
" clip-path="url(#p98ec4f54e9)" style="fill: none; stroke-dasharray: 1.85,0.8; stroke-dashoffset: 0; stroke: #b2b2b2; stroke-width: 0.5"/>
     </g>
     <g id="line2d_67">
      <g>
       <use xlink:href="#m6aa8ace10f" x="947.52" y="465.442759" style="stroke: #000000; stroke-width: 0.8"/>
      </g>
     </g>
    </g>
   </g>
   <g id="matplotlib.axis_8">
    <g id="ytick_9">
     <g id="line2d_68">
      <path d="M 100.8 436.019734 
L 987.84 436.019734 
" clip-path="url(#p98ec4f54e9)" style="fill: none; stroke-dasharray: 1.85,0.8; stroke-dashoffset: 0; stroke: #b2b2b2; stroke-width: 0.5"/>
     </g>
     <g id="line2d_69">
      <g>
       <use xlink:href="#m0212071e67" x="100.8" y="436.019734" style="stroke: #000000; stroke-width: 0.8"/>
      </g>
     </g>
     <g id="text_12">
      <!-- 0 V -->
      <g transform="translate(74.36625 441.33864) scale(0.14 -0.14)">
       <use xlink:href="#DejaVuSans-30"/>
       <use xlink:href="#DejaVuSans-20" x="63.623047"/>
       <use xlink:href="#DejaVuSans-56" x="95.410156"/>
      </g>
     </g>
    </g>
    <g id="ytick_10">
     <g id="line2d_70">
      <path d="M 100.8 391.982948 
L 987.84 391.982948 
" clip-path="url(#p98ec4f54e9)" style="fill: none; stroke-dasharray: 1.85,0.8; stroke-dashoffset: 0; stroke: #b2b2b2; stroke-width: 0.5"/>
     </g>
     <g id="line2d_71">
      <g>
       <use xlink:href="#m0212071e67" x="100.8" y="391.982948" style="stroke: #000000; stroke-width: 0.8"/>
      </g>
     </g>
     <g id="text_13">
      <!-- 1 V -->
      <g transform="translate(74.36625 397.301855) scale(0.14 -0.14)">
       <use xlink:href="#DejaVuSans-31"/>
       <use xlink:href="#DejaVuSans-20" x="63.623047"/>
       <use xlink:href="#DejaVuSans-56" x="95.410156"/>
      </g>
     </g>
    </g>
    <g id="text_14">
     <g id="patch_21">
      <path d="M 34.8768 454.693023 
L 34.8768 383.46146 
L 11.247425 383.46146 
L 11.247425 454.693023 
z
" style="fill: #ffff00; opacity: 0.2; stroke: #eeeeee; stroke-width: 0.5; stroke-linejoin: miter"/>
     </g>
     <!-- DFF OUT -->
     <g transform="translate(26.925238 449.653023) rotate(-90) scale(0.14 -0.14)">
      <defs>
       <path id="DejaVuSans-4f" d="M 2522 4238 
Q 1834 4238 1429 3725 
Q 1025 3213 1025 2328 
Q 1025 1447 1429 934 
Q 1834 422 2522 422 
Q 3209 422 3611 934 
Q 4013 1447 4013 2328 
Q 4013 3213 3611 3725 
Q 3209 4238 2522 4238 
z
M 2522 4750 
Q 3503 4750 4090 4092 
Q 4678 3434 4678 2328 
Q 4678 1225 4090 567 
Q 3503 -91 2522 -91 
Q 1538 -91 948 565 
Q 359 1222 359 2328 
Q 359 3434 948 4092 
Q 1538 4750 2522 4750 
z
" transform="scale(0.015625)"/>
       <path id="DejaVuSans-54" d="M -19 4666 
L 3928 4666 
L 3928 4134 
L 2272 4134 
L 2272 0 
L 1638 0 
L 1638 4134 
L -19 4134 
L -19 4666 
z
" transform="scale(0.015625)"/>
      </defs>
      <use xlink:href="#DejaVuSans-44"/>
      <use xlink:href="#DejaVuSans-46" x="77.001953"/>
      <use xlink:href="#DejaVuSans-46" x="134.521484"/>
      <use xlink:href="#DejaVuSans-20" x="192.041016"/>
      <use xlink:href="#DejaVuSans-4f" x="223.828125"/>
      <use xlink:href="#DejaVuSans-55" x="302.539062"/>
      <use xlink:href="#DejaVuSans-54" x="375.732422"/>
     </g>
    </g>
   </g>
   <g id="line2d_72">
    <path d="M 141.12 402.792658 
L 173.408256 402.846383 
L 173.440512 404.669506 
L 173.601792 436.022422 
L 174.053376 436.016526 
L 183.37536 436.018558 
L 254.048256 436.020405 
L 254.080512 436.196445 
L 254.112768 435.905252 
L 254.306304 431.605927 
L 254.596608 430.744127 
L 254.693376 430.129374 
L 255.14496 422.414129 
L 255.370752 404.280661 
L 255.596544 383.602748 
L 255.757824 383.241646 
L 255.983616 383.171187 
L 256.822272 383.175591 
L 295.755264 383.263665 
L 296.239104 386.112845 
L 296.561664 385.452293 
L 297.819648 383.58073 
L 298.980864 383.219628 
L 334.688256 383.188802 
L 334.752768 382.86293 
L 334.81728 399.776138 
L 334.97856 435.987492 
L 335.204352 436.018476 
L 341.171712 436.100159 
L 341.849088 436.765761 
L 342.623232 437.181425 
L 343.623168 437.439348 
L 345.106944 437.561682 
L 348.009984 437.530548 
L 351.203328 437.33181 
L 352.106496 437.064551 
L 352.525824 436.71578 
L 352.816128 436.070548 
L 352.977408 434.852759 
L 353.074176 432.479221 
L 353.36448 417.376321 
L 353.461248 417.467477 
L 353.654784 418.012212 
L 353.945088 419.493169 
L 354.0096 419.978454 
L 354.041856 419.385279 
L 354.138624 419.760472 
L 354.299904 421.508733 
L 355.203072 426.445697 
L 355.848192 429.400565 
L 357.106176 434.930572 
L 357.138432 434.608575 
L 357.202944 434.87698 
L 357.2352 434.781552 
L 357.267456 434.874514 
L 357.944832 438.544671 
L 358.009344 438.176612 
L 358.0416 438.291152 
L 358.20288 439.590941 
L 358.654464 441.176442 
L 358.68672 440.986643 
L 358.751232 440.957139 
L 359.299584 443.025987 
L 359.944704 444.499017 
L 359.97696 444.411825 
L 360.009216 444.467311 
L 360.13824 444.703788 
L 360.4608 445.529919 
L 360.493056 445.503496 
L 360.589824 446.169333 
L 360.654336 446.120452 
L 360.815616 446.554214 
L 361.009152 447.338509 
L 361.396224 448.287942 
L 361.42848 448.072603 
L 361.492992 448.302915 
L 361.525248 448.345631 
L 361.686528 449.083247 
L 361.718784 448.854255 
L 361.75104 448.885522 
L 361.783296 449.35055 
L 361.880064 449.272605 
L 362.0736 450.063506 
L 362.492928 450.95437 
L 362.55744 451.108939 
L 362.589696 451.398261 
L 362.686464 451.378884 
L 363.009024 452.15173 
L 363.267072 452.991071 
L 363.299328 452.951878 
L 363.492864 453.595256 
L 364.525056 455.988655 
L 366.944256 461.227712 
L 367.041024 461.181473 
L 367.137792 461.135675 
L 367.266816 460.743307 
L 367.299072 460.850757 
L 367.331328 460.616921 
L 367.621632 460.06514 
L 369.589248 456.253316 
L 369.621504 456.410968 
L 369.65376 456.143665 
L 369.686016 456.148509 
L 369.879552 455.785205 
L 370.234368 455.311369 
L 370.266624 455.460654 
L 370.29888 455.421021 
L 370.427904 455.023809 
L 370.492416 454.971405 
L 370.589184 455.02513 
L 370.685952 454.697937 
L 371.621376 453.485164 
L 372.427776 452.383364 
L 372.976128 451.771252 
L 373.008384 451.993638 
L 373.04064 451.750995 
L 373.072896 451.833784 
L 373.234176 451.543582 
L 373.298688 451.58894 
L 373.427712 451.384609 
L 373.943808 450.915617 
L 374.363136 450.113708 
L 374.588928 449.819982 
L 374.621184 449.938001 
L 374.65344 450.065707 
L 374.685696 449.746881 
L 374.750208 449.664092 
L 374.911488 449.406917 
L 376.814592 447.660859 
L 377.040384 447.044344 
L 377.3952 446.539682 
L 377.427456 446.748857 
L 377.459712 446.491242 
L 377.491968 446.424746 
L 377.524224 446.816233 
L 377.588736 446.260489 
L 377.620992 446.28559 
L 377.653248 446.675756 
L 377.71776 446.256085 
L 377.750016 446.564343 
L 377.782272 446.068488 
L 377.87904 446.162287 
L 378.008064 445.873405 
L 378.04032 446.231425 
L 378.072576 445.768598 
L 378.137088 446.126617 
L 378.266112 445.604781 
L 378.298368 445.608304 
L 378.330624 445.840378 
L 378.36288 445.540928 
L 378.395136 445.536524 
L 378.427392 445.681845 
L 378.491904 445.464744 
L 379.298304 444.916926 
L 379.846656 444.092558 
L 380.007936 443.689181 
L 380.201472 443.435529 
L 380.233728 443.542538 
L 380.265984 443.767126 
L 380.29824 443.309584 
L 380.427264 443.207418 
L 380.524032 443.090721 
L 380.556288 443.540777 
L 380.685312 442.904005 
L 380.717568 443.343492 
L 380.78208 442.899161 
L 380.814336 442.857326 
L 380.846592 443.035235 
L 380.878848 442.723014 
L 381.007872 442.652555 
L 381.040128 443.063858 
L 381.072384 442.545105 
L 381.136896 442.966537 
L 381.26592 442.43105 
L 381.298176 442.434132 
L 381.330432 442.683821 
L 381.362688 442.349582 
L 381.4272 442.597509 
L 381.556224 442.293655 
L 382.2336 441.91626 
L 382.975488 441.157946 
L 383.104512 440.864221 
L 383.265792 440.306055 
L 383.427072 440.123478 
L 383.491584 440.098774 
L 383.52384 440.57578 
L 383.588352 439.886957 
L 383.620608 440.246121 
L 383.652864 440.432661 
L 383.68512 440.102032 
L 383.781888 439.758457 
L 383.749632 440.234099 
L 383.814144 439.780828 
L 383.878656 439.565356 
L 383.943168 440.037166 
L 383.975424 439.521936 
L 384.072192 439.630795 
L 384.104448 439.957592 
L 384.136704 439.930201 
L 384.16896 439.37155 
L 384.265728 439.470237 
L 384.297984 439.751896 
L 384.362496 439.63031 
L 384.556032 439.129876 
L 384.588288 439.152071 
L 384.620544 439.371198 
L 384.6528 439.120849 
L 384.685056 439.127718 
L 385.039872 439.024672 
L 386.201088 437.769448 
L 386.42688 437.44384 
L 386.620416 436.675046 
L 386.813952 436.209766 
L 386.846208 436.228482 
L 386.91072 436.599655 
L 386.942976 436.193825 
L 387.039744 436.05582 
L 387.072 436.268679 
L 387.136512 436.073948 
L 387.265536 435.940503 
L 388.233216 434.054284 
L 388.36224 433.243567 
L 388.426752 433.58701 
L 388.459008 433.241718 
L 388.491264 433.25233 
L 388.52352 433.002906 
L 388.588032 433.229035 
L 389.781504 430.877999 
L 389.878272 430.061557 
L 389.942784 430.133777 
L 390.071808 430.197631 
L 391.233024 427.834617 
L 391.297536 427.160854 
L 391.362048 427.296487 
L 391.42656 427.314983 
L 392.297472 425.433731 
L 392.329728 425.49186 
L 392.458752 425.105217 
L 392.491008 425.164666 
L 392.845824 424.421326 
L 393.974784 421.82932 
L 394.00704 421.161282 
L 394.103808 421.209723 
L 394.232832 421.317613 
L 394.265088 421.274016 
L 395.45856 418.555185 
L 395.490816 417.87878 
L 395.587584 417.973019 
L 395.684352 418.049203 
L 395.716608 417.961569 
L 396.135936 416.955769 
L 396.781056 415.549675 
L 396.91008 414.692719 
L 396.942336 414.733233 
L 397.006848 414.689636 
L 397.039104 414.727948 
L 397.168128 414.912022 
L 397.200384 414.867545 
L 397.813248 413.638038 
L 398.103552 412.984091 
L 400.167936 409.281919 
L 400.200192 409.324194 
L 400.232448 409.232157 
L 400.684032 408.360669 
L 401.651712 406.708409 
L 402.845184 404.761983 
L 403.135488 404.26745 
L 403.748352 403.575192 
L 404.103168 403.283228 
L 405.264384 401.545536 
L 405.554688 401.044838 
L 405.78048 400.787223 
L 406.683648 397.849089 
L 412.780032 384.302933 
L 413.84448 382.030635 
L 414.876672 379.912465 
L 415.360512 378.978885 
L 415.392768 378.150994 
L 415.45728 402.560144 
L 415.586304 434.254432 
L 415.747584 434.284377 
L 425.746944 434.571761 
L 428.004864 434.564054 
L 431.456256 434.738572 
L 432.165888 435.461392 
L 432.972288 435.914244 
L 433.939968 436.192539 
L 435.359232 436.361033 
L 438.19776 436.430875 
L 449.64864 436.36519 
L 451.680768 436.467544 
L 453.874176 436.531089 
L 455.648256 436.52968 
L 455.680512 436.40706 
L 455.745024 436.535405 
L 461.841408 436.455038 
L 493.484544 436.211862 
L 495.968256 436.200188 
L 496.000512 436.538928 
L 496.323072 429.850621 
L 496.58112 428.319902 
L 496.7424 425.763567 
L 496.90368 418.640176 
L 497.097216 398.523292 
L 497.323008 377.111726 
L 497.452032 376.926771 
L 497.484288 376.939982 
L 498.064896 377.058882 
L 498.67776 377.168973 
L 499.00032 377.235029 
L 499.613184 377.33191 
L 499.968 377.411176 
L 500.61312 377.521268 
L 500.93568 377.587323 
L 501.5808 377.697415 
L 501.90336 377.759066 
L 506.515968 378.490077 
L 506.774016 378.512095 
L 507.483648 378.622187 
L 507.806208 378.683839 
L 516.063744 379.701089 
L 516.966912 379.811181 
L 517.22496 379.833199 
L 518.224896 379.943291 
L 518.482944 379.965309 
L 519.579648 380.075401 
L 519.837696 380.09742 
L 520.9344 380.207512 
L 521.192448 380.22953 
L 522.38592 380.339622 
L 522.643968 380.36164 
L 523.83744 380.471732 
L 524.095488 380.493751 
L 525.482496 380.603843 
L 525.740544 380.625861 
L 527.127552 380.735953 
L 527.3856 380.757972 
L 528.869376 380.868064 
L 529.127424 380.885678 
L 530.578944 380.973752 
L 531.933696 381.075036 
L 532.288512 381.110266 
L 532.772352 381.149899 
L 534.256128 381.242376 
L 536.223744 381.352468 
L 536.481792 381.374487 
L 536.997888 381.396505 
L 537.255936 381.41412 
L 539.384832 381.515404 
L 539.739648 381.54623 
L 540.900864 381.59467 
L 541.41696 381.634304 
L 543.83616 381.735588 
L 544.190976 381.766414 
L 546.932736 381.867699 
L 547.287552 381.898524 
L 550.319616 381.999809 
L 550.674432 382.030635 
L 551.803392 382.074671 
L 555.44832 382.175956 
L 555.803136 382.211185 
L 556.609536 382.211185 
L 559.931904 382.321277 
L 560.254464 382.343296 
L 561.09312 382.338892 
L 565.12512 382.440177 
L 565.479936 382.475406 
L 566.318592 382.471003 
L 571.41504 382.572287 
L 571.769856 382.603113 
L 576.608256 382.673572 
L 576.640512 382.942196 
L 576.705024 382.655957 
L 576.866304 382.686783 
L 657.248256 382.73082 
L 657.280512 382.955407 
L 657.345024 382.73082 
L 657.53856 382.708801 
L 658.538496 382.735223 
L 737.888256 382.752838 
L 737.920512 382.902563 
L 737.985024 382.699994 
L 738.243072 382.726416 
L 818.528256 382.752838 
L 818.560512 382.902563 
L 818.625024 382.699994 
L 818.883072 382.726416 
L 899.168256 382.752838 
L 899.200512 382.902563 
L 899.265024 382.699994 
L 899.523072 382.726416 
L 947.52 382.735223 
L 947.52 382.735223 
" clip-path="url(#p98ec4f54e9)" style="fill: none; stroke: #ff00ff; stroke-width: 2; stroke-linecap: square"/>
   </g>
   <g id="patch_22">
    <path d="M 100.8 465.442759 
L 100.8 372.711724 
" style="fill: none; stroke: #bcbcbc; stroke-width: 0.8; stroke-linejoin: miter; stroke-linecap: square"/>
   </g>
   <g id="patch_23">
    <path d="M 987.84 465.442759 
L 987.84 372.711724 
" style="fill: none; stroke: #bcbcbc; stroke-width: 0.8; stroke-linejoin: miter; stroke-linecap: square"/>
   </g>
   <g id="patch_24">
    <path d="M 100.8 465.442759 
L 987.84 465.442759 
" style="fill: none; stroke: #bcbcbc; stroke-width: 0.8; stroke-linejoin: miter; stroke-linecap: square"/>
   </g>
   <g id="patch_25">
    <path d="M 100.8 372.711724 
L 987.84 372.711724 
" style="fill: none; stroke: #bcbcbc; stroke-width: 0.8; stroke-linejoin: miter; stroke-linecap: square"/>
   </g>
  </g>
  <g id="axes_5">
   <g id="patch_26">
    <path d="M 100.8 576.72 
L 987.84 576.72 
L 987.84 483.988966 
L 100.8 483.988966 
z
" style="fill: #eeeeee"/>
   </g>
   <g id="matplotlib.axis_9">
    <g id="xtick_25">
     <g id="line2d_73">
      <path d="M 141.12 576.72 
L 141.12 483.988966 
" clip-path="url(#p81dee7ef88)" style="fill: none; stroke-dasharray: 1.85,0.8; stroke-dashoffset: 0; stroke: #b2b2b2; stroke-width: 0.5"/>
     </g>
     <g id="line2d_74">
      <g>
       <use xlink:href="#m6aa8ace10f" x="141.12" y="576.72" style="stroke: #000000; stroke-width: 0.8"/>
      </g>
     </g>
     <g id="text_15">
      <!-- 0 s -->
      <g transform="translate(130.795 590.857813) scale(0.14 -0.14)">
       <defs>
        <path id="DejaVuSans-73" d="M 2834 3397 
L 2834 2853 
Q 2591 2978 2328 3040 
Q 2066 3103 1784 3103 
Q 1356 3103 1142 2972 
Q 928 2841 928 2578 
Q 928 2378 1081 2264 
Q 1234 2150 1697 2047 
L 1894 2003 
Q 2506 1872 2764 1633 
Q 3022 1394 3022 966 
Q 3022 478 2636 193 
Q 2250 -91 1575 -91 
Q 1294 -91 989 -36 
Q 684 19 347 128 
L 347 722 
Q 666 556 975 473 
Q 1284 391 1588 391 
Q 1994 391 2212 530 
Q 2431 669 2431 922 
Q 2431 1156 2273 1281 
Q 2116 1406 1581 1522 
L 1381 1569 
Q 847 1681 609 1914 
Q 372 2147 372 2553 
Q 372 3047 722 3315 
Q 1072 3584 1716 3584 
Q 2034 3584 2315 3537 
Q 2597 3491 2834 3397 
z
" transform="scale(0.015625)"/>
       </defs>
       <use xlink:href="#DejaVuSans-30"/>
       <use xlink:href="#DejaVuSans-20" x="63.623047"/>
       <use xlink:href="#DejaVuSans-73" x="95.410156"/>
      </g>
     </g>
    </g>
    <g id="xtick_26">
     <g id="line2d_75">
      <path d="M 302.4 576.72 
L 302.4 483.988966 
" clip-path="url(#p81dee7ef88)" style="fill: none; stroke-dasharray: 1.85,0.8; stroke-dashoffset: 0; stroke: #b2b2b2; stroke-width: 0.5"/>
     </g>
     <g id="line2d_76">
      <g>
       <use xlink:href="#m6aa8ace10f" x="302.4" y="576.72" style="stroke: #000000; stroke-width: 0.8"/>
      </g>
     </g>
     <g id="text_16">
      <!-- 50 ns -->
      <g transform="translate(283.185 590.857813) scale(0.14 -0.14)">
       <defs>
        <path id="DejaVuSans-35" d="M 691 4666 
L 3169 4666 
L 3169 4134 
L 1269 4134 
L 1269 2991 
Q 1406 3038 1543 3061 
Q 1681 3084 1819 3084 
Q 2600 3084 3056 2656 
Q 3513 2228 3513 1497 
Q 3513 744 3044 326 
Q 2575 -91 1722 -91 
Q 1428 -91 1123 -41 
Q 819 9 494 109 
L 494 744 
Q 775 591 1075 516 
Q 1375 441 1709 441 
Q 2250 441 2565 725 
Q 2881 1009 2881 1497 
Q 2881 1984 2565 2268 
Q 2250 2553 1709 2553 
Q 1456 2553 1204 2497 
Q 953 2441 691 2322 
L 691 4666 
z
" transform="scale(0.015625)"/>
        <path id="DejaVuSans-6e" d="M 3513 2113 
L 3513 0 
L 2938 0 
L 2938 2094 
Q 2938 2591 2744 2837 
Q 2550 3084 2163 3084 
Q 1697 3084 1428 2787 
Q 1159 2491 1159 1978 
L 1159 0 
L 581 0 
L 581 3500 
L 1159 3500 
L 1159 2956 
Q 1366 3272 1645 3428 
Q 1925 3584 2291 3584 
Q 2894 3584 3203 3211 
Q 3513 2838 3513 2113 
z
" transform="scale(0.015625)"/>
       </defs>
       <use xlink:href="#DejaVuSans-35"/>
       <use xlink:href="#DejaVuSans-30" x="63.623047"/>
       <use xlink:href="#DejaVuSans-20" x="127.246094"/>
       <use xlink:href="#DejaVuSans-6e" x="159.033203"/>
       <use xlink:href="#DejaVuSans-73" x="222.412109"/>
      </g>
     </g>
    </g>
    <g id="xtick_27">
     <g id="line2d_77">
      <path d="M 463.68 576.72 
L 463.68 483.988966 
" clip-path="url(#p81dee7ef88)" style="fill: none; stroke-dasharray: 1.85,0.8; stroke-dashoffset: 0; stroke: #b2b2b2; stroke-width: 0.5"/>
     </g>
     <g id="line2d_78">
      <g>
       <use xlink:href="#m6aa8ace10f" x="463.68" y="576.72" style="stroke: #000000; stroke-width: 0.8"/>
      </g>
     </g>
     <g id="text_17">
      <!-- 100 ns -->
      <g transform="translate(440.01125 590.857813) scale(0.14 -0.14)">
       <use xlink:href="#DejaVuSans-31"/>
       <use xlink:href="#DejaVuSans-30" x="63.623047"/>
       <use xlink:href="#DejaVuSans-30" x="127.246094"/>
       <use xlink:href="#DejaVuSans-20" x="190.869141"/>
       <use xlink:href="#DejaVuSans-6e" x="222.65625"/>
       <use xlink:href="#DejaVuSans-73" x="286.035156"/>
      </g>
     </g>
    </g>
    <g id="xtick_28">
     <g id="line2d_79">
      <path d="M 624.96 576.72 
L 624.96 483.988966 
" clip-path="url(#p81dee7ef88)" style="fill: none; stroke-dasharray: 1.85,0.8; stroke-dashoffset: 0; stroke: #b2b2b2; stroke-width: 0.5"/>
     </g>
     <g id="line2d_80">
      <g>
       <use xlink:href="#m6aa8ace10f" x="624.96" y="576.72" style="stroke: #000000; stroke-width: 0.8"/>
      </g>
     </g>
     <g id="text_18">
      <!-- 150 ns -->
      <g transform="translate(601.29125 590.857813) scale(0.14 -0.14)">
       <use xlink:href="#DejaVuSans-31"/>
       <use xlink:href="#DejaVuSans-35" x="63.623047"/>
       <use xlink:href="#DejaVuSans-30" x="127.246094"/>
       <use xlink:href="#DejaVuSans-20" x="190.869141"/>
       <use xlink:href="#DejaVuSans-6e" x="222.65625"/>
       <use xlink:href="#DejaVuSans-73" x="286.035156"/>
      </g>
     </g>
    </g>
    <g id="xtick_29">
     <g id="line2d_81">
      <path d="M 786.24 576.72 
L 786.24 483.988966 
" clip-path="url(#p81dee7ef88)" style="fill: none; stroke-dasharray: 1.85,0.8; stroke-dashoffset: 0; stroke: #b2b2b2; stroke-width: 0.5"/>
     </g>
     <g id="line2d_82">
      <g>
       <use xlink:href="#m6aa8ace10f" x="786.24" y="576.72" style="stroke: #000000; stroke-width: 0.8"/>
      </g>
     </g>
     <g id="text_19">
      <!-- 200 ns -->
      <g transform="translate(762.57125 590.857813) scale(0.14 -0.14)">
       <use xlink:href="#DejaVuSans-32"/>
       <use xlink:href="#DejaVuSans-30" x="63.623047"/>
       <use xlink:href="#DejaVuSans-30" x="127.246094"/>
       <use xlink:href="#DejaVuSans-20" x="190.869141"/>
       <use xlink:href="#DejaVuSans-6e" x="222.65625"/>
       <use xlink:href="#DejaVuSans-73" x="286.035156"/>
      </g>
     </g>
    </g>
    <g id="xtick_30">
     <g id="line2d_83">
      <path d="M 947.52 576.72 
L 947.52 483.988966 
" clip-path="url(#p81dee7ef88)" style="fill: none; stroke-dasharray: 1.85,0.8; stroke-dashoffset: 0; stroke: #b2b2b2; stroke-width: 0.5"/>
     </g>
     <g id="line2d_84">
      <g>
       <use xlink:href="#m6aa8ace10f" x="947.52" y="576.72" style="stroke: #000000; stroke-width: 0.8"/>
      </g>
     </g>
     <g id="text_20">
      <!-- 250 ns -->
      <g transform="translate(923.85125 590.857813) scale(0.14 -0.14)">
       <use xlink:href="#DejaVuSans-32"/>
       <use xlink:href="#DejaVuSans-35" x="63.623047"/>
       <use xlink:href="#DejaVuSans-30" x="127.246094"/>
       <use xlink:href="#DejaVuSans-20" x="190.869141"/>
       <use xlink:href="#DejaVuSans-6e" x="222.65625"/>
       <use xlink:href="#DejaVuSans-73" x="286.035156"/>
      </g>
     </g>
    </g>
    <g id="text_21">
     <!-- Time -->
     <g transform="translate(527.192969 608.407187) scale(0.14 -0.14)">
      <defs>
       <path id="DejaVuSans-69" d="M 603 3500 
L 1178 3500 
L 1178 0 
L 603 0 
L 603 3500 
z
M 603 4863 
L 1178 4863 
L 1178 4134 
L 603 4134 
L 603 4863 
z
" transform="scale(0.015625)"/>
       <path id="DejaVuSans-6d" d="M 3328 2828 
Q 3544 3216 3844 3400 
Q 4144 3584 4550 3584 
Q 5097 3584 5394 3201 
Q 5691 2819 5691 2113 
L 5691 0 
L 5113 0 
L 5113 2094 
Q 5113 2597 4934 2840 
Q 4756 3084 4391 3084 
Q 3944 3084 3684 2787 
Q 3425 2491 3425 1978 
L 3425 0 
L 2847 0 
L 2847 2094 
Q 2847 2600 2669 2842 
Q 2491 3084 2119 3084 
Q 1678 3084 1418 2786 
Q 1159 2488 1159 1978 
L 1159 0 
L 581 0 
L 581 3500 
L 1159 3500 
L 1159 2956 
Q 1356 3278 1631 3431 
Q 1906 3584 2284 3584 
Q 2666 3584 2933 3390 
Q 3200 3197 3328 2828 
z
" transform="scale(0.015625)"/>
       <path id="DejaVuSans-65" d="M 3597 1894 
L 3597 1613 
L 953 1613 
Q 991 1019 1311 708 
Q 1631 397 2203 397 
Q 2534 397 2845 478 
Q 3156 559 3463 722 
L 3463 178 
Q 3153 47 2828 -22 
Q 2503 -91 2169 -91 
Q 1331 -91 842 396 
Q 353 884 353 1716 
Q 353 2575 817 3079 
Q 1281 3584 2069 3584 
Q 2775 3584 3186 3129 
Q 3597 2675 3597 1894 
z
M 3022 2063 
Q 3016 2534 2758 2815 
Q 2500 3097 2075 3097 
Q 1594 3097 1305 2825 
Q 1016 2553 972 2059 
L 3022 2063 
z
" transform="scale(0.015625)"/>
      </defs>
      <use xlink:href="#DejaVuSans-54"/>
      <use xlink:href="#DejaVuSans-69" x="57.958984"/>
      <use xlink:href="#DejaVuSans-6d" x="85.742188"/>
      <use xlink:href="#DejaVuSans-65" x="183.154297"/>
     </g>
    </g>
   </g>
   <g id="matplotlib.axis_10">
    <g id="ytick_11">
     <g id="line2d_85">
      <path d="M 100.8 569.758218 
L 987.84 569.758218 
" clip-path="url(#p81dee7ef88)" style="fill: none; stroke-dasharray: 1.85,0.8; stroke-dashoffset: 0; stroke: #b2b2b2; stroke-width: 0.5"/>
     </g>
     <g id="line2d_86">
      <g>
       <use xlink:href="#m0212071e67" x="100.8" y="569.758218" style="stroke: #000000; stroke-width: 0.8"/>
      </g>
     </g>
     <g id="text_22">
      <!-- 0 V -->
      <g transform="translate(74.36625 575.077124) scale(0.14 -0.14)">
       <use xlink:href="#DejaVuSans-30"/>
       <use xlink:href="#DejaVuSans-20" x="63.623047"/>
       <use xlink:href="#DejaVuSans-56" x="95.410156"/>
      </g>
     </g>
    </g>
    <g id="ytick_12">
     <g id="line2d_87">
      <path d="M 100.8 536.113744 
L 987.84 536.113744 
" clip-path="url(#p81dee7ef88)" style="fill: none; stroke-dasharray: 1.85,0.8; stroke-dashoffset: 0; stroke: #b2b2b2; stroke-width: 0.5"/>
     </g>
     <g id="line2d_88">
      <g>
       <use xlink:href="#m0212071e67" x="100.8" y="536.113744" style="stroke: #000000; stroke-width: 0.8"/>
      </g>
     </g>
     <g id="text_23">
      <!-- 500 mV -->
      <g transform="translate(42.914375 541.43265) scale(0.14 -0.14)">
       <use xlink:href="#DejaVuSans-35"/>
       <use xlink:href="#DejaVuSans-30" x="63.623047"/>
       <use xlink:href="#DejaVuSans-30" x="127.246094"/>
       <use xlink:href="#DejaVuSans-20" x="190.869141"/>
       <use xlink:href="#DejaVuSans-6d" x="222.65625"/>
       <use xlink:href="#DejaVuSans-56" x="320.068359"/>
      </g>
     </g>
    </g>
    <g id="ytick_13">
     <g id="line2d_89">
      <path d="M 100.8 502.46927 
L 987.84 502.46927 
" clip-path="url(#p81dee7ef88)" style="fill: none; stroke-dasharray: 1.85,0.8; stroke-dashoffset: 0; stroke: #b2b2b2; stroke-width: 0.5"/>
     </g>
     <g id="line2d_90">
      <g>
       <use xlink:href="#m0212071e67" x="100.8" y="502.46927" style="stroke: #000000; stroke-width: 0.8"/>
      </g>
     </g>
     <g id="text_24">
      <!-- 1 V -->
      <g transform="translate(74.36625 507.788176) scale(0.14 -0.14)">
       <use xlink:href="#DejaVuSans-31"/>
       <use xlink:href="#DejaVuSans-20" x="63.623047"/>
       <use xlink:href="#DejaVuSans-56" x="95.410156"/>
      </g>
     </g>
    </g>
    <g id="text_25">
     <g id="patch_27">
      <path d="M 34.8768 554.329483 
L 34.8768 506.379483 
L 11.247425 506.379483 
L 11.247425 554.329483 
z
" style="fill: #ffff00; opacity: 0.2; stroke: #eeeeee; stroke-width: 0.5; stroke-linejoin: miter"/>
     </g>
     <!-- FOUT -->
     <g transform="translate(26.925238 549.289483) rotate(-90) scale(0.14 -0.14)">
      <use xlink:href="#DejaVuSans-46"/>
      <use xlink:href="#DejaVuSans-4f" x="57.519531"/>
      <use xlink:href="#DejaVuSans-55" x="136.230469"/>
      <use xlink:href="#DejaVuSans-54" x="209.423828"/>
     </g>
    </g>
   </g>
   <g id="line2d_91">
    <path d="M 141.12 489.01148 
L 173.472768 489.018209 
L 173.505024 488.823071 
L 173.569536 526.994073 
L 173.69856 572.504953 
L 173.730816 572.370106 
L 173.827584 567.862958 
L 173.892096 569.374954 
L 174.053376 570.075102 
L 174.117888 569.9581 
L 174.408192 569.505521 
L 174.440448 569.554757 
L 174.66624 569.742358 
L 176.182272 569.752509 
L 180.14976 569.773425 
L 193.761792 569.763279 
L 213.018624 569.756348 
L 255.30624 569.756047 
L 255.6288 488.903818 
L 255.854592 489.045124 
L 256.209408 489.004751 
L 334.849536 489.024938 
L 334.881792 488.89036 
L 335.075328 569.778993 
L 335.204352 569.756595 
L 398.942208 569.792271 
L 399.00672 569.861998 
L 399.071232 568.987019 
L 399.135744 549.852128 
L 399.32928 489.421943 
L 399.458304 489.018209 
L 415.489536 489.018209 
L 415.521792 488.204013 
L 415.683072 569.786309 
L 415.77984 569.756394 
L 431.811072 569.756245 
L 497.032704 569.810826 
L 497.06496 569.922464 
L 497.38752 489.018209 
L 947.52 489.01148 
L 947.52 489.01148 
" clip-path="url(#p81dee7ef88)" style="fill: none; stroke: #ff00ff; stroke-width: 2; stroke-linecap: square"/>
   </g>
   <g id="patch_28">
    <path d="M 100.8 576.72 
L 100.8 483.988966 
" style="fill: none; stroke: #bcbcbc; stroke-width: 0.8; stroke-linejoin: miter; stroke-linecap: square"/>
   </g>
   <g id="patch_29">
    <path d="M 987.84 576.72 
L 987.84 483.988966 
" style="fill: none; stroke: #bcbcbc; stroke-width: 0.8; stroke-linejoin: miter; stroke-linecap: square"/>
   </g>
   <g id="patch_30">
    <path d="M 100.8 576.72 
L 987.84 576.72 
" style="fill: none; stroke: #bcbcbc; stroke-width: 0.8; stroke-linejoin: miter; stroke-linecap: square"/>
   </g>
   <g id="patch_31">
    <path d="M 100.8 483.988966 
L 987.84 483.988966 
" style="fill: none; stroke: #bcbcbc; stroke-width: 0.8; stroke-linejoin: miter; stroke-linecap: square"/>
   </g>
  </g>
  <g id="axes_6">
   <g id="patch_32">
    <path d="M 201.6 628.56 
L 856.8 628.56 
L 856.8 615.6 
L 201.6 615.6 
z
" clip-path="url(#p19baaad476)" style="fill: #d3d3d3"/>
   </g>
   <g id="patch_33">
    <path d="M 201.6 628.56 
L 416.88 628.56 
L 416.88 615.6 
L 201.6 615.6 
z
" clip-path="url(#p19baaad476)" style="fill: #0000ff"/>
   </g>
   <g id="line2d_92">
    <path d="M 201.6 635.04 
L 201.6 609.12 
" clip-path="url(#p96b916beec)" style="fill: none; stroke: #ff0000; stroke-linecap: square"/>
   </g>
   <g id="line2d_93">
    <defs>
     <path id="mf94b8d2526" d="M 0 5 
C 1.326016 5 2.597899 4.473168 3.535534 3.535534 
C 4.473168 2.597899 5 1.326016 5 0 
C 5 -1.326016 4.473168 -2.597899 3.535534 -3.535534 
C 2.597899 -4.473168 1.326016 -5 0 -5 
C -1.326016 -5 -2.597899 -4.473168 -3.535534 -3.535534 
C -4.473168 -2.597899 -5 -1.326016 -5 0 
C -5 1.326016 -4.473168 2.597899 -3.535534 3.535534 
C -2.597899 4.473168 -1.326016 5 0 5 
z
" style="stroke: #bfbfbf"/>
    </defs>
    <g>
     <use xlink:href="#mf94b8d2526" x="416.88" y="622.08" style="fill: #ffffff; stroke: #bfbfbf"/>
    </g>
   </g>
   <g id="text_26">
    <!-- #Sweep -->
    <g transform="translate(138.622875 625.39125) scale(0.12 -0.12)">
     <defs>
      <path id="DejaVuSans-23" d="M 3272 2816 
L 2363 2816 
L 2100 1772 
L 3016 1772 
L 3272 2816 
z
M 2803 4594 
L 2478 3297 
L 3391 3297 
L 3719 4594 
L 4219 4594 
L 3897 3297 
L 4872 3297 
L 4872 2816 
L 3775 2816 
L 3519 1772 
L 4513 1772 
L 4513 1294 
L 3397 1294 
L 3072 0 
L 2572 0 
L 2894 1294 
L 1978 1294 
L 1656 0 
L 1153 0 
L 1478 1294 
L 494 1294 
L 494 1772 
L 1594 1772 
L 1856 2816 
L 850 2816 
L 850 3297 
L 1978 3297 
L 2297 4594 
L 2803 4594 
z
" transform="scale(0.015625)"/>
      <path id="DejaVuSans-77" d="M 269 3500 
L 844 3500 
L 1563 769 
L 2278 3500 
L 2956 3500 
L 3675 769 
L 4391 3500 
L 4966 3500 
L 4050 0 
L 3372 0 
L 2619 2869 
L 1863 0 
L 1184 0 
L 269 3500 
z
" transform="scale(0.015625)"/>
      <path id="DejaVuSans-70" d="M 1159 525 
L 1159 -1331 
L 581 -1331 
L 581 3500 
L 1159 3500 
L 1159 2969 
Q 1341 3281 1617 3432 
Q 1894 3584 2278 3584 
Q 2916 3584 3314 3078 
Q 3713 2572 3713 1747 
Q 3713 922 3314 415 
Q 2916 -91 2278 -91 
Q 1894 -91 1617 61 
Q 1341 213 1159 525 
z
M 3116 1747 
Q 3116 2381 2855 2742 
Q 2594 3103 2138 3103 
Q 1681 3103 1420 2742 
Q 1159 2381 1159 1747 
Q 1159 1113 1420 752 
Q 1681 391 2138 391 
Q 2594 391 2855 752 
Q 3116 1113 3116 1747 
z
" transform="scale(0.015625)"/>
     </defs>
     <use xlink:href="#DejaVuSans-23"/>
     <use xlink:href="#DejaVuSans-53" x="83.789062"/>
     <use xlink:href="#DejaVuSans-77" x="147.265625"/>
     <use xlink:href="#DejaVuSans-65" x="229.052734"/>
     <use xlink:href="#DejaVuSans-65" x="290.576172"/>
     <use xlink:href="#DejaVuSans-70" x="352.099609"/>
    </g>
   </g>
   <g id="text_27">
    <!-- $\mathdefault{46}$ -->
    <g transform="translate(869.904 625.39125) scale(0.12 -0.12)">
     <defs>
      <path id="DejaVuSans-34" d="M 2419 4116 
L 825 1625 
L 2419 1625 
L 2419 4116 
z
M 2253 4666 
L 3047 4666 
L 3047 1625 
L 3713 1625 
L 3713 1100 
L 3047 1100 
L 3047 0 
L 2419 0 
L 2419 1100 
L 313 1100 
L 313 1709 
L 2253 4666 
z
" transform="scale(0.015625)"/>
      <path id="DejaVuSans-36" d="M 2113 2584 
Q 1688 2584 1439 2293 
Q 1191 2003 1191 1497 
Q 1191 994 1439 701 
Q 1688 409 2113 409 
Q 2538 409 2786 701 
Q 3034 994 3034 1497 
Q 3034 2003 2786 2293 
Q 2538 2584 2113 2584 
z
M 3366 4563 
L 3366 3988 
Q 3128 4100 2886 4159 
Q 2644 4219 2406 4219 
Q 1781 4219 1451 3797 
Q 1122 3375 1075 2522 
Q 1259 2794 1537 2939 
Q 1816 3084 2150 3084 
Q 2853 3084 3261 2657 
Q 3669 2231 3669 1497 
Q 3669 778 3244 343 
Q 2819 -91 2113 -91 
Q 1303 -91 875 529 
Q 447 1150 447 2328 
Q 447 3434 972 4092 
Q 1497 4750 2381 4750 
Q 2619 4750 2861 4703 
Q 3103 4656 3366 4563 
z
" transform="scale(0.015625)"/>
     </defs>
     <use xlink:href="#DejaVuSans-34" transform="translate(0 0.78125)"/>
     <use xlink:href="#DejaVuSans-36" transform="translate(63.623047 0.78125)"/>
    </g>
   </g>
  </g>
  <g id="text_28">
   <!-- DFF under BBI sweep analysis (Sweep = 56E-9) -->
   <g transform="translate(313.34625 25.1175) scale(0.16 -0.16)">
    <defs>
     <path id="DejaVuSans-75" d="M 544 1381 
L 544 3500 
L 1119 3500 
L 1119 1403 
Q 1119 906 1312 657 
Q 1506 409 1894 409 
Q 2359 409 2629 706 
Q 2900 1003 2900 1516 
L 2900 3500 
L 3475 3500 
L 3475 0 
L 2900 0 
L 2900 538 
Q 2691 219 2414 64 
Q 2138 -91 1772 -91 
Q 1169 -91 856 284 
Q 544 659 544 1381 
z
M 1991 3584 
L 1991 3584 
z
" transform="scale(0.015625)"/>
     <path id="DejaVuSans-64" d="M 2906 2969 
L 2906 4863 
L 3481 4863 
L 3481 0 
L 2906 0 
L 2906 525 
Q 2725 213 2448 61 
Q 2172 -91 1784 -91 
Q 1150 -91 751 415 
Q 353 922 353 1747 
Q 353 2572 751 3078 
Q 1150 3584 1784 3584 
Q 2172 3584 2448 3432 
Q 2725 3281 2906 2969 
z
M 947 1747 
Q 947 1113 1208 752 
Q 1469 391 1925 391 
Q 2381 391 2643 752 
Q 2906 1113 2906 1747 
Q 2906 2381 2643 2742 
Q 2381 3103 1925 3103 
Q 1469 3103 1208 2742 
Q 947 2381 947 1747 
z
" transform="scale(0.015625)"/>
     <path id="DejaVuSans-72" d="M 2631 2963 
Q 2534 3019 2420 3045 
Q 2306 3072 2169 3072 
Q 1681 3072 1420 2755 
Q 1159 2438 1159 1844 
L 1159 0 
L 581 0 
L 581 3500 
L 1159 3500 
L 1159 2956 
Q 1341 3275 1631 3429 
Q 1922 3584 2338 3584 
Q 2397 3584 2469 3576 
Q 2541 3569 2628 3553 
L 2631 2963 
z
" transform="scale(0.015625)"/>
     <path id="DejaVuSans-61" d="M 2194 1759 
Q 1497 1759 1228 1600 
Q 959 1441 959 1056 
Q 959 750 1161 570 
Q 1363 391 1709 391 
Q 2188 391 2477 730 
Q 2766 1069 2766 1631 
L 2766 1759 
L 2194 1759 
z
M 3341 1997 
L 3341 0 
L 2766 0 
L 2766 531 
Q 2569 213 2275 61 
Q 1981 -91 1556 -91 
Q 1019 -91 701 211 
Q 384 513 384 1019 
Q 384 1609 779 1909 
Q 1175 2209 1959 2209 
L 2766 2209 
L 2766 2266 
Q 2766 2663 2505 2880 
Q 2244 3097 1772 3097 
Q 1472 3097 1187 3025 
Q 903 2953 641 2809 
L 641 3341 
Q 956 3463 1253 3523 
Q 1550 3584 1831 3584 
Q 2591 3584 2966 3190 
Q 3341 2797 3341 1997 
z
" transform="scale(0.015625)"/>
     <path id="DejaVuSans-6c" d="M 603 4863 
L 1178 4863 
L 1178 0 
L 603 0 
L 603 4863 
z
" transform="scale(0.015625)"/>
     <path id="DejaVuSans-79" d="M 2059 -325 
Q 1816 -950 1584 -1140 
Q 1353 -1331 966 -1331 
L 506 -1331 
L 506 -850 
L 844 -850 
Q 1081 -850 1212 -737 
Q 1344 -625 1503 -206 
L 1606 56 
L 191 3500 
L 800 3500 
L 1894 763 
L 2988 3500 
L 3597 3500 
L 2059 -325 
z
" transform="scale(0.015625)"/>
     <path id="DejaVuSans-28" d="M 1984 4856 
Q 1566 4138 1362 3434 
Q 1159 2731 1159 2009 
Q 1159 1288 1364 580 
Q 1569 -128 1984 -844 
L 1484 -844 
Q 1016 -109 783 600 
Q 550 1309 550 2009 
Q 550 2706 781 3412 
Q 1013 4119 1484 4856 
L 1984 4856 
z
" transform="scale(0.015625)"/>
     <path id="DejaVuSans-3d" d="M 678 2906 
L 4684 2906 
L 4684 2381 
L 678 2381 
L 678 2906 
z
M 678 1631 
L 4684 1631 
L 4684 1100 
L 678 1100 
L 678 1631 
z
" transform="scale(0.015625)"/>
     <path id="DejaVuSans-2d" d="M 313 2009 
L 1997 2009 
L 1997 1497 
L 313 1497 
L 313 2009 
z
" transform="scale(0.015625)"/>
     <path id="DejaVuSans-39" d="M 703 97 
L 703 672 
Q 941 559 1184 500 
Q 1428 441 1663 441 
Q 2288 441 2617 861 
Q 2947 1281 2994 2138 
Q 2813 1869 2534 1725 
Q 2256 1581 1919 1581 
Q 1219 1581 811 2004 
Q 403 2428 403 3163 
Q 403 3881 828 4315 
Q 1253 4750 1959 4750 
Q 2769 4750 3195 4129 
Q 3622 3509 3622 2328 
Q 3622 1225 3098 567 
Q 2575 -91 1691 -91 
Q 1453 -91 1209 -44 
Q 966 3 703 97 
z
M 1959 2075 
Q 2384 2075 2632 2365 
Q 2881 2656 2881 3163 
Q 2881 3666 2632 3958 
Q 2384 4250 1959 4250 
Q 1534 4250 1286 3958 
Q 1038 3666 1038 3163 
Q 1038 2656 1286 2365 
Q 1534 2075 1959 2075 
z
" transform="scale(0.015625)"/>
     <path id="DejaVuSans-29" d="M 513 4856 
L 1013 4856 
Q 1481 4119 1714 3412 
Q 1947 2706 1947 2009 
Q 1947 1309 1714 600 
Q 1481 -109 1013 -844 
L 513 -844 
Q 928 -128 1133 580 
Q 1338 1288 1338 2009 
Q 1338 2731 1133 3434 
Q 928 4138 513 4856 
z
" transform="scale(0.015625)"/>
    </defs>
    <use xlink:href="#DejaVuSans-44"/>
    <use xlink:href="#DejaVuSans-46" x="77.001953"/>
    <use xlink:href="#DejaVuSans-46" x="134.521484"/>
    <use xlink:href="#DejaVuSans-20" x="192.041016"/>
    <use xlink:href="#DejaVuSans-75" x="223.828125"/>
    <use xlink:href="#DejaVuSans-6e" x="287.207031"/>
    <use xlink:href="#DejaVuSans-64" x="350.585938"/>
    <use xlink:href="#DejaVuSans-65" x="414.0625"/>
    <use xlink:href="#DejaVuSans-72" x="475.585938"/>
    <use xlink:href="#DejaVuSans-20" x="516.699219"/>
    <use xlink:href="#DejaVuSans-42" x="548.486328"/>
    <use xlink:href="#DejaVuSans-42" x="617.089844"/>
    <use xlink:href="#DejaVuSans-49" x="685.693359"/>
    <use xlink:href="#DejaVuSans-20" x="715.185547"/>
    <use xlink:href="#DejaVuSans-73" x="746.972656"/>
    <use xlink:href="#DejaVuSans-77" x="799.072266"/>
    <use xlink:href="#DejaVuSans-65" x="880.859375"/>
    <use xlink:href="#DejaVuSans-65" x="942.382812"/>
    <use xlink:href="#DejaVuSans-70" x="1003.90625"/>
    <use xlink:href="#DejaVuSans-20" x="1067.382812"/>
    <use xlink:href="#DejaVuSans-61" x="1099.169922"/>
    <use xlink:href="#DejaVuSans-6e" x="1160.449219"/>
    <use xlink:href="#DejaVuSans-61" x="1223.828125"/>
    <use xlink:href="#DejaVuSans-6c" x="1285.107422"/>
    <use xlink:href="#DejaVuSans-79" x="1312.890625"/>
    <use xlink:href="#DejaVuSans-73" x="1372.070312"/>
    <use xlink:href="#DejaVuSans-69" x="1424.169922"/>
    <use xlink:href="#DejaVuSans-73" x="1451.953125"/>
    <use xlink:href="#DejaVuSans-20" x="1504.052734"/>
    <use xlink:href="#DejaVuSans-28" x="1535.839844"/>
    <use xlink:href="#DejaVuSans-53" x="1574.853516"/>
    <use xlink:href="#DejaVuSans-77" x="1638.330078"/>
    <use xlink:href="#DejaVuSans-65" x="1720.117188"/>
    <use xlink:href="#DejaVuSans-65" x="1781.640625"/>
    <use xlink:href="#DejaVuSans-70" x="1843.164062"/>
    <use xlink:href="#DejaVuSans-20" x="1906.640625"/>
    <use xlink:href="#DejaVuSans-3d" x="1938.427734"/>
    <use xlink:href="#DejaVuSans-20" x="2022.216797"/>
    <use xlink:href="#DejaVuSans-35" x="2054.003906"/>
    <use xlink:href="#DejaVuSans-36" x="2117.626953"/>
    <use xlink:href="#DejaVuSans-45" x="2181.25"/>
    <use xlink:href="#DejaVuSans-2d" x="2244.433594"/>
    <use xlink:href="#DejaVuSans-39" x="2280.517578"/>
    <use xlink:href="#DejaVuSans-29" x="2344.140625"/>
   </g>
  </g>
 </g>
 <defs>
  <clipPath id="p12c115ef5e">
   <rect x="100.8" y="38.88" width="887.04" height="92.731034"/>
  </clipPath>
  <clipPath id="p0db5746d90">
   <rect x="100.8" y="150.157241" width="887.04" height="92.731034"/>
  </clipPath>
  <clipPath id="p20794d408b">
   <rect x="100.8" y="261.434483" width="887.04" height="92.731034"/>
  </clipPath>
  <clipPath id="p98ec4f54e9">
   <rect x="100.8" y="372.711724" width="887.04" height="92.731034"/>
  </clipPath>
  <clipPath id="p81dee7ef88">
   <rect x="100.8" y="483.988966" width="887.04" height="92.731034"/>
  </clipPath>
  <clipPath id="p19baaad476">
   <rect x="201.6" y="609.12" width="655.2" height="25.92"/>
  </clipPath>
  <clipPath id="p96b916beec">
   <path d="M 201.6 628.56 
L 856.8 628.56 
L 856.8 615.6 
L 201.6 615.6 
z
"/>
  </clipPath>
 </defs>
</svg>
