<?xml version="1.0" encoding="utf-8" standalone="no"?>
<!DOCTYPE svg PUBLIC "-//W3C//DTD SVG 1.1//EN"
  "http://www.w3.org/Graphics/SVG/1.1/DTD/svg11.dtd">
<svg xmlns:xlink="http://www.w3.org/1999/xlink" width="1008pt" height="648pt" viewBox="0 0 1008 648" xmlns="http://www.w3.org/2000/svg" version="1.1">
 <metadata>
  <rdf:RDF xmlns:dc="http://purl.org/dc/elements/1.1/" xmlns:cc="http://creativecommons.org/ns#" xmlns:rdf="http://www.w3.org/1999/02/22-rdf-syntax-ns#">
   <cc:Work>
    <dc:type rdf:resource="http://purl.org/dc/dcmitype/StillImage"/>
    <dc:date>2024-06-03T10:45:37.220394</dc:date>
    <dc:format>image/svg+xml</dc:format>
    <dc:creator>
     <cc:Agent>
      <dc:title>Matplotlib v3.9.0, https://matplotlib.org/</dc:title>
     </cc:Agent>
    </dc:creator>
   </cc:Work>
  </rdf:RDF>
 </metadata>
 <defs>
  <style type="text/css">*{stroke-linejoin: round; stroke-linecap: butt}</style>
 </defs>
 <g id="figure_1">
  <g id="patch_1">
   <path d="M 0 648 
L 1008 648 
L 1008 0 
L 0 0 
z
" style="fill: #ffffff"/>
  </g>
  <g id="axes_1">
   <g id="patch_2">
    <path d="M 100.8 131.611034 
L 987.84 131.611034 
L 987.84 38.88 
L 100.8 38.88 
z
" style="fill: #eeeeee"/>
   </g>
   <g id="matplotlib.axis_1">
    <g id="xtick_1">
     <g id="line2d_1">
      <path d="M 141.12 131.611034 
L 141.12 38.88 
" clip-path="url(#pf48e757090)" style="fill: none; stroke-dasharray: 1.85,0.8; stroke-dashoffset: 0; stroke: #b2b2b2; stroke-width: 0.5"/>
     </g>
     <g id="line2d_2">
      <defs>
       <path id="m6bdbd6314b" d="M 0 0 
L 0 -3.5 
" style="stroke: #000000; stroke-width: 0.8"/>
      </defs>
      <g>
       <use xlink:href="#m6bdbd6314b" x="141.12" y="131.611034" style="stroke: #000000; stroke-width: 0.8"/>
      </g>
     </g>
    </g>
    <g id="xtick_2">
     <g id="line2d_3">
      <path d="M 302.4 131.611034 
L 302.4 38.88 
" clip-path="url(#pf48e757090)" style="fill: none; stroke-dasharray: 1.85,0.8; stroke-dashoffset: 0; stroke: #b2b2b2; stroke-width: 0.5"/>
     </g>
     <g id="line2d_4">
      <g>
       <use xlink:href="#m6bdbd6314b" x="302.4" y="131.611034" style="stroke: #000000; stroke-width: 0.8"/>
      </g>
     </g>
    </g>
    <g id="xtick_3">
     <g id="line2d_5">
      <path d="M 463.68 131.611034 
L 463.68 38.88 
" clip-path="url(#pf48e757090)" style="fill: none; stroke-dasharray: 1.85,0.8; stroke-dashoffset: 0; stroke: #b2b2b2; stroke-width: 0.5"/>
     </g>
     <g id="line2d_6">
      <g>
       <use xlink:href="#m6bdbd6314b" x="463.68" y="131.611034" style="stroke: #000000; stroke-width: 0.8"/>
      </g>
     </g>
    </g>
    <g id="xtick_4">
     <g id="line2d_7">
      <path d="M 624.96 131.611034 
L 624.96 38.88 
" clip-path="url(#pf48e757090)" style="fill: none; stroke-dasharray: 1.85,0.8; stroke-dashoffset: 0; stroke: #b2b2b2; stroke-width: 0.5"/>
     </g>
     <g id="line2d_8">
      <g>
       <use xlink:href="#m6bdbd6314b" x="624.96" y="131.611034" style="stroke: #000000; stroke-width: 0.8"/>
      </g>
     </g>
    </g>
    <g id="xtick_5">
     <g id="line2d_9">
      <path d="M 786.24 131.611034 
L 786.24 38.88 
" clip-path="url(#pf48e757090)" style="fill: none; stroke-dasharray: 1.85,0.8; stroke-dashoffset: 0; stroke: #b2b2b2; stroke-width: 0.5"/>
     </g>
     <g id="line2d_10">
      <g>
       <use xlink:href="#m6bdbd6314b" x="786.24" y="131.611034" style="stroke: #000000; stroke-width: 0.8"/>
      </g>
     </g>
    </g>
    <g id="xtick_6">
     <g id="line2d_11">
      <path d="M 947.52 131.611034 
L 947.52 38.88 
" clip-path="url(#pf48e757090)" style="fill: none; stroke-dasharray: 1.85,0.8; stroke-dashoffset: 0; stroke: #b2b2b2; stroke-width: 0.5"/>
     </g>
     <g id="line2d_12">
      <g>
       <use xlink:href="#m6bdbd6314b" x="947.52" y="131.611034" style="stroke: #000000; stroke-width: 0.8"/>
      </g>
     </g>
    </g>
   </g>
   <g id="matplotlib.axis_2">
    <g id="ytick_1">
     <g id="line2d_13">
      <path d="M 100.8 98.340394 
L 987.84 98.340394 
" clip-path="url(#pf48e757090)" style="fill: none; stroke-dasharray: 1.85,0.8; stroke-dashoffset: 0; stroke: #b2b2b2; stroke-width: 0.5"/>
     </g>
     <g id="line2d_14">
      <defs>
       <path id="mcd7652b3c6" d="M 0 0 
L 3.5 0 
" style="stroke: #000000; stroke-width: 0.8"/>
      </defs>
      <g>
       <use xlink:href="#mcd7652b3c6" x="100.8" y="98.340394" style="stroke: #000000; stroke-width: 0.8"/>
      </g>
     </g>
     <g id="text_1">
      <!-- −200 V -->
      <g transform="translate(44.819688 103.6593) scale(0.14 -0.14)">
       <defs>
        <path id="DejaVuSans-2212" d="M 678 2272 
L 4684 2272 
L 4684 1741 
L 678 1741 
L 678 2272 
z
" transform="scale(0.015625)"/>
        <path id="DejaVuSans-32" d="M 1228 531 
L 3431 531 
L 3431 0 
L 469 0 
L 469 531 
Q 828 903 1448 1529 
Q 2069 2156 2228 2338 
Q 2531 2678 2651 2914 
Q 2772 3150 2772 3378 
Q 2772 3750 2511 3984 
Q 2250 4219 1831 4219 
Q 1534 4219 1204 4116 
Q 875 4013 500 3803 
L 500 4441 
Q 881 4594 1212 4672 
Q 1544 4750 1819 4750 
Q 2544 4750 2975 4387 
Q 3406 4025 3406 3419 
Q 3406 3131 3298 2873 
Q 3191 2616 2906 2266 
Q 2828 2175 2409 1742 
Q 1991 1309 1228 531 
z
" transform="scale(0.015625)"/>
        <path id="DejaVuSans-30" d="M 2034 4250 
Q 1547 4250 1301 3770 
Q 1056 3291 1056 2328 
Q 1056 1369 1301 889 
Q 1547 409 2034 409 
Q 2525 409 2770 889 
Q 3016 1369 3016 2328 
Q 3016 3291 2770 3770 
Q 2525 4250 2034 4250 
z
M 2034 4750 
Q 2819 4750 3233 4129 
Q 3647 3509 3647 2328 
Q 3647 1150 3233 529 
Q 2819 -91 2034 -91 
Q 1250 -91 836 529 
Q 422 1150 422 2328 
Q 422 3509 836 4129 
Q 1250 4750 2034 4750 
z
" transform="scale(0.015625)"/>
        <path id="DejaVuSans-20" transform="scale(0.015625)"/>
        <path id="DejaVuSans-56" d="M 1831 0 
L 50 4666 
L 709 4666 
L 2188 738 
L 3669 4666 
L 4325 4666 
L 2547 0 
L 1831 0 
z
" transform="scale(0.015625)"/>
       </defs>
       <use xlink:href="#DejaVuSans-2212"/>
       <use xlink:href="#DejaVuSans-32" x="83.789062"/>
       <use xlink:href="#DejaVuSans-30" x="147.412109"/>
       <use xlink:href="#DejaVuSans-30" x="211.035156"/>
       <use xlink:href="#DejaVuSans-20" x="274.658203"/>
       <use xlink:href="#DejaVuSans-56" x="306.445312"/>
      </g>
     </g>
    </g>
    <g id="ytick_2">
     <g id="line2d_15">
      <path d="M 100.8 45.027377 
L 987.84 45.027377 
" clip-path="url(#pf48e757090)" style="fill: none; stroke-dasharray: 1.85,0.8; stroke-dashoffset: 0; stroke: #b2b2b2; stroke-width: 0.5"/>
     </g>
     <g id="line2d_16">
      <g>
       <use xlink:href="#mcd7652b3c6" x="100.8" y="45.027377" style="stroke: #000000; stroke-width: 0.8"/>
      </g>
     </g>
     <g id="text_2">
      <!-- 0 V -->
      <g transform="translate(74.36625 50.346284) scale(0.14 -0.14)">
       <use xlink:href="#DejaVuSans-30"/>
       <use xlink:href="#DejaVuSans-20" x="63.623047"/>
       <use xlink:href="#DejaVuSans-56" x="95.410156"/>
      </g>
     </g>
    </g>
    <g id="text_3">
     <g id="patch_3">
      <path d="M 34.8768 131.080205 
L 34.8768 39.41083 
L 11.247425 39.41083 
L 11.247425 131.080205 
z
" style="fill: #ffff00; opacity: 0.2; stroke: #eeeeee; stroke-width: 0.5; stroke-linejoin: miter"/>
     </g>
     <!-- VPULSE BBI -->
     <g transform="translate(26.925238 126.040205) rotate(-90) scale(0.14 -0.14)">
      <defs>
       <path id="DejaVuSans-50" d="M 1259 4147 
L 1259 2394 
L 2053 2394 
Q 2494 2394 2734 2622 
Q 2975 2850 2975 3272 
Q 2975 3691 2734 3919 
Q 2494 4147 2053 4147 
L 1259 4147 
z
M 628 4666 
L 2053 4666 
Q 2838 4666 3239 4311 
Q 3641 3956 3641 3272 
Q 3641 2581 3239 2228 
Q 2838 1875 2053 1875 
L 1259 1875 
L 1259 0 
L 628 0 
L 628 4666 
z
" transform="scale(0.015625)"/>
       <path id="DejaVuSans-55" d="M 556 4666 
L 1191 4666 
L 1191 1831 
Q 1191 1081 1462 751 
Q 1734 422 2344 422 
Q 2950 422 3222 751 
Q 3494 1081 3494 1831 
L 3494 4666 
L 4128 4666 
L 4128 1753 
Q 4128 841 3676 375 
Q 3225 -91 2344 -91 
Q 1459 -91 1007 375 
Q 556 841 556 1753 
L 556 4666 
z
" transform="scale(0.015625)"/>
       <path id="DejaVuSans-4c" d="M 628 4666 
L 1259 4666 
L 1259 531 
L 3531 531 
L 3531 0 
L 628 0 
L 628 4666 
z
" transform="scale(0.015625)"/>
       <path id="DejaVuSans-53" d="M 3425 4513 
L 3425 3897 
Q 3066 4069 2747 4153 
Q 2428 4238 2131 4238 
Q 1616 4238 1336 4038 
Q 1056 3838 1056 3469 
Q 1056 3159 1242 3001 
Q 1428 2844 1947 2747 
L 2328 2669 
Q 3034 2534 3370 2195 
Q 3706 1856 3706 1288 
Q 3706 609 3251 259 
Q 2797 -91 1919 -91 
Q 1588 -91 1214 -16 
Q 841 59 441 206 
L 441 856 
Q 825 641 1194 531 
Q 1563 422 1919 422 
Q 2459 422 2753 634 
Q 3047 847 3047 1241 
Q 3047 1584 2836 1778 
Q 2625 1972 2144 2069 
L 1759 2144 
Q 1053 2284 737 2584 
Q 422 2884 422 3419 
Q 422 4038 858 4394 
Q 1294 4750 2059 4750 
Q 2388 4750 2728 4690 
Q 3069 4631 3425 4513 
z
" transform="scale(0.015625)"/>
       <path id="DejaVuSans-45" d="M 628 4666 
L 3578 4666 
L 3578 4134 
L 1259 4134 
L 1259 2753 
L 3481 2753 
L 3481 2222 
L 1259 2222 
L 1259 531 
L 3634 531 
L 3634 0 
L 628 0 
L 628 4666 
z
" transform="scale(0.015625)"/>
       <path id="DejaVuSans-42" d="M 1259 2228 
L 1259 519 
L 2272 519 
Q 2781 519 3026 730 
Q 3272 941 3272 1375 
Q 3272 1813 3026 2020 
Q 2781 2228 2272 2228 
L 1259 2228 
z
M 1259 4147 
L 1259 2741 
L 2194 2741 
Q 2656 2741 2882 2914 
Q 3109 3088 3109 3444 
Q 3109 3797 2882 3972 
Q 2656 4147 2194 4147 
L 1259 4147 
z
M 628 4666 
L 2241 4666 
Q 2963 4666 3353 4366 
Q 3744 4066 3744 3513 
Q 3744 3084 3544 2831 
Q 3344 2578 2956 2516 
Q 3422 2416 3680 2098 
Q 3938 1781 3938 1306 
Q 3938 681 3513 340 
Q 3088 0 2303 0 
L 628 0 
L 628 4666 
z
" transform="scale(0.015625)"/>
       <path id="DejaVuSans-49" d="M 628 4666 
L 1259 4666 
L 1259 0 
L 628 0 
L 628 4666 
z
" transform="scale(0.015625)"/>
      </defs>
      <use xlink:href="#DejaVuSans-56"/>
      <use xlink:href="#DejaVuSans-50" x="68.408203"/>
      <use xlink:href="#DejaVuSans-55" x="128.710938"/>
      <use xlink:href="#DejaVuSans-4c" x="201.904297"/>
      <use xlink:href="#DejaVuSans-53" x="257.617188"/>
      <use xlink:href="#DejaVuSans-45" x="321.09375"/>
      <use xlink:href="#DejaVuSans-20" x="384.277344"/>
      <use xlink:href="#DejaVuSans-42" x="416.064453"/>
      <use xlink:href="#DejaVuSans-42" x="484.667969"/>
      <use xlink:href="#DejaVuSans-49" x="553.271484"/>
     </g>
    </g>
   </g>
   <g id="line2d_17">
    <path d="M 141.12 45.027377 
L 315.334656 45.136282 
L 315.818496 46.425538 
L 324.043776 69.006772 
L 331.462656 89.863624 
L 333.075456 94.440546 
L 334.881792 99.673219 
L 338.36544 110.807642 
L 339.945984 115.853719 
L 341.171712 119.550977 
L 345.074688 121.36362 
L 345.655296 121.619522 
L 346.526208 122.003376 
L 347.171328 122.269941 
L 348.751872 122.936354 
L 349.396992 123.202919 
L 350.493696 123.629423 
L 351.235584 123.922644 
L 352.332288 124.349149 
L 353.235456 124.677024 
L 353.912832 124.943589 
L 354.719232 125.25547 
L 356.073984 125.804594 
L 358.718976 126.790885 
L 359.33184 127.022796 
L 361.2672 127.395987 
L 379.749888 127.289361 
L 379.97568 126.801547 
L 398.264832 75.087922 
L 402.006528 63.292417 
L 405.715968 51.617666 
L 410.328576 49.3412 
L 415.683072 46.984578 
L 424.392192 43.484472 
L 425.263104 43.268927 
L 439.552512 43.108189 
L 446.358528 43.184799 
L 461.712384 43.746186 
L 489.4848 44.46146 
L 515.12832 44.774399 
L 550.738944 44.945888 
L 598.768128 44.953885 
L 947.52 44.953885 
L 947.52 44.953885 
" clip-path="url(#pf48e757090)" style="fill: none; stroke: #ff0000; stroke-width: 2; stroke-linecap: square"/>
   </g>
   <g id="patch_4">
    <path d="M 100.8 131.611034 
L 100.8 38.88 
" style="fill: none; stroke: #bcbcbc; stroke-width: 0.8; stroke-linejoin: miter; stroke-linecap: square"/>
   </g>
   <g id="patch_5">
    <path d="M 987.84 131.611034 
L 987.84 38.88 
" style="fill: none; stroke: #bcbcbc; stroke-width: 0.8; stroke-linejoin: miter; stroke-linecap: square"/>
   </g>
   <g id="patch_6">
    <path d="M 100.8 131.611034 
L 987.84 131.611034 
" style="fill: none; stroke: #bcbcbc; stroke-width: 0.8; stroke-linejoin: miter; stroke-linecap: square"/>
   </g>
   <g id="patch_7">
    <path d="M 100.8 38.88 
L 987.84 38.88 
" style="fill: none; stroke: #bcbcbc; stroke-width: 0.8; stroke-linejoin: miter; stroke-linecap: square"/>
   </g>
  </g>
  <g id="axes_2">
   <g id="patch_8">
    <path d="M 100.8 242.888276 
L 987.84 242.888276 
L 987.84 150.157241 
L 100.8 150.157241 
z
" style="fill: #eeeeee"/>
   </g>
   <g id="matplotlib.axis_3">
    <g id="xtick_7">
     <g id="line2d_18">
      <path d="M 141.12 242.888276 
L 141.12 150.157241 
" clip-path="url(#p9e6c0285da)" style="fill: none; stroke-dasharray: 1.85,0.8; stroke-dashoffset: 0; stroke: #b2b2b2; stroke-width: 0.5"/>
     </g>
     <g id="line2d_19">
      <g>
       <use xlink:href="#m6bdbd6314b" x="141.12" y="242.888276" style="stroke: #000000; stroke-width: 0.8"/>
      </g>
     </g>
    </g>
    <g id="xtick_8">
     <g id="line2d_20">
      <path d="M 302.4 242.888276 
L 302.4 150.157241 
" clip-path="url(#p9e6c0285da)" style="fill: none; stroke-dasharray: 1.85,0.8; stroke-dashoffset: 0; stroke: #b2b2b2; stroke-width: 0.5"/>
     </g>
     <g id="line2d_21">
      <g>
       <use xlink:href="#m6bdbd6314b" x="302.4" y="242.888276" style="stroke: #000000; stroke-width: 0.8"/>
      </g>
     </g>
    </g>
    <g id="xtick_9">
     <g id="line2d_22">
      <path d="M 463.68 242.888276 
L 463.68 150.157241 
" clip-path="url(#p9e6c0285da)" style="fill: none; stroke-dasharray: 1.85,0.8; stroke-dashoffset: 0; stroke: #b2b2b2; stroke-width: 0.5"/>
     </g>
     <g id="line2d_23">
      <g>
       <use xlink:href="#m6bdbd6314b" x="463.68" y="242.888276" style="stroke: #000000; stroke-width: 0.8"/>
      </g>
     </g>
    </g>
    <g id="xtick_10">
     <g id="line2d_24">
      <path d="M 624.96 242.888276 
L 624.96 150.157241 
" clip-path="url(#p9e6c0285da)" style="fill: none; stroke-dasharray: 1.85,0.8; stroke-dashoffset: 0; stroke: #b2b2b2; stroke-width: 0.5"/>
     </g>
     <g id="line2d_25">
      <g>
       <use xlink:href="#m6bdbd6314b" x="624.96" y="242.888276" style="stroke: #000000; stroke-width: 0.8"/>
      </g>
     </g>
    </g>
    <g id="xtick_11">
     <g id="line2d_26">
      <path d="M 786.24 242.888276 
L 786.24 150.157241 
" clip-path="url(#p9e6c0285da)" style="fill: none; stroke-dasharray: 1.85,0.8; stroke-dashoffset: 0; stroke: #b2b2b2; stroke-width: 0.5"/>
     </g>
     <g id="line2d_27">
      <g>
       <use xlink:href="#m6bdbd6314b" x="786.24" y="242.888276" style="stroke: #000000; stroke-width: 0.8"/>
      </g>
     </g>
    </g>
    <g id="xtick_12">
     <g id="line2d_28">
      <path d="M 947.52 242.888276 
L 947.52 150.157241 
" clip-path="url(#p9e6c0285da)" style="fill: none; stroke-dasharray: 1.85,0.8; stroke-dashoffset: 0; stroke: #b2b2b2; stroke-width: 0.5"/>
     </g>
     <g id="line2d_29">
      <g>
       <use xlink:href="#m6bdbd6314b" x="947.52" y="242.888276" style="stroke: #000000; stroke-width: 0.8"/>
      </g>
     </g>
    </g>
   </g>
   <g id="matplotlib.axis_4">
    <g id="ytick_3">
     <g id="line2d_30">
      <path d="M 100.8 219.095039 
L 987.84 219.095039 
" clip-path="url(#p9e6c0285da)" style="fill: none; stroke-dasharray: 1.85,0.8; stroke-dashoffset: 0; stroke: #b2b2b2; stroke-width: 0.5"/>
     </g>
     <g id="line2d_31">
      <g>
       <use xlink:href="#mcd7652b3c6" x="100.8" y="219.095039" style="stroke: #000000; stroke-width: 0.8"/>
      </g>
     </g>
     <g id="text_4">
      <!-- 0 V -->
      <g transform="translate(74.36625 224.413945) scale(0.14 -0.14)">
       <use xlink:href="#DejaVuSans-30"/>
       <use xlink:href="#DejaVuSans-20" x="63.623047"/>
       <use xlink:href="#DejaVuSans-56" x="95.410156"/>
      </g>
     </g>
    </g>
    <g id="ytick_4">
     <g id="line2d_32">
      <path d="M 100.8 185.123408 
L 987.84 185.123408 
" clip-path="url(#p9e6c0285da)" style="fill: none; stroke-dasharray: 1.85,0.8; stroke-dashoffset: 0; stroke: #b2b2b2; stroke-width: 0.5"/>
     </g>
     <g id="line2d_33">
      <g>
       <use xlink:href="#mcd7652b3c6" x="100.8" y="185.123408" style="stroke: #000000; stroke-width: 0.8"/>
      </g>
     </g>
     <g id="text_5">
      <!-- 1 V -->
      <g transform="translate(74.36625 190.442314) scale(0.14 -0.14)">
       <defs>
        <path id="DejaVuSans-31" d="M 794 531 
L 1825 531 
L 1825 4091 
L 703 3866 
L 703 4441 
L 1819 4666 
L 2450 4666 
L 2450 531 
L 3481 531 
L 3481 0 
L 794 0 
L 794 531 
z
" transform="scale(0.015625)"/>
       </defs>
       <use xlink:href="#DejaVuSans-31"/>
       <use xlink:href="#DejaVuSans-20" x="63.623047"/>
       <use xlink:href="#DejaVuSans-56" x="95.410156"/>
      </g>
     </g>
    </g>
    <g id="ytick_5">
     <g id="line2d_34">
      <path d="M 100.8 151.151778 
L 987.84 151.151778 
" clip-path="url(#p9e6c0285da)" style="fill: none; stroke-dasharray: 1.85,0.8; stroke-dashoffset: 0; stroke: #b2b2b2; stroke-width: 0.5"/>
     </g>
     <g id="line2d_35">
      <g>
       <use xlink:href="#mcd7652b3c6" x="100.8" y="151.151778" style="stroke: #000000; stroke-width: 0.8"/>
      </g>
     </g>
     <g id="text_6">
      <!-- 2 V -->
      <g transform="translate(74.36625 156.470684) scale(0.14 -0.14)">
       <use xlink:href="#DejaVuSans-32"/>
       <use xlink:href="#DejaVuSans-20" x="63.623047"/>
       <use xlink:href="#DejaVuSans-56" x="95.410156"/>
      </g>
     </g>
    </g>
    <g id="text_7">
     <g id="patch_9">
      <path d="M 34.8768 224.531509 
L 34.8768 168.514009 
L 11.247425 168.514009 
L 11.247425 224.531509 
z
" style="fill: #ffff00; opacity: 0.2; stroke: #eeeeee; stroke-width: 0.5; stroke-linejoin: miter"/>
     </g>
     <!-- DFF IN -->
     <g transform="translate(26.925238 219.491509) rotate(-90) scale(0.14 -0.14)">
      <defs>
       <path id="DejaVuSans-44" d="M 1259 4147 
L 1259 519 
L 2022 519 
Q 2988 519 3436 956 
Q 3884 1394 3884 2338 
Q 3884 3275 3436 3711 
Q 2988 4147 2022 4147 
L 1259 4147 
z
M 628 4666 
L 1925 4666 
Q 3281 4666 3915 4102 
Q 4550 3538 4550 2338 
Q 4550 1131 3912 565 
Q 3275 0 1925 0 
L 628 0 
L 628 4666 
z
" transform="scale(0.015625)"/>
       <path id="DejaVuSans-46" d="M 628 4666 
L 3309 4666 
L 3309 4134 
L 1259 4134 
L 1259 2759 
L 3109 2759 
L 3109 2228 
L 1259 2228 
L 1259 0 
L 628 0 
L 628 4666 
z
" transform="scale(0.015625)"/>
       <path id="DejaVuSans-4e" d="M 628 4666 
L 1478 4666 
L 3547 763 
L 3547 4666 
L 4159 4666 
L 4159 0 
L 3309 0 
L 1241 3903 
L 1241 0 
L 628 0 
L 628 4666 
z
" transform="scale(0.015625)"/>
      </defs>
      <use xlink:href="#DejaVuSans-44"/>
      <use xlink:href="#DejaVuSans-46" x="77.001953"/>
      <use xlink:href="#DejaVuSans-46" x="134.521484"/>
      <use xlink:href="#DejaVuSans-20" x="192.041016"/>
      <use xlink:href="#DejaVuSans-49" x="223.828125"/>
      <use xlink:href="#DejaVuSans-4e" x="253.320312"/>
     </g>
    </g>
   </g>
   <g id="line2d_36">
    <path d="M 141.12 219.045426 
L 221.953536 218.998841 
L 224.437248 200.070246 
L 225.404928 194.312055 
L 228.243456 181.651508 
L 229.598208 180.380969 
L 231.178752 179.507898 
L 236.533248 179.052678 
L 243.5328 178.943969 
L 244.952064 178.903203 
L 248.145408 178.794493 
L 249.790464 178.729947 
L 251.887104 178.621238 
L 254.241792 178.274728 
L 254.757888 177.737976 
L 255.499776 177.398259 
L 256.338432 177.411848 
L 259.789824 178.026735 
L 262.467072 178.19999 
L 263.886336 178.24755 
L 264.144384 183.485976 
L 264.434688 187.050279 
L 265.176576 191.798494 
L 267.144192 209.129801 
L 268.402176 215.637066 
L 269.047296 216.920039 
L 270.46656 218.682487 
L 273.724416 219.096873 
L 282.530304 219.049466 
L 296.980992 219.039155 
L 307.141632 219.045134 
L 315.399168 219.138899 
L 316.818432 220.509991 
L 318.721536 221.486471 
L 319.97952 221.732664 
L 321.882624 221.857476 
L 323.463168 222.017924 
L 324.398592 222.490231 
L 326.688768 223.613945 
L 328.36608 224.545107 
L 329.785344 225.431087 
L 330.591744 225.662774 
L 331.236864 225.569012 
L 331.785216 225.241865 
L 332.527104 224.432661 
L 332.88192 224.136089 
L 333.075456 224.183649 
L 333.36576 224.567528 
L 334.268928 226.047672 
L 334.526976 226.314689 
L 334.720512 226.723028 
L 335.13984 227.880442 
L 335.559168 228.629177 
L 335.688192 228.741962 
L 336.172032 229.934027 
L 336.720384 230.991224 
L 337.333248 231.994746 
L 337.655808 232.825013 
L 338.462208 234.270845 
L 340.075008 237.059576 
L 341.074944 238.553649 
L 341.42976 238.557386 
L 342.010368 237.732894 
L 342.39744 237.111553 
L 342.72 236.510255 
L 345.235968 233.609757 
L 346.010112 232.970411 
L 347.23584 231.613924 
L 347.5584 231.337055 
L 347.88096 231.182145 
L 348.171264 230.987147 
L 349.106688 230.051908 
L 349.558272 229.320499 
L 349.880832 229.117009 
L 350.042112 229.120746 
L 350.30016 228.913519 
L 350.94528 228.575162 
L 352.041984 227.621578 
L 352.203264 227.269972 
L 352.525824 226.787575 
L 352.848384 226.682262 
L 353.106432 226.611262 
L 353.52576 226.392484 
L 355.13856 225.129419 
L 355.557888 224.660271 
L 355.977216 224.362 
L 359.557632 221.701682 
L 360.976896 220.43155 
L 361.557504 219.751336 
L 363.84768 216.500455 
L 364.17024 216.033413 
L 368.331264 210.801884 
L 369.363456 209.75318 
L 369.718272 209.086657 
L 372.492288 201.528308 
L 373.04064 200.662032 
L 376.26624 196.223978 
L 377.104896 195.309462 
L 377.943552 194.278763 
L 379.846656 192.616531 
L 380.362752 190.912514 
L 381.523968 186.978599 
L 382.362624 184.984125 
L 383.330304 183.28894 
L 385.039872 180.965281 
L 390.2976 174.150572 
L 391.42656 172.574288 
L 393.555456 169.707082 
L 395.845632 166.748153 
L 396.039168 166.486572 
L 397.458432 164.730238 
L 405.748224 154.402863 
L 407.199744 154.749373 
L 408.135168 154.752771 
L 409.231872 154.875069 
L 409.6512 154.93282 
L 412.909056 155.731154 
L 415.360512 156.3936 
L 415.650816 155.571487 
L 416.005632 155.007558 
L 416.295936 154.88526 
L 416.58624 154.922629 
L 417.037824 155.218182 
L 419.102208 157.025473 
L 420.715008 157.915529 
L 422.06976 158.506636 
L 424.198656 159.284586 
L 425.392128 159.77038 
L 426.069504 160.133877 
L 427.06944 160.636657 
L 428.746752 161.397622 
L 429.520896 161.757721 
L 430.230528 162.083848 
L 431.26272 162.522083 
L 431.843328 162.766678 
L 432.972288 163.238884 
L 433.939968 163.629558 
L 435.391488 164.196884 
L 435.93984 164.414302 
L 438.326784 165.300962 
L 452.906496 169.795409 
L 453.583872 169.968664 
L 454.261248 170.135125 
L 455.648256 170.46465 
L 455.712768 170.508813 
L 456.26112 171.500784 
L 456.938496 171.928827 
L 457.648128 172.044331 
L 460.196352 171.619685 
L 461.551104 171.728394 
L 462.260736 171.837104 
L 462.8736 171.945813 
L 466.0992 172.516536 
L 466.518528 172.581082 
L 467.421696 172.75094 
L 468.066816 172.852855 
L 468.937728 173.019316 
L 469.711872 173.124628 
L 470.45376 173.246926 
L 472.71168 173.593437 
L 474.227712 173.804061 
L 474.937344 173.91277 
L 476.388864 174.106408 
L 477.259776 174.211721 
L 478.582272 174.381579 
L 479.48544 174.480096 
L 479.904768 174.544643 
L 492.258816 175.737047 
L 493.613568 175.845756 
L 496.032768 175.991834 
L 496.548864 175.410919 
L 497.452032 175.139146 
L 498.451968 175.353167 
L 501.41952 176.175281 
L 502.838784 176.365522 
L 503.806464 176.470834 
L 504.709632 176.548969 
L 507.354624 176.722224 
L 508.032 176.756196 
L 510.12864 176.868302 
L 512.54784 176.977011 
L 514.16064 177.041557 
L 514.902528 177.072132 
L 517.676544 177.180841 
L 518.99904 177.211415 
L 522.192384 177.320125 
L 522.611712 177.340508 
L 524.030976 177.381274 
L 524.869632 177.401657 
L 525.45024 177.415245 
L 526.224384 177.442423 
L 530.966016 177.547735 
L 531.643392 177.585103 
L 532.578816 177.595295 
L 532.998144 177.615678 
L 533.99808 177.619075 
L 536.385024 177.724387 
L 536.933376 178.349465 
L 537.38496 178.594061 
L 538.03008 178.753728 
L 538.707456 178.719756 
L 539.96544 178.346068 
L 540.739584 178.138841 
L 541.41696 178.040323 
L 543.481344 177.931614 
L 576.769536 177.826302 
L 577.253376 177.343905 
L 577.898496 177.058543 
L 578.9952 177.048352 
L 582.962688 177.771947 
L 584.64 177.839891 
L 616.960512 177.9486 
L 617.121792 178.12865 
L 617.637888 178.648415 
L 618.02496 178.831862 
L 618.637824 178.971146 
L 620.992512 178.862437 
L 622.70208 178.573678 
L 624.024576 178.407217 
L 628.572672 178.036926 
L 657.312768 177.962189 
L 657.86112 177.347302 
L 658.409472 177.072132 
L 660.344832 177.180841 
L 663.602688 177.754962 
L 665.699328 177.867068 
L 697.632768 177.962189 
L 698.568192 178.797891 
L 699.503616 178.97794 
L 700.793856 179.008515 
L 703.567872 178.536309 
L 709.438464 178.026735 
L 737.952768 177.962189 
L 738.50112 177.347302 
L 739.049472 177.072132 
L 740.984832 177.180841 
L 744.242688 177.754962 
L 746.339328 177.867068 
L 778.272768 177.962189 
L 779.208192 178.797891 
L 780.143616 178.97794 
L 781.433856 179.008515 
L 784.207872 178.536309 
L 790.078464 178.026735 
L 818.592768 177.962189 
L 819.14112 177.347302 
L 819.689472 177.072132 
L 821.624832 177.180841 
L 824.882688 177.754962 
L 826.979328 177.867068 
L 858.912768 177.962189 
L 859.848192 178.797891 
L 860.783616 178.97794 
L 862.880256 178.869231 
L 864.589824 178.580472 
L 865.944576 178.407217 
L 870.492672 178.036926 
L 899.232768 177.962189 
L 899.78112 177.347302 
L 900.329472 177.072132 
L 902.264832 177.180841 
L 905.522688 177.754962 
L 907.619328 177.867068 
L 939.552768 177.962189 
L 940.617216 178.828465 
L 941.55264 179.015309 
L 943.455744 178.9066 
L 944.810496 178.65521 
L 947.03616 178.298508 
L 947.52 178.22377 
L 947.52 178.22377 
" clip-path="url(#p9e6c0285da)" style="fill: none; stroke: #008000; stroke-width: 2; stroke-linecap: square"/>
   </g>
   <g id="patch_10">
    <path d="M 100.8 242.888276 
L 100.8 150.157241 
" style="fill: none; stroke: #bcbcbc; stroke-width: 0.8; stroke-linejoin: miter; stroke-linecap: square"/>
   </g>
   <g id="patch_11">
    <path d="M 987.84 242.888276 
L 987.84 150.157241 
" style="fill: none; stroke: #bcbcbc; stroke-width: 0.8; stroke-linejoin: miter; stroke-linecap: square"/>
   </g>
   <g id="patch_12">
    <path d="M 100.8 242.888276 
L 987.84 242.888276 
" style="fill: none; stroke: #bcbcbc; stroke-width: 0.8; stroke-linejoin: miter; stroke-linecap: square"/>
   </g>
   <g id="patch_13">
    <path d="M 100.8 150.157241 
L 987.84 150.157241 
" style="fill: none; stroke: #bcbcbc; stroke-width: 0.8; stroke-linejoin: miter; stroke-linecap: square"/>
   </g>
  </g>
  <g id="axes_3">
   <g id="patch_14">
    <path d="M 100.8 354.165517 
L 987.84 354.165517 
L 987.84 261.434483 
L 100.8 261.434483 
z
" style="fill: #eeeeee"/>
   </g>
   <g id="matplotlib.axis_5">
    <g id="xtick_13">
     <g id="line2d_37">
      <path d="M 141.12 354.165517 
L 141.12 261.434483 
" clip-path="url(#p467d0c6a44)" style="fill: none; stroke-dasharray: 1.85,0.8; stroke-dashoffset: 0; stroke: #b2b2b2; stroke-width: 0.5"/>
     </g>
     <g id="line2d_38">
      <g>
       <use xlink:href="#m6bdbd6314b" x="141.12" y="354.165517" style="stroke: #000000; stroke-width: 0.8"/>
      </g>
     </g>
    </g>
    <g id="xtick_14">
     <g id="line2d_39">
      <path d="M 302.4 354.165517 
L 302.4 261.434483 
" clip-path="url(#p467d0c6a44)" style="fill: none; stroke-dasharray: 1.85,0.8; stroke-dashoffset: 0; stroke: #b2b2b2; stroke-width: 0.5"/>
     </g>
     <g id="line2d_40">
      <g>
       <use xlink:href="#m6bdbd6314b" x="302.4" y="354.165517" style="stroke: #000000; stroke-width: 0.8"/>
      </g>
     </g>
    </g>
    <g id="xtick_15">
     <g id="line2d_41">
      <path d="M 463.68 354.165517 
L 463.68 261.434483 
" clip-path="url(#p467d0c6a44)" style="fill: none; stroke-dasharray: 1.85,0.8; stroke-dashoffset: 0; stroke: #b2b2b2; stroke-width: 0.5"/>
     </g>
     <g id="line2d_42">
      <g>
       <use xlink:href="#m6bdbd6314b" x="463.68" y="354.165517" style="stroke: #000000; stroke-width: 0.8"/>
      </g>
     </g>
    </g>
    <g id="xtick_16">
     <g id="line2d_43">
      <path d="M 624.96 354.165517 
L 624.96 261.434483 
" clip-path="url(#p467d0c6a44)" style="fill: none; stroke-dasharray: 1.85,0.8; stroke-dashoffset: 0; stroke: #b2b2b2; stroke-width: 0.5"/>
     </g>
     <g id="line2d_44">
      <g>
       <use xlink:href="#m6bdbd6314b" x="624.96" y="354.165517" style="stroke: #000000; stroke-width: 0.8"/>
      </g>
     </g>
    </g>
    <g id="xtick_17">
     <g id="line2d_45">
      <path d="M 786.24 354.165517 
L 786.24 261.434483 
" clip-path="url(#p467d0c6a44)" style="fill: none; stroke-dasharray: 1.85,0.8; stroke-dashoffset: 0; stroke: #b2b2b2; stroke-width: 0.5"/>
     </g>
     <g id="line2d_46">
      <g>
       <use xlink:href="#m6bdbd6314b" x="786.24" y="354.165517" style="stroke: #000000; stroke-width: 0.8"/>
      </g>
     </g>
    </g>
    <g id="xtick_18">
     <g id="line2d_47">
      <path d="M 947.52 354.165517 
L 947.52 261.434483 
" clip-path="url(#p467d0c6a44)" style="fill: none; stroke-dasharray: 1.85,0.8; stroke-dashoffset: 0; stroke: #b2b2b2; stroke-width: 0.5"/>
     </g>
     <g id="line2d_48">
      <g>
       <use xlink:href="#m6bdbd6314b" x="947.52" y="354.165517" style="stroke: #000000; stroke-width: 0.8"/>
      </g>
     </g>
    </g>
   </g>
   <g id="matplotlib.axis_6">
    <g id="ytick_6">
     <g id="line2d_49">
      <path d="M 100.8 347.278514 
L 987.84 347.278514 
" clip-path="url(#p467d0c6a44)" style="fill: none; stroke-dasharray: 1.85,0.8; stroke-dashoffset: 0; stroke: #b2b2b2; stroke-width: 0.5"/>
     </g>
     <g id="line2d_50">
      <g>
       <use xlink:href="#mcd7652b3c6" x="100.8" y="347.278514" style="stroke: #000000; stroke-width: 0.8"/>
      </g>
     </g>
     <g id="text_8">
      <!-- 0 V -->
      <g transform="translate(74.36625 352.59742) scale(0.14 -0.14)">
       <use xlink:href="#DejaVuSans-30"/>
       <use xlink:href="#DejaVuSans-20" x="63.623047"/>
       <use xlink:href="#DejaVuSans-56" x="95.410156"/>
      </g>
     </g>
    </g>
    <g id="ytick_7">
     <g id="line2d_51">
      <path d="M 100.8 303.059129 
L 987.84 303.059129 
" clip-path="url(#p467d0c6a44)" style="fill: none; stroke-dasharray: 1.85,0.8; stroke-dashoffset: 0; stroke: #b2b2b2; stroke-width: 0.5"/>
     </g>
     <g id="line2d_52">
      <g>
       <use xlink:href="#mcd7652b3c6" x="100.8" y="303.059129" style="stroke: #000000; stroke-width: 0.8"/>
      </g>
     </g>
     <g id="text_9">
      <!-- 1 V -->
      <g transform="translate(74.36625 308.378035) scale(0.14 -0.14)">
       <use xlink:href="#DejaVuSans-31"/>
       <use xlink:href="#DejaVuSans-20" x="63.623047"/>
       <use xlink:href="#DejaVuSans-56" x="95.410156"/>
      </g>
     </g>
    </g>
    <g id="text_10">
     <g id="patch_15">
      <path d="M 34.8768 342.395313 
L 34.8768 273.204688 
L 11.247425 273.204688 
L 11.247425 342.395313 
z
" style="fill: #ffff00; opacity: 0.2; stroke: #eeeeee; stroke-width: 0.5; stroke-linejoin: miter"/>
     </g>
     <!-- CLK BUF -->
     <g transform="translate(26.925238 337.355313) rotate(-90) scale(0.14 -0.14)">
      <defs>
       <path id="DejaVuSans-43" d="M 4122 4306 
L 4122 3641 
Q 3803 3938 3442 4084 
Q 3081 4231 2675 4231 
Q 1875 4231 1450 3742 
Q 1025 3253 1025 2328 
Q 1025 1406 1450 917 
Q 1875 428 2675 428 
Q 3081 428 3442 575 
Q 3803 722 4122 1019 
L 4122 359 
Q 3791 134 3420 21 
Q 3050 -91 2638 -91 
Q 1578 -91 968 557 
Q 359 1206 359 2328 
Q 359 3453 968 4101 
Q 1578 4750 2638 4750 
Q 3056 4750 3426 4639 
Q 3797 4528 4122 4306 
z
" transform="scale(0.015625)"/>
       <path id="DejaVuSans-4b" d="M 628 4666 
L 1259 4666 
L 1259 2694 
L 3353 4666 
L 4166 4666 
L 1850 2491 
L 4331 0 
L 3500 0 
L 1259 2247 
L 1259 0 
L 628 0 
L 628 4666 
z
" transform="scale(0.015625)"/>
      </defs>
      <use xlink:href="#DejaVuSans-43"/>
      <use xlink:href="#DejaVuSans-4c" x="69.824219"/>
      <use xlink:href="#DejaVuSans-4b" x="125.537109"/>
      <use xlink:href="#DejaVuSans-20" x="191.113281"/>
      <use xlink:href="#DejaVuSans-42" x="222.900391"/>
      <use xlink:href="#DejaVuSans-55" x="291.503906"/>
      <use xlink:href="#DejaVuSans-46" x="364.697266"/>
     </g>
    </g>
   </g>
   <g id="line2d_53">
    <path d="M 141.12 347.277345 
L 173.376 347.277345 
L 173.601792 294.215252 
L 213.696 294.215252 
L 213.760512 336.541605 
L 213.825024 347.258312 
L 213.889536 347.194678 
L 213.954048 347.37133 
L 214.01856 347.283306 
L 215.341056 347.274028 
L 223.21152 347.277325 
L 254.016 347.277314 
L 254.17728 294.051641 
L 254.241792 294.334645 
L 254.403072 294.206408 
L 254.854656 294.215252 
L 294.336 294.215252 
L 294.400512 336.504461 
L 294.465024 347.608483 
L 294.529536 346.839672 
L 294.626304 347.348005 
L 294.65856 347.316539 
L 294.852096 347.238816 
L 295.206912 347.288596 
L 295.593984 347.276323 
L 315.237888 347.277346 
L 315.431424 347.440675 
L 316.076544 348.050098 
L 316.882944 348.46859 
L 317.786112 348.698752 
L 319.398912 348.830349 
L 322.430976 348.791436 
L 333.52704 348.563308 
L 334.559232 348.865503 
L 334.656 348.909104 
L 334.688256 349.95047 
L 334.849536 325.008305 
L 334.914048 324.862381 
L 334.97856 324.90439 
L 336.43008 326.256618 
L 340.107264 329.040671 
L 341.203968 329.632326 
L 342.171648 329.122477 
L 344.49408 328.197849 
L 344.623104 328.102336 
L 344.784384 328.111179 
L 344.913408 327.985154 
L 345.074688 327.953316 
L 345.30048 327.853823 
L 345.558528 327.772017 
L 346.203648 327.527484 
L 352.041984 325.382843 
L 352.07424 325.309439 
L 352.171008 325.357196 
L 360.4608 322.402899 
L 362.138112 321.430073 
L 365.266944 319.369891 
L 370.879488 315.731963 
L 374.976 313.380376 
L 375.008256 311.251655 
L 375.201792 346.821197 
L 375.29856 346.8097 
L 376.524288 346.825044 
L 379.782144 346.843731 
L 380.072448 346.533152 
L 380.717568 345.990182 
L 381.523968 345.622056 
L 382.588416 345.405602 
L 384.201216 345.330429 
L 388.136448 345.456764 
L 399.684096 345.836431 
L 401.683968 345.797739 
L 405.6192 345.95715 
L 405.877248 346.253862 
L 406.554624 346.83946 
L 407.361024 347.231619 
L 408.393216 347.483639 
L 410.038272 347.634639 
L 413.941248 347.681176 
L 415.296 347.677589 
L 415.328256 339.586994 
L 415.45728 265.64953 
L 416.134656 265.950222 
L 418.392576 266.998221 
L 419.65056 267.564229 
L 425.94048 270.270455 
L 428.52096 271.804868 
L 429.230592 272.247062 
L 430.004736 272.684834 
L 438.004224 276.947583 
L 440.681472 278.168038 
L 441.874944 278.703092 
L 442.165248 278.800375 
L 443.261952 279.277944 
L 443.52 279.375227 
L 444.390912 279.728982 
L 451.293696 282.457318 
L 451.551744 282.559022 
L 453.293568 283.164828 
L 453.583872 283.266533 
L 454.680576 283.607022 
L 454.938624 283.708726 
L 455.616 283.916558 
L 455.77728 347.553563 
L 455.874048 347.549026 
L 458.809344 347.525718 
L 494.903808 347.360222 
L 495.936 347.357552 
L 496.09728 291.318883 
L 496.161792 291.345414 
L 496.645632 291.385212 
L 498.419712 291.51787 
L 499.64544 291.619574 
L 500.000256 291.65495 
L 501.322752 291.765498 
L 501.5808 291.787608 
L 502.096896 291.827406 
L 503.548416 291.915844 
L 504.870912 292.017549 
L 505.225728 292.048502 
L 506.806272 292.150207 
L 507.161088 292.181161 
L 508.935168 292.282865 
L 509.289984 292.313819 
L 511.160832 292.415523 
L 511.515648 292.446477 
L 513.580032 292.548181 
L 513.934848 292.579135 
L 516.192768 292.68084 
L 516.547584 292.711793 
L 519.095808 292.813498 
L 519.450624 292.844451 
L 522.192384 292.946156 
L 522.5472 292.97711 
L 525.676032 293.078814 
L 526.030848 293.109768 
L 529.64352 293.211472 
L 529.998336 293.242426 
L 534.094848 293.34413 
L 534.449664 293.375084 
L 536.256 293.419303 
L 536.288256 297.284078 
L 536.352768 347.777485 
L 536.41728 347.252794 
L 536.57856 347.301263 
L 538.481664 347.298122 
L 576.576 347.290009 
L 576.73728 293.68462 
L 576.801792 293.790746 
L 577.737216 293.773058 
L 616.896 293.773058 
L 617.025024 347.616239 
L 617.186304 347.359042 
L 617.444352 347.260472 
L 617.799168 347.308576 
L 618.121728 347.289776 
L 655.216128 347.290007 
L 657.216 347.290008 
L 657.37728 293.543118 
L 657.441792 294.042797 
L 657.53856 293.591759 
L 657.603072 293.755371 
L 658.086912 293.773058 
L 697.536 293.773058 
L 697.665024 347.616253 
L 697.826304 347.359029 
L 698.084352 347.260468 
L 698.439168 347.308596 
L 698.761728 347.289777 
L 735.501312 347.290007 
L 737.856 347.290008 
L 738.01728 293.543118 
L 738.081792 294.042797 
L 738.17856 293.587337 
L 738.243072 293.755371 
L 738.726912 293.773058 
L 778.176 293.773058 
L 778.305024 347.616191 
L 778.466304 347.359042 
L 778.724352 347.260471 
L 779.079168 347.308576 
L 779.401728 347.289776 
L 816.496128 347.290007 
L 818.496 347.290008 
L 818.65728 293.543118 
L 818.721792 294.042797 
L 818.81856 293.587337 
L 818.883072 293.755371 
L 819.366912 293.773058 
L 858.816 293.773058 
L 858.945024 347.61627 
L 859.106304 347.359033 
L 859.364352 347.260467 
L 859.719168 347.308597 
L 860.041728 347.289777 
L 896.781312 347.290007 
L 899.136 347.290008 
L 899.29728 293.543118 
L 899.361792 294.042797 
L 899.45856 293.587337 
L 899.523072 293.755371 
L 900.006912 293.773058 
L 939.456 293.773058 
L 939.488256 301.745813 
L 939.61728 347.237416 
L 939.649536 347.365993 
L 939.714048 347.24298 
L 939.746304 347.204181 
L 939.810816 347.26125 
L 940.004352 347.316469 
L 940.197888 347.289276 
L 945.487872 347.290014 
L 947.52 347.289998 
L 947.52 347.289998 
" clip-path="url(#p467d0c6a44)" style="fill: none; stroke: #0000ff; stroke-width: 2; stroke-linecap: square"/>
   </g>
   <g id="patch_16">
    <path d="M 100.8 354.165517 
L 100.8 261.434483 
" style="fill: none; stroke: #bcbcbc; stroke-width: 0.8; stroke-linejoin: miter; stroke-linecap: square"/>
   </g>
   <g id="patch_17">
    <path d="M 987.84 354.165517 
L 987.84 261.434483 
" style="fill: none; stroke: #bcbcbc; stroke-width: 0.8; stroke-linejoin: miter; stroke-linecap: square"/>
   </g>
   <g id="patch_18">
    <path d="M 100.8 354.165517 
L 987.84 354.165517 
" style="fill: none; stroke: #bcbcbc; stroke-width: 0.8; stroke-linejoin: miter; stroke-linecap: square"/>
   </g>
   <g id="patch_19">
    <path d="M 100.8 261.434483 
L 987.84 261.434483 
" style="fill: none; stroke: #bcbcbc; stroke-width: 0.8; stroke-linejoin: miter; stroke-linecap: square"/>
   </g>
  </g>
  <g id="axes_4">
   <g id="patch_20">
    <path d="M 100.8 465.442759 
L 987.84 465.442759 
L 987.84 372.711724 
L 100.8 372.711724 
z
" style="fill: #eeeeee"/>
   </g>
   <g id="matplotlib.axis_7">
    <g id="xtick_19">
     <g id="line2d_54">
      <path d="M 141.12 465.442759 
L 141.12 372.711724 
" clip-path="url(#p8c70e1573e)" style="fill: none; stroke-dasharray: 1.85,0.8; stroke-dashoffset: 0; stroke: #b2b2b2; stroke-width: 0.5"/>
     </g>
     <g id="line2d_55">
      <g>
       <use xlink:href="#m6bdbd6314b" x="141.12" y="465.442759" style="stroke: #000000; stroke-width: 0.8"/>
      </g>
     </g>
    </g>
    <g id="xtick_20">
     <g id="line2d_56">
      <path d="M 302.4 465.442759 
L 302.4 372.711724 
" clip-path="url(#p8c70e1573e)" style="fill: none; stroke-dasharray: 1.85,0.8; stroke-dashoffset: 0; stroke: #b2b2b2; stroke-width: 0.5"/>
     </g>
     <g id="line2d_57">
      <g>
       <use xlink:href="#m6bdbd6314b" x="302.4" y="465.442759" style="stroke: #000000; stroke-width: 0.8"/>
      </g>
     </g>
    </g>
    <g id="xtick_21">
     <g id="line2d_58">
      <path d="M 463.68 465.442759 
L 463.68 372.711724 
" clip-path="url(#p8c70e1573e)" style="fill: none; stroke-dasharray: 1.85,0.8; stroke-dashoffset: 0; stroke: #b2b2b2; stroke-width: 0.5"/>
     </g>
     <g id="line2d_59">
      <g>
       <use xlink:href="#m6bdbd6314b" x="463.68" y="465.442759" style="stroke: #000000; stroke-width: 0.8"/>
      </g>
     </g>
    </g>
    <g id="xtick_22">
     <g id="line2d_60">
      <path d="M 624.96 465.442759 
L 624.96 372.711724 
" clip-path="url(#p8c70e1573e)" style="fill: none; stroke-dasharray: 1.85,0.8; stroke-dashoffset: 0; stroke: #b2b2b2; stroke-width: 0.5"/>
     </g>
     <g id="line2d_61">
      <g>
       <use xlink:href="#m6bdbd6314b" x="624.96" y="465.442759" style="stroke: #000000; stroke-width: 0.8"/>
      </g>
     </g>
    </g>
    <g id="xtick_23">
     <g id="line2d_62">
      <path d="M 786.24 465.442759 
L 786.24 372.711724 
" clip-path="url(#p8c70e1573e)" style="fill: none; stroke-dasharray: 1.85,0.8; stroke-dashoffset: 0; stroke: #b2b2b2; stroke-width: 0.5"/>
     </g>
     <g id="line2d_63">
      <g>
       <use xlink:href="#m6bdbd6314b" x="786.24" y="465.442759" style="stroke: #000000; stroke-width: 0.8"/>
      </g>
     </g>
    </g>
    <g id="xtick_24">
     <g id="line2d_64">
      <path d="M 947.52 465.442759 
L 947.52 372.711724 
" clip-path="url(#p8c70e1573e)" style="fill: none; stroke-dasharray: 1.85,0.8; stroke-dashoffset: 0; stroke: #b2b2b2; stroke-width: 0.5"/>
     </g>
     <g id="line2d_65">
      <g>
       <use xlink:href="#m6bdbd6314b" x="947.52" y="465.442759" style="stroke: #000000; stroke-width: 0.8"/>
      </g>
     </g>
    </g>
   </g>
   <g id="matplotlib.axis_8">
    <g id="ytick_8">
     <g id="line2d_66">
      <path d="M 100.8 442.003071 
L 987.84 442.003071 
" clip-path="url(#p8c70e1573e)" style="fill: none; stroke-dasharray: 1.85,0.8; stroke-dashoffset: 0; stroke: #b2b2b2; stroke-width: 0.5"/>
     </g>
     <g id="line2d_67">
      <g>
       <use xlink:href="#mcd7652b3c6" x="100.8" y="442.003071" style="stroke: #000000; stroke-width: 0.8"/>
      </g>
     </g>
     <g id="text_11">
      <!-- 0 V -->
      <g transform="translate(74.36625 447.321977) scale(0.14 -0.14)">
       <use xlink:href="#DejaVuSans-30"/>
       <use xlink:href="#DejaVuSans-20" x="63.623047"/>
       <use xlink:href="#DejaVuSans-56" x="95.410156"/>
      </g>
     </g>
    </g>
    <g id="ytick_9">
     <g id="line2d_68">
      <path d="M 100.8 408.340594 
L 987.84 408.340594 
" clip-path="url(#p8c70e1573e)" style="fill: none; stroke-dasharray: 1.85,0.8; stroke-dashoffset: 0; stroke: #b2b2b2; stroke-width: 0.5"/>
     </g>
     <g id="line2d_69">
      <g>
       <use xlink:href="#mcd7652b3c6" x="100.8" y="408.340594" style="stroke: #000000; stroke-width: 0.8"/>
      </g>
     </g>
     <g id="text_12">
      <!-- 1 V -->
      <g transform="translate(74.36625 413.659501) scale(0.14 -0.14)">
       <use xlink:href="#DejaVuSans-31"/>
       <use xlink:href="#DejaVuSans-20" x="63.623047"/>
       <use xlink:href="#DejaVuSans-56" x="95.410156"/>
      </g>
     </g>
    </g>
    <g id="ytick_10">
     <g id="line2d_70">
      <path d="M 100.8 374.678118 
L 987.84 374.678118 
" clip-path="url(#p8c70e1573e)" style="fill: none; stroke-dasharray: 1.85,0.8; stroke-dashoffset: 0; stroke: #b2b2b2; stroke-width: 0.5"/>
     </g>
     <g id="line2d_71">
      <g>
       <use xlink:href="#mcd7652b3c6" x="100.8" y="374.678118" style="stroke: #000000; stroke-width: 0.8"/>
      </g>
     </g>
     <g id="text_13">
      <!-- 2 V -->
      <g transform="translate(74.36625 379.997024) scale(0.14 -0.14)">
       <use xlink:href="#DejaVuSans-32"/>
       <use xlink:href="#DejaVuSans-20" x="63.623047"/>
       <use xlink:href="#DejaVuSans-56" x="95.410156"/>
      </g>
     </g>
    </g>
    <g id="text_14">
     <g id="patch_21">
      <path d="M 34.8768 454.693023 
L 34.8768 383.46146 
L 11.247425 383.46146 
L 11.247425 454.693023 
z
" style="fill: #ffff00; opacity: 0.2; stroke: #eeeeee; stroke-width: 0.5; stroke-linejoin: miter"/>
     </g>
     <!-- DFF OUT -->
     <g transform="translate(26.925238 449.653023) rotate(-90) scale(0.14 -0.14)">
      <defs>
       <path id="DejaVuSans-4f" d="M 2522 4238 
Q 1834 4238 1429 3725 
Q 1025 3213 1025 2328 
Q 1025 1447 1429 934 
Q 1834 422 2522 422 
Q 3209 422 3611 934 
Q 4013 1447 4013 2328 
Q 4013 3213 3611 3725 
Q 3209 4238 2522 4238 
z
M 2522 4750 
Q 3503 4750 4090 4092 
Q 4678 3434 4678 2328 
Q 4678 1225 4090 567 
Q 3503 -91 2522 -91 
Q 1538 -91 948 565 
Q 359 1222 359 2328 
Q 359 3434 948 4092 
Q 1538 4750 2522 4750 
z
" transform="scale(0.015625)"/>
       <path id="DejaVuSans-54" d="M -19 4666 
L 3928 4666 
L 3928 4134 
L 2272 4134 
L 2272 0 
L 1638 0 
L 1638 4134 
L -19 4134 
L -19 4666 
z
" transform="scale(0.015625)"/>
      </defs>
      <use xlink:href="#DejaVuSans-44"/>
      <use xlink:href="#DejaVuSans-46" x="77.001953"/>
      <use xlink:href="#DejaVuSans-46" x="134.521484"/>
      <use xlink:href="#DejaVuSans-20" x="192.041016"/>
      <use xlink:href="#DejaVuSans-4f" x="223.828125"/>
      <use xlink:href="#DejaVuSans-55" x="302.539062"/>
      <use xlink:href="#DejaVuSans-54" x="375.732422"/>
     </g>
    </g>
   </g>
   <g id="line2d_72">
    <path d="M 141.12 416.603723 
L 173.408256 416.644791 
L 173.440512 418.038417 
L 173.601792 442.005126 
L 174.214656 442.002112 
L 186.213888 442.002163 
L 254.048256 442.003584 
L 254.080512 442.138152 
L 254.112768 441.915559 
L 254.306304 438.629081 
L 254.628864 437.874032 
L 254.693376 437.500378 
L 255.14496 431.602712 
L 255.370752 417.741178 
L 255.596544 401.934625 
L 255.757824 401.658593 
L 255.983616 401.604733 
L 257.08032 401.608099 
L 295.690752 401.645128 
L 295.9488 402.257785 
L 296.077824 403.66151 
L 296.142336 403.654778 
L 296.368128 403.536959 
L 297.658368 402.21739 
L 298.561536 401.692255 
L 300.271104 401.62493 
L 315.431424 401.725918 
L 318.076416 404.930586 
L 320.882688 408.835433 
L 323.463168 412.505316 
L 324.108288 414.088799 
L 324.301824 414.370554 
L 324.430848 414.834759 
L 324.753408 416.071519 
L 325.075968 417.210994 
L 326.075904 421.172731 
L 326.140416 421.343736 
L 327.979008 428.697977 
L 329.17248 434.24993 
L 329.204736 434.175199 
L 329.398272 435.004306 
L 330.333696 438.140639 
L 330.365952 438.113372 
L 330.688512 439.331314 
L 330.753024 438.893668 
L 330.78528 438.936756 
L 330.94656 440.137362 
L 332.785152 445.910275 
L 332.817408 445.731864 
L 332.849664 445.755427 
L 332.978688 446.353273 
L 333.010944 446.063102 
L 333.075456 446.142883 
L 333.268992 446.873695 
L 333.301248 446.69562 
L 333.36576 446.876725 
L 333.720576 447.940459 
L 333.946368 448.317815 
L 334.236672 448.806594 
L 334.268928 448.590818 
L 334.33344 448.900513 
L 334.365696 448.714023 
L 334.430208 448.81602 
L 334.656 449.201119 
L 334.752768 449.727936 
L 334.785024 449.474794 
L 335.010816 450.237923 
L 335.333376 450.90343 
L 336.043008 452.320957 
L 337.0752 454.30839 
L 337.107456 454.1697 
L 337.139712 454.367972 
L 337.333248 454.791783 
L 338.52672 456.943488 
L 341.139456 461.150625 
L 341.236224 461.111576 
L 341.26848 461.227712 
L 341.332992 461.182941 
L 341.558784 460.773941 
L 342.300672 459.679574 
L 342.461952 459.263506 
L 342.913536 458.657582 
L 342.945792 458.673403 
L 342.978048 458.567366 
L 343.04256 458.516536 
L 343.236096 457.730517 
L 343.268352 458.234444 
L 343.332864 457.872236 
L 343.429632 457.991064 
L 343.494144 457.896136 
L 344.429568 456.731751 
L 344.461824 456.876163 
L 344.526336 456.792344 
L 346.010112 455.183614 
L 346.042368 455.280225 
L 346.171392 454.928452 
L 346.42944 454.808614 
L 346.59072 454.54268 
L 347.07456 454.118197 
L 347.106816 454.287855 
L 347.139072 454.075109 
L 347.171328 454.00913 
L 347.203584 454.197977 
L 347.23584 453.984556 
L 347.268096 454.070396 
L 348.171264 453.345979 
L 348.816384 452.500378 
L 348.945408 452.654215 
L 349.074432 452.255315 
L 349.590528 451.831504 
L 349.848576 451.645688 
L 349.913088 451.78505 
L 350.042112 451.512048 
L 350.429184 451.382784 
L 351.009792 450.904103 
L 351.719424 449.960207 
L 351.848448 450.024839 
L 351.977472 449.854844 
L 352.041984 449.782806 
L 352.23552 449.51216 
L 352.751616 449.199435 
L 353.138688 449.092052 
L 354.041856 448.326231 
L 354.203136 448.188888 
L 354.267648 447.810522 
L 354.33216 447.843511 
L 354.461184 447.622685 
L 354.590208 447.530786 
L 354.65472 447.759691 
L 354.719232 447.408592 
L 354.783744 447.494431 
L 354.848256 447.650288 
L 354.945024 447.246339 
L 354.97728 447.372909 
L 355.074048 447.128856 
L 355.041792 447.499144 
L 355.106304 447.136599 
L 355.203072 447.07365 
L 355.235328 447.389067 
L 355.267584 447.058839 
L 355.29984 447.240279 
L 355.364352 446.929911 
L 355.396608 446.956841 
L 355.428864 447.251725 
L 355.46112 446.898605 
L 355.525632 447.162519 
L 355.654656 446.818488 
L 355.686912 446.822528 
L 355.719168 447.029552 
L 355.78368 446.892546 
L 355.815936 446.911734 
L 355.94496 446.768668 
L 356.525568 446.45628 
L 356.977152 446.096765 
L 357.428736 445.497236 
L 357.590016 445.165896 
L 357.783552 444.95527 
L 357.848064 445.377061 
L 357.912576 445.327409 
L 357.944832 444.795542 
L 358.009344 445.076388 
L 358.0416 445.132638 
L 358.170624 444.681897 
L 358.20288 444.688462 
L 358.235136 445.073392 
L 358.267392 444.600098 
L 358.299648 444.917737 
L 358.493184 444.511498 
L 358.557696 444.484029 
L 358.622208 444.777499 
L 358.68672 444.718051 
L 358.815744 444.546911 
L 358.944768 444.39442 
L 359.106048 444.376141 
L 359.880192 443.785196 
L 360.815616 442.845576 
L 360.880128 442.760948 
L 360.976896 442.097326 
L 361.041408 442.367636 
L 361.073664 442.442535 
L 361.138176 442.019586 
L 361.202688 442.09706 
L 361.299456 442.168825 
L 361.460736 441.938466 
L 362.299392 440.670845 
L 362.39616 439.976422 
L 362.428416 439.989651 
L 362.55744 439.814876 
L 362.589696 440.245351 
L 362.621952 439.757077 
L 362.654208 439.892703 
L 362.71872 439.808076 
L 362.750976 439.925053 
L 362.976768 439.647842 
L 364.073472 437.915437 
L 364.105728 437.485567 
L 364.202496 437.533031 
L 364.33152 437.445172 
L 367.266816 433.054912 
L 367.460352 432.594409 
L 367.686144 432.170262 
L 367.847424 431.937317 
L 367.87968 432.119768 
L 367.911936 431.869992 
L 368.04096 431.671047 
L 368.073216 431.776411 
L 368.105472 431.881774 
L 368.137728 431.608098 
L 368.815104 430.929126 
L 369.137664 430.371002 
L 369.3312 429.597102 
L 369.427968 429.430809 
L 369.460224 429.623022 
L 369.524736 429.362811 
L 369.65376 429.036285 
L 369.686016 429.097214 
L 369.718272 429.088799 
L 369.944064 428.579822 
L 370.944 426.504194 
L 371.879424 425.13817 
L 372.750336 423.773157 
L 372.782592 423.353049 
L 372.87936 423.487699 
L 372.943872 423.554351 
L 372.976128 423.493422 
L 373.621248 422.499369 
L 374.556672 421.346766 
L 374.685696 421.238036 
L 375.008256 420.763395 
L 375.072768 420.911173 
L 375.13728 420.994656 
L 375.169536 420.908143 
L 375.524352 420.045711 
L 377.943552 417.191469 
L 378.330624 416.94405 
L 379.878912 415.338687 
L 381.233664 412.236689 
L 384.00768 407.509131 
L 386.975232 402.469858 
L 388.20096 400.487139 
L 389.297664 398.766986 
L 390.329856 397.188216 
L 391.136256 395.973 
L 393.652224 392.374482 
L 395.523072 389.836331 
L 398.135808 386.47345 
L 399.619584 384.601816 
L 402.812928 380.454599 
L 403.490304 379.596206 
L 404.296704 378.609895 
L 405.844992 376.994096 
L 407.812608 377.101816 
L 412.263936 378.609895 
L 414.908928 379.596206 
L 415.328256 379.734222 
L 415.360512 379.946295 
L 415.425024 379.761152 
L 417.779712 380.626277 
L 425.45664 383.144231 
L 425.908224 383.349572 
L 426.714624 383.716493 
L 427.166208 383.921834 
L 427.972608 384.288755 
L 428.714496 384.62538 
L 439.100928 388.843288 
L 446.358528 391.229958 
L 447.293952 391.512722 
L 447.681024 391.623808 
L 451.648512 392.758234 
L 452.035584 392.86932 
L 453.970944 393.364159 
L 454.454784 393.475245 
L 455.648256 393.774841 
L 455.680512 393.670487 
L 455.745024 393.832067 
L 455.970816 393.835433 
L 457.39008 394.172058 
L 457.841664 394.279778 
L 458.486784 394.437992 
L 459.615744 394.66353 
L 460.77696 394.912632 
L 461.325312 395.023719 
L 462.292992 395.215595 
L 462.8736 395.326681 
L 463.84128 395.518557 
L 464.421888 395.626277 
L 464.905728 395.720532 
L 465.583104 395.828252 
L 466.066944 395.922507 
L 466.74432 396.030227 
L 467.22816 396.124482 
L 467.905536 396.232202 
L 468.389376 396.326456 
L 469.066752 396.434176 
L 469.48608 396.494769 
L 470.1312 396.602489 
L 470.550528 396.663081 
L 471.292416 396.770801 
L 471.776256 396.865056 
L 472.647168 396.972776 
L 473.131008 397.067031 
L 474.00192 397.174751 
L 474.421248 397.235343 
L 475.259904 397.343063 
L 475.905024 397.437318 
L 476.808192 397.545038 
L 477.453312 397.639293 
L 478.453248 397.747013 
L 479.098368 397.841268 
L 480.098304 397.948988 
L 480.743424 398.039877 
L 491.516928 399.053117 
L 492.87168 399.160837 
L 493.420032 399.221429 
L 495.097344 399.329149 
L 495.548928 399.356079 
L 496.355328 399.413306 
L 497.968128 399.524392 
L 498.806784 399.591717 
L 500.709888 399.699437 
L 501.161472 399.726367 
L 503.03232 399.834087 
L 503.483904 399.861017 
L 504.16128 399.894679 
L 504.999936 399.962004 
L 505.77408 399.9923 
L 507.838464 400.096654 
L 510.386688 400.204374 
L 510.806016 400.227938 
L 513.580032 400.339024 
L 514.031616 400.365954 
L 514.773504 400.399616 
L 518.03136 400.507336 
L 518.450688 400.5309 
L 522.192384 400.641986 
L 522.643968 400.668916 
L 523.418112 400.699212 
L 528.288768 400.810298 
L 528.740352 400.837228 
L 529.64352 400.843961 
L 530.062848 400.867525 
L 535.739904 400.978611 
L 536.159232 401.002175 
L 543.384576 401.113261 
L 543.83616 401.140191 
L 544.932864 401.136824 
L 553.545216 401.247911 
L 553.964544 401.271474 
L 576.608256 401.284939 
L 576.640512 401.399392 
L 576.705024 401.244544 
L 577.027584 401.264742 
L 657.248256 401.268108 
L 657.280512 401.439787 
L 657.345024 401.268108 
L 657.570816 401.254643 
L 657.957888 401.261376 
L 737.888256 401.268108 
L 737.920512 401.439787 
L 737.985024 401.268108 
L 738.210816 401.254643 
L 738.597888 401.261376 
L 818.528256 401.268108 
L 818.560512 401.439787 
L 818.625024 401.268108 
L 818.850816 401.254643 
L 819.237888 401.261376 
L 899.168256 401.268108 
L 899.200512 401.439787 
L 899.265024 401.268108 
L 899.490816 401.254643 
L 899.877888 401.261376 
L 947.52 401.271474 
L 947.52 401.271474 
" clip-path="url(#p8c70e1573e)" style="fill: none; stroke: #ff00ff; stroke-width: 2; stroke-linecap: square"/>
   </g>
   <g id="patch_22">
    <path d="M 100.8 465.442759 
L 100.8 372.711724 
" style="fill: none; stroke: #bcbcbc; stroke-width: 0.8; stroke-linejoin: miter; stroke-linecap: square"/>
   </g>
   <g id="patch_23">
    <path d="M 987.84 465.442759 
L 987.84 372.711724 
" style="fill: none; stroke: #bcbcbc; stroke-width: 0.8; stroke-linejoin: miter; stroke-linecap: square"/>
   </g>
   <g id="patch_24">
    <path d="M 100.8 465.442759 
L 987.84 465.442759 
" style="fill: none; stroke: #bcbcbc; stroke-width: 0.8; stroke-linejoin: miter; stroke-linecap: square"/>
   </g>
   <g id="patch_25">
    <path d="M 100.8 372.711724 
L 987.84 372.711724 
" style="fill: none; stroke: #bcbcbc; stroke-width: 0.8; stroke-linejoin: miter; stroke-linecap: square"/>
   </g>
  </g>
  <g id="axes_5">
   <g id="patch_26">
    <path d="M 100.8 576.72 
L 987.84 576.72 
L 987.84 483.988966 
L 100.8 483.988966 
z
" style="fill: #eeeeee"/>
   </g>
   <g id="matplotlib.axis_9">
    <g id="xtick_25">
     <g id="line2d_73">
      <path d="M 141.12 576.72 
L 141.12 483.988966 
" clip-path="url(#padd6924cbd)" style="fill: none; stroke-dasharray: 1.85,0.8; stroke-dashoffset: 0; stroke: #b2b2b2; stroke-width: 0.5"/>
     </g>
     <g id="line2d_74">
      <g>
       <use xlink:href="#m6bdbd6314b" x="141.12" y="576.72" style="stroke: #000000; stroke-width: 0.8"/>
      </g>
     </g>
     <g id="text_15">
      <!-- 0 s -->
      <g transform="translate(130.795 590.857813) scale(0.14 -0.14)">
       <defs>
        <path id="DejaVuSans-73" d="M 2834 3397 
L 2834 2853 
Q 2591 2978 2328 3040 
Q 2066 3103 1784 3103 
Q 1356 3103 1142 2972 
Q 928 2841 928 2578 
Q 928 2378 1081 2264 
Q 1234 2150 1697 2047 
L 1894 2003 
Q 2506 1872 2764 1633 
Q 3022 1394 3022 966 
Q 3022 478 2636 193 
Q 2250 -91 1575 -91 
Q 1294 -91 989 -36 
Q 684 19 347 128 
L 347 722 
Q 666 556 975 473 
Q 1284 391 1588 391 
Q 1994 391 2212 530 
Q 2431 669 2431 922 
Q 2431 1156 2273 1281 
Q 2116 1406 1581 1522 
L 1381 1569 
Q 847 1681 609 1914 
Q 372 2147 372 2553 
Q 372 3047 722 3315 
Q 1072 3584 1716 3584 
Q 2034 3584 2315 3537 
Q 2597 3491 2834 3397 
z
" transform="scale(0.015625)"/>
       </defs>
       <use xlink:href="#DejaVuSans-30"/>
       <use xlink:href="#DejaVuSans-20" x="63.623047"/>
       <use xlink:href="#DejaVuSans-73" x="95.410156"/>
      </g>
     </g>
    </g>
    <g id="xtick_26">
     <g id="line2d_75">
      <path d="M 302.4 576.72 
L 302.4 483.988966 
" clip-path="url(#padd6924cbd)" style="fill: none; stroke-dasharray: 1.85,0.8; stroke-dashoffset: 0; stroke: #b2b2b2; stroke-width: 0.5"/>
     </g>
     <g id="line2d_76">
      <g>
       <use xlink:href="#m6bdbd6314b" x="302.4" y="576.72" style="stroke: #000000; stroke-width: 0.8"/>
      </g>
     </g>
     <g id="text_16">
      <!-- 50 ns -->
      <g transform="translate(283.185 590.857813) scale(0.14 -0.14)">
       <defs>
        <path id="DejaVuSans-35" d="M 691 4666 
L 3169 4666 
L 3169 4134 
L 1269 4134 
L 1269 2991 
Q 1406 3038 1543 3061 
Q 1681 3084 1819 3084 
Q 2600 3084 3056 2656 
Q 3513 2228 3513 1497 
Q 3513 744 3044 326 
Q 2575 -91 1722 -91 
Q 1428 -91 1123 -41 
Q 819 9 494 109 
L 494 744 
Q 775 591 1075 516 
Q 1375 441 1709 441 
Q 2250 441 2565 725 
Q 2881 1009 2881 1497 
Q 2881 1984 2565 2268 
Q 2250 2553 1709 2553 
Q 1456 2553 1204 2497 
Q 953 2441 691 2322 
L 691 4666 
z
" transform="scale(0.015625)"/>
        <path id="DejaVuSans-6e" d="M 3513 2113 
L 3513 0 
L 2938 0 
L 2938 2094 
Q 2938 2591 2744 2837 
Q 2550 3084 2163 3084 
Q 1697 3084 1428 2787 
Q 1159 2491 1159 1978 
L 1159 0 
L 581 0 
L 581 3500 
L 1159 3500 
L 1159 2956 
Q 1366 3272 1645 3428 
Q 1925 3584 2291 3584 
Q 2894 3584 3203 3211 
Q 3513 2838 3513 2113 
z
" transform="scale(0.015625)"/>
       </defs>
       <use xlink:href="#DejaVuSans-35"/>
       <use xlink:href="#DejaVuSans-30" x="63.623047"/>
       <use xlink:href="#DejaVuSans-20" x="127.246094"/>
       <use xlink:href="#DejaVuSans-6e" x="159.033203"/>
       <use xlink:href="#DejaVuSans-73" x="222.412109"/>
      </g>
     </g>
    </g>
    <g id="xtick_27">
     <g id="line2d_77">
      <path d="M 463.68 576.72 
L 463.68 483.988966 
" clip-path="url(#padd6924cbd)" style="fill: none; stroke-dasharray: 1.85,0.8; stroke-dashoffset: 0; stroke: #b2b2b2; stroke-width: 0.5"/>
     </g>
     <g id="line2d_78">
      <g>
       <use xlink:href="#m6bdbd6314b" x="463.68" y="576.72" style="stroke: #000000; stroke-width: 0.8"/>
      </g>
     </g>
     <g id="text_17">
      <!-- 100 ns -->
      <g transform="translate(440.01125 590.857813) scale(0.14 -0.14)">
       <use xlink:href="#DejaVuSans-31"/>
       <use xlink:href="#DejaVuSans-30" x="63.623047"/>
       <use xlink:href="#DejaVuSans-30" x="127.246094"/>
       <use xlink:href="#DejaVuSans-20" x="190.869141"/>
       <use xlink:href="#DejaVuSans-6e" x="222.65625"/>
       <use xlink:href="#DejaVuSans-73" x="286.035156"/>
      </g>
     </g>
    </g>
    <g id="xtick_28">
     <g id="line2d_79">
      <path d="M 624.96 576.72 
L 624.96 483.988966 
" clip-path="url(#padd6924cbd)" style="fill: none; stroke-dasharray: 1.85,0.8; stroke-dashoffset: 0; stroke: #b2b2b2; stroke-width: 0.5"/>
     </g>
     <g id="line2d_80">
      <g>
       <use xlink:href="#m6bdbd6314b" x="624.96" y="576.72" style="stroke: #000000; stroke-width: 0.8"/>
      </g>
     </g>
     <g id="text_18">
      <!-- 150 ns -->
      <g transform="translate(601.29125 590.857813) scale(0.14 -0.14)">
       <use xlink:href="#DejaVuSans-31"/>
       <use xlink:href="#DejaVuSans-35" x="63.623047"/>
       <use xlink:href="#DejaVuSans-30" x="127.246094"/>
       <use xlink:href="#DejaVuSans-20" x="190.869141"/>
       <use xlink:href="#DejaVuSans-6e" x="222.65625"/>
       <use xlink:href="#DejaVuSans-73" x="286.035156"/>
      </g>
     </g>
    </g>
    <g id="xtick_29">
     <g id="line2d_81">
      <path d="M 786.24 576.72 
L 786.24 483.988966 
" clip-path="url(#padd6924cbd)" style="fill: none; stroke-dasharray: 1.85,0.8; stroke-dashoffset: 0; stroke: #b2b2b2; stroke-width: 0.5"/>
     </g>
     <g id="line2d_82">
      <g>
       <use xlink:href="#m6bdbd6314b" x="786.24" y="576.72" style="stroke: #000000; stroke-width: 0.8"/>
      </g>
     </g>
     <g id="text_19">
      <!-- 200 ns -->
      <g transform="translate(762.57125 590.857813) scale(0.14 -0.14)">
       <use xlink:href="#DejaVuSans-32"/>
       <use xlink:href="#DejaVuSans-30" x="63.623047"/>
       <use xlink:href="#DejaVuSans-30" x="127.246094"/>
       <use xlink:href="#DejaVuSans-20" x="190.869141"/>
       <use xlink:href="#DejaVuSans-6e" x="222.65625"/>
       <use xlink:href="#DejaVuSans-73" x="286.035156"/>
      </g>
     </g>
    </g>
    <g id="xtick_30">
     <g id="line2d_83">
      <path d="M 947.52 576.72 
L 947.52 483.988966 
" clip-path="url(#padd6924cbd)" style="fill: none; stroke-dasharray: 1.85,0.8; stroke-dashoffset: 0; stroke: #b2b2b2; stroke-width: 0.5"/>
     </g>
     <g id="line2d_84">
      <g>
       <use xlink:href="#m6bdbd6314b" x="947.52" y="576.72" style="stroke: #000000; stroke-width: 0.8"/>
      </g>
     </g>
     <g id="text_20">
      <!-- 250 ns -->
      <g transform="translate(923.85125 590.857813) scale(0.14 -0.14)">
       <use xlink:href="#DejaVuSans-32"/>
       <use xlink:href="#DejaVuSans-35" x="63.623047"/>
       <use xlink:href="#DejaVuSans-30" x="127.246094"/>
       <use xlink:href="#DejaVuSans-20" x="190.869141"/>
       <use xlink:href="#DejaVuSans-6e" x="222.65625"/>
       <use xlink:href="#DejaVuSans-73" x="286.035156"/>
      </g>
     </g>
    </g>
    <g id="text_21">
     <!-- Time -->
     <g transform="translate(527.192969 608.407187) scale(0.14 -0.14)">
      <defs>
       <path id="DejaVuSans-69" d="M 603 3500 
L 1178 3500 
L 1178 0 
L 603 0 
L 603 3500 
z
M 603 4863 
L 1178 4863 
L 1178 4134 
L 603 4134 
L 603 4863 
z
" transform="scale(0.015625)"/>
       <path id="DejaVuSans-6d" d="M 3328 2828 
Q 3544 3216 3844 3400 
Q 4144 3584 4550 3584 
Q 5097 3584 5394 3201 
Q 5691 2819 5691 2113 
L 5691 0 
L 5113 0 
L 5113 2094 
Q 5113 2597 4934 2840 
Q 4756 3084 4391 3084 
Q 3944 3084 3684 2787 
Q 3425 2491 3425 1978 
L 3425 0 
L 2847 0 
L 2847 2094 
Q 2847 2600 2669 2842 
Q 2491 3084 2119 3084 
Q 1678 3084 1418 2786 
Q 1159 2488 1159 1978 
L 1159 0 
L 581 0 
L 581 3500 
L 1159 3500 
L 1159 2956 
Q 1356 3278 1631 3431 
Q 1906 3584 2284 3584 
Q 2666 3584 2933 3390 
Q 3200 3197 3328 2828 
z
" transform="scale(0.015625)"/>
       <path id="DejaVuSans-65" d="M 3597 1894 
L 3597 1613 
L 953 1613 
Q 991 1019 1311 708 
Q 1631 397 2203 397 
Q 2534 397 2845 478 
Q 3156 559 3463 722 
L 3463 178 
Q 3153 47 2828 -22 
Q 2503 -91 2169 -91 
Q 1331 -91 842 396 
Q 353 884 353 1716 
Q 353 2575 817 3079 
Q 1281 3584 2069 3584 
Q 2775 3584 3186 3129 
Q 3597 2675 3597 1894 
z
M 3022 2063 
Q 3016 2534 2758 2815 
Q 2500 3097 2075 3097 
Q 1594 3097 1305 2825 
Q 1016 2553 972 2059 
L 3022 2063 
z
" transform="scale(0.015625)"/>
      </defs>
      <use xlink:href="#DejaVuSans-54"/>
      <use xlink:href="#DejaVuSans-69" x="57.958984"/>
      <use xlink:href="#DejaVuSans-6d" x="85.742188"/>
      <use xlink:href="#DejaVuSans-65" x="183.154297"/>
     </g>
    </g>
   </g>
   <g id="matplotlib.axis_10">
    <g id="ytick_11">
     <g id="line2d_85">
      <path d="M 100.8 569.740566 
L 987.84 569.740566 
" clip-path="url(#padd6924cbd)" style="fill: none; stroke-dasharray: 1.85,0.8; stroke-dashoffset: 0; stroke: #b2b2b2; stroke-width: 0.5"/>
     </g>
     <g id="line2d_86">
      <g>
       <use xlink:href="#mcd7652b3c6" x="100.8" y="569.740566" style="stroke: #000000; stroke-width: 0.8"/>
      </g>
     </g>
     <g id="text_22">
      <!-- 0 V -->
      <g transform="translate(74.36625 575.059472) scale(0.14 -0.14)">
       <use xlink:href="#DejaVuSans-30"/>
       <use xlink:href="#DejaVuSans-20" x="63.623047"/>
       <use xlink:href="#DejaVuSans-56" x="95.410156"/>
      </g>
     </g>
    </g>
    <g id="ytick_12">
     <g id="line2d_87">
      <path d="M 100.8 535.879871 
L 987.84 535.879871 
" clip-path="url(#padd6924cbd)" style="fill: none; stroke-dasharray: 1.85,0.8; stroke-dashoffset: 0; stroke: #b2b2b2; stroke-width: 0.5"/>
     </g>
     <g id="line2d_88">
      <g>
       <use xlink:href="#mcd7652b3c6" x="100.8" y="535.879871" style="stroke: #000000; stroke-width: 0.8"/>
      </g>
     </g>
     <g id="text_23">
      <!-- 500 mV -->
      <g transform="translate(42.914375 541.198777) scale(0.14 -0.14)">
       <use xlink:href="#DejaVuSans-35"/>
       <use xlink:href="#DejaVuSans-30" x="63.623047"/>
       <use xlink:href="#DejaVuSans-30" x="127.246094"/>
       <use xlink:href="#DejaVuSans-20" x="190.869141"/>
       <use xlink:href="#DejaVuSans-6d" x="222.65625"/>
       <use xlink:href="#DejaVuSans-56" x="320.068359"/>
      </g>
     </g>
    </g>
    <g id="ytick_13">
     <g id="line2d_89">
      <path d="M 100.8 502.019176 
L 987.84 502.019176 
" clip-path="url(#padd6924cbd)" style="fill: none; stroke-dasharray: 1.85,0.8; stroke-dashoffset: 0; stroke: #b2b2b2; stroke-width: 0.5"/>
     </g>
     <g id="line2d_90">
      <g>
       <use xlink:href="#mcd7652b3c6" x="100.8" y="502.019176" style="stroke: #000000; stroke-width: 0.8"/>
      </g>
     </g>
     <g id="text_24">
      <!-- 1 V -->
      <g transform="translate(74.36625 507.338082) scale(0.14 -0.14)">
       <use xlink:href="#DejaVuSans-31"/>
       <use xlink:href="#DejaVuSans-20" x="63.623047"/>
       <use xlink:href="#DejaVuSans-56" x="95.410156"/>
      </g>
     </g>
    </g>
    <g id="text_25">
     <g id="patch_27">
      <path d="M 34.8768 554.329483 
L 34.8768 506.379483 
L 11.247425 506.379483 
L 11.247425 554.329483 
z
" style="fill: #ffff00; opacity: 0.2; stroke: #eeeeee; stroke-width: 0.5; stroke-linejoin: miter"/>
     </g>
     <!-- FOUT -->
     <g transform="translate(26.925238 549.289483) rotate(-90) scale(0.14 -0.14)">
      <use xlink:href="#DejaVuSans-46"/>
      <use xlink:href="#DejaVuSans-4f" x="57.519531"/>
      <use xlink:href="#DejaVuSans-55" x="136.230469"/>
      <use xlink:href="#DejaVuSans-54" x="209.423828"/>
     </g>
    </g>
   </g>
   <g id="line2d_91">
    <path d="M 141.12 488.474898 
L 173.472768 488.48167 
L 173.505024 488.285278 
L 173.569536 526.701591 
L 173.69856 572.504953 
L 173.730816 572.369239 
L 173.827584 567.833125 
L 173.892096 569.354838 
L 174.053376 570.059486 
L 174.117888 569.941732 
L 174.408192 569.486245 
L 174.440448 569.535797 
L 174.66624 569.724604 
L 176.182272 569.73482 
L 180.117504 569.75616 
L 193.503744 569.747249 
L 212.921856 569.738688 
L 255.30624 569.73838 
L 255.6288 488.366544 
L 255.854592 488.508759 
L 256.209408 488.468126 
L 326.721024 488.359772 
L 326.75328 488.204013 
L 326.785536 488.840594 
L 326.850048 519.170972 
L 326.979072 570.054712 
L 327.011328 569.770403 
L 327.204864 569.740336 
L 328.462848 569.738909 
L 373.169664 569.811091 
L 373.20192 569.844836 
L 373.266432 568.194487 
L 373.3632 525.805637 
L 373.52448 488.827049 
L 373.653504 488.48167 
L 947.52 488.474898 
L 947.52 488.474898 
" clip-path="url(#padd6924cbd)" style="fill: none; stroke: #ff00ff; stroke-width: 2; stroke-linecap: square"/>
   </g>
   <g id="patch_28">
    <path d="M 100.8 576.72 
L 100.8 483.988966 
" style="fill: none; stroke: #bcbcbc; stroke-width: 0.8; stroke-linejoin: miter; stroke-linecap: square"/>
   </g>
   <g id="patch_29">
    <path d="M 987.84 576.72 
L 987.84 483.988966 
" style="fill: none; stroke: #bcbcbc; stroke-width: 0.8; stroke-linejoin: miter; stroke-linecap: square"/>
   </g>
   <g id="patch_30">
    <path d="M 100.8 576.72 
L 987.84 576.72 
" style="fill: none; stroke: #bcbcbc; stroke-width: 0.8; stroke-linejoin: miter; stroke-linecap: square"/>
   </g>
   <g id="patch_31">
    <path d="M 100.8 483.988966 
L 987.84 483.988966 
" style="fill: none; stroke: #bcbcbc; stroke-width: 0.8; stroke-linejoin: miter; stroke-linecap: square"/>
   </g>
  </g>
  <g id="axes_6">
   <g id="patch_32">
    <path d="M 201.6 628.56 
L 856.8 628.56 
L 856.8 615.6 
L 201.6 615.6 
z
" clip-path="url(#p12c24b530d)" style="fill: #d3d3d3"/>
   </g>
   <g id="patch_33">
    <path d="M 201.6 628.56 
L 379.44 628.56 
L 379.44 615.6 
L 201.6 615.6 
z
" clip-path="url(#p12c24b530d)" style="fill: #0000ff"/>
   </g>
   <g id="line2d_92">
    <path d="M 201.6 635.04 
L 201.6 609.12 
" clip-path="url(#p2703897648)" style="fill: none; stroke: #ff0000; stroke-linecap: square"/>
   </g>
   <g id="line2d_93">
    <defs>
     <path id="mff46ec3f10" d="M 0 5 
C 1.326016 5 2.597899 4.473168 3.535534 3.535534 
C 4.473168 2.597899 5 1.326016 5 0 
C 5 -1.326016 4.473168 -2.597899 3.535534 -3.535534 
C 2.597899 -4.473168 1.326016 -5 0 -5 
C -1.326016 -5 -2.597899 -4.473168 -3.535534 -3.535534 
C -4.473168 -2.597899 -5 -1.326016 -5 0 
C -5 1.326016 -4.473168 2.597899 -3.535534 3.535534 
C -2.597899 4.473168 -1.326016 5 0 5 
z
" style="stroke: #bfbfbf"/>
    </defs>
    <g>
     <use xlink:href="#mff46ec3f10" x="379.44" y="622.08" style="fill: #ffffff; stroke: #bfbfbf"/>
    </g>
   </g>
   <g id="text_26">
    <!-- #Sweep -->
    <g transform="translate(138.622875 625.39125) scale(0.12 -0.12)">
     <defs>
      <path id="DejaVuSans-23" d="M 3272 2816 
L 2363 2816 
L 2100 1772 
L 3016 1772 
L 3272 2816 
z
M 2803 4594 
L 2478 3297 
L 3391 3297 
L 3719 4594 
L 4219 4594 
L 3897 3297 
L 4872 3297 
L 4872 2816 
L 3775 2816 
L 3519 1772 
L 4513 1772 
L 4513 1294 
L 3397 1294 
L 3072 0 
L 2572 0 
L 2894 1294 
L 1978 1294 
L 1656 0 
L 1153 0 
L 1478 1294 
L 494 1294 
L 494 1772 
L 1594 1772 
L 1856 2816 
L 850 2816 
L 850 3297 
L 1978 3297 
L 2297 4594 
L 2803 4594 
z
" transform="scale(0.015625)"/>
      <path id="DejaVuSans-77" d="M 269 3500 
L 844 3500 
L 1563 769 
L 2278 3500 
L 2956 3500 
L 3675 769 
L 4391 3500 
L 4966 3500 
L 4050 0 
L 3372 0 
L 2619 2869 
L 1863 0 
L 1184 0 
L 269 3500 
z
" transform="scale(0.015625)"/>
      <path id="DejaVuSans-70" d="M 1159 525 
L 1159 -1331 
L 581 -1331 
L 581 3500 
L 1159 3500 
L 1159 2969 
Q 1341 3281 1617 3432 
Q 1894 3584 2278 3584 
Q 2916 3584 3314 3078 
Q 3713 2572 3713 1747 
Q 3713 922 3314 415 
Q 2916 -91 2278 -91 
Q 1894 -91 1617 61 
Q 1341 213 1159 525 
z
M 3116 1747 
Q 3116 2381 2855 2742 
Q 2594 3103 2138 3103 
Q 1681 3103 1420 2742 
Q 1159 2381 1159 1747 
Q 1159 1113 1420 752 
Q 1681 391 2138 391 
Q 2594 391 2855 752 
Q 3116 1113 3116 1747 
z
" transform="scale(0.015625)"/>
     </defs>
     <use xlink:href="#DejaVuSans-23"/>
     <use xlink:href="#DejaVuSans-53" x="83.789062"/>
     <use xlink:href="#DejaVuSans-77" x="147.265625"/>
     <use xlink:href="#DejaVuSans-65" x="229.052734"/>
     <use xlink:href="#DejaVuSans-65" x="290.576172"/>
     <use xlink:href="#DejaVuSans-70" x="352.099609"/>
    </g>
   </g>
   <g id="text_27">
    <!-- $\mathdefault{38}$ -->
    <g transform="translate(869.904 625.39125) scale(0.12 -0.12)">
     <defs>
      <path id="DejaVuSans-33" d="M 2597 2516 
Q 3050 2419 3304 2112 
Q 3559 1806 3559 1356 
Q 3559 666 3084 287 
Q 2609 -91 1734 -91 
Q 1441 -91 1130 -33 
Q 819 25 488 141 
L 488 750 
Q 750 597 1062 519 
Q 1375 441 1716 441 
Q 2309 441 2620 675 
Q 2931 909 2931 1356 
Q 2931 1769 2642 2001 
Q 2353 2234 1838 2234 
L 1294 2234 
L 1294 2753 
L 1863 2753 
Q 2328 2753 2575 2939 
Q 2822 3125 2822 3475 
Q 2822 3834 2567 4026 
Q 2313 4219 1838 4219 
Q 1578 4219 1281 4162 
Q 984 4106 628 3988 
L 628 4550 
Q 988 4650 1302 4700 
Q 1616 4750 1894 4750 
Q 2613 4750 3031 4423 
Q 3450 4097 3450 3541 
Q 3450 3153 3228 2886 
Q 3006 2619 2597 2516 
z
" transform="scale(0.015625)"/>
      <path id="DejaVuSans-38" d="M 2034 2216 
Q 1584 2216 1326 1975 
Q 1069 1734 1069 1313 
Q 1069 891 1326 650 
Q 1584 409 2034 409 
Q 2484 409 2743 651 
Q 3003 894 3003 1313 
Q 3003 1734 2745 1975 
Q 2488 2216 2034 2216 
z
M 1403 2484 
Q 997 2584 770 2862 
Q 544 3141 544 3541 
Q 544 4100 942 4425 
Q 1341 4750 2034 4750 
Q 2731 4750 3128 4425 
Q 3525 4100 3525 3541 
Q 3525 3141 3298 2862 
Q 3072 2584 2669 2484 
Q 3125 2378 3379 2068 
Q 3634 1759 3634 1313 
Q 3634 634 3220 271 
Q 2806 -91 2034 -91 
Q 1263 -91 848 271 
Q 434 634 434 1313 
Q 434 1759 690 2068 
Q 947 2378 1403 2484 
z
M 1172 3481 
Q 1172 3119 1398 2916 
Q 1625 2713 2034 2713 
Q 2441 2713 2670 2916 
Q 2900 3119 2900 3481 
Q 2900 3844 2670 4047 
Q 2441 4250 2034 4250 
Q 1625 4250 1398 4047 
Q 1172 3844 1172 3481 
z
" transform="scale(0.015625)"/>
     </defs>
     <use xlink:href="#DejaVuSans-33" transform="translate(0 0.78125)"/>
     <use xlink:href="#DejaVuSans-38" transform="translate(63.623047 0.78125)"/>
    </g>
   </g>
  </g>
  <g id="text_28">
   <!-- DFF under BBI sweep analysis (Sweep = 48E-9) -->
   <g transform="translate(313.34625 25.1175) scale(0.16 -0.16)">
    <defs>
     <path id="DejaVuSans-75" d="M 544 1381 
L 544 3500 
L 1119 3500 
L 1119 1403 
Q 1119 906 1312 657 
Q 1506 409 1894 409 
Q 2359 409 2629 706 
Q 2900 1003 2900 1516 
L 2900 3500 
L 3475 3500 
L 3475 0 
L 2900 0 
L 2900 538 
Q 2691 219 2414 64 
Q 2138 -91 1772 -91 
Q 1169 -91 856 284 
Q 544 659 544 1381 
z
M 1991 3584 
L 1991 3584 
z
" transform="scale(0.015625)"/>
     <path id="DejaVuSans-64" d="M 2906 2969 
L 2906 4863 
L 3481 4863 
L 3481 0 
L 2906 0 
L 2906 525 
Q 2725 213 2448 61 
Q 2172 -91 1784 -91 
Q 1150 -91 751 415 
Q 353 922 353 1747 
Q 353 2572 751 3078 
Q 1150 3584 1784 3584 
Q 2172 3584 2448 3432 
Q 2725 3281 2906 2969 
z
M 947 1747 
Q 947 1113 1208 752 
Q 1469 391 1925 391 
Q 2381 391 2643 752 
Q 2906 1113 2906 1747 
Q 2906 2381 2643 2742 
Q 2381 3103 1925 3103 
Q 1469 3103 1208 2742 
Q 947 2381 947 1747 
z
" transform="scale(0.015625)"/>
     <path id="DejaVuSans-72" d="M 2631 2963 
Q 2534 3019 2420 3045 
Q 2306 3072 2169 3072 
Q 1681 3072 1420 2755 
Q 1159 2438 1159 1844 
L 1159 0 
L 581 0 
L 581 3500 
L 1159 3500 
L 1159 2956 
Q 1341 3275 1631 3429 
Q 1922 3584 2338 3584 
Q 2397 3584 2469 3576 
Q 2541 3569 2628 3553 
L 2631 2963 
z
" transform="scale(0.015625)"/>
     <path id="DejaVuSans-61" d="M 2194 1759 
Q 1497 1759 1228 1600 
Q 959 1441 959 1056 
Q 959 750 1161 570 
Q 1363 391 1709 391 
Q 2188 391 2477 730 
Q 2766 1069 2766 1631 
L 2766 1759 
L 2194 1759 
z
M 3341 1997 
L 3341 0 
L 2766 0 
L 2766 531 
Q 2569 213 2275 61 
Q 1981 -91 1556 -91 
Q 1019 -91 701 211 
Q 384 513 384 1019 
Q 384 1609 779 1909 
Q 1175 2209 1959 2209 
L 2766 2209 
L 2766 2266 
Q 2766 2663 2505 2880 
Q 2244 3097 1772 3097 
Q 1472 3097 1187 3025 
Q 903 2953 641 2809 
L 641 3341 
Q 956 3463 1253 3523 
Q 1550 3584 1831 3584 
Q 2591 3584 2966 3190 
Q 3341 2797 3341 1997 
z
" transform="scale(0.015625)"/>
     <path id="DejaVuSans-6c" d="M 603 4863 
L 1178 4863 
L 1178 0 
L 603 0 
L 603 4863 
z
" transform="scale(0.015625)"/>
     <path id="DejaVuSans-79" d="M 2059 -325 
Q 1816 -950 1584 -1140 
Q 1353 -1331 966 -1331 
L 506 -1331 
L 506 -850 
L 844 -850 
Q 1081 -850 1212 -737 
Q 1344 -625 1503 -206 
L 1606 56 
L 191 3500 
L 800 3500 
L 1894 763 
L 2988 3500 
L 3597 3500 
L 2059 -325 
z
" transform="scale(0.015625)"/>
     <path id="DejaVuSans-28" d="M 1984 4856 
Q 1566 4138 1362 3434 
Q 1159 2731 1159 2009 
Q 1159 1288 1364 580 
Q 1569 -128 1984 -844 
L 1484 -844 
Q 1016 -109 783 600 
Q 550 1309 550 2009 
Q 550 2706 781 3412 
Q 1013 4119 1484 4856 
L 1984 4856 
z
" transform="scale(0.015625)"/>
     <path id="DejaVuSans-3d" d="M 678 2906 
L 4684 2906 
L 4684 2381 
L 678 2381 
L 678 2906 
z
M 678 1631 
L 4684 1631 
L 4684 1100 
L 678 1100 
L 678 1631 
z
" transform="scale(0.015625)"/>
     <path id="DejaVuSans-34" d="M 2419 4116 
L 825 1625 
L 2419 1625 
L 2419 4116 
z
M 2253 4666 
L 3047 4666 
L 3047 1625 
L 3713 1625 
L 3713 1100 
L 3047 1100 
L 3047 0 
L 2419 0 
L 2419 1100 
L 313 1100 
L 313 1709 
L 2253 4666 
z
" transform="scale(0.015625)"/>
     <path id="DejaVuSans-2d" d="M 313 2009 
L 1997 2009 
L 1997 1497 
L 313 1497 
L 313 2009 
z
" transform="scale(0.015625)"/>
     <path id="DejaVuSans-39" d="M 703 97 
L 703 672 
Q 941 559 1184 500 
Q 1428 441 1663 441 
Q 2288 441 2617 861 
Q 2947 1281 2994 2138 
Q 2813 1869 2534 1725 
Q 2256 1581 1919 1581 
Q 1219 1581 811 2004 
Q 403 2428 403 3163 
Q 403 3881 828 4315 
Q 1253 4750 1959 4750 
Q 2769 4750 3195 4129 
Q 3622 3509 3622 2328 
Q 3622 1225 3098 567 
Q 2575 -91 1691 -91 
Q 1453 -91 1209 -44 
Q 966 3 703 97 
z
M 1959 2075 
Q 2384 2075 2632 2365 
Q 2881 2656 2881 3163 
Q 2881 3666 2632 3958 
Q 2384 4250 1959 4250 
Q 1534 4250 1286 3958 
Q 1038 3666 1038 3163 
Q 1038 2656 1286 2365 
Q 1534 2075 1959 2075 
z
" transform="scale(0.015625)"/>
     <path id="DejaVuSans-29" d="M 513 4856 
L 1013 4856 
Q 1481 4119 1714 3412 
Q 1947 2706 1947 2009 
Q 1947 1309 1714 600 
Q 1481 -109 1013 -844 
L 513 -844 
Q 928 -128 1133 580 
Q 1338 1288 1338 2009 
Q 1338 2731 1133 3434 
Q 928 4138 513 4856 
z
" transform="scale(0.015625)"/>
    </defs>
    <use xlink:href="#DejaVuSans-44"/>
    <use xlink:href="#DejaVuSans-46" x="77.001953"/>
    <use xlink:href="#DejaVuSans-46" x="134.521484"/>
    <use xlink:href="#DejaVuSans-20" x="192.041016"/>
    <use xlink:href="#DejaVuSans-75" x="223.828125"/>
    <use xlink:href="#DejaVuSans-6e" x="287.207031"/>
    <use xlink:href="#DejaVuSans-64" x="350.585938"/>
    <use xlink:href="#DejaVuSans-65" x="414.0625"/>
    <use xlink:href="#DejaVuSans-72" x="475.585938"/>
    <use xlink:href="#DejaVuSans-20" x="516.699219"/>
    <use xlink:href="#DejaVuSans-42" x="548.486328"/>
    <use xlink:href="#DejaVuSans-42" x="617.089844"/>
    <use xlink:href="#DejaVuSans-49" x="685.693359"/>
    <use xlink:href="#DejaVuSans-20" x="715.185547"/>
    <use xlink:href="#DejaVuSans-73" x="746.972656"/>
    <use xlink:href="#DejaVuSans-77" x="799.072266"/>
    <use xlink:href="#DejaVuSans-65" x="880.859375"/>
    <use xlink:href="#DejaVuSans-65" x="942.382812"/>
    <use xlink:href="#DejaVuSans-70" x="1003.90625"/>
    <use xlink:href="#DejaVuSans-20" x="1067.382812"/>
    <use xlink:href="#DejaVuSans-61" x="1099.169922"/>
    <use xlink:href="#DejaVuSans-6e" x="1160.449219"/>
    <use xlink:href="#DejaVuSans-61" x="1223.828125"/>
    <use xlink:href="#DejaVuSans-6c" x="1285.107422"/>
    <use xlink:href="#DejaVuSans-79" x="1312.890625"/>
    <use xlink:href="#DejaVuSans-73" x="1372.070312"/>
    <use xlink:href="#DejaVuSans-69" x="1424.169922"/>
    <use xlink:href="#DejaVuSans-73" x="1451.953125"/>
    <use xlink:href="#DejaVuSans-20" x="1504.052734"/>
    <use xlink:href="#DejaVuSans-28" x="1535.839844"/>
    <use xlink:href="#DejaVuSans-53" x="1574.853516"/>
    <use xlink:href="#DejaVuSans-77" x="1638.330078"/>
    <use xlink:href="#DejaVuSans-65" x="1720.117188"/>
    <use xlink:href="#DejaVuSans-65" x="1781.640625"/>
    <use xlink:href="#DejaVuSans-70" x="1843.164062"/>
    <use xlink:href="#DejaVuSans-20" x="1906.640625"/>
    <use xlink:href="#DejaVuSans-3d" x="1938.427734"/>
    <use xlink:href="#DejaVuSans-20" x="2022.216797"/>
    <use xlink:href="#DejaVuSans-34" x="2054.003906"/>
    <use xlink:href="#DejaVuSans-38" x="2117.626953"/>
    <use xlink:href="#DejaVuSans-45" x="2181.25"/>
    <use xlink:href="#DejaVuSans-2d" x="2244.433594"/>
    <use xlink:href="#DejaVuSans-39" x="2280.517578"/>
    <use xlink:href="#DejaVuSans-29" x="2344.140625"/>
   </g>
  </g>
 </g>
 <defs>
  <clipPath id="pf48e757090">
   <rect x="100.8" y="38.88" width="887.04" height="92.731034"/>
  </clipPath>
  <clipPath id="p9e6c0285da">
   <rect x="100.8" y="150.157241" width="887.04" height="92.731034"/>
  </clipPath>
  <clipPath id="p467d0c6a44">
   <rect x="100.8" y="261.434483" width="887.04" height="92.731034"/>
  </clipPath>
  <clipPath id="p8c70e1573e">
   <rect x="100.8" y="372.711724" width="887.04" height="92.731034"/>
  </clipPath>
  <clipPath id="padd6924cbd">
   <rect x="100.8" y="483.988966" width="887.04" height="92.731034"/>
  </clipPath>
  <clipPath id="p12c24b530d">
   <rect x="201.6" y="609.12" width="655.2" height="25.92"/>
  </clipPath>
  <clipPath id="p2703897648">
   <path d="M 201.6 628.56 
L 856.8 628.56 
L 856.8 615.6 
L 201.6 615.6 
z
"/>
  </clipPath>
 </defs>
</svg>
