<?xml version="1.0" encoding="utf-8" standalone="no"?>
<!DOCTYPE svg PUBLIC "-//W3C//DTD SVG 1.1//EN"
  "http://www.w3.org/Graphics/SVG/1.1/DTD/svg11.dtd">
<svg xmlns:xlink="http://www.w3.org/1999/xlink" width="1008pt" height="648pt" viewBox="0 0 1008 648" xmlns="http://www.w3.org/2000/svg" version="1.1">
 <metadata>
  <rdf:RDF xmlns:dc="http://purl.org/dc/elements/1.1/" xmlns:cc="http://creativecommons.org/ns#" xmlns:rdf="http://www.w3.org/1999/02/22-rdf-syntax-ns#">
   <cc:Work>
    <dc:type rdf:resource="http://purl.org/dc/dcmitype/StillImage"/>
    <dc:date>2024-06-03T10:45:46.852539</dc:date>
    <dc:format>image/svg+xml</dc:format>
    <dc:creator>
     <cc:Agent>
      <dc:title>Matplotlib v3.9.0, https://matplotlib.org/</dc:title>
     </cc:Agent>
    </dc:creator>
   </cc:Work>
  </rdf:RDF>
 </metadata>
 <defs>
  <style type="text/css">*{stroke-linejoin: round; stroke-linecap: butt}</style>
 </defs>
 <g id="figure_1">
  <g id="patch_1">
   <path d="M 0 648 
L 1008 648 
L 1008 0 
L 0 0 
z
" style="fill: #ffffff"/>
  </g>
  <g id="axes_1">
   <g id="patch_2">
    <path d="M 100.8 131.611034 
L 987.84 131.611034 
L 987.84 38.88 
L 100.8 38.88 
z
" style="fill: #eeeeee"/>
   </g>
   <g id="matplotlib.axis_1">
    <g id="xtick_1">
     <g id="line2d_1">
      <path d="M 141.12 131.611034 
L 141.12 38.88 
" clip-path="url(#pe719799842)" style="fill: none; stroke-dasharray: 1.85,0.8; stroke-dashoffset: 0; stroke: #b2b2b2; stroke-width: 0.5"/>
     </g>
     <g id="line2d_2">
      <defs>
       <path id="m5d4e55a789" d="M 0 0 
L 0 -3.5 
" style="stroke: #000000; stroke-width: 0.8"/>
      </defs>
      <g>
       <use xlink:href="#m5d4e55a789" x="141.12" y="131.611034" style="stroke: #000000; stroke-width: 0.8"/>
      </g>
     </g>
    </g>
    <g id="xtick_2">
     <g id="line2d_3">
      <path d="M 302.4 131.611034 
L 302.4 38.88 
" clip-path="url(#pe719799842)" style="fill: none; stroke-dasharray: 1.85,0.8; stroke-dashoffset: 0; stroke: #b2b2b2; stroke-width: 0.5"/>
     </g>
     <g id="line2d_4">
      <g>
       <use xlink:href="#m5d4e55a789" x="302.4" y="131.611034" style="stroke: #000000; stroke-width: 0.8"/>
      </g>
     </g>
    </g>
    <g id="xtick_3">
     <g id="line2d_5">
      <path d="M 463.68 131.611034 
L 463.68 38.88 
" clip-path="url(#pe719799842)" style="fill: none; stroke-dasharray: 1.85,0.8; stroke-dashoffset: 0; stroke: #b2b2b2; stroke-width: 0.5"/>
     </g>
     <g id="line2d_6">
      <g>
       <use xlink:href="#m5d4e55a789" x="463.68" y="131.611034" style="stroke: #000000; stroke-width: 0.8"/>
      </g>
     </g>
    </g>
    <g id="xtick_4">
     <g id="line2d_7">
      <path d="M 624.96 131.611034 
L 624.96 38.88 
" clip-path="url(#pe719799842)" style="fill: none; stroke-dasharray: 1.85,0.8; stroke-dashoffset: 0; stroke: #b2b2b2; stroke-width: 0.5"/>
     </g>
     <g id="line2d_8">
      <g>
       <use xlink:href="#m5d4e55a789" x="624.96" y="131.611034" style="stroke: #000000; stroke-width: 0.8"/>
      </g>
     </g>
    </g>
    <g id="xtick_5">
     <g id="line2d_9">
      <path d="M 786.24 131.611034 
L 786.24 38.88 
" clip-path="url(#pe719799842)" style="fill: none; stroke-dasharray: 1.85,0.8; stroke-dashoffset: 0; stroke: #b2b2b2; stroke-width: 0.5"/>
     </g>
     <g id="line2d_10">
      <g>
       <use xlink:href="#m5d4e55a789" x="786.24" y="131.611034" style="stroke: #000000; stroke-width: 0.8"/>
      </g>
     </g>
    </g>
    <g id="xtick_6">
     <g id="line2d_11">
      <path d="M 947.52 131.611034 
L 947.52 38.88 
" clip-path="url(#pe719799842)" style="fill: none; stroke-dasharray: 1.85,0.8; stroke-dashoffset: 0; stroke: #b2b2b2; stroke-width: 0.5"/>
     </g>
     <g id="line2d_12">
      <g>
       <use xlink:href="#m5d4e55a789" x="947.52" y="131.611034" style="stroke: #000000; stroke-width: 0.8"/>
      </g>
     </g>
    </g>
   </g>
   <g id="matplotlib.axis_2">
    <g id="ytick_1">
     <g id="line2d_13">
      <path d="M 100.8 98.340394 
L 987.84 98.340394 
" clip-path="url(#pe719799842)" style="fill: none; stroke-dasharray: 1.85,0.8; stroke-dashoffset: 0; stroke: #b2b2b2; stroke-width: 0.5"/>
     </g>
     <g id="line2d_14">
      <defs>
       <path id="m6ca5ee40d5" d="M 0 0 
L 3.5 0 
" style="stroke: #000000; stroke-width: 0.8"/>
      </defs>
      <g>
       <use xlink:href="#m6ca5ee40d5" x="100.8" y="98.340394" style="stroke: #000000; stroke-width: 0.8"/>
      </g>
     </g>
     <g id="text_1">
      <!-- −200 V -->
      <g transform="translate(44.819688 103.6593) scale(0.14 -0.14)">
       <defs>
        <path id="DejaVuSans-2212" d="M 678 2272 
L 4684 2272 
L 4684 1741 
L 678 1741 
L 678 2272 
z
" transform="scale(0.015625)"/>
        <path id="DejaVuSans-32" d="M 1228 531 
L 3431 531 
L 3431 0 
L 469 0 
L 469 531 
Q 828 903 1448 1529 
Q 2069 2156 2228 2338 
Q 2531 2678 2651 2914 
Q 2772 3150 2772 3378 
Q 2772 3750 2511 3984 
Q 2250 4219 1831 4219 
Q 1534 4219 1204 4116 
Q 875 4013 500 3803 
L 500 4441 
Q 881 4594 1212 4672 
Q 1544 4750 1819 4750 
Q 2544 4750 2975 4387 
Q 3406 4025 3406 3419 
Q 3406 3131 3298 2873 
Q 3191 2616 2906 2266 
Q 2828 2175 2409 1742 
Q 1991 1309 1228 531 
z
" transform="scale(0.015625)"/>
        <path id="DejaVuSans-30" d="M 2034 4250 
Q 1547 4250 1301 3770 
Q 1056 3291 1056 2328 
Q 1056 1369 1301 889 
Q 1547 409 2034 409 
Q 2525 409 2770 889 
Q 3016 1369 3016 2328 
Q 3016 3291 2770 3770 
Q 2525 4250 2034 4250 
z
M 2034 4750 
Q 2819 4750 3233 4129 
Q 3647 3509 3647 2328 
Q 3647 1150 3233 529 
Q 2819 -91 2034 -91 
Q 1250 -91 836 529 
Q 422 1150 422 2328 
Q 422 3509 836 4129 
Q 1250 4750 2034 4750 
z
" transform="scale(0.015625)"/>
        <path id="DejaVuSans-20" transform="scale(0.015625)"/>
        <path id="DejaVuSans-56" d="M 1831 0 
L 50 4666 
L 709 4666 
L 2188 738 
L 3669 4666 
L 4325 4666 
L 2547 0 
L 1831 0 
z
" transform="scale(0.015625)"/>
       </defs>
       <use xlink:href="#DejaVuSans-2212"/>
       <use xlink:href="#DejaVuSans-32" x="83.789062"/>
       <use xlink:href="#DejaVuSans-30" x="147.412109"/>
       <use xlink:href="#DejaVuSans-30" x="211.035156"/>
       <use xlink:href="#DejaVuSans-20" x="274.658203"/>
       <use xlink:href="#DejaVuSans-56" x="306.445312"/>
      </g>
     </g>
    </g>
    <g id="ytick_2">
     <g id="line2d_15">
      <path d="M 100.8 45.027377 
L 987.84 45.027377 
" clip-path="url(#pe719799842)" style="fill: none; stroke-dasharray: 1.85,0.8; stroke-dashoffset: 0; stroke: #b2b2b2; stroke-width: 0.5"/>
     </g>
     <g id="line2d_16">
      <g>
       <use xlink:href="#m6ca5ee40d5" x="100.8" y="45.027377" style="stroke: #000000; stroke-width: 0.8"/>
      </g>
     </g>
     <g id="text_2">
      <!-- 0 V -->
      <g transform="translate(74.36625 50.346284) scale(0.14 -0.14)">
       <use xlink:href="#DejaVuSans-30"/>
       <use xlink:href="#DejaVuSans-20" x="63.623047"/>
       <use xlink:href="#DejaVuSans-56" x="95.410156"/>
      </g>
     </g>
    </g>
    <g id="text_3">
     <g id="patch_3">
      <path d="M 34.8768 131.080205 
L 34.8768 39.41083 
L 11.247425 39.41083 
L 11.247425 131.080205 
z
" style="fill: #ffff00; opacity: 0.2; stroke: #eeeeee; stroke-width: 0.5; stroke-linejoin: miter"/>
     </g>
     <!-- VPULSE BBI -->
     <g transform="translate(26.925238 126.040205) rotate(-90) scale(0.14 -0.14)">
      <defs>
       <path id="DejaVuSans-50" d="M 1259 4147 
L 1259 2394 
L 2053 2394 
Q 2494 2394 2734 2622 
Q 2975 2850 2975 3272 
Q 2975 3691 2734 3919 
Q 2494 4147 2053 4147 
L 1259 4147 
z
M 628 4666 
L 2053 4666 
Q 2838 4666 3239 4311 
Q 3641 3956 3641 3272 
Q 3641 2581 3239 2228 
Q 2838 1875 2053 1875 
L 1259 1875 
L 1259 0 
L 628 0 
L 628 4666 
z
" transform="scale(0.015625)"/>
       <path id="DejaVuSans-55" d="M 556 4666 
L 1191 4666 
L 1191 1831 
Q 1191 1081 1462 751 
Q 1734 422 2344 422 
Q 2950 422 3222 751 
Q 3494 1081 3494 1831 
L 3494 4666 
L 4128 4666 
L 4128 1753 
Q 4128 841 3676 375 
Q 3225 -91 2344 -91 
Q 1459 -91 1007 375 
Q 556 841 556 1753 
L 556 4666 
z
" transform="scale(0.015625)"/>
       <path id="DejaVuSans-4c" d="M 628 4666 
L 1259 4666 
L 1259 531 
L 3531 531 
L 3531 0 
L 628 0 
L 628 4666 
z
" transform="scale(0.015625)"/>
       <path id="DejaVuSans-53" d="M 3425 4513 
L 3425 3897 
Q 3066 4069 2747 4153 
Q 2428 4238 2131 4238 
Q 1616 4238 1336 4038 
Q 1056 3838 1056 3469 
Q 1056 3159 1242 3001 
Q 1428 2844 1947 2747 
L 2328 2669 
Q 3034 2534 3370 2195 
Q 3706 1856 3706 1288 
Q 3706 609 3251 259 
Q 2797 -91 1919 -91 
Q 1588 -91 1214 -16 
Q 841 59 441 206 
L 441 856 
Q 825 641 1194 531 
Q 1563 422 1919 422 
Q 2459 422 2753 634 
Q 3047 847 3047 1241 
Q 3047 1584 2836 1778 
Q 2625 1972 2144 2069 
L 1759 2144 
Q 1053 2284 737 2584 
Q 422 2884 422 3419 
Q 422 4038 858 4394 
Q 1294 4750 2059 4750 
Q 2388 4750 2728 4690 
Q 3069 4631 3425 4513 
z
" transform="scale(0.015625)"/>
       <path id="DejaVuSans-45" d="M 628 4666 
L 3578 4666 
L 3578 4134 
L 1259 4134 
L 1259 2753 
L 3481 2753 
L 3481 2222 
L 1259 2222 
L 1259 531 
L 3634 531 
L 3634 0 
L 628 0 
L 628 4666 
z
" transform="scale(0.015625)"/>
       <path id="DejaVuSans-42" d="M 1259 2228 
L 1259 519 
L 2272 519 
Q 2781 519 3026 730 
Q 3272 941 3272 1375 
Q 3272 1813 3026 2020 
Q 2781 2228 2272 2228 
L 1259 2228 
z
M 1259 4147 
L 1259 2741 
L 2194 2741 
Q 2656 2741 2882 2914 
Q 3109 3088 3109 3444 
Q 3109 3797 2882 3972 
Q 2656 4147 2194 4147 
L 1259 4147 
z
M 628 4666 
L 2241 4666 
Q 2963 4666 3353 4366 
Q 3744 4066 3744 3513 
Q 3744 3084 3544 2831 
Q 3344 2578 2956 2516 
Q 3422 2416 3680 2098 
Q 3938 1781 3938 1306 
Q 3938 681 3513 340 
Q 3088 0 2303 0 
L 628 0 
L 628 4666 
z
" transform="scale(0.015625)"/>
       <path id="DejaVuSans-49" d="M 628 4666 
L 1259 4666 
L 1259 0 
L 628 0 
L 628 4666 
z
" transform="scale(0.015625)"/>
      </defs>
      <use xlink:href="#DejaVuSans-56"/>
      <use xlink:href="#DejaVuSans-50" x="68.408203"/>
      <use xlink:href="#DejaVuSans-55" x="128.710938"/>
      <use xlink:href="#DejaVuSans-4c" x="201.904297"/>
      <use xlink:href="#DejaVuSans-53" x="257.617188"/>
      <use xlink:href="#DejaVuSans-45" x="321.09375"/>
      <use xlink:href="#DejaVuSans-20" x="384.277344"/>
      <use xlink:href="#DejaVuSans-42" x="416.064453"/>
      <use xlink:href="#DejaVuSans-42" x="484.667969"/>
      <use xlink:href="#DejaVuSans-49" x="553.271484"/>
     </g>
    </g>
   </g>
   <g id="line2d_17">
    <path d="M 141.12 45.027377 
L 450.809856 45.136282 
L 451.293696 46.425538 
L 459.518976 69.006772 
L 466.937856 89.863624 
L 468.550656 94.440546 
L 470.356992 99.673219 
L 473.84064 110.807642 
L 475.421184 115.851054 
L 476.679168 119.566971 
L 477.904896 120.153414 
L 478.743552 120.545265 
L 479.775744 121.017085 
L 480.356352 121.272988 
L 481.227264 121.656841 
L 481.807872 121.912744 
L 482.646528 122.269941 
L 484.227072 122.936354 
L 484.872192 123.202919 
L 485.968896 123.629423 
L 486.710784 123.922644 
L 487.807488 124.349149 
L 488.710656 124.677024 
L 489.388032 124.943589 
L 490.194432 125.25547 
L 491.549184 125.804594 
L 494.194176 126.790885 
L 494.80704 127.022796 
L 496.7424 127.395987 
L 515.225088 127.289361 
L 515.45088 126.801547 
L 533.740032 75.087922 
L 537.481728 63.292417 
L 541.191168 51.617666 
L 545.803776 49.3412 
L 551.158272 46.984578 
L 559.867392 43.484472 
L 560.738304 43.268927 
L 575.027712 43.108189 
L 581.833728 43.184799 
L 597.187584 43.746186 
L 624.96 44.46146 
L 650.60352 44.774399 
L 686.214144 44.945888 
L 734.243328 44.953885 
L 947.52 44.953885 
L 947.52 44.953885 
" clip-path="url(#pe719799842)" style="fill: none; stroke: #ff0000; stroke-width: 2; stroke-linecap: square"/>
   </g>
   <g id="patch_4">
    <path d="M 100.8 131.611034 
L 100.8 38.88 
" style="fill: none; stroke: #bcbcbc; stroke-width: 0.8; stroke-linejoin: miter; stroke-linecap: square"/>
   </g>
   <g id="patch_5">
    <path d="M 987.84 131.611034 
L 987.84 38.88 
" style="fill: none; stroke: #bcbcbc; stroke-width: 0.8; stroke-linejoin: miter; stroke-linecap: square"/>
   </g>
   <g id="patch_6">
    <path d="M 100.8 131.611034 
L 987.84 131.611034 
" style="fill: none; stroke: #bcbcbc; stroke-width: 0.8; stroke-linejoin: miter; stroke-linecap: square"/>
   </g>
   <g id="patch_7">
    <path d="M 100.8 38.88 
L 987.84 38.88 
" style="fill: none; stroke: #bcbcbc; stroke-width: 0.8; stroke-linejoin: miter; stroke-linecap: square"/>
   </g>
  </g>
  <g id="axes_2">
   <g id="patch_8">
    <path d="M 100.8 242.888276 
L 987.84 242.888276 
L 987.84 150.157241 
L 100.8 150.157241 
z
" style="fill: #eeeeee"/>
   </g>
   <g id="matplotlib.axis_3">
    <g id="xtick_7">
     <g id="line2d_18">
      <path d="M 141.12 242.888276 
L 141.12 150.157241 
" clip-path="url(#p39edc99733)" style="fill: none; stroke-dasharray: 1.85,0.8; stroke-dashoffset: 0; stroke: #b2b2b2; stroke-width: 0.5"/>
     </g>
     <g id="line2d_19">
      <g>
       <use xlink:href="#m5d4e55a789" x="141.12" y="242.888276" style="stroke: #000000; stroke-width: 0.8"/>
      </g>
     </g>
    </g>
    <g id="xtick_8">
     <g id="line2d_20">
      <path d="M 302.4 242.888276 
L 302.4 150.157241 
" clip-path="url(#p39edc99733)" style="fill: none; stroke-dasharray: 1.85,0.8; stroke-dashoffset: 0; stroke: #b2b2b2; stroke-width: 0.5"/>
     </g>
     <g id="line2d_21">
      <g>
       <use xlink:href="#m5d4e55a789" x="302.4" y="242.888276" style="stroke: #000000; stroke-width: 0.8"/>
      </g>
     </g>
    </g>
    <g id="xtick_9">
     <g id="line2d_22">
      <path d="M 463.68 242.888276 
L 463.68 150.157241 
" clip-path="url(#p39edc99733)" style="fill: none; stroke-dasharray: 1.85,0.8; stroke-dashoffset: 0; stroke: #b2b2b2; stroke-width: 0.5"/>
     </g>
     <g id="line2d_23">
      <g>
       <use xlink:href="#m5d4e55a789" x="463.68" y="242.888276" style="stroke: #000000; stroke-width: 0.8"/>
      </g>
     </g>
    </g>
    <g id="xtick_10">
     <g id="line2d_24">
      <path d="M 624.96 242.888276 
L 624.96 150.157241 
" clip-path="url(#p39edc99733)" style="fill: none; stroke-dasharray: 1.85,0.8; stroke-dashoffset: 0; stroke: #b2b2b2; stroke-width: 0.5"/>
     </g>
     <g id="line2d_25">
      <g>
       <use xlink:href="#m5d4e55a789" x="624.96" y="242.888276" style="stroke: #000000; stroke-width: 0.8"/>
      </g>
     </g>
    </g>
    <g id="xtick_11">
     <g id="line2d_26">
      <path d="M 786.24 242.888276 
L 786.24 150.157241 
" clip-path="url(#p39edc99733)" style="fill: none; stroke-dasharray: 1.85,0.8; stroke-dashoffset: 0; stroke: #b2b2b2; stroke-width: 0.5"/>
     </g>
     <g id="line2d_27">
      <g>
       <use xlink:href="#m5d4e55a789" x="786.24" y="242.888276" style="stroke: #000000; stroke-width: 0.8"/>
      </g>
     </g>
    </g>
    <g id="xtick_12">
     <g id="line2d_28">
      <path d="M 947.52 242.888276 
L 947.52 150.157241 
" clip-path="url(#p39edc99733)" style="fill: none; stroke-dasharray: 1.85,0.8; stroke-dashoffset: 0; stroke: #b2b2b2; stroke-width: 0.5"/>
     </g>
     <g id="line2d_29">
      <g>
       <use xlink:href="#m5d4e55a789" x="947.52" y="242.888276" style="stroke: #000000; stroke-width: 0.8"/>
      </g>
     </g>
    </g>
   </g>
   <g id="matplotlib.axis_4">
    <g id="ytick_3">
     <g id="line2d_30">
      <path d="M 100.8 219.009434 
L 987.84 219.009434 
" clip-path="url(#p39edc99733)" style="fill: none; stroke-dasharray: 1.85,0.8; stroke-dashoffset: 0; stroke: #b2b2b2; stroke-width: 0.5"/>
     </g>
     <g id="line2d_31">
      <g>
       <use xlink:href="#m6ca5ee40d5" x="100.8" y="219.009434" style="stroke: #000000; stroke-width: 0.8"/>
      </g>
     </g>
     <g id="text_4">
      <!-- 0 V -->
      <g transform="translate(74.36625 224.32834) scale(0.14 -0.14)">
       <use xlink:href="#DejaVuSans-30"/>
       <use xlink:href="#DejaVuSans-20" x="63.623047"/>
       <use xlink:href="#DejaVuSans-56" x="95.410156"/>
      </g>
     </g>
    </g>
    <g id="ytick_4">
     <g id="line2d_32">
      <path d="M 100.8 184.713713 
L 987.84 184.713713 
" clip-path="url(#p39edc99733)" style="fill: none; stroke-dasharray: 1.85,0.8; stroke-dashoffset: 0; stroke: #b2b2b2; stroke-width: 0.5"/>
     </g>
     <g id="line2d_33">
      <g>
       <use xlink:href="#m6ca5ee40d5" x="100.8" y="184.713713" style="stroke: #000000; stroke-width: 0.8"/>
      </g>
     </g>
     <g id="text_5">
      <!-- 1 V -->
      <g transform="translate(74.36625 190.032619) scale(0.14 -0.14)">
       <defs>
        <path id="DejaVuSans-31" d="M 794 531 
L 1825 531 
L 1825 4091 
L 703 3866 
L 703 4441 
L 1819 4666 
L 2450 4666 
L 2450 531 
L 3481 531 
L 3481 0 
L 794 0 
L 794 531 
z
" transform="scale(0.015625)"/>
       </defs>
       <use xlink:href="#DejaVuSans-31"/>
       <use xlink:href="#DejaVuSans-20" x="63.623047"/>
       <use xlink:href="#DejaVuSans-56" x="95.410156"/>
      </g>
     </g>
    </g>
    <g id="ytick_5">
     <g id="line2d_34">
      <path d="M 100.8 150.417992 
L 987.84 150.417992 
" clip-path="url(#p39edc99733)" style="fill: none; stroke-dasharray: 1.85,0.8; stroke-dashoffset: 0; stroke: #b2b2b2; stroke-width: 0.5"/>
     </g>
     <g id="line2d_35">
      <g>
       <use xlink:href="#m6ca5ee40d5" x="100.8" y="150.417992" style="stroke: #000000; stroke-width: 0.8"/>
      </g>
     </g>
     <g id="text_6">
      <!-- 2 V -->
      <g transform="translate(74.36625 155.736898) scale(0.14 -0.14)">
       <use xlink:href="#DejaVuSans-32"/>
       <use xlink:href="#DejaVuSans-20" x="63.623047"/>
       <use xlink:href="#DejaVuSans-56" x="95.410156"/>
      </g>
     </g>
    </g>
    <g id="text_7">
     <g id="patch_9">
      <path d="M 34.8768 224.531509 
L 34.8768 168.514009 
L 11.247425 168.514009 
L 11.247425 224.531509 
z
" style="fill: #ffff00; opacity: 0.2; stroke: #eeeeee; stroke-width: 0.5; stroke-linejoin: miter"/>
     </g>
     <!-- DFF IN -->
     <g transform="translate(26.925238 219.491509) rotate(-90) scale(0.14 -0.14)">
      <defs>
       <path id="DejaVuSans-44" d="M 1259 4147 
L 1259 519 
L 2022 519 
Q 2988 519 3436 956 
Q 3884 1394 3884 2338 
Q 3884 3275 3436 3711 
Q 2988 4147 2022 4147 
L 1259 4147 
z
M 628 4666 
L 1925 4666 
Q 3281 4666 3915 4102 
Q 4550 3538 4550 2338 
Q 4550 1131 3912 565 
Q 3275 0 1925 0 
L 628 0 
L 628 4666 
z
" transform="scale(0.015625)"/>
       <path id="DejaVuSans-46" d="M 628 4666 
L 3309 4666 
L 3309 4134 
L 1259 4134 
L 1259 2759 
L 3109 2759 
L 3109 2228 
L 1259 2228 
L 1259 0 
L 628 0 
L 628 4666 
z
" transform="scale(0.015625)"/>
       <path id="DejaVuSans-4e" d="M 628 4666 
L 1478 4666 
L 3547 763 
L 3547 4666 
L 4159 4666 
L 4159 0 
L 3309 0 
L 1241 3903 
L 1241 0 
L 628 0 
L 628 4666 
z
" transform="scale(0.015625)"/>
      </defs>
      <use xlink:href="#DejaVuSans-44"/>
      <use xlink:href="#DejaVuSans-46" x="77.001953"/>
      <use xlink:href="#DejaVuSans-46" x="134.521484"/>
      <use xlink:href="#DejaVuSans-20" x="192.041016"/>
      <use xlink:href="#DejaVuSans-49" x="223.828125"/>
      <use xlink:href="#DejaVuSans-4e" x="253.320312"/>
     </g>
    </g>
   </g>
   <g id="line2d_36">
    <path d="M 141.12 218.959349 
L 221.953536 218.912319 
L 224.437248 199.803144 
L 225.404928 193.99002 
L 228.243456 181.20869 
L 229.598208 179.92603 
L 231.178752 179.04463 
L 236.533248 178.585068 
L 243.5328 178.475321 
L 244.952064 178.434166 
L 248.145408 178.32442 
L 249.790464 178.259258 
L 251.887104 178.149512 
L 254.241792 177.799696 
L 254.757888 177.257823 
L 255.499776 176.914866 
L 256.338432 176.928584 
L 259.789824 177.549337 
L 262.467072 177.724245 
L 263.886336 177.772259 
L 264.144384 183.060659 
L 264.434688 186.658966 
L 265.176576 191.452479 
L 267.144192 208.949127 
L 268.402176 215.518473 
L 269.047296 216.813685 
L 270.46656 218.592947 
L 273.724416 219.011286 
L 282.498048 218.9632 
L 296.980992 218.953995 
L 305.690112 218.958481 
L 347.751936 218.91403 
L 350.235648 199.843613 
L 351.622656 191.124612 
L 352.654848 185.783396 
L 354.97728 178.72225 
L 358.493184 177.713956 
L 360.202752 177.785977 
L 363.009024 177.895724 
L 364.33152 177.92659 
L 375.169536 177.998611 
L 375.717888 179.000046 
L 376.169472 179.757981 
L 377.008128 180.673677 
L 377.524224 180.622233 
L 378.427392 180.32729 
L 380.427264 179.178384 
L 381.58848 178.801131 
L 387.168768 178.317561 
L 389.587968 178.207815 
L 391.684608 178.094639 
L 394.232832 177.984892 
L 395.61984 177.947167 
L 415.360512 177.861428 
L 416.489472 176.921725 
L 417.037824 176.856563 
L 417.908736 176.96631 
L 419.16672 177.250964 
L 420.908544 177.508182 
L 423.940608 177.720815 
L 450.745344 177.820273 
L 450.93888 178.043195 
L 453.100032 181.952907 
L 455.519232 185.356072 
L 455.970816 186.163736 
L 456.74496 187.487208 
L 457.906176 189.001364 
L 460.035072 191.708668 
L 460.486656 192.981039 
L 461.228544 195.713037 
L 463.067136 203.080443 
L 463.776768 206.23565 
L 463.970304 207.161977 
L 464.712192 210.469114 
L 466.163712 215.899704 
L 466.518528 217.112846 
L 467.421696 220.377182 
L 468.292608 223.064217 
L 468.969984 224.51767 
L 469.357056 225.495098 
L 469.679616 225.898759 
L 470.002176 226.290073 
L 470.195712 226.716712 
L 472.163328 230.958406 
L 472.518144 231.479015 
L 472.71168 231.846323 
L 473.227776 233.064164 
L 474.195456 234.664402 
L 474.614784 235.537914 
L 476.614656 238.673229 
L 476.872704 238.563483 
L 477.808128 237.348728 
L 478.324224 236.373358 
L 479.098368 235.548203 
L 479.517696 234.932937 
L 479.904768 234.271373 
L 480.227328 234.045364 
L 480.549888 233.803236 
L 481.840128 232.595684 
L 482.323968 231.825402 
L 482.646528 231.591162 
L 482.678784 231.62683 
L 482.840064 231.558924 
L 483.84 230.85209 
L 484.581888 230.093125 
L 485.065728 229.302266 
L 485.485056 229.05568 
L 485.581824 229.009723 
L 485.904384 228.889345 
L 486.194688 228.762794 
L 487.38816 227.750385 
L 487.54944 227.499683 
L 487.968768 226.79079 
L 488.484864 226.554493 
L 489.00096 226.373754 
L 490.581504 225.129849 
L 491.162112 224.447021 
L 491.387904 224.32287 
L 491.936256 224.05845 
L 492.936192 223.324522 
L 494.871552 221.720854 
L 495.806976 221.004451 
L 496.548864 220.258896 
L 497.129472 219.538549 
L 500.000256 215.455712 
L 502.935552 211.648201 
L 503.709696 210.772288 
L 504.677376 209.764337 
L 505.096704 209.191255 
L 505.322496 208.628462 
L 507.806208 201.617731 
L 508.257792 200.788803 
L 509.32224 199.055155 
L 509.935104 198.280071 
L 510.580224 197.470006 
L 511.709184 195.917782 
L 512.644608 194.837467 
L 513.483264 193.789047 
L 514.902528 192.437795 
L 515.386368 191.7193 
L 515.741184 190.567993 
L 517.321728 185.051183 
L 518.160384 183.0538 
L 518.902272 181.723126 
L 519.740928 180.752557 
L 521.482752 179.140658 
L 525.482496 173.423562 
L 527.450112 170.491277 
L 533.288448 162.603261 
L 534.15936 161.516087 
L 535.223808 160.103103 
L 536.159232 158.810155 
L 536.320512 158.60781 
L 536.352768 158.652394 
L 536.610816 159.640111 
L 536.965632 160.813025 
L 537.320448 161.368616 
L 537.643008 161.536665 
L 537.901056 161.512658 
L 538.255872 161.241721 
L 538.6752 160.641546 
L 539.191296 159.499499 
L 541.158912 154.742682 
L 541.610496 154.656943 
L 542.126592 154.608929 
L 542.836224 154.492323 
L 543.771648 154.386007 
L 544.255488 154.389436 
L 546.448896 154.732393 
L 549.1584 155.48004 
L 549.900288 155.658378 
L 550.351872 155.774983 
L 552.609792 156.368299 
L 561.351168 159.273147 
L 563.222016 160.144258 
L 564.092928 160.538659 
L 574.1568 164.69873 
L 574.9632 164.983385 
L 576.705024 165.453236 
L 577.092096 164.85992 
L 577.511424 164.602702 
L 577.898496 164.630139 
L 579.059712 165.367497 
L 580.962816 166.646727 
L 582.801408 167.50069 
L 583.382016 167.737331 
L 589.188096 169.472694 
L 589.929984 169.657891 
L 591.41376 170.017996 
L 591.865344 170.127743 
L 592.510464 170.282073 
L 593.736192 170.556439 
L 594.671616 170.762214 
L 595.736064 170.991995 
L 596.284416 171.094882 
L 597.38112 171.328093 
L 598.768128 171.585311 
L 599.703552 171.770508 
L 601.09056 172.024296 
L 601.89696 172.171768 
L 602.574336 172.278084 
L 604.96128 172.675915 
L 605.380608 172.734218 
L 606.122496 172.857682 
L 608.541696 173.224646 
L 608.928768 173.269231 
L 609.735168 173.375548 
L 610.477056 173.495583 
L 611.73504 173.649913 
L 616.992768 174.301532 
L 617.799168 175.302967 
L 618.476544 175.553326 
L 619.670016 175.447009 
L 620.573184 175.145207 
L 620.992512 175.032031 
L 621.927936 174.922285 
L 623.056896 174.911996 
L 625.024512 175.018313 
L 625.540608 175.069756 
L 629.15328 175.344122 
L 630.572544 175.453868 
L 630.991872 175.474446 
L 631.57248 175.52246 
L 632.37888 175.580762 
L 634.056192 175.690509 
L 634.830336 175.748811 
L 635.507712 175.786537 
L 638.120448 175.954586 
L 638.797824 175.992311 
L 640.958976 176.102057 
L 642.894336 176.198085 
L 644.829696 176.307832 
L 646.7328 176.40386 
L 647.474688 176.434726 
L 649.184256 176.506747 
L 651.73248 176.616493 
L 653.280768 176.671366 
L 656.119296 176.781113 
L 657.280512 176.822267 
L 658.086912 176.047184 
L 658.764288 175.868846 
L 660.054528 176.115776 
L 660.893184 176.352416 
L 663.602688 176.815408 
L 665.021952 176.925155 
L 665.860608 176.993746 
L 668.441088 177.103492 
L 669.021696 177.117211 
L 673.440768 177.226957 
L 674.601984 177.240675 
L 681.117696 177.350422 
L 681.698304 177.367569 
L 682.69824 177.367569 
L 683.98848 177.395006 
L 697.632768 177.477316 
L 698.568192 178.320991 
L 699.406848 178.471892 
L 703.374336 177.940308 
L 704.30976 177.854569 
L 705.825792 177.744822 
L 708.148224 177.60764 
L 737.920512 177.518471 
L 738.888192 176.6405 
L 739.210752 176.578768 
L 740.952576 176.688514 
L 744.242688 177.274971 
L 746.339328 177.388147 
L 778.272768 177.484175 
L 779.240448 178.358716 
L 780.659712 178.550772 
L 782.337024 178.441026 
L 784.046592 178.149512 
L 786.369024 177.768829 
L 789.723648 177.5219 
L 818.625024 177.43959 
L 819.108864 176.904577 
L 819.721728 176.582197 
L 820.9152 176.56162 
L 824.882688 177.292119 
L 826.56 177.36071 
L 858.880512 177.470457 
L 859.041792 177.652224 
L 859.46112 178.08092 
L 860.073984 178.4033 
L 861.299712 178.550772 
L 862.977024 178.441026 
L 864.686592 178.149512 
L 867.009024 177.768829 
L 870.363648 177.5219 
L 899.265024 177.43959 
L 899.748864 176.901148 
L 900.458496 176.571909 
L 901.5552 176.56162 
L 905.522688 177.292119 
L 907.2 177.36071 
L 939.520512 177.470457 
L 939.681792 177.655654 
L 940.165632 178.146082 
L 940.649472 178.369005 
L 941.55264 178.547342 
L 943.455744 178.437596 
L 944.77824 178.187237 
L 946.971648 177.833991 
L 947.52 177.748252 
L 947.52 177.748252 
" clip-path="url(#p39edc99733)" style="fill: none; stroke: #008000; stroke-width: 2; stroke-linecap: square"/>
   </g>
   <g id="patch_10">
    <path d="M 100.8 242.888276 
L 100.8 150.157241 
" style="fill: none; stroke: #bcbcbc; stroke-width: 0.8; stroke-linejoin: miter; stroke-linecap: square"/>
   </g>
   <g id="patch_11">
    <path d="M 987.84 242.888276 
L 987.84 150.157241 
" style="fill: none; stroke: #bcbcbc; stroke-width: 0.8; stroke-linejoin: miter; stroke-linecap: square"/>
   </g>
   <g id="patch_12">
    <path d="M 100.8 242.888276 
L 987.84 242.888276 
" style="fill: none; stroke: #bcbcbc; stroke-width: 0.8; stroke-linejoin: miter; stroke-linecap: square"/>
   </g>
   <g id="patch_13">
    <path d="M 100.8 150.157241 
L 987.84 150.157241 
" style="fill: none; stroke: #bcbcbc; stroke-width: 0.8; stroke-linejoin: miter; stroke-linecap: square"/>
   </g>
  </g>
  <g id="axes_3">
   <g id="patch_14">
    <path d="M 100.8 354.165517 
L 987.84 354.165517 
L 987.84 261.434483 
L 100.8 261.434483 
z
" style="fill: #eeeeee"/>
   </g>
   <g id="matplotlib.axis_5">
    <g id="xtick_13">
     <g id="line2d_37">
      <path d="M 141.12 354.165517 
L 141.12 261.434483 
" clip-path="url(#pb3e5e86068)" style="fill: none; stroke-dasharray: 1.85,0.8; stroke-dashoffset: 0; stroke: #b2b2b2; stroke-width: 0.5"/>
     </g>
     <g id="line2d_38">
      <g>
       <use xlink:href="#m5d4e55a789" x="141.12" y="354.165517" style="stroke: #000000; stroke-width: 0.8"/>
      </g>
     </g>
    </g>
    <g id="xtick_14">
     <g id="line2d_39">
      <path d="M 302.4 354.165517 
L 302.4 261.434483 
" clip-path="url(#pb3e5e86068)" style="fill: none; stroke-dasharray: 1.85,0.8; stroke-dashoffset: 0; stroke: #b2b2b2; stroke-width: 0.5"/>
     </g>
     <g id="line2d_40">
      <g>
       <use xlink:href="#m5d4e55a789" x="302.4" y="354.165517" style="stroke: #000000; stroke-width: 0.8"/>
      </g>
     </g>
    </g>
    <g id="xtick_15">
     <g id="line2d_41">
      <path d="M 463.68 354.165517 
L 463.68 261.434483 
" clip-path="url(#pb3e5e86068)" style="fill: none; stroke-dasharray: 1.85,0.8; stroke-dashoffset: 0; stroke: #b2b2b2; stroke-width: 0.5"/>
     </g>
     <g id="line2d_42">
      <g>
       <use xlink:href="#m5d4e55a789" x="463.68" y="354.165517" style="stroke: #000000; stroke-width: 0.8"/>
      </g>
     </g>
    </g>
    <g id="xtick_16">
     <g id="line2d_43">
      <path d="M 624.96 354.165517 
L 624.96 261.434483 
" clip-path="url(#pb3e5e86068)" style="fill: none; stroke-dasharray: 1.85,0.8; stroke-dashoffset: 0; stroke: #b2b2b2; stroke-width: 0.5"/>
     </g>
     <g id="line2d_44">
      <g>
       <use xlink:href="#m5d4e55a789" x="624.96" y="354.165517" style="stroke: #000000; stroke-width: 0.8"/>
      </g>
     </g>
    </g>
    <g id="xtick_17">
     <g id="line2d_45">
      <path d="M 786.24 354.165517 
L 786.24 261.434483 
" clip-path="url(#pb3e5e86068)" style="fill: none; stroke-dasharray: 1.85,0.8; stroke-dashoffset: 0; stroke: #b2b2b2; stroke-width: 0.5"/>
     </g>
     <g id="line2d_46">
      <g>
       <use xlink:href="#m5d4e55a789" x="786.24" y="354.165517" style="stroke: #000000; stroke-width: 0.8"/>
      </g>
     </g>
    </g>
    <g id="xtick_18">
     <g id="line2d_47">
      <path d="M 947.52 354.165517 
L 947.52 261.434483 
" clip-path="url(#pb3e5e86068)" style="fill: none; stroke-dasharray: 1.85,0.8; stroke-dashoffset: 0; stroke: #b2b2b2; stroke-width: 0.5"/>
     </g>
     <g id="line2d_48">
      <g>
       <use xlink:href="#m5d4e55a789" x="947.52" y="354.165517" style="stroke: #000000; stroke-width: 0.8"/>
      </g>
     </g>
    </g>
   </g>
   <g id="matplotlib.axis_6">
    <g id="ytick_6">
     <g id="line2d_49">
      <path d="M 100.8 344.257618 
L 987.84 344.257618 
" clip-path="url(#pb3e5e86068)" style="fill: none; stroke-dasharray: 1.85,0.8; stroke-dashoffset: 0; stroke: #b2b2b2; stroke-width: 0.5"/>
     </g>
     <g id="line2d_50">
      <g>
       <use xlink:href="#m6ca5ee40d5" x="100.8" y="344.257618" style="stroke: #000000; stroke-width: 0.8"/>
      </g>
     </g>
     <g id="text_8">
      <!-- 0 V -->
      <g transform="translate(74.36625 349.576524) scale(0.14 -0.14)">
       <use xlink:href="#DejaVuSans-30"/>
       <use xlink:href="#DejaVuSans-20" x="63.623047"/>
       <use xlink:href="#DejaVuSans-56" x="95.410156"/>
      </g>
     </g>
    </g>
    <g id="ytick_7">
     <g id="line2d_51">
      <path d="M 100.8 299.325873 
L 987.84 299.325873 
" clip-path="url(#pb3e5e86068)" style="fill: none; stroke-dasharray: 1.85,0.8; stroke-dashoffset: 0; stroke: #b2b2b2; stroke-width: 0.5"/>
     </g>
     <g id="line2d_52">
      <g>
       <use xlink:href="#m6ca5ee40d5" x="100.8" y="299.325873" style="stroke: #000000; stroke-width: 0.8"/>
      </g>
     </g>
     <g id="text_9">
      <!-- 1 V -->
      <g transform="translate(74.36625 304.644779) scale(0.14 -0.14)">
       <use xlink:href="#DejaVuSans-31"/>
       <use xlink:href="#DejaVuSans-20" x="63.623047"/>
       <use xlink:href="#DejaVuSans-56" x="95.410156"/>
      </g>
     </g>
    </g>
    <g id="text_10">
     <g id="patch_15">
      <path d="M 34.8768 342.395313 
L 34.8768 273.204688 
L 11.247425 273.204688 
L 11.247425 342.395313 
z
" style="fill: #ffff00; opacity: 0.2; stroke: #eeeeee; stroke-width: 0.5; stroke-linejoin: miter"/>
     </g>
     <!-- CLK BUF -->
     <g transform="translate(26.925238 337.355313) rotate(-90) scale(0.14 -0.14)">
      <defs>
       <path id="DejaVuSans-43" d="M 4122 4306 
L 4122 3641 
Q 3803 3938 3442 4084 
Q 3081 4231 2675 4231 
Q 1875 4231 1450 3742 
Q 1025 3253 1025 2328 
Q 1025 1406 1450 917 
Q 1875 428 2675 428 
Q 3081 428 3442 575 
Q 3803 722 4122 1019 
L 4122 359 
Q 3791 134 3420 21 
Q 3050 -91 2638 -91 
Q 1578 -91 968 557 
Q 359 1206 359 2328 
Q 359 3453 968 4101 
Q 1578 4750 2638 4750 
Q 3056 4750 3426 4639 
Q 3797 4528 4122 4306 
z
" transform="scale(0.015625)"/>
       <path id="DejaVuSans-4b" d="M 628 4666 
L 1259 4666 
L 1259 2694 
L 3353 4666 
L 4166 4666 
L 1850 2491 
L 4331 0 
L 3500 0 
L 1259 2247 
L 1259 0 
L 628 0 
L 628 4666 
z
" transform="scale(0.015625)"/>
      </defs>
      <use xlink:href="#DejaVuSans-43"/>
      <use xlink:href="#DejaVuSans-4c" x="69.824219"/>
      <use xlink:href="#DejaVuSans-4b" x="125.537109"/>
      <use xlink:href="#DejaVuSans-20" x="191.113281"/>
      <use xlink:href="#DejaVuSans-42" x="222.900391"/>
      <use xlink:href="#DejaVuSans-55" x="291.503906"/>
      <use xlink:href="#DejaVuSans-46" x="364.697266"/>
     </g>
    </g>
   </g>
   <g id="line2d_53">
    <path d="M 141.12 344.25643 
L 173.376 344.25643 
L 173.601792 290.339524 
L 213.696 290.339524 
L 213.760512 333.347741 
L 213.825024 344.237091 
L 213.889536 344.172432 
L 213.954048 344.35193 
L 214.01856 344.262487 
L 215.3088 344.253508 
L 223.082496 344.256427 
L 254.016 344.256399 
L 254.17728 290.173276 
L 254.241792 290.46084 
L 254.403072 290.330537 
L 254.8224 290.339524 
L 294.336 290.339524 
L 294.400512 333.309998 
L 294.465024 344.592903 
L 294.529536 343.811706 
L 294.626304 344.328228 
L 294.65856 344.296255 
L 294.852096 344.217281 
L 295.206912 344.273968 
L 295.497216 344.25608 
L 319.624704 344.25643 
L 334.656 344.256432 
L 334.81728 290.258647 
L 334.881792 290.357496 
L 335.172096 290.344017 
L 374.976 290.339524 
L 375.040512 333.351785 
L 375.105024 344.258347 
L 375.169536 344.166735 
L 375.234048 344.345244 
L 375.29856 344.262637 
L 376.653312 344.253103 
L 384.685056 344.256393 
L 415.296 344.256432 
L 415.45728 290.173276 
L 415.521792 290.46084 
L 415.683072 290.326044 
L 416.553984 290.339524 
L 450.842112 290.411415 
L 452.487168 292.882661 
L 455.616 298.602472 
L 455.648256 299.258475 
L 455.745024 345.862805 
L 455.77728 345.794104 
L 455.906304 345.841777 
L 457.325568 345.811538 
L 464.32512 345.585082 
L 464.421888 345.575556 
L 464.550912 345.579375 
L 467.55072 345.482682 
L 467.905536 345.489062 
L 468.453888 345.494904 
L 469.744128 345.762203 
L 470.61504 346.193952 
L 476.74368 349.861056 
L 477.775872 349.356023 
L 479.32416 348.73291 
L 479.711232 348.600631 
L 484.872192 346.842092 
L 489.581568 345.476886 
L 490.000896 345.376419 
L 492.484608 344.816704 
L 495.936 344.207672 
L 495.968256 345.158095 
L 496.129536 319.034734 
L 496.290816 318.782217 
L 498.484224 317.434714 
L 500.903424 315.786618 
L 503.483904 314.038324 
L 505.29024 312.866953 
L 510.77376 309.635911 
L 515.418624 307.067163 
L 516.837888 304.256683 
L 519.611904 297.924002 
L 522.418176 291.552681 
L 523.095552 290.101386 
L 525.353472 285.338621 
L 530.869248 274.824592 
L 533.159424 270.906544 
L 533.901312 269.684401 
L 536.256 265.64953 
L 536.320512 343.407285 
L 536.449536 342.744901 
L 536.836608 342.749125 
L 541.029888 342.871833 
L 541.352448 343.216774 
L 542.029824 343.811473 
L 542.836224 344.209968 
L 543.868416 344.466092 
L 545.481216 344.618815 
L 552.513024 344.656185 
L 561.705984 344.731019 
L 564.64128 344.772895 
L 570.221568 344.712732 
L 576.576 344.641776 
L 576.705024 274.195548 
L 576.801792 274.334836 
L 586.768896 278.392173 
L 587.026944 278.495516 
L 588.768768 279.111081 
L 589.059072 279.214424 
L 590.155776 279.560398 
L 590.413824 279.663741 
L 591.41376 279.964784 
L 591.671808 280.063634 
L 592.123392 280.189443 
L 602.348544 282.930279 
L 602.800128 283.029129 
L 603.219456 283.136965 
L 603.864576 283.289733 
L 604.348416 283.388583 
L 604.703232 283.46946 
L 605.219328 283.56831 
L 605.638656 283.676146 
L 606.154752 283.779489 
L 607.86432 284.125463 
L 608.380416 284.228806 
L 610.76736 284.660151 
L 611.08992 284.723056 
L 614.444544 285.289196 
L 614.767104 285.3521 
L 616.896 285.666622 
L 616.928256 294.104804 
L 616.992768 345.303494 
L 617.05728 344.252718 
L 617.089536 344.774872 
L 617.154048 344.397149 
L 617.283072 344.384681 
L 619.3152 344.375434 
L 623.572992 344.361765 
L 627.766272 344.34789 
L 657.216 344.292381 
L 657.345024 288.699515 
L 657.441792 289.040996 
L 657.925632 289.081435 
L 661.151232 289.184778 
L 661.506048 289.21623 
L 665.11872 289.319573 
L 665.473536 289.351025 
L 669.570048 289.454368 
L 669.924864 289.485821 
L 674.79552 289.589164 
L 675.150336 289.620616 
L 681.08544 289.723959 
L 681.440256 289.755411 
L 689.020416 289.858754 
L 689.375232 289.890206 
L 697.536 289.890206 
L 697.665024 344.600906 
L 697.826304 344.339398 
L 698.084352 344.239294 
L 698.439168 344.288178 
L 698.761728 344.269063 
L 735.081984 344.269295 
L 737.856 344.269298 
L 738.01728 289.656561 
L 738.081792 290.16429 
L 738.17856 289.701493 
L 738.243072 289.872234 
L 738.694656 289.890206 
L 778.176 289.890206 
L 778.466304 344.369777 
L 778.627584 344.266545 
L 779.95008 344.266808 
L 788.239872 344.273078 
L 815.560704 344.269334 
L 818.496 344.269339 
L 818.65728 289.800343 
L 818.721792 289.908179 
L 819.62496 289.890206 
L 858.816 289.890206 
L 859.106304 344.369777 
L 859.267584 344.266549 
L 860.59008 344.266811 
L 868.879872 344.273094 
L 896.200704 344.269334 
L 899.136 344.269339 
L 899.29728 289.800343 
L 899.361792 289.908179 
L 900.26496 289.890206 
L 939.456 289.890206 
L 939.488256 297.9914 
L 939.61728 344.215857 
L 939.649536 344.346511 
L 939.714048 344.22151 
L 939.746304 344.182083 
L 939.810816 344.240076 
L 940.004352 344.296187 
L 940.197888 344.268553 
L 945.391104 344.269304 
L 947.52 344.269287 
L 947.52 344.269287 
" clip-path="url(#pb3e5e86068)" style="fill: none; stroke: #0000ff; stroke-width: 2; stroke-linecap: square"/>
   </g>
   <g id="patch_16">
    <path d="M 100.8 354.165517 
L 100.8 261.434483 
" style="fill: none; stroke: #bcbcbc; stroke-width: 0.8; stroke-linejoin: miter; stroke-linecap: square"/>
   </g>
   <g id="patch_17">
    <path d="M 987.84 354.165517 
L 987.84 261.434483 
" style="fill: none; stroke: #bcbcbc; stroke-width: 0.8; stroke-linejoin: miter; stroke-linecap: square"/>
   </g>
   <g id="patch_18">
    <path d="M 100.8 354.165517 
L 987.84 354.165517 
" style="fill: none; stroke: #bcbcbc; stroke-width: 0.8; stroke-linejoin: miter; stroke-linecap: square"/>
   </g>
   <g id="patch_19">
    <path d="M 100.8 261.434483 
L 987.84 261.434483 
" style="fill: none; stroke: #bcbcbc; stroke-width: 0.8; stroke-linejoin: miter; stroke-linecap: square"/>
   </g>
  </g>
  <g id="axes_4">
   <g id="patch_20">
    <path d="M 100.8 465.442759 
L 987.84 465.442759 
L 987.84 372.711724 
L 100.8 372.711724 
z
" style="fill: #eeeeee"/>
   </g>
   <g id="matplotlib.axis_7">
    <g id="xtick_19">
     <g id="line2d_54">
      <path d="M 141.12 465.442759 
L 141.12 372.711724 
" clip-path="url(#p29821e9be9)" style="fill: none; stroke-dasharray: 1.85,0.8; stroke-dashoffset: 0; stroke: #b2b2b2; stroke-width: 0.5"/>
     </g>
     <g id="line2d_55">
      <g>
       <use xlink:href="#m5d4e55a789" x="141.12" y="465.442759" style="stroke: #000000; stroke-width: 0.8"/>
      </g>
     </g>
    </g>
    <g id="xtick_20">
     <g id="line2d_56">
      <path d="M 302.4 465.442759 
L 302.4 372.711724 
" clip-path="url(#p29821e9be9)" style="fill: none; stroke-dasharray: 1.85,0.8; stroke-dashoffset: 0; stroke: #b2b2b2; stroke-width: 0.5"/>
     </g>
     <g id="line2d_57">
      <g>
       <use xlink:href="#m5d4e55a789" x="302.4" y="465.442759" style="stroke: #000000; stroke-width: 0.8"/>
      </g>
     </g>
    </g>
    <g id="xtick_21">
     <g id="line2d_58">
      <path d="M 463.68 465.442759 
L 463.68 372.711724 
" clip-path="url(#p29821e9be9)" style="fill: none; stroke-dasharray: 1.85,0.8; stroke-dashoffset: 0; stroke: #b2b2b2; stroke-width: 0.5"/>
     </g>
     <g id="line2d_59">
      <g>
       <use xlink:href="#m5d4e55a789" x="463.68" y="465.442759" style="stroke: #000000; stroke-width: 0.8"/>
      </g>
     </g>
    </g>
    <g id="xtick_22">
     <g id="line2d_60">
      <path d="M 624.96 465.442759 
L 624.96 372.711724 
" clip-path="url(#p29821e9be9)" style="fill: none; stroke-dasharray: 1.85,0.8; stroke-dashoffset: 0; stroke: #b2b2b2; stroke-width: 0.5"/>
     </g>
     <g id="line2d_61">
      <g>
       <use xlink:href="#m5d4e55a789" x="624.96" y="465.442759" style="stroke: #000000; stroke-width: 0.8"/>
      </g>
     </g>
    </g>
    <g id="xtick_23">
     <g id="line2d_62">
      <path d="M 786.24 465.442759 
L 786.24 372.711724 
" clip-path="url(#p29821e9be9)" style="fill: none; stroke-dasharray: 1.85,0.8; stroke-dashoffset: 0; stroke: #b2b2b2; stroke-width: 0.5"/>
     </g>
     <g id="line2d_63">
      <g>
       <use xlink:href="#m5d4e55a789" x="786.24" y="465.442759" style="stroke: #000000; stroke-width: 0.8"/>
      </g>
     </g>
    </g>
    <g id="xtick_24">
     <g id="line2d_64">
      <path d="M 947.52 465.442759 
L 947.52 372.711724 
" clip-path="url(#p29821e9be9)" style="fill: none; stroke-dasharray: 1.85,0.8; stroke-dashoffset: 0; stroke: #b2b2b2; stroke-width: 0.5"/>
     </g>
     <g id="line2d_65">
      <g>
       <use xlink:href="#m5d4e55a789" x="947.52" y="465.442759" style="stroke: #000000; stroke-width: 0.8"/>
      </g>
     </g>
    </g>
   </g>
   <g id="matplotlib.axis_8">
    <g id="ytick_8">
     <g id="line2d_66">
      <path d="M 100.8 438.573656 
L 987.84 438.573656 
" clip-path="url(#p29821e9be9)" style="fill: none; stroke-dasharray: 1.85,0.8; stroke-dashoffset: 0; stroke: #b2b2b2; stroke-width: 0.5"/>
     </g>
     <g id="line2d_67">
      <g>
       <use xlink:href="#m6ca5ee40d5" x="100.8" y="438.573656" style="stroke: #000000; stroke-width: 0.8"/>
      </g>
     </g>
     <g id="text_11">
      <!-- 0 V -->
      <g transform="translate(74.36625 443.892563) scale(0.14 -0.14)">
       <use xlink:href="#DejaVuSans-30"/>
       <use xlink:href="#DejaVuSans-20" x="63.623047"/>
       <use xlink:href="#DejaVuSans-56" x="95.410156"/>
      </g>
     </g>
    </g>
    <g id="ytick_9">
     <g id="line2d_68">
      <path d="M 100.8 398.734646 
L 987.84 398.734646 
" clip-path="url(#p29821e9be9)" style="fill: none; stroke-dasharray: 1.85,0.8; stroke-dashoffset: 0; stroke: #b2b2b2; stroke-width: 0.5"/>
     </g>
     <g id="line2d_69">
      <g>
       <use xlink:href="#m6ca5ee40d5" x="100.8" y="398.734646" style="stroke: #000000; stroke-width: 0.8"/>
      </g>
     </g>
     <g id="text_12">
      <!-- 1 V -->
      <g transform="translate(74.36625 404.053552) scale(0.14 -0.14)">
       <use xlink:href="#DejaVuSans-31"/>
       <use xlink:href="#DejaVuSans-20" x="63.623047"/>
       <use xlink:href="#DejaVuSans-56" x="95.410156"/>
      </g>
     </g>
    </g>
    <g id="text_13">
     <g id="patch_21">
      <path d="M 34.8768 454.693023 
L 34.8768 383.46146 
L 11.247425 383.46146 
L 11.247425 454.693023 
z
" style="fill: #ffff00; opacity: 0.2; stroke: #eeeeee; stroke-width: 0.5; stroke-linejoin: miter"/>
     </g>
     <!-- DFF OUT -->
     <g transform="translate(26.925238 449.653023) rotate(-90) scale(0.14 -0.14)">
      <defs>
       <path id="DejaVuSans-4f" d="M 2522 4238 
Q 1834 4238 1429 3725 
Q 1025 3213 1025 2328 
Q 1025 1447 1429 934 
Q 1834 422 2522 422 
Q 3209 422 3611 934 
Q 4013 1447 4013 2328 
Q 4013 3213 3611 3725 
Q 3209 4238 2522 4238 
z
M 2522 4750 
Q 3503 4750 4090 4092 
Q 4678 3434 4678 2328 
Q 4678 1225 4090 567 
Q 3503 -91 2522 -91 
Q 1538 -91 948 565 
Q 359 1222 359 2328 
Q 359 3434 948 4092 
Q 1538 4750 2522 4750 
z
" transform="scale(0.015625)"/>
       <path id="DejaVuSans-54" d="M -19 4666 
L 3928 4666 
L 3928 4134 
L 2272 4134 
L 2272 0 
L 1638 0 
L 1638 4134 
L -19 4134 
L -19 4666 
z
" transform="scale(0.015625)"/>
      </defs>
      <use xlink:href="#DejaVuSans-44"/>
      <use xlink:href="#DejaVuSans-46" x="77.001953"/>
      <use xlink:href="#DejaVuSans-46" x="134.521484"/>
      <use xlink:href="#DejaVuSans-20" x="192.041016"/>
      <use xlink:href="#DejaVuSans-4f" x="223.828125"/>
      <use xlink:href="#DejaVuSans-55" x="302.539062"/>
      <use xlink:href="#DejaVuSans-54" x="375.732422"/>
     </g>
    </g>
   </g>
   <g id="line2d_70">
    <path d="M 141.12 408.513928 
L 173.408256 408.562531 
L 173.440512 410.211866 
L 173.601792 438.576088 
L 174.117888 438.571461 
L 184.34304 438.572604 
L 254.048256 438.574263 
L 254.080512 438.733522 
L 254.112768 438.470087 
L 254.306304 434.580592 
L 254.596608 433.800943 
L 254.693376 433.24479 
L 255.14496 426.264996 
L 255.370752 409.860088 
L 255.596544 391.153282 
L 255.757824 390.826602 
L 255.983616 390.76286 
L 256.91904 390.766844 
L 295.755264 390.846522 
L 296.239104 393.424106 
L 296.59392 392.778714 
L 297.948672 391.093523 
L 299.593728 390.798715 
L 334.688256 390.782779 
L 334.720512 390.667246 
L 334.752768 391.252879 
L 334.785024 394.149176 
L 334.914048 438.557326 
L 334.97856 438.522264 
L 335.13984 438.565307 
L 335.494656 438.573078 
L 366.782976 438.572559 
L 415.328256 438.574239 
L 415.360512 438.732969 
L 415.392768 438.472294 
L 415.586304 434.487768 
L 415.876608 433.573462 
L 415.908864 433.463905 
L 416.1024 428.739397 
L 416.521728 414.985377 
L 416.9088 390.898312 
L 417.102336 390.770827 
L 417.811968 390.794731 
L 450.874368 390.866441 
L 452.487168 393.025715 
L 454.196736 395.762655 
L 458.744832 403.272707 
L 459.32544 404.70492 
L 459.97056 407.063788 
L 460.486656 408.99837 
L 460.583424 409.375247 
L 461.067264 411.570775 
L 461.90592 415.386954 
L 461.938176 415.104495 
L 462.002688 415.506869 
L 462.22848 416.98649 
L 462.422016 417.898803 
L 462.518784 417.836256 
L 462.583296 417.955375 
L 462.776832 419.600328 
L 463.68 423.833621 
L 463.712256 423.413319 
L 463.744512 423.997359 
L 463.776768 423.644386 
L 463.938048 425.00927 
L 464.873472 429.287183 
L 466.195968 435.068302 
L 466.228224 434.995436 
L 466.292736 434.781262 
L 466.647552 436.960814 
L 466.873344 437.478442 
L 466.9056 437.338448 
L 466.937856 438.255566 
L 467.034624 437.889621 
L 467.486208 440.345257 
L 467.518464 440.087937 
L 467.55072 440.193192 
L 467.679744 440.720541 
L 467.712 440.618195 
L 467.744256 440.862288 
L 467.905536 441.90603 
L 468.228096 442.942801 
L 468.292608 442.863123 
L 468.324864 443.213308 
L 468.421632 443.100962 
L 468.615168 443.562297 
L 468.776448 444.392542 
L 468.808704 444.127613 
L 468.873216 444.329198 
L 469.16352 445.41999 
L 470.1312 447.06574 
L 470.260224 447.752565 
L 470.29248 447.554565 
L 470.356992 447.737027 
L 470.679552 448.811884 
L 471.002112 449.538149 
L 471.034368 449.482374 
L 471.066624 449.423014 
L 471.09888 449.528189 
L 471.227904 449.971597 
L 471.26016 449.855666 
L 471.356928 450.302261 
L 471.389184 450.164817 
L 471.518208 450.614998 
L 471.550464 450.610615 
L 471.58272 450.654837 
L 471.776256 451.428908 
L 472.260096 452.398988 
L 472.292352 452.337238 
L 472.421376 452.814509 
L 472.453632 452.617705 
L 472.518144 452.790207 
L 472.647168 453.098561 
L 472.71168 453.494163 
L 472.776192 453.38341 
L 472.969728 453.865462 
L 473.389056 454.968605 
L 473.421312 454.89052 
L 473.485824 454.990914 
L 473.743872 455.490097 
L 473.776128 455.774149 
L 473.872896 455.741481 
L 473.969664 456.039477 
L 474.130944 456.517545 
L 476.646912 461.214963 
L 476.937216 461.021744 
L 477.22752 460.450851 
L 477.292032 460.351253 
L 477.969408 458.93418 
L 478.03392 458.979995 
L 478.614528 457.997565 
L 478.711296 457.165726 
L 478.743552 457.81072 
L 478.808064 457.668893 
L 478.937088 457.433843 
L 480.033792 455.818769 
L 480.098304 455.74666 
L 480.13056 455.919163 
L 480.195072 455.680926 
L 480.227328 455.749848 
L 480.259584 455.657023 
L 480.485376 455.321977 
L 480.517632 455.377751 
L 480.549888 455.318391 
L 480.678912 455.265007 
L 482.194944 453.287 
L 482.904576 452.624079 
L 483.130368 452.450381 
L 483.581952 452.08426 
L 484.033536 451.321742 
L 484.743168 450.519384 
L 485.388288 449.943312 
L 485.4528 449.897895 
L 485.485056 450.07996 
L 485.549568 449.825787 
L 486.484992 449.106294 
L 486.710784 448.55054 
L 486.872064 448.305928 
L 486.90432 448.480423 
L 486.936576 448.258918 
L 487.001088 448.174858 
L 487.033344 448.401144 
L 487.0656 448.08044 
L 487.097856 448.063707 
L 487.194624 448.340588 
L 487.162368 447.991599 
L 487.22688 448.300749 
L 487.38816 447.772484 
L 487.420416 448.113108 
L 487.452672 447.65974 
L 487.484928 447.674082 
L 488.065536 447.187647 
L 488.51712 446.975704 
L 488.710656 446.879293 
L 489.32352 446.279716 
L 489.452544 446.07096 
L 489.581568 445.682131 
L 489.613824 445.904433 
L 489.64608 445.569387 
L 489.678336 445.593689 
L 489.742848 445.761411 
L 489.871872 445.339914 
L 489.904128 445.364614 
L 490.033152 445.141117 
L 490.194432 444.971403 
L 490.226688 445.373379 
L 490.323456 445.279359 
L 490.45248 444.691733 
L 490.484736 444.714442 
L 490.516992 445.120003 
L 490.549248 444.638349 
L 490.581504 444.64791 
L 490.678272 444.573412 
L 490.807296 444.688546 
L 490.93632 444.373021 
L 490.968576 444.376607 
L 491.000832 444.683766 
L 491.033088 444.306092 
L 491.065344 444.316848 
L 491.0976 444.523613 
L 491.129856 444.279001 
L 491.162112 444.275416 
L 491.25888 444.25948 
L 491.291136 444.377802 
L 491.323392 444.19773 
L 491.355648 444.210877 
L 491.387904 444.262667 
L 491.452416 444.19773 
L 491.74272 444.064269 
L 492.516864 443.353541 
L 492.87168 442.998974 
L 493.000704 442.377127 
L 493.03296 442.508117 
L 493.065216 442.350156 
L 493.097472 442.42569 
L 493.161984 442.455331 
L 493.258752 442.071203 
L 493.323264 442.565924 
L 493.35552 442.000489 
L 493.387776 441.993238 
L 493.420032 442.469394 
L 493.452288 441.880812 
L 493.484544 441.897027 
L 493.581312 441.831014 
L 493.613568 442.180083 
L 493.67808 442.053355 
L 493.742592 441.671657 
L 493.774848 442.099688 
L 493.968384 441.54246 
L 494.516736 441.382984 
L 494.678016 441.323225 
L 495.936 440.079173 
L 496.161792 439.111403 
L 496.194048 439.490751 
L 496.25856 439.230721 
L 496.323072 439.371552 
L 496.484352 438.723985 
L 496.516608 438.742136 
L 496.548864 438.626344 
L 496.58112 439.099452 
L 496.677888 438.913025 
L 496.710144 438.583712 
L 496.806912 438.60485 
L 496.871424 438.60927 
L 496.90368 438.555286 
L 497.742336 437.08069 
L 497.87136 436.1081 
L 497.903616 436.715326 
L 497.968128 436.016231 
L 498.129408 436.373507 
L 498.19392 435.941493 
L 498.258432 436.052006 
L 498.51648 435.64282 
L 499.548672 433.741583 
L 499.580928 433.181048 
L 499.677696 433.290605 
L 499.774464 433.245189 
L 500.742144 431.403033 
L 500.7744 431.438091 
L 500.806656 431.313794 
L 500.903424 431.210212 
L 503.483904 426.423953 
L 503.51616 426.511201 
L 503.580672 426.58809 
L 503.612928 426.467776 
L 503.83872 426.186513 
L 504 425.923177 
L 504.193536 425.648288 
L 504.709632 424.597733 
L 504.870912 423.779838 
L 504.903168 423.711714 
L 504.935424 423.943178 
L 504.999936 423.632035 
L 505.516032 422.343243 
L 505.806336 421.502242 
L 506.451456 420.06007 
L 506.515968 420.125804 
L 506.58048 419.905893 
L 506.612736 419.311495 
L 506.709504 419.411092 
L 506.806272 419.591563 
L 506.838528 419.548537 
L 507.419136 418.493998 
L 507.644928 417.976091 
L 508.161024 417.156204 
L 508.225536 416.529138 
L 508.257792 416.568579 
L 508.290048 416.83072 
L 508.386816 416.787295 
L 508.580352 416.487706 
L 508.870656 415.868607 
L 509.902848 414.315683 
L 509.935104 414.314488 
L 510.096384 414.077047 
L 510.644736 413.530854 
L 510.676992 413.53683 
L 510.741504 413.367514 
L 510.77376 413.492609 
L 510.902784 414.523244 
L 511.064064 420.293925 
L 511.354368 438.009496 
L 511.90272 438.064036 
L 515.2896 438.139132 
L 515.547648 437.878824 
L 516.225024 437.384223 
L 517.095936 437.049934 
L 518.257152 436.865479 
L 520.160256 436.821218 
L 525.385728 437.002605 
L 535.28832 437.270801 
L 537.54624 437.253511 
L 541.126656 437.41462 
L 541.868544 438.089931 
L 542.674944 438.490218 
L 543.803904 438.76137 
L 545.481216 438.905153 
L 549.80352 438.945131 
L 562.480128 439.024793 
L 566.834688 439.016109 
L 576.608256 438.92959 
L 576.640512 439.249764 
L 576.89856 430.861222 
L 577.156608 428.850548 
L 577.317888 424.660679 
L 577.511424 409.51548 
L 577.833984 376.982546 
L 577.86624 376.926771 
L 577.930752 376.998481 
L 587.123712 380.293168 
L 587.446272 380.396749 
L 589.188096 380.930592 
L 589.575168 381.034173 
L 591.0912 381.488338 
L 591.510528 381.591919 
L 592.833024 381.966406 
L 593.252352 382.069987 
L 594.445824 382.400651 
L 595.381248 382.627734 
L 596.25216 382.842864 
L 596.639232 382.946446 
L 597.413376 383.121737 
L 597.897216 383.225319 
L 598.67136 383.40061 
L 599.058432 383.504192 
L 599.735808 383.639644 
L 600.12288 383.743226 
L 600.800256 383.878679 
L 601.284096 383.98226 
L 601.961472 384.117713 
L 602.445312 384.221294 
L 603.122688 384.356747 
L 603.606528 384.460328 
L 604.283904 384.595781 
L 604.864512 384.699362 
L 605.541888 384.834815 
L 606.122496 384.938396 
L 606.670848 385.03401 
L 607.186944 385.137591 
L 607.735296 385.233205 
L 608.34816 385.332802 
L 608.702976 385.392561 
L 609.31584 385.496142 
L 609.864192 385.591756 
L 610.477056 385.691354 
L 610.831872 385.751112 
L 611.541504 385.85071 
L 611.89632 385.910468 
L 612.605952 386.010066 
L 612.960768 386.069824 
L 613.6704 386.169422 
L 614.025216 386.22918 
L 614.734848 386.328778 
L 615.089664 386.388536 
L 615.896064 386.488134 
L 616.25088 386.547892 
L 616.992768 386.595699 
L 617.025024 386.679361 
L 617.121792 386.631554 
L 617.508864 386.707248 
L 618.412032 386.806846 
L 618.766848 386.866604 
L 619.670016 386.966202 
L 619.96032 386.986121 
L 620.734464 387.085719 
L 621.08928 387.145477 
L 622.089216 387.245075 
L 622.37952 387.264994 
L 623.153664 387.364592 
L 623.443968 387.384511 
L 624.31488 387.484109 
L 624.605184 387.504029 
L 625.476096 387.603626 
L 625.7664 387.623546 
L 626.637312 387.723143 
L 626.927616 387.743063 
L 627.895296 387.84266 
L 628.1856 387.86258 
L 629.250048 387.962177 
L 629.540352 387.982097 
L 630.6048 388.081694 
L 630.895104 388.101614 
L 632.05632 388.201211 
L 632.346624 388.221131 
L 633.50784 388.320728 
L 633.798144 388.340648 
L 635.152896 388.440245 
L 635.4432 388.460165 
L 636.797952 388.559762 
L 637.088256 388.579682 
L 638.539776 388.679279 
L 638.797824 388.695215 
L 640.378368 388.798796 
L 640.636416 388.814732 
L 642.313728 388.918313 
L 642.571776 388.934249 
L 644.442624 389.03783 
L 644.700672 389.053766 
L 646.668288 389.157347 
L 646.926336 389.173283 
L 649.087488 389.276865 
L 649.442304 389.296784 
L 651.700224 389.396382 
L 651.958272 389.412317 
L 654.603264 389.515899 
L 654.893568 389.535818 
L 657.248256 389.595577 
L 657.280512 389.850546 
L 657.345024 389.579641 
L 657.53856 389.607528 
L 660.022272 389.715094 
L 660.28032 389.731029 
L 663.796224 389.834611 
L 664.054272 389.850546 
L 668.054016 389.954128 
L 668.312064 389.970063 
L 672.989184 390.073645 
L 673.344 390.08958 
L 678.892032 390.193162 
L 679.246848 390.213081 
L 686.149632 390.312679 
L 686.504448 390.332598 
L 737.888256 390.36447 
L 737.920512 390.567648 
L 737.985024 390.36447 
L 738.17856 390.34455 
L 739.275264 390.368453 
L 818.528256 390.384389 
L 818.560512 390.519842 
L 818.625024 390.336582 
L 818.915328 390.360486 
L 899.168256 390.384389 
L 899.200512 390.519842 
L 899.265024 390.336582 
L 899.555328 390.360486 
L 947.52 390.368453 
L 947.52 390.368453 
" clip-path="url(#p29821e9be9)" style="fill: none; stroke: #ff00ff; stroke-width: 2; stroke-linecap: square"/>
   </g>
   <g id="patch_22">
    <path d="M 100.8 465.442759 
L 100.8 372.711724 
" style="fill: none; stroke: #bcbcbc; stroke-width: 0.8; stroke-linejoin: miter; stroke-linecap: square"/>
   </g>
   <g id="patch_23">
    <path d="M 987.84 465.442759 
L 987.84 372.711724 
" style="fill: none; stroke: #bcbcbc; stroke-width: 0.8; stroke-linejoin: miter; stroke-linecap: square"/>
   </g>
   <g id="patch_24">
    <path d="M 100.8 465.442759 
L 987.84 465.442759 
" style="fill: none; stroke: #bcbcbc; stroke-width: 0.8; stroke-linejoin: miter; stroke-linecap: square"/>
   </g>
   <g id="patch_25">
    <path d="M 100.8 372.711724 
L 987.84 372.711724 
" style="fill: none; stroke: #bcbcbc; stroke-width: 0.8; stroke-linejoin: miter; stroke-linecap: square"/>
   </g>
  </g>
  <g id="axes_5">
   <g id="patch_26">
    <path d="M 100.8 576.72 
L 987.84 576.72 
L 987.84 483.988966 
L 100.8 483.988966 
z
" style="fill: #eeeeee"/>
   </g>
   <g id="matplotlib.axis_9">
    <g id="xtick_25">
     <g id="line2d_71">
      <path d="M 141.12 576.72 
L 141.12 483.988966 
" clip-path="url(#p2fa49e4adf)" style="fill: none; stroke-dasharray: 1.85,0.8; stroke-dashoffset: 0; stroke: #b2b2b2; stroke-width: 0.5"/>
     </g>
     <g id="line2d_72">
      <g>
       <use xlink:href="#m5d4e55a789" x="141.12" y="576.72" style="stroke: #000000; stroke-width: 0.8"/>
      </g>
     </g>
     <g id="text_14">
      <!-- 0 s -->
      <g transform="translate(130.795 590.857813) scale(0.14 -0.14)">
       <defs>
        <path id="DejaVuSans-73" d="M 2834 3397 
L 2834 2853 
Q 2591 2978 2328 3040 
Q 2066 3103 1784 3103 
Q 1356 3103 1142 2972 
Q 928 2841 928 2578 
Q 928 2378 1081 2264 
Q 1234 2150 1697 2047 
L 1894 2003 
Q 2506 1872 2764 1633 
Q 3022 1394 3022 966 
Q 3022 478 2636 193 
Q 2250 -91 1575 -91 
Q 1294 -91 989 -36 
Q 684 19 347 128 
L 347 722 
Q 666 556 975 473 
Q 1284 391 1588 391 
Q 1994 391 2212 530 
Q 2431 669 2431 922 
Q 2431 1156 2273 1281 
Q 2116 1406 1581 1522 
L 1381 1569 
Q 847 1681 609 1914 
Q 372 2147 372 2553 
Q 372 3047 722 3315 
Q 1072 3584 1716 3584 
Q 2034 3584 2315 3537 
Q 2597 3491 2834 3397 
z
" transform="scale(0.015625)"/>
       </defs>
       <use xlink:href="#DejaVuSans-30"/>
       <use xlink:href="#DejaVuSans-20" x="63.623047"/>
       <use xlink:href="#DejaVuSans-73" x="95.410156"/>
      </g>
     </g>
    </g>
    <g id="xtick_26">
     <g id="line2d_73">
      <path d="M 302.4 576.72 
L 302.4 483.988966 
" clip-path="url(#p2fa49e4adf)" style="fill: none; stroke-dasharray: 1.85,0.8; stroke-dashoffset: 0; stroke: #b2b2b2; stroke-width: 0.5"/>
     </g>
     <g id="line2d_74">
      <g>
       <use xlink:href="#m5d4e55a789" x="302.4" y="576.72" style="stroke: #000000; stroke-width: 0.8"/>
      </g>
     </g>
     <g id="text_15">
      <!-- 50 ns -->
      <g transform="translate(283.185 590.857813) scale(0.14 -0.14)">
       <defs>
        <path id="DejaVuSans-35" d="M 691 4666 
L 3169 4666 
L 3169 4134 
L 1269 4134 
L 1269 2991 
Q 1406 3038 1543 3061 
Q 1681 3084 1819 3084 
Q 2600 3084 3056 2656 
Q 3513 2228 3513 1497 
Q 3513 744 3044 326 
Q 2575 -91 1722 -91 
Q 1428 -91 1123 -41 
Q 819 9 494 109 
L 494 744 
Q 775 591 1075 516 
Q 1375 441 1709 441 
Q 2250 441 2565 725 
Q 2881 1009 2881 1497 
Q 2881 1984 2565 2268 
Q 2250 2553 1709 2553 
Q 1456 2553 1204 2497 
Q 953 2441 691 2322 
L 691 4666 
z
" transform="scale(0.015625)"/>
        <path id="DejaVuSans-6e" d="M 3513 2113 
L 3513 0 
L 2938 0 
L 2938 2094 
Q 2938 2591 2744 2837 
Q 2550 3084 2163 3084 
Q 1697 3084 1428 2787 
Q 1159 2491 1159 1978 
L 1159 0 
L 581 0 
L 581 3500 
L 1159 3500 
L 1159 2956 
Q 1366 3272 1645 3428 
Q 1925 3584 2291 3584 
Q 2894 3584 3203 3211 
Q 3513 2838 3513 2113 
z
" transform="scale(0.015625)"/>
       </defs>
       <use xlink:href="#DejaVuSans-35"/>
       <use xlink:href="#DejaVuSans-30" x="63.623047"/>
       <use xlink:href="#DejaVuSans-20" x="127.246094"/>
       <use xlink:href="#DejaVuSans-6e" x="159.033203"/>
       <use xlink:href="#DejaVuSans-73" x="222.412109"/>
      </g>
     </g>
    </g>
    <g id="xtick_27">
     <g id="line2d_75">
      <path d="M 463.68 576.72 
L 463.68 483.988966 
" clip-path="url(#p2fa49e4adf)" style="fill: none; stroke-dasharray: 1.85,0.8; stroke-dashoffset: 0; stroke: #b2b2b2; stroke-width: 0.5"/>
     </g>
     <g id="line2d_76">
      <g>
       <use xlink:href="#m5d4e55a789" x="463.68" y="576.72" style="stroke: #000000; stroke-width: 0.8"/>
      </g>
     </g>
     <g id="text_16">
      <!-- 100 ns -->
      <g transform="translate(440.01125 590.857813) scale(0.14 -0.14)">
       <use xlink:href="#DejaVuSans-31"/>
       <use xlink:href="#DejaVuSans-30" x="63.623047"/>
       <use xlink:href="#DejaVuSans-30" x="127.246094"/>
       <use xlink:href="#DejaVuSans-20" x="190.869141"/>
       <use xlink:href="#DejaVuSans-6e" x="222.65625"/>
       <use xlink:href="#DejaVuSans-73" x="286.035156"/>
      </g>
     </g>
    </g>
    <g id="xtick_28">
     <g id="line2d_77">
      <path d="M 624.96 576.72 
L 624.96 483.988966 
" clip-path="url(#p2fa49e4adf)" style="fill: none; stroke-dasharray: 1.85,0.8; stroke-dashoffset: 0; stroke: #b2b2b2; stroke-width: 0.5"/>
     </g>
     <g id="line2d_78">
      <g>
       <use xlink:href="#m5d4e55a789" x="624.96" y="576.72" style="stroke: #000000; stroke-width: 0.8"/>
      </g>
     </g>
     <g id="text_17">
      <!-- 150 ns -->
      <g transform="translate(601.29125 590.857813) scale(0.14 -0.14)">
       <use xlink:href="#DejaVuSans-31"/>
       <use xlink:href="#DejaVuSans-35" x="63.623047"/>
       <use xlink:href="#DejaVuSans-30" x="127.246094"/>
       <use xlink:href="#DejaVuSans-20" x="190.869141"/>
       <use xlink:href="#DejaVuSans-6e" x="222.65625"/>
       <use xlink:href="#DejaVuSans-73" x="286.035156"/>
      </g>
     </g>
    </g>
    <g id="xtick_29">
     <g id="line2d_79">
      <path d="M 786.24 576.72 
L 786.24 483.988966 
" clip-path="url(#p2fa49e4adf)" style="fill: none; stroke-dasharray: 1.85,0.8; stroke-dashoffset: 0; stroke: #b2b2b2; stroke-width: 0.5"/>
     </g>
     <g id="line2d_80">
      <g>
       <use xlink:href="#m5d4e55a789" x="786.24" y="576.72" style="stroke: #000000; stroke-width: 0.8"/>
      </g>
     </g>
     <g id="text_18">
      <!-- 200 ns -->
      <g transform="translate(762.57125 590.857813) scale(0.14 -0.14)">
       <use xlink:href="#DejaVuSans-32"/>
       <use xlink:href="#DejaVuSans-30" x="63.623047"/>
       <use xlink:href="#DejaVuSans-30" x="127.246094"/>
       <use xlink:href="#DejaVuSans-20" x="190.869141"/>
       <use xlink:href="#DejaVuSans-6e" x="222.65625"/>
       <use xlink:href="#DejaVuSans-73" x="286.035156"/>
      </g>
     </g>
    </g>
    <g id="xtick_30">
     <g id="line2d_81">
      <path d="M 947.52 576.72 
L 947.52 483.988966 
" clip-path="url(#p2fa49e4adf)" style="fill: none; stroke-dasharray: 1.85,0.8; stroke-dashoffset: 0; stroke: #b2b2b2; stroke-width: 0.5"/>
     </g>
     <g id="line2d_82">
      <g>
       <use xlink:href="#m5d4e55a789" x="947.52" y="576.72" style="stroke: #000000; stroke-width: 0.8"/>
      </g>
     </g>
     <g id="text_19">
      <!-- 250 ns -->
      <g transform="translate(923.85125 590.857813) scale(0.14 -0.14)">
       <use xlink:href="#DejaVuSans-32"/>
       <use xlink:href="#DejaVuSans-35" x="63.623047"/>
       <use xlink:href="#DejaVuSans-30" x="127.246094"/>
       <use xlink:href="#DejaVuSans-20" x="190.869141"/>
       <use xlink:href="#DejaVuSans-6e" x="222.65625"/>
       <use xlink:href="#DejaVuSans-73" x="286.035156"/>
      </g>
     </g>
    </g>
    <g id="text_20">
     <!-- Time -->
     <g transform="translate(527.192969 608.407187) scale(0.14 -0.14)">
      <defs>
       <path id="DejaVuSans-69" d="M 603 3500 
L 1178 3500 
L 1178 0 
L 603 0 
L 603 3500 
z
M 603 4863 
L 1178 4863 
L 1178 4134 
L 603 4134 
L 603 4863 
z
" transform="scale(0.015625)"/>
       <path id="DejaVuSans-6d" d="M 3328 2828 
Q 3544 3216 3844 3400 
Q 4144 3584 4550 3584 
Q 5097 3584 5394 3201 
Q 5691 2819 5691 2113 
L 5691 0 
L 5113 0 
L 5113 2094 
Q 5113 2597 4934 2840 
Q 4756 3084 4391 3084 
Q 3944 3084 3684 2787 
Q 3425 2491 3425 1978 
L 3425 0 
L 2847 0 
L 2847 2094 
Q 2847 2600 2669 2842 
Q 2491 3084 2119 3084 
Q 1678 3084 1418 2786 
Q 1159 2488 1159 1978 
L 1159 0 
L 581 0 
L 581 3500 
L 1159 3500 
L 1159 2956 
Q 1356 3278 1631 3431 
Q 1906 3584 2284 3584 
Q 2666 3584 2933 3390 
Q 3200 3197 3328 2828 
z
" transform="scale(0.015625)"/>
       <path id="DejaVuSans-65" d="M 3597 1894 
L 3597 1613 
L 953 1613 
Q 991 1019 1311 708 
Q 1631 397 2203 397 
Q 2534 397 2845 478 
Q 3156 559 3463 722 
L 3463 178 
Q 3153 47 2828 -22 
Q 2503 -91 2169 -91 
Q 1331 -91 842 396 
Q 353 884 353 1716 
Q 353 2575 817 3079 
Q 1281 3584 2069 3584 
Q 2775 3584 3186 3129 
Q 3597 2675 3597 1894 
z
M 3022 2063 
Q 3016 2534 2758 2815 
Q 2500 3097 2075 3097 
Q 1594 3097 1305 2825 
Q 1016 2553 972 2059 
L 3022 2063 
z
" transform="scale(0.015625)"/>
      </defs>
      <use xlink:href="#DejaVuSans-54"/>
      <use xlink:href="#DejaVuSans-69" x="57.958984"/>
      <use xlink:href="#DejaVuSans-6d" x="85.742188"/>
      <use xlink:href="#DejaVuSans-65" x="183.154297"/>
     </g>
    </g>
   </g>
   <g id="matplotlib.axis_10">
    <g id="ytick_10">
     <g id="line2d_83">
      <path d="M 100.8 569.745885 
L 987.84 569.745885 
" clip-path="url(#p2fa49e4adf)" style="fill: none; stroke-dasharray: 1.85,0.8; stroke-dashoffset: 0; stroke: #b2b2b2; stroke-width: 0.5"/>
     </g>
     <g id="line2d_84">
      <g>
       <use xlink:href="#m6ca5ee40d5" x="100.8" y="569.745885" style="stroke: #000000; stroke-width: 0.8"/>
      </g>
     </g>
     <g id="text_21">
      <!-- 0 V -->
      <g transform="translate(74.36625 575.064792) scale(0.14 -0.14)">
       <use xlink:href="#DejaVuSans-30"/>
       <use xlink:href="#DejaVuSans-20" x="63.623047"/>
       <use xlink:href="#DejaVuSans-56" x="95.410156"/>
      </g>
     </g>
    </g>
    <g id="ytick_11">
     <g id="line2d_85">
      <path d="M 100.8 535.950348 
L 987.84 535.950348 
" clip-path="url(#p2fa49e4adf)" style="fill: none; stroke-dasharray: 1.85,0.8; stroke-dashoffset: 0; stroke: #b2b2b2; stroke-width: 0.5"/>
     </g>
     <g id="line2d_86">
      <g>
       <use xlink:href="#m6ca5ee40d5" x="100.8" y="535.950348" style="stroke: #000000; stroke-width: 0.8"/>
      </g>
     </g>
     <g id="text_22">
      <!-- 500 mV -->
      <g transform="translate(42.914375 541.269254) scale(0.14 -0.14)">
       <use xlink:href="#DejaVuSans-35"/>
       <use xlink:href="#DejaVuSans-30" x="63.623047"/>
       <use xlink:href="#DejaVuSans-30" x="127.246094"/>
       <use xlink:href="#DejaVuSans-20" x="190.869141"/>
       <use xlink:href="#DejaVuSans-6d" x="222.65625"/>
       <use xlink:href="#DejaVuSans-56" x="320.068359"/>
      </g>
     </g>
    </g>
    <g id="ytick_12">
     <g id="line2d_87">
      <path d="M 100.8 502.15481 
L 987.84 502.15481 
" clip-path="url(#p2fa49e4adf)" style="fill: none; stroke-dasharray: 1.85,0.8; stroke-dashoffset: 0; stroke: #b2b2b2; stroke-width: 0.5"/>
     </g>
     <g id="line2d_88">
      <g>
       <use xlink:href="#m6ca5ee40d5" x="100.8" y="502.15481" style="stroke: #000000; stroke-width: 0.8"/>
      </g>
     </g>
     <g id="text_23">
      <!-- 1 V -->
      <g transform="translate(74.36625 507.473717) scale(0.14 -0.14)">
       <use xlink:href="#DejaVuSans-31"/>
       <use xlink:href="#DejaVuSans-20" x="63.623047"/>
       <use xlink:href="#DejaVuSans-56" x="95.410156"/>
      </g>
     </g>
    </g>
    <g id="text_24">
     <g id="patch_27">
      <path d="M 34.8768 554.329483 
L 34.8768 506.379483 
L 11.247425 506.379483 
L 11.247425 554.329483 
z
" style="fill: #ffff00; opacity: 0.2; stroke: #eeeeee; stroke-width: 0.5; stroke-linejoin: miter"/>
     </g>
     <!-- FOUT -->
     <g transform="translate(26.925238 549.289483) rotate(-90) scale(0.14 -0.14)">
      <use xlink:href="#DejaVuSans-46"/>
      <use xlink:href="#DejaVuSans-4f" x="57.519531"/>
      <use xlink:href="#DejaVuSans-55" x="136.230469"/>
      <use xlink:href="#DejaVuSans-54" x="209.423828"/>
     </g>
    </g>
   </g>
   <g id="line2d_89">
    <path d="M 141.12 488.636595 
L 173.472768 488.643355 
L 173.505024 488.44734 
L 173.569536 526.789729 
L 173.69856 572.504953 
L 173.730816 572.3695 
L 173.827584 567.842115 
L 173.892096 569.3609 
L 174.053376 570.064192 
L 174.117888 569.946665 
L 174.408192 569.492054 
L 174.440448 569.54151 
L 174.66624 569.729954 
L 176.182272 569.740151 
L 180.117504 569.761449 
L 193.568256 569.752159 
L 212.954112 569.74401 
L 255.30624 569.743704 
L 255.6288 488.52845 
L 255.854592 488.670391 
L 256.209408 488.629836 
L 334.849536 488.650114 
L 334.881792 492.854278 
L 335.043072 572.18376 
L 335.107584 570.261206 
L 335.172096 568.338639 
L 335.236608 568.870108 
L 335.365632 570.783003 
L 335.430144 570.410083 
L 335.591424 569.797213 
L 335.881728 569.648439 
L 336.559104 569.817924 
L 337.107456 569.746143 
L 350.009856 569.744206 
L 416.489472 569.74333 
L 416.553984 567.480841 
L 416.812032 488.204013 
L 416.844288 488.339195 
L 416.973312 488.852887 
L 417.037824 488.778537 
L 417.39264 488.548727 
L 417.844224 488.717705 
L 418.457088 488.562245 
L 419.328 488.636595 
L 462.196224 488.569004 
L 462.22848 488.4541 
L 462.260736 488.562245 
L 462.325248 512.471912 
L 462.486528 569.741512 
L 465.2928 569.744205 
L 508.709376 569.718493 
L 508.741632 569.456629 
L 508.806144 554.732556 
L 509.031936 488.765018 
L 509.193216 488.643355 
L 509.741568 488.636595 
L 510.902784 488.636595 
L 510.999552 513.544582 
L 511.160832 570.892973 
L 511.2576 569.751668 
L 511.838208 569.744206 
L 577.479168 569.849448 
L 577.511424 570.048315 
L 577.575936 533.627243 
L 577.737216 488.954273 
L 577.86624 488.616318 
L 577.898496 488.636595 
L 947.52 488.636595 
L 947.52 488.636595 
" clip-path="url(#p2fa49e4adf)" style="fill: none; stroke: #ff00ff; stroke-width: 2; stroke-linecap: square"/>
   </g>
   <g id="patch_28">
    <path d="M 100.8 576.72 
L 100.8 483.988966 
" style="fill: none; stroke: #bcbcbc; stroke-width: 0.8; stroke-linejoin: miter; stroke-linecap: square"/>
   </g>
   <g id="patch_29">
    <path d="M 987.84 576.72 
L 987.84 483.988966 
" style="fill: none; stroke: #bcbcbc; stroke-width: 0.8; stroke-linejoin: miter; stroke-linecap: square"/>
   </g>
   <g id="patch_30">
    <path d="M 100.8 576.72 
L 987.84 576.72 
" style="fill: none; stroke: #bcbcbc; stroke-width: 0.8; stroke-linejoin: miter; stroke-linecap: square"/>
   </g>
   <g id="patch_31">
    <path d="M 100.8 483.988966 
L 987.84 483.988966 
" style="fill: none; stroke: #bcbcbc; stroke-width: 0.8; stroke-linejoin: miter; stroke-linecap: square"/>
   </g>
  </g>
  <g id="axes_6">
   <g id="patch_32">
    <path d="M 201.6 628.56 
L 856.8 628.56 
L 856.8 615.6 
L 201.6 615.6 
z
" clip-path="url(#p4d08dc1d90)" style="fill: #d3d3d3"/>
   </g>
   <g id="patch_33">
    <path d="M 201.6 628.56 
L 576 628.56 
L 576 615.6 
L 201.6 615.6 
z
" clip-path="url(#p4d08dc1d90)" style="fill: #0000ff"/>
   </g>
   <g id="line2d_90">
    <path d="M 201.6 635.04 
L 201.6 609.12 
" clip-path="url(#p7ed35231a8)" style="fill: none; stroke: #ff0000; stroke-linecap: square"/>
   </g>
   <g id="line2d_91">
    <defs>
     <path id="m00707b41b4" d="M 0 5 
C 1.326016 5 2.597899 4.473168 3.535534 3.535534 
C 4.473168 2.597899 5 1.326016 5 0 
C 5 -1.326016 4.473168 -2.597899 3.535534 -3.535534 
C 2.597899 -4.473168 1.326016 -5 0 -5 
C -1.326016 -5 -2.597899 -4.473168 -3.535534 -3.535534 
C -4.473168 -2.597899 -5 -1.326016 -5 0 
C -5 1.326016 -4.473168 2.597899 -3.535534 3.535534 
C -2.597899 4.473168 -1.326016 5 0 5 
z
" style="stroke: #bfbfbf"/>
    </defs>
    <g>
     <use xlink:href="#m00707b41b4" x="576" y="622.08" style="fill: #ffffff; stroke: #bfbfbf"/>
    </g>
   </g>
   <g id="text_25">
    <!-- #Sweep -->
    <g transform="translate(138.622875 625.39125) scale(0.12 -0.12)">
     <defs>
      <path id="DejaVuSans-23" d="M 3272 2816 
L 2363 2816 
L 2100 1772 
L 3016 1772 
L 3272 2816 
z
M 2803 4594 
L 2478 3297 
L 3391 3297 
L 3719 4594 
L 4219 4594 
L 3897 3297 
L 4872 3297 
L 4872 2816 
L 3775 2816 
L 3519 1772 
L 4513 1772 
L 4513 1294 
L 3397 1294 
L 3072 0 
L 2572 0 
L 2894 1294 
L 1978 1294 
L 1656 0 
L 1153 0 
L 1478 1294 
L 494 1294 
L 494 1772 
L 1594 1772 
L 1856 2816 
L 850 2816 
L 850 3297 
L 1978 3297 
L 2297 4594 
L 2803 4594 
z
" transform="scale(0.015625)"/>
      <path id="DejaVuSans-77" d="M 269 3500 
L 844 3500 
L 1563 769 
L 2278 3500 
L 2956 3500 
L 3675 769 
L 4391 3500 
L 4966 3500 
L 4050 0 
L 3372 0 
L 2619 2869 
L 1863 0 
L 1184 0 
L 269 3500 
z
" transform="scale(0.015625)"/>
      <path id="DejaVuSans-70" d="M 1159 525 
L 1159 -1331 
L 581 -1331 
L 581 3500 
L 1159 3500 
L 1159 2969 
Q 1341 3281 1617 3432 
Q 1894 3584 2278 3584 
Q 2916 3584 3314 3078 
Q 3713 2572 3713 1747 
Q 3713 922 3314 415 
Q 2916 -91 2278 -91 
Q 1894 -91 1617 61 
Q 1341 213 1159 525 
z
M 3116 1747 
Q 3116 2381 2855 2742 
Q 2594 3103 2138 3103 
Q 1681 3103 1420 2742 
Q 1159 2381 1159 1747 
Q 1159 1113 1420 752 
Q 1681 391 2138 391 
Q 2594 391 2855 752 
Q 3116 1113 3116 1747 
z
" transform="scale(0.015625)"/>
     </defs>
     <use xlink:href="#DejaVuSans-23"/>
     <use xlink:href="#DejaVuSans-53" x="83.789062"/>
     <use xlink:href="#DejaVuSans-77" x="147.265625"/>
     <use xlink:href="#DejaVuSans-65" x="229.052734"/>
     <use xlink:href="#DejaVuSans-65" x="290.576172"/>
     <use xlink:href="#DejaVuSans-70" x="352.099609"/>
    </g>
   </g>
   <g id="text_26">
    <!-- $\mathdefault{80}$ -->
    <g transform="translate(869.904 625.39125) scale(0.12 -0.12)">
     <defs>
      <path id="DejaVuSans-38" d="M 2034 2216 
Q 1584 2216 1326 1975 
Q 1069 1734 1069 1313 
Q 1069 891 1326 650 
Q 1584 409 2034 409 
Q 2484 409 2743 651 
Q 3003 894 3003 1313 
Q 3003 1734 2745 1975 
Q 2488 2216 2034 2216 
z
M 1403 2484 
Q 997 2584 770 2862 
Q 544 3141 544 3541 
Q 544 4100 942 4425 
Q 1341 4750 2034 4750 
Q 2731 4750 3128 4425 
Q 3525 4100 3525 3541 
Q 3525 3141 3298 2862 
Q 3072 2584 2669 2484 
Q 3125 2378 3379 2068 
Q 3634 1759 3634 1313 
Q 3634 634 3220 271 
Q 2806 -91 2034 -91 
Q 1263 -91 848 271 
Q 434 634 434 1313 
Q 434 1759 690 2068 
Q 947 2378 1403 2484 
z
M 1172 3481 
Q 1172 3119 1398 2916 
Q 1625 2713 2034 2713 
Q 2441 2713 2670 2916 
Q 2900 3119 2900 3481 
Q 2900 3844 2670 4047 
Q 2441 4250 2034 4250 
Q 1625 4250 1398 4047 
Q 1172 3844 1172 3481 
z
" transform="scale(0.015625)"/>
     </defs>
     <use xlink:href="#DejaVuSans-38" transform="translate(0 0.78125)"/>
     <use xlink:href="#DejaVuSans-30" transform="translate(63.623047 0.78125)"/>
    </g>
   </g>
  </g>
  <g id="text_27">
   <!-- DFF under BBI sweep analysis (Sweep = 90E-9) -->
   <g transform="translate(313.34625 25.1175) scale(0.16 -0.16)">
    <defs>
     <path id="DejaVuSans-75" d="M 544 1381 
L 544 3500 
L 1119 3500 
L 1119 1403 
Q 1119 906 1312 657 
Q 1506 409 1894 409 
Q 2359 409 2629 706 
Q 2900 1003 2900 1516 
L 2900 3500 
L 3475 3500 
L 3475 0 
L 2900 0 
L 2900 538 
Q 2691 219 2414 64 
Q 2138 -91 1772 -91 
Q 1169 -91 856 284 
Q 544 659 544 1381 
z
M 1991 3584 
L 1991 3584 
z
" transform="scale(0.015625)"/>
     <path id="DejaVuSans-64" d="M 2906 2969 
L 2906 4863 
L 3481 4863 
L 3481 0 
L 2906 0 
L 2906 525 
Q 2725 213 2448 61 
Q 2172 -91 1784 -91 
Q 1150 -91 751 415 
Q 353 922 353 1747 
Q 353 2572 751 3078 
Q 1150 3584 1784 3584 
Q 2172 3584 2448 3432 
Q 2725 3281 2906 2969 
z
M 947 1747 
Q 947 1113 1208 752 
Q 1469 391 1925 391 
Q 2381 391 2643 752 
Q 2906 1113 2906 1747 
Q 2906 2381 2643 2742 
Q 2381 3103 1925 3103 
Q 1469 3103 1208 2742 
Q 947 2381 947 1747 
z
" transform="scale(0.015625)"/>
     <path id="DejaVuSans-72" d="M 2631 2963 
Q 2534 3019 2420 3045 
Q 2306 3072 2169 3072 
Q 1681 3072 1420 2755 
Q 1159 2438 1159 1844 
L 1159 0 
L 581 0 
L 581 3500 
L 1159 3500 
L 1159 2956 
Q 1341 3275 1631 3429 
Q 1922 3584 2338 3584 
Q 2397 3584 2469 3576 
Q 2541 3569 2628 3553 
L 2631 2963 
z
" transform="scale(0.015625)"/>
     <path id="DejaVuSans-61" d="M 2194 1759 
Q 1497 1759 1228 1600 
Q 959 1441 959 1056 
Q 959 750 1161 570 
Q 1363 391 1709 391 
Q 2188 391 2477 730 
Q 2766 1069 2766 1631 
L 2766 1759 
L 2194 1759 
z
M 3341 1997 
L 3341 0 
L 2766 0 
L 2766 531 
Q 2569 213 2275 61 
Q 1981 -91 1556 -91 
Q 1019 -91 701 211 
Q 384 513 384 1019 
Q 384 1609 779 1909 
Q 1175 2209 1959 2209 
L 2766 2209 
L 2766 2266 
Q 2766 2663 2505 2880 
Q 2244 3097 1772 3097 
Q 1472 3097 1187 3025 
Q 903 2953 641 2809 
L 641 3341 
Q 956 3463 1253 3523 
Q 1550 3584 1831 3584 
Q 2591 3584 2966 3190 
Q 3341 2797 3341 1997 
z
" transform="scale(0.015625)"/>
     <path id="DejaVuSans-6c" d="M 603 4863 
L 1178 4863 
L 1178 0 
L 603 0 
L 603 4863 
z
" transform="scale(0.015625)"/>
     <path id="DejaVuSans-79" d="M 2059 -325 
Q 1816 -950 1584 -1140 
Q 1353 -1331 966 -1331 
L 506 -1331 
L 506 -850 
L 844 -850 
Q 1081 -850 1212 -737 
Q 1344 -625 1503 -206 
L 1606 56 
L 191 3500 
L 800 3500 
L 1894 763 
L 2988 3500 
L 3597 3500 
L 2059 -325 
z
" transform="scale(0.015625)"/>
     <path id="DejaVuSans-28" d="M 1984 4856 
Q 1566 4138 1362 3434 
Q 1159 2731 1159 2009 
Q 1159 1288 1364 580 
Q 1569 -128 1984 -844 
L 1484 -844 
Q 1016 -109 783 600 
Q 550 1309 550 2009 
Q 550 2706 781 3412 
Q 1013 4119 1484 4856 
L 1984 4856 
z
" transform="scale(0.015625)"/>
     <path id="DejaVuSans-3d" d="M 678 2906 
L 4684 2906 
L 4684 2381 
L 678 2381 
L 678 2906 
z
M 678 1631 
L 4684 1631 
L 4684 1100 
L 678 1100 
L 678 1631 
z
" transform="scale(0.015625)"/>
     <path id="DejaVuSans-39" d="M 703 97 
L 703 672 
Q 941 559 1184 500 
Q 1428 441 1663 441 
Q 2288 441 2617 861 
Q 2947 1281 2994 2138 
Q 2813 1869 2534 1725 
Q 2256 1581 1919 1581 
Q 1219 1581 811 2004 
Q 403 2428 403 3163 
Q 403 3881 828 4315 
Q 1253 4750 1959 4750 
Q 2769 4750 3195 4129 
Q 3622 3509 3622 2328 
Q 3622 1225 3098 567 
Q 2575 -91 1691 -91 
Q 1453 -91 1209 -44 
Q 966 3 703 97 
z
M 1959 2075 
Q 2384 2075 2632 2365 
Q 2881 2656 2881 3163 
Q 2881 3666 2632 3958 
Q 2384 4250 1959 4250 
Q 1534 4250 1286 3958 
Q 1038 3666 1038 3163 
Q 1038 2656 1286 2365 
Q 1534 2075 1959 2075 
z
" transform="scale(0.015625)"/>
     <path id="DejaVuSans-2d" d="M 313 2009 
L 1997 2009 
L 1997 1497 
L 313 1497 
L 313 2009 
z
" transform="scale(0.015625)"/>
     <path id="DejaVuSans-29" d="M 513 4856 
L 1013 4856 
Q 1481 4119 1714 3412 
Q 1947 2706 1947 2009 
Q 1947 1309 1714 600 
Q 1481 -109 1013 -844 
L 513 -844 
Q 928 -128 1133 580 
Q 1338 1288 1338 2009 
Q 1338 2731 1133 3434 
Q 928 4138 513 4856 
z
" transform="scale(0.015625)"/>
    </defs>
    <use xlink:href="#DejaVuSans-44"/>
    <use xlink:href="#DejaVuSans-46" x="77.001953"/>
    <use xlink:href="#DejaVuSans-46" x="134.521484"/>
    <use xlink:href="#DejaVuSans-20" x="192.041016"/>
    <use xlink:href="#DejaVuSans-75" x="223.828125"/>
    <use xlink:href="#DejaVuSans-6e" x="287.207031"/>
    <use xlink:href="#DejaVuSans-64" x="350.585938"/>
    <use xlink:href="#DejaVuSans-65" x="414.0625"/>
    <use xlink:href="#DejaVuSans-72" x="475.585938"/>
    <use xlink:href="#DejaVuSans-20" x="516.699219"/>
    <use xlink:href="#DejaVuSans-42" x="548.486328"/>
    <use xlink:href="#DejaVuSans-42" x="617.089844"/>
    <use xlink:href="#DejaVuSans-49" x="685.693359"/>
    <use xlink:href="#DejaVuSans-20" x="715.185547"/>
    <use xlink:href="#DejaVuSans-73" x="746.972656"/>
    <use xlink:href="#DejaVuSans-77" x="799.072266"/>
    <use xlink:href="#DejaVuSans-65" x="880.859375"/>
    <use xlink:href="#DejaVuSans-65" x="942.382812"/>
    <use xlink:href="#DejaVuSans-70" x="1003.90625"/>
    <use xlink:href="#DejaVuSans-20" x="1067.382812"/>
    <use xlink:href="#DejaVuSans-61" x="1099.169922"/>
    <use xlink:href="#DejaVuSans-6e" x="1160.449219"/>
    <use xlink:href="#DejaVuSans-61" x="1223.828125"/>
    <use xlink:href="#DejaVuSans-6c" x="1285.107422"/>
    <use xlink:href="#DejaVuSans-79" x="1312.890625"/>
    <use xlink:href="#DejaVuSans-73" x="1372.070312"/>
    <use xlink:href="#DejaVuSans-69" x="1424.169922"/>
    <use xlink:href="#DejaVuSans-73" x="1451.953125"/>
    <use xlink:href="#DejaVuSans-20" x="1504.052734"/>
    <use xlink:href="#DejaVuSans-28" x="1535.839844"/>
    <use xlink:href="#DejaVuSans-53" x="1574.853516"/>
    <use xlink:href="#DejaVuSans-77" x="1638.330078"/>
    <use xlink:href="#DejaVuSans-65" x="1720.117188"/>
    <use xlink:href="#DejaVuSans-65" x="1781.640625"/>
    <use xlink:href="#DejaVuSans-70" x="1843.164062"/>
    <use xlink:href="#DejaVuSans-20" x="1906.640625"/>
    <use xlink:href="#DejaVuSans-3d" x="1938.427734"/>
    <use xlink:href="#DejaVuSans-20" x="2022.216797"/>
    <use xlink:href="#DejaVuSans-39" x="2054.003906"/>
    <use xlink:href="#DejaVuSans-30" x="2117.626953"/>
    <use xlink:href="#DejaVuSans-45" x="2181.25"/>
    <use xlink:href="#DejaVuSans-2d" x="2244.433594"/>
    <use xlink:href="#DejaVuSans-39" x="2280.517578"/>
    <use xlink:href="#DejaVuSans-29" x="2344.140625"/>
   </g>
  </g>
 </g>
 <defs>
  <clipPath id="pe719799842">
   <rect x="100.8" y="38.88" width="887.04" height="92.731034"/>
  </clipPath>
  <clipPath id="p39edc99733">
   <rect x="100.8" y="150.157241" width="887.04" height="92.731034"/>
  </clipPath>
  <clipPath id="pb3e5e86068">
   <rect x="100.8" y="261.434483" width="887.04" height="92.731034"/>
  </clipPath>
  <clipPath id="p29821e9be9">
   <rect x="100.8" y="372.711724" width="887.04" height="92.731034"/>
  </clipPath>
  <clipPath id="p2fa49e4adf">
   <rect x="100.8" y="483.988966" width="887.04" height="92.731034"/>
  </clipPath>
  <clipPath id="p4d08dc1d90">
   <rect x="201.6" y="609.12" width="655.2" height="25.92"/>
  </clipPath>
  <clipPath id="p7ed35231a8">
   <path d="M 201.6 628.56 
L 856.8 628.56 
L 856.8 615.6 
L 201.6 615.6 
z
"/>
  </clipPath>
 </defs>
</svg>
