<?xml version="1.0" encoding="utf-8" standalone="no"?>
<!DOCTYPE svg PUBLIC "-//W3C//DTD SVG 1.1//EN"
  "http://www.w3.org/Graphics/SVG/1.1/DTD/svg11.dtd">
<svg xmlns:xlink="http://www.w3.org/1999/xlink" width="1008pt" height="648pt" viewBox="0 0 1008 648" xmlns="http://www.w3.org/2000/svg" version="1.1">
 <metadata>
  <rdf:RDF xmlns:dc="http://purl.org/dc/elements/1.1/" xmlns:cc="http://creativecommons.org/ns#" xmlns:rdf="http://www.w3.org/1999/02/22-rdf-syntax-ns#">
   <cc:Work>
    <dc:type rdf:resource="http://purl.org/dc/dcmitype/StillImage"/>
    <dc:date>2024-06-03T10:45:40.633163</dc:date>
    <dc:format>image/svg+xml</dc:format>
    <dc:creator>
     <cc:Agent>
      <dc:title>Matplotlib v3.9.0, https://matplotlib.org/</dc:title>
     </cc:Agent>
    </dc:creator>
   </cc:Work>
  </rdf:RDF>
 </metadata>
 <defs>
  <style type="text/css">*{stroke-linejoin: round; stroke-linecap: butt}</style>
 </defs>
 <g id="figure_1">
  <g id="patch_1">
   <path d="M 0 648 
L 1008 648 
L 1008 0 
L 0 0 
z
" style="fill: #ffffff"/>
  </g>
  <g id="axes_1">
   <g id="patch_2">
    <path d="M 100.8 131.611034 
L 987.84 131.611034 
L 987.84 38.88 
L 100.8 38.88 
z
" style="fill: #eeeeee"/>
   </g>
   <g id="matplotlib.axis_1">
    <g id="xtick_1">
     <g id="line2d_1">
      <path d="M 141.12 131.611034 
L 141.12 38.88 
" clip-path="url(#pc4db83b898)" style="fill: none; stroke-dasharray: 1.85,0.8; stroke-dashoffset: 0; stroke: #b2b2b2; stroke-width: 0.5"/>
     </g>
     <g id="line2d_2">
      <defs>
       <path id="mdbb73242d2" d="M 0 0 
L 0 -3.5 
" style="stroke: #000000; stroke-width: 0.8"/>
      </defs>
      <g>
       <use xlink:href="#mdbb73242d2" x="141.12" y="131.611034" style="stroke: #000000; stroke-width: 0.8"/>
      </g>
     </g>
    </g>
    <g id="xtick_2">
     <g id="line2d_3">
      <path d="M 302.4 131.611034 
L 302.4 38.88 
" clip-path="url(#pc4db83b898)" style="fill: none; stroke-dasharray: 1.85,0.8; stroke-dashoffset: 0; stroke: #b2b2b2; stroke-width: 0.5"/>
     </g>
     <g id="line2d_4">
      <g>
       <use xlink:href="#mdbb73242d2" x="302.4" y="131.611034" style="stroke: #000000; stroke-width: 0.8"/>
      </g>
     </g>
    </g>
    <g id="xtick_3">
     <g id="line2d_5">
      <path d="M 463.68 131.611034 
L 463.68 38.88 
" clip-path="url(#pc4db83b898)" style="fill: none; stroke-dasharray: 1.85,0.8; stroke-dashoffset: 0; stroke: #b2b2b2; stroke-width: 0.5"/>
     </g>
     <g id="line2d_6">
      <g>
       <use xlink:href="#mdbb73242d2" x="463.68" y="131.611034" style="stroke: #000000; stroke-width: 0.8"/>
      </g>
     </g>
    </g>
    <g id="xtick_4">
     <g id="line2d_7">
      <path d="M 624.96 131.611034 
L 624.96 38.88 
" clip-path="url(#pc4db83b898)" style="fill: none; stroke-dasharray: 1.85,0.8; stroke-dashoffset: 0; stroke: #b2b2b2; stroke-width: 0.5"/>
     </g>
     <g id="line2d_8">
      <g>
       <use xlink:href="#mdbb73242d2" x="624.96" y="131.611034" style="stroke: #000000; stroke-width: 0.8"/>
      </g>
     </g>
    </g>
    <g id="xtick_5">
     <g id="line2d_9">
      <path d="M 786.24 131.611034 
L 786.24 38.88 
" clip-path="url(#pc4db83b898)" style="fill: none; stroke-dasharray: 1.85,0.8; stroke-dashoffset: 0; stroke: #b2b2b2; stroke-width: 0.5"/>
     </g>
     <g id="line2d_10">
      <g>
       <use xlink:href="#mdbb73242d2" x="786.24" y="131.611034" style="stroke: #000000; stroke-width: 0.8"/>
      </g>
     </g>
    </g>
    <g id="xtick_6">
     <g id="line2d_11">
      <path d="M 947.52 131.611034 
L 947.52 38.88 
" clip-path="url(#pc4db83b898)" style="fill: none; stroke-dasharray: 1.85,0.8; stroke-dashoffset: 0; stroke: #b2b2b2; stroke-width: 0.5"/>
     </g>
     <g id="line2d_12">
      <g>
       <use xlink:href="#mdbb73242d2" x="947.52" y="131.611034" style="stroke: #000000; stroke-width: 0.8"/>
      </g>
     </g>
    </g>
   </g>
   <g id="matplotlib.axis_2">
    <g id="ytick_1">
     <g id="line2d_13">
      <path d="M 100.8 98.340394 
L 987.84 98.340394 
" clip-path="url(#pc4db83b898)" style="fill: none; stroke-dasharray: 1.85,0.8; stroke-dashoffset: 0; stroke: #b2b2b2; stroke-width: 0.5"/>
     </g>
     <g id="line2d_14">
      <defs>
       <path id="mcc87006cab" d="M 0 0 
L 3.5 0 
" style="stroke: #000000; stroke-width: 0.8"/>
      </defs>
      <g>
       <use xlink:href="#mcc87006cab" x="100.8" y="98.340394" style="stroke: #000000; stroke-width: 0.8"/>
      </g>
     </g>
     <g id="text_1">
      <!-- −200 V -->
      <g transform="translate(44.819688 103.6593) scale(0.14 -0.14)">
       <defs>
        <path id="DejaVuSans-2212" d="M 678 2272 
L 4684 2272 
L 4684 1741 
L 678 1741 
L 678 2272 
z
" transform="scale(0.015625)"/>
        <path id="DejaVuSans-32" d="M 1228 531 
L 3431 531 
L 3431 0 
L 469 0 
L 469 531 
Q 828 903 1448 1529 
Q 2069 2156 2228 2338 
Q 2531 2678 2651 2914 
Q 2772 3150 2772 3378 
Q 2772 3750 2511 3984 
Q 2250 4219 1831 4219 
Q 1534 4219 1204 4116 
Q 875 4013 500 3803 
L 500 4441 
Q 881 4594 1212 4672 
Q 1544 4750 1819 4750 
Q 2544 4750 2975 4387 
Q 3406 4025 3406 3419 
Q 3406 3131 3298 2873 
Q 3191 2616 2906 2266 
Q 2828 2175 2409 1742 
Q 1991 1309 1228 531 
z
" transform="scale(0.015625)"/>
        <path id="DejaVuSans-30" d="M 2034 4250 
Q 1547 4250 1301 3770 
Q 1056 3291 1056 2328 
Q 1056 1369 1301 889 
Q 1547 409 2034 409 
Q 2525 409 2770 889 
Q 3016 1369 3016 2328 
Q 3016 3291 2770 3770 
Q 2525 4250 2034 4250 
z
M 2034 4750 
Q 2819 4750 3233 4129 
Q 3647 3509 3647 2328 
Q 3647 1150 3233 529 
Q 2819 -91 2034 -91 
Q 1250 -91 836 529 
Q 422 1150 422 2328 
Q 422 3509 836 4129 
Q 1250 4750 2034 4750 
z
" transform="scale(0.015625)"/>
        <path id="DejaVuSans-20" transform="scale(0.015625)"/>
        <path id="DejaVuSans-56" d="M 1831 0 
L 50 4666 
L 709 4666 
L 2188 738 
L 3669 4666 
L 4325 4666 
L 2547 0 
L 1831 0 
z
" transform="scale(0.015625)"/>
       </defs>
       <use xlink:href="#DejaVuSans-2212"/>
       <use xlink:href="#DejaVuSans-32" x="83.789062"/>
       <use xlink:href="#DejaVuSans-30" x="147.412109"/>
       <use xlink:href="#DejaVuSans-30" x="211.035156"/>
       <use xlink:href="#DejaVuSans-20" x="274.658203"/>
       <use xlink:href="#DejaVuSans-56" x="306.445312"/>
      </g>
     </g>
    </g>
    <g id="ytick_2">
     <g id="line2d_15">
      <path d="M 100.8 45.027377 
L 987.84 45.027377 
" clip-path="url(#pc4db83b898)" style="fill: none; stroke-dasharray: 1.85,0.8; stroke-dashoffset: 0; stroke: #b2b2b2; stroke-width: 0.5"/>
     </g>
     <g id="line2d_16">
      <g>
       <use xlink:href="#mcc87006cab" x="100.8" y="45.027377" style="stroke: #000000; stroke-width: 0.8"/>
      </g>
     </g>
     <g id="text_2">
      <!-- 0 V -->
      <g transform="translate(74.36625 50.346284) scale(0.14 -0.14)">
       <use xlink:href="#DejaVuSans-30"/>
       <use xlink:href="#DejaVuSans-20" x="63.623047"/>
       <use xlink:href="#DejaVuSans-56" x="95.410156"/>
      </g>
     </g>
    </g>
    <g id="text_3">
     <g id="patch_3">
      <path d="M 34.8768 131.080205 
L 34.8768 39.41083 
L 11.247425 39.41083 
L 11.247425 131.080205 
z
" style="fill: #ffff00; opacity: 0.2; stroke: #eeeeee; stroke-width: 0.5; stroke-linejoin: miter"/>
     </g>
     <!-- VPULSE BBI -->
     <g transform="translate(26.925238 126.040205) rotate(-90) scale(0.14 -0.14)">
      <defs>
       <path id="DejaVuSans-50" d="M 1259 4147 
L 1259 2394 
L 2053 2394 
Q 2494 2394 2734 2622 
Q 2975 2850 2975 3272 
Q 2975 3691 2734 3919 
Q 2494 4147 2053 4147 
L 1259 4147 
z
M 628 4666 
L 2053 4666 
Q 2838 4666 3239 4311 
Q 3641 3956 3641 3272 
Q 3641 2581 3239 2228 
Q 2838 1875 2053 1875 
L 1259 1875 
L 1259 0 
L 628 0 
L 628 4666 
z
" transform="scale(0.015625)"/>
       <path id="DejaVuSans-55" d="M 556 4666 
L 1191 4666 
L 1191 1831 
Q 1191 1081 1462 751 
Q 1734 422 2344 422 
Q 2950 422 3222 751 
Q 3494 1081 3494 1831 
L 3494 4666 
L 4128 4666 
L 4128 1753 
Q 4128 841 3676 375 
Q 3225 -91 2344 -91 
Q 1459 -91 1007 375 
Q 556 841 556 1753 
L 556 4666 
z
" transform="scale(0.015625)"/>
       <path id="DejaVuSans-4c" d="M 628 4666 
L 1259 4666 
L 1259 531 
L 3531 531 
L 3531 0 
L 628 0 
L 628 4666 
z
" transform="scale(0.015625)"/>
       <path id="DejaVuSans-53" d="M 3425 4513 
L 3425 3897 
Q 3066 4069 2747 4153 
Q 2428 4238 2131 4238 
Q 1616 4238 1336 4038 
Q 1056 3838 1056 3469 
Q 1056 3159 1242 3001 
Q 1428 2844 1947 2747 
L 2328 2669 
Q 3034 2534 3370 2195 
Q 3706 1856 3706 1288 
Q 3706 609 3251 259 
Q 2797 -91 1919 -91 
Q 1588 -91 1214 -16 
Q 841 59 441 206 
L 441 856 
Q 825 641 1194 531 
Q 1563 422 1919 422 
Q 2459 422 2753 634 
Q 3047 847 3047 1241 
Q 3047 1584 2836 1778 
Q 2625 1972 2144 2069 
L 1759 2144 
Q 1053 2284 737 2584 
Q 422 2884 422 3419 
Q 422 4038 858 4394 
Q 1294 4750 2059 4750 
Q 2388 4750 2728 4690 
Q 3069 4631 3425 4513 
z
" transform="scale(0.015625)"/>
       <path id="DejaVuSans-45" d="M 628 4666 
L 3578 4666 
L 3578 4134 
L 1259 4134 
L 1259 2753 
L 3481 2753 
L 3481 2222 
L 1259 2222 
L 1259 531 
L 3634 531 
L 3634 0 
L 628 0 
L 628 4666 
z
" transform="scale(0.015625)"/>
       <path id="DejaVuSans-42" d="M 1259 2228 
L 1259 519 
L 2272 519 
Q 2781 519 3026 730 
Q 3272 941 3272 1375 
Q 3272 1813 3026 2020 
Q 2781 2228 2272 2228 
L 1259 2228 
z
M 1259 4147 
L 1259 2741 
L 2194 2741 
Q 2656 2741 2882 2914 
Q 3109 3088 3109 3444 
Q 3109 3797 2882 3972 
Q 2656 4147 2194 4147 
L 1259 4147 
z
M 628 4666 
L 2241 4666 
Q 2963 4666 3353 4366 
Q 3744 4066 3744 3513 
Q 3744 3084 3544 2831 
Q 3344 2578 2956 2516 
Q 3422 2416 3680 2098 
Q 3938 1781 3938 1306 
Q 3938 681 3513 340 
Q 3088 0 2303 0 
L 628 0 
L 628 4666 
z
" transform="scale(0.015625)"/>
       <path id="DejaVuSans-49" d="M 628 4666 
L 1259 4666 
L 1259 0 
L 628 0 
L 628 4666 
z
" transform="scale(0.015625)"/>
      </defs>
      <use xlink:href="#DejaVuSans-56"/>
      <use xlink:href="#DejaVuSans-50" x="68.408203"/>
      <use xlink:href="#DejaVuSans-55" x="128.710938"/>
      <use xlink:href="#DejaVuSans-4c" x="201.904297"/>
      <use xlink:href="#DejaVuSans-53" x="257.617188"/>
      <use xlink:href="#DejaVuSans-45" x="321.09375"/>
      <use xlink:href="#DejaVuSans-20" x="384.277344"/>
      <use xlink:href="#DejaVuSans-42" x="416.064453"/>
      <use xlink:href="#DejaVuSans-42" x="484.667969"/>
      <use xlink:href="#DejaVuSans-49" x="553.271484"/>
     </g>
    </g>
   </g>
   <g id="line2d_17">
    <path d="M 141.12 45.027377 
L 360.493056 45.136282 
L 360.976896 46.425538 
L 369.202176 69.006772 
L 376.621056 89.863624 
L 378.233856 94.440546 
L 380.040192 99.673219 
L 383.52384 110.807642 
L 385.104384 115.853719 
L 386.394624 119.585631 
L 386.846208 119.80688 
L 387.910656 120.297359 
L 388.394496 120.526605 
L 389.458944 121.017085 
L 390.039552 121.272988 
L 390.910464 121.656841 
L 391.491072 121.912744 
L 392.329728 122.269941 
L 393.910272 122.936354 
L 394.555392 123.202919 
L 395.652096 123.629423 
L 396.393984 123.922644 
L 397.490688 124.349149 
L 398.393856 124.677024 
L 399.071232 124.943589 
L 399.877632 125.25547 
L 401.232384 125.804594 
L 403.877376 126.790885 
L 404.49024 127.022796 
L 406.4256 127.395987 
L 424.908288 127.289361 
L 425.13408 126.801547 
L 443.423232 75.087922 
L 447.164928 63.292417 
L 450.874368 51.617666 
L 455.486976 49.3412 
L 460.841472 46.984578 
L 469.550592 43.484472 
L 470.421504 43.268927 
L 484.710912 43.108189 
L 491.516928 43.184799 
L 506.870784 43.746186 
L 534.6432 44.46146 
L 560.28672 44.774399 
L 595.897344 44.945888 
L 643.926528 44.953885 
L 947.52 44.953885 
L 947.52 44.953885 
" clip-path="url(#pc4db83b898)" style="fill: none; stroke: #ff0000; stroke-width: 2; stroke-linecap: square"/>
   </g>
   <g id="patch_4">
    <path d="M 100.8 131.611034 
L 100.8 38.88 
" style="fill: none; stroke: #bcbcbc; stroke-width: 0.8; stroke-linejoin: miter; stroke-linecap: square"/>
   </g>
   <g id="patch_5">
    <path d="M 987.84 131.611034 
L 987.84 38.88 
" style="fill: none; stroke: #bcbcbc; stroke-width: 0.8; stroke-linejoin: miter; stroke-linecap: square"/>
   </g>
   <g id="patch_6">
    <path d="M 100.8 131.611034 
L 987.84 131.611034 
" style="fill: none; stroke: #bcbcbc; stroke-width: 0.8; stroke-linejoin: miter; stroke-linecap: square"/>
   </g>
   <g id="patch_7">
    <path d="M 100.8 38.88 
L 987.84 38.88 
" style="fill: none; stroke: #bcbcbc; stroke-width: 0.8; stroke-linejoin: miter; stroke-linecap: square"/>
   </g>
  </g>
  <g id="axes_2">
   <g id="patch_8">
    <path d="M 100.8 242.888276 
L 987.84 242.888276 
L 987.84 150.157241 
L 100.8 150.157241 
z
" style="fill: #eeeeee"/>
   </g>
   <g id="matplotlib.axis_3">
    <g id="xtick_7">
     <g id="line2d_18">
      <path d="M 141.12 242.888276 
L 141.12 150.157241 
" clip-path="url(#p3a651934c8)" style="fill: none; stroke-dasharray: 1.85,0.8; stroke-dashoffset: 0; stroke: #b2b2b2; stroke-width: 0.5"/>
     </g>
     <g id="line2d_19">
      <g>
       <use xlink:href="#mdbb73242d2" x="141.12" y="242.888276" style="stroke: #000000; stroke-width: 0.8"/>
      </g>
     </g>
    </g>
    <g id="xtick_8">
     <g id="line2d_20">
      <path d="M 302.4 242.888276 
L 302.4 150.157241 
" clip-path="url(#p3a651934c8)" style="fill: none; stroke-dasharray: 1.85,0.8; stroke-dashoffset: 0; stroke: #b2b2b2; stroke-width: 0.5"/>
     </g>
     <g id="line2d_21">
      <g>
       <use xlink:href="#mdbb73242d2" x="302.4" y="242.888276" style="stroke: #000000; stroke-width: 0.8"/>
      </g>
     </g>
    </g>
    <g id="xtick_9">
     <g id="line2d_22">
      <path d="M 463.68 242.888276 
L 463.68 150.157241 
" clip-path="url(#p3a651934c8)" style="fill: none; stroke-dasharray: 1.85,0.8; stroke-dashoffset: 0; stroke: #b2b2b2; stroke-width: 0.5"/>
     </g>
     <g id="line2d_23">
      <g>
       <use xlink:href="#mdbb73242d2" x="463.68" y="242.888276" style="stroke: #000000; stroke-width: 0.8"/>
      </g>
     </g>
    </g>
    <g id="xtick_10">
     <g id="line2d_24">
      <path d="M 624.96 242.888276 
L 624.96 150.157241 
" clip-path="url(#p3a651934c8)" style="fill: none; stroke-dasharray: 1.85,0.8; stroke-dashoffset: 0; stroke: #b2b2b2; stroke-width: 0.5"/>
     </g>
     <g id="line2d_25">
      <g>
       <use xlink:href="#mdbb73242d2" x="624.96" y="242.888276" style="stroke: #000000; stroke-width: 0.8"/>
      </g>
     </g>
    </g>
    <g id="xtick_11">
     <g id="line2d_26">
      <path d="M 786.24 242.888276 
L 786.24 150.157241 
" clip-path="url(#p3a651934c8)" style="fill: none; stroke-dasharray: 1.85,0.8; stroke-dashoffset: 0; stroke: #b2b2b2; stroke-width: 0.5"/>
     </g>
     <g id="line2d_27">
      <g>
       <use xlink:href="#mdbb73242d2" x="786.24" y="242.888276" style="stroke: #000000; stroke-width: 0.8"/>
      </g>
     </g>
    </g>
    <g id="xtick_12">
     <g id="line2d_28">
      <path d="M 947.52 242.888276 
L 947.52 150.157241 
" clip-path="url(#p3a651934c8)" style="fill: none; stroke-dasharray: 1.85,0.8; stroke-dashoffset: 0; stroke: #b2b2b2; stroke-width: 0.5"/>
     </g>
     <g id="line2d_29">
      <g>
       <use xlink:href="#mdbb73242d2" x="947.52" y="242.888276" style="stroke: #000000; stroke-width: 0.8"/>
      </g>
     </g>
    </g>
   </g>
   <g id="matplotlib.axis_4">
    <g id="ytick_3">
     <g id="line2d_30">
      <path d="M 100.8 219.413574 
L 987.84 219.413574 
" clip-path="url(#p3a651934c8)" style="fill: none; stroke-dasharray: 1.85,0.8; stroke-dashoffset: 0; stroke: #b2b2b2; stroke-width: 0.5"/>
     </g>
     <g id="line2d_31">
      <g>
       <use xlink:href="#mcc87006cab" x="100.8" y="219.413574" style="stroke: #000000; stroke-width: 0.8"/>
      </g>
     </g>
     <g id="text_4">
      <!-- 0 V -->
      <g transform="translate(74.36625 224.73248) scale(0.14 -0.14)">
       <use xlink:href="#DejaVuSans-30"/>
       <use xlink:href="#DejaVuSans-20" x="63.623047"/>
       <use xlink:href="#DejaVuSans-56" x="95.410156"/>
      </g>
     </g>
    </g>
    <g id="ytick_4">
     <g id="line2d_32">
      <path d="M 100.8 185.805717 
L 987.84 185.805717 
" clip-path="url(#p3a651934c8)" style="fill: none; stroke-dasharray: 1.85,0.8; stroke-dashoffset: 0; stroke: #b2b2b2; stroke-width: 0.5"/>
     </g>
     <g id="line2d_33">
      <g>
       <use xlink:href="#mcc87006cab" x="100.8" y="185.805717" style="stroke: #000000; stroke-width: 0.8"/>
      </g>
     </g>
     <g id="text_5">
      <!-- 1 V -->
      <g transform="translate(74.36625 191.124623) scale(0.14 -0.14)">
       <defs>
        <path id="DejaVuSans-31" d="M 794 531 
L 1825 531 
L 1825 4091 
L 703 3866 
L 703 4441 
L 1819 4666 
L 2450 4666 
L 2450 531 
L 3481 531 
L 3481 0 
L 794 0 
L 794 531 
z
" transform="scale(0.015625)"/>
       </defs>
       <use xlink:href="#DejaVuSans-31"/>
       <use xlink:href="#DejaVuSans-20" x="63.623047"/>
       <use xlink:href="#DejaVuSans-56" x="95.410156"/>
      </g>
     </g>
    </g>
    <g id="ytick_5">
     <g id="line2d_34">
      <path d="M 100.8 152.19786 
L 987.84 152.19786 
" clip-path="url(#p3a651934c8)" style="fill: none; stroke-dasharray: 1.85,0.8; stroke-dashoffset: 0; stroke: #b2b2b2; stroke-width: 0.5"/>
     </g>
     <g id="line2d_35">
      <g>
       <use xlink:href="#mcc87006cab" x="100.8" y="152.19786" style="stroke: #000000; stroke-width: 0.8"/>
      </g>
     </g>
     <g id="text_6">
      <!-- 2 V -->
      <g transform="translate(74.36625 157.516766) scale(0.14 -0.14)">
       <use xlink:href="#DejaVuSans-32"/>
       <use xlink:href="#DejaVuSans-20" x="63.623047"/>
       <use xlink:href="#DejaVuSans-56" x="95.410156"/>
      </g>
     </g>
    </g>
    <g id="text_7">
     <g id="patch_9">
      <path d="M 34.8768 224.531509 
L 34.8768 168.514009 
L 11.247425 168.514009 
L 11.247425 224.531509 
z
" style="fill: #ffff00; opacity: 0.2; stroke: #eeeeee; stroke-width: 0.5; stroke-linejoin: miter"/>
     </g>
     <!-- DFF IN -->
     <g transform="translate(26.925238 219.491509) rotate(-90) scale(0.14 -0.14)">
      <defs>
       <path id="DejaVuSans-44" d="M 1259 4147 
L 1259 519 
L 2022 519 
Q 2988 519 3436 956 
Q 3884 1394 3884 2338 
Q 3884 3275 3436 3711 
Q 2988 4147 2022 4147 
L 1259 4147 
z
M 628 4666 
L 1925 4666 
Q 3281 4666 3915 4102 
Q 4550 3538 4550 2338 
Q 4550 1131 3912 565 
Q 3275 0 1925 0 
L 628 0 
L 628 4666 
z
" transform="scale(0.015625)"/>
       <path id="DejaVuSans-46" d="M 628 4666 
L 3309 4666 
L 3309 4134 
L 1259 4134 
L 1259 2759 
L 3109 2759 
L 3109 2228 
L 1259 2228 
L 1259 0 
L 628 0 
L 628 4666 
z
" transform="scale(0.015625)"/>
       <path id="DejaVuSans-4e" d="M 628 4666 
L 1478 4666 
L 3547 763 
L 3547 4666 
L 4159 4666 
L 4159 0 
L 3309 0 
L 1241 3903 
L 1241 0 
L 628 0 
L 628 4666 
z
" transform="scale(0.015625)"/>
      </defs>
      <use xlink:href="#DejaVuSans-44"/>
      <use xlink:href="#DejaVuSans-46" x="77.001953"/>
      <use xlink:href="#DejaVuSans-46" x="134.521484"/>
      <use xlink:href="#DejaVuSans-20" x="192.041016"/>
      <use xlink:href="#DejaVuSans-49" x="223.828125"/>
      <use xlink:href="#DejaVuSans-4e" x="253.320312"/>
     </g>
    </g>
   </g>
   <g id="line2d_36">
    <path d="M 141.12 219.364493 
L 221.953536 219.318407 
L 224.437248 200.592502 
L 225.404928 194.89597 
L 228.243456 182.370994 
L 229.598208 181.11406 
L 231.178752 180.250338 
L 236.565504 179.799993 
L 243.661824 179.689087 
L 245.1456 179.645397 
L 248.403456 179.534491 
L 250.113024 179.467275 
L 252.177408 179.356369 
L 254.241792 179.030373 
L 254.757888 178.499369 
L 255.499776 178.16329 
L 256.370688 178.183455 
L 257.531904 178.415349 
L 259.98336 178.815283 
L 262.370304 178.953075 
L 263.886336 179.003487 
L 264.144384 184.185818 
L 264.434688 187.711955 
L 265.176576 192.409325 
L 267.144192 209.555045 
L 268.402176 215.99263 
L 269.079552 217.305353 
L 270.46656 219.00544 
L 273.724416 219.415389 
L 282.594816 219.368933 
L 297.110016 219.357704 
L 305.883648 219.363697 
L 347.751936 219.319815 
L 350.235648 200.617708 
L 351.783936 190.937973 
L 352.912896 185.157085 
L 353.558016 182.861669 
L 354.203136 181.366119 
L 354.848256 180.441903 
L 355.557888 179.850405 
L 356.299776 179.507605 
L 357.460992 179.258907 
L 359.783424 179.127836 
L 360.525312 179.198412 
L 360.912384 179.951228 
L 362.39616 182.932245 
L 364.589568 186.159608 
L 370.040832 193.835978 
L 370.395648 194.832788 
L 372.040704 200.972271 
L 372.71808 203.997986 
L 373.234176 205.957996 
L 374.49216 211.441454 
L 376.42752 218.447886 
L 378.008064 223.406524 
L 378.749952 225.132287 
L 379.201536 226.034994 
L 379.8144 226.753866 
L 380.29824 228.107591 
L 380.78208 228.989125 
L 380.878848 229.100031 
L 380.94336 229.196821 
L 381.26592 229.973499 
L 381.74976 230.983079 
L 382.07232 231.392759 
L 382.910976 233.185066 
L 383.975424 234.859745 
L 384.362496 235.680113 
L 385.104384 236.753212 
L 385.4592 237.5067 
L 386.2656 238.638949 
L 386.42688 238.654408 
L 386.652672 238.483344 
L 387.168768 237.856558 
L 387.523584 237.30102 
L 387.975168 236.424527 
L 388.071936 236.28976 
L 388.394496 235.891507 
L 389.104128 235.21498 
L 389.65248 234.388227 
L 391.523328 232.772697 
L 392.265216 231.783954 
L 392.297472 231.807144 
L 392.491008 231.721108 
L 392.749056 231.452917 
L 393.587712 230.962242 
L 394.297344 230.178843 
L 394.555392 229.756392 
L 394.587648 229.774877 
L 394.910208 229.565163 
L 395.039232 229.415945 
L 395.071488 229.437118 
L 395.200512 229.387042 
L 395.684352 229.08894 
L 396.297216 228.635906 
L 397.135872 227.883426 
L 397.748736 226.971309 
L 398.20032 226.802598 
L 398.458368 226.772014 
L 398.84544 226.51189 
L 400.909824 224.671523 
L 401.200128 224.506845 
L 401.716224 224.297132 
L 402.845184 223.473403 
L 403.974144 222.560345 
L 404.361216 222.211193 
L 405.103104 221.682037 
L 406.232064 220.633271 
L 407.167488 219.375584 
L 408.0384 218.204263 
L 408.8448 217.078736 
L 409.425408 216.262065 
L 413.134848 211.6021 
L 414.715392 209.91801 
L 415.037952 209.175613 
L 417.328128 202.776005 
L 417.973248 201.513021 
L 418.811904 200.181478 
L 419.48928 199.215924 
L 420.521472 197.911267 
L 421.392384 196.782043 
L 422.23104 195.863877 
L 423.19872 194.672478 
L 424.32768 193.650127 
L 425.005056 192.80825 
L 425.45664 191.414532 
L 427.037184 186.045677 
L 427.940352 183.984171 
L 428.714496 182.69699 
L 429.391872 181.954257 
L 431.165952 180.337719 
L 433.19808 177.628925 
L 435.29472 174.550446 
L 436.10112 173.367449 
L 437.101056 171.91559 
L 443.003904 164.101763 
L 443.907072 163.002786 
L 444.907008 161.688719 
L 445.874688 160.378012 
L 450.809856 154.372288 
L 451.584 154.809191 
L 452.132352 155.027642 
L 455.680512 155.854395 
L 455.970816 157.494458 
L 456.519168 160.774585 
L 456.90624 161.65175 
L 457.196544 161.893727 
L 457.55136 161.839954 
L 458.002944 161.43666 
L 459.712512 159.46724 
L 460.29312 159.124439 
L 461.09952 158.902628 
L 462.099456 158.909349 
L 462.938112 159.020255 
L 464.067072 159.248788 
L 470.550528 160.71073 
L 471.389184 161.107303 
L 484.033536 166.262748 
L 484.839936 166.538333 
L 486.452736 167.092862 
L 496.032768 169.973056 
L 496.452096 169.378197 
L 496.839168 169.156385 
L 497.161728 169.132859 
L 498.161664 169.559679 
L 499.355136 170.295691 
L 500.45184 170.860303 
L 501.129216 171.109001 
L 502.54848 171.586233 
L 504.32256 172.066825 
L 505.645056 172.369296 
L 506.161152 172.476841 
L 507.257856 172.705374 
L 508.451328 172.940629 
L 509.419008 173.132194 
L 509.999616 173.239739 
L 512.999424 173.75394 
L 514.902528 174.059771 
L 515.61216 174.167316 
L 517.450752 174.43954 
L 518.19264 174.547085 
L 518.611968 174.604218 
L 519.418368 174.705042 
L 519.869952 174.775618 
L 520.708608 174.879803 
L 521.127936 174.940297 
L 521.998848 175.051203 
L 523.256832 175.202438 
L 524.095488 175.313344 
L 525.159936 175.42425 
L 536.449536 176.684545 
L 537.030144 177.346619 
L 537.578496 177.618843 
L 538.03008 177.68942 
L 538.546176 177.68942 
L 539.223552 177.514659 
L 540.288 177.181941 
L 540.836352 177.074396 
L 541.73952 176.987015 
L 542.126592 176.96349 
L 543.062016 176.976933 
L 545.352192 177.087839 
L 547.448832 177.195384 
L 549.351936 177.299568 
L 549.80352 177.329816 
L 551.835648 177.434 
L 552.609792 177.457525 
L 553.093632 177.501216 
L 553.83552 177.534823 
L 555.77088 177.625565 
L 556.512768 177.659173 
L 558.415872 177.746553 
L 559.15776 177.7768 
L 560.835072 177.840655 
L 563.415552 177.951561 
L 564.931584 177.998612 
L 565.77024 178.022137 
L 567.286272 178.069188 
L 570.092544 178.180094 
L 571.57632 178.227145 
L 572.38272 178.254032 
L 576.801792 178.166651 
L 577.285632 177.686059 
L 577.737216 177.470969 
L 579.285504 177.581874 
L 580.091904 177.803686 
L 582.898176 178.277557 
L 585.543168 178.442236 
L 588.930048 178.549781 
L 589.4784 178.556502 
L 596.187648 178.667408 
L 596.736 178.670769 
L 617.025024 178.751428 
L 617.637888 179.396699 
L 618.02496 179.578181 
L 618.605568 179.70253 
L 620.702208 179.594985 
L 623.18592 179.18833 
L 627.572736 178.842169 
L 657.280512 178.754789 
L 658.248192 177.894428 
L 658.603008 177.833933 
L 659.764224 177.817129 
L 661.08672 178.116239 
L 663.473664 178.50273 
L 665.76384 178.63044 
L 697.632768 178.721181 
L 698.568192 179.547934 
L 699.503616 179.726056 
L 701.632512 179.61515 
L 703.954944 179.242103 
L 709.373952 178.788397 
L 737.952768 178.721181 
L 738.50112 178.112879 
L 739.049472 177.840655 
L 740.984832 177.951561 
L 744.210432 178.512812 
L 746.371584 178.627079 
L 778.272768 178.721181 
L 779.208192 179.547934 
L 780.143616 179.726056 
L 782.272512 179.61515 
L 784.594944 179.242103 
L 790.013952 178.788397 
L 818.592768 178.721181 
L 819.14112 178.112879 
L 819.689472 177.840655 
L 821.624832 177.9482 
L 824.882688 178.516173 
L 827.04384 178.63044 
L 858.912768 178.721181 
L 859.848192 179.547934 
L 860.783616 179.726056 
L 862.912512 179.61515 
L 865.234944 179.242103 
L 870.653952 178.788397 
L 899.232768 178.721181 
L 899.78112 178.112879 
L 900.329472 177.840655 
L 902.264832 177.9482 
L 905.522688 178.516173 
L 907.68384 178.63044 
L 939.552768 178.721181 
L 940.617216 179.578181 
L 941.55264 179.763024 
L 943.455744 179.655479 
L 946.423296 179.148001 
L 947.52 178.976601 
L 947.52 178.976601 
" clip-path="url(#p3a651934c8)" style="fill: none; stroke: #008000; stroke-width: 2; stroke-linecap: square"/>
   </g>
   <g id="patch_10">
    <path d="M 100.8 242.888276 
L 100.8 150.157241 
" style="fill: none; stroke: #bcbcbc; stroke-width: 0.8; stroke-linejoin: miter; stroke-linecap: square"/>
   </g>
   <g id="patch_11">
    <path d="M 987.84 242.888276 
L 987.84 150.157241 
" style="fill: none; stroke: #bcbcbc; stroke-width: 0.8; stroke-linejoin: miter; stroke-linecap: square"/>
   </g>
   <g id="patch_12">
    <path d="M 100.8 242.888276 
L 987.84 242.888276 
" style="fill: none; stroke: #bcbcbc; stroke-width: 0.8; stroke-linejoin: miter; stroke-linecap: square"/>
   </g>
   <g id="patch_13">
    <path d="M 100.8 150.157241 
L 987.84 150.157241 
" style="fill: none; stroke: #bcbcbc; stroke-width: 0.8; stroke-linejoin: miter; stroke-linecap: square"/>
   </g>
  </g>
  <g id="axes_3">
   <g id="patch_14">
    <path d="M 100.8 354.165517 
L 987.84 354.165517 
L 987.84 261.434483 
L 100.8 261.434483 
z
" style="fill: #eeeeee"/>
   </g>
   <g id="matplotlib.axis_5">
    <g id="xtick_13">
     <g id="line2d_37">
      <path d="M 141.12 354.165517 
L 141.12 261.434483 
" clip-path="url(#p2919d84a00)" style="fill: none; stroke-dasharray: 1.85,0.8; stroke-dashoffset: 0; stroke: #b2b2b2; stroke-width: 0.5"/>
     </g>
     <g id="line2d_38">
      <g>
       <use xlink:href="#mdbb73242d2" x="141.12" y="354.165517" style="stroke: #000000; stroke-width: 0.8"/>
      </g>
     </g>
    </g>
    <g id="xtick_14">
     <g id="line2d_39">
      <path d="M 302.4 354.165517 
L 302.4 261.434483 
" clip-path="url(#p2919d84a00)" style="fill: none; stroke-dasharray: 1.85,0.8; stroke-dashoffset: 0; stroke: #b2b2b2; stroke-width: 0.5"/>
     </g>
     <g id="line2d_40">
      <g>
       <use xlink:href="#mdbb73242d2" x="302.4" y="354.165517" style="stroke: #000000; stroke-width: 0.8"/>
      </g>
     </g>
    </g>
    <g id="xtick_15">
     <g id="line2d_41">
      <path d="M 463.68 354.165517 
L 463.68 261.434483 
" clip-path="url(#p2919d84a00)" style="fill: none; stroke-dasharray: 1.85,0.8; stroke-dashoffset: 0; stroke: #b2b2b2; stroke-width: 0.5"/>
     </g>
     <g id="line2d_42">
      <g>
       <use xlink:href="#mdbb73242d2" x="463.68" y="354.165517" style="stroke: #000000; stroke-width: 0.8"/>
      </g>
     </g>
    </g>
    <g id="xtick_16">
     <g id="line2d_43">
      <path d="M 624.96 354.165517 
L 624.96 261.434483 
" clip-path="url(#p2919d84a00)" style="fill: none; stroke-dasharray: 1.85,0.8; stroke-dashoffset: 0; stroke: #b2b2b2; stroke-width: 0.5"/>
     </g>
     <g id="line2d_44">
      <g>
       <use xlink:href="#mdbb73242d2" x="624.96" y="354.165517" style="stroke: #000000; stroke-width: 0.8"/>
      </g>
     </g>
    </g>
    <g id="xtick_17">
     <g id="line2d_45">
      <path d="M 786.24 354.165517 
L 786.24 261.434483 
" clip-path="url(#p2919d84a00)" style="fill: none; stroke-dasharray: 1.85,0.8; stroke-dashoffset: 0; stroke: #b2b2b2; stroke-width: 0.5"/>
     </g>
     <g id="line2d_46">
      <g>
       <use xlink:href="#mdbb73242d2" x="786.24" y="354.165517" style="stroke: #000000; stroke-width: 0.8"/>
      </g>
     </g>
    </g>
    <g id="xtick_18">
     <g id="line2d_47">
      <path d="M 947.52 354.165517 
L 947.52 261.434483 
" clip-path="url(#p2919d84a00)" style="fill: none; stroke-dasharray: 1.85,0.8; stroke-dashoffset: 0; stroke: #b2b2b2; stroke-width: 0.5"/>
     </g>
     <g id="line2d_48">
      <g>
       <use xlink:href="#mdbb73242d2" x="947.52" y="354.165517" style="stroke: #000000; stroke-width: 0.8"/>
      </g>
     </g>
    </g>
   </g>
   <g id="matplotlib.axis_6">
    <g id="ytick_6">
     <g id="line2d_49">
      <path d="M 100.8 344.750924 
L 987.84 344.750924 
" clip-path="url(#p2919d84a00)" style="fill: none; stroke-dasharray: 1.85,0.8; stroke-dashoffset: 0; stroke: #b2b2b2; stroke-width: 0.5"/>
     </g>
     <g id="line2d_50">
      <g>
       <use xlink:href="#mcc87006cab" x="100.8" y="344.750924" style="stroke: #000000; stroke-width: 0.8"/>
      </g>
     </g>
     <g id="text_8">
      <!-- 0 V -->
      <g transform="translate(74.36625 350.069831) scale(0.14 -0.14)">
       <use xlink:href="#DejaVuSans-30"/>
       <use xlink:href="#DejaVuSans-20" x="63.623047"/>
       <use xlink:href="#DejaVuSans-56" x="95.410156"/>
      </g>
     </g>
    </g>
    <g id="ytick_7">
     <g id="line2d_51">
      <path d="M 100.8 303.706199 
L 987.84 303.706199 
" clip-path="url(#p2919d84a00)" style="fill: none; stroke-dasharray: 1.85,0.8; stroke-dashoffset: 0; stroke: #b2b2b2; stroke-width: 0.5"/>
     </g>
     <g id="line2d_52">
      <g>
       <use xlink:href="#mcc87006cab" x="100.8" y="303.706199" style="stroke: #000000; stroke-width: 0.8"/>
      </g>
     </g>
     <g id="text_9">
      <!-- 1 V -->
      <g transform="translate(74.36625 309.025105) scale(0.14 -0.14)">
       <use xlink:href="#DejaVuSans-31"/>
       <use xlink:href="#DejaVuSans-20" x="63.623047"/>
       <use xlink:href="#DejaVuSans-56" x="95.410156"/>
      </g>
     </g>
    </g>
    <g id="ytick_8">
     <g id="line2d_53">
      <path d="M 100.8 262.661474 
L 987.84 262.661474 
" clip-path="url(#p2919d84a00)" style="fill: none; stroke-dasharray: 1.85,0.8; stroke-dashoffset: 0; stroke: #b2b2b2; stroke-width: 0.5"/>
     </g>
     <g id="line2d_54">
      <g>
       <use xlink:href="#mcc87006cab" x="100.8" y="262.661474" style="stroke: #000000; stroke-width: 0.8"/>
      </g>
     </g>
     <g id="text_10">
      <!-- 2 V -->
      <g transform="translate(74.36625 267.98038) scale(0.14 -0.14)">
       <use xlink:href="#DejaVuSans-32"/>
       <use xlink:href="#DejaVuSans-20" x="63.623047"/>
       <use xlink:href="#DejaVuSans-56" x="95.410156"/>
      </g>
     </g>
    </g>
    <g id="text_11">
     <g id="patch_15">
      <path d="M 34.8768 342.395313 
L 34.8768 273.204688 
L 11.247425 273.204688 
L 11.247425 342.395313 
z
" style="fill: #ffff00; opacity: 0.2; stroke: #eeeeee; stroke-width: 0.5; stroke-linejoin: miter"/>
     </g>
     <!-- CLK BUF -->
     <g transform="translate(26.925238 337.355313) rotate(-90) scale(0.14 -0.14)">
      <defs>
       <path id="DejaVuSans-43" d="M 4122 4306 
L 4122 3641 
Q 3803 3938 3442 4084 
Q 3081 4231 2675 4231 
Q 1875 4231 1450 3742 
Q 1025 3253 1025 2328 
Q 1025 1406 1450 917 
Q 1875 428 2675 428 
Q 3081 428 3442 575 
Q 3803 722 4122 1019 
L 4122 359 
Q 3791 134 3420 21 
Q 3050 -91 2638 -91 
Q 1578 -91 968 557 
Q 359 1206 359 2328 
Q 359 3453 968 4101 
Q 1578 4750 2638 4750 
Q 3056 4750 3426 4639 
Q 3797 4528 4122 4306 
z
" transform="scale(0.015625)"/>
       <path id="DejaVuSans-4b" d="M 628 4666 
L 1259 4666 
L 1259 2694 
L 3353 4666 
L 4166 4666 
L 1850 2491 
L 4331 0 
L 3500 0 
L 1259 2247 
L 1259 0 
L 628 0 
L 628 4666 
z
" transform="scale(0.015625)"/>
      </defs>
      <use xlink:href="#DejaVuSans-43"/>
      <use xlink:href="#DejaVuSans-4c" x="69.824219"/>
      <use xlink:href="#DejaVuSans-4b" x="125.537109"/>
      <use xlink:href="#DejaVuSans-20" x="191.113281"/>
      <use xlink:href="#DejaVuSans-42" x="222.900391"/>
      <use xlink:href="#DejaVuSans-55" x="291.503906"/>
      <use xlink:href="#DejaVuSans-46" x="364.697266"/>
     </g>
    </g>
   </g>
   <g id="line2d_55">
    <path d="M 141.12 344.749839 
L 173.376 344.749839 
L 173.601792 295.497254 
L 213.696 295.497254 
L 213.760512 334.784855 
L 213.825024 344.732173 
L 213.889536 344.673108 
L 213.954048 344.837077 
L 214.01856 344.755372 
L 215.437824 344.745533 
L 223.824384 344.749753 
L 254.016 344.749811 
L 254.17728 295.345389 
L 254.241792 295.608075 
L 254.403072 295.489045 
L 254.854656 295.497254 
L 294.336 295.497254 
L 294.400512 334.750377 
L 294.465024 345.057204 
L 294.529536 344.343588 
L 294.626304 344.815426 
L 294.65856 344.786219 
L 294.884352 344.728195 
L 295.206912 344.76586 
L 295.497216 344.749519 
L 321.91488 344.749838 
L 334.656 344.749841 
L 334.81728 295.423374 
L 334.881792 295.513672 
L 335.204352 295.501359 
L 336.10752 295.497254 
L 360.557568 295.60397 
L 362.202624 297.873744 
L 363.879936 300.636054 
L 370.78272 311.840853 
L 373.68576 316.073796 
L 374.976 317.855137 
L 375.008256 316.711631 
L 375.040512 318.418681 
L 375.234048 345.928292 
L 375.266304 345.92386 
L 375.7824 345.91643 
L 376.137216 345.902886 
L 378.52416 345.915199 
L 379.008 346.009889 
L 380.040192 346.378471 
L 380.78208 346.775004 
L 381.298176 347.071224 
L 382.136832 347.558343 
L 385.62048 349.613493 
L 386.330112 349.929537 
L 387.168768 349.488307 
L 387.297792 349.467784 
L 390.652416 348.304946 
L 395.78112 346.76265 
L 403.68384 344.993285 
L 404.232192 344.905634 
L 408.973824 344.246074 
L 410.489856 344.209668 
L 415.296 344.250261 
L 415.328256 342.164573 
L 415.45728 315.433088 
L 415.489536 315.727378 
L 415.521792 316.021669 
L 415.586304 315.724095 
L 419.198976 313.760925 
L 423.005184 311.897905 
L 424.9728 310.971115 
L 425.263104 310.511004 
L 426.553344 308.146007 
L 429.037056 302.971499 
L 432.101376 296.605462 
L 432.778752 295.279717 
L 435.036672 290.928976 
L 440.584704 281.271152 
L 441.58464 279.686826 
L 443.35872 276.965561 
L 450.809856 265.768559 
L 452.261376 265.68647 
L 454.712832 266.421171 
L 455.616 266.823409 
L 455.680512 345.19864 
L 455.77728 345.0927 
L 456.486912 345.114392 
L 463.938048 345.102715 
L 470.227968 345.079233 
L 471.808512 345.200323 
L 474.1632 345.221338 
L 493.774848 345.060344 
L 495.936 345.041345 
L 496.065024 284.271522 
L 496.161792 284.484954 
L 498.097152 285.117043 
L 498.387456 285.223759 
L 499.80672 285.650624 
L 500.12928 285.757341 
L 501.09696 286.020027 
L 501.387264 286.126743 
L 502.354944 286.389429 
L 502.742016 286.496146 
L 503.709696 286.758832 
L 504.096768 286.865548 
L 504.96768 287.08719 
L 505.354752 287.193906 
L 506.128896 287.374503 
L 506.515968 287.481219 
L 507.290112 287.661816 
L 507.677184 287.768532 
L 508.322304 287.908084 
L 508.741632 288.014801 
L 509.386752 288.154353 
L 509.80608 288.261069 
L 510.4512 288.400621 
L 510.967296 288.507337 
L 511.612416 288.646889 
L 512.128512 288.753606 
L 512.773632 288.893158 
L 513.289728 288.999874 
L 513.934848 289.139426 
L 514.547712 289.246142 
L 515.192832 289.385694 
L 515.805696 289.492411 
L 516.354048 289.590918 
L 516.870144 289.697634 
L 517.418496 289.796142 
L 518.03136 289.898753 
L 518.386176 289.960321 
L 518.99904 290.067037 
L 519.547392 290.165544 
L 520.160256 290.268156 
L 520.515072 290.329723 
L 521.224704 290.432335 
L 521.57952 290.493902 
L 522.289152 290.596514 
L 522.643968 290.658081 
L 523.3536 290.760693 
L 523.708416 290.82226 
L 524.418048 290.924872 
L 524.772864 290.986439 
L 525.579264 291.089051 
L 525.93408 291.150618 
L 526.837248 291.253229 
L 527.192064 291.314797 
L 528.095232 291.417408 
L 528.450048 291.478975 
L 529.353216 291.581587 
L 529.611264 291.60211 
L 530.417664 291.704721 
L 530.77248 291.762184 
L 536.191488 292.340915 
L 536.256 292.340915 
L 536.288256 299.215906 
L 536.41728 344.768532 
L 536.449536 344.908581 
L 536.514048 344.838075 
L 537.030144 344.834393 
L 576.576 344.77397 
L 576.705024 294.397255 
L 576.801792 294.643524 
L 577.253376 294.635315 
L 580.93056 294.742031 
L 581.188608 294.758449 
L 586.446336 294.865165 
L 586.704384 294.881583 
L 593.220096 294.988299 
L 593.478144 295.004717 
L 616.896 295.086807 
L 617.025024 345.064412 
L 617.186304 344.825712 
L 617.444352 344.73416 
L 617.799168 344.778839 
L 618.121728 344.761378 
L 657.216 344.761594 
L 657.37728 294.873374 
L 657.441792 295.33718 
L 657.53856 294.914419 
L 657.603072 295.070389 
L 658.086912 295.086807 
L 697.536 295.086807 
L 697.665024 345.064572 
L 697.826304 344.825671 
L 698.084352 344.734168 
L 698.439168 344.77885 
L 698.761728 344.761379 
L 737.856 344.761592 
L 738.01728 294.873374 
L 738.081792 295.33718 
L 738.17856 294.914419 
L 738.243072 295.070389 
L 738.726912 295.086807 
L 778.176 295.086807 
L 778.305024 345.064346 
L 778.466304 344.825671 
L 778.724352 344.734177 
L 779.079168 344.778828 
L 779.401728 344.761378 
L 818.496 344.761594 
L 818.65728 294.873374 
L 818.721792 295.33718 
L 818.81856 294.914419 
L 818.883072 295.070389 
L 819.366912 295.086807 
L 858.816 295.086807 
L 858.945024 345.064506 
L 859.106304 344.82563 
L 859.364352 344.734186 
L 859.719168 344.77884 
L 860.041728 344.761379 
L 899.136 344.761594 
L 899.29728 294.873374 
L 899.361792 295.33718 
L 899.45856 294.914419 
L 899.523072 295.070389 
L 900.006912 295.086807 
L 939.456 295.086807 
L 939.488256 302.487171 
L 939.61728 344.712778 
L 939.649536 344.832131 
L 939.714048 344.717938 
L 939.810816 344.734898 
L 940.004352 344.786157 
L 940.230144 344.760291 
L 945.9072 344.761596 
L 947.52 344.761584 
L 947.52 344.761584 
" clip-path="url(#p2919d84a00)" style="fill: none; stroke: #0000ff; stroke-width: 2; stroke-linecap: square"/>
   </g>
   <g id="patch_16">
    <path d="M 100.8 354.165517 
L 100.8 261.434483 
" style="fill: none; stroke: #bcbcbc; stroke-width: 0.8; stroke-linejoin: miter; stroke-linecap: square"/>
   </g>
   <g id="patch_17">
    <path d="M 987.84 354.165517 
L 987.84 261.434483 
" style="fill: none; stroke: #bcbcbc; stroke-width: 0.8; stroke-linejoin: miter; stroke-linecap: square"/>
   </g>
   <g id="patch_18">
    <path d="M 100.8 354.165517 
L 987.84 354.165517 
" style="fill: none; stroke: #bcbcbc; stroke-width: 0.8; stroke-linejoin: miter; stroke-linecap: square"/>
   </g>
   <g id="patch_19">
    <path d="M 100.8 261.434483 
L 987.84 261.434483 
" style="fill: none; stroke: #bcbcbc; stroke-width: 0.8; stroke-linejoin: miter; stroke-linecap: square"/>
   </g>
  </g>
  <g id="axes_4">
   <g id="patch_20">
    <path d="M 100.8 465.442759 
L 987.84 465.442759 
L 987.84 372.711724 
L 100.8 372.711724 
z
" style="fill: #eeeeee"/>
   </g>
   <g id="matplotlib.axis_7">
    <g id="xtick_19">
     <g id="line2d_56">
      <path d="M 141.12 465.442759 
L 141.12 372.711724 
" clip-path="url(#pc74245ed23)" style="fill: none; stroke-dasharray: 1.85,0.8; stroke-dashoffset: 0; stroke: #b2b2b2; stroke-width: 0.5"/>
     </g>
     <g id="line2d_57">
      <g>
       <use xlink:href="#mdbb73242d2" x="141.12" y="465.442759" style="stroke: #000000; stroke-width: 0.8"/>
      </g>
     </g>
    </g>
    <g id="xtick_20">
     <g id="line2d_58">
      <path d="M 302.4 465.442759 
L 302.4 372.711724 
" clip-path="url(#pc74245ed23)" style="fill: none; stroke-dasharray: 1.85,0.8; stroke-dashoffset: 0; stroke: #b2b2b2; stroke-width: 0.5"/>
     </g>
     <g id="line2d_59">
      <g>
       <use xlink:href="#mdbb73242d2" x="302.4" y="465.442759" style="stroke: #000000; stroke-width: 0.8"/>
      </g>
     </g>
    </g>
    <g id="xtick_21">
     <g id="line2d_60">
      <path d="M 463.68 465.442759 
L 463.68 372.711724 
" clip-path="url(#pc74245ed23)" style="fill: none; stroke-dasharray: 1.85,0.8; stroke-dashoffset: 0; stroke: #b2b2b2; stroke-width: 0.5"/>
     </g>
     <g id="line2d_61">
      <g>
       <use xlink:href="#mdbb73242d2" x="463.68" y="465.442759" style="stroke: #000000; stroke-width: 0.8"/>
      </g>
     </g>
    </g>
    <g id="xtick_22">
     <g id="line2d_62">
      <path d="M 624.96 465.442759 
L 624.96 372.711724 
" clip-path="url(#pc74245ed23)" style="fill: none; stroke-dasharray: 1.85,0.8; stroke-dashoffset: 0; stroke: #b2b2b2; stroke-width: 0.5"/>
     </g>
     <g id="line2d_63">
      <g>
       <use xlink:href="#mdbb73242d2" x="624.96" y="465.442759" style="stroke: #000000; stroke-width: 0.8"/>
      </g>
     </g>
    </g>
    <g id="xtick_23">
     <g id="line2d_64">
      <path d="M 786.24 465.442759 
L 786.24 372.711724 
" clip-path="url(#pc74245ed23)" style="fill: none; stroke-dasharray: 1.85,0.8; stroke-dashoffset: 0; stroke: #b2b2b2; stroke-width: 0.5"/>
     </g>
     <g id="line2d_65">
      <g>
       <use xlink:href="#mdbb73242d2" x="786.24" y="465.442759" style="stroke: #000000; stroke-width: 0.8"/>
      </g>
     </g>
    </g>
    <g id="xtick_24">
     <g id="line2d_66">
      <path d="M 947.52 465.442759 
L 947.52 372.711724 
" clip-path="url(#pc74245ed23)" style="fill: none; stroke-dasharray: 1.85,0.8; stroke-dashoffset: 0; stroke: #b2b2b2; stroke-width: 0.5"/>
     </g>
     <g id="line2d_67">
      <g>
       <use xlink:href="#mdbb73242d2" x="947.52" y="465.442759" style="stroke: #000000; stroke-width: 0.8"/>
      </g>
     </g>
    </g>
   </g>
   <g id="matplotlib.axis_8">
    <g id="ytick_9">
     <g id="line2d_68">
      <path d="M 100.8 437.584831 
L 987.84 437.584831 
" clip-path="url(#pc74245ed23)" style="fill: none; stroke-dasharray: 1.85,0.8; stroke-dashoffset: 0; stroke: #b2b2b2; stroke-width: 0.5"/>
     </g>
     <g id="line2d_69">
      <g>
       <use xlink:href="#mcc87006cab" x="100.8" y="437.584831" style="stroke: #000000; stroke-width: 0.8"/>
      </g>
     </g>
     <g id="text_12">
      <!-- 0 V -->
      <g transform="translate(74.36625 442.903737) scale(0.14 -0.14)">
       <use xlink:href="#DejaVuSans-30"/>
       <use xlink:href="#DejaVuSans-20" x="63.623047"/>
       <use xlink:href="#DejaVuSans-56" x="95.410156"/>
      </g>
     </g>
    </g>
    <g id="ytick_10">
     <g id="line2d_70">
      <path d="M 100.8 396.006889 
L 987.84 396.006889 
" clip-path="url(#pc74245ed23)" style="fill: none; stroke-dasharray: 1.85,0.8; stroke-dashoffset: 0; stroke: #b2b2b2; stroke-width: 0.5"/>
     </g>
     <g id="line2d_71">
      <g>
       <use xlink:href="#mcc87006cab" x="100.8" y="396.006889" style="stroke: #000000; stroke-width: 0.8"/>
      </g>
     </g>
     <g id="text_13">
      <!-- 1 V -->
      <g transform="translate(74.36625 401.325795) scale(0.14 -0.14)">
       <use xlink:href="#DejaVuSans-31"/>
       <use xlink:href="#DejaVuSans-20" x="63.623047"/>
       <use xlink:href="#DejaVuSans-56" x="95.410156"/>
      </g>
     </g>
    </g>
    <g id="text_14">
     <g id="patch_21">
      <path d="M 34.8768 454.693023 
L 34.8768 383.46146 
L 11.247425 383.46146 
L 11.247425 454.693023 
z
" style="fill: #ffff00; opacity: 0.2; stroke: #eeeeee; stroke-width: 0.5; stroke-linejoin: miter"/>
     </g>
     <!-- DFF OUT -->
     <g transform="translate(26.925238 449.653023) rotate(-90) scale(0.14 -0.14)">
      <defs>
       <path id="DejaVuSans-4f" d="M 2522 4238 
Q 1834 4238 1429 3725 
Q 1025 3213 1025 2328 
Q 1025 1447 1429 934 
Q 1834 422 2522 422 
Q 3209 422 3611 934 
Q 4013 1447 4013 2328 
Q 4013 3213 3611 3725 
Q 3209 4238 2522 4238 
z
M 2522 4750 
Q 3503 4750 4090 4092 
Q 4678 3434 4678 2328 
Q 4678 1225 4090 567 
Q 3503 -91 2522 -91 
Q 1538 -91 948 565 
Q 359 1222 359 2328 
Q 359 3434 948 4092 
Q 1538 4750 2522 4750 
z
" transform="scale(0.015625)"/>
       <path id="DejaVuSans-54" d="M -19 4666 
L 3928 4666 
L 3928 4134 
L 2272 4134 
L 2272 0 
L 1638 0 
L 1638 4134 
L -19 4134 
L -19 4666 
z
" transform="scale(0.015625)"/>
      </defs>
      <use xlink:href="#DejaVuSans-44"/>
      <use xlink:href="#DejaVuSans-46" x="77.001953"/>
      <use xlink:href="#DejaVuSans-46" x="134.521484"/>
      <use xlink:href="#DejaVuSans-20" x="192.041016"/>
      <use xlink:href="#DejaVuSans-4f" x="223.828125"/>
      <use xlink:href="#DejaVuSans-55" x="302.539062"/>
      <use xlink:href="#DejaVuSans-54" x="375.732422"/>
     </g>
    </g>
   </g>
   <g id="line2d_72">
    <path d="M 141.12 406.213026 
L 173.408256 406.263751 
L 173.440512 407.985078 
L 173.601792 437.587368 
L 174.085632 437.582171 
L 183.923712 437.58373 
L 254.048256 437.585464 
L 254.080512 437.751675 
L 254.112768 437.476741 
L 254.306304 433.417474 
L 254.596608 432.603793 
L 254.693376 432.023365 
L 255.14496 424.73891 
L 255.370752 407.617945 
L 255.596544 388.094606 
L 255.757824 387.753667 
L 255.983616 387.687143 
L 256.854528 387.6913 
L 295.755264 387.774456 
L 296.239104 390.464549 
L 296.59392 389.790986 
L 297.948672 388.032239 
L 299.561472 387.724563 
L 334.688256 387.707932 
L 334.720512 387.587355 
L 334.752768 388.198551 
L 334.785024 391.221268 
L 334.914048 437.567787 
L 334.97856 437.531195 
L 335.13984 437.576116 
L 335.494656 437.584227 
L 360.428544 437.593696 
L 360.718848 437.87756 
L 361.396224 438.412356 
L 362.23488 438.76552 
L 363.331584 438.971289 
L 365.170176 439.049622 
L 369.137664 438.946425 
L 369.234432 438.871419 
L 369.298944 438.522413 
L 369.363456 436.633527 
L 369.589248 404.564045 
L 369.65376 404.678384 
L 370.266624 407.140214 
L 370.944 410.437761 
L 371.008512 410.295564 
L 371.040768 410.344626 
L 371.524608 413.229304 
L 371.621376 413.711192 
L 371.653632 413.136585 
L 371.718144 413.389795 
L 371.879424 414.897411 
L 372.782592 419.29012 
L 372.847104 418.988265 
L 372.943872 419.455601 
L 373.137408 421.101671 
L 373.911552 425.044923 
L 374.298624 426.983703 
L 375.266304 431.541893 
L 375.330816 431.521935 
L 375.492096 432.454113 
L 375.879168 434.14409 
L 375.911424 433.638918 
L 375.94368 434.202424 
L 375.975936 433.675797 
L 376.459776 436.534489 
L 376.556544 436.27604 
L 376.717824 436.95559 
L 376.879104 438.263383 
L 377.104896 439.186205 
L 377.137152 439.153941 
L 377.169408 439.107415 
L 377.201664 439.142839 
L 377.23392 439.55259 
L 377.330688 439.530678 
L 377.943552 442.250707 
L 378.266112 443.181222 
L 378.298368 442.805773 
L 378.330624 443.260636 
L 378.36288 442.929675 
L 379.008 445.079671 
L 379.266048 445.622263 
L 379.298304 445.522476 
L 379.362816 445.582764 
L 379.49184 445.781506 
L 379.8144 446.447585 
L 379.878912 447.006392 
L 379.943424 446.842991 
L 380.749824 449.212518 
L 380.78208 449.049948 
L 380.814336 449.067411 
L 381.007872 449.856976 
L 381.040128 449.642434 
L 381.072384 449.930985 
L 381.10464 449.753031 
L 381.26592 450.488129 
L 381.330432 450.417862 
L 381.4272 450.745497 
L 381.620736 451.359187 
L 381.91104 452.032334 
L 381.975552 451.980777 
L 382.07232 452.143347 
L 382.104576 452.477218 
L 382.201344 452.423582 
L 384.427008 457.611262 
L 386.2656 461.187797 
L 386.394624 461.184886 
L 386.555904 461.189876 
L 386.717184 460.768691 
L 387.330048 459.577483 
L 387.652608 458.834485 
L 389.620224 455.735681 
L 389.65248 455.799711 
L 389.781504 455.521971 
L 389.81376 455.60679 
L 389.846016 455.541512 
L 389.97504 455.29246 
L 390.007296 455.450041 
L 390.039552 455.273335 
L 390.168576 455.063782 
L 390.200832 455.122407 
L 390.265344 455.015136 
L 390.555648 454.761094 
L 390.716928 454.573162 
L 391.168512 453.785676 
L 391.458816 453.437668 
L 391.491072 453.664268 
L 391.523328 453.369896 
L 391.652352 453.189448 
L 391.684608 453.35576 
L 391.716864 453.102966 
L 392.23296 452.545406 
L 392.265216 452.754543 
L 392.297472 452.489276 
L 392.329728 452.589894 
L 392.361984 452.62482 
L 392.523264 452.279723 
L 393.490944 451.227385 
L 393.781248 450.820753 
L 393.813504 450.885614 
L 393.84576 450.743418 
L 393.878016 450.811606 
L 393.974784 450.528044 
L 394.00704 450.826989 
L 394.071552 450.533865 
L 394.394112 450.090644 
L 394.458624 450.013725 
L 394.49088 450.221199 
L 394.523136 449.929322 
L 394.65216 449.824961 
L 394.716672 450.06445 
L 394.781184 449.956347 
L 394.910208 449.563436 
L 394.942464 449.550962 
L 394.97472 449.67237 
L 395.006976 449.471549 
L 395.039232 449.468638 
L 395.071488 449.700643 
L 395.136 449.499406 
L 395.168256 449.507306 
L 395.29728 449.26449 
L 395.587584 449.165951 
L 396.168192 448.576791 
L 396.393984 447.999689 
L 396.652032 447.658334 
L 396.684288 447.910297 
L 396.716544 447.563537 
L 396.781056 447.489944 
L 396.813312 447.787226 
L 396.845568 447.452524 
L 396.877824 447.778079 
L 396.942336 447.365626 
L 396.974592 447.521959 
L 397.006848 447.589315 
L 397.135872 447.108674 
L 398.84544 445.789406 
L 399.135744 445.409384 
L 399.297024 444.941216 
L 399.65184 444.497995 
L 399.684096 444.787378 
L 399.716352 444.406939 
L 399.748608 444.454754 
L 399.780864 444.488016 
L 399.877632 444.264743 
L 399.909888 444.686759 
L 399.9744 444.150403 
L 400.006656 444.614829 
L 400.13568 443.98326 
L 400.29696 443.940851 
L 400.361472 443.8473 
L 400.393728 444.235638 
L 400.425984 443.745434 
L 400.490496 444.144167 
L 400.61952 443.632342 
L 400.651776 443.640658 
L 400.684032 443.877236 
L 400.716288 443.561244 
L 400.7808 443.795328 
L 400.909824 443.50844 
L 401.5872 443.152533 
L 402.329088 442.436145 
L 402.458112 442.158404 
L 402.619392 441.630531 
L 402.780672 441.459396 
L 402.812928 441.853638 
L 402.845184 441.436029 
L 402.909696 441.732023 
L 402.974208 441.768819 
L 403.03872 441.108977 
L 403.070976 441.149599 
L 403.103232 441.650654 
L 403.135488 441.051849 
L 403.2 441.425676 
L 403.264512 440.982954 
L 403.329024 441.11143 
L 403.425792 440.798224 
L 403.458048 440.817557 
L 403.490304 441.28427 
L 403.554816 440.804959 
L 403.587072 440.967113 
L 403.619328 440.652618 
L 403.68384 440.668292 
L 403.716096 441.049396 
L 403.780608 440.774025 
L 403.909632 440.553787 
L 404.522496 440.30303 
L 405.78048 438.92942 
L 405.877248 438.764314 
L 406.070784 438.124388 
L 406.10304 438.137402 
L 406.135296 437.882121 
L 406.167552 438.246377 
L 406.199808 438.102227 
L 406.232064 438.124928 
L 406.26432 438.068548 
L 406.328832 437.670448 
L 406.393344 437.794209 
L 406.4256 437.84688 
L 406.522368 437.608797 
L 406.554624 437.621644 
L 407.457792 435.974725 
L 407.586816 435.237881 
L 407.619072 435.464522 
L 407.651328 435.326566 
L 407.71584 434.89586 
L 407.748096 434.932782 
L 407.780352 435.298917 
L 407.844864 435.202997 
L 407.87712 434.849252 
L 407.973888 434.887545 
L 408.070656 434.811457 
L 408.393216 434.162592 
L 408.909312 433.088176 
L 409.038336 432.059954 
L 409.102848 432.085732 
L 409.135104 432.701086 
L 409.199616 432.158078 
L 409.425408 432.109847 
L 410.038272 430.854609 
L 410.554368 429.563198 
L 410.61888 429.223507 
L 410.683392 429.295852 
L 410.78016 429.356972 
L 410.812416 429.291279 
L 414.844416 420.94617 
L 414.876672 420.473429 
L 414.97344 420.570721 
L 415.037952 420.613546 
L 415.070208 420.560327 
L 416.295936 418.067313 
L 416.42496 417.641555 
L 416.489472 417.604551 
L 416.521728 417.733027 
L 416.58624 417.638645 
L 417.521664 415.571805 
L 417.682944 414.718626 
L 417.747456 415.445408 
L 417.811968 415.342711 
L 417.844224 414.516973 
L 417.940992 414.56063 
L 418.005504 414.863317 
L 418.134528 414.769351 
L 418.457088 414.077078 
L 419.037696 413.256745 
L 419.295744 413.008941 
L 419.328 412.772778 
L 419.392512 412.843876 
L 419.618304 413.312876 
L 419.715072 414.055873 
L 419.81184 417.480648 
L 419.940864 429.808508 
L 420.102144 436.862497 
L 420.29568 436.942285 
L 422.198784 437.08444 
L 425.005056 437.113087 
L 425.682432 436.484055 
L 426.456576 436.095342 
L 427.488768 435.852527 
L 428.972544 435.754403 
L 432.101376 435.823922 
L 444.64896 436.249888 
L 446.455296 436.195628 
L 450.713088 436.316288 
L 451.035648 436.634234 
L 451.713024 437.186007 
L 452.55168 437.565101 
L 453.777408 437.822478 
L 455.583744 437.945661 
L 460.196352 437.970499 
L 470.711808 437.981305 
L 472.776192 438.065056 
L 478.066176 438.029756 
L 495.968256 437.884479 
L 496.000512 438.242012 
L 496.290816 430.534043 
L 496.516608 429.048879 
L 496.677888 426.172517 
L 496.839168 417.534284 
L 497.032704 392.842807 
L 497.22624 377.059821 
L 497.355264 376.926771 
L 499.1616 377.508862 
L 499.451904 377.616965 
L 500.742144 378.00364 
L 501.355008 378.182425 
L 501.871104 378.32379 
L 502.838784 378.589889 
L 503.225856 378.697991 
L 504.193536 378.96409 
L 504.580608 379.072193 
L 505.45152 379.296714 
L 505.838592 379.404817 
L 506.612736 379.587759 
L 506.999808 379.695862 
L 507.773952 379.878805 
L 508.257792 379.986908 
L 509.031936 380.169851 
L 509.515776 380.277953 
L 510.28992 380.460896 
L 510.77376 380.568999 
L 511.41888 380.710364 
L 511.934976 380.818467 
L 512.580096 380.959832 
L 513.096192 381.067934 
L 513.741312 381.209299 
L 514.257408 381.317402 
L 514.80576 381.417189 
L 515.321856 381.525292 
L 515.870208 381.625079 
L 516.483072 381.733181 
L 517.031424 381.832968 
L 517.54752 381.941071 
L 518.095872 382.040858 
L 518.708736 382.148961 
L 519.257088 382.248748 
L 519.96672 382.352693 
L 520.321536 382.415059 
L 520.9344 382.519004 
L 521.289216 382.581371 
L 521.998848 382.685316 
L 522.353664 382.747683 
L 523.063296 382.855786 
L 523.51488 382.913995 
L 524.127744 383.01794 
L 524.48256 383.080307 
L 525.28896 383.184251 
L 525.643776 383.246618 
L 526.546944 383.350563 
L 526.90176 383.41293 
L 527.70816 383.516875 
L 527.966208 383.537664 
L 528.67584 383.641609 
L 528.933888 383.662398 
L 529.740288 383.766343 
L 530.095104 383.82871 
L 531.09504 383.932654 
L 531.449856 383.995021 
L 532.449792 384.098966 
L 532.70784 384.119755 
L 533.611008 384.2237 
L 533.869056 384.244489 
L 534.772224 384.348434 
L 535.030272 384.369223 
L 535.93344 384.473168 
L 536.191488 384.493957 
L 537.191424 384.597901 
L 537.449472 384.61869 
L 538.449408 384.722635 
L 538.707456 384.743424 
L 539.80416 384.847369 
L 540.062208 384.868158 
L 541.25568 384.972103 
L 541.513728 384.992892 
L 542.7072 385.096837 
L 542.965248 385.117626 
L 544.255488 385.221571 
L 544.513536 385.24236 
L 545.900544 385.346304 
L 546.158592 385.367093 
L 547.642368 385.471038 
L 547.900416 385.491827 
L 549.384192 385.595772 
L 549.64224 385.612403 
L 551.319552 385.720506 
L 551.5776 385.741295 
L 553.35168 385.84524 
L 553.609728 385.866029 
L 555.577344 385.969974 
L 555.835392 385.990763 
L 557.899776 386.094707 
L 558.157824 386.115496 
L 560.512512 386.219441 
L 560.835072 386.236072 
L 563.222016 386.344175 
L 563.544576 386.360806 
L 566.318592 386.468909 
L 566.57664 386.48554 
L 569.705472 386.593643 
L 569.96352 386.610274 
L 573.479424 386.718376 
L 573.737472 386.735008 
L 576.608256 386.801532 
L 576.640512 387.055158 
L 576.705024 386.784901 
L 576.89856 386.814006 
L 580.898304 386.913793 
L 581.25312 386.942897 
L 586.446336 387.051 
L 586.768896 387.067631 
L 593.220096 387.175734 
L 593.542656 387.192365 
L 617.025024 387.29631 
L 617.154048 387.275521 
L 617.605632 387.271363 
L 657.248256 387.271363 
L 657.280512 387.483411 
L 657.345024 387.271363 
L 657.53856 387.250574 
L 658.570752 387.275521 
L 737.888256 387.271363 
L 737.920512 387.483411 
L 737.985024 387.271363 
L 738.17856 387.250574 
L 739.210752 387.275521 
L 818.528256 387.271363 
L 818.560512 387.483411 
L 818.625024 387.271363 
L 818.81856 387.250574 
L 819.850752 387.275521 
L 899.168256 387.271363 
L 899.200512 387.483411 
L 899.265024 387.271363 
L 899.45856 387.250574 
L 900.490752 387.275521 
L 947.52 387.275521 
L 947.52 387.275521 
" clip-path="url(#pc74245ed23)" style="fill: none; stroke: #ff00ff; stroke-width: 2; stroke-linecap: square"/>
   </g>
   <g id="patch_22">
    <path d="M 100.8 465.442759 
L 100.8 372.711724 
" style="fill: none; stroke: #bcbcbc; stroke-width: 0.8; stroke-linejoin: miter; stroke-linecap: square"/>
   </g>
   <g id="patch_23">
    <path d="M 987.84 465.442759 
L 987.84 372.711724 
" style="fill: none; stroke: #bcbcbc; stroke-width: 0.8; stroke-linejoin: miter; stroke-linecap: square"/>
   </g>
   <g id="patch_24">
    <path d="M 100.8 465.442759 
L 987.84 465.442759 
" style="fill: none; stroke: #bcbcbc; stroke-width: 0.8; stroke-linejoin: miter; stroke-linecap: square"/>
   </g>
   <g id="patch_25">
    <path d="M 100.8 372.711724 
L 987.84 372.711724 
" style="fill: none; stroke: #bcbcbc; stroke-width: 0.8; stroke-linejoin: miter; stroke-linecap: square"/>
   </g>
  </g>
  <g id="axes_5">
   <g id="patch_26">
    <path d="M 100.8 576.72 
L 987.84 576.72 
L 987.84 483.988966 
L 100.8 483.988966 
z
" style="fill: #eeeeee"/>
   </g>
   <g id="matplotlib.axis_9">
    <g id="xtick_25">
     <g id="line2d_73">
      <path d="M 141.12 576.72 
L 141.12 483.988966 
" clip-path="url(#pee491311e4)" style="fill: none; stroke-dasharray: 1.85,0.8; stroke-dashoffset: 0; stroke: #b2b2b2; stroke-width: 0.5"/>
     </g>
     <g id="line2d_74">
      <g>
       <use xlink:href="#mdbb73242d2" x="141.12" y="576.72" style="stroke: #000000; stroke-width: 0.8"/>
      </g>
     </g>
     <g id="text_15">
      <!-- 0 s -->
      <g transform="translate(130.795 590.857813) scale(0.14 -0.14)">
       <defs>
        <path id="DejaVuSans-73" d="M 2834 3397 
L 2834 2853 
Q 2591 2978 2328 3040 
Q 2066 3103 1784 3103 
Q 1356 3103 1142 2972 
Q 928 2841 928 2578 
Q 928 2378 1081 2264 
Q 1234 2150 1697 2047 
L 1894 2003 
Q 2506 1872 2764 1633 
Q 3022 1394 3022 966 
Q 3022 478 2636 193 
Q 2250 -91 1575 -91 
Q 1294 -91 989 -36 
Q 684 19 347 128 
L 347 722 
Q 666 556 975 473 
Q 1284 391 1588 391 
Q 1994 391 2212 530 
Q 2431 669 2431 922 
Q 2431 1156 2273 1281 
Q 2116 1406 1581 1522 
L 1381 1569 
Q 847 1681 609 1914 
Q 372 2147 372 2553 
Q 372 3047 722 3315 
Q 1072 3584 1716 3584 
Q 2034 3584 2315 3537 
Q 2597 3491 2834 3397 
z
" transform="scale(0.015625)"/>
       </defs>
       <use xlink:href="#DejaVuSans-30"/>
       <use xlink:href="#DejaVuSans-20" x="63.623047"/>
       <use xlink:href="#DejaVuSans-73" x="95.410156"/>
      </g>
     </g>
    </g>
    <g id="xtick_26">
     <g id="line2d_75">
      <path d="M 302.4 576.72 
L 302.4 483.988966 
" clip-path="url(#pee491311e4)" style="fill: none; stroke-dasharray: 1.85,0.8; stroke-dashoffset: 0; stroke: #b2b2b2; stroke-width: 0.5"/>
     </g>
     <g id="line2d_76">
      <g>
       <use xlink:href="#mdbb73242d2" x="302.4" y="576.72" style="stroke: #000000; stroke-width: 0.8"/>
      </g>
     </g>
     <g id="text_16">
      <!-- 50 ns -->
      <g transform="translate(283.185 590.857813) scale(0.14 -0.14)">
       <defs>
        <path id="DejaVuSans-35" d="M 691 4666 
L 3169 4666 
L 3169 4134 
L 1269 4134 
L 1269 2991 
Q 1406 3038 1543 3061 
Q 1681 3084 1819 3084 
Q 2600 3084 3056 2656 
Q 3513 2228 3513 1497 
Q 3513 744 3044 326 
Q 2575 -91 1722 -91 
Q 1428 -91 1123 -41 
Q 819 9 494 109 
L 494 744 
Q 775 591 1075 516 
Q 1375 441 1709 441 
Q 2250 441 2565 725 
Q 2881 1009 2881 1497 
Q 2881 1984 2565 2268 
Q 2250 2553 1709 2553 
Q 1456 2553 1204 2497 
Q 953 2441 691 2322 
L 691 4666 
z
" transform="scale(0.015625)"/>
        <path id="DejaVuSans-6e" d="M 3513 2113 
L 3513 0 
L 2938 0 
L 2938 2094 
Q 2938 2591 2744 2837 
Q 2550 3084 2163 3084 
Q 1697 3084 1428 2787 
Q 1159 2491 1159 1978 
L 1159 0 
L 581 0 
L 581 3500 
L 1159 3500 
L 1159 2956 
Q 1366 3272 1645 3428 
Q 1925 3584 2291 3584 
Q 2894 3584 3203 3211 
Q 3513 2838 3513 2113 
z
" transform="scale(0.015625)"/>
       </defs>
       <use xlink:href="#DejaVuSans-35"/>
       <use xlink:href="#DejaVuSans-30" x="63.623047"/>
       <use xlink:href="#DejaVuSans-20" x="127.246094"/>
       <use xlink:href="#DejaVuSans-6e" x="159.033203"/>
       <use xlink:href="#DejaVuSans-73" x="222.412109"/>
      </g>
     </g>
    </g>
    <g id="xtick_27">
     <g id="line2d_77">
      <path d="M 463.68 576.72 
L 463.68 483.988966 
" clip-path="url(#pee491311e4)" style="fill: none; stroke-dasharray: 1.85,0.8; stroke-dashoffset: 0; stroke: #b2b2b2; stroke-width: 0.5"/>
     </g>
     <g id="line2d_78">
      <g>
       <use xlink:href="#mdbb73242d2" x="463.68" y="576.72" style="stroke: #000000; stroke-width: 0.8"/>
      </g>
     </g>
     <g id="text_17">
      <!-- 100 ns -->
      <g transform="translate(440.01125 590.857813) scale(0.14 -0.14)">
       <use xlink:href="#DejaVuSans-31"/>
       <use xlink:href="#DejaVuSans-30" x="63.623047"/>
       <use xlink:href="#DejaVuSans-30" x="127.246094"/>
       <use xlink:href="#DejaVuSans-20" x="190.869141"/>
       <use xlink:href="#DejaVuSans-6e" x="222.65625"/>
       <use xlink:href="#DejaVuSans-73" x="286.035156"/>
      </g>
     </g>
    </g>
    <g id="xtick_28">
     <g id="line2d_79">
      <path d="M 624.96 576.72 
L 624.96 483.988966 
" clip-path="url(#pee491311e4)" style="fill: none; stroke-dasharray: 1.85,0.8; stroke-dashoffset: 0; stroke: #b2b2b2; stroke-width: 0.5"/>
     </g>
     <g id="line2d_80">
      <g>
       <use xlink:href="#mdbb73242d2" x="624.96" y="576.72" style="stroke: #000000; stroke-width: 0.8"/>
      </g>
     </g>
     <g id="text_18">
      <!-- 150 ns -->
      <g transform="translate(601.29125 590.857813) scale(0.14 -0.14)">
       <use xlink:href="#DejaVuSans-31"/>
       <use xlink:href="#DejaVuSans-35" x="63.623047"/>
       <use xlink:href="#DejaVuSans-30" x="127.246094"/>
       <use xlink:href="#DejaVuSans-20" x="190.869141"/>
       <use xlink:href="#DejaVuSans-6e" x="222.65625"/>
       <use xlink:href="#DejaVuSans-73" x="286.035156"/>
      </g>
     </g>
    </g>
    <g id="xtick_29">
     <g id="line2d_81">
      <path d="M 786.24 576.72 
L 786.24 483.988966 
" clip-path="url(#pee491311e4)" style="fill: none; stroke-dasharray: 1.85,0.8; stroke-dashoffset: 0; stroke: #b2b2b2; stroke-width: 0.5"/>
     </g>
     <g id="line2d_82">
      <g>
       <use xlink:href="#mdbb73242d2" x="786.24" y="576.72" style="stroke: #000000; stroke-width: 0.8"/>
      </g>
     </g>
     <g id="text_19">
      <!-- 200 ns -->
      <g transform="translate(762.57125 590.857813) scale(0.14 -0.14)">
       <use xlink:href="#DejaVuSans-32"/>
       <use xlink:href="#DejaVuSans-30" x="63.623047"/>
       <use xlink:href="#DejaVuSans-30" x="127.246094"/>
       <use xlink:href="#DejaVuSans-20" x="190.869141"/>
       <use xlink:href="#DejaVuSans-6e" x="222.65625"/>
       <use xlink:href="#DejaVuSans-73" x="286.035156"/>
      </g>
     </g>
    </g>
    <g id="xtick_30">
     <g id="line2d_83">
      <path d="M 947.52 576.72 
L 947.52 483.988966 
" clip-path="url(#pee491311e4)" style="fill: none; stroke-dasharray: 1.85,0.8; stroke-dashoffset: 0; stroke: #b2b2b2; stroke-width: 0.5"/>
     </g>
     <g id="line2d_84">
      <g>
       <use xlink:href="#mdbb73242d2" x="947.52" y="576.72" style="stroke: #000000; stroke-width: 0.8"/>
      </g>
     </g>
     <g id="text_20">
      <!-- 250 ns -->
      <g transform="translate(923.85125 590.857813) scale(0.14 -0.14)">
       <use xlink:href="#DejaVuSans-32"/>
       <use xlink:href="#DejaVuSans-35" x="63.623047"/>
       <use xlink:href="#DejaVuSans-30" x="127.246094"/>
       <use xlink:href="#DejaVuSans-20" x="190.869141"/>
       <use xlink:href="#DejaVuSans-6e" x="222.65625"/>
       <use xlink:href="#DejaVuSans-73" x="286.035156"/>
      </g>
     </g>
    </g>
    <g id="text_21">
     <!-- Time -->
     <g transform="translate(527.192969 608.407187) scale(0.14 -0.14)">
      <defs>
       <path id="DejaVuSans-69" d="M 603 3500 
L 1178 3500 
L 1178 0 
L 603 0 
L 603 3500 
z
M 603 4863 
L 1178 4863 
L 1178 4134 
L 603 4134 
L 603 4863 
z
" transform="scale(0.015625)"/>
       <path id="DejaVuSans-6d" d="M 3328 2828 
Q 3544 3216 3844 3400 
Q 4144 3584 4550 3584 
Q 5097 3584 5394 3201 
Q 5691 2819 5691 2113 
L 5691 0 
L 5113 0 
L 5113 2094 
Q 5113 2597 4934 2840 
Q 4756 3084 4391 3084 
Q 3944 3084 3684 2787 
Q 3425 2491 3425 1978 
L 3425 0 
L 2847 0 
L 2847 2094 
Q 2847 2600 2669 2842 
Q 2491 3084 2119 3084 
Q 1678 3084 1418 2786 
Q 1159 2488 1159 1978 
L 1159 0 
L 581 0 
L 581 3500 
L 1159 3500 
L 1159 2956 
Q 1356 3278 1631 3431 
Q 1906 3584 2284 3584 
Q 2666 3584 2933 3390 
Q 3200 3197 3328 2828 
z
" transform="scale(0.015625)"/>
       <path id="DejaVuSans-65" d="M 3597 1894 
L 3597 1613 
L 953 1613 
Q 991 1019 1311 708 
Q 1631 397 2203 397 
Q 2534 397 2845 478 
Q 3156 559 3463 722 
L 3463 178 
Q 3153 47 2828 -22 
Q 2503 -91 2169 -91 
Q 1331 -91 842 396 
Q 353 884 353 1716 
Q 353 2575 817 3079 
Q 1281 3584 2069 3584 
Q 2775 3584 3186 3129 
Q 3597 2675 3597 1894 
z
M 3022 2063 
Q 3016 2534 2758 2815 
Q 2500 3097 2075 3097 
Q 1594 3097 1305 2825 
Q 1016 2553 972 2059 
L 3022 2063 
z
" transform="scale(0.015625)"/>
      </defs>
      <use xlink:href="#DejaVuSans-54"/>
      <use xlink:href="#DejaVuSans-69" x="57.958984"/>
      <use xlink:href="#DejaVuSans-6d" x="85.742188"/>
      <use xlink:href="#DejaVuSans-65" x="183.154297"/>
     </g>
    </g>
   </g>
   <g id="matplotlib.axis_10">
    <g id="ytick_11">
     <g id="line2d_85">
      <path d="M 100.8 569.745664 
L 987.84 569.745664 
" clip-path="url(#pee491311e4)" style="fill: none; stroke-dasharray: 1.85,0.8; stroke-dashoffset: 0; stroke: #b2b2b2; stroke-width: 0.5"/>
     </g>
     <g id="line2d_86">
      <g>
       <use xlink:href="#mcc87006cab" x="100.8" y="569.745664" style="stroke: #000000; stroke-width: 0.8"/>
      </g>
     </g>
     <g id="text_22">
      <!-- 0 V -->
      <g transform="translate(74.36625 575.06457) scale(0.14 -0.14)">
       <use xlink:href="#DejaVuSans-30"/>
       <use xlink:href="#DejaVuSans-20" x="63.623047"/>
       <use xlink:href="#DejaVuSans-56" x="95.410156"/>
      </g>
     </g>
    </g>
    <g id="ytick_12">
     <g id="line2d_87">
      <path d="M 100.8 535.947417 
L 987.84 535.947417 
" clip-path="url(#pee491311e4)" style="fill: none; stroke-dasharray: 1.85,0.8; stroke-dashoffset: 0; stroke: #b2b2b2; stroke-width: 0.5"/>
     </g>
     <g id="line2d_88">
      <g>
       <use xlink:href="#mcc87006cab" x="100.8" y="535.947417" style="stroke: #000000; stroke-width: 0.8"/>
      </g>
     </g>
     <g id="text_23">
      <!-- 500 mV -->
      <g transform="translate(42.914375 541.266323) scale(0.14 -0.14)">
       <use xlink:href="#DejaVuSans-35"/>
       <use xlink:href="#DejaVuSans-30" x="63.623047"/>
       <use xlink:href="#DejaVuSans-30" x="127.246094"/>
       <use xlink:href="#DejaVuSans-20" x="190.869141"/>
       <use xlink:href="#DejaVuSans-6d" x="222.65625"/>
       <use xlink:href="#DejaVuSans-56" x="320.068359"/>
      </g>
     </g>
    </g>
    <g id="ytick_13">
     <g id="line2d_89">
      <path d="M 100.8 502.149169 
L 987.84 502.149169 
" clip-path="url(#pee491311e4)" style="fill: none; stroke-dasharray: 1.85,0.8; stroke-dashoffset: 0; stroke: #b2b2b2; stroke-width: 0.5"/>
     </g>
     <g id="line2d_90">
      <g>
       <use xlink:href="#mcc87006cab" x="100.8" y="502.149169" style="stroke: #000000; stroke-width: 0.8"/>
      </g>
     </g>
     <g id="text_24">
      <!-- 1 V -->
      <g transform="translate(74.36625 507.468076) scale(0.14 -0.14)">
       <use xlink:href="#DejaVuSans-31"/>
       <use xlink:href="#DejaVuSans-20" x="63.623047"/>
       <use xlink:href="#DejaVuSans-56" x="95.410156"/>
      </g>
     </g>
    </g>
    <g id="text_25">
     <g id="patch_27">
      <path d="M 34.8768 554.329483 
L 34.8768 506.379483 
L 11.247425 506.379483 
L 11.247425 554.329483 
z
" style="fill: #ffff00; opacity: 0.2; stroke: #eeeeee; stroke-width: 0.5; stroke-linejoin: miter"/>
     </g>
     <!-- FOUT -->
     <g transform="translate(26.925238 549.289483) rotate(-90) scale(0.14 -0.14)">
      <use xlink:href="#DejaVuSans-46"/>
      <use xlink:href="#DejaVuSans-4f" x="57.519531"/>
      <use xlink:href="#DejaVuSans-55" x="136.230469"/>
      <use xlink:href="#DejaVuSans-54" x="209.423828"/>
     </g>
    </g>
   </g>
   <g id="line2d_91">
    <path d="M 141.12 488.62987 
L 173.472768 488.63663 
L 173.505024 488.4406 
L 173.569536 526.786064 
L 173.69856 572.504953 
L 173.730816 572.36949 
L 173.827584 567.841741 
L 173.892096 569.360648 
L 174.053376 570.063996 
L 174.117888 569.946459 
L 174.408192 569.491812 
L 174.440448 569.541273 
L 174.66624 569.729732 
L 176.182272 569.739929 
L 180.117504 569.76123 
L 193.568256 569.751938 
L 212.954112 569.743788 
L 255.30624 569.743483 
L 255.6288 488.521716 
L 255.854592 488.663669 
L 256.209408 488.623111 
L 334.849536 488.64339 
L 334.881792 492.847892 
L 335.043072 572.183734 
L 335.107584 570.261027 
L 335.172096 568.338305 
L 335.236608 568.869816 
L 335.365632 570.782865 
L 335.430144 570.409915 
L 335.591424 569.796995 
L 335.881728 569.64821 
L 336.559104 569.817708 
L 337.107456 569.745921 
L 350.009856 569.74404 
L 369.524736 569.726726 
L 369.556992 568.849064 
L 369.81504 488.204013 
L 369.944064 488.62987 
L 371.879424 488.555514 
L 371.91168 488.420321 
L 371.943936 488.569034 
L 372.008448 512.276476 
L 372.105216 569.913885 
L 372.169728 569.742558 
L 380.007936 569.743939 
L 396.168192 569.743825 
L 418.36032 569.804805 
L 418.424832 569.855299 
L 418.457088 568.278415 
L 418.586112 507.033692 
L 418.715136 488.819141 
L 418.876416 488.63663 
L 419.424768 488.62987 
L 419.747328 488.63663 
L 419.844096 506.223886 
L 419.97312 570.580954 
L 420.037632 569.747976 
L 420.489216 569.743987 
L 496.90368 569.727392 
L 496.968192 565.236099 
L 497.161728 488.988132 
L 497.323008 488.62987 
L 947.52 488.62987 
L 947.52 488.62987 
" clip-path="url(#pee491311e4)" style="fill: none; stroke: #ff00ff; stroke-width: 2; stroke-linecap: square"/>
   </g>
   <g id="patch_28">
    <path d="M 100.8 576.72 
L 100.8 483.988966 
" style="fill: none; stroke: #bcbcbc; stroke-width: 0.8; stroke-linejoin: miter; stroke-linecap: square"/>
   </g>
   <g id="patch_29">
    <path d="M 987.84 576.72 
L 987.84 483.988966 
" style="fill: none; stroke: #bcbcbc; stroke-width: 0.8; stroke-linejoin: miter; stroke-linecap: square"/>
   </g>
   <g id="patch_30">
    <path d="M 100.8 576.72 
L 987.84 576.72 
" style="fill: none; stroke: #bcbcbc; stroke-width: 0.8; stroke-linejoin: miter; stroke-linecap: square"/>
   </g>
   <g id="patch_31">
    <path d="M 100.8 483.988966 
L 987.84 483.988966 
" style="fill: none; stroke: #bcbcbc; stroke-width: 0.8; stroke-linejoin: miter; stroke-linecap: square"/>
   </g>
  </g>
  <g id="axes_6">
   <g id="patch_32">
    <path d="M 201.6 628.56 
L 856.8 628.56 
L 856.8 615.6 
L 201.6 615.6 
z
" clip-path="url(#p5b95186789)" style="fill: #d3d3d3"/>
   </g>
   <g id="patch_33">
    <path d="M 201.6 628.56 
L 444.96 628.56 
L 444.96 615.6 
L 201.6 615.6 
z
" clip-path="url(#p5b95186789)" style="fill: #0000ff"/>
   </g>
   <g id="line2d_92">
    <path d="M 201.6 635.04 
L 201.6 609.12 
" clip-path="url(#pc9077afef0)" style="fill: none; stroke: #ff0000; stroke-linecap: square"/>
   </g>
   <g id="line2d_93">
    <defs>
     <path id="me46998c258" d="M 0 5 
C 1.326016 5 2.597899 4.473168 3.535534 3.535534 
C 4.473168 2.597899 5 1.326016 5 0 
C 5 -1.326016 4.473168 -2.597899 3.535534 -3.535534 
C 2.597899 -4.473168 1.326016 -5 0 -5 
C -1.326016 -5 -2.597899 -4.473168 -3.535534 -3.535534 
C -4.473168 -2.597899 -5 -1.326016 -5 0 
C -5 1.326016 -4.473168 2.597899 -3.535534 3.535534 
C -2.597899 4.473168 -1.326016 5 0 5 
z
" style="stroke: #bfbfbf"/>
    </defs>
    <g>
     <use xlink:href="#me46998c258" x="444.96" y="622.08" style="fill: #ffffff; stroke: #bfbfbf"/>
    </g>
   </g>
   <g id="text_26">
    <!-- #Sweep -->
    <g transform="translate(138.622875 625.39125) scale(0.12 -0.12)">
     <defs>
      <path id="DejaVuSans-23" d="M 3272 2816 
L 2363 2816 
L 2100 1772 
L 3016 1772 
L 3272 2816 
z
M 2803 4594 
L 2478 3297 
L 3391 3297 
L 3719 4594 
L 4219 4594 
L 3897 3297 
L 4872 3297 
L 4872 2816 
L 3775 2816 
L 3519 1772 
L 4513 1772 
L 4513 1294 
L 3397 1294 
L 3072 0 
L 2572 0 
L 2894 1294 
L 1978 1294 
L 1656 0 
L 1153 0 
L 1478 1294 
L 494 1294 
L 494 1772 
L 1594 1772 
L 1856 2816 
L 850 2816 
L 850 3297 
L 1978 3297 
L 2297 4594 
L 2803 4594 
z
" transform="scale(0.015625)"/>
      <path id="DejaVuSans-77" d="M 269 3500 
L 844 3500 
L 1563 769 
L 2278 3500 
L 2956 3500 
L 3675 769 
L 4391 3500 
L 4966 3500 
L 4050 0 
L 3372 0 
L 2619 2869 
L 1863 0 
L 1184 0 
L 269 3500 
z
" transform="scale(0.015625)"/>
      <path id="DejaVuSans-70" d="M 1159 525 
L 1159 -1331 
L 581 -1331 
L 581 3500 
L 1159 3500 
L 1159 2969 
Q 1341 3281 1617 3432 
Q 1894 3584 2278 3584 
Q 2916 3584 3314 3078 
Q 3713 2572 3713 1747 
Q 3713 922 3314 415 
Q 2916 -91 2278 -91 
Q 1894 -91 1617 61 
Q 1341 213 1159 525 
z
M 3116 1747 
Q 3116 2381 2855 2742 
Q 2594 3103 2138 3103 
Q 1681 3103 1420 2742 
Q 1159 2381 1159 1747 
Q 1159 1113 1420 752 
Q 1681 391 2138 391 
Q 2594 391 2855 752 
Q 3116 1113 3116 1747 
z
" transform="scale(0.015625)"/>
     </defs>
     <use xlink:href="#DejaVuSans-23"/>
     <use xlink:href="#DejaVuSans-53" x="83.789062"/>
     <use xlink:href="#DejaVuSans-77" x="147.265625"/>
     <use xlink:href="#DejaVuSans-65" x="229.052734"/>
     <use xlink:href="#DejaVuSans-65" x="290.576172"/>
     <use xlink:href="#DejaVuSans-70" x="352.099609"/>
    </g>
   </g>
   <g id="text_27">
    <!-- $\mathdefault{52}$ -->
    <g transform="translate(869.904 625.39125) scale(0.12 -0.12)">
     <use xlink:href="#DejaVuSans-35" transform="translate(0 0.78125)"/>
     <use xlink:href="#DejaVuSans-32" transform="translate(63.623047 0.78125)"/>
    </g>
   </g>
  </g>
  <g id="text_28">
   <!-- DFF under BBI sweep analysis (Sweep = 62E-9) -->
   <g transform="translate(313.34625 25.1175) scale(0.16 -0.16)">
    <defs>
     <path id="DejaVuSans-75" d="M 544 1381 
L 544 3500 
L 1119 3500 
L 1119 1403 
Q 1119 906 1312 657 
Q 1506 409 1894 409 
Q 2359 409 2629 706 
Q 2900 1003 2900 1516 
L 2900 3500 
L 3475 3500 
L 3475 0 
L 2900 0 
L 2900 538 
Q 2691 219 2414 64 
Q 2138 -91 1772 -91 
Q 1169 -91 856 284 
Q 544 659 544 1381 
z
M 1991 3584 
L 1991 3584 
z
" transform="scale(0.015625)"/>
     <path id="DejaVuSans-64" d="M 2906 2969 
L 2906 4863 
L 3481 4863 
L 3481 0 
L 2906 0 
L 2906 525 
Q 2725 213 2448 61 
Q 2172 -91 1784 -91 
Q 1150 -91 751 415 
Q 353 922 353 1747 
Q 353 2572 751 3078 
Q 1150 3584 1784 3584 
Q 2172 3584 2448 3432 
Q 2725 3281 2906 2969 
z
M 947 1747 
Q 947 1113 1208 752 
Q 1469 391 1925 391 
Q 2381 391 2643 752 
Q 2906 1113 2906 1747 
Q 2906 2381 2643 2742 
Q 2381 3103 1925 3103 
Q 1469 3103 1208 2742 
Q 947 2381 947 1747 
z
" transform="scale(0.015625)"/>
     <path id="DejaVuSans-72" d="M 2631 2963 
Q 2534 3019 2420 3045 
Q 2306 3072 2169 3072 
Q 1681 3072 1420 2755 
Q 1159 2438 1159 1844 
L 1159 0 
L 581 0 
L 581 3500 
L 1159 3500 
L 1159 2956 
Q 1341 3275 1631 3429 
Q 1922 3584 2338 3584 
Q 2397 3584 2469 3576 
Q 2541 3569 2628 3553 
L 2631 2963 
z
" transform="scale(0.015625)"/>
     <path id="DejaVuSans-61" d="M 2194 1759 
Q 1497 1759 1228 1600 
Q 959 1441 959 1056 
Q 959 750 1161 570 
Q 1363 391 1709 391 
Q 2188 391 2477 730 
Q 2766 1069 2766 1631 
L 2766 1759 
L 2194 1759 
z
M 3341 1997 
L 3341 0 
L 2766 0 
L 2766 531 
Q 2569 213 2275 61 
Q 1981 -91 1556 -91 
Q 1019 -91 701 211 
Q 384 513 384 1019 
Q 384 1609 779 1909 
Q 1175 2209 1959 2209 
L 2766 2209 
L 2766 2266 
Q 2766 2663 2505 2880 
Q 2244 3097 1772 3097 
Q 1472 3097 1187 3025 
Q 903 2953 641 2809 
L 641 3341 
Q 956 3463 1253 3523 
Q 1550 3584 1831 3584 
Q 2591 3584 2966 3190 
Q 3341 2797 3341 1997 
z
" transform="scale(0.015625)"/>
     <path id="DejaVuSans-6c" d="M 603 4863 
L 1178 4863 
L 1178 0 
L 603 0 
L 603 4863 
z
" transform="scale(0.015625)"/>
     <path id="DejaVuSans-79" d="M 2059 -325 
Q 1816 -950 1584 -1140 
Q 1353 -1331 966 -1331 
L 506 -1331 
L 506 -850 
L 844 -850 
Q 1081 -850 1212 -737 
Q 1344 -625 1503 -206 
L 1606 56 
L 191 3500 
L 800 3500 
L 1894 763 
L 2988 3500 
L 3597 3500 
L 2059 -325 
z
" transform="scale(0.015625)"/>
     <path id="DejaVuSans-28" d="M 1984 4856 
Q 1566 4138 1362 3434 
Q 1159 2731 1159 2009 
Q 1159 1288 1364 580 
Q 1569 -128 1984 -844 
L 1484 -844 
Q 1016 -109 783 600 
Q 550 1309 550 2009 
Q 550 2706 781 3412 
Q 1013 4119 1484 4856 
L 1984 4856 
z
" transform="scale(0.015625)"/>
     <path id="DejaVuSans-3d" d="M 678 2906 
L 4684 2906 
L 4684 2381 
L 678 2381 
L 678 2906 
z
M 678 1631 
L 4684 1631 
L 4684 1100 
L 678 1100 
L 678 1631 
z
" transform="scale(0.015625)"/>
     <path id="DejaVuSans-36" d="M 2113 2584 
Q 1688 2584 1439 2293 
Q 1191 2003 1191 1497 
Q 1191 994 1439 701 
Q 1688 409 2113 409 
Q 2538 409 2786 701 
Q 3034 994 3034 1497 
Q 3034 2003 2786 2293 
Q 2538 2584 2113 2584 
z
M 3366 4563 
L 3366 3988 
Q 3128 4100 2886 4159 
Q 2644 4219 2406 4219 
Q 1781 4219 1451 3797 
Q 1122 3375 1075 2522 
Q 1259 2794 1537 2939 
Q 1816 3084 2150 3084 
Q 2853 3084 3261 2657 
Q 3669 2231 3669 1497 
Q 3669 778 3244 343 
Q 2819 -91 2113 -91 
Q 1303 -91 875 529 
Q 447 1150 447 2328 
Q 447 3434 972 4092 
Q 1497 4750 2381 4750 
Q 2619 4750 2861 4703 
Q 3103 4656 3366 4563 
z
" transform="scale(0.015625)"/>
     <path id="DejaVuSans-2d" d="M 313 2009 
L 1997 2009 
L 1997 1497 
L 313 1497 
L 313 2009 
z
" transform="scale(0.015625)"/>
     <path id="DejaVuSans-39" d="M 703 97 
L 703 672 
Q 941 559 1184 500 
Q 1428 441 1663 441 
Q 2288 441 2617 861 
Q 2947 1281 2994 2138 
Q 2813 1869 2534 1725 
Q 2256 1581 1919 1581 
Q 1219 1581 811 2004 
Q 403 2428 403 3163 
Q 403 3881 828 4315 
Q 1253 4750 1959 4750 
Q 2769 4750 3195 4129 
Q 3622 3509 3622 2328 
Q 3622 1225 3098 567 
Q 2575 -91 1691 -91 
Q 1453 -91 1209 -44 
Q 966 3 703 97 
z
M 1959 2075 
Q 2384 2075 2632 2365 
Q 2881 2656 2881 3163 
Q 2881 3666 2632 3958 
Q 2384 4250 1959 4250 
Q 1534 4250 1286 3958 
Q 1038 3666 1038 3163 
Q 1038 2656 1286 2365 
Q 1534 2075 1959 2075 
z
" transform="scale(0.015625)"/>
     <path id="DejaVuSans-29" d="M 513 4856 
L 1013 4856 
Q 1481 4119 1714 3412 
Q 1947 2706 1947 2009 
Q 1947 1309 1714 600 
Q 1481 -109 1013 -844 
L 513 -844 
Q 928 -128 1133 580 
Q 1338 1288 1338 2009 
Q 1338 2731 1133 3434 
Q 928 4138 513 4856 
z
" transform="scale(0.015625)"/>
    </defs>
    <use xlink:href="#DejaVuSans-44"/>
    <use xlink:href="#DejaVuSans-46" x="77.001953"/>
    <use xlink:href="#DejaVuSans-46" x="134.521484"/>
    <use xlink:href="#DejaVuSans-20" x="192.041016"/>
    <use xlink:href="#DejaVuSans-75" x="223.828125"/>
    <use xlink:href="#DejaVuSans-6e" x="287.207031"/>
    <use xlink:href="#DejaVuSans-64" x="350.585938"/>
    <use xlink:href="#DejaVuSans-65" x="414.0625"/>
    <use xlink:href="#DejaVuSans-72" x="475.585938"/>
    <use xlink:href="#DejaVuSans-20" x="516.699219"/>
    <use xlink:href="#DejaVuSans-42" x="548.486328"/>
    <use xlink:href="#DejaVuSans-42" x="617.089844"/>
    <use xlink:href="#DejaVuSans-49" x="685.693359"/>
    <use xlink:href="#DejaVuSans-20" x="715.185547"/>
    <use xlink:href="#DejaVuSans-73" x="746.972656"/>
    <use xlink:href="#DejaVuSans-77" x="799.072266"/>
    <use xlink:href="#DejaVuSans-65" x="880.859375"/>
    <use xlink:href="#DejaVuSans-65" x="942.382812"/>
    <use xlink:href="#DejaVuSans-70" x="1003.90625"/>
    <use xlink:href="#DejaVuSans-20" x="1067.382812"/>
    <use xlink:href="#DejaVuSans-61" x="1099.169922"/>
    <use xlink:href="#DejaVuSans-6e" x="1160.449219"/>
    <use xlink:href="#DejaVuSans-61" x="1223.828125"/>
    <use xlink:href="#DejaVuSans-6c" x="1285.107422"/>
    <use xlink:href="#DejaVuSans-79" x="1312.890625"/>
    <use xlink:href="#DejaVuSans-73" x="1372.070312"/>
    <use xlink:href="#DejaVuSans-69" x="1424.169922"/>
    <use xlink:href="#DejaVuSans-73" x="1451.953125"/>
    <use xlink:href="#DejaVuSans-20" x="1504.052734"/>
    <use xlink:href="#DejaVuSans-28" x="1535.839844"/>
    <use xlink:href="#DejaVuSans-53" x="1574.853516"/>
    <use xlink:href="#DejaVuSans-77" x="1638.330078"/>
    <use xlink:href="#DejaVuSans-65" x="1720.117188"/>
    <use xlink:href="#DejaVuSans-65" x="1781.640625"/>
    <use xlink:href="#DejaVuSans-70" x="1843.164062"/>
    <use xlink:href="#DejaVuSans-20" x="1906.640625"/>
    <use xlink:href="#DejaVuSans-3d" x="1938.427734"/>
    <use xlink:href="#DejaVuSans-20" x="2022.216797"/>
    <use xlink:href="#DejaVuSans-36" x="2054.003906"/>
    <use xlink:href="#DejaVuSans-32" x="2117.626953"/>
    <use xlink:href="#DejaVuSans-45" x="2181.25"/>
    <use xlink:href="#DejaVuSans-2d" x="2244.433594"/>
    <use xlink:href="#DejaVuSans-39" x="2280.517578"/>
    <use xlink:href="#DejaVuSans-29" x="2344.140625"/>
   </g>
  </g>
 </g>
 <defs>
  <clipPath id="pc4db83b898">
   <rect x="100.8" y="38.88" width="887.04" height="92.731034"/>
  </clipPath>
  <clipPath id="p3a651934c8">
   <rect x="100.8" y="150.157241" width="887.04" height="92.731034"/>
  </clipPath>
  <clipPath id="p2919d84a00">
   <rect x="100.8" y="261.434483" width="887.04" height="92.731034"/>
  </clipPath>
  <clipPath id="pc74245ed23">
   <rect x="100.8" y="372.711724" width="887.04" height="92.731034"/>
  </clipPath>
  <clipPath id="pee491311e4">
   <rect x="100.8" y="483.988966" width="887.04" height="92.731034"/>
  </clipPath>
  <clipPath id="p5b95186789">
   <rect x="201.6" y="609.12" width="655.2" height="25.92"/>
  </clipPath>
  <clipPath id="pc9077afef0">
   <path d="M 201.6 628.56 
L 856.8 628.56 
L 856.8 615.6 
L 201.6 615.6 
z
"/>
  </clipPath>
 </defs>
</svg>
