<?xml version="1.0" encoding="utf-8" standalone="no"?>
<!DOCTYPE svg PUBLIC "-//W3C//DTD SVG 1.1//EN"
  "http://www.w3.org/Graphics/SVG/1.1/DTD/svg11.dtd">
<svg xmlns:xlink="http://www.w3.org/1999/xlink" width="1008pt" height="648pt" viewBox="0 0 1008 648" xmlns="http://www.w3.org/2000/svg" version="1.1">
 <metadata>
  <rdf:RDF xmlns:dc="http://purl.org/dc/elements/1.1/" xmlns:cc="http://creativecommons.org/ns#" xmlns:rdf="http://www.w3.org/1999/02/22-rdf-syntax-ns#">
   <cc:Work>
    <dc:type rdf:resource="http://purl.org/dc/dcmitype/StillImage"/>
    <dc:date>2024-06-03T10:45:31.305004</dc:date>
    <dc:format>image/svg+xml</dc:format>
    <dc:creator>
     <cc:Agent>
      <dc:title>Matplotlib v3.9.0, https://matplotlib.org/</dc:title>
     </cc:Agent>
    </dc:creator>
   </cc:Work>
  </rdf:RDF>
 </metadata>
 <defs>
  <style type="text/css">*{stroke-linejoin: round; stroke-linecap: butt}</style>
 </defs>
 <g id="figure_1">
  <g id="patch_1">
   <path d="M 0 648 
L 1008 648 
L 1008 0 
L 0 0 
z
" style="fill: #ffffff"/>
  </g>
  <g id="axes_1">
   <g id="patch_2">
    <path d="M 100.8 131.611034 
L 987.84 131.611034 
L 987.84 38.88 
L 100.8 38.88 
z
" style="fill: #eeeeee"/>
   </g>
   <g id="matplotlib.axis_1">
    <g id="xtick_1">
     <g id="line2d_1">
      <path d="M 141.12 131.611034 
L 141.12 38.88 
" clip-path="url(#p159a9db64d)" style="fill: none; stroke-dasharray: 1.85,0.8; stroke-dashoffset: 0; stroke: #b2b2b2; stroke-width: 0.5"/>
     </g>
     <g id="line2d_2">
      <defs>
       <path id="mb94c3f305d" d="M 0 0 
L 0 -3.5 
" style="stroke: #000000; stroke-width: 0.8"/>
      </defs>
      <g>
       <use xlink:href="#mb94c3f305d" x="141.12" y="131.611034" style="stroke: #000000; stroke-width: 0.8"/>
      </g>
     </g>
    </g>
    <g id="xtick_2">
     <g id="line2d_3">
      <path d="M 302.4 131.611034 
L 302.4 38.88 
" clip-path="url(#p159a9db64d)" style="fill: none; stroke-dasharray: 1.85,0.8; stroke-dashoffset: 0; stroke: #b2b2b2; stroke-width: 0.5"/>
     </g>
     <g id="line2d_4">
      <g>
       <use xlink:href="#mb94c3f305d" x="302.4" y="131.611034" style="stroke: #000000; stroke-width: 0.8"/>
      </g>
     </g>
    </g>
    <g id="xtick_3">
     <g id="line2d_5">
      <path d="M 463.68 131.611034 
L 463.68 38.88 
" clip-path="url(#p159a9db64d)" style="fill: none; stroke-dasharray: 1.85,0.8; stroke-dashoffset: 0; stroke: #b2b2b2; stroke-width: 0.5"/>
     </g>
     <g id="line2d_6">
      <g>
       <use xlink:href="#mb94c3f305d" x="463.68" y="131.611034" style="stroke: #000000; stroke-width: 0.8"/>
      </g>
     </g>
    </g>
    <g id="xtick_4">
     <g id="line2d_7">
      <path d="M 624.96 131.611034 
L 624.96 38.88 
" clip-path="url(#p159a9db64d)" style="fill: none; stroke-dasharray: 1.85,0.8; stroke-dashoffset: 0; stroke: #b2b2b2; stroke-width: 0.5"/>
     </g>
     <g id="line2d_8">
      <g>
       <use xlink:href="#mb94c3f305d" x="624.96" y="131.611034" style="stroke: #000000; stroke-width: 0.8"/>
      </g>
     </g>
    </g>
    <g id="xtick_5">
     <g id="line2d_9">
      <path d="M 786.24 131.611034 
L 786.24 38.88 
" clip-path="url(#p159a9db64d)" style="fill: none; stroke-dasharray: 1.85,0.8; stroke-dashoffset: 0; stroke: #b2b2b2; stroke-width: 0.5"/>
     </g>
     <g id="line2d_10">
      <g>
       <use xlink:href="#mb94c3f305d" x="786.24" y="131.611034" style="stroke: #000000; stroke-width: 0.8"/>
      </g>
     </g>
    </g>
    <g id="xtick_6">
     <g id="line2d_11">
      <path d="M 947.52 131.611034 
L 947.52 38.88 
" clip-path="url(#p159a9db64d)" style="fill: none; stroke-dasharray: 1.85,0.8; stroke-dashoffset: 0; stroke: #b2b2b2; stroke-width: 0.5"/>
     </g>
     <g id="line2d_12">
      <g>
       <use xlink:href="#mb94c3f305d" x="947.52" y="131.611034" style="stroke: #000000; stroke-width: 0.8"/>
      </g>
     </g>
    </g>
   </g>
   <g id="matplotlib.axis_2">
    <g id="ytick_1">
     <g id="line2d_13">
      <path d="M 100.8 98.340394 
L 987.84 98.340394 
" clip-path="url(#p159a9db64d)" style="fill: none; stroke-dasharray: 1.85,0.8; stroke-dashoffset: 0; stroke: #b2b2b2; stroke-width: 0.5"/>
     </g>
     <g id="line2d_14">
      <defs>
       <path id="mcb1f867fb0" d="M 0 0 
L 3.5 0 
" style="stroke: #000000; stroke-width: 0.8"/>
      </defs>
      <g>
       <use xlink:href="#mcb1f867fb0" x="100.8" y="98.340394" style="stroke: #000000; stroke-width: 0.8"/>
      </g>
     </g>
     <g id="text_1">
      <!-- −200 V -->
      <g transform="translate(44.819688 103.6593) scale(0.14 -0.14)">
       <defs>
        <path id="DejaVuSans-2212" d="M 678 2272 
L 4684 2272 
L 4684 1741 
L 678 1741 
L 678 2272 
z
" transform="scale(0.015625)"/>
        <path id="DejaVuSans-32" d="M 1228 531 
L 3431 531 
L 3431 0 
L 469 0 
L 469 531 
Q 828 903 1448 1529 
Q 2069 2156 2228 2338 
Q 2531 2678 2651 2914 
Q 2772 3150 2772 3378 
Q 2772 3750 2511 3984 
Q 2250 4219 1831 4219 
Q 1534 4219 1204 4116 
Q 875 4013 500 3803 
L 500 4441 
Q 881 4594 1212 4672 
Q 1544 4750 1819 4750 
Q 2544 4750 2975 4387 
Q 3406 4025 3406 3419 
Q 3406 3131 3298 2873 
Q 3191 2616 2906 2266 
Q 2828 2175 2409 1742 
Q 1991 1309 1228 531 
z
" transform="scale(0.015625)"/>
        <path id="DejaVuSans-30" d="M 2034 4250 
Q 1547 4250 1301 3770 
Q 1056 3291 1056 2328 
Q 1056 1369 1301 889 
Q 1547 409 2034 409 
Q 2525 409 2770 889 
Q 3016 1369 3016 2328 
Q 3016 3291 2770 3770 
Q 2525 4250 2034 4250 
z
M 2034 4750 
Q 2819 4750 3233 4129 
Q 3647 3509 3647 2328 
Q 3647 1150 3233 529 
Q 2819 -91 2034 -91 
Q 1250 -91 836 529 
Q 422 1150 422 2328 
Q 422 3509 836 4129 
Q 1250 4750 2034 4750 
z
" transform="scale(0.015625)"/>
        <path id="DejaVuSans-20" transform="scale(0.015625)"/>
        <path id="DejaVuSans-56" d="M 1831 0 
L 50 4666 
L 709 4666 
L 2188 738 
L 3669 4666 
L 4325 4666 
L 2547 0 
L 1831 0 
z
" transform="scale(0.015625)"/>
       </defs>
       <use xlink:href="#DejaVuSans-2212"/>
       <use xlink:href="#DejaVuSans-32" x="83.789062"/>
       <use xlink:href="#DejaVuSans-30" x="147.412109"/>
       <use xlink:href="#DejaVuSans-30" x="211.035156"/>
       <use xlink:href="#DejaVuSans-20" x="274.658203"/>
       <use xlink:href="#DejaVuSans-56" x="306.445312"/>
      </g>
     </g>
    </g>
    <g id="ytick_2">
     <g id="line2d_15">
      <path d="M 100.8 45.027377 
L 987.84 45.027377 
" clip-path="url(#p159a9db64d)" style="fill: none; stroke-dasharray: 1.85,0.8; stroke-dashoffset: 0; stroke: #b2b2b2; stroke-width: 0.5"/>
     </g>
     <g id="line2d_16">
      <g>
       <use xlink:href="#mcb1f867fb0" x="100.8" y="45.027377" style="stroke: #000000; stroke-width: 0.8"/>
      </g>
     </g>
     <g id="text_2">
      <!-- 0 V -->
      <g transform="translate(74.36625 50.346284) scale(0.14 -0.14)">
       <use xlink:href="#DejaVuSans-30"/>
       <use xlink:href="#DejaVuSans-20" x="63.623047"/>
       <use xlink:href="#DejaVuSans-56" x="95.410156"/>
      </g>
     </g>
    </g>
    <g id="text_3">
     <g id="patch_3">
      <path d="M 34.8768 131.080205 
L 34.8768 39.41083 
L 11.247425 39.41083 
L 11.247425 131.080205 
z
" style="fill: #ffff00; opacity: 0.2; stroke: #eeeeee; stroke-width: 0.5; stroke-linejoin: miter"/>
     </g>
     <!-- VPULSE BBI -->
     <g transform="translate(26.925238 126.040205) rotate(-90) scale(0.14 -0.14)">
      <defs>
       <path id="DejaVuSans-50" d="M 1259 4147 
L 1259 2394 
L 2053 2394 
Q 2494 2394 2734 2622 
Q 2975 2850 2975 3272 
Q 2975 3691 2734 3919 
Q 2494 4147 2053 4147 
L 1259 4147 
z
M 628 4666 
L 2053 4666 
Q 2838 4666 3239 4311 
Q 3641 3956 3641 3272 
Q 3641 2581 3239 2228 
Q 2838 1875 2053 1875 
L 1259 1875 
L 1259 0 
L 628 0 
L 628 4666 
z
" transform="scale(0.015625)"/>
       <path id="DejaVuSans-55" d="M 556 4666 
L 1191 4666 
L 1191 1831 
Q 1191 1081 1462 751 
Q 1734 422 2344 422 
Q 2950 422 3222 751 
Q 3494 1081 3494 1831 
L 3494 4666 
L 4128 4666 
L 4128 1753 
Q 4128 841 3676 375 
Q 3225 -91 2344 -91 
Q 1459 -91 1007 375 
Q 556 841 556 1753 
L 556 4666 
z
" transform="scale(0.015625)"/>
       <path id="DejaVuSans-4c" d="M 628 4666 
L 1259 4666 
L 1259 531 
L 3531 531 
L 3531 0 
L 628 0 
L 628 4666 
z
" transform="scale(0.015625)"/>
       <path id="DejaVuSans-53" d="M 3425 4513 
L 3425 3897 
Q 3066 4069 2747 4153 
Q 2428 4238 2131 4238 
Q 1616 4238 1336 4038 
Q 1056 3838 1056 3469 
Q 1056 3159 1242 3001 
Q 1428 2844 1947 2747 
L 2328 2669 
Q 3034 2534 3370 2195 
Q 3706 1856 3706 1288 
Q 3706 609 3251 259 
Q 2797 -91 1919 -91 
Q 1588 -91 1214 -16 
Q 841 59 441 206 
L 441 856 
Q 825 641 1194 531 
Q 1563 422 1919 422 
Q 2459 422 2753 634 
Q 3047 847 3047 1241 
Q 3047 1584 2836 1778 
Q 2625 1972 2144 2069 
L 1759 2144 
Q 1053 2284 737 2584 
Q 422 2884 422 3419 
Q 422 4038 858 4394 
Q 1294 4750 2059 4750 
Q 2388 4750 2728 4690 
Q 3069 4631 3425 4513 
z
" transform="scale(0.015625)"/>
       <path id="DejaVuSans-45" d="M 628 4666 
L 3578 4666 
L 3578 4134 
L 1259 4134 
L 1259 2753 
L 3481 2753 
L 3481 2222 
L 1259 2222 
L 1259 531 
L 3634 531 
L 3634 0 
L 628 0 
L 628 4666 
z
" transform="scale(0.015625)"/>
       <path id="DejaVuSans-42" d="M 1259 2228 
L 1259 519 
L 2272 519 
Q 2781 519 3026 730 
Q 3272 941 3272 1375 
Q 3272 1813 3026 2020 
Q 2781 2228 2272 2228 
L 1259 2228 
z
M 1259 4147 
L 1259 2741 
L 2194 2741 
Q 2656 2741 2882 2914 
Q 3109 3088 3109 3444 
Q 3109 3797 2882 3972 
Q 2656 4147 2194 4147 
L 1259 4147 
z
M 628 4666 
L 2241 4666 
Q 2963 4666 3353 4366 
Q 3744 4066 3744 3513 
Q 3744 3084 3544 2831 
Q 3344 2578 2956 2516 
Q 3422 2416 3680 2098 
Q 3938 1781 3938 1306 
Q 3938 681 3513 340 
Q 3088 0 2303 0 
L 628 0 
L 628 4666 
z
" transform="scale(0.015625)"/>
       <path id="DejaVuSans-49" d="M 628 4666 
L 1259 4666 
L 1259 0 
L 628 0 
L 628 4666 
z
" transform="scale(0.015625)"/>
      </defs>
      <use xlink:href="#DejaVuSans-56"/>
      <use xlink:href="#DejaVuSans-50" x="68.408203"/>
      <use xlink:href="#DejaVuSans-55" x="128.710938"/>
      <use xlink:href="#DejaVuSans-4c" x="201.904297"/>
      <use xlink:href="#DejaVuSans-53" x="257.617188"/>
      <use xlink:href="#DejaVuSans-45" x="321.09375"/>
      <use xlink:href="#DejaVuSans-20" x="384.277344"/>
      <use xlink:href="#DejaVuSans-42" x="416.064453"/>
      <use xlink:href="#DejaVuSans-42" x="484.667969"/>
      <use xlink:href="#DejaVuSans-49" x="553.271484"/>
     </g>
    </g>
   </g>
   <g id="line2d_17">
    <path d="M 141.12 45.027377 
L 228.243456 45.136282 
L 228.727296 46.425538 
L 236.952576 69.006772 
L 244.371456 89.863624 
L 245.984256 94.440546 
L 247.790592 99.673219 
L 251.27424 110.807642 
L 252.854784 115.851054 
L 254.080512 119.550977 
L 257.983488 121.36362 
L 258.564096 121.619522 
L 259.435008 122.003376 
L 260.080128 122.269941 
L 261.660672 122.936354 
L 262.305792 123.202919 
L 263.402496 123.629423 
L 264.144384 123.922644 
L 265.241088 124.349149 
L 266.144256 124.677024 
L 266.821632 124.943589 
L 267.628032 125.25547 
L 268.982784 125.804594 
L 271.627776 126.790885 
L 272.24064 127.022796 
L 274.176 127.395987 
L 292.658688 127.289361 
L 292.88448 126.801547 
L 311.173632 75.087922 
L 314.915328 63.292417 
L 318.624768 51.617666 
L 323.237376 49.3412 
L 328.591872 46.984578 
L 337.300992 43.484472 
L 338.171904 43.268927 
L 352.461312 43.108189 
L 359.267328 43.184799 
L 374.621184 43.746186 
L 402.3936 44.46146 
L 428.03712 44.774399 
L 463.647744 44.945888 
L 511.676928 44.953885 
L 947.52 44.953885 
L 947.52 44.953885 
" clip-path="url(#p159a9db64d)" style="fill: none; stroke: #ff0000; stroke-width: 2; stroke-linecap: square"/>
   </g>
   <g id="patch_4">
    <path d="M 100.8 131.611034 
L 100.8 38.88 
" style="fill: none; stroke: #bcbcbc; stroke-width: 0.8; stroke-linejoin: miter; stroke-linecap: square"/>
   </g>
   <g id="patch_5">
    <path d="M 987.84 131.611034 
L 987.84 38.88 
" style="fill: none; stroke: #bcbcbc; stroke-width: 0.8; stroke-linejoin: miter; stroke-linecap: square"/>
   </g>
   <g id="patch_6">
    <path d="M 100.8 131.611034 
L 987.84 131.611034 
" style="fill: none; stroke: #bcbcbc; stroke-width: 0.8; stroke-linejoin: miter; stroke-linecap: square"/>
   </g>
   <g id="patch_7">
    <path d="M 100.8 38.88 
L 987.84 38.88 
" style="fill: none; stroke: #bcbcbc; stroke-width: 0.8; stroke-linejoin: miter; stroke-linecap: square"/>
   </g>
  </g>
  <g id="axes_2">
   <g id="patch_8">
    <path d="M 100.8 242.888276 
L 987.84 242.888276 
L 987.84 150.157241 
L 100.8 150.157241 
z
" style="fill: #eeeeee"/>
   </g>
   <g id="matplotlib.axis_3">
    <g id="xtick_7">
     <g id="line2d_18">
      <path d="M 141.12 242.888276 
L 141.12 150.157241 
" clip-path="url(#p704dc13984)" style="fill: none; stroke-dasharray: 1.85,0.8; stroke-dashoffset: 0; stroke: #b2b2b2; stroke-width: 0.5"/>
     </g>
     <g id="line2d_19">
      <g>
       <use xlink:href="#mb94c3f305d" x="141.12" y="242.888276" style="stroke: #000000; stroke-width: 0.8"/>
      </g>
     </g>
    </g>
    <g id="xtick_8">
     <g id="line2d_20">
      <path d="M 302.4 242.888276 
L 302.4 150.157241 
" clip-path="url(#p704dc13984)" style="fill: none; stroke-dasharray: 1.85,0.8; stroke-dashoffset: 0; stroke: #b2b2b2; stroke-width: 0.5"/>
     </g>
     <g id="line2d_21">
      <g>
       <use xlink:href="#mb94c3f305d" x="302.4" y="242.888276" style="stroke: #000000; stroke-width: 0.8"/>
      </g>
     </g>
    </g>
    <g id="xtick_9">
     <g id="line2d_22">
      <path d="M 463.68 242.888276 
L 463.68 150.157241 
" clip-path="url(#p704dc13984)" style="fill: none; stroke-dasharray: 1.85,0.8; stroke-dashoffset: 0; stroke: #b2b2b2; stroke-width: 0.5"/>
     </g>
     <g id="line2d_23">
      <g>
       <use xlink:href="#mb94c3f305d" x="463.68" y="242.888276" style="stroke: #000000; stroke-width: 0.8"/>
      </g>
     </g>
    </g>
    <g id="xtick_10">
     <g id="line2d_24">
      <path d="M 624.96 242.888276 
L 624.96 150.157241 
" clip-path="url(#p704dc13984)" style="fill: none; stroke-dasharray: 1.85,0.8; stroke-dashoffset: 0; stroke: #b2b2b2; stroke-width: 0.5"/>
     </g>
     <g id="line2d_25">
      <g>
       <use xlink:href="#mb94c3f305d" x="624.96" y="242.888276" style="stroke: #000000; stroke-width: 0.8"/>
      </g>
     </g>
    </g>
    <g id="xtick_11">
     <g id="line2d_26">
      <path d="M 786.24 242.888276 
L 786.24 150.157241 
" clip-path="url(#p704dc13984)" style="fill: none; stroke-dasharray: 1.85,0.8; stroke-dashoffset: 0; stroke: #b2b2b2; stroke-width: 0.5"/>
     </g>
     <g id="line2d_27">
      <g>
       <use xlink:href="#mb94c3f305d" x="786.24" y="242.888276" style="stroke: #000000; stroke-width: 0.8"/>
      </g>
     </g>
    </g>
    <g id="xtick_12">
     <g id="line2d_28">
      <path d="M 947.52 242.888276 
L 947.52 150.157241 
" clip-path="url(#p704dc13984)" style="fill: none; stroke-dasharray: 1.85,0.8; stroke-dashoffset: 0; stroke: #b2b2b2; stroke-width: 0.5"/>
     </g>
     <g id="line2d_29">
      <g>
       <use xlink:href="#mb94c3f305d" x="947.52" y="242.888276" style="stroke: #000000; stroke-width: 0.8"/>
      </g>
     </g>
    </g>
   </g>
   <g id="matplotlib.axis_4">
    <g id="ytick_3">
     <g id="line2d_30">
      <path d="M 100.8 215.566169 
L 987.84 215.566169 
" clip-path="url(#p704dc13984)" style="fill: none; stroke-dasharray: 1.85,0.8; stroke-dashoffset: 0; stroke: #b2b2b2; stroke-width: 0.5"/>
     </g>
     <g id="line2d_31">
      <g>
       <use xlink:href="#mcb1f867fb0" x="100.8" y="215.566169" style="stroke: #000000; stroke-width: 0.8"/>
      </g>
     </g>
     <g id="text_4">
      <!-- 0 V -->
      <g transform="translate(74.36625 220.885075) scale(0.14 -0.14)">
       <use xlink:href="#DejaVuSans-30"/>
       <use xlink:href="#DejaVuSans-20" x="63.623047"/>
       <use xlink:href="#DejaVuSans-56" x="95.410156"/>
      </g>
     </g>
    </g>
    <g id="ytick_4">
     <g id="line2d_32">
      <path d="M 100.8 175.375784 
L 987.84 175.375784 
" clip-path="url(#p704dc13984)" style="fill: none; stroke-dasharray: 1.85,0.8; stroke-dashoffset: 0; stroke: #b2b2b2; stroke-width: 0.5"/>
     </g>
     <g id="line2d_33">
      <g>
       <use xlink:href="#mcb1f867fb0" x="100.8" y="175.375784" style="stroke: #000000; stroke-width: 0.8"/>
      </g>
     </g>
     <g id="text_5">
      <!-- 1 V -->
      <g transform="translate(74.36625 180.69469) scale(0.14 -0.14)">
       <defs>
        <path id="DejaVuSans-31" d="M 794 531 
L 1825 531 
L 1825 4091 
L 703 3866 
L 703 4441 
L 1819 4666 
L 2450 4666 
L 2450 531 
L 3481 531 
L 3481 0 
L 794 0 
L 794 531 
z
" transform="scale(0.015625)"/>
       </defs>
       <use xlink:href="#DejaVuSans-31"/>
       <use xlink:href="#DejaVuSans-20" x="63.623047"/>
       <use xlink:href="#DejaVuSans-56" x="95.410156"/>
      </g>
     </g>
    </g>
    <g id="text_6">
     <g id="patch_9">
      <path d="M 34.8768 224.531509 
L 34.8768 168.514009 
L 11.247425 168.514009 
L 11.247425 224.531509 
z
" style="fill: #ffff00; opacity: 0.2; stroke: #eeeeee; stroke-width: 0.5; stroke-linejoin: miter"/>
     </g>
     <!-- DFF IN -->
     <g transform="translate(26.925238 219.491509) rotate(-90) scale(0.14 -0.14)">
      <defs>
       <path id="DejaVuSans-44" d="M 1259 4147 
L 1259 519 
L 2022 519 
Q 2988 519 3436 956 
Q 3884 1394 3884 2338 
Q 3884 3275 3436 3711 
Q 2988 4147 2022 4147 
L 1259 4147 
z
M 628 4666 
L 1925 4666 
Q 3281 4666 3915 4102 
Q 4550 3538 4550 2338 
Q 4550 1131 3912 565 
Q 3275 0 1925 0 
L 628 0 
L 628 4666 
z
" transform="scale(0.015625)"/>
       <path id="DejaVuSans-46" d="M 628 4666 
L 3309 4666 
L 3309 4134 
L 1259 4134 
L 1259 2759 
L 3109 2759 
L 3109 2228 
L 1259 2228 
L 1259 0 
L 628 0 
L 628 4666 
z
" transform="scale(0.015625)"/>
       <path id="DejaVuSans-4e" d="M 628 4666 
L 1478 4666 
L 3547 763 
L 3547 4666 
L 4159 4666 
L 4159 0 
L 3309 0 
L 1241 3903 
L 1241 0 
L 628 0 
L 628 4666 
z
" transform="scale(0.015625)"/>
      </defs>
      <use xlink:href="#DejaVuSans-44"/>
      <use xlink:href="#DejaVuSans-46" x="77.001953"/>
      <use xlink:href="#DejaVuSans-46" x="134.521484"/>
      <use xlink:href="#DejaVuSans-20" x="192.041016"/>
      <use xlink:href="#DejaVuSans-49" x="223.828125"/>
      <use xlink:href="#DejaVuSans-4e" x="253.320312"/>
     </g>
    </g>
   </g>
   <g id="line2d_34">
    <path d="M 141.12 215.507475 
L 221.953536 215.444826 
L 222.276096 212.33442 
L 223.985664 196.671061 
L 225.437184 185.345813 
L 226.695168 177.144563 
L 227.4048 173.816397 
L 228.04992 171.818935 
L 228.340224 171.380859 
L 228.598272 171.517507 
L 229.146624 172.124382 
L 229.791744 172.900056 
L 231.565824 175.050242 
L 234.307584 178.993722 
L 237.371904 183.883686 
L 237.920256 185.299192 
L 238.436352 187.411196 
L 240.758784 198.156498 
L 242.113536 205.428546 
L 245.726208 220.282912 
L 245.952 220.733849 
L 246.339072 222.017931 
L 246.91968 223.453934 
L 247.177728 223.707535 
L 247.532544 224.270201 
L 247.758336 225.024976 
L 248.338944 226.691269 
L 251.241984 233.053005 
L 251.306496 233.192466 
L 253.725696 238.117798 
L 253.85472 238.381447 
L 254.048256 238.671621 
L 254.854656 237.73398 
L 255.241728 237.061594 
L 255.725568 235.980875 
L 256.983552 234.131715 
L 257.306112 233.540917 
L 257.56416 233.198896 
L 257.596416 233.218188 
L 257.822208 233.064259 
L 258.048 232.728669 
L 259.305984 231.372645 
L 259.725312 230.621085 
L 260.047872 230.387981 
L 260.273664 230.280271 
L 261.370368 229.308467 
L 262.144512 228.326616 
L 262.467072 227.673924 
L 262.789632 227.423136 
L 262.950912 227.484226 
L 263.499264 227.094379 
L 264.33792 226.299011 
L 265.079808 225.444162 
L 265.3056 225.020153 
L 265.370112 224.982776 
L 265.531392 224.845325 
L 268.273152 222.420639 
L 269.047296 221.640946 
L 269.402112 221.464108 
L 270.014976 220.943642 
L 272.595456 218.552596 
L 273.079296 218.077545 
L 274.111488 216.849126 
L 274.853376 215.653671 
L 275.46624 214.618359 
L 276.950016 212.165379 
L 277.337088 211.541102 
L 280.6272 206.580804 
L 282.014208 204.835336 
L 283.336704 203.983702 
L 283.981824 203.920201 
L 284.82048 204.037959 
L 285.239808 204.260212 
L 286.239744 205.102602 
L 287.207424 206.27174 
L 289.884672 210.371562 
L 291.1104 211.879505 
L 292.142592 212.75666 
L 292.755456 213.074686 
L 293.916672 211.93975 
L 295.400448 211.385163 
L 296.400384 211.201493 
L 300.754944 211.581453 
L 301.142016 211.631369 
L 301.787136 211.733935 
L 302.303232 211.800008 
L 302.819328 211.867046 
L 303.52896 211.965191 
L 303.948288 211.999473 
L 304.8192 212.091308 
L 306.399744 212.252552 
L 310.883328 212.463069 
L 311.59296 212.455554 
L 312.141312 212.454991 
L 313.592832 212.216742 
L 313.915392 212.156818 
L 315.076608 212.013258 
L 315.495936 211.988782 
L 316.205568 211.90595 
L 316.59264 211.845986 
L 317.23776 211.767936 
L 317.7216 211.700537 
L 318.269952 211.609064 
L 318.624768 211.691173 
L 319.3344 212.400372 
L 320.269824 213.197106 
L 320.78592 213.508783 
L 321.398784 213.762585 
L 322.205184 214.01273 
L 322.527744 214.086158 
L 324.140544 214.364074 
L 328.817664 214.771886 
L 333.494784 215.022031 
L 337.784832 215.178022 
L 338.010624 215.22355 
L 339.300864 215.442503 
L 339.720192 215.511691 
L 340.849152 215.613891 
L 341.26848 215.655174 
L 342.042624 215.707056 
L 342.461952 215.729165 
L 343.36512 215.750615 
L 343.68768 215.752741 
L 344.913408 215.796998 
L 345.235968 215.799611 
L 346.397184 215.836393 
L 346.719744 215.830047 
L 347.71968 215.790073 
L 350.074368 183.659022 
L 351.138816 172.831732 
L 352.3968 162.22549 
L 353.009664 158.556107 
L 353.590272 156.442093 
L 354.106368 155.381067 
L 354.557952 154.842516 
L 355.13856 154.476783 
L 355.719168 154.376307 
L 356.783616 154.484821 
L 358.718976 155.07562 
L 359.525376 155.356953 
L 363.170304 156.606874 
L 363.750912 156.787731 
L 365.492736 157.330301 
L 366.170112 157.555367 
L 366.524928 157.655843 
L 367.041024 157.79249 
L 370.492416 158.761078 
L 371.008512 158.897726 
L 375.105024 159.986885 
L 375.846912 162.0165 
L 376.717824 164.387732 
L 377.07264 164.460075 
L 377.362944 164.323428 
L 377.685504 164.050133 
L 379.362816 162.530937 
L 379.878912 162.281756 
L 380.685312 162.072766 
L 381.394944 162.008462 
L 384.233472 162.112957 
L 384.6528 162.153147 
L 385.29792 162.177261 
L 385.846272 162.205394 
L 386.42688 162.241566 
L 386.813952 162.277737 
L 387.330048 162.321947 
L 388.459008 162.430461 
L 388.910592 162.482708 
L 389.81376 162.59926 
L 390.749184 162.707774 
L 391.233024 162.772079 
L 392.265216 162.916764 
L 393.071616 163.025278 
L 393.878016 163.113697 
L 394.684416 163.222211 
L 402.71616 164.118457 
L 403.167744 164.166685 
L 406.812672 164.512323 
L 408.006144 164.616818 
L 408.68352 164.673084 
L 409.97376 164.777579 
L 410.683392 164.841884 
L 411.231744 164.882074 
L 413.263872 165.02676 
L 414.779904 165.131255 
L 415.13472 165.15135 
L 415.425024 165.083026 
L 415.94112 164.399789 
L 416.521728 164.094343 
L 417.55392 164.194819 
L 420.1344 165.046855 
L 421.876224 165.372397 
L 422.327808 165.428663 
L 423.295488 165.529139 
L 423.585792 165.561292 
L 425.843712 165.738129 
L 426.456576 165.766263 
L 428.03712 165.854681 
L 430.101504 165.963195 
L 430.45632 165.979272 
L 433.004544 166.083767 
L 433.35936 166.103862 
L 434.068992 166.119938 
L 434.617344 166.144052 
L 437.55264 166.252566 
L 438.03648 166.260604 
L 441.229824 166.365099 
L 441.552384 166.369118 
L 442.7136 166.40529 
L 447.003648 166.513804 
L 448.068096 166.537918 
L 452.519424 166.646432 
L 453.454848 166.65447 
L 455.745024 166.750927 
L 456.390144 167.586887 
L 456.970752 167.892334 
L 457.777152 167.984772 
L 458.906112 167.73961 
L 459.906048 167.478373 
L 463.970304 167.076469 
L 464.550912 167.044317 
L 465.61536 167.016184 
L 466.26048 166.98805 
L 496.032768 166.90365 
L 496.613376 166.172185 
L 497.22624 165.838605 
L 498.290688 165.806453 
L 502.032384 166.626337 
L 503.935488 166.754946 
L 509.80608 166.86346 
L 510.741504 166.871498 
L 536.385024 166.943841 
L 537.0624 167.767744 
L 537.772032 168.085248 
L 539.126784 168.145533 
L 540.029952 168.037019 
L 542.320128 167.578849 
L 547.86816 166.996088 
L 576.672768 166.90767 
L 577.285632 166.115919 
L 577.672704 165.914967 
L 578.221056 165.750186 
L 578.9952 165.8587 
L 580.12416 166.107881 
L 582.446592 166.574089 
L 585.317376 166.82327 
L 616.992768 166.90767 
L 618.057216 167.948601 
L 618.766848 168.101324 
L 620.057088 168.157591 
L 621.508608 167.86822 
L 623.3472 167.522582 
L 628.411392 167.000107 
L 657.312768 166.90365 
L 657.828864 166.204338 
L 658.377216 165.854681 
L 659.667456 165.798415 
L 663.538176 166.650451 
L 665.538048 166.791117 
L 697.600512 166.887574 
L 697.729536 167.048336 
L 698.245632 167.683344 
L 698.632704 167.920467 
L 699.439104 168.105343 
L 701.503488 167.996829 
L 702.955008 167.707458 
L 704.342016 167.474354 
L 708.98688 167.004126 
L 737.952768 166.90365 
L 738.468864 166.208357 
L 738.952704 165.874777 
L 739.210752 165.842624 
L 740.855808 165.947119 
L 744.081408 166.638394 
L 746.178048 166.791117 
L 778.240512 166.887574 
L 778.369536 167.048336 
L 778.885632 167.683344 
L 779.272704 167.920467 
L 780.079104 168.105343 
L 782.143488 167.996829 
L 783.562752 167.711477 
L 784.94976 167.478373 
L 789.62688 167.004126 
L 818.592768 166.90365 
L 819.108864 166.208357 
L 819.592704 165.874777 
L 819.850752 165.842624 
L 821.495808 165.947119 
L 824.721408 166.638394 
L 826.818048 166.791117 
L 858.880512 166.887574 
L 859.009536 167.048336 
L 859.525632 167.683344 
L 859.912704 167.920467 
L 860.719104 168.105343 
L 862.783488 167.996829 
L 864.202752 167.711477 
L 865.58976 167.478373 
L 870.26688 167.004126 
L 899.232768 166.90365 
L 899.748864 166.208357 
L 900.232704 165.874777 
L 900.490752 165.842624 
L 902.135808 165.947119 
L 905.361408 166.638394 
L 907.458048 166.791117 
L 939.520512 166.887574 
L 939.649536 167.052355 
L 940.165632 167.679325 
L 940.617216 167.928505 
L 941.520384 168.149552 
L 943.358976 168.041038 
L 946.003968 167.494449 
L 947.52 167.213116 
L 947.52 167.213116 
" clip-path="url(#p704dc13984)" style="fill: none; stroke: #008000; stroke-width: 2; stroke-linecap: square"/>
   </g>
   <g id="patch_10">
    <path d="M 100.8 242.888276 
L 100.8 150.157241 
" style="fill: none; stroke: #bcbcbc; stroke-width: 0.8; stroke-linejoin: miter; stroke-linecap: square"/>
   </g>
   <g id="patch_11">
    <path d="M 987.84 242.888276 
L 987.84 150.157241 
" style="fill: none; stroke: #bcbcbc; stroke-width: 0.8; stroke-linejoin: miter; stroke-linecap: square"/>
   </g>
   <g id="patch_12">
    <path d="M 100.8 242.888276 
L 987.84 242.888276 
" style="fill: none; stroke: #bcbcbc; stroke-width: 0.8; stroke-linejoin: miter; stroke-linecap: square"/>
   </g>
   <g id="patch_13">
    <path d="M 100.8 150.157241 
L 987.84 150.157241 
" style="fill: none; stroke: #bcbcbc; stroke-width: 0.8; stroke-linejoin: miter; stroke-linecap: square"/>
   </g>
  </g>
  <g id="axes_3">
   <g id="patch_14">
    <path d="M 100.8 354.165517 
L 987.84 354.165517 
L 987.84 261.434483 
L 100.8 261.434483 
z
" style="fill: #eeeeee"/>
   </g>
   <g id="matplotlib.axis_5">
    <g id="xtick_13">
     <g id="line2d_35">
      <path d="M 141.12 354.165517 
L 141.12 261.434483 
" clip-path="url(#p8dfca98fdf)" style="fill: none; stroke-dasharray: 1.85,0.8; stroke-dashoffset: 0; stroke: #b2b2b2; stroke-width: 0.5"/>
     </g>
     <g id="line2d_36">
      <g>
       <use xlink:href="#mb94c3f305d" x="141.12" y="354.165517" style="stroke: #000000; stroke-width: 0.8"/>
      </g>
     </g>
    </g>
    <g id="xtick_14">
     <g id="line2d_37">
      <path d="M 302.4 354.165517 
L 302.4 261.434483 
" clip-path="url(#p8dfca98fdf)" style="fill: none; stroke-dasharray: 1.85,0.8; stroke-dashoffset: 0; stroke: #b2b2b2; stroke-width: 0.5"/>
     </g>
     <g id="line2d_38">
      <g>
       <use xlink:href="#mb94c3f305d" x="302.4" y="354.165517" style="stroke: #000000; stroke-width: 0.8"/>
      </g>
     </g>
    </g>
    <g id="xtick_15">
     <g id="line2d_39">
      <path d="M 463.68 354.165517 
L 463.68 261.434483 
" clip-path="url(#p8dfca98fdf)" style="fill: none; stroke-dasharray: 1.85,0.8; stroke-dashoffset: 0; stroke: #b2b2b2; stroke-width: 0.5"/>
     </g>
     <g id="line2d_40">
      <g>
       <use xlink:href="#mb94c3f305d" x="463.68" y="354.165517" style="stroke: #000000; stroke-width: 0.8"/>
      </g>
     </g>
    </g>
    <g id="xtick_16">
     <g id="line2d_41">
      <path d="M 624.96 354.165517 
L 624.96 261.434483 
" clip-path="url(#p8dfca98fdf)" style="fill: none; stroke-dasharray: 1.85,0.8; stroke-dashoffset: 0; stroke: #b2b2b2; stroke-width: 0.5"/>
     </g>
     <g id="line2d_42">
      <g>
       <use xlink:href="#mb94c3f305d" x="624.96" y="354.165517" style="stroke: #000000; stroke-width: 0.8"/>
      </g>
     </g>
    </g>
    <g id="xtick_17">
     <g id="line2d_43">
      <path d="M 786.24 354.165517 
L 786.24 261.434483 
" clip-path="url(#p8dfca98fdf)" style="fill: none; stroke-dasharray: 1.85,0.8; stroke-dashoffset: 0; stroke: #b2b2b2; stroke-width: 0.5"/>
     </g>
     <g id="line2d_44">
      <g>
       <use xlink:href="#mb94c3f305d" x="786.24" y="354.165517" style="stroke: #000000; stroke-width: 0.8"/>
      </g>
     </g>
    </g>
    <g id="xtick_18">
     <g id="line2d_45">
      <path d="M 947.52 354.165517 
L 947.52 261.434483 
" clip-path="url(#p8dfca98fdf)" style="fill: none; stroke-dasharray: 1.85,0.8; stroke-dashoffset: 0; stroke: #b2b2b2; stroke-width: 0.5"/>
     </g>
     <g id="line2d_46">
      <g>
       <use xlink:href="#mb94c3f305d" x="947.52" y="354.165517" style="stroke: #000000; stroke-width: 0.8"/>
      </g>
     </g>
    </g>
   </g>
   <g id="matplotlib.axis_6">
    <g id="ytick_5">
     <g id="line2d_47">
      <path d="M 100.8 343.082999 
L 987.84 343.082999 
" clip-path="url(#p8dfca98fdf)" style="fill: none; stroke-dasharray: 1.85,0.8; stroke-dashoffset: 0; stroke: #b2b2b2; stroke-width: 0.5"/>
     </g>
     <g id="line2d_48">
      <g>
       <use xlink:href="#mcb1f867fb0" x="100.8" y="343.082999" style="stroke: #000000; stroke-width: 0.8"/>
      </g>
     </g>
     <g id="text_7">
      <!-- 0 V -->
      <g transform="translate(74.36625 348.401905) scale(0.14 -0.14)">
       <use xlink:href="#DejaVuSans-30"/>
       <use xlink:href="#DejaVuSans-20" x="63.623047"/>
       <use xlink:href="#DejaVuSans-56" x="95.410156"/>
      </g>
     </g>
    </g>
    <g id="ytick_6">
     <g id="line2d_49">
      <path d="M 100.8 299.615238 
L 987.84 299.615238 
" clip-path="url(#p8dfca98fdf)" style="fill: none; stroke-dasharray: 1.85,0.8; stroke-dashoffset: 0; stroke: #b2b2b2; stroke-width: 0.5"/>
     </g>
     <g id="line2d_50">
      <g>
       <use xlink:href="#mcb1f867fb0" x="100.8" y="299.615238" style="stroke: #000000; stroke-width: 0.8"/>
      </g>
     </g>
     <g id="text_8">
      <!-- 1 V -->
      <g transform="translate(74.36625 304.934144) scale(0.14 -0.14)">
       <use xlink:href="#DejaVuSans-31"/>
       <use xlink:href="#DejaVuSans-20" x="63.623047"/>
       <use xlink:href="#DejaVuSans-56" x="95.410156"/>
      </g>
     </g>
    </g>
    <g id="text_9">
     <g id="patch_15">
      <path d="M 34.8768 342.395313 
L 34.8768 273.204688 
L 11.247425 273.204688 
L 11.247425 342.395313 
z
" style="fill: #ffff00; opacity: 0.2; stroke: #eeeeee; stroke-width: 0.5; stroke-linejoin: miter"/>
     </g>
     <!-- CLK BUF -->
     <g transform="translate(26.925238 337.355313) rotate(-90) scale(0.14 -0.14)">
      <defs>
       <path id="DejaVuSans-43" d="M 4122 4306 
L 4122 3641 
Q 3803 3938 3442 4084 
Q 3081 4231 2675 4231 
Q 1875 4231 1450 3742 
Q 1025 3253 1025 2328 
Q 1025 1406 1450 917 
Q 1875 428 2675 428 
Q 3081 428 3442 575 
Q 3803 722 4122 1019 
L 4122 359 
Q 3791 134 3420 21 
Q 3050 -91 2638 -91 
Q 1578 -91 968 557 
Q 359 1206 359 2328 
Q 359 3453 968 4101 
Q 1578 4750 2638 4750 
Q 3056 4750 3426 4639 
Q 3797 4528 4122 4306 
z
" transform="scale(0.015625)"/>
       <path id="DejaVuSans-4b" d="M 628 4666 
L 1259 4666 
L 1259 2694 
L 3353 4666 
L 4166 4666 
L 1850 2491 
L 4331 0 
L 3500 0 
L 1259 2247 
L 1259 0 
L 628 0 
L 628 4666 
z
" transform="scale(0.015625)"/>
      </defs>
      <use xlink:href="#DejaVuSans-43"/>
      <use xlink:href="#DejaVuSans-4c" x="69.824219"/>
      <use xlink:href="#DejaVuSans-4b" x="125.537109"/>
      <use xlink:href="#DejaVuSans-20" x="191.113281"/>
      <use xlink:href="#DejaVuSans-42" x="222.900391"/>
      <use xlink:href="#DejaVuSans-55" x="291.503906"/>
      <use xlink:href="#DejaVuSans-46" x="364.697266"/>
     </g>
    </g>
   </g>
   <g id="line2d_51">
    <path d="M 141.12 343.08185 
L 173.376 343.08185 
L 173.601792 290.921686 
L 213.696 290.921686 
L 213.728256 294.90768 
L 213.85728 342.971334 
L 213.954048 343.160232 
L 214.01856 343.103609 
L 214.212096 343.058377 
L 214.470144 343.112375 
L 214.82496 343.081776 
L 228.243456 343.132052 
L 229.34016 344.056503 
L 230.211072 344.380381 
L 231.372288 344.561337 
L 233.37216 344.613194 
L 238.275072 344.478314 
L 239.17824 344.449147 
L 243.081216 344.327307 
L 246.7584 344.416285 
L 247.72608 344.773721 
L 250.62912 346.522168 
L 251.983872 347.371745 
L 253.499904 348.310432 
L 254.016 348.590364 
L 254.048256 349.95047 
L 254.241792 325.783265 
L 254.435328 325.500724 
L 254.467584 325.545931 
L 254.532096 325.457256 
L 254.725632 325.422048 
L 254.919168 325.303381 
L 255.370752 325.130814 
L 255.499776 325.020405 
L 255.532032 325.070393 
L 255.564288 325.026926 
L 255.725568 324.949553 
L 255.854592 324.931731 
L 255.983616 324.840884 
L 256.306176 324.730475 
L 257.531904 324.214948 
L 257.56416 324.276672 
L 257.628672 324.174957 
L 257.789952 324.16496 
L 257.918976 324.069331 
L 257.951232 324.12497 
L 258.015744 324.060203 
L 258.69312 323.822434 
L 261.628416 322.753562 
L 264.757248 321.661217 
L 264.886272 321.545158 
L 264.918528 321.57602 
L 265.14432 321.532987 
L 265.273344 321.418232 
L 265.434624 321.433446 
L 265.660416 321.307824 
L 265.918464 321.245665 
L 273.885696 318.336803 
L 274.530816 317.981671 
L 278.272512 315.583555 
L 282.756096 312.695991 
L 288.239616 309.573702 
L 292.594176 307.409877 
L 292.787712 307.21688 
L 294.17472 304.587515 
L 294.336 304.249336 
L 294.368256 302.959648 
L 294.529536 341.350808 
L 294.65856 341.391277 
L 295.723008 341.219188 
L 297.497088 341.170678 
L 302.335488 341.346331 
L 306.238464 341.50864 
L 312.657408 341.66056 
L 314.270208 341.623656 
L 318.495744 341.763144 
L 318.786048 342.075764 
L 319.463424 342.651381 
L 320.269824 343.03691 
L 321.302016 343.284702 
L 322.947072 343.433062 
L 326.817792 343.478873 
L 334.656 343.425373 
L 334.849536 265.64953 
L 334.914048 265.679957 
L 338.978304 267.440402 
L 339.720192 267.90116 
L 340.494336 268.331491 
L 342.72 269.657257 
L 343.268352 269.961532 
L 344.042496 270.391862 
L 350.203392 273.586743 
L 351.91296 274.395243 
L 353.332224 275.034219 
L 365.073408 279.667883 
L 365.331456 279.767858 
L 366.879744 280.276431 
L 367.170048 280.376407 
L 368.266752 280.711109 
L 368.621568 280.811085 
L 369.847296 281.189254 
L 374.976 282.619344 
L 375.169536 343.401726 
L 375.234048 343.30435 
L 375.588864 343.299638 
L 415.296 343.146114 
L 415.425024 288.270152 
L 415.521792 288.622241 
L 416.037888 288.661362 
L 417.489408 288.752645 
L 418.005504 288.791766 
L 419.457024 288.878701 
L 421.069824 288.978677 
L 421.42464 289.009104 
L 423.295488 289.10908 
L 423.650304 289.139508 
L 425.61792 289.239484 
L 425.972736 289.269911 
L 428.230656 289.369887 
L 428.585472 289.400314 
L 430.94016 289.50029 
L 431.294976 289.530718 
L 434.036736 289.630693 
L 434.391552 289.661121 
L 437.423616 289.761097 
L 437.778432 289.791524 
L 441.197568 289.8915 
L 441.552384 289.921927 
L 445.45536 290.021903 
L 445.810176 290.052331 
L 450.390528 290.152306 
L 450.745344 290.182734 
L 455.616 290.269669 
L 455.648256 295.146752 
L 455.745024 343.185996 
L 455.77728 343.021292 
L 456.003072 343.089023 
L 456.164352 343.102792 
L 457.196544 343.098803 
L 495.936 343.094297 
L 496.09728 290.400073 
L 496.161792 290.504395 
L 497.097216 290.487008 
L 536.256 290.487008 
L 536.385024 343.414892 
L 536.546304 343.162162 
L 536.804352 343.065262 
L 537.159168 343.11255 
L 537.481728 343.09407 
L 575.027712 343.094296 
L 576.576 343.094298 
L 576.705024 290.30879 
L 576.769536 290.491355 
L 576.89856 290.487008 
L 616.896 290.487008 
L 617.025024 343.414914 
L 617.186304 343.162158 
L 617.444352 343.065264 
L 617.799168 343.112549 
L 618.121728 343.09407 
L 655.861248 343.094297 
L 657.216 343.094298 
L 657.37728 290.260976 
L 657.441792 290.752162 
L 657.53856 290.304444 
L 657.603072 290.469621 
L 658.086912 290.487008 
L 697.536 290.487008 
L 697.665024 343.415001 
L 697.826304 343.162145 
L 698.084352 343.06526 
L 698.439168 343.112569 
L 698.761728 343.09407 
L 736.146432 343.094296 
L 737.856 343.094298 
L 738.01728 290.260976 
L 738.081792 290.752162 
L 738.17856 290.304444 
L 738.243072 290.469621 
L 738.726912 290.487008 
L 778.176 290.487008 
L 778.305024 343.414923 
L 778.466304 343.162158 
L 778.724352 343.065263 
L 779.079168 343.11255 
L 779.401728 343.09407 
L 817.141248 343.094297 
L 818.496 343.094298 
L 818.65728 290.260976 
L 818.721792 290.752162 
L 818.81856 290.304444 
L 818.883072 290.469621 
L 819.366912 290.487008 
L 858.816 290.487008 
L 858.945024 343.415005 
L 859.106304 343.162145 
L 859.364352 343.065259 
L 859.719168 343.11257 
L 860.041728 343.09407 
L 897.426432 343.094296 
L 899.136 343.094298 
L 899.29728 290.260976 
L 899.361792 290.752162 
L 899.45856 290.304444 
L 899.523072 290.469621 
L 900.006912 290.487008 
L 939.456 290.487008 
L 939.488256 298.324246 
L 939.61728 343.042603 
L 939.649536 343.168995 
L 939.714048 343.048067 
L 939.746304 343.009925 
L 939.810816 343.066027 
L 940.004352 343.12031 
L 940.230144 343.092918 
L 945.58464 343.094302 
L 947.52 343.094287 
L 947.52 343.094287 
" clip-path="url(#p8dfca98fdf)" style="fill: none; stroke: #0000ff; stroke-width: 2; stroke-linecap: square"/>
   </g>
   <g id="patch_16">
    <path d="M 100.8 354.165517 
L 100.8 261.434483 
" style="fill: none; stroke: #bcbcbc; stroke-width: 0.8; stroke-linejoin: miter; stroke-linecap: square"/>
   </g>
   <g id="patch_17">
    <path d="M 987.84 354.165517 
L 987.84 261.434483 
" style="fill: none; stroke: #bcbcbc; stroke-width: 0.8; stroke-linejoin: miter; stroke-linecap: square"/>
   </g>
   <g id="patch_18">
    <path d="M 100.8 354.165517 
L 987.84 354.165517 
" style="fill: none; stroke: #bcbcbc; stroke-width: 0.8; stroke-linejoin: miter; stroke-linecap: square"/>
   </g>
   <g id="patch_19">
    <path d="M 100.8 261.434483 
L 987.84 261.434483 
" style="fill: none; stroke: #bcbcbc; stroke-width: 0.8; stroke-linejoin: miter; stroke-linecap: square"/>
   </g>
  </g>
  <g id="axes_4">
   <g id="patch_20">
    <path d="M 100.8 465.442759 
L 987.84 465.442759 
L 987.84 372.711724 
L 100.8 372.711724 
z
" style="fill: #eeeeee"/>
   </g>
   <g id="matplotlib.axis_7">
    <g id="xtick_19">
     <g id="line2d_52">
      <path d="M 141.12 465.442759 
L 141.12 372.711724 
" clip-path="url(#pd27d688ec2)" style="fill: none; stroke-dasharray: 1.85,0.8; stroke-dashoffset: 0; stroke: #b2b2b2; stroke-width: 0.5"/>
     </g>
     <g id="line2d_53">
      <g>
       <use xlink:href="#mb94c3f305d" x="141.12" y="465.442759" style="stroke: #000000; stroke-width: 0.8"/>
      </g>
     </g>
    </g>
    <g id="xtick_20">
     <g id="line2d_54">
      <path d="M 302.4 465.442759 
L 302.4 372.711724 
" clip-path="url(#pd27d688ec2)" style="fill: none; stroke-dasharray: 1.85,0.8; stroke-dashoffset: 0; stroke: #b2b2b2; stroke-width: 0.5"/>
     </g>
     <g id="line2d_55">
      <g>
       <use xlink:href="#mb94c3f305d" x="302.4" y="465.442759" style="stroke: #000000; stroke-width: 0.8"/>
      </g>
     </g>
    </g>
    <g id="xtick_21">
     <g id="line2d_56">
      <path d="M 463.68 465.442759 
L 463.68 372.711724 
" clip-path="url(#pd27d688ec2)" style="fill: none; stroke-dasharray: 1.85,0.8; stroke-dashoffset: 0; stroke: #b2b2b2; stroke-width: 0.5"/>
     </g>
     <g id="line2d_57">
      <g>
       <use xlink:href="#mb94c3f305d" x="463.68" y="465.442759" style="stroke: #000000; stroke-width: 0.8"/>
      </g>
     </g>
    </g>
    <g id="xtick_22">
     <g id="line2d_58">
      <path d="M 624.96 465.442759 
L 624.96 372.711724 
" clip-path="url(#pd27d688ec2)" style="fill: none; stroke-dasharray: 1.85,0.8; stroke-dashoffset: 0; stroke: #b2b2b2; stroke-width: 0.5"/>
     </g>
     <g id="line2d_59">
      <g>
       <use xlink:href="#mb94c3f305d" x="624.96" y="465.442759" style="stroke: #000000; stroke-width: 0.8"/>
      </g>
     </g>
    </g>
    <g id="xtick_23">
     <g id="line2d_60">
      <path d="M 786.24 465.442759 
L 786.24 372.711724 
" clip-path="url(#pd27d688ec2)" style="fill: none; stroke-dasharray: 1.85,0.8; stroke-dashoffset: 0; stroke: #b2b2b2; stroke-width: 0.5"/>
     </g>
     <g id="line2d_61">
      <g>
       <use xlink:href="#mb94c3f305d" x="786.24" y="465.442759" style="stroke: #000000; stroke-width: 0.8"/>
      </g>
     </g>
    </g>
    <g id="xtick_24">
     <g id="line2d_62">
      <path d="M 947.52 465.442759 
L 947.52 372.711724 
" clip-path="url(#pd27d688ec2)" style="fill: none; stroke-dasharray: 1.85,0.8; stroke-dashoffset: 0; stroke: #b2b2b2; stroke-width: 0.5"/>
     </g>
     <g id="line2d_63">
      <g>
       <use xlink:href="#mb94c3f305d" x="947.52" y="465.442759" style="stroke: #000000; stroke-width: 0.8"/>
      </g>
     </g>
    </g>
   </g>
   <g id="matplotlib.axis_8">
    <g id="ytick_7">
     <g id="line2d_64">
      <path d="M 100.8 434.822603 
L 987.84 434.822603 
" clip-path="url(#pd27d688ec2)" style="fill: none; stroke-dasharray: 1.85,0.8; stroke-dashoffset: 0; stroke: #b2b2b2; stroke-width: 0.5"/>
     </g>
     <g id="line2d_65">
      <g>
       <use xlink:href="#mcb1f867fb0" x="100.8" y="434.822603" style="stroke: #000000; stroke-width: 0.8"/>
      </g>
     </g>
     <g id="text_10">
      <!-- 0 V -->
      <g transform="translate(74.36625 440.141509) scale(0.14 -0.14)">
       <use xlink:href="#DejaVuSans-30"/>
       <use xlink:href="#DejaVuSans-20" x="63.623047"/>
       <use xlink:href="#DejaVuSans-56" x="95.410156"/>
      </g>
     </g>
    </g>
    <g id="ytick_8">
     <g id="line2d_66">
      <path d="M 100.8 388.539261 
L 987.84 388.539261 
" clip-path="url(#pd27d688ec2)" style="fill: none; stroke-dasharray: 1.85,0.8; stroke-dashoffset: 0; stroke: #b2b2b2; stroke-width: 0.5"/>
     </g>
     <g id="line2d_67">
      <g>
       <use xlink:href="#mcb1f867fb0" x="100.8" y="388.539261" style="stroke: #000000; stroke-width: 0.8"/>
      </g>
     </g>
     <g id="text_11">
      <!-- 1 V -->
      <g transform="translate(74.36625 393.858168) scale(0.14 -0.14)">
       <use xlink:href="#DejaVuSans-31"/>
       <use xlink:href="#DejaVuSans-20" x="63.623047"/>
       <use xlink:href="#DejaVuSans-56" x="95.410156"/>
      </g>
     </g>
    </g>
    <g id="text_12">
     <g id="patch_21">
      <path d="M 34.8768 454.693023 
L 34.8768 383.46146 
L 11.247425 383.46146 
L 11.247425 454.693023 
z
" style="fill: #ffff00; opacity: 0.2; stroke: #eeeeee; stroke-width: 0.5; stroke-linejoin: miter"/>
     </g>
     <!-- DFF OUT -->
     <g transform="translate(26.925238 449.653023) rotate(-90) scale(0.14 -0.14)">
      <defs>
       <path id="DejaVuSans-4f" d="M 2522 4238 
Q 1834 4238 1429 3725 
Q 1025 3213 1025 2328 
Q 1025 1447 1429 934 
Q 1834 422 2522 422 
Q 3209 422 3611 934 
Q 4013 1447 4013 2328 
Q 4013 3213 3611 3725 
Q 3209 4238 2522 4238 
z
M 2522 4750 
Q 3503 4750 4090 4092 
Q 4678 3434 4678 2328 
Q 4678 1225 4090 567 
Q 3503 -91 2522 -91 
Q 1538 -91 948 565 
Q 359 1222 359 2328 
Q 359 3434 948 4092 
Q 1538 4750 2522 4750 
z
" transform="scale(0.015625)"/>
       <path id="DejaVuSans-54" d="M -19 4666 
L 3928 4666 
L 3928 4134 
L 2272 4134 
L 2272 0 
L 1638 0 
L 1638 4134 
L -19 4134 
L -19 4666 
z
" transform="scale(0.015625)"/>
      </defs>
      <use xlink:href="#DejaVuSans-44"/>
      <use xlink:href="#DejaVuSans-46" x="77.001953"/>
      <use xlink:href="#DejaVuSans-46" x="134.521484"/>
      <use xlink:href="#DejaVuSans-20" x="192.041016"/>
      <use xlink:href="#DejaVuSans-4f" x="223.828125"/>
      <use xlink:href="#DejaVuSans-55" x="302.539062"/>
      <use xlink:href="#DejaVuSans-54" x="375.732422"/>
     </g>
    </g>
   </g>
   <g id="line2d_68">
    <path d="M 141.12 399.900433 
L 173.408256 399.956899 
L 173.440512 401.873029 
L 173.601792 434.825427 
L 174.053376 434.819231 
L 182.923776 434.821357 
L 228.275712 434.907222 
L 228.953088 435.606642 
L 229.727232 436.043465 
L 230.727168 436.314592 
L 232.178688 436.442288 
L 235.081728 436.411371 
L 238.178304 436.212908 
L 239.081472 435.970337 
L 239.629824 435.557073 
L 239.98464 434.819582 
L 240.242688 433.602296 
L 240.436224 431.542039 
L 240.694272 426.12226 
L 241.016832 419.835594 
L 241.049088 419.817081 
L 241.081344 419.888357 
L 241.339392 420.419227 
L 241.403904 420.334066 
L 241.629696 421.679985 
L 243.661824 431.265682 
L 243.69408 431.220324 
L 243.726336 430.624102 
L 243.790848 431.221759 
L 243.952128 432.55819 
L 244.306944 434.113496 
L 244.3392 433.680376 
L 244.371456 433.735268 
L 244.564992 435.41017 
L 245.016576 437.38059 
L 245.048832 436.918868 
L 245.081088 437.426735 
L 245.1456 437.280109 
L 245.500416 439.41715 
L 245.726208 440.169254 
L 245.79072 439.989212 
L 245.822976 439.990138 
L 245.984256 440.968568 
L 246.016512 440.493238 
L 246.081024 440.734837 
L 246.11328 440.832957 
L 246.27456 441.826198 
L 246.661632 442.927741 
L 247.177728 443.806662 
L 247.532544 444.750379 
L 247.661568 445.331235 
L 247.693824 445.086859 
L 247.72608 445.440001 
L 249.66144 450.904675 
L 249.693696 450.793132 
L 249.758208 450.878757 
L 250.209792 452.026121 
L 250.274304 452.443596 
L 250.338816 452.432488 
L 250.371072 452.460258 
L 250.564608 453.229487 
L 250.983936 454.082027 
L 251.048448 454.195884 
L 251.43552 455.376109 
L 251.467776 455.30437 
L 251.500032 455.271046 
L 251.532288 455.344636 
L 251.693568 455.958816 
L 251.725824 455.864398 
L 251.75808 456.087484 
L 253.37088 459.89614 
L 253.983744 461.227712 
L 254.016 461.103672 
L 254.048256 461.164766 
L 254.112768 461.129128 
L 254.241792 461.049058 
L 254.274048 461.133294 
L 254.306304 460.929184 
L 254.725632 460.119688 
L 255.14496 459.274092 
L 256.27392 456.960388 
L 256.338432 456.835885 
L 256.660992 456.199489 
L 257.531904 454.77674 
L 257.56416 454.88782 
L 257.596416 454.839685 
L 257.757696 454.504593 
L 257.789952 454.630021 
L 257.822208 454.391199 
L 258.048 454.164874 
L 258.757632 453.339179 
L 258.951168 453.073975 
L 259.112448 452.580132 
L 259.144704 452.835616 
L 259.209216 452.470441 
L 259.98336 451.479514 
L 260.015616 451.715559 
L 260.047872 451.377691 
L 260.112384 451.610033 
L 260.241408 451.27633 
L 260.273664 451.333259 
L 260.30592 451.224956 
L 260.4672 451.007887 
L 260.95104 450.610313 
L 261.176832 450.264114 
L 261.305856 450.077592 
L 261.370368 450.040565 
L 261.628416 449.393987 
L 261.692928 449.294941 
L 261.725184 449.511084 
L 261.789696 449.229681 
L 261.886464 449.059821 
L 261.91872 449.377788 
L 261.983232 449.025572 
L 262.015488 448.900144 
L 262.047744 449.23107 
L 262.112256 448.787212 
L 262.757376 448.080466 
L 262.821888 448.269765 
L 262.854144 448.095276 
L 262.8864 448.065192 
L 262.918656 448.196637 
L 262.950912 448.006875 
L 263.499264 447.547282 
L 263.983104 446.740563 
L 264.17664 446.354097 
L 264.241152 446.238852 
L 264.273408 446.561446 
L 264.33792 446.099539 
L 264.402432 446.037519 
L 264.434688 446.392512 
L 264.466944 445.932919 
L 264.4992 445.969483 
L 264.595968 445.79268 
L 264.628224 446.167112 
L 264.66048 445.91024 
L 264.692736 445.610787 
L 264.789504 445.680212 
L 264.82176 445.946341 
L 264.854016 445.754265 
L 264.98304 445.318739 
L 265.015296 445.301614 
L 265.047552 445.688543 
L 265.079808 445.187294 
L 265.112064 445.228486 
L 265.14432 445.499707 
L 265.176576 445.078528 
L 265.208832 445.079917 
L 265.241088 445.448332 
L 265.3056 444.995218 
L 265.337856 445.244223 
L 265.370112 444.900337 
L 265.434624 445.14749 
L 265.595904 444.851277 
L 265.757184 444.67864 
L 265.821696 444.776761 
L 265.853952 444.6231 
L 266.9184 443.54655 
L 267.40224 442.519059 
L 267.499008 442.423716 
L 267.531264 442.581079 
L 267.56352 442.309396 
L 267.595776 442.424641 
L 267.628032 442.260336 
L 267.660288 442.723169 
L 267.7248 442.600055 
L 267.821568 442.061317 
L 267.853824 442.303379 
L 267.982848 441.87063 
L 267.918336 442.454726 
L 268.04736 441.897011 
L 268.079616 441.804445 
L 268.111872 442.264501 
L 268.20864 442.149718 
L 268.36992 441.552663 
L 268.402176 441.566085 
L 268.434432 441.922467 
L 268.466688 441.476759 
L 268.498944 441.497123 
L 268.5312 441.737334 
L 268.563456 441.45408 
L 268.595712 441.450377 
L 269.3376 441.020868 
L 269.531136 440.824626 
L 269.724672 440.629773 
L 270.369792 439.876743 
L 270.402048 439.833237 
L 270.498816 439.130471 
L 270.531072 439.133063 
L 270.563328 439.685593 
L 270.62784 439.363322 
L 270.9504 438.660695 
L 270.982656 438.869063 
L 271.014912 438.589141 
L 271.047168 438.711514 
L 271.11168 438.844579 
L 271.143936 438.687076 
L 271.176192 438.631583 
L 271.208448 438.967507 
L 271.240704 438.541654 
L 271.27296 438.58803 
L 271.337472 438.823242 
L 271.369728 438.207951 
L 271.401984 438.565999 
L 271.498752 438.413635 
L 271.531008 438.567758 
L 271.660032 438.09826 
L 271.853568 438.08942 
L 272.111616 437.988429 
L 273.627648 436.133301 
L 273.724416 435.523425 
L 273.756672 435.739985 
L 273.821184 435.634922 
L 274.01472 434.914808 
L 274.079232 435.14809 
L 274.111488 434.864248 
L 274.143744 435.005899 
L 274.208256 434.838452 
L 274.272768 434.909129 
L 274.563072 434.347921 
L 275.337216 432.748322 
L 275.433984 431.782204 
L 275.46624 432.065874 
L 275.530752 432.096699 
L 275.563008 432.267161 
L 275.595264 432.181675 
L 275.692032 431.773873 
L 275.724288 431.818675 
L 275.756544 431.849777 
L 275.7888 431.792571 
L 276.11136 431.075642 
L 276.627456 429.88093 
L 276.691968 428.923328 
L 276.724224 429.080691 
L 276.75648 429.621744 
L 276.788736 428.714127 
L 276.820992 428.720607 
L 276.853248 429.481505 
L 276.950016 429.252865 
L 276.982272 428.611378 
L 277.07904 428.838167 
L 277.304832 428.417451 
L 278.885376 424.976747 
L 278.917632 424.991095 
L 279.046656 424.775878 
L 280.401408 421.828555 
L 280.562688 421.366647 
L 280.756224 420.982958 
L 280.78848 421.233351 
L 280.820736 420.890391 
L 280.852992 420.845959 
L 280.885248 420.995917 
L 280.917504 420.951022 
L 281.014272 420.581219 
L 281.046528 420.790882 
L 281.078784 420.504388 
L 281.11104 420.602972 
L 281.143296 420.386366 
L 281.240064 420.404879 
L 281.336832 420.321569 
L 281.91744 419.114499 
L 282.014208 418.297136 
L 282.046464 418.527164 
L 282.24 417.741736 
L 282.336768 417.509856 
L 282.369024 417.763026 
L 282.40128 417.672311 
L 282.498048 417.165971 
L 282.530304 417.293713 
L 282.949632 416.000093 
L 283.078656 415.444231 
L 283.143168 415.456264 
L 283.272192 415.088312 
L 283.433472 414.484314 
L 285.014016 411.024634 
L 285.594624 409.96706 
L 285.691392 409.223287 
L 285.723648 409.268181 
L 285.884928 409.379724 
L 285.917184 409.352417 
L 287.046144 407.202093 
L 287.110656 407.356217 
L 287.336448 407.595039 
L 287.465472 409.243188 
L 287.594496 419.343602 
L 287.820288 434.047681 
L 288.013824 434.120299 
L 289.916928 434.263639 
L 292.7232 434.317929 
L 292.948992 434.054901 
L 293.5296 433.52741 
L 294.271488 433.139972 
L 295.206912 432.900918 
L 296.626176 432.787709 
L 299.206656 432.835566 
L 312.72192 433.308952 
L 314.786304 433.2847 
L 318.560256 433.476081 
L 319.269888 434.235822 
L 320.044032 434.697772 
L 321.011712 434.997572 
L 322.430976 435.179095 
L 325.108224 435.253774 
L 333.785088 435.200279 
L 334.688256 435.208351 
L 334.720512 435.317325 
L 334.752768 435.140708 
L 335.204352 435.192152 
L 338.720256 435.288167 
L 341.042688 435.36023 
L 348.719616 435.282627 
L 378.072576 435.039685 
L 400.329216 434.931799 
L 415.328256 434.880582 
L 415.360512 435.178049 
L 415.392768 434.609167 
L 415.554048 429.870748 
L 416.1024 426.505949 
L 416.26368 422.473744 
L 416.42496 412.818114 
L 416.650752 383.707281 
L 416.812032 377.079506 
L 416.973312 376.926771 
L 418.457088 377.028595 
L 418.811904 377.065621 
L 419.263488 377.107276 
L 420.682752 377.199843 
L 422.521344 377.306295 
L 422.87616 377.338693 
L 424.00512 377.389605 
L 425.61792 377.491428 
L 425.972736 377.528455 
L 426.521088 377.551596 
L 426.74688 377.574738 
L 427.359744 377.583995 
L 427.71456 377.621021 
L 428.262912 377.644163 
L 428.488704 377.667305 
L 429.101568 377.676561 
L 429.456384 377.70896 
L 430.585344 377.759871 
L 432.972288 377.861695 
L 433.327104 377.898721 
L 434.036736 377.907978 
L 434.391552 377.940376 
L 437.423616 378.046828 
L 437.778432 378.079226 
L 438.875136 378.12551 
L 442.55232 378.231961 
L 442.907136 378.268988 
L 443.68128 378.26436 
L 444.777984 378.310643 
L 448.648704 378.417095 
L 449.00352 378.449493 
L 454.16448 378.555945 
L 454.519296 378.588343 
L 460.93824 378.694795 
L 461.293056 378.727193 
L 495.968256 378.838273 
L 496.000512 378.995637 
L 496.065024 378.782733 
L 496.323072 378.810503 
L 576.608256 378.815131 
L 576.640512 379.046548 
L 576.705024 378.79199 
L 576.963072 378.815131 
L 657.248256 378.815131 
L 657.280512 379.051177 
L 657.345024 378.815131 
L 657.53856 378.79199 
L 658.473984 378.815131 
L 737.888256 378.815131 
L 737.920512 379.051177 
L 737.985024 378.815131 
L 738.17856 378.79199 
L 739.113984 378.815131 
L 818.528256 378.815131 
L 818.560512 379.051177 
L 818.625024 378.815131 
L 818.81856 378.79199 
L 819.753984 378.815131 
L 899.168256 378.815131 
L 899.200512 379.051177 
L 899.265024 378.815131 
L 899.45856 378.79199 
L 900.393984 378.815131 
L 947.52 378.81976 
L 947.52 378.81976 
" clip-path="url(#pd27d688ec2)" style="fill: none; stroke: #ff00ff; stroke-width: 2; stroke-linecap: square"/>
   </g>
   <g id="patch_22">
    <path d="M 100.8 465.442759 
L 100.8 372.711724 
" style="fill: none; stroke: #bcbcbc; stroke-width: 0.8; stroke-linejoin: miter; stroke-linecap: square"/>
   </g>
   <g id="patch_23">
    <path d="M 987.84 465.442759 
L 987.84 372.711724 
" style="fill: none; stroke: #bcbcbc; stroke-width: 0.8; stroke-linejoin: miter; stroke-linecap: square"/>
   </g>
   <g id="patch_24">
    <path d="M 100.8 465.442759 
L 987.84 465.442759 
" style="fill: none; stroke: #bcbcbc; stroke-width: 0.8; stroke-linejoin: miter; stroke-linecap: square"/>
   </g>
   <g id="patch_25">
    <path d="M 100.8 372.711724 
L 987.84 372.711724 
" style="fill: none; stroke: #bcbcbc; stroke-width: 0.8; stroke-linejoin: miter; stroke-linecap: square"/>
   </g>
  </g>
  <g id="axes_5">
   <g id="patch_26">
    <path d="M 100.8 576.72 
L 987.84 576.72 
L 987.84 483.988966 
L 100.8 483.988966 
z
" style="fill: #eeeeee"/>
   </g>
   <g id="matplotlib.axis_9">
    <g id="xtick_25">
     <g id="line2d_69">
      <path d="M 141.12 576.72 
L 141.12 483.988966 
" clip-path="url(#p03c86b7a2f)" style="fill: none; stroke-dasharray: 1.85,0.8; stroke-dashoffset: 0; stroke: #b2b2b2; stroke-width: 0.5"/>
     </g>
     <g id="line2d_70">
      <g>
       <use xlink:href="#mb94c3f305d" x="141.12" y="576.72" style="stroke: #000000; stroke-width: 0.8"/>
      </g>
     </g>
     <g id="text_13">
      <!-- 0 s -->
      <g transform="translate(130.795 590.857813) scale(0.14 -0.14)">
       <defs>
        <path id="DejaVuSans-73" d="M 2834 3397 
L 2834 2853 
Q 2591 2978 2328 3040 
Q 2066 3103 1784 3103 
Q 1356 3103 1142 2972 
Q 928 2841 928 2578 
Q 928 2378 1081 2264 
Q 1234 2150 1697 2047 
L 1894 2003 
Q 2506 1872 2764 1633 
Q 3022 1394 3022 966 
Q 3022 478 2636 193 
Q 2250 -91 1575 -91 
Q 1294 -91 989 -36 
Q 684 19 347 128 
L 347 722 
Q 666 556 975 473 
Q 1284 391 1588 391 
Q 1994 391 2212 530 
Q 2431 669 2431 922 
Q 2431 1156 2273 1281 
Q 2116 1406 1581 1522 
L 1381 1569 
Q 847 1681 609 1914 
Q 372 2147 372 2553 
Q 372 3047 722 3315 
Q 1072 3584 1716 3584 
Q 2034 3584 2315 3537 
Q 2597 3491 2834 3397 
z
" transform="scale(0.015625)"/>
       </defs>
       <use xlink:href="#DejaVuSans-30"/>
       <use xlink:href="#DejaVuSans-20" x="63.623047"/>
       <use xlink:href="#DejaVuSans-73" x="95.410156"/>
      </g>
     </g>
    </g>
    <g id="xtick_26">
     <g id="line2d_71">
      <path d="M 302.4 576.72 
L 302.4 483.988966 
" clip-path="url(#p03c86b7a2f)" style="fill: none; stroke-dasharray: 1.85,0.8; stroke-dashoffset: 0; stroke: #b2b2b2; stroke-width: 0.5"/>
     </g>
     <g id="line2d_72">
      <g>
       <use xlink:href="#mb94c3f305d" x="302.4" y="576.72" style="stroke: #000000; stroke-width: 0.8"/>
      </g>
     </g>
     <g id="text_14">
      <!-- 50 ns -->
      <g transform="translate(283.185 590.857813) scale(0.14 -0.14)">
       <defs>
        <path id="DejaVuSans-35" d="M 691 4666 
L 3169 4666 
L 3169 4134 
L 1269 4134 
L 1269 2991 
Q 1406 3038 1543 3061 
Q 1681 3084 1819 3084 
Q 2600 3084 3056 2656 
Q 3513 2228 3513 1497 
Q 3513 744 3044 326 
Q 2575 -91 1722 -91 
Q 1428 -91 1123 -41 
Q 819 9 494 109 
L 494 744 
Q 775 591 1075 516 
Q 1375 441 1709 441 
Q 2250 441 2565 725 
Q 2881 1009 2881 1497 
Q 2881 1984 2565 2268 
Q 2250 2553 1709 2553 
Q 1456 2553 1204 2497 
Q 953 2441 691 2322 
L 691 4666 
z
" transform="scale(0.015625)"/>
        <path id="DejaVuSans-6e" d="M 3513 2113 
L 3513 0 
L 2938 0 
L 2938 2094 
Q 2938 2591 2744 2837 
Q 2550 3084 2163 3084 
Q 1697 3084 1428 2787 
Q 1159 2491 1159 1978 
L 1159 0 
L 581 0 
L 581 3500 
L 1159 3500 
L 1159 2956 
Q 1366 3272 1645 3428 
Q 1925 3584 2291 3584 
Q 2894 3584 3203 3211 
Q 3513 2838 3513 2113 
z
" transform="scale(0.015625)"/>
       </defs>
       <use xlink:href="#DejaVuSans-35"/>
       <use xlink:href="#DejaVuSans-30" x="63.623047"/>
       <use xlink:href="#DejaVuSans-20" x="127.246094"/>
       <use xlink:href="#DejaVuSans-6e" x="159.033203"/>
       <use xlink:href="#DejaVuSans-73" x="222.412109"/>
      </g>
     </g>
    </g>
    <g id="xtick_27">
     <g id="line2d_73">
      <path d="M 463.68 576.72 
L 463.68 483.988966 
" clip-path="url(#p03c86b7a2f)" style="fill: none; stroke-dasharray: 1.85,0.8; stroke-dashoffset: 0; stroke: #b2b2b2; stroke-width: 0.5"/>
     </g>
     <g id="line2d_74">
      <g>
       <use xlink:href="#mb94c3f305d" x="463.68" y="576.72" style="stroke: #000000; stroke-width: 0.8"/>
      </g>
     </g>
     <g id="text_15">
      <!-- 100 ns -->
      <g transform="translate(440.01125 590.857813) scale(0.14 -0.14)">
       <use xlink:href="#DejaVuSans-31"/>
       <use xlink:href="#DejaVuSans-30" x="63.623047"/>
       <use xlink:href="#DejaVuSans-30" x="127.246094"/>
       <use xlink:href="#DejaVuSans-20" x="190.869141"/>
       <use xlink:href="#DejaVuSans-6e" x="222.65625"/>
       <use xlink:href="#DejaVuSans-73" x="286.035156"/>
      </g>
     </g>
    </g>
    <g id="xtick_28">
     <g id="line2d_75">
      <path d="M 624.96 576.72 
L 624.96 483.988966 
" clip-path="url(#p03c86b7a2f)" style="fill: none; stroke-dasharray: 1.85,0.8; stroke-dashoffset: 0; stroke: #b2b2b2; stroke-width: 0.5"/>
     </g>
     <g id="line2d_76">
      <g>
       <use xlink:href="#mb94c3f305d" x="624.96" y="576.72" style="stroke: #000000; stroke-width: 0.8"/>
      </g>
     </g>
     <g id="text_16">
      <!-- 150 ns -->
      <g transform="translate(601.29125 590.857813) scale(0.14 -0.14)">
       <use xlink:href="#DejaVuSans-31"/>
       <use xlink:href="#DejaVuSans-35" x="63.623047"/>
       <use xlink:href="#DejaVuSans-30" x="127.246094"/>
       <use xlink:href="#DejaVuSans-20" x="190.869141"/>
       <use xlink:href="#DejaVuSans-6e" x="222.65625"/>
       <use xlink:href="#DejaVuSans-73" x="286.035156"/>
      </g>
     </g>
    </g>
    <g id="xtick_29">
     <g id="line2d_77">
      <path d="M 786.24 576.72 
L 786.24 483.988966 
" clip-path="url(#p03c86b7a2f)" style="fill: none; stroke-dasharray: 1.85,0.8; stroke-dashoffset: 0; stroke: #b2b2b2; stroke-width: 0.5"/>
     </g>
     <g id="line2d_78">
      <g>
       <use xlink:href="#mb94c3f305d" x="786.24" y="576.72" style="stroke: #000000; stroke-width: 0.8"/>
      </g>
     </g>
     <g id="text_17">
      <!-- 200 ns -->
      <g transform="translate(762.57125 590.857813) scale(0.14 -0.14)">
       <use xlink:href="#DejaVuSans-32"/>
       <use xlink:href="#DejaVuSans-30" x="63.623047"/>
       <use xlink:href="#DejaVuSans-30" x="127.246094"/>
       <use xlink:href="#DejaVuSans-20" x="190.869141"/>
       <use xlink:href="#DejaVuSans-6e" x="222.65625"/>
       <use xlink:href="#DejaVuSans-73" x="286.035156"/>
      </g>
     </g>
    </g>
    <g id="xtick_30">
     <g id="line2d_79">
      <path d="M 947.52 576.72 
L 947.52 483.988966 
" clip-path="url(#p03c86b7a2f)" style="fill: none; stroke-dasharray: 1.85,0.8; stroke-dashoffset: 0; stroke: #b2b2b2; stroke-width: 0.5"/>
     </g>
     <g id="line2d_80">
      <g>
       <use xlink:href="#mb94c3f305d" x="947.52" y="576.72" style="stroke: #000000; stroke-width: 0.8"/>
      </g>
     </g>
     <g id="text_18">
      <!-- 250 ns -->
      <g transform="translate(923.85125 590.857813) scale(0.14 -0.14)">
       <use xlink:href="#DejaVuSans-32"/>
       <use xlink:href="#DejaVuSans-35" x="63.623047"/>
       <use xlink:href="#DejaVuSans-30" x="127.246094"/>
       <use xlink:href="#DejaVuSans-20" x="190.869141"/>
       <use xlink:href="#DejaVuSans-6e" x="222.65625"/>
       <use xlink:href="#DejaVuSans-73" x="286.035156"/>
      </g>
     </g>
    </g>
    <g id="text_19">
     <!-- Time -->
     <g transform="translate(527.192969 608.407187) scale(0.14 -0.14)">
      <defs>
       <path id="DejaVuSans-69" d="M 603 3500 
L 1178 3500 
L 1178 0 
L 603 0 
L 603 3500 
z
M 603 4863 
L 1178 4863 
L 1178 4134 
L 603 4134 
L 603 4863 
z
" transform="scale(0.015625)"/>
       <path id="DejaVuSans-6d" d="M 3328 2828 
Q 3544 3216 3844 3400 
Q 4144 3584 4550 3584 
Q 5097 3584 5394 3201 
Q 5691 2819 5691 2113 
L 5691 0 
L 5113 0 
L 5113 2094 
Q 5113 2597 4934 2840 
Q 4756 3084 4391 3084 
Q 3944 3084 3684 2787 
Q 3425 2491 3425 1978 
L 3425 0 
L 2847 0 
L 2847 2094 
Q 2847 2600 2669 2842 
Q 2491 3084 2119 3084 
Q 1678 3084 1418 2786 
Q 1159 2488 1159 1978 
L 1159 0 
L 581 0 
L 581 3500 
L 1159 3500 
L 1159 2956 
Q 1356 3278 1631 3431 
Q 1906 3584 2284 3584 
Q 2666 3584 2933 3390 
Q 3200 3197 3328 2828 
z
" transform="scale(0.015625)"/>
       <path id="DejaVuSans-65" d="M 3597 1894 
L 3597 1613 
L 953 1613 
Q 991 1019 1311 708 
Q 1631 397 2203 397 
Q 2534 397 2845 478 
Q 3156 559 3463 722 
L 3463 178 
Q 3153 47 2828 -22 
Q 2503 -91 2169 -91 
Q 1331 -91 842 396 
Q 353 884 353 1716 
Q 353 2575 817 3079 
Q 1281 3584 2069 3584 
Q 2775 3584 3186 3129 
Q 3597 2675 3597 1894 
z
M 3022 2063 
Q 3016 2534 2758 2815 
Q 2500 3097 2075 3097 
Q 1594 3097 1305 2825 
Q 1016 2553 972 2059 
L 3022 2063 
z
" transform="scale(0.015625)"/>
      </defs>
      <use xlink:href="#DejaVuSans-54"/>
      <use xlink:href="#DejaVuSans-69" x="57.958984"/>
      <use xlink:href="#DejaVuSans-6d" x="85.742188"/>
      <use xlink:href="#DejaVuSans-65" x="183.154297"/>
     </g>
    </g>
   </g>
   <g id="matplotlib.axis_10">
    <g id="ytick_9">
     <g id="line2d_81">
      <path d="M 100.8 569.737898 
L 987.84 569.737898 
" clip-path="url(#p03c86b7a2f)" style="fill: none; stroke-dasharray: 1.85,0.8; stroke-dashoffset: 0; stroke: #b2b2b2; stroke-width: 0.5"/>
     </g>
     <g id="line2d_82">
      <g>
       <use xlink:href="#mcb1f867fb0" x="100.8" y="569.737898" style="stroke: #000000; stroke-width: 0.8"/>
      </g>
     </g>
     <g id="text_20">
      <!-- 0 V -->
      <g transform="translate(74.36625 575.056805) scale(0.14 -0.14)">
       <use xlink:href="#DejaVuSans-30"/>
       <use xlink:href="#DejaVuSans-20" x="63.623047"/>
       <use xlink:href="#DejaVuSans-56" x="95.410156"/>
      </g>
     </g>
    </g>
    <g id="ytick_10">
     <g id="line2d_83">
      <path d="M 100.8 535.84453 
L 987.84 535.84453 
" clip-path="url(#p03c86b7a2f)" style="fill: none; stroke-dasharray: 1.85,0.8; stroke-dashoffset: 0; stroke: #b2b2b2; stroke-width: 0.5"/>
     </g>
     <g id="line2d_84">
      <g>
       <use xlink:href="#mcb1f867fb0" x="100.8" y="535.84453" style="stroke: #000000; stroke-width: 0.8"/>
      </g>
     </g>
     <g id="text_21">
      <!-- 500 mV -->
      <g transform="translate(42.914375 541.163437) scale(0.14 -0.14)">
       <use xlink:href="#DejaVuSans-35"/>
       <use xlink:href="#DejaVuSans-30" x="63.623047"/>
       <use xlink:href="#DejaVuSans-30" x="127.246094"/>
       <use xlink:href="#DejaVuSans-20" x="190.869141"/>
       <use xlink:href="#DejaVuSans-6d" x="222.65625"/>
       <use xlink:href="#DejaVuSans-56" x="320.068359"/>
      </g>
     </g>
    </g>
    <g id="ytick_11">
     <g id="line2d_85">
      <path d="M 100.8 501.951163 
L 987.84 501.951163 
" clip-path="url(#p03c86b7a2f)" style="fill: none; stroke-dasharray: 1.85,0.8; stroke-dashoffset: 0; stroke: #b2b2b2; stroke-width: 0.5"/>
     </g>
     <g id="line2d_86">
      <g>
       <use xlink:href="#mcb1f867fb0" x="100.8" y="501.951163" style="stroke: #000000; stroke-width: 0.8"/>
      </g>
     </g>
     <g id="text_22">
      <!-- 1 V -->
      <g transform="translate(74.36625 507.270069) scale(0.14 -0.14)">
       <use xlink:href="#DejaVuSans-31"/>
       <use xlink:href="#DejaVuSans-20" x="63.623047"/>
       <use xlink:href="#DejaVuSans-56" x="95.410156"/>
      </g>
     </g>
    </g>
    <g id="text_23">
     <g id="patch_27">
      <path d="M 34.8768 554.329483 
L 34.8768 506.379483 
L 11.247425 506.379483 
L 11.247425 554.329483 
z
" style="fill: #ffff00; opacity: 0.2; stroke: #eeeeee; stroke-width: 0.5; stroke-linejoin: miter"/>
     </g>
     <!-- FOUT -->
     <g transform="translate(26.925238 549.289483) rotate(-90) scale(0.14 -0.14)">
      <use xlink:href="#DejaVuSans-46"/>
      <use xlink:href="#DejaVuSans-4f" x="57.519531"/>
      <use xlink:href="#DejaVuSans-55" x="136.230469"/>
      <use xlink:href="#DejaVuSans-54" x="209.423828"/>
     </g>
    </g>
   </g>
   <g id="line2d_87">
    <path d="M 141.12 488.393815 
L 173.472768 488.400594 
L 173.505024 488.204013 
L 173.569536 526.657394 
L 173.69856 572.504953 
L 173.730816 572.369108 
L 173.827584 567.828617 
L 173.892096 569.351799 
L 174.053376 570.057126 
L 174.117888 569.939259 
L 174.408192 569.483332 
L 174.440448 569.532932 
L 174.66624 569.721921 
L 176.182272 569.732147 
L 180.085248 569.753796 
L 194.213376 569.738382 
L 210.599424 569.736129 
L 286.175232 569.815291 
L 286.207488 567.930501 
L 286.59456 488.400594 
L 287.465472 488.400594 
L 287.529984 489.078461 
L 287.72352 570.263964 
L 287.8848 569.738814 
L 288.787968 569.736214 
L 416.489472 569.731878 
L 416.521728 569.869669 
L 416.58624 553.23454 
L 416.74752 489.329272 
L 416.876544 488.400594 
L 947.52 488.393815 
L 947.52 488.393815 
" clip-path="url(#p03c86b7a2f)" style="fill: none; stroke: #ff00ff; stroke-width: 2; stroke-linecap: square"/>
   </g>
   <g id="patch_28">
    <path d="M 100.8 576.72 
L 100.8 483.988966 
" style="fill: none; stroke: #bcbcbc; stroke-width: 0.8; stroke-linejoin: miter; stroke-linecap: square"/>
   </g>
   <g id="patch_29">
    <path d="M 987.84 576.72 
L 987.84 483.988966 
" style="fill: none; stroke: #bcbcbc; stroke-width: 0.8; stroke-linejoin: miter; stroke-linecap: square"/>
   </g>
   <g id="patch_30">
    <path d="M 100.8 576.72 
L 987.84 576.72 
" style="fill: none; stroke: #bcbcbc; stroke-width: 0.8; stroke-linejoin: miter; stroke-linecap: square"/>
   </g>
   <g id="patch_31">
    <path d="M 100.8 483.988966 
L 987.84 483.988966 
" style="fill: none; stroke: #bcbcbc; stroke-width: 0.8; stroke-linejoin: miter; stroke-linecap: square"/>
   </g>
  </g>
  <g id="axes_6">
   <g id="patch_32">
    <path d="M 201.6 628.56 
L 856.8 628.56 
L 856.8 615.6 
L 201.6 615.6 
z
" clip-path="url(#p08e751cebd)" style="fill: #d3d3d3"/>
   </g>
   <g id="patch_33">
    <path d="M 201.6 628.56 
L 253.08 628.56 
L 253.08 615.6 
L 201.6 615.6 
z
" clip-path="url(#p08e751cebd)" style="fill: #0000ff"/>
   </g>
   <g id="line2d_88">
    <path d="M 201.6 635.04 
L 201.6 609.12 
" clip-path="url(#p6b4f1ca8d6)" style="fill: none; stroke: #ff0000; stroke-linecap: square"/>
   </g>
   <g id="line2d_89">
    <defs>
     <path id="m54be01c950" d="M 0 5 
C 1.326016 5 2.597899 4.473168 3.535534 3.535534 
C 4.473168 2.597899 5 1.326016 5 0 
C 5 -1.326016 4.473168 -2.597899 3.535534 -3.535534 
C 2.597899 -4.473168 1.326016 -5 0 -5 
C -1.326016 -5 -2.597899 -4.473168 -3.535534 -3.535534 
C -4.473168 -2.597899 -5 -1.326016 -5 0 
C -5 1.326016 -4.473168 2.597899 -3.535534 3.535534 
C -2.597899 4.473168 -1.326016 5 0 5 
z
" style="stroke: #bfbfbf"/>
    </defs>
    <g>
     <use xlink:href="#m54be01c950" x="253.08" y="622.08" style="fill: #ffffff; stroke: #bfbfbf"/>
    </g>
   </g>
   <g id="text_24">
    <!-- #Sweep -->
    <g transform="translate(138.622875 625.39125) scale(0.12 -0.12)">
     <defs>
      <path id="DejaVuSans-23" d="M 3272 2816 
L 2363 2816 
L 2100 1772 
L 3016 1772 
L 3272 2816 
z
M 2803 4594 
L 2478 3297 
L 3391 3297 
L 3719 4594 
L 4219 4594 
L 3897 3297 
L 4872 3297 
L 4872 2816 
L 3775 2816 
L 3519 1772 
L 4513 1772 
L 4513 1294 
L 3397 1294 
L 3072 0 
L 2572 0 
L 2894 1294 
L 1978 1294 
L 1656 0 
L 1153 0 
L 1478 1294 
L 494 1294 
L 494 1772 
L 1594 1772 
L 1856 2816 
L 850 2816 
L 850 3297 
L 1978 3297 
L 2297 4594 
L 2803 4594 
z
" transform="scale(0.015625)"/>
      <path id="DejaVuSans-77" d="M 269 3500 
L 844 3500 
L 1563 769 
L 2278 3500 
L 2956 3500 
L 3675 769 
L 4391 3500 
L 4966 3500 
L 4050 0 
L 3372 0 
L 2619 2869 
L 1863 0 
L 1184 0 
L 269 3500 
z
" transform="scale(0.015625)"/>
      <path id="DejaVuSans-70" d="M 1159 525 
L 1159 -1331 
L 581 -1331 
L 581 3500 
L 1159 3500 
L 1159 2969 
Q 1341 3281 1617 3432 
Q 1894 3584 2278 3584 
Q 2916 3584 3314 3078 
Q 3713 2572 3713 1747 
Q 3713 922 3314 415 
Q 2916 -91 2278 -91 
Q 1894 -91 1617 61 
Q 1341 213 1159 525 
z
M 3116 1747 
Q 3116 2381 2855 2742 
Q 2594 3103 2138 3103 
Q 1681 3103 1420 2742 
Q 1159 2381 1159 1747 
Q 1159 1113 1420 752 
Q 1681 391 2138 391 
Q 2594 391 2855 752 
Q 3116 1113 3116 1747 
z
" transform="scale(0.015625)"/>
     </defs>
     <use xlink:href="#DejaVuSans-23"/>
     <use xlink:href="#DejaVuSans-53" x="83.789062"/>
     <use xlink:href="#DejaVuSans-77" x="147.265625"/>
     <use xlink:href="#DejaVuSans-65" x="229.052734"/>
     <use xlink:href="#DejaVuSans-65" x="290.576172"/>
     <use xlink:href="#DejaVuSans-70" x="352.099609"/>
    </g>
   </g>
   <g id="text_25">
    <!-- $\mathdefault{11}$ -->
    <g transform="translate(869.904 625.39125) scale(0.12 -0.12)">
     <use xlink:href="#DejaVuSans-31" transform="translate(0 0.09375)"/>
     <use xlink:href="#DejaVuSans-31" transform="translate(63.623047 0.09375)"/>
    </g>
   </g>
  </g>
  <g id="text_26">
   <!-- DFF under BBI sweep analysis (Sweep = 21E-9) -->
   <g transform="translate(313.34625 25.1175) scale(0.16 -0.16)">
    <defs>
     <path id="DejaVuSans-75" d="M 544 1381 
L 544 3500 
L 1119 3500 
L 1119 1403 
Q 1119 906 1312 657 
Q 1506 409 1894 409 
Q 2359 409 2629 706 
Q 2900 1003 2900 1516 
L 2900 3500 
L 3475 3500 
L 3475 0 
L 2900 0 
L 2900 538 
Q 2691 219 2414 64 
Q 2138 -91 1772 -91 
Q 1169 -91 856 284 
Q 544 659 544 1381 
z
M 1991 3584 
L 1991 3584 
z
" transform="scale(0.015625)"/>
     <path id="DejaVuSans-64" d="M 2906 2969 
L 2906 4863 
L 3481 4863 
L 3481 0 
L 2906 0 
L 2906 525 
Q 2725 213 2448 61 
Q 2172 -91 1784 -91 
Q 1150 -91 751 415 
Q 353 922 353 1747 
Q 353 2572 751 3078 
Q 1150 3584 1784 3584 
Q 2172 3584 2448 3432 
Q 2725 3281 2906 2969 
z
M 947 1747 
Q 947 1113 1208 752 
Q 1469 391 1925 391 
Q 2381 391 2643 752 
Q 2906 1113 2906 1747 
Q 2906 2381 2643 2742 
Q 2381 3103 1925 3103 
Q 1469 3103 1208 2742 
Q 947 2381 947 1747 
z
" transform="scale(0.015625)"/>
     <path id="DejaVuSans-72" d="M 2631 2963 
Q 2534 3019 2420 3045 
Q 2306 3072 2169 3072 
Q 1681 3072 1420 2755 
Q 1159 2438 1159 1844 
L 1159 0 
L 581 0 
L 581 3500 
L 1159 3500 
L 1159 2956 
Q 1341 3275 1631 3429 
Q 1922 3584 2338 3584 
Q 2397 3584 2469 3576 
Q 2541 3569 2628 3553 
L 2631 2963 
z
" transform="scale(0.015625)"/>
     <path id="DejaVuSans-61" d="M 2194 1759 
Q 1497 1759 1228 1600 
Q 959 1441 959 1056 
Q 959 750 1161 570 
Q 1363 391 1709 391 
Q 2188 391 2477 730 
Q 2766 1069 2766 1631 
L 2766 1759 
L 2194 1759 
z
M 3341 1997 
L 3341 0 
L 2766 0 
L 2766 531 
Q 2569 213 2275 61 
Q 1981 -91 1556 -91 
Q 1019 -91 701 211 
Q 384 513 384 1019 
Q 384 1609 779 1909 
Q 1175 2209 1959 2209 
L 2766 2209 
L 2766 2266 
Q 2766 2663 2505 2880 
Q 2244 3097 1772 3097 
Q 1472 3097 1187 3025 
Q 903 2953 641 2809 
L 641 3341 
Q 956 3463 1253 3523 
Q 1550 3584 1831 3584 
Q 2591 3584 2966 3190 
Q 3341 2797 3341 1997 
z
" transform="scale(0.015625)"/>
     <path id="DejaVuSans-6c" d="M 603 4863 
L 1178 4863 
L 1178 0 
L 603 0 
L 603 4863 
z
" transform="scale(0.015625)"/>
     <path id="DejaVuSans-79" d="M 2059 -325 
Q 1816 -950 1584 -1140 
Q 1353 -1331 966 -1331 
L 506 -1331 
L 506 -850 
L 844 -850 
Q 1081 -850 1212 -737 
Q 1344 -625 1503 -206 
L 1606 56 
L 191 3500 
L 800 3500 
L 1894 763 
L 2988 3500 
L 3597 3500 
L 2059 -325 
z
" transform="scale(0.015625)"/>
     <path id="DejaVuSans-28" d="M 1984 4856 
Q 1566 4138 1362 3434 
Q 1159 2731 1159 2009 
Q 1159 1288 1364 580 
Q 1569 -128 1984 -844 
L 1484 -844 
Q 1016 -109 783 600 
Q 550 1309 550 2009 
Q 550 2706 781 3412 
Q 1013 4119 1484 4856 
L 1984 4856 
z
" transform="scale(0.015625)"/>
     <path id="DejaVuSans-3d" d="M 678 2906 
L 4684 2906 
L 4684 2381 
L 678 2381 
L 678 2906 
z
M 678 1631 
L 4684 1631 
L 4684 1100 
L 678 1100 
L 678 1631 
z
" transform="scale(0.015625)"/>
     <path id="DejaVuSans-2d" d="M 313 2009 
L 1997 2009 
L 1997 1497 
L 313 1497 
L 313 2009 
z
" transform="scale(0.015625)"/>
     <path id="DejaVuSans-39" d="M 703 97 
L 703 672 
Q 941 559 1184 500 
Q 1428 441 1663 441 
Q 2288 441 2617 861 
Q 2947 1281 2994 2138 
Q 2813 1869 2534 1725 
Q 2256 1581 1919 1581 
Q 1219 1581 811 2004 
Q 403 2428 403 3163 
Q 403 3881 828 4315 
Q 1253 4750 1959 4750 
Q 2769 4750 3195 4129 
Q 3622 3509 3622 2328 
Q 3622 1225 3098 567 
Q 2575 -91 1691 -91 
Q 1453 -91 1209 -44 
Q 966 3 703 97 
z
M 1959 2075 
Q 2384 2075 2632 2365 
Q 2881 2656 2881 3163 
Q 2881 3666 2632 3958 
Q 2384 4250 1959 4250 
Q 1534 4250 1286 3958 
Q 1038 3666 1038 3163 
Q 1038 2656 1286 2365 
Q 1534 2075 1959 2075 
z
" transform="scale(0.015625)"/>
     <path id="DejaVuSans-29" d="M 513 4856 
L 1013 4856 
Q 1481 4119 1714 3412 
Q 1947 2706 1947 2009 
Q 1947 1309 1714 600 
Q 1481 -109 1013 -844 
L 513 -844 
Q 928 -128 1133 580 
Q 1338 1288 1338 2009 
Q 1338 2731 1133 3434 
Q 928 4138 513 4856 
z
" transform="scale(0.015625)"/>
    </defs>
    <use xlink:href="#DejaVuSans-44"/>
    <use xlink:href="#DejaVuSans-46" x="77.001953"/>
    <use xlink:href="#DejaVuSans-46" x="134.521484"/>
    <use xlink:href="#DejaVuSans-20" x="192.041016"/>
    <use xlink:href="#DejaVuSans-75" x="223.828125"/>
    <use xlink:href="#DejaVuSans-6e" x="287.207031"/>
    <use xlink:href="#DejaVuSans-64" x="350.585938"/>
    <use xlink:href="#DejaVuSans-65" x="414.0625"/>
    <use xlink:href="#DejaVuSans-72" x="475.585938"/>
    <use xlink:href="#DejaVuSans-20" x="516.699219"/>
    <use xlink:href="#DejaVuSans-42" x="548.486328"/>
    <use xlink:href="#DejaVuSans-42" x="617.089844"/>
    <use xlink:href="#DejaVuSans-49" x="685.693359"/>
    <use xlink:href="#DejaVuSans-20" x="715.185547"/>
    <use xlink:href="#DejaVuSans-73" x="746.972656"/>
    <use xlink:href="#DejaVuSans-77" x="799.072266"/>
    <use xlink:href="#DejaVuSans-65" x="880.859375"/>
    <use xlink:href="#DejaVuSans-65" x="942.382812"/>
    <use xlink:href="#DejaVuSans-70" x="1003.90625"/>
    <use xlink:href="#DejaVuSans-20" x="1067.382812"/>
    <use xlink:href="#DejaVuSans-61" x="1099.169922"/>
    <use xlink:href="#DejaVuSans-6e" x="1160.449219"/>
    <use xlink:href="#DejaVuSans-61" x="1223.828125"/>
    <use xlink:href="#DejaVuSans-6c" x="1285.107422"/>
    <use xlink:href="#DejaVuSans-79" x="1312.890625"/>
    <use xlink:href="#DejaVuSans-73" x="1372.070312"/>
    <use xlink:href="#DejaVuSans-69" x="1424.169922"/>
    <use xlink:href="#DejaVuSans-73" x="1451.953125"/>
    <use xlink:href="#DejaVuSans-20" x="1504.052734"/>
    <use xlink:href="#DejaVuSans-28" x="1535.839844"/>
    <use xlink:href="#DejaVuSans-53" x="1574.853516"/>
    <use xlink:href="#DejaVuSans-77" x="1638.330078"/>
    <use xlink:href="#DejaVuSans-65" x="1720.117188"/>
    <use xlink:href="#DejaVuSans-65" x="1781.640625"/>
    <use xlink:href="#DejaVuSans-70" x="1843.164062"/>
    <use xlink:href="#DejaVuSans-20" x="1906.640625"/>
    <use xlink:href="#DejaVuSans-3d" x="1938.427734"/>
    <use xlink:href="#DejaVuSans-20" x="2022.216797"/>
    <use xlink:href="#DejaVuSans-32" x="2054.003906"/>
    <use xlink:href="#DejaVuSans-31" x="2117.626953"/>
    <use xlink:href="#DejaVuSans-45" x="2181.25"/>
    <use xlink:href="#DejaVuSans-2d" x="2244.433594"/>
    <use xlink:href="#DejaVuSans-39" x="2280.517578"/>
    <use xlink:href="#DejaVuSans-29" x="2344.140625"/>
   </g>
  </g>
 </g>
 <defs>
  <clipPath id="p159a9db64d">
   <rect x="100.8" y="38.88" width="887.04" height="92.731034"/>
  </clipPath>
  <clipPath id="p704dc13984">
   <rect x="100.8" y="150.157241" width="887.04" height="92.731034"/>
  </clipPath>
  <clipPath id="p8dfca98fdf">
   <rect x="100.8" y="261.434483" width="887.04" height="92.731034"/>
  </clipPath>
  <clipPath id="pd27d688ec2">
   <rect x="100.8" y="372.711724" width="887.04" height="92.731034"/>
  </clipPath>
  <clipPath id="p03c86b7a2f">
   <rect x="100.8" y="483.988966" width="887.04" height="92.731034"/>
  </clipPath>
  <clipPath id="p08e751cebd">
   <rect x="201.6" y="609.12" width="655.2" height="25.92"/>
  </clipPath>
  <clipPath id="p6b4f1ca8d6">
   <path d="M 201.6 628.56 
L 856.8 628.56 
L 856.8 615.6 
L 201.6 615.6 
z
"/>
  </clipPath>
 </defs>
</svg>
