<?xml version="1.0" encoding="utf-8" standalone="no"?>
<!DOCTYPE svg PUBLIC "-//W3C//DTD SVG 1.1//EN"
  "http://www.w3.org/Graphics/SVG/1.1/DTD/svg11.dtd">
<svg xmlns:xlink="http://www.w3.org/1999/xlink" width="1008pt" height="648pt" viewBox="0 0 1008 648" xmlns="http://www.w3.org/2000/svg" version="1.1">
 <metadata>
  <rdf:RDF xmlns:dc="http://purl.org/dc/elements/1.1/" xmlns:cc="http://creativecommons.org/ns#" xmlns:rdf="http://www.w3.org/1999/02/22-rdf-syntax-ns#">
   <cc:Work>
    <dc:type rdf:resource="http://purl.org/dc/dcmitype/StillImage"/>
    <dc:date>2024-06-03T10:45:52.143284</dc:date>
    <dc:format>image/svg+xml</dc:format>
    <dc:creator>
     <cc:Agent>
      <dc:title>Matplotlib v3.9.0, https://matplotlib.org/</dc:title>
     </cc:Agent>
    </dc:creator>
   </cc:Work>
  </rdf:RDF>
 </metadata>
 <defs>
  <style type="text/css">*{stroke-linejoin: round; stroke-linecap: butt}</style>
 </defs>
 <g id="figure_1">
  <g id="patch_1">
   <path d="M 0 648 
L 1008 648 
L 1008 0 
L 0 0 
z
" style="fill: #ffffff"/>
  </g>
  <g id="axes_1">
   <g id="patch_2">
    <path d="M 100.8 131.611034 
L 987.84 131.611034 
L 987.84 38.88 
L 100.8 38.88 
z
" style="fill: #eeeeee"/>
   </g>
   <g id="matplotlib.axis_1">
    <g id="xtick_1">
     <g id="line2d_1">
      <path d="M 141.12 131.611034 
L 141.12 38.88 
" clip-path="url(#p49e212b4be)" style="fill: none; stroke-dasharray: 1.85,0.8; stroke-dashoffset: 0; stroke: #b2b2b2; stroke-width: 0.5"/>
     </g>
     <g id="line2d_2">
      <defs>
       <path id="mab2c19d371" d="M 0 0 
L 0 -3.5 
" style="stroke: #000000; stroke-width: 0.8"/>
      </defs>
      <g>
       <use xlink:href="#mab2c19d371" x="141.12" y="131.611034" style="stroke: #000000; stroke-width: 0.8"/>
      </g>
     </g>
    </g>
    <g id="xtick_2">
     <g id="line2d_3">
      <path d="M 302.4 131.611034 
L 302.4 38.88 
" clip-path="url(#p49e212b4be)" style="fill: none; stroke-dasharray: 1.85,0.8; stroke-dashoffset: 0; stroke: #b2b2b2; stroke-width: 0.5"/>
     </g>
     <g id="line2d_4">
      <g>
       <use xlink:href="#mab2c19d371" x="302.4" y="131.611034" style="stroke: #000000; stroke-width: 0.8"/>
      </g>
     </g>
    </g>
    <g id="xtick_3">
     <g id="line2d_5">
      <path d="M 463.68 131.611034 
L 463.68 38.88 
" clip-path="url(#p49e212b4be)" style="fill: none; stroke-dasharray: 1.85,0.8; stroke-dashoffset: 0; stroke: #b2b2b2; stroke-width: 0.5"/>
     </g>
     <g id="line2d_6">
      <g>
       <use xlink:href="#mab2c19d371" x="463.68" y="131.611034" style="stroke: #000000; stroke-width: 0.8"/>
      </g>
     </g>
    </g>
    <g id="xtick_4">
     <g id="line2d_7">
      <path d="M 624.96 131.611034 
L 624.96 38.88 
" clip-path="url(#p49e212b4be)" style="fill: none; stroke-dasharray: 1.85,0.8; stroke-dashoffset: 0; stroke: #b2b2b2; stroke-width: 0.5"/>
     </g>
     <g id="line2d_8">
      <g>
       <use xlink:href="#mab2c19d371" x="624.96" y="131.611034" style="stroke: #000000; stroke-width: 0.8"/>
      </g>
     </g>
    </g>
    <g id="xtick_5">
     <g id="line2d_9">
      <path d="M 786.24 131.611034 
L 786.24 38.88 
" clip-path="url(#p49e212b4be)" style="fill: none; stroke-dasharray: 1.85,0.8; stroke-dashoffset: 0; stroke: #b2b2b2; stroke-width: 0.5"/>
     </g>
     <g id="line2d_10">
      <g>
       <use xlink:href="#mab2c19d371" x="786.24" y="131.611034" style="stroke: #000000; stroke-width: 0.8"/>
      </g>
     </g>
    </g>
    <g id="xtick_6">
     <g id="line2d_11">
      <path d="M 947.52 131.611034 
L 947.52 38.88 
" clip-path="url(#p49e212b4be)" style="fill: none; stroke-dasharray: 1.85,0.8; stroke-dashoffset: 0; stroke: #b2b2b2; stroke-width: 0.5"/>
     </g>
     <g id="line2d_12">
      <g>
       <use xlink:href="#mab2c19d371" x="947.52" y="131.611034" style="stroke: #000000; stroke-width: 0.8"/>
      </g>
     </g>
    </g>
   </g>
   <g id="matplotlib.axis_2">
    <g id="ytick_1">
     <g id="line2d_13">
      <path d="M 100.8 98.340394 
L 987.84 98.340394 
" clip-path="url(#p49e212b4be)" style="fill: none; stroke-dasharray: 1.85,0.8; stroke-dashoffset: 0; stroke: #b2b2b2; stroke-width: 0.5"/>
     </g>
     <g id="line2d_14">
      <defs>
       <path id="m05ce0c397c" d="M 0 0 
L 3.5 0 
" style="stroke: #000000; stroke-width: 0.8"/>
      </defs>
      <g>
       <use xlink:href="#m05ce0c397c" x="100.8" y="98.340394" style="stroke: #000000; stroke-width: 0.8"/>
      </g>
     </g>
     <g id="text_1">
      <!-- −200 V -->
      <g transform="translate(44.819688 103.6593) scale(0.14 -0.14)">
       <defs>
        <path id="DejaVuSans-2212" d="M 678 2272 
L 4684 2272 
L 4684 1741 
L 678 1741 
L 678 2272 
z
" transform="scale(0.015625)"/>
        <path id="DejaVuSans-32" d="M 1228 531 
L 3431 531 
L 3431 0 
L 469 0 
L 469 531 
Q 828 903 1448 1529 
Q 2069 2156 2228 2338 
Q 2531 2678 2651 2914 
Q 2772 3150 2772 3378 
Q 2772 3750 2511 3984 
Q 2250 4219 1831 4219 
Q 1534 4219 1204 4116 
Q 875 4013 500 3803 
L 500 4441 
Q 881 4594 1212 4672 
Q 1544 4750 1819 4750 
Q 2544 4750 2975 4387 
Q 3406 4025 3406 3419 
Q 3406 3131 3298 2873 
Q 3191 2616 2906 2266 
Q 2828 2175 2409 1742 
Q 1991 1309 1228 531 
z
" transform="scale(0.015625)"/>
        <path id="DejaVuSans-30" d="M 2034 4250 
Q 1547 4250 1301 3770 
Q 1056 3291 1056 2328 
Q 1056 1369 1301 889 
Q 1547 409 2034 409 
Q 2525 409 2770 889 
Q 3016 1369 3016 2328 
Q 3016 3291 2770 3770 
Q 2525 4250 2034 4250 
z
M 2034 4750 
Q 2819 4750 3233 4129 
Q 3647 3509 3647 2328 
Q 3647 1150 3233 529 
Q 2819 -91 2034 -91 
Q 1250 -91 836 529 
Q 422 1150 422 2328 
Q 422 3509 836 4129 
Q 1250 4750 2034 4750 
z
" transform="scale(0.015625)"/>
        <path id="DejaVuSans-20" transform="scale(0.015625)"/>
        <path id="DejaVuSans-56" d="M 1831 0 
L 50 4666 
L 709 4666 
L 2188 738 
L 3669 4666 
L 4325 4666 
L 2547 0 
L 1831 0 
z
" transform="scale(0.015625)"/>
       </defs>
       <use xlink:href="#DejaVuSans-2212"/>
       <use xlink:href="#DejaVuSans-32" x="83.789062"/>
       <use xlink:href="#DejaVuSans-30" x="147.412109"/>
       <use xlink:href="#DejaVuSans-30" x="211.035156"/>
       <use xlink:href="#DejaVuSans-20" x="274.658203"/>
       <use xlink:href="#DejaVuSans-56" x="306.445312"/>
      </g>
     </g>
    </g>
    <g id="ytick_2">
     <g id="line2d_15">
      <path d="M 100.8 45.027377 
L 987.84 45.027377 
" clip-path="url(#p49e212b4be)" style="fill: none; stroke-dasharray: 1.85,0.8; stroke-dashoffset: 0; stroke: #b2b2b2; stroke-width: 0.5"/>
     </g>
     <g id="line2d_16">
      <g>
       <use xlink:href="#m05ce0c397c" x="100.8" y="45.027377" style="stroke: #000000; stroke-width: 0.8"/>
      </g>
     </g>
     <g id="text_2">
      <!-- 0 V -->
      <g transform="translate(74.36625 50.346284) scale(0.14 -0.14)">
       <use xlink:href="#DejaVuSans-30"/>
       <use xlink:href="#DejaVuSans-20" x="63.623047"/>
       <use xlink:href="#DejaVuSans-56" x="95.410156"/>
      </g>
     </g>
    </g>
    <g id="text_3">
     <g id="patch_3">
      <path d="M 34.8768 131.080205 
L 34.8768 39.41083 
L 11.247425 39.41083 
L 11.247425 131.080205 
z
" style="fill: #ffff00; opacity: 0.2; stroke: #eeeeee; stroke-width: 0.5; stroke-linejoin: miter"/>
     </g>
     <!-- VPULSE BBI -->
     <g transform="translate(26.925238 126.040205) rotate(-90) scale(0.14 -0.14)">
      <defs>
       <path id="DejaVuSans-50" d="M 1259 4147 
L 1259 2394 
L 2053 2394 
Q 2494 2394 2734 2622 
Q 2975 2850 2975 3272 
Q 2975 3691 2734 3919 
Q 2494 4147 2053 4147 
L 1259 4147 
z
M 628 4666 
L 2053 4666 
Q 2838 4666 3239 4311 
Q 3641 3956 3641 3272 
Q 3641 2581 3239 2228 
Q 2838 1875 2053 1875 
L 1259 1875 
L 1259 0 
L 628 0 
L 628 4666 
z
" transform="scale(0.015625)"/>
       <path id="DejaVuSans-55" d="M 556 4666 
L 1191 4666 
L 1191 1831 
Q 1191 1081 1462 751 
Q 1734 422 2344 422 
Q 2950 422 3222 751 
Q 3494 1081 3494 1831 
L 3494 4666 
L 4128 4666 
L 4128 1753 
Q 4128 841 3676 375 
Q 3225 -91 2344 -91 
Q 1459 -91 1007 375 
Q 556 841 556 1753 
L 556 4666 
z
" transform="scale(0.015625)"/>
       <path id="DejaVuSans-4c" d="M 628 4666 
L 1259 4666 
L 1259 531 
L 3531 531 
L 3531 0 
L 628 0 
L 628 4666 
z
" transform="scale(0.015625)"/>
       <path id="DejaVuSans-53" d="M 3425 4513 
L 3425 3897 
Q 3066 4069 2747 4153 
Q 2428 4238 2131 4238 
Q 1616 4238 1336 4038 
Q 1056 3838 1056 3469 
Q 1056 3159 1242 3001 
Q 1428 2844 1947 2747 
L 2328 2669 
Q 3034 2534 3370 2195 
Q 3706 1856 3706 1288 
Q 3706 609 3251 259 
Q 2797 -91 1919 -91 
Q 1588 -91 1214 -16 
Q 841 59 441 206 
L 441 856 
Q 825 641 1194 531 
Q 1563 422 1919 422 
Q 2459 422 2753 634 
Q 3047 847 3047 1241 
Q 3047 1584 2836 1778 
Q 2625 1972 2144 2069 
L 1759 2144 
Q 1053 2284 737 2584 
Q 422 2884 422 3419 
Q 422 4038 858 4394 
Q 1294 4750 2059 4750 
Q 2388 4750 2728 4690 
Q 3069 4631 3425 4513 
z
" transform="scale(0.015625)"/>
       <path id="DejaVuSans-45" d="M 628 4666 
L 3578 4666 
L 3578 4134 
L 1259 4134 
L 1259 2753 
L 3481 2753 
L 3481 2222 
L 1259 2222 
L 1259 531 
L 3634 531 
L 3634 0 
L 628 0 
L 628 4666 
z
" transform="scale(0.015625)"/>
       <path id="DejaVuSans-42" d="M 1259 2228 
L 1259 519 
L 2272 519 
Q 2781 519 3026 730 
Q 3272 941 3272 1375 
Q 3272 1813 3026 2020 
Q 2781 2228 2272 2228 
L 1259 2228 
z
M 1259 4147 
L 1259 2741 
L 2194 2741 
Q 2656 2741 2882 2914 
Q 3109 3088 3109 3444 
Q 3109 3797 2882 3972 
Q 2656 4147 2194 4147 
L 1259 4147 
z
M 628 4666 
L 2241 4666 
Q 2963 4666 3353 4366 
Q 3744 4066 3744 3513 
Q 3744 3084 3544 2831 
Q 3344 2578 2956 2516 
Q 3422 2416 3680 2098 
Q 3938 1781 3938 1306 
Q 3938 681 3513 340 
Q 3088 0 2303 0 
L 628 0 
L 628 4666 
z
" transform="scale(0.015625)"/>
       <path id="DejaVuSans-49" d="M 628 4666 
L 1259 4666 
L 1259 0 
L 628 0 
L 628 4666 
z
" transform="scale(0.015625)"/>
      </defs>
      <use xlink:href="#DejaVuSans-56"/>
      <use xlink:href="#DejaVuSans-50" x="68.408203"/>
      <use xlink:href="#DejaVuSans-55" x="128.710938"/>
      <use xlink:href="#DejaVuSans-4c" x="201.904297"/>
      <use xlink:href="#DejaVuSans-53" x="257.617188"/>
      <use xlink:href="#DejaVuSans-45" x="321.09375"/>
      <use xlink:href="#DejaVuSans-20" x="384.277344"/>
      <use xlink:href="#DejaVuSans-42" x="416.064453"/>
      <use xlink:href="#DejaVuSans-42" x="484.667969"/>
      <use xlink:href="#DejaVuSans-49" x="553.271484"/>
     </g>
    </g>
   </g>
   <g id="line2d_17">
    <path d="M 141.12 45.027377 
L 528.224256 45.136282 
L 528.708096 46.425538 
L 536.933376 69.006506 
L 545.352192 92.707873 
L 550.319616 107.83011 
L 553.51296 118.0049 
L 554.125824 119.585631 
L 554.577408 119.80688 
L 555.641856 120.297359 
L 556.125696 120.526605 
L 557.190144 121.017085 
L 557.770752 121.272988 
L 558.641664 121.656841 
L 559.222272 121.912744 
L 560.060928 122.269941 
L 561.641472 122.936354 
L 562.286592 123.202919 
L 563.383296 123.629423 
L 564.125184 123.922644 
L 565.221888 124.349149 
L 566.125056 124.677024 
L 566.802432 124.943589 
L 567.608832 125.25547 
L 568.963584 125.804594 
L 571.608576 126.790885 
L 572.22144 127.022796 
L 574.1568 127.395987 
L 592.639488 127.289361 
L 592.86528 126.801547 
L 611.154432 75.087922 
L 614.896128 63.292417 
L 618.605568 51.617666 
L 623.218176 49.3412 
L 628.572672 46.984578 
L 637.281792 43.484472 
L 638.152704 43.268927 
L 652.442112 43.108189 
L 659.248128 43.184799 
L 674.601984 43.746186 
L 702.3744 44.46146 
L 728.01792 44.774399 
L 763.628544 44.945888 
L 811.657728 44.953885 
L 947.52 44.953885 
L 947.52 44.953885 
" clip-path="url(#p49e212b4be)" style="fill: none; stroke: #ff0000; stroke-width: 2; stroke-linecap: square"/>
   </g>
   <g id="patch_4">
    <path d="M 100.8 131.611034 
L 100.8 38.88 
" style="fill: none; stroke: #bcbcbc; stroke-width: 0.8; stroke-linejoin: miter; stroke-linecap: square"/>
   </g>
   <g id="patch_5">
    <path d="M 987.84 131.611034 
L 987.84 38.88 
" style="fill: none; stroke: #bcbcbc; stroke-width: 0.8; stroke-linejoin: miter; stroke-linecap: square"/>
   </g>
   <g id="patch_6">
    <path d="M 100.8 131.611034 
L 987.84 131.611034 
" style="fill: none; stroke: #bcbcbc; stroke-width: 0.8; stroke-linejoin: miter; stroke-linecap: square"/>
   </g>
   <g id="patch_7">
    <path d="M 100.8 38.88 
L 987.84 38.88 
" style="fill: none; stroke: #bcbcbc; stroke-width: 0.8; stroke-linejoin: miter; stroke-linecap: square"/>
   </g>
  </g>
  <g id="axes_2">
   <g id="patch_8">
    <path d="M 100.8 242.888276 
L 987.84 242.888276 
L 987.84 150.157241 
L 100.8 150.157241 
z
" style="fill: #eeeeee"/>
   </g>
   <g id="matplotlib.axis_3">
    <g id="xtick_7">
     <g id="line2d_18">
      <path d="M 141.12 242.888276 
L 141.12 150.157241 
" clip-path="url(#pbace0d25df)" style="fill: none; stroke-dasharray: 1.85,0.8; stroke-dashoffset: 0; stroke: #b2b2b2; stroke-width: 0.5"/>
     </g>
     <g id="line2d_19">
      <g>
       <use xlink:href="#mab2c19d371" x="141.12" y="242.888276" style="stroke: #000000; stroke-width: 0.8"/>
      </g>
     </g>
    </g>
    <g id="xtick_8">
     <g id="line2d_20">
      <path d="M 302.4 242.888276 
L 302.4 150.157241 
" clip-path="url(#pbace0d25df)" style="fill: none; stroke-dasharray: 1.85,0.8; stroke-dashoffset: 0; stroke: #b2b2b2; stroke-width: 0.5"/>
     </g>
     <g id="line2d_21">
      <g>
       <use xlink:href="#mab2c19d371" x="302.4" y="242.888276" style="stroke: #000000; stroke-width: 0.8"/>
      </g>
     </g>
    </g>
    <g id="xtick_9">
     <g id="line2d_22">
      <path d="M 463.68 242.888276 
L 463.68 150.157241 
" clip-path="url(#pbace0d25df)" style="fill: none; stroke-dasharray: 1.85,0.8; stroke-dashoffset: 0; stroke: #b2b2b2; stroke-width: 0.5"/>
     </g>
     <g id="line2d_23">
      <g>
       <use xlink:href="#mab2c19d371" x="463.68" y="242.888276" style="stroke: #000000; stroke-width: 0.8"/>
      </g>
     </g>
    </g>
    <g id="xtick_10">
     <g id="line2d_24">
      <path d="M 624.96 242.888276 
L 624.96 150.157241 
" clip-path="url(#pbace0d25df)" style="fill: none; stroke-dasharray: 1.85,0.8; stroke-dashoffset: 0; stroke: #b2b2b2; stroke-width: 0.5"/>
     </g>
     <g id="line2d_25">
      <g>
       <use xlink:href="#mab2c19d371" x="624.96" y="242.888276" style="stroke: #000000; stroke-width: 0.8"/>
      </g>
     </g>
    </g>
    <g id="xtick_11">
     <g id="line2d_26">
      <path d="M 786.24 242.888276 
L 786.24 150.157241 
" clip-path="url(#pbace0d25df)" style="fill: none; stroke-dasharray: 1.85,0.8; stroke-dashoffset: 0; stroke: #b2b2b2; stroke-width: 0.5"/>
     </g>
     <g id="line2d_27">
      <g>
       <use xlink:href="#mab2c19d371" x="786.24" y="242.888276" style="stroke: #000000; stroke-width: 0.8"/>
      </g>
     </g>
    </g>
    <g id="xtick_12">
     <g id="line2d_28">
      <path d="M 947.52 242.888276 
L 947.52 150.157241 
" clip-path="url(#pbace0d25df)" style="fill: none; stroke-dasharray: 1.85,0.8; stroke-dashoffset: 0; stroke: #b2b2b2; stroke-width: 0.5"/>
     </g>
     <g id="line2d_29">
      <g>
       <use xlink:href="#mab2c19d371" x="947.52" y="242.888276" style="stroke: #000000; stroke-width: 0.8"/>
      </g>
     </g>
    </g>
   </g>
   <g id="matplotlib.axis_4">
    <g id="ytick_3">
     <g id="line2d_30">
      <path d="M 100.8 218.947123 
L 987.84 218.947123 
" clip-path="url(#pbace0d25df)" style="fill: none; stroke-dasharray: 1.85,0.8; stroke-dashoffset: 0; stroke: #b2b2b2; stroke-width: 0.5"/>
     </g>
     <g id="line2d_31">
      <g>
       <use xlink:href="#m05ce0c397c" x="100.8" y="218.947123" style="stroke: #000000; stroke-width: 0.8"/>
      </g>
     </g>
     <g id="text_4">
      <!-- 0 V -->
      <g transform="translate(74.36625 224.266029) scale(0.14 -0.14)">
       <use xlink:href="#DejaVuSans-30"/>
       <use xlink:href="#DejaVuSans-20" x="63.623047"/>
       <use xlink:href="#DejaVuSans-56" x="95.410156"/>
      </g>
     </g>
    </g>
    <g id="ytick_4">
     <g id="line2d_32">
      <path d="M 100.8 184.611591 
L 987.84 184.611591 
" clip-path="url(#pbace0d25df)" style="fill: none; stroke-dasharray: 1.85,0.8; stroke-dashoffset: 0; stroke: #b2b2b2; stroke-width: 0.5"/>
     </g>
     <g id="line2d_33">
      <g>
       <use xlink:href="#m05ce0c397c" x="100.8" y="184.611591" style="stroke: #000000; stroke-width: 0.8"/>
      </g>
     </g>
     <g id="text_5">
      <!-- 1 V -->
      <g transform="translate(74.36625 189.930497) scale(0.14 -0.14)">
       <defs>
        <path id="DejaVuSans-31" d="M 794 531 
L 1825 531 
L 1825 4091 
L 703 3866 
L 703 4441 
L 1819 4666 
L 2450 4666 
L 2450 531 
L 3481 531 
L 3481 0 
L 794 0 
L 794 531 
z
" transform="scale(0.015625)"/>
       </defs>
       <use xlink:href="#DejaVuSans-31"/>
       <use xlink:href="#DejaVuSans-20" x="63.623047"/>
       <use xlink:href="#DejaVuSans-56" x="95.410156"/>
      </g>
     </g>
    </g>
    <g id="ytick_5">
     <g id="line2d_34">
      <path d="M 100.8 150.276059 
L 987.84 150.276059 
" clip-path="url(#pbace0d25df)" style="fill: none; stroke-dasharray: 1.85,0.8; stroke-dashoffset: 0; stroke: #b2b2b2; stroke-width: 0.5"/>
     </g>
     <g id="line2d_35">
      <g>
       <use xlink:href="#m05ce0c397c" x="100.8" y="150.276059" style="stroke: #000000; stroke-width: 0.8"/>
      </g>
     </g>
     <g id="text_6">
      <!-- 2 V -->
      <g transform="translate(74.36625 155.594966) scale(0.14 -0.14)">
       <use xlink:href="#DejaVuSans-32"/>
       <use xlink:href="#DejaVuSans-20" x="63.623047"/>
       <use xlink:href="#DejaVuSans-56" x="95.410156"/>
      </g>
     </g>
    </g>
    <g id="text_7">
     <g id="patch_9">
      <path d="M 34.8768 224.531509 
L 34.8768 168.514009 
L 11.247425 168.514009 
L 11.247425 224.531509 
z
" style="fill: #ffff00; opacity: 0.2; stroke: #eeeeee; stroke-width: 0.5; stroke-linejoin: miter"/>
     </g>
     <!-- DFF IN -->
     <g transform="translate(26.925238 219.491509) rotate(-90) scale(0.14 -0.14)">
      <defs>
       <path id="DejaVuSans-44" d="M 1259 4147 
L 1259 519 
L 2022 519 
Q 2988 519 3436 956 
Q 3884 1394 3884 2338 
Q 3884 3275 3436 3711 
Q 2988 4147 2022 4147 
L 1259 4147 
z
M 628 4666 
L 1925 4666 
Q 3281 4666 3915 4102 
Q 4550 3538 4550 2338 
Q 4550 1131 3912 565 
Q 3275 0 1925 0 
L 628 0 
L 628 4666 
z
" transform="scale(0.015625)"/>
       <path id="DejaVuSans-46" d="M 628 4666 
L 3309 4666 
L 3309 4134 
L 1259 4134 
L 1259 2759 
L 3109 2759 
L 3109 2228 
L 1259 2228 
L 1259 0 
L 628 0 
L 628 4666 
z
" transform="scale(0.015625)"/>
       <path id="DejaVuSans-4e" d="M 628 4666 
L 1478 4666 
L 3547 763 
L 3547 4666 
L 4159 4666 
L 4159 0 
L 3309 0 
L 1241 3903 
L 1241 0 
L 628 0 
L 628 4666 
z
" transform="scale(0.015625)"/>
      </defs>
      <use xlink:href="#DejaVuSans-44"/>
      <use xlink:href="#DejaVuSans-46" x="77.001953"/>
      <use xlink:href="#DejaVuSans-46" x="134.521484"/>
      <use xlink:href="#DejaVuSans-20" x="192.041016"/>
      <use xlink:href="#DejaVuSans-49" x="223.828125"/>
      <use xlink:href="#DejaVuSans-4e" x="253.320312"/>
     </g>
    </g>
   </g>
   <g id="line2d_36">
    <path d="M 141.12 218.896979 
L 221.953536 218.849895 
L 224.437248 199.718538 
L 225.404928 193.898666 
L 228.243456 181.1025 
L 229.598208 179.818351 
L 231.178752 178.935928 
L 236.533248 178.475832 
L 243.5328 178.365958 
L 244.952064 178.324755 
L 248.145408 178.214882 
L 249.790464 178.149644 
L 251.887104 178.03977 
L 254.241792 177.689548 
L 254.757888 177.147046 
L 255.499776 176.803691 
L 256.338432 176.817425 
L 259.789824 177.438899 
L 262.467072 177.61401 
L 263.886336 177.662079 
L 264.144384 182.956618 
L 264.434688 186.559102 
L 265.176576 191.35818 
L 267.144192 208.875138 
L 268.402176 215.452109 
L 269.047296 216.748825 
L 270.46656 218.530152 
L 273.724416 218.948977 
L 282.498048 218.900835 
L 296.980992 218.891619 
L 305.690112 218.89611 
L 347.751936 218.851608 
L 350.235648 199.759054 
L 351.622656 191.029932 
L 352.654848 185.682516 
L 354.97728 178.613174 
L 358.493184 177.603709 
L 360.202752 177.675814 
L 363.009024 177.785687 
L 364.33152 177.816589 
L 375.169536 177.888694 
L 375.717888 178.891291 
L 376.169472 179.650107 
L 377.008128 180.566865 
L 377.524224 180.515362 
L 378.427392 180.220077 
L 380.427264 179.069836 
L 381.58848 178.692145 
L 387.168768 178.208014 
L 389.587968 178.098141 
L 391.684608 177.984833 
L 394.232832 177.87496 
L 395.61984 177.837191 
L 415.360512 177.751352 
L 416.489472 176.810558 
L 417.037824 176.745321 
L 417.908736 176.855194 
L 419.134464 177.133312 
L 420.908544 177.397696 
L 423.940608 177.610576 
L 455.712768 177.717016 
L 456.809472 178.616607 
L 457.261056 178.688712 
L 458.68032 178.733348 
L 462.680064 178.197714 
L 464.131584 178.002001 
L 467.486208 177.754785 
L 496.065024 177.67238 
L 496.58112 177.126445 
L 497.258496 176.817425 
L 498.3552 176.803691 
L 502.06464 177.480101 
L 504.193536 177.596842 
L 528.127488 177.699849 
L 528.321024 177.87496 
L 531.09504 182.675067 
L 533.223936 185.648867 
L 537.449472 191.703595 
L 538.062336 193.466725 
L 539.739648 199.749784 
L 540.12672 201.25162 
L 540.320256 202.04168 
L 540.93312 205.110247 
L 542.642688 212.428179 
L 543.771648 216.244916 
L 543.99744 217.253351 
L 544.771584 220.108865 
L 545.707008 223.007299 
L 546.41664 224.487161 
L 546.803712 225.497999 
L 547.094016 225.858178 
L 547.287552 226.082389 
L 547.577856 226.713476 
L 549.835776 231.247827 
L 550.061568 231.618994 
L 550.44864 232.604424 
L 550.803456 233.208042 
L 551.25504 233.859731 
L 551.609856 234.527213 
L 551.996928 235.427148 
L 552.577536 236.253947 
L 552.803328 236.659107 
L 552.964608 236.977054 
L 553.448448 237.931238 
L 554.029056 238.673229 
L 554.609664 238.211759 
L 554.867712 237.818274 
L 555.254784 237.24075 
L 555.706368 236.330859 
L 555.77088 236.279356 
L 555.964416 236.051711 
L 557.86752 233.816811 
L 558.577152 233.289417 
L 559.351296 232.467082 
L 559.738368 231.796509 
L 560.028672 231.60938 
L 560.222208 231.538305 
L 562.54464 229.451048 
L 562.770432 229.093616 
L 563.02848 229.06443 
L 563.286528 228.871121 
L 563.738112 228.611545 
L 565.157376 227.246707 
L 565.383168 226.914683 
L 565.512192 226.869016 
L 566.286336 226.414757 
L 567.512064 225.46126 
L 568.124928 224.817125 
L 568.512 224.248185 
L 568.802304 224.186725 
L 569.189376 224.089212 
L 569.737728 223.732809 
L 571.544064 222.353242 
L 571.995648 221.870621 
L 572.995584 221.13385 
L 574.027776 220.117587 
L 574.80192 219.065467 
L 575.7696 217.688794 
L 576.41472 216.824019 
L 577.54368 215.208327 
L 580.866048 210.961365 
L 582.38208 209.366479 
L 582.70464 208.675305 
L 583.801344 205.238318 
L 584.414208 203.54901 
L 585.414144 201.176425 
L 586.543104 199.317156 
L 587.22048 198.315588 
L 588.478464 196.704909 
L 589.15584 195.811498 
L 589.768704 195.188652 
L 590.510592 194.181934 
L 591.0912 193.568014 
L 592.671744 192.007121 
L 592.929792 191.341355 
L 593.929728 187.545219 
L 594.80064 184.795286 
L 595.703808 182.699102 
L 596.542464 181.31538 
L 597.155328 180.652704 
L 598.897152 179.0252 
L 600.92928 176.257756 
L 601.929216 174.767594 
L 603.50976 172.395009 
L 604.509696 170.901413 
L 611.057664 162.025678 
L 612.0576 160.810201 
L 614.025216 158.077092 
L 616.960512 154.372288 
L 616.992768 154.423792 
L 617.960448 157.675367 
L 618.250752 157.89168 
L 619.282944 158.238469 
L 619.605504 157.946617 
L 620.379648 156.779209 
L 621.153792 155.824681 
L 621.605376 155.450424 
L 622.37952 155.086467 
L 623.02464 154.990328 
L 623.960064 154.997195 
L 625.540608 155.275313 
L 627.346944 155.773178 
L 629.379072 156.312246 
L 630.346752 156.525126 
L 631.927296 156.916551 
L 633.636864 157.393815 
L 638.701056 159.124326 
L 642.410496 160.820501 
L 643.120128 161.150122 
L 644.120064 161.579316 
L 645.28128 162.073748 
L 646.345728 162.526977 
L 646.990848 162.808529 
L 648.377856 163.364764 
L 651.022848 164.374229 
L 651.829248 164.659214 
L 653.50656 165.253218 
L 657.345024 166.372557 
L 657.732096 165.812888 
L 658.086912 165.606874 
L 658.570752 165.613741 
L 659.086848 165.884992 
L 662.635008 168.020662 
L 663.441408 168.329682 
L 668.247552 169.751173 
L 668.66688 169.861047 
L 670.086144 170.200968 
L 678.9888 171.98985 
L 679.408128 172.055087 
L 680.27904 172.226765 
L 680.730624 172.288569 
L 683.117568 172.686861 
L 683.859456 172.796735 
L 686.439936 173.181293 
L 686.827008 173.229362 
L 687.633408 173.335802 
L 689.052672 173.524648 
L 697.632768 174.523812 
L 698.406912 175.481773 
L 698.890752 175.704954 
L 699.697152 175.763325 
L 701.503488 175.265459 
L 702.277632 175.128117 
L 703.632384 175.086915 
L 704.245248 175.104082 
L 704.922624 175.141851 
L 705.6 175.172753 
L 708.406272 175.365032 
L 708.98688 175.413102 
L 711.793152 175.601948 
L 712.438272 175.64315 
L 714.180096 175.753024 
L 716.40576 175.883499 
L 717.083136 175.921268 
L 717.53472 175.95217 
L 719.663616 176.055177 
L 720.082944 176.082645 
L 722.21184 176.192519 
L 724.1472 176.288658 
L 726.663168 176.398532 
L 728.469504 176.480937 
L 731.146752 176.587377 
L 731.759616 176.604545 
L 732.53376 176.62858 
L 734.275584 176.704118 
L 735.081984 176.721286 
L 735.501312 176.741887 
L 736.049664 176.745321 
L 738.049536 176.645748 
L 738.533376 176.137582 
L 739.4688 175.859464 
L 740.210688 175.969338 
L 744.823296 176.838027 
L 747.37152 176.999404 
L 750.887424 177.109277 
L 752.04864 177.123012 
L 758.048256 177.232885 
L 759.273984 177.253487 
L 778.240512 177.35306 
L 778.401792 177.538472 
L 778.82112 177.967666 
L 779.30496 178.24235 
L 780.530688 178.393426 
L 783.788544 177.936764 
L 785.75616 177.631177 
L 788.594688 177.438899 
L 818.625024 177.329025 
L 819.108864 176.789957 
L 819.818496 176.460336 
L 820.9152 176.450035 
L 824.882688 177.181382 
L 826.56 177.250053 
L 858.880512 177.359927 
L 859.041792 177.541905 
L 859.557888 178.067239 
L 859.94496 178.252651 
L 860.557824 178.393426 
L 862.912512 178.286986 
L 865.202688 177.912729 
L 870.653952 177.442332 
L 899.232768 177.373661 
L 899.78112 176.752188 
L 900.329472 176.47407 
L 902.232576 176.577077 
L 903.522816 176.875796 
L 905.26464 177.133312 
L 907.651584 177.277522 
L 939.552768 177.373661 
L 940.617216 178.249217 
L 941.55264 178.438062 
L 943.455744 178.328189 
L 944.810496 178.074106 
L 947.03616 177.713583 
L 947.52 177.638045 
L 947.52 177.638045 
" clip-path="url(#pbace0d25df)" style="fill: none; stroke: #008000; stroke-width: 2; stroke-linecap: square"/>
   </g>
   <g id="patch_10">
    <path d="M 100.8 242.888276 
L 100.8 150.157241 
" style="fill: none; stroke: #bcbcbc; stroke-width: 0.8; stroke-linejoin: miter; stroke-linecap: square"/>
   </g>
   <g id="patch_11">
    <path d="M 987.84 242.888276 
L 987.84 150.157241 
" style="fill: none; stroke: #bcbcbc; stroke-width: 0.8; stroke-linejoin: miter; stroke-linecap: square"/>
   </g>
   <g id="patch_12">
    <path d="M 100.8 242.888276 
L 987.84 242.888276 
" style="fill: none; stroke: #bcbcbc; stroke-width: 0.8; stroke-linejoin: miter; stroke-linecap: square"/>
   </g>
   <g id="patch_13">
    <path d="M 100.8 150.157241 
L 987.84 150.157241 
" style="fill: none; stroke: #bcbcbc; stroke-width: 0.8; stroke-linejoin: miter; stroke-linecap: square"/>
   </g>
  </g>
  <g id="axes_3">
   <g id="patch_14">
    <path d="M 100.8 354.165517 
L 987.84 354.165517 
L 987.84 261.434483 
L 100.8 261.434483 
z
" style="fill: #eeeeee"/>
   </g>
   <g id="matplotlib.axis_5">
    <g id="xtick_13">
     <g id="line2d_37">
      <path d="M 141.12 354.165517 
L 141.12 261.434483 
" clip-path="url(#pc38eedafba)" style="fill: none; stroke-dasharray: 1.85,0.8; stroke-dashoffset: 0; stroke: #b2b2b2; stroke-width: 0.5"/>
     </g>
     <g id="line2d_38">
      <g>
       <use xlink:href="#mab2c19d371" x="141.12" y="354.165517" style="stroke: #000000; stroke-width: 0.8"/>
      </g>
     </g>
    </g>
    <g id="xtick_14">
     <g id="line2d_39">
      <path d="M 302.4 354.165517 
L 302.4 261.434483 
" clip-path="url(#pc38eedafba)" style="fill: none; stroke-dasharray: 1.85,0.8; stroke-dashoffset: 0; stroke: #b2b2b2; stroke-width: 0.5"/>
     </g>
     <g id="line2d_40">
      <g>
       <use xlink:href="#mab2c19d371" x="302.4" y="354.165517" style="stroke: #000000; stroke-width: 0.8"/>
      </g>
     </g>
    </g>
    <g id="xtick_15">
     <g id="line2d_41">
      <path d="M 463.68 354.165517 
L 463.68 261.434483 
" clip-path="url(#pc38eedafba)" style="fill: none; stroke-dasharray: 1.85,0.8; stroke-dashoffset: 0; stroke: #b2b2b2; stroke-width: 0.5"/>
     </g>
     <g id="line2d_42">
      <g>
       <use xlink:href="#mab2c19d371" x="463.68" y="354.165517" style="stroke: #000000; stroke-width: 0.8"/>
      </g>
     </g>
    </g>
    <g id="xtick_16">
     <g id="line2d_43">
      <path d="M 624.96 354.165517 
L 624.96 261.434483 
" clip-path="url(#pc38eedafba)" style="fill: none; stroke-dasharray: 1.85,0.8; stroke-dashoffset: 0; stroke: #b2b2b2; stroke-width: 0.5"/>
     </g>
     <g id="line2d_44">
      <g>
       <use xlink:href="#mab2c19d371" x="624.96" y="354.165517" style="stroke: #000000; stroke-width: 0.8"/>
      </g>
     </g>
    </g>
    <g id="xtick_17">
     <g id="line2d_45">
      <path d="M 786.24 354.165517 
L 786.24 261.434483 
" clip-path="url(#pc38eedafba)" style="fill: none; stroke-dasharray: 1.85,0.8; stroke-dashoffset: 0; stroke: #b2b2b2; stroke-width: 0.5"/>
     </g>
     <g id="line2d_46">
      <g>
       <use xlink:href="#mab2c19d371" x="786.24" y="354.165517" style="stroke: #000000; stroke-width: 0.8"/>
      </g>
     </g>
    </g>
    <g id="xtick_18">
     <g id="line2d_47">
      <path d="M 947.52 354.165517 
L 947.52 261.434483 
" clip-path="url(#pc38eedafba)" style="fill: none; stroke-dasharray: 1.85,0.8; stroke-dashoffset: 0; stroke: #b2b2b2; stroke-width: 0.5"/>
     </g>
     <g id="line2d_48">
      <g>
       <use xlink:href="#mab2c19d371" x="947.52" y="354.165517" style="stroke: #000000; stroke-width: 0.8"/>
      </g>
     </g>
    </g>
   </g>
   <g id="matplotlib.axis_6">
    <g id="ytick_6">
     <g id="line2d_49">
      <path d="M 100.8 344.600235 
L 987.84 344.600235 
" clip-path="url(#pc38eedafba)" style="fill: none; stroke-dasharray: 1.85,0.8; stroke-dashoffset: 0; stroke: #b2b2b2; stroke-width: 0.5"/>
     </g>
     <g id="line2d_50">
      <g>
       <use xlink:href="#m05ce0c397c" x="100.8" y="344.600235" style="stroke: #000000; stroke-width: 0.8"/>
      </g>
     </g>
     <g id="text_8">
      <!-- 0 V -->
      <g transform="translate(74.36625 349.919141) scale(0.14 -0.14)">
       <use xlink:href="#DejaVuSans-30"/>
       <use xlink:href="#DejaVuSans-20" x="63.623047"/>
       <use xlink:href="#DejaVuSans-56" x="95.410156"/>
      </g>
     </g>
    </g>
    <g id="ytick_7">
     <g id="line2d_51">
      <path d="M 100.8 302.369315 
L 987.84 302.369315 
" clip-path="url(#pc38eedafba)" style="fill: none; stroke-dasharray: 1.85,0.8; stroke-dashoffset: 0; stroke: #b2b2b2; stroke-width: 0.5"/>
     </g>
     <g id="line2d_52">
      <g>
       <use xlink:href="#m05ce0c397c" x="100.8" y="302.369315" style="stroke: #000000; stroke-width: 0.8"/>
      </g>
     </g>
     <g id="text_9">
      <!-- 1 V -->
      <g transform="translate(74.36625 307.688221) scale(0.14 -0.14)">
       <use xlink:href="#DejaVuSans-31"/>
       <use xlink:href="#DejaVuSans-20" x="63.623047"/>
       <use xlink:href="#DejaVuSans-56" x="95.410156"/>
      </g>
     </g>
    </g>
    <g id="text_10">
     <g id="patch_15">
      <path d="M 34.8768 342.395313 
L 34.8768 273.204688 
L 11.247425 273.204688 
L 11.247425 342.395313 
z
" style="fill: #ffff00; opacity: 0.2; stroke: #eeeeee; stroke-width: 0.5; stroke-linejoin: miter"/>
     </g>
     <!-- CLK BUF -->
     <g transform="translate(26.925238 337.355313) rotate(-90) scale(0.14 -0.14)">
      <defs>
       <path id="DejaVuSans-43" d="M 4122 4306 
L 4122 3641 
Q 3803 3938 3442 4084 
Q 3081 4231 2675 4231 
Q 1875 4231 1450 3742 
Q 1025 3253 1025 2328 
Q 1025 1406 1450 917 
Q 1875 428 2675 428 
Q 3081 428 3442 575 
Q 3803 722 4122 1019 
L 4122 359 
Q 3791 134 3420 21 
Q 3050 -91 2638 -91 
Q 1578 -91 968 557 
Q 359 1206 359 2328 
Q 359 3453 968 4101 
Q 1578 4750 2638 4750 
Q 3056 4750 3426 4639 
Q 3797 4528 4122 4306 
z
" transform="scale(0.015625)"/>
       <path id="DejaVuSans-4b" d="M 628 4666 
L 1259 4666 
L 1259 2694 
L 3353 4666 
L 4166 4666 
L 1850 2491 
L 4331 0 
L 3500 0 
L 1259 2247 
L 1259 0 
L 628 0 
L 628 4666 
z
" transform="scale(0.015625)"/>
      </defs>
      <use xlink:href="#DejaVuSans-43"/>
      <use xlink:href="#DejaVuSans-4c" x="69.824219"/>
      <use xlink:href="#DejaVuSans-4b" x="125.537109"/>
      <use xlink:href="#DejaVuSans-20" x="191.113281"/>
      <use xlink:href="#DejaVuSans-42" x="222.900391"/>
      <use xlink:href="#DejaVuSans-55" x="291.503906"/>
      <use xlink:href="#DejaVuSans-46" x="364.697266"/>
     </g>
    </g>
   </g>
   <g id="line2d_53">
    <path d="M 141.12 344.599118 
L 173.376 344.599118 
L 173.601792 293.923131 
L 213.696 293.923131 
L 213.760512 334.346145 
L 213.825024 344.580942 
L 213.889536 344.520169 
L 213.954048 344.688878 
L 214.01856 344.604812 
L 215.405568 344.595109 
L 223.598592 344.599054 
L 254.016 344.599089 
L 254.17728 293.766876 
L 254.241792 294.037154 
L 254.403072 293.914685 
L 254.854656 293.923131 
L 294.336 293.923131 
L 294.400512 334.310671 
L 294.465024 344.915366 
L 294.529536 344.181127 
L 294.626304 344.666601 
L 294.65856 344.63655 
L 294.884352 344.576848 
L 295.206912 344.615602 
L 295.497216 344.598789 
L 321.172992 344.599117 
L 334.656 344.59912 
L 334.81728 293.847115 
L 334.881792 293.940023 
L 335.204352 293.927354 
L 336.075264 293.923131 
L 374.976 293.923131 
L 375.040512 334.349946 
L 375.105024 344.60092 
L 375.169536 344.514814 
L 375.234048 344.682594 
L 375.29856 344.604952 
L 376.75008 344.594773 
L 385.233408 344.599045 
L 415.296 344.59912 
L 415.45728 293.766876 
L 415.521792 294.037154 
L 415.683072 293.910462 
L 416.650752 293.927354 
L 455.616 293.923131 
L 455.680512 334.313205 
L 455.745024 344.920569 
L 455.809536 343.986071 
L 455.906304 345.219847 
L 455.93856 344.668924 
L 456.132096 344.574872 
L 456.519168 344.599556 
L 490.61376 344.599117 
L 495.936 344.599118 
L 496.09728 293.838669 
L 496.161792 293.940023 
L 497.129472 293.923131 
L 528.288768 294.032931 
L 529.933824 296.368301 
L 531.57888 299.155542 
L 536.256 307.150277 
L 536.288256 307.612284 
L 536.385024 346.311854 
L 536.449536 345.350087 
L 536.514048 346.873356 
L 536.57856 346.039338 
L 536.707584 346.005469 
L 545.900544 345.766273 
L 546.835968 345.921387 
L 547.86816 346.33166 
L 550.190592 347.685035 
L 550.642176 347.964984 
L 550.7712 348.031793 
L 553.932288 349.948359 
L 554.15808 349.866853 
L 555.222528 349.378241 
L 557.803008 348.443587 
L 558.286848 348.294385 
L 561.673728 347.206389 
L 561.931776 347.124588 
L 564.221952 346.471107 
L 568.35072 345.44574 
L 571.189248 344.887291 
L 571.834368 344.779788 
L 576.576 344.075685 
L 576.608256 344.468952 
L 576.769536 318.91919 
L 576.963072 318.716059 
L 578.51136 317.718987 
L 581.995008 315.525091 
L 587.414016 312.460815 
L 591.639552 310.372074 
L 592.768512 309.754658 
L 594.15552 307.20011 
L 596.25216 302.722788 
L 600.413184 293.8809 
L 601.09056 292.516841 
L 602.86464 289.053906 
L 608.315904 279.285894 
L 609.31584 277.65578 
L 611.057664 274.898101 
L 611.89632 273.626951 
L 613.089792 271.663213 
L 613.638144 270.77214 
L 615.92832 267.085381 
L 616.896 265.64953 
L 617.05728 343.210458 
L 617.089536 343.346399 
L 617.154048 343.258263 
L 617.476608 343.266963 
L 618.541056 343.358393 
L 619.218432 344.026824 
L 619.96032 344.44556 
L 620.895744 344.727118 
L 622.315008 344.906363 
L 625.185792 344.98297 
L 636.185088 344.926866 
L 638.797824 345.026049 
L 641.24928 345.085806 
L 652.603392 344.974713 
L 657.216 344.933293 
L 657.345024 279.691311 
L 657.474048 280.172743 
L 664.183296 282.693929 
L 664.4736 282.80373 
L 666.215424 283.369624 
L 666.505728 283.479424 
L 667.924992 283.918626 
L 668.34432 284.028426 
L 669.763584 284.467628 
L 670.182912 284.577428 
L 671.150592 284.847706 
L 671.537664 284.957506 
L 672.408576 285.185553 
L 672.795648 285.295354 
L 673.66656 285.523401 
L 674.053632 285.633201 
L 674.827776 285.819017 
L 675.311616 285.928818 
L 676.08576 286.114634 
L 676.472832 286.224434 
L 677.117952 286.368019 
L 677.53728 286.47782 
L 678.1824 286.621405 
L 678.698496 286.731205 
L 679.343616 286.87479 
L 679.859712 286.984591 
L 680.504832 287.128176 
L 681.020928 287.237976 
L 681.666048 287.381561 
L 682.278912 287.491362 
L 682.924032 287.634947 
L 683.536896 287.744747 
L 684.085248 287.846101 
L 684.601344 287.955902 
L 685.149696 288.057256 
L 685.76256 288.162833 
L 686.117376 288.22618 
L 686.73024 288.33598 
L 687.278592 288.437334 
L 687.891456 288.542912 
L 688.246272 288.606258 
L 688.955904 288.711835 
L 689.31072 288.775182 
L 690.020352 288.880759 
L 690.375168 288.944105 
L 691.0848 289.049683 
L 691.439616 289.113029 
L 692.149248 289.218606 
L 692.504064 289.281953 
L 693.310464 289.38753 
L 693.66528 289.450876 
L 694.568448 289.556454 
L 694.923264 289.6198 
L 695.826432 289.725377 
L 696.181248 289.788724 
L 697.084416 289.894301 
L 697.342464 289.915416 
L 697.536 289.957647 
L 697.568256 296.461209 
L 697.69728 344.717861 
L 697.987584 344.706737 
L 737.856 344.629629 
L 737.985024 292.812458 
L 738.049536 292.820904 
L 738.597888 292.850465 
L 738.855936 292.867358 
L 742.565376 292.977158 
L 742.823424 292.994051 
L 747.016704 293.103851 
L 747.274752 293.120743 
L 752.242176 293.230544 
L 752.500224 293.247436 
L 758.532096 293.357236 
L 758.790144 293.374129 
L 766.467072 293.483929 
L 766.72512 293.500822 
L 778.176 293.500822 
L 778.208256 297.48742 
L 778.272768 344.716328 
L 778.33728 344.460315 
L 778.434048 344.751016 
L 778.49856 344.618554 
L 779.369472 344.6144 
L 785.981952 344.60517 
L 818.496 344.61123 
L 818.65728 293.41636 
L 818.721792 293.517714 
L 819.689472 293.500822 
L 858.816 293.500822 
L 858.945024 344.922943 
L 859.106304 344.677137 
L 859.364352 344.582996 
L 859.719168 344.628966 
L 860.041728 344.610992 
L 898.716672 344.61121 
L 899.136 344.61121 
L 899.29728 293.281221 
L 899.361792 293.75843 
L 899.45856 293.323452 
L 899.523072 293.483929 
L 900.006912 293.500822 
L 939.456 293.500822 
L 939.488256 301.115056 
L 939.61728 344.561019 
L 939.649536 344.683831 
L 939.714048 344.566317 
L 939.810816 344.583748 
L 940.004352 344.636481 
L 940.230144 344.609872 
L 945.74592 344.611215 
L 947.52 344.611202 
L 947.52 344.611202 
" clip-path="url(#pc38eedafba)" style="fill: none; stroke: #0000ff; stroke-width: 2; stroke-linecap: square"/>
   </g>
   <g id="patch_16">
    <path d="M 100.8 354.165517 
L 100.8 261.434483 
" style="fill: none; stroke: #bcbcbc; stroke-width: 0.8; stroke-linejoin: miter; stroke-linecap: square"/>
   </g>
   <g id="patch_17">
    <path d="M 987.84 354.165517 
L 987.84 261.434483 
" style="fill: none; stroke: #bcbcbc; stroke-width: 0.8; stroke-linejoin: miter; stroke-linecap: square"/>
   </g>
   <g id="patch_18">
    <path d="M 100.8 354.165517 
L 987.84 354.165517 
" style="fill: none; stroke: #bcbcbc; stroke-width: 0.8; stroke-linejoin: miter; stroke-linecap: square"/>
   </g>
   <g id="patch_19">
    <path d="M 100.8 261.434483 
L 987.84 261.434483 
" style="fill: none; stroke: #bcbcbc; stroke-width: 0.8; stroke-linejoin: miter; stroke-linecap: square"/>
   </g>
  </g>
  <g id="axes_4">
   <g id="patch_20">
    <path d="M 100.8 465.442759 
L 987.84 465.442759 
L 987.84 372.711724 
L 100.8 372.711724 
z
" style="fill: #eeeeee"/>
   </g>
   <g id="matplotlib.axis_7">
    <g id="xtick_19">
     <g id="line2d_54">
      <path d="M 141.12 465.442759 
L 141.12 372.711724 
" clip-path="url(#p69ec13810a)" style="fill: none; stroke-dasharray: 1.85,0.8; stroke-dashoffset: 0; stroke: #b2b2b2; stroke-width: 0.5"/>
     </g>
     <g id="line2d_55">
      <g>
       <use xlink:href="#mab2c19d371" x="141.12" y="465.442759" style="stroke: #000000; stroke-width: 0.8"/>
      </g>
     </g>
    </g>
    <g id="xtick_20">
     <g id="line2d_56">
      <path d="M 302.4 465.442759 
L 302.4 372.711724 
" clip-path="url(#p69ec13810a)" style="fill: none; stroke-dasharray: 1.85,0.8; stroke-dashoffset: 0; stroke: #b2b2b2; stroke-width: 0.5"/>
     </g>
     <g id="line2d_57">
      <g>
       <use xlink:href="#mab2c19d371" x="302.4" y="465.442759" style="stroke: #000000; stroke-width: 0.8"/>
      </g>
     </g>
    </g>
    <g id="xtick_21">
     <g id="line2d_58">
      <path d="M 463.68 465.442759 
L 463.68 372.711724 
" clip-path="url(#p69ec13810a)" style="fill: none; stroke-dasharray: 1.85,0.8; stroke-dashoffset: 0; stroke: #b2b2b2; stroke-width: 0.5"/>
     </g>
     <g id="line2d_59">
      <g>
       <use xlink:href="#mab2c19d371" x="463.68" y="465.442759" style="stroke: #000000; stroke-width: 0.8"/>
      </g>
     </g>
    </g>
    <g id="xtick_22">
     <g id="line2d_60">
      <path d="M 624.96 465.442759 
L 624.96 372.711724 
" clip-path="url(#p69ec13810a)" style="fill: none; stroke-dasharray: 1.85,0.8; stroke-dashoffset: 0; stroke: #b2b2b2; stroke-width: 0.5"/>
     </g>
     <g id="line2d_61">
      <g>
       <use xlink:href="#mab2c19d371" x="624.96" y="465.442759" style="stroke: #000000; stroke-width: 0.8"/>
      </g>
     </g>
    </g>
    <g id="xtick_23">
     <g id="line2d_62">
      <path d="M 786.24 465.442759 
L 786.24 372.711724 
" clip-path="url(#p69ec13810a)" style="fill: none; stroke-dasharray: 1.85,0.8; stroke-dashoffset: 0; stroke: #b2b2b2; stroke-width: 0.5"/>
     </g>
     <g id="line2d_63">
      <g>
       <use xlink:href="#mab2c19d371" x="786.24" y="465.442759" style="stroke: #000000; stroke-width: 0.8"/>
      </g>
     </g>
    </g>
    <g id="xtick_24">
     <g id="line2d_64">
      <path d="M 947.52 465.442759 
L 947.52 372.711724 
" clip-path="url(#p69ec13810a)" style="fill: none; stroke-dasharray: 1.85,0.8; stroke-dashoffset: 0; stroke: #b2b2b2; stroke-width: 0.5"/>
     </g>
     <g id="line2d_65">
      <g>
       <use xlink:href="#mab2c19d371" x="947.52" y="465.442759" style="stroke: #000000; stroke-width: 0.8"/>
      </g>
     </g>
    </g>
   </g>
   <g id="matplotlib.axis_8">
    <g id="ytick_8">
     <g id="line2d_66">
      <path d="M 100.8 438.193106 
L 987.84 438.193106 
" clip-path="url(#p69ec13810a)" style="fill: none; stroke-dasharray: 1.85,0.8; stroke-dashoffset: 0; stroke: #b2b2b2; stroke-width: 0.5"/>
     </g>
     <g id="line2d_67">
      <g>
       <use xlink:href="#m05ce0c397c" x="100.8" y="438.193106" style="stroke: #000000; stroke-width: 0.8"/>
      </g>
     </g>
     <g id="text_11">
      <!-- 0 V -->
      <g transform="translate(74.36625 443.512012) scale(0.14 -0.14)">
       <use xlink:href="#DejaVuSans-30"/>
       <use xlink:href="#DejaVuSans-20" x="63.623047"/>
       <use xlink:href="#DejaVuSans-56" x="95.410156"/>
      </g>
     </g>
    </g>
    <g id="ytick_9">
     <g id="line2d_68">
      <path d="M 100.8 397.766623 
L 987.84 397.766623 
" clip-path="url(#p69ec13810a)" style="fill: none; stroke-dasharray: 1.85,0.8; stroke-dashoffset: 0; stroke: #b2b2b2; stroke-width: 0.5"/>
     </g>
     <g id="line2d_69">
      <g>
       <use xlink:href="#m05ce0c397c" x="100.8" y="397.766623" style="stroke: #000000; stroke-width: 0.8"/>
      </g>
     </g>
     <g id="text_12">
      <!-- 1 V -->
      <g transform="translate(74.36625 403.085529) scale(0.14 -0.14)">
       <use xlink:href="#DejaVuSans-31"/>
       <use xlink:href="#DejaVuSans-20" x="63.623047"/>
       <use xlink:href="#DejaVuSans-56" x="95.410156"/>
      </g>
     </g>
    </g>
    <g id="text_13">
     <g id="patch_21">
      <path d="M 34.8768 454.693023 
L 34.8768 383.46146 
L 11.247425 383.46146 
L 11.247425 454.693023 
z
" style="fill: #ffff00; opacity: 0.2; stroke: #eeeeee; stroke-width: 0.5; stroke-linejoin: miter"/>
     </g>
     <!-- DFF OUT -->
     <g transform="translate(26.925238 449.653023) rotate(-90) scale(0.14 -0.14)">
      <defs>
       <path id="DejaVuSans-4f" d="M 2522 4238 
Q 1834 4238 1429 3725 
Q 1025 3213 1025 2328 
Q 1025 1447 1429 934 
Q 1834 422 2522 422 
Q 3209 422 3611 934 
Q 4013 1447 4013 2328 
Q 4013 3213 3611 3725 
Q 3209 4238 2522 4238 
z
M 2522 4750 
Q 3503 4750 4090 4092 
Q 4678 3434 4678 2328 
Q 4678 1225 4090 567 
Q 3503 -91 2522 -91 
Q 1538 -91 948 565 
Q 359 1222 359 2328 
Q 359 3434 948 4092 
Q 1538 4750 2522 4750 
z
" transform="scale(0.015625)"/>
       <path id="DejaVuSans-54" d="M -19 4666 
L 3928 4666 
L 3928 4134 
L 2272 4134 
L 2272 0 
L 1638 0 
L 1638 4134 
L -19 4134 
L -19 4666 
z
" transform="scale(0.015625)"/>
      </defs>
      <use xlink:href="#DejaVuSans-44"/>
      <use xlink:href="#DejaVuSans-46" x="77.001953"/>
      <use xlink:href="#DejaVuSans-46" x="134.521484"/>
      <use xlink:href="#DejaVuSans-20" x="192.041016"/>
      <use xlink:href="#DejaVuSans-4f" x="223.828125"/>
      <use xlink:href="#DejaVuSans-55" x="302.539062"/>
      <use xlink:href="#DejaVuSans-54" x="375.732422"/>
     </g>
    </g>
   </g>
   <g id="line2d_70">
    <path d="M 141.12 407.690112 
L 173.408256 407.739432 
L 173.440512 409.413089 
L 173.601792 438.195573 
L 174.117888 438.190878 
L 184.214016 438.192039 
L 254.048256 438.193722 
L 254.080512 438.355329 
L 254.112768 438.088009 
L 254.306304 434.14116 
L 254.596608 433.350013 
L 254.693376 432.78566 
L 255.14496 425.70294 
L 255.370752 409.056123 
L 255.596544 390.073463 
L 255.757824 389.741966 
L 255.983616 389.677284 
L 256.886784 389.681327 
L 295.755264 389.762179 
L 296.239104 392.377773 
L 296.59392 391.722864 
L 297.948672 390.012824 
L 299.593728 389.713668 
L 334.688256 389.697497 
L 334.720512 389.58026 
L 334.752768 390.17453 
L 334.785024 393.113535 
L 334.914048 438.176534 
L 334.97856 438.140956 
L 335.13984 438.184633 
L 335.494656 438.192519 
L 366.331392 438.191993 
L 415.328256 438.193697 
L 415.360512 438.354767 
L 415.392768 438.090249 
L 415.586304 434.046966 
L 415.876608 433.119178 
L 415.908864 433.008005 
L 416.1024 428.213829 
L 416.521728 414.25699 
L 416.9088 389.814734 
L 417.102336 389.685369 
L 417.7152 389.71771 
L 495.968256 389.697497 
L 496.000512 389.834947 
L 496.065024 389.648985 
L 496.355328 389.673241 
L 528.288768 389.782393 
L 529.901568 391.973508 
L 531.611136 394.750807 
L 536.191488 402.419711 
L 536.707584 403.674954 
L 537.513984 406.724727 
L 538.6752 411.795017 
L 538.804224 411.701632 
L 538.868736 412.019384 
L 539.15904 413.990983 
L 539.32032 414.658829 
L 539.352576 414.378673 
L 539.417088 414.500761 
L 539.449344 414.64185 
L 539.610624 416.169971 
L 540.029952 417.965311 
L 540.255744 419.198319 
L 544.190976 437.147313 
L 544.287744 437.44841 
L 544.32 436.958319 
L 544.384512 437.319005 
L 544.932864 440.134547 
L 544.96512 439.725189 
L 544.997376 440.290311 
L 545.029632 439.958328 
L 545.319936 441.579511 
L 545.739264 442.903195 
L 545.77152 442.661041 
L 545.836032 442.78798 
L 546.029568 443.256119 
L 546.190848 444.133373 
L 546.223104 443.754577 
L 546.287616 443.96722 
L 546.771456 445.551534 
L 547.06176 446.159549 
L 547.094016 446.066163 
L 547.126272 445.995821 
L 547.190784 446.099717 
L 547.416576 446.71137 
L 547.448832 446.632538 
L 547.610112 447.349704 
L 549.900288 452.546529 
L 553.02912 459.444904 
L 553.9968 461.227712 
L 554.190336 461.1129 
L 554.383872 460.988791 
L 554.545152 460.661741 
L 554.770944 460.157623 
L 554.8032 459.538693 
L 554.899968 459.6531 
L 554.96448 459.894042 
L 555.028992 459.740017 
L 556.545024 456.985761 
L 556.57728 457.06055 
L 556.609536 456.866907 
L 557.351424 455.828755 
L 557.448192 455.692518 
L 557.480448 455.83684 
L 557.512704 455.626622 
L 557.54496 455.583366 
L 557.577216 455.757604 
L 557.609472 455.489172 
L 557.641728 455.575685 
L 557.70624 455.455214 
L 558.480384 454.640216 
L 558.738432 454.15712 
L 558.802944 454.282442 
L 558.8352 454.100523 
L 558.99648 453.847453 
L 559.028736 454.008755 
L 559.060992 453.77226 
L 559.093248 453.953775 
L 559.48032 453.248332 
L 559.512576 453.359101 
L 559.544832 453.167075 
L 559.867392 452.842855 
L 559.96416 452.739363 
L 559.996416 452.942304 
L 560.028672 452.684383 
L 560.060928 452.814556 
L 560.544768 452.274458 
L 560.996352 451.904556 
L 561.286656 451.559718 
L 561.41568 451.160305 
L 561.867264 450.704698 
L 561.89952 450.855489 
L 561.931776 450.582206 
L 561.996288 450.678421 
L 562.093056 450.388159 
L 562.125312 450.675187 
L 562.189824 450.275369 
L 562.22208 450.47831 
L 562.254336 450.19492 
L 562.318848 450.401499 
L 562.738176 449.770038 
L 562.770432 449.749016 
L 562.802688 449.968936 
L 562.899456 449.871508 
L 563.18976 449.495946 
L 563.480064 449.305538 
L 564.15744 448.45739 
L 564.254208 448.115786 
L 564.286464 448.156213 
L 564.31872 448.31428 
L 564.350976 448.270215 
L 564.48 447.837248 
L 564.576768 447.768118 
L 564.609024 448.104871 
L 564.673536 447.714755 
L 564.738048 447.950442 
L 564.80256 447.802885 
L 564.996096 447.345257 
L 565.028352 447.683627 
L 565.060608 447.246213 
L 565.12512 447.568816 
L 565.254144 447.092592 
L 565.2864 447.07723 
L 565.318656 447.295533 
L 565.350912 446.994356 
L 565.415424 447.210233 
L 565.576704 446.862565 
L 565.60896 446.987079 
L 565.673472 446.810011 
L 566.512128 446.246466 
L 566.866944 445.800966 
L 567.028224 445.345764 
L 567.092736 445.235399 
L 567.124992 445.435106 
L 567.157248 445.186887 
L 567.318528 444.971414 
L 567.350784 445.36436 
L 567.415296 444.888136 
L 567.608832 444.686003 
L 567.641088 445.094715 
L 567.737856 445.006181 
L 567.86688 444.410295 
L 567.899136 444.425657 
L 569.64096 443.317567 
L 570.350592 442.608082 
L 570.44736 442.343289 
L 570.576384 441.903085 
L 570.60864 441.835289 
L 570.640896 442.307309 
L 570.673152 441.743279 
L 570.737664 442.245457 
L 570.866688 441.562734 
L 570.898944 441.625395 
L 570.963456 441.664771 
L 570.995712 441.502418 
L 571.027968 441.873816 
L 571.060224 441.401311 
L 571.124736 441.812287 
L 571.25376 441.258767 
L 571.511808 441.297213 
L 571.640832 441.051137 
L 571.673088 441.069248 
L 571.705344 441.270168 
L 571.7376 441.040181 
L 571.769856 441.046488 
L 572.124672 440.952133 
L 573.3504 439.718801 
L 573.801984 439.05326 
L 573.83424 438.341867 
L 573.931008 438.439906 
L 573.963264 438.216443 
L 574.027776 438.477692 
L 574.060032 438.581002 
L 574.1568 438.172222 
L 574.189056 438.207502 
L 574.285824 438.230381 
L 574.31808 438.176116 
L 575.156736 436.683419 
L 575.253504 435.819505 
L 575.28576 436.446035 
L 575.350272 435.671464 
L 575.382528 435.967264 
L 575.44704 435.575006 
L 575.543808 435.502926 
L 575.576064 435.830784 
L 575.640576 435.503128 
L 575.672832 435.628531 
L 575.737344 435.595462 
L 576.027648 435.048411 
L 576.769536 433.636233 
L 576.801792 432.799809 
L 576.89856 433.166073 
L 576.930816 433.099773 
L 576.995328 432.70036 
L 577.05984 432.751297 
L 577.092096 432.995877 
L 577.156608 432.809915 
L 577.511424 432.157432 
L 578.092032 431.029533 
L 578.285568 430.769995 
L 578.35008 430.098511 
L 578.414592 430.172492 
L 578.51136 430.404944 
L 578.543616 430.291346 
L 579.220992 428.880866 
L 579.511296 428.375939 
L 579.543552 428.472962 
L 579.608064 428.343598 
L 579.769344 428.031909 
L 579.995136 427.729115 
L 580.93056 425.77692 
L 580.962816 426.065161 
L 581.027328 425.713451 
L 581.124096 425.92569 
L 581.188608 425.61481 
L 581.25312 425.625725 
L 581.4144 425.358102 
L 581.607936 425.078755 
L 582.188544 423.88294 
L 582.317568 423.127773 
L 584.027136 419.320407 
L 584.15616 418.665902 
L 584.188416 418.931908 
L 584.285184 418.829629 
L 584.865792 417.637856 
L 585.60768 416.438403 
L 585.672192 415.839282 
L 585.736704 415.908816 
L 585.865728 415.911241 
L 586.09152 415.620979 
L 587.736576 413.091494 
L 587.962368 413.021961 
L 587.994624 413.044599 
L 588.02688 412.80487 
L 588.059136 413.049046 
L 588.220416 414.516932 
L 588.317184 418.646497 
L 588.639744 437.609186 
L 589.188096 437.66453 
L 592.736256 437.734184 
L 593.413632 437.122815 
L 594.220032 436.734074 
L 595.252224 436.50437 
L 596.832768 436.411956 
L 600.251904 436.496851 
L 613.089792 436.853332 
L 615.863808 436.876335 
L 618.573312 437.054009 
L 619.250688 437.680417 
L 620.057088 438.096167 
L 621.057024 438.357553 
L 622.70208 438.520451 
L 626.153472 438.571825 
L 657.248256 438.507102 
L 657.280512 438.83811 
L 657.53856 430.75342 
L 657.764352 429.262896 
L 657.925632 426.300443 
L 658.086912 417.360531 
L 658.280448 392.026063 
L 658.473984 377.007624 
L 658.603008 376.951027 
L 664.183296 378.931925 
L 664.4736 379.037034 
L 666.215424 379.578748 
L 666.505728 379.683857 
L 667.924992 380.104293 
L 668.34432 380.209402 
L 669.763584 380.629837 
L 670.182912 380.734946 
L 671.376384 381.070486 
L 672.279552 381.288789 
L 673.18272 381.51922 
L 673.569792 381.624328 
L 674.343936 381.802205 
L 674.731008 381.907314 
L 675.505152 382.08519 
L 675.988992 382.190299 
L 676.763136 382.368176 
L 677.246976 382.473285 
L 678.02112 382.651161 
L 678.50496 382.75627 
L 679.182336 382.89372 
L 679.666176 382.998829 
L 680.343552 383.136279 
L 680.827392 383.241388 
L 681.504768 383.378838 
L 681.988608 383.483947 
L 682.53696 383.58097 
L 683.053056 383.686079 
L 683.601408 383.783103 
L 684.214272 383.888212 
L 684.762624 383.985235 
L 685.27872 384.090344 
L 685.827072 384.187367 
L 686.439936 384.292476 
L 686.988288 384.3895 
L 687.69792 384.490566 
L 688.052736 384.551206 
L 688.6656 384.652272 
L 689.020416 384.712912 
L 689.730048 384.813978 
L 690.084864 384.874618 
L 690.794496 384.979727 
L 691.24608 385.036324 
L 691.858944 385.13739 
L 692.21376 385.19803 
L 693.02016 385.299096 
L 693.374976 385.359735 
L 694.278144 385.460802 
L 694.63296 385.521441 
L 695.43936 385.622508 
L 695.697408 385.642721 
L 696.40704 385.743787 
L 696.665088 385.764 
L 697.471488 385.865067 
L 697.568256 385.893365 
L 697.600512 385.788256 
L 697.665024 385.937834 
L 697.826304 385.925706 
L 698.82624 386.026772 
L 699.181056 386.087412 
L 700.180992 386.188478 
L 700.43904 386.208692 
L 701.342208 386.309758 
L 701.600256 386.329971 
L 702.503424 386.431037 
L 702.761472 386.451251 
L 703.66464 386.552317 
L 703.922688 386.57253 
L 704.922624 386.673596 
L 705.180672 386.693809 
L 706.180608 386.794876 
L 706.438656 386.815089 
L 707.53536 386.916155 
L 707.793408 386.936368 
L 708.98688 387.037435 
L 709.244928 387.057648 
L 710.4384 387.158714 
L 710.696448 387.178927 
L 711.986688 387.279993 
L 712.244736 387.300207 
L 713.631744 387.401273 
L 713.889792 387.421486 
L 715.373568 387.522552 
L 715.631616 387.542766 
L 717.115392 387.643832 
L 717.37344 387.660002 
L 719.050752 387.765111 
L 719.3088 387.785324 
L 721.08288 387.886391 
L 721.340928 387.906604 
L 723.308544 388.00767 
L 723.566592 388.027883 
L 725.630976 388.12895 
L 725.889024 388.149163 
L 728.243712 388.250229 
L 728.50176 388.2664 
L 730.953216 388.371508 
L 731.308032 388.387679 
L 734.049792 388.492788 
L 734.30784 388.508958 
L 737.436672 388.614067 
L 737.69472 388.630238 
L 737.888256 388.626195 
L 737.920512 388.844498 
L 737.985024 388.626195 
L 741.210624 388.735347 
L 741.468672 388.751517 
L 745.468416 388.856626 
L 745.726464 388.872797 
L 750.403584 388.977906 
L 750.7584 388.994076 
L 756.306432 389.099185 
L 756.661248 389.119398 
L 763.564032 389.220465 
L 763.918848 389.240678 
L 818.528256 389.293232 
L 818.560512 389.430682 
L 818.625024 389.24472 
L 818.915328 389.268976 
L 899.168256 389.273019 
L 899.200512 389.479194 
L 899.265024 389.273019 
L 899.45856 389.252806 
L 900.523008 389.277062 
L 947.52 389.277062 
L 947.52 389.277062 
" clip-path="url(#p69ec13810a)" style="fill: none; stroke: #ff00ff; stroke-width: 2; stroke-linecap: square"/>
   </g>
   <g id="patch_22">
    <path d="M 100.8 465.442759 
L 100.8 372.711724 
" style="fill: none; stroke: #bcbcbc; stroke-width: 0.8; stroke-linejoin: miter; stroke-linecap: square"/>
   </g>
   <g id="patch_23">
    <path d="M 987.84 465.442759 
L 987.84 372.711724 
" style="fill: none; stroke: #bcbcbc; stroke-width: 0.8; stroke-linejoin: miter; stroke-linecap: square"/>
   </g>
   <g id="patch_24">
    <path d="M 100.8 465.442759 
L 987.84 465.442759 
" style="fill: none; stroke: #bcbcbc; stroke-width: 0.8; stroke-linejoin: miter; stroke-linecap: square"/>
   </g>
   <g id="patch_25">
    <path d="M 100.8 372.711724 
L 987.84 372.711724 
" style="fill: none; stroke: #bcbcbc; stroke-width: 0.8; stroke-linejoin: miter; stroke-linecap: square"/>
   </g>
  </g>
  <g id="axes_5">
   <g id="patch_26">
    <path d="M 100.8 576.72 
L 987.84 576.72 
L 987.84 483.988966 
L 100.8 483.988966 
z
" style="fill: #eeeeee"/>
   </g>
   <g id="matplotlib.axis_9">
    <g id="xtick_25">
     <g id="line2d_71">
      <path d="M 141.12 576.72 
L 141.12 483.988966 
" clip-path="url(#p79f77ee63d)" style="fill: none; stroke-dasharray: 1.85,0.8; stroke-dashoffset: 0; stroke: #b2b2b2; stroke-width: 0.5"/>
     </g>
     <g id="line2d_72">
      <g>
       <use xlink:href="#mab2c19d371" x="141.12" y="576.72" style="stroke: #000000; stroke-width: 0.8"/>
      </g>
     </g>
     <g id="text_14">
      <!-- 0 s -->
      <g transform="translate(130.795 590.857813) scale(0.14 -0.14)">
       <defs>
        <path id="DejaVuSans-73" d="M 2834 3397 
L 2834 2853 
Q 2591 2978 2328 3040 
Q 2066 3103 1784 3103 
Q 1356 3103 1142 2972 
Q 928 2841 928 2578 
Q 928 2378 1081 2264 
Q 1234 2150 1697 2047 
L 1894 2003 
Q 2506 1872 2764 1633 
Q 3022 1394 3022 966 
Q 3022 478 2636 193 
Q 2250 -91 1575 -91 
Q 1294 -91 989 -36 
Q 684 19 347 128 
L 347 722 
Q 666 556 975 473 
Q 1284 391 1588 391 
Q 1994 391 2212 530 
Q 2431 669 2431 922 
Q 2431 1156 2273 1281 
Q 2116 1406 1581 1522 
L 1381 1569 
Q 847 1681 609 1914 
Q 372 2147 372 2553 
Q 372 3047 722 3315 
Q 1072 3584 1716 3584 
Q 2034 3584 2315 3537 
Q 2597 3491 2834 3397 
z
" transform="scale(0.015625)"/>
       </defs>
       <use xlink:href="#DejaVuSans-30"/>
       <use xlink:href="#DejaVuSans-20" x="63.623047"/>
       <use xlink:href="#DejaVuSans-73" x="95.410156"/>
      </g>
     </g>
    </g>
    <g id="xtick_26">
     <g id="line2d_73">
      <path d="M 302.4 576.72 
L 302.4 483.988966 
" clip-path="url(#p79f77ee63d)" style="fill: none; stroke-dasharray: 1.85,0.8; stroke-dashoffset: 0; stroke: #b2b2b2; stroke-width: 0.5"/>
     </g>
     <g id="line2d_74">
      <g>
       <use xlink:href="#mab2c19d371" x="302.4" y="576.72" style="stroke: #000000; stroke-width: 0.8"/>
      </g>
     </g>
     <g id="text_15">
      <!-- 50 ns -->
      <g transform="translate(283.185 590.857813) scale(0.14 -0.14)">
       <defs>
        <path id="DejaVuSans-35" d="M 691 4666 
L 3169 4666 
L 3169 4134 
L 1269 4134 
L 1269 2991 
Q 1406 3038 1543 3061 
Q 1681 3084 1819 3084 
Q 2600 3084 3056 2656 
Q 3513 2228 3513 1497 
Q 3513 744 3044 326 
Q 2575 -91 1722 -91 
Q 1428 -91 1123 -41 
Q 819 9 494 109 
L 494 744 
Q 775 591 1075 516 
Q 1375 441 1709 441 
Q 2250 441 2565 725 
Q 2881 1009 2881 1497 
Q 2881 1984 2565 2268 
Q 2250 2553 1709 2553 
Q 1456 2553 1204 2497 
Q 953 2441 691 2322 
L 691 4666 
z
" transform="scale(0.015625)"/>
        <path id="DejaVuSans-6e" d="M 3513 2113 
L 3513 0 
L 2938 0 
L 2938 2094 
Q 2938 2591 2744 2837 
Q 2550 3084 2163 3084 
Q 1697 3084 1428 2787 
Q 1159 2491 1159 1978 
L 1159 0 
L 581 0 
L 581 3500 
L 1159 3500 
L 1159 2956 
Q 1366 3272 1645 3428 
Q 1925 3584 2291 3584 
Q 2894 3584 3203 3211 
Q 3513 2838 3513 2113 
z
" transform="scale(0.015625)"/>
       </defs>
       <use xlink:href="#DejaVuSans-35"/>
       <use xlink:href="#DejaVuSans-30" x="63.623047"/>
       <use xlink:href="#DejaVuSans-20" x="127.246094"/>
       <use xlink:href="#DejaVuSans-6e" x="159.033203"/>
       <use xlink:href="#DejaVuSans-73" x="222.412109"/>
      </g>
     </g>
    </g>
    <g id="xtick_27">
     <g id="line2d_75">
      <path d="M 463.68 576.72 
L 463.68 483.988966 
" clip-path="url(#p79f77ee63d)" style="fill: none; stroke-dasharray: 1.85,0.8; stroke-dashoffset: 0; stroke: #b2b2b2; stroke-width: 0.5"/>
     </g>
     <g id="line2d_76">
      <g>
       <use xlink:href="#mab2c19d371" x="463.68" y="576.72" style="stroke: #000000; stroke-width: 0.8"/>
      </g>
     </g>
     <g id="text_16">
      <!-- 100 ns -->
      <g transform="translate(440.01125 590.857813) scale(0.14 -0.14)">
       <use xlink:href="#DejaVuSans-31"/>
       <use xlink:href="#DejaVuSans-30" x="63.623047"/>
       <use xlink:href="#DejaVuSans-30" x="127.246094"/>
       <use xlink:href="#DejaVuSans-20" x="190.869141"/>
       <use xlink:href="#DejaVuSans-6e" x="222.65625"/>
       <use xlink:href="#DejaVuSans-73" x="286.035156"/>
      </g>
     </g>
    </g>
    <g id="xtick_28">
     <g id="line2d_77">
      <path d="M 624.96 576.72 
L 624.96 483.988966 
" clip-path="url(#p79f77ee63d)" style="fill: none; stroke-dasharray: 1.85,0.8; stroke-dashoffset: 0; stroke: #b2b2b2; stroke-width: 0.5"/>
     </g>
     <g id="line2d_78">
      <g>
       <use xlink:href="#mab2c19d371" x="624.96" y="576.72" style="stroke: #000000; stroke-width: 0.8"/>
      </g>
     </g>
     <g id="text_17">
      <!-- 150 ns -->
      <g transform="translate(601.29125 590.857813) scale(0.14 -0.14)">
       <use xlink:href="#DejaVuSans-31"/>
       <use xlink:href="#DejaVuSans-35" x="63.623047"/>
       <use xlink:href="#DejaVuSans-30" x="127.246094"/>
       <use xlink:href="#DejaVuSans-20" x="190.869141"/>
       <use xlink:href="#DejaVuSans-6e" x="222.65625"/>
       <use xlink:href="#DejaVuSans-73" x="286.035156"/>
      </g>
     </g>
    </g>
    <g id="xtick_29">
     <g id="line2d_79">
      <path d="M 786.24 576.72 
L 786.24 483.988966 
" clip-path="url(#p79f77ee63d)" style="fill: none; stroke-dasharray: 1.85,0.8; stroke-dashoffset: 0; stroke: #b2b2b2; stroke-width: 0.5"/>
     </g>
     <g id="line2d_80">
      <g>
       <use xlink:href="#mab2c19d371" x="786.24" y="576.72" style="stroke: #000000; stroke-width: 0.8"/>
      </g>
     </g>
     <g id="text_18">
      <!-- 200 ns -->
      <g transform="translate(762.57125 590.857813) scale(0.14 -0.14)">
       <use xlink:href="#DejaVuSans-32"/>
       <use xlink:href="#DejaVuSans-30" x="63.623047"/>
       <use xlink:href="#DejaVuSans-30" x="127.246094"/>
       <use xlink:href="#DejaVuSans-20" x="190.869141"/>
       <use xlink:href="#DejaVuSans-6e" x="222.65625"/>
       <use xlink:href="#DejaVuSans-73" x="286.035156"/>
      </g>
     </g>
    </g>
    <g id="xtick_30">
     <g id="line2d_81">
      <path d="M 947.52 576.72 
L 947.52 483.988966 
" clip-path="url(#p79f77ee63d)" style="fill: none; stroke-dasharray: 1.85,0.8; stroke-dashoffset: 0; stroke: #b2b2b2; stroke-width: 0.5"/>
     </g>
     <g id="line2d_82">
      <g>
       <use xlink:href="#mab2c19d371" x="947.52" y="576.72" style="stroke: #000000; stroke-width: 0.8"/>
      </g>
     </g>
     <g id="text_19">
      <!-- 250 ns -->
      <g transform="translate(923.85125 590.857813) scale(0.14 -0.14)">
       <use xlink:href="#DejaVuSans-32"/>
       <use xlink:href="#DejaVuSans-35" x="63.623047"/>
       <use xlink:href="#DejaVuSans-30" x="127.246094"/>
       <use xlink:href="#DejaVuSans-20" x="190.869141"/>
       <use xlink:href="#DejaVuSans-6e" x="222.65625"/>
       <use xlink:href="#DejaVuSans-73" x="286.035156"/>
      </g>
     </g>
    </g>
    <g id="text_20">
     <!-- Time -->
     <g transform="translate(527.192969 608.407187) scale(0.14 -0.14)">
      <defs>
       <path id="DejaVuSans-69" d="M 603 3500 
L 1178 3500 
L 1178 0 
L 603 0 
L 603 3500 
z
M 603 4863 
L 1178 4863 
L 1178 4134 
L 603 4134 
L 603 4863 
z
" transform="scale(0.015625)"/>
       <path id="DejaVuSans-6d" d="M 3328 2828 
Q 3544 3216 3844 3400 
Q 4144 3584 4550 3584 
Q 5097 3584 5394 3201 
Q 5691 2819 5691 2113 
L 5691 0 
L 5113 0 
L 5113 2094 
Q 5113 2597 4934 2840 
Q 4756 3084 4391 3084 
Q 3944 3084 3684 2787 
Q 3425 2491 3425 1978 
L 3425 0 
L 2847 0 
L 2847 2094 
Q 2847 2600 2669 2842 
Q 2491 3084 2119 3084 
Q 1678 3084 1418 2786 
Q 1159 2488 1159 1978 
L 1159 0 
L 581 0 
L 581 3500 
L 1159 3500 
L 1159 2956 
Q 1356 3278 1631 3431 
Q 1906 3584 2284 3584 
Q 2666 3584 2933 3390 
Q 3200 3197 3328 2828 
z
" transform="scale(0.015625)"/>
       <path id="DejaVuSans-65" d="M 3597 1894 
L 3597 1613 
L 953 1613 
Q 991 1019 1311 708 
Q 1631 397 2203 397 
Q 2534 397 2845 478 
Q 3156 559 3463 722 
L 3463 178 
Q 3153 47 2828 -22 
Q 2503 -91 2169 -91 
Q 1331 -91 842 396 
Q 353 884 353 1716 
Q 353 2575 817 3079 
Q 1281 3584 2069 3584 
Q 2775 3584 3186 3129 
Q 3597 2675 3597 1894 
z
M 3022 2063 
Q 3016 2534 2758 2815 
Q 2500 3097 2075 3097 
Q 1594 3097 1305 2825 
Q 1016 2553 972 2059 
L 3022 2063 
z
" transform="scale(0.015625)"/>
      </defs>
      <use xlink:href="#DejaVuSans-54"/>
      <use xlink:href="#DejaVuSans-69" x="57.958984"/>
      <use xlink:href="#DejaVuSans-6d" x="85.742188"/>
      <use xlink:href="#DejaVuSans-65" x="183.154297"/>
     </g>
    </g>
   </g>
   <g id="matplotlib.axis_10">
    <g id="ytick_10">
     <g id="line2d_83">
      <path d="M 100.8 569.745885 
L 987.84 569.745885 
" clip-path="url(#p79f77ee63d)" style="fill: none; stroke-dasharray: 1.85,0.8; stroke-dashoffset: 0; stroke: #b2b2b2; stroke-width: 0.5"/>
     </g>
     <g id="line2d_84">
      <g>
       <use xlink:href="#m05ce0c397c" x="100.8" y="569.745885" style="stroke: #000000; stroke-width: 0.8"/>
      </g>
     </g>
     <g id="text_21">
      <!-- 0 V -->
      <g transform="translate(74.36625 575.064792) scale(0.14 -0.14)">
       <use xlink:href="#DejaVuSans-30"/>
       <use xlink:href="#DejaVuSans-20" x="63.623047"/>
       <use xlink:href="#DejaVuSans-56" x="95.410156"/>
      </g>
     </g>
    </g>
    <g id="ytick_11">
     <g id="line2d_85">
      <path d="M 100.8 535.950348 
L 987.84 535.950348 
" clip-path="url(#p79f77ee63d)" style="fill: none; stroke-dasharray: 1.85,0.8; stroke-dashoffset: 0; stroke: #b2b2b2; stroke-width: 0.5"/>
     </g>
     <g id="line2d_86">
      <g>
       <use xlink:href="#m05ce0c397c" x="100.8" y="535.950348" style="stroke: #000000; stroke-width: 0.8"/>
      </g>
     </g>
     <g id="text_22">
      <!-- 500 mV -->
      <g transform="translate(42.914375 541.269254) scale(0.14 -0.14)">
       <use xlink:href="#DejaVuSans-35"/>
       <use xlink:href="#DejaVuSans-30" x="63.623047"/>
       <use xlink:href="#DejaVuSans-30" x="127.246094"/>
       <use xlink:href="#DejaVuSans-20" x="190.869141"/>
       <use xlink:href="#DejaVuSans-6d" x="222.65625"/>
       <use xlink:href="#DejaVuSans-56" x="320.068359"/>
      </g>
     </g>
    </g>
    <g id="ytick_12">
     <g id="line2d_87">
      <path d="M 100.8 502.15481 
L 987.84 502.15481 
" clip-path="url(#p79f77ee63d)" style="fill: none; stroke-dasharray: 1.85,0.8; stroke-dashoffset: 0; stroke: #b2b2b2; stroke-width: 0.5"/>
     </g>
     <g id="line2d_88">
      <g>
       <use xlink:href="#m05ce0c397c" x="100.8" y="502.15481" style="stroke: #000000; stroke-width: 0.8"/>
      </g>
     </g>
     <g id="text_23">
      <!-- 1 V -->
      <g transform="translate(74.36625 507.473717) scale(0.14 -0.14)">
       <use xlink:href="#DejaVuSans-31"/>
       <use xlink:href="#DejaVuSans-20" x="63.623047"/>
       <use xlink:href="#DejaVuSans-56" x="95.410156"/>
      </g>
     </g>
    </g>
    <g id="text_24">
     <g id="patch_27">
      <path d="M 34.8768 554.329483 
L 34.8768 506.379483 
L 11.247425 506.379483 
L 11.247425 554.329483 
z
" style="fill: #ffff00; opacity: 0.2; stroke: #eeeeee; stroke-width: 0.5; stroke-linejoin: miter"/>
     </g>
     <!-- FOUT -->
     <g transform="translate(26.925238 549.289483) rotate(-90) scale(0.14 -0.14)">
      <use xlink:href="#DejaVuSans-46"/>
      <use xlink:href="#DejaVuSans-4f" x="57.519531"/>
      <use xlink:href="#DejaVuSans-55" x="136.230469"/>
      <use xlink:href="#DejaVuSans-54" x="209.423828"/>
     </g>
    </g>
   </g>
   <g id="line2d_89">
    <path d="M 141.12 488.636595 
L 173.472768 488.643355 
L 173.505024 488.44734 
L 173.569536 526.789729 
L 173.69856 572.504953 
L 173.730816 572.3695 
L 173.827584 567.842115 
L 173.892096 569.3609 
L 174.053376 570.064192 
L 174.117888 569.946665 
L 174.408192 569.492054 
L 174.440448 569.54151 
L 174.66624 569.729954 
L 176.182272 569.740151 
L 180.117504 569.761449 
L 193.568256 569.752159 
L 212.954112 569.74401 
L 255.30624 569.743704 
L 255.6288 488.52845 
L 255.854592 488.670391 
L 256.209408 488.629836 
L 334.849536 488.650114 
L 334.881792 492.854278 
L 335.043072 572.18376 
L 335.107584 570.261206 
L 335.172096 568.338639 
L 335.236608 568.870108 
L 335.365632 570.783003 
L 335.430144 570.410083 
L 335.591424 569.797213 
L 335.881728 569.648439 
L 336.559104 569.817924 
L 337.107456 569.746143 
L 350.009856 569.744206 
L 416.489472 569.74333 
L 416.553984 567.480841 
L 416.812032 488.204013 
L 416.844288 488.339195 
L 416.973312 488.852887 
L 417.037824 488.778537 
L 417.39264 488.548727 
L 417.844224 488.717705 
L 418.457088 488.562245 
L 419.328 488.636595 
L 539.610624 488.575763 
L 539.64288 488.467618 
L 539.675136 488.508172 
L 539.707392 492.604192 
L 539.868672 570.252028 
L 539.933184 569.725974 
L 540.255744 569.744165 
L 586.156032 569.765469 
L 586.188288 569.328362 
L 586.2528 555.599073 
L 586.446336 488.954273 
L 586.607616 488.643355 
L 587.155968 488.636595 
L 588.284928 488.636595 
L 588.317184 489.765366 
L 588.381696 513.977165 
L 588.542976 569.742341 
L 589.349376 569.744205 
L 658.151424 569.769247 
L 658.215936 555.865382 
L 658.377216 489.704534 
L 658.50624 488.643355 
L 947.52 488.636595 
L 947.52 488.636595 
" clip-path="url(#p79f77ee63d)" style="fill: none; stroke: #ff00ff; stroke-width: 2; stroke-linecap: square"/>
   </g>
   <g id="patch_28">
    <path d="M 100.8 576.72 
L 100.8 483.988966 
" style="fill: none; stroke: #bcbcbc; stroke-width: 0.8; stroke-linejoin: miter; stroke-linecap: square"/>
   </g>
   <g id="patch_29">
    <path d="M 987.84 576.72 
L 987.84 483.988966 
" style="fill: none; stroke: #bcbcbc; stroke-width: 0.8; stroke-linejoin: miter; stroke-linecap: square"/>
   </g>
   <g id="patch_30">
    <path d="M 100.8 576.72 
L 987.84 576.72 
" style="fill: none; stroke: #bcbcbc; stroke-width: 0.8; stroke-linejoin: miter; stroke-linecap: square"/>
   </g>
   <g id="patch_31">
    <path d="M 100.8 483.988966 
L 987.84 483.988966 
" style="fill: none; stroke: #bcbcbc; stroke-width: 0.8; stroke-linejoin: miter; stroke-linecap: square"/>
   </g>
  </g>
  <g id="axes_6">
   <g id="patch_32">
    <path d="M 201.6 628.56 
L 856.8 628.56 
L 856.8 615.6 
L 201.6 615.6 
z
" clip-path="url(#pa3e131dc73)" style="fill: #d3d3d3"/>
   </g>
   <g id="patch_33">
    <path d="M 201.6 628.56 
L 688.32 628.56 
L 688.32 615.6 
L 201.6 615.6 
z
" clip-path="url(#pa3e131dc73)" style="fill: #0000ff"/>
   </g>
   <g id="line2d_90">
    <path d="M 201.6 635.04 
L 201.6 609.12 
" clip-path="url(#pd4075fcd77)" style="fill: none; stroke: #ff0000; stroke-linecap: square"/>
   </g>
   <g id="line2d_91">
    <defs>
     <path id="mc24211d80a" d="M 0 5 
C 1.326016 5 2.597899 4.473168 3.535534 3.535534 
C 4.473168 2.597899 5 1.326016 5 0 
C 5 -1.326016 4.473168 -2.597899 3.535534 -3.535534 
C 2.597899 -4.473168 1.326016 -5 0 -5 
C -1.326016 -5 -2.597899 -4.473168 -3.535534 -3.535534 
C -4.473168 -2.597899 -5 -1.326016 -5 0 
C -5 1.326016 -4.473168 2.597899 -3.535534 3.535534 
C -2.597899 4.473168 -1.326016 5 0 5 
z
" style="stroke: #bfbfbf"/>
    </defs>
    <g>
     <use xlink:href="#mc24211d80a" x="688.32" y="622.08" style="fill: #ffffff; stroke: #bfbfbf"/>
    </g>
   </g>
   <g id="text_25">
    <!-- #Sweep -->
    <g transform="translate(138.622875 625.39125) scale(0.12 -0.12)">
     <defs>
      <path id="DejaVuSans-23" d="M 3272 2816 
L 2363 2816 
L 2100 1772 
L 3016 1772 
L 3272 2816 
z
M 2803 4594 
L 2478 3297 
L 3391 3297 
L 3719 4594 
L 4219 4594 
L 3897 3297 
L 4872 3297 
L 4872 2816 
L 3775 2816 
L 3519 1772 
L 4513 1772 
L 4513 1294 
L 3397 1294 
L 3072 0 
L 2572 0 
L 2894 1294 
L 1978 1294 
L 1656 0 
L 1153 0 
L 1478 1294 
L 494 1294 
L 494 1772 
L 1594 1772 
L 1856 2816 
L 850 2816 
L 850 3297 
L 1978 3297 
L 2297 4594 
L 2803 4594 
z
" transform="scale(0.015625)"/>
      <path id="DejaVuSans-77" d="M 269 3500 
L 844 3500 
L 1563 769 
L 2278 3500 
L 2956 3500 
L 3675 769 
L 4391 3500 
L 4966 3500 
L 4050 0 
L 3372 0 
L 2619 2869 
L 1863 0 
L 1184 0 
L 269 3500 
z
" transform="scale(0.015625)"/>
      <path id="DejaVuSans-70" d="M 1159 525 
L 1159 -1331 
L 581 -1331 
L 581 3500 
L 1159 3500 
L 1159 2969 
Q 1341 3281 1617 3432 
Q 1894 3584 2278 3584 
Q 2916 3584 3314 3078 
Q 3713 2572 3713 1747 
Q 3713 922 3314 415 
Q 2916 -91 2278 -91 
Q 1894 -91 1617 61 
Q 1341 213 1159 525 
z
M 3116 1747 
Q 3116 2381 2855 2742 
Q 2594 3103 2138 3103 
Q 1681 3103 1420 2742 
Q 1159 2381 1159 1747 
Q 1159 1113 1420 752 
Q 1681 391 2138 391 
Q 2594 391 2855 752 
Q 3116 1113 3116 1747 
z
" transform="scale(0.015625)"/>
     </defs>
     <use xlink:href="#DejaVuSans-23"/>
     <use xlink:href="#DejaVuSans-53" x="83.789062"/>
     <use xlink:href="#DejaVuSans-77" x="147.265625"/>
     <use xlink:href="#DejaVuSans-65" x="229.052734"/>
     <use xlink:href="#DejaVuSans-65" x="290.576172"/>
     <use xlink:href="#DejaVuSans-70" x="352.099609"/>
    </g>
   </g>
   <g id="text_26">
    <!-- $\mathdefault{104}$ -->
    <g transform="translate(869.904 625.39125) scale(0.12 -0.12)">
     <defs>
      <path id="DejaVuSans-34" d="M 2419 4116 
L 825 1625 
L 2419 1625 
L 2419 4116 
z
M 2253 4666 
L 3047 4666 
L 3047 1625 
L 3713 1625 
L 3713 1100 
L 3047 1100 
L 3047 0 
L 2419 0 
L 2419 1100 
L 313 1100 
L 313 1709 
L 2253 4666 
z
" transform="scale(0.015625)"/>
     </defs>
     <use xlink:href="#DejaVuSans-31" transform="translate(0 0.78125)"/>
     <use xlink:href="#DejaVuSans-30" transform="translate(63.623047 0.78125)"/>
     <use xlink:href="#DejaVuSans-34" transform="translate(127.246094 0.78125)"/>
    </g>
   </g>
  </g>
  <g id="text_27">
   <!-- DFF under BBI sweep analysis (Sweep = 114E-9) -->
   <g transform="translate(308.25625 25.1175) scale(0.16 -0.16)">
    <defs>
     <path id="DejaVuSans-75" d="M 544 1381 
L 544 3500 
L 1119 3500 
L 1119 1403 
Q 1119 906 1312 657 
Q 1506 409 1894 409 
Q 2359 409 2629 706 
Q 2900 1003 2900 1516 
L 2900 3500 
L 3475 3500 
L 3475 0 
L 2900 0 
L 2900 538 
Q 2691 219 2414 64 
Q 2138 -91 1772 -91 
Q 1169 -91 856 284 
Q 544 659 544 1381 
z
M 1991 3584 
L 1991 3584 
z
" transform="scale(0.015625)"/>
     <path id="DejaVuSans-64" d="M 2906 2969 
L 2906 4863 
L 3481 4863 
L 3481 0 
L 2906 0 
L 2906 525 
Q 2725 213 2448 61 
Q 2172 -91 1784 -91 
Q 1150 -91 751 415 
Q 353 922 353 1747 
Q 353 2572 751 3078 
Q 1150 3584 1784 3584 
Q 2172 3584 2448 3432 
Q 2725 3281 2906 2969 
z
M 947 1747 
Q 947 1113 1208 752 
Q 1469 391 1925 391 
Q 2381 391 2643 752 
Q 2906 1113 2906 1747 
Q 2906 2381 2643 2742 
Q 2381 3103 1925 3103 
Q 1469 3103 1208 2742 
Q 947 2381 947 1747 
z
" transform="scale(0.015625)"/>
     <path id="DejaVuSans-72" d="M 2631 2963 
Q 2534 3019 2420 3045 
Q 2306 3072 2169 3072 
Q 1681 3072 1420 2755 
Q 1159 2438 1159 1844 
L 1159 0 
L 581 0 
L 581 3500 
L 1159 3500 
L 1159 2956 
Q 1341 3275 1631 3429 
Q 1922 3584 2338 3584 
Q 2397 3584 2469 3576 
Q 2541 3569 2628 3553 
L 2631 2963 
z
" transform="scale(0.015625)"/>
     <path id="DejaVuSans-61" d="M 2194 1759 
Q 1497 1759 1228 1600 
Q 959 1441 959 1056 
Q 959 750 1161 570 
Q 1363 391 1709 391 
Q 2188 391 2477 730 
Q 2766 1069 2766 1631 
L 2766 1759 
L 2194 1759 
z
M 3341 1997 
L 3341 0 
L 2766 0 
L 2766 531 
Q 2569 213 2275 61 
Q 1981 -91 1556 -91 
Q 1019 -91 701 211 
Q 384 513 384 1019 
Q 384 1609 779 1909 
Q 1175 2209 1959 2209 
L 2766 2209 
L 2766 2266 
Q 2766 2663 2505 2880 
Q 2244 3097 1772 3097 
Q 1472 3097 1187 3025 
Q 903 2953 641 2809 
L 641 3341 
Q 956 3463 1253 3523 
Q 1550 3584 1831 3584 
Q 2591 3584 2966 3190 
Q 3341 2797 3341 1997 
z
" transform="scale(0.015625)"/>
     <path id="DejaVuSans-6c" d="M 603 4863 
L 1178 4863 
L 1178 0 
L 603 0 
L 603 4863 
z
" transform="scale(0.015625)"/>
     <path id="DejaVuSans-79" d="M 2059 -325 
Q 1816 -950 1584 -1140 
Q 1353 -1331 966 -1331 
L 506 -1331 
L 506 -850 
L 844 -850 
Q 1081 -850 1212 -737 
Q 1344 -625 1503 -206 
L 1606 56 
L 191 3500 
L 800 3500 
L 1894 763 
L 2988 3500 
L 3597 3500 
L 2059 -325 
z
" transform="scale(0.015625)"/>
     <path id="DejaVuSans-28" d="M 1984 4856 
Q 1566 4138 1362 3434 
Q 1159 2731 1159 2009 
Q 1159 1288 1364 580 
Q 1569 -128 1984 -844 
L 1484 -844 
Q 1016 -109 783 600 
Q 550 1309 550 2009 
Q 550 2706 781 3412 
Q 1013 4119 1484 4856 
L 1984 4856 
z
" transform="scale(0.015625)"/>
     <path id="DejaVuSans-3d" d="M 678 2906 
L 4684 2906 
L 4684 2381 
L 678 2381 
L 678 2906 
z
M 678 1631 
L 4684 1631 
L 4684 1100 
L 678 1100 
L 678 1631 
z
" transform="scale(0.015625)"/>
     <path id="DejaVuSans-2d" d="M 313 2009 
L 1997 2009 
L 1997 1497 
L 313 1497 
L 313 2009 
z
" transform="scale(0.015625)"/>
     <path id="DejaVuSans-39" d="M 703 97 
L 703 672 
Q 941 559 1184 500 
Q 1428 441 1663 441 
Q 2288 441 2617 861 
Q 2947 1281 2994 2138 
Q 2813 1869 2534 1725 
Q 2256 1581 1919 1581 
Q 1219 1581 811 2004 
Q 403 2428 403 3163 
Q 403 3881 828 4315 
Q 1253 4750 1959 4750 
Q 2769 4750 3195 4129 
Q 3622 3509 3622 2328 
Q 3622 1225 3098 567 
Q 2575 -91 1691 -91 
Q 1453 -91 1209 -44 
Q 966 3 703 97 
z
M 1959 2075 
Q 2384 2075 2632 2365 
Q 2881 2656 2881 3163 
Q 2881 3666 2632 3958 
Q 2384 4250 1959 4250 
Q 1534 4250 1286 3958 
Q 1038 3666 1038 3163 
Q 1038 2656 1286 2365 
Q 1534 2075 1959 2075 
z
" transform="scale(0.015625)"/>
     <path id="DejaVuSans-29" d="M 513 4856 
L 1013 4856 
Q 1481 4119 1714 3412 
Q 1947 2706 1947 2009 
Q 1947 1309 1714 600 
Q 1481 -109 1013 -844 
L 513 -844 
Q 928 -128 1133 580 
Q 1338 1288 1338 2009 
Q 1338 2731 1133 3434 
Q 928 4138 513 4856 
z
" transform="scale(0.015625)"/>
    </defs>
    <use xlink:href="#DejaVuSans-44"/>
    <use xlink:href="#DejaVuSans-46" x="77.001953"/>
    <use xlink:href="#DejaVuSans-46" x="134.521484"/>
    <use xlink:href="#DejaVuSans-20" x="192.041016"/>
    <use xlink:href="#DejaVuSans-75" x="223.828125"/>
    <use xlink:href="#DejaVuSans-6e" x="287.207031"/>
    <use xlink:href="#DejaVuSans-64" x="350.585938"/>
    <use xlink:href="#DejaVuSans-65" x="414.0625"/>
    <use xlink:href="#DejaVuSans-72" x="475.585938"/>
    <use xlink:href="#DejaVuSans-20" x="516.699219"/>
    <use xlink:href="#DejaVuSans-42" x="548.486328"/>
    <use xlink:href="#DejaVuSans-42" x="617.089844"/>
    <use xlink:href="#DejaVuSans-49" x="685.693359"/>
    <use xlink:href="#DejaVuSans-20" x="715.185547"/>
    <use xlink:href="#DejaVuSans-73" x="746.972656"/>
    <use xlink:href="#DejaVuSans-77" x="799.072266"/>
    <use xlink:href="#DejaVuSans-65" x="880.859375"/>
    <use xlink:href="#DejaVuSans-65" x="942.382812"/>
    <use xlink:href="#DejaVuSans-70" x="1003.90625"/>
    <use xlink:href="#DejaVuSans-20" x="1067.382812"/>
    <use xlink:href="#DejaVuSans-61" x="1099.169922"/>
    <use xlink:href="#DejaVuSans-6e" x="1160.449219"/>
    <use xlink:href="#DejaVuSans-61" x="1223.828125"/>
    <use xlink:href="#DejaVuSans-6c" x="1285.107422"/>
    <use xlink:href="#DejaVuSans-79" x="1312.890625"/>
    <use xlink:href="#DejaVuSans-73" x="1372.070312"/>
    <use xlink:href="#DejaVuSans-69" x="1424.169922"/>
    <use xlink:href="#DejaVuSans-73" x="1451.953125"/>
    <use xlink:href="#DejaVuSans-20" x="1504.052734"/>
    <use xlink:href="#DejaVuSans-28" x="1535.839844"/>
    <use xlink:href="#DejaVuSans-53" x="1574.853516"/>
    <use xlink:href="#DejaVuSans-77" x="1638.330078"/>
    <use xlink:href="#DejaVuSans-65" x="1720.117188"/>
    <use xlink:href="#DejaVuSans-65" x="1781.640625"/>
    <use xlink:href="#DejaVuSans-70" x="1843.164062"/>
    <use xlink:href="#DejaVuSans-20" x="1906.640625"/>
    <use xlink:href="#DejaVuSans-3d" x="1938.427734"/>
    <use xlink:href="#DejaVuSans-20" x="2022.216797"/>
    <use xlink:href="#DejaVuSans-31" x="2054.003906"/>
    <use xlink:href="#DejaVuSans-31" x="2117.626953"/>
    <use xlink:href="#DejaVuSans-34" x="2181.25"/>
    <use xlink:href="#DejaVuSans-45" x="2244.873047"/>
    <use xlink:href="#DejaVuSans-2d" x="2308.056641"/>
    <use xlink:href="#DejaVuSans-39" x="2344.140625"/>
    <use xlink:href="#DejaVuSans-29" x="2407.763672"/>
   </g>
  </g>
 </g>
 <defs>
  <clipPath id="p49e212b4be">
   <rect x="100.8" y="38.88" width="887.04" height="92.731034"/>
  </clipPath>
  <clipPath id="pbace0d25df">
   <rect x="100.8" y="150.157241" width="887.04" height="92.731034"/>
  </clipPath>
  <clipPath id="pc38eedafba">
   <rect x="100.8" y="261.434483" width="887.04" height="92.731034"/>
  </clipPath>
  <clipPath id="p69ec13810a">
   <rect x="100.8" y="372.711724" width="887.04" height="92.731034"/>
  </clipPath>
  <clipPath id="p79f77ee63d">
   <rect x="100.8" y="483.988966" width="887.04" height="92.731034"/>
  </clipPath>
  <clipPath id="pa3e131dc73">
   <rect x="201.6" y="609.12" width="655.2" height="25.92"/>
  </clipPath>
  <clipPath id="pd4075fcd77">
   <path d="M 201.6 628.56 
L 856.8 628.56 
L 856.8 615.6 
L 201.6 615.6 
z
"/>
  </clipPath>
 </defs>
</svg>
