<?xml version="1.0" encoding="utf-8" standalone="no"?>
<!DOCTYPE svg PUBLIC "-//W3C//DTD SVG 1.1//EN"
  "http://www.w3.org/Graphics/SVG/1.1/DTD/svg11.dtd">
<svg xmlns:xlink="http://www.w3.org/1999/xlink" width="1008pt" height="648pt" viewBox="0 0 1008 648" xmlns="http://www.w3.org/2000/svg" version="1.1">
 <metadata>
  <rdf:RDF xmlns:dc="http://purl.org/dc/elements/1.1/" xmlns:cc="http://creativecommons.org/ns#" xmlns:rdf="http://www.w3.org/1999/02/22-rdf-syntax-ns#">
   <cc:Work>
    <dc:type rdf:resource="http://purl.org/dc/dcmitype/StillImage"/>
    <dc:date>2024-06-03T10:45:58.091550</dc:date>
    <dc:format>image/svg+xml</dc:format>
    <dc:creator>
     <cc:Agent>
      <dc:title>Matplotlib v3.9.0, https://matplotlib.org/</dc:title>
     </cc:Agent>
    </dc:creator>
   </cc:Work>
  </rdf:RDF>
 </metadata>
 <defs>
  <style type="text/css">*{stroke-linejoin: round; stroke-linecap: butt}</style>
 </defs>
 <g id="figure_1">
  <g id="patch_1">
   <path d="M 0 648 
L 1008 648 
L 1008 0 
L 0 0 
z
" style="fill: #ffffff"/>
  </g>
  <g id="axes_1">
   <g id="patch_2">
    <path d="M 100.8 131.611034 
L 987.84 131.611034 
L 987.84 38.88 
L 100.8 38.88 
z
" style="fill: #eeeeee"/>
   </g>
   <g id="matplotlib.axis_1">
    <g id="xtick_1">
     <g id="line2d_1">
      <path d="M 141.12 131.611034 
L 141.12 38.88 
" clip-path="url(#pe1d059ff82)" style="fill: none; stroke-dasharray: 1.85,0.8; stroke-dashoffset: 0; stroke: #b2b2b2; stroke-width: 0.5"/>
     </g>
     <g id="line2d_2">
      <defs>
       <path id="maa05ab9211" d="M 0 0 
L 0 -3.5 
" style="stroke: #000000; stroke-width: 0.8"/>
      </defs>
      <g>
       <use xlink:href="#maa05ab9211" x="141.12" y="131.611034" style="stroke: #000000; stroke-width: 0.8"/>
      </g>
     </g>
    </g>
    <g id="xtick_2">
     <g id="line2d_3">
      <path d="M 302.4 131.611034 
L 302.4 38.88 
" clip-path="url(#pe1d059ff82)" style="fill: none; stroke-dasharray: 1.85,0.8; stroke-dashoffset: 0; stroke: #b2b2b2; stroke-width: 0.5"/>
     </g>
     <g id="line2d_4">
      <g>
       <use xlink:href="#maa05ab9211" x="302.4" y="131.611034" style="stroke: #000000; stroke-width: 0.8"/>
      </g>
     </g>
    </g>
    <g id="xtick_3">
     <g id="line2d_5">
      <path d="M 463.68 131.611034 
L 463.68 38.88 
" clip-path="url(#pe1d059ff82)" style="fill: none; stroke-dasharray: 1.85,0.8; stroke-dashoffset: 0; stroke: #b2b2b2; stroke-width: 0.5"/>
     </g>
     <g id="line2d_6">
      <g>
       <use xlink:href="#maa05ab9211" x="463.68" y="131.611034" style="stroke: #000000; stroke-width: 0.8"/>
      </g>
     </g>
    </g>
    <g id="xtick_4">
     <g id="line2d_7">
      <path d="M 624.96 131.611034 
L 624.96 38.88 
" clip-path="url(#pe1d059ff82)" style="fill: none; stroke-dasharray: 1.85,0.8; stroke-dashoffset: 0; stroke: #b2b2b2; stroke-width: 0.5"/>
     </g>
     <g id="line2d_8">
      <g>
       <use xlink:href="#maa05ab9211" x="624.96" y="131.611034" style="stroke: #000000; stroke-width: 0.8"/>
      </g>
     </g>
    </g>
    <g id="xtick_5">
     <g id="line2d_9">
      <path d="M 786.24 131.611034 
L 786.24 38.88 
" clip-path="url(#pe1d059ff82)" style="fill: none; stroke-dasharray: 1.85,0.8; stroke-dashoffset: 0; stroke: #b2b2b2; stroke-width: 0.5"/>
     </g>
     <g id="line2d_10">
      <g>
       <use xlink:href="#maa05ab9211" x="786.24" y="131.611034" style="stroke: #000000; stroke-width: 0.8"/>
      </g>
     </g>
    </g>
    <g id="xtick_6">
     <g id="line2d_11">
      <path d="M 947.52 131.611034 
L 947.52 38.88 
" clip-path="url(#pe1d059ff82)" style="fill: none; stroke-dasharray: 1.85,0.8; stroke-dashoffset: 0; stroke: #b2b2b2; stroke-width: 0.5"/>
     </g>
     <g id="line2d_12">
      <g>
       <use xlink:href="#maa05ab9211" x="947.52" y="131.611034" style="stroke: #000000; stroke-width: 0.8"/>
      </g>
     </g>
    </g>
   </g>
   <g id="matplotlib.axis_2">
    <g id="ytick_1">
     <g id="line2d_13">
      <path d="M 100.8 98.340394 
L 987.84 98.340394 
" clip-path="url(#pe1d059ff82)" style="fill: none; stroke-dasharray: 1.85,0.8; stroke-dashoffset: 0; stroke: #b2b2b2; stroke-width: 0.5"/>
     </g>
     <g id="line2d_14">
      <defs>
       <path id="mc639c33fba" d="M 0 0 
L 3.5 0 
" style="stroke: #000000; stroke-width: 0.8"/>
      </defs>
      <g>
       <use xlink:href="#mc639c33fba" x="100.8" y="98.340394" style="stroke: #000000; stroke-width: 0.8"/>
      </g>
     </g>
     <g id="text_1">
      <!-- −200 V -->
      <g transform="translate(44.819688 103.6593) scale(0.14 -0.14)">
       <defs>
        <path id="DejaVuSans-2212" d="M 678 2272 
L 4684 2272 
L 4684 1741 
L 678 1741 
L 678 2272 
z
" transform="scale(0.015625)"/>
        <path id="DejaVuSans-32" d="M 1228 531 
L 3431 531 
L 3431 0 
L 469 0 
L 469 531 
Q 828 903 1448 1529 
Q 2069 2156 2228 2338 
Q 2531 2678 2651 2914 
Q 2772 3150 2772 3378 
Q 2772 3750 2511 3984 
Q 2250 4219 1831 4219 
Q 1534 4219 1204 4116 
Q 875 4013 500 3803 
L 500 4441 
Q 881 4594 1212 4672 
Q 1544 4750 1819 4750 
Q 2544 4750 2975 4387 
Q 3406 4025 3406 3419 
Q 3406 3131 3298 2873 
Q 3191 2616 2906 2266 
Q 2828 2175 2409 1742 
Q 1991 1309 1228 531 
z
" transform="scale(0.015625)"/>
        <path id="DejaVuSans-30" d="M 2034 4250 
Q 1547 4250 1301 3770 
Q 1056 3291 1056 2328 
Q 1056 1369 1301 889 
Q 1547 409 2034 409 
Q 2525 409 2770 889 
Q 3016 1369 3016 2328 
Q 3016 3291 2770 3770 
Q 2525 4250 2034 4250 
z
M 2034 4750 
Q 2819 4750 3233 4129 
Q 3647 3509 3647 2328 
Q 3647 1150 3233 529 
Q 2819 -91 2034 -91 
Q 1250 -91 836 529 
Q 422 1150 422 2328 
Q 422 3509 836 4129 
Q 1250 4750 2034 4750 
z
" transform="scale(0.015625)"/>
        <path id="DejaVuSans-20" transform="scale(0.015625)"/>
        <path id="DejaVuSans-56" d="M 1831 0 
L 50 4666 
L 709 4666 
L 2188 738 
L 3669 4666 
L 4325 4666 
L 2547 0 
L 1831 0 
z
" transform="scale(0.015625)"/>
       </defs>
       <use xlink:href="#DejaVuSans-2212"/>
       <use xlink:href="#DejaVuSans-32" x="83.789062"/>
       <use xlink:href="#DejaVuSans-30" x="147.412109"/>
       <use xlink:href="#DejaVuSans-30" x="211.035156"/>
       <use xlink:href="#DejaVuSans-20" x="274.658203"/>
       <use xlink:href="#DejaVuSans-56" x="306.445312"/>
      </g>
     </g>
    </g>
    <g id="ytick_2">
     <g id="line2d_15">
      <path d="M 100.8 45.027377 
L 987.84 45.027377 
" clip-path="url(#pe1d059ff82)" style="fill: none; stroke-dasharray: 1.85,0.8; stroke-dashoffset: 0; stroke: #b2b2b2; stroke-width: 0.5"/>
     </g>
     <g id="line2d_16">
      <g>
       <use xlink:href="#mc639c33fba" x="100.8" y="45.027377" style="stroke: #000000; stroke-width: 0.8"/>
      </g>
     </g>
     <g id="text_2">
      <!-- 0 V -->
      <g transform="translate(74.36625 50.346284) scale(0.14 -0.14)">
       <use xlink:href="#DejaVuSans-30"/>
       <use xlink:href="#DejaVuSans-20" x="63.623047"/>
       <use xlink:href="#DejaVuSans-56" x="95.410156"/>
      </g>
     </g>
    </g>
    <g id="text_3">
     <g id="patch_3">
      <path d="M 34.8768 131.080205 
L 34.8768 39.41083 
L 11.247425 39.41083 
L 11.247425 131.080205 
z
" style="fill: #ffff00; opacity: 0.2; stroke: #eeeeee; stroke-width: 0.5; stroke-linejoin: miter"/>
     </g>
     <!-- VPULSE BBI -->
     <g transform="translate(26.925238 126.040205) rotate(-90) scale(0.14 -0.14)">
      <defs>
       <path id="DejaVuSans-50" d="M 1259 4147 
L 1259 2394 
L 2053 2394 
Q 2494 2394 2734 2622 
Q 2975 2850 2975 3272 
Q 2975 3691 2734 3919 
Q 2494 4147 2053 4147 
L 1259 4147 
z
M 628 4666 
L 2053 4666 
Q 2838 4666 3239 4311 
Q 3641 3956 3641 3272 
Q 3641 2581 3239 2228 
Q 2838 1875 2053 1875 
L 1259 1875 
L 1259 0 
L 628 0 
L 628 4666 
z
" transform="scale(0.015625)"/>
       <path id="DejaVuSans-55" d="M 556 4666 
L 1191 4666 
L 1191 1831 
Q 1191 1081 1462 751 
Q 1734 422 2344 422 
Q 2950 422 3222 751 
Q 3494 1081 3494 1831 
L 3494 4666 
L 4128 4666 
L 4128 1753 
Q 4128 841 3676 375 
Q 3225 -91 2344 -91 
Q 1459 -91 1007 375 
Q 556 841 556 1753 
L 556 4666 
z
" transform="scale(0.015625)"/>
       <path id="DejaVuSans-4c" d="M 628 4666 
L 1259 4666 
L 1259 531 
L 3531 531 
L 3531 0 
L 628 0 
L 628 4666 
z
" transform="scale(0.015625)"/>
       <path id="DejaVuSans-53" d="M 3425 4513 
L 3425 3897 
Q 3066 4069 2747 4153 
Q 2428 4238 2131 4238 
Q 1616 4238 1336 4038 
Q 1056 3838 1056 3469 
Q 1056 3159 1242 3001 
Q 1428 2844 1947 2747 
L 2328 2669 
Q 3034 2534 3370 2195 
Q 3706 1856 3706 1288 
Q 3706 609 3251 259 
Q 2797 -91 1919 -91 
Q 1588 -91 1214 -16 
Q 841 59 441 206 
L 441 856 
Q 825 641 1194 531 
Q 1563 422 1919 422 
Q 2459 422 2753 634 
Q 3047 847 3047 1241 
Q 3047 1584 2836 1778 
Q 2625 1972 2144 2069 
L 1759 2144 
Q 1053 2284 737 2584 
Q 422 2884 422 3419 
Q 422 4038 858 4394 
Q 1294 4750 2059 4750 
Q 2388 4750 2728 4690 
Q 3069 4631 3425 4513 
z
" transform="scale(0.015625)"/>
       <path id="DejaVuSans-45" d="M 628 4666 
L 3578 4666 
L 3578 4134 
L 1259 4134 
L 1259 2753 
L 3481 2753 
L 3481 2222 
L 1259 2222 
L 1259 531 
L 3634 531 
L 3634 0 
L 628 0 
L 628 4666 
z
" transform="scale(0.015625)"/>
       <path id="DejaVuSans-42" d="M 1259 2228 
L 1259 519 
L 2272 519 
Q 2781 519 3026 730 
Q 3272 941 3272 1375 
Q 3272 1813 3026 2020 
Q 2781 2228 2272 2228 
L 1259 2228 
z
M 1259 4147 
L 1259 2741 
L 2194 2741 
Q 2656 2741 2882 2914 
Q 3109 3088 3109 3444 
Q 3109 3797 2882 3972 
Q 2656 4147 2194 4147 
L 1259 4147 
z
M 628 4666 
L 2241 4666 
Q 2963 4666 3353 4366 
Q 3744 4066 3744 3513 
Q 3744 3084 3544 2831 
Q 3344 2578 2956 2516 
Q 3422 2416 3680 2098 
Q 3938 1781 3938 1306 
Q 3938 681 3513 340 
Q 3088 0 2303 0 
L 628 0 
L 628 4666 
z
" transform="scale(0.015625)"/>
       <path id="DejaVuSans-49" d="M 628 4666 
L 1259 4666 
L 1259 0 
L 628 0 
L 628 4666 
z
" transform="scale(0.015625)"/>
      </defs>
      <use xlink:href="#DejaVuSans-56"/>
      <use xlink:href="#DejaVuSans-50" x="68.408203"/>
      <use xlink:href="#DejaVuSans-55" x="128.710938"/>
      <use xlink:href="#DejaVuSans-4c" x="201.904297"/>
      <use xlink:href="#DejaVuSans-53" x="257.617188"/>
      <use xlink:href="#DejaVuSans-45" x="321.09375"/>
      <use xlink:href="#DejaVuSans-20" x="384.277344"/>
      <use xlink:href="#DejaVuSans-42" x="416.064453"/>
      <use xlink:href="#DejaVuSans-42" x="484.667969"/>
      <use xlink:href="#DejaVuSans-49" x="553.271484"/>
     </g>
    </g>
   </g>
   <g id="line2d_17">
    <path d="M 141.12 45.027377 
L 615.315456 45.136282 
L 615.799296 46.425538 
L 624.024576 69.006772 
L 631.443456 89.863624 
L 633.056256 94.440546 
L 634.862592 99.673219 
L 638.34624 110.807642 
L 639.926784 115.853719 
L 641.217024 119.585631 
L 641.668608 119.80688 
L 642.733056 120.297359 
L 643.216896 120.526605 
L 644.281344 121.017085 
L 644.861952 121.272988 
L 645.732864 121.656841 
L 646.313472 121.912744 
L 647.152128 122.269941 
L 648.732672 122.936354 
L 649.377792 123.202919 
L 650.474496 123.629423 
L 651.216384 123.922644 
L 652.313088 124.349149 
L 653.216256 124.677024 
L 653.893632 124.943589 
L 654.700032 125.25547 
L 656.054784 125.804594 
L 658.699776 126.790885 
L 659.31264 127.022796 
L 661.248 127.395987 
L 679.730688 127.289361 
L 679.95648 126.801547 
L 698.245632 75.087922 
L 701.987328 63.292417 
L 705.696768 51.617666 
L 710.309376 49.3412 
L 715.663872 46.984578 
L 724.372992 43.484472 
L 725.243904 43.268927 
L 739.533312 43.108189 
L 746.339328 43.184799 
L 761.693184 43.746186 
L 789.4656 44.46146 
L 815.10912 44.774399 
L 850.719744 44.945888 
L 898.748928 44.953885 
L 947.52 44.953885 
L 947.52 44.953885 
" clip-path="url(#pe1d059ff82)" style="fill: none; stroke: #ff0000; stroke-width: 2; stroke-linecap: square"/>
   </g>
   <g id="patch_4">
    <path d="M 100.8 131.611034 
L 100.8 38.88 
" style="fill: none; stroke: #bcbcbc; stroke-width: 0.8; stroke-linejoin: miter; stroke-linecap: square"/>
   </g>
   <g id="patch_5">
    <path d="M 987.84 131.611034 
L 987.84 38.88 
" style="fill: none; stroke: #bcbcbc; stroke-width: 0.8; stroke-linejoin: miter; stroke-linecap: square"/>
   </g>
   <g id="patch_6">
    <path d="M 100.8 131.611034 
L 987.84 131.611034 
" style="fill: none; stroke: #bcbcbc; stroke-width: 0.8; stroke-linejoin: miter; stroke-linecap: square"/>
   </g>
   <g id="patch_7">
    <path d="M 100.8 38.88 
L 987.84 38.88 
" style="fill: none; stroke: #bcbcbc; stroke-width: 0.8; stroke-linejoin: miter; stroke-linecap: square"/>
   </g>
  </g>
  <g id="axes_2">
   <g id="patch_8">
    <path d="M 100.8 242.888276 
L 987.84 242.888276 
L 987.84 150.157241 
L 100.8 150.157241 
z
" style="fill: #eeeeee"/>
   </g>
   <g id="matplotlib.axis_3">
    <g id="xtick_7">
     <g id="line2d_18">
      <path d="M 141.12 242.888276 
L 141.12 150.157241 
" clip-path="url(#peb62fddfd4)" style="fill: none; stroke-dasharray: 1.85,0.8; stroke-dashoffset: 0; stroke: #b2b2b2; stroke-width: 0.5"/>
     </g>
     <g id="line2d_19">
      <g>
       <use xlink:href="#maa05ab9211" x="141.12" y="242.888276" style="stroke: #000000; stroke-width: 0.8"/>
      </g>
     </g>
    </g>
    <g id="xtick_8">
     <g id="line2d_20">
      <path d="M 302.4 242.888276 
L 302.4 150.157241 
" clip-path="url(#peb62fddfd4)" style="fill: none; stroke-dasharray: 1.85,0.8; stroke-dashoffset: 0; stroke: #b2b2b2; stroke-width: 0.5"/>
     </g>
     <g id="line2d_21">
      <g>
       <use xlink:href="#maa05ab9211" x="302.4" y="242.888276" style="stroke: #000000; stroke-width: 0.8"/>
      </g>
     </g>
    </g>
    <g id="xtick_9">
     <g id="line2d_22">
      <path d="M 463.68 242.888276 
L 463.68 150.157241 
" clip-path="url(#peb62fddfd4)" style="fill: none; stroke-dasharray: 1.85,0.8; stroke-dashoffset: 0; stroke: #b2b2b2; stroke-width: 0.5"/>
     </g>
     <g id="line2d_23">
      <g>
       <use xlink:href="#maa05ab9211" x="463.68" y="242.888276" style="stroke: #000000; stroke-width: 0.8"/>
      </g>
     </g>
    </g>
    <g id="xtick_10">
     <g id="line2d_24">
      <path d="M 624.96 242.888276 
L 624.96 150.157241 
" clip-path="url(#peb62fddfd4)" style="fill: none; stroke-dasharray: 1.85,0.8; stroke-dashoffset: 0; stroke: #b2b2b2; stroke-width: 0.5"/>
     </g>
     <g id="line2d_25">
      <g>
       <use xlink:href="#maa05ab9211" x="624.96" y="242.888276" style="stroke: #000000; stroke-width: 0.8"/>
      </g>
     </g>
    </g>
    <g id="xtick_11">
     <g id="line2d_26">
      <path d="M 786.24 242.888276 
L 786.24 150.157241 
" clip-path="url(#peb62fddfd4)" style="fill: none; stroke-dasharray: 1.85,0.8; stroke-dashoffset: 0; stroke: #b2b2b2; stroke-width: 0.5"/>
     </g>
     <g id="line2d_27">
      <g>
       <use xlink:href="#maa05ab9211" x="786.24" y="242.888276" style="stroke: #000000; stroke-width: 0.8"/>
      </g>
     </g>
    </g>
    <g id="xtick_12">
     <g id="line2d_28">
      <path d="M 947.52 242.888276 
L 947.52 150.157241 
" clip-path="url(#peb62fddfd4)" style="fill: none; stroke-dasharray: 1.85,0.8; stroke-dashoffset: 0; stroke: #b2b2b2; stroke-width: 0.5"/>
     </g>
     <g id="line2d_29">
      <g>
       <use xlink:href="#maa05ab9211" x="947.52" y="242.888276" style="stroke: #000000; stroke-width: 0.8"/>
      </g>
     </g>
    </g>
   </g>
   <g id="matplotlib.axis_4">
    <g id="ytick_3">
     <g id="line2d_30">
      <path d="M 100.8 219.151863 
L 987.84 219.151863 
" clip-path="url(#peb62fddfd4)" style="fill: none; stroke-dasharray: 1.85,0.8; stroke-dashoffset: 0; stroke: #b2b2b2; stroke-width: 0.5"/>
     </g>
     <g id="line2d_31">
      <g>
       <use xlink:href="#mc639c33fba" x="100.8" y="219.151863" style="stroke: #000000; stroke-width: 0.8"/>
      </g>
     </g>
     <g id="text_4">
      <!-- 0 V -->
      <g transform="translate(74.36625 224.470769) scale(0.14 -0.14)">
       <use xlink:href="#DejaVuSans-30"/>
       <use xlink:href="#DejaVuSans-20" x="63.623047"/>
       <use xlink:href="#DejaVuSans-56" x="95.410156"/>
      </g>
     </g>
    </g>
    <g id="ytick_4">
     <g id="line2d_32">
      <path d="M 100.8 185.10752 
L 987.84 185.10752 
" clip-path="url(#peb62fddfd4)" style="fill: none; stroke-dasharray: 1.85,0.8; stroke-dashoffset: 0; stroke: #b2b2b2; stroke-width: 0.5"/>
     </g>
     <g id="line2d_33">
      <g>
       <use xlink:href="#mc639c33fba" x="100.8" y="185.10752" style="stroke: #000000; stroke-width: 0.8"/>
      </g>
     </g>
     <g id="text_5">
      <!-- 1 V -->
      <g transform="translate(74.36625 190.426427) scale(0.14 -0.14)">
       <defs>
        <path id="DejaVuSans-31" d="M 794 531 
L 1825 531 
L 1825 4091 
L 703 3866 
L 703 4441 
L 1819 4666 
L 2450 4666 
L 2450 531 
L 3481 531 
L 3481 0 
L 794 0 
L 794 531 
z
" transform="scale(0.015625)"/>
       </defs>
       <use xlink:href="#DejaVuSans-31"/>
       <use xlink:href="#DejaVuSans-20" x="63.623047"/>
       <use xlink:href="#DejaVuSans-56" x="95.410156"/>
      </g>
     </g>
    </g>
    <g id="ytick_5">
     <g id="line2d_34">
      <path d="M 100.8 151.063178 
L 987.84 151.063178 
" clip-path="url(#peb62fddfd4)" style="fill: none; stroke-dasharray: 1.85,0.8; stroke-dashoffset: 0; stroke: #b2b2b2; stroke-width: 0.5"/>
     </g>
     <g id="line2d_35">
      <g>
       <use xlink:href="#mc639c33fba" x="100.8" y="151.063178" style="stroke: #000000; stroke-width: 0.8"/>
      </g>
     </g>
     <g id="text_6">
      <!-- 2 V -->
      <g transform="translate(74.36625 156.382085) scale(0.14 -0.14)">
       <use xlink:href="#DejaVuSans-32"/>
       <use xlink:href="#DejaVuSans-20" x="63.623047"/>
       <use xlink:href="#DejaVuSans-56" x="95.410156"/>
      </g>
     </g>
    </g>
    <g id="text_7">
     <g id="patch_9">
      <path d="M 34.8768 224.531509 
L 34.8768 168.514009 
L 11.247425 168.514009 
L 11.247425 224.531509 
z
" style="fill: #ffff00; opacity: 0.2; stroke: #eeeeee; stroke-width: 0.5; stroke-linejoin: miter"/>
     </g>
     <!-- DFF IN -->
     <g transform="translate(26.925238 219.491509) rotate(-90) scale(0.14 -0.14)">
      <defs>
       <path id="DejaVuSans-44" d="M 1259 4147 
L 1259 519 
L 2022 519 
Q 2988 519 3436 956 
Q 3884 1394 3884 2338 
Q 3884 3275 3436 3711 
Q 2988 4147 2022 4147 
L 1259 4147 
z
M 628 4666 
L 1925 4666 
Q 3281 4666 3915 4102 
Q 4550 3538 4550 2338 
Q 4550 1131 3912 565 
Q 3275 0 1925 0 
L 628 0 
L 628 4666 
z
" transform="scale(0.015625)"/>
       <path id="DejaVuSans-46" d="M 628 4666 
L 3309 4666 
L 3309 4134 
L 1259 4134 
L 1259 2759 
L 3109 2759 
L 3109 2228 
L 1259 2228 
L 1259 0 
L 628 0 
L 628 4666 
z
" transform="scale(0.015625)"/>
       <path id="DejaVuSans-4e" d="M 628 4666 
L 1478 4666 
L 3547 763 
L 3547 4666 
L 4159 4666 
L 4159 0 
L 3309 0 
L 1241 3903 
L 1241 0 
L 628 0 
L 628 4666 
z
" transform="scale(0.015625)"/>
      </defs>
      <use xlink:href="#DejaVuSans-44"/>
      <use xlink:href="#DejaVuSans-46" x="77.001953"/>
      <use xlink:href="#DejaVuSans-46" x="134.521484"/>
      <use xlink:href="#DejaVuSans-20" x="192.041016"/>
      <use xlink:href="#DejaVuSans-49" x="223.828125"/>
      <use xlink:href="#DejaVuSans-4e" x="253.320312"/>
     </g>
    </g>
   </g>
   <g id="line2d_36">
    <path d="M 141.12 219.102144 
L 221.953536 219.055459 
L 224.437248 200.08635 
L 225.404928 194.315834 
L 228.243456 181.628189 
L 229.598208 180.35493 
L 231.178752 179.479991 
L 236.533248 179.023797 
L 243.5328 178.914855 
L 244.952064 178.874001 
L 248.145408 178.76506 
L 249.790464 178.700375 
L 251.887104 178.591433 
L 254.241792 178.244181 
L 254.757888 177.706281 
L 255.499776 177.365837 
L 256.338432 177.379455 
L 259.789824 177.995657 
L 262.467072 178.169284 
L 263.886336 178.216946 
L 264.144384 183.466583 
L 264.434688 187.038516 
L 265.176576 191.796893 
L 267.144192 209.165295 
L 268.402176 215.686489 
L 269.047296 216.972208 
L 270.46656 218.738428 
L 273.724416 219.153701 
L 282.530304 219.106192 
L 297.013248 219.096438 
L 305.754624 219.1013 
L 347.751936 219.057158 
L 350.235648 200.126522 
L 351.622656 191.471429 
L 352.654848 186.169364 
L 354.97728 179.159974 
L 358.493184 178.15907 
L 360.202752 178.230563 
L 363.009024 178.339505 
L 364.33152 178.370145 
L 375.169536 178.441638 
L 375.717888 179.435733 
L 376.169472 180.188113 
L 377.008128 181.097097 
L 377.524224 181.04603 
L 378.427392 180.753249 
L 380.427264 179.612764 
L 381.58848 179.238276 
L 387.168768 178.758251 
L 389.587968 178.649309 
L 391.684608 178.536962 
L 394.232832 178.428021 
L 395.61984 178.390572 
L 415.360512 178.305461 
L 416.489472 177.372646 
L 417.037824 177.307962 
L 417.908736 177.416904 
L 419.16672 177.699472 
L 420.908544 177.954804 
L 423.940608 178.165879 
L 455.712768 178.271417 
L 456.809472 179.163378 
L 457.261056 179.234871 
L 458.68032 179.279129 
L 462.680064 178.748037 
L 464.131584 178.553985 
L 467.486208 178.308865 
L 496.065024 178.227159 
L 496.58112 177.685854 
L 497.258496 177.379455 
L 498.3552 177.365837 
L 502.06464 178.036511 
L 504.193536 178.152261 
L 536.320512 178.254394 
L 536.481792 178.431425 
L 536.965632 178.921664 
L 537.610752 179.204232 
L 539.32032 179.279129 
L 544.352256 178.639095 
L 545.545728 178.499514 
L 548.771328 178.268012 
L 576.73728 178.182901 
L 577.22112 177.685854 
L 577.898496 177.379455 
L 578.9952 177.365837 
L 582.70464 178.036511 
L 584.833536 178.152261 
L 615.218688 178.257799 
L 615.412224 178.431425 
L 616.0896 179.789794 
L 618.541056 184.464082 
L 619.508736 185.603887 
L 621.831168 188.13985 
L 624.056832 191.032598 
L 624.605184 192.060737 
L 625.153536 193.824915 
L 627.3792 202.280508 
L 629.024256 209.956826 
L 630.12096 213.966569 
L 630.314496 214.672989 
L 631.217664 218.032825 
L 632.636928 222.787798 
L 632.927232 223.309698 
L 633.217536 223.816959 
L 633.572352 224.989106 
L 634.056192 225.912729 
L 634.507776 226.364156 
L 634.701312 226.790732 
L 635.152896 228.022456 
L 635.60448 228.858926 
L 635.701248 228.951526 
L 636.056064 229.780506 
L 636.765696 231.187559 
L 637.507584 232.637167 
L 637.8624 233.257795 
L 638.152704 233.727607 
L 638.50752 234.233166 
L 640.733184 238.216354 
L 640.894464 238.40564 
L 641.120256 238.673229 
L 641.507328 238.514242 
L 641.73312 238.19048 
L 642.152448 237.639983 
L 642.442752 237.032292 
L 642.765312 236.401109 
L 642.86208 236.345277 
L 643.087872 236.044325 
L 643.700736 235.455017 
L 644.087808 234.810898 
L 644.410368 234.301935 
L 644.732928 234.062263 
L 644.926464 233.938342 
L 645.861888 233.191068 
L 646.57152 232.176887 
L 646.958592 231.750993 
L 647.248896 231.609368 
L 647.345664 231.546046 
L 647.603712 231.331907 
L 647.894016 231.258371 
L 648.377856 230.880479 
L 649.119744 230.062393 
L 649.539072 229.39955 
L 649.893888 229.182688 
L 650.022912 229.206519 
L 650.248704 229.049915 
L 651.958272 227.732399 
L 652.571136 226.807754 
L 652.829184 226.751922 
L 653.087232 226.68962 
L 653.538816 226.442458 
L 655.054848 225.252268 
L 655.828992 224.367796 
L 657.37728 223.484005 
L 659.667456 221.695145 
L 660.860928 220.607258 
L 661.73184 219.524818 
L 663.054336 217.669504 
L 663.796224 216.600239 
L 664.79616 215.229614 
L 668.408832 210.758571 
L 669.47328 209.66064 
L 669.79584 208.97703 
L 671.150592 204.883538 
L 671.56992 203.724669 
L 672.569856 201.405228 
L 673.634304 199.684967 
L 674.31168 198.695639 
L 675.569664 197.09964 
L 676.24704 196.214147 
L 676.89216 195.529515 
L 678.214656 193.939304 
L 679.31136 192.865545 
L 679.924224 191.964051 
L 680.44032 190.181489 
L 681.698304 185.809174 
L 682.601472 183.595952 
L 683.407872 182.142258 
L 684.246528 181.178803 
L 686.665728 178.73442 
L 689.342976 174.873791 
L 691.56864 171.551063 
L 692.633088 170.029281 
L 694.761984 167.077637 
L 695.9232 165.586495 
L 696.181248 165.194985 
L 697.600512 163.383826 
L 697.69728 163.577879 
L 698.600448 165.732885 
L 699.019776 165.909916 
L 699.277824 165.814592 
L 699.729408 165.34478 
L 700.374528 164.119184 
L 702.890496 158.287388 
L 704.051712 156.431971 
L 705.535488 154.433568 
L 705.76128 154.409737 
L 707.664384 154.699114 
L 710.59968 155.117859 
L 713.115648 155.761298 
L 714.889728 156.207278 
L 716.212224 156.59198 
L 716.825088 156.796246 
L 725.405184 159.621926 
L 725.953536 159.894281 
L 727.759872 160.728367 
L 728.598528 161.109664 
L 737.920512 164.970292 
L 738.565632 164.071521 
L 738.952704 163.983006 
L 739.533312 164.211103 
L 740.11392 164.636658 
L 741.662208 165.800974 
L 743.049216 166.54995 
L 744.210432 167.043593 
L 744.758784 167.27169 
L 746.694144 167.969599 
L 752.177664 169.590109 
L 754.887168 170.274401 
L 755.564544 170.448027 
L 756.08064 170.556969 
L 756.693504 170.699955 
L 766.467072 172.650696 
L 766.854144 172.71538 
L 768.466944 172.994544 
L 770.499072 173.311156 
L 772.85376 173.668622 
L 774.402048 173.883101 
L 775.208448 173.992043 
L 776.659968 174.186096 
L 777.563136 174.295037 
L 778.369536 174.570797 
L 778.788864 175.173381 
L 779.240448 175.500207 
L 779.659776 175.643193 
L 780.5952 175.643193 
L 782.69184 175.095079 
L 783.433728 175.044013 
L 784.756224 175.074653 
L 786.175488 175.183595 
L 786.659328 175.227852 
L 788.01408 175.336794 
L 788.530176 175.387861 
L 789.110784 175.435523 
L 790.368768 175.544465 
L 794.14272 175.833842 
L 794.62656 175.881504 
L 795.142656 175.93257 
L 796.852224 176.041512 
L 799.561728 176.218543 
L 801.271296 176.32408 
L 802.04544 176.375147 
L 804.109824 176.484089 
L 806.045184 176.593031 
L 808.33536 176.725803 
L 809.077248 176.753039 
L 810.91584 176.841554 
L 811.689984 176.86879 
L 813.98016 176.977732 
L 815.657472 177.04582 
L 818.237952 177.154762 
L 818.592768 177.134336 
L 819.076608 176.572604 
L 819.979776 176.218543 
L 820.495872 176.269609 
L 821.23776 176.456853 
L 822.011904 176.664524 
L 825.140736 177.212638 
L 827.817984 177.386264 
L 830.301696 177.491801 
L 830.882304 177.505419 
L 834.882048 177.614361 
L 835.4304 177.62117 
L 841.268736 177.726707 
L 841.8816 177.743729 
L 842.978304 177.750538 
L 849.494016 177.856076 
L 850.010112 177.852671 
L 858.945024 177.954804 
L 859.46112 178.51994 
L 860.041728 178.816126 
L 860.848128 178.962517 
L 863.847936 178.536962 
L 866.138112 178.162475 
L 868.718592 178.053533 
L 870.073344 178.019488 
L 899.232768 177.927569 
L 899.748864 177.352219 
L 900.361728 177.032203 
L 901.5552 177.01518 
L 905.522688 177.740325 
L 907.2 177.808414 
L 939.520512 177.917355 
L 939.681792 178.101195 
L 940.165632 178.588029 
L 940.649472 178.809317 
L 941.55264 178.986348 
L 943.423488 178.88081 
L 946.39104 178.366741 
L 947.52 178.18971 
L 947.52 178.18971 
" clip-path="url(#peb62fddfd4)" style="fill: none; stroke: #008000; stroke-width: 2; stroke-linecap: square"/>
   </g>
   <g id="patch_10">
    <path d="M 100.8 242.888276 
L 100.8 150.157241 
" style="fill: none; stroke: #bcbcbc; stroke-width: 0.8; stroke-linejoin: miter; stroke-linecap: square"/>
   </g>
   <g id="patch_11">
    <path d="M 987.84 242.888276 
L 987.84 150.157241 
" style="fill: none; stroke: #bcbcbc; stroke-width: 0.8; stroke-linejoin: miter; stroke-linecap: square"/>
   </g>
   <g id="patch_12">
    <path d="M 100.8 242.888276 
L 987.84 242.888276 
" style="fill: none; stroke: #bcbcbc; stroke-width: 0.8; stroke-linejoin: miter; stroke-linecap: square"/>
   </g>
   <g id="patch_13">
    <path d="M 100.8 150.157241 
L 987.84 150.157241 
" style="fill: none; stroke: #bcbcbc; stroke-width: 0.8; stroke-linejoin: miter; stroke-linecap: square"/>
   </g>
  </g>
  <g id="axes_3">
   <g id="patch_14">
    <path d="M 100.8 354.165517 
L 987.84 354.165517 
L 987.84 261.434483 
L 100.8 261.434483 
z
" style="fill: #eeeeee"/>
   </g>
   <g id="matplotlib.axis_5">
    <g id="xtick_13">
     <g id="line2d_37">
      <path d="M 141.12 354.165517 
L 141.12 261.434483 
" clip-path="url(#pcea30ff66b)" style="fill: none; stroke-dasharray: 1.85,0.8; stroke-dashoffset: 0; stroke: #b2b2b2; stroke-width: 0.5"/>
     </g>
     <g id="line2d_38">
      <g>
       <use xlink:href="#maa05ab9211" x="141.12" y="354.165517" style="stroke: #000000; stroke-width: 0.8"/>
      </g>
     </g>
    </g>
    <g id="xtick_14">
     <g id="line2d_39">
      <path d="M 302.4 354.165517 
L 302.4 261.434483 
" clip-path="url(#pcea30ff66b)" style="fill: none; stroke-dasharray: 1.85,0.8; stroke-dashoffset: 0; stroke: #b2b2b2; stroke-width: 0.5"/>
     </g>
     <g id="line2d_40">
      <g>
       <use xlink:href="#maa05ab9211" x="302.4" y="354.165517" style="stroke: #000000; stroke-width: 0.8"/>
      </g>
     </g>
    </g>
    <g id="xtick_15">
     <g id="line2d_41">
      <path d="M 463.68 354.165517 
L 463.68 261.434483 
" clip-path="url(#pcea30ff66b)" style="fill: none; stroke-dasharray: 1.85,0.8; stroke-dashoffset: 0; stroke: #b2b2b2; stroke-width: 0.5"/>
     </g>
     <g id="line2d_42">
      <g>
       <use xlink:href="#maa05ab9211" x="463.68" y="354.165517" style="stroke: #000000; stroke-width: 0.8"/>
      </g>
     </g>
    </g>
    <g id="xtick_16">
     <g id="line2d_43">
      <path d="M 624.96 354.165517 
L 624.96 261.434483 
" clip-path="url(#pcea30ff66b)" style="fill: none; stroke-dasharray: 1.85,0.8; stroke-dashoffset: 0; stroke: #b2b2b2; stroke-width: 0.5"/>
     </g>
     <g id="line2d_44">
      <g>
       <use xlink:href="#maa05ab9211" x="624.96" y="354.165517" style="stroke: #000000; stroke-width: 0.8"/>
      </g>
     </g>
    </g>
    <g id="xtick_17">
     <g id="line2d_45">
      <path d="M 786.24 354.165517 
L 786.24 261.434483 
" clip-path="url(#pcea30ff66b)" style="fill: none; stroke-dasharray: 1.85,0.8; stroke-dashoffset: 0; stroke: #b2b2b2; stroke-width: 0.5"/>
     </g>
     <g id="line2d_46">
      <g>
       <use xlink:href="#maa05ab9211" x="786.24" y="354.165517" style="stroke: #000000; stroke-width: 0.8"/>
      </g>
     </g>
    </g>
    <g id="xtick_18">
     <g id="line2d_47">
      <path d="M 947.52 354.165517 
L 947.52 261.434483 
" clip-path="url(#pcea30ff66b)" style="fill: none; stroke-dasharray: 1.85,0.8; stroke-dashoffset: 0; stroke: #b2b2b2; stroke-width: 0.5"/>
     </g>
     <g id="line2d_48">
      <g>
       <use xlink:href="#maa05ab9211" x="947.52" y="354.165517" style="stroke: #000000; stroke-width: 0.8"/>
      </g>
     </g>
    </g>
   </g>
   <g id="matplotlib.axis_6">
    <g id="ytick_6">
     <g id="line2d_49">
      <path d="M 100.8 343.861845 
L 987.84 343.861845 
" clip-path="url(#pcea30ff66b)" style="fill: none; stroke-dasharray: 1.85,0.8; stroke-dashoffset: 0; stroke: #b2b2b2; stroke-width: 0.5"/>
     </g>
     <g id="line2d_50">
      <g>
       <use xlink:href="#mc639c33fba" x="100.8" y="343.861845" style="stroke: #000000; stroke-width: 0.8"/>
      </g>
     </g>
     <g id="text_8">
      <!-- 0 V -->
      <g transform="translate(74.36625 349.180751) scale(0.14 -0.14)">
       <use xlink:href="#DejaVuSans-30"/>
       <use xlink:href="#DejaVuSans-20" x="63.623047"/>
       <use xlink:href="#DejaVuSans-56" x="95.410156"/>
      </g>
     </g>
    </g>
    <g id="ytick_7">
     <g id="line2d_51">
      <path d="M 100.8 295.81398 
L 987.84 295.81398 
" clip-path="url(#pcea30ff66b)" style="fill: none; stroke-dasharray: 1.85,0.8; stroke-dashoffset: 0; stroke: #b2b2b2; stroke-width: 0.5"/>
     </g>
     <g id="line2d_52">
      <g>
       <use xlink:href="#mc639c33fba" x="100.8" y="295.81398" style="stroke: #000000; stroke-width: 0.8"/>
      </g>
     </g>
     <g id="text_9">
      <!-- 1 V -->
      <g transform="translate(74.36625 301.132886) scale(0.14 -0.14)">
       <use xlink:href="#DejaVuSans-31"/>
       <use xlink:href="#DejaVuSans-20" x="63.623047"/>
       <use xlink:href="#DejaVuSans-56" x="95.410156"/>
      </g>
     </g>
    </g>
    <g id="text_10">
     <g id="patch_15">
      <path d="M 34.8768 342.395313 
L 34.8768 273.204688 
L 11.247425 273.204688 
L 11.247425 342.395313 
z
" style="fill: #ffff00; opacity: 0.2; stroke: #eeeeee; stroke-width: 0.5; stroke-linejoin: miter"/>
     </g>
     <!-- CLK BUF -->
     <g transform="translate(26.925238 337.355313) rotate(-90) scale(0.14 -0.14)">
      <defs>
       <path id="DejaVuSans-43" d="M 4122 4306 
L 4122 3641 
Q 3803 3938 3442 4084 
Q 3081 4231 2675 4231 
Q 1875 4231 1450 3742 
Q 1025 3253 1025 2328 
Q 1025 1406 1450 917 
Q 1875 428 2675 428 
Q 3081 428 3442 575 
Q 3803 722 4122 1019 
L 4122 359 
Q 3791 134 3420 21 
Q 3050 -91 2638 -91 
Q 1578 -91 968 557 
Q 359 1206 359 2328 
Q 359 3453 968 4101 
Q 1578 4750 2638 4750 
Q 3056 4750 3426 4639 
Q 3797 4528 4122 4306 
z
" transform="scale(0.015625)"/>
       <path id="DejaVuSans-4b" d="M 628 4666 
L 1259 4666 
L 1259 2694 
L 3353 4666 
L 4166 4666 
L 1850 2491 
L 4331 0 
L 3500 0 
L 1259 2247 
L 1259 0 
L 628 0 
L 628 4666 
z
" transform="scale(0.015625)"/>
      </defs>
      <use xlink:href="#DejaVuSans-43"/>
      <use xlink:href="#DejaVuSans-4c" x="69.824219"/>
      <use xlink:href="#DejaVuSans-4b" x="125.537109"/>
      <use xlink:href="#DejaVuSans-20" x="191.113281"/>
      <use xlink:href="#DejaVuSans-42" x="222.900391"/>
      <use xlink:href="#DejaVuSans-55" x="291.503906"/>
      <use xlink:href="#DejaVuSans-46" x="364.697266"/>
     </g>
    </g>
   </g>
   <g id="line2d_53">
    <path d="M 141.12 343.860574 
L 173.376 343.860574 
L 173.601792 286.204407 
L 213.696 286.204407 
L 213.760512 332.195343 
L 213.825024 343.839894 
L 213.889536 343.770751 
L 213.954048 343.962697 
L 214.01856 343.867052 
L 215.212032 343.858887 
L 222.5664 343.860589 
L 254.016 343.860541 
L 254.17728 286.026629 
L 254.241792 286.334136 
L 254.403072 286.194797 
L 254.8224 286.204407 
L 294.336 286.204407 
L 294.400512 332.154982 
L 294.465024 344.220383 
L 294.529536 343.385008 
L 294.626304 343.937352 
L 294.65856 343.903162 
L 294.852096 343.81871 
L 295.206912 343.879329 
L 295.46496 343.860358 
L 318.04416 343.860575 
L 334.656 343.860577 
L 334.81728 286.11792 
L 334.881792 286.223626 
L 335.172096 286.209211 
L 374.976 286.204407 
L 375.040512 332.199667 
L 375.105024 343.862624 
L 375.169536 343.764658 
L 375.234048 343.955548 
L 375.29856 343.867211 
L 376.556544 343.858403 
L 384.136704 343.860578 
L 415.296 343.860576 
L 415.45728 286.026629 
L 415.521792 286.334136 
L 415.683072 286.189992 
L 416.42496 286.189992 
L 455.616 286.204407 
L 455.680512 332.157865 
L 455.745024 344.226302 
L 455.809536 343.163085 
L 455.906304 344.566803 
L 455.93856 343.939995 
L 456.132096 343.832988 
L 456.486912 343.861192 
L 486.517248 343.860598 
L 495.936 343.860574 
L 496.09728 286.108311 
L 496.161792 286.223626 
L 497.032704 286.204407 
L 536.256 286.204407 
L 536.320512 332.157865 
L 536.385024 344.226249 
L 536.449536 343.163181 
L 536.546304 344.566707 
L 536.57856 343.93999 
L 536.772096 343.832991 
L 537.126912 343.861192 
L 567.028224 343.861035 
L 576.576 343.860575 
L 576.73728 286.108311 
L 576.801792 286.223626 
L 577.672704 286.204407 
L 615.347712 286.281283 
L 616.896 288.731724 
L 616.928256 291.787568 
L 617.05728 345.136795 
L 617.154048 345.275749 
L 617.186304 345.258836 
L 617.573376 345.367473 
L 618.863616 345.52704 
L 621.121536 345.542127 
L 633.798144 345.326344 
L 634.79808 345.727063 
L 635.4432 346.137199 
L 640.894464 349.806327 
L 641.023488 349.943263 
L 641.217024 349.876477 
L 642.087936 349.3984 
L 645.087744 348.128159 
L 645.184512 348.144495 
L 645.345792 348.061564 
L 647.797248 347.172775 
L 650.151936 346.367012 
L 650.7648 346.165307 
L 655.054848 344.918513 
L 657.216 344.410599 
L 657.248256 345.487256 
L 657.409536 318.256176 
L 657.570816 317.988069 
L 659.344896 317.291375 
L 660.828672 316.604771 
L 661.022208 316.464472 
L 661.151232 316.390958 
L 661.473792 316.199728 
L 665.247744 313.536915 
L 669.699072 310.35999 
L 672.602112 308.46258 
L 675.892224 306.484449 
L 679.891968 304.154608 
L 681.278976 301.236181 
L 683.569152 295.674641 
L 686.697984 288.049445 
L 689.472 281.721541 
L 695.471616 269.450116 
L 695.955456 268.551621 
L 696.665088 267.230305 
L 697.536 265.64953 
L 697.69728 342.322776 
L 697.729536 342.302403 
L 699.374592 342.324169 
L 700.92288 342.247292 
L 704.7936 342.352421 
L 705.632256 342.448949 
L 706.309632 343.209403 
L 707.019264 343.670052 
L 707.922432 343.989566 
L 709.180416 344.190502 
L 711.373824 344.288318 
L 718.244352 344.282163 
L 725.856768 344.343621 
L 728.01792 344.413771 
L 737.856 344.311313 
L 738.01728 267.451325 
L 738.081792 267.489763 
L 740.565504 268.719788 
L 741.823488 269.344411 
L 742.275072 269.522188 
L 751.274496 273.428479 
L 751.532544 273.538989 
L 753.274368 274.197245 
L 753.564672 274.307755 
L 754.661376 274.677724 
L 754.919424 274.788234 
L 755.887104 275.110154 
L 756.177408 275.21586 
L 756.596736 275.350394 
L 756.951552 275.456099 
L 757.37088 275.590633 
L 757.725696 275.696338 
L 758.241792 275.87892 
L 758.596608 275.984626 
L 759.015936 276.11916 
L 759.370752 276.224865 
L 759.79008 276.359399 
L 760.144896 276.465104 
L 760.499712 276.55159 
L 765.886464 278.041074 
L 766.338048 278.14678 
L 766.692864 278.233266 
L 769.176576 278.857888 
L 769.724928 278.963593 
L 770.079744 279.050079 
L 771.595776 279.386414 
L 772.144128 279.49212 
L 772.498944 279.578606 
L 773.01504 279.684311 
L 773.305344 279.732359 
L 773.853696 279.862088 
L 776.530944 280.371396 
L 776.853504 280.438663 
L 778.176 280.659683 
L 778.208256 288.409804 
L 778.272768 344.611632 
L 778.33728 343.973657 
L 778.369536 343.970784 
L 778.401792 344.087228 
L 778.466304 344.014041 
L 778.950144 344.009438 
L 818.496 343.903232 
L 818.65728 284.354564 
L 818.721792 284.628437 
L 818.754048 284.77258 
L 818.81856 284.666875 
L 819.883008 284.714923 
L 822.173184 284.825433 
L 822.495744 284.859066 
L 825.656832 284.969576 
L 825.979392 285.00321 
L 829.62432 285.11372 
L 829.94688 285.147353 
L 834.075648 285.257864 
L 834.398208 285.291497 
L 839.30112 285.402007 
L 839.62368 285.435641 
L 845.59104 285.546151 
L 845.9136 285.579784 
L 853.526016 285.690294 
L 853.848576 285.723928 
L 858.816 285.723928 
L 858.848256 290.259646 
L 858.912768 343.991151 
L 858.97728 343.702806 
L 859.074048 344.033174 
L 859.13856 343.882678 
L 859.912704 343.879949 
L 865.944576 343.866273 
L 886.007808 343.874366 
L 899.136 343.874332 
L 899.29728 285.627832 
L 899.361792 285.743147 
L 900.232704 285.723928 
L 939.456 285.723928 
L 939.488256 294.386958 
L 939.61728 343.817221 
L 939.649536 343.956955 
L 939.714048 343.823252 
L 939.746304 343.781081 
L 939.810816 343.843084 
L 939.972096 343.938443 
L 940.004352 343.903083 
L 940.197888 343.873538 
L 945.068544 343.874344 
L 947.52 343.874323 
L 947.52 343.874323 
" clip-path="url(#pcea30ff66b)" style="fill: none; stroke: #0000ff; stroke-width: 2; stroke-linecap: square"/>
   </g>
   <g id="patch_16">
    <path d="M 100.8 354.165517 
L 100.8 261.434483 
" style="fill: none; stroke: #bcbcbc; stroke-width: 0.8; stroke-linejoin: miter; stroke-linecap: square"/>
   </g>
   <g id="patch_17">
    <path d="M 987.84 354.165517 
L 987.84 261.434483 
" style="fill: none; stroke: #bcbcbc; stroke-width: 0.8; stroke-linejoin: miter; stroke-linecap: square"/>
   </g>
   <g id="patch_18">
    <path d="M 100.8 354.165517 
L 987.84 354.165517 
" style="fill: none; stroke: #bcbcbc; stroke-width: 0.8; stroke-linejoin: miter; stroke-linecap: square"/>
   </g>
   <g id="patch_19">
    <path d="M 100.8 261.434483 
L 987.84 261.434483 
" style="fill: none; stroke: #bcbcbc; stroke-width: 0.8; stroke-linejoin: miter; stroke-linecap: square"/>
   </g>
  </g>
  <g id="axes_4">
   <g id="patch_20">
    <path d="M 100.8 465.442759 
L 987.84 465.442759 
L 987.84 372.711724 
L 100.8 372.711724 
z
" style="fill: #eeeeee"/>
   </g>
   <g id="matplotlib.axis_7">
    <g id="xtick_19">
     <g id="line2d_54">
      <path d="M 141.12 465.442759 
L 141.12 372.711724 
" clip-path="url(#p2bbc67db6e)" style="fill: none; stroke-dasharray: 1.85,0.8; stroke-dashoffset: 0; stroke: #b2b2b2; stroke-width: 0.5"/>
     </g>
     <g id="line2d_55">
      <g>
       <use xlink:href="#maa05ab9211" x="141.12" y="465.442759" style="stroke: #000000; stroke-width: 0.8"/>
      </g>
     </g>
    </g>
    <g id="xtick_20">
     <g id="line2d_56">
      <path d="M 302.4 465.442759 
L 302.4 372.711724 
" clip-path="url(#p2bbc67db6e)" style="fill: none; stroke-dasharray: 1.85,0.8; stroke-dashoffset: 0; stroke: #b2b2b2; stroke-width: 0.5"/>
     </g>
     <g id="line2d_57">
      <g>
       <use xlink:href="#maa05ab9211" x="302.4" y="465.442759" style="stroke: #000000; stroke-width: 0.8"/>
      </g>
     </g>
    </g>
    <g id="xtick_21">
     <g id="line2d_58">
      <path d="M 463.68 465.442759 
L 463.68 372.711724 
" clip-path="url(#p2bbc67db6e)" style="fill: none; stroke-dasharray: 1.85,0.8; stroke-dashoffset: 0; stroke: #b2b2b2; stroke-width: 0.5"/>
     </g>
     <g id="line2d_59">
      <g>
       <use xlink:href="#maa05ab9211" x="463.68" y="465.442759" style="stroke: #000000; stroke-width: 0.8"/>
      </g>
     </g>
    </g>
    <g id="xtick_22">
     <g id="line2d_60">
      <path d="M 624.96 465.442759 
L 624.96 372.711724 
" clip-path="url(#p2bbc67db6e)" style="fill: none; stroke-dasharray: 1.85,0.8; stroke-dashoffset: 0; stroke: #b2b2b2; stroke-width: 0.5"/>
     </g>
     <g id="line2d_61">
      <g>
       <use xlink:href="#maa05ab9211" x="624.96" y="465.442759" style="stroke: #000000; stroke-width: 0.8"/>
      </g>
     </g>
    </g>
    <g id="xtick_23">
     <g id="line2d_62">
      <path d="M 786.24 465.442759 
L 786.24 372.711724 
" clip-path="url(#p2bbc67db6e)" style="fill: none; stroke-dasharray: 1.85,0.8; stroke-dashoffset: 0; stroke: #b2b2b2; stroke-width: 0.5"/>
     </g>
     <g id="line2d_63">
      <g>
       <use xlink:href="#maa05ab9211" x="786.24" y="465.442759" style="stroke: #000000; stroke-width: 0.8"/>
      </g>
     </g>
    </g>
    <g id="xtick_24">
     <g id="line2d_64">
      <path d="M 947.52 465.442759 
L 947.52 372.711724 
" clip-path="url(#p2bbc67db6e)" style="fill: none; stroke-dasharray: 1.85,0.8; stroke-dashoffset: 0; stroke: #b2b2b2; stroke-width: 0.5"/>
     </g>
     <g id="line2d_65">
      <g>
       <use xlink:href="#maa05ab9211" x="947.52" y="465.442759" style="stroke: #000000; stroke-width: 0.8"/>
      </g>
     </g>
    </g>
   </g>
   <g id="matplotlib.axis_8">
    <g id="ytick_8">
     <g id="line2d_66">
      <path d="M 100.8 438.903289 
L 987.84 438.903289 
" clip-path="url(#p2bbc67db6e)" style="fill: none; stroke-dasharray: 1.85,0.8; stroke-dashoffset: 0; stroke: #b2b2b2; stroke-width: 0.5"/>
     </g>
     <g id="line2d_67">
      <g>
       <use xlink:href="#mc639c33fba" x="100.8" y="438.903289" style="stroke: #000000; stroke-width: 0.8"/>
      </g>
     </g>
     <g id="text_11">
      <!-- 0 V -->
      <g transform="translate(74.36625 444.222195) scale(0.14 -0.14)">
       <use xlink:href="#DejaVuSans-30"/>
       <use xlink:href="#DejaVuSans-20" x="63.623047"/>
       <use xlink:href="#DejaVuSans-56" x="95.410156"/>
      </g>
     </g>
    </g>
    <g id="ytick_9">
     <g id="line2d_68">
      <path d="M 100.8 399.645344 
L 987.84 399.645344 
" clip-path="url(#p2bbc67db6e)" style="fill: none; stroke-dasharray: 1.85,0.8; stroke-dashoffset: 0; stroke: #b2b2b2; stroke-width: 0.5"/>
     </g>
     <g id="line2d_69">
      <g>
       <use xlink:href="#mc639c33fba" x="100.8" y="399.645344" style="stroke: #000000; stroke-width: 0.8"/>
      </g>
     </g>
     <g id="text_12">
      <!-- 1 V -->
      <g transform="translate(74.36625 404.96425) scale(0.14 -0.14)">
       <use xlink:href="#DejaVuSans-31"/>
       <use xlink:href="#DejaVuSans-20" x="63.623047"/>
       <use xlink:href="#DejaVuSans-56" x="95.410156"/>
      </g>
     </g>
    </g>
    <g id="text_13">
     <g id="patch_21">
      <path d="M 34.8768 454.693023 
L 34.8768 383.46146 
L 11.247425 383.46146 
L 11.247425 454.693023 
z
" style="fill: #ffff00; opacity: 0.2; stroke: #eeeeee; stroke-width: 0.5; stroke-linejoin: miter"/>
     </g>
     <!-- DFF OUT -->
     <g transform="translate(26.925238 449.653023) rotate(-90) scale(0.14 -0.14)">
      <defs>
       <path id="DejaVuSans-4f" d="M 2522 4238 
Q 1834 4238 1429 3725 
Q 1025 3213 1025 2328 
Q 1025 1447 1429 934 
Q 1834 422 2522 422 
Q 3209 422 3611 934 
Q 4013 1447 4013 2328 
Q 4013 3213 3611 3725 
Q 3209 4238 2522 4238 
z
M 2522 4750 
Q 3503 4750 4090 4092 
Q 4678 3434 4678 2328 
Q 4678 1225 4090 567 
Q 3503 -91 2522 -91 
Q 1538 -91 948 565 
Q 359 1222 359 2328 
Q 359 3434 948 4092 
Q 1538 4750 2522 4750 
z
" transform="scale(0.015625)"/>
       <path id="DejaVuSans-54" d="M -19 4666 
L 3928 4666 
L 3928 4134 
L 2272 4134 
L 2272 0 
L 1638 0 
L 1638 4134 
L -19 4134 
L -19 4666 
z
" transform="scale(0.015625)"/>
      </defs>
      <use xlink:href="#DejaVuSans-44"/>
      <use xlink:href="#DejaVuSans-46" x="77.001953"/>
      <use xlink:href="#DejaVuSans-46" x="134.521484"/>
      <use xlink:href="#DejaVuSans-20" x="192.041016"/>
      <use xlink:href="#DejaVuSans-4f" x="223.828125"/>
      <use xlink:href="#DejaVuSans-55" x="302.539062"/>
      <use xlink:href="#DejaVuSans-54" x="375.732422"/>
     </g>
    </g>
   </g>
   <g id="line2d_70">
    <path d="M 141.12 409.281992 
L 173.408256 409.329886 
L 173.440512 410.955165 
L 173.601792 438.905685 
L 174.117888 438.901125 
L 184.50432 438.90225 
L 254.048256 438.903887 
L 254.080512 439.060823 
L 254.112768 438.80123 
L 254.306304 434.968465 
L 254.596608 434.200187 
L 254.693376 433.652146 
L 255.14496 426.774154 
L 255.370752 410.608518 
L 255.596544 392.174557 
L 255.757824 391.852642 
L 255.983616 391.789829 
L 256.91904 391.793755 
L 295.755264 391.872271 
L 296.239104 394.41226 
L 296.59392 393.776281 
L 297.948672 392.11567 
L 299.593728 391.825161 
L 334.688256 391.809458 
L 334.720512 391.69561 
L 334.752768 392.272702 
L 334.785024 395.126754 
L 334.914048 438.887196 
L 334.97856 438.852646 
L 335.13984 438.895061 
L 335.526912 438.902605 
L 367.266816 438.902207 
L 415.328256 438.903863 
L 415.360512 439.060277 
L 415.392768 438.803405 
L 415.586304 434.876994 
L 415.876608 433.976024 
L 415.908864 433.868065 
L 416.1024 429.212465 
L 416.521728 415.659052 
L 416.9088 391.923306 
L 417.102336 391.797681 
L 417.811968 391.821235 
L 495.968256 391.809458 
L 496.000512 391.942935 
L 496.065024 391.762349 
L 496.355328 391.785903 
L 576.608256 391.809458 
L 576.640512 391.942935 
L 576.705024 391.762349 
L 576.995328 391.785903 
L 615.379968 391.8919 
L 616.992768 393.988274 
L 617.186304 394.325892 
L 618.83136 396.924768 
L 621.347328 400.992284 
L 623.443968 404.502337 
L 624.056832 406.235575 
L 625.12128 410.325075 
L 625.508352 412.157243 
L 625.7664 413.241548 
L 625.830912 413.135159 
L 625.895424 413.41389 
L 626.347008 415.888711 
L 626.379264 416.067335 
L 626.41152 415.935821 
L 626.443776 415.753664 
L 626.508288 415.897348 
L 626.73408 417.627053 
L 626.959872 418.629701 
L 626.992128 418.447937 
L 627.024384 418.435767 
L 627.05664 418.522527 
L 627.153408 418.869959 
L 627.3792 420.609479 
L 627.637248 421.470406 
L 627.669504 421.324759 
L 627.734016 421.535181 
L 627.959808 423.26842 
L 628.250112 424.685631 
L 628.282368 424.077133 
L 628.34688 424.894091 
L 628.540416 425.995669 
L 628.862976 427.456065 
L 628.895232 426.921764 
L 628.927488 427.604067 
L 628.959744 427.279404 
L 629.121024 428.610641 
L 629.95968 432.274977 
L 630.6048 435.035792 
L 630.637056 434.901334 
L 630.669312 435.307182 
L 630.76608 435.135036 
L 630.830592 435.331248 
L 630.991872 436.658245 
L 631.378944 438.134932 
L 631.443456 438.008679 
L 631.475712 438.026816 
L 632.024064 440.775461 
L 632.05632 440.753398 
L 632.088576 440.569514 
L 632.120832 440.837802 
L 632.894976 443.662922 
L 632.927232 443.607568 
L 632.959488 443.437581 
L 633.024 443.576947 
L 633.18528 443.993081 
L 633.34656 444.834772 
L 633.959424 446.228821 
L 634.056192 446.264153 
L 634.47552 446.930753 
L 634.6368 447.273083 
L 634.669056 447.725334 
L 634.765824 447.686076 
L 634.830336 447.794035 
L 635.185152 448.992581 
L 635.539968 449.789909 
L 635.572224 449.627381 
L 635.636736 449.740444 
L 636.023808 450.908761 
L 636.056064 450.894235 
L 636.08832 450.82946 
L 636.120576 450.896591 
L 636.314112 451.606374 
L 636.862464 452.841822 
L 636.89472 452.665554 
L 636.959232 452.742107 
L 637.765632 454.782735 
L 641.184768 461.200231 
L 641.346048 461.096983 
L 641.378304 461.19395 
L 641.539584 460.793126 
L 641.57184 460.887738 
L 641.604096 460.687915 
L 642.281472 459.518028 
L 642.442752 459.031622 
L 642.765312 458.476515 
L 642.797568 458.591541 
L 642.829824 458.395251 
L 642.958848 458.172658 
L 642.991104 458.208383 
L 643.055616 458.004242 
L 643.18464 457.274829 
L 643.216896 457.835825 
L 643.313664 457.713733 
L 643.442688 457.486822 
L 644.603904 455.825818 
L 644.668416 455.895698 
L 644.79744 455.654654 
L 644.95872 455.57653 
L 645.087744 455.319391 
L 645.12 455.405758 
L 645.184512 455.348049 
L 645.345792 455.145086 
L 645.571584 454.869102 
L 645.861888 454.376022 
L 645.894144 454.496544 
L 645.9264 454.287692 
L 646.313472 453.833085 
L 647.05536 453.029475 
L 647.087616 453.226942 
L 647.152128 452.942715 
L 647.248896 452.857525 
L 647.281152 453.015735 
L 647.345664 452.776654 
L 648.216576 451.938889 
L 648.248832 451.996598 
L 648.474624 451.525896 
L 648.861696 451.05166 
L 648.893952 451.244416 
L 648.926208 451.310762 
L 649.087488 450.835741 
L 650.990592 449.283089 
L 651.216384 448.735048 
L 651.313152 448.585868 
L 651.345408 448.858711 
L 651.40992 448.468094 
L 651.442176 448.727982 
L 651.506688 448.367987 
L 651.796992 448.055493 
L 651.829248 448.403319 
L 651.89376 447.972267 
L 652.442112 447.476046 
L 652.764672 447.273868 
L 652.796928 447.449351 
L 652.86144 447.325296 
L 652.893696 447.327258 
L 652.990464 447.18593 
L 653.02272 447.199278 
L 653.280768 447.041068 
L 653.82912 446.497346 
L 654.248448 446.065508 
L 654.345216 445.524141 
L 654.377472 445.628175 
L 654.441984 445.812687 
L 654.538752 445.375746 
L 654.700032 445.207722 
L 654.732288 445.604227 
L 654.829056 445.471143 
L 654.95808 444.943123 
L 655.087104 444.892088 
L 655.732224 444.499901 
L 655.76448 444.59255 
L 655.828992 444.448081 
L 656.08704 444.439051 
L 657.248256 443.363776 
L 657.409536 442.775535 
L 657.441792 443.176516 
L 657.506304 442.651402 
L 657.570816 442.593535 
L 657.603072 443.034402 
L 657.69984 442.946857 
L 657.764352 442.351432 
L 657.796608 442.67264 
L 657.828864 442.792613 
L 657.957888 442.202723 
L 658.086912 442.113725 
L 658.119168 442.567704 
L 658.151424 442.091583 
L 658.18368 442.310015 
L 658.215936 442.350175 
L 658.280448 441.963014 
L 658.312704 442.378912 
L 658.34496 442.077961 
L 658.377216 442.203233 
L 658.409472 442.106541 
L 658.441728 441.787805 
L 658.50624 442.213087 
L 658.635264 441.721774 
L 658.66752 441.733041 
L 658.699776 442.041726 
L 658.764288 441.693704 
L 658.796544 441.929016 
L 658.957824 441.674978 
L 659.086848 441.671641 
L 659.248128 441.553278 
L 660.4416 440.375933 
L 660.635136 439.672784 
L 660.699648 440.026301 
L 660.731904 439.736146 
L 660.860928 439.148572 
L 660.893184 439.168221 
L 661.022208 438.991753 
L 661.054464 439.174349 
L 661.118976 439.016061 
L 661.151232 438.891878 
L 661.183488 438.91576 
L 661.215744 439.086278 
L 661.248 438.894401 
L 661.280256 438.915617 
L 661.40928 438.88448 
L 662.183424 437.542491 
L 662.312448 436.606346 
L 662.37696 436.551895 
L 662.409216 437.0743 
L 662.473728 436.759766 
L 662.602752 436.295894 
L 662.989824 436.071966 
L 663.957504 434.241408 
L 664.054272 433.602288 
L 664.086528 433.634872 
L 664.247808 433.711033 
L 664.280064 433.645865 
L 665.409024 431.41248 
L 665.44128 431.479611 
L 665.473536 431.053663 
L 665.538048 431.173399 
L 665.60256 431.312765 
L 665.634816 431.237782 
L 667.570176 427.789364 
L 667.731456 427.339468 
L 667.828224 427.179689 
L 667.86048 427.400318 
L 667.892736 427.105099 
L 667.957248 426.993213 
L 667.989504 427.231117 
L 668.086272 427.125513 
L 668.118528 427.087825 
L 668.215296 426.707023 
L 668.247552 426.712912 
L 668.441088 426.575509 
L 669.376512 424.79202 
L 669.537792 423.993906 
L 669.602304 424.034342 
L 669.763584 423.673562 
L 669.924864 423.283338 
L 670.892544 420.894884 
L 672.69888 417.776626 
L 672.763392 417.194823 
L 672.827904 417.262739 
L 672.956928 417.29022 
L 673.085952 417.141825 
L 674.924544 414.307009 
L 675.247104 415.05762 
L 675.376128 417.755034 
L 675.537408 433.649398 
L 675.666432 438.289491 
L 675.892224 438.36094 
L 678.408192 438.477183 
L 679.859712 438.422536 
L 680.537088 437.84246 
L 681.375744 437.465741 
L 682.472448 437.24782 
L 684.182016 437.172563 
L 688.439808 437.298463 
L 700.406784 437.595881 
L 703.954944 437.654847 
L 705.664512 437.797275 
L 706.341888 438.405537 
L 707.180544 438.821063 
L 708.309504 439.088272 
L 709.986816 439.229962 
L 714.405888 439.269506 
L 737.888256 439.293893 
L 737.920512 439.52007 
L 738.17856 430.849521 
L 738.404352 429.072314 
L 738.533376 426.436928 
L 738.694656 417.25214 
L 738.888192 391.303031 
L 739.081728 376.985658 
L 739.210752 376.958178 
L 743.145984 378.512792 
L 744.14592 378.881817 
L 744.500736 378.983887 
L 745.532928 379.36469 
L 751.629312 381.472841 
L 751.951872 381.574912 
L 753.693696 382.100968 
L 754.080768 382.203039 
L 755.629056 382.65058 
L 756.016128 382.75265 
L 757.338624 383.121675 
L 757.757952 383.223746 
L 758.98368 383.553512 
L 759.403008 383.655583 
L 760.402944 383.902908 
L 761.338368 384.126678 
L 762.112512 384.299413 
L 762.499584 384.401484 
L 763.17696 384.534961 
L 763.564032 384.637032 
L 764.241408 384.770509 
L 764.62848 384.872579 
L 765.305856 385.006056 
L 765.789696 385.108127 
L 766.467072 385.241604 
L 766.950912 385.343675 
L 767.628288 385.477152 
L 768.112128 385.579222 
L 768.789504 385.712699 
L 769.370112 385.81477 
L 770.047488 385.948247 
L 770.628096 386.050318 
L 771.208704 386.144537 
L 771.692544 386.246607 
L 772.273152 386.340826 
L 772.85376 386.438971 
L 773.208576 386.497858 
L 773.82144 386.599929 
L 774.402048 386.694148 
L 774.982656 386.792293 
L 775.337472 386.85118 
L 776.047104 386.949324 
L 776.40192 387.008211 
L 777.111552 387.106356 
L 777.466368 387.165243 
L 778.176 387.263388 
L 778.369536 387.286943 
L 778.756608 387.341904 
L 779.111424 387.400791 
L 779.821056 387.498936 
L 780.175872 387.557823 
L 781.07904 387.655967 
L 781.433856 387.714854 
L 782.240256 387.812999 
L 782.595072 387.871886 
L 783.49824 387.970031 
L 783.788544 387.98966 
L 784.562688 388.087805 
L 784.917504 388.146692 
L 785.91744 388.244837 
L 786.272256 388.303724 
L 787.272192 388.401868 
L 787.562496 388.421497 
L 788.433408 388.519642 
L 788.723712 388.539271 
L 789.594624 388.637416 
L 789.884928 388.657045 
L 790.75584 388.75519 
L 791.046144 388.774819 
L 792.013824 388.872964 
L 792.304128 388.892593 
L 793.271808 388.990738 
L 793.562112 389.010367 
L 794.62656 389.108511 
L 794.916864 389.12814 
L 796.07808 389.226285 
L 796.368384 389.245914 
L 797.5296 389.344059 
L 797.819904 389.363688 
L 799.077888 389.461833 
L 799.368192 389.481462 
L 800.722944 389.579607 
L 801.013248 389.599236 
L 802.464768 389.697381 
L 802.755072 389.71701 
L 804.206592 389.815154 
L 804.46464 389.830858 
L 806.141952 389.932928 
L 806.432256 389.952557 
L 808.17408 390.050702 
L 808.464384 390.070331 
L 810.399744 390.168476 
L 810.690048 390.188105 
L 812.722176 390.28625 
L 813.01248 390.305879 
L 815.367168 390.415801 
L 816.625152 390.462911 
L 817.238016 390.498243 
L 818.528256 390.55713 
L 818.560512 390.745568 
L 818.625024 390.517872 
L 818.915328 390.529649 
L 821.140992 390.639571 
L 821.39904 390.655274 
L 824.527872 390.757345 
L 824.882688 390.776974 
L 828.301824 390.875119 
L 828.559872 390.890822 
L 832.559616 390.992893 
L 832.817664 391.008596 
L 837.494784 391.110667 
L 837.8496 391.12637 
L 843.397632 391.22844 
L 843.752448 391.248069 
L 850.687488 391.357992 
L 851.622912 391.361917 
L 899.168256 391.416879 
L 899.200512 391.550356 
L 899.265024 391.369769 
L 899.555328 391.393324 
L 947.52 391.401175 
L 947.52 391.401175 
" clip-path="url(#p2bbc67db6e)" style="fill: none; stroke: #ff00ff; stroke-width: 2; stroke-linecap: square"/>
   </g>
   <g id="patch_22">
    <path d="M 100.8 465.442759 
L 100.8 372.711724 
" style="fill: none; stroke: #bcbcbc; stroke-width: 0.8; stroke-linejoin: miter; stroke-linecap: square"/>
   </g>
   <g id="patch_23">
    <path d="M 987.84 465.442759 
L 987.84 372.711724 
" style="fill: none; stroke: #bcbcbc; stroke-width: 0.8; stroke-linejoin: miter; stroke-linecap: square"/>
   </g>
   <g id="patch_24">
    <path d="M 100.8 465.442759 
L 987.84 465.442759 
" style="fill: none; stroke: #bcbcbc; stroke-width: 0.8; stroke-linejoin: miter; stroke-linecap: square"/>
   </g>
   <g id="patch_25">
    <path d="M 100.8 372.711724 
L 987.84 372.711724 
" style="fill: none; stroke: #bcbcbc; stroke-width: 0.8; stroke-linejoin: miter; stroke-linecap: square"/>
   </g>
  </g>
  <g id="axes_5">
   <g id="patch_26">
    <path d="M 100.8 576.72 
L 987.84 576.72 
L 987.84 483.988966 
L 100.8 483.988966 
z
" style="fill: #eeeeee"/>
   </g>
   <g id="matplotlib.axis_9">
    <g id="xtick_25">
     <g id="line2d_71">
      <path d="M 141.12 576.72 
L 141.12 483.988966 
" clip-path="url(#pe4d264c5fe)" style="fill: none; stroke-dasharray: 1.85,0.8; stroke-dashoffset: 0; stroke: #b2b2b2; stroke-width: 0.5"/>
     </g>
     <g id="line2d_72">
      <g>
       <use xlink:href="#maa05ab9211" x="141.12" y="576.72" style="stroke: #000000; stroke-width: 0.8"/>
      </g>
     </g>
     <g id="text_14">
      <!-- 0 s -->
      <g transform="translate(130.795 590.857813) scale(0.14 -0.14)">
       <defs>
        <path id="DejaVuSans-73" d="M 2834 3397 
L 2834 2853 
Q 2591 2978 2328 3040 
Q 2066 3103 1784 3103 
Q 1356 3103 1142 2972 
Q 928 2841 928 2578 
Q 928 2378 1081 2264 
Q 1234 2150 1697 2047 
L 1894 2003 
Q 2506 1872 2764 1633 
Q 3022 1394 3022 966 
Q 3022 478 2636 193 
Q 2250 -91 1575 -91 
Q 1294 -91 989 -36 
Q 684 19 347 128 
L 347 722 
Q 666 556 975 473 
Q 1284 391 1588 391 
Q 1994 391 2212 530 
Q 2431 669 2431 922 
Q 2431 1156 2273 1281 
Q 2116 1406 1581 1522 
L 1381 1569 
Q 847 1681 609 1914 
Q 372 2147 372 2553 
Q 372 3047 722 3315 
Q 1072 3584 1716 3584 
Q 2034 3584 2315 3537 
Q 2597 3491 2834 3397 
z
" transform="scale(0.015625)"/>
       </defs>
       <use xlink:href="#DejaVuSans-30"/>
       <use xlink:href="#DejaVuSans-20" x="63.623047"/>
       <use xlink:href="#DejaVuSans-73" x="95.410156"/>
      </g>
     </g>
    </g>
    <g id="xtick_26">
     <g id="line2d_73">
      <path d="M 302.4 576.72 
L 302.4 483.988966 
" clip-path="url(#pe4d264c5fe)" style="fill: none; stroke-dasharray: 1.85,0.8; stroke-dashoffset: 0; stroke: #b2b2b2; stroke-width: 0.5"/>
     </g>
     <g id="line2d_74">
      <g>
       <use xlink:href="#maa05ab9211" x="302.4" y="576.72" style="stroke: #000000; stroke-width: 0.8"/>
      </g>
     </g>
     <g id="text_15">
      <!-- 50 ns -->
      <g transform="translate(283.185 590.857813) scale(0.14 -0.14)">
       <defs>
        <path id="DejaVuSans-35" d="M 691 4666 
L 3169 4666 
L 3169 4134 
L 1269 4134 
L 1269 2991 
Q 1406 3038 1543 3061 
Q 1681 3084 1819 3084 
Q 2600 3084 3056 2656 
Q 3513 2228 3513 1497 
Q 3513 744 3044 326 
Q 2575 -91 1722 -91 
Q 1428 -91 1123 -41 
Q 819 9 494 109 
L 494 744 
Q 775 591 1075 516 
Q 1375 441 1709 441 
Q 2250 441 2565 725 
Q 2881 1009 2881 1497 
Q 2881 1984 2565 2268 
Q 2250 2553 1709 2553 
Q 1456 2553 1204 2497 
Q 953 2441 691 2322 
L 691 4666 
z
" transform="scale(0.015625)"/>
        <path id="DejaVuSans-6e" d="M 3513 2113 
L 3513 0 
L 2938 0 
L 2938 2094 
Q 2938 2591 2744 2837 
Q 2550 3084 2163 3084 
Q 1697 3084 1428 2787 
Q 1159 2491 1159 1978 
L 1159 0 
L 581 0 
L 581 3500 
L 1159 3500 
L 1159 2956 
Q 1366 3272 1645 3428 
Q 1925 3584 2291 3584 
Q 2894 3584 3203 3211 
Q 3513 2838 3513 2113 
z
" transform="scale(0.015625)"/>
       </defs>
       <use xlink:href="#DejaVuSans-35"/>
       <use xlink:href="#DejaVuSans-30" x="63.623047"/>
       <use xlink:href="#DejaVuSans-20" x="127.246094"/>
       <use xlink:href="#DejaVuSans-6e" x="159.033203"/>
       <use xlink:href="#DejaVuSans-73" x="222.412109"/>
      </g>
     </g>
    </g>
    <g id="xtick_27">
     <g id="line2d_75">
      <path d="M 463.68 576.72 
L 463.68 483.988966 
" clip-path="url(#pe4d264c5fe)" style="fill: none; stroke-dasharray: 1.85,0.8; stroke-dashoffset: 0; stroke: #b2b2b2; stroke-width: 0.5"/>
     </g>
     <g id="line2d_76">
      <g>
       <use xlink:href="#maa05ab9211" x="463.68" y="576.72" style="stroke: #000000; stroke-width: 0.8"/>
      </g>
     </g>
     <g id="text_16">
      <!-- 100 ns -->
      <g transform="translate(440.01125 590.857813) scale(0.14 -0.14)">
       <use xlink:href="#DejaVuSans-31"/>
       <use xlink:href="#DejaVuSans-30" x="63.623047"/>
       <use xlink:href="#DejaVuSans-30" x="127.246094"/>
       <use xlink:href="#DejaVuSans-20" x="190.869141"/>
       <use xlink:href="#DejaVuSans-6e" x="222.65625"/>
       <use xlink:href="#DejaVuSans-73" x="286.035156"/>
      </g>
     </g>
    </g>
    <g id="xtick_28">
     <g id="line2d_77">
      <path d="M 624.96 576.72 
L 624.96 483.988966 
" clip-path="url(#pe4d264c5fe)" style="fill: none; stroke-dasharray: 1.85,0.8; stroke-dashoffset: 0; stroke: #b2b2b2; stroke-width: 0.5"/>
     </g>
     <g id="line2d_78">
      <g>
       <use xlink:href="#maa05ab9211" x="624.96" y="576.72" style="stroke: #000000; stroke-width: 0.8"/>
      </g>
     </g>
     <g id="text_17">
      <!-- 150 ns -->
      <g transform="translate(601.29125 590.857813) scale(0.14 -0.14)">
       <use xlink:href="#DejaVuSans-31"/>
       <use xlink:href="#DejaVuSans-35" x="63.623047"/>
       <use xlink:href="#DejaVuSans-30" x="127.246094"/>
       <use xlink:href="#DejaVuSans-20" x="190.869141"/>
       <use xlink:href="#DejaVuSans-6e" x="222.65625"/>
       <use xlink:href="#DejaVuSans-73" x="286.035156"/>
      </g>
     </g>
    </g>
    <g id="xtick_29">
     <g id="line2d_79">
      <path d="M 786.24 576.72 
L 786.24 483.988966 
" clip-path="url(#pe4d264c5fe)" style="fill: none; stroke-dasharray: 1.85,0.8; stroke-dashoffset: 0; stroke: #b2b2b2; stroke-width: 0.5"/>
     </g>
     <g id="line2d_80">
      <g>
       <use xlink:href="#maa05ab9211" x="786.24" y="576.72" style="stroke: #000000; stroke-width: 0.8"/>
      </g>
     </g>
     <g id="text_18">
      <!-- 200 ns -->
      <g transform="translate(762.57125 590.857813) scale(0.14 -0.14)">
       <use xlink:href="#DejaVuSans-32"/>
       <use xlink:href="#DejaVuSans-30" x="63.623047"/>
       <use xlink:href="#DejaVuSans-30" x="127.246094"/>
       <use xlink:href="#DejaVuSans-20" x="190.869141"/>
       <use xlink:href="#DejaVuSans-6e" x="222.65625"/>
       <use xlink:href="#DejaVuSans-73" x="286.035156"/>
      </g>
     </g>
    </g>
    <g id="xtick_30">
     <g id="line2d_81">
      <path d="M 947.52 576.72 
L 947.52 483.988966 
" clip-path="url(#pe4d264c5fe)" style="fill: none; stroke-dasharray: 1.85,0.8; stroke-dashoffset: 0; stroke: #b2b2b2; stroke-width: 0.5"/>
     </g>
     <g id="line2d_82">
      <g>
       <use xlink:href="#maa05ab9211" x="947.52" y="576.72" style="stroke: #000000; stroke-width: 0.8"/>
      </g>
     </g>
     <g id="text_19">
      <!-- 250 ns -->
      <g transform="translate(923.85125 590.857813) scale(0.14 -0.14)">
       <use xlink:href="#DejaVuSans-32"/>
       <use xlink:href="#DejaVuSans-35" x="63.623047"/>
       <use xlink:href="#DejaVuSans-30" x="127.246094"/>
       <use xlink:href="#DejaVuSans-20" x="190.869141"/>
       <use xlink:href="#DejaVuSans-6e" x="222.65625"/>
       <use xlink:href="#DejaVuSans-73" x="286.035156"/>
      </g>
     </g>
    </g>
    <g id="text_20">
     <!-- Time -->
     <g transform="translate(527.192969 608.407187) scale(0.14 -0.14)">
      <defs>
       <path id="DejaVuSans-69" d="M 603 3500 
L 1178 3500 
L 1178 0 
L 603 0 
L 603 3500 
z
M 603 4863 
L 1178 4863 
L 1178 4134 
L 603 4134 
L 603 4863 
z
" transform="scale(0.015625)"/>
       <path id="DejaVuSans-6d" d="M 3328 2828 
Q 3544 3216 3844 3400 
Q 4144 3584 4550 3584 
Q 5097 3584 5394 3201 
Q 5691 2819 5691 2113 
L 5691 0 
L 5113 0 
L 5113 2094 
Q 5113 2597 4934 2840 
Q 4756 3084 4391 3084 
Q 3944 3084 3684 2787 
Q 3425 2491 3425 1978 
L 3425 0 
L 2847 0 
L 2847 2094 
Q 2847 2600 2669 2842 
Q 2491 3084 2119 3084 
Q 1678 3084 1418 2786 
Q 1159 2488 1159 1978 
L 1159 0 
L 581 0 
L 581 3500 
L 1159 3500 
L 1159 2956 
Q 1356 3278 1631 3431 
Q 1906 3584 2284 3584 
Q 2666 3584 2933 3390 
Q 3200 3197 3328 2828 
z
" transform="scale(0.015625)"/>
       <path id="DejaVuSans-65" d="M 3597 1894 
L 3597 1613 
L 953 1613 
Q 991 1019 1311 708 
Q 1631 397 2203 397 
Q 2534 397 2845 478 
Q 3156 559 3463 722 
L 3463 178 
Q 3153 47 2828 -22 
Q 2503 -91 2169 -91 
Q 1331 -91 842 396 
Q 353 884 353 1716 
Q 353 2575 817 3079 
Q 1281 3584 2069 3584 
Q 2775 3584 3186 3129 
Q 3597 2675 3597 1894 
z
M 3022 2063 
Q 3016 2534 2758 2815 
Q 2500 3097 2075 3097 
Q 1594 3097 1305 2825 
Q 1016 2553 972 2059 
L 3022 2063 
z
" transform="scale(0.015625)"/>
      </defs>
      <use xlink:href="#DejaVuSans-54"/>
      <use xlink:href="#DejaVuSans-69" x="57.958984"/>
      <use xlink:href="#DejaVuSans-6d" x="85.742188"/>
      <use xlink:href="#DejaVuSans-65" x="183.154297"/>
     </g>
    </g>
   </g>
   <g id="matplotlib.axis_10">
    <g id="ytick_10">
     <g id="line2d_83">
      <path d="M 100.8 569.745885 
L 987.84 569.745885 
" clip-path="url(#pe4d264c5fe)" style="fill: none; stroke-dasharray: 1.85,0.8; stroke-dashoffset: 0; stroke: #b2b2b2; stroke-width: 0.5"/>
     </g>
     <g id="line2d_84">
      <g>
       <use xlink:href="#mc639c33fba" x="100.8" y="569.745885" style="stroke: #000000; stroke-width: 0.8"/>
      </g>
     </g>
     <g id="text_21">
      <!-- 0 V -->
      <g transform="translate(74.36625 575.064792) scale(0.14 -0.14)">
       <use xlink:href="#DejaVuSans-30"/>
       <use xlink:href="#DejaVuSans-20" x="63.623047"/>
       <use xlink:href="#DejaVuSans-56" x="95.410156"/>
      </g>
     </g>
    </g>
    <g id="ytick_11">
     <g id="line2d_85">
      <path d="M 100.8 535.950348 
L 987.84 535.950348 
" clip-path="url(#pe4d264c5fe)" style="fill: none; stroke-dasharray: 1.85,0.8; stroke-dashoffset: 0; stroke: #b2b2b2; stroke-width: 0.5"/>
     </g>
     <g id="line2d_86">
      <g>
       <use xlink:href="#mc639c33fba" x="100.8" y="535.950348" style="stroke: #000000; stroke-width: 0.8"/>
      </g>
     </g>
     <g id="text_22">
      <!-- 500 mV -->
      <g transform="translate(42.914375 541.269254) scale(0.14 -0.14)">
       <use xlink:href="#DejaVuSans-35"/>
       <use xlink:href="#DejaVuSans-30" x="63.623047"/>
       <use xlink:href="#DejaVuSans-30" x="127.246094"/>
       <use xlink:href="#DejaVuSans-20" x="190.869141"/>
       <use xlink:href="#DejaVuSans-6d" x="222.65625"/>
       <use xlink:href="#DejaVuSans-56" x="320.068359"/>
      </g>
     </g>
    </g>
    <g id="ytick_12">
     <g id="line2d_87">
      <path d="M 100.8 502.15481 
L 987.84 502.15481 
" clip-path="url(#pe4d264c5fe)" style="fill: none; stroke-dasharray: 1.85,0.8; stroke-dashoffset: 0; stroke: #b2b2b2; stroke-width: 0.5"/>
     </g>
     <g id="line2d_88">
      <g>
       <use xlink:href="#mc639c33fba" x="100.8" y="502.15481" style="stroke: #000000; stroke-width: 0.8"/>
      </g>
     </g>
     <g id="text_23">
      <!-- 1 V -->
      <g transform="translate(74.36625 507.473717) scale(0.14 -0.14)">
       <use xlink:href="#DejaVuSans-31"/>
       <use xlink:href="#DejaVuSans-20" x="63.623047"/>
       <use xlink:href="#DejaVuSans-56" x="95.410156"/>
      </g>
     </g>
    </g>
    <g id="text_24">
     <g id="patch_27">
      <path d="M 34.8768 554.329483 
L 34.8768 506.379483 
L 11.247425 506.379483 
L 11.247425 554.329483 
z
" style="fill: #ffff00; opacity: 0.2; stroke: #eeeeee; stroke-width: 0.5; stroke-linejoin: miter"/>
     </g>
     <!-- FOUT -->
     <g transform="translate(26.925238 549.289483) rotate(-90) scale(0.14 -0.14)">
      <use xlink:href="#DejaVuSans-46"/>
      <use xlink:href="#DejaVuSans-4f" x="57.519531"/>
      <use xlink:href="#DejaVuSans-55" x="136.230469"/>
      <use xlink:href="#DejaVuSans-54" x="209.423828"/>
     </g>
    </g>
   </g>
   <g id="line2d_89">
    <path d="M 141.12 488.636595 
L 173.472768 488.643355 
L 173.505024 488.44734 
L 173.569536 526.789729 
L 173.69856 572.504953 
L 173.730816 572.3695 
L 173.827584 567.842115 
L 173.892096 569.3609 
L 174.053376 570.064192 
L 174.117888 569.946665 
L 174.408192 569.492054 
L 174.440448 569.54151 
L 174.66624 569.729954 
L 176.182272 569.740151 
L 180.117504 569.761449 
L 193.568256 569.752159 
L 212.954112 569.74401 
L 255.30624 569.743704 
L 255.6288 488.52845 
L 255.854592 488.670391 
L 256.209408 488.629836 
L 334.849536 488.650114 
L 334.881792 492.854278 
L 335.043072 572.18376 
L 335.107584 570.261206 
L 335.172096 568.338639 
L 335.236608 568.870108 
L 335.365632 570.783003 
L 335.430144 570.410083 
L 335.591424 569.797213 
L 335.881728 569.648439 
L 336.559104 569.817924 
L 337.107456 569.746143 
L 350.009856 569.744206 
L 416.489472 569.74333 
L 416.553984 567.480841 
L 416.812032 488.204013 
L 416.844288 488.339195 
L 416.973312 488.852887 
L 417.037824 488.778537 
L 417.39264 488.548727 
L 417.844224 488.717705 
L 418.457088 488.562245 
L 419.328 488.636595 
L 626.701824 488.562245 
L 626.73408 488.433822 
L 626.766336 488.582523 
L 626.830848 512.419867 
L 626.959872 570.194845 
L 626.992128 569.798309 
L 627.121152 569.746286 
L 628.604928 569.744212 
L 673.247232 569.797225 
L 673.279488 569.464355 
L 673.344 557.042143 
L 673.537536 488.98131 
L 673.698816 488.643355 
L 674.247168 488.636595 
L 675.376128 488.636595 
L 675.408384 489.832957 
L 675.505152 539.881445 
L 675.634176 569.743545 
L 677.021184 569.744205 
L 738.726912 569.735821 
L 738.759168 569.332829 
L 738.82368 542.116006 
L 738.98496 489.197601 
L 739.113984 488.643355 
L 947.52 488.636595 
L 947.52 488.636595 
" clip-path="url(#pe4d264c5fe)" style="fill: none; stroke: #ff00ff; stroke-width: 2; stroke-linecap: square"/>
   </g>
   <g id="patch_28">
    <path d="M 100.8 576.72 
L 100.8 483.988966 
" style="fill: none; stroke: #bcbcbc; stroke-width: 0.8; stroke-linejoin: miter; stroke-linecap: square"/>
   </g>
   <g id="patch_29">
    <path d="M 987.84 576.72 
L 987.84 483.988966 
" style="fill: none; stroke: #bcbcbc; stroke-width: 0.8; stroke-linejoin: miter; stroke-linecap: square"/>
   </g>
   <g id="patch_30">
    <path d="M 100.8 576.72 
L 987.84 576.72 
" style="fill: none; stroke: #bcbcbc; stroke-width: 0.8; stroke-linejoin: miter; stroke-linecap: square"/>
   </g>
   <g id="patch_31">
    <path d="M 100.8 483.988966 
L 987.84 483.988966 
" style="fill: none; stroke: #bcbcbc; stroke-width: 0.8; stroke-linejoin: miter; stroke-linecap: square"/>
   </g>
  </g>
  <g id="axes_6">
   <g id="patch_32">
    <path d="M 201.6 628.56 
L 856.8 628.56 
L 856.8 615.6 
L 201.6 615.6 
z
" clip-path="url(#pb00023e2c0)" style="fill: #d3d3d3"/>
   </g>
   <g id="patch_33">
    <path d="M 201.6 628.56 
L 814.68 628.56 
L 814.68 615.6 
L 201.6 615.6 
z
" clip-path="url(#pb00023e2c0)" style="fill: #0000ff"/>
   </g>
   <g id="line2d_90">
    <path d="M 201.6 635.04 
L 201.6 609.12 
" clip-path="url(#p049484ac88)" style="fill: none; stroke: #ff0000; stroke-linecap: square"/>
   </g>
   <g id="line2d_91">
    <defs>
     <path id="ma62433cc68" d="M 0 5 
C 1.326016 5 2.597899 4.473168 3.535534 3.535534 
C 4.473168 2.597899 5 1.326016 5 0 
C 5 -1.326016 4.473168 -2.597899 3.535534 -3.535534 
C 2.597899 -4.473168 1.326016 -5 0 -5 
C -1.326016 -5 -2.597899 -4.473168 -3.535534 -3.535534 
C -4.473168 -2.597899 -5 -1.326016 -5 0 
C -5 1.326016 -4.473168 2.597899 -3.535534 3.535534 
C -2.597899 4.473168 -1.326016 5 0 5 
z
" style="stroke: #bfbfbf"/>
    </defs>
    <g>
     <use xlink:href="#ma62433cc68" x="814.68" y="622.08" style="fill: #ffffff; stroke: #bfbfbf"/>
    </g>
   </g>
   <g id="text_25">
    <!-- #Sweep -->
    <g transform="translate(138.622875 625.39125) scale(0.12 -0.12)">
     <defs>
      <path id="DejaVuSans-23" d="M 3272 2816 
L 2363 2816 
L 2100 1772 
L 3016 1772 
L 3272 2816 
z
M 2803 4594 
L 2478 3297 
L 3391 3297 
L 3719 4594 
L 4219 4594 
L 3897 3297 
L 4872 3297 
L 4872 2816 
L 3775 2816 
L 3519 1772 
L 4513 1772 
L 4513 1294 
L 3397 1294 
L 3072 0 
L 2572 0 
L 2894 1294 
L 1978 1294 
L 1656 0 
L 1153 0 
L 1478 1294 
L 494 1294 
L 494 1772 
L 1594 1772 
L 1856 2816 
L 850 2816 
L 850 3297 
L 1978 3297 
L 2297 4594 
L 2803 4594 
z
" transform="scale(0.015625)"/>
      <path id="DejaVuSans-77" d="M 269 3500 
L 844 3500 
L 1563 769 
L 2278 3500 
L 2956 3500 
L 3675 769 
L 4391 3500 
L 4966 3500 
L 4050 0 
L 3372 0 
L 2619 2869 
L 1863 0 
L 1184 0 
L 269 3500 
z
" transform="scale(0.015625)"/>
      <path id="DejaVuSans-70" d="M 1159 525 
L 1159 -1331 
L 581 -1331 
L 581 3500 
L 1159 3500 
L 1159 2969 
Q 1341 3281 1617 3432 
Q 1894 3584 2278 3584 
Q 2916 3584 3314 3078 
Q 3713 2572 3713 1747 
Q 3713 922 3314 415 
Q 2916 -91 2278 -91 
Q 1894 -91 1617 61 
Q 1341 213 1159 525 
z
M 3116 1747 
Q 3116 2381 2855 2742 
Q 2594 3103 2138 3103 
Q 1681 3103 1420 2742 
Q 1159 2381 1159 1747 
Q 1159 1113 1420 752 
Q 1681 391 2138 391 
Q 2594 391 2855 752 
Q 3116 1113 3116 1747 
z
" transform="scale(0.015625)"/>
     </defs>
     <use xlink:href="#DejaVuSans-23"/>
     <use xlink:href="#DejaVuSans-53" x="83.789062"/>
     <use xlink:href="#DejaVuSans-77" x="147.265625"/>
     <use xlink:href="#DejaVuSans-65" x="229.052734"/>
     <use xlink:href="#DejaVuSans-65" x="290.576172"/>
     <use xlink:href="#DejaVuSans-70" x="352.099609"/>
    </g>
   </g>
   <g id="text_26">
    <!-- $\mathdefault{131}$ -->
    <g transform="translate(869.904 625.39125) scale(0.12 -0.12)">
     <defs>
      <path id="DejaVuSans-33" d="M 2597 2516 
Q 3050 2419 3304 2112 
Q 3559 1806 3559 1356 
Q 3559 666 3084 287 
Q 2609 -91 1734 -91 
Q 1441 -91 1130 -33 
Q 819 25 488 141 
L 488 750 
Q 750 597 1062 519 
Q 1375 441 1716 441 
Q 2309 441 2620 675 
Q 2931 909 2931 1356 
Q 2931 1769 2642 2001 
Q 2353 2234 1838 2234 
L 1294 2234 
L 1294 2753 
L 1863 2753 
Q 2328 2753 2575 2939 
Q 2822 3125 2822 3475 
Q 2822 3834 2567 4026 
Q 2313 4219 1838 4219 
Q 1578 4219 1281 4162 
Q 984 4106 628 3988 
L 628 4550 
Q 988 4650 1302 4700 
Q 1616 4750 1894 4750 
Q 2613 4750 3031 4423 
Q 3450 4097 3450 3541 
Q 3450 3153 3228 2886 
Q 3006 2619 2597 2516 
z
" transform="scale(0.015625)"/>
     </defs>
     <use xlink:href="#DejaVuSans-31" transform="translate(0 0.78125)"/>
     <use xlink:href="#DejaVuSans-33" transform="translate(63.623047 0.78125)"/>
     <use xlink:href="#DejaVuSans-31" transform="translate(127.246094 0.78125)"/>
    </g>
   </g>
  </g>
  <g id="text_27">
   <!-- DFF under BBI sweep analysis (Sweep = 141E-9) -->
   <g transform="translate(308.25625 25.1175) scale(0.16 -0.16)">
    <defs>
     <path id="DejaVuSans-75" d="M 544 1381 
L 544 3500 
L 1119 3500 
L 1119 1403 
Q 1119 906 1312 657 
Q 1506 409 1894 409 
Q 2359 409 2629 706 
Q 2900 1003 2900 1516 
L 2900 3500 
L 3475 3500 
L 3475 0 
L 2900 0 
L 2900 538 
Q 2691 219 2414 64 
Q 2138 -91 1772 -91 
Q 1169 -91 856 284 
Q 544 659 544 1381 
z
M 1991 3584 
L 1991 3584 
z
" transform="scale(0.015625)"/>
     <path id="DejaVuSans-64" d="M 2906 2969 
L 2906 4863 
L 3481 4863 
L 3481 0 
L 2906 0 
L 2906 525 
Q 2725 213 2448 61 
Q 2172 -91 1784 -91 
Q 1150 -91 751 415 
Q 353 922 353 1747 
Q 353 2572 751 3078 
Q 1150 3584 1784 3584 
Q 2172 3584 2448 3432 
Q 2725 3281 2906 2969 
z
M 947 1747 
Q 947 1113 1208 752 
Q 1469 391 1925 391 
Q 2381 391 2643 752 
Q 2906 1113 2906 1747 
Q 2906 2381 2643 2742 
Q 2381 3103 1925 3103 
Q 1469 3103 1208 2742 
Q 947 2381 947 1747 
z
" transform="scale(0.015625)"/>
     <path id="DejaVuSans-72" d="M 2631 2963 
Q 2534 3019 2420 3045 
Q 2306 3072 2169 3072 
Q 1681 3072 1420 2755 
Q 1159 2438 1159 1844 
L 1159 0 
L 581 0 
L 581 3500 
L 1159 3500 
L 1159 2956 
Q 1341 3275 1631 3429 
Q 1922 3584 2338 3584 
Q 2397 3584 2469 3576 
Q 2541 3569 2628 3553 
L 2631 2963 
z
" transform="scale(0.015625)"/>
     <path id="DejaVuSans-61" d="M 2194 1759 
Q 1497 1759 1228 1600 
Q 959 1441 959 1056 
Q 959 750 1161 570 
Q 1363 391 1709 391 
Q 2188 391 2477 730 
Q 2766 1069 2766 1631 
L 2766 1759 
L 2194 1759 
z
M 3341 1997 
L 3341 0 
L 2766 0 
L 2766 531 
Q 2569 213 2275 61 
Q 1981 -91 1556 -91 
Q 1019 -91 701 211 
Q 384 513 384 1019 
Q 384 1609 779 1909 
Q 1175 2209 1959 2209 
L 2766 2209 
L 2766 2266 
Q 2766 2663 2505 2880 
Q 2244 3097 1772 3097 
Q 1472 3097 1187 3025 
Q 903 2953 641 2809 
L 641 3341 
Q 956 3463 1253 3523 
Q 1550 3584 1831 3584 
Q 2591 3584 2966 3190 
Q 3341 2797 3341 1997 
z
" transform="scale(0.015625)"/>
     <path id="DejaVuSans-6c" d="M 603 4863 
L 1178 4863 
L 1178 0 
L 603 0 
L 603 4863 
z
" transform="scale(0.015625)"/>
     <path id="DejaVuSans-79" d="M 2059 -325 
Q 1816 -950 1584 -1140 
Q 1353 -1331 966 -1331 
L 506 -1331 
L 506 -850 
L 844 -850 
Q 1081 -850 1212 -737 
Q 1344 -625 1503 -206 
L 1606 56 
L 191 3500 
L 800 3500 
L 1894 763 
L 2988 3500 
L 3597 3500 
L 2059 -325 
z
" transform="scale(0.015625)"/>
     <path id="DejaVuSans-28" d="M 1984 4856 
Q 1566 4138 1362 3434 
Q 1159 2731 1159 2009 
Q 1159 1288 1364 580 
Q 1569 -128 1984 -844 
L 1484 -844 
Q 1016 -109 783 600 
Q 550 1309 550 2009 
Q 550 2706 781 3412 
Q 1013 4119 1484 4856 
L 1984 4856 
z
" transform="scale(0.015625)"/>
     <path id="DejaVuSans-3d" d="M 678 2906 
L 4684 2906 
L 4684 2381 
L 678 2381 
L 678 2906 
z
M 678 1631 
L 4684 1631 
L 4684 1100 
L 678 1100 
L 678 1631 
z
" transform="scale(0.015625)"/>
     <path id="DejaVuSans-34" d="M 2419 4116 
L 825 1625 
L 2419 1625 
L 2419 4116 
z
M 2253 4666 
L 3047 4666 
L 3047 1625 
L 3713 1625 
L 3713 1100 
L 3047 1100 
L 3047 0 
L 2419 0 
L 2419 1100 
L 313 1100 
L 313 1709 
L 2253 4666 
z
" transform="scale(0.015625)"/>
     <path id="DejaVuSans-2d" d="M 313 2009 
L 1997 2009 
L 1997 1497 
L 313 1497 
L 313 2009 
z
" transform="scale(0.015625)"/>
     <path id="DejaVuSans-39" d="M 703 97 
L 703 672 
Q 941 559 1184 500 
Q 1428 441 1663 441 
Q 2288 441 2617 861 
Q 2947 1281 2994 2138 
Q 2813 1869 2534 1725 
Q 2256 1581 1919 1581 
Q 1219 1581 811 2004 
Q 403 2428 403 3163 
Q 403 3881 828 4315 
Q 1253 4750 1959 4750 
Q 2769 4750 3195 4129 
Q 3622 3509 3622 2328 
Q 3622 1225 3098 567 
Q 2575 -91 1691 -91 
Q 1453 -91 1209 -44 
Q 966 3 703 97 
z
M 1959 2075 
Q 2384 2075 2632 2365 
Q 2881 2656 2881 3163 
Q 2881 3666 2632 3958 
Q 2384 4250 1959 4250 
Q 1534 4250 1286 3958 
Q 1038 3666 1038 3163 
Q 1038 2656 1286 2365 
Q 1534 2075 1959 2075 
z
" transform="scale(0.015625)"/>
     <path id="DejaVuSans-29" d="M 513 4856 
L 1013 4856 
Q 1481 4119 1714 3412 
Q 1947 2706 1947 2009 
Q 1947 1309 1714 600 
Q 1481 -109 1013 -844 
L 513 -844 
Q 928 -128 1133 580 
Q 1338 1288 1338 2009 
Q 1338 2731 1133 3434 
Q 928 4138 513 4856 
z
" transform="scale(0.015625)"/>
    </defs>
    <use xlink:href="#DejaVuSans-44"/>
    <use xlink:href="#DejaVuSans-46" x="77.001953"/>
    <use xlink:href="#DejaVuSans-46" x="134.521484"/>
    <use xlink:href="#DejaVuSans-20" x="192.041016"/>
    <use xlink:href="#DejaVuSans-75" x="223.828125"/>
    <use xlink:href="#DejaVuSans-6e" x="287.207031"/>
    <use xlink:href="#DejaVuSans-64" x="350.585938"/>
    <use xlink:href="#DejaVuSans-65" x="414.0625"/>
    <use xlink:href="#DejaVuSans-72" x="475.585938"/>
    <use xlink:href="#DejaVuSans-20" x="516.699219"/>
    <use xlink:href="#DejaVuSans-42" x="548.486328"/>
    <use xlink:href="#DejaVuSans-42" x="617.089844"/>
    <use xlink:href="#DejaVuSans-49" x="685.693359"/>
    <use xlink:href="#DejaVuSans-20" x="715.185547"/>
    <use xlink:href="#DejaVuSans-73" x="746.972656"/>
    <use xlink:href="#DejaVuSans-77" x="799.072266"/>
    <use xlink:href="#DejaVuSans-65" x="880.859375"/>
    <use xlink:href="#DejaVuSans-65" x="942.382812"/>
    <use xlink:href="#DejaVuSans-70" x="1003.90625"/>
    <use xlink:href="#DejaVuSans-20" x="1067.382812"/>
    <use xlink:href="#DejaVuSans-61" x="1099.169922"/>
    <use xlink:href="#DejaVuSans-6e" x="1160.449219"/>
    <use xlink:href="#DejaVuSans-61" x="1223.828125"/>
    <use xlink:href="#DejaVuSans-6c" x="1285.107422"/>
    <use xlink:href="#DejaVuSans-79" x="1312.890625"/>
    <use xlink:href="#DejaVuSans-73" x="1372.070312"/>
    <use xlink:href="#DejaVuSans-69" x="1424.169922"/>
    <use xlink:href="#DejaVuSans-73" x="1451.953125"/>
    <use xlink:href="#DejaVuSans-20" x="1504.052734"/>
    <use xlink:href="#DejaVuSans-28" x="1535.839844"/>
    <use xlink:href="#DejaVuSans-53" x="1574.853516"/>
    <use xlink:href="#DejaVuSans-77" x="1638.330078"/>
    <use xlink:href="#DejaVuSans-65" x="1720.117188"/>
    <use xlink:href="#DejaVuSans-65" x="1781.640625"/>
    <use xlink:href="#DejaVuSans-70" x="1843.164062"/>
    <use xlink:href="#DejaVuSans-20" x="1906.640625"/>
    <use xlink:href="#DejaVuSans-3d" x="1938.427734"/>
    <use xlink:href="#DejaVuSans-20" x="2022.216797"/>
    <use xlink:href="#DejaVuSans-31" x="2054.003906"/>
    <use xlink:href="#DejaVuSans-34" x="2117.626953"/>
    <use xlink:href="#DejaVuSans-31" x="2181.25"/>
    <use xlink:href="#DejaVuSans-45" x="2244.873047"/>
    <use xlink:href="#DejaVuSans-2d" x="2308.056641"/>
    <use xlink:href="#DejaVuSans-39" x="2344.140625"/>
    <use xlink:href="#DejaVuSans-29" x="2407.763672"/>
   </g>
  </g>
 </g>
 <defs>
  <clipPath id="pe1d059ff82">
   <rect x="100.8" y="38.88" width="887.04" height="92.731034"/>
  </clipPath>
  <clipPath id="peb62fddfd4">
   <rect x="100.8" y="150.157241" width="887.04" height="92.731034"/>
  </clipPath>
  <clipPath id="pcea30ff66b">
   <rect x="100.8" y="261.434483" width="887.04" height="92.731034"/>
  </clipPath>
  <clipPath id="p2bbc67db6e">
   <rect x="100.8" y="372.711724" width="887.04" height="92.731034"/>
  </clipPath>
  <clipPath id="pe4d264c5fe">
   <rect x="100.8" y="483.988966" width="887.04" height="92.731034"/>
  </clipPath>
  <clipPath id="pb00023e2c0">
   <rect x="201.6" y="609.12" width="655.2" height="25.92"/>
  </clipPath>
  <clipPath id="p049484ac88">
   <path d="M 201.6 628.56 
L 856.8 628.56 
L 856.8 615.6 
L 201.6 615.6 
z
"/>
  </clipPath>
 </defs>
</svg>
