<?xml version="1.0" encoding="utf-8" standalone="no"?>
<!DOCTYPE svg PUBLIC "-//W3C//DTD SVG 1.1//EN"
  "http://www.w3.org/Graphics/SVG/1.1/DTD/svg11.dtd">
<svg xmlns:xlink="http://www.w3.org/1999/xlink" width="1008pt" height="648pt" viewBox="0 0 1008 648" xmlns="http://www.w3.org/2000/svg" version="1.1">
 <metadata>
  <rdf:RDF xmlns:dc="http://purl.org/dc/elements/1.1/" xmlns:cc="http://creativecommons.org/ns#" xmlns:rdf="http://www.w3.org/1999/02/22-rdf-syntax-ns#">
   <cc:Work>
    <dc:type rdf:resource="http://purl.org/dc/dcmitype/StillImage"/>
    <dc:date>2024-06-03T10:45:51.476099</dc:date>
    <dc:format>image/svg+xml</dc:format>
    <dc:creator>
     <cc:Agent>
      <dc:title>Matplotlib v3.9.0, https://matplotlib.org/</dc:title>
     </cc:Agent>
    </dc:creator>
   </cc:Work>
  </rdf:RDF>
 </metadata>
 <defs>
  <style type="text/css">*{stroke-linejoin: round; stroke-linecap: butt}</style>
 </defs>
 <g id="figure_1">
  <g id="patch_1">
   <path d="M 0 648 
L 1008 648 
L 1008 0 
L 0 0 
z
" style="fill: #ffffff"/>
  </g>
  <g id="axes_1">
   <g id="patch_2">
    <path d="M 100.8 131.611034 
L 987.84 131.611034 
L 987.84 38.88 
L 100.8 38.88 
z
" style="fill: #eeeeee"/>
   </g>
   <g id="matplotlib.axis_1">
    <g id="xtick_1">
     <g id="line2d_1">
      <path d="M 141.12 131.611034 
L 141.12 38.88 
" clip-path="url(#p6f98c05eae)" style="fill: none; stroke-dasharray: 1.85,0.8; stroke-dashoffset: 0; stroke: #b2b2b2; stroke-width: 0.5"/>
     </g>
     <g id="line2d_2">
      <defs>
       <path id="m6417edc30c" d="M 0 0 
L 0 -3.5 
" style="stroke: #000000; stroke-width: 0.8"/>
      </defs>
      <g>
       <use xlink:href="#m6417edc30c" x="141.12" y="131.611034" style="stroke: #000000; stroke-width: 0.8"/>
      </g>
     </g>
    </g>
    <g id="xtick_2">
     <g id="line2d_3">
      <path d="M 302.4 131.611034 
L 302.4 38.88 
" clip-path="url(#p6f98c05eae)" style="fill: none; stroke-dasharray: 1.85,0.8; stroke-dashoffset: 0; stroke: #b2b2b2; stroke-width: 0.5"/>
     </g>
     <g id="line2d_4">
      <g>
       <use xlink:href="#m6417edc30c" x="302.4" y="131.611034" style="stroke: #000000; stroke-width: 0.8"/>
      </g>
     </g>
    </g>
    <g id="xtick_3">
     <g id="line2d_5">
      <path d="M 463.68 131.611034 
L 463.68 38.88 
" clip-path="url(#p6f98c05eae)" style="fill: none; stroke-dasharray: 1.85,0.8; stroke-dashoffset: 0; stroke: #b2b2b2; stroke-width: 0.5"/>
     </g>
     <g id="line2d_6">
      <g>
       <use xlink:href="#m6417edc30c" x="463.68" y="131.611034" style="stroke: #000000; stroke-width: 0.8"/>
      </g>
     </g>
    </g>
    <g id="xtick_4">
     <g id="line2d_7">
      <path d="M 624.96 131.611034 
L 624.96 38.88 
" clip-path="url(#p6f98c05eae)" style="fill: none; stroke-dasharray: 1.85,0.8; stroke-dashoffset: 0; stroke: #b2b2b2; stroke-width: 0.5"/>
     </g>
     <g id="line2d_8">
      <g>
       <use xlink:href="#m6417edc30c" x="624.96" y="131.611034" style="stroke: #000000; stroke-width: 0.8"/>
      </g>
     </g>
    </g>
    <g id="xtick_5">
     <g id="line2d_9">
      <path d="M 786.24 131.611034 
L 786.24 38.88 
" clip-path="url(#p6f98c05eae)" style="fill: none; stroke-dasharray: 1.85,0.8; stroke-dashoffset: 0; stroke: #b2b2b2; stroke-width: 0.5"/>
     </g>
     <g id="line2d_10">
      <g>
       <use xlink:href="#m6417edc30c" x="786.24" y="131.611034" style="stroke: #000000; stroke-width: 0.8"/>
      </g>
     </g>
    </g>
    <g id="xtick_6">
     <g id="line2d_11">
      <path d="M 947.52 131.611034 
L 947.52 38.88 
" clip-path="url(#p6f98c05eae)" style="fill: none; stroke-dasharray: 1.85,0.8; stroke-dashoffset: 0; stroke: #b2b2b2; stroke-width: 0.5"/>
     </g>
     <g id="line2d_12">
      <g>
       <use xlink:href="#m6417edc30c" x="947.52" y="131.611034" style="stroke: #000000; stroke-width: 0.8"/>
      </g>
     </g>
    </g>
   </g>
   <g id="matplotlib.axis_2">
    <g id="ytick_1">
     <g id="line2d_13">
      <path d="M 100.8 98.340394 
L 987.84 98.340394 
" clip-path="url(#p6f98c05eae)" style="fill: none; stroke-dasharray: 1.85,0.8; stroke-dashoffset: 0; stroke: #b2b2b2; stroke-width: 0.5"/>
     </g>
     <g id="line2d_14">
      <defs>
       <path id="md05779a42d" d="M 0 0 
L 3.5 0 
" style="stroke: #000000; stroke-width: 0.8"/>
      </defs>
      <g>
       <use xlink:href="#md05779a42d" x="100.8" y="98.340394" style="stroke: #000000; stroke-width: 0.8"/>
      </g>
     </g>
     <g id="text_1">
      <!-- −200 V -->
      <g transform="translate(44.819688 103.6593) scale(0.14 -0.14)">
       <defs>
        <path id="DejaVuSans-2212" d="M 678 2272 
L 4684 2272 
L 4684 1741 
L 678 1741 
L 678 2272 
z
" transform="scale(0.015625)"/>
        <path id="DejaVuSans-32" d="M 1228 531 
L 3431 531 
L 3431 0 
L 469 0 
L 469 531 
Q 828 903 1448 1529 
Q 2069 2156 2228 2338 
Q 2531 2678 2651 2914 
Q 2772 3150 2772 3378 
Q 2772 3750 2511 3984 
Q 2250 4219 1831 4219 
Q 1534 4219 1204 4116 
Q 875 4013 500 3803 
L 500 4441 
Q 881 4594 1212 4672 
Q 1544 4750 1819 4750 
Q 2544 4750 2975 4387 
Q 3406 4025 3406 3419 
Q 3406 3131 3298 2873 
Q 3191 2616 2906 2266 
Q 2828 2175 2409 1742 
Q 1991 1309 1228 531 
z
" transform="scale(0.015625)"/>
        <path id="DejaVuSans-30" d="M 2034 4250 
Q 1547 4250 1301 3770 
Q 1056 3291 1056 2328 
Q 1056 1369 1301 889 
Q 1547 409 2034 409 
Q 2525 409 2770 889 
Q 3016 1369 3016 2328 
Q 3016 3291 2770 3770 
Q 2525 4250 2034 4250 
z
M 2034 4750 
Q 2819 4750 3233 4129 
Q 3647 3509 3647 2328 
Q 3647 1150 3233 529 
Q 2819 -91 2034 -91 
Q 1250 -91 836 529 
Q 422 1150 422 2328 
Q 422 3509 836 4129 
Q 1250 4750 2034 4750 
z
" transform="scale(0.015625)"/>
        <path id="DejaVuSans-20" transform="scale(0.015625)"/>
        <path id="DejaVuSans-56" d="M 1831 0 
L 50 4666 
L 709 4666 
L 2188 738 
L 3669 4666 
L 4325 4666 
L 2547 0 
L 1831 0 
z
" transform="scale(0.015625)"/>
       </defs>
       <use xlink:href="#DejaVuSans-2212"/>
       <use xlink:href="#DejaVuSans-32" x="83.789062"/>
       <use xlink:href="#DejaVuSans-30" x="147.412109"/>
       <use xlink:href="#DejaVuSans-30" x="211.035156"/>
       <use xlink:href="#DejaVuSans-20" x="274.658203"/>
       <use xlink:href="#DejaVuSans-56" x="306.445312"/>
      </g>
     </g>
    </g>
    <g id="ytick_2">
     <g id="line2d_15">
      <path d="M 100.8 45.027377 
L 987.84 45.027377 
" clip-path="url(#p6f98c05eae)" style="fill: none; stroke-dasharray: 1.85,0.8; stroke-dashoffset: 0; stroke: #b2b2b2; stroke-width: 0.5"/>
     </g>
     <g id="line2d_16">
      <g>
       <use xlink:href="#md05779a42d" x="100.8" y="45.027377" style="stroke: #000000; stroke-width: 0.8"/>
      </g>
     </g>
     <g id="text_2">
      <!-- 0 V -->
      <g transform="translate(74.36625 50.346284) scale(0.14 -0.14)">
       <use xlink:href="#DejaVuSans-30"/>
       <use xlink:href="#DejaVuSans-20" x="63.623047"/>
       <use xlink:href="#DejaVuSans-56" x="95.410156"/>
      </g>
     </g>
    </g>
    <g id="text_3">
     <g id="patch_3">
      <path d="M 34.8768 131.080205 
L 34.8768 39.41083 
L 11.247425 39.41083 
L 11.247425 131.080205 
z
" style="fill: #ffff00; opacity: 0.2; stroke: #eeeeee; stroke-width: 0.5; stroke-linejoin: miter"/>
     </g>
     <!-- VPULSE BBI -->
     <g transform="translate(26.925238 126.040205) rotate(-90) scale(0.14 -0.14)">
      <defs>
       <path id="DejaVuSans-50" d="M 1259 4147 
L 1259 2394 
L 2053 2394 
Q 2494 2394 2734 2622 
Q 2975 2850 2975 3272 
Q 2975 3691 2734 3919 
Q 2494 4147 2053 4147 
L 1259 4147 
z
M 628 4666 
L 2053 4666 
Q 2838 4666 3239 4311 
Q 3641 3956 3641 3272 
Q 3641 2581 3239 2228 
Q 2838 1875 2053 1875 
L 1259 1875 
L 1259 0 
L 628 0 
L 628 4666 
z
" transform="scale(0.015625)"/>
       <path id="DejaVuSans-55" d="M 556 4666 
L 1191 4666 
L 1191 1831 
Q 1191 1081 1462 751 
Q 1734 422 2344 422 
Q 2950 422 3222 751 
Q 3494 1081 3494 1831 
L 3494 4666 
L 4128 4666 
L 4128 1753 
Q 4128 841 3676 375 
Q 3225 -91 2344 -91 
Q 1459 -91 1007 375 
Q 556 841 556 1753 
L 556 4666 
z
" transform="scale(0.015625)"/>
       <path id="DejaVuSans-4c" d="M 628 4666 
L 1259 4666 
L 1259 531 
L 3531 531 
L 3531 0 
L 628 0 
L 628 4666 
z
" transform="scale(0.015625)"/>
       <path id="DejaVuSans-53" d="M 3425 4513 
L 3425 3897 
Q 3066 4069 2747 4153 
Q 2428 4238 2131 4238 
Q 1616 4238 1336 4038 
Q 1056 3838 1056 3469 
Q 1056 3159 1242 3001 
Q 1428 2844 1947 2747 
L 2328 2669 
Q 3034 2534 3370 2195 
Q 3706 1856 3706 1288 
Q 3706 609 3251 259 
Q 2797 -91 1919 -91 
Q 1588 -91 1214 -16 
Q 841 59 441 206 
L 441 856 
Q 825 641 1194 531 
Q 1563 422 1919 422 
Q 2459 422 2753 634 
Q 3047 847 3047 1241 
Q 3047 1584 2836 1778 
Q 2625 1972 2144 2069 
L 1759 2144 
Q 1053 2284 737 2584 
Q 422 2884 422 3419 
Q 422 4038 858 4394 
Q 1294 4750 2059 4750 
Q 2388 4750 2728 4690 
Q 3069 4631 3425 4513 
z
" transform="scale(0.015625)"/>
       <path id="DejaVuSans-45" d="M 628 4666 
L 3578 4666 
L 3578 4134 
L 1259 4134 
L 1259 2753 
L 3481 2753 
L 3481 2222 
L 1259 2222 
L 1259 531 
L 3634 531 
L 3634 0 
L 628 0 
L 628 4666 
z
" transform="scale(0.015625)"/>
       <path id="DejaVuSans-42" d="M 1259 2228 
L 1259 519 
L 2272 519 
Q 2781 519 3026 730 
Q 3272 941 3272 1375 
Q 3272 1813 3026 2020 
Q 2781 2228 2272 2228 
L 1259 2228 
z
M 1259 4147 
L 1259 2741 
L 2194 2741 
Q 2656 2741 2882 2914 
Q 3109 3088 3109 3444 
Q 3109 3797 2882 3972 
Q 2656 4147 2194 4147 
L 1259 4147 
z
M 628 4666 
L 2241 4666 
Q 2963 4666 3353 4366 
Q 3744 4066 3744 3513 
Q 3744 3084 3544 2831 
Q 3344 2578 2956 2516 
Q 3422 2416 3680 2098 
Q 3938 1781 3938 1306 
Q 3938 681 3513 340 
Q 3088 0 2303 0 
L 628 0 
L 628 4666 
z
" transform="scale(0.015625)"/>
       <path id="DejaVuSans-49" d="M 628 4666 
L 1259 4666 
L 1259 0 
L 628 0 
L 628 4666 
z
" transform="scale(0.015625)"/>
      </defs>
      <use xlink:href="#DejaVuSans-56"/>
      <use xlink:href="#DejaVuSans-50" x="68.408203"/>
      <use xlink:href="#DejaVuSans-55" x="128.710938"/>
      <use xlink:href="#DejaVuSans-4c" x="201.904297"/>
      <use xlink:href="#DejaVuSans-53" x="257.617188"/>
      <use xlink:href="#DejaVuSans-45" x="321.09375"/>
      <use xlink:href="#DejaVuSans-20" x="384.277344"/>
      <use xlink:href="#DejaVuSans-42" x="416.064453"/>
      <use xlink:href="#DejaVuSans-42" x="484.667969"/>
      <use xlink:href="#DejaVuSans-49" x="553.271484"/>
     </g>
    </g>
   </g>
   <g id="line2d_17">
    <path d="M 141.12 45.027377 
L 518.547456 45.136282 
L 519.031296 46.425538 
L 527.256576 69.006772 
L 534.675456 89.863624 
L 536.288256 94.440546 
L 538.094592 99.673219 
L 541.57824 110.807642 
L 543.158784 115.851054 
L 544.416768 119.566971 
L 545.642496 120.153414 
L 546.481152 120.545265 
L 547.513344 121.017085 
L 548.093952 121.272988 
L 548.964864 121.656841 
L 549.545472 121.912744 
L 550.384128 122.269941 
L 551.964672 122.936354 
L 552.609792 123.202919 
L 553.706496 123.629423 
L 554.448384 123.922644 
L 555.545088 124.349149 
L 556.448256 124.677024 
L 557.125632 124.943589 
L 557.932032 125.25547 
L 559.286784 125.804594 
L 561.931776 126.790885 
L 562.54464 127.022796 
L 564.48 127.395987 
L 582.962688 127.289361 
L 583.18848 126.801547 
L 601.477632 75.087922 
L 605.219328 63.292417 
L 608.928768 51.617666 
L 613.541376 49.3412 
L 618.895872 46.984578 
L 627.604992 43.484472 
L 628.475904 43.268927 
L 642.765312 43.108189 
L 649.571328 43.184799 
L 664.925184 43.746186 
L 692.6976 44.46146 
L 718.34112 44.774399 
L 753.951744 44.945888 
L 801.980928 44.953885 
L 947.52 44.953885 
L 947.52 44.953885 
" clip-path="url(#p6f98c05eae)" style="fill: none; stroke: #ff0000; stroke-width: 2; stroke-linecap: square"/>
   </g>
   <g id="patch_4">
    <path d="M 100.8 131.611034 
L 100.8 38.88 
" style="fill: none; stroke: #bcbcbc; stroke-width: 0.8; stroke-linejoin: miter; stroke-linecap: square"/>
   </g>
   <g id="patch_5">
    <path d="M 987.84 131.611034 
L 987.84 38.88 
" style="fill: none; stroke: #bcbcbc; stroke-width: 0.8; stroke-linejoin: miter; stroke-linecap: square"/>
   </g>
   <g id="patch_6">
    <path d="M 100.8 131.611034 
L 987.84 131.611034 
" style="fill: none; stroke: #bcbcbc; stroke-width: 0.8; stroke-linejoin: miter; stroke-linecap: square"/>
   </g>
   <g id="patch_7">
    <path d="M 100.8 38.88 
L 987.84 38.88 
" style="fill: none; stroke: #bcbcbc; stroke-width: 0.8; stroke-linejoin: miter; stroke-linecap: square"/>
   </g>
  </g>
  <g id="axes_2">
   <g id="patch_8">
    <path d="M 100.8 242.888276 
L 987.84 242.888276 
L 987.84 150.157241 
L 100.8 150.157241 
z
" style="fill: #eeeeee"/>
   </g>
   <g id="matplotlib.axis_3">
    <g id="xtick_7">
     <g id="line2d_18">
      <path d="M 141.12 242.888276 
L 141.12 150.157241 
" clip-path="url(#pf17a0db9ae)" style="fill: none; stroke-dasharray: 1.85,0.8; stroke-dashoffset: 0; stroke: #b2b2b2; stroke-width: 0.5"/>
     </g>
     <g id="line2d_19">
      <g>
       <use xlink:href="#m6417edc30c" x="141.12" y="242.888276" style="stroke: #000000; stroke-width: 0.8"/>
      </g>
     </g>
    </g>
    <g id="xtick_8">
     <g id="line2d_20">
      <path d="M 302.4 242.888276 
L 302.4 150.157241 
" clip-path="url(#pf17a0db9ae)" style="fill: none; stroke-dasharray: 1.85,0.8; stroke-dashoffset: 0; stroke: #b2b2b2; stroke-width: 0.5"/>
     </g>
     <g id="line2d_21">
      <g>
       <use xlink:href="#m6417edc30c" x="302.4" y="242.888276" style="stroke: #000000; stroke-width: 0.8"/>
      </g>
     </g>
    </g>
    <g id="xtick_9">
     <g id="line2d_22">
      <path d="M 463.68 242.888276 
L 463.68 150.157241 
" clip-path="url(#pf17a0db9ae)" style="fill: none; stroke-dasharray: 1.85,0.8; stroke-dashoffset: 0; stroke: #b2b2b2; stroke-width: 0.5"/>
     </g>
     <g id="line2d_23">
      <g>
       <use xlink:href="#m6417edc30c" x="463.68" y="242.888276" style="stroke: #000000; stroke-width: 0.8"/>
      </g>
     </g>
    </g>
    <g id="xtick_10">
     <g id="line2d_24">
      <path d="M 624.96 242.888276 
L 624.96 150.157241 
" clip-path="url(#pf17a0db9ae)" style="fill: none; stroke-dasharray: 1.85,0.8; stroke-dashoffset: 0; stroke: #b2b2b2; stroke-width: 0.5"/>
     </g>
     <g id="line2d_25">
      <g>
       <use xlink:href="#m6417edc30c" x="624.96" y="242.888276" style="stroke: #000000; stroke-width: 0.8"/>
      </g>
     </g>
    </g>
    <g id="xtick_11">
     <g id="line2d_26">
      <path d="M 786.24 242.888276 
L 786.24 150.157241 
" clip-path="url(#pf17a0db9ae)" style="fill: none; stroke-dasharray: 1.85,0.8; stroke-dashoffset: 0; stroke: #b2b2b2; stroke-width: 0.5"/>
     </g>
     <g id="line2d_27">
      <g>
       <use xlink:href="#m6417edc30c" x="786.24" y="242.888276" style="stroke: #000000; stroke-width: 0.8"/>
      </g>
     </g>
    </g>
    <g id="xtick_12">
     <g id="line2d_28">
      <path d="M 947.52 242.888276 
L 947.52 150.157241 
" clip-path="url(#pf17a0db9ae)" style="fill: none; stroke-dasharray: 1.85,0.8; stroke-dashoffset: 0; stroke: #b2b2b2; stroke-width: 0.5"/>
     </g>
     <g id="line2d_29">
      <g>
       <use xlink:href="#m6417edc30c" x="947.52" y="242.888276" style="stroke: #000000; stroke-width: 0.8"/>
      </g>
     </g>
    </g>
   </g>
   <g id="matplotlib.axis_4">
    <g id="ytick_3">
     <g id="line2d_30">
      <path d="M 100.8 219.413315 
L 987.84 219.413315 
" clip-path="url(#pf17a0db9ae)" style="fill: none; stroke-dasharray: 1.85,0.8; stroke-dashoffset: 0; stroke: #b2b2b2; stroke-width: 0.5"/>
     </g>
     <g id="line2d_31">
      <g>
       <use xlink:href="#md05779a42d" x="100.8" y="219.413315" style="stroke: #000000; stroke-width: 0.8"/>
      </g>
     </g>
     <g id="text_4">
      <!-- 0 V -->
      <g transform="translate(74.36625 224.732221) scale(0.14 -0.14)">
       <use xlink:href="#DejaVuSans-30"/>
       <use xlink:href="#DejaVuSans-20" x="63.623047"/>
       <use xlink:href="#DejaVuSans-56" x="95.410156"/>
      </g>
     </g>
    </g>
    <g id="ytick_4">
     <g id="line2d_32">
      <path d="M 100.8 185.805592 
L 987.84 185.805592 
" clip-path="url(#pf17a0db9ae)" style="fill: none; stroke-dasharray: 1.85,0.8; stroke-dashoffset: 0; stroke: #b2b2b2; stroke-width: 0.5"/>
     </g>
     <g id="line2d_33">
      <g>
       <use xlink:href="#md05779a42d" x="100.8" y="185.805592" style="stroke: #000000; stroke-width: 0.8"/>
      </g>
     </g>
     <g id="text_5">
      <!-- 1 V -->
      <g transform="translate(74.36625 191.124498) scale(0.14 -0.14)">
       <defs>
        <path id="DejaVuSans-31" d="M 794 531 
L 1825 531 
L 1825 4091 
L 703 3866 
L 703 4441 
L 1819 4666 
L 2450 4666 
L 2450 531 
L 3481 531 
L 3481 0 
L 794 0 
L 794 531 
z
" transform="scale(0.015625)"/>
       </defs>
       <use xlink:href="#DejaVuSans-31"/>
       <use xlink:href="#DejaVuSans-20" x="63.623047"/>
       <use xlink:href="#DejaVuSans-56" x="95.410156"/>
      </g>
     </g>
    </g>
    <g id="ytick_5">
     <g id="line2d_34">
      <path d="M 100.8 152.197869 
L 987.84 152.197869 
" clip-path="url(#pf17a0db9ae)" style="fill: none; stroke-dasharray: 1.85,0.8; stroke-dashoffset: 0; stroke: #b2b2b2; stroke-width: 0.5"/>
     </g>
     <g id="line2d_35">
      <g>
       <use xlink:href="#md05779a42d" x="100.8" y="152.197869" style="stroke: #000000; stroke-width: 0.8"/>
      </g>
     </g>
     <g id="text_6">
      <!-- 2 V -->
      <g transform="translate(74.36625 157.516775) scale(0.14 -0.14)">
       <use xlink:href="#DejaVuSans-32"/>
       <use xlink:href="#DejaVuSans-20" x="63.623047"/>
       <use xlink:href="#DejaVuSans-56" x="95.410156"/>
      </g>
     </g>
    </g>
    <g id="text_7">
     <g id="patch_9">
      <path d="M 34.8768 224.531509 
L 34.8768 168.514009 
L 11.247425 168.514009 
L 11.247425 224.531509 
z
" style="fill: #ffff00; opacity: 0.2; stroke: #eeeeee; stroke-width: 0.5; stroke-linejoin: miter"/>
     </g>
     <!-- DFF IN -->
     <g transform="translate(26.925238 219.491509) rotate(-90) scale(0.14 -0.14)">
      <defs>
       <path id="DejaVuSans-44" d="M 1259 4147 
L 1259 519 
L 2022 519 
Q 2988 519 3436 956 
Q 3884 1394 3884 2338 
Q 3884 3275 3436 3711 
Q 2988 4147 2022 4147 
L 1259 4147 
z
M 628 4666 
L 1925 4666 
Q 3281 4666 3915 4102 
Q 4550 3538 4550 2338 
Q 4550 1131 3912 565 
Q 3275 0 1925 0 
L 628 0 
L 628 4666 
z
" transform="scale(0.015625)"/>
       <path id="DejaVuSans-46" d="M 628 4666 
L 3309 4666 
L 3309 4134 
L 1259 4134 
L 1259 2759 
L 3109 2759 
L 3109 2228 
L 1259 2228 
L 1259 0 
L 628 0 
L 628 4666 
z
" transform="scale(0.015625)"/>
       <path id="DejaVuSans-4e" d="M 628 4666 
L 1478 4666 
L 3547 763 
L 3547 4666 
L 4159 4666 
L 4159 0 
L 3309 0 
L 1241 3903 
L 1241 0 
L 628 0 
L 628 4666 
z
" transform="scale(0.015625)"/>
      </defs>
      <use xlink:href="#DejaVuSans-44"/>
      <use xlink:href="#DejaVuSans-46" x="77.001953"/>
      <use xlink:href="#DejaVuSans-46" x="134.521484"/>
      <use xlink:href="#DejaVuSans-20" x="192.041016"/>
      <use xlink:href="#DejaVuSans-49" x="223.828125"/>
      <use xlink:href="#DejaVuSans-4e" x="253.320312"/>
     </g>
    </g>
   </g>
   <g id="line2d_36">
    <path d="M 141.12 219.364234 
L 221.953536 219.318148 
L 224.437248 200.592318 
L 225.404928 194.895809 
L 228.243456 182.370883 
L 229.598208 181.113954 
L 231.178752 180.250235 
L 236.565504 179.799892 
L 243.661824 179.688986 
L 245.1456 179.645296 
L 248.403456 179.534391 
L 250.113024 179.467175 
L 252.177408 179.35627 
L 254.241792 179.030275 
L 254.757888 178.499273 
L 255.499776 178.163196 
L 256.370688 178.18336 
L 257.531904 178.415253 
L 259.98336 178.815185 
L 262.370304 178.952977 
L 263.886336 179.003389 
L 264.144384 184.1857 
L 264.434688 187.711822 
L 265.176576 192.409173 
L 267.144192 209.554825 
L 268.402176 215.992385 
L 269.079552 217.305102 
L 270.46656 219.005183 
L 273.724416 219.41513 
L 282.594816 219.368674 
L 297.110016 219.357445 
L 305.883648 219.363438 
L 347.751936 219.319825 
L 350.235648 200.631975 
L 351.622656 192.087883 
L 352.687104 186.753666 
L 354.97728 179.934323 
L 358.493184 178.946256 
L 360.235008 179.016832 
L 363.073536 179.127737 
L 364.396032 179.154623 
L 375.169536 179.2252 
L 375.717888 180.206545 
L 376.169472 180.949276 
L 377.008128 181.846602 
L 377.524224 181.79619 
L 378.427392 181.507164 
L 380.427264 180.381305 
L 381.58848 180.01162 
L 387.201024 179.537751 
L 389.65248 179.426846 
L 391.813632 179.31258 
L 394.555392 179.201674 
L 395.9424 179.168066 
L 415.392768 179.060522 
L 415.973376 178.44214 
L 416.844288 178.109423 
L 417.908736 178.213607 
L 419.16672 178.492551 
L 420.908544 178.744609 
L 424.00512 178.956338 
L 455.712768 179.057161 
L 456.809472 179.937683 
L 457.261056 180.00826 
L 458.712576 180.048589 
L 462.744576 179.517587 
L 464.16384 179.332744 
L 467.518464 179.09413 
L 496.065024 179.013471 
L 496.58112 178.479108 
L 497.258496 178.176639 
L 498.3552 178.166556 
L 501.838848 178.781578 
L 504.612864 178.959699 
L 518.5152 179.063883 
L 518.644224 179.208396 
L 521.385984 183.849622 
L 527.837184 192.746931 
L 528.417792 194.562756 
L 530.707968 203.264804 
L 531.09504 204.983839 
L 533.67552 215.612617 
L 535.997952 223.302065 
L 536.610816 224.474974 
L 537.320448 226.106965 
L 537.70752 226.486396 
L 537.933312 226.996562 
L 538.546176 228.53109 
L 539.030016 229.265419 
L 539.126784 229.469418 
L 539.900928 231.121237 
L 540.255744 231.6556 
L 540.675072 232.54923 
L 541.158912 233.447564 
L 541.287936 233.648874 
L 541.707264 234.226591 
L 542.965248 236.506203 
L 543.062016 236.658446 
L 543.384576 237.295312 
L 544.352256 238.671885 
L 544.610304 238.575094 
L 545.545728 237.385045 
L 546.029568 236.44907 
L 546.09408 236.40706 
L 546.287616 236.174495 
L 547.932672 234.217853 
L 549.771264 232.469243 
L 550.061568 231.979579 
L 550.351872 231.806835 
L 550.513152 231.715422 
L 550.996992 231.414633 
L 551.545344 231.044948 
L 553.609728 229.128972 
L 554.061312 228.873217 
L 555.480576 227.529916 
L 555.706368 227.232152 
L 555.835392 227.176699 
L 556.480512 226.79794 
L 556.964352 226.462199 
L 558.35136 225.337348 
L 558.964224 224.532443 
L 559.351296 224.472958 
L 559.706112 224.332477 
L 560.512512 223.755097 
L 561.931776 222.651318 
L 562.318848 222.241472 
L 563.060736 221.756815 
L 564.189696 220.736317 
L 564.867072 219.92842 
L 567.995904 215.586403 
L 571.57632 211.208661 
L 572.898816 209.686904 
L 573.3504 208.432327 
L 574.382592 205.319916 
L 575.576064 202.313033 
L 576.221184 201.250693 
L 577.05984 199.860678 
L 577.608192 199.145505 
L 578.059776 198.660546 
L 581.25312 194.675342 
L 582.38208 193.654003 
L 583.091712 192.731135 
L 583.478784 191.537725 
L 585.059328 186.140997 
L 585.897984 184.178978 
L 586.768896 182.700238 
L 587.478528 181.9239 
L 589.252608 180.300647 
L 589.994496 179.376434 
L 596.832768 169.593226 
L 598.864896 166.877722 
L 600.026112 165.378818 
L 608.928768 154.399175 
L 609.6384 154.81255 
L 610.380288 155.07469 
L 611.186688 155.212481 
L 612.283392 155.434292 
L 616.960512 156.963444 
L 617.154048 157.90446 
L 617.573376 160.64349 
L 617.928192 162.21297 
L 618.250752 162.784301 
L 618.605568 162.942258 
L 619.024896 162.743972 
L 619.928064 161.645 
L 620.702208 160.767838 
L 621.508608 160.236836 
L 622.411776 159.978057 
L 623.605248 159.961253 
L 625.28256 160.243558 
L 626.314752 160.455286 
L 626.830848 160.562831 
L 629.185536 161.164409 
L 638.50752 164.931835 
L 639.120384 165.167089 
L 641.73312 166.138352 
L 647.345664 168.006942 
L 648.571392 168.406874 
L 649.087488 168.56483 
L 650.151936 168.890825 
L 654.506496 170.141032 
L 655.183872 170.322514 
L 657.248256 170.853516 
L 657.312768 170.816547 
L 657.69984 170.268741 
L 658.18368 170.00324 
L 658.732032 170.04693 
L 659.441664 170.379647 
L 661.151232 171.327385 
L 662.151168 171.754203 
L 663.441408 172.17766 
L 673.085952 174.079857 
L 673.795584 174.187402 
L 675.698688 174.476428 
L 676.505088 174.587334 
L 678.085632 174.805784 
L 686.149632 175.756883 
L 687.020544 175.83082 
L 688.052736 175.935004 
L 688.536576 175.978694 
L 689.63328 176.089599 
L 695.052288 176.546664 
L 695.632896 176.597076 
L 696.148992 176.644126 
L 697.729536 176.912988 
L 698.245632 177.534731 
L 698.729472 177.796871 
L 699.826176 177.92122 
L 702.277632 177.265869 
L 702.793728 177.208736 
L 704.116224 177.18185 
L 705.6 177.22554 
L 707.890176 177.336446 
L 709.890048 177.437269 
L 710.664192 177.460794 
L 711.148032 177.501123 
L 711.88992 177.534731 
L 713.82528 177.625472 
L 714.567168 177.65908 
L 716.470272 177.74646 
L 717.21216 177.776707 
L 718.889472 177.840561 
L 721.469952 177.948106 
L 722.05056 177.958188 
L 723.760128 178.025404 
L 724.46976 178.059012 
L 725.953536 178.102702 
L 726.72768 178.129588 
L 728.275968 178.179999 
L 731.920896 178.290905 
L 733.34016 178.327873 
L 734.211072 178.341317 
L 734.888448 178.371563 
L 738.049536 178.260658 
L 738.726912 177.652358 
L 739.113984 177.52801 
L 739.79136 177.494402 
L 740.75904 177.706131 
L 742.178304 178.035486 
L 744.049152 178.317791 
L 745.59744 178.428697 
L 747.500544 178.516077 
L 751.919616 178.626982 
L 752.467968 178.630343 
L 778.272768 178.717723 
L 779.208192 179.544473 
L 779.853312 179.70579 
L 782.04672 179.594885 
L 783.724032 179.309219 
L 785.014272 179.151263 
L 789.207552 178.825268 
L 818.592768 178.721084 
L 819.14112 178.112784 
L 819.689472 177.840561 
L 821.624832 177.948106 
L 824.882688 178.516077 
L 827.04384 178.630343 
L 858.912768 178.721084 
L 859.848192 179.547834 
L 860.783616 179.725955 
L 862.073856 179.756202 
L 864.847872 179.289054 
L 870.782976 178.781578 
L 899.265024 178.674033 
L 899.78112 178.112784 
L 900.329472 177.840561 
L 902.264832 177.951467 
L 905.490432 178.512716 
L 907.651584 178.626982 
L 939.552768 178.721084 
L 940.617216 179.578081 
L 941.55264 179.762923 
L 943.488 179.652018 
L 946.455552 179.144541 
L 947.52 178.979863 
L 947.52 178.979863 
" clip-path="url(#pf17a0db9ae)" style="fill: none; stroke: #008000; stroke-width: 2; stroke-linecap: square"/>
   </g>
   <g id="patch_10">
    <path d="M 100.8 242.888276 
L 100.8 150.157241 
" style="fill: none; stroke: #bcbcbc; stroke-width: 0.8; stroke-linejoin: miter; stroke-linecap: square"/>
   </g>
   <g id="patch_11">
    <path d="M 987.84 242.888276 
L 987.84 150.157241 
" style="fill: none; stroke: #bcbcbc; stroke-width: 0.8; stroke-linejoin: miter; stroke-linecap: square"/>
   </g>
   <g id="patch_12">
    <path d="M 100.8 242.888276 
L 987.84 242.888276 
" style="fill: none; stroke: #bcbcbc; stroke-width: 0.8; stroke-linejoin: miter; stroke-linecap: square"/>
   </g>
   <g id="patch_13">
    <path d="M 100.8 150.157241 
L 987.84 150.157241 
" style="fill: none; stroke: #bcbcbc; stroke-width: 0.8; stroke-linejoin: miter; stroke-linecap: square"/>
   </g>
  </g>
  <g id="axes_3">
   <g id="patch_14">
    <path d="M 100.8 354.165517 
L 987.84 354.165517 
L 987.84 261.434483 
L 100.8 261.434483 
z
" style="fill: #eeeeee"/>
   </g>
   <g id="matplotlib.axis_5">
    <g id="xtick_13">
     <g id="line2d_37">
      <path d="M 141.12 354.165517 
L 141.12 261.434483 
" clip-path="url(#pece5b226a9)" style="fill: none; stroke-dasharray: 1.85,0.8; stroke-dashoffset: 0; stroke: #b2b2b2; stroke-width: 0.5"/>
     </g>
     <g id="line2d_38">
      <g>
       <use xlink:href="#m6417edc30c" x="141.12" y="354.165517" style="stroke: #000000; stroke-width: 0.8"/>
      </g>
     </g>
    </g>
    <g id="xtick_14">
     <g id="line2d_39">
      <path d="M 302.4 354.165517 
L 302.4 261.434483 
" clip-path="url(#pece5b226a9)" style="fill: none; stroke-dasharray: 1.85,0.8; stroke-dashoffset: 0; stroke: #b2b2b2; stroke-width: 0.5"/>
     </g>
     <g id="line2d_40">
      <g>
       <use xlink:href="#m6417edc30c" x="302.4" y="354.165517" style="stroke: #000000; stroke-width: 0.8"/>
      </g>
     </g>
    </g>
    <g id="xtick_15">
     <g id="line2d_41">
      <path d="M 463.68 354.165517 
L 463.68 261.434483 
" clip-path="url(#pece5b226a9)" style="fill: none; stroke-dasharray: 1.85,0.8; stroke-dashoffset: 0; stroke: #b2b2b2; stroke-width: 0.5"/>
     </g>
     <g id="line2d_42">
      <g>
       <use xlink:href="#m6417edc30c" x="463.68" y="354.165517" style="stroke: #000000; stroke-width: 0.8"/>
      </g>
     </g>
    </g>
    <g id="xtick_16">
     <g id="line2d_43">
      <path d="M 624.96 354.165517 
L 624.96 261.434483 
" clip-path="url(#pece5b226a9)" style="fill: none; stroke-dasharray: 1.85,0.8; stroke-dashoffset: 0; stroke: #b2b2b2; stroke-width: 0.5"/>
     </g>
     <g id="line2d_44">
      <g>
       <use xlink:href="#m6417edc30c" x="624.96" y="354.165517" style="stroke: #000000; stroke-width: 0.8"/>
      </g>
     </g>
    </g>
    <g id="xtick_17">
     <g id="line2d_45">
      <path d="M 786.24 354.165517 
L 786.24 261.434483 
" clip-path="url(#pece5b226a9)" style="fill: none; stroke-dasharray: 1.85,0.8; stroke-dashoffset: 0; stroke: #b2b2b2; stroke-width: 0.5"/>
     </g>
     <g id="line2d_46">
      <g>
       <use xlink:href="#m6417edc30c" x="786.24" y="354.165517" style="stroke: #000000; stroke-width: 0.8"/>
      </g>
     </g>
    </g>
    <g id="xtick_18">
     <g id="line2d_47">
      <path d="M 947.52 354.165517 
L 947.52 261.434483 
" clip-path="url(#pece5b226a9)" style="fill: none; stroke-dasharray: 1.85,0.8; stroke-dashoffset: 0; stroke: #b2b2b2; stroke-width: 0.5"/>
     </g>
     <g id="line2d_48">
      <g>
       <use xlink:href="#m6417edc30c" x="947.52" y="354.165517" style="stroke: #000000; stroke-width: 0.8"/>
      </g>
     </g>
    </g>
   </g>
   <g id="matplotlib.axis_6">
    <g id="ytick_6">
     <g id="line2d_49">
      <path d="M 100.8 344.750924 
L 987.84 344.750924 
" clip-path="url(#pece5b226a9)" style="fill: none; stroke-dasharray: 1.85,0.8; stroke-dashoffset: 0; stroke: #b2b2b2; stroke-width: 0.5"/>
     </g>
     <g id="line2d_50">
      <g>
       <use xlink:href="#md05779a42d" x="100.8" y="344.750924" style="stroke: #000000; stroke-width: 0.8"/>
      </g>
     </g>
     <g id="text_8">
      <!-- 0 V -->
      <g transform="translate(74.36625 350.069831) scale(0.14 -0.14)">
       <use xlink:href="#DejaVuSans-30"/>
       <use xlink:href="#DejaVuSans-20" x="63.623047"/>
       <use xlink:href="#DejaVuSans-56" x="95.410156"/>
      </g>
     </g>
    </g>
    <g id="ytick_7">
     <g id="line2d_51">
      <path d="M 100.8 303.706199 
L 987.84 303.706199 
" clip-path="url(#pece5b226a9)" style="fill: none; stroke-dasharray: 1.85,0.8; stroke-dashoffset: 0; stroke: #b2b2b2; stroke-width: 0.5"/>
     </g>
     <g id="line2d_52">
      <g>
       <use xlink:href="#md05779a42d" x="100.8" y="303.706199" style="stroke: #000000; stroke-width: 0.8"/>
      </g>
     </g>
     <g id="text_9">
      <!-- 1 V -->
      <g transform="translate(74.36625 309.025105) scale(0.14 -0.14)">
       <use xlink:href="#DejaVuSans-31"/>
       <use xlink:href="#DejaVuSans-20" x="63.623047"/>
       <use xlink:href="#DejaVuSans-56" x="95.410156"/>
      </g>
     </g>
    </g>
    <g id="ytick_8">
     <g id="line2d_53">
      <path d="M 100.8 262.661474 
L 987.84 262.661474 
" clip-path="url(#pece5b226a9)" style="fill: none; stroke-dasharray: 1.85,0.8; stroke-dashoffset: 0; stroke: #b2b2b2; stroke-width: 0.5"/>
     </g>
     <g id="line2d_54">
      <g>
       <use xlink:href="#md05779a42d" x="100.8" y="262.661474" style="stroke: #000000; stroke-width: 0.8"/>
      </g>
     </g>
     <g id="text_10">
      <!-- 2 V -->
      <g transform="translate(74.36625 267.98038) scale(0.14 -0.14)">
       <use xlink:href="#DejaVuSans-32"/>
       <use xlink:href="#DejaVuSans-20" x="63.623047"/>
       <use xlink:href="#DejaVuSans-56" x="95.410156"/>
      </g>
     </g>
    </g>
    <g id="text_11">
     <g id="patch_15">
      <path d="M 34.8768 342.395313 
L 34.8768 273.204688 
L 11.247425 273.204688 
L 11.247425 342.395313 
z
" style="fill: #ffff00; opacity: 0.2; stroke: #eeeeee; stroke-width: 0.5; stroke-linejoin: miter"/>
     </g>
     <!-- CLK BUF -->
     <g transform="translate(26.925238 337.355313) rotate(-90) scale(0.14 -0.14)">
      <defs>
       <path id="DejaVuSans-43" d="M 4122 4306 
L 4122 3641 
Q 3803 3938 3442 4084 
Q 3081 4231 2675 4231 
Q 1875 4231 1450 3742 
Q 1025 3253 1025 2328 
Q 1025 1406 1450 917 
Q 1875 428 2675 428 
Q 3081 428 3442 575 
Q 3803 722 4122 1019 
L 4122 359 
Q 3791 134 3420 21 
Q 3050 -91 2638 -91 
Q 1578 -91 968 557 
Q 359 1206 359 2328 
Q 359 3453 968 4101 
Q 1578 4750 2638 4750 
Q 3056 4750 3426 4639 
Q 3797 4528 4122 4306 
z
" transform="scale(0.015625)"/>
       <path id="DejaVuSans-4b" d="M 628 4666 
L 1259 4666 
L 1259 2694 
L 3353 4666 
L 4166 4666 
L 1850 2491 
L 4331 0 
L 3500 0 
L 1259 2247 
L 1259 0 
L 628 0 
L 628 4666 
z
" transform="scale(0.015625)"/>
      </defs>
      <use xlink:href="#DejaVuSans-43"/>
      <use xlink:href="#DejaVuSans-4c" x="69.824219"/>
      <use xlink:href="#DejaVuSans-4b" x="125.537109"/>
      <use xlink:href="#DejaVuSans-20" x="191.113281"/>
      <use xlink:href="#DejaVuSans-42" x="222.900391"/>
      <use xlink:href="#DejaVuSans-55" x="291.503906"/>
      <use xlink:href="#DejaVuSans-46" x="364.697266"/>
     </g>
    </g>
   </g>
   <g id="line2d_55">
    <path d="M 141.12 344.749839 
L 173.376 344.749839 
L 173.601792 295.497254 
L 213.696 295.497254 
L 213.760512 334.784855 
L 213.825024 344.732173 
L 213.889536 344.673108 
L 213.954048 344.837077 
L 214.01856 344.755372 
L 215.437824 344.745533 
L 223.824384 344.749753 
L 254.016 344.749811 
L 254.17728 295.345389 
L 254.241792 295.608075 
L 254.403072 295.489045 
L 254.854656 295.497254 
L 294.336 295.497254 
L 294.400512 334.750377 
L 294.465024 345.057204 
L 294.529536 344.343588 
L 294.626304 344.815426 
L 294.65856 344.786219 
L 294.884352 344.728195 
L 295.206912 344.76586 
L 295.497216 344.749519 
L 321.91488 344.749838 
L 334.656 344.749841 
L 334.81728 295.423374 
L 334.881792 295.513672 
L 335.204352 295.501359 
L 336.10752 295.497254 
L 374.976 295.497254 
L 375.040512 334.788549 
L 375.105024 344.75159 
L 375.169536 344.667903 
L 375.266304 344.818808 
L 375.29856 344.755509 
L 376.782336 344.745221 
L 385.4592 344.749752 
L 415.296 344.749841 
L 415.45728 295.345389 
L 415.521792 295.608075 
L 415.683072 295.484941 
L 416.683008 295.501359 
L 455.616 295.497254 
L 455.680512 334.75284 
L 455.745024 345.062261 
L 455.809536 344.154011 
L 455.906304 345.353133 
L 455.93856 344.817684 
L 456.132096 344.726274 
L 456.551424 344.750162 
L 491.613696 344.749838 
L 495.936 344.749839 
L 496.09728 295.415165 
L 496.161792 295.513672 
L 497.161728 295.497254 
L 518.611968 295.60397 
L 520.257024 297.873744 
L 521.934336 300.636054 
L 528.83712 311.841674 
L 532.38528 316.972265 
L 536.09472 321.876699 
L 536.126976 321.804871 
L 536.159232 321.913639 
L 536.256 322.05237 
L 536.320512 320.605954 
L 536.352768 320.982745 
L 536.675328 345.928703 
L 537.320448 346.077244 
L 538.255872 346.468154 
L 540.900864 347.975193 
L 541.997568 348.624808 
L 544.48128 349.869612 
L 545.642496 349.354911 
L 546.25536 349.118904 
L 546.448896 349.03271 
L 550.964736 347.598566 
L 553.803264 346.771228 
L 559.448064 345.413058 
L 562.447872 344.880055 
L 567.770112 344.221735 
L 568.963584 344.210201 
L 576.576 344.289951 
L 576.608256 340.875399 
L 576.769536 313.925925 
L 576.834048 313.981746 
L 576.89856 313.945627 
L 582.091776 311.426301 
L 583.091712 310.884101 
L 584.47872 308.401305 
L 586.57536 304.049743 
L 590.736384 295.456209 
L 591.41376 294.130465 
L 593.18784 290.764797 
L 598.639104 281.271152 
L 599.63904 279.686826 
L 601.41312 276.965561 
L 608.864256 265.768559 
L 610.315776 265.68647 
L 612.734976 266.408857 
L 614.251008 267.057364 
L 616.186368 267.90699 
L 616.605696 268.095795 
L 616.896 268.210721 
L 617.05728 345.081622 
L 617.089536 345.223267 
L 617.154048 345.128281 
L 617.476608 345.124033 
L 629.862912 345.200323 
L 632.2176 345.221338 
L 651.829248 345.060348 
L 656.280576 345.023367 
L 657.216 345.015064 
L 657.345024 285.240177 
L 657.441792 285.375625 
L 657.570816 285.568535 
L 657.990144 285.675251 
L 659.506176 286.143161 
L 659.925504 286.249877 
L 660.893184 286.512564 
L 661.280256 286.61928 
L 662.247936 286.881966 
L 662.635008 286.988682 
L 663.50592 287.210324 
L 663.892992 287.31704 
L 664.667136 287.497637 
L 665.054208 287.604353 
L 665.828352 287.78495 
L 666.312192 287.891666 
L 667.086336 288.072263 
L 667.570176 288.17898 
L 668.34432 288.359576 
L 668.82816 288.466293 
L 669.47328 288.605845 
L 669.989376 288.712561 
L 670.634496 288.852113 
L 671.150592 288.958829 
L 671.795712 289.098381 
L 672.311808 289.205098 
L 672.86016 289.303605 
L 673.376256 289.410321 
L 673.924608 289.508829 
L 674.537472 289.615545 
L 675.085824 289.714052 
L 675.60192 289.820769 
L 676.150272 289.919276 
L 676.763136 290.025992 
L 677.311488 290.124499 
L 678.02112 290.227111 
L 678.375936 290.288678 
L 678.9888 290.39129 
L 679.343616 290.452857 
L 680.053248 290.555469 
L 680.408064 290.617036 
L 681.117696 290.719648 
L 681.472512 290.781215 
L 682.182144 290.883827 
L 682.53696 290.945394 
L 683.34336 291.048006 
L 683.698176 291.109573 
L 684.601344 291.212185 
L 684.95616 291.273752 
L 685.76256 291.376364 
L 686.020608 291.396886 
L 686.73024 291.499498 
L 686.988288 291.52002 
L 687.794688 291.622632 
L 688.149504 291.680095 
L 693.891072 292.29987 
L 694.858752 292.402482 
L 695.1168 292.423004 
L 696.116736 292.525616 
L 696.374784 292.546138 
L 697.471488 292.64875 
L 697.536 292.669272 
L 697.568256 298.226728 
L 697.69728 344.838961 
L 697.955328 344.827103 
L 737.856 344.771615 
L 738.049536 294.709195 
L 738.50112 294.717404 
L 742.565376 294.824121 
L 742.823424 294.840538 
L 748.855296 294.947255 
L 749.113344 294.963673 
L 756.790272 295.070389 
L 757.04832 295.086807 
L 778.176 295.086807 
L 778.305024 345.064408 
L 778.466304 344.825708 
L 778.724352 344.734161 
L 779.079168 344.778838 
L 779.401728 344.761379 
L 818.496 344.761594 
L 818.65728 294.873374 
L 818.721792 295.33718 
L 818.81856 294.914419 
L 818.883072 295.070389 
L 819.366912 295.086807 
L 858.816 295.086807 
L 858.945024 345.064572 
L 859.106304 344.825667 
L 859.364352 344.73417 
L 859.719168 344.778849 
L 860.041728 344.761379 
L 899.136 344.761592 
L 899.29728 294.873374 
L 899.361792 295.33718 
L 899.45856 294.914419 
L 899.523072 295.070389 
L 900.006912 295.086807 
L 939.456 295.086807 
L 939.488256 302.487171 
L 939.61728 344.712811 
L 939.649536 344.832177 
L 939.714048 344.717959 
L 939.810816 344.7349 
L 940.004352 344.786152 
L 940.230144 344.760291 
L 945.9072 344.761596 
L 947.52 344.761584 
L 947.52 344.761584 
" clip-path="url(#pece5b226a9)" style="fill: none; stroke: #0000ff; stroke-width: 2; stroke-linecap: square"/>
   </g>
   <g id="patch_16">
    <path d="M 100.8 354.165517 
L 100.8 261.434483 
" style="fill: none; stroke: #bcbcbc; stroke-width: 0.8; stroke-linejoin: miter; stroke-linecap: square"/>
   </g>
   <g id="patch_17">
    <path d="M 987.84 354.165517 
L 987.84 261.434483 
" style="fill: none; stroke: #bcbcbc; stroke-width: 0.8; stroke-linejoin: miter; stroke-linecap: square"/>
   </g>
   <g id="patch_18">
    <path d="M 100.8 354.165517 
L 987.84 354.165517 
" style="fill: none; stroke: #bcbcbc; stroke-width: 0.8; stroke-linejoin: miter; stroke-linecap: square"/>
   </g>
   <g id="patch_19">
    <path d="M 100.8 261.434483 
L 987.84 261.434483 
" style="fill: none; stroke: #bcbcbc; stroke-width: 0.8; stroke-linejoin: miter; stroke-linecap: square"/>
   </g>
  </g>
  <g id="axes_4">
   <g id="patch_20">
    <path d="M 100.8 465.442759 
L 987.84 465.442759 
L 987.84 372.711724 
L 100.8 372.711724 
z
" style="fill: #eeeeee"/>
   </g>
   <g id="matplotlib.axis_7">
    <g id="xtick_19">
     <g id="line2d_56">
      <path d="M 141.12 465.442759 
L 141.12 372.711724 
" clip-path="url(#pff4c712478)" style="fill: none; stroke-dasharray: 1.85,0.8; stroke-dashoffset: 0; stroke: #b2b2b2; stroke-width: 0.5"/>
     </g>
     <g id="line2d_57">
      <g>
       <use xlink:href="#m6417edc30c" x="141.12" y="465.442759" style="stroke: #000000; stroke-width: 0.8"/>
      </g>
     </g>
    </g>
    <g id="xtick_20">
     <g id="line2d_58">
      <path d="M 302.4 465.442759 
L 302.4 372.711724 
" clip-path="url(#pff4c712478)" style="fill: none; stroke-dasharray: 1.85,0.8; stroke-dashoffset: 0; stroke: #b2b2b2; stroke-width: 0.5"/>
     </g>
     <g id="line2d_59">
      <g>
       <use xlink:href="#m6417edc30c" x="302.4" y="465.442759" style="stroke: #000000; stroke-width: 0.8"/>
      </g>
     </g>
    </g>
    <g id="xtick_21">
     <g id="line2d_60">
      <path d="M 463.68 465.442759 
L 463.68 372.711724 
" clip-path="url(#pff4c712478)" style="fill: none; stroke-dasharray: 1.85,0.8; stroke-dashoffset: 0; stroke: #b2b2b2; stroke-width: 0.5"/>
     </g>
     <g id="line2d_61">
      <g>
       <use xlink:href="#m6417edc30c" x="463.68" y="465.442759" style="stroke: #000000; stroke-width: 0.8"/>
      </g>
     </g>
    </g>
    <g id="xtick_22">
     <g id="line2d_62">
      <path d="M 624.96 465.442759 
L 624.96 372.711724 
" clip-path="url(#pff4c712478)" style="fill: none; stroke-dasharray: 1.85,0.8; stroke-dashoffset: 0; stroke: #b2b2b2; stroke-width: 0.5"/>
     </g>
     <g id="line2d_63">
      <g>
       <use xlink:href="#m6417edc30c" x="624.96" y="465.442759" style="stroke: #000000; stroke-width: 0.8"/>
      </g>
     </g>
    </g>
    <g id="xtick_23">
     <g id="line2d_64">
      <path d="M 786.24 465.442759 
L 786.24 372.711724 
" clip-path="url(#pff4c712478)" style="fill: none; stroke-dasharray: 1.85,0.8; stroke-dashoffset: 0; stroke: #b2b2b2; stroke-width: 0.5"/>
     </g>
     <g id="line2d_65">
      <g>
       <use xlink:href="#m6417edc30c" x="786.24" y="465.442759" style="stroke: #000000; stroke-width: 0.8"/>
      </g>
     </g>
    </g>
    <g id="xtick_24">
     <g id="line2d_66">
      <path d="M 947.52 465.442759 
L 947.52 372.711724 
" clip-path="url(#pff4c712478)" style="fill: none; stroke-dasharray: 1.85,0.8; stroke-dashoffset: 0; stroke: #b2b2b2; stroke-width: 0.5"/>
     </g>
     <g id="line2d_67">
      <g>
       <use xlink:href="#m6417edc30c" x="947.52" y="465.442759" style="stroke: #000000; stroke-width: 0.8"/>
      </g>
     </g>
    </g>
   </g>
   <g id="matplotlib.axis_8">
    <g id="ytick_9">
     <g id="line2d_68">
      <path d="M 100.8 437.300423 
L 987.84 437.300423 
" clip-path="url(#pff4c712478)" style="fill: none; stroke-dasharray: 1.85,0.8; stroke-dashoffset: 0; stroke: #b2b2b2; stroke-width: 0.5"/>
     </g>
     <g id="line2d_69">
      <g>
       <use xlink:href="#md05779a42d" x="100.8" y="437.300423" style="stroke: #000000; stroke-width: 0.8"/>
      </g>
     </g>
     <g id="text_12">
      <!-- 0 V -->
      <g transform="translate(74.36625 442.619329) scale(0.14 -0.14)">
       <use xlink:href="#DejaVuSans-30"/>
       <use xlink:href="#DejaVuSans-20" x="63.623047"/>
       <use xlink:href="#DejaVuSans-56" x="95.410156"/>
      </g>
     </g>
    </g>
    <g id="ytick_10">
     <g id="line2d_70">
      <path d="M 100.8 395.222327 
L 987.84 395.222327 
" clip-path="url(#pff4c712478)" style="fill: none; stroke-dasharray: 1.85,0.8; stroke-dashoffset: 0; stroke: #b2b2b2; stroke-width: 0.5"/>
     </g>
     <g id="line2d_71">
      <g>
       <use xlink:href="#md05779a42d" x="100.8" y="395.222327" style="stroke: #000000; stroke-width: 0.8"/>
      </g>
     </g>
     <g id="text_13">
      <!-- 1 V -->
      <g transform="translate(74.36625 400.541234) scale(0.14 -0.14)">
       <use xlink:href="#DejaVuSans-31"/>
       <use xlink:href="#DejaVuSans-20" x="63.623047"/>
       <use xlink:href="#DejaVuSans-56" x="95.410156"/>
      </g>
     </g>
    </g>
    <g id="text_14">
     <g id="patch_21">
      <path d="M 34.8768 454.693023 
L 34.8768 383.46146 
L 11.247425 383.46146 
L 11.247425 454.693023 
z
" style="fill: #ffff00; opacity: 0.2; stroke: #eeeeee; stroke-width: 0.5; stroke-linejoin: miter"/>
     </g>
     <!-- DFF OUT -->
     <g transform="translate(26.925238 449.653023) rotate(-90) scale(0.14 -0.14)">
      <defs>
       <path id="DejaVuSans-4f" d="M 2522 4238 
Q 1834 4238 1429 3725 
Q 1025 3213 1025 2328 
Q 1025 1447 1429 934 
Q 1834 422 2522 422 
Q 3209 422 3611 934 
Q 4013 1447 4013 2328 
Q 4013 3213 3611 3725 
Q 3209 4238 2522 4238 
z
M 2522 4750 
Q 3503 4750 4090 4092 
Q 4678 3434 4678 2328 
Q 4678 1225 4090 567 
Q 3503 -91 2522 -91 
Q 1538 -91 948 565 
Q 359 1222 359 2328 
Q 359 3434 948 4092 
Q 1538 4750 2522 4750 
z
" transform="scale(0.015625)"/>
       <path id="DejaVuSans-54" d="M -19 4666 
L 3928 4666 
L 3928 4134 
L 2272 4134 
L 2272 0 
L 1638 0 
L 1638 4134 
L -19 4134 
L -19 4666 
z
" transform="scale(0.015625)"/>
      </defs>
      <use xlink:href="#DejaVuSans-44"/>
      <use xlink:href="#DejaVuSans-46" x="77.001953"/>
      <use xlink:href="#DejaVuSans-46" x="134.521484"/>
      <use xlink:href="#DejaVuSans-20" x="192.041016"/>
      <use xlink:href="#DejaVuSans-4f" x="223.828125"/>
      <use xlink:href="#DejaVuSans-55" x="302.539062"/>
      <use xlink:href="#DejaVuSans-54" x="375.732422"/>
     </g>
    </g>
   </g>
   <g id="line2d_72">
    <path d="M 141.12 405.551237 
L 173.408256 405.602573 
L 173.440512 407.344606 
L 173.601792 437.302991 
L 174.085632 437.297731 
L 183.794688 437.299307 
L 254.048256 437.301064 
L 254.080512 437.469274 
L 254.112768 437.191033 
L 254.306304 433.082936 
L 254.596608 432.259467 
L 254.693376 431.672057 
L 255.14496 424.299975 
L 255.370752 406.973056 
L 255.596544 387.214866 
L 255.757824 386.869825 
L 255.983616 386.8025 
L 256.854528 386.806708 
L 295.755264 386.890864 
L 296.239104 389.613317 
L 296.59392 388.931652 
L 297.948672 387.151748 
L 299.561472 386.840371 
L 334.688256 386.823539 
L 334.720512 386.701513 
L 334.752768 387.320061 
L 334.785024 390.379138 
L 334.914048 437.283174 
L 334.97856 437.246142 
L 335.13984 437.291604 
L 335.494656 437.299812 
L 365.13792 437.299265 
L 415.328256 437.301039 
L 415.360512 437.468689 
L 415.392768 437.193364 
L 415.586304 432.984894 
L 415.844352 432.134495 
L 415.908864 431.903487 
L 416.1024 426.913445 
L 416.521728 412.386403 
L 416.9088 386.945566 
L 417.102336 386.810916 
L 417.682944 386.840371 
L 418.166784 386.798292 
L 418.940928 386.806708 
L 495.968256 386.823539 
L 496.000512 386.966605 
L 496.065024 386.773046 
L 496.323072 386.798292 
L 518.579712 386.874033 
L 519.547392 388.178454 
L 520.837632 390.219242 
L 526.482432 400.010394 
L 527.095296 401.578644 
L 527.417856 402.771138 
L 527.450112 402.760618 
L 527.514624 402.758935 
L 527.643648 403.340454 
L 527.966208 404.88977 
L 528.288768 406.311168 
L 528.9984 409.823847 
L 529.062912 409.682044 
L 529.095168 409.732117 
L 529.579008 412.63256 
L 529.611264 412.824436 
L 529.64352 412.682633 
L 529.675776 412.487391 
L 529.740288 412.641817 
L 529.96608 414.495358 
L 530.191872 415.59065 
L 530.256384 415.393304 
L 530.320896 415.548151 
L 530.385408 415.821238 
L 530.546688 417.373499 
L 530.901504 419.173179 
L 530.93376 418.539904 
L 530.998272 419.025906 
L 531.159552 420.420374 
L 531.385344 421.401635 
L 531.449856 421.320004 
L 531.546624 421.64653 
L 531.707904 423.286313 
L 533.481984 431.915689 
L 533.99808 434.09483 
L 534.030336 433.389054 
L 534.094848 434.264699 
L 534.288384 435.308825 
L 535.223808 439.192549 
L 535.256064 438.852432 
L 535.320576 439.106078 
L 535.352832 439.119712 
L 536.030208 442.133513 
L 536.062464 441.915549 
L 536.159232 442.082599 
L 536.191488 442.478974 
L 536.288256 442.397343 
L 536.41728 442.757111 
L 536.57856 443.661369 
L 537.191424 445.155141 
L 537.288192 445.192591 
L 537.675264 445.843118 
L 537.8688 446.272315 
L 538.03008 447.079793 
L 540.12672 452.034489 
L 540.255744 452.37953 
L 540.417024 453.006493 
L 540.481536 453.129782 
L 540.513792 452.92949 
L 540.578304 453.105798 
L 540.707328 453.605685 
L 540.739584 453.576231 
L 541.062144 454.456084 
L 541.0944 454.402644 
L 541.126656 454.47039 
L 544.32 461.187317 
L 544.449024 461.184371 
L 544.64256 460.978609 
L 544.674816 461.075389 
L 544.836096 460.695003 
L 544.868352 460.69879 
L 544.900608 460.546888 
L 544.96512 459.571939 
L 544.997376 460.351646 
L 545.061888 460.108855 
L 545.1264 459.507559 
L 545.158656 459.800002 
L 545.190912 460.065515 
L 545.255424 459.761711 
L 545.28768 459.815571 
L 545.319936 459.66451 
L 546.190848 457.916586 
L 546.223104 458.022202 
L 546.25536 457.905225 
L 546.448896 457.578278 
L 546.835968 456.925647 
L 547.190784 456.324351 
L 547.22304 456.401775 
L 547.255296 456.235987 
L 547.287552 456.184231 
L 547.319808 456.351281 
L 547.352064 456.077353 
L 547.932672 455.380539 
L 547.416576 456.161509 
L 547.964928 455.404945 
L 547.997184 455.38643 
L 548.126208 455.083889 
L 548.158464 455.188663 
L 548.19072 455.126808 
L 548.352 454.891592 
L 548.384256 454.948818 
L 548.448768 454.839415 
L 548.577792 454.706448 
L 548.771328 454.480489 
L 549.093888 453.884663 
L 549.126144 454.014264 
L 549.1584 453.790408 
L 549.190656 453.749592 
L 549.222912 453.933053 
L 549.255168 453.652392 
L 549.287424 453.633457 
L 549.31968 453.812289 
L 549.351936 453.76432 
L 549.416448 453.442843 
L 549.48096 453.459674 
L 549.513216 453.610314 
L 549.577728 453.426433 
L 549.868032 452.892462 
L 550.351872 452.384158 
L 550.416384 452.476309 
L 550.577664 452.170822 
L 551.448576 451.304013 
L 551.642112 451.00021 
L 551.674368 451.063748 
L 551.803392 450.732172 
L 551.867904 450.835684 
L 552.029184 450.390919 
L 552.06144 450.714079 
L 552.125952 450.649278 
L 552.287232 450.151494 
L 552.416256 450.328643 
L 552.609792 449.774054 
L 552.642048 449.995385 
L 552.70656 449.688635 
L 552.738816 449.968875 
L 552.900096 449.487923 
L 552.932352 449.628464 
L 552.964608 449.422702 
L 552.996864 449.410078 
L 553.02912 449.532526 
L 553.061376 449.329709 
L 553.093632 449.326764 
L 553.1904 449.26028 
L 553.222656 449.455523 
L 553.383936 449.121423 
L 553.416192 449.184119 
L 553.480704 449.077661 
L 553.83552 448.827297 
L 554.254848 448.358968 
L 554.706432 447.495104 
L 554.738688 447.750518 
L 554.770944 447.399587 
L 554.996736 447.187093 
L 555.028992 447.357509 
L 555.093504 447.192142 
L 555.12576 447.154272 
L 555.158016 447.221597 
L 555.254784 447.284293 
L 555.28704 446.8248 
L 555.319296 446.824379 
L 555.351552 447.178256 
L 555.383808 446.717922 
L 555.44832 447.058754 
L 555.577344 446.549609 
L 555.6096 446.546243 
L 555.641856 446.774306 
L 555.674112 446.459142 
L 555.738624 446.686784 
L 555.899904 446.324492 
L 555.996672 446.270211 
L 556.028928 446.457879 
L 556.222464 446.177639 
L 556.545024 445.996282 
L 557.480448 444.976309 
L 557.609472 444.383429 
L 557.641728 444.801685 
L 557.70624 444.255091 
L 557.803008 444.207543 
L 557.932032 444.058165 
L 557.964288 444.483575 
L 558.061056 444.382167 
L 558.19008 443.830102 
L 558.609408 443.497264 
L 559.254528 443.239326 
L 559.383552 443.177892 
L 560.189952 442.418382 
L 560.673792 441.718202 
L 560.802816 441.251514 
L 560.996352 440.986969 
L 561.060864 441.468385 
L 561.09312 440.867972 
L 561.125376 441.276593 
L 561.157632 441.384313 
L 561.286656 440.708202 
L 561.41568 441.14249 
L 561.447936 441.082907 
L 561.480192 440.565683 
L 561.57696 440.745693 
L 561.609216 440.836919 
L 561.641472 440.733028 
L 561.673728 440.39169 
L 561.73824 440.846807 
L 561.931776 440.319611 
L 562.641408 439.986815 
L 563.83488 438.661145 
L 564.31872 437.810662 
L 564.383232 437.290999 
L 564.447744 437.505954 
L 564.48 437.563079 
L 564.544512 437.324668 
L 564.609024 437.340944 
L 565.479936 435.61145 
L 565.576704 434.832375 
L 565.60896 435.482691 
L 565.673472 434.729578 
L 565.802496 434.473448 
L 565.867008 434.907063 
L 565.899264 434.463939 
L 565.93152 434.427836 
L 565.996032 434.634145 
L 566.060544 434.564884 
L 566.125056 434.493562 
L 566.447616 433.837185 
L 566.963712 432.749677 
L 567.092736 431.775148 
L 567.124992 431.758317 
L 567.157248 432.449239 
L 567.254016 432.219493 
L 567.286272 431.685522 
L 567.38304 431.745694 
L 567.415296 431.693096 
L 567.447552 431.728442 
L 567.479808 431.823959 
L 567.512064 431.675003 
L 568.318464 430.0247 
L 568.576512 429.466744 
L 568.608768 429.493674 
L 568.737792 428.905843 
L 568.770048 428.908368 
L 568.802304 429.04428 
L 568.866816 428.908368 
L 570.1248 426.152252 
L 570.253824 426.216632 
L 570.995712 424.478386 
L 572.898816 420.40733 
L 572.931072 420.471709 
L 572.963328 420.016004 
L 573.060096 420.103526 
L 573.156864 420.005063 
L 575.7696 414.828195 
L 575.801856 414.849655 
L 575.866368 414.765078 
L 575.93088 414.013563 
L 576.059904 414.218904 
L 576.09216 414.059849 
L 576.124416 414.276972 
L 576.156672 414.260983 
L 576.995328 412.657807 
L 577.253376 412.330439 
L 577.285632 412.431006 
L 577.479168 413.097102 
L 577.575936 415.52038 
L 577.963008 436.615013 
L 579.608064 436.76317 
L 583.0272 436.841898 
L 583.285248 436.566707 
L 583.930368 436.062528 
L 584.769024 435.709366 
L 585.833472 435.511641 
L 587.478528 435.445663 
L 591.607296 435.577704 
L 603.122688 435.918663 
L 605.28384 435.906418 
L 608.864256 436.076245 
L 609.573888 436.766873 
L 610.380288 437.199608 
L 611.347968 437.465559 
L 612.799488 437.628485 
L 615.734784 437.693698 
L 630.185472 437.776074 
L 634.217472 437.771193 
L 657.248256 437.565435 
L 657.280512 437.90235 
L 657.570816 430.455579 
L 657.796608 429.048067 
L 657.957888 426.379053 
L 658.119168 418.567255 
L 658.312704 395.255569 
L 658.50624 377.107707 
L 658.635264 376.935187 
L 658.66752 376.94781 
L 660.086784 377.385422 
L 660.506112 377.494825 
L 661.473792 377.764125 
L 661.860864 377.873528 
L 662.731776 378.10075 
L 663.118848 378.210153 
L 663.98976 378.437375 
L 664.376832 378.546778 
L 665.150976 378.731921 
L 665.634816 378.841325 
L 666.40896 379.026468 
L 666.796032 379.135871 
L 667.441152 379.278937 
L 667.86048 379.38834 
L 668.5056 379.531405 
L 669.021696 379.640808 
L 669.666816 379.783874 
L 670.182912 379.893277 
L 670.828032 380.036342 
L 671.344128 380.145745 
L 671.989248 380.288811 
L 672.602112 380.398214 
L 673.247232 380.54128 
L 673.860096 380.650683 
L 674.408448 380.75167 
L 674.924544 380.861073 
L 675.472896 380.962061 
L 676.08576 381.067256 
L 676.440576 381.130373 
L 677.05344 381.239776 
L 677.601792 381.340763 
L 678.214656 381.445959 
L 678.569472 381.509076 
L 679.279104 381.614271 
L 679.63392 381.677388 
L 680.343552 381.782583 
L 680.698368 381.845701 
L 681.408 381.950896 
L 681.762816 382.014013 
L 682.472448 382.119208 
L 682.827264 382.182325 
L 683.633664 382.287521 
L 683.98848 382.350638 
L 684.891648 382.455833 
L 685.246464 382.51895 
L 686.149632 382.624145 
L 686.504448 382.687262 
L 687.407616 382.792458 
L 687.665664 382.813497 
L 688.472064 382.918692 
L 688.82688 382.981809 
L 689.826816 383.087004 
L 690.084864 383.108043 
L 690.891264 383.213239 
L 691.149312 383.234278 
L 692.05248 383.339473 
L 692.310528 383.360512 
L 693.213696 383.465707 
L 693.471744 383.486746 
L 694.374912 383.591942 
L 694.63296 383.612981 
L 695.632896 383.718176 
L 695.890944 383.739215 
L 696.987648 383.84441 
L 697.245696 383.865449 
L 698.3424 383.970644 
L 698.600448 383.991683 
L 699.79392 384.096879 
L 700.051968 384.117918 
L 701.24544 384.223113 
L 701.503488 384.244152 
L 702.890496 384.349347 
L 703.148544 384.370386 
L 704.535552 384.475582 
L 704.7936 384.496621 
L 706.277376 384.601816 
L 706.535424 384.618647 
L 708.115968 384.72805 
L 708.374016 384.744881 
L 710.051328 384.854284 
L 710.309376 384.871116 
L 712.180224 384.980519 
L 712.438272 384.99735 
L 714.405888 385.106753 
L 714.663936 385.123584 
L 716.825088 385.232987 
L 717.179904 385.254026 
L 719.437824 385.359222 
L 719.695872 385.376053 
L 722.340864 385.485456 
L 722.598912 385.506495 
L 725.43744 385.61169 
L 725.695488 385.628521 
L 728.921088 385.737924 
L 729.179136 385.754756 
L 732.888576 385.864159 
L 733.211136 385.885198 
L 734.049792 385.885198 
L 737.339904 385.990393 
L 737.662464 386.011432 
L 737.888256 386.003016 
L 737.920512 386.22603 
L 737.985024 386.003016 
L 742.53312 386.104004 
L 742.887936 386.137666 
L 743.758848 386.133459 
L 748.855296 386.242862 
L 749.177856 386.259693 
L 756.790272 386.369096 
L 757.04832 386.385927 
L 818.528256 386.381719 
L 818.560512 386.596318 
L 818.625024 386.381719 
L 818.81856 386.36068 
L 819.850752 386.385927 
L 899.168256 386.381719 
L 899.200512 386.596318 
L 899.265024 386.381719 
L 899.45856 386.36068 
L 900.490752 386.385927 
L 947.52 386.385927 
L 947.52 386.385927 
" clip-path="url(#pff4c712478)" style="fill: none; stroke: #ff00ff; stroke-width: 2; stroke-linecap: square"/>
   </g>
   <g id="patch_22">
    <path d="M 100.8 465.442759 
L 100.8 372.711724 
" style="fill: none; stroke: #bcbcbc; stroke-width: 0.8; stroke-linejoin: miter; stroke-linecap: square"/>
   </g>
   <g id="patch_23">
    <path d="M 987.84 465.442759 
L 987.84 372.711724 
" style="fill: none; stroke: #bcbcbc; stroke-width: 0.8; stroke-linejoin: miter; stroke-linecap: square"/>
   </g>
   <g id="patch_24">
    <path d="M 100.8 465.442759 
L 987.84 465.442759 
" style="fill: none; stroke: #bcbcbc; stroke-width: 0.8; stroke-linejoin: miter; stroke-linecap: square"/>
   </g>
   <g id="patch_25">
    <path d="M 100.8 372.711724 
L 987.84 372.711724 
" style="fill: none; stroke: #bcbcbc; stroke-width: 0.8; stroke-linejoin: miter; stroke-linecap: square"/>
   </g>
  </g>
  <g id="axes_5">
   <g id="patch_26">
    <path d="M 100.8 576.72 
L 987.84 576.72 
L 987.84 483.988966 
L 100.8 483.988966 
z
" style="fill: #eeeeee"/>
   </g>
   <g id="matplotlib.axis_9">
    <g id="xtick_25">
     <g id="line2d_73">
      <path d="M 141.12 576.72 
L 141.12 483.988966 
" clip-path="url(#pc0a90f824b)" style="fill: none; stroke-dasharray: 1.85,0.8; stroke-dashoffset: 0; stroke: #b2b2b2; stroke-width: 0.5"/>
     </g>
     <g id="line2d_74">
      <g>
       <use xlink:href="#m6417edc30c" x="141.12" y="576.72" style="stroke: #000000; stroke-width: 0.8"/>
      </g>
     </g>
     <g id="text_15">
      <!-- 0 s -->
      <g transform="translate(130.795 590.857813) scale(0.14 -0.14)">
       <defs>
        <path id="DejaVuSans-73" d="M 2834 3397 
L 2834 2853 
Q 2591 2978 2328 3040 
Q 2066 3103 1784 3103 
Q 1356 3103 1142 2972 
Q 928 2841 928 2578 
Q 928 2378 1081 2264 
Q 1234 2150 1697 2047 
L 1894 2003 
Q 2506 1872 2764 1633 
Q 3022 1394 3022 966 
Q 3022 478 2636 193 
Q 2250 -91 1575 -91 
Q 1294 -91 989 -36 
Q 684 19 347 128 
L 347 722 
Q 666 556 975 473 
Q 1284 391 1588 391 
Q 1994 391 2212 530 
Q 2431 669 2431 922 
Q 2431 1156 2273 1281 
Q 2116 1406 1581 1522 
L 1381 1569 
Q 847 1681 609 1914 
Q 372 2147 372 2553 
Q 372 3047 722 3315 
Q 1072 3584 1716 3584 
Q 2034 3584 2315 3537 
Q 2597 3491 2834 3397 
z
" transform="scale(0.015625)"/>
       </defs>
       <use xlink:href="#DejaVuSans-30"/>
       <use xlink:href="#DejaVuSans-20" x="63.623047"/>
       <use xlink:href="#DejaVuSans-73" x="95.410156"/>
      </g>
     </g>
    </g>
    <g id="xtick_26">
     <g id="line2d_75">
      <path d="M 302.4 576.72 
L 302.4 483.988966 
" clip-path="url(#pc0a90f824b)" style="fill: none; stroke-dasharray: 1.85,0.8; stroke-dashoffset: 0; stroke: #b2b2b2; stroke-width: 0.5"/>
     </g>
     <g id="line2d_76">
      <g>
       <use xlink:href="#m6417edc30c" x="302.4" y="576.72" style="stroke: #000000; stroke-width: 0.8"/>
      </g>
     </g>
     <g id="text_16">
      <!-- 50 ns -->
      <g transform="translate(283.185 590.857813) scale(0.14 -0.14)">
       <defs>
        <path id="DejaVuSans-35" d="M 691 4666 
L 3169 4666 
L 3169 4134 
L 1269 4134 
L 1269 2991 
Q 1406 3038 1543 3061 
Q 1681 3084 1819 3084 
Q 2600 3084 3056 2656 
Q 3513 2228 3513 1497 
Q 3513 744 3044 326 
Q 2575 -91 1722 -91 
Q 1428 -91 1123 -41 
Q 819 9 494 109 
L 494 744 
Q 775 591 1075 516 
Q 1375 441 1709 441 
Q 2250 441 2565 725 
Q 2881 1009 2881 1497 
Q 2881 1984 2565 2268 
Q 2250 2553 1709 2553 
Q 1456 2553 1204 2497 
Q 953 2441 691 2322 
L 691 4666 
z
" transform="scale(0.015625)"/>
        <path id="DejaVuSans-6e" d="M 3513 2113 
L 3513 0 
L 2938 0 
L 2938 2094 
Q 2938 2591 2744 2837 
Q 2550 3084 2163 3084 
Q 1697 3084 1428 2787 
Q 1159 2491 1159 1978 
L 1159 0 
L 581 0 
L 581 3500 
L 1159 3500 
L 1159 2956 
Q 1366 3272 1645 3428 
Q 1925 3584 2291 3584 
Q 2894 3584 3203 3211 
Q 3513 2838 3513 2113 
z
" transform="scale(0.015625)"/>
       </defs>
       <use xlink:href="#DejaVuSans-35"/>
       <use xlink:href="#DejaVuSans-30" x="63.623047"/>
       <use xlink:href="#DejaVuSans-20" x="127.246094"/>
       <use xlink:href="#DejaVuSans-6e" x="159.033203"/>
       <use xlink:href="#DejaVuSans-73" x="222.412109"/>
      </g>
     </g>
    </g>
    <g id="xtick_27">
     <g id="line2d_77">
      <path d="M 463.68 576.72 
L 463.68 483.988966 
" clip-path="url(#pc0a90f824b)" style="fill: none; stroke-dasharray: 1.85,0.8; stroke-dashoffset: 0; stroke: #b2b2b2; stroke-width: 0.5"/>
     </g>
     <g id="line2d_78">
      <g>
       <use xlink:href="#m6417edc30c" x="463.68" y="576.72" style="stroke: #000000; stroke-width: 0.8"/>
      </g>
     </g>
     <g id="text_17">
      <!-- 100 ns -->
      <g transform="translate(440.01125 590.857813) scale(0.14 -0.14)">
       <use xlink:href="#DejaVuSans-31"/>
       <use xlink:href="#DejaVuSans-30" x="63.623047"/>
       <use xlink:href="#DejaVuSans-30" x="127.246094"/>
       <use xlink:href="#DejaVuSans-20" x="190.869141"/>
       <use xlink:href="#DejaVuSans-6e" x="222.65625"/>
       <use xlink:href="#DejaVuSans-73" x="286.035156"/>
      </g>
     </g>
    </g>
    <g id="xtick_28">
     <g id="line2d_79">
      <path d="M 624.96 576.72 
L 624.96 483.988966 
" clip-path="url(#pc0a90f824b)" style="fill: none; stroke-dasharray: 1.85,0.8; stroke-dashoffset: 0; stroke: #b2b2b2; stroke-width: 0.5"/>
     </g>
     <g id="line2d_80">
      <g>
       <use xlink:href="#m6417edc30c" x="624.96" y="576.72" style="stroke: #000000; stroke-width: 0.8"/>
      </g>
     </g>
     <g id="text_18">
      <!-- 150 ns -->
      <g transform="translate(601.29125 590.857813) scale(0.14 -0.14)">
       <use xlink:href="#DejaVuSans-31"/>
       <use xlink:href="#DejaVuSans-35" x="63.623047"/>
       <use xlink:href="#DejaVuSans-30" x="127.246094"/>
       <use xlink:href="#DejaVuSans-20" x="190.869141"/>
       <use xlink:href="#DejaVuSans-6e" x="222.65625"/>
       <use xlink:href="#DejaVuSans-73" x="286.035156"/>
      </g>
     </g>
    </g>
    <g id="xtick_29">
     <g id="line2d_81">
      <path d="M 786.24 576.72 
L 786.24 483.988966 
" clip-path="url(#pc0a90f824b)" style="fill: none; stroke-dasharray: 1.85,0.8; stroke-dashoffset: 0; stroke: #b2b2b2; stroke-width: 0.5"/>
     </g>
     <g id="line2d_82">
      <g>
       <use xlink:href="#m6417edc30c" x="786.24" y="576.72" style="stroke: #000000; stroke-width: 0.8"/>
      </g>
     </g>
     <g id="text_19">
      <!-- 200 ns -->
      <g transform="translate(762.57125 590.857813) scale(0.14 -0.14)">
       <use xlink:href="#DejaVuSans-32"/>
       <use xlink:href="#DejaVuSans-30" x="63.623047"/>
       <use xlink:href="#DejaVuSans-30" x="127.246094"/>
       <use xlink:href="#DejaVuSans-20" x="190.869141"/>
       <use xlink:href="#DejaVuSans-6e" x="222.65625"/>
       <use xlink:href="#DejaVuSans-73" x="286.035156"/>
      </g>
     </g>
    </g>
    <g id="xtick_30">
     <g id="line2d_83">
      <path d="M 947.52 576.72 
L 947.52 483.988966 
" clip-path="url(#pc0a90f824b)" style="fill: none; stroke-dasharray: 1.85,0.8; stroke-dashoffset: 0; stroke: #b2b2b2; stroke-width: 0.5"/>
     </g>
     <g id="line2d_84">
      <g>
       <use xlink:href="#m6417edc30c" x="947.52" y="576.72" style="stroke: #000000; stroke-width: 0.8"/>
      </g>
     </g>
     <g id="text_20">
      <!-- 250 ns -->
      <g transform="translate(923.85125 590.857813) scale(0.14 -0.14)">
       <use xlink:href="#DejaVuSans-32"/>
       <use xlink:href="#DejaVuSans-35" x="63.623047"/>
       <use xlink:href="#DejaVuSans-30" x="127.246094"/>
       <use xlink:href="#DejaVuSans-20" x="190.869141"/>
       <use xlink:href="#DejaVuSans-6e" x="222.65625"/>
       <use xlink:href="#DejaVuSans-73" x="286.035156"/>
      </g>
     </g>
    </g>
    <g id="text_21">
     <!-- Time -->
     <g transform="translate(527.192969 608.407187) scale(0.14 -0.14)">
      <defs>
       <path id="DejaVuSans-69" d="M 603 3500 
L 1178 3500 
L 1178 0 
L 603 0 
L 603 3500 
z
M 603 4863 
L 1178 4863 
L 1178 4134 
L 603 4134 
L 603 4863 
z
" transform="scale(0.015625)"/>
       <path id="DejaVuSans-6d" d="M 3328 2828 
Q 3544 3216 3844 3400 
Q 4144 3584 4550 3584 
Q 5097 3584 5394 3201 
Q 5691 2819 5691 2113 
L 5691 0 
L 5113 0 
L 5113 2094 
Q 5113 2597 4934 2840 
Q 4756 3084 4391 3084 
Q 3944 3084 3684 2787 
Q 3425 2491 3425 1978 
L 3425 0 
L 2847 0 
L 2847 2094 
Q 2847 2600 2669 2842 
Q 2491 3084 2119 3084 
Q 1678 3084 1418 2786 
Q 1159 2488 1159 1978 
L 1159 0 
L 581 0 
L 581 3500 
L 1159 3500 
L 1159 2956 
Q 1356 3278 1631 3431 
Q 1906 3584 2284 3584 
Q 2666 3584 2933 3390 
Q 3200 3197 3328 2828 
z
" transform="scale(0.015625)"/>
       <path id="DejaVuSans-65" d="M 3597 1894 
L 3597 1613 
L 953 1613 
Q 991 1019 1311 708 
Q 1631 397 2203 397 
Q 2534 397 2845 478 
Q 3156 559 3463 722 
L 3463 178 
Q 3153 47 2828 -22 
Q 2503 -91 2169 -91 
Q 1331 -91 842 396 
Q 353 884 353 1716 
Q 353 2575 817 3079 
Q 1281 3584 2069 3584 
Q 2775 3584 3186 3129 
Q 3597 2675 3597 1894 
z
M 3022 2063 
Q 3016 2534 2758 2815 
Q 2500 3097 2075 3097 
Q 1594 3097 1305 2825 
Q 1016 2553 972 2059 
L 3022 2063 
z
" transform="scale(0.015625)"/>
      </defs>
      <use xlink:href="#DejaVuSans-54"/>
      <use xlink:href="#DejaVuSans-69" x="57.958984"/>
      <use xlink:href="#DejaVuSans-6d" x="85.742188"/>
      <use xlink:href="#DejaVuSans-65" x="183.154297"/>
     </g>
    </g>
   </g>
   <g id="matplotlib.axis_10">
    <g id="ytick_11">
     <g id="line2d_85">
      <path d="M 100.8 569.745885 
L 987.84 569.745885 
" clip-path="url(#pc0a90f824b)" style="fill: none; stroke-dasharray: 1.85,0.8; stroke-dashoffset: 0; stroke: #b2b2b2; stroke-width: 0.5"/>
     </g>
     <g id="line2d_86">
      <g>
       <use xlink:href="#md05779a42d" x="100.8" y="569.745885" style="stroke: #000000; stroke-width: 0.8"/>
      </g>
     </g>
     <g id="text_22">
      <!-- 0 V -->
      <g transform="translate(74.36625 575.064792) scale(0.14 -0.14)">
       <use xlink:href="#DejaVuSans-30"/>
       <use xlink:href="#DejaVuSans-20" x="63.623047"/>
       <use xlink:href="#DejaVuSans-56" x="95.410156"/>
      </g>
     </g>
    </g>
    <g id="ytick_12">
     <g id="line2d_87">
      <path d="M 100.8 535.950348 
L 987.84 535.950348 
" clip-path="url(#pc0a90f824b)" style="fill: none; stroke-dasharray: 1.85,0.8; stroke-dashoffset: 0; stroke: #b2b2b2; stroke-width: 0.5"/>
     </g>
     <g id="line2d_88">
      <g>
       <use xlink:href="#md05779a42d" x="100.8" y="535.950348" style="stroke: #000000; stroke-width: 0.8"/>
      </g>
     </g>
     <g id="text_23">
      <!-- 500 mV -->
      <g transform="translate(42.914375 541.269254) scale(0.14 -0.14)">
       <use xlink:href="#DejaVuSans-35"/>
       <use xlink:href="#DejaVuSans-30" x="63.623047"/>
       <use xlink:href="#DejaVuSans-30" x="127.246094"/>
       <use xlink:href="#DejaVuSans-20" x="190.869141"/>
       <use xlink:href="#DejaVuSans-6d" x="222.65625"/>
       <use xlink:href="#DejaVuSans-56" x="320.068359"/>
      </g>
     </g>
    </g>
    <g id="ytick_13">
     <g id="line2d_89">
      <path d="M 100.8 502.15481 
L 987.84 502.15481 
" clip-path="url(#pc0a90f824b)" style="fill: none; stroke-dasharray: 1.85,0.8; stroke-dashoffset: 0; stroke: #b2b2b2; stroke-width: 0.5"/>
     </g>
     <g id="line2d_90">
      <g>
       <use xlink:href="#md05779a42d" x="100.8" y="502.15481" style="stroke: #000000; stroke-width: 0.8"/>
      </g>
     </g>
     <g id="text_24">
      <!-- 1 V -->
      <g transform="translate(74.36625 507.473717) scale(0.14 -0.14)">
       <use xlink:href="#DejaVuSans-31"/>
       <use xlink:href="#DejaVuSans-20" x="63.623047"/>
       <use xlink:href="#DejaVuSans-56" x="95.410156"/>
      </g>
     </g>
    </g>
    <g id="text_25">
     <g id="patch_27">
      <path d="M 34.8768 554.329483 
L 34.8768 506.379483 
L 11.247425 506.379483 
L 11.247425 554.329483 
z
" style="fill: #ffff00; opacity: 0.2; stroke: #eeeeee; stroke-width: 0.5; stroke-linejoin: miter"/>
     </g>
     <!-- FOUT -->
     <g transform="translate(26.925238 549.289483) rotate(-90) scale(0.14 -0.14)">
      <use xlink:href="#DejaVuSans-46"/>
      <use xlink:href="#DejaVuSans-4f" x="57.519531"/>
      <use xlink:href="#DejaVuSans-55" x="136.230469"/>
      <use xlink:href="#DejaVuSans-54" x="209.423828"/>
     </g>
    </g>
   </g>
   <g id="line2d_91">
    <path d="M 141.12 488.636595 
L 173.472768 488.643355 
L 173.505024 488.44734 
L 173.569536 526.789729 
L 173.69856 572.504953 
L 173.730816 572.3695 
L 173.827584 567.842115 
L 173.892096 569.3609 
L 174.053376 570.064192 
L 174.117888 569.946665 
L 174.408192 569.492054 
L 174.440448 569.54151 
L 174.66624 569.729954 
L 176.182272 569.740151 
L 180.117504 569.761449 
L 193.568256 569.752159 
L 212.954112 569.74401 
L 255.30624 569.743704 
L 255.6288 488.52845 
L 255.854592 488.670391 
L 256.209408 488.629836 
L 334.849536 488.650114 
L 334.881792 492.854278 
L 335.043072 572.18376 
L 335.107584 570.261206 
L 335.172096 568.338639 
L 335.236608 568.870108 
L 335.365632 570.783003 
L 335.430144 570.410083 
L 335.591424 569.797213 
L 335.881728 569.648439 
L 336.559104 569.817924 
L 337.107456 569.746143 
L 350.009856 569.744206 
L 416.489472 569.74333 
L 416.553984 567.480841 
L 416.812032 488.204013 
L 416.844288 488.339195 
L 416.973312 488.852887 
L 417.037824 488.778537 
L 417.39264 488.548727 
L 417.844224 488.717705 
L 418.457088 488.562245 
L 419.328 488.636595 
L 529.933824 488.562245 
L 529.96608 488.433822 
L 529.998336 488.582523 
L 530.062848 512.407701 
L 530.191872 570.221659 
L 530.224128 569.717574 
L 530.44992 569.744226 
L 534.191616 569.744174 
L 576.479232 569.743414 
L 576.511488 567.878479 
L 576.866304 488.643355 
L 577.575936 488.629836 
L 577.608192 488.332436 
L 577.640448 493.009738 
L 577.801728 569.759505 
L 578.059776 569.744178 
L 658.215936 569.725623 
L 658.248192 569.0255 
L 658.538496 488.663632 
L 658.861056 488.636595 
L 947.52 488.636595 
L 947.52 488.636595 
" clip-path="url(#pc0a90f824b)" style="fill: none; stroke: #ff00ff; stroke-width: 2; stroke-linecap: square"/>
   </g>
   <g id="patch_28">
    <path d="M 100.8 576.72 
L 100.8 483.988966 
" style="fill: none; stroke: #bcbcbc; stroke-width: 0.8; stroke-linejoin: miter; stroke-linecap: square"/>
   </g>
   <g id="patch_29">
    <path d="M 987.84 576.72 
L 987.84 483.988966 
" style="fill: none; stroke: #bcbcbc; stroke-width: 0.8; stroke-linejoin: miter; stroke-linecap: square"/>
   </g>
   <g id="patch_30">
    <path d="M 100.8 576.72 
L 987.84 576.72 
" style="fill: none; stroke: #bcbcbc; stroke-width: 0.8; stroke-linejoin: miter; stroke-linecap: square"/>
   </g>
   <g id="patch_31">
    <path d="M 100.8 483.988966 
L 987.84 483.988966 
" style="fill: none; stroke: #bcbcbc; stroke-width: 0.8; stroke-linejoin: miter; stroke-linecap: square"/>
   </g>
  </g>
  <g id="axes_6">
   <g id="patch_32">
    <path d="M 201.6 628.56 
L 856.8 628.56 
L 856.8 615.6 
L 201.6 615.6 
z
" clip-path="url(#pc59f847ca7)" style="fill: #d3d3d3"/>
   </g>
   <g id="patch_33">
    <path d="M 201.6 628.56 
L 674.28 628.56 
L 674.28 615.6 
L 201.6 615.6 
z
" clip-path="url(#pc59f847ca7)" style="fill: #0000ff"/>
   </g>
   <g id="line2d_92">
    <path d="M 201.6 635.04 
L 201.6 609.12 
" clip-path="url(#pb0ae3eed81)" style="fill: none; stroke: #ff0000; stroke-linecap: square"/>
   </g>
   <g id="line2d_93">
    <defs>
     <path id="mfcc611d729" d="M 0 5 
C 1.326016 5 2.597899 4.473168 3.535534 3.535534 
C 4.473168 2.597899 5 1.326016 5 0 
C 5 -1.326016 4.473168 -2.597899 3.535534 -3.535534 
C 2.597899 -4.473168 1.326016 -5 0 -5 
C -1.326016 -5 -2.597899 -4.473168 -3.535534 -3.535534 
C -4.473168 -2.597899 -5 -1.326016 -5 0 
C -5 1.326016 -4.473168 2.597899 -3.535534 3.535534 
C -2.597899 4.473168 -1.326016 5 0 5 
z
" style="stroke: #bfbfbf"/>
    </defs>
    <g>
     <use xlink:href="#mfcc611d729" x="674.28" y="622.08" style="fill: #ffffff; stroke: #bfbfbf"/>
    </g>
   </g>
   <g id="text_26">
    <!-- #Sweep -->
    <g transform="translate(138.622875 625.39125) scale(0.12 -0.12)">
     <defs>
      <path id="DejaVuSans-23" d="M 3272 2816 
L 2363 2816 
L 2100 1772 
L 3016 1772 
L 3272 2816 
z
M 2803 4594 
L 2478 3297 
L 3391 3297 
L 3719 4594 
L 4219 4594 
L 3897 3297 
L 4872 3297 
L 4872 2816 
L 3775 2816 
L 3519 1772 
L 4513 1772 
L 4513 1294 
L 3397 1294 
L 3072 0 
L 2572 0 
L 2894 1294 
L 1978 1294 
L 1656 0 
L 1153 0 
L 1478 1294 
L 494 1294 
L 494 1772 
L 1594 1772 
L 1856 2816 
L 850 2816 
L 850 3297 
L 1978 3297 
L 2297 4594 
L 2803 4594 
z
" transform="scale(0.015625)"/>
      <path id="DejaVuSans-77" d="M 269 3500 
L 844 3500 
L 1563 769 
L 2278 3500 
L 2956 3500 
L 3675 769 
L 4391 3500 
L 4966 3500 
L 4050 0 
L 3372 0 
L 2619 2869 
L 1863 0 
L 1184 0 
L 269 3500 
z
" transform="scale(0.015625)"/>
      <path id="DejaVuSans-70" d="M 1159 525 
L 1159 -1331 
L 581 -1331 
L 581 3500 
L 1159 3500 
L 1159 2969 
Q 1341 3281 1617 3432 
Q 1894 3584 2278 3584 
Q 2916 3584 3314 3078 
Q 3713 2572 3713 1747 
Q 3713 922 3314 415 
Q 2916 -91 2278 -91 
Q 1894 -91 1617 61 
Q 1341 213 1159 525 
z
M 3116 1747 
Q 3116 2381 2855 2742 
Q 2594 3103 2138 3103 
Q 1681 3103 1420 2742 
Q 1159 2381 1159 1747 
Q 1159 1113 1420 752 
Q 1681 391 2138 391 
Q 2594 391 2855 752 
Q 3116 1113 3116 1747 
z
" transform="scale(0.015625)"/>
     </defs>
     <use xlink:href="#DejaVuSans-23"/>
     <use xlink:href="#DejaVuSans-53" x="83.789062"/>
     <use xlink:href="#DejaVuSans-77" x="147.265625"/>
     <use xlink:href="#DejaVuSans-65" x="229.052734"/>
     <use xlink:href="#DejaVuSans-65" x="290.576172"/>
     <use xlink:href="#DejaVuSans-70" x="352.099609"/>
    </g>
   </g>
   <g id="text_27">
    <!-- $\mathdefault{101}$ -->
    <g transform="translate(869.904 625.39125) scale(0.12 -0.12)">
     <use xlink:href="#DejaVuSans-31" transform="translate(0 0.78125)"/>
     <use xlink:href="#DejaVuSans-30" transform="translate(63.623047 0.78125)"/>
     <use xlink:href="#DejaVuSans-31" transform="translate(127.246094 0.78125)"/>
    </g>
   </g>
  </g>
  <g id="text_28">
   <!-- DFF under BBI sweep analysis (Sweep = 111E-9) -->
   <g transform="translate(308.25625 25.1175) scale(0.16 -0.16)">
    <defs>
     <path id="DejaVuSans-75" d="M 544 1381 
L 544 3500 
L 1119 3500 
L 1119 1403 
Q 1119 906 1312 657 
Q 1506 409 1894 409 
Q 2359 409 2629 706 
Q 2900 1003 2900 1516 
L 2900 3500 
L 3475 3500 
L 3475 0 
L 2900 0 
L 2900 538 
Q 2691 219 2414 64 
Q 2138 -91 1772 -91 
Q 1169 -91 856 284 
Q 544 659 544 1381 
z
M 1991 3584 
L 1991 3584 
z
" transform="scale(0.015625)"/>
     <path id="DejaVuSans-64" d="M 2906 2969 
L 2906 4863 
L 3481 4863 
L 3481 0 
L 2906 0 
L 2906 525 
Q 2725 213 2448 61 
Q 2172 -91 1784 -91 
Q 1150 -91 751 415 
Q 353 922 353 1747 
Q 353 2572 751 3078 
Q 1150 3584 1784 3584 
Q 2172 3584 2448 3432 
Q 2725 3281 2906 2969 
z
M 947 1747 
Q 947 1113 1208 752 
Q 1469 391 1925 391 
Q 2381 391 2643 752 
Q 2906 1113 2906 1747 
Q 2906 2381 2643 2742 
Q 2381 3103 1925 3103 
Q 1469 3103 1208 2742 
Q 947 2381 947 1747 
z
" transform="scale(0.015625)"/>
     <path id="DejaVuSans-72" d="M 2631 2963 
Q 2534 3019 2420 3045 
Q 2306 3072 2169 3072 
Q 1681 3072 1420 2755 
Q 1159 2438 1159 1844 
L 1159 0 
L 581 0 
L 581 3500 
L 1159 3500 
L 1159 2956 
Q 1341 3275 1631 3429 
Q 1922 3584 2338 3584 
Q 2397 3584 2469 3576 
Q 2541 3569 2628 3553 
L 2631 2963 
z
" transform="scale(0.015625)"/>
     <path id="DejaVuSans-61" d="M 2194 1759 
Q 1497 1759 1228 1600 
Q 959 1441 959 1056 
Q 959 750 1161 570 
Q 1363 391 1709 391 
Q 2188 391 2477 730 
Q 2766 1069 2766 1631 
L 2766 1759 
L 2194 1759 
z
M 3341 1997 
L 3341 0 
L 2766 0 
L 2766 531 
Q 2569 213 2275 61 
Q 1981 -91 1556 -91 
Q 1019 -91 701 211 
Q 384 513 384 1019 
Q 384 1609 779 1909 
Q 1175 2209 1959 2209 
L 2766 2209 
L 2766 2266 
Q 2766 2663 2505 2880 
Q 2244 3097 1772 3097 
Q 1472 3097 1187 3025 
Q 903 2953 641 2809 
L 641 3341 
Q 956 3463 1253 3523 
Q 1550 3584 1831 3584 
Q 2591 3584 2966 3190 
Q 3341 2797 3341 1997 
z
" transform="scale(0.015625)"/>
     <path id="DejaVuSans-6c" d="M 603 4863 
L 1178 4863 
L 1178 0 
L 603 0 
L 603 4863 
z
" transform="scale(0.015625)"/>
     <path id="DejaVuSans-79" d="M 2059 -325 
Q 1816 -950 1584 -1140 
Q 1353 -1331 966 -1331 
L 506 -1331 
L 506 -850 
L 844 -850 
Q 1081 -850 1212 -737 
Q 1344 -625 1503 -206 
L 1606 56 
L 191 3500 
L 800 3500 
L 1894 763 
L 2988 3500 
L 3597 3500 
L 2059 -325 
z
" transform="scale(0.015625)"/>
     <path id="DejaVuSans-28" d="M 1984 4856 
Q 1566 4138 1362 3434 
Q 1159 2731 1159 2009 
Q 1159 1288 1364 580 
Q 1569 -128 1984 -844 
L 1484 -844 
Q 1016 -109 783 600 
Q 550 1309 550 2009 
Q 550 2706 781 3412 
Q 1013 4119 1484 4856 
L 1984 4856 
z
" transform="scale(0.015625)"/>
     <path id="DejaVuSans-3d" d="M 678 2906 
L 4684 2906 
L 4684 2381 
L 678 2381 
L 678 2906 
z
M 678 1631 
L 4684 1631 
L 4684 1100 
L 678 1100 
L 678 1631 
z
" transform="scale(0.015625)"/>
     <path id="DejaVuSans-2d" d="M 313 2009 
L 1997 2009 
L 1997 1497 
L 313 1497 
L 313 2009 
z
" transform="scale(0.015625)"/>
     <path id="DejaVuSans-39" d="M 703 97 
L 703 672 
Q 941 559 1184 500 
Q 1428 441 1663 441 
Q 2288 441 2617 861 
Q 2947 1281 2994 2138 
Q 2813 1869 2534 1725 
Q 2256 1581 1919 1581 
Q 1219 1581 811 2004 
Q 403 2428 403 3163 
Q 403 3881 828 4315 
Q 1253 4750 1959 4750 
Q 2769 4750 3195 4129 
Q 3622 3509 3622 2328 
Q 3622 1225 3098 567 
Q 2575 -91 1691 -91 
Q 1453 -91 1209 -44 
Q 966 3 703 97 
z
M 1959 2075 
Q 2384 2075 2632 2365 
Q 2881 2656 2881 3163 
Q 2881 3666 2632 3958 
Q 2384 4250 1959 4250 
Q 1534 4250 1286 3958 
Q 1038 3666 1038 3163 
Q 1038 2656 1286 2365 
Q 1534 2075 1959 2075 
z
" transform="scale(0.015625)"/>
     <path id="DejaVuSans-29" d="M 513 4856 
L 1013 4856 
Q 1481 4119 1714 3412 
Q 1947 2706 1947 2009 
Q 1947 1309 1714 600 
Q 1481 -109 1013 -844 
L 513 -844 
Q 928 -128 1133 580 
Q 1338 1288 1338 2009 
Q 1338 2731 1133 3434 
Q 928 4138 513 4856 
z
" transform="scale(0.015625)"/>
    </defs>
    <use xlink:href="#DejaVuSans-44"/>
    <use xlink:href="#DejaVuSans-46" x="77.001953"/>
    <use xlink:href="#DejaVuSans-46" x="134.521484"/>
    <use xlink:href="#DejaVuSans-20" x="192.041016"/>
    <use xlink:href="#DejaVuSans-75" x="223.828125"/>
    <use xlink:href="#DejaVuSans-6e" x="287.207031"/>
    <use xlink:href="#DejaVuSans-64" x="350.585938"/>
    <use xlink:href="#DejaVuSans-65" x="414.0625"/>
    <use xlink:href="#DejaVuSans-72" x="475.585938"/>
    <use xlink:href="#DejaVuSans-20" x="516.699219"/>
    <use xlink:href="#DejaVuSans-42" x="548.486328"/>
    <use xlink:href="#DejaVuSans-42" x="617.089844"/>
    <use xlink:href="#DejaVuSans-49" x="685.693359"/>
    <use xlink:href="#DejaVuSans-20" x="715.185547"/>
    <use xlink:href="#DejaVuSans-73" x="746.972656"/>
    <use xlink:href="#DejaVuSans-77" x="799.072266"/>
    <use xlink:href="#DejaVuSans-65" x="880.859375"/>
    <use xlink:href="#DejaVuSans-65" x="942.382812"/>
    <use xlink:href="#DejaVuSans-70" x="1003.90625"/>
    <use xlink:href="#DejaVuSans-20" x="1067.382812"/>
    <use xlink:href="#DejaVuSans-61" x="1099.169922"/>
    <use xlink:href="#DejaVuSans-6e" x="1160.449219"/>
    <use xlink:href="#DejaVuSans-61" x="1223.828125"/>
    <use xlink:href="#DejaVuSans-6c" x="1285.107422"/>
    <use xlink:href="#DejaVuSans-79" x="1312.890625"/>
    <use xlink:href="#DejaVuSans-73" x="1372.070312"/>
    <use xlink:href="#DejaVuSans-69" x="1424.169922"/>
    <use xlink:href="#DejaVuSans-73" x="1451.953125"/>
    <use xlink:href="#DejaVuSans-20" x="1504.052734"/>
    <use xlink:href="#DejaVuSans-28" x="1535.839844"/>
    <use xlink:href="#DejaVuSans-53" x="1574.853516"/>
    <use xlink:href="#DejaVuSans-77" x="1638.330078"/>
    <use xlink:href="#DejaVuSans-65" x="1720.117188"/>
    <use xlink:href="#DejaVuSans-65" x="1781.640625"/>
    <use xlink:href="#DejaVuSans-70" x="1843.164062"/>
    <use xlink:href="#DejaVuSans-20" x="1906.640625"/>
    <use xlink:href="#DejaVuSans-3d" x="1938.427734"/>
    <use xlink:href="#DejaVuSans-20" x="2022.216797"/>
    <use xlink:href="#DejaVuSans-31" x="2054.003906"/>
    <use xlink:href="#DejaVuSans-31" x="2117.626953"/>
    <use xlink:href="#DejaVuSans-31" x="2181.25"/>
    <use xlink:href="#DejaVuSans-45" x="2244.873047"/>
    <use xlink:href="#DejaVuSans-2d" x="2308.056641"/>
    <use xlink:href="#DejaVuSans-39" x="2344.140625"/>
    <use xlink:href="#DejaVuSans-29" x="2407.763672"/>
   </g>
  </g>
 </g>
 <defs>
  <clipPath id="p6f98c05eae">
   <rect x="100.8" y="38.88" width="887.04" height="92.731034"/>
  </clipPath>
  <clipPath id="pf17a0db9ae">
   <rect x="100.8" y="150.157241" width="887.04" height="92.731034"/>
  </clipPath>
  <clipPath id="pece5b226a9">
   <rect x="100.8" y="261.434483" width="887.04" height="92.731034"/>
  </clipPath>
  <clipPath id="pff4c712478">
   <rect x="100.8" y="372.711724" width="887.04" height="92.731034"/>
  </clipPath>
  <clipPath id="pc0a90f824b">
   <rect x="100.8" y="483.988966" width="887.04" height="92.731034"/>
  </clipPath>
  <clipPath id="pc59f847ca7">
   <rect x="201.6" y="609.12" width="655.2" height="25.92"/>
  </clipPath>
  <clipPath id="pb0ae3eed81">
   <path d="M 201.6 628.56 
L 856.8 628.56 
L 856.8 615.6 
L 201.6 615.6 
z
"/>
  </clipPath>
 </defs>
</svg>
