<?xml version="1.0" encoding="utf-8" standalone="no"?>
<!DOCTYPE svg PUBLIC "-//W3C//DTD SVG 1.1//EN"
  "http://www.w3.org/Graphics/SVG/1.1/DTD/svg11.dtd">
<svg xmlns:xlink="http://www.w3.org/1999/xlink" width="1008pt" height="648pt" viewBox="0 0 1008 648" xmlns="http://www.w3.org/2000/svg" version="1.1">
 <metadata>
  <rdf:RDF xmlns:dc="http://purl.org/dc/elements/1.1/" xmlns:cc="http://creativecommons.org/ns#" xmlns:rdf="http://www.w3.org/1999/02/22-rdf-syntax-ns#">
   <cc:Work>
    <dc:type rdf:resource="http://purl.org/dc/dcmitype/StillImage"/>
    <dc:date>2024-06-03T10:45:47.073971</dc:date>
    <dc:format>image/svg+xml</dc:format>
    <dc:creator>
     <cc:Agent>
      <dc:title>Matplotlib v3.9.0, https://matplotlib.org/</dc:title>
     </cc:Agent>
    </dc:creator>
   </cc:Work>
  </rdf:RDF>
 </metadata>
 <defs>
  <style type="text/css">*{stroke-linejoin: round; stroke-linecap: butt}</style>
 </defs>
 <g id="figure_1">
  <g id="patch_1">
   <path d="M 0 648 
L 1008 648 
L 1008 0 
L 0 0 
z
" style="fill: #ffffff"/>
  </g>
  <g id="axes_1">
   <g id="patch_2">
    <path d="M 100.8 131.611034 
L 987.84 131.611034 
L 987.84 38.88 
L 100.8 38.88 
z
" style="fill: #eeeeee"/>
   </g>
   <g id="matplotlib.axis_1">
    <g id="xtick_1">
     <g id="line2d_1">
      <path d="M 141.12 131.611034 
L 141.12 38.88 
" clip-path="url(#pb2f37ef660)" style="fill: none; stroke-dasharray: 1.85,0.8; stroke-dashoffset: 0; stroke: #b2b2b2; stroke-width: 0.5"/>
     </g>
     <g id="line2d_2">
      <defs>
       <path id="m1408611632" d="M 0 0 
L 0 -3.5 
" style="stroke: #000000; stroke-width: 0.8"/>
      </defs>
      <g>
       <use xlink:href="#m1408611632" x="141.12" y="131.611034" style="stroke: #000000; stroke-width: 0.8"/>
      </g>
     </g>
    </g>
    <g id="xtick_2">
     <g id="line2d_3">
      <path d="M 302.4 131.611034 
L 302.4 38.88 
" clip-path="url(#pb2f37ef660)" style="fill: none; stroke-dasharray: 1.85,0.8; stroke-dashoffset: 0; stroke: #b2b2b2; stroke-width: 0.5"/>
     </g>
     <g id="line2d_4">
      <g>
       <use xlink:href="#m1408611632" x="302.4" y="131.611034" style="stroke: #000000; stroke-width: 0.8"/>
      </g>
     </g>
    </g>
    <g id="xtick_3">
     <g id="line2d_5">
      <path d="M 463.68 131.611034 
L 463.68 38.88 
" clip-path="url(#pb2f37ef660)" style="fill: none; stroke-dasharray: 1.85,0.8; stroke-dashoffset: 0; stroke: #b2b2b2; stroke-width: 0.5"/>
     </g>
     <g id="line2d_6">
      <g>
       <use xlink:href="#m1408611632" x="463.68" y="131.611034" style="stroke: #000000; stroke-width: 0.8"/>
      </g>
     </g>
    </g>
    <g id="xtick_4">
     <g id="line2d_7">
      <path d="M 624.96 131.611034 
L 624.96 38.88 
" clip-path="url(#pb2f37ef660)" style="fill: none; stroke-dasharray: 1.85,0.8; stroke-dashoffset: 0; stroke: #b2b2b2; stroke-width: 0.5"/>
     </g>
     <g id="line2d_8">
      <g>
       <use xlink:href="#m1408611632" x="624.96" y="131.611034" style="stroke: #000000; stroke-width: 0.8"/>
      </g>
     </g>
    </g>
    <g id="xtick_5">
     <g id="line2d_9">
      <path d="M 786.24 131.611034 
L 786.24 38.88 
" clip-path="url(#pb2f37ef660)" style="fill: none; stroke-dasharray: 1.85,0.8; stroke-dashoffset: 0; stroke: #b2b2b2; stroke-width: 0.5"/>
     </g>
     <g id="line2d_10">
      <g>
       <use xlink:href="#m1408611632" x="786.24" y="131.611034" style="stroke: #000000; stroke-width: 0.8"/>
      </g>
     </g>
    </g>
    <g id="xtick_6">
     <g id="line2d_11">
      <path d="M 947.52 131.611034 
L 947.52 38.88 
" clip-path="url(#pb2f37ef660)" style="fill: none; stroke-dasharray: 1.85,0.8; stroke-dashoffset: 0; stroke: #b2b2b2; stroke-width: 0.5"/>
     </g>
     <g id="line2d_12">
      <g>
       <use xlink:href="#m1408611632" x="947.52" y="131.611034" style="stroke: #000000; stroke-width: 0.8"/>
      </g>
     </g>
    </g>
   </g>
   <g id="matplotlib.axis_2">
    <g id="ytick_1">
     <g id="line2d_13">
      <path d="M 100.8 98.340394 
L 987.84 98.340394 
" clip-path="url(#pb2f37ef660)" style="fill: none; stroke-dasharray: 1.85,0.8; stroke-dashoffset: 0; stroke: #b2b2b2; stroke-width: 0.5"/>
     </g>
     <g id="line2d_14">
      <defs>
       <path id="ma93de02cb3" d="M 0 0 
L 3.5 0 
" style="stroke: #000000; stroke-width: 0.8"/>
      </defs>
      <g>
       <use xlink:href="#ma93de02cb3" x="100.8" y="98.340394" style="stroke: #000000; stroke-width: 0.8"/>
      </g>
     </g>
     <g id="text_1">
      <!-- −200 V -->
      <g transform="translate(44.819688 103.6593) scale(0.14 -0.14)">
       <defs>
        <path id="DejaVuSans-2212" d="M 678 2272 
L 4684 2272 
L 4684 1741 
L 678 1741 
L 678 2272 
z
" transform="scale(0.015625)"/>
        <path id="DejaVuSans-32" d="M 1228 531 
L 3431 531 
L 3431 0 
L 469 0 
L 469 531 
Q 828 903 1448 1529 
Q 2069 2156 2228 2338 
Q 2531 2678 2651 2914 
Q 2772 3150 2772 3378 
Q 2772 3750 2511 3984 
Q 2250 4219 1831 4219 
Q 1534 4219 1204 4116 
Q 875 4013 500 3803 
L 500 4441 
Q 881 4594 1212 4672 
Q 1544 4750 1819 4750 
Q 2544 4750 2975 4387 
Q 3406 4025 3406 3419 
Q 3406 3131 3298 2873 
Q 3191 2616 2906 2266 
Q 2828 2175 2409 1742 
Q 1991 1309 1228 531 
z
" transform="scale(0.015625)"/>
        <path id="DejaVuSans-30" d="M 2034 4250 
Q 1547 4250 1301 3770 
Q 1056 3291 1056 2328 
Q 1056 1369 1301 889 
Q 1547 409 2034 409 
Q 2525 409 2770 889 
Q 3016 1369 3016 2328 
Q 3016 3291 2770 3770 
Q 2525 4250 2034 4250 
z
M 2034 4750 
Q 2819 4750 3233 4129 
Q 3647 3509 3647 2328 
Q 3647 1150 3233 529 
Q 2819 -91 2034 -91 
Q 1250 -91 836 529 
Q 422 1150 422 2328 
Q 422 3509 836 4129 
Q 1250 4750 2034 4750 
z
" transform="scale(0.015625)"/>
        <path id="DejaVuSans-20" transform="scale(0.015625)"/>
        <path id="DejaVuSans-56" d="M 1831 0 
L 50 4666 
L 709 4666 
L 2188 738 
L 3669 4666 
L 4325 4666 
L 2547 0 
L 1831 0 
z
" transform="scale(0.015625)"/>
       </defs>
       <use xlink:href="#DejaVuSans-2212"/>
       <use xlink:href="#DejaVuSans-32" x="83.789062"/>
       <use xlink:href="#DejaVuSans-30" x="147.412109"/>
       <use xlink:href="#DejaVuSans-30" x="211.035156"/>
       <use xlink:href="#DejaVuSans-20" x="274.658203"/>
       <use xlink:href="#DejaVuSans-56" x="306.445312"/>
      </g>
     </g>
    </g>
    <g id="ytick_2">
     <g id="line2d_15">
      <path d="M 100.8 45.027377 
L 987.84 45.027377 
" clip-path="url(#pb2f37ef660)" style="fill: none; stroke-dasharray: 1.85,0.8; stroke-dashoffset: 0; stroke: #b2b2b2; stroke-width: 0.5"/>
     </g>
     <g id="line2d_16">
      <g>
       <use xlink:href="#ma93de02cb3" x="100.8" y="45.027377" style="stroke: #000000; stroke-width: 0.8"/>
      </g>
     </g>
     <g id="text_2">
      <!-- 0 V -->
      <g transform="translate(74.36625 50.346284) scale(0.14 -0.14)">
       <use xlink:href="#DejaVuSans-30"/>
       <use xlink:href="#DejaVuSans-20" x="63.623047"/>
       <use xlink:href="#DejaVuSans-56" x="95.410156"/>
      </g>
     </g>
    </g>
    <g id="text_3">
     <g id="patch_3">
      <path d="M 34.8768 131.080205 
L 34.8768 39.41083 
L 11.247425 39.41083 
L 11.247425 131.080205 
z
" style="fill: #ffff00; opacity: 0.2; stroke: #eeeeee; stroke-width: 0.5; stroke-linejoin: miter"/>
     </g>
     <!-- VPULSE BBI -->
     <g transform="translate(26.925238 126.040205) rotate(-90) scale(0.14 -0.14)">
      <defs>
       <path id="DejaVuSans-50" d="M 1259 4147 
L 1259 2394 
L 2053 2394 
Q 2494 2394 2734 2622 
Q 2975 2850 2975 3272 
Q 2975 3691 2734 3919 
Q 2494 4147 2053 4147 
L 1259 4147 
z
M 628 4666 
L 2053 4666 
Q 2838 4666 3239 4311 
Q 3641 3956 3641 3272 
Q 3641 2581 3239 2228 
Q 2838 1875 2053 1875 
L 1259 1875 
L 1259 0 
L 628 0 
L 628 4666 
z
" transform="scale(0.015625)"/>
       <path id="DejaVuSans-55" d="M 556 4666 
L 1191 4666 
L 1191 1831 
Q 1191 1081 1462 751 
Q 1734 422 2344 422 
Q 2950 422 3222 751 
Q 3494 1081 3494 1831 
L 3494 4666 
L 4128 4666 
L 4128 1753 
Q 4128 841 3676 375 
Q 3225 -91 2344 -91 
Q 1459 -91 1007 375 
Q 556 841 556 1753 
L 556 4666 
z
" transform="scale(0.015625)"/>
       <path id="DejaVuSans-4c" d="M 628 4666 
L 1259 4666 
L 1259 531 
L 3531 531 
L 3531 0 
L 628 0 
L 628 4666 
z
" transform="scale(0.015625)"/>
       <path id="DejaVuSans-53" d="M 3425 4513 
L 3425 3897 
Q 3066 4069 2747 4153 
Q 2428 4238 2131 4238 
Q 1616 4238 1336 4038 
Q 1056 3838 1056 3469 
Q 1056 3159 1242 3001 
Q 1428 2844 1947 2747 
L 2328 2669 
Q 3034 2534 3370 2195 
Q 3706 1856 3706 1288 
Q 3706 609 3251 259 
Q 2797 -91 1919 -91 
Q 1588 -91 1214 -16 
Q 841 59 441 206 
L 441 856 
Q 825 641 1194 531 
Q 1563 422 1919 422 
Q 2459 422 2753 634 
Q 3047 847 3047 1241 
Q 3047 1584 2836 1778 
Q 2625 1972 2144 2069 
L 1759 2144 
Q 1053 2284 737 2584 
Q 422 2884 422 3419 
Q 422 4038 858 4394 
Q 1294 4750 2059 4750 
Q 2388 4750 2728 4690 
Q 3069 4631 3425 4513 
z
" transform="scale(0.015625)"/>
       <path id="DejaVuSans-45" d="M 628 4666 
L 3578 4666 
L 3578 4134 
L 1259 4134 
L 1259 2753 
L 3481 2753 
L 3481 2222 
L 1259 2222 
L 1259 531 
L 3634 531 
L 3634 0 
L 628 0 
L 628 4666 
z
" transform="scale(0.015625)"/>
       <path id="DejaVuSans-42" d="M 1259 2228 
L 1259 519 
L 2272 519 
Q 2781 519 3026 730 
Q 3272 941 3272 1375 
Q 3272 1813 3026 2020 
Q 2781 2228 2272 2228 
L 1259 2228 
z
M 1259 4147 
L 1259 2741 
L 2194 2741 
Q 2656 2741 2882 2914 
Q 3109 3088 3109 3444 
Q 3109 3797 2882 3972 
Q 2656 4147 2194 4147 
L 1259 4147 
z
M 628 4666 
L 2241 4666 
Q 2963 4666 3353 4366 
Q 3744 4066 3744 3513 
Q 3744 3084 3544 2831 
Q 3344 2578 2956 2516 
Q 3422 2416 3680 2098 
Q 3938 1781 3938 1306 
Q 3938 681 3513 340 
Q 3088 0 2303 0 
L 628 0 
L 628 4666 
z
" transform="scale(0.015625)"/>
       <path id="DejaVuSans-49" d="M 628 4666 
L 1259 4666 
L 1259 0 
L 628 0 
L 628 4666 
z
" transform="scale(0.015625)"/>
      </defs>
      <use xlink:href="#DejaVuSans-56"/>
      <use xlink:href="#DejaVuSans-50" x="68.408203"/>
      <use xlink:href="#DejaVuSans-55" x="128.710938"/>
      <use xlink:href="#DejaVuSans-4c" x="201.904297"/>
      <use xlink:href="#DejaVuSans-53" x="257.617188"/>
      <use xlink:href="#DejaVuSans-45" x="321.09375"/>
      <use xlink:href="#DejaVuSans-20" x="384.277344"/>
      <use xlink:href="#DejaVuSans-42" x="416.064453"/>
      <use xlink:href="#DejaVuSans-42" x="484.667969"/>
      <use xlink:href="#DejaVuSans-49" x="553.271484"/>
     </g>
    </g>
   </g>
   <g id="line2d_17">
    <path d="M 141.12 45.027377 
L 454.035456 45.136282 
L 454.519296 46.425538 
L 462.744576 69.006772 
L 470.163456 89.863624 
L 471.776256 94.440546 
L 473.582592 99.673219 
L 477.06624 110.807642 
L 478.646784 115.853719 
L 479.904768 119.566971 
L 481.130496 120.153414 
L 481.969152 120.545265 
L 483.001344 121.017085 
L 483.581952 121.272988 
L 484.452864 121.656841 
L 485.033472 121.912744 
L 485.872128 122.269941 
L 487.452672 122.936354 
L 488.097792 123.202919 
L 489.194496 123.629423 
L 489.936384 123.922644 
L 491.033088 124.349149 
L 491.936256 124.677024 
L 492.613632 124.943589 
L 493.420032 125.25547 
L 494.774784 125.804594 
L 497.419776 126.790885 
L 498.03264 127.022796 
L 499.968 127.395987 
L 518.450688 127.289361 
L 518.67648 126.801547 
L 536.965632 75.087922 
L 540.707328 63.292417 
L 544.416768 51.617666 
L 549.029376 49.3412 
L 554.383872 46.984578 
L 563.092992 43.484472 
L 563.963904 43.268927 
L 578.253312 43.108189 
L 585.059328 43.184799 
L 600.413184 43.746186 
L 628.1856 44.46146 
L 653.82912 44.774399 
L 689.439744 44.945888 
L 737.468928 44.953885 
L 947.52 44.953885 
L 947.52 44.953885 
" clip-path="url(#pb2f37ef660)" style="fill: none; stroke: #ff0000; stroke-width: 2; stroke-linecap: square"/>
   </g>
   <g id="patch_4">
    <path d="M 100.8 131.611034 
L 100.8 38.88 
" style="fill: none; stroke: #bcbcbc; stroke-width: 0.8; stroke-linejoin: miter; stroke-linecap: square"/>
   </g>
   <g id="patch_5">
    <path d="M 987.84 131.611034 
L 987.84 38.88 
" style="fill: none; stroke: #bcbcbc; stroke-width: 0.8; stroke-linejoin: miter; stroke-linecap: square"/>
   </g>
   <g id="patch_6">
    <path d="M 100.8 131.611034 
L 987.84 131.611034 
" style="fill: none; stroke: #bcbcbc; stroke-width: 0.8; stroke-linejoin: miter; stroke-linecap: square"/>
   </g>
   <g id="patch_7">
    <path d="M 100.8 38.88 
L 987.84 38.88 
" style="fill: none; stroke: #bcbcbc; stroke-width: 0.8; stroke-linejoin: miter; stroke-linecap: square"/>
   </g>
  </g>
  <g id="axes_2">
   <g id="patch_8">
    <path d="M 100.8 242.888276 
L 987.84 242.888276 
L 987.84 150.157241 
L 100.8 150.157241 
z
" style="fill: #eeeeee"/>
   </g>
   <g id="matplotlib.axis_3">
    <g id="xtick_7">
     <g id="line2d_18">
      <path d="M 141.12 242.888276 
L 141.12 150.157241 
" clip-path="url(#p5096344713)" style="fill: none; stroke-dasharray: 1.85,0.8; stroke-dashoffset: 0; stroke: #b2b2b2; stroke-width: 0.5"/>
     </g>
     <g id="line2d_19">
      <g>
       <use xlink:href="#m1408611632" x="141.12" y="242.888276" style="stroke: #000000; stroke-width: 0.8"/>
      </g>
     </g>
    </g>
    <g id="xtick_8">
     <g id="line2d_20">
      <path d="M 302.4 242.888276 
L 302.4 150.157241 
" clip-path="url(#p5096344713)" style="fill: none; stroke-dasharray: 1.85,0.8; stroke-dashoffset: 0; stroke: #b2b2b2; stroke-width: 0.5"/>
     </g>
     <g id="line2d_21">
      <g>
       <use xlink:href="#m1408611632" x="302.4" y="242.888276" style="stroke: #000000; stroke-width: 0.8"/>
      </g>
     </g>
    </g>
    <g id="xtick_9">
     <g id="line2d_22">
      <path d="M 463.68 242.888276 
L 463.68 150.157241 
" clip-path="url(#p5096344713)" style="fill: none; stroke-dasharray: 1.85,0.8; stroke-dashoffset: 0; stroke: #b2b2b2; stroke-width: 0.5"/>
     </g>
     <g id="line2d_23">
      <g>
       <use xlink:href="#m1408611632" x="463.68" y="242.888276" style="stroke: #000000; stroke-width: 0.8"/>
      </g>
     </g>
    </g>
    <g id="xtick_10">
     <g id="line2d_24">
      <path d="M 624.96 242.888276 
L 624.96 150.157241 
" clip-path="url(#p5096344713)" style="fill: none; stroke-dasharray: 1.85,0.8; stroke-dashoffset: 0; stroke: #b2b2b2; stroke-width: 0.5"/>
     </g>
     <g id="line2d_25">
      <g>
       <use xlink:href="#m1408611632" x="624.96" y="242.888276" style="stroke: #000000; stroke-width: 0.8"/>
      </g>
     </g>
    </g>
    <g id="xtick_11">
     <g id="line2d_26">
      <path d="M 786.24 242.888276 
L 786.24 150.157241 
" clip-path="url(#p5096344713)" style="fill: none; stroke-dasharray: 1.85,0.8; stroke-dashoffset: 0; stroke: #b2b2b2; stroke-width: 0.5"/>
     </g>
     <g id="line2d_27">
      <g>
       <use xlink:href="#m1408611632" x="786.24" y="242.888276" style="stroke: #000000; stroke-width: 0.8"/>
      </g>
     </g>
    </g>
    <g id="xtick_12">
     <g id="line2d_28">
      <path d="M 947.52 242.888276 
L 947.52 150.157241 
" clip-path="url(#p5096344713)" style="fill: none; stroke-dasharray: 1.85,0.8; stroke-dashoffset: 0; stroke: #b2b2b2; stroke-width: 0.5"/>
     </g>
     <g id="line2d_29">
      <g>
       <use xlink:href="#m1408611632" x="947.52" y="242.888276" style="stroke: #000000; stroke-width: 0.8"/>
      </g>
     </g>
    </g>
   </g>
   <g id="matplotlib.axis_4">
    <g id="ytick_3">
     <g id="line2d_30">
      <path d="M 100.8 219.116565 
L 987.84 219.116565 
" clip-path="url(#p5096344713)" style="fill: none; stroke-dasharray: 1.85,0.8; stroke-dashoffset: 0; stroke: #b2b2b2; stroke-width: 0.5"/>
     </g>
     <g id="line2d_31">
      <g>
       <use xlink:href="#ma93de02cb3" x="100.8" y="219.116565" style="stroke: #000000; stroke-width: 0.8"/>
      </g>
     </g>
     <g id="text_4">
      <!-- 0 V -->
      <g transform="translate(74.36625 224.435471) scale(0.14 -0.14)">
       <use xlink:href="#DejaVuSans-30"/>
       <use xlink:href="#DejaVuSans-20" x="63.623047"/>
       <use xlink:href="#DejaVuSans-56" x="95.410156"/>
      </g>
     </g>
    </g>
    <g id="ytick_4">
     <g id="line2d_32">
      <path d="M 100.8 185.090773 
L 987.84 185.090773 
" clip-path="url(#p5096344713)" style="fill: none; stroke-dasharray: 1.85,0.8; stroke-dashoffset: 0; stroke: #b2b2b2; stroke-width: 0.5"/>
     </g>
     <g id="line2d_33">
      <g>
       <use xlink:href="#ma93de02cb3" x="100.8" y="185.090773" style="stroke: #000000; stroke-width: 0.8"/>
      </g>
     </g>
     <g id="text_5">
      <!-- 1 V -->
      <g transform="translate(74.36625 190.409679) scale(0.14 -0.14)">
       <defs>
        <path id="DejaVuSans-31" d="M 794 531 
L 1825 531 
L 1825 4091 
L 703 3866 
L 703 4441 
L 1819 4666 
L 2450 4666 
L 2450 531 
L 3481 531 
L 3481 0 
L 794 0 
L 794 531 
z
" transform="scale(0.015625)"/>
       </defs>
       <use xlink:href="#DejaVuSans-31"/>
       <use xlink:href="#DejaVuSans-20" x="63.623047"/>
       <use xlink:href="#DejaVuSans-56" x="95.410156"/>
      </g>
     </g>
    </g>
    <g id="ytick_5">
     <g id="line2d_34">
      <path d="M 100.8 151.064981 
L 987.84 151.064981 
" clip-path="url(#p5096344713)" style="fill: none; stroke-dasharray: 1.85,0.8; stroke-dashoffset: 0; stroke: #b2b2b2; stroke-width: 0.5"/>
     </g>
     <g id="line2d_35">
      <g>
       <use xlink:href="#ma93de02cb3" x="100.8" y="151.064981" style="stroke: #000000; stroke-width: 0.8"/>
      </g>
     </g>
     <g id="text_6">
      <!-- 2 V -->
      <g transform="translate(74.36625 156.383888) scale(0.14 -0.14)">
       <use xlink:href="#DejaVuSans-32"/>
       <use xlink:href="#DejaVuSans-20" x="63.623047"/>
       <use xlink:href="#DejaVuSans-56" x="95.410156"/>
      </g>
     </g>
    </g>
    <g id="text_7">
     <g id="patch_9">
      <path d="M 34.8768 224.531509 
L 34.8768 168.514009 
L 11.247425 168.514009 
L 11.247425 224.531509 
z
" style="fill: #ffff00; opacity: 0.2; stroke: #eeeeee; stroke-width: 0.5; stroke-linejoin: miter"/>
     </g>
     <!-- DFF IN -->
     <g transform="translate(26.925238 219.491509) rotate(-90) scale(0.14 -0.14)">
      <defs>
       <path id="DejaVuSans-44" d="M 1259 4147 
L 1259 519 
L 2022 519 
Q 2988 519 3436 956 
Q 3884 1394 3884 2338 
Q 3884 3275 3436 3711 
Q 2988 4147 2022 4147 
L 1259 4147 
z
M 628 4666 
L 1925 4666 
Q 3281 4666 3915 4102 
Q 4550 3538 4550 2338 
Q 4550 1131 3912 565 
Q 3275 0 1925 0 
L 628 0 
L 628 4666 
z
" transform="scale(0.015625)"/>
       <path id="DejaVuSans-46" d="M 628 4666 
L 3309 4666 
L 3309 4134 
L 1259 4134 
L 1259 2759 
L 3109 2759 
L 3109 2228 
L 1259 2228 
L 1259 0 
L 628 0 
L 628 4666 
z
" transform="scale(0.015625)"/>
       <path id="DejaVuSans-4e" d="M 628 4666 
L 1478 4666 
L 3547 763 
L 3547 4666 
L 4159 4666 
L 4159 0 
L 3309 0 
L 1241 3903 
L 1241 0 
L 628 0 
L 628 4666 
z
" transform="scale(0.015625)"/>
      </defs>
      <use xlink:href="#DejaVuSans-44"/>
      <use xlink:href="#DejaVuSans-46" x="77.001953"/>
      <use xlink:href="#DejaVuSans-46" x="134.521484"/>
      <use xlink:href="#DejaVuSans-20" x="192.041016"/>
      <use xlink:href="#DejaVuSans-49" x="223.828125"/>
      <use xlink:href="#DejaVuSans-4e" x="253.320312"/>
     </g>
    </g>
   </g>
   <g id="line2d_36">
    <path d="M 141.12 219.066874 
L 221.953536 219.020214 
L 224.437248 200.061441 
L 225.404928 194.294069 
L 228.243456 181.613337 
L 229.598208 180.340773 
L 231.178752 179.46631 
L 236.533248 179.010364 
L 243.5328 178.901482 
L 244.952064 178.860651 
L 248.145408 178.751768 
L 249.790464 178.687119 
L 251.887104 178.578237 
L 254.241792 178.231174 
L 254.757888 177.693566 
L 255.499776 177.353308 
L 256.338432 177.366918 
L 259.789824 177.982785 
L 262.467072 178.156317 
L 263.886336 178.203953 
L 264.144384 183.45073 
L 264.434688 187.020716 
L 265.176576 191.776501 
L 267.144192 209.135439 
L 268.402176 215.653079 
L 269.047296 216.938098 
L 270.46656 218.703356 
L 273.724416 219.118402 
L 282.530304 219.070919 
L 297.013248 219.061171 
L 305.754624 219.06603 
L 347.751936 219.021912 
L 350.235648 200.101591 
L 351.622656 191.451214 
L 352.654848 186.152038 
L 354.97728 179.146467 
L 358.493184 178.146109 
L 360.202752 178.217563 
L 363.009024 178.326446 
L 364.33152 178.357069 
L 375.169536 178.428523 
L 375.717888 179.422076 
L 376.169472 180.174046 
L 377.008128 181.082535 
L 377.524224 181.031496 
L 378.427392 180.738874 
L 380.427264 179.59901 
L 381.58848 179.224727 
L 387.168768 178.744963 
L 389.587968 178.63608 
L 391.684608 178.523795 
L 394.232832 178.414913 
L 395.61984 178.377484 
L 415.360512 178.29242 
L 416.489472 177.360113 
L 417.037824 177.295464 
L 417.908736 177.404347 
L 419.16672 177.686761 
L 420.908544 177.941954 
L 423.940608 178.152914 
L 453.970944 178.254992 
L 454.132224 178.418315 
L 454.8096 179.775944 
L 457.261056 184.451088 
L 458.19648 185.553864 
L 460.680192 188.280011 
L 462.905856 191.219839 
L 463.454208 192.433879 
L 464.292864 195.370645 
L 466.808832 205.633845 
L 467.87328 210.374658 
L 469.389312 216.075646 
L 470.808576 220.877434 
L 470.9376 221.227457 
L 471.09888 221.812258 
L 471.518208 223.115276 
L 472.06656 224.208525 
L 472.71168 225.781537 
L 473.3568 226.545756 
L 473.808384 227.822744 
L 474.32448 228.816638 
L 474.421248 228.92518 
L 474.80832 229.782289 
L 477.163008 234.137591 
L 477.3888 234.500306 
L 477.743616 235.357756 
L 479.582208 238.324464 
L 480.033792 238.577616 
L 480.420864 238.117928 
L 481.90464 235.90455 
L 482.356224 235.487054 
L 482.775552 234.844647 
L 483.130368 234.258382 
L 483.388416 234.073282 
L 483.51744 234.009654 
L 485.194752 232.359403 
L 485.517312 231.865008 
L 485.872128 231.599267 
L 486.001152 231.581573 
L 486.388224 231.348156 
L 487.033344 230.898676 
L 487.807488 230.113701 
L 488.259072 229.359349 
L 488.6784 229.065706 
L 488.83968 229.059922 
L 489.16224 228.919395 
L 489.4848 228.745183 
L 490.839552 227.53999 
L 491.065344 227.043554 
L 491.387904 226.718607 
L 491.613696 226.72201 
L 492.033024 226.565151 
L 492.968448 225.852651 
L 493.903872 225.010172 
L 494.3232 224.371848 
L 494.710272 224.245953 
L 495.1296 224.132987 
L 495.936 223.560673 
L 499.032576 221.10459 
L 499.64544 220.458338 
L 500.742144 219.02066 
L 501.484032 218.028284 
L 502.258176 216.972259 
L 503.129088 215.717014 
L 506.548224 211.359705 
L 507.257856 210.601951 
L 508.419072 209.147348 
L 509.096448 207.139146 
L 510.193152 203.908057 
L 511.289856 201.36667 
L 512.322048 199.71676 
L 512.999424 198.708916 
L 514.450944 196.82763 
L 515.096064 196.08893 
L 515.741184 195.329474 
L 516.74112 194.068138 
L 517.87008 193.033754 
L 518.482944 192.321594 
L 518.740992 191.684291 
L 519.579648 188.553918 
L 520.515072 185.514734 
L 521.353728 183.508574 
L 522.256896 181.94679 
L 522.837504 181.276482 
L 525.417984 178.676911 
L 526.514688 177.138946 
L 527.095296 176.295106 
L 528.643584 173.984755 
L 533.127168 167.560685 
L 536.320512 163.378915 
L 536.41728 163.572862 
L 537.320448 165.726695 
L 537.739776 165.903629 
L 537.997824 165.808357 
L 538.449408 165.338801 
L 539.094528 164.113873 
L 541.610496 158.285254 
L 542.771712 156.430849 
L 544.255488 154.433535 
L 544.48128 154.409717 
L 546.41664 154.705741 
L 549.351936 155.124258 
L 551.222784 155.604022 
L 551.932416 155.784359 
L 553.738752 156.243707 
L 554.383872 156.420641 
L 555.351552 156.733678 
L 556.512768 157.107962 
L 557.512704 157.431207 
L 558.67392 157.802088 
L 564.15744 159.642884 
L 564.673536 159.894674 
L 567.834624 161.344173 
L 568.415232 161.585756 
L 569.189376 161.94643 
L 569.769984 162.188013 
L 570.673152 162.586115 
L 571.834368 163.079488 
L 573.092352 163.593278 
L 576.608256 164.957712 
L 576.672768 164.906674 
L 577.092096 164.219353 
L 577.54368 163.981172 
L 577.930752 164.049224 
L 578.414592 164.318027 
L 579.31776 165.018959 
L 581.09184 166.192848 
L 582.898176 167.029883 
L 583.478784 167.264661 
L 585.414144 167.96219 
L 590.897664 169.581817 
L 593.607168 170.265736 
L 594.284544 170.435865 
L 595.1232 170.629812 
L 595.736064 170.769317 
L 596.961792 171.041524 
L 597.897216 171.245678 
L 598.961664 171.470249 
L 600.058368 171.691416 
L 600.961536 171.864948 
L 602.090496 172.089518 
L 602.929152 172.242634 
L 604.31616 172.497828 
L 605.12256 172.640736 
L 605.799936 172.749618 
L 607.54176 173.038838 
L 608.315904 173.171538 
L 609.090048 173.280421 
L 611.476992 173.641094 
L 612.928512 173.838444 
L 613.638144 173.943924 
L 614.96064 174.11065 
L 617.025024 174.42709 
L 617.476608 175.124619 
L 617.895936 175.451266 
L 618.379776 175.631603 
L 619.3152 175.631603 
L 621.41184 175.083788 
L 622.153728 175.032749 
L 623.476224 175.066775 
L 624.1536 175.104203 
L 625.314816 175.213086 
L 626.185728 175.287943 
L 627.508224 175.393423 
L 628.443648 175.485292 
L 629.056512 175.526123 
L 629.991936 175.617993 
L 630.669312 175.652019 
L 631.217664 175.716668 
L 632.765952 175.82555 
L 635.668992 176.026302 
L 636.217344 176.073938 
L 639.023616 176.26108 
L 639.668736 176.298509 
L 642.023424 176.441417 
L 642.733056 176.47204 
L 645.023232 176.608143 
L 645.732864 176.642169 
L 647.506944 176.720428 
L 648.216576 176.754454 
L 650.184192 176.853129 
L 652.667904 176.962011 
L 654.377472 177.033466 
L 656.957952 177.142348 
L 657.312768 177.121933 
L 657.796608 176.560507 
L 658.699776 176.206639 
L 659.215872 176.257678 
L 659.95776 176.444819 
L 660.731904 176.652377 
L 663.860736 177.203595 
L 665.409024 177.309075 
L 666.24768 177.373724 
L 667.924992 177.441775 
L 668.634624 177.468996 
L 669.247488 177.486009 
L 669.924864 177.516632 
L 670.505472 177.52684 
L 675.053568 177.635722 
L 675.569664 177.63232 
L 676.956672 177.669748 
L 677.924352 177.676553 
L 684.343296 177.785436 
L 684.923904 177.802449 
L 685.92384 177.802449 
L 687.21408 177.829669 
L 697.632768 177.907929 
L 698.568192 178.744963 
L 699.568128 178.949118 
L 702.567936 178.523795 
L 704.858112 178.149512 
L 707.438592 178.040629 
L 708.793344 178.006603 
L 737.952768 177.914734 
L 738.468864 177.336295 
L 739.178496 177.009648 
L 740.2752 177.002842 
L 744.242688 177.727592 
L 745.92 177.795643 
L 778.240512 177.904526 
L 778.401792 178.084863 
L 778.917888 178.605457 
L 779.30496 178.789197 
L 779.917824 178.928702 
L 782.272512 178.81982 
L 784.562688 178.448939 
L 789.94944 177.98959 
L 818.592768 177.918136 
L 819.14112 177.302269 
L 819.689472 177.026661 
L 821.624832 177.135543 
L 824.882688 177.710579 
L 826.979328 177.822864 
L 858.912768 177.918136 
L 859.848192 178.755171 
L 860.783616 178.935507 
L 862.880256 178.826625 
L 864.589824 178.537406 
L 865.944576 178.363874 
L 870.492672 177.992993 
L 899.232768 177.918136 
L 899.78112 177.302269 
L 900.329472 177.026661 
L 902.264832 177.135543 
L 905.522688 177.710579 
L 907.619328 177.822864 
L 939.552768 177.918136 
L 940.617216 178.785794 
L 941.55264 178.972936 
L 943.455744 178.864053 
L 944.810496 178.612262 
L 947.068416 178.248186 
L 947.52 178.176732 
L 947.52 178.176732 
" clip-path="url(#p5096344713)" style="fill: none; stroke: #008000; stroke-width: 2; stroke-linecap: square"/>
   </g>
   <g id="patch_10">
    <path d="M 100.8 242.888276 
L 100.8 150.157241 
" style="fill: none; stroke: #bcbcbc; stroke-width: 0.8; stroke-linejoin: miter; stroke-linecap: square"/>
   </g>
   <g id="patch_11">
    <path d="M 987.84 242.888276 
L 987.84 150.157241 
" style="fill: none; stroke: #bcbcbc; stroke-width: 0.8; stroke-linejoin: miter; stroke-linecap: square"/>
   </g>
   <g id="patch_12">
    <path d="M 100.8 242.888276 
L 987.84 242.888276 
" style="fill: none; stroke: #bcbcbc; stroke-width: 0.8; stroke-linejoin: miter; stroke-linecap: square"/>
   </g>
   <g id="patch_13">
    <path d="M 100.8 150.157241 
L 987.84 150.157241 
" style="fill: none; stroke: #bcbcbc; stroke-width: 0.8; stroke-linejoin: miter; stroke-linecap: square"/>
   </g>
  </g>
  <g id="axes_3">
   <g id="patch_14">
    <path d="M 100.8 354.165517 
L 987.84 354.165517 
L 987.84 261.434483 
L 100.8 261.434483 
z
" style="fill: #eeeeee"/>
   </g>
   <g id="matplotlib.axis_5">
    <g id="xtick_13">
     <g id="line2d_37">
      <path d="M 141.12 354.165517 
L 141.12 261.434483 
" clip-path="url(#pad2f77eea2)" style="fill: none; stroke-dasharray: 1.85,0.8; stroke-dashoffset: 0; stroke: #b2b2b2; stroke-width: 0.5"/>
     </g>
     <g id="line2d_38">
      <g>
       <use xlink:href="#m1408611632" x="141.12" y="354.165517" style="stroke: #000000; stroke-width: 0.8"/>
      </g>
     </g>
    </g>
    <g id="xtick_14">
     <g id="line2d_39">
      <path d="M 302.4 354.165517 
L 302.4 261.434483 
" clip-path="url(#pad2f77eea2)" style="fill: none; stroke-dasharray: 1.85,0.8; stroke-dashoffset: 0; stroke: #b2b2b2; stroke-width: 0.5"/>
     </g>
     <g id="line2d_40">
      <g>
       <use xlink:href="#m1408611632" x="302.4" y="354.165517" style="stroke: #000000; stroke-width: 0.8"/>
      </g>
     </g>
    </g>
    <g id="xtick_15">
     <g id="line2d_41">
      <path d="M 463.68 354.165517 
L 463.68 261.434483 
" clip-path="url(#pad2f77eea2)" style="fill: none; stroke-dasharray: 1.85,0.8; stroke-dashoffset: 0; stroke: #b2b2b2; stroke-width: 0.5"/>
     </g>
     <g id="line2d_42">
      <g>
       <use xlink:href="#m1408611632" x="463.68" y="354.165517" style="stroke: #000000; stroke-width: 0.8"/>
      </g>
     </g>
    </g>
    <g id="xtick_16">
     <g id="line2d_43">
      <path d="M 624.96 354.165517 
L 624.96 261.434483 
" clip-path="url(#pad2f77eea2)" style="fill: none; stroke-dasharray: 1.85,0.8; stroke-dashoffset: 0; stroke: #b2b2b2; stroke-width: 0.5"/>
     </g>
     <g id="line2d_44">
      <g>
       <use xlink:href="#m1408611632" x="624.96" y="354.165517" style="stroke: #000000; stroke-width: 0.8"/>
      </g>
     </g>
    </g>
    <g id="xtick_17">
     <g id="line2d_45">
      <path d="M 786.24 354.165517 
L 786.24 261.434483 
" clip-path="url(#pad2f77eea2)" style="fill: none; stroke-dasharray: 1.85,0.8; stroke-dashoffset: 0; stroke: #b2b2b2; stroke-width: 0.5"/>
     </g>
     <g id="line2d_46">
      <g>
       <use xlink:href="#m1408611632" x="786.24" y="354.165517" style="stroke: #000000; stroke-width: 0.8"/>
      </g>
     </g>
    </g>
    <g id="xtick_18">
     <g id="line2d_47">
      <path d="M 947.52 354.165517 
L 947.52 261.434483 
" clip-path="url(#pad2f77eea2)" style="fill: none; stroke-dasharray: 1.85,0.8; stroke-dashoffset: 0; stroke: #b2b2b2; stroke-width: 0.5"/>
     </g>
     <g id="line2d_48">
      <g>
       <use xlink:href="#m1408611632" x="947.52" y="354.165517" style="stroke: #000000; stroke-width: 0.8"/>
      </g>
     </g>
    </g>
   </g>
   <g id="matplotlib.axis_6">
    <g id="ytick_6">
     <g id="line2d_49">
      <path d="M 100.8 343.863628 
L 987.84 343.863628 
" clip-path="url(#pad2f77eea2)" style="fill: none; stroke-dasharray: 1.85,0.8; stroke-dashoffset: 0; stroke: #b2b2b2; stroke-width: 0.5"/>
     </g>
     <g id="line2d_50">
      <g>
       <use xlink:href="#ma93de02cb3" x="100.8" y="343.863628" style="stroke: #000000; stroke-width: 0.8"/>
      </g>
     </g>
     <g id="text_8">
      <!-- 0 V -->
      <g transform="translate(74.36625 349.182534) scale(0.14 -0.14)">
       <use xlink:href="#DejaVuSans-30"/>
       <use xlink:href="#DejaVuSans-20" x="63.623047"/>
       <use xlink:href="#DejaVuSans-56" x="95.410156"/>
      </g>
     </g>
    </g>
    <g id="ytick_7">
     <g id="line2d_51">
      <path d="M 100.8 295.814667 
L 987.84 295.814667 
" clip-path="url(#pad2f77eea2)" style="fill: none; stroke-dasharray: 1.85,0.8; stroke-dashoffset: 0; stroke: #b2b2b2; stroke-width: 0.5"/>
     </g>
     <g id="line2d_52">
      <g>
       <use xlink:href="#ma93de02cb3" x="100.8" y="295.814667" style="stroke: #000000; stroke-width: 0.8"/>
      </g>
     </g>
     <g id="text_9">
      <!-- 1 V -->
      <g transform="translate(74.36625 301.133574) scale(0.14 -0.14)">
       <use xlink:href="#DejaVuSans-31"/>
       <use xlink:href="#DejaVuSans-20" x="63.623047"/>
       <use xlink:href="#DejaVuSans-56" x="95.410156"/>
      </g>
     </g>
    </g>
    <g id="text_10">
     <g id="patch_15">
      <path d="M 34.8768 342.395313 
L 34.8768 273.204688 
L 11.247425 273.204688 
L 11.247425 342.395313 
z
" style="fill: #ffff00; opacity: 0.2; stroke: #eeeeee; stroke-width: 0.5; stroke-linejoin: miter"/>
     </g>
     <!-- CLK BUF -->
     <g transform="translate(26.925238 337.355313) rotate(-90) scale(0.14 -0.14)">
      <defs>
       <path id="DejaVuSans-43" d="M 4122 4306 
L 4122 3641 
Q 3803 3938 3442 4084 
Q 3081 4231 2675 4231 
Q 1875 4231 1450 3742 
Q 1025 3253 1025 2328 
Q 1025 1406 1450 917 
Q 1875 428 2675 428 
Q 3081 428 3442 575 
Q 3803 722 4122 1019 
L 4122 359 
Q 3791 134 3420 21 
Q 3050 -91 2638 -91 
Q 1578 -91 968 557 
Q 359 1206 359 2328 
Q 359 3453 968 4101 
Q 1578 4750 2638 4750 
Q 3056 4750 3426 4639 
Q 3797 4528 4122 4306 
z
" transform="scale(0.015625)"/>
       <path id="DejaVuSans-4b" d="M 628 4666 
L 1259 4666 
L 1259 2694 
L 3353 4666 
L 4166 4666 
L 1850 2491 
L 4331 0 
L 3500 0 
L 1259 2247 
L 1259 0 
L 628 0 
L 628 4666 
z
" transform="scale(0.015625)"/>
      </defs>
      <use xlink:href="#DejaVuSans-43"/>
      <use xlink:href="#DejaVuSans-4c" x="69.824219"/>
      <use xlink:href="#DejaVuSans-4b" x="125.537109"/>
      <use xlink:href="#DejaVuSans-20" x="191.113281"/>
      <use xlink:href="#DejaVuSans-42" x="222.900391"/>
      <use xlink:href="#DejaVuSans-55" x="291.503906"/>
      <use xlink:href="#DejaVuSans-46" x="364.697266"/>
     </g>
    </g>
   </g>
   <g id="line2d_53">
    <path d="M 141.12 343.862358 
L 173.376 343.862358 
L 173.601792 286.204875 
L 213.696 286.204875 
L 213.760512 332.19686 
L 213.825024 343.841677 
L 213.889536 343.772532 
L 213.954048 343.964483 
L 214.01856 343.868835 
L 215.212032 343.86067 
L 222.5664 343.862372 
L 254.016 343.862324 
L 254.17728 286.027094 
L 254.241792 286.334607 
L 254.403072 286.195265 
L 254.8224 286.204875 
L 294.336 286.204875 
L 294.400512 332.156499 
L 294.465024 344.222174 
L 294.529536 343.38678 
L 294.626304 343.939137 
L 294.65856 343.904946 
L 294.852096 343.820492 
L 295.206912 343.881112 
L 295.46496 343.862141 
L 318.04416 343.862358 
L 334.656 343.86236 
L 334.81728 286.118387 
L 334.881792 286.224095 
L 335.172096 286.20968 
L 374.976 286.204875 
L 375.040512 332.201184 
L 375.105024 343.864407 
L 375.169536 343.766439 
L 375.234048 343.957333 
L 375.29856 343.868994 
L 376.556544 343.860187 
L 384.136704 343.862361 
L 415.296 343.862359 
L 415.45728 286.027094 
L 415.521792 286.334607 
L 415.683072 286.19046 
L 416.42496 286.19046 
L 454.067712 286.281753 
L 455.616 288.73225 
L 455.648256 291.792969 
L 455.77728 345.138607 
L 455.874048 345.277565 
L 455.906304 345.260651 
L 456.293376 345.36929 
L 457.583616 345.528861 
L 459.841536 345.543948 
L 467.55072 345.283138 
L 467.582976 345.226008 
L 467.647488 345.286982 
L 467.808768 345.275066 
L 472.002048 345.220531 
L 473.03424 345.497437 
L 473.808384 345.906958 
L 474.227712 346.182375 
L 474.64704 346.453515 
L 477.3888 348.333863 
L 478.51776 349.114418 
L 479.904768 349.901941 
L 480.549888 349.526678 
L 480.678912 349.4695 
L 480.840192 349.385414 
L 481.614336 349.036579 
L 481.775616 348.968349 
L 481.840128 348.935196 
L 481.969152 348.898678 
L 482.2272 348.798256 
L 482.54976 348.660788 
L 483.323904 348.357023 
L 485.710848 347.463264 
L 490.12992 345.959956 
L 490.323456 345.897877 
L 490.968576 345.702798 
L 495.194112 344.576578 
L 495.77472 344.447855 
L 495.936 344.412347 
L 495.968256 345.489124 
L 496.129536 318.247286 
L 496.290816 317.993107 
L 499.935744 316.36761 
L 500.322816 316.117275 
L 502.774272 314.415381 
L 504.838656 312.898956 
L 509.419008 309.692168 
L 512.902656 307.488643 
L 517.22496 305.040548 
L 518.579712 304.217469 
L 519.934464 301.384503 
L 521.869824 296.697327 
L 526.224384 286.156826 
L 526.90176 284.604845 
L 528.643584 280.727294 
L 529.675776 278.488212 
L 533.481984 270.795573 
L 533.933568 269.935497 
L 536.256 265.64953 
L 536.41728 342.324572 
L 536.449536 342.304151 
L 538.094592 342.325869 
L 539.64288 342.249039 
L 543.5136 342.354218 
L 544.352256 342.4507 
L 545.029632 343.211171 
L 545.739264 343.671821 
L 546.642432 343.991352 
L 547.900416 344.192288 
L 550.093824 344.290101 
L 556.932096 344.284032 
L 564.996096 344.373475 
L 567.737856 344.414221 
L 576.576 344.313107 
L 576.73728 267.446561 
L 576.801792 267.489805 
L 579.285504 268.719858 
L 580.543488 269.344495 
L 580.995072 269.522276 
L 589.994496 273.428657 
L 590.252544 273.539169 
L 591.994368 274.19744 
L 592.284672 274.307952 
L 593.381376 274.677929 
L 593.639424 274.788442 
L 594.607104 275.11037 
L 594.897408 275.216078 
L 595.316736 275.350615 
L 595.671552 275.456323 
L 596.09088 275.59086 
L 596.445696 275.696567 
L 596.961792 275.879153 
L 597.316608 275.984861 
L 597.735936 276.119398 
L 598.090752 276.225106 
L 598.51008 276.359643 
L 598.864896 276.465351 
L 599.219712 276.551839 
L 604.606464 278.041357 
L 605.058048 278.147064 
L 605.412864 278.233553 
L 607.896576 278.858189 
L 608.444928 278.963897 
L 608.799744 279.050385 
L 610.315776 279.386728 
L 610.864128 279.492435 
L 611.218944 279.578923 
L 611.73504 279.684631 
L 612.025344 279.73268 
L 612.573696 279.862412 
L 615.250944 280.371731 
L 615.573504 280.439 
L 616.896 280.660025 
L 616.928256 288.410322 
L 616.992768 344.613432 
L 617.05728 343.975419 
L 617.089536 343.972526 
L 617.121792 344.088987 
L 617.186304 344.015828 
L 617.670144 344.011225 
L 657.216 343.905016 
L 657.37728 284.35499 
L 657.441792 284.628869 
L 657.474048 284.773016 
L 657.53856 284.667308 
L 658.603008 284.715357 
L 660.893184 284.82587 
L 661.215744 284.859504 
L 664.376832 284.970017 
L 664.699392 285.003651 
L 668.34432 285.114164 
L 668.66688 285.147798 
L 672.795648 285.258311 
L 673.118208 285.291945 
L 678.02112 285.402457 
L 678.34368 285.436092 
L 684.31104 285.546604 
L 684.6336 285.580239 
L 692.246016 285.690751 
L 692.568576 285.724386 
L 697.536 285.724386 
L 697.568256 290.260207 
L 697.632768 343.992932 
L 697.69728 343.704591 
L 697.794048 344.034956 
L 697.85856 343.884461 
L 698.632704 343.881733 
L 704.664576 343.868057 
L 724.727808 343.876157 
L 737.856 343.876117 
L 738.01728 285.628288 
L 738.081792 285.743605 
L 738.952704 285.724386 
L 778.176 285.724386 
L 778.305024 344.230525 
L 778.466304 343.95113 
L 778.724352 343.844023 
L 779.079168 343.896293 
L 779.369472 343.875971 
L 813.367296 343.876113 
L 818.496 343.876118 
L 818.65728 285.474531 
L 818.721792 286.017484 
L 818.81856 285.527385 
L 818.883072 285.705166 
L 819.334656 285.724386 
L 858.816 285.724386 
L 858.945024 344.230722 
L 859.106304 343.951082 
L 859.364352 343.844034 
L 859.719168 343.896307 
L 860.009472 343.875972 
L 894.007296 343.876113 
L 899.136 343.876118 
L 899.29728 285.474531 
L 899.361792 286.017484 
L 899.45856 285.52258 
L 899.523072 285.705166 
L 899.974656 285.724386 
L 939.456 285.724386 
L 939.488256 294.387613 
L 939.61728 343.818973 
L 939.649536 343.958693 
L 939.714048 343.825012 
L 939.746304 343.782848 
L 939.810816 343.844866 
L 939.972096 343.940242 
L 940.004352 343.904873 
L 940.197888 343.875322 
L 945.068544 343.876127 
L 947.52 343.876106 
L 947.52 343.876106 
" clip-path="url(#pad2f77eea2)" style="fill: none; stroke: #0000ff; stroke-width: 2; stroke-linecap: square"/>
   </g>
   <g id="patch_16">
    <path d="M 100.8 354.165517 
L 100.8 261.434483 
" style="fill: none; stroke: #bcbcbc; stroke-width: 0.8; stroke-linejoin: miter; stroke-linecap: square"/>
   </g>
   <g id="patch_17">
    <path d="M 987.84 354.165517 
L 987.84 261.434483 
" style="fill: none; stroke: #bcbcbc; stroke-width: 0.8; stroke-linejoin: miter; stroke-linecap: square"/>
   </g>
   <g id="patch_18">
    <path d="M 100.8 354.165517 
L 987.84 354.165517 
" style="fill: none; stroke: #bcbcbc; stroke-width: 0.8; stroke-linejoin: miter; stroke-linecap: square"/>
   </g>
   <g id="patch_19">
    <path d="M 100.8 261.434483 
L 987.84 261.434483 
" style="fill: none; stroke: #bcbcbc; stroke-width: 0.8; stroke-linejoin: miter; stroke-linecap: square"/>
   </g>
  </g>
  <g id="axes_4">
   <g id="patch_20">
    <path d="M 100.8 465.442759 
L 987.84 465.442759 
L 987.84 372.711724 
L 100.8 372.711724 
z
" style="fill: #eeeeee"/>
   </g>
   <g id="matplotlib.axis_7">
    <g id="xtick_19">
     <g id="line2d_54">
      <path d="M 141.12 465.442759 
L 141.12 372.711724 
" clip-path="url(#pd537f1e0d3)" style="fill: none; stroke-dasharray: 1.85,0.8; stroke-dashoffset: 0; stroke: #b2b2b2; stroke-width: 0.5"/>
     </g>
     <g id="line2d_55">
      <g>
       <use xlink:href="#m1408611632" x="141.12" y="465.442759" style="stroke: #000000; stroke-width: 0.8"/>
      </g>
     </g>
    </g>
    <g id="xtick_20">
     <g id="line2d_56">
      <path d="M 302.4 465.442759 
L 302.4 372.711724 
" clip-path="url(#pd537f1e0d3)" style="fill: none; stroke-dasharray: 1.85,0.8; stroke-dashoffset: 0; stroke: #b2b2b2; stroke-width: 0.5"/>
     </g>
     <g id="line2d_57">
      <g>
       <use xlink:href="#m1408611632" x="302.4" y="465.442759" style="stroke: #000000; stroke-width: 0.8"/>
      </g>
     </g>
    </g>
    <g id="xtick_21">
     <g id="line2d_58">
      <path d="M 463.68 465.442759 
L 463.68 372.711724 
" clip-path="url(#pd537f1e0d3)" style="fill: none; stroke-dasharray: 1.85,0.8; stroke-dashoffset: 0; stroke: #b2b2b2; stroke-width: 0.5"/>
     </g>
     <g id="line2d_59">
      <g>
       <use xlink:href="#m1408611632" x="463.68" y="465.442759" style="stroke: #000000; stroke-width: 0.8"/>
      </g>
     </g>
    </g>
    <g id="xtick_22">
     <g id="line2d_60">
      <path d="M 624.96 465.442759 
L 624.96 372.711724 
" clip-path="url(#pd537f1e0d3)" style="fill: none; stroke-dasharray: 1.85,0.8; stroke-dashoffset: 0; stroke: #b2b2b2; stroke-width: 0.5"/>
     </g>
     <g id="line2d_61">
      <g>
       <use xlink:href="#m1408611632" x="624.96" y="465.442759" style="stroke: #000000; stroke-width: 0.8"/>
      </g>
     </g>
    </g>
    <g id="xtick_23">
     <g id="line2d_62">
      <path d="M 786.24 465.442759 
L 786.24 372.711724 
" clip-path="url(#pd537f1e0d3)" style="fill: none; stroke-dasharray: 1.85,0.8; stroke-dashoffset: 0; stroke: #b2b2b2; stroke-width: 0.5"/>
     </g>
     <g id="line2d_63">
      <g>
       <use xlink:href="#m1408611632" x="786.24" y="465.442759" style="stroke: #000000; stroke-width: 0.8"/>
      </g>
     </g>
    </g>
    <g id="xtick_24">
     <g id="line2d_64">
      <path d="M 947.52 465.442759 
L 947.52 372.711724 
" clip-path="url(#pd537f1e0d3)" style="fill: none; stroke-dasharray: 1.85,0.8; stroke-dashoffset: 0; stroke: #b2b2b2; stroke-width: 0.5"/>
     </g>
     <g id="line2d_65">
      <g>
       <use xlink:href="#m1408611632" x="947.52" y="465.442759" style="stroke: #000000; stroke-width: 0.8"/>
      </g>
     </g>
    </g>
   </g>
   <g id="matplotlib.axis_8">
    <g id="ytick_8">
     <g id="line2d_66">
      <path d="M 100.8 438.823623 
L 987.84 438.823623 
" clip-path="url(#pd537f1e0d3)" style="fill: none; stroke-dasharray: 1.85,0.8; stroke-dashoffset: 0; stroke: #b2b2b2; stroke-width: 0.5"/>
     </g>
     <g id="line2d_67">
      <g>
       <use xlink:href="#ma93de02cb3" x="100.8" y="438.823623" style="stroke: #000000; stroke-width: 0.8"/>
      </g>
     </g>
     <g id="text_11">
      <!-- 0 V -->
      <g transform="translate(74.36625 444.142529) scale(0.14 -0.14)">
       <use xlink:href="#DejaVuSans-30"/>
       <use xlink:href="#DejaVuSans-20" x="63.623047"/>
       <use xlink:href="#DejaVuSans-56" x="95.410156"/>
      </g>
     </g>
    </g>
    <g id="ytick_9">
     <g id="line2d_68">
      <path d="M 100.8 399.618624 
L 987.84 399.618624 
" clip-path="url(#pd537f1e0d3)" style="fill: none; stroke-dasharray: 1.85,0.8; stroke-dashoffset: 0; stroke: #b2b2b2; stroke-width: 0.5"/>
     </g>
     <g id="line2d_69">
      <g>
       <use xlink:href="#ma93de02cb3" x="100.8" y="399.618624" style="stroke: #000000; stroke-width: 0.8"/>
      </g>
     </g>
     <g id="text_12">
      <!-- 1 V -->
      <g transform="translate(74.36625 404.937531) scale(0.14 -0.14)">
       <use xlink:href="#DejaVuSans-31"/>
       <use xlink:href="#DejaVuSans-20" x="63.623047"/>
       <use xlink:href="#DejaVuSans-56" x="95.410156"/>
      </g>
     </g>
    </g>
    <g id="text_13">
     <g id="patch_21">
      <path d="M 34.8768 454.693023 
L 34.8768 383.46146 
L 11.247425 383.46146 
L 11.247425 454.693023 
z
" style="fill: #ffff00; opacity: 0.2; stroke: #eeeeee; stroke-width: 0.5; stroke-linejoin: miter"/>
     </g>
     <!-- DFF OUT -->
     <g transform="translate(26.925238 449.653023) rotate(-90) scale(0.14 -0.14)">
      <defs>
       <path id="DejaVuSans-4f" d="M 2522 4238 
Q 1834 4238 1429 3725 
Q 1025 3213 1025 2328 
Q 1025 1447 1429 934 
Q 1834 422 2522 422 
Q 3209 422 3611 934 
Q 4013 1447 4013 2328 
Q 4013 3213 3611 3725 
Q 3209 4238 2522 4238 
z
M 2522 4750 
Q 3503 4750 4090 4092 
Q 4678 3434 4678 2328 
Q 4678 1225 4090 567 
Q 3503 -91 2522 -91 
Q 1538 -91 948 565 
Q 359 1222 359 2328 
Q 359 3434 948 4092 
Q 1538 4750 2522 4750 
z
" transform="scale(0.015625)"/>
       <path id="DejaVuSans-54" d="M -19 4666 
L 3928 4666 
L 3928 4134 
L 2272 4134 
L 2272 0 
L 1638 0 
L 1638 4134 
L -19 4134 
L -19 4666 
z
" transform="scale(0.015625)"/>
      </defs>
      <use xlink:href="#DejaVuSans-44"/>
      <use xlink:href="#DejaVuSans-46" x="77.001953"/>
      <use xlink:href="#DejaVuSans-46" x="134.521484"/>
      <use xlink:href="#DejaVuSans-20" x="192.041016"/>
      <use xlink:href="#DejaVuSans-4f" x="223.828125"/>
      <use xlink:href="#DejaVuSans-55" x="302.539062"/>
      <use xlink:href="#DejaVuSans-54" x="375.732422"/>
     </g>
    </g>
   </g>
   <g id="line2d_70">
    <path d="M 141.12 409.242275 
L 173.408256 409.290106 
L 173.440512 410.913192 
L 173.601792 438.826016 
L 174.117888 438.821463 
L 184.50432 438.822585 
L 254.048256 438.82422 
L 254.080512 438.980945 
L 254.112768 438.721702 
L 254.306304 434.894106 
L 254.596608 434.126864 
L 254.693376 433.579562 
L 255.14496 426.710847 
L 255.370752 410.567012 
L 255.596544 392.157913 
L 255.757824 391.836432 
L 255.983616 391.773704 
L 256.91904 391.777625 
L 295.755264 391.856035 
L 296.239104 394.392598 
L 296.59392 393.757477 
L 297.948672 392.099106 
L 299.593728 391.808989 
L 334.688256 391.793307 
L 334.720512 391.679612 
L 334.752768 392.255926 
L 334.785024 395.106129 
L 334.914048 438.807552 
L 334.97856 438.773049 
L 335.13984 438.815406 
L 335.526912 438.82294 
L 367.299072 438.822543 
L 415.328256 438.824197 
L 415.360512 438.9804 
L 415.392768 438.723874 
L 415.586304 434.802758 
L 415.876608 433.903004 
L 415.908864 433.79519 
L 416.1024 429.145869 
L 416.521728 415.610735 
L 416.9088 391.907001 
L 417.102336 391.781545 
L 417.811968 391.805068 
L 454.132224 391.914842 
L 456.712704 395.545225 
L 461.90592 403.953521 
L 462.615552 405.646393 
L 465.034752 415.676992 
L 465.13152 416.002001 
L 465.163776 415.729919 
L 465.228288 415.84871 
L 465.260544 415.986319 
L 465.421824 417.468268 
L 465.841152 419.232493 
L 466.066944 420.407859 
L 467.002368 424.410689 
L 467.034624 424.236619 
L 467.195904 425.641726 
L 467.582976 427.391837 
L 467.615232 426.861002 
L 467.679744 427.175426 
L 467.841024 428.52839 
L 469.48608 435.633944 
L 469.518336 435.234131 
L 469.582848 435.387501 
L 469.744128 436.700986 
L 470.61504 440.202306 
L 470.77632 440.66912 
L 470.808576 440.411818 
L 470.873088 440.700445 
L 471.647232 443.662696 
L 471.711744 443.838726 
L 471.776256 443.811283 
L 471.808512 443.610161 
L 471.840768 443.730521 
L 472.002048 444.584798 
L 472.034304 444.236265 
L 472.06656 444.701629 
L 472.098816 444.436211 
L 472.679424 446.136924 
L 472.969728 446.739504 
L 473.001984 446.515644 
L 473.066496 446.638355 
L 473.260032 446.959052 
L 473.3568 447.182129 
L 473.389056 447.633378 
L 473.485824 447.594565 
L 473.550336 447.702379 
L 473.872896 448.766011 
L 474.453504 450.17151 
L 474.48576 450.106038 
L 474.518016 450.133089 
L 475.034112 451.512713 
L 475.517952 452.598299 
L 475.550208 452.578697 
L 475.582464 452.496758 
L 475.646976 452.610845 
L 475.93728 453.339666 
L 476.130816 453.920684 
L 478.098432 457.954094 
L 478.904832 459.560715 
L 479.808 461.227712 
L 479.96928 461.062659 
L 480.13056 460.884276 
L 481.09824 459.221984 
L 481.25952 458.758581 
L 483.259392 455.794683 
L 483.35616 455.747637 
L 483.388416 455.857411 
L 483.420672 455.593169 
L 483.452928 455.780961 
L 483.710976 455.305404 
L 483.743232 455.360291 
L 483.775488 455.405769 
L 483.872256 455.18779 
L 483.904512 455.251302 
L 484.130304 455.003526 
L 484.581888 454.47073 
L 484.743168 454.058293 
L 484.775424 454.017128 
L 484.80768 454.163755 
L 484.839936 453.946951 
L 484.872192 453.943815 
L 484.936704 454.05006 
L 485.033472 453.732108 
L 485.065728 453.932445 
L 485.097984 453.766608 
L 485.259264 453.46277 
L 485.77536 452.930366 
L 485.807616 453.127567 
L 485.872128 452.844115 
L 485.904384 453.044844 
L 486.033408 452.768841 
L 486.09792 452.737477 
L 486.2592 452.530475 
L 486.291456 452.563407 
L 486.517248 452.40149 
L 486.74304 452.194488 
L 487.033344 451.68992 
L 487.484928 451.080282 
L 487.54944 451.216323 
L 487.678464 450.852893 
L 487.71072 450.839563 
L 487.742976 450.97286 
L 487.775232 450.757233 
L 488.097792 450.448297 
L 488.6784 449.967644 
L 488.710656 450.146811 
L 488.775168 449.896291 
L 489.097728 449.744175 
L 489.64608 449.239607 
L 489.742848 449.044758 
L 489.936384 448.643691 
L 490.033152 448.493144 
L 490.065408 448.765619 
L 490.12992 448.374353 
L 490.162176 448.633498 
L 490.194432 448.334756 
L 490.226688 448.361807 
L 490.355712 448.107759 
L 490.420224 448.267323 
L 490.45248 448.166174 
L 490.484736 447.959564 
L 490.516992 447.964661 
L 490.549248 448.310841 
L 490.581504 447.850966 
L 490.646016 448.212044 
L 490.77504 447.807056 
L 490.807296 448.063457 
L 490.839552 447.860767 
L 490.968576 447.531053 
L 491.484672 447.182913 
L 491.516928 447.357767 
L 491.58144 447.250738 
L 492.678144 446.20122 
L 492.807168 445.818971 
L 492.87168 446.055377 
L 493.000704 445.55669 
L 493.03296 445.513956 
L 493.065216 445.865625 
L 493.129728 445.400654 
L 493.420032 445.119554 
L 493.452288 445.515916 
L 493.5168 445.102304 
L 493.549056 445.45162 
L 493.67808 444.895301 
L 494.516736 444.391517 
L 495.065088 444.145702 
L 496.000512 443.104025 
L 496.09728 442.757453 
L 496.129536 443.140485 
L 496.161792 443.007581 
L 496.290816 442.487291 
L 496.387584 442.420799 
L 496.41984 442.762157 
L 496.452096 442.504384 
L 496.484352 442.254688 
L 496.516608 442.770782 
L 496.548864 442.741104 
L 496.677888 442.126879 
L 496.806912 442.029886 
L 496.839168 442.498464 
L 496.90368 441.96853 
L 496.968192 441.821041 
L 497.000448 442.157106 
L 497.06496 441.799282 
L 497.161728 441.891767 
L 497.193984 442.147266 
L 497.22624 441.715854 
L 497.258496 441.905842 
L 497.38752 441.649363 
L 497.419776 441.957827 
L 497.516544 441.865735 
L 497.645568 441.621919 
L 497.839104 441.585419 
L 499.355136 440.045878 
L 499.387392 440.001694 
L 499.516416 439.209984 
L 499.709952 438.983846 
L 499.742208 439.426165 
L 499.80672 439.105464 
L 499.903488 438.834544 
L 499.935744 439.038933 
L 499.968 438.814622 
L 500.000256 438.837052 
L 500.12928 438.806298 
L 500.93568 437.28071 
L 501.032448 436.816798 
L 501.064704 437.000983 
L 501.09696 437.111031 
L 501.25824 436.280356 
L 501.322752 436.656057 
L 501.355008 436.637356 
L 501.451776 436.214609 
L 501.484032 436.33046 
L 501.677568 436.053476 
L 502.419456 434.571449 
L 502.483968 433.822241 
L 502.516224 434.268786 
L 502.54848 434.478925 
L 502.612992 433.664637 
L 502.645248 434.298582 
L 502.677504 434.165285 
L 502.774272 433.471749 
L 502.806528 433.555255 
L 502.967808 433.71482 
L 503.000064 433.643467 
L 504.193536 431.378202 
L 504.225792 431.08338 
L 504.290304 431.208444 
L 504.32256 431.238632 
L 504.354816 431.168455 
L 507.032064 426.59676 
L 507.096576 426.605385 
L 507.128832 426.552458 
L 507.806208 425.334359 
L 507.935232 424.562413 
L 507.999744 424.427155 
L 508.032 424.736875 
L 508.064256 424.340905 
L 508.096512 424.520463 
L 508.128768 424.545163 
L 508.161024 424.466753 
L 509.677056 420.719539 
L 509.709312 420.758352 
L 509.741568 420.671709 
L 510.257664 419.754312 
L 511.41888 417.725453 
L 511.483392 417.144435 
L 511.547904 417.21226 
L 511.676928 417.239311 
L 511.805952 417.091508 
L 513.51552 414.501234 
L 513.709056 414.383227 
L 513.741312 414.134667 
L 513.805824 414.418903 
L 513.934848 414.729799 
L 514.063872 416.520291 
L 514.192896 425.696221 
L 514.386432 438.219082 
L 514.64448 438.286123 
L 515.160576 438.324857 
L 518.547456 438.378725 
L 519.224832 437.785514 
L 520.031232 437.408715 
L 521.09568 437.181914 
L 522.676224 437.096055 
L 526.127616 437.180894 
L 538.933248 437.523232 
L 541.57824 437.544364 
L 544.352256 437.683032 
L 545.094144 438.347596 
L 545.900544 438.741508 
L 547.029504 439.008349 
L 548.706816 439.149856 
L 553.125888 439.189339 
L 576.608256 439.197329 
L 576.640512 439.574791 
L 576.866304 430.963413 
L 577.124352 428.987873 
L 577.253376 426.330166 
L 577.414656 417.087196 
L 577.608192 391.087617 
L 577.801728 376.985579 
L 577.930752 376.962056 
L 581.865984 378.514574 
L 582.86592 378.883101 
L 583.220736 378.985034 
L 584.252928 379.365322 
L 590.349312 381.470631 
L 590.671872 381.572564 
L 592.413696 382.09791 
L 592.800768 382.199843 
L 594.349056 382.64678 
L 594.736128 382.748713 
L 596.058624 383.11724 
L 596.477952 383.219173 
L 597.70368 383.548495 
L 598.123008 383.650428 
L 599.122944 383.89742 
L 600.058368 384.120888 
L 600.832512 384.29339 
L 601.219584 384.395323 
L 601.89696 384.52862 
L 602.284032 384.630553 
L 602.961408 384.76385 
L 603.34848 384.865783 
L 604.025856 384.99908 
L 604.509696 385.101013 
L 605.187072 385.23431 
L 605.670912 385.336243 
L 606.348288 385.46954 
L 606.832128 385.571473 
L 607.509504 385.70477 
L 608.090112 385.806703 
L 608.767488 385.94 
L 609.348096 386.041933 
L 609.928704 386.136025 
L 610.412544 386.237958 
L 610.993152 386.33205 
L 611.57376 386.430063 
L 611.928576 386.48887 
L 612.54144 386.590803 
L 613.122048 386.684895 
L 613.702656 386.782908 
L 614.057472 386.841715 
L 614.767104 386.939728 
L 615.12192 386.998535 
L 615.831552 387.096548 
L 616.186368 387.155355 
L 616.896 387.253368 
L 617.089536 387.276891 
L 617.476608 387.331778 
L 617.831424 387.390585 
L 618.541056 387.488598 
L 618.895872 387.547405 
L 619.79904 387.645418 
L 620.153856 387.704225 
L 620.960256 387.802238 
L 621.315072 387.861045 
L 622.21824 387.959058 
L 622.508544 387.97866 
L 623.282688 388.076673 
L 623.637504 388.13548 
L 624.63744 388.233493 
L 624.992256 388.2923 
L 625.992192 388.390313 
L 626.282496 388.409915 
L 627.153408 388.507928 
L 627.443712 388.52753 
L 628.314624 388.625543 
L 628.604928 388.645145 
L 629.47584 388.743158 
L 629.766144 388.76276 
L 630.733824 388.860773 
L 631.024128 388.880375 
L 631.991808 388.978388 
L 632.282112 388.99799 
L 633.34656 389.096003 
L 633.636864 389.115605 
L 634.79808 389.213618 
L 635.088384 389.23322 
L 636.2496 389.331233 
L 636.539904 389.350835 
L 637.797888 389.448848 
L 638.088192 389.46845 
L 639.442944 389.566463 
L 639.733248 389.586065 
L 641.184768 389.684078 
L 641.475072 389.70368 
L 642.926592 389.801693 
L 643.18464 389.817375 
L 644.861952 389.919308 
L 645.152256 389.93891 
L 646.89408 390.036923 
L 647.184384 390.056525 
L 649.119744 390.154538 
L 649.410048 390.17414 
L 651.442176 390.272153 
L 651.73248 390.291755 
L 654.087168 390.401529 
L 655.345152 390.448575 
L 655.958016 390.48386 
L 657.248256 390.542667 
L 657.280512 390.730851 
L 657.345024 390.503462 
L 657.635328 390.515224 
L 659.860992 390.624998 
L 660.11904 390.64068 
L 663.247872 390.742613 
L 663.602688 390.762215 
L 667.021824 390.860228 
L 667.279872 390.87591 
L 671.279616 390.977843 
L 671.537664 390.993525 
L 676.214784 391.095458 
L 676.5696 391.11114 
L 682.117632 391.213073 
L 682.472448 391.232675 
L 689.407488 391.342449 
L 690.342912 391.34637 
L 737.888256 391.401257 
L 737.920512 391.534554 
L 737.985024 391.354211 
L 738.275328 391.377734 
L 818.528256 391.381654 
L 818.560512 391.5816 
L 818.625024 391.381654 
L 818.81856 391.362052 
L 819.915264 391.385575 
L 899.168256 391.381654 
L 899.200512 391.5816 
L 899.265024 391.381654 
L 899.45856 391.362052 
L 900.555264 391.385575 
L 947.52 391.385575 
L 947.52 391.385575 
" clip-path="url(#pd537f1e0d3)" style="fill: none; stroke: #ff00ff; stroke-width: 2; stroke-linecap: square"/>
   </g>
   <g id="patch_22">
    <path d="M 100.8 465.442759 
L 100.8 372.711724 
" style="fill: none; stroke: #bcbcbc; stroke-width: 0.8; stroke-linejoin: miter; stroke-linecap: square"/>
   </g>
   <g id="patch_23">
    <path d="M 987.84 465.442759 
L 987.84 372.711724 
" style="fill: none; stroke: #bcbcbc; stroke-width: 0.8; stroke-linejoin: miter; stroke-linecap: square"/>
   </g>
   <g id="patch_24">
    <path d="M 100.8 465.442759 
L 987.84 465.442759 
" style="fill: none; stroke: #bcbcbc; stroke-width: 0.8; stroke-linejoin: miter; stroke-linecap: square"/>
   </g>
   <g id="patch_25">
    <path d="M 100.8 372.711724 
L 987.84 372.711724 
" style="fill: none; stroke: #bcbcbc; stroke-width: 0.8; stroke-linejoin: miter; stroke-linecap: square"/>
   </g>
  </g>
  <g id="axes_5">
   <g id="patch_26">
    <path d="M 100.8 576.72 
L 987.84 576.72 
L 987.84 483.988966 
L 100.8 483.988966 
z
" style="fill: #eeeeee"/>
   </g>
   <g id="matplotlib.axis_9">
    <g id="xtick_25">
     <g id="line2d_71">
      <path d="M 141.12 576.72 
L 141.12 483.988966 
" clip-path="url(#p4aed0af464)" style="fill: none; stroke-dasharray: 1.85,0.8; stroke-dashoffset: 0; stroke: #b2b2b2; stroke-width: 0.5"/>
     </g>
     <g id="line2d_72">
      <g>
       <use xlink:href="#m1408611632" x="141.12" y="576.72" style="stroke: #000000; stroke-width: 0.8"/>
      </g>
     </g>
     <g id="text_14">
      <!-- 0 s -->
      <g transform="translate(130.795 590.857813) scale(0.14 -0.14)">
       <defs>
        <path id="DejaVuSans-73" d="M 2834 3397 
L 2834 2853 
Q 2591 2978 2328 3040 
Q 2066 3103 1784 3103 
Q 1356 3103 1142 2972 
Q 928 2841 928 2578 
Q 928 2378 1081 2264 
Q 1234 2150 1697 2047 
L 1894 2003 
Q 2506 1872 2764 1633 
Q 3022 1394 3022 966 
Q 3022 478 2636 193 
Q 2250 -91 1575 -91 
Q 1294 -91 989 -36 
Q 684 19 347 128 
L 347 722 
Q 666 556 975 473 
Q 1284 391 1588 391 
Q 1994 391 2212 530 
Q 2431 669 2431 922 
Q 2431 1156 2273 1281 
Q 2116 1406 1581 1522 
L 1381 1569 
Q 847 1681 609 1914 
Q 372 2147 372 2553 
Q 372 3047 722 3315 
Q 1072 3584 1716 3584 
Q 2034 3584 2315 3537 
Q 2597 3491 2834 3397 
z
" transform="scale(0.015625)"/>
       </defs>
       <use xlink:href="#DejaVuSans-30"/>
       <use xlink:href="#DejaVuSans-20" x="63.623047"/>
       <use xlink:href="#DejaVuSans-73" x="95.410156"/>
      </g>
     </g>
    </g>
    <g id="xtick_26">
     <g id="line2d_73">
      <path d="M 302.4 576.72 
L 302.4 483.988966 
" clip-path="url(#p4aed0af464)" style="fill: none; stroke-dasharray: 1.85,0.8; stroke-dashoffset: 0; stroke: #b2b2b2; stroke-width: 0.5"/>
     </g>
     <g id="line2d_74">
      <g>
       <use xlink:href="#m1408611632" x="302.4" y="576.72" style="stroke: #000000; stroke-width: 0.8"/>
      </g>
     </g>
     <g id="text_15">
      <!-- 50 ns -->
      <g transform="translate(283.185 590.857813) scale(0.14 -0.14)">
       <defs>
        <path id="DejaVuSans-35" d="M 691 4666 
L 3169 4666 
L 3169 4134 
L 1269 4134 
L 1269 2991 
Q 1406 3038 1543 3061 
Q 1681 3084 1819 3084 
Q 2600 3084 3056 2656 
Q 3513 2228 3513 1497 
Q 3513 744 3044 326 
Q 2575 -91 1722 -91 
Q 1428 -91 1123 -41 
Q 819 9 494 109 
L 494 744 
Q 775 591 1075 516 
Q 1375 441 1709 441 
Q 2250 441 2565 725 
Q 2881 1009 2881 1497 
Q 2881 1984 2565 2268 
Q 2250 2553 1709 2553 
Q 1456 2553 1204 2497 
Q 953 2441 691 2322 
L 691 4666 
z
" transform="scale(0.015625)"/>
        <path id="DejaVuSans-6e" d="M 3513 2113 
L 3513 0 
L 2938 0 
L 2938 2094 
Q 2938 2591 2744 2837 
Q 2550 3084 2163 3084 
Q 1697 3084 1428 2787 
Q 1159 2491 1159 1978 
L 1159 0 
L 581 0 
L 581 3500 
L 1159 3500 
L 1159 2956 
Q 1366 3272 1645 3428 
Q 1925 3584 2291 3584 
Q 2894 3584 3203 3211 
Q 3513 2838 3513 2113 
z
" transform="scale(0.015625)"/>
       </defs>
       <use xlink:href="#DejaVuSans-35"/>
       <use xlink:href="#DejaVuSans-30" x="63.623047"/>
       <use xlink:href="#DejaVuSans-20" x="127.246094"/>
       <use xlink:href="#DejaVuSans-6e" x="159.033203"/>
       <use xlink:href="#DejaVuSans-73" x="222.412109"/>
      </g>
     </g>
    </g>
    <g id="xtick_27">
     <g id="line2d_75">
      <path d="M 463.68 576.72 
L 463.68 483.988966 
" clip-path="url(#p4aed0af464)" style="fill: none; stroke-dasharray: 1.85,0.8; stroke-dashoffset: 0; stroke: #b2b2b2; stroke-width: 0.5"/>
     </g>
     <g id="line2d_76">
      <g>
       <use xlink:href="#m1408611632" x="463.68" y="576.72" style="stroke: #000000; stroke-width: 0.8"/>
      </g>
     </g>
     <g id="text_16">
      <!-- 100 ns -->
      <g transform="translate(440.01125 590.857813) scale(0.14 -0.14)">
       <use xlink:href="#DejaVuSans-31"/>
       <use xlink:href="#DejaVuSans-30" x="63.623047"/>
       <use xlink:href="#DejaVuSans-30" x="127.246094"/>
       <use xlink:href="#DejaVuSans-20" x="190.869141"/>
       <use xlink:href="#DejaVuSans-6e" x="222.65625"/>
       <use xlink:href="#DejaVuSans-73" x="286.035156"/>
      </g>
     </g>
    </g>
    <g id="xtick_28">
     <g id="line2d_77">
      <path d="M 624.96 576.72 
L 624.96 483.988966 
" clip-path="url(#p4aed0af464)" style="fill: none; stroke-dasharray: 1.85,0.8; stroke-dashoffset: 0; stroke: #b2b2b2; stroke-width: 0.5"/>
     </g>
     <g id="line2d_78">
      <g>
       <use xlink:href="#m1408611632" x="624.96" y="576.72" style="stroke: #000000; stroke-width: 0.8"/>
      </g>
     </g>
     <g id="text_17">
      <!-- 150 ns -->
      <g transform="translate(601.29125 590.857813) scale(0.14 -0.14)">
       <use xlink:href="#DejaVuSans-31"/>
       <use xlink:href="#DejaVuSans-35" x="63.623047"/>
       <use xlink:href="#DejaVuSans-30" x="127.246094"/>
       <use xlink:href="#DejaVuSans-20" x="190.869141"/>
       <use xlink:href="#DejaVuSans-6e" x="222.65625"/>
       <use xlink:href="#DejaVuSans-73" x="286.035156"/>
      </g>
     </g>
    </g>
    <g id="xtick_29">
     <g id="line2d_79">
      <path d="M 786.24 576.72 
L 786.24 483.988966 
" clip-path="url(#p4aed0af464)" style="fill: none; stroke-dasharray: 1.85,0.8; stroke-dashoffset: 0; stroke: #b2b2b2; stroke-width: 0.5"/>
     </g>
     <g id="line2d_80">
      <g>
       <use xlink:href="#m1408611632" x="786.24" y="576.72" style="stroke: #000000; stroke-width: 0.8"/>
      </g>
     </g>
     <g id="text_18">
      <!-- 200 ns -->
      <g transform="translate(762.57125 590.857813) scale(0.14 -0.14)">
       <use xlink:href="#DejaVuSans-32"/>
       <use xlink:href="#DejaVuSans-30" x="63.623047"/>
       <use xlink:href="#DejaVuSans-30" x="127.246094"/>
       <use xlink:href="#DejaVuSans-20" x="190.869141"/>
       <use xlink:href="#DejaVuSans-6e" x="222.65625"/>
       <use xlink:href="#DejaVuSans-73" x="286.035156"/>
      </g>
     </g>
    </g>
    <g id="xtick_30">
     <g id="line2d_81">
      <path d="M 947.52 576.72 
L 947.52 483.988966 
" clip-path="url(#p4aed0af464)" style="fill: none; stroke-dasharray: 1.85,0.8; stroke-dashoffset: 0; stroke: #b2b2b2; stroke-width: 0.5"/>
     </g>
     <g id="line2d_82">
      <g>
       <use xlink:href="#m1408611632" x="947.52" y="576.72" style="stroke: #000000; stroke-width: 0.8"/>
      </g>
     </g>
     <g id="text_19">
      <!-- 250 ns -->
      <g transform="translate(923.85125 590.857813) scale(0.14 -0.14)">
       <use xlink:href="#DejaVuSans-32"/>
       <use xlink:href="#DejaVuSans-35" x="63.623047"/>
       <use xlink:href="#DejaVuSans-30" x="127.246094"/>
       <use xlink:href="#DejaVuSans-20" x="190.869141"/>
       <use xlink:href="#DejaVuSans-6e" x="222.65625"/>
       <use xlink:href="#DejaVuSans-73" x="286.035156"/>
      </g>
     </g>
    </g>
    <g id="text_20">
     <!-- Time -->
     <g transform="translate(527.192969 608.407187) scale(0.14 -0.14)">
      <defs>
       <path id="DejaVuSans-69" d="M 603 3500 
L 1178 3500 
L 1178 0 
L 603 0 
L 603 3500 
z
M 603 4863 
L 1178 4863 
L 1178 4134 
L 603 4134 
L 603 4863 
z
" transform="scale(0.015625)"/>
       <path id="DejaVuSans-6d" d="M 3328 2828 
Q 3544 3216 3844 3400 
Q 4144 3584 4550 3584 
Q 5097 3584 5394 3201 
Q 5691 2819 5691 2113 
L 5691 0 
L 5113 0 
L 5113 2094 
Q 5113 2597 4934 2840 
Q 4756 3084 4391 3084 
Q 3944 3084 3684 2787 
Q 3425 2491 3425 1978 
L 3425 0 
L 2847 0 
L 2847 2094 
Q 2847 2600 2669 2842 
Q 2491 3084 2119 3084 
Q 1678 3084 1418 2786 
Q 1159 2488 1159 1978 
L 1159 0 
L 581 0 
L 581 3500 
L 1159 3500 
L 1159 2956 
Q 1356 3278 1631 3431 
Q 1906 3584 2284 3584 
Q 2666 3584 2933 3390 
Q 3200 3197 3328 2828 
z
" transform="scale(0.015625)"/>
       <path id="DejaVuSans-65" d="M 3597 1894 
L 3597 1613 
L 953 1613 
Q 991 1019 1311 708 
Q 1631 397 2203 397 
Q 2534 397 2845 478 
Q 3156 559 3463 722 
L 3463 178 
Q 3153 47 2828 -22 
Q 2503 -91 2169 -91 
Q 1331 -91 842 396 
Q 353 884 353 1716 
Q 353 2575 817 3079 
Q 1281 3584 2069 3584 
Q 2775 3584 3186 3129 
Q 3597 2675 3597 1894 
z
M 3022 2063 
Q 3016 2534 2758 2815 
Q 2500 3097 2075 3097 
Q 1594 3097 1305 2825 
Q 1016 2553 972 2059 
L 3022 2063 
z
" transform="scale(0.015625)"/>
      </defs>
      <use xlink:href="#DejaVuSans-54"/>
      <use xlink:href="#DejaVuSans-69" x="57.958984"/>
      <use xlink:href="#DejaVuSans-6d" x="85.742188"/>
      <use xlink:href="#DejaVuSans-65" x="183.154297"/>
     </g>
    </g>
   </g>
   <g id="matplotlib.axis_10">
    <g id="ytick_10">
     <g id="line2d_83">
      <path d="M 100.8 569.745885 
L 987.84 569.745885 
" clip-path="url(#p4aed0af464)" style="fill: none; stroke-dasharray: 1.85,0.8; stroke-dashoffset: 0; stroke: #b2b2b2; stroke-width: 0.5"/>
     </g>
     <g id="line2d_84">
      <g>
       <use xlink:href="#ma93de02cb3" x="100.8" y="569.745885" style="stroke: #000000; stroke-width: 0.8"/>
      </g>
     </g>
     <g id="text_21">
      <!-- 0 V -->
      <g transform="translate(74.36625 575.064792) scale(0.14 -0.14)">
       <use xlink:href="#DejaVuSans-30"/>
       <use xlink:href="#DejaVuSans-20" x="63.623047"/>
       <use xlink:href="#DejaVuSans-56" x="95.410156"/>
      </g>
     </g>
    </g>
    <g id="ytick_11">
     <g id="line2d_85">
      <path d="M 100.8 535.950348 
L 987.84 535.950348 
" clip-path="url(#p4aed0af464)" style="fill: none; stroke-dasharray: 1.85,0.8; stroke-dashoffset: 0; stroke: #b2b2b2; stroke-width: 0.5"/>
     </g>
     <g id="line2d_86">
      <g>
       <use xlink:href="#ma93de02cb3" x="100.8" y="535.950348" style="stroke: #000000; stroke-width: 0.8"/>
      </g>
     </g>
     <g id="text_22">
      <!-- 500 mV -->
      <g transform="translate(42.914375 541.269254) scale(0.14 -0.14)">
       <use xlink:href="#DejaVuSans-35"/>
       <use xlink:href="#DejaVuSans-30" x="63.623047"/>
       <use xlink:href="#DejaVuSans-30" x="127.246094"/>
       <use xlink:href="#DejaVuSans-20" x="190.869141"/>
       <use xlink:href="#DejaVuSans-6d" x="222.65625"/>
       <use xlink:href="#DejaVuSans-56" x="320.068359"/>
      </g>
     </g>
    </g>
    <g id="ytick_12">
     <g id="line2d_87">
      <path d="M 100.8 502.15481 
L 987.84 502.15481 
" clip-path="url(#p4aed0af464)" style="fill: none; stroke-dasharray: 1.85,0.8; stroke-dashoffset: 0; stroke: #b2b2b2; stroke-width: 0.5"/>
     </g>
     <g id="line2d_88">
      <g>
       <use xlink:href="#ma93de02cb3" x="100.8" y="502.15481" style="stroke: #000000; stroke-width: 0.8"/>
      </g>
     </g>
     <g id="text_23">
      <!-- 1 V -->
      <g transform="translate(74.36625 507.473717) scale(0.14 -0.14)">
       <use xlink:href="#DejaVuSans-31"/>
       <use xlink:href="#DejaVuSans-20" x="63.623047"/>
       <use xlink:href="#DejaVuSans-56" x="95.410156"/>
      </g>
     </g>
    </g>
    <g id="text_24">
     <g id="patch_27">
      <path d="M 34.8768 554.329483 
L 34.8768 506.379483 
L 11.247425 506.379483 
L 11.247425 554.329483 
z
" style="fill: #ffff00; opacity: 0.2; stroke: #eeeeee; stroke-width: 0.5; stroke-linejoin: miter"/>
     </g>
     <!-- FOUT -->
     <g transform="translate(26.925238 549.289483) rotate(-90) scale(0.14 -0.14)">
      <use xlink:href="#DejaVuSans-46"/>
      <use xlink:href="#DejaVuSans-4f" x="57.519531"/>
      <use xlink:href="#DejaVuSans-55" x="136.230469"/>
      <use xlink:href="#DejaVuSans-54" x="209.423828"/>
     </g>
    </g>
   </g>
   <g id="line2d_89">
    <path d="M 141.12 488.636595 
L 173.472768 488.643355 
L 173.505024 488.44734 
L 173.569536 526.789729 
L 173.69856 572.504953 
L 173.730816 572.3695 
L 173.827584 567.842115 
L 173.892096 569.3609 
L 174.053376 570.064192 
L 174.117888 569.946665 
L 174.408192 569.492054 
L 174.440448 569.54151 
L 174.66624 569.729954 
L 176.182272 569.740151 
L 180.117504 569.761449 
L 193.568256 569.752159 
L 212.954112 569.74401 
L 255.30624 569.743704 
L 255.6288 488.52845 
L 255.854592 488.670391 
L 256.209408 488.629836 
L 334.849536 488.650114 
L 334.881792 492.854278 
L 335.043072 572.18376 
L 335.107584 570.261206 
L 335.172096 568.338639 
L 335.236608 568.870108 
L 335.365632 570.783003 
L 335.430144 570.410083 
L 335.591424 569.797213 
L 335.881728 569.648439 
L 336.559104 569.817924 
L 337.107456 569.746143 
L 350.009856 569.744206 
L 416.489472 569.74333 
L 416.553984 567.480841 
L 416.812032 488.204013 
L 416.844288 488.339195 
L 416.973312 488.852887 
L 417.037824 488.778537 
L 417.39264 488.548727 
L 417.844224 488.717705 
L 418.457088 488.562245 
L 419.328 488.636595 
L 465.421824 488.575763 
L 465.45408 488.460859 
L 465.486336 488.514931 
L 465.550848 511.27217 
L 465.712128 569.741075 
L 467.131392 569.74423 
L 509.838336 569.744196 
L 511.967232 569.797121 
L 511.999488 569.463625 
L 512.064 557.03268 
L 512.257536 488.98131 
L 512.418816 488.643355 
L 512.967168 488.636595 
L 514.096128 488.636595 
L 514.128384 489.745089 
L 514.192896 514.532088 
L 514.354176 569.742041 
L 515.096064 569.744205 
L 577.446912 569.735029 
L 577.479168 569.329923 
L 577.54368 541.132556 
L 577.70496 489.177324 
L 577.833984 488.643355 
L 947.52 488.636595 
L 947.52 488.636595 
" clip-path="url(#p4aed0af464)" style="fill: none; stroke: #ff00ff; stroke-width: 2; stroke-linecap: square"/>
   </g>
   <g id="patch_28">
    <path d="M 100.8 576.72 
L 100.8 483.988966 
" style="fill: none; stroke: #bcbcbc; stroke-width: 0.8; stroke-linejoin: miter; stroke-linecap: square"/>
   </g>
   <g id="patch_29">
    <path d="M 987.84 576.72 
L 987.84 483.988966 
" style="fill: none; stroke: #bcbcbc; stroke-width: 0.8; stroke-linejoin: miter; stroke-linecap: square"/>
   </g>
   <g id="patch_30">
    <path d="M 100.8 576.72 
L 987.84 576.72 
" style="fill: none; stroke: #bcbcbc; stroke-width: 0.8; stroke-linejoin: miter; stroke-linecap: square"/>
   </g>
   <g id="patch_31">
    <path d="M 100.8 483.988966 
L 987.84 483.988966 
" style="fill: none; stroke: #bcbcbc; stroke-width: 0.8; stroke-linejoin: miter; stroke-linecap: square"/>
   </g>
  </g>
  <g id="axes_6">
   <g id="patch_32">
    <path d="M 201.6 628.56 
L 856.8 628.56 
L 856.8 615.6 
L 201.6 615.6 
z
" clip-path="url(#p2b7e72928c)" style="fill: #d3d3d3"/>
   </g>
   <g id="patch_33">
    <path d="M 201.6 628.56 
L 580.68 628.56 
L 580.68 615.6 
L 201.6 615.6 
z
" clip-path="url(#p2b7e72928c)" style="fill: #0000ff"/>
   </g>
   <g id="line2d_90">
    <path d="M 201.6 635.04 
L 201.6 609.12 
" clip-path="url(#pb1c4256c51)" style="fill: none; stroke: #ff0000; stroke-linecap: square"/>
   </g>
   <g id="line2d_91">
    <defs>
     <path id="m6a4de784b3" d="M 0 5 
C 1.326016 5 2.597899 4.473168 3.535534 3.535534 
C 4.473168 2.597899 5 1.326016 5 0 
C 5 -1.326016 4.473168 -2.597899 3.535534 -3.535534 
C 2.597899 -4.473168 1.326016 -5 0 -5 
C -1.326016 -5 -2.597899 -4.473168 -3.535534 -3.535534 
C -4.473168 -2.597899 -5 -1.326016 -5 0 
C -5 1.326016 -4.473168 2.597899 -3.535534 3.535534 
C -2.597899 4.473168 -1.326016 5 0 5 
z
" style="stroke: #bfbfbf"/>
    </defs>
    <g>
     <use xlink:href="#m6a4de784b3" x="580.68" y="622.08" style="fill: #ffffff; stroke: #bfbfbf"/>
    </g>
   </g>
   <g id="text_25">
    <!-- #Sweep -->
    <g transform="translate(138.622875 625.39125) scale(0.12 -0.12)">
     <defs>
      <path id="DejaVuSans-23" d="M 3272 2816 
L 2363 2816 
L 2100 1772 
L 3016 1772 
L 3272 2816 
z
M 2803 4594 
L 2478 3297 
L 3391 3297 
L 3719 4594 
L 4219 4594 
L 3897 3297 
L 4872 3297 
L 4872 2816 
L 3775 2816 
L 3519 1772 
L 4513 1772 
L 4513 1294 
L 3397 1294 
L 3072 0 
L 2572 0 
L 2894 1294 
L 1978 1294 
L 1656 0 
L 1153 0 
L 1478 1294 
L 494 1294 
L 494 1772 
L 1594 1772 
L 1856 2816 
L 850 2816 
L 850 3297 
L 1978 3297 
L 2297 4594 
L 2803 4594 
z
" transform="scale(0.015625)"/>
      <path id="DejaVuSans-77" d="M 269 3500 
L 844 3500 
L 1563 769 
L 2278 3500 
L 2956 3500 
L 3675 769 
L 4391 3500 
L 4966 3500 
L 4050 0 
L 3372 0 
L 2619 2869 
L 1863 0 
L 1184 0 
L 269 3500 
z
" transform="scale(0.015625)"/>
      <path id="DejaVuSans-70" d="M 1159 525 
L 1159 -1331 
L 581 -1331 
L 581 3500 
L 1159 3500 
L 1159 2969 
Q 1341 3281 1617 3432 
Q 1894 3584 2278 3584 
Q 2916 3584 3314 3078 
Q 3713 2572 3713 1747 
Q 3713 922 3314 415 
Q 2916 -91 2278 -91 
Q 1894 -91 1617 61 
Q 1341 213 1159 525 
z
M 3116 1747 
Q 3116 2381 2855 2742 
Q 2594 3103 2138 3103 
Q 1681 3103 1420 2742 
Q 1159 2381 1159 1747 
Q 1159 1113 1420 752 
Q 1681 391 2138 391 
Q 2594 391 2855 752 
Q 3116 1113 3116 1747 
z
" transform="scale(0.015625)"/>
     </defs>
     <use xlink:href="#DejaVuSans-23"/>
     <use xlink:href="#DejaVuSans-53" x="83.789062"/>
     <use xlink:href="#DejaVuSans-77" x="147.265625"/>
     <use xlink:href="#DejaVuSans-65" x="229.052734"/>
     <use xlink:href="#DejaVuSans-65" x="290.576172"/>
     <use xlink:href="#DejaVuSans-70" x="352.099609"/>
    </g>
   </g>
   <g id="text_26">
    <!-- $\mathdefault{81}$ -->
    <g transform="translate(869.904 625.39125) scale(0.12 -0.12)">
     <defs>
      <path id="DejaVuSans-38" d="M 2034 2216 
Q 1584 2216 1326 1975 
Q 1069 1734 1069 1313 
Q 1069 891 1326 650 
Q 1584 409 2034 409 
Q 2484 409 2743 651 
Q 3003 894 3003 1313 
Q 3003 1734 2745 1975 
Q 2488 2216 2034 2216 
z
M 1403 2484 
Q 997 2584 770 2862 
Q 544 3141 544 3541 
Q 544 4100 942 4425 
Q 1341 4750 2034 4750 
Q 2731 4750 3128 4425 
Q 3525 4100 3525 3541 
Q 3525 3141 3298 2862 
Q 3072 2584 2669 2484 
Q 3125 2378 3379 2068 
Q 3634 1759 3634 1313 
Q 3634 634 3220 271 
Q 2806 -91 2034 -91 
Q 1263 -91 848 271 
Q 434 634 434 1313 
Q 434 1759 690 2068 
Q 947 2378 1403 2484 
z
M 1172 3481 
Q 1172 3119 1398 2916 
Q 1625 2713 2034 2713 
Q 2441 2713 2670 2916 
Q 2900 3119 2900 3481 
Q 2900 3844 2670 4047 
Q 2441 4250 2034 4250 
Q 1625 4250 1398 4047 
Q 1172 3844 1172 3481 
z
" transform="scale(0.015625)"/>
     </defs>
     <use xlink:href="#DejaVuSans-38" transform="translate(0 0.78125)"/>
     <use xlink:href="#DejaVuSans-31" transform="translate(63.623047 0.78125)"/>
    </g>
   </g>
  </g>
  <g id="text_27">
   <!-- DFF under BBI sweep analysis (Sweep = 91E-9) -->
   <g transform="translate(313.34625 25.1175) scale(0.16 -0.16)">
    <defs>
     <path id="DejaVuSans-75" d="M 544 1381 
L 544 3500 
L 1119 3500 
L 1119 1403 
Q 1119 906 1312 657 
Q 1506 409 1894 409 
Q 2359 409 2629 706 
Q 2900 1003 2900 1516 
L 2900 3500 
L 3475 3500 
L 3475 0 
L 2900 0 
L 2900 538 
Q 2691 219 2414 64 
Q 2138 -91 1772 -91 
Q 1169 -91 856 284 
Q 544 659 544 1381 
z
M 1991 3584 
L 1991 3584 
z
" transform="scale(0.015625)"/>
     <path id="DejaVuSans-64" d="M 2906 2969 
L 2906 4863 
L 3481 4863 
L 3481 0 
L 2906 0 
L 2906 525 
Q 2725 213 2448 61 
Q 2172 -91 1784 -91 
Q 1150 -91 751 415 
Q 353 922 353 1747 
Q 353 2572 751 3078 
Q 1150 3584 1784 3584 
Q 2172 3584 2448 3432 
Q 2725 3281 2906 2969 
z
M 947 1747 
Q 947 1113 1208 752 
Q 1469 391 1925 391 
Q 2381 391 2643 752 
Q 2906 1113 2906 1747 
Q 2906 2381 2643 2742 
Q 2381 3103 1925 3103 
Q 1469 3103 1208 2742 
Q 947 2381 947 1747 
z
" transform="scale(0.015625)"/>
     <path id="DejaVuSans-72" d="M 2631 2963 
Q 2534 3019 2420 3045 
Q 2306 3072 2169 3072 
Q 1681 3072 1420 2755 
Q 1159 2438 1159 1844 
L 1159 0 
L 581 0 
L 581 3500 
L 1159 3500 
L 1159 2956 
Q 1341 3275 1631 3429 
Q 1922 3584 2338 3584 
Q 2397 3584 2469 3576 
Q 2541 3569 2628 3553 
L 2631 2963 
z
" transform="scale(0.015625)"/>
     <path id="DejaVuSans-61" d="M 2194 1759 
Q 1497 1759 1228 1600 
Q 959 1441 959 1056 
Q 959 750 1161 570 
Q 1363 391 1709 391 
Q 2188 391 2477 730 
Q 2766 1069 2766 1631 
L 2766 1759 
L 2194 1759 
z
M 3341 1997 
L 3341 0 
L 2766 0 
L 2766 531 
Q 2569 213 2275 61 
Q 1981 -91 1556 -91 
Q 1019 -91 701 211 
Q 384 513 384 1019 
Q 384 1609 779 1909 
Q 1175 2209 1959 2209 
L 2766 2209 
L 2766 2266 
Q 2766 2663 2505 2880 
Q 2244 3097 1772 3097 
Q 1472 3097 1187 3025 
Q 903 2953 641 2809 
L 641 3341 
Q 956 3463 1253 3523 
Q 1550 3584 1831 3584 
Q 2591 3584 2966 3190 
Q 3341 2797 3341 1997 
z
" transform="scale(0.015625)"/>
     <path id="DejaVuSans-6c" d="M 603 4863 
L 1178 4863 
L 1178 0 
L 603 0 
L 603 4863 
z
" transform="scale(0.015625)"/>
     <path id="DejaVuSans-79" d="M 2059 -325 
Q 1816 -950 1584 -1140 
Q 1353 -1331 966 -1331 
L 506 -1331 
L 506 -850 
L 844 -850 
Q 1081 -850 1212 -737 
Q 1344 -625 1503 -206 
L 1606 56 
L 191 3500 
L 800 3500 
L 1894 763 
L 2988 3500 
L 3597 3500 
L 2059 -325 
z
" transform="scale(0.015625)"/>
     <path id="DejaVuSans-28" d="M 1984 4856 
Q 1566 4138 1362 3434 
Q 1159 2731 1159 2009 
Q 1159 1288 1364 580 
Q 1569 -128 1984 -844 
L 1484 -844 
Q 1016 -109 783 600 
Q 550 1309 550 2009 
Q 550 2706 781 3412 
Q 1013 4119 1484 4856 
L 1984 4856 
z
" transform="scale(0.015625)"/>
     <path id="DejaVuSans-3d" d="M 678 2906 
L 4684 2906 
L 4684 2381 
L 678 2381 
L 678 2906 
z
M 678 1631 
L 4684 1631 
L 4684 1100 
L 678 1100 
L 678 1631 
z
" transform="scale(0.015625)"/>
     <path id="DejaVuSans-39" d="M 703 97 
L 703 672 
Q 941 559 1184 500 
Q 1428 441 1663 441 
Q 2288 441 2617 861 
Q 2947 1281 2994 2138 
Q 2813 1869 2534 1725 
Q 2256 1581 1919 1581 
Q 1219 1581 811 2004 
Q 403 2428 403 3163 
Q 403 3881 828 4315 
Q 1253 4750 1959 4750 
Q 2769 4750 3195 4129 
Q 3622 3509 3622 2328 
Q 3622 1225 3098 567 
Q 2575 -91 1691 -91 
Q 1453 -91 1209 -44 
Q 966 3 703 97 
z
M 1959 2075 
Q 2384 2075 2632 2365 
Q 2881 2656 2881 3163 
Q 2881 3666 2632 3958 
Q 2384 4250 1959 4250 
Q 1534 4250 1286 3958 
Q 1038 3666 1038 3163 
Q 1038 2656 1286 2365 
Q 1534 2075 1959 2075 
z
" transform="scale(0.015625)"/>
     <path id="DejaVuSans-2d" d="M 313 2009 
L 1997 2009 
L 1997 1497 
L 313 1497 
L 313 2009 
z
" transform="scale(0.015625)"/>
     <path id="DejaVuSans-29" d="M 513 4856 
L 1013 4856 
Q 1481 4119 1714 3412 
Q 1947 2706 1947 2009 
Q 1947 1309 1714 600 
Q 1481 -109 1013 -844 
L 513 -844 
Q 928 -128 1133 580 
Q 1338 1288 1338 2009 
Q 1338 2731 1133 3434 
Q 928 4138 513 4856 
z
" transform="scale(0.015625)"/>
    </defs>
    <use xlink:href="#DejaVuSans-44"/>
    <use xlink:href="#DejaVuSans-46" x="77.001953"/>
    <use xlink:href="#DejaVuSans-46" x="134.521484"/>
    <use xlink:href="#DejaVuSans-20" x="192.041016"/>
    <use xlink:href="#DejaVuSans-75" x="223.828125"/>
    <use xlink:href="#DejaVuSans-6e" x="287.207031"/>
    <use xlink:href="#DejaVuSans-64" x="350.585938"/>
    <use xlink:href="#DejaVuSans-65" x="414.0625"/>
    <use xlink:href="#DejaVuSans-72" x="475.585938"/>
    <use xlink:href="#DejaVuSans-20" x="516.699219"/>
    <use xlink:href="#DejaVuSans-42" x="548.486328"/>
    <use xlink:href="#DejaVuSans-42" x="617.089844"/>
    <use xlink:href="#DejaVuSans-49" x="685.693359"/>
    <use xlink:href="#DejaVuSans-20" x="715.185547"/>
    <use xlink:href="#DejaVuSans-73" x="746.972656"/>
    <use xlink:href="#DejaVuSans-77" x="799.072266"/>
    <use xlink:href="#DejaVuSans-65" x="880.859375"/>
    <use xlink:href="#DejaVuSans-65" x="942.382812"/>
    <use xlink:href="#DejaVuSans-70" x="1003.90625"/>
    <use xlink:href="#DejaVuSans-20" x="1067.382812"/>
    <use xlink:href="#DejaVuSans-61" x="1099.169922"/>
    <use xlink:href="#DejaVuSans-6e" x="1160.449219"/>
    <use xlink:href="#DejaVuSans-61" x="1223.828125"/>
    <use xlink:href="#DejaVuSans-6c" x="1285.107422"/>
    <use xlink:href="#DejaVuSans-79" x="1312.890625"/>
    <use xlink:href="#DejaVuSans-73" x="1372.070312"/>
    <use xlink:href="#DejaVuSans-69" x="1424.169922"/>
    <use xlink:href="#DejaVuSans-73" x="1451.953125"/>
    <use xlink:href="#DejaVuSans-20" x="1504.052734"/>
    <use xlink:href="#DejaVuSans-28" x="1535.839844"/>
    <use xlink:href="#DejaVuSans-53" x="1574.853516"/>
    <use xlink:href="#DejaVuSans-77" x="1638.330078"/>
    <use xlink:href="#DejaVuSans-65" x="1720.117188"/>
    <use xlink:href="#DejaVuSans-65" x="1781.640625"/>
    <use xlink:href="#DejaVuSans-70" x="1843.164062"/>
    <use xlink:href="#DejaVuSans-20" x="1906.640625"/>
    <use xlink:href="#DejaVuSans-3d" x="1938.427734"/>
    <use xlink:href="#DejaVuSans-20" x="2022.216797"/>
    <use xlink:href="#DejaVuSans-39" x="2054.003906"/>
    <use xlink:href="#DejaVuSans-31" x="2117.626953"/>
    <use xlink:href="#DejaVuSans-45" x="2181.25"/>
    <use xlink:href="#DejaVuSans-2d" x="2244.433594"/>
    <use xlink:href="#DejaVuSans-39" x="2280.517578"/>
    <use xlink:href="#DejaVuSans-29" x="2344.140625"/>
   </g>
  </g>
 </g>
 <defs>
  <clipPath id="pb2f37ef660">
   <rect x="100.8" y="38.88" width="887.04" height="92.731034"/>
  </clipPath>
  <clipPath id="p5096344713">
   <rect x="100.8" y="150.157241" width="887.04" height="92.731034"/>
  </clipPath>
  <clipPath id="pad2f77eea2">
   <rect x="100.8" y="261.434483" width="887.04" height="92.731034"/>
  </clipPath>
  <clipPath id="pd537f1e0d3">
   <rect x="100.8" y="372.711724" width="887.04" height="92.731034"/>
  </clipPath>
  <clipPath id="p4aed0af464">
   <rect x="100.8" y="483.988966" width="887.04" height="92.731034"/>
  </clipPath>
  <clipPath id="p2b7e72928c">
   <rect x="201.6" y="609.12" width="655.2" height="25.92"/>
  </clipPath>
  <clipPath id="pb1c4256c51">
   <path d="M 201.6 628.56 
L 856.8 628.56 
L 856.8 615.6 
L 201.6 615.6 
z
"/>
  </clipPath>
 </defs>
</svg>
