<?xml version="1.0" encoding="utf-8" standalone="no"?>
<!DOCTYPE svg PUBLIC "-//W3C//DTD SVG 1.1//EN"
  "http://www.w3.org/Graphics/SVG/1.1/DTD/svg11.dtd">
<svg xmlns:xlink="http://www.w3.org/1999/xlink" width="1008pt" height="648pt" viewBox="0 0 1008 648" xmlns="http://www.w3.org/2000/svg" version="1.1">
 <metadata>
  <rdf:RDF xmlns:dc="http://purl.org/dc/elements/1.1/" xmlns:cc="http://creativecommons.org/ns#" xmlns:rdf="http://www.w3.org/1999/02/22-rdf-syntax-ns#">
   <cc:Work>
    <dc:type rdf:resource="http://purl.org/dc/dcmitype/StillImage"/>
    <dc:date>2024-06-03T10:45:35.002915</dc:date>
    <dc:format>image/svg+xml</dc:format>
    <dc:creator>
     <cc:Agent>
      <dc:title>Matplotlib v3.9.0, https://matplotlib.org/</dc:title>
     </cc:Agent>
    </dc:creator>
   </cc:Work>
  </rdf:RDF>
 </metadata>
 <defs>
  <style type="text/css">*{stroke-linejoin: round; stroke-linecap: butt}</style>
 </defs>
 <g id="figure_1">
  <g id="patch_1">
   <path d="M 0 648 
L 1008 648 
L 1008 0 
L 0 0 
z
" style="fill: #ffffff"/>
  </g>
  <g id="axes_1">
   <g id="patch_2">
    <path d="M 100.8 131.611034 
L 987.84 131.611034 
L 987.84 38.88 
L 100.8 38.88 
z
" style="fill: #eeeeee"/>
   </g>
   <g id="matplotlib.axis_1">
    <g id="xtick_1">
     <g id="line2d_1">
      <path d="M 141.12 131.611034 
L 141.12 38.88 
" clip-path="url(#p62c6dae72d)" style="fill: none; stroke-dasharray: 1.85,0.8; stroke-dashoffset: 0; stroke: #b2b2b2; stroke-width: 0.5"/>
     </g>
     <g id="line2d_2">
      <defs>
       <path id="mda399ed074" d="M 0 0 
L 0 -3.5 
" style="stroke: #000000; stroke-width: 0.8"/>
      </defs>
      <g>
       <use xlink:href="#mda399ed074" x="141.12" y="131.611034" style="stroke: #000000; stroke-width: 0.8"/>
      </g>
     </g>
    </g>
    <g id="xtick_2">
     <g id="line2d_3">
      <path d="M 302.4 131.611034 
L 302.4 38.88 
" clip-path="url(#p62c6dae72d)" style="fill: none; stroke-dasharray: 1.85,0.8; stroke-dashoffset: 0; stroke: #b2b2b2; stroke-width: 0.5"/>
     </g>
     <g id="line2d_4">
      <g>
       <use xlink:href="#mda399ed074" x="302.4" y="131.611034" style="stroke: #000000; stroke-width: 0.8"/>
      </g>
     </g>
    </g>
    <g id="xtick_3">
     <g id="line2d_5">
      <path d="M 463.68 131.611034 
L 463.68 38.88 
" clip-path="url(#p62c6dae72d)" style="fill: none; stroke-dasharray: 1.85,0.8; stroke-dashoffset: 0; stroke: #b2b2b2; stroke-width: 0.5"/>
     </g>
     <g id="line2d_6">
      <g>
       <use xlink:href="#mda399ed074" x="463.68" y="131.611034" style="stroke: #000000; stroke-width: 0.8"/>
      </g>
     </g>
    </g>
    <g id="xtick_4">
     <g id="line2d_7">
      <path d="M 624.96 131.611034 
L 624.96 38.88 
" clip-path="url(#p62c6dae72d)" style="fill: none; stroke-dasharray: 1.85,0.8; stroke-dashoffset: 0; stroke: #b2b2b2; stroke-width: 0.5"/>
     </g>
     <g id="line2d_8">
      <g>
       <use xlink:href="#mda399ed074" x="624.96" y="131.611034" style="stroke: #000000; stroke-width: 0.8"/>
      </g>
     </g>
    </g>
    <g id="xtick_5">
     <g id="line2d_9">
      <path d="M 786.24 131.611034 
L 786.24 38.88 
" clip-path="url(#p62c6dae72d)" style="fill: none; stroke-dasharray: 1.85,0.8; stroke-dashoffset: 0; stroke: #b2b2b2; stroke-width: 0.5"/>
     </g>
     <g id="line2d_10">
      <g>
       <use xlink:href="#mda399ed074" x="786.24" y="131.611034" style="stroke: #000000; stroke-width: 0.8"/>
      </g>
     </g>
    </g>
    <g id="xtick_6">
     <g id="line2d_11">
      <path d="M 947.52 131.611034 
L 947.52 38.88 
" clip-path="url(#p62c6dae72d)" style="fill: none; stroke-dasharray: 1.85,0.8; stroke-dashoffset: 0; stroke: #b2b2b2; stroke-width: 0.5"/>
     </g>
     <g id="line2d_12">
      <g>
       <use xlink:href="#mda399ed074" x="947.52" y="131.611034" style="stroke: #000000; stroke-width: 0.8"/>
      </g>
     </g>
    </g>
   </g>
   <g id="matplotlib.axis_2">
    <g id="ytick_1">
     <g id="line2d_13">
      <path d="M 100.8 98.340394 
L 987.84 98.340394 
" clip-path="url(#p62c6dae72d)" style="fill: none; stroke-dasharray: 1.85,0.8; stroke-dashoffset: 0; stroke: #b2b2b2; stroke-width: 0.5"/>
     </g>
     <g id="line2d_14">
      <defs>
       <path id="mb51c2fedf9" d="M 0 0 
L 3.5 0 
" style="stroke: #000000; stroke-width: 0.8"/>
      </defs>
      <g>
       <use xlink:href="#mb51c2fedf9" x="100.8" y="98.340394" style="stroke: #000000; stroke-width: 0.8"/>
      </g>
     </g>
     <g id="text_1">
      <!-- −200 V -->
      <g transform="translate(44.819688 103.6593) scale(0.14 -0.14)">
       <defs>
        <path id="DejaVuSans-2212" d="M 678 2272 
L 4684 2272 
L 4684 1741 
L 678 1741 
L 678 2272 
z
" transform="scale(0.015625)"/>
        <path id="DejaVuSans-32" d="M 1228 531 
L 3431 531 
L 3431 0 
L 469 0 
L 469 531 
Q 828 903 1448 1529 
Q 2069 2156 2228 2338 
Q 2531 2678 2651 2914 
Q 2772 3150 2772 3378 
Q 2772 3750 2511 3984 
Q 2250 4219 1831 4219 
Q 1534 4219 1204 4116 
Q 875 4013 500 3803 
L 500 4441 
Q 881 4594 1212 4672 
Q 1544 4750 1819 4750 
Q 2544 4750 2975 4387 
Q 3406 4025 3406 3419 
Q 3406 3131 3298 2873 
Q 3191 2616 2906 2266 
Q 2828 2175 2409 1742 
Q 1991 1309 1228 531 
z
" transform="scale(0.015625)"/>
        <path id="DejaVuSans-30" d="M 2034 4250 
Q 1547 4250 1301 3770 
Q 1056 3291 1056 2328 
Q 1056 1369 1301 889 
Q 1547 409 2034 409 
Q 2525 409 2770 889 
Q 3016 1369 3016 2328 
Q 3016 3291 2770 3770 
Q 2525 4250 2034 4250 
z
M 2034 4750 
Q 2819 4750 3233 4129 
Q 3647 3509 3647 2328 
Q 3647 1150 3233 529 
Q 2819 -91 2034 -91 
Q 1250 -91 836 529 
Q 422 1150 422 2328 
Q 422 3509 836 4129 
Q 1250 4750 2034 4750 
z
" transform="scale(0.015625)"/>
        <path id="DejaVuSans-20" transform="scale(0.015625)"/>
        <path id="DejaVuSans-56" d="M 1831 0 
L 50 4666 
L 709 4666 
L 2188 738 
L 3669 4666 
L 4325 4666 
L 2547 0 
L 1831 0 
z
" transform="scale(0.015625)"/>
       </defs>
       <use xlink:href="#DejaVuSans-2212"/>
       <use xlink:href="#DejaVuSans-32" x="83.789062"/>
       <use xlink:href="#DejaVuSans-30" x="147.412109"/>
       <use xlink:href="#DejaVuSans-30" x="211.035156"/>
       <use xlink:href="#DejaVuSans-20" x="274.658203"/>
       <use xlink:href="#DejaVuSans-56" x="306.445312"/>
      </g>
     </g>
    </g>
    <g id="ytick_2">
     <g id="line2d_15">
      <path d="M 100.8 45.027377 
L 987.84 45.027377 
" clip-path="url(#p62c6dae72d)" style="fill: none; stroke-dasharray: 1.85,0.8; stroke-dashoffset: 0; stroke: #b2b2b2; stroke-width: 0.5"/>
     </g>
     <g id="line2d_16">
      <g>
       <use xlink:href="#mb51c2fedf9" x="100.8" y="45.027377" style="stroke: #000000; stroke-width: 0.8"/>
      </g>
     </g>
     <g id="text_2">
      <!-- 0 V -->
      <g transform="translate(74.36625 50.346284) scale(0.14 -0.14)">
       <use xlink:href="#DejaVuSans-30"/>
       <use xlink:href="#DejaVuSans-20" x="63.623047"/>
       <use xlink:href="#DejaVuSans-56" x="95.410156"/>
      </g>
     </g>
    </g>
    <g id="text_3">
     <g id="patch_3">
      <path d="M 34.8768 131.080205 
L 34.8768 39.41083 
L 11.247425 39.41083 
L 11.247425 131.080205 
z
" style="fill: #ffff00; opacity: 0.2; stroke: #eeeeee; stroke-width: 0.5; stroke-linejoin: miter"/>
     </g>
     <!-- VPULSE BBI -->
     <g transform="translate(26.925238 126.040205) rotate(-90) scale(0.14 -0.14)">
      <defs>
       <path id="DejaVuSans-50" d="M 1259 4147 
L 1259 2394 
L 2053 2394 
Q 2494 2394 2734 2622 
Q 2975 2850 2975 3272 
Q 2975 3691 2734 3919 
Q 2494 4147 2053 4147 
L 1259 4147 
z
M 628 4666 
L 2053 4666 
Q 2838 4666 3239 4311 
Q 3641 3956 3641 3272 
Q 3641 2581 3239 2228 
Q 2838 1875 2053 1875 
L 1259 1875 
L 1259 0 
L 628 0 
L 628 4666 
z
" transform="scale(0.015625)"/>
       <path id="DejaVuSans-55" d="M 556 4666 
L 1191 4666 
L 1191 1831 
Q 1191 1081 1462 751 
Q 1734 422 2344 422 
Q 2950 422 3222 751 
Q 3494 1081 3494 1831 
L 3494 4666 
L 4128 4666 
L 4128 1753 
Q 4128 841 3676 375 
Q 3225 -91 2344 -91 
Q 1459 -91 1007 375 
Q 556 841 556 1753 
L 556 4666 
z
" transform="scale(0.015625)"/>
       <path id="DejaVuSans-4c" d="M 628 4666 
L 1259 4666 
L 1259 531 
L 3531 531 
L 3531 0 
L 628 0 
L 628 4666 
z
" transform="scale(0.015625)"/>
       <path id="DejaVuSans-53" d="M 3425 4513 
L 3425 3897 
Q 3066 4069 2747 4153 
Q 2428 4238 2131 4238 
Q 1616 4238 1336 4038 
Q 1056 3838 1056 3469 
Q 1056 3159 1242 3001 
Q 1428 2844 1947 2747 
L 2328 2669 
Q 3034 2534 3370 2195 
Q 3706 1856 3706 1288 
Q 3706 609 3251 259 
Q 2797 -91 1919 -91 
Q 1588 -91 1214 -16 
Q 841 59 441 206 
L 441 856 
Q 825 641 1194 531 
Q 1563 422 1919 422 
Q 2459 422 2753 634 
Q 3047 847 3047 1241 
Q 3047 1584 2836 1778 
Q 2625 1972 2144 2069 
L 1759 2144 
Q 1053 2284 737 2584 
Q 422 2884 422 3419 
Q 422 4038 858 4394 
Q 1294 4750 2059 4750 
Q 2388 4750 2728 4690 
Q 3069 4631 3425 4513 
z
" transform="scale(0.015625)"/>
       <path id="DejaVuSans-45" d="M 628 4666 
L 3578 4666 
L 3578 4134 
L 1259 4134 
L 1259 2753 
L 3481 2753 
L 3481 2222 
L 1259 2222 
L 1259 531 
L 3634 531 
L 3634 0 
L 628 0 
L 628 4666 
z
" transform="scale(0.015625)"/>
       <path id="DejaVuSans-42" d="M 1259 2228 
L 1259 519 
L 2272 519 
Q 2781 519 3026 730 
Q 3272 941 3272 1375 
Q 3272 1813 3026 2020 
Q 2781 2228 2272 2228 
L 1259 2228 
z
M 1259 4147 
L 1259 2741 
L 2194 2741 
Q 2656 2741 2882 2914 
Q 3109 3088 3109 3444 
Q 3109 3797 2882 3972 
Q 2656 4147 2194 4147 
L 1259 4147 
z
M 628 4666 
L 2241 4666 
Q 2963 4666 3353 4366 
Q 3744 4066 3744 3513 
Q 3744 3084 3544 2831 
Q 3344 2578 2956 2516 
Q 3422 2416 3680 2098 
Q 3938 1781 3938 1306 
Q 3938 681 3513 340 
Q 3088 0 2303 0 
L 628 0 
L 628 4666 
z
" transform="scale(0.015625)"/>
       <path id="DejaVuSans-49" d="M 628 4666 
L 1259 4666 
L 1259 0 
L 628 0 
L 628 4666 
z
" transform="scale(0.015625)"/>
      </defs>
      <use xlink:href="#DejaVuSans-56"/>
      <use xlink:href="#DejaVuSans-50" x="68.408203"/>
      <use xlink:href="#DejaVuSans-55" x="128.710938"/>
      <use xlink:href="#DejaVuSans-4c" x="201.904297"/>
      <use xlink:href="#DejaVuSans-53" x="257.617188"/>
      <use xlink:href="#DejaVuSans-45" x="321.09375"/>
      <use xlink:href="#DejaVuSans-20" x="384.277344"/>
      <use xlink:href="#DejaVuSans-42" x="416.064453"/>
      <use xlink:href="#DejaVuSans-42" x="484.667969"/>
      <use xlink:href="#DejaVuSans-49" x="553.271484"/>
     </g>
    </g>
   </g>
   <g id="line2d_17">
    <path d="M 141.12 45.027377 
L 283.078656 45.136282 
L 283.562496 46.425538 
L 291.787776 69.006772 
L 299.206656 89.863624 
L 300.819456 94.440546 
L 302.625792 99.673219 
L 306.10944 110.807642 
L 307.72224 115.952349 
L 308.980224 119.585631 
L 309.431808 119.80688 
L 310.496256 120.297359 
L 310.980096 120.526605 
L 312.044544 121.017085 
L 312.625152 121.272988 
L 313.496064 121.656841 
L 314.076672 121.912744 
L 314.915328 122.269941 
L 316.495872 122.936354 
L 317.140992 123.202919 
L 318.237696 123.629423 
L 318.979584 123.922644 
L 320.076288 124.349149 
L 320.979456 124.677024 
L 321.656832 124.943589 
L 322.463232 125.25547 
L 323.817984 125.804594 
L 326.462976 126.790885 
L 327.07584 127.022796 
L 329.0112 127.395987 
L 347.493888 127.289361 
L 347.71968 126.801547 
L 366.008832 75.087922 
L 369.750528 63.292417 
L 373.459968 51.617666 
L 378.072576 49.3412 
L 383.427072 46.984578 
L 392.136192 43.484472 
L 393.007104 43.268927 
L 407.296512 43.108189 
L 414.102528 43.184799 
L 429.456384 43.746186 
L 457.2288 44.46146 
L 482.87232 44.774399 
L 518.482944 44.945888 
L 566.512128 44.953885 
L 947.52 44.953885 
L 947.52 44.953885 
" clip-path="url(#p62c6dae72d)" style="fill: none; stroke: #ff0000; stroke-width: 2; stroke-linecap: square"/>
   </g>
   <g id="patch_4">
    <path d="M 100.8 131.611034 
L 100.8 38.88 
" style="fill: none; stroke: #bcbcbc; stroke-width: 0.8; stroke-linejoin: miter; stroke-linecap: square"/>
   </g>
   <g id="patch_5">
    <path d="M 987.84 131.611034 
L 987.84 38.88 
" style="fill: none; stroke: #bcbcbc; stroke-width: 0.8; stroke-linejoin: miter; stroke-linecap: square"/>
   </g>
   <g id="patch_6">
    <path d="M 100.8 131.611034 
L 987.84 131.611034 
" style="fill: none; stroke: #bcbcbc; stroke-width: 0.8; stroke-linejoin: miter; stroke-linecap: square"/>
   </g>
   <g id="patch_7">
    <path d="M 100.8 38.88 
L 987.84 38.88 
" style="fill: none; stroke: #bcbcbc; stroke-width: 0.8; stroke-linejoin: miter; stroke-linecap: square"/>
   </g>
  </g>
  <g id="axes_2">
   <g id="patch_8">
    <path d="M 100.8 242.888276 
L 987.84 242.888276 
L 987.84 150.157241 
L 100.8 150.157241 
z
" style="fill: #eeeeee"/>
   </g>
   <g id="matplotlib.axis_3">
    <g id="xtick_7">
     <g id="line2d_18">
      <path d="M 141.12 242.888276 
L 141.12 150.157241 
" clip-path="url(#p3d8030d337)" style="fill: none; stroke-dasharray: 1.85,0.8; stroke-dashoffset: 0; stroke: #b2b2b2; stroke-width: 0.5"/>
     </g>
     <g id="line2d_19">
      <g>
       <use xlink:href="#mda399ed074" x="141.12" y="242.888276" style="stroke: #000000; stroke-width: 0.8"/>
      </g>
     </g>
    </g>
    <g id="xtick_8">
     <g id="line2d_20">
      <path d="M 302.4 242.888276 
L 302.4 150.157241 
" clip-path="url(#p3d8030d337)" style="fill: none; stroke-dasharray: 1.85,0.8; stroke-dashoffset: 0; stroke: #b2b2b2; stroke-width: 0.5"/>
     </g>
     <g id="line2d_21">
      <g>
       <use xlink:href="#mda399ed074" x="302.4" y="242.888276" style="stroke: #000000; stroke-width: 0.8"/>
      </g>
     </g>
    </g>
    <g id="xtick_9">
     <g id="line2d_22">
      <path d="M 463.68 242.888276 
L 463.68 150.157241 
" clip-path="url(#p3d8030d337)" style="fill: none; stroke-dasharray: 1.85,0.8; stroke-dashoffset: 0; stroke: #b2b2b2; stroke-width: 0.5"/>
     </g>
     <g id="line2d_23">
      <g>
       <use xlink:href="#mda399ed074" x="463.68" y="242.888276" style="stroke: #000000; stroke-width: 0.8"/>
      </g>
     </g>
    </g>
    <g id="xtick_10">
     <g id="line2d_24">
      <path d="M 624.96 242.888276 
L 624.96 150.157241 
" clip-path="url(#p3d8030d337)" style="fill: none; stroke-dasharray: 1.85,0.8; stroke-dashoffset: 0; stroke: #b2b2b2; stroke-width: 0.5"/>
     </g>
     <g id="line2d_25">
      <g>
       <use xlink:href="#mda399ed074" x="624.96" y="242.888276" style="stroke: #000000; stroke-width: 0.8"/>
      </g>
     </g>
    </g>
    <g id="xtick_11">
     <g id="line2d_26">
      <path d="M 786.24 242.888276 
L 786.24 150.157241 
" clip-path="url(#p3d8030d337)" style="fill: none; stroke-dasharray: 1.85,0.8; stroke-dashoffset: 0; stroke: #b2b2b2; stroke-width: 0.5"/>
     </g>
     <g id="line2d_27">
      <g>
       <use xlink:href="#mda399ed074" x="786.24" y="242.888276" style="stroke: #000000; stroke-width: 0.8"/>
      </g>
     </g>
    </g>
    <g id="xtick_12">
     <g id="line2d_28">
      <path d="M 947.52 242.888276 
L 947.52 150.157241 
" clip-path="url(#p3d8030d337)" style="fill: none; stroke-dasharray: 1.85,0.8; stroke-dashoffset: 0; stroke: #b2b2b2; stroke-width: 0.5"/>
     </g>
     <g id="line2d_29">
      <g>
       <use xlink:href="#mda399ed074" x="947.52" y="242.888276" style="stroke: #000000; stroke-width: 0.8"/>
      </g>
     </g>
    </g>
   </g>
   <g id="matplotlib.axis_4">
    <g id="ytick_3">
     <g id="line2d_30">
      <path d="M 100.8 219.409685 
L 987.84 219.409685 
" clip-path="url(#p3d8030d337)" style="fill: none; stroke-dasharray: 1.85,0.8; stroke-dashoffset: 0; stroke: #b2b2b2; stroke-width: 0.5"/>
     </g>
     <g id="line2d_31">
      <g>
       <use xlink:href="#mb51c2fedf9" x="100.8" y="219.409685" style="stroke: #000000; stroke-width: 0.8"/>
      </g>
     </g>
     <g id="text_4">
      <!-- 0 V -->
      <g transform="translate(74.36625 224.728591) scale(0.14 -0.14)">
       <use xlink:href="#DejaVuSans-30"/>
       <use xlink:href="#DejaVuSans-20" x="63.623047"/>
       <use xlink:href="#DejaVuSans-56" x="95.410156"/>
      </g>
     </g>
    </g>
    <g id="ytick_4">
     <g id="line2d_32">
      <path d="M 100.8 185.803838 
L 987.84 185.803838 
" clip-path="url(#p3d8030d337)" style="fill: none; stroke-dasharray: 1.85,0.8; stroke-dashoffset: 0; stroke: #b2b2b2; stroke-width: 0.5"/>
     </g>
     <g id="line2d_33">
      <g>
       <use xlink:href="#mb51c2fedf9" x="100.8" y="185.803838" style="stroke: #000000; stroke-width: 0.8"/>
      </g>
     </g>
     <g id="text_5">
      <!-- 1 V -->
      <g transform="translate(74.36625 191.122744) scale(0.14 -0.14)">
       <defs>
        <path id="DejaVuSans-31" d="M 794 531 
L 1825 531 
L 1825 4091 
L 703 3866 
L 703 4441 
L 1819 4666 
L 2450 4666 
L 2450 531 
L 3481 531 
L 3481 0 
L 794 0 
L 794 531 
z
" transform="scale(0.015625)"/>
       </defs>
       <use xlink:href="#DejaVuSans-31"/>
       <use xlink:href="#DejaVuSans-20" x="63.623047"/>
       <use xlink:href="#DejaVuSans-56" x="95.410156"/>
      </g>
     </g>
    </g>
    <g id="ytick_5">
     <g id="line2d_34">
      <path d="M 100.8 152.19799 
L 987.84 152.19799 
" clip-path="url(#p3d8030d337)" style="fill: none; stroke-dasharray: 1.85,0.8; stroke-dashoffset: 0; stroke: #b2b2b2; stroke-width: 0.5"/>
     </g>
     <g id="line2d_35">
      <g>
       <use xlink:href="#mb51c2fedf9" x="100.8" y="152.19799" style="stroke: #000000; stroke-width: 0.8"/>
      </g>
     </g>
     <g id="text_6">
      <!-- 2 V -->
      <g transform="translate(74.36625 157.516896) scale(0.14 -0.14)">
       <use xlink:href="#DejaVuSans-32"/>
       <use xlink:href="#DejaVuSans-20" x="63.623047"/>
       <use xlink:href="#DejaVuSans-56" x="95.410156"/>
      </g>
     </g>
    </g>
    <g id="text_7">
     <g id="patch_9">
      <path d="M 34.8768 224.531509 
L 34.8768 168.514009 
L 11.247425 168.514009 
L 11.247425 224.531509 
z
" style="fill: #ffff00; opacity: 0.2; stroke: #eeeeee; stroke-width: 0.5; stroke-linejoin: miter"/>
     </g>
     <!-- DFF IN -->
     <g transform="translate(26.925238 219.491509) rotate(-90) scale(0.14 -0.14)">
      <defs>
       <path id="DejaVuSans-44" d="M 1259 4147 
L 1259 519 
L 2022 519 
Q 2988 519 3436 956 
Q 3884 1394 3884 2338 
Q 3884 3275 3436 3711 
Q 2988 4147 2022 4147 
L 1259 4147 
z
M 628 4666 
L 1925 4666 
Q 3281 4666 3915 4102 
Q 4550 3538 4550 2338 
Q 4550 1131 3912 565 
Q 3275 0 1925 0 
L 628 0 
L 628 4666 
z
" transform="scale(0.015625)"/>
       <path id="DejaVuSans-46" d="M 628 4666 
L 3309 4666 
L 3309 4134 
L 1259 4134 
L 1259 2759 
L 3109 2759 
L 3109 2228 
L 1259 2228 
L 1259 0 
L 628 0 
L 628 4666 
z
" transform="scale(0.015625)"/>
       <path id="DejaVuSans-4e" d="M 628 4666 
L 1478 4666 
L 3547 763 
L 3547 4666 
L 4159 4666 
L 4159 0 
L 3309 0 
L 1241 3903 
L 1241 0 
L 628 0 
L 628 4666 
z
" transform="scale(0.015625)"/>
      </defs>
      <use xlink:href="#DejaVuSans-44"/>
      <use xlink:href="#DejaVuSans-46" x="77.001953"/>
      <use xlink:href="#DejaVuSans-46" x="134.521484"/>
      <use xlink:href="#DejaVuSans-20" x="192.041016"/>
      <use xlink:href="#DejaVuSans-49" x="223.828125"/>
      <use xlink:href="#DejaVuSans-4e" x="253.320312"/>
     </g>
    </g>
   </g>
   <g id="line2d_36">
    <path d="M 141.12 219.360607 
L 221.953536 219.314523 
L 224.437248 200.589738 
L 225.404928 194.893547 
L 228.243456 182.36932 
L 229.598208 181.112461 
L 231.178752 180.248791 
L 236.565504 179.798473 
L 243.661824 179.687573 
L 245.1456 179.643886 
L 248.403456 179.532986 
L 250.113024 179.465775 
L 252.177408 179.354875 
L 254.241792 179.028899 
L 254.757888 178.497926 
L 255.499776 178.161868 
L 256.370688 178.182031 
L 257.531904 178.413912 
L 259.98336 178.813821 
L 262.370304 178.951605 
L 263.886336 179.002014 
L 264.144384 184.184036 
L 264.434688 187.709961 
L 265.176576 192.40705 
L 267.144192 209.551746 
L 268.402176 215.988946 
L 269.079552 217.30159 
L 270.46656 219.003659 
L 273.272832 219.382572 
L 279.8208 219.360688 
L 283.143168 219.452432 
L 284.562432 220.808764 
L 286.465536 221.77557 
L 287.72352 222.019112 
L 289.626624 222.142512 
L 291.303936 222.305602 
L 292.07808 222.69842 
L 294.239232 223.793568 
L 296.045568 224.782252 
L 297.626112 225.753125 
L 298.432512 225.930564 
L 298.980864 225.835459 
L 299.561472 225.482934 
L 300.335616 224.625649 
L 300.658176 224.409563 
L 300.819456 224.458964 
L 301.077504 224.770826 
L 302.012928 226.225287 
L 302.367744 226.688375 
L 302.625792 227.349066 
L 303.109632 228.572991 
L 303.69024 229.405408 
L 304.109568 230.587662 
L 304.593408 231.416718 
L 304.915968 231.812595 
L 305.367552 232.914195 
L 305.78688 233.569845 
L 306.044928 233.945222 
L 306.464256 234.661027 
L 306.883584 235.589556 
L 307.302912 236.181355 
L 307.56096 236.612854 
L 307.819008 236.99092 
L 308.883456 238.673229 
L 309.141504 238.570059 
L 310.076928 237.389822 
L 310.560768 236.488177 
L 311.625216 235.318693 
L 312.592896 234.02722 
L 313.012224 233.756693 
L 314.270208 232.469253 
L 314.528256 232.037418 
L 314.560512 232.069008 
L 314.625024 231.983985 
L 314.915328 231.745383 
L 315.044352 231.811923 
L 315.076608 231.775629 
L 315.689472 231.346482 
L 316.366848 230.787953 
L 317.044224 229.97906 
L 317.334528 229.50589 
L 317.657088 229.311648 
L 317.818368 229.354999 
L 319.01184 228.525271 
L 320.011776 227.524825 
L 320.237568 227.214307 
L 320.366592 227.130964 
L 320.592384 226.951845 
L 320.753664 226.885306 
L 322.689024 225.549473 
L 323.301888 224.897184 
L 323.495424 224.75167 
L 326.785536 222.35759 
L 329.269248 220.103679 
L 331.462656 217.003708 
L 332.107776 216.124781 
L 335.494656 211.865172 
L 337.300992 210.063563 
L 338.171904 209.699275 
L 338.881536 209.645506 
L 339.429888 209.723472 
L 339.97824 209.89587 
L 340.94592 210.547823 
L 341.881344 211.482066 
L 343.36512 213.34719 
L 345.042432 215.433105 
L 346.10688 216.455697 
L 347.268096 217.220903 
L 347.622912 217.30028 
L 347.848704 216.970068 
L 348.622848 211.948515 
L 353.299968 183.891665 
L 354.0096 181.307375 
L 354.816 179.284303 
L 355.686912 177.718271 
L 356.493312 176.515181 
L 361.557504 169.32353 
L 363.750912 166.406542 
L 365.589504 164.101181 
L 366.524928 162.968664 
L 370.1376 158.260485 
L 373.3632 154.389091 
L 373.52448 154.426058 
L 375.072768 155.252762 
L 376.10496 160.488553 
L 376.459776 160.959035 
L 376.75008 160.99264 
L 377.07264 160.791005 
L 377.524224 160.276836 
L 378.975744 158.485644 
L 379.524096 158.11934 
L 380.265984 157.857215 
L 380.814336 157.793364 
L 382.201344 157.900902 
L 386.007552 158.8049 
L 387.104256 159.033419 
L 391.104 159.974383 
L 392.039424 160.246591 
L 393.394176 160.784284 
L 395.265024 161.634512 
L 396.168192 162.031061 
L 406.457856 166.201547 
L 407.264256 166.480475 
L 415.45728 168.926981 
L 415.94112 168.335518 
L 416.328192 168.207816 
L 416.876544 168.318715 
L 418.19904 169.128616 
L 419.231232 169.750324 
L 422.747136 171.101279 
L 423.456768 171.282751 
L 424.295424 171.517992 
L 425.198592 171.719627 
L 426.714624 172.085931 
L 427.295232 172.190109 
L 428.52096 172.458955 
L 429.585408 172.680754 
L 433.810944 173.453689 
L 434.48832 173.564588 
L 436.197888 173.853598 
L 438.262272 174.172854 
L 440.77824 174.542518 
L 441.42336 174.633254 
L 442.22976 174.740793 
L 443.68128 174.935706 
L 444.584448 175.046606 
L 445.842432 175.197832 
L 446.681088 175.305371 
L 447.197184 175.352419 
L 455.77728 176.33707 
L 456.196608 176.935254 
L 456.58368 177.217543 
L 456.970752 177.365409 
L 457.809408 177.435982 
L 458.615808 177.247789 
L 459.32544 177.002466 
L 462.71232 176.760504 
L 464.776704 176.871403 
L 465.550848 176.925173 
L 467.38944 177.036072 
L 469.905408 177.187298 
L 470.647296 177.220904 
L 472.453632 177.331803 
L 474.453504 177.432621 
L 475.195392 177.459506 
L 476.034048 177.523357 
L 477.840384 177.60065 
L 480.420864 177.704828 
L 480.872448 177.735074 
L 483.581952 177.845973 
L 485.323776 177.916545 
L 488.388096 178.027444 
L 489.871872 178.071132 
L 490.61376 178.104738 
L 492.097536 178.148425 
L 495.677952 178.259325 
L 496.065024 178.198834 
L 496.935936 177.442703 
L 497.452032 177.338525 
L 498.064896 177.375491 
L 499.935744 177.849333 
L 501.677568 178.141704 
L 502.290432 178.222358 
L 503.83872 178.333258 
L 505.806336 178.427354 
L 510.28992 178.538253 
L 511.676928 178.571859 
L 520.45056 178.682758 
L 521.708544 178.702922 
L 536.41728 178.793658 
L 536.997888 179.395202 
L 537.38496 179.576674 
L 538.126848 179.697655 
L 539.997696 179.586756 
L 541.610496 179.307827 
L 542.997504 179.129716 
L 546.771456 178.847427 
L 576.640512 178.753331 
L 577.737216 177.862776 
L 578.1888 177.778761 
L 580.382208 178.11482 
L 581.349888 178.306373 
L 585.414144 178.618907 
L 616.992768 178.719725 
L 617.928192 179.546429 
L 618.863616 179.72454 
L 620.153856 179.754785 
L 622.927872 179.287664 
L 628.862976 178.780215 
L 657.345024 178.672677 
L 657.86112 178.111459 
L 658.409472 177.839252 
L 660.344832 177.94679 
L 663.602688 178.514729 
L 665.76384 178.628989 
L 697.632768 178.719725 
L 698.568192 179.546429 
L 699.503616 179.72454 
L 700.793856 179.754785 
L 703.567872 179.287664 
L 709.502976 178.780215 
L 737.985024 178.672677 
L 738.50112 178.111459 
L 739.049472 177.839252 
L 740.984832 177.94679 
L 744.242688 178.514729 
L 746.40384 178.628989 
L 778.272768 178.719725 
L 779.208192 179.546429 
L 780.143616 179.72454 
L 781.433856 179.754785 
L 784.207872 179.287664 
L 790.11072 178.783576 
L 818.625024 178.672677 
L 819.14112 178.111459 
L 819.689472 177.839252 
L 821.624832 177.94679 
L 824.882688 178.514729 
L 827.04384 178.628989 
L 858.912768 178.719725 
L 859.848192 179.546429 
L 860.783616 179.72454 
L 862.073856 179.754785 
L 864.847872 179.287664 
L 870.782976 178.780215 
L 899.265024 178.672677 
L 899.78112 178.111459 
L 900.329472 177.839252 
L 902.264832 177.94679 
L 905.522688 178.514729 
L 907.68384 178.628989 
L 939.552768 178.719725 
L 940.617216 179.576674 
L 941.55264 179.761506 
L 943.488 179.650607 
L 946.455552 179.143159 
L 947.52 178.97849 
L 947.52 178.97849 
" clip-path="url(#p3d8030d337)" style="fill: none; stroke: #008000; stroke-width: 2; stroke-linecap: square"/>
   </g>
   <g id="patch_10">
    <path d="M 100.8 242.888276 
L 100.8 150.157241 
" style="fill: none; stroke: #bcbcbc; stroke-width: 0.8; stroke-linejoin: miter; stroke-linecap: square"/>
   </g>
   <g id="patch_11">
    <path d="M 987.84 242.888276 
L 987.84 150.157241 
" style="fill: none; stroke: #bcbcbc; stroke-width: 0.8; stroke-linejoin: miter; stroke-linecap: square"/>
   </g>
   <g id="patch_12">
    <path d="M 100.8 242.888276 
L 987.84 242.888276 
" style="fill: none; stroke: #bcbcbc; stroke-width: 0.8; stroke-linejoin: miter; stroke-linecap: square"/>
   </g>
   <g id="patch_13">
    <path d="M 100.8 150.157241 
L 987.84 150.157241 
" style="fill: none; stroke: #bcbcbc; stroke-width: 0.8; stroke-linejoin: miter; stroke-linecap: square"/>
   </g>
  </g>
  <g id="axes_3">
   <g id="patch_14">
    <path d="M 100.8 354.165517 
L 987.84 354.165517 
L 987.84 261.434483 
L 100.8 261.434483 
z
" style="fill: #eeeeee"/>
   </g>
   <g id="matplotlib.axis_5">
    <g id="xtick_13">
     <g id="line2d_37">
      <path d="M 141.12 354.165517 
L 141.12 261.434483 
" clip-path="url(#p1a3ca5a6a2)" style="fill: none; stroke-dasharray: 1.85,0.8; stroke-dashoffset: 0; stroke: #b2b2b2; stroke-width: 0.5"/>
     </g>
     <g id="line2d_38">
      <g>
       <use xlink:href="#mda399ed074" x="141.12" y="354.165517" style="stroke: #000000; stroke-width: 0.8"/>
      </g>
     </g>
    </g>
    <g id="xtick_14">
     <g id="line2d_39">
      <path d="M 302.4 354.165517 
L 302.4 261.434483 
" clip-path="url(#p1a3ca5a6a2)" style="fill: none; stroke-dasharray: 1.85,0.8; stroke-dashoffset: 0; stroke: #b2b2b2; stroke-width: 0.5"/>
     </g>
     <g id="line2d_40">
      <g>
       <use xlink:href="#mda399ed074" x="302.4" y="354.165517" style="stroke: #000000; stroke-width: 0.8"/>
      </g>
     </g>
    </g>
    <g id="xtick_15">
     <g id="line2d_41">
      <path d="M 463.68 354.165517 
L 463.68 261.434483 
" clip-path="url(#p1a3ca5a6a2)" style="fill: none; stroke-dasharray: 1.85,0.8; stroke-dashoffset: 0; stroke: #b2b2b2; stroke-width: 0.5"/>
     </g>
     <g id="line2d_42">
      <g>
       <use xlink:href="#mda399ed074" x="463.68" y="354.165517" style="stroke: #000000; stroke-width: 0.8"/>
      </g>
     </g>
    </g>
    <g id="xtick_16">
     <g id="line2d_43">
      <path d="M 624.96 354.165517 
L 624.96 261.434483 
" clip-path="url(#p1a3ca5a6a2)" style="fill: none; stroke-dasharray: 1.85,0.8; stroke-dashoffset: 0; stroke: #b2b2b2; stroke-width: 0.5"/>
     </g>
     <g id="line2d_44">
      <g>
       <use xlink:href="#mda399ed074" x="624.96" y="354.165517" style="stroke: #000000; stroke-width: 0.8"/>
      </g>
     </g>
    </g>
    <g id="xtick_17">
     <g id="line2d_45">
      <path d="M 786.24 354.165517 
L 786.24 261.434483 
" clip-path="url(#p1a3ca5a6a2)" style="fill: none; stroke-dasharray: 1.85,0.8; stroke-dashoffset: 0; stroke: #b2b2b2; stroke-width: 0.5"/>
     </g>
     <g id="line2d_46">
      <g>
       <use xlink:href="#mda399ed074" x="786.24" y="354.165517" style="stroke: #000000; stroke-width: 0.8"/>
      </g>
     </g>
    </g>
    <g id="xtick_18">
     <g id="line2d_47">
      <path d="M 947.52 354.165517 
L 947.52 261.434483 
" clip-path="url(#p1a3ca5a6a2)" style="fill: none; stroke-dasharray: 1.85,0.8; stroke-dashoffset: 0; stroke: #b2b2b2; stroke-width: 0.5"/>
     </g>
     <g id="line2d_48">
      <g>
       <use xlink:href="#mda399ed074" x="947.52" y="354.165517" style="stroke: #000000; stroke-width: 0.8"/>
      </g>
     </g>
    </g>
   </g>
   <g id="matplotlib.axis_6">
    <g id="ytick_6">
     <g id="line2d_49">
      <path d="M 100.8 344.750924 
L 987.84 344.750924 
" clip-path="url(#p1a3ca5a6a2)" style="fill: none; stroke-dasharray: 1.85,0.8; stroke-dashoffset: 0; stroke: #b2b2b2; stroke-width: 0.5"/>
     </g>
     <g id="line2d_50">
      <g>
       <use xlink:href="#mb51c2fedf9" x="100.8" y="344.750924" style="stroke: #000000; stroke-width: 0.8"/>
      </g>
     </g>
     <g id="text_8">
      <!-- 0 V -->
      <g transform="translate(74.36625 350.069831) scale(0.14 -0.14)">
       <use xlink:href="#DejaVuSans-30"/>
       <use xlink:href="#DejaVuSans-20" x="63.623047"/>
       <use xlink:href="#DejaVuSans-56" x="95.410156"/>
      </g>
     </g>
    </g>
    <g id="ytick_7">
     <g id="line2d_51">
      <path d="M 100.8 303.706199 
L 987.84 303.706199 
" clip-path="url(#p1a3ca5a6a2)" style="fill: none; stroke-dasharray: 1.85,0.8; stroke-dashoffset: 0; stroke: #b2b2b2; stroke-width: 0.5"/>
     </g>
     <g id="line2d_52">
      <g>
       <use xlink:href="#mb51c2fedf9" x="100.8" y="303.706199" style="stroke: #000000; stroke-width: 0.8"/>
      </g>
     </g>
     <g id="text_9">
      <!-- 1 V -->
      <g transform="translate(74.36625 309.025105) scale(0.14 -0.14)">
       <use xlink:href="#DejaVuSans-31"/>
       <use xlink:href="#DejaVuSans-20" x="63.623047"/>
       <use xlink:href="#DejaVuSans-56" x="95.410156"/>
      </g>
     </g>
    </g>
    <g id="ytick_8">
     <g id="line2d_53">
      <path d="M 100.8 262.661474 
L 987.84 262.661474 
" clip-path="url(#p1a3ca5a6a2)" style="fill: none; stroke-dasharray: 1.85,0.8; stroke-dashoffset: 0; stroke: #b2b2b2; stroke-width: 0.5"/>
     </g>
     <g id="line2d_54">
      <g>
       <use xlink:href="#mb51c2fedf9" x="100.8" y="262.661474" style="stroke: #000000; stroke-width: 0.8"/>
      </g>
     </g>
     <g id="text_10">
      <!-- 2 V -->
      <g transform="translate(74.36625 267.98038) scale(0.14 -0.14)">
       <use xlink:href="#DejaVuSans-32"/>
       <use xlink:href="#DejaVuSans-20" x="63.623047"/>
       <use xlink:href="#DejaVuSans-56" x="95.410156"/>
      </g>
     </g>
    </g>
    <g id="text_11">
     <g id="patch_15">
      <path d="M 34.8768 342.395313 
L 34.8768 273.204688 
L 11.247425 273.204688 
L 11.247425 342.395313 
z
" style="fill: #ffff00; opacity: 0.2; stroke: #eeeeee; stroke-width: 0.5; stroke-linejoin: miter"/>
     </g>
     <!-- CLK BUF -->
     <g transform="translate(26.925238 337.355313) rotate(-90) scale(0.14 -0.14)">
      <defs>
       <path id="DejaVuSans-43" d="M 4122 4306 
L 4122 3641 
Q 3803 3938 3442 4084 
Q 3081 4231 2675 4231 
Q 1875 4231 1450 3742 
Q 1025 3253 1025 2328 
Q 1025 1406 1450 917 
Q 1875 428 2675 428 
Q 3081 428 3442 575 
Q 3803 722 4122 1019 
L 4122 359 
Q 3791 134 3420 21 
Q 3050 -91 2638 -91 
Q 1578 -91 968 557 
Q 359 1206 359 2328 
Q 359 3453 968 4101 
Q 1578 4750 2638 4750 
Q 3056 4750 3426 4639 
Q 3797 4528 4122 4306 
z
" transform="scale(0.015625)"/>
       <path id="DejaVuSans-4b" d="M 628 4666 
L 1259 4666 
L 1259 2694 
L 3353 4666 
L 4166 4666 
L 1850 2491 
L 4331 0 
L 3500 0 
L 1259 2247 
L 1259 0 
L 628 0 
L 628 4666 
z
" transform="scale(0.015625)"/>
      </defs>
      <use xlink:href="#DejaVuSans-43"/>
      <use xlink:href="#DejaVuSans-4c" x="69.824219"/>
      <use xlink:href="#DejaVuSans-4b" x="125.537109"/>
      <use xlink:href="#DejaVuSans-20" x="191.113281"/>
      <use xlink:href="#DejaVuSans-42" x="222.900391"/>
      <use xlink:href="#DejaVuSans-55" x="291.503906"/>
      <use xlink:href="#DejaVuSans-46" x="364.697266"/>
     </g>
    </g>
   </g>
   <g id="line2d_55">
    <path d="M 141.12 344.749839 
L 173.376 344.749839 
L 173.601792 295.497254 
L 213.696 295.497254 
L 213.760512 334.784855 
L 213.825024 344.732173 
L 213.889536 344.673108 
L 213.954048 344.837077 
L 214.01856 344.755372 
L 215.437824 344.745533 
L 223.824384 344.749753 
L 254.016 344.749811 
L 254.17728 295.345389 
L 254.241792 295.608075 
L 254.403072 295.489045 
L 254.854656 295.497254 
L 283.143168 295.60397 
L 284.788224 297.873744 
L 286.465536 300.636054 
L 293.36832 311.841674 
L 294.336 313.279471 
L 294.368256 311.393466 
L 294.529536 346.028524 
L 294.626304 346.021915 
L 297.980928 345.926035 
L 299.916288 345.866889 
L 300.367872 345.869886 
L 301.529088 345.993841 
L 302.625792 346.38159 
L 305.593344 348.069473 
L 306.238464 348.455334 
L 308.915712 349.929948 
L 309.754368 349.516217 
L 312.141312 348.664211 
L 316.947456 347.16653 
L 317.528064 347.000093 
L 321.689088 345.900587 
L 322.108416 345.818087 
L 322.334208 345.758162 
L 325.398528 345.143164 
L 330.656256 344.299802 
L 333.20448 344.196246 
L 333.333504 344.217302 
L 334.526976 344.208231 
L 334.656 344.214675 
L 334.688256 343.091404 
L 334.849536 317.685622 
L 335.526912 317.281742 
L 341.558784 313.879545 
L 346.622976 311.426301 
L 347.622912 310.884511 
L 349.074432 308.274477 
L 351.622656 302.971499 
L 354.686976 296.605462 
L 355.364352 295.279717 
L 357.622272 290.928976 
L 363.170304 281.271152 
L 364.17024 279.686826 
L 365.94432 276.965561 
L 373.395456 265.768559 
L 374.846976 265.68647 
L 374.976 265.72341 
L 375.13728 344.823139 
L 375.234048 344.739915 
L 375.266304 344.756694 
L 376.492032 344.988105 
L 378.52416 345.103609 
L 381.523968 345.124838 
L 415.296 345.068808 
L 415.425024 283.216672 
L 415.521792 283.442418 
L 415.586304 283.384956 
L 415.650816 283.421896 
L 416.392704 283.684582 
L 416.650752 283.758463 
L 417.521664 284.08682 
L 418.166784 284.279731 
L 420.650496 285.117043 
L 420.973056 285.223759 
L 422.39232 285.650624 
L 422.71488 285.757341 
L 423.68256 286.020027 
L 423.972864 286.126743 
L 424.940544 286.389429 
L 425.327616 286.496146 
L 426.295296 286.758832 
L 426.682368 286.865548 
L 427.55328 287.08719 
L 427.940352 287.193906 
L 428.714496 287.374503 
L 429.101568 287.481219 
L 429.875712 287.661816 
L 430.262784 287.768532 
L 430.907904 287.908084 
L 431.327232 288.014801 
L 431.972352 288.154353 
L 432.39168 288.261069 
L 433.0368 288.400621 
L 433.552896 288.507337 
L 434.198016 288.646889 
L 434.714112 288.753606 
L 435.359232 288.893158 
L 435.875328 288.999874 
L 436.520448 289.139426 
L 437.133312 289.246142 
L 437.778432 289.385694 
L 438.391296 289.492411 
L 438.939648 289.590918 
L 439.455744 289.697634 
L 440.004096 289.796142 
L 440.61696 289.898753 
L 440.971776 289.960321 
L 441.58464 290.067037 
L 442.132992 290.165544 
L 442.745856 290.268156 
L 443.100672 290.329723 
L 443.810304 290.432335 
L 444.16512 290.493902 
L 444.874752 290.596514 
L 445.229568 290.658081 
L 445.9392 290.760693 
L 446.294016 290.82226 
L 447.003648 290.924872 
L 447.358464 290.986439 
L 448.164864 291.089051 
L 448.51968 291.150618 
L 449.422848 291.253229 
L 449.777664 291.314797 
L 450.680832 291.417408 
L 451.035648 291.478975 
L 451.938816 291.581587 
L 452.196864 291.60211 
L 453.003264 291.704721 
L 453.35808 291.762184 
L 455.616 292.012557 
L 455.648256 297.643893 
L 455.712768 345.380058 
L 455.77728 344.810686 
L 455.809536 344.807225 
L 455.841792 344.918432 
L 455.906304 344.847141 
L 456.4224 344.843402 
L 495.936 344.776581 
L 496.065024 294.376733 
L 496.161792 294.55733 
L 497.06496 294.553225 
L 500.322816 294.659942 
L 500.580864 294.67636 
L 505.257984 294.783076 
L 505.516032 294.799494 
L 511.160832 294.90621 
L 511.41888 294.922628 
L 518.418432 295.029344 
L 518.67648 295.045762 
L 536.256 295.086807 
L 536.385024 345.064416 
L 536.546304 344.825712 
L 536.804352 344.73416 
L 537.159168 344.778839 
L 537.481728 344.761379 
L 576.576 344.761594 
L 576.705024 294.918523 
L 576.769536 295.090911 
L 576.834048 295.119643 
L 576.866304 295.095016 
L 577.05984 295.086807 
L 616.896 295.086807 
L 617.025024 345.064391 
L 617.186304 344.825671 
L 617.444352 344.734178 
L 617.799168 344.778828 
L 618.121728 344.761378 
L 657.216 344.761594 
L 657.37728 294.873374 
L 657.441792 295.33718 
L 657.53856 294.918523 
L 657.603072 295.070389 
L 658.086912 295.086807 
L 697.536 295.086807 
L 697.665024 345.064416 
L 697.826304 344.825659 
L 698.084352 344.734175 
L 698.439168 344.778847 
L 698.761728 344.761379 
L 737.856 344.761594 
L 738.01728 294.873374 
L 738.081792 295.33718 
L 738.17856 294.914419 
L 738.243072 295.070389 
L 738.726912 295.086807 
L 778.176 295.086807 
L 778.305024 345.064354 
L 778.466304 344.825671 
L 778.724352 344.734178 
L 779.079168 344.778828 
L 779.401728 344.761378 
L 818.496 344.761594 
L 818.65728 294.873374 
L 818.721792 295.33718 
L 818.81856 294.914419 
L 818.883072 295.070389 
L 819.366912 295.086807 
L 858.816 295.086807 
L 858.945024 345.064428 
L 859.106304 344.825659 
L 859.364352 344.734174 
L 859.719168 344.778847 
L 860.041728 344.761379 
L 899.136 344.761594 
L 899.29728 294.873374 
L 899.361792 295.33718 
L 899.45856 294.914419 
L 899.523072 295.070389 
L 900.006912 295.086807 
L 939.456 295.086807 
L 939.488256 302.487171 
L 939.61728 344.712778 
L 939.649536 344.832131 
L 939.714048 344.717938 
L 939.810816 344.734898 
L 940.004352 344.786156 
L 940.230144 344.76029 
L 945.9072 344.761596 
L 947.52 344.761584 
L 947.52 344.761584 
" clip-path="url(#p1a3ca5a6a2)" style="fill: none; stroke: #0000ff; stroke-width: 2; stroke-linecap: square"/>
   </g>
   <g id="patch_16">
    <path d="M 100.8 354.165517 
L 100.8 261.434483 
" style="fill: none; stroke: #bcbcbc; stroke-width: 0.8; stroke-linejoin: miter; stroke-linecap: square"/>
   </g>
   <g id="patch_17">
    <path d="M 987.84 354.165517 
L 987.84 261.434483 
" style="fill: none; stroke: #bcbcbc; stroke-width: 0.8; stroke-linejoin: miter; stroke-linecap: square"/>
   </g>
   <g id="patch_18">
    <path d="M 100.8 354.165517 
L 987.84 354.165517 
" style="fill: none; stroke: #bcbcbc; stroke-width: 0.8; stroke-linejoin: miter; stroke-linecap: square"/>
   </g>
   <g id="patch_19">
    <path d="M 100.8 261.434483 
L 987.84 261.434483 
" style="fill: none; stroke: #bcbcbc; stroke-width: 0.8; stroke-linejoin: miter; stroke-linecap: square"/>
   </g>
  </g>
  <g id="axes_4">
   <g id="patch_20">
    <path d="M 100.8 465.442759 
L 987.84 465.442759 
L 987.84 372.711724 
L 100.8 372.711724 
z
" style="fill: #eeeeee"/>
   </g>
   <g id="matplotlib.axis_7">
    <g id="xtick_19">
     <g id="line2d_56">
      <path d="M 141.12 465.442759 
L 141.12 372.711724 
" clip-path="url(#p20e33282e2)" style="fill: none; stroke-dasharray: 1.85,0.8; stroke-dashoffset: 0; stroke: #b2b2b2; stroke-width: 0.5"/>
     </g>
     <g id="line2d_57">
      <g>
       <use xlink:href="#mda399ed074" x="141.12" y="465.442759" style="stroke: #000000; stroke-width: 0.8"/>
      </g>
     </g>
    </g>
    <g id="xtick_20">
     <g id="line2d_58">
      <path d="M 302.4 465.442759 
L 302.4 372.711724 
" clip-path="url(#p20e33282e2)" style="fill: none; stroke-dasharray: 1.85,0.8; stroke-dashoffset: 0; stroke: #b2b2b2; stroke-width: 0.5"/>
     </g>
     <g id="line2d_59">
      <g>
       <use xlink:href="#mda399ed074" x="302.4" y="465.442759" style="stroke: #000000; stroke-width: 0.8"/>
      </g>
     </g>
    </g>
    <g id="xtick_21">
     <g id="line2d_60">
      <path d="M 463.68 465.442759 
L 463.68 372.711724 
" clip-path="url(#p20e33282e2)" style="fill: none; stroke-dasharray: 1.85,0.8; stroke-dashoffset: 0; stroke: #b2b2b2; stroke-width: 0.5"/>
     </g>
     <g id="line2d_61">
      <g>
       <use xlink:href="#mda399ed074" x="463.68" y="465.442759" style="stroke: #000000; stroke-width: 0.8"/>
      </g>
     </g>
    </g>
    <g id="xtick_22">
     <g id="line2d_62">
      <path d="M 624.96 465.442759 
L 624.96 372.711724 
" clip-path="url(#p20e33282e2)" style="fill: none; stroke-dasharray: 1.85,0.8; stroke-dashoffset: 0; stroke: #b2b2b2; stroke-width: 0.5"/>
     </g>
     <g id="line2d_63">
      <g>
       <use xlink:href="#mda399ed074" x="624.96" y="465.442759" style="stroke: #000000; stroke-width: 0.8"/>
      </g>
     </g>
    </g>
    <g id="xtick_23">
     <g id="line2d_64">
      <path d="M 786.24 465.442759 
L 786.24 372.711724 
" clip-path="url(#p20e33282e2)" style="fill: none; stroke-dasharray: 1.85,0.8; stroke-dashoffset: 0; stroke: #b2b2b2; stroke-width: 0.5"/>
     </g>
     <g id="line2d_65">
      <g>
       <use xlink:href="#mda399ed074" x="786.24" y="465.442759" style="stroke: #000000; stroke-width: 0.8"/>
      </g>
     </g>
    </g>
    <g id="xtick_24">
     <g id="line2d_66">
      <path d="M 947.52 465.442759 
L 947.52 372.711724 
" clip-path="url(#p20e33282e2)" style="fill: none; stroke-dasharray: 1.85,0.8; stroke-dashoffset: 0; stroke: #b2b2b2; stroke-width: 0.5"/>
     </g>
     <g id="line2d_67">
      <g>
       <use xlink:href="#mda399ed074" x="947.52" y="465.442759" style="stroke: #000000; stroke-width: 0.8"/>
      </g>
     </g>
    </g>
   </g>
   <g id="matplotlib.axis_8">
    <g id="ytick_9">
     <g id="line2d_68">
      <path d="M 100.8 437.893265 
L 987.84 437.893265 
" clip-path="url(#p20e33282e2)" style="fill: none; stroke-dasharray: 1.85,0.8; stroke-dashoffset: 0; stroke: #b2b2b2; stroke-width: 0.5"/>
     </g>
     <g id="line2d_69">
      <g>
       <use xlink:href="#mb51c2fedf9" x="100.8" y="437.893265" style="stroke: #000000; stroke-width: 0.8"/>
      </g>
     </g>
     <g id="text_12">
      <!-- 0 V -->
      <g transform="translate(74.36625 443.212171) scale(0.14 -0.14)">
       <use xlink:href="#DejaVuSans-30"/>
       <use xlink:href="#DejaVuSans-20" x="63.623047"/>
       <use xlink:href="#DejaVuSans-56" x="95.410156"/>
      </g>
     </g>
    </g>
    <g id="ytick_10">
     <g id="line2d_70">
      <path d="M 100.8 396.85773 
L 987.84 396.85773 
" clip-path="url(#p20e33282e2)" style="fill: none; stroke-dasharray: 1.85,0.8; stroke-dashoffset: 0; stroke: #b2b2b2; stroke-width: 0.5"/>
     </g>
     <g id="line2d_71">
      <g>
       <use xlink:href="#mb51c2fedf9" x="100.8" y="396.85773" style="stroke: #000000; stroke-width: 0.8"/>
      </g>
     </g>
     <g id="text_13">
      <!-- 1 V -->
      <g transform="translate(74.36625 402.176637) scale(0.14 -0.14)">
       <use xlink:href="#DejaVuSans-31"/>
       <use xlink:href="#DejaVuSans-20" x="63.623047"/>
       <use xlink:href="#DejaVuSans-56" x="95.410156"/>
      </g>
     </g>
    </g>
    <g id="text_14">
     <g id="patch_21">
      <path d="M 34.8768 454.693023 
L 34.8768 383.46146 
L 11.247425 383.46146 
L 11.247425 454.693023 
z
" style="fill: #ffff00; opacity: 0.2; stroke: #eeeeee; stroke-width: 0.5; stroke-linejoin: miter"/>
     </g>
     <!-- DFF OUT -->
     <g transform="translate(26.925238 449.653023) rotate(-90) scale(0.14 -0.14)">
      <defs>
       <path id="DejaVuSans-4f" d="M 2522 4238 
Q 1834 4238 1429 3725 
Q 1025 3213 1025 2328 
Q 1025 1447 1429 934 
Q 1834 422 2522 422 
Q 3209 422 3611 934 
Q 4013 1447 4013 2328 
Q 4013 3213 3611 3725 
Q 3209 4238 2522 4238 
z
M 2522 4750 
Q 3503 4750 4090 4092 
Q 4678 3434 4678 2328 
Q 4678 1225 4090 567 
Q 3503 -91 2522 -91 
Q 1538 -91 948 565 
Q 359 1222 359 2328 
Q 359 3434 948 4092 
Q 1538 4750 2522 4750 
z
" transform="scale(0.015625)"/>
       <path id="DejaVuSans-54" d="M -19 4666 
L 3928 4666 
L 3928 4134 
L 2272 4134 
L 2272 0 
L 1638 0 
L 1638 4134 
L -19 4134 
L -19 4666 
z
" transform="scale(0.015625)"/>
      </defs>
      <use xlink:href="#DejaVuSans-44"/>
      <use xlink:href="#DejaVuSans-46" x="77.001953"/>
      <use xlink:href="#DejaVuSans-46" x="134.521484"/>
      <use xlink:href="#DejaVuSans-20" x="192.041016"/>
      <use xlink:href="#DejaVuSans-4f" x="223.828125"/>
      <use xlink:href="#DejaVuSans-55" x="302.539062"/>
      <use xlink:href="#DejaVuSans-54" x="375.732422"/>
     </g>
    </g>
   </g>
   <g id="line2d_72">
    <path d="M 141.12 406.930723 
L 173.408256 406.980786 
L 173.440512 408.679658 
L 173.601792 437.89577 
L 174.117888 437.891004 
L 184.052736 437.892181 
L 254.048256 437.89389 
L 254.080512 438.057933 
L 254.112768 437.786585 
L 254.306304 433.780273 
L 254.596608 432.977208 
L 254.693376 432.404352 
L 255.14496 425.214926 
L 255.370752 408.317314 
L 255.596544 389.048668 
L 255.757824 388.712177 
L 255.983616 388.64652 
L 256.886784 388.650623 
L 283.143168 388.753212 
L 284.755968 390.977338 
L 286.465536 393.796479 
L 291.013632 401.527164 
L 291.59424 403.006085 
L 292.23936 405.26427 
L 292.594176 406.631574 
L 292.916736 408.239757 
L 293.303808 410.078969 
L 293.5296 411.098702 
L 294.045696 413.475481 
L 299.142144 437.135134 
L 299.1744 436.696792 
L 299.238912 436.990976 
L 299.33568 437.439166 
L 299.49696 438.720706 
L 299.81952 439.832522 
L 299.851776 439.559636 
L 299.916288 439.863135 
L 300.013056 440.193307 
L 300.174336 441.329827 
L 300.496896 442.397325 
L 300.593664 442.595117 
L 300.62592 442.40225 
L 300.690432 442.558185 
L 301.722624 445.548034 
L 301.948416 445.76306 
L 302.367744 446.562432 
L 302.4 446.641631 
L 302.56128 447.429923 
L 306.173952 455.878319 
L 306.206208 455.714588 
L 306.27072 455.875036 
L 306.432 456.44461 
L 307.044864 457.692911 
L 307.07712 457.674445 
L 307.173888 457.834073 
L 307.335168 458.347427 
L 307.367424 458.285053 
L 307.39968 458.333475 
L 308.302848 460.320826 
L 308.818944 461.149744 
L 308.980224 461.185035 
L 309.17376 460.984371 
L 309.883392 459.641278 
L 310.270464 458.81195 
L 310.30272 458.942032 
L 310.334976 458.701564 
L 310.367232 458.791842 
L 310.722048 457.998625 
L 310.754304 458.075772 
L 310.851072 457.92271 
L 311.10912 457.53041 
L 311.173632 457.450391 
L 311.399424 456.969044 
L 311.980032 456.081035 
L 312.754176 455.144604 
L 312.786432 455.245962 
L 312.947712 455.092489 
L 313.238016 454.739583 
L 313.334784 454.582417 
L 313.625088 454.0666 
L 313.657344 454.19299 
L 313.6896 453.974681 
L 314.01216 453.600437 
L 314.076672 453.761706 
L 314.205696 453.316061 
L 314.528256 452.984904 
L 314.560512 453.096931 
L 314.721792 452.764133 
L 314.81856 452.659082 
L 314.850816 452.86549 
L 314.915328 452.568393 
L 314.947584 452.778495 
L 315.173376 452.397685 
L 315.205632 452.423538 
L 315.237888 452.353777 
L 315.46368 452.144086 
L 315.721728 451.965581 
L 316.076544 451.407908 
L 316.334592 450.993449 
L 316.366848 451.207655 
L 316.43136 450.912199 
L 316.528128 450.748877 
L 316.560384 451.000425 
L 316.624896 450.772678 
L 316.689408 450.732874 
L 316.786176 450.755853 
L 316.818432 450.358219 
L 316.850688 450.362323 
L 316.882944 450.664344 
L 316.947456 450.270813 
L 316.979712 450.55519 
L 317.108736 450.083281 
L 317.624832 449.624093 
L 317.657088 449.847737 
L 317.753856 449.748841 
L 317.979648 449.384856 
L 318.011904 449.407015 
L 318.140928 449.343 
L 318.495744 449.01923 
L 318.818304 448.613388 
L 318.979584 448.171436 
L 319.076352 448.013449 
L 319.108608 448.298235 
L 319.17312 447.890342 
L 319.237632 447.835354 
L 319.269888 448.148456 
L 319.3344 447.802936 
L 319.431168 447.591193 
L 319.463424 447.878031 
L 319.49568 447.727841 
L 319.527936 447.450852 
L 319.592448 447.823454 
L 319.624704 447.515277 
L 319.65696 447.647412 
L 319.689216 447.547695 
L 319.915008 447.077428 
L 319.947264 447.075376 
L 319.97952 447.409816 
L 320.011776 446.974839 
L 320.044032 446.984688 
L 320.076288 447.104922 
L 320.108544 446.915748 
L 320.1408 446.909593 
L 320.173056 447.131595 
L 320.205312 446.826291 
L 320.237568 446.829984 
L 320.269824 446.985919 
L 320.30208 446.76761 
L 320.334336 446.762686 
L 320.366592 446.898103 
L 320.431104 446.695387 
L 320.527872 446.641631 
L 320.560128 446.824649 
L 320.62464 446.692515 
L 321.172992 446.260821 
L 321.721344 445.615742 
L 321.882624 445.164352 
L 321.91488 445.153272 
L 322.07616 444.895979 
L 322.108416 445.264068 
L 322.172928 444.777386 
L 322.366464 444.590675 
L 322.39872 444.98913 
L 322.463232 444.485624 
L 322.495488 444.893927 
L 322.624512 444.297681 
L 322.656768 444.313685 
L 322.753536 444.220124 
L 322.785792 444.525839 
L 322.850304 444.152005 
L 322.979328 444.27388 
L 323.011584 443.98417 
L 323.108352 444.090862 
L 323.172864 444.26239 
L 323.301888 443.791713 
L 323.334144 443.808948 
L 323.398656 443.770785 
L 323.463168 444.01987 
L 323.624448 443.701435 
L 324.043776 443.524572 
L 324.850176 442.762952 
L 325.204992 442.201586 
L 325.334016 441.746256 
L 325.753344 441.32002 
L 325.7856 441.79993 
L 325.882368 441.736489 
L 326.011392 441.067692 
L 326.043648 441.381737 
L 326.10816 440.999327 
L 326.237184 440.951561 
L 326.26944 441.334833 
L 326.333952 441.062522 
L 326.366208 441.080249 
L 326.398464 440.81081 
L 326.462976 441.096212 
L 326.495232 440.914219 
L 326.527488 440.958168 
L 326.592 440.862555 
L 326.75328 440.784013 
L 326.946816 440.723773 
L 328.2048 439.435052 
L 328.301568 438.950423 
L 328.398336 439.005903 
L 328.430592 439.074924 
L 328.462848 439.042999 
L 328.52736 438.288991 
L 328.559616 438.30875 
L 328.591872 438.866956 
L 328.656384 438.740444 
L 328.817664 437.928628 
L 328.84992 438.068216 
L 328.978944 438.09912 
L 329.107968 437.919702 
L 329.236992 437.766806 
L 330.269184 435.882893 
L 330.398208 435.403598 
L 330.430464 435.577671 
L 330.46272 435.129399 
L 330.559488 435.278481 
L 331.559424 433.417519 
L 331.656192 432.49422 
L 331.688448 433.163509 
L 331.785216 432.975567 
L 331.91424 432.36783 
L 331.946496 432.63292 
L 332.011008 432.442105 
L 332.365824 431.771174 
L 332.88192 430.733385 
L 332.914176 430.765393 
L 333.20448 429.642661 
L 333.236736 430.086665 
L 333.301248 429.754688 
L 333.36576 429.876563 
L 333.430272 429.756739 
L 335.78496 425.387276 
L 335.849472 425.32285 
L 335.978496 425.056119 
L 336.236544 424.83822 
L 336.978432 423.488561 
L 337.139712 422.688368 
L 337.171968 422.594807 
L 337.204224 422.843072 
L 337.268736 422.555413 
L 337.365504 422.258316 
L 337.39776 422.382243 
L 337.784832 421.358817 
L 338.688 419.002967 
L 338.720256 419.064931 
L 338.84928 418.681659 
L 338.881536 417.983644 
L 338.978304 418.100185 
L 339.01056 418.358299 
L 339.075072 418.23314 
L 339.204096 418.1285 
L 340.429824 415.858004 
L 340.46208 415.178455 
L 340.558848 415.239598 
L 340.752384 415.295406 
L 340.94592 414.990102 
L 341.139456 414.522297 
L 341.526528 414.072958 
L 341.816832 413.62526 
L 341.849088 413.69461 
L 342.139392 415.69181 
L 342.23616 421.27018 
L 342.429696 437.375602 
L 342.494208 437.192583 
L 342.752256 437.259841 
L 343.752192 437.346836 
L 347.526144 437.463992 
L 347.816448 437.176908 
L 348.52608 436.650586 
L 349.33248 436.332355 
L 350.493696 436.136493 
L 352.364544 436.087332 
L 357.55776 436.270597 
L 366.944256 436.605365 
L 368.976384 436.521817 
L 373.298688 436.641271 
L 373.621248 436.95507 
L 374.298624 437.499628 
L 375.008256 437.820107 
L 375.040512 437.774488 
L 375.072768 437.862969 
L 375.524352 437.981266 
L 377.169408 438.203112 
L 380.265984 438.276783 
L 394.619904 438.354833 
L 399.00672 438.350155 
L 415.328256 438.22029 
L 415.360512 438.440064 
L 415.683072 430.43875 
L 415.876608 428.954495 
L 416.005632 426.76648 
L 416.166912 418.048891 
L 416.392704 389.586234 
L 416.58624 376.963703 
L 416.74752 376.9596 
L 419.392512 377.862381 
L 419.715072 377.969074 
L 421.456896 378.51895 
L 421.843968 378.625642 
L 423.36 379.093447 
L 423.779328 379.20014 
L 425.069568 379.58177 
L 425.843712 379.786948 
L 426.779136 380.037265 
L 427.166208 380.143957 
L 428.03712 380.365549 
L 428.424192 380.472241 
L 429.198336 380.652798 
L 429.585408 380.75949 
L 430.359552 380.940046 
L 430.843392 381.046739 
L 431.617536 381.227295 
L 432.101376 381.333988 
L 432.87552 381.514544 
L 433.35936 381.621236 
L 434.00448 381.760757 
L 434.520576 381.86745 
L 435.165696 382.00697 
L 435.681792 382.113663 
L 436.326912 382.253184 
L 436.843008 382.359876 
L 437.39136 382.458361 
L 437.907456 382.565054 
L 438.455808 382.663539 
L 439.068672 382.770231 
L 439.617024 382.868717 
L 440.13312 382.975409 
L 440.681472 383.073894 
L 441.294336 383.180587 
L 441.842688 383.279072 
L 442.55232 383.381661 
L 442.907136 383.443214 
L 443.52 383.545803 
L 443.874816 383.607356 
L 444.584448 383.709945 
L 444.939264 383.771498 
L 445.648896 383.878191 
L 446.10048 383.93564 
L 446.713344 384.038229 
L 447.06816 384.099783 
L 447.87456 384.202371 
L 448.229376 384.263925 
L 449.132544 384.366514 
L 449.48736 384.428067 
L 450.29376 384.530656 
L 450.551808 384.551174 
L 451.26144 384.653762 
L 451.519488 384.67428 
L 452.325888 384.776869 
L 452.680704 384.838422 
L 453.68064 384.941011 
L 454.035456 385.002564 
L 455.035392 385.105153 
L 455.29344 385.125671 
L 455.712768 385.133878 
L 455.745024 385.248778 
L 455.841792 385.203639 
L 456.970752 385.310331 
L 457.2288 385.330849 
L 458.131968 385.433438 
L 458.390016 385.453955 
L 459.389952 385.556544 
L 459.648 385.577062 
L 460.647936 385.679651 
L 460.905984 385.700168 
L 462.002688 385.802757 
L 462.260736 385.823275 
L 463.35744 385.925864 
L 463.615488 385.946382 
L 464.80896 386.048971 
L 465.067008 386.069488 
L 466.357248 386.172077 
L 466.615296 386.192595 
L 467.905536 386.295184 
L 468.163584 386.315702 
L 469.64736 386.41829 
L 469.905408 386.434705 
L 471.776256 386.561915 
L 473.324544 386.664504 
L 473.647104 386.685021 
L 474.195456 386.726057 
L 475.93728 386.828646 
L 476.195328 386.849163 
L 478.162944 386.951752 
L 478.420992 386.97227 
L 480.485376 387.074859 
L 480.743424 387.095377 
L 483.098112 387.197966 
L 483.420672 387.21438 
L 485.807616 387.321072 
L 486.130176 387.337486 
L 488.904192 387.444179 
L 489.16224 387.460593 
L 492.291072 387.567285 
L 492.54912 387.5837 
L 495.968256 387.686288 
L 496.000512 387.879155 
L 496.065024 387.669874 
L 496.226304 387.702703 
L 500.322816 387.813499 
L 500.580864 387.829913 
L 505.257984 387.936605 
L 505.580544 387.953019 
L 511.160832 388.059712 
L 511.515648 388.08023 
L 518.418432 388.182818 
L 518.773248 388.203336 
L 576.608256 388.236165 
L 576.640512 388.441342 
L 576.705024 388.21975 
L 577.027584 388.232061 
L 657.248256 388.236165 
L 657.280512 388.445446 
L 657.345024 388.236165 
L 657.53856 388.215647 
L 658.603008 388.240268 
L 737.888256 388.236165 
L 737.920512 388.445446 
L 737.985024 388.236165 
L 738.17856 388.215647 
L 739.243008 388.240268 
L 818.528256 388.236165 
L 818.560512 388.445446 
L 818.625024 388.236165 
L 818.81856 388.215647 
L 819.883008 388.240268 
L 899.168256 388.236165 
L 899.200512 388.445446 
L 899.265024 388.236165 
L 899.45856 388.215647 
L 900.523008 388.240268 
L 947.52 388.240268 
L 947.52 388.240268 
" clip-path="url(#p20e33282e2)" style="fill: none; stroke: #ff00ff; stroke-width: 2; stroke-linecap: square"/>
   </g>
   <g id="patch_22">
    <path d="M 100.8 465.442759 
L 100.8 372.711724 
" style="fill: none; stroke: #bcbcbc; stroke-width: 0.8; stroke-linejoin: miter; stroke-linecap: square"/>
   </g>
   <g id="patch_23">
    <path d="M 987.84 465.442759 
L 987.84 372.711724 
" style="fill: none; stroke: #bcbcbc; stroke-width: 0.8; stroke-linejoin: miter; stroke-linecap: square"/>
   </g>
   <g id="patch_24">
    <path d="M 100.8 465.442759 
L 987.84 465.442759 
" style="fill: none; stroke: #bcbcbc; stroke-width: 0.8; stroke-linejoin: miter; stroke-linecap: square"/>
   </g>
   <g id="patch_25">
    <path d="M 100.8 372.711724 
L 987.84 372.711724 
" style="fill: none; stroke: #bcbcbc; stroke-width: 0.8; stroke-linejoin: miter; stroke-linecap: square"/>
   </g>
  </g>
  <g id="axes_5">
   <g id="patch_26">
    <path d="M 100.8 576.72 
L 987.84 576.72 
L 987.84 483.988966 
L 100.8 483.988966 
z
" style="fill: #eeeeee"/>
   </g>
   <g id="matplotlib.axis_9">
    <g id="xtick_25">
     <g id="line2d_73">
      <path d="M 141.12 576.72 
L 141.12 483.988966 
" clip-path="url(#p9f59b0403c)" style="fill: none; stroke-dasharray: 1.85,0.8; stroke-dashoffset: 0; stroke: #b2b2b2; stroke-width: 0.5"/>
     </g>
     <g id="line2d_74">
      <g>
       <use xlink:href="#mda399ed074" x="141.12" y="576.72" style="stroke: #000000; stroke-width: 0.8"/>
      </g>
     </g>
     <g id="text_15">
      <!-- 0 s -->
      <g transform="translate(130.795 590.857813) scale(0.14 -0.14)">
       <defs>
        <path id="DejaVuSans-73" d="M 2834 3397 
L 2834 2853 
Q 2591 2978 2328 3040 
Q 2066 3103 1784 3103 
Q 1356 3103 1142 2972 
Q 928 2841 928 2578 
Q 928 2378 1081 2264 
Q 1234 2150 1697 2047 
L 1894 2003 
Q 2506 1872 2764 1633 
Q 3022 1394 3022 966 
Q 3022 478 2636 193 
Q 2250 -91 1575 -91 
Q 1294 -91 989 -36 
Q 684 19 347 128 
L 347 722 
Q 666 556 975 473 
Q 1284 391 1588 391 
Q 1994 391 2212 530 
Q 2431 669 2431 922 
Q 2431 1156 2273 1281 
Q 2116 1406 1581 1522 
L 1381 1569 
Q 847 1681 609 1914 
Q 372 2147 372 2553 
Q 372 3047 722 3315 
Q 1072 3584 1716 3584 
Q 2034 3584 2315 3537 
Q 2597 3491 2834 3397 
z
" transform="scale(0.015625)"/>
       </defs>
       <use xlink:href="#DejaVuSans-30"/>
       <use xlink:href="#DejaVuSans-20" x="63.623047"/>
       <use xlink:href="#DejaVuSans-73" x="95.410156"/>
      </g>
     </g>
    </g>
    <g id="xtick_26">
     <g id="line2d_75">
      <path d="M 302.4 576.72 
L 302.4 483.988966 
" clip-path="url(#p9f59b0403c)" style="fill: none; stroke-dasharray: 1.85,0.8; stroke-dashoffset: 0; stroke: #b2b2b2; stroke-width: 0.5"/>
     </g>
     <g id="line2d_76">
      <g>
       <use xlink:href="#mda399ed074" x="302.4" y="576.72" style="stroke: #000000; stroke-width: 0.8"/>
      </g>
     </g>
     <g id="text_16">
      <!-- 50 ns -->
      <g transform="translate(283.185 590.857813) scale(0.14 -0.14)">
       <defs>
        <path id="DejaVuSans-35" d="M 691 4666 
L 3169 4666 
L 3169 4134 
L 1269 4134 
L 1269 2991 
Q 1406 3038 1543 3061 
Q 1681 3084 1819 3084 
Q 2600 3084 3056 2656 
Q 3513 2228 3513 1497 
Q 3513 744 3044 326 
Q 2575 -91 1722 -91 
Q 1428 -91 1123 -41 
Q 819 9 494 109 
L 494 744 
Q 775 591 1075 516 
Q 1375 441 1709 441 
Q 2250 441 2565 725 
Q 2881 1009 2881 1497 
Q 2881 1984 2565 2268 
Q 2250 2553 1709 2553 
Q 1456 2553 1204 2497 
Q 953 2441 691 2322 
L 691 4666 
z
" transform="scale(0.015625)"/>
        <path id="DejaVuSans-6e" d="M 3513 2113 
L 3513 0 
L 2938 0 
L 2938 2094 
Q 2938 2591 2744 2837 
Q 2550 3084 2163 3084 
Q 1697 3084 1428 2787 
Q 1159 2491 1159 1978 
L 1159 0 
L 581 0 
L 581 3500 
L 1159 3500 
L 1159 2956 
Q 1366 3272 1645 3428 
Q 1925 3584 2291 3584 
Q 2894 3584 3203 3211 
Q 3513 2838 3513 2113 
z
" transform="scale(0.015625)"/>
       </defs>
       <use xlink:href="#DejaVuSans-35"/>
       <use xlink:href="#DejaVuSans-30" x="63.623047"/>
       <use xlink:href="#DejaVuSans-20" x="127.246094"/>
       <use xlink:href="#DejaVuSans-6e" x="159.033203"/>
       <use xlink:href="#DejaVuSans-73" x="222.412109"/>
      </g>
     </g>
    </g>
    <g id="xtick_27">
     <g id="line2d_77">
      <path d="M 463.68 576.72 
L 463.68 483.988966 
" clip-path="url(#p9f59b0403c)" style="fill: none; stroke-dasharray: 1.85,0.8; stroke-dashoffset: 0; stroke: #b2b2b2; stroke-width: 0.5"/>
     </g>
     <g id="line2d_78">
      <g>
       <use xlink:href="#mda399ed074" x="463.68" y="576.72" style="stroke: #000000; stroke-width: 0.8"/>
      </g>
     </g>
     <g id="text_17">
      <!-- 100 ns -->
      <g transform="translate(440.01125 590.857813) scale(0.14 -0.14)">
       <use xlink:href="#DejaVuSans-31"/>
       <use xlink:href="#DejaVuSans-30" x="63.623047"/>
       <use xlink:href="#DejaVuSans-30" x="127.246094"/>
       <use xlink:href="#DejaVuSans-20" x="190.869141"/>
       <use xlink:href="#DejaVuSans-6e" x="222.65625"/>
       <use xlink:href="#DejaVuSans-73" x="286.035156"/>
      </g>
     </g>
    </g>
    <g id="xtick_28">
     <g id="line2d_79">
      <path d="M 624.96 576.72 
L 624.96 483.988966 
" clip-path="url(#p9f59b0403c)" style="fill: none; stroke-dasharray: 1.85,0.8; stroke-dashoffset: 0; stroke: #b2b2b2; stroke-width: 0.5"/>
     </g>
     <g id="line2d_80">
      <g>
       <use xlink:href="#mda399ed074" x="624.96" y="576.72" style="stroke: #000000; stroke-width: 0.8"/>
      </g>
     </g>
     <g id="text_18">
      <!-- 150 ns -->
      <g transform="translate(601.29125 590.857813) scale(0.14 -0.14)">
       <use xlink:href="#DejaVuSans-31"/>
       <use xlink:href="#DejaVuSans-35" x="63.623047"/>
       <use xlink:href="#DejaVuSans-30" x="127.246094"/>
       <use xlink:href="#DejaVuSans-20" x="190.869141"/>
       <use xlink:href="#DejaVuSans-6e" x="222.65625"/>
       <use xlink:href="#DejaVuSans-73" x="286.035156"/>
      </g>
     </g>
    </g>
    <g id="xtick_29">
     <g id="line2d_81">
      <path d="M 786.24 576.72 
L 786.24 483.988966 
" clip-path="url(#p9f59b0403c)" style="fill: none; stroke-dasharray: 1.85,0.8; stroke-dashoffset: 0; stroke: #b2b2b2; stroke-width: 0.5"/>
     </g>
     <g id="line2d_82">
      <g>
       <use xlink:href="#mda399ed074" x="786.24" y="576.72" style="stroke: #000000; stroke-width: 0.8"/>
      </g>
     </g>
     <g id="text_19">
      <!-- 200 ns -->
      <g transform="translate(762.57125 590.857813) scale(0.14 -0.14)">
       <use xlink:href="#DejaVuSans-32"/>
       <use xlink:href="#DejaVuSans-30" x="63.623047"/>
       <use xlink:href="#DejaVuSans-30" x="127.246094"/>
       <use xlink:href="#DejaVuSans-20" x="190.869141"/>
       <use xlink:href="#DejaVuSans-6e" x="222.65625"/>
       <use xlink:href="#DejaVuSans-73" x="286.035156"/>
      </g>
     </g>
    </g>
    <g id="xtick_30">
     <g id="line2d_83">
      <path d="M 947.52 576.72 
L 947.52 483.988966 
" clip-path="url(#p9f59b0403c)" style="fill: none; stroke-dasharray: 1.85,0.8; stroke-dashoffset: 0; stroke: #b2b2b2; stroke-width: 0.5"/>
     </g>
     <g id="line2d_84">
      <g>
       <use xlink:href="#mda399ed074" x="947.52" y="576.72" style="stroke: #000000; stroke-width: 0.8"/>
      </g>
     </g>
     <g id="text_20">
      <!-- 250 ns -->
      <g transform="translate(923.85125 590.857813) scale(0.14 -0.14)">
       <use xlink:href="#DejaVuSans-32"/>
       <use xlink:href="#DejaVuSans-35" x="63.623047"/>
       <use xlink:href="#DejaVuSans-30" x="127.246094"/>
       <use xlink:href="#DejaVuSans-20" x="190.869141"/>
       <use xlink:href="#DejaVuSans-6e" x="222.65625"/>
       <use xlink:href="#DejaVuSans-73" x="286.035156"/>
      </g>
     </g>
    </g>
    <g id="text_21">
     <!-- Time -->
     <g transform="translate(527.192969 608.407187) scale(0.14 -0.14)">
      <defs>
       <path id="DejaVuSans-69" d="M 603 3500 
L 1178 3500 
L 1178 0 
L 603 0 
L 603 3500 
z
M 603 4863 
L 1178 4863 
L 1178 4134 
L 603 4134 
L 603 4863 
z
" transform="scale(0.015625)"/>
       <path id="DejaVuSans-6d" d="M 3328 2828 
Q 3544 3216 3844 3400 
Q 4144 3584 4550 3584 
Q 5097 3584 5394 3201 
Q 5691 2819 5691 2113 
L 5691 0 
L 5113 0 
L 5113 2094 
Q 5113 2597 4934 2840 
Q 4756 3084 4391 3084 
Q 3944 3084 3684 2787 
Q 3425 2491 3425 1978 
L 3425 0 
L 2847 0 
L 2847 2094 
Q 2847 2600 2669 2842 
Q 2491 3084 2119 3084 
Q 1678 3084 1418 2786 
Q 1159 2488 1159 1978 
L 1159 0 
L 581 0 
L 581 3500 
L 1159 3500 
L 1159 2956 
Q 1356 3278 1631 3431 
Q 1906 3584 2284 3584 
Q 2666 3584 2933 3390 
Q 3200 3197 3328 2828 
z
" transform="scale(0.015625)"/>
       <path id="DejaVuSans-65" d="M 3597 1894 
L 3597 1613 
L 953 1613 
Q 991 1019 1311 708 
Q 1631 397 2203 397 
Q 2534 397 2845 478 
Q 3156 559 3463 722 
L 3463 178 
Q 3153 47 2828 -22 
Q 2503 -91 2169 -91 
Q 1331 -91 842 396 
Q 353 884 353 1716 
Q 353 2575 817 3079 
Q 1281 3584 2069 3584 
Q 2775 3584 3186 3129 
Q 3597 2675 3597 1894 
z
M 3022 2063 
Q 3016 2534 2758 2815 
Q 2500 3097 2075 3097 
Q 1594 3097 1305 2825 
Q 1016 2553 972 2059 
L 3022 2063 
z
" transform="scale(0.015625)"/>
      </defs>
      <use xlink:href="#DejaVuSans-54"/>
      <use xlink:href="#DejaVuSans-69" x="57.958984"/>
      <use xlink:href="#DejaVuSans-6d" x="85.742188"/>
      <use xlink:href="#DejaVuSans-65" x="183.154297"/>
     </g>
    </g>
   </g>
   <g id="matplotlib.axis_10">
    <g id="ytick_11">
     <g id="line2d_85">
      <path d="M 100.8 569.756463 
L 987.84 569.756463 
" clip-path="url(#p9f59b0403c)" style="fill: none; stroke-dasharray: 1.85,0.8; stroke-dashoffset: 0; stroke: #b2b2b2; stroke-width: 0.5"/>
     </g>
     <g id="line2d_86">
      <g>
       <use xlink:href="#mb51c2fedf9" x="100.8" y="569.756463" style="stroke: #000000; stroke-width: 0.8"/>
      </g>
     </g>
     <g id="text_22">
      <!-- 0 V -->
      <g transform="translate(74.36625 575.075369) scale(0.14 -0.14)">
       <use xlink:href="#DejaVuSans-30"/>
       <use xlink:href="#DejaVuSans-20" x="63.623047"/>
       <use xlink:href="#DejaVuSans-56" x="95.410156"/>
      </g>
     </g>
    </g>
    <g id="ytick_12">
     <g id="line2d_87">
      <path d="M 100.8 536.090491 
L 987.84 536.090491 
" clip-path="url(#p9f59b0403c)" style="fill: none; stroke-dasharray: 1.85,0.8; stroke-dashoffset: 0; stroke: #b2b2b2; stroke-width: 0.5"/>
     </g>
     <g id="line2d_88">
      <g>
       <use xlink:href="#mb51c2fedf9" x="100.8" y="536.090491" style="stroke: #000000; stroke-width: 0.8"/>
      </g>
     </g>
     <g id="text_23">
      <!-- 500 mV -->
      <g transform="translate(42.914375 541.409397) scale(0.14 -0.14)">
       <use xlink:href="#DejaVuSans-35"/>
       <use xlink:href="#DejaVuSans-30" x="63.623047"/>
       <use xlink:href="#DejaVuSans-30" x="127.246094"/>
       <use xlink:href="#DejaVuSans-20" x="190.869141"/>
       <use xlink:href="#DejaVuSans-6d" x="222.65625"/>
       <use xlink:href="#DejaVuSans-56" x="320.068359"/>
      </g>
     </g>
    </g>
    <g id="ytick_13">
     <g id="line2d_89">
      <path d="M 100.8 502.424519 
L 987.84 502.424519 
" clip-path="url(#p9f59b0403c)" style="fill: none; stroke-dasharray: 1.85,0.8; stroke-dashoffset: 0; stroke: #b2b2b2; stroke-width: 0.5"/>
     </g>
     <g id="line2d_90">
      <g>
       <use xlink:href="#mb51c2fedf9" x="100.8" y="502.424519" style="stroke: #000000; stroke-width: 0.8"/>
      </g>
     </g>
     <g id="text_24">
      <!-- 1 V -->
      <g transform="translate(74.36625 507.743425) scale(0.14 -0.14)">
       <use xlink:href="#DejaVuSans-31"/>
       <use xlink:href="#DejaVuSans-20" x="63.623047"/>
       <use xlink:href="#DejaVuSans-56" x="95.410156"/>
      </g>
     </g>
    </g>
    <g id="text_25">
     <g id="patch_27">
      <path d="M 34.8768 554.329483 
L 34.8768 506.379483 
L 11.247425 506.379483 
L 11.247425 554.329483 
z
" style="fill: #ffff00; opacity: 0.2; stroke: #eeeeee; stroke-width: 0.5; stroke-linejoin: miter"/>
     </g>
     <!-- FOUT -->
     <g transform="translate(26.925238 549.289483) rotate(-90) scale(0.14 -0.14)">
      <use xlink:href="#DejaVuSans-46"/>
      <use xlink:href="#DejaVuSans-4f" x="57.519531"/>
      <use xlink:href="#DejaVuSans-55" x="136.230469"/>
      <use xlink:href="#DejaVuSans-54" x="209.423828"/>
     </g>
    </g>
   </g>
   <g id="line2d_91">
    <path d="M 141.12 488.95813 
L 173.472768 488.964864 
L 173.505024 488.769601 
L 173.569536 526.964993 
L 173.69856 572.504953 
L 173.730816 572.37002 
L 173.827584 567.859991 
L 173.892096 569.372954 
L 174.053376 570.073549 
L 174.117888 569.956473 
L 174.408192 569.503605 
L 174.440448 569.552871 
L 174.66624 569.740593 
L 176.182272 569.75075 
L 180.14976 569.77168 
L 193.729536 569.761725 
L 213.018624 569.754592 
L 255.30624 569.75429 
L 255.6288 488.850399 
L 255.854592 488.991796 
L 256.209408 488.951397 
L 294.465024 488.843666 
L 294.49728 488.688803 
L 294.529536 489.375588 
L 294.594048 520.946864 
L 294.723072 570.014668 
L 294.755328 569.786672 
L 294.916608 569.755598 
L 300.14208 569.754785 
L 341.010432 569.849617 
L 341.042688 568.95124 
L 341.139456 528.146668 
L 341.300736 489.200525 
L 341.462016 488.964864 
L 342.010368 488.95813 
L 342.171648 488.910998 
L 342.203904 488.204013 
L 342.268416 537.134136 
L 342.365184 570.14012 
L 342.39744 569.715626 
L 342.429696 569.523003 
L 342.461952 569.816366 
L 342.494208 569.763664 
L 342.88128 569.754762 
L 416.1024 569.754774 
L 416.166912 557.271101 
L 416.489472 488.991796 
L 416.74752 488.95813 
L 947.52 488.95813 
L 947.52 488.95813 
" clip-path="url(#p9f59b0403c)" style="fill: none; stroke: #ff00ff; stroke-width: 2; stroke-linecap: square"/>
   </g>
   <g id="patch_28">
    <path d="M 100.8 576.72 
L 100.8 483.988966 
" style="fill: none; stroke: #bcbcbc; stroke-width: 0.8; stroke-linejoin: miter; stroke-linecap: square"/>
   </g>
   <g id="patch_29">
    <path d="M 987.84 576.72 
L 987.84 483.988966 
" style="fill: none; stroke: #bcbcbc; stroke-width: 0.8; stroke-linejoin: miter; stroke-linecap: square"/>
   </g>
   <g id="patch_30">
    <path d="M 100.8 576.72 
L 987.84 576.72 
" style="fill: none; stroke: #bcbcbc; stroke-width: 0.8; stroke-linejoin: miter; stroke-linecap: square"/>
   </g>
   <g id="patch_31">
    <path d="M 100.8 483.988966 
L 987.84 483.988966 
" style="fill: none; stroke: #bcbcbc; stroke-width: 0.8; stroke-linejoin: miter; stroke-linecap: square"/>
   </g>
  </g>
  <g id="axes_6">
   <g id="patch_32">
    <path d="M 201.6 628.56 
L 856.8 628.56 
L 856.8 615.6 
L 201.6 615.6 
z
" clip-path="url(#pc8922be6ed)" style="fill: #d3d3d3"/>
   </g>
   <g id="patch_33">
    <path d="M 201.6 628.56 
L 332.64 628.56 
L 332.64 615.6 
L 201.6 615.6 
z
" clip-path="url(#pc8922be6ed)" style="fill: #0000ff"/>
   </g>
   <g id="line2d_92">
    <path d="M 201.6 635.04 
L 201.6 609.12 
" clip-path="url(#p01e7351392)" style="fill: none; stroke: #ff0000; stroke-linecap: square"/>
   </g>
   <g id="line2d_93">
    <defs>
     <path id="m49892291c3" d="M 0 5 
C 1.326016 5 2.597899 4.473168 3.535534 3.535534 
C 4.473168 2.597899 5 1.326016 5 0 
C 5 -1.326016 4.473168 -2.597899 3.535534 -3.535534 
C 2.597899 -4.473168 1.326016 -5 0 -5 
C -1.326016 -5 -2.597899 -4.473168 -3.535534 -3.535534 
C -4.473168 -2.597899 -5 -1.326016 -5 0 
C -5 1.326016 -4.473168 2.597899 -3.535534 3.535534 
C -2.597899 4.473168 -1.326016 5 0 5 
z
" style="stroke: #bfbfbf"/>
    </defs>
    <g>
     <use xlink:href="#m49892291c3" x="332.64" y="622.08" style="fill: #ffffff; stroke: #bfbfbf"/>
    </g>
   </g>
   <g id="text_26">
    <!-- #Sweep -->
    <g transform="translate(138.622875 625.39125) scale(0.12 -0.12)">
     <defs>
      <path id="DejaVuSans-23" d="M 3272 2816 
L 2363 2816 
L 2100 1772 
L 3016 1772 
L 3272 2816 
z
M 2803 4594 
L 2478 3297 
L 3391 3297 
L 3719 4594 
L 4219 4594 
L 3897 3297 
L 4872 3297 
L 4872 2816 
L 3775 2816 
L 3519 1772 
L 4513 1772 
L 4513 1294 
L 3397 1294 
L 3072 0 
L 2572 0 
L 2894 1294 
L 1978 1294 
L 1656 0 
L 1153 0 
L 1478 1294 
L 494 1294 
L 494 1772 
L 1594 1772 
L 1856 2816 
L 850 2816 
L 850 3297 
L 1978 3297 
L 2297 4594 
L 2803 4594 
z
" transform="scale(0.015625)"/>
      <path id="DejaVuSans-77" d="M 269 3500 
L 844 3500 
L 1563 769 
L 2278 3500 
L 2956 3500 
L 3675 769 
L 4391 3500 
L 4966 3500 
L 4050 0 
L 3372 0 
L 2619 2869 
L 1863 0 
L 1184 0 
L 269 3500 
z
" transform="scale(0.015625)"/>
      <path id="DejaVuSans-70" d="M 1159 525 
L 1159 -1331 
L 581 -1331 
L 581 3500 
L 1159 3500 
L 1159 2969 
Q 1341 3281 1617 3432 
Q 1894 3584 2278 3584 
Q 2916 3584 3314 3078 
Q 3713 2572 3713 1747 
Q 3713 922 3314 415 
Q 2916 -91 2278 -91 
Q 1894 -91 1617 61 
Q 1341 213 1159 525 
z
M 3116 1747 
Q 3116 2381 2855 2742 
Q 2594 3103 2138 3103 
Q 1681 3103 1420 2742 
Q 1159 2381 1159 1747 
Q 1159 1113 1420 752 
Q 1681 391 2138 391 
Q 2594 391 2855 752 
Q 3116 1113 3116 1747 
z
" transform="scale(0.015625)"/>
     </defs>
     <use xlink:href="#DejaVuSans-23"/>
     <use xlink:href="#DejaVuSans-53" x="83.789062"/>
     <use xlink:href="#DejaVuSans-77" x="147.265625"/>
     <use xlink:href="#DejaVuSans-65" x="229.052734"/>
     <use xlink:href="#DejaVuSans-65" x="290.576172"/>
     <use xlink:href="#DejaVuSans-70" x="352.099609"/>
    </g>
   </g>
   <g id="text_27">
    <!-- $\mathdefault{28}$ -->
    <g transform="translate(869.904 625.39125) scale(0.12 -0.12)">
     <defs>
      <path id="DejaVuSans-38" d="M 2034 2216 
Q 1584 2216 1326 1975 
Q 1069 1734 1069 1313 
Q 1069 891 1326 650 
Q 1584 409 2034 409 
Q 2484 409 2743 651 
Q 3003 894 3003 1313 
Q 3003 1734 2745 1975 
Q 2488 2216 2034 2216 
z
M 1403 2484 
Q 997 2584 770 2862 
Q 544 3141 544 3541 
Q 544 4100 942 4425 
Q 1341 4750 2034 4750 
Q 2731 4750 3128 4425 
Q 3525 4100 3525 3541 
Q 3525 3141 3298 2862 
Q 3072 2584 2669 2484 
Q 3125 2378 3379 2068 
Q 3634 1759 3634 1313 
Q 3634 634 3220 271 
Q 2806 -91 2034 -91 
Q 1263 -91 848 271 
Q 434 634 434 1313 
Q 434 1759 690 2068 
Q 947 2378 1403 2484 
z
M 1172 3481 
Q 1172 3119 1398 2916 
Q 1625 2713 2034 2713 
Q 2441 2713 2670 2916 
Q 2900 3119 2900 3481 
Q 2900 3844 2670 4047 
Q 2441 4250 2034 4250 
Q 1625 4250 1398 4047 
Q 1172 3844 1172 3481 
z
" transform="scale(0.015625)"/>
     </defs>
     <use xlink:href="#DejaVuSans-32" transform="translate(0 0.78125)"/>
     <use xlink:href="#DejaVuSans-38" transform="translate(63.623047 0.78125)"/>
    </g>
   </g>
  </g>
  <g id="text_28">
   <!-- DFF under BBI sweep analysis (Sweep = 38E-9) -->
   <g transform="translate(313.34625 25.1175) scale(0.16 -0.16)">
    <defs>
     <path id="DejaVuSans-75" d="M 544 1381 
L 544 3500 
L 1119 3500 
L 1119 1403 
Q 1119 906 1312 657 
Q 1506 409 1894 409 
Q 2359 409 2629 706 
Q 2900 1003 2900 1516 
L 2900 3500 
L 3475 3500 
L 3475 0 
L 2900 0 
L 2900 538 
Q 2691 219 2414 64 
Q 2138 -91 1772 -91 
Q 1169 -91 856 284 
Q 544 659 544 1381 
z
M 1991 3584 
L 1991 3584 
z
" transform="scale(0.015625)"/>
     <path id="DejaVuSans-64" d="M 2906 2969 
L 2906 4863 
L 3481 4863 
L 3481 0 
L 2906 0 
L 2906 525 
Q 2725 213 2448 61 
Q 2172 -91 1784 -91 
Q 1150 -91 751 415 
Q 353 922 353 1747 
Q 353 2572 751 3078 
Q 1150 3584 1784 3584 
Q 2172 3584 2448 3432 
Q 2725 3281 2906 2969 
z
M 947 1747 
Q 947 1113 1208 752 
Q 1469 391 1925 391 
Q 2381 391 2643 752 
Q 2906 1113 2906 1747 
Q 2906 2381 2643 2742 
Q 2381 3103 1925 3103 
Q 1469 3103 1208 2742 
Q 947 2381 947 1747 
z
" transform="scale(0.015625)"/>
     <path id="DejaVuSans-72" d="M 2631 2963 
Q 2534 3019 2420 3045 
Q 2306 3072 2169 3072 
Q 1681 3072 1420 2755 
Q 1159 2438 1159 1844 
L 1159 0 
L 581 0 
L 581 3500 
L 1159 3500 
L 1159 2956 
Q 1341 3275 1631 3429 
Q 1922 3584 2338 3584 
Q 2397 3584 2469 3576 
Q 2541 3569 2628 3553 
L 2631 2963 
z
" transform="scale(0.015625)"/>
     <path id="DejaVuSans-61" d="M 2194 1759 
Q 1497 1759 1228 1600 
Q 959 1441 959 1056 
Q 959 750 1161 570 
Q 1363 391 1709 391 
Q 2188 391 2477 730 
Q 2766 1069 2766 1631 
L 2766 1759 
L 2194 1759 
z
M 3341 1997 
L 3341 0 
L 2766 0 
L 2766 531 
Q 2569 213 2275 61 
Q 1981 -91 1556 -91 
Q 1019 -91 701 211 
Q 384 513 384 1019 
Q 384 1609 779 1909 
Q 1175 2209 1959 2209 
L 2766 2209 
L 2766 2266 
Q 2766 2663 2505 2880 
Q 2244 3097 1772 3097 
Q 1472 3097 1187 3025 
Q 903 2953 641 2809 
L 641 3341 
Q 956 3463 1253 3523 
Q 1550 3584 1831 3584 
Q 2591 3584 2966 3190 
Q 3341 2797 3341 1997 
z
" transform="scale(0.015625)"/>
     <path id="DejaVuSans-6c" d="M 603 4863 
L 1178 4863 
L 1178 0 
L 603 0 
L 603 4863 
z
" transform="scale(0.015625)"/>
     <path id="DejaVuSans-79" d="M 2059 -325 
Q 1816 -950 1584 -1140 
Q 1353 -1331 966 -1331 
L 506 -1331 
L 506 -850 
L 844 -850 
Q 1081 -850 1212 -737 
Q 1344 -625 1503 -206 
L 1606 56 
L 191 3500 
L 800 3500 
L 1894 763 
L 2988 3500 
L 3597 3500 
L 2059 -325 
z
" transform="scale(0.015625)"/>
     <path id="DejaVuSans-28" d="M 1984 4856 
Q 1566 4138 1362 3434 
Q 1159 2731 1159 2009 
Q 1159 1288 1364 580 
Q 1569 -128 1984 -844 
L 1484 -844 
Q 1016 -109 783 600 
Q 550 1309 550 2009 
Q 550 2706 781 3412 
Q 1013 4119 1484 4856 
L 1984 4856 
z
" transform="scale(0.015625)"/>
     <path id="DejaVuSans-3d" d="M 678 2906 
L 4684 2906 
L 4684 2381 
L 678 2381 
L 678 2906 
z
M 678 1631 
L 4684 1631 
L 4684 1100 
L 678 1100 
L 678 1631 
z
" transform="scale(0.015625)"/>
     <path id="DejaVuSans-33" d="M 2597 2516 
Q 3050 2419 3304 2112 
Q 3559 1806 3559 1356 
Q 3559 666 3084 287 
Q 2609 -91 1734 -91 
Q 1441 -91 1130 -33 
Q 819 25 488 141 
L 488 750 
Q 750 597 1062 519 
Q 1375 441 1716 441 
Q 2309 441 2620 675 
Q 2931 909 2931 1356 
Q 2931 1769 2642 2001 
Q 2353 2234 1838 2234 
L 1294 2234 
L 1294 2753 
L 1863 2753 
Q 2328 2753 2575 2939 
Q 2822 3125 2822 3475 
Q 2822 3834 2567 4026 
Q 2313 4219 1838 4219 
Q 1578 4219 1281 4162 
Q 984 4106 628 3988 
L 628 4550 
Q 988 4650 1302 4700 
Q 1616 4750 1894 4750 
Q 2613 4750 3031 4423 
Q 3450 4097 3450 3541 
Q 3450 3153 3228 2886 
Q 3006 2619 2597 2516 
z
" transform="scale(0.015625)"/>
     <path id="DejaVuSans-2d" d="M 313 2009 
L 1997 2009 
L 1997 1497 
L 313 1497 
L 313 2009 
z
" transform="scale(0.015625)"/>
     <path id="DejaVuSans-39" d="M 703 97 
L 703 672 
Q 941 559 1184 500 
Q 1428 441 1663 441 
Q 2288 441 2617 861 
Q 2947 1281 2994 2138 
Q 2813 1869 2534 1725 
Q 2256 1581 1919 1581 
Q 1219 1581 811 2004 
Q 403 2428 403 3163 
Q 403 3881 828 4315 
Q 1253 4750 1959 4750 
Q 2769 4750 3195 4129 
Q 3622 3509 3622 2328 
Q 3622 1225 3098 567 
Q 2575 -91 1691 -91 
Q 1453 -91 1209 -44 
Q 966 3 703 97 
z
M 1959 2075 
Q 2384 2075 2632 2365 
Q 2881 2656 2881 3163 
Q 2881 3666 2632 3958 
Q 2384 4250 1959 4250 
Q 1534 4250 1286 3958 
Q 1038 3666 1038 3163 
Q 1038 2656 1286 2365 
Q 1534 2075 1959 2075 
z
" transform="scale(0.015625)"/>
     <path id="DejaVuSans-29" d="M 513 4856 
L 1013 4856 
Q 1481 4119 1714 3412 
Q 1947 2706 1947 2009 
Q 1947 1309 1714 600 
Q 1481 -109 1013 -844 
L 513 -844 
Q 928 -128 1133 580 
Q 1338 1288 1338 2009 
Q 1338 2731 1133 3434 
Q 928 4138 513 4856 
z
" transform="scale(0.015625)"/>
    </defs>
    <use xlink:href="#DejaVuSans-44"/>
    <use xlink:href="#DejaVuSans-46" x="77.001953"/>
    <use xlink:href="#DejaVuSans-46" x="134.521484"/>
    <use xlink:href="#DejaVuSans-20" x="192.041016"/>
    <use xlink:href="#DejaVuSans-75" x="223.828125"/>
    <use xlink:href="#DejaVuSans-6e" x="287.207031"/>
    <use xlink:href="#DejaVuSans-64" x="350.585938"/>
    <use xlink:href="#DejaVuSans-65" x="414.0625"/>
    <use xlink:href="#DejaVuSans-72" x="475.585938"/>
    <use xlink:href="#DejaVuSans-20" x="516.699219"/>
    <use xlink:href="#DejaVuSans-42" x="548.486328"/>
    <use xlink:href="#DejaVuSans-42" x="617.089844"/>
    <use xlink:href="#DejaVuSans-49" x="685.693359"/>
    <use xlink:href="#DejaVuSans-20" x="715.185547"/>
    <use xlink:href="#DejaVuSans-73" x="746.972656"/>
    <use xlink:href="#DejaVuSans-77" x="799.072266"/>
    <use xlink:href="#DejaVuSans-65" x="880.859375"/>
    <use xlink:href="#DejaVuSans-65" x="942.382812"/>
    <use xlink:href="#DejaVuSans-70" x="1003.90625"/>
    <use xlink:href="#DejaVuSans-20" x="1067.382812"/>
    <use xlink:href="#DejaVuSans-61" x="1099.169922"/>
    <use xlink:href="#DejaVuSans-6e" x="1160.449219"/>
    <use xlink:href="#DejaVuSans-61" x="1223.828125"/>
    <use xlink:href="#DejaVuSans-6c" x="1285.107422"/>
    <use xlink:href="#DejaVuSans-79" x="1312.890625"/>
    <use xlink:href="#DejaVuSans-73" x="1372.070312"/>
    <use xlink:href="#DejaVuSans-69" x="1424.169922"/>
    <use xlink:href="#DejaVuSans-73" x="1451.953125"/>
    <use xlink:href="#DejaVuSans-20" x="1504.052734"/>
    <use xlink:href="#DejaVuSans-28" x="1535.839844"/>
    <use xlink:href="#DejaVuSans-53" x="1574.853516"/>
    <use xlink:href="#DejaVuSans-77" x="1638.330078"/>
    <use xlink:href="#DejaVuSans-65" x="1720.117188"/>
    <use xlink:href="#DejaVuSans-65" x="1781.640625"/>
    <use xlink:href="#DejaVuSans-70" x="1843.164062"/>
    <use xlink:href="#DejaVuSans-20" x="1906.640625"/>
    <use xlink:href="#DejaVuSans-3d" x="1938.427734"/>
    <use xlink:href="#DejaVuSans-20" x="2022.216797"/>
    <use xlink:href="#DejaVuSans-33" x="2054.003906"/>
    <use xlink:href="#DejaVuSans-38" x="2117.626953"/>
    <use xlink:href="#DejaVuSans-45" x="2181.25"/>
    <use xlink:href="#DejaVuSans-2d" x="2244.433594"/>
    <use xlink:href="#DejaVuSans-39" x="2280.517578"/>
    <use xlink:href="#DejaVuSans-29" x="2344.140625"/>
   </g>
  </g>
 </g>
 <defs>
  <clipPath id="p62c6dae72d">
   <rect x="100.8" y="38.88" width="887.04" height="92.731034"/>
  </clipPath>
  <clipPath id="p3d8030d337">
   <rect x="100.8" y="150.157241" width="887.04" height="92.731034"/>
  </clipPath>
  <clipPath id="p1a3ca5a6a2">
   <rect x="100.8" y="261.434483" width="887.04" height="92.731034"/>
  </clipPath>
  <clipPath id="p20e33282e2">
   <rect x="100.8" y="372.711724" width="887.04" height="92.731034"/>
  </clipPath>
  <clipPath id="p9f59b0403c">
   <rect x="100.8" y="483.988966" width="887.04" height="92.731034"/>
  </clipPath>
  <clipPath id="pc8922be6ed">
   <rect x="201.6" y="609.12" width="655.2" height="25.92"/>
  </clipPath>
  <clipPath id="p01e7351392">
   <path d="M 201.6 628.56 
L 856.8 628.56 
L 856.8 615.6 
L 201.6 615.6 
z
"/>
  </clipPath>
 </defs>
</svg>
