<?xml version="1.0" encoding="utf-8" standalone="no"?>
<!DOCTYPE svg PUBLIC "-//W3C//DTD SVG 1.1//EN"
  "http://www.w3.org/Graphics/SVG/1.1/DTD/svg11.dtd">
<svg xmlns:xlink="http://www.w3.org/1999/xlink" width="1008pt" height="648pt" viewBox="0 0 1008 648" xmlns="http://www.w3.org/2000/svg" version="1.1">
 <metadata>
  <rdf:RDF xmlns:dc="http://purl.org/dc/elements/1.1/" xmlns:cc="http://creativecommons.org/ns#" xmlns:rdf="http://www.w3.org/1999/02/22-rdf-syntax-ns#">
   <cc:Work>
    <dc:type rdf:resource="http://purl.org/dc/dcmitype/StillImage"/>
    <dc:date>2024-06-03T10:45:29.613547</dc:date>
    <dc:format>image/svg+xml</dc:format>
    <dc:creator>
     <cc:Agent>
      <dc:title>Matplotlib v3.9.0, https://matplotlib.org/</dc:title>
     </cc:Agent>
    </dc:creator>
   </cc:Work>
  </rdf:RDF>
 </metadata>
 <defs>
  <style type="text/css">*{stroke-linejoin: round; stroke-linecap: butt}</style>
 </defs>
 <g id="figure_1">
  <g id="patch_1">
   <path d="M 0 648 
L 1008 648 
L 1008 0 
L 0 0 
z
" style="fill: #ffffff"/>
  </g>
  <g id="axes_1">
   <g id="patch_2">
    <path d="M 100.8 131.611034 
L 987.84 131.611034 
L 987.84 38.88 
L 100.8 38.88 
z
" style="fill: #eeeeee"/>
   </g>
   <g id="matplotlib.axis_1">
    <g id="xtick_1">
     <g id="line2d_1">
      <path d="M 141.12 131.611034 
L 141.12 38.88 
" clip-path="url(#pd23c119cd6)" style="fill: none; stroke-dasharray: 1.85,0.8; stroke-dashoffset: 0; stroke: #b2b2b2; stroke-width: 0.5"/>
     </g>
     <g id="line2d_2">
      <defs>
       <path id="m93638f39c1" d="M 0 0 
L 0 -3.5 
" style="stroke: #000000; stroke-width: 0.8"/>
      </defs>
      <g>
       <use xlink:href="#m93638f39c1" x="141.12" y="131.611034" style="stroke: #000000; stroke-width: 0.8"/>
      </g>
     </g>
    </g>
    <g id="xtick_2">
     <g id="line2d_3">
      <path d="M 302.4 131.611034 
L 302.4 38.88 
" clip-path="url(#pd23c119cd6)" style="fill: none; stroke-dasharray: 1.85,0.8; stroke-dashoffset: 0; stroke: #b2b2b2; stroke-width: 0.5"/>
     </g>
     <g id="line2d_4">
      <g>
       <use xlink:href="#m93638f39c1" x="302.4" y="131.611034" style="stroke: #000000; stroke-width: 0.8"/>
      </g>
     </g>
    </g>
    <g id="xtick_3">
     <g id="line2d_5">
      <path d="M 463.68 131.611034 
L 463.68 38.88 
" clip-path="url(#pd23c119cd6)" style="fill: none; stroke-dasharray: 1.85,0.8; stroke-dashoffset: 0; stroke: #b2b2b2; stroke-width: 0.5"/>
     </g>
     <g id="line2d_6">
      <g>
       <use xlink:href="#m93638f39c1" x="463.68" y="131.611034" style="stroke: #000000; stroke-width: 0.8"/>
      </g>
     </g>
    </g>
    <g id="xtick_4">
     <g id="line2d_7">
      <path d="M 624.96 131.611034 
L 624.96 38.88 
" clip-path="url(#pd23c119cd6)" style="fill: none; stroke-dasharray: 1.85,0.8; stroke-dashoffset: 0; stroke: #b2b2b2; stroke-width: 0.5"/>
     </g>
     <g id="line2d_8">
      <g>
       <use xlink:href="#m93638f39c1" x="624.96" y="131.611034" style="stroke: #000000; stroke-width: 0.8"/>
      </g>
     </g>
    </g>
    <g id="xtick_5">
     <g id="line2d_9">
      <path d="M 786.24 131.611034 
L 786.24 38.88 
" clip-path="url(#pd23c119cd6)" style="fill: none; stroke-dasharray: 1.85,0.8; stroke-dashoffset: 0; stroke: #b2b2b2; stroke-width: 0.5"/>
     </g>
     <g id="line2d_10">
      <g>
       <use xlink:href="#m93638f39c1" x="786.24" y="131.611034" style="stroke: #000000; stroke-width: 0.8"/>
      </g>
     </g>
    </g>
    <g id="xtick_6">
     <g id="line2d_11">
      <path d="M 947.52 131.611034 
L 947.52 38.88 
" clip-path="url(#pd23c119cd6)" style="fill: none; stroke-dasharray: 1.85,0.8; stroke-dashoffset: 0; stroke: #b2b2b2; stroke-width: 0.5"/>
     </g>
     <g id="line2d_12">
      <g>
       <use xlink:href="#m93638f39c1" x="947.52" y="131.611034" style="stroke: #000000; stroke-width: 0.8"/>
      </g>
     </g>
    </g>
   </g>
   <g id="matplotlib.axis_2">
    <g id="ytick_1">
     <g id="line2d_13">
      <path d="M 100.8 98.340394 
L 987.84 98.340394 
" clip-path="url(#pd23c119cd6)" style="fill: none; stroke-dasharray: 1.85,0.8; stroke-dashoffset: 0; stroke: #b2b2b2; stroke-width: 0.5"/>
     </g>
     <g id="line2d_14">
      <defs>
       <path id="m40835a0d1e" d="M 0 0 
L 3.5 0 
" style="stroke: #000000; stroke-width: 0.8"/>
      </defs>
      <g>
       <use xlink:href="#m40835a0d1e" x="100.8" y="98.340394" style="stroke: #000000; stroke-width: 0.8"/>
      </g>
     </g>
     <g id="text_1">
      <!-- −200 V -->
      <g transform="translate(44.819688 103.6593) scale(0.14 -0.14)">
       <defs>
        <path id="DejaVuSans-2212" d="M 678 2272 
L 4684 2272 
L 4684 1741 
L 678 1741 
L 678 2272 
z
" transform="scale(0.015625)"/>
        <path id="DejaVuSans-32" d="M 1228 531 
L 3431 531 
L 3431 0 
L 469 0 
L 469 531 
Q 828 903 1448 1529 
Q 2069 2156 2228 2338 
Q 2531 2678 2651 2914 
Q 2772 3150 2772 3378 
Q 2772 3750 2511 3984 
Q 2250 4219 1831 4219 
Q 1534 4219 1204 4116 
Q 875 4013 500 3803 
L 500 4441 
Q 881 4594 1212 4672 
Q 1544 4750 1819 4750 
Q 2544 4750 2975 4387 
Q 3406 4025 3406 3419 
Q 3406 3131 3298 2873 
Q 3191 2616 2906 2266 
Q 2828 2175 2409 1742 
Q 1991 1309 1228 531 
z
" transform="scale(0.015625)"/>
        <path id="DejaVuSans-30" d="M 2034 4250 
Q 1547 4250 1301 3770 
Q 1056 3291 1056 2328 
Q 1056 1369 1301 889 
Q 1547 409 2034 409 
Q 2525 409 2770 889 
Q 3016 1369 3016 2328 
Q 3016 3291 2770 3770 
Q 2525 4250 2034 4250 
z
M 2034 4750 
Q 2819 4750 3233 4129 
Q 3647 3509 3647 2328 
Q 3647 1150 3233 529 
Q 2819 -91 2034 -91 
Q 1250 -91 836 529 
Q 422 1150 422 2328 
Q 422 3509 836 4129 
Q 1250 4750 2034 4750 
z
" transform="scale(0.015625)"/>
        <path id="DejaVuSans-20" transform="scale(0.015625)"/>
        <path id="DejaVuSans-56" d="M 1831 0 
L 50 4666 
L 709 4666 
L 2188 738 
L 3669 4666 
L 4325 4666 
L 2547 0 
L 1831 0 
z
" transform="scale(0.015625)"/>
       </defs>
       <use xlink:href="#DejaVuSans-2212"/>
       <use xlink:href="#DejaVuSans-32" x="83.789062"/>
       <use xlink:href="#DejaVuSans-30" x="147.412109"/>
       <use xlink:href="#DejaVuSans-30" x="211.035156"/>
       <use xlink:href="#DejaVuSans-20" x="274.658203"/>
       <use xlink:href="#DejaVuSans-56" x="306.445312"/>
      </g>
     </g>
    </g>
    <g id="ytick_2">
     <g id="line2d_15">
      <path d="M 100.8 45.027377 
L 987.84 45.027377 
" clip-path="url(#pd23c119cd6)" style="fill: none; stroke-dasharray: 1.85,0.8; stroke-dashoffset: 0; stroke: #b2b2b2; stroke-width: 0.5"/>
     </g>
     <g id="line2d_16">
      <g>
       <use xlink:href="#m40835a0d1e" x="100.8" y="45.027377" style="stroke: #000000; stroke-width: 0.8"/>
      </g>
     </g>
     <g id="text_2">
      <!-- 0 V -->
      <g transform="translate(74.36625 50.346284) scale(0.14 -0.14)">
       <use xlink:href="#DejaVuSans-30"/>
       <use xlink:href="#DejaVuSans-20" x="63.623047"/>
       <use xlink:href="#DejaVuSans-56" x="95.410156"/>
      </g>
     </g>
    </g>
    <g id="text_3">
     <g id="patch_3">
      <path d="M 34.8768 131.080205 
L 34.8768 39.41083 
L 11.247425 39.41083 
L 11.247425 131.080205 
z
" style="fill: #ffff00; opacity: 0.2; stroke: #eeeeee; stroke-width: 0.5; stroke-linejoin: miter"/>
     </g>
     <!-- VPULSE BBI -->
     <g transform="translate(26.925238 126.040205) rotate(-90) scale(0.14 -0.14)">
      <defs>
       <path id="DejaVuSans-50" d="M 1259 4147 
L 1259 2394 
L 2053 2394 
Q 2494 2394 2734 2622 
Q 2975 2850 2975 3272 
Q 2975 3691 2734 3919 
Q 2494 4147 2053 4147 
L 1259 4147 
z
M 628 4666 
L 2053 4666 
Q 2838 4666 3239 4311 
Q 3641 3956 3641 3272 
Q 3641 2581 3239 2228 
Q 2838 1875 2053 1875 
L 1259 1875 
L 1259 0 
L 628 0 
L 628 4666 
z
" transform="scale(0.015625)"/>
       <path id="DejaVuSans-55" d="M 556 4666 
L 1191 4666 
L 1191 1831 
Q 1191 1081 1462 751 
Q 1734 422 2344 422 
Q 2950 422 3222 751 
Q 3494 1081 3494 1831 
L 3494 4666 
L 4128 4666 
L 4128 1753 
Q 4128 841 3676 375 
Q 3225 -91 2344 -91 
Q 1459 -91 1007 375 
Q 556 841 556 1753 
L 556 4666 
z
" transform="scale(0.015625)"/>
       <path id="DejaVuSans-4c" d="M 628 4666 
L 1259 4666 
L 1259 531 
L 3531 531 
L 3531 0 
L 628 0 
L 628 4666 
z
" transform="scale(0.015625)"/>
       <path id="DejaVuSans-53" d="M 3425 4513 
L 3425 3897 
Q 3066 4069 2747 4153 
Q 2428 4238 2131 4238 
Q 1616 4238 1336 4038 
Q 1056 3838 1056 3469 
Q 1056 3159 1242 3001 
Q 1428 2844 1947 2747 
L 2328 2669 
Q 3034 2534 3370 2195 
Q 3706 1856 3706 1288 
Q 3706 609 3251 259 
Q 2797 -91 1919 -91 
Q 1588 -91 1214 -16 
Q 841 59 441 206 
L 441 856 
Q 825 641 1194 531 
Q 1563 422 1919 422 
Q 2459 422 2753 634 
Q 3047 847 3047 1241 
Q 3047 1584 2836 1778 
Q 2625 1972 2144 2069 
L 1759 2144 
Q 1053 2284 737 2584 
Q 422 2884 422 3419 
Q 422 4038 858 4394 
Q 1294 4750 2059 4750 
Q 2388 4750 2728 4690 
Q 3069 4631 3425 4513 
z
" transform="scale(0.015625)"/>
       <path id="DejaVuSans-45" d="M 628 4666 
L 3578 4666 
L 3578 4134 
L 1259 4134 
L 1259 2753 
L 3481 2753 
L 3481 2222 
L 1259 2222 
L 1259 531 
L 3634 531 
L 3634 0 
L 628 0 
L 628 4666 
z
" transform="scale(0.015625)"/>
       <path id="DejaVuSans-42" d="M 1259 2228 
L 1259 519 
L 2272 519 
Q 2781 519 3026 730 
Q 3272 941 3272 1375 
Q 3272 1813 3026 2020 
Q 2781 2228 2272 2228 
L 1259 2228 
z
M 1259 4147 
L 1259 2741 
L 2194 2741 
Q 2656 2741 2882 2914 
Q 3109 3088 3109 3444 
Q 3109 3797 2882 3972 
Q 2656 4147 2194 4147 
L 1259 4147 
z
M 628 4666 
L 2241 4666 
Q 2963 4666 3353 4366 
Q 3744 4066 3744 3513 
Q 3744 3084 3544 2831 
Q 3344 2578 2956 2516 
Q 3422 2416 3680 2098 
Q 3938 1781 3938 1306 
Q 3938 681 3513 340 
Q 3088 0 2303 0 
L 628 0 
L 628 4666 
z
" transform="scale(0.015625)"/>
       <path id="DejaVuSans-49" d="M 628 4666 
L 1259 4666 
L 1259 0 
L 628 0 
L 628 4666 
z
" transform="scale(0.015625)"/>
      </defs>
      <use xlink:href="#DejaVuSans-56"/>
      <use xlink:href="#DejaVuSans-50" x="68.408203"/>
      <use xlink:href="#DejaVuSans-55" x="128.710938"/>
      <use xlink:href="#DejaVuSans-4c" x="201.904297"/>
      <use xlink:href="#DejaVuSans-53" x="257.617188"/>
      <use xlink:href="#DejaVuSans-45" x="321.09375"/>
      <use xlink:href="#DejaVuSans-20" x="384.277344"/>
      <use xlink:href="#DejaVuSans-42" x="416.064453"/>
      <use xlink:href="#DejaVuSans-42" x="484.667969"/>
      <use xlink:href="#DejaVuSans-49" x="553.271484"/>
     </g>
    </g>
   </g>
   <g id="line2d_17">
    <path d="M 141.12 45.027377 
L 202.438656 45.136282 
L 202.922496 46.425538 
L 211.147776 69.006772 
L 218.566656 89.863624 
L 220.179456 94.440546 
L 221.985792 99.673219 
L 225.46944 110.807642 
L 227.049984 115.851054 
L 228.307968 119.566971 
L 229.533696 120.153414 
L 230.372352 120.545265 
L 231.404544 121.017085 
L 231.985152 121.272988 
L 232.856064 121.656841 
L 233.436672 121.912744 
L 234.275328 122.269941 
L 235.855872 122.936354 
L 236.500992 123.202919 
L 237.597696 123.629423 
L 238.339584 123.922644 
L 239.436288 124.349149 
L 240.339456 124.677024 
L 241.016832 124.943589 
L 241.823232 125.25547 
L 243.177984 125.804594 
L 245.822976 126.790885 
L 246.43584 127.022796 
L 248.3712 127.395987 
L 266.853888 127.289361 
L 267.07968 126.801547 
L 285.368832 75.087922 
L 289.110528 63.292417 
L 292.819968 51.617666 
L 297.432576 49.3412 
L 302.787072 46.984578 
L 311.496192 43.484472 
L 312.367104 43.268927 
L 326.656512 43.108189 
L 333.462528 43.184799 
L 348.816384 43.746186 
L 376.5888 44.46146 
L 402.23232 44.774399 
L 437.842944 44.945888 
L 485.872128 44.953885 
L 947.52 44.953885 
L 947.52 44.953885 
" clip-path="url(#pd23c119cd6)" style="fill: none; stroke: #ff0000; stroke-width: 2; stroke-linecap: square"/>
   </g>
   <g id="patch_4">
    <path d="M 100.8 131.611034 
L 100.8 38.88 
" style="fill: none; stroke: #bcbcbc; stroke-width: 0.8; stroke-linejoin: miter; stroke-linecap: square"/>
   </g>
   <g id="patch_5">
    <path d="M 987.84 131.611034 
L 987.84 38.88 
" style="fill: none; stroke: #bcbcbc; stroke-width: 0.8; stroke-linejoin: miter; stroke-linecap: square"/>
   </g>
   <g id="patch_6">
    <path d="M 100.8 131.611034 
L 987.84 131.611034 
" style="fill: none; stroke: #bcbcbc; stroke-width: 0.8; stroke-linejoin: miter; stroke-linecap: square"/>
   </g>
   <g id="patch_7">
    <path d="M 100.8 38.88 
L 987.84 38.88 
" style="fill: none; stroke: #bcbcbc; stroke-width: 0.8; stroke-linejoin: miter; stroke-linecap: square"/>
   </g>
  </g>
  <g id="axes_2">
   <g id="patch_8">
    <path d="M 100.8 242.888276 
L 987.84 242.888276 
L 987.84 150.157241 
L 100.8 150.157241 
z
" style="fill: #eeeeee"/>
   </g>
   <g id="matplotlib.axis_3">
    <g id="xtick_7">
     <g id="line2d_18">
      <path d="M 141.12 242.888276 
L 141.12 150.157241 
" clip-path="url(#p25c4be6906)" style="fill: none; stroke-dasharray: 1.85,0.8; stroke-dashoffset: 0; stroke: #b2b2b2; stroke-width: 0.5"/>
     </g>
     <g id="line2d_19">
      <g>
       <use xlink:href="#m93638f39c1" x="141.12" y="242.888276" style="stroke: #000000; stroke-width: 0.8"/>
      </g>
     </g>
    </g>
    <g id="xtick_8">
     <g id="line2d_20">
      <path d="M 302.4 242.888276 
L 302.4 150.157241 
" clip-path="url(#p25c4be6906)" style="fill: none; stroke-dasharray: 1.85,0.8; stroke-dashoffset: 0; stroke: #b2b2b2; stroke-width: 0.5"/>
     </g>
     <g id="line2d_21">
      <g>
       <use xlink:href="#m93638f39c1" x="302.4" y="242.888276" style="stroke: #000000; stroke-width: 0.8"/>
      </g>
     </g>
    </g>
    <g id="xtick_9">
     <g id="line2d_22">
      <path d="M 463.68 242.888276 
L 463.68 150.157241 
" clip-path="url(#p25c4be6906)" style="fill: none; stroke-dasharray: 1.85,0.8; stroke-dashoffset: 0; stroke: #b2b2b2; stroke-width: 0.5"/>
     </g>
     <g id="line2d_23">
      <g>
       <use xlink:href="#m93638f39c1" x="463.68" y="242.888276" style="stroke: #000000; stroke-width: 0.8"/>
      </g>
     </g>
    </g>
    <g id="xtick_10">
     <g id="line2d_24">
      <path d="M 624.96 242.888276 
L 624.96 150.157241 
" clip-path="url(#p25c4be6906)" style="fill: none; stroke-dasharray: 1.85,0.8; stroke-dashoffset: 0; stroke: #b2b2b2; stroke-width: 0.5"/>
     </g>
     <g id="line2d_25">
      <g>
       <use xlink:href="#m93638f39c1" x="624.96" y="242.888276" style="stroke: #000000; stroke-width: 0.8"/>
      </g>
     </g>
    </g>
    <g id="xtick_11">
     <g id="line2d_26">
      <path d="M 786.24 242.888276 
L 786.24 150.157241 
" clip-path="url(#p25c4be6906)" style="fill: none; stroke-dasharray: 1.85,0.8; stroke-dashoffset: 0; stroke: #b2b2b2; stroke-width: 0.5"/>
     </g>
     <g id="line2d_27">
      <g>
       <use xlink:href="#m93638f39c1" x="786.24" y="242.888276" style="stroke: #000000; stroke-width: 0.8"/>
      </g>
     </g>
    </g>
    <g id="xtick_12">
     <g id="line2d_28">
      <path d="M 947.52 242.888276 
L 947.52 150.157241 
" clip-path="url(#p25c4be6906)" style="fill: none; stroke-dasharray: 1.85,0.8; stroke-dashoffset: 0; stroke: #b2b2b2; stroke-width: 0.5"/>
     </g>
     <g id="line2d_29">
      <g>
       <use xlink:href="#m93638f39c1" x="947.52" y="242.888276" style="stroke: #000000; stroke-width: 0.8"/>
      </g>
     </g>
    </g>
   </g>
   <g id="matplotlib.axis_4">
    <g id="ytick_3">
     <g id="line2d_30">
      <path d="M 100.8 213.381802 
L 987.84 213.381802 
" clip-path="url(#p25c4be6906)" style="fill: none; stroke-dasharray: 1.85,0.8; stroke-dashoffset: 0; stroke: #b2b2b2; stroke-width: 0.5"/>
     </g>
     <g id="line2d_31">
      <g>
       <use xlink:href="#m40835a0d1e" x="100.8" y="213.381802" style="stroke: #000000; stroke-width: 0.8"/>
      </g>
     </g>
     <g id="text_4">
      <!-- 0 V -->
      <g transform="translate(74.36625 218.700709) scale(0.14 -0.14)">
       <use xlink:href="#DejaVuSans-30"/>
       <use xlink:href="#DejaVuSans-20" x="63.623047"/>
       <use xlink:href="#DejaVuSans-56" x="95.410156"/>
      </g>
     </g>
    </g>
    <g id="ytick_4">
     <g id="line2d_32">
      <path d="M 100.8 169.364561 
L 987.84 169.364561 
" clip-path="url(#p25c4be6906)" style="fill: none; stroke-dasharray: 1.85,0.8; stroke-dashoffset: 0; stroke: #b2b2b2; stroke-width: 0.5"/>
     </g>
     <g id="line2d_33">
      <g>
       <use xlink:href="#m40835a0d1e" x="100.8" y="169.364561" style="stroke: #000000; stroke-width: 0.8"/>
      </g>
     </g>
     <g id="text_5">
      <!-- 1 V -->
      <g transform="translate(74.36625 174.683467) scale(0.14 -0.14)">
       <defs>
        <path id="DejaVuSans-31" d="M 794 531 
L 1825 531 
L 1825 4091 
L 703 3866 
L 703 4441 
L 1819 4666 
L 2450 4666 
L 2450 531 
L 3481 531 
L 3481 0 
L 794 0 
L 794 531 
z
" transform="scale(0.015625)"/>
       </defs>
       <use xlink:href="#DejaVuSans-31"/>
       <use xlink:href="#DejaVuSans-20" x="63.623047"/>
       <use xlink:href="#DejaVuSans-56" x="95.410156"/>
      </g>
     </g>
    </g>
    <g id="text_6">
     <g id="patch_9">
      <path d="M 34.8768 224.531509 
L 34.8768 168.514009 
L 11.247425 168.514009 
L 11.247425 224.531509 
z
" style="fill: #ffff00; opacity: 0.2; stroke: #eeeeee; stroke-width: 0.5; stroke-linejoin: miter"/>
     </g>
     <!-- DFF IN -->
     <g transform="translate(26.925238 219.491509) rotate(-90) scale(0.14 -0.14)">
      <defs>
       <path id="DejaVuSans-44" d="M 1259 4147 
L 1259 519 
L 2022 519 
Q 2988 519 3436 956 
Q 3884 1394 3884 2338 
Q 3884 3275 3436 3711 
Q 2988 4147 2022 4147 
L 1259 4147 
z
M 628 4666 
L 1925 4666 
Q 3281 4666 3915 4102 
Q 4550 3538 4550 2338 
Q 4550 1131 3912 565 
Q 3275 0 1925 0 
L 628 0 
L 628 4666 
z
" transform="scale(0.015625)"/>
       <path id="DejaVuSans-46" d="M 628 4666 
L 3309 4666 
L 3309 4134 
L 1259 4134 
L 1259 2759 
L 3109 2759 
L 3109 2228 
L 1259 2228 
L 1259 0 
L 628 0 
L 628 4666 
z
" transform="scale(0.015625)"/>
       <path id="DejaVuSans-4e" d="M 628 4666 
L 1478 4666 
L 3547 763 
L 3547 4666 
L 4159 4666 
L 4159 0 
L 3309 0 
L 1241 3903 
L 1241 0 
L 628 0 
L 628 4666 
z
" transform="scale(0.015625)"/>
      </defs>
      <use xlink:href="#DejaVuSans-44"/>
      <use xlink:href="#DejaVuSans-46" x="77.001953"/>
      <use xlink:href="#DejaVuSans-46" x="134.521484"/>
      <use xlink:href="#DejaVuSans-20" x="192.041016"/>
      <use xlink:href="#DejaVuSans-49" x="223.828125"/>
      <use xlink:href="#DejaVuSans-4e" x="253.320312"/>
     </g>
    </g>
   </g>
   <g id="line2d_34">
    <path d="M 141.12 213.317519 
L 202.470912 213.392741 
L 203.85792 215.143196 
L 204.406272 215.649483 
L 205.051392 216.099075 
L 205.922304 216.51583 
L 207.051264 216.794239 
L 208.664064 216.951028 
L 210.599424 217.143472 
L 211.405824 217.664504 
L 213.179904 218.872073 
L 215.276544 220.303954 
L 215.760384 220.748968 
L 216.986112 221.693138 
L 217.728 221.926869 
L 218.276352 221.838395 
L 218.760192 221.505184 
L 219.244032 220.915793 
L 220.082688 219.872145 
L 220.276224 220.086508 
L 220.63104 220.863853 
L 221.308416 222.31158 
L 221.501952 222.496012 
L 221.76 222.993847 
L 222.308352 224.954375 
L 222.72768 225.93728 
L 222.856704 226.194341 
L 223.179264 227.089211 
L 223.824384 228.702003 
L 224.146944 229.376347 
L 224.792064 231.259405 
L 225.275904 232.202254 
L 225.372672 232.402973 
L 225.695232 233.08612 
L 225.921024 233.74902 
L 226.469376 234.976221 
L 226.533888 235.029482 
L 226.791936 235.692381 
L 228.243456 238.673229 
L 228.824064 238.058748 
L 229.082112 237.55299 
L 229.372416 237.071441 
L 229.727232 236.003583 
L 230.049792 235.494744 
L 230.79168 234.511839 
L 231.985152 232.537225 
L 232.88832 231.652039 
L 233.468928 230.817912 
L 233.952768 229.830605 
L 234.210816 229.583228 
L 234.243072 229.6136 
L 234.436608 229.519843 
L 234.920448 229.066906 
L 235.178496 228.896119 
L 236.178432 227.714256 
L 236.59776 226.885412 
L 236.694528 226.875728 
L 237.210624 226.308786 
L 237.40416 226.125674 
L 238.178304 225.52924 
L 239.145984 224.316125 
L 239.597568 223.364472 
L 240.081408 223.073078 
L 240.62976 222.834065 
L 242.24256 221.220393 
L 243.081216 220.209757 
L 246.048768 217.312982 
L 246.500352 216.898032 
L 247.693824 215.665373 
L 249.50016 212.6402 
L 249.919488 211.9155 
L 250.919424 210.090941 
L 251.43552 209.149941 
L 255.564288 202.514386 
L 256.693248 200.843051 
L 257.112576 199.408969 
L 259.209216 191.720037 
L 259.789824 190.207165 
L 261.75744 186.498272 
L 262.370304 185.401803 
L 263.273472 183.831267 
L 263.983104 182.933756 
L 267.015168 197.917225 
L 269.402112 204.617089 
L 270.208512 206.106633 
L 270.982656 207.093059 
L 271.789056 207.756839 
L 272.853504 208.331264 
L 275.337216 209.033119 
L 275.95008 209.151745 
L 276.498432 209.244842 
L 276.982272 209.313201 
L 277.691904 209.441203 
L 278.111232 209.465764 
L 278.917632 209.572418 
L 279.207936 209.613002 
L 280.723968 209.763893 
L 284.6592 209.965888 
L 285.272064 209.977641 
L 285.723648 209.988777 
L 286.239744 209.985828 
L 286.497792 209.932347 
L 287.788032 209.713669 
L 288.078336 209.655303 
L 289.046016 209.534167 
L 289.400832 209.499526 
L 290.207232 209.388382 
L 290.562048 209.335429 
L 291.207168 209.247483 
L 291.723264 209.181105 
L 292.23936 209.086732 
L 292.88448 209.211565 
L 293.916672 210.299407 
L 294.368256 210.70485 
L 296.368128 211.685422 
L 296.690688 211.752504 
L 298.271232 212.056839 
L 302.72256 212.49327 
L 312.496128 213.040242 
L 312.947712 213.162482 
L 313.818624 213.308734 
L 314.205696 213.360658 
L 315.076608 213.44638 
L 315.46368 213.478882 
L 316.205568 213.523701 
L 316.528128 213.525593 
L 317.205504 213.584004 
L 317.495808 213.572982 
L 318.36672 213.618553 
L 318.657024 213.610842 
L 320.044032 213.640632 
L 320.398848 213.65934 
L 321.721344 213.686058 
L 322.043904 213.696319 
L 324.076032 213.711967 
L 329.97888 213.752722 
L 335.075328 213.78151 
L 335.397888 213.778354 
L 336.91392 213.784956 
L 337.204224 213.78099 
L 338.397696 213.766759 
L 338.688 213.779485 
L 339.65568 213.758643 
L 339.945984 213.774533 
L 340.816896 213.752546 
L 341.203968 213.74126 
L 342.139392 213.754096 
L 342.526464 213.731885 
L 343.397376 213.747357 
L 343.816704 213.731458 
L 344.49408 213.712671 
L 344.881152 213.71544 
L 345.62304 213.726466 
L 346.010112 213.717073 
L 346.622976 213.699409 
L 347.010048 213.706509 
L 347.590656 213.690949 
L 347.71968 213.709172 
L 348.009984 209.878558 
L 349.396992 192.394382 
L 350.558208 179.896566 
L 351.687168 169.626023 
L 352.783872 161.313807 
L 353.332224 158.527516 
L 353.880576 156.718407 
L 354.396672 155.661994 
L 355.106304 154.865282 
L 355.6224 154.583571 
L 356.332032 154.407502 
L 357.2352 154.389895 
L 357.55776 154.411904 
L 358.428672 154.517545 
L 358.912512 154.596776 
L 359.267328 154.649597 
L 360.331776 154.825666 
L 363.718656 155.39789 
L 364.750848 155.569557 
L 365.524992 155.6796 
L 366.460416 155.820456 
L 375.13728 157.105759 
L 376.621056 161.036499 
L 377.07264 161.265388 
L 377.330688 161.256585 
L 377.750016 161.027695 
L 378.84672 159.988888 
L 379.49184 159.434271 
L 380.169216 159.042518 
L 380.653056 158.840038 
L 381.362688 158.659568 
L 382.298112 158.553926 
L 382.814208 158.523114 
L 395.006976 158.633157 
L 396.329472 158.703585 
L 398.458368 158.813628 
L 399.684096 158.87085 
L 401.5872 158.976492 
L 402.038784 158.985295 
L 402.587136 159.016107 
L 403.812864 159.07333 
L 406.232064 159.183373 
L 406.554624 159.205382 
L 409.32864 159.315425 
L 409.618944 159.319826 
L 412.780032 159.429869 
L 413.102592 159.447476 
L 415.45728 159.385852 
L 415.94112 158.699183 
L 416.360448 158.391063 
L 416.779776 158.281019 
L 418.263552 158.593542 
L 418.908672 158.822432 
L 421.42464 159.394656 
L 423.84384 159.614742 
L 426.134016 159.724785 
L 427.392 159.786409 
L 431.58528 159.896452 
L 432.423936 159.900854 
L 438.100992 160.010897 
L 438.552576 160.024102 
L 455.745024 160.125342 
L 456.325632 160.935259 
L 456.712704 161.194961 
L 457.519104 161.410645 
L 459.00288 161.300602 
L 460.357632 161.005687 
L 461.551104 160.794404 
L 466.776576 160.191368 
L 496.032768 160.085726 
L 496.548864 159.319826 
L 497.097216 158.936876 
L 498.3552 158.866449 
L 502.193664 159.799614 
L 504.16128 159.958076 
L 536.320512 160.068119 
L 536.449536 160.244188 
L 536.965632 160.939661 
L 537.352704 161.199363 
L 538.126848 161.39744 
L 540.191232 161.291799 
L 542.352384 160.816413 
L 547.70688 160.195769 
L 576.672768 160.090128 
L 577.253376 159.262604 
L 578.059776 158.84444 
L 580.220928 159.249399 
L 582.188544 159.671964 
L 584.96256 159.940469 
L 591.865344 160.050513 
L 592.736256 160.059316 
L 617.025024 160.129744 
L 617.605632 160.939661 
L 617.992704 161.199363 
L 618.766848 161.39744 
L 620.831232 161.291799 
L 622.992384 160.816413 
L 628.34688 160.195769 
L 657.312768 160.085726 
L 657.828864 159.319826 
L 658.377216 158.936876 
L 659.6352 158.866449 
L 663.473664 159.799614 
L 665.44128 159.958076 
L 697.600512 160.068119 
L 697.729536 160.244188 
L 698.245632 160.939661 
L 698.632704 161.199363 
L 699.406848 161.39744 
L 701.471232 161.291799 
L 703.600128 160.825216 
L 709.051392 160.191368 
L 737.952768 160.085726 
L 738.468864 159.319826 
L 739.017216 158.936876 
L 740.2752 158.866449 
L 744.113664 159.799614 
L 746.08128 159.958076 
L 778.240512 160.068119 
L 778.369536 160.244188 
L 778.885632 160.939661 
L 779.272704 161.199363 
L 780.046848 161.39744 
L 782.111232 161.291799 
L 784.240128 160.825216 
L 789.691392 160.191368 
L 818.592768 160.085726 
L 819.108864 159.319826 
L 819.657216 158.936876 
L 820.9152 158.866449 
L 824.753664 159.799614 
L 826.72128 159.958076 
L 858.880512 160.068119 
L 859.009536 160.244188 
L 859.525632 160.939661 
L 859.912704 161.199363 
L 860.686848 161.39744 
L 862.751232 161.291799 
L 864.880128 160.825216 
L 870.331392 160.191368 
L 899.232768 160.085726 
L 899.748864 159.319826 
L 900.297216 158.936876 
L 901.5552 158.866449 
L 905.361408 159.790811 
L 907.393536 159.958076 
L 939.520512 160.068119 
L 939.649536 160.24859 
L 940.133376 160.904447 
L 940.58496 161.190559 
L 941.294592 161.454663 
L 943.294464 161.344619 
L 944.423424 161.080516 
L 946.455552 160.640344 
L 947.52 160.424659 
L 947.52 160.424659 
" clip-path="url(#p25c4be6906)" style="fill: none; stroke: #008000; stroke-width: 2; stroke-linecap: square"/>
   </g>
   <g id="patch_10">
    <path d="M 100.8 242.888276 
L 100.8 150.157241 
" style="fill: none; stroke: #bcbcbc; stroke-width: 0.8; stroke-linejoin: miter; stroke-linecap: square"/>
   </g>
   <g id="patch_11">
    <path d="M 987.84 242.888276 
L 987.84 150.157241 
" style="fill: none; stroke: #bcbcbc; stroke-width: 0.8; stroke-linejoin: miter; stroke-linecap: square"/>
   </g>
   <g id="patch_12">
    <path d="M 100.8 242.888276 
L 987.84 242.888276 
" style="fill: none; stroke: #bcbcbc; stroke-width: 0.8; stroke-linejoin: miter; stroke-linecap: square"/>
   </g>
   <g id="patch_13">
    <path d="M 100.8 150.157241 
L 987.84 150.157241 
" style="fill: none; stroke: #bcbcbc; stroke-width: 0.8; stroke-linejoin: miter; stroke-linecap: square"/>
   </g>
  </g>
  <g id="axes_3">
   <g id="patch_14">
    <path d="M 100.8 354.165517 
L 987.84 354.165517 
L 987.84 261.434483 
L 100.8 261.434483 
z
" style="fill: #eeeeee"/>
   </g>
   <g id="matplotlib.axis_5">
    <g id="xtick_13">
     <g id="line2d_35">
      <path d="M 141.12 354.165517 
L 141.12 261.434483 
" clip-path="url(#pa00b34e49e)" style="fill: none; stroke-dasharray: 1.85,0.8; stroke-dashoffset: 0; stroke: #b2b2b2; stroke-width: 0.5"/>
     </g>
     <g id="line2d_36">
      <g>
       <use xlink:href="#m93638f39c1" x="141.12" y="354.165517" style="stroke: #000000; stroke-width: 0.8"/>
      </g>
     </g>
    </g>
    <g id="xtick_14">
     <g id="line2d_37">
      <path d="M 302.4 354.165517 
L 302.4 261.434483 
" clip-path="url(#pa00b34e49e)" style="fill: none; stroke-dasharray: 1.85,0.8; stroke-dashoffset: 0; stroke: #b2b2b2; stroke-width: 0.5"/>
     </g>
     <g id="line2d_38">
      <g>
       <use xlink:href="#m93638f39c1" x="302.4" y="354.165517" style="stroke: #000000; stroke-width: 0.8"/>
      </g>
     </g>
    </g>
    <g id="xtick_15">
     <g id="line2d_39">
      <path d="M 463.68 354.165517 
L 463.68 261.434483 
" clip-path="url(#pa00b34e49e)" style="fill: none; stroke-dasharray: 1.85,0.8; stroke-dashoffset: 0; stroke: #b2b2b2; stroke-width: 0.5"/>
     </g>
     <g id="line2d_40">
      <g>
       <use xlink:href="#m93638f39c1" x="463.68" y="354.165517" style="stroke: #000000; stroke-width: 0.8"/>
      </g>
     </g>
    </g>
    <g id="xtick_16">
     <g id="line2d_41">
      <path d="M 624.96 354.165517 
L 624.96 261.434483 
" clip-path="url(#pa00b34e49e)" style="fill: none; stroke-dasharray: 1.85,0.8; stroke-dashoffset: 0; stroke: #b2b2b2; stroke-width: 0.5"/>
     </g>
     <g id="line2d_42">
      <g>
       <use xlink:href="#m93638f39c1" x="624.96" y="354.165517" style="stroke: #000000; stroke-width: 0.8"/>
      </g>
     </g>
    </g>
    <g id="xtick_17">
     <g id="line2d_43">
      <path d="M 786.24 354.165517 
L 786.24 261.434483 
" clip-path="url(#pa00b34e49e)" style="fill: none; stroke-dasharray: 1.85,0.8; stroke-dashoffset: 0; stroke: #b2b2b2; stroke-width: 0.5"/>
     </g>
     <g id="line2d_44">
      <g>
       <use xlink:href="#m93638f39c1" x="786.24" y="354.165517" style="stroke: #000000; stroke-width: 0.8"/>
      </g>
     </g>
    </g>
    <g id="xtick_18">
     <g id="line2d_45">
      <path d="M 947.52 354.165517 
L 947.52 261.434483 
" clip-path="url(#pa00b34e49e)" style="fill: none; stroke-dasharray: 1.85,0.8; stroke-dashoffset: 0; stroke: #b2b2b2; stroke-width: 0.5"/>
     </g>
     <g id="line2d_46">
      <g>
       <use xlink:href="#m93638f39c1" x="947.52" y="354.165517" style="stroke: #000000; stroke-width: 0.8"/>
      </g>
     </g>
    </g>
   </g>
   <g id="matplotlib.axis_6">
    <g id="ytick_5">
     <g id="line2d_47">
      <path d="M 100.8 344.745533 
L 987.84 344.745533 
" clip-path="url(#pa00b34e49e)" style="fill: none; stroke-dasharray: 1.85,0.8; stroke-dashoffset: 0; stroke: #b2b2b2; stroke-width: 0.5"/>
     </g>
     <g id="line2d_48">
      <g>
       <use xlink:href="#m40835a0d1e" x="100.8" y="344.745533" style="stroke: #000000; stroke-width: 0.8"/>
      </g>
     </g>
     <g id="text_7">
      <!-- 0 V -->
      <g transform="translate(74.36625 350.064439) scale(0.14 -0.14)">
       <use xlink:href="#DejaVuSans-30"/>
       <use xlink:href="#DejaVuSans-20" x="63.623047"/>
       <use xlink:href="#DejaVuSans-56" x="95.410156"/>
      </g>
     </g>
    </g>
    <g id="ytick_6">
     <g id="line2d_49">
      <path d="M 100.8 303.703605 
L 987.84 303.703605 
" clip-path="url(#pa00b34e49e)" style="fill: none; stroke-dasharray: 1.85,0.8; stroke-dashoffset: 0; stroke: #b2b2b2; stroke-width: 0.5"/>
     </g>
     <g id="line2d_50">
      <g>
       <use xlink:href="#m40835a0d1e" x="100.8" y="303.703605" style="stroke: #000000; stroke-width: 0.8"/>
      </g>
     </g>
     <g id="text_8">
      <!-- 1 V -->
      <g transform="translate(74.36625 309.022511) scale(0.14 -0.14)">
       <use xlink:href="#DejaVuSans-31"/>
       <use xlink:href="#DejaVuSans-20" x="63.623047"/>
       <use xlink:href="#DejaVuSans-56" x="95.410156"/>
      </g>
     </g>
    </g>
    <g id="ytick_7">
     <g id="line2d_51">
      <path d="M 100.8 262.661677 
L 987.84 262.661677 
" clip-path="url(#pa00b34e49e)" style="fill: none; stroke-dasharray: 1.85,0.8; stroke-dashoffset: 0; stroke: #b2b2b2; stroke-width: 0.5"/>
     </g>
     <g id="line2d_52">
      <g>
       <use xlink:href="#m40835a0d1e" x="100.8" y="262.661677" style="stroke: #000000; stroke-width: 0.8"/>
      </g>
     </g>
     <g id="text_9">
      <!-- 2 V -->
      <g transform="translate(74.36625 267.980584) scale(0.14 -0.14)">
       <use xlink:href="#DejaVuSans-32"/>
       <use xlink:href="#DejaVuSans-20" x="63.623047"/>
       <use xlink:href="#DejaVuSans-56" x="95.410156"/>
      </g>
     </g>
    </g>
    <g id="text_10">
     <g id="patch_15">
      <path d="M 34.8768 342.395313 
L 34.8768 273.204688 
L 11.247425 273.204688 
L 11.247425 342.395313 
z
" style="fill: #ffff00; opacity: 0.2; stroke: #eeeeee; stroke-width: 0.5; stroke-linejoin: miter"/>
     </g>
     <!-- CLK BUF -->
     <g transform="translate(26.925238 337.355313) rotate(-90) scale(0.14 -0.14)">
      <defs>
       <path id="DejaVuSans-43" d="M 4122 4306 
L 4122 3641 
Q 3803 3938 3442 4084 
Q 3081 4231 2675 4231 
Q 1875 4231 1450 3742 
Q 1025 3253 1025 2328 
Q 1025 1406 1450 917 
Q 1875 428 2675 428 
Q 3081 428 3442 575 
Q 3803 722 4122 1019 
L 4122 359 
Q 3791 134 3420 21 
Q 3050 -91 2638 -91 
Q 1578 -91 968 557 
Q 359 1206 359 2328 
Q 359 3453 968 4101 
Q 1578 4750 2638 4750 
Q 3056 4750 3426 4639 
Q 3797 4528 4122 4306 
z
" transform="scale(0.015625)"/>
       <path id="DejaVuSans-4b" d="M 628 4666 
L 1259 4666 
L 1259 2694 
L 3353 4666 
L 4166 4666 
L 1850 2491 
L 4331 0 
L 3500 0 
L 1259 2247 
L 1259 0 
L 628 0 
L 628 4666 
z
" transform="scale(0.015625)"/>
      </defs>
      <use xlink:href="#DejaVuSans-43"/>
      <use xlink:href="#DejaVuSans-4c" x="69.824219"/>
      <use xlink:href="#DejaVuSans-4b" x="125.537109"/>
      <use xlink:href="#DejaVuSans-20" x="191.113281"/>
      <use xlink:href="#DejaVuSans-42" x="222.900391"/>
      <use xlink:href="#DejaVuSans-55" x="291.503906"/>
      <use xlink:href="#DejaVuSans-46" x="364.697266"/>
     </g>
    </g>
   </g>
   <g id="line2d_53">
    <path d="M 141.12 344.744448 
L 173.376 344.744448 
L 173.601792 295.49522 
L 202.503168 295.601929 
L 204.148224 297.871547 
L 205.825536 300.633669 
L 212.72832 311.837705 
L 213.696 313.276224 
L 213.728256 311.389937 
L 213.954048 346.0205 
L 213.986304 346.017545 
L 218.727936 345.880712 
L 221.179392 346.057356 
L 222.050304 346.409824 
L 227.24352 349.417336 
L 228.275712 349.924614 
L 229.114368 349.49983 
L 229.307904 349.435804 
L 235.920384 347.265877 
L 236.146176 347.204888 
L 236.59776 347.077494 
L 237.113856 346.933437 
L 237.436416 346.83982 
L 242.113536 345.661835 
L 242.7264 345.534564 
L 243.307008 345.41505 
L 247.016448 344.776812 
L 251.91936 344.212193 
L 254.016 344.212604 
L 254.048256 343.108206 
L 254.209536 317.682075 
L 254.886912 317.277812 
L 260.886528 313.893085 
L 264.98304 311.881209 
L 266.9184 310.968026 
L 267.208704 310.507946 
L 268.434432 308.271572 
L 270.982656 302.968955 
L 274.046976 296.603352 
L 274.724352 295.277697 
L 276.982272 290.927253 
L 282.530304 281.270087 
L 283.53024 279.685869 
L 285.30432 276.964789 
L 292.755456 265.768551 
L 294.206976 265.686468 
L 294.336 265.723405 
L 294.49728 344.825039 
L 294.594048 344.733667 
L 294.626304 344.751559 
L 295.852032 344.982706 
L 297.88416 345.099121 
L 303.174144 345.113269 
L 313.334784 345.177992 
L 316.463616 345.214232 
L 334.656 345.063394 
L 334.785024 283.2401 
L 334.881792 283.355017 
L 335.752704 283.679249 
L 336.075264 283.785958 
L 338.784768 284.705297 
L 339.075072 284.812006 
L 340.816896 285.361968 
L 341.203968 285.468677 
L 342.72 285.936555 
L 343.139328 286.043264 
L 344.429568 286.424954 
L 345.203712 286.630163 
L 346.139136 286.880519 
L 346.526208 286.987228 
L 347.39712 287.208854 
L 347.784192 287.315563 
L 348.558336 287.496148 
L 348.945408 287.602857 
L 349.719552 287.783441 
L 350.203392 287.89015 
L 350.977536 288.070735 
L 351.461376 288.177444 
L 352.23552 288.358028 
L 352.71936 288.464737 
L 353.36448 288.60428 
L 353.880576 288.710989 
L 354.525696 288.850532 
L 355.041792 288.957241 
L 355.686912 289.096783 
L 356.203008 289.203492 
L 356.75136 289.301993 
L 357.267456 289.408702 
L 357.815808 289.507202 
L 358.428672 289.613911 
L 358.977024 289.712412 
L 359.49312 289.819121 
L 360.041472 289.917622 
L 360.654336 290.024331 
L 361.202688 290.122831 
L 361.91232 290.225436 
L 362.267136 290.286999 
L 362.88 290.389604 
L 363.234816 290.451167 
L 363.944448 290.553772 
L 364.299264 290.615334 
L 365.008896 290.717939 
L 365.363712 290.779502 
L 366.073344 290.882107 
L 366.42816 290.94367 
L 367.23456 291.046275 
L 367.589376 291.107838 
L 368.492544 291.210442 
L 368.84736 291.272005 
L 369.65376 291.37461 
L 369.911808 291.395131 
L 370.62144 291.497736 
L 370.879488 291.518257 
L 371.685888 291.620862 
L 372.040704 291.67832 
L 374.976 292.01076 
L 375.008256 297.637608 
L 375.072768 345.38156 
L 375.13728 344.800767 
L 375.169536 344.802134 
L 375.201792 344.915623 
L 375.266304 344.841871 
L 375.750144 344.837968 
L 415.296 344.771188 
L 415.425024 294.362462 
L 415.521792 294.551255 
L 419.682816 294.657964 
L 419.940864 294.674381 
L 424.617984 294.78109 
L 424.876032 294.797507 
L 430.520832 294.904216 
L 430.77888 294.920633 
L 437.778432 295.027342 
L 438.03648 295.043758 
L 455.616 295.0848 
L 455.745024 345.059003 
L 455.906304 344.82027 
L 456.164352 344.728789 
L 456.519168 344.773434 
L 456.841728 344.75599 
L 495.936 344.756202 
L 496.09728 294.871382 
L 496.161792 295.335156 
L 496.25856 294.912424 
L 496.323072 295.068384 
L 496.806912 295.0848 
L 536.256 295.0848 
L 536.385024 345.058933 
L 536.546304 344.82027 
L 536.804352 344.728789 
L 537.159168 344.773434 
L 537.481728 344.755986 
L 576.576 344.756201 
L 576.705024 294.916528 
L 576.769536 295.088905 
L 576.834048 295.117634 
L 576.866304 295.093009 
L 577.05984 295.0848 
L 616.896 295.0848 
L 617.025024 345.058921 
L 617.186304 344.820274 
L 617.444352 344.728787 
L 617.799168 344.773434 
L 618.121728 344.755986 
L 657.216 344.756201 
L 657.37728 294.871382 
L 657.441792 295.335156 
L 657.53856 294.916528 
L 657.603072 295.068384 
L 658.086912 295.0848 
L 697.536 295.0848 
L 697.665024 345.059007 
L 697.826304 344.820262 
L 698.084352 344.728784 
L 698.439168 344.773453 
L 698.761728 344.755987 
L 737.856 344.756201 
L 738.01728 294.871382 
L 738.081792 295.335156 
L 738.17856 294.912424 
L 738.243072 295.068384 
L 738.726912 295.0848 
L 778.176 295.0848 
L 778.305024 345.058929 
L 778.466304 344.820274 
L 778.724352 344.728788 
L 779.079168 344.773434 
L 779.401728 344.755986 
L 818.496 344.756201 
L 818.65728 294.871382 
L 818.721792 295.335156 
L 818.81856 294.912424 
L 818.883072 295.068384 
L 819.366912 295.0848 
L 858.816 295.0848 
L 858.945024 345.059007 
L 859.106304 344.820262 
L 859.364352 344.728784 
L 859.719168 344.773453 
L 860.041728 344.755987 
L 899.136 344.756201 
L 899.29728 294.871382 
L 899.361792 295.335156 
L 899.45856 294.912424 
L 899.523072 295.068384 
L 900.006912 295.0848 
L 939.456 295.0848 
L 939.488256 302.48466 
L 939.61728 344.707391 
L 939.649536 344.82673 
L 939.714048 344.712551 
L 939.810816 344.729509 
L 940.004352 344.780762 
L 940.230144 344.754899 
L 945.9072 344.756203 
L 947.52 344.756192 
L 947.52 344.756192 
" clip-path="url(#pa00b34e49e)" style="fill: none; stroke: #0000ff; stroke-width: 2; stroke-linecap: square"/>
   </g>
   <g id="patch_16">
    <path d="M 100.8 354.165517 
L 100.8 261.434483 
" style="fill: none; stroke: #bcbcbc; stroke-width: 0.8; stroke-linejoin: miter; stroke-linecap: square"/>
   </g>
   <g id="patch_17">
    <path d="M 987.84 354.165517 
L 987.84 261.434483 
" style="fill: none; stroke: #bcbcbc; stroke-width: 0.8; stroke-linejoin: miter; stroke-linecap: square"/>
   </g>
   <g id="patch_18">
    <path d="M 100.8 354.165517 
L 987.84 354.165517 
" style="fill: none; stroke: #bcbcbc; stroke-width: 0.8; stroke-linejoin: miter; stroke-linecap: square"/>
   </g>
   <g id="patch_19">
    <path d="M 100.8 261.434483 
L 987.84 261.434483 
" style="fill: none; stroke: #bcbcbc; stroke-width: 0.8; stroke-linejoin: miter; stroke-linecap: square"/>
   </g>
  </g>
  <g id="axes_4">
   <g id="patch_20">
    <path d="M 100.8 465.442759 
L 987.84 465.442759 
L 987.84 372.711724 
L 100.8 372.711724 
z
" style="fill: #eeeeee"/>
   </g>
   <g id="matplotlib.axis_7">
    <g id="xtick_19">
     <g id="line2d_54">
      <path d="M 141.12 465.442759 
L 141.12 372.711724 
" clip-path="url(#p778b3f41ce)" style="fill: none; stroke-dasharray: 1.85,0.8; stroke-dashoffset: 0; stroke: #b2b2b2; stroke-width: 0.5"/>
     </g>
     <g id="line2d_55">
      <g>
       <use xlink:href="#m93638f39c1" x="141.12" y="465.442759" style="stroke: #000000; stroke-width: 0.8"/>
      </g>
     </g>
    </g>
    <g id="xtick_20">
     <g id="line2d_56">
      <path d="M 302.4 465.442759 
L 302.4 372.711724 
" clip-path="url(#p778b3f41ce)" style="fill: none; stroke-dasharray: 1.85,0.8; stroke-dashoffset: 0; stroke: #b2b2b2; stroke-width: 0.5"/>
     </g>
     <g id="line2d_57">
      <g>
       <use xlink:href="#m93638f39c1" x="302.4" y="465.442759" style="stroke: #000000; stroke-width: 0.8"/>
      </g>
     </g>
    </g>
    <g id="xtick_21">
     <g id="line2d_58">
      <path d="M 463.68 465.442759 
L 463.68 372.711724 
" clip-path="url(#p778b3f41ce)" style="fill: none; stroke-dasharray: 1.85,0.8; stroke-dashoffset: 0; stroke: #b2b2b2; stroke-width: 0.5"/>
     </g>
     <g id="line2d_59">
      <g>
       <use xlink:href="#m93638f39c1" x="463.68" y="465.442759" style="stroke: #000000; stroke-width: 0.8"/>
      </g>
     </g>
    </g>
    <g id="xtick_22">
     <g id="line2d_60">
      <path d="M 624.96 465.442759 
L 624.96 372.711724 
" clip-path="url(#p778b3f41ce)" style="fill: none; stroke-dasharray: 1.85,0.8; stroke-dashoffset: 0; stroke: #b2b2b2; stroke-width: 0.5"/>
     </g>
     <g id="line2d_61">
      <g>
       <use xlink:href="#m93638f39c1" x="624.96" y="465.442759" style="stroke: #000000; stroke-width: 0.8"/>
      </g>
     </g>
    </g>
    <g id="xtick_23">
     <g id="line2d_62">
      <path d="M 786.24 465.442759 
L 786.24 372.711724 
" clip-path="url(#p778b3f41ce)" style="fill: none; stroke-dasharray: 1.85,0.8; stroke-dashoffset: 0; stroke: #b2b2b2; stroke-width: 0.5"/>
     </g>
     <g id="line2d_63">
      <g>
       <use xlink:href="#m93638f39c1" x="786.24" y="465.442759" style="stroke: #000000; stroke-width: 0.8"/>
      </g>
     </g>
    </g>
    <g id="xtick_24">
     <g id="line2d_64">
      <path d="M 947.52 465.442759 
L 947.52 372.711724 
" clip-path="url(#p778b3f41ce)" style="fill: none; stroke-dasharray: 1.85,0.8; stroke-dashoffset: 0; stroke: #b2b2b2; stroke-width: 0.5"/>
     </g>
     <g id="line2d_65">
      <g>
       <use xlink:href="#m93638f39c1" x="947.52" y="465.442759" style="stroke: #000000; stroke-width: 0.8"/>
      </g>
     </g>
    </g>
   </g>
   <g id="matplotlib.axis_8">
    <g id="ytick_8">
     <g id="line2d_66">
      <path d="M 100.8 434.368475 
L 987.84 434.368475 
" clip-path="url(#p778b3f41ce)" style="fill: none; stroke-dasharray: 1.85,0.8; stroke-dashoffset: 0; stroke: #b2b2b2; stroke-width: 0.5"/>
     </g>
     <g id="line2d_67">
      <g>
       <use xlink:href="#m40835a0d1e" x="100.8" y="434.368475" style="stroke: #000000; stroke-width: 0.8"/>
      </g>
     </g>
     <g id="text_11">
      <!-- 0 V -->
      <g transform="translate(74.36625 439.687381) scale(0.14 -0.14)">
       <use xlink:href="#DejaVuSans-30"/>
       <use xlink:href="#DejaVuSans-20" x="63.623047"/>
       <use xlink:href="#DejaVuSans-56" x="95.410156"/>
      </g>
     </g>
    </g>
    <g id="ytick_9">
     <g id="line2d_68">
      <path d="M 100.8 387.369863 
L 987.84 387.369863 
" clip-path="url(#p778b3f41ce)" style="fill: none; stroke-dasharray: 1.85,0.8; stroke-dashoffset: 0; stroke: #b2b2b2; stroke-width: 0.5"/>
     </g>
     <g id="line2d_69">
      <g>
       <use xlink:href="#m40835a0d1e" x="100.8" y="387.369863" style="stroke: #000000; stroke-width: 0.8"/>
      </g>
     </g>
     <g id="text_12">
      <!-- 1 V -->
      <g transform="translate(74.36625 392.688769) scale(0.14 -0.14)">
       <use xlink:href="#DejaVuSans-31"/>
       <use xlink:href="#DejaVuSans-20" x="63.623047"/>
       <use xlink:href="#DejaVuSans-56" x="95.410156"/>
      </g>
     </g>
    </g>
    <g id="text_13">
     <g id="patch_21">
      <path d="M 34.8768 454.693023 
L 34.8768 383.46146 
L 11.247425 383.46146 
L 11.247425 454.693023 
z
" style="fill: #ffff00; opacity: 0.2; stroke: #eeeeee; stroke-width: 0.5; stroke-linejoin: miter"/>
     </g>
     <!-- DFF OUT -->
     <g transform="translate(26.925238 449.653023) rotate(-90) scale(0.14 -0.14)">
      <defs>
       <path id="DejaVuSans-4f" d="M 2522 4238 
Q 1834 4238 1429 3725 
Q 1025 3213 1025 2328 
Q 1025 1447 1429 934 
Q 1834 422 2522 422 
Q 3209 422 3611 934 
Q 4013 1447 4013 2328 
Q 4013 3213 3611 3725 
Q 3209 4238 2522 4238 
z
M 2522 4750 
Q 3503 4750 4090 4092 
Q 4678 3434 4678 2328 
Q 4678 1225 4090 567 
Q 3503 -91 2522 -91 
Q 1538 -91 948 565 
Q 359 1222 359 2328 
Q 359 3434 948 4092 
Q 1538 4750 2522 4750 
z
" transform="scale(0.015625)"/>
       <path id="DejaVuSans-54" d="M -19 4666 
L 3928 4666 
L 3928 4134 
L 2272 4134 
L 2272 0 
L 1638 0 
L 1638 4134 
L -19 4134 
L -19 4666 
z
" transform="scale(0.015625)"/>
      </defs>
      <use xlink:href="#DejaVuSans-44"/>
      <use xlink:href="#DejaVuSans-46" x="77.001953"/>
      <use xlink:href="#DejaVuSans-46" x="134.521484"/>
      <use xlink:href="#DejaVuSans-20" x="192.041016"/>
      <use xlink:href="#DejaVuSans-4f" x="223.828125"/>
      <use xlink:href="#DejaVuSans-55" x="302.539062"/>
      <use xlink:href="#DejaVuSans-54" x="375.732422"/>
     </g>
    </g>
   </g>
   <g id="line2d_70">
    <path d="M 141.12 398.906612 
L 173.408256 398.96395 
L 173.440512 400.909693 
L 173.601792 434.371343 
L 174.02112 434.365484 
L 182.149632 434.367212 
L 202.470912 434.454313 
L 203.148288 435.164678 
L 203.922432 435.608251 
L 204.890112 435.878211 
L 206.373888 436.013191 
L 209.18016 435.98471 
L 212.40576 435.780031 
L 213.341184 435.516275 
L 213.728256 435.203452 
L 213.889536 434.964746 
L 214.276608 430.105325 
L 214.405632 424.389729 
L 214.631424 413.807992 
L 214.66368 413.774623 
L 214.695936 413.831021 
L 214.953984 414.988127 
L 215.341056 417.27273 
L 215.373312 416.683837 
L 215.437824 416.884521 
L 215.599104 418.633339 
L 215.889408 420.277821 
L 215.921664 419.772116 
L 215.95392 420.432446 
L 215.986176 419.909822 
L 216.082944 420.423987 
L 216.244224 422.180795 
L 218.437632 433.246806 
L 218.469888 433.363973 
L 218.502144 433.185003 
L 218.5344 433.008335 
L 218.566656 433.189938 
L 218.824704 435.149169 
L 219.147264 436.618956 
L 219.17952 436.317319 
L 219.211776 436.822601 
L 219.244032 436.406805 
L 219.276288 436.55015 
L 219.437568 437.899528 
L 219.98592 439.966009 
L 220.050432 439.634199 
L 220.082688 439.793995 
L 220.9536 442.836215 
L 221.243904 443.494195 
L 221.27616 443.34239 
L 221.340672 443.433567 
L 221.695488 444.203874 
L 221.792256 444.919663 
L 221.856768 444.716629 
L 221.889024 444.800287 
L 221.953536 445.305522 
L 222.018048 445.180506 
L 222.437376 446.775638 
L 223.340544 449.08045 
L 223.501824 449.75676 
L 223.953408 450.764411 
L 224.01792 450.823629 
L 224.114688 451.053452 
L 224.275968 451.828929 
L 224.308224 451.621665 
L 224.34048 451.899897 
L 224.372736 451.775351 
L 225.501696 454.749423 
L 225.533952 454.683625 
L 225.566208 454.786552 
L 225.727488 455.458632 
L 228.2112 461.227712 
L 228.243456 461.100345 
L 228.598272 460.735636 
L 228.85632 459.798484 
L 228.920832 460.008568 
L 228.985344 459.165882 
L 229.049856 459.221341 
L 229.082112 459.795194 
L 229.17888 459.563491 
L 229.372416 459.012197 
L 229.598208 458.388055 
L 230.211072 457.21262 
L 230.243328 457.242229 
L 230.30784 456.313067 
L 230.340096 457.117213 
L 231.340032 455.1992 
L 231.727104 454.627697 
L 231.75936 454.83167 
L 231.823872 454.567538 
L 231.856128 454.698194 
L 231.888384 454.602317 
L 232.049664 454.222098 
L 232.08192 454.333015 
L 232.114176 454.129511 
L 232.146432 454.249828 
L 232.307712 453.967836 
L 232.339968 454.019064 
L 232.372224 453.901568 
L 234.17856 451.279985 
L 234.210816 451.516388 
L 234.243072 451.216537 
L 234.275328 451.357533 
L 234.436608 451.039822 
L 234.468864 451.11972 
L 234.50112 451.149799 
L 234.630144 450.809999 
L 234.920448 450.649734 
L 235.404288 449.865327 
L 235.79136 449.213926 
L 235.855872 449.408031 
L 235.888128 449.163168 
L 235.920384 449.020762 
L 235.95264 449.346462 
L 235.984896 449.057421 
L 236.017152 449.277375 
L 236.049408 449.000083 
L 236.11392 449.0875 
L 236.307456 448.546546 
L 236.339712 448.878826 
L 236.404224 448.41401 
L 236.43648 448.650413 
L 236.500992 448.302623 
L 236.533248 448.547956 
L 236.662272 448.208626 
L 236.694528 448.41683 
L 236.726784 448.128728 
L 236.888064 447.896085 
L 236.984832 447.803498 
L 237.017088 448.05964 
L 237.049344 447.764959 
L 237.113856 447.940264 
L 237.24288 447.609394 
L 237.533184 447.458998 
L 237.984768 446.930734 
L 238.146048 446.621013 
L 238.307328 446.202255 
L 238.436352 445.959742 
L 238.468608 446.286383 
L 238.53312 445.818747 
L 238.565376 446.129407 
L 238.597632 445.771278 
L 238.629888 445.803707 
L 238.791168 445.502916 
L 238.85568 445.724279 
L 238.952448 445.741669 
L 238.984704 445.290952 
L 239.275008 444.928593 
L 239.82336 444.432758 
L 240.597504 443.864544 
L 241.081344 443.213144 
L 241.210368 442.754907 
L 241.27488 442.958881 
L 241.403904 442.441896 
L 241.468416 442.813655 
L 241.59744 442.186224 
L 241.823232 441.915982 
L 241.855488 442.390668 
L 241.952256 442.265652 
L 242.08128 441.609081 
L 242.113536 441.614251 
L 242.145792 442.091287 
L 242.178048 441.484535 
L 242.210304 441.906582 
L 242.24256 441.829504 
L 242.371584 441.345889 
L 242.40384 441.353409 
L 242.436096 441.781096 
L 242.468352 441.267401 
L 242.500608 441.284321 
L 242.532864 441.503334 
L 242.597376 441.471375 
L 242.790912 441.094916 
L 242.823168 441.383958 
L 242.88768 441.182334 
L 244.597248 439.456075 
L 244.694016 438.734693 
L 244.726272 438.744704 
L 244.82304 439.136014 
L 244.790784 438.624575 
L 244.855296 439.071156 
L 244.887552 438.492979 
L 244.952064 439.079146 
L 244.98432 438.726186 
L 245.048832 438.941252 
L 245.081088 438.357623 
L 245.210112 438.623212 
L 245.30688 438.112102 
L 245.371392 438.216251 
L 245.403648 438.570762 
L 245.435904 438.539132 
L 245.564928 437.912687 
L 245.597184 438.068488 
L 245.62944 437.899105 
L 245.693952 438.005368 
L 245.726208 437.783206 
L 245.758464 437.90512 
L 245.79072 438.162579 
L 245.822976 437.948171 
L 245.952 437.678211 
L 246.27456 437.645265 
L 247.5648 436.13426 
L 247.72608 435.181786 
L 247.758336 435.605431 
L 247.790592 435.697408 
L 247.822848 435.542312 
L 247.951872 435.107199 
L 247.984128 435.308635 
L 248.04864 435.275642 
L 248.080896 434.701803 
L 248.145408 434.793676 
L 248.177664 435.001546 
L 248.242176 434.902614 
L 248.274432 434.360233 
L 248.3712 434.373156 
L 248.53248 434.347368 
L 249.50016 432.33837 
L 249.532416 431.438393 
L 249.629184 431.666243 
L 249.66144 431.777629 
L 249.693696 431.635928 
L 249.725952 431.7546 
L 249.82272 431.181734 
L 249.887232 431.389186 
L 250.177536 430.851099 
L 250.919424 429.240926 
L 251.016192 428.316934 
L 251.048448 428.934965 
L 251.11296 428.1092 
L 251.145216 428.730521 
L 251.209728 428.064081 
L 251.27424 428.116249 
L 251.403264 428.072541 
L 252.499968 425.700991 
L 252.628992 425.021391 
L 252.72576 425.199516 
L 252.790272 425.051 
L 253.951488 422.383829 
L 254.112768 421.885643 
L 254.274048 421.489445 
L 254.306304 421.514824 
L 254.370816 421.504955 
L 254.403072 421.452316 
L 254.854656 420.342679 
L 254.919168 420.551823 
L 255.209472 419.9775 
L 255.403008 419.614671 
L 255.532032 419.524903 
L 256.306176 417.94857 
L 256.499712 416.892981 
L 257.2416 415.076485 
L 257.40288 414.332966 
L 257.88672 412.731254 
L 258.112512 411.741933 
L 258.306048 411.653576 
L 258.499584 411.83781 
L 258.564096 411.710444 
L 259.82208 408.936586 
L 259.918848 408.44075 
L 259.951104 408.46801 
L 260.047872 408.623105 
L 260.112384 408.518768 
L 262.047744 404.885775 
L 262.08 404.943584 
L 262.370304 405.491118 
L 262.467072 406.839508 
L 262.660608 422.575113 
L 262.821888 433.630503 
L 263.04768 433.728871 
L 265.208832 433.847354 
L 266.950656 433.835464 
L 267.628032 433.124281 
L 268.36992 432.698379 
L 269.240832 432.44407 
L 270.498816 432.311581 
L 272.756736 432.326385 
L 283.820544 432.808309 
L 287.013888 432.825134 
L 289.046016 432.808638 
L 292.755456 433.001144 
L 293.465088 433.772579 
L 294.239232 434.241705 
L 295.174656 434.538755 
L 296.626176 434.730364 
L 299.303424 434.806272 
L 307.88352 434.752731 
L 312.754176 434.826613 
L 314.721792 434.911309 
L 319.302144 434.88029 
L 334.688256 434.734143 
L 334.720512 434.848284 
L 334.785024 434.670831 
L 334.946304 434.731544 
L 357.170688 434.558913 
L 379.8144 434.462157 
L 415.328256 434.409418 
L 415.360512 434.659645 
L 415.392768 434.251622 
L 415.554048 429.621615 
L 415.876608 428.316934 
L 416.070144 426.912145 
L 416.231424 424.181996 
L 416.392704 417.086145 
L 416.650752 388.443781 
L 416.812032 377.232262 
L 417.005568 376.936171 
L 417.747456 376.936171 
L 421.198848 377.044268 
L 421.553664 377.081867 
L 422.327808 377.077167 
L 426.42432 377.185264 
L 426.779136 377.222862 
L 427.55328 377.218163 
L 432.71424 377.326259 
L 433.0368 377.359158 
L 440.649216 377.467255 
L 440.971776 377.500154 
L 495.968256 377.495454 
L 496.000512 377.735147 
L 496.065024 377.495454 
L 496.25856 377.471955 
L 497.161728 377.495454 
L 576.608256 377.495454 
L 576.640512 377.730447 
L 576.705024 377.471955 
L 576.930816 377.490755 
L 657.248256 377.495454 
L 657.280512 377.735147 
L 657.345024 377.495454 
L 657.53856 377.471955 
L 658.441728 377.495454 
L 737.888256 377.495454 
L 737.920512 377.735147 
L 737.985024 377.495454 
L 738.17856 377.471955 
L 739.081728 377.495454 
L 818.528256 377.495454 
L 818.560512 377.735147 
L 818.625024 377.495454 
L 818.81856 377.471955 
L 819.721728 377.495454 
L 899.168256 377.495454 
L 899.200512 377.735147 
L 899.265024 377.495454 
L 899.45856 377.471955 
L 900.361728 377.495454 
L 947.52 377.500154 
L 947.52 377.500154 
" clip-path="url(#p778b3f41ce)" style="fill: none; stroke: #ff00ff; stroke-width: 2; stroke-linecap: square"/>
   </g>
   <g id="patch_22">
    <path d="M 100.8 465.442759 
L 100.8 372.711724 
" style="fill: none; stroke: #bcbcbc; stroke-width: 0.8; stroke-linejoin: miter; stroke-linecap: square"/>
   </g>
   <g id="patch_23">
    <path d="M 987.84 465.442759 
L 987.84 372.711724 
" style="fill: none; stroke: #bcbcbc; stroke-width: 0.8; stroke-linejoin: miter; stroke-linecap: square"/>
   </g>
   <g id="patch_24">
    <path d="M 100.8 465.442759 
L 987.84 465.442759 
" style="fill: none; stroke: #bcbcbc; stroke-width: 0.8; stroke-linejoin: miter; stroke-linecap: square"/>
   </g>
   <g id="patch_25">
    <path d="M 100.8 372.711724 
L 987.84 372.711724 
" style="fill: none; stroke: #bcbcbc; stroke-width: 0.8; stroke-linejoin: miter; stroke-linecap: square"/>
   </g>
  </g>
  <g id="axes_5">
   <g id="patch_26">
    <path d="M 100.8 576.72 
L 987.84 576.72 
L 987.84 483.988966 
L 100.8 483.988966 
z
" style="fill: #eeeeee"/>
   </g>
   <g id="matplotlib.axis_9">
    <g id="xtick_25">
     <g id="line2d_71">
      <path d="M 141.12 576.72 
L 141.12 483.988966 
" clip-path="url(#p1d464248a1)" style="fill: none; stroke-dasharray: 1.85,0.8; stroke-dashoffset: 0; stroke: #b2b2b2; stroke-width: 0.5"/>
     </g>
     <g id="line2d_72">
      <g>
       <use xlink:href="#m93638f39c1" x="141.12" y="576.72" style="stroke: #000000; stroke-width: 0.8"/>
      </g>
     </g>
     <g id="text_14">
      <!-- 0 s -->
      <g transform="translate(130.795 590.857813) scale(0.14 -0.14)">
       <defs>
        <path id="DejaVuSans-73" d="M 2834 3397 
L 2834 2853 
Q 2591 2978 2328 3040 
Q 2066 3103 1784 3103 
Q 1356 3103 1142 2972 
Q 928 2841 928 2578 
Q 928 2378 1081 2264 
Q 1234 2150 1697 2047 
L 1894 2003 
Q 2506 1872 2764 1633 
Q 3022 1394 3022 966 
Q 3022 478 2636 193 
Q 2250 -91 1575 -91 
Q 1294 -91 989 -36 
Q 684 19 347 128 
L 347 722 
Q 666 556 975 473 
Q 1284 391 1588 391 
Q 1994 391 2212 530 
Q 2431 669 2431 922 
Q 2431 1156 2273 1281 
Q 2116 1406 1581 1522 
L 1381 1569 
Q 847 1681 609 1914 
Q 372 2147 372 2553 
Q 372 3047 722 3315 
Q 1072 3584 1716 3584 
Q 2034 3584 2315 3537 
Q 2597 3491 2834 3397 
z
" transform="scale(0.015625)"/>
       </defs>
       <use xlink:href="#DejaVuSans-30"/>
       <use xlink:href="#DejaVuSans-20" x="63.623047"/>
       <use xlink:href="#DejaVuSans-73" x="95.410156"/>
      </g>
     </g>
    </g>
    <g id="xtick_26">
     <g id="line2d_73">
      <path d="M 302.4 576.72 
L 302.4 483.988966 
" clip-path="url(#p1d464248a1)" style="fill: none; stroke-dasharray: 1.85,0.8; stroke-dashoffset: 0; stroke: #b2b2b2; stroke-width: 0.5"/>
     </g>
     <g id="line2d_74">
      <g>
       <use xlink:href="#m93638f39c1" x="302.4" y="576.72" style="stroke: #000000; stroke-width: 0.8"/>
      </g>
     </g>
     <g id="text_15">
      <!-- 50 ns -->
      <g transform="translate(283.185 590.857813) scale(0.14 -0.14)">
       <defs>
        <path id="DejaVuSans-35" d="M 691 4666 
L 3169 4666 
L 3169 4134 
L 1269 4134 
L 1269 2991 
Q 1406 3038 1543 3061 
Q 1681 3084 1819 3084 
Q 2600 3084 3056 2656 
Q 3513 2228 3513 1497 
Q 3513 744 3044 326 
Q 2575 -91 1722 -91 
Q 1428 -91 1123 -41 
Q 819 9 494 109 
L 494 744 
Q 775 591 1075 516 
Q 1375 441 1709 441 
Q 2250 441 2565 725 
Q 2881 1009 2881 1497 
Q 2881 1984 2565 2268 
Q 2250 2553 1709 2553 
Q 1456 2553 1204 2497 
Q 953 2441 691 2322 
L 691 4666 
z
" transform="scale(0.015625)"/>
        <path id="DejaVuSans-6e" d="M 3513 2113 
L 3513 0 
L 2938 0 
L 2938 2094 
Q 2938 2591 2744 2837 
Q 2550 3084 2163 3084 
Q 1697 3084 1428 2787 
Q 1159 2491 1159 1978 
L 1159 0 
L 581 0 
L 581 3500 
L 1159 3500 
L 1159 2956 
Q 1366 3272 1645 3428 
Q 1925 3584 2291 3584 
Q 2894 3584 3203 3211 
Q 3513 2838 3513 2113 
z
" transform="scale(0.015625)"/>
       </defs>
       <use xlink:href="#DejaVuSans-35"/>
       <use xlink:href="#DejaVuSans-30" x="63.623047"/>
       <use xlink:href="#DejaVuSans-20" x="127.246094"/>
       <use xlink:href="#DejaVuSans-6e" x="159.033203"/>
       <use xlink:href="#DejaVuSans-73" x="222.412109"/>
      </g>
     </g>
    </g>
    <g id="xtick_27">
     <g id="line2d_75">
      <path d="M 463.68 576.72 
L 463.68 483.988966 
" clip-path="url(#p1d464248a1)" style="fill: none; stroke-dasharray: 1.85,0.8; stroke-dashoffset: 0; stroke: #b2b2b2; stroke-width: 0.5"/>
     </g>
     <g id="line2d_76">
      <g>
       <use xlink:href="#m93638f39c1" x="463.68" y="576.72" style="stroke: #000000; stroke-width: 0.8"/>
      </g>
     </g>
     <g id="text_16">
      <!-- 100 ns -->
      <g transform="translate(440.01125 590.857813) scale(0.14 -0.14)">
       <use xlink:href="#DejaVuSans-31"/>
       <use xlink:href="#DejaVuSans-30" x="63.623047"/>
       <use xlink:href="#DejaVuSans-30" x="127.246094"/>
       <use xlink:href="#DejaVuSans-20" x="190.869141"/>
       <use xlink:href="#DejaVuSans-6e" x="222.65625"/>
       <use xlink:href="#DejaVuSans-73" x="286.035156"/>
      </g>
     </g>
    </g>
    <g id="xtick_28">
     <g id="line2d_77">
      <path d="M 624.96 576.72 
L 624.96 483.988966 
" clip-path="url(#p1d464248a1)" style="fill: none; stroke-dasharray: 1.85,0.8; stroke-dashoffset: 0; stroke: #b2b2b2; stroke-width: 0.5"/>
     </g>
     <g id="line2d_78">
      <g>
       <use xlink:href="#m93638f39c1" x="624.96" y="576.72" style="stroke: #000000; stroke-width: 0.8"/>
      </g>
     </g>
     <g id="text_17">
      <!-- 150 ns -->
      <g transform="translate(601.29125 590.857813) scale(0.14 -0.14)">
       <use xlink:href="#DejaVuSans-31"/>
       <use xlink:href="#DejaVuSans-35" x="63.623047"/>
       <use xlink:href="#DejaVuSans-30" x="127.246094"/>
       <use xlink:href="#DejaVuSans-20" x="190.869141"/>
       <use xlink:href="#DejaVuSans-6e" x="222.65625"/>
       <use xlink:href="#DejaVuSans-73" x="286.035156"/>
      </g>
     </g>
    </g>
    <g id="xtick_29">
     <g id="line2d_79">
      <path d="M 786.24 576.72 
L 786.24 483.988966 
" clip-path="url(#p1d464248a1)" style="fill: none; stroke-dasharray: 1.85,0.8; stroke-dashoffset: 0; stroke: #b2b2b2; stroke-width: 0.5"/>
     </g>
     <g id="line2d_80">
      <g>
       <use xlink:href="#m93638f39c1" x="786.24" y="576.72" style="stroke: #000000; stroke-width: 0.8"/>
      </g>
     </g>
     <g id="text_18">
      <!-- 200 ns -->
      <g transform="translate(762.57125 590.857813) scale(0.14 -0.14)">
       <use xlink:href="#DejaVuSans-32"/>
       <use xlink:href="#DejaVuSans-30" x="63.623047"/>
       <use xlink:href="#DejaVuSans-30" x="127.246094"/>
       <use xlink:href="#DejaVuSans-20" x="190.869141"/>
       <use xlink:href="#DejaVuSans-6e" x="222.65625"/>
       <use xlink:href="#DejaVuSans-73" x="286.035156"/>
      </g>
     </g>
    </g>
    <g id="xtick_30">
     <g id="line2d_81">
      <path d="M 947.52 576.72 
L 947.52 483.988966 
" clip-path="url(#p1d464248a1)" style="fill: none; stroke-dasharray: 1.85,0.8; stroke-dashoffset: 0; stroke: #b2b2b2; stroke-width: 0.5"/>
     </g>
     <g id="line2d_82">
      <g>
       <use xlink:href="#m93638f39c1" x="947.52" y="576.72" style="stroke: #000000; stroke-width: 0.8"/>
      </g>
     </g>
     <g id="text_19">
      <!-- 250 ns -->
      <g transform="translate(923.85125 590.857813) scale(0.14 -0.14)">
       <use xlink:href="#DejaVuSans-32"/>
       <use xlink:href="#DejaVuSans-35" x="63.623047"/>
       <use xlink:href="#DejaVuSans-30" x="127.246094"/>
       <use xlink:href="#DejaVuSans-20" x="190.869141"/>
       <use xlink:href="#DejaVuSans-6e" x="222.65625"/>
       <use xlink:href="#DejaVuSans-73" x="286.035156"/>
      </g>
     </g>
    </g>
    <g id="text_20">
     <!-- Time -->
     <g transform="translate(527.192969 608.407187) scale(0.14 -0.14)">
      <defs>
       <path id="DejaVuSans-69" d="M 603 3500 
L 1178 3500 
L 1178 0 
L 603 0 
L 603 3500 
z
M 603 4863 
L 1178 4863 
L 1178 4134 
L 603 4134 
L 603 4863 
z
" transform="scale(0.015625)"/>
       <path id="DejaVuSans-6d" d="M 3328 2828 
Q 3544 3216 3844 3400 
Q 4144 3584 4550 3584 
Q 5097 3584 5394 3201 
Q 5691 2819 5691 2113 
L 5691 0 
L 5113 0 
L 5113 2094 
Q 5113 2597 4934 2840 
Q 4756 3084 4391 3084 
Q 3944 3084 3684 2787 
Q 3425 2491 3425 1978 
L 3425 0 
L 2847 0 
L 2847 2094 
Q 2847 2600 2669 2842 
Q 2491 3084 2119 3084 
Q 1678 3084 1418 2786 
Q 1159 2488 1159 1978 
L 1159 0 
L 581 0 
L 581 3500 
L 1159 3500 
L 1159 2956 
Q 1356 3278 1631 3431 
Q 1906 3584 2284 3584 
Q 2666 3584 2933 3390 
Q 3200 3197 3328 2828 
z
" transform="scale(0.015625)"/>
       <path id="DejaVuSans-65" d="M 3597 1894 
L 3597 1613 
L 953 1613 
Q 991 1019 1311 708 
Q 1631 397 2203 397 
Q 2534 397 2845 478 
Q 3156 559 3463 722 
L 3463 178 
Q 3153 47 2828 -22 
Q 2503 -91 2169 -91 
Q 1331 -91 842 396 
Q 353 884 353 1716 
Q 353 2575 817 3079 
Q 1281 3584 2069 3584 
Q 2775 3584 3186 3129 
Q 3597 2675 3597 1894 
z
M 3022 2063 
Q 3016 2534 2758 2815 
Q 2500 3097 2075 3097 
Q 1594 3097 1305 2825 
Q 1016 2553 972 2059 
L 3022 2063 
z
" transform="scale(0.015625)"/>
      </defs>
      <use xlink:href="#DejaVuSans-54"/>
      <use xlink:href="#DejaVuSans-69" x="57.958984"/>
      <use xlink:href="#DejaVuSans-6d" x="85.742188"/>
      <use xlink:href="#DejaVuSans-65" x="183.154297"/>
     </g>
    </g>
   </g>
   <g id="matplotlib.axis_10">
    <g id="ytick_10">
     <g id="line2d_83">
      <path d="M 100.8 569.737898 
L 987.84 569.737898 
" clip-path="url(#p1d464248a1)" style="fill: none; stroke-dasharray: 1.85,0.8; stroke-dashoffset: 0; stroke: #b2b2b2; stroke-width: 0.5"/>
     </g>
     <g id="line2d_84">
      <g>
       <use xlink:href="#m40835a0d1e" x="100.8" y="569.737898" style="stroke: #000000; stroke-width: 0.8"/>
      </g>
     </g>
     <g id="text_21">
      <!-- 0 V -->
      <g transform="translate(74.36625 575.056805) scale(0.14 -0.14)">
       <use xlink:href="#DejaVuSans-30"/>
       <use xlink:href="#DejaVuSans-20" x="63.623047"/>
       <use xlink:href="#DejaVuSans-56" x="95.410156"/>
      </g>
     </g>
    </g>
    <g id="ytick_11">
     <g id="line2d_85">
      <path d="M 100.8 535.84453 
L 987.84 535.84453 
" clip-path="url(#p1d464248a1)" style="fill: none; stroke-dasharray: 1.85,0.8; stroke-dashoffset: 0; stroke: #b2b2b2; stroke-width: 0.5"/>
     </g>
     <g id="line2d_86">
      <g>
       <use xlink:href="#m40835a0d1e" x="100.8" y="535.84453" style="stroke: #000000; stroke-width: 0.8"/>
      </g>
     </g>
     <g id="text_22">
      <!-- 500 mV -->
      <g transform="translate(42.914375 541.163437) scale(0.14 -0.14)">
       <use xlink:href="#DejaVuSans-35"/>
       <use xlink:href="#DejaVuSans-30" x="63.623047"/>
       <use xlink:href="#DejaVuSans-30" x="127.246094"/>
       <use xlink:href="#DejaVuSans-20" x="190.869141"/>
       <use xlink:href="#DejaVuSans-6d" x="222.65625"/>
       <use xlink:href="#DejaVuSans-56" x="320.068359"/>
      </g>
     </g>
    </g>
    <g id="ytick_12">
     <g id="line2d_87">
      <path d="M 100.8 501.951163 
L 987.84 501.951163 
" clip-path="url(#p1d464248a1)" style="fill: none; stroke-dasharray: 1.85,0.8; stroke-dashoffset: 0; stroke: #b2b2b2; stroke-width: 0.5"/>
     </g>
     <g id="line2d_88">
      <g>
       <use xlink:href="#m40835a0d1e" x="100.8" y="501.951163" style="stroke: #000000; stroke-width: 0.8"/>
      </g>
     </g>
     <g id="text_23">
      <!-- 1 V -->
      <g transform="translate(74.36625 507.270069) scale(0.14 -0.14)">
       <use xlink:href="#DejaVuSans-31"/>
       <use xlink:href="#DejaVuSans-20" x="63.623047"/>
       <use xlink:href="#DejaVuSans-56" x="95.410156"/>
      </g>
     </g>
    </g>
    <g id="text_24">
     <g id="patch_27">
      <path d="M 34.8768 554.329483 
L 34.8768 506.379483 
L 11.247425 506.379483 
L 11.247425 554.329483 
z
" style="fill: #ffff00; opacity: 0.2; stroke: #eeeeee; stroke-width: 0.5; stroke-linejoin: miter"/>
     </g>
     <!-- FOUT -->
     <g transform="translate(26.925238 549.289483) rotate(-90) scale(0.14 -0.14)">
      <use xlink:href="#DejaVuSans-46"/>
      <use xlink:href="#DejaVuSans-4f" x="57.519531"/>
      <use xlink:href="#DejaVuSans-55" x="136.230469"/>
      <use xlink:href="#DejaVuSans-54" x="209.423828"/>
     </g>
    </g>
   </g>
   <g id="line2d_89">
    <path d="M 141.12 488.393815 
L 173.472768 488.400594 
L 173.505024 488.204013 
L 173.569536 526.657394 
L 173.69856 572.504953 
L 173.730816 572.369108 
L 173.827584 567.828617 
L 173.892096 569.351799 
L 174.053376 570.057126 
L 174.117888 569.939259 
L 174.408192 569.483332 
L 174.440448 569.532932 
L 174.66624 569.721921 
L 176.182272 569.732147 
L 180.14976 569.752371 
L 190.600704 569.736227 
L 260.338176 569.830332 
L 260.370432 569.851726 
L 260.402688 569.00004 
L 260.499456 527.689108 
L 260.660736 488.631069 
L 260.822016 488.400594 
L 261.370368 488.393815 
L 262.434816 488.393815 
L 262.499328 503.927146 
L 262.692864 571.973912 
L 262.757376 569.721998 
L 263.015424 569.736217 
L 416.553984 569.827607 
L 416.618496 554.142882 
L 416.779776 489.376723 
L 416.9088 488.407373 
L 417.199104 488.393815 
L 947.52 488.393815 
L 947.52 488.393815 
" clip-path="url(#p1d464248a1)" style="fill: none; stroke: #ff00ff; stroke-width: 2; stroke-linecap: square"/>
   </g>
   <g id="patch_28">
    <path d="M 100.8 576.72 
L 100.8 483.988966 
" style="fill: none; stroke: #bcbcbc; stroke-width: 0.8; stroke-linejoin: miter; stroke-linecap: square"/>
   </g>
   <g id="patch_29">
    <path d="M 987.84 576.72 
L 987.84 483.988966 
" style="fill: none; stroke: #bcbcbc; stroke-width: 0.8; stroke-linejoin: miter; stroke-linecap: square"/>
   </g>
   <g id="patch_30">
    <path d="M 100.8 576.72 
L 987.84 576.72 
" style="fill: none; stroke: #bcbcbc; stroke-width: 0.8; stroke-linejoin: miter; stroke-linecap: square"/>
   </g>
   <g id="patch_31">
    <path d="M 100.8 483.988966 
L 987.84 483.988966 
" style="fill: none; stroke: #bcbcbc; stroke-width: 0.8; stroke-linejoin: miter; stroke-linecap: square"/>
   </g>
  </g>
  <g id="axes_6">
   <g id="patch_32">
    <path d="M 201.6 628.56 
L 856.8 628.56 
L 856.8 615.6 
L 201.6 615.6 
z
" clip-path="url(#p7c9711257b)" style="fill: #d3d3d3"/>
   </g>
   <g id="patch_33">
    <path d="M 201.6 628.56 
L 215.64 628.56 
L 215.64 615.6 
L 201.6 615.6 
z
" clip-path="url(#p7c9711257b)" style="fill: #0000ff"/>
   </g>
   <g id="line2d_90">
    <path d="M 201.6 635.04 
L 201.6 609.12 
" clip-path="url(#p4e32a92590)" style="fill: none; stroke: #ff0000; stroke-linecap: square"/>
   </g>
   <g id="line2d_91">
    <defs>
     <path id="m541ce8c9df" d="M 0 5 
C 1.326016 5 2.597899 4.473168 3.535534 3.535534 
C 4.473168 2.597899 5 1.326016 5 0 
C 5 -1.326016 4.473168 -2.597899 3.535534 -3.535534 
C 2.597899 -4.473168 1.326016 -5 0 -5 
C -1.326016 -5 -2.597899 -4.473168 -3.535534 -3.535534 
C -4.473168 -2.597899 -5 -1.326016 -5 0 
C -5 1.326016 -4.473168 2.597899 -3.535534 3.535534 
C -2.597899 4.473168 -1.326016 5 0 5 
z
" style="stroke: #bfbfbf"/>
    </defs>
    <g>
     <use xlink:href="#m541ce8c9df" x="215.64" y="622.08" style="fill: #ffffff; stroke: #bfbfbf"/>
    </g>
   </g>
   <g id="text_25">
    <!-- #Sweep -->
    <g transform="translate(138.622875 625.39125) scale(0.12 -0.12)">
     <defs>
      <path id="DejaVuSans-23" d="M 3272 2816 
L 2363 2816 
L 2100 1772 
L 3016 1772 
L 3272 2816 
z
M 2803 4594 
L 2478 3297 
L 3391 3297 
L 3719 4594 
L 4219 4594 
L 3897 3297 
L 4872 3297 
L 4872 2816 
L 3775 2816 
L 3519 1772 
L 4513 1772 
L 4513 1294 
L 3397 1294 
L 3072 0 
L 2572 0 
L 2894 1294 
L 1978 1294 
L 1656 0 
L 1153 0 
L 1478 1294 
L 494 1294 
L 494 1772 
L 1594 1772 
L 1856 2816 
L 850 2816 
L 850 3297 
L 1978 3297 
L 2297 4594 
L 2803 4594 
z
" transform="scale(0.015625)"/>
      <path id="DejaVuSans-77" d="M 269 3500 
L 844 3500 
L 1563 769 
L 2278 3500 
L 2956 3500 
L 3675 769 
L 4391 3500 
L 4966 3500 
L 4050 0 
L 3372 0 
L 2619 2869 
L 1863 0 
L 1184 0 
L 269 3500 
z
" transform="scale(0.015625)"/>
      <path id="DejaVuSans-70" d="M 1159 525 
L 1159 -1331 
L 581 -1331 
L 581 3500 
L 1159 3500 
L 1159 2969 
Q 1341 3281 1617 3432 
Q 1894 3584 2278 3584 
Q 2916 3584 3314 3078 
Q 3713 2572 3713 1747 
Q 3713 922 3314 415 
Q 2916 -91 2278 -91 
Q 1894 -91 1617 61 
Q 1341 213 1159 525 
z
M 3116 1747 
Q 3116 2381 2855 2742 
Q 2594 3103 2138 3103 
Q 1681 3103 1420 2742 
Q 1159 2381 1159 1747 
Q 1159 1113 1420 752 
Q 1681 391 2138 391 
Q 2594 391 2855 752 
Q 3116 1113 3116 1747 
z
" transform="scale(0.015625)"/>
     </defs>
     <use xlink:href="#DejaVuSans-23"/>
     <use xlink:href="#DejaVuSans-53" x="83.789062"/>
     <use xlink:href="#DejaVuSans-77" x="147.265625"/>
     <use xlink:href="#DejaVuSans-65" x="229.052734"/>
     <use xlink:href="#DejaVuSans-65" x="290.576172"/>
     <use xlink:href="#DejaVuSans-70" x="352.099609"/>
    </g>
   </g>
   <g id="text_26">
    <!-- $\mathdefault{3}$ -->
    <g transform="translate(869.904 625.39125) scale(0.12 -0.12)">
     <defs>
      <path id="DejaVuSans-33" d="M 2597 2516 
Q 3050 2419 3304 2112 
Q 3559 1806 3559 1356 
Q 3559 666 3084 287 
Q 2609 -91 1734 -91 
Q 1441 -91 1130 -33 
Q 819 25 488 141 
L 488 750 
Q 750 597 1062 519 
Q 1375 441 1716 441 
Q 2309 441 2620 675 
Q 2931 909 2931 1356 
Q 2931 1769 2642 2001 
Q 2353 2234 1838 2234 
L 1294 2234 
L 1294 2753 
L 1863 2753 
Q 2328 2753 2575 2939 
Q 2822 3125 2822 3475 
Q 2822 3834 2567 4026 
Q 2313 4219 1838 4219 
Q 1578 4219 1281 4162 
Q 984 4106 628 3988 
L 628 4550 
Q 988 4650 1302 4700 
Q 1616 4750 1894 4750 
Q 2613 4750 3031 4423 
Q 3450 4097 3450 3541 
Q 3450 3153 3228 2886 
Q 3006 2619 2597 2516 
z
" transform="scale(0.015625)"/>
     </defs>
     <use xlink:href="#DejaVuSans-33" transform="translate(0 0.78125)"/>
    </g>
   </g>
  </g>
  <g id="text_27">
   <!-- DFF under BBI sweep analysis (Sweep = 13E-9) -->
   <g transform="translate(313.34625 25.1175) scale(0.16 -0.16)">
    <defs>
     <path id="DejaVuSans-75" d="M 544 1381 
L 544 3500 
L 1119 3500 
L 1119 1403 
Q 1119 906 1312 657 
Q 1506 409 1894 409 
Q 2359 409 2629 706 
Q 2900 1003 2900 1516 
L 2900 3500 
L 3475 3500 
L 3475 0 
L 2900 0 
L 2900 538 
Q 2691 219 2414 64 
Q 2138 -91 1772 -91 
Q 1169 -91 856 284 
Q 544 659 544 1381 
z
M 1991 3584 
L 1991 3584 
z
" transform="scale(0.015625)"/>
     <path id="DejaVuSans-64" d="M 2906 2969 
L 2906 4863 
L 3481 4863 
L 3481 0 
L 2906 0 
L 2906 525 
Q 2725 213 2448 61 
Q 2172 -91 1784 -91 
Q 1150 -91 751 415 
Q 353 922 353 1747 
Q 353 2572 751 3078 
Q 1150 3584 1784 3584 
Q 2172 3584 2448 3432 
Q 2725 3281 2906 2969 
z
M 947 1747 
Q 947 1113 1208 752 
Q 1469 391 1925 391 
Q 2381 391 2643 752 
Q 2906 1113 2906 1747 
Q 2906 2381 2643 2742 
Q 2381 3103 1925 3103 
Q 1469 3103 1208 2742 
Q 947 2381 947 1747 
z
" transform="scale(0.015625)"/>
     <path id="DejaVuSans-72" d="M 2631 2963 
Q 2534 3019 2420 3045 
Q 2306 3072 2169 3072 
Q 1681 3072 1420 2755 
Q 1159 2438 1159 1844 
L 1159 0 
L 581 0 
L 581 3500 
L 1159 3500 
L 1159 2956 
Q 1341 3275 1631 3429 
Q 1922 3584 2338 3584 
Q 2397 3584 2469 3576 
Q 2541 3569 2628 3553 
L 2631 2963 
z
" transform="scale(0.015625)"/>
     <path id="DejaVuSans-61" d="M 2194 1759 
Q 1497 1759 1228 1600 
Q 959 1441 959 1056 
Q 959 750 1161 570 
Q 1363 391 1709 391 
Q 2188 391 2477 730 
Q 2766 1069 2766 1631 
L 2766 1759 
L 2194 1759 
z
M 3341 1997 
L 3341 0 
L 2766 0 
L 2766 531 
Q 2569 213 2275 61 
Q 1981 -91 1556 -91 
Q 1019 -91 701 211 
Q 384 513 384 1019 
Q 384 1609 779 1909 
Q 1175 2209 1959 2209 
L 2766 2209 
L 2766 2266 
Q 2766 2663 2505 2880 
Q 2244 3097 1772 3097 
Q 1472 3097 1187 3025 
Q 903 2953 641 2809 
L 641 3341 
Q 956 3463 1253 3523 
Q 1550 3584 1831 3584 
Q 2591 3584 2966 3190 
Q 3341 2797 3341 1997 
z
" transform="scale(0.015625)"/>
     <path id="DejaVuSans-6c" d="M 603 4863 
L 1178 4863 
L 1178 0 
L 603 0 
L 603 4863 
z
" transform="scale(0.015625)"/>
     <path id="DejaVuSans-79" d="M 2059 -325 
Q 1816 -950 1584 -1140 
Q 1353 -1331 966 -1331 
L 506 -1331 
L 506 -850 
L 844 -850 
Q 1081 -850 1212 -737 
Q 1344 -625 1503 -206 
L 1606 56 
L 191 3500 
L 800 3500 
L 1894 763 
L 2988 3500 
L 3597 3500 
L 2059 -325 
z
" transform="scale(0.015625)"/>
     <path id="DejaVuSans-28" d="M 1984 4856 
Q 1566 4138 1362 3434 
Q 1159 2731 1159 2009 
Q 1159 1288 1364 580 
Q 1569 -128 1984 -844 
L 1484 -844 
Q 1016 -109 783 600 
Q 550 1309 550 2009 
Q 550 2706 781 3412 
Q 1013 4119 1484 4856 
L 1984 4856 
z
" transform="scale(0.015625)"/>
     <path id="DejaVuSans-3d" d="M 678 2906 
L 4684 2906 
L 4684 2381 
L 678 2381 
L 678 2906 
z
M 678 1631 
L 4684 1631 
L 4684 1100 
L 678 1100 
L 678 1631 
z
" transform="scale(0.015625)"/>
     <path id="DejaVuSans-2d" d="M 313 2009 
L 1997 2009 
L 1997 1497 
L 313 1497 
L 313 2009 
z
" transform="scale(0.015625)"/>
     <path id="DejaVuSans-39" d="M 703 97 
L 703 672 
Q 941 559 1184 500 
Q 1428 441 1663 441 
Q 2288 441 2617 861 
Q 2947 1281 2994 2138 
Q 2813 1869 2534 1725 
Q 2256 1581 1919 1581 
Q 1219 1581 811 2004 
Q 403 2428 403 3163 
Q 403 3881 828 4315 
Q 1253 4750 1959 4750 
Q 2769 4750 3195 4129 
Q 3622 3509 3622 2328 
Q 3622 1225 3098 567 
Q 2575 -91 1691 -91 
Q 1453 -91 1209 -44 
Q 966 3 703 97 
z
M 1959 2075 
Q 2384 2075 2632 2365 
Q 2881 2656 2881 3163 
Q 2881 3666 2632 3958 
Q 2384 4250 1959 4250 
Q 1534 4250 1286 3958 
Q 1038 3666 1038 3163 
Q 1038 2656 1286 2365 
Q 1534 2075 1959 2075 
z
" transform="scale(0.015625)"/>
     <path id="DejaVuSans-29" d="M 513 4856 
L 1013 4856 
Q 1481 4119 1714 3412 
Q 1947 2706 1947 2009 
Q 1947 1309 1714 600 
Q 1481 -109 1013 -844 
L 513 -844 
Q 928 -128 1133 580 
Q 1338 1288 1338 2009 
Q 1338 2731 1133 3434 
Q 928 4138 513 4856 
z
" transform="scale(0.015625)"/>
    </defs>
    <use xlink:href="#DejaVuSans-44"/>
    <use xlink:href="#DejaVuSans-46" x="77.001953"/>
    <use xlink:href="#DejaVuSans-46" x="134.521484"/>
    <use xlink:href="#DejaVuSans-20" x="192.041016"/>
    <use xlink:href="#DejaVuSans-75" x="223.828125"/>
    <use xlink:href="#DejaVuSans-6e" x="287.207031"/>
    <use xlink:href="#DejaVuSans-64" x="350.585938"/>
    <use xlink:href="#DejaVuSans-65" x="414.0625"/>
    <use xlink:href="#DejaVuSans-72" x="475.585938"/>
    <use xlink:href="#DejaVuSans-20" x="516.699219"/>
    <use xlink:href="#DejaVuSans-42" x="548.486328"/>
    <use xlink:href="#DejaVuSans-42" x="617.089844"/>
    <use xlink:href="#DejaVuSans-49" x="685.693359"/>
    <use xlink:href="#DejaVuSans-20" x="715.185547"/>
    <use xlink:href="#DejaVuSans-73" x="746.972656"/>
    <use xlink:href="#DejaVuSans-77" x="799.072266"/>
    <use xlink:href="#DejaVuSans-65" x="880.859375"/>
    <use xlink:href="#DejaVuSans-65" x="942.382812"/>
    <use xlink:href="#DejaVuSans-70" x="1003.90625"/>
    <use xlink:href="#DejaVuSans-20" x="1067.382812"/>
    <use xlink:href="#DejaVuSans-61" x="1099.169922"/>
    <use xlink:href="#DejaVuSans-6e" x="1160.449219"/>
    <use xlink:href="#DejaVuSans-61" x="1223.828125"/>
    <use xlink:href="#DejaVuSans-6c" x="1285.107422"/>
    <use xlink:href="#DejaVuSans-79" x="1312.890625"/>
    <use xlink:href="#DejaVuSans-73" x="1372.070312"/>
    <use xlink:href="#DejaVuSans-69" x="1424.169922"/>
    <use xlink:href="#DejaVuSans-73" x="1451.953125"/>
    <use xlink:href="#DejaVuSans-20" x="1504.052734"/>
    <use xlink:href="#DejaVuSans-28" x="1535.839844"/>
    <use xlink:href="#DejaVuSans-53" x="1574.853516"/>
    <use xlink:href="#DejaVuSans-77" x="1638.330078"/>
    <use xlink:href="#DejaVuSans-65" x="1720.117188"/>
    <use xlink:href="#DejaVuSans-65" x="1781.640625"/>
    <use xlink:href="#DejaVuSans-70" x="1843.164062"/>
    <use xlink:href="#DejaVuSans-20" x="1906.640625"/>
    <use xlink:href="#DejaVuSans-3d" x="1938.427734"/>
    <use xlink:href="#DejaVuSans-20" x="2022.216797"/>
    <use xlink:href="#DejaVuSans-31" x="2054.003906"/>
    <use xlink:href="#DejaVuSans-33" x="2117.626953"/>
    <use xlink:href="#DejaVuSans-45" x="2181.25"/>
    <use xlink:href="#DejaVuSans-2d" x="2244.433594"/>
    <use xlink:href="#DejaVuSans-39" x="2280.517578"/>
    <use xlink:href="#DejaVuSans-29" x="2344.140625"/>
   </g>
  </g>
 </g>
 <defs>
  <clipPath id="pd23c119cd6">
   <rect x="100.8" y="38.88" width="887.04" height="92.731034"/>
  </clipPath>
  <clipPath id="p25c4be6906">
   <rect x="100.8" y="150.157241" width="887.04" height="92.731034"/>
  </clipPath>
  <clipPath id="pa00b34e49e">
   <rect x="100.8" y="261.434483" width="887.04" height="92.731034"/>
  </clipPath>
  <clipPath id="p778b3f41ce">
   <rect x="100.8" y="372.711724" width="887.04" height="92.731034"/>
  </clipPath>
  <clipPath id="p1d464248a1">
   <rect x="100.8" y="483.988966" width="887.04" height="92.731034"/>
  </clipPath>
  <clipPath id="p7c9711257b">
   <rect x="201.6" y="609.12" width="655.2" height="25.92"/>
  </clipPath>
  <clipPath id="p4e32a92590">
   <path d="M 201.6 628.56 
L 856.8 628.56 
L 856.8 615.6 
L 201.6 615.6 
z
"/>
  </clipPath>
 </defs>
</svg>
