<?xml version="1.0" encoding="utf-8" standalone="no"?>
<!DOCTYPE svg PUBLIC "-//W3C//DTD SVG 1.1//EN"
  "http://www.w3.org/Graphics/SVG/1.1/DTD/svg11.dtd">
<svg xmlns:xlink="http://www.w3.org/1999/xlink" width="1008pt" height="648pt" viewBox="0 0 1008 648" xmlns="http://www.w3.org/2000/svg" version="1.1">
 <metadata>
  <rdf:RDF xmlns:dc="http://purl.org/dc/elements/1.1/" xmlns:cc="http://creativecommons.org/ns#" xmlns:rdf="http://www.w3.org/1999/02/22-rdf-syntax-ns#">
   <cc:Work>
    <dc:type rdf:resource="http://purl.org/dc/dcmitype/StillImage"/>
    <dc:date>2024-06-03T10:45:58.310233</dc:date>
    <dc:format>image/svg+xml</dc:format>
    <dc:creator>
     <cc:Agent>
      <dc:title>Matplotlib v3.9.0, https://matplotlib.org/</dc:title>
     </cc:Agent>
    </dc:creator>
   </cc:Work>
  </rdf:RDF>
 </metadata>
 <defs>
  <style type="text/css">*{stroke-linejoin: round; stroke-linecap: butt}</style>
 </defs>
 <g id="figure_1">
  <g id="patch_1">
   <path d="M 0 648 
L 1008 648 
L 1008 0 
L 0 0 
z
" style="fill: #ffffff"/>
  </g>
  <g id="axes_1">
   <g id="patch_2">
    <path d="M 100.8 131.611034 
L 987.84 131.611034 
L 987.84 38.88 
L 100.8 38.88 
z
" style="fill: #eeeeee"/>
   </g>
   <g id="matplotlib.axis_1">
    <g id="xtick_1">
     <g id="line2d_1">
      <path d="M 141.12 131.611034 
L 141.12 38.88 
" clip-path="url(#p1f05cdce41)" style="fill: none; stroke-dasharray: 1.85,0.8; stroke-dashoffset: 0; stroke: #b2b2b2; stroke-width: 0.5"/>
     </g>
     <g id="line2d_2">
      <defs>
       <path id="m79c4b692e4" d="M 0 0 
L 0 -3.5 
" style="stroke: #000000; stroke-width: 0.8"/>
      </defs>
      <g>
       <use xlink:href="#m79c4b692e4" x="141.12" y="131.611034" style="stroke: #000000; stroke-width: 0.8"/>
      </g>
     </g>
    </g>
    <g id="xtick_2">
     <g id="line2d_3">
      <path d="M 302.4 131.611034 
L 302.4 38.88 
" clip-path="url(#p1f05cdce41)" style="fill: none; stroke-dasharray: 1.85,0.8; stroke-dashoffset: 0; stroke: #b2b2b2; stroke-width: 0.5"/>
     </g>
     <g id="line2d_4">
      <g>
       <use xlink:href="#m79c4b692e4" x="302.4" y="131.611034" style="stroke: #000000; stroke-width: 0.8"/>
      </g>
     </g>
    </g>
    <g id="xtick_3">
     <g id="line2d_5">
      <path d="M 463.68 131.611034 
L 463.68 38.88 
" clip-path="url(#p1f05cdce41)" style="fill: none; stroke-dasharray: 1.85,0.8; stroke-dashoffset: 0; stroke: #b2b2b2; stroke-width: 0.5"/>
     </g>
     <g id="line2d_6">
      <g>
       <use xlink:href="#m79c4b692e4" x="463.68" y="131.611034" style="stroke: #000000; stroke-width: 0.8"/>
      </g>
     </g>
    </g>
    <g id="xtick_4">
     <g id="line2d_7">
      <path d="M 624.96 131.611034 
L 624.96 38.88 
" clip-path="url(#p1f05cdce41)" style="fill: none; stroke-dasharray: 1.85,0.8; stroke-dashoffset: 0; stroke: #b2b2b2; stroke-width: 0.5"/>
     </g>
     <g id="line2d_8">
      <g>
       <use xlink:href="#m79c4b692e4" x="624.96" y="131.611034" style="stroke: #000000; stroke-width: 0.8"/>
      </g>
     </g>
    </g>
    <g id="xtick_5">
     <g id="line2d_9">
      <path d="M 786.24 131.611034 
L 786.24 38.88 
" clip-path="url(#p1f05cdce41)" style="fill: none; stroke-dasharray: 1.85,0.8; stroke-dashoffset: 0; stroke: #b2b2b2; stroke-width: 0.5"/>
     </g>
     <g id="line2d_10">
      <g>
       <use xlink:href="#m79c4b692e4" x="786.24" y="131.611034" style="stroke: #000000; stroke-width: 0.8"/>
      </g>
     </g>
    </g>
    <g id="xtick_6">
     <g id="line2d_11">
      <path d="M 947.52 131.611034 
L 947.52 38.88 
" clip-path="url(#p1f05cdce41)" style="fill: none; stroke-dasharray: 1.85,0.8; stroke-dashoffset: 0; stroke: #b2b2b2; stroke-width: 0.5"/>
     </g>
     <g id="line2d_12">
      <g>
       <use xlink:href="#m79c4b692e4" x="947.52" y="131.611034" style="stroke: #000000; stroke-width: 0.8"/>
      </g>
     </g>
    </g>
   </g>
   <g id="matplotlib.axis_2">
    <g id="ytick_1">
     <g id="line2d_13">
      <path d="M 100.8 98.340394 
L 987.84 98.340394 
" clip-path="url(#p1f05cdce41)" style="fill: none; stroke-dasharray: 1.85,0.8; stroke-dashoffset: 0; stroke: #b2b2b2; stroke-width: 0.5"/>
     </g>
     <g id="line2d_14">
      <defs>
       <path id="made1c33896" d="M 0 0 
L 3.5 0 
" style="stroke: #000000; stroke-width: 0.8"/>
      </defs>
      <g>
       <use xlink:href="#made1c33896" x="100.8" y="98.340394" style="stroke: #000000; stroke-width: 0.8"/>
      </g>
     </g>
     <g id="text_1">
      <!-- −200 V -->
      <g transform="translate(44.819688 103.6593) scale(0.14 -0.14)">
       <defs>
        <path id="DejaVuSans-2212" d="M 678 2272 
L 4684 2272 
L 4684 1741 
L 678 1741 
L 678 2272 
z
" transform="scale(0.015625)"/>
        <path id="DejaVuSans-32" d="M 1228 531 
L 3431 531 
L 3431 0 
L 469 0 
L 469 531 
Q 828 903 1448 1529 
Q 2069 2156 2228 2338 
Q 2531 2678 2651 2914 
Q 2772 3150 2772 3378 
Q 2772 3750 2511 3984 
Q 2250 4219 1831 4219 
Q 1534 4219 1204 4116 
Q 875 4013 500 3803 
L 500 4441 
Q 881 4594 1212 4672 
Q 1544 4750 1819 4750 
Q 2544 4750 2975 4387 
Q 3406 4025 3406 3419 
Q 3406 3131 3298 2873 
Q 3191 2616 2906 2266 
Q 2828 2175 2409 1742 
Q 1991 1309 1228 531 
z
" transform="scale(0.015625)"/>
        <path id="DejaVuSans-30" d="M 2034 4250 
Q 1547 4250 1301 3770 
Q 1056 3291 1056 2328 
Q 1056 1369 1301 889 
Q 1547 409 2034 409 
Q 2525 409 2770 889 
Q 3016 1369 3016 2328 
Q 3016 3291 2770 3770 
Q 2525 4250 2034 4250 
z
M 2034 4750 
Q 2819 4750 3233 4129 
Q 3647 3509 3647 2328 
Q 3647 1150 3233 529 
Q 2819 -91 2034 -91 
Q 1250 -91 836 529 
Q 422 1150 422 2328 
Q 422 3509 836 4129 
Q 1250 4750 2034 4750 
z
" transform="scale(0.015625)"/>
        <path id="DejaVuSans-20" transform="scale(0.015625)"/>
        <path id="DejaVuSans-56" d="M 1831 0 
L 50 4666 
L 709 4666 
L 2188 738 
L 3669 4666 
L 4325 4666 
L 2547 0 
L 1831 0 
z
" transform="scale(0.015625)"/>
       </defs>
       <use xlink:href="#DejaVuSans-2212"/>
       <use xlink:href="#DejaVuSans-32" x="83.789062"/>
       <use xlink:href="#DejaVuSans-30" x="147.412109"/>
       <use xlink:href="#DejaVuSans-30" x="211.035156"/>
       <use xlink:href="#DejaVuSans-20" x="274.658203"/>
       <use xlink:href="#DejaVuSans-56" x="306.445312"/>
      </g>
     </g>
    </g>
    <g id="ytick_2">
     <g id="line2d_15">
      <path d="M 100.8 45.027377 
L 987.84 45.027377 
" clip-path="url(#p1f05cdce41)" style="fill: none; stroke-dasharray: 1.85,0.8; stroke-dashoffset: 0; stroke: #b2b2b2; stroke-width: 0.5"/>
     </g>
     <g id="line2d_16">
      <g>
       <use xlink:href="#made1c33896" x="100.8" y="45.027377" style="stroke: #000000; stroke-width: 0.8"/>
      </g>
     </g>
     <g id="text_2">
      <!-- 0 V -->
      <g transform="translate(74.36625 50.346284) scale(0.14 -0.14)">
       <use xlink:href="#DejaVuSans-30"/>
       <use xlink:href="#DejaVuSans-20" x="63.623047"/>
       <use xlink:href="#DejaVuSans-56" x="95.410156"/>
      </g>
     </g>
    </g>
    <g id="text_3">
     <g id="patch_3">
      <path d="M 34.8768 131.080205 
L 34.8768 39.41083 
L 11.247425 39.41083 
L 11.247425 131.080205 
z
" style="fill: #ffff00; opacity: 0.2; stroke: #eeeeee; stroke-width: 0.5; stroke-linejoin: miter"/>
     </g>
     <!-- VPULSE BBI -->
     <g transform="translate(26.925238 126.040205) rotate(-90) scale(0.14 -0.14)">
      <defs>
       <path id="DejaVuSans-50" d="M 1259 4147 
L 1259 2394 
L 2053 2394 
Q 2494 2394 2734 2622 
Q 2975 2850 2975 3272 
Q 2975 3691 2734 3919 
Q 2494 4147 2053 4147 
L 1259 4147 
z
M 628 4666 
L 2053 4666 
Q 2838 4666 3239 4311 
Q 3641 3956 3641 3272 
Q 3641 2581 3239 2228 
Q 2838 1875 2053 1875 
L 1259 1875 
L 1259 0 
L 628 0 
L 628 4666 
z
" transform="scale(0.015625)"/>
       <path id="DejaVuSans-55" d="M 556 4666 
L 1191 4666 
L 1191 1831 
Q 1191 1081 1462 751 
Q 1734 422 2344 422 
Q 2950 422 3222 751 
Q 3494 1081 3494 1831 
L 3494 4666 
L 4128 4666 
L 4128 1753 
Q 4128 841 3676 375 
Q 3225 -91 2344 -91 
Q 1459 -91 1007 375 
Q 556 841 556 1753 
L 556 4666 
z
" transform="scale(0.015625)"/>
       <path id="DejaVuSans-4c" d="M 628 4666 
L 1259 4666 
L 1259 531 
L 3531 531 
L 3531 0 
L 628 0 
L 628 4666 
z
" transform="scale(0.015625)"/>
       <path id="DejaVuSans-53" d="M 3425 4513 
L 3425 3897 
Q 3066 4069 2747 4153 
Q 2428 4238 2131 4238 
Q 1616 4238 1336 4038 
Q 1056 3838 1056 3469 
Q 1056 3159 1242 3001 
Q 1428 2844 1947 2747 
L 2328 2669 
Q 3034 2534 3370 2195 
Q 3706 1856 3706 1288 
Q 3706 609 3251 259 
Q 2797 -91 1919 -91 
Q 1588 -91 1214 -16 
Q 841 59 441 206 
L 441 856 
Q 825 641 1194 531 
Q 1563 422 1919 422 
Q 2459 422 2753 634 
Q 3047 847 3047 1241 
Q 3047 1584 2836 1778 
Q 2625 1972 2144 2069 
L 1759 2144 
Q 1053 2284 737 2584 
Q 422 2884 422 3419 
Q 422 4038 858 4394 
Q 1294 4750 2059 4750 
Q 2388 4750 2728 4690 
Q 3069 4631 3425 4513 
z
" transform="scale(0.015625)"/>
       <path id="DejaVuSans-45" d="M 628 4666 
L 3578 4666 
L 3578 4134 
L 1259 4134 
L 1259 2753 
L 3481 2753 
L 3481 2222 
L 1259 2222 
L 1259 531 
L 3634 531 
L 3634 0 
L 628 0 
L 628 4666 
z
" transform="scale(0.015625)"/>
       <path id="DejaVuSans-42" d="M 1259 2228 
L 1259 519 
L 2272 519 
Q 2781 519 3026 730 
Q 3272 941 3272 1375 
Q 3272 1813 3026 2020 
Q 2781 2228 2272 2228 
L 1259 2228 
z
M 1259 4147 
L 1259 2741 
L 2194 2741 
Q 2656 2741 2882 2914 
Q 3109 3088 3109 3444 
Q 3109 3797 2882 3972 
Q 2656 4147 2194 4147 
L 1259 4147 
z
M 628 4666 
L 2241 4666 
Q 2963 4666 3353 4366 
Q 3744 4066 3744 3513 
Q 3744 3084 3544 2831 
Q 3344 2578 2956 2516 
Q 3422 2416 3680 2098 
Q 3938 1781 3938 1306 
Q 3938 681 3513 340 
Q 3088 0 2303 0 
L 628 0 
L 628 4666 
z
" transform="scale(0.015625)"/>
       <path id="DejaVuSans-49" d="M 628 4666 
L 1259 4666 
L 1259 0 
L 628 0 
L 628 4666 
z
" transform="scale(0.015625)"/>
      </defs>
      <use xlink:href="#DejaVuSans-56"/>
      <use xlink:href="#DejaVuSans-50" x="68.408203"/>
      <use xlink:href="#DejaVuSans-55" x="128.710938"/>
      <use xlink:href="#DejaVuSans-4c" x="201.904297"/>
      <use xlink:href="#DejaVuSans-53" x="257.617188"/>
      <use xlink:href="#DejaVuSans-45" x="321.09375"/>
      <use xlink:href="#DejaVuSans-20" x="384.277344"/>
      <use xlink:href="#DejaVuSans-42" x="416.064453"/>
      <use xlink:href="#DejaVuSans-42" x="484.667969"/>
      <use xlink:href="#DejaVuSans-49" x="553.271484"/>
     </g>
    </g>
   </g>
   <g id="line2d_17">
    <path d="M 141.12 45.027377 
L 618.541056 45.136282 
L 619.024896 46.425538 
L 627.250176 69.006772 
L 634.669056 89.863624 
L 636.281856 94.440546 
L 638.088192 99.673219 
L 641.57184 110.807642 
L 643.152384 115.853719 
L 644.410368 119.566971 
L 645.636096 120.153414 
L 646.474752 120.545265 
L 647.506944 121.017085 
L 648.087552 121.272988 
L 648.958464 121.656841 
L 649.539072 121.912744 
L 650.377728 122.269941 
L 651.958272 122.936354 
L 652.603392 123.202919 
L 653.700096 123.629423 
L 654.441984 123.922644 
L 655.538688 124.349149 
L 656.441856 124.677024 
L 657.119232 124.943589 
L 657.925632 125.25547 
L 659.280384 125.804594 
L 661.925376 126.790885 
L 662.53824 127.022796 
L 664.4736 127.395987 
L 682.956288 127.289361 
L 683.18208 126.801547 
L 701.471232 75.087922 
L 705.212928 63.292417 
L 708.922368 51.617666 
L 713.534976 49.3412 
L 718.889472 46.984578 
L 727.598592 43.484472 
L 728.469504 43.268927 
L 742.758912 43.108189 
L 749.564928 43.184799 
L 764.918784 43.746186 
L 792.6912 44.46146 
L 818.33472 44.774399 
L 853.945344 44.945888 
L 901.974528 44.953885 
L 947.52 44.953885 
L 947.52 44.953885 
" clip-path="url(#p1f05cdce41)" style="fill: none; stroke: #ff0000; stroke-width: 2; stroke-linecap: square"/>
   </g>
   <g id="patch_4">
    <path d="M 100.8 131.611034 
L 100.8 38.88 
" style="fill: none; stroke: #bcbcbc; stroke-width: 0.8; stroke-linejoin: miter; stroke-linecap: square"/>
   </g>
   <g id="patch_5">
    <path d="M 987.84 131.611034 
L 987.84 38.88 
" style="fill: none; stroke: #bcbcbc; stroke-width: 0.8; stroke-linejoin: miter; stroke-linecap: square"/>
   </g>
   <g id="patch_6">
    <path d="M 100.8 131.611034 
L 987.84 131.611034 
" style="fill: none; stroke: #bcbcbc; stroke-width: 0.8; stroke-linejoin: miter; stroke-linecap: square"/>
   </g>
   <g id="patch_7">
    <path d="M 100.8 38.88 
L 987.84 38.88 
" style="fill: none; stroke: #bcbcbc; stroke-width: 0.8; stroke-linejoin: miter; stroke-linecap: square"/>
   </g>
  </g>
  <g id="axes_2">
   <g id="patch_8">
    <path d="M 100.8 242.888276 
L 987.84 242.888276 
L 987.84 150.157241 
L 100.8 150.157241 
z
" style="fill: #eeeeee"/>
   </g>
   <g id="matplotlib.axis_3">
    <g id="xtick_7">
     <g id="line2d_18">
      <path d="M 141.12 242.888276 
L 141.12 150.157241 
" clip-path="url(#p151294d932)" style="fill: none; stroke-dasharray: 1.85,0.8; stroke-dashoffset: 0; stroke: #b2b2b2; stroke-width: 0.5"/>
     </g>
     <g id="line2d_19">
      <g>
       <use xlink:href="#m79c4b692e4" x="141.12" y="242.888276" style="stroke: #000000; stroke-width: 0.8"/>
      </g>
     </g>
    </g>
    <g id="xtick_8">
     <g id="line2d_20">
      <path d="M 302.4 242.888276 
L 302.4 150.157241 
" clip-path="url(#p151294d932)" style="fill: none; stroke-dasharray: 1.85,0.8; stroke-dashoffset: 0; stroke: #b2b2b2; stroke-width: 0.5"/>
     </g>
     <g id="line2d_21">
      <g>
       <use xlink:href="#m79c4b692e4" x="302.4" y="242.888276" style="stroke: #000000; stroke-width: 0.8"/>
      </g>
     </g>
    </g>
    <g id="xtick_9">
     <g id="line2d_22">
      <path d="M 463.68 242.888276 
L 463.68 150.157241 
" clip-path="url(#p151294d932)" style="fill: none; stroke-dasharray: 1.85,0.8; stroke-dashoffset: 0; stroke: #b2b2b2; stroke-width: 0.5"/>
     </g>
     <g id="line2d_23">
      <g>
       <use xlink:href="#m79c4b692e4" x="463.68" y="242.888276" style="stroke: #000000; stroke-width: 0.8"/>
      </g>
     </g>
    </g>
    <g id="xtick_10">
     <g id="line2d_24">
      <path d="M 624.96 242.888276 
L 624.96 150.157241 
" clip-path="url(#p151294d932)" style="fill: none; stroke-dasharray: 1.85,0.8; stroke-dashoffset: 0; stroke: #b2b2b2; stroke-width: 0.5"/>
     </g>
     <g id="line2d_25">
      <g>
       <use xlink:href="#m79c4b692e4" x="624.96" y="242.888276" style="stroke: #000000; stroke-width: 0.8"/>
      </g>
     </g>
    </g>
    <g id="xtick_11">
     <g id="line2d_26">
      <path d="M 786.24 242.888276 
L 786.24 150.157241 
" clip-path="url(#p151294d932)" style="fill: none; stroke-dasharray: 1.85,0.8; stroke-dashoffset: 0; stroke: #b2b2b2; stroke-width: 0.5"/>
     </g>
     <g id="line2d_27">
      <g>
       <use xlink:href="#m79c4b692e4" x="786.24" y="242.888276" style="stroke: #000000; stroke-width: 0.8"/>
      </g>
     </g>
    </g>
    <g id="xtick_12">
     <g id="line2d_28">
      <path d="M 947.52 242.888276 
L 947.52 150.157241 
" clip-path="url(#p151294d932)" style="fill: none; stroke-dasharray: 1.85,0.8; stroke-dashoffset: 0; stroke: #b2b2b2; stroke-width: 0.5"/>
     </g>
     <g id="line2d_29">
      <g>
       <use xlink:href="#m79c4b692e4" x="947.52" y="242.888276" style="stroke: #000000; stroke-width: 0.8"/>
      </g>
     </g>
    </g>
   </g>
   <g id="matplotlib.axis_4">
    <g id="ytick_3">
     <g id="line2d_30">
      <path d="M 100.8 219.132974 
L 987.84 219.132974 
" clip-path="url(#p151294d932)" style="fill: none; stroke-dasharray: 1.85,0.8; stroke-dashoffset: 0; stroke: #b2b2b2; stroke-width: 0.5"/>
     </g>
     <g id="line2d_31">
      <g>
       <use xlink:href="#made1c33896" x="100.8" y="219.132974" style="stroke: #000000; stroke-width: 0.8"/>
      </g>
     </g>
     <g id="text_4">
      <!-- 0 V -->
      <g transform="translate(74.36625 224.451881) scale(0.14 -0.14)">
       <use xlink:href="#DejaVuSans-30"/>
       <use xlink:href="#DejaVuSans-20" x="63.623047"/>
       <use xlink:href="#DejaVuSans-56" x="95.410156"/>
      </g>
     </g>
    </g>
    <g id="ytick_4">
     <g id="line2d_32">
      <path d="M 100.8 185.178858 
L 987.84 185.178858 
" clip-path="url(#p151294d932)" style="fill: none; stroke-dasharray: 1.85,0.8; stroke-dashoffset: 0; stroke: #b2b2b2; stroke-width: 0.5"/>
     </g>
     <g id="line2d_33">
      <g>
       <use xlink:href="#made1c33896" x="100.8" y="185.178858" style="stroke: #000000; stroke-width: 0.8"/>
      </g>
     </g>
     <g id="text_5">
      <!-- 1 V -->
      <g transform="translate(74.36625 190.497764) scale(0.14 -0.14)">
       <defs>
        <path id="DejaVuSans-31" d="M 794 531 
L 1825 531 
L 1825 4091 
L 703 3866 
L 703 4441 
L 1819 4666 
L 2450 4666 
L 2450 531 
L 3481 531 
L 3481 0 
L 794 0 
L 794 531 
z
" transform="scale(0.015625)"/>
       </defs>
       <use xlink:href="#DejaVuSans-31"/>
       <use xlink:href="#DejaVuSans-20" x="63.623047"/>
       <use xlink:href="#DejaVuSans-56" x="95.410156"/>
      </g>
     </g>
    </g>
    <g id="ytick_5">
     <g id="line2d_34">
      <path d="M 100.8 151.224742 
L 987.84 151.224742 
" clip-path="url(#p151294d932)" style="fill: none; stroke-dasharray: 1.85,0.8; stroke-dashoffset: 0; stroke: #b2b2b2; stroke-width: 0.5"/>
     </g>
     <g id="line2d_35">
      <g>
       <use xlink:href="#made1c33896" x="100.8" y="151.224742" style="stroke: #000000; stroke-width: 0.8"/>
      </g>
     </g>
     <g id="text_6">
      <!-- 2 V -->
      <g transform="translate(74.36625 156.543648) scale(0.14 -0.14)">
       <use xlink:href="#DejaVuSans-32"/>
       <use xlink:href="#DejaVuSans-20" x="63.623047"/>
       <use xlink:href="#DejaVuSans-56" x="95.410156"/>
      </g>
     </g>
    </g>
    <g id="text_7">
     <g id="patch_9">
      <path d="M 34.8768 224.531509 
L 34.8768 168.514009 
L 11.247425 168.514009 
L 11.247425 224.531509 
z
" style="fill: #ffff00; opacity: 0.2; stroke: #eeeeee; stroke-width: 0.5; stroke-linejoin: miter"/>
     </g>
     <!-- DFF IN -->
     <g transform="translate(26.925238 219.491509) rotate(-90) scale(0.14 -0.14)">
      <defs>
       <path id="DejaVuSans-44" d="M 1259 4147 
L 1259 519 
L 2022 519 
Q 2988 519 3436 956 
Q 3884 1394 3884 2338 
Q 3884 3275 3436 3711 
Q 2988 4147 2022 4147 
L 1259 4147 
z
M 628 4666 
L 1925 4666 
Q 3281 4666 3915 4102 
Q 4550 3538 4550 2338 
Q 4550 1131 3912 565 
Q 3275 0 1925 0 
L 628 0 
L 628 4666 
z
" transform="scale(0.015625)"/>
       <path id="DejaVuSans-46" d="M 628 4666 
L 3309 4666 
L 3309 4134 
L 1259 4134 
L 1259 2759 
L 3109 2759 
L 3109 2228 
L 1259 2228 
L 1259 0 
L 628 0 
L 628 4666 
z
" transform="scale(0.015625)"/>
       <path id="DejaVuSans-4e" d="M 628 4666 
L 1478 4666 
L 3547 763 
L 3547 4666 
L 4159 4666 
L 4159 0 
L 3309 0 
L 1241 3903 
L 1241 0 
L 628 0 
L 628 4666 
z
" transform="scale(0.015625)"/>
      </defs>
      <use xlink:href="#DejaVuSans-44"/>
      <use xlink:href="#DejaVuSans-46" x="77.001953"/>
      <use xlink:href="#DejaVuSans-46" x="134.521484"/>
      <use xlink:href="#DejaVuSans-20" x="192.041016"/>
      <use xlink:href="#DejaVuSans-49" x="223.828125"/>
      <use xlink:href="#DejaVuSans-4e" x="253.320312"/>
     </g>
    </g>
   </g>
   <g id="line2d_36">
    <path d="M 141.12 219.083388 
L 221.953536 219.036827 
L 224.437248 200.11799 
L 225.404928 194.362768 
L 228.243456 181.708747 
L 229.598208 180.438863 
L 231.178752 179.566243 
L 236.533248 179.111258 
L 243.5328 179.002604 
L 244.952064 178.961859 
L 248.145408 178.853206 
L 249.790464 178.788693 
L 251.887104 178.68004 
L 254.241792 178.333708 
L 254.757888 177.797233 
L 255.499776 177.457692 
L 256.338432 177.471274 
L 259.789824 178.085843 
L 262.467072 178.259009 
L 263.886336 178.306545 
L 264.144384 183.54227 
L 264.434688 187.104736 
L 265.176576 191.850502 
L 267.144192 209.172874 
L 268.402176 215.676785 
L 269.047296 216.959096 
L 270.46656 218.720636 
L 273.724416 219.134808 
L 282.530304 219.087425 
L 297.045504 219.077307 
L 305.851392 219.082573 
L 347.751936 219.038521 
L 350.235648 200.158056 
L 351.622656 191.525901 
L 352.654848 186.237887 
L 354.97728 179.247074 
L 358.493184 178.248823 
L 360.202752 178.320127 
L 363.009024 178.42878 
L 364.33152 178.459339 
L 375.169536 178.530642 
L 375.717888 179.522102 
L 376.169472 180.272488 
L 377.008128 181.179063 
L 377.524224 181.128132 
L 378.427392 180.836127 
L 380.427264 179.698664 
L 381.58848 179.325168 
L 387.168768 178.846415 
L 389.587968 178.737762 
L 391.684608 178.625714 
L 394.232832 178.517061 
L 395.61984 178.479711 
L 415.360512 178.394826 
L 416.489472 177.464483 
L 417.037824 177.39997 
L 417.908736 177.508623 
L 419.16672 177.790442 
L 420.908544 178.045098 
L 423.940608 178.255614 
L 455.712768 178.360872 
L 456.809472 179.250469 
L 457.261056 179.321773 
L 458.68032 179.365913 
L 462.680064 178.836229 
L 464.131584 178.642691 
L 467.486208 178.398221 
L 496.065024 178.316731 
L 496.58112 177.776861 
L 497.258496 177.471274 
L 498.3552 177.457692 
L 502.06464 178.126588 
L 504.193536 178.242032 
L 536.320512 178.343895 
L 536.481792 178.520456 
L 536.965632 179.009395 
L 537.610752 179.291214 
L 539.32032 179.365913 
L 544.352256 178.727576 
L 545.545728 178.588364 
L 548.771328 178.357476 
L 576.73728 178.272591 
L 577.22112 177.776861 
L 577.898496 177.471274 
L 578.9952 177.457692 
L 582.70464 178.126588 
L 584.833536 178.242032 
L 616.960512 178.34729 
L 617.089536 178.476316 
L 617.54112 178.961859 
L 618.153984 179.277633 
L 618.605568 179.50173 
L 619.15392 180.57468 
L 619.863552 181.749492 
L 624.47616 187.256171 
L 627.669504 191.660359 
L 628.056576 192.759454 
L 628.927488 195.917187 
L 631.604736 207.032067 
L 632.765952 211.970014 
L 634.572288 218.404828 
L 634.701312 218.725355 
L 636.023808 223.203394 
L 636.443136 223.863122 
L 636.604416 224.288907 
L 637.120512 225.619908 
L 637.410816 225.954017 
L 637.733376 226.325475 
L 637.926912 226.79506 
L 638.797824 228.812274 
L 639.281664 229.716812 
L 639.95904 231.056302 
L 640.313856 231.534715 
L 640.76544 232.658597 
L 641.24928 233.487077 
L 641.8944 234.48431 
L 642.249216 235.339953 
L 643.152384 236.683518 
L 643.281408 236.962281 
L 643.765248 237.906545 
L 644.378112 238.673229 
L 644.79744 238.251179 
L 645.668352 236.983332 
L 646.023168 236.320888 
L 646.281216 236.076418 
L 646.668288 235.655727 
L 647.119872 235.157959 
L 647.894016 234.053432 
L 648.02304 234.008952 
L 648.3456 233.660922 
L 648.700416 233.463988 
L 649.216512 233.009682 
L 649.668096 232.421597 
L 650.022912 231.854224 
L 650.377728 231.632843 
L 650.539008 231.582591 
L 650.92608 231.246445 
L 651.474432 230.940518 
L 652.248576 230.238008 
L 653.216256 229.178979 
L 654.248448 228.530795 
L 655.377408 227.314219 
L 655.699968 226.837503 
L 656.216064 226.60288 
L 656.73216 226.422584 
L 658.34496 225.176807 
L 658.538496 224.820968 
L 658.893312 224.350024 
L 659.248128 224.270911 
L 659.764224 224.088238 
L 660.635136 223.464162 
L 661.796352 222.561322 
L 664.441344 220.163991 
L 665.086464 219.296732 
L 666.021888 218.000639 
L 668.279808 214.87377 
L 669.95712 212.699009 
L 672.021504 210.351421 
L 672.827904 209.39018 
L 673.118208 208.651339 
L 675.311616 202.443168 
L 675.827712 201.372595 
L 677.05344 199.38526 
L 677.666304 198.612465 
L 678.440448 197.611837 
L 679.375872 196.330409 
L 680.827392 194.73864 
L 681.375744 194.096907 
L 682.665984 192.808009 
L 683.085312 192.212114 
L 683.50464 190.871266 
L 685.052928 185.527567 
L 685.891584 183.54227 
L 686.762496 182.044893 
L 687.439872 181.291112 
L 689.213952 179.661314 
L 691.213824 176.961962 
L 693.34272 173.807625 
L 694.14912 172.61244 
L 695.149056 171.145622 
L 697.632768 167.723047 
L 697.69728 167.818118 
L 698.535936 169.264564 
L 698.955264 169.373217 
L 699.374592 169.220423 
L 699.79392 168.880882 
L 700.245504 168.252731 
L 701.213184 166.198507 
L 702.180864 164.052607 
L 703.890432 160.877897 
L 706.24512 157.601325 
L 708.922368 154.392661 
L 710.309376 154.715225 
L 714.083328 155.221141 
L 717.05088 155.957946 
L 728.50176 159.682712 
L 729.533952 160.205606 
L 733.34016 161.927079 
L 734.598144 162.470345 
L 735.694848 162.932121 
L 736.88832 163.438037 
L 737.952768 163.804742 
L 738.33984 163.129055 
L 738.726912 162.877795 
L 739.113984 162.898167 
L 739.565568 163.149427 
L 743.049216 165.587333 
L 747.403776 167.302016 
L 748.242432 167.590626 
L 754.661376 169.502243 
L 756.790272 170.062486 
L 758.274048 170.422399 
L 758.693376 170.527657 
L 770.079744 172.812769 
L 771.660288 173.087797 
L 773.724672 173.410361 
L 776.07936 173.76688 
L 777.627648 173.980791 
L 778.272768 174.089444 
L 778.950144 175.026577 
L 779.401728 175.264256 
L 779.95008 175.383096 
L 781.369344 175.125044 
L 783.465984 174.795689 
L 784.336896 174.809271 
L 791.142912 175.41705 
L 792.304128 175.525703 
L 797.142528 175.926361 
L 798.626304 176.035015 
L 801.593856 176.242135 
L 802.238976 176.276089 
L 802.69056 176.306648 
L 804.46464 176.415301 
L 805.238784 176.466232 
L 807.335424 176.57828 
L 809.270784 176.686934 
L 811.56096 176.819355 
L 812.302848 176.846518 
L 814.14144 176.934799 
L 814.883328 176.965357 
L 817.20576 177.074011 
L 818.560512 177.131733 
L 819.62496 176.272693 
L 820.044288 176.20139 
L 821.23776 176.435673 
L 822.108672 176.686934 
L 825.172992 177.220013 
L 826.56 177.325271 
L 827.301888 177.369411 
L 829.559808 177.478065 
L 831.011328 177.522205 
L 834.398208 177.627463 
L 834.978816 177.641044 
L 835.785216 177.658021 
L 836.204544 177.674998 
L 842.52672 177.783652 
L 843.139584 177.804024 
L 849.719808 177.912677 
L 850.752 177.912677 
L 858.912768 178.011144 
L 859.848192 178.846415 
L 860.815872 179.046745 
L 863.460864 178.659668 
L 866.041344 178.228451 
L 867.52512 178.180915 
L 874.492416 178.072262 
L 875.556864 178.068866 
L 899.265024 177.97719 
L 899.748864 177.44411 
L 900.458496 177.118151 
L 901.5552 177.107965 
L 905.522688 177.831187 
L 907.2 177.899096 
L 939.520512 178.007749 
L 939.681792 178.191101 
L 940.165632 178.676645 
L 940.649472 178.897347 
L 941.55264 179.073908 
L 943.455744 178.965255 
L 946.423296 178.452548 
L 947.52 178.279382 
L 947.52 178.279382 
" clip-path="url(#p151294d932)" style="fill: none; stroke: #008000; stroke-width: 2; stroke-linecap: square"/>
   </g>
   <g id="patch_10">
    <path d="M 100.8 242.888276 
L 100.8 150.157241 
" style="fill: none; stroke: #bcbcbc; stroke-width: 0.8; stroke-linejoin: miter; stroke-linecap: square"/>
   </g>
   <g id="patch_11">
    <path d="M 987.84 242.888276 
L 987.84 150.157241 
" style="fill: none; stroke: #bcbcbc; stroke-width: 0.8; stroke-linejoin: miter; stroke-linecap: square"/>
   </g>
   <g id="patch_12">
    <path d="M 100.8 242.888276 
L 987.84 242.888276 
" style="fill: none; stroke: #bcbcbc; stroke-width: 0.8; stroke-linejoin: miter; stroke-linecap: square"/>
   </g>
   <g id="patch_13">
    <path d="M 100.8 150.157241 
L 987.84 150.157241 
" style="fill: none; stroke: #bcbcbc; stroke-width: 0.8; stroke-linejoin: miter; stroke-linecap: square"/>
   </g>
  </g>
  <g id="axes_3">
   <g id="patch_14">
    <path d="M 100.8 354.165517 
L 987.84 354.165517 
L 987.84 261.434483 
L 100.8 261.434483 
z
" style="fill: #eeeeee"/>
   </g>
   <g id="matplotlib.axis_5">
    <g id="xtick_13">
     <g id="line2d_37">
      <path d="M 141.12 354.165517 
L 141.12 261.434483 
" clip-path="url(#p169baa0d42)" style="fill: none; stroke-dasharray: 1.85,0.8; stroke-dashoffset: 0; stroke: #b2b2b2; stroke-width: 0.5"/>
     </g>
     <g id="line2d_38">
      <g>
       <use xlink:href="#m79c4b692e4" x="141.12" y="354.165517" style="stroke: #000000; stroke-width: 0.8"/>
      </g>
     </g>
    </g>
    <g id="xtick_14">
     <g id="line2d_39">
      <path d="M 302.4 354.165517 
L 302.4 261.434483 
" clip-path="url(#p169baa0d42)" style="fill: none; stroke-dasharray: 1.85,0.8; stroke-dashoffset: 0; stroke: #b2b2b2; stroke-width: 0.5"/>
     </g>
     <g id="line2d_40">
      <g>
       <use xlink:href="#m79c4b692e4" x="302.4" y="354.165517" style="stroke: #000000; stroke-width: 0.8"/>
      </g>
     </g>
    </g>
    <g id="xtick_15">
     <g id="line2d_41">
      <path d="M 463.68 354.165517 
L 463.68 261.434483 
" clip-path="url(#p169baa0d42)" style="fill: none; stroke-dasharray: 1.85,0.8; stroke-dashoffset: 0; stroke: #b2b2b2; stroke-width: 0.5"/>
     </g>
     <g id="line2d_42">
      <g>
       <use xlink:href="#m79c4b692e4" x="463.68" y="354.165517" style="stroke: #000000; stroke-width: 0.8"/>
      </g>
     </g>
    </g>
    <g id="xtick_16">
     <g id="line2d_43">
      <path d="M 624.96 354.165517 
L 624.96 261.434483 
" clip-path="url(#p169baa0d42)" style="fill: none; stroke-dasharray: 1.85,0.8; stroke-dashoffset: 0; stroke: #b2b2b2; stroke-width: 0.5"/>
     </g>
     <g id="line2d_44">
      <g>
       <use xlink:href="#m79c4b692e4" x="624.96" y="354.165517" style="stroke: #000000; stroke-width: 0.8"/>
      </g>
     </g>
    </g>
    <g id="xtick_17">
     <g id="line2d_45">
      <path d="M 786.24 354.165517 
L 786.24 261.434483 
" clip-path="url(#p169baa0d42)" style="fill: none; stroke-dasharray: 1.85,0.8; stroke-dashoffset: 0; stroke: #b2b2b2; stroke-width: 0.5"/>
     </g>
     <g id="line2d_46">
      <g>
       <use xlink:href="#m79c4b692e4" x="786.24" y="354.165517" style="stroke: #000000; stroke-width: 0.8"/>
      </g>
     </g>
    </g>
    <g id="xtick_18">
     <g id="line2d_47">
      <path d="M 947.52 354.165517 
L 947.52 261.434483 
" clip-path="url(#p169baa0d42)" style="fill: none; stroke-dasharray: 1.85,0.8; stroke-dashoffset: 0; stroke: #b2b2b2; stroke-width: 0.5"/>
     </g>
     <g id="line2d_48">
      <g>
       <use xlink:href="#m79c4b692e4" x="947.52" y="354.165517" style="stroke: #000000; stroke-width: 0.8"/>
      </g>
     </g>
    </g>
   </g>
   <g id="matplotlib.axis_6">
    <g id="ytick_6">
     <g id="line2d_49">
      <path d="M 100.8 343.900182 
L 987.84 343.900182 
" clip-path="url(#p169baa0d42)" style="fill: none; stroke-dasharray: 1.85,0.8; stroke-dashoffset: 0; stroke: #b2b2b2; stroke-width: 0.5"/>
     </g>
     <g id="line2d_50">
      <g>
       <use xlink:href="#made1c33896" x="100.8" y="343.900182" style="stroke: #000000; stroke-width: 0.8"/>
      </g>
     </g>
     <g id="text_8">
      <!-- 0 V -->
      <g transform="translate(74.36625 349.219088) scale(0.14 -0.14)">
       <use xlink:href="#DejaVuSans-30"/>
       <use xlink:href="#DejaVuSans-20" x="63.623047"/>
       <use xlink:href="#DejaVuSans-56" x="95.410156"/>
      </g>
     </g>
    </g>
    <g id="ytick_7">
     <g id="line2d_51">
      <path d="M 100.8 296.139774 
L 987.84 296.139774 
" clip-path="url(#p169baa0d42)" style="fill: none; stroke-dasharray: 1.85,0.8; stroke-dashoffset: 0; stroke: #b2b2b2; stroke-width: 0.5"/>
     </g>
     <g id="line2d_52">
      <g>
       <use xlink:href="#made1c33896" x="100.8" y="296.139774" style="stroke: #000000; stroke-width: 0.8"/>
      </g>
     </g>
     <g id="text_9">
      <!-- 1 V -->
      <g transform="translate(74.36625 301.45868) scale(0.14 -0.14)">
       <use xlink:href="#DejaVuSans-31"/>
       <use xlink:href="#DejaVuSans-20" x="63.623047"/>
       <use xlink:href="#DejaVuSans-56" x="95.410156"/>
      </g>
     </g>
    </g>
    <g id="text_10">
     <g id="patch_15">
      <path d="M 34.8768 342.395313 
L 34.8768 273.204688 
L 11.247425 273.204688 
L 11.247425 342.395313 
z
" style="fill: #ffff00; opacity: 0.2; stroke: #eeeeee; stroke-width: 0.5; stroke-linejoin: miter"/>
     </g>
     <!-- CLK BUF -->
     <g transform="translate(26.925238 337.355313) rotate(-90) scale(0.14 -0.14)">
      <defs>
       <path id="DejaVuSans-43" d="M 4122 4306 
L 4122 3641 
Q 3803 3938 3442 4084 
Q 3081 4231 2675 4231 
Q 1875 4231 1450 3742 
Q 1025 3253 1025 2328 
Q 1025 1406 1450 917 
Q 1875 428 2675 428 
Q 3081 428 3442 575 
Q 3803 722 4122 1019 
L 4122 359 
Q 3791 134 3420 21 
Q 3050 -91 2638 -91 
Q 1578 -91 968 557 
Q 359 1206 359 2328 
Q 359 3453 968 4101 
Q 1578 4750 2638 4750 
Q 3056 4750 3426 4639 
Q 3797 4528 4122 4306 
z
" transform="scale(0.015625)"/>
       <path id="DejaVuSans-4b" d="M 628 4666 
L 1259 4666 
L 1259 2694 
L 3353 4666 
L 4166 4666 
L 1850 2491 
L 4331 0 
L 3500 0 
L 1259 2247 
L 1259 0 
L 628 0 
L 628 4666 
z
" transform="scale(0.015625)"/>
      </defs>
      <use xlink:href="#DejaVuSans-43"/>
      <use xlink:href="#DejaVuSans-4c" x="69.824219"/>
      <use xlink:href="#DejaVuSans-4b" x="125.537109"/>
      <use xlink:href="#DejaVuSans-20" x="191.113281"/>
      <use xlink:href="#DejaVuSans-42" x="222.900391"/>
      <use xlink:href="#DejaVuSans-55" x="291.503906"/>
      <use xlink:href="#DejaVuSans-46" x="364.697266"/>
     </g>
    </g>
   </g>
   <g id="line2d_53">
    <path d="M 141.12 343.898919 
L 173.376 343.898919 
L 173.601792 286.587693 
L 213.696 286.587693 
L 213.760512 332.303477 
L 213.825024 343.878362 
L 213.889536 343.809633 
L 213.954048 344.000431 
L 214.01856 343.905358 
L 215.212032 343.897242 
L 222.598656 343.898935 
L 254.016 343.898886 
L 254.17728 286.410979 
L 254.241792 286.716646 
L 254.403072 286.57814 
L 254.8224 286.587693 
L 294.336 286.587693 
L 294.400512 332.263358 
L 294.465024 344.256575 
L 294.529536 343.426198 
L 294.626304 343.975237 
L 294.65856 343.941251 
L 294.852096 343.857305 
L 295.206912 343.917561 
L 295.46496 343.898704 
L 318.20544 343.89892 
L 334.656 343.898921 
L 334.81728 286.501724 
L 334.881792 286.606797 
L 335.172096 286.592469 
L 374.976 286.587693 
L 375.040512 332.307776 
L 375.105024 343.900957 
L 375.169536 343.803577 
L 375.234048 343.993324 
L 375.29856 343.905516 
L 376.556544 343.896761 
L 384.201216 343.898917 
L 415.296 343.898921 
L 415.45728 286.410979 
L 415.521792 286.716646 
L 415.683072 286.573364 
L 416.42496 286.573364 
L 455.616 286.587693 
L 455.680512 332.266224 
L 455.745024 344.262459 
L 455.809536 343.205602 
L 455.906304 344.600922 
L 455.93856 343.977864 
L 456.132096 343.871498 
L 456.486912 343.899533 
L 486.710784 343.898917 
L 495.936 343.898919 
L 496.09728 286.492172 
L 496.161792 286.606797 
L 497.032704 286.587693 
L 536.256 286.587693 
L 536.320512 332.266224 
L 536.385024 344.262406 
L 536.449536 343.205698 
L 536.546304 344.600827 
L 536.57856 343.977859 
L 536.772096 343.8715 
L 537.126912 343.899533 
L 567.254016 343.899303 
L 576.576 343.89892 
L 576.73728 286.492172 
L 576.801792 286.606797 
L 577.672704 286.587693 
L 616.896 286.587693 
L 616.928256 294.047868 
L 617.05728 343.801471 
L 617.186304 343.897552 
L 618.637824 344.07531 
L 619.250688 344.708957 
L 620.024832 345.159719 
L 621.024768 345.439452 
L 622.444032 345.571462 
L 625.218048 345.547247 
L 636.636672 345.265986 
L 637.410816 345.476419 
L 638.18496 345.85043 
L 639.023616 346.392702 
L 639.733248 346.862187 
L 644.442624 349.87883 
L 645.313536 349.395972 
L 645.829632 349.174364 
L 647.635968 348.441194 
L 650.539008 347.348674 
L 650.700288 347.305881 
L 655.732224 345.650219 
L 657.216 345.208912 
L 657.248256 346.64268 
L 657.441792 319.546195 
L 657.603072 319.374735 
L 663.763968 316.976207 
L 666.150912 315.434979 
L 673.892352 309.953994 
L 678.214656 307.269859 
L 682.762752 304.77008 
L 683.085312 304.492114 
L 684.440064 301.676161 
L 686.375424 297.017133 
L 690.729984 286.539932 
L 691.40736 284.997271 
L 693.149184 281.143006 
L 694.181376 278.917371 
L 697.536 272.149721 
L 697.761792 342.228185 
L 698.439168 342.250681 
L 702.955008 342.337318 
L 704.47104 342.295957 
L 708.761088 342.427108 
L 709.051392 342.753884 
L 709.696512 343.379355 
L 710.4384 343.797215 
L 711.438336 344.092078 
L 712.8576 344.262554 
L 715.59936 344.333526 
L 725.792256 344.272422 
L 728.953344 344.368965 
L 730.985472 344.446991 
L 737.856 344.386335 
L 737.985024 265.64953 
L 738.146304 266.284743 
L 739.436544 266.967717 
L 739.920384 267.254279 
L 741.436416 268.047102 
L 742.758912 268.70142 
L 746.24256 270.368258 
L 747.081216 270.736013 
L 754.016256 273.697158 
L 754.274304 273.807007 
L 756.112896 274.509085 
L 756.4032 274.618934 
L 757.596672 275.03445 
L 757.951488 275.144299 
L 759.14496 275.559814 
L 759.403008 275.664887 
L 759.822336 275.798616 
L 760.177152 275.903689 
L 760.59648 276.037418 
L 760.951296 276.142491 
L 761.467392 276.323981 
L 761.822208 276.429054 
L 762.241536 276.562783 
L 762.596352 276.667856 
L 763.01568 276.801585 
L 763.370496 276.906658 
L 763.725312 276.992627 
L 769.112064 278.473199 
L 769.563648 278.578272 
L 769.918464 278.664241 
L 772.402176 279.285126 
L 772.950528 279.390199 
L 773.305344 279.476168 
L 774.821376 279.810491 
L 775.369728 279.915564 
L 775.724544 280.001532 
L 776.24064 280.106605 
L 776.595456 280.187798 
L 778.176 280.488688 
L 778.208256 289.114218 
L 778.33728 344.07818 
L 778.595328 344.063131 
L 814.205952 343.952685 
L 818.496 343.945871 
L 818.65728 284.90175 
L 818.721792 284.920854 
L 819.399168 284.930406 
L 819.721728 284.963839 
L 822.302208 285.073688 
L 822.624768 285.10712 
L 825.398784 285.216969 
L 825.721344 285.250401 
L 828.882432 285.36025 
L 829.204992 285.393682 
L 832.84992 285.503531 
L 833.17248 285.536964 
L 837.301248 285.646812 
L 837.623808 285.680245 
L 842.52672 285.790094 
L 842.84928 285.823526 
L 848.81664 285.933375 
L 849.1392 285.966807 
L 856.751616 286.076656 
L 857.074176 286.110088 
L 858.816 286.110088 
L 858.848256 290.618671 
L 858.912768 344.028715 
L 858.97728 343.742085 
L 859.074048 344.070495 
L 859.13856 343.920891 
L 859.912704 343.918178 
L 865.976832 343.904866 
L 886.007808 343.912581 
L 899.136 343.912555 
L 899.29728 286.014568 
L 899.361792 286.129193 
L 900.232704 286.110088 
L 939.456 286.110088 
L 939.488256 294.72129 
L 939.61728 343.855792 
L 939.649536 343.994671 
L 939.714048 343.861799 
L 939.746304 343.819892 
L 939.810816 343.881533 
L 939.972096 343.976336 
L 940.004352 343.941179 
L 940.197888 343.911805 
L 945.1008 343.912606 
L 947.52 343.912585 
L 947.52 343.912585 
" clip-path="url(#p169baa0d42)" style="fill: none; stroke: #0000ff; stroke-width: 2; stroke-linecap: square"/>
   </g>
   <g id="patch_16">
    <path d="M 100.8 354.165517 
L 100.8 261.434483 
" style="fill: none; stroke: #bcbcbc; stroke-width: 0.8; stroke-linejoin: miter; stroke-linecap: square"/>
   </g>
   <g id="patch_17">
    <path d="M 987.84 354.165517 
L 987.84 261.434483 
" style="fill: none; stroke: #bcbcbc; stroke-width: 0.8; stroke-linejoin: miter; stroke-linecap: square"/>
   </g>
   <g id="patch_18">
    <path d="M 100.8 354.165517 
L 987.84 354.165517 
" style="fill: none; stroke: #bcbcbc; stroke-width: 0.8; stroke-linejoin: miter; stroke-linecap: square"/>
   </g>
   <g id="patch_19">
    <path d="M 100.8 261.434483 
L 987.84 261.434483 
" style="fill: none; stroke: #bcbcbc; stroke-width: 0.8; stroke-linejoin: miter; stroke-linecap: square"/>
   </g>
  </g>
  <g id="axes_4">
   <g id="patch_20">
    <path d="M 100.8 465.442759 
L 987.84 465.442759 
L 987.84 372.711724 
L 100.8 372.711724 
z
" style="fill: #eeeeee"/>
   </g>
   <g id="matplotlib.axis_7">
    <g id="xtick_19">
     <g id="line2d_54">
      <path d="M 141.12 465.442759 
L 141.12 372.711724 
" clip-path="url(#pcc25aa2e98)" style="fill: none; stroke-dasharray: 1.85,0.8; stroke-dashoffset: 0; stroke: #b2b2b2; stroke-width: 0.5"/>
     </g>
     <g id="line2d_55">
      <g>
       <use xlink:href="#m79c4b692e4" x="141.12" y="465.442759" style="stroke: #000000; stroke-width: 0.8"/>
      </g>
     </g>
    </g>
    <g id="xtick_20">
     <g id="line2d_56">
      <path d="M 302.4 465.442759 
L 302.4 372.711724 
" clip-path="url(#pcc25aa2e98)" style="fill: none; stroke-dasharray: 1.85,0.8; stroke-dashoffset: 0; stroke: #b2b2b2; stroke-width: 0.5"/>
     </g>
     <g id="line2d_57">
      <g>
       <use xlink:href="#m79c4b692e4" x="302.4" y="465.442759" style="stroke: #000000; stroke-width: 0.8"/>
      </g>
     </g>
    </g>
    <g id="xtick_21">
     <g id="line2d_58">
      <path d="M 463.68 465.442759 
L 463.68 372.711724 
" clip-path="url(#pcc25aa2e98)" style="fill: none; stroke-dasharray: 1.85,0.8; stroke-dashoffset: 0; stroke: #b2b2b2; stroke-width: 0.5"/>
     </g>
     <g id="line2d_59">
      <g>
       <use xlink:href="#m79c4b692e4" x="463.68" y="465.442759" style="stroke: #000000; stroke-width: 0.8"/>
      </g>
     </g>
    </g>
    <g id="xtick_22">
     <g id="line2d_60">
      <path d="M 624.96 465.442759 
L 624.96 372.711724 
" clip-path="url(#pcc25aa2e98)" style="fill: none; stroke-dasharray: 1.85,0.8; stroke-dashoffset: 0; stroke: #b2b2b2; stroke-width: 0.5"/>
     </g>
     <g id="line2d_61">
      <g>
       <use xlink:href="#m79c4b692e4" x="624.96" y="465.442759" style="stroke: #000000; stroke-width: 0.8"/>
      </g>
     </g>
    </g>
    <g id="xtick_23">
     <g id="line2d_62">
      <path d="M 786.24 465.442759 
L 786.24 372.711724 
" clip-path="url(#pcc25aa2e98)" style="fill: none; stroke-dasharray: 1.85,0.8; stroke-dashoffset: 0; stroke: #b2b2b2; stroke-width: 0.5"/>
     </g>
     <g id="line2d_63">
      <g>
       <use xlink:href="#m79c4b692e4" x="786.24" y="465.442759" style="stroke: #000000; stroke-width: 0.8"/>
      </g>
     </g>
    </g>
    <g id="xtick_24">
     <g id="line2d_64">
      <path d="M 947.52 465.442759 
L 947.52 372.711724 
" clip-path="url(#pcc25aa2e98)" style="fill: none; stroke-dasharray: 1.85,0.8; stroke-dashoffset: 0; stroke: #b2b2b2; stroke-width: 0.5"/>
     </g>
     <g id="line2d_65">
      <g>
       <use xlink:href="#m79c4b692e4" x="947.52" y="465.442759" style="stroke: #000000; stroke-width: 0.8"/>
      </g>
     </g>
    </g>
   </g>
   <g id="matplotlib.axis_8">
    <g id="ytick_8">
     <g id="line2d_66">
      <path d="M 100.8 439.185613 
L 987.84 439.185613 
" clip-path="url(#pcc25aa2e98)" style="fill: none; stroke-dasharray: 1.85,0.8; stroke-dashoffset: 0; stroke: #b2b2b2; stroke-width: 0.5"/>
     </g>
     <g id="line2d_67">
      <g>
       <use xlink:href="#made1c33896" x="100.8" y="439.185613" style="stroke: #000000; stroke-width: 0.8"/>
      </g>
     </g>
     <g id="text_11">
      <!-- 0 V -->
      <g transform="translate(74.36625 444.504519) scale(0.14 -0.14)">
       <use xlink:href="#DejaVuSans-30"/>
       <use xlink:href="#DejaVuSans-20" x="63.623047"/>
       <use xlink:href="#DejaVuSans-56" x="95.410156"/>
      </g>
     </g>
    </g>
    <g id="ytick_9">
     <g id="line2d_68">
      <path d="M 100.8 400.611362 
L 987.84 400.611362 
" clip-path="url(#pcc25aa2e98)" style="fill: none; stroke-dasharray: 1.85,0.8; stroke-dashoffset: 0; stroke: #b2b2b2; stroke-width: 0.5"/>
     </g>
     <g id="line2d_69">
      <g>
       <use xlink:href="#made1c33896" x="100.8" y="400.611362" style="stroke: #000000; stroke-width: 0.8"/>
      </g>
     </g>
     <g id="text_12">
      <!-- 1 V -->
      <g transform="translate(74.36625 405.930268) scale(0.14 -0.14)">
       <use xlink:href="#DejaVuSans-31"/>
       <use xlink:href="#DejaVuSans-20" x="63.623047"/>
       <use xlink:href="#DejaVuSans-56" x="95.410156"/>
      </g>
     </g>
    </g>
    <g id="text_13">
     <g id="patch_21">
      <path d="M 34.8768 454.693023 
L 34.8768 383.46146 
L 11.247425 383.46146 
L 11.247425 454.693023 
z
" style="fill: #ffff00; opacity: 0.2; stroke: #eeeeee; stroke-width: 0.5; stroke-linejoin: miter"/>
     </g>
     <!-- DFF OUT -->
     <g transform="translate(26.925238 449.653023) rotate(-90) scale(0.14 -0.14)">
      <defs>
       <path id="DejaVuSans-4f" d="M 2522 4238 
Q 1834 4238 1429 3725 
Q 1025 3213 1025 2328 
Q 1025 1447 1429 934 
Q 1834 422 2522 422 
Q 3209 422 3611 934 
Q 4013 1447 4013 2328 
Q 4013 3213 3611 3725 
Q 3209 4238 2522 4238 
z
M 2522 4750 
Q 3503 4750 4090 4092 
Q 4678 3434 4678 2328 
Q 4678 1225 4090 567 
Q 3503 -91 2522 -91 
Q 1538 -91 948 565 
Q 359 1222 359 2328 
Q 359 3434 948 4092 
Q 1538 4750 2522 4750 
z
" transform="scale(0.015625)"/>
       <path id="DejaVuSans-54" d="M -19 4666 
L 3928 4666 
L 3928 4134 
L 2272 4134 
L 2272 0 
L 1638 0 
L 1638 4134 
L -19 4134 
L -19 4666 
z
" transform="scale(0.015625)"/>
      </defs>
      <use xlink:href="#DejaVuSans-44"/>
      <use xlink:href="#DejaVuSans-46" x="77.001953"/>
      <use xlink:href="#DejaVuSans-46" x="134.521484"/>
      <use xlink:href="#DejaVuSans-20" x="192.041016"/>
      <use xlink:href="#DejaVuSans-4f" x="223.828125"/>
      <use xlink:href="#DejaVuSans-55" x="302.539062"/>
      <use xlink:href="#DejaVuSans-54" x="375.732422"/>
     </g>
    </g>
   </g>
   <g id="line2d_70">
    <path d="M 141.12 410.080183 
L 173.408256 410.127244 
L 173.440512 411.724218 
L 173.601792 439.187967 
L 174.150144 439.183829 
L 184.697856 439.18459 
L 254.048256 439.186201 
L 254.080512 439.340404 
L 254.112768 439.085331 
L 254.306304 435.319316 
L 254.596608 434.564418 
L 254.693376 434.025921 
L 255.14496 427.267712 
L 255.370752 411.383607 
L 255.596544 393.270681 
L 255.757824 392.954373 
L 255.983616 392.892654 
L 256.951296 392.896511 
L 295.755264 392.97366 
L 296.239104 395.469414 
L 296.59392 394.844511 
L 297.948672 393.21282 
L 299.593728 392.927371 
L 334.688256 392.911941 
L 334.720512 392.800076 
L 334.752768 393.367117 
L 334.785024 396.171465 
L 334.914048 439.169801 
L 334.97856 439.135852 
L 335.13984 439.177528 
L 335.526912 439.184941 
L 367.815168 439.184549 
L 415.328256 439.186177 
L 415.360512 439.339867 
L 415.392768 439.087468 
L 415.586304 435.229438 
L 415.876608 434.344159 
L 415.908864 434.238079 
L 416.1024 429.663559 
L 416.521728 416.346184 
L 416.9088 393.023806 
L 417.102336 392.900369 
L 418.102272 392.892654 
L 495.968256 392.911941 
L 496.000512 393.043093 
L 496.065024 392.865652 
L 496.355328 392.888796 
L 576.608256 392.911941 
L 576.640512 393.043093 
L 576.705024 392.865652 
L 576.995328 392.888796 
L 618.605568 392.992947 
L 620.218368 395.083671 
L 621.992448 397.837873 
L 626.476032 405.000726 
L 627.088896 406.432216 
L 628.250112 410.616365 
L 628.992 413.970782 
L 629.024256 413.940694 
L 629.056512 413.866246 
L 629.088768 413.912535 
L 629.572608 416.571844 
L 629.604864 416.747357 
L 629.63712 416.618133 
L 629.669376 416.439148 
L 629.733888 416.58033 
L 629.95968 418.280297 
L 630.185472 419.265098 
L 630.217728 419.086499 
L 630.28224 419.15979 
L 630.379008 419.501172 
L 630.6048 421.210397 
L 630.862848 422.056717 
L 630.895104 421.913606 
L 630.959616 422.120364 
L 631.185408 423.823032 
L 631.475712 425.215562 
L 631.507968 424.617661 
L 631.57248 425.420391 
L 631.766016 426.502785 
L 631.991808 427.507258 
L 632.024064 427.184006 
L 632.120832 427.392693 
L 632.185344 427.661941 
L 632.346624 429.071058 
L 633.927168 435.79428 
L 633.959424 435.333048 
L 633.99168 436.0486 
L 634.023936 435.603454 
L 634.217472 436.961229 
L 635.249664 441.022364 
L 635.28192 440.745363 
L 635.346432 440.829879 
L 635.76576 442.879406 
L 636.023808 443.61278 
L 636.056064 443.375934 
L 636.08832 443.776335 
L 636.120576 443.475841 
L 637.443072 446.91165 
L 637.475328 446.687533 
L 637.53984 446.790912 
L 637.8624 447.408872 
L 637.894656 447.853247 
L 637.991424 447.815059 
L 638.055936 447.921138 
L 638.378496 448.968043 
L 639.31392 451.158289 
L 639.991296 452.589394 
L 640.023552 452.524203 
L 640.313856 453.097802 
L 641.604096 455.93571 
L 641.636352 455.856247 
L 641.668608 455.944196 
L 641.829888 456.446433 
L 641.8944 456.444504 
L 642.05568 456.87885 
L 642.087936 456.865735 
L 642.120192 456.948284 
L 642.636288 458.082367 
L 643.442688 459.648867 
L 644.3136 461.08653 
L 644.378112 461.227712 
L 644.442624 461.084215 
L 644.63616 460.89173 
L 645.055488 460.191607 
L 645.087744 460.218223 
L 645.152256 459.589463 
L 645.216768 459.83981 
L 645.28128 459.883013 
L 645.507072 459.439409 
L 646.57152 457.649564 
L 646.668288 457.454378 
L 647.37792 456.357327 
L 647.410176 456.528211 
L 647.442432 456.28635 
L 647.86176 455.83696 
L 647.894016 455.926838 
L 647.926272 455.85779 
L 648.18432 455.467804 
L 648.377856 455.286505 
L 648.410112 455.349381 
L 648.442368 455.274933 
L 648.635904 455.105206 
L 648.82944 454.801627 
L 649.281024 454.133135 
L 649.31328 454.12272 
L 649.345536 454.276632 
L 649.377792 454.050972 
L 649.410048 454.224556 
L 649.539072 453.853858 
L 649.571328 454.051744 
L 649.603584 453.888189 
L 649.764864 453.588467 
L 650.28096 453.0654 
L 650.313216 453.259428 
L 650.345472 453.00831 
L 650.377728 453.118247 
L 650.539008 452.82624 
L 650.571264 453.002524 
L 650.635776 452.750634 
L 651.184128 452.413495 
L 651.506688 451.90933 
L 651.89376 451.370062 
L 652.184064 451.116243 
L 652.21632 451.268226 
L 652.248576 451.150188 
L 652.3776 450.833108 
L 652.506624 450.716228 
L 652.53888 450.934173 
L 652.571136 450.658752 
L 652.603392 450.802249 
L 652.70016 450.540715 
L 652.732416 450.675725 
L 652.764672 450.760974 
L 652.829184 450.68614 
L 652.958208 450.315056 
L 653.054976 450.21322 
L 653.02272 450.399533 
L 653.087232 450.281496 
L 653.119488 450.380632 
L 653.151744 450.151887 
L 653.474304 449.98216 
L 653.764608 449.779645 
L 654.441984 448.846148 
L 654.538752 448.698795 
L 654.571008 448.966886 
L 654.63552 448.583458 
L 654.667776 448.838819 
L 654.732288 448.485093 
L 654.893568 448.322696 
L 654.925824 448.593873 
L 654.95808 448.225489 
L 654.990336 448.157212 
L 655.022592 448.178428 
L 655.054848 448.520582 
L 655.087104 448.081221 
L 655.151616 448.423375 
L 655.28064 447.951612 
L 655.958016 447.430088 
L 657.05472 446.647802 
L 657.183744 446.445287 
L 657.312768 446.067259 
L 657.37728 446.173724 
L 657.409536 446.005541 
L 657.506304 445.823084 
L 657.570816 446.120106 
L 657.69984 445.555765 
L 657.732096 445.571194 
L 657.764352 445.967352 
L 657.796608 445.482088 
L 657.828864 445.479773 
L 657.925632 445.381409 
L 657.957888 445.772552 
L 658.054656 445.697718 
L 658.151424 445.198181 
L 658.18368 445.345921 
L 658.248192 445.484402 
L 658.409472 445.001839 
L 658.8288 444.737991 
L 658.957824 444.68553 
L 658.99008 444.802795 
L 659.054592 444.643484 
L 659.344896 444.597195 
L 660.215808 443.822624 
L 660.538368 443.515187 
L 660.635136 443.430323 
L 660.699648 443.021128 
L 660.76416 443.3092 
L 660.989952 442.528226 
L 661.022208 442.887275 
L 661.054464 443.005312 
L 661.08672 442.455398 
L 661.183488 442.597775 
L 661.215744 442.748755 
L 661.248 442.652821 
L 661.377024 442.222525 
L 661.40928 442.553608 
L 661.473792 442.168868 
L 661.506048 442.464386 
L 661.538304 442.482014 
L 661.667328 442.045508 
L 661.73184 442.142946 
L 661.796352 442.293965 
L 661.828608 442.230587 
L 661.925376 442.268274 
L 661.957632 441.908724 
L 661.989888 441.929477 
L 662.022144 442.183912 
L 662.0544 441.89935 
L 662.086656 441.907373 
L 662.473728 441.789761 
L 663.699456 440.599436 
L 663.925248 440.278421 
L 664.054272 439.733059 
L 664.086528 439.933028 
L 664.118784 439.657607 
L 664.15104 439.702932 
L 664.280064 439.277863 
L 664.31232 439.256682 
L 664.344576 439.640982 
L 664.409088 439.180605 
L 664.441344 439.482615 
L 664.505856 439.190835 
L 664.602624 439.216044 
L 665.409024 437.851792 
L 665.538048 436.945182 
L 665.570304 436.950505 
L 665.634816 437.335052 
L 665.667072 437.045629 
L 665.699328 437.126249 
L 665.731584 436.659578 
L 665.828352 436.751655 
L 665.860608 437.046208 
L 665.92512 436.728086 
L 666.344448 436.178596 
L 667.05408 434.9139 
L 667.21536 434.044051 
L 667.279872 434.090726 
L 667.312128 434.326029 
L 667.344384 433.987733 
L 667.37664 434.216864 
L 667.53792 433.959573 
L 667.602432 433.877796 
L 668.02176 433.07198 
L 669.408768 430.701206 
L 670.634496 428.418768 
L 670.892544 427.917303 
L 671.053824 427.654226 
L 671.08608 427.864456 
L 671.118336 427.577463 
L 671.182848 427.46637 
L 671.215104 427.639182 
L 671.311872 427.577463 
L 671.537664 427.182463 
L 671.602176 427.182077 
L 671.634432 427.131159 
L 672.279552 425.83275 
L 672.408576 425.126841 
L 672.440832 425.1469 
L 672.505344 425.194732 
L 672.569856 424.893081 
L 672.602112 425.098682 
L 672.634368 424.725283 
L 672.731136 424.67398 
L 673.311744 423.22976 
L 673.924608 421.853045 
L 674.31168 421.226984 
L 674.376192 420.537663 
L 674.440704 420.559264 
L 674.698752 420.529948 
L 675.92448 418.42688 
L 675.988992 417.849037 
L 676.053504 417.924257 
L 676.214784 417.94663 
L 676.472832 417.436678 
L 676.924416 416.682166 
L 677.730816 415.502566 
L 677.763072 415.530339 
L 677.892096 415.407673 
L 678.214656 415.12801 
L 678.375936 415.24489 
L 678.472704 415.64799 
L 678.569472 417.072923 
L 679.021056 438.64133 
L 680.569344 438.730051 
L 683.053056 438.746831 
L 683.730432 438.163048 
L 684.536832 437.793468 
L 685.60128 437.570316 
L 687.181824 437.485838 
L 690.697728 437.571628 
L 697.568256 437.835128 
L 697.600512 437.736378 
L 697.665024 437.859199 
L 697.890816 437.84103 
L 703.471104 437.905179 
L 706.212864 437.93006 
L 708.890112 438.09886 
L 709.567488 438.69653 
L 710.406144 439.104819 
L 711.56736 439.372119 
L 713.309184 439.51003 
L 717.437952 439.545661 
L 730.179072 439.621695 
L 734.662656 439.612938 
L 737.888256 439.574827 
L 737.920512 439.882688 
L 738.210816 430.589727 
L 738.404352 428.898246 
L 738.565632 424.657778 
L 738.759168 409.001647 
L 739.049472 376.984633 
L 739.178496 376.946058 
L 740.662272 377.594106 
L 741.017088 377.75226 
L 742.53312 378.357876 
L 748.403712 380.579753 
L 749.435904 380.953923 
L 754.016256 382.485321 
L 754.30656 382.585614 
L 756.499968 383.256806 
L 756.822528 383.357099 
L 758.241792 383.758271 
L 758.66112 383.858564 
L 760.080384 384.259736 
L 760.499712 384.360029 
L 761.72544 384.684053 
L 762.144768 384.784346 
L 763.144704 385.027364 
L 764.080128 385.247237 
L 764.854272 385.416964 
L 765.241344 385.517257 
L 766.015488 385.686984 
L 766.499328 385.787277 
L 767.273472 385.957003 
L 767.660544 386.057296 
L 768.33792 386.188449 
L 768.82176 386.288742 
L 769.499136 386.419894 
L 769.982976 386.520187 
L 770.660352 386.65134 
L 771.144192 386.751633 
L 771.821568 386.882785 
L 772.305408 386.983078 
L 772.886016 387.075657 
L 773.369856 387.17595 
L 773.950464 387.268528 
L 774.531072 387.368821 
L 775.11168 387.461399 
L 775.59552 387.561692 
L 776.176128 387.65427 
L 776.756736 387.754564 
L 777.337344 387.847142 
L 778.01472 387.943577 
L 778.208256 387.993724 
L 778.240512 387.901146 
L 778.305024 388.051585 
L 778.466304 388.009154 
L 779.079168 388.117161 
L 779.756544 388.213597 
L 780.11136 388.271458 
L 780.820992 388.367894 
L 781.175808 388.425755 
L 781.982208 388.522191 
L 782.337024 388.580053 
L 783.046656 388.676488 
L 783.401472 388.73435 
L 784.30464 388.830785 
L 784.659456 388.888647 
L 785.465856 388.985082 
L 785.820672 389.042944 
L 786.72384 389.139379 
L 787.014144 389.158666 
L 787.788288 389.255102 
L 788.143104 389.312963 
L 789.14304 389.409399 
L 789.497856 389.46726 
L 790.497792 389.563696 
L 790.788096 389.582983 
L 791.659008 389.679419 
L 791.949312 389.698706 
L 792.820224 389.795141 
L 793.110528 389.814429 
L 793.98144 389.910864 
L 794.271744 389.930151 
L 795.239424 390.026587 
L 795.529728 390.045874 
L 796.497408 390.14231 
L 796.787712 390.161597 
L 797.85216 390.258032 
L 798.142464 390.27732 
L 799.30368 390.373755 
L 799.593984 390.393042 
L 800.7552 390.489478 
L 801.045504 390.508765 
L 802.303488 390.605201 
L 802.593792 390.624488 
L 803.948544 390.720923 
L 804.238848 390.740211 
L 805.690368 390.836646 
L 805.980672 390.855933 
L 807.432192 390.952369 
L 807.69024 390.967799 
L 809.367552 391.068092 
L 809.657856 391.087379 
L 811.431936 391.195387 
L 811.915776 391.203102 
L 812.52864 391.241676 
L 814.431744 391.349684 
L 815.75424 391.395973 
L 817.6896 391.492408 
L 817.979904 391.511696 
L 818.528256 391.515553 
L 818.560512 391.731569 
L 818.625024 391.546412 
L 819.431424 391.561842 
L 819.721728 391.588844 
L 822.334464 391.68528 
L 822.624768 391.704567 
L 825.43104 391.801002 
L 825.689088 391.816432 
L 828.914688 391.916725 
L 829.172736 391.932155 
L 832.882176 392.032448 
L 833.236992 392.047878 
L 837.333504 392.148171 
L 837.68832 392.1636 
L 842.558976 392.263894 
L 842.913792 392.279323 
L 848.848896 392.379616 
L 849.203712 392.395046 
L 856.783872 392.495339 
L 857.04192 392.510769 
L 899.168256 392.526198 
L 899.200512 392.657351 
L 899.265024 392.479909 
L 899.555328 392.503054 
L 947.52 392.510769 
L 947.52 392.510769 
" clip-path="url(#pcc25aa2e98)" style="fill: none; stroke: #ff00ff; stroke-width: 2; stroke-linecap: square"/>
   </g>
   <g id="patch_22">
    <path d="M 100.8 465.442759 
L 100.8 372.711724 
" style="fill: none; stroke: #bcbcbc; stroke-width: 0.8; stroke-linejoin: miter; stroke-linecap: square"/>
   </g>
   <g id="patch_23">
    <path d="M 987.84 465.442759 
L 987.84 372.711724 
" style="fill: none; stroke: #bcbcbc; stroke-width: 0.8; stroke-linejoin: miter; stroke-linecap: square"/>
   </g>
   <g id="patch_24">
    <path d="M 100.8 465.442759 
L 987.84 465.442759 
" style="fill: none; stroke: #bcbcbc; stroke-width: 0.8; stroke-linejoin: miter; stroke-linecap: square"/>
   </g>
   <g id="patch_25">
    <path d="M 100.8 372.711724 
L 987.84 372.711724 
" style="fill: none; stroke: #bcbcbc; stroke-width: 0.8; stroke-linejoin: miter; stroke-linecap: square"/>
   </g>
  </g>
  <g id="axes_5">
   <g id="patch_26">
    <path d="M 100.8 576.72 
L 987.84 576.72 
L 987.84 483.988966 
L 100.8 483.988966 
z
" style="fill: #eeeeee"/>
   </g>
   <g id="matplotlib.axis_9">
    <g id="xtick_25">
     <g id="line2d_71">
      <path d="M 141.12 576.72 
L 141.12 483.988966 
" clip-path="url(#p80bc4a1cf0)" style="fill: none; stroke-dasharray: 1.85,0.8; stroke-dashoffset: 0; stroke: #b2b2b2; stroke-width: 0.5"/>
     </g>
     <g id="line2d_72">
      <g>
       <use xlink:href="#m79c4b692e4" x="141.12" y="576.72" style="stroke: #000000; stroke-width: 0.8"/>
      </g>
     </g>
     <g id="text_14">
      <!-- 0 s -->
      <g transform="translate(130.795 590.857813) scale(0.14 -0.14)">
       <defs>
        <path id="DejaVuSans-73" d="M 2834 3397 
L 2834 2853 
Q 2591 2978 2328 3040 
Q 2066 3103 1784 3103 
Q 1356 3103 1142 2972 
Q 928 2841 928 2578 
Q 928 2378 1081 2264 
Q 1234 2150 1697 2047 
L 1894 2003 
Q 2506 1872 2764 1633 
Q 3022 1394 3022 966 
Q 3022 478 2636 193 
Q 2250 -91 1575 -91 
Q 1294 -91 989 -36 
Q 684 19 347 128 
L 347 722 
Q 666 556 975 473 
Q 1284 391 1588 391 
Q 1994 391 2212 530 
Q 2431 669 2431 922 
Q 2431 1156 2273 1281 
Q 2116 1406 1581 1522 
L 1381 1569 
Q 847 1681 609 1914 
Q 372 2147 372 2553 
Q 372 3047 722 3315 
Q 1072 3584 1716 3584 
Q 2034 3584 2315 3537 
Q 2597 3491 2834 3397 
z
" transform="scale(0.015625)"/>
       </defs>
       <use xlink:href="#DejaVuSans-30"/>
       <use xlink:href="#DejaVuSans-20" x="63.623047"/>
       <use xlink:href="#DejaVuSans-73" x="95.410156"/>
      </g>
     </g>
    </g>
    <g id="xtick_26">
     <g id="line2d_73">
      <path d="M 302.4 576.72 
L 302.4 483.988966 
" clip-path="url(#p80bc4a1cf0)" style="fill: none; stroke-dasharray: 1.85,0.8; stroke-dashoffset: 0; stroke: #b2b2b2; stroke-width: 0.5"/>
     </g>
     <g id="line2d_74">
      <g>
       <use xlink:href="#m79c4b692e4" x="302.4" y="576.72" style="stroke: #000000; stroke-width: 0.8"/>
      </g>
     </g>
     <g id="text_15">
      <!-- 50 ns -->
      <g transform="translate(283.185 590.857813) scale(0.14 -0.14)">
       <defs>
        <path id="DejaVuSans-35" d="M 691 4666 
L 3169 4666 
L 3169 4134 
L 1269 4134 
L 1269 2991 
Q 1406 3038 1543 3061 
Q 1681 3084 1819 3084 
Q 2600 3084 3056 2656 
Q 3513 2228 3513 1497 
Q 3513 744 3044 326 
Q 2575 -91 1722 -91 
Q 1428 -91 1123 -41 
Q 819 9 494 109 
L 494 744 
Q 775 591 1075 516 
Q 1375 441 1709 441 
Q 2250 441 2565 725 
Q 2881 1009 2881 1497 
Q 2881 1984 2565 2268 
Q 2250 2553 1709 2553 
Q 1456 2553 1204 2497 
Q 953 2441 691 2322 
L 691 4666 
z
" transform="scale(0.015625)"/>
        <path id="DejaVuSans-6e" d="M 3513 2113 
L 3513 0 
L 2938 0 
L 2938 2094 
Q 2938 2591 2744 2837 
Q 2550 3084 2163 3084 
Q 1697 3084 1428 2787 
Q 1159 2491 1159 1978 
L 1159 0 
L 581 0 
L 581 3500 
L 1159 3500 
L 1159 2956 
Q 1366 3272 1645 3428 
Q 1925 3584 2291 3584 
Q 2894 3584 3203 3211 
Q 3513 2838 3513 2113 
z
" transform="scale(0.015625)"/>
       </defs>
       <use xlink:href="#DejaVuSans-35"/>
       <use xlink:href="#DejaVuSans-30" x="63.623047"/>
       <use xlink:href="#DejaVuSans-20" x="127.246094"/>
       <use xlink:href="#DejaVuSans-6e" x="159.033203"/>
       <use xlink:href="#DejaVuSans-73" x="222.412109"/>
      </g>
     </g>
    </g>
    <g id="xtick_27">
     <g id="line2d_75">
      <path d="M 463.68 576.72 
L 463.68 483.988966 
" clip-path="url(#p80bc4a1cf0)" style="fill: none; stroke-dasharray: 1.85,0.8; stroke-dashoffset: 0; stroke: #b2b2b2; stroke-width: 0.5"/>
     </g>
     <g id="line2d_76">
      <g>
       <use xlink:href="#m79c4b692e4" x="463.68" y="576.72" style="stroke: #000000; stroke-width: 0.8"/>
      </g>
     </g>
     <g id="text_16">
      <!-- 100 ns -->
      <g transform="translate(440.01125 590.857813) scale(0.14 -0.14)">
       <use xlink:href="#DejaVuSans-31"/>
       <use xlink:href="#DejaVuSans-30" x="63.623047"/>
       <use xlink:href="#DejaVuSans-30" x="127.246094"/>
       <use xlink:href="#DejaVuSans-20" x="190.869141"/>
       <use xlink:href="#DejaVuSans-6e" x="222.65625"/>
       <use xlink:href="#DejaVuSans-73" x="286.035156"/>
      </g>
     </g>
    </g>
    <g id="xtick_28">
     <g id="line2d_77">
      <path d="M 624.96 576.72 
L 624.96 483.988966 
" clip-path="url(#p80bc4a1cf0)" style="fill: none; stroke-dasharray: 1.85,0.8; stroke-dashoffset: 0; stroke: #b2b2b2; stroke-width: 0.5"/>
     </g>
     <g id="line2d_78">
      <g>
       <use xlink:href="#m79c4b692e4" x="624.96" y="576.72" style="stroke: #000000; stroke-width: 0.8"/>
      </g>
     </g>
     <g id="text_17">
      <!-- 150 ns -->
      <g transform="translate(601.29125 590.857813) scale(0.14 -0.14)">
       <use xlink:href="#DejaVuSans-31"/>
       <use xlink:href="#DejaVuSans-35" x="63.623047"/>
       <use xlink:href="#DejaVuSans-30" x="127.246094"/>
       <use xlink:href="#DejaVuSans-20" x="190.869141"/>
       <use xlink:href="#DejaVuSans-6e" x="222.65625"/>
       <use xlink:href="#DejaVuSans-73" x="286.035156"/>
      </g>
     </g>
    </g>
    <g id="xtick_29">
     <g id="line2d_79">
      <path d="M 786.24 576.72 
L 786.24 483.988966 
" clip-path="url(#p80bc4a1cf0)" style="fill: none; stroke-dasharray: 1.85,0.8; stroke-dashoffset: 0; stroke: #b2b2b2; stroke-width: 0.5"/>
     </g>
     <g id="line2d_80">
      <g>
       <use xlink:href="#m79c4b692e4" x="786.24" y="576.72" style="stroke: #000000; stroke-width: 0.8"/>
      </g>
     </g>
     <g id="text_18">
      <!-- 200 ns -->
      <g transform="translate(762.57125 590.857813) scale(0.14 -0.14)">
       <use xlink:href="#DejaVuSans-32"/>
       <use xlink:href="#DejaVuSans-30" x="63.623047"/>
       <use xlink:href="#DejaVuSans-30" x="127.246094"/>
       <use xlink:href="#DejaVuSans-20" x="190.869141"/>
       <use xlink:href="#DejaVuSans-6e" x="222.65625"/>
       <use xlink:href="#DejaVuSans-73" x="286.035156"/>
      </g>
     </g>
    </g>
    <g id="xtick_30">
     <g id="line2d_81">
      <path d="M 947.52 576.72 
L 947.52 483.988966 
" clip-path="url(#p80bc4a1cf0)" style="fill: none; stroke-dasharray: 1.85,0.8; stroke-dashoffset: 0; stroke: #b2b2b2; stroke-width: 0.5"/>
     </g>
     <g id="line2d_82">
      <g>
       <use xlink:href="#m79c4b692e4" x="947.52" y="576.72" style="stroke: #000000; stroke-width: 0.8"/>
      </g>
     </g>
     <g id="text_19">
      <!-- 250 ns -->
      <g transform="translate(923.85125 590.857813) scale(0.14 -0.14)">
       <use xlink:href="#DejaVuSans-32"/>
       <use xlink:href="#DejaVuSans-35" x="63.623047"/>
       <use xlink:href="#DejaVuSans-30" x="127.246094"/>
       <use xlink:href="#DejaVuSans-20" x="190.869141"/>
       <use xlink:href="#DejaVuSans-6e" x="222.65625"/>
       <use xlink:href="#DejaVuSans-73" x="286.035156"/>
      </g>
     </g>
    </g>
    <g id="text_20">
     <!-- Time -->
     <g transform="translate(527.192969 608.407187) scale(0.14 -0.14)">
      <defs>
       <path id="DejaVuSans-69" d="M 603 3500 
L 1178 3500 
L 1178 0 
L 603 0 
L 603 3500 
z
M 603 4863 
L 1178 4863 
L 1178 4134 
L 603 4134 
L 603 4863 
z
" transform="scale(0.015625)"/>
       <path id="DejaVuSans-6d" d="M 3328 2828 
Q 3544 3216 3844 3400 
Q 4144 3584 4550 3584 
Q 5097 3584 5394 3201 
Q 5691 2819 5691 2113 
L 5691 0 
L 5113 0 
L 5113 2094 
Q 5113 2597 4934 2840 
Q 4756 3084 4391 3084 
Q 3944 3084 3684 2787 
Q 3425 2491 3425 1978 
L 3425 0 
L 2847 0 
L 2847 2094 
Q 2847 2600 2669 2842 
Q 2491 3084 2119 3084 
Q 1678 3084 1418 2786 
Q 1159 2488 1159 1978 
L 1159 0 
L 581 0 
L 581 3500 
L 1159 3500 
L 1159 2956 
Q 1356 3278 1631 3431 
Q 1906 3584 2284 3584 
Q 2666 3584 2933 3390 
Q 3200 3197 3328 2828 
z
" transform="scale(0.015625)"/>
       <path id="DejaVuSans-65" d="M 3597 1894 
L 3597 1613 
L 953 1613 
Q 991 1019 1311 708 
Q 1631 397 2203 397 
Q 2534 397 2845 478 
Q 3156 559 3463 722 
L 3463 178 
Q 3153 47 2828 -22 
Q 2503 -91 2169 -91 
Q 1331 -91 842 396 
Q 353 884 353 1716 
Q 353 2575 817 3079 
Q 1281 3584 2069 3584 
Q 2775 3584 3186 3129 
Q 3597 2675 3597 1894 
z
M 3022 2063 
Q 3016 2534 2758 2815 
Q 2500 3097 2075 3097 
Q 1594 3097 1305 2825 
Q 1016 2553 972 2059 
L 3022 2063 
z
" transform="scale(0.015625)"/>
      </defs>
      <use xlink:href="#DejaVuSans-54"/>
      <use xlink:href="#DejaVuSans-69" x="57.958984"/>
      <use xlink:href="#DejaVuSans-6d" x="85.742188"/>
      <use xlink:href="#DejaVuSans-65" x="183.154297"/>
     </g>
    </g>
   </g>
   <g id="matplotlib.axis_10">
    <g id="ytick_10">
     <g id="line2d_83">
      <path d="M 100.8 569.745885 
L 987.84 569.745885 
" clip-path="url(#p80bc4a1cf0)" style="fill: none; stroke-dasharray: 1.85,0.8; stroke-dashoffset: 0; stroke: #b2b2b2; stroke-width: 0.5"/>
     </g>
     <g id="line2d_84">
      <g>
       <use xlink:href="#made1c33896" x="100.8" y="569.745885" style="stroke: #000000; stroke-width: 0.8"/>
      </g>
     </g>
     <g id="text_21">
      <!-- 0 V -->
      <g transform="translate(74.36625 575.064792) scale(0.14 -0.14)">
       <use xlink:href="#DejaVuSans-30"/>
       <use xlink:href="#DejaVuSans-20" x="63.623047"/>
       <use xlink:href="#DejaVuSans-56" x="95.410156"/>
      </g>
     </g>
    </g>
    <g id="ytick_11">
     <g id="line2d_85">
      <path d="M 100.8 535.950348 
L 987.84 535.950348 
" clip-path="url(#p80bc4a1cf0)" style="fill: none; stroke-dasharray: 1.85,0.8; stroke-dashoffset: 0; stroke: #b2b2b2; stroke-width: 0.5"/>
     </g>
     <g id="line2d_86">
      <g>
       <use xlink:href="#made1c33896" x="100.8" y="535.950348" style="stroke: #000000; stroke-width: 0.8"/>
      </g>
     </g>
     <g id="text_22">
      <!-- 500 mV -->
      <g transform="translate(42.914375 541.269254) scale(0.14 -0.14)">
       <use xlink:href="#DejaVuSans-35"/>
       <use xlink:href="#DejaVuSans-30" x="63.623047"/>
       <use xlink:href="#DejaVuSans-30" x="127.246094"/>
       <use xlink:href="#DejaVuSans-20" x="190.869141"/>
       <use xlink:href="#DejaVuSans-6d" x="222.65625"/>
       <use xlink:href="#DejaVuSans-56" x="320.068359"/>
      </g>
     </g>
    </g>
    <g id="ytick_12">
     <g id="line2d_87">
      <path d="M 100.8 502.15481 
L 987.84 502.15481 
" clip-path="url(#p80bc4a1cf0)" style="fill: none; stroke-dasharray: 1.85,0.8; stroke-dashoffset: 0; stroke: #b2b2b2; stroke-width: 0.5"/>
     </g>
     <g id="line2d_88">
      <g>
       <use xlink:href="#made1c33896" x="100.8" y="502.15481" style="stroke: #000000; stroke-width: 0.8"/>
      </g>
     </g>
     <g id="text_23">
      <!-- 1 V -->
      <g transform="translate(74.36625 507.473717) scale(0.14 -0.14)">
       <use xlink:href="#DejaVuSans-31"/>
       <use xlink:href="#DejaVuSans-20" x="63.623047"/>
       <use xlink:href="#DejaVuSans-56" x="95.410156"/>
      </g>
     </g>
    </g>
    <g id="text_24">
     <g id="patch_27">
      <path d="M 34.8768 554.329483 
L 34.8768 506.379483 
L 11.247425 506.379483 
L 11.247425 554.329483 
z
" style="fill: #ffff00; opacity: 0.2; stroke: #eeeeee; stroke-width: 0.5; stroke-linejoin: miter"/>
     </g>
     <!-- FOUT -->
     <g transform="translate(26.925238 549.289483) rotate(-90) scale(0.14 -0.14)">
      <use xlink:href="#DejaVuSans-46"/>
      <use xlink:href="#DejaVuSans-4f" x="57.519531"/>
      <use xlink:href="#DejaVuSans-55" x="136.230469"/>
      <use xlink:href="#DejaVuSans-54" x="209.423828"/>
     </g>
    </g>
   </g>
   <g id="line2d_89">
    <path d="M 141.12 488.636595 
L 173.472768 488.643355 
L 173.505024 488.44734 
L 173.569536 526.789729 
L 173.69856 572.504953 
L 173.730816 572.3695 
L 173.827584 567.842115 
L 173.892096 569.3609 
L 174.053376 570.064192 
L 174.117888 569.946665 
L 174.408192 569.492054 
L 174.440448 569.54151 
L 174.66624 569.729954 
L 176.182272 569.740151 
L 180.117504 569.761449 
L 193.568256 569.752159 
L 212.954112 569.74401 
L 255.30624 569.743704 
L 255.6288 488.52845 
L 255.854592 488.670391 
L 256.209408 488.629836 
L 334.849536 488.650114 
L 334.881792 492.854278 
L 335.043072 572.18376 
L 335.107584 570.261206 
L 335.172096 568.338639 
L 335.236608 568.870108 
L 335.365632 570.783003 
L 335.430144 570.410083 
L 335.591424 569.797213 
L 335.881728 569.648439 
L 336.559104 569.817924 
L 337.107456 569.746143 
L 350.009856 569.744206 
L 416.489472 569.74333 
L 416.553984 567.480841 
L 416.812032 488.204013 
L 416.844288 488.339195 
L 416.973312 488.852887 
L 417.037824 488.778537 
L 417.39264 488.548727 
L 417.844224 488.717705 
L 418.457088 488.562245 
L 419.328 488.636595 
L 629.927424 488.562245 
L 629.95968 488.433822 
L 629.991936 488.582523 
L 630.056448 512.422571 
L 630.185472 570.194791 
L 630.217728 569.798302 
L 630.346752 569.746286 
L 631.830528 569.744215 
L 676.472832 569.820506 
L 676.505088 569.163223 
L 676.601856 530.829648 
L 676.763136 488.913719 
L 676.924416 488.643355 
L 677.472768 488.636595 
L 678.537216 488.636595 
L 678.601728 504.197413 
L 678.795264 571.987814 
L 678.859776 569.729511 
L 679.117824 569.744209 
L 738.694656 569.734641 
L 738.759168 568.229953 
L 738.98496 488.819091 
L 739.14624 488.636595 
L 947.52 488.636595 
L 947.52 488.636595 
" clip-path="url(#p80bc4a1cf0)" style="fill: none; stroke: #ff00ff; stroke-width: 2; stroke-linecap: square"/>
   </g>
   <g id="patch_28">
    <path d="M 100.8 576.72 
L 100.8 483.988966 
" style="fill: none; stroke: #bcbcbc; stroke-width: 0.8; stroke-linejoin: miter; stroke-linecap: square"/>
   </g>
   <g id="patch_29">
    <path d="M 987.84 576.72 
L 987.84 483.988966 
" style="fill: none; stroke: #bcbcbc; stroke-width: 0.8; stroke-linejoin: miter; stroke-linecap: square"/>
   </g>
   <g id="patch_30">
    <path d="M 100.8 576.72 
L 987.84 576.72 
" style="fill: none; stroke: #bcbcbc; stroke-width: 0.8; stroke-linejoin: miter; stroke-linecap: square"/>
   </g>
   <g id="patch_31">
    <path d="M 100.8 483.988966 
L 987.84 483.988966 
" style="fill: none; stroke: #bcbcbc; stroke-width: 0.8; stroke-linejoin: miter; stroke-linecap: square"/>
   </g>
  </g>
  <g id="axes_6">
   <g id="patch_32">
    <path d="M 201.6 628.56 
L 856.8 628.56 
L 856.8 615.6 
L 201.6 615.6 
z
" clip-path="url(#pee2d112268)" style="fill: #d3d3d3"/>
   </g>
   <g id="patch_33">
    <path d="M 201.6 628.56 
L 819.36 628.56 
L 819.36 615.6 
L 201.6 615.6 
z
" clip-path="url(#pee2d112268)" style="fill: #0000ff"/>
   </g>
   <g id="line2d_90">
    <path d="M 201.6 635.04 
L 201.6 609.12 
" clip-path="url(#pc4d596d921)" style="fill: none; stroke: #ff0000; stroke-linecap: square"/>
   </g>
   <g id="line2d_91">
    <defs>
     <path id="m71b8876668" d="M 0 5 
C 1.326016 5 2.597899 4.473168 3.535534 3.535534 
C 4.473168 2.597899 5 1.326016 5 0 
C 5 -1.326016 4.473168 -2.597899 3.535534 -3.535534 
C 2.597899 -4.473168 1.326016 -5 0 -5 
C -1.326016 -5 -2.597899 -4.473168 -3.535534 -3.535534 
C -4.473168 -2.597899 -5 -1.326016 -5 0 
C -5 1.326016 -4.473168 2.597899 -3.535534 3.535534 
C -2.597899 4.473168 -1.326016 5 0 5 
z
" style="stroke: #bfbfbf"/>
    </defs>
    <g>
     <use xlink:href="#m71b8876668" x="819.36" y="622.08" style="fill: #ffffff; stroke: #bfbfbf"/>
    </g>
   </g>
   <g id="text_25">
    <!-- #Sweep -->
    <g transform="translate(138.622875 625.39125) scale(0.12 -0.12)">
     <defs>
      <path id="DejaVuSans-23" d="M 3272 2816 
L 2363 2816 
L 2100 1772 
L 3016 1772 
L 3272 2816 
z
M 2803 4594 
L 2478 3297 
L 3391 3297 
L 3719 4594 
L 4219 4594 
L 3897 3297 
L 4872 3297 
L 4872 2816 
L 3775 2816 
L 3519 1772 
L 4513 1772 
L 4513 1294 
L 3397 1294 
L 3072 0 
L 2572 0 
L 2894 1294 
L 1978 1294 
L 1656 0 
L 1153 0 
L 1478 1294 
L 494 1294 
L 494 1772 
L 1594 1772 
L 1856 2816 
L 850 2816 
L 850 3297 
L 1978 3297 
L 2297 4594 
L 2803 4594 
z
" transform="scale(0.015625)"/>
      <path id="DejaVuSans-77" d="M 269 3500 
L 844 3500 
L 1563 769 
L 2278 3500 
L 2956 3500 
L 3675 769 
L 4391 3500 
L 4966 3500 
L 4050 0 
L 3372 0 
L 2619 2869 
L 1863 0 
L 1184 0 
L 269 3500 
z
" transform="scale(0.015625)"/>
      <path id="DejaVuSans-70" d="M 1159 525 
L 1159 -1331 
L 581 -1331 
L 581 3500 
L 1159 3500 
L 1159 2969 
Q 1341 3281 1617 3432 
Q 1894 3584 2278 3584 
Q 2916 3584 3314 3078 
Q 3713 2572 3713 1747 
Q 3713 922 3314 415 
Q 2916 -91 2278 -91 
Q 1894 -91 1617 61 
Q 1341 213 1159 525 
z
M 3116 1747 
Q 3116 2381 2855 2742 
Q 2594 3103 2138 3103 
Q 1681 3103 1420 2742 
Q 1159 2381 1159 1747 
Q 1159 1113 1420 752 
Q 1681 391 2138 391 
Q 2594 391 2855 752 
Q 3116 1113 3116 1747 
z
" transform="scale(0.015625)"/>
     </defs>
     <use xlink:href="#DejaVuSans-23"/>
     <use xlink:href="#DejaVuSans-53" x="83.789062"/>
     <use xlink:href="#DejaVuSans-77" x="147.265625"/>
     <use xlink:href="#DejaVuSans-65" x="229.052734"/>
     <use xlink:href="#DejaVuSans-65" x="290.576172"/>
     <use xlink:href="#DejaVuSans-70" x="352.099609"/>
    </g>
   </g>
   <g id="text_26">
    <!-- $\mathdefault{132}$ -->
    <g transform="translate(869.904 625.39125) scale(0.12 -0.12)">
     <defs>
      <path id="DejaVuSans-33" d="M 2597 2516 
Q 3050 2419 3304 2112 
Q 3559 1806 3559 1356 
Q 3559 666 3084 287 
Q 2609 -91 1734 -91 
Q 1441 -91 1130 -33 
Q 819 25 488 141 
L 488 750 
Q 750 597 1062 519 
Q 1375 441 1716 441 
Q 2309 441 2620 675 
Q 2931 909 2931 1356 
Q 2931 1769 2642 2001 
Q 2353 2234 1838 2234 
L 1294 2234 
L 1294 2753 
L 1863 2753 
Q 2328 2753 2575 2939 
Q 2822 3125 2822 3475 
Q 2822 3834 2567 4026 
Q 2313 4219 1838 4219 
Q 1578 4219 1281 4162 
Q 984 4106 628 3988 
L 628 4550 
Q 988 4650 1302 4700 
Q 1616 4750 1894 4750 
Q 2613 4750 3031 4423 
Q 3450 4097 3450 3541 
Q 3450 3153 3228 2886 
Q 3006 2619 2597 2516 
z
" transform="scale(0.015625)"/>
     </defs>
     <use xlink:href="#DejaVuSans-31" transform="translate(0 0.78125)"/>
     <use xlink:href="#DejaVuSans-33" transform="translate(63.623047 0.78125)"/>
     <use xlink:href="#DejaVuSans-32" transform="translate(127.246094 0.78125)"/>
    </g>
   </g>
  </g>
  <g id="text_27">
   <!-- DFF under BBI sweep analysis (Sweep = 142E-9) -->
   <g transform="translate(308.25625 25.1175) scale(0.16 -0.16)">
    <defs>
     <path id="DejaVuSans-75" d="M 544 1381 
L 544 3500 
L 1119 3500 
L 1119 1403 
Q 1119 906 1312 657 
Q 1506 409 1894 409 
Q 2359 409 2629 706 
Q 2900 1003 2900 1516 
L 2900 3500 
L 3475 3500 
L 3475 0 
L 2900 0 
L 2900 538 
Q 2691 219 2414 64 
Q 2138 -91 1772 -91 
Q 1169 -91 856 284 
Q 544 659 544 1381 
z
M 1991 3584 
L 1991 3584 
z
" transform="scale(0.015625)"/>
     <path id="DejaVuSans-64" d="M 2906 2969 
L 2906 4863 
L 3481 4863 
L 3481 0 
L 2906 0 
L 2906 525 
Q 2725 213 2448 61 
Q 2172 -91 1784 -91 
Q 1150 -91 751 415 
Q 353 922 353 1747 
Q 353 2572 751 3078 
Q 1150 3584 1784 3584 
Q 2172 3584 2448 3432 
Q 2725 3281 2906 2969 
z
M 947 1747 
Q 947 1113 1208 752 
Q 1469 391 1925 391 
Q 2381 391 2643 752 
Q 2906 1113 2906 1747 
Q 2906 2381 2643 2742 
Q 2381 3103 1925 3103 
Q 1469 3103 1208 2742 
Q 947 2381 947 1747 
z
" transform="scale(0.015625)"/>
     <path id="DejaVuSans-72" d="M 2631 2963 
Q 2534 3019 2420 3045 
Q 2306 3072 2169 3072 
Q 1681 3072 1420 2755 
Q 1159 2438 1159 1844 
L 1159 0 
L 581 0 
L 581 3500 
L 1159 3500 
L 1159 2956 
Q 1341 3275 1631 3429 
Q 1922 3584 2338 3584 
Q 2397 3584 2469 3576 
Q 2541 3569 2628 3553 
L 2631 2963 
z
" transform="scale(0.015625)"/>
     <path id="DejaVuSans-61" d="M 2194 1759 
Q 1497 1759 1228 1600 
Q 959 1441 959 1056 
Q 959 750 1161 570 
Q 1363 391 1709 391 
Q 2188 391 2477 730 
Q 2766 1069 2766 1631 
L 2766 1759 
L 2194 1759 
z
M 3341 1997 
L 3341 0 
L 2766 0 
L 2766 531 
Q 2569 213 2275 61 
Q 1981 -91 1556 -91 
Q 1019 -91 701 211 
Q 384 513 384 1019 
Q 384 1609 779 1909 
Q 1175 2209 1959 2209 
L 2766 2209 
L 2766 2266 
Q 2766 2663 2505 2880 
Q 2244 3097 1772 3097 
Q 1472 3097 1187 3025 
Q 903 2953 641 2809 
L 641 3341 
Q 956 3463 1253 3523 
Q 1550 3584 1831 3584 
Q 2591 3584 2966 3190 
Q 3341 2797 3341 1997 
z
" transform="scale(0.015625)"/>
     <path id="DejaVuSans-6c" d="M 603 4863 
L 1178 4863 
L 1178 0 
L 603 0 
L 603 4863 
z
" transform="scale(0.015625)"/>
     <path id="DejaVuSans-79" d="M 2059 -325 
Q 1816 -950 1584 -1140 
Q 1353 -1331 966 -1331 
L 506 -1331 
L 506 -850 
L 844 -850 
Q 1081 -850 1212 -737 
Q 1344 -625 1503 -206 
L 1606 56 
L 191 3500 
L 800 3500 
L 1894 763 
L 2988 3500 
L 3597 3500 
L 2059 -325 
z
" transform="scale(0.015625)"/>
     <path id="DejaVuSans-28" d="M 1984 4856 
Q 1566 4138 1362 3434 
Q 1159 2731 1159 2009 
Q 1159 1288 1364 580 
Q 1569 -128 1984 -844 
L 1484 -844 
Q 1016 -109 783 600 
Q 550 1309 550 2009 
Q 550 2706 781 3412 
Q 1013 4119 1484 4856 
L 1984 4856 
z
" transform="scale(0.015625)"/>
     <path id="DejaVuSans-3d" d="M 678 2906 
L 4684 2906 
L 4684 2381 
L 678 2381 
L 678 2906 
z
M 678 1631 
L 4684 1631 
L 4684 1100 
L 678 1100 
L 678 1631 
z
" transform="scale(0.015625)"/>
     <path id="DejaVuSans-34" d="M 2419 4116 
L 825 1625 
L 2419 1625 
L 2419 4116 
z
M 2253 4666 
L 3047 4666 
L 3047 1625 
L 3713 1625 
L 3713 1100 
L 3047 1100 
L 3047 0 
L 2419 0 
L 2419 1100 
L 313 1100 
L 313 1709 
L 2253 4666 
z
" transform="scale(0.015625)"/>
     <path id="DejaVuSans-2d" d="M 313 2009 
L 1997 2009 
L 1997 1497 
L 313 1497 
L 313 2009 
z
" transform="scale(0.015625)"/>
     <path id="DejaVuSans-39" d="M 703 97 
L 703 672 
Q 941 559 1184 500 
Q 1428 441 1663 441 
Q 2288 441 2617 861 
Q 2947 1281 2994 2138 
Q 2813 1869 2534 1725 
Q 2256 1581 1919 1581 
Q 1219 1581 811 2004 
Q 403 2428 403 3163 
Q 403 3881 828 4315 
Q 1253 4750 1959 4750 
Q 2769 4750 3195 4129 
Q 3622 3509 3622 2328 
Q 3622 1225 3098 567 
Q 2575 -91 1691 -91 
Q 1453 -91 1209 -44 
Q 966 3 703 97 
z
M 1959 2075 
Q 2384 2075 2632 2365 
Q 2881 2656 2881 3163 
Q 2881 3666 2632 3958 
Q 2384 4250 1959 4250 
Q 1534 4250 1286 3958 
Q 1038 3666 1038 3163 
Q 1038 2656 1286 2365 
Q 1534 2075 1959 2075 
z
" transform="scale(0.015625)"/>
     <path id="DejaVuSans-29" d="M 513 4856 
L 1013 4856 
Q 1481 4119 1714 3412 
Q 1947 2706 1947 2009 
Q 1947 1309 1714 600 
Q 1481 -109 1013 -844 
L 513 -844 
Q 928 -128 1133 580 
Q 1338 1288 1338 2009 
Q 1338 2731 1133 3434 
Q 928 4138 513 4856 
z
" transform="scale(0.015625)"/>
    </defs>
    <use xlink:href="#DejaVuSans-44"/>
    <use xlink:href="#DejaVuSans-46" x="77.001953"/>
    <use xlink:href="#DejaVuSans-46" x="134.521484"/>
    <use xlink:href="#DejaVuSans-20" x="192.041016"/>
    <use xlink:href="#DejaVuSans-75" x="223.828125"/>
    <use xlink:href="#DejaVuSans-6e" x="287.207031"/>
    <use xlink:href="#DejaVuSans-64" x="350.585938"/>
    <use xlink:href="#DejaVuSans-65" x="414.0625"/>
    <use xlink:href="#DejaVuSans-72" x="475.585938"/>
    <use xlink:href="#DejaVuSans-20" x="516.699219"/>
    <use xlink:href="#DejaVuSans-42" x="548.486328"/>
    <use xlink:href="#DejaVuSans-42" x="617.089844"/>
    <use xlink:href="#DejaVuSans-49" x="685.693359"/>
    <use xlink:href="#DejaVuSans-20" x="715.185547"/>
    <use xlink:href="#DejaVuSans-73" x="746.972656"/>
    <use xlink:href="#DejaVuSans-77" x="799.072266"/>
    <use xlink:href="#DejaVuSans-65" x="880.859375"/>
    <use xlink:href="#DejaVuSans-65" x="942.382812"/>
    <use xlink:href="#DejaVuSans-70" x="1003.90625"/>
    <use xlink:href="#DejaVuSans-20" x="1067.382812"/>
    <use xlink:href="#DejaVuSans-61" x="1099.169922"/>
    <use xlink:href="#DejaVuSans-6e" x="1160.449219"/>
    <use xlink:href="#DejaVuSans-61" x="1223.828125"/>
    <use xlink:href="#DejaVuSans-6c" x="1285.107422"/>
    <use xlink:href="#DejaVuSans-79" x="1312.890625"/>
    <use xlink:href="#DejaVuSans-73" x="1372.070312"/>
    <use xlink:href="#DejaVuSans-69" x="1424.169922"/>
    <use xlink:href="#DejaVuSans-73" x="1451.953125"/>
    <use xlink:href="#DejaVuSans-20" x="1504.052734"/>
    <use xlink:href="#DejaVuSans-28" x="1535.839844"/>
    <use xlink:href="#DejaVuSans-53" x="1574.853516"/>
    <use xlink:href="#DejaVuSans-77" x="1638.330078"/>
    <use xlink:href="#DejaVuSans-65" x="1720.117188"/>
    <use xlink:href="#DejaVuSans-65" x="1781.640625"/>
    <use xlink:href="#DejaVuSans-70" x="1843.164062"/>
    <use xlink:href="#DejaVuSans-20" x="1906.640625"/>
    <use xlink:href="#DejaVuSans-3d" x="1938.427734"/>
    <use xlink:href="#DejaVuSans-20" x="2022.216797"/>
    <use xlink:href="#DejaVuSans-31" x="2054.003906"/>
    <use xlink:href="#DejaVuSans-34" x="2117.626953"/>
    <use xlink:href="#DejaVuSans-32" x="2181.25"/>
    <use xlink:href="#DejaVuSans-45" x="2244.873047"/>
    <use xlink:href="#DejaVuSans-2d" x="2308.056641"/>
    <use xlink:href="#DejaVuSans-39" x="2344.140625"/>
    <use xlink:href="#DejaVuSans-29" x="2407.763672"/>
   </g>
  </g>
 </g>
 <defs>
  <clipPath id="p1f05cdce41">
   <rect x="100.8" y="38.88" width="887.04" height="92.731034"/>
  </clipPath>
  <clipPath id="p151294d932">
   <rect x="100.8" y="150.157241" width="887.04" height="92.731034"/>
  </clipPath>
  <clipPath id="p169baa0d42">
   <rect x="100.8" y="261.434483" width="887.04" height="92.731034"/>
  </clipPath>
  <clipPath id="pcc25aa2e98">
   <rect x="100.8" y="372.711724" width="887.04" height="92.731034"/>
  </clipPath>
  <clipPath id="p80bc4a1cf0">
   <rect x="100.8" y="483.988966" width="887.04" height="92.731034"/>
  </clipPath>
  <clipPath id="pee2d112268">
   <rect x="201.6" y="609.12" width="655.2" height="25.92"/>
  </clipPath>
  <clipPath id="pc4d596d921">
   <path d="M 201.6 628.56 
L 856.8 628.56 
L 856.8 615.6 
L 201.6 615.6 
z
"/>
  </clipPath>
 </defs>
</svg>
