<?xml version="1.0" encoding="utf-8" standalone="no"?>
<!DOCTYPE svg PUBLIC "-//W3C//DTD SVG 1.1//EN"
  "http://www.w3.org/Graphics/SVG/1.1/DTD/svg11.dtd">
<svg xmlns:xlink="http://www.w3.org/1999/xlink" width="1008pt" height="648pt" viewBox="0 0 1008 648" xmlns="http://www.w3.org/2000/svg" version="1.1">
 <metadata>
  <rdf:RDF xmlns:dc="http://purl.org/dc/elements/1.1/" xmlns:cc="http://creativecommons.org/ns#" xmlns:rdf="http://www.w3.org/1999/02/22-rdf-syntax-ns#">
   <cc:Work>
    <dc:type rdf:resource="http://purl.org/dc/dcmitype/StillImage"/>
    <dc:date>2024-06-03T10:45:36.998737</dc:date>
    <dc:format>image/svg+xml</dc:format>
    <dc:creator>
     <cc:Agent>
      <dc:title>Matplotlib v3.9.0, https://matplotlib.org/</dc:title>
     </cc:Agent>
    </dc:creator>
   </cc:Work>
  </rdf:RDF>
 </metadata>
 <defs>
  <style type="text/css">*{stroke-linejoin: round; stroke-linecap: butt}</style>
 </defs>
 <g id="figure_1">
  <g id="patch_1">
   <path d="M 0 648 
L 1008 648 
L 1008 0 
L 0 0 
z
" style="fill: #ffffff"/>
  </g>
  <g id="axes_1">
   <g id="patch_2">
    <path d="M 100.8 131.611034 
L 987.84 131.611034 
L 987.84 38.88 
L 100.8 38.88 
z
" style="fill: #eeeeee"/>
   </g>
   <g id="matplotlib.axis_1">
    <g id="xtick_1">
     <g id="line2d_1">
      <path d="M 141.12 131.611034 
L 141.12 38.88 
" clip-path="url(#p51774ac96f)" style="fill: none; stroke-dasharray: 1.85,0.8; stroke-dashoffset: 0; stroke: #b2b2b2; stroke-width: 0.5"/>
     </g>
     <g id="line2d_2">
      <defs>
       <path id="m6b7837b48a" d="M 0 0 
L 0 -3.5 
" style="stroke: #000000; stroke-width: 0.8"/>
      </defs>
      <g>
       <use xlink:href="#m6b7837b48a" x="141.12" y="131.611034" style="stroke: #000000; stroke-width: 0.8"/>
      </g>
     </g>
    </g>
    <g id="xtick_2">
     <g id="line2d_3">
      <path d="M 302.4 131.611034 
L 302.4 38.88 
" clip-path="url(#p51774ac96f)" style="fill: none; stroke-dasharray: 1.85,0.8; stroke-dashoffset: 0; stroke: #b2b2b2; stroke-width: 0.5"/>
     </g>
     <g id="line2d_4">
      <g>
       <use xlink:href="#m6b7837b48a" x="302.4" y="131.611034" style="stroke: #000000; stroke-width: 0.8"/>
      </g>
     </g>
    </g>
    <g id="xtick_3">
     <g id="line2d_5">
      <path d="M 463.68 131.611034 
L 463.68 38.88 
" clip-path="url(#p51774ac96f)" style="fill: none; stroke-dasharray: 1.85,0.8; stroke-dashoffset: 0; stroke: #b2b2b2; stroke-width: 0.5"/>
     </g>
     <g id="line2d_6">
      <g>
       <use xlink:href="#m6b7837b48a" x="463.68" y="131.611034" style="stroke: #000000; stroke-width: 0.8"/>
      </g>
     </g>
    </g>
    <g id="xtick_4">
     <g id="line2d_7">
      <path d="M 624.96 131.611034 
L 624.96 38.88 
" clip-path="url(#p51774ac96f)" style="fill: none; stroke-dasharray: 1.85,0.8; stroke-dashoffset: 0; stroke: #b2b2b2; stroke-width: 0.5"/>
     </g>
     <g id="line2d_8">
      <g>
       <use xlink:href="#m6b7837b48a" x="624.96" y="131.611034" style="stroke: #000000; stroke-width: 0.8"/>
      </g>
     </g>
    </g>
    <g id="xtick_5">
     <g id="line2d_9">
      <path d="M 786.24 131.611034 
L 786.24 38.88 
" clip-path="url(#p51774ac96f)" style="fill: none; stroke-dasharray: 1.85,0.8; stroke-dashoffset: 0; stroke: #b2b2b2; stroke-width: 0.5"/>
     </g>
     <g id="line2d_10">
      <g>
       <use xlink:href="#m6b7837b48a" x="786.24" y="131.611034" style="stroke: #000000; stroke-width: 0.8"/>
      </g>
     </g>
    </g>
    <g id="xtick_6">
     <g id="line2d_11">
      <path d="M 947.52 131.611034 
L 947.52 38.88 
" clip-path="url(#p51774ac96f)" style="fill: none; stroke-dasharray: 1.85,0.8; stroke-dashoffset: 0; stroke: #b2b2b2; stroke-width: 0.5"/>
     </g>
     <g id="line2d_12">
      <g>
       <use xlink:href="#m6b7837b48a" x="947.52" y="131.611034" style="stroke: #000000; stroke-width: 0.8"/>
      </g>
     </g>
    </g>
   </g>
   <g id="matplotlib.axis_2">
    <g id="ytick_1">
     <g id="line2d_13">
      <path d="M 100.8 98.340394 
L 987.84 98.340394 
" clip-path="url(#p51774ac96f)" style="fill: none; stroke-dasharray: 1.85,0.8; stroke-dashoffset: 0; stroke: #b2b2b2; stroke-width: 0.5"/>
     </g>
     <g id="line2d_14">
      <defs>
       <path id="m7d298f1ef4" d="M 0 0 
L 3.5 0 
" style="stroke: #000000; stroke-width: 0.8"/>
      </defs>
      <g>
       <use xlink:href="#m7d298f1ef4" x="100.8" y="98.340394" style="stroke: #000000; stroke-width: 0.8"/>
      </g>
     </g>
     <g id="text_1">
      <!-- −200 V -->
      <g transform="translate(44.819688 103.6593) scale(0.14 -0.14)">
       <defs>
        <path id="DejaVuSans-2212" d="M 678 2272 
L 4684 2272 
L 4684 1741 
L 678 1741 
L 678 2272 
z
" transform="scale(0.015625)"/>
        <path id="DejaVuSans-32" d="M 1228 531 
L 3431 531 
L 3431 0 
L 469 0 
L 469 531 
Q 828 903 1448 1529 
Q 2069 2156 2228 2338 
Q 2531 2678 2651 2914 
Q 2772 3150 2772 3378 
Q 2772 3750 2511 3984 
Q 2250 4219 1831 4219 
Q 1534 4219 1204 4116 
Q 875 4013 500 3803 
L 500 4441 
Q 881 4594 1212 4672 
Q 1544 4750 1819 4750 
Q 2544 4750 2975 4387 
Q 3406 4025 3406 3419 
Q 3406 3131 3298 2873 
Q 3191 2616 2906 2266 
Q 2828 2175 2409 1742 
Q 1991 1309 1228 531 
z
" transform="scale(0.015625)"/>
        <path id="DejaVuSans-30" d="M 2034 4250 
Q 1547 4250 1301 3770 
Q 1056 3291 1056 2328 
Q 1056 1369 1301 889 
Q 1547 409 2034 409 
Q 2525 409 2770 889 
Q 3016 1369 3016 2328 
Q 3016 3291 2770 3770 
Q 2525 4250 2034 4250 
z
M 2034 4750 
Q 2819 4750 3233 4129 
Q 3647 3509 3647 2328 
Q 3647 1150 3233 529 
Q 2819 -91 2034 -91 
Q 1250 -91 836 529 
Q 422 1150 422 2328 
Q 422 3509 836 4129 
Q 1250 4750 2034 4750 
z
" transform="scale(0.015625)"/>
        <path id="DejaVuSans-20" transform="scale(0.015625)"/>
        <path id="DejaVuSans-56" d="M 1831 0 
L 50 4666 
L 709 4666 
L 2188 738 
L 3669 4666 
L 4325 4666 
L 2547 0 
L 1831 0 
z
" transform="scale(0.015625)"/>
       </defs>
       <use xlink:href="#DejaVuSans-2212"/>
       <use xlink:href="#DejaVuSans-32" x="83.789062"/>
       <use xlink:href="#DejaVuSans-30" x="147.412109"/>
       <use xlink:href="#DejaVuSans-30" x="211.035156"/>
       <use xlink:href="#DejaVuSans-20" x="274.658203"/>
       <use xlink:href="#DejaVuSans-56" x="306.445312"/>
      </g>
     </g>
    </g>
    <g id="ytick_2">
     <g id="line2d_15">
      <path d="M 100.8 45.027377 
L 987.84 45.027377 
" clip-path="url(#p51774ac96f)" style="fill: none; stroke-dasharray: 1.85,0.8; stroke-dashoffset: 0; stroke: #b2b2b2; stroke-width: 0.5"/>
     </g>
     <g id="line2d_16">
      <g>
       <use xlink:href="#m7d298f1ef4" x="100.8" y="45.027377" style="stroke: #000000; stroke-width: 0.8"/>
      </g>
     </g>
     <g id="text_2">
      <!-- 0 V -->
      <g transform="translate(74.36625 50.346284) scale(0.14 -0.14)">
       <use xlink:href="#DejaVuSans-30"/>
       <use xlink:href="#DejaVuSans-20" x="63.623047"/>
       <use xlink:href="#DejaVuSans-56" x="95.410156"/>
      </g>
     </g>
    </g>
    <g id="text_3">
     <g id="patch_3">
      <path d="M 34.8768 131.080205 
L 34.8768 39.41083 
L 11.247425 39.41083 
L 11.247425 131.080205 
z
" style="fill: #ffff00; opacity: 0.2; stroke: #eeeeee; stroke-width: 0.5; stroke-linejoin: miter"/>
     </g>
     <!-- VPULSE BBI -->
     <g transform="translate(26.925238 126.040205) rotate(-90) scale(0.14 -0.14)">
      <defs>
       <path id="DejaVuSans-50" d="M 1259 4147 
L 1259 2394 
L 2053 2394 
Q 2494 2394 2734 2622 
Q 2975 2850 2975 3272 
Q 2975 3691 2734 3919 
Q 2494 4147 2053 4147 
L 1259 4147 
z
M 628 4666 
L 2053 4666 
Q 2838 4666 3239 4311 
Q 3641 3956 3641 3272 
Q 3641 2581 3239 2228 
Q 2838 1875 2053 1875 
L 1259 1875 
L 1259 0 
L 628 0 
L 628 4666 
z
" transform="scale(0.015625)"/>
       <path id="DejaVuSans-55" d="M 556 4666 
L 1191 4666 
L 1191 1831 
Q 1191 1081 1462 751 
Q 1734 422 2344 422 
Q 2950 422 3222 751 
Q 3494 1081 3494 1831 
L 3494 4666 
L 4128 4666 
L 4128 1753 
Q 4128 841 3676 375 
Q 3225 -91 2344 -91 
Q 1459 -91 1007 375 
Q 556 841 556 1753 
L 556 4666 
z
" transform="scale(0.015625)"/>
       <path id="DejaVuSans-4c" d="M 628 4666 
L 1259 4666 
L 1259 531 
L 3531 531 
L 3531 0 
L 628 0 
L 628 4666 
z
" transform="scale(0.015625)"/>
       <path id="DejaVuSans-53" d="M 3425 4513 
L 3425 3897 
Q 3066 4069 2747 4153 
Q 2428 4238 2131 4238 
Q 1616 4238 1336 4038 
Q 1056 3838 1056 3469 
Q 1056 3159 1242 3001 
Q 1428 2844 1947 2747 
L 2328 2669 
Q 3034 2534 3370 2195 
Q 3706 1856 3706 1288 
Q 3706 609 3251 259 
Q 2797 -91 1919 -91 
Q 1588 -91 1214 -16 
Q 841 59 441 206 
L 441 856 
Q 825 641 1194 531 
Q 1563 422 1919 422 
Q 2459 422 2753 634 
Q 3047 847 3047 1241 
Q 3047 1584 2836 1778 
Q 2625 1972 2144 2069 
L 1759 2144 
Q 1053 2284 737 2584 
Q 422 2884 422 3419 
Q 422 4038 858 4394 
Q 1294 4750 2059 4750 
Q 2388 4750 2728 4690 
Q 3069 4631 3425 4513 
z
" transform="scale(0.015625)"/>
       <path id="DejaVuSans-45" d="M 628 4666 
L 3578 4666 
L 3578 4134 
L 1259 4134 
L 1259 2753 
L 3481 2753 
L 3481 2222 
L 1259 2222 
L 1259 531 
L 3634 531 
L 3634 0 
L 628 0 
L 628 4666 
z
" transform="scale(0.015625)"/>
       <path id="DejaVuSans-42" d="M 1259 2228 
L 1259 519 
L 2272 519 
Q 2781 519 3026 730 
Q 3272 941 3272 1375 
Q 3272 1813 3026 2020 
Q 2781 2228 2272 2228 
L 1259 2228 
z
M 1259 4147 
L 1259 2741 
L 2194 2741 
Q 2656 2741 2882 2914 
Q 3109 3088 3109 3444 
Q 3109 3797 2882 3972 
Q 2656 4147 2194 4147 
L 1259 4147 
z
M 628 4666 
L 2241 4666 
Q 2963 4666 3353 4366 
Q 3744 4066 3744 3513 
Q 3744 3084 3544 2831 
Q 3344 2578 2956 2516 
Q 3422 2416 3680 2098 
Q 3938 1781 3938 1306 
Q 3938 681 3513 340 
Q 3088 0 2303 0 
L 628 0 
L 628 4666 
z
" transform="scale(0.015625)"/>
       <path id="DejaVuSans-49" d="M 628 4666 
L 1259 4666 
L 1259 0 
L 628 0 
L 628 4666 
z
" transform="scale(0.015625)"/>
      </defs>
      <use xlink:href="#DejaVuSans-56"/>
      <use xlink:href="#DejaVuSans-50" x="68.408203"/>
      <use xlink:href="#DejaVuSans-55" x="128.710938"/>
      <use xlink:href="#DejaVuSans-4c" x="201.904297"/>
      <use xlink:href="#DejaVuSans-53" x="257.617188"/>
      <use xlink:href="#DejaVuSans-45" x="321.09375"/>
      <use xlink:href="#DejaVuSans-20" x="384.277344"/>
      <use xlink:href="#DejaVuSans-42" x="416.064453"/>
      <use xlink:href="#DejaVuSans-42" x="484.667969"/>
      <use xlink:href="#DejaVuSans-49" x="553.271484"/>
     </g>
    </g>
   </g>
   <g id="line2d_17">
    <path d="M 141.12 45.027377 
L 312.109056 45.136282 
L 312.592896 46.425538 
L 320.818176 69.006772 
L 328.237056 89.863624 
L 329.849856 94.440546 
L 331.656192 99.673219 
L 335.13984 110.807642 
L 336.720384 115.853719 
L 337.946112 119.550977 
L 341.849088 121.36362 
L 342.429696 121.619522 
L 343.300608 122.003376 
L 343.945728 122.269941 
L 345.526272 122.936354 
L 346.171392 123.202919 
L 347.268096 123.629423 
L 348.009984 123.922644 
L 349.106688 124.349149 
L 350.009856 124.677024 
L 350.687232 124.943589 
L 351.493632 125.25547 
L 352.848384 125.804594 
L 355.493376 126.790885 
L 356.10624 127.022796 
L 358.0416 127.395987 
L 376.524288 127.289361 
L 376.75008 126.801547 
L 395.039232 75.087922 
L 398.780928 63.292417 
L 402.490368 51.617666 
L 407.102976 49.3412 
L 412.457472 46.984578 
L 421.166592 43.484472 
L 422.037504 43.268927 
L 436.326912 43.108189 
L 443.132928 43.184799 
L 458.486784 43.746186 
L 486.2592 44.46146 
L 511.90272 44.774399 
L 547.513344 44.945888 
L 595.542528 44.953885 
L 947.52 44.953885 
L 947.52 44.953885 
" clip-path="url(#p51774ac96f)" style="fill: none; stroke: #ff0000; stroke-width: 2; stroke-linecap: square"/>
   </g>
   <g id="patch_4">
    <path d="M 100.8 131.611034 
L 100.8 38.88 
" style="fill: none; stroke: #bcbcbc; stroke-width: 0.8; stroke-linejoin: miter; stroke-linecap: square"/>
   </g>
   <g id="patch_5">
    <path d="M 987.84 131.611034 
L 987.84 38.88 
" style="fill: none; stroke: #bcbcbc; stroke-width: 0.8; stroke-linejoin: miter; stroke-linecap: square"/>
   </g>
   <g id="patch_6">
    <path d="M 100.8 131.611034 
L 987.84 131.611034 
" style="fill: none; stroke: #bcbcbc; stroke-width: 0.8; stroke-linejoin: miter; stroke-linecap: square"/>
   </g>
   <g id="patch_7">
    <path d="M 100.8 38.88 
L 987.84 38.88 
" style="fill: none; stroke: #bcbcbc; stroke-width: 0.8; stroke-linejoin: miter; stroke-linecap: square"/>
   </g>
  </g>
  <g id="axes_2">
   <g id="patch_8">
    <path d="M 100.8 242.888276 
L 987.84 242.888276 
L 987.84 150.157241 
L 100.8 150.157241 
z
" style="fill: #eeeeee"/>
   </g>
   <g id="matplotlib.axis_3">
    <g id="xtick_7">
     <g id="line2d_18">
      <path d="M 141.12 242.888276 
L 141.12 150.157241 
" clip-path="url(#p77973aab90)" style="fill: none; stroke-dasharray: 1.85,0.8; stroke-dashoffset: 0; stroke: #b2b2b2; stroke-width: 0.5"/>
     </g>
     <g id="line2d_19">
      <g>
       <use xlink:href="#m6b7837b48a" x="141.12" y="242.888276" style="stroke: #000000; stroke-width: 0.8"/>
      </g>
     </g>
    </g>
    <g id="xtick_8">
     <g id="line2d_20">
      <path d="M 302.4 242.888276 
L 302.4 150.157241 
" clip-path="url(#p77973aab90)" style="fill: none; stroke-dasharray: 1.85,0.8; stroke-dashoffset: 0; stroke: #b2b2b2; stroke-width: 0.5"/>
     </g>
     <g id="line2d_21">
      <g>
       <use xlink:href="#m6b7837b48a" x="302.4" y="242.888276" style="stroke: #000000; stroke-width: 0.8"/>
      </g>
     </g>
    </g>
    <g id="xtick_9">
     <g id="line2d_22">
      <path d="M 463.68 242.888276 
L 463.68 150.157241 
" clip-path="url(#p77973aab90)" style="fill: none; stroke-dasharray: 1.85,0.8; stroke-dashoffset: 0; stroke: #b2b2b2; stroke-width: 0.5"/>
     </g>
     <g id="line2d_23">
      <g>
       <use xlink:href="#m6b7837b48a" x="463.68" y="242.888276" style="stroke: #000000; stroke-width: 0.8"/>
      </g>
     </g>
    </g>
    <g id="xtick_10">
     <g id="line2d_24">
      <path d="M 624.96 242.888276 
L 624.96 150.157241 
" clip-path="url(#p77973aab90)" style="fill: none; stroke-dasharray: 1.85,0.8; stroke-dashoffset: 0; stroke: #b2b2b2; stroke-width: 0.5"/>
     </g>
     <g id="line2d_25">
      <g>
       <use xlink:href="#m6b7837b48a" x="624.96" y="242.888276" style="stroke: #000000; stroke-width: 0.8"/>
      </g>
     </g>
    </g>
    <g id="xtick_11">
     <g id="line2d_26">
      <path d="M 786.24 242.888276 
L 786.24 150.157241 
" clip-path="url(#p77973aab90)" style="fill: none; stroke-dasharray: 1.85,0.8; stroke-dashoffset: 0; stroke: #b2b2b2; stroke-width: 0.5"/>
     </g>
     <g id="line2d_27">
      <g>
       <use xlink:href="#m6b7837b48a" x="786.24" y="242.888276" style="stroke: #000000; stroke-width: 0.8"/>
      </g>
     </g>
    </g>
    <g id="xtick_12">
     <g id="line2d_28">
      <path d="M 947.52 242.888276 
L 947.52 150.157241 
" clip-path="url(#p77973aab90)" style="fill: none; stroke-dasharray: 1.85,0.8; stroke-dashoffset: 0; stroke: #b2b2b2; stroke-width: 0.5"/>
     </g>
     <g id="line2d_29">
      <g>
       <use xlink:href="#m6b7837b48a" x="947.52" y="242.888276" style="stroke: #000000; stroke-width: 0.8"/>
      </g>
     </g>
    </g>
   </g>
   <g id="matplotlib.axis_4">
    <g id="ytick_3">
     <g id="line2d_30">
      <path d="M 100.8 219.040648 
L 987.84 219.040648 
" clip-path="url(#p77973aab90)" style="fill: none; stroke-dasharray: 1.85,0.8; stroke-dashoffset: 0; stroke: #b2b2b2; stroke-width: 0.5"/>
     </g>
     <g id="line2d_31">
      <g>
       <use xlink:href="#m7d298f1ef4" x="100.8" y="219.040648" style="stroke: #000000; stroke-width: 0.8"/>
      </g>
     </g>
     <g id="text_4">
      <!-- 0 V -->
      <g transform="translate(74.36625 224.359554) scale(0.14 -0.14)">
       <use xlink:href="#DejaVuSans-30"/>
       <use xlink:href="#DejaVuSans-20" x="63.623047"/>
       <use xlink:href="#DejaVuSans-56" x="95.410156"/>
      </g>
     </g>
    </g>
    <g id="ytick_4">
     <g id="line2d_32">
      <path d="M 100.8 185.111813 
L 987.84 185.111813 
" clip-path="url(#p77973aab90)" style="fill: none; stroke-dasharray: 1.85,0.8; stroke-dashoffset: 0; stroke: #b2b2b2; stroke-width: 0.5"/>
     </g>
     <g id="line2d_33">
      <g>
       <use xlink:href="#m7d298f1ef4" x="100.8" y="185.111813" style="stroke: #000000; stroke-width: 0.8"/>
      </g>
     </g>
     <g id="text_5">
      <!-- 1 V -->
      <g transform="translate(74.36625 190.430719) scale(0.14 -0.14)">
       <defs>
        <path id="DejaVuSans-31" d="M 794 531 
L 1825 531 
L 1825 4091 
L 703 3866 
L 703 4441 
L 1819 4666 
L 2450 4666 
L 2450 531 
L 3481 531 
L 3481 0 
L 794 0 
L 794 531 
z
" transform="scale(0.015625)"/>
       </defs>
       <use xlink:href="#DejaVuSans-31"/>
       <use xlink:href="#DejaVuSans-20" x="63.623047"/>
       <use xlink:href="#DejaVuSans-56" x="95.410156"/>
      </g>
     </g>
    </g>
    <g id="ytick_5">
     <g id="line2d_34">
      <path d="M 100.8 151.182978 
L 987.84 151.182978 
" clip-path="url(#p77973aab90)" style="fill: none; stroke-dasharray: 1.85,0.8; stroke-dashoffset: 0; stroke: #b2b2b2; stroke-width: 0.5"/>
     </g>
     <g id="line2d_35">
      <g>
       <use xlink:href="#m7d298f1ef4" x="100.8" y="151.182978" style="stroke: #000000; stroke-width: 0.8"/>
      </g>
     </g>
     <g id="text_6">
      <!-- 2 V -->
      <g transform="translate(74.36625 156.501884) scale(0.14 -0.14)">
       <use xlink:href="#DejaVuSans-32"/>
       <use xlink:href="#DejaVuSans-20" x="63.623047"/>
       <use xlink:href="#DejaVuSans-56" x="95.410156"/>
      </g>
     </g>
    </g>
    <g id="text_7">
     <g id="patch_9">
      <path d="M 34.8768 224.531509 
L 34.8768 168.514009 
L 11.247425 168.514009 
L 11.247425 224.531509 
z
" style="fill: #ffff00; opacity: 0.2; stroke: #eeeeee; stroke-width: 0.5; stroke-linejoin: miter"/>
     </g>
     <!-- DFF IN -->
     <g transform="translate(26.925238 219.491509) rotate(-90) scale(0.14 -0.14)">
      <defs>
       <path id="DejaVuSans-44" d="M 1259 4147 
L 1259 519 
L 2022 519 
Q 2988 519 3436 956 
Q 3884 1394 3884 2338 
Q 3884 3275 3436 3711 
Q 2988 4147 2022 4147 
L 1259 4147 
z
M 628 4666 
L 1925 4666 
Q 3281 4666 3915 4102 
Q 4550 3538 4550 2338 
Q 4550 1131 3912 565 
Q 3275 0 1925 0 
L 628 0 
L 628 4666 
z
" transform="scale(0.015625)"/>
       <path id="DejaVuSans-46" d="M 628 4666 
L 3309 4666 
L 3309 4134 
L 1259 4134 
L 1259 2759 
L 3109 2759 
L 3109 2228 
L 1259 2228 
L 1259 0 
L 628 0 
L 628 4666 
z
" transform="scale(0.015625)"/>
       <path id="DejaVuSans-4e" d="M 628 4666 
L 1478 4666 
L 3547 763 
L 3547 4666 
L 4159 4666 
L 4159 0 
L 3309 0 
L 1241 3903 
L 1241 0 
L 628 0 
L 628 4666 
z
" transform="scale(0.015625)"/>
      </defs>
      <use xlink:href="#DejaVuSans-44"/>
      <use xlink:href="#DejaVuSans-46" x="77.001953"/>
      <use xlink:href="#DejaVuSans-46" x="134.521484"/>
      <use xlink:href="#DejaVuSans-20" x="192.041016"/>
      <use xlink:href="#DejaVuSans-49" x="223.828125"/>
      <use xlink:href="#DejaVuSans-4e" x="253.320312"/>
     </g>
    </g>
   </g>
   <g id="line2d_36">
    <path d="M 141.12 218.991098 
L 221.953536 218.944572 
L 224.437248 200.039822 
L 225.404928 194.288884 
L 228.243456 181.644286 
L 229.598208 180.375347 
L 231.178752 179.503376 
L 236.533248 179.04873 
L 243.5328 178.940158 
L 244.952064 178.899443 
L 248.145408 178.790871 
L 249.790464 178.726406 
L 251.887104 178.617834 
L 254.241792 178.27176 
L 254.757888 177.735684 
L 255.499776 177.396396 
L 256.338432 177.409967 
L 259.789824 178.024079 
L 262.467072 178.197116 
L 263.886336 178.244617 
L 264.144384 183.476443 
L 264.434688 187.036256 
L 265.176576 191.77849 
L 267.144192 209.087963 
L 268.402176 215.587032 
L 269.047296 216.868388 
L 270.46656 218.628616 
L 273.724416 219.04248 
L 282.530304 218.995132 
L 297.013248 218.985167 
L 305.593344 218.99047 
L 312.173568 219.08445 
L 313.592832 220.453784 
L 315.495936 221.429068 
L 316.75392 221.67495 
L 318.657024 221.799605 
L 320.269824 221.970165 
L 321.398784 222.559747 
L 323.430912 223.524004 
L 324.753408 224.213099 
L 327.269376 225.593663 
L 327.88224 225.553288 
L 328.430592 225.282875 
L 329.075712 224.653495 
L 329.688576 224.05974 
L 329.882112 224.145241 
L 330.236928 224.682674 
L 331.011072 225.953987 
L 331.172352 226.130756 
L 331.333632 226.337383 
L 331.494912 226.6916 
L 332.2368 228.376506 
L 332.462592 228.667955 
L 332.88192 229.693623 
L 333.817344 231.337475 
L 334.107648 231.922069 
L 334.397952 232.669521 
L 335.94624 235.426239 
L 336.301056 235.999637 
L 336.817152 236.928608 
L 337.978368 238.673229 
L 338.171904 238.559907 
L 338.591232 237.837222 
L 339.236352 236.839715 
L 339.558912 236.210674 
L 339.65568 236.166906 
L 339.849216 235.951458 
L 340.3008 235.491043 
L 340.687872 235.044879 
L 341.42976 233.88587 
L 341.494272 233.940156 
L 341.978112 233.593064 
L 343.236096 232.355001 
L 343.590912 231.754122 
L 344.042496 231.434512 
L 344.17152 231.401262 
L 344.526336 231.131527 
L 344.945664 230.917097 
L 345.977856 229.884982 
L 346.332672 229.26137 
L 346.655232 229.049993 
L 346.816512 229.049993 
L 347.042304 228.901385 
L 348.751872 227.62125 
L 349.300224 226.94912 
L 352.041984 224.940194 
L 352.364544 224.533726 
L 352.461312 224.434315 
L 352.751616 224.196134 
L 353.428992 223.9264 
L 354.203136 223.329931 
L 358.267392 219.775411 
L 360.493056 216.620097 
L 361.492992 215.257922 
L 365.46048 210.388116 
L 366.42816 209.244036 
L 367.041024 207.469558 
L 368.331264 203.697011 
L 369.395712 201.273474 
L 370.266624 199.91666 
L 371.137536 198.614132 
L 371.685888 198.012913 
L 373.427712 195.79261 
L 374.201856 194.831067 
L 374.81472 194.086329 
L 376.395264 192.653175 
L 376.685568 192.187671 
L 377.07264 190.975394 
L 378.169344 187.571314 
L 379.362816 184.75556 
L 380.491776 182.852152 
L 381.91104 180.958923 
L 384.685056 177.586397 
L 387.620352 173.460651 
L 388.717056 171.899925 
L 392.620032 166.749527 
L 392.813568 166.488275 
L 394.232832 164.730762 
L 396.232704 162.247171 
L 399.587328 157.846601 
L 401.42592 155.549619 
L 402.3936 154.392646 
L 402.55488 154.416396 
L 403.329024 154.691219 
L 403.812864 154.735327 
L 405.812736 154.840506 
L 410.425344 155.922836 
L 415.392768 157.39874 
L 415.812096 156.408018 
L 416.166912 156.085695 
L 416.553984 156.065337 
L 417.263616 156.557305 
L 418.908672 157.961959 
L 420.715008 158.979824 
L 421.231104 159.196969 
L 422.39232 159.804295 
L 423.908352 160.632158 
L 426.166272 161.697524 
L 426.90816 162.046991 
L 433.939968 164.886834 
L 436.74624 165.887735 
L 438.19776 166.379703 
L 448.03584 169.368833 
L 448.713216 169.548656 
L 451.067904 170.155982 
L 451.777536 170.335805 
L 452.777472 170.549557 
L 455.712768 171.251884 
L 456.293376 172.218856 
L 456.938496 172.622609 
L 457.454592 172.721002 
L 458.099712 172.680288 
L 458.744832 172.503858 
L 459.841536 172.273142 
L 461.74464 172.378321 
L 463.615488 172.65993 
L 465.325056 172.948326 
L 467.453952 173.284221 
L 469.80864 173.637081 
L 470.227968 173.69476 
L 473.421312 174.139228 
L 474.582528 174.274943 
L 475.485696 174.383515 
L 476.808192 174.549767 
L 477.808128 174.654946 
L 479.098368 174.814411 
L 480.098304 174.922984 
L 488.259072 175.672811 
L 489.613824 175.781383 
L 490.45248 175.849241 
L 491.839488 175.951027 
L 492.291072 175.981563 
L 492.87168 176.029064 
L 495.677952 176.215672 
L 496.09728 176.117279 
L 496.548864 175.638882 
L 497.032704 175.408166 
L 497.677824 175.374237 
L 499.193856 175.801741 
L 500.12928 176.08335 
L 501.000192 176.280137 
L 501.484032 176.364959 
L 507.38688 176.877285 
L 509.515776 176.985857 
L 509.902848 176.999428 
L 510.61248 177.033357 
L 513.6768 177.14193 
L 515.386368 177.21318 
L 516.160512 177.23693 
L 517.579776 177.277645 
L 518.35392 177.298002 
L 519.063552 177.338717 
L 523.160064 177.447289 
L 524.48256 177.477825 
L 525.28896 177.501575 
L 529.740288 177.610147 
L 530.966016 177.630505 
L 536.352768 177.739077 
L 537.22368 178.583905 
L 537.933312 178.773906 
L 539.15904 178.67212 
L 541.25568 178.125866 
L 542.900736 178.017293 
L 544.352256 177.973186 
L 576.73728 177.868007 
L 577.253376 177.34211 
L 577.898496 177.057107 
L 578.9952 177.046929 
L 582.962688 177.769613 
L 584.64 177.837471 
L 616.960512 177.946043 
L 617.121792 178.125866 
L 617.637888 178.644977 
L 618.02496 178.828193 
L 618.637824 178.967301 
L 620.992512 178.862121 
L 623.314944 178.485511 
L 628.66944 178.030865 
L 657.312768 177.959614 
L 657.86112 177.345503 
L 658.409472 177.070679 
L 660.312576 177.172465 
L 661.635072 177.474432 
L 663.34464 177.722113 
L 665.731584 177.864614 
L 697.632768 177.959614 
L 698.600448 178.8248 
L 700.019712 179.014801 
L 701.664768 178.906229 
L 703.438848 178.611048 
L 705.729024 178.241224 
L 709.083648 177.996936 
L 737.985024 177.915507 
L 738.468864 177.386217 
L 739.081728 177.067286 
L 740.2752 177.046929 
L 744.242688 177.769613 
L 745.92 177.837471 
L 778.240512 177.946043 
L 778.401792 178.125866 
L 778.82112 178.549976 
L 779.433984 178.868907 
L 780.659712 179.014801 
L 782.304768 178.906229 
L 784.078848 178.611048 
L 786.369024 178.241224 
L 789.723648 177.996936 
L 818.625024 177.915507 
L 819.108864 177.382824 
L 819.818496 177.057107 
L 820.9152 177.046929 
L 824.882688 177.769613 
L 826.56 177.837471 
L 858.880512 177.946043 
L 859.041792 178.125866 
L 859.46112 178.549976 
L 860.073984 178.868907 
L 861.299712 179.014801 
L 862.944768 178.906229 
L 864.718848 178.611048 
L 867.009024 178.241224 
L 870.363648 177.996936 
L 899.265024 177.915507 
L 899.748864 177.382824 
L 900.458496 177.057107 
L 901.5552 177.046929 
L 905.522688 177.769613 
L 907.2 177.837471 
L 939.520512 177.946043 
L 939.681792 178.129259 
L 940.165632 178.614441 
L 940.649472 178.834978 
L 941.55264 179.011408 
L 943.455744 178.902836 
L 946.39104 178.397296 
L 947.52 178.220866 
L 947.52 178.220866 
" clip-path="url(#p77973aab90)" style="fill: none; stroke: #008000; stroke-width: 2; stroke-linecap: square"/>
   </g>
   <g id="patch_10">
    <path d="M 100.8 242.888276 
L 100.8 150.157241 
" style="fill: none; stroke: #bcbcbc; stroke-width: 0.8; stroke-linejoin: miter; stroke-linecap: square"/>
   </g>
   <g id="patch_11">
    <path d="M 987.84 242.888276 
L 987.84 150.157241 
" style="fill: none; stroke: #bcbcbc; stroke-width: 0.8; stroke-linejoin: miter; stroke-linecap: square"/>
   </g>
   <g id="patch_12">
    <path d="M 100.8 242.888276 
L 987.84 242.888276 
" style="fill: none; stroke: #bcbcbc; stroke-width: 0.8; stroke-linejoin: miter; stroke-linecap: square"/>
   </g>
   <g id="patch_13">
    <path d="M 100.8 150.157241 
L 987.84 150.157241 
" style="fill: none; stroke: #bcbcbc; stroke-width: 0.8; stroke-linejoin: miter; stroke-linecap: square"/>
   </g>
  </g>
  <g id="axes_3">
   <g id="patch_14">
    <path d="M 100.8 354.165517 
L 987.84 354.165517 
L 987.84 261.434483 
L 100.8 261.434483 
z
" style="fill: #eeeeee"/>
   </g>
   <g id="matplotlib.axis_5">
    <g id="xtick_13">
     <g id="line2d_37">
      <path d="M 141.12 354.165517 
L 141.12 261.434483 
" clip-path="url(#pa54e0a454a)" style="fill: none; stroke-dasharray: 1.85,0.8; stroke-dashoffset: 0; stroke: #b2b2b2; stroke-width: 0.5"/>
     </g>
     <g id="line2d_38">
      <g>
       <use xlink:href="#m6b7837b48a" x="141.12" y="354.165517" style="stroke: #000000; stroke-width: 0.8"/>
      </g>
     </g>
    </g>
    <g id="xtick_14">
     <g id="line2d_39">
      <path d="M 302.4 354.165517 
L 302.4 261.434483 
" clip-path="url(#pa54e0a454a)" style="fill: none; stroke-dasharray: 1.85,0.8; stroke-dashoffset: 0; stroke: #b2b2b2; stroke-width: 0.5"/>
     </g>
     <g id="line2d_40">
      <g>
       <use xlink:href="#m6b7837b48a" x="302.4" y="354.165517" style="stroke: #000000; stroke-width: 0.8"/>
      </g>
     </g>
    </g>
    <g id="xtick_15">
     <g id="line2d_41">
      <path d="M 463.68 354.165517 
L 463.68 261.434483 
" clip-path="url(#pa54e0a454a)" style="fill: none; stroke-dasharray: 1.85,0.8; stroke-dashoffset: 0; stroke: #b2b2b2; stroke-width: 0.5"/>
     </g>
     <g id="line2d_42">
      <g>
       <use xlink:href="#m6b7837b48a" x="463.68" y="354.165517" style="stroke: #000000; stroke-width: 0.8"/>
      </g>
     </g>
    </g>
    <g id="xtick_16">
     <g id="line2d_43">
      <path d="M 624.96 354.165517 
L 624.96 261.434483 
" clip-path="url(#pa54e0a454a)" style="fill: none; stroke-dasharray: 1.85,0.8; stroke-dashoffset: 0; stroke: #b2b2b2; stroke-width: 0.5"/>
     </g>
     <g id="line2d_44">
      <g>
       <use xlink:href="#m6b7837b48a" x="624.96" y="354.165517" style="stroke: #000000; stroke-width: 0.8"/>
      </g>
     </g>
    </g>
    <g id="xtick_17">
     <g id="line2d_45">
      <path d="M 786.24 354.165517 
L 786.24 261.434483 
" clip-path="url(#pa54e0a454a)" style="fill: none; stroke-dasharray: 1.85,0.8; stroke-dashoffset: 0; stroke: #b2b2b2; stroke-width: 0.5"/>
     </g>
     <g id="line2d_46">
      <g>
       <use xlink:href="#m6b7837b48a" x="786.24" y="354.165517" style="stroke: #000000; stroke-width: 0.8"/>
      </g>
     </g>
    </g>
    <g id="xtick_18">
     <g id="line2d_47">
      <path d="M 947.52 354.165517 
L 947.52 261.434483 
" clip-path="url(#pa54e0a454a)" style="fill: none; stroke-dasharray: 1.85,0.8; stroke-dashoffset: 0; stroke: #b2b2b2; stroke-width: 0.5"/>
     </g>
     <g id="line2d_48">
      <g>
       <use xlink:href="#m6b7837b48a" x="947.52" y="354.165517" style="stroke: #000000; stroke-width: 0.8"/>
      </g>
     </g>
    </g>
   </g>
   <g id="matplotlib.axis_6">
    <g id="ytick_6">
     <g id="line2d_49">
      <path d="M 100.8 344.795529 
L 987.84 344.795529 
" clip-path="url(#pa54e0a454a)" style="fill: none; stroke-dasharray: 1.85,0.8; stroke-dashoffset: 0; stroke: #b2b2b2; stroke-width: 0.5"/>
     </g>
     <g id="line2d_50">
      <g>
       <use xlink:href="#m7d298f1ef4" x="100.8" y="344.795529" style="stroke: #000000; stroke-width: 0.8"/>
      </g>
     </g>
     <g id="text_8">
      <!-- 0 V -->
      <g transform="translate(74.36625 350.114435) scale(0.14 -0.14)">
       <use xlink:href="#DejaVuSans-30"/>
       <use xlink:href="#DejaVuSans-20" x="63.623047"/>
       <use xlink:href="#DejaVuSans-56" x="95.410156"/>
      </g>
     </g>
    </g>
    <g id="ytick_7">
     <g id="line2d_51">
      <path d="M 100.8 301.157662 
L 987.84 301.157662 
" clip-path="url(#pa54e0a454a)" style="fill: none; stroke-dasharray: 1.85,0.8; stroke-dashoffset: 0; stroke: #b2b2b2; stroke-width: 0.5"/>
     </g>
     <g id="line2d_52">
      <g>
       <use xlink:href="#m7d298f1ef4" x="100.8" y="301.157662" style="stroke: #000000; stroke-width: 0.8"/>
      </g>
     </g>
     <g id="text_9">
      <!-- 1 V -->
      <g transform="translate(74.36625 306.476568) scale(0.14 -0.14)">
       <use xlink:href="#DejaVuSans-31"/>
       <use xlink:href="#DejaVuSans-20" x="63.623047"/>
       <use xlink:href="#DejaVuSans-56" x="95.410156"/>
      </g>
     </g>
    </g>
    <g id="text_10">
     <g id="patch_15">
      <path d="M 34.8768 342.395313 
L 34.8768 273.204688 
L 11.247425 273.204688 
L 11.247425 342.395313 
z
" style="fill: #ffff00; opacity: 0.2; stroke: #eeeeee; stroke-width: 0.5; stroke-linejoin: miter"/>
     </g>
     <!-- CLK BUF -->
     <g transform="translate(26.925238 337.355313) rotate(-90) scale(0.14 -0.14)">
      <defs>
       <path id="DejaVuSans-43" d="M 4122 4306 
L 4122 3641 
Q 3803 3938 3442 4084 
Q 3081 4231 2675 4231 
Q 1875 4231 1450 3742 
Q 1025 3253 1025 2328 
Q 1025 1406 1450 917 
Q 1875 428 2675 428 
Q 3081 428 3442 575 
Q 3803 722 4122 1019 
L 4122 359 
Q 3791 134 3420 21 
Q 3050 -91 2638 -91 
Q 1578 -91 968 557 
Q 359 1206 359 2328 
Q 359 3453 968 4101 
Q 1578 4750 2638 4750 
Q 3056 4750 3426 4639 
Q 3797 4528 4122 4306 
z
" transform="scale(0.015625)"/>
       <path id="DejaVuSans-4b" d="M 628 4666 
L 1259 4666 
L 1259 2694 
L 3353 4666 
L 4166 4666 
L 1850 2491 
L 4331 0 
L 3500 0 
L 1259 2247 
L 1259 0 
L 628 0 
L 628 4666 
z
" transform="scale(0.015625)"/>
      </defs>
      <use xlink:href="#DejaVuSans-43"/>
      <use xlink:href="#DejaVuSans-4c" x="69.824219"/>
      <use xlink:href="#DejaVuSans-4b" x="125.537109"/>
      <use xlink:href="#DejaVuSans-20" x="191.113281"/>
      <use xlink:href="#DejaVuSans-42" x="222.900391"/>
      <use xlink:href="#DejaVuSans-55" x="291.503906"/>
      <use xlink:href="#DejaVuSans-46" x="364.697266"/>
     </g>
    </g>
   </g>
   <g id="line2d_53">
    <path d="M 141.12 344.794375 
L 173.376 344.794375 
L 173.601792 292.430089 
L 213.696 292.430089 
L 213.760512 334.199819 
L 213.825024 344.775593 
L 213.889536 344.712796 
L 213.954048 344.887125 
L 214.01856 344.800258 
L 215.341056 344.791102 
L 223.308288 344.794344 
L 254.016 344.794345 
L 254.17728 292.268629 
L 254.241792 292.547911 
L 254.403072 292.421361 
L 254.854656 292.430089 
L 294.336 292.430089 
L 294.368256 296.265857 
L 294.49728 344.690541 
L 294.626304 344.801067 
L 295.819776 344.793441 
L 312.109056 344.844774 
L 313.20576 345.772886 
L 314.076672 346.098032 
L 315.237888 346.279653 
L 317.23776 346.331713 
L 322.463232 346.186573 
L 326.075904 346.071718 
L 328.140288 346.037288 
L 328.172544 345.950449 
L 328.269312 346.008356 
L 330.172416 346.038205 
L 330.494976 346.095763 
L 331.849728 346.639927 
L 334.656 348.339971 
L 334.688256 349.95047 
L 334.881792 325.578722 
L 335.010816 325.469191 
L 335.78496 326.036483 
L 338.04288 327.341255 
L 339.365376 326.693669 
L 341.462016 325.902515 
L 341.59104 325.769419 
L 341.881344 325.700908 
L 343.139328 325.244019 
L 351.945216 322.033581 
L 351.977472 322.140058 
L 352.041984 322.016126 
L 352.106496 322.119111 
L 352.171008 322.027908 
L 352.300032 322.048854 
L 352.429056 321.924923 
L 352.590336 321.91445 
L 354.33216 321.305702 
L 357.364224 320.185081 
L 357.686784 319.993511 
L 358.396416 319.596406 
L 360.94464 317.987915 
L 366.460416 314.388663 
L 372.137472 311.137642 
L 374.976 309.694538 
L 375.008256 309.066153 
L 375.201792 344.40816 
L 375.234048 344.488445 
L 375.266304 344.296181 
L 375.29856 344.366909 
L 375.7824 344.378303 
L 376.653312 344.287148 
L 377.298432 343.654399 
L 378.072576 343.238835 
L 379.072512 342.985779 
L 380.556288 342.876816 
L 383.265792 342.929225 
L 397.329408 343.333093 
L 400.329216 343.383233 
L 402.458112 343.553159 
L 403.103232 344.20297 
L 403.84512 344.635666 
L 404.780544 344.926399 
L 406.135296 345.106907 
L 408.586752 345.187611 
L 415.296 345.175449 
L 415.328256 335.323057 
L 415.45728 265.64953 
L 415.586304 265.758624 
L 422.489088 268.66927 
L 423.069696 269.000918 
L 425.327616 270.3406 
L 425.746944 270.589336 
L 435.165696 275.564053 
L 437.842944 276.768458 
L 438.713856 277.121925 
L 439.358976 277.409935 
L 448.068096 280.82678 
L 448.326144 280.927147 
L 450.067968 281.524986 
L 450.358272 281.625353 
L 451.454976 281.961364 
L 451.713024 282.061732 
L 452.71296 282.354105 
L 452.971008 282.450109 
L 453.422592 282.572295 
L 455.616 283.209407 
L 455.648256 293.704314 
L 455.77728 345.019426 
L 456.196608 345.035236 
L 495.936 344.865908 
L 496.065024 289.689631 
L 496.161792 289.859818 
L 496.677888 289.899092 
L 498.484224 290.03437 
L 499.838976 290.143464 
L 500.097024 290.16092 
L 501.645312 290.261287 
L 502.000128 290.291833 
L 503.580672 290.3922 
L 503.935488 290.422747 
L 505.709568 290.523114 
L 506.064384 290.55366 
L 507.935232 290.654028 
L 508.290048 290.684574 
L 510.354432 290.784941 
L 510.709248 290.815488 
L 512.967168 290.915855 
L 513.321984 290.946401 
L 515.870208 291.046768 
L 516.225024 291.077315 
L 518.966784 291.177682 
L 519.3216 291.208228 
L 522.450432 291.308596 
L 522.805248 291.339142 
L 526.41792 291.439509 
L 526.772736 291.470056 
L 530.869248 291.570423 
L 531.224064 291.600969 
L 536.09472 291.701336 
L 536.256 291.731883 
L 536.288256 296.64987 
L 536.41728 344.742496 
L 536.546304 344.814159 
L 558.0288 344.806871 
L 576.576 344.806871 
L 576.73728 291.906434 
L 576.801792 292.011165 
L 577.737216 291.99371 
L 616.896 291.99371 
L 617.025024 345.128813 
L 617.186304 344.875042 
L 617.444352 344.777704 
L 617.799168 344.825208 
L 618.121728 344.806643 
L 655.538688 344.806869 
L 657.216 344.80687 
L 657.37728 291.766793 
L 657.441792 292.259901 
L 657.53856 291.814795 
L 657.603072 291.976255 
L 658.086912 291.99371 
L 697.536 291.99371 
L 697.826304 344.904536 
L 697.987584 344.804201 
L 699.342336 344.80406 
L 707.793408 344.811298 
L 735.662592 344.806909 
L 737.856 344.806913 
L 738.01728 291.906434 
L 738.081792 292.011165 
L 739.017216 291.99371 
L 778.176 291.99371 
L 778.466304 344.904541 
L 778.627584 344.804196 
L 779.982336 344.804057 
L 788.433408 344.811321 
L 816.302592 344.806909 
L 818.496 344.806913 
L 818.65728 291.906434 
L 818.721792 292.011165 
L 819.657216 291.99371 
L 858.816 291.99371 
L 859.106304 344.904541 
L 859.267584 344.804201 
L 860.622336 344.804059 
L 869.073408 344.811317 
L 896.813568 344.806909 
L 899.136 344.806913 
L 899.29728 291.906434 
L 899.361792 292.011165 
L 900.297216 291.99371 
L 939.456 291.99371 
L 939.488256 299.861617 
L 939.61728 344.755 
L 939.649536 344.88191 
L 939.714048 344.760481 
L 939.746304 344.722178 
L 939.810816 344.778493 
L 940.004352 344.832982 
L 940.230144 344.805487 
L 945.552384 344.806877 
L 947.52 344.806862 
L 947.52 344.806862 
" clip-path="url(#pa54e0a454a)" style="fill: none; stroke: #0000ff; stroke-width: 2; stroke-linecap: square"/>
   </g>
   <g id="patch_16">
    <path d="M 100.8 354.165517 
L 100.8 261.434483 
" style="fill: none; stroke: #bcbcbc; stroke-width: 0.8; stroke-linejoin: miter; stroke-linecap: square"/>
   </g>
   <g id="patch_17">
    <path d="M 987.84 354.165517 
L 987.84 261.434483 
" style="fill: none; stroke: #bcbcbc; stroke-width: 0.8; stroke-linejoin: miter; stroke-linecap: square"/>
   </g>
   <g id="patch_18">
    <path d="M 100.8 354.165517 
L 987.84 354.165517 
" style="fill: none; stroke: #bcbcbc; stroke-width: 0.8; stroke-linejoin: miter; stroke-linecap: square"/>
   </g>
   <g id="patch_19">
    <path d="M 100.8 261.434483 
L 987.84 261.434483 
" style="fill: none; stroke: #bcbcbc; stroke-width: 0.8; stroke-linejoin: miter; stroke-linecap: square"/>
   </g>
  </g>
  <g id="axes_4">
   <g id="patch_20">
    <path d="M 100.8 465.442759 
L 987.84 465.442759 
L 987.84 372.711724 
L 100.8 372.711724 
z
" style="fill: #eeeeee"/>
   </g>
   <g id="matplotlib.axis_7">
    <g id="xtick_19">
     <g id="line2d_54">
      <path d="M 141.12 465.442759 
L 141.12 372.711724 
" clip-path="url(#p4004c91ba2)" style="fill: none; stroke-dasharray: 1.85,0.8; stroke-dashoffset: 0; stroke: #b2b2b2; stroke-width: 0.5"/>
     </g>
     <g id="line2d_55">
      <g>
       <use xlink:href="#m6b7837b48a" x="141.12" y="465.442759" style="stroke: #000000; stroke-width: 0.8"/>
      </g>
     </g>
    </g>
    <g id="xtick_20">
     <g id="line2d_56">
      <path d="M 302.4 465.442759 
L 302.4 372.711724 
" clip-path="url(#p4004c91ba2)" style="fill: none; stroke-dasharray: 1.85,0.8; stroke-dashoffset: 0; stroke: #b2b2b2; stroke-width: 0.5"/>
     </g>
     <g id="line2d_57">
      <g>
       <use xlink:href="#m6b7837b48a" x="302.4" y="465.442759" style="stroke: #000000; stroke-width: 0.8"/>
      </g>
     </g>
    </g>
    <g id="xtick_21">
     <g id="line2d_58">
      <path d="M 463.68 465.442759 
L 463.68 372.711724 
" clip-path="url(#p4004c91ba2)" style="fill: none; stroke-dasharray: 1.85,0.8; stroke-dashoffset: 0; stroke: #b2b2b2; stroke-width: 0.5"/>
     </g>
     <g id="line2d_59">
      <g>
       <use xlink:href="#m6b7837b48a" x="463.68" y="465.442759" style="stroke: #000000; stroke-width: 0.8"/>
      </g>
     </g>
    </g>
    <g id="xtick_22">
     <g id="line2d_60">
      <path d="M 624.96 465.442759 
L 624.96 372.711724 
" clip-path="url(#p4004c91ba2)" style="fill: none; stroke-dasharray: 1.85,0.8; stroke-dashoffset: 0; stroke: #b2b2b2; stroke-width: 0.5"/>
     </g>
     <g id="line2d_61">
      <g>
       <use xlink:href="#m6b7837b48a" x="624.96" y="465.442759" style="stroke: #000000; stroke-width: 0.8"/>
      </g>
     </g>
    </g>
    <g id="xtick_23">
     <g id="line2d_62">
      <path d="M 786.24 465.442759 
L 786.24 372.711724 
" clip-path="url(#p4004c91ba2)" style="fill: none; stroke-dasharray: 1.85,0.8; stroke-dashoffset: 0; stroke: #b2b2b2; stroke-width: 0.5"/>
     </g>
     <g id="line2d_63">
      <g>
       <use xlink:href="#m6b7837b48a" x="786.24" y="465.442759" style="stroke: #000000; stroke-width: 0.8"/>
      </g>
     </g>
    </g>
    <g id="xtick_24">
     <g id="line2d_64">
      <path d="M 947.52 465.442759 
L 947.52 372.711724 
" clip-path="url(#p4004c91ba2)" style="fill: none; stroke-dasharray: 1.85,0.8; stroke-dashoffset: 0; stroke: #b2b2b2; stroke-width: 0.5"/>
     </g>
     <g id="line2d_65">
      <g>
       <use xlink:href="#m6b7837b48a" x="947.52" y="465.442759" style="stroke: #000000; stroke-width: 0.8"/>
      </g>
     </g>
    </g>
   </g>
   <g id="matplotlib.axis_8">
    <g id="ytick_8">
     <g id="line2d_66">
      <path d="M 100.8 440.924022 
L 987.84 440.924022 
" clip-path="url(#p4004c91ba2)" style="fill: none; stroke-dasharray: 1.85,0.8; stroke-dashoffset: 0; stroke: #b2b2b2; stroke-width: 0.5"/>
     </g>
     <g id="line2d_67">
      <g>
       <use xlink:href="#m7d298f1ef4" x="100.8" y="440.924022" style="stroke: #000000; stroke-width: 0.8"/>
      </g>
     </g>
     <g id="text_11">
      <!-- 0 V -->
      <g transform="translate(74.36625 446.242929) scale(0.14 -0.14)">
       <use xlink:href="#DejaVuSans-30"/>
       <use xlink:href="#DejaVuSans-20" x="63.623047"/>
       <use xlink:href="#DejaVuSans-56" x="95.410156"/>
      </g>
     </g>
    </g>
    <g id="ytick_9">
     <g id="line2d_68">
      <path d="M 100.8 405.454726 
L 987.84 405.454726 
" clip-path="url(#p4004c91ba2)" style="fill: none; stroke-dasharray: 1.85,0.8; stroke-dashoffset: 0; stroke: #b2b2b2; stroke-width: 0.5"/>
     </g>
     <g id="line2d_69">
      <g>
       <use xlink:href="#m7d298f1ef4" x="100.8" y="405.454726" style="stroke: #000000; stroke-width: 0.8"/>
      </g>
     </g>
     <g id="text_12">
      <!-- 1 V -->
      <g transform="translate(74.36625 410.773632) scale(0.14 -0.14)">
       <use xlink:href="#DejaVuSans-31"/>
       <use xlink:href="#DejaVuSans-20" x="63.623047"/>
       <use xlink:href="#DejaVuSans-56" x="95.410156"/>
      </g>
     </g>
    </g>
    <g id="text_13">
     <g id="patch_21">
      <path d="M 34.8768 454.693023 
L 34.8768 383.46146 
L 11.247425 383.46146 
L 11.247425 454.693023 
z
" style="fill: #ffff00; opacity: 0.2; stroke: #eeeeee; stroke-width: 0.5; stroke-linejoin: miter"/>
     </g>
     <!-- DFF OUT -->
     <g transform="translate(26.925238 449.653023) rotate(-90) scale(0.14 -0.14)">
      <defs>
       <path id="DejaVuSans-4f" d="M 2522 4238 
Q 1834 4238 1429 3725 
Q 1025 3213 1025 2328 
Q 1025 1447 1429 934 
Q 1834 422 2522 422 
Q 3209 422 3611 934 
Q 4013 1447 4013 2328 
Q 4013 3213 3611 3725 
Q 3209 4238 2522 4238 
z
M 2522 4750 
Q 3503 4750 4090 4092 
Q 4678 3434 4678 2328 
Q 4678 1225 4090 567 
Q 3503 -91 2522 -91 
Q 1538 -91 948 565 
Q 359 1222 359 2328 
Q 359 3434 948 4092 
Q 1538 4750 2522 4750 
z
" transform="scale(0.015625)"/>
       <path id="DejaVuSans-54" d="M -19 4666 
L 3928 4666 
L 3928 4134 
L 2272 4134 
L 2272 0 
L 1638 0 
L 1638 4134 
L -19 4134 
L -19 4666 
z
" transform="scale(0.015625)"/>
      </defs>
      <use xlink:href="#DejaVuSans-44"/>
      <use xlink:href="#DejaVuSans-46" x="77.001953"/>
      <use xlink:href="#DejaVuSans-46" x="134.521484"/>
      <use xlink:href="#DejaVuSans-20" x="192.041016"/>
      <use xlink:href="#DejaVuSans-4f" x="223.828125"/>
      <use xlink:href="#DejaVuSans-55" x="302.539062"/>
      <use xlink:href="#DejaVuSans-54" x="375.732422"/>
     </g>
    </g>
   </g>
   <g id="line2d_70">
    <path d="M 141.12 414.161374 
L 173.408256 414.204647 
L 173.440512 415.673076 
L 173.601792 440.926187 
L 174.1824 440.922697 
L 185.601024 440.923072 
L 254.048256 440.924563 
L 254.080512 441.066354 
L 254.112768 440.831813 
L 254.306304 437.368935 
L 254.628864 436.573358 
L 254.693376 436.179649 
L 255.14496 429.965429 
L 255.370752 415.359882 
L 255.596544 398.704919 
L 255.757824 398.414071 
L 255.983616 398.35732 
L 257.015808 398.360867 
L 295.723008 398.417618 
L 295.916544 398.846796 
L 296.174592 400.6912 
L 296.206848 400.815342 
L 296.239104 400.716028 
L 296.497152 400.258474 
L 297.593856 398.868078 
L 298.593792 398.442446 
L 312.23808 398.524026 
L 313.818624 400.421633 
L 320.076288 409.549656 
L 320.656896 410.807752 
L 321.59232 414.001408 
L 322.56 417.763991 
L 322.656768 417.635237 
L 322.72128 417.73065 
L 322.88256 419.018185 
L 323.140608 420.134049 
L 323.20512 420.004586 
L 323.269632 420.050342 
L 323.463168 421.430097 
L 323.721216 422.525744 
L 323.753472 422.461899 
L 323.785728 422.444519 
L 324.205056 424.548912 
L 325.237248 429.246821 
L 325.592064 431.388102 
L 325.62432 431.335253 
L 325.656576 431.370367 
L 325.914624 432.642296 
L 327.462912 438.10886 
L 327.495168 437.783358 
L 327.527424 437.647723 
L 327.55968 437.693124 
L 327.72096 438.958208 
L 329.688576 445.360522 
L 329.753088 445.093438 
L 329.8176 445.216517 
L 329.946624 445.962791 
L 329.97888 445.595329 
L 330.043392 445.734723 
L 330.559488 447.284377 
L 330.94656 447.99057 
L 330.978816 447.810032 
L 331.075584 447.899769 
L 331.204608 448.451316 
L 331.236864 448.122516 
L 331.301376 448.257654 
L 331.494912 448.728686 
L 332.39808 450.926364 
L 332.430336 450.705745 
L 332.462592 450.785551 
L 332.494848 451.112578 
L 332.591616 451.031708 
L 333.20448 452.633501 
L 333.52704 453.248184 
L 333.656064 453.519169 
L 333.720576 453.486538 
L 333.752832 453.438654 
L 333.785088 453.51314 
L 335.559168 457.120367 
L 335.591424 457.008284 
L 335.62368 457.245928 
L 335.655936 457.195917 
L 335.688192 457.287073 
L 336.688128 459.172621 
L 337.946112 461.215652 
L 338.171904 461.019507 
L 338.36544 460.657365 
L 338.688 460.158312 
L 338.720256 459.692955 
L 338.817024 459.894066 
L 339.01056 459.609957 
L 339.236352 459.110904 
L 339.558912 458.611142 
L 339.591168 458.715421 
L 339.623424 458.613624 
L 339.752448 458.306106 
L 339.784704 458.349733 
L 339.81696 458.288726 
L 339.97824 458.044697 
L 340.429824 457.414408 
L 340.46208 457.480026 
L 340.62336 457.12888 
L 340.687872 457.176409 
L 340.849152 456.843352 
L 341.42976 456.184687 
L 341.462016 456.338269 
L 341.494272 456.101334 
L 341.526528 456.130774 
L 341.558784 456.154183 
L 341.720064 455.940658 
L 342.203904 455.555816 
L 342.816768 454.913113 
L 342.978048 454.532527 
L 343.010304 454.597436 
L 343.04256 454.476486 
L 343.074816 454.449174 
L 343.107072 454.50628 
L 343.139328 454.605239 
L 343.171584 454.360146 
L 343.332864 454.168967 
L 343.945728 453.61068 
L 343.977984 453.791219 
L 344.042496 453.54187 
L 344.074752 453.655372 
L 344.107008 453.509238 
L 344.17152 453.55925 
L 344.365056 453.314512 
L 344.848896 452.990322 
L 345.235968 452.508649 
L 345.397248 452.209288 
L 345.558528 451.993635 
L 345.590784 452.250787 
L 345.687552 452.159631 
L 345.78432 451.797135 
L 345.816576 452.04542 
L 345.848832 451.700659 
L 345.913344 451.965614 
L 346.042368 451.558427 
L 346.622976 451.083138 
L 346.655232 451.18529 
L 346.687488 451.055827 
L 346.719744 451.048024 
L 346.784256 451.166846 
L 346.91328 450.889121 
L 346.945536 450.932039 
L 347.010048 450.855071 
L 347.300352 450.739795 
L 347.913216 450.099929 
L 348.074496 449.717925 
L 348.300288 449.473187 
L 348.332544 449.748074 
L 348.397056 449.374227 
L 348.751872 449.026628 
L 348.784128 449.155027 
L 348.816384 449.288746 
L 348.84864 448.972715 
L 348.913152 449.166732 
L 349.042176 448.784018 
L 349.074432 448.785082 
L 349.106688 449.067418 
L 349.138944 448.721947 
L 349.1712 448.71911 
L 349.203456 448.753515 
L 349.235712 448.644269 
L 349.267968 448.64959 
L 349.300224 448.836158 
L 349.396992 448.809556 
L 349.526016 448.472598 
L 349.751808 448.448479 
L 350.30016 448.010078 
L 350.396928 447.995891 
L 351.009792 447.41916 
L 351.074304 447.374469 
L 351.203328 446.874351 
L 351.493632 446.62181 
L 351.525888 446.981469 
L 351.5904 446.695941 
L 351.622656 446.764397 
L 351.654912 446.462198 
L 351.75168 446.578538 
L 351.783936 446.765815 
L 351.848448 446.498377 
L 351.880704 446.59308 
L 351.91296 446.460425 
L 351.977472 446.540231 
L 352.041984 446.178799 
L 352.07424 446.196888 
L 352.106496 446.520368 
L 352.138752 446.136235 
L 352.171008 446.145812 
L 352.23552 446.088707 
L 352.300032 446.359692 
L 352.429056 446.006063 
L 352.912896 445.867378 
L 354.299904 444.741228 
L 354.428928 444.237564 
L 354.461184 444.284632 
L 354.49344 444.15109 
L 354.557952 444.079903 
L 354.590208 444.505003 
L 354.65472 444.056954 
L 354.686976 444.275303 
L 354.783744 444.201492 
L 354.848256 443.806577 
L 354.912768 443.84577 
L 354.945024 443.750925 
L 355.009536 444.065467 
L 355.074048 443.976794 
L 355.13856 443.570741 
L 355.235328 443.699601 
L 355.29984 443.852722 
L 355.364352 443.755465 
L 355.6224 443.431985 
L 356.041728 443.295961 
L 357.460992 441.989662 
L 357.493248 441.944687 
L 357.654528 441.151086 
L 357.751296 441.096591 
L 357.783552 441.069638 
L 357.815808 441.486885 
L 357.88032 440.993673 
L 358.0416 441.131965 
L 358.073856 441.083272 
L 358.235136 440.856471 
L 360.396288 437.335239 
L 360.815616 436.519445 
L 360.94464 436.129283 
L 360.976896 436.343517 
L 361.041408 436.198093 
L 361.202688 435.960094 
L 362.783232 433.38928 
L 362.912256 433.224348 
L 364.267008 430.891887 
L 364.621824 430.319412 
L 364.65408 430.51201 
L 364.686336 430.248474 
L 364.750848 430.148095 
L 364.783104 430.334309 
L 364.847616 430.230384 
L 365.105664 429.885977 
L 365.202432 429.819295 
L 365.78304 428.884324 
L 365.94432 428.131666 
L 366.008832 428.006105 
L 366.041088 428.202605 
L 366.073344 427.99972 
L 366.202368 427.656377 
L 366.234624 427.802156 
L 366.26688 427.629775 
L 366.460416 427.26586 
L 366.492672 427.258767 
L 366.847488 426.320249 
L 367.524864 424.929143 
L 367.87968 424.414129 
L 367.911936 423.739503 
L 368.008704 423.803702 
L 368.234496 423.828176 
L 369.00864 422.484245 
L 369.524736 421.798978 
L 369.589248 421.35171 
L 369.65376 421.40988 
L 369.718272 421.498198 
L 369.782784 421.405269 
L 371.7504 418.621284 
L 371.879424 418.751456 
L 372.008448 418.897589 
L 372.137472 419.82724 
L 372.331008 430.074674 
L 372.524544 440.375348 
L 372.71808 440.440647 
L 375.040512 440.537052 
L 375.330816 440.493532 
L 376.879104 440.190446 
L 377.588736 439.816281 
L 378.653184 439.512983 
L 380.072448 439.375043 
L 382.55616 439.386145 
L 398.20032 439.739809 
L 402.3936 439.87516 
L 402.683904 440.141747 
L 403.36128 440.60034 
L 404.232192 440.923968 
L 405.45792 441.133451 
L 407.586816 441.240359 
L 414.070272 441.245108 
L 415.328256 441.245988 
L 415.360512 441.420238 
L 415.715328 429.373091 
L 415.876608 426.098566 
L 416.005632 419.858098 
L 416.199168 395.658107 
L 416.392704 376.926771 
L 416.42496 376.99771 
L 416.457216 377.068648 
L 416.489472 376.940959 
L 416.521728 376.948053 
L 417.360384 377.242448 
L 418.553856 377.646798 
L 422.71488 379.132961 
L 425.585664 380.512717 
L 426.359808 380.892238 
L 427.23072 381.293042 
L 427.87584 381.590984 
L 428.779008 381.998881 
L 429.16608 382.169133 
L 430.198272 382.616046 
L 430.746624 382.853691 
L 431.940096 383.360901 
L 435.036672 384.602327 
L 438.19776 385.758626 
L 439.391232 386.162976 
L 448.422912 389.035989 
L 448.777728 389.13885 
L 449.48736 389.330384 
L 451.390464 389.848236 
L 452.22912 390.050411 
L 453.68064 390.419291 
L 454.196736 390.525699 
L 455.486976 390.844923 
L 455.712768 390.905221 
L 455.745024 390.979706 
L 455.809536 390.919409 
L 456.132096 390.9868 
L 457.2288 391.235085 
L 457.777152 391.341493 
L 458.873856 391.589778 
L 459.422208 391.696186 
L 463.647744 392.51198 
L 464.260608 392.618388 
L 467.034624 393.114958 
L 467.744256 393.221366 
L 469.550592 393.50512 
L 470.260224 393.611528 
L 471.90528 393.859813 
L 472.776192 393.966221 
L 474.259968 394.179037 
L 475.195392 394.285445 
L 476.517888 394.462791 
L 477.421056 394.569199 
L 478.582272 394.711076 
L 479.64672 394.817484 
L 480.807936 394.959361 
L 481.969152 395.065769 
L 483.130368 395.207646 
L 484.388352 395.314054 
L 485.388288 395.420462 
L 486.710784 395.52687 
L 487.71072 395.633278 
L 489.129984 395.739686 
L 489.96864 395.810624 
L 491.355648 395.917032 
L 492.194304 395.987971 
L 493.774848 396.094379 
L 494.613504 396.165317 
L 495.968256 396.268178 
L 496.000512 396.484541 
L 496.065024 396.250444 
L 496.25856 396.264631 
L 497.581056 396.374586 
L 499.580928 396.484541 
L 501.613056 396.590949 
L 502.451712 396.661888 
L 504.903168 396.768295 
L 505.580544 396.803765 
L 506.25792 396.839234 
L 508.67712 396.945642 
L 509.354496 396.981111 
L 510.064128 397.013034 
L 512.934912 397.119442 
L 513.386496 397.158458 
L 516.805632 397.261319 
L 517.257216 397.296788 
L 521.25696 397.403196 
L 521.708544 397.442212 
L 526.385664 397.54862 
L 527.030784 397.580542 
L 532.482048 397.68695 
L 532.933632 397.72242 
L 540.12672 397.828827 
L 540.578304 397.867844 
L 550.28736 397.970705 
L 550.738944 398.006174 
L 576.608256 398.020362 
L 576.640512 398.140957 
L 576.705024 397.977798 
L 577.027584 397.99908 
L 657.248256 398.002627 
L 657.280512 398.18352 
L 657.345024 398.002627 
L 657.53856 397.984892 
L 658.732032 398.006174 
L 737.888256 398.020362 
L 737.920512 398.140957 
L 737.985024 397.977798 
L 738.307584 397.99908 
L 818.528256 398.020362 
L 818.560512 398.140957 
L 818.625024 397.977798 
L 818.947584 397.99908 
L 899.168256 398.020362 
L 899.200512 398.140957 
L 899.265024 397.977798 
L 899.587584 397.99908 
L 947.52 398.006174 
L 947.52 398.006174 
" clip-path="url(#p4004c91ba2)" style="fill: none; stroke: #ff00ff; stroke-width: 2; stroke-linecap: square"/>
   </g>
   <g id="patch_22">
    <path d="M 100.8 465.442759 
L 100.8 372.711724 
" style="fill: none; stroke: #bcbcbc; stroke-width: 0.8; stroke-linejoin: miter; stroke-linecap: square"/>
   </g>
   <g id="patch_23">
    <path d="M 987.84 465.442759 
L 987.84 372.711724 
" style="fill: none; stroke: #bcbcbc; stroke-width: 0.8; stroke-linejoin: miter; stroke-linecap: square"/>
   </g>
   <g id="patch_24">
    <path d="M 100.8 465.442759 
L 987.84 465.442759 
" style="fill: none; stroke: #bcbcbc; stroke-width: 0.8; stroke-linejoin: miter; stroke-linecap: square"/>
   </g>
   <g id="patch_25">
    <path d="M 100.8 372.711724 
L 987.84 372.711724 
" style="fill: none; stroke: #bcbcbc; stroke-width: 0.8; stroke-linejoin: miter; stroke-linecap: square"/>
   </g>
  </g>
  <g id="axes_5">
   <g id="patch_26">
    <path d="M 100.8 576.72 
L 987.84 576.72 
L 987.84 483.988966 
L 100.8 483.988966 
z
" style="fill: #eeeeee"/>
   </g>
   <g id="matplotlib.axis_9">
    <g id="xtick_25">
     <g id="line2d_71">
      <path d="M 141.12 576.72 
L 141.12 483.988966 
" clip-path="url(#pbf0d03f1e3)" style="fill: none; stroke-dasharray: 1.85,0.8; stroke-dashoffset: 0; stroke: #b2b2b2; stroke-width: 0.5"/>
     </g>
     <g id="line2d_72">
      <g>
       <use xlink:href="#m6b7837b48a" x="141.12" y="576.72" style="stroke: #000000; stroke-width: 0.8"/>
      </g>
     </g>
     <g id="text_14">
      <!-- 0 s -->
      <g transform="translate(130.795 590.857813) scale(0.14 -0.14)">
       <defs>
        <path id="DejaVuSans-73" d="M 2834 3397 
L 2834 2853 
Q 2591 2978 2328 3040 
Q 2066 3103 1784 3103 
Q 1356 3103 1142 2972 
Q 928 2841 928 2578 
Q 928 2378 1081 2264 
Q 1234 2150 1697 2047 
L 1894 2003 
Q 2506 1872 2764 1633 
Q 3022 1394 3022 966 
Q 3022 478 2636 193 
Q 2250 -91 1575 -91 
Q 1294 -91 989 -36 
Q 684 19 347 128 
L 347 722 
Q 666 556 975 473 
Q 1284 391 1588 391 
Q 1994 391 2212 530 
Q 2431 669 2431 922 
Q 2431 1156 2273 1281 
Q 2116 1406 1581 1522 
L 1381 1569 
Q 847 1681 609 1914 
Q 372 2147 372 2553 
Q 372 3047 722 3315 
Q 1072 3584 1716 3584 
Q 2034 3584 2315 3537 
Q 2597 3491 2834 3397 
z
" transform="scale(0.015625)"/>
       </defs>
       <use xlink:href="#DejaVuSans-30"/>
       <use xlink:href="#DejaVuSans-20" x="63.623047"/>
       <use xlink:href="#DejaVuSans-73" x="95.410156"/>
      </g>
     </g>
    </g>
    <g id="xtick_26">
     <g id="line2d_73">
      <path d="M 302.4 576.72 
L 302.4 483.988966 
" clip-path="url(#pbf0d03f1e3)" style="fill: none; stroke-dasharray: 1.85,0.8; stroke-dashoffset: 0; stroke: #b2b2b2; stroke-width: 0.5"/>
     </g>
     <g id="line2d_74">
      <g>
       <use xlink:href="#m6b7837b48a" x="302.4" y="576.72" style="stroke: #000000; stroke-width: 0.8"/>
      </g>
     </g>
     <g id="text_15">
      <!-- 50 ns -->
      <g transform="translate(283.185 590.857813) scale(0.14 -0.14)">
       <defs>
        <path id="DejaVuSans-35" d="M 691 4666 
L 3169 4666 
L 3169 4134 
L 1269 4134 
L 1269 2991 
Q 1406 3038 1543 3061 
Q 1681 3084 1819 3084 
Q 2600 3084 3056 2656 
Q 3513 2228 3513 1497 
Q 3513 744 3044 326 
Q 2575 -91 1722 -91 
Q 1428 -91 1123 -41 
Q 819 9 494 109 
L 494 744 
Q 775 591 1075 516 
Q 1375 441 1709 441 
Q 2250 441 2565 725 
Q 2881 1009 2881 1497 
Q 2881 1984 2565 2268 
Q 2250 2553 1709 2553 
Q 1456 2553 1204 2497 
Q 953 2441 691 2322 
L 691 4666 
z
" transform="scale(0.015625)"/>
        <path id="DejaVuSans-6e" d="M 3513 2113 
L 3513 0 
L 2938 0 
L 2938 2094 
Q 2938 2591 2744 2837 
Q 2550 3084 2163 3084 
Q 1697 3084 1428 2787 
Q 1159 2491 1159 1978 
L 1159 0 
L 581 0 
L 581 3500 
L 1159 3500 
L 1159 2956 
Q 1366 3272 1645 3428 
Q 1925 3584 2291 3584 
Q 2894 3584 3203 3211 
Q 3513 2838 3513 2113 
z
" transform="scale(0.015625)"/>
       </defs>
       <use xlink:href="#DejaVuSans-35"/>
       <use xlink:href="#DejaVuSans-30" x="63.623047"/>
       <use xlink:href="#DejaVuSans-20" x="127.246094"/>
       <use xlink:href="#DejaVuSans-6e" x="159.033203"/>
       <use xlink:href="#DejaVuSans-73" x="222.412109"/>
      </g>
     </g>
    </g>
    <g id="xtick_27">
     <g id="line2d_75">
      <path d="M 463.68 576.72 
L 463.68 483.988966 
" clip-path="url(#pbf0d03f1e3)" style="fill: none; stroke-dasharray: 1.85,0.8; stroke-dashoffset: 0; stroke: #b2b2b2; stroke-width: 0.5"/>
     </g>
     <g id="line2d_76">
      <g>
       <use xlink:href="#m6b7837b48a" x="463.68" y="576.72" style="stroke: #000000; stroke-width: 0.8"/>
      </g>
     </g>
     <g id="text_16">
      <!-- 100 ns -->
      <g transform="translate(440.01125 590.857813) scale(0.14 -0.14)">
       <use xlink:href="#DejaVuSans-31"/>
       <use xlink:href="#DejaVuSans-30" x="63.623047"/>
       <use xlink:href="#DejaVuSans-30" x="127.246094"/>
       <use xlink:href="#DejaVuSans-20" x="190.869141"/>
       <use xlink:href="#DejaVuSans-6e" x="222.65625"/>
       <use xlink:href="#DejaVuSans-73" x="286.035156"/>
      </g>
     </g>
    </g>
    <g id="xtick_28">
     <g id="line2d_77">
      <path d="M 624.96 576.72 
L 624.96 483.988966 
" clip-path="url(#pbf0d03f1e3)" style="fill: none; stroke-dasharray: 1.85,0.8; stroke-dashoffset: 0; stroke: #b2b2b2; stroke-width: 0.5"/>
     </g>
     <g id="line2d_78">
      <g>
       <use xlink:href="#m6b7837b48a" x="624.96" y="576.72" style="stroke: #000000; stroke-width: 0.8"/>
      </g>
     </g>
     <g id="text_17">
      <!-- 150 ns -->
      <g transform="translate(601.29125 590.857813) scale(0.14 -0.14)">
       <use xlink:href="#DejaVuSans-31"/>
       <use xlink:href="#DejaVuSans-35" x="63.623047"/>
       <use xlink:href="#DejaVuSans-30" x="127.246094"/>
       <use xlink:href="#DejaVuSans-20" x="190.869141"/>
       <use xlink:href="#DejaVuSans-6e" x="222.65625"/>
       <use xlink:href="#DejaVuSans-73" x="286.035156"/>
      </g>
     </g>
    </g>
    <g id="xtick_29">
     <g id="line2d_79">
      <path d="M 786.24 576.72 
L 786.24 483.988966 
" clip-path="url(#pbf0d03f1e3)" style="fill: none; stroke-dasharray: 1.85,0.8; stroke-dashoffset: 0; stroke: #b2b2b2; stroke-width: 0.5"/>
     </g>
     <g id="line2d_80">
      <g>
       <use xlink:href="#m6b7837b48a" x="786.24" y="576.72" style="stroke: #000000; stroke-width: 0.8"/>
      </g>
     </g>
     <g id="text_18">
      <!-- 200 ns -->
      <g transform="translate(762.57125 590.857813) scale(0.14 -0.14)">
       <use xlink:href="#DejaVuSans-32"/>
       <use xlink:href="#DejaVuSans-30" x="63.623047"/>
       <use xlink:href="#DejaVuSans-30" x="127.246094"/>
       <use xlink:href="#DejaVuSans-20" x="190.869141"/>
       <use xlink:href="#DejaVuSans-6e" x="222.65625"/>
       <use xlink:href="#DejaVuSans-73" x="286.035156"/>
      </g>
     </g>
    </g>
    <g id="xtick_30">
     <g id="line2d_81">
      <path d="M 947.52 576.72 
L 947.52 483.988966 
" clip-path="url(#pbf0d03f1e3)" style="fill: none; stroke-dasharray: 1.85,0.8; stroke-dashoffset: 0; stroke: #b2b2b2; stroke-width: 0.5"/>
     </g>
     <g id="line2d_82">
      <g>
       <use xlink:href="#m6b7837b48a" x="947.52" y="576.72" style="stroke: #000000; stroke-width: 0.8"/>
      </g>
     </g>
     <g id="text_19">
      <!-- 250 ns -->
      <g transform="translate(923.85125 590.857813) scale(0.14 -0.14)">
       <use xlink:href="#DejaVuSans-32"/>
       <use xlink:href="#DejaVuSans-35" x="63.623047"/>
       <use xlink:href="#DejaVuSans-30" x="127.246094"/>
       <use xlink:href="#DejaVuSans-20" x="190.869141"/>
       <use xlink:href="#DejaVuSans-6e" x="222.65625"/>
       <use xlink:href="#DejaVuSans-73" x="286.035156"/>
      </g>
     </g>
    </g>
    <g id="text_20">
     <!-- Time -->
     <g transform="translate(527.192969 608.407187) scale(0.14 -0.14)">
      <defs>
       <path id="DejaVuSans-69" d="M 603 3500 
L 1178 3500 
L 1178 0 
L 603 0 
L 603 3500 
z
M 603 4863 
L 1178 4863 
L 1178 4134 
L 603 4134 
L 603 4863 
z
" transform="scale(0.015625)"/>
       <path id="DejaVuSans-6d" d="M 3328 2828 
Q 3544 3216 3844 3400 
Q 4144 3584 4550 3584 
Q 5097 3584 5394 3201 
Q 5691 2819 5691 2113 
L 5691 0 
L 5113 0 
L 5113 2094 
Q 5113 2597 4934 2840 
Q 4756 3084 4391 3084 
Q 3944 3084 3684 2787 
Q 3425 2491 3425 1978 
L 3425 0 
L 2847 0 
L 2847 2094 
Q 2847 2600 2669 2842 
Q 2491 3084 2119 3084 
Q 1678 3084 1418 2786 
Q 1159 2488 1159 1978 
L 1159 0 
L 581 0 
L 581 3500 
L 1159 3500 
L 1159 2956 
Q 1356 3278 1631 3431 
Q 1906 3584 2284 3584 
Q 2666 3584 2933 3390 
Q 3200 3197 3328 2828 
z
" transform="scale(0.015625)"/>
       <path id="DejaVuSans-65" d="M 3597 1894 
L 3597 1613 
L 953 1613 
Q 991 1019 1311 708 
Q 1631 397 2203 397 
Q 2534 397 2845 478 
Q 3156 559 3463 722 
L 3463 178 
Q 3153 47 2828 -22 
Q 2503 -91 2169 -91 
Q 1331 -91 842 396 
Q 353 884 353 1716 
Q 353 2575 817 3079 
Q 1281 3584 2069 3584 
Q 2775 3584 3186 3129 
Q 3597 2675 3597 1894 
z
M 3022 2063 
Q 3016 2534 2758 2815 
Q 2500 3097 2075 3097 
Q 1594 3097 1305 2825 
Q 1016 2553 972 2059 
L 3022 2063 
z
" transform="scale(0.015625)"/>
      </defs>
      <use xlink:href="#DejaVuSans-54"/>
      <use xlink:href="#DejaVuSans-69" x="57.958984"/>
      <use xlink:href="#DejaVuSans-6d" x="85.742188"/>
      <use xlink:href="#DejaVuSans-65" x="183.154297"/>
     </g>
    </g>
   </g>
   <g id="matplotlib.axis_10">
    <g id="ytick_10">
     <g id="line2d_83">
      <path d="M 100.8 569.745664 
L 987.84 569.745664 
" clip-path="url(#pbf0d03f1e3)" style="fill: none; stroke-dasharray: 1.85,0.8; stroke-dashoffset: 0; stroke: #b2b2b2; stroke-width: 0.5"/>
     </g>
     <g id="line2d_84">
      <g>
       <use xlink:href="#m7d298f1ef4" x="100.8" y="569.745664" style="stroke: #000000; stroke-width: 0.8"/>
      </g>
     </g>
     <g id="text_21">
      <!-- 0 V -->
      <g transform="translate(74.36625 575.06457) scale(0.14 -0.14)">
       <use xlink:href="#DejaVuSans-30"/>
       <use xlink:href="#DejaVuSans-20" x="63.623047"/>
       <use xlink:href="#DejaVuSans-56" x="95.410156"/>
      </g>
     </g>
    </g>
    <g id="ytick_11">
     <g id="line2d_85">
      <path d="M 100.8 535.947417 
L 987.84 535.947417 
" clip-path="url(#pbf0d03f1e3)" style="fill: none; stroke-dasharray: 1.85,0.8; stroke-dashoffset: 0; stroke: #b2b2b2; stroke-width: 0.5"/>
     </g>
     <g id="line2d_86">
      <g>
       <use xlink:href="#m7d298f1ef4" x="100.8" y="535.947417" style="stroke: #000000; stroke-width: 0.8"/>
      </g>
     </g>
     <g id="text_22">
      <!-- 500 mV -->
      <g transform="translate(42.914375 541.266323) scale(0.14 -0.14)">
       <use xlink:href="#DejaVuSans-35"/>
       <use xlink:href="#DejaVuSans-30" x="63.623047"/>
       <use xlink:href="#DejaVuSans-30" x="127.246094"/>
       <use xlink:href="#DejaVuSans-20" x="190.869141"/>
       <use xlink:href="#DejaVuSans-6d" x="222.65625"/>
       <use xlink:href="#DejaVuSans-56" x="320.068359"/>
      </g>
     </g>
    </g>
    <g id="ytick_12">
     <g id="line2d_87">
      <path d="M 100.8 502.149169 
L 987.84 502.149169 
" clip-path="url(#pbf0d03f1e3)" style="fill: none; stroke-dasharray: 1.85,0.8; stroke-dashoffset: 0; stroke: #b2b2b2; stroke-width: 0.5"/>
     </g>
     <g id="line2d_88">
      <g>
       <use xlink:href="#m7d298f1ef4" x="100.8" y="502.149169" style="stroke: #000000; stroke-width: 0.8"/>
      </g>
     </g>
     <g id="text_23">
      <!-- 1 V -->
      <g transform="translate(74.36625 507.468076) scale(0.14 -0.14)">
       <use xlink:href="#DejaVuSans-31"/>
       <use xlink:href="#DejaVuSans-20" x="63.623047"/>
       <use xlink:href="#DejaVuSans-56" x="95.410156"/>
      </g>
     </g>
    </g>
    <g id="text_24">
     <g id="patch_27">
      <path d="M 34.8768 554.329483 
L 34.8768 506.379483 
L 11.247425 506.379483 
L 11.247425 554.329483 
z
" style="fill: #ffff00; opacity: 0.2; stroke: #eeeeee; stroke-width: 0.5; stroke-linejoin: miter"/>
     </g>
     <!-- FOUT -->
     <g transform="translate(26.925238 549.289483) rotate(-90) scale(0.14 -0.14)">
      <use xlink:href="#DejaVuSans-46"/>
      <use xlink:href="#DejaVuSans-4f" x="57.519531"/>
      <use xlink:href="#DejaVuSans-55" x="136.230469"/>
      <use xlink:href="#DejaVuSans-54" x="209.423828"/>
     </g>
    </g>
   </g>
   <g id="line2d_89">
    <path d="M 141.12 488.62987 
L 173.472768 488.63663 
L 173.505024 488.4406 
L 173.569536 526.786064 
L 173.69856 572.504953 
L 173.730816 572.36949 
L 173.827584 567.841741 
L 173.892096 569.360648 
L 174.053376 570.063996 
L 174.117888 569.946459 
L 174.408192 569.491812 
L 174.440448 569.541273 
L 174.66624 569.729732 
L 176.182272 569.739929 
L 180.117504 569.76123 
L 193.568256 569.751938 
L 212.954112 569.743788 
L 255.30624 569.743483 
L 255.6288 488.521716 
L 255.854592 488.663669 
L 256.209408 488.623111 
L 323.495424 488.562274 
L 323.559936 488.204013 
L 323.624448 512.417753 
L 323.721216 569.926971 
L 323.785728 569.742971 
L 365.13792 569.743981 
L 369.97632 569.810873 
L 370.008576 569.862755 
L 370.040832 569.834493 
L 370.073088 568.239952 
L 370.202112 504.590755 
L 370.331136 488.785342 
L 370.492416 488.63663 
L 371.040768 488.62987 
L 372.105216 488.62987 
L 372.169728 503.809339 
L 372.363264 571.932073 
L 372.460032 569.743907 
L 375.524352 569.743986 
L 416.005632 569.735343 
L 416.070144 568.69873 
L 416.295936 488.771823 
L 416.457216 488.62987 
L 947.52 488.62987 
L 947.52 488.62987 
" clip-path="url(#pbf0d03f1e3)" style="fill: none; stroke: #ff00ff; stroke-width: 2; stroke-linecap: square"/>
   </g>
   <g id="patch_28">
    <path d="M 100.8 576.72 
L 100.8 483.988966 
" style="fill: none; stroke: #bcbcbc; stroke-width: 0.8; stroke-linejoin: miter; stroke-linecap: square"/>
   </g>
   <g id="patch_29">
    <path d="M 987.84 576.72 
L 987.84 483.988966 
" style="fill: none; stroke: #bcbcbc; stroke-width: 0.8; stroke-linejoin: miter; stroke-linecap: square"/>
   </g>
   <g id="patch_30">
    <path d="M 100.8 576.72 
L 987.84 576.72 
" style="fill: none; stroke: #bcbcbc; stroke-width: 0.8; stroke-linejoin: miter; stroke-linecap: square"/>
   </g>
   <g id="patch_31">
    <path d="M 100.8 483.988966 
L 987.84 483.988966 
" style="fill: none; stroke: #bcbcbc; stroke-width: 0.8; stroke-linejoin: miter; stroke-linecap: square"/>
   </g>
  </g>
  <g id="axes_6">
   <g id="patch_32">
    <path d="M 201.6 628.56 
L 856.8 628.56 
L 856.8 615.6 
L 201.6 615.6 
z
" clip-path="url(#pa59b355b3b)" style="fill: #d3d3d3"/>
   </g>
   <g id="patch_33">
    <path d="M 201.6 628.56 
L 374.76 628.56 
L 374.76 615.6 
L 201.6 615.6 
z
" clip-path="url(#pa59b355b3b)" style="fill: #0000ff"/>
   </g>
   <g id="line2d_90">
    <path d="M 201.6 635.04 
L 201.6 609.12 
" clip-path="url(#pc7fa6f0efc)" style="fill: none; stroke: #ff0000; stroke-linecap: square"/>
   </g>
   <g id="line2d_91">
    <defs>
     <path id="m69bc761853" d="M 0 5 
C 1.326016 5 2.597899 4.473168 3.535534 3.535534 
C 4.473168 2.597899 5 1.326016 5 0 
C 5 -1.326016 4.473168 -2.597899 3.535534 -3.535534 
C 2.597899 -4.473168 1.326016 -5 0 -5 
C -1.326016 -5 -2.597899 -4.473168 -3.535534 -3.535534 
C -4.473168 -2.597899 -5 -1.326016 -5 0 
C -5 1.326016 -4.473168 2.597899 -3.535534 3.535534 
C -2.597899 4.473168 -1.326016 5 0 5 
z
" style="stroke: #bfbfbf"/>
    </defs>
    <g>
     <use xlink:href="#m69bc761853" x="374.76" y="622.08" style="fill: #ffffff; stroke: #bfbfbf"/>
    </g>
   </g>
   <g id="text_25">
    <!-- #Sweep -->
    <g transform="translate(138.622875 625.39125) scale(0.12 -0.12)">
     <defs>
      <path id="DejaVuSans-23" d="M 3272 2816 
L 2363 2816 
L 2100 1772 
L 3016 1772 
L 3272 2816 
z
M 2803 4594 
L 2478 3297 
L 3391 3297 
L 3719 4594 
L 4219 4594 
L 3897 3297 
L 4872 3297 
L 4872 2816 
L 3775 2816 
L 3519 1772 
L 4513 1772 
L 4513 1294 
L 3397 1294 
L 3072 0 
L 2572 0 
L 2894 1294 
L 1978 1294 
L 1656 0 
L 1153 0 
L 1478 1294 
L 494 1294 
L 494 1772 
L 1594 1772 
L 1856 2816 
L 850 2816 
L 850 3297 
L 1978 3297 
L 2297 4594 
L 2803 4594 
z
" transform="scale(0.015625)"/>
      <path id="DejaVuSans-77" d="M 269 3500 
L 844 3500 
L 1563 769 
L 2278 3500 
L 2956 3500 
L 3675 769 
L 4391 3500 
L 4966 3500 
L 4050 0 
L 3372 0 
L 2619 2869 
L 1863 0 
L 1184 0 
L 269 3500 
z
" transform="scale(0.015625)"/>
      <path id="DejaVuSans-70" d="M 1159 525 
L 1159 -1331 
L 581 -1331 
L 581 3500 
L 1159 3500 
L 1159 2969 
Q 1341 3281 1617 3432 
Q 1894 3584 2278 3584 
Q 2916 3584 3314 3078 
Q 3713 2572 3713 1747 
Q 3713 922 3314 415 
Q 2916 -91 2278 -91 
Q 1894 -91 1617 61 
Q 1341 213 1159 525 
z
M 3116 1747 
Q 3116 2381 2855 2742 
Q 2594 3103 2138 3103 
Q 1681 3103 1420 2742 
Q 1159 2381 1159 1747 
Q 1159 1113 1420 752 
Q 1681 391 2138 391 
Q 2594 391 2855 752 
Q 3116 1113 3116 1747 
z
" transform="scale(0.015625)"/>
     </defs>
     <use xlink:href="#DejaVuSans-23"/>
     <use xlink:href="#DejaVuSans-53" x="83.789062"/>
     <use xlink:href="#DejaVuSans-77" x="147.265625"/>
     <use xlink:href="#DejaVuSans-65" x="229.052734"/>
     <use xlink:href="#DejaVuSans-65" x="290.576172"/>
     <use xlink:href="#DejaVuSans-70" x="352.099609"/>
    </g>
   </g>
   <g id="text_26">
    <!-- $\mathdefault{37}$ -->
    <g transform="translate(869.904 625.39125) scale(0.12 -0.12)">
     <defs>
      <path id="DejaVuSans-33" d="M 2597 2516 
Q 3050 2419 3304 2112 
Q 3559 1806 3559 1356 
Q 3559 666 3084 287 
Q 2609 -91 1734 -91 
Q 1441 -91 1130 -33 
Q 819 25 488 141 
L 488 750 
Q 750 597 1062 519 
Q 1375 441 1716 441 
Q 2309 441 2620 675 
Q 2931 909 2931 1356 
Q 2931 1769 2642 2001 
Q 2353 2234 1838 2234 
L 1294 2234 
L 1294 2753 
L 1863 2753 
Q 2328 2753 2575 2939 
Q 2822 3125 2822 3475 
Q 2822 3834 2567 4026 
Q 2313 4219 1838 4219 
Q 1578 4219 1281 4162 
Q 984 4106 628 3988 
L 628 4550 
Q 988 4650 1302 4700 
Q 1616 4750 1894 4750 
Q 2613 4750 3031 4423 
Q 3450 4097 3450 3541 
Q 3450 3153 3228 2886 
Q 3006 2619 2597 2516 
z
" transform="scale(0.015625)"/>
      <path id="DejaVuSans-37" d="M 525 4666 
L 3525 4666 
L 3525 4397 
L 1831 0 
L 1172 0 
L 2766 4134 
L 525 4134 
L 525 4666 
z
" transform="scale(0.015625)"/>
     </defs>
     <use xlink:href="#DejaVuSans-33" transform="translate(0 0.78125)"/>
     <use xlink:href="#DejaVuSans-37" transform="translate(63.623047 0.78125)"/>
    </g>
   </g>
  </g>
  <g id="text_27">
   <!-- DFF under BBI sweep analysis (Sweep = 47E-9) -->
   <g transform="translate(313.34625 25.1175) scale(0.16 -0.16)">
    <defs>
     <path id="DejaVuSans-75" d="M 544 1381 
L 544 3500 
L 1119 3500 
L 1119 1403 
Q 1119 906 1312 657 
Q 1506 409 1894 409 
Q 2359 409 2629 706 
Q 2900 1003 2900 1516 
L 2900 3500 
L 3475 3500 
L 3475 0 
L 2900 0 
L 2900 538 
Q 2691 219 2414 64 
Q 2138 -91 1772 -91 
Q 1169 -91 856 284 
Q 544 659 544 1381 
z
M 1991 3584 
L 1991 3584 
z
" transform="scale(0.015625)"/>
     <path id="DejaVuSans-64" d="M 2906 2969 
L 2906 4863 
L 3481 4863 
L 3481 0 
L 2906 0 
L 2906 525 
Q 2725 213 2448 61 
Q 2172 -91 1784 -91 
Q 1150 -91 751 415 
Q 353 922 353 1747 
Q 353 2572 751 3078 
Q 1150 3584 1784 3584 
Q 2172 3584 2448 3432 
Q 2725 3281 2906 2969 
z
M 947 1747 
Q 947 1113 1208 752 
Q 1469 391 1925 391 
Q 2381 391 2643 752 
Q 2906 1113 2906 1747 
Q 2906 2381 2643 2742 
Q 2381 3103 1925 3103 
Q 1469 3103 1208 2742 
Q 947 2381 947 1747 
z
" transform="scale(0.015625)"/>
     <path id="DejaVuSans-72" d="M 2631 2963 
Q 2534 3019 2420 3045 
Q 2306 3072 2169 3072 
Q 1681 3072 1420 2755 
Q 1159 2438 1159 1844 
L 1159 0 
L 581 0 
L 581 3500 
L 1159 3500 
L 1159 2956 
Q 1341 3275 1631 3429 
Q 1922 3584 2338 3584 
Q 2397 3584 2469 3576 
Q 2541 3569 2628 3553 
L 2631 2963 
z
" transform="scale(0.015625)"/>
     <path id="DejaVuSans-61" d="M 2194 1759 
Q 1497 1759 1228 1600 
Q 959 1441 959 1056 
Q 959 750 1161 570 
Q 1363 391 1709 391 
Q 2188 391 2477 730 
Q 2766 1069 2766 1631 
L 2766 1759 
L 2194 1759 
z
M 3341 1997 
L 3341 0 
L 2766 0 
L 2766 531 
Q 2569 213 2275 61 
Q 1981 -91 1556 -91 
Q 1019 -91 701 211 
Q 384 513 384 1019 
Q 384 1609 779 1909 
Q 1175 2209 1959 2209 
L 2766 2209 
L 2766 2266 
Q 2766 2663 2505 2880 
Q 2244 3097 1772 3097 
Q 1472 3097 1187 3025 
Q 903 2953 641 2809 
L 641 3341 
Q 956 3463 1253 3523 
Q 1550 3584 1831 3584 
Q 2591 3584 2966 3190 
Q 3341 2797 3341 1997 
z
" transform="scale(0.015625)"/>
     <path id="DejaVuSans-6c" d="M 603 4863 
L 1178 4863 
L 1178 0 
L 603 0 
L 603 4863 
z
" transform="scale(0.015625)"/>
     <path id="DejaVuSans-79" d="M 2059 -325 
Q 1816 -950 1584 -1140 
Q 1353 -1331 966 -1331 
L 506 -1331 
L 506 -850 
L 844 -850 
Q 1081 -850 1212 -737 
Q 1344 -625 1503 -206 
L 1606 56 
L 191 3500 
L 800 3500 
L 1894 763 
L 2988 3500 
L 3597 3500 
L 2059 -325 
z
" transform="scale(0.015625)"/>
     <path id="DejaVuSans-28" d="M 1984 4856 
Q 1566 4138 1362 3434 
Q 1159 2731 1159 2009 
Q 1159 1288 1364 580 
Q 1569 -128 1984 -844 
L 1484 -844 
Q 1016 -109 783 600 
Q 550 1309 550 2009 
Q 550 2706 781 3412 
Q 1013 4119 1484 4856 
L 1984 4856 
z
" transform="scale(0.015625)"/>
     <path id="DejaVuSans-3d" d="M 678 2906 
L 4684 2906 
L 4684 2381 
L 678 2381 
L 678 2906 
z
M 678 1631 
L 4684 1631 
L 4684 1100 
L 678 1100 
L 678 1631 
z
" transform="scale(0.015625)"/>
     <path id="DejaVuSans-34" d="M 2419 4116 
L 825 1625 
L 2419 1625 
L 2419 4116 
z
M 2253 4666 
L 3047 4666 
L 3047 1625 
L 3713 1625 
L 3713 1100 
L 3047 1100 
L 3047 0 
L 2419 0 
L 2419 1100 
L 313 1100 
L 313 1709 
L 2253 4666 
z
" transform="scale(0.015625)"/>
     <path id="DejaVuSans-2d" d="M 313 2009 
L 1997 2009 
L 1997 1497 
L 313 1497 
L 313 2009 
z
" transform="scale(0.015625)"/>
     <path id="DejaVuSans-39" d="M 703 97 
L 703 672 
Q 941 559 1184 500 
Q 1428 441 1663 441 
Q 2288 441 2617 861 
Q 2947 1281 2994 2138 
Q 2813 1869 2534 1725 
Q 2256 1581 1919 1581 
Q 1219 1581 811 2004 
Q 403 2428 403 3163 
Q 403 3881 828 4315 
Q 1253 4750 1959 4750 
Q 2769 4750 3195 4129 
Q 3622 3509 3622 2328 
Q 3622 1225 3098 567 
Q 2575 -91 1691 -91 
Q 1453 -91 1209 -44 
Q 966 3 703 97 
z
M 1959 2075 
Q 2384 2075 2632 2365 
Q 2881 2656 2881 3163 
Q 2881 3666 2632 3958 
Q 2384 4250 1959 4250 
Q 1534 4250 1286 3958 
Q 1038 3666 1038 3163 
Q 1038 2656 1286 2365 
Q 1534 2075 1959 2075 
z
" transform="scale(0.015625)"/>
     <path id="DejaVuSans-29" d="M 513 4856 
L 1013 4856 
Q 1481 4119 1714 3412 
Q 1947 2706 1947 2009 
Q 1947 1309 1714 600 
Q 1481 -109 1013 -844 
L 513 -844 
Q 928 -128 1133 580 
Q 1338 1288 1338 2009 
Q 1338 2731 1133 3434 
Q 928 4138 513 4856 
z
" transform="scale(0.015625)"/>
    </defs>
    <use xlink:href="#DejaVuSans-44"/>
    <use xlink:href="#DejaVuSans-46" x="77.001953"/>
    <use xlink:href="#DejaVuSans-46" x="134.521484"/>
    <use xlink:href="#DejaVuSans-20" x="192.041016"/>
    <use xlink:href="#DejaVuSans-75" x="223.828125"/>
    <use xlink:href="#DejaVuSans-6e" x="287.207031"/>
    <use xlink:href="#DejaVuSans-64" x="350.585938"/>
    <use xlink:href="#DejaVuSans-65" x="414.0625"/>
    <use xlink:href="#DejaVuSans-72" x="475.585938"/>
    <use xlink:href="#DejaVuSans-20" x="516.699219"/>
    <use xlink:href="#DejaVuSans-42" x="548.486328"/>
    <use xlink:href="#DejaVuSans-42" x="617.089844"/>
    <use xlink:href="#DejaVuSans-49" x="685.693359"/>
    <use xlink:href="#DejaVuSans-20" x="715.185547"/>
    <use xlink:href="#DejaVuSans-73" x="746.972656"/>
    <use xlink:href="#DejaVuSans-77" x="799.072266"/>
    <use xlink:href="#DejaVuSans-65" x="880.859375"/>
    <use xlink:href="#DejaVuSans-65" x="942.382812"/>
    <use xlink:href="#DejaVuSans-70" x="1003.90625"/>
    <use xlink:href="#DejaVuSans-20" x="1067.382812"/>
    <use xlink:href="#DejaVuSans-61" x="1099.169922"/>
    <use xlink:href="#DejaVuSans-6e" x="1160.449219"/>
    <use xlink:href="#DejaVuSans-61" x="1223.828125"/>
    <use xlink:href="#DejaVuSans-6c" x="1285.107422"/>
    <use xlink:href="#DejaVuSans-79" x="1312.890625"/>
    <use xlink:href="#DejaVuSans-73" x="1372.070312"/>
    <use xlink:href="#DejaVuSans-69" x="1424.169922"/>
    <use xlink:href="#DejaVuSans-73" x="1451.953125"/>
    <use xlink:href="#DejaVuSans-20" x="1504.052734"/>
    <use xlink:href="#DejaVuSans-28" x="1535.839844"/>
    <use xlink:href="#DejaVuSans-53" x="1574.853516"/>
    <use xlink:href="#DejaVuSans-77" x="1638.330078"/>
    <use xlink:href="#DejaVuSans-65" x="1720.117188"/>
    <use xlink:href="#DejaVuSans-65" x="1781.640625"/>
    <use xlink:href="#DejaVuSans-70" x="1843.164062"/>
    <use xlink:href="#DejaVuSans-20" x="1906.640625"/>
    <use xlink:href="#DejaVuSans-3d" x="1938.427734"/>
    <use xlink:href="#DejaVuSans-20" x="2022.216797"/>
    <use xlink:href="#DejaVuSans-34" x="2054.003906"/>
    <use xlink:href="#DejaVuSans-37" x="2117.626953"/>
    <use xlink:href="#DejaVuSans-45" x="2181.25"/>
    <use xlink:href="#DejaVuSans-2d" x="2244.433594"/>
    <use xlink:href="#DejaVuSans-39" x="2280.517578"/>
    <use xlink:href="#DejaVuSans-29" x="2344.140625"/>
   </g>
  </g>
 </g>
 <defs>
  <clipPath id="p51774ac96f">
   <rect x="100.8" y="38.88" width="887.04" height="92.731034"/>
  </clipPath>
  <clipPath id="p77973aab90">
   <rect x="100.8" y="150.157241" width="887.04" height="92.731034"/>
  </clipPath>
  <clipPath id="pa54e0a454a">
   <rect x="100.8" y="261.434483" width="887.04" height="92.731034"/>
  </clipPath>
  <clipPath id="p4004c91ba2">
   <rect x="100.8" y="372.711724" width="887.04" height="92.731034"/>
  </clipPath>
  <clipPath id="pbf0d03f1e3">
   <rect x="100.8" y="483.988966" width="887.04" height="92.731034"/>
  </clipPath>
  <clipPath id="pa59b355b3b">
   <rect x="201.6" y="609.12" width="655.2" height="25.92"/>
  </clipPath>
  <clipPath id="pc7fa6f0efc">
   <path d="M 201.6 628.56 
L 856.8 628.56 
L 856.8 615.6 
L 201.6 615.6 
z
"/>
  </clipPath>
 </defs>
</svg>
