<?xml version="1.0" encoding="utf-8" standalone="no"?>
<!DOCTYPE svg PUBLIC "-//W3C//DTD SVG 1.1//EN"
  "http://www.w3.org/Graphics/SVG/1.1/DTD/svg11.dtd">
<svg xmlns:xlink="http://www.w3.org/1999/xlink" width="1008pt" height="648pt" viewBox="0 0 1008 648" xmlns="http://www.w3.org/2000/svg" version="1.1">
 <metadata>
  <rdf:RDF xmlns:dc="http://purl.org/dc/elements/1.1/" xmlns:cc="http://creativecommons.org/ns#" xmlns:rdf="http://www.w3.org/1999/02/22-rdf-syntax-ns#">
   <cc:Work>
    <dc:type rdf:resource="http://purl.org/dc/dcmitype/StillImage"/>
    <dc:date>2024-06-03T10:45:59.184682</dc:date>
    <dc:format>image/svg+xml</dc:format>
    <dc:creator>
     <cc:Agent>
      <dc:title>Matplotlib v3.9.0, https://matplotlib.org/</dc:title>
     </cc:Agent>
    </dc:creator>
   </cc:Work>
  </rdf:RDF>
 </metadata>
 <defs>
  <style type="text/css">*{stroke-linejoin: round; stroke-linecap: butt}</style>
 </defs>
 <g id="figure_1">
  <g id="patch_1">
   <path d="M 0 648 
L 1008 648 
L 1008 0 
L 0 0 
z
" style="fill: #ffffff"/>
  </g>
  <g id="axes_1">
   <g id="patch_2">
    <path d="M 100.8 131.611034 
L 987.84 131.611034 
L 987.84 38.88 
L 100.8 38.88 
z
" style="fill: #eeeeee"/>
   </g>
   <g id="matplotlib.axis_1">
    <g id="xtick_1">
     <g id="line2d_1">
      <path d="M 141.12 131.611034 
L 141.12 38.88 
" clip-path="url(#p0c6daa4aec)" style="fill: none; stroke-dasharray: 1.85,0.8; stroke-dashoffset: 0; stroke: #b2b2b2; stroke-width: 0.5"/>
     </g>
     <g id="line2d_2">
      <defs>
       <path id="mca4d3f1717" d="M 0 0 
L 0 -3.5 
" style="stroke: #000000; stroke-width: 0.8"/>
      </defs>
      <g>
       <use xlink:href="#mca4d3f1717" x="141.12" y="131.611034" style="stroke: #000000; stroke-width: 0.8"/>
      </g>
     </g>
    </g>
    <g id="xtick_2">
     <g id="line2d_3">
      <path d="M 302.4 131.611034 
L 302.4 38.88 
" clip-path="url(#p0c6daa4aec)" style="fill: none; stroke-dasharray: 1.85,0.8; stroke-dashoffset: 0; stroke: #b2b2b2; stroke-width: 0.5"/>
     </g>
     <g id="line2d_4">
      <g>
       <use xlink:href="#mca4d3f1717" x="302.4" y="131.611034" style="stroke: #000000; stroke-width: 0.8"/>
      </g>
     </g>
    </g>
    <g id="xtick_3">
     <g id="line2d_5">
      <path d="M 463.68 131.611034 
L 463.68 38.88 
" clip-path="url(#p0c6daa4aec)" style="fill: none; stroke-dasharray: 1.85,0.8; stroke-dashoffset: 0; stroke: #b2b2b2; stroke-width: 0.5"/>
     </g>
     <g id="line2d_6">
      <g>
       <use xlink:href="#mca4d3f1717" x="463.68" y="131.611034" style="stroke: #000000; stroke-width: 0.8"/>
      </g>
     </g>
    </g>
    <g id="xtick_4">
     <g id="line2d_7">
      <path d="M 624.96 131.611034 
L 624.96 38.88 
" clip-path="url(#p0c6daa4aec)" style="fill: none; stroke-dasharray: 1.85,0.8; stroke-dashoffset: 0; stroke: #b2b2b2; stroke-width: 0.5"/>
     </g>
     <g id="line2d_8">
      <g>
       <use xlink:href="#mca4d3f1717" x="624.96" y="131.611034" style="stroke: #000000; stroke-width: 0.8"/>
      </g>
     </g>
    </g>
    <g id="xtick_5">
     <g id="line2d_9">
      <path d="M 786.24 131.611034 
L 786.24 38.88 
" clip-path="url(#p0c6daa4aec)" style="fill: none; stroke-dasharray: 1.85,0.8; stroke-dashoffset: 0; stroke: #b2b2b2; stroke-width: 0.5"/>
     </g>
     <g id="line2d_10">
      <g>
       <use xlink:href="#mca4d3f1717" x="786.24" y="131.611034" style="stroke: #000000; stroke-width: 0.8"/>
      </g>
     </g>
    </g>
    <g id="xtick_6">
     <g id="line2d_11">
      <path d="M 947.52 131.611034 
L 947.52 38.88 
" clip-path="url(#p0c6daa4aec)" style="fill: none; stroke-dasharray: 1.85,0.8; stroke-dashoffset: 0; stroke: #b2b2b2; stroke-width: 0.5"/>
     </g>
     <g id="line2d_12">
      <g>
       <use xlink:href="#mca4d3f1717" x="947.52" y="131.611034" style="stroke: #000000; stroke-width: 0.8"/>
      </g>
     </g>
    </g>
   </g>
   <g id="matplotlib.axis_2">
    <g id="ytick_1">
     <g id="line2d_13">
      <path d="M 100.8 98.340394 
L 987.84 98.340394 
" clip-path="url(#p0c6daa4aec)" style="fill: none; stroke-dasharray: 1.85,0.8; stroke-dashoffset: 0; stroke: #b2b2b2; stroke-width: 0.5"/>
     </g>
     <g id="line2d_14">
      <defs>
       <path id="m2f94ea66b7" d="M 0 0 
L 3.5 0 
" style="stroke: #000000; stroke-width: 0.8"/>
      </defs>
      <g>
       <use xlink:href="#m2f94ea66b7" x="100.8" y="98.340394" style="stroke: #000000; stroke-width: 0.8"/>
      </g>
     </g>
     <g id="text_1">
      <!-- −200 V -->
      <g transform="translate(44.819688 103.6593) scale(0.14 -0.14)">
       <defs>
        <path id="DejaVuSans-2212" d="M 678 2272 
L 4684 2272 
L 4684 1741 
L 678 1741 
L 678 2272 
z
" transform="scale(0.015625)"/>
        <path id="DejaVuSans-32" d="M 1228 531 
L 3431 531 
L 3431 0 
L 469 0 
L 469 531 
Q 828 903 1448 1529 
Q 2069 2156 2228 2338 
Q 2531 2678 2651 2914 
Q 2772 3150 2772 3378 
Q 2772 3750 2511 3984 
Q 2250 4219 1831 4219 
Q 1534 4219 1204 4116 
Q 875 4013 500 3803 
L 500 4441 
Q 881 4594 1212 4672 
Q 1544 4750 1819 4750 
Q 2544 4750 2975 4387 
Q 3406 4025 3406 3419 
Q 3406 3131 3298 2873 
Q 3191 2616 2906 2266 
Q 2828 2175 2409 1742 
Q 1991 1309 1228 531 
z
" transform="scale(0.015625)"/>
        <path id="DejaVuSans-30" d="M 2034 4250 
Q 1547 4250 1301 3770 
Q 1056 3291 1056 2328 
Q 1056 1369 1301 889 
Q 1547 409 2034 409 
Q 2525 409 2770 889 
Q 3016 1369 3016 2328 
Q 3016 3291 2770 3770 
Q 2525 4250 2034 4250 
z
M 2034 4750 
Q 2819 4750 3233 4129 
Q 3647 3509 3647 2328 
Q 3647 1150 3233 529 
Q 2819 -91 2034 -91 
Q 1250 -91 836 529 
Q 422 1150 422 2328 
Q 422 3509 836 4129 
Q 1250 4750 2034 4750 
z
" transform="scale(0.015625)"/>
        <path id="DejaVuSans-20" transform="scale(0.015625)"/>
        <path id="DejaVuSans-56" d="M 1831 0 
L 50 4666 
L 709 4666 
L 2188 738 
L 3669 4666 
L 4325 4666 
L 2547 0 
L 1831 0 
z
" transform="scale(0.015625)"/>
       </defs>
       <use xlink:href="#DejaVuSans-2212"/>
       <use xlink:href="#DejaVuSans-32" x="83.789062"/>
       <use xlink:href="#DejaVuSans-30" x="147.412109"/>
       <use xlink:href="#DejaVuSans-30" x="211.035156"/>
       <use xlink:href="#DejaVuSans-20" x="274.658203"/>
       <use xlink:href="#DejaVuSans-56" x="306.445312"/>
      </g>
     </g>
    </g>
    <g id="ytick_2">
     <g id="line2d_15">
      <path d="M 100.8 45.027377 
L 987.84 45.027377 
" clip-path="url(#p0c6daa4aec)" style="fill: none; stroke-dasharray: 1.85,0.8; stroke-dashoffset: 0; stroke: #b2b2b2; stroke-width: 0.5"/>
     </g>
     <g id="line2d_16">
      <g>
       <use xlink:href="#m2f94ea66b7" x="100.8" y="45.027377" style="stroke: #000000; stroke-width: 0.8"/>
      </g>
     </g>
     <g id="text_2">
      <!-- 0 V -->
      <g transform="translate(74.36625 50.346284) scale(0.14 -0.14)">
       <use xlink:href="#DejaVuSans-30"/>
       <use xlink:href="#DejaVuSans-20" x="63.623047"/>
       <use xlink:href="#DejaVuSans-56" x="95.410156"/>
      </g>
     </g>
    </g>
    <g id="text_3">
     <g id="patch_3">
      <path d="M 34.8768 131.080205 
L 34.8768 39.41083 
L 11.247425 39.41083 
L 11.247425 131.080205 
z
" style="fill: #ffff00; opacity: 0.2; stroke: #eeeeee; stroke-width: 0.5; stroke-linejoin: miter"/>
     </g>
     <!-- VPULSE BBI -->
     <g transform="translate(26.925238 126.040205) rotate(-90) scale(0.14 -0.14)">
      <defs>
       <path id="DejaVuSans-50" d="M 1259 4147 
L 1259 2394 
L 2053 2394 
Q 2494 2394 2734 2622 
Q 2975 2850 2975 3272 
Q 2975 3691 2734 3919 
Q 2494 4147 2053 4147 
L 1259 4147 
z
M 628 4666 
L 2053 4666 
Q 2838 4666 3239 4311 
Q 3641 3956 3641 3272 
Q 3641 2581 3239 2228 
Q 2838 1875 2053 1875 
L 1259 1875 
L 1259 0 
L 628 0 
L 628 4666 
z
" transform="scale(0.015625)"/>
       <path id="DejaVuSans-55" d="M 556 4666 
L 1191 4666 
L 1191 1831 
Q 1191 1081 1462 751 
Q 1734 422 2344 422 
Q 2950 422 3222 751 
Q 3494 1081 3494 1831 
L 3494 4666 
L 4128 4666 
L 4128 1753 
Q 4128 841 3676 375 
Q 3225 -91 2344 -91 
Q 1459 -91 1007 375 
Q 556 841 556 1753 
L 556 4666 
z
" transform="scale(0.015625)"/>
       <path id="DejaVuSans-4c" d="M 628 4666 
L 1259 4666 
L 1259 531 
L 3531 531 
L 3531 0 
L 628 0 
L 628 4666 
z
" transform="scale(0.015625)"/>
       <path id="DejaVuSans-53" d="M 3425 4513 
L 3425 3897 
Q 3066 4069 2747 4153 
Q 2428 4238 2131 4238 
Q 1616 4238 1336 4038 
Q 1056 3838 1056 3469 
Q 1056 3159 1242 3001 
Q 1428 2844 1947 2747 
L 2328 2669 
Q 3034 2534 3370 2195 
Q 3706 1856 3706 1288 
Q 3706 609 3251 259 
Q 2797 -91 1919 -91 
Q 1588 -91 1214 -16 
Q 841 59 441 206 
L 441 856 
Q 825 641 1194 531 
Q 1563 422 1919 422 
Q 2459 422 2753 634 
Q 3047 847 3047 1241 
Q 3047 1584 2836 1778 
Q 2625 1972 2144 2069 
L 1759 2144 
Q 1053 2284 737 2584 
Q 422 2884 422 3419 
Q 422 4038 858 4394 
Q 1294 4750 2059 4750 
Q 2388 4750 2728 4690 
Q 3069 4631 3425 4513 
z
" transform="scale(0.015625)"/>
       <path id="DejaVuSans-45" d="M 628 4666 
L 3578 4666 
L 3578 4134 
L 1259 4134 
L 1259 2753 
L 3481 2753 
L 3481 2222 
L 1259 2222 
L 1259 531 
L 3634 531 
L 3634 0 
L 628 0 
L 628 4666 
z
" transform="scale(0.015625)"/>
       <path id="DejaVuSans-42" d="M 1259 2228 
L 1259 519 
L 2272 519 
Q 2781 519 3026 730 
Q 3272 941 3272 1375 
Q 3272 1813 3026 2020 
Q 2781 2228 2272 2228 
L 1259 2228 
z
M 1259 4147 
L 1259 2741 
L 2194 2741 
Q 2656 2741 2882 2914 
Q 3109 3088 3109 3444 
Q 3109 3797 2882 3972 
Q 2656 4147 2194 4147 
L 1259 4147 
z
M 628 4666 
L 2241 4666 
Q 2963 4666 3353 4366 
Q 3744 4066 3744 3513 
Q 3744 3084 3544 2831 
Q 3344 2578 2956 2516 
Q 3422 2416 3680 2098 
Q 3938 1781 3938 1306 
Q 3938 681 3513 340 
Q 3088 0 2303 0 
L 628 0 
L 628 4666 
z
" transform="scale(0.015625)"/>
       <path id="DejaVuSans-49" d="M 628 4666 
L 1259 4666 
L 1259 0 
L 628 0 
L 628 4666 
z
" transform="scale(0.015625)"/>
      </defs>
      <use xlink:href="#DejaVuSans-56"/>
      <use xlink:href="#DejaVuSans-50" x="68.408203"/>
      <use xlink:href="#DejaVuSans-55" x="128.710938"/>
      <use xlink:href="#DejaVuSans-4c" x="201.904297"/>
      <use xlink:href="#DejaVuSans-53" x="257.617188"/>
      <use xlink:href="#DejaVuSans-45" x="321.09375"/>
      <use xlink:href="#DejaVuSans-20" x="384.277344"/>
      <use xlink:href="#DejaVuSans-42" x="416.064453"/>
      <use xlink:href="#DejaVuSans-42" x="484.667969"/>
      <use xlink:href="#DejaVuSans-49" x="553.271484"/>
     </g>
    </g>
   </g>
   <g id="line2d_17">
    <path d="M 141.12 45.027377 
L 631.443456 45.136282 
L 631.927296 46.425538 
L 640.152576 69.006772 
L 647.571456 89.863624 
L 649.184256 94.440546 
L 650.990592 99.673219 
L 654.47424 110.807642 
L 656.08704 115.949683 
L 657.345024 119.585631 
L 657.796608 119.80688 
L 658.861056 120.297359 
L 659.344896 120.526605 
L 660.409344 121.017085 
L 660.989952 121.272988 
L 661.860864 121.656841 
L 662.441472 121.912744 
L 663.280128 122.269941 
L 664.860672 122.936354 
L 665.505792 123.202919 
L 666.602496 123.629423 
L 667.344384 123.922644 
L 668.441088 124.349149 
L 669.344256 124.677024 
L 670.021632 124.943589 
L 670.828032 125.25547 
L 672.182784 125.804594 
L 674.827776 126.790885 
L 675.44064 127.022796 
L 677.376 127.395987 
L 695.858688 127.289361 
L 696.08448 126.801547 
L 714.373632 75.087922 
L 718.115328 63.292417 
L 721.824768 51.617666 
L 726.437376 49.3412 
L 731.791872 46.984578 
L 740.500992 43.484472 
L 741.371904 43.268927 
L 755.661312 43.108189 
L 762.467328 43.184799 
L 777.821184 43.746186 
L 805.5936 44.46146 
L 831.23712 44.774399 
L 866.847744 44.945888 
L 914.876928 44.953885 
L 947.52 44.953885 
L 947.52 44.953885 
" clip-path="url(#p0c6daa4aec)" style="fill: none; stroke: #ff0000; stroke-width: 2; stroke-linecap: square"/>
   </g>
   <g id="patch_4">
    <path d="M 100.8 131.611034 
L 100.8 38.88 
" style="fill: none; stroke: #bcbcbc; stroke-width: 0.8; stroke-linejoin: miter; stroke-linecap: square"/>
   </g>
   <g id="patch_5">
    <path d="M 987.84 131.611034 
L 987.84 38.88 
" style="fill: none; stroke: #bcbcbc; stroke-width: 0.8; stroke-linejoin: miter; stroke-linecap: square"/>
   </g>
   <g id="patch_6">
    <path d="M 100.8 131.611034 
L 987.84 131.611034 
" style="fill: none; stroke: #bcbcbc; stroke-width: 0.8; stroke-linejoin: miter; stroke-linecap: square"/>
   </g>
   <g id="patch_7">
    <path d="M 100.8 38.88 
L 987.84 38.88 
" style="fill: none; stroke: #bcbcbc; stroke-width: 0.8; stroke-linejoin: miter; stroke-linecap: square"/>
   </g>
  </g>
  <g id="axes_2">
   <g id="patch_8">
    <path d="M 100.8 242.888276 
L 987.84 242.888276 
L 987.84 150.157241 
L 100.8 150.157241 
z
" style="fill: #eeeeee"/>
   </g>
   <g id="matplotlib.axis_3">
    <g id="xtick_7">
     <g id="line2d_18">
      <path d="M 141.12 242.888276 
L 141.12 150.157241 
" clip-path="url(#p10df8a2bd3)" style="fill: none; stroke-dasharray: 1.85,0.8; stroke-dashoffset: 0; stroke: #b2b2b2; stroke-width: 0.5"/>
     </g>
     <g id="line2d_19">
      <g>
       <use xlink:href="#mca4d3f1717" x="141.12" y="242.888276" style="stroke: #000000; stroke-width: 0.8"/>
      </g>
     </g>
    </g>
    <g id="xtick_8">
     <g id="line2d_20">
      <path d="M 302.4 242.888276 
L 302.4 150.157241 
" clip-path="url(#p10df8a2bd3)" style="fill: none; stroke-dasharray: 1.85,0.8; stroke-dashoffset: 0; stroke: #b2b2b2; stroke-width: 0.5"/>
     </g>
     <g id="line2d_21">
      <g>
       <use xlink:href="#mca4d3f1717" x="302.4" y="242.888276" style="stroke: #000000; stroke-width: 0.8"/>
      </g>
     </g>
    </g>
    <g id="xtick_9">
     <g id="line2d_22">
      <path d="M 463.68 242.888276 
L 463.68 150.157241 
" clip-path="url(#p10df8a2bd3)" style="fill: none; stroke-dasharray: 1.85,0.8; stroke-dashoffset: 0; stroke: #b2b2b2; stroke-width: 0.5"/>
     </g>
     <g id="line2d_23">
      <g>
       <use xlink:href="#mca4d3f1717" x="463.68" y="242.888276" style="stroke: #000000; stroke-width: 0.8"/>
      </g>
     </g>
    </g>
    <g id="xtick_10">
     <g id="line2d_24">
      <path d="M 624.96 242.888276 
L 624.96 150.157241 
" clip-path="url(#p10df8a2bd3)" style="fill: none; stroke-dasharray: 1.85,0.8; stroke-dashoffset: 0; stroke: #b2b2b2; stroke-width: 0.5"/>
     </g>
     <g id="line2d_25">
      <g>
       <use xlink:href="#mca4d3f1717" x="624.96" y="242.888276" style="stroke: #000000; stroke-width: 0.8"/>
      </g>
     </g>
    </g>
    <g id="xtick_11">
     <g id="line2d_26">
      <path d="M 786.24 242.888276 
L 786.24 150.157241 
" clip-path="url(#p10df8a2bd3)" style="fill: none; stroke-dasharray: 1.85,0.8; stroke-dashoffset: 0; stroke: #b2b2b2; stroke-width: 0.5"/>
     </g>
     <g id="line2d_27">
      <g>
       <use xlink:href="#mca4d3f1717" x="786.24" y="242.888276" style="stroke: #000000; stroke-width: 0.8"/>
      </g>
     </g>
    </g>
    <g id="xtick_12">
     <g id="line2d_28">
      <path d="M 947.52 242.888276 
L 947.52 150.157241 
" clip-path="url(#p10df8a2bd3)" style="fill: none; stroke-dasharray: 1.85,0.8; stroke-dashoffset: 0; stroke: #b2b2b2; stroke-width: 0.5"/>
     </g>
     <g id="line2d_29">
      <g>
       <use xlink:href="#mca4d3f1717" x="947.52" y="242.888276" style="stroke: #000000; stroke-width: 0.8"/>
      </g>
     </g>
    </g>
   </g>
   <g id="matplotlib.axis_4">
    <g id="ytick_3">
     <g id="line2d_30">
      <path d="M 100.8 219.126111 
L 987.84 219.126111 
" clip-path="url(#p10df8a2bd3)" style="fill: none; stroke-dasharray: 1.85,0.8; stroke-dashoffset: 0; stroke: #b2b2b2; stroke-width: 0.5"/>
     </g>
     <g id="line2d_31">
      <g>
       <use xlink:href="#m2f94ea66b7" x="100.8" y="219.126111" style="stroke: #000000; stroke-width: 0.8"/>
      </g>
     </g>
     <g id="text_4">
      <!-- 0 V -->
      <g transform="translate(74.36625 224.445017) scale(0.14 -0.14)">
       <use xlink:href="#DejaVuSans-30"/>
       <use xlink:href="#DejaVuSans-20" x="63.623047"/>
       <use xlink:href="#DejaVuSans-56" x="95.410156"/>
      </g>
     </g>
    </g>
    <g id="ytick_4">
     <g id="line2d_32">
      <path d="M 100.8 185.145305 
L 987.84 185.145305 
" clip-path="url(#p10df8a2bd3)" style="fill: none; stroke-dasharray: 1.85,0.8; stroke-dashoffset: 0; stroke: #b2b2b2; stroke-width: 0.5"/>
     </g>
     <g id="line2d_33">
      <g>
       <use xlink:href="#m2f94ea66b7" x="100.8" y="185.145305" style="stroke: #000000; stroke-width: 0.8"/>
      </g>
     </g>
     <g id="text_5">
      <!-- 1 V -->
      <g transform="translate(74.36625 190.464212) scale(0.14 -0.14)">
       <defs>
        <path id="DejaVuSans-31" d="M 794 531 
L 1825 531 
L 1825 4091 
L 703 3866 
L 703 4441 
L 1819 4666 
L 2450 4666 
L 2450 531 
L 3481 531 
L 3481 0 
L 794 0 
L 794 531 
z
" transform="scale(0.015625)"/>
       </defs>
       <use xlink:href="#DejaVuSans-31"/>
       <use xlink:href="#DejaVuSans-20" x="63.623047"/>
       <use xlink:href="#DejaVuSans-56" x="95.410156"/>
      </g>
     </g>
    </g>
    <g id="ytick_5">
     <g id="line2d_34">
      <path d="M 100.8 151.1645 
L 987.84 151.1645 
" clip-path="url(#p10df8a2bd3)" style="fill: none; stroke-dasharray: 1.85,0.8; stroke-dashoffset: 0; stroke: #b2b2b2; stroke-width: 0.5"/>
     </g>
     <g id="line2d_35">
      <g>
       <use xlink:href="#m2f94ea66b7" x="100.8" y="151.1645" style="stroke: #000000; stroke-width: 0.8"/>
      </g>
     </g>
     <g id="text_6">
      <!-- 2 V -->
      <g transform="translate(74.36625 156.483407) scale(0.14 -0.14)">
       <use xlink:href="#DejaVuSans-32"/>
       <use xlink:href="#DejaVuSans-20" x="63.623047"/>
       <use xlink:href="#DejaVuSans-56" x="95.410156"/>
      </g>
     </g>
    </g>
    <g id="text_7">
     <g id="patch_9">
      <path d="M 34.8768 224.531509 
L 34.8768 168.514009 
L 11.247425 168.514009 
L 11.247425 224.531509 
z
" style="fill: #ffff00; opacity: 0.2; stroke: #eeeeee; stroke-width: 0.5; stroke-linejoin: miter"/>
     </g>
     <!-- DFF IN -->
     <g transform="translate(26.925238 219.491509) rotate(-90) scale(0.14 -0.14)">
      <defs>
       <path id="DejaVuSans-44" d="M 1259 4147 
L 1259 519 
L 2022 519 
Q 2988 519 3436 956 
Q 3884 1394 3884 2338 
Q 3884 3275 3436 3711 
Q 2988 4147 2022 4147 
L 1259 4147 
z
M 628 4666 
L 1925 4666 
Q 3281 4666 3915 4102 
Q 4550 3538 4550 2338 
Q 4550 1131 3912 565 
Q 3275 0 1925 0 
L 628 0 
L 628 4666 
z
" transform="scale(0.015625)"/>
       <path id="DejaVuSans-46" d="M 628 4666 
L 3309 4666 
L 3309 4134 
L 1259 4134 
L 1259 2759 
L 3109 2759 
L 3109 2228 
L 1259 2228 
L 1259 0 
L 628 0 
L 628 4666 
z
" transform="scale(0.015625)"/>
       <path id="DejaVuSans-4e" d="M 628 4666 
L 1478 4666 
L 3547 763 
L 3547 4666 
L 4159 4666 
L 4159 0 
L 3309 0 
L 1241 3903 
L 1241 0 
L 628 0 
L 628 4666 
z
" transform="scale(0.015625)"/>
      </defs>
      <use xlink:href="#DejaVuSans-44"/>
      <use xlink:href="#DejaVuSans-46" x="77.001953"/>
      <use xlink:href="#DejaVuSans-46" x="134.521484"/>
      <use xlink:href="#DejaVuSans-20" x="192.041016"/>
      <use xlink:href="#DejaVuSans-49" x="223.828125"/>
      <use xlink:href="#DejaVuSans-4e" x="253.320312"/>
     </g>
    </g>
   </g>
   <g id="line2d_36">
    <path d="M 141.12 219.076485 
L 221.953536 219.029887 
L 224.437248 200.09618 
L 225.404928 194.336434 
L 228.243456 181.672467 
L 229.598208 180.401585 
L 231.178752 179.528278 
L 236.533248 179.072936 
L 243.5328 178.964197 
L 244.952064 178.92342 
L 248.145408 178.814681 
L 249.790464 178.750118 
L 251.887104 178.641379 
L 254.241792 178.294775 
L 254.757888 177.757878 
L 255.499776 177.41807 
L 256.338432 177.431663 
L 259.789824 178.046715 
L 262.467072 178.220017 
L 263.886336 178.267591 
L 264.144384 183.507431 
L 264.434688 187.072697 
L 265.176576 191.822194 
L 267.144192 209.158181 
L 268.402176 215.667204 
L 269.047296 216.950523 
L 270.46656 218.713448 
L 273.724416 219.127945 
L 282.530304 219.080525 
L 297.045504 219.070399 
L 305.851392 219.075669 
L 347.751936 219.031583 
L 350.235648 200.136277 
L 351.622656 191.497337 
L 352.654848 186.205167 
L 354.97728 179.208859 
L 358.493184 178.209823 
L 360.202752 178.281183 
L 363.009024 178.389921 
L 364.33152 178.420504 
L 375.169536 178.491864 
L 375.717888 179.484103 
L 376.169472 180.235079 
L 377.008128 181.142367 
L 377.524224 181.091395 
L 378.427392 180.799161 
L 380.427264 179.660804 
L 381.58848 179.287015 
L 387.168768 178.807885 
L 389.587968 178.699147 
L 391.684608 178.58701 
L 394.232832 178.478272 
L 395.61984 178.440893 
L 415.360512 178.355941 
L 416.489472 177.424867 
L 417.037824 177.360303 
L 417.908736 177.469042 
L 419.16672 177.751082 
L 420.908544 178.005938 
L 423.940608 178.216619 
L 455.712768 178.32196 
L 456.809472 179.212257 
L 457.261056 179.283617 
L 458.68032 179.327792 
L 462.680064 178.797691 
L 464.131584 178.604 
L 467.486208 178.359339 
L 496.065024 178.277785 
L 496.58112 177.73749 
L 497.258496 177.431663 
L 498.3552 177.41807 
L 502.06464 178.087492 
L 504.193536 178.203027 
L 536.320512 178.304969 
L 536.481792 178.48167 
L 536.965632 178.970993 
L 537.610752 179.253034 
L 539.32032 179.327792 
L 544.352256 178.688953 
L 545.545728 178.549631 
L 548.771328 178.318562 
L 576.73728 178.23361 
L 577.22112 177.73749 
L 577.898496 177.431663 
L 578.9952 177.41807 
L 582.70464 178.087492 
L 584.833536 178.203027 
L 616.960512 178.304969 
L 617.121792 178.48167 
L 617.605632 178.970993 
L 618.121728 179.222451 
L 618.541056 179.287015 
L 619.96032 179.33119 
L 623.02464 178.899633 
L 625.056768 178.583612 
L 627.3792 178.447689 
L 631.540224 178.553029 
L 633.959424 182.420045 
L 635.830272 184.961809 
L 640.60416 191.685931 
L 641.055744 193.007444 
L 642.410496 197.985632 
L 642.797568 199.431176 
L 642.991104 200.251812 
L 643.313664 201.478519 
L 643.539456 202.377312 
L 644.378112 206.303114 
L 644.603904 207.451325 
L 645.474816 211.202466 
L 646.89408 216.402039 
L 647.087616 217.036393 
L 648.152064 220.759602 
L 648.442368 221.550777 
L 648.926208 223.107641 
L 649.248768 223.674441 
L 650.055168 225.682027 
L 650.345472 226.028292 
L 650.44224 226.159797 
L 652.667904 230.778129 
L 653.151744 231.418327 
L 653.571072 232.38576 
L 654.022656 233.266203 
L 654.506496 234.048101 
L 654.95808 234.833398 
L 655.44192 235.765152 
L 655.861248 236.371709 
L 656.08704 236.773362 
L 656.312832 237.212734 
L 656.861184 238.225702 
L 656.990208 238.292304 
L 657.248256 238.646724 
L 657.764352 238.215507 
L 658.086912 237.826427 
L 658.50624 237.142394 
L 658.8288 236.509331 
L 659.183616 236.024085 
L 659.409408 235.812045 
L 660.086784 235.047137 
L 660.635136 234.154461 
L 660.828672 234.057616 
L 661.377024 233.582904 
L 662.570496 232.478188 
L 662.925312 231.859738 
L 663.312384 231.603522 
L 663.441408 231.523328 
L 663.731712 231.281724 
L 664.505856 230.81177 
L 665.538048 229.613606 
L 665.860608 229.205837 
L 666.054144 229.197681 
L 666.312192 229.086904 
L 666.667008 228.897631 
L 667.53792 228.198646 
L 668.473344 227.262135 
L 668.763648 226.764996 
L 669.15072 226.599169 
L 669.376512 226.58048 
L 669.79584 226.303536 
L 671.860224 224.445466 
L 672.150528 224.276581 
L 672.69888 224.068279 
L 674.731008 222.52239 
L 675.827712 221.605282 
L 677.085696 220.467435 
L 678.1824 218.994398 
L 678.892032 218.041647 
L 679.730688 216.892246 
L 680.214528 216.151975 
L 681.214464 214.832296 
L 681.666048 214.2237 
L 682.891776 212.651748 
L 683.085312 212.409804 
L 685.44 209.825224 
L 685.76256 209.331483 
L 686.2464 207.978368 
L 687.343104 204.608831 
L 688.536576 201.682064 
L 689.084928 200.801961 
L 692.407296 196.18329 
L 693.02016 195.551247 
L 694.47168 193.844392 
L 695.568384 192.752248 
L 696.052224 192.00569 
L 696.600576 190.081017 
L 697.794048 185.947592 
L 698.66496 184.006948 
L 699.245568 183.171021 
L 700.374528 182.076839 
L 702.567936 179.480705 
L 705.696768 175.691845 
L 711.438336 167.420918 
L 721.857024 154.402871 
L 723.308544 154.746077 
L 724.243968 154.752873 
L 725.340672 154.875204 
L 725.76 154.93637 
L 726.534144 155.123264 
L 728.211456 155.53783 
L 730.75968 156.186863 
L 737.952768 158.412606 
L 738.372096 157.464542 
L 738.726912 157.145122 
L 739.081728 157.145122 
L 739.4688 157.321822 
L 743.307264 160.414076 
L 748.274688 162.911665 
L 749.46816 163.404386 
L 753.467904 164.970902 
L 756.56448 166.065083 
L 757.951488 166.534019 
L 758.532096 166.703923 
L 759.725568 167.087906 
L 767.015424 169.27627 
L 768.886272 169.782583 
L 769.595904 169.96608 
L 773.66016 170.931135 
L 774.30528 171.087446 
L 774.853632 171.192787 
L 778.305024 171.977744 
L 778.724352 172.735515 
L 779.272704 173.167072 
L 780.240384 173.360762 
L 780.91776 173.255422 
L 782.433792 172.891827 
L 784.594944 173.000566 
L 787.433472 173.404937 
L 788.110848 173.503482 
L 789.78816 173.748143 
L 790.562304 173.853484 
L 792.04608 174.057369 
L 792.916992 174.166107 
L 794.207232 174.329215 
L 795.013632 174.434556 
L 796.142592 174.563683 
L 797.142528 174.669023 
L 798.432768 174.828733 
L 799.400448 174.937472 
L 807.561216 175.688447 
L 808.948224 175.797186 
L 809.819136 175.868546 
L 813.044736 176.103013 
L 813.625344 176.147188 
L 816.431616 176.334083 
L 817.076736 176.371462 
L 818.592768 176.425831 
L 819.173376 175.803982 
L 819.721728 175.583107 
L 821.334528 175.86175 
L 822.431232 176.208354 
L 825.366528 176.714668 
L 826.495488 176.81661 
L 826.979328 176.853989 
L 829.430784 177.006903 
L 830.10816 177.044282 
L 831.817728 177.115641 
L 834.365952 177.22438 
L 835.720704 177.258361 
L 839.010816 177.367099 
L 840.397824 177.407876 
L 841.204224 177.431663 
L 845.720064 177.540401 
L 847.04256 177.570984 
L 851.88096 177.676325 
L 852.52608 177.703509 
L 858.880512 177.802053 
L 859.041792 177.982152 
L 859.525632 178.505456 
L 859.977216 178.753516 
L 860.75136 178.886041 
L 861.590016 178.777303 
L 863.6544 178.237008 
L 866.299392 178.067104 
L 899.232768 177.982152 
L 899.813376 177.363701 
L 900.458496 177.078262 
L 901.5552 177.068068 
L 905.522688 177.791859 
L 907.2 177.859821 
L 939.520512 177.968559 
L 939.681792 178.152056 
L 940.165632 178.637981 
L 940.649472 178.858857 
L 941.55264 179.035557 
L 943.455744 178.926818 
L 946.423296 178.413708 
L 947.52 178.240406 
L 947.52 178.240406 
" clip-path="url(#p10df8a2bd3)" style="fill: none; stroke: #008000; stroke-width: 2; stroke-linecap: square"/>
   </g>
   <g id="patch_10">
    <path d="M 100.8 242.888276 
L 100.8 150.157241 
" style="fill: none; stroke: #bcbcbc; stroke-width: 0.8; stroke-linejoin: miter; stroke-linecap: square"/>
   </g>
   <g id="patch_11">
    <path d="M 987.84 242.888276 
L 987.84 150.157241 
" style="fill: none; stroke: #bcbcbc; stroke-width: 0.8; stroke-linejoin: miter; stroke-linecap: square"/>
   </g>
   <g id="patch_12">
    <path d="M 100.8 242.888276 
L 987.84 242.888276 
" style="fill: none; stroke: #bcbcbc; stroke-width: 0.8; stroke-linejoin: miter; stroke-linecap: square"/>
   </g>
   <g id="patch_13">
    <path d="M 100.8 150.157241 
L 987.84 150.157241 
" style="fill: none; stroke: #bcbcbc; stroke-width: 0.8; stroke-linejoin: miter; stroke-linecap: square"/>
   </g>
  </g>
  <g id="axes_3">
   <g id="patch_14">
    <path d="M 100.8 354.165517 
L 987.84 354.165517 
L 987.84 261.434483 
L 100.8 261.434483 
z
" style="fill: #eeeeee"/>
   </g>
   <g id="matplotlib.axis_5">
    <g id="xtick_13">
     <g id="line2d_37">
      <path d="M 141.12 354.165517 
L 141.12 261.434483 
" clip-path="url(#pe8f0c45efd)" style="fill: none; stroke-dasharray: 1.85,0.8; stroke-dashoffset: 0; stroke: #b2b2b2; stroke-width: 0.5"/>
     </g>
     <g id="line2d_38">
      <g>
       <use xlink:href="#mca4d3f1717" x="141.12" y="354.165517" style="stroke: #000000; stroke-width: 0.8"/>
      </g>
     </g>
    </g>
    <g id="xtick_14">
     <g id="line2d_39">
      <path d="M 302.4 354.165517 
L 302.4 261.434483 
" clip-path="url(#pe8f0c45efd)" style="fill: none; stroke-dasharray: 1.85,0.8; stroke-dashoffset: 0; stroke: #b2b2b2; stroke-width: 0.5"/>
     </g>
     <g id="line2d_40">
      <g>
       <use xlink:href="#mca4d3f1717" x="302.4" y="354.165517" style="stroke: #000000; stroke-width: 0.8"/>
      </g>
     </g>
    </g>
    <g id="xtick_15">
     <g id="line2d_41">
      <path d="M 463.68 354.165517 
L 463.68 261.434483 
" clip-path="url(#pe8f0c45efd)" style="fill: none; stroke-dasharray: 1.85,0.8; stroke-dashoffset: 0; stroke: #b2b2b2; stroke-width: 0.5"/>
     </g>
     <g id="line2d_42">
      <g>
       <use xlink:href="#mca4d3f1717" x="463.68" y="354.165517" style="stroke: #000000; stroke-width: 0.8"/>
      </g>
     </g>
    </g>
    <g id="xtick_16">
     <g id="line2d_43">
      <path d="M 624.96 354.165517 
L 624.96 261.434483 
" clip-path="url(#pe8f0c45efd)" style="fill: none; stroke-dasharray: 1.85,0.8; stroke-dashoffset: 0; stroke: #b2b2b2; stroke-width: 0.5"/>
     </g>
     <g id="line2d_44">
      <g>
       <use xlink:href="#mca4d3f1717" x="624.96" y="354.165517" style="stroke: #000000; stroke-width: 0.8"/>
      </g>
     </g>
    </g>
    <g id="xtick_17">
     <g id="line2d_45">
      <path d="M 786.24 354.165517 
L 786.24 261.434483 
" clip-path="url(#pe8f0c45efd)" style="fill: none; stroke-dasharray: 1.85,0.8; stroke-dashoffset: 0; stroke: #b2b2b2; stroke-width: 0.5"/>
     </g>
     <g id="line2d_46">
      <g>
       <use xlink:href="#mca4d3f1717" x="786.24" y="354.165517" style="stroke: #000000; stroke-width: 0.8"/>
      </g>
     </g>
    </g>
    <g id="xtick_18">
     <g id="line2d_47">
      <path d="M 947.52 354.165517 
L 947.52 261.434483 
" clip-path="url(#pe8f0c45efd)" style="fill: none; stroke-dasharray: 1.85,0.8; stroke-dashoffset: 0; stroke: #b2b2b2; stroke-width: 0.5"/>
     </g>
     <g id="line2d_48">
      <g>
       <use xlink:href="#mca4d3f1717" x="947.52" y="354.165517" style="stroke: #000000; stroke-width: 0.8"/>
      </g>
     </g>
    </g>
   </g>
   <g id="matplotlib.axis_6">
    <g id="ytick_6">
     <g id="line2d_49">
      <path d="M 100.8 343.185747 
L 987.84 343.185747 
" clip-path="url(#pe8f0c45efd)" style="fill: none; stroke-dasharray: 1.85,0.8; stroke-dashoffset: 0; stroke: #b2b2b2; stroke-width: 0.5"/>
     </g>
     <g id="line2d_50">
      <g>
       <use xlink:href="#m2f94ea66b7" x="100.8" y="343.185747" style="stroke: #000000; stroke-width: 0.8"/>
      </g>
     </g>
     <g id="text_8">
      <!-- 0 V -->
      <g transform="translate(74.36625 348.504653) scale(0.14 -0.14)">
       <use xlink:href="#DejaVuSans-30"/>
       <use xlink:href="#DejaVuSans-20" x="63.623047"/>
       <use xlink:href="#DejaVuSans-56" x="95.410156"/>
      </g>
     </g>
    </g>
    <g id="ytick_7">
     <g id="line2d_51">
      <path d="M 100.8 299.660308 
L 987.84 299.660308 
" clip-path="url(#pe8f0c45efd)" style="fill: none; stroke-dasharray: 1.85,0.8; stroke-dashoffset: 0; stroke: #b2b2b2; stroke-width: 0.5"/>
     </g>
     <g id="line2d_52">
      <g>
       <use xlink:href="#m2f94ea66b7" x="100.8" y="299.660308" style="stroke: #000000; stroke-width: 0.8"/>
      </g>
     </g>
     <g id="text_9">
      <!-- 1 V -->
      <g transform="translate(74.36625 304.979214) scale(0.14 -0.14)">
       <use xlink:href="#DejaVuSans-31"/>
       <use xlink:href="#DejaVuSans-20" x="63.623047"/>
       <use xlink:href="#DejaVuSans-56" x="95.410156"/>
      </g>
     </g>
    </g>
    <g id="text_10">
     <g id="patch_15">
      <path d="M 34.8768 342.395313 
L 34.8768 273.204688 
L 11.247425 273.204688 
L 11.247425 342.395313 
z
" style="fill: #ffff00; opacity: 0.2; stroke: #eeeeee; stroke-width: 0.5; stroke-linejoin: miter"/>
     </g>
     <!-- CLK BUF -->
     <g transform="translate(26.925238 337.355313) rotate(-90) scale(0.14 -0.14)">
      <defs>
       <path id="DejaVuSans-43" d="M 4122 4306 
L 4122 3641 
Q 3803 3938 3442 4084 
Q 3081 4231 2675 4231 
Q 1875 4231 1450 3742 
Q 1025 3253 1025 2328 
Q 1025 1406 1450 917 
Q 1875 428 2675 428 
Q 3081 428 3442 575 
Q 3803 722 4122 1019 
L 4122 359 
Q 3791 134 3420 21 
Q 3050 -91 2638 -91 
Q 1578 -91 968 557 
Q 359 1206 359 2328 
Q 359 3453 968 4101 
Q 1578 4750 2638 4750 
Q 3056 4750 3426 4639 
Q 3797 4528 4122 4306 
z
" transform="scale(0.015625)"/>
       <path id="DejaVuSans-4b" d="M 628 4666 
L 1259 4666 
L 1259 2694 
L 3353 4666 
L 4166 4666 
L 1850 2491 
L 4331 0 
L 3500 0 
L 1259 2247 
L 1259 0 
L 628 0 
L 628 4666 
z
" transform="scale(0.015625)"/>
      </defs>
      <use xlink:href="#DejaVuSans-43"/>
      <use xlink:href="#DejaVuSans-4c" x="69.824219"/>
      <use xlink:href="#DejaVuSans-4b" x="125.537109"/>
      <use xlink:href="#DejaVuSans-20" x="191.113281"/>
      <use xlink:href="#DejaVuSans-42" x="222.900391"/>
      <use xlink:href="#DejaVuSans-55" x="291.503906"/>
      <use xlink:href="#DejaVuSans-46" x="364.697266"/>
     </g>
    </g>
   </g>
   <g id="line2d_53">
    <path d="M 141.12 343.184596 
L 173.376 343.184596 
L 173.601792 290.95522 
L 213.696 290.95522 
L 213.760512 332.617335 
L 213.825024 343.165862 
L 213.889536 343.103227 
L 213.954048 343.277106 
L 214.01856 343.190463 
L 215.341056 343.181331 
L 223.340544 343.184561 
L 254.016 343.184566 
L 254.17728 290.794176 
L 254.241792 291.072739 
L 254.403072 290.946515 
L 254.854656 290.95522 
L 294.336 290.95522 
L 294.400512 332.580773 
L 294.465024 343.510538 
L 294.529536 342.753791 
L 294.626304 343.254147 
L 294.65856 343.223174 
L 294.852096 343.146672 
L 295.206912 343.201585 
L 295.497216 343.184257 
L 320.398848 343.184595 
L 334.656 343.184598 
L 334.81728 290.876874 
L 334.881792 290.97263 
L 335.204352 290.959572 
L 336.043008 290.95522 
L 374.976 290.95522 
L 375.040512 332.621252 
L 375.105024 343.186453 
L 375.169536 343.097708 
L 375.234048 343.27063 
L 375.29856 343.190608 
L 376.685568 343.180954 
L 384.943104 343.184541 
L 415.296 343.184597 
L 415.45728 290.794176 
L 415.521792 291.072739 
L 415.683072 290.942162 
L 416.58624 290.95522 
L 455.616 290.95522 
L 455.680512 332.583385 
L 455.745024 343.5159 
L 455.809536 342.552756 
L 455.906304 343.824352 
L 455.93856 343.256541 
L 456.132096 343.159606 
L 456.519168 343.185046 
L 489.613824 343.184594 
L 495.936 343.184596 
L 496.09728 290.868169 
L 496.161792 290.97263 
L 497.097216 290.95522 
L 536.256 290.95522 
L 536.320512 332.583385 
L 536.385024 343.515852 
L 536.449536 342.552843 
L 536.546304 343.824265 
L 536.57856 343.256536 
L 536.772096 343.159608 
L 537.159168 343.185047 
L 570.253824 343.184594 
L 576.576 343.184596 
L 576.73728 290.868169 
L 576.801792 290.97263 
L 577.737216 290.95522 
L 616.896 290.95522 
L 616.928256 294.776753 
L 617.05728 343.081333 
L 617.186304 343.243513 
L 617.250816 343.198766 
L 617.476608 343.172145 
L 617.734656 343.201185 
L 618.02496 343.184607 
L 631.378944 343.195475 
L 631.669248 343.492697 
L 632.346624 344.05212 
L 633.153024 344.412206 
L 634.281984 344.637668 
L 636.056064 344.720105 
L 640.152576 344.626351 
L 649.184256 344.386962 
L 649.700352 344.46818 
L 650.216448 344.5867 
L 650.44224 344.675144 
L 650.668032 344.733772 
L 651.119616 344.989354 
L 651.538944 345.228874 
L 654.054912 346.756878 
L 654.409728 346.994919 
L 654.861312 347.275179 
L 657.216 348.698243 
L 657.248256 349.95047 
L 657.441792 325.813003 
L 657.635328 325.573613 
L 657.764352 325.549239 
L 658.764288 325.118337 
L 658.893312 325.006912 
L 658.925568 325.066977 
L 658.99008 324.959469 
L 659.15136 324.98689 
L 659.280384 324.86676 
L 659.441664 324.830634 
L 667.989504 321.71073 
L 668.02176 321.748597 
L 668.054016 321.700284 
L 668.18304 321.572319 
L 668.247552 321.653712 
L 668.279808 321.514866 
L 668.376576 321.561003 
L 668.537856 321.510948 
L 668.860416 321.409099 
L 677.117952 318.394527 
L 677.634048 318.10813 
L 680.311296 316.426307 
L 690.052608 310.378882 
L 693.149184 308.75016 
L 696.019968 307.215889 
L 697.439232 304.504689 
L 697.536 304.300555 
L 697.568256 303.009155 
L 697.729536 341.446949 
L 697.85856 341.491475 
L 698.955264 341.316547 
L 700.858368 341.273065 
L 705.535488 341.446775 
L 709.599744 341.61574 
L 716.147712 341.743575 
L 718.5024 341.742704 
L 721.760256 341.905837 
L 722.437632 342.594715 
L 723.17952 343.026287 
L 724.114944 343.316279 
L 725.469696 343.496314 
L 727.921152 343.576827 
L 736.823808 343.534442 
L 737.856 343.52857 
L 738.049536 265.64953 
L 738.114048 265.679998 
L 742.178304 267.442778 
L 742.920192 267.904148 
L 743.694336 268.335049 
L 745.92 269.658223 
L 746.339328 269.91067 
L 747.145728 270.35463 
L 753.306624 273.553749 
L 755.016192 274.363323 
L 756.435456 275.003147 
L 768.273408 279.686484 
L 768.531456 279.786592 
L 770.079744 280.29584 
L 770.370048 280.395948 
L 771.466752 280.731094 
L 771.821568 280.831203 
L 773.047296 281.209874 
L 778.176 282.641861 
L 778.369536 343.495365 
L 778.434048 343.40713 
L 778.82112 343.402638 
L 818.496 343.248945 
L 818.625024 288.304521 
L 818.721792 288.652724 
L 819.237888 288.691897 
L 820.721664 288.783301 
L 822.269952 288.892114 
L 822.528 288.909524 
L 824.269824 289.009633 
L 824.62464 289.040101 
L 826.495488 289.140209 
L 826.850304 289.170677 
L 828.81792 289.270785 
L 829.172736 289.301253 
L 831.430656 289.401362 
L 831.785472 289.43183 
L 834.14016 289.531938 
L 834.494976 289.562406 
L 837.236736 289.662514 
L 837.591552 289.692982 
L 840.623616 289.793091 
L 840.978432 289.823559 
L 844.397568 289.923667 
L 844.752384 289.954135 
L 848.65536 290.054243 
L 849.010176 290.084711 
L 853.590528 290.18482 
L 853.945344 290.215287 
L 858.816 290.302338 
L 858.848256 295.185893 
L 858.945024 343.288945 
L 858.97728 343.123958 
L 859.203072 343.191794 
L 859.364352 343.205567 
L 860.396544 343.201571 
L 899.136 343.19706 
L 899.29728 290.432915 
L 899.361792 290.537376 
L 900.297216 290.519966 
L 939.456 290.519966 
L 939.488256 298.367602 
L 939.61728 343.145291 
L 939.649536 343.271853 
L 939.714048 343.150763 
L 939.746304 343.112572 
L 939.810816 343.168748 
L 940.004352 343.223107 
L 940.230144 343.195679 
L 945.58464 343.197065 
L 947.52 343.19705 
L 947.52 343.19705 
" clip-path="url(#pe8f0c45efd)" style="fill: none; stroke: #0000ff; stroke-width: 2; stroke-linecap: square"/>
   </g>
   <g id="patch_16">
    <path d="M 100.8 354.165517 
L 100.8 261.434483 
" style="fill: none; stroke: #bcbcbc; stroke-width: 0.8; stroke-linejoin: miter; stroke-linecap: square"/>
   </g>
   <g id="patch_17">
    <path d="M 987.84 354.165517 
L 987.84 261.434483 
" style="fill: none; stroke: #bcbcbc; stroke-width: 0.8; stroke-linejoin: miter; stroke-linecap: square"/>
   </g>
   <g id="patch_18">
    <path d="M 100.8 354.165517 
L 987.84 354.165517 
" style="fill: none; stroke: #bcbcbc; stroke-width: 0.8; stroke-linejoin: miter; stroke-linecap: square"/>
   </g>
   <g id="patch_19">
    <path d="M 100.8 261.434483 
L 987.84 261.434483 
" style="fill: none; stroke: #bcbcbc; stroke-width: 0.8; stroke-linejoin: miter; stroke-linecap: square"/>
   </g>
  </g>
  <g id="axes_4">
   <g id="patch_20">
    <path d="M 100.8 465.442759 
L 987.84 465.442759 
L 987.84 372.711724 
L 100.8 372.711724 
z
" style="fill: #eeeeee"/>
   </g>
   <g id="matplotlib.axis_7">
    <g id="xtick_19">
     <g id="line2d_54">
      <path d="M 141.12 465.442759 
L 141.12 372.711724 
" clip-path="url(#p694a3a964b)" style="fill: none; stroke-dasharray: 1.85,0.8; stroke-dashoffset: 0; stroke: #b2b2b2; stroke-width: 0.5"/>
     </g>
     <g id="line2d_55">
      <g>
       <use xlink:href="#mca4d3f1717" x="141.12" y="465.442759" style="stroke: #000000; stroke-width: 0.8"/>
      </g>
     </g>
    </g>
    <g id="xtick_20">
     <g id="line2d_56">
      <path d="M 302.4 465.442759 
L 302.4 372.711724 
" clip-path="url(#p694a3a964b)" style="fill: none; stroke-dasharray: 1.85,0.8; stroke-dashoffset: 0; stroke: #b2b2b2; stroke-width: 0.5"/>
     </g>
     <g id="line2d_57">
      <g>
       <use xlink:href="#mca4d3f1717" x="302.4" y="465.442759" style="stroke: #000000; stroke-width: 0.8"/>
      </g>
     </g>
    </g>
    <g id="xtick_21">
     <g id="line2d_58">
      <path d="M 463.68 465.442759 
L 463.68 372.711724 
" clip-path="url(#p694a3a964b)" style="fill: none; stroke-dasharray: 1.85,0.8; stroke-dashoffset: 0; stroke: #b2b2b2; stroke-width: 0.5"/>
     </g>
     <g id="line2d_59">
      <g>
       <use xlink:href="#mca4d3f1717" x="463.68" y="465.442759" style="stroke: #000000; stroke-width: 0.8"/>
      </g>
     </g>
    </g>
    <g id="xtick_22">
     <g id="line2d_60">
      <path d="M 624.96 465.442759 
L 624.96 372.711724 
" clip-path="url(#p694a3a964b)" style="fill: none; stroke-dasharray: 1.85,0.8; stroke-dashoffset: 0; stroke: #b2b2b2; stroke-width: 0.5"/>
     </g>
     <g id="line2d_61">
      <g>
       <use xlink:href="#mca4d3f1717" x="624.96" y="465.442759" style="stroke: #000000; stroke-width: 0.8"/>
      </g>
     </g>
    </g>
    <g id="xtick_23">
     <g id="line2d_62">
      <path d="M 786.24 465.442759 
L 786.24 372.711724 
" clip-path="url(#p694a3a964b)" style="fill: none; stroke-dasharray: 1.85,0.8; stroke-dashoffset: 0; stroke: #b2b2b2; stroke-width: 0.5"/>
     </g>
     <g id="line2d_63">
      <g>
       <use xlink:href="#mca4d3f1717" x="786.24" y="465.442759" style="stroke: #000000; stroke-width: 0.8"/>
      </g>
     </g>
    </g>
    <g id="xtick_24">
     <g id="line2d_64">
      <path d="M 947.52 465.442759 
L 947.52 372.711724 
" clip-path="url(#p694a3a964b)" style="fill: none; stroke-dasharray: 1.85,0.8; stroke-dashoffset: 0; stroke: #b2b2b2; stroke-width: 0.5"/>
     </g>
     <g id="line2d_65">
      <g>
       <use xlink:href="#mca4d3f1717" x="947.52" y="465.442759" style="stroke: #000000; stroke-width: 0.8"/>
      </g>
     </g>
    </g>
   </g>
   <g id="matplotlib.axis_8">
    <g id="ytick_8">
     <g id="line2d_66">
      <path d="M 100.8 440.701102 
L 987.84 440.701102 
" clip-path="url(#p694a3a964b)" style="fill: none; stroke-dasharray: 1.85,0.8; stroke-dashoffset: 0; stroke: #b2b2b2; stroke-width: 0.5"/>
     </g>
     <g id="line2d_67">
      <g>
       <use xlink:href="#m2f94ea66b7" x="100.8" y="440.701102" style="stroke: #000000; stroke-width: 0.8"/>
      </g>
     </g>
     <g id="text_11">
      <!-- 0 V -->
      <g transform="translate(74.36625 446.020008) scale(0.14 -0.14)">
       <use xlink:href="#DejaVuSans-30"/>
       <use xlink:href="#DejaVuSans-20" x="63.623047"/>
       <use xlink:href="#DejaVuSans-56" x="95.410156"/>
      </g>
     </g>
    </g>
    <g id="ytick_9">
     <g id="line2d_68">
      <path d="M 100.8 404.737457 
L 987.84 404.737457 
" clip-path="url(#p694a3a964b)" style="fill: none; stroke-dasharray: 1.85,0.8; stroke-dashoffset: 0; stroke: #b2b2b2; stroke-width: 0.5"/>
     </g>
     <g id="line2d_69">
      <g>
       <use xlink:href="#m2f94ea66b7" x="100.8" y="404.737457" style="stroke: #000000; stroke-width: 0.8"/>
      </g>
     </g>
     <g id="text_12">
      <!-- 1 V -->
      <g transform="translate(74.36625 410.056364) scale(0.14 -0.14)">
       <use xlink:href="#DejaVuSans-31"/>
       <use xlink:href="#DejaVuSans-20" x="63.623047"/>
       <use xlink:href="#DejaVuSans-56" x="95.410156"/>
      </g>
     </g>
    </g>
    <g id="text_13">
     <g id="patch_21">
      <path d="M 34.8768 454.693023 
L 34.8768 383.46146 
L 11.247425 383.46146 
L 11.247425 454.693023 
z
" style="fill: #ffff00; opacity: 0.2; stroke: #eeeeee; stroke-width: 0.5; stroke-linejoin: miter"/>
     </g>
     <!-- DFF OUT -->
     <g transform="translate(26.925238 449.653023) rotate(-90) scale(0.14 -0.14)">
      <defs>
       <path id="DejaVuSans-4f" d="M 2522 4238 
Q 1834 4238 1429 3725 
Q 1025 3213 1025 2328 
Q 1025 1447 1429 934 
Q 1834 422 2522 422 
Q 3209 422 3611 934 
Q 4013 1447 4013 2328 
Q 4013 3213 3611 3725 
Q 3209 4238 2522 4238 
z
M 2522 4750 
Q 3503 4750 4090 4092 
Q 4678 3434 4678 2328 
Q 4678 1225 4090 567 
Q 3503 -91 2522 -91 
Q 1538 -91 948 565 
Q 359 1222 359 2328 
Q 359 3434 948 4092 
Q 1538 4750 2522 4750 
z
" transform="scale(0.015625)"/>
       <path id="DejaVuSans-54" d="M -19 4666 
L 3928 4666 
L 3928 4134 
L 2272 4134 
L 2272 0 
L 1638 0 
L 1638 4134 
L -19 4134 
L -19 4666 
z
" transform="scale(0.015625)"/>
      </defs>
      <use xlink:href="#DejaVuSans-44"/>
      <use xlink:href="#DejaVuSans-46" x="77.001953"/>
      <use xlink:href="#DejaVuSans-46" x="134.521484"/>
      <use xlink:href="#DejaVuSans-20" x="192.041016"/>
      <use xlink:href="#DejaVuSans-4f" x="223.828125"/>
      <use xlink:href="#DejaVuSans-55" x="302.539062"/>
      <use xlink:href="#DejaVuSans-54" x="375.732422"/>
     </g>
    </g>
   </g>
   <g id="line2d_70">
    <path d="M 141.12 413.565453 
L 173.408256 413.609329 
L 173.440512 415.098224 
L 173.601792 440.703297 
L 174.1824 440.699758 
L 185.439744 440.70014 
L 254.048256 440.70165 
L 254.080512 440.845417 
L 254.112768 440.607607 
L 254.306304 437.096466 
L 254.628864 436.289801 
L 254.693376 435.890605 
L 255.14496 429.589774 
L 255.370752 414.780665 
L 255.596544 397.893576 
L 255.757824 397.598674 
L 255.983616 397.541132 
L 257.015808 397.544729 
L 295.755264 397.616656 
L 296.239104 399.943504 
L 296.59392 399.360893 
L 297.980928 397.832438 
L 299.65824 397.569903 
L 334.688256 397.559114 
L 334.720512 397.454819 
L 334.752768 397.983485 
L 334.785024 400.598042 
L 334.914048 440.68636 
L 334.97856 440.654709 
L 335.13984 440.693564 
L 335.559168 440.700372 
L 370.169856 440.70011 
L 415.328256 440.701628 
L 415.360512 440.844917 
L 415.392768 440.6096 
L 415.586304 437.012671 
L 415.876608 436.187305 
L 415.908864 436.088405 
L 416.1024 431.823476 
L 416.521728 419.407388 
L 416.9088 397.663409 
L 417.102336 397.548325 
L 418.392576 397.515958 
L 495.968256 397.559114 
L 496.000512 397.68139 
L 496.065024 397.515958 
L 496.355328 397.537536 
L 576.608256 397.559114 
L 576.640512 397.68139 
L 576.705024 397.515958 
L 576.995328 397.537536 
L 631.507968 397.634638 
L 633.153024 399.634216 
L 639.410688 408.894855 
L 639.991296 410.215799 
L 640.636416 412.315357 
L 641.604096 415.92251 
L 641.958912 417.329049 
L 641.991168 417.142397 
L 642.023424 417.113267 
L 642.37824 419.166072 
L 642.571776 419.824566 
L 642.604032 419.539734 
L 642.636288 420.063005 
L 642.668544 419.791479 
L 642.86208 421.210245 
L 643.087872 422.146379 
L 643.152384 421.978069 
L 643.18464 422.023023 
L 643.442688 423.710438 
L 643.797504 425.191421 
L 644.345856 427.351037 
L 644.378112 427.020532 
L 644.442624 427.2694 
L 644.63616 428.742471 
L 644.95872 430.084634 
L 644.990976 429.658465 
L 645.055488 429.820301 
L 645.152256 430.585967 
L 645.345792 431.642939 
L 646.7328 437.158719 
L 646.765056 437.104018 
L 646.797312 437.027416 
L 646.861824 437.14178 
L 647.023104 437.703496 
L 647.21664 438.994375 
L 647.410176 439.723682 
L 647.442432 439.539404 
L 647.5392 439.581626 
L 647.70048 440.7909 
L 648.18432 442.394954 
L 648.216576 442.158493 
L 648.281088 442.423329 
L 648.958464 444.903813 
L 649.022976 445.063132 
L 649.055232 444.942294 
L 649.087488 444.853464 
L 649.119744 444.905971 
L 649.248768 445.605104 
L 649.281024 445.533177 
L 649.31328 445.457294 
L 649.47456 446.136287 
L 649.506816 445.887059 
L 649.571328 446.062202 
L 649.990656 447.250082 
L 650.248704 447.623744 
L 650.28096 447.551817 
L 650.345472 447.640287 
L 650.409984 447.762563 
L 650.539008 448.277923 
L 650.571264 448.030852 
L 650.668032 448.13191 
L 651.5712 450.461275 
L 651.700224 450.717696 
L 651.73248 450.542553 
L 651.796992 450.731362 
L 651.829248 450.765887 
L 651.990528 451.382304 
L 652.925952 453.336569 
L 652.990464 453.243783 
L 653.313024 453.874585 
L 653.603328 454.675136 
L 654.31296 456.046429 
L 654.345216 455.933863 
L 654.377472 456.034561 
L 654.47424 456.251062 
L 654.506496 456.186688 
L 654.603264 456.543807 
L 654.829056 457.013492 
L 657.183744 461.218361 
L 657.248256 461.150749 
L 657.570816 460.943239 
L 659.119104 458.298473 
L 659.15136 458.395575 
L 659.183616 458.201731 
L 659.538432 457.800376 
L 659.860992 457.26236 
L 659.925504 457.352629 
L 660.086784 456.962064 
L 661.473792 455.580341 
L 661.73184 455.331832 
L 662.37696 454.68017 
L 662.53824 454.288886 
L 663.247872 453.584718 
L 663.312384 453.731809 
L 663.441408 453.435828 
L 664.280064 452.792439 
L 664.409088 452.547526 
L 664.441344 452.663329 
L 664.667136 452.308008 
L 664.731648 452.387848 
L 664.828416 452.020299 
L 664.925184 452.194004 
L 665.054208 451.829692 
L 665.086464 451.826096 
L 665.11872 452.008431 
L 665.150976 451.859542 
L 665.247744 451.896225 
L 665.28 451.550255 
L 665.312256 451.550255 
L 665.344512 451.805596 
L 665.409024 451.450635 
L 665.44128 451.630813 
L 665.505792 451.364682 
L 667.118592 450.209889 
L 667.279872 449.765738 
L 667.312128 449.794869 
L 667.37664 449.856367 
L 667.473408 449.529817 
L 667.505664 449.56614 
L 667.570176 449.702442 
L 667.6992 449.295694 
L 667.924992 449.086745 
L 667.957248 449.406821 
L 668.02176 449.345683 
L 668.18304 448.849025 
L 668.215296 448.933899 
L 668.247552 449.145006 
L 668.279808 448.722074 
L 668.312064 448.951162 
L 668.570112 448.553764 
L 669.860352 447.740266 
L 670.086144 447.503266 
L 670.311936 446.943312 
L 670.44096 446.838657 
L 670.473216 447.161971 
L 670.537728 446.734723 
L 670.569984 447.031782 
L 670.699008 446.609209 
L 670.828032 446.477223 
L 670.860288 446.841894 
L 670.9248 446.522897 
L 671.053824 446.333009 
L 671.118336 446.60813 
L 671.150592 446.17297 
L 671.215104 446.224039 
L 671.24736 446.543756 
L 671.279616 446.110394 
L 671.311872 446.481898 
L 671.473152 445.982723 
L 671.505408 445.99567 
L 671.537664 446.307834 
L 671.56992 445.93561 
L 671.634432 446.21289 
L 671.763456 445.853973 
L 672.311808 445.702566 
L 673.118208 445.023932 
L 673.440768 444.737661 
L 673.537536 444.575465 
L 673.602048 444.328395 
L 673.634304 444.528353 
L 673.763328 444.478363 
L 674.118144 443.70403 
L 674.214912 443.641561 
L 674.247168 444.057085 
L 674.279424 443.627464 
L 674.31168 443.91021 
L 674.569728 443.367806 
L 674.601984 443.378703 
L 674.63424 443.732873 
L 674.698752 443.624119 
L 674.860032 443.23974 
L 674.892288 443.259448 
L 674.924544 443.496844 
L 674.989056 443.401864 
L 675.150336 443.233014 
L 675.311616 443.180651 
L 676.698624 441.902108 
L 676.89216 441.649643 
L 676.956672 441.157948 
L 677.021184 441.250015 
L 677.150208 440.771166 
L 677.085696 441.317411 
L 677.182464 440.845345 
L 677.21472 441.016805 
L 677.279232 440.768059 
L 677.311488 440.982636 
L 677.376 440.67465 
L 677.472768 440.748477 
L 677.601792 440.584019 
L 678.34368 439.404541 
L 678.440448 438.654195 
L 678.472704 438.840307 
L 678.50496 439.14215 
L 678.569472 438.937409 
L 678.633984 438.338614 
L 678.730752 438.582843 
L 679.053312 438.213353 
L 679.762944 436.891113 
L 679.827456 436.926717 
L 679.891968 436.169683 
L 679.95648 436.71669 
L 680.085504 435.933042 
L 680.150016 436.318213 
L 680.182272 435.963251 
L 680.214528 435.876579 
L 680.246784 436.046327 
L 680.311296 435.91506 
L 680.375808 436.069704 
L 680.408064 435.956778 
L 681.375744 434.228725 
L 681.408 434.260732 
L 681.440256 434.143131 
L 681.504768 434.106808 
L 681.633792 433.893544 
L 681.666048 433.578142 
L 681.762816 433.681718 
L 684.14976 429.6635 
L 684.182016 429.780022 
L 684.214272 429.895825 
L 684.246528 429.602721 
L 684.278784 429.776785 
L 684.343296 429.724638 
L 684.440064 429.527198 
L 684.47232 429.535469 
L 684.601344 429.357449 
L 685.11744 428.511944 
L 685.27872 427.740524 
L 685.44 427.396352 
L 685.472256 427.715349 
L 685.536768 427.595231 
L 687.0528 424.142361 
L 687.21408 423.957508 
L 687.278592 423.314838 
L 687.343104 423.334977 
L 687.601152 423.307645 
L 688.82688 421.347267 
L 688.891392 420.807812 
L 688.955904 420.878301 
L 689.117184 420.89916 
L 689.407488 420.415089 
L 689.63328 420.010138 
L 690.536448 418.807874 
L 690.568704 418.807154 
L 690.729984 418.597486 
L 691.213824 418.201527 
L 691.342848 418.324163 
L 691.471872 419.142695 
L 691.665408 428.491804 
L 691.8912 440.176069 
L 692.342784 440.22649 
L 695.858688 440.339559 
L 696.181248 440.073321 
L 696.89088 439.612051 
L 697.729536 439.333908 
L 698.697216 439.176279 
L 700.535808 439.116903 
L 705.374208 439.259607 
L 715.92192 439.524947 
L 718.34112 439.512935 
L 721.792512 439.687898 
L 722.469888 440.245119 
L 723.308544 440.625776 
L 724.502016 440.879291 
L 726.372864 441.008652 
L 731.017728 441.034949 
L 737.888256 441.002873 
L 737.920512 441.260157 
L 738.210816 430.151526 
L 738.372096 428.029671 
L 738.533376 421.046251 
L 738.694656 405.302446 
L 738.98496 376.944753 
L 739.14624 376.969928 
L 740.081664 377.272022 
L 740.43648 377.379913 
L 741.855744 377.962524 
L 742.307328 378.181902 
L 743.081472 378.548732 
L 743.565312 378.789688 
L 746.210304 380.080783 
L 746.661888 380.300161 
L 747.69408 380.756899 
L 748.919808 381.317932 
L 750.11328 381.832212 
L 750.661632 382.073169 
L 751.88736 382.598238 
L 754.46784 383.630394 
L 757.596672 384.79202 
L 758.725632 385.176831 
L 767.757312 388.089886 
L 768.112128 388.194181 
L 768.757248 388.36321 
L 770.75712 388.91705 
L 771.208704 389.024941 
L 772.724736 389.420541 
L 773.144064 389.524836 
L 774.337536 389.816141 
L 774.885888 389.924032 
L 776.07936 390.211741 
L 776.627712 390.319632 
L 777.724416 390.571378 
L 778.176 390.675672 
L 782.401536 391.506433 
L 783.0144 391.614324 
L 785.59488 392.081851 
L 786.207744 392.189742 
L 787.981824 392.477451 
L 788.723712 392.585342 
L 790.336512 392.837087 
L 791.046144 392.944978 
L 792.336384 393.124797 
L 793.17504 393.232688 
L 794.46528 393.412506 
L 795.303936 393.520397 
L 796.432896 393.664251 
L 797.432832 393.772142 
L 798.561792 393.915997 
L 799.561728 394.023888 
L 800.529408 394.131779 
L 801.593856 394.23967 
L 802.561536 394.347561 
L 803.722752 394.455451 
L 804.690432 394.563342 
L 806.045184 394.671233 
L 807.012864 394.779124 
L 808.464384 394.887015 
L 809.270784 394.958942 
L 810.690048 395.066833 
L 811.496448 395.138761 
L 813.109248 395.246652 
L 813.915648 395.318579 
L 815.721984 395.42647 
L 816.528384 395.498397 
L 818.528256 395.588306 
L 818.560512 395.829263 
L 818.625024 395.606288 
L 818.81856 395.635059 
L 820.334592 395.732161 
L 820.624896 395.750143 
L 822.882816 395.858034 
L 823.527936 395.890401 
L 825.495552 396.001888 
L 826.205184 396.034255 
L 828.108288 396.142146 
L 829.430784 396.17811 
L 831.591936 396.286001 
L 832.914432 396.321965 
L 835.462656 396.429856 
L 836.817408 396.469416 
L 837.52704 396.501783 
L 840.688128 396.606077 
L 841.204224 396.609674 
L 844.752384 396.717565 
L 846.107136 396.757125 
L 847.074816 396.753528 
L 847.5264 396.789492 
L 851.913216 396.893787 
L 852.429312 396.900979 
L 858.912768 396.983696 
L 859.041792 397.012467 
L 859.493376 397.016063 
L 859.912704 397.044834 
L 869.62176 397.149128 
L 870.073344 397.185092 
L 899.168256 397.199478 
L 899.200512 397.321754 
L 899.265024 397.156321 
L 899.555328 397.177899 
L 947.52 397.185092 
L 947.52 397.185092 
" clip-path="url(#p694a3a964b)" style="fill: none; stroke: #ff00ff; stroke-width: 2; stroke-linecap: square"/>
   </g>
   <g id="patch_22">
    <path d="M 100.8 465.442759 
L 100.8 372.711724 
" style="fill: none; stroke: #bcbcbc; stroke-width: 0.8; stroke-linejoin: miter; stroke-linecap: square"/>
   </g>
   <g id="patch_23">
    <path d="M 987.84 465.442759 
L 987.84 372.711724 
" style="fill: none; stroke: #bcbcbc; stroke-width: 0.8; stroke-linejoin: miter; stroke-linecap: square"/>
   </g>
   <g id="patch_24">
    <path d="M 100.8 465.442759 
L 987.84 465.442759 
" style="fill: none; stroke: #bcbcbc; stroke-width: 0.8; stroke-linejoin: miter; stroke-linecap: square"/>
   </g>
   <g id="patch_25">
    <path d="M 100.8 372.711724 
L 987.84 372.711724 
" style="fill: none; stroke: #bcbcbc; stroke-width: 0.8; stroke-linejoin: miter; stroke-linecap: square"/>
   </g>
  </g>
  <g id="axes_5">
   <g id="patch_26">
    <path d="M 100.8 576.72 
L 987.84 576.72 
L 987.84 483.988966 
L 100.8 483.988966 
z
" style="fill: #eeeeee"/>
   </g>
   <g id="matplotlib.axis_9">
    <g id="xtick_25">
     <g id="line2d_71">
      <path d="M 141.12 576.72 
L 141.12 483.988966 
" clip-path="url(#pf013607f40)" style="fill: none; stroke-dasharray: 1.85,0.8; stroke-dashoffset: 0; stroke: #b2b2b2; stroke-width: 0.5"/>
     </g>
     <g id="line2d_72">
      <g>
       <use xlink:href="#mca4d3f1717" x="141.12" y="576.72" style="stroke: #000000; stroke-width: 0.8"/>
      </g>
     </g>
     <g id="text_14">
      <!-- 0 s -->
      <g transform="translate(130.795 590.857813) scale(0.14 -0.14)">
       <defs>
        <path id="DejaVuSans-73" d="M 2834 3397 
L 2834 2853 
Q 2591 2978 2328 3040 
Q 2066 3103 1784 3103 
Q 1356 3103 1142 2972 
Q 928 2841 928 2578 
Q 928 2378 1081 2264 
Q 1234 2150 1697 2047 
L 1894 2003 
Q 2506 1872 2764 1633 
Q 3022 1394 3022 966 
Q 3022 478 2636 193 
Q 2250 -91 1575 -91 
Q 1294 -91 989 -36 
Q 684 19 347 128 
L 347 722 
Q 666 556 975 473 
Q 1284 391 1588 391 
Q 1994 391 2212 530 
Q 2431 669 2431 922 
Q 2431 1156 2273 1281 
Q 2116 1406 1581 1522 
L 1381 1569 
Q 847 1681 609 1914 
Q 372 2147 372 2553 
Q 372 3047 722 3315 
Q 1072 3584 1716 3584 
Q 2034 3584 2315 3537 
Q 2597 3491 2834 3397 
z
" transform="scale(0.015625)"/>
       </defs>
       <use xlink:href="#DejaVuSans-30"/>
       <use xlink:href="#DejaVuSans-20" x="63.623047"/>
       <use xlink:href="#DejaVuSans-73" x="95.410156"/>
      </g>
     </g>
    </g>
    <g id="xtick_26">
     <g id="line2d_73">
      <path d="M 302.4 576.72 
L 302.4 483.988966 
" clip-path="url(#pf013607f40)" style="fill: none; stroke-dasharray: 1.85,0.8; stroke-dashoffset: 0; stroke: #b2b2b2; stroke-width: 0.5"/>
     </g>
     <g id="line2d_74">
      <g>
       <use xlink:href="#mca4d3f1717" x="302.4" y="576.72" style="stroke: #000000; stroke-width: 0.8"/>
      </g>
     </g>
     <g id="text_15">
      <!-- 50 ns -->
      <g transform="translate(283.185 590.857813) scale(0.14 -0.14)">
       <defs>
        <path id="DejaVuSans-35" d="M 691 4666 
L 3169 4666 
L 3169 4134 
L 1269 4134 
L 1269 2991 
Q 1406 3038 1543 3061 
Q 1681 3084 1819 3084 
Q 2600 3084 3056 2656 
Q 3513 2228 3513 1497 
Q 3513 744 3044 326 
Q 2575 -91 1722 -91 
Q 1428 -91 1123 -41 
Q 819 9 494 109 
L 494 744 
Q 775 591 1075 516 
Q 1375 441 1709 441 
Q 2250 441 2565 725 
Q 2881 1009 2881 1497 
Q 2881 1984 2565 2268 
Q 2250 2553 1709 2553 
Q 1456 2553 1204 2497 
Q 953 2441 691 2322 
L 691 4666 
z
" transform="scale(0.015625)"/>
        <path id="DejaVuSans-6e" d="M 3513 2113 
L 3513 0 
L 2938 0 
L 2938 2094 
Q 2938 2591 2744 2837 
Q 2550 3084 2163 3084 
Q 1697 3084 1428 2787 
Q 1159 2491 1159 1978 
L 1159 0 
L 581 0 
L 581 3500 
L 1159 3500 
L 1159 2956 
Q 1366 3272 1645 3428 
Q 1925 3584 2291 3584 
Q 2894 3584 3203 3211 
Q 3513 2838 3513 2113 
z
" transform="scale(0.015625)"/>
       </defs>
       <use xlink:href="#DejaVuSans-35"/>
       <use xlink:href="#DejaVuSans-30" x="63.623047"/>
       <use xlink:href="#DejaVuSans-20" x="127.246094"/>
       <use xlink:href="#DejaVuSans-6e" x="159.033203"/>
       <use xlink:href="#DejaVuSans-73" x="222.412109"/>
      </g>
     </g>
    </g>
    <g id="xtick_27">
     <g id="line2d_75">
      <path d="M 463.68 576.72 
L 463.68 483.988966 
" clip-path="url(#pf013607f40)" style="fill: none; stroke-dasharray: 1.85,0.8; stroke-dashoffset: 0; stroke: #b2b2b2; stroke-width: 0.5"/>
     </g>
     <g id="line2d_76">
      <g>
       <use xlink:href="#mca4d3f1717" x="463.68" y="576.72" style="stroke: #000000; stroke-width: 0.8"/>
      </g>
     </g>
     <g id="text_16">
      <!-- 100 ns -->
      <g transform="translate(440.01125 590.857813) scale(0.14 -0.14)">
       <use xlink:href="#DejaVuSans-31"/>
       <use xlink:href="#DejaVuSans-30" x="63.623047"/>
       <use xlink:href="#DejaVuSans-30" x="127.246094"/>
       <use xlink:href="#DejaVuSans-20" x="190.869141"/>
       <use xlink:href="#DejaVuSans-6e" x="222.65625"/>
       <use xlink:href="#DejaVuSans-73" x="286.035156"/>
      </g>
     </g>
    </g>
    <g id="xtick_28">
     <g id="line2d_77">
      <path d="M 624.96 576.72 
L 624.96 483.988966 
" clip-path="url(#pf013607f40)" style="fill: none; stroke-dasharray: 1.85,0.8; stroke-dashoffset: 0; stroke: #b2b2b2; stroke-width: 0.5"/>
     </g>
     <g id="line2d_78">
      <g>
       <use xlink:href="#mca4d3f1717" x="624.96" y="576.72" style="stroke: #000000; stroke-width: 0.8"/>
      </g>
     </g>
     <g id="text_17">
      <!-- 150 ns -->
      <g transform="translate(601.29125 590.857813) scale(0.14 -0.14)">
       <use xlink:href="#DejaVuSans-31"/>
       <use xlink:href="#DejaVuSans-35" x="63.623047"/>
       <use xlink:href="#DejaVuSans-30" x="127.246094"/>
       <use xlink:href="#DejaVuSans-20" x="190.869141"/>
       <use xlink:href="#DejaVuSans-6e" x="222.65625"/>
       <use xlink:href="#DejaVuSans-73" x="286.035156"/>
      </g>
     </g>
    </g>
    <g id="xtick_29">
     <g id="line2d_79">
      <path d="M 786.24 576.72 
L 786.24 483.988966 
" clip-path="url(#pf013607f40)" style="fill: none; stroke-dasharray: 1.85,0.8; stroke-dashoffset: 0; stroke: #b2b2b2; stroke-width: 0.5"/>
     </g>
     <g id="line2d_80">
      <g>
       <use xlink:href="#mca4d3f1717" x="786.24" y="576.72" style="stroke: #000000; stroke-width: 0.8"/>
      </g>
     </g>
     <g id="text_18">
      <!-- 200 ns -->
      <g transform="translate(762.57125 590.857813) scale(0.14 -0.14)">
       <use xlink:href="#DejaVuSans-32"/>
       <use xlink:href="#DejaVuSans-30" x="63.623047"/>
       <use xlink:href="#DejaVuSans-30" x="127.246094"/>
       <use xlink:href="#DejaVuSans-20" x="190.869141"/>
       <use xlink:href="#DejaVuSans-6e" x="222.65625"/>
       <use xlink:href="#DejaVuSans-73" x="286.035156"/>
      </g>
     </g>
    </g>
    <g id="xtick_30">
     <g id="line2d_81">
      <path d="M 947.52 576.72 
L 947.52 483.988966 
" clip-path="url(#pf013607f40)" style="fill: none; stroke-dasharray: 1.85,0.8; stroke-dashoffset: 0; stroke: #b2b2b2; stroke-width: 0.5"/>
     </g>
     <g id="line2d_82">
      <g>
       <use xlink:href="#mca4d3f1717" x="947.52" y="576.72" style="stroke: #000000; stroke-width: 0.8"/>
      </g>
     </g>
     <g id="text_19">
      <!-- 250 ns -->
      <g transform="translate(923.85125 590.857813) scale(0.14 -0.14)">
       <use xlink:href="#DejaVuSans-32"/>
       <use xlink:href="#DejaVuSans-35" x="63.623047"/>
       <use xlink:href="#DejaVuSans-30" x="127.246094"/>
       <use xlink:href="#DejaVuSans-20" x="190.869141"/>
       <use xlink:href="#DejaVuSans-6e" x="222.65625"/>
       <use xlink:href="#DejaVuSans-73" x="286.035156"/>
      </g>
     </g>
    </g>
    <g id="text_20">
     <!-- Time -->
     <g transform="translate(527.192969 608.407187) scale(0.14 -0.14)">
      <defs>
       <path id="DejaVuSans-69" d="M 603 3500 
L 1178 3500 
L 1178 0 
L 603 0 
L 603 3500 
z
M 603 4863 
L 1178 4863 
L 1178 4134 
L 603 4134 
L 603 4863 
z
" transform="scale(0.015625)"/>
       <path id="DejaVuSans-6d" d="M 3328 2828 
Q 3544 3216 3844 3400 
Q 4144 3584 4550 3584 
Q 5097 3584 5394 3201 
Q 5691 2819 5691 2113 
L 5691 0 
L 5113 0 
L 5113 2094 
Q 5113 2597 4934 2840 
Q 4756 3084 4391 3084 
Q 3944 3084 3684 2787 
Q 3425 2491 3425 1978 
L 3425 0 
L 2847 0 
L 2847 2094 
Q 2847 2600 2669 2842 
Q 2491 3084 2119 3084 
Q 1678 3084 1418 2786 
Q 1159 2488 1159 1978 
L 1159 0 
L 581 0 
L 581 3500 
L 1159 3500 
L 1159 2956 
Q 1356 3278 1631 3431 
Q 1906 3584 2284 3584 
Q 2666 3584 2933 3390 
Q 3200 3197 3328 2828 
z
" transform="scale(0.015625)"/>
       <path id="DejaVuSans-65" d="M 3597 1894 
L 3597 1613 
L 953 1613 
Q 991 1019 1311 708 
Q 1631 397 2203 397 
Q 2534 397 2845 478 
Q 3156 559 3463 722 
L 3463 178 
Q 3153 47 2828 -22 
Q 2503 -91 2169 -91 
Q 1331 -91 842 396 
Q 353 884 353 1716 
Q 353 2575 817 3079 
Q 1281 3584 2069 3584 
Q 2775 3584 3186 3129 
Q 3597 2675 3597 1894 
z
M 3022 2063 
Q 3016 2534 2758 2815 
Q 2500 3097 2075 3097 
Q 1594 3097 1305 2825 
Q 1016 2553 972 2059 
L 3022 2063 
z
" transform="scale(0.015625)"/>
      </defs>
      <use xlink:href="#DejaVuSans-54"/>
      <use xlink:href="#DejaVuSans-69" x="57.958984"/>
      <use xlink:href="#DejaVuSans-6d" x="85.742188"/>
      <use xlink:href="#DejaVuSans-65" x="183.154297"/>
     </g>
    </g>
   </g>
   <g id="matplotlib.axis_10">
    <g id="ytick_10">
     <g id="line2d_83">
      <path d="M 100.8 569.745885 
L 987.84 569.745885 
" clip-path="url(#pf013607f40)" style="fill: none; stroke-dasharray: 1.85,0.8; stroke-dashoffset: 0; stroke: #b2b2b2; stroke-width: 0.5"/>
     </g>
     <g id="line2d_84">
      <g>
       <use xlink:href="#m2f94ea66b7" x="100.8" y="569.745885" style="stroke: #000000; stroke-width: 0.8"/>
      </g>
     </g>
     <g id="text_21">
      <!-- 0 V -->
      <g transform="translate(74.36625 575.064792) scale(0.14 -0.14)">
       <use xlink:href="#DejaVuSans-30"/>
       <use xlink:href="#DejaVuSans-20" x="63.623047"/>
       <use xlink:href="#DejaVuSans-56" x="95.410156"/>
      </g>
     </g>
    </g>
    <g id="ytick_11">
     <g id="line2d_85">
      <path d="M 100.8 535.950348 
L 987.84 535.950348 
" clip-path="url(#pf013607f40)" style="fill: none; stroke-dasharray: 1.85,0.8; stroke-dashoffset: 0; stroke: #b2b2b2; stroke-width: 0.5"/>
     </g>
     <g id="line2d_86">
      <g>
       <use xlink:href="#m2f94ea66b7" x="100.8" y="535.950348" style="stroke: #000000; stroke-width: 0.8"/>
      </g>
     </g>
     <g id="text_22">
      <!-- 500 mV -->
      <g transform="translate(42.914375 541.269254) scale(0.14 -0.14)">
       <use xlink:href="#DejaVuSans-35"/>
       <use xlink:href="#DejaVuSans-30" x="63.623047"/>
       <use xlink:href="#DejaVuSans-30" x="127.246094"/>
       <use xlink:href="#DejaVuSans-20" x="190.869141"/>
       <use xlink:href="#DejaVuSans-6d" x="222.65625"/>
       <use xlink:href="#DejaVuSans-56" x="320.068359"/>
      </g>
     </g>
    </g>
    <g id="ytick_12">
     <g id="line2d_87">
      <path d="M 100.8 502.15481 
L 987.84 502.15481 
" clip-path="url(#pf013607f40)" style="fill: none; stroke-dasharray: 1.85,0.8; stroke-dashoffset: 0; stroke: #b2b2b2; stroke-width: 0.5"/>
     </g>
     <g id="line2d_88">
      <g>
       <use xlink:href="#m2f94ea66b7" x="100.8" y="502.15481" style="stroke: #000000; stroke-width: 0.8"/>
      </g>
     </g>
     <g id="text_23">
      <!-- 1 V -->
      <g transform="translate(74.36625 507.473717) scale(0.14 -0.14)">
       <use xlink:href="#DejaVuSans-31"/>
       <use xlink:href="#DejaVuSans-20" x="63.623047"/>
       <use xlink:href="#DejaVuSans-56" x="95.410156"/>
      </g>
     </g>
    </g>
    <g id="text_24">
     <g id="patch_27">
      <path d="M 34.8768 554.329483 
L 34.8768 506.379483 
L 11.247425 506.379483 
L 11.247425 554.329483 
z
" style="fill: #ffff00; opacity: 0.2; stroke: #eeeeee; stroke-width: 0.5; stroke-linejoin: miter"/>
     </g>
     <!-- FOUT -->
     <g transform="translate(26.925238 549.289483) rotate(-90) scale(0.14 -0.14)">
      <use xlink:href="#DejaVuSans-46"/>
      <use xlink:href="#DejaVuSans-4f" x="57.519531"/>
      <use xlink:href="#DejaVuSans-55" x="136.230469"/>
      <use xlink:href="#DejaVuSans-54" x="209.423828"/>
     </g>
    </g>
   </g>
   <g id="line2d_89">
    <path d="M 141.12 488.636595 
L 173.472768 488.643355 
L 173.505024 488.44734 
L 173.569536 526.789729 
L 173.69856 572.504953 
L 173.730816 572.3695 
L 173.827584 567.842115 
L 173.892096 569.3609 
L 174.053376 570.064192 
L 174.117888 569.946665 
L 174.408192 569.492054 
L 174.440448 569.54151 
L 174.66624 569.729954 
L 176.182272 569.740151 
L 180.117504 569.761449 
L 193.568256 569.752159 
L 212.954112 569.74401 
L 255.30624 569.743704 
L 255.6288 488.52845 
L 255.854592 488.670391 
L 256.209408 488.629836 
L 334.849536 488.650114 
L 334.881792 492.854278 
L 335.043072 572.18376 
L 335.107584 570.261206 
L 335.172096 568.338639 
L 335.236608 568.870108 
L 335.365632 570.783003 
L 335.430144 570.410083 
L 335.591424 569.797213 
L 335.881728 569.648439 
L 336.559104 569.817924 
L 337.107456 569.746143 
L 350.009856 569.744206 
L 416.489472 569.74333 
L 416.553984 567.480841 
L 416.812032 488.204013 
L 416.844288 488.339195 
L 416.973312 488.852887 
L 417.037824 488.778537 
L 417.39264 488.548727 
L 417.844224 488.717705 
L 418.457088 488.562245 
L 419.328 488.636595 
L 642.829824 488.569004 
L 642.86208 488.4541 
L 642.894336 488.514931 
L 642.926592 492.428455 
L 643.087872 570.25855 
L 643.152384 569.736689 
L 643.378176 569.743906 
L 667.279872 569.74434 
L 679.408128 569.744203 
L 689.375232 569.799994 
L 689.407488 569.291957 
L 689.472 557.302368 
L 689.665536 489.042142 
L 689.826816 488.643355 
L 690.375168 488.636595 
L 691.439616 488.636595 
L 691.504128 501.647877 
L 691.697664 571.436135 
L 691.826688 569.744847 
L 700.60032 569.744208 
L 738.436608 569.744214 
L 738.50112 557.4558 
L 738.82368 488.629836 
L 739.372032 488.636595 
L 947.52 488.636595 
L 947.52 488.636595 
" clip-path="url(#pf013607f40)" style="fill: none; stroke: #ff00ff; stroke-width: 2; stroke-linecap: square"/>
   </g>
   <g id="patch_28">
    <path d="M 100.8 576.72 
L 100.8 483.988966 
" style="fill: none; stroke: #bcbcbc; stroke-width: 0.8; stroke-linejoin: miter; stroke-linecap: square"/>
   </g>
   <g id="patch_29">
    <path d="M 987.84 576.72 
L 987.84 483.988966 
" style="fill: none; stroke: #bcbcbc; stroke-width: 0.8; stroke-linejoin: miter; stroke-linecap: square"/>
   </g>
   <g id="patch_30">
    <path d="M 100.8 576.72 
L 987.84 576.72 
" style="fill: none; stroke: #bcbcbc; stroke-width: 0.8; stroke-linejoin: miter; stroke-linecap: square"/>
   </g>
   <g id="patch_31">
    <path d="M 100.8 483.988966 
L 987.84 483.988966 
" style="fill: none; stroke: #bcbcbc; stroke-width: 0.8; stroke-linejoin: miter; stroke-linecap: square"/>
   </g>
  </g>
  <g id="axes_6">
   <g id="patch_32">
    <path d="M 201.6 628.56 
L 856.8 628.56 
L 856.8 615.6 
L 201.6 615.6 
z
" clip-path="url(#pf2f6363fb0)" style="fill: #d3d3d3"/>
   </g>
   <g id="patch_33">
    <path d="M 201.6 628.56 
L 838.08 628.56 
L 838.08 615.6 
L 201.6 615.6 
z
" clip-path="url(#pf2f6363fb0)" style="fill: #0000ff"/>
   </g>
   <g id="line2d_90">
    <path d="M 201.6 635.04 
L 201.6 609.12 
" clip-path="url(#pd6c42252dd)" style="fill: none; stroke: #ff0000; stroke-linecap: square"/>
   </g>
   <g id="line2d_91">
    <defs>
     <path id="mdd4bec2c4b" d="M 0 5 
C 1.326016 5 2.597899 4.473168 3.535534 3.535534 
C 4.473168 2.597899 5 1.326016 5 0 
C 5 -1.326016 4.473168 -2.597899 3.535534 -3.535534 
C 2.597899 -4.473168 1.326016 -5 0 -5 
C -1.326016 -5 -2.597899 -4.473168 -3.535534 -3.535534 
C -4.473168 -2.597899 -5 -1.326016 -5 0 
C -5 1.326016 -4.473168 2.597899 -3.535534 3.535534 
C -2.597899 4.473168 -1.326016 5 0 5 
z
" style="stroke: #bfbfbf"/>
    </defs>
    <g>
     <use xlink:href="#mdd4bec2c4b" x="838.08" y="622.08" style="fill: #ffffff; stroke: #bfbfbf"/>
    </g>
   </g>
   <g id="text_25">
    <!-- #Sweep -->
    <g transform="translate(138.622875 625.39125) scale(0.12 -0.12)">
     <defs>
      <path id="DejaVuSans-23" d="M 3272 2816 
L 2363 2816 
L 2100 1772 
L 3016 1772 
L 3272 2816 
z
M 2803 4594 
L 2478 3297 
L 3391 3297 
L 3719 4594 
L 4219 4594 
L 3897 3297 
L 4872 3297 
L 4872 2816 
L 3775 2816 
L 3519 1772 
L 4513 1772 
L 4513 1294 
L 3397 1294 
L 3072 0 
L 2572 0 
L 2894 1294 
L 1978 1294 
L 1656 0 
L 1153 0 
L 1478 1294 
L 494 1294 
L 494 1772 
L 1594 1772 
L 1856 2816 
L 850 2816 
L 850 3297 
L 1978 3297 
L 2297 4594 
L 2803 4594 
z
" transform="scale(0.015625)"/>
      <path id="DejaVuSans-77" d="M 269 3500 
L 844 3500 
L 1563 769 
L 2278 3500 
L 2956 3500 
L 3675 769 
L 4391 3500 
L 4966 3500 
L 4050 0 
L 3372 0 
L 2619 2869 
L 1863 0 
L 1184 0 
L 269 3500 
z
" transform="scale(0.015625)"/>
      <path id="DejaVuSans-70" d="M 1159 525 
L 1159 -1331 
L 581 -1331 
L 581 3500 
L 1159 3500 
L 1159 2969 
Q 1341 3281 1617 3432 
Q 1894 3584 2278 3584 
Q 2916 3584 3314 3078 
Q 3713 2572 3713 1747 
Q 3713 922 3314 415 
Q 2916 -91 2278 -91 
Q 1894 -91 1617 61 
Q 1341 213 1159 525 
z
M 3116 1747 
Q 3116 2381 2855 2742 
Q 2594 3103 2138 3103 
Q 1681 3103 1420 2742 
Q 1159 2381 1159 1747 
Q 1159 1113 1420 752 
Q 1681 391 2138 391 
Q 2594 391 2855 752 
Q 3116 1113 3116 1747 
z
" transform="scale(0.015625)"/>
     </defs>
     <use xlink:href="#DejaVuSans-23"/>
     <use xlink:href="#DejaVuSans-53" x="83.789062"/>
     <use xlink:href="#DejaVuSans-77" x="147.265625"/>
     <use xlink:href="#DejaVuSans-65" x="229.052734"/>
     <use xlink:href="#DejaVuSans-65" x="290.576172"/>
     <use xlink:href="#DejaVuSans-70" x="352.099609"/>
    </g>
   </g>
   <g id="text_26">
    <!-- $\mathdefault{136}$ -->
    <g transform="translate(869.904 625.39125) scale(0.12 -0.12)">
     <defs>
      <path id="DejaVuSans-33" d="M 2597 2516 
Q 3050 2419 3304 2112 
Q 3559 1806 3559 1356 
Q 3559 666 3084 287 
Q 2609 -91 1734 -91 
Q 1441 -91 1130 -33 
Q 819 25 488 141 
L 488 750 
Q 750 597 1062 519 
Q 1375 441 1716 441 
Q 2309 441 2620 675 
Q 2931 909 2931 1356 
Q 2931 1769 2642 2001 
Q 2353 2234 1838 2234 
L 1294 2234 
L 1294 2753 
L 1863 2753 
Q 2328 2753 2575 2939 
Q 2822 3125 2822 3475 
Q 2822 3834 2567 4026 
Q 2313 4219 1838 4219 
Q 1578 4219 1281 4162 
Q 984 4106 628 3988 
L 628 4550 
Q 988 4650 1302 4700 
Q 1616 4750 1894 4750 
Q 2613 4750 3031 4423 
Q 3450 4097 3450 3541 
Q 3450 3153 3228 2886 
Q 3006 2619 2597 2516 
z
" transform="scale(0.015625)"/>
      <path id="DejaVuSans-36" d="M 2113 2584 
Q 1688 2584 1439 2293 
Q 1191 2003 1191 1497 
Q 1191 994 1439 701 
Q 1688 409 2113 409 
Q 2538 409 2786 701 
Q 3034 994 3034 1497 
Q 3034 2003 2786 2293 
Q 2538 2584 2113 2584 
z
M 3366 4563 
L 3366 3988 
Q 3128 4100 2886 4159 
Q 2644 4219 2406 4219 
Q 1781 4219 1451 3797 
Q 1122 3375 1075 2522 
Q 1259 2794 1537 2939 
Q 1816 3084 2150 3084 
Q 2853 3084 3261 2657 
Q 3669 2231 3669 1497 
Q 3669 778 3244 343 
Q 2819 -91 2113 -91 
Q 1303 -91 875 529 
Q 447 1150 447 2328 
Q 447 3434 972 4092 
Q 1497 4750 2381 4750 
Q 2619 4750 2861 4703 
Q 3103 4656 3366 4563 
z
" transform="scale(0.015625)"/>
     </defs>
     <use xlink:href="#DejaVuSans-31" transform="translate(0 0.78125)"/>
     <use xlink:href="#DejaVuSans-33" transform="translate(63.623047 0.78125)"/>
     <use xlink:href="#DejaVuSans-36" transform="translate(127.246094 0.78125)"/>
    </g>
   </g>
  </g>
  <g id="text_27">
   <!-- DFF under BBI sweep analysis (Sweep = 146E-9) -->
   <g transform="translate(308.25625 25.1175) scale(0.16 -0.16)">
    <defs>
     <path id="DejaVuSans-75" d="M 544 1381 
L 544 3500 
L 1119 3500 
L 1119 1403 
Q 1119 906 1312 657 
Q 1506 409 1894 409 
Q 2359 409 2629 706 
Q 2900 1003 2900 1516 
L 2900 3500 
L 3475 3500 
L 3475 0 
L 2900 0 
L 2900 538 
Q 2691 219 2414 64 
Q 2138 -91 1772 -91 
Q 1169 -91 856 284 
Q 544 659 544 1381 
z
M 1991 3584 
L 1991 3584 
z
" transform="scale(0.015625)"/>
     <path id="DejaVuSans-64" d="M 2906 2969 
L 2906 4863 
L 3481 4863 
L 3481 0 
L 2906 0 
L 2906 525 
Q 2725 213 2448 61 
Q 2172 -91 1784 -91 
Q 1150 -91 751 415 
Q 353 922 353 1747 
Q 353 2572 751 3078 
Q 1150 3584 1784 3584 
Q 2172 3584 2448 3432 
Q 2725 3281 2906 2969 
z
M 947 1747 
Q 947 1113 1208 752 
Q 1469 391 1925 391 
Q 2381 391 2643 752 
Q 2906 1113 2906 1747 
Q 2906 2381 2643 2742 
Q 2381 3103 1925 3103 
Q 1469 3103 1208 2742 
Q 947 2381 947 1747 
z
" transform="scale(0.015625)"/>
     <path id="DejaVuSans-72" d="M 2631 2963 
Q 2534 3019 2420 3045 
Q 2306 3072 2169 3072 
Q 1681 3072 1420 2755 
Q 1159 2438 1159 1844 
L 1159 0 
L 581 0 
L 581 3500 
L 1159 3500 
L 1159 2956 
Q 1341 3275 1631 3429 
Q 1922 3584 2338 3584 
Q 2397 3584 2469 3576 
Q 2541 3569 2628 3553 
L 2631 2963 
z
" transform="scale(0.015625)"/>
     <path id="DejaVuSans-61" d="M 2194 1759 
Q 1497 1759 1228 1600 
Q 959 1441 959 1056 
Q 959 750 1161 570 
Q 1363 391 1709 391 
Q 2188 391 2477 730 
Q 2766 1069 2766 1631 
L 2766 1759 
L 2194 1759 
z
M 3341 1997 
L 3341 0 
L 2766 0 
L 2766 531 
Q 2569 213 2275 61 
Q 1981 -91 1556 -91 
Q 1019 -91 701 211 
Q 384 513 384 1019 
Q 384 1609 779 1909 
Q 1175 2209 1959 2209 
L 2766 2209 
L 2766 2266 
Q 2766 2663 2505 2880 
Q 2244 3097 1772 3097 
Q 1472 3097 1187 3025 
Q 903 2953 641 2809 
L 641 3341 
Q 956 3463 1253 3523 
Q 1550 3584 1831 3584 
Q 2591 3584 2966 3190 
Q 3341 2797 3341 1997 
z
" transform="scale(0.015625)"/>
     <path id="DejaVuSans-6c" d="M 603 4863 
L 1178 4863 
L 1178 0 
L 603 0 
L 603 4863 
z
" transform="scale(0.015625)"/>
     <path id="DejaVuSans-79" d="M 2059 -325 
Q 1816 -950 1584 -1140 
Q 1353 -1331 966 -1331 
L 506 -1331 
L 506 -850 
L 844 -850 
Q 1081 -850 1212 -737 
Q 1344 -625 1503 -206 
L 1606 56 
L 191 3500 
L 800 3500 
L 1894 763 
L 2988 3500 
L 3597 3500 
L 2059 -325 
z
" transform="scale(0.015625)"/>
     <path id="DejaVuSans-28" d="M 1984 4856 
Q 1566 4138 1362 3434 
Q 1159 2731 1159 2009 
Q 1159 1288 1364 580 
Q 1569 -128 1984 -844 
L 1484 -844 
Q 1016 -109 783 600 
Q 550 1309 550 2009 
Q 550 2706 781 3412 
Q 1013 4119 1484 4856 
L 1984 4856 
z
" transform="scale(0.015625)"/>
     <path id="DejaVuSans-3d" d="M 678 2906 
L 4684 2906 
L 4684 2381 
L 678 2381 
L 678 2906 
z
M 678 1631 
L 4684 1631 
L 4684 1100 
L 678 1100 
L 678 1631 
z
" transform="scale(0.015625)"/>
     <path id="DejaVuSans-34" d="M 2419 4116 
L 825 1625 
L 2419 1625 
L 2419 4116 
z
M 2253 4666 
L 3047 4666 
L 3047 1625 
L 3713 1625 
L 3713 1100 
L 3047 1100 
L 3047 0 
L 2419 0 
L 2419 1100 
L 313 1100 
L 313 1709 
L 2253 4666 
z
" transform="scale(0.015625)"/>
     <path id="DejaVuSans-2d" d="M 313 2009 
L 1997 2009 
L 1997 1497 
L 313 1497 
L 313 2009 
z
" transform="scale(0.015625)"/>
     <path id="DejaVuSans-39" d="M 703 97 
L 703 672 
Q 941 559 1184 500 
Q 1428 441 1663 441 
Q 2288 441 2617 861 
Q 2947 1281 2994 2138 
Q 2813 1869 2534 1725 
Q 2256 1581 1919 1581 
Q 1219 1581 811 2004 
Q 403 2428 403 3163 
Q 403 3881 828 4315 
Q 1253 4750 1959 4750 
Q 2769 4750 3195 4129 
Q 3622 3509 3622 2328 
Q 3622 1225 3098 567 
Q 2575 -91 1691 -91 
Q 1453 -91 1209 -44 
Q 966 3 703 97 
z
M 1959 2075 
Q 2384 2075 2632 2365 
Q 2881 2656 2881 3163 
Q 2881 3666 2632 3958 
Q 2384 4250 1959 4250 
Q 1534 4250 1286 3958 
Q 1038 3666 1038 3163 
Q 1038 2656 1286 2365 
Q 1534 2075 1959 2075 
z
" transform="scale(0.015625)"/>
     <path id="DejaVuSans-29" d="M 513 4856 
L 1013 4856 
Q 1481 4119 1714 3412 
Q 1947 2706 1947 2009 
Q 1947 1309 1714 600 
Q 1481 -109 1013 -844 
L 513 -844 
Q 928 -128 1133 580 
Q 1338 1288 1338 2009 
Q 1338 2731 1133 3434 
Q 928 4138 513 4856 
z
" transform="scale(0.015625)"/>
    </defs>
    <use xlink:href="#DejaVuSans-44"/>
    <use xlink:href="#DejaVuSans-46" x="77.001953"/>
    <use xlink:href="#DejaVuSans-46" x="134.521484"/>
    <use xlink:href="#DejaVuSans-20" x="192.041016"/>
    <use xlink:href="#DejaVuSans-75" x="223.828125"/>
    <use xlink:href="#DejaVuSans-6e" x="287.207031"/>
    <use xlink:href="#DejaVuSans-64" x="350.585938"/>
    <use xlink:href="#DejaVuSans-65" x="414.0625"/>
    <use xlink:href="#DejaVuSans-72" x="475.585938"/>
    <use xlink:href="#DejaVuSans-20" x="516.699219"/>
    <use xlink:href="#DejaVuSans-42" x="548.486328"/>
    <use xlink:href="#DejaVuSans-42" x="617.089844"/>
    <use xlink:href="#DejaVuSans-49" x="685.693359"/>
    <use xlink:href="#DejaVuSans-20" x="715.185547"/>
    <use xlink:href="#DejaVuSans-73" x="746.972656"/>
    <use xlink:href="#DejaVuSans-77" x="799.072266"/>
    <use xlink:href="#DejaVuSans-65" x="880.859375"/>
    <use xlink:href="#DejaVuSans-65" x="942.382812"/>
    <use xlink:href="#DejaVuSans-70" x="1003.90625"/>
    <use xlink:href="#DejaVuSans-20" x="1067.382812"/>
    <use xlink:href="#DejaVuSans-61" x="1099.169922"/>
    <use xlink:href="#DejaVuSans-6e" x="1160.449219"/>
    <use xlink:href="#DejaVuSans-61" x="1223.828125"/>
    <use xlink:href="#DejaVuSans-6c" x="1285.107422"/>
    <use xlink:href="#DejaVuSans-79" x="1312.890625"/>
    <use xlink:href="#DejaVuSans-73" x="1372.070312"/>
    <use xlink:href="#DejaVuSans-69" x="1424.169922"/>
    <use xlink:href="#DejaVuSans-73" x="1451.953125"/>
    <use xlink:href="#DejaVuSans-20" x="1504.052734"/>
    <use xlink:href="#DejaVuSans-28" x="1535.839844"/>
    <use xlink:href="#DejaVuSans-53" x="1574.853516"/>
    <use xlink:href="#DejaVuSans-77" x="1638.330078"/>
    <use xlink:href="#DejaVuSans-65" x="1720.117188"/>
    <use xlink:href="#DejaVuSans-65" x="1781.640625"/>
    <use xlink:href="#DejaVuSans-70" x="1843.164062"/>
    <use xlink:href="#DejaVuSans-20" x="1906.640625"/>
    <use xlink:href="#DejaVuSans-3d" x="1938.427734"/>
    <use xlink:href="#DejaVuSans-20" x="2022.216797"/>
    <use xlink:href="#DejaVuSans-31" x="2054.003906"/>
    <use xlink:href="#DejaVuSans-34" x="2117.626953"/>
    <use xlink:href="#DejaVuSans-36" x="2181.25"/>
    <use xlink:href="#DejaVuSans-45" x="2244.873047"/>
    <use xlink:href="#DejaVuSans-2d" x="2308.056641"/>
    <use xlink:href="#DejaVuSans-39" x="2344.140625"/>
    <use xlink:href="#DejaVuSans-29" x="2407.763672"/>
   </g>
  </g>
 </g>
 <defs>
  <clipPath id="p0c6daa4aec">
   <rect x="100.8" y="38.88" width="887.04" height="92.731034"/>
  </clipPath>
  <clipPath id="p10df8a2bd3">
   <rect x="100.8" y="150.157241" width="887.04" height="92.731034"/>
  </clipPath>
  <clipPath id="pe8f0c45efd">
   <rect x="100.8" y="261.434483" width="887.04" height="92.731034"/>
  </clipPath>
  <clipPath id="p694a3a964b">
   <rect x="100.8" y="372.711724" width="887.04" height="92.731034"/>
  </clipPath>
  <clipPath id="pf013607f40">
   <rect x="100.8" y="483.988966" width="887.04" height="92.731034"/>
  </clipPath>
  <clipPath id="pf2f6363fb0">
   <rect x="201.6" y="609.12" width="655.2" height="25.92"/>
  </clipPath>
  <clipPath id="pd6c42252dd">
   <path d="M 201.6 628.56 
L 856.8 628.56 
L 856.8 615.6 
L 201.6 615.6 
z
"/>
  </clipPath>
 </defs>
</svg>
