<?xml version="1.0" encoding="utf-8" standalone="no"?>
<!DOCTYPE svg PUBLIC "-//W3C//DTD SVG 1.1//EN"
  "http://www.w3.org/Graphics/SVG/1.1/DTD/svg11.dtd">
<svg xmlns:xlink="http://www.w3.org/1999/xlink" width="1008pt" height="648pt" viewBox="0 0 1008 648" xmlns="http://www.w3.org/2000/svg" version="1.1">
 <metadata>
  <rdf:RDF xmlns:dc="http://purl.org/dc/elements/1.1/" xmlns:cc="http://creativecommons.org/ns#" xmlns:rdf="http://www.w3.org/1999/02/22-rdf-syntax-ns#">
   <cc:Work>
    <dc:type rdf:resource="http://purl.org/dc/dcmitype/StillImage"/>
    <dc:date>2024-06-03T10:45:47.291965</dc:date>
    <dc:format>image/svg+xml</dc:format>
    <dc:creator>
     <cc:Agent>
      <dc:title>Matplotlib v3.9.0, https://matplotlib.org/</dc:title>
     </cc:Agent>
    </dc:creator>
   </cc:Work>
  </rdf:RDF>
 </metadata>
 <defs>
  <style type="text/css">*{stroke-linejoin: round; stroke-linecap: butt}</style>
 </defs>
 <g id="figure_1">
  <g id="patch_1">
   <path d="M 0 648 
L 1008 648 
L 1008 0 
L 0 0 
z
" style="fill: #ffffff"/>
  </g>
  <g id="axes_1">
   <g id="patch_2">
    <path d="M 100.8 131.611034 
L 987.84 131.611034 
L 987.84 38.88 
L 100.8 38.88 
z
" style="fill: #eeeeee"/>
   </g>
   <g id="matplotlib.axis_1">
    <g id="xtick_1">
     <g id="line2d_1">
      <path d="M 141.12 131.611034 
L 141.12 38.88 
" clip-path="url(#p0680815dad)" style="fill: none; stroke-dasharray: 1.85,0.8; stroke-dashoffset: 0; stroke: #b2b2b2; stroke-width: 0.5"/>
     </g>
     <g id="line2d_2">
      <defs>
       <path id="m0f1de974d0" d="M 0 0 
L 0 -3.5 
" style="stroke: #000000; stroke-width: 0.8"/>
      </defs>
      <g>
       <use xlink:href="#m0f1de974d0" x="141.12" y="131.611034" style="stroke: #000000; stroke-width: 0.8"/>
      </g>
     </g>
    </g>
    <g id="xtick_2">
     <g id="line2d_3">
      <path d="M 302.4 131.611034 
L 302.4 38.88 
" clip-path="url(#p0680815dad)" style="fill: none; stroke-dasharray: 1.85,0.8; stroke-dashoffset: 0; stroke: #b2b2b2; stroke-width: 0.5"/>
     </g>
     <g id="line2d_4">
      <g>
       <use xlink:href="#m0f1de974d0" x="302.4" y="131.611034" style="stroke: #000000; stroke-width: 0.8"/>
      </g>
     </g>
    </g>
    <g id="xtick_3">
     <g id="line2d_5">
      <path d="M 463.68 131.611034 
L 463.68 38.88 
" clip-path="url(#p0680815dad)" style="fill: none; stroke-dasharray: 1.85,0.8; stroke-dashoffset: 0; stroke: #b2b2b2; stroke-width: 0.5"/>
     </g>
     <g id="line2d_6">
      <g>
       <use xlink:href="#m0f1de974d0" x="463.68" y="131.611034" style="stroke: #000000; stroke-width: 0.8"/>
      </g>
     </g>
    </g>
    <g id="xtick_4">
     <g id="line2d_7">
      <path d="M 624.96 131.611034 
L 624.96 38.88 
" clip-path="url(#p0680815dad)" style="fill: none; stroke-dasharray: 1.85,0.8; stroke-dashoffset: 0; stroke: #b2b2b2; stroke-width: 0.5"/>
     </g>
     <g id="line2d_8">
      <g>
       <use xlink:href="#m0f1de974d0" x="624.96" y="131.611034" style="stroke: #000000; stroke-width: 0.8"/>
      </g>
     </g>
    </g>
    <g id="xtick_5">
     <g id="line2d_9">
      <path d="M 786.24 131.611034 
L 786.24 38.88 
" clip-path="url(#p0680815dad)" style="fill: none; stroke-dasharray: 1.85,0.8; stroke-dashoffset: 0; stroke: #b2b2b2; stroke-width: 0.5"/>
     </g>
     <g id="line2d_10">
      <g>
       <use xlink:href="#m0f1de974d0" x="786.24" y="131.611034" style="stroke: #000000; stroke-width: 0.8"/>
      </g>
     </g>
    </g>
    <g id="xtick_6">
     <g id="line2d_11">
      <path d="M 947.52 131.611034 
L 947.52 38.88 
" clip-path="url(#p0680815dad)" style="fill: none; stroke-dasharray: 1.85,0.8; stroke-dashoffset: 0; stroke: #b2b2b2; stroke-width: 0.5"/>
     </g>
     <g id="line2d_12">
      <g>
       <use xlink:href="#m0f1de974d0" x="947.52" y="131.611034" style="stroke: #000000; stroke-width: 0.8"/>
      </g>
     </g>
    </g>
   </g>
   <g id="matplotlib.axis_2">
    <g id="ytick_1">
     <g id="line2d_13">
      <path d="M 100.8 98.340394 
L 987.84 98.340394 
" clip-path="url(#p0680815dad)" style="fill: none; stroke-dasharray: 1.85,0.8; stroke-dashoffset: 0; stroke: #b2b2b2; stroke-width: 0.5"/>
     </g>
     <g id="line2d_14">
      <defs>
       <path id="me879fbefc1" d="M 0 0 
L 3.5 0 
" style="stroke: #000000; stroke-width: 0.8"/>
      </defs>
      <g>
       <use xlink:href="#me879fbefc1" x="100.8" y="98.340394" style="stroke: #000000; stroke-width: 0.8"/>
      </g>
     </g>
     <g id="text_1">
      <!-- −200 V -->
      <g transform="translate(44.819688 103.6593) scale(0.14 -0.14)">
       <defs>
        <path id="DejaVuSans-2212" d="M 678 2272 
L 4684 2272 
L 4684 1741 
L 678 1741 
L 678 2272 
z
" transform="scale(0.015625)"/>
        <path id="DejaVuSans-32" d="M 1228 531 
L 3431 531 
L 3431 0 
L 469 0 
L 469 531 
Q 828 903 1448 1529 
Q 2069 2156 2228 2338 
Q 2531 2678 2651 2914 
Q 2772 3150 2772 3378 
Q 2772 3750 2511 3984 
Q 2250 4219 1831 4219 
Q 1534 4219 1204 4116 
Q 875 4013 500 3803 
L 500 4441 
Q 881 4594 1212 4672 
Q 1544 4750 1819 4750 
Q 2544 4750 2975 4387 
Q 3406 4025 3406 3419 
Q 3406 3131 3298 2873 
Q 3191 2616 2906 2266 
Q 2828 2175 2409 1742 
Q 1991 1309 1228 531 
z
" transform="scale(0.015625)"/>
        <path id="DejaVuSans-30" d="M 2034 4250 
Q 1547 4250 1301 3770 
Q 1056 3291 1056 2328 
Q 1056 1369 1301 889 
Q 1547 409 2034 409 
Q 2525 409 2770 889 
Q 3016 1369 3016 2328 
Q 3016 3291 2770 3770 
Q 2525 4250 2034 4250 
z
M 2034 4750 
Q 2819 4750 3233 4129 
Q 3647 3509 3647 2328 
Q 3647 1150 3233 529 
Q 2819 -91 2034 -91 
Q 1250 -91 836 529 
Q 422 1150 422 2328 
Q 422 3509 836 4129 
Q 1250 4750 2034 4750 
z
" transform="scale(0.015625)"/>
        <path id="DejaVuSans-20" transform="scale(0.015625)"/>
        <path id="DejaVuSans-56" d="M 1831 0 
L 50 4666 
L 709 4666 
L 2188 738 
L 3669 4666 
L 4325 4666 
L 2547 0 
L 1831 0 
z
" transform="scale(0.015625)"/>
       </defs>
       <use xlink:href="#DejaVuSans-2212"/>
       <use xlink:href="#DejaVuSans-32" x="83.789062"/>
       <use xlink:href="#DejaVuSans-30" x="147.412109"/>
       <use xlink:href="#DejaVuSans-30" x="211.035156"/>
       <use xlink:href="#DejaVuSans-20" x="274.658203"/>
       <use xlink:href="#DejaVuSans-56" x="306.445312"/>
      </g>
     </g>
    </g>
    <g id="ytick_2">
     <g id="line2d_15">
      <path d="M 100.8 45.027377 
L 987.84 45.027377 
" clip-path="url(#p0680815dad)" style="fill: none; stroke-dasharray: 1.85,0.8; stroke-dashoffset: 0; stroke: #b2b2b2; stroke-width: 0.5"/>
     </g>
     <g id="line2d_16">
      <g>
       <use xlink:href="#me879fbefc1" x="100.8" y="45.027377" style="stroke: #000000; stroke-width: 0.8"/>
      </g>
     </g>
     <g id="text_2">
      <!-- 0 V -->
      <g transform="translate(74.36625 50.346284) scale(0.14 -0.14)">
       <use xlink:href="#DejaVuSans-30"/>
       <use xlink:href="#DejaVuSans-20" x="63.623047"/>
       <use xlink:href="#DejaVuSans-56" x="95.410156"/>
      </g>
     </g>
    </g>
    <g id="text_3">
     <g id="patch_3">
      <path d="M 34.8768 131.080205 
L 34.8768 39.41083 
L 11.247425 39.41083 
L 11.247425 131.080205 
z
" style="fill: #ffff00; opacity: 0.2; stroke: #eeeeee; stroke-width: 0.5; stroke-linejoin: miter"/>
     </g>
     <!-- VPULSE BBI -->
     <g transform="translate(26.925238 126.040205) rotate(-90) scale(0.14 -0.14)">
      <defs>
       <path id="DejaVuSans-50" d="M 1259 4147 
L 1259 2394 
L 2053 2394 
Q 2494 2394 2734 2622 
Q 2975 2850 2975 3272 
Q 2975 3691 2734 3919 
Q 2494 4147 2053 4147 
L 1259 4147 
z
M 628 4666 
L 2053 4666 
Q 2838 4666 3239 4311 
Q 3641 3956 3641 3272 
Q 3641 2581 3239 2228 
Q 2838 1875 2053 1875 
L 1259 1875 
L 1259 0 
L 628 0 
L 628 4666 
z
" transform="scale(0.015625)"/>
       <path id="DejaVuSans-55" d="M 556 4666 
L 1191 4666 
L 1191 1831 
Q 1191 1081 1462 751 
Q 1734 422 2344 422 
Q 2950 422 3222 751 
Q 3494 1081 3494 1831 
L 3494 4666 
L 4128 4666 
L 4128 1753 
Q 4128 841 3676 375 
Q 3225 -91 2344 -91 
Q 1459 -91 1007 375 
Q 556 841 556 1753 
L 556 4666 
z
" transform="scale(0.015625)"/>
       <path id="DejaVuSans-4c" d="M 628 4666 
L 1259 4666 
L 1259 531 
L 3531 531 
L 3531 0 
L 628 0 
L 628 4666 
z
" transform="scale(0.015625)"/>
       <path id="DejaVuSans-53" d="M 3425 4513 
L 3425 3897 
Q 3066 4069 2747 4153 
Q 2428 4238 2131 4238 
Q 1616 4238 1336 4038 
Q 1056 3838 1056 3469 
Q 1056 3159 1242 3001 
Q 1428 2844 1947 2747 
L 2328 2669 
Q 3034 2534 3370 2195 
Q 3706 1856 3706 1288 
Q 3706 609 3251 259 
Q 2797 -91 1919 -91 
Q 1588 -91 1214 -16 
Q 841 59 441 206 
L 441 856 
Q 825 641 1194 531 
Q 1563 422 1919 422 
Q 2459 422 2753 634 
Q 3047 847 3047 1241 
Q 3047 1584 2836 1778 
Q 2625 1972 2144 2069 
L 1759 2144 
Q 1053 2284 737 2584 
Q 422 2884 422 3419 
Q 422 4038 858 4394 
Q 1294 4750 2059 4750 
Q 2388 4750 2728 4690 
Q 3069 4631 3425 4513 
z
" transform="scale(0.015625)"/>
       <path id="DejaVuSans-45" d="M 628 4666 
L 3578 4666 
L 3578 4134 
L 1259 4134 
L 1259 2753 
L 3481 2753 
L 3481 2222 
L 1259 2222 
L 1259 531 
L 3634 531 
L 3634 0 
L 628 0 
L 628 4666 
z
" transform="scale(0.015625)"/>
       <path id="DejaVuSans-42" d="M 1259 2228 
L 1259 519 
L 2272 519 
Q 2781 519 3026 730 
Q 3272 941 3272 1375 
Q 3272 1813 3026 2020 
Q 2781 2228 2272 2228 
L 1259 2228 
z
M 1259 4147 
L 1259 2741 
L 2194 2741 
Q 2656 2741 2882 2914 
Q 3109 3088 3109 3444 
Q 3109 3797 2882 3972 
Q 2656 4147 2194 4147 
L 1259 4147 
z
M 628 4666 
L 2241 4666 
Q 2963 4666 3353 4366 
Q 3744 4066 3744 3513 
Q 3744 3084 3544 2831 
Q 3344 2578 2956 2516 
Q 3422 2416 3680 2098 
Q 3938 1781 3938 1306 
Q 3938 681 3513 340 
Q 3088 0 2303 0 
L 628 0 
L 628 4666 
z
" transform="scale(0.015625)"/>
       <path id="DejaVuSans-49" d="M 628 4666 
L 1259 4666 
L 1259 0 
L 628 0 
L 628 4666 
z
" transform="scale(0.015625)"/>
      </defs>
      <use xlink:href="#DejaVuSans-56"/>
      <use xlink:href="#DejaVuSans-50" x="68.408203"/>
      <use xlink:href="#DejaVuSans-55" x="128.710938"/>
      <use xlink:href="#DejaVuSans-4c" x="201.904297"/>
      <use xlink:href="#DejaVuSans-53" x="257.617188"/>
      <use xlink:href="#DejaVuSans-45" x="321.09375"/>
      <use xlink:href="#DejaVuSans-20" x="384.277344"/>
      <use xlink:href="#DejaVuSans-42" x="416.064453"/>
      <use xlink:href="#DejaVuSans-42" x="484.667969"/>
      <use xlink:href="#DejaVuSans-49" x="553.271484"/>
     </g>
    </g>
   </g>
   <g id="line2d_17">
    <path d="M 141.12 45.027377 
L 457.261056 45.136282 
L 457.744896 46.425538 
L 465.970176 69.006772 
L 473.389056 89.863624 
L 475.001856 94.440546 
L 476.808192 99.673219 
L 480.29184 110.807642 
L 481.872384 115.853719 
L 483.098112 119.550977 
L 487.001088 121.36362 
L 487.581696 121.619522 
L 488.452608 122.003376 
L 489.097728 122.269941 
L 490.678272 122.936354 
L 491.323392 123.202919 
L 492.420096 123.629423 
L 493.161984 123.922644 
L 494.258688 124.349149 
L 495.161856 124.677024 
L 495.839232 124.943589 
L 496.645632 125.25547 
L 498.000384 125.804594 
L 500.645376 126.790885 
L 501.25824 127.022796 
L 503.1936 127.395987 
L 521.676288 127.289361 
L 521.90208 126.801547 
L 540.191232 75.087922 
L 543.932928 63.292417 
L 547.642368 51.617666 
L 552.254976 49.3412 
L 557.609472 46.984578 
L 566.318592 43.484472 
L 567.189504 43.268927 
L 581.478912 43.108189 
L 588.284928 43.184799 
L 603.638784 43.746186 
L 631.4112 44.46146 
L 657.05472 44.774399 
L 692.665344 44.945888 
L 740.694528 44.953885 
L 947.52 44.953885 
L 947.52 44.953885 
" clip-path="url(#p0680815dad)" style="fill: none; stroke: #ff0000; stroke-width: 2; stroke-linecap: square"/>
   </g>
   <g id="patch_4">
    <path d="M 100.8 131.611034 
L 100.8 38.88 
" style="fill: none; stroke: #bcbcbc; stroke-width: 0.8; stroke-linejoin: miter; stroke-linecap: square"/>
   </g>
   <g id="patch_5">
    <path d="M 987.84 131.611034 
L 987.84 38.88 
" style="fill: none; stroke: #bcbcbc; stroke-width: 0.8; stroke-linejoin: miter; stroke-linecap: square"/>
   </g>
   <g id="patch_6">
    <path d="M 100.8 131.611034 
L 987.84 131.611034 
" style="fill: none; stroke: #bcbcbc; stroke-width: 0.8; stroke-linejoin: miter; stroke-linecap: square"/>
   </g>
   <g id="patch_7">
    <path d="M 100.8 38.88 
L 987.84 38.88 
" style="fill: none; stroke: #bcbcbc; stroke-width: 0.8; stroke-linejoin: miter; stroke-linecap: square"/>
   </g>
  </g>
  <g id="axes_2">
   <g id="patch_8">
    <path d="M 100.8 242.888276 
L 987.84 242.888276 
L 987.84 150.157241 
L 100.8 150.157241 
z
" style="fill: #eeeeee"/>
   </g>
   <g id="matplotlib.axis_3">
    <g id="xtick_7">
     <g id="line2d_18">
      <path d="M 141.12 242.888276 
L 141.12 150.157241 
" clip-path="url(#pd4ef654bef)" style="fill: none; stroke-dasharray: 1.85,0.8; stroke-dashoffset: 0; stroke: #b2b2b2; stroke-width: 0.5"/>
     </g>
     <g id="line2d_19">
      <g>
       <use xlink:href="#m0f1de974d0" x="141.12" y="242.888276" style="stroke: #000000; stroke-width: 0.8"/>
      </g>
     </g>
    </g>
    <g id="xtick_8">
     <g id="line2d_20">
      <path d="M 302.4 242.888276 
L 302.4 150.157241 
" clip-path="url(#pd4ef654bef)" style="fill: none; stroke-dasharray: 1.85,0.8; stroke-dashoffset: 0; stroke: #b2b2b2; stroke-width: 0.5"/>
     </g>
     <g id="line2d_21">
      <g>
       <use xlink:href="#m0f1de974d0" x="302.4" y="242.888276" style="stroke: #000000; stroke-width: 0.8"/>
      </g>
     </g>
    </g>
    <g id="xtick_9">
     <g id="line2d_22">
      <path d="M 463.68 242.888276 
L 463.68 150.157241 
" clip-path="url(#pd4ef654bef)" style="fill: none; stroke-dasharray: 1.85,0.8; stroke-dashoffset: 0; stroke: #b2b2b2; stroke-width: 0.5"/>
     </g>
     <g id="line2d_23">
      <g>
       <use xlink:href="#m0f1de974d0" x="463.68" y="242.888276" style="stroke: #000000; stroke-width: 0.8"/>
      </g>
     </g>
    </g>
    <g id="xtick_10">
     <g id="line2d_24">
      <path d="M 624.96 242.888276 
L 624.96 150.157241 
" clip-path="url(#pd4ef654bef)" style="fill: none; stroke-dasharray: 1.85,0.8; stroke-dashoffset: 0; stroke: #b2b2b2; stroke-width: 0.5"/>
     </g>
     <g id="line2d_25">
      <g>
       <use xlink:href="#m0f1de974d0" x="624.96" y="242.888276" style="stroke: #000000; stroke-width: 0.8"/>
      </g>
     </g>
    </g>
    <g id="xtick_11">
     <g id="line2d_26">
      <path d="M 786.24 242.888276 
L 786.24 150.157241 
" clip-path="url(#pd4ef654bef)" style="fill: none; stroke-dasharray: 1.85,0.8; stroke-dashoffset: 0; stroke: #b2b2b2; stroke-width: 0.5"/>
     </g>
     <g id="line2d_27">
      <g>
       <use xlink:href="#m0f1de974d0" x="786.24" y="242.888276" style="stroke: #000000; stroke-width: 0.8"/>
      </g>
     </g>
    </g>
    <g id="xtick_12">
     <g id="line2d_28">
      <path d="M 947.52 242.888276 
L 947.52 150.157241 
" clip-path="url(#pd4ef654bef)" style="fill: none; stroke-dasharray: 1.85,0.8; stroke-dashoffset: 0; stroke: #b2b2b2; stroke-width: 0.5"/>
     </g>
     <g id="line2d_29">
      <g>
       <use xlink:href="#m0f1de974d0" x="947.52" y="242.888276" style="stroke: #000000; stroke-width: 0.8"/>
      </g>
     </g>
    </g>
   </g>
   <g id="matplotlib.axis_4">
    <g id="ytick_3">
     <g id="line2d_30">
      <path d="M 100.8 219.158808 
L 987.84 219.158808 
" clip-path="url(#pd4ef654bef)" style="fill: none; stroke-dasharray: 1.85,0.8; stroke-dashoffset: 0; stroke: #b2b2b2; stroke-width: 0.5"/>
     </g>
     <g id="line2d_31">
      <g>
       <use xlink:href="#me879fbefc1" x="100.8" y="219.158808" style="stroke: #000000; stroke-width: 0.8"/>
      </g>
     </g>
     <g id="text_4">
      <!-- 0 V -->
      <g transform="translate(74.36625 224.477714) scale(0.14 -0.14)">
       <use xlink:href="#DejaVuSans-30"/>
       <use xlink:href="#DejaVuSans-20" x="63.623047"/>
       <use xlink:href="#DejaVuSans-56" x="95.410156"/>
      </g>
     </g>
    </g>
    <g id="ytick_4">
     <g id="line2d_32">
      <path d="M 100.8 185.191147 
L 987.84 185.191147 
" clip-path="url(#pd4ef654bef)" style="fill: none; stroke-dasharray: 1.85,0.8; stroke-dashoffset: 0; stroke: #b2b2b2; stroke-width: 0.5"/>
     </g>
     <g id="line2d_33">
      <g>
       <use xlink:href="#me879fbefc1" x="100.8" y="185.191147" style="stroke: #000000; stroke-width: 0.8"/>
      </g>
     </g>
     <g id="text_5">
      <!-- 1 V -->
      <g transform="translate(74.36625 190.510053) scale(0.14 -0.14)">
       <defs>
        <path id="DejaVuSans-31" d="M 794 531 
L 1825 531 
L 1825 4091 
L 703 3866 
L 703 4441 
L 1819 4666 
L 2450 4666 
L 2450 531 
L 3481 531 
L 3481 0 
L 794 0 
L 794 531 
z
" transform="scale(0.015625)"/>
       </defs>
       <use xlink:href="#DejaVuSans-31"/>
       <use xlink:href="#DejaVuSans-20" x="63.623047"/>
       <use xlink:href="#DejaVuSans-56" x="95.410156"/>
      </g>
     </g>
    </g>
    <g id="ytick_5">
     <g id="line2d_34">
      <path d="M 100.8 151.223486 
L 987.84 151.223486 
" clip-path="url(#pd4ef654bef)" style="fill: none; stroke-dasharray: 1.85,0.8; stroke-dashoffset: 0; stroke: #b2b2b2; stroke-width: 0.5"/>
     </g>
     <g id="line2d_35">
      <g>
       <use xlink:href="#me879fbefc1" x="100.8" y="151.223486" style="stroke: #000000; stroke-width: 0.8"/>
      </g>
     </g>
     <g id="text_6">
      <!-- 2 V -->
      <g transform="translate(74.36625 156.542393) scale(0.14 -0.14)">
       <use xlink:href="#DejaVuSans-32"/>
       <use xlink:href="#DejaVuSans-20" x="63.623047"/>
       <use xlink:href="#DejaVuSans-56" x="95.410156"/>
      </g>
     </g>
    </g>
    <g id="text_7">
     <g id="patch_9">
      <path d="M 34.8768 224.531509 
L 34.8768 168.514009 
L 11.247425 168.514009 
L 11.247425 224.531509 
z
" style="fill: #ffff00; opacity: 0.2; stroke: #eeeeee; stroke-width: 0.5; stroke-linejoin: miter"/>
     </g>
     <!-- DFF IN -->
     <g transform="translate(26.925238 219.491509) rotate(-90) scale(0.14 -0.14)">
      <defs>
       <path id="DejaVuSans-44" d="M 1259 4147 
L 1259 519 
L 2022 519 
Q 2988 519 3436 956 
Q 3884 1394 3884 2338 
Q 3884 3275 3436 3711 
Q 2988 4147 2022 4147 
L 1259 4147 
z
M 628 4666 
L 1925 4666 
Q 3281 4666 3915 4102 
Q 4550 3538 4550 2338 
Q 4550 1131 3912 565 
Q 3275 0 1925 0 
L 628 0 
L 628 4666 
z
" transform="scale(0.015625)"/>
       <path id="DejaVuSans-46" d="M 628 4666 
L 3309 4666 
L 3309 4134 
L 1259 4134 
L 1259 2759 
L 3109 2759 
L 3109 2228 
L 1259 2228 
L 1259 0 
L 628 0 
L 628 4666 
z
" transform="scale(0.015625)"/>
       <path id="DejaVuSans-4e" d="M 628 4666 
L 1478 4666 
L 3547 763 
L 3547 4666 
L 4159 4666 
L 4159 0 
L 3309 0 
L 1241 3903 
L 1241 0 
L 628 0 
L 628 4666 
z
" transform="scale(0.015625)"/>
      </defs>
      <use xlink:href="#DejaVuSans-44"/>
      <use xlink:href="#DejaVuSans-46" x="77.001953"/>
      <use xlink:href="#DejaVuSans-46" x="134.521484"/>
      <use xlink:href="#DejaVuSans-20" x="192.041016"/>
      <use xlink:href="#DejaVuSans-49" x="223.828125"/>
      <use xlink:href="#DejaVuSans-4e" x="253.320312"/>
     </g>
    </g>
   </g>
   <g id="line2d_36">
    <path d="M 141.12 219.109201 
L 221.953536 219.062622 
L 224.437248 200.136238 
L 225.404928 194.37872 
L 228.243456 181.719652 
L 229.598208 180.449262 
L 231.178752 179.576293 
L 236.533248 179.121126 
L 243.5328 179.01243 
L 244.952064 178.971668 
L 248.145408 178.862972 
L 249.790464 178.798433 
L 251.887104 178.689737 
L 254.241792 178.343267 
L 254.757888 177.806578 
L 255.499776 177.466901 
L 256.338432 177.480488 
L 259.789824 178.095303 
L 262.467072 178.268538 
L 263.886336 178.316092 
L 264.144384 183.553906 
L 264.434688 187.117793 
L 265.176576 191.865453 
L 267.144192 209.194734 
L 268.402176 215.70124 
L 269.047296 216.984062 
L 270.46656 218.746304 
L 273.724416 219.160642 
L 282.530304 219.11324 
L 297.045504 219.103118 
L 305.851392 219.108386 
L 347.751936 219.064317 
L 350.235648 200.17632 
L 351.622656 191.540722 
L 352.654848 186.250598 
L 354.97728 179.256997 
L 358.493184 178.258347 
L 360.202752 178.32968 
L 363.009024 178.438376 
L 364.33152 178.468947 
L 375.169536 178.540279 
L 375.717888 179.532135 
L 376.169472 180.28282 
L 377.008128 181.189757 
L 377.524224 181.138805 
L 378.427392 180.846683 
L 380.427264 179.708767 
L 381.58848 179.335122 
L 387.168768 178.856178 
L 389.587968 178.747482 
L 391.684608 178.635388 
L 394.232832 178.526692 
L 395.61984 178.489328 
L 415.360512 178.404408 
L 416.489472 177.473694 
L 417.037824 177.409156 
L 417.908736 177.517852 
L 419.16672 177.799784 
L 420.908544 178.054541 
L 423.940608 178.265141 
L 455.712768 178.363647 
L 456.648192 179.202648 
L 457.39008 179.623847 
L 458.744832 181.971013 
L 463.325184 187.441505 
L 466.324992 191.636171 
L 466.647552 192.390253 
L 467.518464 195.444285 
L 470.389248 207.118631 
L 470.9376 209.815663 
L 472.098816 214.26203 
L 474.64704 222.985944 
L 475.324416 224.551514 
L 475.905024 225.78386 
L 476.292096 226.144257 
L 476.5824 226.574627 
L 477.001728 227.747191 
L 477.421056 228.565472 
L 477.646848 228.837553 
L 478.066176 229.782533 
L 478.582272 230.89939 
L 478.969344 231.439476 
L 479.453184 232.53765 
L 479.808 233.243838 
L 482.646528 238.091363 
L 482.969088 238.525809 
L 483.130368 238.673229 
L 484.033536 237.686129 
L 484.356096 237.060105 
L 484.6464 236.529869 
L 484.872192 236.23537 
L 485.13024 235.939851 
L 485.743104 235.299221 
L 485.968896 234.925577 
L 486.355968 234.274756 
L 486.646272 234.097785 
L 487.71072 233.247914 
L 488.291328 232.624268 
L 488.807424 231.820933 
L 489.129984 231.639885 
L 489.259008 231.559382 
L 489.549312 231.317872 
L 489.871872 231.220384 
L 490.484736 230.719361 
L 491.000832 230.217999 
L 491.58144 229.296796 
L 491.968512 229.141224 
L 492.22656 229.042378 
L 492.903936 228.614725 
L 493.936128 227.709147 
L 494.065152 227.493453 
L 494.419968 226.875581 
L 494.903808 226.637807 
L 495.484416 226.430265 
L 497.097216 225.178557 
L 497.968128 224.308645 
L 498.51648 224.083439 
L 499.871232 223.070184 
L 500.355072 222.715901 
L 501.387264 221.849658 
L 502.838784 220.556203 
L 504.258048 218.664103 
L 507.580416 214.127178 
L 509.419008 211.830964 
L 511.676928 209.112193 
L 512.902656 205.43893 
L 513.967104 202.630823 
L 514.708992 201.117224 
L 516.450816 198.549269 
L 517.031424 197.822361 
L 518.128128 196.309442 
L 518.934528 195.472818 
L 520.031232 194.101544 
L 520.740864 193.468387 
L 521.7408 192.386856 
L 521.966592 191.801254 
L 522.772992 188.783227 
L 523.67616 185.800187 
L 524.547072 183.682983 
L 525.353472 182.232564 
L 526.192128 181.267882 
L 527.933952 179.664609 
L 529.96608 176.923418 
L 532.06272 173.815377 
L 532.86912 172.619716 
L 533.869056 171.152313 
L 536.352768 167.728373 
L 536.41728 167.826879 
L 537.320448 169.304472 
L 537.836544 169.406375 
L 538.417152 168.981779 
L 538.868736 168.414519 
L 539.449344 167.31057 
L 541.513728 162.799665 
L 542.54592 160.978998 
L 544.997376 157.558455 
L 546.545664 155.598521 
L 547.577856 154.372288 
L 549.029376 154.715362 
L 552.803328 155.22148 
L 554.416128 155.615505 
L 556.383744 156.142004 
L 567.189504 159.671243 
L 568.963584 160.537419 
L 570.511872 161.230359 
L 576.672768 163.808505 
L 576.705024 163.730379 
L 577.124352 163.064613 
L 577.479168 162.874394 
L 577.833984 162.901568 
L 578.285568 163.152929 
L 581.769216 165.591807 
L 586.123776 167.307174 
L 586.962432 167.595899 
L 593.381376 169.508278 
L 595.510272 170.068744 
L 596.123136 170.211409 
L 610.12224 173.054502 
L 610.509312 173.115644 
L 612.605952 173.44513 
L 614.992896 173.805187 
L 615.60576 173.883313 
L 616.379904 173.988612 
L 617.05728 174.212799 
L 617.508864 174.888755 
L 617.86368 175.16729 
L 618.67008 175.391477 
L 620.089344 175.133323 
L 622.185984 174.803836 
L 623.056896 174.814027 
L 623.798784 174.858185 
L 631.830528 175.595283 
L 633.024 175.700583 
L 633.540096 175.748137 
L 634.47552 175.833056 
L 635.991552 175.941753 
L 639.184896 176.172733 
L 639.830016 176.210097 
L 642.53952 176.386729 
L 644.345856 176.495426 
L 646.668288 176.634693 
L 647.410176 176.665264 
L 649.345536 176.760374 
L 651.280896 176.86907 
L 653.184 176.960783 
L 655.699968 177.069479 
L 657.280512 177.140811 
L 657.635328 176.699232 
L 658.119168 176.349365 
L 658.893312 176.216891 
L 659.538432 176.325588 
L 660.473856 176.600726 
L 661.89312 176.937005 
L 668.118528 177.483885 
L 671.56992 177.589185 
L 672.182784 177.606168 
L 676.343808 177.711468 
L 676.924416 177.721658 
L 677.763072 177.738642 
L 678.34368 177.755626 
L 679.343616 177.755626 
L 680.666112 177.786197 
L 687.53664 177.891497 
L 688.149504 177.911877 
L 697.632768 178.020574 
L 698.568192 178.856178 
L 699.535872 179.056587 
L 702.180864 178.669356 
L 704.761344 178.237967 
L 706.24512 178.190412 
L 713.212416 178.081716 
L 714.276864 178.078319 
L 737.985024 177.983209 
L 738.533376 177.412553 
L 739.178496 177.127224 
L 740.2752 177.117034 
L 744.242688 177.840545 
L 745.92 177.908481 
L 778.240512 178.017177 
L 778.401792 178.197206 
L 778.917888 178.716911 
L 779.30496 178.900336 
L 779.917824 179.039604 
L 782.272512 178.934304 
L 784.562688 178.564056 
L 790.013952 178.098699 
L 818.625024 177.990003 
L 819.108864 177.456711 
L 819.818496 177.127224 
L 820.9152 177.120431 
L 824.818176 177.830355 
L 826.592256 177.908481 
L 858.880512 178.017177 
L 859.009536 178.149651 
L 859.493376 178.672753 
L 860.170752 178.971668 
L 861.88032 179.043 
L 866.815488 178.414599 
L 868.073472 178.261744 
L 871.39584 178.020574 
L 899.29728 177.939051 
L 899.748864 177.453314 
L 900.458496 177.127224 
L 901.5552 177.117034 
L 905.522688 177.840545 
L 907.2 177.908481 
L 939.520512 178.017177 
L 939.681792 178.200602 
L 940.165632 178.68634 
L 940.649472 178.90713 
L 941.55264 179.083762 
L 943.455744 178.975065 
L 944.77824 178.727101 
L 947.003904 178.370441 
L 947.52 178.292315 
L 947.52 178.292315 
" clip-path="url(#pd4ef654bef)" style="fill: none; stroke: #008000; stroke-width: 2; stroke-linecap: square"/>
   </g>
   <g id="patch_10">
    <path d="M 100.8 242.888276 
L 100.8 150.157241 
" style="fill: none; stroke: #bcbcbc; stroke-width: 0.8; stroke-linejoin: miter; stroke-linecap: square"/>
   </g>
   <g id="patch_11">
    <path d="M 987.84 242.888276 
L 987.84 150.157241 
" style="fill: none; stroke: #bcbcbc; stroke-width: 0.8; stroke-linejoin: miter; stroke-linecap: square"/>
   </g>
   <g id="patch_12">
    <path d="M 100.8 242.888276 
L 987.84 242.888276 
" style="fill: none; stroke: #bcbcbc; stroke-width: 0.8; stroke-linejoin: miter; stroke-linecap: square"/>
   </g>
   <g id="patch_13">
    <path d="M 100.8 150.157241 
L 987.84 150.157241 
" style="fill: none; stroke: #bcbcbc; stroke-width: 0.8; stroke-linejoin: miter; stroke-linecap: square"/>
   </g>
  </g>
  <g id="axes_3">
   <g id="patch_14">
    <path d="M 100.8 354.165517 
L 987.84 354.165517 
L 987.84 261.434483 
L 100.8 261.434483 
z
" style="fill: #eeeeee"/>
   </g>
   <g id="matplotlib.axis_5">
    <g id="xtick_13">
     <g id="line2d_37">
      <path d="M 141.12 354.165517 
L 141.12 261.434483 
" clip-path="url(#p2baefe6abe)" style="fill: none; stroke-dasharray: 1.85,0.8; stroke-dashoffset: 0; stroke: #b2b2b2; stroke-width: 0.5"/>
     </g>
     <g id="line2d_38">
      <g>
       <use xlink:href="#m0f1de974d0" x="141.12" y="354.165517" style="stroke: #000000; stroke-width: 0.8"/>
      </g>
     </g>
    </g>
    <g id="xtick_14">
     <g id="line2d_39">
      <path d="M 302.4 354.165517 
L 302.4 261.434483 
" clip-path="url(#p2baefe6abe)" style="fill: none; stroke-dasharray: 1.85,0.8; stroke-dashoffset: 0; stroke: #b2b2b2; stroke-width: 0.5"/>
     </g>
     <g id="line2d_40">
      <g>
       <use xlink:href="#m0f1de974d0" x="302.4" y="354.165517" style="stroke: #000000; stroke-width: 0.8"/>
      </g>
     </g>
    </g>
    <g id="xtick_15">
     <g id="line2d_41">
      <path d="M 463.68 354.165517 
L 463.68 261.434483 
" clip-path="url(#p2baefe6abe)" style="fill: none; stroke-dasharray: 1.85,0.8; stroke-dashoffset: 0; stroke: #b2b2b2; stroke-width: 0.5"/>
     </g>
     <g id="line2d_42">
      <g>
       <use xlink:href="#m0f1de974d0" x="463.68" y="354.165517" style="stroke: #000000; stroke-width: 0.8"/>
      </g>
     </g>
    </g>
    <g id="xtick_16">
     <g id="line2d_43">
      <path d="M 624.96 354.165517 
L 624.96 261.434483 
" clip-path="url(#p2baefe6abe)" style="fill: none; stroke-dasharray: 1.85,0.8; stroke-dashoffset: 0; stroke: #b2b2b2; stroke-width: 0.5"/>
     </g>
     <g id="line2d_44">
      <g>
       <use xlink:href="#m0f1de974d0" x="624.96" y="354.165517" style="stroke: #000000; stroke-width: 0.8"/>
      </g>
     </g>
    </g>
    <g id="xtick_17">
     <g id="line2d_45">
      <path d="M 786.24 354.165517 
L 786.24 261.434483 
" clip-path="url(#p2baefe6abe)" style="fill: none; stroke-dasharray: 1.85,0.8; stroke-dashoffset: 0; stroke: #b2b2b2; stroke-width: 0.5"/>
     </g>
     <g id="line2d_46">
      <g>
       <use xlink:href="#m0f1de974d0" x="786.24" y="354.165517" style="stroke: #000000; stroke-width: 0.8"/>
      </g>
     </g>
    </g>
    <g id="xtick_18">
     <g id="line2d_47">
      <path d="M 947.52 354.165517 
L 947.52 261.434483 
" clip-path="url(#p2baefe6abe)" style="fill: none; stroke-dasharray: 1.85,0.8; stroke-dashoffset: 0; stroke: #b2b2b2; stroke-width: 0.5"/>
     </g>
     <g id="line2d_48">
      <g>
       <use xlink:href="#m0f1de974d0" x="947.52" y="354.165517" style="stroke: #000000; stroke-width: 0.8"/>
      </g>
     </g>
    </g>
   </g>
   <g id="matplotlib.axis_6">
    <g id="ytick_6">
     <g id="line2d_49">
      <path d="M 100.8 343.85676 
L 987.84 343.85676 
" clip-path="url(#p2baefe6abe)" style="fill: none; stroke-dasharray: 1.85,0.8; stroke-dashoffset: 0; stroke: #b2b2b2; stroke-width: 0.5"/>
     </g>
     <g id="line2d_50">
      <g>
       <use xlink:href="#me879fbefc1" x="100.8" y="343.85676" style="stroke: #000000; stroke-width: 0.8"/>
      </g>
     </g>
     <g id="text_8">
      <!-- 0 V -->
      <g transform="translate(74.36625 349.175666) scale(0.14 -0.14)">
       <use xlink:href="#DejaVuSans-30"/>
       <use xlink:href="#DejaVuSans-20" x="63.623047"/>
       <use xlink:href="#DejaVuSans-56" x="95.410156"/>
      </g>
     </g>
    </g>
    <g id="ytick_7">
     <g id="line2d_51">
      <path d="M 100.8 296.122855 
L 987.84 296.122855 
" clip-path="url(#p2baefe6abe)" style="fill: none; stroke-dasharray: 1.85,0.8; stroke-dashoffset: 0; stroke: #b2b2b2; stroke-width: 0.5"/>
     </g>
     <g id="line2d_52">
      <g>
       <use xlink:href="#me879fbefc1" x="100.8" y="296.122855" style="stroke: #000000; stroke-width: 0.8"/>
      </g>
     </g>
     <g id="text_9">
      <!-- 1 V -->
      <g transform="translate(74.36625 301.441761) scale(0.14 -0.14)">
       <use xlink:href="#DejaVuSans-31"/>
       <use xlink:href="#DejaVuSans-20" x="63.623047"/>
       <use xlink:href="#DejaVuSans-56" x="95.410156"/>
      </g>
     </g>
    </g>
    <g id="text_10">
     <g id="patch_15">
      <path d="M 34.8768 342.395313 
L 34.8768 273.204688 
L 11.247425 273.204688 
L 11.247425 342.395313 
z
" style="fill: #ffff00; opacity: 0.2; stroke: #eeeeee; stroke-width: 0.5; stroke-linejoin: miter"/>
     </g>
     <!-- CLK BUF -->
     <g transform="translate(26.925238 337.355313) rotate(-90) scale(0.14 -0.14)">
      <defs>
       <path id="DejaVuSans-43" d="M 4122 4306 
L 4122 3641 
Q 3803 3938 3442 4084 
Q 3081 4231 2675 4231 
Q 1875 4231 1450 3742 
Q 1025 3253 1025 2328 
Q 1025 1406 1450 917 
Q 1875 428 2675 428 
Q 3081 428 3442 575 
Q 3803 722 4122 1019 
L 4122 359 
Q 3791 134 3420 21 
Q 3050 -91 2638 -91 
Q 1578 -91 968 557 
Q 359 1206 359 2328 
Q 359 3453 968 4101 
Q 1578 4750 2638 4750 
Q 3056 4750 3426 4639 
Q 3797 4528 4122 4306 
z
" transform="scale(0.015625)"/>
       <path id="DejaVuSans-4b" d="M 628 4666 
L 1259 4666 
L 1259 2694 
L 3353 4666 
L 4166 4666 
L 1850 2491 
L 4331 0 
L 3500 0 
L 1259 2247 
L 1259 0 
L 628 0 
L 628 4666 
z
" transform="scale(0.015625)"/>
      </defs>
      <use xlink:href="#DejaVuSans-43"/>
      <use xlink:href="#DejaVuSans-4c" x="69.824219"/>
      <use xlink:href="#DejaVuSans-4b" x="125.537109"/>
      <use xlink:href="#DejaVuSans-20" x="191.113281"/>
      <use xlink:href="#DejaVuSans-42" x="222.900391"/>
      <use xlink:href="#DejaVuSans-55" x="291.503906"/>
      <use xlink:href="#DejaVuSans-46" x="364.697266"/>
     </g>
    </g>
   </g>
   <g id="line2d_53">
    <path d="M 141.12 343.855498 
L 173.376 343.855498 
L 173.601792 286.576074 
L 213.696 286.576074 
L 213.760512 332.26649 
L 213.825024 343.834953 
L 213.889536 343.766261 
L 213.954048 343.956953 
L 214.01856 343.861933 
L 215.212032 343.853821 
L 222.598656 343.855514 
L 254.016 343.855465 
L 254.17728 286.399458 
L 254.241792 286.704955 
L 254.403072 286.566527 
L 254.8224 286.576074 
L 294.336 286.576074 
L 294.400512 332.226394 
L 294.465024 344.212955 
L 294.529536 343.383039 
L 294.626304 343.931774 
L 294.65856 343.897807 
L 294.852096 343.813907 
L 295.206912 343.87413 
L 295.46496 343.855283 
L 318.20544 343.855499 
L 334.656 343.8555 
L 334.81728 286.490153 
L 334.881792 286.595167 
L 335.172096 286.580847 
L 374.976 286.576074 
L 375.040512 332.270786 
L 375.105024 343.857534 
L 375.169536 343.760209 
L 375.234048 343.949851 
L 375.29856 343.862091 
L 376.556544 343.853341 
L 384.201216 343.855496 
L 415.296 343.8555 
L 415.45728 286.399458 
L 415.521792 286.704955 
L 415.683072 286.561754 
L 416.42496 286.561754 
L 455.616 286.576074 
L 455.648256 294.03211 
L 455.77728 343.758142 
L 455.906304 343.854132 
L 457.357824 344.031791 
L 457.970688 344.665086 
L 458.744832 345.115598 
L 459.744768 345.395176 
L 461.164032 345.527112 
L 463.938048 345.502911 
L 475.356672 345.225386 
L 475.905024 345.360951 
L 476.324352 345.504248 
L 477.06624 345.914091 
L 483.098112 349.880301 
L 483.646464 349.465494 
L 483.67872 349.548073 
L 483.743232 349.433512 
L 484.033536 349.357615 
L 485.001216 348.911303 
L 485.194752 348.845908 
L 485.4528 348.752827 
L 487.517184 347.953331 
L 487.936512 347.795857 
L 488.904192 347.444392 
L 493.613568 345.861441 
L 493.871616 345.778766 
L 494.290944 345.654132 
L 495.936 345.165194 
L 495.968256 346.598309 
L 496.161792 319.484783 
L 496.355328 319.334898 
L 497.355264 318.9578 
L 497.484288 318.835124 
L 497.5488 318.917704 
L 497.613312 318.863287 
L 498.064896 318.70672 
L 500.838912 317.636048 
L 502.645248 316.862759 
L 502.903296 316.695691 
L 504.612864 315.587787 
L 505.645056 314.860322 
L 509.031936 312.393911 
L 514.612224 308.647277 
L 517.837824 306.7236 
L 521.837568 304.408983 
L 523.224576 301.509626 
L 525.514752 295.984426 
L 528.740352 288.170386 
L 531.385344 282.184555 
L 532.38528 280.022209 
L 536.256 272.146114 
L 536.481792 342.185691 
L 537.159168 342.208174 
L 541.675008 342.294716 
L 543.19104 342.253426 
L 547.481088 342.384503 
L 547.771392 342.711098 
L 548.416512 343.336222 
L 549.1584 343.753898 
L 550.158336 344.048569 
L 551.5776 344.218941 
L 554.31936 344.289864 
L 564.512256 344.228798 
L 567.673344 344.325282 
L 569.705472 344.403265 
L 576.576 344.342643 
L 576.705024 265.64953 
L 576.866304 266.284391 
L 578.156544 266.966986 
L 578.640384 267.253389 
L 580.156416 268.045772 
L 581.478912 268.699726 
L 584.96256 270.36564 
L 585.801216 270.733191 
L 592.736256 273.692693 
L 592.994304 273.802481 
L 594.832896 274.504169 
L 595.1232 274.613957 
L 596.316672 275.029242 
L 596.671488 275.13903 
L 597.86496 275.554315 
L 598.123008 275.65933 
L 598.542336 275.792985 
L 598.897152 275.897999 
L 599.31648 276.031654 
L 599.671296 276.136669 
L 600.187392 276.318058 
L 600.542208 276.423072 
L 600.961536 276.556727 
L 601.316352 276.661742 
L 601.73568 276.795397 
L 602.090496 276.900411 
L 602.445312 276.986332 
L 607.832064 278.466083 
L 608.283648 278.571098 
L 608.638464 278.657019 
L 611.122176 279.27756 
L 611.670528 279.382574 
L 612.025344 279.468495 
L 613.541376 279.802633 
L 614.089728 279.907647 
L 614.444544 279.993568 
L 614.96064 280.098583 
L 615.315456 280.17973 
L 616.896 280.480454 
L 616.928256 289.101197 
L 617.05728 344.034659 
L 617.315328 344.019618 
L 652.958208 343.909191 
L 657.216 343.902423 
L 657.409536 284.891067 
L 657.69984 284.905387 
L 659.95776 285.015175 
L 660.28032 285.048589 
L 663.054336 285.158377 
L 663.376896 285.191791 
L 666.441216 285.301579 
L 666.763776 285.334992 
L 670.215168 285.44478 
L 670.537728 285.478194 
L 674.47296 285.587982 
L 674.79552 285.621396 
L 679.408128 285.731184 
L 679.730688 285.764597 
L 685.310976 285.874385 
L 685.633536 285.907799 
L 692.568576 286.017587 
L 692.891136 286.051001 
L 697.536 286.098735 
L 697.568256 290.604815 
L 697.632768 343.985221 
L 697.69728 343.698756 
L 697.794048 344.026974 
L 697.85856 343.877457 
L 698.632704 343.874746 
L 704.696832 343.861441 
L 724.727808 343.869153 
L 737.856 343.869126 
L 738.01728 286.003267 
L 738.081792 286.117828 
L 738.952704 286.098735 
L 778.176 286.098735 
L 778.305024 344.221328 
L 778.466304 343.943736 
L 778.724352 343.837263 
L 779.079168 343.889224 
L 779.369472 343.869022 
L 813.431808 343.869168 
L 818.496 343.869163 
L 818.65728 286.003267 
L 818.721792 286.117828 
L 819.592704 286.098735 
L 858.816 286.098735 
L 859.074048 344.778215 
L 859.106304 344.175474 
L 859.235328 343.816751 
L 861.815808 343.869942 
L 899.136 343.869165 
L 899.29728 286.003267 
L 899.361792 286.117828 
L 900.232704 286.098735 
L 939.456 286.098735 
L 939.488256 294.705158 
L 939.61728 343.812395 
L 939.649536 343.951197 
L 939.714048 343.818401 
L 939.746304 343.776514 
L 939.810816 343.838124 
L 939.972096 343.932867 
L 940.004352 343.897734 
L 940.197888 343.868377 
L 945.1008 343.869177 
L 947.52 343.869156 
L 947.52 343.869156 
" clip-path="url(#p2baefe6abe)" style="fill: none; stroke: #0000ff; stroke-width: 2; stroke-linecap: square"/>
   </g>
   <g id="patch_16">
    <path d="M 100.8 354.165517 
L 100.8 261.434483 
" style="fill: none; stroke: #bcbcbc; stroke-width: 0.8; stroke-linejoin: miter; stroke-linecap: square"/>
   </g>
   <g id="patch_17">
    <path d="M 987.84 354.165517 
L 987.84 261.434483 
" style="fill: none; stroke: #bcbcbc; stroke-width: 0.8; stroke-linejoin: miter; stroke-linecap: square"/>
   </g>
   <g id="patch_18">
    <path d="M 100.8 354.165517 
L 987.84 354.165517 
" style="fill: none; stroke: #bcbcbc; stroke-width: 0.8; stroke-linejoin: miter; stroke-linecap: square"/>
   </g>
   <g id="patch_19">
    <path d="M 100.8 261.434483 
L 987.84 261.434483 
" style="fill: none; stroke: #bcbcbc; stroke-width: 0.8; stroke-linejoin: miter; stroke-linecap: square"/>
   </g>
  </g>
  <g id="axes_4">
   <g id="patch_20">
    <path d="M 100.8 465.442759 
L 987.84 465.442759 
L 987.84 372.711724 
L 100.8 372.711724 
z
" style="fill: #eeeeee"/>
   </g>
   <g id="matplotlib.axis_7">
    <g id="xtick_19">
     <g id="line2d_54">
      <path d="M 141.12 465.442759 
L 141.12 372.711724 
" clip-path="url(#p555d2d1369)" style="fill: none; stroke-dasharray: 1.85,0.8; stroke-dashoffset: 0; stroke: #b2b2b2; stroke-width: 0.5"/>
     </g>
     <g id="line2d_55">
      <g>
       <use xlink:href="#m0f1de974d0" x="141.12" y="465.442759" style="stroke: #000000; stroke-width: 0.8"/>
      </g>
     </g>
    </g>
    <g id="xtick_20">
     <g id="line2d_56">
      <path d="M 302.4 465.442759 
L 302.4 372.711724 
" clip-path="url(#p555d2d1369)" style="fill: none; stroke-dasharray: 1.85,0.8; stroke-dashoffset: 0; stroke: #b2b2b2; stroke-width: 0.5"/>
     </g>
     <g id="line2d_57">
      <g>
       <use xlink:href="#m0f1de974d0" x="302.4" y="465.442759" style="stroke: #000000; stroke-width: 0.8"/>
      </g>
     </g>
    </g>
    <g id="xtick_21">
     <g id="line2d_58">
      <path d="M 463.68 465.442759 
L 463.68 372.711724 
" clip-path="url(#p555d2d1369)" style="fill: none; stroke-dasharray: 1.85,0.8; stroke-dashoffset: 0; stroke: #b2b2b2; stroke-width: 0.5"/>
     </g>
     <g id="line2d_59">
      <g>
       <use xlink:href="#m0f1de974d0" x="463.68" y="465.442759" style="stroke: #000000; stroke-width: 0.8"/>
      </g>
     </g>
    </g>
    <g id="xtick_22">
     <g id="line2d_60">
      <path d="M 624.96 465.442759 
L 624.96 372.711724 
" clip-path="url(#p555d2d1369)" style="fill: none; stroke-dasharray: 1.85,0.8; stroke-dashoffset: 0; stroke: #b2b2b2; stroke-width: 0.5"/>
     </g>
     <g id="line2d_61">
      <g>
       <use xlink:href="#m0f1de974d0" x="624.96" y="465.442759" style="stroke: #000000; stroke-width: 0.8"/>
      </g>
     </g>
    </g>
    <g id="xtick_23">
     <g id="line2d_62">
      <path d="M 786.24 465.442759 
L 786.24 372.711724 
" clip-path="url(#p555d2d1369)" style="fill: none; stroke-dasharray: 1.85,0.8; stroke-dashoffset: 0; stroke: #b2b2b2; stroke-width: 0.5"/>
     </g>
     <g id="line2d_63">
      <g>
       <use xlink:href="#m0f1de974d0" x="786.24" y="465.442759" style="stroke: #000000; stroke-width: 0.8"/>
      </g>
     </g>
    </g>
    <g id="xtick_24">
     <g id="line2d_64">
      <path d="M 947.52 465.442759 
L 947.52 372.711724 
" clip-path="url(#p555d2d1369)" style="fill: none; stroke-dasharray: 1.85,0.8; stroke-dashoffset: 0; stroke: #b2b2b2; stroke-width: 0.5"/>
     </g>
     <g id="line2d_65">
      <g>
       <use xlink:href="#m0f1de974d0" x="947.52" y="465.442759" style="stroke: #000000; stroke-width: 0.8"/>
      </g>
     </g>
    </g>
   </g>
   <g id="matplotlib.axis_8">
    <g id="ytick_8">
     <g id="line2d_66">
      <path d="M 100.8 439.230657 
L 987.84 439.230657 
" clip-path="url(#p555d2d1369)" style="fill: none; stroke-dasharray: 1.85,0.8; stroke-dashoffset: 0; stroke: #b2b2b2; stroke-width: 0.5"/>
     </g>
     <g id="line2d_67">
      <g>
       <use xlink:href="#me879fbefc1" x="100.8" y="439.230657" style="stroke: #000000; stroke-width: 0.8"/>
      </g>
     </g>
     <g id="text_11">
      <!-- 0 V -->
      <g transform="translate(74.36625 444.549563) scale(0.14 -0.14)">
       <use xlink:href="#DejaVuSans-30"/>
       <use xlink:href="#DejaVuSans-20" x="63.623047"/>
       <use xlink:href="#DejaVuSans-56" x="95.410156"/>
      </g>
     </g>
    </g>
    <g id="ytick_9">
     <g id="line2d_68">
      <path d="M 100.8 400.628497 
L 987.84 400.628497 
" clip-path="url(#p555d2d1369)" style="fill: none; stroke-dasharray: 1.85,0.8; stroke-dashoffset: 0; stroke: #b2b2b2; stroke-width: 0.5"/>
     </g>
     <g id="line2d_69">
      <g>
       <use xlink:href="#me879fbefc1" x="100.8" y="400.628497" style="stroke: #000000; stroke-width: 0.8"/>
      </g>
     </g>
     <g id="text_12">
      <!-- 1 V -->
      <g transform="translate(74.36625 405.947403) scale(0.14 -0.14)">
       <use xlink:href="#DejaVuSans-31"/>
       <use xlink:href="#DejaVuSans-20" x="63.623047"/>
       <use xlink:href="#DejaVuSans-56" x="95.410156"/>
      </g>
     </g>
    </g>
    <g id="text_13">
     <g id="patch_21">
      <path d="M 34.8768 454.693023 
L 34.8768 383.46146 
L 11.247425 383.46146 
L 11.247425 454.693023 
z
" style="fill: #ffff00; opacity: 0.2; stroke: #eeeeee; stroke-width: 0.5; stroke-linejoin: miter"/>
     </g>
     <!-- DFF OUT -->
     <g transform="translate(26.925238 449.653023) rotate(-90) scale(0.14 -0.14)">
      <defs>
       <path id="DejaVuSans-4f" d="M 2522 4238 
Q 1834 4238 1429 3725 
Q 1025 3213 1025 2328 
Q 1025 1447 1429 934 
Q 1834 422 2522 422 
Q 3209 422 3611 934 
Q 4013 1447 4013 2328 
Q 4013 3213 3611 3725 
Q 3209 4238 2522 4238 
z
M 2522 4750 
Q 3503 4750 4090 4092 
Q 4678 3434 4678 2328 
Q 4678 1225 4090 567 
Q 3503 -91 2522 -91 
Q 1538 -91 948 565 
Q 359 1222 359 2328 
Q 359 3434 948 4092 
Q 1538 4750 2522 4750 
z
" transform="scale(0.015625)"/>
       <path id="DejaVuSans-54" d="M -19 4666 
L 3928 4666 
L 3928 4134 
L 2272 4134 
L 2272 0 
L 1638 0 
L 1638 4134 
L -19 4134 
L -19 4666 
z
" transform="scale(0.015625)"/>
      </defs>
      <use xlink:href="#DejaVuSans-44"/>
      <use xlink:href="#DejaVuSans-46" x="77.001953"/>
      <use xlink:href="#DejaVuSans-46" x="134.521484"/>
      <use xlink:href="#DejaVuSans-20" x="192.041016"/>
      <use xlink:href="#DejaVuSans-4f" x="223.828125"/>
      <use xlink:href="#DejaVuSans-55" x="302.539062"/>
      <use xlink:href="#DejaVuSans-54" x="375.732422"/>
     </g>
    </g>
   </g>
   <g id="line2d_70">
    <path d="M 141.12 410.104169 
L 173.408256 410.151264 
L 173.440512 411.749393 
L 173.601792 439.233013 
L 174.150144 439.228872 
L 184.6656 439.229633 
L 254.048256 439.231245 
L 254.080512 439.38556 
L 254.112768 439.130303 
L 254.306304 435.361562 
L 254.596608 434.606118 
L 254.693376 434.067232 
L 255.14496 427.304134 
L 255.370752 411.408536 
L 255.596544 393.282506 
L 255.757824 392.965969 
L 255.983616 392.904205 
L 256.91904 392.908065 
L 295.755264 392.98527 
L 296.239104 395.482829 
L 296.59392 394.857474 
L 297.948672 393.224603 
L 299.593728 392.938947 
L 334.688256 392.923506 
L 334.720512 392.81156 
L 334.752768 393.379012 
L 334.785024 396.185389 
L 334.914048 439.214833 
L 334.97856 439.18086 
L 335.13984 439.222566 
L 335.526912 439.229985 
L 367.782912 439.229593 
L 415.328256 439.231222 
L 415.360512 439.385023 
L 415.392768 439.132441 
L 415.586304 435.271619 
L 415.876608 434.3857 
L 415.908864 434.279544 
L 416.1024 429.701714 
L 416.521728 416.374704 
L 416.9088 393.035452 
L 417.102336 392.911925 
L 417.811968 392.935087 
L 457.357824 393.043173 
L 459.938304 396.617733 
L 465.13152 404.896738 
L 465.77664 406.411873 
L 466.454016 408.762358 
L 467.38944 412.494415 
L 467.776512 414.144271 
L 467.808768 413.943926 
L 467.841024 413.912658 
L 468.19584 416.11607 
L 468.389376 416.822489 
L 468.421632 416.51676 
L 468.453888 417.078808 
L 468.486144 416.787361 
L 468.67968 418.30983 
L 468.905472 419.315031 
L 468.969984 419.134373 
L 469.00224 419.187258 
L 469.228032 420.847536 
L 470.098944 424.588086 
L 470.1312 424.471121 
L 470.260224 424.821243 
L 470.421504 426.250681 
L 472.453632 435.021091 
L 472.614912 435.698482 
L 472.647168 435.376193 
L 472.743936 435.598078 
L 472.840704 436.221503 
L 473.001984 437.280707 
L 473.292288 438.380715 
L 473.324544 438.169908 
L 473.3568 438.181836 
L 473.67936 439.958848 
L 473.937408 440.94413 
L 473.969664 440.64504 
L 474.00192 440.745097 
L 474.034176 441.304211 
L 474.130944 441.296953 
L 474.1632 441.217008 
L 474.32448 442.36191 
L 474.679296 443.462226 
L 474.840576 443.911941 
L 474.872832 443.594631 
L 474.937344 443.725492 
L 474.9696 443.825086 
L 475.098624 444.476304 
L 475.13088 444.220372 
L 475.163136 444.311087 
L 475.324416 445.148754 
L 475.356672 444.887031 
L 475.388928 445.257226 
L 475.421184 445.197393 
L 475.61472 445.809237 
L 475.905024 446.436136 
L 476.163072 446.680102 
L 476.550144 447.385749 
L 476.5824 447.460251 
L 476.679168 448.053567 
L 476.711424 447.755558 
L 476.90496 448.565817 
L 476.969472 448.711733 
L 478.808064 452.945232 
L 478.84032 452.863396 
L 478.872576 452.809739 
L 478.904832 452.861852 
L 480.259584 455.921845 
L 480.29184 455.809126 
L 480.420864 456.078956 
L 480.45312 456.362681 
L 480.549888 456.345696 
L 482.775552 460.847866 
L 482.807808 460.764486 
L 482.87232 460.892645 
L 483.130368 461.169808 
L 483.614208 460.631308 
L 483.775488 459.961175 
L 483.807744 460.269992 
L 483.84 459.678221 
L 483.872256 459.826839 
L 483.904512 459.738826 
L 483.969024 459.849614 
L 484.033536 459.873162 
L 484.065792 459.806766 
L 485.29152 457.694456 
L 485.356032 457.584826 
L 485.710848 457.006179 
L 485.743104 457.032815 
L 485.93664 456.644477 
L 487.323648 455.178367 
L 487.484928 455.004657 
L 487.807488 454.44647 
L 487.839744 454.564207 
L 487.872 454.358457 
L 488.259072 453.911058 
L 489.00096 453.120872 
L 489.033216 453.315041 
L 489.097728 453.035561 
L 489.129984 453.135155 
L 489.16224 453.055248 
L 489.291264 452.873818 
L 489.32352 453.021664 
L 489.355776 452.812441 
L 490.097664 452.236497 
L 490.387968 451.920731 
L 490.420224 451.884059 
L 490.581504 451.467928 
L 490.710528 451.300394 
L 490.742784 451.564819 
L 490.807296 451.195396 
L 490.839552 451.222032 
L 490.871808 451.411568 
L 490.904064 451.074958 
L 491.129856 450.876928 
L 491.839488 450.247327 
L 491.904 450.203321 
L 491.936256 450.380119 
L 492.000768 450.273577 
L 492.194304 450.035015 
L 492.22656 450.079408 
L 492.291072 450.00645 
L 492.484608 449.877133 
L 492.968448 449.29424 
L 493.161984 448.89741 
L 493.420032 448.57624 
L 493.452288 448.738369 
L 493.484544 448.503668 
L 493.613568 448.372806 
L 493.645824 448.694748 
L 493.67808 448.653444 
L 493.710336 448.21917 
L 493.807104 448.326098 
L 493.83936 448.411023 
L 493.871616 448.280933 
L 493.968384 448.389019 
L 494.00064 447.982539 
L 494.290944 447.744363 
L 494.80704 447.414315 
L 495.355392 447.103567 
L 495.903744 446.495583 
L 496.032768 446.117668 
L 496.065024 446.170167 
L 496.226304 445.838961 
L 496.41984 445.648652 
L 496.452096 445.985263 
L 496.548864 445.872931 
L 496.677888 445.44213 
L 496.710144 445.590363 
L 496.7424 445.749404 
L 496.871424 445.241785 
L 496.935936 445.528599 
L 496.968192 445.437112 
L 497.097216 445.234065 
L 497.129472 445.289652 
L 497.161728 445.161493 
L 497.193984 445.119802 
L 497.22624 445.224028 
L 497.258496 445.279229 
L 497.38752 444.846885 
L 497.419776 444.854992 
L 497.452032 445.146438 
L 497.484288 444.787438 
L 497.516544 444.797474 
L 497.5488 444.997434 
L 497.581056 444.761574 
L 497.613312 444.7581 
L 498.419712 444.35548 
L 499.226112 443.478439 
L 499.387392 442.989156 
L 499.548672 442.827761 
L 499.580928 443.194327 
L 499.64544 442.735579 
L 499.677696 442.692344 
L 499.742208 442.763218 
L 499.774464 442.9675 
L 499.80672 442.503348 
L 499.838976 442.540252 
L 499.871232 443.00591 
L 499.903488 442.449382 
L 499.935744 442.451891 
L 500.032512 442.386847 
L 500.064768 442.832895 
L 500.12928 442.272893 
L 500.161536 442.494508 
L 500.193792 442.216187 
L 500.226048 442.232206 
L 500.322816 442.171099 
L 500.387328 442.080963 
L 500.45184 442.484356 
L 500.548608 442.390939 
L 500.677632 442.10729 
L 500.709888 442.015533 
L 500.742144 442.162607 
L 500.7744 442.120106 
L 500.806656 442.129641 
L 500.967936 441.947863 
L 501.000192 441.995073 
L 501.064704 441.932229 
L 502.451712 440.444618 
L 502.516224 440.552858 
L 502.580736 440.075735 
L 502.645248 440.33935 
L 502.774272 439.582817 
L 502.935552 439.389088 
L 503.000064 439.789539 
L 503.03232 439.738507 
L 503.096832 439.21846 
L 503.161344 439.251307 
L 503.225856 439.406057 
L 503.290368 439.274162 
L 503.387136 439.160563 
L 504.193536 437.783462 
L 504.354816 436.791965 
L 504.387072 437.057355 
L 504.419328 437.038942 
L 504.451584 436.657669 
L 504.516096 436.946027 
L 505.677312 435.089803 
L 505.806336 434.148683 
L 505.838592 434.142892 
L 505.870848 434.777512 
L 505.93536 434.074566 
L 505.999872 434.439357 
L 506.032128 434.051791 
L 506.225664 434.061056 
L 507.322368 432.130562 
L 507.354624 431.45541 
L 507.451392 431.564654 
L 507.54816 431.799741 
L 507.773952 431.219165 
L 508.548096 429.859211 
L 508.580352 429.952628 
L 508.644864 429.827943 
L 508.773888 429.537269 
L 508.806144 429.554254 
L 509.386752 428.610817 
L 509.548032 428.069614 
L 509.773824 427.688611 
L 509.80608 427.897835 
L 509.838336 427.611407 
L 510.096384 427.287535 
L 510.12864 427.380952 
L 510.160896 427.45391 
L 510.225408 427.346982 
L 510.483456 426.943589 
L 511.031808 425.960006 
L 511.160832 425.197614 
L 511.193088 425.418032 
L 511.225344 425.198772 
L 511.386624 424.753303 
L 511.41888 424.817383 
L 511.451136 424.700032 
L 511.58016 424.371914 
L 511.612416 424.427887 
L 511.870464 423.831869 
L 512.805888 421.579047 
L 513.03168 421.269458 
L 513.096192 420.573075 
L 513.160704 420.595464 
L 513.35424 420.622872 
L 513.451008 420.507451 
L 516.289536 415.782547 
L 516.321792 415.817289 
L 516.354048 415.735452 
L 516.644352 415.289211 
L 516.676608 415.320479 
L 516.805632 415.219728 
L 517.06368 414.898172 
L 517.095936 415.128626 
L 517.257216 416.182079 
L 517.353984 420.493555 
L 517.515264 435.011827 
L 517.644288 438.638886 
L 517.902336 438.702965 
L 520.644096 438.817961 
L 521.805312 438.756661 
L 522.482688 438.188862 
L 523.289088 437.827314 
L 524.32128 437.614191 
L 525.901824 437.529653 
L 529.417728 437.615504 
L 536.288256 437.879195 
L 536.320512 437.780374 
L 536.385024 437.903322 
L 536.610816 437.885063 
L 542.094336 437.952346 
L 544.932864 437.974195 
L 547.610112 438.143118 
L 548.287488 438.74122 
L 549.126144 439.149805 
L 550.28736 439.417298 
L 552.029184 439.555313 
L 556.222464 439.590641 
L 576.608256 439.620037 
L 576.640512 439.927735 
L 576.930816 430.628938 
L 577.124352 428.936233 
L 577.285632 424.695786 
L 577.479168 409.033345 
L 577.769472 376.984674 
L 577.898496 376.946072 
L 579.382272 377.594589 
L 579.737088 377.752857 
L 581.25312 378.358911 
L 587.123712 380.582396 
L 588.155904 380.956837 
L 592.736256 382.489342 
L 593.02656 382.589708 
L 595.219968 383.261386 
L 595.542528 383.361751 
L 596.961792 383.763214 
L 597.38112 383.863579 
L 598.800384 384.265042 
L 599.219712 384.365407 
L 600.44544 384.689665 
L 600.864768 384.790031 
L 601.864704 385.033225 
L 602.800128 385.253257 
L 603.574272 385.423107 
L 603.961344 385.523472 
L 604.735488 385.693322 
L 605.219328 385.793687 
L 605.993472 385.963537 
L 606.380544 386.063902 
L 607.05792 386.19515 
L 607.54176 386.295515 
L 608.219136 386.426763 
L 608.702976 386.527128 
L 609.380352 386.658376 
L 609.864192 386.758741 
L 610.541568 386.889989 
L 611.025408 386.990354 
L 611.606016 387.082999 
L 612.089856 387.183365 
L 612.670464 387.27601 
L 613.251072 387.376376 
L 613.83168 387.469021 
L 614.31552 387.569387 
L 614.896128 387.662032 
L 615.476736 387.762397 
L 616.057344 387.855043 
L 616.73472 387.951548 
L 616.928256 388.001731 
L 616.960512 387.909086 
L 617.025024 388.059634 
L 617.186304 388.017172 
L 617.799168 388.125258 
L 618.476544 388.221763 
L 618.83136 388.279666 
L 619.540992 388.376172 
L 619.895808 388.434075 
L 620.702208 388.53058 
L 621.057024 388.588484 
L 621.766656 388.684989 
L 622.121472 388.742892 
L 623.02464 388.839398 
L 623.379456 388.897301 
L 624.185856 388.993806 
L 624.540672 389.05171 
L 625.44384 389.148215 
L 625.734144 389.167516 
L 626.508288 389.264021 
L 626.863104 389.321925 
L 627.86304 389.41843 
L 628.217856 389.476333 
L 629.217792 389.572839 
L 629.508096 389.59214 
L 630.379008 389.688645 
L 630.669312 389.707946 
L 631.540224 389.804452 
L 631.830528 389.823753 
L 632.70144 389.920258 
L 632.991744 389.939559 
L 633.959424 390.036065 
L 634.249728 390.055366 
L 635.217408 390.151871 
L 635.507712 390.171172 
L 636.57216 390.267678 
L 636.862464 390.286979 
L 638.02368 390.383484 
L 638.313984 390.402785 
L 639.4752 390.499291 
L 639.765504 390.518592 
L 641.023488 390.615097 
L 641.313792 390.634398 
L 642.668544 390.730903 
L 642.958848 390.750205 
L 644.410368 390.84671 
L 644.700672 390.866011 
L 646.152192 390.962516 
L 646.41024 390.977957 
L 648.087552 391.078323 
L 648.377856 391.097624 
L 650.11968 391.194129 
L 650.409984 391.21343 
L 652.345344 391.309936 
L 652.635648 391.329237 
L 654.667776 391.425742 
L 654.95808 391.445043 
L 657.248256 391.526108 
L 657.280512 391.74614 
L 657.345024 391.553129 
L 659.990016 391.657355 
L 660.248064 391.672796 
L 663.086592 391.773162 
L 663.34464 391.788603 
L 666.473472 391.888968 
L 666.828288 391.908269 
L 670.247424 392.004775 
L 670.505472 392.020216 
L 674.505216 392.120581 
L 674.763264 392.136022 
L 679.440384 392.236388 
L 679.7952 392.251829 
L 685.343232 392.352194 
L 685.698048 392.371495 
L 692.633088 392.479581 
L 693.568512 392.483442 
L 737.888256 392.537485 
L 737.920512 392.668732 
L 737.985024 392.491162 
L 738.275328 392.514323 
L 818.528256 392.537485 
L 818.560512 392.668732 
L 818.625024 392.491162 
L 818.915328 392.514323 
L 899.168256 392.537485 
L 899.200512 392.668732 
L 899.265024 392.491162 
L 899.555328 392.514323 
L 947.52 392.522044 
L 947.52 392.522044 
" clip-path="url(#p555d2d1369)" style="fill: none; stroke: #ff00ff; stroke-width: 2; stroke-linecap: square"/>
   </g>
   <g id="patch_22">
    <path d="M 100.8 465.442759 
L 100.8 372.711724 
" style="fill: none; stroke: #bcbcbc; stroke-width: 0.8; stroke-linejoin: miter; stroke-linecap: square"/>
   </g>
   <g id="patch_23">
    <path d="M 987.84 465.442759 
L 987.84 372.711724 
" style="fill: none; stroke: #bcbcbc; stroke-width: 0.8; stroke-linejoin: miter; stroke-linecap: square"/>
   </g>
   <g id="patch_24">
    <path d="M 100.8 465.442759 
L 987.84 465.442759 
" style="fill: none; stroke: #bcbcbc; stroke-width: 0.8; stroke-linejoin: miter; stroke-linecap: square"/>
   </g>
   <g id="patch_25">
    <path d="M 100.8 372.711724 
L 987.84 372.711724 
" style="fill: none; stroke: #bcbcbc; stroke-width: 0.8; stroke-linejoin: miter; stroke-linecap: square"/>
   </g>
  </g>
  <g id="axes_5">
   <g id="patch_26">
    <path d="M 100.8 576.72 
L 987.84 576.72 
L 987.84 483.988966 
L 100.8 483.988966 
z
" style="fill: #eeeeee"/>
   </g>
   <g id="matplotlib.axis_9">
    <g id="xtick_25">
     <g id="line2d_71">
      <path d="M 141.12 576.72 
L 141.12 483.988966 
" clip-path="url(#pf452f44b03)" style="fill: none; stroke-dasharray: 1.85,0.8; stroke-dashoffset: 0; stroke: #b2b2b2; stroke-width: 0.5"/>
     </g>
     <g id="line2d_72">
      <g>
       <use xlink:href="#m0f1de974d0" x="141.12" y="576.72" style="stroke: #000000; stroke-width: 0.8"/>
      </g>
     </g>
     <g id="text_14">
      <!-- 0 s -->
      <g transform="translate(130.795 590.857813) scale(0.14 -0.14)">
       <defs>
        <path id="DejaVuSans-73" d="M 2834 3397 
L 2834 2853 
Q 2591 2978 2328 3040 
Q 2066 3103 1784 3103 
Q 1356 3103 1142 2972 
Q 928 2841 928 2578 
Q 928 2378 1081 2264 
Q 1234 2150 1697 2047 
L 1894 2003 
Q 2506 1872 2764 1633 
Q 3022 1394 3022 966 
Q 3022 478 2636 193 
Q 2250 -91 1575 -91 
Q 1294 -91 989 -36 
Q 684 19 347 128 
L 347 722 
Q 666 556 975 473 
Q 1284 391 1588 391 
Q 1994 391 2212 530 
Q 2431 669 2431 922 
Q 2431 1156 2273 1281 
Q 2116 1406 1581 1522 
L 1381 1569 
Q 847 1681 609 1914 
Q 372 2147 372 2553 
Q 372 3047 722 3315 
Q 1072 3584 1716 3584 
Q 2034 3584 2315 3537 
Q 2597 3491 2834 3397 
z
" transform="scale(0.015625)"/>
       </defs>
       <use xlink:href="#DejaVuSans-30"/>
       <use xlink:href="#DejaVuSans-20" x="63.623047"/>
       <use xlink:href="#DejaVuSans-73" x="95.410156"/>
      </g>
     </g>
    </g>
    <g id="xtick_26">
     <g id="line2d_73">
      <path d="M 302.4 576.72 
L 302.4 483.988966 
" clip-path="url(#pf452f44b03)" style="fill: none; stroke-dasharray: 1.85,0.8; stroke-dashoffset: 0; stroke: #b2b2b2; stroke-width: 0.5"/>
     </g>
     <g id="line2d_74">
      <g>
       <use xlink:href="#m0f1de974d0" x="302.4" y="576.72" style="stroke: #000000; stroke-width: 0.8"/>
      </g>
     </g>
     <g id="text_15">
      <!-- 50 ns -->
      <g transform="translate(283.185 590.857813) scale(0.14 -0.14)">
       <defs>
        <path id="DejaVuSans-35" d="M 691 4666 
L 3169 4666 
L 3169 4134 
L 1269 4134 
L 1269 2991 
Q 1406 3038 1543 3061 
Q 1681 3084 1819 3084 
Q 2600 3084 3056 2656 
Q 3513 2228 3513 1497 
Q 3513 744 3044 326 
Q 2575 -91 1722 -91 
Q 1428 -91 1123 -41 
Q 819 9 494 109 
L 494 744 
Q 775 591 1075 516 
Q 1375 441 1709 441 
Q 2250 441 2565 725 
Q 2881 1009 2881 1497 
Q 2881 1984 2565 2268 
Q 2250 2553 1709 2553 
Q 1456 2553 1204 2497 
Q 953 2441 691 2322 
L 691 4666 
z
" transform="scale(0.015625)"/>
        <path id="DejaVuSans-6e" d="M 3513 2113 
L 3513 0 
L 2938 0 
L 2938 2094 
Q 2938 2591 2744 2837 
Q 2550 3084 2163 3084 
Q 1697 3084 1428 2787 
Q 1159 2491 1159 1978 
L 1159 0 
L 581 0 
L 581 3500 
L 1159 3500 
L 1159 2956 
Q 1366 3272 1645 3428 
Q 1925 3584 2291 3584 
Q 2894 3584 3203 3211 
Q 3513 2838 3513 2113 
z
" transform="scale(0.015625)"/>
       </defs>
       <use xlink:href="#DejaVuSans-35"/>
       <use xlink:href="#DejaVuSans-30" x="63.623047"/>
       <use xlink:href="#DejaVuSans-20" x="127.246094"/>
       <use xlink:href="#DejaVuSans-6e" x="159.033203"/>
       <use xlink:href="#DejaVuSans-73" x="222.412109"/>
      </g>
     </g>
    </g>
    <g id="xtick_27">
     <g id="line2d_75">
      <path d="M 463.68 576.72 
L 463.68 483.988966 
" clip-path="url(#pf452f44b03)" style="fill: none; stroke-dasharray: 1.85,0.8; stroke-dashoffset: 0; stroke: #b2b2b2; stroke-width: 0.5"/>
     </g>
     <g id="line2d_76">
      <g>
       <use xlink:href="#m0f1de974d0" x="463.68" y="576.72" style="stroke: #000000; stroke-width: 0.8"/>
      </g>
     </g>
     <g id="text_16">
      <!-- 100 ns -->
      <g transform="translate(440.01125 590.857813) scale(0.14 -0.14)">
       <use xlink:href="#DejaVuSans-31"/>
       <use xlink:href="#DejaVuSans-30" x="63.623047"/>
       <use xlink:href="#DejaVuSans-30" x="127.246094"/>
       <use xlink:href="#DejaVuSans-20" x="190.869141"/>
       <use xlink:href="#DejaVuSans-6e" x="222.65625"/>
       <use xlink:href="#DejaVuSans-73" x="286.035156"/>
      </g>
     </g>
    </g>
    <g id="xtick_28">
     <g id="line2d_77">
      <path d="M 624.96 576.72 
L 624.96 483.988966 
" clip-path="url(#pf452f44b03)" style="fill: none; stroke-dasharray: 1.85,0.8; stroke-dashoffset: 0; stroke: #b2b2b2; stroke-width: 0.5"/>
     </g>
     <g id="line2d_78">
      <g>
       <use xlink:href="#m0f1de974d0" x="624.96" y="576.72" style="stroke: #000000; stroke-width: 0.8"/>
      </g>
     </g>
     <g id="text_17">
      <!-- 150 ns -->
      <g transform="translate(601.29125 590.857813) scale(0.14 -0.14)">
       <use xlink:href="#DejaVuSans-31"/>
       <use xlink:href="#DejaVuSans-35" x="63.623047"/>
       <use xlink:href="#DejaVuSans-30" x="127.246094"/>
       <use xlink:href="#DejaVuSans-20" x="190.869141"/>
       <use xlink:href="#DejaVuSans-6e" x="222.65625"/>
       <use xlink:href="#DejaVuSans-73" x="286.035156"/>
      </g>
     </g>
    </g>
    <g id="xtick_29">
     <g id="line2d_79">
      <path d="M 786.24 576.72 
L 786.24 483.988966 
" clip-path="url(#pf452f44b03)" style="fill: none; stroke-dasharray: 1.85,0.8; stroke-dashoffset: 0; stroke: #b2b2b2; stroke-width: 0.5"/>
     </g>
     <g id="line2d_80">
      <g>
       <use xlink:href="#m0f1de974d0" x="786.24" y="576.72" style="stroke: #000000; stroke-width: 0.8"/>
      </g>
     </g>
     <g id="text_18">
      <!-- 200 ns -->
      <g transform="translate(762.57125 590.857813) scale(0.14 -0.14)">
       <use xlink:href="#DejaVuSans-32"/>
       <use xlink:href="#DejaVuSans-30" x="63.623047"/>
       <use xlink:href="#DejaVuSans-30" x="127.246094"/>
       <use xlink:href="#DejaVuSans-20" x="190.869141"/>
       <use xlink:href="#DejaVuSans-6e" x="222.65625"/>
       <use xlink:href="#DejaVuSans-73" x="286.035156"/>
      </g>
     </g>
    </g>
    <g id="xtick_30">
     <g id="line2d_81">
      <path d="M 947.52 576.72 
L 947.52 483.988966 
" clip-path="url(#pf452f44b03)" style="fill: none; stroke-dasharray: 1.85,0.8; stroke-dashoffset: 0; stroke: #b2b2b2; stroke-width: 0.5"/>
     </g>
     <g id="line2d_82">
      <g>
       <use xlink:href="#m0f1de974d0" x="947.52" y="576.72" style="stroke: #000000; stroke-width: 0.8"/>
      </g>
     </g>
     <g id="text_19">
      <!-- 250 ns -->
      <g transform="translate(923.85125 590.857813) scale(0.14 -0.14)">
       <use xlink:href="#DejaVuSans-32"/>
       <use xlink:href="#DejaVuSans-35" x="63.623047"/>
       <use xlink:href="#DejaVuSans-30" x="127.246094"/>
       <use xlink:href="#DejaVuSans-20" x="190.869141"/>
       <use xlink:href="#DejaVuSans-6e" x="222.65625"/>
       <use xlink:href="#DejaVuSans-73" x="286.035156"/>
      </g>
     </g>
    </g>
    <g id="text_20">
     <!-- Time -->
     <g transform="translate(527.192969 608.407187) scale(0.14 -0.14)">
      <defs>
       <path id="DejaVuSans-69" d="M 603 3500 
L 1178 3500 
L 1178 0 
L 603 0 
L 603 3500 
z
M 603 4863 
L 1178 4863 
L 1178 4134 
L 603 4134 
L 603 4863 
z
" transform="scale(0.015625)"/>
       <path id="DejaVuSans-6d" d="M 3328 2828 
Q 3544 3216 3844 3400 
Q 4144 3584 4550 3584 
Q 5097 3584 5394 3201 
Q 5691 2819 5691 2113 
L 5691 0 
L 5113 0 
L 5113 2094 
Q 5113 2597 4934 2840 
Q 4756 3084 4391 3084 
Q 3944 3084 3684 2787 
Q 3425 2491 3425 1978 
L 3425 0 
L 2847 0 
L 2847 2094 
Q 2847 2600 2669 2842 
Q 2491 3084 2119 3084 
Q 1678 3084 1418 2786 
Q 1159 2488 1159 1978 
L 1159 0 
L 581 0 
L 581 3500 
L 1159 3500 
L 1159 2956 
Q 1356 3278 1631 3431 
Q 1906 3584 2284 3584 
Q 2666 3584 2933 3390 
Q 3200 3197 3328 2828 
z
" transform="scale(0.015625)"/>
       <path id="DejaVuSans-65" d="M 3597 1894 
L 3597 1613 
L 953 1613 
Q 991 1019 1311 708 
Q 1631 397 2203 397 
Q 2534 397 2845 478 
Q 3156 559 3463 722 
L 3463 178 
Q 3153 47 2828 -22 
Q 2503 -91 2169 -91 
Q 1331 -91 842 396 
Q 353 884 353 1716 
Q 353 2575 817 3079 
Q 1281 3584 2069 3584 
Q 2775 3584 3186 3129 
Q 3597 2675 3597 1894 
z
M 3022 2063 
Q 3016 2534 2758 2815 
Q 2500 3097 2075 3097 
Q 1594 3097 1305 2825 
Q 1016 2553 972 2059 
L 3022 2063 
z
" transform="scale(0.015625)"/>
      </defs>
      <use xlink:href="#DejaVuSans-54"/>
      <use xlink:href="#DejaVuSans-69" x="57.958984"/>
      <use xlink:href="#DejaVuSans-6d" x="85.742188"/>
      <use xlink:href="#DejaVuSans-65" x="183.154297"/>
     </g>
    </g>
   </g>
   <g id="matplotlib.axis_10">
    <g id="ytick_10">
     <g id="line2d_83">
      <path d="M 100.8 569.745885 
L 987.84 569.745885 
" clip-path="url(#pf452f44b03)" style="fill: none; stroke-dasharray: 1.85,0.8; stroke-dashoffset: 0; stroke: #b2b2b2; stroke-width: 0.5"/>
     </g>
     <g id="line2d_84">
      <g>
       <use xlink:href="#me879fbefc1" x="100.8" y="569.745885" style="stroke: #000000; stroke-width: 0.8"/>
      </g>
     </g>
     <g id="text_21">
      <!-- 0 V -->
      <g transform="translate(74.36625 575.064792) scale(0.14 -0.14)">
       <use xlink:href="#DejaVuSans-30"/>
       <use xlink:href="#DejaVuSans-20" x="63.623047"/>
       <use xlink:href="#DejaVuSans-56" x="95.410156"/>
      </g>
     </g>
    </g>
    <g id="ytick_11">
     <g id="line2d_85">
      <path d="M 100.8 535.950348 
L 987.84 535.950348 
" clip-path="url(#pf452f44b03)" style="fill: none; stroke-dasharray: 1.85,0.8; stroke-dashoffset: 0; stroke: #b2b2b2; stroke-width: 0.5"/>
     </g>
     <g id="line2d_86">
      <g>
       <use xlink:href="#me879fbefc1" x="100.8" y="535.950348" style="stroke: #000000; stroke-width: 0.8"/>
      </g>
     </g>
     <g id="text_22">
      <!-- 500 mV -->
      <g transform="translate(42.914375 541.269254) scale(0.14 -0.14)">
       <use xlink:href="#DejaVuSans-35"/>
       <use xlink:href="#DejaVuSans-30" x="63.623047"/>
       <use xlink:href="#DejaVuSans-30" x="127.246094"/>
       <use xlink:href="#DejaVuSans-20" x="190.869141"/>
       <use xlink:href="#DejaVuSans-6d" x="222.65625"/>
       <use xlink:href="#DejaVuSans-56" x="320.068359"/>
      </g>
     </g>
    </g>
    <g id="ytick_12">
     <g id="line2d_87">
      <path d="M 100.8 502.15481 
L 987.84 502.15481 
" clip-path="url(#pf452f44b03)" style="fill: none; stroke-dasharray: 1.85,0.8; stroke-dashoffset: 0; stroke: #b2b2b2; stroke-width: 0.5"/>
     </g>
     <g id="line2d_88">
      <g>
       <use xlink:href="#me879fbefc1" x="100.8" y="502.15481" style="stroke: #000000; stroke-width: 0.8"/>
      </g>
     </g>
     <g id="text_23">
      <!-- 1 V -->
      <g transform="translate(74.36625 507.473717) scale(0.14 -0.14)">
       <use xlink:href="#DejaVuSans-31"/>
       <use xlink:href="#DejaVuSans-20" x="63.623047"/>
       <use xlink:href="#DejaVuSans-56" x="95.410156"/>
      </g>
     </g>
    </g>
    <g id="text_24">
     <g id="patch_27">
      <path d="M 34.8768 554.329483 
L 34.8768 506.379483 
L 11.247425 506.379483 
L 11.247425 554.329483 
z
" style="fill: #ffff00; opacity: 0.2; stroke: #eeeeee; stroke-width: 0.5; stroke-linejoin: miter"/>
     </g>
     <!-- FOUT -->
     <g transform="translate(26.925238 549.289483) rotate(-90) scale(0.14 -0.14)">
      <use xlink:href="#DejaVuSans-46"/>
      <use xlink:href="#DejaVuSans-4f" x="57.519531"/>
      <use xlink:href="#DejaVuSans-55" x="136.230469"/>
      <use xlink:href="#DejaVuSans-54" x="209.423828"/>
     </g>
    </g>
   </g>
   <g id="line2d_89">
    <path d="M 141.12 488.636595 
L 173.472768 488.643355 
L 173.505024 488.44734 
L 173.569536 526.789729 
L 173.69856 572.504953 
L 173.730816 572.3695 
L 173.827584 567.842115 
L 173.892096 569.3609 
L 174.053376 570.064192 
L 174.117888 569.946665 
L 174.408192 569.492054 
L 174.440448 569.54151 
L 174.66624 569.729954 
L 176.182272 569.740151 
L 180.117504 569.761449 
L 193.568256 569.752159 
L 212.954112 569.74401 
L 255.30624 569.743704 
L 255.6288 488.52845 
L 255.854592 488.670391 
L 256.209408 488.629836 
L 334.849536 488.650114 
L 334.881792 492.854278 
L 335.043072 572.18376 
L 335.107584 570.261206 
L 335.172096 568.338639 
L 335.236608 568.870108 
L 335.365632 570.783003 
L 335.430144 570.410083 
L 335.591424 569.797213 
L 335.881728 569.648439 
L 336.559104 569.817924 
L 337.107456 569.746143 
L 350.009856 569.744206 
L 416.489472 569.74333 
L 416.553984 567.480841 
L 416.812032 488.204013 
L 416.844288 488.339195 
L 416.973312 488.852887 
L 417.037824 488.778537 
L 417.39264 488.548727 
L 417.844224 488.717705 
L 418.457088 488.562245 
L 419.328 488.636595 
L 468.647424 488.569004 
L 468.67968 488.4541 
L 468.711936 488.514931 
L 468.744192 492.441973 
L 468.905472 570.25809 
L 468.969984 569.736694 
L 469.195776 569.743965 
L 500.000256 569.744194 
L 515.12832 569.812043 
L 515.160576 569.871943 
L 515.192832 569.840553 
L 515.225088 567.972498 
L 515.61216 488.643355 
L 517.257216 488.636595 
L 517.321728 504.177135 
L 517.515264 571.984367 
L 517.579776 569.729663 
L 517.837824 569.744209 
L 577.414656 569.734679 
L 577.479168 568.243809 
L 577.70496 488.819091 
L 577.86624 488.636595 
L 947.52 488.636595 
L 947.52 488.636595 
" clip-path="url(#pf452f44b03)" style="fill: none; stroke: #ff00ff; stroke-width: 2; stroke-linecap: square"/>
   </g>
   <g id="patch_28">
    <path d="M 100.8 576.72 
L 100.8 483.988966 
" style="fill: none; stroke: #bcbcbc; stroke-width: 0.8; stroke-linejoin: miter; stroke-linecap: square"/>
   </g>
   <g id="patch_29">
    <path d="M 987.84 576.72 
L 987.84 483.988966 
" style="fill: none; stroke: #bcbcbc; stroke-width: 0.8; stroke-linejoin: miter; stroke-linecap: square"/>
   </g>
   <g id="patch_30">
    <path d="M 100.8 576.72 
L 987.84 576.72 
" style="fill: none; stroke: #bcbcbc; stroke-width: 0.8; stroke-linejoin: miter; stroke-linecap: square"/>
   </g>
   <g id="patch_31">
    <path d="M 100.8 483.988966 
L 987.84 483.988966 
" style="fill: none; stroke: #bcbcbc; stroke-width: 0.8; stroke-linejoin: miter; stroke-linecap: square"/>
   </g>
  </g>
  <g id="axes_6">
   <g id="patch_32">
    <path d="M 201.6 628.56 
L 856.8 628.56 
L 856.8 615.6 
L 201.6 615.6 
z
" clip-path="url(#p42f9e93c60)" style="fill: #d3d3d3"/>
   </g>
   <g id="patch_33">
    <path d="M 201.6 628.56 
L 585.36 628.56 
L 585.36 615.6 
L 201.6 615.6 
z
" clip-path="url(#p42f9e93c60)" style="fill: #0000ff"/>
   </g>
   <g id="line2d_90">
    <path d="M 201.6 635.04 
L 201.6 609.12 
" clip-path="url(#pbe4406342b)" style="fill: none; stroke: #ff0000; stroke-linecap: square"/>
   </g>
   <g id="line2d_91">
    <defs>
     <path id="m98159e528e" d="M 0 5 
C 1.326016 5 2.597899 4.473168 3.535534 3.535534 
C 4.473168 2.597899 5 1.326016 5 0 
C 5 -1.326016 4.473168 -2.597899 3.535534 -3.535534 
C 2.597899 -4.473168 1.326016 -5 0 -5 
C -1.326016 -5 -2.597899 -4.473168 -3.535534 -3.535534 
C -4.473168 -2.597899 -5 -1.326016 -5 0 
C -5 1.326016 -4.473168 2.597899 -3.535534 3.535534 
C -2.597899 4.473168 -1.326016 5 0 5 
z
" style="stroke: #bfbfbf"/>
    </defs>
    <g>
     <use xlink:href="#m98159e528e" x="585.36" y="622.08" style="fill: #ffffff; stroke: #bfbfbf"/>
    </g>
   </g>
   <g id="text_25">
    <!-- #Sweep -->
    <g transform="translate(138.622875 625.39125) scale(0.12 -0.12)">
     <defs>
      <path id="DejaVuSans-23" d="M 3272 2816 
L 2363 2816 
L 2100 1772 
L 3016 1772 
L 3272 2816 
z
M 2803 4594 
L 2478 3297 
L 3391 3297 
L 3719 4594 
L 4219 4594 
L 3897 3297 
L 4872 3297 
L 4872 2816 
L 3775 2816 
L 3519 1772 
L 4513 1772 
L 4513 1294 
L 3397 1294 
L 3072 0 
L 2572 0 
L 2894 1294 
L 1978 1294 
L 1656 0 
L 1153 0 
L 1478 1294 
L 494 1294 
L 494 1772 
L 1594 1772 
L 1856 2816 
L 850 2816 
L 850 3297 
L 1978 3297 
L 2297 4594 
L 2803 4594 
z
" transform="scale(0.015625)"/>
      <path id="DejaVuSans-77" d="M 269 3500 
L 844 3500 
L 1563 769 
L 2278 3500 
L 2956 3500 
L 3675 769 
L 4391 3500 
L 4966 3500 
L 4050 0 
L 3372 0 
L 2619 2869 
L 1863 0 
L 1184 0 
L 269 3500 
z
" transform="scale(0.015625)"/>
      <path id="DejaVuSans-70" d="M 1159 525 
L 1159 -1331 
L 581 -1331 
L 581 3500 
L 1159 3500 
L 1159 2969 
Q 1341 3281 1617 3432 
Q 1894 3584 2278 3584 
Q 2916 3584 3314 3078 
Q 3713 2572 3713 1747 
Q 3713 922 3314 415 
Q 2916 -91 2278 -91 
Q 1894 -91 1617 61 
Q 1341 213 1159 525 
z
M 3116 1747 
Q 3116 2381 2855 2742 
Q 2594 3103 2138 3103 
Q 1681 3103 1420 2742 
Q 1159 2381 1159 1747 
Q 1159 1113 1420 752 
Q 1681 391 2138 391 
Q 2594 391 2855 752 
Q 3116 1113 3116 1747 
z
" transform="scale(0.015625)"/>
     </defs>
     <use xlink:href="#DejaVuSans-23"/>
     <use xlink:href="#DejaVuSans-53" x="83.789062"/>
     <use xlink:href="#DejaVuSans-77" x="147.265625"/>
     <use xlink:href="#DejaVuSans-65" x="229.052734"/>
     <use xlink:href="#DejaVuSans-65" x="290.576172"/>
     <use xlink:href="#DejaVuSans-70" x="352.099609"/>
    </g>
   </g>
   <g id="text_26">
    <!-- $\mathdefault{82}$ -->
    <g transform="translate(869.904 625.39125) scale(0.12 -0.12)">
     <defs>
      <path id="DejaVuSans-38" d="M 2034 2216 
Q 1584 2216 1326 1975 
Q 1069 1734 1069 1313 
Q 1069 891 1326 650 
Q 1584 409 2034 409 
Q 2484 409 2743 651 
Q 3003 894 3003 1313 
Q 3003 1734 2745 1975 
Q 2488 2216 2034 2216 
z
M 1403 2484 
Q 997 2584 770 2862 
Q 544 3141 544 3541 
Q 544 4100 942 4425 
Q 1341 4750 2034 4750 
Q 2731 4750 3128 4425 
Q 3525 4100 3525 3541 
Q 3525 3141 3298 2862 
Q 3072 2584 2669 2484 
Q 3125 2378 3379 2068 
Q 3634 1759 3634 1313 
Q 3634 634 3220 271 
Q 2806 -91 2034 -91 
Q 1263 -91 848 271 
Q 434 634 434 1313 
Q 434 1759 690 2068 
Q 947 2378 1403 2484 
z
M 1172 3481 
Q 1172 3119 1398 2916 
Q 1625 2713 2034 2713 
Q 2441 2713 2670 2916 
Q 2900 3119 2900 3481 
Q 2900 3844 2670 4047 
Q 2441 4250 2034 4250 
Q 1625 4250 1398 4047 
Q 1172 3844 1172 3481 
z
" transform="scale(0.015625)"/>
     </defs>
     <use xlink:href="#DejaVuSans-38" transform="translate(0 0.78125)"/>
     <use xlink:href="#DejaVuSans-32" transform="translate(63.623047 0.78125)"/>
    </g>
   </g>
  </g>
  <g id="text_27">
   <!-- DFF under BBI sweep analysis (Sweep = 92E-9) -->
   <g transform="translate(313.34625 25.1175) scale(0.16 -0.16)">
    <defs>
     <path id="DejaVuSans-75" d="M 544 1381 
L 544 3500 
L 1119 3500 
L 1119 1403 
Q 1119 906 1312 657 
Q 1506 409 1894 409 
Q 2359 409 2629 706 
Q 2900 1003 2900 1516 
L 2900 3500 
L 3475 3500 
L 3475 0 
L 2900 0 
L 2900 538 
Q 2691 219 2414 64 
Q 2138 -91 1772 -91 
Q 1169 -91 856 284 
Q 544 659 544 1381 
z
M 1991 3584 
L 1991 3584 
z
" transform="scale(0.015625)"/>
     <path id="DejaVuSans-64" d="M 2906 2969 
L 2906 4863 
L 3481 4863 
L 3481 0 
L 2906 0 
L 2906 525 
Q 2725 213 2448 61 
Q 2172 -91 1784 -91 
Q 1150 -91 751 415 
Q 353 922 353 1747 
Q 353 2572 751 3078 
Q 1150 3584 1784 3584 
Q 2172 3584 2448 3432 
Q 2725 3281 2906 2969 
z
M 947 1747 
Q 947 1113 1208 752 
Q 1469 391 1925 391 
Q 2381 391 2643 752 
Q 2906 1113 2906 1747 
Q 2906 2381 2643 2742 
Q 2381 3103 1925 3103 
Q 1469 3103 1208 2742 
Q 947 2381 947 1747 
z
" transform="scale(0.015625)"/>
     <path id="DejaVuSans-72" d="M 2631 2963 
Q 2534 3019 2420 3045 
Q 2306 3072 2169 3072 
Q 1681 3072 1420 2755 
Q 1159 2438 1159 1844 
L 1159 0 
L 581 0 
L 581 3500 
L 1159 3500 
L 1159 2956 
Q 1341 3275 1631 3429 
Q 1922 3584 2338 3584 
Q 2397 3584 2469 3576 
Q 2541 3569 2628 3553 
L 2631 2963 
z
" transform="scale(0.015625)"/>
     <path id="DejaVuSans-61" d="M 2194 1759 
Q 1497 1759 1228 1600 
Q 959 1441 959 1056 
Q 959 750 1161 570 
Q 1363 391 1709 391 
Q 2188 391 2477 730 
Q 2766 1069 2766 1631 
L 2766 1759 
L 2194 1759 
z
M 3341 1997 
L 3341 0 
L 2766 0 
L 2766 531 
Q 2569 213 2275 61 
Q 1981 -91 1556 -91 
Q 1019 -91 701 211 
Q 384 513 384 1019 
Q 384 1609 779 1909 
Q 1175 2209 1959 2209 
L 2766 2209 
L 2766 2266 
Q 2766 2663 2505 2880 
Q 2244 3097 1772 3097 
Q 1472 3097 1187 3025 
Q 903 2953 641 2809 
L 641 3341 
Q 956 3463 1253 3523 
Q 1550 3584 1831 3584 
Q 2591 3584 2966 3190 
Q 3341 2797 3341 1997 
z
" transform="scale(0.015625)"/>
     <path id="DejaVuSans-6c" d="M 603 4863 
L 1178 4863 
L 1178 0 
L 603 0 
L 603 4863 
z
" transform="scale(0.015625)"/>
     <path id="DejaVuSans-79" d="M 2059 -325 
Q 1816 -950 1584 -1140 
Q 1353 -1331 966 -1331 
L 506 -1331 
L 506 -850 
L 844 -850 
Q 1081 -850 1212 -737 
Q 1344 -625 1503 -206 
L 1606 56 
L 191 3500 
L 800 3500 
L 1894 763 
L 2988 3500 
L 3597 3500 
L 2059 -325 
z
" transform="scale(0.015625)"/>
     <path id="DejaVuSans-28" d="M 1984 4856 
Q 1566 4138 1362 3434 
Q 1159 2731 1159 2009 
Q 1159 1288 1364 580 
Q 1569 -128 1984 -844 
L 1484 -844 
Q 1016 -109 783 600 
Q 550 1309 550 2009 
Q 550 2706 781 3412 
Q 1013 4119 1484 4856 
L 1984 4856 
z
" transform="scale(0.015625)"/>
     <path id="DejaVuSans-3d" d="M 678 2906 
L 4684 2906 
L 4684 2381 
L 678 2381 
L 678 2906 
z
M 678 1631 
L 4684 1631 
L 4684 1100 
L 678 1100 
L 678 1631 
z
" transform="scale(0.015625)"/>
     <path id="DejaVuSans-39" d="M 703 97 
L 703 672 
Q 941 559 1184 500 
Q 1428 441 1663 441 
Q 2288 441 2617 861 
Q 2947 1281 2994 2138 
Q 2813 1869 2534 1725 
Q 2256 1581 1919 1581 
Q 1219 1581 811 2004 
Q 403 2428 403 3163 
Q 403 3881 828 4315 
Q 1253 4750 1959 4750 
Q 2769 4750 3195 4129 
Q 3622 3509 3622 2328 
Q 3622 1225 3098 567 
Q 2575 -91 1691 -91 
Q 1453 -91 1209 -44 
Q 966 3 703 97 
z
M 1959 2075 
Q 2384 2075 2632 2365 
Q 2881 2656 2881 3163 
Q 2881 3666 2632 3958 
Q 2384 4250 1959 4250 
Q 1534 4250 1286 3958 
Q 1038 3666 1038 3163 
Q 1038 2656 1286 2365 
Q 1534 2075 1959 2075 
z
" transform="scale(0.015625)"/>
     <path id="DejaVuSans-2d" d="M 313 2009 
L 1997 2009 
L 1997 1497 
L 313 1497 
L 313 2009 
z
" transform="scale(0.015625)"/>
     <path id="DejaVuSans-29" d="M 513 4856 
L 1013 4856 
Q 1481 4119 1714 3412 
Q 1947 2706 1947 2009 
Q 1947 1309 1714 600 
Q 1481 -109 1013 -844 
L 513 -844 
Q 928 -128 1133 580 
Q 1338 1288 1338 2009 
Q 1338 2731 1133 3434 
Q 928 4138 513 4856 
z
" transform="scale(0.015625)"/>
    </defs>
    <use xlink:href="#DejaVuSans-44"/>
    <use xlink:href="#DejaVuSans-46" x="77.001953"/>
    <use xlink:href="#DejaVuSans-46" x="134.521484"/>
    <use xlink:href="#DejaVuSans-20" x="192.041016"/>
    <use xlink:href="#DejaVuSans-75" x="223.828125"/>
    <use xlink:href="#DejaVuSans-6e" x="287.207031"/>
    <use xlink:href="#DejaVuSans-64" x="350.585938"/>
    <use xlink:href="#DejaVuSans-65" x="414.0625"/>
    <use xlink:href="#DejaVuSans-72" x="475.585938"/>
    <use xlink:href="#DejaVuSans-20" x="516.699219"/>
    <use xlink:href="#DejaVuSans-42" x="548.486328"/>
    <use xlink:href="#DejaVuSans-42" x="617.089844"/>
    <use xlink:href="#DejaVuSans-49" x="685.693359"/>
    <use xlink:href="#DejaVuSans-20" x="715.185547"/>
    <use xlink:href="#DejaVuSans-73" x="746.972656"/>
    <use xlink:href="#DejaVuSans-77" x="799.072266"/>
    <use xlink:href="#DejaVuSans-65" x="880.859375"/>
    <use xlink:href="#DejaVuSans-65" x="942.382812"/>
    <use xlink:href="#DejaVuSans-70" x="1003.90625"/>
    <use xlink:href="#DejaVuSans-20" x="1067.382812"/>
    <use xlink:href="#DejaVuSans-61" x="1099.169922"/>
    <use xlink:href="#DejaVuSans-6e" x="1160.449219"/>
    <use xlink:href="#DejaVuSans-61" x="1223.828125"/>
    <use xlink:href="#DejaVuSans-6c" x="1285.107422"/>
    <use xlink:href="#DejaVuSans-79" x="1312.890625"/>
    <use xlink:href="#DejaVuSans-73" x="1372.070312"/>
    <use xlink:href="#DejaVuSans-69" x="1424.169922"/>
    <use xlink:href="#DejaVuSans-73" x="1451.953125"/>
    <use xlink:href="#DejaVuSans-20" x="1504.052734"/>
    <use xlink:href="#DejaVuSans-28" x="1535.839844"/>
    <use xlink:href="#DejaVuSans-53" x="1574.853516"/>
    <use xlink:href="#DejaVuSans-77" x="1638.330078"/>
    <use xlink:href="#DejaVuSans-65" x="1720.117188"/>
    <use xlink:href="#DejaVuSans-65" x="1781.640625"/>
    <use xlink:href="#DejaVuSans-70" x="1843.164062"/>
    <use xlink:href="#DejaVuSans-20" x="1906.640625"/>
    <use xlink:href="#DejaVuSans-3d" x="1938.427734"/>
    <use xlink:href="#DejaVuSans-20" x="2022.216797"/>
    <use xlink:href="#DejaVuSans-39" x="2054.003906"/>
    <use xlink:href="#DejaVuSans-32" x="2117.626953"/>
    <use xlink:href="#DejaVuSans-45" x="2181.25"/>
    <use xlink:href="#DejaVuSans-2d" x="2244.433594"/>
    <use xlink:href="#DejaVuSans-39" x="2280.517578"/>
    <use xlink:href="#DejaVuSans-29" x="2344.140625"/>
   </g>
  </g>
 </g>
 <defs>
  <clipPath id="p0680815dad">
   <rect x="100.8" y="38.88" width="887.04" height="92.731034"/>
  </clipPath>
  <clipPath id="pd4ef654bef">
   <rect x="100.8" y="150.157241" width="887.04" height="92.731034"/>
  </clipPath>
  <clipPath id="p2baefe6abe">
   <rect x="100.8" y="261.434483" width="887.04" height="92.731034"/>
  </clipPath>
  <clipPath id="p555d2d1369">
   <rect x="100.8" y="372.711724" width="887.04" height="92.731034"/>
  </clipPath>
  <clipPath id="pf452f44b03">
   <rect x="100.8" y="483.988966" width="887.04" height="92.731034"/>
  </clipPath>
  <clipPath id="p42f9e93c60">
   <rect x="201.6" y="609.12" width="655.2" height="25.92"/>
  </clipPath>
  <clipPath id="pbe4406342b">
   <path d="M 201.6 628.56 
L 856.8 628.56 
L 856.8 615.6 
L 201.6 615.6 
z
"/>
  </clipPath>
 </defs>
</svg>
