<?xml version="1.0" encoding="utf-8" standalone="no"?>
<!DOCTYPE svg PUBLIC "-//W3C//DTD SVG 1.1//EN"
  "http://www.w3.org/Graphics/SVG/1.1/DTD/svg11.dtd">
<svg xmlns:xlink="http://www.w3.org/1999/xlink" width="1008pt" height="648pt" viewBox="0 0 1008 648" xmlns="http://www.w3.org/2000/svg" version="1.1">
 <metadata>
  <rdf:RDF xmlns:dc="http://purl.org/dc/elements/1.1/" xmlns:cc="http://creativecommons.org/ns#" xmlns:rdf="http://www.w3.org/1999/02/22-rdf-syntax-ns#">
   <cc:Work>
    <dc:type rdf:resource="http://purl.org/dc/dcmitype/StillImage"/>
    <dc:date>2024-06-03T10:45:31.728449</dc:date>
    <dc:format>image/svg+xml</dc:format>
    <dc:creator>
     <cc:Agent>
      <dc:title>Matplotlib v3.9.0, https://matplotlib.org/</dc:title>
     </cc:Agent>
    </dc:creator>
   </cc:Work>
  </rdf:RDF>
 </metadata>
 <defs>
  <style type="text/css">*{stroke-linejoin: round; stroke-linecap: butt}</style>
 </defs>
 <g id="figure_1">
  <g id="patch_1">
   <path d="M 0 648 
L 1008 648 
L 1008 0 
L 0 0 
z
" style="fill: #ffffff"/>
  </g>
  <g id="axes_1">
   <g id="patch_2">
    <path d="M 100.8 131.611034 
L 987.84 131.611034 
L 987.84 38.88 
L 100.8 38.88 
z
" style="fill: #eeeeee"/>
   </g>
   <g id="matplotlib.axis_1">
    <g id="xtick_1">
     <g id="line2d_1">
      <path d="M 141.12 131.611034 
L 141.12 38.88 
" clip-path="url(#pea3f4a708a)" style="fill: none; stroke-dasharray: 1.85,0.8; stroke-dashoffset: 0; stroke: #b2b2b2; stroke-width: 0.5"/>
     </g>
     <g id="line2d_2">
      <defs>
       <path id="m5163a214d8" d="M 0 0 
L 0 -3.5 
" style="stroke: #000000; stroke-width: 0.8"/>
      </defs>
      <g>
       <use xlink:href="#m5163a214d8" x="141.12" y="131.611034" style="stroke: #000000; stroke-width: 0.8"/>
      </g>
     </g>
    </g>
    <g id="xtick_2">
     <g id="line2d_3">
      <path d="M 302.4 131.611034 
L 302.4 38.88 
" clip-path="url(#pea3f4a708a)" style="fill: none; stroke-dasharray: 1.85,0.8; stroke-dashoffset: 0; stroke: #b2b2b2; stroke-width: 0.5"/>
     </g>
     <g id="line2d_4">
      <g>
       <use xlink:href="#m5163a214d8" x="302.4" y="131.611034" style="stroke: #000000; stroke-width: 0.8"/>
      </g>
     </g>
    </g>
    <g id="xtick_3">
     <g id="line2d_5">
      <path d="M 463.68 131.611034 
L 463.68 38.88 
" clip-path="url(#pea3f4a708a)" style="fill: none; stroke-dasharray: 1.85,0.8; stroke-dashoffset: 0; stroke: #b2b2b2; stroke-width: 0.5"/>
     </g>
     <g id="line2d_6">
      <g>
       <use xlink:href="#m5163a214d8" x="463.68" y="131.611034" style="stroke: #000000; stroke-width: 0.8"/>
      </g>
     </g>
    </g>
    <g id="xtick_4">
     <g id="line2d_7">
      <path d="M 624.96 131.611034 
L 624.96 38.88 
" clip-path="url(#pea3f4a708a)" style="fill: none; stroke-dasharray: 1.85,0.8; stroke-dashoffset: 0; stroke: #b2b2b2; stroke-width: 0.5"/>
     </g>
     <g id="line2d_8">
      <g>
       <use xlink:href="#m5163a214d8" x="624.96" y="131.611034" style="stroke: #000000; stroke-width: 0.8"/>
      </g>
     </g>
    </g>
    <g id="xtick_5">
     <g id="line2d_9">
      <path d="M 786.24 131.611034 
L 786.24 38.88 
" clip-path="url(#pea3f4a708a)" style="fill: none; stroke-dasharray: 1.85,0.8; stroke-dashoffset: 0; stroke: #b2b2b2; stroke-width: 0.5"/>
     </g>
     <g id="line2d_10">
      <g>
       <use xlink:href="#m5163a214d8" x="786.24" y="131.611034" style="stroke: #000000; stroke-width: 0.8"/>
      </g>
     </g>
    </g>
    <g id="xtick_6">
     <g id="line2d_11">
      <path d="M 947.52 131.611034 
L 947.52 38.88 
" clip-path="url(#pea3f4a708a)" style="fill: none; stroke-dasharray: 1.85,0.8; stroke-dashoffset: 0; stroke: #b2b2b2; stroke-width: 0.5"/>
     </g>
     <g id="line2d_12">
      <g>
       <use xlink:href="#m5163a214d8" x="947.52" y="131.611034" style="stroke: #000000; stroke-width: 0.8"/>
      </g>
     </g>
    </g>
   </g>
   <g id="matplotlib.axis_2">
    <g id="ytick_1">
     <g id="line2d_13">
      <path d="M 100.8 98.340394 
L 987.84 98.340394 
" clip-path="url(#pea3f4a708a)" style="fill: none; stroke-dasharray: 1.85,0.8; stroke-dashoffset: 0; stroke: #b2b2b2; stroke-width: 0.5"/>
     </g>
     <g id="line2d_14">
      <defs>
       <path id="m491ec27bdc" d="M 0 0 
L 3.5 0 
" style="stroke: #000000; stroke-width: 0.8"/>
      </defs>
      <g>
       <use xlink:href="#m491ec27bdc" x="100.8" y="98.340394" style="stroke: #000000; stroke-width: 0.8"/>
      </g>
     </g>
     <g id="text_1">
      <!-- −200 V -->
      <g transform="translate(44.819688 103.6593) scale(0.14 -0.14)">
       <defs>
        <path id="DejaVuSans-2212" d="M 678 2272 
L 4684 2272 
L 4684 1741 
L 678 1741 
L 678 2272 
z
" transform="scale(0.015625)"/>
        <path id="DejaVuSans-32" d="M 1228 531 
L 3431 531 
L 3431 0 
L 469 0 
L 469 531 
Q 828 903 1448 1529 
Q 2069 2156 2228 2338 
Q 2531 2678 2651 2914 
Q 2772 3150 2772 3378 
Q 2772 3750 2511 3984 
Q 2250 4219 1831 4219 
Q 1534 4219 1204 4116 
Q 875 4013 500 3803 
L 500 4441 
Q 881 4594 1212 4672 
Q 1544 4750 1819 4750 
Q 2544 4750 2975 4387 
Q 3406 4025 3406 3419 
Q 3406 3131 3298 2873 
Q 3191 2616 2906 2266 
Q 2828 2175 2409 1742 
Q 1991 1309 1228 531 
z
" transform="scale(0.015625)"/>
        <path id="DejaVuSans-30" d="M 2034 4250 
Q 1547 4250 1301 3770 
Q 1056 3291 1056 2328 
Q 1056 1369 1301 889 
Q 1547 409 2034 409 
Q 2525 409 2770 889 
Q 3016 1369 3016 2328 
Q 3016 3291 2770 3770 
Q 2525 4250 2034 4250 
z
M 2034 4750 
Q 2819 4750 3233 4129 
Q 3647 3509 3647 2328 
Q 3647 1150 3233 529 
Q 2819 -91 2034 -91 
Q 1250 -91 836 529 
Q 422 1150 422 2328 
Q 422 3509 836 4129 
Q 1250 4750 2034 4750 
z
" transform="scale(0.015625)"/>
        <path id="DejaVuSans-20" transform="scale(0.015625)"/>
        <path id="DejaVuSans-56" d="M 1831 0 
L 50 4666 
L 709 4666 
L 2188 738 
L 3669 4666 
L 4325 4666 
L 2547 0 
L 1831 0 
z
" transform="scale(0.015625)"/>
       </defs>
       <use xlink:href="#DejaVuSans-2212"/>
       <use xlink:href="#DejaVuSans-32" x="83.789062"/>
       <use xlink:href="#DejaVuSans-30" x="147.412109"/>
       <use xlink:href="#DejaVuSans-30" x="211.035156"/>
       <use xlink:href="#DejaVuSans-20" x="274.658203"/>
       <use xlink:href="#DejaVuSans-56" x="306.445312"/>
      </g>
     </g>
    </g>
    <g id="ytick_2">
     <g id="line2d_15">
      <path d="M 100.8 45.027377 
L 987.84 45.027377 
" clip-path="url(#pea3f4a708a)" style="fill: none; stroke-dasharray: 1.85,0.8; stroke-dashoffset: 0; stroke: #b2b2b2; stroke-width: 0.5"/>
     </g>
     <g id="line2d_16">
      <g>
       <use xlink:href="#m491ec27bdc" x="100.8" y="45.027377" style="stroke: #000000; stroke-width: 0.8"/>
      </g>
     </g>
     <g id="text_2">
      <!-- 0 V -->
      <g transform="translate(74.36625 50.346284) scale(0.14 -0.14)">
       <use xlink:href="#DejaVuSans-30"/>
       <use xlink:href="#DejaVuSans-20" x="63.623047"/>
       <use xlink:href="#DejaVuSans-56" x="95.410156"/>
      </g>
     </g>
    </g>
    <g id="text_3">
     <g id="patch_3">
      <path d="M 34.8768 131.080205 
L 34.8768 39.41083 
L 11.247425 39.41083 
L 11.247425 131.080205 
z
" style="fill: #ffff00; opacity: 0.2; stroke: #eeeeee; stroke-width: 0.5; stroke-linejoin: miter"/>
     </g>
     <!-- VPULSE BBI -->
     <g transform="translate(26.925238 126.040205) rotate(-90) scale(0.14 -0.14)">
      <defs>
       <path id="DejaVuSans-50" d="M 1259 4147 
L 1259 2394 
L 2053 2394 
Q 2494 2394 2734 2622 
Q 2975 2850 2975 3272 
Q 2975 3691 2734 3919 
Q 2494 4147 2053 4147 
L 1259 4147 
z
M 628 4666 
L 2053 4666 
Q 2838 4666 3239 4311 
Q 3641 3956 3641 3272 
Q 3641 2581 3239 2228 
Q 2838 1875 2053 1875 
L 1259 1875 
L 1259 0 
L 628 0 
L 628 4666 
z
" transform="scale(0.015625)"/>
       <path id="DejaVuSans-55" d="M 556 4666 
L 1191 4666 
L 1191 1831 
Q 1191 1081 1462 751 
Q 1734 422 2344 422 
Q 2950 422 3222 751 
Q 3494 1081 3494 1831 
L 3494 4666 
L 4128 4666 
L 4128 1753 
Q 4128 841 3676 375 
Q 3225 -91 2344 -91 
Q 1459 -91 1007 375 
Q 556 841 556 1753 
L 556 4666 
z
" transform="scale(0.015625)"/>
       <path id="DejaVuSans-4c" d="M 628 4666 
L 1259 4666 
L 1259 531 
L 3531 531 
L 3531 0 
L 628 0 
L 628 4666 
z
" transform="scale(0.015625)"/>
       <path id="DejaVuSans-53" d="M 3425 4513 
L 3425 3897 
Q 3066 4069 2747 4153 
Q 2428 4238 2131 4238 
Q 1616 4238 1336 4038 
Q 1056 3838 1056 3469 
Q 1056 3159 1242 3001 
Q 1428 2844 1947 2747 
L 2328 2669 
Q 3034 2534 3370 2195 
Q 3706 1856 3706 1288 
Q 3706 609 3251 259 
Q 2797 -91 1919 -91 
Q 1588 -91 1214 -16 
Q 841 59 441 206 
L 441 856 
Q 825 641 1194 531 
Q 1563 422 1919 422 
Q 2459 422 2753 634 
Q 3047 847 3047 1241 
Q 3047 1584 2836 1778 
Q 2625 1972 2144 2069 
L 1759 2144 
Q 1053 2284 737 2584 
Q 422 2884 422 3419 
Q 422 4038 858 4394 
Q 1294 4750 2059 4750 
Q 2388 4750 2728 4690 
Q 3069 4631 3425 4513 
z
" transform="scale(0.015625)"/>
       <path id="DejaVuSans-45" d="M 628 4666 
L 3578 4666 
L 3578 4134 
L 1259 4134 
L 1259 2753 
L 3481 2753 
L 3481 2222 
L 1259 2222 
L 1259 531 
L 3634 531 
L 3634 0 
L 628 0 
L 628 4666 
z
" transform="scale(0.015625)"/>
       <path id="DejaVuSans-42" d="M 1259 2228 
L 1259 519 
L 2272 519 
Q 2781 519 3026 730 
Q 3272 941 3272 1375 
Q 3272 1813 3026 2020 
Q 2781 2228 2272 2228 
L 1259 2228 
z
M 1259 4147 
L 1259 2741 
L 2194 2741 
Q 2656 2741 2882 2914 
Q 3109 3088 3109 3444 
Q 3109 3797 2882 3972 
Q 2656 4147 2194 4147 
L 1259 4147 
z
M 628 4666 
L 2241 4666 
Q 2963 4666 3353 4366 
Q 3744 4066 3744 3513 
Q 3744 3084 3544 2831 
Q 3344 2578 2956 2516 
Q 3422 2416 3680 2098 
Q 3938 1781 3938 1306 
Q 3938 681 3513 340 
Q 3088 0 2303 0 
L 628 0 
L 628 4666 
z
" transform="scale(0.015625)"/>
       <path id="DejaVuSans-49" d="M 628 4666 
L 1259 4666 
L 1259 0 
L 628 0 
L 628 4666 
z
" transform="scale(0.015625)"/>
      </defs>
      <use xlink:href="#DejaVuSans-56"/>
      <use xlink:href="#DejaVuSans-50" x="68.408203"/>
      <use xlink:href="#DejaVuSans-55" x="128.710938"/>
      <use xlink:href="#DejaVuSans-4c" x="201.904297"/>
      <use xlink:href="#DejaVuSans-53" x="257.617188"/>
      <use xlink:href="#DejaVuSans-45" x="321.09375"/>
      <use xlink:href="#DejaVuSans-20" x="384.277344"/>
      <use xlink:href="#DejaVuSans-42" x="416.064453"/>
      <use xlink:href="#DejaVuSans-42" x="484.667969"/>
      <use xlink:href="#DejaVuSans-49" x="553.271484"/>
     </g>
    </g>
   </g>
   <g id="line2d_17">
    <path d="M 141.12 45.027377 
L 234.694656 45.136282 
L 235.178496 46.425538 
L 243.403776 69.006772 
L 250.822656 89.863624 
L 252.435456 94.440546 
L 254.241792 99.673219 
L 257.72544 110.807642 
L 259.305984 115.853719 
L 260.531712 119.550977 
L 264.434688 121.36362 
L 265.015296 121.619522 
L 265.886208 122.003376 
L 266.531328 122.269941 
L 268.111872 122.936354 
L 268.756992 123.202919 
L 269.853696 123.629423 
L 270.595584 123.922644 
L 271.692288 124.349149 
L 272.595456 124.677024 
L 273.272832 124.943589 
L 274.079232 125.25547 
L 275.433984 125.804594 
L 278.078976 126.790885 
L 278.69184 127.022796 
L 280.6272 127.395987 
L 299.109888 127.289361 
L 299.33568 126.801547 
L 317.624832 75.087922 
L 321.366528 63.292417 
L 325.075968 51.617666 
L 329.688576 49.3412 
L 335.043072 46.984578 
L 343.752192 43.484472 
L 344.623104 43.268927 
L 358.912512 43.108189 
L 365.718528 43.184799 
L 381.072384 43.746186 
L 408.8448 44.46146 
L 434.48832 44.774399 
L 470.098944 44.945888 
L 518.128128 44.953885 
L 947.52 44.953885 
L 947.52 44.953885 
" clip-path="url(#pea3f4a708a)" style="fill: none; stroke: #ff0000; stroke-width: 2; stroke-linecap: square"/>
   </g>
   <g id="patch_4">
    <path d="M 100.8 131.611034 
L 100.8 38.88 
" style="fill: none; stroke: #bcbcbc; stroke-width: 0.8; stroke-linejoin: miter; stroke-linecap: square"/>
   </g>
   <g id="patch_5">
    <path d="M 987.84 131.611034 
L 987.84 38.88 
" style="fill: none; stroke: #bcbcbc; stroke-width: 0.8; stroke-linejoin: miter; stroke-linecap: square"/>
   </g>
   <g id="patch_6">
    <path d="M 100.8 131.611034 
L 987.84 131.611034 
" style="fill: none; stroke: #bcbcbc; stroke-width: 0.8; stroke-linejoin: miter; stroke-linecap: square"/>
   </g>
   <g id="patch_7">
    <path d="M 100.8 38.88 
L 987.84 38.88 
" style="fill: none; stroke: #bcbcbc; stroke-width: 0.8; stroke-linejoin: miter; stroke-linecap: square"/>
   </g>
  </g>
  <g id="axes_2">
   <g id="patch_8">
    <path d="M 100.8 242.888276 
L 987.84 242.888276 
L 987.84 150.157241 
L 100.8 150.157241 
z
" style="fill: #eeeeee"/>
   </g>
   <g id="matplotlib.axis_3">
    <g id="xtick_7">
     <g id="line2d_18">
      <path d="M 141.12 242.888276 
L 141.12 150.157241 
" clip-path="url(#pa915b55461)" style="fill: none; stroke-dasharray: 1.85,0.8; stroke-dashoffset: 0; stroke: #b2b2b2; stroke-width: 0.5"/>
     </g>
     <g id="line2d_19">
      <g>
       <use xlink:href="#m5163a214d8" x="141.12" y="242.888276" style="stroke: #000000; stroke-width: 0.8"/>
      </g>
     </g>
    </g>
    <g id="xtick_8">
     <g id="line2d_20">
      <path d="M 302.4 242.888276 
L 302.4 150.157241 
" clip-path="url(#pa915b55461)" style="fill: none; stroke-dasharray: 1.85,0.8; stroke-dashoffset: 0; stroke: #b2b2b2; stroke-width: 0.5"/>
     </g>
     <g id="line2d_21">
      <g>
       <use xlink:href="#m5163a214d8" x="302.4" y="242.888276" style="stroke: #000000; stroke-width: 0.8"/>
      </g>
     </g>
    </g>
    <g id="xtick_9">
     <g id="line2d_22">
      <path d="M 463.68 242.888276 
L 463.68 150.157241 
" clip-path="url(#pa915b55461)" style="fill: none; stroke-dasharray: 1.85,0.8; stroke-dashoffset: 0; stroke: #b2b2b2; stroke-width: 0.5"/>
     </g>
     <g id="line2d_23">
      <g>
       <use xlink:href="#m5163a214d8" x="463.68" y="242.888276" style="stroke: #000000; stroke-width: 0.8"/>
      </g>
     </g>
    </g>
    <g id="xtick_10">
     <g id="line2d_24">
      <path d="M 624.96 242.888276 
L 624.96 150.157241 
" clip-path="url(#pa915b55461)" style="fill: none; stroke-dasharray: 1.85,0.8; stroke-dashoffset: 0; stroke: #b2b2b2; stroke-width: 0.5"/>
     </g>
     <g id="line2d_25">
      <g>
       <use xlink:href="#m5163a214d8" x="624.96" y="242.888276" style="stroke: #000000; stroke-width: 0.8"/>
      </g>
     </g>
    </g>
    <g id="xtick_11">
     <g id="line2d_26">
      <path d="M 786.24 242.888276 
L 786.24 150.157241 
" clip-path="url(#pa915b55461)" style="fill: none; stroke-dasharray: 1.85,0.8; stroke-dashoffset: 0; stroke: #b2b2b2; stroke-width: 0.5"/>
     </g>
     <g id="line2d_27">
      <g>
       <use xlink:href="#m5163a214d8" x="786.24" y="242.888276" style="stroke: #000000; stroke-width: 0.8"/>
      </g>
     </g>
    </g>
    <g id="xtick_12">
     <g id="line2d_28">
      <path d="M 947.52 242.888276 
L 947.52 150.157241 
" clip-path="url(#pa915b55461)" style="fill: none; stroke-dasharray: 1.85,0.8; stroke-dashoffset: 0; stroke: #b2b2b2; stroke-width: 0.5"/>
     </g>
     <g id="line2d_29">
      <g>
       <use xlink:href="#m5163a214d8" x="947.52" y="242.888276" style="stroke: #000000; stroke-width: 0.8"/>
      </g>
     </g>
    </g>
   </g>
   <g id="matplotlib.axis_4">
    <g id="ytick_3">
     <g id="line2d_30">
      <path d="M 100.8 216.293869 
L 987.84 216.293869 
" clip-path="url(#pa915b55461)" style="fill: none; stroke-dasharray: 1.85,0.8; stroke-dashoffset: 0; stroke: #b2b2b2; stroke-width: 0.5"/>
     </g>
     <g id="line2d_31">
      <g>
       <use xlink:href="#m491ec27bdc" x="100.8" y="216.293869" style="stroke: #000000; stroke-width: 0.8"/>
      </g>
     </g>
     <g id="text_4">
      <!-- 0 V -->
      <g transform="translate(74.36625 221.612775) scale(0.14 -0.14)">
       <use xlink:href="#DejaVuSans-30"/>
       <use xlink:href="#DejaVuSans-20" x="63.623047"/>
       <use xlink:href="#DejaVuSans-56" x="95.410156"/>
      </g>
     </g>
    </g>
    <g id="ytick_4">
     <g id="line2d_32">
      <path d="M 100.8 177.329874 
L 987.84 177.329874 
" clip-path="url(#pa915b55461)" style="fill: none; stroke-dasharray: 1.85,0.8; stroke-dashoffset: 0; stroke: #b2b2b2; stroke-width: 0.5"/>
     </g>
     <g id="line2d_33">
      <g>
       <use xlink:href="#m491ec27bdc" x="100.8" y="177.329874" style="stroke: #000000; stroke-width: 0.8"/>
      </g>
     </g>
     <g id="text_5">
      <!-- 1 V -->
      <g transform="translate(74.36625 182.64878) scale(0.14 -0.14)">
       <defs>
        <path id="DejaVuSans-31" d="M 794 531 
L 1825 531 
L 1825 4091 
L 703 3866 
L 703 4441 
L 1819 4666 
L 2450 4666 
L 2450 531 
L 3481 531 
L 3481 0 
L 794 0 
L 794 531 
z
" transform="scale(0.015625)"/>
       </defs>
       <use xlink:href="#DejaVuSans-31"/>
       <use xlink:href="#DejaVuSans-20" x="63.623047"/>
       <use xlink:href="#DejaVuSans-56" x="95.410156"/>
      </g>
     </g>
    </g>
    <g id="text_6">
     <g id="patch_9">
      <path d="M 34.8768 224.531509 
L 34.8768 168.514009 
L 11.247425 168.514009 
L 11.247425 224.531509 
z
" style="fill: #ffff00; opacity: 0.2; stroke: #eeeeee; stroke-width: 0.5; stroke-linejoin: miter"/>
     </g>
     <!-- DFF IN -->
     <g transform="translate(26.925238 219.491509) rotate(-90) scale(0.14 -0.14)">
      <defs>
       <path id="DejaVuSans-44" d="M 1259 4147 
L 1259 519 
L 2022 519 
Q 2988 519 3436 956 
Q 3884 1394 3884 2338 
Q 3884 3275 3436 3711 
Q 2988 4147 2022 4147 
L 1259 4147 
z
M 628 4666 
L 1925 4666 
Q 3281 4666 3915 4102 
Q 4550 3538 4550 2338 
Q 4550 1131 3912 565 
Q 3275 0 1925 0 
L 628 0 
L 628 4666 
z
" transform="scale(0.015625)"/>
       <path id="DejaVuSans-46" d="M 628 4666 
L 3309 4666 
L 3309 4134 
L 1259 4134 
L 1259 2759 
L 3109 2759 
L 3109 2228 
L 1259 2228 
L 1259 0 
L 628 0 
L 628 4666 
z
" transform="scale(0.015625)"/>
       <path id="DejaVuSans-4e" d="M 628 4666 
L 1478 4666 
L 3547 763 
L 3547 4666 
L 4159 4666 
L 4159 0 
L 3309 0 
L 1241 3903 
L 1241 0 
L 628 0 
L 628 4666 
z
" transform="scale(0.015625)"/>
      </defs>
      <use xlink:href="#DejaVuSans-44"/>
      <use xlink:href="#DejaVuSans-46" x="77.001953"/>
      <use xlink:href="#DejaVuSans-46" x="134.521484"/>
      <use xlink:href="#DejaVuSans-20" x="192.041016"/>
      <use xlink:href="#DejaVuSans-49" x="223.828125"/>
      <use xlink:href="#DejaVuSans-4e" x="253.320312"/>
     </g>
    </g>
   </g>
   <g id="line2d_34">
    <path d="M 141.12 216.236966 
L 221.953536 216.18339 
L 224.437248 194.468966 
L 226.082304 182.720153 
L 227.017728 177.452221 
L 227.662848 174.960863 
L 228.275712 173.390614 
L 228.888576 172.365861 
L 229.565952 171.645027 
L 230.275584 171.181356 
L 231.243264 170.83068 
L 232.72704 170.585207 
L 234.50112 170.476107 
L 234.726912 170.557932 
L 235.178496 171.528135 
L 236.11392 173.50361 
L 237.146112 175.155683 
L 237.920256 176.258364 
L 242.88768 183.652951 
L 243.887616 185.373601 
L 244.435968 187.028012 
L 245.62944 192.022807 
L 245.984256 193.572015 
L 246.145536 194.195439 
L 246.59712 196.197799 
L 246.951936 198.170936 
L 248.242176 205.004831 
L 249.242112 209.450233 
L 251.500032 218.342557 
L 251.661312 218.875701 
L 252.338688 221.125794 
L 252.532224 221.532968 
L 252.983808 223.026847 
L 253.435392 224.024715 
L 254.080512 225.183504 
L 254.33856 225.944861 
L 254.8224 227.061958 
L 254.98368 227.232621 
L 255.30624 228.260491 
L 256.209408 230.109332 
L 256.370688 230.322076 
L 256.790016 231.480086 
L 257.306112 232.54731 
L 257.435136 232.800965 
L 257.693184 233.165668 
L 258.015744 233.862734 
L 258.338304 234.757347 
L 259.757568 237.517167 
L 260.434944 238.580105 
L 260.692992 238.668553 
L 261.209088 237.830827 
L 261.402624 237.641852 
L 261.725184 237.068692 
L 262.273536 235.964062 
L 263.273472 234.67825 
L 264.112128 233.318797 
L 264.208896 233.236193 
L 264.466944 232.982148 
L 264.757248 232.79551 
L 265.14432 232.465875 
L 265.757184 231.699453 
L 266.176512 230.891729 
L 266.466816 230.635736 
L 266.499072 230.66418 
L 266.660352 230.582745 
L 268.144128 229.314467 
L 268.498944 228.775205 
L 268.756992 228.400761 
L 268.821504 228.360628 
L 268.982784 228.212565 
L 269.369856 227.894619 
L 269.563392 227.727074 
L 269.82144 227.543553 
L 270.176256 227.293015 
L 271.531008 225.865764 
L 271.7568 225.457421 
L 271.885824 225.374817 
L 272.659968 224.829711 
L 273.04704 224.524233 
L 274.692096 222.780595 
L 275.014656 222.295493 
L 275.369472 222.16886 
L 275.756544 222.061709 
L 277.07904 220.96721 
L 278.337024 219.762716 
L 278.788608 219.408183 
L 279.595008 218.754562 
L 280.240128 218.042846 
L 281.143296 216.694886 
L 282.207744 214.952533 
L 283.401216 213.012555 
L 283.788288 212.402106 
L 286.75584 208.012072 
L 287.497728 207.038362 
L 287.755776 206.721974 
L 288.52992 205.833595 
L 289.110528 205.358234 
L 290.304 204.963918 
L 290.529792 204.993531 
L 291.142656 205.106527 
L 291.787776 205.391353 
L 292.658688 206.116084 
L 293.69088 207.330202 
L 294.17472 208.039736 
L 297.368064 212.517829 
L 298.432512 213.462628 
L 299.206656 213.904947 
L 300.593664 212.661139 
L 302.335488 212.124332 
L 303.464448 212.02848 
L 304.948224 212.121215 
L 306.335232 212.29928 
L 306.75456 212.362402 
L 307.625472 212.478592 
L 308.335104 212.597511 
L 308.980224 212.660671 
L 309.722112 212.765367 
L 310.14144 212.815475 
L 310.980096 212.914288 
L 312.23808 213.025842 
L 314.65728 213.180334 
L 316.75392 213.279108 
L 317.140992 213.277315 
L 317.88288 213.282926 
L 318.398976 213.283277 
L 320.495616 212.973942 
L 320.9472 212.939692 
L 322.430976 212.754769 
L 322.850304 212.703609 
L 323.495424 212.63628 
L 324.01152 212.564469 
L 324.65664 212.456539 
L 325.075968 212.536921 
L 325.817856 213.256509 
L 326.785536 214.037269 
L 329.140224 214.894983 
L 330.94656 215.164965 
L 337.494528 215.662535 
L 344.881152 216.040883 
L 346.074624 216.229722 
L 346.493952 216.274832 
L 347.5584 216.352416 
L 347.687424 216.383813 
L 347.751936 215.687355 
L 348.977664 197.070592 
L 350.106624 182.728336 
L 351.10656 172.510028 
L 352.332288 162.122227 
L 352.977408 158.272584 
L 353.493504 156.406209 
L 354.041856 155.256771 
L 354.557952 154.69569 
L 355.074048 154.450216 
L 355.78368 154.387874 
L 356.977152 154.637244 
L 369.97632 159.231099 
L 371.685888 159.753216 
L 372.298752 159.936347 
L 372.685824 160.045446 
L 373.298688 160.228577 
L 375.072768 160.739005 
L 376.524288 165.145833 
L 376.814592 165.356239 
L 377.137152 165.325067 
L 377.588736 164.986081 
L 378.556416 163.984706 
L 379.459584 163.357386 
L 380.685312 163.026192 
L 383.781888 163.135291 
L 384.49152 163.197633 
L 385.717248 163.302836 
L 386.555904 163.39635 
L 387.426816 163.501552 
L 388.007424 163.595066 
L 390.878208 164.047048 
L 391.233024 164.101598 
L 394.232832 164.573062 
L 395.45856 164.756193 
L 396.200448 164.861396 
L 397.361664 165.028941 
L 411.264 166.59919 
L 412.263936 166.704393 
L 412.71552 166.755046 
L 414.038016 166.864145 
L 415.392768 166.930384 
L 415.908864 166.244618 
L 416.683008 165.897838 
L 417.39264 166.003041 
L 417.779712 166.116036 
L 418.457088 166.388784 
L 418.940928 166.55633 
L 420.489216 167.000519 
L 427.940352 167.791488 
L 429.778944 167.900587 
L 430.13376 167.916173 
L 430.746624 167.951241 
L 432.262656 168.025272 
L 434.714112 168.134371 
L 435.262464 168.153853 
L 435.907584 168.177232 
L 436.42368 168.188921 
L 438.746112 168.29802 
L 439.939584 168.336984 
L 440.584704 168.368155 
L 441.1008 168.379845 
L 444.00384 168.485047 
L 444.48768 168.49284 
L 447.681024 168.594146 
L 448.003584 168.598043 
L 449.197056 168.63311 
L 453.487104 168.74221 
L 454.0032 168.757795 
L 455.745024 168.855205 
L 456.293376 169.568246 
L 456.74496 169.852684 
L 457.39008 170.047503 
L 458.390016 169.938404 
L 461.551104 169.287706 
L 463.325184 169.182503 
L 496.032768 169.116264 
L 496.613376 168.407119 
L 497.22624 168.083718 
L 498.322944 168.06034 
L 502.096896 168.859102 
L 503.935488 168.972097 
L 510.28992 169.081196 
L 511.225344 169.085093 
L 536.385024 169.155228 
L 537.0624 169.95399 
L 537.772032 170.261805 
L 539.15904 170.320251 
L 540.029952 170.215049 
L 542.38464 169.75917 
L 547.86816 169.205881 
L 576.672768 169.12016 
L 577.285632 168.35257 
L 577.70496 168.142164 
L 578.253312 167.997997 
L 579.027456 168.107097 
L 580.156416 168.35257 
L 582.478848 168.800656 
L 585.317376 169.03444 
L 616.992768 169.116264 
L 618.089472 170.144913 
L 619.3152 170.335837 
L 623.443968 169.727999 
L 625.12128 169.435769 
L 628.34688 169.155228 
L 657.345024 169.065611 
L 657.828864 168.453876 
L 658.50624 168.083718 
L 659.602944 168.06034 
L 663.376896 168.859102 
L 665.215488 168.972097 
L 671.56992 169.081196 
L 672.505344 169.085093 
L 697.665024 169.151332 
L 698.148864 169.766963 
L 698.761728 170.152706 
L 699.9552 170.335837 
L 704.083968 169.727999 
L 705.76128 169.435769 
L 708.98688 169.155228 
L 737.985024 169.065611 
L 738.468864 168.453876 
L 739.14624 168.083718 
L 740.242944 168.06034 
L 744.016896 168.859102 
L 745.855488 168.972097 
L 752.20992 169.081196 
L 753.145344 169.085093 
L 778.305024 169.151332 
L 778.788864 169.766963 
L 779.401728 170.152706 
L 780.5952 170.335837 
L 784.723968 169.727999 
L 786.40128 169.435769 
L 789.62688 169.155228 
L 818.625024 169.065611 
L 819.108864 168.453876 
L 819.78624 168.083718 
L 820.882944 168.06034 
L 824.656896 168.859102 
L 826.495488 168.972097 
L 832.84992 169.081196 
L 833.785344 169.085093 
L 858.945024 169.151332 
L 859.428864 169.766963 
L 860.041728 170.152706 
L 861.2352 170.335837 
L 865.363968 169.727999 
L 867.04128 169.435769 
L 870.26688 169.155228 
L 899.265024 169.065611 
L 899.748864 168.453876 
L 900.42624 168.083718 
L 901.522944 168.06034 
L 905.296896 168.859102 
L 907.135488 168.972097 
L 913.48992 169.081196 
L 914.425344 169.085093 
L 939.585024 169.151332 
L 940.10112 169.81372 
L 940.617216 170.109846 
L 941.520384 170.324148 
L 943.358976 170.218945 
L 946.06848 169.677346 
L 947.52 169.416287 
L 947.52 169.416287 
" clip-path="url(#pa915b55461)" style="fill: none; stroke: #008000; stroke-width: 2; stroke-linecap: square"/>
   </g>
   <g id="patch_10">
    <path d="M 100.8 242.888276 
L 100.8 150.157241 
" style="fill: none; stroke: #bcbcbc; stroke-width: 0.8; stroke-linejoin: miter; stroke-linecap: square"/>
   </g>
   <g id="patch_11">
    <path d="M 987.84 242.888276 
L 987.84 150.157241 
" style="fill: none; stroke: #bcbcbc; stroke-width: 0.8; stroke-linejoin: miter; stroke-linecap: square"/>
   </g>
   <g id="patch_12">
    <path d="M 100.8 242.888276 
L 987.84 242.888276 
" style="fill: none; stroke: #bcbcbc; stroke-width: 0.8; stroke-linejoin: miter; stroke-linecap: square"/>
   </g>
   <g id="patch_13">
    <path d="M 100.8 150.157241 
L 987.84 150.157241 
" style="fill: none; stroke: #bcbcbc; stroke-width: 0.8; stroke-linejoin: miter; stroke-linecap: square"/>
   </g>
  </g>
  <g id="axes_3">
   <g id="patch_14">
    <path d="M 100.8 354.165517 
L 987.84 354.165517 
L 987.84 261.434483 
L 100.8 261.434483 
z
" style="fill: #eeeeee"/>
   </g>
   <g id="matplotlib.axis_5">
    <g id="xtick_13">
     <g id="line2d_35">
      <path d="M 141.12 354.165517 
L 141.12 261.434483 
" clip-path="url(#p084e64cb2f)" style="fill: none; stroke-dasharray: 1.85,0.8; stroke-dashoffset: 0; stroke: #b2b2b2; stroke-width: 0.5"/>
     </g>
     <g id="line2d_36">
      <g>
       <use xlink:href="#m5163a214d8" x="141.12" y="354.165517" style="stroke: #000000; stroke-width: 0.8"/>
      </g>
     </g>
    </g>
    <g id="xtick_14">
     <g id="line2d_37">
      <path d="M 302.4 354.165517 
L 302.4 261.434483 
" clip-path="url(#p084e64cb2f)" style="fill: none; stroke-dasharray: 1.85,0.8; stroke-dashoffset: 0; stroke: #b2b2b2; stroke-width: 0.5"/>
     </g>
     <g id="line2d_38">
      <g>
       <use xlink:href="#m5163a214d8" x="302.4" y="354.165517" style="stroke: #000000; stroke-width: 0.8"/>
      </g>
     </g>
    </g>
    <g id="xtick_15">
     <g id="line2d_39">
      <path d="M 463.68 354.165517 
L 463.68 261.434483 
" clip-path="url(#p084e64cb2f)" style="fill: none; stroke-dasharray: 1.85,0.8; stroke-dashoffset: 0; stroke: #b2b2b2; stroke-width: 0.5"/>
     </g>
     <g id="line2d_40">
      <g>
       <use xlink:href="#m5163a214d8" x="463.68" y="354.165517" style="stroke: #000000; stroke-width: 0.8"/>
      </g>
     </g>
    </g>
    <g id="xtick_16">
     <g id="line2d_41">
      <path d="M 624.96 354.165517 
L 624.96 261.434483 
" clip-path="url(#p084e64cb2f)" style="fill: none; stroke-dasharray: 1.85,0.8; stroke-dashoffset: 0; stroke: #b2b2b2; stroke-width: 0.5"/>
     </g>
     <g id="line2d_42">
      <g>
       <use xlink:href="#m5163a214d8" x="624.96" y="354.165517" style="stroke: #000000; stroke-width: 0.8"/>
      </g>
     </g>
    </g>
    <g id="xtick_17">
     <g id="line2d_43">
      <path d="M 786.24 354.165517 
L 786.24 261.434483 
" clip-path="url(#p084e64cb2f)" style="fill: none; stroke-dasharray: 1.85,0.8; stroke-dashoffset: 0; stroke: #b2b2b2; stroke-width: 0.5"/>
     </g>
     <g id="line2d_44">
      <g>
       <use xlink:href="#m5163a214d8" x="786.24" y="354.165517" style="stroke: #000000; stroke-width: 0.8"/>
      </g>
     </g>
    </g>
    <g id="xtick_18">
     <g id="line2d_45">
      <path d="M 947.52 354.165517 
L 947.52 261.434483 
" clip-path="url(#p084e64cb2f)" style="fill: none; stroke-dasharray: 1.85,0.8; stroke-dashoffset: 0; stroke: #b2b2b2; stroke-width: 0.5"/>
     </g>
     <g id="line2d_46">
      <g>
       <use xlink:href="#m5163a214d8" x="947.52" y="354.165517" style="stroke: #000000; stroke-width: 0.8"/>
      </g>
     </g>
    </g>
   </g>
   <g id="matplotlib.axis_6">
    <g id="ytick_5">
     <g id="line2d_47">
      <path d="M 100.8 347.287067 
L 987.84 347.287067 
" clip-path="url(#p084e64cb2f)" style="fill: none; stroke-dasharray: 1.85,0.8; stroke-dashoffset: 0; stroke: #b2b2b2; stroke-width: 0.5"/>
     </g>
     <g id="line2d_48">
      <g>
       <use xlink:href="#m491ec27bdc" x="100.8" y="347.287067" style="stroke: #000000; stroke-width: 0.8"/>
      </g>
     </g>
     <g id="text_7">
      <!-- 0 V -->
      <g transform="translate(74.36625 352.605973) scale(0.14 -0.14)">
       <use xlink:href="#DejaVuSans-30"/>
       <use xlink:href="#DejaVuSans-20" x="63.623047"/>
       <use xlink:href="#DejaVuSans-56" x="95.410156"/>
      </g>
     </g>
    </g>
    <g id="ytick_6">
     <g id="line2d_49">
      <path d="M 100.8 303.060653 
L 987.84 303.060653 
" clip-path="url(#p084e64cb2f)" style="fill: none; stroke-dasharray: 1.85,0.8; stroke-dashoffset: 0; stroke: #b2b2b2; stroke-width: 0.5"/>
     </g>
     <g id="line2d_50">
      <g>
       <use xlink:href="#m491ec27bdc" x="100.8" y="303.060653" style="stroke: #000000; stroke-width: 0.8"/>
      </g>
     </g>
     <g id="text_8">
      <!-- 1 V -->
      <g transform="translate(74.36625 308.37956) scale(0.14 -0.14)">
       <use xlink:href="#DejaVuSans-31"/>
       <use xlink:href="#DejaVuSans-20" x="63.623047"/>
       <use xlink:href="#DejaVuSans-56" x="95.410156"/>
      </g>
     </g>
    </g>
    <g id="text_9">
     <g id="patch_15">
      <path d="M 34.8768 342.395313 
L 34.8768 273.204688 
L 11.247425 273.204688 
L 11.247425 342.395313 
z
" style="fill: #ffff00; opacity: 0.2; stroke: #eeeeee; stroke-width: 0.5; stroke-linejoin: miter"/>
     </g>
     <!-- CLK BUF -->
     <g transform="translate(26.925238 337.355313) rotate(-90) scale(0.14 -0.14)">
      <defs>
       <path id="DejaVuSans-43" d="M 4122 4306 
L 4122 3641 
Q 3803 3938 3442 4084 
Q 3081 4231 2675 4231 
Q 1875 4231 1450 3742 
Q 1025 3253 1025 2328 
Q 1025 1406 1450 917 
Q 1875 428 2675 428 
Q 3081 428 3442 575 
Q 3803 722 4122 1019 
L 4122 359 
Q 3791 134 3420 21 
Q 3050 -91 2638 -91 
Q 1578 -91 968 557 
Q 359 1206 359 2328 
Q 359 3453 968 4101 
Q 1578 4750 2638 4750 
Q 3056 4750 3426 4639 
Q 3797 4528 4122 4306 
z
" transform="scale(0.015625)"/>
       <path id="DejaVuSans-4b" d="M 628 4666 
L 1259 4666 
L 1259 2694 
L 3353 4666 
L 4166 4666 
L 1850 2491 
L 4331 0 
L 3500 0 
L 1259 2247 
L 1259 0 
L 628 0 
L 628 4666 
z
" transform="scale(0.015625)"/>
      </defs>
      <use xlink:href="#DejaVuSans-43"/>
      <use xlink:href="#DejaVuSans-4c" x="69.824219"/>
      <use xlink:href="#DejaVuSans-4b" x="125.537109"/>
      <use xlink:href="#DejaVuSans-20" x="191.113281"/>
      <use xlink:href="#DejaVuSans-42" x="222.900391"/>
      <use xlink:href="#DejaVuSans-55" x="291.503906"/>
      <use xlink:href="#DejaVuSans-46" x="364.697266"/>
     </g>
    </g>
   </g>
   <g id="line2d_51">
    <path d="M 141.12 347.285898 
L 173.376 347.285898 
L 173.601792 294.21537 
L 213.696 294.21537 
L 213.760512 336.548452 
L 213.825024 347.266862 
L 213.889536 347.203218 
L 213.954048 347.379898 
L 214.01856 347.29186 
L 215.3088 347.279515 
L 215.889408 347.285587 
L 234.759168 347.409247 
L 235.404288 348.035997 
L 236.178432 348.45345 
L 237.210624 348.718057 
L 238.468608 348.830038 
L 241.081344 348.820043 
L 253.016064 348.59785 
L 254.016 348.910928 
L 254.048256 349.95047 
L 254.209536 325.041181 
L 254.274048 324.866929 
L 254.33856 324.908059 
L 255.693312 326.18178 
L 258.080256 328.069806 
L 259.17696 328.843326 
L 260.499456 329.680974 
L 261.43488 329.171928 
L 262.144512 328.815463 
L 262.176768 328.874727 
L 262.24128 328.79733 
L 262.531584 328.669516 
L 262.56384 328.710647 
L 262.628352 328.651383 
L 266.337792 327.244099 
L 271.401984 325.412241 
L 271.531008 325.284868 
L 271.692288 325.346785 
L 271.821312 325.185359 
L 271.853568 325.268505 
L 271.950336 325.230912 
L 272.466432 325.043392 
L 272.88576 324.880639 
L 274.369536 324.320733 
L 274.563072 324.293312 
L 275.014656 324.151788 
L 279.917568 322.355753 
L 282.369024 320.885225 
L 290.14272 315.794322 
L 294.336 313.383983 
L 294.368256 311.254481 
L 294.561792 346.882847 
L 294.626304 346.816587 
L 295.077888 346.823884 
L 299.238912 346.771874 
L 299.884032 346.130679 
L 300.658176 345.709334 
L 301.658112 345.452909 
L 303.109632 345.343228 
L 305.754624 345.392054 
L 321.076224 345.806499 
L 325.011456 345.986545 
L 325.688832 346.686517 
L 326.43072 347.125044 
L 327.366144 347.419729 
L 328.720896 347.602649 
L 331.172352 347.684455 
L 334.656 347.686228 
L 334.688256 339.539484 
L 334.81728 265.64953 
L 335.204352 265.813168 
L 336.849408 266.591552 
L 344.81664 269.988141 
L 345.364992 270.297726 
L 346.010112 270.678073 
L 346.622976 271.04073 
L 348.493824 272.181771 
L 348.880896 272.402903 
L 349.526016 272.800941 
L 350.30016 273.238782 
L 356.4288 276.476156 
L 358.170624 277.312035 
L 359.525376 277.931205 
L 371.879424 282.897831 
L 372.169728 282.999552 
L 373.718016 283.517001 
L 374.105088 283.618722 
L 374.976 283.915039 
L 375.13728 347.591473 
L 375.234048 347.554407 
L 376.975872 347.543753 
L 381.10464 347.513856 
L 415.296 347.366113 
L 415.392768 290.650722 
L 415.521792 291.345076 
L 416.005632 291.38488 
L 417.779712 291.517559 
L 419.00544 291.61928 
L 419.360256 291.654661 
L 420.682752 291.765227 
L 420.9408 291.78734 
L 421.456896 291.827144 
L 422.908416 291.915597 
L 424.230912 292.017318 
L 424.585728 292.048276 
L 426.166272 292.149997 
L 426.521088 292.180955 
L 428.295168 292.282676 
L 428.649984 292.313635 
L 430.520832 292.415355 
L 430.875648 292.446314 
L 432.940032 292.548035 
L 433.294848 292.578993 
L 435.552768 292.680714 
L 435.907584 292.711672 
L 438.455808 292.813393 
L 438.810624 292.844352 
L 441.552384 292.946072 
L 441.9072 292.977031 
L 445.036032 293.078752 
L 445.390848 293.10971 
L 449.00352 293.211431 
L 449.358336 293.242389 
L 453.454848 293.34411 
L 453.809664 293.375069 
L 455.616 293.419295 
L 455.648256 297.067974 
L 455.712768 347.805799 
L 455.77728 347.259262 
L 455.809536 347.255146 
L 455.841792 347.4013 
L 455.906304 347.310766 
L 456.325632 347.307735 
L 485.93664 347.298564 
L 495.936 347.298564 
L 496.09728 293.684654 
L 496.161792 293.790797 
L 497.097216 293.773106 
L 536.256 293.773106 
L 536.385024 347.624767 
L 536.546304 347.367608 
L 536.804352 347.269021 
L 537.159168 347.317134 
L 537.481728 347.298331 
L 574.576128 347.298562 
L 576.576 347.298563 
L 576.705024 293.591778 
L 576.769536 293.777529 
L 576.89856 293.773106 
L 616.896 293.773106 
L 617.186304 347.39747 
L 617.347584 347.295854 
L 618.67008 347.296113 
L 627.05664 347.30266 
L 654.732288 347.2986 
L 657.216 347.298604 
L 657.37728 293.684654 
L 657.441792 293.790797 
L 658.377216 293.773106 
L 697.536 293.773106 
L 697.826304 347.397465 
L 697.987584 347.295858 
L 699.31008 347.296115 
L 707.69664 347.302675 
L 735.27552 347.2986 
L 737.856 347.298604 
L 738.01728 293.684654 
L 738.081792 293.790797 
L 739.017216 293.773106 
L 778.176 293.773106 
L 778.466304 347.397465 
L 778.627584 347.295854 
L 779.95008 347.296113 
L 788.33664 347.302679 
L 816.012288 347.2986 
L 818.496 347.298604 
L 818.65728 293.684654 
L 818.721792 293.790797 
L 819.657216 293.773106 
L 858.816 293.773106 
L 859.106304 347.39747 
L 859.267584 347.295858 
L 860.59008 347.296115 
L 868.97664 347.302675 
L 896.652288 347.2986 
L 899.136 347.298604 
L 899.29728 293.684654 
L 899.361792 293.790797 
L 900.297216 293.773106 
L 939.456 293.773106 
L 939.488256 301.747129 
L 939.61728 347.245961 
L 939.649536 347.374565 
L 939.714048 347.251525 
L 939.746304 347.212718 
L 939.810816 347.269798 
L 940.004352 347.32503 
L 940.197888 347.297831 
L 945.487872 347.298569 
L 947.52 347.298553 
L 947.52 347.298553 
" clip-path="url(#p084e64cb2f)" style="fill: none; stroke: #0000ff; stroke-width: 2; stroke-linecap: square"/>
   </g>
   <g id="patch_16">
    <path d="M 100.8 354.165517 
L 100.8 261.434483 
" style="fill: none; stroke: #bcbcbc; stroke-width: 0.8; stroke-linejoin: miter; stroke-linecap: square"/>
   </g>
   <g id="patch_17">
    <path d="M 987.84 354.165517 
L 987.84 261.434483 
" style="fill: none; stroke: #bcbcbc; stroke-width: 0.8; stroke-linejoin: miter; stroke-linecap: square"/>
   </g>
   <g id="patch_18">
    <path d="M 100.8 354.165517 
L 987.84 354.165517 
" style="fill: none; stroke: #bcbcbc; stroke-width: 0.8; stroke-linejoin: miter; stroke-linecap: square"/>
   </g>
   <g id="patch_19">
    <path d="M 100.8 261.434483 
L 987.84 261.434483 
" style="fill: none; stroke: #bcbcbc; stroke-width: 0.8; stroke-linejoin: miter; stroke-linecap: square"/>
   </g>
  </g>
  <g id="axes_4">
   <g id="patch_20">
    <path d="M 100.8 465.442759 
L 987.84 465.442759 
L 987.84 372.711724 
L 100.8 372.711724 
z
" style="fill: #eeeeee"/>
   </g>
   <g id="matplotlib.axis_7">
    <g id="xtick_19">
     <g id="line2d_52">
      <path d="M 141.12 465.442759 
L 141.12 372.711724 
" clip-path="url(#pba380407a9)" style="fill: none; stroke-dasharray: 1.85,0.8; stroke-dashoffset: 0; stroke: #b2b2b2; stroke-width: 0.5"/>
     </g>
     <g id="line2d_53">
      <g>
       <use xlink:href="#m5163a214d8" x="141.12" y="465.442759" style="stroke: #000000; stroke-width: 0.8"/>
      </g>
     </g>
    </g>
    <g id="xtick_20">
     <g id="line2d_54">
      <path d="M 302.4 465.442759 
L 302.4 372.711724 
" clip-path="url(#pba380407a9)" style="fill: none; stroke-dasharray: 1.85,0.8; stroke-dashoffset: 0; stroke: #b2b2b2; stroke-width: 0.5"/>
     </g>
     <g id="line2d_55">
      <g>
       <use xlink:href="#m5163a214d8" x="302.4" y="465.442759" style="stroke: #000000; stroke-width: 0.8"/>
      </g>
     </g>
    </g>
    <g id="xtick_21">
     <g id="line2d_56">
      <path d="M 463.68 465.442759 
L 463.68 372.711724 
" clip-path="url(#pba380407a9)" style="fill: none; stroke-dasharray: 1.85,0.8; stroke-dashoffset: 0; stroke: #b2b2b2; stroke-width: 0.5"/>
     </g>
     <g id="line2d_57">
      <g>
       <use xlink:href="#m5163a214d8" x="463.68" y="465.442759" style="stroke: #000000; stroke-width: 0.8"/>
      </g>
     </g>
    </g>
    <g id="xtick_22">
     <g id="line2d_58">
      <path d="M 624.96 465.442759 
L 624.96 372.711724 
" clip-path="url(#pba380407a9)" style="fill: none; stroke-dasharray: 1.85,0.8; stroke-dashoffset: 0; stroke: #b2b2b2; stroke-width: 0.5"/>
     </g>
     <g id="line2d_59">
      <g>
       <use xlink:href="#m5163a214d8" x="624.96" y="465.442759" style="stroke: #000000; stroke-width: 0.8"/>
      </g>
     </g>
    </g>
    <g id="xtick_23">
     <g id="line2d_60">
      <path d="M 786.24 465.442759 
L 786.24 372.711724 
" clip-path="url(#pba380407a9)" style="fill: none; stroke-dasharray: 1.85,0.8; stroke-dashoffset: 0; stroke: #b2b2b2; stroke-width: 0.5"/>
     </g>
     <g id="line2d_61">
      <g>
       <use xlink:href="#m5163a214d8" x="786.24" y="465.442759" style="stroke: #000000; stroke-width: 0.8"/>
      </g>
     </g>
    </g>
    <g id="xtick_24">
     <g id="line2d_62">
      <path d="M 947.52 465.442759 
L 947.52 372.711724 
" clip-path="url(#pba380407a9)" style="fill: none; stroke-dasharray: 1.85,0.8; stroke-dashoffset: 0; stroke: #b2b2b2; stroke-width: 0.5"/>
     </g>
     <g id="line2d_63">
      <g>
       <use xlink:href="#m5163a214d8" x="947.52" y="465.442759" style="stroke: #000000; stroke-width: 0.8"/>
      </g>
     </g>
    </g>
   </g>
   <g id="matplotlib.axis_8">
    <g id="ytick_7">
     <g id="line2d_64">
      <path d="M 100.8 434.921488 
L 987.84 434.921488 
" clip-path="url(#pba380407a9)" style="fill: none; stroke-dasharray: 1.85,0.8; stroke-dashoffset: 0; stroke: #b2b2b2; stroke-width: 0.5"/>
     </g>
     <g id="line2d_65">
      <g>
       <use xlink:href="#m491ec27bdc" x="100.8" y="434.921488" style="stroke: #000000; stroke-width: 0.8"/>
      </g>
     </g>
     <g id="text_10">
      <!-- 0 V -->
      <g transform="translate(74.36625 440.240394) scale(0.14 -0.14)">
       <use xlink:href="#DejaVuSans-30"/>
       <use xlink:href="#DejaVuSans-20" x="63.623047"/>
       <use xlink:href="#DejaVuSans-56" x="95.410156"/>
      </g>
     </g>
    </g>
    <g id="ytick_8">
     <g id="line2d_66">
      <path d="M 100.8 388.97416 
L 987.84 388.97416 
" clip-path="url(#pba380407a9)" style="fill: none; stroke-dasharray: 1.85,0.8; stroke-dashoffset: 0; stroke: #b2b2b2; stroke-width: 0.5"/>
     </g>
     <g id="line2d_67">
      <g>
       <use xlink:href="#m491ec27bdc" x="100.8" y="388.97416" style="stroke: #000000; stroke-width: 0.8"/>
      </g>
     </g>
     <g id="text_11">
      <!-- 1 V -->
      <g transform="translate(74.36625 394.293067) scale(0.14 -0.14)">
       <use xlink:href="#DejaVuSans-31"/>
       <use xlink:href="#DejaVuSans-20" x="63.623047"/>
       <use xlink:href="#DejaVuSans-56" x="95.410156"/>
      </g>
     </g>
    </g>
    <g id="text_12">
     <g id="patch_21">
      <path d="M 34.8768 454.693023 
L 34.8768 383.46146 
L 11.247425 383.46146 
L 11.247425 454.693023 
z
" style="fill: #ffff00; opacity: 0.2; stroke: #eeeeee; stroke-width: 0.5; stroke-linejoin: miter"/>
     </g>
     <!-- DFF OUT -->
     <g transform="translate(26.925238 449.653023) rotate(-90) scale(0.14 -0.14)">
      <defs>
       <path id="DejaVuSans-4f" d="M 2522 4238 
Q 1834 4238 1429 3725 
Q 1025 3213 1025 2328 
Q 1025 1447 1429 934 
Q 1834 422 2522 422 
Q 3209 422 3611 934 
Q 4013 1447 4013 2328 
Q 4013 3213 3611 3725 
Q 3209 4238 2522 4238 
z
M 2522 4750 
Q 3503 4750 4090 4092 
Q 4678 3434 4678 2328 
Q 4678 1225 4090 567 
Q 3503 -91 2522 -91 
Q 1538 -91 948 565 
Q 359 1222 359 2328 
Q 359 3434 948 4092 
Q 1538 4750 2522 4750 
z
" transform="scale(0.015625)"/>
       <path id="DejaVuSans-54" d="M -19 4666 
L 3928 4666 
L 3928 4134 
L 2272 4134 
L 2272 0 
L 1638 0 
L 1638 4134 
L -19 4134 
L -19 4666 
z
" transform="scale(0.015625)"/>
      </defs>
      <use xlink:href="#DejaVuSans-44"/>
      <use xlink:href="#DejaVuSans-46" x="77.001953"/>
      <use xlink:href="#DejaVuSans-46" x="134.521484"/>
      <use xlink:href="#DejaVuSans-20" x="192.041016"/>
      <use xlink:href="#DejaVuSans-4f" x="223.828125"/>
      <use xlink:href="#DejaVuSans-55" x="302.539062"/>
      <use xlink:href="#DejaVuSans-54" x="375.732422"/>
     </g>
    </g>
   </g>
   <g id="line2d_68">
    <path d="M 141.12 400.252851 
L 173.408256 400.308907 
L 173.440512 402.211126 
L 173.601792 434.924292 
L 174.053376 434.918141 
L 182.988288 434.920253 
L 234.726912 435.005498 
L 235.404288 435.699836 
L 236.178432 436.133487 
L 237.178368 436.402692 
L 238.629888 436.529369 
L 241.468416 436.500606 
L 244.629504 436.300643 
L 245.500416 436.066771 
L 245.984256 435.727266 
L 246.27456 435.294314 
L 246.564864 434.274917 
L 246.7584 432.784018 
L 246.984192 428.460375 
L 247.40352 419.551648 
L 247.597056 419.605406 
L 247.661568 419.734518 
L 247.693824 419.599892 
L 247.72608 419.513971 
L 247.88736 420.466459 
L 248.145408 421.548059 
L 248.177664 420.887336 
L 248.274432 421.12856 
L 248.435712 422.923722 
L 248.596992 423.618905 
L 249.467904 427.954035 
L 249.50016 427.468832 
L 249.532416 427.482156 
L 249.693696 429.163828 
L 250.113024 431.232331 
L 250.14528 430.636394 
L 250.209792 430.842974 
L 250.274304 431.299552 
L 250.435584 432.73003 
L 250.758144 434.117594 
L 250.7904 433.722952 
L 250.822656 433.7944 
L 251.016192 435.358489 
L 251.467776 437.417071 
L 251.500032 436.979055 
L 251.564544 437.208333 
L 251.629056 437.502763 
L 251.822592 438.905903 
L 252.209664 440.295028 
L 252.24192 440.010155 
L 252.306432 440.143402 
L 252.499968 440.675931 
L 252.661248 441.658745 
L 253.338624 443.495259 
L 253.596672 443.96622 
L 253.628928 443.831594 
L 253.69344 443.977706 
L 253.757952 444.11417 
L 253.886976 444.818542 
L 253.919232 444.371016 
L 253.951488 444.532291 
L 254.112768 445.420912 
L 256.822272 452.686103 
L 256.854528 452.561127 
L 256.886784 452.668643 
L 257.209344 453.653754 
L 257.789952 455.06204 
L 257.822208 454.877791 
L 257.88672 455.057445 
L 258.080256 455.761818 
L 260.499456 461.227712 
L 260.596224 461.180386 
L 260.918784 460.544475 
L 261.499392 459.268058 
L 261.531648 459.339276 
L 261.692928 458.787909 
L 261.725184 458.899101 
L 261.75744 458.636742 
L 262.144512 457.816123 
L 262.176768 457.96637 
L 262.209024 457.813366 
L 262.40256 457.369514 
L 262.628352 457.031802 
L 262.72512 456.668818 
L 262.757376 456.757956 
L 262.854144 456.615059 
L 264.01536 454.690326 
L 264.047616 454.889278 
L 264.079872 454.591999 
L 264.628224 454.034657 
L 264.886272 453.74473 
L 265.015296 453.451586 
L 265.241088 453.033465 
L 265.273344 453.217714 
L 265.3056 452.930543 
L 265.499136 452.71551 
L 265.531392 452.554694 
L 265.62816 452.592371 
L 265.660416 452.636021 
L 265.821696 452.225711 
L 266.305536 451.61599 
L 266.43456 451.457931 
L 266.466816 451.692263 
L 266.499072 451.352712 
L 266.531328 451.553042 
L 266.563584 451.538799 
L 266.692608 451.182247 
L 267.369984 450.63869 
L 267.660288 450.076295 
L 267.7248 450.126837 
L 267.88608 449.66185 
L 268.144128 449.303002 
L 268.176384 449.605795 
L 268.20864 449.490007 
L 268.305408 449.058562 
L 268.337664 449.100833 
L 268.563456 448.787013 
L 268.627968 448.701092 
L 268.660224 449.024561 
L 268.756992 448.912909 
L 268.950528 448.58025 
L 269.144064 448.146048 
L 269.17632 448.279755 
L 269.208576 448.058289 
L 269.240832 448.055072 
L 269.273088 448.310999 
L 269.369856 448.195212 
L 269.466624 447.829471 
L 269.49888 447.890121 
L 269.531136 447.985232 
L 269.563392 447.817065 
L 269.885952 447.636952 
L 270.660096 446.671139 
L 270.78912 446.117014 
L 270.821376 446.422104 
L 270.885888 445.999848 
L 271.047168 445.80641 
L 271.079424 446.042579 
L 271.11168 445.662595 
L 271.143936 445.77149 
L 271.176192 445.64054 
L 271.208448 446.031092 
L 271.27296 445.540834 
L 271.305216 445.525212 
L 271.337472 445.384154 
L 271.369728 445.458589 
L 271.401984 445.622161 
L 271.43424 445.342342 
L 271.466496 445.324882 
L 271.498752 445.709002 
L 271.531008 445.210933 
L 271.563264 445.251826 
L 271.59552 445.521077 
L 271.627776 445.102956 
L 271.660032 445.104335 
L 271.692288 445.469616 
L 271.7568 445.020251 
L 271.789056 445.267448 
L 271.821312 444.926059 
L 271.853568 445.151661 
L 271.885824 445.128227 
L 272.014848 444.771676 
L 272.047104 444.77719 
L 272.07936 444.918248 
L 272.143872 444.717458 
L 273.014784 444.032843 
L 273.53088 443.40796 
L 273.69216 442.768832 
L 273.982464 442.42147 
L 274.01472 442.868997 
L 274.079232 442.303845 
L 274.111488 442.7624 
L 274.240512 442.187598 
L 274.305024 442.074109 
L 274.33728 442.24733 
L 274.369536 442.02081 
L 274.595328 441.814047 
L 274.9824 441.535606 
L 275.7888 441.075214 
L 275.95008 440.875343 
L 276.014592 440.861099 
L 276.046848 440.817909 
L 276.788736 439.690821 
L 276.950016 439.238653 
L 277.046784 439.138993 
L 277.07904 439.212279 
L 277.111296 439.322966 
L 277.143552 438.938893 
L 277.175808 438.965221 
L 277.208064 439.531383 
L 277.272576 438.865974 
L 277.304832 439.267094 
L 277.369344 438.756987 
L 277.4016 438.732727 
L 277.466112 439.046685 
L 277.498368 438.857336 
L 277.756416 438.418401 
L 277.788672 438.89584 
L 277.853184 438.64313 
L 278.014464 438.212879 
L 277.917696 438.658338 
L 278.04672 438.232407 
L 278.111232 438.16638 
L 278.143488 438.396622 
L 278.208 438.144004 
L 278.272512 438.171251 
L 278.498304 438.148828 
L 278.885376 437.716234 
L 279.691776 436.793152 
L 280.111104 436.179664 
L 281.27232 433.93918 
L 281.852928 432.553317 
L 281.981952 431.871688 
L 282.014208 432.237245 
L 282.07872 431.937301 
L 282.143232 431.86861 
L 282.175488 431.914419 
L 282.24 431.911892 
L 283.110912 430.00834 
L 283.143168 429.143152 
L 283.239936 429.208397 
L 283.272192 429.001175 
L 283.304448 429.604923 
L 283.401216 429.408728 
L 283.433472 428.754438 
L 283.53024 428.843116 
L 283.594752 428.840819 
L 283.627008 428.907442 
L 283.659264 428.775114 
L 284.626944 426.649131 
L 284.6592 426.689565 
L 284.691456 426.586643 
L 284.755968 426.49337 
L 284.82048 425.718698 
L 284.884992 425.805538 
L 284.949504 425.923163 
L 285.014016 425.818404 
L 285.981696 423.772369 
L 286.013952 423.901481 
L 286.046208 423.730098 
L 286.239744 423.36114 
L 286.336512 423.283949 
L 287.336448 420.992096 
L 287.368704 421.273753 
L 287.465472 421.163939 
L 288.465408 419.129851 
L 288.594432 418.216418 
L 288.658944 418.0579 
L 288.6912 418.345071 
L 288.755712 418.29361 
L 288.884736 417.620941 
L 289.271808 416.717157 
L 290.304 413.762284 
L 290.336256 413.827529 
L 290.497536 412.698604 
L 290.529792 413.045506 
L 290.62656 412.997721 
L 290.691072 413.042749 
L 290.723328 412.995423 
L 292.045824 410.245476 
L 292.07808 409.486426 
L 292.174848 409.552131 
L 292.336128 409.628863 
L 292.465152 409.457479 
L 293.5296 407.458311 
L 293.594112 407.556638 
L 293.85216 408.145683 
L 293.916672 408.87257 
L 294.01344 413.393327 
L 294.336 434.188444 
L 294.561792 434.17512 
L 294.755328 433.933712 
L 295.271424 433.755345 
L 296.43264 433.698324 
L 297.755136 433.987655 
L 299.142144 434.398975 
L 299.367936 434.171168 
L 299.9808 433.628944 
L 300.754944 433.238346 
L 301.75488 432.997398 
L 303.2064 432.898198 
L 306.173952 432.969508 
L 317.173248 433.437987 
L 319.205376 433.416759 
L 321.26976 433.395715 
L 325.011456 433.584743 
L 325.721088 434.338968 
L 326.495232 434.797587 
L 327.462912 435.095155 
L 328.882176 435.275388 
L 331.59168 435.349726 
L 334.688256 435.342995 
L 334.720512 435.474234 
L 334.785024 435.282666 
L 334.946304 435.345384 
L 345.9456 435.428747 
L 349.719552 435.442439 
L 375.008256 435.215 
L 375.040512 435.081509 
L 375.105024 435.197383 
L 375.492096 435.214361 
L 388.20096 435.114986 
L 415.392768 435.063603 
L 415.586304 429.743684 
L 416.005632 427.659972 
L 416.166912 425.329524 
L 416.328192 419.178555 
L 416.521728 402.477161 
L 416.812032 376.981908 
L 416.844288 377.018666 
L 416.9088 376.926771 
L 417.521664 376.986503 
L 419.00544 377.087587 
L 419.360256 377.124345 
L 420.650496 377.225429 
L 421.005312 377.262187 
L 422.39232 377.363271 
L 422.747136 377.400029 
L 424.230912 377.501113 
L 424.585728 377.537871 
L 426.166272 377.638955 
L 426.521088 377.675713 
L 427.004928 377.717065 
L 428.101632 377.763013 
L 429.746688 377.868691 
L 430.101504 377.905449 
L 430.585344 377.946802 
L 432.940032 378.052481 
L 433.294848 378.084644 
L 434.423808 378.135186 
L 436.520448 378.23627 
L 436.875264 378.273028 
L 437.423616 378.296002 
L 437.649408 378.318975 
L 438.423552 378.31438 
L 438.810624 378.364923 
L 439.423488 378.374112 
L 439.778304 378.41087 
L 440.487936 378.420059 
L 440.842752 378.452222 
L 443.874816 378.557901 
L 444.229632 378.590064 
L 445.326336 378.636012 
L 449.00352 378.741691 
L 449.358336 378.778448 
L 450.13248 378.773854 
L 451.229184 378.819801 
L 455.099904 378.92548 
L 455.45472 378.957643 
L 460.61568 379.063322 
L 460.970496 379.095485 
L 467.38944 379.201164 
L 467.744256 379.233327 
L 495.968256 379.343601 
L 496.000512 379.499822 
L 496.065024 379.288464 
L 496.323072 379.316032 
L 576.608256 379.320627 
L 576.640512 379.550364 
L 576.705024 379.302248 
L 576.995328 379.320627 
L 577.737216 379.320627 
L 578.575872 379.329816 
L 657.248256 379.343601 
L 657.280512 379.499822 
L 657.345024 379.288464 
L 657.603072 379.316032 
L 737.888256 379.343601 
L 737.920512 379.499822 
L 737.985024 379.288464 
L 738.243072 379.316032 
L 818.528256 379.343601 
L 818.560512 379.499822 
L 818.625024 379.288464 
L 818.883072 379.316032 
L 899.168256 379.343601 
L 899.200512 379.499822 
L 899.265024 379.288464 
L 899.523072 379.316032 
L 947.52 379.325222 
L 947.52 379.325222 
" clip-path="url(#pba380407a9)" style="fill: none; stroke: #ff00ff; stroke-width: 2; stroke-linecap: square"/>
   </g>
   <g id="patch_22">
    <path d="M 100.8 465.442759 
L 100.8 372.711724 
" style="fill: none; stroke: #bcbcbc; stroke-width: 0.8; stroke-linejoin: miter; stroke-linecap: square"/>
   </g>
   <g id="patch_23">
    <path d="M 987.84 465.442759 
L 987.84 372.711724 
" style="fill: none; stroke: #bcbcbc; stroke-width: 0.8; stroke-linejoin: miter; stroke-linecap: square"/>
   </g>
   <g id="patch_24">
    <path d="M 100.8 465.442759 
L 987.84 465.442759 
" style="fill: none; stroke: #bcbcbc; stroke-width: 0.8; stroke-linejoin: miter; stroke-linecap: square"/>
   </g>
   <g id="patch_25">
    <path d="M 100.8 372.711724 
L 987.84 372.711724 
" style="fill: none; stroke: #bcbcbc; stroke-width: 0.8; stroke-linejoin: miter; stroke-linecap: square"/>
   </g>
  </g>
  <g id="axes_5">
   <g id="patch_26">
    <path d="M 100.8 576.72 
L 987.84 576.72 
L 987.84 483.988966 
L 100.8 483.988966 
z
" style="fill: #eeeeee"/>
   </g>
   <g id="matplotlib.axis_9">
    <g id="xtick_25">
     <g id="line2d_69">
      <path d="M 141.12 576.72 
L 141.12 483.988966 
" clip-path="url(#p2b1ebdc2b0)" style="fill: none; stroke-dasharray: 1.85,0.8; stroke-dashoffset: 0; stroke: #b2b2b2; stroke-width: 0.5"/>
     </g>
     <g id="line2d_70">
      <g>
       <use xlink:href="#m5163a214d8" x="141.12" y="576.72" style="stroke: #000000; stroke-width: 0.8"/>
      </g>
     </g>
     <g id="text_13">
      <!-- 0 s -->
      <g transform="translate(130.795 590.857813) scale(0.14 -0.14)">
       <defs>
        <path id="DejaVuSans-73" d="M 2834 3397 
L 2834 2853 
Q 2591 2978 2328 3040 
Q 2066 3103 1784 3103 
Q 1356 3103 1142 2972 
Q 928 2841 928 2578 
Q 928 2378 1081 2264 
Q 1234 2150 1697 2047 
L 1894 2003 
Q 2506 1872 2764 1633 
Q 3022 1394 3022 966 
Q 3022 478 2636 193 
Q 2250 -91 1575 -91 
Q 1294 -91 989 -36 
Q 684 19 347 128 
L 347 722 
Q 666 556 975 473 
Q 1284 391 1588 391 
Q 1994 391 2212 530 
Q 2431 669 2431 922 
Q 2431 1156 2273 1281 
Q 2116 1406 1581 1522 
L 1381 1569 
Q 847 1681 609 1914 
Q 372 2147 372 2553 
Q 372 3047 722 3315 
Q 1072 3584 1716 3584 
Q 2034 3584 2315 3537 
Q 2597 3491 2834 3397 
z
" transform="scale(0.015625)"/>
       </defs>
       <use xlink:href="#DejaVuSans-30"/>
       <use xlink:href="#DejaVuSans-20" x="63.623047"/>
       <use xlink:href="#DejaVuSans-73" x="95.410156"/>
      </g>
     </g>
    </g>
    <g id="xtick_26">
     <g id="line2d_71">
      <path d="M 302.4 576.72 
L 302.4 483.988966 
" clip-path="url(#p2b1ebdc2b0)" style="fill: none; stroke-dasharray: 1.85,0.8; stroke-dashoffset: 0; stroke: #b2b2b2; stroke-width: 0.5"/>
     </g>
     <g id="line2d_72">
      <g>
       <use xlink:href="#m5163a214d8" x="302.4" y="576.72" style="stroke: #000000; stroke-width: 0.8"/>
      </g>
     </g>
     <g id="text_14">
      <!-- 50 ns -->
      <g transform="translate(283.185 590.857813) scale(0.14 -0.14)">
       <defs>
        <path id="DejaVuSans-35" d="M 691 4666 
L 3169 4666 
L 3169 4134 
L 1269 4134 
L 1269 2991 
Q 1406 3038 1543 3061 
Q 1681 3084 1819 3084 
Q 2600 3084 3056 2656 
Q 3513 2228 3513 1497 
Q 3513 744 3044 326 
Q 2575 -91 1722 -91 
Q 1428 -91 1123 -41 
Q 819 9 494 109 
L 494 744 
Q 775 591 1075 516 
Q 1375 441 1709 441 
Q 2250 441 2565 725 
Q 2881 1009 2881 1497 
Q 2881 1984 2565 2268 
Q 2250 2553 1709 2553 
Q 1456 2553 1204 2497 
Q 953 2441 691 2322 
L 691 4666 
z
" transform="scale(0.015625)"/>
        <path id="DejaVuSans-6e" d="M 3513 2113 
L 3513 0 
L 2938 0 
L 2938 2094 
Q 2938 2591 2744 2837 
Q 2550 3084 2163 3084 
Q 1697 3084 1428 2787 
Q 1159 2491 1159 1978 
L 1159 0 
L 581 0 
L 581 3500 
L 1159 3500 
L 1159 2956 
Q 1366 3272 1645 3428 
Q 1925 3584 2291 3584 
Q 2894 3584 3203 3211 
Q 3513 2838 3513 2113 
z
" transform="scale(0.015625)"/>
       </defs>
       <use xlink:href="#DejaVuSans-35"/>
       <use xlink:href="#DejaVuSans-30" x="63.623047"/>
       <use xlink:href="#DejaVuSans-20" x="127.246094"/>
       <use xlink:href="#DejaVuSans-6e" x="159.033203"/>
       <use xlink:href="#DejaVuSans-73" x="222.412109"/>
      </g>
     </g>
    </g>
    <g id="xtick_27">
     <g id="line2d_73">
      <path d="M 463.68 576.72 
L 463.68 483.988966 
" clip-path="url(#p2b1ebdc2b0)" style="fill: none; stroke-dasharray: 1.85,0.8; stroke-dashoffset: 0; stroke: #b2b2b2; stroke-width: 0.5"/>
     </g>
     <g id="line2d_74">
      <g>
       <use xlink:href="#m5163a214d8" x="463.68" y="576.72" style="stroke: #000000; stroke-width: 0.8"/>
      </g>
     </g>
     <g id="text_15">
      <!-- 100 ns -->
      <g transform="translate(440.01125 590.857813) scale(0.14 -0.14)">
       <use xlink:href="#DejaVuSans-31"/>
       <use xlink:href="#DejaVuSans-30" x="63.623047"/>
       <use xlink:href="#DejaVuSans-30" x="127.246094"/>
       <use xlink:href="#DejaVuSans-20" x="190.869141"/>
       <use xlink:href="#DejaVuSans-6e" x="222.65625"/>
       <use xlink:href="#DejaVuSans-73" x="286.035156"/>
      </g>
     </g>
    </g>
    <g id="xtick_28">
     <g id="line2d_75">
      <path d="M 624.96 576.72 
L 624.96 483.988966 
" clip-path="url(#p2b1ebdc2b0)" style="fill: none; stroke-dasharray: 1.85,0.8; stroke-dashoffset: 0; stroke: #b2b2b2; stroke-width: 0.5"/>
     </g>
     <g id="line2d_76">
      <g>
       <use xlink:href="#m5163a214d8" x="624.96" y="576.72" style="stroke: #000000; stroke-width: 0.8"/>
      </g>
     </g>
     <g id="text_16">
      <!-- 150 ns -->
      <g transform="translate(601.29125 590.857813) scale(0.14 -0.14)">
       <use xlink:href="#DejaVuSans-31"/>
       <use xlink:href="#DejaVuSans-35" x="63.623047"/>
       <use xlink:href="#DejaVuSans-30" x="127.246094"/>
       <use xlink:href="#DejaVuSans-20" x="190.869141"/>
       <use xlink:href="#DejaVuSans-6e" x="222.65625"/>
       <use xlink:href="#DejaVuSans-73" x="286.035156"/>
      </g>
     </g>
    </g>
    <g id="xtick_29">
     <g id="line2d_77">
      <path d="M 786.24 576.72 
L 786.24 483.988966 
" clip-path="url(#p2b1ebdc2b0)" style="fill: none; stroke-dasharray: 1.85,0.8; stroke-dashoffset: 0; stroke: #b2b2b2; stroke-width: 0.5"/>
     </g>
     <g id="line2d_78">
      <g>
       <use xlink:href="#m5163a214d8" x="786.24" y="576.72" style="stroke: #000000; stroke-width: 0.8"/>
      </g>
     </g>
     <g id="text_17">
      <!-- 200 ns -->
      <g transform="translate(762.57125 590.857813) scale(0.14 -0.14)">
       <use xlink:href="#DejaVuSans-32"/>
       <use xlink:href="#DejaVuSans-30" x="63.623047"/>
       <use xlink:href="#DejaVuSans-30" x="127.246094"/>
       <use xlink:href="#DejaVuSans-20" x="190.869141"/>
       <use xlink:href="#DejaVuSans-6e" x="222.65625"/>
       <use xlink:href="#DejaVuSans-73" x="286.035156"/>
      </g>
     </g>
    </g>
    <g id="xtick_30">
     <g id="line2d_79">
      <path d="M 947.52 576.72 
L 947.52 483.988966 
" clip-path="url(#p2b1ebdc2b0)" style="fill: none; stroke-dasharray: 1.85,0.8; stroke-dashoffset: 0; stroke: #b2b2b2; stroke-width: 0.5"/>
     </g>
     <g id="line2d_80">
      <g>
       <use xlink:href="#m5163a214d8" x="947.52" y="576.72" style="stroke: #000000; stroke-width: 0.8"/>
      </g>
     </g>
     <g id="text_18">
      <!-- 250 ns -->
      <g transform="translate(923.85125 590.857813) scale(0.14 -0.14)">
       <use xlink:href="#DejaVuSans-32"/>
       <use xlink:href="#DejaVuSans-35" x="63.623047"/>
       <use xlink:href="#DejaVuSans-30" x="127.246094"/>
       <use xlink:href="#DejaVuSans-20" x="190.869141"/>
       <use xlink:href="#DejaVuSans-6e" x="222.65625"/>
       <use xlink:href="#DejaVuSans-73" x="286.035156"/>
      </g>
     </g>
    </g>
    <g id="text_19">
     <!-- Time -->
     <g transform="translate(527.192969 608.407187) scale(0.14 -0.14)">
      <defs>
       <path id="DejaVuSans-69" d="M 603 3500 
L 1178 3500 
L 1178 0 
L 603 0 
L 603 3500 
z
M 603 4863 
L 1178 4863 
L 1178 4134 
L 603 4134 
L 603 4863 
z
" transform="scale(0.015625)"/>
       <path id="DejaVuSans-6d" d="M 3328 2828 
Q 3544 3216 3844 3400 
Q 4144 3584 4550 3584 
Q 5097 3584 5394 3201 
Q 5691 2819 5691 2113 
L 5691 0 
L 5113 0 
L 5113 2094 
Q 5113 2597 4934 2840 
Q 4756 3084 4391 3084 
Q 3944 3084 3684 2787 
Q 3425 2491 3425 1978 
L 3425 0 
L 2847 0 
L 2847 2094 
Q 2847 2600 2669 2842 
Q 2491 3084 2119 3084 
Q 1678 3084 1418 2786 
Q 1159 2488 1159 1978 
L 1159 0 
L 581 0 
L 581 3500 
L 1159 3500 
L 1159 2956 
Q 1356 3278 1631 3431 
Q 1906 3584 2284 3584 
Q 2666 3584 2933 3390 
Q 3200 3197 3328 2828 
z
" transform="scale(0.015625)"/>
       <path id="DejaVuSans-65" d="M 3597 1894 
L 3597 1613 
L 953 1613 
Q 991 1019 1311 708 
Q 1631 397 2203 397 
Q 2534 397 2845 478 
Q 3156 559 3463 722 
L 3463 178 
Q 3153 47 2828 -22 
Q 2503 -91 2169 -91 
Q 1331 -91 842 396 
Q 353 884 353 1716 
Q 353 2575 817 3079 
Q 1281 3584 2069 3584 
Q 2775 3584 3186 3129 
Q 3597 2675 3597 1894 
z
M 3022 2063 
Q 3016 2534 2758 2815 
Q 2500 3097 2075 3097 
Q 1594 3097 1305 2825 
Q 1016 2553 972 2059 
L 3022 2063 
z
" transform="scale(0.015625)"/>
      </defs>
      <use xlink:href="#DejaVuSans-54"/>
      <use xlink:href="#DejaVuSans-69" x="57.958984"/>
      <use xlink:href="#DejaVuSans-6d" x="85.742188"/>
      <use xlink:href="#DejaVuSans-65" x="183.154297"/>
     </g>
    </g>
   </g>
   <g id="matplotlib.axis_10">
    <g id="ytick_9">
     <g id="line2d_81">
      <path d="M 100.8 569.741454 
L 987.84 569.741454 
" clip-path="url(#p2b1ebdc2b0)" style="fill: none; stroke-dasharray: 1.85,0.8; stroke-dashoffset: 0; stroke: #b2b2b2; stroke-width: 0.5"/>
     </g>
     <g id="line2d_82">
      <g>
       <use xlink:href="#m491ec27bdc" x="100.8" y="569.741454" style="stroke: #000000; stroke-width: 0.8"/>
      </g>
     </g>
     <g id="text_20">
      <!-- 0 V -->
      <g transform="translate(74.36625 575.06036) scale(0.14 -0.14)">
       <use xlink:href="#DejaVuSans-30"/>
       <use xlink:href="#DejaVuSans-20" x="63.623047"/>
       <use xlink:href="#DejaVuSans-56" x="95.410156"/>
      </g>
     </g>
    </g>
    <g id="ytick_10">
     <g id="line2d_83">
      <path d="M 100.8 535.891636 
L 987.84 535.891636 
" clip-path="url(#p2b1ebdc2b0)" style="fill: none; stroke-dasharray: 1.85,0.8; stroke-dashoffset: 0; stroke: #b2b2b2; stroke-width: 0.5"/>
     </g>
     <g id="line2d_84">
      <g>
       <use xlink:href="#m491ec27bdc" x="100.8" y="535.891636" style="stroke: #000000; stroke-width: 0.8"/>
      </g>
     </g>
     <g id="text_21">
      <!-- 500 mV -->
      <g transform="translate(42.914375 541.210542) scale(0.14 -0.14)">
       <use xlink:href="#DejaVuSans-35"/>
       <use xlink:href="#DejaVuSans-30" x="63.623047"/>
       <use xlink:href="#DejaVuSans-30" x="127.246094"/>
       <use xlink:href="#DejaVuSans-20" x="190.869141"/>
       <use xlink:href="#DejaVuSans-6d" x="222.65625"/>
       <use xlink:href="#DejaVuSans-56" x="320.068359"/>
      </g>
     </g>
    </g>
    <g id="ytick_11">
     <g id="line2d_85">
      <path d="M 100.8 502.041818 
L 987.84 502.041818 
" clip-path="url(#p2b1ebdc2b0)" style="fill: none; stroke-dasharray: 1.85,0.8; stroke-dashoffset: 0; stroke: #b2b2b2; stroke-width: 0.5"/>
     </g>
     <g id="line2d_86">
      <g>
       <use xlink:href="#m491ec27bdc" x="100.8" y="502.041818" style="stroke: #000000; stroke-width: 0.8"/>
      </g>
     </g>
     <g id="text_22">
      <!-- 1 V -->
      <g transform="translate(74.36625 507.360724) scale(0.14 -0.14)">
       <use xlink:href="#DejaVuSans-31"/>
       <use xlink:href="#DejaVuSans-20" x="63.623047"/>
       <use xlink:href="#DejaVuSans-56" x="95.410156"/>
      </g>
     </g>
    </g>
    <g id="text_23">
     <g id="patch_27">
      <path d="M 34.8768 554.329483 
L 34.8768 506.379483 
L 11.247425 506.379483 
L 11.247425 554.329483 
z
" style="fill: #ffff00; opacity: 0.2; stroke: #eeeeee; stroke-width: 0.5; stroke-linejoin: miter"/>
     </g>
     <!-- FOUT -->
     <g transform="translate(26.925238 549.289483) rotate(-90) scale(0.14 -0.14)">
      <use xlink:href="#DejaVuSans-46"/>
      <use xlink:href="#DejaVuSans-4f" x="57.519531"/>
      <use xlink:href="#DejaVuSans-55" x="136.230469"/>
      <use xlink:href="#DejaVuSans-54" x="209.423828"/>
     </g>
    </g>
   </g>
   <g id="line2d_87">
    <path d="M 141.12 488.501891 
L 173.472768 488.508661 
L 173.505024 488.312332 
L 173.569536 526.716304 
L 173.69856 572.504953 
L 173.730816 572.369283 
L 173.827584 567.834626 
L 173.892096 569.35585 
L 174.053376 570.060272 
L 174.117888 569.942556 
L 174.408192 569.487215 
L 174.440448 569.53675 
L 174.66624 569.725497 
L 176.182272 569.73571 
L 180.117504 569.757043 
L 193.503744 569.748135 
L 212.921856 569.739576 
L 292.626432 569.822389 
L 292.658688 568.735776 
L 292.755456 526.227513 
L 292.916736 488.71853 
L 293.078016 488.508661 
L 293.626368 488.501891 
L 293.981184 488.468041 
L 294.077952 518.35743 
L 294.17472 571.539962 
L 294.239232 569.75913 
L 294.400512 569.739768 
L 416.489472 569.721178 
L 416.553984 563.604143 
L 416.74752 489.436146 
L 416.812032 488.204013 
L 416.876544 488.481581 
L 417.199104 488.501891 
L 947.52 488.501891 
L 947.52 488.501891 
" clip-path="url(#p2b1ebdc2b0)" style="fill: none; stroke: #ff00ff; stroke-width: 2; stroke-linecap: square"/>
   </g>
   <g id="patch_28">
    <path d="M 100.8 576.72 
L 100.8 483.988966 
" style="fill: none; stroke: #bcbcbc; stroke-width: 0.8; stroke-linejoin: miter; stroke-linecap: square"/>
   </g>
   <g id="patch_29">
    <path d="M 987.84 576.72 
L 987.84 483.988966 
" style="fill: none; stroke: #bcbcbc; stroke-width: 0.8; stroke-linejoin: miter; stroke-linecap: square"/>
   </g>
   <g id="patch_30">
    <path d="M 100.8 576.72 
L 987.84 576.72 
" style="fill: none; stroke: #bcbcbc; stroke-width: 0.8; stroke-linejoin: miter; stroke-linecap: square"/>
   </g>
   <g id="patch_31">
    <path d="M 100.8 483.988966 
L 987.84 483.988966 
" style="fill: none; stroke: #bcbcbc; stroke-width: 0.8; stroke-linejoin: miter; stroke-linecap: square"/>
   </g>
  </g>
  <g id="axes_6">
   <g id="patch_32">
    <path d="M 201.6 628.56 
L 856.8 628.56 
L 856.8 615.6 
L 201.6 615.6 
z
" clip-path="url(#p47887c620b)" style="fill: #d3d3d3"/>
   </g>
   <g id="patch_33">
    <path d="M 201.6 628.56 
L 262.44 628.56 
L 262.44 615.6 
L 201.6 615.6 
z
" clip-path="url(#p47887c620b)" style="fill: #0000ff"/>
   </g>
   <g id="line2d_88">
    <path d="M 201.6 635.04 
L 201.6 609.12 
" clip-path="url(#pe893d48b2a)" style="fill: none; stroke: #ff0000; stroke-linecap: square"/>
   </g>
   <g id="line2d_89">
    <defs>
     <path id="m667f08b2f3" d="M 0 5 
C 1.326016 5 2.597899 4.473168 3.535534 3.535534 
C 4.473168 2.597899 5 1.326016 5 0 
C 5 -1.326016 4.473168 -2.597899 3.535534 -3.535534 
C 2.597899 -4.473168 1.326016 -5 0 -5 
C -1.326016 -5 -2.597899 -4.473168 -3.535534 -3.535534 
C -4.473168 -2.597899 -5 -1.326016 -5 0 
C -5 1.326016 -4.473168 2.597899 -3.535534 3.535534 
C -2.597899 4.473168 -1.326016 5 0 5 
z
" style="stroke: #bfbfbf"/>
    </defs>
    <g>
     <use xlink:href="#m667f08b2f3" x="262.44" y="622.08" style="fill: #ffffff; stroke: #bfbfbf"/>
    </g>
   </g>
   <g id="text_24">
    <!-- #Sweep -->
    <g transform="translate(138.622875 625.39125) scale(0.12 -0.12)">
     <defs>
      <path id="DejaVuSans-23" d="M 3272 2816 
L 2363 2816 
L 2100 1772 
L 3016 1772 
L 3272 2816 
z
M 2803 4594 
L 2478 3297 
L 3391 3297 
L 3719 4594 
L 4219 4594 
L 3897 3297 
L 4872 3297 
L 4872 2816 
L 3775 2816 
L 3519 1772 
L 4513 1772 
L 4513 1294 
L 3397 1294 
L 3072 0 
L 2572 0 
L 2894 1294 
L 1978 1294 
L 1656 0 
L 1153 0 
L 1478 1294 
L 494 1294 
L 494 1772 
L 1594 1772 
L 1856 2816 
L 850 2816 
L 850 3297 
L 1978 3297 
L 2297 4594 
L 2803 4594 
z
" transform="scale(0.015625)"/>
      <path id="DejaVuSans-77" d="M 269 3500 
L 844 3500 
L 1563 769 
L 2278 3500 
L 2956 3500 
L 3675 769 
L 4391 3500 
L 4966 3500 
L 4050 0 
L 3372 0 
L 2619 2869 
L 1863 0 
L 1184 0 
L 269 3500 
z
" transform="scale(0.015625)"/>
      <path id="DejaVuSans-70" d="M 1159 525 
L 1159 -1331 
L 581 -1331 
L 581 3500 
L 1159 3500 
L 1159 2969 
Q 1341 3281 1617 3432 
Q 1894 3584 2278 3584 
Q 2916 3584 3314 3078 
Q 3713 2572 3713 1747 
Q 3713 922 3314 415 
Q 2916 -91 2278 -91 
Q 1894 -91 1617 61 
Q 1341 213 1159 525 
z
M 3116 1747 
Q 3116 2381 2855 2742 
Q 2594 3103 2138 3103 
Q 1681 3103 1420 2742 
Q 1159 2381 1159 1747 
Q 1159 1113 1420 752 
Q 1681 391 2138 391 
Q 2594 391 2855 752 
Q 3116 1113 3116 1747 
z
" transform="scale(0.015625)"/>
     </defs>
     <use xlink:href="#DejaVuSans-23"/>
     <use xlink:href="#DejaVuSans-53" x="83.789062"/>
     <use xlink:href="#DejaVuSans-77" x="147.265625"/>
     <use xlink:href="#DejaVuSans-65" x="229.052734"/>
     <use xlink:href="#DejaVuSans-65" x="290.576172"/>
     <use xlink:href="#DejaVuSans-70" x="352.099609"/>
    </g>
   </g>
   <g id="text_25">
    <!-- $\mathdefault{13}$ -->
    <g transform="translate(869.904 625.39125) scale(0.12 -0.12)">
     <defs>
      <path id="DejaVuSans-33" d="M 2597 2516 
Q 3050 2419 3304 2112 
Q 3559 1806 3559 1356 
Q 3559 666 3084 287 
Q 2609 -91 1734 -91 
Q 1441 -91 1130 -33 
Q 819 25 488 141 
L 488 750 
Q 750 597 1062 519 
Q 1375 441 1716 441 
Q 2309 441 2620 675 
Q 2931 909 2931 1356 
Q 2931 1769 2642 2001 
Q 2353 2234 1838 2234 
L 1294 2234 
L 1294 2753 
L 1863 2753 
Q 2328 2753 2575 2939 
Q 2822 3125 2822 3475 
Q 2822 3834 2567 4026 
Q 2313 4219 1838 4219 
Q 1578 4219 1281 4162 
Q 984 4106 628 3988 
L 628 4550 
Q 988 4650 1302 4700 
Q 1616 4750 1894 4750 
Q 2613 4750 3031 4423 
Q 3450 4097 3450 3541 
Q 3450 3153 3228 2886 
Q 3006 2619 2597 2516 
z
" transform="scale(0.015625)"/>
     </defs>
     <use xlink:href="#DejaVuSans-31" transform="translate(0 0.78125)"/>
     <use xlink:href="#DejaVuSans-33" transform="translate(63.623047 0.78125)"/>
    </g>
   </g>
  </g>
  <g id="text_26">
   <!-- DFF under BBI sweep analysis (Sweep = 23E-9) -->
   <g transform="translate(313.34625 25.1175) scale(0.16 -0.16)">
    <defs>
     <path id="DejaVuSans-75" d="M 544 1381 
L 544 3500 
L 1119 3500 
L 1119 1403 
Q 1119 906 1312 657 
Q 1506 409 1894 409 
Q 2359 409 2629 706 
Q 2900 1003 2900 1516 
L 2900 3500 
L 3475 3500 
L 3475 0 
L 2900 0 
L 2900 538 
Q 2691 219 2414 64 
Q 2138 -91 1772 -91 
Q 1169 -91 856 284 
Q 544 659 544 1381 
z
M 1991 3584 
L 1991 3584 
z
" transform="scale(0.015625)"/>
     <path id="DejaVuSans-64" d="M 2906 2969 
L 2906 4863 
L 3481 4863 
L 3481 0 
L 2906 0 
L 2906 525 
Q 2725 213 2448 61 
Q 2172 -91 1784 -91 
Q 1150 -91 751 415 
Q 353 922 353 1747 
Q 353 2572 751 3078 
Q 1150 3584 1784 3584 
Q 2172 3584 2448 3432 
Q 2725 3281 2906 2969 
z
M 947 1747 
Q 947 1113 1208 752 
Q 1469 391 1925 391 
Q 2381 391 2643 752 
Q 2906 1113 2906 1747 
Q 2906 2381 2643 2742 
Q 2381 3103 1925 3103 
Q 1469 3103 1208 2742 
Q 947 2381 947 1747 
z
" transform="scale(0.015625)"/>
     <path id="DejaVuSans-72" d="M 2631 2963 
Q 2534 3019 2420 3045 
Q 2306 3072 2169 3072 
Q 1681 3072 1420 2755 
Q 1159 2438 1159 1844 
L 1159 0 
L 581 0 
L 581 3500 
L 1159 3500 
L 1159 2956 
Q 1341 3275 1631 3429 
Q 1922 3584 2338 3584 
Q 2397 3584 2469 3576 
Q 2541 3569 2628 3553 
L 2631 2963 
z
" transform="scale(0.015625)"/>
     <path id="DejaVuSans-61" d="M 2194 1759 
Q 1497 1759 1228 1600 
Q 959 1441 959 1056 
Q 959 750 1161 570 
Q 1363 391 1709 391 
Q 2188 391 2477 730 
Q 2766 1069 2766 1631 
L 2766 1759 
L 2194 1759 
z
M 3341 1997 
L 3341 0 
L 2766 0 
L 2766 531 
Q 2569 213 2275 61 
Q 1981 -91 1556 -91 
Q 1019 -91 701 211 
Q 384 513 384 1019 
Q 384 1609 779 1909 
Q 1175 2209 1959 2209 
L 2766 2209 
L 2766 2266 
Q 2766 2663 2505 2880 
Q 2244 3097 1772 3097 
Q 1472 3097 1187 3025 
Q 903 2953 641 2809 
L 641 3341 
Q 956 3463 1253 3523 
Q 1550 3584 1831 3584 
Q 2591 3584 2966 3190 
Q 3341 2797 3341 1997 
z
" transform="scale(0.015625)"/>
     <path id="DejaVuSans-6c" d="M 603 4863 
L 1178 4863 
L 1178 0 
L 603 0 
L 603 4863 
z
" transform="scale(0.015625)"/>
     <path id="DejaVuSans-79" d="M 2059 -325 
Q 1816 -950 1584 -1140 
Q 1353 -1331 966 -1331 
L 506 -1331 
L 506 -850 
L 844 -850 
Q 1081 -850 1212 -737 
Q 1344 -625 1503 -206 
L 1606 56 
L 191 3500 
L 800 3500 
L 1894 763 
L 2988 3500 
L 3597 3500 
L 2059 -325 
z
" transform="scale(0.015625)"/>
     <path id="DejaVuSans-28" d="M 1984 4856 
Q 1566 4138 1362 3434 
Q 1159 2731 1159 2009 
Q 1159 1288 1364 580 
Q 1569 -128 1984 -844 
L 1484 -844 
Q 1016 -109 783 600 
Q 550 1309 550 2009 
Q 550 2706 781 3412 
Q 1013 4119 1484 4856 
L 1984 4856 
z
" transform="scale(0.015625)"/>
     <path id="DejaVuSans-3d" d="M 678 2906 
L 4684 2906 
L 4684 2381 
L 678 2381 
L 678 2906 
z
M 678 1631 
L 4684 1631 
L 4684 1100 
L 678 1100 
L 678 1631 
z
" transform="scale(0.015625)"/>
     <path id="DejaVuSans-2d" d="M 313 2009 
L 1997 2009 
L 1997 1497 
L 313 1497 
L 313 2009 
z
" transform="scale(0.015625)"/>
     <path id="DejaVuSans-39" d="M 703 97 
L 703 672 
Q 941 559 1184 500 
Q 1428 441 1663 441 
Q 2288 441 2617 861 
Q 2947 1281 2994 2138 
Q 2813 1869 2534 1725 
Q 2256 1581 1919 1581 
Q 1219 1581 811 2004 
Q 403 2428 403 3163 
Q 403 3881 828 4315 
Q 1253 4750 1959 4750 
Q 2769 4750 3195 4129 
Q 3622 3509 3622 2328 
Q 3622 1225 3098 567 
Q 2575 -91 1691 -91 
Q 1453 -91 1209 -44 
Q 966 3 703 97 
z
M 1959 2075 
Q 2384 2075 2632 2365 
Q 2881 2656 2881 3163 
Q 2881 3666 2632 3958 
Q 2384 4250 1959 4250 
Q 1534 4250 1286 3958 
Q 1038 3666 1038 3163 
Q 1038 2656 1286 2365 
Q 1534 2075 1959 2075 
z
" transform="scale(0.015625)"/>
     <path id="DejaVuSans-29" d="M 513 4856 
L 1013 4856 
Q 1481 4119 1714 3412 
Q 1947 2706 1947 2009 
Q 1947 1309 1714 600 
Q 1481 -109 1013 -844 
L 513 -844 
Q 928 -128 1133 580 
Q 1338 1288 1338 2009 
Q 1338 2731 1133 3434 
Q 928 4138 513 4856 
z
" transform="scale(0.015625)"/>
    </defs>
    <use xlink:href="#DejaVuSans-44"/>
    <use xlink:href="#DejaVuSans-46" x="77.001953"/>
    <use xlink:href="#DejaVuSans-46" x="134.521484"/>
    <use xlink:href="#DejaVuSans-20" x="192.041016"/>
    <use xlink:href="#DejaVuSans-75" x="223.828125"/>
    <use xlink:href="#DejaVuSans-6e" x="287.207031"/>
    <use xlink:href="#DejaVuSans-64" x="350.585938"/>
    <use xlink:href="#DejaVuSans-65" x="414.0625"/>
    <use xlink:href="#DejaVuSans-72" x="475.585938"/>
    <use xlink:href="#DejaVuSans-20" x="516.699219"/>
    <use xlink:href="#DejaVuSans-42" x="548.486328"/>
    <use xlink:href="#DejaVuSans-42" x="617.089844"/>
    <use xlink:href="#DejaVuSans-49" x="685.693359"/>
    <use xlink:href="#DejaVuSans-20" x="715.185547"/>
    <use xlink:href="#DejaVuSans-73" x="746.972656"/>
    <use xlink:href="#DejaVuSans-77" x="799.072266"/>
    <use xlink:href="#DejaVuSans-65" x="880.859375"/>
    <use xlink:href="#DejaVuSans-65" x="942.382812"/>
    <use xlink:href="#DejaVuSans-70" x="1003.90625"/>
    <use xlink:href="#DejaVuSans-20" x="1067.382812"/>
    <use xlink:href="#DejaVuSans-61" x="1099.169922"/>
    <use xlink:href="#DejaVuSans-6e" x="1160.449219"/>
    <use xlink:href="#DejaVuSans-61" x="1223.828125"/>
    <use xlink:href="#DejaVuSans-6c" x="1285.107422"/>
    <use xlink:href="#DejaVuSans-79" x="1312.890625"/>
    <use xlink:href="#DejaVuSans-73" x="1372.070312"/>
    <use xlink:href="#DejaVuSans-69" x="1424.169922"/>
    <use xlink:href="#DejaVuSans-73" x="1451.953125"/>
    <use xlink:href="#DejaVuSans-20" x="1504.052734"/>
    <use xlink:href="#DejaVuSans-28" x="1535.839844"/>
    <use xlink:href="#DejaVuSans-53" x="1574.853516"/>
    <use xlink:href="#DejaVuSans-77" x="1638.330078"/>
    <use xlink:href="#DejaVuSans-65" x="1720.117188"/>
    <use xlink:href="#DejaVuSans-65" x="1781.640625"/>
    <use xlink:href="#DejaVuSans-70" x="1843.164062"/>
    <use xlink:href="#DejaVuSans-20" x="1906.640625"/>
    <use xlink:href="#DejaVuSans-3d" x="1938.427734"/>
    <use xlink:href="#DejaVuSans-20" x="2022.216797"/>
    <use xlink:href="#DejaVuSans-32" x="2054.003906"/>
    <use xlink:href="#DejaVuSans-33" x="2117.626953"/>
    <use xlink:href="#DejaVuSans-45" x="2181.25"/>
    <use xlink:href="#DejaVuSans-2d" x="2244.433594"/>
    <use xlink:href="#DejaVuSans-39" x="2280.517578"/>
    <use xlink:href="#DejaVuSans-29" x="2344.140625"/>
   </g>
  </g>
 </g>
 <defs>
  <clipPath id="pea3f4a708a">
   <rect x="100.8" y="38.88" width="887.04" height="92.731034"/>
  </clipPath>
  <clipPath id="pa915b55461">
   <rect x="100.8" y="150.157241" width="887.04" height="92.731034"/>
  </clipPath>
  <clipPath id="p084e64cb2f">
   <rect x="100.8" y="261.434483" width="887.04" height="92.731034"/>
  </clipPath>
  <clipPath id="pba380407a9">
   <rect x="100.8" y="372.711724" width="887.04" height="92.731034"/>
  </clipPath>
  <clipPath id="p2b1ebdc2b0">
   <rect x="100.8" y="483.988966" width="887.04" height="92.731034"/>
  </clipPath>
  <clipPath id="p47887c620b">
   <rect x="201.6" y="609.12" width="655.2" height="25.92"/>
  </clipPath>
  <clipPath id="pe893d48b2a">
   <path d="M 201.6 628.56 
L 856.8 628.56 
L 856.8 615.6 
L 201.6 615.6 
z
"/>
  </clipPath>
 </defs>
</svg>
