<?xml version="1.0" encoding="utf-8" standalone="no"?>
<!DOCTYPE svg PUBLIC "-//W3C//DTD SVG 1.1//EN"
  "http://www.w3.org/Graphics/SVG/1.1/DTD/svg11.dtd">
<svg xmlns:xlink="http://www.w3.org/1999/xlink" width="1008pt" height="648pt" viewBox="0 0 1008 648" xmlns="http://www.w3.org/2000/svg" version="1.1">
 <metadata>
  <rdf:RDF xmlns:dc="http://purl.org/dc/elements/1.1/" xmlns:cc="http://creativecommons.org/ns#" xmlns:rdf="http://www.w3.org/1999/02/22-rdf-syntax-ns#">
   <cc:Work>
    <dc:type rdf:resource="http://purl.org/dc/dcmitype/StillImage"/>
    <dc:date>2024-06-03T10:45:34.348144</dc:date>
    <dc:format>image/svg+xml</dc:format>
    <dc:creator>
     <cc:Agent>
      <dc:title>Matplotlib v3.9.0, https://matplotlib.org/</dc:title>
     </cc:Agent>
    </dc:creator>
   </cc:Work>
  </rdf:RDF>
 </metadata>
 <defs>
  <style type="text/css">*{stroke-linejoin: round; stroke-linecap: butt}</style>
 </defs>
 <g id="figure_1">
  <g id="patch_1">
   <path d="M 0 648 
L 1008 648 
L 1008 0 
L 0 0 
z
" style="fill: #ffffff"/>
  </g>
  <g id="axes_1">
   <g id="patch_2">
    <path d="M 100.8 131.611034 
L 987.84 131.611034 
L 987.84 38.88 
L 100.8 38.88 
z
" style="fill: #eeeeee"/>
   </g>
   <g id="matplotlib.axis_1">
    <g id="xtick_1">
     <g id="line2d_1">
      <path d="M 141.12 131.611034 
L 141.12 38.88 
" clip-path="url(#p4e46c98302)" style="fill: none; stroke-dasharray: 1.85,0.8; stroke-dashoffset: 0; stroke: #b2b2b2; stroke-width: 0.5"/>
     </g>
     <g id="line2d_2">
      <defs>
       <path id="mfb5a591423" d="M 0 0 
L 0 -3.5 
" style="stroke: #000000; stroke-width: 0.8"/>
      </defs>
      <g>
       <use xlink:href="#mfb5a591423" x="141.12" y="131.611034" style="stroke: #000000; stroke-width: 0.8"/>
      </g>
     </g>
    </g>
    <g id="xtick_2">
     <g id="line2d_3">
      <path d="M 302.4 131.611034 
L 302.4 38.88 
" clip-path="url(#p4e46c98302)" style="fill: none; stroke-dasharray: 1.85,0.8; stroke-dashoffset: 0; stroke: #b2b2b2; stroke-width: 0.5"/>
     </g>
     <g id="line2d_4">
      <g>
       <use xlink:href="#mfb5a591423" x="302.4" y="131.611034" style="stroke: #000000; stroke-width: 0.8"/>
      </g>
     </g>
    </g>
    <g id="xtick_3">
     <g id="line2d_5">
      <path d="M 463.68 131.611034 
L 463.68 38.88 
" clip-path="url(#p4e46c98302)" style="fill: none; stroke-dasharray: 1.85,0.8; stroke-dashoffset: 0; stroke: #b2b2b2; stroke-width: 0.5"/>
     </g>
     <g id="line2d_6">
      <g>
       <use xlink:href="#mfb5a591423" x="463.68" y="131.611034" style="stroke: #000000; stroke-width: 0.8"/>
      </g>
     </g>
    </g>
    <g id="xtick_4">
     <g id="line2d_7">
      <path d="M 624.96 131.611034 
L 624.96 38.88 
" clip-path="url(#p4e46c98302)" style="fill: none; stroke-dasharray: 1.85,0.8; stroke-dashoffset: 0; stroke: #b2b2b2; stroke-width: 0.5"/>
     </g>
     <g id="line2d_8">
      <g>
       <use xlink:href="#mfb5a591423" x="624.96" y="131.611034" style="stroke: #000000; stroke-width: 0.8"/>
      </g>
     </g>
    </g>
    <g id="xtick_5">
     <g id="line2d_9">
      <path d="M 786.24 131.611034 
L 786.24 38.88 
" clip-path="url(#p4e46c98302)" style="fill: none; stroke-dasharray: 1.85,0.8; stroke-dashoffset: 0; stroke: #b2b2b2; stroke-width: 0.5"/>
     </g>
     <g id="line2d_10">
      <g>
       <use xlink:href="#mfb5a591423" x="786.24" y="131.611034" style="stroke: #000000; stroke-width: 0.8"/>
      </g>
     </g>
    </g>
    <g id="xtick_6">
     <g id="line2d_11">
      <path d="M 947.52 131.611034 
L 947.52 38.88 
" clip-path="url(#p4e46c98302)" style="fill: none; stroke-dasharray: 1.85,0.8; stroke-dashoffset: 0; stroke: #b2b2b2; stroke-width: 0.5"/>
     </g>
     <g id="line2d_12">
      <g>
       <use xlink:href="#mfb5a591423" x="947.52" y="131.611034" style="stroke: #000000; stroke-width: 0.8"/>
      </g>
     </g>
    </g>
   </g>
   <g id="matplotlib.axis_2">
    <g id="ytick_1">
     <g id="line2d_13">
      <path d="M 100.8 98.340394 
L 987.84 98.340394 
" clip-path="url(#p4e46c98302)" style="fill: none; stroke-dasharray: 1.85,0.8; stroke-dashoffset: 0; stroke: #b2b2b2; stroke-width: 0.5"/>
     </g>
     <g id="line2d_14">
      <defs>
       <path id="m2fe69c0f7f" d="M 0 0 
L 3.5 0 
" style="stroke: #000000; stroke-width: 0.8"/>
      </defs>
      <g>
       <use xlink:href="#m2fe69c0f7f" x="100.8" y="98.340394" style="stroke: #000000; stroke-width: 0.8"/>
      </g>
     </g>
     <g id="text_1">
      <!-- −200 V -->
      <g transform="translate(44.819688 103.6593) scale(0.14 -0.14)">
       <defs>
        <path id="DejaVuSans-2212" d="M 678 2272 
L 4684 2272 
L 4684 1741 
L 678 1741 
L 678 2272 
z
" transform="scale(0.015625)"/>
        <path id="DejaVuSans-32" d="M 1228 531 
L 3431 531 
L 3431 0 
L 469 0 
L 469 531 
Q 828 903 1448 1529 
Q 2069 2156 2228 2338 
Q 2531 2678 2651 2914 
Q 2772 3150 2772 3378 
Q 2772 3750 2511 3984 
Q 2250 4219 1831 4219 
Q 1534 4219 1204 4116 
Q 875 4013 500 3803 
L 500 4441 
Q 881 4594 1212 4672 
Q 1544 4750 1819 4750 
Q 2544 4750 2975 4387 
Q 3406 4025 3406 3419 
Q 3406 3131 3298 2873 
Q 3191 2616 2906 2266 
Q 2828 2175 2409 1742 
Q 1991 1309 1228 531 
z
" transform="scale(0.015625)"/>
        <path id="DejaVuSans-30" d="M 2034 4250 
Q 1547 4250 1301 3770 
Q 1056 3291 1056 2328 
Q 1056 1369 1301 889 
Q 1547 409 2034 409 
Q 2525 409 2770 889 
Q 3016 1369 3016 2328 
Q 3016 3291 2770 3770 
Q 2525 4250 2034 4250 
z
M 2034 4750 
Q 2819 4750 3233 4129 
Q 3647 3509 3647 2328 
Q 3647 1150 3233 529 
Q 2819 -91 2034 -91 
Q 1250 -91 836 529 
Q 422 1150 422 2328 
Q 422 3509 836 4129 
Q 1250 4750 2034 4750 
z
" transform="scale(0.015625)"/>
        <path id="DejaVuSans-20" transform="scale(0.015625)"/>
        <path id="DejaVuSans-56" d="M 1831 0 
L 50 4666 
L 709 4666 
L 2188 738 
L 3669 4666 
L 4325 4666 
L 2547 0 
L 1831 0 
z
" transform="scale(0.015625)"/>
       </defs>
       <use xlink:href="#DejaVuSans-2212"/>
       <use xlink:href="#DejaVuSans-32" x="83.789062"/>
       <use xlink:href="#DejaVuSans-30" x="147.412109"/>
       <use xlink:href="#DejaVuSans-30" x="211.035156"/>
       <use xlink:href="#DejaVuSans-20" x="274.658203"/>
       <use xlink:href="#DejaVuSans-56" x="306.445312"/>
      </g>
     </g>
    </g>
    <g id="ytick_2">
     <g id="line2d_15">
      <path d="M 100.8 45.027377 
L 987.84 45.027377 
" clip-path="url(#p4e46c98302)" style="fill: none; stroke-dasharray: 1.85,0.8; stroke-dashoffset: 0; stroke: #b2b2b2; stroke-width: 0.5"/>
     </g>
     <g id="line2d_16">
      <g>
       <use xlink:href="#m2fe69c0f7f" x="100.8" y="45.027377" style="stroke: #000000; stroke-width: 0.8"/>
      </g>
     </g>
     <g id="text_2">
      <!-- 0 V -->
      <g transform="translate(74.36625 50.346284) scale(0.14 -0.14)">
       <use xlink:href="#DejaVuSans-30"/>
       <use xlink:href="#DejaVuSans-20" x="63.623047"/>
       <use xlink:href="#DejaVuSans-56" x="95.410156"/>
      </g>
     </g>
    </g>
    <g id="text_3">
     <g id="patch_3">
      <path d="M 34.8768 131.080205 
L 34.8768 39.41083 
L 11.247425 39.41083 
L 11.247425 131.080205 
z
" style="fill: #ffff00; opacity: 0.2; stroke: #eeeeee; stroke-width: 0.5; stroke-linejoin: miter"/>
     </g>
     <!-- VPULSE BBI -->
     <g transform="translate(26.925238 126.040205) rotate(-90) scale(0.14 -0.14)">
      <defs>
       <path id="DejaVuSans-50" d="M 1259 4147 
L 1259 2394 
L 2053 2394 
Q 2494 2394 2734 2622 
Q 2975 2850 2975 3272 
Q 2975 3691 2734 3919 
Q 2494 4147 2053 4147 
L 1259 4147 
z
M 628 4666 
L 2053 4666 
Q 2838 4666 3239 4311 
Q 3641 3956 3641 3272 
Q 3641 2581 3239 2228 
Q 2838 1875 2053 1875 
L 1259 1875 
L 1259 0 
L 628 0 
L 628 4666 
z
" transform="scale(0.015625)"/>
       <path id="DejaVuSans-55" d="M 556 4666 
L 1191 4666 
L 1191 1831 
Q 1191 1081 1462 751 
Q 1734 422 2344 422 
Q 2950 422 3222 751 
Q 3494 1081 3494 1831 
L 3494 4666 
L 4128 4666 
L 4128 1753 
Q 4128 841 3676 375 
Q 3225 -91 2344 -91 
Q 1459 -91 1007 375 
Q 556 841 556 1753 
L 556 4666 
z
" transform="scale(0.015625)"/>
       <path id="DejaVuSans-4c" d="M 628 4666 
L 1259 4666 
L 1259 531 
L 3531 531 
L 3531 0 
L 628 0 
L 628 4666 
z
" transform="scale(0.015625)"/>
       <path id="DejaVuSans-53" d="M 3425 4513 
L 3425 3897 
Q 3066 4069 2747 4153 
Q 2428 4238 2131 4238 
Q 1616 4238 1336 4038 
Q 1056 3838 1056 3469 
Q 1056 3159 1242 3001 
Q 1428 2844 1947 2747 
L 2328 2669 
Q 3034 2534 3370 2195 
Q 3706 1856 3706 1288 
Q 3706 609 3251 259 
Q 2797 -91 1919 -91 
Q 1588 -91 1214 -16 
Q 841 59 441 206 
L 441 856 
Q 825 641 1194 531 
Q 1563 422 1919 422 
Q 2459 422 2753 634 
Q 3047 847 3047 1241 
Q 3047 1584 2836 1778 
Q 2625 1972 2144 2069 
L 1759 2144 
Q 1053 2284 737 2584 
Q 422 2884 422 3419 
Q 422 4038 858 4394 
Q 1294 4750 2059 4750 
Q 2388 4750 2728 4690 
Q 3069 4631 3425 4513 
z
" transform="scale(0.015625)"/>
       <path id="DejaVuSans-45" d="M 628 4666 
L 3578 4666 
L 3578 4134 
L 1259 4134 
L 1259 2753 
L 3481 2753 
L 3481 2222 
L 1259 2222 
L 1259 531 
L 3634 531 
L 3634 0 
L 628 0 
L 628 4666 
z
" transform="scale(0.015625)"/>
       <path id="DejaVuSans-42" d="M 1259 2228 
L 1259 519 
L 2272 519 
Q 2781 519 3026 730 
Q 3272 941 3272 1375 
Q 3272 1813 3026 2020 
Q 2781 2228 2272 2228 
L 1259 2228 
z
M 1259 4147 
L 1259 2741 
L 2194 2741 
Q 2656 2741 2882 2914 
Q 3109 3088 3109 3444 
Q 3109 3797 2882 3972 
Q 2656 4147 2194 4147 
L 1259 4147 
z
M 628 4666 
L 2241 4666 
Q 2963 4666 3353 4366 
Q 3744 4066 3744 3513 
Q 3744 3084 3544 2831 
Q 3344 2578 2956 2516 
Q 3422 2416 3680 2098 
Q 3938 1781 3938 1306 
Q 3938 681 3513 340 
Q 3088 0 2303 0 
L 628 0 
L 628 4666 
z
" transform="scale(0.015625)"/>
       <path id="DejaVuSans-49" d="M 628 4666 
L 1259 4666 
L 1259 0 
L 628 0 
L 628 4666 
z
" transform="scale(0.015625)"/>
      </defs>
      <use xlink:href="#DejaVuSans-56"/>
      <use xlink:href="#DejaVuSans-50" x="68.408203"/>
      <use xlink:href="#DejaVuSans-55" x="128.710938"/>
      <use xlink:href="#DejaVuSans-4c" x="201.904297"/>
      <use xlink:href="#DejaVuSans-53" x="257.617188"/>
      <use xlink:href="#DejaVuSans-45" x="321.09375"/>
      <use xlink:href="#DejaVuSans-20" x="384.277344"/>
      <use xlink:href="#DejaVuSans-42" x="416.064453"/>
      <use xlink:href="#DejaVuSans-42" x="484.667969"/>
      <use xlink:href="#DejaVuSans-49" x="553.271484"/>
     </g>
    </g>
   </g>
   <g id="line2d_17">
    <path d="M 141.12 45.027377 
L 273.401856 45.136282 
L 273.885696 46.425538 
L 282.110976 69.006772 
L 289.529856 89.863624 
L 291.142656 94.440546 
L 292.948992 99.673219 
L 296.43264 110.807642 
L 298.013184 115.851054 
L 299.271168 119.566971 
L 300.496896 120.153414 
L 301.335552 120.545265 
L 302.367744 121.017085 
L 302.948352 121.272988 
L 303.819264 121.656841 
L 304.399872 121.912744 
L 305.238528 122.269941 
L 306.819072 122.936354 
L 307.464192 123.202919 
L 308.560896 123.629423 
L 309.302784 123.922644 
L 310.399488 124.349149 
L 311.302656 124.677024 
L 311.980032 124.943589 
L 312.786432 125.25547 
L 314.141184 125.804594 
L 316.786176 126.790885 
L 317.39904 127.022796 
L 319.3344 127.395987 
L 337.817088 127.289361 
L 338.04288 126.801547 
L 356.332032 75.087922 
L 360.073728 63.292417 
L 363.783168 51.617666 
L 368.395776 49.3412 
L 373.750272 46.984578 
L 382.459392 43.484472 
L 383.330304 43.268927 
L 397.619712 43.108189 
L 404.425728 43.184799 
L 419.779584 43.746186 
L 447.552 44.46146 
L 473.19552 44.774399 
L 508.806144 44.945888 
L 556.835328 44.953885 
L 947.52 44.953885 
L 947.52 44.953885 
" clip-path="url(#p4e46c98302)" style="fill: none; stroke: #ff0000; stroke-width: 2; stroke-linecap: square"/>
   </g>
   <g id="patch_4">
    <path d="M 100.8 131.611034 
L 100.8 38.88 
" style="fill: none; stroke: #bcbcbc; stroke-width: 0.8; stroke-linejoin: miter; stroke-linecap: square"/>
   </g>
   <g id="patch_5">
    <path d="M 987.84 131.611034 
L 987.84 38.88 
" style="fill: none; stroke: #bcbcbc; stroke-width: 0.8; stroke-linejoin: miter; stroke-linecap: square"/>
   </g>
   <g id="patch_6">
    <path d="M 100.8 131.611034 
L 987.84 131.611034 
" style="fill: none; stroke: #bcbcbc; stroke-width: 0.8; stroke-linejoin: miter; stroke-linecap: square"/>
   </g>
   <g id="patch_7">
    <path d="M 100.8 38.88 
L 987.84 38.88 
" style="fill: none; stroke: #bcbcbc; stroke-width: 0.8; stroke-linejoin: miter; stroke-linecap: square"/>
   </g>
  </g>
  <g id="axes_2">
   <g id="patch_8">
    <path d="M 100.8 242.888276 
L 987.84 242.888276 
L 987.84 150.157241 
L 100.8 150.157241 
z
" style="fill: #eeeeee"/>
   </g>
   <g id="matplotlib.axis_3">
    <g id="xtick_7">
     <g id="line2d_18">
      <path d="M 141.12 242.888276 
L 141.12 150.157241 
" clip-path="url(#p5129b92f78)" style="fill: none; stroke-dasharray: 1.85,0.8; stroke-dashoffset: 0; stroke: #b2b2b2; stroke-width: 0.5"/>
     </g>
     <g id="line2d_19">
      <g>
       <use xlink:href="#mfb5a591423" x="141.12" y="242.888276" style="stroke: #000000; stroke-width: 0.8"/>
      </g>
     </g>
    </g>
    <g id="xtick_8">
     <g id="line2d_20">
      <path d="M 302.4 242.888276 
L 302.4 150.157241 
" clip-path="url(#p5129b92f78)" style="fill: none; stroke-dasharray: 1.85,0.8; stroke-dashoffset: 0; stroke: #b2b2b2; stroke-width: 0.5"/>
     </g>
     <g id="line2d_21">
      <g>
       <use xlink:href="#mfb5a591423" x="302.4" y="242.888276" style="stroke: #000000; stroke-width: 0.8"/>
      </g>
     </g>
    </g>
    <g id="xtick_9">
     <g id="line2d_22">
      <path d="M 463.68 242.888276 
L 463.68 150.157241 
" clip-path="url(#p5129b92f78)" style="fill: none; stroke-dasharray: 1.85,0.8; stroke-dashoffset: 0; stroke: #b2b2b2; stroke-width: 0.5"/>
     </g>
     <g id="line2d_23">
      <g>
       <use xlink:href="#mfb5a591423" x="463.68" y="242.888276" style="stroke: #000000; stroke-width: 0.8"/>
      </g>
     </g>
    </g>
    <g id="xtick_10">
     <g id="line2d_24">
      <path d="M 624.96 242.888276 
L 624.96 150.157241 
" clip-path="url(#p5129b92f78)" style="fill: none; stroke-dasharray: 1.85,0.8; stroke-dashoffset: 0; stroke: #b2b2b2; stroke-width: 0.5"/>
     </g>
     <g id="line2d_25">
      <g>
       <use xlink:href="#mfb5a591423" x="624.96" y="242.888276" style="stroke: #000000; stroke-width: 0.8"/>
      </g>
     </g>
    </g>
    <g id="xtick_11">
     <g id="line2d_26">
      <path d="M 786.24 242.888276 
L 786.24 150.157241 
" clip-path="url(#p5129b92f78)" style="fill: none; stroke-dasharray: 1.85,0.8; stroke-dashoffset: 0; stroke: #b2b2b2; stroke-width: 0.5"/>
     </g>
     <g id="line2d_27">
      <g>
       <use xlink:href="#mfb5a591423" x="786.24" y="242.888276" style="stroke: #000000; stroke-width: 0.8"/>
      </g>
     </g>
    </g>
    <g id="xtick_12">
     <g id="line2d_28">
      <path d="M 947.52 242.888276 
L 947.52 150.157241 
" clip-path="url(#p5129b92f78)" style="fill: none; stroke-dasharray: 1.85,0.8; stroke-dashoffset: 0; stroke: #b2b2b2; stroke-width: 0.5"/>
     </g>
     <g id="line2d_29">
      <g>
       <use xlink:href="#mfb5a591423" x="947.52" y="242.888276" style="stroke: #000000; stroke-width: 0.8"/>
      </g>
     </g>
    </g>
   </g>
   <g id="matplotlib.axis_4">
    <g id="ytick_3">
     <g id="line2d_30">
      <path d="M 100.8 219.407083 
L 987.84 219.407083 
" clip-path="url(#p5129b92f78)" style="fill: none; stroke-dasharray: 1.85,0.8; stroke-dashoffset: 0; stroke: #b2b2b2; stroke-width: 0.5"/>
     </g>
     <g id="line2d_31">
      <g>
       <use xlink:href="#m2fe69c0f7f" x="100.8" y="219.407083" style="stroke: #000000; stroke-width: 0.8"/>
      </g>
     </g>
     <g id="text_4">
      <!-- 0 V -->
      <g transform="translate(74.36625 224.725989) scale(0.14 -0.14)">
       <use xlink:href="#DejaVuSans-30"/>
       <use xlink:href="#DejaVuSans-20" x="63.623047"/>
       <use xlink:href="#DejaVuSans-56" x="95.410156"/>
      </g>
     </g>
    </g>
    <g id="ytick_4">
     <g id="line2d_32">
      <path d="M 100.8 185.804316 
L 987.84 185.804316 
" clip-path="url(#p5129b92f78)" style="fill: none; stroke-dasharray: 1.85,0.8; stroke-dashoffset: 0; stroke: #b2b2b2; stroke-width: 0.5"/>
     </g>
     <g id="line2d_33">
      <g>
       <use xlink:href="#m2fe69c0f7f" x="100.8" y="185.804316" style="stroke: #000000; stroke-width: 0.8"/>
      </g>
     </g>
     <g id="text_5">
      <!-- 1 V -->
      <g transform="translate(74.36625 191.123222) scale(0.14 -0.14)">
       <defs>
        <path id="DejaVuSans-31" d="M 794 531 
L 1825 531 
L 1825 4091 
L 703 3866 
L 703 4441 
L 1819 4666 
L 2450 4666 
L 2450 531 
L 3481 531 
L 3481 0 
L 794 0 
L 794 531 
z
" transform="scale(0.015625)"/>
       </defs>
       <use xlink:href="#DejaVuSans-31"/>
       <use xlink:href="#DejaVuSans-20" x="63.623047"/>
       <use xlink:href="#DejaVuSans-56" x="95.410156"/>
      </g>
     </g>
    </g>
    <g id="ytick_5">
     <g id="line2d_34">
      <path d="M 100.8 152.20155 
L 987.84 152.20155 
" clip-path="url(#p5129b92f78)" style="fill: none; stroke-dasharray: 1.85,0.8; stroke-dashoffset: 0; stroke: #b2b2b2; stroke-width: 0.5"/>
     </g>
     <g id="line2d_35">
      <g>
       <use xlink:href="#m2fe69c0f7f" x="100.8" y="152.20155" style="stroke: #000000; stroke-width: 0.8"/>
      </g>
     </g>
     <g id="text_6">
      <!-- 2 V -->
      <g transform="translate(74.36625 157.520456) scale(0.14 -0.14)">
       <use xlink:href="#DejaVuSans-32"/>
       <use xlink:href="#DejaVuSans-20" x="63.623047"/>
       <use xlink:href="#DejaVuSans-56" x="95.410156"/>
      </g>
     </g>
    </g>
    <g id="text_7">
     <g id="patch_9">
      <path d="M 34.8768 224.531509 
L 34.8768 168.514009 
L 11.247425 168.514009 
L 11.247425 224.531509 
z
" style="fill: #ffff00; opacity: 0.2; stroke: #eeeeee; stroke-width: 0.5; stroke-linejoin: miter"/>
     </g>
     <!-- DFF IN -->
     <g transform="translate(26.925238 219.491509) rotate(-90) scale(0.14 -0.14)">
      <defs>
       <path id="DejaVuSans-44" d="M 1259 4147 
L 1259 519 
L 2022 519 
Q 2988 519 3436 956 
Q 3884 1394 3884 2338 
Q 3884 3275 3436 3711 
Q 2988 4147 2022 4147 
L 1259 4147 
z
M 628 4666 
L 1925 4666 
Q 3281 4666 3915 4102 
Q 4550 3538 4550 2338 
Q 4550 1131 3912 565 
Q 3275 0 1925 0 
L 628 0 
L 628 4666 
z
" transform="scale(0.015625)"/>
       <path id="DejaVuSans-46" d="M 628 4666 
L 3309 4666 
L 3309 4134 
L 1259 4134 
L 1259 2759 
L 3109 2759 
L 3109 2228 
L 1259 2228 
L 1259 0 
L 628 0 
L 628 4666 
z
" transform="scale(0.015625)"/>
       <path id="DejaVuSans-4e" d="M 628 4666 
L 1478 4666 
L 3547 763 
L 3547 4666 
L 4159 4666 
L 4159 0 
L 3309 0 
L 1241 3903 
L 1241 0 
L 628 0 
L 628 4666 
z
" transform="scale(0.015625)"/>
      </defs>
      <use xlink:href="#DejaVuSans-44"/>
      <use xlink:href="#DejaVuSans-46" x="77.001953"/>
      <use xlink:href="#DejaVuSans-46" x="134.521484"/>
      <use xlink:href="#DejaVuSans-20" x="192.041016"/>
      <use xlink:href="#DejaVuSans-49" x="223.828125"/>
      <use xlink:href="#DejaVuSans-4e" x="253.320312"/>
     </g>
    </g>
   </g>
   <g id="line2d_36">
    <path d="M 141.12 219.358009 
L 221.953536 219.31193 
L 224.437248 200.588861 
L 225.404928 194.893192 
L 228.243456 182.370113 
L 229.598208 181.11337 
L 231.178752 180.249779 
L 236.565504 179.799502 
L 243.661824 179.688613 
L 245.1456 179.644929 
L 248.403456 179.53404 
L 250.113024 179.466834 
L 252.177408 179.355945 
L 254.241792 179.029998 
L 254.757888 178.499075 
L 255.499776 178.163047 
L 256.370688 178.183209 
L 257.531904 178.415068 
L 259.98336 178.814941 
L 262.370304 178.952712 
L 263.886336 179.003116 
L 264.144384 184.184663 
L 264.434688 187.754957 
L 264.854016 189.585299 
L 265.14432 191.276527 
L 267.337728 211.424409 
L 267.982848 214.770237 
L 268.563456 216.672523 
L 269.111808 217.77093 
L 269.692416 218.459821 
L 270.337536 218.884929 
L 271.176192 219.153879 
L 272.434176 219.300609 
L 273.498624 219.464758 
L 274.563072 220.521216 
L 275.433984 221.180536 
L 276.175872 221.554367 
L 277.175808 221.869493 
L 278.659584 222.083644 
L 282.046464 222.480425 
L 283.885056 223.479066 
L 286.11072 224.571492 
L 288.52992 225.909554 
L 289.142784 225.877631 
L 289.65888 225.646444 
L 290.271744 225.090655 
L 291.013632 224.387685 
L 291.207168 224.505966 
L 291.561984 225.064108 
L 292.23936 226.139397 
L 292.56192 226.479457 
L 292.852224 227.051712 
L 293.271552 228.231505 
L 293.948928 229.614259 
L 294.948864 231.423096 
L 295.110144 231.570612 
L 295.432704 232.290719 
L 295.9488 233.342486 
L 296.335872 233.832414 
L 296.59392 234.288068 
L 298.819584 238.207158 
L 299.01312 238.41516 
L 299.206656 238.673229 
L 299.49696 238.577461 
L 299.851776 238.146001 
L 300.496896 237.144639 
L 300.883968 236.468215 
L 302.109696 235.003471 
L 302.496768 234.36065 
L 302.819328 234.127111 
L 302.980608 234.01723 
L 303.174144 233.867025 
L 304.077312 233.134149 
L 304.593408 232.461421 
L 304.915968 231.967125 
L 305.30304 231.730897 
L 305.496576 231.641178 
L 305.754624 231.408311 
L 306.464256 230.98626 
L 307.270656 230.127037 
L 307.464192 229.880057 
L 307.657728 229.733549 
L 307.786752 229.518827 
L 307.980288 229.327627 
L 308.141568 229.360558 
L 310.076928 227.841377 
L 310.62528 226.986523 
L 310.915584 226.908564 
L 311.173632 226.858832 
L 311.689728 226.558423 
L 313.754112 224.762356 
L 314.044416 224.516047 
L 314.689536 224.250585 
L 316.9152 222.548034 
L 317.270016 222.218088 
L 318.20544 221.520697 
L 319.205376 220.550114 
L 320.011776 219.468199 
L 321.076224 218.006956 
L 321.91488 216.84504 
L 322.495488 216.039077 
L 325.817856 211.861245 
L 327.462912 210.178755 
L 328.84992 209.635734 
L 329.49504 209.666649 
L 330.30144 209.894476 
L 331.333632 210.597781 
L 332.365824 211.621322 
L 336.236544 216.290359 
L 337.268736 217.028175 
L 337.913856 217.31894 
L 339.204096 216.324029 
L 340.978176 215.826372 
L 342.139392 215.730268 
L 343.655424 215.808562 
L 345.332736 216.003794 
L 345.78432 216.052955 
L 346.59072 216.164315 
L 347.23584 216.241702 
L 347.751936 216.099663 
L 350.364672 190.426041 
L 352.300032 174.339052 
L 352.945152 170.686432 
L 353.590272 168.23343 
L 354.267648 166.472645 
L 355.203072 164.852991 
L 357.428736 162.137888 
L 360.235008 158.51887 
L 361.073664 157.490625 
L 363.6864 154.38909 
L 363.84768 154.426053 
L 364.4928 154.812485 
L 365.202432 155.057785 
L 366.1056 155.225799 
L 368.68608 155.874332 
L 372.266496 157.107554 
L 374.137344 157.772888 
L 374.717952 158.001387 
L 375.072768 158.229886 
L 375.717888 161.912749 
L 376.072704 163.38119 
L 376.395264 163.86171 
L 376.717824 163.952437 
L 377.07264 163.774342 
L 377.685504 163.058604 
L 378.782208 161.751456 
L 379.620864 161.19701 
L 380.45952 160.965151 
L 381.620736 160.95507 
L 383.233536 161.230613 
L 388.104192 162.867068 
L 393.36192 164.943719 
L 393.974784 165.182298 
L 395.652096 165.820751 
L 397.361664 166.41888 
L 398.20032 166.704504 
L 399.780864 167.245508 
L 409.780224 170.256316 
L 411.683328 170.763718 
L 412.39296 170.941813 
L 412.909056 171.052702 
L 414.392832 171.408891 
L 414.844416 171.51642 
L 415.360512 171.63739 
L 416.360448 170.750277 
L 416.973312 170.854445 
L 418.19904 171.482817 
L 419.295744 172.043983 
L 423.747072 173.327609 
L 424.295424 173.438498 
L 425.61792 173.683798 
L 426.488832 173.841731 
L 428.811264 174.214722 
L 431.133696 174.564191 
L 431.520768 174.611235 
L 432.327168 174.712043 
L 432.778752 174.782609 
L 433.617408 174.886777 
L 434.036736 174.947262 
L 434.907648 175.058151 
L 436.165632 175.209364 
L 437.004288 175.320253 
L 438.068736 175.434502 
L 439.133184 175.542031 
L 439.746048 175.619318 
L 440.77824 175.726847 
L 441.9072 175.834375 
L 442.455552 175.89486 
L 449.455104 176.513151 
L 450.906624 176.62404 
L 451.74528 176.687886 
L 455.003136 176.916384 
L 455.616 176.963428 
L 455.77728 177.084398 
L 456.293376 177.729571 
L 456.809472 178.018555 
L 457.519104 178.129444 
L 458.131968 178.0824 
L 459.16416 177.756454 
L 459.97056 177.538036 
L 460.712448 177.430507 
L 461.486592 177.376742 
L 465.583104 177.487631 
L 466.002432 177.507793 
L 466.74432 177.541396 
L 469.228032 177.648925 
L 469.840896 177.665726 
L 472.356864 177.776615 
L 474.1632 177.853902 
L 477.163008 177.964791 
L 477.582336 177.991673 
L 478.388736 178.015195 
L 479.904768 178.062239 
L 482.969088 178.173128 
L 483.549696 178.183209 
L 484.32384 178.213451 
L 488.03328 178.32434 
L 489.452544 178.361303 
L 494.387712 178.472193 
L 495.742464 178.502435 
L 496.065024 178.431869 
L 496.645632 177.823659 
L 497.129472 177.58844 
L 498.129408 177.58844 
L 499.871232 178.018555 
L 502.096896 178.371384 
L 504.774144 178.539398 
L 509.064192 178.650287 
L 510.28992 178.670449 
L 511.354368 178.670449 
L 536.385024 178.751095 
L 536.997888 179.399629 
L 537.449472 179.604606 
L 538.126848 179.708774 
L 540.158976 179.601245 
L 542.54592 179.214814 
L 547.38432 178.821661 
L 576.672768 178.724213 
L 577.285632 178.07568 
L 578.253312 177.783336 
L 579.414528 177.894225 
L 582.672384 178.462112 
L 585.220608 178.616684 
L 616.992768 178.720853 
L 617.928192 179.547481 
L 618.863616 179.725576 
L 620.960256 179.618047 
L 623.282688 179.245056 
L 628.701696 178.791419 
L 657.312768 178.720853 
L 657.86112 178.112643 
L 658.409472 177.840461 
L 660.344832 177.947989 
L 663.602688 178.515876 
L 665.76384 178.630126 
L 697.632768 178.720853 
L 698.568192 179.547481 
L 699.503616 179.725576 
L 701.600256 179.618047 
L 703.922688 179.245056 
L 709.341696 178.791419 
L 737.952768 178.720853 
L 738.50112 178.112643 
L 739.049472 177.840461 
L 740.984832 177.947989 
L 744.242688 178.515876 
L 746.40384 178.630126 
L 778.272768 178.720853 
L 779.208192 179.547481 
L 780.143616 179.725576 
L 782.240256 179.618047 
L 784.562688 179.245056 
L 789.981696 178.791419 
L 818.592768 178.720853 
L 819.14112 178.112643 
L 819.689472 177.840461 
L 821.624832 177.947989 
L 824.882688 178.515876 
L 827.04384 178.630126 
L 858.912768 178.720853 
L 859.848192 179.547481 
L 860.783616 179.725576 
L 862.880256 179.618047 
L 865.202688 179.245056 
L 870.621696 178.791419 
L 899.232768 178.720853 
L 899.78112 178.112643 
L 900.329472 177.840461 
L 902.264832 177.947989 
L 905.522688 178.515876 
L 907.68384 178.630126 
L 939.552768 178.720853 
L 940.617216 179.577724 
L 941.55264 179.762539 
L 943.488 179.65165 
L 946.455552 179.144248 
L 947.52 178.979594 
L 947.52 178.979594 
" clip-path="url(#p5129b92f78)" style="fill: none; stroke: #008000; stroke-width: 2; stroke-linecap: square"/>
   </g>
   <g id="patch_10">
    <path d="M 100.8 242.888276 
L 100.8 150.157241 
" style="fill: none; stroke: #bcbcbc; stroke-width: 0.8; stroke-linejoin: miter; stroke-linecap: square"/>
   </g>
   <g id="patch_11">
    <path d="M 987.84 242.888276 
L 987.84 150.157241 
" style="fill: none; stroke: #bcbcbc; stroke-width: 0.8; stroke-linejoin: miter; stroke-linecap: square"/>
   </g>
   <g id="patch_12">
    <path d="M 100.8 242.888276 
L 987.84 242.888276 
" style="fill: none; stroke: #bcbcbc; stroke-width: 0.8; stroke-linejoin: miter; stroke-linecap: square"/>
   </g>
   <g id="patch_13">
    <path d="M 100.8 150.157241 
L 987.84 150.157241 
" style="fill: none; stroke: #bcbcbc; stroke-width: 0.8; stroke-linejoin: miter; stroke-linecap: square"/>
   </g>
  </g>
  <g id="axes_3">
   <g id="patch_14">
    <path d="M 100.8 354.165517 
L 987.84 354.165517 
L 987.84 261.434483 
L 100.8 261.434483 
z
" style="fill: #eeeeee"/>
   </g>
   <g id="matplotlib.axis_5">
    <g id="xtick_13">
     <g id="line2d_37">
      <path d="M 141.12 354.165517 
L 141.12 261.434483 
" clip-path="url(#p873f0f5c3f)" style="fill: none; stroke-dasharray: 1.85,0.8; stroke-dashoffset: 0; stroke: #b2b2b2; stroke-width: 0.5"/>
     </g>
     <g id="line2d_38">
      <g>
       <use xlink:href="#mfb5a591423" x="141.12" y="354.165517" style="stroke: #000000; stroke-width: 0.8"/>
      </g>
     </g>
    </g>
    <g id="xtick_14">
     <g id="line2d_39">
      <path d="M 302.4 354.165517 
L 302.4 261.434483 
" clip-path="url(#p873f0f5c3f)" style="fill: none; stroke-dasharray: 1.85,0.8; stroke-dashoffset: 0; stroke: #b2b2b2; stroke-width: 0.5"/>
     </g>
     <g id="line2d_40">
      <g>
       <use xlink:href="#mfb5a591423" x="302.4" y="354.165517" style="stroke: #000000; stroke-width: 0.8"/>
      </g>
     </g>
    </g>
    <g id="xtick_15">
     <g id="line2d_41">
      <path d="M 463.68 354.165517 
L 463.68 261.434483 
" clip-path="url(#p873f0f5c3f)" style="fill: none; stroke-dasharray: 1.85,0.8; stroke-dashoffset: 0; stroke: #b2b2b2; stroke-width: 0.5"/>
     </g>
     <g id="line2d_42">
      <g>
       <use xlink:href="#mfb5a591423" x="463.68" y="354.165517" style="stroke: #000000; stroke-width: 0.8"/>
      </g>
     </g>
    </g>
    <g id="xtick_16">
     <g id="line2d_43">
      <path d="M 624.96 354.165517 
L 624.96 261.434483 
" clip-path="url(#p873f0f5c3f)" style="fill: none; stroke-dasharray: 1.85,0.8; stroke-dashoffset: 0; stroke: #b2b2b2; stroke-width: 0.5"/>
     </g>
     <g id="line2d_44">
      <g>
       <use xlink:href="#mfb5a591423" x="624.96" y="354.165517" style="stroke: #000000; stroke-width: 0.8"/>
      </g>
     </g>
    </g>
    <g id="xtick_17">
     <g id="line2d_45">
      <path d="M 786.24 354.165517 
L 786.24 261.434483 
" clip-path="url(#p873f0f5c3f)" style="fill: none; stroke-dasharray: 1.85,0.8; stroke-dashoffset: 0; stroke: #b2b2b2; stroke-width: 0.5"/>
     </g>
     <g id="line2d_46">
      <g>
       <use xlink:href="#mfb5a591423" x="786.24" y="354.165517" style="stroke: #000000; stroke-width: 0.8"/>
      </g>
     </g>
    </g>
    <g id="xtick_18">
     <g id="line2d_47">
      <path d="M 947.52 354.165517 
L 947.52 261.434483 
" clip-path="url(#p873f0f5c3f)" style="fill: none; stroke-dasharray: 1.85,0.8; stroke-dashoffset: 0; stroke: #b2b2b2; stroke-width: 0.5"/>
     </g>
     <g id="line2d_48">
      <g>
       <use xlink:href="#mfb5a591423" x="947.52" y="354.165517" style="stroke: #000000; stroke-width: 0.8"/>
      </g>
     </g>
    </g>
   </g>
   <g id="matplotlib.axis_6">
    <g id="ytick_6">
     <g id="line2d_49">
      <path d="M 100.8 344.750539 
L 987.84 344.750539 
" clip-path="url(#p873f0f5c3f)" style="fill: none; stroke-dasharray: 1.85,0.8; stroke-dashoffset: 0; stroke: #b2b2b2; stroke-width: 0.5"/>
     </g>
     <g id="line2d_50">
      <g>
       <use xlink:href="#m2fe69c0f7f" x="100.8" y="344.750539" style="stroke: #000000; stroke-width: 0.8"/>
      </g>
     </g>
     <g id="text_8">
      <!-- 0 V -->
      <g transform="translate(74.36625 350.069446) scale(0.14 -0.14)">
       <use xlink:href="#DejaVuSans-30"/>
       <use xlink:href="#DejaVuSans-20" x="63.623047"/>
       <use xlink:href="#DejaVuSans-56" x="95.410156"/>
      </g>
     </g>
    </g>
    <g id="ytick_7">
     <g id="line2d_51">
      <path d="M 100.8 303.706014 
L 987.84 303.706014 
" clip-path="url(#p873f0f5c3f)" style="fill: none; stroke-dasharray: 1.85,0.8; stroke-dashoffset: 0; stroke: #b2b2b2; stroke-width: 0.5"/>
     </g>
     <g id="line2d_52">
      <g>
       <use xlink:href="#m2fe69c0f7f" x="100.8" y="303.706014" style="stroke: #000000; stroke-width: 0.8"/>
      </g>
     </g>
     <g id="text_9">
      <!-- 1 V -->
      <g transform="translate(74.36625 309.02492) scale(0.14 -0.14)">
       <use xlink:href="#DejaVuSans-31"/>
       <use xlink:href="#DejaVuSans-20" x="63.623047"/>
       <use xlink:href="#DejaVuSans-56" x="95.410156"/>
      </g>
     </g>
    </g>
    <g id="ytick_8">
     <g id="line2d_53">
      <path d="M 100.8 262.661488 
L 987.84 262.661488 
" clip-path="url(#p873f0f5c3f)" style="fill: none; stroke-dasharray: 1.85,0.8; stroke-dashoffset: 0; stroke: #b2b2b2; stroke-width: 0.5"/>
     </g>
     <g id="line2d_54">
      <g>
       <use xlink:href="#m2fe69c0f7f" x="100.8" y="262.661488" style="stroke: #000000; stroke-width: 0.8"/>
      </g>
     </g>
     <g id="text_10">
      <!-- 2 V -->
      <g transform="translate(74.36625 267.980395) scale(0.14 -0.14)">
       <use xlink:href="#DejaVuSans-32"/>
       <use xlink:href="#DejaVuSans-20" x="63.623047"/>
       <use xlink:href="#DejaVuSans-56" x="95.410156"/>
      </g>
     </g>
    </g>
    <g id="text_11">
     <g id="patch_15">
      <path d="M 34.8768 342.395313 
L 34.8768 273.204688 
L 11.247425 273.204688 
L 11.247425 342.395313 
z
" style="fill: #ffff00; opacity: 0.2; stroke: #eeeeee; stroke-width: 0.5; stroke-linejoin: miter"/>
     </g>
     <!-- CLK BUF -->
     <g transform="translate(26.925238 337.355313) rotate(-90) scale(0.14 -0.14)">
      <defs>
       <path id="DejaVuSans-43" d="M 4122 4306 
L 4122 3641 
Q 3803 3938 3442 4084 
Q 3081 4231 2675 4231 
Q 1875 4231 1450 3742 
Q 1025 3253 1025 2328 
Q 1025 1406 1450 917 
Q 1875 428 2675 428 
Q 3081 428 3442 575 
Q 3803 722 4122 1019 
L 4122 359 
Q 3791 134 3420 21 
Q 3050 -91 2638 -91 
Q 1578 -91 968 557 
Q 359 1206 359 2328 
Q 359 3453 968 4101 
Q 1578 4750 2638 4750 
Q 3056 4750 3426 4639 
Q 3797 4528 4122 4306 
z
" transform="scale(0.015625)"/>
       <path id="DejaVuSans-4b" d="M 628 4666 
L 1259 4666 
L 1259 2694 
L 3353 4666 
L 4166 4666 
L 1850 2491 
L 4331 0 
L 3500 0 
L 1259 2247 
L 1259 0 
L 628 0 
L 628 4666 
z
" transform="scale(0.015625)"/>
      </defs>
      <use xlink:href="#DejaVuSans-43"/>
      <use xlink:href="#DejaVuSans-4c" x="69.824219"/>
      <use xlink:href="#DejaVuSans-4b" x="125.537109"/>
      <use xlink:href="#DejaVuSans-20" x="191.113281"/>
      <use xlink:href="#DejaVuSans-42" x="222.900391"/>
      <use xlink:href="#DejaVuSans-55" x="291.503906"/>
      <use xlink:href="#DejaVuSans-46" x="364.697266"/>
     </g>
    </g>
   </g>
   <g id="line2d_55">
    <path d="M 141.12 344.749454 
L 173.376 344.749454 
L 173.601792 295.497109 
L 213.696 295.497109 
L 213.760512 334.784518 
L 213.825024 344.731788 
L 213.889536 344.672723 
L 213.954048 344.836692 
L 214.01856 344.754987 
L 215.437824 344.745148 
L 223.824384 344.749367 
L 254.016 344.749426 
L 254.17728 295.345244 
L 254.241792 295.607929 
L 254.403072 295.4889 
L 254.854656 295.497109 
L 273.466368 295.603824 
L 275.111424 297.873587 
L 276.788736 300.635883 
L 283.69152 311.841449 
L 287.23968 316.972425 
L 290.981376 321.895716 
L 291.013632 321.865343 
L 291.142656 322.122282 
L 291.174912 322.112842 
L 291.658752 322.666532 
L 293.142528 324.076822 
L 294.336 325.112786 
L 294.465024 323.840406 
L 294.49728 324.54514 
L 294.884352 347.451597 
L 295.400448 347.775972 
L 295.884288 348.052489 
L 299.238912 349.929538 
L 300.045312 349.524428 
L 300.30336 349.430436 
L 303.496704 348.328637 
L 304.722432 347.936415 
L 309.6576 346.500144 
L 314.528256 345.367439 
L 318.398976 344.726143 
L 319.882752 344.425393 
L 321.882624 344.245568 
L 334.656 344.330777 
L 334.688256 340.331275 
L 334.81728 312.438647 
L 334.97856 312.339319 
L 338.010624 310.777986 
L 339.526656 308.017331 
L 342.203904 302.425425 
L 345.010176 296.605311 
L 345.687552 295.279573 
L 347.945472 290.928853 
L 353.493504 281.271076 
L 354.49344 279.686757 
L 356.26752 276.965505 
L 363.718656 265.768559 
L 365.170176 265.68647 
L 367.589376 266.408854 
L 369.105408 267.057357 
L 371.040768 267.906979 
L 371.460096 268.091679 
L 373.137408 268.822272 
L 374.976 269.618535 
L 375.13728 345.15663 
L 375.29856 345.113574 
L 384.588288 345.195749 
L 387.910656 345.216969 
L 393.071616 345.163611 
L 415.296 344.990613 
L 415.425024 286.422164 
L 415.521792 286.438582 
L 416.070144 286.594551 
L 424.553472 288.646777 
L 425.037312 288.753493 
L 425.682432 288.893045 
L 426.198528 288.99976 
L 426.843648 289.139312 
L 427.456512 289.246027 
L 428.101632 289.385579 
L 428.714496 289.492295 
L 429.262848 289.590801 
L 429.778944 289.697517 
L 430.327296 289.796024 
L 430.94016 289.90274 
L 431.488512 290.001247 
L 432.101376 290.107963 
L 432.649728 290.206469 
L 433.35936 290.309081 
L 433.714176 290.370647 
L 434.423808 290.473259 
L 434.778624 290.534826 
L 435.391488 290.637437 
L 435.746304 290.699004 
L 436.552704 290.801615 
L 436.90752 290.863182 
L 437.617152 290.965793 
L 437.971968 291.02736 
L 438.778368 291.129971 
L 439.036416 291.150493 
L 439.746048 291.253105 
L 440.100864 291.314672 
L 441.004032 291.417283 
L 441.358848 291.47885 
L 442.262016 291.581461 
L 442.520064 291.601983 
L 443.326464 291.704595 
L 443.68128 291.762057 
L 449.100288 292.340785 
L 450.100224 292.443396 
L 450.358272 292.463918 
L 451.358208 292.56653 
L 451.616256 292.587052 
L 452.71296 292.689663 
L 452.971008 292.710185 
L 454.16448 292.812797 
L 454.422528 292.829215 
L 455.616 292.93593 
L 455.648256 297.861273 
L 455.712768 345.344454 
L 455.77728 344.600095 
L 455.841792 345.008295 
L 455.906304 344.825372 
L 456.132096 344.819884 
L 460.680192 344.80975 
L 495.936 344.769104 
L 496.065024 294.647487 
L 496.161792 294.803456 
L 497.06496 294.799352 
L 501.484032 294.906068 
L 501.74208 294.922485 
L 508.741632 295.029201 
L 508.99968 295.045619 
L 536.256 295.086663 
L 536.385024 345.064025 
L 536.546304 344.825322 
L 536.804352 344.733775 
L 537.159168 344.778453 
L 537.481728 344.760993 
L 576.576 344.761208 
L 576.705024 294.918381 
L 576.769536 295.090768 
L 576.834048 295.123604 
L 576.866304 295.094872 
L 577.05984 295.086663 
L 616.896 295.086663 
L 617.025024 345.063935 
L 617.186304 344.82529 
L 617.444352 344.733792 
L 617.799168 344.778443 
L 618.121728 344.760993 
L 657.216 344.761208 
L 657.37728 294.873232 
L 657.441792 295.337035 
L 657.53856 294.918381 
L 657.603072 295.070246 
L 658.086912 295.086663 
L 697.536 295.086663 
L 697.665024 345.064119 
L 697.826304 344.825244 
L 698.084352 344.733802 
L 698.439168 344.778454 
L 698.761728 344.760994 
L 737.856 344.761208 
L 738.01728 294.873232 
L 738.081792 295.337035 
L 738.17856 294.914276 
L 738.243072 295.070246 
L 738.726912 295.086663 
L 778.176 295.086663 
L 778.305024 345.063955 
L 778.466304 344.825285 
L 778.724352 344.733793 
L 779.079168 344.778443 
L 779.401728 344.760993 
L 818.496 344.761208 
L 818.65728 294.873232 
L 818.721792 295.337035 
L 818.81856 294.914276 
L 818.883072 295.070246 
L 819.366912 295.086663 
L 858.816 295.086663 
L 858.945024 345.064119 
L 859.106304 344.825244 
L 859.364352 344.733802 
L 859.719168 344.778454 
L 860.041728 344.760994 
L 899.136 344.761208 
L 899.29728 294.873232 
L 899.361792 295.337035 
L 899.45856 294.914276 
L 899.523072 295.070246 
L 900.006912 295.086663 
L 939.456 295.086663 
L 939.488256 302.486991 
L 939.61728 344.712394 
L 939.649536 344.831746 
L 939.714048 344.717555 
L 939.810816 344.734514 
L 940.004352 344.785772 
L 940.230144 344.759906 
L 945.9072 344.76121 
L 947.52 344.761199 
L 947.52 344.761199 
" clip-path="url(#p873f0f5c3f)" style="fill: none; stroke: #0000ff; stroke-width: 2; stroke-linecap: square"/>
   </g>
   <g id="patch_16">
    <path d="M 100.8 354.165517 
L 100.8 261.434483 
" style="fill: none; stroke: #bcbcbc; stroke-width: 0.8; stroke-linejoin: miter; stroke-linecap: square"/>
   </g>
   <g id="patch_17">
    <path d="M 987.84 354.165517 
L 987.84 261.434483 
" style="fill: none; stroke: #bcbcbc; stroke-width: 0.8; stroke-linejoin: miter; stroke-linecap: square"/>
   </g>
   <g id="patch_18">
    <path d="M 100.8 354.165517 
L 987.84 354.165517 
" style="fill: none; stroke: #bcbcbc; stroke-width: 0.8; stroke-linejoin: miter; stroke-linecap: square"/>
   </g>
   <g id="patch_19">
    <path d="M 100.8 261.434483 
L 987.84 261.434483 
" style="fill: none; stroke: #bcbcbc; stroke-width: 0.8; stroke-linejoin: miter; stroke-linecap: square"/>
   </g>
  </g>
  <g id="axes_4">
   <g id="patch_20">
    <path d="M 100.8 465.442759 
L 987.84 465.442759 
L 987.84 372.711724 
L 100.8 372.711724 
z
" style="fill: #eeeeee"/>
   </g>
   <g id="matplotlib.axis_7">
    <g id="xtick_19">
     <g id="line2d_56">
      <path d="M 141.12 465.442759 
L 141.12 372.711724 
" clip-path="url(#pa9f2783055)" style="fill: none; stroke-dasharray: 1.85,0.8; stroke-dashoffset: 0; stroke: #b2b2b2; stroke-width: 0.5"/>
     </g>
     <g id="line2d_57">
      <g>
       <use xlink:href="#mfb5a591423" x="141.12" y="465.442759" style="stroke: #000000; stroke-width: 0.8"/>
      </g>
     </g>
    </g>
    <g id="xtick_20">
     <g id="line2d_58">
      <path d="M 302.4 465.442759 
L 302.4 372.711724 
" clip-path="url(#pa9f2783055)" style="fill: none; stroke-dasharray: 1.85,0.8; stroke-dashoffset: 0; stroke: #b2b2b2; stroke-width: 0.5"/>
     </g>
     <g id="line2d_59">
      <g>
       <use xlink:href="#mfb5a591423" x="302.4" y="465.442759" style="stroke: #000000; stroke-width: 0.8"/>
      </g>
     </g>
    </g>
    <g id="xtick_21">
     <g id="line2d_60">
      <path d="M 463.68 465.442759 
L 463.68 372.711724 
" clip-path="url(#pa9f2783055)" style="fill: none; stroke-dasharray: 1.85,0.8; stroke-dashoffset: 0; stroke: #b2b2b2; stroke-width: 0.5"/>
     </g>
     <g id="line2d_61">
      <g>
       <use xlink:href="#mfb5a591423" x="463.68" y="465.442759" style="stroke: #000000; stroke-width: 0.8"/>
      </g>
     </g>
    </g>
    <g id="xtick_22">
     <g id="line2d_62">
      <path d="M 624.96 465.442759 
L 624.96 372.711724 
" clip-path="url(#pa9f2783055)" style="fill: none; stroke-dasharray: 1.85,0.8; stroke-dashoffset: 0; stroke: #b2b2b2; stroke-width: 0.5"/>
     </g>
     <g id="line2d_63">
      <g>
       <use xlink:href="#mfb5a591423" x="624.96" y="465.442759" style="stroke: #000000; stroke-width: 0.8"/>
      </g>
     </g>
    </g>
    <g id="xtick_23">
     <g id="line2d_64">
      <path d="M 786.24 465.442759 
L 786.24 372.711724 
" clip-path="url(#pa9f2783055)" style="fill: none; stroke-dasharray: 1.85,0.8; stroke-dashoffset: 0; stroke: #b2b2b2; stroke-width: 0.5"/>
     </g>
     <g id="line2d_65">
      <g>
       <use xlink:href="#mfb5a591423" x="786.24" y="465.442759" style="stroke: #000000; stroke-width: 0.8"/>
      </g>
     </g>
    </g>
    <g id="xtick_24">
     <g id="line2d_66">
      <path d="M 947.52 465.442759 
L 947.52 372.711724 
" clip-path="url(#pa9f2783055)" style="fill: none; stroke-dasharray: 1.85,0.8; stroke-dashoffset: 0; stroke: #b2b2b2; stroke-width: 0.5"/>
     </g>
     <g id="line2d_67">
      <g>
       <use xlink:href="#mfb5a591423" x="947.52" y="465.442759" style="stroke: #000000; stroke-width: 0.8"/>
      </g>
     </g>
    </g>
   </g>
   <g id="matplotlib.axis_8">
    <g id="ytick_9">
     <g id="line2d_68">
      <path d="M 100.8 436.998619 
L 987.84 436.998619 
" clip-path="url(#pa9f2783055)" style="fill: none; stroke-dasharray: 1.85,0.8; stroke-dashoffset: 0; stroke: #b2b2b2; stroke-width: 0.5"/>
     </g>
     <g id="line2d_69">
      <g>
       <use xlink:href="#m2fe69c0f7f" x="100.8" y="436.998619" style="stroke: #000000; stroke-width: 0.8"/>
      </g>
     </g>
     <g id="text_12">
      <!-- 0 V -->
      <g transform="translate(74.36625 442.317526) scale(0.14 -0.14)">
       <use xlink:href="#DejaVuSans-30"/>
       <use xlink:href="#DejaVuSans-20" x="63.623047"/>
       <use xlink:href="#DejaVuSans-56" x="95.410156"/>
      </g>
     </g>
    </g>
    <g id="ytick_10">
     <g id="line2d_70">
      <path d="M 100.8 394.460843 
L 987.84 394.460843 
" clip-path="url(#pa9f2783055)" style="fill: none; stroke-dasharray: 1.85,0.8; stroke-dashoffset: 0; stroke: #b2b2b2; stroke-width: 0.5"/>
     </g>
     <g id="line2d_71">
      <g>
       <use xlink:href="#m2fe69c0f7f" x="100.8" y="394.460843" style="stroke: #000000; stroke-width: 0.8"/>
      </g>
     </g>
     <g id="text_13">
      <!-- 1 V -->
      <g transform="translate(74.36625 399.779749) scale(0.14 -0.14)">
       <use xlink:href="#DejaVuSans-31"/>
       <use xlink:href="#DejaVuSans-20" x="63.623047"/>
       <use xlink:href="#DejaVuSans-56" x="95.410156"/>
      </g>
     </g>
    </g>
    <g id="text_14">
     <g id="patch_21">
      <path d="M 34.8768 454.693023 
L 34.8768 383.46146 
L 11.247425 383.46146 
L 11.247425 454.693023 
z
" style="fill: #ffff00; opacity: 0.2; stroke: #eeeeee; stroke-width: 0.5; stroke-linejoin: miter"/>
     </g>
     <!-- DFF OUT -->
     <g transform="translate(26.925238 449.653023) rotate(-90) scale(0.14 -0.14)">
      <defs>
       <path id="DejaVuSans-4f" d="M 2522 4238 
Q 1834 4238 1429 3725 
Q 1025 3213 1025 2328 
Q 1025 1447 1429 934 
Q 1834 422 2522 422 
Q 3209 422 3611 934 
Q 4013 1447 4013 2328 
Q 4013 3213 3611 3725 
Q 3209 4238 2522 4238 
z
M 2522 4750 
Q 3503 4750 4090 4092 
Q 4678 3434 4678 2328 
Q 4678 1225 4090 567 
Q 3503 -91 2522 -91 
Q 1538 -91 948 565 
Q 359 1222 359 2328 
Q 359 3434 948 4092 
Q 1538 4750 2522 4750 
z
" transform="scale(0.015625)"/>
       <path id="DejaVuSans-54" d="M -19 4666 
L 3928 4666 
L 3928 4134 
L 2272 4134 
L 2272 0 
L 1638 0 
L 1638 4134 
L -19 4134 
L -19 4666 
z
" transform="scale(0.015625)"/>
      </defs>
      <use xlink:href="#DejaVuSans-44"/>
      <use xlink:href="#DejaVuSans-46" x="77.001953"/>
      <use xlink:href="#DejaVuSans-46" x="134.521484"/>
      <use xlink:href="#DejaVuSans-20" x="192.041016"/>
      <use xlink:href="#DejaVuSans-4f" x="223.828125"/>
      <use xlink:href="#DejaVuSans-55" x="302.539062"/>
      <use xlink:href="#DejaVuSans-54" x="375.732422"/>
     </g>
    </g>
   </g>
   <g id="line2d_72">
    <path d="M 141.12 404.902591 
L 173.408256 404.954487 
L 173.440512 406.715551 
L 173.601792 437.001216 
L 174.085632 436.995898 
L 183.69792 436.997489 
L 254.048256 436.999267 
L 254.080512 437.169315 
L 254.112768 436.888034 
L 254.306304 432.735058 
L 254.596608 431.902594 
L 254.693376 431.308766 
L 255.14496 423.856148 
L 255.370752 406.339942 
L 255.596544 386.365904 
L 255.757824 386.017094 
L 255.983616 385.949034 
L 256.854528 385.953287 
L 273.466368 386.059632 
L 275.079168 388.365179 
L 276.75648 391.232225 
L 281.304576 399.235708 
L 281.981952 400.998048 
L 282.949632 405.001278 
L 283.8528 409.222727 
L 283.949568 409.067464 
L 284.01408 409.181466 
L 284.17536 410.726012 
L 284.530176 412.335642 
L 284.562432 411.951951 
L 284.594688 412.587465 
L 284.626944 412.263753 
L 284.82048 413.9491 
L 285.014016 414.922789 
L 285.110784 414.837288 
L 285.207552 415.118889 
L 285.4656 417.17559 
L 285.691392 418.244139 
L 285.723648 418.101637 
L 285.755904 417.959136 
L 285.78816 418.044637 
L 285.820416 418.193519 
L 285.981696 419.815484 
L 289.4976 436.429974 
L 289.529856 435.997748 
L 289.594368 436.221369 
L 289.65888 436.549548 
L 289.82016 437.866986 
L 290.174976 439.29668 
L 290.207232 438.962546 
L 290.239488 439.54391 
L 290.271744 439.342536 
L 290.304 439.207266 
L 290.497536 440.61114 
L 290.852352 441.775612 
L 290.884608 441.601207 
L 290.916864 441.641192 
L 290.94912 442.060189 
L 291.045888 441.90918 
L 291.303936 442.602971 
L 291.465216 443.523489 
L 292.174848 445.017841 
L 292.594176 445.7597 
L 292.852224 446.490499 
L 292.981248 446.975004 
L 293.04576 447.037109 
L 295.1424 452.554684 
L 295.174656 452.347525 
L 295.239168 452.52746 
L 295.46496 453.310155 
L 295.529472 453.214445 
L 296.91648 456.578333 
L 297.529344 457.854891 
L 297.5616 457.779174 
L 297.593856 457.911467 
L 297.690624 458.259426 
L 297.72288 458.142872 
L 299.109888 461.227712 
L 299.142144 461.101374 
L 299.206656 461.181345 
L 299.464704 461.109457 
L 299.593728 460.772132 
L 299.625984 460.874648 
L 299.65824 460.661959 
L 299.851776 460.363769 
L 300.013056 460.081319 
L 301.464576 457.209593 
L 301.496832 457.278079 
L 301.561344 457.181093 
L 301.690368 456.839515 
L 302.206464 455.976423 
L 302.72256 455.297095 
L 302.754816 455.478306 
L 302.787072 455.203512 
L 302.819328 455.360476 
L 303.012864 454.967002 
L 303.109632 454.919785 
L 304.33536 453.279953 
L 304.367616 453.43947 
L 304.399872 453.447978 
L 304.528896 452.985592 
L 304.851456 452.642738 
L 305.238528 452.210979 
L 305.270784 452.427496 
L 305.30304 452.141643 
L 305.335296 452.313495 
L 305.367552 452.303711 
L 305.496576 451.956603 
L 306.012672 451.625659 
L 306.367488 451.025451 
L 306.722304 450.498408 
L 306.75456 450.496281 
L 306.851328 450.323153 
L 306.883584 450.589864 
L 306.948096 450.246585 
L 306.980352 450.246585 
L 307.044864 450.105785 
L 307.07712 450.374198 
L 307.141632 449.990933 
L 307.206144 450.098128 
L 307.367424 449.714437 
L 307.39968 450.006671 
L 307.431936 449.667645 
L 307.496448 449.918193 
L 307.56096 449.521315 
L 307.593216 449.670623 
L 307.625472 449.766333 
L 307.689984 449.649354 
L 307.819008 449.274596 
L 307.948032 449.158894 
L 307.980288 449.390724 
L 308.077056 449.287783 
L 308.36736 448.892607 
L 308.657664 448.692254 
L 309.109248 448.089069 
L 309.302784 447.65178 
L 309.689856 447.132394 
L 309.722112 447.495241 
L 309.754368 447.103894 
L 309.786624 447.388897 
L 309.851136 446.888652 
L 309.883392 446.915026 
L 309.915648 447.292336 
L 309.947904 446.899712 
L 310.012416 447.183014 
L 310.14144 446.662777 
L 310.851072 446.068524 
L 310.883328 446.258668 
L 310.94784 446.117443 
L 311.10912 445.964732 
L 311.141376 445.992807 
L 312.431616 444.652867 
L 312.592896 444.043301 
L 312.689664 443.942061 
L 312.72192 444.367013 
L 312.754176 443.921217 
L 312.786432 444.118167 
L 312.818688 443.722991 
L 312.8832 444.157727 
L 313.012224 443.606863 
L 313.04448 443.640893 
L 313.076736 443.838694 
L 313.108992 443.733626 
L 313.238016 443.401831 
L 313.270272 443.404809 
L 313.302528 443.797432 
L 313.334784 443.323987 
L 313.36704 443.534549 
L 313.399296 443.547735 
L 313.496064 443.628983 
L 313.52832 443.182336 
L 313.560576 443.193821 
L 313.592832 443.436287 
L 313.625088 443.112999 
L 313.6896 443.352487 
L 313.818624 443.058126 
L 314.463744 442.733988 
L 315.366912 441.677775 
L 315.528192 441.140693 
L 315.689472 440.962587 
L 315.721728 441.228363 
L 315.753984 440.882659 
L 315.78624 441.110831 
L 315.94752 440.68758 
L 316.076544 440.550566 
L 316.1088 441.04779 
L 316.205568 440.967649 
L 316.334592 440.281089 
L 316.366848 440.305591 
L 316.399104 440.335538 
L 316.43136 440.229704 
L 316.657152 440.365569 
L 316.689408 440.440861 
L 316.818432 440.008337 
L 316.850688 440.024714 
L 316.882944 440.235829 
L 316.947456 440.005828 
L 317.431296 439.778676 
L 318.560256 438.55899 
L 318.721536 437.874472 
L 318.753792 438.157263 
L 318.818304 437.776082 
L 318.947328 437.343605 
L 318.979584 437.808879 
L 319.044096 437.215162 
L 319.140864 437.138837 
L 319.17312 437.556205 
L 319.237632 437.144584 
L 319.269888 437.173777 
L 319.366656 437.018867 
L 319.398912 437.033699 
L 319.527936 436.921099 
L 320.431104 435.22807 
L 320.753664 434.598936 
L 320.78592 434.136167 
L 320.882688 434.218818 
L 320.979456 434.157436 
L 321.334272 433.457052 
L 321.91488 432.29224 
L 322.07616 431.310468 
L 322.108416 431.797951 
L 322.140672 431.235601 
L 322.172928 431.288774 
L 322.334208 431.449992 
L 322.366464 431.378954 
L 323.430912 429.059369 
L 323.592192 428.471071 
L 323.624448 428.51446 
L 323.656704 428.653133 
L 323.721216 428.51446 
L 325.011456 425.985589 
L 325.269504 425.464501 
L 326.688768 422.267362 
L 327.333888 420.847451 
L 329.075712 416.843795 
L 329.107968 417.262793 
L 329.236992 416.36482 
L 329.33376 416.818698 
L 329.398272 416.526464 
L 329.462784 416.57836 
L 329.97888 415.600416 
L 330.172416 415.104 
L 330.753024 414.137117 
L 330.78528 413.48161 
L 330.849792 413.8368 
L 330.882048 413.9491 
L 330.914304 413.587954 
L 331.011072 413.745769 
L 331.527168 412.984343 
L 331.688448 412.481121 
L 334.268928 408.331561 
L 334.430208 408.152052 
L 334.752768 407.631814 
L 334.81728 408.308165 
L 334.914048 422.629784 
L 335.075328 436.469152 
L 335.333376 436.493611 
L 337.913856 436.514837 
L 338.591232 435.872474 
L 339.365376 435.474746 
L 340.397568 435.226325 
L 341.849088 435.126617 
L 344.558592 435.179449 
L 358.815744 435.577432 
L 362.041344 435.645918 
L 363.750912 435.80016 
L 364.428288 436.459283 
L 365.234688 436.89672 
L 366.202368 437.165567 
L 367.653888 437.330278 
L 370.589184 437.39619 
L 384.97536 437.477935 
L 389.039616 437.475 
L 408.296448 437.306648 
L 415.328256 437.255901 
L 415.360512 437.488995 
L 415.45728 432.763473 
L 415.61856 430.510332 
L 415.876608 428.99939 
L 416.037888 426.63429 
L 416.166912 421.749677 
L 416.360448 404.292174 
L 416.618496 377.079907 
L 416.715264 376.926771 
L 416.74752 376.935279 
L 417.650688 377.164983 
L 418.553856 377.407448 
L 418.940928 377.518046 
L 419.715072 377.705212 
L 420.102144 377.815811 
L 420.876288 378.002977 
L 421.360128 378.113575 
L 422.134272 378.300741 
L 422.521344 378.41134 
L 423.166464 378.555968 
L 423.68256 378.666566 
L 424.32768 378.811195 
L 424.843776 378.921793 
L 425.488896 379.066421 
L 426.004992 379.17702 
L 426.650112 379.321648 
L 427.166208 379.432246 
L 427.71456 379.534337 
L 428.230656 379.644935 
L 428.779008 379.747026 
L 429.391872 379.857624 
L 429.940224 379.959715 
L 430.45632 380.070313 
L 431.004672 380.172404 
L 431.617536 380.283002 
L 432.165888 380.385092 
L 432.87552 380.491437 
L 433.230336 380.555244 
L 433.8432 380.661588 
L 434.198016 380.725395 
L 434.907648 380.831739 
L 435.262464 380.895546 
L 435.972096 381.006144 
L 436.42368 381.065697 
L 437.036544 381.172041 
L 437.39136 381.235848 
L 438.19776 381.342192 
L 438.552576 381.405999 
L 439.455744 381.512343 
L 439.81056 381.57615 
L 440.61696 381.682495 
L 440.875008 381.703763 
L 441.58464 381.810108 
L 441.842688 381.831377 
L 442.649088 381.937721 
L 443.003904 382.001528 
L 444.00384 382.107872 
L 444.358656 382.171679 
L 445.358592 382.278023 
L 445.61664 382.299292 
L 446.519808 382.405637 
L 446.777856 382.426906 
L 447.681024 382.53325 
L 447.939072 382.554519 
L 448.84224 382.660863 
L 449.100288 382.682132 
L 450.100224 382.788477 
L 450.358272 382.809746 
L 451.358208 382.91609 
L 451.616256 382.937359 
L 452.71296 383.043703 
L 452.971008 383.064972 
L 454.16448 383.171317 
L 454.422528 383.192586 
L 455.616 383.29893 
L 455.809536 383.337214 
L 455.970816 383.320199 
L 457.164288 383.426543 
L 457.422336 383.443559 
L 459.260928 383.575426 
L 460.551168 383.68177 
L 460.873728 383.703039 
L 461.42208 383.741323 
L 463.228416 383.868936 
L 464.905728 383.979535 
L 465.163776 383.99655 
L 467.034624 384.107148 
L 467.292672 384.124163 
L 469.260288 384.234761 
L 469.518336 384.251776 
L 471.679488 384.362375 
L 472.034304 384.383643 
L 474.292224 384.489988 
L 474.550272 384.507003 
L 477.195264 384.617601 
L 477.453312 384.63887 
L 480.29184 384.745215 
L 480.549888 384.76223 
L 483.775488 384.872828 
L 484.033536 384.889843 
L 487.742976 385.000441 
L 488.065536 385.02171 
L 488.904192 385.02171 
L 492.194304 385.128055 
L 492.516864 385.149323 
L 493.387776 385.14507 
L 494.548992 385.187607 
L 495.968256 385.225891 
L 496.000512 385.476864 
L 496.065024 385.208876 
L 496.226304 385.225891 
L 501.451776 385.327982 
L 501.838848 385.362012 
L 508.741632 385.468357 
L 509.096448 385.489626 
L 576.608256 385.523656 
L 576.640512 385.736345 
L 576.705024 385.502387 
L 576.963072 385.519402 
L 657.248256 385.523656 
L 657.280512 385.740598 
L 657.345024 385.523656 
L 657.53856 385.502387 
L 658.570752 385.52791 
L 737.888256 385.523656 
L 737.920512 385.740598 
L 737.985024 385.523656 
L 738.17856 385.502387 
L 739.210752 385.52791 
L 818.528256 385.523656 
L 818.560512 385.740598 
L 818.625024 385.523656 
L 818.81856 385.502387 
L 819.850752 385.52791 
L 899.168256 385.523656 
L 899.200512 385.740598 
L 899.265024 385.523656 
L 899.45856 385.502387 
L 900.490752 385.52791 
L 947.52 385.52791 
L 947.52 385.52791 
" clip-path="url(#pa9f2783055)" style="fill: none; stroke: #ff00ff; stroke-width: 2; stroke-linecap: square"/>
   </g>
   <g id="patch_22">
    <path d="M 100.8 465.442759 
L 100.8 372.711724 
" style="fill: none; stroke: #bcbcbc; stroke-width: 0.8; stroke-linejoin: miter; stroke-linecap: square"/>
   </g>
   <g id="patch_23">
    <path d="M 987.84 465.442759 
L 987.84 372.711724 
" style="fill: none; stroke: #bcbcbc; stroke-width: 0.8; stroke-linejoin: miter; stroke-linecap: square"/>
   </g>
   <g id="patch_24">
    <path d="M 100.8 465.442759 
L 987.84 465.442759 
" style="fill: none; stroke: #bcbcbc; stroke-width: 0.8; stroke-linejoin: miter; stroke-linecap: square"/>
   </g>
   <g id="patch_25">
    <path d="M 100.8 372.711724 
L 987.84 372.711724 
" style="fill: none; stroke: #bcbcbc; stroke-width: 0.8; stroke-linejoin: miter; stroke-linecap: square"/>
   </g>
  </g>
  <g id="axes_5">
   <g id="patch_26">
    <path d="M 100.8 576.72 
L 987.84 576.72 
L 987.84 483.988966 
L 100.8 483.988966 
z
" style="fill: #eeeeee"/>
   </g>
   <g id="matplotlib.axis_9">
    <g id="xtick_25">
     <g id="line2d_73">
      <path d="M 141.12 576.72 
L 141.12 483.988966 
" clip-path="url(#p437310373e)" style="fill: none; stroke-dasharray: 1.85,0.8; stroke-dashoffset: 0; stroke: #b2b2b2; stroke-width: 0.5"/>
     </g>
     <g id="line2d_74">
      <g>
       <use xlink:href="#mfb5a591423" x="141.12" y="576.72" style="stroke: #000000; stroke-width: 0.8"/>
      </g>
     </g>
     <g id="text_15">
      <!-- 0 s -->
      <g transform="translate(130.795 590.857813) scale(0.14 -0.14)">
       <defs>
        <path id="DejaVuSans-73" d="M 2834 3397 
L 2834 2853 
Q 2591 2978 2328 3040 
Q 2066 3103 1784 3103 
Q 1356 3103 1142 2972 
Q 928 2841 928 2578 
Q 928 2378 1081 2264 
Q 1234 2150 1697 2047 
L 1894 2003 
Q 2506 1872 2764 1633 
Q 3022 1394 3022 966 
Q 3022 478 2636 193 
Q 2250 -91 1575 -91 
Q 1294 -91 989 -36 
Q 684 19 347 128 
L 347 722 
Q 666 556 975 473 
Q 1284 391 1588 391 
Q 1994 391 2212 530 
Q 2431 669 2431 922 
Q 2431 1156 2273 1281 
Q 2116 1406 1581 1522 
L 1381 1569 
Q 847 1681 609 1914 
Q 372 2147 372 2553 
Q 372 3047 722 3315 
Q 1072 3584 1716 3584 
Q 2034 3584 2315 3537 
Q 2597 3491 2834 3397 
z
" transform="scale(0.015625)"/>
       </defs>
       <use xlink:href="#DejaVuSans-30"/>
       <use xlink:href="#DejaVuSans-20" x="63.623047"/>
       <use xlink:href="#DejaVuSans-73" x="95.410156"/>
      </g>
     </g>
    </g>
    <g id="xtick_26">
     <g id="line2d_75">
      <path d="M 302.4 576.72 
L 302.4 483.988966 
" clip-path="url(#p437310373e)" style="fill: none; stroke-dasharray: 1.85,0.8; stroke-dashoffset: 0; stroke: #b2b2b2; stroke-width: 0.5"/>
     </g>
     <g id="line2d_76">
      <g>
       <use xlink:href="#mfb5a591423" x="302.4" y="576.72" style="stroke: #000000; stroke-width: 0.8"/>
      </g>
     </g>
     <g id="text_16">
      <!-- 50 ns -->
      <g transform="translate(283.185 590.857813) scale(0.14 -0.14)">
       <defs>
        <path id="DejaVuSans-35" d="M 691 4666 
L 3169 4666 
L 3169 4134 
L 1269 4134 
L 1269 2991 
Q 1406 3038 1543 3061 
Q 1681 3084 1819 3084 
Q 2600 3084 3056 2656 
Q 3513 2228 3513 1497 
Q 3513 744 3044 326 
Q 2575 -91 1722 -91 
Q 1428 -91 1123 -41 
Q 819 9 494 109 
L 494 744 
Q 775 591 1075 516 
Q 1375 441 1709 441 
Q 2250 441 2565 725 
Q 2881 1009 2881 1497 
Q 2881 1984 2565 2268 
Q 2250 2553 1709 2553 
Q 1456 2553 1204 2497 
Q 953 2441 691 2322 
L 691 4666 
z
" transform="scale(0.015625)"/>
        <path id="DejaVuSans-6e" d="M 3513 2113 
L 3513 0 
L 2938 0 
L 2938 2094 
Q 2938 2591 2744 2837 
Q 2550 3084 2163 3084 
Q 1697 3084 1428 2787 
Q 1159 2491 1159 1978 
L 1159 0 
L 581 0 
L 581 3500 
L 1159 3500 
L 1159 2956 
Q 1366 3272 1645 3428 
Q 1925 3584 2291 3584 
Q 2894 3584 3203 3211 
Q 3513 2838 3513 2113 
z
" transform="scale(0.015625)"/>
       </defs>
       <use xlink:href="#DejaVuSans-35"/>
       <use xlink:href="#DejaVuSans-30" x="63.623047"/>
       <use xlink:href="#DejaVuSans-20" x="127.246094"/>
       <use xlink:href="#DejaVuSans-6e" x="159.033203"/>
       <use xlink:href="#DejaVuSans-73" x="222.412109"/>
      </g>
     </g>
    </g>
    <g id="xtick_27">
     <g id="line2d_77">
      <path d="M 463.68 576.72 
L 463.68 483.988966 
" clip-path="url(#p437310373e)" style="fill: none; stroke-dasharray: 1.85,0.8; stroke-dashoffset: 0; stroke: #b2b2b2; stroke-width: 0.5"/>
     </g>
     <g id="line2d_78">
      <g>
       <use xlink:href="#mfb5a591423" x="463.68" y="576.72" style="stroke: #000000; stroke-width: 0.8"/>
      </g>
     </g>
     <g id="text_17">
      <!-- 100 ns -->
      <g transform="translate(440.01125 590.857813) scale(0.14 -0.14)">
       <use xlink:href="#DejaVuSans-31"/>
       <use xlink:href="#DejaVuSans-30" x="63.623047"/>
       <use xlink:href="#DejaVuSans-30" x="127.246094"/>
       <use xlink:href="#DejaVuSans-20" x="190.869141"/>
       <use xlink:href="#DejaVuSans-6e" x="222.65625"/>
       <use xlink:href="#DejaVuSans-73" x="286.035156"/>
      </g>
     </g>
    </g>
    <g id="xtick_28">
     <g id="line2d_79">
      <path d="M 624.96 576.72 
L 624.96 483.988966 
" clip-path="url(#p437310373e)" style="fill: none; stroke-dasharray: 1.85,0.8; stroke-dashoffset: 0; stroke: #b2b2b2; stroke-width: 0.5"/>
     </g>
     <g id="line2d_80">
      <g>
       <use xlink:href="#mfb5a591423" x="624.96" y="576.72" style="stroke: #000000; stroke-width: 0.8"/>
      </g>
     </g>
     <g id="text_18">
      <!-- 150 ns -->
      <g transform="translate(601.29125 590.857813) scale(0.14 -0.14)">
       <use xlink:href="#DejaVuSans-31"/>
       <use xlink:href="#DejaVuSans-35" x="63.623047"/>
       <use xlink:href="#DejaVuSans-30" x="127.246094"/>
       <use xlink:href="#DejaVuSans-20" x="190.869141"/>
       <use xlink:href="#DejaVuSans-6e" x="222.65625"/>
       <use xlink:href="#DejaVuSans-73" x="286.035156"/>
      </g>
     </g>
    </g>
    <g id="xtick_29">
     <g id="line2d_81">
      <path d="M 786.24 576.72 
L 786.24 483.988966 
" clip-path="url(#p437310373e)" style="fill: none; stroke-dasharray: 1.85,0.8; stroke-dashoffset: 0; stroke: #b2b2b2; stroke-width: 0.5"/>
     </g>
     <g id="line2d_82">
      <g>
       <use xlink:href="#mfb5a591423" x="786.24" y="576.72" style="stroke: #000000; stroke-width: 0.8"/>
      </g>
     </g>
     <g id="text_19">
      <!-- 200 ns -->
      <g transform="translate(762.57125 590.857813) scale(0.14 -0.14)">
       <use xlink:href="#DejaVuSans-32"/>
       <use xlink:href="#DejaVuSans-30" x="63.623047"/>
       <use xlink:href="#DejaVuSans-30" x="127.246094"/>
       <use xlink:href="#DejaVuSans-20" x="190.869141"/>
       <use xlink:href="#DejaVuSans-6e" x="222.65625"/>
       <use xlink:href="#DejaVuSans-73" x="286.035156"/>
      </g>
     </g>
    </g>
    <g id="xtick_30">
     <g id="line2d_83">
      <path d="M 947.52 576.72 
L 947.52 483.988966 
" clip-path="url(#p437310373e)" style="fill: none; stroke-dasharray: 1.85,0.8; stroke-dashoffset: 0; stroke: #b2b2b2; stroke-width: 0.5"/>
     </g>
     <g id="line2d_84">
      <g>
       <use xlink:href="#mfb5a591423" x="947.52" y="576.72" style="stroke: #000000; stroke-width: 0.8"/>
      </g>
     </g>
     <g id="text_20">
      <!-- 250 ns -->
      <g transform="translate(923.85125 590.857813) scale(0.14 -0.14)">
       <use xlink:href="#DejaVuSans-32"/>
       <use xlink:href="#DejaVuSans-35" x="63.623047"/>
       <use xlink:href="#DejaVuSans-30" x="127.246094"/>
       <use xlink:href="#DejaVuSans-20" x="190.869141"/>
       <use xlink:href="#DejaVuSans-6e" x="222.65625"/>
       <use xlink:href="#DejaVuSans-73" x="286.035156"/>
      </g>
     </g>
    </g>
    <g id="text_21">
     <!-- Time -->
     <g transform="translate(527.192969 608.407187) scale(0.14 -0.14)">
      <defs>
       <path id="DejaVuSans-69" d="M 603 3500 
L 1178 3500 
L 1178 0 
L 603 0 
L 603 3500 
z
M 603 4863 
L 1178 4863 
L 1178 4134 
L 603 4134 
L 603 4863 
z
" transform="scale(0.015625)"/>
       <path id="DejaVuSans-6d" d="M 3328 2828 
Q 3544 3216 3844 3400 
Q 4144 3584 4550 3584 
Q 5097 3584 5394 3201 
Q 5691 2819 5691 2113 
L 5691 0 
L 5113 0 
L 5113 2094 
Q 5113 2597 4934 2840 
Q 4756 3084 4391 3084 
Q 3944 3084 3684 2787 
Q 3425 2491 3425 1978 
L 3425 0 
L 2847 0 
L 2847 2094 
Q 2847 2600 2669 2842 
Q 2491 3084 2119 3084 
Q 1678 3084 1418 2786 
Q 1159 2488 1159 1978 
L 1159 0 
L 581 0 
L 581 3500 
L 1159 3500 
L 1159 2956 
Q 1356 3278 1631 3431 
Q 1906 3584 2284 3584 
Q 2666 3584 2933 3390 
Q 3200 3197 3328 2828 
z
" transform="scale(0.015625)"/>
       <path id="DejaVuSans-65" d="M 3597 1894 
L 3597 1613 
L 953 1613 
Q 991 1019 1311 708 
Q 1631 397 2203 397 
Q 2534 397 2845 478 
Q 3156 559 3463 722 
L 3463 178 
Q 3153 47 2828 -22 
Q 2503 -91 2169 -91 
Q 1331 -91 842 396 
Q 353 884 353 1716 
Q 353 2575 817 3079 
Q 1281 3584 2069 3584 
Q 2775 3584 3186 3129 
Q 3597 2675 3597 1894 
z
M 3022 2063 
Q 3016 2534 2758 2815 
Q 2500 3097 2075 3097 
Q 1594 3097 1305 2825 
Q 1016 2553 972 2059 
L 3022 2063 
z
" transform="scale(0.015625)"/>
      </defs>
      <use xlink:href="#DejaVuSans-54"/>
      <use xlink:href="#DejaVuSans-69" x="57.958984"/>
      <use xlink:href="#DejaVuSans-6d" x="85.742188"/>
      <use xlink:href="#DejaVuSans-65" x="183.154297"/>
     </g>
    </g>
   </g>
   <g id="matplotlib.axis_10">
    <g id="ytick_11">
     <g id="line2d_85">
      <path d="M 100.8 569.745664 
L 987.84 569.745664 
" clip-path="url(#p437310373e)" style="fill: none; stroke-dasharray: 1.85,0.8; stroke-dashoffset: 0; stroke: #b2b2b2; stroke-width: 0.5"/>
     </g>
     <g id="line2d_86">
      <g>
       <use xlink:href="#m2fe69c0f7f" x="100.8" y="569.745664" style="stroke: #000000; stroke-width: 0.8"/>
      </g>
     </g>
     <g id="text_22">
      <!-- 0 V -->
      <g transform="translate(74.36625 575.06457) scale(0.14 -0.14)">
       <use xlink:href="#DejaVuSans-30"/>
       <use xlink:href="#DejaVuSans-20" x="63.623047"/>
       <use xlink:href="#DejaVuSans-56" x="95.410156"/>
      </g>
     </g>
    </g>
    <g id="ytick_12">
     <g id="line2d_87">
      <path d="M 100.8 535.947417 
L 987.84 535.947417 
" clip-path="url(#p437310373e)" style="fill: none; stroke-dasharray: 1.85,0.8; stroke-dashoffset: 0; stroke: #b2b2b2; stroke-width: 0.5"/>
     </g>
     <g id="line2d_88">
      <g>
       <use xlink:href="#m2fe69c0f7f" x="100.8" y="535.947417" style="stroke: #000000; stroke-width: 0.8"/>
      </g>
     </g>
     <g id="text_23">
      <!-- 500 mV -->
      <g transform="translate(42.914375 541.266323) scale(0.14 -0.14)">
       <use xlink:href="#DejaVuSans-35"/>
       <use xlink:href="#DejaVuSans-30" x="63.623047"/>
       <use xlink:href="#DejaVuSans-30" x="127.246094"/>
       <use xlink:href="#DejaVuSans-20" x="190.869141"/>
       <use xlink:href="#DejaVuSans-6d" x="222.65625"/>
       <use xlink:href="#DejaVuSans-56" x="320.068359"/>
      </g>
     </g>
    </g>
    <g id="ytick_13">
     <g id="line2d_89">
      <path d="M 100.8 502.149169 
L 987.84 502.149169 
" clip-path="url(#p437310373e)" style="fill: none; stroke-dasharray: 1.85,0.8; stroke-dashoffset: 0; stroke: #b2b2b2; stroke-width: 0.5"/>
     </g>
     <g id="line2d_90">
      <g>
       <use xlink:href="#m2fe69c0f7f" x="100.8" y="502.149169" style="stroke: #000000; stroke-width: 0.8"/>
      </g>
     </g>
     <g id="text_24">
      <!-- 1 V -->
      <g transform="translate(74.36625 507.468076) scale(0.14 -0.14)">
       <use xlink:href="#DejaVuSans-31"/>
       <use xlink:href="#DejaVuSans-20" x="63.623047"/>
       <use xlink:href="#DejaVuSans-56" x="95.410156"/>
      </g>
     </g>
    </g>
    <g id="text_25">
     <g id="patch_27">
      <path d="M 34.8768 554.329483 
L 34.8768 506.379483 
L 11.247425 506.379483 
L 11.247425 554.329483 
z
" style="fill: #ffff00; opacity: 0.2; stroke: #eeeeee; stroke-width: 0.5; stroke-linejoin: miter"/>
     </g>
     <!-- FOUT -->
     <g transform="translate(26.925238 549.289483) rotate(-90) scale(0.14 -0.14)">
      <use xlink:href="#DejaVuSans-46"/>
      <use xlink:href="#DejaVuSans-4f" x="57.519531"/>
      <use xlink:href="#DejaVuSans-55" x="136.230469"/>
      <use xlink:href="#DejaVuSans-54" x="209.423828"/>
     </g>
    </g>
   </g>
   <g id="line2d_91">
    <path d="M 141.12 488.62987 
L 173.472768 488.63663 
L 173.505024 488.4406 
L 173.569536 526.786064 
L 173.69856 572.504953 
L 173.730816 572.36949 
L 173.827584 567.841741 
L 173.892096 569.360648 
L 174.053376 570.063996 
L 174.117888 569.946459 
L 174.408192 569.491812 
L 174.440448 569.541273 
L 174.66624 569.729732 
L 176.182272 569.739929 
L 180.117504 569.76123 
L 193.568256 569.751938 
L 212.954112 569.743788 
L 255.30624 569.743483 
L 255.6288 488.521716 
L 255.854592 488.663669 
L 256.209408 488.623111 
L 284.788224 488.562274 
L 284.852736 488.204013 
L 284.917248 511.729621 
L 285.014016 569.880891 
L 285.078528 569.742809 
L 311.91552 569.743985 
L 331.4304 569.706643 
L 331.462656 569.102017 
L 331.527168 558.532082 
L 331.75296 488.83942 
L 331.91424 488.63663 
L 332.462592 488.62987 
L 334.914048 488.670428 
L 334.946304 489.474827 
L 335.107584 569.758807 
L 335.13984 569.748788 
L 335.94624 569.743972 
L 416.295936 569.736613 
L 416.360448 568.980134 
L 416.618496 488.710986 
L 416.779776 488.62987 
L 947.52 488.62987 
L 947.52 488.62987 
" clip-path="url(#p437310373e)" style="fill: none; stroke: #ff00ff; stroke-width: 2; stroke-linecap: square"/>
   </g>
   <g id="patch_28">
    <path d="M 100.8 576.72 
L 100.8 483.988966 
" style="fill: none; stroke: #bcbcbc; stroke-width: 0.8; stroke-linejoin: miter; stroke-linecap: square"/>
   </g>
   <g id="patch_29">
    <path d="M 987.84 576.72 
L 987.84 483.988966 
" style="fill: none; stroke: #bcbcbc; stroke-width: 0.8; stroke-linejoin: miter; stroke-linecap: square"/>
   </g>
   <g id="patch_30">
    <path d="M 100.8 576.72 
L 987.84 576.72 
" style="fill: none; stroke: #bcbcbc; stroke-width: 0.8; stroke-linejoin: miter; stroke-linecap: square"/>
   </g>
   <g id="patch_31">
    <path d="M 100.8 483.988966 
L 987.84 483.988966 
" style="fill: none; stroke: #bcbcbc; stroke-width: 0.8; stroke-linejoin: miter; stroke-linecap: square"/>
   </g>
  </g>
  <g id="axes_6">
   <g id="patch_32">
    <path d="M 201.6 628.56 
L 856.8 628.56 
L 856.8 615.6 
L 201.6 615.6 
z
" clip-path="url(#p7304762749)" style="fill: #d3d3d3"/>
   </g>
   <g id="patch_33">
    <path d="M 201.6 628.56 
L 318.6 628.56 
L 318.6 615.6 
L 201.6 615.6 
z
" clip-path="url(#p7304762749)" style="fill: #0000ff"/>
   </g>
   <g id="line2d_92">
    <path d="M 201.6 635.04 
L 201.6 609.12 
" clip-path="url(#pe25f3459ce)" style="fill: none; stroke: #ff0000; stroke-linecap: square"/>
   </g>
   <g id="line2d_93">
    <defs>
     <path id="md33f27bbf4" d="M 0 5 
C 1.326016 5 2.597899 4.473168 3.535534 3.535534 
C 4.473168 2.597899 5 1.326016 5 0 
C 5 -1.326016 4.473168 -2.597899 3.535534 -3.535534 
C 2.597899 -4.473168 1.326016 -5 0 -5 
C -1.326016 -5 -2.597899 -4.473168 -3.535534 -3.535534 
C -4.473168 -2.597899 -5 -1.326016 -5 0 
C -5 1.326016 -4.473168 2.597899 -3.535534 3.535534 
C -2.597899 4.473168 -1.326016 5 0 5 
z
" style="stroke: #bfbfbf"/>
    </defs>
    <g>
     <use xlink:href="#md33f27bbf4" x="318.6" y="622.08" style="fill: #ffffff; stroke: #bfbfbf"/>
    </g>
   </g>
   <g id="text_26">
    <!-- #Sweep -->
    <g transform="translate(138.622875 625.39125) scale(0.12 -0.12)">
     <defs>
      <path id="DejaVuSans-23" d="M 3272 2816 
L 2363 2816 
L 2100 1772 
L 3016 1772 
L 3272 2816 
z
M 2803 4594 
L 2478 3297 
L 3391 3297 
L 3719 4594 
L 4219 4594 
L 3897 3297 
L 4872 3297 
L 4872 2816 
L 3775 2816 
L 3519 1772 
L 4513 1772 
L 4513 1294 
L 3397 1294 
L 3072 0 
L 2572 0 
L 2894 1294 
L 1978 1294 
L 1656 0 
L 1153 0 
L 1478 1294 
L 494 1294 
L 494 1772 
L 1594 1772 
L 1856 2816 
L 850 2816 
L 850 3297 
L 1978 3297 
L 2297 4594 
L 2803 4594 
z
" transform="scale(0.015625)"/>
      <path id="DejaVuSans-77" d="M 269 3500 
L 844 3500 
L 1563 769 
L 2278 3500 
L 2956 3500 
L 3675 769 
L 4391 3500 
L 4966 3500 
L 4050 0 
L 3372 0 
L 2619 2869 
L 1863 0 
L 1184 0 
L 269 3500 
z
" transform="scale(0.015625)"/>
      <path id="DejaVuSans-70" d="M 1159 525 
L 1159 -1331 
L 581 -1331 
L 581 3500 
L 1159 3500 
L 1159 2969 
Q 1341 3281 1617 3432 
Q 1894 3584 2278 3584 
Q 2916 3584 3314 3078 
Q 3713 2572 3713 1747 
Q 3713 922 3314 415 
Q 2916 -91 2278 -91 
Q 1894 -91 1617 61 
Q 1341 213 1159 525 
z
M 3116 1747 
Q 3116 2381 2855 2742 
Q 2594 3103 2138 3103 
Q 1681 3103 1420 2742 
Q 1159 2381 1159 1747 
Q 1159 1113 1420 752 
Q 1681 391 2138 391 
Q 2594 391 2855 752 
Q 3116 1113 3116 1747 
z
" transform="scale(0.015625)"/>
     </defs>
     <use xlink:href="#DejaVuSans-23"/>
     <use xlink:href="#DejaVuSans-53" x="83.789062"/>
     <use xlink:href="#DejaVuSans-77" x="147.265625"/>
     <use xlink:href="#DejaVuSans-65" x="229.052734"/>
     <use xlink:href="#DejaVuSans-65" x="290.576172"/>
     <use xlink:href="#DejaVuSans-70" x="352.099609"/>
    </g>
   </g>
   <g id="text_27">
    <!-- $\mathdefault{25}$ -->
    <g transform="translate(869.904 625.39125) scale(0.12 -0.12)">
     <use xlink:href="#DejaVuSans-32" transform="translate(0 0.78125)"/>
     <use xlink:href="#DejaVuSans-35" transform="translate(63.623047 0.78125)"/>
    </g>
   </g>
  </g>
  <g id="text_28">
   <!-- DFF under BBI sweep analysis (Sweep = 35E-9) -->
   <g transform="translate(313.34625 25.1175) scale(0.16 -0.16)">
    <defs>
     <path id="DejaVuSans-75" d="M 544 1381 
L 544 3500 
L 1119 3500 
L 1119 1403 
Q 1119 906 1312 657 
Q 1506 409 1894 409 
Q 2359 409 2629 706 
Q 2900 1003 2900 1516 
L 2900 3500 
L 3475 3500 
L 3475 0 
L 2900 0 
L 2900 538 
Q 2691 219 2414 64 
Q 2138 -91 1772 -91 
Q 1169 -91 856 284 
Q 544 659 544 1381 
z
M 1991 3584 
L 1991 3584 
z
" transform="scale(0.015625)"/>
     <path id="DejaVuSans-64" d="M 2906 2969 
L 2906 4863 
L 3481 4863 
L 3481 0 
L 2906 0 
L 2906 525 
Q 2725 213 2448 61 
Q 2172 -91 1784 -91 
Q 1150 -91 751 415 
Q 353 922 353 1747 
Q 353 2572 751 3078 
Q 1150 3584 1784 3584 
Q 2172 3584 2448 3432 
Q 2725 3281 2906 2969 
z
M 947 1747 
Q 947 1113 1208 752 
Q 1469 391 1925 391 
Q 2381 391 2643 752 
Q 2906 1113 2906 1747 
Q 2906 2381 2643 2742 
Q 2381 3103 1925 3103 
Q 1469 3103 1208 2742 
Q 947 2381 947 1747 
z
" transform="scale(0.015625)"/>
     <path id="DejaVuSans-72" d="M 2631 2963 
Q 2534 3019 2420 3045 
Q 2306 3072 2169 3072 
Q 1681 3072 1420 2755 
Q 1159 2438 1159 1844 
L 1159 0 
L 581 0 
L 581 3500 
L 1159 3500 
L 1159 2956 
Q 1341 3275 1631 3429 
Q 1922 3584 2338 3584 
Q 2397 3584 2469 3576 
Q 2541 3569 2628 3553 
L 2631 2963 
z
" transform="scale(0.015625)"/>
     <path id="DejaVuSans-61" d="M 2194 1759 
Q 1497 1759 1228 1600 
Q 959 1441 959 1056 
Q 959 750 1161 570 
Q 1363 391 1709 391 
Q 2188 391 2477 730 
Q 2766 1069 2766 1631 
L 2766 1759 
L 2194 1759 
z
M 3341 1997 
L 3341 0 
L 2766 0 
L 2766 531 
Q 2569 213 2275 61 
Q 1981 -91 1556 -91 
Q 1019 -91 701 211 
Q 384 513 384 1019 
Q 384 1609 779 1909 
Q 1175 2209 1959 2209 
L 2766 2209 
L 2766 2266 
Q 2766 2663 2505 2880 
Q 2244 3097 1772 3097 
Q 1472 3097 1187 3025 
Q 903 2953 641 2809 
L 641 3341 
Q 956 3463 1253 3523 
Q 1550 3584 1831 3584 
Q 2591 3584 2966 3190 
Q 3341 2797 3341 1997 
z
" transform="scale(0.015625)"/>
     <path id="DejaVuSans-6c" d="M 603 4863 
L 1178 4863 
L 1178 0 
L 603 0 
L 603 4863 
z
" transform="scale(0.015625)"/>
     <path id="DejaVuSans-79" d="M 2059 -325 
Q 1816 -950 1584 -1140 
Q 1353 -1331 966 -1331 
L 506 -1331 
L 506 -850 
L 844 -850 
Q 1081 -850 1212 -737 
Q 1344 -625 1503 -206 
L 1606 56 
L 191 3500 
L 800 3500 
L 1894 763 
L 2988 3500 
L 3597 3500 
L 2059 -325 
z
" transform="scale(0.015625)"/>
     <path id="DejaVuSans-28" d="M 1984 4856 
Q 1566 4138 1362 3434 
Q 1159 2731 1159 2009 
Q 1159 1288 1364 580 
Q 1569 -128 1984 -844 
L 1484 -844 
Q 1016 -109 783 600 
Q 550 1309 550 2009 
Q 550 2706 781 3412 
Q 1013 4119 1484 4856 
L 1984 4856 
z
" transform="scale(0.015625)"/>
     <path id="DejaVuSans-3d" d="M 678 2906 
L 4684 2906 
L 4684 2381 
L 678 2381 
L 678 2906 
z
M 678 1631 
L 4684 1631 
L 4684 1100 
L 678 1100 
L 678 1631 
z
" transform="scale(0.015625)"/>
     <path id="DejaVuSans-33" d="M 2597 2516 
Q 3050 2419 3304 2112 
Q 3559 1806 3559 1356 
Q 3559 666 3084 287 
Q 2609 -91 1734 -91 
Q 1441 -91 1130 -33 
Q 819 25 488 141 
L 488 750 
Q 750 597 1062 519 
Q 1375 441 1716 441 
Q 2309 441 2620 675 
Q 2931 909 2931 1356 
Q 2931 1769 2642 2001 
Q 2353 2234 1838 2234 
L 1294 2234 
L 1294 2753 
L 1863 2753 
Q 2328 2753 2575 2939 
Q 2822 3125 2822 3475 
Q 2822 3834 2567 4026 
Q 2313 4219 1838 4219 
Q 1578 4219 1281 4162 
Q 984 4106 628 3988 
L 628 4550 
Q 988 4650 1302 4700 
Q 1616 4750 1894 4750 
Q 2613 4750 3031 4423 
Q 3450 4097 3450 3541 
Q 3450 3153 3228 2886 
Q 3006 2619 2597 2516 
z
" transform="scale(0.015625)"/>
     <path id="DejaVuSans-2d" d="M 313 2009 
L 1997 2009 
L 1997 1497 
L 313 1497 
L 313 2009 
z
" transform="scale(0.015625)"/>
     <path id="DejaVuSans-39" d="M 703 97 
L 703 672 
Q 941 559 1184 500 
Q 1428 441 1663 441 
Q 2288 441 2617 861 
Q 2947 1281 2994 2138 
Q 2813 1869 2534 1725 
Q 2256 1581 1919 1581 
Q 1219 1581 811 2004 
Q 403 2428 403 3163 
Q 403 3881 828 4315 
Q 1253 4750 1959 4750 
Q 2769 4750 3195 4129 
Q 3622 3509 3622 2328 
Q 3622 1225 3098 567 
Q 2575 -91 1691 -91 
Q 1453 -91 1209 -44 
Q 966 3 703 97 
z
M 1959 2075 
Q 2384 2075 2632 2365 
Q 2881 2656 2881 3163 
Q 2881 3666 2632 3958 
Q 2384 4250 1959 4250 
Q 1534 4250 1286 3958 
Q 1038 3666 1038 3163 
Q 1038 2656 1286 2365 
Q 1534 2075 1959 2075 
z
" transform="scale(0.015625)"/>
     <path id="DejaVuSans-29" d="M 513 4856 
L 1013 4856 
Q 1481 4119 1714 3412 
Q 1947 2706 1947 2009 
Q 1947 1309 1714 600 
Q 1481 -109 1013 -844 
L 513 -844 
Q 928 -128 1133 580 
Q 1338 1288 1338 2009 
Q 1338 2731 1133 3434 
Q 928 4138 513 4856 
z
" transform="scale(0.015625)"/>
    </defs>
    <use xlink:href="#DejaVuSans-44"/>
    <use xlink:href="#DejaVuSans-46" x="77.001953"/>
    <use xlink:href="#DejaVuSans-46" x="134.521484"/>
    <use xlink:href="#DejaVuSans-20" x="192.041016"/>
    <use xlink:href="#DejaVuSans-75" x="223.828125"/>
    <use xlink:href="#DejaVuSans-6e" x="287.207031"/>
    <use xlink:href="#DejaVuSans-64" x="350.585938"/>
    <use xlink:href="#DejaVuSans-65" x="414.0625"/>
    <use xlink:href="#DejaVuSans-72" x="475.585938"/>
    <use xlink:href="#DejaVuSans-20" x="516.699219"/>
    <use xlink:href="#DejaVuSans-42" x="548.486328"/>
    <use xlink:href="#DejaVuSans-42" x="617.089844"/>
    <use xlink:href="#DejaVuSans-49" x="685.693359"/>
    <use xlink:href="#DejaVuSans-20" x="715.185547"/>
    <use xlink:href="#DejaVuSans-73" x="746.972656"/>
    <use xlink:href="#DejaVuSans-77" x="799.072266"/>
    <use xlink:href="#DejaVuSans-65" x="880.859375"/>
    <use xlink:href="#DejaVuSans-65" x="942.382812"/>
    <use xlink:href="#DejaVuSans-70" x="1003.90625"/>
    <use xlink:href="#DejaVuSans-20" x="1067.382812"/>
    <use xlink:href="#DejaVuSans-61" x="1099.169922"/>
    <use xlink:href="#DejaVuSans-6e" x="1160.449219"/>
    <use xlink:href="#DejaVuSans-61" x="1223.828125"/>
    <use xlink:href="#DejaVuSans-6c" x="1285.107422"/>
    <use xlink:href="#DejaVuSans-79" x="1312.890625"/>
    <use xlink:href="#DejaVuSans-73" x="1372.070312"/>
    <use xlink:href="#DejaVuSans-69" x="1424.169922"/>
    <use xlink:href="#DejaVuSans-73" x="1451.953125"/>
    <use xlink:href="#DejaVuSans-20" x="1504.052734"/>
    <use xlink:href="#DejaVuSans-28" x="1535.839844"/>
    <use xlink:href="#DejaVuSans-53" x="1574.853516"/>
    <use xlink:href="#DejaVuSans-77" x="1638.330078"/>
    <use xlink:href="#DejaVuSans-65" x="1720.117188"/>
    <use xlink:href="#DejaVuSans-65" x="1781.640625"/>
    <use xlink:href="#DejaVuSans-70" x="1843.164062"/>
    <use xlink:href="#DejaVuSans-20" x="1906.640625"/>
    <use xlink:href="#DejaVuSans-3d" x="1938.427734"/>
    <use xlink:href="#DejaVuSans-20" x="2022.216797"/>
    <use xlink:href="#DejaVuSans-33" x="2054.003906"/>
    <use xlink:href="#DejaVuSans-35" x="2117.626953"/>
    <use xlink:href="#DejaVuSans-45" x="2181.25"/>
    <use xlink:href="#DejaVuSans-2d" x="2244.433594"/>
    <use xlink:href="#DejaVuSans-39" x="2280.517578"/>
    <use xlink:href="#DejaVuSans-29" x="2344.140625"/>
   </g>
  </g>
 </g>
 <defs>
  <clipPath id="p4e46c98302">
   <rect x="100.8" y="38.88" width="887.04" height="92.731034"/>
  </clipPath>
  <clipPath id="p5129b92f78">
   <rect x="100.8" y="150.157241" width="887.04" height="92.731034"/>
  </clipPath>
  <clipPath id="p873f0f5c3f">
   <rect x="100.8" y="261.434483" width="887.04" height="92.731034"/>
  </clipPath>
  <clipPath id="pa9f2783055">
   <rect x="100.8" y="372.711724" width="887.04" height="92.731034"/>
  </clipPath>
  <clipPath id="p437310373e">
   <rect x="100.8" y="483.988966" width="887.04" height="92.731034"/>
  </clipPath>
  <clipPath id="p7304762749">
   <rect x="201.6" y="609.12" width="655.2" height="25.92"/>
  </clipPath>
  <clipPath id="pe25f3459ce">
   <path d="M 201.6 628.56 
L 856.8 628.56 
L 856.8 615.6 
L 201.6 615.6 
z
"/>
  </clipPath>
 </defs>
</svg>
