<?xml version="1.0" encoding="utf-8" standalone="no"?>
<!DOCTYPE svg PUBLIC "-//W3C//DTD SVG 1.1//EN"
  "http://www.w3.org/Graphics/SVG/1.1/DTD/svg11.dtd">
<svg xmlns:xlink="http://www.w3.org/1999/xlink" width="1008pt" height="648pt" viewBox="0 0 1008 648" xmlns="http://www.w3.org/2000/svg" version="1.1">
 <metadata>
  <rdf:RDF xmlns:dc="http://purl.org/dc/elements/1.1/" xmlns:cc="http://creativecommons.org/ns#" xmlns:rdf="http://www.w3.org/1999/02/22-rdf-syntax-ns#">
   <cc:Work>
    <dc:type rdf:resource="http://purl.org/dc/dcmitype/StillImage"/>
    <dc:date>2024-06-03T10:45:36.342515</dc:date>
    <dc:format>image/svg+xml</dc:format>
    <dc:creator>
     <cc:Agent>
      <dc:title>Matplotlib v3.9.0, https://matplotlib.org/</dc:title>
     </cc:Agent>
    </dc:creator>
   </cc:Work>
  </rdf:RDF>
 </metadata>
 <defs>
  <style type="text/css">*{stroke-linejoin: round; stroke-linecap: butt}</style>
 </defs>
 <g id="figure_1">
  <g id="patch_1">
   <path d="M 0 648 
L 1008 648 
L 1008 0 
L 0 0 
z
" style="fill: #ffffff"/>
  </g>
  <g id="axes_1">
   <g id="patch_2">
    <path d="M 100.8 131.611034 
L 987.84 131.611034 
L 987.84 38.88 
L 100.8 38.88 
z
" style="fill: #eeeeee"/>
   </g>
   <g id="matplotlib.axis_1">
    <g id="xtick_1">
     <g id="line2d_1">
      <path d="M 141.12 131.611034 
L 141.12 38.88 
" clip-path="url(#pe94082ec66)" style="fill: none; stroke-dasharray: 1.85,0.8; stroke-dashoffset: 0; stroke: #b2b2b2; stroke-width: 0.5"/>
     </g>
     <g id="line2d_2">
      <defs>
       <path id="ma7cf5b34d2" d="M 0 0 
L 0 -3.5 
" style="stroke: #000000; stroke-width: 0.8"/>
      </defs>
      <g>
       <use xlink:href="#ma7cf5b34d2" x="141.12" y="131.611034" style="stroke: #000000; stroke-width: 0.8"/>
      </g>
     </g>
    </g>
    <g id="xtick_2">
     <g id="line2d_3">
      <path d="M 302.4 131.611034 
L 302.4 38.88 
" clip-path="url(#pe94082ec66)" style="fill: none; stroke-dasharray: 1.85,0.8; stroke-dashoffset: 0; stroke: #b2b2b2; stroke-width: 0.5"/>
     </g>
     <g id="line2d_4">
      <g>
       <use xlink:href="#ma7cf5b34d2" x="302.4" y="131.611034" style="stroke: #000000; stroke-width: 0.8"/>
      </g>
     </g>
    </g>
    <g id="xtick_3">
     <g id="line2d_5">
      <path d="M 463.68 131.611034 
L 463.68 38.88 
" clip-path="url(#pe94082ec66)" style="fill: none; stroke-dasharray: 1.85,0.8; stroke-dashoffset: 0; stroke: #b2b2b2; stroke-width: 0.5"/>
     </g>
     <g id="line2d_6">
      <g>
       <use xlink:href="#ma7cf5b34d2" x="463.68" y="131.611034" style="stroke: #000000; stroke-width: 0.8"/>
      </g>
     </g>
    </g>
    <g id="xtick_4">
     <g id="line2d_7">
      <path d="M 624.96 131.611034 
L 624.96 38.88 
" clip-path="url(#pe94082ec66)" style="fill: none; stroke-dasharray: 1.85,0.8; stroke-dashoffset: 0; stroke: #b2b2b2; stroke-width: 0.5"/>
     </g>
     <g id="line2d_8">
      <g>
       <use xlink:href="#ma7cf5b34d2" x="624.96" y="131.611034" style="stroke: #000000; stroke-width: 0.8"/>
      </g>
     </g>
    </g>
    <g id="xtick_5">
     <g id="line2d_9">
      <path d="M 786.24 131.611034 
L 786.24 38.88 
" clip-path="url(#pe94082ec66)" style="fill: none; stroke-dasharray: 1.85,0.8; stroke-dashoffset: 0; stroke: #b2b2b2; stroke-width: 0.5"/>
     </g>
     <g id="line2d_10">
      <g>
       <use xlink:href="#ma7cf5b34d2" x="786.24" y="131.611034" style="stroke: #000000; stroke-width: 0.8"/>
      </g>
     </g>
    </g>
    <g id="xtick_6">
     <g id="line2d_11">
      <path d="M 947.52 131.611034 
L 947.52 38.88 
" clip-path="url(#pe94082ec66)" style="fill: none; stroke-dasharray: 1.85,0.8; stroke-dashoffset: 0; stroke: #b2b2b2; stroke-width: 0.5"/>
     </g>
     <g id="line2d_12">
      <g>
       <use xlink:href="#ma7cf5b34d2" x="947.52" y="131.611034" style="stroke: #000000; stroke-width: 0.8"/>
      </g>
     </g>
    </g>
   </g>
   <g id="matplotlib.axis_2">
    <g id="ytick_1">
     <g id="line2d_13">
      <path d="M 100.8 98.340394 
L 987.84 98.340394 
" clip-path="url(#pe94082ec66)" style="fill: none; stroke-dasharray: 1.85,0.8; stroke-dashoffset: 0; stroke: #b2b2b2; stroke-width: 0.5"/>
     </g>
     <g id="line2d_14">
      <defs>
       <path id="m6b0355ffa7" d="M 0 0 
L 3.5 0 
" style="stroke: #000000; stroke-width: 0.8"/>
      </defs>
      <g>
       <use xlink:href="#m6b0355ffa7" x="100.8" y="98.340394" style="stroke: #000000; stroke-width: 0.8"/>
      </g>
     </g>
     <g id="text_1">
      <!-- −200 V -->
      <g transform="translate(44.819688 103.6593) scale(0.14 -0.14)">
       <defs>
        <path id="DejaVuSans-2212" d="M 678 2272 
L 4684 2272 
L 4684 1741 
L 678 1741 
L 678 2272 
z
" transform="scale(0.015625)"/>
        <path id="DejaVuSans-32" d="M 1228 531 
L 3431 531 
L 3431 0 
L 469 0 
L 469 531 
Q 828 903 1448 1529 
Q 2069 2156 2228 2338 
Q 2531 2678 2651 2914 
Q 2772 3150 2772 3378 
Q 2772 3750 2511 3984 
Q 2250 4219 1831 4219 
Q 1534 4219 1204 4116 
Q 875 4013 500 3803 
L 500 4441 
Q 881 4594 1212 4672 
Q 1544 4750 1819 4750 
Q 2544 4750 2975 4387 
Q 3406 4025 3406 3419 
Q 3406 3131 3298 2873 
Q 3191 2616 2906 2266 
Q 2828 2175 2409 1742 
Q 1991 1309 1228 531 
z
" transform="scale(0.015625)"/>
        <path id="DejaVuSans-30" d="M 2034 4250 
Q 1547 4250 1301 3770 
Q 1056 3291 1056 2328 
Q 1056 1369 1301 889 
Q 1547 409 2034 409 
Q 2525 409 2770 889 
Q 3016 1369 3016 2328 
Q 3016 3291 2770 3770 
Q 2525 4250 2034 4250 
z
M 2034 4750 
Q 2819 4750 3233 4129 
Q 3647 3509 3647 2328 
Q 3647 1150 3233 529 
Q 2819 -91 2034 -91 
Q 1250 -91 836 529 
Q 422 1150 422 2328 
Q 422 3509 836 4129 
Q 1250 4750 2034 4750 
z
" transform="scale(0.015625)"/>
        <path id="DejaVuSans-20" transform="scale(0.015625)"/>
        <path id="DejaVuSans-56" d="M 1831 0 
L 50 4666 
L 709 4666 
L 2188 738 
L 3669 4666 
L 4325 4666 
L 2547 0 
L 1831 0 
z
" transform="scale(0.015625)"/>
       </defs>
       <use xlink:href="#DejaVuSans-2212"/>
       <use xlink:href="#DejaVuSans-32" x="83.789062"/>
       <use xlink:href="#DejaVuSans-30" x="147.412109"/>
       <use xlink:href="#DejaVuSans-30" x="211.035156"/>
       <use xlink:href="#DejaVuSans-20" x="274.658203"/>
       <use xlink:href="#DejaVuSans-56" x="306.445312"/>
      </g>
     </g>
    </g>
    <g id="ytick_2">
     <g id="line2d_15">
      <path d="M 100.8 45.027377 
L 987.84 45.027377 
" clip-path="url(#pe94082ec66)" style="fill: none; stroke-dasharray: 1.85,0.8; stroke-dashoffset: 0; stroke: #b2b2b2; stroke-width: 0.5"/>
     </g>
     <g id="line2d_16">
      <g>
       <use xlink:href="#m6b0355ffa7" x="100.8" y="45.027377" style="stroke: #000000; stroke-width: 0.8"/>
      </g>
     </g>
     <g id="text_2">
      <!-- 0 V -->
      <g transform="translate(74.36625 50.346284) scale(0.14 -0.14)">
       <use xlink:href="#DejaVuSans-30"/>
       <use xlink:href="#DejaVuSans-20" x="63.623047"/>
       <use xlink:href="#DejaVuSans-56" x="95.410156"/>
      </g>
     </g>
    </g>
    <g id="text_3">
     <g id="patch_3">
      <path d="M 34.8768 131.080205 
L 34.8768 39.41083 
L 11.247425 39.41083 
L 11.247425 131.080205 
z
" style="fill: #ffff00; opacity: 0.2; stroke: #eeeeee; stroke-width: 0.5; stroke-linejoin: miter"/>
     </g>
     <!-- VPULSE BBI -->
     <g transform="translate(26.925238 126.040205) rotate(-90) scale(0.14 -0.14)">
      <defs>
       <path id="DejaVuSans-50" d="M 1259 4147 
L 1259 2394 
L 2053 2394 
Q 2494 2394 2734 2622 
Q 2975 2850 2975 3272 
Q 2975 3691 2734 3919 
Q 2494 4147 2053 4147 
L 1259 4147 
z
M 628 4666 
L 2053 4666 
Q 2838 4666 3239 4311 
Q 3641 3956 3641 3272 
Q 3641 2581 3239 2228 
Q 2838 1875 2053 1875 
L 1259 1875 
L 1259 0 
L 628 0 
L 628 4666 
z
" transform="scale(0.015625)"/>
       <path id="DejaVuSans-55" d="M 556 4666 
L 1191 4666 
L 1191 1831 
Q 1191 1081 1462 751 
Q 1734 422 2344 422 
Q 2950 422 3222 751 
Q 3494 1081 3494 1831 
L 3494 4666 
L 4128 4666 
L 4128 1753 
Q 4128 841 3676 375 
Q 3225 -91 2344 -91 
Q 1459 -91 1007 375 
Q 556 841 556 1753 
L 556 4666 
z
" transform="scale(0.015625)"/>
       <path id="DejaVuSans-4c" d="M 628 4666 
L 1259 4666 
L 1259 531 
L 3531 531 
L 3531 0 
L 628 0 
L 628 4666 
z
" transform="scale(0.015625)"/>
       <path id="DejaVuSans-53" d="M 3425 4513 
L 3425 3897 
Q 3066 4069 2747 4153 
Q 2428 4238 2131 4238 
Q 1616 4238 1336 4038 
Q 1056 3838 1056 3469 
Q 1056 3159 1242 3001 
Q 1428 2844 1947 2747 
L 2328 2669 
Q 3034 2534 3370 2195 
Q 3706 1856 3706 1288 
Q 3706 609 3251 259 
Q 2797 -91 1919 -91 
Q 1588 -91 1214 -16 
Q 841 59 441 206 
L 441 856 
Q 825 641 1194 531 
Q 1563 422 1919 422 
Q 2459 422 2753 634 
Q 3047 847 3047 1241 
Q 3047 1584 2836 1778 
Q 2625 1972 2144 2069 
L 1759 2144 
Q 1053 2284 737 2584 
Q 422 2884 422 3419 
Q 422 4038 858 4394 
Q 1294 4750 2059 4750 
Q 2388 4750 2728 4690 
Q 3069 4631 3425 4513 
z
" transform="scale(0.015625)"/>
       <path id="DejaVuSans-45" d="M 628 4666 
L 3578 4666 
L 3578 4134 
L 1259 4134 
L 1259 2753 
L 3481 2753 
L 3481 2222 
L 1259 2222 
L 1259 531 
L 3634 531 
L 3634 0 
L 628 0 
L 628 4666 
z
" transform="scale(0.015625)"/>
       <path id="DejaVuSans-42" d="M 1259 2228 
L 1259 519 
L 2272 519 
Q 2781 519 3026 730 
Q 3272 941 3272 1375 
Q 3272 1813 3026 2020 
Q 2781 2228 2272 2228 
L 1259 2228 
z
M 1259 4147 
L 1259 2741 
L 2194 2741 
Q 2656 2741 2882 2914 
Q 3109 3088 3109 3444 
Q 3109 3797 2882 3972 
Q 2656 4147 2194 4147 
L 1259 4147 
z
M 628 4666 
L 2241 4666 
Q 2963 4666 3353 4366 
Q 3744 4066 3744 3513 
Q 3744 3084 3544 2831 
Q 3344 2578 2956 2516 
Q 3422 2416 3680 2098 
Q 3938 1781 3938 1306 
Q 3938 681 3513 340 
Q 3088 0 2303 0 
L 628 0 
L 628 4666 
z
" transform="scale(0.015625)"/>
       <path id="DejaVuSans-49" d="M 628 4666 
L 1259 4666 
L 1259 0 
L 628 0 
L 628 4666 
z
" transform="scale(0.015625)"/>
      </defs>
      <use xlink:href="#DejaVuSans-56"/>
      <use xlink:href="#DejaVuSans-50" x="68.408203"/>
      <use xlink:href="#DejaVuSans-55" x="128.710938"/>
      <use xlink:href="#DejaVuSans-4c" x="201.904297"/>
      <use xlink:href="#DejaVuSans-53" x="257.617188"/>
      <use xlink:href="#DejaVuSans-45" x="321.09375"/>
      <use xlink:href="#DejaVuSans-20" x="384.277344"/>
      <use xlink:href="#DejaVuSans-42" x="416.064453"/>
      <use xlink:href="#DejaVuSans-42" x="484.667969"/>
      <use xlink:href="#DejaVuSans-49" x="553.271484"/>
     </g>
    </g>
   </g>
   <g id="line2d_17">
    <path d="M 141.12 45.027377 
L 302.432256 45.136282 
L 302.916096 46.425538 
L 311.141376 69.006772 
L 318.560256 89.863624 
L 320.173056 94.440546 
L 321.979392 99.673219 
L 325.430784 110.703682 
L 328.36608 119.593628 
L 329.075712 119.940162 
L 330.236928 120.483955 
L 330.720768 120.713201 
L 331.688448 121.150368 
L 332.269056 121.40627 
L 333.139968 121.790124 
L 333.720576 122.046026 
L 334.559232 122.403223 
L 336.043008 123.016323 
L 336.784896 123.309545 
L 338.139648 123.858669 
L 340.655616 124.802309 
L 341.75232 125.228813 
L 342.39744 125.495378 
L 343.494144 125.921883 
L 344.3328 126.241761 
L 345.332736 126.614952 
L 346.332672 126.969483 
L 346.91328 127.182735 
L 348.20352 127.395987 
L 366.847488 127.289361 
L 367.07328 126.801547 
L 385.362432 75.087922 
L 389.104128 63.292417 
L 392.813568 51.617666 
L 397.426176 49.3412 
L 402.780672 46.984578 
L 411.489792 43.484472 
L 412.360704 43.268927 
L 426.650112 43.108189 
L 433.456128 43.184799 
L 448.809984 43.746186 
L 476.5824 44.46146 
L 502.22592 44.774399 
L 537.836544 44.945888 
L 585.865728 44.953885 
L 947.52 44.953885 
L 947.52 44.953885 
" clip-path="url(#pe94082ec66)" style="fill: none; stroke: #ff0000; stroke-width: 2; stroke-linecap: square"/>
   </g>
   <g id="patch_4">
    <path d="M 100.8 131.611034 
L 100.8 38.88 
" style="fill: none; stroke: #bcbcbc; stroke-width: 0.8; stroke-linejoin: miter; stroke-linecap: square"/>
   </g>
   <g id="patch_5">
    <path d="M 987.84 131.611034 
L 987.84 38.88 
" style="fill: none; stroke: #bcbcbc; stroke-width: 0.8; stroke-linejoin: miter; stroke-linecap: square"/>
   </g>
   <g id="patch_6">
    <path d="M 100.8 131.611034 
L 987.84 131.611034 
" style="fill: none; stroke: #bcbcbc; stroke-width: 0.8; stroke-linejoin: miter; stroke-linecap: square"/>
   </g>
   <g id="patch_7">
    <path d="M 100.8 38.88 
L 987.84 38.88 
" style="fill: none; stroke: #bcbcbc; stroke-width: 0.8; stroke-linejoin: miter; stroke-linecap: square"/>
   </g>
  </g>
  <g id="axes_2">
   <g id="patch_8">
    <path d="M 100.8 242.888276 
L 987.84 242.888276 
L 987.84 150.157241 
L 100.8 150.157241 
z
" style="fill: #eeeeee"/>
   </g>
   <g id="matplotlib.axis_3">
    <g id="xtick_7">
     <g id="line2d_18">
      <path d="M 141.12 242.888276 
L 141.12 150.157241 
" clip-path="url(#p2f937d25fe)" style="fill: none; stroke-dasharray: 1.85,0.8; stroke-dashoffset: 0; stroke: #b2b2b2; stroke-width: 0.5"/>
     </g>
     <g id="line2d_19">
      <g>
       <use xlink:href="#ma7cf5b34d2" x="141.12" y="242.888276" style="stroke: #000000; stroke-width: 0.8"/>
      </g>
     </g>
    </g>
    <g id="xtick_8">
     <g id="line2d_20">
      <path d="M 302.4 242.888276 
L 302.4 150.157241 
" clip-path="url(#p2f937d25fe)" style="fill: none; stroke-dasharray: 1.85,0.8; stroke-dashoffset: 0; stroke: #b2b2b2; stroke-width: 0.5"/>
     </g>
     <g id="line2d_21">
      <g>
       <use xlink:href="#ma7cf5b34d2" x="302.4" y="242.888276" style="stroke: #000000; stroke-width: 0.8"/>
      </g>
     </g>
    </g>
    <g id="xtick_9">
     <g id="line2d_22">
      <path d="M 463.68 242.888276 
L 463.68 150.157241 
" clip-path="url(#p2f937d25fe)" style="fill: none; stroke-dasharray: 1.85,0.8; stroke-dashoffset: 0; stroke: #b2b2b2; stroke-width: 0.5"/>
     </g>
     <g id="line2d_23">
      <g>
       <use xlink:href="#ma7cf5b34d2" x="463.68" y="242.888276" style="stroke: #000000; stroke-width: 0.8"/>
      </g>
     </g>
    </g>
    <g id="xtick_10">
     <g id="line2d_24">
      <path d="M 624.96 242.888276 
L 624.96 150.157241 
" clip-path="url(#p2f937d25fe)" style="fill: none; stroke-dasharray: 1.85,0.8; stroke-dashoffset: 0; stroke: #b2b2b2; stroke-width: 0.5"/>
     </g>
     <g id="line2d_25">
      <g>
       <use xlink:href="#ma7cf5b34d2" x="624.96" y="242.888276" style="stroke: #000000; stroke-width: 0.8"/>
      </g>
     </g>
    </g>
    <g id="xtick_11">
     <g id="line2d_26">
      <path d="M 786.24 242.888276 
L 786.24 150.157241 
" clip-path="url(#p2f937d25fe)" style="fill: none; stroke-dasharray: 1.85,0.8; stroke-dashoffset: 0; stroke: #b2b2b2; stroke-width: 0.5"/>
     </g>
     <g id="line2d_27">
      <g>
       <use xlink:href="#ma7cf5b34d2" x="786.24" y="242.888276" style="stroke: #000000; stroke-width: 0.8"/>
      </g>
     </g>
    </g>
    <g id="xtick_12">
     <g id="line2d_28">
      <path d="M 947.52 242.888276 
L 947.52 150.157241 
" clip-path="url(#p2f937d25fe)" style="fill: none; stroke-dasharray: 1.85,0.8; stroke-dashoffset: 0; stroke: #b2b2b2; stroke-width: 0.5"/>
     </g>
     <g id="line2d_29">
      <g>
       <use xlink:href="#ma7cf5b34d2" x="947.52" y="242.888276" style="stroke: #000000; stroke-width: 0.8"/>
      </g>
     </g>
    </g>
   </g>
   <g id="matplotlib.axis_4">
    <g id="ytick_3">
     <g id="line2d_30">
      <path d="M 100.8 219.160948 
L 987.84 219.160948 
" clip-path="url(#p2f937d25fe)" style="fill: none; stroke-dasharray: 1.85,0.8; stroke-dashoffset: 0; stroke: #b2b2b2; stroke-width: 0.5"/>
     </g>
     <g id="line2d_31">
      <g>
       <use xlink:href="#m6b0355ffa7" x="100.8" y="219.160948" style="stroke: #000000; stroke-width: 0.8"/>
      </g>
     </g>
     <g id="text_4">
      <!-- 0 V -->
      <g transform="translate(74.36625 224.479854) scale(0.14 -0.14)">
       <use xlink:href="#DejaVuSans-30"/>
       <use xlink:href="#DejaVuSans-20" x="63.623047"/>
       <use xlink:href="#DejaVuSans-56" x="95.410156"/>
      </g>
     </g>
    </g>
    <g id="ytick_4">
     <g id="line2d_32">
      <path d="M 100.8 185.222415 
L 987.84 185.222415 
" clip-path="url(#p2f937d25fe)" style="fill: none; stroke-dasharray: 1.85,0.8; stroke-dashoffset: 0; stroke: #b2b2b2; stroke-width: 0.5"/>
     </g>
     <g id="line2d_33">
      <g>
       <use xlink:href="#m6b0355ffa7" x="100.8" y="185.222415" style="stroke: #000000; stroke-width: 0.8"/>
      </g>
     </g>
     <g id="text_5">
      <!-- 1 V -->
      <g transform="translate(74.36625 190.541321) scale(0.14 -0.14)">
       <defs>
        <path id="DejaVuSans-31" d="M 794 531 
L 1825 531 
L 1825 4091 
L 703 3866 
L 703 4441 
L 1819 4666 
L 2450 4666 
L 2450 531 
L 3481 531 
L 3481 0 
L 794 0 
L 794 531 
z
" transform="scale(0.015625)"/>
       </defs>
       <use xlink:href="#DejaVuSans-31"/>
       <use xlink:href="#DejaVuSans-20" x="63.623047"/>
       <use xlink:href="#DejaVuSans-56" x="95.410156"/>
      </g>
     </g>
    </g>
    <g id="ytick_5">
     <g id="line2d_34">
      <path d="M 100.8 151.283882 
L 987.84 151.283882 
" clip-path="url(#p2f937d25fe)" style="fill: none; stroke-dasharray: 1.85,0.8; stroke-dashoffset: 0; stroke: #b2b2b2; stroke-width: 0.5"/>
     </g>
     <g id="line2d_35">
      <g>
       <use xlink:href="#m6b0355ffa7" x="100.8" y="151.283882" style="stroke: #000000; stroke-width: 0.8"/>
      </g>
     </g>
     <g id="text_6">
      <!-- 2 V -->
      <g transform="translate(74.36625 156.602788) scale(0.14 -0.14)">
       <use xlink:href="#DejaVuSans-32"/>
       <use xlink:href="#DejaVuSans-20" x="63.623047"/>
       <use xlink:href="#DejaVuSans-56" x="95.410156"/>
      </g>
     </g>
    </g>
    <g id="text_7">
     <g id="patch_9">
      <path d="M 34.8768 224.531509 
L 34.8768 168.514009 
L 11.247425 168.514009 
L 11.247425 224.531509 
z
" style="fill: #ffff00; opacity: 0.2; stroke: #eeeeee; stroke-width: 0.5; stroke-linejoin: miter"/>
     </g>
     <!-- DFF IN -->
     <g transform="translate(26.925238 219.491509) rotate(-90) scale(0.14 -0.14)">
      <defs>
       <path id="DejaVuSans-44" d="M 1259 4147 
L 1259 519 
L 2022 519 
Q 2988 519 3436 956 
Q 3884 1394 3884 2338 
Q 3884 3275 3436 3711 
Q 2988 4147 2022 4147 
L 1259 4147 
z
M 628 4666 
L 1925 4666 
Q 3281 4666 3915 4102 
Q 4550 3538 4550 2338 
Q 4550 1131 3912 565 
Q 3275 0 1925 0 
L 628 0 
L 628 4666 
z
" transform="scale(0.015625)"/>
       <path id="DejaVuSans-46" d="M 628 4666 
L 3309 4666 
L 3309 4134 
L 1259 4134 
L 1259 2759 
L 3109 2759 
L 3109 2228 
L 1259 2228 
L 1259 0 
L 628 0 
L 628 4666 
z
" transform="scale(0.015625)"/>
       <path id="DejaVuSans-4e" d="M 628 4666 
L 1478 4666 
L 3547 763 
L 3547 4666 
L 4159 4666 
L 4159 0 
L 3309 0 
L 1241 3903 
L 1241 0 
L 628 0 
L 628 4666 
z
" transform="scale(0.015625)"/>
      </defs>
      <use xlink:href="#DejaVuSans-44"/>
      <use xlink:href="#DejaVuSans-46" x="77.001953"/>
      <use xlink:href="#DejaVuSans-46" x="134.521484"/>
      <use xlink:href="#DejaVuSans-20" x="192.041016"/>
      <use xlink:href="#DejaVuSans-49" x="223.828125"/>
      <use xlink:href="#DejaVuSans-4e" x="253.320312"/>
     </g>
    </g>
   </g>
   <g id="line2d_36">
    <path d="M 141.12 219.111384 
L 221.953536 219.064844 
L 224.437248 200.154691 
L 225.404928 194.402109 
L 228.243456 181.753897 
L 229.598208 180.484596 
L 231.178752 179.612375 
L 236.533248 179.157599 
L 243.5328 179.048996 
L 244.952064 179.00827 
L 248.145408 178.899666 
L 249.790464 178.835183 
L 251.887104 178.72658 
L 254.241792 178.380407 
L 254.757888 177.844178 
L 255.499776 177.504793 
L 256.338432 177.518368 
L 259.789824 178.132655 
L 262.467072 178.305742 
L 263.886336 178.353256 
L 264.144384 183.586578 
L 264.434688 187.147409 
L 265.176576 191.890997 
L 267.144192 209.205419 
L 268.402176 215.706345 
L 269.047296 216.988067 
L 270.46656 218.748798 
L 273.724416 219.162781 
L 282.40128 219.11789 
L 295.981056 219.113023 
L 302.432256 219.141134 
L 303.238656 219.965631 
L 304.528896 220.9976 
L 305.30304 221.371127 
L 306.367488 221.681767 
L 307.948032 221.8818 
L 310.722048 222.145197 
L 311.689728 222.665441 
L 313.238016 223.417858 
L 315.46368 224.614192 
L 316.850688 225.492521 
L 317.624832 225.722963 
L 318.269952 225.656783 
L 318.85056 225.331991 
L 319.463424 224.673584 
L 319.97952 224.175027 
L 320.173056 224.235098 
L 320.431104 224.570411 
L 321.463296 226.241205 
L 321.527808 226.359311 
L 321.947136 227.128697 
L 322.624512 228.74485 
L 323.237376 229.716171 
L 323.85024 230.997011 
L 324.269568 231.684606 
L 324.753408 232.874491 
L 325.237248 233.651005 
L 325.30176 233.733136 
L 326.75328 236.273096 
L 326.91456 236.457382 
L 328.237056 238.673229 
L 328.269312 238.647436 
L 328.753152 238.240173 
L 329.043456 237.860401 
L 329.398272 237.376098 
L 330.107904 236.143111 
L 331.075584 235.070993 
L 331.623936 234.147525 
L 331.849728 234.043334 
L 332.043264 233.895023 
L 332.914176 233.215573 
L 333.623808 232.425484 
L 334.043136 231.753162 
L 334.301184 231.618426 
L 334.430208 231.576003 
L 334.688256 231.329948 
L 335.720448 230.652875 
L 336.204288 230.128524 
L 336.655872 229.377804 
L 336.978432 229.173155 
L 337.0752 229.1925 
L 337.107456 229.160597 
L 337.23648 229.094757 
L 337.55904 228.939997 
L 337.8816 228.763177 
L 339.236352 227.409708 
L 339.558912 226.886716 
L 339.913728 226.711932 
L 340.075008 226.707181 
L 342.107136 225.317398 
L 342.300672 225.061841 
L 342.752256 224.386125 
L 343.107072 224.298563 
L 343.655424 224.110883 
L 344.3328 223.60452 
L 348.04224 220.547575 
L 349.65504 218.319408 
L 353.04192 213.739607 
L 355.493376 210.814105 
L 355.912704 210.398358 
L 356.235264 210.069154 
L 356.719104 209.479981 
L 357.331968 207.762692 
L 358.68672 203.786453 
L 359.751168 201.361545 
L 360.912384 199.466417 
L 361.557504 198.639675 
L 362.299392 197.692111 
L 363.20256 196.478129 
L 364.65408 194.699072 
L 365.266944 194.074942 
L 366.331392 193.0819 
L 366.944256 192.322695 
L 367.428096 190.775098 
L 368.782848 186.006056 
L 369.686016 183.776633 
L 370.653696 182.083101 
L 371.331072 181.329665 
L 373.105152 179.704009 
L 375.363072 177.00929 
L 375.846912 176.999108 
L 376.363008 176.663117 
L 377.169408 175.936832 
L 378.588672 174.284026 
L 379.459584 172.811093 
L 380.588544 170.689935 
L 381.846528 168.54502 
L 386.039808 162.989282 
L 386.58816 162.252816 
L 390.200832 157.498027 
L 392.781312 154.385864 
L 394.942464 154.728643 
L 397.329408 155.088391 
L 400.716288 155.913098 
L 412.199424 159.653124 
L 414.070272 160.559283 
L 415.360512 161.132844 
L 415.45728 160.932607 
L 415.812096 160.311532 
L 416.1024 160.101113 
L 416.392704 160.084144 
L 416.9088 160.348864 
L 418.134528 161.482411 
L 419.97312 162.894254 
L 423.714816 164.74051 
L 426.5856 165.829937 
L 427.424256 166.118415 
L 439.036416 169.668385 
L 441.391104 170.275885 
L 442.100736 170.455759 
L 443.100672 170.669572 
L 454.32576 172.919697 
L 455.712768 173.170842 
L 456.390144 174.155059 
L 456.90624 174.446931 
L 458.19648 174.474082 
L 460.93824 173.998942 
L 461.680128 174.043062 
L 481.195008 175.98774 
L 481.74336 176.028466 
L 482.259456 176.079374 
L 482.969088 176.109919 
L 486.001152 176.320338 
L 486.646272 176.361064 
L 488.388096 176.469667 
L 490.646016 176.598634 
L 491.291136 176.635966 
L 491.74272 176.666511 
L 493.774848 176.775114 
L 494.548992 176.798871 
L 495.032832 176.842991 
L 495.742464 176.873536 
L 496.065024 176.809053 
L 496.774656 176.150645 
L 497.290752 175.991134 
L 498.226176 176.099737 
L 500.7744 176.792083 
L 506.90304 177.328312 
L 507.644928 177.358857 
L 510.483456 177.464066 
L 511.09632 177.484429 
L 515.386368 177.593033 
L 515.708928 177.610002 
L 520.063488 177.718605 
L 521.321472 177.742362 
L 526.74048 177.850966 
L 527.86944 177.861147 
L 535.12704 177.96975 
L 535.707648 177.979932 
L 536.41728 178.068172 
L 536.933376 178.648521 
L 537.643008 178.974331 
L 538.546176 179.055784 
L 539.417088 178.855546 
L 540.77184 178.539918 
L 544.707072 178.234471 
L 550.28736 178.125868 
L 551.448576 178.112292 
L 576.705024 178.024052 
L 577.188864 177.491217 
L 577.898496 177.165407 
L 578.9952 177.155226 
L 582.962688 177.878116 
L 584.64 177.945993 
L 616.960512 178.054597 
L 617.121792 178.234471 
L 617.637888 178.753731 
L 618.02496 178.936999 
L 618.637824 179.076147 
L 620.992512 178.970937 
L 623.314944 178.594219 
L 628.66944 178.139443 
L 657.312768 178.068172 
L 657.86112 177.453885 
L 658.409472 177.178983 
L 660.344832 177.287586 
L 663.602688 177.861147 
L 665.699328 177.973144 
L 697.632768 178.068172 
L 698.568192 178.90306 
L 699.503616 179.082934 
L 701.600256 178.974331 
L 703.309824 178.685853 
L 704.664576 178.512767 
L 709.212672 178.142837 
L 737.952768 178.068172 
L 738.50112 177.453885 
L 739.049472 177.178983 
L 740.984832 177.287586 
L 744.242688 177.861147 
L 746.339328 177.973144 
L 778.272768 178.068172 
L 779.208192 178.90306 
L 780.143616 179.082934 
L 781.433856 179.113479 
L 784.207872 178.641733 
L 790.046208 178.136049 
L 818.592768 178.068172 
L 819.14112 177.453885 
L 819.689472 177.178983 
L 821.624832 177.287586 
L 824.882688 177.861147 
L 826.979328 177.973144 
L 858.912768 178.068172 
L 859.848192 178.90306 
L 860.783616 179.082934 
L 862.073856 179.113479 
L 864.847872 178.641733 
L 870.686208 178.136049 
L 899.232768 178.068172 
L 899.78112 177.453885 
L 900.329472 177.178983 
L 902.264832 177.287586 
L 905.522688 177.861147 
L 907.619328 177.973144 
L 939.552768 178.068172 
L 940.617216 178.933605 
L 941.55264 179.120267 
L 943.455744 179.011663 
L 944.810496 178.760518 
L 947.03616 178.404164 
L 947.52 178.329499 
L 947.52 178.329499 
" clip-path="url(#p2f937d25fe)" style="fill: none; stroke: #008000; stroke-width: 2; stroke-linecap: square"/>
   </g>
   <g id="patch_10">
    <path d="M 100.8 242.888276 
L 100.8 150.157241 
" style="fill: none; stroke: #bcbcbc; stroke-width: 0.8; stroke-linejoin: miter; stroke-linecap: square"/>
   </g>
   <g id="patch_11">
    <path d="M 987.84 242.888276 
L 987.84 150.157241 
" style="fill: none; stroke: #bcbcbc; stroke-width: 0.8; stroke-linejoin: miter; stroke-linecap: square"/>
   </g>
   <g id="patch_12">
    <path d="M 100.8 242.888276 
L 987.84 242.888276 
" style="fill: none; stroke: #bcbcbc; stroke-width: 0.8; stroke-linejoin: miter; stroke-linecap: square"/>
   </g>
   <g id="patch_13">
    <path d="M 100.8 150.157241 
L 987.84 150.157241 
" style="fill: none; stroke: #bcbcbc; stroke-width: 0.8; stroke-linejoin: miter; stroke-linecap: square"/>
   </g>
  </g>
  <g id="axes_3">
   <g id="patch_14">
    <path d="M 100.8 354.165517 
L 987.84 354.165517 
L 987.84 261.434483 
L 100.8 261.434483 
z
" style="fill: #eeeeee"/>
   </g>
   <g id="matplotlib.axis_5">
    <g id="xtick_13">
     <g id="line2d_37">
      <path d="M 141.12 354.165517 
L 141.12 261.434483 
" clip-path="url(#p27559a3922)" style="fill: none; stroke-dasharray: 1.85,0.8; stroke-dashoffset: 0; stroke: #b2b2b2; stroke-width: 0.5"/>
     </g>
     <g id="line2d_38">
      <g>
       <use xlink:href="#ma7cf5b34d2" x="141.12" y="354.165517" style="stroke: #000000; stroke-width: 0.8"/>
      </g>
     </g>
    </g>
    <g id="xtick_14">
     <g id="line2d_39">
      <path d="M 302.4 354.165517 
L 302.4 261.434483 
" clip-path="url(#p27559a3922)" style="fill: none; stroke-dasharray: 1.85,0.8; stroke-dashoffset: 0; stroke: #b2b2b2; stroke-width: 0.5"/>
     </g>
     <g id="line2d_40">
      <g>
       <use xlink:href="#ma7cf5b34d2" x="302.4" y="354.165517" style="stroke: #000000; stroke-width: 0.8"/>
      </g>
     </g>
    </g>
    <g id="xtick_15">
     <g id="line2d_41">
      <path d="M 463.68 354.165517 
L 463.68 261.434483 
" clip-path="url(#p27559a3922)" style="fill: none; stroke-dasharray: 1.85,0.8; stroke-dashoffset: 0; stroke: #b2b2b2; stroke-width: 0.5"/>
     </g>
     <g id="line2d_42">
      <g>
       <use xlink:href="#ma7cf5b34d2" x="463.68" y="354.165517" style="stroke: #000000; stroke-width: 0.8"/>
      </g>
     </g>
    </g>
    <g id="xtick_16">
     <g id="line2d_43">
      <path d="M 624.96 354.165517 
L 624.96 261.434483 
" clip-path="url(#p27559a3922)" style="fill: none; stroke-dasharray: 1.85,0.8; stroke-dashoffset: 0; stroke: #b2b2b2; stroke-width: 0.5"/>
     </g>
     <g id="line2d_44">
      <g>
       <use xlink:href="#ma7cf5b34d2" x="624.96" y="354.165517" style="stroke: #000000; stroke-width: 0.8"/>
      </g>
     </g>
    </g>
    <g id="xtick_17">
     <g id="line2d_45">
      <path d="M 786.24 354.165517 
L 786.24 261.434483 
" clip-path="url(#p27559a3922)" style="fill: none; stroke-dasharray: 1.85,0.8; stroke-dashoffset: 0; stroke: #b2b2b2; stroke-width: 0.5"/>
     </g>
     <g id="line2d_46">
      <g>
       <use xlink:href="#ma7cf5b34d2" x="786.24" y="354.165517" style="stroke: #000000; stroke-width: 0.8"/>
      </g>
     </g>
    </g>
    <g id="xtick_18">
     <g id="line2d_47">
      <path d="M 947.52 354.165517 
L 947.52 261.434483 
" clip-path="url(#p27559a3922)" style="fill: none; stroke-dasharray: 1.85,0.8; stroke-dashoffset: 0; stroke: #b2b2b2; stroke-width: 0.5"/>
     </g>
     <g id="line2d_48">
      <g>
       <use xlink:href="#ma7cf5b34d2" x="947.52" y="354.165517" style="stroke: #000000; stroke-width: 0.8"/>
      </g>
     </g>
    </g>
   </g>
   <g id="matplotlib.axis_6">
    <g id="ytick_6">
     <g id="line2d_49">
      <path d="M 100.8 344.159375 
L 987.84 344.159375 
" clip-path="url(#p27559a3922)" style="fill: none; stroke-dasharray: 1.85,0.8; stroke-dashoffset: 0; stroke: #b2b2b2; stroke-width: 0.5"/>
     </g>
     <g id="line2d_50">
      <g>
       <use xlink:href="#m6b0355ffa7" x="100.8" y="344.159375" style="stroke: #000000; stroke-width: 0.8"/>
      </g>
     </g>
     <g id="text_8">
      <!-- 0 V -->
      <g transform="translate(74.36625 349.478281) scale(0.14 -0.14)">
       <use xlink:href="#DejaVuSans-30"/>
       <use xlink:href="#DejaVuSans-20" x="63.623047"/>
       <use xlink:href="#DejaVuSans-56" x="95.410156"/>
      </g>
     </g>
    </g>
    <g id="ytick_7">
     <g id="line2d_51">
      <path d="M 100.8 298.445013 
L 987.84 298.445013 
" clip-path="url(#p27559a3922)" style="fill: none; stroke-dasharray: 1.85,0.8; stroke-dashoffset: 0; stroke: #b2b2b2; stroke-width: 0.5"/>
     </g>
     <g id="line2d_52">
      <g>
       <use xlink:href="#m6b0355ffa7" x="100.8" y="298.445013" style="stroke: #000000; stroke-width: 0.8"/>
      </g>
     </g>
     <g id="text_9">
      <!-- 1 V -->
      <g transform="translate(74.36625 303.763919) scale(0.14 -0.14)">
       <use xlink:href="#DejaVuSans-31"/>
       <use xlink:href="#DejaVuSans-20" x="63.623047"/>
       <use xlink:href="#DejaVuSans-56" x="95.410156"/>
      </g>
     </g>
    </g>
    <g id="text_10">
     <g id="patch_15">
      <path d="M 34.8768 342.395313 
L 34.8768 273.204688 
L 11.247425 273.204688 
L 11.247425 342.395313 
z
" style="fill: #ffff00; opacity: 0.2; stroke: #eeeeee; stroke-width: 0.5; stroke-linejoin: miter"/>
     </g>
     <!-- CLK BUF -->
     <g transform="translate(26.925238 337.355313) rotate(-90) scale(0.14 -0.14)">
      <defs>
       <path id="DejaVuSans-43" d="M 4122 4306 
L 4122 3641 
Q 3803 3938 3442 4084 
Q 3081 4231 2675 4231 
Q 1875 4231 1450 3742 
Q 1025 3253 1025 2328 
Q 1025 1406 1450 917 
Q 1875 428 2675 428 
Q 3081 428 3442 575 
Q 3803 722 4122 1019 
L 4122 359 
Q 3791 134 3420 21 
Q 3050 -91 2638 -91 
Q 1578 -91 968 557 
Q 359 1206 359 2328 
Q 359 3453 968 4101 
Q 1578 4750 2638 4750 
Q 3056 4750 3426 4639 
Q 3797 4528 4122 4306 
z
" transform="scale(0.015625)"/>
       <path id="DejaVuSans-4b" d="M 628 4666 
L 1259 4666 
L 1259 2694 
L 3353 4666 
L 4166 4666 
L 1850 2491 
L 4331 0 
L 3500 0 
L 1259 2247 
L 1259 0 
L 628 0 
L 628 4666 
z
" transform="scale(0.015625)"/>
      </defs>
      <use xlink:href="#DejaVuSans-43"/>
      <use xlink:href="#DejaVuSans-4c" x="69.824219"/>
      <use xlink:href="#DejaVuSans-4b" x="125.537109"/>
      <use xlink:href="#DejaVuSans-20" x="191.113281"/>
      <use xlink:href="#DejaVuSans-42" x="222.900391"/>
      <use xlink:href="#DejaVuSans-55" x="291.503906"/>
      <use xlink:href="#DejaVuSans-46" x="364.697266"/>
     </g>
    </g>
   </g>
   <g id="line2d_53">
    <path d="M 141.12 344.158166 
L 173.376 344.158166 
L 173.601792 289.302141 
L 213.696 289.302141 
L 213.760512 333.059471 
L 213.825024 344.13849 
L 213.889536 344.072705 
L 213.954048 344.255329 
L 214.01856 344.164329 
L 215.276544 344.155649 
L 222.953472 344.15818 
L 254.016 344.158135 
L 254.17728 289.132997 
L 254.241792 289.425569 
L 254.403072 289.292998 
L 254.8224 289.302141 
L 294.336 289.302141 
L 294.368256 294.915864 
L 294.49728 344.13504 
L 294.723072 344.157898 
L 302.464512 344.244038 
L 303.109632 344.908862 
L 303.85152 345.339171 
L 304.754688 345.604726 
L 306.10944 345.750052 
L 308.593152 345.749869 
L 320.753664 345.514211 
L 321.721344 345.830006 
L 322.656768 346.385481 
L 326.527488 348.899954 
L 326.785536 349.07184 
L 328.301568 349.905213 
L 328.946688 349.54727 
L 329.043456 349.506127 
L 329.366016 349.358012 
L 332.107776 348.287199 
L 332.140032 348.310696 
L 332.172288 348.24217 
L 332.39808 348.176204 
L 332.623872 348.105576 
L 334.656 347.39778 
L 334.688256 349.12944 
L 334.881792 323.278883 
L 335.010816 323.090083 
L 335.494656 322.899911 
L 336.139776 322.667225 
L 336.2688 322.564825 
L 336.43008 322.551567 
L 342.23616 320.434078 
L 342.268416 320.491221 
L 342.300672 320.37785 
L 342.332928 320.379678 
L 342.590976 320.301049 
L 347.945472 318.217846 
L 349.590528 317.206644 
L 350.332416 316.720701 
L 354.945024 313.522524 
L 360.751104 309.868118 
L 364.81536 307.634971 
L 366.976512 306.439541 
L 368.36352 303.674279 
L 370.427904 298.903985 
L 374.621184 289.256426 
L 374.976 288.492996 
L 375.008256 293.233576 
L 375.072768 344.42503 
L 375.13728 342.150549 
L 375.169536 342.336332 
L 375.266304 342.273383 
L 376.395264 342.328103 
L 386.846208 342.663464 
L 388.394496 342.624058 
L 392.684544 342.77135 
L 392.974848 343.100082 
L 393.619968 343.6839 
L 394.426368 344.098936 
L 395.45856 344.365355 
L 396.813312 344.51026 
L 399.81312 344.575307 
L 415.296 344.684953 
L 415.360512 291.36843 
L 415.392768 265.64953 
L 415.489536 266.120388 
L 415.586304 266.106673 
L 415.61856 266.134102 
L 416.295936 266.577531 
L 417.005568 266.998103 
L 424.9728 271.391254 
L 427.585536 272.62097 
L 428.908032 273.247257 
L 437.907456 276.963834 
L 438.165504 277.068977 
L 440.004096 277.740978 
L 440.2944 277.846122 
L 441.487872 278.243836 
L 441.842688 278.34898 
L 443.03616 278.746694 
L 443.294208 278.847266 
L 443.713536 278.975266 
L 444.068352 279.075838 
L 444.48768 279.203838 
L 444.842496 279.30441 
L 445.358592 279.478124 
L 445.713408 279.578696 
L 446.132736 279.706696 
L 446.487552 279.807268 
L 446.90688 279.935268 
L 447.261696 280.035839 
L 447.616512 280.118125 
L 453.003264 281.535271 
L 453.454848 281.635842 
L 453.809664 281.718128 
L 455.616 282.156986 
L 455.648256 291.075858 
L 455.712768 344.809662 
L 455.77728 344.320911 
L 463.550976 344.310273 
L 495.936 344.21329 
L 496.065024 287.13528 
L 496.161792 287.340994 
L 496.7424 287.363852 
L 496.968192 287.382137 
L 499.032576 287.48728 
L 499.387392 287.51928 
L 501.548544 287.624424 
L 501.90336 287.656424 
L 504.258048 287.761567 
L 504.612864 287.793567 
L 507.161088 287.89871 
L 507.515904 287.93071 
L 510.4512 288.035853 
L 510.806016 288.067853 
L 514.031616 288.172996 
L 514.386432 288.204996 
L 518.095872 288.310139 
L 518.450688 288.342139 
L 522.837504 288.447282 
L 523.19232 288.479282 
L 528.35328 288.584425 
L 528.708096 288.616425 
L 535.12704 288.721568 
L 535.481856 288.753568 
L 536.256 288.753568 
L 536.288256 293.823291 
L 536.41728 344.097135 
L 536.546304 344.173253 
L 576.576 344.17125 
L 576.73728 288.753568 
L 576.801792 288.863283 
L 577.70496 288.844997 
L 616.896 288.844997 
L 617.025024 344.508532 
L 617.186304 344.242671 
L 617.444352 344.140703 
L 617.799168 344.190466 
L 618.121728 344.171018 
L 653.66784 344.171255 
L 657.216 344.171258 
L 657.37728 288.607282 
L 657.441792 289.123855 
L 657.53856 288.657568 
L 657.603072 288.826711 
L 658.054656 288.844997 
L 697.536 288.844997 
L 697.665024 344.508633 
L 697.826304 344.24258 
L 698.084352 344.140733 
L 698.439168 344.190466 
L 698.761728 344.171019 
L 734.46912 344.171255 
L 737.856 344.171258 
L 738.01728 288.607282 
L 738.081792 289.123855 
L 738.17856 288.652997 
L 738.243072 288.826711 
L 738.694656 288.844997 
L 778.176 288.844997 
L 778.305024 344.50845 
L 778.466304 344.242625 
L 778.724352 344.140723 
L 779.079168 344.190453 
L 779.401728 344.171018 
L 815.2704 344.171255 
L 818.496 344.171258 
L 818.65728 288.607282 
L 818.721792 289.123855 
L 818.81856 288.652997 
L 818.883072 288.826711 
L 819.334656 288.844997 
L 858.816 288.844997 
L 858.945024 344.508633 
L 859.106304 344.24258 
L 859.364352 344.140733 
L 859.719168 344.190466 
L 860.041728 344.171019 
L 895.74912 344.171255 
L 899.136 344.171258 
L 899.29728 288.607282 
L 899.361792 289.123855 
L 899.45856 288.652997 
L 899.523072 288.826711 
L 899.974656 288.844997 
L 939.456 288.844997 
L 939.488256 297.087296 
L 939.61728 344.116889 
L 939.649536 344.249821 
L 939.714048 344.122637 
L 939.746304 344.082524 
L 939.810816 344.141527 
L 940.004352 344.198616 
L 940.197888 344.1705 
L 945.326592 344.171265 
L 947.52 344.171247 
L 947.52 344.171247 
" clip-path="url(#p27559a3922)" style="fill: none; stroke: #0000ff; stroke-width: 2; stroke-linecap: square"/>
   </g>
   <g id="patch_16">
    <path d="M 100.8 354.165517 
L 100.8 261.434483 
" style="fill: none; stroke: #bcbcbc; stroke-width: 0.8; stroke-linejoin: miter; stroke-linecap: square"/>
   </g>
   <g id="patch_17">
    <path d="M 987.84 354.165517 
L 987.84 261.434483 
" style="fill: none; stroke: #bcbcbc; stroke-width: 0.8; stroke-linejoin: miter; stroke-linecap: square"/>
   </g>
   <g id="patch_18">
    <path d="M 100.8 354.165517 
L 987.84 354.165517 
" style="fill: none; stroke: #bcbcbc; stroke-width: 0.8; stroke-linejoin: miter; stroke-linecap: square"/>
   </g>
   <g id="patch_19">
    <path d="M 100.8 261.434483 
L 987.84 261.434483 
" style="fill: none; stroke: #bcbcbc; stroke-width: 0.8; stroke-linejoin: miter; stroke-linecap: square"/>
   </g>
  </g>
  <g id="axes_4">
   <g id="patch_20">
    <path d="M 100.8 465.442759 
L 987.84 465.442759 
L 987.84 372.711724 
L 100.8 372.711724 
z
" style="fill: #eeeeee"/>
   </g>
   <g id="matplotlib.axis_7">
    <g id="xtick_19">
     <g id="line2d_54">
      <path d="M 141.12 465.442759 
L 141.12 372.711724 
" clip-path="url(#pfb554abfa8)" style="fill: none; stroke-dasharray: 1.85,0.8; stroke-dashoffset: 0; stroke: #b2b2b2; stroke-width: 0.5"/>
     </g>
     <g id="line2d_55">
      <g>
       <use xlink:href="#ma7cf5b34d2" x="141.12" y="465.442759" style="stroke: #000000; stroke-width: 0.8"/>
      </g>
     </g>
    </g>
    <g id="xtick_20">
     <g id="line2d_56">
      <path d="M 302.4 465.442759 
L 302.4 372.711724 
" clip-path="url(#pfb554abfa8)" style="fill: none; stroke-dasharray: 1.85,0.8; stroke-dashoffset: 0; stroke: #b2b2b2; stroke-width: 0.5"/>
     </g>
     <g id="line2d_57">
      <g>
       <use xlink:href="#ma7cf5b34d2" x="302.4" y="465.442759" style="stroke: #000000; stroke-width: 0.8"/>
      </g>
     </g>
    </g>
    <g id="xtick_21">
     <g id="line2d_58">
      <path d="M 463.68 465.442759 
L 463.68 372.711724 
" clip-path="url(#pfb554abfa8)" style="fill: none; stroke-dasharray: 1.85,0.8; stroke-dashoffset: 0; stroke: #b2b2b2; stroke-width: 0.5"/>
     </g>
     <g id="line2d_59">
      <g>
       <use xlink:href="#ma7cf5b34d2" x="463.68" y="465.442759" style="stroke: #000000; stroke-width: 0.8"/>
      </g>
     </g>
    </g>
    <g id="xtick_22">
     <g id="line2d_60">
      <path d="M 624.96 465.442759 
L 624.96 372.711724 
" clip-path="url(#pfb554abfa8)" style="fill: none; stroke-dasharray: 1.85,0.8; stroke-dashoffset: 0; stroke: #b2b2b2; stroke-width: 0.5"/>
     </g>
     <g id="line2d_61">
      <g>
       <use xlink:href="#ma7cf5b34d2" x="624.96" y="465.442759" style="stroke: #000000; stroke-width: 0.8"/>
      </g>
     </g>
    </g>
    <g id="xtick_23">
     <g id="line2d_62">
      <path d="M 786.24 465.442759 
L 786.24 372.711724 
" clip-path="url(#pfb554abfa8)" style="fill: none; stroke-dasharray: 1.85,0.8; stroke-dashoffset: 0; stroke: #b2b2b2; stroke-width: 0.5"/>
     </g>
     <g id="line2d_63">
      <g>
       <use xlink:href="#ma7cf5b34d2" x="786.24" y="465.442759" style="stroke: #000000; stroke-width: 0.8"/>
      </g>
     </g>
    </g>
    <g id="xtick_24">
     <g id="line2d_64">
      <path d="M 947.52 465.442759 
L 947.52 372.711724 
" clip-path="url(#pfb554abfa8)" style="fill: none; stroke-dasharray: 1.85,0.8; stroke-dashoffset: 0; stroke: #b2b2b2; stroke-width: 0.5"/>
     </g>
     <g id="line2d_65">
      <g>
       <use xlink:href="#ma7cf5b34d2" x="947.52" y="465.442759" style="stroke: #000000; stroke-width: 0.8"/>
      </g>
     </g>
    </g>
   </g>
   <g id="matplotlib.axis_8">
    <g id="ytick_8">
     <g id="line2d_66">
      <path d="M 100.8 439.972442 
L 987.84 439.972442 
" clip-path="url(#pfb554abfa8)" style="fill: none; stroke-dasharray: 1.85,0.8; stroke-dashoffset: 0; stroke: #b2b2b2; stroke-width: 0.5"/>
     </g>
     <g id="line2d_67">
      <g>
       <use xlink:href="#m6b0355ffa7" x="100.8" y="439.972442" style="stroke: #000000; stroke-width: 0.8"/>
      </g>
     </g>
     <g id="text_11">
      <!-- 0 V -->
      <g transform="translate(74.36625 445.291348) scale(0.14 -0.14)">
       <use xlink:href="#DejaVuSans-30"/>
       <use xlink:href="#DejaVuSans-20" x="63.623047"/>
       <use xlink:href="#DejaVuSans-56" x="95.410156"/>
      </g>
     </g>
    </g>
    <g id="ytick_9">
     <g id="line2d_68">
      <path d="M 100.8 402.775161 
L 987.84 402.775161 
" clip-path="url(#pfb554abfa8)" style="fill: none; stroke-dasharray: 1.85,0.8; stroke-dashoffset: 0; stroke: #b2b2b2; stroke-width: 0.5"/>
     </g>
     <g id="line2d_69">
      <g>
       <use xlink:href="#m6b0355ffa7" x="100.8" y="402.775161" style="stroke: #000000; stroke-width: 0.8"/>
      </g>
     </g>
     <g id="text_12">
      <!-- 1 V -->
      <g transform="translate(74.36625 408.094068) scale(0.14 -0.14)">
       <use xlink:href="#DejaVuSans-31"/>
       <use xlink:href="#DejaVuSans-20" x="63.623047"/>
       <use xlink:href="#DejaVuSans-56" x="95.410156"/>
      </g>
     </g>
    </g>
    <g id="text_13">
     <g id="patch_21">
      <path d="M 34.8768 454.693023 
L 34.8768 383.46146 
L 11.247425 383.46146 
L 11.247425 454.693023 
z
" style="fill: #ffff00; opacity: 0.2; stroke: #eeeeee; stroke-width: 0.5; stroke-linejoin: miter"/>
     </g>
     <!-- DFF OUT -->
     <g transform="translate(26.925238 449.653023) rotate(-90) scale(0.14 -0.14)">
      <defs>
       <path id="DejaVuSans-4f" d="M 2522 4238 
Q 1834 4238 1429 3725 
Q 1025 3213 1025 2328 
Q 1025 1447 1429 934 
Q 1834 422 2522 422 
Q 3209 422 3611 934 
Q 4013 1447 4013 2328 
Q 4013 3213 3611 3725 
Q 3209 4238 2522 4238 
z
M 2522 4750 
Q 3503 4750 4090 4092 
Q 4678 3434 4678 2328 
Q 4678 1225 4090 567 
Q 3503 -91 2522 -91 
Q 1538 -91 948 565 
Q 359 1222 359 2328 
Q 359 3434 948 4092 
Q 1538 4750 2522 4750 
z
" transform="scale(0.015625)"/>
       <path id="DejaVuSans-54" d="M -19 4666 
L 3928 4666 
L 3928 4134 
L 2272 4134 
L 2272 0 
L 1638 0 
L 1638 4134 
L -19 4134 
L -19 4666 
z
" transform="scale(0.015625)"/>
      </defs>
      <use xlink:href="#DejaVuSans-44"/>
      <use xlink:href="#DejaVuSans-46" x="77.001953"/>
      <use xlink:href="#DejaVuSans-46" x="134.521484"/>
      <use xlink:href="#DejaVuSans-20" x="192.041016"/>
      <use xlink:href="#DejaVuSans-4f" x="223.828125"/>
      <use xlink:href="#DejaVuSans-55" x="302.539062"/>
      <use xlink:href="#DejaVuSans-54" x="375.732422"/>
     </g>
    </g>
   </g>
   <g id="line2d_70">
    <path d="M 141.12 411.905978 
L 173.408256 411.951358 
L 173.440512 413.491326 
L 173.601792 439.974712 
L 174.150144 439.970722 
L 185.084928 439.971451 
L 254.048256 439.973008 
L 254.080512 440.121707 
L 254.112768 439.87574 
L 254.306304 436.244158 
L 254.596608 435.516207 
L 254.693376 434.996933 
L 255.14496 428.47997 
L 255.370752 413.162874 
L 255.596544 395.696519 
L 255.757824 395.391501 
L 255.983616 395.331985 
L 256.983552 395.335705 
L 295.78752 395.279909 
L 295.852032 395.175757 
L 295.884288 395.313387 
L 296.11008 397.656816 
L 296.43264 397.388995 
L 296.948736 396.786399 
L 297.658368 395.774633 
L 298.142208 395.517972 
L 298.85184 395.387781 
L 300.174336 395.346864 
L 302.496768 395.428698 
L 304.109568 397.444791 
L 305.883648 400.100677 
L 310.399488 407.069587 
L 310.980096 408.388603 
L 312.141312 412.425996 
L 313.560576 418.618599 
L 313.592832 418.677743 
L 313.625088 418.166652 
L 313.657344 418.989828 
L 315.14112 425.623591 
L 315.850752 429.5944 
L 316.237824 431.288737 
L 317.7216 436.768565 
L 317.818368 436.484155 
L 317.850624 436.520385 
L 317.915136 436.691232 
L 318.04416 437.892444 
L 318.495744 439.516626 
L 318.528 439.001667 
L 318.592512 439.27291 
L 318.657024 439.5613 
L 318.818304 440.780367 
L 319.205376 442.143312 
L 319.237632 441.722127 
L 319.302144 441.852504 
L 319.398912 442.377283 
L 319.560192 443.351517 
L 320.011776 444.625077 
L 320.076288 444.34461 
L 320.1408 444.474057 
L 320.269824 445.256687 
L 320.30208 444.871323 
L 320.366592 445.017509 
L 320.882688 446.642658 
L 321.26976 447.382884 
L 321.302016 447.193922 
L 321.366528 447.222192 
L 321.43104 447.596396 
L 321.495552 447.449839 
L 321.527808 447.866077 
L 321.59232 447.604952 
L 321.785856 447.994035 
L 321.91488 448.56055 
L 321.947136 448.377539 
L 321.979392 448.501406 
L 322.205184 449.306727 
L 322.624512 450.220292 
L 322.689024 450.118744 
L 322.72128 450.179375 
L 323.011584 450.997344 
L 323.269632 451.668754 
L 325.204992 455.495983 
L 325.269504 455.570749 
L 325.430784 455.881346 
L 325.592064 456.278613 
L 325.753344 456.724981 
L 328.2048 461.227712 
L 328.269312 461.112028 
L 328.591872 460.875081 
L 328.817664 460.447685 
L 330.849792 457.099929 
L 330.882048 457.161305 
L 330.914304 457.024791 
L 331.26912 456.531183 
L 331.301376 456.695967 
L 331.333632 456.46274 
L 331.946496 455.777566 
L 331.978752 455.847125 
L 332.011008 455.697964 
L 332.043264 455.759711 
L 332.462592 455.359097 
L 332.656128 455.170878 
L 332.978688 454.633378 
L 333.010944 454.782167 
L 333.0432 454.550428 
L 333.268992 454.293767 
L 333.333504 454.451483 
L 333.398016 454.155021 
L 333.430272 454.253222 
L 333.462528 454.319061 
L 333.494784 454.252478 
L 333.881856 453.652113 
L 334.17216 453.356767 
L 334.204416 453.543869 
L 334.268928 453.274561 
L 334.301184 453.460547 
L 334.462464 453.118333 
L 334.49472 453.220253 
L 334.526976 453.061421 
L 335.268864 452.509041 
L 335.559168 452.204023 
L 335.655936 452.034404 
L 335.817216 451.681402 
L 335.849472 451.919836 
L 335.881728 451.642716 
L 335.913984 451.857717 
L 335.978496 451.57167 
L 336.043008 451.638997 
L 336.204288 451.280043 
L 338.171904 449.695067 
L 338.397696 449.484902 
L 338.52672 449.032211 
L 338.623488 448.939218 
L 338.655744 449.230101 
L 338.720256 448.846225 
L 338.784768 448.75472 
L 338.817024 449.090983 
L 338.881536 448.631225 
L 338.913792 448.66805 
L 338.946048 448.976043 
L 338.978304 448.566501 
L 339.01056 448.835438 
L 339.17184 448.427383 
L 339.881472 447.905878 
L 339.913728 448.071406 
L 339.97824 448.01561 
L 340.13952 447.81586 
L 340.333056 447.683438 
L 341.042688 447.069683 
L 341.462016 446.528834 
L 341.59104 446.157605 
L 341.720064 446.044154 
L 341.75232 446.408687 
L 341.816832 445.948929 
L 341.849088 446.322389 
L 342.010368 445.80014 
L 342.07488 445.703055 
L 342.107136 446.109249 
L 342.171648 445.63238 
L 342.300672 445.579188 
L 342.816768 445.288677 
L 343.5264 444.909265 
L 344.268288 444.310388 
L 344.526336 443.639387 
L 344.687616 443.464857 
L 344.719872 443.76396 
L 344.784384 443.499599 
L 344.945664 443.224377 
L 345.074688 443.100584 
L 345.235968 443.4534 
L 345.364992 443.029314 
L 345.397248 443.254097 
L 345.429504 443.117286 
L 345.558528 442.753534 
L 345.590784 442.744383 
L 345.62304 443.074844 
L 345.687552 443.062159 
L 345.752064 442.826105 
L 345.78432 442.975638 
L 346.042368 442.741221 
L 346.139136 442.582761 
L 346.171392 442.593213 
L 346.26816 442.544113 
L 347.5584 441.37649 
L 347.784192 440.582365 
L 347.816448 440.998082 
L 347.88096 440.846727 
L 348.009984 440.389795 
L 348.04224 440.407352 
L 348.074496 440.072175 
L 348.139008 440.114665 
L 348.171264 440.431419 
L 348.235776 440.052963 
L 348.3648 439.974943 
L 348.52608 439.95528 
L 349.364736 438.375562 
L 349.429248 438.469486 
L 349.590528 437.618709 
L 349.719552 437.508196 
L 349.784064 437.786841 
L 349.81632 437.450392 
L 349.9776 437.536652 
L 350.977536 435.799279 
L 351.009792 435.188127 
L 351.10656 435.330593 
L 351.203328 434.983914 
L 351.171072 435.362583 
L 351.26784 435.023715 
L 351.396864 434.991726 
L 354.299904 430.187697 
L 354.816 429.397255 
L 354.945024 428.850827 
L 354.97728 429.061735 
L 355.009536 428.967626 
L 355.13856 428.673024 
L 355.203072 428.754486 
L 355.235328 428.697202 
L 355.396608 428.408551 
L 355.525632 428.352383 
L 356.493312 426.601879 
L 356.654592 425.845287 
L 356.719104 425.883228 
L 356.880384 425.541385 
L 357.041664 425.172016 
L 358.009344 422.909305 
L 358.235136 422.607635 
L 358.267392 421.980117 
L 358.36416 422.034425 
L 358.493184 422.144901 
L 358.52544 422.094685 
L 359.33184 420.635435 
L 359.880192 419.864708 
L 359.912448 419.400486 
L 360.009216 419.548531 
L 360.105984 419.461489 
L 360.428544 418.876748 
L 361.460736 417.379186 
L 361.492992 417.413035 
L 361.525248 417.334549 
L 361.847808 416.972619 
L 362.138112 416.560473 
L 362.170368 416.734929 
L 362.363904 417.458044 
L 362.492928 420.412996 
L 362.88 439.45008 
L 363.976704 439.517593 
L 366.944256 439.550253 
L 367.653888 438.968413 
L 368.492544 438.610352 
L 369.589248 438.403907 
L 371.331072 438.332674 
L 375.846912 438.463683 
L 386.620416 438.775545 
L 388.555776 438.730759 
L 392.684544 438.854663 
L 393.007104 439.152056 
L 393.68448 439.633016 
L 394.523136 439.963466 
L 395.748864 440.188755 
L 397.974528 440.305421 
L 404.748288 440.307589 
L 415.328256 440.41137 
L 415.360512 440.583705 
L 415.425024 436.516703 
L 415.586304 430.978511 
L 415.844352 428.541717 
L 415.973376 425.004628 
L 416.134656 413.362623 
L 416.521728 376.926771 
L 416.553984 376.930491 
L 417.328128 377.339661 
L 418.295808 377.786028 
L 418.973184 378.120804 
L 420.037632 378.600649 
L 420.715008 378.935424 
L 424.198656 380.423316 
L 426.26304 381.252815 
L 427.811328 381.847971 
L 439.617024 385.816921 
L 439.97184 385.924793 
L 440.649216 386.11078 
L 441.26208 386.274448 
L 442.745856 386.672459 
L 443.165184 386.780331 
L 443.778048 386.943999 
L 445.036032 387.267615 
L 445.487616 387.375487 
L 446.58432 387.639588 
L 447.035904 387.74746 
L 448.132608 387.985523 
L 449.1648 388.231025 
L 450.390528 388.480246 
L 451.196928 388.643914 
L 454.745088 389.350663 
L 455.261184 389.458535 
L 457.035264 389.767272 
L 457.422336 389.834227 
L 457.970688 389.9421 
L 460.164096 390.302913 
L 460.744704 390.392187 
L 461.454336 390.500059 
L 465.583104 391.080336 
L 465.93792 391.136132 
L 466.679808 391.244004 
L 478.646784 392.512432 
L 479.549952 392.620304 
L 482.485248 392.847207 
L 483.807744 392.955079 
L 486.09792 393.107588 
L 487.291392 393.21546 
L 489.226752 393.330772 
L 489.871872 393.367969 
L 491.452416 393.475841 
L 493.065216 393.550236 
L 494.613504 393.646949 
L 494.903808 393.661828 
L 495.968256 393.717624 
L 496.000512 393.89617 
L 496.065024 393.702745 
L 496.226304 393.732502 
L 498.290688 393.832935 
L 498.580992 393.847814 
L 500.193792 393.922209 
L 502.451712 394.018921 
L 502.742016 394.0338 
L 505.161216 394.130513 
L 505.45152 394.145392 
L 508.290048 394.253264 
L 508.773888 394.260704 
L 509.451264 394.294181 
L 512.805888 394.390894 
L 513.096192 394.405773 
L 516.805632 394.513645 
L 517.805568 394.517365 
L 521.25696 394.625237 
L 522.256896 394.628957 
L 526.482432 394.736829 
L 527.482368 394.740549 
L 532.772352 394.848421 
L 533.772288 394.852141 
L 540.675072 394.948853 
L 540.965376 394.963732 
L 576.608256 394.978611 
L 576.640512 395.105082 
L 576.705024 394.933975 
L 576.995328 394.956293 
L 657.248256 394.960013 
L 657.280512 395.149719 
L 657.345024 394.960013 
L 657.53856 394.941414 
L 658.699776 394.963732 
L 737.888256 394.960013 
L 737.920512 395.149719 
L 737.985024 394.960013 
L 738.17856 394.941414 
L 739.339776 394.963732 
L 818.528256 394.960013 
L 818.560512 395.149719 
L 818.625024 394.960013 
L 818.81856 394.941414 
L 819.979776 394.963732 
L 899.168256 394.960013 
L 899.200512 395.149719 
L 899.265024 394.960013 
L 899.45856 394.941414 
L 900.619776 394.963732 
L 947.52 394.963732 
L 947.52 394.963732 
" clip-path="url(#pfb554abfa8)" style="fill: none; stroke: #ff00ff; stroke-width: 2; stroke-linecap: square"/>
   </g>
   <g id="patch_22">
    <path d="M 100.8 465.442759 
L 100.8 372.711724 
" style="fill: none; stroke: #bcbcbc; stroke-width: 0.8; stroke-linejoin: miter; stroke-linecap: square"/>
   </g>
   <g id="patch_23">
    <path d="M 987.84 465.442759 
L 987.84 372.711724 
" style="fill: none; stroke: #bcbcbc; stroke-width: 0.8; stroke-linejoin: miter; stroke-linecap: square"/>
   </g>
   <g id="patch_24">
    <path d="M 100.8 465.442759 
L 987.84 465.442759 
" style="fill: none; stroke: #bcbcbc; stroke-width: 0.8; stroke-linejoin: miter; stroke-linecap: square"/>
   </g>
   <g id="patch_25">
    <path d="M 100.8 372.711724 
L 987.84 372.711724 
" style="fill: none; stroke: #bcbcbc; stroke-width: 0.8; stroke-linejoin: miter; stroke-linecap: square"/>
   </g>
  </g>
  <g id="axes_5">
   <g id="patch_26">
    <path d="M 100.8 576.72 
L 987.84 576.72 
L 987.84 483.988966 
L 100.8 483.988966 
z
" style="fill: #eeeeee"/>
   </g>
   <g id="matplotlib.axis_9">
    <g id="xtick_25">
     <g id="line2d_71">
      <path d="M 141.12 576.72 
L 141.12 483.988966 
" clip-path="url(#pe9ccc9ea54)" style="fill: none; stroke-dasharray: 1.85,0.8; stroke-dashoffset: 0; stroke: #b2b2b2; stroke-width: 0.5"/>
     </g>
     <g id="line2d_72">
      <g>
       <use xlink:href="#ma7cf5b34d2" x="141.12" y="576.72" style="stroke: #000000; stroke-width: 0.8"/>
      </g>
     </g>
     <g id="text_14">
      <!-- 0 s -->
      <g transform="translate(130.795 590.857813) scale(0.14 -0.14)">
       <defs>
        <path id="DejaVuSans-73" d="M 2834 3397 
L 2834 2853 
Q 2591 2978 2328 3040 
Q 2066 3103 1784 3103 
Q 1356 3103 1142 2972 
Q 928 2841 928 2578 
Q 928 2378 1081 2264 
Q 1234 2150 1697 2047 
L 1894 2003 
Q 2506 1872 2764 1633 
Q 3022 1394 3022 966 
Q 3022 478 2636 193 
Q 2250 -91 1575 -91 
Q 1294 -91 989 -36 
Q 684 19 347 128 
L 347 722 
Q 666 556 975 473 
Q 1284 391 1588 391 
Q 1994 391 2212 530 
Q 2431 669 2431 922 
Q 2431 1156 2273 1281 
Q 2116 1406 1581 1522 
L 1381 1569 
Q 847 1681 609 1914 
Q 372 2147 372 2553 
Q 372 3047 722 3315 
Q 1072 3584 1716 3584 
Q 2034 3584 2315 3537 
Q 2597 3491 2834 3397 
z
" transform="scale(0.015625)"/>
       </defs>
       <use xlink:href="#DejaVuSans-30"/>
       <use xlink:href="#DejaVuSans-20" x="63.623047"/>
       <use xlink:href="#DejaVuSans-73" x="95.410156"/>
      </g>
     </g>
    </g>
    <g id="xtick_26">
     <g id="line2d_73">
      <path d="M 302.4 576.72 
L 302.4 483.988966 
" clip-path="url(#pe9ccc9ea54)" style="fill: none; stroke-dasharray: 1.85,0.8; stroke-dashoffset: 0; stroke: #b2b2b2; stroke-width: 0.5"/>
     </g>
     <g id="line2d_74">
      <g>
       <use xlink:href="#ma7cf5b34d2" x="302.4" y="576.72" style="stroke: #000000; stroke-width: 0.8"/>
      </g>
     </g>
     <g id="text_15">
      <!-- 50 ns -->
      <g transform="translate(283.185 590.857813) scale(0.14 -0.14)">
       <defs>
        <path id="DejaVuSans-35" d="M 691 4666 
L 3169 4666 
L 3169 4134 
L 1269 4134 
L 1269 2991 
Q 1406 3038 1543 3061 
Q 1681 3084 1819 3084 
Q 2600 3084 3056 2656 
Q 3513 2228 3513 1497 
Q 3513 744 3044 326 
Q 2575 -91 1722 -91 
Q 1428 -91 1123 -41 
Q 819 9 494 109 
L 494 744 
Q 775 591 1075 516 
Q 1375 441 1709 441 
Q 2250 441 2565 725 
Q 2881 1009 2881 1497 
Q 2881 1984 2565 2268 
Q 2250 2553 1709 2553 
Q 1456 2553 1204 2497 
Q 953 2441 691 2322 
L 691 4666 
z
" transform="scale(0.015625)"/>
        <path id="DejaVuSans-6e" d="M 3513 2113 
L 3513 0 
L 2938 0 
L 2938 2094 
Q 2938 2591 2744 2837 
Q 2550 3084 2163 3084 
Q 1697 3084 1428 2787 
Q 1159 2491 1159 1978 
L 1159 0 
L 581 0 
L 581 3500 
L 1159 3500 
L 1159 2956 
Q 1366 3272 1645 3428 
Q 1925 3584 2291 3584 
Q 2894 3584 3203 3211 
Q 3513 2838 3513 2113 
z
" transform="scale(0.015625)"/>
       </defs>
       <use xlink:href="#DejaVuSans-35"/>
       <use xlink:href="#DejaVuSans-30" x="63.623047"/>
       <use xlink:href="#DejaVuSans-20" x="127.246094"/>
       <use xlink:href="#DejaVuSans-6e" x="159.033203"/>
       <use xlink:href="#DejaVuSans-73" x="222.412109"/>
      </g>
     </g>
    </g>
    <g id="xtick_27">
     <g id="line2d_75">
      <path d="M 463.68 576.72 
L 463.68 483.988966 
" clip-path="url(#pe9ccc9ea54)" style="fill: none; stroke-dasharray: 1.85,0.8; stroke-dashoffset: 0; stroke: #b2b2b2; stroke-width: 0.5"/>
     </g>
     <g id="line2d_76">
      <g>
       <use xlink:href="#ma7cf5b34d2" x="463.68" y="576.72" style="stroke: #000000; stroke-width: 0.8"/>
      </g>
     </g>
     <g id="text_16">
      <!-- 100 ns -->
      <g transform="translate(440.01125 590.857813) scale(0.14 -0.14)">
       <use xlink:href="#DejaVuSans-31"/>
       <use xlink:href="#DejaVuSans-30" x="63.623047"/>
       <use xlink:href="#DejaVuSans-30" x="127.246094"/>
       <use xlink:href="#DejaVuSans-20" x="190.869141"/>
       <use xlink:href="#DejaVuSans-6e" x="222.65625"/>
       <use xlink:href="#DejaVuSans-73" x="286.035156"/>
      </g>
     </g>
    </g>
    <g id="xtick_28">
     <g id="line2d_77">
      <path d="M 624.96 576.72 
L 624.96 483.988966 
" clip-path="url(#pe9ccc9ea54)" style="fill: none; stroke-dasharray: 1.85,0.8; stroke-dashoffset: 0; stroke: #b2b2b2; stroke-width: 0.5"/>
     </g>
     <g id="line2d_78">
      <g>
       <use xlink:href="#ma7cf5b34d2" x="624.96" y="576.72" style="stroke: #000000; stroke-width: 0.8"/>
      </g>
     </g>
     <g id="text_17">
      <!-- 150 ns -->
      <g transform="translate(601.29125 590.857813) scale(0.14 -0.14)">
       <use xlink:href="#DejaVuSans-31"/>
       <use xlink:href="#DejaVuSans-35" x="63.623047"/>
       <use xlink:href="#DejaVuSans-30" x="127.246094"/>
       <use xlink:href="#DejaVuSans-20" x="190.869141"/>
       <use xlink:href="#DejaVuSans-6e" x="222.65625"/>
       <use xlink:href="#DejaVuSans-73" x="286.035156"/>
      </g>
     </g>
    </g>
    <g id="xtick_29">
     <g id="line2d_79">
      <path d="M 786.24 576.72 
L 786.24 483.988966 
" clip-path="url(#pe9ccc9ea54)" style="fill: none; stroke-dasharray: 1.85,0.8; stroke-dashoffset: 0; stroke: #b2b2b2; stroke-width: 0.5"/>
     </g>
     <g id="line2d_80">
      <g>
       <use xlink:href="#ma7cf5b34d2" x="786.24" y="576.72" style="stroke: #000000; stroke-width: 0.8"/>
      </g>
     </g>
     <g id="text_18">
      <!-- 200 ns -->
      <g transform="translate(762.57125 590.857813) scale(0.14 -0.14)">
       <use xlink:href="#DejaVuSans-32"/>
       <use xlink:href="#DejaVuSans-30" x="63.623047"/>
       <use xlink:href="#DejaVuSans-30" x="127.246094"/>
       <use xlink:href="#DejaVuSans-20" x="190.869141"/>
       <use xlink:href="#DejaVuSans-6e" x="222.65625"/>
       <use xlink:href="#DejaVuSans-73" x="286.035156"/>
      </g>
     </g>
    </g>
    <g id="xtick_30">
     <g id="line2d_81">
      <path d="M 947.52 576.72 
L 947.52 483.988966 
" clip-path="url(#pe9ccc9ea54)" style="fill: none; stroke-dasharray: 1.85,0.8; stroke-dashoffset: 0; stroke: #b2b2b2; stroke-width: 0.5"/>
     </g>
     <g id="line2d_82">
      <g>
       <use xlink:href="#ma7cf5b34d2" x="947.52" y="576.72" style="stroke: #000000; stroke-width: 0.8"/>
      </g>
     </g>
     <g id="text_19">
      <!-- 250 ns -->
      <g transform="translate(923.85125 590.857813) scale(0.14 -0.14)">
       <use xlink:href="#DejaVuSans-32"/>
       <use xlink:href="#DejaVuSans-35" x="63.623047"/>
       <use xlink:href="#DejaVuSans-30" x="127.246094"/>
       <use xlink:href="#DejaVuSans-20" x="190.869141"/>
       <use xlink:href="#DejaVuSans-6e" x="222.65625"/>
       <use xlink:href="#DejaVuSans-73" x="286.035156"/>
      </g>
     </g>
    </g>
    <g id="text_20">
     <!-- Time -->
     <g transform="translate(527.192969 608.407187) scale(0.14 -0.14)">
      <defs>
       <path id="DejaVuSans-69" d="M 603 3500 
L 1178 3500 
L 1178 0 
L 603 0 
L 603 3500 
z
M 603 4863 
L 1178 4863 
L 1178 4134 
L 603 4134 
L 603 4863 
z
" transform="scale(0.015625)"/>
       <path id="DejaVuSans-6d" d="M 3328 2828 
Q 3544 3216 3844 3400 
Q 4144 3584 4550 3584 
Q 5097 3584 5394 3201 
Q 5691 2819 5691 2113 
L 5691 0 
L 5113 0 
L 5113 2094 
Q 5113 2597 4934 2840 
Q 4756 3084 4391 3084 
Q 3944 3084 3684 2787 
Q 3425 2491 3425 1978 
L 3425 0 
L 2847 0 
L 2847 2094 
Q 2847 2600 2669 2842 
Q 2491 3084 2119 3084 
Q 1678 3084 1418 2786 
Q 1159 2488 1159 1978 
L 1159 0 
L 581 0 
L 581 3500 
L 1159 3500 
L 1159 2956 
Q 1356 3278 1631 3431 
Q 1906 3584 2284 3584 
Q 2666 3584 2933 3390 
Q 3200 3197 3328 2828 
z
" transform="scale(0.015625)"/>
       <path id="DejaVuSans-65" d="M 3597 1894 
L 3597 1613 
L 953 1613 
Q 991 1019 1311 708 
Q 1631 397 2203 397 
Q 2534 397 2845 478 
Q 3156 559 3463 722 
L 3463 178 
Q 3153 47 2828 -22 
Q 2503 -91 2169 -91 
Q 1331 -91 842 396 
Q 353 884 353 1716 
Q 353 2575 817 3079 
Q 1281 3584 2069 3584 
Q 2775 3584 3186 3129 
Q 3597 2675 3597 1894 
z
M 3022 2063 
Q 3016 2534 2758 2815 
Q 2500 3097 2075 3097 
Q 1594 3097 1305 2825 
Q 1016 2553 972 2059 
L 3022 2063 
z
" transform="scale(0.015625)"/>
      </defs>
      <use xlink:href="#DejaVuSans-54"/>
      <use xlink:href="#DejaVuSans-69" x="57.958984"/>
      <use xlink:href="#DejaVuSans-6d" x="85.742188"/>
      <use xlink:href="#DejaVuSans-65" x="183.154297"/>
     </g>
    </g>
   </g>
   <g id="matplotlib.axis_10">
    <g id="ytick_10">
     <g id="line2d_83">
      <path d="M 100.8 569.742119 
L 987.84 569.742119 
" clip-path="url(#pe9ccc9ea54)" style="fill: none; stroke-dasharray: 1.85,0.8; stroke-dashoffset: 0; stroke: #b2b2b2; stroke-width: 0.5"/>
     </g>
     <g id="line2d_84">
      <g>
       <use xlink:href="#m6b0355ffa7" x="100.8" y="569.742119" style="stroke: #000000; stroke-width: 0.8"/>
      </g>
     </g>
     <g id="text_21">
      <!-- 0 V -->
      <g transform="translate(74.36625 575.061026) scale(0.14 -0.14)">
       <use xlink:href="#DejaVuSans-30"/>
       <use xlink:href="#DejaVuSans-20" x="63.623047"/>
       <use xlink:href="#DejaVuSans-56" x="95.410156"/>
      </g>
     </g>
    </g>
    <g id="ytick_11">
     <g id="line2d_85">
      <path d="M 100.8 535.900455 
L 987.84 535.900455 
" clip-path="url(#pe9ccc9ea54)" style="fill: none; stroke-dasharray: 1.85,0.8; stroke-dashoffset: 0; stroke: #b2b2b2; stroke-width: 0.5"/>
     </g>
     <g id="line2d_86">
      <g>
       <use xlink:href="#m6b0355ffa7" x="100.8" y="535.900455" style="stroke: #000000; stroke-width: 0.8"/>
      </g>
     </g>
     <g id="text_22">
      <!-- 500 mV -->
      <g transform="translate(42.914375 541.219361) scale(0.14 -0.14)">
       <use xlink:href="#DejaVuSans-35"/>
       <use xlink:href="#DejaVuSans-30" x="63.623047"/>
       <use xlink:href="#DejaVuSans-30" x="127.246094"/>
       <use xlink:href="#DejaVuSans-20" x="190.869141"/>
       <use xlink:href="#DejaVuSans-6d" x="222.65625"/>
       <use xlink:href="#DejaVuSans-56" x="320.068359"/>
      </g>
     </g>
    </g>
    <g id="ytick_12">
     <g id="line2d_87">
      <path d="M 100.8 502.05879 
L 987.84 502.05879 
" clip-path="url(#pe9ccc9ea54)" style="fill: none; stroke-dasharray: 1.85,0.8; stroke-dashoffset: 0; stroke: #b2b2b2; stroke-width: 0.5"/>
     </g>
     <g id="line2d_88">
      <g>
       <use xlink:href="#m6b0355ffa7" x="100.8" y="502.05879" style="stroke: #000000; stroke-width: 0.8"/>
      </g>
     </g>
     <g id="text_23">
      <!-- 1 V -->
      <g transform="translate(74.36625 507.377696) scale(0.14 -0.14)">
       <use xlink:href="#DejaVuSans-31"/>
       <use xlink:href="#DejaVuSans-20" x="63.623047"/>
       <use xlink:href="#DejaVuSans-56" x="95.410156"/>
      </g>
     </g>
    </g>
    <g id="text_24">
     <g id="patch_27">
      <path d="M 34.8768 554.329483 
L 34.8768 506.379483 
L 11.247425 506.379483 
L 11.247425 554.329483 
z
" style="fill: #ffff00; opacity: 0.2; stroke: #eeeeee; stroke-width: 0.5; stroke-linejoin: miter"/>
     </g>
     <!-- FOUT -->
     <g transform="translate(26.925238 549.289483) rotate(-90) scale(0.14 -0.14)">
      <use xlink:href="#DejaVuSans-46"/>
      <use xlink:href="#DejaVuSans-4f" x="57.519531"/>
      <use xlink:href="#DejaVuSans-55" x="136.230469"/>
      <use xlink:href="#DejaVuSans-54" x="209.423828"/>
     </g>
    </g>
   </g>
   <g id="line2d_89">
    <path d="M 141.12 488.522124 
L 173.472768 488.528893 
L 173.505024 488.332611 
L 173.569536 526.727333 
L 173.69856 572.504953 
L 173.730816 572.369316 
L 173.827584 567.835751 
L 173.892096 569.356609 
L 174.053376 570.060861 
L 174.117888 569.943173 
L 174.408192 569.487941 
L 174.440448 569.537465 
L 174.66624 569.726167 
L 176.182272 569.736377 
L 180.117504 569.757705 
L 193.503744 569.748799 
L 212.921856 569.740242 
L 255.30624 569.739935 
L 255.6288 488.413831 
L 255.854592 488.555966 
L 256.209408 488.515356 
L 313.818624 488.427368 
L 313.883136 488.204013 
L 313.947648 516.562651 
L 314.044416 570.082783 
L 314.108928 569.73894 
L 322.947072 569.740101 
L 360.29952 569.836626 
L 360.364032 567.990475 
L 360.4608 524.640656 
L 360.62208 488.853773 
L 360.751104 488.528893 
L 362.492928 488.522124 
L 362.525184 489.571216 
L 362.589696 519.197563 
L 362.686464 571.060049 
L 362.750976 569.720915 
L 362.912256 569.740459 
L 416.1024 569.721318 
L 416.166912 562.886475 
L 416.360448 488.833468 
L 416.521728 488.522124 
L 947.52 488.522124 
L 947.52 488.522124 
" clip-path="url(#pe9ccc9ea54)" style="fill: none; stroke: #ff00ff; stroke-width: 2; stroke-linecap: square"/>
   </g>
   <g id="patch_28">
    <path d="M 100.8 576.72 
L 100.8 483.988966 
" style="fill: none; stroke: #bcbcbc; stroke-width: 0.8; stroke-linejoin: miter; stroke-linecap: square"/>
   </g>
   <g id="patch_29">
    <path d="M 987.84 576.72 
L 987.84 483.988966 
" style="fill: none; stroke: #bcbcbc; stroke-width: 0.8; stroke-linejoin: miter; stroke-linecap: square"/>
   </g>
   <g id="patch_30">
    <path d="M 100.8 576.72 
L 987.84 576.72 
" style="fill: none; stroke: #bcbcbc; stroke-width: 0.8; stroke-linejoin: miter; stroke-linecap: square"/>
   </g>
   <g id="patch_31">
    <path d="M 100.8 483.988966 
L 987.84 483.988966 
" style="fill: none; stroke: #bcbcbc; stroke-width: 0.8; stroke-linejoin: miter; stroke-linecap: square"/>
   </g>
  </g>
  <g id="axes_6">
   <g id="patch_32">
    <path d="M 201.6 628.56 
L 856.8 628.56 
L 856.8 615.6 
L 201.6 615.6 
z
" clip-path="url(#p8fd7fba153)" style="fill: #d3d3d3"/>
   </g>
   <g id="patch_33">
    <path d="M 201.6 628.56 
L 360.72 628.56 
L 360.72 615.6 
L 201.6 615.6 
z
" clip-path="url(#p8fd7fba153)" style="fill: #0000ff"/>
   </g>
   <g id="line2d_90">
    <path d="M 201.6 635.04 
L 201.6 609.12 
" clip-path="url(#p03f760e5f5)" style="fill: none; stroke: #ff0000; stroke-linecap: square"/>
   </g>
   <g id="line2d_91">
    <defs>
     <path id="m26bc368c0d" d="M 0 5 
C 1.326016 5 2.597899 4.473168 3.535534 3.535534 
C 4.473168 2.597899 5 1.326016 5 0 
C 5 -1.326016 4.473168 -2.597899 3.535534 -3.535534 
C 2.597899 -4.473168 1.326016 -5 0 -5 
C -1.326016 -5 -2.597899 -4.473168 -3.535534 -3.535534 
C -4.473168 -2.597899 -5 -1.326016 -5 0 
C -5 1.326016 -4.473168 2.597899 -3.535534 3.535534 
C -2.597899 4.473168 -1.326016 5 0 5 
z
" style="stroke: #bfbfbf"/>
    </defs>
    <g>
     <use xlink:href="#m26bc368c0d" x="360.72" y="622.08" style="fill: #ffffff; stroke: #bfbfbf"/>
    </g>
   </g>
   <g id="text_25">
    <!-- #Sweep -->
    <g transform="translate(138.622875 625.39125) scale(0.12 -0.12)">
     <defs>
      <path id="DejaVuSans-23" d="M 3272 2816 
L 2363 2816 
L 2100 1772 
L 3016 1772 
L 3272 2816 
z
M 2803 4594 
L 2478 3297 
L 3391 3297 
L 3719 4594 
L 4219 4594 
L 3897 3297 
L 4872 3297 
L 4872 2816 
L 3775 2816 
L 3519 1772 
L 4513 1772 
L 4513 1294 
L 3397 1294 
L 3072 0 
L 2572 0 
L 2894 1294 
L 1978 1294 
L 1656 0 
L 1153 0 
L 1478 1294 
L 494 1294 
L 494 1772 
L 1594 1772 
L 1856 2816 
L 850 2816 
L 850 3297 
L 1978 3297 
L 2297 4594 
L 2803 4594 
z
" transform="scale(0.015625)"/>
      <path id="DejaVuSans-77" d="M 269 3500 
L 844 3500 
L 1563 769 
L 2278 3500 
L 2956 3500 
L 3675 769 
L 4391 3500 
L 4966 3500 
L 4050 0 
L 3372 0 
L 2619 2869 
L 1863 0 
L 1184 0 
L 269 3500 
z
" transform="scale(0.015625)"/>
      <path id="DejaVuSans-70" d="M 1159 525 
L 1159 -1331 
L 581 -1331 
L 581 3500 
L 1159 3500 
L 1159 2969 
Q 1341 3281 1617 3432 
Q 1894 3584 2278 3584 
Q 2916 3584 3314 3078 
Q 3713 2572 3713 1747 
Q 3713 922 3314 415 
Q 2916 -91 2278 -91 
Q 1894 -91 1617 61 
Q 1341 213 1159 525 
z
M 3116 1747 
Q 3116 2381 2855 2742 
Q 2594 3103 2138 3103 
Q 1681 3103 1420 2742 
Q 1159 2381 1159 1747 
Q 1159 1113 1420 752 
Q 1681 391 2138 391 
Q 2594 391 2855 752 
Q 3116 1113 3116 1747 
z
" transform="scale(0.015625)"/>
     </defs>
     <use xlink:href="#DejaVuSans-23"/>
     <use xlink:href="#DejaVuSans-53" x="83.789062"/>
     <use xlink:href="#DejaVuSans-77" x="147.265625"/>
     <use xlink:href="#DejaVuSans-65" x="229.052734"/>
     <use xlink:href="#DejaVuSans-65" x="290.576172"/>
     <use xlink:href="#DejaVuSans-70" x="352.099609"/>
    </g>
   </g>
   <g id="text_26">
    <!-- $\mathdefault{34}$ -->
    <g transform="translate(869.904 625.39125) scale(0.12 -0.12)">
     <defs>
      <path id="DejaVuSans-33" d="M 2597 2516 
Q 3050 2419 3304 2112 
Q 3559 1806 3559 1356 
Q 3559 666 3084 287 
Q 2609 -91 1734 -91 
Q 1441 -91 1130 -33 
Q 819 25 488 141 
L 488 750 
Q 750 597 1062 519 
Q 1375 441 1716 441 
Q 2309 441 2620 675 
Q 2931 909 2931 1356 
Q 2931 1769 2642 2001 
Q 2353 2234 1838 2234 
L 1294 2234 
L 1294 2753 
L 1863 2753 
Q 2328 2753 2575 2939 
Q 2822 3125 2822 3475 
Q 2822 3834 2567 4026 
Q 2313 4219 1838 4219 
Q 1578 4219 1281 4162 
Q 984 4106 628 3988 
L 628 4550 
Q 988 4650 1302 4700 
Q 1616 4750 1894 4750 
Q 2613 4750 3031 4423 
Q 3450 4097 3450 3541 
Q 3450 3153 3228 2886 
Q 3006 2619 2597 2516 
z
" transform="scale(0.015625)"/>
      <path id="DejaVuSans-34" d="M 2419 4116 
L 825 1625 
L 2419 1625 
L 2419 4116 
z
M 2253 4666 
L 3047 4666 
L 3047 1625 
L 3713 1625 
L 3713 1100 
L 3047 1100 
L 3047 0 
L 2419 0 
L 2419 1100 
L 313 1100 
L 313 1709 
L 2253 4666 
z
" transform="scale(0.015625)"/>
     </defs>
     <use xlink:href="#DejaVuSans-33" transform="translate(0 0.78125)"/>
     <use xlink:href="#DejaVuSans-34" transform="translate(63.623047 0.78125)"/>
    </g>
   </g>
  </g>
  <g id="text_27">
   <!-- DFF under BBI sweep analysis (Sweep = 44E-9) -->
   <g transform="translate(313.34625 25.1175) scale(0.16 -0.16)">
    <defs>
     <path id="DejaVuSans-75" d="M 544 1381 
L 544 3500 
L 1119 3500 
L 1119 1403 
Q 1119 906 1312 657 
Q 1506 409 1894 409 
Q 2359 409 2629 706 
Q 2900 1003 2900 1516 
L 2900 3500 
L 3475 3500 
L 3475 0 
L 2900 0 
L 2900 538 
Q 2691 219 2414 64 
Q 2138 -91 1772 -91 
Q 1169 -91 856 284 
Q 544 659 544 1381 
z
M 1991 3584 
L 1991 3584 
z
" transform="scale(0.015625)"/>
     <path id="DejaVuSans-64" d="M 2906 2969 
L 2906 4863 
L 3481 4863 
L 3481 0 
L 2906 0 
L 2906 525 
Q 2725 213 2448 61 
Q 2172 -91 1784 -91 
Q 1150 -91 751 415 
Q 353 922 353 1747 
Q 353 2572 751 3078 
Q 1150 3584 1784 3584 
Q 2172 3584 2448 3432 
Q 2725 3281 2906 2969 
z
M 947 1747 
Q 947 1113 1208 752 
Q 1469 391 1925 391 
Q 2381 391 2643 752 
Q 2906 1113 2906 1747 
Q 2906 2381 2643 2742 
Q 2381 3103 1925 3103 
Q 1469 3103 1208 2742 
Q 947 2381 947 1747 
z
" transform="scale(0.015625)"/>
     <path id="DejaVuSans-72" d="M 2631 2963 
Q 2534 3019 2420 3045 
Q 2306 3072 2169 3072 
Q 1681 3072 1420 2755 
Q 1159 2438 1159 1844 
L 1159 0 
L 581 0 
L 581 3500 
L 1159 3500 
L 1159 2956 
Q 1341 3275 1631 3429 
Q 1922 3584 2338 3584 
Q 2397 3584 2469 3576 
Q 2541 3569 2628 3553 
L 2631 2963 
z
" transform="scale(0.015625)"/>
     <path id="DejaVuSans-61" d="M 2194 1759 
Q 1497 1759 1228 1600 
Q 959 1441 959 1056 
Q 959 750 1161 570 
Q 1363 391 1709 391 
Q 2188 391 2477 730 
Q 2766 1069 2766 1631 
L 2766 1759 
L 2194 1759 
z
M 3341 1997 
L 3341 0 
L 2766 0 
L 2766 531 
Q 2569 213 2275 61 
Q 1981 -91 1556 -91 
Q 1019 -91 701 211 
Q 384 513 384 1019 
Q 384 1609 779 1909 
Q 1175 2209 1959 2209 
L 2766 2209 
L 2766 2266 
Q 2766 2663 2505 2880 
Q 2244 3097 1772 3097 
Q 1472 3097 1187 3025 
Q 903 2953 641 2809 
L 641 3341 
Q 956 3463 1253 3523 
Q 1550 3584 1831 3584 
Q 2591 3584 2966 3190 
Q 3341 2797 3341 1997 
z
" transform="scale(0.015625)"/>
     <path id="DejaVuSans-6c" d="M 603 4863 
L 1178 4863 
L 1178 0 
L 603 0 
L 603 4863 
z
" transform="scale(0.015625)"/>
     <path id="DejaVuSans-79" d="M 2059 -325 
Q 1816 -950 1584 -1140 
Q 1353 -1331 966 -1331 
L 506 -1331 
L 506 -850 
L 844 -850 
Q 1081 -850 1212 -737 
Q 1344 -625 1503 -206 
L 1606 56 
L 191 3500 
L 800 3500 
L 1894 763 
L 2988 3500 
L 3597 3500 
L 2059 -325 
z
" transform="scale(0.015625)"/>
     <path id="DejaVuSans-28" d="M 1984 4856 
Q 1566 4138 1362 3434 
Q 1159 2731 1159 2009 
Q 1159 1288 1364 580 
Q 1569 -128 1984 -844 
L 1484 -844 
Q 1016 -109 783 600 
Q 550 1309 550 2009 
Q 550 2706 781 3412 
Q 1013 4119 1484 4856 
L 1984 4856 
z
" transform="scale(0.015625)"/>
     <path id="DejaVuSans-3d" d="M 678 2906 
L 4684 2906 
L 4684 2381 
L 678 2381 
L 678 2906 
z
M 678 1631 
L 4684 1631 
L 4684 1100 
L 678 1100 
L 678 1631 
z
" transform="scale(0.015625)"/>
     <path id="DejaVuSans-2d" d="M 313 2009 
L 1997 2009 
L 1997 1497 
L 313 1497 
L 313 2009 
z
" transform="scale(0.015625)"/>
     <path id="DejaVuSans-39" d="M 703 97 
L 703 672 
Q 941 559 1184 500 
Q 1428 441 1663 441 
Q 2288 441 2617 861 
Q 2947 1281 2994 2138 
Q 2813 1869 2534 1725 
Q 2256 1581 1919 1581 
Q 1219 1581 811 2004 
Q 403 2428 403 3163 
Q 403 3881 828 4315 
Q 1253 4750 1959 4750 
Q 2769 4750 3195 4129 
Q 3622 3509 3622 2328 
Q 3622 1225 3098 567 
Q 2575 -91 1691 -91 
Q 1453 -91 1209 -44 
Q 966 3 703 97 
z
M 1959 2075 
Q 2384 2075 2632 2365 
Q 2881 2656 2881 3163 
Q 2881 3666 2632 3958 
Q 2384 4250 1959 4250 
Q 1534 4250 1286 3958 
Q 1038 3666 1038 3163 
Q 1038 2656 1286 2365 
Q 1534 2075 1959 2075 
z
" transform="scale(0.015625)"/>
     <path id="DejaVuSans-29" d="M 513 4856 
L 1013 4856 
Q 1481 4119 1714 3412 
Q 1947 2706 1947 2009 
Q 1947 1309 1714 600 
Q 1481 -109 1013 -844 
L 513 -844 
Q 928 -128 1133 580 
Q 1338 1288 1338 2009 
Q 1338 2731 1133 3434 
Q 928 4138 513 4856 
z
" transform="scale(0.015625)"/>
    </defs>
    <use xlink:href="#DejaVuSans-44"/>
    <use xlink:href="#DejaVuSans-46" x="77.001953"/>
    <use xlink:href="#DejaVuSans-46" x="134.521484"/>
    <use xlink:href="#DejaVuSans-20" x="192.041016"/>
    <use xlink:href="#DejaVuSans-75" x="223.828125"/>
    <use xlink:href="#DejaVuSans-6e" x="287.207031"/>
    <use xlink:href="#DejaVuSans-64" x="350.585938"/>
    <use xlink:href="#DejaVuSans-65" x="414.0625"/>
    <use xlink:href="#DejaVuSans-72" x="475.585938"/>
    <use xlink:href="#DejaVuSans-20" x="516.699219"/>
    <use xlink:href="#DejaVuSans-42" x="548.486328"/>
    <use xlink:href="#DejaVuSans-42" x="617.089844"/>
    <use xlink:href="#DejaVuSans-49" x="685.693359"/>
    <use xlink:href="#DejaVuSans-20" x="715.185547"/>
    <use xlink:href="#DejaVuSans-73" x="746.972656"/>
    <use xlink:href="#DejaVuSans-77" x="799.072266"/>
    <use xlink:href="#DejaVuSans-65" x="880.859375"/>
    <use xlink:href="#DejaVuSans-65" x="942.382812"/>
    <use xlink:href="#DejaVuSans-70" x="1003.90625"/>
    <use xlink:href="#DejaVuSans-20" x="1067.382812"/>
    <use xlink:href="#DejaVuSans-61" x="1099.169922"/>
    <use xlink:href="#DejaVuSans-6e" x="1160.449219"/>
    <use xlink:href="#DejaVuSans-61" x="1223.828125"/>
    <use xlink:href="#DejaVuSans-6c" x="1285.107422"/>
    <use xlink:href="#DejaVuSans-79" x="1312.890625"/>
    <use xlink:href="#DejaVuSans-73" x="1372.070312"/>
    <use xlink:href="#DejaVuSans-69" x="1424.169922"/>
    <use xlink:href="#DejaVuSans-73" x="1451.953125"/>
    <use xlink:href="#DejaVuSans-20" x="1504.052734"/>
    <use xlink:href="#DejaVuSans-28" x="1535.839844"/>
    <use xlink:href="#DejaVuSans-53" x="1574.853516"/>
    <use xlink:href="#DejaVuSans-77" x="1638.330078"/>
    <use xlink:href="#DejaVuSans-65" x="1720.117188"/>
    <use xlink:href="#DejaVuSans-65" x="1781.640625"/>
    <use xlink:href="#DejaVuSans-70" x="1843.164062"/>
    <use xlink:href="#DejaVuSans-20" x="1906.640625"/>
    <use xlink:href="#DejaVuSans-3d" x="1938.427734"/>
    <use xlink:href="#DejaVuSans-20" x="2022.216797"/>
    <use xlink:href="#DejaVuSans-34" x="2054.003906"/>
    <use xlink:href="#DejaVuSans-34" x="2117.626953"/>
    <use xlink:href="#DejaVuSans-45" x="2181.25"/>
    <use xlink:href="#DejaVuSans-2d" x="2244.433594"/>
    <use xlink:href="#DejaVuSans-39" x="2280.517578"/>
    <use xlink:href="#DejaVuSans-29" x="2344.140625"/>
   </g>
  </g>
 </g>
 <defs>
  <clipPath id="pe94082ec66">
   <rect x="100.8" y="38.88" width="887.04" height="92.731034"/>
  </clipPath>
  <clipPath id="p2f937d25fe">
   <rect x="100.8" y="150.157241" width="887.04" height="92.731034"/>
  </clipPath>
  <clipPath id="p27559a3922">
   <rect x="100.8" y="261.434483" width="887.04" height="92.731034"/>
  </clipPath>
  <clipPath id="pfb554abfa8">
   <rect x="100.8" y="372.711724" width="887.04" height="92.731034"/>
  </clipPath>
  <clipPath id="pe9ccc9ea54">
   <rect x="100.8" y="483.988966" width="887.04" height="92.731034"/>
  </clipPath>
  <clipPath id="p8fd7fba153">
   <rect x="201.6" y="609.12" width="655.2" height="25.92"/>
  </clipPath>
  <clipPath id="p03f760e5f5">
   <path d="M 201.6 628.56 
L 856.8 628.56 
L 856.8 615.6 
L 201.6 615.6 
z
"/>
  </clipPath>
 </defs>
</svg>
