<?xml version="1.0" encoding="utf-8" standalone="no"?>
<!DOCTYPE svg PUBLIC "-//W3C//DTD SVG 1.1//EN"
  "http://www.w3.org/Graphics/SVG/1.1/DTD/svg11.dtd">
<svg xmlns:xlink="http://www.w3.org/1999/xlink" width="1008pt" height="648pt" viewBox="0 0 1008 648" xmlns="http://www.w3.org/2000/svg" version="1.1">
 <metadata>
  <rdf:RDF xmlns:dc="http://purl.org/dc/elements/1.1/" xmlns:cc="http://creativecommons.org/ns#" xmlns:rdf="http://www.w3.org/1999/02/22-rdf-syntax-ns#">
   <cc:Work>
    <dc:type rdf:resource="http://purl.org/dc/dcmitype/StillImage"/>
    <dc:date>2024-06-03T10:45:55.671057</dc:date>
    <dc:format>image/svg+xml</dc:format>
    <dc:creator>
     <cc:Agent>
      <dc:title>Matplotlib v3.9.0, https://matplotlib.org/</dc:title>
     </cc:Agent>
    </dc:creator>
   </cc:Work>
  </rdf:RDF>
 </metadata>
 <defs>
  <style type="text/css">*{stroke-linejoin: round; stroke-linecap: butt}</style>
 </defs>
 <g id="figure_1">
  <g id="patch_1">
   <path d="M 0 648 
L 1008 648 
L 1008 0 
L 0 0 
z
" style="fill: #ffffff"/>
  </g>
  <g id="axes_1">
   <g id="patch_2">
    <path d="M 100.8 131.611034 
L 987.84 131.611034 
L 987.84 38.88 
L 100.8 38.88 
z
" style="fill: #eeeeee"/>
   </g>
   <g id="matplotlib.axis_1">
    <g id="xtick_1">
     <g id="line2d_1">
      <path d="M 141.12 131.611034 
L 141.12 38.88 
" clip-path="url(#p5b39f49962)" style="fill: none; stroke-dasharray: 1.85,0.8; stroke-dashoffset: 0; stroke: #b2b2b2; stroke-width: 0.5"/>
     </g>
     <g id="line2d_2">
      <defs>
       <path id="ma62b8e9ec1" d="M 0 0 
L 0 -3.5 
" style="stroke: #000000; stroke-width: 0.8"/>
      </defs>
      <g>
       <use xlink:href="#ma62b8e9ec1" x="141.12" y="131.611034" style="stroke: #000000; stroke-width: 0.8"/>
      </g>
     </g>
    </g>
    <g id="xtick_2">
     <g id="line2d_3">
      <path d="M 302.4 131.611034 
L 302.4 38.88 
" clip-path="url(#p5b39f49962)" style="fill: none; stroke-dasharray: 1.85,0.8; stroke-dashoffset: 0; stroke: #b2b2b2; stroke-width: 0.5"/>
     </g>
     <g id="line2d_4">
      <g>
       <use xlink:href="#ma62b8e9ec1" x="302.4" y="131.611034" style="stroke: #000000; stroke-width: 0.8"/>
      </g>
     </g>
    </g>
    <g id="xtick_3">
     <g id="line2d_5">
      <path d="M 463.68 131.611034 
L 463.68 38.88 
" clip-path="url(#p5b39f49962)" style="fill: none; stroke-dasharray: 1.85,0.8; stroke-dashoffset: 0; stroke: #b2b2b2; stroke-width: 0.5"/>
     </g>
     <g id="line2d_6">
      <g>
       <use xlink:href="#ma62b8e9ec1" x="463.68" y="131.611034" style="stroke: #000000; stroke-width: 0.8"/>
      </g>
     </g>
    </g>
    <g id="xtick_4">
     <g id="line2d_7">
      <path d="M 624.96 131.611034 
L 624.96 38.88 
" clip-path="url(#p5b39f49962)" style="fill: none; stroke-dasharray: 1.85,0.8; stroke-dashoffset: 0; stroke: #b2b2b2; stroke-width: 0.5"/>
     </g>
     <g id="line2d_8">
      <g>
       <use xlink:href="#ma62b8e9ec1" x="624.96" y="131.611034" style="stroke: #000000; stroke-width: 0.8"/>
      </g>
     </g>
    </g>
    <g id="xtick_5">
     <g id="line2d_9">
      <path d="M 786.24 131.611034 
L 786.24 38.88 
" clip-path="url(#p5b39f49962)" style="fill: none; stroke-dasharray: 1.85,0.8; stroke-dashoffset: 0; stroke: #b2b2b2; stroke-width: 0.5"/>
     </g>
     <g id="line2d_10">
      <g>
       <use xlink:href="#ma62b8e9ec1" x="786.24" y="131.611034" style="stroke: #000000; stroke-width: 0.8"/>
      </g>
     </g>
    </g>
    <g id="xtick_6">
     <g id="line2d_11">
      <path d="M 947.52 131.611034 
L 947.52 38.88 
" clip-path="url(#p5b39f49962)" style="fill: none; stroke-dasharray: 1.85,0.8; stroke-dashoffset: 0; stroke: #b2b2b2; stroke-width: 0.5"/>
     </g>
     <g id="line2d_12">
      <g>
       <use xlink:href="#ma62b8e9ec1" x="947.52" y="131.611034" style="stroke: #000000; stroke-width: 0.8"/>
      </g>
     </g>
    </g>
   </g>
   <g id="matplotlib.axis_2">
    <g id="ytick_1">
     <g id="line2d_13">
      <path d="M 100.8 98.340394 
L 987.84 98.340394 
" clip-path="url(#p5b39f49962)" style="fill: none; stroke-dasharray: 1.85,0.8; stroke-dashoffset: 0; stroke: #b2b2b2; stroke-width: 0.5"/>
     </g>
     <g id="line2d_14">
      <defs>
       <path id="me0f7947db7" d="M 0 0 
L 3.5 0 
" style="stroke: #000000; stroke-width: 0.8"/>
      </defs>
      <g>
       <use xlink:href="#me0f7947db7" x="100.8" y="98.340394" style="stroke: #000000; stroke-width: 0.8"/>
      </g>
     </g>
     <g id="text_1">
      <!-- −200 V -->
      <g transform="translate(44.819688 103.6593) scale(0.14 -0.14)">
       <defs>
        <path id="DejaVuSans-2212" d="M 678 2272 
L 4684 2272 
L 4684 1741 
L 678 1741 
L 678 2272 
z
" transform="scale(0.015625)"/>
        <path id="DejaVuSans-32" d="M 1228 531 
L 3431 531 
L 3431 0 
L 469 0 
L 469 531 
Q 828 903 1448 1529 
Q 2069 2156 2228 2338 
Q 2531 2678 2651 2914 
Q 2772 3150 2772 3378 
Q 2772 3750 2511 3984 
Q 2250 4219 1831 4219 
Q 1534 4219 1204 4116 
Q 875 4013 500 3803 
L 500 4441 
Q 881 4594 1212 4672 
Q 1544 4750 1819 4750 
Q 2544 4750 2975 4387 
Q 3406 4025 3406 3419 
Q 3406 3131 3298 2873 
Q 3191 2616 2906 2266 
Q 2828 2175 2409 1742 
Q 1991 1309 1228 531 
z
" transform="scale(0.015625)"/>
        <path id="DejaVuSans-30" d="M 2034 4250 
Q 1547 4250 1301 3770 
Q 1056 3291 1056 2328 
Q 1056 1369 1301 889 
Q 1547 409 2034 409 
Q 2525 409 2770 889 
Q 3016 1369 3016 2328 
Q 3016 3291 2770 3770 
Q 2525 4250 2034 4250 
z
M 2034 4750 
Q 2819 4750 3233 4129 
Q 3647 3509 3647 2328 
Q 3647 1150 3233 529 
Q 2819 -91 2034 -91 
Q 1250 -91 836 529 
Q 422 1150 422 2328 
Q 422 3509 836 4129 
Q 1250 4750 2034 4750 
z
" transform="scale(0.015625)"/>
        <path id="DejaVuSans-20" transform="scale(0.015625)"/>
        <path id="DejaVuSans-56" d="M 1831 0 
L 50 4666 
L 709 4666 
L 2188 738 
L 3669 4666 
L 4325 4666 
L 2547 0 
L 1831 0 
z
" transform="scale(0.015625)"/>
       </defs>
       <use xlink:href="#DejaVuSans-2212"/>
       <use xlink:href="#DejaVuSans-32" x="83.789062"/>
       <use xlink:href="#DejaVuSans-30" x="147.412109"/>
       <use xlink:href="#DejaVuSans-30" x="211.035156"/>
       <use xlink:href="#DejaVuSans-20" x="274.658203"/>
       <use xlink:href="#DejaVuSans-56" x="306.445312"/>
      </g>
     </g>
    </g>
    <g id="ytick_2">
     <g id="line2d_15">
      <path d="M 100.8 45.027377 
L 987.84 45.027377 
" clip-path="url(#p5b39f49962)" style="fill: none; stroke-dasharray: 1.85,0.8; stroke-dashoffset: 0; stroke: #b2b2b2; stroke-width: 0.5"/>
     </g>
     <g id="line2d_16">
      <g>
       <use xlink:href="#me0f7947db7" x="100.8" y="45.027377" style="stroke: #000000; stroke-width: 0.8"/>
      </g>
     </g>
     <g id="text_2">
      <!-- 0 V -->
      <g transform="translate(74.36625 50.346284) scale(0.14 -0.14)">
       <use xlink:href="#DejaVuSans-30"/>
       <use xlink:href="#DejaVuSans-20" x="63.623047"/>
       <use xlink:href="#DejaVuSans-56" x="95.410156"/>
      </g>
     </g>
    </g>
    <g id="text_3">
     <g id="patch_3">
      <path d="M 34.8768 131.080205 
L 34.8768 39.41083 
L 11.247425 39.41083 
L 11.247425 131.080205 
z
" style="fill: #ffff00; opacity: 0.2; stroke: #eeeeee; stroke-width: 0.5; stroke-linejoin: miter"/>
     </g>
     <!-- VPULSE BBI -->
     <g transform="translate(26.925238 126.040205) rotate(-90) scale(0.14 -0.14)">
      <defs>
       <path id="DejaVuSans-50" d="M 1259 4147 
L 1259 2394 
L 2053 2394 
Q 2494 2394 2734 2622 
Q 2975 2850 2975 3272 
Q 2975 3691 2734 3919 
Q 2494 4147 2053 4147 
L 1259 4147 
z
M 628 4666 
L 2053 4666 
Q 2838 4666 3239 4311 
Q 3641 3956 3641 3272 
Q 3641 2581 3239 2228 
Q 2838 1875 2053 1875 
L 1259 1875 
L 1259 0 
L 628 0 
L 628 4666 
z
" transform="scale(0.015625)"/>
       <path id="DejaVuSans-55" d="M 556 4666 
L 1191 4666 
L 1191 1831 
Q 1191 1081 1462 751 
Q 1734 422 2344 422 
Q 2950 422 3222 751 
Q 3494 1081 3494 1831 
L 3494 4666 
L 4128 4666 
L 4128 1753 
Q 4128 841 3676 375 
Q 3225 -91 2344 -91 
Q 1459 -91 1007 375 
Q 556 841 556 1753 
L 556 4666 
z
" transform="scale(0.015625)"/>
       <path id="DejaVuSans-4c" d="M 628 4666 
L 1259 4666 
L 1259 531 
L 3531 531 
L 3531 0 
L 628 0 
L 628 4666 
z
" transform="scale(0.015625)"/>
       <path id="DejaVuSans-53" d="M 3425 4513 
L 3425 3897 
Q 3066 4069 2747 4153 
Q 2428 4238 2131 4238 
Q 1616 4238 1336 4038 
Q 1056 3838 1056 3469 
Q 1056 3159 1242 3001 
Q 1428 2844 1947 2747 
L 2328 2669 
Q 3034 2534 3370 2195 
Q 3706 1856 3706 1288 
Q 3706 609 3251 259 
Q 2797 -91 1919 -91 
Q 1588 -91 1214 -16 
Q 841 59 441 206 
L 441 856 
Q 825 641 1194 531 
Q 1563 422 1919 422 
Q 2459 422 2753 634 
Q 3047 847 3047 1241 
Q 3047 1584 2836 1778 
Q 2625 1972 2144 2069 
L 1759 2144 
Q 1053 2284 737 2584 
Q 422 2884 422 3419 
Q 422 4038 858 4394 
Q 1294 4750 2059 4750 
Q 2388 4750 2728 4690 
Q 3069 4631 3425 4513 
z
" transform="scale(0.015625)"/>
       <path id="DejaVuSans-45" d="M 628 4666 
L 3578 4666 
L 3578 4134 
L 1259 4134 
L 1259 2753 
L 3481 2753 
L 3481 2222 
L 1259 2222 
L 1259 531 
L 3634 531 
L 3634 0 
L 628 0 
L 628 4666 
z
" transform="scale(0.015625)"/>
       <path id="DejaVuSans-42" d="M 1259 2228 
L 1259 519 
L 2272 519 
Q 2781 519 3026 730 
Q 3272 941 3272 1375 
Q 3272 1813 3026 2020 
Q 2781 2228 2272 2228 
L 1259 2228 
z
M 1259 4147 
L 1259 2741 
L 2194 2741 
Q 2656 2741 2882 2914 
Q 3109 3088 3109 3444 
Q 3109 3797 2882 3972 
Q 2656 4147 2194 4147 
L 1259 4147 
z
M 628 4666 
L 2241 4666 
Q 2963 4666 3353 4366 
Q 3744 4066 3744 3513 
Q 3744 3084 3544 2831 
Q 3344 2578 2956 2516 
Q 3422 2416 3680 2098 
Q 3938 1781 3938 1306 
Q 3938 681 3513 340 
Q 3088 0 2303 0 
L 628 0 
L 628 4666 
z
" transform="scale(0.015625)"/>
       <path id="DejaVuSans-49" d="M 628 4666 
L 1259 4666 
L 1259 0 
L 628 0 
L 628 4666 
z
" transform="scale(0.015625)"/>
      </defs>
      <use xlink:href="#DejaVuSans-56"/>
      <use xlink:href="#DejaVuSans-50" x="68.408203"/>
      <use xlink:href="#DejaVuSans-55" x="128.710938"/>
      <use xlink:href="#DejaVuSans-4c" x="201.904297"/>
      <use xlink:href="#DejaVuSans-53" x="257.617188"/>
      <use xlink:href="#DejaVuSans-45" x="321.09375"/>
      <use xlink:href="#DejaVuSans-20" x="384.277344"/>
      <use xlink:href="#DejaVuSans-42" x="416.064453"/>
      <use xlink:href="#DejaVuSans-42" x="484.667969"/>
      <use xlink:href="#DejaVuSans-49" x="553.271484"/>
     </g>
    </g>
   </g>
   <g id="line2d_17">
    <path d="M 141.12 45.027377 
L 579.833856 45.136282 
L 580.317696 46.425538 
L 588.542976 69.006772 
L 595.961856 89.863624 
L 597.574656 94.440546 
L 599.380992 99.673219 
L 602.86464 110.807642 
L 604.445184 115.853719 
L 605.703168 119.566971 
L 606.928896 120.153414 
L 607.767552 120.545265 
L 608.799744 121.017085 
L 609.380352 121.272988 
L 610.251264 121.656841 
L 610.831872 121.912744 
L 611.670528 122.269941 
L 613.251072 122.936354 
L 613.896192 123.202919 
L 614.992896 123.629423 
L 615.734784 123.922644 
L 616.831488 124.349149 
L 617.734656 124.677024 
L 618.412032 124.943589 
L 619.218432 125.25547 
L 620.573184 125.804594 
L 623.218176 126.790885 
L 623.83104 127.022796 
L 625.7664 127.395987 
L 644.249088 127.289361 
L 644.47488 126.801547 
L 662.764032 75.087922 
L 666.505728 63.292417 
L 670.215168 51.617666 
L 674.827776 49.3412 
L 680.182272 46.984578 
L 688.891392 43.484472 
L 689.762304 43.268927 
L 704.051712 43.108189 
L 710.857728 43.184799 
L 726.211584 43.746186 
L 753.984 44.46146 
L 779.62752 44.774399 
L 815.238144 44.945888 
L 863.267328 44.953885 
L 947.52 44.953885 
L 947.52 44.953885 
" clip-path="url(#p5b39f49962)" style="fill: none; stroke: #ff0000; stroke-width: 2; stroke-linecap: square"/>
   </g>
   <g id="patch_4">
    <path d="M 100.8 131.611034 
L 100.8 38.88 
" style="fill: none; stroke: #bcbcbc; stroke-width: 0.8; stroke-linejoin: miter; stroke-linecap: square"/>
   </g>
   <g id="patch_5">
    <path d="M 987.84 131.611034 
L 987.84 38.88 
" style="fill: none; stroke: #bcbcbc; stroke-width: 0.8; stroke-linejoin: miter; stroke-linecap: square"/>
   </g>
   <g id="patch_6">
    <path d="M 100.8 131.611034 
L 987.84 131.611034 
" style="fill: none; stroke: #bcbcbc; stroke-width: 0.8; stroke-linejoin: miter; stroke-linecap: square"/>
   </g>
   <g id="patch_7">
    <path d="M 100.8 38.88 
L 987.84 38.88 
" style="fill: none; stroke: #bcbcbc; stroke-width: 0.8; stroke-linejoin: miter; stroke-linecap: square"/>
   </g>
  </g>
  <g id="axes_2">
   <g id="patch_8">
    <path d="M 100.8 242.888276 
L 987.84 242.888276 
L 987.84 150.157241 
L 100.8 150.157241 
z
" style="fill: #eeeeee"/>
   </g>
   <g id="matplotlib.axis_3">
    <g id="xtick_7">
     <g id="line2d_18">
      <path d="M 141.12 242.888276 
L 141.12 150.157241 
" clip-path="url(#pdef035af60)" style="fill: none; stroke-dasharray: 1.85,0.8; stroke-dashoffset: 0; stroke: #b2b2b2; stroke-width: 0.5"/>
     </g>
     <g id="line2d_19">
      <g>
       <use xlink:href="#ma62b8e9ec1" x="141.12" y="242.888276" style="stroke: #000000; stroke-width: 0.8"/>
      </g>
     </g>
    </g>
    <g id="xtick_8">
     <g id="line2d_20">
      <path d="M 302.4 242.888276 
L 302.4 150.157241 
" clip-path="url(#pdef035af60)" style="fill: none; stroke-dasharray: 1.85,0.8; stroke-dashoffset: 0; stroke: #b2b2b2; stroke-width: 0.5"/>
     </g>
     <g id="line2d_21">
      <g>
       <use xlink:href="#ma62b8e9ec1" x="302.4" y="242.888276" style="stroke: #000000; stroke-width: 0.8"/>
      </g>
     </g>
    </g>
    <g id="xtick_9">
     <g id="line2d_22">
      <path d="M 463.68 242.888276 
L 463.68 150.157241 
" clip-path="url(#pdef035af60)" style="fill: none; stroke-dasharray: 1.85,0.8; stroke-dashoffset: 0; stroke: #b2b2b2; stroke-width: 0.5"/>
     </g>
     <g id="line2d_23">
      <g>
       <use xlink:href="#ma62b8e9ec1" x="463.68" y="242.888276" style="stroke: #000000; stroke-width: 0.8"/>
      </g>
     </g>
    </g>
    <g id="xtick_10">
     <g id="line2d_24">
      <path d="M 624.96 242.888276 
L 624.96 150.157241 
" clip-path="url(#pdef035af60)" style="fill: none; stroke-dasharray: 1.85,0.8; stroke-dashoffset: 0; stroke: #b2b2b2; stroke-width: 0.5"/>
     </g>
     <g id="line2d_25">
      <g>
       <use xlink:href="#ma62b8e9ec1" x="624.96" y="242.888276" style="stroke: #000000; stroke-width: 0.8"/>
      </g>
     </g>
    </g>
    <g id="xtick_11">
     <g id="line2d_26">
      <path d="M 786.24 242.888276 
L 786.24 150.157241 
" clip-path="url(#pdef035af60)" style="fill: none; stroke-dasharray: 1.85,0.8; stroke-dashoffset: 0; stroke: #b2b2b2; stroke-width: 0.5"/>
     </g>
     <g id="line2d_27">
      <g>
       <use xlink:href="#ma62b8e9ec1" x="786.24" y="242.888276" style="stroke: #000000; stroke-width: 0.8"/>
      </g>
     </g>
    </g>
    <g id="xtick_12">
     <g id="line2d_28">
      <path d="M 947.52 242.888276 
L 947.52 150.157241 
" clip-path="url(#pdef035af60)" style="fill: none; stroke-dasharray: 1.85,0.8; stroke-dashoffset: 0; stroke: #b2b2b2; stroke-width: 0.5"/>
     </g>
     <g id="line2d_29">
      <g>
       <use xlink:href="#ma62b8e9ec1" x="947.52" y="242.888276" style="stroke: #000000; stroke-width: 0.8"/>
      </g>
     </g>
    </g>
   </g>
   <g id="matplotlib.axis_4">
    <g id="ytick_3">
     <g id="line2d_30">
      <path d="M 100.8 219.259683 
L 987.84 219.259683 
" clip-path="url(#pdef035af60)" style="fill: none; stroke-dasharray: 1.85,0.8; stroke-dashoffset: 0; stroke: #b2b2b2; stroke-width: 0.5"/>
     </g>
     <g id="line2d_31">
      <g>
       <use xlink:href="#me0f7947db7" x="100.8" y="219.259683" style="stroke: #000000; stroke-width: 0.8"/>
      </g>
     </g>
     <g id="text_4">
      <!-- 0 V -->
      <g transform="translate(74.36625 224.578589) scale(0.14 -0.14)">
       <use xlink:href="#DejaVuSans-30"/>
       <use xlink:href="#DejaVuSans-20" x="63.623047"/>
       <use xlink:href="#DejaVuSans-56" x="95.410156"/>
      </g>
     </g>
    </g>
    <g id="ytick_4">
     <g id="line2d_32">
      <path d="M 100.8 185.710541 
L 987.84 185.710541 
" clip-path="url(#pdef035af60)" style="fill: none; stroke-dasharray: 1.85,0.8; stroke-dashoffset: 0; stroke: #b2b2b2; stroke-width: 0.5"/>
     </g>
     <g id="line2d_33">
      <g>
       <use xlink:href="#me0f7947db7" x="100.8" y="185.710541" style="stroke: #000000; stroke-width: 0.8"/>
      </g>
     </g>
     <g id="text_5">
      <!-- 1 V -->
      <g transform="translate(74.36625 191.029448) scale(0.14 -0.14)">
       <defs>
        <path id="DejaVuSans-31" d="M 794 531 
L 1825 531 
L 1825 4091 
L 703 3866 
L 703 4441 
L 1819 4666 
L 2450 4666 
L 2450 531 
L 3481 531 
L 3481 0 
L 794 0 
L 794 531 
z
" transform="scale(0.015625)"/>
       </defs>
       <use xlink:href="#DejaVuSans-31"/>
       <use xlink:href="#DejaVuSans-20" x="63.623047"/>
       <use xlink:href="#DejaVuSans-56" x="95.410156"/>
      </g>
     </g>
    </g>
    <g id="ytick_5">
     <g id="line2d_34">
      <path d="M 100.8 152.1614 
L 987.84 152.1614 
" clip-path="url(#pdef035af60)" style="fill: none; stroke-dasharray: 1.85,0.8; stroke-dashoffset: 0; stroke: #b2b2b2; stroke-width: 0.5"/>
     </g>
     <g id="line2d_35">
      <g>
       <use xlink:href="#me0f7947db7" x="100.8" y="152.1614" style="stroke: #000000; stroke-width: 0.8"/>
      </g>
     </g>
     <g id="text_6">
      <!-- 2 V -->
      <g transform="translate(74.36625 157.480306) scale(0.14 -0.14)">
       <use xlink:href="#DejaVuSans-32"/>
       <use xlink:href="#DejaVuSans-20" x="63.623047"/>
       <use xlink:href="#DejaVuSans-56" x="95.410156"/>
      </g>
     </g>
    </g>
    <g id="text_7">
     <g id="patch_9">
      <path d="M 34.8768 224.531509 
L 34.8768 168.514009 
L 11.247425 168.514009 
L 11.247425 224.531509 
z
" style="fill: #ffff00; opacity: 0.2; stroke: #eeeeee; stroke-width: 0.5; stroke-linejoin: miter"/>
     </g>
     <!-- DFF IN -->
     <g transform="translate(26.925238 219.491509) rotate(-90) scale(0.14 -0.14)">
      <defs>
       <path id="DejaVuSans-44" d="M 1259 4147 
L 1259 519 
L 2022 519 
Q 2988 519 3436 956 
Q 3884 1394 3884 2338 
Q 3884 3275 3436 3711 
Q 2988 4147 2022 4147 
L 1259 4147 
z
M 628 4666 
L 1925 4666 
Q 3281 4666 3915 4102 
Q 4550 3538 4550 2338 
Q 4550 1131 3912 565 
Q 3275 0 1925 0 
L 628 0 
L 628 4666 
z
" transform="scale(0.015625)"/>
       <path id="DejaVuSans-46" d="M 628 4666 
L 3309 4666 
L 3309 4134 
L 1259 4134 
L 1259 2759 
L 3109 2759 
L 3109 2228 
L 1259 2228 
L 1259 0 
L 628 0 
L 628 4666 
z
" transform="scale(0.015625)"/>
       <path id="DejaVuSans-4e" d="M 628 4666 
L 1478 4666 
L 3547 763 
L 3547 4666 
L 4159 4666 
L 4159 0 
L 3309 0 
L 1241 3903 
L 1241 0 
L 628 0 
L 628 4666 
z
" transform="scale(0.015625)"/>
      </defs>
      <use xlink:href="#DejaVuSans-44"/>
      <use xlink:href="#DejaVuSans-46" x="77.001953"/>
      <use xlink:href="#DejaVuSans-46" x="134.521484"/>
      <use xlink:href="#DejaVuSans-20" x="192.041016"/>
      <use xlink:href="#DejaVuSans-49" x="223.828125"/>
      <use xlink:href="#DejaVuSans-4e" x="253.320312"/>
     </g>
    </g>
   </g>
   <g id="line2d_36">
    <path d="M 141.12 219.210688 
L 221.953536 219.164682 
L 224.437248 200.471493 
L 225.404928 194.784913 
L 228.243456 182.281819 
L 229.598208 181.027081 
L 231.178752 180.164868 
L 236.565504 179.71531 
L 243.661824 179.604598 
L 245.1456 179.560984 
L 248.403456 179.450272 
L 250.113024 179.383173 
L 252.177408 179.272461 
L 254.241792 178.947034 
L 254.757888 178.416958 
L 255.499776 178.081467 
L 256.370688 178.101596 
L 257.531904 178.333085 
L 259.98336 178.73232 
L 262.370304 178.869871 
L 263.886336 178.920195 
L 264.144384 184.093473 
L 264.434688 187.613449 
L 265.176576 192.302612 
L 267.144192 209.418378 
L 268.402176 215.844716 
L 269.079552 217.155145 
L 270.46656 218.852262 
L 273.724416 219.261494 
L 282.594816 219.215119 
L 297.110016 219.203911 
L 305.883648 219.209892 
L 347.751936 219.166356 
L 350.235648 200.511081 
L 351.622656 191.981882 
L 352.687104 186.656963 
L 354.97728 179.849506 
L 358.493184 178.863162 
L 360.235008 178.933615 
L 363.073536 179.044327 
L 364.396032 179.071166 
L 375.169536 179.141619 
L 375.717888 180.121254 
L 376.169472 180.86269 
L 377.008128 181.758452 
L 377.524224 181.708129 
L 378.427392 181.419606 
L 380.45952 180.28229 
L 381.58848 179.926669 
L 387.201024 179.453626 
L 389.65248 179.342914 
L 391.813632 179.228847 
L 394.555392 179.118135 
L 395.9424 179.084586 
L 415.392768 178.977229 
L 415.973376 178.359924 
L 416.844288 178.027788 
L 417.908736 178.13179 
L 419.16672 178.410248 
L 420.908544 178.661867 
L 424.00512 178.873226 
L 455.712768 178.973874 
L 456.809472 179.852861 
L 457.261056 179.923314 
L 458.712576 179.963573 
L 462.744576 179.433497 
L 464.16384 179.248977 
L 467.518464 179.010778 
L 496.065024 178.93026 
L 496.58112 178.396829 
L 497.258496 178.094886 
L 498.387456 178.088176 
L 502.06464 178.742385 
L 504.258048 178.859807 
L 536.352768 178.970519 
L 537.255936 179.765633 
L 537.901056 179.923314 
L 539.352576 179.963573 
L 544.449024 179.322785 
L 545.61024 179.191943 
L 548.803584 178.970519 
L 576.73728 178.886646 
L 577.285632 178.326375 
L 577.930752 178.054627 
L 578.543616 178.031143 
L 579.737088 178.259277 
L 579.930624 178.477346 
L 582.414336 183.144032 
L 585.833472 187.929482 
L 589.059072 192.47539 
L 589.542912 193.894519 
L 590.76864 198.284424 
L 591.187968 199.843453 
L 591.381504 200.656684 
L 591.704064 201.833588 
L 591.929856 202.708885 
L 592.736256 206.509332 
L 592.897536 207.081344 
L 593.897472 211.554451 
L 595.252224 216.312458 
L 595.44576 216.840387 
L 596.026368 218.95878 
L 597.510144 223.564709 
L 597.639168 223.794185 
L 597.961728 224.584267 
L 598.413312 225.668575 
L 598.703616 226.033254 
L 598.961664 226.278163 
L 599.219712 226.785091 
L 599.832576 228.35821 
L 602.767872 233.914283 
L 605.28384 238.129062 
L 605.380608 238.18576 
L 605.703168 238.673229 
L 605.896704 238.563188 
L 606.380544 237.809003 
L 606.638592 237.51008 
L 606.961152 236.913576 
L 607.54176 235.9742 
L 608.283648 235.240481 
L 608.638464 234.633912 
L 608.896512 234.275943 
L 609.025536 234.218238 
L 609.541632 233.738486 
L 610.251264 233.216126 
L 610.960896 232.412959 
L 611.2512 232.003324 
L 611.541504 231.654077 
L 611.670528 231.521894 
L 611.73504 231.584295 
L 613.057536 230.675449 
L 613.541376 230.200393 
L 614.15424 229.277456 
L 614.412288 229.182848 
L 614.573568 229.127827 
L 614.831616 229.002689 
L 615.863808 228.277692 
L 616.896 227.206132 
L 617.186304 226.77771 
L 617.605632 226.636468 
L 617.928192 226.531124 
L 619.540992 225.309264 
L 619.766784 224.939888 
L 620.1216 224.441683 
L 620.379648 224.39874 
L 620.76672 224.295744 
L 621.282816 223.980047 
L 623.218176 222.516365 
L 623.637504 222.094518 
L 624.508416 221.472349 
L 625.476096 220.579506 
L 626.314752 219.528344 
L 627.475968 217.930063 
L 633.088512 210.819725 
L 634.120704 209.7173 
L 634.443264 208.899037 
L 636.765696 202.422375 
L 637.21728 201.607802 
L 637.8624 200.595289 
L 638.926848 199.004724 
L 639.733248 198.01536 
L 640.668672 196.77941 
L 641.73312 195.609551 
L 642.53952 194.610458 
L 643.958784 193.351358 
L 644.378112 192.801823 
L 644.79744 191.489381 
L 646.152192 187.05083 
L 646.958592 185.237498 
L 648.02304 183.476169 
L 649.539072 181.459865 
L 655.828992 173.438265 
L 656.667648 172.331144 
L 657.312768 171.358219 
L 657.86112 168.677642 
L 658.473984 166.735147 
L 659.15136 165.399891 
L 659.538432 165.014076 
L 659.860992 164.967107 
L 660.312576 165.171757 
L 660.538368 165.252275 
L 661.054464 165.201951 
L 661.538304 164.883234 
L 663.699456 162.481116 
L 665.409024 160.183 
L 670.182912 154.385708 
L 672.311808 155.160693 
L 673.634304 155.408957 
L 675.11808 155.828321 
L 678.698496 157.059575 
L 680.569344 157.723848 
L 681.149952 157.951982 
L 682.85952 158.545802 
L 689.95584 160.874112 
L 690.407424 161.112311 
L 692.891136 162.279821 
L 697.600512 164.306189 
L 697.761792 164.896654 
L 698.955264 169.117136 
L 699.213312 169.325141 
L 699.503616 169.284882 
L 699.890688 168.959455 
L 700.471296 168.332086 
L 701.309952 167.614134 
L 701.793792 167.349096 
L 702.793728 167.151156 
L 703.309824 167.151156 
L 705.6 167.496713 
L 706.374144 167.630909 
L 706.954752 167.734911 
L 708.115968 167.983175 
L 710.180352 168.523316 
L 714.341376 169.714311 
L 714.696192 169.821668 
L 716.56704 170.32155 
L 718.470144 170.801303 
L 723.405312 171.938619 
L 724.46976 172.163398 
L 725.050368 172.270755 
L 726.114816 172.49218 
L 727.340544 172.727024 
L 728.1792 172.884705 
L 728.534016 172.955158 
L 729.921024 173.206776 
L 730.75968 173.354393 
L 732.566016 173.65298 
L 733.436928 173.817371 
L 734.243328 173.928083 
L 734.95296 174.03544 
L 736.791552 174.310543 
L 737.53344 174.421255 
L 737.920512 174.478289 
L 738.565632 173.780467 
L 738.98496 173.609366 
L 739.79136 173.716723 
L 742.726656 174.82049 
L 746.855424 175.568636 
L 747.69408 175.675993 
L 748.855296 175.806835 
L 756.72576 176.514722 
L 757.338624 176.558336 
L 758.17728 176.622079 
L 761.435136 176.850213 
L 762.048 176.897182 
L 764.78976 177.074992 
L 765.499392 177.111896 
L 767.821824 177.242738 
L 768.563712 177.276287 
L 770.660352 177.386999 
L 771.40224 177.430613 
L 774.047232 177.541325 
L 775.982592 177.631908 
L 776.72448 177.665457 
L 778.401792 177.923786 
L 778.885632 178.447152 
L 779.62752 178.779289 
L 780.75648 178.785999 
L 781.595136 178.504186 
L 782.498304 178.239148 
L 785.659392 178.017723 
L 786.981888 178.044563 
L 787.8528 178.061337 
L 788.49792 178.084822 
L 792.787968 178.195534 
L 793.239552 178.222373 
L 798.432768 178.333085 
L 799.755264 178.359924 
L 805.206528 178.470637 
L 806.56128 178.500831 
L 815.141376 178.611543 
L 815.786496 178.635027 
L 818.65728 178.544445 
L 819.173376 178.021078 
L 819.689472 177.76946 
L 820.59264 177.688942 
L 821.689344 177.913721 
L 824.753664 178.443797 
L 827.463168 178.554509 
L 828.785664 178.581349 
L 858.945024 178.668577 
L 859.557888 179.316075 
L 859.94496 179.49724 
L 860.525568 179.631437 
L 862.912512 179.520725 
L 864.654336 179.228847 
L 865.91232 179.077876 
L 870.492672 178.71219 
L 899.232768 178.638382 
L 899.78112 178.031143 
L 900.329472 177.759395 
L 902.264832 177.866752 
L 905.522688 178.433733 
L 907.68384 178.5478 
L 939.552768 178.638382 
L 940.617216 179.493885 
L 941.55264 179.678406 
L 943.455744 179.571048 
L 946.423296 179.064456 
L 947.52 178.896711 
L 947.52 178.896711 
" clip-path="url(#pdef035af60)" style="fill: none; stroke: #008000; stroke-width: 2; stroke-linecap: square"/>
   </g>
   <g id="patch_10">
    <path d="M 100.8 242.888276 
L 100.8 150.157241 
" style="fill: none; stroke: #bcbcbc; stroke-width: 0.8; stroke-linejoin: miter; stroke-linecap: square"/>
   </g>
   <g id="patch_11">
    <path d="M 987.84 242.888276 
L 987.84 150.157241 
" style="fill: none; stroke: #bcbcbc; stroke-width: 0.8; stroke-linejoin: miter; stroke-linecap: square"/>
   </g>
   <g id="patch_12">
    <path d="M 100.8 242.888276 
L 987.84 242.888276 
" style="fill: none; stroke: #bcbcbc; stroke-width: 0.8; stroke-linejoin: miter; stroke-linecap: square"/>
   </g>
   <g id="patch_13">
    <path d="M 100.8 150.157241 
L 987.84 150.157241 
" style="fill: none; stroke: #bcbcbc; stroke-width: 0.8; stroke-linejoin: miter; stroke-linecap: square"/>
   </g>
  </g>
  <g id="axes_3">
   <g id="patch_14">
    <path d="M 100.8 354.165517 
L 987.84 354.165517 
L 987.84 261.434483 
L 100.8 261.434483 
z
" style="fill: #eeeeee"/>
   </g>
   <g id="matplotlib.axis_5">
    <g id="xtick_13">
     <g id="line2d_37">
      <path d="M 141.12 354.165517 
L 141.12 261.434483 
" clip-path="url(#pfec3757baa)" style="fill: none; stroke-dasharray: 1.85,0.8; stroke-dashoffset: 0; stroke: #b2b2b2; stroke-width: 0.5"/>
     </g>
     <g id="line2d_38">
      <g>
       <use xlink:href="#ma62b8e9ec1" x="141.12" y="354.165517" style="stroke: #000000; stroke-width: 0.8"/>
      </g>
     </g>
    </g>
    <g id="xtick_14">
     <g id="line2d_39">
      <path d="M 302.4 354.165517 
L 302.4 261.434483 
" clip-path="url(#pfec3757baa)" style="fill: none; stroke-dasharray: 1.85,0.8; stroke-dashoffset: 0; stroke: #b2b2b2; stroke-width: 0.5"/>
     </g>
     <g id="line2d_40">
      <g>
       <use xlink:href="#ma62b8e9ec1" x="302.4" y="354.165517" style="stroke: #000000; stroke-width: 0.8"/>
      </g>
     </g>
    </g>
    <g id="xtick_15">
     <g id="line2d_41">
      <path d="M 463.68 354.165517 
L 463.68 261.434483 
" clip-path="url(#pfec3757baa)" style="fill: none; stroke-dasharray: 1.85,0.8; stroke-dashoffset: 0; stroke: #b2b2b2; stroke-width: 0.5"/>
     </g>
     <g id="line2d_42">
      <g>
       <use xlink:href="#ma62b8e9ec1" x="463.68" y="354.165517" style="stroke: #000000; stroke-width: 0.8"/>
      </g>
     </g>
    </g>
    <g id="xtick_16">
     <g id="line2d_43">
      <path d="M 624.96 354.165517 
L 624.96 261.434483 
" clip-path="url(#pfec3757baa)" style="fill: none; stroke-dasharray: 1.85,0.8; stroke-dashoffset: 0; stroke: #b2b2b2; stroke-width: 0.5"/>
     </g>
     <g id="line2d_44">
      <g>
       <use xlink:href="#ma62b8e9ec1" x="624.96" y="354.165517" style="stroke: #000000; stroke-width: 0.8"/>
      </g>
     </g>
    </g>
    <g id="xtick_17">
     <g id="line2d_45">
      <path d="M 786.24 354.165517 
L 786.24 261.434483 
" clip-path="url(#pfec3757baa)" style="fill: none; stroke-dasharray: 1.85,0.8; stroke-dashoffset: 0; stroke: #b2b2b2; stroke-width: 0.5"/>
     </g>
     <g id="line2d_46">
      <g>
       <use xlink:href="#ma62b8e9ec1" x="786.24" y="354.165517" style="stroke: #000000; stroke-width: 0.8"/>
      </g>
     </g>
    </g>
    <g id="xtick_18">
     <g id="line2d_47">
      <path d="M 947.52 354.165517 
L 947.52 261.434483 
" clip-path="url(#pfec3757baa)" style="fill: none; stroke-dasharray: 1.85,0.8; stroke-dashoffset: 0; stroke: #b2b2b2; stroke-width: 0.5"/>
     </g>
     <g id="line2d_48">
      <g>
       <use xlink:href="#ma62b8e9ec1" x="947.52" y="354.165517" style="stroke: #000000; stroke-width: 0.8"/>
      </g>
     </g>
    </g>
   </g>
   <g id="matplotlib.axis_6">
    <g id="ytick_6">
     <g id="line2d_49">
      <path d="M 100.8 348.445054 
L 987.84 348.445054 
" clip-path="url(#pfec3757baa)" style="fill: none; stroke-dasharray: 1.85,0.8; stroke-dashoffset: 0; stroke: #b2b2b2; stroke-width: 0.5"/>
     </g>
     <g id="line2d_50">
      <g>
       <use xlink:href="#me0f7947db7" x="100.8" y="348.445054" style="stroke: #000000; stroke-width: 0.8"/>
      </g>
     </g>
     <g id="text_8">
      <!-- 0 V -->
      <g transform="translate(74.36625 353.76396) scale(0.14 -0.14)">
       <use xlink:href="#DejaVuSans-30"/>
       <use xlink:href="#DejaVuSans-20" x="63.623047"/>
       <use xlink:href="#DejaVuSans-56" x="95.410156"/>
      </g>
     </g>
    </g>
    <g id="ytick_7">
     <g id="line2d_51">
      <path d="M 100.8 305.483491 
L 987.84 305.483491 
" clip-path="url(#pfec3757baa)" style="fill: none; stroke-dasharray: 1.85,0.8; stroke-dashoffset: 0; stroke: #b2b2b2; stroke-width: 0.5"/>
     </g>
     <g id="line2d_52">
      <g>
       <use xlink:href="#me0f7947db7" x="100.8" y="305.483491" style="stroke: #000000; stroke-width: 0.8"/>
      </g>
     </g>
     <g id="text_9">
      <!-- 1 V -->
      <g transform="translate(74.36625 310.802397) scale(0.14 -0.14)">
       <use xlink:href="#DejaVuSans-31"/>
       <use xlink:href="#DejaVuSans-20" x="63.623047"/>
       <use xlink:href="#DejaVuSans-56" x="95.410156"/>
      </g>
     </g>
    </g>
    <g id="ytick_8">
     <g id="line2d_53">
      <path d="M 100.8 262.521928 
L 987.84 262.521928 
" clip-path="url(#pfec3757baa)" style="fill: none; stroke-dasharray: 1.85,0.8; stroke-dashoffset: 0; stroke: #b2b2b2; stroke-width: 0.5"/>
     </g>
     <g id="line2d_54">
      <g>
       <use xlink:href="#me0f7947db7" x="100.8" y="262.521928" style="stroke: #000000; stroke-width: 0.8"/>
      </g>
     </g>
     <g id="text_10">
      <!-- 2 V -->
      <g transform="translate(74.36625 267.840834) scale(0.14 -0.14)">
       <use xlink:href="#DejaVuSans-32"/>
       <use xlink:href="#DejaVuSans-20" x="63.623047"/>
       <use xlink:href="#DejaVuSans-56" x="95.410156"/>
      </g>
     </g>
    </g>
    <g id="text_11">
     <g id="patch_15">
      <path d="M 34.8768 342.395313 
L 34.8768 273.204688 
L 11.247425 273.204688 
L 11.247425 342.395313 
z
" style="fill: #ffff00; opacity: 0.2; stroke: #eeeeee; stroke-width: 0.5; stroke-linejoin: miter"/>
     </g>
     <!-- CLK BUF -->
     <g transform="translate(26.925238 337.355313) rotate(-90) scale(0.14 -0.14)">
      <defs>
       <path id="DejaVuSans-43" d="M 4122 4306 
L 4122 3641 
Q 3803 3938 3442 4084 
Q 3081 4231 2675 4231 
Q 1875 4231 1450 3742 
Q 1025 3253 1025 2328 
Q 1025 1406 1450 917 
Q 1875 428 2675 428 
Q 3081 428 3442 575 
Q 3803 722 4122 1019 
L 4122 359 
Q 3791 134 3420 21 
Q 3050 -91 2638 -91 
Q 1578 -91 968 557 
Q 359 1206 359 2328 
Q 359 3453 968 4101 
Q 1578 4750 2638 4750 
Q 3056 4750 3426 4639 
Q 3797 4528 4122 4306 
z
" transform="scale(0.015625)"/>
       <path id="DejaVuSans-4b" d="M 628 4666 
L 1259 4666 
L 1259 2694 
L 3353 4666 
L 4166 4666 
L 1850 2491 
L 4331 0 
L 3500 0 
L 1259 2247 
L 1259 0 
L 628 0 
L 628 4666 
z
" transform="scale(0.015625)"/>
      </defs>
      <use xlink:href="#DejaVuSans-43"/>
      <use xlink:href="#DejaVuSans-4c" x="69.824219"/>
      <use xlink:href="#DejaVuSans-4b" x="125.537109"/>
      <use xlink:href="#DejaVuSans-20" x="191.113281"/>
      <use xlink:href="#DejaVuSans-42" x="222.900391"/>
      <use xlink:href="#DejaVuSans-55" x="291.503906"/>
      <use xlink:href="#DejaVuSans-46" x="364.697266"/>
     </g>
    </g>
   </g>
   <g id="line2d_55">
    <path d="M 141.12 348.443918 
L 173.376 348.443918 
L 173.601792 296.891178 
L 213.696 296.891178 
L 213.760512 338.013557 
L 213.825024 348.425427 
L 213.889536 348.363603 
L 213.954048 348.53523 
L 214.01856 348.44971 
L 215.373312 348.440267 
L 223.469568 348.443868 
L 254.016 348.443888 
L 254.17728 296.732221 
L 254.241792 297.007175 
L 254.403072 296.882586 
L 254.854656 296.891178 
L 294.336 296.891178 
L 294.400512 337.977469 
L 294.465024 348.765638 
L 294.529536 348.018695 
L 294.626304 348.512568 
L 294.65856 348.481997 
L 294.852096 348.406485 
L 295.206912 348.460687 
L 295.497216 348.443583 
L 320.721408 348.443917 
L 334.656 348.44392 
L 334.81728 296.813848 
L 334.881792 296.908363 
L 335.204352 296.895475 
L 336.075264 296.891178 
L 374.976 296.891178 
L 375.040512 338.017424 
L 375.105024 348.445751 
L 375.169536 348.358156 
L 375.234048 348.528838 
L 375.29856 348.449852 
L 376.717824 348.439911 
L 385.072128 348.443855 
L 415.296 348.44392 
L 415.45728 296.732221 
L 415.521792 297.007175 
L 415.683072 296.87829 
L 416.650752 296.895475 
L 455.616 296.891178 
L 455.680512 337.980047 
L 455.745024 348.77093 
L 455.809536 347.820264 
L 455.906304 349.075386 
L 455.93856 348.514931 
L 456.132096 348.419252 
L 456.519168 348.444363 
L 490.033152 348.443917 
L 495.936 348.443918 
L 496.09728 296.805255 
L 496.161792 296.908363 
L 497.129472 296.891178 
L 536.256 296.891178 
L 536.320512 337.980047 
L 536.385024 348.770883 
L 536.449536 347.82035 
L 536.546304 349.0753 
L 536.57856 348.514927 
L 536.772096 348.419254 
L 537.159168 348.444363 
L 570.673152 348.443925 
L 576.576 348.443925 
L 576.73728 296.869698 
L 576.801792 296.895475 
L 577.672704 296.891178 
L 579.866112 296.959917 
L 581.543424 299.378653 
L 583.18848 302.214116 
L 590.091264 313.948208 
L 593.67168 319.369098 
L 597.38112 324.481094 
L 597.413376 324.456606 
L 597.574656 324.72082 
L 599.090688 326.348204 
L 599.122944 326.328012 
L 599.1552 326.416942 
L 599.348736 326.581485 
L 601.155072 328.206721 
L 603.800064 330.178227 
L 605.638656 331.335182 
L 606.864384 330.697203 
L 607.412736 330.481106 
L 607.638528 330.404205 
L 608.896512 329.9733 
L 609.025536 329.810906 
L 609.15456 329.821646 
L 609.283584 329.823365 
L 609.412608 329.681591 
L 609.541632 329.690613 
L 610.573824 329.302241 
L 613.638144 328.209299 
L 613.767168 328.083421 
L 613.896192 328.116072 
L 616.25088 327.292069 
L 616.379904 327.170488 
L 616.541184 327.23493 
L 616.670208 327.063514 
L 616.799232 327.135689 
L 616.928256 326.740013 
L 616.992768 325.553844 
L 617.025024 326.09559 
L 617.089536 332.014404 
L 617.250816 349.95047 
L 617.283072 349.908969 
L 617.637888 349.856599 
L 619.702272 349.360522 
L 623.66976 348.590964 
L 628.314624 347.916756 
L 629.443584 347.884663 
L 634.540032 347.919076 
L 636.281856 347.942318 
L 644.378112 347.944595 
L 645.023232 347.321996 
L 645.797376 346.912443 
L 646.797312 346.663352 
L 648.281088 346.556077 
L 650.990592 346.607674 
L 657.216 346.864713 
L 657.441792 286.365595 
L 658.054656 285.278668 
L 662.37696 278.009571 
L 663.118848 276.841017 
L 666.021888 272.033618 
L 666.634752 271.032614 
L 668.054016 268.794316 
L 669.279744 266.981338 
L 670.150656 265.774118 
L 671.602176 265.688195 
L 674.021376 266.444319 
L 675.505152 267.110223 
L 677.472768 268.012416 
L 677.892096 268.210039 
L 680.472576 269.357113 
L 682.182144 270.143309 
L 689.95584 273.356834 
L 690.504192 273.657565 
L 691.149312 274.027035 
L 691.762176 274.379319 
L 694.020096 275.702536 
L 694.697472 276.102078 
L 697.536 277.65299 
L 697.729536 348.970431 
L 697.85856 348.895764 
L 708.954624 348.784949 
L 715.889664 348.744539 
L 737.856 348.602229 
L 737.985024 290.777748 
L 738.081792 291.181587 
L 738.791424 291.276102 
L 739.14624 291.353433 
L 739.79136 291.460837 
L 740.146176 291.525279 
L 740.855808 291.632683 
L 741.210624 291.697125 
L 741.823488 291.804529 
L 742.178304 291.868972 
L 742.984704 291.976376 
L 743.33952 292.040818 
L 744.049152 292.148222 
L 744.403968 292.212664 
L 745.210368 292.320068 
L 745.468416 292.341549 
L 746.178048 292.448953 
L 746.532864 292.513395 
L 747.436032 292.620799 
L 747.790848 292.685241 
L 748.694016 292.792645 
L 748.952064 292.814126 
L 749.758464 292.92153 
L 750.081024 292.981676 
L 751.08096 293.080488 
L 751.532544 293.153522 
L 752.53248 293.252334 
L 752.984064 293.325369 
L 754.080768 293.42418 
L 754.532352 293.497215 
L 755.629056 293.596027 
L 755.983872 293.630396 
L 756.919296 293.7378 
L 757.177344 293.75928 
L 758.274048 293.866684 
L 758.532096 293.888165 
L 759.6288 293.995569 
L 759.886848 294.01705 
L 761.08032 294.124454 
L 761.338368 294.145935 
L 762.53184 294.253338 
L 762.789888 294.274819 
L 764.176896 294.382223 
L 764.434944 294.403704 
L 765.821952 294.511108 
L 766.08 294.532589 
L 767.563776 294.639993 
L 767.821824 294.657177 
L 769.370112 294.755989 
L 769.724928 294.786062 
L 771.305472 294.884873 
L 771.660288 294.914947 
L 773.434368 295.013758 
L 773.789184 295.043831 
L 775.660032 295.142643 
L 776.014848 295.172716 
L 778.079232 295.271528 
L 778.176 295.301601 
L 778.208256 300.143369 
L 778.33728 348.440296 
L 778.49856 348.487925 
L 815.496192 348.457452 
L 818.496 348.456222 
L 818.592768 296.165128 
L 818.689536 296.354159 
L 818.721792 295.821436 
L 818.786304 296.457267 
L 818.915328 296.461563 
L 858.816 296.461563 
L 858.945024 348.773358 
L 859.106304 348.523291 
L 859.364352 348.427517 
L 859.719168 348.474283 
L 860.041728 348.455997 
L 897.878016 348.456221 
L 899.136 348.456222 
L 899.29728 296.238163 
L 899.361792 296.723628 
L 899.45856 296.281124 
L 899.523072 296.444378 
L 900.006912 296.461563 
L 939.456 296.461563 
L 939.488256 304.207533 
L 939.61728 348.405161 
L 939.649536 348.530105 
L 939.714048 348.410553 
L 939.746304 348.372844 
L 939.810816 348.428284 
L 940.004352 348.481928 
L 940.230144 348.454858 
L 945.649152 348.456225 
L 947.52 348.456211 
L 947.52 348.456211 
" clip-path="url(#pfec3757baa)" style="fill: none; stroke: #0000ff; stroke-width: 2; stroke-linecap: square"/>
   </g>
   <g id="patch_16">
    <path d="M 100.8 354.165517 
L 100.8 261.434483 
" style="fill: none; stroke: #bcbcbc; stroke-width: 0.8; stroke-linejoin: miter; stroke-linecap: square"/>
   </g>
   <g id="patch_17">
    <path d="M 987.84 354.165517 
L 987.84 261.434483 
" style="fill: none; stroke: #bcbcbc; stroke-width: 0.8; stroke-linejoin: miter; stroke-linecap: square"/>
   </g>
   <g id="patch_18">
    <path d="M 100.8 354.165517 
L 987.84 354.165517 
" style="fill: none; stroke: #bcbcbc; stroke-width: 0.8; stroke-linejoin: miter; stroke-linecap: square"/>
   </g>
   <g id="patch_19">
    <path d="M 100.8 261.434483 
L 987.84 261.434483 
" style="fill: none; stroke: #bcbcbc; stroke-width: 0.8; stroke-linejoin: miter; stroke-linecap: square"/>
   </g>
  </g>
  <g id="axes_4">
   <g id="patch_20">
    <path d="M 100.8 465.442759 
L 987.84 465.442759 
L 987.84 372.711724 
L 100.8 372.711724 
z
" style="fill: #eeeeee"/>
   </g>
   <g id="matplotlib.axis_7">
    <g id="xtick_19">
     <g id="line2d_56">
      <path d="M 141.12 465.442759 
L 141.12 372.711724 
" clip-path="url(#p1b673984ca)" style="fill: none; stroke-dasharray: 1.85,0.8; stroke-dashoffset: 0; stroke: #b2b2b2; stroke-width: 0.5"/>
     </g>
     <g id="line2d_57">
      <g>
       <use xlink:href="#ma62b8e9ec1" x="141.12" y="465.442759" style="stroke: #000000; stroke-width: 0.8"/>
      </g>
     </g>
    </g>
    <g id="xtick_20">
     <g id="line2d_58">
      <path d="M 302.4 465.442759 
L 302.4 372.711724 
" clip-path="url(#p1b673984ca)" style="fill: none; stroke-dasharray: 1.85,0.8; stroke-dashoffset: 0; stroke: #b2b2b2; stroke-width: 0.5"/>
     </g>
     <g id="line2d_59">
      <g>
       <use xlink:href="#ma62b8e9ec1" x="302.4" y="465.442759" style="stroke: #000000; stroke-width: 0.8"/>
      </g>
     </g>
    </g>
    <g id="xtick_21">
     <g id="line2d_60">
      <path d="M 463.68 465.442759 
L 463.68 372.711724 
" clip-path="url(#p1b673984ca)" style="fill: none; stroke-dasharray: 1.85,0.8; stroke-dashoffset: 0; stroke: #b2b2b2; stroke-width: 0.5"/>
     </g>
     <g id="line2d_61">
      <g>
       <use xlink:href="#ma62b8e9ec1" x="463.68" y="465.442759" style="stroke: #000000; stroke-width: 0.8"/>
      </g>
     </g>
    </g>
    <g id="xtick_22">
     <g id="line2d_62">
      <path d="M 624.96 465.442759 
L 624.96 372.711724 
" clip-path="url(#p1b673984ca)" style="fill: none; stroke-dasharray: 1.85,0.8; stroke-dashoffset: 0; stroke: #b2b2b2; stroke-width: 0.5"/>
     </g>
     <g id="line2d_63">
      <g>
       <use xlink:href="#ma62b8e9ec1" x="624.96" y="465.442759" style="stroke: #000000; stroke-width: 0.8"/>
      </g>
     </g>
    </g>
    <g id="xtick_23">
     <g id="line2d_64">
      <path d="M 786.24 465.442759 
L 786.24 372.711724 
" clip-path="url(#p1b673984ca)" style="fill: none; stroke-dasharray: 1.85,0.8; stroke-dashoffset: 0; stroke: #b2b2b2; stroke-width: 0.5"/>
     </g>
     <g id="line2d_65">
      <g>
       <use xlink:href="#ma62b8e9ec1" x="786.24" y="465.442759" style="stroke: #000000; stroke-width: 0.8"/>
      </g>
     </g>
    </g>
    <g id="xtick_24">
     <g id="line2d_66">
      <path d="M 947.52 465.442759 
L 947.52 372.711724 
" clip-path="url(#p1b673984ca)" style="fill: none; stroke-dasharray: 1.85,0.8; stroke-dashoffset: 0; stroke: #b2b2b2; stroke-width: 0.5"/>
     </g>
     <g id="line2d_67">
      <g>
       <use xlink:href="#ma62b8e9ec1" x="947.52" y="465.442759" style="stroke: #000000; stroke-width: 0.8"/>
      </g>
     </g>
    </g>
   </g>
   <g id="matplotlib.axis_8">
    <g id="ytick_9">
     <g id="line2d_68">
      <path d="M 100.8 437.463943 
L 987.84 437.463943 
" clip-path="url(#p1b673984ca)" style="fill: none; stroke-dasharray: 1.85,0.8; stroke-dashoffset: 0; stroke: #b2b2b2; stroke-width: 0.5"/>
     </g>
     <g id="line2d_69">
      <g>
       <use xlink:href="#me0f7947db7" x="100.8" y="437.463943" style="stroke: #000000; stroke-width: 0.8"/>
      </g>
     </g>
     <g id="text_12">
      <!-- 0 V -->
      <g transform="translate(74.36625 442.782849) scale(0.14 -0.14)">
       <use xlink:href="#DejaVuSans-30"/>
       <use xlink:href="#DejaVuSans-20" x="63.623047"/>
       <use xlink:href="#DejaVuSans-56" x="95.410156"/>
      </g>
     </g>
    </g>
    <g id="ytick_10">
     <g id="line2d_70">
      <path d="M 100.8 395.926155 
L 987.84 395.926155 
" clip-path="url(#p1b673984ca)" style="fill: none; stroke-dasharray: 1.85,0.8; stroke-dashoffset: 0; stroke: #b2b2b2; stroke-width: 0.5"/>
     </g>
     <g id="line2d_71">
      <g>
       <use xlink:href="#me0f7947db7" x="100.8" y="395.926155" style="stroke: #000000; stroke-width: 0.8"/>
      </g>
     </g>
     <g id="text_13">
      <!-- 1 V -->
      <g transform="translate(74.36625 401.245062) scale(0.14 -0.14)">
       <use xlink:href="#DejaVuSans-31"/>
       <use xlink:href="#DejaVuSans-20" x="63.623047"/>
       <use xlink:href="#DejaVuSans-56" x="95.410156"/>
      </g>
     </g>
    </g>
    <g id="text_14">
     <g id="patch_21">
      <path d="M 34.8768 454.693023 
L 34.8768 383.46146 
L 11.247425 383.46146 
L 11.247425 454.693023 
z
" style="fill: #ffff00; opacity: 0.2; stroke: #eeeeee; stroke-width: 0.5; stroke-linejoin: miter"/>
     </g>
     <!-- DFF OUT -->
     <g transform="translate(26.925238 449.653023) rotate(-90) scale(0.14 -0.14)">
      <defs>
       <path id="DejaVuSans-4f" d="M 2522 4238 
Q 1834 4238 1429 3725 
Q 1025 3213 1025 2328 
Q 1025 1447 1429 934 
Q 1834 422 2522 422 
Q 3209 422 3611 934 
Q 4013 1447 4013 2328 
Q 4013 3213 3611 3725 
Q 3209 4238 2522 4238 
z
M 2522 4750 
Q 3503 4750 4090 4092 
Q 4678 3434 4678 2328 
Q 4678 1225 4090 567 
Q 3503 -91 2522 -91 
Q 1538 -91 948 565 
Q 359 1222 359 2328 
Q 359 3434 948 4092 
Q 1538 4750 2522 4750 
z
" transform="scale(0.015625)"/>
       <path id="DejaVuSans-54" d="M -19 4666 
L 3928 4666 
L 3928 4134 
L 2272 4134 
L 2272 0 
L 1638 0 
L 1638 4134 
L -19 4134 
L -19 4666 
z
" transform="scale(0.015625)"/>
      </defs>
      <use xlink:href="#DejaVuSans-44"/>
      <use xlink:href="#DejaVuSans-46" x="77.001953"/>
      <use xlink:href="#DejaVuSans-46" x="134.521484"/>
      <use xlink:href="#DejaVuSans-20" x="192.041016"/>
      <use xlink:href="#DejaVuSans-4f" x="223.828125"/>
      <use xlink:href="#DejaVuSans-55" x="302.539062"/>
      <use xlink:href="#DejaVuSans-54" x="375.732422"/>
     </g>
    </g>
   </g>
   <g id="line2d_72">
    <path d="M 141.12 406.122436 
L 173.408256 406.173112 
L 173.440512 407.892777 
L 173.601792 437.466478 
L 174.085632 437.461286 
L 183.923712 437.462843 
L 254.048256 437.464576 
L 254.080512 437.630626 
L 254.112768 437.355957 
L 254.306304 433.300611 
L 254.596608 432.487716 
L 254.693376 431.907849 
L 255.14496 424.630428 
L 255.370752 407.525998 
L 255.596544 388.021514 
L 255.757824 387.680904 
L 255.983616 387.614444 
L 256.854528 387.618598 
L 295.755264 387.701673 
L 296.239104 390.389168 
L 296.59392 389.716256 
L 297.948672 387.959208 
L 299.561472 387.651828 
L 334.688256 387.635213 
L 334.720512 387.514753 
L 334.752768 388.125359 
L 334.785024 391.145156 
L 334.914048 437.446916 
L 334.97856 437.410359 
L 335.13984 437.455237 
L 335.494656 437.46334 
L 365.524992 437.4628 
L 415.328256 437.464551 
L 415.360512 437.630049 
L 415.392768 437.358259 
L 415.586304 433.203828 
L 415.876608 432.250535 
L 415.908864 432.136307 
L 416.1024 427.21034 
L 416.521728 412.869834 
L 416.9088 387.755672 
L 417.102336 387.622752 
L 417.682944 387.651828 
L 418.166784 387.61029 
L 418.940928 387.618598 
L 495.968256 387.635213 
L 496.000512 387.776441 
L 496.065024 387.585368 
L 496.355328 387.61029 
L 576.608256 387.61029 
L 576.640512 387.822133 
L 576.705024 387.618598 
L 577.188864 387.606136 
L 579.866112 387.685058 
L 580.833792 388.97273 
L 582.124032 390.987312 
L 587.736576 400.588772 
L 588.381696 402.201269 
L 588.897792 404.133191 
L 588.930048 404.086254 
L 588.962304 404.196329 
L 589.188096 405.379325 
L 590.44608 410.739777 
L 590.639616 412.069817 
L 590.92992 413.285212 
L 590.962176 412.996525 
L 591.026688 413.306397 
L 591.058944 413.191752 
L 591.220224 414.793865 
L 591.478272 416.032937 
L 591.542784 415.838125 
L 591.607296 415.991814 
L 591.639552 416.121412 
L 591.800832 417.679079 
L 592.123392 419.182747 
L 592.155648 419.032381 
L 592.187904 418.882014 
L 592.252416 419.068934 
L 592.413696 420.640724 
L 592.671744 421.769305 
L 592.736256 421.688722 
L 592.833024 422.011055 
L 592.994304 423.629783 
L 594.768384 432.147937 
L 595.28448 434.299511 
L 595.316736 433.602798 
L 595.381248 434.467158 
L 595.574784 435.496672 
L 595.897344 436.736741 
L 595.9296 436.221133 
L 595.994112 436.565564 
L 596.445696 439.070168 
L 596.542464 439.4627 
L 596.57472 439.39732 
L 596.606976 439.205996 
L 596.671488 439.406333 
L 596.800512 440.121448 
L 596.961792 441.063276 
L 597.445632 442.53363 
L 597.510144 442.296865 
L 597.5424 442.410678 
L 598.219776 444.612596 
L 598.929408 446.227586 
L 598.961664 446.293631 
L 598.99392 445.969636 
L 599.058432 446.113357 
L 599.31648 447.117325 
L 602.800128 455.397468 
L 605.703168 461.213173 
L 605.735424 461.168313 
L 605.832192 461.125113 
L 607.05792 458.767428 
L 607.186944 458.316743 
L 607.2192 458.388604 
L 607.412736 457.937919 
L 607.444992 457.981949 
L 607.638528 457.602293 
L 608.34816 456.477035 
L 608.412672 456.553049 
L 608.573952 456.107764 
L 608.864256 455.718555 
L 608.896512 455.907136 
L 608.928768 455.649187 
L 608.961024 455.716478 
L 609.122304 455.346792 
L 609.186816 455.483036 
L 609.31584 455.157795 
L 609.380352 455.251255 
L 609.509376 454.928091 
L 609.573888 455.009505 
L 609.606144 454.836708 
L 609.702912 454.869107 
L 610.799616 453.303963 
L 610.831872 453.37167 
L 610.864128 453.227534 
L 610.896384 453.174365 
L 610.92864 453.367931 
L 610.960896 453.109151 
L 611.154432 452.859509 
L 611.186688 453.112059 
L 611.2512 452.746111 
L 611.283456 452.740295 
L 611.315712 452.856186 
L 611.347968 452.660127 
L 611.380224 452.629805 
L 611.41248 452.793464 
L 611.444736 452.548806 
L 611.670528 452.321179 
L 611.702784 452.534683 
L 611.767296 452.235611 
L 611.799552 452.361055 
L 611.831808 452.160843 
L 612.412416 451.78908 
L 612.799488 451.194259 
L 613.057536 450.757281 
L 613.34784 450.385934 
L 613.380096 450.442425 
L 613.412352 450.643468 
L 613.444608 450.490193 
L 613.573632 450.11303 
L 613.605888 450.421656 
L 613.6704 450.074816 
L 613.734912 450.235982 
L 613.863936 449.805235 
L 615.315456 448.647993 
L 615.799296 448.085986 
L 615.92832 447.580471 
L 616.121856 447.327506 
L 616.186368 447.269769 
L 616.25088 447.610794 
L 616.379904 447.067064 
L 616.41216 447.058757 
L 616.444416 447.413489 
L 616.476672 446.940789 
L 616.541184 447.321691 
L 616.670208 446.7601 
L 616.702464 446.760931 
L 616.73472 447.099048 
L 616.799232 446.990635 
L 616.960512 446.534965 
L 618.315264 445.539305 
L 618.476544 445.280524 
L 618.637824 444.812809 
L 618.67008 444.755071 
L 618.702336 444.791624 
L 618.734592 444.911253 
L 618.766848 444.672411 
L 618.83136 444.55569 
L 618.863616 444.935345 
L 618.895872 444.519136 
L 618.928128 444.54489 
L 619.057152 444.311447 
L 619.218432 444.134497 
L 619.250688 444.553613 
L 619.347456 444.411138 
L 619.47648 443.892331 
L 620.250624 443.38557 
L 620.28288 443.483599 
L 620.347392 443.38557 
L 620.573184 443.333648 
L 620.863488 443.103113 
L 621.831168 442.130298 
L 621.992448 441.961239 
L 622.121472 441.338713 
L 622.185984 441.280061 
L 622.21824 441.539049 
L 622.250496 441.449286 
L 622.347264 441.534896 
L 622.37952 440.986265 
L 622.411776 441.091812 
L 622.444032 440.994032 
L 622.476288 440.902524 
L 622.5408 441.324008 
L 622.573056 440.836978 
L 622.669824 440.948714 
L 622.70208 440.889025 
L 622.734336 440.668708 
L 622.798848 440.914196 
L 622.831104 441.126039 
L 622.86336 440.825347 
L 622.927872 441.053431 
L 622.960128 440.549287 
L 623.056896 440.898287 
L 623.089152 440.80761 
L 623.250432 440.406106 
L 623.282688 440.419108 
L 623.314944 440.624927 
L 623.3472 440.38891 
L 623.379456 440.395389 
L 623.734272 440.298565 
L 624.96 439.031205 
L 625.12128 438.806777 
L 625.314816 437.874391 
L 625.379328 438.268364 
L 625.411584 438.12942 
L 625.508352 437.538279 
L 625.572864 437.777367 
L 625.60512 437.965678 
L 625.637376 437.688995 
L 625.7664 437.477254 
L 625.92768 437.445795 
L 626.669568 436.089707 
L 626.798592 435.1117 
L 626.863104 435.257414 
L 626.89536 435.605127 
L 626.927616 434.986588 
L 626.992128 435.474865 
L 627.121152 434.709323 
L 627.185664 435.028043 
L 627.21792 434.79323 
L 627.411456 434.682614 
L 627.830784 433.854642 
L 628.250112 432.972047 
L 628.379136 432.010032 
L 628.411392 431.993001 
L 628.443648 432.675052 
L 628.50816 432.201521 
L 628.701696 431.90411 
L 628.766208 432.045339 
L 628.798464 431.909926 
L 629.766144 429.955988 
L 629.7984 429.986311 
L 629.830656 429.897004 
L 630.024192 429.547256 
L 633.282048 422.711382 
L 635.314176 418.528112 
L 635.346432 418.545142 
L 635.378688 418.480343 
L 635.701248 417.348854 
L 635.830272 417.460175 
L 635.894784 417.513344 
L 635.92704 417.458514 
L 636.507648 416.263056 
L 637.249536 415.049322 
L 637.346304 414.563745 
L 637.37856 414.594899 
L 637.443072 414.696251 
L 637.475328 414.644329 
L 638.055936 413.499547 
L 638.862336 412.243029 
L 638.894592 412.28249 
L 638.926848 412.196091 
L 639.15264 411.905327 
L 639.410688 411.314244 
L 640.44288 409.691363 
L 641.346048 408.524566 
L 641.57184 407.898177 
L 642.313728 406.947792 
L 642.926592 406.378724 
L 643.894272 405.070284 
L 644.184576 404.522816 
L 644.47488 404.217513 
L 645.12 402.057133 
L 645.797376 400.602895 
L 648.700416 394.484794 
L 651.442176 388.735964 
L 652.119552 387.394294 
L 654.377472 382.991288 
L 655.570944 380.777324 
L 657.280512 377.732604 
L 657.312768 376.926771 
L 657.603072 435.952134 
L 664.344576 436.103664 
L 666.505728 436.086633 
L 670.150656 436.255484 
L 670.860288 436.937286 
L 671.666688 437.364439 
L 672.634368 437.62695 
L 674.118144 437.789691 
L 677.05344 437.852114 
L 703.922688 437.837937 
L 714.599424 437.766014 
L 737.888256 437.608191 
L 737.920512 437.912717 
L 738.243072 431.780328 
L 738.50112 430.396704 
L 738.6624 428.179001 
L 738.82368 421.862765 
L 739.017216 404.200898 
L 739.243008 382.484527 
L 739.404288 382.305915 
L 740.081664 382.413913 
L 740.630016 382.513604 
L 741.339648 382.617448 
L 741.694464 382.679755 
L 742.404096 382.787753 
L 742.85568 382.845906 
L 743.468544 382.94975 
L 743.82336 383.012057 
L 744.62976 383.115902 
L 744.984576 383.178208 
L 745.887744 383.282053 
L 746.24256 383.344359 
L 747.04896 383.448204 
L 747.307008 383.468973 
L 748.01664 383.572817 
L 748.274688 383.593586 
L 749.081088 383.697431 
L 749.435904 383.759737 
L 750.43584 383.863582 
L 750.790656 383.925888 
L 751.790592 384.029733 
L 752.04864 384.050502 
L 752.951808 384.154346 
L 753.209856 384.175115 
L 754.113024 384.27896 
L 754.371072 384.299729 
L 755.27424 384.403573 
L 755.532288 384.424342 
L 756.532224 384.528186 
L 756.790272 384.548955 
L 757.790208 384.6528 
L 758.048256 384.673569 
L 759.14496 384.777413 
L 759.403008 384.798182 
L 760.59648 384.902026 
L 760.854528 384.922795 
L 762.048 385.02664 
L 762.306048 385.047409 
L 763.596288 385.151253 
L 763.854336 385.172022 
L 765.241344 385.275867 
L 765.499392 385.296635 
L 766.983168 385.40048 
L 767.241216 385.421249 
L 768.724992 385.525093 
L 768.98304 385.541708 
L 770.660352 385.649707 
L 770.9184 385.670476 
L 772.69248 385.77432 
L 772.950528 385.795089 
L 774.918144 385.898933 
L 775.176192 385.919702 
L 777.240576 386.023547 
L 777.498624 386.044316 
L 779.853312 386.14816 
L 780.175872 386.164775 
L 782.562816 386.272773 
L 782.820864 386.289389 
L 785.659392 386.397387 
L 785.91744 386.414002 
L 789.046272 386.522 
L 789.30432 386.538615 
L 792.820224 386.646614 
L 793.078272 386.663229 
L 797.078016 386.771227 
L 797.336064 386.787842 
L 802.013184 386.89584 
L 802.335744 386.912455 
L 807.916032 387.020454 
L 808.270848 387.041223 
L 815.173632 387.145067 
L 815.528448 387.165836 
L 818.528256 387.20322 
L 818.592768 387.369371 
L 818.625024 387.20322 
L 818.65728 387.124298 
L 818.721792 387.23645 
L 818.97984 387.194912 
L 899.168256 387.199066 
L 899.200512 387.410909 
L 899.265024 387.199066 
L 899.45856 387.178297 
L 900.490752 387.20322 
L 947.52 387.20322 
L 947.52 387.20322 
" clip-path="url(#p1b673984ca)" style="fill: none; stroke: #ff00ff; stroke-width: 2; stroke-linecap: square"/>
   </g>
   <g id="patch_22">
    <path d="M 100.8 465.442759 
L 100.8 372.711724 
" style="fill: none; stroke: #bcbcbc; stroke-width: 0.8; stroke-linejoin: miter; stroke-linecap: square"/>
   </g>
   <g id="patch_23">
    <path d="M 987.84 465.442759 
L 987.84 372.711724 
" style="fill: none; stroke: #bcbcbc; stroke-width: 0.8; stroke-linejoin: miter; stroke-linecap: square"/>
   </g>
   <g id="patch_24">
    <path d="M 100.8 465.442759 
L 987.84 465.442759 
" style="fill: none; stroke: #bcbcbc; stroke-width: 0.8; stroke-linejoin: miter; stroke-linecap: square"/>
   </g>
   <g id="patch_25">
    <path d="M 100.8 372.711724 
L 987.84 372.711724 
" style="fill: none; stroke: #bcbcbc; stroke-width: 0.8; stroke-linejoin: miter; stroke-linecap: square"/>
   </g>
  </g>
  <g id="axes_5">
   <g id="patch_26">
    <path d="M 100.8 576.72 
L 987.84 576.72 
L 987.84 483.988966 
L 100.8 483.988966 
z
" style="fill: #eeeeee"/>
   </g>
   <g id="matplotlib.axis_9">
    <g id="xtick_25">
     <g id="line2d_73">
      <path d="M 141.12 576.72 
L 141.12 483.988966 
" clip-path="url(#pfe0ffd5aeb)" style="fill: none; stroke-dasharray: 1.85,0.8; stroke-dashoffset: 0; stroke: #b2b2b2; stroke-width: 0.5"/>
     </g>
     <g id="line2d_74">
      <g>
       <use xlink:href="#ma62b8e9ec1" x="141.12" y="576.72" style="stroke: #000000; stroke-width: 0.8"/>
      </g>
     </g>
     <g id="text_15">
      <!-- 0 s -->
      <g transform="translate(130.795 590.857813) scale(0.14 -0.14)">
       <defs>
        <path id="DejaVuSans-73" d="M 2834 3397 
L 2834 2853 
Q 2591 2978 2328 3040 
Q 2066 3103 1784 3103 
Q 1356 3103 1142 2972 
Q 928 2841 928 2578 
Q 928 2378 1081 2264 
Q 1234 2150 1697 2047 
L 1894 2003 
Q 2506 1872 2764 1633 
Q 3022 1394 3022 966 
Q 3022 478 2636 193 
Q 2250 -91 1575 -91 
Q 1294 -91 989 -36 
Q 684 19 347 128 
L 347 722 
Q 666 556 975 473 
Q 1284 391 1588 391 
Q 1994 391 2212 530 
Q 2431 669 2431 922 
Q 2431 1156 2273 1281 
Q 2116 1406 1581 1522 
L 1381 1569 
Q 847 1681 609 1914 
Q 372 2147 372 2553 
Q 372 3047 722 3315 
Q 1072 3584 1716 3584 
Q 2034 3584 2315 3537 
Q 2597 3491 2834 3397 
z
" transform="scale(0.015625)"/>
       </defs>
       <use xlink:href="#DejaVuSans-30"/>
       <use xlink:href="#DejaVuSans-20" x="63.623047"/>
       <use xlink:href="#DejaVuSans-73" x="95.410156"/>
      </g>
     </g>
    </g>
    <g id="xtick_26">
     <g id="line2d_75">
      <path d="M 302.4 576.72 
L 302.4 483.988966 
" clip-path="url(#pfe0ffd5aeb)" style="fill: none; stroke-dasharray: 1.85,0.8; stroke-dashoffset: 0; stroke: #b2b2b2; stroke-width: 0.5"/>
     </g>
     <g id="line2d_76">
      <g>
       <use xlink:href="#ma62b8e9ec1" x="302.4" y="576.72" style="stroke: #000000; stroke-width: 0.8"/>
      </g>
     </g>
     <g id="text_16">
      <!-- 50 ns -->
      <g transform="translate(283.185 590.857813) scale(0.14 -0.14)">
       <defs>
        <path id="DejaVuSans-35" d="M 691 4666 
L 3169 4666 
L 3169 4134 
L 1269 4134 
L 1269 2991 
Q 1406 3038 1543 3061 
Q 1681 3084 1819 3084 
Q 2600 3084 3056 2656 
Q 3513 2228 3513 1497 
Q 3513 744 3044 326 
Q 2575 -91 1722 -91 
Q 1428 -91 1123 -41 
Q 819 9 494 109 
L 494 744 
Q 775 591 1075 516 
Q 1375 441 1709 441 
Q 2250 441 2565 725 
Q 2881 1009 2881 1497 
Q 2881 1984 2565 2268 
Q 2250 2553 1709 2553 
Q 1456 2553 1204 2497 
Q 953 2441 691 2322 
L 691 4666 
z
" transform="scale(0.015625)"/>
        <path id="DejaVuSans-6e" d="M 3513 2113 
L 3513 0 
L 2938 0 
L 2938 2094 
Q 2938 2591 2744 2837 
Q 2550 3084 2163 3084 
Q 1697 3084 1428 2787 
Q 1159 2491 1159 1978 
L 1159 0 
L 581 0 
L 581 3500 
L 1159 3500 
L 1159 2956 
Q 1366 3272 1645 3428 
Q 1925 3584 2291 3584 
Q 2894 3584 3203 3211 
Q 3513 2838 3513 2113 
z
" transform="scale(0.015625)"/>
       </defs>
       <use xlink:href="#DejaVuSans-35"/>
       <use xlink:href="#DejaVuSans-30" x="63.623047"/>
       <use xlink:href="#DejaVuSans-20" x="127.246094"/>
       <use xlink:href="#DejaVuSans-6e" x="159.033203"/>
       <use xlink:href="#DejaVuSans-73" x="222.412109"/>
      </g>
     </g>
    </g>
    <g id="xtick_27">
     <g id="line2d_77">
      <path d="M 463.68 576.72 
L 463.68 483.988966 
" clip-path="url(#pfe0ffd5aeb)" style="fill: none; stroke-dasharray: 1.85,0.8; stroke-dashoffset: 0; stroke: #b2b2b2; stroke-width: 0.5"/>
     </g>
     <g id="line2d_78">
      <g>
       <use xlink:href="#ma62b8e9ec1" x="463.68" y="576.72" style="stroke: #000000; stroke-width: 0.8"/>
      </g>
     </g>
     <g id="text_17">
      <!-- 100 ns -->
      <g transform="translate(440.01125 590.857813) scale(0.14 -0.14)">
       <use xlink:href="#DejaVuSans-31"/>
       <use xlink:href="#DejaVuSans-30" x="63.623047"/>
       <use xlink:href="#DejaVuSans-30" x="127.246094"/>
       <use xlink:href="#DejaVuSans-20" x="190.869141"/>
       <use xlink:href="#DejaVuSans-6e" x="222.65625"/>
       <use xlink:href="#DejaVuSans-73" x="286.035156"/>
      </g>
     </g>
    </g>
    <g id="xtick_28">
     <g id="line2d_79">
      <path d="M 624.96 576.72 
L 624.96 483.988966 
" clip-path="url(#pfe0ffd5aeb)" style="fill: none; stroke-dasharray: 1.85,0.8; stroke-dashoffset: 0; stroke: #b2b2b2; stroke-width: 0.5"/>
     </g>
     <g id="line2d_80">
      <g>
       <use xlink:href="#ma62b8e9ec1" x="624.96" y="576.72" style="stroke: #000000; stroke-width: 0.8"/>
      </g>
     </g>
     <g id="text_18">
      <!-- 150 ns -->
      <g transform="translate(601.29125 590.857813) scale(0.14 -0.14)">
       <use xlink:href="#DejaVuSans-31"/>
       <use xlink:href="#DejaVuSans-35" x="63.623047"/>
       <use xlink:href="#DejaVuSans-30" x="127.246094"/>
       <use xlink:href="#DejaVuSans-20" x="190.869141"/>
       <use xlink:href="#DejaVuSans-6e" x="222.65625"/>
       <use xlink:href="#DejaVuSans-73" x="286.035156"/>
      </g>
     </g>
    </g>
    <g id="xtick_29">
     <g id="line2d_81">
      <path d="M 786.24 576.72 
L 786.24 483.988966 
" clip-path="url(#pfe0ffd5aeb)" style="fill: none; stroke-dasharray: 1.85,0.8; stroke-dashoffset: 0; stroke: #b2b2b2; stroke-width: 0.5"/>
     </g>
     <g id="line2d_82">
      <g>
       <use xlink:href="#ma62b8e9ec1" x="786.24" y="576.72" style="stroke: #000000; stroke-width: 0.8"/>
      </g>
     </g>
     <g id="text_19">
      <!-- 200 ns -->
      <g transform="translate(762.57125 590.857813) scale(0.14 -0.14)">
       <use xlink:href="#DejaVuSans-32"/>
       <use xlink:href="#DejaVuSans-30" x="63.623047"/>
       <use xlink:href="#DejaVuSans-30" x="127.246094"/>
       <use xlink:href="#DejaVuSans-20" x="190.869141"/>
       <use xlink:href="#DejaVuSans-6e" x="222.65625"/>
       <use xlink:href="#DejaVuSans-73" x="286.035156"/>
      </g>
     </g>
    </g>
    <g id="xtick_30">
     <g id="line2d_83">
      <path d="M 947.52 576.72 
L 947.52 483.988966 
" clip-path="url(#pfe0ffd5aeb)" style="fill: none; stroke-dasharray: 1.85,0.8; stroke-dashoffset: 0; stroke: #b2b2b2; stroke-width: 0.5"/>
     </g>
     <g id="line2d_84">
      <g>
       <use xlink:href="#ma62b8e9ec1" x="947.52" y="576.72" style="stroke: #000000; stroke-width: 0.8"/>
      </g>
     </g>
     <g id="text_20">
      <!-- 250 ns -->
      <g transform="translate(923.85125 590.857813) scale(0.14 -0.14)">
       <use xlink:href="#DejaVuSans-32"/>
       <use xlink:href="#DejaVuSans-35" x="63.623047"/>
       <use xlink:href="#DejaVuSans-30" x="127.246094"/>
       <use xlink:href="#DejaVuSans-20" x="190.869141"/>
       <use xlink:href="#DejaVuSans-6e" x="222.65625"/>
       <use xlink:href="#DejaVuSans-73" x="286.035156"/>
      </g>
     </g>
    </g>
    <g id="text_21">
     <!-- Time -->
     <g transform="translate(527.192969 608.407187) scale(0.14 -0.14)">
      <defs>
       <path id="DejaVuSans-69" d="M 603 3500 
L 1178 3500 
L 1178 0 
L 603 0 
L 603 3500 
z
M 603 4863 
L 1178 4863 
L 1178 4134 
L 603 4134 
L 603 4863 
z
" transform="scale(0.015625)"/>
       <path id="DejaVuSans-6d" d="M 3328 2828 
Q 3544 3216 3844 3400 
Q 4144 3584 4550 3584 
Q 5097 3584 5394 3201 
Q 5691 2819 5691 2113 
L 5691 0 
L 5113 0 
L 5113 2094 
Q 5113 2597 4934 2840 
Q 4756 3084 4391 3084 
Q 3944 3084 3684 2787 
Q 3425 2491 3425 1978 
L 3425 0 
L 2847 0 
L 2847 2094 
Q 2847 2600 2669 2842 
Q 2491 3084 2119 3084 
Q 1678 3084 1418 2786 
Q 1159 2488 1159 1978 
L 1159 0 
L 581 0 
L 581 3500 
L 1159 3500 
L 1159 2956 
Q 1356 3278 1631 3431 
Q 1906 3584 2284 3584 
Q 2666 3584 2933 3390 
Q 3200 3197 3328 2828 
z
" transform="scale(0.015625)"/>
       <path id="DejaVuSans-65" d="M 3597 1894 
L 3597 1613 
L 953 1613 
Q 991 1019 1311 708 
Q 1631 397 2203 397 
Q 2534 397 2845 478 
Q 3156 559 3463 722 
L 3463 178 
Q 3153 47 2828 -22 
Q 2503 -91 2169 -91 
Q 1331 -91 842 396 
Q 353 884 353 1716 
Q 353 2575 817 3079 
Q 1281 3584 2069 3584 
Q 2775 3584 3186 3129 
Q 3597 2675 3597 1894 
z
M 3022 2063 
Q 3016 2534 2758 2815 
Q 2500 3097 2075 3097 
Q 1594 3097 1305 2825 
Q 1016 2553 972 2059 
L 3022 2063 
z
" transform="scale(0.015625)"/>
      </defs>
      <use xlink:href="#DejaVuSans-54"/>
      <use xlink:href="#DejaVuSans-69" x="57.958984"/>
      <use xlink:href="#DejaVuSans-6d" x="85.742188"/>
      <use xlink:href="#DejaVuSans-65" x="183.154297"/>
     </g>
    </g>
   </g>
   <g id="matplotlib.axis_10">
    <g id="ytick_11">
     <g id="line2d_85">
      <path d="M 100.8 569.756463 
L 987.84 569.756463 
" clip-path="url(#pfe0ffd5aeb)" style="fill: none; stroke-dasharray: 1.85,0.8; stroke-dashoffset: 0; stroke: #b2b2b2; stroke-width: 0.5"/>
     </g>
     <g id="line2d_86">
      <g>
       <use xlink:href="#me0f7947db7" x="100.8" y="569.756463" style="stroke: #000000; stroke-width: 0.8"/>
      </g>
     </g>
     <g id="text_22">
      <!-- 0 V -->
      <g transform="translate(74.36625 575.075369) scale(0.14 -0.14)">
       <use xlink:href="#DejaVuSans-30"/>
       <use xlink:href="#DejaVuSans-20" x="63.623047"/>
       <use xlink:href="#DejaVuSans-56" x="95.410156"/>
      </g>
     </g>
    </g>
    <g id="ytick_12">
     <g id="line2d_87">
      <path d="M 100.8 536.090491 
L 987.84 536.090491 
" clip-path="url(#pfe0ffd5aeb)" style="fill: none; stroke-dasharray: 1.85,0.8; stroke-dashoffset: 0; stroke: #b2b2b2; stroke-width: 0.5"/>
     </g>
     <g id="line2d_88">
      <g>
       <use xlink:href="#me0f7947db7" x="100.8" y="536.090491" style="stroke: #000000; stroke-width: 0.8"/>
      </g>
     </g>
     <g id="text_23">
      <!-- 500 mV -->
      <g transform="translate(42.914375 541.409397) scale(0.14 -0.14)">
       <use xlink:href="#DejaVuSans-35"/>
       <use xlink:href="#DejaVuSans-30" x="63.623047"/>
       <use xlink:href="#DejaVuSans-30" x="127.246094"/>
       <use xlink:href="#DejaVuSans-20" x="190.869141"/>
       <use xlink:href="#DejaVuSans-6d" x="222.65625"/>
       <use xlink:href="#DejaVuSans-56" x="320.068359"/>
      </g>
     </g>
    </g>
    <g id="ytick_13">
     <g id="line2d_89">
      <path d="M 100.8 502.424519 
L 987.84 502.424519 
" clip-path="url(#pfe0ffd5aeb)" style="fill: none; stroke-dasharray: 1.85,0.8; stroke-dashoffset: 0; stroke: #b2b2b2; stroke-width: 0.5"/>
     </g>
     <g id="line2d_90">
      <g>
       <use xlink:href="#me0f7947db7" x="100.8" y="502.424519" style="stroke: #000000; stroke-width: 0.8"/>
      </g>
     </g>
     <g id="text_24">
      <!-- 1 V -->
      <g transform="translate(74.36625 507.743425) scale(0.14 -0.14)">
       <use xlink:href="#DejaVuSans-31"/>
       <use xlink:href="#DejaVuSans-20" x="63.623047"/>
       <use xlink:href="#DejaVuSans-56" x="95.410156"/>
      </g>
     </g>
    </g>
    <g id="text_25">
     <g id="patch_27">
      <path d="M 34.8768 554.329483 
L 34.8768 506.379483 
L 11.247425 506.379483 
L 11.247425 554.329483 
z
" style="fill: #ffff00; opacity: 0.2; stroke: #eeeeee; stroke-width: 0.5; stroke-linejoin: miter"/>
     </g>
     <!-- FOUT -->
     <g transform="translate(26.925238 549.289483) rotate(-90) scale(0.14 -0.14)">
      <use xlink:href="#DejaVuSans-46"/>
      <use xlink:href="#DejaVuSans-4f" x="57.519531"/>
      <use xlink:href="#DejaVuSans-55" x="136.230469"/>
      <use xlink:href="#DejaVuSans-54" x="209.423828"/>
     </g>
    </g>
   </g>
   <g id="line2d_91">
    <path d="M 141.12 488.95813 
L 173.472768 488.964864 
L 173.505024 488.769601 
L 173.569536 526.964993 
L 173.69856 572.504953 
L 173.730816 572.37002 
L 173.827584 567.859991 
L 173.892096 569.372954 
L 174.053376 570.073549 
L 174.117888 569.956473 
L 174.408192 569.503605 
L 174.440448 569.552871 
L 174.66624 569.740593 
L 176.182272 569.75075 
L 180.14976 569.77168 
L 193.729536 569.761725 
L 213.018624 569.754592 
L 255.30624 569.75429 
L 255.6288 488.850399 
L 255.854592 488.991796 
L 256.209408 488.951397 
L 334.849536 488.971597 
L 334.881792 493.159644 
L 335.043072 572.184992 
L 335.107584 570.269809 
L 335.172096 568.354612 
L 335.236608 568.884043 
L 335.365632 570.789604 
L 335.430144 570.418114 
L 335.591424 569.807594 
L 335.881728 569.659391 
L 336.559104 569.828225 
L 337.107456 569.756719 
L 350.042112 569.75479 
L 416.489472 569.753918 
L 416.553984 567.500102 
L 416.812032 488.527206 
L 416.844288 488.66187 
L 416.973312 489.173593 
L 417.037824 489.099527 
L 417.39264 488.870599 
L 417.844224 489.038929 
L 418.457088 488.884065 
L 419.328 488.95813 
L 591.220224 488.884065 
L 591.25248 488.762868 
L 591.284736 488.884065 
L 591.349248 512.116279 
L 591.478272 570.241388 
L 591.510528 569.727571 
L 591.73632 569.753355 
L 596.155392 569.754832 
L 637.668864 569.787395 
L 637.733376 569.880428 
L 637.765632 569.716216 
L 637.830144 555.901569 
L 638.055936 489.092794 
L 638.217216 488.964864 
L 638.765568 488.95813 
L 657.409536 488.97833 
L 657.441792 488.204013 
L 657.603072 569.861151 
L 657.667584 569.754586 
L 697.084416 569.75479 
L 738.952704 569.748071 
L 738.98496 569.972498 
L 739.049472 551.764021 
L 739.210752 489.813246 
L 739.339776 488.964864 
L 947.52 488.95813 
L 947.52 488.95813 
" clip-path="url(#pfe0ffd5aeb)" style="fill: none; stroke: #ff00ff; stroke-width: 2; stroke-linecap: square"/>
   </g>
   <g id="patch_28">
    <path d="M 100.8 576.72 
L 100.8 483.988966 
" style="fill: none; stroke: #bcbcbc; stroke-width: 0.8; stroke-linejoin: miter; stroke-linecap: square"/>
   </g>
   <g id="patch_29">
    <path d="M 987.84 576.72 
L 987.84 483.988966 
" style="fill: none; stroke: #bcbcbc; stroke-width: 0.8; stroke-linejoin: miter; stroke-linecap: square"/>
   </g>
   <g id="patch_30">
    <path d="M 100.8 576.72 
L 987.84 576.72 
" style="fill: none; stroke: #bcbcbc; stroke-width: 0.8; stroke-linejoin: miter; stroke-linecap: square"/>
   </g>
   <g id="patch_31">
    <path d="M 100.8 483.988966 
L 987.84 483.988966 
" style="fill: none; stroke: #bcbcbc; stroke-width: 0.8; stroke-linejoin: miter; stroke-linecap: square"/>
   </g>
  </g>
  <g id="axes_6">
   <g id="patch_32">
    <path d="M 201.6 628.56 
L 856.8 628.56 
L 856.8 615.6 
L 201.6 615.6 
z
" clip-path="url(#paca152f905)" style="fill: #d3d3d3"/>
   </g>
   <g id="patch_33">
    <path d="M 201.6 628.56 
L 763.2 628.56 
L 763.2 615.6 
L 201.6 615.6 
z
" clip-path="url(#paca152f905)" style="fill: #0000ff"/>
   </g>
   <g id="line2d_92">
    <path d="M 201.6 635.04 
L 201.6 609.12 
" clip-path="url(#p3689eab847)" style="fill: none; stroke: #ff0000; stroke-linecap: square"/>
   </g>
   <g id="line2d_93">
    <defs>
     <path id="m95d21da2f4" d="M 0 5 
C 1.326016 5 2.597899 4.473168 3.535534 3.535534 
C 4.473168 2.597899 5 1.326016 5 0 
C 5 -1.326016 4.473168 -2.597899 3.535534 -3.535534 
C 2.597899 -4.473168 1.326016 -5 0 -5 
C -1.326016 -5 -2.597899 -4.473168 -3.535534 -3.535534 
C -4.473168 -2.597899 -5 -1.326016 -5 0 
C -5 1.326016 -4.473168 2.597899 -3.535534 3.535534 
C -2.597899 4.473168 -1.326016 5 0 5 
z
" style="stroke: #bfbfbf"/>
    </defs>
    <g>
     <use xlink:href="#m95d21da2f4" x="763.2" y="622.08" style="fill: #ffffff; stroke: #bfbfbf"/>
    </g>
   </g>
   <g id="text_26">
    <!-- #Sweep -->
    <g transform="translate(138.622875 625.39125) scale(0.12 -0.12)">
     <defs>
      <path id="DejaVuSans-23" d="M 3272 2816 
L 2363 2816 
L 2100 1772 
L 3016 1772 
L 3272 2816 
z
M 2803 4594 
L 2478 3297 
L 3391 3297 
L 3719 4594 
L 4219 4594 
L 3897 3297 
L 4872 3297 
L 4872 2816 
L 3775 2816 
L 3519 1772 
L 4513 1772 
L 4513 1294 
L 3397 1294 
L 3072 0 
L 2572 0 
L 2894 1294 
L 1978 1294 
L 1656 0 
L 1153 0 
L 1478 1294 
L 494 1294 
L 494 1772 
L 1594 1772 
L 1856 2816 
L 850 2816 
L 850 3297 
L 1978 3297 
L 2297 4594 
L 2803 4594 
z
" transform="scale(0.015625)"/>
      <path id="DejaVuSans-77" d="M 269 3500 
L 844 3500 
L 1563 769 
L 2278 3500 
L 2956 3500 
L 3675 769 
L 4391 3500 
L 4966 3500 
L 4050 0 
L 3372 0 
L 2619 2869 
L 1863 0 
L 1184 0 
L 269 3500 
z
" transform="scale(0.015625)"/>
      <path id="DejaVuSans-70" d="M 1159 525 
L 1159 -1331 
L 581 -1331 
L 581 3500 
L 1159 3500 
L 1159 2969 
Q 1341 3281 1617 3432 
Q 1894 3584 2278 3584 
Q 2916 3584 3314 3078 
Q 3713 2572 3713 1747 
Q 3713 922 3314 415 
Q 2916 -91 2278 -91 
Q 1894 -91 1617 61 
Q 1341 213 1159 525 
z
M 3116 1747 
Q 3116 2381 2855 2742 
Q 2594 3103 2138 3103 
Q 1681 3103 1420 2742 
Q 1159 2381 1159 1747 
Q 1159 1113 1420 752 
Q 1681 391 2138 391 
Q 2594 391 2855 752 
Q 3116 1113 3116 1747 
z
" transform="scale(0.015625)"/>
     </defs>
     <use xlink:href="#DejaVuSans-23"/>
     <use xlink:href="#DejaVuSans-53" x="83.789062"/>
     <use xlink:href="#DejaVuSans-77" x="147.265625"/>
     <use xlink:href="#DejaVuSans-65" x="229.052734"/>
     <use xlink:href="#DejaVuSans-65" x="290.576172"/>
     <use xlink:href="#DejaVuSans-70" x="352.099609"/>
    </g>
   </g>
   <g id="text_27">
    <!-- $\mathdefault{120}$ -->
    <g transform="translate(869.904 625.39125) scale(0.12 -0.12)">
     <use xlink:href="#DejaVuSans-31" transform="translate(0 0.78125)"/>
     <use xlink:href="#DejaVuSans-32" transform="translate(63.623047 0.78125)"/>
     <use xlink:href="#DejaVuSans-30" transform="translate(127.246094 0.78125)"/>
    </g>
   </g>
  </g>
  <g id="text_28">
   <!-- DFF under BBI sweep analysis (Sweep = 130E-9) -->
   <g transform="translate(308.25625 25.1175) scale(0.16 -0.16)">
    <defs>
     <path id="DejaVuSans-75" d="M 544 1381 
L 544 3500 
L 1119 3500 
L 1119 1403 
Q 1119 906 1312 657 
Q 1506 409 1894 409 
Q 2359 409 2629 706 
Q 2900 1003 2900 1516 
L 2900 3500 
L 3475 3500 
L 3475 0 
L 2900 0 
L 2900 538 
Q 2691 219 2414 64 
Q 2138 -91 1772 -91 
Q 1169 -91 856 284 
Q 544 659 544 1381 
z
M 1991 3584 
L 1991 3584 
z
" transform="scale(0.015625)"/>
     <path id="DejaVuSans-64" d="M 2906 2969 
L 2906 4863 
L 3481 4863 
L 3481 0 
L 2906 0 
L 2906 525 
Q 2725 213 2448 61 
Q 2172 -91 1784 -91 
Q 1150 -91 751 415 
Q 353 922 353 1747 
Q 353 2572 751 3078 
Q 1150 3584 1784 3584 
Q 2172 3584 2448 3432 
Q 2725 3281 2906 2969 
z
M 947 1747 
Q 947 1113 1208 752 
Q 1469 391 1925 391 
Q 2381 391 2643 752 
Q 2906 1113 2906 1747 
Q 2906 2381 2643 2742 
Q 2381 3103 1925 3103 
Q 1469 3103 1208 2742 
Q 947 2381 947 1747 
z
" transform="scale(0.015625)"/>
     <path id="DejaVuSans-72" d="M 2631 2963 
Q 2534 3019 2420 3045 
Q 2306 3072 2169 3072 
Q 1681 3072 1420 2755 
Q 1159 2438 1159 1844 
L 1159 0 
L 581 0 
L 581 3500 
L 1159 3500 
L 1159 2956 
Q 1341 3275 1631 3429 
Q 1922 3584 2338 3584 
Q 2397 3584 2469 3576 
Q 2541 3569 2628 3553 
L 2631 2963 
z
" transform="scale(0.015625)"/>
     <path id="DejaVuSans-61" d="M 2194 1759 
Q 1497 1759 1228 1600 
Q 959 1441 959 1056 
Q 959 750 1161 570 
Q 1363 391 1709 391 
Q 2188 391 2477 730 
Q 2766 1069 2766 1631 
L 2766 1759 
L 2194 1759 
z
M 3341 1997 
L 3341 0 
L 2766 0 
L 2766 531 
Q 2569 213 2275 61 
Q 1981 -91 1556 -91 
Q 1019 -91 701 211 
Q 384 513 384 1019 
Q 384 1609 779 1909 
Q 1175 2209 1959 2209 
L 2766 2209 
L 2766 2266 
Q 2766 2663 2505 2880 
Q 2244 3097 1772 3097 
Q 1472 3097 1187 3025 
Q 903 2953 641 2809 
L 641 3341 
Q 956 3463 1253 3523 
Q 1550 3584 1831 3584 
Q 2591 3584 2966 3190 
Q 3341 2797 3341 1997 
z
" transform="scale(0.015625)"/>
     <path id="DejaVuSans-6c" d="M 603 4863 
L 1178 4863 
L 1178 0 
L 603 0 
L 603 4863 
z
" transform="scale(0.015625)"/>
     <path id="DejaVuSans-79" d="M 2059 -325 
Q 1816 -950 1584 -1140 
Q 1353 -1331 966 -1331 
L 506 -1331 
L 506 -850 
L 844 -850 
Q 1081 -850 1212 -737 
Q 1344 -625 1503 -206 
L 1606 56 
L 191 3500 
L 800 3500 
L 1894 763 
L 2988 3500 
L 3597 3500 
L 2059 -325 
z
" transform="scale(0.015625)"/>
     <path id="DejaVuSans-28" d="M 1984 4856 
Q 1566 4138 1362 3434 
Q 1159 2731 1159 2009 
Q 1159 1288 1364 580 
Q 1569 -128 1984 -844 
L 1484 -844 
Q 1016 -109 783 600 
Q 550 1309 550 2009 
Q 550 2706 781 3412 
Q 1013 4119 1484 4856 
L 1984 4856 
z
" transform="scale(0.015625)"/>
     <path id="DejaVuSans-3d" d="M 678 2906 
L 4684 2906 
L 4684 2381 
L 678 2381 
L 678 2906 
z
M 678 1631 
L 4684 1631 
L 4684 1100 
L 678 1100 
L 678 1631 
z
" transform="scale(0.015625)"/>
     <path id="DejaVuSans-33" d="M 2597 2516 
Q 3050 2419 3304 2112 
Q 3559 1806 3559 1356 
Q 3559 666 3084 287 
Q 2609 -91 1734 -91 
Q 1441 -91 1130 -33 
Q 819 25 488 141 
L 488 750 
Q 750 597 1062 519 
Q 1375 441 1716 441 
Q 2309 441 2620 675 
Q 2931 909 2931 1356 
Q 2931 1769 2642 2001 
Q 2353 2234 1838 2234 
L 1294 2234 
L 1294 2753 
L 1863 2753 
Q 2328 2753 2575 2939 
Q 2822 3125 2822 3475 
Q 2822 3834 2567 4026 
Q 2313 4219 1838 4219 
Q 1578 4219 1281 4162 
Q 984 4106 628 3988 
L 628 4550 
Q 988 4650 1302 4700 
Q 1616 4750 1894 4750 
Q 2613 4750 3031 4423 
Q 3450 4097 3450 3541 
Q 3450 3153 3228 2886 
Q 3006 2619 2597 2516 
z
" transform="scale(0.015625)"/>
     <path id="DejaVuSans-2d" d="M 313 2009 
L 1997 2009 
L 1997 1497 
L 313 1497 
L 313 2009 
z
" transform="scale(0.015625)"/>
     <path id="DejaVuSans-39" d="M 703 97 
L 703 672 
Q 941 559 1184 500 
Q 1428 441 1663 441 
Q 2288 441 2617 861 
Q 2947 1281 2994 2138 
Q 2813 1869 2534 1725 
Q 2256 1581 1919 1581 
Q 1219 1581 811 2004 
Q 403 2428 403 3163 
Q 403 3881 828 4315 
Q 1253 4750 1959 4750 
Q 2769 4750 3195 4129 
Q 3622 3509 3622 2328 
Q 3622 1225 3098 567 
Q 2575 -91 1691 -91 
Q 1453 -91 1209 -44 
Q 966 3 703 97 
z
M 1959 2075 
Q 2384 2075 2632 2365 
Q 2881 2656 2881 3163 
Q 2881 3666 2632 3958 
Q 2384 4250 1959 4250 
Q 1534 4250 1286 3958 
Q 1038 3666 1038 3163 
Q 1038 2656 1286 2365 
Q 1534 2075 1959 2075 
z
" transform="scale(0.015625)"/>
     <path id="DejaVuSans-29" d="M 513 4856 
L 1013 4856 
Q 1481 4119 1714 3412 
Q 1947 2706 1947 2009 
Q 1947 1309 1714 600 
Q 1481 -109 1013 -844 
L 513 -844 
Q 928 -128 1133 580 
Q 1338 1288 1338 2009 
Q 1338 2731 1133 3434 
Q 928 4138 513 4856 
z
" transform="scale(0.015625)"/>
    </defs>
    <use xlink:href="#DejaVuSans-44"/>
    <use xlink:href="#DejaVuSans-46" x="77.001953"/>
    <use xlink:href="#DejaVuSans-46" x="134.521484"/>
    <use xlink:href="#DejaVuSans-20" x="192.041016"/>
    <use xlink:href="#DejaVuSans-75" x="223.828125"/>
    <use xlink:href="#DejaVuSans-6e" x="287.207031"/>
    <use xlink:href="#DejaVuSans-64" x="350.585938"/>
    <use xlink:href="#DejaVuSans-65" x="414.0625"/>
    <use xlink:href="#DejaVuSans-72" x="475.585938"/>
    <use xlink:href="#DejaVuSans-20" x="516.699219"/>
    <use xlink:href="#DejaVuSans-42" x="548.486328"/>
    <use xlink:href="#DejaVuSans-42" x="617.089844"/>
    <use xlink:href="#DejaVuSans-49" x="685.693359"/>
    <use xlink:href="#DejaVuSans-20" x="715.185547"/>
    <use xlink:href="#DejaVuSans-73" x="746.972656"/>
    <use xlink:href="#DejaVuSans-77" x="799.072266"/>
    <use xlink:href="#DejaVuSans-65" x="880.859375"/>
    <use xlink:href="#DejaVuSans-65" x="942.382812"/>
    <use xlink:href="#DejaVuSans-70" x="1003.90625"/>
    <use xlink:href="#DejaVuSans-20" x="1067.382812"/>
    <use xlink:href="#DejaVuSans-61" x="1099.169922"/>
    <use xlink:href="#DejaVuSans-6e" x="1160.449219"/>
    <use xlink:href="#DejaVuSans-61" x="1223.828125"/>
    <use xlink:href="#DejaVuSans-6c" x="1285.107422"/>
    <use xlink:href="#DejaVuSans-79" x="1312.890625"/>
    <use xlink:href="#DejaVuSans-73" x="1372.070312"/>
    <use xlink:href="#DejaVuSans-69" x="1424.169922"/>
    <use xlink:href="#DejaVuSans-73" x="1451.953125"/>
    <use xlink:href="#DejaVuSans-20" x="1504.052734"/>
    <use xlink:href="#DejaVuSans-28" x="1535.839844"/>
    <use xlink:href="#DejaVuSans-53" x="1574.853516"/>
    <use xlink:href="#DejaVuSans-77" x="1638.330078"/>
    <use xlink:href="#DejaVuSans-65" x="1720.117188"/>
    <use xlink:href="#DejaVuSans-65" x="1781.640625"/>
    <use xlink:href="#DejaVuSans-70" x="1843.164062"/>
    <use xlink:href="#DejaVuSans-20" x="1906.640625"/>
    <use xlink:href="#DejaVuSans-3d" x="1938.427734"/>
    <use xlink:href="#DejaVuSans-20" x="2022.216797"/>
    <use xlink:href="#DejaVuSans-31" x="2054.003906"/>
    <use xlink:href="#DejaVuSans-33" x="2117.626953"/>
    <use xlink:href="#DejaVuSans-30" x="2181.25"/>
    <use xlink:href="#DejaVuSans-45" x="2244.873047"/>
    <use xlink:href="#DejaVuSans-2d" x="2308.056641"/>
    <use xlink:href="#DejaVuSans-39" x="2344.140625"/>
    <use xlink:href="#DejaVuSans-29" x="2407.763672"/>
   </g>
  </g>
 </g>
 <defs>
  <clipPath id="p5b39f49962">
   <rect x="100.8" y="38.88" width="887.04" height="92.731034"/>
  </clipPath>
  <clipPath id="pdef035af60">
   <rect x="100.8" y="150.157241" width="887.04" height="92.731034"/>
  </clipPath>
  <clipPath id="pfec3757baa">
   <rect x="100.8" y="261.434483" width="887.04" height="92.731034"/>
  </clipPath>
  <clipPath id="p1b673984ca">
   <rect x="100.8" y="372.711724" width="887.04" height="92.731034"/>
  </clipPath>
  <clipPath id="pfe0ffd5aeb">
   <rect x="100.8" y="483.988966" width="887.04" height="92.731034"/>
  </clipPath>
  <clipPath id="paca152f905">
   <rect x="201.6" y="609.12" width="655.2" height="25.92"/>
  </clipPath>
  <clipPath id="p3689eab847">
   <path d="M 201.6 628.56 
L 856.8 628.56 
L 856.8 615.6 
L 201.6 615.6 
z
"/>
  </clipPath>
 </defs>
</svg>
