<?xml version="1.0" encoding="utf-8" standalone="no"?>
<!DOCTYPE svg PUBLIC "-//W3C//DTD SVG 1.1//EN"
  "http://www.w3.org/Graphics/SVG/1.1/DTD/svg11.dtd">
<svg xmlns:xlink="http://www.w3.org/1999/xlink" width="1008pt" height="648pt" viewBox="0 0 1008 648" xmlns="http://www.w3.org/2000/svg" version="1.1">
 <metadata>
  <rdf:RDF xmlns:dc="http://purl.org/dc/elements/1.1/" xmlns:cc="http://creativecommons.org/ns#" xmlns:rdf="http://www.w3.org/1999/02/22-rdf-syntax-ns#">
   <cc:Work>
    <dc:type rdf:resource="http://purl.org/dc/dcmitype/StillImage"/>
    <dc:date>2024-06-03T10:45:35.896703</dc:date>
    <dc:format>image/svg+xml</dc:format>
    <dc:creator>
     <cc:Agent>
      <dc:title>Matplotlib v3.9.0, https://matplotlib.org/</dc:title>
     </cc:Agent>
    </dc:creator>
   </cc:Work>
  </rdf:RDF>
 </metadata>
 <defs>
  <style type="text/css">*{stroke-linejoin: round; stroke-linecap: butt}</style>
 </defs>
 <g id="figure_1">
  <g id="patch_1">
   <path d="M 0 648 
L 1008 648 
L 1008 0 
L 0 0 
z
" style="fill: #ffffff"/>
  </g>
  <g id="axes_1">
   <g id="patch_2">
    <path d="M 100.8 131.611034 
L 987.84 131.611034 
L 987.84 38.88 
L 100.8 38.88 
z
" style="fill: #eeeeee"/>
   </g>
   <g id="matplotlib.axis_1">
    <g id="xtick_1">
     <g id="line2d_1">
      <path d="M 141.12 131.611034 
L 141.12 38.88 
" clip-path="url(#p2acc2c691b)" style="fill: none; stroke-dasharray: 1.85,0.8; stroke-dashoffset: 0; stroke: #b2b2b2; stroke-width: 0.5"/>
     </g>
     <g id="line2d_2">
      <defs>
       <path id="m6d17a8d41d" d="M 0 0 
L 0 -3.5 
" style="stroke: #000000; stroke-width: 0.8"/>
      </defs>
      <g>
       <use xlink:href="#m6d17a8d41d" x="141.12" y="131.611034" style="stroke: #000000; stroke-width: 0.8"/>
      </g>
     </g>
    </g>
    <g id="xtick_2">
     <g id="line2d_3">
      <path d="M 302.4 131.611034 
L 302.4 38.88 
" clip-path="url(#p2acc2c691b)" style="fill: none; stroke-dasharray: 1.85,0.8; stroke-dashoffset: 0; stroke: #b2b2b2; stroke-width: 0.5"/>
     </g>
     <g id="line2d_4">
      <g>
       <use xlink:href="#m6d17a8d41d" x="302.4" y="131.611034" style="stroke: #000000; stroke-width: 0.8"/>
      </g>
     </g>
    </g>
    <g id="xtick_3">
     <g id="line2d_5">
      <path d="M 463.68 131.611034 
L 463.68 38.88 
" clip-path="url(#p2acc2c691b)" style="fill: none; stroke-dasharray: 1.85,0.8; stroke-dashoffset: 0; stroke: #b2b2b2; stroke-width: 0.5"/>
     </g>
     <g id="line2d_6">
      <g>
       <use xlink:href="#m6d17a8d41d" x="463.68" y="131.611034" style="stroke: #000000; stroke-width: 0.8"/>
      </g>
     </g>
    </g>
    <g id="xtick_4">
     <g id="line2d_7">
      <path d="M 624.96 131.611034 
L 624.96 38.88 
" clip-path="url(#p2acc2c691b)" style="fill: none; stroke-dasharray: 1.85,0.8; stroke-dashoffset: 0; stroke: #b2b2b2; stroke-width: 0.5"/>
     </g>
     <g id="line2d_8">
      <g>
       <use xlink:href="#m6d17a8d41d" x="624.96" y="131.611034" style="stroke: #000000; stroke-width: 0.8"/>
      </g>
     </g>
    </g>
    <g id="xtick_5">
     <g id="line2d_9">
      <path d="M 786.24 131.611034 
L 786.24 38.88 
" clip-path="url(#p2acc2c691b)" style="fill: none; stroke-dasharray: 1.85,0.8; stroke-dashoffset: 0; stroke: #b2b2b2; stroke-width: 0.5"/>
     </g>
     <g id="line2d_10">
      <g>
       <use xlink:href="#m6d17a8d41d" x="786.24" y="131.611034" style="stroke: #000000; stroke-width: 0.8"/>
      </g>
     </g>
    </g>
    <g id="xtick_6">
     <g id="line2d_11">
      <path d="M 947.52 131.611034 
L 947.52 38.88 
" clip-path="url(#p2acc2c691b)" style="fill: none; stroke-dasharray: 1.85,0.8; stroke-dashoffset: 0; stroke: #b2b2b2; stroke-width: 0.5"/>
     </g>
     <g id="line2d_12">
      <g>
       <use xlink:href="#m6d17a8d41d" x="947.52" y="131.611034" style="stroke: #000000; stroke-width: 0.8"/>
      </g>
     </g>
    </g>
   </g>
   <g id="matplotlib.axis_2">
    <g id="ytick_1">
     <g id="line2d_13">
      <path d="M 100.8 98.340394 
L 987.84 98.340394 
" clip-path="url(#p2acc2c691b)" style="fill: none; stroke-dasharray: 1.85,0.8; stroke-dashoffset: 0; stroke: #b2b2b2; stroke-width: 0.5"/>
     </g>
     <g id="line2d_14">
      <defs>
       <path id="m556f59c65e" d="M 0 0 
L 3.5 0 
" style="stroke: #000000; stroke-width: 0.8"/>
      </defs>
      <g>
       <use xlink:href="#m556f59c65e" x="100.8" y="98.340394" style="stroke: #000000; stroke-width: 0.8"/>
      </g>
     </g>
     <g id="text_1">
      <!-- −200 V -->
      <g transform="translate(44.819688 103.6593) scale(0.14 -0.14)">
       <defs>
        <path id="DejaVuSans-2212" d="M 678 2272 
L 4684 2272 
L 4684 1741 
L 678 1741 
L 678 2272 
z
" transform="scale(0.015625)"/>
        <path id="DejaVuSans-32" d="M 1228 531 
L 3431 531 
L 3431 0 
L 469 0 
L 469 531 
Q 828 903 1448 1529 
Q 2069 2156 2228 2338 
Q 2531 2678 2651 2914 
Q 2772 3150 2772 3378 
Q 2772 3750 2511 3984 
Q 2250 4219 1831 4219 
Q 1534 4219 1204 4116 
Q 875 4013 500 3803 
L 500 4441 
Q 881 4594 1212 4672 
Q 1544 4750 1819 4750 
Q 2544 4750 2975 4387 
Q 3406 4025 3406 3419 
Q 3406 3131 3298 2873 
Q 3191 2616 2906 2266 
Q 2828 2175 2409 1742 
Q 1991 1309 1228 531 
z
" transform="scale(0.015625)"/>
        <path id="DejaVuSans-30" d="M 2034 4250 
Q 1547 4250 1301 3770 
Q 1056 3291 1056 2328 
Q 1056 1369 1301 889 
Q 1547 409 2034 409 
Q 2525 409 2770 889 
Q 3016 1369 3016 2328 
Q 3016 3291 2770 3770 
Q 2525 4250 2034 4250 
z
M 2034 4750 
Q 2819 4750 3233 4129 
Q 3647 3509 3647 2328 
Q 3647 1150 3233 529 
Q 2819 -91 2034 -91 
Q 1250 -91 836 529 
Q 422 1150 422 2328 
Q 422 3509 836 4129 
Q 1250 4750 2034 4750 
z
" transform="scale(0.015625)"/>
        <path id="DejaVuSans-20" transform="scale(0.015625)"/>
        <path id="DejaVuSans-56" d="M 1831 0 
L 50 4666 
L 709 4666 
L 2188 738 
L 3669 4666 
L 4325 4666 
L 2547 0 
L 1831 0 
z
" transform="scale(0.015625)"/>
       </defs>
       <use xlink:href="#DejaVuSans-2212"/>
       <use xlink:href="#DejaVuSans-32" x="83.789062"/>
       <use xlink:href="#DejaVuSans-30" x="147.412109"/>
       <use xlink:href="#DejaVuSans-30" x="211.035156"/>
       <use xlink:href="#DejaVuSans-20" x="274.658203"/>
       <use xlink:href="#DejaVuSans-56" x="306.445312"/>
      </g>
     </g>
    </g>
    <g id="ytick_2">
     <g id="line2d_15">
      <path d="M 100.8 45.027377 
L 987.84 45.027377 
" clip-path="url(#p2acc2c691b)" style="fill: none; stroke-dasharray: 1.85,0.8; stroke-dashoffset: 0; stroke: #b2b2b2; stroke-width: 0.5"/>
     </g>
     <g id="line2d_16">
      <g>
       <use xlink:href="#m556f59c65e" x="100.8" y="45.027377" style="stroke: #000000; stroke-width: 0.8"/>
      </g>
     </g>
     <g id="text_2">
      <!-- 0 V -->
      <g transform="translate(74.36625 50.346284) scale(0.14 -0.14)">
       <use xlink:href="#DejaVuSans-30"/>
       <use xlink:href="#DejaVuSans-20" x="63.623047"/>
       <use xlink:href="#DejaVuSans-56" x="95.410156"/>
      </g>
     </g>
    </g>
    <g id="text_3">
     <g id="patch_3">
      <path d="M 34.8768 131.080205 
L 34.8768 39.41083 
L 11.247425 39.41083 
L 11.247425 131.080205 
z
" style="fill: #ffff00; opacity: 0.2; stroke: #eeeeee; stroke-width: 0.5; stroke-linejoin: miter"/>
     </g>
     <!-- VPULSE BBI -->
     <g transform="translate(26.925238 126.040205) rotate(-90) scale(0.14 -0.14)">
      <defs>
       <path id="DejaVuSans-50" d="M 1259 4147 
L 1259 2394 
L 2053 2394 
Q 2494 2394 2734 2622 
Q 2975 2850 2975 3272 
Q 2975 3691 2734 3919 
Q 2494 4147 2053 4147 
L 1259 4147 
z
M 628 4666 
L 2053 4666 
Q 2838 4666 3239 4311 
Q 3641 3956 3641 3272 
Q 3641 2581 3239 2228 
Q 2838 1875 2053 1875 
L 1259 1875 
L 1259 0 
L 628 0 
L 628 4666 
z
" transform="scale(0.015625)"/>
       <path id="DejaVuSans-55" d="M 556 4666 
L 1191 4666 
L 1191 1831 
Q 1191 1081 1462 751 
Q 1734 422 2344 422 
Q 2950 422 3222 751 
Q 3494 1081 3494 1831 
L 3494 4666 
L 4128 4666 
L 4128 1753 
Q 4128 841 3676 375 
Q 3225 -91 2344 -91 
Q 1459 -91 1007 375 
Q 556 841 556 1753 
L 556 4666 
z
" transform="scale(0.015625)"/>
       <path id="DejaVuSans-4c" d="M 628 4666 
L 1259 4666 
L 1259 531 
L 3531 531 
L 3531 0 
L 628 0 
L 628 4666 
z
" transform="scale(0.015625)"/>
       <path id="DejaVuSans-53" d="M 3425 4513 
L 3425 3897 
Q 3066 4069 2747 4153 
Q 2428 4238 2131 4238 
Q 1616 4238 1336 4038 
Q 1056 3838 1056 3469 
Q 1056 3159 1242 3001 
Q 1428 2844 1947 2747 
L 2328 2669 
Q 3034 2534 3370 2195 
Q 3706 1856 3706 1288 
Q 3706 609 3251 259 
Q 2797 -91 1919 -91 
Q 1588 -91 1214 -16 
Q 841 59 441 206 
L 441 856 
Q 825 641 1194 531 
Q 1563 422 1919 422 
Q 2459 422 2753 634 
Q 3047 847 3047 1241 
Q 3047 1584 2836 1778 
Q 2625 1972 2144 2069 
L 1759 2144 
Q 1053 2284 737 2584 
Q 422 2884 422 3419 
Q 422 4038 858 4394 
Q 1294 4750 2059 4750 
Q 2388 4750 2728 4690 
Q 3069 4631 3425 4513 
z
" transform="scale(0.015625)"/>
       <path id="DejaVuSans-45" d="M 628 4666 
L 3578 4666 
L 3578 4134 
L 1259 4134 
L 1259 2753 
L 3481 2753 
L 3481 2222 
L 1259 2222 
L 1259 531 
L 3634 531 
L 3634 0 
L 628 0 
L 628 4666 
z
" transform="scale(0.015625)"/>
       <path id="DejaVuSans-42" d="M 1259 2228 
L 1259 519 
L 2272 519 
Q 2781 519 3026 730 
Q 3272 941 3272 1375 
Q 3272 1813 3026 2020 
Q 2781 2228 2272 2228 
L 1259 2228 
z
M 1259 4147 
L 1259 2741 
L 2194 2741 
Q 2656 2741 2882 2914 
Q 3109 3088 3109 3444 
Q 3109 3797 2882 3972 
Q 2656 4147 2194 4147 
L 1259 4147 
z
M 628 4666 
L 2241 4666 
Q 2963 4666 3353 4366 
Q 3744 4066 3744 3513 
Q 3744 3084 3544 2831 
Q 3344 2578 2956 2516 
Q 3422 2416 3680 2098 
Q 3938 1781 3938 1306 
Q 3938 681 3513 340 
Q 3088 0 2303 0 
L 628 0 
L 628 4666 
z
" transform="scale(0.015625)"/>
       <path id="DejaVuSans-49" d="M 628 4666 
L 1259 4666 
L 1259 0 
L 628 0 
L 628 4666 
z
" transform="scale(0.015625)"/>
      </defs>
      <use xlink:href="#DejaVuSans-56"/>
      <use xlink:href="#DejaVuSans-50" x="68.408203"/>
      <use xlink:href="#DejaVuSans-55" x="128.710938"/>
      <use xlink:href="#DejaVuSans-4c" x="201.904297"/>
      <use xlink:href="#DejaVuSans-53" x="257.617188"/>
      <use xlink:href="#DejaVuSans-45" x="321.09375"/>
      <use xlink:href="#DejaVuSans-20" x="384.277344"/>
      <use xlink:href="#DejaVuSans-42" x="416.064453"/>
      <use xlink:href="#DejaVuSans-42" x="484.667969"/>
      <use xlink:href="#DejaVuSans-49" x="553.271484"/>
     </g>
    </g>
   </g>
   <g id="line2d_17">
    <path d="M 141.12 45.027377 
L 295.981056 45.136282 
L 296.464896 46.425538 
L 304.690176 69.006772 
L 312.109056 89.863624 
L 313.721856 94.440546 
L 315.528192 99.673219 
L 319.01184 110.807642 
L 320.592384 115.851054 
L 321.850368 119.566971 
L 323.076096 120.153414 
L 323.914752 120.545265 
L 324.946944 121.017085 
L 325.527552 121.272988 
L 326.398464 121.656841 
L 326.979072 121.912744 
L 327.817728 122.269941 
L 329.398272 122.936354 
L 330.043392 123.202919 
L 331.140096 123.629423 
L 331.881984 123.922644 
L 332.978688 124.349149 
L 333.881856 124.677024 
L 334.559232 124.943589 
L 335.365632 125.25547 
L 336.720384 125.804594 
L 339.365376 126.790885 
L 339.97824 127.022796 
L 341.9136 127.395987 
L 360.396288 127.289361 
L 360.62208 126.801547 
L 378.911232 75.087922 
L 382.652928 63.292417 
L 386.362368 51.617666 
L 390.974976 49.3412 
L 396.329472 46.984578 
L 405.038592 43.484472 
L 405.909504 43.268927 
L 420.198912 43.108189 
L 427.004928 43.184799 
L 442.358784 43.746186 
L 470.1312 44.46146 
L 495.77472 44.774399 
L 531.385344 44.945888 
L 579.414528 44.953885 
L 947.52 44.953885 
L 947.52 44.953885 
" clip-path="url(#p2acc2c691b)" style="fill: none; stroke: #ff0000; stroke-width: 2; stroke-linecap: square"/>
   </g>
   <g id="patch_4">
    <path d="M 100.8 131.611034 
L 100.8 38.88 
" style="fill: none; stroke: #bcbcbc; stroke-width: 0.8; stroke-linejoin: miter; stroke-linecap: square"/>
   </g>
   <g id="patch_5">
    <path d="M 987.84 131.611034 
L 987.84 38.88 
" style="fill: none; stroke: #bcbcbc; stroke-width: 0.8; stroke-linejoin: miter; stroke-linecap: square"/>
   </g>
   <g id="patch_6">
    <path d="M 100.8 131.611034 
L 987.84 131.611034 
" style="fill: none; stroke: #bcbcbc; stroke-width: 0.8; stroke-linejoin: miter; stroke-linecap: square"/>
   </g>
   <g id="patch_7">
    <path d="M 100.8 38.88 
L 987.84 38.88 
" style="fill: none; stroke: #bcbcbc; stroke-width: 0.8; stroke-linejoin: miter; stroke-linecap: square"/>
   </g>
  </g>
  <g id="axes_2">
   <g id="patch_8">
    <path d="M 100.8 242.888276 
L 987.84 242.888276 
L 987.84 150.157241 
L 100.8 150.157241 
z
" style="fill: #eeeeee"/>
   </g>
   <g id="matplotlib.axis_3">
    <g id="xtick_7">
     <g id="line2d_18">
      <path d="M 141.12 242.888276 
L 141.12 150.157241 
" clip-path="url(#p705b3b9cb2)" style="fill: none; stroke-dasharray: 1.85,0.8; stroke-dashoffset: 0; stroke: #b2b2b2; stroke-width: 0.5"/>
     </g>
     <g id="line2d_19">
      <g>
       <use xlink:href="#m6d17a8d41d" x="141.12" y="242.888276" style="stroke: #000000; stroke-width: 0.8"/>
      </g>
     </g>
    </g>
    <g id="xtick_8">
     <g id="line2d_20">
      <path d="M 302.4 242.888276 
L 302.4 150.157241 
" clip-path="url(#p705b3b9cb2)" style="fill: none; stroke-dasharray: 1.85,0.8; stroke-dashoffset: 0; stroke: #b2b2b2; stroke-width: 0.5"/>
     </g>
     <g id="line2d_21">
      <g>
       <use xlink:href="#m6d17a8d41d" x="302.4" y="242.888276" style="stroke: #000000; stroke-width: 0.8"/>
      </g>
     </g>
    </g>
    <g id="xtick_9">
     <g id="line2d_22">
      <path d="M 463.68 242.888276 
L 463.68 150.157241 
" clip-path="url(#p705b3b9cb2)" style="fill: none; stroke-dasharray: 1.85,0.8; stroke-dashoffset: 0; stroke: #b2b2b2; stroke-width: 0.5"/>
     </g>
     <g id="line2d_23">
      <g>
       <use xlink:href="#m6d17a8d41d" x="463.68" y="242.888276" style="stroke: #000000; stroke-width: 0.8"/>
      </g>
     </g>
    </g>
    <g id="xtick_10">
     <g id="line2d_24">
      <path d="M 624.96 242.888276 
L 624.96 150.157241 
" clip-path="url(#p705b3b9cb2)" style="fill: none; stroke-dasharray: 1.85,0.8; stroke-dashoffset: 0; stroke: #b2b2b2; stroke-width: 0.5"/>
     </g>
     <g id="line2d_25">
      <g>
       <use xlink:href="#m6d17a8d41d" x="624.96" y="242.888276" style="stroke: #000000; stroke-width: 0.8"/>
      </g>
     </g>
    </g>
    <g id="xtick_11">
     <g id="line2d_26">
      <path d="M 786.24 242.888276 
L 786.24 150.157241 
" clip-path="url(#p705b3b9cb2)" style="fill: none; stroke-dasharray: 1.85,0.8; stroke-dashoffset: 0; stroke: #b2b2b2; stroke-width: 0.5"/>
     </g>
     <g id="line2d_27">
      <g>
       <use xlink:href="#m6d17a8d41d" x="786.24" y="242.888276" style="stroke: #000000; stroke-width: 0.8"/>
      </g>
     </g>
    </g>
    <g id="xtick_12">
     <g id="line2d_28">
      <path d="M 947.52 242.888276 
L 947.52 150.157241 
" clip-path="url(#p705b3b9cb2)" style="fill: none; stroke-dasharray: 1.85,0.8; stroke-dashoffset: 0; stroke: #b2b2b2; stroke-width: 0.5"/>
     </g>
     <g id="line2d_29">
      <g>
       <use xlink:href="#m6d17a8d41d" x="947.52" y="242.888276" style="stroke: #000000; stroke-width: 0.8"/>
      </g>
     </g>
    </g>
   </g>
   <g id="matplotlib.axis_4">
    <g id="ytick_3">
     <g id="line2d_30">
      <path d="M 100.8 219.137931 
L 987.84 219.137931 
" clip-path="url(#p705b3b9cb2)" style="fill: none; stroke-dasharray: 1.85,0.8; stroke-dashoffset: 0; stroke: #b2b2b2; stroke-width: 0.5"/>
     </g>
     <g id="line2d_31">
      <g>
       <use xlink:href="#m556f59c65e" x="100.8" y="219.137931" style="stroke: #000000; stroke-width: 0.8"/>
      </g>
     </g>
     <g id="text_4">
      <!-- 0 V -->
      <g transform="translate(74.36625 224.456837) scale(0.14 -0.14)">
       <use xlink:href="#DejaVuSans-30"/>
       <use xlink:href="#DejaVuSans-20" x="63.623047"/>
       <use xlink:href="#DejaVuSans-56" x="95.410156"/>
      </g>
     </g>
    </g>
    <g id="ytick_4">
     <g id="line2d_32">
      <path d="M 100.8 185.181216 
L 987.84 185.181216 
" clip-path="url(#p705b3b9cb2)" style="fill: none; stroke-dasharray: 1.85,0.8; stroke-dashoffset: 0; stroke: #b2b2b2; stroke-width: 0.5"/>
     </g>
     <g id="line2d_33">
      <g>
       <use xlink:href="#m556f59c65e" x="100.8" y="185.181216" style="stroke: #000000; stroke-width: 0.8"/>
      </g>
     </g>
     <g id="text_5">
      <!-- 1 V -->
      <g transform="translate(74.36625 190.500122) scale(0.14 -0.14)">
       <defs>
        <path id="DejaVuSans-31" d="M 794 531 
L 1825 531 
L 1825 4091 
L 703 3866 
L 703 4441 
L 1819 4666 
L 2450 4666 
L 2450 531 
L 3481 531 
L 3481 0 
L 794 0 
L 794 531 
z
" transform="scale(0.015625)"/>
       </defs>
       <use xlink:href="#DejaVuSans-31"/>
       <use xlink:href="#DejaVuSans-20" x="63.623047"/>
       <use xlink:href="#DejaVuSans-56" x="95.410156"/>
      </g>
     </g>
    </g>
    <g id="ytick_5">
     <g id="line2d_34">
      <path d="M 100.8 151.224501 
L 987.84 151.224501 
" clip-path="url(#p705b3b9cb2)" style="fill: none; stroke-dasharray: 1.85,0.8; stroke-dashoffset: 0; stroke: #b2b2b2; stroke-width: 0.5"/>
     </g>
     <g id="line2d_35">
      <g>
       <use xlink:href="#m556f59c65e" x="100.8" y="151.224501" style="stroke: #000000; stroke-width: 0.8"/>
      </g>
     </g>
     <g id="text_6">
      <!-- 2 V -->
      <g transform="translate(74.36625 156.543407) scale(0.14 -0.14)">
       <use xlink:href="#DejaVuSans-32"/>
       <use xlink:href="#DejaVuSans-20" x="63.623047"/>
       <use xlink:href="#DejaVuSans-56" x="95.410156"/>
      </g>
     </g>
    </g>
    <g id="text_7">
     <g id="patch_9">
      <path d="M 34.8768 224.531509 
L 34.8768 168.514009 
L 11.247425 168.514009 
L 11.247425 224.531509 
z
" style="fill: #ffff00; opacity: 0.2; stroke: #eeeeee; stroke-width: 0.5; stroke-linejoin: miter"/>
     </g>
     <!-- DFF IN -->
     <g transform="translate(26.925238 219.491509) rotate(-90) scale(0.14 -0.14)">
      <defs>
       <path id="DejaVuSans-44" d="M 1259 4147 
L 1259 519 
L 2022 519 
Q 2988 519 3436 956 
Q 3884 1394 3884 2338 
Q 3884 3275 3436 3711 
Q 2988 4147 2022 4147 
L 1259 4147 
z
M 628 4666 
L 1925 4666 
Q 3281 4666 3915 4102 
Q 4550 3538 4550 2338 
Q 4550 1131 3912 565 
Q 3275 0 1925 0 
L 628 0 
L 628 4666 
z
" transform="scale(0.015625)"/>
       <path id="DejaVuSans-46" d="M 628 4666 
L 3309 4666 
L 3309 4134 
L 1259 4134 
L 1259 2759 
L 3109 2759 
L 3109 2228 
L 1259 2228 
L 1259 0 
L 628 0 
L 628 4666 
z
" transform="scale(0.015625)"/>
       <path id="DejaVuSans-4e" d="M 628 4666 
L 1478 4666 
L 3547 763 
L 3547 4666 
L 4159 4666 
L 4159 0 
L 3309 0 
L 1241 3903 
L 1241 0 
L 628 0 
L 628 4666 
z
" transform="scale(0.015625)"/>
      </defs>
      <use xlink:href="#DejaVuSans-44"/>
      <use xlink:href="#DejaVuSans-46" x="77.001953"/>
      <use xlink:href="#DejaVuSans-46" x="134.521484"/>
      <use xlink:href="#DejaVuSans-20" x="192.041016"/>
      <use xlink:href="#DejaVuSans-49" x="223.828125"/>
      <use xlink:href="#DejaVuSans-4e" x="253.320312"/>
     </g>
    </g>
   </g>
   <g id="line2d_36">
    <path d="M 141.12 219.08834 
L 221.953536 219.041776 
L 224.437248 200.121491 
L 225.404928 194.365828 
L 228.243456 181.71084 
L 229.598208 180.440858 
L 231.178752 179.568171 
L 236.533248 179.113151 
L 243.5328 179.004489 
L 244.952064 178.963741 
L 248.145408 178.85508 
L 249.790464 178.790562 
L 251.887104 178.681901 
L 254.241792 178.335542 
L 254.757888 177.799026 
L 255.499776 177.459459 
L 256.338432 177.473042 
L 259.789824 178.087658 
L 262.467072 178.260837 
L 263.886336 178.308377 
L 264.144384 183.544502 
L 264.434688 187.107241 
L 265.176576 191.853371 
L 267.144192 209.177068 
L 268.402176 215.681477 
L 269.047296 216.963886 
L 270.46656 218.72556 
L 273.69216 219.137472 
L 280.691712 219.088157 
L 296.077824 219.21704 
L 297.142272 220.263494 
L 298.04544 220.951151 
L 298.787328 221.320906 
L 299.81952 221.639148 
L 301.335552 221.848288 
L 304.206336 222.096002 
L 305.238528 222.633435 
L 306.561024 223.2888 
L 308.52864 224.257585 
L 309.786624 225.111256 
L 310.528512 225.507871 
L 311.334912 225.69701 
L 311.883264 225.601931 
L 312.496128 225.240632 
L 313.238016 224.401222 
L 313.52832 224.189332 
L 313.754112 224.268111 
L 314.108928 224.79444 
L 314.883072 226.04201 
L 315.205632 226.380898 
L 315.46368 227.025736 
L 316.1088 228.52085 
L 316.334592 228.808124 
L 316.657152 229.580639 
L 317.431296 231.123632 
L 318.011904 232.154219 
L 318.528 233.208235 
L 318.882816 233.720302 
L 319.947264 235.7302 
L 320.30208 236.260265 
L 321.140736 237.737382 
L 321.689088 238.561511 
L 322.011648 238.539439 
L 322.979328 237.310546 
L 323.495424 236.31086 
L 323.817984 235.942769 
L 324.076032 235.688434 
L 324.527616 235.205909 
L 324.81792 234.612006 
L 325.237248 234.05953 
L 325.430784 234.019461 
L 326.398464 233.263924 
L 327.07584 232.509406 
L 327.527424 231.796994 
L 327.817728 231.663884 
L 327.979008 231.566088 
L 328.237056 231.301566 
L 329.075712 230.805458 
L 329.914368 229.947032 
L 330.14016 229.624443 
L 330.30144 229.518159 
L 330.527232 229.248203 
L 330.688512 229.17214 
L 330.914304 229.006092 
L 332.623872 227.731696 
L 333.139968 227.026076 
L 333.20448 226.977518 
L 333.494784 226.666814 
L 334.526976 226.158142 
L 335.978496 224.765917 
L 336.301056 224.36319 
L 336.59136 224.319725 
L 337.462272 223.902397 
L 339.558912 222.250879 
L 339.913728 221.950769 
L 341.1072 221.007893 
L 342.07488 219.946678 
L 342.784512 218.88458 
L 343.623168 217.769679 
L 344.558592 216.439696 
L 347.106816 213.0427 
L 350.364672 209.155336 
L 351.042048 207.148154 
L 352.106496 204.030588 
L 353.332224 201.255646 
L 355.009536 198.69497 
L 355.557888 198.087144 
L 357.299712 195.867054 
L 358.52544 194.390277 
L 359.364096 193.585163 
L 360.493056 192.297185 
L 360.976896 190.753513 
L 362.331648 185.979538 
L 363.234816 183.744847 
L 364.073472 182.226982 
L 364.912128 181.266007 
L 367.331328 178.824519 
L 370.008576 174.973827 
L 372.23424 171.659652 
L 373.298688 170.141787 
L 375.072768 167.724069 
L 375.266304 168.10778 
L 375.7824 169.116294 
L 376.233984 169.374365 
L 376.653312 169.316639 
L 377.201664 168.915949 
L 377.685504 168.253793 
L 378.653184 166.199412 
L 379.620864 164.053348 
L 381.330432 160.878395 
L 383.68512 157.601572 
L 386.362368 154.392662 
L 387.749376 154.715251 
L 391.523328 155.221206 
L 394.49088 155.958067 
L 405.94176 159.683119 
L 406.973952 160.206052 
L 410.747904 161.910679 
L 411.360768 162.16875 
L 412.812288 162.810532 
L 414.070272 163.319883 
L 414.715392 163.598328 
L 415.360512 163.859795 
L 416.037888 162.912402 
L 416.489472 162.878445 
L 417.005568 163.150099 
L 420.489216 165.588191 
L 424.843776 167.303005 
L 425.682432 167.591638 
L 432.101376 169.503401 
L 434.230272 170.063686 
L 435.714048 170.423628 
L 436.133376 170.528893 
L 447.519744 172.81418 
L 449.100288 173.08923 
L 451.164672 173.411818 
L 453.51936 173.768364 
L 455.067648 173.982291 
L 455.712768 174.090953 
L 456.390144 175.028158 
L 456.841728 175.265855 
L 457.39008 175.384704 
L 458.809344 175.126633 
L 460.905984 174.797252 
L 461.776896 174.810835 
L 468.582912 175.41866 
L 469.744128 175.527322 
L 474.582528 175.928011 
L 476.066304 176.036673 
L 479.033856 176.243808 
L 479.678976 176.277765 
L 480.13056 176.308326 
L 481.90464 176.416988 
L 482.678784 176.467923 
L 484.775424 176.57998 
L 486.710784 176.688641 
L 489.00096 176.821073 
L 491.516928 176.929734 
L 493.258752 177.007835 
L 494.00064 177.038396 
L 496.129536 176.956899 
L 496.677888 176.43057 
L 497.290752 176.22683 
L 497.968128 176.264183 
L 498.710016 176.450944 
L 499.548672 176.688641 
L 502.612992 177.221762 
L 504 177.327028 
L 504.741888 177.371171 
L 506.999808 177.479833 
L 508.451328 177.523977 
L 511.838208 177.629242 
L 512.418816 177.642825 
L 513.225216 177.659803 
L 513.644544 177.676782 
L 519.96672 177.785443 
L 520.579584 177.805817 
L 527.159808 177.914479 
L 528.192 177.914479 
L 536.352768 178.012953 
L 537.288192 178.848289 
L 538.255872 179.048633 
L 540.900864 178.661527 
L 543.481344 178.230276 
L 544.96512 178.182737 
L 551.932416 178.074075 
L 552.996864 178.07068 
L 576.705024 177.978997 
L 577.188864 177.445876 
L 577.898496 177.119892 
L 578.9952 177.109705 
L 582.962688 177.832983 
L 584.64 177.900896 
L 616.960512 178.009558 
L 617.121792 178.189528 
L 617.637888 178.709066 
L 618.02496 178.892432 
L 618.637824 179.031655 
L 620.992512 178.922993 
L 622.70208 178.634361 
L 624.024576 178.467973 
L 628.572672 178.097845 
L 657.312768 178.02314 
L 657.86112 177.408524 
L 658.409472 177.133474 
L 660.344832 177.242136 
L 663.602688 177.816004 
L 665.699328 177.928062 
L 697.632768 178.02314 
L 698.568192 178.858476 
L 699.503616 179.038446 
L 700.793856 179.069007 
L 703.567872 178.597009 
L 709.438464 178.087658 
L 737.952768 178.02314 
L 738.50112 177.408524 
L 739.049472 177.133474 
L 740.984832 177.242136 
L 744.242688 177.816004 
L 746.339328 177.928062 
L 778.272768 178.02314 
L 779.208192 178.858476 
L 780.143616 179.038446 
L 781.433856 179.069007 
L 784.207872 178.597009 
L 790.078464 178.087658 
L 818.592768 178.02314 
L 819.14112 177.408524 
L 819.689472 177.133474 
L 821.624832 177.242136 
L 824.882688 177.816004 
L 826.979328 177.928062 
L 858.912768 178.02314 
L 859.848192 178.858476 
L 860.783616 179.038446 
L 862.073856 179.069007 
L 864.847872 178.597009 
L 870.718464 178.087658 
L 899.232768 178.02314 
L 899.78112 177.408524 
L 900.329472 177.133474 
L 902.264832 177.242136 
L 905.522688 177.816004 
L 907.619328 177.928062 
L 939.552768 178.02314 
L 940.617216 178.889037 
L 941.55264 179.075798 
L 943.455744 178.967137 
L 944.810496 178.715857 
L 947.03616 178.359312 
L 947.52 178.284607 
L 947.52 178.284607 
" clip-path="url(#p705b3b9cb2)" style="fill: none; stroke: #008000; stroke-width: 2; stroke-linecap: square"/>
   </g>
   <g id="patch_10">
    <path d="M 100.8 242.888276 
L 100.8 150.157241 
" style="fill: none; stroke: #bcbcbc; stroke-width: 0.8; stroke-linejoin: miter; stroke-linecap: square"/>
   </g>
   <g id="patch_11">
    <path d="M 987.84 242.888276 
L 987.84 150.157241 
" style="fill: none; stroke: #bcbcbc; stroke-width: 0.8; stroke-linejoin: miter; stroke-linecap: square"/>
   </g>
   <g id="patch_12">
    <path d="M 100.8 242.888276 
L 987.84 242.888276 
" style="fill: none; stroke: #bcbcbc; stroke-width: 0.8; stroke-linejoin: miter; stroke-linecap: square"/>
   </g>
   <g id="patch_13">
    <path d="M 100.8 150.157241 
L 987.84 150.157241 
" style="fill: none; stroke: #bcbcbc; stroke-width: 0.8; stroke-linejoin: miter; stroke-linecap: square"/>
   </g>
  </g>
  <g id="axes_3">
   <g id="patch_14">
    <path d="M 100.8 354.165517 
L 987.84 354.165517 
L 987.84 261.434483 
L 100.8 261.434483 
z
" style="fill: #eeeeee"/>
   </g>
   <g id="matplotlib.axis_5">
    <g id="xtick_13">
     <g id="line2d_37">
      <path d="M 141.12 354.165517 
L 141.12 261.434483 
" clip-path="url(#pd74dc5d628)" style="fill: none; stroke-dasharray: 1.85,0.8; stroke-dashoffset: 0; stroke: #b2b2b2; stroke-width: 0.5"/>
     </g>
     <g id="line2d_38">
      <g>
       <use xlink:href="#m6d17a8d41d" x="141.12" y="354.165517" style="stroke: #000000; stroke-width: 0.8"/>
      </g>
     </g>
    </g>
    <g id="xtick_14">
     <g id="line2d_39">
      <path d="M 302.4 354.165517 
L 302.4 261.434483 
" clip-path="url(#pd74dc5d628)" style="fill: none; stroke-dasharray: 1.85,0.8; stroke-dashoffset: 0; stroke: #b2b2b2; stroke-width: 0.5"/>
     </g>
     <g id="line2d_40">
      <g>
       <use xlink:href="#m6d17a8d41d" x="302.4" y="354.165517" style="stroke: #000000; stroke-width: 0.8"/>
      </g>
     </g>
    </g>
    <g id="xtick_15">
     <g id="line2d_41">
      <path d="M 463.68 354.165517 
L 463.68 261.434483 
" clip-path="url(#pd74dc5d628)" style="fill: none; stroke-dasharray: 1.85,0.8; stroke-dashoffset: 0; stroke: #b2b2b2; stroke-width: 0.5"/>
     </g>
     <g id="line2d_42">
      <g>
       <use xlink:href="#m6d17a8d41d" x="463.68" y="354.165517" style="stroke: #000000; stroke-width: 0.8"/>
      </g>
     </g>
    </g>
    <g id="xtick_16">
     <g id="line2d_43">
      <path d="M 624.96 354.165517 
L 624.96 261.434483 
" clip-path="url(#pd74dc5d628)" style="fill: none; stroke-dasharray: 1.85,0.8; stroke-dashoffset: 0; stroke: #b2b2b2; stroke-width: 0.5"/>
     </g>
     <g id="line2d_44">
      <g>
       <use xlink:href="#m6d17a8d41d" x="624.96" y="354.165517" style="stroke: #000000; stroke-width: 0.8"/>
      </g>
     </g>
    </g>
    <g id="xtick_17">
     <g id="line2d_45">
      <path d="M 786.24 354.165517 
L 786.24 261.434483 
" clip-path="url(#pd74dc5d628)" style="fill: none; stroke-dasharray: 1.85,0.8; stroke-dashoffset: 0; stroke: #b2b2b2; stroke-width: 0.5"/>
     </g>
     <g id="line2d_46">
      <g>
       <use xlink:href="#m6d17a8d41d" x="786.24" y="354.165517" style="stroke: #000000; stroke-width: 0.8"/>
      </g>
     </g>
    </g>
    <g id="xtick_18">
     <g id="line2d_47">
      <path d="M 947.52 354.165517 
L 947.52 261.434483 
" clip-path="url(#pd74dc5d628)" style="fill: none; stroke-dasharray: 1.85,0.8; stroke-dashoffset: 0; stroke: #b2b2b2; stroke-width: 0.5"/>
     </g>
     <g id="line2d_48">
      <g>
       <use xlink:href="#m6d17a8d41d" x="947.52" y="354.165517" style="stroke: #000000; stroke-width: 0.8"/>
      </g>
     </g>
    </g>
   </g>
   <g id="matplotlib.axis_6">
    <g id="ytick_6">
     <g id="line2d_49">
      <path d="M 100.8 343.898852 
L 987.84 343.898852 
" clip-path="url(#pd74dc5d628)" style="fill: none; stroke-dasharray: 1.85,0.8; stroke-dashoffset: 0; stroke: #b2b2b2; stroke-width: 0.5"/>
     </g>
     <g id="line2d_50">
      <g>
       <use xlink:href="#m556f59c65e" x="100.8" y="343.898852" style="stroke: #000000; stroke-width: 0.8"/>
      </g>
     </g>
     <g id="text_8">
      <!-- 0 V -->
      <g transform="translate(74.36625 349.217758) scale(0.14 -0.14)">
       <use xlink:href="#DejaVuSans-30"/>
       <use xlink:href="#DejaVuSans-20" x="63.623047"/>
       <use xlink:href="#DejaVuSans-56" x="95.410156"/>
      </g>
     </g>
    </g>
    <g id="ytick_7">
     <g id="line2d_51">
      <path d="M 100.8 296.139256 
L 987.84 296.139256 
" clip-path="url(#pd74dc5d628)" style="fill: none; stroke-dasharray: 1.85,0.8; stroke-dashoffset: 0; stroke: #b2b2b2; stroke-width: 0.5"/>
     </g>
     <g id="line2d_52">
      <g>
       <use xlink:href="#m556f59c65e" x="100.8" y="296.139256" style="stroke: #000000; stroke-width: 0.8"/>
      </g>
     </g>
     <g id="text_9">
      <!-- 1 V -->
      <g transform="translate(74.36625 301.458162) scale(0.14 -0.14)">
       <use xlink:href="#DejaVuSans-31"/>
       <use xlink:href="#DejaVuSans-20" x="63.623047"/>
       <use xlink:href="#DejaVuSans-56" x="95.410156"/>
      </g>
     </g>
    </g>
    <g id="text_10">
     <g id="patch_15">
      <path d="M 34.8768 342.395313 
L 34.8768 273.204688 
L 11.247425 273.204688 
L 11.247425 342.395313 
z
" style="fill: #ffff00; opacity: 0.2; stroke: #eeeeee; stroke-width: 0.5; stroke-linejoin: miter"/>
     </g>
     <!-- CLK BUF -->
     <g transform="translate(26.925238 337.355313) rotate(-90) scale(0.14 -0.14)">
      <defs>
       <path id="DejaVuSans-43" d="M 4122 4306 
L 4122 3641 
Q 3803 3938 3442 4084 
Q 3081 4231 2675 4231 
Q 1875 4231 1450 3742 
Q 1025 3253 1025 2328 
Q 1025 1406 1450 917 
Q 1875 428 2675 428 
Q 3081 428 3442 575 
Q 3803 722 4122 1019 
L 4122 359 
Q 3791 134 3420 21 
Q 3050 -91 2638 -91 
Q 1578 -91 968 557 
Q 359 1206 359 2328 
Q 359 3453 968 4101 
Q 1578 4750 2638 4750 
Q 3056 4750 3426 4639 
Q 3797 4528 4122 4306 
z
" transform="scale(0.015625)"/>
       <path id="DejaVuSans-4b" d="M 628 4666 
L 1259 4666 
L 1259 2694 
L 3353 4666 
L 4166 4666 
L 1850 2491 
L 4331 0 
L 3500 0 
L 1259 2247 
L 1259 0 
L 628 0 
L 628 4666 
z
" transform="scale(0.015625)"/>
      </defs>
      <use xlink:href="#DejaVuSans-43"/>
      <use xlink:href="#DejaVuSans-4c" x="69.824219"/>
      <use xlink:href="#DejaVuSans-4b" x="125.537109"/>
      <use xlink:href="#DejaVuSans-20" x="191.113281"/>
      <use xlink:href="#DejaVuSans-42" x="222.900391"/>
      <use xlink:href="#DejaVuSans-55" x="291.503906"/>
      <use xlink:href="#DejaVuSans-46" x="364.697266"/>
     </g>
    </g>
   </g>
   <g id="line2d_53">
    <path d="M 141.12 343.897589 
L 173.376 343.897589 
L 173.601792 286.587337 
L 213.696 286.587337 
L 213.760512 332.302344 
L 213.825024 343.877033 
L 213.889536 343.808304 
L 213.954048 343.999099 
L 214.01856 343.904028 
L 215.212032 343.895912 
L 222.598656 343.897605 
L 254.016 343.897556 
L 254.17728 286.410626 
L 254.241792 286.716288 
L 254.403072 286.577785 
L 254.8224 286.587337 
L 294.336 286.587337 
L 294.368256 294.047386 
L 294.49728 343.799326 
L 294.626304 343.896013 
L 296.077824 344.074421 
L 296.722944 344.732257 
L 297.497088 345.17112 
L 298.432512 345.432795 
L 299.9808 345.573017 
L 302.72256 345.543788 
L 314.33472 345.32204 
L 315.205632 345.613135 
L 316.173312 346.203252 
L 321.624576 349.856384 
L 321.7536 349.949037 
L 321.91488 349.855429 
L 323.011584 349.287567 
L 329.17248 346.94281 
L 334.204416 345.335604 
L 334.526976 345.253648 
L 334.656 345.219023 
L 334.688256 347.281091 
L 334.849536 319.699542 
L 335.010816 319.384329 
L 337.591296 318.427704 
L 341.203968 316.975335 
L 343.590912 315.43461 
L 348.04224 312.21227 
L 350.751744 310.343915 
L 351.687168 309.721607 
L 356.622336 306.710365 
L 360.202752 304.769415 
L 360.525312 304.491454 
L 361.880064 301.675548 
L 363.815424 297.0166 
L 368.169984 286.539577 
L 368.84736 284.996942 
L 370.589184 281.142743 
L 371.621376 278.917146 
L 374.976 272.149611 
L 375.201792 342.226884 
L 375.879168 342.249379 
L 380.395008 342.336015 
L 381.91104 342.294655 
L 386.201088 342.425803 
L 386.491392 342.752574 
L 387.136512 343.378033 
L 387.8784 343.795887 
L 388.878336 344.090745 
L 390.2976 344.261218 
L 393.03936 344.332189 
L 403.232256 344.271085 
L 406.393344 344.367627 
L 408.425472 344.445651 
L 415.296 344.384997 
L 415.425024 265.64953 
L 415.586304 266.284732 
L 416.876544 266.967695 
L 417.360384 267.254252 
L 418.876416 268.047061 
L 420.198912 268.701368 
L 423.68256 270.368178 
L 424.521216 270.735927 
L 431.456256 273.697022 
L 431.714304 273.806869 
L 433.552896 274.508935 
L 433.8432 274.618782 
L 435.036672 275.03429 
L 435.391488 275.144137 
L 436.58496 275.559646 
L 436.843008 275.664717 
L 437.262336 275.798444 
L 437.617152 275.903515 
L 438.03648 276.037242 
L 438.391296 276.142313 
L 438.907392 276.323799 
L 439.262208 276.428871 
L 439.681536 276.562597 
L 440.036352 276.667669 
L 440.45568 276.801395 
L 440.810496 276.906467 
L 441.165312 276.992434 
L 446.552064 278.472981 
L 447.003648 278.578052 
L 447.358464 278.66402 
L 449.842176 279.284894 
L 450.390528 279.389966 
L 450.745344 279.475933 
L 452.261376 279.81025 
L 452.809728 279.915321 
L 453.164544 280.001288 
L 453.68064 280.106359 
L 454.035456 280.187551 
L 455.616 280.488436 
L 455.648256 289.113819 
L 455.77728 344.076847 
L 456.035328 344.061798 
L 491.645952 343.951354 
L 495.936 343.94454 
L 496.09728 284.901423 
L 496.161792 284.920527 
L 496.839168 284.930079 
L 497.161728 284.96351 
L 499.742208 285.073357 
L 500.064768 285.106789 
L 502.838784 285.216636 
L 503.161344 285.250068 
L 506.322432 285.359915 
L 506.644992 285.393347 
L 510.28992 285.503194 
L 510.61248 285.536626 
L 514.741248 285.646473 
L 515.063808 285.679904 
L 519.96672 285.789751 
L 520.28928 285.823183 
L 526.25664 285.93303 
L 526.5792 285.966462 
L 534.191616 286.076309 
L 534.514176 286.109741 
L 536.256 286.109741 
L 536.288256 290.618247 
L 536.352768 344.030162 
L 536.41728 343.740605 
L 536.514048 344.069387 
L 536.57856 343.919569 
L 537.352704 343.916856 
L 543.416832 343.903526 
L 563.415552 343.911251 
L 576.576 343.911225 
L 576.73728 286.014222 
L 576.801792 286.128845 
L 577.672704 286.109741 
L 616.896 286.109741 
L 617.025024 344.263544 
L 617.186304 343.985832 
L 617.444352 343.879364 
L 617.799168 343.931321 
L 618.089472 343.91112 
L 652.280832 343.911262 
L 657.216 343.911266 
L 657.37728 285.861391 
L 657.441792 286.401074 
L 657.53856 285.913926 
L 657.603072 286.090637 
L 658.054656 286.109741 
L 697.536 286.109741 
L 697.665024 344.263735 
L 697.826304 343.985779 
L 698.084352 343.879375 
L 698.439168 343.931334 
L 698.729472 343.911122 
L 732.791808 343.911262 
L 737.856 343.911266 
L 738.01728 285.861391 
L 738.081792 286.401074 
L 738.17856 285.90915 
L 738.243072 286.090637 
L 738.694656 286.109741 
L 778.176 286.109741 
L 778.305024 344.263539 
L 778.466304 343.985827 
L 778.724352 343.879365 
L 779.079168 343.931321 
L 779.369472 343.91112 
L 813.560832 343.911262 
L 818.496 343.911266 
L 818.65728 285.861391 
L 818.721792 286.401074 
L 818.81856 285.90915 
L 818.883072 286.090637 
L 819.334656 286.109741 
L 858.816 286.109741 
L 858.945024 344.263735 
L 859.106304 343.985779 
L 859.364352 343.879375 
L 859.719168 343.931334 
L 860.009472 343.911122 
L 894.071808 343.911262 
L 899.136 343.911266 
L 899.29728 285.861391 
L 899.361792 286.401074 
L 899.45856 285.90915 
L 899.523072 286.090637 
L 899.974656 286.109741 
L 939.456 286.109741 
L 939.488256 294.720796 
L 939.61728 343.854463 
L 939.649536 343.993335 
L 939.714048 343.860475 
L 939.746304 343.818573 
L 939.810816 343.880207 
L 939.972096 343.974995 
L 940.004352 343.939845 
L 940.197888 343.910475 
L 945.1008 343.911276 
L 947.52 343.911255 
L 947.52 343.911255 
" clip-path="url(#pd74dc5d628)" style="fill: none; stroke: #0000ff; stroke-width: 2; stroke-linecap: square"/>
   </g>
   <g id="patch_16">
    <path d="M 100.8 354.165517 
L 100.8 261.434483 
" style="fill: none; stroke: #bcbcbc; stroke-width: 0.8; stroke-linejoin: miter; stroke-linecap: square"/>
   </g>
   <g id="patch_17">
    <path d="M 987.84 354.165517 
L 987.84 261.434483 
" style="fill: none; stroke: #bcbcbc; stroke-width: 0.8; stroke-linejoin: miter; stroke-linecap: square"/>
   </g>
   <g id="patch_18">
    <path d="M 100.8 354.165517 
L 987.84 354.165517 
" style="fill: none; stroke: #bcbcbc; stroke-width: 0.8; stroke-linejoin: miter; stroke-linecap: square"/>
   </g>
   <g id="patch_19">
    <path d="M 100.8 261.434483 
L 987.84 261.434483 
" style="fill: none; stroke: #bcbcbc; stroke-width: 0.8; stroke-linejoin: miter; stroke-linecap: square"/>
   </g>
  </g>
  <g id="axes_4">
   <g id="patch_20">
    <path d="M 100.8 465.442759 
L 987.84 465.442759 
L 987.84 372.711724 
L 100.8 372.711724 
z
" style="fill: #eeeeee"/>
   </g>
   <g id="matplotlib.axis_7">
    <g id="xtick_19">
     <g id="line2d_54">
      <path d="M 141.12 465.442759 
L 141.12 372.711724 
" clip-path="url(#paf2728fd6f)" style="fill: none; stroke-dasharray: 1.85,0.8; stroke-dashoffset: 0; stroke: #b2b2b2; stroke-width: 0.5"/>
     </g>
     <g id="line2d_55">
      <g>
       <use xlink:href="#m6d17a8d41d" x="141.12" y="465.442759" style="stroke: #000000; stroke-width: 0.8"/>
      </g>
     </g>
    </g>
    <g id="xtick_20">
     <g id="line2d_56">
      <path d="M 302.4 465.442759 
L 302.4 372.711724 
" clip-path="url(#paf2728fd6f)" style="fill: none; stroke-dasharray: 1.85,0.8; stroke-dashoffset: 0; stroke: #b2b2b2; stroke-width: 0.5"/>
     </g>
     <g id="line2d_57">
      <g>
       <use xlink:href="#m6d17a8d41d" x="302.4" y="465.442759" style="stroke: #000000; stroke-width: 0.8"/>
      </g>
     </g>
    </g>
    <g id="xtick_21">
     <g id="line2d_58">
      <path d="M 463.68 465.442759 
L 463.68 372.711724 
" clip-path="url(#paf2728fd6f)" style="fill: none; stroke-dasharray: 1.85,0.8; stroke-dashoffset: 0; stroke: #b2b2b2; stroke-width: 0.5"/>
     </g>
     <g id="line2d_59">
      <g>
       <use xlink:href="#m6d17a8d41d" x="463.68" y="465.442759" style="stroke: #000000; stroke-width: 0.8"/>
      </g>
     </g>
    </g>
    <g id="xtick_22">
     <g id="line2d_60">
      <path d="M 624.96 465.442759 
L 624.96 372.711724 
" clip-path="url(#paf2728fd6f)" style="fill: none; stroke-dasharray: 1.85,0.8; stroke-dashoffset: 0; stroke: #b2b2b2; stroke-width: 0.5"/>
     </g>
     <g id="line2d_61">
      <g>
       <use xlink:href="#m6d17a8d41d" x="624.96" y="465.442759" style="stroke: #000000; stroke-width: 0.8"/>
      </g>
     </g>
    </g>
    <g id="xtick_23">
     <g id="line2d_62">
      <path d="M 786.24 465.442759 
L 786.24 372.711724 
" clip-path="url(#paf2728fd6f)" style="fill: none; stroke-dasharray: 1.85,0.8; stroke-dashoffset: 0; stroke: #b2b2b2; stroke-width: 0.5"/>
     </g>
     <g id="line2d_63">
      <g>
       <use xlink:href="#m6d17a8d41d" x="786.24" y="465.442759" style="stroke: #000000; stroke-width: 0.8"/>
      </g>
     </g>
    </g>
    <g id="xtick_24">
     <g id="line2d_64">
      <path d="M 947.52 465.442759 
L 947.52 372.711724 
" clip-path="url(#paf2728fd6f)" style="fill: none; stroke-dasharray: 1.85,0.8; stroke-dashoffset: 0; stroke: #b2b2b2; stroke-width: 0.5"/>
     </g>
     <g id="line2d_65">
      <g>
       <use xlink:href="#m6d17a8d41d" x="947.52" y="465.442759" style="stroke: #000000; stroke-width: 0.8"/>
      </g>
     </g>
    </g>
   </g>
   <g id="matplotlib.axis_8">
    <g id="ytick_8">
     <g id="line2d_66">
      <path d="M 100.8 439.155999 
L 987.84 439.155999 
" clip-path="url(#paf2728fd6f)" style="fill: none; stroke-dasharray: 1.85,0.8; stroke-dashoffset: 0; stroke: #b2b2b2; stroke-width: 0.5"/>
     </g>
     <g id="line2d_67">
      <g>
       <use xlink:href="#m556f59c65e" x="100.8" y="439.155999" style="stroke: #000000; stroke-width: 0.8"/>
      </g>
     </g>
     <g id="text_11">
      <!-- 0 V -->
      <g transform="translate(74.36625 444.474905) scale(0.14 -0.14)">
       <use xlink:href="#DejaVuSans-30"/>
       <use xlink:href="#DejaVuSans-20" x="63.623047"/>
       <use xlink:href="#DejaVuSans-56" x="95.410156"/>
      </g>
     </g>
    </g>
    <g id="ytick_9">
     <g id="line2d_68">
      <path d="M 100.8 400.600096 
L 987.84 400.600096 
" clip-path="url(#paf2728fd6f)" style="fill: none; stroke-dasharray: 1.85,0.8; stroke-dashoffset: 0; stroke: #b2b2b2; stroke-width: 0.5"/>
     </g>
     <g id="line2d_69">
      <g>
       <use xlink:href="#m556f59c65e" x="100.8" y="400.600096" style="stroke: #000000; stroke-width: 0.8"/>
      </g>
     </g>
     <g id="text_12">
      <!-- 1 V -->
      <g transform="translate(74.36625 405.919002) scale(0.14 -0.14)">
       <use xlink:href="#DejaVuSans-31"/>
       <use xlink:href="#DejaVuSans-20" x="63.623047"/>
       <use xlink:href="#DejaVuSans-56" x="95.410156"/>
      </g>
     </g>
    </g>
    <g id="text_13">
     <g id="patch_21">
      <path d="M 34.8768 454.693023 
L 34.8768 383.46146 
L 11.247425 383.46146 
L 11.247425 454.693023 
z
" style="fill: #ffff00; opacity: 0.2; stroke: #eeeeee; stroke-width: 0.5; stroke-linejoin: miter"/>
     </g>
     <!-- DFF OUT -->
     <g transform="translate(26.925238 449.653023) rotate(-90) scale(0.14 -0.14)">
      <defs>
       <path id="DejaVuSans-4f" d="M 2522 4238 
Q 1834 4238 1429 3725 
Q 1025 3213 1025 2328 
Q 1025 1447 1429 934 
Q 1834 422 2522 422 
Q 3209 422 3611 934 
Q 4013 1447 4013 2328 
Q 4013 3213 3611 3725 
Q 3209 4238 2522 4238 
z
M 2522 4750 
Q 3503 4750 4090 4092 
Q 4678 3434 4678 2328 
Q 4678 1225 4090 567 
Q 3503 -91 2522 -91 
Q 1538 -91 948 565 
Q 359 1222 359 2328 
Q 359 3434 948 4092 
Q 1538 4750 2522 4750 
z
" transform="scale(0.015625)"/>
       <path id="DejaVuSans-54" d="M -19 4666 
L 3928 4666 
L 3928 4134 
L 2272 4134 
L 2272 0 
L 1638 0 
L 1638 4134 
L -19 4134 
L -19 4666 
z
" transform="scale(0.015625)"/>
      </defs>
      <use xlink:href="#DejaVuSans-44"/>
      <use xlink:href="#DejaVuSans-46" x="77.001953"/>
      <use xlink:href="#DejaVuSans-46" x="134.521484"/>
      <use xlink:href="#DejaVuSans-20" x="192.041016"/>
      <use xlink:href="#DejaVuSans-4f" x="223.828125"/>
      <use xlink:href="#DejaVuSans-55" x="302.539062"/>
      <use xlink:href="#DejaVuSans-54" x="375.732422"/>
     </g>
    </g>
   </g>
   <g id="line2d_70">
    <path d="M 141.12 410.064413 
L 173.408256 410.111452 
L 173.440512 411.707666 
L 173.601792 439.158352 
L 174.150144 439.154216 
L 184.697856 439.154977 
L 254.048256 439.156587 
L 254.080512 439.310716 
L 254.112768 439.055765 
L 254.306304 435.291541 
L 254.596608 434.537002 
L 254.693376 433.998762 
L 255.14496 427.243767 
L 255.370752 411.367217 
L 255.596544 393.262907 
L 255.757824 392.946749 
L 255.983616 392.88506 
L 256.951296 392.888915 
L 295.78752 392.827226 
L 295.852032 392.723125 
L 295.916544 393.501954 
L 296.077824 395.410471 
L 296.27136 395.472161 
L 297.013248 395.364204 
L 297.368064 395.244681 
L 297.755136 395.487583 
L 298.626048 396.578715 
L 303.948288 405.051375 
L 304.49664 406.376927 
L 305.14176 408.478224 
L 305.399808 409.455616 
L 305.722368 410.760347 
L 306.722304 415.297992 
L 306.819072 415.639211 
L 307.72224 419.14857 
L 307.819008 419.492103 
L 308.0448 421.210154 
L 309.044736 426.188878 
L 309.947904 430.77009 
L 311.302656 435.937969 
L 311.334912 435.622428 
L 311.367168 435.502789 
L 311.43168 435.645407 
L 311.496192 436.011225 
L 311.625216 437.162389 
L 311.883264 438.159638 
L 311.947776 438.407513 
L 311.980032 438.118691 
L 312.044544 438.056308 
L 312.0768 438.187359 
L 312.109056 438.31548 
L 312.270336 439.626767 
L 312.657408 440.941253 
L 312.689664 440.660643 
L 312.72192 440.770219 
L 312.754176 441.414643 
L 312.850944 441.139238 
L 312.8832 441.214075 
L 313.04448 442.454264 
L 313.52832 443.891435 
L 313.754112 444.475172 
L 313.786368 444.236511 
L 313.818624 444.608575 
L 313.979904 445.023051 
L 314.044416 444.799041 
L 314.076672 444.952108 
L 314.237952 445.616426 
L 314.721792 446.613096 
L 314.754048 446.562974 
L 314.786304 446.51902 
L 314.81856 446.550636 
L 314.883072 446.831708 
L 314.947584 446.733391 
L 315.3024 447.399637 
L 315.46368 448.144922 
L 315.495936 447.85344 
L 315.560448 448.096342 
L 315.721728 448.72596 
L 318.786048 455.46052 
L 318.818304 455.338683 
L 318.882816 455.46052 
L 319.044096 455.861501 
L 319.076352 455.811378 
L 319.721472 457.356699 
L 321.785856 461.227712 
L 321.818112 461.146744 
L 321.850368 461.182987 
L 322.011648 460.952422 
L 322.818048 459.515444 
L 323.430912 458.379973 
L 323.463168 458.49217 
L 323.495424 458.299391 
L 323.656704 457.994414 
L 323.721216 457.915374 
L 323.753472 457.990172 
L 323.785728 457.920386 
L 323.85024 457.246429 
L 323.914752 457.296166 
L 324.043776 457.475451 
L 324.076032 457.463499 
L 324.9792 456.133706 
L 325.495296 455.539559 
L 325.527552 455.682602 
L 325.559808 455.480183 
L 325.592064 455.549198 
L 325.753344 455.319405 
L 325.7856 455.354876 
L 326.237184 454.83977 
L 326.592 454.264901 
L 326.624256 454.221718 
L 326.656512 454.31271 
L 326.688768 454.348182 
L 326.850048 453.947586 
L 326.882304 454.163499 
L 326.91456 453.916356 
L 326.946816 454.102581 
L 327.108096 453.658031 
L 327.72096 453.02957 
L 327.753216 453.223121 
L 327.785472 452.977134 
L 327.817728 453.101284 
L 328.075776 452.727292 
L 328.882176 452.020562 
L 329.140224 451.552879 
L 329.236992 451.464586 
L 329.269248 451.666233 
L 329.301504 451.371666 
L 329.33376 451.386703 
L 329.398272 451.517407 
L 329.462784 451.181971 
L 329.49504 451.45032 
L 329.559552 451.089437 
L 329.591808 451.347376 
L 329.720832 450.868897 
L 329.753088 450.872753 
L 329.785344 451.157681 
L 329.849856 450.786773 
L 329.882112 451.06052 
L 329.946624 450.679202 
L 330.011136 450.685371 
L 330.043392 450.703878 
L 330.075648 450.856559 
L 330.107904 450.514183 
L 330.14016 450.506086 
L 330.204672 450.727782 
L 330.269184 450.646815 
L 330.398208 450.262413 
L 330.430464 450.25046 
L 330.46272 450.362658 
L 330.494976 450.177204 
L 330.527232 450.174505 
L 330.624 450.11243 
L 330.656256 450.290173 
L 330.78528 450.000233 
L 330.817536 450.097393 
L 330.882048 449.94664 
L 331.172352 449.824032 
L 331.849728 449.123471 
L 332.011008 448.619931 
L 332.172288 448.449514 
L 332.204544 448.704754 
L 332.269056 448.342329 
L 332.365824 448.248252 
L 332.39808 448.572507 
L 332.430336 448.140296 
L 332.494848 448.486528 
L 332.623872 447.955613 
L 332.656128 447.964095 
L 332.688384 448.297604 
L 332.752896 447.883899 
L 332.785152 448.205841 
L 332.914176 447.708084 
L 332.946432 447.698445 
L 332.978688 448.004579 
L 333.0432 447.62596 
L 333.075456 447.834162 
L 333.107712 447.548077 
L 333.139968 447.550776 
L 333.172224 447.696903 
L 333.236736 447.488701 
L 333.68832 447.285126 
L 333.785088 447.272788 
L 334.559232 446.537527 
L 334.656 446.423016 
L 334.849536 445.87745 
L 334.97856 445.737106 
L 335.010816 446.09452 
L 335.043072 445.683128 
L 335.075328 445.730552 
L 335.204352 445.513097 
L 335.268864 445.449479 
L 335.30112 445.825399 
L 335.365632 445.350776 
L 335.397888 445.735564 
L 335.559168 445.190384 
L 336.236544 444.71923 
L 337.171968 444.199497 
L 338.139648 443.329676 
L 338.494464 442.530065 
L 338.655744 442.375648 
L 338.688 442.826945 
L 338.752512 442.693773 
L 338.978304 442.139956 
L 339.139584 442.029378 
L 339.204096 442.38282 
L 339.268608 442.20955 
L 339.300864 442.103367 
L 339.33312 442.274092 
L 339.365376 442.24024 
L 339.397632 442.202185 
L 339.462144 441.861313 
L 339.526656 441.876002 
L 339.849216 441.791835 
L 341.332992 440.314488 
L 341.462016 439.535929 
L 341.655552 439.313643 
L 341.687808 439.748603 
L 341.75232 439.433208 
L 342.39744 438.609816 
L 343.074816 437.429196 
L 343.20384 436.644776 
L 343.268352 436.596119 
L 343.332864 436.952028 
L 343.36512 436.555249 
L 343.5264 436.6324 
L 343.558656 436.579115 
L 344.49408 434.887861 
L 344.65536 433.998376 
L 344.687616 434.440227 
L 344.719872 433.931289 
L 344.752128 433.979484 
L 344.913408 434.126382 
L 344.945664 434.061993 
L 348.68736 427.312782 
L 348.719616 427.501321 
L 348.751872 427.557227 
L 348.816384 427.223718 
L 348.880896 427.38681 
L 349.913088 425.152881 
L 350.074368 424.753441 
L 350.106624 424.972439 
L 350.13888 424.754213 
L 350.396928 424.237949 
L 351.525888 421.519758 
L 351.783936 421.156947 
L 351.816192 420.506123 
L 351.91296 420.562415 
L 352.041984 420.67654 
L 352.07424 420.62449 
L 352.88064 419.112713 
L 353.332224 418.45572 
L 353.428992 417.829187 
L 353.461248 417.866586 
L 353.654784 417.914781 
L 353.880576 417.575875 
L 355.590144 415.038896 
L 355.880448 414.957543 
L 356.009472 415.336162 
L 356.170752 418.432587 
L 356.332032 433.524909 
L 356.461056 438.558383 
L 356.719104 438.639967 
L 360.493056 438.719122 
L 361.170432 438.133844 
L 361.976832 437.764517 
L 363.04128 437.541471 
L 364.621824 437.457033 
L 368.137728 437.542782 
L 375.008256 437.806157 
L 375.040512 437.707454 
L 375.105024 437.830254 
L 375.330816 437.812056 
L 380.911104 437.876175 
L 383.652864 437.901043 
L 386.330112 438.069764 
L 387.007488 438.667149 
L 387.846144 439.075244 
L 389.00736 439.342417 
L 390.749184 439.480262 
L 394.877952 439.515876 
L 407.619072 439.591835 
L 411.941376 439.584934 
L 415.328256 439.545028 
L 415.360512 439.852743 
L 415.650816 430.564202 
L 415.844352 428.87314 
L 416.005632 424.634689 
L 416.199168 408.968655 
L 416.489472 376.984605 
L 416.618496 376.946049 
L 418.102272 377.593788 
L 418.457088 377.751867 
L 419.97312 378.357195 
L 425.843712 380.578015 
L 426.875904 380.952007 
L 431.456256 382.482677 
L 431.74656 382.582922 
L 433.939968 383.253795 
L 434.262528 383.35404 
L 435.681792 383.755022 
L 436.10112 383.855267 
L 437.520384 384.256248 
L 437.939712 384.356494 
L 439.16544 384.680363 
L 439.584768 384.780609 
L 440.584704 385.023511 
L 441.520128 385.24328 
L 442.294272 385.412925 
L 442.681344 385.513171 
L 443.455488 385.682817 
L 443.939328 385.783062 
L 444.713472 385.952708 
L 445.100544 386.052953 
L 445.77792 386.184044 
L 446.26176 386.284289 
L 446.939136 386.415379 
L 447.422976 386.515624 
L 448.100352 386.646714 
L 448.584192 386.74696 
L 449.261568 386.87805 
L 449.745408 386.978295 
L 450.326016 387.070829 
L 450.809856 387.171075 
L 451.390464 387.263609 
L 451.971072 387.363854 
L 452.55168 387.456388 
L 453.03552 387.556634 
L 453.616128 387.649168 
L 454.196736 387.749413 
L 454.777344 387.841947 
L 455.45472 387.938337 
L 455.648256 387.98846 
L 455.680512 387.895926 
L 455.745024 388.046294 
L 455.906304 388.003882 
L 456.519168 388.111839 
L 457.196544 388.208228 
L 457.55136 388.266062 
L 458.260992 388.362452 
L 458.615808 388.420286 
L 459.422208 388.516676 
L 459.777024 388.57451 
L 460.486656 388.670899 
L 460.841472 388.728733 
L 461.74464 388.825123 
L 462.099456 388.882957 
L 462.905856 388.979347 
L 463.260672 389.03718 
L 464.16384 389.13357 
L 464.454144 389.152848 
L 465.228288 389.249238 
L 465.583104 389.307072 
L 466.58304 389.403461 
L 466.937856 389.461295 
L 467.937792 389.557685 
L 468.228096 389.576963 
L 469.099008 389.673353 
L 469.389312 389.692631 
L 470.260224 389.789021 
L 470.550528 389.808298 
L 471.42144 389.904688 
L 471.711744 389.923966 
L 472.679424 390.020356 
L 472.969728 390.039634 
L 473.937408 390.136024 
L 474.227712 390.155302 
L 475.29216 390.251691 
L 475.582464 390.270969 
L 476.74368 390.367359 
L 477.033984 390.386637 
L 478.1952 390.483027 
L 478.485504 390.502305 
L 479.743488 390.598694 
L 480.033792 390.617972 
L 481.388544 390.714362 
L 481.678848 390.73364 
L 483.130368 390.83003 
L 483.420672 390.849308 
L 484.872192 390.945698 
L 485.13024 390.96112 
L 486.807552 391.061365 
L 487.097856 391.080643 
L 488.871936 391.1886 
L 489.355776 391.196311 
L 489.96864 391.234867 
L 491.871744 391.342823 
L 493.19424 391.389091 
L 495.1296 391.48548 
L 495.419904 391.504758 
L 495.968256 391.508614 
L 496.000512 391.724527 
L 496.065024 391.539459 
L 496.871424 391.554881 
L 497.161728 391.58187 
L 499.774464 391.67826 
L 500.064768 391.697538 
L 502.87104 391.793927 
L 503.129088 391.80935 
L 506.354688 391.909595 
L 506.612736 391.925018 
L 510.322176 392.025263 
L 510.676992 392.040685 
L 514.773504 392.140931 
L 515.12832 392.156353 
L 519.998976 392.256598 
L 520.353792 392.272021 
L 526.288896 392.372266 
L 526.643712 392.387688 
L 534.223872 392.487934 
L 534.48192 392.503356 
L 576.608256 392.518778 
L 576.640512 392.649869 
L 576.705024 392.472511 
L 576.995328 392.495645 
L 657.248256 392.499501 
L 657.280512 392.696136 
L 657.345024 392.499501 
L 657.53856 392.480223 
L 658.66752 392.503356 
L 737.888256 392.499501 
L 737.920512 392.696136 
L 737.985024 392.499501 
L 738.17856 392.480223 
L 739.30752 392.503356 
L 818.528256 392.499501 
L 818.560512 392.696136 
L 818.625024 392.499501 
L 818.81856 392.480223 
L 819.94752 392.503356 
L 899.168256 392.499501 
L 899.200512 392.696136 
L 899.265024 392.499501 
L 899.45856 392.480223 
L 900.58752 392.503356 
L 947.52 392.503356 
L 947.52 392.503356 
" clip-path="url(#paf2728fd6f)" style="fill: none; stroke: #ff00ff; stroke-width: 2; stroke-linecap: square"/>
   </g>
   <g id="patch_22">
    <path d="M 100.8 465.442759 
L 100.8 372.711724 
" style="fill: none; stroke: #bcbcbc; stroke-width: 0.8; stroke-linejoin: miter; stroke-linecap: square"/>
   </g>
   <g id="patch_23">
    <path d="M 987.84 465.442759 
L 987.84 372.711724 
" style="fill: none; stroke: #bcbcbc; stroke-width: 0.8; stroke-linejoin: miter; stroke-linecap: square"/>
   </g>
   <g id="patch_24">
    <path d="M 100.8 465.442759 
L 987.84 465.442759 
" style="fill: none; stroke: #bcbcbc; stroke-width: 0.8; stroke-linejoin: miter; stroke-linecap: square"/>
   </g>
   <g id="patch_25">
    <path d="M 100.8 372.711724 
L 987.84 372.711724 
" style="fill: none; stroke: #bcbcbc; stroke-width: 0.8; stroke-linejoin: miter; stroke-linecap: square"/>
   </g>
  </g>
  <g id="axes_5">
   <g id="patch_26">
    <path d="M 100.8 576.72 
L 987.84 576.72 
L 987.84 483.988966 
L 100.8 483.988966 
z
" style="fill: #eeeeee"/>
   </g>
   <g id="matplotlib.axis_9">
    <g id="xtick_25">
     <g id="line2d_71">
      <path d="M 141.12 576.72 
L 141.12 483.988966 
" clip-path="url(#pab04146c65)" style="fill: none; stroke-dasharray: 1.85,0.8; stroke-dashoffset: 0; stroke: #b2b2b2; stroke-width: 0.5"/>
     </g>
     <g id="line2d_72">
      <g>
       <use xlink:href="#m6d17a8d41d" x="141.12" y="576.72" style="stroke: #000000; stroke-width: 0.8"/>
      </g>
     </g>
     <g id="text_14">
      <!-- 0 s -->
      <g transform="translate(130.795 590.857813) scale(0.14 -0.14)">
       <defs>
        <path id="DejaVuSans-73" d="M 2834 3397 
L 2834 2853 
Q 2591 2978 2328 3040 
Q 2066 3103 1784 3103 
Q 1356 3103 1142 2972 
Q 928 2841 928 2578 
Q 928 2378 1081 2264 
Q 1234 2150 1697 2047 
L 1894 2003 
Q 2506 1872 2764 1633 
Q 3022 1394 3022 966 
Q 3022 478 2636 193 
Q 2250 -91 1575 -91 
Q 1294 -91 989 -36 
Q 684 19 347 128 
L 347 722 
Q 666 556 975 473 
Q 1284 391 1588 391 
Q 1994 391 2212 530 
Q 2431 669 2431 922 
Q 2431 1156 2273 1281 
Q 2116 1406 1581 1522 
L 1381 1569 
Q 847 1681 609 1914 
Q 372 2147 372 2553 
Q 372 3047 722 3315 
Q 1072 3584 1716 3584 
Q 2034 3584 2315 3537 
Q 2597 3491 2834 3397 
z
" transform="scale(0.015625)"/>
       </defs>
       <use xlink:href="#DejaVuSans-30"/>
       <use xlink:href="#DejaVuSans-20" x="63.623047"/>
       <use xlink:href="#DejaVuSans-73" x="95.410156"/>
      </g>
     </g>
    </g>
    <g id="xtick_26">
     <g id="line2d_73">
      <path d="M 302.4 576.72 
L 302.4 483.988966 
" clip-path="url(#pab04146c65)" style="fill: none; stroke-dasharray: 1.85,0.8; stroke-dashoffset: 0; stroke: #b2b2b2; stroke-width: 0.5"/>
     </g>
     <g id="line2d_74">
      <g>
       <use xlink:href="#m6d17a8d41d" x="302.4" y="576.72" style="stroke: #000000; stroke-width: 0.8"/>
      </g>
     </g>
     <g id="text_15">
      <!-- 50 ns -->
      <g transform="translate(283.185 590.857813) scale(0.14 -0.14)">
       <defs>
        <path id="DejaVuSans-35" d="M 691 4666 
L 3169 4666 
L 3169 4134 
L 1269 4134 
L 1269 2991 
Q 1406 3038 1543 3061 
Q 1681 3084 1819 3084 
Q 2600 3084 3056 2656 
Q 3513 2228 3513 1497 
Q 3513 744 3044 326 
Q 2575 -91 1722 -91 
Q 1428 -91 1123 -41 
Q 819 9 494 109 
L 494 744 
Q 775 591 1075 516 
Q 1375 441 1709 441 
Q 2250 441 2565 725 
Q 2881 1009 2881 1497 
Q 2881 1984 2565 2268 
Q 2250 2553 1709 2553 
Q 1456 2553 1204 2497 
Q 953 2441 691 2322 
L 691 4666 
z
" transform="scale(0.015625)"/>
        <path id="DejaVuSans-6e" d="M 3513 2113 
L 3513 0 
L 2938 0 
L 2938 2094 
Q 2938 2591 2744 2837 
Q 2550 3084 2163 3084 
Q 1697 3084 1428 2787 
Q 1159 2491 1159 1978 
L 1159 0 
L 581 0 
L 581 3500 
L 1159 3500 
L 1159 2956 
Q 1366 3272 1645 3428 
Q 1925 3584 2291 3584 
Q 2894 3584 3203 3211 
Q 3513 2838 3513 2113 
z
" transform="scale(0.015625)"/>
       </defs>
       <use xlink:href="#DejaVuSans-35"/>
       <use xlink:href="#DejaVuSans-30" x="63.623047"/>
       <use xlink:href="#DejaVuSans-20" x="127.246094"/>
       <use xlink:href="#DejaVuSans-6e" x="159.033203"/>
       <use xlink:href="#DejaVuSans-73" x="222.412109"/>
      </g>
     </g>
    </g>
    <g id="xtick_27">
     <g id="line2d_75">
      <path d="M 463.68 576.72 
L 463.68 483.988966 
" clip-path="url(#pab04146c65)" style="fill: none; stroke-dasharray: 1.85,0.8; stroke-dashoffset: 0; stroke: #b2b2b2; stroke-width: 0.5"/>
     </g>
     <g id="line2d_76">
      <g>
       <use xlink:href="#m6d17a8d41d" x="463.68" y="576.72" style="stroke: #000000; stroke-width: 0.8"/>
      </g>
     </g>
     <g id="text_16">
      <!-- 100 ns -->
      <g transform="translate(440.01125 590.857813) scale(0.14 -0.14)">
       <use xlink:href="#DejaVuSans-31"/>
       <use xlink:href="#DejaVuSans-30" x="63.623047"/>
       <use xlink:href="#DejaVuSans-30" x="127.246094"/>
       <use xlink:href="#DejaVuSans-20" x="190.869141"/>
       <use xlink:href="#DejaVuSans-6e" x="222.65625"/>
       <use xlink:href="#DejaVuSans-73" x="286.035156"/>
      </g>
     </g>
    </g>
    <g id="xtick_28">
     <g id="line2d_77">
      <path d="M 624.96 576.72 
L 624.96 483.988966 
" clip-path="url(#pab04146c65)" style="fill: none; stroke-dasharray: 1.85,0.8; stroke-dashoffset: 0; stroke: #b2b2b2; stroke-width: 0.5"/>
     </g>
     <g id="line2d_78">
      <g>
       <use xlink:href="#m6d17a8d41d" x="624.96" y="576.72" style="stroke: #000000; stroke-width: 0.8"/>
      </g>
     </g>
     <g id="text_17">
      <!-- 150 ns -->
      <g transform="translate(601.29125 590.857813) scale(0.14 -0.14)">
       <use xlink:href="#DejaVuSans-31"/>
       <use xlink:href="#DejaVuSans-35" x="63.623047"/>
       <use xlink:href="#DejaVuSans-30" x="127.246094"/>
       <use xlink:href="#DejaVuSans-20" x="190.869141"/>
       <use xlink:href="#DejaVuSans-6e" x="222.65625"/>
       <use xlink:href="#DejaVuSans-73" x="286.035156"/>
      </g>
     </g>
    </g>
    <g id="xtick_29">
     <g id="line2d_79">
      <path d="M 786.24 576.72 
L 786.24 483.988966 
" clip-path="url(#pab04146c65)" style="fill: none; stroke-dasharray: 1.85,0.8; stroke-dashoffset: 0; stroke: #b2b2b2; stroke-width: 0.5"/>
     </g>
     <g id="line2d_80">
      <g>
       <use xlink:href="#m6d17a8d41d" x="786.24" y="576.72" style="stroke: #000000; stroke-width: 0.8"/>
      </g>
     </g>
     <g id="text_18">
      <!-- 200 ns -->
      <g transform="translate(762.57125 590.857813) scale(0.14 -0.14)">
       <use xlink:href="#DejaVuSans-32"/>
       <use xlink:href="#DejaVuSans-30" x="63.623047"/>
       <use xlink:href="#DejaVuSans-30" x="127.246094"/>
       <use xlink:href="#DejaVuSans-20" x="190.869141"/>
       <use xlink:href="#DejaVuSans-6e" x="222.65625"/>
       <use xlink:href="#DejaVuSans-73" x="286.035156"/>
      </g>
     </g>
    </g>
    <g id="xtick_30">
     <g id="line2d_81">
      <path d="M 947.52 576.72 
L 947.52 483.988966 
" clip-path="url(#pab04146c65)" style="fill: none; stroke-dasharray: 1.85,0.8; stroke-dashoffset: 0; stroke: #b2b2b2; stroke-width: 0.5"/>
     </g>
     <g id="line2d_82">
      <g>
       <use xlink:href="#m6d17a8d41d" x="947.52" y="576.72" style="stroke: #000000; stroke-width: 0.8"/>
      </g>
     </g>
     <g id="text_19">
      <!-- 250 ns -->
      <g transform="translate(923.85125 590.857813) scale(0.14 -0.14)">
       <use xlink:href="#DejaVuSans-32"/>
       <use xlink:href="#DejaVuSans-35" x="63.623047"/>
       <use xlink:href="#DejaVuSans-30" x="127.246094"/>
       <use xlink:href="#DejaVuSans-20" x="190.869141"/>
       <use xlink:href="#DejaVuSans-6e" x="222.65625"/>
       <use xlink:href="#DejaVuSans-73" x="286.035156"/>
      </g>
     </g>
    </g>
    <g id="text_20">
     <!-- Time -->
     <g transform="translate(527.192969 608.407187) scale(0.14 -0.14)">
      <defs>
       <path id="DejaVuSans-69" d="M 603 3500 
L 1178 3500 
L 1178 0 
L 603 0 
L 603 3500 
z
M 603 4863 
L 1178 4863 
L 1178 4134 
L 603 4134 
L 603 4863 
z
" transform="scale(0.015625)"/>
       <path id="DejaVuSans-6d" d="M 3328 2828 
Q 3544 3216 3844 3400 
Q 4144 3584 4550 3584 
Q 5097 3584 5394 3201 
Q 5691 2819 5691 2113 
L 5691 0 
L 5113 0 
L 5113 2094 
Q 5113 2597 4934 2840 
Q 4756 3084 4391 3084 
Q 3944 3084 3684 2787 
Q 3425 2491 3425 1978 
L 3425 0 
L 2847 0 
L 2847 2094 
Q 2847 2600 2669 2842 
Q 2491 3084 2119 3084 
Q 1678 3084 1418 2786 
Q 1159 2488 1159 1978 
L 1159 0 
L 581 0 
L 581 3500 
L 1159 3500 
L 1159 2956 
Q 1356 3278 1631 3431 
Q 1906 3584 2284 3584 
Q 2666 3584 2933 3390 
Q 3200 3197 3328 2828 
z
" transform="scale(0.015625)"/>
       <path id="DejaVuSans-65" d="M 3597 1894 
L 3597 1613 
L 953 1613 
Q 991 1019 1311 708 
Q 1631 397 2203 397 
Q 2534 397 2845 478 
Q 3156 559 3463 722 
L 3463 178 
Q 3153 47 2828 -22 
Q 2503 -91 2169 -91 
Q 1331 -91 842 396 
Q 353 884 353 1716 
Q 353 2575 817 3079 
Q 1281 3584 2069 3584 
Q 2775 3584 3186 3129 
Q 3597 2675 3597 1894 
z
M 3022 2063 
Q 3016 2534 2758 2815 
Q 2500 3097 2075 3097 
Q 1594 3097 1305 2825 
Q 1016 2553 972 2059 
L 3022 2063 
z
" transform="scale(0.015625)"/>
      </defs>
      <use xlink:href="#DejaVuSans-54"/>
      <use xlink:href="#DejaVuSans-69" x="57.958984"/>
      <use xlink:href="#DejaVuSans-6d" x="85.742188"/>
      <use xlink:href="#DejaVuSans-65" x="183.154297"/>
     </g>
    </g>
   </g>
   <g id="matplotlib.axis_10">
    <g id="ytick_10">
     <g id="line2d_83">
      <path d="M 100.8 569.740566 
L 987.84 569.740566 
" clip-path="url(#pab04146c65)" style="fill: none; stroke-dasharray: 1.85,0.8; stroke-dashoffset: 0; stroke: #b2b2b2; stroke-width: 0.5"/>
     </g>
     <g id="line2d_84">
      <g>
       <use xlink:href="#m556f59c65e" x="100.8" y="569.740566" style="stroke: #000000; stroke-width: 0.8"/>
      </g>
     </g>
     <g id="text_21">
      <!-- 0 V -->
      <g transform="translate(74.36625 575.059472) scale(0.14 -0.14)">
       <use xlink:href="#DejaVuSans-30"/>
       <use xlink:href="#DejaVuSans-20" x="63.623047"/>
       <use xlink:href="#DejaVuSans-56" x="95.410156"/>
      </g>
     </g>
    </g>
    <g id="ytick_11">
     <g id="line2d_85">
      <path d="M 100.8 535.879871 
L 987.84 535.879871 
" clip-path="url(#pab04146c65)" style="fill: none; stroke-dasharray: 1.85,0.8; stroke-dashoffset: 0; stroke: #b2b2b2; stroke-width: 0.5"/>
     </g>
     <g id="line2d_86">
      <g>
       <use xlink:href="#m556f59c65e" x="100.8" y="535.879871" style="stroke: #000000; stroke-width: 0.8"/>
      </g>
     </g>
     <g id="text_22">
      <!-- 500 mV -->
      <g transform="translate(42.914375 541.198777) scale(0.14 -0.14)">
       <use xlink:href="#DejaVuSans-35"/>
       <use xlink:href="#DejaVuSans-30" x="63.623047"/>
       <use xlink:href="#DejaVuSans-30" x="127.246094"/>
       <use xlink:href="#DejaVuSans-20" x="190.869141"/>
       <use xlink:href="#DejaVuSans-6d" x="222.65625"/>
       <use xlink:href="#DejaVuSans-56" x="320.068359"/>
      </g>
     </g>
    </g>
    <g id="ytick_12">
     <g id="line2d_87">
      <path d="M 100.8 502.019176 
L 987.84 502.019176 
" clip-path="url(#pab04146c65)" style="fill: none; stroke-dasharray: 1.85,0.8; stroke-dashoffset: 0; stroke: #b2b2b2; stroke-width: 0.5"/>
     </g>
     <g id="line2d_88">
      <g>
       <use xlink:href="#m556f59c65e" x="100.8" y="502.019176" style="stroke: #000000; stroke-width: 0.8"/>
      </g>
     </g>
     <g id="text_23">
      <!-- 1 V -->
      <g transform="translate(74.36625 507.338082) scale(0.14 -0.14)">
       <use xlink:href="#DejaVuSans-31"/>
       <use xlink:href="#DejaVuSans-20" x="63.623047"/>
       <use xlink:href="#DejaVuSans-56" x="95.410156"/>
      </g>
     </g>
    </g>
    <g id="text_24">
     <g id="patch_27">
      <path d="M 34.8768 554.329483 
L 34.8768 506.379483 
L 11.247425 506.379483 
L 11.247425 554.329483 
z
" style="fill: #ffff00; opacity: 0.2; stroke: #eeeeee; stroke-width: 0.5; stroke-linejoin: miter"/>
     </g>
     <!-- FOUT -->
     <g transform="translate(26.925238 549.289483) rotate(-90) scale(0.14 -0.14)">
      <use xlink:href="#DejaVuSans-46"/>
      <use xlink:href="#DejaVuSans-4f" x="57.519531"/>
      <use xlink:href="#DejaVuSans-55" x="136.230469"/>
      <use xlink:href="#DejaVuSans-54" x="209.423828"/>
     </g>
    </g>
   </g>
   <g id="line2d_89">
    <path d="M 141.12 488.474898 
L 173.472768 488.48167 
L 173.505024 488.285278 
L 173.569536 526.701591 
L 173.69856 572.504953 
L 173.730816 572.369239 
L 173.827584 567.833125 
L 173.892096 569.354838 
L 174.053376 570.059486 
L 174.117888 569.941732 
L 174.408192 569.486245 
L 174.440448 569.535797 
L 174.66624 569.724604 
L 176.182272 569.73482 
L 180.117504 569.75616 
L 193.503744 569.747249 
L 212.921856 569.738688 
L 255.30624 569.73838 
L 255.6288 488.366544 
L 255.854592 488.508759 
L 256.209408 488.468126 
L 307.367424 488.366544 
L 307.39968 488.204013 
L 307.431936 488.867682 
L 307.496448 519.444567 
L 307.593216 570.080493 
L 307.657728 569.73942 
L 309.302784 569.738883 
L 353.912832 569.783857 
L 353.945088 569.415808 
L 354.0096 556.45092 
L 354.203136 488.806733 
L 354.364416 488.48167 
L 354.912768 488.474898 
L 356.138496 488.474898 
L 356.235264 490.743565 
L 356.396544 569.781297 
L 356.461056 569.735837 
L 357.493248 569.738883 
L 416.134656 569.729071 
L 416.199168 568.136449 
L 416.42496 488.657746 
L 416.58624 488.474898 
L 947.52 488.474898 
L 947.52 488.474898 
" clip-path="url(#pab04146c65)" style="fill: none; stroke: #ff00ff; stroke-width: 2; stroke-linecap: square"/>
   </g>
   <g id="patch_28">
    <path d="M 100.8 576.72 
L 100.8 483.988966 
" style="fill: none; stroke: #bcbcbc; stroke-width: 0.8; stroke-linejoin: miter; stroke-linecap: square"/>
   </g>
   <g id="patch_29">
    <path d="M 987.84 576.72 
L 987.84 483.988966 
" style="fill: none; stroke: #bcbcbc; stroke-width: 0.8; stroke-linejoin: miter; stroke-linecap: square"/>
   </g>
   <g id="patch_30">
    <path d="M 100.8 576.72 
L 987.84 576.72 
" style="fill: none; stroke: #bcbcbc; stroke-width: 0.8; stroke-linejoin: miter; stroke-linecap: square"/>
   </g>
   <g id="patch_31">
    <path d="M 100.8 483.988966 
L 987.84 483.988966 
" style="fill: none; stroke: #bcbcbc; stroke-width: 0.8; stroke-linejoin: miter; stroke-linecap: square"/>
   </g>
  </g>
  <g id="axes_6">
   <g id="patch_32">
    <path d="M 201.6 628.56 
L 856.8 628.56 
L 856.8 615.6 
L 201.6 615.6 
z
" clip-path="url(#p9a3070fc38)" style="fill: #d3d3d3"/>
   </g>
   <g id="patch_33">
    <path d="M 201.6 628.56 
L 351.36 628.56 
L 351.36 615.6 
L 201.6 615.6 
z
" clip-path="url(#p9a3070fc38)" style="fill: #0000ff"/>
   </g>
   <g id="line2d_90">
    <path d="M 201.6 635.04 
L 201.6 609.12 
" clip-path="url(#p798d3a59a3)" style="fill: none; stroke: #ff0000; stroke-linecap: square"/>
   </g>
   <g id="line2d_91">
    <defs>
     <path id="mfa660c6159" d="M 0 5 
C 1.326016 5 2.597899 4.473168 3.535534 3.535534 
C 4.473168 2.597899 5 1.326016 5 0 
C 5 -1.326016 4.473168 -2.597899 3.535534 -3.535534 
C 2.597899 -4.473168 1.326016 -5 0 -5 
C -1.326016 -5 -2.597899 -4.473168 -3.535534 -3.535534 
C -4.473168 -2.597899 -5 -1.326016 -5 0 
C -5 1.326016 -4.473168 2.597899 -3.535534 3.535534 
C -2.597899 4.473168 -1.326016 5 0 5 
z
" style="stroke: #bfbfbf"/>
    </defs>
    <g>
     <use xlink:href="#mfa660c6159" x="351.36" y="622.08" style="fill: #ffffff; stroke: #bfbfbf"/>
    </g>
   </g>
   <g id="text_25">
    <!-- #Sweep -->
    <g transform="translate(138.622875 625.39125) scale(0.12 -0.12)">
     <defs>
      <path id="DejaVuSans-23" d="M 3272 2816 
L 2363 2816 
L 2100 1772 
L 3016 1772 
L 3272 2816 
z
M 2803 4594 
L 2478 3297 
L 3391 3297 
L 3719 4594 
L 4219 4594 
L 3897 3297 
L 4872 3297 
L 4872 2816 
L 3775 2816 
L 3519 1772 
L 4513 1772 
L 4513 1294 
L 3397 1294 
L 3072 0 
L 2572 0 
L 2894 1294 
L 1978 1294 
L 1656 0 
L 1153 0 
L 1478 1294 
L 494 1294 
L 494 1772 
L 1594 1772 
L 1856 2816 
L 850 2816 
L 850 3297 
L 1978 3297 
L 2297 4594 
L 2803 4594 
z
" transform="scale(0.015625)"/>
      <path id="DejaVuSans-77" d="M 269 3500 
L 844 3500 
L 1563 769 
L 2278 3500 
L 2956 3500 
L 3675 769 
L 4391 3500 
L 4966 3500 
L 4050 0 
L 3372 0 
L 2619 2869 
L 1863 0 
L 1184 0 
L 269 3500 
z
" transform="scale(0.015625)"/>
      <path id="DejaVuSans-70" d="M 1159 525 
L 1159 -1331 
L 581 -1331 
L 581 3500 
L 1159 3500 
L 1159 2969 
Q 1341 3281 1617 3432 
Q 1894 3584 2278 3584 
Q 2916 3584 3314 3078 
Q 3713 2572 3713 1747 
Q 3713 922 3314 415 
Q 2916 -91 2278 -91 
Q 1894 -91 1617 61 
Q 1341 213 1159 525 
z
M 3116 1747 
Q 3116 2381 2855 2742 
Q 2594 3103 2138 3103 
Q 1681 3103 1420 2742 
Q 1159 2381 1159 1747 
Q 1159 1113 1420 752 
Q 1681 391 2138 391 
Q 2594 391 2855 752 
Q 3116 1113 3116 1747 
z
" transform="scale(0.015625)"/>
     </defs>
     <use xlink:href="#DejaVuSans-23"/>
     <use xlink:href="#DejaVuSans-53" x="83.789062"/>
     <use xlink:href="#DejaVuSans-77" x="147.265625"/>
     <use xlink:href="#DejaVuSans-65" x="229.052734"/>
     <use xlink:href="#DejaVuSans-65" x="290.576172"/>
     <use xlink:href="#DejaVuSans-70" x="352.099609"/>
    </g>
   </g>
   <g id="text_26">
    <!-- $\mathdefault{32}$ -->
    <g transform="translate(869.904 625.39125) scale(0.12 -0.12)">
     <defs>
      <path id="DejaVuSans-33" d="M 2597 2516 
Q 3050 2419 3304 2112 
Q 3559 1806 3559 1356 
Q 3559 666 3084 287 
Q 2609 -91 1734 -91 
Q 1441 -91 1130 -33 
Q 819 25 488 141 
L 488 750 
Q 750 597 1062 519 
Q 1375 441 1716 441 
Q 2309 441 2620 675 
Q 2931 909 2931 1356 
Q 2931 1769 2642 2001 
Q 2353 2234 1838 2234 
L 1294 2234 
L 1294 2753 
L 1863 2753 
Q 2328 2753 2575 2939 
Q 2822 3125 2822 3475 
Q 2822 3834 2567 4026 
Q 2313 4219 1838 4219 
Q 1578 4219 1281 4162 
Q 984 4106 628 3988 
L 628 4550 
Q 988 4650 1302 4700 
Q 1616 4750 1894 4750 
Q 2613 4750 3031 4423 
Q 3450 4097 3450 3541 
Q 3450 3153 3228 2886 
Q 3006 2619 2597 2516 
z
" transform="scale(0.015625)"/>
     </defs>
     <use xlink:href="#DejaVuSans-33" transform="translate(0 0.78125)"/>
     <use xlink:href="#DejaVuSans-32" transform="translate(63.623047 0.78125)"/>
    </g>
   </g>
  </g>
  <g id="text_27">
   <!-- DFF under BBI sweep analysis (Sweep = 42E-9) -->
   <g transform="translate(313.34625 25.1175) scale(0.16 -0.16)">
    <defs>
     <path id="DejaVuSans-75" d="M 544 1381 
L 544 3500 
L 1119 3500 
L 1119 1403 
Q 1119 906 1312 657 
Q 1506 409 1894 409 
Q 2359 409 2629 706 
Q 2900 1003 2900 1516 
L 2900 3500 
L 3475 3500 
L 3475 0 
L 2900 0 
L 2900 538 
Q 2691 219 2414 64 
Q 2138 -91 1772 -91 
Q 1169 -91 856 284 
Q 544 659 544 1381 
z
M 1991 3584 
L 1991 3584 
z
" transform="scale(0.015625)"/>
     <path id="DejaVuSans-64" d="M 2906 2969 
L 2906 4863 
L 3481 4863 
L 3481 0 
L 2906 0 
L 2906 525 
Q 2725 213 2448 61 
Q 2172 -91 1784 -91 
Q 1150 -91 751 415 
Q 353 922 353 1747 
Q 353 2572 751 3078 
Q 1150 3584 1784 3584 
Q 2172 3584 2448 3432 
Q 2725 3281 2906 2969 
z
M 947 1747 
Q 947 1113 1208 752 
Q 1469 391 1925 391 
Q 2381 391 2643 752 
Q 2906 1113 2906 1747 
Q 2906 2381 2643 2742 
Q 2381 3103 1925 3103 
Q 1469 3103 1208 2742 
Q 947 2381 947 1747 
z
" transform="scale(0.015625)"/>
     <path id="DejaVuSans-72" d="M 2631 2963 
Q 2534 3019 2420 3045 
Q 2306 3072 2169 3072 
Q 1681 3072 1420 2755 
Q 1159 2438 1159 1844 
L 1159 0 
L 581 0 
L 581 3500 
L 1159 3500 
L 1159 2956 
Q 1341 3275 1631 3429 
Q 1922 3584 2338 3584 
Q 2397 3584 2469 3576 
Q 2541 3569 2628 3553 
L 2631 2963 
z
" transform="scale(0.015625)"/>
     <path id="DejaVuSans-61" d="M 2194 1759 
Q 1497 1759 1228 1600 
Q 959 1441 959 1056 
Q 959 750 1161 570 
Q 1363 391 1709 391 
Q 2188 391 2477 730 
Q 2766 1069 2766 1631 
L 2766 1759 
L 2194 1759 
z
M 3341 1997 
L 3341 0 
L 2766 0 
L 2766 531 
Q 2569 213 2275 61 
Q 1981 -91 1556 -91 
Q 1019 -91 701 211 
Q 384 513 384 1019 
Q 384 1609 779 1909 
Q 1175 2209 1959 2209 
L 2766 2209 
L 2766 2266 
Q 2766 2663 2505 2880 
Q 2244 3097 1772 3097 
Q 1472 3097 1187 3025 
Q 903 2953 641 2809 
L 641 3341 
Q 956 3463 1253 3523 
Q 1550 3584 1831 3584 
Q 2591 3584 2966 3190 
Q 3341 2797 3341 1997 
z
" transform="scale(0.015625)"/>
     <path id="DejaVuSans-6c" d="M 603 4863 
L 1178 4863 
L 1178 0 
L 603 0 
L 603 4863 
z
" transform="scale(0.015625)"/>
     <path id="DejaVuSans-79" d="M 2059 -325 
Q 1816 -950 1584 -1140 
Q 1353 -1331 966 -1331 
L 506 -1331 
L 506 -850 
L 844 -850 
Q 1081 -850 1212 -737 
Q 1344 -625 1503 -206 
L 1606 56 
L 191 3500 
L 800 3500 
L 1894 763 
L 2988 3500 
L 3597 3500 
L 2059 -325 
z
" transform="scale(0.015625)"/>
     <path id="DejaVuSans-28" d="M 1984 4856 
Q 1566 4138 1362 3434 
Q 1159 2731 1159 2009 
Q 1159 1288 1364 580 
Q 1569 -128 1984 -844 
L 1484 -844 
Q 1016 -109 783 600 
Q 550 1309 550 2009 
Q 550 2706 781 3412 
Q 1013 4119 1484 4856 
L 1984 4856 
z
" transform="scale(0.015625)"/>
     <path id="DejaVuSans-3d" d="M 678 2906 
L 4684 2906 
L 4684 2381 
L 678 2381 
L 678 2906 
z
M 678 1631 
L 4684 1631 
L 4684 1100 
L 678 1100 
L 678 1631 
z
" transform="scale(0.015625)"/>
     <path id="DejaVuSans-34" d="M 2419 4116 
L 825 1625 
L 2419 1625 
L 2419 4116 
z
M 2253 4666 
L 3047 4666 
L 3047 1625 
L 3713 1625 
L 3713 1100 
L 3047 1100 
L 3047 0 
L 2419 0 
L 2419 1100 
L 313 1100 
L 313 1709 
L 2253 4666 
z
" transform="scale(0.015625)"/>
     <path id="DejaVuSans-2d" d="M 313 2009 
L 1997 2009 
L 1997 1497 
L 313 1497 
L 313 2009 
z
" transform="scale(0.015625)"/>
     <path id="DejaVuSans-39" d="M 703 97 
L 703 672 
Q 941 559 1184 500 
Q 1428 441 1663 441 
Q 2288 441 2617 861 
Q 2947 1281 2994 2138 
Q 2813 1869 2534 1725 
Q 2256 1581 1919 1581 
Q 1219 1581 811 2004 
Q 403 2428 403 3163 
Q 403 3881 828 4315 
Q 1253 4750 1959 4750 
Q 2769 4750 3195 4129 
Q 3622 3509 3622 2328 
Q 3622 1225 3098 567 
Q 2575 -91 1691 -91 
Q 1453 -91 1209 -44 
Q 966 3 703 97 
z
M 1959 2075 
Q 2384 2075 2632 2365 
Q 2881 2656 2881 3163 
Q 2881 3666 2632 3958 
Q 2384 4250 1959 4250 
Q 1534 4250 1286 3958 
Q 1038 3666 1038 3163 
Q 1038 2656 1286 2365 
Q 1534 2075 1959 2075 
z
" transform="scale(0.015625)"/>
     <path id="DejaVuSans-29" d="M 513 4856 
L 1013 4856 
Q 1481 4119 1714 3412 
Q 1947 2706 1947 2009 
Q 1947 1309 1714 600 
Q 1481 -109 1013 -844 
L 513 -844 
Q 928 -128 1133 580 
Q 1338 1288 1338 2009 
Q 1338 2731 1133 3434 
Q 928 4138 513 4856 
z
" transform="scale(0.015625)"/>
    </defs>
    <use xlink:href="#DejaVuSans-44"/>
    <use xlink:href="#DejaVuSans-46" x="77.001953"/>
    <use xlink:href="#DejaVuSans-46" x="134.521484"/>
    <use xlink:href="#DejaVuSans-20" x="192.041016"/>
    <use xlink:href="#DejaVuSans-75" x="223.828125"/>
    <use xlink:href="#DejaVuSans-6e" x="287.207031"/>
    <use xlink:href="#DejaVuSans-64" x="350.585938"/>
    <use xlink:href="#DejaVuSans-65" x="414.0625"/>
    <use xlink:href="#DejaVuSans-72" x="475.585938"/>
    <use xlink:href="#DejaVuSans-20" x="516.699219"/>
    <use xlink:href="#DejaVuSans-42" x="548.486328"/>
    <use xlink:href="#DejaVuSans-42" x="617.089844"/>
    <use xlink:href="#DejaVuSans-49" x="685.693359"/>
    <use xlink:href="#DejaVuSans-20" x="715.185547"/>
    <use xlink:href="#DejaVuSans-73" x="746.972656"/>
    <use xlink:href="#DejaVuSans-77" x="799.072266"/>
    <use xlink:href="#DejaVuSans-65" x="880.859375"/>
    <use xlink:href="#DejaVuSans-65" x="942.382812"/>
    <use xlink:href="#DejaVuSans-70" x="1003.90625"/>
    <use xlink:href="#DejaVuSans-20" x="1067.382812"/>
    <use xlink:href="#DejaVuSans-61" x="1099.169922"/>
    <use xlink:href="#DejaVuSans-6e" x="1160.449219"/>
    <use xlink:href="#DejaVuSans-61" x="1223.828125"/>
    <use xlink:href="#DejaVuSans-6c" x="1285.107422"/>
    <use xlink:href="#DejaVuSans-79" x="1312.890625"/>
    <use xlink:href="#DejaVuSans-73" x="1372.070312"/>
    <use xlink:href="#DejaVuSans-69" x="1424.169922"/>
    <use xlink:href="#DejaVuSans-73" x="1451.953125"/>
    <use xlink:href="#DejaVuSans-20" x="1504.052734"/>
    <use xlink:href="#DejaVuSans-28" x="1535.839844"/>
    <use xlink:href="#DejaVuSans-53" x="1574.853516"/>
    <use xlink:href="#DejaVuSans-77" x="1638.330078"/>
    <use xlink:href="#DejaVuSans-65" x="1720.117188"/>
    <use xlink:href="#DejaVuSans-65" x="1781.640625"/>
    <use xlink:href="#DejaVuSans-70" x="1843.164062"/>
    <use xlink:href="#DejaVuSans-20" x="1906.640625"/>
    <use xlink:href="#DejaVuSans-3d" x="1938.427734"/>
    <use xlink:href="#DejaVuSans-20" x="2022.216797"/>
    <use xlink:href="#DejaVuSans-34" x="2054.003906"/>
    <use xlink:href="#DejaVuSans-32" x="2117.626953"/>
    <use xlink:href="#DejaVuSans-45" x="2181.25"/>
    <use xlink:href="#DejaVuSans-2d" x="2244.433594"/>
    <use xlink:href="#DejaVuSans-39" x="2280.517578"/>
    <use xlink:href="#DejaVuSans-29" x="2344.140625"/>
   </g>
  </g>
 </g>
 <defs>
  <clipPath id="p2acc2c691b">
   <rect x="100.8" y="38.88" width="887.04" height="92.731034"/>
  </clipPath>
  <clipPath id="p705b3b9cb2">
   <rect x="100.8" y="150.157241" width="887.04" height="92.731034"/>
  </clipPath>
  <clipPath id="pd74dc5d628">
   <rect x="100.8" y="261.434483" width="887.04" height="92.731034"/>
  </clipPath>
  <clipPath id="paf2728fd6f">
   <rect x="100.8" y="372.711724" width="887.04" height="92.731034"/>
  </clipPath>
  <clipPath id="pab04146c65">
   <rect x="100.8" y="483.988966" width="887.04" height="92.731034"/>
  </clipPath>
  <clipPath id="p9a3070fc38">
   <rect x="201.6" y="609.12" width="655.2" height="25.92"/>
  </clipPath>
  <clipPath id="p798d3a59a3">
   <path d="M 201.6 628.56 
L 856.8 628.56 
L 856.8 615.6 
L 201.6 615.6 
z
"/>
  </clipPath>
 </defs>
</svg>
