<?xml version="1.0" encoding="utf-8" standalone="no"?>
<!DOCTYPE svg PUBLIC "-//W3C//DTD SVG 1.1//EN"
  "http://www.w3.org/Graphics/SVG/1.1/DTD/svg11.dtd">
<svg xmlns:xlink="http://www.w3.org/1999/xlink" width="1008pt" height="648pt" viewBox="0 0 1008 648" xmlns="http://www.w3.org/2000/svg" version="1.1">
 <metadata>
  <rdf:RDF xmlns:dc="http://purl.org/dc/elements/1.1/" xmlns:cc="http://creativecommons.org/ns#" xmlns:rdf="http://www.w3.org/1999/02/22-rdf-syntax-ns#">
   <cc:Work>
    <dc:type rdf:resource="http://purl.org/dc/dcmitype/StillImage"/>
    <dc:date>2024-06-03T10:45:42.618111</dc:date>
    <dc:format>image/svg+xml</dc:format>
    <dc:creator>
     <cc:Agent>
      <dc:title>Matplotlib v3.9.0, https://matplotlib.org/</dc:title>
     </cc:Agent>
    </dc:creator>
   </cc:Work>
  </rdf:RDF>
 </metadata>
 <defs>
  <style type="text/css">*{stroke-linejoin: round; stroke-linecap: butt}</style>
 </defs>
 <g id="figure_1">
  <g id="patch_1">
   <path d="M 0 648 
L 1008 648 
L 1008 0 
L 0 0 
z
" style="fill: #ffffff"/>
  </g>
  <g id="axes_1">
   <g id="patch_2">
    <path d="M 100.8 131.611034 
L 987.84 131.611034 
L 987.84 38.88 
L 100.8 38.88 
z
" style="fill: #eeeeee"/>
   </g>
   <g id="matplotlib.axis_1">
    <g id="xtick_1">
     <g id="line2d_1">
      <path d="M 141.12 131.611034 
L 141.12 38.88 
" clip-path="url(#p4f99764f2e)" style="fill: none; stroke-dasharray: 1.85,0.8; stroke-dashoffset: 0; stroke: #b2b2b2; stroke-width: 0.5"/>
     </g>
     <g id="line2d_2">
      <defs>
       <path id="m0d795f6cd7" d="M 0 0 
L 0 -3.5 
" style="stroke: #000000; stroke-width: 0.8"/>
      </defs>
      <g>
       <use xlink:href="#m0d795f6cd7" x="141.12" y="131.611034" style="stroke: #000000; stroke-width: 0.8"/>
      </g>
     </g>
    </g>
    <g id="xtick_2">
     <g id="line2d_3">
      <path d="M 302.4 131.611034 
L 302.4 38.88 
" clip-path="url(#p4f99764f2e)" style="fill: none; stroke-dasharray: 1.85,0.8; stroke-dashoffset: 0; stroke: #b2b2b2; stroke-width: 0.5"/>
     </g>
     <g id="line2d_4">
      <g>
       <use xlink:href="#m0d795f6cd7" x="302.4" y="131.611034" style="stroke: #000000; stroke-width: 0.8"/>
      </g>
     </g>
    </g>
    <g id="xtick_3">
     <g id="line2d_5">
      <path d="M 463.68 131.611034 
L 463.68 38.88 
" clip-path="url(#p4f99764f2e)" style="fill: none; stroke-dasharray: 1.85,0.8; stroke-dashoffset: 0; stroke: #b2b2b2; stroke-width: 0.5"/>
     </g>
     <g id="line2d_6">
      <g>
       <use xlink:href="#m0d795f6cd7" x="463.68" y="131.611034" style="stroke: #000000; stroke-width: 0.8"/>
      </g>
     </g>
    </g>
    <g id="xtick_4">
     <g id="line2d_7">
      <path d="M 624.96 131.611034 
L 624.96 38.88 
" clip-path="url(#p4f99764f2e)" style="fill: none; stroke-dasharray: 1.85,0.8; stroke-dashoffset: 0; stroke: #b2b2b2; stroke-width: 0.5"/>
     </g>
     <g id="line2d_8">
      <g>
       <use xlink:href="#m0d795f6cd7" x="624.96" y="131.611034" style="stroke: #000000; stroke-width: 0.8"/>
      </g>
     </g>
    </g>
    <g id="xtick_5">
     <g id="line2d_9">
      <path d="M 786.24 131.611034 
L 786.24 38.88 
" clip-path="url(#p4f99764f2e)" style="fill: none; stroke-dasharray: 1.85,0.8; stroke-dashoffset: 0; stroke: #b2b2b2; stroke-width: 0.5"/>
     </g>
     <g id="line2d_10">
      <g>
       <use xlink:href="#m0d795f6cd7" x="786.24" y="131.611034" style="stroke: #000000; stroke-width: 0.8"/>
      </g>
     </g>
    </g>
    <g id="xtick_6">
     <g id="line2d_11">
      <path d="M 947.52 131.611034 
L 947.52 38.88 
" clip-path="url(#p4f99764f2e)" style="fill: none; stroke-dasharray: 1.85,0.8; stroke-dashoffset: 0; stroke: #b2b2b2; stroke-width: 0.5"/>
     </g>
     <g id="line2d_12">
      <g>
       <use xlink:href="#m0d795f6cd7" x="947.52" y="131.611034" style="stroke: #000000; stroke-width: 0.8"/>
      </g>
     </g>
    </g>
   </g>
   <g id="matplotlib.axis_2">
    <g id="ytick_1">
     <g id="line2d_13">
      <path d="M 100.8 98.340394 
L 987.84 98.340394 
" clip-path="url(#p4f99764f2e)" style="fill: none; stroke-dasharray: 1.85,0.8; stroke-dashoffset: 0; stroke: #b2b2b2; stroke-width: 0.5"/>
     </g>
     <g id="line2d_14">
      <defs>
       <path id="m757505ac9c" d="M 0 0 
L 3.5 0 
" style="stroke: #000000; stroke-width: 0.8"/>
      </defs>
      <g>
       <use xlink:href="#m757505ac9c" x="100.8" y="98.340394" style="stroke: #000000; stroke-width: 0.8"/>
      </g>
     </g>
     <g id="text_1">
      <!-- −200 V -->
      <g transform="translate(44.819688 103.6593) scale(0.14 -0.14)">
       <defs>
        <path id="DejaVuSans-2212" d="M 678 2272 
L 4684 2272 
L 4684 1741 
L 678 1741 
L 678 2272 
z
" transform="scale(0.015625)"/>
        <path id="DejaVuSans-32" d="M 1228 531 
L 3431 531 
L 3431 0 
L 469 0 
L 469 531 
Q 828 903 1448 1529 
Q 2069 2156 2228 2338 
Q 2531 2678 2651 2914 
Q 2772 3150 2772 3378 
Q 2772 3750 2511 3984 
Q 2250 4219 1831 4219 
Q 1534 4219 1204 4116 
Q 875 4013 500 3803 
L 500 4441 
Q 881 4594 1212 4672 
Q 1544 4750 1819 4750 
Q 2544 4750 2975 4387 
Q 3406 4025 3406 3419 
Q 3406 3131 3298 2873 
Q 3191 2616 2906 2266 
Q 2828 2175 2409 1742 
Q 1991 1309 1228 531 
z
" transform="scale(0.015625)"/>
        <path id="DejaVuSans-30" d="M 2034 4250 
Q 1547 4250 1301 3770 
Q 1056 3291 1056 2328 
Q 1056 1369 1301 889 
Q 1547 409 2034 409 
Q 2525 409 2770 889 
Q 3016 1369 3016 2328 
Q 3016 3291 2770 3770 
Q 2525 4250 2034 4250 
z
M 2034 4750 
Q 2819 4750 3233 4129 
Q 3647 3509 3647 2328 
Q 3647 1150 3233 529 
Q 2819 -91 2034 -91 
Q 1250 -91 836 529 
Q 422 1150 422 2328 
Q 422 3509 836 4129 
Q 1250 4750 2034 4750 
z
" transform="scale(0.015625)"/>
        <path id="DejaVuSans-20" transform="scale(0.015625)"/>
        <path id="DejaVuSans-56" d="M 1831 0 
L 50 4666 
L 709 4666 
L 2188 738 
L 3669 4666 
L 4325 4666 
L 2547 0 
L 1831 0 
z
" transform="scale(0.015625)"/>
       </defs>
       <use xlink:href="#DejaVuSans-2212"/>
       <use xlink:href="#DejaVuSans-32" x="83.789062"/>
       <use xlink:href="#DejaVuSans-30" x="147.412109"/>
       <use xlink:href="#DejaVuSans-30" x="211.035156"/>
       <use xlink:href="#DejaVuSans-20" x="274.658203"/>
       <use xlink:href="#DejaVuSans-56" x="306.445312"/>
      </g>
     </g>
    </g>
    <g id="ytick_2">
     <g id="line2d_15">
      <path d="M 100.8 45.027377 
L 987.84 45.027377 
" clip-path="url(#p4f99764f2e)" style="fill: none; stroke-dasharray: 1.85,0.8; stroke-dashoffset: 0; stroke: #b2b2b2; stroke-width: 0.5"/>
     </g>
     <g id="line2d_16">
      <g>
       <use xlink:href="#m757505ac9c" x="100.8" y="45.027377" style="stroke: #000000; stroke-width: 0.8"/>
      </g>
     </g>
     <g id="text_2">
      <!-- 0 V -->
      <g transform="translate(74.36625 50.346284) scale(0.14 -0.14)">
       <use xlink:href="#DejaVuSans-30"/>
       <use xlink:href="#DejaVuSans-20" x="63.623047"/>
       <use xlink:href="#DejaVuSans-56" x="95.410156"/>
      </g>
     </g>
    </g>
    <g id="text_3">
     <g id="patch_3">
      <path d="M 34.8768 131.080205 
L 34.8768 39.41083 
L 11.247425 39.41083 
L 11.247425 131.080205 
z
" style="fill: #ffff00; opacity: 0.2; stroke: #eeeeee; stroke-width: 0.5; stroke-linejoin: miter"/>
     </g>
     <!-- VPULSE BBI -->
     <g transform="translate(26.925238 126.040205) rotate(-90) scale(0.14 -0.14)">
      <defs>
       <path id="DejaVuSans-50" d="M 1259 4147 
L 1259 2394 
L 2053 2394 
Q 2494 2394 2734 2622 
Q 2975 2850 2975 3272 
Q 2975 3691 2734 3919 
Q 2494 4147 2053 4147 
L 1259 4147 
z
M 628 4666 
L 2053 4666 
Q 2838 4666 3239 4311 
Q 3641 3956 3641 3272 
Q 3641 2581 3239 2228 
Q 2838 1875 2053 1875 
L 1259 1875 
L 1259 0 
L 628 0 
L 628 4666 
z
" transform="scale(0.015625)"/>
       <path id="DejaVuSans-55" d="M 556 4666 
L 1191 4666 
L 1191 1831 
Q 1191 1081 1462 751 
Q 1734 422 2344 422 
Q 2950 422 3222 751 
Q 3494 1081 3494 1831 
L 3494 4666 
L 4128 4666 
L 4128 1753 
Q 4128 841 3676 375 
Q 3225 -91 2344 -91 
Q 1459 -91 1007 375 
Q 556 841 556 1753 
L 556 4666 
z
" transform="scale(0.015625)"/>
       <path id="DejaVuSans-4c" d="M 628 4666 
L 1259 4666 
L 1259 531 
L 3531 531 
L 3531 0 
L 628 0 
L 628 4666 
z
" transform="scale(0.015625)"/>
       <path id="DejaVuSans-53" d="M 3425 4513 
L 3425 3897 
Q 3066 4069 2747 4153 
Q 2428 4238 2131 4238 
Q 1616 4238 1336 4038 
Q 1056 3838 1056 3469 
Q 1056 3159 1242 3001 
Q 1428 2844 1947 2747 
L 2328 2669 
Q 3034 2534 3370 2195 
Q 3706 1856 3706 1288 
Q 3706 609 3251 259 
Q 2797 -91 1919 -91 
Q 1588 -91 1214 -16 
Q 841 59 441 206 
L 441 856 
Q 825 641 1194 531 
Q 1563 422 1919 422 
Q 2459 422 2753 634 
Q 3047 847 3047 1241 
Q 3047 1584 2836 1778 
Q 2625 1972 2144 2069 
L 1759 2144 
Q 1053 2284 737 2584 
Q 422 2884 422 3419 
Q 422 4038 858 4394 
Q 1294 4750 2059 4750 
Q 2388 4750 2728 4690 
Q 3069 4631 3425 4513 
z
" transform="scale(0.015625)"/>
       <path id="DejaVuSans-45" d="M 628 4666 
L 3578 4666 
L 3578 4134 
L 1259 4134 
L 1259 2753 
L 3481 2753 
L 3481 2222 
L 1259 2222 
L 1259 531 
L 3634 531 
L 3634 0 
L 628 0 
L 628 4666 
z
" transform="scale(0.015625)"/>
       <path id="DejaVuSans-42" d="M 1259 2228 
L 1259 519 
L 2272 519 
Q 2781 519 3026 730 
Q 3272 941 3272 1375 
Q 3272 1813 3026 2020 
Q 2781 2228 2272 2228 
L 1259 2228 
z
M 1259 4147 
L 1259 2741 
L 2194 2741 
Q 2656 2741 2882 2914 
Q 3109 3088 3109 3444 
Q 3109 3797 2882 3972 
Q 2656 4147 2194 4147 
L 1259 4147 
z
M 628 4666 
L 2241 4666 
Q 2963 4666 3353 4366 
Q 3744 4066 3744 3513 
Q 3744 3084 3544 2831 
Q 3344 2578 2956 2516 
Q 3422 2416 3680 2098 
Q 3938 1781 3938 1306 
Q 3938 681 3513 340 
Q 3088 0 2303 0 
L 628 0 
L 628 4666 
z
" transform="scale(0.015625)"/>
       <path id="DejaVuSans-49" d="M 628 4666 
L 1259 4666 
L 1259 0 
L 628 0 
L 628 4666 
z
" transform="scale(0.015625)"/>
      </defs>
      <use xlink:href="#DejaVuSans-56"/>
      <use xlink:href="#DejaVuSans-50" x="68.408203"/>
      <use xlink:href="#DejaVuSans-55" x="128.710938"/>
      <use xlink:href="#DejaVuSans-4c" x="201.904297"/>
      <use xlink:href="#DejaVuSans-53" x="257.617188"/>
      <use xlink:href="#DejaVuSans-45" x="321.09375"/>
      <use xlink:href="#DejaVuSans-20" x="384.277344"/>
      <use xlink:href="#DejaVuSans-42" x="416.064453"/>
      <use xlink:href="#DejaVuSans-42" x="484.667969"/>
      <use xlink:href="#DejaVuSans-49" x="553.271484"/>
     </g>
    </g>
   </g>
   <g id="line2d_17">
    <path d="M 141.12 45.027377 
L 389.523456 45.136282 
L 390.007296 46.425538 
L 398.232576 69.006772 
L 405.651456 89.863624 
L 407.264256 94.440546 
L 409.070592 99.673219 
L 412.55424 110.807642 
L 414.134784 115.853719 
L 415.392768 119.566971 
L 416.618496 120.153414 
L 417.457152 120.545265 
L 418.489344 121.017085 
L 419.069952 121.272988 
L 419.940864 121.656841 
L 420.521472 121.912744 
L 421.360128 122.269941 
L 422.940672 122.936354 
L 423.585792 123.202919 
L 424.682496 123.629423 
L 425.424384 123.922644 
L 426.521088 124.349149 
L 427.424256 124.677024 
L 428.101632 124.943589 
L 428.908032 125.25547 
L 430.262784 125.804594 
L 432.907776 126.790885 
L 433.52064 127.022796 
L 435.456 127.395987 
L 453.938688 127.289361 
L 454.16448 126.801547 
L 472.453632 75.087922 
L 476.195328 63.292417 
L 479.904768 51.617666 
L 484.517376 49.3412 
L 489.871872 46.984578 
L 498.580992 43.484472 
L 499.451904 43.268927 
L 513.741312 43.108189 
L 520.547328 43.184799 
L 535.901184 43.746186 
L 563.6736 44.46146 
L 589.31712 44.774399 
L 624.927744 44.945888 
L 672.956928 44.953885 
L 947.52 44.953885 
L 947.52 44.953885 
" clip-path="url(#p4f99764f2e)" style="fill: none; stroke: #ff0000; stroke-width: 2; stroke-linecap: square"/>
   </g>
   <g id="patch_4">
    <path d="M 100.8 131.611034 
L 100.8 38.88 
" style="fill: none; stroke: #bcbcbc; stroke-width: 0.8; stroke-linejoin: miter; stroke-linecap: square"/>
   </g>
   <g id="patch_5">
    <path d="M 987.84 131.611034 
L 987.84 38.88 
" style="fill: none; stroke: #bcbcbc; stroke-width: 0.8; stroke-linejoin: miter; stroke-linecap: square"/>
   </g>
   <g id="patch_6">
    <path d="M 100.8 131.611034 
L 987.84 131.611034 
" style="fill: none; stroke: #bcbcbc; stroke-width: 0.8; stroke-linejoin: miter; stroke-linecap: square"/>
   </g>
   <g id="patch_7">
    <path d="M 100.8 38.88 
L 987.84 38.88 
" style="fill: none; stroke: #bcbcbc; stroke-width: 0.8; stroke-linejoin: miter; stroke-linecap: square"/>
   </g>
  </g>
  <g id="axes_2">
   <g id="patch_8">
    <path d="M 100.8 242.888276 
L 987.84 242.888276 
L 987.84 150.157241 
L 100.8 150.157241 
z
" style="fill: #eeeeee"/>
   </g>
   <g id="matplotlib.axis_3">
    <g id="xtick_7">
     <g id="line2d_18">
      <path d="M 141.12 242.888276 
L 141.12 150.157241 
" clip-path="url(#pa86d717347)" style="fill: none; stroke-dasharray: 1.85,0.8; stroke-dashoffset: 0; stroke: #b2b2b2; stroke-width: 0.5"/>
     </g>
     <g id="line2d_19">
      <g>
       <use xlink:href="#m0d795f6cd7" x="141.12" y="242.888276" style="stroke: #000000; stroke-width: 0.8"/>
      </g>
     </g>
    </g>
    <g id="xtick_8">
     <g id="line2d_20">
      <path d="M 302.4 242.888276 
L 302.4 150.157241 
" clip-path="url(#pa86d717347)" style="fill: none; stroke-dasharray: 1.85,0.8; stroke-dashoffset: 0; stroke: #b2b2b2; stroke-width: 0.5"/>
     </g>
     <g id="line2d_21">
      <g>
       <use xlink:href="#m0d795f6cd7" x="302.4" y="242.888276" style="stroke: #000000; stroke-width: 0.8"/>
      </g>
     </g>
    </g>
    <g id="xtick_9">
     <g id="line2d_22">
      <path d="M 463.68 242.888276 
L 463.68 150.157241 
" clip-path="url(#pa86d717347)" style="fill: none; stroke-dasharray: 1.85,0.8; stroke-dashoffset: 0; stroke: #b2b2b2; stroke-width: 0.5"/>
     </g>
     <g id="line2d_23">
      <g>
       <use xlink:href="#m0d795f6cd7" x="463.68" y="242.888276" style="stroke: #000000; stroke-width: 0.8"/>
      </g>
     </g>
    </g>
    <g id="xtick_10">
     <g id="line2d_24">
      <path d="M 624.96 242.888276 
L 624.96 150.157241 
" clip-path="url(#pa86d717347)" style="fill: none; stroke-dasharray: 1.85,0.8; stroke-dashoffset: 0; stroke: #b2b2b2; stroke-width: 0.5"/>
     </g>
     <g id="line2d_25">
      <g>
       <use xlink:href="#m0d795f6cd7" x="624.96" y="242.888276" style="stroke: #000000; stroke-width: 0.8"/>
      </g>
     </g>
    </g>
    <g id="xtick_11">
     <g id="line2d_26">
      <path d="M 786.24 242.888276 
L 786.24 150.157241 
" clip-path="url(#pa86d717347)" style="fill: none; stroke-dasharray: 1.85,0.8; stroke-dashoffset: 0; stroke: #b2b2b2; stroke-width: 0.5"/>
     </g>
     <g id="line2d_27">
      <g>
       <use xlink:href="#m0d795f6cd7" x="786.24" y="242.888276" style="stroke: #000000; stroke-width: 0.8"/>
      </g>
     </g>
    </g>
    <g id="xtick_12">
     <g id="line2d_28">
      <path d="M 947.52 242.888276 
L 947.52 150.157241 
" clip-path="url(#pa86d717347)" style="fill: none; stroke-dasharray: 1.85,0.8; stroke-dashoffset: 0; stroke: #b2b2b2; stroke-width: 0.5"/>
     </g>
     <g id="line2d_29">
      <g>
       <use xlink:href="#m0d795f6cd7" x="947.52" y="242.888276" style="stroke: #000000; stroke-width: 0.8"/>
      </g>
     </g>
    </g>
   </g>
   <g id="matplotlib.axis_4">
    <g id="ytick_3">
     <g id="line2d_30">
      <path d="M 100.8 219.173127 
L 987.84 219.173127 
" clip-path="url(#pa86d717347)" style="fill: none; stroke-dasharray: 1.85,0.8; stroke-dashoffset: 0; stroke: #b2b2b2; stroke-width: 0.5"/>
     </g>
     <g id="line2d_31">
      <g>
       <use xlink:href="#m757505ac9c" x="100.8" y="219.173127" style="stroke: #000000; stroke-width: 0.8"/>
      </g>
     </g>
     <g id="text_4">
      <!-- 0 V -->
      <g transform="translate(74.36625 224.492034) scale(0.14 -0.14)">
       <use xlink:href="#DejaVuSans-30"/>
       <use xlink:href="#DejaVuSans-20" x="63.623047"/>
       <use xlink:href="#DejaVuSans-56" x="95.410156"/>
      </g>
     </g>
    </g>
    <g id="ytick_4">
     <g id="line2d_32">
      <path d="M 100.8 185.167649 
L 987.84 185.167649 
" clip-path="url(#pa86d717347)" style="fill: none; stroke-dasharray: 1.85,0.8; stroke-dashoffset: 0; stroke: #b2b2b2; stroke-width: 0.5"/>
     </g>
     <g id="line2d_33">
      <g>
       <use xlink:href="#m757505ac9c" x="100.8" y="185.167649" style="stroke: #000000; stroke-width: 0.8"/>
      </g>
     </g>
     <g id="text_5">
      <!-- 1 V -->
      <g transform="translate(74.36625 190.486556) scale(0.14 -0.14)">
       <defs>
        <path id="DejaVuSans-31" d="M 794 531 
L 1825 531 
L 1825 4091 
L 703 3866 
L 703 4441 
L 1819 4666 
L 2450 4666 
L 2450 531 
L 3481 531 
L 3481 0 
L 794 0 
L 794 531 
z
" transform="scale(0.015625)"/>
       </defs>
       <use xlink:href="#DejaVuSans-31"/>
       <use xlink:href="#DejaVuSans-20" x="63.623047"/>
       <use xlink:href="#DejaVuSans-56" x="95.410156"/>
      </g>
     </g>
    </g>
    <g id="ytick_5">
     <g id="line2d_34">
      <path d="M 100.8 151.162171 
L 987.84 151.162171 
" clip-path="url(#pa86d717347)" style="fill: none; stroke-dasharray: 1.85,0.8; stroke-dashoffset: 0; stroke: #b2b2b2; stroke-width: 0.5"/>
     </g>
     <g id="line2d_35">
      <g>
       <use xlink:href="#m757505ac9c" x="100.8" y="151.162171" style="stroke: #000000; stroke-width: 0.8"/>
      </g>
     </g>
     <g id="text_6">
      <!-- 2 V -->
      <g transform="translate(74.36625 156.481078) scale(0.14 -0.14)">
       <use xlink:href="#DejaVuSans-32"/>
       <use xlink:href="#DejaVuSans-20" x="63.623047"/>
       <use xlink:href="#DejaVuSans-56" x="95.410156"/>
      </g>
     </g>
    </g>
    <g id="text_7">
     <g id="patch_9">
      <path d="M 34.8768 224.531509 
L 34.8768 168.514009 
L 11.247425 168.514009 
L 11.247425 224.531509 
z
" style="fill: #ffff00; opacity: 0.2; stroke: #eeeeee; stroke-width: 0.5; stroke-linejoin: miter"/>
     </g>
     <!-- DFF IN -->
     <g transform="translate(26.925238 219.491509) rotate(-90) scale(0.14 -0.14)">
      <defs>
       <path id="DejaVuSans-44" d="M 1259 4147 
L 1259 519 
L 2022 519 
Q 2988 519 3436 956 
Q 3884 1394 3884 2338 
Q 3884 3275 3436 3711 
Q 2988 4147 2022 4147 
L 1259 4147 
z
M 628 4666 
L 1925 4666 
Q 3281 4666 3915 4102 
Q 4550 3538 4550 2338 
Q 4550 1131 3912 565 
Q 3275 0 1925 0 
L 628 0 
L 628 4666 
z
" transform="scale(0.015625)"/>
       <path id="DejaVuSans-46" d="M 628 4666 
L 3309 4666 
L 3309 4134 
L 1259 4134 
L 1259 2759 
L 3109 2759 
L 3109 2228 
L 1259 2228 
L 1259 0 
L 628 0 
L 628 4666 
z
" transform="scale(0.015625)"/>
       <path id="DejaVuSans-4e" d="M 628 4666 
L 1478 4666 
L 3547 763 
L 3547 4666 
L 4159 4666 
L 4159 0 
L 3309 0 
L 1241 3903 
L 1241 0 
L 628 0 
L 628 4666 
z
" transform="scale(0.015625)"/>
      </defs>
      <use xlink:href="#DejaVuSans-44"/>
      <use xlink:href="#DejaVuSans-46" x="77.001953"/>
      <use xlink:href="#DejaVuSans-46" x="134.521484"/>
      <use xlink:href="#DejaVuSans-20" x="192.041016"/>
      <use xlink:href="#DejaVuSans-49" x="223.828125"/>
      <use xlink:href="#DejaVuSans-4e" x="253.320312"/>
     </g>
    </g>
   </g>
   <g id="line2d_36">
    <path d="M 141.12 219.123466 
L 221.953536 219.076834 
L 224.437248 200.12938 
L 225.404928 194.365451 
L 228.243456 181.69229 
L 229.598208 180.420485 
L 231.178752 179.546544 
L 236.533248 179.09087 
L 243.5328 178.982053 
L 244.952064 178.941246 
L 248.145408 178.832429 
L 249.790464 178.767818 
L 251.887104 178.659001 
L 254.241792 178.312145 
L 254.757888 177.774858 
L 255.499776 177.434804 
L 256.338432 177.448406 
L 259.789824 178.063905 
L 262.467072 178.237333 
L 263.886336 178.284941 
L 264.144384 183.528585 
L 264.434688 187.09644 
L 265.176576 191.849386 
L 267.144192 209.197961 
L 268.402176 215.71171 
L 269.047296 216.995961 
L 270.46656 218.760165 
L 273.724416 219.174964 
L 282.530304 219.127509 
L 297.013248 219.117767 
L 305.754624 219.122623 
L 347.751936 219.078531 
L 350.235648 200.169506 
L 351.622656 191.524293 
L 352.654848 186.22828 
L 354.97728 179.226892 
L 358.493184 178.227131 
L 360.202752 178.298543 
L 363.009024 178.40736 
L 364.33152 178.437965 
L 375.201792 178.543382 
L 375.750144 179.52274 
L 376.298496 180.58031 
L 376.556544 180.814948 
L 377.588736 181.131199 
L 378.52416 180.719733 
L 380.362752 179.685966 
L 381.136896 179.40032 
L 382.265856 179.158881 
L 383.427072 179.02626 
L 385.684992 178.897039 
L 388.233216 178.788222 
L 389.523456 178.761017 
L 389.781504 179.172484 
L 391.136256 181.379439 
L 396.393984 188.39715 
L 398.68416 191.672557 
L 399.168 193.171519 
L 400.45824 197.878557 
L 400.845312 199.354055 
L 401.006592 199.979075 
L 401.554944 202.189431 
L 402.167808 204.958158 
L 402.683904 207.379688 
L 403.329024 210.24907 
L 404.264448 213.84821 
L 404.49024 214.605852 
L 405.45792 218.188567 
L 406.4256 221.242735 
L 406.58688 221.81787 
L 406.973952 223.106881 
L 407.457792 224.106982 
L 408.167424 225.801815 
L 408.941568 226.907333 
L 410.844672 230.951265 
L 411.005952 231.23181 
L 411.554304 232.260136 
L 411.973632 233.15652 
L 412.457472 233.878796 
L 412.844544 234.553125 
L 413.070336 235.041784 
L 413.425152 235.663064 
L 413.715456 236.032023 
L 413.973504 236.553667 
L 415.328256 238.673229 
L 415.650816 238.517824 
L 415.812096 238.376021 
L 416.070144 237.957754 
L 416.26368 237.767323 
L 416.683008 236.93963 
L 416.941056 236.558768 
L 417.360384 235.987476 
L 417.618432 235.731415 
L 418.005504 235.344093 
L 418.263552 234.939767 
L 418.5216 234.454849 
L 418.84416 234.052564 
L 418.876416 234.097452 
L 419.00544 234.02536 
L 419.263488 233.725772 
L 419.65056 233.52922 
L 419.876352 233.34457 
L 420.77952 232.290061 
L 421.069824 231.85411 
L 421.360128 231.715708 
L 421.521408 231.616412 
L 422.06976 231.280778 
L 422.327808 231.085587 
L 424.65024 228.975887 
L 424.9728 228.781715 
L 426.359808 227.500049 
L 426.5856 227.185498 
L 426.714624 227.109326 
L 427.359744 226.693099 
L 427.87584 226.357465 
L 429.682176 224.704459 
L 429.97248 224.371205 
L 430.327296 224.299793 
L 430.746624 224.113103 
L 431.74656 223.375184 
L 434.939904 220.78077 
L 436.326912 218.934674 
L 437.133312 217.860584 
L 438.068736 216.514919 
L 439.036416 215.205368 
L 442.584576 210.81016 
L 443.455488 209.943361 
L 444.00384 208.937819 
L 446.810112 201.358678 
L 447.616512 200.118498 
L 448.584192 198.664424 
L 449.00352 198.216231 
L 452.519424 193.907057 
L 453.777408 192.634572 
L 454.099968 192.113608 
L 454.454784 190.971704 
L 455.970816 185.73214 
L 456.777216 183.977458 
L 457.325568 183.195332 
L 458.422272 182.137761 
L 460.647936 179.495536 
L 462.647808 177.22737 
L 463.647744 175.904557 
L 469.550592 167.389585 
L 471.356928 165.094216 
L 472.260096 163.985637 
L 473.292288 162.758039 
L 474.00192 161.76848 
L 475.45344 159.823367 
L 477.324288 157.446384 
L 479.872512 154.385891 
L 481.356288 154.742948 
L 482.517504 154.75655 
L 483.001344 154.810959 
L 484.32384 155.055799 
L 485.77536 155.399254 
L 488.549376 156.089565 
L 489.097728 156.262993 
L 489.678336 156.42962 
L 490.904064 156.830884 
L 491.871744 157.147135 
L 493.19424 157.589207 
L 494.3232 157.939463 
L 496.032768 158.41554 
L 496.452096 157.466787 
L 496.806912 157.147135 
L 497.161728 157.147135 
L 497.5488 157.323964 
L 501.387264 160.418462 
L 503.161344 161.414823 
L 503.806464 161.734474 
L 513.225216 165.587295 
L 514.128384 165.889944 
L 515.61216 166.396625 
L 525.45024 169.392508 
L 527.417856 169.916192 
L 528.095232 170.08622 
L 533.901312 171.422635 
L 534.417408 171.528052 
L 535.546368 171.752488 
L 536.449536 172.146952 
L 536.933376 172.898473 
L 537.513984 173.25213 
L 538.03008 173.360947 
L 539.030016 173.258931 
L 540.513792 172.905274 
L 542.674944 173.014091 
L 545.513472 173.418757 
L 546.190848 173.517373 
L 547.86816 173.758811 
L 548.642304 173.864228 
L 550.158336 174.071662 
L 550.996992 174.180479 
L 552.287232 174.343706 
L 553.093632 174.449123 
L 554.222592 174.578343 
L 555.222528 174.68376 
L 556.512768 174.843586 
L 557.480448 174.952404 
L 565.641216 175.703925 
L 567.028224 175.812742 
L 567.576576 175.873952 
L 570.544128 176.081386 
L 571.189248 176.111991 
L 571.705344 176.162999 
L 574.511616 176.350029 
L 575.156736 176.387435 
L 576.672768 176.441844 
L 577.188864 175.856949 
L 577.801728 175.598508 
L 579.414528 175.877353 
L 580.511232 176.224209 
L 583.414272 176.72749 
L 584.575488 176.832907 
L 585.059328 176.870313 
L 587.510784 177.023337 
L 588.18816 177.060743 
L 589.897728 177.132155 
L 592.445952 177.240972 
L 593.800704 177.274978 
L 597.090816 177.383795 
L 598.477824 177.424602 
L 599.284224 177.448406 
L 603.800064 177.557223 
L 605.12256 177.587828 
L 609.96096 177.693245 
L 610.60608 177.72045 
L 616.960512 177.819066 
L 617.121792 177.999295 
L 617.605632 178.522979 
L 618.057216 178.771219 
L 618.83136 178.90384 
L 619.670016 178.795023 
L 621.7344 178.254336 
L 624.379392 178.084308 
L 657.312768 177.999295 
L 657.893376 177.380395 
L 658.538496 177.094749 
L 659.6352 177.084547 
L 663.602688 177.808864 
L 665.28 177.876875 
L 697.600512 177.985692 
L 697.761792 178.165921 
L 698.277888 178.686205 
L 698.66496 178.869835 
L 699.277824 179.009257 
L 701.632512 178.90044 
L 703.34208 178.611393 
L 704.664576 178.444766 
L 709.212672 178.074107 
L 737.952768 177.999295 
L 738.50112 177.383795 
L 739.049472 177.108351 
L 740.984832 177.217169 
L 744.242688 177.791861 
L 746.339328 177.904079 
L 778.272768 177.999295 
L 779.208192 178.835829 
L 780.143616 179.016058 
L 782.240256 178.907241 
L 783.949824 178.618194 
L 785.304576 178.444766 
L 789.852672 178.074107 
L 818.592768 177.999295 
L 819.14112 177.383795 
L 819.689472 177.108351 
L 821.624832 177.217169 
L 824.882688 177.791861 
L 826.979328 177.904079 
L 858.912768 177.999295 
L 859.848192 178.835829 
L 860.783616 179.016058 
L 862.073856 179.046663 
L 864.847872 178.573987 
L 870.686208 178.067306 
L 899.232768 177.999295 
L 899.78112 177.383795 
L 900.329472 177.108351 
L 902.264832 177.217169 
L 905.522688 177.791861 
L 907.619328 177.904079 
L 939.552768 177.999295 
L 940.617216 178.866434 
L 941.55264 179.053464 
L 943.455744 178.944647 
L 944.77824 178.696407 
L 947.003904 178.339349 
L 947.52 178.257736 
L 947.52 178.257736 
" clip-path="url(#pa86d717347)" style="fill: none; stroke: #008000; stroke-width: 2; stroke-linecap: square"/>
   </g>
   <g id="patch_10">
    <path d="M 100.8 242.888276 
L 100.8 150.157241 
" style="fill: none; stroke: #bcbcbc; stroke-width: 0.8; stroke-linejoin: miter; stroke-linecap: square"/>
   </g>
   <g id="patch_11">
    <path d="M 987.84 242.888276 
L 987.84 150.157241 
" style="fill: none; stroke: #bcbcbc; stroke-width: 0.8; stroke-linejoin: miter; stroke-linecap: square"/>
   </g>
   <g id="patch_12">
    <path d="M 100.8 242.888276 
L 987.84 242.888276 
" style="fill: none; stroke: #bcbcbc; stroke-width: 0.8; stroke-linejoin: miter; stroke-linecap: square"/>
   </g>
   <g id="patch_13">
    <path d="M 100.8 150.157241 
L 987.84 150.157241 
" style="fill: none; stroke: #bcbcbc; stroke-width: 0.8; stroke-linejoin: miter; stroke-linecap: square"/>
   </g>
  </g>
  <g id="axes_3">
   <g id="patch_14">
    <path d="M 100.8 354.165517 
L 987.84 354.165517 
L 987.84 261.434483 
L 100.8 261.434483 
z
" style="fill: #eeeeee"/>
   </g>
   <g id="matplotlib.axis_5">
    <g id="xtick_13">
     <g id="line2d_37">
      <path d="M 141.12 354.165517 
L 141.12 261.434483 
" clip-path="url(#pc5f0b717a2)" style="fill: none; stroke-dasharray: 1.85,0.8; stroke-dashoffset: 0; stroke: #b2b2b2; stroke-width: 0.5"/>
     </g>
     <g id="line2d_38">
      <g>
       <use xlink:href="#m0d795f6cd7" x="141.12" y="354.165517" style="stroke: #000000; stroke-width: 0.8"/>
      </g>
     </g>
    </g>
    <g id="xtick_14">
     <g id="line2d_39">
      <path d="M 302.4 354.165517 
L 302.4 261.434483 
" clip-path="url(#pc5f0b717a2)" style="fill: none; stroke-dasharray: 1.85,0.8; stroke-dashoffset: 0; stroke: #b2b2b2; stroke-width: 0.5"/>
     </g>
     <g id="line2d_40">
      <g>
       <use xlink:href="#m0d795f6cd7" x="302.4" y="354.165517" style="stroke: #000000; stroke-width: 0.8"/>
      </g>
     </g>
    </g>
    <g id="xtick_15">
     <g id="line2d_41">
      <path d="M 463.68 354.165517 
L 463.68 261.434483 
" clip-path="url(#pc5f0b717a2)" style="fill: none; stroke-dasharray: 1.85,0.8; stroke-dashoffset: 0; stroke: #b2b2b2; stroke-width: 0.5"/>
     </g>
     <g id="line2d_42">
      <g>
       <use xlink:href="#m0d795f6cd7" x="463.68" y="354.165517" style="stroke: #000000; stroke-width: 0.8"/>
      </g>
     </g>
    </g>
    <g id="xtick_16">
     <g id="line2d_43">
      <path d="M 624.96 354.165517 
L 624.96 261.434483 
" clip-path="url(#pc5f0b717a2)" style="fill: none; stroke-dasharray: 1.85,0.8; stroke-dashoffset: 0; stroke: #b2b2b2; stroke-width: 0.5"/>
     </g>
     <g id="line2d_44">
      <g>
       <use xlink:href="#m0d795f6cd7" x="624.96" y="354.165517" style="stroke: #000000; stroke-width: 0.8"/>
      </g>
     </g>
    </g>
    <g id="xtick_17">
     <g id="line2d_45">
      <path d="M 786.24 354.165517 
L 786.24 261.434483 
" clip-path="url(#pc5f0b717a2)" style="fill: none; stroke-dasharray: 1.85,0.8; stroke-dashoffset: 0; stroke: #b2b2b2; stroke-width: 0.5"/>
     </g>
     <g id="line2d_46">
      <g>
       <use xlink:href="#m0d795f6cd7" x="786.24" y="354.165517" style="stroke: #000000; stroke-width: 0.8"/>
      </g>
     </g>
    </g>
    <g id="xtick_18">
     <g id="line2d_47">
      <path d="M 947.52 354.165517 
L 947.52 261.434483 
" clip-path="url(#pc5f0b717a2)" style="fill: none; stroke-dasharray: 1.85,0.8; stroke-dashoffset: 0; stroke: #b2b2b2; stroke-width: 0.5"/>
     </g>
     <g id="line2d_48">
      <g>
       <use xlink:href="#m0d795f6cd7" x="947.52" y="354.165517" style="stroke: #000000; stroke-width: 0.8"/>
      </g>
     </g>
    </g>
   </g>
   <g id="matplotlib.axis_6">
    <g id="ytick_6">
     <g id="line2d_49">
      <path d="M 100.8 343.164935 
L 987.84 343.164935 
" clip-path="url(#pc5f0b717a2)" style="fill: none; stroke-dasharray: 1.85,0.8; stroke-dashoffset: 0; stroke: #b2b2b2; stroke-width: 0.5"/>
     </g>
     <g id="line2d_50">
      <g>
       <use xlink:href="#m757505ac9c" x="100.8" y="343.164935" style="stroke: #000000; stroke-width: 0.8"/>
      </g>
     </g>
     <g id="text_8">
      <!-- 0 V -->
      <g transform="translate(74.36625 348.483841) scale(0.14 -0.14)">
       <use xlink:href="#DejaVuSans-30"/>
       <use xlink:href="#DejaVuSans-20" x="63.623047"/>
       <use xlink:href="#DejaVuSans-56" x="95.410156"/>
      </g>
     </g>
    </g>
    <g id="ytick_7">
     <g id="line2d_51">
      <path d="M 100.8 299.651179 
L 987.84 299.651179 
" clip-path="url(#pc5f0b717a2)" style="fill: none; stroke-dasharray: 1.85,0.8; stroke-dashoffset: 0; stroke: #b2b2b2; stroke-width: 0.5"/>
     </g>
     <g id="line2d_52">
      <g>
       <use xlink:href="#m757505ac9c" x="100.8" y="299.651179" style="stroke: #000000; stroke-width: 0.8"/>
      </g>
     </g>
     <g id="text_9">
      <!-- 1 V -->
      <g transform="translate(74.36625 304.970085) scale(0.14 -0.14)">
       <use xlink:href="#DejaVuSans-31"/>
       <use xlink:href="#DejaVuSans-20" x="63.623047"/>
       <use xlink:href="#DejaVuSans-56" x="95.410156"/>
      </g>
     </g>
    </g>
    <g id="text_10">
     <g id="patch_15">
      <path d="M 34.8768 342.395313 
L 34.8768 273.204688 
L 11.247425 273.204688 
L 11.247425 342.395313 
z
" style="fill: #ffff00; opacity: 0.2; stroke: #eeeeee; stroke-width: 0.5; stroke-linejoin: miter"/>
     </g>
     <!-- CLK BUF -->
     <g transform="translate(26.925238 337.355313) rotate(-90) scale(0.14 -0.14)">
      <defs>
       <path id="DejaVuSans-43" d="M 4122 4306 
L 4122 3641 
Q 3803 3938 3442 4084 
Q 3081 4231 2675 4231 
Q 1875 4231 1450 3742 
Q 1025 3253 1025 2328 
Q 1025 1406 1450 917 
Q 1875 428 2675 428 
Q 3081 428 3442 575 
Q 3803 722 4122 1019 
L 4122 359 
Q 3791 134 3420 21 
Q 3050 -91 2638 -91 
Q 1578 -91 968 557 
Q 359 1206 359 2328 
Q 359 3453 968 4101 
Q 1578 4750 2638 4750 
Q 3056 4750 3426 4639 
Q 3797 4528 4122 4306 
z
" transform="scale(0.015625)"/>
       <path id="DejaVuSans-4b" d="M 628 4666 
L 1259 4666 
L 1259 2694 
L 3353 4666 
L 4166 4666 
L 1850 2491 
L 4331 0 
L 3500 0 
L 1259 2247 
L 1259 0 
L 628 0 
L 628 4666 
z
" transform="scale(0.015625)"/>
      </defs>
      <use xlink:href="#DejaVuSans-43"/>
      <use xlink:href="#DejaVuSans-4c" x="69.824219"/>
      <use xlink:href="#DejaVuSans-4b" x="125.537109"/>
      <use xlink:href="#DejaVuSans-20" x="191.113281"/>
      <use xlink:href="#DejaVuSans-42" x="222.900391"/>
      <use xlink:href="#DejaVuSans-55" x="291.503906"/>
      <use xlink:href="#DejaVuSans-46" x="364.697266"/>
     </g>
    </g>
   </g>
   <g id="line2d_53">
    <path d="M 141.12 343.163785 
L 173.376 343.163785 
L 173.601792 290.948428 
L 213.696 290.948428 
L 213.760512 332.59936 
L 213.825024 343.145056 
L 213.889536 343.082437 
L 213.954048 343.25627 
L 214.01856 343.169651 
L 215.341056 343.160521 
L 223.340544 343.16375 
L 254.016 343.163755 
L 254.17728 290.787427 
L 254.241792 291.065915 
L 254.403072 290.939725 
L 254.854656 290.948428 
L 294.336 290.948428 
L 294.400512 332.562808 
L 294.465024 343.489639 
L 294.529536 342.733096 
L 294.626304 343.233317 
L 294.65856 343.202353 
L 294.852096 343.125871 
L 295.206912 343.180769 
L 295.497216 343.163446 
L 320.398848 343.163784 
L 334.656 343.163787 
L 334.81728 290.870103 
L 334.881792 290.965833 
L 335.204352 290.952779 
L 336.043008 290.948428 
L 374.976 290.948428 
L 375.008256 294.768935 
L 375.13728 343.050176 
L 375.234048 343.239335 
L 375.29856 343.188594 
L 375.492096 343.136822 
L 375.7824 343.184311 
L 376.10496 343.16376 
L 389.523456 343.21408 
L 390.62016 344.139469 
L 391.491072 344.46369 
L 392.652288 344.644838 
L 394.65216 344.69675 
L 399.909888 344.550761 
L 407.425536 344.386323 
L 409.038336 344.870022 
L 409.81248 345.321738 
L 411.038208 346.062777 
L 415.296 348.679869 
L 415.328256 349.95047 
L 415.521792 325.796854 
L 415.715328 325.606264 
L 417.908736 324.662451 
L 423.03744 322.770908 
L 423.230976 322.702591 
L 423.263232 322.616869 
L 423.36 322.672567 
L 423.650304 322.474144 
L 423.68256 322.520269 
L 423.714816 322.565523 
L 423.747072 322.529406 
L 423.84384 322.418882 
L 423.876096 322.501993 
L 424.037376 322.343603 
L 424.069632 322.385376 
L 424.198656 322.384941 
L 424.359936 322.297043 
L 425.198592 322.005501 
L 426.198528 321.619099 
L 426.230784 321.713959 
L 426.295296 321.665658 
L 426.553344 321.44809 
L 426.617856 321.523804 
L 426.682368 321.478549 
L 426.972672 321.374116 
L 427.101696 321.348008 
L 427.295232 321.272729 
L 434.714112 318.670171 
L 435.004416 318.487849 
L 435.907584 317.980914 
L 438.391296 316.412243 
L 446.648832 311.197554 
L 451.035648 308.838673 
L 454.16448 307.091161 
L 455.519232 304.49426 
L 455.616 304.29018 
L 455.648256 302.999127 
L 455.809536 341.426517 
L 455.970816 341.462633 
L 457.164288 341.286055 
L 459.099648 341.255551 
L 464.32512 341.457412 
L 473.421312 341.790466 
L 475.388928 341.7037 
L 478.227456 341.771886 
L 479.840256 341.88537 
L 480.517632 342.574062 
L 481.25952 343.005518 
L 482.194944 343.295433 
L 483.549696 343.475419 
L 486.001152 343.555928 
L 494.452224 343.517048 
L 495.936 343.507667 
L 496.129536 265.64953 
L 496.194048 265.679989 
L 500.258304 267.442297 
L 501.000192 267.903542 
L 501.774336 268.334329 
L 504 269.657147 
L 504.419328 269.909527 
L 505.225728 270.353367 
L 511.386624 273.551628 
L 513.096192 274.360984 
L 514.515456 275.000636 
L 526.353408 279.682716 
L 526.611456 279.782798 
L 528.159744 280.291909 
L 528.450048 280.39199 
L 529.546752 280.727046 
L 529.901568 280.827128 
L 531.127296 281.205698 
L 536.256 282.6373 
L 536.449536 343.47447 
L 536.514048 343.386259 
L 536.90112 343.381768 
L 576.576 343.228117 
L 576.705024 288.302791 
L 576.801792 288.64655 
L 577.317888 288.685712 
L 578.801664 288.777091 
L 580.349952 288.885876 
L 580.608 288.903281 
L 582.349824 289.003363 
L 582.70464 289.033822 
L 584.575488 289.133904 
L 584.930304 289.164364 
L 586.89792 289.264445 
L 587.252736 289.294905 
L 589.510656 289.394987 
L 589.865472 289.425446 
L 592.22016 289.525528 
L 592.574976 289.555987 
L 595.316736 289.656069 
L 595.671552 289.686529 
L 598.703616 289.78661 
L 599.058432 289.81707 
L 602.477568 289.917152 
L 602.832384 289.947611 
L 606.73536 290.047693 
L 607.090176 290.078153 
L 611.670528 290.178234 
L 612.025344 290.208694 
L 616.896 290.295721 
L 616.928256 295.177965 
L 617.025024 343.268054 
L 617.05728 343.103163 
L 617.283072 343.170965 
L 617.444352 343.18475 
L 618.476544 343.180756 
L 657.216 343.176245 
L 657.37728 290.426263 
L 657.441792 290.530696 
L 658.377216 290.51329 
L 697.536 290.51329 
L 697.665024 343.49738 
L 697.826304 343.244134 
L 698.084352 343.14719 
L 698.439168 343.19453 
L 698.761728 343.176018 
L 736.275456 343.176245 
L 737.856 343.176246 
L 738.01728 290.287019 
L 738.081792 290.778724 
L 738.17856 290.330532 
L 738.243072 290.495885 
L 738.726912 290.51329 
L 778.176 290.51329 
L 778.305024 343.497206 
L 778.466304 343.244178 
L 778.724352 343.147181 
L 779.079168 343.194517 
L 779.401728 343.176018 
L 817.076736 343.176245 
L 818.496 343.176246 
L 818.65728 290.287019 
L 818.721792 290.778724 
L 818.81856 290.330532 
L 818.883072 290.495885 
L 819.366912 290.51329 
L 858.816 290.51329 
L 858.945024 343.49738 
L 859.106304 343.244134 
L 859.364352 343.147191 
L 859.719168 343.19453 
L 860.041728 343.176018 
L 897.555456 343.176245 
L 899.136 343.176246 
L 899.29728 290.287019 
L 899.361792 290.778724 
L 899.45856 290.330532 
L 899.523072 290.495885 
L 900.006912 290.51329 
L 939.456 290.51329 
L 939.488256 298.35882 
L 939.61728 343.124494 
L 939.649536 343.251027 
L 939.714048 343.129966 
L 939.746304 343.091784 
L 939.810816 343.147946 
L 940.004352 343.202287 
L 940.230144 343.174865 
L 945.58464 343.17625 
L 947.52 343.176236 
L 947.52 343.176236 
" clip-path="url(#pc5f0b717a2)" style="fill: none; stroke: #0000ff; stroke-width: 2; stroke-linecap: square"/>
   </g>
   <g id="patch_16">
    <path d="M 100.8 354.165517 
L 100.8 261.434483 
" style="fill: none; stroke: #bcbcbc; stroke-width: 0.8; stroke-linejoin: miter; stroke-linecap: square"/>
   </g>
   <g id="patch_17">
    <path d="M 987.84 354.165517 
L 987.84 261.434483 
" style="fill: none; stroke: #bcbcbc; stroke-width: 0.8; stroke-linejoin: miter; stroke-linecap: square"/>
   </g>
   <g id="patch_18">
    <path d="M 100.8 354.165517 
L 987.84 354.165517 
" style="fill: none; stroke: #bcbcbc; stroke-width: 0.8; stroke-linejoin: miter; stroke-linecap: square"/>
   </g>
   <g id="patch_19">
    <path d="M 100.8 261.434483 
L 987.84 261.434483 
" style="fill: none; stroke: #bcbcbc; stroke-width: 0.8; stroke-linejoin: miter; stroke-linecap: square"/>
   </g>
  </g>
  <g id="axes_4">
   <g id="patch_20">
    <path d="M 100.8 465.442759 
L 987.84 465.442759 
L 987.84 372.711724 
L 100.8 372.711724 
z
" style="fill: #eeeeee"/>
   </g>
   <g id="matplotlib.axis_7">
    <g id="xtick_19">
     <g id="line2d_54">
      <path d="M 141.12 465.442759 
L 141.12 372.711724 
" clip-path="url(#p64a229b033)" style="fill: none; stroke-dasharray: 1.85,0.8; stroke-dashoffset: 0; stroke: #b2b2b2; stroke-width: 0.5"/>
     </g>
     <g id="line2d_55">
      <g>
       <use xlink:href="#m0d795f6cd7" x="141.12" y="465.442759" style="stroke: #000000; stroke-width: 0.8"/>
      </g>
     </g>
    </g>
    <g id="xtick_20">
     <g id="line2d_56">
      <path d="M 302.4 465.442759 
L 302.4 372.711724 
" clip-path="url(#p64a229b033)" style="fill: none; stroke-dasharray: 1.85,0.8; stroke-dashoffset: 0; stroke: #b2b2b2; stroke-width: 0.5"/>
     </g>
     <g id="line2d_57">
      <g>
       <use xlink:href="#m0d795f6cd7" x="302.4" y="465.442759" style="stroke: #000000; stroke-width: 0.8"/>
      </g>
     </g>
    </g>
    <g id="xtick_21">
     <g id="line2d_58">
      <path d="M 463.68 465.442759 
L 463.68 372.711724 
" clip-path="url(#p64a229b033)" style="fill: none; stroke-dasharray: 1.85,0.8; stroke-dashoffset: 0; stroke: #b2b2b2; stroke-width: 0.5"/>
     </g>
     <g id="line2d_59">
      <g>
       <use xlink:href="#m0d795f6cd7" x="463.68" y="465.442759" style="stroke: #000000; stroke-width: 0.8"/>
      </g>
     </g>
    </g>
    <g id="xtick_22">
     <g id="line2d_60">
      <path d="M 624.96 465.442759 
L 624.96 372.711724 
" clip-path="url(#p64a229b033)" style="fill: none; stroke-dasharray: 1.85,0.8; stroke-dashoffset: 0; stroke: #b2b2b2; stroke-width: 0.5"/>
     </g>
     <g id="line2d_61">
      <g>
       <use xlink:href="#m0d795f6cd7" x="624.96" y="465.442759" style="stroke: #000000; stroke-width: 0.8"/>
      </g>
     </g>
    </g>
    <g id="xtick_23">
     <g id="line2d_62">
      <path d="M 786.24 465.442759 
L 786.24 372.711724 
" clip-path="url(#p64a229b033)" style="fill: none; stroke-dasharray: 1.85,0.8; stroke-dashoffset: 0; stroke: #b2b2b2; stroke-width: 0.5"/>
     </g>
     <g id="line2d_63">
      <g>
       <use xlink:href="#m0d795f6cd7" x="786.24" y="465.442759" style="stroke: #000000; stroke-width: 0.8"/>
      </g>
     </g>
    </g>
    <g id="xtick_24">
     <g id="line2d_64">
      <path d="M 947.52 465.442759 
L 947.52 372.711724 
" clip-path="url(#p64a229b033)" style="fill: none; stroke-dasharray: 1.85,0.8; stroke-dashoffset: 0; stroke: #b2b2b2; stroke-width: 0.5"/>
     </g>
     <g id="line2d_65">
      <g>
       <use xlink:href="#m0d795f6cd7" x="947.52" y="465.442759" style="stroke: #000000; stroke-width: 0.8"/>
      </g>
     </g>
    </g>
   </g>
   <g id="matplotlib.axis_8">
    <g id="ytick_8">
     <g id="line2d_66">
      <path d="M 100.8 440.75856 
L 987.84 440.75856 
" clip-path="url(#p64a229b033)" style="fill: none; stroke-dasharray: 1.85,0.8; stroke-dashoffset: 0; stroke: #b2b2b2; stroke-width: 0.5"/>
     </g>
     <g id="line2d_67">
      <g>
       <use xlink:href="#m757505ac9c" x="100.8" y="440.75856" style="stroke: #000000; stroke-width: 0.8"/>
      </g>
     </g>
     <g id="text_11">
      <!-- 0 V -->
      <g transform="translate(74.36625 446.077466) scale(0.14 -0.14)">
       <use xlink:href="#DejaVuSans-30"/>
       <use xlink:href="#DejaVuSans-20" x="63.623047"/>
       <use xlink:href="#DejaVuSans-56" x="95.410156"/>
      </g>
     </g>
    </g>
    <g id="ytick_9">
     <g id="line2d_68">
      <path d="M 100.8 404.762514 
L 987.84 404.762514 
" clip-path="url(#p64a229b033)" style="fill: none; stroke-dasharray: 1.85,0.8; stroke-dashoffset: 0; stroke: #b2b2b2; stroke-width: 0.5"/>
     </g>
     <g id="line2d_69">
      <g>
       <use xlink:href="#m757505ac9c" x="100.8" y="404.762514" style="stroke: #000000; stroke-width: 0.8"/>
      </g>
     </g>
     <g id="text_12">
      <!-- 1 V -->
      <g transform="translate(74.36625 410.08142) scale(0.14 -0.14)">
       <use xlink:href="#DejaVuSans-31"/>
       <use xlink:href="#DejaVuSans-20" x="63.623047"/>
       <use xlink:href="#DejaVuSans-56" x="95.410156"/>
      </g>
     </g>
    </g>
    <g id="text_13">
     <g id="patch_21">
      <path d="M 34.8768 454.693023 
L 34.8768 383.46146 
L 11.247425 383.46146 
L 11.247425 454.693023 
z
" style="fill: #ffff00; opacity: 0.2; stroke: #eeeeee; stroke-width: 0.5; stroke-linejoin: miter"/>
     </g>
     <!-- DFF OUT -->
     <g transform="translate(26.925238 449.653023) rotate(-90) scale(0.14 -0.14)">
      <defs>
       <path id="DejaVuSans-4f" d="M 2522 4238 
Q 1834 4238 1429 3725 
Q 1025 3213 1025 2328 
Q 1025 1447 1429 934 
Q 1834 422 2522 422 
Q 3209 422 3611 934 
Q 4013 1447 4013 2328 
Q 4013 3213 3611 3725 
Q 3209 4238 2522 4238 
z
M 2522 4750 
Q 3503 4750 4090 4092 
Q 4678 3434 4678 2328 
Q 4678 1225 4090 567 
Q 3503 -91 2522 -91 
Q 1538 -91 948 565 
Q 359 1222 359 2328 
Q 359 3434 948 4092 
Q 1538 4750 2522 4750 
z
" transform="scale(0.015625)"/>
       <path id="DejaVuSans-54" d="M -19 4666 
L 3928 4666 
L 3928 4134 
L 2272 4134 
L 2272 0 
L 1638 0 
L 1638 4134 
L -19 4134 
L -19 4666 
z
" transform="scale(0.015625)"/>
      </defs>
      <use xlink:href="#DejaVuSans-44"/>
      <use xlink:href="#DejaVuSans-46" x="77.001953"/>
      <use xlink:href="#DejaVuSans-46" x="134.521484"/>
      <use xlink:href="#DejaVuSans-20" x="192.041016"/>
      <use xlink:href="#DejaVuSans-4f" x="223.828125"/>
      <use xlink:href="#DejaVuSans-55" x="302.539062"/>
      <use xlink:href="#DejaVuSans-54" x="375.732422"/>
     </g>
    </g>
   </g>
   <g id="line2d_70">
    <path d="M 141.12 413.598463 
L 173.408256 413.642378 
L 173.440512 415.132615 
L 173.601792 440.760757 
L 174.1824 440.757215 
L 185.439744 440.757597 
L 254.048256 440.759108 
L 254.080512 440.903005 
L 254.112768 440.664981 
L 254.306304 437.150676 
L 254.628864 436.343285 
L 254.693376 435.943729 
L 255.14496 429.637221 
L 255.370752 414.81477 
L 255.596544 397.912466 
L 255.757824 397.617299 
L 255.983616 397.559705 
L 257.015808 397.563304 
L 295.755264 397.635297 
L 296.239104 399.964241 
L 296.59392 399.381105 
L 297.980928 397.851273 
L 299.65824 397.588502 
L 334.688256 397.577703 
L 334.720512 397.473314 
L 334.752768 398.002456 
L 334.785024 400.619369 
L 334.914048 440.743804 
L 334.97856 440.712125 
L 335.13984 440.751016 
L 335.559168 440.757829 
L 370.1376 440.75757 
L 389.587968 440.856815 
L 390.265344 441.386835 
L 391.136256 441.746471 
L 392.23296 441.946033 
L 394.071552 442.026341 
L 398.329344 441.931095 
L 400.103424 441.720302 
L 400.716288 441.441225 
L 401.071104 441.034365 
L 401.329152 440.347449 
L 401.522688 439.219405 
L 401.716224 436.680928 
L 402.23232 428.516665 
L 402.361344 428.46663 
L 402.651648 429.058405 
L 403.264512 431.145456 
L 405.6192 440.218331 
L 405.651456 439.811612 
L 405.683712 439.950917 
L 405.844992 441.109496 
L 406.812672 444.383722 
L 407.006208 444.889106 
L 407.07072 444.75952 
L 407.135232 444.844831 
L 407.232 445.285063 
L 407.264256 445.076646 
L 407.328768 445.264185 
L 407.909376 446.94808 
L 409.16736 449.245348 
L 409.32864 449.852601 
L 409.747968 450.745663 
L 409.81248 450.631915 
L 409.844736 450.718306 
L 409.97376 451.239889 
L 410.006016 451.004475 
L 410.038272 451.379553 
L 410.070528 451.177615 
L 410.102784 451.199933 
L 410.29632 451.884938 
L 410.328576 451.870539 
L 410.425344 452.026402 
L 410.586624 452.544385 
L 411.005952 453.372294 
L 411.038208 453.340978 
L 411.070464 453.309661 
L 411.10272 453.361136 
L 411.264 453.769331 
L 411.42528 454.239079 
L 411.457536 454.038581 
L 411.522048 454.302072 
L 411.74784 454.758862 
L 411.941376 455.259927 
L 414.81216 460.546666 
L 415.296 461.193875 
L 415.425024 461.192076 
L 415.61856 461.016415 
L 416.553984 459.543457 
L 416.715264 459.109344 
L 417.360384 458.164088 
L 417.424896 457.674902 
L 417.521664 457.728536 
L 417.618432 457.855602 
L 417.682944 457.753373 
L 418.84416 456.245499 
L 418.876416 456.401362 
L 418.908672 456.168467 
L 419.392512 455.753793 
L 420.005376 455.194414 
L 420.231168 454.953601 
L 420.392448 454.623157 
L 420.585984 454.371905 
L 420.61824 454.450736 
L 420.650496 454.267156 
L 420.682752 454.267156 
L 420.715008 454.41258 
L 420.747264 454.193724 
L 421.26336 453.712817 
L 421.295616 453.896037 
L 421.327872 453.633626 
L 421.360128 453.806767 
L 421.521408 453.49972 
L 421.553664 453.538596 
L 421.58592 453.589351 
L 421.618176 453.472723 
L 422.198784 453.038251 
L 422.779392 452.285934 
L 422.87616 452.132231 
L 422.908416 452.305012 
L 422.940672 452.052679 
L 422.972928 452.021723 
L 423.005184 452.188025 
L 423.03744 452.174706 
L 423.166464 451.86586 
L 423.19872 451.8619 
L 423.263232 451.745273 
L 423.295488 451.877739 
L 423.327744 451.95153 
L 423.36 451.758952 
L 423.392256 451.905456 
L 423.553536 451.447226 
L 423.585792 451.432827 
L 423.618048 451.688039 
L 423.68256 451.357236 
L 423.714816 451.602369 
L 423.972864 451.199933 
L 424.00512 451.324119 
L 424.037376 451.04767 
L 424.230912 450.982157 
L 424.456704 450.835653 
L 424.779264 450.613197 
L 425.198592 450.275555 
L 425.61792 449.524677 
L 426.004992 449.120081 
L 426.037248 449.350816 
L 426.10176 449.31482 
L 426.198528 448.984016 
L 426.230784 449.280624 
L 426.26304 448.910225 
L 426.295296 449.171196 
L 426.327552 449.121521 
L 426.456576 448.728804 
L 426.714624 448.696408 
L 426.811392 448.539825 
L 426.843648 448.550264 
L 427.004928 448.592379 
L 427.133952 448.383962 
L 428.166144 447.533736 
L 428.262912 447.22417 
L 428.295168 447.277084 
L 428.327424 447.439786 
L 428.35968 447.161897 
L 428.52096 446.902005 
L 428.553216 447.22525 
L 428.617728 446.797977 
L 428.649984 447.094944 
L 428.779008 446.67235 
L 428.908032 446.539885 
L 428.940288 446.904885 
L 429.0048 446.634914 
L 429.069312 446.371063 
L 429.101568 446.772779 
L 429.16608 446.483731 
L 429.198336 446.285393 
L 429.230592 446.67595 
L 429.262848 446.333628 
L 429.295104 446.508568 
L 429.359616 446.257676 
L 429.424128 446.515408 
L 429.456384 446.231759 
L 429.48864 446.454214 
L 429.682176 446.005344 
L 430.13376 445.844801 
L 430.45632 445.721335 
L 431.294976 445.030211 
L 431.811072 444.564062 
L 431.875584 444.052342 
L 431.940096 444.156119 
L 432.004608 443.938163 
L 432.036864 444.370403 
L 432.101376 443.854976 
L 432.165888 443.790723 
L 432.294912 444.017642 
L 432.359424 443.613298 
L 432.39168 443.670892 
L 432.423936 444.040931 
L 432.456192 443.519025 
L 432.488448 443.607035 
L 432.520704 443.76387 
L 432.55296 443.487996 
L 432.585216 443.497823 
L 432.617472 443.871894 
L 432.649728 443.43249 
L 432.681984 443.438862 
L 432.71424 443.426983 
L 432.746496 443.737161 
L 432.811008 443.72521 
L 432.972288 443.355207 
L 433.004544 443.436702 
L 433.069056 443.396674 
L 433.488384 443.160576 
L 433.907712 442.807023 
L 434.6496 442.109312 
L 434.843136 441.523836 
L 434.907648 441.792078 
L 434.939904 441.613358 
L 435.036672 441.088586 
L 435.068928 441.513361 
L 435.165696 441.339788 
L 435.197952 441.309983 
L 435.262464 440.813227 
L 435.326976 440.917338 
L 435.359232 440.783433 
L 435.391488 440.99906 
L 435.488256 440.909387 
L 435.649536 440.691488 
L 436.455936 439.408744 
L 436.617216 438.54016 
L 436.649472 438.978915 
L 436.713984 438.3947 
L 436.843008 438.359567 
L 436.90752 438.348985 
L 436.939776 438.543507 
L 437.004288 438.425368 
L 437.101056 438.322312 
L 438.068736 436.717284 
L 438.19776 435.921411 
L 438.262272 436.003122 
L 438.326784 435.938689 
L 438.423552 436.032279 
L 438.488064 435.938329 
L 439.552512 434.02046 
L 439.584768 434.086693 
L 439.617024 433.519395 
L 439.713792 433.617664 
L 439.746048 433.815283 
L 439.842816 433.724932 
L 440.068608 433.265263 
L 440.229888 433.093922 
L 440.713728 432.335485 
L 440.810496 432.01872 
L 440.875008 432.078473 
L 441.068544 431.713473 
L 441.326592 431.38303 
L 441.616896 430.953237 
L 441.778176 430.406457 
L 442.036224 429.997902 
L 442.06848 430.19552 
L 442.100736 430.10481 
L 442.22976 429.842759 
L 442.262016 429.82908 
L 442.294272 429.937429 
L 442.326528 429.73873 
L 442.358784 429.725412 
L 442.39104 429.855717 
L 442.455552 429.727212 
L 443.229696 428.512345 
L 443.390976 428.199899 
L 443.52 427.498696 
L 443.616768 427.321596 
L 443.649024 427.530013 
L 443.713536 427.221167 
L 443.939328 426.852927 
L 444.552192 425.414885 
L 444.745728 424.893663 
L 445.197312 424.080512 
L 445.29408 424.00348 
L 445.390848 423.296878 
L 445.423104 423.64316 
L 445.648896 423.410985 
L 446.616576 421.745808 
L 446.874624 421.433723 
L 446.971392 420.848067 
L 447.003648 420.883343 
L 447.197184 420.928338 
L 447.39072 420.655848 
L 447.616512 420.195459 
L 448.713216 418.649068 
L 448.745472 418.680025 
L 448.874496 418.566278 
L 449.132544 418.18364 
L 449.197056 418.27435 
L 449.390592 418.422653 
L 449.48736 418.932717 
L 449.551872 419.802022 
L 449.777664 435.84258 
L 449.906688 440.199685 
L 450.164736 440.271497 
L 453.583872 440.38978 
L 454.067712 440.317392 
L 454.745088 439.785911 
L 455.616 439.431458 
L 456.841728 439.226424 
L 458.8416 439.174662 
L 464.067072 439.33776 
L 473.67936 439.602835 
L 475.679232 439.557192 
L 479.840256 439.711327 
L 480.582144 440.321496 
L 481.4208 440.693112 
L 482.582016 440.93691 
L 484.452864 441.066387 
L 489.129984 441.0926 
L 495.968256 441.060606 
L 496.000512 441.318118 
L 496.290816 430.19948 
L 496.452096 428.081832 
L 496.613376 421.105439 
L 496.774656 405.322972 
L 497.06496 376.944769 
L 497.22624 376.969966 
L 498.161664 377.272333 
L 498.51648 377.380321 
L 499.935744 377.963457 
L 500.387328 378.183033 
L 501.161472 378.550193 
L 501.645312 378.791366 
L 504.290304 380.083624 
L 504.741888 380.3032 
L 505.77408 380.76035 
L 506.999808 381.321888 
L 508.19328 381.836632 
L 508.741632 382.077805 
L 509.96736 382.603348 
L 512.54784 383.636434 
L 515.676672 384.799106 
L 516.805632 385.184264 
L 525.837312 388.099944 
L 526.192128 388.204332 
L 526.837248 388.373514 
L 528.83712 388.927853 
L 529.288704 389.035841 
L 530.804736 389.431798 
L 531.224064 389.536186 
L 532.417536 389.827754 
L 532.965888 389.935742 
L 534.15936 390.223711 
L 534.707712 390.331699 
L 535.804416 390.583671 
L 536.256 390.68806 
L 540.481536 391.519568 
L 541.0944 391.627556 
L 543.67488 392.095505 
L 544.287744 392.203493 
L 546.061824 392.491462 
L 546.803712 392.59945 
L 548.416512 392.851422 
L 549.126144 392.95941 
L 550.416384 393.13939 
L 551.25504 393.247379 
L 552.54528 393.427359 
L 553.383936 393.535347 
L 554.512896 393.679331 
L 555.512832 393.787319 
L 556.641792 393.931303 
L 557.641728 394.039292 
L 558.609408 394.14728 
L 559.673856 394.255268 
L 560.641536 394.363256 
L 561.802752 394.471244 
L 562.770432 394.579232 
L 564.125184 394.68722 
L 565.092864 394.795209 
L 566.544384 394.903197 
L 567.350784 394.975189 
L 568.770048 395.083177 
L 569.576448 395.155169 
L 571.189248 395.263157 
L 571.995648 395.335149 
L 573.801984 395.443137 
L 574.608384 395.515129 
L 576.608256 395.60512 
L 576.640512 395.846293 
L 576.705024 395.623118 
L 576.89856 395.651914 
L 578.414592 395.749104 
L 578.704896 395.767102 
L 580.962816 395.87509 
L 581.607936 395.907486 
L 583.575552 396.019074 
L 584.285184 396.051471 
L 586.188288 396.159459 
L 587.510784 396.195455 
L 589.671936 396.303443 
L 590.994432 396.339439 
L 593.542656 396.447427 
L 594.897408 396.487023 
L 595.60704 396.519419 
L 598.768128 396.623808 
L 599.284224 396.627407 
L 602.832384 396.735395 
L 604.187136 396.774991 
L 605.154816 396.771391 
L 605.6064 396.807387 
L 609.993216 396.911776 
L 610.509312 396.918975 
L 616.992768 397.001766 
L 617.121792 397.030563 
L 617.573376 397.034163 
L 617.992704 397.062959 
L 627.70176 397.167348 
L 628.153344 397.203344 
L 657.248256 397.217742 
L 657.280512 397.340129 
L 657.345024 397.174547 
L 657.635328 397.196145 
L 737.888256 397.199744 
L 737.920512 397.383324 
L 737.985024 397.199744 
L 738.17856 397.181746 
L 739.372032 397.203344 
L 818.528256 397.199744 
L 818.560512 397.383324 
L 818.625024 397.199744 
L 818.81856 397.181746 
L 820.012032 397.203344 
L 899.168256 397.199744 
L 899.200512 397.383324 
L 899.265024 397.199744 
L 899.45856 397.181746 
L 900.652032 397.203344 
L 947.52 397.203344 
L 947.52 397.203344 
" clip-path="url(#p64a229b033)" style="fill: none; stroke: #ff00ff; stroke-width: 2; stroke-linecap: square"/>
   </g>
   <g id="patch_22">
    <path d="M 100.8 465.442759 
L 100.8 372.711724 
" style="fill: none; stroke: #bcbcbc; stroke-width: 0.8; stroke-linejoin: miter; stroke-linecap: square"/>
   </g>
   <g id="patch_23">
    <path d="M 987.84 465.442759 
L 987.84 372.711724 
" style="fill: none; stroke: #bcbcbc; stroke-width: 0.8; stroke-linejoin: miter; stroke-linecap: square"/>
   </g>
   <g id="patch_24">
    <path d="M 100.8 465.442759 
L 987.84 465.442759 
" style="fill: none; stroke: #bcbcbc; stroke-width: 0.8; stroke-linejoin: miter; stroke-linecap: square"/>
   </g>
   <g id="patch_25">
    <path d="M 100.8 372.711724 
L 987.84 372.711724 
" style="fill: none; stroke: #bcbcbc; stroke-width: 0.8; stroke-linejoin: miter; stroke-linecap: square"/>
   </g>
  </g>
  <g id="axes_5">
   <g id="patch_26">
    <path d="M 100.8 576.72 
L 987.84 576.72 
L 987.84 483.988966 
L 100.8 483.988966 
z
" style="fill: #eeeeee"/>
   </g>
   <g id="matplotlib.axis_9">
    <g id="xtick_25">
     <g id="line2d_71">
      <path d="M 141.12 576.72 
L 141.12 483.988966 
" clip-path="url(#p7e6e74f3b4)" style="fill: none; stroke-dasharray: 1.85,0.8; stroke-dashoffset: 0; stroke: #b2b2b2; stroke-width: 0.5"/>
     </g>
     <g id="line2d_72">
      <g>
       <use xlink:href="#m0d795f6cd7" x="141.12" y="576.72" style="stroke: #000000; stroke-width: 0.8"/>
      </g>
     </g>
     <g id="text_14">
      <!-- 0 s -->
      <g transform="translate(130.795 590.857813) scale(0.14 -0.14)">
       <defs>
        <path id="DejaVuSans-73" d="M 2834 3397 
L 2834 2853 
Q 2591 2978 2328 3040 
Q 2066 3103 1784 3103 
Q 1356 3103 1142 2972 
Q 928 2841 928 2578 
Q 928 2378 1081 2264 
Q 1234 2150 1697 2047 
L 1894 2003 
Q 2506 1872 2764 1633 
Q 3022 1394 3022 966 
Q 3022 478 2636 193 
Q 2250 -91 1575 -91 
Q 1294 -91 989 -36 
Q 684 19 347 128 
L 347 722 
Q 666 556 975 473 
Q 1284 391 1588 391 
Q 1994 391 2212 530 
Q 2431 669 2431 922 
Q 2431 1156 2273 1281 
Q 2116 1406 1581 1522 
L 1381 1569 
Q 847 1681 609 1914 
Q 372 2147 372 2553 
Q 372 3047 722 3315 
Q 1072 3584 1716 3584 
Q 2034 3584 2315 3537 
Q 2597 3491 2834 3397 
z
" transform="scale(0.015625)"/>
       </defs>
       <use xlink:href="#DejaVuSans-30"/>
       <use xlink:href="#DejaVuSans-20" x="63.623047"/>
       <use xlink:href="#DejaVuSans-73" x="95.410156"/>
      </g>
     </g>
    </g>
    <g id="xtick_26">
     <g id="line2d_73">
      <path d="M 302.4 576.72 
L 302.4 483.988966 
" clip-path="url(#p7e6e74f3b4)" style="fill: none; stroke-dasharray: 1.85,0.8; stroke-dashoffset: 0; stroke: #b2b2b2; stroke-width: 0.5"/>
     </g>
     <g id="line2d_74">
      <g>
       <use xlink:href="#m0d795f6cd7" x="302.4" y="576.72" style="stroke: #000000; stroke-width: 0.8"/>
      </g>
     </g>
     <g id="text_15">
      <!-- 50 ns -->
      <g transform="translate(283.185 590.857813) scale(0.14 -0.14)">
       <defs>
        <path id="DejaVuSans-35" d="M 691 4666 
L 3169 4666 
L 3169 4134 
L 1269 4134 
L 1269 2991 
Q 1406 3038 1543 3061 
Q 1681 3084 1819 3084 
Q 2600 3084 3056 2656 
Q 3513 2228 3513 1497 
Q 3513 744 3044 326 
Q 2575 -91 1722 -91 
Q 1428 -91 1123 -41 
Q 819 9 494 109 
L 494 744 
Q 775 591 1075 516 
Q 1375 441 1709 441 
Q 2250 441 2565 725 
Q 2881 1009 2881 1497 
Q 2881 1984 2565 2268 
Q 2250 2553 1709 2553 
Q 1456 2553 1204 2497 
Q 953 2441 691 2322 
L 691 4666 
z
" transform="scale(0.015625)"/>
        <path id="DejaVuSans-6e" d="M 3513 2113 
L 3513 0 
L 2938 0 
L 2938 2094 
Q 2938 2591 2744 2837 
Q 2550 3084 2163 3084 
Q 1697 3084 1428 2787 
Q 1159 2491 1159 1978 
L 1159 0 
L 581 0 
L 581 3500 
L 1159 3500 
L 1159 2956 
Q 1366 3272 1645 3428 
Q 1925 3584 2291 3584 
Q 2894 3584 3203 3211 
Q 3513 2838 3513 2113 
z
" transform="scale(0.015625)"/>
       </defs>
       <use xlink:href="#DejaVuSans-35"/>
       <use xlink:href="#DejaVuSans-30" x="63.623047"/>
       <use xlink:href="#DejaVuSans-20" x="127.246094"/>
       <use xlink:href="#DejaVuSans-6e" x="159.033203"/>
       <use xlink:href="#DejaVuSans-73" x="222.412109"/>
      </g>
     </g>
    </g>
    <g id="xtick_27">
     <g id="line2d_75">
      <path d="M 463.68 576.72 
L 463.68 483.988966 
" clip-path="url(#p7e6e74f3b4)" style="fill: none; stroke-dasharray: 1.85,0.8; stroke-dashoffset: 0; stroke: #b2b2b2; stroke-width: 0.5"/>
     </g>
     <g id="line2d_76">
      <g>
       <use xlink:href="#m0d795f6cd7" x="463.68" y="576.72" style="stroke: #000000; stroke-width: 0.8"/>
      </g>
     </g>
     <g id="text_16">
      <!-- 100 ns -->
      <g transform="translate(440.01125 590.857813) scale(0.14 -0.14)">
       <use xlink:href="#DejaVuSans-31"/>
       <use xlink:href="#DejaVuSans-30" x="63.623047"/>
       <use xlink:href="#DejaVuSans-30" x="127.246094"/>
       <use xlink:href="#DejaVuSans-20" x="190.869141"/>
       <use xlink:href="#DejaVuSans-6e" x="222.65625"/>
       <use xlink:href="#DejaVuSans-73" x="286.035156"/>
      </g>
     </g>
    </g>
    <g id="xtick_28">
     <g id="line2d_77">
      <path d="M 624.96 576.72 
L 624.96 483.988966 
" clip-path="url(#p7e6e74f3b4)" style="fill: none; stroke-dasharray: 1.85,0.8; stroke-dashoffset: 0; stroke: #b2b2b2; stroke-width: 0.5"/>
     </g>
     <g id="line2d_78">
      <g>
       <use xlink:href="#m0d795f6cd7" x="624.96" y="576.72" style="stroke: #000000; stroke-width: 0.8"/>
      </g>
     </g>
     <g id="text_17">
      <!-- 150 ns -->
      <g transform="translate(601.29125 590.857813) scale(0.14 -0.14)">
       <use xlink:href="#DejaVuSans-31"/>
       <use xlink:href="#DejaVuSans-35" x="63.623047"/>
       <use xlink:href="#DejaVuSans-30" x="127.246094"/>
       <use xlink:href="#DejaVuSans-20" x="190.869141"/>
       <use xlink:href="#DejaVuSans-6e" x="222.65625"/>
       <use xlink:href="#DejaVuSans-73" x="286.035156"/>
      </g>
     </g>
    </g>
    <g id="xtick_29">
     <g id="line2d_79">
      <path d="M 786.24 576.72 
L 786.24 483.988966 
" clip-path="url(#p7e6e74f3b4)" style="fill: none; stroke-dasharray: 1.85,0.8; stroke-dashoffset: 0; stroke: #b2b2b2; stroke-width: 0.5"/>
     </g>
     <g id="line2d_80">
      <g>
       <use xlink:href="#m0d795f6cd7" x="786.24" y="576.72" style="stroke: #000000; stroke-width: 0.8"/>
      </g>
     </g>
     <g id="text_18">
      <!-- 200 ns -->
      <g transform="translate(762.57125 590.857813) scale(0.14 -0.14)">
       <use xlink:href="#DejaVuSans-32"/>
       <use xlink:href="#DejaVuSans-30" x="63.623047"/>
       <use xlink:href="#DejaVuSans-30" x="127.246094"/>
       <use xlink:href="#DejaVuSans-20" x="190.869141"/>
       <use xlink:href="#DejaVuSans-6e" x="222.65625"/>
       <use xlink:href="#DejaVuSans-73" x="286.035156"/>
      </g>
     </g>
    </g>
    <g id="xtick_30">
     <g id="line2d_81">
      <path d="M 947.52 576.72 
L 947.52 483.988966 
" clip-path="url(#p7e6e74f3b4)" style="fill: none; stroke-dasharray: 1.85,0.8; stroke-dashoffset: 0; stroke: #b2b2b2; stroke-width: 0.5"/>
     </g>
     <g id="line2d_82">
      <g>
       <use xlink:href="#m0d795f6cd7" x="947.52" y="576.72" style="stroke: #000000; stroke-width: 0.8"/>
      </g>
     </g>
     <g id="text_19">
      <!-- 250 ns -->
      <g transform="translate(923.85125 590.857813) scale(0.14 -0.14)">
       <use xlink:href="#DejaVuSans-32"/>
       <use xlink:href="#DejaVuSans-35" x="63.623047"/>
       <use xlink:href="#DejaVuSans-30" x="127.246094"/>
       <use xlink:href="#DejaVuSans-20" x="190.869141"/>
       <use xlink:href="#DejaVuSans-6e" x="222.65625"/>
       <use xlink:href="#DejaVuSans-73" x="286.035156"/>
      </g>
     </g>
    </g>
    <g id="text_20">
     <!-- Time -->
     <g transform="translate(527.192969 608.407187) scale(0.14 -0.14)">
      <defs>
       <path id="DejaVuSans-69" d="M 603 3500 
L 1178 3500 
L 1178 0 
L 603 0 
L 603 3500 
z
M 603 4863 
L 1178 4863 
L 1178 4134 
L 603 4134 
L 603 4863 
z
" transform="scale(0.015625)"/>
       <path id="DejaVuSans-6d" d="M 3328 2828 
Q 3544 3216 3844 3400 
Q 4144 3584 4550 3584 
Q 5097 3584 5394 3201 
Q 5691 2819 5691 2113 
L 5691 0 
L 5113 0 
L 5113 2094 
Q 5113 2597 4934 2840 
Q 4756 3084 4391 3084 
Q 3944 3084 3684 2787 
Q 3425 2491 3425 1978 
L 3425 0 
L 2847 0 
L 2847 2094 
Q 2847 2600 2669 2842 
Q 2491 3084 2119 3084 
Q 1678 3084 1418 2786 
Q 1159 2488 1159 1978 
L 1159 0 
L 581 0 
L 581 3500 
L 1159 3500 
L 1159 2956 
Q 1356 3278 1631 3431 
Q 1906 3584 2284 3584 
Q 2666 3584 2933 3390 
Q 3200 3197 3328 2828 
z
" transform="scale(0.015625)"/>
       <path id="DejaVuSans-65" d="M 3597 1894 
L 3597 1613 
L 953 1613 
Q 991 1019 1311 708 
Q 1631 397 2203 397 
Q 2534 397 2845 478 
Q 3156 559 3463 722 
L 3463 178 
Q 3153 47 2828 -22 
Q 2503 -91 2169 -91 
Q 1331 -91 842 396 
Q 353 884 353 1716 
Q 353 2575 817 3079 
Q 1281 3584 2069 3584 
Q 2775 3584 3186 3129 
Q 3597 2675 3597 1894 
z
M 3022 2063 
Q 3016 2534 2758 2815 
Q 2500 3097 2075 3097 
Q 1594 3097 1305 2825 
Q 1016 2553 972 2059 
L 3022 2063 
z
" transform="scale(0.015625)"/>
      </defs>
      <use xlink:href="#DejaVuSans-54"/>
      <use xlink:href="#DejaVuSans-69" x="57.958984"/>
      <use xlink:href="#DejaVuSans-6d" x="85.742188"/>
      <use xlink:href="#DejaVuSans-65" x="183.154297"/>
     </g>
    </g>
   </g>
   <g id="matplotlib.axis_10">
    <g id="ytick_10">
     <g id="line2d_83">
      <path d="M 100.8 569.737898 
L 987.84 569.737898 
" clip-path="url(#p7e6e74f3b4)" style="fill: none; stroke-dasharray: 1.85,0.8; stroke-dashoffset: 0; stroke: #b2b2b2; stroke-width: 0.5"/>
     </g>
     <g id="line2d_84">
      <g>
       <use xlink:href="#m757505ac9c" x="100.8" y="569.737898" style="stroke: #000000; stroke-width: 0.8"/>
      </g>
     </g>
     <g id="text_21">
      <!-- 0 V -->
      <g transform="translate(74.36625 575.056805) scale(0.14 -0.14)">
       <use xlink:href="#DejaVuSans-30"/>
       <use xlink:href="#DejaVuSans-20" x="63.623047"/>
       <use xlink:href="#DejaVuSans-56" x="95.410156"/>
      </g>
     </g>
    </g>
    <g id="ytick_11">
     <g id="line2d_85">
      <path d="M 100.8 535.84453 
L 987.84 535.84453 
" clip-path="url(#p7e6e74f3b4)" style="fill: none; stroke-dasharray: 1.85,0.8; stroke-dashoffset: 0; stroke: #b2b2b2; stroke-width: 0.5"/>
     </g>
     <g id="line2d_86">
      <g>
       <use xlink:href="#m757505ac9c" x="100.8" y="535.84453" style="stroke: #000000; stroke-width: 0.8"/>
      </g>
     </g>
     <g id="text_22">
      <!-- 500 mV -->
      <g transform="translate(42.914375 541.163437) scale(0.14 -0.14)">
       <use xlink:href="#DejaVuSans-35"/>
       <use xlink:href="#DejaVuSans-30" x="63.623047"/>
       <use xlink:href="#DejaVuSans-30" x="127.246094"/>
       <use xlink:href="#DejaVuSans-20" x="190.869141"/>
       <use xlink:href="#DejaVuSans-6d" x="222.65625"/>
       <use xlink:href="#DejaVuSans-56" x="320.068359"/>
      </g>
     </g>
    </g>
    <g id="ytick_12">
     <g id="line2d_87">
      <path d="M 100.8 501.951163 
L 987.84 501.951163 
" clip-path="url(#p7e6e74f3b4)" style="fill: none; stroke-dasharray: 1.85,0.8; stroke-dashoffset: 0; stroke: #b2b2b2; stroke-width: 0.5"/>
     </g>
     <g id="line2d_88">
      <g>
       <use xlink:href="#m757505ac9c" x="100.8" y="501.951163" style="stroke: #000000; stroke-width: 0.8"/>
      </g>
     </g>
     <g id="text_23">
      <!-- 1 V -->
      <g transform="translate(74.36625 507.270069) scale(0.14 -0.14)">
       <use xlink:href="#DejaVuSans-31"/>
       <use xlink:href="#DejaVuSans-20" x="63.623047"/>
       <use xlink:href="#DejaVuSans-56" x="95.410156"/>
      </g>
     </g>
    </g>
    <g id="text_24">
     <g id="patch_27">
      <path d="M 34.8768 554.329483 
L 34.8768 506.379483 
L 11.247425 506.379483 
L 11.247425 554.329483 
z
" style="fill: #ffff00; opacity: 0.2; stroke: #eeeeee; stroke-width: 0.5; stroke-linejoin: miter"/>
     </g>
     <!-- FOUT -->
     <g transform="translate(26.925238 549.289483) rotate(-90) scale(0.14 -0.14)">
      <use xlink:href="#DejaVuSans-46"/>
      <use xlink:href="#DejaVuSans-4f" x="57.519531"/>
      <use xlink:href="#DejaVuSans-55" x="136.230469"/>
      <use xlink:href="#DejaVuSans-54" x="209.423828"/>
     </g>
    </g>
   </g>
   <g id="line2d_89">
    <path d="M 141.12 488.393815 
L 173.472768 488.400594 
L 173.505024 488.204013 
L 173.569536 526.657394 
L 173.69856 572.504953 
L 173.730816 572.369108 
L 173.827584 567.828617 
L 173.892096 569.351799 
L 174.053376 570.057126 
L 174.117888 569.939259 
L 174.408192 569.483332 
L 174.440448 569.532932 
L 174.66624 569.721921 
L 176.182272 569.732147 
L 180.085248 569.753796 
L 193.568256 569.74419 
L 212.8896 569.73602 
L 255.30624 569.735711 
L 255.6288 488.285357 
L 255.854592 488.427709 
L 256.209408 488.387037 
L 334.849536 488.407373 
L 334.881792 492.623708 
L 335.043072 572.18283 
L 335.107584 570.254711 
L 335.172096 568.326579 
L 335.236608 568.859586 
L 335.365632 570.778018 
L 335.430144 570.404018 
L 335.591424 569.789374 
L 335.881728 569.64017 
L 336.559104 569.810146 
L 337.107456 569.738156 
L 349.9776 569.736214 
L 447.455232 569.809549 
L 447.487488 568.580643 
L 447.584256 525.04407 
L 447.745536 488.597176 
L 447.906816 488.400594 
L 448.455168 488.393815 
L 449.519616 488.393815 
L 449.584128 503.958328 
L 449.777664 571.959405 
L 449.842176 569.735336 
L 450.100224 569.736213 
L 496.516608 569.736221 
L 496.58112 557.412914 
L 496.90368 488.387037 
L 497.452032 488.393815 
L 947.52 488.393815 
L 947.52 488.393815 
" clip-path="url(#p7e6e74f3b4)" style="fill: none; stroke: #ff00ff; stroke-width: 2; stroke-linecap: square"/>
   </g>
   <g id="patch_28">
    <path d="M 100.8 576.72 
L 100.8 483.988966 
" style="fill: none; stroke: #bcbcbc; stroke-width: 0.8; stroke-linejoin: miter; stroke-linecap: square"/>
   </g>
   <g id="patch_29">
    <path d="M 987.84 576.72 
L 987.84 483.988966 
" style="fill: none; stroke: #bcbcbc; stroke-width: 0.8; stroke-linejoin: miter; stroke-linecap: square"/>
   </g>
   <g id="patch_30">
    <path d="M 100.8 576.72 
L 987.84 576.72 
" style="fill: none; stroke: #bcbcbc; stroke-width: 0.8; stroke-linejoin: miter; stroke-linecap: square"/>
   </g>
   <g id="patch_31">
    <path d="M 100.8 483.988966 
L 987.84 483.988966 
" style="fill: none; stroke: #bcbcbc; stroke-width: 0.8; stroke-linejoin: miter; stroke-linecap: square"/>
   </g>
  </g>
  <g id="axes_6">
   <g id="patch_32">
    <path d="M 201.6 628.56 
L 856.8 628.56 
L 856.8 615.6 
L 201.6 615.6 
z
" clip-path="url(#p490cfaf131)" style="fill: #d3d3d3"/>
   </g>
   <g id="patch_33">
    <path d="M 201.6 628.56 
L 487.08 628.56 
L 487.08 615.6 
L 201.6 615.6 
z
" clip-path="url(#p490cfaf131)" style="fill: #0000ff"/>
   </g>
   <g id="line2d_90">
    <path d="M 201.6 635.04 
L 201.6 609.12 
" clip-path="url(#p981345686e)" style="fill: none; stroke: #ff0000; stroke-linecap: square"/>
   </g>
   <g id="line2d_91">
    <defs>
     <path id="md682fdf857" d="M 0 5 
C 1.326016 5 2.597899 4.473168 3.535534 3.535534 
C 4.473168 2.597899 5 1.326016 5 0 
C 5 -1.326016 4.473168 -2.597899 3.535534 -3.535534 
C 2.597899 -4.473168 1.326016 -5 0 -5 
C -1.326016 -5 -2.597899 -4.473168 -3.535534 -3.535534 
C -4.473168 -2.597899 -5 -1.326016 -5 0 
C -5 1.326016 -4.473168 2.597899 -3.535534 3.535534 
C -2.597899 4.473168 -1.326016 5 0 5 
z
" style="stroke: #bfbfbf"/>
    </defs>
    <g>
     <use xlink:href="#md682fdf857" x="487.08" y="622.08" style="fill: #ffffff; stroke: #bfbfbf"/>
    </g>
   </g>
   <g id="text_25">
    <!-- #Sweep -->
    <g transform="translate(138.622875 625.39125) scale(0.12 -0.12)">
     <defs>
      <path id="DejaVuSans-23" d="M 3272 2816 
L 2363 2816 
L 2100 1772 
L 3016 1772 
L 3272 2816 
z
M 2803 4594 
L 2478 3297 
L 3391 3297 
L 3719 4594 
L 4219 4594 
L 3897 3297 
L 4872 3297 
L 4872 2816 
L 3775 2816 
L 3519 1772 
L 4513 1772 
L 4513 1294 
L 3397 1294 
L 3072 0 
L 2572 0 
L 2894 1294 
L 1978 1294 
L 1656 0 
L 1153 0 
L 1478 1294 
L 494 1294 
L 494 1772 
L 1594 1772 
L 1856 2816 
L 850 2816 
L 850 3297 
L 1978 3297 
L 2297 4594 
L 2803 4594 
z
" transform="scale(0.015625)"/>
      <path id="DejaVuSans-77" d="M 269 3500 
L 844 3500 
L 1563 769 
L 2278 3500 
L 2956 3500 
L 3675 769 
L 4391 3500 
L 4966 3500 
L 4050 0 
L 3372 0 
L 2619 2869 
L 1863 0 
L 1184 0 
L 269 3500 
z
" transform="scale(0.015625)"/>
      <path id="DejaVuSans-70" d="M 1159 525 
L 1159 -1331 
L 581 -1331 
L 581 3500 
L 1159 3500 
L 1159 2969 
Q 1341 3281 1617 3432 
Q 1894 3584 2278 3584 
Q 2916 3584 3314 3078 
Q 3713 2572 3713 1747 
Q 3713 922 3314 415 
Q 2916 -91 2278 -91 
Q 1894 -91 1617 61 
Q 1341 213 1159 525 
z
M 3116 1747 
Q 3116 2381 2855 2742 
Q 2594 3103 2138 3103 
Q 1681 3103 1420 2742 
Q 1159 2381 1159 1747 
Q 1159 1113 1420 752 
Q 1681 391 2138 391 
Q 2594 391 2855 752 
Q 3116 1113 3116 1747 
z
" transform="scale(0.015625)"/>
     </defs>
     <use xlink:href="#DejaVuSans-23"/>
     <use xlink:href="#DejaVuSans-53" x="83.789062"/>
     <use xlink:href="#DejaVuSans-77" x="147.265625"/>
     <use xlink:href="#DejaVuSans-65" x="229.052734"/>
     <use xlink:href="#DejaVuSans-65" x="290.576172"/>
     <use xlink:href="#DejaVuSans-70" x="352.099609"/>
    </g>
   </g>
   <g id="text_26">
    <!-- $\mathdefault{61}$ -->
    <g transform="translate(869.904 625.39125) scale(0.12 -0.12)">
     <defs>
      <path id="DejaVuSans-36" d="M 2113 2584 
Q 1688 2584 1439 2293 
Q 1191 2003 1191 1497 
Q 1191 994 1439 701 
Q 1688 409 2113 409 
Q 2538 409 2786 701 
Q 3034 994 3034 1497 
Q 3034 2003 2786 2293 
Q 2538 2584 2113 2584 
z
M 3366 4563 
L 3366 3988 
Q 3128 4100 2886 4159 
Q 2644 4219 2406 4219 
Q 1781 4219 1451 3797 
Q 1122 3375 1075 2522 
Q 1259 2794 1537 2939 
Q 1816 3084 2150 3084 
Q 2853 3084 3261 2657 
Q 3669 2231 3669 1497 
Q 3669 778 3244 343 
Q 2819 -91 2113 -91 
Q 1303 -91 875 529 
Q 447 1150 447 2328 
Q 447 3434 972 4092 
Q 1497 4750 2381 4750 
Q 2619 4750 2861 4703 
Q 3103 4656 3366 4563 
z
" transform="scale(0.015625)"/>
     </defs>
     <use xlink:href="#DejaVuSans-36" transform="translate(0 0.78125)"/>
     <use xlink:href="#DejaVuSans-31" transform="translate(63.623047 0.78125)"/>
    </g>
   </g>
  </g>
  <g id="text_27">
   <!-- DFF under BBI sweep analysis (Sweep = 71E-9) -->
   <g transform="translate(313.34625 25.1175) scale(0.16 -0.16)">
    <defs>
     <path id="DejaVuSans-75" d="M 544 1381 
L 544 3500 
L 1119 3500 
L 1119 1403 
Q 1119 906 1312 657 
Q 1506 409 1894 409 
Q 2359 409 2629 706 
Q 2900 1003 2900 1516 
L 2900 3500 
L 3475 3500 
L 3475 0 
L 2900 0 
L 2900 538 
Q 2691 219 2414 64 
Q 2138 -91 1772 -91 
Q 1169 -91 856 284 
Q 544 659 544 1381 
z
M 1991 3584 
L 1991 3584 
z
" transform="scale(0.015625)"/>
     <path id="DejaVuSans-64" d="M 2906 2969 
L 2906 4863 
L 3481 4863 
L 3481 0 
L 2906 0 
L 2906 525 
Q 2725 213 2448 61 
Q 2172 -91 1784 -91 
Q 1150 -91 751 415 
Q 353 922 353 1747 
Q 353 2572 751 3078 
Q 1150 3584 1784 3584 
Q 2172 3584 2448 3432 
Q 2725 3281 2906 2969 
z
M 947 1747 
Q 947 1113 1208 752 
Q 1469 391 1925 391 
Q 2381 391 2643 752 
Q 2906 1113 2906 1747 
Q 2906 2381 2643 2742 
Q 2381 3103 1925 3103 
Q 1469 3103 1208 2742 
Q 947 2381 947 1747 
z
" transform="scale(0.015625)"/>
     <path id="DejaVuSans-72" d="M 2631 2963 
Q 2534 3019 2420 3045 
Q 2306 3072 2169 3072 
Q 1681 3072 1420 2755 
Q 1159 2438 1159 1844 
L 1159 0 
L 581 0 
L 581 3500 
L 1159 3500 
L 1159 2956 
Q 1341 3275 1631 3429 
Q 1922 3584 2338 3584 
Q 2397 3584 2469 3576 
Q 2541 3569 2628 3553 
L 2631 2963 
z
" transform="scale(0.015625)"/>
     <path id="DejaVuSans-61" d="M 2194 1759 
Q 1497 1759 1228 1600 
Q 959 1441 959 1056 
Q 959 750 1161 570 
Q 1363 391 1709 391 
Q 2188 391 2477 730 
Q 2766 1069 2766 1631 
L 2766 1759 
L 2194 1759 
z
M 3341 1997 
L 3341 0 
L 2766 0 
L 2766 531 
Q 2569 213 2275 61 
Q 1981 -91 1556 -91 
Q 1019 -91 701 211 
Q 384 513 384 1019 
Q 384 1609 779 1909 
Q 1175 2209 1959 2209 
L 2766 2209 
L 2766 2266 
Q 2766 2663 2505 2880 
Q 2244 3097 1772 3097 
Q 1472 3097 1187 3025 
Q 903 2953 641 2809 
L 641 3341 
Q 956 3463 1253 3523 
Q 1550 3584 1831 3584 
Q 2591 3584 2966 3190 
Q 3341 2797 3341 1997 
z
" transform="scale(0.015625)"/>
     <path id="DejaVuSans-6c" d="M 603 4863 
L 1178 4863 
L 1178 0 
L 603 0 
L 603 4863 
z
" transform="scale(0.015625)"/>
     <path id="DejaVuSans-79" d="M 2059 -325 
Q 1816 -950 1584 -1140 
Q 1353 -1331 966 -1331 
L 506 -1331 
L 506 -850 
L 844 -850 
Q 1081 -850 1212 -737 
Q 1344 -625 1503 -206 
L 1606 56 
L 191 3500 
L 800 3500 
L 1894 763 
L 2988 3500 
L 3597 3500 
L 2059 -325 
z
" transform="scale(0.015625)"/>
     <path id="DejaVuSans-28" d="M 1984 4856 
Q 1566 4138 1362 3434 
Q 1159 2731 1159 2009 
Q 1159 1288 1364 580 
Q 1569 -128 1984 -844 
L 1484 -844 
Q 1016 -109 783 600 
Q 550 1309 550 2009 
Q 550 2706 781 3412 
Q 1013 4119 1484 4856 
L 1984 4856 
z
" transform="scale(0.015625)"/>
     <path id="DejaVuSans-3d" d="M 678 2906 
L 4684 2906 
L 4684 2381 
L 678 2381 
L 678 2906 
z
M 678 1631 
L 4684 1631 
L 4684 1100 
L 678 1100 
L 678 1631 
z
" transform="scale(0.015625)"/>
     <path id="DejaVuSans-37" d="M 525 4666 
L 3525 4666 
L 3525 4397 
L 1831 0 
L 1172 0 
L 2766 4134 
L 525 4134 
L 525 4666 
z
" transform="scale(0.015625)"/>
     <path id="DejaVuSans-2d" d="M 313 2009 
L 1997 2009 
L 1997 1497 
L 313 1497 
L 313 2009 
z
" transform="scale(0.015625)"/>
     <path id="DejaVuSans-39" d="M 703 97 
L 703 672 
Q 941 559 1184 500 
Q 1428 441 1663 441 
Q 2288 441 2617 861 
Q 2947 1281 2994 2138 
Q 2813 1869 2534 1725 
Q 2256 1581 1919 1581 
Q 1219 1581 811 2004 
Q 403 2428 403 3163 
Q 403 3881 828 4315 
Q 1253 4750 1959 4750 
Q 2769 4750 3195 4129 
Q 3622 3509 3622 2328 
Q 3622 1225 3098 567 
Q 2575 -91 1691 -91 
Q 1453 -91 1209 -44 
Q 966 3 703 97 
z
M 1959 2075 
Q 2384 2075 2632 2365 
Q 2881 2656 2881 3163 
Q 2881 3666 2632 3958 
Q 2384 4250 1959 4250 
Q 1534 4250 1286 3958 
Q 1038 3666 1038 3163 
Q 1038 2656 1286 2365 
Q 1534 2075 1959 2075 
z
" transform="scale(0.015625)"/>
     <path id="DejaVuSans-29" d="M 513 4856 
L 1013 4856 
Q 1481 4119 1714 3412 
Q 1947 2706 1947 2009 
Q 1947 1309 1714 600 
Q 1481 -109 1013 -844 
L 513 -844 
Q 928 -128 1133 580 
Q 1338 1288 1338 2009 
Q 1338 2731 1133 3434 
Q 928 4138 513 4856 
z
" transform="scale(0.015625)"/>
    </defs>
    <use xlink:href="#DejaVuSans-44"/>
    <use xlink:href="#DejaVuSans-46" x="77.001953"/>
    <use xlink:href="#DejaVuSans-46" x="134.521484"/>
    <use xlink:href="#DejaVuSans-20" x="192.041016"/>
    <use xlink:href="#DejaVuSans-75" x="223.828125"/>
    <use xlink:href="#DejaVuSans-6e" x="287.207031"/>
    <use xlink:href="#DejaVuSans-64" x="350.585938"/>
    <use xlink:href="#DejaVuSans-65" x="414.0625"/>
    <use xlink:href="#DejaVuSans-72" x="475.585938"/>
    <use xlink:href="#DejaVuSans-20" x="516.699219"/>
    <use xlink:href="#DejaVuSans-42" x="548.486328"/>
    <use xlink:href="#DejaVuSans-42" x="617.089844"/>
    <use xlink:href="#DejaVuSans-49" x="685.693359"/>
    <use xlink:href="#DejaVuSans-20" x="715.185547"/>
    <use xlink:href="#DejaVuSans-73" x="746.972656"/>
    <use xlink:href="#DejaVuSans-77" x="799.072266"/>
    <use xlink:href="#DejaVuSans-65" x="880.859375"/>
    <use xlink:href="#DejaVuSans-65" x="942.382812"/>
    <use xlink:href="#DejaVuSans-70" x="1003.90625"/>
    <use xlink:href="#DejaVuSans-20" x="1067.382812"/>
    <use xlink:href="#DejaVuSans-61" x="1099.169922"/>
    <use xlink:href="#DejaVuSans-6e" x="1160.449219"/>
    <use xlink:href="#DejaVuSans-61" x="1223.828125"/>
    <use xlink:href="#DejaVuSans-6c" x="1285.107422"/>
    <use xlink:href="#DejaVuSans-79" x="1312.890625"/>
    <use xlink:href="#DejaVuSans-73" x="1372.070312"/>
    <use xlink:href="#DejaVuSans-69" x="1424.169922"/>
    <use xlink:href="#DejaVuSans-73" x="1451.953125"/>
    <use xlink:href="#DejaVuSans-20" x="1504.052734"/>
    <use xlink:href="#DejaVuSans-28" x="1535.839844"/>
    <use xlink:href="#DejaVuSans-53" x="1574.853516"/>
    <use xlink:href="#DejaVuSans-77" x="1638.330078"/>
    <use xlink:href="#DejaVuSans-65" x="1720.117188"/>
    <use xlink:href="#DejaVuSans-65" x="1781.640625"/>
    <use xlink:href="#DejaVuSans-70" x="1843.164062"/>
    <use xlink:href="#DejaVuSans-20" x="1906.640625"/>
    <use xlink:href="#DejaVuSans-3d" x="1938.427734"/>
    <use xlink:href="#DejaVuSans-20" x="2022.216797"/>
    <use xlink:href="#DejaVuSans-37" x="2054.003906"/>
    <use xlink:href="#DejaVuSans-31" x="2117.626953"/>
    <use xlink:href="#DejaVuSans-45" x="2181.25"/>
    <use xlink:href="#DejaVuSans-2d" x="2244.433594"/>
    <use xlink:href="#DejaVuSans-39" x="2280.517578"/>
    <use xlink:href="#DejaVuSans-29" x="2344.140625"/>
   </g>
  </g>
 </g>
 <defs>
  <clipPath id="p4f99764f2e">
   <rect x="100.8" y="38.88" width="887.04" height="92.731034"/>
  </clipPath>
  <clipPath id="pa86d717347">
   <rect x="100.8" y="150.157241" width="887.04" height="92.731034"/>
  </clipPath>
  <clipPath id="pc5f0b717a2">
   <rect x="100.8" y="261.434483" width="887.04" height="92.731034"/>
  </clipPath>
  <clipPath id="p64a229b033">
   <rect x="100.8" y="372.711724" width="887.04" height="92.731034"/>
  </clipPath>
  <clipPath id="p7e6e74f3b4">
   <rect x="100.8" y="483.988966" width="887.04" height="92.731034"/>
  </clipPath>
  <clipPath id="p490cfaf131">
   <rect x="201.6" y="609.12" width="655.2" height="25.92"/>
  </clipPath>
  <clipPath id="p981345686e">
   <path d="M 201.6 628.56 
L 856.8 628.56 
L 856.8 615.6 
L 201.6 615.6 
z
"/>
  </clipPath>
 </defs>
</svg>
