<?xml version="1.0" encoding="utf-8" standalone="no"?>
<!DOCTYPE svg PUBLIC "-//W3C//DTD SVG 1.1//EN"
  "http://www.w3.org/Graphics/SVG/1.1/DTD/svg11.dtd">
<svg xmlns:xlink="http://www.w3.org/1999/xlink" width="1008pt" height="648pt" viewBox="0 0 1008 648" xmlns="http://www.w3.org/2000/svg" version="1.1">
 <metadata>
  <rdf:RDF xmlns:dc="http://purl.org/dc/elements/1.1/" xmlns:cc="http://creativecommons.org/ns#" xmlns:rdf="http://www.w3.org/1999/02/22-rdf-syntax-ns#">
   <cc:Work>
    <dc:type rdf:resource="http://purl.org/dc/dcmitype/StillImage"/>
    <dc:date>2024-06-03T10:45:57.873716</dc:date>
    <dc:format>image/svg+xml</dc:format>
    <dc:creator>
     <cc:Agent>
      <dc:title>Matplotlib v3.9.0, https://matplotlib.org/</dc:title>
     </cc:Agent>
    </dc:creator>
   </cc:Work>
  </rdf:RDF>
 </metadata>
 <defs>
  <style type="text/css">*{stroke-linejoin: round; stroke-linecap: butt}</style>
 </defs>
 <g id="figure_1">
  <g id="patch_1">
   <path d="M 0 648 
L 1008 648 
L 1008 0 
L 0 0 
z
" style="fill: #ffffff"/>
  </g>
  <g id="axes_1">
   <g id="patch_2">
    <path d="M 100.8 131.611034 
L 987.84 131.611034 
L 987.84 38.88 
L 100.8 38.88 
z
" style="fill: #eeeeee"/>
   </g>
   <g id="matplotlib.axis_1">
    <g id="xtick_1">
     <g id="line2d_1">
      <path d="M 141.12 131.611034 
L 141.12 38.88 
" clip-path="url(#pc67271a139)" style="fill: none; stroke-dasharray: 1.85,0.8; stroke-dashoffset: 0; stroke: #b2b2b2; stroke-width: 0.5"/>
     </g>
     <g id="line2d_2">
      <defs>
       <path id="mcc16e97e9b" d="M 0 0 
L 0 -3.5 
" style="stroke: #000000; stroke-width: 0.8"/>
      </defs>
      <g>
       <use xlink:href="#mcc16e97e9b" x="141.12" y="131.611034" style="stroke: #000000; stroke-width: 0.8"/>
      </g>
     </g>
    </g>
    <g id="xtick_2">
     <g id="line2d_3">
      <path d="M 302.4 131.611034 
L 302.4 38.88 
" clip-path="url(#pc67271a139)" style="fill: none; stroke-dasharray: 1.85,0.8; stroke-dashoffset: 0; stroke: #b2b2b2; stroke-width: 0.5"/>
     </g>
     <g id="line2d_4">
      <g>
       <use xlink:href="#mcc16e97e9b" x="302.4" y="131.611034" style="stroke: #000000; stroke-width: 0.8"/>
      </g>
     </g>
    </g>
    <g id="xtick_3">
     <g id="line2d_5">
      <path d="M 463.68 131.611034 
L 463.68 38.88 
" clip-path="url(#pc67271a139)" style="fill: none; stroke-dasharray: 1.85,0.8; stroke-dashoffset: 0; stroke: #b2b2b2; stroke-width: 0.5"/>
     </g>
     <g id="line2d_6">
      <g>
       <use xlink:href="#mcc16e97e9b" x="463.68" y="131.611034" style="stroke: #000000; stroke-width: 0.8"/>
      </g>
     </g>
    </g>
    <g id="xtick_4">
     <g id="line2d_7">
      <path d="M 624.96 131.611034 
L 624.96 38.88 
" clip-path="url(#pc67271a139)" style="fill: none; stroke-dasharray: 1.85,0.8; stroke-dashoffset: 0; stroke: #b2b2b2; stroke-width: 0.5"/>
     </g>
     <g id="line2d_8">
      <g>
       <use xlink:href="#mcc16e97e9b" x="624.96" y="131.611034" style="stroke: #000000; stroke-width: 0.8"/>
      </g>
     </g>
    </g>
    <g id="xtick_5">
     <g id="line2d_9">
      <path d="M 786.24 131.611034 
L 786.24 38.88 
" clip-path="url(#pc67271a139)" style="fill: none; stroke-dasharray: 1.85,0.8; stroke-dashoffset: 0; stroke: #b2b2b2; stroke-width: 0.5"/>
     </g>
     <g id="line2d_10">
      <g>
       <use xlink:href="#mcc16e97e9b" x="786.24" y="131.611034" style="stroke: #000000; stroke-width: 0.8"/>
      </g>
     </g>
    </g>
    <g id="xtick_6">
     <g id="line2d_11">
      <path d="M 947.52 131.611034 
L 947.52 38.88 
" clip-path="url(#pc67271a139)" style="fill: none; stroke-dasharray: 1.85,0.8; stroke-dashoffset: 0; stroke: #b2b2b2; stroke-width: 0.5"/>
     </g>
     <g id="line2d_12">
      <g>
       <use xlink:href="#mcc16e97e9b" x="947.52" y="131.611034" style="stroke: #000000; stroke-width: 0.8"/>
      </g>
     </g>
    </g>
   </g>
   <g id="matplotlib.axis_2">
    <g id="ytick_1">
     <g id="line2d_13">
      <path d="M 100.8 98.340394 
L 987.84 98.340394 
" clip-path="url(#pc67271a139)" style="fill: none; stroke-dasharray: 1.85,0.8; stroke-dashoffset: 0; stroke: #b2b2b2; stroke-width: 0.5"/>
     </g>
     <g id="line2d_14">
      <defs>
       <path id="m1898a7cc81" d="M 0 0 
L 3.5 0 
" style="stroke: #000000; stroke-width: 0.8"/>
      </defs>
      <g>
       <use xlink:href="#m1898a7cc81" x="100.8" y="98.340394" style="stroke: #000000; stroke-width: 0.8"/>
      </g>
     </g>
     <g id="text_1">
      <!-- −200 V -->
      <g transform="translate(44.819688 103.6593) scale(0.14 -0.14)">
       <defs>
        <path id="DejaVuSans-2212" d="M 678 2272 
L 4684 2272 
L 4684 1741 
L 678 1741 
L 678 2272 
z
" transform="scale(0.015625)"/>
        <path id="DejaVuSans-32" d="M 1228 531 
L 3431 531 
L 3431 0 
L 469 0 
L 469 531 
Q 828 903 1448 1529 
Q 2069 2156 2228 2338 
Q 2531 2678 2651 2914 
Q 2772 3150 2772 3378 
Q 2772 3750 2511 3984 
Q 2250 4219 1831 4219 
Q 1534 4219 1204 4116 
Q 875 4013 500 3803 
L 500 4441 
Q 881 4594 1212 4672 
Q 1544 4750 1819 4750 
Q 2544 4750 2975 4387 
Q 3406 4025 3406 3419 
Q 3406 3131 3298 2873 
Q 3191 2616 2906 2266 
Q 2828 2175 2409 1742 
Q 1991 1309 1228 531 
z
" transform="scale(0.015625)"/>
        <path id="DejaVuSans-30" d="M 2034 4250 
Q 1547 4250 1301 3770 
Q 1056 3291 1056 2328 
Q 1056 1369 1301 889 
Q 1547 409 2034 409 
Q 2525 409 2770 889 
Q 3016 1369 3016 2328 
Q 3016 3291 2770 3770 
Q 2525 4250 2034 4250 
z
M 2034 4750 
Q 2819 4750 3233 4129 
Q 3647 3509 3647 2328 
Q 3647 1150 3233 529 
Q 2819 -91 2034 -91 
Q 1250 -91 836 529 
Q 422 1150 422 2328 
Q 422 3509 836 4129 
Q 1250 4750 2034 4750 
z
" transform="scale(0.015625)"/>
        <path id="DejaVuSans-20" transform="scale(0.015625)"/>
        <path id="DejaVuSans-56" d="M 1831 0 
L 50 4666 
L 709 4666 
L 2188 738 
L 3669 4666 
L 4325 4666 
L 2547 0 
L 1831 0 
z
" transform="scale(0.015625)"/>
       </defs>
       <use xlink:href="#DejaVuSans-2212"/>
       <use xlink:href="#DejaVuSans-32" x="83.789062"/>
       <use xlink:href="#DejaVuSans-30" x="147.412109"/>
       <use xlink:href="#DejaVuSans-30" x="211.035156"/>
       <use xlink:href="#DejaVuSans-20" x="274.658203"/>
       <use xlink:href="#DejaVuSans-56" x="306.445312"/>
      </g>
     </g>
    </g>
    <g id="ytick_2">
     <g id="line2d_15">
      <path d="M 100.8 45.027377 
L 987.84 45.027377 
" clip-path="url(#pc67271a139)" style="fill: none; stroke-dasharray: 1.85,0.8; stroke-dashoffset: 0; stroke: #b2b2b2; stroke-width: 0.5"/>
     </g>
     <g id="line2d_16">
      <g>
       <use xlink:href="#m1898a7cc81" x="100.8" y="45.027377" style="stroke: #000000; stroke-width: 0.8"/>
      </g>
     </g>
     <g id="text_2">
      <!-- 0 V -->
      <g transform="translate(74.36625 50.346284) scale(0.14 -0.14)">
       <use xlink:href="#DejaVuSans-30"/>
       <use xlink:href="#DejaVuSans-20" x="63.623047"/>
       <use xlink:href="#DejaVuSans-56" x="95.410156"/>
      </g>
     </g>
    </g>
    <g id="text_3">
     <g id="patch_3">
      <path d="M 34.8768 131.080205 
L 34.8768 39.41083 
L 11.247425 39.41083 
L 11.247425 131.080205 
z
" style="fill: #ffff00; opacity: 0.2; stroke: #eeeeee; stroke-width: 0.5; stroke-linejoin: miter"/>
     </g>
     <!-- VPULSE BBI -->
     <g transform="translate(26.925238 126.040205) rotate(-90) scale(0.14 -0.14)">
      <defs>
       <path id="DejaVuSans-50" d="M 1259 4147 
L 1259 2394 
L 2053 2394 
Q 2494 2394 2734 2622 
Q 2975 2850 2975 3272 
Q 2975 3691 2734 3919 
Q 2494 4147 2053 4147 
L 1259 4147 
z
M 628 4666 
L 2053 4666 
Q 2838 4666 3239 4311 
Q 3641 3956 3641 3272 
Q 3641 2581 3239 2228 
Q 2838 1875 2053 1875 
L 1259 1875 
L 1259 0 
L 628 0 
L 628 4666 
z
" transform="scale(0.015625)"/>
       <path id="DejaVuSans-55" d="M 556 4666 
L 1191 4666 
L 1191 1831 
Q 1191 1081 1462 751 
Q 1734 422 2344 422 
Q 2950 422 3222 751 
Q 3494 1081 3494 1831 
L 3494 4666 
L 4128 4666 
L 4128 1753 
Q 4128 841 3676 375 
Q 3225 -91 2344 -91 
Q 1459 -91 1007 375 
Q 556 841 556 1753 
L 556 4666 
z
" transform="scale(0.015625)"/>
       <path id="DejaVuSans-4c" d="M 628 4666 
L 1259 4666 
L 1259 531 
L 3531 531 
L 3531 0 
L 628 0 
L 628 4666 
z
" transform="scale(0.015625)"/>
       <path id="DejaVuSans-53" d="M 3425 4513 
L 3425 3897 
Q 3066 4069 2747 4153 
Q 2428 4238 2131 4238 
Q 1616 4238 1336 4038 
Q 1056 3838 1056 3469 
Q 1056 3159 1242 3001 
Q 1428 2844 1947 2747 
L 2328 2669 
Q 3034 2534 3370 2195 
Q 3706 1856 3706 1288 
Q 3706 609 3251 259 
Q 2797 -91 1919 -91 
Q 1588 -91 1214 -16 
Q 841 59 441 206 
L 441 856 
Q 825 641 1194 531 
Q 1563 422 1919 422 
Q 2459 422 2753 634 
Q 3047 847 3047 1241 
Q 3047 1584 2836 1778 
Q 2625 1972 2144 2069 
L 1759 2144 
Q 1053 2284 737 2584 
Q 422 2884 422 3419 
Q 422 4038 858 4394 
Q 1294 4750 2059 4750 
Q 2388 4750 2728 4690 
Q 3069 4631 3425 4513 
z
" transform="scale(0.015625)"/>
       <path id="DejaVuSans-45" d="M 628 4666 
L 3578 4666 
L 3578 4134 
L 1259 4134 
L 1259 2753 
L 3481 2753 
L 3481 2222 
L 1259 2222 
L 1259 531 
L 3634 531 
L 3634 0 
L 628 0 
L 628 4666 
z
" transform="scale(0.015625)"/>
       <path id="DejaVuSans-42" d="M 1259 2228 
L 1259 519 
L 2272 519 
Q 2781 519 3026 730 
Q 3272 941 3272 1375 
Q 3272 1813 3026 2020 
Q 2781 2228 2272 2228 
L 1259 2228 
z
M 1259 4147 
L 1259 2741 
L 2194 2741 
Q 2656 2741 2882 2914 
Q 3109 3088 3109 3444 
Q 3109 3797 2882 3972 
Q 2656 4147 2194 4147 
L 1259 4147 
z
M 628 4666 
L 2241 4666 
Q 2963 4666 3353 4366 
Q 3744 4066 3744 3513 
Q 3744 3084 3544 2831 
Q 3344 2578 2956 2516 
Q 3422 2416 3680 2098 
Q 3938 1781 3938 1306 
Q 3938 681 3513 340 
Q 3088 0 2303 0 
L 628 0 
L 628 4666 
z
" transform="scale(0.015625)"/>
       <path id="DejaVuSans-49" d="M 628 4666 
L 1259 4666 
L 1259 0 
L 628 0 
L 628 4666 
z
" transform="scale(0.015625)"/>
      </defs>
      <use xlink:href="#DejaVuSans-56"/>
      <use xlink:href="#DejaVuSans-50" x="68.408203"/>
      <use xlink:href="#DejaVuSans-55" x="128.710938"/>
      <use xlink:href="#DejaVuSans-4c" x="201.904297"/>
      <use xlink:href="#DejaVuSans-53" x="257.617188"/>
      <use xlink:href="#DejaVuSans-45" x="321.09375"/>
      <use xlink:href="#DejaVuSans-20" x="384.277344"/>
      <use xlink:href="#DejaVuSans-42" x="416.064453"/>
      <use xlink:href="#DejaVuSans-42" x="484.667969"/>
      <use xlink:href="#DejaVuSans-49" x="553.271484"/>
     </g>
    </g>
   </g>
   <g id="line2d_17">
    <path d="M 141.12 45.027377 
L 612.089856 45.136282 
L 612.573696 46.425538 
L 620.798976 69.006772 
L 628.217856 89.863624 
L 629.830656 94.440546 
L 631.636992 99.673219 
L 635.12064 110.807642 
L 636.701184 115.853719 
L 637.959168 119.566971 
L 639.184896 120.153414 
L 640.023552 120.545265 
L 641.055744 121.017085 
L 641.636352 121.272988 
L 642.507264 121.656841 
L 643.087872 121.912744 
L 643.926528 122.269941 
L 645.507072 122.936354 
L 646.152192 123.202919 
L 647.248896 123.629423 
L 647.990784 123.922644 
L 649.087488 124.349149 
L 649.990656 124.677024 
L 650.668032 124.943589 
L 651.474432 125.25547 
L 652.829184 125.804594 
L 655.474176 126.790885 
L 656.08704 127.022796 
L 658.0224 127.395987 
L 676.505088 127.289361 
L 676.73088 126.801547 
L 695.020032 75.087922 
L 698.761728 63.292417 
L 702.471168 51.617666 
L 707.083776 49.3412 
L 712.438272 46.984578 
L 721.147392 43.484472 
L 722.018304 43.268927 
L 736.307712 43.108189 
L 743.113728 43.184799 
L 758.467584 43.746186 
L 786.24 44.46146 
L 811.88352 44.774399 
L 847.494144 44.945888 
L 895.523328 44.953885 
L 947.52 44.953885 
L 947.52 44.953885 
" clip-path="url(#pc67271a139)" style="fill: none; stroke: #ff0000; stroke-width: 2; stroke-linecap: square"/>
   </g>
   <g id="patch_4">
    <path d="M 100.8 131.611034 
L 100.8 38.88 
" style="fill: none; stroke: #bcbcbc; stroke-width: 0.8; stroke-linejoin: miter; stroke-linecap: square"/>
   </g>
   <g id="patch_5">
    <path d="M 987.84 131.611034 
L 987.84 38.88 
" style="fill: none; stroke: #bcbcbc; stroke-width: 0.8; stroke-linejoin: miter; stroke-linecap: square"/>
   </g>
   <g id="patch_6">
    <path d="M 100.8 131.611034 
L 987.84 131.611034 
" style="fill: none; stroke: #bcbcbc; stroke-width: 0.8; stroke-linejoin: miter; stroke-linecap: square"/>
   </g>
   <g id="patch_7">
    <path d="M 100.8 38.88 
L 987.84 38.88 
" style="fill: none; stroke: #bcbcbc; stroke-width: 0.8; stroke-linejoin: miter; stroke-linecap: square"/>
   </g>
  </g>
  <g id="axes_2">
   <g id="patch_8">
    <path d="M 100.8 242.888276 
L 987.84 242.888276 
L 987.84 150.157241 
L 100.8 150.157241 
z
" style="fill: #eeeeee"/>
   </g>
   <g id="matplotlib.axis_3">
    <g id="xtick_7">
     <g id="line2d_18">
      <path d="M 141.12 242.888276 
L 141.12 150.157241 
" clip-path="url(#p0bae891a01)" style="fill: none; stroke-dasharray: 1.85,0.8; stroke-dashoffset: 0; stroke: #b2b2b2; stroke-width: 0.5"/>
     </g>
     <g id="line2d_19">
      <g>
       <use xlink:href="#mcc16e97e9b" x="141.12" y="242.888276" style="stroke: #000000; stroke-width: 0.8"/>
      </g>
     </g>
    </g>
    <g id="xtick_8">
     <g id="line2d_20">
      <path d="M 302.4 242.888276 
L 302.4 150.157241 
" clip-path="url(#p0bae891a01)" style="fill: none; stroke-dasharray: 1.85,0.8; stroke-dashoffset: 0; stroke: #b2b2b2; stroke-width: 0.5"/>
     </g>
     <g id="line2d_21">
      <g>
       <use xlink:href="#mcc16e97e9b" x="302.4" y="242.888276" style="stroke: #000000; stroke-width: 0.8"/>
      </g>
     </g>
    </g>
    <g id="xtick_9">
     <g id="line2d_22">
      <path d="M 463.68 242.888276 
L 463.68 150.157241 
" clip-path="url(#p0bae891a01)" style="fill: none; stroke-dasharray: 1.85,0.8; stroke-dashoffset: 0; stroke: #b2b2b2; stroke-width: 0.5"/>
     </g>
     <g id="line2d_23">
      <g>
       <use xlink:href="#mcc16e97e9b" x="463.68" y="242.888276" style="stroke: #000000; stroke-width: 0.8"/>
      </g>
     </g>
    </g>
    <g id="xtick_10">
     <g id="line2d_24">
      <path d="M 624.96 242.888276 
L 624.96 150.157241 
" clip-path="url(#p0bae891a01)" style="fill: none; stroke-dasharray: 1.85,0.8; stroke-dashoffset: 0; stroke: #b2b2b2; stroke-width: 0.5"/>
     </g>
     <g id="line2d_25">
      <g>
       <use xlink:href="#mcc16e97e9b" x="624.96" y="242.888276" style="stroke: #000000; stroke-width: 0.8"/>
      </g>
     </g>
    </g>
    <g id="xtick_11">
     <g id="line2d_26">
      <path d="M 786.24 242.888276 
L 786.24 150.157241 
" clip-path="url(#p0bae891a01)" style="fill: none; stroke-dasharray: 1.85,0.8; stroke-dashoffset: 0; stroke: #b2b2b2; stroke-width: 0.5"/>
     </g>
     <g id="line2d_27">
      <g>
       <use xlink:href="#mcc16e97e9b" x="786.24" y="242.888276" style="stroke: #000000; stroke-width: 0.8"/>
      </g>
     </g>
    </g>
    <g id="xtick_12">
     <g id="line2d_28">
      <path d="M 947.52 242.888276 
L 947.52 150.157241 
" clip-path="url(#p0bae891a01)" style="fill: none; stroke-dasharray: 1.85,0.8; stroke-dashoffset: 0; stroke: #b2b2b2; stroke-width: 0.5"/>
     </g>
     <g id="line2d_29">
      <g>
       <use xlink:href="#mcc16e97e9b" x="947.52" y="242.888276" style="stroke: #000000; stroke-width: 0.8"/>
      </g>
     </g>
    </g>
   </g>
   <g id="matplotlib.axis_4">
    <g id="ytick_3">
     <g id="line2d_30">
      <path d="M 100.8 218.976844 
L 987.84 218.976844 
" clip-path="url(#p0bae891a01)" style="fill: none; stroke-dasharray: 1.85,0.8; stroke-dashoffset: 0; stroke: #b2b2b2; stroke-width: 0.5"/>
     </g>
     <g id="line2d_31">
      <g>
       <use xlink:href="#m1898a7cc81" x="100.8" y="218.976844" style="stroke: #000000; stroke-width: 0.8"/>
      </g>
     </g>
     <g id="text_4">
      <!-- 0 V -->
      <g transform="translate(74.36625 224.29575) scale(0.14 -0.14)">
       <use xlink:href="#DejaVuSans-30"/>
       <use xlink:href="#DejaVuSans-20" x="63.623047"/>
       <use xlink:href="#DejaVuSans-56" x="95.410156"/>
      </g>
     </g>
    </g>
    <g id="ytick_4">
     <g id="line2d_32">
      <path d="M 100.8 184.698415 
L 987.84 184.698415 
" clip-path="url(#p0bae891a01)" style="fill: none; stroke-dasharray: 1.85,0.8; stroke-dashoffset: 0; stroke: #b2b2b2; stroke-width: 0.5"/>
     </g>
     <g id="line2d_33">
      <g>
       <use xlink:href="#m1898a7cc81" x="100.8" y="184.698415" style="stroke: #000000; stroke-width: 0.8"/>
      </g>
     </g>
     <g id="text_5">
      <!-- 1 V -->
      <g transform="translate(74.36625 190.017321) scale(0.14 -0.14)">
       <defs>
        <path id="DejaVuSans-31" d="M 794 531 
L 1825 531 
L 1825 4091 
L 703 3866 
L 703 4441 
L 1819 4666 
L 2450 4666 
L 2450 531 
L 3481 531 
L 3481 0 
L 794 0 
L 794 531 
z
" transform="scale(0.015625)"/>
       </defs>
       <use xlink:href="#DejaVuSans-31"/>
       <use xlink:href="#DejaVuSans-20" x="63.623047"/>
       <use xlink:href="#DejaVuSans-56" x="95.410156"/>
      </g>
     </g>
    </g>
    <g id="ytick_5">
     <g id="line2d_34">
      <path d="M 100.8 150.419986 
L 987.84 150.419986 
" clip-path="url(#p0bae891a01)" style="fill: none; stroke-dasharray: 1.85,0.8; stroke-dashoffset: 0; stroke: #b2b2b2; stroke-width: 0.5"/>
     </g>
     <g id="line2d_35">
      <g>
       <use xlink:href="#m1898a7cc81" x="100.8" y="150.419986" style="stroke: #000000; stroke-width: 0.8"/>
      </g>
     </g>
     <g id="text_6">
      <!-- 2 V -->
      <g transform="translate(74.36625 155.738892) scale(0.14 -0.14)">
       <use xlink:href="#DejaVuSans-32"/>
       <use xlink:href="#DejaVuSans-20" x="63.623047"/>
       <use xlink:href="#DejaVuSans-56" x="95.410156"/>
      </g>
     </g>
    </g>
    <g id="text_7">
     <g id="patch_9">
      <path d="M 34.8768 224.531509 
L 34.8768 168.514009 
L 11.247425 168.514009 
L 11.247425 224.531509 
z
" style="fill: #ffff00; opacity: 0.2; stroke: #eeeeee; stroke-width: 0.5; stroke-linejoin: miter"/>
     </g>
     <!-- DFF IN -->
     <g transform="translate(26.925238 219.491509) rotate(-90) scale(0.14 -0.14)">
      <defs>
       <path id="DejaVuSans-44" d="M 1259 4147 
L 1259 519 
L 2022 519 
Q 2988 519 3436 956 
Q 3884 1394 3884 2338 
Q 3884 3275 3436 3711 
Q 2988 4147 2022 4147 
L 1259 4147 
z
M 628 4666 
L 1925 4666 
Q 3281 4666 3915 4102 
Q 4550 3538 4550 2338 
Q 4550 1131 3912 565 
Q 3275 0 1925 0 
L 628 0 
L 628 4666 
z
" transform="scale(0.015625)"/>
       <path id="DejaVuSans-46" d="M 628 4666 
L 3309 4666 
L 3309 4134 
L 1259 4134 
L 1259 2759 
L 3109 2759 
L 3109 2228 
L 1259 2228 
L 1259 0 
L 628 0 
L 628 4666 
z
" transform="scale(0.015625)"/>
       <path id="DejaVuSans-4e" d="M 628 4666 
L 1478 4666 
L 3547 763 
L 3547 4666 
L 4159 4666 
L 4159 0 
L 3309 0 
L 1241 3903 
L 1241 0 
L 628 0 
L 628 4666 
z
" transform="scale(0.015625)"/>
      </defs>
      <use xlink:href="#DejaVuSans-44"/>
      <use xlink:href="#DejaVuSans-46" x="77.001953"/>
      <use xlink:href="#DejaVuSans-46" x="134.521484"/>
      <use xlink:href="#DejaVuSans-20" x="192.041016"/>
      <use xlink:href="#DejaVuSans-49" x="223.828125"/>
      <use xlink:href="#DejaVuSans-4e" x="253.320312"/>
     </g>
    </g>
   </g>
   <g id="line2d_36">
    <path d="M 141.12 218.926783 
L 221.953536 218.879777 
L 224.437248 199.780238 
L 225.404928 193.970044 
L 228.243456 181.195159 
L 229.598208 179.913146 
L 231.178752 179.03219 
L 236.533248 178.572859 
L 243.5328 178.463168 
L 244.952064 178.422034 
L 248.145408 178.312343 
L 249.790464 178.247214 
L 251.887104 178.137523 
L 254.241792 177.787883 
L 254.757888 177.246284 
L 255.499776 176.9035 
L 256.338432 176.917211 
L 259.789824 177.537651 
L 262.467072 177.712471 
L 263.886336 177.760461 
L 264.144384 183.046194 
L 264.434688 186.642687 
L 265.176576 191.433783 
L 267.144192 208.921609 
L 268.402176 215.487642 
L 269.047296 216.782201 
L 270.46656 218.560566 
L 273.724416 218.978694 
L 282.498048 218.930633 
L 296.980992 218.921432 
L 305.690112 218.925916 
L 347.751936 218.881488 
L 350.235648 199.820686 
L 351.622656 191.106081 
L 352.654848 185.767559 
L 354.97728 178.709973 
L 358.493184 177.702187 
L 360.202752 177.774172 
L 363.009024 177.883863 
L 364.33152 177.914713 
L 375.169536 177.986698 
L 375.717888 178.987628 
L 376.169472 179.745182 
L 377.008128 180.660416 
L 377.524224 180.608998 
L 378.427392 180.314203 
L 380.427264 179.165876 
L 381.58848 178.788813 
L 387.168768 178.305488 
L 389.587968 178.195797 
L 391.684608 178.082678 
L 394.232832 177.972987 
L 395.61984 177.93528 
L 415.360512 177.849584 
L 416.489472 176.910355 
L 417.037824 176.845226 
L 417.908736 176.954917 
L 419.16672 177.239428 
L 420.908544 177.496517 
L 423.940608 177.709043 
L 455.712768 177.815306 
L 456.809472 178.713401 
L 457.261056 178.785386 
L 458.68032 178.829947 
L 462.680064 178.295204 
L 464.131584 178.099817 
L 467.486208 177.853012 
L 496.065024 177.770744 
L 496.58112 177.225717 
L 497.258496 176.917211 
L 498.3552 176.9035 
L 502.06464 177.578785 
L 504.193536 177.695331 
L 536.320512 177.798167 
L 536.481792 177.976415 
L 536.965632 178.470024 
L 537.610752 178.754535 
L 539.32032 178.829947 
L 544.352256 178.185513 
L 545.545728 178.044971 
L 548.771328 177.811878 
L 576.73728 177.726182 
L 577.22112 177.225717 
L 577.898496 176.917211 
L 578.9952 176.9035 
L 582.70464 177.578785 
L 584.833536 177.695331 
L 611.993088 177.798167 
L 612.186624 177.976415 
L 612.864 179.340696 
L 613.928448 181.250005 
L 619.508736 189.361652 
L 621.25056 191.499255 
L 621.637632 192.52178 
L 622.250496 194.684406 
L 624.605184 203.973861 
L 625.347072 207.715008 
L 626.08896 210.854913 
L 627.54048 216.152472 
L 627.70176 216.694689 
L 628.282368 218.707545 
L 629.830656 223.419671 
L 629.95968 223.729891 
L 630.346752 224.863478 
L 630.862848 225.84487 
L 631.056384 226.008378 
L 631.378944 226.525296 
L 631.475712 226.753934 
L 633.378816 230.827925 
L 633.765888 231.363697 
L 634.088448 232.057835 
L 636.152832 235.803096 
L 636.443136 236.223692 
L 636.959232 237.270213 
L 637.572096 238.300965 
L 637.70112 238.425396 
L 637.894656 238.673229 
L 637.926912 238.651633 
L 638.378496 238.342442 
L 638.636544 237.912591 
L 638.862336 237.682239 
L 639.184896 237.05323 
L 639.539712 236.34161 
L 639.63648 236.277852 
L 639.830016 236.066012 
L 640.249344 235.624505 
L 640.636416 235.196025 
L 640.92672 234.597524 
L 641.346048 234.039814 
L 641.507328 234.01479 
L 641.797632 233.781697 
L 642.733056 233.013517 
L 643.281408 232.362913 
L 643.700736 231.694826 
L 644.023296 231.504924 
L 644.184576 231.452821 
L 644.442624 231.228297 
L 645.249024 230.693211 
L 645.829632 230.119047 
L 646.152192 229.630236 
L 646.216704 229.623381 
L 646.24896 229.569564 
L 646.41024 229.455074 
L 646.668288 229.073898 
L 646.797312 229.096179 
L 647.05536 228.931985 
L 648.764928 227.604039 
L 649.861632 226.561289 
L 650.345472 226.29426 
L 651.926016 225.044125 
L 652.506624 224.207732 
L 652.829184 224.176538 
L 653.313024 223.959556 
L 654.377472 223.163268 
L 655.474176 222.200593 
L 655.828992 221.84156 
L 656.474112 221.463298 
L 657.667584 220.42593 
L 658.473984 219.416773 
L 660.11904 217.109355 
L 663.731712 212.1928 
L 666.57024 208.712168 
L 669.408768 201.003635 
L 672.69888 196.233106 
L 675.214848 193.403764 
L 676.5696 192.035027 
L 676.763136 191.54416 
L 677.279232 189.638622 
L 678.375936 185.728139 
L 679.246848 183.48153 
L 680.085504 181.880728 
L 680.76288 180.996344 
L 683.407872 178.322627 
L 684.698112 176.50587 
L 686.859264 173.263131 
L 688.6656 170.57913 
L 691.149312 167.079302 
L 696.600576 159.952817 
L 697.600512 158.602247 
L 697.729536 158.951887 
L 698.471424 161.227974 
L 698.858496 161.522769 
L 699.213312 161.495346 
L 699.535872 161.238258 
L 699.9552 160.638385 
L 700.471296 159.496914 
L 702.438912 154.742495 
L 702.890496 154.656799 
L 703.406592 154.605382 
L 704.890368 154.396283 
L 708.244992 154.86247 
L 709.825536 155.311517 
L 711.631872 155.774276 
L 712.502784 155.976519 
L 714.083328 156.425566 
L 722.502144 159.21583 
L 723.01824 159.462635 
L 726.921216 161.241686 
L 728.146944 161.773001 
L 729.243648 162.239188 
L 729.888768 162.523699 
L 731.146752 163.041303 
L 734.662656 164.415868 
L 737.888256 165.55734 
L 737.920512 165.577907 
L 737.952768 165.526489 
L 738.33984 164.892338 
L 738.759168 164.600972 
L 739.243008 164.655817 
L 740.339712 165.361953 
L 742.242816 166.640538 
L 744.081408 167.494071 
L 744.662016 167.730592 
L 750.468096 169.465081 
L 751.209984 169.650184 
L 752.69376 170.010108 
L 753.145344 170.119799 
L 753.790464 170.274052 
L 755.016192 170.551707 
L 755.532288 170.661398 
L 762.467328 172.025679 
L 762.886656 172.090808 
L 763.789824 172.2622 
L 765.59616 172.560423 
L 766.047744 172.632408 
L 768.241152 172.971764 
L 768.66048 173.036893 
L 771.628032 173.461946 
L 772.950528 173.62991 
L 778.272768 174.291483 
L 779.079168 175.292414 
L 779.756544 175.539218 
L 780.562944 175.518651 
L 781.853184 175.134733 
L 782.272512 175.021614 
L 783.207936 174.911923 
L 784.336896 174.90164 
L 786.304512 175.007903 
L 786.820608 175.05932 
L 790.43328 175.333548 
L 791.852544 175.443239 
L 792.271872 175.463806 
L 792.85248 175.511796 
L 793.65888 175.570069 
L 795.336192 175.67976 
L 796.110336 175.738033 
L 796.787712 175.775739 
L 799.400448 175.943704 
L 800.077824 175.98141 
L 802.238976 176.091101 
L 804.174336 176.190508 
L 804.819456 176.228215 
L 806.851584 176.334478 
L 807.593472 176.361901 
L 809.367552 176.444169 
L 810.10944 176.475019 
L 812.593152 176.58471 
L 814.30272 176.656695 
L 817.141248 176.766386 
L 818.560512 176.810948 
L 819.366912 176.036256 
L 820.044288 175.858008 
L 821.334528 176.104812 
L 822.173184 176.341334 
L 824.882688 176.804092 
L 826.301952 176.913783 
L 827.140608 176.98234 
L 829.721088 177.092031 
L 830.301696 177.105743 
L 834.720768 177.215433 
L 835.881984 177.229145 
L 842.397696 177.338836 
L 842.978304 177.355975 
L 843.97824 177.355975 
L 845.26848 177.383398 
L 858.912768 177.465666 
L 859.848192 178.308915 
L 860.686848 178.45974 
L 864.654336 177.928425 
L 865.58976 177.842729 
L 867.105792 177.733038 
L 869.428224 177.595924 
L 899.200512 177.510228 
L 900.006912 176.718396 
L 900.523008 176.567571 
L 901.684224 176.550432 
L 903.00672 176.85551 
L 905.361408 177.242856 
L 907.68384 177.37997 
L 939.552768 177.472522 
L 940.617216 178.346622 
L 941.55264 178.535153 
L 943.455744 178.425462 
L 944.810496 178.171802 
L 947.03616 177.811878 
L 947.52 177.736466 
L 947.52 177.736466 
" clip-path="url(#p0bae891a01)" style="fill: none; stroke: #008000; stroke-width: 2; stroke-linecap: square"/>
   </g>
   <g id="patch_10">
    <path d="M 100.8 242.888276 
L 100.8 150.157241 
" style="fill: none; stroke: #bcbcbc; stroke-width: 0.8; stroke-linejoin: miter; stroke-linecap: square"/>
   </g>
   <g id="patch_11">
    <path d="M 987.84 242.888276 
L 987.84 150.157241 
" style="fill: none; stroke: #bcbcbc; stroke-width: 0.8; stroke-linejoin: miter; stroke-linecap: square"/>
   </g>
   <g id="patch_12">
    <path d="M 100.8 242.888276 
L 987.84 242.888276 
" style="fill: none; stroke: #bcbcbc; stroke-width: 0.8; stroke-linejoin: miter; stroke-linecap: square"/>
   </g>
   <g id="patch_13">
    <path d="M 100.8 150.157241 
L 987.84 150.157241 
" style="fill: none; stroke: #bcbcbc; stroke-width: 0.8; stroke-linejoin: miter; stroke-linecap: square"/>
   </g>
  </g>
  <g id="axes_3">
   <g id="patch_14">
    <path d="M 100.8 354.165517 
L 987.84 354.165517 
L 987.84 261.434483 
L 100.8 261.434483 
z
" style="fill: #eeeeee"/>
   </g>
   <g id="matplotlib.axis_5">
    <g id="xtick_13">
     <g id="line2d_37">
      <path d="M 141.12 354.165517 
L 141.12 261.434483 
" clip-path="url(#p1cf9204fd8)" style="fill: none; stroke-dasharray: 1.85,0.8; stroke-dashoffset: 0; stroke: #b2b2b2; stroke-width: 0.5"/>
     </g>
     <g id="line2d_38">
      <g>
       <use xlink:href="#mcc16e97e9b" x="141.12" y="354.165517" style="stroke: #000000; stroke-width: 0.8"/>
      </g>
     </g>
    </g>
    <g id="xtick_14">
     <g id="line2d_39">
      <path d="M 302.4 354.165517 
L 302.4 261.434483 
" clip-path="url(#p1cf9204fd8)" style="fill: none; stroke-dasharray: 1.85,0.8; stroke-dashoffset: 0; stroke: #b2b2b2; stroke-width: 0.5"/>
     </g>
     <g id="line2d_40">
      <g>
       <use xlink:href="#mcc16e97e9b" x="302.4" y="354.165517" style="stroke: #000000; stroke-width: 0.8"/>
      </g>
     </g>
    </g>
    <g id="xtick_15">
     <g id="line2d_41">
      <path d="M 463.68 354.165517 
L 463.68 261.434483 
" clip-path="url(#p1cf9204fd8)" style="fill: none; stroke-dasharray: 1.85,0.8; stroke-dashoffset: 0; stroke: #b2b2b2; stroke-width: 0.5"/>
     </g>
     <g id="line2d_42">
      <g>
       <use xlink:href="#mcc16e97e9b" x="463.68" y="354.165517" style="stroke: #000000; stroke-width: 0.8"/>
      </g>
     </g>
    </g>
    <g id="xtick_16">
     <g id="line2d_43">
      <path d="M 624.96 354.165517 
L 624.96 261.434483 
" clip-path="url(#p1cf9204fd8)" style="fill: none; stroke-dasharray: 1.85,0.8; stroke-dashoffset: 0; stroke: #b2b2b2; stroke-width: 0.5"/>
     </g>
     <g id="line2d_44">
      <g>
       <use xlink:href="#mcc16e97e9b" x="624.96" y="354.165517" style="stroke: #000000; stroke-width: 0.8"/>
      </g>
     </g>
    </g>
    <g id="xtick_17">
     <g id="line2d_45">
      <path d="M 786.24 354.165517 
L 786.24 261.434483 
" clip-path="url(#p1cf9204fd8)" style="fill: none; stroke-dasharray: 1.85,0.8; stroke-dashoffset: 0; stroke: #b2b2b2; stroke-width: 0.5"/>
     </g>
     <g id="line2d_46">
      <g>
       <use xlink:href="#mcc16e97e9b" x="786.24" y="354.165517" style="stroke: #000000; stroke-width: 0.8"/>
      </g>
     </g>
    </g>
    <g id="xtick_18">
     <g id="line2d_47">
      <path d="M 947.52 354.165517 
L 947.52 261.434483 
" clip-path="url(#p1cf9204fd8)" style="fill: none; stroke-dasharray: 1.85,0.8; stroke-dashoffset: 0; stroke: #b2b2b2; stroke-width: 0.5"/>
     </g>
     <g id="line2d_48">
      <g>
       <use xlink:href="#mcc16e97e9b" x="947.52" y="354.165517" style="stroke: #000000; stroke-width: 0.8"/>
      </g>
     </g>
    </g>
   </g>
   <g id="matplotlib.axis_6">
    <g id="ytick_6">
     <g id="line2d_49">
      <path d="M 100.8 344.258037 
L 987.84 344.258037 
" clip-path="url(#p1cf9204fd8)" style="fill: none; stroke-dasharray: 1.85,0.8; stroke-dashoffset: 0; stroke: #b2b2b2; stroke-width: 0.5"/>
     </g>
     <g id="line2d_50">
      <g>
       <use xlink:href="#m1898a7cc81" x="100.8" y="344.258037" style="stroke: #000000; stroke-width: 0.8"/>
      </g>
     </g>
     <g id="text_8">
      <!-- 0 V -->
      <g transform="translate(74.36625 349.576943) scale(0.14 -0.14)">
       <use xlink:href="#DejaVuSans-30"/>
       <use xlink:href="#DejaVuSans-20" x="63.623047"/>
       <use xlink:href="#DejaVuSans-56" x="95.410156"/>
      </g>
     </g>
    </g>
    <g id="ytick_7">
     <g id="line2d_51">
      <path d="M 100.8 299.326052 
L 987.84 299.326052 
" clip-path="url(#p1cf9204fd8)" style="fill: none; stroke-dasharray: 1.85,0.8; stroke-dashoffset: 0; stroke: #b2b2b2; stroke-width: 0.5"/>
     </g>
     <g id="line2d_52">
      <g>
       <use xlink:href="#m1898a7cc81" x="100.8" y="299.326052" style="stroke: #000000; stroke-width: 0.8"/>
      </g>
     </g>
     <g id="text_9">
      <!-- 1 V -->
      <g transform="translate(74.36625 304.644959) scale(0.14 -0.14)">
       <use xlink:href="#DejaVuSans-31"/>
       <use xlink:href="#DejaVuSans-20" x="63.623047"/>
       <use xlink:href="#DejaVuSans-56" x="95.410156"/>
      </g>
     </g>
    </g>
    <g id="text_10">
     <g id="patch_15">
      <path d="M 34.8768 342.395313 
L 34.8768 273.204688 
L 11.247425 273.204688 
L 11.247425 342.395313 
z
" style="fill: #ffff00; opacity: 0.2; stroke: #eeeeee; stroke-width: 0.5; stroke-linejoin: miter"/>
     </g>
     <!-- CLK BUF -->
     <g transform="translate(26.925238 337.355313) rotate(-90) scale(0.14 -0.14)">
      <defs>
       <path id="DejaVuSans-43" d="M 4122 4306 
L 4122 3641 
Q 3803 3938 3442 4084 
Q 3081 4231 2675 4231 
Q 1875 4231 1450 3742 
Q 1025 3253 1025 2328 
Q 1025 1406 1450 917 
Q 1875 428 2675 428 
Q 3081 428 3442 575 
Q 3803 722 4122 1019 
L 4122 359 
Q 3791 134 3420 21 
Q 3050 -91 2638 -91 
Q 1578 -91 968 557 
Q 359 1206 359 2328 
Q 359 3453 968 4101 
Q 1578 4750 2638 4750 
Q 3056 4750 3426 4639 
Q 3797 4528 4122 4306 
z
" transform="scale(0.015625)"/>
       <path id="DejaVuSans-4b" d="M 628 4666 
L 1259 4666 
L 1259 2694 
L 3353 4666 
L 4166 4666 
L 1850 2491 
L 4331 0 
L 3500 0 
L 1259 2247 
L 1259 0 
L 628 0 
L 628 4666 
z
" transform="scale(0.015625)"/>
      </defs>
      <use xlink:href="#DejaVuSans-43"/>
      <use xlink:href="#DejaVuSans-4c" x="69.824219"/>
      <use xlink:href="#DejaVuSans-4b" x="125.537109"/>
      <use xlink:href="#DejaVuSans-20" x="191.113281"/>
      <use xlink:href="#DejaVuSans-42" x="222.900391"/>
      <use xlink:href="#DejaVuSans-55" x="291.503906"/>
      <use xlink:href="#DejaVuSans-46" x="364.697266"/>
     </g>
    </g>
   </g>
   <g id="line2d_53">
    <path d="M 141.12 344.256849 
L 173.376 344.256849 
L 173.601792 290.339655 
L 213.696 290.339655 
L 213.760512 333.348102 
L 213.825024 344.23751 
L 213.889536 344.172851 
L 213.954048 344.352349 
L 214.01856 344.262906 
L 215.3088 344.253927 
L 223.082496 344.256846 
L 254.016 344.256818 
L 254.17728 290.173407 
L 254.241792 290.460972 
L 254.403072 290.330669 
L 254.8224 290.339655 
L 294.336 290.339655 
L 294.400512 333.310359 
L 294.465024 344.593324 
L 294.529536 343.812123 
L 294.626304 344.328648 
L 294.65856 344.296675 
L 294.852096 344.217699 
L 295.206912 344.274387 
L 295.497216 344.256499 
L 319.624704 344.256849 
L 334.656 344.256851 
L 334.81728 290.258778 
L 334.881792 290.357628 
L 335.172096 290.344149 
L 374.976 290.339655 
L 375.040512 333.352146 
L 375.105024 344.258766 
L 375.169536 344.167153 
L 375.234048 344.345663 
L 375.29856 344.263056 
L 376.653312 344.253522 
L 384.685056 344.256812 
L 415.296 344.256851 
L 415.45728 290.173407 
L 415.521792 290.460972 
L 415.683072 290.326176 
L 416.553984 290.339655 
L 455.616 290.339655 
L 455.680512 333.313055 
L 455.745024 344.59886 
L 455.809536 343.604591 
L 455.906304 344.917279 
L 455.93856 344.331119 
L 456.132096 344.231052 
L 456.519168 344.257314 
L 488.581632 344.256847 
L 495.936 344.256849 
L 496.09728 290.249791 
L 496.161792 290.357628 
L 497.06496 290.339655 
L 536.256 290.339655 
L 536.320512 333.313055 
L 536.385024 344.59881 
L 536.449536 343.604681 
L 536.546304 344.917189 
L 536.57856 344.331114 
L 536.772096 344.231054 
L 537.159168 344.257315 
L 569.221632 344.256847 
L 576.576 344.25685 
L 576.73728 290.249791 
L 576.801792 290.357628 
L 577.70496 290.339655 
L 612.122112 290.411547 
L 613.767168 292.882806 
L 616.896 298.602647 
L 616.928256 299.258654 
L 617.025024 345.863232 
L 617.05728 345.794531 
L 617.186304 345.842204 
L 618.605568 345.811965 
L 627.475968 345.5275 
L 627.734016 345.51766 
L 630.862848 345.709924 
L 631.73376 346.095755 
L 632.05632 346.291883 
L 635.217408 348.292165 
L 637.926912 349.928004 
L 638.604288 349.553721 
L 638.701056 349.511485 
L 639.79776 349.054526 
L 639.926784 348.933659 
L 640.055808 348.957923 
L 640.152576 348.921078 
L 640.539648 348.765164 
L 641.184768 348.53008 
L 644.3136 347.424484 
L 644.539392 347.369038 
L 648.539136 346.111212 
L 648.764928 346.061562 
L 649.152 345.94038 
L 650.92608 345.47192 
L 651.08736 345.421191 
L 651.377664 345.35249 
L 655.667712 344.454628 
L 657.216 344.208082 
L 657.248256 345.380483 
L 657.409536 319.089386 
L 657.53856 318.803618 
L 662.602752 315.49977 
L 666.602496 312.847435 
L 672.05376 309.636146 
L 676.376064 307.41381 
L 676.634112 307.183758 
L 678.02112 304.465822 
L 680.085504 299.777169 
L 684.278784 290.294723 
L 684.95616 288.84342 
L 686.73024 285.158998 
L 692.181504 274.766229 
L 693.18144 273.031855 
L 694.923264 270.097796 
L 695.76192 268.745344 
L 696.955392 266.656006 
L 697.503744 265.707941 
L 697.536 265.64953 
L 697.600512 343.407699 
L 697.729536 342.745312 
L 698.116608 342.749536 
L 702.309888 342.872245 
L 702.632448 343.217188 
L 703.309824 343.811889 
L 704.116224 344.210436 
L 705.148416 344.466521 
L 706.761216 344.619245 
L 713.760768 344.656772 
L 722.727936 344.715894 
L 725.308416 344.775429 
L 737.856 344.642197 
L 737.985024 274.060797 
L 738.114048 274.343869 
L 739.049472 274.73927 
L 748.048896 278.392241 
L 748.306944 278.495584 
L 750.048768 279.111152 
L 750.339072 279.214496 
L 751.435776 279.560472 
L 751.693824 279.663816 
L 752.69376 279.96486 
L 752.951808 280.06371 
L 753.403392 280.18952 
L 763.628544 282.930371 
L 764.080128 283.029221 
L 764.499456 283.137058 
L 765.144576 283.289827 
L 765.628416 283.388677 
L 765.983232 283.469555 
L 766.499328 283.568405 
L 766.918656 283.676242 
L 767.434752 283.779586 
L 769.14432 284.125562 
L 769.660416 284.228905 
L 772.04736 284.660253 
L 772.36992 284.723157 
L 775.724544 285.2893 
L 776.047104 285.352205 
L 778.176 285.666729 
L 778.208256 294.104956 
L 778.272768 345.303919 
L 778.33728 344.253137 
L 778.369536 344.775294 
L 778.434048 344.397569 
L 778.563072 344.3851 
L 780.5952 344.375853 
L 784.852992 344.362185 
L 789.046272 344.34831 
L 818.496 344.2928 
L 818.625024 288.699638 
L 818.721792 289.041121 
L 819.205632 289.08156 
L 822.431232 289.184903 
L 822.786048 289.216356 
L 826.39872 289.319699 
L 826.753536 289.351152 
L 830.850048 289.454495 
L 831.204864 289.485948 
L 836.07552 289.589291 
L 836.430336 289.620744 
L 842.36544 289.724087 
L 842.720256 289.75554 
L 850.300416 289.858883 
L 850.655232 289.890336 
L 858.816 289.890336 
L 858.945024 344.601389 
L 859.106304 344.339858 
L 859.364352 344.239695 
L 859.719168 344.288607 
L 860.041728 344.269482 
L 896.200704 344.269714 
L 899.136 344.269717 
L 899.29728 289.656689 
L 899.361792 290.164421 
L 899.45856 289.701621 
L 899.523072 289.872363 
L 899.974656 289.890336 
L 939.456 289.890336 
L 939.488256 297.991572 
L 939.61728 344.216309 
L 939.649536 344.34698 
L 939.714048 344.221948 
L 939.746304 344.182511 
L 939.810816 344.240493 
L 940.004352 344.296601 
L 940.197888 344.268972 
L 945.391104 344.269723 
L 947.52 344.269706 
L 947.52 344.269706 
" clip-path="url(#p1cf9204fd8)" style="fill: none; stroke: #0000ff; stroke-width: 2; stroke-linecap: square"/>
   </g>
   <g id="patch_16">
    <path d="M 100.8 354.165517 
L 100.8 261.434483 
" style="fill: none; stroke: #bcbcbc; stroke-width: 0.8; stroke-linejoin: miter; stroke-linecap: square"/>
   </g>
   <g id="patch_17">
    <path d="M 987.84 354.165517 
L 987.84 261.434483 
" style="fill: none; stroke: #bcbcbc; stroke-width: 0.8; stroke-linejoin: miter; stroke-linecap: square"/>
   </g>
   <g id="patch_18">
    <path d="M 100.8 354.165517 
L 987.84 354.165517 
" style="fill: none; stroke: #bcbcbc; stroke-width: 0.8; stroke-linejoin: miter; stroke-linecap: square"/>
   </g>
   <g id="patch_19">
    <path d="M 100.8 261.434483 
L 987.84 261.434483 
" style="fill: none; stroke: #bcbcbc; stroke-width: 0.8; stroke-linejoin: miter; stroke-linecap: square"/>
   </g>
  </g>
  <g id="axes_4">
   <g id="patch_20">
    <path d="M 100.8 465.442759 
L 987.84 465.442759 
L 987.84 372.711724 
L 100.8 372.711724 
z
" style="fill: #eeeeee"/>
   </g>
   <g id="matplotlib.axis_7">
    <g id="xtick_19">
     <g id="line2d_54">
      <path d="M 141.12 465.442759 
L 141.12 372.711724 
" clip-path="url(#p2eab630041)" style="fill: none; stroke-dasharray: 1.85,0.8; stroke-dashoffset: 0; stroke: #b2b2b2; stroke-width: 0.5"/>
     </g>
     <g id="line2d_55">
      <g>
       <use xlink:href="#mcc16e97e9b" x="141.12" y="465.442759" style="stroke: #000000; stroke-width: 0.8"/>
      </g>
     </g>
    </g>
    <g id="xtick_20">
     <g id="line2d_56">
      <path d="M 302.4 465.442759 
L 302.4 372.711724 
" clip-path="url(#p2eab630041)" style="fill: none; stroke-dasharray: 1.85,0.8; stroke-dashoffset: 0; stroke: #b2b2b2; stroke-width: 0.5"/>
     </g>
     <g id="line2d_57">
      <g>
       <use xlink:href="#mcc16e97e9b" x="302.4" y="465.442759" style="stroke: #000000; stroke-width: 0.8"/>
      </g>
     </g>
    </g>
    <g id="xtick_21">
     <g id="line2d_58">
      <path d="M 463.68 465.442759 
L 463.68 372.711724 
" clip-path="url(#p2eab630041)" style="fill: none; stroke-dasharray: 1.85,0.8; stroke-dashoffset: 0; stroke: #b2b2b2; stroke-width: 0.5"/>
     </g>
     <g id="line2d_59">
      <g>
       <use xlink:href="#mcc16e97e9b" x="463.68" y="465.442759" style="stroke: #000000; stroke-width: 0.8"/>
      </g>
     </g>
    </g>
    <g id="xtick_22">
     <g id="line2d_60">
      <path d="M 624.96 465.442759 
L 624.96 372.711724 
" clip-path="url(#p2eab630041)" style="fill: none; stroke-dasharray: 1.85,0.8; stroke-dashoffset: 0; stroke: #b2b2b2; stroke-width: 0.5"/>
     </g>
     <g id="line2d_61">
      <g>
       <use xlink:href="#mcc16e97e9b" x="624.96" y="465.442759" style="stroke: #000000; stroke-width: 0.8"/>
      </g>
     </g>
    </g>
    <g id="xtick_23">
     <g id="line2d_62">
      <path d="M 786.24 465.442759 
L 786.24 372.711724 
" clip-path="url(#p2eab630041)" style="fill: none; stroke-dasharray: 1.85,0.8; stroke-dashoffset: 0; stroke: #b2b2b2; stroke-width: 0.5"/>
     </g>
     <g id="line2d_63">
      <g>
       <use xlink:href="#mcc16e97e9b" x="786.24" y="465.442759" style="stroke: #000000; stroke-width: 0.8"/>
      </g>
     </g>
    </g>
    <g id="xtick_24">
     <g id="line2d_64">
      <path d="M 947.52 465.442759 
L 947.52 372.711724 
" clip-path="url(#p2eab630041)" style="fill: none; stroke-dasharray: 1.85,0.8; stroke-dashoffset: 0; stroke: #b2b2b2; stroke-width: 0.5"/>
     </g>
     <g id="line2d_65">
      <g>
       <use xlink:href="#mcc16e97e9b" x="947.52" y="465.442759" style="stroke: #000000; stroke-width: 0.8"/>
      </g>
     </g>
    </g>
   </g>
   <g id="matplotlib.axis_8">
    <g id="ytick_8">
     <g id="line2d_66">
      <path d="M 100.8 438.540463 
L 987.84 438.540463 
" clip-path="url(#p2eab630041)" style="fill: none; stroke-dasharray: 1.85,0.8; stroke-dashoffset: 0; stroke: #b2b2b2; stroke-width: 0.5"/>
     </g>
     <g id="line2d_67">
      <g>
       <use xlink:href="#m1898a7cc81" x="100.8" y="438.540463" style="stroke: #000000; stroke-width: 0.8"/>
      </g>
     </g>
     <g id="text_11">
      <!-- 0 V -->
      <g transform="translate(74.36625 443.859369) scale(0.14 -0.14)">
       <use xlink:href="#DejaVuSans-30"/>
       <use xlink:href="#DejaVuSans-20" x="63.623047"/>
       <use xlink:href="#DejaVuSans-56" x="95.410156"/>
      </g>
     </g>
    </g>
    <g id="ytick_9">
     <g id="line2d_68">
      <path d="M 100.8 398.722903 
L 987.84 398.722903 
" clip-path="url(#p2eab630041)" style="fill: none; stroke-dasharray: 1.85,0.8; stroke-dashoffset: 0; stroke: #b2b2b2; stroke-width: 0.5"/>
     </g>
     <g id="line2d_69">
      <g>
       <use xlink:href="#m1898a7cc81" x="100.8" y="398.722903" style="stroke: #000000; stroke-width: 0.8"/>
      </g>
     </g>
     <g id="text_12">
      <!-- 1 V -->
      <g transform="translate(74.36625 404.041809) scale(0.14 -0.14)">
       <use xlink:href="#DejaVuSans-31"/>
       <use xlink:href="#DejaVuSans-20" x="63.623047"/>
       <use xlink:href="#DejaVuSans-56" x="95.410156"/>
      </g>
     </g>
    </g>
    <g id="text_13">
     <g id="patch_21">
      <path d="M 34.8768 454.693023 
L 34.8768 383.46146 
L 11.247425 383.46146 
L 11.247425 454.693023 
z
" style="fill: #ffff00; opacity: 0.2; stroke: #eeeeee; stroke-width: 0.5; stroke-linejoin: miter"/>
     </g>
     <!-- DFF OUT -->
     <g transform="translate(26.925238 449.653023) rotate(-90) scale(0.14 -0.14)">
      <defs>
       <path id="DejaVuSans-4f" d="M 2522 4238 
Q 1834 4238 1429 3725 
Q 1025 3213 1025 2328 
Q 1025 1447 1429 934 
Q 1834 422 2522 422 
Q 3209 422 3611 934 
Q 4013 1447 4013 2328 
Q 4013 3213 3611 3725 
Q 3209 4238 2522 4238 
z
M 2522 4750 
Q 3503 4750 4090 4092 
Q 4678 3434 4678 2328 
Q 4678 1225 4090 567 
Q 3503 -91 2522 -91 
Q 1538 -91 948 565 
Q 359 1222 359 2328 
Q 359 3434 948 4092 
Q 1538 4750 2522 4750 
z
" transform="scale(0.015625)"/>
       <path id="DejaVuSans-54" d="M -19 4666 
L 3928 4666 
L 3928 4134 
L 2272 4134 
L 2272 0 
L 1638 0 
L 1638 4134 
L -19 4134 
L -19 4666 
z
" transform="scale(0.015625)"/>
      </defs>
      <use xlink:href="#DejaVuSans-44"/>
      <use xlink:href="#DejaVuSans-46" x="77.001953"/>
      <use xlink:href="#DejaVuSans-46" x="134.521484"/>
      <use xlink:href="#DejaVuSans-20" x="192.041016"/>
      <use xlink:href="#DejaVuSans-4f" x="223.828125"/>
      <use xlink:href="#DejaVuSans-55" x="302.539062"/>
      <use xlink:href="#DejaVuSans-54" x="375.732422"/>
     </g>
    </g>
   </g>
   <g id="line2d_70">
    <path d="M 141.12 408.496919 
L 173.408256 408.545497 
L 173.440512 410.193944 
L 173.601792 438.542893 
L 174.117888 438.538268 
L 184.34304 438.539411 
L 254.048256 438.541069 
L 254.080512 438.700242 
L 254.112768 438.436949 
L 254.306304 434.549549 
L 254.596608 433.770319 
L 254.693376 433.214466 
L 255.14496 426.238429 
L 255.370752 409.842355 
L 255.596544 391.145622 
L 255.757824 390.819118 
L 255.983616 390.75541 
L 256.91904 390.759391 
L 295.755264 390.839026 
L 296.239104 393.415223 
L 296.59392 392.770178 
L 297.948672 391.085895 
L 299.593728 390.791245 
L 334.688256 390.775318 
L 334.720512 390.659847 
L 334.752768 391.245166 
L 334.785024 394.139902 
L 334.914048 438.524141 
L 334.97856 438.489098 
L 335.13984 438.532117 
L 335.494656 438.539884 
L 366.815232 438.539366 
L 415.328256 438.541045 
L 415.360512 438.699689 
L 415.392768 438.439155 
L 415.586304 434.456774 
L 415.876608 433.542961 
L 415.908864 433.433462 
L 416.1024 428.711498 
L 416.521728 414.964884 
L 416.9088 390.890789 
L 417.102336 390.763373 
L 417.811968 390.787264 
L 495.968256 390.775318 
L 496.000512 390.910698 
L 496.065024 390.727537 
L 496.355328 390.751428 
L 576.608256 390.775318 
L 576.640512 390.910698 
L 576.705024 390.727537 
L 576.995328 390.751428 
L 612.154368 390.858935 
L 613.767168 393.017047 
L 615.476736 395.752513 
L 620.024832 403.253743 
L 620.637696 404.728586 
L 621.25056 406.951998 
L 621.605376 408.271154 
L 621.7344 408.737418 
L 622.5408 412.5388 
L 622.573056 412.481463 
L 622.605312 412.404217 
L 622.637568 412.451998 
L 623.121408 415.212549 
L 623.18592 415.034963 
L 623.218176 415.426369 
L 623.250432 415.111014 
L 623.282688 415.486892 
L 623.50848 416.957753 
L 623.702016 417.895058 
L 623.766528 417.785162 
L 623.83104 417.872362 
L 623.863296 417.946821 
L 624.024576 419.379855 
L 624.992256 423.967634 
L 625.024512 423.725543 
L 625.056768 423.529641 
L 625.089024 423.676169 
L 625.28256 425.298337 
L 625.60512 426.658107 
L 625.637376 426.323241 
L 625.669632 426.377393 
L 625.830912 427.808436 
L 626.540544 430.969552 
L 627.443712 434.895404 
L 627.508224 434.740275 
L 627.54048 434.719928 
L 627.70176 435.555858 
L 627.86304 436.65972 
L 628.153344 437.445878 
L 628.1856 437.305959 
L 628.217856 438.222583 
L 628.314624 437.856835 
L 628.766208 440.31103 
L 628.798464 440.053888 
L 628.83072 440.159086 
L 628.959744 440.686151 
L 628.992 440.549338 
L 629.024256 440.765747 
L 629.185536 441.917231 
L 629.540352 443.009984 
L 629.572608 442.843944 
L 629.604864 442.884957 
L 629.733888 443.34684 
L 629.766144 443.168458 
L 629.830656 443.359582 
L 629.895168 443.526417 
L 630.056448 444.380106 
L 630.185472 444.652458 
L 630.217728 444.481641 
L 630.379008 445.175263 
L 630.830592 446.160747 
L 630.862848 446.058416 
L 630.92736 446.14482 
L 631.024128 446.272634 
L 631.185408 446.79743 
L 631.217664 446.584008 
L 631.24992 446.677977 
L 631.282176 447.118359 
L 631.378944 446.95232 
L 631.4112 447.024788 
L 631.57248 447.791276 
L 634.862592 455.208889 
L 634.894848 455.148765 
L 635.088384 455.742445 
L 635.12064 455.630955 
L 635.152896 455.855526 
L 635.185152 455.744834 
L 635.862528 457.401642 
L 637.8624 461.227712 
L 637.926912 461.168782 
L 638.18496 460.946201 
L 639.055872 459.285013 
L 639.539712 458.3931 
L 639.571968 458.5022 
L 640.991232 456.188401 
L 641.604096 455.460138 
L 641.636352 455.607861 
L 641.668608 455.398819 
L 641.700864 455.479649 
L 641.73312 455.472482 
L 641.862144 455.234771 
L 642.152448 454.991485 
L 642.313728 454.809519 
L 642.636288 454.233757 
L 642.668544 454.356395 
L 642.7008 454.144566 
L 642.86208 453.959016 
L 642.894336 454.117888 
L 642.926592 453.884955 
L 642.958848 454.064134 
L 643.249152 453.483196 
L 643.281408 453.642865 
L 643.313664 453.401172 
L 643.926528 452.77962 
L 643.958784 452.980301 
L 644.023296 452.705559 
L 644.087808 452.628711 
L 644.15232 452.758915 
L 644.3136 452.464265 
L 644.829696 452.082415 
L 645.12 451.714102 
L 645.28128 451.311945 
L 646.023168 450.480156 
L 646.055424 450.443524 
L 646.08768 450.71707 
L 646.152192 450.405299 
L 646.184448 450.634648 
L 646.24896 450.259169 
L 646.313472 450.334026 
L 646.345728 450.404503 
L 646.377984 450.260761 
L 646.507008 450.02305 
L 646.700544 449.882494 
L 646.7328 450.073619 
L 646.797312 449.976464 
L 647.05536 449.674249 
L 647.313408 449.476753 
L 648.02304 448.481713 
L 648.474624 447.925063 
L 648.571392 448.093491 
L 648.603648 447.996735 
L 648.66816 448.111808 
L 648.732672 447.786896 
L 648.764928 447.904756 
L 648.797184 447.821139 
L 648.926208 447.456012 
L 648.861696 447.919489 
L 648.958464 447.476717 
L 648.99072 447.773358 
L 649.022976 447.362043 
L 649.055232 447.561529 
L 649.248768 447.211931 
L 649.281024 447.363636 
L 649.377792 447.318244 
L 649.506816 447.040715 
L 650.151936 446.697488 
L 650.732544 446.034127 
L 650.861568 445.69528 
L 650.92608 445.875653 
L 651.055104 445.384305 
L 651.08736 445.335329 
L 651.119616 445.692094 
L 651.184128 445.220256 
L 651.216384 445.600116 
L 651.345408 445.083284 
L 651.474432 444.934366 
L 651.506688 445.336524 
L 651.5712 445.23698 
L 651.73248 444.632549 
L 651.764736 444.941932 
L 651.861504 444.871853 
L 651.89376 444.897734 
L 652.022784 444.479252 
L 652.506624 444.216058 
L 652.571136 444.376124 
L 652.603392 444.16748 
L 652.86144 444.154738 
L 654.15168 442.963795 
L 654.280704 442.335793 
L 654.31296 442.675516 
L 654.377472 442.249588 
L 654.409728 442.224104 
L 654.47424 442.519352 
L 654.506496 442.294542 
L 654.538752 442.279531 
L 654.571008 442.361196 
L 654.63552 441.944904 
L 654.667776 442.444734 
L 654.700032 442.354188 
L 654.732288 441.804507 
L 654.829056 442.023504 
L 654.893568 441.791168 
L 654.925824 441.921372 
L 654.990336 442.107957 
L 655.11936 441.598929 
L 655.6032 441.356997 
L 656.08704 441.172642 
L 657.216 440.04469 
L 657.280512 439.39662 
L 657.345024 439.434048 
L 657.37728 439.78719 
L 657.409536 439.348202 
L 657.474048 439.676537 
L 657.53856 439.087795 
L 657.603072 439.484338 
L 657.893376 439.010429 
L 657.957888 438.565878 
L 658.0224 438.755513 
L 658.18368 438.517496 
L 658.893312 437.268371 
L 658.99008 437.105557 
L 659.15136 436.156705 
L 659.31264 435.953317 
L 659.344896 436.426986 
L 659.441664 436.23626 
L 659.538432 435.91541 
L 659.570688 435.949773 
L 659.602944 435.982025 
L 659.6352 435.933408 
L 660.667392 433.899726 
L 660.699648 433.269016 
L 660.796416 433.539377 
L 660.828672 433.143591 
L 660.92544 433.250302 
L 661.022208 433.276581 
L 661.89312 431.614596 
L 661.925376 431.653219 
L 662.0544 431.044409 
L 662.118912 431.057549 
L 662.151168 431.176205 
L 662.183424 430.522799 
L 662.280192 430.635483 
L 662.37696 430.816254 
L 662.441472 430.70795 
L 664.183296 427.425789 
L 664.441344 426.908559 
L 664.602624 426.637003 
L 664.63488 426.854009 
L 664.667136 426.557766 
L 664.731648 426.443092 
L 664.763904 426.621474 
L 664.860672 426.557766 
L 665.054208 426.284618 
L 665.828352 424.930423 
L 666.054144 424.449825 
L 666.183168 423.694087 
L 666.215424 423.927816 
L 666.24768 423.699662 
L 666.537984 423.043468 
L 666.602496 422.94711 
L 667.53792 420.516646 
L 667.570176 420.549695 
L 667.86048 420.010963 
L 667.892736 419.27832 
L 667.989504 419.320128 
L 668.18304 419.349593 
L 668.279808 419.229743 
L 669.505536 417.070835 
L 669.570048 416.568337 
L 669.63456 416.633638 
L 669.699072 416.732783 
L 669.731328 416.680622 
L 671.795712 413.544591 
L 671.989248 413.50557 
L 672.086016 413.68674 
L 672.21504 414.75186 
L 672.408576 425.673816 
L 672.602112 437.930458 
L 672.795648 437.997391 
L 676.537344 438.124011 
L 676.827648 437.846124 
L 677.505024 437.351789 
L 678.375936 437.01756 
L 679.537152 436.833165 
L 681.440256 436.788968 
L 686.665728 436.970257 
L 696.56832 437.238309 
L 698.82624 437.221028 
L 702.406656 437.38205 
L 703.148544 438.056998 
L 703.954944 438.457065 
L 705.083904 438.728083 
L 706.761216 438.871788 
L 711.115776 438.911662 
L 718.5024 438.860747 
L 722.727936 438.951897 
L 725.501952 439.002545 
L 737.888256 438.900135 
L 737.920512 439.22194 
L 738.210816 430.661364 
L 738.436608 428.838516 
L 738.597888 424.685943 
L 738.791424 409.635702 
L 739.113984 376.982516 
L 739.14624 376.926771 
L 739.210752 376.998443 
L 748.403712 380.291355 
L 748.726272 380.394881 
L 750.468096 380.928436 
L 750.855168 381.031962 
L 752.3712 381.485882 
L 752.790528 381.589407 
L 754.113024 381.963692 
L 754.532352 382.067218 
L 755.725824 382.397704 
L 756.661248 382.624664 
L 757.53216 382.839679 
L 757.919232 382.943204 
L 758.693376 383.118402 
L 759.177216 383.221927 
L 759.95136 383.397125 
L 760.338432 383.50065 
L 761.015808 383.63603 
L 761.40288 383.739556 
L 762.080256 383.874935 
L 762.564096 383.978461 
L 763.241472 384.113841 
L 763.725312 384.217366 
L 764.402688 384.352746 
L 764.886528 384.456272 
L 765.563904 384.591651 
L 766.144512 384.695177 
L 766.821888 384.830557 
L 767.402496 384.934082 
L 767.950848 385.029645 
L 768.466944 385.13317 
L 769.015296 385.228732 
L 769.62816 385.328276 
L 769.982976 385.388003 
L 770.59584 385.491528 
L 771.144192 385.58709 
L 771.757056 385.686634 
L 772.111872 385.746361 
L 772.821504 385.845904 
L 773.17632 385.905631 
L 773.885952 386.005175 
L 774.240768 386.064901 
L 774.9504 386.164445 
L 775.305216 386.224171 
L 776.014848 386.323715 
L 776.369664 386.383442 
L 777.176064 386.482985 
L 777.53088 386.542712 
L 778.272768 386.590493 
L 778.305024 386.67411 
L 778.401792 386.626329 
L 778.788864 386.701982 
L 779.692032 386.801526 
L 780.046848 386.861252 
L 780.950016 386.960796 
L 781.24032 386.980705 
L 782.014464 387.080249 
L 782.36928 387.139975 
L 783.369216 387.239519 
L 783.65952 387.259428 
L 784.433664 387.358972 
L 784.723968 387.378881 
L 785.59488 387.478424 
L 785.885184 387.498333 
L 786.756096 387.597877 
L 787.0464 387.617786 
L 787.917312 387.71733 
L 788.207616 387.737239 
L 789.175296 387.836782 
L 789.4656 387.856691 
L 790.530048 387.956235 
L 790.820352 387.976144 
L 791.8848 388.075688 
L 792.175104 388.095597 
L 793.33632 388.19514 
L 793.626624 388.215049 
L 794.78784 388.314593 
L 795.078144 388.334502 
L 796.432896 388.434046 
L 796.7232 388.453955 
L 798.077952 388.553499 
L 798.368256 388.573407 
L 799.819776 388.672951 
L 800.077824 388.688878 
L 801.658368 388.792404 
L 801.916416 388.808331 
L 803.593728 388.911857 
L 803.851776 388.927784 
L 805.722624 389.031309 
L 805.980672 389.047236 
L 807.948288 389.150762 
L 808.206336 389.166689 
L 810.367488 389.270215 
L 810.722304 389.290123 
L 812.980224 389.389667 
L 813.238272 389.405594 
L 815.883264 389.50912 
L 816.173568 389.529029 
L 818.528256 389.588755 
L 818.560512 389.843587 
L 818.625024 389.572828 
L 818.81856 389.6007 
L 821.302272 389.708208 
L 821.56032 389.724135 
L 825.076224 389.82766 
L 825.334272 389.843587 
L 829.334016 389.947113 
L 829.592064 389.96304 
L 834.269184 390.066566 
L 834.624 390.082493 
L 840.172032 390.186018 
L 840.526848 390.205927 
L 847.429632 390.305471 
L 847.784448 390.32538 
L 899.168256 390.357234 
L 899.200512 390.560304 
L 899.265024 390.357234 
L 899.45856 390.337325 
L 900.555264 390.361216 
L 947.52 390.361216 
L 947.52 390.361216 
" clip-path="url(#p2eab630041)" style="fill: none; stroke: #ff00ff; stroke-width: 2; stroke-linecap: square"/>
   </g>
   <g id="patch_22">
    <path d="M 100.8 465.442759 
L 100.8 372.711724 
" style="fill: none; stroke: #bcbcbc; stroke-width: 0.8; stroke-linejoin: miter; stroke-linecap: square"/>
   </g>
   <g id="patch_23">
    <path d="M 987.84 465.442759 
L 987.84 372.711724 
" style="fill: none; stroke: #bcbcbc; stroke-width: 0.8; stroke-linejoin: miter; stroke-linecap: square"/>
   </g>
   <g id="patch_24">
    <path d="M 100.8 465.442759 
L 987.84 465.442759 
" style="fill: none; stroke: #bcbcbc; stroke-width: 0.8; stroke-linejoin: miter; stroke-linecap: square"/>
   </g>
   <g id="patch_25">
    <path d="M 100.8 372.711724 
L 987.84 372.711724 
" style="fill: none; stroke: #bcbcbc; stroke-width: 0.8; stroke-linejoin: miter; stroke-linecap: square"/>
   </g>
  </g>
  <g id="axes_5">
   <g id="patch_26">
    <path d="M 100.8 576.72 
L 987.84 576.72 
L 987.84 483.988966 
L 100.8 483.988966 
z
" style="fill: #eeeeee"/>
   </g>
   <g id="matplotlib.axis_9">
    <g id="xtick_25">
     <g id="line2d_71">
      <path d="M 141.12 576.72 
L 141.12 483.988966 
" clip-path="url(#pcda11435ad)" style="fill: none; stroke-dasharray: 1.85,0.8; stroke-dashoffset: 0; stroke: #b2b2b2; stroke-width: 0.5"/>
     </g>
     <g id="line2d_72">
      <g>
       <use xlink:href="#mcc16e97e9b" x="141.12" y="576.72" style="stroke: #000000; stroke-width: 0.8"/>
      </g>
     </g>
     <g id="text_14">
      <!-- 0 s -->
      <g transform="translate(130.795 590.857813) scale(0.14 -0.14)">
       <defs>
        <path id="DejaVuSans-73" d="M 2834 3397 
L 2834 2853 
Q 2591 2978 2328 3040 
Q 2066 3103 1784 3103 
Q 1356 3103 1142 2972 
Q 928 2841 928 2578 
Q 928 2378 1081 2264 
Q 1234 2150 1697 2047 
L 1894 2003 
Q 2506 1872 2764 1633 
Q 3022 1394 3022 966 
Q 3022 478 2636 193 
Q 2250 -91 1575 -91 
Q 1294 -91 989 -36 
Q 684 19 347 128 
L 347 722 
Q 666 556 975 473 
Q 1284 391 1588 391 
Q 1994 391 2212 530 
Q 2431 669 2431 922 
Q 2431 1156 2273 1281 
Q 2116 1406 1581 1522 
L 1381 1569 
Q 847 1681 609 1914 
Q 372 2147 372 2553 
Q 372 3047 722 3315 
Q 1072 3584 1716 3584 
Q 2034 3584 2315 3537 
Q 2597 3491 2834 3397 
z
" transform="scale(0.015625)"/>
       </defs>
       <use xlink:href="#DejaVuSans-30"/>
       <use xlink:href="#DejaVuSans-20" x="63.623047"/>
       <use xlink:href="#DejaVuSans-73" x="95.410156"/>
      </g>
     </g>
    </g>
    <g id="xtick_26">
     <g id="line2d_73">
      <path d="M 302.4 576.72 
L 302.4 483.988966 
" clip-path="url(#pcda11435ad)" style="fill: none; stroke-dasharray: 1.85,0.8; stroke-dashoffset: 0; stroke: #b2b2b2; stroke-width: 0.5"/>
     </g>
     <g id="line2d_74">
      <g>
       <use xlink:href="#mcc16e97e9b" x="302.4" y="576.72" style="stroke: #000000; stroke-width: 0.8"/>
      </g>
     </g>
     <g id="text_15">
      <!-- 50 ns -->
      <g transform="translate(283.185 590.857813) scale(0.14 -0.14)">
       <defs>
        <path id="DejaVuSans-35" d="M 691 4666 
L 3169 4666 
L 3169 4134 
L 1269 4134 
L 1269 2991 
Q 1406 3038 1543 3061 
Q 1681 3084 1819 3084 
Q 2600 3084 3056 2656 
Q 3513 2228 3513 1497 
Q 3513 744 3044 326 
Q 2575 -91 1722 -91 
Q 1428 -91 1123 -41 
Q 819 9 494 109 
L 494 744 
Q 775 591 1075 516 
Q 1375 441 1709 441 
Q 2250 441 2565 725 
Q 2881 1009 2881 1497 
Q 2881 1984 2565 2268 
Q 2250 2553 1709 2553 
Q 1456 2553 1204 2497 
Q 953 2441 691 2322 
L 691 4666 
z
" transform="scale(0.015625)"/>
        <path id="DejaVuSans-6e" d="M 3513 2113 
L 3513 0 
L 2938 0 
L 2938 2094 
Q 2938 2591 2744 2837 
Q 2550 3084 2163 3084 
Q 1697 3084 1428 2787 
Q 1159 2491 1159 1978 
L 1159 0 
L 581 0 
L 581 3500 
L 1159 3500 
L 1159 2956 
Q 1366 3272 1645 3428 
Q 1925 3584 2291 3584 
Q 2894 3584 3203 3211 
Q 3513 2838 3513 2113 
z
" transform="scale(0.015625)"/>
       </defs>
       <use xlink:href="#DejaVuSans-35"/>
       <use xlink:href="#DejaVuSans-30" x="63.623047"/>
       <use xlink:href="#DejaVuSans-20" x="127.246094"/>
       <use xlink:href="#DejaVuSans-6e" x="159.033203"/>
       <use xlink:href="#DejaVuSans-73" x="222.412109"/>
      </g>
     </g>
    </g>
    <g id="xtick_27">
     <g id="line2d_75">
      <path d="M 463.68 576.72 
L 463.68 483.988966 
" clip-path="url(#pcda11435ad)" style="fill: none; stroke-dasharray: 1.85,0.8; stroke-dashoffset: 0; stroke: #b2b2b2; stroke-width: 0.5"/>
     </g>
     <g id="line2d_76">
      <g>
       <use xlink:href="#mcc16e97e9b" x="463.68" y="576.72" style="stroke: #000000; stroke-width: 0.8"/>
      </g>
     </g>
     <g id="text_16">
      <!-- 100 ns -->
      <g transform="translate(440.01125 590.857813) scale(0.14 -0.14)">
       <use xlink:href="#DejaVuSans-31"/>
       <use xlink:href="#DejaVuSans-30" x="63.623047"/>
       <use xlink:href="#DejaVuSans-30" x="127.246094"/>
       <use xlink:href="#DejaVuSans-20" x="190.869141"/>
       <use xlink:href="#DejaVuSans-6e" x="222.65625"/>
       <use xlink:href="#DejaVuSans-73" x="286.035156"/>
      </g>
     </g>
    </g>
    <g id="xtick_28">
     <g id="line2d_77">
      <path d="M 624.96 576.72 
L 624.96 483.988966 
" clip-path="url(#pcda11435ad)" style="fill: none; stroke-dasharray: 1.85,0.8; stroke-dashoffset: 0; stroke: #b2b2b2; stroke-width: 0.5"/>
     </g>
     <g id="line2d_78">
      <g>
       <use xlink:href="#mcc16e97e9b" x="624.96" y="576.72" style="stroke: #000000; stroke-width: 0.8"/>
      </g>
     </g>
     <g id="text_17">
      <!-- 150 ns -->
      <g transform="translate(601.29125 590.857813) scale(0.14 -0.14)">
       <use xlink:href="#DejaVuSans-31"/>
       <use xlink:href="#DejaVuSans-35" x="63.623047"/>
       <use xlink:href="#DejaVuSans-30" x="127.246094"/>
       <use xlink:href="#DejaVuSans-20" x="190.869141"/>
       <use xlink:href="#DejaVuSans-6e" x="222.65625"/>
       <use xlink:href="#DejaVuSans-73" x="286.035156"/>
      </g>
     </g>
    </g>
    <g id="xtick_29">
     <g id="line2d_79">
      <path d="M 786.24 576.72 
L 786.24 483.988966 
" clip-path="url(#pcda11435ad)" style="fill: none; stroke-dasharray: 1.85,0.8; stroke-dashoffset: 0; stroke: #b2b2b2; stroke-width: 0.5"/>
     </g>
     <g id="line2d_80">
      <g>
       <use xlink:href="#mcc16e97e9b" x="786.24" y="576.72" style="stroke: #000000; stroke-width: 0.8"/>
      </g>
     </g>
     <g id="text_18">
      <!-- 200 ns -->
      <g transform="translate(762.57125 590.857813) scale(0.14 -0.14)">
       <use xlink:href="#DejaVuSans-32"/>
       <use xlink:href="#DejaVuSans-30" x="63.623047"/>
       <use xlink:href="#DejaVuSans-30" x="127.246094"/>
       <use xlink:href="#DejaVuSans-20" x="190.869141"/>
       <use xlink:href="#DejaVuSans-6e" x="222.65625"/>
       <use xlink:href="#DejaVuSans-73" x="286.035156"/>
      </g>
     </g>
    </g>
    <g id="xtick_30">
     <g id="line2d_81">
      <path d="M 947.52 576.72 
L 947.52 483.988966 
" clip-path="url(#pcda11435ad)" style="fill: none; stroke-dasharray: 1.85,0.8; stroke-dashoffset: 0; stroke: #b2b2b2; stroke-width: 0.5"/>
     </g>
     <g id="line2d_82">
      <g>
       <use xlink:href="#mcc16e97e9b" x="947.52" y="576.72" style="stroke: #000000; stroke-width: 0.8"/>
      </g>
     </g>
     <g id="text_19">
      <!-- 250 ns -->
      <g transform="translate(923.85125 590.857813) scale(0.14 -0.14)">
       <use xlink:href="#DejaVuSans-32"/>
       <use xlink:href="#DejaVuSans-35" x="63.623047"/>
       <use xlink:href="#DejaVuSans-30" x="127.246094"/>
       <use xlink:href="#DejaVuSans-20" x="190.869141"/>
       <use xlink:href="#DejaVuSans-6e" x="222.65625"/>
       <use xlink:href="#DejaVuSans-73" x="286.035156"/>
      </g>
     </g>
    </g>
    <g id="text_20">
     <!-- Time -->
     <g transform="translate(527.192969 608.407187) scale(0.14 -0.14)">
      <defs>
       <path id="DejaVuSans-69" d="M 603 3500 
L 1178 3500 
L 1178 0 
L 603 0 
L 603 3500 
z
M 603 4863 
L 1178 4863 
L 1178 4134 
L 603 4134 
L 603 4863 
z
" transform="scale(0.015625)"/>
       <path id="DejaVuSans-6d" d="M 3328 2828 
Q 3544 3216 3844 3400 
Q 4144 3584 4550 3584 
Q 5097 3584 5394 3201 
Q 5691 2819 5691 2113 
L 5691 0 
L 5113 0 
L 5113 2094 
Q 5113 2597 4934 2840 
Q 4756 3084 4391 3084 
Q 3944 3084 3684 2787 
Q 3425 2491 3425 1978 
L 3425 0 
L 2847 0 
L 2847 2094 
Q 2847 2600 2669 2842 
Q 2491 3084 2119 3084 
Q 1678 3084 1418 2786 
Q 1159 2488 1159 1978 
L 1159 0 
L 581 0 
L 581 3500 
L 1159 3500 
L 1159 2956 
Q 1356 3278 1631 3431 
Q 1906 3584 2284 3584 
Q 2666 3584 2933 3390 
Q 3200 3197 3328 2828 
z
" transform="scale(0.015625)"/>
       <path id="DejaVuSans-65" d="M 3597 1894 
L 3597 1613 
L 953 1613 
Q 991 1019 1311 708 
Q 1631 397 2203 397 
Q 2534 397 2845 478 
Q 3156 559 3463 722 
L 3463 178 
Q 3153 47 2828 -22 
Q 2503 -91 2169 -91 
Q 1331 -91 842 396 
Q 353 884 353 1716 
Q 353 2575 817 3079 
Q 1281 3584 2069 3584 
Q 2775 3584 3186 3129 
Q 3597 2675 3597 1894 
z
M 3022 2063 
Q 3016 2534 2758 2815 
Q 2500 3097 2075 3097 
Q 1594 3097 1305 2825 
Q 1016 2553 972 2059 
L 3022 2063 
z
" transform="scale(0.015625)"/>
      </defs>
      <use xlink:href="#DejaVuSans-54"/>
      <use xlink:href="#DejaVuSans-69" x="57.958984"/>
      <use xlink:href="#DejaVuSans-6d" x="85.742188"/>
      <use xlink:href="#DejaVuSans-65" x="183.154297"/>
     </g>
    </g>
   </g>
   <g id="matplotlib.axis_10">
    <g id="ytick_10">
     <g id="line2d_83">
      <path d="M 100.8 569.745885 
L 987.84 569.745885 
" clip-path="url(#pcda11435ad)" style="fill: none; stroke-dasharray: 1.85,0.8; stroke-dashoffset: 0; stroke: #b2b2b2; stroke-width: 0.5"/>
     </g>
     <g id="line2d_84">
      <g>
       <use xlink:href="#m1898a7cc81" x="100.8" y="569.745885" style="stroke: #000000; stroke-width: 0.8"/>
      </g>
     </g>
     <g id="text_21">
      <!-- 0 V -->
      <g transform="translate(74.36625 575.064792) scale(0.14 -0.14)">
       <use xlink:href="#DejaVuSans-30"/>
       <use xlink:href="#DejaVuSans-20" x="63.623047"/>
       <use xlink:href="#DejaVuSans-56" x="95.410156"/>
      </g>
     </g>
    </g>
    <g id="ytick_11">
     <g id="line2d_85">
      <path d="M 100.8 535.950348 
L 987.84 535.950348 
" clip-path="url(#pcda11435ad)" style="fill: none; stroke-dasharray: 1.85,0.8; stroke-dashoffset: 0; stroke: #b2b2b2; stroke-width: 0.5"/>
     </g>
     <g id="line2d_86">
      <g>
       <use xlink:href="#m1898a7cc81" x="100.8" y="535.950348" style="stroke: #000000; stroke-width: 0.8"/>
      </g>
     </g>
     <g id="text_22">
      <!-- 500 mV -->
      <g transform="translate(42.914375 541.269254) scale(0.14 -0.14)">
       <use xlink:href="#DejaVuSans-35"/>
       <use xlink:href="#DejaVuSans-30" x="63.623047"/>
       <use xlink:href="#DejaVuSans-30" x="127.246094"/>
       <use xlink:href="#DejaVuSans-20" x="190.869141"/>
       <use xlink:href="#DejaVuSans-6d" x="222.65625"/>
       <use xlink:href="#DejaVuSans-56" x="320.068359"/>
      </g>
     </g>
    </g>
    <g id="ytick_12">
     <g id="line2d_87">
      <path d="M 100.8 502.15481 
L 987.84 502.15481 
" clip-path="url(#pcda11435ad)" style="fill: none; stroke-dasharray: 1.85,0.8; stroke-dashoffset: 0; stroke: #b2b2b2; stroke-width: 0.5"/>
     </g>
     <g id="line2d_88">
      <g>
       <use xlink:href="#m1898a7cc81" x="100.8" y="502.15481" style="stroke: #000000; stroke-width: 0.8"/>
      </g>
     </g>
     <g id="text_23">
      <!-- 1 V -->
      <g transform="translate(74.36625 507.473717) scale(0.14 -0.14)">
       <use xlink:href="#DejaVuSans-31"/>
       <use xlink:href="#DejaVuSans-20" x="63.623047"/>
       <use xlink:href="#DejaVuSans-56" x="95.410156"/>
      </g>
     </g>
    </g>
    <g id="text_24">
     <g id="patch_27">
      <path d="M 34.8768 554.329483 
L 34.8768 506.379483 
L 11.247425 506.379483 
L 11.247425 554.329483 
z
" style="fill: #ffff00; opacity: 0.2; stroke: #eeeeee; stroke-width: 0.5; stroke-linejoin: miter"/>
     </g>
     <!-- FOUT -->
     <g transform="translate(26.925238 549.289483) rotate(-90) scale(0.14 -0.14)">
      <use xlink:href="#DejaVuSans-46"/>
      <use xlink:href="#DejaVuSans-4f" x="57.519531"/>
      <use xlink:href="#DejaVuSans-55" x="136.230469"/>
      <use xlink:href="#DejaVuSans-54" x="209.423828"/>
     </g>
    </g>
   </g>
   <g id="line2d_89">
    <path d="M 141.12 488.636595 
L 173.472768 488.643355 
L 173.505024 488.44734 
L 173.569536 526.789729 
L 173.69856 572.504953 
L 173.730816 572.3695 
L 173.827584 567.842115 
L 173.892096 569.3609 
L 174.053376 570.064192 
L 174.117888 569.946665 
L 174.408192 569.492054 
L 174.440448 569.54151 
L 174.66624 569.729954 
L 176.182272 569.740151 
L 180.117504 569.761449 
L 193.568256 569.752159 
L 212.954112 569.74401 
L 255.30624 569.743704 
L 255.6288 488.52845 
L 255.854592 488.670391 
L 256.209408 488.629836 
L 334.849536 488.650114 
L 334.881792 492.854278 
L 335.043072 572.18376 
L 335.107584 570.261206 
L 335.172096 568.338639 
L 335.236608 568.870108 
L 335.365632 570.783003 
L 335.430144 570.410083 
L 335.591424 569.797213 
L 335.881728 569.648439 
L 336.559104 569.817924 
L 337.107456 569.746143 
L 350.009856 569.744206 
L 416.489472 569.74333 
L 416.553984 567.480841 
L 416.812032 488.204013 
L 416.844288 488.339195 
L 416.973312 488.852887 
L 417.037824 488.778537 
L 417.39264 488.548727 
L 417.844224 488.717705 
L 418.457088 488.562245 
L 419.328 488.636595 
L 623.476224 488.562245 
L 623.50848 488.420304 
L 623.540736 488.596041 
L 623.605248 512.810543 
L 623.734272 570.214988 
L 623.766528 569.799626 
L 623.895552 569.74939 
L 624.895488 569.74421 
L 669.95712 569.811396 
L 669.989376 569.862872 
L 670.021632 569.831983 
L 670.053888 568.213393 
L 670.182912 504.478592 
L 670.311936 488.792055 
L 670.473216 488.643355 
L 671.021568 488.636595 
L 672.182784 488.636595 
L 672.279552 489.298988 
L 672.344064 489.846476 
L 672.505344 569.787324 
L 672.666624 569.744187 
L 738.726912 569.741253 
L 738.791424 570.047815 
L 738.855936 534.483622 
L 739.017216 488.967792 
L 739.14624 488.616318 
L 739.178496 488.636595 
L 947.52 488.636595 
L 947.52 488.636595 
" clip-path="url(#pcda11435ad)" style="fill: none; stroke: #ff00ff; stroke-width: 2; stroke-linecap: square"/>
   </g>
   <g id="patch_28">
    <path d="M 100.8 576.72 
L 100.8 483.988966 
" style="fill: none; stroke: #bcbcbc; stroke-width: 0.8; stroke-linejoin: miter; stroke-linecap: square"/>
   </g>
   <g id="patch_29">
    <path d="M 987.84 576.72 
L 987.84 483.988966 
" style="fill: none; stroke: #bcbcbc; stroke-width: 0.8; stroke-linejoin: miter; stroke-linecap: square"/>
   </g>
   <g id="patch_30">
    <path d="M 100.8 576.72 
L 987.84 576.72 
" style="fill: none; stroke: #bcbcbc; stroke-width: 0.8; stroke-linejoin: miter; stroke-linecap: square"/>
   </g>
   <g id="patch_31">
    <path d="M 100.8 483.988966 
L 987.84 483.988966 
" style="fill: none; stroke: #bcbcbc; stroke-width: 0.8; stroke-linejoin: miter; stroke-linecap: square"/>
   </g>
  </g>
  <g id="axes_6">
   <g id="patch_32">
    <path d="M 201.6 628.56 
L 856.8 628.56 
L 856.8 615.6 
L 201.6 615.6 
z
" clip-path="url(#p5de1aa7023)" style="fill: #d3d3d3"/>
   </g>
   <g id="patch_33">
    <path d="M 201.6 628.56 
L 810 628.56 
L 810 615.6 
L 201.6 615.6 
z
" clip-path="url(#p5de1aa7023)" style="fill: #0000ff"/>
   </g>
   <g id="line2d_90">
    <path d="M 201.6 635.04 
L 201.6 609.12 
" clip-path="url(#p1e2a601b39)" style="fill: none; stroke: #ff0000; stroke-linecap: square"/>
   </g>
   <g id="line2d_91">
    <defs>
     <path id="mfd01dd137e" d="M 0 5 
C 1.326016 5 2.597899 4.473168 3.535534 3.535534 
C 4.473168 2.597899 5 1.326016 5 0 
C 5 -1.326016 4.473168 -2.597899 3.535534 -3.535534 
C 2.597899 -4.473168 1.326016 -5 0 -5 
C -1.326016 -5 -2.597899 -4.473168 -3.535534 -3.535534 
C -4.473168 -2.597899 -5 -1.326016 -5 0 
C -5 1.326016 -4.473168 2.597899 -3.535534 3.535534 
C -2.597899 4.473168 -1.326016 5 0 5 
z
" style="stroke: #bfbfbf"/>
    </defs>
    <g>
     <use xlink:href="#mfd01dd137e" x="810" y="622.08" style="fill: #ffffff; stroke: #bfbfbf"/>
    </g>
   </g>
   <g id="text_25">
    <!-- #Sweep -->
    <g transform="translate(138.622875 625.39125) scale(0.12 -0.12)">
     <defs>
      <path id="DejaVuSans-23" d="M 3272 2816 
L 2363 2816 
L 2100 1772 
L 3016 1772 
L 3272 2816 
z
M 2803 4594 
L 2478 3297 
L 3391 3297 
L 3719 4594 
L 4219 4594 
L 3897 3297 
L 4872 3297 
L 4872 2816 
L 3775 2816 
L 3519 1772 
L 4513 1772 
L 4513 1294 
L 3397 1294 
L 3072 0 
L 2572 0 
L 2894 1294 
L 1978 1294 
L 1656 0 
L 1153 0 
L 1478 1294 
L 494 1294 
L 494 1772 
L 1594 1772 
L 1856 2816 
L 850 2816 
L 850 3297 
L 1978 3297 
L 2297 4594 
L 2803 4594 
z
" transform="scale(0.015625)"/>
      <path id="DejaVuSans-77" d="M 269 3500 
L 844 3500 
L 1563 769 
L 2278 3500 
L 2956 3500 
L 3675 769 
L 4391 3500 
L 4966 3500 
L 4050 0 
L 3372 0 
L 2619 2869 
L 1863 0 
L 1184 0 
L 269 3500 
z
" transform="scale(0.015625)"/>
      <path id="DejaVuSans-70" d="M 1159 525 
L 1159 -1331 
L 581 -1331 
L 581 3500 
L 1159 3500 
L 1159 2969 
Q 1341 3281 1617 3432 
Q 1894 3584 2278 3584 
Q 2916 3584 3314 3078 
Q 3713 2572 3713 1747 
Q 3713 922 3314 415 
Q 2916 -91 2278 -91 
Q 1894 -91 1617 61 
Q 1341 213 1159 525 
z
M 3116 1747 
Q 3116 2381 2855 2742 
Q 2594 3103 2138 3103 
Q 1681 3103 1420 2742 
Q 1159 2381 1159 1747 
Q 1159 1113 1420 752 
Q 1681 391 2138 391 
Q 2594 391 2855 752 
Q 3116 1113 3116 1747 
z
" transform="scale(0.015625)"/>
     </defs>
     <use xlink:href="#DejaVuSans-23"/>
     <use xlink:href="#DejaVuSans-53" x="83.789062"/>
     <use xlink:href="#DejaVuSans-77" x="147.265625"/>
     <use xlink:href="#DejaVuSans-65" x="229.052734"/>
     <use xlink:href="#DejaVuSans-65" x="290.576172"/>
     <use xlink:href="#DejaVuSans-70" x="352.099609"/>
    </g>
   </g>
   <g id="text_26">
    <!-- $\mathdefault{130}$ -->
    <g transform="translate(869.904 625.39125) scale(0.12 -0.12)">
     <defs>
      <path id="DejaVuSans-33" d="M 2597 2516 
Q 3050 2419 3304 2112 
Q 3559 1806 3559 1356 
Q 3559 666 3084 287 
Q 2609 -91 1734 -91 
Q 1441 -91 1130 -33 
Q 819 25 488 141 
L 488 750 
Q 750 597 1062 519 
Q 1375 441 1716 441 
Q 2309 441 2620 675 
Q 2931 909 2931 1356 
Q 2931 1769 2642 2001 
Q 2353 2234 1838 2234 
L 1294 2234 
L 1294 2753 
L 1863 2753 
Q 2328 2753 2575 2939 
Q 2822 3125 2822 3475 
Q 2822 3834 2567 4026 
Q 2313 4219 1838 4219 
Q 1578 4219 1281 4162 
Q 984 4106 628 3988 
L 628 4550 
Q 988 4650 1302 4700 
Q 1616 4750 1894 4750 
Q 2613 4750 3031 4423 
Q 3450 4097 3450 3541 
Q 3450 3153 3228 2886 
Q 3006 2619 2597 2516 
z
" transform="scale(0.015625)"/>
     </defs>
     <use xlink:href="#DejaVuSans-31" transform="translate(0 0.78125)"/>
     <use xlink:href="#DejaVuSans-33" transform="translate(63.623047 0.78125)"/>
     <use xlink:href="#DejaVuSans-30" transform="translate(127.246094 0.78125)"/>
    </g>
   </g>
  </g>
  <g id="text_27">
   <!-- DFF under BBI sweep analysis (Sweep = 140E-9) -->
   <g transform="translate(308.25625 25.1175) scale(0.16 -0.16)">
    <defs>
     <path id="DejaVuSans-75" d="M 544 1381 
L 544 3500 
L 1119 3500 
L 1119 1403 
Q 1119 906 1312 657 
Q 1506 409 1894 409 
Q 2359 409 2629 706 
Q 2900 1003 2900 1516 
L 2900 3500 
L 3475 3500 
L 3475 0 
L 2900 0 
L 2900 538 
Q 2691 219 2414 64 
Q 2138 -91 1772 -91 
Q 1169 -91 856 284 
Q 544 659 544 1381 
z
M 1991 3584 
L 1991 3584 
z
" transform="scale(0.015625)"/>
     <path id="DejaVuSans-64" d="M 2906 2969 
L 2906 4863 
L 3481 4863 
L 3481 0 
L 2906 0 
L 2906 525 
Q 2725 213 2448 61 
Q 2172 -91 1784 -91 
Q 1150 -91 751 415 
Q 353 922 353 1747 
Q 353 2572 751 3078 
Q 1150 3584 1784 3584 
Q 2172 3584 2448 3432 
Q 2725 3281 2906 2969 
z
M 947 1747 
Q 947 1113 1208 752 
Q 1469 391 1925 391 
Q 2381 391 2643 752 
Q 2906 1113 2906 1747 
Q 2906 2381 2643 2742 
Q 2381 3103 1925 3103 
Q 1469 3103 1208 2742 
Q 947 2381 947 1747 
z
" transform="scale(0.015625)"/>
     <path id="DejaVuSans-72" d="M 2631 2963 
Q 2534 3019 2420 3045 
Q 2306 3072 2169 3072 
Q 1681 3072 1420 2755 
Q 1159 2438 1159 1844 
L 1159 0 
L 581 0 
L 581 3500 
L 1159 3500 
L 1159 2956 
Q 1341 3275 1631 3429 
Q 1922 3584 2338 3584 
Q 2397 3584 2469 3576 
Q 2541 3569 2628 3553 
L 2631 2963 
z
" transform="scale(0.015625)"/>
     <path id="DejaVuSans-61" d="M 2194 1759 
Q 1497 1759 1228 1600 
Q 959 1441 959 1056 
Q 959 750 1161 570 
Q 1363 391 1709 391 
Q 2188 391 2477 730 
Q 2766 1069 2766 1631 
L 2766 1759 
L 2194 1759 
z
M 3341 1997 
L 3341 0 
L 2766 0 
L 2766 531 
Q 2569 213 2275 61 
Q 1981 -91 1556 -91 
Q 1019 -91 701 211 
Q 384 513 384 1019 
Q 384 1609 779 1909 
Q 1175 2209 1959 2209 
L 2766 2209 
L 2766 2266 
Q 2766 2663 2505 2880 
Q 2244 3097 1772 3097 
Q 1472 3097 1187 3025 
Q 903 2953 641 2809 
L 641 3341 
Q 956 3463 1253 3523 
Q 1550 3584 1831 3584 
Q 2591 3584 2966 3190 
Q 3341 2797 3341 1997 
z
" transform="scale(0.015625)"/>
     <path id="DejaVuSans-6c" d="M 603 4863 
L 1178 4863 
L 1178 0 
L 603 0 
L 603 4863 
z
" transform="scale(0.015625)"/>
     <path id="DejaVuSans-79" d="M 2059 -325 
Q 1816 -950 1584 -1140 
Q 1353 -1331 966 -1331 
L 506 -1331 
L 506 -850 
L 844 -850 
Q 1081 -850 1212 -737 
Q 1344 -625 1503 -206 
L 1606 56 
L 191 3500 
L 800 3500 
L 1894 763 
L 2988 3500 
L 3597 3500 
L 2059 -325 
z
" transform="scale(0.015625)"/>
     <path id="DejaVuSans-28" d="M 1984 4856 
Q 1566 4138 1362 3434 
Q 1159 2731 1159 2009 
Q 1159 1288 1364 580 
Q 1569 -128 1984 -844 
L 1484 -844 
Q 1016 -109 783 600 
Q 550 1309 550 2009 
Q 550 2706 781 3412 
Q 1013 4119 1484 4856 
L 1984 4856 
z
" transform="scale(0.015625)"/>
     <path id="DejaVuSans-3d" d="M 678 2906 
L 4684 2906 
L 4684 2381 
L 678 2381 
L 678 2906 
z
M 678 1631 
L 4684 1631 
L 4684 1100 
L 678 1100 
L 678 1631 
z
" transform="scale(0.015625)"/>
     <path id="DejaVuSans-34" d="M 2419 4116 
L 825 1625 
L 2419 1625 
L 2419 4116 
z
M 2253 4666 
L 3047 4666 
L 3047 1625 
L 3713 1625 
L 3713 1100 
L 3047 1100 
L 3047 0 
L 2419 0 
L 2419 1100 
L 313 1100 
L 313 1709 
L 2253 4666 
z
" transform="scale(0.015625)"/>
     <path id="DejaVuSans-2d" d="M 313 2009 
L 1997 2009 
L 1997 1497 
L 313 1497 
L 313 2009 
z
" transform="scale(0.015625)"/>
     <path id="DejaVuSans-39" d="M 703 97 
L 703 672 
Q 941 559 1184 500 
Q 1428 441 1663 441 
Q 2288 441 2617 861 
Q 2947 1281 2994 2138 
Q 2813 1869 2534 1725 
Q 2256 1581 1919 1581 
Q 1219 1581 811 2004 
Q 403 2428 403 3163 
Q 403 3881 828 4315 
Q 1253 4750 1959 4750 
Q 2769 4750 3195 4129 
Q 3622 3509 3622 2328 
Q 3622 1225 3098 567 
Q 2575 -91 1691 -91 
Q 1453 -91 1209 -44 
Q 966 3 703 97 
z
M 1959 2075 
Q 2384 2075 2632 2365 
Q 2881 2656 2881 3163 
Q 2881 3666 2632 3958 
Q 2384 4250 1959 4250 
Q 1534 4250 1286 3958 
Q 1038 3666 1038 3163 
Q 1038 2656 1286 2365 
Q 1534 2075 1959 2075 
z
" transform="scale(0.015625)"/>
     <path id="DejaVuSans-29" d="M 513 4856 
L 1013 4856 
Q 1481 4119 1714 3412 
Q 1947 2706 1947 2009 
Q 1947 1309 1714 600 
Q 1481 -109 1013 -844 
L 513 -844 
Q 928 -128 1133 580 
Q 1338 1288 1338 2009 
Q 1338 2731 1133 3434 
Q 928 4138 513 4856 
z
" transform="scale(0.015625)"/>
    </defs>
    <use xlink:href="#DejaVuSans-44"/>
    <use xlink:href="#DejaVuSans-46" x="77.001953"/>
    <use xlink:href="#DejaVuSans-46" x="134.521484"/>
    <use xlink:href="#DejaVuSans-20" x="192.041016"/>
    <use xlink:href="#DejaVuSans-75" x="223.828125"/>
    <use xlink:href="#DejaVuSans-6e" x="287.207031"/>
    <use xlink:href="#DejaVuSans-64" x="350.585938"/>
    <use xlink:href="#DejaVuSans-65" x="414.0625"/>
    <use xlink:href="#DejaVuSans-72" x="475.585938"/>
    <use xlink:href="#DejaVuSans-20" x="516.699219"/>
    <use xlink:href="#DejaVuSans-42" x="548.486328"/>
    <use xlink:href="#DejaVuSans-42" x="617.089844"/>
    <use xlink:href="#DejaVuSans-49" x="685.693359"/>
    <use xlink:href="#DejaVuSans-20" x="715.185547"/>
    <use xlink:href="#DejaVuSans-73" x="746.972656"/>
    <use xlink:href="#DejaVuSans-77" x="799.072266"/>
    <use xlink:href="#DejaVuSans-65" x="880.859375"/>
    <use xlink:href="#DejaVuSans-65" x="942.382812"/>
    <use xlink:href="#DejaVuSans-70" x="1003.90625"/>
    <use xlink:href="#DejaVuSans-20" x="1067.382812"/>
    <use xlink:href="#DejaVuSans-61" x="1099.169922"/>
    <use xlink:href="#DejaVuSans-6e" x="1160.449219"/>
    <use xlink:href="#DejaVuSans-61" x="1223.828125"/>
    <use xlink:href="#DejaVuSans-6c" x="1285.107422"/>
    <use xlink:href="#DejaVuSans-79" x="1312.890625"/>
    <use xlink:href="#DejaVuSans-73" x="1372.070312"/>
    <use xlink:href="#DejaVuSans-69" x="1424.169922"/>
    <use xlink:href="#DejaVuSans-73" x="1451.953125"/>
    <use xlink:href="#DejaVuSans-20" x="1504.052734"/>
    <use xlink:href="#DejaVuSans-28" x="1535.839844"/>
    <use xlink:href="#DejaVuSans-53" x="1574.853516"/>
    <use xlink:href="#DejaVuSans-77" x="1638.330078"/>
    <use xlink:href="#DejaVuSans-65" x="1720.117188"/>
    <use xlink:href="#DejaVuSans-65" x="1781.640625"/>
    <use xlink:href="#DejaVuSans-70" x="1843.164062"/>
    <use xlink:href="#DejaVuSans-20" x="1906.640625"/>
    <use xlink:href="#DejaVuSans-3d" x="1938.427734"/>
    <use xlink:href="#DejaVuSans-20" x="2022.216797"/>
    <use xlink:href="#DejaVuSans-31" x="2054.003906"/>
    <use xlink:href="#DejaVuSans-34" x="2117.626953"/>
    <use xlink:href="#DejaVuSans-30" x="2181.25"/>
    <use xlink:href="#DejaVuSans-45" x="2244.873047"/>
    <use xlink:href="#DejaVuSans-2d" x="2308.056641"/>
    <use xlink:href="#DejaVuSans-39" x="2344.140625"/>
    <use xlink:href="#DejaVuSans-29" x="2407.763672"/>
   </g>
  </g>
 </g>
 <defs>
  <clipPath id="pc67271a139">
   <rect x="100.8" y="38.88" width="887.04" height="92.731034"/>
  </clipPath>
  <clipPath id="p0bae891a01">
   <rect x="100.8" y="150.157241" width="887.04" height="92.731034"/>
  </clipPath>
  <clipPath id="p1cf9204fd8">
   <rect x="100.8" y="261.434483" width="887.04" height="92.731034"/>
  </clipPath>
  <clipPath id="p2eab630041">
   <rect x="100.8" y="372.711724" width="887.04" height="92.731034"/>
  </clipPath>
  <clipPath id="pcda11435ad">
   <rect x="100.8" y="483.988966" width="887.04" height="92.731034"/>
  </clipPath>
  <clipPath id="p5de1aa7023">
   <rect x="201.6" y="609.12" width="655.2" height="25.92"/>
  </clipPath>
  <clipPath id="p1e2a601b39">
   <path d="M 201.6 628.56 
L 856.8 628.56 
L 856.8 615.6 
L 201.6 615.6 
z
"/>
  </clipPath>
 </defs>
</svg>
