<?xml version="1.0" encoding="utf-8" standalone="no"?>
<!DOCTYPE svg PUBLIC "-//W3C//DTD SVG 1.1//EN"
  "http://www.w3.org/Graphics/SVG/1.1/DTD/svg11.dtd">
<svg xmlns:xlink="http://www.w3.org/1999/xlink" width="1008pt" height="648pt" viewBox="0 0 1008 648" xmlns="http://www.w3.org/2000/svg" version="1.1">
 <metadata>
  <rdf:RDF xmlns:dc="http://purl.org/dc/elements/1.1/" xmlns:cc="http://creativecommons.org/ns#" xmlns:rdf="http://www.w3.org/1999/02/22-rdf-syntax-ns#">
   <cc:Work>
    <dc:type rdf:resource="http://purl.org/dc/dcmitype/StillImage"/>
    <dc:date>2024-06-03T10:45:53.689960</dc:date>
    <dc:format>image/svg+xml</dc:format>
    <dc:creator>
     <cc:Agent>
      <dc:title>Matplotlib v3.9.0, https://matplotlib.org/</dc:title>
     </cc:Agent>
    </dc:creator>
   </cc:Work>
  </rdf:RDF>
 </metadata>
 <defs>
  <style type="text/css">*{stroke-linejoin: round; stroke-linecap: butt}</style>
 </defs>
 <g id="figure_1">
  <g id="patch_1">
   <path d="M 0 648 
L 1008 648 
L 1008 0 
L 0 0 
z
" style="fill: #ffffff"/>
  </g>
  <g id="axes_1">
   <g id="patch_2">
    <path d="M 100.8 131.611034 
L 987.84 131.611034 
L 987.84 38.88 
L 100.8 38.88 
z
" style="fill: #eeeeee"/>
   </g>
   <g id="matplotlib.axis_1">
    <g id="xtick_1">
     <g id="line2d_1">
      <path d="M 141.12 131.611034 
L 141.12 38.88 
" clip-path="url(#p6090674ad0)" style="fill: none; stroke-dasharray: 1.85,0.8; stroke-dashoffset: 0; stroke: #b2b2b2; stroke-width: 0.5"/>
     </g>
     <g id="line2d_2">
      <defs>
       <path id="m93f2591590" d="M 0 0 
L 0 -3.5 
" style="stroke: #000000; stroke-width: 0.8"/>
      </defs>
      <g>
       <use xlink:href="#m93f2591590" x="141.12" y="131.611034" style="stroke: #000000; stroke-width: 0.8"/>
      </g>
     </g>
    </g>
    <g id="xtick_2">
     <g id="line2d_3">
      <path d="M 302.4 131.611034 
L 302.4 38.88 
" clip-path="url(#p6090674ad0)" style="fill: none; stroke-dasharray: 1.85,0.8; stroke-dashoffset: 0; stroke: #b2b2b2; stroke-width: 0.5"/>
     </g>
     <g id="line2d_4">
      <g>
       <use xlink:href="#m93f2591590" x="302.4" y="131.611034" style="stroke: #000000; stroke-width: 0.8"/>
      </g>
     </g>
    </g>
    <g id="xtick_3">
     <g id="line2d_5">
      <path d="M 463.68 131.611034 
L 463.68 38.88 
" clip-path="url(#p6090674ad0)" style="fill: none; stroke-dasharray: 1.85,0.8; stroke-dashoffset: 0; stroke: #b2b2b2; stroke-width: 0.5"/>
     </g>
     <g id="line2d_6">
      <g>
       <use xlink:href="#m93f2591590" x="463.68" y="131.611034" style="stroke: #000000; stroke-width: 0.8"/>
      </g>
     </g>
    </g>
    <g id="xtick_4">
     <g id="line2d_7">
      <path d="M 624.96 131.611034 
L 624.96 38.88 
" clip-path="url(#p6090674ad0)" style="fill: none; stroke-dasharray: 1.85,0.8; stroke-dashoffset: 0; stroke: #b2b2b2; stroke-width: 0.5"/>
     </g>
     <g id="line2d_8">
      <g>
       <use xlink:href="#m93f2591590" x="624.96" y="131.611034" style="stroke: #000000; stroke-width: 0.8"/>
      </g>
     </g>
    </g>
    <g id="xtick_5">
     <g id="line2d_9">
      <path d="M 786.24 131.611034 
L 786.24 38.88 
" clip-path="url(#p6090674ad0)" style="fill: none; stroke-dasharray: 1.85,0.8; stroke-dashoffset: 0; stroke: #b2b2b2; stroke-width: 0.5"/>
     </g>
     <g id="line2d_10">
      <g>
       <use xlink:href="#m93f2591590" x="786.24" y="131.611034" style="stroke: #000000; stroke-width: 0.8"/>
      </g>
     </g>
    </g>
    <g id="xtick_6">
     <g id="line2d_11">
      <path d="M 947.52 131.611034 
L 947.52 38.88 
" clip-path="url(#p6090674ad0)" style="fill: none; stroke-dasharray: 1.85,0.8; stroke-dashoffset: 0; stroke: #b2b2b2; stroke-width: 0.5"/>
     </g>
     <g id="line2d_12">
      <g>
       <use xlink:href="#m93f2591590" x="947.52" y="131.611034" style="stroke: #000000; stroke-width: 0.8"/>
      </g>
     </g>
    </g>
   </g>
   <g id="matplotlib.axis_2">
    <g id="ytick_1">
     <g id="line2d_13">
      <path d="M 100.8 98.340394 
L 987.84 98.340394 
" clip-path="url(#p6090674ad0)" style="fill: none; stroke-dasharray: 1.85,0.8; stroke-dashoffset: 0; stroke: #b2b2b2; stroke-width: 0.5"/>
     </g>
     <g id="line2d_14">
      <defs>
       <path id="m0e4d382291" d="M 0 0 
L 3.5 0 
" style="stroke: #000000; stroke-width: 0.8"/>
      </defs>
      <g>
       <use xlink:href="#m0e4d382291" x="100.8" y="98.340394" style="stroke: #000000; stroke-width: 0.8"/>
      </g>
     </g>
     <g id="text_1">
      <!-- −200 V -->
      <g transform="translate(44.819688 103.6593) scale(0.14 -0.14)">
       <defs>
        <path id="DejaVuSans-2212" d="M 678 2272 
L 4684 2272 
L 4684 1741 
L 678 1741 
L 678 2272 
z
" transform="scale(0.015625)"/>
        <path id="DejaVuSans-32" d="M 1228 531 
L 3431 531 
L 3431 0 
L 469 0 
L 469 531 
Q 828 903 1448 1529 
Q 2069 2156 2228 2338 
Q 2531 2678 2651 2914 
Q 2772 3150 2772 3378 
Q 2772 3750 2511 3984 
Q 2250 4219 1831 4219 
Q 1534 4219 1204 4116 
Q 875 4013 500 3803 
L 500 4441 
Q 881 4594 1212 4672 
Q 1544 4750 1819 4750 
Q 2544 4750 2975 4387 
Q 3406 4025 3406 3419 
Q 3406 3131 3298 2873 
Q 3191 2616 2906 2266 
Q 2828 2175 2409 1742 
Q 1991 1309 1228 531 
z
" transform="scale(0.015625)"/>
        <path id="DejaVuSans-30" d="M 2034 4250 
Q 1547 4250 1301 3770 
Q 1056 3291 1056 2328 
Q 1056 1369 1301 889 
Q 1547 409 2034 409 
Q 2525 409 2770 889 
Q 3016 1369 3016 2328 
Q 3016 3291 2770 3770 
Q 2525 4250 2034 4250 
z
M 2034 4750 
Q 2819 4750 3233 4129 
Q 3647 3509 3647 2328 
Q 3647 1150 3233 529 
Q 2819 -91 2034 -91 
Q 1250 -91 836 529 
Q 422 1150 422 2328 
Q 422 3509 836 4129 
Q 1250 4750 2034 4750 
z
" transform="scale(0.015625)"/>
        <path id="DejaVuSans-20" transform="scale(0.015625)"/>
        <path id="DejaVuSans-56" d="M 1831 0 
L 50 4666 
L 709 4666 
L 2188 738 
L 3669 4666 
L 4325 4666 
L 2547 0 
L 1831 0 
z
" transform="scale(0.015625)"/>
       </defs>
       <use xlink:href="#DejaVuSans-2212"/>
       <use xlink:href="#DejaVuSans-32" x="83.789062"/>
       <use xlink:href="#DejaVuSans-30" x="147.412109"/>
       <use xlink:href="#DejaVuSans-30" x="211.035156"/>
       <use xlink:href="#DejaVuSans-20" x="274.658203"/>
       <use xlink:href="#DejaVuSans-56" x="306.445312"/>
      </g>
     </g>
    </g>
    <g id="ytick_2">
     <g id="line2d_15">
      <path d="M 100.8 45.027377 
L 987.84 45.027377 
" clip-path="url(#p6090674ad0)" style="fill: none; stroke-dasharray: 1.85,0.8; stroke-dashoffset: 0; stroke: #b2b2b2; stroke-width: 0.5"/>
     </g>
     <g id="line2d_16">
      <g>
       <use xlink:href="#m0e4d382291" x="100.8" y="45.027377" style="stroke: #000000; stroke-width: 0.8"/>
      </g>
     </g>
     <g id="text_2">
      <!-- 0 V -->
      <g transform="translate(74.36625 50.346284) scale(0.14 -0.14)">
       <use xlink:href="#DejaVuSans-30"/>
       <use xlink:href="#DejaVuSans-20" x="63.623047"/>
       <use xlink:href="#DejaVuSans-56" x="95.410156"/>
      </g>
     </g>
    </g>
    <g id="text_3">
     <g id="patch_3">
      <path d="M 34.8768 131.080205 
L 34.8768 39.41083 
L 11.247425 39.41083 
L 11.247425 131.080205 
z
" style="fill: #ffff00; opacity: 0.2; stroke: #eeeeee; stroke-width: 0.5; stroke-linejoin: miter"/>
     </g>
     <!-- VPULSE BBI -->
     <g transform="translate(26.925238 126.040205) rotate(-90) scale(0.14 -0.14)">
      <defs>
       <path id="DejaVuSans-50" d="M 1259 4147 
L 1259 2394 
L 2053 2394 
Q 2494 2394 2734 2622 
Q 2975 2850 2975 3272 
Q 2975 3691 2734 3919 
Q 2494 4147 2053 4147 
L 1259 4147 
z
M 628 4666 
L 2053 4666 
Q 2838 4666 3239 4311 
Q 3641 3956 3641 3272 
Q 3641 2581 3239 2228 
Q 2838 1875 2053 1875 
L 1259 1875 
L 1259 0 
L 628 0 
L 628 4666 
z
" transform="scale(0.015625)"/>
       <path id="DejaVuSans-55" d="M 556 4666 
L 1191 4666 
L 1191 1831 
Q 1191 1081 1462 751 
Q 1734 422 2344 422 
Q 2950 422 3222 751 
Q 3494 1081 3494 1831 
L 3494 4666 
L 4128 4666 
L 4128 1753 
Q 4128 841 3676 375 
Q 3225 -91 2344 -91 
Q 1459 -91 1007 375 
Q 556 841 556 1753 
L 556 4666 
z
" transform="scale(0.015625)"/>
       <path id="DejaVuSans-4c" d="M 628 4666 
L 1259 4666 
L 1259 531 
L 3531 531 
L 3531 0 
L 628 0 
L 628 4666 
z
" transform="scale(0.015625)"/>
       <path id="DejaVuSans-53" d="M 3425 4513 
L 3425 3897 
Q 3066 4069 2747 4153 
Q 2428 4238 2131 4238 
Q 1616 4238 1336 4038 
Q 1056 3838 1056 3469 
Q 1056 3159 1242 3001 
Q 1428 2844 1947 2747 
L 2328 2669 
Q 3034 2534 3370 2195 
Q 3706 1856 3706 1288 
Q 3706 609 3251 259 
Q 2797 -91 1919 -91 
Q 1588 -91 1214 -16 
Q 841 59 441 206 
L 441 856 
Q 825 641 1194 531 
Q 1563 422 1919 422 
Q 2459 422 2753 634 
Q 3047 847 3047 1241 
Q 3047 1584 2836 1778 
Q 2625 1972 2144 2069 
L 1759 2144 
Q 1053 2284 737 2584 
Q 422 2884 422 3419 
Q 422 4038 858 4394 
Q 1294 4750 2059 4750 
Q 2388 4750 2728 4690 
Q 3069 4631 3425 4513 
z
" transform="scale(0.015625)"/>
       <path id="DejaVuSans-45" d="M 628 4666 
L 3578 4666 
L 3578 4134 
L 1259 4134 
L 1259 2753 
L 3481 2753 
L 3481 2222 
L 1259 2222 
L 1259 531 
L 3634 531 
L 3634 0 
L 628 0 
L 628 4666 
z
" transform="scale(0.015625)"/>
       <path id="DejaVuSans-42" d="M 1259 2228 
L 1259 519 
L 2272 519 
Q 2781 519 3026 730 
Q 3272 941 3272 1375 
Q 3272 1813 3026 2020 
Q 2781 2228 2272 2228 
L 1259 2228 
z
M 1259 4147 
L 1259 2741 
L 2194 2741 
Q 2656 2741 2882 2914 
Q 3109 3088 3109 3444 
Q 3109 3797 2882 3972 
Q 2656 4147 2194 4147 
L 1259 4147 
z
M 628 4666 
L 2241 4666 
Q 2963 4666 3353 4366 
Q 3744 4066 3744 3513 
Q 3744 3084 3544 2831 
Q 3344 2578 2956 2516 
Q 3422 2416 3680 2098 
Q 3938 1781 3938 1306 
Q 3938 681 3513 340 
Q 3088 0 2303 0 
L 628 0 
L 628 4666 
z
" transform="scale(0.015625)"/>
       <path id="DejaVuSans-49" d="M 628 4666 
L 1259 4666 
L 1259 0 
L 628 0 
L 628 4666 
z
" transform="scale(0.015625)"/>
      </defs>
      <use xlink:href="#DejaVuSans-56"/>
      <use xlink:href="#DejaVuSans-50" x="68.408203"/>
      <use xlink:href="#DejaVuSans-55" x="128.710938"/>
      <use xlink:href="#DejaVuSans-4c" x="201.904297"/>
      <use xlink:href="#DejaVuSans-53" x="257.617188"/>
      <use xlink:href="#DejaVuSans-45" x="321.09375"/>
      <use xlink:href="#DejaVuSans-20" x="384.277344"/>
      <use xlink:href="#DejaVuSans-42" x="416.064453"/>
      <use xlink:href="#DejaVuSans-42" x="484.667969"/>
      <use xlink:href="#DejaVuSans-49" x="553.271484"/>
     </g>
    </g>
   </g>
   <g id="line2d_17">
    <path d="M 141.12 45.027377 
L 550.803456 45.136282 
L 551.287296 46.425538 
L 559.512576 69.006772 
L 566.931456 89.863624 
L 568.544256 94.440546 
L 570.350592 99.673219 
L 573.83424 110.807642 
L 575.44704 115.952349 
L 576.705024 119.585631 
L 577.156608 119.80688 
L 578.221056 120.297359 
L 578.704896 120.526605 
L 579.769344 121.017085 
L 580.349952 121.272988 
L 581.220864 121.656841 
L 581.801472 121.912744 
L 582.640128 122.269941 
L 584.220672 122.936354 
L 584.865792 123.202919 
L 585.962496 123.629423 
L 586.704384 123.922644 
L 587.801088 124.349149 
L 588.704256 124.677024 
L 589.381632 124.943589 
L 590.188032 125.25547 
L 591.542784 125.804594 
L 594.187776 126.790885 
L 594.80064 127.022796 
L 596.736 127.395987 
L 615.218688 127.289361 
L 615.44448 126.801547 
L 633.733632 75.087922 
L 637.475328 63.292417 
L 641.184768 51.617666 
L 645.797376 49.3412 
L 651.151872 46.984578 
L 659.860992 43.484472 
L 660.731904 43.268927 
L 675.021312 43.108189 
L 681.827328 43.184799 
L 697.181184 43.746186 
L 724.9536 44.46146 
L 750.59712 44.774399 
L 786.207744 44.945888 
L 834.236928 44.953885 
L 947.52 44.953885 
L 947.52 44.953885 
" clip-path="url(#p6090674ad0)" style="fill: none; stroke: #ff0000; stroke-width: 2; stroke-linecap: square"/>
   </g>
   <g id="patch_4">
    <path d="M 100.8 131.611034 
L 100.8 38.88 
" style="fill: none; stroke: #bcbcbc; stroke-width: 0.8; stroke-linejoin: miter; stroke-linecap: square"/>
   </g>
   <g id="patch_5">
    <path d="M 987.84 131.611034 
L 987.84 38.88 
" style="fill: none; stroke: #bcbcbc; stroke-width: 0.8; stroke-linejoin: miter; stroke-linecap: square"/>
   </g>
   <g id="patch_6">
    <path d="M 100.8 131.611034 
L 987.84 131.611034 
" style="fill: none; stroke: #bcbcbc; stroke-width: 0.8; stroke-linejoin: miter; stroke-linecap: square"/>
   </g>
   <g id="patch_7">
    <path d="M 100.8 38.88 
L 987.84 38.88 
" style="fill: none; stroke: #bcbcbc; stroke-width: 0.8; stroke-linejoin: miter; stroke-linecap: square"/>
   </g>
  </g>
  <g id="axes_2">
   <g id="patch_8">
    <path d="M 100.8 242.888276 
L 987.84 242.888276 
L 987.84 150.157241 
L 100.8 150.157241 
z
" style="fill: #eeeeee"/>
   </g>
   <g id="matplotlib.axis_3">
    <g id="xtick_7">
     <g id="line2d_18">
      <path d="M 141.12 242.888276 
L 141.12 150.157241 
" clip-path="url(#pf02e43b6e9)" style="fill: none; stroke-dasharray: 1.85,0.8; stroke-dashoffset: 0; stroke: #b2b2b2; stroke-width: 0.5"/>
     </g>
     <g id="line2d_19">
      <g>
       <use xlink:href="#m93f2591590" x="141.12" y="242.888276" style="stroke: #000000; stroke-width: 0.8"/>
      </g>
     </g>
    </g>
    <g id="xtick_8">
     <g id="line2d_20">
      <path d="M 302.4 242.888276 
L 302.4 150.157241 
" clip-path="url(#pf02e43b6e9)" style="fill: none; stroke-dasharray: 1.85,0.8; stroke-dashoffset: 0; stroke: #b2b2b2; stroke-width: 0.5"/>
     </g>
     <g id="line2d_21">
      <g>
       <use xlink:href="#m93f2591590" x="302.4" y="242.888276" style="stroke: #000000; stroke-width: 0.8"/>
      </g>
     </g>
    </g>
    <g id="xtick_9">
     <g id="line2d_22">
      <path d="M 463.68 242.888276 
L 463.68 150.157241 
" clip-path="url(#pf02e43b6e9)" style="fill: none; stroke-dasharray: 1.85,0.8; stroke-dashoffset: 0; stroke: #b2b2b2; stroke-width: 0.5"/>
     </g>
     <g id="line2d_23">
      <g>
       <use xlink:href="#m93f2591590" x="463.68" y="242.888276" style="stroke: #000000; stroke-width: 0.8"/>
      </g>
     </g>
    </g>
    <g id="xtick_10">
     <g id="line2d_24">
      <path d="M 624.96 242.888276 
L 624.96 150.157241 
" clip-path="url(#pf02e43b6e9)" style="fill: none; stroke-dasharray: 1.85,0.8; stroke-dashoffset: 0; stroke: #b2b2b2; stroke-width: 0.5"/>
     </g>
     <g id="line2d_25">
      <g>
       <use xlink:href="#m93f2591590" x="624.96" y="242.888276" style="stroke: #000000; stroke-width: 0.8"/>
      </g>
     </g>
    </g>
    <g id="xtick_11">
     <g id="line2d_26">
      <path d="M 786.24 242.888276 
L 786.24 150.157241 
" clip-path="url(#pf02e43b6e9)" style="fill: none; stroke-dasharray: 1.85,0.8; stroke-dashoffset: 0; stroke: #b2b2b2; stroke-width: 0.5"/>
     </g>
     <g id="line2d_27">
      <g>
       <use xlink:href="#m93f2591590" x="786.24" y="242.888276" style="stroke: #000000; stroke-width: 0.8"/>
      </g>
     </g>
    </g>
    <g id="xtick_12">
     <g id="line2d_28">
      <path d="M 947.52 242.888276 
L 947.52 150.157241 
" clip-path="url(#pf02e43b6e9)" style="fill: none; stroke-dasharray: 1.85,0.8; stroke-dashoffset: 0; stroke: #b2b2b2; stroke-width: 0.5"/>
     </g>
     <g id="line2d_29">
      <g>
       <use xlink:href="#m93f2591590" x="947.52" y="242.888276" style="stroke: #000000; stroke-width: 0.8"/>
      </g>
     </g>
    </g>
   </g>
   <g id="matplotlib.axis_4">
    <g id="ytick_3">
     <g id="line2d_30">
      <path d="M 100.8 219.12063 
L 987.84 219.12063 
" clip-path="url(#pf02e43b6e9)" style="fill: none; stroke-dasharray: 1.85,0.8; stroke-dashoffset: 0; stroke: #b2b2b2; stroke-width: 0.5"/>
     </g>
     <g id="line2d_31">
      <g>
       <use xlink:href="#m0e4d382291" x="100.8" y="219.12063" style="stroke: #000000; stroke-width: 0.8"/>
      </g>
     </g>
     <g id="text_4">
      <!-- 0 V -->
      <g transform="translate(74.36625 224.439536) scale(0.14 -0.14)">
       <use xlink:href="#DejaVuSans-30"/>
       <use xlink:href="#DejaVuSans-20" x="63.623047"/>
       <use xlink:href="#DejaVuSans-56" x="95.410156"/>
      </g>
     </g>
    </g>
    <g id="ytick_4">
     <g id="line2d_32">
      <path d="M 100.8 185.142701 
L 987.84 185.142701 
" clip-path="url(#pf02e43b6e9)" style="fill: none; stroke-dasharray: 1.85,0.8; stroke-dashoffset: 0; stroke: #b2b2b2; stroke-width: 0.5"/>
     </g>
     <g id="line2d_33">
      <g>
       <use xlink:href="#m0e4d382291" x="100.8" y="185.142701" style="stroke: #000000; stroke-width: 0.8"/>
      </g>
     </g>
     <g id="text_5">
      <!-- 1 V -->
      <g transform="translate(74.36625 190.461607) scale(0.14 -0.14)">
       <defs>
        <path id="DejaVuSans-31" d="M 794 531 
L 1825 531 
L 1825 4091 
L 703 3866 
L 703 4441 
L 1819 4666 
L 2450 4666 
L 2450 531 
L 3481 531 
L 3481 0 
L 794 0 
L 794 531 
z
" transform="scale(0.015625)"/>
       </defs>
       <use xlink:href="#DejaVuSans-31"/>
       <use xlink:href="#DejaVuSans-20" x="63.623047"/>
       <use xlink:href="#DejaVuSans-56" x="95.410156"/>
      </g>
     </g>
    </g>
    <g id="ytick_5">
     <g id="line2d_34">
      <path d="M 100.8 151.164772 
L 987.84 151.164772 
" clip-path="url(#pf02e43b6e9)" style="fill: none; stroke-dasharray: 1.85,0.8; stroke-dashoffset: 0; stroke: #b2b2b2; stroke-width: 0.5"/>
     </g>
     <g id="line2d_35">
      <g>
       <use xlink:href="#m0e4d382291" x="100.8" y="151.164772" style="stroke: #000000; stroke-width: 0.8"/>
      </g>
     </g>
     <g id="text_6">
      <!-- 2 V -->
      <g transform="translate(74.36625 156.483678) scale(0.14 -0.14)">
       <use xlink:href="#DejaVuSans-32"/>
       <use xlink:href="#DejaVuSans-20" x="63.623047"/>
       <use xlink:href="#DejaVuSans-56" x="95.410156"/>
      </g>
     </g>
    </g>
    <g id="text_7">
     <g id="patch_9">
      <path d="M 34.8768 224.531509 
L 34.8768 168.514009 
L 11.247425 168.514009 
L 11.247425 224.531509 
z
" style="fill: #ffff00; opacity: 0.2; stroke: #eeeeee; stroke-width: 0.5; stroke-linejoin: miter"/>
     </g>
     <!-- DFF IN -->
     <g transform="translate(26.925238 219.491509) rotate(-90) scale(0.14 -0.14)">
      <defs>
       <path id="DejaVuSans-44" d="M 1259 4147 
L 1259 519 
L 2022 519 
Q 2988 519 3436 956 
Q 3884 1394 3884 2338 
Q 3884 3275 3436 3711 
Q 2988 4147 2022 4147 
L 1259 4147 
z
M 628 4666 
L 1925 4666 
Q 3281 4666 3915 4102 
Q 4550 3538 4550 2338 
Q 4550 1131 3912 565 
Q 3275 0 1925 0 
L 628 0 
L 628 4666 
z
" transform="scale(0.015625)"/>
       <path id="DejaVuSans-46" d="M 628 4666 
L 3309 4666 
L 3309 4134 
L 1259 4134 
L 1259 2759 
L 3109 2759 
L 3109 2228 
L 1259 2228 
L 1259 0 
L 628 0 
L 628 4666 
z
" transform="scale(0.015625)"/>
       <path id="DejaVuSans-4e" d="M 628 4666 
L 1478 4666 
L 3547 763 
L 3547 4666 
L 4159 4666 
L 4159 0 
L 3309 0 
L 1241 3903 
L 1241 0 
L 628 0 
L 628 4666 
z
" transform="scale(0.015625)"/>
      </defs>
      <use xlink:href="#DejaVuSans-44"/>
      <use xlink:href="#DejaVuSans-46" x="77.001953"/>
      <use xlink:href="#DejaVuSans-46" x="134.521484"/>
      <use xlink:href="#DejaVuSans-20" x="192.041016"/>
      <use xlink:href="#DejaVuSans-49" x="223.828125"/>
      <use xlink:href="#DejaVuSans-4e" x="253.320312"/>
     </g>
    </g>
   </g>
   <g id="line2d_36">
    <path d="M 141.12 219.071008 
L 221.953536 219.024414 
L 224.437248 200.09231 
L 225.404928 194.333051 
L 228.243456 181.670156 
L 229.598208 180.399382 
L 231.178752 179.526149 
L 236.533248 179.070845 
L 243.5328 178.962116 
L 244.952064 178.921342 
L 248.145408 178.812613 
L 249.790464 178.748055 
L 251.887104 178.639325 
L 254.241792 178.29275 
L 254.757888 177.755899 
L 255.499776 177.41612 
L 256.338432 177.429711 
L 259.789824 178.044711 
L 262.467072 178.217999 
L 263.886336 178.265568 
L 264.144384 183.504965 
L 264.434688 187.069929 
L 265.176576 191.819024 
L 267.144192 209.153544 
L 268.402176 215.662016 
L 269.047296 216.945227 
L 270.46656 218.708002 
L 273.724416 219.122464 
L 282.530304 219.075048 
L 297.045504 219.064923 
L 305.851392 219.070193 
L 347.751936 219.02611 
L 350.235648 200.132404 
L 351.622656 191.494195 
L 352.654848 186.202472 
L 354.97728 179.206757 
L 358.493184 178.207806 
L 360.202752 178.279159 
L 363.009024 178.387889 
L 364.33152 178.418469 
L 375.169536 178.489822 
L 375.717888 179.481978 
L 376.169472 180.23289 
L 377.008128 181.140101 
L 377.524224 181.089134 
L 378.427392 180.796924 
L 380.427264 179.658663 
L 381.58848 179.284906 
L 387.168768 178.805817 
L 389.587968 178.697088 
L 391.684608 178.584961 
L 394.232832 178.476231 
L 395.61984 178.438855 
L 415.360512 178.353911 
L 416.489472 177.422915 
L 417.037824 177.358357 
L 417.908736 177.467087 
L 419.16672 177.749103 
L 420.908544 178.003938 
L 423.940608 178.214601 
L 455.712768 178.319933 
L 456.809472 179.210154 
L 457.261056 179.281508 
L 458.68032 179.325679 
L 462.680064 178.795624 
L 464.131584 178.601949 
L 467.486208 178.357308 
L 496.065024 178.275761 
L 496.58112 177.735512 
L 497.258496 177.429711 
L 498.3552 177.41612 
L 502.06464 178.085485 
L 504.193536 178.20101 
L 536.320512 178.302944 
L 536.481792 178.479629 
L 536.965632 178.968911 
L 537.481728 179.220348 
L 537.901056 179.284906 
L 539.32032 179.329077 
L 542.38464 178.897557 
L 544.416768 178.581563 
L 546.7392 178.445651 
L 550.900224 178.550983 
L 553.319424 182.417671 
L 560.028672 191.776212 
L 560.60928 193.689169 
L 562.351104 200.265597 
L 562.673664 201.409294 
L 563.222016 203.84789 
L 565.77024 214.690587 
L 568.092672 222.652635 
L 568.479744 223.458252 
L 568.641024 223.716824 
L 569.15712 225.175497 
L 569.64096 225.959707 
L 569.866752 226.188039 
L 570.1248 226.543448 
L 570.640896 227.978676 
L 570.963456 228.506353 
L 571.189248 228.859044 
L 571.479552 229.569522 
L 571.963392 230.693512 
L 574.31808 234.942452 
L 574.769664 235.709334 
L 575.156736 236.284241 
L 575.382528 236.656639 
L 575.60832 237.087139 
L 576.124416 238.059587 
L 576.576 238.622602 
L 576.930816 238.56314 
L 578.801664 235.780008 
L 579.575808 234.813336 
L 579.995136 234.123244 
L 580.220928 234.031844 
L 580.478976 233.787542 
L 580.737024 233.539504 
L 581.317632 233.128371 
L 582.05952 232.23611 
L 582.349824 231.791679 
L 582.672384 231.553833 
L 582.70464 231.590869 
L 582.898176 231.500488 
L 583.123968 231.316667 
L 584.833536 229.814163 
L 585.027072 229.584812 
L 585.220608 229.399633 
L 585.349632 229.238917 
L 585.381888 229.258964 
L 585.575424 229.18761 
L 586.156032 228.809436 
L 586.801152 228.281419 
L 587.736576 227.311689 
L 587.962368 227.020158 
L 588.091392 226.967153 
L 588.768768 226.565534 
L 589.188096 226.270945 
L 590.833152 224.922021 
L 591.381504 224.309399 
L 592.574976 223.665178 
L 596.929536 219.912213 
L 599.832576 215.83442 
L 602.155008 212.767437 
L 604.606464 210.015564 
L 605.058048 209.448472 
L 605.412864 208.54398 
L 607.735296 202.027013 
L 608.283648 201.037576 
L 610.251264 198.226242 
L 610.92864 197.230689 
L 611.702784 196.246008 
L 612.70272 195.182839 
L 613.476864 194.158065 
L 615.025152 192.657599 
L 615.412224 192.012358 
L 615.92832 190.216625 
L 617.154048 185.953754 
L 618.02496 184.011236 
L 618.605568 183.178777 
L 620.153856 181.558029 
L 621.992448 179.407226 
L 622.86336 178.435458 
L 625.863168 174.473631 
L 628.475904 170.552578 
L 630.185472 168.214897 
L 631.282176 166.791221 
L 631.475712 166.549978 
L 633.088512 164.524894 
L 634.120704 163.284699 
L 637.636608 158.653507 
L 638.443008 157.647761 
L 639.991296 155.711019 
L 641.24928 154.413062 
L 642.668544 154.746046 
L 643.603968 154.752841 
L 644.700672 154.875162 
L 645.378048 154.983891 
L 646.119936 155.177565 
L 647.86176 155.612483 
L 650.248704 156.227483 
L 657.312768 158.412264 
L 657.732096 157.46428 
L 658.086912 157.144887 
L 658.441728 157.144887 
L 658.8288 157.321573 
L 662.667264 160.413564 
L 667.634688 162.910942 
L 668.82816 163.403622 
L 672.763392 164.942822 
L 675.892224 166.047105 
L 677.311488 166.532989 
L 677.892096 166.702879 
L 679.085568 167.086829 
L 686.697984 169.376942 
L 687.407616 169.560423 
L 689.762304 170.168628 
L 690.471936 170.348711 
L 691.471872 170.562772 
L 692.85888 170.88896 
L 693.633024 171.075838 
L 694.729728 171.310286 
L 695.826432 171.531142 
L 696.89088 171.751999 
L 697.632768 171.9049 
L 698.148864 172.808713 
L 698.568192 173.131503 
L 699.052032 173.314984 
L 699.535872 173.355757 
L 700.729344 173.124707 
L 701.24544 172.971807 
L 702.987264 172.89026 
L 704.14848 173.022774 
L 706.954752 173.423713 
L 707.664384 173.532442 
L 709.212672 173.746503 
L 709.922304 173.851835 
L 711.40608 174.055703 
L 712.276992 174.164432 
L 713.567232 174.327526 
L 714.373632 174.432858 
L 715.502592 174.561974 
L 716.502528 174.667305 
L 717.792768 174.827002 
L 718.760448 174.935731 
L 726.921216 175.686643 
L 728.308224 175.795373 
L 728.856576 175.856533 
L 731.824128 176.063798 
L 732.469248 176.094378 
L 732.985344 176.145345 
L 735.791616 176.332224 
L 736.436736 176.3696 
L 737.952768 176.423964 
L 738.533376 175.802168 
L 739.081728 175.581312 
L 740.694528 175.859931 
L 741.791232 176.206505 
L 744.726528 176.712777 
L 745.855488 176.81471 
L 746.339328 176.852086 
L 748.790784 177.001589 
L 750.984192 177.110318 
L 752.467968 177.157888 
L 755.532288 177.266617 
L 755.951616 177.293799 
L 756.693504 177.320982 
L 758.112768 177.365153 
L 758.951424 177.38554 
L 762.628608 177.490871 
L 763.17696 177.497667 
L 768.01536 177.602998 
L 768.33792 177.619987 
L 773.466624 177.728717 
L 774.595584 177.73891 
L 778.305024 177.844242 
L 778.950144 178.55438 
L 779.724288 178.839795 
L 780.401664 178.870375 
L 781.4016 178.659712 
L 782.433792 178.340319 
L 783.788544 178.167032 
L 785.723904 178.068496 
L 786.756096 178.068496 
L 788.078592 178.037916 
L 818.625024 177.935982 
L 819.108864 177.405926 
L 819.721728 177.086534 
L 820.9152 177.066147 
L 824.882688 177.789877 
L 826.56 177.857833 
L 858.880512 177.966562 
L 859.041792 178.146645 
L 859.557888 178.666508 
L 859.94496 178.849988 
L 860.557824 178.989298 
L 862.912512 178.883966 
L 865.234944 178.506811 
L 870.58944 178.051507 
L 899.232768 177.980153 
L 899.78112 177.365153 
L 900.329472 177.089932 
L 902.264832 177.198661 
L 905.522688 177.772888 
L 907.619328 177.885015 
L 939.552768 177.980153 
L 940.617216 178.846591 
L 941.55264 179.033469 
L 943.455744 178.92474 
L 944.77824 178.676701 
L 947.003904 178.319933 
L 947.52 178.238386 
L 947.52 178.238386 
" clip-path="url(#pf02e43b6e9)" style="fill: none; stroke: #008000; stroke-width: 2; stroke-linecap: square"/>
   </g>
   <g id="patch_10">
    <path d="M 100.8 242.888276 
L 100.8 150.157241 
" style="fill: none; stroke: #bcbcbc; stroke-width: 0.8; stroke-linejoin: miter; stroke-linecap: square"/>
   </g>
   <g id="patch_11">
    <path d="M 987.84 242.888276 
L 987.84 150.157241 
" style="fill: none; stroke: #bcbcbc; stroke-width: 0.8; stroke-linejoin: miter; stroke-linecap: square"/>
   </g>
   <g id="patch_12">
    <path d="M 100.8 242.888276 
L 987.84 242.888276 
" style="fill: none; stroke: #bcbcbc; stroke-width: 0.8; stroke-linejoin: miter; stroke-linecap: square"/>
   </g>
   <g id="patch_13">
    <path d="M 100.8 150.157241 
L 987.84 150.157241 
" style="fill: none; stroke: #bcbcbc; stroke-width: 0.8; stroke-linejoin: miter; stroke-linecap: square"/>
   </g>
  </g>
  <g id="axes_3">
   <g id="patch_14">
    <path d="M 100.8 354.165517 
L 987.84 354.165517 
L 987.84 261.434483 
L 100.8 261.434483 
z
" style="fill: #eeeeee"/>
   </g>
   <g id="matplotlib.axis_5">
    <g id="xtick_13">
     <g id="line2d_37">
      <path d="M 141.12 354.165517 
L 141.12 261.434483 
" clip-path="url(#pedcedefc80)" style="fill: none; stroke-dasharray: 1.85,0.8; stroke-dashoffset: 0; stroke: #b2b2b2; stroke-width: 0.5"/>
     </g>
     <g id="line2d_38">
      <g>
       <use xlink:href="#m93f2591590" x="141.12" y="354.165517" style="stroke: #000000; stroke-width: 0.8"/>
      </g>
     </g>
    </g>
    <g id="xtick_14">
     <g id="line2d_39">
      <path d="M 302.4 354.165517 
L 302.4 261.434483 
" clip-path="url(#pedcedefc80)" style="fill: none; stroke-dasharray: 1.85,0.8; stroke-dashoffset: 0; stroke: #b2b2b2; stroke-width: 0.5"/>
     </g>
     <g id="line2d_40">
      <g>
       <use xlink:href="#m93f2591590" x="302.4" y="354.165517" style="stroke: #000000; stroke-width: 0.8"/>
      </g>
     </g>
    </g>
    <g id="xtick_15">
     <g id="line2d_41">
      <path d="M 463.68 354.165517 
L 463.68 261.434483 
" clip-path="url(#pedcedefc80)" style="fill: none; stroke-dasharray: 1.85,0.8; stroke-dashoffset: 0; stroke: #b2b2b2; stroke-width: 0.5"/>
     </g>
     <g id="line2d_42">
      <g>
       <use xlink:href="#m93f2591590" x="463.68" y="354.165517" style="stroke: #000000; stroke-width: 0.8"/>
      </g>
     </g>
    </g>
    <g id="xtick_16">
     <g id="line2d_43">
      <path d="M 624.96 354.165517 
L 624.96 261.434483 
" clip-path="url(#pedcedefc80)" style="fill: none; stroke-dasharray: 1.85,0.8; stroke-dashoffset: 0; stroke: #b2b2b2; stroke-width: 0.5"/>
     </g>
     <g id="line2d_44">
      <g>
       <use xlink:href="#m93f2591590" x="624.96" y="354.165517" style="stroke: #000000; stroke-width: 0.8"/>
      </g>
     </g>
    </g>
    <g id="xtick_17">
     <g id="line2d_45">
      <path d="M 786.24 354.165517 
L 786.24 261.434483 
" clip-path="url(#pedcedefc80)" style="fill: none; stroke-dasharray: 1.85,0.8; stroke-dashoffset: 0; stroke: #b2b2b2; stroke-width: 0.5"/>
     </g>
     <g id="line2d_46">
      <g>
       <use xlink:href="#m93f2591590" x="786.24" y="354.165517" style="stroke: #000000; stroke-width: 0.8"/>
      </g>
     </g>
    </g>
    <g id="xtick_18">
     <g id="line2d_47">
      <path d="M 947.52 354.165517 
L 947.52 261.434483 
" clip-path="url(#pedcedefc80)" style="fill: none; stroke-dasharray: 1.85,0.8; stroke-dashoffset: 0; stroke: #b2b2b2; stroke-width: 0.5"/>
     </g>
     <g id="line2d_48">
      <g>
       <use xlink:href="#m93f2591590" x="947.52" y="354.165517" style="stroke: #000000; stroke-width: 0.8"/>
      </g>
     </g>
    </g>
   </g>
   <g id="matplotlib.axis_6">
    <g id="ytick_6">
     <g id="line2d_49">
      <path d="M 100.8 343.256669 
L 987.84 343.256669 
" clip-path="url(#pedcedefc80)" style="fill: none; stroke-dasharray: 1.85,0.8; stroke-dashoffset: 0; stroke: #b2b2b2; stroke-width: 0.5"/>
     </g>
     <g id="line2d_50">
      <g>
       <use xlink:href="#m0e4d382291" x="100.8" y="343.256669" style="stroke: #000000; stroke-width: 0.8"/>
      </g>
     </g>
     <g id="text_8">
      <!-- 0 V -->
      <g transform="translate(74.36625 348.575576) scale(0.14 -0.14)">
       <use xlink:href="#DejaVuSans-30"/>
       <use xlink:href="#DejaVuSans-20" x="63.623047"/>
       <use xlink:href="#DejaVuSans-56" x="95.410156"/>
      </g>
     </g>
    </g>
    <g id="ytick_7">
     <g id="line2d_51">
      <path d="M 100.8 299.691418 
L 987.84 299.691418 
" clip-path="url(#pedcedefc80)" style="fill: none; stroke-dasharray: 1.85,0.8; stroke-dashoffset: 0; stroke: #b2b2b2; stroke-width: 0.5"/>
     </g>
     <g id="line2d_52">
      <g>
       <use xlink:href="#m0e4d382291" x="100.8" y="299.691418" style="stroke: #000000; stroke-width: 0.8"/>
      </g>
     </g>
     <g id="text_9">
      <!-- 1 V -->
      <g transform="translate(74.36625 305.010324) scale(0.14 -0.14)">
       <use xlink:href="#DejaVuSans-31"/>
       <use xlink:href="#DejaVuSans-20" x="63.623047"/>
       <use xlink:href="#DejaVuSans-56" x="95.410156"/>
      </g>
     </g>
    </g>
    <g id="text_10">
     <g id="patch_15">
      <path d="M 34.8768 342.395313 
L 34.8768 273.204688 
L 11.247425 273.204688 
L 11.247425 342.395313 
z
" style="fill: #ffff00; opacity: 0.2; stroke: #eeeeee; stroke-width: 0.5; stroke-linejoin: miter"/>
     </g>
     <!-- CLK BUF -->
     <g transform="translate(26.925238 337.355313) rotate(-90) scale(0.14 -0.14)">
      <defs>
       <path id="DejaVuSans-43" d="M 4122 4306 
L 4122 3641 
Q 3803 3938 3442 4084 
Q 3081 4231 2675 4231 
Q 1875 4231 1450 3742 
Q 1025 3253 1025 2328 
Q 1025 1406 1450 917 
Q 1875 428 2675 428 
Q 3081 428 3442 575 
Q 3803 722 4122 1019 
L 4122 359 
Q 3791 134 3420 21 
Q 3050 -91 2638 -91 
Q 1578 -91 968 557 
Q 359 1206 359 2328 
Q 359 3453 968 4101 
Q 1578 4750 2638 4750 
Q 3056 4750 3426 4639 
Q 3797 4528 4122 4306 
z
" transform="scale(0.015625)"/>
       <path id="DejaVuSans-4b" d="M 628 4666 
L 1259 4666 
L 1259 2694 
L 3353 4666 
L 4166 4666 
L 1850 2491 
L 4331 0 
L 3500 0 
L 1259 2247 
L 1259 0 
L 628 0 
L 628 4666 
z
" transform="scale(0.015625)"/>
      </defs>
      <use xlink:href="#DejaVuSans-43"/>
      <use xlink:href="#DejaVuSans-4c" x="69.824219"/>
      <use xlink:href="#DejaVuSans-4b" x="125.537109"/>
      <use xlink:href="#DejaVuSans-20" x="191.113281"/>
      <use xlink:href="#DejaVuSans-42" x="222.900391"/>
      <use xlink:href="#DejaVuSans-55" x="291.503906"/>
      <use xlink:href="#DejaVuSans-46" x="364.697266"/>
     </g>
    </g>
   </g>
   <g id="line2d_53">
    <path d="M 141.12 343.255518 
L 173.376 343.255518 
L 173.601792 290.978367 
L 213.696 290.978367 
L 213.760512 332.678591 
L 213.825024 343.236766 
L 213.889536 343.174074 
L 213.954048 343.348113 
L 214.01856 343.26139 
L 215.341056 343.25225 
L 223.340544 343.255482 
L 254.016 343.255487 
L 254.17728 290.817176 
L 254.241792 291.095993 
L 254.403072 290.969654 
L 254.854656 290.978367 
L 294.336 290.978367 
L 294.400512 332.641996 
L 294.465024 343.581758 
L 294.529536 342.824319 
L 294.626304 343.325132 
L 294.65856 343.294131 
L 294.852096 343.217559 
L 295.206912 343.272522 
L 295.497216 343.255178 
L 320.366592 343.255517 
L 334.656 343.25552 
L 334.81728 290.89995 
L 334.881792 290.995793 
L 335.204352 290.982724 
L 336.043008 290.978367 
L 374.976 290.978367 
L 375.040512 332.682511 
L 375.105024 343.257376 
L 375.169536 343.16855 
L 375.234048 343.34163 
L 375.29856 343.261535 
L 376.685568 343.251873 
L 384.943104 343.255462 
L 415.296 343.255519 
L 415.45728 290.817176 
L 415.521792 291.095993 
L 415.683072 290.965298 
L 416.58624 290.978367 
L 455.616 290.978367 
L 455.680512 332.64461 
L 455.745024 343.587125 
L 455.809536 342.6231 
L 455.906304 343.895859 
L 455.93856 343.327528 
L 456.132096 343.230505 
L 456.519168 343.255969 
L 489.581568 343.255516 
L 495.936 343.255517 
L 496.09728 290.891237 
L 496.161792 290.995793 
L 497.097216 290.978367 
L 536.256 290.978367 
L 536.288256 294.803396 
L 536.41728 343.152161 
L 536.546304 343.314489 
L 536.610816 343.269701 
L 536.836608 343.243055 
L 537.094656 343.272122 
L 537.38496 343.255529 
L 550.738944 343.266407 
L 551.029248 343.5639 
L 551.706624 344.123836 
L 552.513024 344.484251 
L 553.641984 344.709919 
L 555.416064 344.792432 
L 559.512576 344.698505 
L 568.802304 344.477978 
L 569.092608 344.541365 
L 570.157056 344.88039 
L 570.60864 345.130716 
L 571.479552 345.644481 
L 572.189184 346.066759 
L 572.673024 346.377379 
L 573.02784 346.591589 
L 573.51168 346.90417 
L 576.446976 348.733257 
L 576.576 348.772466 
L 576.608256 349.95047 
L 576.801792 325.895481 
L 577.124352 325.596623 
L 580.414464 324.277032 
L 580.543488 324.217783 
L 584.414208 322.759218 
L 584.543232 322.752684 
L 584.672256 322.752684 
L 584.833536 322.57668 
L 584.865792 322.622423 
L 584.930304 322.540085 
L 584.994816 322.615017 
L 585.349632 322.455569 
L 585.381888 322.489985 
L 585.4464 322.414617 
L 585.543168 322.418102 
L 585.60768 322.337071 
L 585.672192 322.362339 
L 585.93024 322.267367 
L 587.091456 321.855239 
L 590.833152 320.539569 
L 590.865408 320.619293 
L 590.897664 320.522578 
L 591.026688 320.4202 
L 591.0912 320.496003 
L 591.155712 320.445903 
L 591.639552 320.292554 
L 594.381312 319.325841 
L 596.832768 318.253264 
L 598.18752 317.432931 
L 599.380992 316.667054 
L 602.929152 314.309302 
L 608.18688 311.103335 
L 610.896384 309.621245 
L 615.412224 307.197275 
L 616.863744 304.403871 
L 616.896 304.335909 
L 616.928256 303.043328 
L 617.089536 341.516194 
L 617.21856 341.560848 
L 618.315264 341.38576 
L 620.218368 341.342238 
L 624.895488 341.516107 
L 628.959744 341.685227 
L 635.507712 341.813178 
L 637.8624 341.812307 
L 641.120256 341.975589 
L 641.797632 342.66514 
L 642.53952 343.097112 
L 643.474944 343.387335 
L 644.829696 343.567538 
L 647.281152 343.648107 
L 656.183808 343.605684 
L 657.216 343.599811 
L 657.409536 265.64953 
L 657.474048 265.680025 
L 661.538304 267.444418 
L 662.280192 267.90621 
L 663.054336 268.337506 
L 665.28 269.661889 
L 665.699328 269.914568 
L 666.505728 270.358933 
L 672.634368 273.54791 
L 674.376192 274.371293 
L 675.730944 274.981207 
L 687.988224 279.830019 
L 688.278528 279.930219 
L 689.826816 280.439933 
L 690.213888 280.540133 
L 691.762176 281.049846 
L 692.149248 281.14569 
L 692.665344 281.311238 
L 693.02016 281.407081 
L 693.471744 281.529064 
L 697.536 282.657404 
L 697.729536 343.566571 
L 697.794048 343.478255 
L 698.18112 343.473759 
L 737.856 343.319926 
L 737.985024 288.325243 
L 738.081792 288.673765 
L 738.597888 288.712974 
L 740.081664 288.804461 
L 741.629952 288.913374 
L 741.888 288.9308 
L 743.629824 289.031 
L 743.98464 289.061496 
L 745.855488 289.161696 
L 746.210304 289.192192 
L 748.17792 289.292392 
L 748.532736 289.322888 
L 750.790656 289.423088 
L 751.145472 289.453583 
L 753.50016 289.553783 
L 753.854976 289.584279 
L 756.596736 289.684479 
L 756.951552 289.714975 
L 759.983616 289.815175 
L 760.338432 289.845671 
L 763.757568 289.945871 
L 764.112384 289.976366 
L 768.01536 290.076566 
L 768.370176 290.107062 
L 772.950528 290.207262 
L 773.305344 290.237758 
L 778.176 290.324888 
L 778.208256 295.21291 
L 778.305024 343.359976 
L 778.33728 343.194824 
L 778.563072 343.262723 
L 778.724352 343.276508 
L 779.756544 343.272509 
L 818.496 343.267992 
L 818.65728 290.455584 
L 818.721792 290.560141 
L 819.657216 290.542715 
L 858.816 290.542715 
L 858.945024 343.589591 
L 859.106304 343.336006 
L 859.364352 343.238886 
L 859.719168 343.286309 
L 860.041728 343.267766 
L 897.329664 343.267992 
L 899.136 343.267994 
L 899.29728 290.316175 
L 899.361792 290.808463 
L 899.45856 290.359741 
L 899.523072 290.525289 
L 900.006912 290.542715 
L 939.456 290.542715 
L 939.488256 298.39753 
L 939.61728 343.216215 
L 939.649536 343.342915 
L 939.714048 343.221682 
L 939.746304 343.18344 
L 939.810816 343.239662 
L 940.004352 343.294061 
L 940.230144 343.266611 
L 945.58464 343.267998 
L 947.52 343.267983 
L 947.52 343.267983 
" clip-path="url(#pedcedefc80)" style="fill: none; stroke: #0000ff; stroke-width: 2; stroke-linecap: square"/>
   </g>
   <g id="patch_16">
    <path d="M 100.8 354.165517 
L 100.8 261.434483 
" style="fill: none; stroke: #bcbcbc; stroke-width: 0.8; stroke-linejoin: miter; stroke-linecap: square"/>
   </g>
   <g id="patch_17">
    <path d="M 987.84 354.165517 
L 987.84 261.434483 
" style="fill: none; stroke: #bcbcbc; stroke-width: 0.8; stroke-linejoin: miter; stroke-linecap: square"/>
   </g>
   <g id="patch_18">
    <path d="M 100.8 354.165517 
L 987.84 354.165517 
" style="fill: none; stroke: #bcbcbc; stroke-width: 0.8; stroke-linejoin: miter; stroke-linecap: square"/>
   </g>
   <g id="patch_19">
    <path d="M 100.8 261.434483 
L 987.84 261.434483 
" style="fill: none; stroke: #bcbcbc; stroke-width: 0.8; stroke-linejoin: miter; stroke-linecap: square"/>
   </g>
  </g>
  <g id="axes_4">
   <g id="patch_20">
    <path d="M 100.8 465.442759 
L 987.84 465.442759 
L 987.84 372.711724 
L 100.8 372.711724 
z
" style="fill: #eeeeee"/>
   </g>
   <g id="matplotlib.axis_7">
    <g id="xtick_19">
     <g id="line2d_54">
      <path d="M 141.12 465.442759 
L 141.12 372.711724 
" clip-path="url(#p9b0e15ad55)" style="fill: none; stroke-dasharray: 1.85,0.8; stroke-dashoffset: 0; stroke: #b2b2b2; stroke-width: 0.5"/>
     </g>
     <g id="line2d_55">
      <g>
       <use xlink:href="#m93f2591590" x="141.12" y="465.442759" style="stroke: #000000; stroke-width: 0.8"/>
      </g>
     </g>
    </g>
    <g id="xtick_20">
     <g id="line2d_56">
      <path d="M 302.4 465.442759 
L 302.4 372.711724 
" clip-path="url(#p9b0e15ad55)" style="fill: none; stroke-dasharray: 1.85,0.8; stroke-dashoffset: 0; stroke: #b2b2b2; stroke-width: 0.5"/>
     </g>
     <g id="line2d_57">
      <g>
       <use xlink:href="#m93f2591590" x="302.4" y="465.442759" style="stroke: #000000; stroke-width: 0.8"/>
      </g>
     </g>
    </g>
    <g id="xtick_21">
     <g id="line2d_58">
      <path d="M 463.68 465.442759 
L 463.68 372.711724 
" clip-path="url(#p9b0e15ad55)" style="fill: none; stroke-dasharray: 1.85,0.8; stroke-dashoffset: 0; stroke: #b2b2b2; stroke-width: 0.5"/>
     </g>
     <g id="line2d_59">
      <g>
       <use xlink:href="#m93f2591590" x="463.68" y="465.442759" style="stroke: #000000; stroke-width: 0.8"/>
      </g>
     </g>
    </g>
    <g id="xtick_22">
     <g id="line2d_60">
      <path d="M 624.96 465.442759 
L 624.96 372.711724 
" clip-path="url(#p9b0e15ad55)" style="fill: none; stroke-dasharray: 1.85,0.8; stroke-dashoffset: 0; stroke: #b2b2b2; stroke-width: 0.5"/>
     </g>
     <g id="line2d_61">
      <g>
       <use xlink:href="#m93f2591590" x="624.96" y="465.442759" style="stroke: #000000; stroke-width: 0.8"/>
      </g>
     </g>
    </g>
    <g id="xtick_23">
     <g id="line2d_62">
      <path d="M 786.24 465.442759 
L 786.24 372.711724 
" clip-path="url(#p9b0e15ad55)" style="fill: none; stroke-dasharray: 1.85,0.8; stroke-dashoffset: 0; stroke: #b2b2b2; stroke-width: 0.5"/>
     </g>
     <g id="line2d_63">
      <g>
       <use xlink:href="#m93f2591590" x="786.24" y="465.442759" style="stroke: #000000; stroke-width: 0.8"/>
      </g>
     </g>
    </g>
    <g id="xtick_24">
     <g id="line2d_64">
      <path d="M 947.52 465.442759 
L 947.52 372.711724 
" clip-path="url(#p9b0e15ad55)" style="fill: none; stroke-dasharray: 1.85,0.8; stroke-dashoffset: 0; stroke: #b2b2b2; stroke-width: 0.5"/>
     </g>
     <g id="line2d_65">
      <g>
       <use xlink:href="#m93f2591590" x="947.52" y="465.442759" style="stroke: #000000; stroke-width: 0.8"/>
      </g>
     </g>
    </g>
   </g>
   <g id="matplotlib.axis_8">
    <g id="ytick_8">
     <g id="line2d_66">
      <path d="M 100.8 440.687229 
L 987.84 440.687229 
" clip-path="url(#p9b0e15ad55)" style="fill: none; stroke-dasharray: 1.85,0.8; stroke-dashoffset: 0; stroke: #b2b2b2; stroke-width: 0.5"/>
     </g>
     <g id="line2d_67">
      <g>
       <use xlink:href="#m0e4d382291" x="100.8" y="440.687229" style="stroke: #000000; stroke-width: 0.8"/>
      </g>
     </g>
     <g id="text_11">
      <!-- 0 V -->
      <g transform="translate(74.36625 446.006136) scale(0.14 -0.14)">
       <use xlink:href="#DejaVuSans-30"/>
       <use xlink:href="#DejaVuSans-20" x="63.623047"/>
       <use xlink:href="#DejaVuSans-56" x="95.410156"/>
      </g>
     </g>
    </g>
    <g id="ytick_9">
     <g id="line2d_68">
      <path d="M 100.8 404.731408 
L 987.84 404.731408 
" clip-path="url(#p9b0e15ad55)" style="fill: none; stroke-dasharray: 1.85,0.8; stroke-dashoffset: 0; stroke: #b2b2b2; stroke-width: 0.5"/>
     </g>
     <g id="line2d_69">
      <g>
       <use xlink:href="#m0e4d382291" x="100.8" y="404.731408" style="stroke: #000000; stroke-width: 0.8"/>
      </g>
     </g>
     <g id="text_12">
      <!-- 1 V -->
      <g transform="translate(74.36625 410.050314) scale(0.14 -0.14)">
       <use xlink:href="#DejaVuSans-31"/>
       <use xlink:href="#DejaVuSans-20" x="63.623047"/>
       <use xlink:href="#DejaVuSans-56" x="95.410156"/>
      </g>
     </g>
    </g>
    <g id="text_13">
     <g id="patch_21">
      <path d="M 34.8768 454.693023 
L 34.8768 383.46146 
L 11.247425 383.46146 
L 11.247425 454.693023 
z
" style="fill: #ffff00; opacity: 0.2; stroke: #eeeeee; stroke-width: 0.5; stroke-linejoin: miter"/>
     </g>
     <!-- DFF OUT -->
     <g transform="translate(26.925238 449.653023) rotate(-90) scale(0.14 -0.14)">
      <defs>
       <path id="DejaVuSans-4f" d="M 2522 4238 
Q 1834 4238 1429 3725 
Q 1025 3213 1025 2328 
Q 1025 1447 1429 934 
Q 1834 422 2522 422 
Q 3209 422 3611 934 
Q 4013 1447 4013 2328 
Q 4013 3213 3611 3725 
Q 3209 4238 2522 4238 
z
M 2522 4750 
Q 3503 4750 4090 4092 
Q 4678 3434 4678 2328 
Q 4678 1225 4090 567 
Q 3503 -91 2522 -91 
Q 1538 -91 948 565 
Q 359 1222 359 2328 
Q 359 3434 948 4092 
Q 1538 4750 2522 4750 
z
" transform="scale(0.015625)"/>
       <path id="DejaVuSans-54" d="M -19 4666 
L 3928 4666 
L 3928 4134 
L 2272 4134 
L 2272 0 
L 1638 0 
L 1638 4134 
L -19 4134 
L -19 4666 
z
" transform="scale(0.015625)"/>
      </defs>
      <use xlink:href="#DejaVuSans-44"/>
      <use xlink:href="#DejaVuSans-46" x="77.001953"/>
      <use xlink:href="#DejaVuSans-46" x="134.521484"/>
      <use xlink:href="#DejaVuSans-20" x="192.041016"/>
      <use xlink:href="#DejaVuSans-4f" x="223.828125"/>
      <use xlink:href="#DejaVuSans-55" x="302.539062"/>
      <use xlink:href="#DejaVuSans-54" x="375.732422"/>
     </g>
    </g>
   </g>
   <g id="line2d_70">
    <path d="M 141.12 413.557483 
L 173.408256 413.60135 
L 173.440512 415.089921 
L 173.601792 440.689424 
L 174.1824 440.685886 
L 185.439744 440.686268 
L 254.048256 440.687777 
L 254.080512 440.831513 
L 254.112768 440.593755 
L 254.306304 437.083377 
L 254.628864 436.276888 
L 254.693376 435.877779 
L 255.14496 429.578319 
L 255.370752 414.772431 
L 255.596544 397.889015 
L 255.757824 397.594177 
L 255.983616 397.536648 
L 257.015808 397.540244 
L 295.755264 397.612155 
L 296.239104 399.938497 
L 296.59392 399.356013 
L 297.980928 397.82789 
L 299.65824 397.565413 
L 334.688256 397.554626 
L 334.720512 397.450354 
L 334.752768 397.978905 
L 334.785024 400.592893 
L 334.914048 440.67249 
L 334.97856 440.640846 
L 335.13984 440.679693 
L 335.559168 440.6865 
L 370.169856 440.686238 
L 415.328256 440.687755 
L 415.360512 440.831013 
L 415.392768 440.595747 
L 415.586304 436.9996 
L 415.876608 436.174414 
L 415.908864 436.075536 
L 416.1024 431.811535 
L 416.521728 419.398147 
L 416.9088 397.658898 
L 417.102336 397.543839 
L 418.392576 397.511479 
L 495.968256 397.554626 
L 496.000512 397.676876 
L 496.065024 397.511479 
L 496.355328 397.533052 
L 550.867968 397.630133 
L 552.513024 399.629277 
L 558.770688 408.882148 
L 559.351296 410.157861 
L 560.254464 413.272354 
L 562.286592 421.470281 
L 562.415616 422.044496 
L 562.512384 421.955685 
L 562.641408 422.34221 
L 563.060736 424.778217 
L 563.6736 427.390407 
L 563.705856 427.004961 
L 563.738112 427.532073 
L 563.770368 427.213145 
L 563.931648 428.447149 
L 566.25408 437.640333 
L 566.286336 437.264307 
L 566.318592 437.410288 
L 566.479872 438.619015 
L 566.866944 439.698588 
L 566.8992 439.572311 
L 566.931456 440.399914 
L 567.028224 440.06976 
L 567.479808 442.285933 
L 567.512064 442.053766 
L 567.54432 442.148798 
L 567.673344 442.624745 
L 567.7056 442.501201 
L 567.737856 442.696621 
L 567.899136 443.735636 
L 569.544192 447.569893 
L 569.576448 447.477486 
L 569.64096 447.55551 
L 569.769984 447.722705 
L 569.80224 448.004239 
L 569.899008 447.932327 
L 570.1248 448.350853 
L 570.189312 448.833021 
L 570.253824 448.796705 
L 570.60864 449.724006 
L 571.640832 451.984189 
L 572.253696 453.246598 
L 572.318208 453.161742 
L 572.511744 453.5702 
L 572.673024 454.107021 
L 573.060096 454.824339 
L 573.479424 455.608536 
L 573.866496 456.181312 
L 573.963264 456.450621 
L 574.060032 456.651255 
L 574.092288 456.636153 
L 574.447104 457.408484 
L 574.769664 458.008227 
L 574.866432 458.086971 
L 576.285696 460.759207 
L 576.317952 460.698082 
L 576.350208 460.855569 
L 576.382464 460.80559 
L 576.640512 461.227712 
L 577.769472 459.567631 
L 578.059776 458.938404 
L 578.092032 458.917191 
L 578.124288 458.970765 
L 578.253312 458.615162 
L 578.285568 458.676646 
L 578.317824 458.560868 
L 578.446848 458.301986 
L 578.479104 458.370662 
L 578.640384 457.769481 
L 578.704896 458.073307 
L 579.833856 456.488015 
L 580.898304 455.529073 
L 581.4144 454.97032 
L 581.57568 454.632335 
L 581.607936 454.741641 
L 581.640192 454.549277 
L 581.672448 454.488872 
L 581.704704 454.684471 
L 581.769216 454.396465 
L 581.801472 454.362307 
L 581.833728 454.55503 
L 581.89824 454.271698 
L 582.607872 453.567683 
L 582.640128 453.547548 
L 582.672384 453.728765 
L 582.70464 453.531008 
L 582.736896 453.55402 
L 582.769152 453.579549 
L 582.801408 453.484985 
L 582.86592 453.50548 
L 582.994944 453.273565 
L 583.446528 452.987716 
L 583.865856 452.57782 
L 584.027136 452.19489 
L 584.15616 452.046393 
L 584.188416 452.252779 
L 584.252928 451.955065 
L 584.381952 451.780679 
L 584.414208 451.833894 
L 584.47872 451.887827 
L 584.543232 451.711644 
L 584.575488 451.901491 
L 584.64 451.656631 
L 584.672256 451.822747 
L 584.865792 451.347411 
L 584.898048 451.603057 
L 584.96256 451.273342 
L 585.059328 451.448447 
L 585.252864 451.036394 
L 585.28512 451.140306 
L 585.317376 450.966999 
L 585.349632 450.964122 
L 585.381888 451.163677 
L 585.4464 450.97419 
L 585.543168 451.002955 
L 585.639936 450.78722 
L 585.672192 450.840075 
L 585.833472 450.722859 
L 586.027008 450.603126 
L 586.510848 450.06235 
L 586.704384 449.694163 
L 586.994688 449.355459 
L 587.026944 449.576947 
L 587.091456 449.252985 
L 587.123712 449.412629 
L 587.188224 449.173522 
L 587.252736 449.062419 
L 587.284992 449.340357 
L 587.349504 449.147275 
L 587.446272 448.877246 
L 587.478528 448.902416 
L 587.510784 449.220625 
L 587.54304 448.827627 
L 587.575296 448.827627 
L 587.607552 448.981159 
L 587.639808 448.758952 
L 587.672064 448.736659 
L 587.70432 449.027901 
L 587.736576 448.650006 
L 587.768832 448.656118 
L 587.801088 448.733423 
L 587.833344 448.587802 
L 587.8656 448.58924 
L 587.897856 448.784121 
L 587.930112 448.51661 
L 587.994624 448.708973 
L 588.155904 448.399753 
L 588.18816 448.509778 
L 588.252672 448.351932 
L 589.123584 447.816909 
L 589.446144 447.454834 
L 589.542912 447.145614 
L 589.575168 447.19811 
L 589.607424 447.360989 
L 589.63968 447.083411 
L 589.671936 447.05968 
L 589.704192 447.231189 
L 589.736448 446.911542 
L 589.768704 446.926284 
L 589.80096 446.828484 
L 590.155776 446.485106 
L 590.188032 446.461734 
L 590.220288 446.825967 
L 590.317056 446.670638 
L 590.381568 446.706594 
L 590.478336 446.287349 
L 590.510592 446.5714 
L 590.542848 446.155391 
L 590.60736 446.529691 
L 590.736384 446.080962 
L 590.865408 446.308563 
L 590.92992 445.915206 
L 590.962176 445.925274 
L 590.994432 446.19674 
L 591.026688 445.862351 
L 591.058944 445.872059 
L 591.0912 446.057951 
L 591.123456 445.83826 
L 591.155712 445.835384 
L 591.962112 445.457848 
L 592.86528 444.681202 
L 592.962048 444.579447 
L 593.091072 444.042555 
L 593.252352 443.878416 
L 593.316864 444.286407 
L 593.445888 443.679113 
L 593.5104 444.000702 
L 593.542656 443.725856 
L 593.639424 443.552801 
L 593.67168 443.861409 
L 593.768448 443.744157 
L 593.83296 443.431234 
L 593.865216 443.809885 
L 593.929728 443.351915 
L 593.99424 443.395314 
L 594.026496 443.695869 
L 594.091008 443.594581 
L 594.252288 443.242574 
L 594.349056 443.387763 
L 594.381312 443.275689 
L 594.47808 443.314701 
L 594.63936 443.193242 
L 595.9296 442.0364 
L 596.123136 441.392 
L 596.187648 441.715674 
L 596.219904 441.371073 
L 596.25216 441.207007 
L 596.284416 441.508748 
L 596.316672 441.242495 
L 596.348928 441.394768 
L 596.445696 440.793346 
L 596.477952 440.882969 
L 596.510208 440.995166 
L 596.542464 440.876368 
L 596.57472 440.69379 
L 596.671488 440.757595 
L 596.703744 440.871514 
L 596.736 440.672659 
L 596.768256 440.697712 
L 596.89728 440.668879 
L 597.70368 439.270211 
L 597.832704 438.794767 
L 597.86496 439.031644 
L 597.929472 438.718109 
L 597.993984 438.289372 
L 598.058496 438.55958 
L 598.090752 438.575184 
L 598.123008 438.470985 
L 598.252032 438.253236 
L 598.284288 438.375702 
L 598.445568 438.147634 
L 599.445504 436.441926 
L 599.574528 435.845059 
L 599.606784 435.965871 
L 599.735808 435.964073 
L 600.058368 435.377993 
L 600.090624 435.384465 
L 600.348672 434.874971 
L 600.92928 433.694541 
L 600.961536 433.397187 
L 601.026048 433.610405 
L 601.09056 433.736969 
L 601.122816 433.612562 
L 601.41312 433.056685 
L 601.5744 432.939469 
L 601.73568 432.520584 
L 601.800192 432.563371 
L 601.961472 432.145924 
L 601.993728 432.231139 
L 602.025984 432.154553 
L 602.122752 431.911492 
L 602.155008 431.995269 
L 602.445312 431.568474 
L 602.767872 430.887111 
L 603.316224 429.935001 
L 603.34848 430.129162 
L 603.380736 429.863089 
L 603.67104 429.613915 
L 603.703296 429.713872 
L 603.767808 429.613196 
L 604.574208 428.336764 
L 604.703232 428.076804 
L 604.864512 427.319215 
L 604.896768 427.275708 
L 604.929024 427.484971 
L 604.993536 427.204156 
L 605.6064 425.918735 
L 605.735424 425.604122 
L 606.283776 424.231329 
L 606.477312 423.374861 
L 606.509568 424.086067 
L 606.57408 423.426278 
L 606.606336 423.233914 
L 606.670848 423.309781 
L 606.703104 423.672575 
L 606.767616 423.439222 
L 607.090176 423.094406 
L 608.18688 421.337245 
L 608.251392 420.804739 
L 608.315904 420.866942 
L 608.444928 420.891752 
L 608.573952 420.756198 
L 610.28352 418.373766 
L 610.573824 418.244325 
L 610.702848 418.434531 
L 610.831872 419.644804 
L 611.057664 435.244237 
L 611.186688 440.122759 
L 611.444736 440.200639 
L 614.573568 440.312857 
L 615.347712 440.246986 
L 616.025088 439.716674 
L 616.863744 439.370599 
L 617.992704 439.168959 
L 619.734528 439.102764 
L 624.250368 439.228861 
L 635.572224 439.498386 
L 638.217216 439.510647 
L 641.152512 439.674246 
L 641.829888 440.231346 
L 642.668544 440.611902 
L 643.862016 440.865387 
L 645.732864 440.99472 
L 650.409984 441.020892 
L 657.248256 440.988942 
L 657.280512 441.246163 
L 657.570816 430.140308 
L 657.732096 428.019634 
L 657.893376 421.040969 
L 658.054656 405.305982 
L 658.34496 376.944749 
L 658.50624 376.969918 
L 659.441664 377.271947 
L 659.79648 377.379815 
L 661.215744 377.962299 
L 661.667328 378.181629 
L 662.441472 378.548379 
L 662.925312 378.789283 
L 665.570304 380.080097 
L 666.021888 380.299427 
L 667.05408 380.756066 
L 668.279808 381.316977 
L 669.47328 381.831145 
L 670.021632 382.072049 
L 671.24736 382.597004 
L 673.82784 383.628936 
L 676.956672 384.790309 
L 678.085632 385.175037 
L 687.117312 388.087458 
L 687.472128 388.19173 
L 688.117248 388.360722 
L 690.11712 388.914442 
L 690.568704 389.02231 
L 692.084736 389.417824 
L 692.504064 389.522095 
L 693.697536 389.813338 
L 694.245888 389.921205 
L 695.43936 390.208852 
L 695.987712 390.316719 
L 697.084416 390.56841 
L 697.536 390.672682 
L 701.761536 391.503261 
L 702.3744 391.611129 
L 704.95488 392.078554 
L 705.567744 392.186422 
L 707.341824 392.474068 
L 708.083712 392.581936 
L 709.696512 392.833627 
L 710.406144 392.941494 
L 711.696384 393.121273 
L 712.53504 393.229141 
L 713.82528 393.40892 
L 714.663936 393.516787 
L 715.792896 393.66061 
L 716.792832 393.768478 
L 717.921792 393.912301 
L 718.921728 394.020169 
L 719.889408 394.128036 
L 720.953856 394.235904 
L 721.921536 394.343771 
L 723.082752 394.451639 
L 724.050432 394.559506 
L 725.405184 394.667373 
L 726.372864 394.775241 
L 727.824384 394.883108 
L 728.630784 394.95502 
L 730.050048 395.062888 
L 730.856448 395.134799 
L 732.469248 395.242667 
L 733.275648 395.314578 
L 735.081984 395.422446 
L 735.888384 395.494357 
L 737.888256 395.584247 
L 737.920512 395.825151 
L 737.985024 395.602225 
L 738.17856 395.63099 
L 739.694592 395.72807 
L 739.984896 395.746048 
L 742.242816 395.853916 
L 742.887936 395.886276 
L 744.855552 395.997739 
L 745.565184 396.030099 
L 747.468288 396.134371 
L 747.984384 396.141562 
L 750.7584 396.24943 
L 751.40352 396.28179 
L 753.66144 396.389657 
L 754.983936 396.425613 
L 758.016 396.533481 
L 759.338496 396.569436 
L 762.564096 396.677304 
L 763.564032 396.677304 
L 766.628352 396.785171 
L 767.628288 396.785171 
L 771.273216 396.889443 
L 771.789312 396.896634 
L 778.272768 396.979333 
L 778.401792 397.008097 
L 778.853376 397.011693 
L 779.272704 397.040458 
L 788.98176 397.14473 
L 789.433344 397.180685 
L 818.528256 397.195068 
L 818.560512 397.317318 
L 818.625024 397.151921 
L 818.915328 397.173494 
L 899.168256 397.17709 
L 899.200512 397.360465 
L 899.265024 397.17709 
L 899.45856 397.159112 
L 900.652032 397.180685 
L 947.52 397.180685 
L 947.52 397.180685 
" clip-path="url(#p9b0e15ad55)" style="fill: none; stroke: #ff00ff; stroke-width: 2; stroke-linecap: square"/>
   </g>
   <g id="patch_22">
    <path d="M 100.8 465.442759 
L 100.8 372.711724 
" style="fill: none; stroke: #bcbcbc; stroke-width: 0.8; stroke-linejoin: miter; stroke-linecap: square"/>
   </g>
   <g id="patch_23">
    <path d="M 987.84 465.442759 
L 987.84 372.711724 
" style="fill: none; stroke: #bcbcbc; stroke-width: 0.8; stroke-linejoin: miter; stroke-linecap: square"/>
   </g>
   <g id="patch_24">
    <path d="M 100.8 465.442759 
L 987.84 465.442759 
" style="fill: none; stroke: #bcbcbc; stroke-width: 0.8; stroke-linejoin: miter; stroke-linecap: square"/>
   </g>
   <g id="patch_25">
    <path d="M 100.8 372.711724 
L 987.84 372.711724 
" style="fill: none; stroke: #bcbcbc; stroke-width: 0.8; stroke-linejoin: miter; stroke-linecap: square"/>
   </g>
  </g>
  <g id="axes_5">
   <g id="patch_26">
    <path d="M 100.8 576.72 
L 987.84 576.72 
L 987.84 483.988966 
L 100.8 483.988966 
z
" style="fill: #eeeeee"/>
   </g>
   <g id="matplotlib.axis_9">
    <g id="xtick_25">
     <g id="line2d_71">
      <path d="M 141.12 576.72 
L 141.12 483.988966 
" clip-path="url(#pfee61976db)" style="fill: none; stroke-dasharray: 1.85,0.8; stroke-dashoffset: 0; stroke: #b2b2b2; stroke-width: 0.5"/>
     </g>
     <g id="line2d_72">
      <g>
       <use xlink:href="#m93f2591590" x="141.12" y="576.72" style="stroke: #000000; stroke-width: 0.8"/>
      </g>
     </g>
     <g id="text_14">
      <!-- 0 s -->
      <g transform="translate(130.795 590.857813) scale(0.14 -0.14)">
       <defs>
        <path id="DejaVuSans-73" d="M 2834 3397 
L 2834 2853 
Q 2591 2978 2328 3040 
Q 2066 3103 1784 3103 
Q 1356 3103 1142 2972 
Q 928 2841 928 2578 
Q 928 2378 1081 2264 
Q 1234 2150 1697 2047 
L 1894 2003 
Q 2506 1872 2764 1633 
Q 3022 1394 3022 966 
Q 3022 478 2636 193 
Q 2250 -91 1575 -91 
Q 1294 -91 989 -36 
Q 684 19 347 128 
L 347 722 
Q 666 556 975 473 
Q 1284 391 1588 391 
Q 1994 391 2212 530 
Q 2431 669 2431 922 
Q 2431 1156 2273 1281 
Q 2116 1406 1581 1522 
L 1381 1569 
Q 847 1681 609 1914 
Q 372 2147 372 2553 
Q 372 3047 722 3315 
Q 1072 3584 1716 3584 
Q 2034 3584 2315 3537 
Q 2597 3491 2834 3397 
z
" transform="scale(0.015625)"/>
       </defs>
       <use xlink:href="#DejaVuSans-30"/>
       <use xlink:href="#DejaVuSans-20" x="63.623047"/>
       <use xlink:href="#DejaVuSans-73" x="95.410156"/>
      </g>
     </g>
    </g>
    <g id="xtick_26">
     <g id="line2d_73">
      <path d="M 302.4 576.72 
L 302.4 483.988966 
" clip-path="url(#pfee61976db)" style="fill: none; stroke-dasharray: 1.85,0.8; stroke-dashoffset: 0; stroke: #b2b2b2; stroke-width: 0.5"/>
     </g>
     <g id="line2d_74">
      <g>
       <use xlink:href="#m93f2591590" x="302.4" y="576.72" style="stroke: #000000; stroke-width: 0.8"/>
      </g>
     </g>
     <g id="text_15">
      <!-- 50 ns -->
      <g transform="translate(283.185 590.857813) scale(0.14 -0.14)">
       <defs>
        <path id="DejaVuSans-35" d="M 691 4666 
L 3169 4666 
L 3169 4134 
L 1269 4134 
L 1269 2991 
Q 1406 3038 1543 3061 
Q 1681 3084 1819 3084 
Q 2600 3084 3056 2656 
Q 3513 2228 3513 1497 
Q 3513 744 3044 326 
Q 2575 -91 1722 -91 
Q 1428 -91 1123 -41 
Q 819 9 494 109 
L 494 744 
Q 775 591 1075 516 
Q 1375 441 1709 441 
Q 2250 441 2565 725 
Q 2881 1009 2881 1497 
Q 2881 1984 2565 2268 
Q 2250 2553 1709 2553 
Q 1456 2553 1204 2497 
Q 953 2441 691 2322 
L 691 4666 
z
" transform="scale(0.015625)"/>
        <path id="DejaVuSans-6e" d="M 3513 2113 
L 3513 0 
L 2938 0 
L 2938 2094 
Q 2938 2591 2744 2837 
Q 2550 3084 2163 3084 
Q 1697 3084 1428 2787 
Q 1159 2491 1159 1978 
L 1159 0 
L 581 0 
L 581 3500 
L 1159 3500 
L 1159 2956 
Q 1366 3272 1645 3428 
Q 1925 3584 2291 3584 
Q 2894 3584 3203 3211 
Q 3513 2838 3513 2113 
z
" transform="scale(0.015625)"/>
       </defs>
       <use xlink:href="#DejaVuSans-35"/>
       <use xlink:href="#DejaVuSans-30" x="63.623047"/>
       <use xlink:href="#DejaVuSans-20" x="127.246094"/>
       <use xlink:href="#DejaVuSans-6e" x="159.033203"/>
       <use xlink:href="#DejaVuSans-73" x="222.412109"/>
      </g>
     </g>
    </g>
    <g id="xtick_27">
     <g id="line2d_75">
      <path d="M 463.68 576.72 
L 463.68 483.988966 
" clip-path="url(#pfee61976db)" style="fill: none; stroke-dasharray: 1.85,0.8; stroke-dashoffset: 0; stroke: #b2b2b2; stroke-width: 0.5"/>
     </g>
     <g id="line2d_76">
      <g>
       <use xlink:href="#m93f2591590" x="463.68" y="576.72" style="stroke: #000000; stroke-width: 0.8"/>
      </g>
     </g>
     <g id="text_16">
      <!-- 100 ns -->
      <g transform="translate(440.01125 590.857813) scale(0.14 -0.14)">
       <use xlink:href="#DejaVuSans-31"/>
       <use xlink:href="#DejaVuSans-30" x="63.623047"/>
       <use xlink:href="#DejaVuSans-30" x="127.246094"/>
       <use xlink:href="#DejaVuSans-20" x="190.869141"/>
       <use xlink:href="#DejaVuSans-6e" x="222.65625"/>
       <use xlink:href="#DejaVuSans-73" x="286.035156"/>
      </g>
     </g>
    </g>
    <g id="xtick_28">
     <g id="line2d_77">
      <path d="M 624.96 576.72 
L 624.96 483.988966 
" clip-path="url(#pfee61976db)" style="fill: none; stroke-dasharray: 1.85,0.8; stroke-dashoffset: 0; stroke: #b2b2b2; stroke-width: 0.5"/>
     </g>
     <g id="line2d_78">
      <g>
       <use xlink:href="#m93f2591590" x="624.96" y="576.72" style="stroke: #000000; stroke-width: 0.8"/>
      </g>
     </g>
     <g id="text_17">
      <!-- 150 ns -->
      <g transform="translate(601.29125 590.857813) scale(0.14 -0.14)">
       <use xlink:href="#DejaVuSans-31"/>
       <use xlink:href="#DejaVuSans-35" x="63.623047"/>
       <use xlink:href="#DejaVuSans-30" x="127.246094"/>
       <use xlink:href="#DejaVuSans-20" x="190.869141"/>
       <use xlink:href="#DejaVuSans-6e" x="222.65625"/>
       <use xlink:href="#DejaVuSans-73" x="286.035156"/>
      </g>
     </g>
    </g>
    <g id="xtick_29">
     <g id="line2d_79">
      <path d="M 786.24 576.72 
L 786.24 483.988966 
" clip-path="url(#pfee61976db)" style="fill: none; stroke-dasharray: 1.85,0.8; stroke-dashoffset: 0; stroke: #b2b2b2; stroke-width: 0.5"/>
     </g>
     <g id="line2d_80">
      <g>
       <use xlink:href="#m93f2591590" x="786.24" y="576.72" style="stroke: #000000; stroke-width: 0.8"/>
      </g>
     </g>
     <g id="text_18">
      <!-- 200 ns -->
      <g transform="translate(762.57125 590.857813) scale(0.14 -0.14)">
       <use xlink:href="#DejaVuSans-32"/>
       <use xlink:href="#DejaVuSans-30" x="63.623047"/>
       <use xlink:href="#DejaVuSans-30" x="127.246094"/>
       <use xlink:href="#DejaVuSans-20" x="190.869141"/>
       <use xlink:href="#DejaVuSans-6e" x="222.65625"/>
       <use xlink:href="#DejaVuSans-73" x="286.035156"/>
      </g>
     </g>
    </g>
    <g id="xtick_30">
     <g id="line2d_81">
      <path d="M 947.52 576.72 
L 947.52 483.988966 
" clip-path="url(#pfee61976db)" style="fill: none; stroke-dasharray: 1.85,0.8; stroke-dashoffset: 0; stroke: #b2b2b2; stroke-width: 0.5"/>
     </g>
     <g id="line2d_82">
      <g>
       <use xlink:href="#m93f2591590" x="947.52" y="576.72" style="stroke: #000000; stroke-width: 0.8"/>
      </g>
     </g>
     <g id="text_19">
      <!-- 250 ns -->
      <g transform="translate(923.85125 590.857813) scale(0.14 -0.14)">
       <use xlink:href="#DejaVuSans-32"/>
       <use xlink:href="#DejaVuSans-35" x="63.623047"/>
       <use xlink:href="#DejaVuSans-30" x="127.246094"/>
       <use xlink:href="#DejaVuSans-20" x="190.869141"/>
       <use xlink:href="#DejaVuSans-6e" x="222.65625"/>
       <use xlink:href="#DejaVuSans-73" x="286.035156"/>
      </g>
     </g>
    </g>
    <g id="text_20">
     <!-- Time -->
     <g transform="translate(527.192969 608.407187) scale(0.14 -0.14)">
      <defs>
       <path id="DejaVuSans-69" d="M 603 3500 
L 1178 3500 
L 1178 0 
L 603 0 
L 603 3500 
z
M 603 4863 
L 1178 4863 
L 1178 4134 
L 603 4134 
L 603 4863 
z
" transform="scale(0.015625)"/>
       <path id="DejaVuSans-6d" d="M 3328 2828 
Q 3544 3216 3844 3400 
Q 4144 3584 4550 3584 
Q 5097 3584 5394 3201 
Q 5691 2819 5691 2113 
L 5691 0 
L 5113 0 
L 5113 2094 
Q 5113 2597 4934 2840 
Q 4756 3084 4391 3084 
Q 3944 3084 3684 2787 
Q 3425 2491 3425 1978 
L 3425 0 
L 2847 0 
L 2847 2094 
Q 2847 2600 2669 2842 
Q 2491 3084 2119 3084 
Q 1678 3084 1418 2786 
Q 1159 2488 1159 1978 
L 1159 0 
L 581 0 
L 581 3500 
L 1159 3500 
L 1159 2956 
Q 1356 3278 1631 3431 
Q 1906 3584 2284 3584 
Q 2666 3584 2933 3390 
Q 3200 3197 3328 2828 
z
" transform="scale(0.015625)"/>
       <path id="DejaVuSans-65" d="M 3597 1894 
L 3597 1613 
L 953 1613 
Q 991 1019 1311 708 
Q 1631 397 2203 397 
Q 2534 397 2845 478 
Q 3156 559 3463 722 
L 3463 178 
Q 3153 47 2828 -22 
Q 2503 -91 2169 -91 
Q 1331 -91 842 396 
Q 353 884 353 1716 
Q 353 2575 817 3079 
Q 1281 3584 2069 3584 
Q 2775 3584 3186 3129 
Q 3597 2675 3597 1894 
z
M 3022 2063 
Q 3016 2534 2758 2815 
Q 2500 3097 2075 3097 
Q 1594 3097 1305 2825 
Q 1016 2553 972 2059 
L 3022 2063 
z
" transform="scale(0.015625)"/>
      </defs>
      <use xlink:href="#DejaVuSans-54"/>
      <use xlink:href="#DejaVuSans-69" x="57.958984"/>
      <use xlink:href="#DejaVuSans-6d" x="85.742188"/>
      <use xlink:href="#DejaVuSans-65" x="183.154297"/>
     </g>
    </g>
   </g>
   <g id="matplotlib.axis_10">
    <g id="ytick_10">
     <g id="line2d_83">
      <path d="M 100.8 569.745885 
L 987.84 569.745885 
" clip-path="url(#pfee61976db)" style="fill: none; stroke-dasharray: 1.85,0.8; stroke-dashoffset: 0; stroke: #b2b2b2; stroke-width: 0.5"/>
     </g>
     <g id="line2d_84">
      <g>
       <use xlink:href="#m0e4d382291" x="100.8" y="569.745885" style="stroke: #000000; stroke-width: 0.8"/>
      </g>
     </g>
     <g id="text_21">
      <!-- 0 V -->
      <g transform="translate(74.36625 575.064792) scale(0.14 -0.14)">
       <use xlink:href="#DejaVuSans-30"/>
       <use xlink:href="#DejaVuSans-20" x="63.623047"/>
       <use xlink:href="#DejaVuSans-56" x="95.410156"/>
      </g>
     </g>
    </g>
    <g id="ytick_11">
     <g id="line2d_85">
      <path d="M 100.8 535.950348 
L 987.84 535.950348 
" clip-path="url(#pfee61976db)" style="fill: none; stroke-dasharray: 1.85,0.8; stroke-dashoffset: 0; stroke: #b2b2b2; stroke-width: 0.5"/>
     </g>
     <g id="line2d_86">
      <g>
       <use xlink:href="#m0e4d382291" x="100.8" y="535.950348" style="stroke: #000000; stroke-width: 0.8"/>
      </g>
     </g>
     <g id="text_22">
      <!-- 500 mV -->
      <g transform="translate(42.914375 541.269254) scale(0.14 -0.14)">
       <use xlink:href="#DejaVuSans-35"/>
       <use xlink:href="#DejaVuSans-30" x="63.623047"/>
       <use xlink:href="#DejaVuSans-30" x="127.246094"/>
       <use xlink:href="#DejaVuSans-20" x="190.869141"/>
       <use xlink:href="#DejaVuSans-6d" x="222.65625"/>
       <use xlink:href="#DejaVuSans-56" x="320.068359"/>
      </g>
     </g>
    </g>
    <g id="ytick_12">
     <g id="line2d_87">
      <path d="M 100.8 502.15481 
L 987.84 502.15481 
" clip-path="url(#pfee61976db)" style="fill: none; stroke-dasharray: 1.85,0.8; stroke-dashoffset: 0; stroke: #b2b2b2; stroke-width: 0.5"/>
     </g>
     <g id="line2d_88">
      <g>
       <use xlink:href="#m0e4d382291" x="100.8" y="502.15481" style="stroke: #000000; stroke-width: 0.8"/>
      </g>
     </g>
     <g id="text_23">
      <!-- 1 V -->
      <g transform="translate(74.36625 507.473717) scale(0.14 -0.14)">
       <use xlink:href="#DejaVuSans-31"/>
       <use xlink:href="#DejaVuSans-20" x="63.623047"/>
       <use xlink:href="#DejaVuSans-56" x="95.410156"/>
      </g>
     </g>
    </g>
    <g id="text_24">
     <g id="patch_27">
      <path d="M 34.8768 554.329483 
L 34.8768 506.379483 
L 11.247425 506.379483 
L 11.247425 554.329483 
z
" style="fill: #ffff00; opacity: 0.2; stroke: #eeeeee; stroke-width: 0.5; stroke-linejoin: miter"/>
     </g>
     <!-- FOUT -->
     <g transform="translate(26.925238 549.289483) rotate(-90) scale(0.14 -0.14)">
      <use xlink:href="#DejaVuSans-46"/>
      <use xlink:href="#DejaVuSans-4f" x="57.519531"/>
      <use xlink:href="#DejaVuSans-55" x="136.230469"/>
      <use xlink:href="#DejaVuSans-54" x="209.423828"/>
     </g>
    </g>
   </g>
   <g id="line2d_89">
    <path d="M 141.12 488.636595 
L 173.472768 488.643355 
L 173.505024 488.44734 
L 173.569536 526.789729 
L 173.69856 572.504953 
L 173.730816 572.3695 
L 173.827584 567.842115 
L 173.892096 569.3609 
L 174.053376 570.064192 
L 174.117888 569.946665 
L 174.408192 569.492054 
L 174.440448 569.54151 
L 174.66624 569.729954 
L 176.182272 569.740151 
L 180.117504 569.761449 
L 193.568256 569.752159 
L 212.954112 569.74401 
L 255.30624 569.743704 
L 255.6288 488.52845 
L 255.854592 488.670391 
L 256.209408 488.629836 
L 334.849536 488.650114 
L 334.881792 492.854278 
L 335.043072 572.18376 
L 335.107584 570.261206 
L 335.172096 568.338639 
L 335.236608 568.870108 
L 335.365632 570.783003 
L 335.430144 570.410083 
L 335.591424 569.797213 
L 335.881728 569.648439 
L 336.559104 569.817924 
L 337.107456 569.746143 
L 350.009856 569.744206 
L 416.489472 569.74333 
L 416.553984 567.480841 
L 416.812032 488.204013 
L 416.844288 488.339195 
L 416.973312 488.852887 
L 417.037824 488.778537 
L 417.39264 488.548727 
L 417.844224 488.717705 
L 418.457088 488.562245 
L 419.328 488.636595 
L 562.189824 488.575763 
L 562.22208 488.467618 
L 562.254336 488.514931 
L 562.286592 492.685301 
L 562.447872 570.247398 
L 562.512384 569.726272 
L 562.834944 569.744082 
L 600.058368 569.744204 
L 608.735232 569.796518 
L 608.767488 569.459401 
L 608.832 556.966441 
L 609.025536 488.98131 
L 609.186816 488.643355 
L 609.735168 488.636595 
L 610.799616 488.636595 
L 610.864128 504.130498 
L 611.057664 571.922183 
L 611.122176 569.743304 
L 611.41248 569.744206 
L 657.796608 569.744212 
L 657.86112 557.45918 
L 658.18368 488.629836 
L 658.732032 488.636595 
L 947.52 488.636595 
L 947.52 488.636595 
" clip-path="url(#pfee61976db)" style="fill: none; stroke: #ff00ff; stroke-width: 2; stroke-linecap: square"/>
   </g>
   <g id="patch_28">
    <path d="M 100.8 576.72 
L 100.8 483.988966 
" style="fill: none; stroke: #bcbcbc; stroke-width: 0.8; stroke-linejoin: miter; stroke-linecap: square"/>
   </g>
   <g id="patch_29">
    <path d="M 987.84 576.72 
L 987.84 483.988966 
" style="fill: none; stroke: #bcbcbc; stroke-width: 0.8; stroke-linejoin: miter; stroke-linecap: square"/>
   </g>
   <g id="patch_30">
    <path d="M 100.8 576.72 
L 987.84 576.72 
" style="fill: none; stroke: #bcbcbc; stroke-width: 0.8; stroke-linejoin: miter; stroke-linecap: square"/>
   </g>
   <g id="patch_31">
    <path d="M 100.8 483.988966 
L 987.84 483.988966 
" style="fill: none; stroke: #bcbcbc; stroke-width: 0.8; stroke-linejoin: miter; stroke-linecap: square"/>
   </g>
  </g>
  <g id="axes_6">
   <g id="patch_32">
    <path d="M 201.6 628.56 
L 856.8 628.56 
L 856.8 615.6 
L 201.6 615.6 
z
" clip-path="url(#pa905e4f134)" style="fill: #d3d3d3"/>
   </g>
   <g id="patch_33">
    <path d="M 201.6 628.56 
L 721.08 628.56 
L 721.08 615.6 
L 201.6 615.6 
z
" clip-path="url(#pa905e4f134)" style="fill: #0000ff"/>
   </g>
   <g id="line2d_90">
    <path d="M 201.6 635.04 
L 201.6 609.12 
" clip-path="url(#p5fdc85a315)" style="fill: none; stroke: #ff0000; stroke-linecap: square"/>
   </g>
   <g id="line2d_91">
    <defs>
     <path id="m6fea437fdd" d="M 0 5 
C 1.326016 5 2.597899 4.473168 3.535534 3.535534 
C 4.473168 2.597899 5 1.326016 5 0 
C 5 -1.326016 4.473168 -2.597899 3.535534 -3.535534 
C 2.597899 -4.473168 1.326016 -5 0 -5 
C -1.326016 -5 -2.597899 -4.473168 -3.535534 -3.535534 
C -4.473168 -2.597899 -5 -1.326016 -5 0 
C -5 1.326016 -4.473168 2.597899 -3.535534 3.535534 
C -2.597899 4.473168 -1.326016 5 0 5 
z
" style="stroke: #bfbfbf"/>
    </defs>
    <g>
     <use xlink:href="#m6fea437fdd" x="721.08" y="622.08" style="fill: #ffffff; stroke: #bfbfbf"/>
    </g>
   </g>
   <g id="text_25">
    <!-- #Sweep -->
    <g transform="translate(138.622875 625.39125) scale(0.12 -0.12)">
     <defs>
      <path id="DejaVuSans-23" d="M 3272 2816 
L 2363 2816 
L 2100 1772 
L 3016 1772 
L 3272 2816 
z
M 2803 4594 
L 2478 3297 
L 3391 3297 
L 3719 4594 
L 4219 4594 
L 3897 3297 
L 4872 3297 
L 4872 2816 
L 3775 2816 
L 3519 1772 
L 4513 1772 
L 4513 1294 
L 3397 1294 
L 3072 0 
L 2572 0 
L 2894 1294 
L 1978 1294 
L 1656 0 
L 1153 0 
L 1478 1294 
L 494 1294 
L 494 1772 
L 1594 1772 
L 1856 2816 
L 850 2816 
L 850 3297 
L 1978 3297 
L 2297 4594 
L 2803 4594 
z
" transform="scale(0.015625)"/>
      <path id="DejaVuSans-77" d="M 269 3500 
L 844 3500 
L 1563 769 
L 2278 3500 
L 2956 3500 
L 3675 769 
L 4391 3500 
L 4966 3500 
L 4050 0 
L 3372 0 
L 2619 2869 
L 1863 0 
L 1184 0 
L 269 3500 
z
" transform="scale(0.015625)"/>
      <path id="DejaVuSans-70" d="M 1159 525 
L 1159 -1331 
L 581 -1331 
L 581 3500 
L 1159 3500 
L 1159 2969 
Q 1341 3281 1617 3432 
Q 1894 3584 2278 3584 
Q 2916 3584 3314 3078 
Q 3713 2572 3713 1747 
Q 3713 922 3314 415 
Q 2916 -91 2278 -91 
Q 1894 -91 1617 61 
Q 1341 213 1159 525 
z
M 3116 1747 
Q 3116 2381 2855 2742 
Q 2594 3103 2138 3103 
Q 1681 3103 1420 2742 
Q 1159 2381 1159 1747 
Q 1159 1113 1420 752 
Q 1681 391 2138 391 
Q 2594 391 2855 752 
Q 3116 1113 3116 1747 
z
" transform="scale(0.015625)"/>
     </defs>
     <use xlink:href="#DejaVuSans-23"/>
     <use xlink:href="#DejaVuSans-53" x="83.789062"/>
     <use xlink:href="#DejaVuSans-77" x="147.265625"/>
     <use xlink:href="#DejaVuSans-65" x="229.052734"/>
     <use xlink:href="#DejaVuSans-65" x="290.576172"/>
     <use xlink:href="#DejaVuSans-70" x="352.099609"/>
    </g>
   </g>
   <g id="text_26">
    <!-- $\mathdefault{111}$ -->
    <g transform="translate(869.904 625.39125) scale(0.12 -0.12)">
     <use xlink:href="#DejaVuSans-31" transform="translate(0 0.09375)"/>
     <use xlink:href="#DejaVuSans-31" transform="translate(63.623047 0.09375)"/>
     <use xlink:href="#DejaVuSans-31" transform="translate(127.246094 0.09375)"/>
    </g>
   </g>
  </g>
  <g id="text_27">
   <!-- DFF under BBI sweep analysis (Sweep = 121E-9) -->
   <g transform="translate(308.25625 25.1175) scale(0.16 -0.16)">
    <defs>
     <path id="DejaVuSans-75" d="M 544 1381 
L 544 3500 
L 1119 3500 
L 1119 1403 
Q 1119 906 1312 657 
Q 1506 409 1894 409 
Q 2359 409 2629 706 
Q 2900 1003 2900 1516 
L 2900 3500 
L 3475 3500 
L 3475 0 
L 2900 0 
L 2900 538 
Q 2691 219 2414 64 
Q 2138 -91 1772 -91 
Q 1169 -91 856 284 
Q 544 659 544 1381 
z
M 1991 3584 
L 1991 3584 
z
" transform="scale(0.015625)"/>
     <path id="DejaVuSans-64" d="M 2906 2969 
L 2906 4863 
L 3481 4863 
L 3481 0 
L 2906 0 
L 2906 525 
Q 2725 213 2448 61 
Q 2172 -91 1784 -91 
Q 1150 -91 751 415 
Q 353 922 353 1747 
Q 353 2572 751 3078 
Q 1150 3584 1784 3584 
Q 2172 3584 2448 3432 
Q 2725 3281 2906 2969 
z
M 947 1747 
Q 947 1113 1208 752 
Q 1469 391 1925 391 
Q 2381 391 2643 752 
Q 2906 1113 2906 1747 
Q 2906 2381 2643 2742 
Q 2381 3103 1925 3103 
Q 1469 3103 1208 2742 
Q 947 2381 947 1747 
z
" transform="scale(0.015625)"/>
     <path id="DejaVuSans-72" d="M 2631 2963 
Q 2534 3019 2420 3045 
Q 2306 3072 2169 3072 
Q 1681 3072 1420 2755 
Q 1159 2438 1159 1844 
L 1159 0 
L 581 0 
L 581 3500 
L 1159 3500 
L 1159 2956 
Q 1341 3275 1631 3429 
Q 1922 3584 2338 3584 
Q 2397 3584 2469 3576 
Q 2541 3569 2628 3553 
L 2631 2963 
z
" transform="scale(0.015625)"/>
     <path id="DejaVuSans-61" d="M 2194 1759 
Q 1497 1759 1228 1600 
Q 959 1441 959 1056 
Q 959 750 1161 570 
Q 1363 391 1709 391 
Q 2188 391 2477 730 
Q 2766 1069 2766 1631 
L 2766 1759 
L 2194 1759 
z
M 3341 1997 
L 3341 0 
L 2766 0 
L 2766 531 
Q 2569 213 2275 61 
Q 1981 -91 1556 -91 
Q 1019 -91 701 211 
Q 384 513 384 1019 
Q 384 1609 779 1909 
Q 1175 2209 1959 2209 
L 2766 2209 
L 2766 2266 
Q 2766 2663 2505 2880 
Q 2244 3097 1772 3097 
Q 1472 3097 1187 3025 
Q 903 2953 641 2809 
L 641 3341 
Q 956 3463 1253 3523 
Q 1550 3584 1831 3584 
Q 2591 3584 2966 3190 
Q 3341 2797 3341 1997 
z
" transform="scale(0.015625)"/>
     <path id="DejaVuSans-6c" d="M 603 4863 
L 1178 4863 
L 1178 0 
L 603 0 
L 603 4863 
z
" transform="scale(0.015625)"/>
     <path id="DejaVuSans-79" d="M 2059 -325 
Q 1816 -950 1584 -1140 
Q 1353 -1331 966 -1331 
L 506 -1331 
L 506 -850 
L 844 -850 
Q 1081 -850 1212 -737 
Q 1344 -625 1503 -206 
L 1606 56 
L 191 3500 
L 800 3500 
L 1894 763 
L 2988 3500 
L 3597 3500 
L 2059 -325 
z
" transform="scale(0.015625)"/>
     <path id="DejaVuSans-28" d="M 1984 4856 
Q 1566 4138 1362 3434 
Q 1159 2731 1159 2009 
Q 1159 1288 1364 580 
Q 1569 -128 1984 -844 
L 1484 -844 
Q 1016 -109 783 600 
Q 550 1309 550 2009 
Q 550 2706 781 3412 
Q 1013 4119 1484 4856 
L 1984 4856 
z
" transform="scale(0.015625)"/>
     <path id="DejaVuSans-3d" d="M 678 2906 
L 4684 2906 
L 4684 2381 
L 678 2381 
L 678 2906 
z
M 678 1631 
L 4684 1631 
L 4684 1100 
L 678 1100 
L 678 1631 
z
" transform="scale(0.015625)"/>
     <path id="DejaVuSans-2d" d="M 313 2009 
L 1997 2009 
L 1997 1497 
L 313 1497 
L 313 2009 
z
" transform="scale(0.015625)"/>
     <path id="DejaVuSans-39" d="M 703 97 
L 703 672 
Q 941 559 1184 500 
Q 1428 441 1663 441 
Q 2288 441 2617 861 
Q 2947 1281 2994 2138 
Q 2813 1869 2534 1725 
Q 2256 1581 1919 1581 
Q 1219 1581 811 2004 
Q 403 2428 403 3163 
Q 403 3881 828 4315 
Q 1253 4750 1959 4750 
Q 2769 4750 3195 4129 
Q 3622 3509 3622 2328 
Q 3622 1225 3098 567 
Q 2575 -91 1691 -91 
Q 1453 -91 1209 -44 
Q 966 3 703 97 
z
M 1959 2075 
Q 2384 2075 2632 2365 
Q 2881 2656 2881 3163 
Q 2881 3666 2632 3958 
Q 2384 4250 1959 4250 
Q 1534 4250 1286 3958 
Q 1038 3666 1038 3163 
Q 1038 2656 1286 2365 
Q 1534 2075 1959 2075 
z
" transform="scale(0.015625)"/>
     <path id="DejaVuSans-29" d="M 513 4856 
L 1013 4856 
Q 1481 4119 1714 3412 
Q 1947 2706 1947 2009 
Q 1947 1309 1714 600 
Q 1481 -109 1013 -844 
L 513 -844 
Q 928 -128 1133 580 
Q 1338 1288 1338 2009 
Q 1338 2731 1133 3434 
Q 928 4138 513 4856 
z
" transform="scale(0.015625)"/>
    </defs>
    <use xlink:href="#DejaVuSans-44"/>
    <use xlink:href="#DejaVuSans-46" x="77.001953"/>
    <use xlink:href="#DejaVuSans-46" x="134.521484"/>
    <use xlink:href="#DejaVuSans-20" x="192.041016"/>
    <use xlink:href="#DejaVuSans-75" x="223.828125"/>
    <use xlink:href="#DejaVuSans-6e" x="287.207031"/>
    <use xlink:href="#DejaVuSans-64" x="350.585938"/>
    <use xlink:href="#DejaVuSans-65" x="414.0625"/>
    <use xlink:href="#DejaVuSans-72" x="475.585938"/>
    <use xlink:href="#DejaVuSans-20" x="516.699219"/>
    <use xlink:href="#DejaVuSans-42" x="548.486328"/>
    <use xlink:href="#DejaVuSans-42" x="617.089844"/>
    <use xlink:href="#DejaVuSans-49" x="685.693359"/>
    <use xlink:href="#DejaVuSans-20" x="715.185547"/>
    <use xlink:href="#DejaVuSans-73" x="746.972656"/>
    <use xlink:href="#DejaVuSans-77" x="799.072266"/>
    <use xlink:href="#DejaVuSans-65" x="880.859375"/>
    <use xlink:href="#DejaVuSans-65" x="942.382812"/>
    <use xlink:href="#DejaVuSans-70" x="1003.90625"/>
    <use xlink:href="#DejaVuSans-20" x="1067.382812"/>
    <use xlink:href="#DejaVuSans-61" x="1099.169922"/>
    <use xlink:href="#DejaVuSans-6e" x="1160.449219"/>
    <use xlink:href="#DejaVuSans-61" x="1223.828125"/>
    <use xlink:href="#DejaVuSans-6c" x="1285.107422"/>
    <use xlink:href="#DejaVuSans-79" x="1312.890625"/>
    <use xlink:href="#DejaVuSans-73" x="1372.070312"/>
    <use xlink:href="#DejaVuSans-69" x="1424.169922"/>
    <use xlink:href="#DejaVuSans-73" x="1451.953125"/>
    <use xlink:href="#DejaVuSans-20" x="1504.052734"/>
    <use xlink:href="#DejaVuSans-28" x="1535.839844"/>
    <use xlink:href="#DejaVuSans-53" x="1574.853516"/>
    <use xlink:href="#DejaVuSans-77" x="1638.330078"/>
    <use xlink:href="#DejaVuSans-65" x="1720.117188"/>
    <use xlink:href="#DejaVuSans-65" x="1781.640625"/>
    <use xlink:href="#DejaVuSans-70" x="1843.164062"/>
    <use xlink:href="#DejaVuSans-20" x="1906.640625"/>
    <use xlink:href="#DejaVuSans-3d" x="1938.427734"/>
    <use xlink:href="#DejaVuSans-20" x="2022.216797"/>
    <use xlink:href="#DejaVuSans-31" x="2054.003906"/>
    <use xlink:href="#DejaVuSans-32" x="2117.626953"/>
    <use xlink:href="#DejaVuSans-31" x="2181.25"/>
    <use xlink:href="#DejaVuSans-45" x="2244.873047"/>
    <use xlink:href="#DejaVuSans-2d" x="2308.056641"/>
    <use xlink:href="#DejaVuSans-39" x="2344.140625"/>
    <use xlink:href="#DejaVuSans-29" x="2407.763672"/>
   </g>
  </g>
 </g>
 <defs>
  <clipPath id="p6090674ad0">
   <rect x="100.8" y="38.88" width="887.04" height="92.731034"/>
  </clipPath>
  <clipPath id="pf02e43b6e9">
   <rect x="100.8" y="150.157241" width="887.04" height="92.731034"/>
  </clipPath>
  <clipPath id="pedcedefc80">
   <rect x="100.8" y="261.434483" width="887.04" height="92.731034"/>
  </clipPath>
  <clipPath id="p9b0e15ad55">
   <rect x="100.8" y="372.711724" width="887.04" height="92.731034"/>
  </clipPath>
  <clipPath id="pfee61976db">
   <rect x="100.8" y="483.988966" width="887.04" height="92.731034"/>
  </clipPath>
  <clipPath id="pa905e4f134">
   <rect x="201.6" y="609.12" width="655.2" height="25.92"/>
  </clipPath>
  <clipPath id="p5fdc85a315">
   <path d="M 201.6 628.56 
L 856.8 628.56 
L 856.8 615.6 
L 201.6 615.6 
z
"/>
  </clipPath>
 </defs>
</svg>
