<?xml version="1.0" encoding="utf-8" standalone="no"?>
<!DOCTYPE svg PUBLIC "-//W3C//DTD SVG 1.1//EN"
  "http://www.w3.org/Graphics/SVG/1.1/DTD/svg11.dtd">
<svg xmlns:xlink="http://www.w3.org/1999/xlink" width="1008pt" height="648pt" viewBox="0 0 1008 648" xmlns="http://www.w3.org/2000/svg" version="1.1">
 <metadata>
  <rdf:RDF xmlns:dc="http://purl.org/dc/elements/1.1/" xmlns:cc="http://creativecommons.org/ns#" xmlns:rdf="http://www.w3.org/1999/02/22-rdf-syntax-ns#">
   <cc:Work>
    <dc:type rdf:resource="http://purl.org/dc/dcmitype/StillImage"/>
    <dc:date>2024-06-03T10:45:37.888760</dc:date>
    <dc:format>image/svg+xml</dc:format>
    <dc:creator>
     <cc:Agent>
      <dc:title>Matplotlib v3.9.0, https://matplotlib.org/</dc:title>
     </cc:Agent>
    </dc:creator>
   </cc:Work>
  </rdf:RDF>
 </metadata>
 <defs>
  <style type="text/css">*{stroke-linejoin: round; stroke-linecap: butt}</style>
 </defs>
 <g id="figure_1">
  <g id="patch_1">
   <path d="M 0 648 
L 1008 648 
L 1008 0 
L 0 0 
z
" style="fill: #ffffff"/>
  </g>
  <g id="axes_1">
   <g id="patch_2">
    <path d="M 100.8 131.611034 
L 987.84 131.611034 
L 987.84 38.88 
L 100.8 38.88 
z
" style="fill: #eeeeee"/>
   </g>
   <g id="matplotlib.axis_1">
    <g id="xtick_1">
     <g id="line2d_1">
      <path d="M 141.12 131.611034 
L 141.12 38.88 
" clip-path="url(#pb0e964baaa)" style="fill: none; stroke-dasharray: 1.85,0.8; stroke-dashoffset: 0; stroke: #b2b2b2; stroke-width: 0.5"/>
     </g>
     <g id="line2d_2">
      <defs>
       <path id="m85b48e6f42" d="M 0 0 
L 0 -3.5 
" style="stroke: #000000; stroke-width: 0.8"/>
      </defs>
      <g>
       <use xlink:href="#m85b48e6f42" x="141.12" y="131.611034" style="stroke: #000000; stroke-width: 0.8"/>
      </g>
     </g>
    </g>
    <g id="xtick_2">
     <g id="line2d_3">
      <path d="M 302.4 131.611034 
L 302.4 38.88 
" clip-path="url(#pb0e964baaa)" style="fill: none; stroke-dasharray: 1.85,0.8; stroke-dashoffset: 0; stroke: #b2b2b2; stroke-width: 0.5"/>
     </g>
     <g id="line2d_4">
      <g>
       <use xlink:href="#m85b48e6f42" x="302.4" y="131.611034" style="stroke: #000000; stroke-width: 0.8"/>
      </g>
     </g>
    </g>
    <g id="xtick_3">
     <g id="line2d_5">
      <path d="M 463.68 131.611034 
L 463.68 38.88 
" clip-path="url(#pb0e964baaa)" style="fill: none; stroke-dasharray: 1.85,0.8; stroke-dashoffset: 0; stroke: #b2b2b2; stroke-width: 0.5"/>
     </g>
     <g id="line2d_6">
      <g>
       <use xlink:href="#m85b48e6f42" x="463.68" y="131.611034" style="stroke: #000000; stroke-width: 0.8"/>
      </g>
     </g>
    </g>
    <g id="xtick_4">
     <g id="line2d_7">
      <path d="M 624.96 131.611034 
L 624.96 38.88 
" clip-path="url(#pb0e964baaa)" style="fill: none; stroke-dasharray: 1.85,0.8; stroke-dashoffset: 0; stroke: #b2b2b2; stroke-width: 0.5"/>
     </g>
     <g id="line2d_8">
      <g>
       <use xlink:href="#m85b48e6f42" x="624.96" y="131.611034" style="stroke: #000000; stroke-width: 0.8"/>
      </g>
     </g>
    </g>
    <g id="xtick_5">
     <g id="line2d_9">
      <path d="M 786.24 131.611034 
L 786.24 38.88 
" clip-path="url(#pb0e964baaa)" style="fill: none; stroke-dasharray: 1.85,0.8; stroke-dashoffset: 0; stroke: #b2b2b2; stroke-width: 0.5"/>
     </g>
     <g id="line2d_10">
      <g>
       <use xlink:href="#m85b48e6f42" x="786.24" y="131.611034" style="stroke: #000000; stroke-width: 0.8"/>
      </g>
     </g>
    </g>
    <g id="xtick_6">
     <g id="line2d_11">
      <path d="M 947.52 131.611034 
L 947.52 38.88 
" clip-path="url(#pb0e964baaa)" style="fill: none; stroke-dasharray: 1.85,0.8; stroke-dashoffset: 0; stroke: #b2b2b2; stroke-width: 0.5"/>
     </g>
     <g id="line2d_12">
      <g>
       <use xlink:href="#m85b48e6f42" x="947.52" y="131.611034" style="stroke: #000000; stroke-width: 0.8"/>
      </g>
     </g>
    </g>
   </g>
   <g id="matplotlib.axis_2">
    <g id="ytick_1">
     <g id="line2d_13">
      <path d="M 100.8 98.340394 
L 987.84 98.340394 
" clip-path="url(#pb0e964baaa)" style="fill: none; stroke-dasharray: 1.85,0.8; stroke-dashoffset: 0; stroke: #b2b2b2; stroke-width: 0.5"/>
     </g>
     <g id="line2d_14">
      <defs>
       <path id="m9de8a6d111" d="M 0 0 
L 3.5 0 
" style="stroke: #000000; stroke-width: 0.8"/>
      </defs>
      <g>
       <use xlink:href="#m9de8a6d111" x="100.8" y="98.340394" style="stroke: #000000; stroke-width: 0.8"/>
      </g>
     </g>
     <g id="text_1">
      <!-- −200 V -->
      <g transform="translate(44.819688 103.6593) scale(0.14 -0.14)">
       <defs>
        <path id="DejaVuSans-2212" d="M 678 2272 
L 4684 2272 
L 4684 1741 
L 678 1741 
L 678 2272 
z
" transform="scale(0.015625)"/>
        <path id="DejaVuSans-32" d="M 1228 531 
L 3431 531 
L 3431 0 
L 469 0 
L 469 531 
Q 828 903 1448 1529 
Q 2069 2156 2228 2338 
Q 2531 2678 2651 2914 
Q 2772 3150 2772 3378 
Q 2772 3750 2511 3984 
Q 2250 4219 1831 4219 
Q 1534 4219 1204 4116 
Q 875 4013 500 3803 
L 500 4441 
Q 881 4594 1212 4672 
Q 1544 4750 1819 4750 
Q 2544 4750 2975 4387 
Q 3406 4025 3406 3419 
Q 3406 3131 3298 2873 
Q 3191 2616 2906 2266 
Q 2828 2175 2409 1742 
Q 1991 1309 1228 531 
z
" transform="scale(0.015625)"/>
        <path id="DejaVuSans-30" d="M 2034 4250 
Q 1547 4250 1301 3770 
Q 1056 3291 1056 2328 
Q 1056 1369 1301 889 
Q 1547 409 2034 409 
Q 2525 409 2770 889 
Q 3016 1369 3016 2328 
Q 3016 3291 2770 3770 
Q 2525 4250 2034 4250 
z
M 2034 4750 
Q 2819 4750 3233 4129 
Q 3647 3509 3647 2328 
Q 3647 1150 3233 529 
Q 2819 -91 2034 -91 
Q 1250 -91 836 529 
Q 422 1150 422 2328 
Q 422 3509 836 4129 
Q 1250 4750 2034 4750 
z
" transform="scale(0.015625)"/>
        <path id="DejaVuSans-20" transform="scale(0.015625)"/>
        <path id="DejaVuSans-56" d="M 1831 0 
L 50 4666 
L 709 4666 
L 2188 738 
L 3669 4666 
L 4325 4666 
L 2547 0 
L 1831 0 
z
" transform="scale(0.015625)"/>
       </defs>
       <use xlink:href="#DejaVuSans-2212"/>
       <use xlink:href="#DejaVuSans-32" x="83.789062"/>
       <use xlink:href="#DejaVuSans-30" x="147.412109"/>
       <use xlink:href="#DejaVuSans-30" x="211.035156"/>
       <use xlink:href="#DejaVuSans-20" x="274.658203"/>
       <use xlink:href="#DejaVuSans-56" x="306.445312"/>
      </g>
     </g>
    </g>
    <g id="ytick_2">
     <g id="line2d_15">
      <path d="M 100.8 45.027377 
L 987.84 45.027377 
" clip-path="url(#pb0e964baaa)" style="fill: none; stroke-dasharray: 1.85,0.8; stroke-dashoffset: 0; stroke: #b2b2b2; stroke-width: 0.5"/>
     </g>
     <g id="line2d_16">
      <g>
       <use xlink:href="#m9de8a6d111" x="100.8" y="45.027377" style="stroke: #000000; stroke-width: 0.8"/>
      </g>
     </g>
     <g id="text_2">
      <!-- 0 V -->
      <g transform="translate(74.36625 50.346284) scale(0.14 -0.14)">
       <use xlink:href="#DejaVuSans-30"/>
       <use xlink:href="#DejaVuSans-20" x="63.623047"/>
       <use xlink:href="#DejaVuSans-56" x="95.410156"/>
      </g>
     </g>
    </g>
    <g id="text_3">
     <g id="patch_3">
      <path d="M 34.8768 131.080205 
L 34.8768 39.41083 
L 11.247425 39.41083 
L 11.247425 131.080205 
z
" style="fill: #ffff00; opacity: 0.2; stroke: #eeeeee; stroke-width: 0.5; stroke-linejoin: miter"/>
     </g>
     <!-- VPULSE BBI -->
     <g transform="translate(26.925238 126.040205) rotate(-90) scale(0.14 -0.14)">
      <defs>
       <path id="DejaVuSans-50" d="M 1259 4147 
L 1259 2394 
L 2053 2394 
Q 2494 2394 2734 2622 
Q 2975 2850 2975 3272 
Q 2975 3691 2734 3919 
Q 2494 4147 2053 4147 
L 1259 4147 
z
M 628 4666 
L 2053 4666 
Q 2838 4666 3239 4311 
Q 3641 3956 3641 3272 
Q 3641 2581 3239 2228 
Q 2838 1875 2053 1875 
L 1259 1875 
L 1259 0 
L 628 0 
L 628 4666 
z
" transform="scale(0.015625)"/>
       <path id="DejaVuSans-55" d="M 556 4666 
L 1191 4666 
L 1191 1831 
Q 1191 1081 1462 751 
Q 1734 422 2344 422 
Q 2950 422 3222 751 
Q 3494 1081 3494 1831 
L 3494 4666 
L 4128 4666 
L 4128 1753 
Q 4128 841 3676 375 
Q 3225 -91 2344 -91 
Q 1459 -91 1007 375 
Q 556 841 556 1753 
L 556 4666 
z
" transform="scale(0.015625)"/>
       <path id="DejaVuSans-4c" d="M 628 4666 
L 1259 4666 
L 1259 531 
L 3531 531 
L 3531 0 
L 628 0 
L 628 4666 
z
" transform="scale(0.015625)"/>
       <path id="DejaVuSans-53" d="M 3425 4513 
L 3425 3897 
Q 3066 4069 2747 4153 
Q 2428 4238 2131 4238 
Q 1616 4238 1336 4038 
Q 1056 3838 1056 3469 
Q 1056 3159 1242 3001 
Q 1428 2844 1947 2747 
L 2328 2669 
Q 3034 2534 3370 2195 
Q 3706 1856 3706 1288 
Q 3706 609 3251 259 
Q 2797 -91 1919 -91 
Q 1588 -91 1214 -16 
Q 841 59 441 206 
L 441 856 
Q 825 641 1194 531 
Q 1563 422 1919 422 
Q 2459 422 2753 634 
Q 3047 847 3047 1241 
Q 3047 1584 2836 1778 
Q 2625 1972 2144 2069 
L 1759 2144 
Q 1053 2284 737 2584 
Q 422 2884 422 3419 
Q 422 4038 858 4394 
Q 1294 4750 2059 4750 
Q 2388 4750 2728 4690 
Q 3069 4631 3425 4513 
z
" transform="scale(0.015625)"/>
       <path id="DejaVuSans-45" d="M 628 4666 
L 3578 4666 
L 3578 4134 
L 1259 4134 
L 1259 2753 
L 3481 2753 
L 3481 2222 
L 1259 2222 
L 1259 531 
L 3634 531 
L 3634 0 
L 628 0 
L 628 4666 
z
" transform="scale(0.015625)"/>
       <path id="DejaVuSans-42" d="M 1259 2228 
L 1259 519 
L 2272 519 
Q 2781 519 3026 730 
Q 3272 941 3272 1375 
Q 3272 1813 3026 2020 
Q 2781 2228 2272 2228 
L 1259 2228 
z
M 1259 4147 
L 1259 2741 
L 2194 2741 
Q 2656 2741 2882 2914 
Q 3109 3088 3109 3444 
Q 3109 3797 2882 3972 
Q 2656 4147 2194 4147 
L 1259 4147 
z
M 628 4666 
L 2241 4666 
Q 2963 4666 3353 4366 
Q 3744 4066 3744 3513 
Q 3744 3084 3544 2831 
Q 3344 2578 2956 2516 
Q 3422 2416 3680 2098 
Q 3938 1781 3938 1306 
Q 3938 681 3513 340 
Q 3088 0 2303 0 
L 628 0 
L 628 4666 
z
" transform="scale(0.015625)"/>
       <path id="DejaVuSans-49" d="M 628 4666 
L 1259 4666 
L 1259 0 
L 628 0 
L 628 4666 
z
" transform="scale(0.015625)"/>
      </defs>
      <use xlink:href="#DejaVuSans-56"/>
      <use xlink:href="#DejaVuSans-50" x="68.408203"/>
      <use xlink:href="#DejaVuSans-55" x="128.710938"/>
      <use xlink:href="#DejaVuSans-4c" x="201.904297"/>
      <use xlink:href="#DejaVuSans-53" x="257.617188"/>
      <use xlink:href="#DejaVuSans-45" x="321.09375"/>
      <use xlink:href="#DejaVuSans-20" x="384.277344"/>
      <use xlink:href="#DejaVuSans-42" x="416.064453"/>
      <use xlink:href="#DejaVuSans-42" x="484.667969"/>
      <use xlink:href="#DejaVuSans-49" x="553.271484"/>
     </g>
    </g>
   </g>
   <g id="line2d_17">
    <path d="M 141.12 45.027377 
L 325.011456 45.136282 
L 325.495296 46.425538 
L 333.720576 69.006772 
L 341.139456 89.863624 
L 342.752256 94.440546 
L 344.558592 99.673219 
L 348.04224 110.807642 
L 349.622784 115.853719 
L 350.848512 119.550977 
L 354.751488 121.36362 
L 355.332096 121.619522 
L 356.203008 122.003376 
L 356.848128 122.269941 
L 358.428672 122.936354 
L 359.073792 123.202919 
L 360.170496 123.629423 
L 360.912384 123.922644 
L 362.009088 124.349149 
L 362.912256 124.677024 
L 363.589632 124.943589 
L 364.396032 125.25547 
L 365.750784 125.804594 
L 368.395776 126.790885 
L 369.00864 127.022796 
L 370.944 127.395987 
L 389.426688 127.289361 
L 389.65248 126.801547 
L 407.941632 75.087922 
L 411.683328 63.292417 
L 415.392768 51.617666 
L 420.005376 49.3412 
L 425.359872 46.984578 
L 434.068992 43.484472 
L 434.939904 43.268927 
L 449.229312 43.108189 
L 456.035328 43.184799 
L 471.389184 43.746186 
L 499.1616 44.46146 
L 524.80512 44.774399 
L 560.415744 44.945888 
L 608.444928 44.953885 
L 947.52 44.953885 
L 947.52 44.953885 
" clip-path="url(#pb0e964baaa)" style="fill: none; stroke: #ff0000; stroke-width: 2; stroke-linecap: square"/>
   </g>
   <g id="patch_4">
    <path d="M 100.8 131.611034 
L 100.8 38.88 
" style="fill: none; stroke: #bcbcbc; stroke-width: 0.8; stroke-linejoin: miter; stroke-linecap: square"/>
   </g>
   <g id="patch_5">
    <path d="M 987.84 131.611034 
L 987.84 38.88 
" style="fill: none; stroke: #bcbcbc; stroke-width: 0.8; stroke-linejoin: miter; stroke-linecap: square"/>
   </g>
   <g id="patch_6">
    <path d="M 100.8 131.611034 
L 987.84 131.611034 
" style="fill: none; stroke: #bcbcbc; stroke-width: 0.8; stroke-linejoin: miter; stroke-linecap: square"/>
   </g>
   <g id="patch_7">
    <path d="M 100.8 38.88 
L 987.84 38.88 
" style="fill: none; stroke: #bcbcbc; stroke-width: 0.8; stroke-linejoin: miter; stroke-linecap: square"/>
   </g>
  </g>
  <g id="axes_2">
   <g id="patch_8">
    <path d="M 100.8 242.888276 
L 987.84 242.888276 
L 987.84 150.157241 
L 100.8 150.157241 
z
" style="fill: #eeeeee"/>
   </g>
   <g id="matplotlib.axis_3">
    <g id="xtick_7">
     <g id="line2d_18">
      <path d="M 141.12 242.888276 
L 141.12 150.157241 
" clip-path="url(#pda7d18b503)" style="fill: none; stroke-dasharray: 1.85,0.8; stroke-dashoffset: 0; stroke: #b2b2b2; stroke-width: 0.5"/>
     </g>
     <g id="line2d_19">
      <g>
       <use xlink:href="#m85b48e6f42" x="141.12" y="242.888276" style="stroke: #000000; stroke-width: 0.8"/>
      </g>
     </g>
    </g>
    <g id="xtick_8">
     <g id="line2d_20">
      <path d="M 302.4 242.888276 
L 302.4 150.157241 
" clip-path="url(#pda7d18b503)" style="fill: none; stroke-dasharray: 1.85,0.8; stroke-dashoffset: 0; stroke: #b2b2b2; stroke-width: 0.5"/>
     </g>
     <g id="line2d_21">
      <g>
       <use xlink:href="#m85b48e6f42" x="302.4" y="242.888276" style="stroke: #000000; stroke-width: 0.8"/>
      </g>
     </g>
    </g>
    <g id="xtick_9">
     <g id="line2d_22">
      <path d="M 463.68 242.888276 
L 463.68 150.157241 
" clip-path="url(#pda7d18b503)" style="fill: none; stroke-dasharray: 1.85,0.8; stroke-dashoffset: 0; stroke: #b2b2b2; stroke-width: 0.5"/>
     </g>
     <g id="line2d_23">
      <g>
       <use xlink:href="#m85b48e6f42" x="463.68" y="242.888276" style="stroke: #000000; stroke-width: 0.8"/>
      </g>
     </g>
    </g>
    <g id="xtick_10">
     <g id="line2d_24">
      <path d="M 624.96 242.888276 
L 624.96 150.157241 
" clip-path="url(#pda7d18b503)" style="fill: none; stroke-dasharray: 1.85,0.8; stroke-dashoffset: 0; stroke: #b2b2b2; stroke-width: 0.5"/>
     </g>
     <g id="line2d_25">
      <g>
       <use xlink:href="#m85b48e6f42" x="624.96" y="242.888276" style="stroke: #000000; stroke-width: 0.8"/>
      </g>
     </g>
    </g>
    <g id="xtick_11">
     <g id="line2d_26">
      <path d="M 786.24 242.888276 
L 786.24 150.157241 
" clip-path="url(#pda7d18b503)" style="fill: none; stroke-dasharray: 1.85,0.8; stroke-dashoffset: 0; stroke: #b2b2b2; stroke-width: 0.5"/>
     </g>
     <g id="line2d_27">
      <g>
       <use xlink:href="#m85b48e6f42" x="786.24" y="242.888276" style="stroke: #000000; stroke-width: 0.8"/>
      </g>
     </g>
    </g>
    <g id="xtick_12">
     <g id="line2d_28">
      <path d="M 947.52 242.888276 
L 947.52 150.157241 
" clip-path="url(#pda7d18b503)" style="fill: none; stroke-dasharray: 1.85,0.8; stroke-dashoffset: 0; stroke: #b2b2b2; stroke-width: 0.5"/>
     </g>
     <g id="line2d_29">
      <g>
       <use xlink:href="#m85b48e6f42" x="947.52" y="242.888276" style="stroke: #000000; stroke-width: 0.8"/>
      </g>
     </g>
    </g>
   </g>
   <g id="matplotlib.axis_4">
    <g id="ytick_3">
     <g id="line2d_30">
      <path d="M 100.8 220.005118 
L 987.84 220.005118 
" clip-path="url(#pda7d18b503)" style="fill: none; stroke-dasharray: 1.85,0.8; stroke-dashoffset: 0; stroke: #b2b2b2; stroke-width: 0.5"/>
     </g>
     <g id="line2d_31">
      <g>
       <use xlink:href="#m9de8a6d111" x="100.8" y="220.005118" style="stroke: #000000; stroke-width: 0.8"/>
      </g>
     </g>
     <g id="text_4">
      <!-- 0 V -->
      <g transform="translate(74.36625 225.324024) scale(0.14 -0.14)">
       <use xlink:href="#DejaVuSans-30"/>
       <use xlink:href="#DejaVuSans-20" x="63.623047"/>
       <use xlink:href="#DejaVuSans-56" x="95.410156"/>
      </g>
     </g>
    </g>
    <g id="ytick_4">
     <g id="line2d_32">
      <path d="M 100.8 187.702318 
L 987.84 187.702318 
" clip-path="url(#pda7d18b503)" style="fill: none; stroke-dasharray: 1.85,0.8; stroke-dashoffset: 0; stroke: #b2b2b2; stroke-width: 0.5"/>
     </g>
     <g id="line2d_33">
      <g>
       <use xlink:href="#m9de8a6d111" x="100.8" y="187.702318" style="stroke: #000000; stroke-width: 0.8"/>
      </g>
     </g>
     <g id="text_5">
      <!-- 1 V -->
      <g transform="translate(74.36625 193.021224) scale(0.14 -0.14)">
       <defs>
        <path id="DejaVuSans-31" d="M 794 531 
L 1825 531 
L 1825 4091 
L 703 3866 
L 703 4441 
L 1819 4666 
L 2450 4666 
L 2450 531 
L 3481 531 
L 3481 0 
L 794 0 
L 794 531 
z
" transform="scale(0.015625)"/>
       </defs>
       <use xlink:href="#DejaVuSans-31"/>
       <use xlink:href="#DejaVuSans-20" x="63.623047"/>
       <use xlink:href="#DejaVuSans-56" x="95.410156"/>
      </g>
     </g>
    </g>
    <g id="ytick_5">
     <g id="line2d_34">
      <path d="M 100.8 155.399517 
L 987.84 155.399517 
" clip-path="url(#pda7d18b503)" style="fill: none; stroke-dasharray: 1.85,0.8; stroke-dashoffset: 0; stroke: #b2b2b2; stroke-width: 0.5"/>
     </g>
     <g id="line2d_35">
      <g>
       <use xlink:href="#m9de8a6d111" x="100.8" y="155.399517" style="stroke: #000000; stroke-width: 0.8"/>
      </g>
     </g>
     <g id="text_6">
      <!-- 2 V -->
      <g transform="translate(74.36625 160.718424) scale(0.14 -0.14)">
       <use xlink:href="#DejaVuSans-32"/>
       <use xlink:href="#DejaVuSans-20" x="63.623047"/>
       <use xlink:href="#DejaVuSans-56" x="95.410156"/>
      </g>
     </g>
    </g>
    <g id="text_7">
     <g id="patch_9">
      <path d="M 34.8768 224.531509 
L 34.8768 168.514009 
L 11.247425 168.514009 
L 11.247425 224.531509 
z
" style="fill: #ffff00; opacity: 0.2; stroke: #eeeeee; stroke-width: 0.5; stroke-linejoin: miter"/>
     </g>
     <!-- DFF IN -->
     <g transform="translate(26.925238 219.491509) rotate(-90) scale(0.14 -0.14)">
      <defs>
       <path id="DejaVuSans-44" d="M 1259 4147 
L 1259 519 
L 2022 519 
Q 2988 519 3436 956 
Q 3884 1394 3884 2338 
Q 3884 3275 3436 3711 
Q 2988 4147 2022 4147 
L 1259 4147 
z
M 628 4666 
L 1925 4666 
Q 3281 4666 3915 4102 
Q 4550 3538 4550 2338 
Q 4550 1131 3912 565 
Q 3275 0 1925 0 
L 628 0 
L 628 4666 
z
" transform="scale(0.015625)"/>
       <path id="DejaVuSans-46" d="M 628 4666 
L 3309 4666 
L 3309 4134 
L 1259 4134 
L 1259 2759 
L 3109 2759 
L 3109 2228 
L 1259 2228 
L 1259 0 
L 628 0 
L 628 4666 
z
" transform="scale(0.015625)"/>
       <path id="DejaVuSans-4e" d="M 628 4666 
L 1478 4666 
L 3547 763 
L 3547 4666 
L 4159 4666 
L 4159 0 
L 3309 0 
L 1241 3903 
L 1241 0 
L 628 0 
L 628 4666 
z
" transform="scale(0.015625)"/>
      </defs>
      <use xlink:href="#DejaVuSans-44"/>
      <use xlink:href="#DejaVuSans-46" x="77.001953"/>
      <use xlink:href="#DejaVuSans-46" x="134.521484"/>
      <use xlink:href="#DejaVuSans-20" x="192.041016"/>
      <use xlink:href="#DejaVuSans-49" x="223.828125"/>
      <use xlink:href="#DejaVuSans-4e" x="253.320312"/>
     </g>
    </g>
   </g>
   <g id="line2d_36">
    <path d="M 141.12 219.957943 
L 221.953536 219.913646 
L 224.437248 201.914904 
L 225.404928 196.439579 
L 228.243456 184.400971 
L 229.598208 183.192847 
L 231.178752 182.362665 
L 236.59776 181.929807 
L 243.758592 181.819978 
L 245.274624 181.777984 
L 248.564736 181.668154 
L 250.371072 181.597088 
L 252.499968 181.487259 
L 254.209536 181.235297 
L 254.725632 180.702301 
L 255.370752 180.382503 
L 255.886848 180.330819 
L 257.596416 180.611853 
L 260.080128 180.996256 
L 262.370304 181.115777 
L 263.886336 181.164231 
L 264.144384 186.145323 
L 264.434688 189.534532 
L 265.176576 194.049495 
L 267.144192 210.529414 
L 268.402176 216.717016 
L 269.079552 217.978763 
L 270.46656 219.612832 
L 273.756672 220.006311 
L 282.756096 219.963279 
L 297.335808 219.94882 
L 306.206208 219.9575 
L 325.075968 220.046614 
L 326.495232 221.350497 
L 328.398336 222.279073 
L 329.688576 222.516951 
L 331.623936 222.634178 
L 333.172224 222.794238 
L 334.365696 223.388513 
L 340.333056 226.261847 
L 340.94592 226.158801 
L 341.494272 225.834158 
L 342.171648 225.092809 
L 342.55872 224.779148 
L 342.752256 224.836001 
L 343.074816 225.265952 
L 343.977984 226.627192 
L 344.268288 226.947958 
L 344.526336 227.580124 
L 345.203712 228.95687 
L 345.364992 229.277959 
L 345.752064 230.140444 
L 346.074624 230.823002 
L 347.07456 232.560893 
L 349.300224 236.365517 
L 350.687232 238.405116 
L 351.042048 238.639634 
L 351.461376 238.027173 
L 352.07424 237.127217 
L 352.429056 236.445628 
L 352.55808 236.327399 
L 352.816128 235.929752 
L 353.783808 234.848577 
L 354.138624 234.343362 
L 354.461184 234.128871 
L 355.170816 233.623332 
L 355.590144 233.296105 
L 356.10624 232.669753 
L 356.364288 232.227851 
L 356.396544 232.245941 
L 356.525568 232.21493 
L 356.783616 231.901916 
L 357.07392 231.827296 
L 357.428736 231.545293 
L 358.073856 231.126003 
L 358.783488 230.41954 
L 359.041536 230.08876 
L 359.138304 230.065179 
L 359.396352 229.798681 
L 360.170496 229.311877 
L 360.525312 229.097064 
L 361.944576 227.817873 
L 362.170368 227.526179 
L 362.267136 227.441545 
L 362.363904 227.345929 
L 362.55744 227.254189 
L 362.847744 227.143067 
L 363.331584 226.854926 
L 366.202368 224.722296 
L 367.524864 223.799082 
L 369.202176 222.509457 
L 371.073024 220.814594 
L 371.782656 219.81749 
L 372.589056 218.787819 
L 373.395456 217.693885 
L 374.105088 216.746088 
L 377.750016 212.393932 
L 379.427328 210.50874 
L 380.040192 208.74953 
L 381.26592 205.371626 
L 382.265856 203.166637 
L 383.298048 201.601889 
L 384.039936 200.562062 
L 384.620544 199.96446 
L 386.362368 197.874146 
L 387.104256 196.969022 
L 387.71712 196.275481 
L 389.200896 195.008888 
L 389.555712 194.546312 
L 389.97504 193.285857 
L 391.329792 189.002828 
L 392.136192 187.253309 
L 393.20064 185.554181 
L 394.748928 183.57402 
L 401.006592 175.885953 
L 401.877504 174.777967 
L 410.070528 164.760869 
L 411.231744 163.323394 
L 413.03808 161.168798 
L 413.908992 160.138338 
L 415.392768 158.442441 
L 415.876608 155.932514 
L 416.26368 154.895594 
L 416.650752 154.453045 
L 416.973312 154.372288 
L 417.457152 154.685626 
L 418.102272 155.561031 
L 419.424768 157.353837 
L 420.424704 158.300309 
L 422.972928 159.708711 
L 424.359936 160.238477 
L 425.230848 160.551814 
L 427.488768 161.336772 
L 428.391936 161.630728 
L 435.13344 163.762712 
L 435.843072 164.124504 
L 438.810624 165.432767 
L 439.262208 165.623354 
L 440.165376 166.001296 
L 440.61696 166.188653 
L 441.681408 166.62151 
L 442.810368 167.064059 
L 446.777856 168.533836 
L 447.487488 168.789028 
L 454.874112 171.12129 
L 455.77728 171.599372 
L 456.26112 172.817187 
L 456.777216 173.576303 
L 457.099776 173.786271 
L 457.55136 173.77012 
L 458.486784 173.569842 
L 459.777024 173.169288 
L 461.42208 173.111143 
L 463.486464 173.42448 
L 464.679936 173.673211 
L 465.228288 173.783041 
L 476.130816 175.85365 
L 476.808192 175.96348 
L 478.550016 176.244514 
L 479.291904 176.360804 
L 480.098304 176.467404 
L 482.162688 176.77105 
L 482.969088 176.88088 
L 484.710912 177.11992 
L 485.678592 177.226519 
L 487.194624 177.417106 
L 488.130048 177.526936 
L 489.420288 177.672298 
L 490.387968 177.782128 
L 491.484672 177.891957 
L 492.516864 177.998556 
L 493.67808 178.118077 
L 494.936064 178.224676 
L 495.484416 178.279591 
L 496.129536 178.172992 
L 496.613376 177.678759 
L 497.258496 177.478481 
L 497.806848 177.530166 
L 498.871296 177.853194 
L 500.355072 178.328045 
L 503.741952 178.893344 
L 509.064192 179.319741 
L 509.741568 179.361735 
L 512.354304 179.516788 
L 513.096192 179.552321 
L 515.418624 179.675072 
L 517.837824 179.784901 
L 518.5152 179.807513 
L 519.224832 179.843046 
L 521.160192 179.927034 
L 524.127744 180.036863 
L 524.547072 180.056245 
L 527.70816 180.166074 
L 528.35328 180.185456 
L 531.869184 180.288825 
L 532.320768 180.311437 
L 536.352768 180.414806 
L 537.417216 181.325745 
L 538.255872 181.467877 
L 539.030016 181.364508 
L 541.126656 180.844433 
L 543.578112 180.708761 
L 544.707072 180.711992 
L 545.77152 180.715222 
L 555.512832 180.825051 
L 556.061184 180.825051 
L 576.801792 180.724913 
L 577.317888 180.256522 
L 578.253312 179.991639 
L 579.414528 180.098238 
L 582.736896 180.650616 
L 585.252864 180.792749 
L 616.992768 180.892887 
L 617.928192 181.687536 
L 618.863616 181.858741 
L 620.186112 181.881353 
L 623.02464 181.425883 
L 628.862976 180.951032 
L 657.345024 180.854124 
L 657.828864 180.34697 
L 658.570752 180.030403 
L 659.6352 180.027172 
L 663.634944 180.715222 
L 665.376768 180.779827 
L 697.600512 180.879966 
L 697.761792 181.051171 
L 698.277888 181.545404 
L 698.66496 181.719839 
L 699.277824 181.85228 
L 701.697024 181.742451 
L 704.051712 181.38389 
L 709.438464 180.954263 
L 737.985024 180.847663 
L 738.50112 180.308207 
L 739.049472 180.046554 
L 741.017088 180.156383 
L 742.37184 180.450339 
L 744.049152 180.673228 
L 746.468352 180.80567 
L 778.272768 180.892887 
L 779.208192 181.687536 
L 780.143616 181.858741 
L 781.466112 181.881353 
L 783.272448 181.590628 
L 785.078784 181.341896 
L 790.013952 180.957493 
L 818.625024 180.847663 
L 819.14112 180.308207 
L 819.689472 180.046554 
L 821.657088 180.156383 
L 823.01184 180.450339 
L 824.689152 180.673228 
L 827.108352 180.80567 
L 858.912768 180.892887 
L 859.848192 181.687536 
L 860.783616 181.858741 
L 862.106112 181.881353 
L 863.912448 181.590628 
L 865.718784 181.341896 
L 870.653952 180.957493 
L 899.265024 180.847663 
L 899.78112 180.308207 
L 900.329472 180.046554 
L 902.297088 180.156383 
L 903.65184 180.450339 
L 905.329152 180.673228 
L 907.748352 180.80567 
L 939.552768 180.892887 
L 940.617216 181.716609 
L 941.584896 181.894274 
L 943.488 181.787675 
L 946.584576 181.280521 
L 947.52 181.141619 
L 947.52 181.141619 
" clip-path="url(#pda7d18b503)" style="fill: none; stroke: #008000; stroke-width: 2; stroke-linecap: square"/>
   </g>
   <g id="patch_10">
    <path d="M 100.8 242.888276 
L 100.8 150.157241 
" style="fill: none; stroke: #bcbcbc; stroke-width: 0.8; stroke-linejoin: miter; stroke-linecap: square"/>
   </g>
   <g id="patch_11">
    <path d="M 987.84 242.888276 
L 987.84 150.157241 
" style="fill: none; stroke: #bcbcbc; stroke-width: 0.8; stroke-linejoin: miter; stroke-linecap: square"/>
   </g>
   <g id="patch_12">
    <path d="M 100.8 242.888276 
L 987.84 242.888276 
" style="fill: none; stroke: #bcbcbc; stroke-width: 0.8; stroke-linejoin: miter; stroke-linecap: square"/>
   </g>
   <g id="patch_13">
    <path d="M 100.8 150.157241 
L 987.84 150.157241 
" style="fill: none; stroke: #bcbcbc; stroke-width: 0.8; stroke-linejoin: miter; stroke-linecap: square"/>
   </g>
  </g>
  <g id="axes_3">
   <g id="patch_14">
    <path d="M 100.8 354.165517 
L 987.84 354.165517 
L 987.84 261.434483 
L 100.8 261.434483 
z
" style="fill: #eeeeee"/>
   </g>
   <g id="matplotlib.axis_5">
    <g id="xtick_13">
     <g id="line2d_37">
      <path d="M 141.12 354.165517 
L 141.12 261.434483 
" clip-path="url(#p762690fecf)" style="fill: none; stroke-dasharray: 1.85,0.8; stroke-dashoffset: 0; stroke: #b2b2b2; stroke-width: 0.5"/>
     </g>
     <g id="line2d_38">
      <g>
       <use xlink:href="#m85b48e6f42" x="141.12" y="354.165517" style="stroke: #000000; stroke-width: 0.8"/>
      </g>
     </g>
    </g>
    <g id="xtick_14">
     <g id="line2d_39">
      <path d="M 302.4 354.165517 
L 302.4 261.434483 
" clip-path="url(#p762690fecf)" style="fill: none; stroke-dasharray: 1.85,0.8; stroke-dashoffset: 0; stroke: #b2b2b2; stroke-width: 0.5"/>
     </g>
     <g id="line2d_40">
      <g>
       <use xlink:href="#m85b48e6f42" x="302.4" y="354.165517" style="stroke: #000000; stroke-width: 0.8"/>
      </g>
     </g>
    </g>
    <g id="xtick_15">
     <g id="line2d_41">
      <path d="M 463.68 354.165517 
L 463.68 261.434483 
" clip-path="url(#p762690fecf)" style="fill: none; stroke-dasharray: 1.85,0.8; stroke-dashoffset: 0; stroke: #b2b2b2; stroke-width: 0.5"/>
     </g>
     <g id="line2d_42">
      <g>
       <use xlink:href="#m85b48e6f42" x="463.68" y="354.165517" style="stroke: #000000; stroke-width: 0.8"/>
      </g>
     </g>
    </g>
    <g id="xtick_16">
     <g id="line2d_43">
      <path d="M 624.96 354.165517 
L 624.96 261.434483 
" clip-path="url(#p762690fecf)" style="fill: none; stroke-dasharray: 1.85,0.8; stroke-dashoffset: 0; stroke: #b2b2b2; stroke-width: 0.5"/>
     </g>
     <g id="line2d_44">
      <g>
       <use xlink:href="#m85b48e6f42" x="624.96" y="354.165517" style="stroke: #000000; stroke-width: 0.8"/>
      </g>
     </g>
    </g>
    <g id="xtick_17">
     <g id="line2d_45">
      <path d="M 786.24 354.165517 
L 786.24 261.434483 
" clip-path="url(#p762690fecf)" style="fill: none; stroke-dasharray: 1.85,0.8; stroke-dashoffset: 0; stroke: #b2b2b2; stroke-width: 0.5"/>
     </g>
     <g id="line2d_46">
      <g>
       <use xlink:href="#m85b48e6f42" x="786.24" y="354.165517" style="stroke: #000000; stroke-width: 0.8"/>
      </g>
     </g>
    </g>
    <g id="xtick_18">
     <g id="line2d_47">
      <path d="M 947.52 354.165517 
L 947.52 261.434483 
" clip-path="url(#p762690fecf)" style="fill: none; stroke-dasharray: 1.85,0.8; stroke-dashoffset: 0; stroke: #b2b2b2; stroke-width: 0.5"/>
     </g>
     <g id="line2d_48">
      <g>
       <use xlink:href="#m85b48e6f42" x="947.52" y="354.165517" style="stroke: #000000; stroke-width: 0.8"/>
      </g>
     </g>
    </g>
   </g>
   <g id="matplotlib.axis_6">
    <g id="ytick_6">
     <g id="line2d_49">
      <path d="M 100.8 348.435941 
L 987.84 348.435941 
" clip-path="url(#p762690fecf)" style="fill: none; stroke-dasharray: 1.85,0.8; stroke-dashoffset: 0; stroke: #b2b2b2; stroke-width: 0.5"/>
     </g>
     <g id="line2d_50">
      <g>
       <use xlink:href="#m9de8a6d111" x="100.8" y="348.435941" style="stroke: #000000; stroke-width: 0.8"/>
      </g>
     </g>
     <g id="text_8">
      <!-- 0 V -->
      <g transform="translate(74.36625 353.754847) scale(0.14 -0.14)">
       <use xlink:href="#DejaVuSans-30"/>
       <use xlink:href="#DejaVuSans-20" x="63.623047"/>
       <use xlink:href="#DejaVuSans-56" x="95.410156"/>
      </g>
     </g>
    </g>
    <g id="ytick_7">
     <g id="line2d_51">
      <path d="M 100.8 305.479107 
L 987.84 305.479107 
" clip-path="url(#p762690fecf)" style="fill: none; stroke-dasharray: 1.85,0.8; stroke-dashoffset: 0; stroke: #b2b2b2; stroke-width: 0.5"/>
     </g>
     <g id="line2d_52">
      <g>
       <use xlink:href="#m9de8a6d111" x="100.8" y="305.479107" style="stroke: #000000; stroke-width: 0.8"/>
      </g>
     </g>
     <g id="text_9">
      <!-- 1 V -->
      <g transform="translate(74.36625 310.798013) scale(0.14 -0.14)">
       <use xlink:href="#DejaVuSans-31"/>
       <use xlink:href="#DejaVuSans-20" x="63.623047"/>
       <use xlink:href="#DejaVuSans-56" x="95.410156"/>
      </g>
     </g>
    </g>
    <g id="ytick_8">
     <g id="line2d_53">
      <path d="M 100.8 262.522272 
L 987.84 262.522272 
" clip-path="url(#p762690fecf)" style="fill: none; stroke-dasharray: 1.85,0.8; stroke-dashoffset: 0; stroke: #b2b2b2; stroke-width: 0.5"/>
     </g>
     <g id="line2d_54">
      <g>
       <use xlink:href="#m9de8a6d111" x="100.8" y="262.522272" style="stroke: #000000; stroke-width: 0.8"/>
      </g>
     </g>
     <g id="text_10">
      <!-- 2 V -->
      <g transform="translate(74.36625 267.841178) scale(0.14 -0.14)">
       <use xlink:href="#DejaVuSans-32"/>
       <use xlink:href="#DejaVuSans-20" x="63.623047"/>
       <use xlink:href="#DejaVuSans-56" x="95.410156"/>
      </g>
     </g>
    </g>
    <g id="text_11">
     <g id="patch_15">
      <path d="M 34.8768 342.395313 
L 34.8768 273.204688 
L 11.247425 273.204688 
L 11.247425 342.395313 
z
" style="fill: #ffff00; opacity: 0.2; stroke: #eeeeee; stroke-width: 0.5; stroke-linejoin: miter"/>
     </g>
     <!-- CLK BUF -->
     <g transform="translate(26.925238 337.355313) rotate(-90) scale(0.14 -0.14)">
      <defs>
       <path id="DejaVuSans-43" d="M 4122 4306 
L 4122 3641 
Q 3803 3938 3442 4084 
Q 3081 4231 2675 4231 
Q 1875 4231 1450 3742 
Q 1025 3253 1025 2328 
Q 1025 1406 1450 917 
Q 1875 428 2675 428 
Q 3081 428 3442 575 
Q 3803 722 4122 1019 
L 4122 359 
Q 3791 134 3420 21 
Q 3050 -91 2638 -91 
Q 1578 -91 968 557 
Q 359 1206 359 2328 
Q 359 3453 968 4101 
Q 1578 4750 2638 4750 
Q 3056 4750 3426 4639 
Q 3797 4528 4122 4306 
z
" transform="scale(0.015625)"/>
       <path id="DejaVuSans-4b" d="M 628 4666 
L 1259 4666 
L 1259 2694 
L 3353 4666 
L 4166 4666 
L 1850 2491 
L 4331 0 
L 3500 0 
L 1259 2247 
L 1259 0 
L 628 0 
L 628 4666 
z
" transform="scale(0.015625)"/>
      </defs>
      <use xlink:href="#DejaVuSans-43"/>
      <use xlink:href="#DejaVuSans-4c" x="69.824219"/>
      <use xlink:href="#DejaVuSans-4b" x="125.537109"/>
      <use xlink:href="#DejaVuSans-20" x="191.113281"/>
      <use xlink:href="#DejaVuSans-42" x="222.900391"/>
      <use xlink:href="#DejaVuSans-55" x="291.503906"/>
      <use xlink:href="#DejaVuSans-46" x="364.697266"/>
     </g>
    </g>
   </g>
   <g id="line2d_55">
    <path d="M 141.12 348.434805 
L 173.376 348.434805 
L 173.601792 296.88774 
L 213.696 296.88774 
L 213.760512 338.005592 
L 213.825024 348.416316 
L 213.889536 348.354499 
L 213.954048 348.526108 
L 214.01856 348.440596 
L 215.373312 348.431155 
L 223.469568 348.434755 
L 254.016 348.434776 
L 254.17728 296.728799 
L 254.241792 297.003723 
L 254.403072 296.879148 
L 254.854656 296.88774 
L 294.336 296.88774 
L 294.400512 337.969508 
L 294.465024 348.756489 
L 294.529536 348.009629 
L 294.626304 348.503448 
L 294.65856 348.47288 
L 294.852096 348.397377 
L 295.206912 348.451573 
L 295.497216 348.434471 
L 320.721408 348.434805 
L 325.043712 348.515497 
L 325.721088 349.163415 
L 326.495232 349.568799 
L 327.55968 349.831007 
L 328.978944 349.940891 
L 331.946496 349.910349 
L 334.656 349.828 
L 334.81728 313.233245 
L 334.914048 313.379728 
L 338.881536 319.408719 
L 342.494208 324.393001 
L 342.526464 324.370234 
L 342.55872 324.439824 
L 342.687744 324.733219 
L 342.752256 324.679093 
L 342.913536 324.914067 
L 344.074752 326.149506 
L 344.107008 326.121154 
L 344.139264 326.167548 
L 344.49408 326.542131 
L 346.074624 327.988058 
L 348.332544 329.71793 
L 349.00992 330.194321 
L 350.848512 331.314206 
L 351.880704 330.78283 
L 354.33216 329.819308 
L 354.461184 329.798259 
L 354.622464 329.712346 
L 365.041152 326.032663 
L 365.073408 326.090225 
L 365.105664 326.028797 
L 365.234688 325.918398 
L 365.395968 325.978108 
L 365.557248 325.883173 
L 366.912 325.426972 
L 370.29888 324.185519 
L 372.71808 322.77138 
L 374.976 321.303116 
L 375.040512 319.040579 
L 375.29856 347.87166 
L 375.330816 347.870028 
L 389.555712 347.935537 
L 390.200832 347.312964 
L 390.974976 346.903499 
L 391.974912 346.654435 
L 393.458688 346.547172 
L 396.168192 346.598763 
L 410.264064 346.995684 
L 413.36064 347.049037 
L 415.296 347.152262 
L 415.328256 340.831722 
L 415.425024 265.683895 
L 415.489536 265.739739 
L 417.457152 265.842836 
L 422.908416 268.13673 
L 424.521216 268.871292 
L 426.843648 269.915143 
L 428.133888 270.477878 
L 435.359232 273.471969 
L 435.972096 273.824215 
L 438.230016 275.14299 
L 438.649344 275.387844 
L 448.132608 280.314993 
L 450.842112 281.513489 
L 451.777536 281.887213 
L 455.616 283.459433 
L 455.77728 348.81595 
L 455.841792 348.780206 
L 457.357824 348.767602 
L 495.936 348.54146 
L 496.032768 292.381568 
L 496.161792 293.068877 
L 496.613376 293.111834 
L 497.516544 293.240705 
L 498.51648 293.348097 
L 498.774528 293.369575 
L 499.677696 293.476967 
L 499.935744 293.498446 
L 500.838912 293.605838 
L 501.09696 293.627316 
L 502.096896 293.734708 
L 502.354944 293.756187 
L 503.451648 293.863579 
L 503.709696 293.885057 
L 504.8064 293.992449 
L 505.064448 294.013928 
L 506.25792 294.12132 
L 506.515968 294.142798 
L 507.70944 294.25019 
L 507.967488 294.271669 
L 509.354496 294.379061 
L 509.612544 294.400539 
L 510.999552 294.507931 
L 511.2576 294.52941 
L 511.773696 294.568071 
L 513.580032 294.696941 
L 515.225088 294.795742 
L 515.579904 294.825812 
L 517.160448 294.924612 
L 517.515264 294.954682 
L 519.289344 295.053483 
L 519.64416 295.083553 
L 521.611776 295.182353 
L 521.966592 295.212423 
L 524.127744 295.311224 
L 524.48256 295.341294 
L 526.837248 295.440094 
L 527.192064 295.470164 
L 529.740288 295.568965 
L 530.095104 295.599035 
L 533.0304 295.697835 
L 533.385216 295.727905 
L 536.256 295.813819 
L 536.288256 299.572542 
L 536.352768 348.941199 
L 536.41728 348.417924 
L 536.449536 348.41362 
L 536.481792 348.55375 
L 536.546304 348.466687 
L 536.965632 348.463571 
L 576.576 348.447102 
L 576.705024 296.282048 
L 576.769536 296.462467 
L 576.834048 296.492537 
L 576.866304 296.466763 
L 577.027584 296.458171 
L 616.896 296.458171 
L 617.025024 348.76402 
L 617.186304 348.514213 
L 617.444352 348.418381 
L 617.799168 348.465143 
L 618.121728 348.446882 
L 656.119296 348.447105 
L 657.216 348.447104 
L 657.37728 296.372258 
L 657.441792 296.475354 
L 658.409472 296.458171 
L 697.536 296.458171 
L 697.665024 348.76411 
L 697.826304 348.514127 
L 698.084352 348.418422 
L 698.439168 348.465157 
L 698.761728 348.446883 
L 736.759296 348.447106 
L 737.856 348.447107 
L 738.01728 296.234796 
L 738.081792 296.720208 
L 738.17856 296.277753 
L 738.243072 296.440989 
L 738.726912 296.458171 
L 778.176 296.458171 
L 778.305024 348.763955 
L 778.466304 348.51417 
L 778.724352 348.418414 
L 779.079168 348.465144 
L 779.401728 348.446882 
L 817.592832 348.447107 
L 818.496 348.447107 
L 818.65728 296.234796 
L 818.721792 296.720208 
L 818.81856 296.277753 
L 818.883072 296.440989 
L 819.366912 296.458171 
L 858.816 296.458171 
L 858.945024 348.764037 
L 859.106304 348.514157 
L 859.364352 348.41841 
L 859.719168 348.465164 
L 860.041728 348.446883 
L 897.878016 348.447106 
L 899.136 348.447107 
L 899.29728 296.234796 
L 899.361792 296.720208 
L 899.45856 296.277753 
L 899.523072 296.440989 
L 900.006912 296.458171 
L 939.456 296.458171 
L 939.488256 304.203289 
L 939.61728 348.396018 
L 939.649536 348.520931 
L 939.714048 348.401418 
L 939.746304 348.363726 
L 939.810816 348.419168 
L 940.004352 348.472815 
L 940.230144 348.445743 
L 945.649152 348.447111 
L 947.52 348.447097 
L 947.52 348.447097 
" clip-path="url(#p762690fecf)" style="fill: none; stroke: #0000ff; stroke-width: 2; stroke-linecap: square"/>
   </g>
   <g id="patch_16">
    <path d="M 100.8 354.165517 
L 100.8 261.434483 
" style="fill: none; stroke: #bcbcbc; stroke-width: 0.8; stroke-linejoin: miter; stroke-linecap: square"/>
   </g>
   <g id="patch_17">
    <path d="M 987.84 354.165517 
L 987.84 261.434483 
" style="fill: none; stroke: #bcbcbc; stroke-width: 0.8; stroke-linejoin: miter; stroke-linecap: square"/>
   </g>
   <g id="patch_18">
    <path d="M 100.8 354.165517 
L 987.84 354.165517 
" style="fill: none; stroke: #bcbcbc; stroke-width: 0.8; stroke-linejoin: miter; stroke-linecap: square"/>
   </g>
   <g id="patch_19">
    <path d="M 100.8 261.434483 
L 987.84 261.434483 
" style="fill: none; stroke: #bcbcbc; stroke-width: 0.8; stroke-linejoin: miter; stroke-linecap: square"/>
   </g>
  </g>
  <g id="axes_4">
   <g id="patch_20">
    <path d="M 100.8 465.442759 
L 987.84 465.442759 
L 987.84 372.711724 
L 100.8 372.711724 
z
" style="fill: #eeeeee"/>
   </g>
   <g id="matplotlib.axis_7">
    <g id="xtick_19">
     <g id="line2d_56">
      <path d="M 141.12 465.442759 
L 141.12 372.711724 
" clip-path="url(#pa1bf7fd36c)" style="fill: none; stroke-dasharray: 1.85,0.8; stroke-dashoffset: 0; stroke: #b2b2b2; stroke-width: 0.5"/>
     </g>
     <g id="line2d_57">
      <g>
       <use xlink:href="#m85b48e6f42" x="141.12" y="465.442759" style="stroke: #000000; stroke-width: 0.8"/>
      </g>
     </g>
    </g>
    <g id="xtick_20">
     <g id="line2d_58">
      <path d="M 302.4 465.442759 
L 302.4 372.711724 
" clip-path="url(#pa1bf7fd36c)" style="fill: none; stroke-dasharray: 1.85,0.8; stroke-dashoffset: 0; stroke: #b2b2b2; stroke-width: 0.5"/>
     </g>
     <g id="line2d_59">
      <g>
       <use xlink:href="#m85b48e6f42" x="302.4" y="465.442759" style="stroke: #000000; stroke-width: 0.8"/>
      </g>
     </g>
    </g>
    <g id="xtick_21">
     <g id="line2d_60">
      <path d="M 463.68 465.442759 
L 463.68 372.711724 
" clip-path="url(#pa1bf7fd36c)" style="fill: none; stroke-dasharray: 1.85,0.8; stroke-dashoffset: 0; stroke: #b2b2b2; stroke-width: 0.5"/>
     </g>
     <g id="line2d_61">
      <g>
       <use xlink:href="#m85b48e6f42" x="463.68" y="465.442759" style="stroke: #000000; stroke-width: 0.8"/>
      </g>
     </g>
    </g>
    <g id="xtick_22">
     <g id="line2d_62">
      <path d="M 624.96 465.442759 
L 624.96 372.711724 
" clip-path="url(#pa1bf7fd36c)" style="fill: none; stroke-dasharray: 1.85,0.8; stroke-dashoffset: 0; stroke: #b2b2b2; stroke-width: 0.5"/>
     </g>
     <g id="line2d_63">
      <g>
       <use xlink:href="#m85b48e6f42" x="624.96" y="465.442759" style="stroke: #000000; stroke-width: 0.8"/>
      </g>
     </g>
    </g>
    <g id="xtick_23">
     <g id="line2d_64">
      <path d="M 786.24 465.442759 
L 786.24 372.711724 
" clip-path="url(#pa1bf7fd36c)" style="fill: none; stroke-dasharray: 1.85,0.8; stroke-dashoffset: 0; stroke: #b2b2b2; stroke-width: 0.5"/>
     </g>
     <g id="line2d_65">
      <g>
       <use xlink:href="#m85b48e6f42" x="786.24" y="465.442759" style="stroke: #000000; stroke-width: 0.8"/>
      </g>
     </g>
    </g>
    <g id="xtick_24">
     <g id="line2d_66">
      <path d="M 947.52 465.442759 
L 947.52 372.711724 
" clip-path="url(#pa1bf7fd36c)" style="fill: none; stroke-dasharray: 1.85,0.8; stroke-dashoffset: 0; stroke: #b2b2b2; stroke-width: 0.5"/>
     </g>
     <g id="line2d_67">
      <g>
       <use xlink:href="#m85b48e6f42" x="947.52" y="465.442759" style="stroke: #000000; stroke-width: 0.8"/>
      </g>
     </g>
    </g>
   </g>
   <g id="matplotlib.axis_8">
    <g id="ytick_9">
     <g id="line2d_68">
      <path d="M 100.8 442.03236 
L 987.84 442.03236 
" clip-path="url(#pa1bf7fd36c)" style="fill: none; stroke-dasharray: 1.85,0.8; stroke-dashoffset: 0; stroke: #b2b2b2; stroke-width: 0.5"/>
     </g>
     <g id="line2d_69">
      <g>
       <use xlink:href="#m9de8a6d111" x="100.8" y="442.03236" style="stroke: #000000; stroke-width: 0.8"/>
      </g>
     </g>
     <g id="text_12">
      <!-- 0 V -->
      <g transform="translate(74.36625 447.351266) scale(0.14 -0.14)">
       <use xlink:href="#DejaVuSans-30"/>
       <use xlink:href="#DejaVuSans-20" x="63.623047"/>
       <use xlink:href="#DejaVuSans-56" x="95.410156"/>
      </g>
     </g>
    </g>
    <g id="ytick_10">
     <g id="line2d_70">
      <path d="M 100.8 408.500433 
L 987.84 408.500433 
" clip-path="url(#pa1bf7fd36c)" style="fill: none; stroke-dasharray: 1.85,0.8; stroke-dashoffset: 0; stroke: #b2b2b2; stroke-width: 0.5"/>
     </g>
     <g id="line2d_71">
      <g>
       <use xlink:href="#m9de8a6d111" x="100.8" y="408.500433" style="stroke: #000000; stroke-width: 0.8"/>
      </g>
     </g>
     <g id="text_13">
      <!-- 1 V -->
      <g transform="translate(74.36625 413.81934) scale(0.14 -0.14)">
       <use xlink:href="#DejaVuSans-31"/>
       <use xlink:href="#DejaVuSans-20" x="63.623047"/>
       <use xlink:href="#DejaVuSans-56" x="95.410156"/>
      </g>
     </g>
    </g>
    <g id="ytick_11">
     <g id="line2d_72">
      <path d="M 100.8 374.968507 
L 987.84 374.968507 
" clip-path="url(#pa1bf7fd36c)" style="fill: none; stroke-dasharray: 1.85,0.8; stroke-dashoffset: 0; stroke: #b2b2b2; stroke-width: 0.5"/>
     </g>
     <g id="line2d_73">
      <g>
       <use xlink:href="#m9de8a6d111" x="100.8" y="374.968507" style="stroke: #000000; stroke-width: 0.8"/>
      </g>
     </g>
     <g id="text_14">
      <!-- 2 V -->
      <g transform="translate(74.36625 380.287413) scale(0.14 -0.14)">
       <use xlink:href="#DejaVuSans-32"/>
       <use xlink:href="#DejaVuSans-20" x="63.623047"/>
       <use xlink:href="#DejaVuSans-56" x="95.410156"/>
      </g>
     </g>
    </g>
    <g id="text_15">
     <g id="patch_21">
      <path d="M 34.8768 454.693023 
L 34.8768 383.46146 
L 11.247425 383.46146 
L 11.247425 454.693023 
z
" style="fill: #ffff00; opacity: 0.2; stroke: #eeeeee; stroke-width: 0.5; stroke-linejoin: miter"/>
     </g>
     <!-- DFF OUT -->
     <g transform="translate(26.925238 449.653023) rotate(-90) scale(0.14 -0.14)">
      <defs>
       <path id="DejaVuSans-4f" d="M 2522 4238 
Q 1834 4238 1429 3725 
Q 1025 3213 1025 2328 
Q 1025 1447 1429 934 
Q 1834 422 2522 422 
Q 3209 422 3611 934 
Q 4013 1447 4013 2328 
Q 4013 3213 3611 3725 
Q 3209 4238 2522 4238 
z
M 2522 4750 
Q 3503 4750 4090 4092 
Q 4678 3434 4678 2328 
Q 4678 1225 4090 567 
Q 3503 -91 2522 -91 
Q 1538 -91 948 565 
Q 359 1222 359 2328 
Q 359 3434 948 4092 
Q 1538 4750 2522 4750 
z
" transform="scale(0.015625)"/>
       <path id="DejaVuSans-54" d="M -19 4666 
L 3928 4666 
L 3928 4134 
L 2272 4134 
L 2272 0 
L 1638 0 
L 1638 4134 
L -19 4134 
L -19 4666 
z
" transform="scale(0.015625)"/>
      </defs>
      <use xlink:href="#DejaVuSans-44"/>
      <use xlink:href="#DejaVuSans-46" x="77.001953"/>
      <use xlink:href="#DejaVuSans-46" x="134.521484"/>
      <use xlink:href="#DejaVuSans-20" x="192.041016"/>
      <use xlink:href="#DejaVuSans-4f" x="223.828125"/>
      <use xlink:href="#DejaVuSans-55" x="302.539062"/>
      <use xlink:href="#DejaVuSans-54" x="375.732422"/>
     </g>
    </g>
   </g>
   <g id="line2d_74">
    <path d="M 141.12 416.731515 
L 173.408256 416.772424 
L 173.440512 418.160646 
L 173.601792 442.034407 
L 174.214656 442.031404 
L 186.246144 442.031456 
L 254.048256 442.032871 
L 254.080512 442.166917 
L 254.112768 441.945187 
L 254.306304 438.671455 
L 254.628864 437.919334 
L 254.693376 437.54713 
L 255.14496 431.672336 
L 255.370752 417.864559 
L 255.596544 402.119308 
L 255.757824 401.844346 
L 255.983616 401.790695 
L 257.08032 401.794048 
L 295.755264 401.861112 
L 296.239104 404.030628 
L 296.59392 403.48741 
L 297.980928 402.062303 
L 299.690496 401.81752 
L 325.108224 401.91141 
L 327.753216 405.103649 
L 330.559488 408.993353 
L 333.139968 412.648668 
L 333.752832 414.141845 
L 334.301184 415.923061 
L 334.785024 417.67611 
L 334.849536 420.367718 
L 335.075328 443.041101 
L 335.13984 443.032886 
L 335.688192 442.947983 
L 336.333312 442.712656 
L 336.720384 442.361875 
L 337.042944 441.735462 
L 337.300992 440.539619 
L 337.526784 438.430025 
L 337.978368 431.782991 
L 338.04288 431.897335 
L 338.52672 433.28321 
L 340.333056 439.216785 
L 340.365312 438.949971 
L 340.397568 438.85122 
L 340.46208 438.971901 
L 340.526592 439.282206 
L 340.655616 440.26563 
L 340.978176 441.348476 
L 341.1072 441.094506 
L 341.59104 443.347248 
L 341.816832 444.073817 
L 341.849088 443.640987 
L 341.881344 443.964302 
L 342.042624 444.790596 
L 342.72 446.482717 
L 342.913536 446.898178 
L 342.945792 446.835138 
L 343.010304 446.733536 
L 343.20384 447.534279 
L 343.300608 447.724405 
L 343.784448 448.55432 
L 343.816704 448.502345 
L 343.84896 448.434276 
L 343.881216 448.48625 
L 344.01024 448.661957 
L 344.429568 449.443922 
L 344.623104 450.08807 
L 344.65536 449.980433 
L 344.687616 450.10886 
L 344.913408 450.693657 
L 345.203712 451.256658 
L 345.719808 452.303525 
L 345.752064 452.149278 
L 345.816576 452.352146 
L 346.074624 453.006354 
L 347.010048 454.767451 
L 347.042304 454.624269 
L 347.07456 454.817078 
L 347.106816 454.758062 
L 347.784192 456.157014 
L 348.04224 456.616066 
L 350.880768 461.205245 
L 350.913024 461.168695 
L 351.009792 461.133487 
L 351.26784 460.694554 
L 351.719424 460.068178 
L 351.977472 459.503835 
L 352.848384 458.2541 
L 353.558016 457.422844 
L 353.719296 457.128769 
L 354.33216 456.459472 
L 354.364416 456.605 
L 354.396672 456.380672 
L 354.428928 456.518152 
L 354.848256 456.023892 
L 355.332096 455.558133 
L 355.78368 455.019611 
L 355.815936 455.154074 
L 355.848192 454.898225 
L 355.977216 454.821102 
L 356.364288 454.438502 
L 356.396544 454.6407 
L 356.461056 454.422072 
L 356.493312 454.469352 
L 356.622336 454.213168 
L 356.75136 454.09983 
L 356.783616 454.268496 
L 356.848128 454.025724 
L 356.880384 454.197743 
L 357.041664 453.937871 
L 357.07392 454.011976 
L 357.106176 453.857059 
L 357.299712 453.730308 
L 357.364224 453.747409 
L 357.39648 453.67934 
L 357.654528 453.502626 
L 358.073856 452.939961 
L 358.396416 452.588211 
L 358.428672 452.688806 
L 358.460928 452.54596 
L 358.52544 452.584522 
L 358.557696 452.425916 
L 358.589952 452.617048 
L 358.622208 452.410156 
L 358.783488 452.226066 
L 358.944768 452.088585 
L 358.977024 452.32465 
L 359.073792 452.240149 
L 359.106048 452.219024 
L 359.235072 451.918578 
L 359.267328 452.041976 
L 359.299584 451.850844 
L 359.460864 451.684525 
L 359.49312 451.782103 
L 359.525376 451.630204 
L 359.557632 451.618803 
L 359.589888 451.80524 
L 359.686656 451.720404 
L 359.847936 451.457514 
L 360.525312 451.029647 
L 360.718848 450.777151 
L 360.912384 450.431437 
L 361.009152 450.303681 
L 361.041408 450.537733 
L 361.10592 450.203085 
L 361.138176 450.425737 
L 361.202688 450.116908 
L 361.363968 450.008935 
L 361.396224 450.2564 
L 361.460736 449.956625 
L 361.525248 450.12462 
L 361.58976 450.092094 
L 361.75104 449.631701 
L 361.815552 449.904986 
L 361.944576 449.457335 
L 362.105856 449.582073 
L 362.23488 449.28431 
L 362.267136 449.280957 
L 362.299392 449.391277 
L 362.331648 449.234012 
L 362.363904 449.225964 
L 362.460672 449.182373 
L 362.492928 449.330919 
L 362.55744 449.219593 
L 362.783232 449.093513 
L 362.912256 448.982858 
L 363.621888 448.430587 
L 363.783168 448.288747 
L 363.912192 447.846126 
L 363.944448 447.954434 
L 363.976704 447.773026 
L 364.105728 447.655664 
L 364.137984 447.982601 
L 364.202496 447.586588 
L 364.396032 447.418258 
L 364.428288 447.758272 
L 364.4928 447.716692 
L 364.65408 447.1889 
L 364.686336 447.524219 
L 364.750848 447.148326 
L 364.879872 447.293519 
L 364.912128 447.213713 
L 365.041152 447.083945 
L 365.073408 447.278765 
L 365.105664 447.050748 
L 365.170176 446.917962 
L 365.202432 447.171128 
L 365.234688 446.859281 
L 365.266944 446.867999 
L 365.331456 446.836815 
L 365.395968 447.039347 
L 365.557248 446.781822 
L 366.008832 446.576607 
L 366.557184 446.19669 
L 367.170048 445.662191 
L 367.23456 445.196433 
L 367.266816 445.210952 
L 367.299072 445.576014 
L 367.363584 445.187211 
L 367.39584 445.502244 
L 367.428096 445.470724 
L 367.460352 444.978743 
L 367.55712 445.128262 
L 367.589376 445.214305 
L 367.621632 445.119343 
L 367.750656 444.789925 
L 367.782912 444.774132 
L 367.815168 445.168165 
L 367.911936 445.090841 
L 368.04096 444.573913 
L 368.073216 444.584073 
L 368.105472 444.932771 
L 368.137728 444.523481 
L 368.169984 444.529449 
L 368.20224 444.518518 
L 368.234496 444.807697 
L 368.299008 444.796598 
L 368.36352 444.450414 
L 368.428032 444.526599 
L 368.460288 444.652042 
L 368.492544 444.380299 
L 368.5248 444.483712 
L 368.557056 444.541454 
L 368.589312 444.376242 
L 368.84736 444.351764 
L 370.395648 442.981649 
L 370.556928 442.249697 
L 370.653696 442.195758 
L 370.685952 442.170287 
L 370.718208 442.546941 
L 370.78272 442.218311 
L 370.814976 442.349425 
L 370.847232 442.000945 
L 370.944 442.045313 
L 371.137536 441.967426 
L 372.07296 440.581937 
L 372.201984 439.882159 
L 372.23424 439.852282 
L 372.331008 440.171841 
L 372.39552 439.739145 
L 372.460032 439.810971 
L 372.589056 439.795579 
L 373.427712 438.473952 
L 373.653504 438.096718 
L 373.718016 437.518963 
L 373.814784 437.5421 
L 373.911552 437.632971 
L 373.976064 437.543106 
L 375.040512 435.76256 
L 375.105024 435.275677 
L 375.169536 435.375602 
L 375.29856 435.583165 
L 375.363072 435.470497 
L 378.36288 430.309599 
L 378.84672 429.459564 
L 379.33056 428.643732 
L 379.362816 428.167244 
L 379.459584 428.359046 
L 380.233728 427.17101 
L 380.653056 426.499366 
L 380.685312 426.526527 
L 380.717568 426.453427 
L 380.846592 425.734167 
L 381.007872 425.859241 
L 381.040128 425.949107 
L 381.10464 425.892103 
L 382.427136 423.776238 
L 382.55616 423.571693 
L 382.588416 423.713533 
L 382.652928 423.608243 
L 383.169024 422.776987 
L 384.201216 421.462535 
L 384.297984 421.436715 
L 384.588288 420.924683 
L 385.555968 419.677295 
L 386.684928 418.407776 
L 386.846208 418.037919 
L 387.620352 417.327378 
L 388.007424 417.064487 
L 389.00736 416.04847 
L 389.426688 415.400298 
L 389.65248 415.204136 
L 390.555648 412.96588 
L 398.587392 399.567528 
L 399.458304 398.206132 
L 400.748544 396.27134 
L 404.522496 390.973295 
L 407.586816 387.016528 
L 411.812352 381.570943 
L 413.586432 379.354483 
L 415.328256 377.305682 
L 415.360512 377.449869 
L 415.392768 377.466635 
L 415.521792 377.265444 
L 415.650816 377.221852 
L 415.715328 376.926771 
L 415.747584 378.455827 
L 415.844352 420.357993 
L 415.908864 442.671848 
L 415.973376 441.559593 
L 416.26368 441.725885 
L 417.134592 442.032291 
L 418.392576 442.233532 
L 420.585984 442.333024 
L 427.779072 442.332903 
L 436.681728 442.412109 
L 441.842688 442.397858 
L 456.841728 442.301856 
L 456.873984 442.374889 
L 456.938496 442.288886 
L 457.035264 442.179213 
L 457.099776 442.218372 
L 457.39008 442.282146 
L 459.260928 442.279779 
L 495.968256 442.117682 
L 496.000512 442.25575 
L 496.032768 442.127554 
L 496.226304 438.087329 
L 496.613376 436.662893 
L 496.774656 435.019158 
L 496.935936 430.677108 
L 497.161728 415.175969 
L 497.38752 399.111494 
L 497.581056 398.947187 
L 498.871296 399.05449 
L 499.419648 399.114847 
L 500.806656 399.222149 
L 501.25824 399.248975 
L 502.258176 399.349571 
L 503.903232 399.456873 
L 504.451584 399.51723 
L 506.225664 399.624532 
L 506.677248 399.651358 
L 507.515904 399.718422 
L 509.32224 399.825724 
L 509.773824 399.852549 
L 510.61248 399.919613 
L 512.70912 400.026915 
L 513.160704 400.053741 
L 513.83808 400.087273 
L 514.676736 400.154337 
L 515.45088 400.184516 
L 517.515264 400.288465 
L 520.063488 400.395767 
L 520.482816 400.419239 
L 523.256832 400.529894 
L 523.708416 400.55672 
L 524.450304 400.590252 
L 527.70816 400.697554 
L 528.127488 400.721026 
L 531.869184 400.831682 
L 532.320768 400.858507 
L 533.094912 400.888686 
L 536.352768 400.922218 
L 536.385024 401.016107 
L 536.481792 400.959103 
L 537.22368 400.992635 
L 542.22336 401.099937 
L 542.674944 401.126763 
L 543.739392 401.12341 
L 544.190976 401.156941 
L 550.93248 401.267597 
L 551.351808 401.291069 
L 560.318976 401.401724 
L 560.77056 401.42855 
L 561.867264 401.425197 
L 576.608256 401.455376 
L 576.640512 401.623035 
L 576.705024 401.441963 
L 577.092096 401.452022 
L 657.248256 401.472142 
L 657.280512 401.58615 
L 657.345024 401.431903 
L 657.667584 401.452022 
L 737.888256 401.455376 
L 737.920512 401.626388 
L 737.985024 401.455376 
L 738.210816 401.441963 
L 738.597888 401.448669 
L 818.528256 401.455376 
L 818.560512 401.626388 
L 818.625024 401.455376 
L 818.850816 401.441963 
L 819.237888 401.448669 
L 899.168256 401.455376 
L 899.200512 401.626388 
L 899.265024 401.455376 
L 899.490816 401.441963 
L 899.877888 401.448669 
L 947.52 401.458729 
L 947.52 401.458729 
" clip-path="url(#pa1bf7fd36c)" style="fill: none; stroke: #ff00ff; stroke-width: 2; stroke-linecap: square"/>
   </g>
   <g id="patch_22">
    <path d="M 100.8 465.442759 
L 100.8 372.711724 
" style="fill: none; stroke: #bcbcbc; stroke-width: 0.8; stroke-linejoin: miter; stroke-linecap: square"/>
   </g>
   <g id="patch_23">
    <path d="M 987.84 465.442759 
L 987.84 372.711724 
" style="fill: none; stroke: #bcbcbc; stroke-width: 0.8; stroke-linejoin: miter; stroke-linecap: square"/>
   </g>
   <g id="patch_24">
    <path d="M 100.8 465.442759 
L 987.84 465.442759 
" style="fill: none; stroke: #bcbcbc; stroke-width: 0.8; stroke-linejoin: miter; stroke-linecap: square"/>
   </g>
   <g id="patch_25">
    <path d="M 100.8 372.711724 
L 987.84 372.711724 
" style="fill: none; stroke: #bcbcbc; stroke-width: 0.8; stroke-linejoin: miter; stroke-linecap: square"/>
   </g>
  </g>
  <g id="axes_5">
   <g id="patch_26">
    <path d="M 100.8 576.72 
L 987.84 576.72 
L 987.84 483.988966 
L 100.8 483.988966 
z
" style="fill: #eeeeee"/>
   </g>
   <g id="matplotlib.axis_9">
    <g id="xtick_25">
     <g id="line2d_75">
      <path d="M 141.12 576.72 
L 141.12 483.988966 
" clip-path="url(#p7faf02f6ed)" style="fill: none; stroke-dasharray: 1.85,0.8; stroke-dashoffset: 0; stroke: #b2b2b2; stroke-width: 0.5"/>
     </g>
     <g id="line2d_76">
      <g>
       <use xlink:href="#m85b48e6f42" x="141.12" y="576.72" style="stroke: #000000; stroke-width: 0.8"/>
      </g>
     </g>
     <g id="text_16">
      <!-- 0 s -->
      <g transform="translate(130.795 590.857813) scale(0.14 -0.14)">
       <defs>
        <path id="DejaVuSans-73" d="M 2834 3397 
L 2834 2853 
Q 2591 2978 2328 3040 
Q 2066 3103 1784 3103 
Q 1356 3103 1142 2972 
Q 928 2841 928 2578 
Q 928 2378 1081 2264 
Q 1234 2150 1697 2047 
L 1894 2003 
Q 2506 1872 2764 1633 
Q 3022 1394 3022 966 
Q 3022 478 2636 193 
Q 2250 -91 1575 -91 
Q 1294 -91 989 -36 
Q 684 19 347 128 
L 347 722 
Q 666 556 975 473 
Q 1284 391 1588 391 
Q 1994 391 2212 530 
Q 2431 669 2431 922 
Q 2431 1156 2273 1281 
Q 2116 1406 1581 1522 
L 1381 1569 
Q 847 1681 609 1914 
Q 372 2147 372 2553 
Q 372 3047 722 3315 
Q 1072 3584 1716 3584 
Q 2034 3584 2315 3537 
Q 2597 3491 2834 3397 
z
" transform="scale(0.015625)"/>
       </defs>
       <use xlink:href="#DejaVuSans-30"/>
       <use xlink:href="#DejaVuSans-20" x="63.623047"/>
       <use xlink:href="#DejaVuSans-73" x="95.410156"/>
      </g>
     </g>
    </g>
    <g id="xtick_26">
     <g id="line2d_77">
      <path d="M 302.4 576.72 
L 302.4 483.988966 
" clip-path="url(#p7faf02f6ed)" style="fill: none; stroke-dasharray: 1.85,0.8; stroke-dashoffset: 0; stroke: #b2b2b2; stroke-width: 0.5"/>
     </g>
     <g id="line2d_78">
      <g>
       <use xlink:href="#m85b48e6f42" x="302.4" y="576.72" style="stroke: #000000; stroke-width: 0.8"/>
      </g>
     </g>
     <g id="text_17">
      <!-- 50 ns -->
      <g transform="translate(283.185 590.857813) scale(0.14 -0.14)">
       <defs>
        <path id="DejaVuSans-35" d="M 691 4666 
L 3169 4666 
L 3169 4134 
L 1269 4134 
L 1269 2991 
Q 1406 3038 1543 3061 
Q 1681 3084 1819 3084 
Q 2600 3084 3056 2656 
Q 3513 2228 3513 1497 
Q 3513 744 3044 326 
Q 2575 -91 1722 -91 
Q 1428 -91 1123 -41 
Q 819 9 494 109 
L 494 744 
Q 775 591 1075 516 
Q 1375 441 1709 441 
Q 2250 441 2565 725 
Q 2881 1009 2881 1497 
Q 2881 1984 2565 2268 
Q 2250 2553 1709 2553 
Q 1456 2553 1204 2497 
Q 953 2441 691 2322 
L 691 4666 
z
" transform="scale(0.015625)"/>
        <path id="DejaVuSans-6e" d="M 3513 2113 
L 3513 0 
L 2938 0 
L 2938 2094 
Q 2938 2591 2744 2837 
Q 2550 3084 2163 3084 
Q 1697 3084 1428 2787 
Q 1159 2491 1159 1978 
L 1159 0 
L 581 0 
L 581 3500 
L 1159 3500 
L 1159 2956 
Q 1366 3272 1645 3428 
Q 1925 3584 2291 3584 
Q 2894 3584 3203 3211 
Q 3513 2838 3513 2113 
z
" transform="scale(0.015625)"/>
       </defs>
       <use xlink:href="#DejaVuSans-35"/>
       <use xlink:href="#DejaVuSans-30" x="63.623047"/>
       <use xlink:href="#DejaVuSans-20" x="127.246094"/>
       <use xlink:href="#DejaVuSans-6e" x="159.033203"/>
       <use xlink:href="#DejaVuSans-73" x="222.412109"/>
      </g>
     </g>
    </g>
    <g id="xtick_27">
     <g id="line2d_79">
      <path d="M 463.68 576.72 
L 463.68 483.988966 
" clip-path="url(#p7faf02f6ed)" style="fill: none; stroke-dasharray: 1.85,0.8; stroke-dashoffset: 0; stroke: #b2b2b2; stroke-width: 0.5"/>
     </g>
     <g id="line2d_80">
      <g>
       <use xlink:href="#m85b48e6f42" x="463.68" y="576.72" style="stroke: #000000; stroke-width: 0.8"/>
      </g>
     </g>
     <g id="text_18">
      <!-- 100 ns -->
      <g transform="translate(440.01125 590.857813) scale(0.14 -0.14)">
       <use xlink:href="#DejaVuSans-31"/>
       <use xlink:href="#DejaVuSans-30" x="63.623047"/>
       <use xlink:href="#DejaVuSans-30" x="127.246094"/>
       <use xlink:href="#DejaVuSans-20" x="190.869141"/>
       <use xlink:href="#DejaVuSans-6e" x="222.65625"/>
       <use xlink:href="#DejaVuSans-73" x="286.035156"/>
      </g>
     </g>
    </g>
    <g id="xtick_28">
     <g id="line2d_81">
      <path d="M 624.96 576.72 
L 624.96 483.988966 
" clip-path="url(#p7faf02f6ed)" style="fill: none; stroke-dasharray: 1.85,0.8; stroke-dashoffset: 0; stroke: #b2b2b2; stroke-width: 0.5"/>
     </g>
     <g id="line2d_82">
      <g>
       <use xlink:href="#m85b48e6f42" x="624.96" y="576.72" style="stroke: #000000; stroke-width: 0.8"/>
      </g>
     </g>
     <g id="text_19">
      <!-- 150 ns -->
      <g transform="translate(601.29125 590.857813) scale(0.14 -0.14)">
       <use xlink:href="#DejaVuSans-31"/>
       <use xlink:href="#DejaVuSans-35" x="63.623047"/>
       <use xlink:href="#DejaVuSans-30" x="127.246094"/>
       <use xlink:href="#DejaVuSans-20" x="190.869141"/>
       <use xlink:href="#DejaVuSans-6e" x="222.65625"/>
       <use xlink:href="#DejaVuSans-73" x="286.035156"/>
      </g>
     </g>
    </g>
    <g id="xtick_29">
     <g id="line2d_83">
      <path d="M 786.24 576.72 
L 786.24 483.988966 
" clip-path="url(#p7faf02f6ed)" style="fill: none; stroke-dasharray: 1.85,0.8; stroke-dashoffset: 0; stroke: #b2b2b2; stroke-width: 0.5"/>
     </g>
     <g id="line2d_84">
      <g>
       <use xlink:href="#m85b48e6f42" x="786.24" y="576.72" style="stroke: #000000; stroke-width: 0.8"/>
      </g>
     </g>
     <g id="text_20">
      <!-- 200 ns -->
      <g transform="translate(762.57125 590.857813) scale(0.14 -0.14)">
       <use xlink:href="#DejaVuSans-32"/>
       <use xlink:href="#DejaVuSans-30" x="63.623047"/>
       <use xlink:href="#DejaVuSans-30" x="127.246094"/>
       <use xlink:href="#DejaVuSans-20" x="190.869141"/>
       <use xlink:href="#DejaVuSans-6e" x="222.65625"/>
       <use xlink:href="#DejaVuSans-73" x="286.035156"/>
      </g>
     </g>
    </g>
    <g id="xtick_30">
     <g id="line2d_85">
      <path d="M 947.52 576.72 
L 947.52 483.988966 
" clip-path="url(#p7faf02f6ed)" style="fill: none; stroke-dasharray: 1.85,0.8; stroke-dashoffset: 0; stroke: #b2b2b2; stroke-width: 0.5"/>
     </g>
     <g id="line2d_86">
      <g>
       <use xlink:href="#m85b48e6f42" x="947.52" y="576.72" style="stroke: #000000; stroke-width: 0.8"/>
      </g>
     </g>
     <g id="text_21">
      <!-- 250 ns -->
      <g transform="translate(923.85125 590.857813) scale(0.14 -0.14)">
       <use xlink:href="#DejaVuSans-32"/>
       <use xlink:href="#DejaVuSans-35" x="63.623047"/>
       <use xlink:href="#DejaVuSans-30" x="127.246094"/>
       <use xlink:href="#DejaVuSans-20" x="190.869141"/>
       <use xlink:href="#DejaVuSans-6e" x="222.65625"/>
       <use xlink:href="#DejaVuSans-73" x="286.035156"/>
      </g>
     </g>
    </g>
    <g id="text_22">
     <!-- Time -->
     <g transform="translate(527.192969 608.407187) scale(0.14 -0.14)">
      <defs>
       <path id="DejaVuSans-69" d="M 603 3500 
L 1178 3500 
L 1178 0 
L 603 0 
L 603 3500 
z
M 603 4863 
L 1178 4863 
L 1178 4134 
L 603 4134 
L 603 4863 
z
" transform="scale(0.015625)"/>
       <path id="DejaVuSans-6d" d="M 3328 2828 
Q 3544 3216 3844 3400 
Q 4144 3584 4550 3584 
Q 5097 3584 5394 3201 
Q 5691 2819 5691 2113 
L 5691 0 
L 5113 0 
L 5113 2094 
Q 5113 2597 4934 2840 
Q 4756 3084 4391 3084 
Q 3944 3084 3684 2787 
Q 3425 2491 3425 1978 
L 3425 0 
L 2847 0 
L 2847 2094 
Q 2847 2600 2669 2842 
Q 2491 3084 2119 3084 
Q 1678 3084 1418 2786 
Q 1159 2488 1159 1978 
L 1159 0 
L 581 0 
L 581 3500 
L 1159 3500 
L 1159 2956 
Q 1356 3278 1631 3431 
Q 1906 3584 2284 3584 
Q 2666 3584 2933 3390 
Q 3200 3197 3328 2828 
z
" transform="scale(0.015625)"/>
       <path id="DejaVuSans-65" d="M 3597 1894 
L 3597 1613 
L 953 1613 
Q 991 1019 1311 708 
Q 1631 397 2203 397 
Q 2534 397 2845 478 
Q 3156 559 3463 722 
L 3463 178 
Q 3153 47 2828 -22 
Q 2503 -91 2169 -91 
Q 1331 -91 842 396 
Q 353 884 353 1716 
Q 353 2575 817 3079 
Q 1281 3584 2069 3584 
Q 2775 3584 3186 3129 
Q 3597 2675 3597 1894 
z
M 3022 2063 
Q 3016 2534 2758 2815 
Q 2500 3097 2075 3097 
Q 1594 3097 1305 2825 
Q 1016 2553 972 2059 
L 3022 2063 
z
" transform="scale(0.015625)"/>
      </defs>
      <use xlink:href="#DejaVuSans-54"/>
      <use xlink:href="#DejaVuSans-69" x="57.958984"/>
      <use xlink:href="#DejaVuSans-6d" x="85.742188"/>
      <use xlink:href="#DejaVuSans-65" x="183.154297"/>
     </g>
    </g>
   </g>
   <g id="matplotlib.axis_10">
    <g id="ytick_12">
     <g id="line2d_87">
      <path d="M 100.8 569.737898 
L 987.84 569.737898 
" clip-path="url(#p7faf02f6ed)" style="fill: none; stroke-dasharray: 1.85,0.8; stroke-dashoffset: 0; stroke: #b2b2b2; stroke-width: 0.5"/>
     </g>
     <g id="line2d_88">
      <g>
       <use xlink:href="#m9de8a6d111" x="100.8" y="569.737898" style="stroke: #000000; stroke-width: 0.8"/>
      </g>
     </g>
     <g id="text_23">
      <!-- 0 V -->
      <g transform="translate(74.36625 575.056805) scale(0.14 -0.14)">
       <use xlink:href="#DejaVuSans-30"/>
       <use xlink:href="#DejaVuSans-20" x="63.623047"/>
       <use xlink:href="#DejaVuSans-56" x="95.410156"/>
      </g>
     </g>
    </g>
    <g id="ytick_13">
     <g id="line2d_89">
      <path d="M 100.8 535.84453 
L 987.84 535.84453 
" clip-path="url(#p7faf02f6ed)" style="fill: none; stroke-dasharray: 1.85,0.8; stroke-dashoffset: 0; stroke: #b2b2b2; stroke-width: 0.5"/>
     </g>
     <g id="line2d_90">
      <g>
       <use xlink:href="#m9de8a6d111" x="100.8" y="535.84453" style="stroke: #000000; stroke-width: 0.8"/>
      </g>
     </g>
     <g id="text_24">
      <!-- 500 mV -->
      <g transform="translate(42.914375 541.163437) scale(0.14 -0.14)">
       <use xlink:href="#DejaVuSans-35"/>
       <use xlink:href="#DejaVuSans-30" x="63.623047"/>
       <use xlink:href="#DejaVuSans-30" x="127.246094"/>
       <use xlink:href="#DejaVuSans-20" x="190.869141"/>
       <use xlink:href="#DejaVuSans-6d" x="222.65625"/>
       <use xlink:href="#DejaVuSans-56" x="320.068359"/>
      </g>
     </g>
    </g>
    <g id="ytick_14">
     <g id="line2d_91">
      <path d="M 100.8 501.951163 
L 987.84 501.951163 
" clip-path="url(#p7faf02f6ed)" style="fill: none; stroke-dasharray: 1.85,0.8; stroke-dashoffset: 0; stroke: #b2b2b2; stroke-width: 0.5"/>
     </g>
     <g id="line2d_92">
      <g>
       <use xlink:href="#m9de8a6d111" x="100.8" y="501.951163" style="stroke: #000000; stroke-width: 0.8"/>
      </g>
     </g>
     <g id="text_25">
      <!-- 1 V -->
      <g transform="translate(74.36625 507.270069) scale(0.14 -0.14)">
       <use xlink:href="#DejaVuSans-31"/>
       <use xlink:href="#DejaVuSans-20" x="63.623047"/>
       <use xlink:href="#DejaVuSans-56" x="95.410156"/>
      </g>
     </g>
    </g>
    <g id="text_26">
     <g id="patch_27">
      <path d="M 34.8768 554.329483 
L 34.8768 506.379483 
L 11.247425 506.379483 
L 11.247425 554.329483 
z
" style="fill: #ffff00; opacity: 0.2; stroke: #eeeeee; stroke-width: 0.5; stroke-linejoin: miter"/>
     </g>
     <!-- FOUT -->
     <g transform="translate(26.925238 549.289483) rotate(-90) scale(0.14 -0.14)">
      <use xlink:href="#DejaVuSans-46"/>
      <use xlink:href="#DejaVuSans-4f" x="57.519531"/>
      <use xlink:href="#DejaVuSans-55" x="136.230469"/>
      <use xlink:href="#DejaVuSans-54" x="209.423828"/>
     </g>
    </g>
   </g>
   <g id="line2d_93">
    <path d="M 141.12 488.393815 
L 173.472768 488.400594 
L 173.505024 488.204013 
L 173.569536 526.657394 
L 173.69856 572.504953 
L 173.730816 572.369108 
L 173.827584 567.828617 
L 173.892096 569.351799 
L 174.053376 570.057126 
L 174.117888 569.939259 
L 174.408192 569.483332 
L 174.440448 569.532932 
L 174.66624 569.721921 
L 176.182272 569.732147 
L 180.085248 569.753796 
L 193.568256 569.74419 
L 212.8896 569.73602 
L 255.30624 569.735711 
L 255.6288 488.285357 
L 255.854592 488.427709 
L 256.209408 488.387037 
L 334.914048 488.298914 
L 334.946304 488.949667 
L 335.075328 570.191256 
L 335.172096 569.736044 
L 349.590528 569.736183 
L 382.846464 569.809807 
L 382.87872 569.856878 
L 382.943232 568.689373 
L 383.04 528.399513 
L 383.20128 488.847987 
L 383.330304 488.400594 
L 415.844352 488.393815 
L 415.908864 491.118842 
L 416.070144 569.763462 
L 416.1024 569.743817 
L 416.328192 569.736216 
L 497.097216 569.727986 
L 497.129472 569.377537 
L 497.193984 543.23464 
L 497.355264 488.98356 
L 497.484288 488.400594 
L 947.52 488.393815 
L 947.52 488.393815 
" clip-path="url(#p7faf02f6ed)" style="fill: none; stroke: #ff00ff; stroke-width: 2; stroke-linecap: square"/>
   </g>
   <g id="patch_28">
    <path d="M 100.8 576.72 
L 100.8 483.988966 
" style="fill: none; stroke: #bcbcbc; stroke-width: 0.8; stroke-linejoin: miter; stroke-linecap: square"/>
   </g>
   <g id="patch_29">
    <path d="M 987.84 576.72 
L 987.84 483.988966 
" style="fill: none; stroke: #bcbcbc; stroke-width: 0.8; stroke-linejoin: miter; stroke-linecap: square"/>
   </g>
   <g id="patch_30">
    <path d="M 100.8 576.72 
L 987.84 576.72 
" style="fill: none; stroke: #bcbcbc; stroke-width: 0.8; stroke-linejoin: miter; stroke-linecap: square"/>
   </g>
   <g id="patch_31">
    <path d="M 100.8 483.988966 
L 987.84 483.988966 
" style="fill: none; stroke: #bcbcbc; stroke-width: 0.8; stroke-linejoin: miter; stroke-linecap: square"/>
   </g>
  </g>
  <g id="axes_6">
   <g id="patch_32">
    <path d="M 201.6 628.56 
L 856.8 628.56 
L 856.8 615.6 
L 201.6 615.6 
z
" clip-path="url(#p1bdbe35a8b)" style="fill: #d3d3d3"/>
   </g>
   <g id="patch_33">
    <path d="M 201.6 628.56 
L 393.48 628.56 
L 393.48 615.6 
L 201.6 615.6 
z
" clip-path="url(#p1bdbe35a8b)" style="fill: #0000ff"/>
   </g>
   <g id="line2d_94">
    <path d="M 201.6 635.04 
L 201.6 609.12 
" clip-path="url(#pb1e8af4bac)" style="fill: none; stroke: #ff0000; stroke-linecap: square"/>
   </g>
   <g id="line2d_95">
    <defs>
     <path id="m9c28da0cec" d="M 0 5 
C 1.326016 5 2.597899 4.473168 3.535534 3.535534 
C 4.473168 2.597899 5 1.326016 5 0 
C 5 -1.326016 4.473168 -2.597899 3.535534 -3.535534 
C 2.597899 -4.473168 1.326016 -5 0 -5 
C -1.326016 -5 -2.597899 -4.473168 -3.535534 -3.535534 
C -4.473168 -2.597899 -5 -1.326016 -5 0 
C -5 1.326016 -4.473168 2.597899 -3.535534 3.535534 
C -2.597899 4.473168 -1.326016 5 0 5 
z
" style="stroke: #bfbfbf"/>
    </defs>
    <g>
     <use xlink:href="#m9c28da0cec" x="393.48" y="622.08" style="fill: #ffffff; stroke: #bfbfbf"/>
    </g>
   </g>
   <g id="text_27">
    <!-- #Sweep -->
    <g transform="translate(138.622875 625.39125) scale(0.12 -0.12)">
     <defs>
      <path id="DejaVuSans-23" d="M 3272 2816 
L 2363 2816 
L 2100 1772 
L 3016 1772 
L 3272 2816 
z
M 2803 4594 
L 2478 3297 
L 3391 3297 
L 3719 4594 
L 4219 4594 
L 3897 3297 
L 4872 3297 
L 4872 2816 
L 3775 2816 
L 3519 1772 
L 4513 1772 
L 4513 1294 
L 3397 1294 
L 3072 0 
L 2572 0 
L 2894 1294 
L 1978 1294 
L 1656 0 
L 1153 0 
L 1478 1294 
L 494 1294 
L 494 1772 
L 1594 1772 
L 1856 2816 
L 850 2816 
L 850 3297 
L 1978 3297 
L 2297 4594 
L 2803 4594 
z
" transform="scale(0.015625)"/>
      <path id="DejaVuSans-77" d="M 269 3500 
L 844 3500 
L 1563 769 
L 2278 3500 
L 2956 3500 
L 3675 769 
L 4391 3500 
L 4966 3500 
L 4050 0 
L 3372 0 
L 2619 2869 
L 1863 0 
L 1184 0 
L 269 3500 
z
" transform="scale(0.015625)"/>
      <path id="DejaVuSans-70" d="M 1159 525 
L 1159 -1331 
L 581 -1331 
L 581 3500 
L 1159 3500 
L 1159 2969 
Q 1341 3281 1617 3432 
Q 1894 3584 2278 3584 
Q 2916 3584 3314 3078 
Q 3713 2572 3713 1747 
Q 3713 922 3314 415 
Q 2916 -91 2278 -91 
Q 1894 -91 1617 61 
Q 1341 213 1159 525 
z
M 3116 1747 
Q 3116 2381 2855 2742 
Q 2594 3103 2138 3103 
Q 1681 3103 1420 2742 
Q 1159 2381 1159 1747 
Q 1159 1113 1420 752 
Q 1681 391 2138 391 
Q 2594 391 2855 752 
Q 3116 1113 3116 1747 
z
" transform="scale(0.015625)"/>
     </defs>
     <use xlink:href="#DejaVuSans-23"/>
     <use xlink:href="#DejaVuSans-53" x="83.789062"/>
     <use xlink:href="#DejaVuSans-77" x="147.265625"/>
     <use xlink:href="#DejaVuSans-65" x="229.052734"/>
     <use xlink:href="#DejaVuSans-65" x="290.576172"/>
     <use xlink:href="#DejaVuSans-70" x="352.099609"/>
    </g>
   </g>
   <g id="text_28">
    <!-- $\mathdefault{41}$ -->
    <g transform="translate(869.904 625.39125) scale(0.12 -0.12)">
     <defs>
      <path id="DejaVuSans-34" d="M 2419 4116 
L 825 1625 
L 2419 1625 
L 2419 4116 
z
M 2253 4666 
L 3047 4666 
L 3047 1625 
L 3713 1625 
L 3713 1100 
L 3047 1100 
L 3047 0 
L 2419 0 
L 2419 1100 
L 313 1100 
L 313 1709 
L 2253 4666 
z
" transform="scale(0.015625)"/>
     </defs>
     <use xlink:href="#DejaVuSans-34" transform="translate(0 0.09375)"/>
     <use xlink:href="#DejaVuSans-31" transform="translate(63.623047 0.09375)"/>
    </g>
   </g>
  </g>
  <g id="text_29">
   <!-- DFF under BBI sweep analysis (Sweep = 51E-9) -->
   <g transform="translate(313.34625 25.1175) scale(0.16 -0.16)">
    <defs>
     <path id="DejaVuSans-75" d="M 544 1381 
L 544 3500 
L 1119 3500 
L 1119 1403 
Q 1119 906 1312 657 
Q 1506 409 1894 409 
Q 2359 409 2629 706 
Q 2900 1003 2900 1516 
L 2900 3500 
L 3475 3500 
L 3475 0 
L 2900 0 
L 2900 538 
Q 2691 219 2414 64 
Q 2138 -91 1772 -91 
Q 1169 -91 856 284 
Q 544 659 544 1381 
z
M 1991 3584 
L 1991 3584 
z
" transform="scale(0.015625)"/>
     <path id="DejaVuSans-64" d="M 2906 2969 
L 2906 4863 
L 3481 4863 
L 3481 0 
L 2906 0 
L 2906 525 
Q 2725 213 2448 61 
Q 2172 -91 1784 -91 
Q 1150 -91 751 415 
Q 353 922 353 1747 
Q 353 2572 751 3078 
Q 1150 3584 1784 3584 
Q 2172 3584 2448 3432 
Q 2725 3281 2906 2969 
z
M 947 1747 
Q 947 1113 1208 752 
Q 1469 391 1925 391 
Q 2381 391 2643 752 
Q 2906 1113 2906 1747 
Q 2906 2381 2643 2742 
Q 2381 3103 1925 3103 
Q 1469 3103 1208 2742 
Q 947 2381 947 1747 
z
" transform="scale(0.015625)"/>
     <path id="DejaVuSans-72" d="M 2631 2963 
Q 2534 3019 2420 3045 
Q 2306 3072 2169 3072 
Q 1681 3072 1420 2755 
Q 1159 2438 1159 1844 
L 1159 0 
L 581 0 
L 581 3500 
L 1159 3500 
L 1159 2956 
Q 1341 3275 1631 3429 
Q 1922 3584 2338 3584 
Q 2397 3584 2469 3576 
Q 2541 3569 2628 3553 
L 2631 2963 
z
" transform="scale(0.015625)"/>
     <path id="DejaVuSans-61" d="M 2194 1759 
Q 1497 1759 1228 1600 
Q 959 1441 959 1056 
Q 959 750 1161 570 
Q 1363 391 1709 391 
Q 2188 391 2477 730 
Q 2766 1069 2766 1631 
L 2766 1759 
L 2194 1759 
z
M 3341 1997 
L 3341 0 
L 2766 0 
L 2766 531 
Q 2569 213 2275 61 
Q 1981 -91 1556 -91 
Q 1019 -91 701 211 
Q 384 513 384 1019 
Q 384 1609 779 1909 
Q 1175 2209 1959 2209 
L 2766 2209 
L 2766 2266 
Q 2766 2663 2505 2880 
Q 2244 3097 1772 3097 
Q 1472 3097 1187 3025 
Q 903 2953 641 2809 
L 641 3341 
Q 956 3463 1253 3523 
Q 1550 3584 1831 3584 
Q 2591 3584 2966 3190 
Q 3341 2797 3341 1997 
z
" transform="scale(0.015625)"/>
     <path id="DejaVuSans-6c" d="M 603 4863 
L 1178 4863 
L 1178 0 
L 603 0 
L 603 4863 
z
" transform="scale(0.015625)"/>
     <path id="DejaVuSans-79" d="M 2059 -325 
Q 1816 -950 1584 -1140 
Q 1353 -1331 966 -1331 
L 506 -1331 
L 506 -850 
L 844 -850 
Q 1081 -850 1212 -737 
Q 1344 -625 1503 -206 
L 1606 56 
L 191 3500 
L 800 3500 
L 1894 763 
L 2988 3500 
L 3597 3500 
L 2059 -325 
z
" transform="scale(0.015625)"/>
     <path id="DejaVuSans-28" d="M 1984 4856 
Q 1566 4138 1362 3434 
Q 1159 2731 1159 2009 
Q 1159 1288 1364 580 
Q 1569 -128 1984 -844 
L 1484 -844 
Q 1016 -109 783 600 
Q 550 1309 550 2009 
Q 550 2706 781 3412 
Q 1013 4119 1484 4856 
L 1984 4856 
z
" transform="scale(0.015625)"/>
     <path id="DejaVuSans-3d" d="M 678 2906 
L 4684 2906 
L 4684 2381 
L 678 2381 
L 678 2906 
z
M 678 1631 
L 4684 1631 
L 4684 1100 
L 678 1100 
L 678 1631 
z
" transform="scale(0.015625)"/>
     <path id="DejaVuSans-2d" d="M 313 2009 
L 1997 2009 
L 1997 1497 
L 313 1497 
L 313 2009 
z
" transform="scale(0.015625)"/>
     <path id="DejaVuSans-39" d="M 703 97 
L 703 672 
Q 941 559 1184 500 
Q 1428 441 1663 441 
Q 2288 441 2617 861 
Q 2947 1281 2994 2138 
Q 2813 1869 2534 1725 
Q 2256 1581 1919 1581 
Q 1219 1581 811 2004 
Q 403 2428 403 3163 
Q 403 3881 828 4315 
Q 1253 4750 1959 4750 
Q 2769 4750 3195 4129 
Q 3622 3509 3622 2328 
Q 3622 1225 3098 567 
Q 2575 -91 1691 -91 
Q 1453 -91 1209 -44 
Q 966 3 703 97 
z
M 1959 2075 
Q 2384 2075 2632 2365 
Q 2881 2656 2881 3163 
Q 2881 3666 2632 3958 
Q 2384 4250 1959 4250 
Q 1534 4250 1286 3958 
Q 1038 3666 1038 3163 
Q 1038 2656 1286 2365 
Q 1534 2075 1959 2075 
z
" transform="scale(0.015625)"/>
     <path id="DejaVuSans-29" d="M 513 4856 
L 1013 4856 
Q 1481 4119 1714 3412 
Q 1947 2706 1947 2009 
Q 1947 1309 1714 600 
Q 1481 -109 1013 -844 
L 513 -844 
Q 928 -128 1133 580 
Q 1338 1288 1338 2009 
Q 1338 2731 1133 3434 
Q 928 4138 513 4856 
z
" transform="scale(0.015625)"/>
    </defs>
    <use xlink:href="#DejaVuSans-44"/>
    <use xlink:href="#DejaVuSans-46" x="77.001953"/>
    <use xlink:href="#DejaVuSans-46" x="134.521484"/>
    <use xlink:href="#DejaVuSans-20" x="192.041016"/>
    <use xlink:href="#DejaVuSans-75" x="223.828125"/>
    <use xlink:href="#DejaVuSans-6e" x="287.207031"/>
    <use xlink:href="#DejaVuSans-64" x="350.585938"/>
    <use xlink:href="#DejaVuSans-65" x="414.0625"/>
    <use xlink:href="#DejaVuSans-72" x="475.585938"/>
    <use xlink:href="#DejaVuSans-20" x="516.699219"/>
    <use xlink:href="#DejaVuSans-42" x="548.486328"/>
    <use xlink:href="#DejaVuSans-42" x="617.089844"/>
    <use xlink:href="#DejaVuSans-49" x="685.693359"/>
    <use xlink:href="#DejaVuSans-20" x="715.185547"/>
    <use xlink:href="#DejaVuSans-73" x="746.972656"/>
    <use xlink:href="#DejaVuSans-77" x="799.072266"/>
    <use xlink:href="#DejaVuSans-65" x="880.859375"/>
    <use xlink:href="#DejaVuSans-65" x="942.382812"/>
    <use xlink:href="#DejaVuSans-70" x="1003.90625"/>
    <use xlink:href="#DejaVuSans-20" x="1067.382812"/>
    <use xlink:href="#DejaVuSans-61" x="1099.169922"/>
    <use xlink:href="#DejaVuSans-6e" x="1160.449219"/>
    <use xlink:href="#DejaVuSans-61" x="1223.828125"/>
    <use xlink:href="#DejaVuSans-6c" x="1285.107422"/>
    <use xlink:href="#DejaVuSans-79" x="1312.890625"/>
    <use xlink:href="#DejaVuSans-73" x="1372.070312"/>
    <use xlink:href="#DejaVuSans-69" x="1424.169922"/>
    <use xlink:href="#DejaVuSans-73" x="1451.953125"/>
    <use xlink:href="#DejaVuSans-20" x="1504.052734"/>
    <use xlink:href="#DejaVuSans-28" x="1535.839844"/>
    <use xlink:href="#DejaVuSans-53" x="1574.853516"/>
    <use xlink:href="#DejaVuSans-77" x="1638.330078"/>
    <use xlink:href="#DejaVuSans-65" x="1720.117188"/>
    <use xlink:href="#DejaVuSans-65" x="1781.640625"/>
    <use xlink:href="#DejaVuSans-70" x="1843.164062"/>
    <use xlink:href="#DejaVuSans-20" x="1906.640625"/>
    <use xlink:href="#DejaVuSans-3d" x="1938.427734"/>
    <use xlink:href="#DejaVuSans-20" x="2022.216797"/>
    <use xlink:href="#DejaVuSans-35" x="2054.003906"/>
    <use xlink:href="#DejaVuSans-31" x="2117.626953"/>
    <use xlink:href="#DejaVuSans-45" x="2181.25"/>
    <use xlink:href="#DejaVuSans-2d" x="2244.433594"/>
    <use xlink:href="#DejaVuSans-39" x="2280.517578"/>
    <use xlink:href="#DejaVuSans-29" x="2344.140625"/>
   </g>
  </g>
 </g>
 <defs>
  <clipPath id="pb0e964baaa">
   <rect x="100.8" y="38.88" width="887.04" height="92.731034"/>
  </clipPath>
  <clipPath id="pda7d18b503">
   <rect x="100.8" y="150.157241" width="887.04" height="92.731034"/>
  </clipPath>
  <clipPath id="p762690fecf">
   <rect x="100.8" y="261.434483" width="887.04" height="92.731034"/>
  </clipPath>
  <clipPath id="pa1bf7fd36c">
   <rect x="100.8" y="372.711724" width="887.04" height="92.731034"/>
  </clipPath>
  <clipPath id="p7faf02f6ed">
   <rect x="100.8" y="483.988966" width="887.04" height="92.731034"/>
  </clipPath>
  <clipPath id="p1bdbe35a8b">
   <rect x="201.6" y="609.12" width="655.2" height="25.92"/>
  </clipPath>
  <clipPath id="pb1e8af4bac">
   <path d="M 201.6 628.56 
L 856.8 628.56 
L 856.8 615.6 
L 201.6 615.6 
z
"/>
  </clipPath>
 </defs>
</svg>
