<?xml version="1.0" encoding="utf-8" standalone="no"?>
<!DOCTYPE svg PUBLIC "-//W3C//DTD SVG 1.1//EN"
  "http://www.w3.org/Graphics/SVG/1.1/DTD/svg11.dtd">
<svg xmlns:xlink="http://www.w3.org/1999/xlink" width="1008pt" height="648pt" viewBox="0 0 1008 648" xmlns="http://www.w3.org/2000/svg" version="1.1">
 <metadata>
  <rdf:RDF xmlns:dc="http://purl.org/dc/elements/1.1/" xmlns:cc="http://creativecommons.org/ns#" xmlns:rdf="http://www.w3.org/1999/02/22-rdf-syntax-ns#">
   <cc:Work>
    <dc:type rdf:resource="http://purl.org/dc/dcmitype/StillImage"/>
    <dc:date>2024-06-03T10:45:40.859253</dc:date>
    <dc:format>image/svg+xml</dc:format>
    <dc:creator>
     <cc:Agent>
      <dc:title>Matplotlib v3.9.0, https://matplotlib.org/</dc:title>
     </cc:Agent>
    </dc:creator>
   </cc:Work>
  </rdf:RDF>
 </metadata>
 <defs>
  <style type="text/css">*{stroke-linejoin: round; stroke-linecap: butt}</style>
 </defs>
 <g id="figure_1">
  <g id="patch_1">
   <path d="M 0 648 
L 1008 648 
L 1008 0 
L 0 0 
z
" style="fill: #ffffff"/>
  </g>
  <g id="axes_1">
   <g id="patch_2">
    <path d="M 100.8 131.611034 
L 987.84 131.611034 
L 987.84 38.88 
L 100.8 38.88 
z
" style="fill: #eeeeee"/>
   </g>
   <g id="matplotlib.axis_1">
    <g id="xtick_1">
     <g id="line2d_1">
      <path d="M 141.12 131.611034 
L 141.12 38.88 
" clip-path="url(#p5a88b6e8aa)" style="fill: none; stroke-dasharray: 1.85,0.8; stroke-dashoffset: 0; stroke: #b2b2b2; stroke-width: 0.5"/>
     </g>
     <g id="line2d_2">
      <defs>
       <path id="m3aadccf966" d="M 0 0 
L 0 -3.5 
" style="stroke: #000000; stroke-width: 0.8"/>
      </defs>
      <g>
       <use xlink:href="#m3aadccf966" x="141.12" y="131.611034" style="stroke: #000000; stroke-width: 0.8"/>
      </g>
     </g>
    </g>
    <g id="xtick_2">
     <g id="line2d_3">
      <path d="M 302.4 131.611034 
L 302.4 38.88 
" clip-path="url(#p5a88b6e8aa)" style="fill: none; stroke-dasharray: 1.85,0.8; stroke-dashoffset: 0; stroke: #b2b2b2; stroke-width: 0.5"/>
     </g>
     <g id="line2d_4">
      <g>
       <use xlink:href="#m3aadccf966" x="302.4" y="131.611034" style="stroke: #000000; stroke-width: 0.8"/>
      </g>
     </g>
    </g>
    <g id="xtick_3">
     <g id="line2d_5">
      <path d="M 463.68 131.611034 
L 463.68 38.88 
" clip-path="url(#p5a88b6e8aa)" style="fill: none; stroke-dasharray: 1.85,0.8; stroke-dashoffset: 0; stroke: #b2b2b2; stroke-width: 0.5"/>
     </g>
     <g id="line2d_6">
      <g>
       <use xlink:href="#m3aadccf966" x="463.68" y="131.611034" style="stroke: #000000; stroke-width: 0.8"/>
      </g>
     </g>
    </g>
    <g id="xtick_4">
     <g id="line2d_7">
      <path d="M 624.96 131.611034 
L 624.96 38.88 
" clip-path="url(#p5a88b6e8aa)" style="fill: none; stroke-dasharray: 1.85,0.8; stroke-dashoffset: 0; stroke: #b2b2b2; stroke-width: 0.5"/>
     </g>
     <g id="line2d_8">
      <g>
       <use xlink:href="#m3aadccf966" x="624.96" y="131.611034" style="stroke: #000000; stroke-width: 0.8"/>
      </g>
     </g>
    </g>
    <g id="xtick_5">
     <g id="line2d_9">
      <path d="M 786.24 131.611034 
L 786.24 38.88 
" clip-path="url(#p5a88b6e8aa)" style="fill: none; stroke-dasharray: 1.85,0.8; stroke-dashoffset: 0; stroke: #b2b2b2; stroke-width: 0.5"/>
     </g>
     <g id="line2d_10">
      <g>
       <use xlink:href="#m3aadccf966" x="786.24" y="131.611034" style="stroke: #000000; stroke-width: 0.8"/>
      </g>
     </g>
    </g>
    <g id="xtick_6">
     <g id="line2d_11">
      <path d="M 947.52 131.611034 
L 947.52 38.88 
" clip-path="url(#p5a88b6e8aa)" style="fill: none; stroke-dasharray: 1.85,0.8; stroke-dashoffset: 0; stroke: #b2b2b2; stroke-width: 0.5"/>
     </g>
     <g id="line2d_12">
      <g>
       <use xlink:href="#m3aadccf966" x="947.52" y="131.611034" style="stroke: #000000; stroke-width: 0.8"/>
      </g>
     </g>
    </g>
   </g>
   <g id="matplotlib.axis_2">
    <g id="ytick_1">
     <g id="line2d_13">
      <path d="M 100.8 98.340394 
L 987.84 98.340394 
" clip-path="url(#p5a88b6e8aa)" style="fill: none; stroke-dasharray: 1.85,0.8; stroke-dashoffset: 0; stroke: #b2b2b2; stroke-width: 0.5"/>
     </g>
     <g id="line2d_14">
      <defs>
       <path id="mad834e9d47" d="M 0 0 
L 3.5 0 
" style="stroke: #000000; stroke-width: 0.8"/>
      </defs>
      <g>
       <use xlink:href="#mad834e9d47" x="100.8" y="98.340394" style="stroke: #000000; stroke-width: 0.8"/>
      </g>
     </g>
     <g id="text_1">
      <!-- −200 V -->
      <g transform="translate(44.819688 103.6593) scale(0.14 -0.14)">
       <defs>
        <path id="DejaVuSans-2212" d="M 678 2272 
L 4684 2272 
L 4684 1741 
L 678 1741 
L 678 2272 
z
" transform="scale(0.015625)"/>
        <path id="DejaVuSans-32" d="M 1228 531 
L 3431 531 
L 3431 0 
L 469 0 
L 469 531 
Q 828 903 1448 1529 
Q 2069 2156 2228 2338 
Q 2531 2678 2651 2914 
Q 2772 3150 2772 3378 
Q 2772 3750 2511 3984 
Q 2250 4219 1831 4219 
Q 1534 4219 1204 4116 
Q 875 4013 500 3803 
L 500 4441 
Q 881 4594 1212 4672 
Q 1544 4750 1819 4750 
Q 2544 4750 2975 4387 
Q 3406 4025 3406 3419 
Q 3406 3131 3298 2873 
Q 3191 2616 2906 2266 
Q 2828 2175 2409 1742 
Q 1991 1309 1228 531 
z
" transform="scale(0.015625)"/>
        <path id="DejaVuSans-30" d="M 2034 4250 
Q 1547 4250 1301 3770 
Q 1056 3291 1056 2328 
Q 1056 1369 1301 889 
Q 1547 409 2034 409 
Q 2525 409 2770 889 
Q 3016 1369 3016 2328 
Q 3016 3291 2770 3770 
Q 2525 4250 2034 4250 
z
M 2034 4750 
Q 2819 4750 3233 4129 
Q 3647 3509 3647 2328 
Q 3647 1150 3233 529 
Q 2819 -91 2034 -91 
Q 1250 -91 836 529 
Q 422 1150 422 2328 
Q 422 3509 836 4129 
Q 1250 4750 2034 4750 
z
" transform="scale(0.015625)"/>
        <path id="DejaVuSans-20" transform="scale(0.015625)"/>
        <path id="DejaVuSans-56" d="M 1831 0 
L 50 4666 
L 709 4666 
L 2188 738 
L 3669 4666 
L 4325 4666 
L 2547 0 
L 1831 0 
z
" transform="scale(0.015625)"/>
       </defs>
       <use xlink:href="#DejaVuSans-2212"/>
       <use xlink:href="#DejaVuSans-32" x="83.789062"/>
       <use xlink:href="#DejaVuSans-30" x="147.412109"/>
       <use xlink:href="#DejaVuSans-30" x="211.035156"/>
       <use xlink:href="#DejaVuSans-20" x="274.658203"/>
       <use xlink:href="#DejaVuSans-56" x="306.445312"/>
      </g>
     </g>
    </g>
    <g id="ytick_2">
     <g id="line2d_15">
      <path d="M 100.8 45.027377 
L 987.84 45.027377 
" clip-path="url(#p5a88b6e8aa)" style="fill: none; stroke-dasharray: 1.85,0.8; stroke-dashoffset: 0; stroke: #b2b2b2; stroke-width: 0.5"/>
     </g>
     <g id="line2d_16">
      <g>
       <use xlink:href="#mad834e9d47" x="100.8" y="45.027377" style="stroke: #000000; stroke-width: 0.8"/>
      </g>
     </g>
     <g id="text_2">
      <!-- 0 V -->
      <g transform="translate(74.36625 50.346284) scale(0.14 -0.14)">
       <use xlink:href="#DejaVuSans-30"/>
       <use xlink:href="#DejaVuSans-20" x="63.623047"/>
       <use xlink:href="#DejaVuSans-56" x="95.410156"/>
      </g>
     </g>
    </g>
    <g id="text_3">
     <g id="patch_3">
      <path d="M 34.8768 131.080205 
L 34.8768 39.41083 
L 11.247425 39.41083 
L 11.247425 131.080205 
z
" style="fill: #ffff00; opacity: 0.2; stroke: #eeeeee; stroke-width: 0.5; stroke-linejoin: miter"/>
     </g>
     <!-- VPULSE BBI -->
     <g transform="translate(26.925238 126.040205) rotate(-90) scale(0.14 -0.14)">
      <defs>
       <path id="DejaVuSans-50" d="M 1259 4147 
L 1259 2394 
L 2053 2394 
Q 2494 2394 2734 2622 
Q 2975 2850 2975 3272 
Q 2975 3691 2734 3919 
Q 2494 4147 2053 4147 
L 1259 4147 
z
M 628 4666 
L 2053 4666 
Q 2838 4666 3239 4311 
Q 3641 3956 3641 3272 
Q 3641 2581 3239 2228 
Q 2838 1875 2053 1875 
L 1259 1875 
L 1259 0 
L 628 0 
L 628 4666 
z
" transform="scale(0.015625)"/>
       <path id="DejaVuSans-55" d="M 556 4666 
L 1191 4666 
L 1191 1831 
Q 1191 1081 1462 751 
Q 1734 422 2344 422 
Q 2950 422 3222 751 
Q 3494 1081 3494 1831 
L 3494 4666 
L 4128 4666 
L 4128 1753 
Q 4128 841 3676 375 
Q 3225 -91 2344 -91 
Q 1459 -91 1007 375 
Q 556 841 556 1753 
L 556 4666 
z
" transform="scale(0.015625)"/>
       <path id="DejaVuSans-4c" d="M 628 4666 
L 1259 4666 
L 1259 531 
L 3531 531 
L 3531 0 
L 628 0 
L 628 4666 
z
" transform="scale(0.015625)"/>
       <path id="DejaVuSans-53" d="M 3425 4513 
L 3425 3897 
Q 3066 4069 2747 4153 
Q 2428 4238 2131 4238 
Q 1616 4238 1336 4038 
Q 1056 3838 1056 3469 
Q 1056 3159 1242 3001 
Q 1428 2844 1947 2747 
L 2328 2669 
Q 3034 2534 3370 2195 
Q 3706 1856 3706 1288 
Q 3706 609 3251 259 
Q 2797 -91 1919 -91 
Q 1588 -91 1214 -16 
Q 841 59 441 206 
L 441 856 
Q 825 641 1194 531 
Q 1563 422 1919 422 
Q 2459 422 2753 634 
Q 3047 847 3047 1241 
Q 3047 1584 2836 1778 
Q 2625 1972 2144 2069 
L 1759 2144 
Q 1053 2284 737 2584 
Q 422 2884 422 3419 
Q 422 4038 858 4394 
Q 1294 4750 2059 4750 
Q 2388 4750 2728 4690 
Q 3069 4631 3425 4513 
z
" transform="scale(0.015625)"/>
       <path id="DejaVuSans-45" d="M 628 4666 
L 3578 4666 
L 3578 4134 
L 1259 4134 
L 1259 2753 
L 3481 2753 
L 3481 2222 
L 1259 2222 
L 1259 531 
L 3634 531 
L 3634 0 
L 628 0 
L 628 4666 
z
" transform="scale(0.015625)"/>
       <path id="DejaVuSans-42" d="M 1259 2228 
L 1259 519 
L 2272 519 
Q 2781 519 3026 730 
Q 3272 941 3272 1375 
Q 3272 1813 3026 2020 
Q 2781 2228 2272 2228 
L 1259 2228 
z
M 1259 4147 
L 1259 2741 
L 2194 2741 
Q 2656 2741 2882 2914 
Q 3109 3088 3109 3444 
Q 3109 3797 2882 3972 
Q 2656 4147 2194 4147 
L 1259 4147 
z
M 628 4666 
L 2241 4666 
Q 2963 4666 3353 4366 
Q 3744 4066 3744 3513 
Q 3744 3084 3544 2831 
Q 3344 2578 2956 2516 
Q 3422 2416 3680 2098 
Q 3938 1781 3938 1306 
Q 3938 681 3513 340 
Q 3088 0 2303 0 
L 628 0 
L 628 4666 
z
" transform="scale(0.015625)"/>
       <path id="DejaVuSans-49" d="M 628 4666 
L 1259 4666 
L 1259 0 
L 628 0 
L 628 4666 
z
" transform="scale(0.015625)"/>
      </defs>
      <use xlink:href="#DejaVuSans-56"/>
      <use xlink:href="#DejaVuSans-50" x="68.408203"/>
      <use xlink:href="#DejaVuSans-55" x="128.710938"/>
      <use xlink:href="#DejaVuSans-4c" x="201.904297"/>
      <use xlink:href="#DejaVuSans-53" x="257.617188"/>
      <use xlink:href="#DejaVuSans-45" x="321.09375"/>
      <use xlink:href="#DejaVuSans-20" x="384.277344"/>
      <use xlink:href="#DejaVuSans-42" x="416.064453"/>
      <use xlink:href="#DejaVuSans-42" x="484.667969"/>
      <use xlink:href="#DejaVuSans-49" x="553.271484"/>
     </g>
    </g>
   </g>
   <g id="line2d_17">
    <path d="M 141.12 45.027377 
L 363.718656 45.136282 
L 364.202496 46.425538 
L 372.427776 69.006772 
L 379.846656 89.863624 
L 381.459456 94.440546 
L 383.265792 99.673219 
L 386.74944 110.807642 
L 388.329984 115.853719 
L 389.620224 119.585631 
L 390.071808 119.80688 
L 391.136256 120.297359 
L 391.620096 120.526605 
L 392.684544 121.017085 
L 393.265152 121.272988 
L 394.136064 121.656841 
L 394.716672 121.912744 
L 395.555328 122.269941 
L 397.135872 122.936354 
L 397.780992 123.202919 
L 398.877696 123.629423 
L 399.619584 123.922644 
L 400.716288 124.349149 
L 401.619456 124.677024 
L 402.296832 124.943589 
L 403.103232 125.25547 
L 404.457984 125.804594 
L 407.102976 126.790885 
L 407.71584 127.022796 
L 409.6512 127.395987 
L 428.133888 127.289361 
L 428.35968 126.801547 
L 446.648832 75.087922 
L 450.390528 63.292417 
L 454.099968 51.617666 
L 458.712576 49.3412 
L 464.067072 46.984578 
L 472.776192 43.484472 
L 473.647104 43.268927 
L 487.936512 43.108189 
L 494.742528 43.184799 
L 510.096384 43.746186 
L 537.8688 44.46146 
L 563.51232 44.774399 
L 599.122944 44.945888 
L 647.152128 44.953885 
L 947.52 44.953885 
L 947.52 44.953885 
" clip-path="url(#p5a88b6e8aa)" style="fill: none; stroke: #ff0000; stroke-width: 2; stroke-linecap: square"/>
   </g>
   <g id="patch_4">
    <path d="M 100.8 131.611034 
L 100.8 38.88 
" style="fill: none; stroke: #bcbcbc; stroke-width: 0.8; stroke-linejoin: miter; stroke-linecap: square"/>
   </g>
   <g id="patch_5">
    <path d="M 987.84 131.611034 
L 987.84 38.88 
" style="fill: none; stroke: #bcbcbc; stroke-width: 0.8; stroke-linejoin: miter; stroke-linecap: square"/>
   </g>
   <g id="patch_6">
    <path d="M 100.8 131.611034 
L 987.84 131.611034 
" style="fill: none; stroke: #bcbcbc; stroke-width: 0.8; stroke-linejoin: miter; stroke-linecap: square"/>
   </g>
   <g id="patch_7">
    <path d="M 100.8 38.88 
L 987.84 38.88 
" style="fill: none; stroke: #bcbcbc; stroke-width: 0.8; stroke-linejoin: miter; stroke-linecap: square"/>
   </g>
  </g>
  <g id="axes_2">
   <g id="patch_8">
    <path d="M 100.8 242.888276 
L 987.84 242.888276 
L 987.84 150.157241 
L 100.8 150.157241 
z
" style="fill: #eeeeee"/>
   </g>
   <g id="matplotlib.axis_3">
    <g id="xtick_7">
     <g id="line2d_18">
      <path d="M 141.12 242.888276 
L 141.12 150.157241 
" clip-path="url(#pf6955a255b)" style="fill: none; stroke-dasharray: 1.85,0.8; stroke-dashoffset: 0; stroke: #b2b2b2; stroke-width: 0.5"/>
     </g>
     <g id="line2d_19">
      <g>
       <use xlink:href="#m3aadccf966" x="141.12" y="242.888276" style="stroke: #000000; stroke-width: 0.8"/>
      </g>
     </g>
    </g>
    <g id="xtick_8">
     <g id="line2d_20">
      <path d="M 302.4 242.888276 
L 302.4 150.157241 
" clip-path="url(#pf6955a255b)" style="fill: none; stroke-dasharray: 1.85,0.8; stroke-dashoffset: 0; stroke: #b2b2b2; stroke-width: 0.5"/>
     </g>
     <g id="line2d_21">
      <g>
       <use xlink:href="#m3aadccf966" x="302.4" y="242.888276" style="stroke: #000000; stroke-width: 0.8"/>
      </g>
     </g>
    </g>
    <g id="xtick_9">
     <g id="line2d_22">
      <path d="M 463.68 242.888276 
L 463.68 150.157241 
" clip-path="url(#pf6955a255b)" style="fill: none; stroke-dasharray: 1.85,0.8; stroke-dashoffset: 0; stroke: #b2b2b2; stroke-width: 0.5"/>
     </g>
     <g id="line2d_23">
      <g>
       <use xlink:href="#m3aadccf966" x="463.68" y="242.888276" style="stroke: #000000; stroke-width: 0.8"/>
      </g>
     </g>
    </g>
    <g id="xtick_10">
     <g id="line2d_24">
      <path d="M 624.96 242.888276 
L 624.96 150.157241 
" clip-path="url(#pf6955a255b)" style="fill: none; stroke-dasharray: 1.85,0.8; stroke-dashoffset: 0; stroke: #b2b2b2; stroke-width: 0.5"/>
     </g>
     <g id="line2d_25">
      <g>
       <use xlink:href="#m3aadccf966" x="624.96" y="242.888276" style="stroke: #000000; stroke-width: 0.8"/>
      </g>
     </g>
    </g>
    <g id="xtick_11">
     <g id="line2d_26">
      <path d="M 786.24 242.888276 
L 786.24 150.157241 
" clip-path="url(#pf6955a255b)" style="fill: none; stroke-dasharray: 1.85,0.8; stroke-dashoffset: 0; stroke: #b2b2b2; stroke-width: 0.5"/>
     </g>
     <g id="line2d_27">
      <g>
       <use xlink:href="#m3aadccf966" x="786.24" y="242.888276" style="stroke: #000000; stroke-width: 0.8"/>
      </g>
     </g>
    </g>
    <g id="xtick_12">
     <g id="line2d_28">
      <path d="M 947.52 242.888276 
L 947.52 150.157241 
" clip-path="url(#pf6955a255b)" style="fill: none; stroke-dasharray: 1.85,0.8; stroke-dashoffset: 0; stroke: #b2b2b2; stroke-width: 0.5"/>
     </g>
     <g id="line2d_29">
      <g>
       <use xlink:href="#m3aadccf966" x="947.52" y="242.888276" style="stroke: #000000; stroke-width: 0.8"/>
      </g>
     </g>
    </g>
   </g>
   <g id="matplotlib.axis_4">
    <g id="ytick_3">
     <g id="line2d_30">
      <path d="M 100.8 219.385064 
L 987.84 219.385064 
" clip-path="url(#pf6955a255b)" style="fill: none; stroke-dasharray: 1.85,0.8; stroke-dashoffset: 0; stroke: #b2b2b2; stroke-width: 0.5"/>
     </g>
     <g id="line2d_31">
      <g>
       <use xlink:href="#mad834e9d47" x="100.8" y="219.385064" style="stroke: #000000; stroke-width: 0.8"/>
      </g>
     </g>
     <g id="text_4">
      <!-- 0 V -->
      <g transform="translate(74.36625 224.70397) scale(0.14 -0.14)">
       <use xlink:href="#DejaVuSans-30"/>
       <use xlink:href="#DejaVuSans-20" x="63.623047"/>
       <use xlink:href="#DejaVuSans-56" x="95.410156"/>
      </g>
     </g>
    </g>
    <g id="ytick_4">
     <g id="line2d_32">
      <path d="M 100.8 185.791939 
L 987.84 185.791939 
" clip-path="url(#pf6955a255b)" style="fill: none; stroke-dasharray: 1.85,0.8; stroke-dashoffset: 0; stroke: #b2b2b2; stroke-width: 0.5"/>
     </g>
     <g id="line2d_33">
      <g>
       <use xlink:href="#mad834e9d47" x="100.8" y="185.791939" style="stroke: #000000; stroke-width: 0.8"/>
      </g>
     </g>
     <g id="text_5">
      <!-- 1 V -->
      <g transform="translate(74.36625 191.110845) scale(0.14 -0.14)">
       <defs>
        <path id="DejaVuSans-31" d="M 794 531 
L 1825 531 
L 1825 4091 
L 703 3866 
L 703 4441 
L 1819 4666 
L 2450 4666 
L 2450 531 
L 3481 531 
L 3481 0 
L 794 0 
L 794 531 
z
" transform="scale(0.015625)"/>
       </defs>
       <use xlink:href="#DejaVuSans-31"/>
       <use xlink:href="#DejaVuSans-20" x="63.623047"/>
       <use xlink:href="#DejaVuSans-56" x="95.410156"/>
      </g>
     </g>
    </g>
    <g id="ytick_5">
     <g id="line2d_34">
      <path d="M 100.8 152.198813 
L 987.84 152.198813 
" clip-path="url(#pf6955a255b)" style="fill: none; stroke-dasharray: 1.85,0.8; stroke-dashoffset: 0; stroke: #b2b2b2; stroke-width: 0.5"/>
     </g>
     <g id="line2d_35">
      <g>
       <use xlink:href="#mad834e9d47" x="100.8" y="152.198813" style="stroke: #000000; stroke-width: 0.8"/>
      </g>
     </g>
     <g id="text_6">
      <!-- 2 V -->
      <g transform="translate(74.36625 157.517719) scale(0.14 -0.14)">
       <use xlink:href="#DejaVuSans-32"/>
       <use xlink:href="#DejaVuSans-20" x="63.623047"/>
       <use xlink:href="#DejaVuSans-56" x="95.410156"/>
      </g>
     </g>
    </g>
    <g id="text_7">
     <g id="patch_9">
      <path d="M 34.8768 224.531509 
L 34.8768 168.514009 
L 11.247425 168.514009 
L 11.247425 224.531509 
z
" style="fill: #ffff00; opacity: 0.2; stroke: #eeeeee; stroke-width: 0.5; stroke-linejoin: miter"/>
     </g>
     <!-- DFF IN -->
     <g transform="translate(26.925238 219.491509) rotate(-90) scale(0.14 -0.14)">
      <defs>
       <path id="DejaVuSans-44" d="M 1259 4147 
L 1259 519 
L 2022 519 
Q 2988 519 3436 956 
Q 3884 1394 3884 2338 
Q 3884 3275 3436 3711 
Q 2988 4147 2022 4147 
L 1259 4147 
z
M 628 4666 
L 1925 4666 
Q 3281 4666 3915 4102 
Q 4550 3538 4550 2338 
Q 4550 1131 3912 565 
Q 3275 0 1925 0 
L 628 0 
L 628 4666 
z
" transform="scale(0.015625)"/>
       <path id="DejaVuSans-46" d="M 628 4666 
L 3309 4666 
L 3309 4134 
L 1259 4134 
L 1259 2759 
L 3109 2759 
L 3109 2228 
L 1259 2228 
L 1259 0 
L 628 0 
L 628 4666 
z
" transform="scale(0.015625)"/>
       <path id="DejaVuSans-4e" d="M 628 4666 
L 1478 4666 
L 3547 763 
L 3547 4666 
L 4159 4666 
L 4159 0 
L 3309 0 
L 1241 3903 
L 1241 0 
L 628 0 
L 628 4666 
z
" transform="scale(0.015625)"/>
      </defs>
      <use xlink:href="#DejaVuSans-44"/>
      <use xlink:href="#DejaVuSans-46" x="77.001953"/>
      <use xlink:href="#DejaVuSans-46" x="134.521484"/>
      <use xlink:href="#DejaVuSans-20" x="192.041016"/>
      <use xlink:href="#DejaVuSans-49" x="223.828125"/>
      <use xlink:href="#DejaVuSans-4e" x="253.320312"/>
     </g>
    </g>
   </g>
   <g id="line2d_36">
    <path d="M 141.12 219.336005 
L 221.953536 219.289938 
L 224.437248 200.572242 
L 225.404928 194.878207 
L 228.243456 182.358721 
L 229.598208 181.102338 
L 231.178752 180.238995 
L 236.565504 179.788847 
L 243.661824 179.67799 
L 245.1456 179.634319 
L 248.403456 179.523461 
L 250.113024 179.456275 
L 252.177408 179.345418 
L 254.241792 179.019565 
L 254.757888 178.488793 
L 255.499776 178.152862 
L 256.370688 178.173018 
L 257.531904 178.40481 
L 259.98336 178.804569 
L 262.370304 178.9423 
L 263.886336 178.99269 
L 264.144384 184.17275 
L 264.434688 187.697341 
L 265.176576 192.392652 
L 267.144192 209.530857 
L 268.402176 215.96562 
L 269.079552 217.277767 
L 270.46656 218.977109 
L 273.724416 219.386878 
L 282.594816 219.340442 
L 297.110016 219.329219 
L 305.883648 219.335208 
L 347.751936 219.291369 
L 350.235648 200.610874 
L 351.622656 192.071502 
L 352.687104 186.698281 
L 354.783744 180.202043 
L 355.46112 179.718302 
L 356.332032 179.389089 
L 357.944832 179.164015 
L 363.815424 179.264794 
L 364.396032 180.50774 
L 365.363712 182.456141 
L 366.58944 184.404543 
L 369.3312 188.207284 
L 373.137408 193.53549 
L 373.588992 194.698484 
L 375.234048 200.728786 
L 375.62112 202.399372 
L 375.7824 203.114906 
L 376.072704 204.241955 
L 376.330752 205.225562 
L 377.3952 210.161064 
L 378.330624 213.729997 
L 381.201408 223.329905 
L 381.782016 224.484165 
L 382.298112 225.801351 
L 382.588416 226.161469 
L 382.781952 226.383184 
L 383.04 226.923025 
L 383.265792 227.434313 
L 383.910912 228.808943 
L 384.104448 229.030994 
L 384.49152 229.940696 
L 387.749376 235.84536 
L 387.846144 236.002911 
L 389.587968 238.673229 
L 389.620224 238.647362 
L 390.039552 238.300681 
L 390.394368 237.839112 
L 390.845952 237.04665 
L 391.168512 236.385537 
L 391.26528 236.34892 
L 391.458816 236.136948 
L 391.942656 235.649176 
L 392.39424 235.05928 
L 392.845824 234.325271 
L 393.071616 234.147563 
L 393.20064 234.090119 
L 393.36192 233.953059 
L 394.684416 232.797455 
L 395.361792 231.818552 
L 395.587584 231.750022 
L 395.78112 231.638828 
L 396.135936 231.396622 
L 396.91008 230.844687 
L 397.458432 230.282338 
L 397.974528 229.466361 
L 398.297088 229.282942 
L 398.426112 229.310825 
L 400.651776 227.516616 
L 400.877568 227.206887 
L 400.974336 227.118537 
L 401.071104 227.019438 
L 401.361408 226.797387 
L 402.038784 226.506807 
L 403.68384 225.027701 
L 404.038656 224.556726 
L 404.425728 224.448892 
L 404.845056 224.319894 
L 405.651456 223.748475 
L 407.102976 222.554072 
L 407.457792 222.19654 
L 408.135168 221.798361 
L 409.231872 220.85043 
L 411.038208 218.444557 
L 416.328192 211.62438 
L 416.812032 211.111413 
L 417.908736 209.946404 
L 418.19904 209.301751 
L 420.876288 202.004317 
L 421.327872 201.315658 
L 422.23104 199.850662 
L 422.779392 199.129753 
L 423.230976 198.642989 
L 426.42432 194.6575 
L 427.617792 193.58588 
L 428.230656 192.857245 
L 428.714496 191.313305 
L 430.004736 186.763116 
L 430.875648 184.572508 
L 431.811072 182.865977 
L 432.649728 181.908573 
L 434.456064 180.259151 
L 435.165696 179.362214 
L 436.230144 177.904273 
L 437.0688 176.684842 
L 443.003904 168.222734 
L 448.422912 161.275676 
L 449.713152 159.589301 
L 451.454976 157.415826 
L 454.0032 154.389085 
L 454.16448 154.426037 
L 455.712768 155.252428 
L 456.74496 160.486237 
L 457.099776 160.956541 
L 457.39008 160.990134 
L 457.71264 160.788575 
L 458.164224 160.274601 
L 459.615744 158.484087 
L 460.164096 158.117922 
L 460.905984 157.855896 
L 461.454336 157.792069 
L 462.841344 157.899567 
L 466.647552 158.803222 
L 467.776512 159.041733 
L 469.00224 159.280244 
L 471.42144 159.894998 
L 474.292224 160.906151 
L 476.130816 161.739261 
L 476.614656 161.944179 
L 477.356544 162.28011 
L 478.324224 162.696665 
L 479.775744 163.328216 
L 480.872448 163.785082 
L 482.06592 164.28562 
L 483.420672 164.82311 
L 486.484992 165.982073 
L 489.871872 167.151113 
L 490.45248 167.332516 
L 496.065024 168.981939 
L 496.484352 168.404137 
L 496.871424 168.216015 
L 497.323008 168.232812 
L 498.290688 168.746787 
L 499.742208 169.670598 
L 500.742144 170.164417 
L 501.677568 170.5373 
L 502.161408 170.698547 
L 503.387136 171.094946 
L 504.096768 171.276349 
L 504.935424 171.511501 
L 505.838592 171.71306 
L 507.354624 172.079225 
L 507.935232 172.183363 
L 509.16096 172.452109 
L 510.225408 172.670464 
L 511.160832 172.851867 
L 512.54784 173.107174 
L 513.451008 173.278499 
L 515.2896 173.580838 
L 516.128256 173.728647 
L 517.966848 174.027626 
L 518.644224 174.128405 
L 519.353856 174.235903 
L 521.160192 174.501289 
L 524.9664 175.008545 
L 526.159872 175.149636 
L 527.127552 175.260494 
L 528.385536 175.411663 
L 536.41728 176.328755 
L 536.836608 176.926713 
L 537.22368 177.208895 
L 537.578496 177.346627 
L 538.481664 177.423891 
L 539.255808 177.239129 
L 539.96544 176.993899 
L 543.35232 176.752029 
L 545.416704 176.862886 
L 546.190848 176.916635 
L 548.02944 177.027492 
L 550.545408 177.178661 
L 551.287296 177.212254 
L 553.706496 177.356705 
L 554.448384 177.386939 
L 556.73856 177.517952 
L 557.512704 177.548186 
L 559.351296 177.628809 
L 561.931776 177.739666 
L 563.83488 177.827009 
L 564.609024 177.853883 
L 566.221824 177.910991 
L 569.060352 178.021849 
L 570.511872 178.06216 
L 571.25376 178.095754 
L 572.737536 178.139425 
L 576.317952 178.250282 
L 576.672768 178.230126 
L 577.350144 177.544826 
L 577.898496 177.326471 
L 578.640384 177.356705 
L 579.446784 177.548186 
L 581.156352 177.9681 
L 582.833664 178.206611 
L 585.4464 178.367858 
L 588.478464 178.475356 
L 589.026816 178.478715 
L 590.542848 178.525746 
L 597.897216 178.636603 
L 598.961664 178.636603 
L 617.025024 178.740742 
L 617.637888 179.38573 
L 618.02496 179.567132 
L 618.766848 179.688068 
L 620.637696 179.57721 
L 622.21824 179.301747 
L 623.605248 179.123703 
L 627.411456 178.838162 
L 657.280512 178.74746 
L 658.119168 177.954662 
L 658.603008 177.823649 
L 659.764224 177.806853 
L 661.08672 178.105832 
L 663.441408 178.485434 
L 665.796096 178.619806 
L 697.632768 178.710508 
L 698.568192 179.536899 
L 699.503616 179.714942 
L 701.632512 179.604085 
L 703.954944 179.231201 
L 709.373952 178.777694 
L 737.952768 178.710508 
L 738.50112 178.102472 
L 739.049472 177.830368 
L 740.984832 177.941225 
L 744.210432 178.50223 
L 746.371584 178.616447 
L 778.272768 178.710508 
L 779.240448 179.570492 
L 780.659712 179.755254 
L 782.36928 179.644397 
L 784.078848 179.355496 
L 786.369024 178.989331 
L 789.755904 178.74746 
L 818.625024 178.666837 
L 819.108864 178.142784 
L 819.721728 177.827009 
L 820.9152 177.806853 
L 824.882688 178.522386 
L 826.592256 178.589573 
L 858.880512 178.697071 
L 859.041792 178.875114 
L 859.46112 179.295028 
L 860.073984 179.610804 
L 861.299712 179.755254 
L 863.00928 179.644397 
L 864.718848 179.355496 
L 867.009024 178.989331 
L 870.395904 178.74746 
L 899.265024 178.666837 
L 899.748864 178.139425 
L 900.458496 177.816931 
L 901.5552 177.806853 
L 905.522688 178.522386 
L 907.232256 178.589573 
L 939.520512 178.697071 
L 939.681792 178.878473 
L 940.165632 179.358855 
L 940.649472 179.57721 
L 941.55264 179.751895 
L 943.488 179.641037 
L 946.487808 179.127063 
L 947.52 178.969175 
L 947.52 178.969175 
" clip-path="url(#pf6955a255b)" style="fill: none; stroke: #008000; stroke-width: 2; stroke-linecap: square"/>
   </g>
   <g id="patch_10">
    <path d="M 100.8 242.888276 
L 100.8 150.157241 
" style="fill: none; stroke: #bcbcbc; stroke-width: 0.8; stroke-linejoin: miter; stroke-linecap: square"/>
   </g>
   <g id="patch_11">
    <path d="M 987.84 242.888276 
L 987.84 150.157241 
" style="fill: none; stroke: #bcbcbc; stroke-width: 0.8; stroke-linejoin: miter; stroke-linecap: square"/>
   </g>
   <g id="patch_12">
    <path d="M 100.8 242.888276 
L 987.84 242.888276 
" style="fill: none; stroke: #bcbcbc; stroke-width: 0.8; stroke-linejoin: miter; stroke-linecap: square"/>
   </g>
   <g id="patch_13">
    <path d="M 100.8 150.157241 
L 987.84 150.157241 
" style="fill: none; stroke: #bcbcbc; stroke-width: 0.8; stroke-linejoin: miter; stroke-linecap: square"/>
   </g>
  </g>
  <g id="axes_3">
   <g id="patch_14">
    <path d="M 100.8 354.165517 
L 987.84 354.165517 
L 987.84 261.434483 
L 100.8 261.434483 
z
" style="fill: #eeeeee"/>
   </g>
   <g id="matplotlib.axis_5">
    <g id="xtick_13">
     <g id="line2d_37">
      <path d="M 141.12 354.165517 
L 141.12 261.434483 
" clip-path="url(#p8713ae3804)" style="fill: none; stroke-dasharray: 1.85,0.8; stroke-dashoffset: 0; stroke: #b2b2b2; stroke-width: 0.5"/>
     </g>
     <g id="line2d_38">
      <g>
       <use xlink:href="#m3aadccf966" x="141.12" y="354.165517" style="stroke: #000000; stroke-width: 0.8"/>
      </g>
     </g>
    </g>
    <g id="xtick_14">
     <g id="line2d_39">
      <path d="M 302.4 354.165517 
L 302.4 261.434483 
" clip-path="url(#p8713ae3804)" style="fill: none; stroke-dasharray: 1.85,0.8; stroke-dashoffset: 0; stroke: #b2b2b2; stroke-width: 0.5"/>
     </g>
     <g id="line2d_40">
      <g>
       <use xlink:href="#m3aadccf966" x="302.4" y="354.165517" style="stroke: #000000; stroke-width: 0.8"/>
      </g>
     </g>
    </g>
    <g id="xtick_15">
     <g id="line2d_41">
      <path d="M 463.68 354.165517 
L 463.68 261.434483 
" clip-path="url(#p8713ae3804)" style="fill: none; stroke-dasharray: 1.85,0.8; stroke-dashoffset: 0; stroke: #b2b2b2; stroke-width: 0.5"/>
     </g>
     <g id="line2d_42">
      <g>
       <use xlink:href="#m3aadccf966" x="463.68" y="354.165517" style="stroke: #000000; stroke-width: 0.8"/>
      </g>
     </g>
    </g>
    <g id="xtick_16">
     <g id="line2d_43">
      <path d="M 624.96 354.165517 
L 624.96 261.434483 
" clip-path="url(#p8713ae3804)" style="fill: none; stroke-dasharray: 1.85,0.8; stroke-dashoffset: 0; stroke: #b2b2b2; stroke-width: 0.5"/>
     </g>
     <g id="line2d_44">
      <g>
       <use xlink:href="#m3aadccf966" x="624.96" y="354.165517" style="stroke: #000000; stroke-width: 0.8"/>
      </g>
     </g>
    </g>
    <g id="xtick_17">
     <g id="line2d_45">
      <path d="M 786.24 354.165517 
L 786.24 261.434483 
" clip-path="url(#p8713ae3804)" style="fill: none; stroke-dasharray: 1.85,0.8; stroke-dashoffset: 0; stroke: #b2b2b2; stroke-width: 0.5"/>
     </g>
     <g id="line2d_46">
      <g>
       <use xlink:href="#m3aadccf966" x="786.24" y="354.165517" style="stroke: #000000; stroke-width: 0.8"/>
      </g>
     </g>
    </g>
    <g id="xtick_18">
     <g id="line2d_47">
      <path d="M 947.52 354.165517 
L 947.52 261.434483 
" clip-path="url(#p8713ae3804)" style="fill: none; stroke-dasharray: 1.85,0.8; stroke-dashoffset: 0; stroke: #b2b2b2; stroke-width: 0.5"/>
     </g>
     <g id="line2d_48">
      <g>
       <use xlink:href="#m3aadccf966" x="947.52" y="354.165517" style="stroke: #000000; stroke-width: 0.8"/>
      </g>
     </g>
    </g>
   </g>
   <g id="matplotlib.axis_6">
    <g id="ytick_6">
     <g id="line2d_49">
      <path d="M 100.8 344.750539 
L 987.84 344.750539 
" clip-path="url(#p8713ae3804)" style="fill: none; stroke-dasharray: 1.85,0.8; stroke-dashoffset: 0; stroke: #b2b2b2; stroke-width: 0.5"/>
     </g>
     <g id="line2d_50">
      <g>
       <use xlink:href="#mad834e9d47" x="100.8" y="344.750539" style="stroke: #000000; stroke-width: 0.8"/>
      </g>
     </g>
     <g id="text_8">
      <!-- 0 V -->
      <g transform="translate(74.36625 350.069446) scale(0.14 -0.14)">
       <use xlink:href="#DejaVuSans-30"/>
       <use xlink:href="#DejaVuSans-20" x="63.623047"/>
       <use xlink:href="#DejaVuSans-56" x="95.410156"/>
      </g>
     </g>
    </g>
    <g id="ytick_7">
     <g id="line2d_51">
      <path d="M 100.8 303.706014 
L 987.84 303.706014 
" clip-path="url(#p8713ae3804)" style="fill: none; stroke-dasharray: 1.85,0.8; stroke-dashoffset: 0; stroke: #b2b2b2; stroke-width: 0.5"/>
     </g>
     <g id="line2d_52">
      <g>
       <use xlink:href="#mad834e9d47" x="100.8" y="303.706014" style="stroke: #000000; stroke-width: 0.8"/>
      </g>
     </g>
     <g id="text_9">
      <!-- 1 V -->
      <g transform="translate(74.36625 309.02492) scale(0.14 -0.14)">
       <use xlink:href="#DejaVuSans-31"/>
       <use xlink:href="#DejaVuSans-20" x="63.623047"/>
       <use xlink:href="#DejaVuSans-56" x="95.410156"/>
      </g>
     </g>
    </g>
    <g id="ytick_8">
     <g id="line2d_53">
      <path d="M 100.8 262.661488 
L 987.84 262.661488 
" clip-path="url(#p8713ae3804)" style="fill: none; stroke-dasharray: 1.85,0.8; stroke-dashoffset: 0; stroke: #b2b2b2; stroke-width: 0.5"/>
     </g>
     <g id="line2d_54">
      <g>
       <use xlink:href="#mad834e9d47" x="100.8" y="262.661488" style="stroke: #000000; stroke-width: 0.8"/>
      </g>
     </g>
     <g id="text_10">
      <!-- 2 V -->
      <g transform="translate(74.36625 267.980395) scale(0.14 -0.14)">
       <use xlink:href="#DejaVuSans-32"/>
       <use xlink:href="#DejaVuSans-20" x="63.623047"/>
       <use xlink:href="#DejaVuSans-56" x="95.410156"/>
      </g>
     </g>
    </g>
    <g id="text_11">
     <g id="patch_15">
      <path d="M 34.8768 342.395313 
L 34.8768 273.204688 
L 11.247425 273.204688 
L 11.247425 342.395313 
z
" style="fill: #ffff00; opacity: 0.2; stroke: #eeeeee; stroke-width: 0.5; stroke-linejoin: miter"/>
     </g>
     <!-- CLK BUF -->
     <g transform="translate(26.925238 337.355313) rotate(-90) scale(0.14 -0.14)">
      <defs>
       <path id="DejaVuSans-43" d="M 4122 4306 
L 4122 3641 
Q 3803 3938 3442 4084 
Q 3081 4231 2675 4231 
Q 1875 4231 1450 3742 
Q 1025 3253 1025 2328 
Q 1025 1406 1450 917 
Q 1875 428 2675 428 
Q 3081 428 3442 575 
Q 3803 722 4122 1019 
L 4122 359 
Q 3791 134 3420 21 
Q 3050 -91 2638 -91 
Q 1578 -91 968 557 
Q 359 1206 359 2328 
Q 359 3453 968 4101 
Q 1578 4750 2638 4750 
Q 3056 4750 3426 4639 
Q 3797 4528 4122 4306 
z
" transform="scale(0.015625)"/>
       <path id="DejaVuSans-4b" d="M 628 4666 
L 1259 4666 
L 1259 2694 
L 3353 4666 
L 4166 4666 
L 1850 2491 
L 4331 0 
L 3500 0 
L 1259 2247 
L 1259 0 
L 628 0 
L 628 4666 
z
" transform="scale(0.015625)"/>
      </defs>
      <use xlink:href="#DejaVuSans-43"/>
      <use xlink:href="#DejaVuSans-4c" x="69.824219"/>
      <use xlink:href="#DejaVuSans-4b" x="125.537109"/>
      <use xlink:href="#DejaVuSans-20" x="191.113281"/>
      <use xlink:href="#DejaVuSans-42" x="222.900391"/>
      <use xlink:href="#DejaVuSans-55" x="291.503906"/>
      <use xlink:href="#DejaVuSans-46" x="364.697266"/>
     </g>
    </g>
   </g>
   <g id="line2d_55">
    <path d="M 141.12 344.749454 
L 173.376 344.749454 
L 173.601792 295.497109 
L 213.696 295.497109 
L 213.760512 334.784518 
L 213.825024 344.731788 
L 213.889536 344.672723 
L 213.954048 344.836692 
L 214.01856 344.754987 
L 215.437824 344.745148 
L 223.824384 344.749367 
L 254.016 344.749426 
L 254.17728 295.345244 
L 254.241792 295.607929 
L 254.403072 295.4889 
L 254.854656 295.497109 
L 294.336 295.497109 
L 294.400512 334.750041 
L 294.465024 345.056818 
L 294.529536 344.343205 
L 294.626304 344.815041 
L 294.65856 344.785834 
L 294.884352 344.72781 
L 295.206912 344.765475 
L 295.497216 344.749134 
L 321.91488 344.749453 
L 334.656 344.749456 
L 334.81728 295.423229 
L 334.881792 295.513527 
L 335.204352 295.501213 
L 336.10752 295.497109 
L 363.783168 295.603824 
L 365.428224 297.873587 
L 367.105536 300.635883 
L 374.00832 311.840628 
L 374.976 313.278828 
L 375.008256 311.894807 
L 375.169536 346.026121 
L 375.266304 346.02214 
L 379.685376 345.897775 
L 380.427264 345.86223 
L 380.6208 345.873682 
L 381.685248 345.906476 
L 383.717376 346.625946 
L 386.459136 348.159164 
L 386.620416 348.304831 
L 387.362304 348.740478 
L 389.555712 349.930358 
L 390.007296 349.631965 
L 390.039552 349.722673 
L 390.071808 349.663979 
L 390.200832 349.569577 
L 390.329856 349.549876 
L 397.71648 347.129316 
L 402.587136 345.841462 
L 408.651264 344.734355 
L 410.29632 344.410038 
L 412.23168 344.243804 
L 415.296 344.218069 
L 415.328256 343.155221 
L 415.489536 317.720257 
L 415.747584 317.539661 
L 418.747392 315.761201 
L 422.779392 313.579685 
L 426.295296 311.870591 
L 428.262912 310.88388 
L 429.64992 308.401097 
L 431.74656 304.049556 
L 435.907584 295.456064 
L 436.58496 294.130326 
L 438.35904 290.764675 
L 443.810304 281.271076 
L 444.81024 279.686757 
L 446.58432 276.965505 
L 454.035456 265.768559 
L 455.486976 265.68647 
L 455.616 265.72341 
L 455.77728 344.822753 
L 455.874048 344.739523 
L 455.906304 344.756299 
L 457.132032 344.987719 
L 459.16416 345.103247 
L 462.196224 345.12448 
L 475.324416 345.208309 
L 478.162944 345.217133 
L 490.742784 345.09024 
L 495.936 345.068425 
L 496.065024 283.216587 
L 496.161792 283.442332 
L 496.226304 283.384869 
L 496.290816 283.421809 
L 497.032704 283.684494 
L 497.290752 283.758374 
L 498.161664 284.086731 
L 498.806784 284.27964 
L 501.290496 285.116948 
L 501.613056 285.223664 
L 503.03232 285.650527 
L 503.35488 285.757243 
L 504.32256 286.019928 
L 504.612864 286.126644 
L 505.580544 286.389329 
L 505.967616 286.496044 
L 506.935296 286.758729 
L 507.322368 286.865445 
L 508.19328 287.087085 
L 508.580352 287.193801 
L 509.354496 287.374397 
L 509.741568 287.481113 
L 510.515712 287.661709 
L 510.902784 287.768425 
L 511.547904 287.907976 
L 511.967232 288.014692 
L 512.612352 288.154243 
L 513.03168 288.260959 
L 513.6768 288.40051 
L 514.192896 288.507226 
L 514.838016 288.646777 
L 515.354112 288.753493 
L 515.999232 288.893045 
L 516.515328 288.99976 
L 517.160448 289.139312 
L 517.773312 289.246027 
L 518.418432 289.385579 
L 519.031296 289.492295 
L 519.579648 289.590801 
L 520.095744 289.697517 
L 520.644096 289.796024 
L 521.25696 289.898635 
L 521.611776 289.960202 
L 522.22464 290.066918 
L 522.772992 290.165425 
L 523.385856 290.268036 
L 523.740672 290.329603 
L 524.450304 290.432214 
L 524.80512 290.493781 
L 525.514752 290.596392 
L 525.869568 290.657959 
L 526.5792 290.76057 
L 526.934016 290.822137 
L 527.643648 290.924749 
L 527.998464 290.986315 
L 528.804864 291.088927 
L 529.15968 291.150493 
L 530.062848 291.253105 
L 530.417664 291.314672 
L 531.320832 291.417283 
L 531.675648 291.47885 
L 532.578816 291.581461 
L 532.836864 291.601983 
L 533.643264 291.704595 
L 533.99808 291.762057 
L 536.256 292.012428 
L 536.288256 297.643737 
L 536.352768 345.37967 
L 536.41728 344.810296 
L 536.449536 344.80684 
L 536.481792 344.918046 
L 536.546304 344.846756 
L 537.0624 344.843017 
L 576.576 344.776195 
L 576.705024 294.380698 
L 576.801792 294.557189 
L 577.70496 294.553085 
L 580.962816 294.6598 
L 581.220864 294.676218 
L 585.897984 294.782934 
L 586.156032 294.799352 
L 591.800832 294.906068 
L 592.05888 294.922485 
L 599.058432 295.029201 
L 599.31648 295.045619 
L 616.896 295.086663 
L 617.025024 345.064025 
L 617.186304 344.825322 
L 617.444352 344.733761 
L 617.799168 344.778441 
L 618.121728 344.760993 
L 657.216 344.761208 
L 657.37728 294.873232 
L 657.441792 295.337035 
L 657.53856 294.914276 
L 657.603072 295.070246 
L 658.086912 295.086663 
L 697.536 295.086663 
L 697.665024 345.064107 
L 697.826304 344.825244 
L 698.084352 344.733801 
L 698.439168 344.778454 
L 698.761728 344.760994 
L 737.856 344.761206 
L 738.01728 294.873232 
L 738.081792 295.337035 
L 738.17856 294.914276 
L 738.243072 295.070246 
L 738.726912 295.086663 
L 778.176 295.086663 
L 778.466304 344.852991 
L 778.627584 344.758694 
L 780.079104 344.757446 
L 788.917248 344.76635 
L 818.496 344.761247 
L 818.65728 295.004574 
L 818.721792 295.103081 
L 819.721728 295.086663 
L 858.816 295.086663 
L 859.106304 344.852991 
L 859.267584 344.758698 
L 860.719104 344.757449 
L 869.589504 344.766243 
L 899.136 344.761246 
L 899.29728 295.004574 
L 899.361792 295.103081 
L 900.361728 295.086663 
L 939.456 295.086663 
L 939.488256 302.486991 
L 939.61728 344.712388 
L 939.649536 344.831734 
L 939.714048 344.717552 
L 939.810816 344.734512 
L 940.004352 344.785769 
L 940.230144 344.759906 
L 945.9072 344.76121 
L 947.52 344.761199 
L 947.52 344.761199 
" clip-path="url(#p8713ae3804)" style="fill: none; stroke: #0000ff; stroke-width: 2; stroke-linecap: square"/>
   </g>
   <g id="patch_16">
    <path d="M 100.8 354.165517 
L 100.8 261.434483 
" style="fill: none; stroke: #bcbcbc; stroke-width: 0.8; stroke-linejoin: miter; stroke-linecap: square"/>
   </g>
   <g id="patch_17">
    <path d="M 987.84 354.165517 
L 987.84 261.434483 
" style="fill: none; stroke: #bcbcbc; stroke-width: 0.8; stroke-linejoin: miter; stroke-linecap: square"/>
   </g>
   <g id="patch_18">
    <path d="M 100.8 354.165517 
L 987.84 354.165517 
" style="fill: none; stroke: #bcbcbc; stroke-width: 0.8; stroke-linejoin: miter; stroke-linecap: square"/>
   </g>
   <g id="patch_19">
    <path d="M 100.8 261.434483 
L 987.84 261.434483 
" style="fill: none; stroke: #bcbcbc; stroke-width: 0.8; stroke-linejoin: miter; stroke-linecap: square"/>
   </g>
  </g>
  <g id="axes_4">
   <g id="patch_20">
    <path d="M 100.8 465.442759 
L 987.84 465.442759 
L 987.84 372.711724 
L 100.8 372.711724 
z
" style="fill: #eeeeee"/>
   </g>
   <g id="matplotlib.axis_7">
    <g id="xtick_19">
     <g id="line2d_56">
      <path d="M 141.12 465.442759 
L 141.12 372.711724 
" clip-path="url(#p33a1683d1c)" style="fill: none; stroke-dasharray: 1.85,0.8; stroke-dashoffset: 0; stroke: #b2b2b2; stroke-width: 0.5"/>
     </g>
     <g id="line2d_57">
      <g>
       <use xlink:href="#m3aadccf966" x="141.12" y="465.442759" style="stroke: #000000; stroke-width: 0.8"/>
      </g>
     </g>
    </g>
    <g id="xtick_20">
     <g id="line2d_58">
      <path d="M 302.4 465.442759 
L 302.4 372.711724 
" clip-path="url(#p33a1683d1c)" style="fill: none; stroke-dasharray: 1.85,0.8; stroke-dashoffset: 0; stroke: #b2b2b2; stroke-width: 0.5"/>
     </g>
     <g id="line2d_59">
      <g>
       <use xlink:href="#m3aadccf966" x="302.4" y="465.442759" style="stroke: #000000; stroke-width: 0.8"/>
      </g>
     </g>
    </g>
    <g id="xtick_21">
     <g id="line2d_60">
      <path d="M 463.68 465.442759 
L 463.68 372.711724 
" clip-path="url(#p33a1683d1c)" style="fill: none; stroke-dasharray: 1.85,0.8; stroke-dashoffset: 0; stroke: #b2b2b2; stroke-width: 0.5"/>
     </g>
     <g id="line2d_61">
      <g>
       <use xlink:href="#m3aadccf966" x="463.68" y="465.442759" style="stroke: #000000; stroke-width: 0.8"/>
      </g>
     </g>
    </g>
    <g id="xtick_22">
     <g id="line2d_62">
      <path d="M 624.96 465.442759 
L 624.96 372.711724 
" clip-path="url(#p33a1683d1c)" style="fill: none; stroke-dasharray: 1.85,0.8; stroke-dashoffset: 0; stroke: #b2b2b2; stroke-width: 0.5"/>
     </g>
     <g id="line2d_63">
      <g>
       <use xlink:href="#m3aadccf966" x="624.96" y="465.442759" style="stroke: #000000; stroke-width: 0.8"/>
      </g>
     </g>
    </g>
    <g id="xtick_23">
     <g id="line2d_64">
      <path d="M 786.24 465.442759 
L 786.24 372.711724 
" clip-path="url(#p33a1683d1c)" style="fill: none; stroke-dasharray: 1.85,0.8; stroke-dashoffset: 0; stroke: #b2b2b2; stroke-width: 0.5"/>
     </g>
     <g id="line2d_65">
      <g>
       <use xlink:href="#m3aadccf966" x="786.24" y="465.442759" style="stroke: #000000; stroke-width: 0.8"/>
      </g>
     </g>
    </g>
    <g id="xtick_24">
     <g id="line2d_66">
      <path d="M 947.52 465.442759 
L 947.52 372.711724 
" clip-path="url(#p33a1683d1c)" style="fill: none; stroke-dasharray: 1.85,0.8; stroke-dashoffset: 0; stroke: #b2b2b2; stroke-width: 0.5"/>
     </g>
     <g id="line2d_67">
      <g>
       <use xlink:href="#m3aadccf966" x="947.52" y="465.442759" style="stroke: #000000; stroke-width: 0.8"/>
      </g>
     </g>
    </g>
   </g>
   <g id="matplotlib.axis_8">
    <g id="ytick_9">
     <g id="line2d_68">
      <path d="M 100.8 437.836931 
L 987.84 437.836931 
" clip-path="url(#p33a1683d1c)" style="fill: none; stroke-dasharray: 1.85,0.8; stroke-dashoffset: 0; stroke: #b2b2b2; stroke-width: 0.5"/>
     </g>
     <g id="line2d_69">
      <g>
       <use xlink:href="#mad834e9d47" x="100.8" y="437.836931" style="stroke: #000000; stroke-width: 0.8"/>
      </g>
     </g>
     <g id="text_12">
      <!-- 0 V -->
      <g transform="translate(74.36625 443.155837) scale(0.14 -0.14)">
       <use xlink:href="#DejaVuSans-30"/>
       <use xlink:href="#DejaVuSans-20" x="63.623047"/>
       <use xlink:href="#DejaVuSans-56" x="95.410156"/>
      </g>
     </g>
    </g>
    <g id="ytick_10">
     <g id="line2d_70">
      <path d="M 100.8 396.839314 
L 987.84 396.839314 
" clip-path="url(#p33a1683d1c)" style="fill: none; stroke-dasharray: 1.85,0.8; stroke-dashoffset: 0; stroke: #b2b2b2; stroke-width: 0.5"/>
     </g>
     <g id="line2d_71">
      <g>
       <use xlink:href="#mad834e9d47" x="100.8" y="396.839314" style="stroke: #000000; stroke-width: 0.8"/>
      </g>
     </g>
     <g id="text_13">
      <!-- 1 V -->
      <g transform="translate(74.36625 402.15822) scale(0.14 -0.14)">
       <use xlink:href="#DejaVuSans-31"/>
       <use xlink:href="#DejaVuSans-20" x="63.623047"/>
       <use xlink:href="#DejaVuSans-56" x="95.410156"/>
      </g>
     </g>
    </g>
    <g id="text_14">
     <g id="patch_21">
      <path d="M 34.8768 454.693023 
L 34.8768 383.46146 
L 11.247425 383.46146 
L 11.247425 454.693023 
z
" style="fill: #ffff00; opacity: 0.2; stroke: #eeeeee; stroke-width: 0.5; stroke-linejoin: miter"/>
     </g>
     <!-- DFF OUT -->
     <g transform="translate(26.925238 449.653023) rotate(-90) scale(0.14 -0.14)">
      <defs>
       <path id="DejaVuSans-4f" d="M 2522 4238 
Q 1834 4238 1429 3725 
Q 1025 3213 1025 2328 
Q 1025 1447 1429 934 
Q 1834 422 2522 422 
Q 3209 422 3611 934 
Q 4013 1447 4013 2328 
Q 4013 3213 3611 3725 
Q 3209 4238 2522 4238 
z
M 2522 4750 
Q 3503 4750 4090 4092 
Q 4678 3434 4678 2328 
Q 4678 1225 4090 567 
Q 3503 -91 2522 -91 
Q 1538 -91 948 565 
Q 359 1222 359 2328 
Q 359 3434 948 4092 
Q 1538 4750 2522 4750 
z
" transform="scale(0.015625)"/>
       <path id="DejaVuSans-54" d="M -19 4666 
L 3928 4666 
L 3928 4134 
L 2272 4134 
L 2272 0 
L 1638 0 
L 1638 4134 
L -19 4134 
L -19 4666 
z
" transform="scale(0.015625)"/>
      </defs>
      <use xlink:href="#DejaVuSans-44"/>
      <use xlink:href="#DejaVuSans-46" x="77.001953"/>
      <use xlink:href="#DejaVuSans-46" x="134.521484"/>
      <use xlink:href="#DejaVuSans-20" x="192.041016"/>
      <use xlink:href="#DejaVuSans-4f" x="223.828125"/>
      <use xlink:href="#DejaVuSans-55" x="302.539062"/>
      <use xlink:href="#DejaVuSans-54" x="375.732422"/>
     </g>
    </g>
   </g>
   <g id="line2d_72">
    <path d="M 141.12 406.902999 
L 173.408256 406.953016 
L 173.440512 408.650317 
L 173.601792 437.839433 
L 174.117888 437.834672 
L 184.052736 437.835848 
L 254.048256 437.837556 
L 254.080512 438.001446 
L 254.112768 437.73035 
L 254.306304 433.72774 
L 254.596608 432.925417 
L 254.693376 432.35309 
L 255.14496 425.170307 
L 255.370752 408.288308 
L 255.596544 389.037467 
L 255.757824 388.701287 
L 255.983616 388.635691 
L 256.886784 388.63979 
L 295.755264 388.721786 
L 296.239104 391.374331 
L 296.59392 390.71017 
L 297.948672 388.975971 
L 299.561472 388.672588 
L 334.688256 388.656189 
L 334.720512 388.537296 
L 334.752768 389.139961 
L 334.785024 392.120488 
L 334.914048 437.820125 
L 334.97856 437.784044 
L 335.13984 437.828338 
L 335.494656 437.836335 
L 363.621888 437.835803 
L 363.815424 437.985859 
L 364.428288 438.531472 
L 365.234688 438.929559 
L 366.26688 439.16796 
L 367.782912 439.274881 
L 371.040768 439.230768 
L 372.427776 439.116426 
L 372.492288 438.845226 
L 372.5568 437.7081 
L 372.685824 416.981443 
L 372.814848 405.15568 
L 372.847104 405.262274 
L 374.1696 411.067947 
L 374.298624 410.972832 
L 374.363136 411.295074 
L 374.65344 413.289198 
L 374.81472 414.143588 
L 374.846976 413.948029 
L 374.879232 413.719673 
L 374.943744 413.962789 
L 374.976 414.141128 
L 375.13728 415.648611 
L 375.330816 416.577207 
L 375.427584 416.476763 
L 375.492096 416.630504 
L 375.653376 418.105188 
L 377.23392 425.689747 
L 377.266176 425.212945 
L 377.298432 425.367096 
L 377.459712 426.925415 
L 377.750016 428.247588 
L 379.008 433.896281 
L 379.040256 434.039896 
L 379.072512 433.830603 
L 379.104768 433.752297 
L 379.137024 433.828758 
L 379.233792 434.150466 
L 379.395072 435.545123 
L 379.8144 437.244475 
L 379.846656 436.888615 
L 379.878912 437.321058 
L 379.943424 437.150713 
L 380.201472 438.890488 
L 380.427264 439.7992 
L 380.45952 439.501352 
L 380.556288 439.748076 
L 380.717568 440.958572 
L 381.298176 442.810352 
L 381.491712 443.35439 
L 381.523968 442.984592 
L 381.556224 443.433106 
L 381.58848 443.106765 
L 382.2336 445.225522 
L 382.459392 445.685105 
L 382.491648 445.579741 
L 382.685184 445.859345 
L 382.814208 446.473899 
L 382.846464 446.12132 
L 382.910976 446.492758 
L 382.943232 446.331227 
L 382.975488 446.416912 
L 383.104512 447.107312 
L 383.136768 447.130271 
L 383.169024 446.983089 
L 383.20128 447.013428 
L 383.330304 447.409055 
L 384.00768 449.395389 
L 384.039936 449.176462 
L 384.072192 449.21746 
L 384.233472 449.936968 
L 385.555968 453.065906 
L 385.588224 452.860098 
L 385.62048 453.008099 
L 385.78176 453.559927 
L 385.846272 453.631263 
L 385.878528 453.550088 
L 386.039808 454.120365 
L 386.42688 454.796825 
L 386.459136 454.837823 
L 386.58816 455.326105 
L 386.620416 455.220741 
L 386.652672 455.317085 
L 386.781696 455.682374 
L 386.813952 455.553231 
L 386.846208 455.648756 
L 386.91072 456.041513 
L 386.975232 455.953778 
L 389.458944 461.227712 
L 389.620224 461.101439 
L 389.781504 460.960817 
L 390.587904 459.487363 
L 390.813696 458.925695 
L 391.74912 457.440762 
L 391.813632 457.340318 
L 392.136192 456.713874 
L 392.168448 456.78193 
L 392.200704 456.631059 
L 392.55552 456.08702 
L 392.587776 456.26864 
L 392.620032 456.012815 
L 392.652288 456.153437 
L 392.942592 455.58357 
L 393.555456 455.016983 
L 393.652224 454.900139 
L 394.716672 453.427505 
L 394.748928 453.637823 
L 394.81344 453.451284 
L 394.97472 453.105674 
L 395.45856 452.588694 
L 395.490816 452.794502 
L 395.523072 452.529657 
L 395.555328 452.65552 
L 395.587584 452.667409 
L 395.748864 452.324259 
L 395.78112 452.377556 
L 395.845632 452.323439 
L 396.006912 452.125421 
L 396.10368 452.086063 
L 396.523008 451.663787 
L 396.7488 451.230853 
L 397.006848 450.888113 
L 397.039104 450.952069 
L 397.07136 450.811857 
L 397.103616 450.879093 
L 397.264896 450.531023 
L 397.329408 450.777829 
L 397.361664 450.467477 
L 397.684224 450.092759 
L 398.264832 449.55774 
L 398.297088 449.781177 
L 398.3616 449.655314 
L 398.619648 449.328153 
L 399.135744 448.952615 
L 399.426048 448.52501 
L 399.587328 448.160131 
L 399.619584 448.385618 
L 399.65184 448.048618 
L 400.071168 447.548037 
L 400.103424 447.83584 
L 400.13568 447.514419 
L 400.167936 447.531228 
L 400.200192 447.673489 
L 400.232448 447.418074 
L 400.264704 447.3164 
L 400.29696 447.386096 
L 400.329216 447.609943 
L 400.361472 447.202837 
L 400.393728 447.203657 
L 400.425984 447.564436 
L 400.45824 447.116742 
L 400.522752 447.461122 
L 400.651776 446.907654 
L 400.684032 446.920363 
L 400.716288 447.247934 
L 400.7808 446.844928 
L 400.813056 447.067135 
L 400.845312 446.760472 
L 400.909824 446.98186 
L 401.038848 446.640759 
L 401.651712 446.360336 
L 402.200064 445.807688 
L 402.361344 445.552683 
L 402.522624 445.091049 
L 402.71616 444.833584 
L 402.748416 444.955757 
L 402.780672 444.715101 
L 402.909696 444.74052 
L 402.941952 444.563 
L 403.006464 444.642536 
L 403.03872 444.805706 
L 403.070976 444.405979 
L 403.103232 444.417869 
L 403.135488 444.838504 
L 403.2 444.787667 
L 403.393536 444.157944 
L 403.425792 444.57407 
L 403.490304 444.092757 
L 404.199936 443.659003 
L 404.716032 443.439665 
L 405.715968 442.442603 
L 405.78048 442.391356 
L 405.909504 441.745234 
L 406.10304 441.531554 
L 406.135296 441.997369 
L 406.167552 441.443532 
L 406.232064 441.897458 
L 406.361088 441.255681 
L 406.522368 441.162412 
L 406.619136 441.060615 
L 406.651392 440.999938 
L 406.683648 441.080827 
L 406.715904 441.259412 
L 406.74816 440.938852 
L 406.877184 440.892278 
L 407.425536 440.728329 
L 407.55456 440.67577 
L 408.877056 439.341298 
L 409.00608 439.002493 
L 409.102848 438.980314 
L 409.296384 438.119806 
L 409.32864 438.534383 
L 409.393152 438.067293 
L 409.425408 437.920078 
L 409.457664 438.384905 
L 409.522176 438.219914 
L 409.586688 437.817551 
L 409.6512 437.874849 
L 409.683456 438.029013 
L 409.747968 437.887571 
L 409.844736 437.765517 
L 410.61888 436.363395 
L 410.683392 435.564638 
L 410.78016 435.680866 
L 410.812416 435.917095 
L 410.844672 435.405362 
L 410.876928 435.602643 
L 411.005952 435.117395 
L 411.134976 435.104604 
L 411.167232 435.327795 
L 411.231744 435.188813 
L 411.328512 435.021584 
L 412.005888 433.693712 
L 412.102656 433.512502 
L 412.39296 432.571197 
L 412.457472 432.733958 
L 412.489728 432.340791 
L 412.55424 432.654832 
L 412.586496 432.421966 
L 412.683264 432.34694 
L 413.908992 430.025655 
L 413.941248 429.666516 
L 414.038016 429.77147 
L 416.070144 425.715166 
L 416.134656 425.860707 
L 416.231424 425.756163 
L 416.328192 425.283461 
L 416.392704 425.404814 
L 416.521728 425.142839 
L 416.553984 425.187936 
L 416.844288 424.850936 
L 417.457152 423.613628 
L 417.586176 422.973655 
L 417.650688 423.23727 
L 417.682944 422.923638 
L 417.7152 422.87895 
L 417.747456 422.55056 
L 417.779712 422.985544 
L 417.844224 422.600987 
L 419.198976 419.224013 
L 420.908544 416.014309 
L 420.973056 416.01185 
L 421.005312 415.957733 
L 421.10208 415.775293 
L 421.166592 415.168529 
L 421.231104 415.238634 
L 421.360128 415.241504 
L 421.553664 415.000848 
L 421.7472 414.529376 
L 422.747136 412.948918 
L 422.779392 412.989095 
L 422.811648 412.90505 
L 423.005184 412.697602 
L 423.295488 412.514343 
L 423.424512 412.649225 
L 423.553536 413.317076 
L 423.618048 414.441231 
L 423.779328 427.202559 
L 423.972864 437.4017 
L 424.101888 437.251936 
L 425.811456 437.358735 
L 428.230656 437.371731 
L 428.908032 436.750125 
L 429.714432 436.357327 
L 430.746624 436.124338 
L 432.327168 436.030617 
L 435.714048 436.115564 
L 448.809984 436.47171 
L 452.261376 436.529927 
L 454.067712 436.681864 
L 454.745088 437.317081 
L 455.551488 437.738721 
L 456.551424 438.00309 
L 458.19648 438.168815 
L 461.615616 438.221009 
L 495.968256 438.163649 
L 496.000512 438.383224 
L 496.323072 430.389304 
L 496.516608 428.90601 
L 496.645632 426.720427 
L 496.806912 418.010073 
L 497.032704 389.570436 
L 497.22624 376.963669 
L 497.38752 376.959569 
L 500.064768 377.861517 
L 500.355072 377.968111 
L 502.096896 378.517479 
L 502.483968 378.624073 
L 504 379.091445 
L 504.419328 379.198039 
L 505.741824 379.583417 
L 506.161152 379.690011 
L 507.354624 380.030291 
L 508.257792 380.251678 
L 509.16096 380.485364 
L 509.548032 380.591958 
L 510.322176 380.772348 
L 510.806016 380.878941 
L 511.58016 381.059331 
L 511.967232 381.165925 
L 512.644608 381.305317 
L 513.03168 381.41191 
L 513.709056 381.551302 
L 514.192896 381.657896 
L 514.870272 381.797288 
L 515.354112 381.903882 
L 516.031488 382.043274 
L 516.515328 382.149868 
L 517.192704 382.289259 
L 517.773312 382.395853 
L 518.450688 382.535245 
L 519.031296 382.641839 
L 519.579648 382.740233 
L 520.095744 382.846827 
L 520.644096 382.945221 
L 521.25696 383.047715 
L 521.611776 383.109212 
L 522.22464 383.215806 
L 522.772992 383.3142 
L 523.385856 383.416694 
L 523.740672 383.47819 
L 524.450304 383.580684 
L 524.80512 383.642181 
L 525.514752 383.744675 
L 525.869568 383.806171 
L 526.5792 383.908665 
L 526.934016 383.970162 
L 527.643648 384.072656 
L 527.998464 384.134152 
L 528.804864 384.236646 
L 529.15968 384.298143 
L 530.062848 384.400637 
L 530.417664 384.462133 
L 531.320832 384.564627 
L 531.675648 384.626124 
L 532.578816 384.728618 
L 532.836864 384.749117 
L 533.643264 384.851611 
L 533.99808 384.913107 
L 534.998016 385.015601 
L 535.256064 385.0361 
L 536.062464 385.138594 
L 536.288256 385.167292 
L 536.320512 385.081197 
L 536.352768 385.126295 
L 536.385024 385.241088 
L 536.481792 385.195991 
L 537.610752 385.302584 
L 537.8688 385.323083 
L 538.771968 385.425577 
L 539.030016 385.446076 
L 540.029952 385.54857 
L 540.288 385.569069 
L 541.287936 385.671563 
L 541.545984 385.692062 
L 542.642688 385.794556 
L 542.900736 385.815055 
L 543.99744 385.917549 
L 544.255488 385.938047 
L 545.44896 386.040541 
L 545.707008 386.06104 
L 546.997248 386.163534 
L 547.255296 386.184033 
L 548.545536 386.286527 
L 548.803584 386.307026 
L 550.28736 386.40952 
L 550.545408 386.425919 
L 552.029184 386.532513 
L 552.287232 386.548912 
L 553.964544 386.655506 
L 554.222592 386.676005 
L 555.899904 386.778499 
L 556.157952 386.794898 
L 558.0288 386.901491 
L 558.286848 386.91789 
L 560.351232 387.024484 
L 560.60928 387.044983 
L 562.8672 387.147477 
L 563.125248 387.167976 
L 565.576704 387.27047 
L 565.834752 387.290969 
L 568.479744 387.393463 
L 568.737792 387.413962 
L 571.769856 387.516456 
L 572.124672 387.532855 
L 575.350272 387.639449 
L 575.60832 387.655848 
L 576.608256 387.655848 
L 576.640512 387.893634 
L 576.705024 387.659947 
L 576.866304 387.692745 
L 580.962816 387.803439 
L 581.220864 387.819838 
L 585.897984 387.926432 
L 586.2528 387.942831 
L 591.800832 388.049425 
L 592.155648 388.069924 
L 599.058432 388.172418 
L 599.413248 388.192916 
L 657.248256 388.225714 
L 657.280512 388.434802 
L 657.345024 388.225714 
L 657.53856 388.205216 
L 658.603008 388.229814 
L 737.888256 388.225714 
L 737.920512 388.434802 
L 737.985024 388.225714 
L 738.17856 388.205216 
L 739.243008 388.229814 
L 818.528256 388.246213 
L 818.560512 388.385605 
L 818.625024 388.197016 
L 818.915328 388.221615 
L 899.168256 388.246213 
L 899.200512 388.385605 
L 899.265024 388.197016 
L 899.555328 388.221615 
L 947.52 388.229814 
L 947.52 388.229814 
" clip-path="url(#p33a1683d1c)" style="fill: none; stroke: #ff00ff; stroke-width: 2; stroke-linecap: square"/>
   </g>
   <g id="patch_22">
    <path d="M 100.8 465.442759 
L 100.8 372.711724 
" style="fill: none; stroke: #bcbcbc; stroke-width: 0.8; stroke-linejoin: miter; stroke-linecap: square"/>
   </g>
   <g id="patch_23">
    <path d="M 987.84 465.442759 
L 987.84 372.711724 
" style="fill: none; stroke: #bcbcbc; stroke-width: 0.8; stroke-linejoin: miter; stroke-linecap: square"/>
   </g>
   <g id="patch_24">
    <path d="M 100.8 465.442759 
L 987.84 465.442759 
" style="fill: none; stroke: #bcbcbc; stroke-width: 0.8; stroke-linejoin: miter; stroke-linecap: square"/>
   </g>
   <g id="patch_25">
    <path d="M 100.8 372.711724 
L 987.84 372.711724 
" style="fill: none; stroke: #bcbcbc; stroke-width: 0.8; stroke-linejoin: miter; stroke-linecap: square"/>
   </g>
  </g>
  <g id="axes_5">
   <g id="patch_26">
    <path d="M 100.8 576.72 
L 987.84 576.72 
L 987.84 483.988966 
L 100.8 483.988966 
z
" style="fill: #eeeeee"/>
   </g>
   <g id="matplotlib.axis_9">
    <g id="xtick_25">
     <g id="line2d_73">
      <path d="M 141.12 576.72 
L 141.12 483.988966 
" clip-path="url(#pcbc460750b)" style="fill: none; stroke-dasharray: 1.85,0.8; stroke-dashoffset: 0; stroke: #b2b2b2; stroke-width: 0.5"/>
     </g>
     <g id="line2d_74">
      <g>
       <use xlink:href="#m3aadccf966" x="141.12" y="576.72" style="stroke: #000000; stroke-width: 0.8"/>
      </g>
     </g>
     <g id="text_15">
      <!-- 0 s -->
      <g transform="translate(130.795 590.857813) scale(0.14 -0.14)">
       <defs>
        <path id="DejaVuSans-73" d="M 2834 3397 
L 2834 2853 
Q 2591 2978 2328 3040 
Q 2066 3103 1784 3103 
Q 1356 3103 1142 2972 
Q 928 2841 928 2578 
Q 928 2378 1081 2264 
Q 1234 2150 1697 2047 
L 1894 2003 
Q 2506 1872 2764 1633 
Q 3022 1394 3022 966 
Q 3022 478 2636 193 
Q 2250 -91 1575 -91 
Q 1294 -91 989 -36 
Q 684 19 347 128 
L 347 722 
Q 666 556 975 473 
Q 1284 391 1588 391 
Q 1994 391 2212 530 
Q 2431 669 2431 922 
Q 2431 1156 2273 1281 
Q 2116 1406 1581 1522 
L 1381 1569 
Q 847 1681 609 1914 
Q 372 2147 372 2553 
Q 372 3047 722 3315 
Q 1072 3584 1716 3584 
Q 2034 3584 2315 3537 
Q 2597 3491 2834 3397 
z
" transform="scale(0.015625)"/>
       </defs>
       <use xlink:href="#DejaVuSans-30"/>
       <use xlink:href="#DejaVuSans-20" x="63.623047"/>
       <use xlink:href="#DejaVuSans-73" x="95.410156"/>
      </g>
     </g>
    </g>
    <g id="xtick_26">
     <g id="line2d_75">
      <path d="M 302.4 576.72 
L 302.4 483.988966 
" clip-path="url(#pcbc460750b)" style="fill: none; stroke-dasharray: 1.85,0.8; stroke-dashoffset: 0; stroke: #b2b2b2; stroke-width: 0.5"/>
     </g>
     <g id="line2d_76">
      <g>
       <use xlink:href="#m3aadccf966" x="302.4" y="576.72" style="stroke: #000000; stroke-width: 0.8"/>
      </g>
     </g>
     <g id="text_16">
      <!-- 50 ns -->
      <g transform="translate(283.185 590.857813) scale(0.14 -0.14)">
       <defs>
        <path id="DejaVuSans-35" d="M 691 4666 
L 3169 4666 
L 3169 4134 
L 1269 4134 
L 1269 2991 
Q 1406 3038 1543 3061 
Q 1681 3084 1819 3084 
Q 2600 3084 3056 2656 
Q 3513 2228 3513 1497 
Q 3513 744 3044 326 
Q 2575 -91 1722 -91 
Q 1428 -91 1123 -41 
Q 819 9 494 109 
L 494 744 
Q 775 591 1075 516 
Q 1375 441 1709 441 
Q 2250 441 2565 725 
Q 2881 1009 2881 1497 
Q 2881 1984 2565 2268 
Q 2250 2553 1709 2553 
Q 1456 2553 1204 2497 
Q 953 2441 691 2322 
L 691 4666 
z
" transform="scale(0.015625)"/>
        <path id="DejaVuSans-6e" d="M 3513 2113 
L 3513 0 
L 2938 0 
L 2938 2094 
Q 2938 2591 2744 2837 
Q 2550 3084 2163 3084 
Q 1697 3084 1428 2787 
Q 1159 2491 1159 1978 
L 1159 0 
L 581 0 
L 581 3500 
L 1159 3500 
L 1159 2956 
Q 1366 3272 1645 3428 
Q 1925 3584 2291 3584 
Q 2894 3584 3203 3211 
Q 3513 2838 3513 2113 
z
" transform="scale(0.015625)"/>
       </defs>
       <use xlink:href="#DejaVuSans-35"/>
       <use xlink:href="#DejaVuSans-30" x="63.623047"/>
       <use xlink:href="#DejaVuSans-20" x="127.246094"/>
       <use xlink:href="#DejaVuSans-6e" x="159.033203"/>
       <use xlink:href="#DejaVuSans-73" x="222.412109"/>
      </g>
     </g>
    </g>
    <g id="xtick_27">
     <g id="line2d_77">
      <path d="M 463.68 576.72 
L 463.68 483.988966 
" clip-path="url(#pcbc460750b)" style="fill: none; stroke-dasharray: 1.85,0.8; stroke-dashoffset: 0; stroke: #b2b2b2; stroke-width: 0.5"/>
     </g>
     <g id="line2d_78">
      <g>
       <use xlink:href="#m3aadccf966" x="463.68" y="576.72" style="stroke: #000000; stroke-width: 0.8"/>
      </g>
     </g>
     <g id="text_17">
      <!-- 100 ns -->
      <g transform="translate(440.01125 590.857813) scale(0.14 -0.14)">
       <use xlink:href="#DejaVuSans-31"/>
       <use xlink:href="#DejaVuSans-30" x="63.623047"/>
       <use xlink:href="#DejaVuSans-30" x="127.246094"/>
       <use xlink:href="#DejaVuSans-20" x="190.869141"/>
       <use xlink:href="#DejaVuSans-6e" x="222.65625"/>
       <use xlink:href="#DejaVuSans-73" x="286.035156"/>
      </g>
     </g>
    </g>
    <g id="xtick_28">
     <g id="line2d_79">
      <path d="M 624.96 576.72 
L 624.96 483.988966 
" clip-path="url(#pcbc460750b)" style="fill: none; stroke-dasharray: 1.85,0.8; stroke-dashoffset: 0; stroke: #b2b2b2; stroke-width: 0.5"/>
     </g>
     <g id="line2d_80">
      <g>
       <use xlink:href="#m3aadccf966" x="624.96" y="576.72" style="stroke: #000000; stroke-width: 0.8"/>
      </g>
     </g>
     <g id="text_18">
      <!-- 150 ns -->
      <g transform="translate(601.29125 590.857813) scale(0.14 -0.14)">
       <use xlink:href="#DejaVuSans-31"/>
       <use xlink:href="#DejaVuSans-35" x="63.623047"/>
       <use xlink:href="#DejaVuSans-30" x="127.246094"/>
       <use xlink:href="#DejaVuSans-20" x="190.869141"/>
       <use xlink:href="#DejaVuSans-6e" x="222.65625"/>
       <use xlink:href="#DejaVuSans-73" x="286.035156"/>
      </g>
     </g>
    </g>
    <g id="xtick_29">
     <g id="line2d_81">
      <path d="M 786.24 576.72 
L 786.24 483.988966 
" clip-path="url(#pcbc460750b)" style="fill: none; stroke-dasharray: 1.85,0.8; stroke-dashoffset: 0; stroke: #b2b2b2; stroke-width: 0.5"/>
     </g>
     <g id="line2d_82">
      <g>
       <use xlink:href="#m3aadccf966" x="786.24" y="576.72" style="stroke: #000000; stroke-width: 0.8"/>
      </g>
     </g>
     <g id="text_19">
      <!-- 200 ns -->
      <g transform="translate(762.57125 590.857813) scale(0.14 -0.14)">
       <use xlink:href="#DejaVuSans-32"/>
       <use xlink:href="#DejaVuSans-30" x="63.623047"/>
       <use xlink:href="#DejaVuSans-30" x="127.246094"/>
       <use xlink:href="#DejaVuSans-20" x="190.869141"/>
       <use xlink:href="#DejaVuSans-6e" x="222.65625"/>
       <use xlink:href="#DejaVuSans-73" x="286.035156"/>
      </g>
     </g>
    </g>
    <g id="xtick_30">
     <g id="line2d_83">
      <path d="M 947.52 576.72 
L 947.52 483.988966 
" clip-path="url(#pcbc460750b)" style="fill: none; stroke-dasharray: 1.85,0.8; stroke-dashoffset: 0; stroke: #b2b2b2; stroke-width: 0.5"/>
     </g>
     <g id="line2d_84">
      <g>
       <use xlink:href="#m3aadccf966" x="947.52" y="576.72" style="stroke: #000000; stroke-width: 0.8"/>
      </g>
     </g>
     <g id="text_20">
      <!-- 250 ns -->
      <g transform="translate(923.85125 590.857813) scale(0.14 -0.14)">
       <use xlink:href="#DejaVuSans-32"/>
       <use xlink:href="#DejaVuSans-35" x="63.623047"/>
       <use xlink:href="#DejaVuSans-30" x="127.246094"/>
       <use xlink:href="#DejaVuSans-20" x="190.869141"/>
       <use xlink:href="#DejaVuSans-6e" x="222.65625"/>
       <use xlink:href="#DejaVuSans-73" x="286.035156"/>
      </g>
     </g>
    </g>
    <g id="text_21">
     <!-- Time -->
     <g transform="translate(527.192969 608.407187) scale(0.14 -0.14)">
      <defs>
       <path id="DejaVuSans-69" d="M 603 3500 
L 1178 3500 
L 1178 0 
L 603 0 
L 603 3500 
z
M 603 4863 
L 1178 4863 
L 1178 4134 
L 603 4134 
L 603 4863 
z
" transform="scale(0.015625)"/>
       <path id="DejaVuSans-6d" d="M 3328 2828 
Q 3544 3216 3844 3400 
Q 4144 3584 4550 3584 
Q 5097 3584 5394 3201 
Q 5691 2819 5691 2113 
L 5691 0 
L 5113 0 
L 5113 2094 
Q 5113 2597 4934 2840 
Q 4756 3084 4391 3084 
Q 3944 3084 3684 2787 
Q 3425 2491 3425 1978 
L 3425 0 
L 2847 0 
L 2847 2094 
Q 2847 2600 2669 2842 
Q 2491 3084 2119 3084 
Q 1678 3084 1418 2786 
Q 1159 2488 1159 1978 
L 1159 0 
L 581 0 
L 581 3500 
L 1159 3500 
L 1159 2956 
Q 1356 3278 1631 3431 
Q 1906 3584 2284 3584 
Q 2666 3584 2933 3390 
Q 3200 3197 3328 2828 
z
" transform="scale(0.015625)"/>
       <path id="DejaVuSans-65" d="M 3597 1894 
L 3597 1613 
L 953 1613 
Q 991 1019 1311 708 
Q 1631 397 2203 397 
Q 2534 397 2845 478 
Q 3156 559 3463 722 
L 3463 178 
Q 3153 47 2828 -22 
Q 2503 -91 2169 -91 
Q 1331 -91 842 396 
Q 353 884 353 1716 
Q 353 2575 817 3079 
Q 1281 3584 2069 3584 
Q 2775 3584 3186 3129 
Q 3597 2675 3597 1894 
z
M 3022 2063 
Q 3016 2534 2758 2815 
Q 2500 3097 2075 3097 
Q 1594 3097 1305 2825 
Q 1016 2553 972 2059 
L 3022 2063 
z
" transform="scale(0.015625)"/>
      </defs>
      <use xlink:href="#DejaVuSans-54"/>
      <use xlink:href="#DejaVuSans-69" x="57.958984"/>
      <use xlink:href="#DejaVuSans-6d" x="85.742188"/>
      <use xlink:href="#DejaVuSans-65" x="183.154297"/>
     </g>
    </g>
   </g>
   <g id="matplotlib.axis_10">
    <g id="ytick_11">
     <g id="line2d_85">
      <path d="M 100.8 569.738566 
L 987.84 569.738566 
" clip-path="url(#pcbc460750b)" style="fill: none; stroke-dasharray: 1.85,0.8; stroke-dashoffset: 0; stroke: #b2b2b2; stroke-width: 0.5"/>
     </g>
     <g id="line2d_86">
      <g>
       <use xlink:href="#mad834e9d47" x="100.8" y="569.738566" style="stroke: #000000; stroke-width: 0.8"/>
      </g>
     </g>
     <g id="text_22">
      <!-- 0 V -->
      <g transform="translate(74.36625 575.057472) scale(0.14 -0.14)">
       <use xlink:href="#DejaVuSans-30"/>
       <use xlink:href="#DejaVuSans-20" x="63.623047"/>
       <use xlink:href="#DejaVuSans-56" x="95.410156"/>
      </g>
     </g>
    </g>
    <g id="ytick_12">
     <g id="line2d_87">
      <path d="M 100.8 535.853372 
L 987.84 535.853372 
" clip-path="url(#pcbc460750b)" style="fill: none; stroke-dasharray: 1.85,0.8; stroke-dashoffset: 0; stroke: #b2b2b2; stroke-width: 0.5"/>
     </g>
     <g id="line2d_88">
      <g>
       <use xlink:href="#mad834e9d47" x="100.8" y="535.853372" style="stroke: #000000; stroke-width: 0.8"/>
      </g>
     </g>
     <g id="text_23">
      <!-- 500 mV -->
      <g transform="translate(42.914375 541.172278) scale(0.14 -0.14)">
       <use xlink:href="#DejaVuSans-35"/>
       <use xlink:href="#DejaVuSans-30" x="63.623047"/>
       <use xlink:href="#DejaVuSans-30" x="127.246094"/>
       <use xlink:href="#DejaVuSans-20" x="190.869141"/>
       <use xlink:href="#DejaVuSans-6d" x="222.65625"/>
       <use xlink:href="#DejaVuSans-56" x="320.068359"/>
      </g>
     </g>
    </g>
    <g id="ytick_13">
     <g id="line2d_89">
      <path d="M 100.8 501.968178 
L 987.84 501.968178 
" clip-path="url(#pcbc460750b)" style="fill: none; stroke-dasharray: 1.85,0.8; stroke-dashoffset: 0; stroke: #b2b2b2; stroke-width: 0.5"/>
     </g>
     <g id="line2d_90">
      <g>
       <use xlink:href="#mad834e9d47" x="100.8" y="501.968178" style="stroke: #000000; stroke-width: 0.8"/>
      </g>
     </g>
     <g id="text_24">
      <!-- 1 V -->
      <g transform="translate(74.36625 507.287084) scale(0.14 -0.14)">
       <use xlink:href="#DejaVuSans-31"/>
       <use xlink:href="#DejaVuSans-20" x="63.623047"/>
       <use xlink:href="#DejaVuSans-56" x="95.410156"/>
      </g>
     </g>
    </g>
    <g id="text_25">
     <g id="patch_27">
      <path d="M 34.8768 554.329483 
L 34.8768 506.379483 
L 11.247425 506.379483 
L 11.247425 554.329483 
z
" style="fill: #ffff00; opacity: 0.2; stroke: #eeeeee; stroke-width: 0.5; stroke-linejoin: miter"/>
     </g>
     <!-- FOUT -->
     <g transform="translate(26.925238 549.289483) rotate(-90) scale(0.14 -0.14)">
      <use xlink:href="#DejaVuSans-46"/>
      <use xlink:href="#DejaVuSans-4f" x="57.519531"/>
      <use xlink:href="#DejaVuSans-55" x="136.230469"/>
      <use xlink:href="#DejaVuSans-54" x="209.423828"/>
     </g>
    </g>
   </g>
   <g id="line2d_91">
    <path d="M 141.12 488.414101 
L 173.472768 488.420878 
L 173.505024 488.224344 
L 173.569536 526.668451 
L 173.69856 572.504953 
L 173.730816 572.369141 
L 173.827584 567.829745 
L 173.892096 569.352559 
L 174.053376 570.057717 
L 174.117888 569.939878 
L 174.408192 569.484061 
L 174.440448 569.533648 
L 174.66624 569.722592 
L 176.182272 569.732816 
L 180.085248 569.75446 
L 193.568256 569.744856 
L 212.8896 569.736687 
L 255.30624 569.736379 
L 255.6288 488.305668 
L 255.854592 488.447986 
L 256.209408 488.407324 
L 334.849536 488.427655 
L 334.881792 492.642973 
L 335.043072 572.182908 
L 335.107584 570.255254 
L 335.172096 568.327586 
L 335.236608 568.860465 
L 335.365632 570.778435 
L 335.430144 570.404525 
L 335.591424 569.790029 
L 335.881728 569.640861 
L 336.559104 569.810795 
L 337.107456 569.738824 
L 349.9776 569.736878 
L 372.750336 569.792554 
L 373.04064 488.400547 
L 373.072896 488.414101 
L 375.105024 488.373439 
L 375.169536 488.204013 
L 375.201792 491.131693 
L 375.363072 570.29822 
L 375.45984 569.731452 
L 375.717888 569.736822 
L 421.618176 569.841651 
L 421.650432 569.628961 
L 421.714944 555.619961 
L 421.940736 488.597081 
L 422.102016 488.420878 
L 422.650368 488.414101 
L 423.618048 488.420878 
L 423.747072 532.87893 
L 423.876096 571.519368 
L 423.908352 570.458084 
L 423.972864 569.118345 
L 424.037376 569.741243 
L 424.682496 569.736881 
L 496.7424 569.736893 
L 496.806912 557.171903 
L 497.129472 488.447986 
L 497.38752 488.414101 
L 947.52 488.414101 
L 947.52 488.414101 
" clip-path="url(#pcbc460750b)" style="fill: none; stroke: #ff00ff; stroke-width: 2; stroke-linecap: square"/>
   </g>
   <g id="patch_28">
    <path d="M 100.8 576.72 
L 100.8 483.988966 
" style="fill: none; stroke: #bcbcbc; stroke-width: 0.8; stroke-linejoin: miter; stroke-linecap: square"/>
   </g>
   <g id="patch_29">
    <path d="M 987.84 576.72 
L 987.84 483.988966 
" style="fill: none; stroke: #bcbcbc; stroke-width: 0.8; stroke-linejoin: miter; stroke-linecap: square"/>
   </g>
   <g id="patch_30">
    <path d="M 100.8 576.72 
L 987.84 576.72 
" style="fill: none; stroke: #bcbcbc; stroke-width: 0.8; stroke-linejoin: miter; stroke-linecap: square"/>
   </g>
   <g id="patch_31">
    <path d="M 100.8 483.988966 
L 987.84 483.988966 
" style="fill: none; stroke: #bcbcbc; stroke-width: 0.8; stroke-linejoin: miter; stroke-linecap: square"/>
   </g>
  </g>
  <g id="axes_6">
   <g id="patch_32">
    <path d="M 201.6 628.56 
L 856.8 628.56 
L 856.8 615.6 
L 201.6 615.6 
z
" clip-path="url(#p30a7412e51)" style="fill: #d3d3d3"/>
   </g>
   <g id="patch_33">
    <path d="M 201.6 628.56 
L 449.64 628.56 
L 449.64 615.6 
L 201.6 615.6 
z
" clip-path="url(#p30a7412e51)" style="fill: #0000ff"/>
   </g>
   <g id="line2d_92">
    <path d="M 201.6 635.04 
L 201.6 609.12 
" clip-path="url(#pe95c9dd4a0)" style="fill: none; stroke: #ff0000; stroke-linecap: square"/>
   </g>
   <g id="line2d_93">
    <defs>
     <path id="maa9154feab" d="M 0 5 
C 1.326016 5 2.597899 4.473168 3.535534 3.535534 
C 4.473168 2.597899 5 1.326016 5 0 
C 5 -1.326016 4.473168 -2.597899 3.535534 -3.535534 
C 2.597899 -4.473168 1.326016 -5 0 -5 
C -1.326016 -5 -2.597899 -4.473168 -3.535534 -3.535534 
C -4.473168 -2.597899 -5 -1.326016 -5 0 
C -5 1.326016 -4.473168 2.597899 -3.535534 3.535534 
C -2.597899 4.473168 -1.326016 5 0 5 
z
" style="stroke: #bfbfbf"/>
    </defs>
    <g>
     <use xlink:href="#maa9154feab" x="449.64" y="622.08" style="fill: #ffffff; stroke: #bfbfbf"/>
    </g>
   </g>
   <g id="text_26">
    <!-- #Sweep -->
    <g transform="translate(138.622875 625.39125) scale(0.12 -0.12)">
     <defs>
      <path id="DejaVuSans-23" d="M 3272 2816 
L 2363 2816 
L 2100 1772 
L 3016 1772 
L 3272 2816 
z
M 2803 4594 
L 2478 3297 
L 3391 3297 
L 3719 4594 
L 4219 4594 
L 3897 3297 
L 4872 3297 
L 4872 2816 
L 3775 2816 
L 3519 1772 
L 4513 1772 
L 4513 1294 
L 3397 1294 
L 3072 0 
L 2572 0 
L 2894 1294 
L 1978 1294 
L 1656 0 
L 1153 0 
L 1478 1294 
L 494 1294 
L 494 1772 
L 1594 1772 
L 1856 2816 
L 850 2816 
L 850 3297 
L 1978 3297 
L 2297 4594 
L 2803 4594 
z
" transform="scale(0.015625)"/>
      <path id="DejaVuSans-77" d="M 269 3500 
L 844 3500 
L 1563 769 
L 2278 3500 
L 2956 3500 
L 3675 769 
L 4391 3500 
L 4966 3500 
L 4050 0 
L 3372 0 
L 2619 2869 
L 1863 0 
L 1184 0 
L 269 3500 
z
" transform="scale(0.015625)"/>
      <path id="DejaVuSans-70" d="M 1159 525 
L 1159 -1331 
L 581 -1331 
L 581 3500 
L 1159 3500 
L 1159 2969 
Q 1341 3281 1617 3432 
Q 1894 3584 2278 3584 
Q 2916 3584 3314 3078 
Q 3713 2572 3713 1747 
Q 3713 922 3314 415 
Q 2916 -91 2278 -91 
Q 1894 -91 1617 61 
Q 1341 213 1159 525 
z
M 3116 1747 
Q 3116 2381 2855 2742 
Q 2594 3103 2138 3103 
Q 1681 3103 1420 2742 
Q 1159 2381 1159 1747 
Q 1159 1113 1420 752 
Q 1681 391 2138 391 
Q 2594 391 2855 752 
Q 3116 1113 3116 1747 
z
" transform="scale(0.015625)"/>
     </defs>
     <use xlink:href="#DejaVuSans-23"/>
     <use xlink:href="#DejaVuSans-53" x="83.789062"/>
     <use xlink:href="#DejaVuSans-77" x="147.265625"/>
     <use xlink:href="#DejaVuSans-65" x="229.052734"/>
     <use xlink:href="#DejaVuSans-65" x="290.576172"/>
     <use xlink:href="#DejaVuSans-70" x="352.099609"/>
    </g>
   </g>
   <g id="text_27">
    <!-- $\mathdefault{53}$ -->
    <g transform="translate(869.904 625.39125) scale(0.12 -0.12)">
     <defs>
      <path id="DejaVuSans-33" d="M 2597 2516 
Q 3050 2419 3304 2112 
Q 3559 1806 3559 1356 
Q 3559 666 3084 287 
Q 2609 -91 1734 -91 
Q 1441 -91 1130 -33 
Q 819 25 488 141 
L 488 750 
Q 750 597 1062 519 
Q 1375 441 1716 441 
Q 2309 441 2620 675 
Q 2931 909 2931 1356 
Q 2931 1769 2642 2001 
Q 2353 2234 1838 2234 
L 1294 2234 
L 1294 2753 
L 1863 2753 
Q 2328 2753 2575 2939 
Q 2822 3125 2822 3475 
Q 2822 3834 2567 4026 
Q 2313 4219 1838 4219 
Q 1578 4219 1281 4162 
Q 984 4106 628 3988 
L 628 4550 
Q 988 4650 1302 4700 
Q 1616 4750 1894 4750 
Q 2613 4750 3031 4423 
Q 3450 4097 3450 3541 
Q 3450 3153 3228 2886 
Q 3006 2619 2597 2516 
z
" transform="scale(0.015625)"/>
     </defs>
     <use xlink:href="#DejaVuSans-35" transform="translate(0 0.78125)"/>
     <use xlink:href="#DejaVuSans-33" transform="translate(63.623047 0.78125)"/>
    </g>
   </g>
  </g>
  <g id="text_28">
   <!-- DFF under BBI sweep analysis (Sweep = 63E-9) -->
   <g transform="translate(313.34625 25.1175) scale(0.16 -0.16)">
    <defs>
     <path id="DejaVuSans-75" d="M 544 1381 
L 544 3500 
L 1119 3500 
L 1119 1403 
Q 1119 906 1312 657 
Q 1506 409 1894 409 
Q 2359 409 2629 706 
Q 2900 1003 2900 1516 
L 2900 3500 
L 3475 3500 
L 3475 0 
L 2900 0 
L 2900 538 
Q 2691 219 2414 64 
Q 2138 -91 1772 -91 
Q 1169 -91 856 284 
Q 544 659 544 1381 
z
M 1991 3584 
L 1991 3584 
z
" transform="scale(0.015625)"/>
     <path id="DejaVuSans-64" d="M 2906 2969 
L 2906 4863 
L 3481 4863 
L 3481 0 
L 2906 0 
L 2906 525 
Q 2725 213 2448 61 
Q 2172 -91 1784 -91 
Q 1150 -91 751 415 
Q 353 922 353 1747 
Q 353 2572 751 3078 
Q 1150 3584 1784 3584 
Q 2172 3584 2448 3432 
Q 2725 3281 2906 2969 
z
M 947 1747 
Q 947 1113 1208 752 
Q 1469 391 1925 391 
Q 2381 391 2643 752 
Q 2906 1113 2906 1747 
Q 2906 2381 2643 2742 
Q 2381 3103 1925 3103 
Q 1469 3103 1208 2742 
Q 947 2381 947 1747 
z
" transform="scale(0.015625)"/>
     <path id="DejaVuSans-72" d="M 2631 2963 
Q 2534 3019 2420 3045 
Q 2306 3072 2169 3072 
Q 1681 3072 1420 2755 
Q 1159 2438 1159 1844 
L 1159 0 
L 581 0 
L 581 3500 
L 1159 3500 
L 1159 2956 
Q 1341 3275 1631 3429 
Q 1922 3584 2338 3584 
Q 2397 3584 2469 3576 
Q 2541 3569 2628 3553 
L 2631 2963 
z
" transform="scale(0.015625)"/>
     <path id="DejaVuSans-61" d="M 2194 1759 
Q 1497 1759 1228 1600 
Q 959 1441 959 1056 
Q 959 750 1161 570 
Q 1363 391 1709 391 
Q 2188 391 2477 730 
Q 2766 1069 2766 1631 
L 2766 1759 
L 2194 1759 
z
M 3341 1997 
L 3341 0 
L 2766 0 
L 2766 531 
Q 2569 213 2275 61 
Q 1981 -91 1556 -91 
Q 1019 -91 701 211 
Q 384 513 384 1019 
Q 384 1609 779 1909 
Q 1175 2209 1959 2209 
L 2766 2209 
L 2766 2266 
Q 2766 2663 2505 2880 
Q 2244 3097 1772 3097 
Q 1472 3097 1187 3025 
Q 903 2953 641 2809 
L 641 3341 
Q 956 3463 1253 3523 
Q 1550 3584 1831 3584 
Q 2591 3584 2966 3190 
Q 3341 2797 3341 1997 
z
" transform="scale(0.015625)"/>
     <path id="DejaVuSans-6c" d="M 603 4863 
L 1178 4863 
L 1178 0 
L 603 0 
L 603 4863 
z
" transform="scale(0.015625)"/>
     <path id="DejaVuSans-79" d="M 2059 -325 
Q 1816 -950 1584 -1140 
Q 1353 -1331 966 -1331 
L 506 -1331 
L 506 -850 
L 844 -850 
Q 1081 -850 1212 -737 
Q 1344 -625 1503 -206 
L 1606 56 
L 191 3500 
L 800 3500 
L 1894 763 
L 2988 3500 
L 3597 3500 
L 2059 -325 
z
" transform="scale(0.015625)"/>
     <path id="DejaVuSans-28" d="M 1984 4856 
Q 1566 4138 1362 3434 
Q 1159 2731 1159 2009 
Q 1159 1288 1364 580 
Q 1569 -128 1984 -844 
L 1484 -844 
Q 1016 -109 783 600 
Q 550 1309 550 2009 
Q 550 2706 781 3412 
Q 1013 4119 1484 4856 
L 1984 4856 
z
" transform="scale(0.015625)"/>
     <path id="DejaVuSans-3d" d="M 678 2906 
L 4684 2906 
L 4684 2381 
L 678 2381 
L 678 2906 
z
M 678 1631 
L 4684 1631 
L 4684 1100 
L 678 1100 
L 678 1631 
z
" transform="scale(0.015625)"/>
     <path id="DejaVuSans-36" d="M 2113 2584 
Q 1688 2584 1439 2293 
Q 1191 2003 1191 1497 
Q 1191 994 1439 701 
Q 1688 409 2113 409 
Q 2538 409 2786 701 
Q 3034 994 3034 1497 
Q 3034 2003 2786 2293 
Q 2538 2584 2113 2584 
z
M 3366 4563 
L 3366 3988 
Q 3128 4100 2886 4159 
Q 2644 4219 2406 4219 
Q 1781 4219 1451 3797 
Q 1122 3375 1075 2522 
Q 1259 2794 1537 2939 
Q 1816 3084 2150 3084 
Q 2853 3084 3261 2657 
Q 3669 2231 3669 1497 
Q 3669 778 3244 343 
Q 2819 -91 2113 -91 
Q 1303 -91 875 529 
Q 447 1150 447 2328 
Q 447 3434 972 4092 
Q 1497 4750 2381 4750 
Q 2619 4750 2861 4703 
Q 3103 4656 3366 4563 
z
" transform="scale(0.015625)"/>
     <path id="DejaVuSans-2d" d="M 313 2009 
L 1997 2009 
L 1997 1497 
L 313 1497 
L 313 2009 
z
" transform="scale(0.015625)"/>
     <path id="DejaVuSans-39" d="M 703 97 
L 703 672 
Q 941 559 1184 500 
Q 1428 441 1663 441 
Q 2288 441 2617 861 
Q 2947 1281 2994 2138 
Q 2813 1869 2534 1725 
Q 2256 1581 1919 1581 
Q 1219 1581 811 2004 
Q 403 2428 403 3163 
Q 403 3881 828 4315 
Q 1253 4750 1959 4750 
Q 2769 4750 3195 4129 
Q 3622 3509 3622 2328 
Q 3622 1225 3098 567 
Q 2575 -91 1691 -91 
Q 1453 -91 1209 -44 
Q 966 3 703 97 
z
M 1959 2075 
Q 2384 2075 2632 2365 
Q 2881 2656 2881 3163 
Q 2881 3666 2632 3958 
Q 2384 4250 1959 4250 
Q 1534 4250 1286 3958 
Q 1038 3666 1038 3163 
Q 1038 2656 1286 2365 
Q 1534 2075 1959 2075 
z
" transform="scale(0.015625)"/>
     <path id="DejaVuSans-29" d="M 513 4856 
L 1013 4856 
Q 1481 4119 1714 3412 
Q 1947 2706 1947 2009 
Q 1947 1309 1714 600 
Q 1481 -109 1013 -844 
L 513 -844 
Q 928 -128 1133 580 
Q 1338 1288 1338 2009 
Q 1338 2731 1133 3434 
Q 928 4138 513 4856 
z
" transform="scale(0.015625)"/>
    </defs>
    <use xlink:href="#DejaVuSans-44"/>
    <use xlink:href="#DejaVuSans-46" x="77.001953"/>
    <use xlink:href="#DejaVuSans-46" x="134.521484"/>
    <use xlink:href="#DejaVuSans-20" x="192.041016"/>
    <use xlink:href="#DejaVuSans-75" x="223.828125"/>
    <use xlink:href="#DejaVuSans-6e" x="287.207031"/>
    <use xlink:href="#DejaVuSans-64" x="350.585938"/>
    <use xlink:href="#DejaVuSans-65" x="414.0625"/>
    <use xlink:href="#DejaVuSans-72" x="475.585938"/>
    <use xlink:href="#DejaVuSans-20" x="516.699219"/>
    <use xlink:href="#DejaVuSans-42" x="548.486328"/>
    <use xlink:href="#DejaVuSans-42" x="617.089844"/>
    <use xlink:href="#DejaVuSans-49" x="685.693359"/>
    <use xlink:href="#DejaVuSans-20" x="715.185547"/>
    <use xlink:href="#DejaVuSans-73" x="746.972656"/>
    <use xlink:href="#DejaVuSans-77" x="799.072266"/>
    <use xlink:href="#DejaVuSans-65" x="880.859375"/>
    <use xlink:href="#DejaVuSans-65" x="942.382812"/>
    <use xlink:href="#DejaVuSans-70" x="1003.90625"/>
    <use xlink:href="#DejaVuSans-20" x="1067.382812"/>
    <use xlink:href="#DejaVuSans-61" x="1099.169922"/>
    <use xlink:href="#DejaVuSans-6e" x="1160.449219"/>
    <use xlink:href="#DejaVuSans-61" x="1223.828125"/>
    <use xlink:href="#DejaVuSans-6c" x="1285.107422"/>
    <use xlink:href="#DejaVuSans-79" x="1312.890625"/>
    <use xlink:href="#DejaVuSans-73" x="1372.070312"/>
    <use xlink:href="#DejaVuSans-69" x="1424.169922"/>
    <use xlink:href="#DejaVuSans-73" x="1451.953125"/>
    <use xlink:href="#DejaVuSans-20" x="1504.052734"/>
    <use xlink:href="#DejaVuSans-28" x="1535.839844"/>
    <use xlink:href="#DejaVuSans-53" x="1574.853516"/>
    <use xlink:href="#DejaVuSans-77" x="1638.330078"/>
    <use xlink:href="#DejaVuSans-65" x="1720.117188"/>
    <use xlink:href="#DejaVuSans-65" x="1781.640625"/>
    <use xlink:href="#DejaVuSans-70" x="1843.164062"/>
    <use xlink:href="#DejaVuSans-20" x="1906.640625"/>
    <use xlink:href="#DejaVuSans-3d" x="1938.427734"/>
    <use xlink:href="#DejaVuSans-20" x="2022.216797"/>
    <use xlink:href="#DejaVuSans-36" x="2054.003906"/>
    <use xlink:href="#DejaVuSans-33" x="2117.626953"/>
    <use xlink:href="#DejaVuSans-45" x="2181.25"/>
    <use xlink:href="#DejaVuSans-2d" x="2244.433594"/>
    <use xlink:href="#DejaVuSans-39" x="2280.517578"/>
    <use xlink:href="#DejaVuSans-29" x="2344.140625"/>
   </g>
  </g>
 </g>
 <defs>
  <clipPath id="p5a88b6e8aa">
   <rect x="100.8" y="38.88" width="887.04" height="92.731034"/>
  </clipPath>
  <clipPath id="pf6955a255b">
   <rect x="100.8" y="150.157241" width="887.04" height="92.731034"/>
  </clipPath>
  <clipPath id="p8713ae3804">
   <rect x="100.8" y="261.434483" width="887.04" height="92.731034"/>
  </clipPath>
  <clipPath id="p33a1683d1c">
   <rect x="100.8" y="372.711724" width="887.04" height="92.731034"/>
  </clipPath>
  <clipPath id="pcbc460750b">
   <rect x="100.8" y="483.988966" width="887.04" height="92.731034"/>
  </clipPath>
  <clipPath id="p30a7412e51">
   <rect x="201.6" y="609.12" width="655.2" height="25.92"/>
  </clipPath>
  <clipPath id="pe95c9dd4a0">
   <path d="M 201.6 628.56 
L 856.8 628.56 
L 856.8 615.6 
L 201.6 615.6 
z
"/>
  </clipPath>
 </defs>
</svg>
