<?xml version="1.0" encoding="utf-8" standalone="no"?>
<!DOCTYPE svg PUBLIC "-//W3C//DTD SVG 1.1//EN"
  "http://www.w3.org/Graphics/SVG/1.1/DTD/svg11.dtd">
<svg xmlns:xlink="http://www.w3.org/1999/xlink" width="1008pt" height="648pt" viewBox="0 0 1008 648" xmlns="http://www.w3.org/2000/svg" version="1.1">
 <metadata>
  <rdf:RDF xmlns:dc="http://purl.org/dc/elements/1.1/" xmlns:cc="http://creativecommons.org/ns#" xmlns:rdf="http://www.w3.org/1999/02/22-rdf-syntax-ns#">
   <cc:Work>
    <dc:type rdf:resource="http://purl.org/dc/dcmitype/StillImage"/>
    <dc:date>2024-06-03T10:45:41.739359</dc:date>
    <dc:format>image/svg+xml</dc:format>
    <dc:creator>
     <cc:Agent>
      <dc:title>Matplotlib v3.9.0, https://matplotlib.org/</dc:title>
     </cc:Agent>
    </dc:creator>
   </cc:Work>
  </rdf:RDF>
 </metadata>
 <defs>
  <style type="text/css">*{stroke-linejoin: round; stroke-linecap: butt}</style>
 </defs>
 <g id="figure_1">
  <g id="patch_1">
   <path d="M 0 648 
L 1008 648 
L 1008 0 
L 0 0 
z
" style="fill: #ffffff"/>
  </g>
  <g id="axes_1">
   <g id="patch_2">
    <path d="M 100.8 131.611034 
L 987.84 131.611034 
L 987.84 38.88 
L 100.8 38.88 
z
" style="fill: #eeeeee"/>
   </g>
   <g id="matplotlib.axis_1">
    <g id="xtick_1">
     <g id="line2d_1">
      <path d="M 141.12 131.611034 
L 141.12 38.88 
" clip-path="url(#pb0a86c13ac)" style="fill: none; stroke-dasharray: 1.85,0.8; stroke-dashoffset: 0; stroke: #b2b2b2; stroke-width: 0.5"/>
     </g>
     <g id="line2d_2">
      <defs>
       <path id="mc7d9c10e56" d="M 0 0 
L 0 -3.5 
" style="stroke: #000000; stroke-width: 0.8"/>
      </defs>
      <g>
       <use xlink:href="#mc7d9c10e56" x="141.12" y="131.611034" style="stroke: #000000; stroke-width: 0.8"/>
      </g>
     </g>
    </g>
    <g id="xtick_2">
     <g id="line2d_3">
      <path d="M 302.4 131.611034 
L 302.4 38.88 
" clip-path="url(#pb0a86c13ac)" style="fill: none; stroke-dasharray: 1.85,0.8; stroke-dashoffset: 0; stroke: #b2b2b2; stroke-width: 0.5"/>
     </g>
     <g id="line2d_4">
      <g>
       <use xlink:href="#mc7d9c10e56" x="302.4" y="131.611034" style="stroke: #000000; stroke-width: 0.8"/>
      </g>
     </g>
    </g>
    <g id="xtick_3">
     <g id="line2d_5">
      <path d="M 463.68 131.611034 
L 463.68 38.88 
" clip-path="url(#pb0a86c13ac)" style="fill: none; stroke-dasharray: 1.85,0.8; stroke-dashoffset: 0; stroke: #b2b2b2; stroke-width: 0.5"/>
     </g>
     <g id="line2d_6">
      <g>
       <use xlink:href="#mc7d9c10e56" x="463.68" y="131.611034" style="stroke: #000000; stroke-width: 0.8"/>
      </g>
     </g>
    </g>
    <g id="xtick_4">
     <g id="line2d_7">
      <path d="M 624.96 131.611034 
L 624.96 38.88 
" clip-path="url(#pb0a86c13ac)" style="fill: none; stroke-dasharray: 1.85,0.8; stroke-dashoffset: 0; stroke: #b2b2b2; stroke-width: 0.5"/>
     </g>
     <g id="line2d_8">
      <g>
       <use xlink:href="#mc7d9c10e56" x="624.96" y="131.611034" style="stroke: #000000; stroke-width: 0.8"/>
      </g>
     </g>
    </g>
    <g id="xtick_5">
     <g id="line2d_9">
      <path d="M 786.24 131.611034 
L 786.24 38.88 
" clip-path="url(#pb0a86c13ac)" style="fill: none; stroke-dasharray: 1.85,0.8; stroke-dashoffset: 0; stroke: #b2b2b2; stroke-width: 0.5"/>
     </g>
     <g id="line2d_10">
      <g>
       <use xlink:href="#mc7d9c10e56" x="786.24" y="131.611034" style="stroke: #000000; stroke-width: 0.8"/>
      </g>
     </g>
    </g>
    <g id="xtick_6">
     <g id="line2d_11">
      <path d="M 947.52 131.611034 
L 947.52 38.88 
" clip-path="url(#pb0a86c13ac)" style="fill: none; stroke-dasharray: 1.85,0.8; stroke-dashoffset: 0; stroke: #b2b2b2; stroke-width: 0.5"/>
     </g>
     <g id="line2d_12">
      <g>
       <use xlink:href="#mc7d9c10e56" x="947.52" y="131.611034" style="stroke: #000000; stroke-width: 0.8"/>
      </g>
     </g>
    </g>
   </g>
   <g id="matplotlib.axis_2">
    <g id="ytick_1">
     <g id="line2d_13">
      <path d="M 100.8 98.340394 
L 987.84 98.340394 
" clip-path="url(#pb0a86c13ac)" style="fill: none; stroke-dasharray: 1.85,0.8; stroke-dashoffset: 0; stroke: #b2b2b2; stroke-width: 0.5"/>
     </g>
     <g id="line2d_14">
      <defs>
       <path id="mf2abe8de8c" d="M 0 0 
L 3.5 0 
" style="stroke: #000000; stroke-width: 0.8"/>
      </defs>
      <g>
       <use xlink:href="#mf2abe8de8c" x="100.8" y="98.340394" style="stroke: #000000; stroke-width: 0.8"/>
      </g>
     </g>
     <g id="text_1">
      <!-- −200 V -->
      <g transform="translate(44.819688 103.6593) scale(0.14 -0.14)">
       <defs>
        <path id="DejaVuSans-2212" d="M 678 2272 
L 4684 2272 
L 4684 1741 
L 678 1741 
L 678 2272 
z
" transform="scale(0.015625)"/>
        <path id="DejaVuSans-32" d="M 1228 531 
L 3431 531 
L 3431 0 
L 469 0 
L 469 531 
Q 828 903 1448 1529 
Q 2069 2156 2228 2338 
Q 2531 2678 2651 2914 
Q 2772 3150 2772 3378 
Q 2772 3750 2511 3984 
Q 2250 4219 1831 4219 
Q 1534 4219 1204 4116 
Q 875 4013 500 3803 
L 500 4441 
Q 881 4594 1212 4672 
Q 1544 4750 1819 4750 
Q 2544 4750 2975 4387 
Q 3406 4025 3406 3419 
Q 3406 3131 3298 2873 
Q 3191 2616 2906 2266 
Q 2828 2175 2409 1742 
Q 1991 1309 1228 531 
z
" transform="scale(0.015625)"/>
        <path id="DejaVuSans-30" d="M 2034 4250 
Q 1547 4250 1301 3770 
Q 1056 3291 1056 2328 
Q 1056 1369 1301 889 
Q 1547 409 2034 409 
Q 2525 409 2770 889 
Q 3016 1369 3016 2328 
Q 3016 3291 2770 3770 
Q 2525 4250 2034 4250 
z
M 2034 4750 
Q 2819 4750 3233 4129 
Q 3647 3509 3647 2328 
Q 3647 1150 3233 529 
Q 2819 -91 2034 -91 
Q 1250 -91 836 529 
Q 422 1150 422 2328 
Q 422 3509 836 4129 
Q 1250 4750 2034 4750 
z
" transform="scale(0.015625)"/>
        <path id="DejaVuSans-20" transform="scale(0.015625)"/>
        <path id="DejaVuSans-56" d="M 1831 0 
L 50 4666 
L 709 4666 
L 2188 738 
L 3669 4666 
L 4325 4666 
L 2547 0 
L 1831 0 
z
" transform="scale(0.015625)"/>
       </defs>
       <use xlink:href="#DejaVuSans-2212"/>
       <use xlink:href="#DejaVuSans-32" x="83.789062"/>
       <use xlink:href="#DejaVuSans-30" x="147.412109"/>
       <use xlink:href="#DejaVuSans-30" x="211.035156"/>
       <use xlink:href="#DejaVuSans-20" x="274.658203"/>
       <use xlink:href="#DejaVuSans-56" x="306.445312"/>
      </g>
     </g>
    </g>
    <g id="ytick_2">
     <g id="line2d_15">
      <path d="M 100.8 45.027377 
L 987.84 45.027377 
" clip-path="url(#pb0a86c13ac)" style="fill: none; stroke-dasharray: 1.85,0.8; stroke-dashoffset: 0; stroke: #b2b2b2; stroke-width: 0.5"/>
     </g>
     <g id="line2d_16">
      <g>
       <use xlink:href="#mf2abe8de8c" x="100.8" y="45.027377" style="stroke: #000000; stroke-width: 0.8"/>
      </g>
     </g>
     <g id="text_2">
      <!-- 0 V -->
      <g transform="translate(74.36625 50.346284) scale(0.14 -0.14)">
       <use xlink:href="#DejaVuSans-30"/>
       <use xlink:href="#DejaVuSans-20" x="63.623047"/>
       <use xlink:href="#DejaVuSans-56" x="95.410156"/>
      </g>
     </g>
    </g>
    <g id="text_3">
     <g id="patch_3">
      <path d="M 34.8768 131.080205 
L 34.8768 39.41083 
L 11.247425 39.41083 
L 11.247425 131.080205 
z
" style="fill: #ffff00; opacity: 0.2; stroke: #eeeeee; stroke-width: 0.5; stroke-linejoin: miter"/>
     </g>
     <!-- VPULSE BBI -->
     <g transform="translate(26.925238 126.040205) rotate(-90) scale(0.14 -0.14)">
      <defs>
       <path id="DejaVuSans-50" d="M 1259 4147 
L 1259 2394 
L 2053 2394 
Q 2494 2394 2734 2622 
Q 2975 2850 2975 3272 
Q 2975 3691 2734 3919 
Q 2494 4147 2053 4147 
L 1259 4147 
z
M 628 4666 
L 2053 4666 
Q 2838 4666 3239 4311 
Q 3641 3956 3641 3272 
Q 3641 2581 3239 2228 
Q 2838 1875 2053 1875 
L 1259 1875 
L 1259 0 
L 628 0 
L 628 4666 
z
" transform="scale(0.015625)"/>
       <path id="DejaVuSans-55" d="M 556 4666 
L 1191 4666 
L 1191 1831 
Q 1191 1081 1462 751 
Q 1734 422 2344 422 
Q 2950 422 3222 751 
Q 3494 1081 3494 1831 
L 3494 4666 
L 4128 4666 
L 4128 1753 
Q 4128 841 3676 375 
Q 3225 -91 2344 -91 
Q 1459 -91 1007 375 
Q 556 841 556 1753 
L 556 4666 
z
" transform="scale(0.015625)"/>
       <path id="DejaVuSans-4c" d="M 628 4666 
L 1259 4666 
L 1259 531 
L 3531 531 
L 3531 0 
L 628 0 
L 628 4666 
z
" transform="scale(0.015625)"/>
       <path id="DejaVuSans-53" d="M 3425 4513 
L 3425 3897 
Q 3066 4069 2747 4153 
Q 2428 4238 2131 4238 
Q 1616 4238 1336 4038 
Q 1056 3838 1056 3469 
Q 1056 3159 1242 3001 
Q 1428 2844 1947 2747 
L 2328 2669 
Q 3034 2534 3370 2195 
Q 3706 1856 3706 1288 
Q 3706 609 3251 259 
Q 2797 -91 1919 -91 
Q 1588 -91 1214 -16 
Q 841 59 441 206 
L 441 856 
Q 825 641 1194 531 
Q 1563 422 1919 422 
Q 2459 422 2753 634 
Q 3047 847 3047 1241 
Q 3047 1584 2836 1778 
Q 2625 1972 2144 2069 
L 1759 2144 
Q 1053 2284 737 2584 
Q 422 2884 422 3419 
Q 422 4038 858 4394 
Q 1294 4750 2059 4750 
Q 2388 4750 2728 4690 
Q 3069 4631 3425 4513 
z
" transform="scale(0.015625)"/>
       <path id="DejaVuSans-45" d="M 628 4666 
L 3578 4666 
L 3578 4134 
L 1259 4134 
L 1259 2753 
L 3481 2753 
L 3481 2222 
L 1259 2222 
L 1259 531 
L 3634 531 
L 3634 0 
L 628 0 
L 628 4666 
z
" transform="scale(0.015625)"/>
       <path id="DejaVuSans-42" d="M 1259 2228 
L 1259 519 
L 2272 519 
Q 2781 519 3026 730 
Q 3272 941 3272 1375 
Q 3272 1813 3026 2020 
Q 2781 2228 2272 2228 
L 1259 2228 
z
M 1259 4147 
L 1259 2741 
L 2194 2741 
Q 2656 2741 2882 2914 
Q 3109 3088 3109 3444 
Q 3109 3797 2882 3972 
Q 2656 4147 2194 4147 
L 1259 4147 
z
M 628 4666 
L 2241 4666 
Q 2963 4666 3353 4366 
Q 3744 4066 3744 3513 
Q 3744 3084 3544 2831 
Q 3344 2578 2956 2516 
Q 3422 2416 3680 2098 
Q 3938 1781 3938 1306 
Q 3938 681 3513 340 
Q 3088 0 2303 0 
L 628 0 
L 628 4666 
z
" transform="scale(0.015625)"/>
       <path id="DejaVuSans-49" d="M 628 4666 
L 1259 4666 
L 1259 0 
L 628 0 
L 628 4666 
z
" transform="scale(0.015625)"/>
      </defs>
      <use xlink:href="#DejaVuSans-56"/>
      <use xlink:href="#DejaVuSans-50" x="68.408203"/>
      <use xlink:href="#DejaVuSans-55" x="128.710938"/>
      <use xlink:href="#DejaVuSans-4c" x="201.904297"/>
      <use xlink:href="#DejaVuSans-53" x="257.617188"/>
      <use xlink:href="#DejaVuSans-45" x="321.09375"/>
      <use xlink:href="#DejaVuSans-20" x="384.277344"/>
      <use xlink:href="#DejaVuSans-42" x="416.064453"/>
      <use xlink:href="#DejaVuSans-42" x="484.667969"/>
      <use xlink:href="#DejaVuSans-49" x="553.271484"/>
     </g>
    </g>
   </g>
   <g id="line2d_17">
    <path d="M 141.12 45.027377 
L 376.621056 45.136282 
L 377.104896 46.425538 
L 385.330176 69.006772 
L 392.749056 89.863624 
L 394.361856 94.440546 
L 396.168192 99.673219 
L 399.65184 110.807642 
L 401.232384 115.853719 
L 402.490368 119.566971 
L 403.716096 120.153414 
L 404.554752 120.545265 
L 405.586944 121.017085 
L 406.167552 121.272988 
L 407.038464 121.656841 
L 407.619072 121.912744 
L 408.457728 122.269941 
L 410.038272 122.936354 
L 410.683392 123.202919 
L 411.780096 123.629423 
L 412.521984 123.922644 
L 413.618688 124.349149 
L 414.521856 124.677024 
L 415.199232 124.943589 
L 416.005632 125.25547 
L 417.360384 125.804594 
L 420.005376 126.790885 
L 420.61824 127.022796 
L 422.5536 127.395987 
L 441.036288 127.289361 
L 441.26208 126.801547 
L 459.551232 75.087922 
L 463.292928 63.292417 
L 467.002368 51.617666 
L 471.614976 49.3412 
L 476.969472 46.984578 
L 485.678592 43.484472 
L 486.549504 43.268927 
L 500.838912 43.108189 
L 507.644928 43.184799 
L 522.998784 43.746186 
L 550.7712 44.46146 
L 576.41472 44.774399 
L 612.025344 44.945888 
L 660.054528 44.953885 
L 947.52 44.953885 
L 947.52 44.953885 
" clip-path="url(#pb0a86c13ac)" style="fill: none; stroke: #ff0000; stroke-width: 2; stroke-linecap: square"/>
   </g>
   <g id="patch_4">
    <path d="M 100.8 131.611034 
L 100.8 38.88 
" style="fill: none; stroke: #bcbcbc; stroke-width: 0.8; stroke-linejoin: miter; stroke-linecap: square"/>
   </g>
   <g id="patch_5">
    <path d="M 987.84 131.611034 
L 987.84 38.88 
" style="fill: none; stroke: #bcbcbc; stroke-width: 0.8; stroke-linejoin: miter; stroke-linecap: square"/>
   </g>
   <g id="patch_6">
    <path d="M 100.8 131.611034 
L 987.84 131.611034 
" style="fill: none; stroke: #bcbcbc; stroke-width: 0.8; stroke-linejoin: miter; stroke-linecap: square"/>
   </g>
   <g id="patch_7">
    <path d="M 100.8 38.88 
L 987.84 38.88 
" style="fill: none; stroke: #bcbcbc; stroke-width: 0.8; stroke-linejoin: miter; stroke-linecap: square"/>
   </g>
  </g>
  <g id="axes_2">
   <g id="patch_8">
    <path d="M 100.8 242.888276 
L 987.84 242.888276 
L 987.84 150.157241 
L 100.8 150.157241 
z
" style="fill: #eeeeee"/>
   </g>
   <g id="matplotlib.axis_3">
    <g id="xtick_7">
     <g id="line2d_18">
      <path d="M 141.12 242.888276 
L 141.12 150.157241 
" clip-path="url(#p491cb7ac91)" style="fill: none; stroke-dasharray: 1.85,0.8; stroke-dashoffset: 0; stroke: #b2b2b2; stroke-width: 0.5"/>
     </g>
     <g id="line2d_19">
      <g>
       <use xlink:href="#mc7d9c10e56" x="141.12" y="242.888276" style="stroke: #000000; stroke-width: 0.8"/>
      </g>
     </g>
    </g>
    <g id="xtick_8">
     <g id="line2d_20">
      <path d="M 302.4 242.888276 
L 302.4 150.157241 
" clip-path="url(#p491cb7ac91)" style="fill: none; stroke-dasharray: 1.85,0.8; stroke-dashoffset: 0; stroke: #b2b2b2; stroke-width: 0.5"/>
     </g>
     <g id="line2d_21">
      <g>
       <use xlink:href="#mc7d9c10e56" x="302.4" y="242.888276" style="stroke: #000000; stroke-width: 0.8"/>
      </g>
     </g>
    </g>
    <g id="xtick_9">
     <g id="line2d_22">
      <path d="M 463.68 242.888276 
L 463.68 150.157241 
" clip-path="url(#p491cb7ac91)" style="fill: none; stroke-dasharray: 1.85,0.8; stroke-dashoffset: 0; stroke: #b2b2b2; stroke-width: 0.5"/>
     </g>
     <g id="line2d_23">
      <g>
       <use xlink:href="#mc7d9c10e56" x="463.68" y="242.888276" style="stroke: #000000; stroke-width: 0.8"/>
      </g>
     </g>
    </g>
    <g id="xtick_10">
     <g id="line2d_24">
      <path d="M 624.96 242.888276 
L 624.96 150.157241 
" clip-path="url(#p491cb7ac91)" style="fill: none; stroke-dasharray: 1.85,0.8; stroke-dashoffset: 0; stroke: #b2b2b2; stroke-width: 0.5"/>
     </g>
     <g id="line2d_25">
      <g>
       <use xlink:href="#mc7d9c10e56" x="624.96" y="242.888276" style="stroke: #000000; stroke-width: 0.8"/>
      </g>
     </g>
    </g>
    <g id="xtick_11">
     <g id="line2d_26">
      <path d="M 786.24 242.888276 
L 786.24 150.157241 
" clip-path="url(#p491cb7ac91)" style="fill: none; stroke-dasharray: 1.85,0.8; stroke-dashoffset: 0; stroke: #b2b2b2; stroke-width: 0.5"/>
     </g>
     <g id="line2d_27">
      <g>
       <use xlink:href="#mc7d9c10e56" x="786.24" y="242.888276" style="stroke: #000000; stroke-width: 0.8"/>
      </g>
     </g>
    </g>
    <g id="xtick_12">
     <g id="line2d_28">
      <path d="M 947.52 242.888276 
L 947.52 150.157241 
" clip-path="url(#p491cb7ac91)" style="fill: none; stroke-dasharray: 1.85,0.8; stroke-dashoffset: 0; stroke: #b2b2b2; stroke-width: 0.5"/>
     </g>
     <g id="line2d_29">
      <g>
       <use xlink:href="#mc7d9c10e56" x="947.52" y="242.888276" style="stroke: #000000; stroke-width: 0.8"/>
      </g>
     </g>
    </g>
   </g>
   <g id="matplotlib.axis_4">
    <g id="ytick_3">
     <g id="line2d_30">
      <path d="M 100.8 219.152804 
L 987.84 219.152804 
" clip-path="url(#p491cb7ac91)" style="fill: none; stroke-dasharray: 1.85,0.8; stroke-dashoffset: 0; stroke: #b2b2b2; stroke-width: 0.5"/>
     </g>
     <g id="line2d_31">
      <g>
       <use xlink:href="#mf2abe8de8c" x="100.8" y="219.152804" style="stroke: #000000; stroke-width: 0.8"/>
      </g>
     </g>
     <g id="text_4">
      <!-- 0 V -->
      <g transform="translate(74.36625 224.47171) scale(0.14 -0.14)">
       <use xlink:href="#DejaVuSans-30"/>
       <use xlink:href="#DejaVuSans-20" x="63.623047"/>
       <use xlink:href="#DejaVuSans-56" x="95.410156"/>
      </g>
     </g>
    </g>
    <g id="ytick_4">
     <g id="line2d_32">
      <path d="M 100.8 185.188291 
L 987.84 185.188291 
" clip-path="url(#p491cb7ac91)" style="fill: none; stroke-dasharray: 1.85,0.8; stroke-dashoffset: 0; stroke: #b2b2b2; stroke-width: 0.5"/>
     </g>
     <g id="line2d_33">
      <g>
       <use xlink:href="#mf2abe8de8c" x="100.8" y="185.188291" style="stroke: #000000; stroke-width: 0.8"/>
      </g>
     </g>
     <g id="text_5">
      <!-- 1 V -->
      <g transform="translate(74.36625 190.507197) scale(0.14 -0.14)">
       <defs>
        <path id="DejaVuSans-31" d="M 794 531 
L 1825 531 
L 1825 4091 
L 703 3866 
L 703 4441 
L 1819 4666 
L 2450 4666 
L 2450 531 
L 3481 531 
L 3481 0 
L 794 0 
L 794 531 
z
" transform="scale(0.015625)"/>
       </defs>
       <use xlink:href="#DejaVuSans-31"/>
       <use xlink:href="#DejaVuSans-20" x="63.623047"/>
       <use xlink:href="#DejaVuSans-56" x="95.410156"/>
      </g>
     </g>
    </g>
    <g id="ytick_5">
     <g id="line2d_34">
      <path d="M 100.8 151.223778 
L 987.84 151.223778 
" clip-path="url(#p491cb7ac91)" style="fill: none; stroke-dasharray: 1.85,0.8; stroke-dashoffset: 0; stroke: #b2b2b2; stroke-width: 0.5"/>
     </g>
     <g id="line2d_35">
      <g>
       <use xlink:href="#mf2abe8de8c" x="100.8" y="151.223778" style="stroke: #000000; stroke-width: 0.8"/>
      </g>
     </g>
     <g id="text_6">
      <!-- 2 V -->
      <g transform="translate(74.36625 156.542684) scale(0.14 -0.14)">
       <use xlink:href="#DejaVuSans-32"/>
       <use xlink:href="#DejaVuSans-20" x="63.623047"/>
       <use xlink:href="#DejaVuSans-56" x="95.410156"/>
      </g>
     </g>
    </g>
    <g id="text_7">
     <g id="patch_9">
      <path d="M 34.8768 224.531509 
L 34.8768 168.514009 
L 11.247425 168.514009 
L 11.247425 224.531509 
z
" style="fill: #ffff00; opacity: 0.2; stroke: #eeeeee; stroke-width: 0.5; stroke-linejoin: miter"/>
     </g>
     <!-- DFF IN -->
     <g transform="translate(26.925238 219.491509) rotate(-90) scale(0.14 -0.14)">
      <defs>
       <path id="DejaVuSans-44" d="M 1259 4147 
L 1259 519 
L 2022 519 
Q 2988 519 3436 956 
Q 3884 1394 3884 2338 
Q 3884 3275 3436 3711 
Q 2988 4147 2022 4147 
L 1259 4147 
z
M 628 4666 
L 1925 4666 
Q 3281 4666 3915 4102 
Q 4550 3538 4550 2338 
Q 4550 1131 3912 565 
Q 3275 0 1925 0 
L 628 0 
L 628 4666 
z
" transform="scale(0.015625)"/>
       <path id="DejaVuSans-46" d="M 628 4666 
L 3309 4666 
L 3309 4134 
L 1259 4134 
L 1259 2759 
L 3109 2759 
L 3109 2228 
L 1259 2228 
L 1259 0 
L 628 0 
L 628 4666 
z
" transform="scale(0.015625)"/>
       <path id="DejaVuSans-4e" d="M 628 4666 
L 1478 4666 
L 3547 763 
L 3547 4666 
L 4159 4666 
L 4159 0 
L 3309 0 
L 1241 3903 
L 1241 0 
L 628 0 
L 628 4666 
z
" transform="scale(0.015625)"/>
      </defs>
      <use xlink:href="#DejaVuSans-44"/>
      <use xlink:href="#DejaVuSans-46" x="77.001953"/>
      <use xlink:href="#DejaVuSans-46" x="134.521484"/>
      <use xlink:href="#DejaVuSans-20" x="192.041016"/>
      <use xlink:href="#DejaVuSans-49" x="223.828125"/>
      <use xlink:href="#DejaVuSans-4e" x="253.320312"/>
     </g>
    </g>
   </g>
   <g id="line2d_36">
    <path d="M 141.12 219.103202 
L 221.953536 219.056627 
L 224.437248 200.131998 
L 225.404928 194.375013 
L 228.243456 181.717118 
L 229.598208 180.446845 
L 231.178752 179.573957 
L 236.533248 179.118833 
L 243.5328 179.010146 
L 244.952064 178.969389 
L 248.145408 178.860702 
L 249.790464 178.79617 
L 251.887104 178.687483 
L 254.241792 178.341045 
L 254.757888 177.804406 
L 255.499776 177.464761 
L 256.338432 177.478347 
L 259.789824 178.093104 
L 262.467072 178.266323 
L 263.886336 178.313874 
L 264.144384 183.551202 
L 264.434688 187.114758 
L 265.176576 191.861978 
L 267.144192 209.189654 
L 268.402176 215.695556 
L 269.047296 216.97826 
L 270.46656 218.740339 
L 273.724416 219.154638 
L 282.530304 219.107241 
L 297.045504 219.097119 
L 305.851392 219.102387 
L 347.751936 219.058322 
L 350.235648 200.172076 
L 351.622656 191.537278 
L 352.654848 186.247644 
L 354.97728 179.244501 
L 357.202944 178.425957 
L 357.493248 178.412371 
L 375.13728 178.4803 
L 375.7824 179.624904 
L 376.298496 180.684597 
L 376.782336 181.336715 
L 377.750016 183.31345 
L 378.427392 183.938397 
L 380.29824 185.250107 
L 381.459456 186.432751 
L 383.330304 188.683919 
L 385.523712 191.558336 
L 386.007552 192.569119 
L 386.620416 194.527513 
L 388.813824 203.028831 
L 390.007296 208.611578 
L 391.039488 212.714151 
L 392.684544 218.480375 
L 392.910336 219.194088 
L 393.426432 221.060897 
L 394.3296 223.447957 
L 394.587648 224.068828 
L 395.29728 225.814604 
L 395.652096 226.136927 
L 395.9424 226.567597 
L 396.42624 227.941462 
L 396.91008 228.834728 
L 396.974592 228.931527 
L 397.845504 230.78531 
L 398.426112 231.623555 
L 400.555008 235.649029 
L 400.813056 235.991391 
L 401.071104 236.504255 
L 401.135616 236.590185 
L 401.845248 237.923632 
L 402.329088 238.518011 
L 402.587136 238.645378 
L 403.619328 237.310573 
L 404.232192 236.110606 
L 404.683776 235.710504 
L 405.070848 235.336215 
L 405.393408 234.770706 
L 405.715968 234.274824 
L 406.006272 234.065263 
L 406.199808 233.909706 
L 406.4256 233.711693 
L 406.715904 233.506207 
L 407.038464 233.279325 
L 407.780352 232.436665 
L 408.102912 231.881685 
L 408.425472 231.66635 
L 408.52224 231.676539 
L 408.780288 231.380708 
L 409.102848 231.257077 
L 409.393152 231.098463 
L 410.554368 229.762639 
L 410.683392 229.706258 
L 410.812416 229.621686 
L 411.070464 229.328233 
L 411.264 229.149919 
L 411.360768 229.096934 
L 411.683328 228.942396 
L 412.038144 228.788537 
L 413.263872 227.713899 
L 413.876736 226.790744 
L 414.32832 226.620242 
L 414.715392 226.514273 
L 416.328192 225.286116 
L 417.457152 224.283144 
L 417.940992 224.045732 
L 422.102016 220.669218 
L 423.327744 219.063664 
L 424.134144 217.974473 
L 429.714432 210.77308 
L 430.77888 209.654288 
L 431.133696 208.849669 
L 433.8432 201.448122 
L 434.875392 199.839563 
L 435.681792 198.672882 
L 436.133376 198.185491 
L 439.294464 194.194661 
L 441.068544 192.509002 
L 441.294336 191.968967 
L 441.810432 190.078162 
L 442.87488 186.293496 
L 443.745792 184.047083 
L 444.584448 182.447355 
L 445.29408 181.52352 
L 446.035968 180.898573 
L 446.90688 180.120786 
L 447.906816 178.915046 
L 450.680832 174.934405 
L 452.906496 171.626261 
L 455.712768 167.727135 
L 455.77728 167.822236 
L 456.615936 169.269124 
L 457.035264 169.37781 
L 457.454592 169.228366 
L 457.87392 168.885325 
L 458.325504 168.256981 
L 459.293184 166.202128 
L 460.260864 164.055571 
L 461.970432 160.879889 
L 464.357376 157.55816 
L 465.905664 155.598407 
L 466.937856 154.372288 
L 468.35712 154.71533 
L 469.3248 154.722123 
L 471.356928 155.041389 
L 472.71168 155.353863 
L 475.485696 156.050135 
L 486.452736 159.629995 
L 488.291328 160.523262 
L 489.742848 161.165191 
L 496.032768 163.80763 
L 496.065024 163.729512 
L 496.484352 163.063807 
L 496.839168 162.873606 
L 497.193984 162.900778 
L 497.645568 163.152115 
L 501.129216 165.590767 
L 505.483776 167.309371 
L 505.967616 167.465608 
L 506.644992 167.710153 
L 507.161088 167.873182 
L 508.257792 168.216224 
L 512.54784 169.455929 
L 513.225216 169.635941 
L 515.579904 170.243905 
L 516.934656 170.559775 
L 517.38624 170.665065 
L 518.095872 170.845077 
L 519.224832 171.086225 
L 520.160256 171.293409 
L 521.25696 171.527764 
L 521.837568 171.63645 
L 522.902016 171.85722 
L 524.127744 172.094971 
L 527.772672 172.753883 
L 528.385536 172.862569 
L 530.77248 173.256558 
L 531.4176 173.358451 
L 532.191744 173.487516 
L 532.965888 173.596203 
L 533.578752 173.681114 
L 534.32064 173.789801 
L 534.739968 173.84754 
L 535.546368 173.95283 
L 536.288256 174.071706 
L 536.385024 174.149824 
L 536.933376 174.954783 
L 537.610752 175.318204 
L 538.223616 175.396322 
L 539.352576 175.16876 
L 539.96544 174.968369 
L 540.77184 174.818925 
L 541.223424 174.801943 
L 541.73952 174.801943 
L 543.771648 174.907233 
L 544.868352 175.026109 
L 546.09408 175.128002 
L 546.610176 175.178949 
L 547.610112 175.287636 
L 553.125888 175.763139 
L 553.67424 175.807293 
L 554.222592 175.865032 
L 557.286912 176.079009 
L 558.802944 176.187695 
L 561.609216 176.3745 
L 562.254336 176.411861 
L 564.609024 176.554512 
L 565.318656 176.588476 
L 567.38304 176.697163 
L 568.18944 176.754903 
L 568.931328 176.782074 
L 570.737664 176.866985 
L 571.447296 176.897553 
L 573.447168 177.002843 
L 574.189056 177.033412 
L 576.801792 176.924725 
L 577.414656 176.381293 
L 577.833984 176.238642 
L 578.962944 176.347328 
L 581.124096 176.917932 
L 587.510784 177.481743 
L 590.92992 177.587033 
L 591.542784 177.604015 
L 595.703808 177.709305 
L 596.284416 177.719495 
L 597.123072 177.736477 
L 597.70368 177.753459 
L 598.703616 177.753459 
L 600.026112 177.784027 
L 606.89664 177.889317 
L 607.509504 177.909696 
L 616.992768 178.018382 
L 617.928192 178.853909 
L 618.895872 179.0543 
L 621.540864 178.667105 
L 624.121344 178.235755 
L 627.766272 178.127069 
L 628.992 178.10669 
L 657.312768 178.028572 
L 657.893376 177.410418 
L 658.538496 177.125116 
L 659.6352 177.114926 
L 663.602688 177.83837 
L 665.28 177.9063 
L 697.600512 178.014986 
L 697.761792 178.194998 
L 698.277888 178.714655 
L 698.66496 178.898063 
L 699.277824 179.037318 
L 701.632512 178.932028 
L 703.922688 178.561815 
L 709.373952 178.096501 
L 737.952768 178.028572 
L 738.50112 177.413814 
L 739.049472 177.138702 
L 740.984832 177.247388 
L 744.242688 177.821388 
L 746.339328 177.933471 
L 778.272768 178.028572 
L 779.208192 178.864099 
L 780.143616 179.044111 
L 781.433856 179.074679 
L 784.207872 178.602572 
L 790.078464 178.093104 
L 818.592768 178.028572 
L 819.14112 177.413814 
L 819.689472 177.138702 
L 821.624832 177.247388 
L 824.882688 177.821388 
L 826.979328 177.933471 
L 858.912768 178.028572 
L 859.848192 178.864099 
L 860.783616 179.044111 
L 862.073856 179.074679 
L 864.847872 178.602572 
L 870.718464 178.093104 
L 899.232768 178.028572 
L 899.78112 177.413814 
L 900.329472 177.138702 
L 902.264832 177.247388 
L 905.522688 177.821388 
L 907.619328 177.933471 
L 939.552768 178.028572 
L 940.617216 178.894667 
L 941.55264 179.081472 
L 943.455744 178.972785 
L 944.810496 178.721448 
L 947.03616 178.36482 
L 947.52 178.290099 
L 947.52 178.290099 
" clip-path="url(#p491cb7ac91)" style="fill: none; stroke: #008000; stroke-width: 2; stroke-linecap: square"/>
   </g>
   <g id="patch_10">
    <path d="M 100.8 242.888276 
L 100.8 150.157241 
" style="fill: none; stroke: #bcbcbc; stroke-width: 0.8; stroke-linejoin: miter; stroke-linecap: square"/>
   </g>
   <g id="patch_11">
    <path d="M 987.84 242.888276 
L 987.84 150.157241 
" style="fill: none; stroke: #bcbcbc; stroke-width: 0.8; stroke-linejoin: miter; stroke-linecap: square"/>
   </g>
   <g id="patch_12">
    <path d="M 100.8 242.888276 
L 987.84 242.888276 
" style="fill: none; stroke: #bcbcbc; stroke-width: 0.8; stroke-linejoin: miter; stroke-linecap: square"/>
   </g>
   <g id="patch_13">
    <path d="M 100.8 150.157241 
L 987.84 150.157241 
" style="fill: none; stroke: #bcbcbc; stroke-width: 0.8; stroke-linejoin: miter; stroke-linecap: square"/>
   </g>
  </g>
  <g id="axes_3">
   <g id="patch_14">
    <path d="M 100.8 354.165517 
L 987.84 354.165517 
L 987.84 261.434483 
L 100.8 261.434483 
z
" style="fill: #eeeeee"/>
   </g>
   <g id="matplotlib.axis_5">
    <g id="xtick_13">
     <g id="line2d_37">
      <path d="M 141.12 354.165517 
L 141.12 261.434483 
" clip-path="url(#p93d65b7461)" style="fill: none; stroke-dasharray: 1.85,0.8; stroke-dashoffset: 0; stroke: #b2b2b2; stroke-width: 0.5"/>
     </g>
     <g id="line2d_38">
      <g>
       <use xlink:href="#mc7d9c10e56" x="141.12" y="354.165517" style="stroke: #000000; stroke-width: 0.8"/>
      </g>
     </g>
    </g>
    <g id="xtick_14">
     <g id="line2d_39">
      <path d="M 302.4 354.165517 
L 302.4 261.434483 
" clip-path="url(#p93d65b7461)" style="fill: none; stroke-dasharray: 1.85,0.8; stroke-dashoffset: 0; stroke: #b2b2b2; stroke-width: 0.5"/>
     </g>
     <g id="line2d_40">
      <g>
       <use xlink:href="#mc7d9c10e56" x="302.4" y="354.165517" style="stroke: #000000; stroke-width: 0.8"/>
      </g>
     </g>
    </g>
    <g id="xtick_15">
     <g id="line2d_41">
      <path d="M 463.68 354.165517 
L 463.68 261.434483 
" clip-path="url(#p93d65b7461)" style="fill: none; stroke-dasharray: 1.85,0.8; stroke-dashoffset: 0; stroke: #b2b2b2; stroke-width: 0.5"/>
     </g>
     <g id="line2d_42">
      <g>
       <use xlink:href="#mc7d9c10e56" x="463.68" y="354.165517" style="stroke: #000000; stroke-width: 0.8"/>
      </g>
     </g>
    </g>
    <g id="xtick_16">
     <g id="line2d_43">
      <path d="M 624.96 354.165517 
L 624.96 261.434483 
" clip-path="url(#p93d65b7461)" style="fill: none; stroke-dasharray: 1.85,0.8; stroke-dashoffset: 0; stroke: #b2b2b2; stroke-width: 0.5"/>
     </g>
     <g id="line2d_44">
      <g>
       <use xlink:href="#mc7d9c10e56" x="624.96" y="354.165517" style="stroke: #000000; stroke-width: 0.8"/>
      </g>
     </g>
    </g>
    <g id="xtick_17">
     <g id="line2d_45">
      <path d="M 786.24 354.165517 
L 786.24 261.434483 
" clip-path="url(#p93d65b7461)" style="fill: none; stroke-dasharray: 1.85,0.8; stroke-dashoffset: 0; stroke: #b2b2b2; stroke-width: 0.5"/>
     </g>
     <g id="line2d_46">
      <g>
       <use xlink:href="#mc7d9c10e56" x="786.24" y="354.165517" style="stroke: #000000; stroke-width: 0.8"/>
      </g>
     </g>
    </g>
    <g id="xtick_18">
     <g id="line2d_47">
      <path d="M 947.52 354.165517 
L 947.52 261.434483 
" clip-path="url(#p93d65b7461)" style="fill: none; stroke-dasharray: 1.85,0.8; stroke-dashoffset: 0; stroke: #b2b2b2; stroke-width: 0.5"/>
     </g>
     <g id="line2d_48">
      <g>
       <use xlink:href="#mc7d9c10e56" x="947.52" y="354.165517" style="stroke: #000000; stroke-width: 0.8"/>
      </g>
     </g>
    </g>
   </g>
   <g id="matplotlib.axis_6">
    <g id="ytick_6">
     <g id="line2d_49">
      <path d="M 100.8 343.871819 
L 987.84 343.871819 
" clip-path="url(#p93d65b7461)" style="fill: none; stroke-dasharray: 1.85,0.8; stroke-dashoffset: 0; stroke: #b2b2b2; stroke-width: 0.5"/>
     </g>
     <g id="line2d_50">
      <g>
       <use xlink:href="#mf2abe8de8c" x="100.8" y="343.871819" style="stroke: #000000; stroke-width: 0.8"/>
      </g>
     </g>
     <g id="text_8">
      <!-- 0 V -->
      <g transform="translate(74.36625 349.190725) scale(0.14 -0.14)">
       <use xlink:href="#DejaVuSans-30"/>
       <use xlink:href="#DejaVuSans-20" x="63.623047"/>
       <use xlink:href="#DejaVuSans-56" x="95.410156"/>
      </g>
     </g>
    </g>
    <g id="ytick_7">
     <g id="line2d_51">
      <path d="M 100.8 296.128723 
L 987.84 296.128723 
" clip-path="url(#p93d65b7461)" style="fill: none; stroke-dasharray: 1.85,0.8; stroke-dashoffset: 0; stroke: #b2b2b2; stroke-width: 0.5"/>
     </g>
     <g id="line2d_52">
      <g>
       <use xlink:href="#mf2abe8de8c" x="100.8" y="296.128723" style="stroke: #000000; stroke-width: 0.8"/>
      </g>
     </g>
     <g id="text_9">
      <!-- 1 V -->
      <g transform="translate(74.36625 301.447629) scale(0.14 -0.14)">
       <use xlink:href="#DejaVuSans-31"/>
       <use xlink:href="#DejaVuSans-20" x="63.623047"/>
       <use xlink:href="#DejaVuSans-56" x="95.410156"/>
      </g>
     </g>
    </g>
    <g id="text_10">
     <g id="patch_15">
      <path d="M 34.8768 342.395313 
L 34.8768 273.204688 
L 11.247425 273.204688 
L 11.247425 342.395313 
z
" style="fill: #ffff00; opacity: 0.2; stroke: #eeeeee; stroke-width: 0.5; stroke-linejoin: miter"/>
     </g>
     <!-- CLK BUF -->
     <g transform="translate(26.925238 337.355313) rotate(-90) scale(0.14 -0.14)">
      <defs>
       <path id="DejaVuSans-43" d="M 4122 4306 
L 4122 3641 
Q 3803 3938 3442 4084 
Q 3081 4231 2675 4231 
Q 1875 4231 1450 3742 
Q 1025 3253 1025 2328 
Q 1025 1406 1450 917 
Q 1875 428 2675 428 
Q 3081 428 3442 575 
Q 3803 722 4122 1019 
L 4122 359 
Q 3791 134 3420 21 
Q 3050 -91 2638 -91 
Q 1578 -91 968 557 
Q 359 1206 359 2328 
Q 359 3453 968 4101 
Q 1578 4750 2638 4750 
Q 3056 4750 3426 4639 
Q 3797 4528 4122 4306 
z
" transform="scale(0.015625)"/>
       <path id="DejaVuSans-4b" d="M 628 4666 
L 1259 4666 
L 1259 2694 
L 3353 4666 
L 4166 4666 
L 1850 2491 
L 4331 0 
L 3500 0 
L 1259 2247 
L 1259 0 
L 628 0 
L 628 4666 
z
" transform="scale(0.015625)"/>
      </defs>
      <use xlink:href="#DejaVuSans-43"/>
      <use xlink:href="#DejaVuSans-4c" x="69.824219"/>
      <use xlink:href="#DejaVuSans-4b" x="125.537109"/>
      <use xlink:href="#DejaVuSans-20" x="191.113281"/>
      <use xlink:href="#DejaVuSans-42" x="222.900391"/>
      <use xlink:href="#DejaVuSans-55" x="291.503906"/>
      <use xlink:href="#DejaVuSans-46" x="364.697266"/>
     </g>
    </g>
   </g>
   <g id="line2d_53">
    <path d="M 141.12 343.870557 
L 173.376 343.870557 
L 173.601792 286.580103 
L 213.696 286.580103 
L 213.760512 332.279318 
L 213.825024 343.850008 
L 213.889536 343.781303 
L 213.954048 343.972032 
L 214.01856 343.876993 
L 215.212032 343.86888 
L 222.598656 343.870573 
L 254.016 343.870524 
L 254.17728 286.403454 
L 254.241792 286.70901 
L 254.403072 286.570555 
L 254.8224 286.580103 
L 294.336 286.580103 
L 294.400512 332.239214 
L 294.465024 344.228083 
L 294.529536 343.398007 
L 294.626304 343.946847 
L 294.65856 343.912874 
L 294.852096 343.828958 
L 295.206912 343.889192 
L 295.46496 343.870342 
L 318.20544 343.870558 
L 334.656 343.870559 
L 334.81728 286.494166 
L 334.881792 286.599201 
L 335.172096 286.584878 
L 374.976 286.580103 
L 375.008256 294.032801 
L 375.13728 343.772136 
L 375.266304 343.869284 
L 376.717824 344.046898 
L 377.330688 344.680301 
L 378.104832 345.130948 
L 379.104768 345.410484 
L 380.491776 345.541395 
L 383.169024 345.52225 
L 395.103744 345.326933 
L 396.071424 345.707828 
L 402.522624 349.847345 
L 403.52256 349.312622 
L 404.32896 348.950252 
L 404.457984 348.889619 
L 404.554752 348.909193 
L 404.587008 348.832327 
L 404.845056 348.758803 
L 405.554688 348.473251 
L 408.941568 347.21522 
L 410.29632 346.748198 
L 414.941184 345.289789 
L 415.296 345.180505 
L 415.328256 346.599382 
L 415.521792 319.520453 
L 415.683072 319.355262 
L 416.328192 319.133256 
L 416.392704 319.152353 
L 416.457216 318.974749 
L 416.521728 319.096017 
L 416.58624 319.036338 
L 416.74752 318.866372 
L 416.779776 318.927961 
L 416.812032 318.983343 
L 416.844288 318.844888 
L 416.876544 318.897405 
L 417.005568 318.870192 
L 420.876288 317.377743 
L 423.36 316.006561 
L 426.456576 313.810856 
L 431.004672 310.582945 
L 433.939968 308.676086 
L 437.197824 306.731509 
L 441.197568 304.416447 
L 442.584576 301.516531 
L 444.874752 295.990268 
L 448.100352 288.174723 
L 450.745344 282.187738 
L 451.74528 280.024976 
L 455.616 272.147365 
L 455.841792 342.200429 
L 456.519168 342.222916 
L 461.035008 342.309474 
L 462.55104 342.268176 
L 466.841088 342.399327 
L 467.131392 342.725937 
L 467.776512 343.351181 
L 468.5184 343.768885 
L 469.518336 344.063656 
L 470.9376 344.234056 
L 473.67936 344.305007 
L 483.872256 344.243924 
L 487.033344 344.340432 
L 489.065472 344.41843 
L 495.936 344.357796 
L 496.065024 265.64953 
L 496.226304 266.284513 
L 497.516544 266.967239 
L 498.000384 267.253698 
L 499.516416 268.046233 
L 500.838912 268.700314 
L 504.32256 270.366548 
L 505.161216 270.73417 
L 512.096256 273.694242 
L 512.354304 273.804051 
L 514.192896 274.505874 
L 514.4832 274.615683 
L 515.676672 275.031048 
L 516.031488 275.140857 
L 517.22496 275.556222 
L 517.483008 275.661257 
L 517.902336 275.794938 
L 518.257152 275.899973 
L 518.67648 276.033653 
L 519.031296 276.138688 
L 519.547392 276.320112 
L 519.902208 276.425147 
L 520.321536 276.558827 
L 520.676352 276.663862 
L 521.09568 276.797543 
L 521.450496 276.902578 
L 521.805312 276.988515 
L 527.192064 278.468551 
L 527.643648 278.573586 
L 527.998464 278.659524 
L 530.482176 279.280184 
L 531.030528 279.385219 
L 531.385344 279.471156 
L 532.901376 279.805358 
L 533.449728 279.910393 
L 533.804544 279.99633 
L 534.32064 280.101365 
L 534.675456 280.182528 
L 536.256 280.48331 
L 536.288256 289.105713 
L 536.41728 344.049758 
L 536.675328 344.034714 
L 570.9312 343.927798 
L 576.576 343.917492 
L 576.769536 284.899546 
L 577.188864 284.909095 
L 579.31776 285.018904 
L 579.64032 285.052324 
L 582.414336 285.162133 
L 582.736896 285.195554 
L 585.801216 285.305363 
L 586.123776 285.338783 
L 589.575168 285.448592 
L 589.897728 285.482012 
L 593.83296 285.591821 
L 594.15552 285.625241 
L 598.768128 285.73505 
L 599.090688 285.768471 
L 604.670976 285.87828 
L 604.993536 285.9117 
L 611.928576 286.021509 
L 612.251136 286.054929 
L 616.896 286.102672 
L 616.928256 290.609621 
L 616.992768 344.003084 
L 617.05728 343.713627 
L 617.154048 344.042291 
L 617.21856 343.892529 
L 617.992704 343.889817 
L 624.056832 343.876491 
L 644.055552 343.884215 
L 657.216 343.884189 
L 657.37728 286.007186 
L 657.441792 286.12177 
L 658.312704 286.102672 
L 697.536 286.102672 
L 697.665024 344.236591 
L 697.826304 343.958716 
L 698.084352 343.852349 
L 698.439168 343.904291 
L 698.729472 343.884084 
L 732.953088 343.884225 
L 737.856 343.88423 
L 738.01728 285.854408 
L 738.081792 286.393905 
L 738.17856 285.902151 
L 738.243072 286.083575 
L 738.694656 286.102672 
L 778.176 286.102672 
L 778.305024 344.236395 
L 778.466304 343.958764 
L 778.724352 343.852339 
L 779.079168 343.904277 
L 779.369472 343.884083 
L 813.593088 343.884225 
L 818.496 343.88423 
L 818.65728 285.854408 
L 818.721792 286.393905 
L 818.81856 285.902151 
L 818.883072 286.083575 
L 819.334656 286.102672 
L 858.816 286.102672 
L 858.945024 344.236591 
L 859.106304 343.958716 
L 859.364352 343.852349 
L 859.719168 343.90429 
L 860.009472 343.884084 
L 894.233088 343.884225 
L 899.136 343.88423 
L 899.29728 285.854408 
L 899.361792 286.393905 
L 899.45856 285.902151 
L 899.523072 286.083575 
L 899.974656 286.102672 
L 939.456 286.102672 
L 939.488256 294.710753 
L 939.61728 343.827448 
L 939.649536 343.966279 
L 939.714048 343.833449 
L 939.746304 343.791553 
L 939.810816 343.853177 
L 939.972096 343.947946 
L 940.004352 343.912801 
L 940.197888 343.883438 
L 945.1008 343.884239 
L 947.52 343.884218 
L 947.52 343.884218 
" clip-path="url(#p93d65b7461)" style="fill: none; stroke: #0000ff; stroke-width: 2; stroke-linecap: square"/>
   </g>
   <g id="patch_16">
    <path d="M 100.8 354.165517 
L 100.8 261.434483 
" style="fill: none; stroke: #bcbcbc; stroke-width: 0.8; stroke-linejoin: miter; stroke-linecap: square"/>
   </g>
   <g id="patch_17">
    <path d="M 987.84 354.165517 
L 987.84 261.434483 
" style="fill: none; stroke: #bcbcbc; stroke-width: 0.8; stroke-linejoin: miter; stroke-linecap: square"/>
   </g>
   <g id="patch_18">
    <path d="M 100.8 354.165517 
L 987.84 354.165517 
" style="fill: none; stroke: #bcbcbc; stroke-width: 0.8; stroke-linejoin: miter; stroke-linecap: square"/>
   </g>
   <g id="patch_19">
    <path d="M 100.8 261.434483 
L 987.84 261.434483 
" style="fill: none; stroke: #bcbcbc; stroke-width: 0.8; stroke-linejoin: miter; stroke-linecap: square"/>
   </g>
  </g>
  <g id="axes_4">
   <g id="patch_20">
    <path d="M 100.8 465.442759 
L 987.84 465.442759 
L 987.84 372.711724 
L 100.8 372.711724 
z
" style="fill: #eeeeee"/>
   </g>
   <g id="matplotlib.axis_7">
    <g id="xtick_19">
     <g id="line2d_54">
      <path d="M 141.12 465.442759 
L 141.12 372.711724 
" clip-path="url(#p56aa22d4ef)" style="fill: none; stroke-dasharray: 1.85,0.8; stroke-dashoffset: 0; stroke: #b2b2b2; stroke-width: 0.5"/>
     </g>
     <g id="line2d_55">
      <g>
       <use xlink:href="#mc7d9c10e56" x="141.12" y="465.442759" style="stroke: #000000; stroke-width: 0.8"/>
      </g>
     </g>
    </g>
    <g id="xtick_20">
     <g id="line2d_56">
      <path d="M 302.4 465.442759 
L 302.4 372.711724 
" clip-path="url(#p56aa22d4ef)" style="fill: none; stroke-dasharray: 1.85,0.8; stroke-dashoffset: 0; stroke: #b2b2b2; stroke-width: 0.5"/>
     </g>
     <g id="line2d_57">
      <g>
       <use xlink:href="#mc7d9c10e56" x="302.4" y="465.442759" style="stroke: #000000; stroke-width: 0.8"/>
      </g>
     </g>
    </g>
    <g id="xtick_21">
     <g id="line2d_58">
      <path d="M 463.68 465.442759 
L 463.68 372.711724 
" clip-path="url(#p56aa22d4ef)" style="fill: none; stroke-dasharray: 1.85,0.8; stroke-dashoffset: 0; stroke: #b2b2b2; stroke-width: 0.5"/>
     </g>
     <g id="line2d_59">
      <g>
       <use xlink:href="#mc7d9c10e56" x="463.68" y="465.442759" style="stroke: #000000; stroke-width: 0.8"/>
      </g>
     </g>
    </g>
    <g id="xtick_22">
     <g id="line2d_60">
      <path d="M 624.96 465.442759 
L 624.96 372.711724 
" clip-path="url(#p56aa22d4ef)" style="fill: none; stroke-dasharray: 1.85,0.8; stroke-dashoffset: 0; stroke: #b2b2b2; stroke-width: 0.5"/>
     </g>
     <g id="line2d_61">
      <g>
       <use xlink:href="#mc7d9c10e56" x="624.96" y="465.442759" style="stroke: #000000; stroke-width: 0.8"/>
      </g>
     </g>
    </g>
    <g id="xtick_23">
     <g id="line2d_62">
      <path d="M 786.24 465.442759 
L 786.24 372.711724 
" clip-path="url(#p56aa22d4ef)" style="fill: none; stroke-dasharray: 1.85,0.8; stroke-dashoffset: 0; stroke: #b2b2b2; stroke-width: 0.5"/>
     </g>
     <g id="line2d_63">
      <g>
       <use xlink:href="#mc7d9c10e56" x="786.24" y="465.442759" style="stroke: #000000; stroke-width: 0.8"/>
      </g>
     </g>
    </g>
    <g id="xtick_24">
     <g id="line2d_64">
      <path d="M 947.52 465.442759 
L 947.52 372.711724 
" clip-path="url(#p56aa22d4ef)" style="fill: none; stroke-dasharray: 1.85,0.8; stroke-dashoffset: 0; stroke: #b2b2b2; stroke-width: 0.5"/>
     </g>
     <g id="line2d_65">
      <g>
       <use xlink:href="#mc7d9c10e56" x="947.52" y="465.442759" style="stroke: #000000; stroke-width: 0.8"/>
      </g>
     </g>
    </g>
   </g>
   <g id="matplotlib.axis_8">
    <g id="ytick_8">
     <g id="line2d_66">
      <path d="M 100.8 439.186468 
L 987.84 439.186468 
" clip-path="url(#p56aa22d4ef)" style="fill: none; stroke-dasharray: 1.85,0.8; stroke-dashoffset: 0; stroke: #b2b2b2; stroke-width: 0.5"/>
     </g>
     <g id="line2d_67">
      <g>
       <use xlink:href="#mf2abe8de8c" x="100.8" y="439.186468" style="stroke: #000000; stroke-width: 0.8"/>
      </g>
     </g>
     <g id="text_11">
      <!-- 0 V -->
      <g transform="translate(74.36625 444.505374) scale(0.14 -0.14)">
       <use xlink:href="#DejaVuSans-30"/>
       <use xlink:href="#DejaVuSans-20" x="63.623047"/>
       <use xlink:href="#DejaVuSans-56" x="95.410156"/>
      </g>
     </g>
    </g>
    <g id="ytick_9">
     <g id="line2d_68">
      <path d="M 100.8 400.611687 
L 987.84 400.611687 
" clip-path="url(#p56aa22d4ef)" style="fill: none; stroke-dasharray: 1.85,0.8; stroke-dashoffset: 0; stroke: #b2b2b2; stroke-width: 0.5"/>
     </g>
     <g id="line2d_69">
      <g>
       <use xlink:href="#mf2abe8de8c" x="100.8" y="400.611687" style="stroke: #000000; stroke-width: 0.8"/>
      </g>
     </g>
     <g id="text_12">
      <!-- 1 V -->
      <g transform="translate(74.36625 405.930593) scale(0.14 -0.14)">
       <use xlink:href="#DejaVuSans-31"/>
       <use xlink:href="#DejaVuSans-20" x="63.623047"/>
       <use xlink:href="#DejaVuSans-56" x="95.410156"/>
      </g>
     </g>
    </g>
    <g id="text_13">
     <g id="patch_21">
      <path d="M 34.8768 454.693023 
L 34.8768 383.46146 
L 11.247425 383.46146 
L 11.247425 454.693023 
z
" style="fill: #ffff00; opacity: 0.2; stroke: #eeeeee; stroke-width: 0.5; stroke-linejoin: miter"/>
     </g>
     <!-- DFF OUT -->
     <g transform="translate(26.925238 449.653023) rotate(-90) scale(0.14 -0.14)">
      <defs>
       <path id="DejaVuSans-4f" d="M 2522 4238 
Q 1834 4238 1429 3725 
Q 1025 3213 1025 2328 
Q 1025 1447 1429 934 
Q 1834 422 2522 422 
Q 3209 422 3611 934 
Q 4013 1447 4013 2328 
Q 4013 3213 3611 3725 
Q 3209 4238 2522 4238 
z
M 2522 4750 
Q 3503 4750 4090 4092 
Q 4678 3434 4678 2328 
Q 4678 1225 4090 567 
Q 3503 -91 2522 -91 
Q 1538 -91 948 565 
Q 359 1222 359 2328 
Q 359 3434 948 4092 
Q 1538 4750 2522 4750 
z
" transform="scale(0.015625)"/>
       <path id="DejaVuSans-54" d="M -19 4666 
L 3928 4666 
L 3928 4134 
L 2272 4134 
L 2272 0 
L 1638 0 
L 1638 4134 
L -19 4134 
L -19 4666 
z
" transform="scale(0.015625)"/>
      </defs>
      <use xlink:href="#DejaVuSans-44"/>
      <use xlink:href="#DejaVuSans-46" x="77.001953"/>
      <use xlink:href="#DejaVuSans-46" x="134.521484"/>
      <use xlink:href="#DejaVuSans-20" x="192.041016"/>
      <use xlink:href="#DejaVuSans-4f" x="223.828125"/>
      <use xlink:href="#DejaVuSans-55" x="302.539062"/>
      <use xlink:href="#DejaVuSans-54" x="375.732422"/>
     </g>
    </g>
   </g>
   <g id="line2d_70">
    <path d="M 141.12 410.080638 
L 173.408256 410.127699 
L 173.440512 411.724695 
L 173.601792 439.188822 
L 174.150144 439.184684 
L 184.697856 439.185444 
L 254.048256 439.187055 
L 254.080512 439.34126 
L 254.112768 439.086185 
L 254.306304 435.320117 
L 254.596608 434.565209 
L 254.693376 434.026705 
L 255.14496 427.268403 
L 255.370752 411.38408 
L 255.596544 393.270906 
L 255.757824 392.954593 
L 255.983616 392.892873 
L 256.951296 392.89673 
L 295.755264 392.97388 
L 296.239104 395.469668 
L 296.59392 394.844757 
L 297.948672 393.213044 
L 299.593728 392.92759 
L 334.688256 392.91216 
L 334.720512 392.800294 
L 334.752768 393.367343 
L 334.785024 396.171729 
L 334.914048 439.170655 
L 334.97856 439.136706 
L 335.13984 439.178383 
L 335.526912 439.185796 
L 367.815168 439.185405 
L 376.685568 439.291557 
L 377.330688 439.83977 
L 378.169344 440.224862 
L 379.201536 440.443157 
L 380.78208 440.54106 
L 384.362496 440.485936 
L 386.813952 440.305831 
L 387.620352 440.055287 
L 388.03968 439.722773 
L 388.329984 439.166757 
L 388.555776 438.244896 
L 388.749312 436.393769 
L 389.00736 430.966953 
L 389.297664 426.226884 
L 389.523456 426.269702 
L 389.587968 426.362282 
L 389.620224 426.164393 
L 389.65248 426.372311 
L 389.878272 427.015353 
L 390.78144 430.763278 
L 391.329792 433.083551 
L 391.362048 433.01296 
L 391.394304 432.751037 
L 391.42656 432.784211 
L 391.58784 434.159016 
L 392.07168 436.155068 
L 392.103936 435.642872 
L 392.168448 436.255517 
L 392.361984 437.30236 
L 392.7168 438.640249 
L 392.749056 438.20119 
L 392.813568 438.802332 
L 392.845824 438.572781 
L 393.007104 439.815236 
L 393.329664 441.041413 
L 393.36192 440.992423 
L 393.426432 440.835732 
L 393.490944 441.542847 
L 393.555456 441.348275 
L 394.103808 443.613309 
L 394.200576 443.486398 
L 394.16832 443.692388 
L 394.232832 443.566248 
L 394.49088 444.186531 
L 394.587648 444.842302 
L 394.619904 444.736993 
L 394.684416 444.703047 
L 394.748928 445.088409 
L 394.781184 445.017431 
L 394.942464 445.684775 
L 395.361792 446.568138 
L 395.394048 446.469 
L 395.587584 446.73208 
L 395.9424 447.409839 
L 396.006912 447.893181 
L 396.071424 447.816803 
L 396.10368 447.778614 
L 396.458496 449.018022 
L 397.39392 451.157379 
L 398.20032 452.887458 
L 398.232576 452.74396 
L 398.297088 452.882058 
L 400.651776 457.905651 
L 400.684032 457.857819 
L 400.716288 457.923782 
L 402.038784 460.640989 
L 402.07104 460.615144 
L 402.135552 460.648704 
L 402.458112 461.227712 
L 402.490368 461.095014 
L 402.651648 460.992405 
L 403.264512 459.916941 
L 403.296768 459.723295 
L 403.393536 459.809703 
L 404.49024 457.8069 
L 404.619264 457.368691 
L 404.748288 457.523761 
L 404.780544 457.426167 
L 405.038592 456.94784 
L 405.103104 457.043891 
L 405.264384 456.626126 
L 406.651392 455.142926 
L 406.844928 454.959695 
L 407.232 454.302767 
L 407.39328 454.12378 
L 407.425536 454.277693 
L 407.457792 454.052031 
L 407.490048 454.225232 
L 407.683584 453.794351 
L 407.71584 453.891174 
L 407.748096 453.662811 
L 407.87712 453.553645 
L 408.36096 453.066445 
L 408.393216 453.260476 
L 408.425472 453.009355 
L 408.457728 453.203 
L 408.651264 452.820724 
L 409.16736 452.510197 
L 409.457664 452.160324 
L 409.6512 451.78962 
L 409.909248 451.466749 
L 409.941504 451.52654 
L 409.97376 451.35874 
L 410.038272 451.44399 
L 410.070528 451.279661 
L 410.102784 451.404258 
L 410.13504 451.305121 
L 410.328576 450.973378 
L 410.586624 450.717627 
L 410.61888 450.982636 
L 410.651136 450.675195 
L 410.715648 450.903171 
L 410.909184 450.696796 
L 411.038208 450.312592 
L 411.167232 450.21384 
L 411.199488 450.38897 
L 411.264 450.151349 
L 411.296256 450.242 
L 411.328512 450.097344 
L 412.0704 449.609373 
L 412.328448 449.243684 
L 412.521984 448.84675 
L 412.780032 448.525422 
L 412.812288 448.687436 
L 412.844544 448.453287 
L 412.973568 448.322133 
L 413.005824 448.644232 
L 413.03808 448.335634 
L 413.070336 448.17092 
L 413.102592 448.180178 
L 413.134848 448.521565 
L 413.19936 448.098013 
L 413.747712 447.610042 
L 415.102464 446.686176 
L 415.263744 446.446241 
L 415.392768 446.068208 
L 415.45728 446.305829 
L 415.586304 445.792013 
L 415.61856 445.770411 
L 415.650816 445.886521 
L 415.683072 445.660087 
L 415.715328 445.655073 
L 415.747584 446.042363 
L 415.812096 445.538191 
L 415.908864 445.59181 
L 415.94112 445.412823 
L 416.005632 445.580623 
L 416.1024 445.415523 
L 416.134656 445.708691 
L 416.166912 445.19989 
L 416.199168 445.492287 
L 416.231424 445.535105 
L 416.295936 445.09921 
L 416.360448 445.133927 
L 416.392704 445.320629 
L 416.42496 445.251966 
L 416.521728 445.358047 
L 416.553984 444.873933 
L 416.58624 445.17636 
L 416.650752 444.85156 
L 416.683008 444.865447 
L 416.715264 445.200662 
L 416.74752 444.801027 
L 416.812032 445.098438 
L 416.941056 444.713462 
L 417.489408 444.551062 
L 418.295808 443.82277 
L 419.069952 442.614107 
L 419.102208 443.077891 
L 419.16672 442.476318 
L 419.198976 442.498498 
L 419.231232 442.939909 
L 419.295744 442.411551 
L 419.48928 442.53769 
L 419.521536 442.701594 
L 419.65056 442.113676 
L 419.779584 442.058977 
L 419.81184 442.43836 
L 419.876352 442.300301 
L 419.940864 441.945529 
L 420.005376 442.087908 
L 420.037632 442.054888 
L 420.069888 442.200392 
L 420.102144 441.887551 
L 420.1344 442.006593 
L 420.166656 442.084475 
L 420.198912 441.963775 
L 420.263424 442.029737 
L 421.198848 441.199145 
L 422.005248 440.297421 
L 422.134272 439.646202 
L 422.23104 439.710583 
L 422.263296 439.788273 
L 422.295552 439.649558 
L 422.327808 439.638062 
L 422.360064 439.231696 
L 422.456832 439.277735 
L 422.489088 439.184135 
L 422.521344 439.408654 
L 422.5536 439.2252 
L 422.585856 439.375966 
L 422.650368 439.250093 
L 422.87616 438.909007 
L 423.52128 437.795962 
L 423.585792 436.992373 
L 423.68256 437.09718 
L 423.714816 437.354821 
L 423.779328 437.184629 
L 423.876096 436.650253 
L 423.908352 437.088192 
L 423.972864 436.657543 
L 424.198656 436.602613 
L 425.037312 435.031578 
L 425.166336 434.34919 
L 425.198592 434.366549 
L 425.359872 433.910981 
L 425.521152 434.071066 
L 425.585664 434.019376 
L 426.650112 432.053991 
L 426.682368 432.095266 
L 426.714624 431.435251 
L 426.811392 431.53246 
L 426.843648 431.745778 
L 426.940416 431.649341 
L 427.392 430.869359 
L 427.456512 430.578891 
L 427.521024 430.644468 
L 427.908096 429.820896 
L 427.940352 429.908847 
L 428.004864 429.77885 
L 429.133824 427.655694 
L 429.16608 427.865927 
L 429.198336 427.767561 
L 429.32736 427.462049 
L 429.359616 427.534569 
L 429.391872 427.509496 
L 429.424128 427.282676 
L 429.48864 427.435818 
L 429.907968 426.830965 
L 430.488576 425.723098 
L 430.649856 424.90917 
L 430.714368 424.779944 
L 430.746624 424.997892 
L 430.811136 424.700094 
L 431.58528 422.794886 
L 431.843328 422.171903 
L 432.423936 420.785911 
L 432.488448 420.539804 
L 432.55296 420.600752 
L 432.681984 420.593809 
L 432.843264 420.421765 
L 435.649536 415.747659 
L 435.681792 415.781219 
L 435.746304 415.697126 
L 436.391424 414.944918 
L 436.552704 415.007409 
L 436.649472 415.362297 
L 436.74624 416.40073 
L 436.939776 428.344254 
L 437.101056 438.579223 
L 437.326848 438.66131 
L 439.875072 438.770246 
L 441.165312 438.712576 
L 441.874944 438.12597 
L 442.681344 437.773936 
L 443.778048 437.559846 
L 445.519872 437.485975 
L 449.9712 437.618017 
L 460.873728 437.940039 
L 462.8736 437.900461 
L 466.937856 438.064211 
L 467.679744 438.718093 
L 468.5184 439.116312 
L 469.615104 439.368213 
L 471.324672 439.50854 
L 475.45344 439.546694 
L 488.065536 439.618158 
L 492.742656 439.613799 
L 495.968256 439.575687 
L 496.000512 439.883552 
L 496.290816 430.590463 
L 496.484352 428.898959 
L 496.645632 424.659591 
L 496.839168 409.004016 
L 497.129472 376.984633 
L 497.258496 376.946059 
L 498.742272 377.594115 
L 499.097088 377.752271 
L 500.61312 378.357896 
L 506.483712 380.579803 
L 507.515904 380.953978 
L 512.096256 382.485397 
L 512.38656 382.585692 
L 514.579968 383.256893 
L 514.902528 383.357187 
L 516.321792 383.758365 
L 516.74112 383.858659 
L 518.160384 384.259837 
L 518.579712 384.360131 
L 519.80544 384.68416 
L 520.224768 384.784454 
L 521.224704 385.027475 
L 522.160128 385.247351 
L 522.934272 385.41708 
L 523.321344 385.517375 
L 524.095488 385.687104 
L 524.579328 385.787398 
L 525.353472 385.957127 
L 525.740544 386.057422 
L 526.41792 386.188576 
L 526.90176 386.28887 
L 527.579136 386.420025 
L 528.062976 386.520319 
L 528.740352 386.651473 
L 529.224192 386.751768 
L 529.901568 386.882922 
L 530.385408 386.983217 
L 530.966016 387.075796 
L 531.449856 387.17609 
L 532.030464 387.26867 
L 532.611072 387.368964 
L 533.19168 387.461544 
L 533.67552 387.561838 
L 534.256128 387.654418 
L 534.836736 387.754712 
L 535.417344 387.847292 
L 536.09472 387.943729 
L 536.288256 387.993876 
L 536.320512 387.901296 
L 536.385024 388.051738 
L 536.546304 388.009306 
L 537.159168 388.117315 
L 537.836544 388.213752 
L 538.19136 388.271614 
L 538.900992 388.368051 
L 539.255808 388.425913 
L 540.062208 388.52235 
L 540.417024 388.580212 
L 541.126656 388.676649 
L 541.481472 388.734512 
L 542.38464 388.830949 
L 542.739456 388.888811 
L 543.545856 388.985248 
L 543.900672 389.04311 
L 544.80384 389.139547 
L 545.094144 389.158834 
L 545.868288 389.255271 
L 546.223104 389.313133 
L 547.22304 389.40957 
L 547.577856 389.467432 
L 548.577792 389.563869 
L 548.868096 389.583157 
L 549.739008 389.679594 
L 550.029312 389.698881 
L 550.900224 389.795318 
L 551.190528 389.814605 
L 552.06144 389.911042 
L 552.351744 389.93033 
L 553.319424 390.026767 
L 553.609728 390.046054 
L 554.577408 390.142491 
L 554.867712 390.161778 
L 555.93216 390.258215 
L 556.222464 390.277503 
L 557.38368 390.37394 
L 557.673984 390.393227 
L 558.8352 390.489664 
L 559.125504 390.508952 
L 560.383488 390.605388 
L 560.673792 390.624676 
L 562.028544 390.721113 
L 562.318848 390.7404 
L 563.770368 390.836837 
L 564.060672 390.856125 
L 565.512192 390.952561 
L 565.77024 390.967991 
L 567.447552 391.068286 
L 567.737856 391.087573 
L 569.511936 391.195583 
L 569.995776 391.203298 
L 570.60864 391.241872 
L 572.511744 391.349882 
L 573.83424 391.396171 
L 575.7696 391.492608 
L 576.059904 391.511896 
L 576.608256 391.515753 
L 576.640512 391.727915 
L 576.705024 391.542756 
L 579.350016 391.646908 
L 579.608064 391.662337 
L 582.446592 391.762632 
L 582.70464 391.778062 
L 585.833472 391.878356 
L 586.188288 391.897644 
L 589.607424 391.994081 
L 589.865472 392.00951 
L 593.865216 392.109805 
L 594.123264 392.125235 
L 598.800384 392.225529 
L 599.1552 392.240959 
L 604.703232 392.341254 
L 605.058048 392.360541 
L 611.993088 392.46855 
L 612.960768 392.472408 
L 657.248256 392.526413 
L 657.280512 392.657567 
L 657.345024 392.480123 
L 657.635328 392.503268 
L 737.888256 392.507125 
L 737.920512 392.703857 
L 737.985024 392.507125 
L 738.17856 392.487838 
L 739.30752 392.510983 
L 818.528256 392.507125 
L 818.560512 392.703857 
L 818.625024 392.507125 
L 818.81856 392.487838 
L 819.94752 392.510983 
L 899.168256 392.507125 
L 899.200512 392.703857 
L 899.265024 392.507125 
L 899.45856 392.487838 
L 900.58752 392.510983 
L 947.52 392.510983 
L 947.52 392.510983 
" clip-path="url(#p56aa22d4ef)" style="fill: none; stroke: #ff00ff; stroke-width: 2; stroke-linecap: square"/>
   </g>
   <g id="patch_22">
    <path d="M 100.8 465.442759 
L 100.8 372.711724 
" style="fill: none; stroke: #bcbcbc; stroke-width: 0.8; stroke-linejoin: miter; stroke-linecap: square"/>
   </g>
   <g id="patch_23">
    <path d="M 987.84 465.442759 
L 987.84 372.711724 
" style="fill: none; stroke: #bcbcbc; stroke-width: 0.8; stroke-linejoin: miter; stroke-linecap: square"/>
   </g>
   <g id="patch_24">
    <path d="M 100.8 465.442759 
L 987.84 465.442759 
" style="fill: none; stroke: #bcbcbc; stroke-width: 0.8; stroke-linejoin: miter; stroke-linecap: square"/>
   </g>
   <g id="patch_25">
    <path d="M 100.8 372.711724 
L 987.84 372.711724 
" style="fill: none; stroke: #bcbcbc; stroke-width: 0.8; stroke-linejoin: miter; stroke-linecap: square"/>
   </g>
  </g>
  <g id="axes_5">
   <g id="patch_26">
    <path d="M 100.8 576.72 
L 987.84 576.72 
L 987.84 483.988966 
L 100.8 483.988966 
z
" style="fill: #eeeeee"/>
   </g>
   <g id="matplotlib.axis_9">
    <g id="xtick_25">
     <g id="line2d_71">
      <path d="M 141.12 576.72 
L 141.12 483.988966 
" clip-path="url(#p0d028093f0)" style="fill: none; stroke-dasharray: 1.85,0.8; stroke-dashoffset: 0; stroke: #b2b2b2; stroke-width: 0.5"/>
     </g>
     <g id="line2d_72">
      <g>
       <use xlink:href="#mc7d9c10e56" x="141.12" y="576.72" style="stroke: #000000; stroke-width: 0.8"/>
      </g>
     </g>
     <g id="text_14">
      <!-- 0 s -->
      <g transform="translate(130.795 590.857813) scale(0.14 -0.14)">
       <defs>
        <path id="DejaVuSans-73" d="M 2834 3397 
L 2834 2853 
Q 2591 2978 2328 3040 
Q 2066 3103 1784 3103 
Q 1356 3103 1142 2972 
Q 928 2841 928 2578 
Q 928 2378 1081 2264 
Q 1234 2150 1697 2047 
L 1894 2003 
Q 2506 1872 2764 1633 
Q 3022 1394 3022 966 
Q 3022 478 2636 193 
Q 2250 -91 1575 -91 
Q 1294 -91 989 -36 
Q 684 19 347 128 
L 347 722 
Q 666 556 975 473 
Q 1284 391 1588 391 
Q 1994 391 2212 530 
Q 2431 669 2431 922 
Q 2431 1156 2273 1281 
Q 2116 1406 1581 1522 
L 1381 1569 
Q 847 1681 609 1914 
Q 372 2147 372 2553 
Q 372 3047 722 3315 
Q 1072 3584 1716 3584 
Q 2034 3584 2315 3537 
Q 2597 3491 2834 3397 
z
" transform="scale(0.015625)"/>
       </defs>
       <use xlink:href="#DejaVuSans-30"/>
       <use xlink:href="#DejaVuSans-20" x="63.623047"/>
       <use xlink:href="#DejaVuSans-73" x="95.410156"/>
      </g>
     </g>
    </g>
    <g id="xtick_26">
     <g id="line2d_73">
      <path d="M 302.4 576.72 
L 302.4 483.988966 
" clip-path="url(#p0d028093f0)" style="fill: none; stroke-dasharray: 1.85,0.8; stroke-dashoffset: 0; stroke: #b2b2b2; stroke-width: 0.5"/>
     </g>
     <g id="line2d_74">
      <g>
       <use xlink:href="#mc7d9c10e56" x="302.4" y="576.72" style="stroke: #000000; stroke-width: 0.8"/>
      </g>
     </g>
     <g id="text_15">
      <!-- 50 ns -->
      <g transform="translate(283.185 590.857813) scale(0.14 -0.14)">
       <defs>
        <path id="DejaVuSans-35" d="M 691 4666 
L 3169 4666 
L 3169 4134 
L 1269 4134 
L 1269 2991 
Q 1406 3038 1543 3061 
Q 1681 3084 1819 3084 
Q 2600 3084 3056 2656 
Q 3513 2228 3513 1497 
Q 3513 744 3044 326 
Q 2575 -91 1722 -91 
Q 1428 -91 1123 -41 
Q 819 9 494 109 
L 494 744 
Q 775 591 1075 516 
Q 1375 441 1709 441 
Q 2250 441 2565 725 
Q 2881 1009 2881 1497 
Q 2881 1984 2565 2268 
Q 2250 2553 1709 2553 
Q 1456 2553 1204 2497 
Q 953 2441 691 2322 
L 691 4666 
z
" transform="scale(0.015625)"/>
        <path id="DejaVuSans-6e" d="M 3513 2113 
L 3513 0 
L 2938 0 
L 2938 2094 
Q 2938 2591 2744 2837 
Q 2550 3084 2163 3084 
Q 1697 3084 1428 2787 
Q 1159 2491 1159 1978 
L 1159 0 
L 581 0 
L 581 3500 
L 1159 3500 
L 1159 2956 
Q 1366 3272 1645 3428 
Q 1925 3584 2291 3584 
Q 2894 3584 3203 3211 
Q 3513 2838 3513 2113 
z
" transform="scale(0.015625)"/>
       </defs>
       <use xlink:href="#DejaVuSans-35"/>
       <use xlink:href="#DejaVuSans-30" x="63.623047"/>
       <use xlink:href="#DejaVuSans-20" x="127.246094"/>
       <use xlink:href="#DejaVuSans-6e" x="159.033203"/>
       <use xlink:href="#DejaVuSans-73" x="222.412109"/>
      </g>
     </g>
    </g>
    <g id="xtick_27">
     <g id="line2d_75">
      <path d="M 463.68 576.72 
L 463.68 483.988966 
" clip-path="url(#p0d028093f0)" style="fill: none; stroke-dasharray: 1.85,0.8; stroke-dashoffset: 0; stroke: #b2b2b2; stroke-width: 0.5"/>
     </g>
     <g id="line2d_76">
      <g>
       <use xlink:href="#mc7d9c10e56" x="463.68" y="576.72" style="stroke: #000000; stroke-width: 0.8"/>
      </g>
     </g>
     <g id="text_16">
      <!-- 100 ns -->
      <g transform="translate(440.01125 590.857813) scale(0.14 -0.14)">
       <use xlink:href="#DejaVuSans-31"/>
       <use xlink:href="#DejaVuSans-30" x="63.623047"/>
       <use xlink:href="#DejaVuSans-30" x="127.246094"/>
       <use xlink:href="#DejaVuSans-20" x="190.869141"/>
       <use xlink:href="#DejaVuSans-6e" x="222.65625"/>
       <use xlink:href="#DejaVuSans-73" x="286.035156"/>
      </g>
     </g>
    </g>
    <g id="xtick_28">
     <g id="line2d_77">
      <path d="M 624.96 576.72 
L 624.96 483.988966 
" clip-path="url(#p0d028093f0)" style="fill: none; stroke-dasharray: 1.85,0.8; stroke-dashoffset: 0; stroke: #b2b2b2; stroke-width: 0.5"/>
     </g>
     <g id="line2d_78">
      <g>
       <use xlink:href="#mc7d9c10e56" x="624.96" y="576.72" style="stroke: #000000; stroke-width: 0.8"/>
      </g>
     </g>
     <g id="text_17">
      <!-- 150 ns -->
      <g transform="translate(601.29125 590.857813) scale(0.14 -0.14)">
       <use xlink:href="#DejaVuSans-31"/>
       <use xlink:href="#DejaVuSans-35" x="63.623047"/>
       <use xlink:href="#DejaVuSans-30" x="127.246094"/>
       <use xlink:href="#DejaVuSans-20" x="190.869141"/>
       <use xlink:href="#DejaVuSans-6e" x="222.65625"/>
       <use xlink:href="#DejaVuSans-73" x="286.035156"/>
      </g>
     </g>
    </g>
    <g id="xtick_29">
     <g id="line2d_79">
      <path d="M 786.24 576.72 
L 786.24 483.988966 
" clip-path="url(#p0d028093f0)" style="fill: none; stroke-dasharray: 1.85,0.8; stroke-dashoffset: 0; stroke: #b2b2b2; stroke-width: 0.5"/>
     </g>
     <g id="line2d_80">
      <g>
       <use xlink:href="#mc7d9c10e56" x="786.24" y="576.72" style="stroke: #000000; stroke-width: 0.8"/>
      </g>
     </g>
     <g id="text_18">
      <!-- 200 ns -->
      <g transform="translate(762.57125 590.857813) scale(0.14 -0.14)">
       <use xlink:href="#DejaVuSans-32"/>
       <use xlink:href="#DejaVuSans-30" x="63.623047"/>
       <use xlink:href="#DejaVuSans-30" x="127.246094"/>
       <use xlink:href="#DejaVuSans-20" x="190.869141"/>
       <use xlink:href="#DejaVuSans-6e" x="222.65625"/>
       <use xlink:href="#DejaVuSans-73" x="286.035156"/>
      </g>
     </g>
    </g>
    <g id="xtick_30">
     <g id="line2d_81">
      <path d="M 947.52 576.72 
L 947.52 483.988966 
" clip-path="url(#p0d028093f0)" style="fill: none; stroke-dasharray: 1.85,0.8; stroke-dashoffset: 0; stroke: #b2b2b2; stroke-width: 0.5"/>
     </g>
     <g id="line2d_82">
      <g>
       <use xlink:href="#mc7d9c10e56" x="947.52" y="576.72" style="stroke: #000000; stroke-width: 0.8"/>
      </g>
     </g>
     <g id="text_19">
      <!-- 250 ns -->
      <g transform="translate(923.85125 590.857813) scale(0.14 -0.14)">
       <use xlink:href="#DejaVuSans-32"/>
       <use xlink:href="#DejaVuSans-35" x="63.623047"/>
       <use xlink:href="#DejaVuSans-30" x="127.246094"/>
       <use xlink:href="#DejaVuSans-20" x="190.869141"/>
       <use xlink:href="#DejaVuSans-6e" x="222.65625"/>
       <use xlink:href="#DejaVuSans-73" x="286.035156"/>
      </g>
     </g>
    </g>
    <g id="text_20">
     <!-- Time -->
     <g transform="translate(527.192969 608.407187) scale(0.14 -0.14)">
      <defs>
       <path id="DejaVuSans-69" d="M 603 3500 
L 1178 3500 
L 1178 0 
L 603 0 
L 603 3500 
z
M 603 4863 
L 1178 4863 
L 1178 4134 
L 603 4134 
L 603 4863 
z
" transform="scale(0.015625)"/>
       <path id="DejaVuSans-6d" d="M 3328 2828 
Q 3544 3216 3844 3400 
Q 4144 3584 4550 3584 
Q 5097 3584 5394 3201 
Q 5691 2819 5691 2113 
L 5691 0 
L 5113 0 
L 5113 2094 
Q 5113 2597 4934 2840 
Q 4756 3084 4391 3084 
Q 3944 3084 3684 2787 
Q 3425 2491 3425 1978 
L 3425 0 
L 2847 0 
L 2847 2094 
Q 2847 2600 2669 2842 
Q 2491 3084 2119 3084 
Q 1678 3084 1418 2786 
Q 1159 2488 1159 1978 
L 1159 0 
L 581 0 
L 581 3500 
L 1159 3500 
L 1159 2956 
Q 1356 3278 1631 3431 
Q 1906 3584 2284 3584 
Q 2666 3584 2933 3390 
Q 3200 3197 3328 2828 
z
" transform="scale(0.015625)"/>
       <path id="DejaVuSans-65" d="M 3597 1894 
L 3597 1613 
L 953 1613 
Q 991 1019 1311 708 
Q 1631 397 2203 397 
Q 2534 397 2845 478 
Q 3156 559 3463 722 
L 3463 178 
Q 3153 47 2828 -22 
Q 2503 -91 2169 -91 
Q 1331 -91 842 396 
Q 353 884 353 1716 
Q 353 2575 817 3079 
Q 1281 3584 2069 3584 
Q 2775 3584 3186 3129 
Q 3597 2675 3597 1894 
z
M 3022 2063 
Q 3016 2534 2758 2815 
Q 2500 3097 2075 3097 
Q 1594 3097 1305 2825 
Q 1016 2553 972 2059 
L 3022 2063 
z
" transform="scale(0.015625)"/>
      </defs>
      <use xlink:href="#DejaVuSans-54"/>
      <use xlink:href="#DejaVuSans-69" x="57.958984"/>
      <use xlink:href="#DejaVuSans-6d" x="85.742188"/>
      <use xlink:href="#DejaVuSans-65" x="183.154297"/>
     </g>
    </g>
   </g>
   <g id="matplotlib.axis_10">
    <g id="ytick_10">
     <g id="line2d_83">
      <path d="M 100.8 569.737898 
L 987.84 569.737898 
" clip-path="url(#p0d028093f0)" style="fill: none; stroke-dasharray: 1.85,0.8; stroke-dashoffset: 0; stroke: #b2b2b2; stroke-width: 0.5"/>
     </g>
     <g id="line2d_84">
      <g>
       <use xlink:href="#mf2abe8de8c" x="100.8" y="569.737898" style="stroke: #000000; stroke-width: 0.8"/>
      </g>
     </g>
     <g id="text_21">
      <!-- 0 V -->
      <g transform="translate(74.36625 575.056805) scale(0.14 -0.14)">
       <use xlink:href="#DejaVuSans-30"/>
       <use xlink:href="#DejaVuSans-20" x="63.623047"/>
       <use xlink:href="#DejaVuSans-56" x="95.410156"/>
      </g>
     </g>
    </g>
    <g id="ytick_11">
     <g id="line2d_85">
      <path d="M 100.8 535.84453 
L 987.84 535.84453 
" clip-path="url(#p0d028093f0)" style="fill: none; stroke-dasharray: 1.85,0.8; stroke-dashoffset: 0; stroke: #b2b2b2; stroke-width: 0.5"/>
     </g>
     <g id="line2d_86">
      <g>
       <use xlink:href="#mf2abe8de8c" x="100.8" y="535.84453" style="stroke: #000000; stroke-width: 0.8"/>
      </g>
     </g>
     <g id="text_22">
      <!-- 500 mV -->
      <g transform="translate(42.914375 541.163437) scale(0.14 -0.14)">
       <use xlink:href="#DejaVuSans-35"/>
       <use xlink:href="#DejaVuSans-30" x="63.623047"/>
       <use xlink:href="#DejaVuSans-30" x="127.246094"/>
       <use xlink:href="#DejaVuSans-20" x="190.869141"/>
       <use xlink:href="#DejaVuSans-6d" x="222.65625"/>
       <use xlink:href="#DejaVuSans-56" x="320.068359"/>
      </g>
     </g>
    </g>
    <g id="ytick_12">
     <g id="line2d_87">
      <path d="M 100.8 501.951163 
L 987.84 501.951163 
" clip-path="url(#p0d028093f0)" style="fill: none; stroke-dasharray: 1.85,0.8; stroke-dashoffset: 0; stroke: #b2b2b2; stroke-width: 0.5"/>
     </g>
     <g id="line2d_88">
      <g>
       <use xlink:href="#mf2abe8de8c" x="100.8" y="501.951163" style="stroke: #000000; stroke-width: 0.8"/>
      </g>
     </g>
     <g id="text_23">
      <!-- 1 V -->
      <g transform="translate(74.36625 507.270069) scale(0.14 -0.14)">
       <use xlink:href="#DejaVuSans-31"/>
       <use xlink:href="#DejaVuSans-20" x="63.623047"/>
       <use xlink:href="#DejaVuSans-56" x="95.410156"/>
      </g>
     </g>
    </g>
    <g id="text_24">
     <g id="patch_27">
      <path d="M 34.8768 554.329483 
L 34.8768 506.379483 
L 11.247425 506.379483 
L 11.247425 554.329483 
z
" style="fill: #ffff00; opacity: 0.2; stroke: #eeeeee; stroke-width: 0.5; stroke-linejoin: miter"/>
     </g>
     <!-- FOUT -->
     <g transform="translate(26.925238 549.289483) rotate(-90) scale(0.14 -0.14)">
      <use xlink:href="#DejaVuSans-46"/>
      <use xlink:href="#DejaVuSans-4f" x="57.519531"/>
      <use xlink:href="#DejaVuSans-55" x="136.230469"/>
      <use xlink:href="#DejaVuSans-54" x="209.423828"/>
     </g>
    </g>
   </g>
   <g id="line2d_89">
    <path d="M 141.12 488.393815 
L 173.472768 488.400594 
L 173.505024 488.204013 
L 173.569536 526.657394 
L 173.69856 572.504953 
L 173.730816 572.369108 
L 173.827584 567.828617 
L 173.892096 569.351799 
L 174.053376 570.057126 
L 174.117888 569.939259 
L 174.408192 569.483332 
L 174.440448 569.532932 
L 174.66624 569.721921 
L 176.182272 569.732147 
L 180.085248 569.753796 
L 193.568256 569.74419 
L 212.8896 569.73602 
L 255.30624 569.735711 
L 255.6288 488.285357 
L 255.854592 488.427709 
L 256.209408 488.387037 
L 334.849536 488.407373 
L 334.881792 492.623708 
L 335.043072 572.18283 
L 335.107584 570.254711 
L 335.172096 568.326579 
L 335.236608 568.859586 
L 335.365632 570.778018 
L 335.430144 570.404018 
L 335.591424 569.789374 
L 335.881728 569.64017 
L 336.559104 569.810146 
L 337.107456 569.738156 
L 349.9776 569.736214 
L 434.520576 569.744601 
L 434.552832 569.543113 
L 434.617344 555.661983 
L 434.843136 488.57684 
L 435.004416 488.400594 
L 435.552768 488.393815 
L 436.713984 488.393815 
L 436.810752 514.595422 
L 436.972032 570.70352 
L 437.0688 569.743025 
L 437.681664 569.736214 
L 496.774656 569.72663 
L 496.839168 568.221441 
L 497.06496 488.57684 
L 497.22624 488.393815 
L 947.52 488.393815 
L 947.52 488.393815 
" clip-path="url(#p0d028093f0)" style="fill: none; stroke: #ff00ff; stroke-width: 2; stroke-linecap: square"/>
   </g>
   <g id="patch_28">
    <path d="M 100.8 576.72 
L 100.8 483.988966 
" style="fill: none; stroke: #bcbcbc; stroke-width: 0.8; stroke-linejoin: miter; stroke-linecap: square"/>
   </g>
   <g id="patch_29">
    <path d="M 987.84 576.72 
L 987.84 483.988966 
" style="fill: none; stroke: #bcbcbc; stroke-width: 0.8; stroke-linejoin: miter; stroke-linecap: square"/>
   </g>
   <g id="patch_30">
    <path d="M 100.8 576.72 
L 987.84 576.72 
" style="fill: none; stroke: #bcbcbc; stroke-width: 0.8; stroke-linejoin: miter; stroke-linecap: square"/>
   </g>
   <g id="patch_31">
    <path d="M 100.8 483.988966 
L 987.84 483.988966 
" style="fill: none; stroke: #bcbcbc; stroke-width: 0.8; stroke-linejoin: miter; stroke-linecap: square"/>
   </g>
  </g>
  <g id="axes_6">
   <g id="patch_32">
    <path d="M 201.6 628.56 
L 856.8 628.56 
L 856.8 615.6 
L 201.6 615.6 
z
" clip-path="url(#pf02c19d714)" style="fill: #d3d3d3"/>
   </g>
   <g id="patch_33">
    <path d="M 201.6 628.56 
L 468.36 628.56 
L 468.36 615.6 
L 201.6 615.6 
z
" clip-path="url(#pf02c19d714)" style="fill: #0000ff"/>
   </g>
   <g id="line2d_90">
    <path d="M 201.6 635.04 
L 201.6 609.12 
" clip-path="url(#pe7c75bc394)" style="fill: none; stroke: #ff0000; stroke-linecap: square"/>
   </g>
   <g id="line2d_91">
    <defs>
     <path id="m132891a34f" d="M 0 5 
C 1.326016 5 2.597899 4.473168 3.535534 3.535534 
C 4.473168 2.597899 5 1.326016 5 0 
C 5 -1.326016 4.473168 -2.597899 3.535534 -3.535534 
C 2.597899 -4.473168 1.326016 -5 0 -5 
C -1.326016 -5 -2.597899 -4.473168 -3.535534 -3.535534 
C -4.473168 -2.597899 -5 -1.326016 -5 0 
C -5 1.326016 -4.473168 2.597899 -3.535534 3.535534 
C -2.597899 4.473168 -1.326016 5 0 5 
z
" style="stroke: #bfbfbf"/>
    </defs>
    <g>
     <use xlink:href="#m132891a34f" x="468.36" y="622.08" style="fill: #ffffff; stroke: #bfbfbf"/>
    </g>
   </g>
   <g id="text_25">
    <!-- #Sweep -->
    <g transform="translate(138.622875 625.39125) scale(0.12 -0.12)">
     <defs>
      <path id="DejaVuSans-23" d="M 3272 2816 
L 2363 2816 
L 2100 1772 
L 3016 1772 
L 3272 2816 
z
M 2803 4594 
L 2478 3297 
L 3391 3297 
L 3719 4594 
L 4219 4594 
L 3897 3297 
L 4872 3297 
L 4872 2816 
L 3775 2816 
L 3519 1772 
L 4513 1772 
L 4513 1294 
L 3397 1294 
L 3072 0 
L 2572 0 
L 2894 1294 
L 1978 1294 
L 1656 0 
L 1153 0 
L 1478 1294 
L 494 1294 
L 494 1772 
L 1594 1772 
L 1856 2816 
L 850 2816 
L 850 3297 
L 1978 3297 
L 2297 4594 
L 2803 4594 
z
" transform="scale(0.015625)"/>
      <path id="DejaVuSans-77" d="M 269 3500 
L 844 3500 
L 1563 769 
L 2278 3500 
L 2956 3500 
L 3675 769 
L 4391 3500 
L 4966 3500 
L 4050 0 
L 3372 0 
L 2619 2869 
L 1863 0 
L 1184 0 
L 269 3500 
z
" transform="scale(0.015625)"/>
      <path id="DejaVuSans-70" d="M 1159 525 
L 1159 -1331 
L 581 -1331 
L 581 3500 
L 1159 3500 
L 1159 2969 
Q 1341 3281 1617 3432 
Q 1894 3584 2278 3584 
Q 2916 3584 3314 3078 
Q 3713 2572 3713 1747 
Q 3713 922 3314 415 
Q 2916 -91 2278 -91 
Q 1894 -91 1617 61 
Q 1341 213 1159 525 
z
M 3116 1747 
Q 3116 2381 2855 2742 
Q 2594 3103 2138 3103 
Q 1681 3103 1420 2742 
Q 1159 2381 1159 1747 
Q 1159 1113 1420 752 
Q 1681 391 2138 391 
Q 2594 391 2855 752 
Q 3116 1113 3116 1747 
z
" transform="scale(0.015625)"/>
     </defs>
     <use xlink:href="#DejaVuSans-23"/>
     <use xlink:href="#DejaVuSans-53" x="83.789062"/>
     <use xlink:href="#DejaVuSans-77" x="147.265625"/>
     <use xlink:href="#DejaVuSans-65" x="229.052734"/>
     <use xlink:href="#DejaVuSans-65" x="290.576172"/>
     <use xlink:href="#DejaVuSans-70" x="352.099609"/>
    </g>
   </g>
   <g id="text_26">
    <!-- $\mathdefault{57}$ -->
    <g transform="translate(869.904 625.39125) scale(0.12 -0.12)">
     <defs>
      <path id="DejaVuSans-37" d="M 525 4666 
L 3525 4666 
L 3525 4397 
L 1831 0 
L 1172 0 
L 2766 4134 
L 525 4134 
L 525 4666 
z
" transform="scale(0.015625)"/>
     </defs>
     <use xlink:href="#DejaVuSans-35" transform="translate(0 0.09375)"/>
     <use xlink:href="#DejaVuSans-37" transform="translate(56.373047 0.09375)"/>
    </g>
   </g>
  </g>
  <g id="text_27">
   <!-- DFF under BBI sweep analysis (Sweep = 67E-9) -->
   <g transform="translate(313.34625 25.1175) scale(0.16 -0.16)">
    <defs>
     <path id="DejaVuSans-75" d="M 544 1381 
L 544 3500 
L 1119 3500 
L 1119 1403 
Q 1119 906 1312 657 
Q 1506 409 1894 409 
Q 2359 409 2629 706 
Q 2900 1003 2900 1516 
L 2900 3500 
L 3475 3500 
L 3475 0 
L 2900 0 
L 2900 538 
Q 2691 219 2414 64 
Q 2138 -91 1772 -91 
Q 1169 -91 856 284 
Q 544 659 544 1381 
z
M 1991 3584 
L 1991 3584 
z
" transform="scale(0.015625)"/>
     <path id="DejaVuSans-64" d="M 2906 2969 
L 2906 4863 
L 3481 4863 
L 3481 0 
L 2906 0 
L 2906 525 
Q 2725 213 2448 61 
Q 2172 -91 1784 -91 
Q 1150 -91 751 415 
Q 353 922 353 1747 
Q 353 2572 751 3078 
Q 1150 3584 1784 3584 
Q 2172 3584 2448 3432 
Q 2725 3281 2906 2969 
z
M 947 1747 
Q 947 1113 1208 752 
Q 1469 391 1925 391 
Q 2381 391 2643 752 
Q 2906 1113 2906 1747 
Q 2906 2381 2643 2742 
Q 2381 3103 1925 3103 
Q 1469 3103 1208 2742 
Q 947 2381 947 1747 
z
" transform="scale(0.015625)"/>
     <path id="DejaVuSans-72" d="M 2631 2963 
Q 2534 3019 2420 3045 
Q 2306 3072 2169 3072 
Q 1681 3072 1420 2755 
Q 1159 2438 1159 1844 
L 1159 0 
L 581 0 
L 581 3500 
L 1159 3500 
L 1159 2956 
Q 1341 3275 1631 3429 
Q 1922 3584 2338 3584 
Q 2397 3584 2469 3576 
Q 2541 3569 2628 3553 
L 2631 2963 
z
" transform="scale(0.015625)"/>
     <path id="DejaVuSans-61" d="M 2194 1759 
Q 1497 1759 1228 1600 
Q 959 1441 959 1056 
Q 959 750 1161 570 
Q 1363 391 1709 391 
Q 2188 391 2477 730 
Q 2766 1069 2766 1631 
L 2766 1759 
L 2194 1759 
z
M 3341 1997 
L 3341 0 
L 2766 0 
L 2766 531 
Q 2569 213 2275 61 
Q 1981 -91 1556 -91 
Q 1019 -91 701 211 
Q 384 513 384 1019 
Q 384 1609 779 1909 
Q 1175 2209 1959 2209 
L 2766 2209 
L 2766 2266 
Q 2766 2663 2505 2880 
Q 2244 3097 1772 3097 
Q 1472 3097 1187 3025 
Q 903 2953 641 2809 
L 641 3341 
Q 956 3463 1253 3523 
Q 1550 3584 1831 3584 
Q 2591 3584 2966 3190 
Q 3341 2797 3341 1997 
z
" transform="scale(0.015625)"/>
     <path id="DejaVuSans-6c" d="M 603 4863 
L 1178 4863 
L 1178 0 
L 603 0 
L 603 4863 
z
" transform="scale(0.015625)"/>
     <path id="DejaVuSans-79" d="M 2059 -325 
Q 1816 -950 1584 -1140 
Q 1353 -1331 966 -1331 
L 506 -1331 
L 506 -850 
L 844 -850 
Q 1081 -850 1212 -737 
Q 1344 -625 1503 -206 
L 1606 56 
L 191 3500 
L 800 3500 
L 1894 763 
L 2988 3500 
L 3597 3500 
L 2059 -325 
z
" transform="scale(0.015625)"/>
     <path id="DejaVuSans-28" d="M 1984 4856 
Q 1566 4138 1362 3434 
Q 1159 2731 1159 2009 
Q 1159 1288 1364 580 
Q 1569 -128 1984 -844 
L 1484 -844 
Q 1016 -109 783 600 
Q 550 1309 550 2009 
Q 550 2706 781 3412 
Q 1013 4119 1484 4856 
L 1984 4856 
z
" transform="scale(0.015625)"/>
     <path id="DejaVuSans-3d" d="M 678 2906 
L 4684 2906 
L 4684 2381 
L 678 2381 
L 678 2906 
z
M 678 1631 
L 4684 1631 
L 4684 1100 
L 678 1100 
L 678 1631 
z
" transform="scale(0.015625)"/>
     <path id="DejaVuSans-36" d="M 2113 2584 
Q 1688 2584 1439 2293 
Q 1191 2003 1191 1497 
Q 1191 994 1439 701 
Q 1688 409 2113 409 
Q 2538 409 2786 701 
Q 3034 994 3034 1497 
Q 3034 2003 2786 2293 
Q 2538 2584 2113 2584 
z
M 3366 4563 
L 3366 3988 
Q 3128 4100 2886 4159 
Q 2644 4219 2406 4219 
Q 1781 4219 1451 3797 
Q 1122 3375 1075 2522 
Q 1259 2794 1537 2939 
Q 1816 3084 2150 3084 
Q 2853 3084 3261 2657 
Q 3669 2231 3669 1497 
Q 3669 778 3244 343 
Q 2819 -91 2113 -91 
Q 1303 -91 875 529 
Q 447 1150 447 2328 
Q 447 3434 972 4092 
Q 1497 4750 2381 4750 
Q 2619 4750 2861 4703 
Q 3103 4656 3366 4563 
z
" transform="scale(0.015625)"/>
     <path id="DejaVuSans-2d" d="M 313 2009 
L 1997 2009 
L 1997 1497 
L 313 1497 
L 313 2009 
z
" transform="scale(0.015625)"/>
     <path id="DejaVuSans-39" d="M 703 97 
L 703 672 
Q 941 559 1184 500 
Q 1428 441 1663 441 
Q 2288 441 2617 861 
Q 2947 1281 2994 2138 
Q 2813 1869 2534 1725 
Q 2256 1581 1919 1581 
Q 1219 1581 811 2004 
Q 403 2428 403 3163 
Q 403 3881 828 4315 
Q 1253 4750 1959 4750 
Q 2769 4750 3195 4129 
Q 3622 3509 3622 2328 
Q 3622 1225 3098 567 
Q 2575 -91 1691 -91 
Q 1453 -91 1209 -44 
Q 966 3 703 97 
z
M 1959 2075 
Q 2384 2075 2632 2365 
Q 2881 2656 2881 3163 
Q 2881 3666 2632 3958 
Q 2384 4250 1959 4250 
Q 1534 4250 1286 3958 
Q 1038 3666 1038 3163 
Q 1038 2656 1286 2365 
Q 1534 2075 1959 2075 
z
" transform="scale(0.015625)"/>
     <path id="DejaVuSans-29" d="M 513 4856 
L 1013 4856 
Q 1481 4119 1714 3412 
Q 1947 2706 1947 2009 
Q 1947 1309 1714 600 
Q 1481 -109 1013 -844 
L 513 -844 
Q 928 -128 1133 580 
Q 1338 1288 1338 2009 
Q 1338 2731 1133 3434 
Q 928 4138 513 4856 
z
" transform="scale(0.015625)"/>
    </defs>
    <use xlink:href="#DejaVuSans-44"/>
    <use xlink:href="#DejaVuSans-46" x="77.001953"/>
    <use xlink:href="#DejaVuSans-46" x="134.521484"/>
    <use xlink:href="#DejaVuSans-20" x="192.041016"/>
    <use xlink:href="#DejaVuSans-75" x="223.828125"/>
    <use xlink:href="#DejaVuSans-6e" x="287.207031"/>
    <use xlink:href="#DejaVuSans-64" x="350.585938"/>
    <use xlink:href="#DejaVuSans-65" x="414.0625"/>
    <use xlink:href="#DejaVuSans-72" x="475.585938"/>
    <use xlink:href="#DejaVuSans-20" x="516.699219"/>
    <use xlink:href="#DejaVuSans-42" x="548.486328"/>
    <use xlink:href="#DejaVuSans-42" x="617.089844"/>
    <use xlink:href="#DejaVuSans-49" x="685.693359"/>
    <use xlink:href="#DejaVuSans-20" x="715.185547"/>
    <use xlink:href="#DejaVuSans-73" x="746.972656"/>
    <use xlink:href="#DejaVuSans-77" x="799.072266"/>
    <use xlink:href="#DejaVuSans-65" x="880.859375"/>
    <use xlink:href="#DejaVuSans-65" x="942.382812"/>
    <use xlink:href="#DejaVuSans-70" x="1003.90625"/>
    <use xlink:href="#DejaVuSans-20" x="1067.382812"/>
    <use xlink:href="#DejaVuSans-61" x="1099.169922"/>
    <use xlink:href="#DejaVuSans-6e" x="1160.449219"/>
    <use xlink:href="#DejaVuSans-61" x="1223.828125"/>
    <use xlink:href="#DejaVuSans-6c" x="1285.107422"/>
    <use xlink:href="#DejaVuSans-79" x="1312.890625"/>
    <use xlink:href="#DejaVuSans-73" x="1372.070312"/>
    <use xlink:href="#DejaVuSans-69" x="1424.169922"/>
    <use xlink:href="#DejaVuSans-73" x="1451.953125"/>
    <use xlink:href="#DejaVuSans-20" x="1504.052734"/>
    <use xlink:href="#DejaVuSans-28" x="1535.839844"/>
    <use xlink:href="#DejaVuSans-53" x="1574.853516"/>
    <use xlink:href="#DejaVuSans-77" x="1638.330078"/>
    <use xlink:href="#DejaVuSans-65" x="1720.117188"/>
    <use xlink:href="#DejaVuSans-65" x="1781.640625"/>
    <use xlink:href="#DejaVuSans-70" x="1843.164062"/>
    <use xlink:href="#DejaVuSans-20" x="1906.640625"/>
    <use xlink:href="#DejaVuSans-3d" x="1938.427734"/>
    <use xlink:href="#DejaVuSans-20" x="2022.216797"/>
    <use xlink:href="#DejaVuSans-36" x="2054.003906"/>
    <use xlink:href="#DejaVuSans-37" x="2117.626953"/>
    <use xlink:href="#DejaVuSans-45" x="2181.25"/>
    <use xlink:href="#DejaVuSans-2d" x="2244.433594"/>
    <use xlink:href="#DejaVuSans-39" x="2280.517578"/>
    <use xlink:href="#DejaVuSans-29" x="2344.140625"/>
   </g>
  </g>
 </g>
 <defs>
  <clipPath id="pb0a86c13ac">
   <rect x="100.8" y="38.88" width="887.04" height="92.731034"/>
  </clipPath>
  <clipPath id="p491cb7ac91">
   <rect x="100.8" y="150.157241" width="887.04" height="92.731034"/>
  </clipPath>
  <clipPath id="p93d65b7461">
   <rect x="100.8" y="261.434483" width="887.04" height="92.731034"/>
  </clipPath>
  <clipPath id="p56aa22d4ef">
   <rect x="100.8" y="372.711724" width="887.04" height="92.731034"/>
  </clipPath>
  <clipPath id="p0d028093f0">
   <rect x="100.8" y="483.988966" width="887.04" height="92.731034"/>
  </clipPath>
  <clipPath id="pf02c19d714">
   <rect x="201.6" y="609.12" width="655.2" height="25.92"/>
  </clipPath>
  <clipPath id="pe7c75bc394">
   <path d="M 201.6 628.56 
L 856.8 628.56 
L 856.8 615.6 
L 201.6 615.6 
z
"/>
  </clipPath>
 </defs>
</svg>
