<?xml version="1.0" encoding="utf-8" standalone="no"?>
<!DOCTYPE svg PUBLIC "-//W3C//DTD SVG 1.1//EN"
  "http://www.w3.org/Graphics/SVG/1.1/DTD/svg11.dtd">
<svg xmlns:xlink="http://www.w3.org/1999/xlink" width="1008pt" height="648pt" viewBox="0 0 1008 648" xmlns="http://www.w3.org/2000/svg" version="1.1">
 <metadata>
  <rdf:RDF xmlns:dc="http://purl.org/dc/elements/1.1/" xmlns:cc="http://creativecommons.org/ns#" xmlns:rdf="http://www.w3.org/1999/02/22-rdf-syntax-ns#">
   <cc:Work>
    <dc:type rdf:resource="http://purl.org/dc/dcmitype/StillImage"/>
    <dc:date>2024-06-03T10:45:45.300345</dc:date>
    <dc:format>image/svg+xml</dc:format>
    <dc:creator>
     <cc:Agent>
      <dc:title>Matplotlib v3.9.0, https://matplotlib.org/</dc:title>
     </cc:Agent>
    </dc:creator>
   </cc:Work>
  </rdf:RDF>
 </metadata>
 <defs>
  <style type="text/css">*{stroke-linejoin: round; stroke-linecap: butt}</style>
 </defs>
 <g id="figure_1">
  <g id="patch_1">
   <path d="M 0 648 
L 1008 648 
L 1008 0 
L 0 0 
z
" style="fill: #ffffff"/>
  </g>
  <g id="axes_1">
   <g id="patch_2">
    <path d="M 100.8 131.611034 
L 987.84 131.611034 
L 987.84 38.88 
L 100.8 38.88 
z
" style="fill: #eeeeee"/>
   </g>
   <g id="matplotlib.axis_1">
    <g id="xtick_1">
     <g id="line2d_1">
      <path d="M 141.12 131.611034 
L 141.12 38.88 
" clip-path="url(#pd9929a1aeb)" style="fill: none; stroke-dasharray: 1.85,0.8; stroke-dashoffset: 0; stroke: #b2b2b2; stroke-width: 0.5"/>
     </g>
     <g id="line2d_2">
      <defs>
       <path id="m207b6e8b29" d="M 0 0 
L 0 -3.5 
" style="stroke: #000000; stroke-width: 0.8"/>
      </defs>
      <g>
       <use xlink:href="#m207b6e8b29" x="141.12" y="131.611034" style="stroke: #000000; stroke-width: 0.8"/>
      </g>
     </g>
    </g>
    <g id="xtick_2">
     <g id="line2d_3">
      <path d="M 302.4 131.611034 
L 302.4 38.88 
" clip-path="url(#pd9929a1aeb)" style="fill: none; stroke-dasharray: 1.85,0.8; stroke-dashoffset: 0; stroke: #b2b2b2; stroke-width: 0.5"/>
     </g>
     <g id="line2d_4">
      <g>
       <use xlink:href="#m207b6e8b29" x="302.4" y="131.611034" style="stroke: #000000; stroke-width: 0.8"/>
      </g>
     </g>
    </g>
    <g id="xtick_3">
     <g id="line2d_5">
      <path d="M 463.68 131.611034 
L 463.68 38.88 
" clip-path="url(#pd9929a1aeb)" style="fill: none; stroke-dasharray: 1.85,0.8; stroke-dashoffset: 0; stroke: #b2b2b2; stroke-width: 0.5"/>
     </g>
     <g id="line2d_6">
      <g>
       <use xlink:href="#m207b6e8b29" x="463.68" y="131.611034" style="stroke: #000000; stroke-width: 0.8"/>
      </g>
     </g>
    </g>
    <g id="xtick_4">
     <g id="line2d_7">
      <path d="M 624.96 131.611034 
L 624.96 38.88 
" clip-path="url(#pd9929a1aeb)" style="fill: none; stroke-dasharray: 1.85,0.8; stroke-dashoffset: 0; stroke: #b2b2b2; stroke-width: 0.5"/>
     </g>
     <g id="line2d_8">
      <g>
       <use xlink:href="#m207b6e8b29" x="624.96" y="131.611034" style="stroke: #000000; stroke-width: 0.8"/>
      </g>
     </g>
    </g>
    <g id="xtick_5">
     <g id="line2d_9">
      <path d="M 786.24 131.611034 
L 786.24 38.88 
" clip-path="url(#pd9929a1aeb)" style="fill: none; stroke-dasharray: 1.85,0.8; stroke-dashoffset: 0; stroke: #b2b2b2; stroke-width: 0.5"/>
     </g>
     <g id="line2d_10">
      <g>
       <use xlink:href="#m207b6e8b29" x="786.24" y="131.611034" style="stroke: #000000; stroke-width: 0.8"/>
      </g>
     </g>
    </g>
    <g id="xtick_6">
     <g id="line2d_11">
      <path d="M 947.52 131.611034 
L 947.52 38.88 
" clip-path="url(#pd9929a1aeb)" style="fill: none; stroke-dasharray: 1.85,0.8; stroke-dashoffset: 0; stroke: #b2b2b2; stroke-width: 0.5"/>
     </g>
     <g id="line2d_12">
      <g>
       <use xlink:href="#m207b6e8b29" x="947.52" y="131.611034" style="stroke: #000000; stroke-width: 0.8"/>
      </g>
     </g>
    </g>
   </g>
   <g id="matplotlib.axis_2">
    <g id="ytick_1">
     <g id="line2d_13">
      <path d="M 100.8 98.340394 
L 987.84 98.340394 
" clip-path="url(#pd9929a1aeb)" style="fill: none; stroke-dasharray: 1.85,0.8; stroke-dashoffset: 0; stroke: #b2b2b2; stroke-width: 0.5"/>
     </g>
     <g id="line2d_14">
      <defs>
       <path id="m8064f02705" d="M 0 0 
L 3.5 0 
" style="stroke: #000000; stroke-width: 0.8"/>
      </defs>
      <g>
       <use xlink:href="#m8064f02705" x="100.8" y="98.340394" style="stroke: #000000; stroke-width: 0.8"/>
      </g>
     </g>
     <g id="text_1">
      <!-- −200 V -->
      <g transform="translate(44.819688 103.6593) scale(0.14 -0.14)">
       <defs>
        <path id="DejaVuSans-2212" d="M 678 2272 
L 4684 2272 
L 4684 1741 
L 678 1741 
L 678 2272 
z
" transform="scale(0.015625)"/>
        <path id="DejaVuSans-32" d="M 1228 531 
L 3431 531 
L 3431 0 
L 469 0 
L 469 531 
Q 828 903 1448 1529 
Q 2069 2156 2228 2338 
Q 2531 2678 2651 2914 
Q 2772 3150 2772 3378 
Q 2772 3750 2511 3984 
Q 2250 4219 1831 4219 
Q 1534 4219 1204 4116 
Q 875 4013 500 3803 
L 500 4441 
Q 881 4594 1212 4672 
Q 1544 4750 1819 4750 
Q 2544 4750 2975 4387 
Q 3406 4025 3406 3419 
Q 3406 3131 3298 2873 
Q 3191 2616 2906 2266 
Q 2828 2175 2409 1742 
Q 1991 1309 1228 531 
z
" transform="scale(0.015625)"/>
        <path id="DejaVuSans-30" d="M 2034 4250 
Q 1547 4250 1301 3770 
Q 1056 3291 1056 2328 
Q 1056 1369 1301 889 
Q 1547 409 2034 409 
Q 2525 409 2770 889 
Q 3016 1369 3016 2328 
Q 3016 3291 2770 3770 
Q 2525 4250 2034 4250 
z
M 2034 4750 
Q 2819 4750 3233 4129 
Q 3647 3509 3647 2328 
Q 3647 1150 3233 529 
Q 2819 -91 2034 -91 
Q 1250 -91 836 529 
Q 422 1150 422 2328 
Q 422 3509 836 4129 
Q 1250 4750 2034 4750 
z
" transform="scale(0.015625)"/>
        <path id="DejaVuSans-20" transform="scale(0.015625)"/>
        <path id="DejaVuSans-56" d="M 1831 0 
L 50 4666 
L 709 4666 
L 2188 738 
L 3669 4666 
L 4325 4666 
L 2547 0 
L 1831 0 
z
" transform="scale(0.015625)"/>
       </defs>
       <use xlink:href="#DejaVuSans-2212"/>
       <use xlink:href="#DejaVuSans-32" x="83.789062"/>
       <use xlink:href="#DejaVuSans-30" x="147.412109"/>
       <use xlink:href="#DejaVuSans-30" x="211.035156"/>
       <use xlink:href="#DejaVuSans-20" x="274.658203"/>
       <use xlink:href="#DejaVuSans-56" x="306.445312"/>
      </g>
     </g>
    </g>
    <g id="ytick_2">
     <g id="line2d_15">
      <path d="M 100.8 45.027377 
L 987.84 45.027377 
" clip-path="url(#pd9929a1aeb)" style="fill: none; stroke-dasharray: 1.85,0.8; stroke-dashoffset: 0; stroke: #b2b2b2; stroke-width: 0.5"/>
     </g>
     <g id="line2d_16">
      <g>
       <use xlink:href="#m8064f02705" x="100.8" y="45.027377" style="stroke: #000000; stroke-width: 0.8"/>
      </g>
     </g>
     <g id="text_2">
      <!-- 0 V -->
      <g transform="translate(74.36625 50.346284) scale(0.14 -0.14)">
       <use xlink:href="#DejaVuSans-30"/>
       <use xlink:href="#DejaVuSans-20" x="63.623047"/>
       <use xlink:href="#DejaVuSans-56" x="95.410156"/>
      </g>
     </g>
    </g>
    <g id="text_3">
     <g id="patch_3">
      <path d="M 34.8768 131.080205 
L 34.8768 39.41083 
L 11.247425 39.41083 
L 11.247425 131.080205 
z
" style="fill: #ffff00; opacity: 0.2; stroke: #eeeeee; stroke-width: 0.5; stroke-linejoin: miter"/>
     </g>
     <!-- VPULSE BBI -->
     <g transform="translate(26.925238 126.040205) rotate(-90) scale(0.14 -0.14)">
      <defs>
       <path id="DejaVuSans-50" d="M 1259 4147 
L 1259 2394 
L 2053 2394 
Q 2494 2394 2734 2622 
Q 2975 2850 2975 3272 
Q 2975 3691 2734 3919 
Q 2494 4147 2053 4147 
L 1259 4147 
z
M 628 4666 
L 2053 4666 
Q 2838 4666 3239 4311 
Q 3641 3956 3641 3272 
Q 3641 2581 3239 2228 
Q 2838 1875 2053 1875 
L 1259 1875 
L 1259 0 
L 628 0 
L 628 4666 
z
" transform="scale(0.015625)"/>
       <path id="DejaVuSans-55" d="M 556 4666 
L 1191 4666 
L 1191 1831 
Q 1191 1081 1462 751 
Q 1734 422 2344 422 
Q 2950 422 3222 751 
Q 3494 1081 3494 1831 
L 3494 4666 
L 4128 4666 
L 4128 1753 
Q 4128 841 3676 375 
Q 3225 -91 2344 -91 
Q 1459 -91 1007 375 
Q 556 841 556 1753 
L 556 4666 
z
" transform="scale(0.015625)"/>
       <path id="DejaVuSans-4c" d="M 628 4666 
L 1259 4666 
L 1259 531 
L 3531 531 
L 3531 0 
L 628 0 
L 628 4666 
z
" transform="scale(0.015625)"/>
       <path id="DejaVuSans-53" d="M 3425 4513 
L 3425 3897 
Q 3066 4069 2747 4153 
Q 2428 4238 2131 4238 
Q 1616 4238 1336 4038 
Q 1056 3838 1056 3469 
Q 1056 3159 1242 3001 
Q 1428 2844 1947 2747 
L 2328 2669 
Q 3034 2534 3370 2195 
Q 3706 1856 3706 1288 
Q 3706 609 3251 259 
Q 2797 -91 1919 -91 
Q 1588 -91 1214 -16 
Q 841 59 441 206 
L 441 856 
Q 825 641 1194 531 
Q 1563 422 1919 422 
Q 2459 422 2753 634 
Q 3047 847 3047 1241 
Q 3047 1584 2836 1778 
Q 2625 1972 2144 2069 
L 1759 2144 
Q 1053 2284 737 2584 
Q 422 2884 422 3419 
Q 422 4038 858 4394 
Q 1294 4750 2059 4750 
Q 2388 4750 2728 4690 
Q 3069 4631 3425 4513 
z
" transform="scale(0.015625)"/>
       <path id="DejaVuSans-45" d="M 628 4666 
L 3578 4666 
L 3578 4134 
L 1259 4134 
L 1259 2753 
L 3481 2753 
L 3481 2222 
L 1259 2222 
L 1259 531 
L 3634 531 
L 3634 0 
L 628 0 
L 628 4666 
z
" transform="scale(0.015625)"/>
       <path id="DejaVuSans-42" d="M 1259 2228 
L 1259 519 
L 2272 519 
Q 2781 519 3026 730 
Q 3272 941 3272 1375 
Q 3272 1813 3026 2020 
Q 2781 2228 2272 2228 
L 1259 2228 
z
M 1259 4147 
L 1259 2741 
L 2194 2741 
Q 2656 2741 2882 2914 
Q 3109 3088 3109 3444 
Q 3109 3797 2882 3972 
Q 2656 4147 2194 4147 
L 1259 4147 
z
M 628 4666 
L 2241 4666 
Q 2963 4666 3353 4366 
Q 3744 4066 3744 3513 
Q 3744 3084 3544 2831 
Q 3344 2578 2956 2516 
Q 3422 2416 3680 2098 
Q 3938 1781 3938 1306 
Q 3938 681 3513 340 
Q 3088 0 2303 0 
L 628 0 
L 628 4666 
z
" transform="scale(0.015625)"/>
       <path id="DejaVuSans-49" d="M 628 4666 
L 1259 4666 
L 1259 0 
L 628 0 
L 628 4666 
z
" transform="scale(0.015625)"/>
      </defs>
      <use xlink:href="#DejaVuSans-56"/>
      <use xlink:href="#DejaVuSans-50" x="68.408203"/>
      <use xlink:href="#DejaVuSans-55" x="128.710938"/>
      <use xlink:href="#DejaVuSans-4c" x="201.904297"/>
      <use xlink:href="#DejaVuSans-53" x="257.617188"/>
      <use xlink:href="#DejaVuSans-45" x="321.09375"/>
      <use xlink:href="#DejaVuSans-20" x="384.277344"/>
      <use xlink:href="#DejaVuSans-42" x="416.064453"/>
      <use xlink:href="#DejaVuSans-42" x="484.667969"/>
      <use xlink:href="#DejaVuSans-49" x="553.271484"/>
     </g>
    </g>
   </g>
   <g id="line2d_17">
    <path d="M 141.12 45.027377 
L 428.230656 45.136282 
L 428.714496 46.425538 
L 436.939776 69.006772 
L 444.358656 89.863624 
L 445.971456 94.440546 
L 447.777792 99.673219 
L 451.26144 110.807642 
L 452.841984 115.853719 
L 454.067712 119.550977 
L 457.970688 121.36362 
L 458.551296 121.619522 
L 459.422208 122.003376 
L 460.067328 122.269941 
L 461.647872 122.936354 
L 462.292992 123.202919 
L 463.389696 123.629423 
L 464.131584 123.922644 
L 465.228288 124.349149 
L 466.131456 124.677024 
L 466.808832 124.943589 
L 467.615232 125.25547 
L 468.969984 125.804594 
L 471.614976 126.790885 
L 472.22784 127.022796 
L 474.1632 127.395987 
L 492.645888 127.289361 
L 492.87168 126.801547 
L 511.160832 75.087922 
L 514.902528 63.292417 
L 518.611968 51.617666 
L 523.224576 49.3412 
L 528.579072 46.984578 
L 537.288192 43.484472 
L 538.159104 43.268927 
L 552.448512 43.108189 
L 559.254528 43.184799 
L 574.608384 43.746186 
L 602.3808 44.46146 
L 628.02432 44.774399 
L 663.634944 44.945888 
L 711.664128 44.953885 
L 947.52 44.953885 
L 947.52 44.953885 
" clip-path="url(#pd9929a1aeb)" style="fill: none; stroke: #ff0000; stroke-width: 2; stroke-linecap: square"/>
   </g>
   <g id="patch_4">
    <path d="M 100.8 131.611034 
L 100.8 38.88 
" style="fill: none; stroke: #bcbcbc; stroke-width: 0.8; stroke-linejoin: miter; stroke-linecap: square"/>
   </g>
   <g id="patch_5">
    <path d="M 987.84 131.611034 
L 987.84 38.88 
" style="fill: none; stroke: #bcbcbc; stroke-width: 0.8; stroke-linejoin: miter; stroke-linecap: square"/>
   </g>
   <g id="patch_6">
    <path d="M 100.8 131.611034 
L 987.84 131.611034 
" style="fill: none; stroke: #bcbcbc; stroke-width: 0.8; stroke-linejoin: miter; stroke-linecap: square"/>
   </g>
   <g id="patch_7">
    <path d="M 100.8 38.88 
L 987.84 38.88 
" style="fill: none; stroke: #bcbcbc; stroke-width: 0.8; stroke-linejoin: miter; stroke-linecap: square"/>
   </g>
  </g>
  <g id="axes_2">
   <g id="patch_8">
    <path d="M 100.8 242.888276 
L 987.84 242.888276 
L 987.84 150.157241 
L 100.8 150.157241 
z
" style="fill: #eeeeee"/>
   </g>
   <g id="matplotlib.axis_3">
    <g id="xtick_7">
     <g id="line2d_18">
      <path d="M 141.12 242.888276 
L 141.12 150.157241 
" clip-path="url(#pcc9dc8c761)" style="fill: none; stroke-dasharray: 1.85,0.8; stroke-dashoffset: 0; stroke: #b2b2b2; stroke-width: 0.5"/>
     </g>
     <g id="line2d_19">
      <g>
       <use xlink:href="#m207b6e8b29" x="141.12" y="242.888276" style="stroke: #000000; stroke-width: 0.8"/>
      </g>
     </g>
    </g>
    <g id="xtick_8">
     <g id="line2d_20">
      <path d="M 302.4 242.888276 
L 302.4 150.157241 
" clip-path="url(#pcc9dc8c761)" style="fill: none; stroke-dasharray: 1.85,0.8; stroke-dashoffset: 0; stroke: #b2b2b2; stroke-width: 0.5"/>
     </g>
     <g id="line2d_21">
      <g>
       <use xlink:href="#m207b6e8b29" x="302.4" y="242.888276" style="stroke: #000000; stroke-width: 0.8"/>
      </g>
     </g>
    </g>
    <g id="xtick_9">
     <g id="line2d_22">
      <path d="M 463.68 242.888276 
L 463.68 150.157241 
" clip-path="url(#pcc9dc8c761)" style="fill: none; stroke-dasharray: 1.85,0.8; stroke-dashoffset: 0; stroke: #b2b2b2; stroke-width: 0.5"/>
     </g>
     <g id="line2d_23">
      <g>
       <use xlink:href="#m207b6e8b29" x="463.68" y="242.888276" style="stroke: #000000; stroke-width: 0.8"/>
      </g>
     </g>
    </g>
    <g id="xtick_10">
     <g id="line2d_24">
      <path d="M 624.96 242.888276 
L 624.96 150.157241 
" clip-path="url(#pcc9dc8c761)" style="fill: none; stroke-dasharray: 1.85,0.8; stroke-dashoffset: 0; stroke: #b2b2b2; stroke-width: 0.5"/>
     </g>
     <g id="line2d_25">
      <g>
       <use xlink:href="#m207b6e8b29" x="624.96" y="242.888276" style="stroke: #000000; stroke-width: 0.8"/>
      </g>
     </g>
    </g>
    <g id="xtick_11">
     <g id="line2d_26">
      <path d="M 786.24 242.888276 
L 786.24 150.157241 
" clip-path="url(#pcc9dc8c761)" style="fill: none; stroke-dasharray: 1.85,0.8; stroke-dashoffset: 0; stroke: #b2b2b2; stroke-width: 0.5"/>
     </g>
     <g id="line2d_27">
      <g>
       <use xlink:href="#m207b6e8b29" x="786.24" y="242.888276" style="stroke: #000000; stroke-width: 0.8"/>
      </g>
     </g>
    </g>
    <g id="xtick_12">
     <g id="line2d_28">
      <path d="M 947.52 242.888276 
L 947.52 150.157241 
" clip-path="url(#pcc9dc8c761)" style="fill: none; stroke-dasharray: 1.85,0.8; stroke-dashoffset: 0; stroke: #b2b2b2; stroke-width: 0.5"/>
     </g>
     <g id="line2d_29">
      <g>
       <use xlink:href="#m207b6e8b29" x="947.52" y="242.888276" style="stroke: #000000; stroke-width: 0.8"/>
      </g>
     </g>
    </g>
   </g>
   <g id="matplotlib.axis_4">
    <g id="ytick_3">
     <g id="line2d_30">
      <path d="M 100.8 219.268694 
L 987.84 219.268694 
" clip-path="url(#pcc9dc8c761)" style="fill: none; stroke-dasharray: 1.85,0.8; stroke-dashoffset: 0; stroke: #b2b2b2; stroke-width: 0.5"/>
     </g>
     <g id="line2d_31">
      <g>
       <use xlink:href="#m8064f02705" x="100.8" y="219.268694" style="stroke: #000000; stroke-width: 0.8"/>
      </g>
     </g>
     <g id="text_4">
      <!-- 0 V -->
      <g transform="translate(74.36625 224.5876) scale(0.14 -0.14)">
       <use xlink:href="#DejaVuSans-30"/>
       <use xlink:href="#DejaVuSans-20" x="63.623047"/>
       <use xlink:href="#DejaVuSans-56" x="95.410156"/>
      </g>
     </g>
    </g>
    <g id="ytick_4">
     <g id="line2d_32">
      <path d="M 100.8 185.733966 
L 987.84 185.733966 
" clip-path="url(#pcc9dc8c761)" style="fill: none; stroke-dasharray: 1.85,0.8; stroke-dashoffset: 0; stroke: #b2b2b2; stroke-width: 0.5"/>
     </g>
     <g id="line2d_33">
      <g>
       <use xlink:href="#m8064f02705" x="100.8" y="185.733966" style="stroke: #000000; stroke-width: 0.8"/>
      </g>
     </g>
     <g id="text_5">
      <!-- 1 V -->
      <g transform="translate(74.36625 191.052872) scale(0.14 -0.14)">
       <defs>
        <path id="DejaVuSans-31" d="M 794 531 
L 1825 531 
L 1825 4091 
L 703 3866 
L 703 4441 
L 1819 4666 
L 2450 4666 
L 2450 531 
L 3481 531 
L 3481 0 
L 794 0 
L 794 531 
z
" transform="scale(0.015625)"/>
       </defs>
       <use xlink:href="#DejaVuSans-31"/>
       <use xlink:href="#DejaVuSans-20" x="63.623047"/>
       <use xlink:href="#DejaVuSans-56" x="95.410156"/>
      </g>
     </g>
    </g>
    <g id="ytick_5">
     <g id="line2d_34">
      <path d="M 100.8 152.199238 
L 987.84 152.199238 
" clip-path="url(#pcc9dc8c761)" style="fill: none; stroke-dasharray: 1.85,0.8; stroke-dashoffset: 0; stroke: #b2b2b2; stroke-width: 0.5"/>
     </g>
     <g id="line2d_35">
      <g>
       <use xlink:href="#m8064f02705" x="100.8" y="152.199238" style="stroke: #000000; stroke-width: 0.8"/>
      </g>
     </g>
     <g id="text_6">
      <!-- 2 V -->
      <g transform="translate(74.36625 157.518144) scale(0.14 -0.14)">
       <use xlink:href="#DejaVuSans-32"/>
       <use xlink:href="#DejaVuSans-20" x="63.623047"/>
       <use xlink:href="#DejaVuSans-56" x="95.410156"/>
      </g>
     </g>
    </g>
    <g id="text_7">
     <g id="patch_9">
      <path d="M 34.8768 224.531509 
L 34.8768 168.514009 
L 11.247425 168.514009 
L 11.247425 224.531509 
z
" style="fill: #ffff00; opacity: 0.2; stroke: #eeeeee; stroke-width: 0.5; stroke-linejoin: miter"/>
     </g>
     <!-- DFF IN -->
     <g transform="translate(26.925238 219.491509) rotate(-90) scale(0.14 -0.14)">
      <defs>
       <path id="DejaVuSans-44" d="M 1259 4147 
L 1259 519 
L 2022 519 
Q 2988 519 3436 956 
Q 3884 1394 3884 2338 
Q 3884 3275 3436 3711 
Q 2988 4147 2022 4147 
L 1259 4147 
z
M 628 4666 
L 1925 4666 
Q 3281 4666 3915 4102 
Q 4550 3538 4550 2338 
Q 4550 1131 3912 565 
Q 3275 0 1925 0 
L 628 0 
L 628 4666 
z
" transform="scale(0.015625)"/>
       <path id="DejaVuSans-46" d="M 628 4666 
L 3309 4666 
L 3309 4134 
L 1259 4134 
L 1259 2759 
L 3109 2759 
L 3109 2228 
L 1259 2228 
L 1259 0 
L 628 0 
L 628 4666 
z
" transform="scale(0.015625)"/>
       <path id="DejaVuSans-4e" d="M 628 4666 
L 1478 4666 
L 3547 763 
L 3547 4666 
L 4159 4666 
L 4159 0 
L 3309 0 
L 1241 3903 
L 1241 0 
L 628 0 
L 628 4666 
z
" transform="scale(0.015625)"/>
      </defs>
      <use xlink:href="#DejaVuSans-44"/>
      <use xlink:href="#DejaVuSans-46" x="77.001953"/>
      <use xlink:href="#DejaVuSans-46" x="134.521484"/>
      <use xlink:href="#DejaVuSans-20" x="192.041016"/>
      <use xlink:href="#DejaVuSans-49" x="223.828125"/>
      <use xlink:href="#DejaVuSans-4e" x="253.320312"/>
     </g>
    </g>
   </g>
   <g id="line2d_36">
    <path d="M 141.12 219.21972 
L 221.953536 219.173734 
L 224.437248 200.488576 
L 225.404928 194.804439 
L 228.243456 182.306717 
L 229.598208 181.052518 
L 231.178752 180.190675 
L 236.565504 179.74131 
L 243.661824 179.630645 
L 245.1456 179.58705 
L 248.403456 179.476386 
L 250.113024 179.409316 
L 252.177408 179.298652 
L 254.241792 178.973365 
L 254.757888 178.443516 
L 255.499776 178.108169 
L 256.370688 178.12829 
L 257.531904 178.359679 
L 259.98336 178.758743 
L 262.370304 178.896235 
L 263.886336 178.946537 
L 264.144384 184.117592 
L 264.434688 187.636056 
L 265.176576 192.323205 
L 267.144192 209.431617 
L 268.402176 215.855194 
L 269.079552 217.16506 
L 270.46656 218.861448 
L 273.724416 219.270505 
L 282.594816 219.22415 
L 297.110016 219.212946 
L 305.883648 219.218925 
L 347.751936 219.175407 
L 350.235648 200.528147 
L 351.622656 192.002613 
L 352.687104 186.679981 
L 354.97728 179.875449 
L 358.493184 178.889528 
L 360.235008 178.959951 
L 363.073536 179.070616 
L 364.396032 179.097443 
L 375.169536 179.167866 
L 375.717888 180.14708 
L 376.169472 180.888198 
L 377.008128 181.783575 
L 377.524224 181.733273 
L 378.427392 181.444874 
L 380.45952 180.308047 
L 381.58848 179.952579 
L 387.201024 179.479739 
L 389.65248 179.369075 
L 391.813632 179.255057 
L 394.555392 179.144392 
L 395.9424 179.110857 
L 415.392768 179.003546 
L 415.973376 178.386507 
L 416.844288 178.054513 
L 417.908736 178.158471 
L 419.263488 178.46699 
L 421.134336 178.745329 
L 423.52128 178.882821 
L 428.1984 178.986779 
L 428.35968 179.187987 
L 430.488576 182.943877 
L 432.843264 186.177966 
L 437.55264 192.719585 
L 438.262272 195.053602 
L 440.45568 203.511396 
L 441.036288 206.150579 
L 442.165248 211.068447 
L 444.229632 218.464464 
L 444.423168 218.932475 
L 445.874688 223.405538 
L 446.068224 223.842495 
L 446.390784 224.679522 
L 446.810112 225.673827 
L 447.100416 226.037679 
L 447.358464 226.284494 
L 447.648768 226.789527 
L 448.068096 228.005497 
L 448.422912 228.577264 
L 448.616448 228.882094 
L 448.971264 229.725493 
L 449.551872 230.871374 
L 449.906688 231.34958 
L 450.261504 232.131609 
L 450.648576 233.014914 
L 454.16448 238.664845 
L 454.293504 238.557869 
L 454.551552 238.123259 
L 454.841856 237.756054 
L 455.196672 237.26913 
L 456.035328 235.810034 
L 456.454656 235.503862 
L 456.90624 234.914321 
L 457.357824 234.157442 
L 457.486848 234.1115 
L 457.648128 233.97166 
L 457.744896 233.852276 
L 457.938432 233.727192 
L 458.19648 233.537721 
L 459.293184 232.478694 
L 459.712512 231.84254 
L 460.067328 231.571244 
L 460.164096 231.512558 
L 460.518912 231.261383 
L 461.228544 230.880093 
L 462.002688 230.083308 
L 462.454272 229.362647 
L 462.809088 229.180218 
L 462.938112 229.168481 
L 463.19616 228.961236 
L 463.84128 228.62723 
L 464.937984 227.681886 
L 465.712128 226.750292 
L 466.002432 226.648011 
L 466.324992 226.538017 
L 467.970048 225.287842 
L 468.647424 224.595685 
L 469.00224 224.364966 
L 469.518336 224.105072 
L 471.550464 222.52562 
L 471.969792 222.072968 
L 472.5504 221.748386 
L 473.67936 220.796335 
L 474.679296 219.588122 
L 475.840512 217.987567 
L 481.356288 210.974214 
L 482.54976 209.639532 
L 483.162624 207.88969 
L 484.48512 204.047952 
L 485.485056 201.761889 
L 486.162432 200.750482 
L 487.420416 198.930887 
L 488.001024 198.233365 
L 489.129984 196.740064 
L 490.033152 195.782983 
L 490.93632 194.634083 
L 492.38784 193.350709 
L 492.774912 192.838298 
L 493.19424 191.529773 
L 494.548992 187.082733 
L 495.387648 185.204117 
L 496.290816 183.302698 
L 497.097216 181.361037 
L 497.806848 180.13702 
L 498.3552 179.610525 
L 499.774464 178.902942 
L 500.709888 177.876779 
L 501.193728 177.219499 
L 502.935552 174.68092 
L 504 173.124908 
L 505.6128 170.814366 
L 510.61248 164.241559 
L 518.611968 154.399116 
L 519.031296 154.640566 
L 519.611904 154.928965 
L 520.386048 155.133527 
L 523.901952 155.975248 
L 526.804992 156.994704 
L 528.740352 157.68552 
L 529.353216 157.920263 
L 531.062784 158.513827 
L 536.352768 160.271047 
L 537.610752 165.509172 
L 537.933312 165.696966 
L 538.223616 165.663431 
L 538.610688 165.395153 
L 539.126784 164.82171 
L 539.868672 164.070532 
L 540.546048 163.647994 
L 541.997568 163.446786 
L 542.578176 163.520562 
L 543.02976 163.631227 
L 546.029568 164.452828 
L 547.674624 164.905546 
L 552.577536 166.548748 
L 554.093568 167.065183 
L 555.190272 167.403884 
L 564.576768 170.220801 
L 565.254144 170.401888 
L 567.092736 170.861314 
L 571.060224 171.796933 
L 572.189184 172.03503 
L 573.253632 172.253005 
L 574.31808 172.474335 
L 574.898688 172.581646 
L 576.672768 172.873398 
L 577.156608 172.27648 
L 577.511424 172.088685 
L 578.059776 172.068564 
L 582.38208 173.755361 
L 583.220736 173.953216 
L 587.0592 174.644031 
L 587.801088 174.751343 
L 589.31712 174.955904 
L 590.188032 175.063216 
L 590.865408 175.160466 
L 591.800832 175.267777 
L 592.897536 175.388502 
L 593.961984 175.499167 
L 595.058688 175.619892 
L 596.058624 175.730557 
L 597.155328 175.847928 
L 598.413312 175.955239 
L 599.413248 176.055843 
L 600.542208 176.163155 
L 601.41312 176.240284 
L 602.025984 176.28388 
L 606.509568 176.639348 
L 607.993344 176.750012 
L 608.412672 176.770133 
L 608.99328 176.817082 
L 611.799552 176.998169 
L 612.476928 177.038411 
L 615.025152 177.196024 
L 615.799296 177.226205 
L 616.992768 177.303335 
L 617.86368 178.235601 
L 618.863616 178.440163 
L 620.024832 178.218833 
L 620.734464 177.970676 
L 622.734336 177.66551 
L 628.217856 177.776175 
L 628.83072 177.796296 
L 631.73376 177.90696 
L 633.411072 177.970676 
L 636.475392 178.081341 
L 637.023744 178.088048 
L 640.410624 178.195359 
L 640.991232 178.20542 
L 644.990976 178.316084 
L 646.41024 178.352972 
L 652.184064 178.460283 
L 652.829184 178.487111 
L 653.82912 178.493818 
L 657.409536 178.403274 
L 657.957888 177.846598 
L 658.441728 177.628622 
L 658.893312 177.598441 
L 659.764224 177.709106 
L 663.763968 178.430102 
L 665.92512 178.54412 
L 697.600512 178.651431 
L 697.761792 178.829165 
L 698.277888 179.342247 
L 698.66496 179.523334 
L 699.439104 179.657473 
L 701.535744 179.546809 
L 703.890432 179.167866 
L 708.98688 178.748682 
L 737.952768 178.664845 
L 738.50112 178.057867 
L 739.049472 177.786235 
L 740.984832 177.8969 
L 744.210432 178.45693 
L 746.371584 178.570948 
L 778.272768 178.664845 
L 779.208192 179.4898 
L 780.143616 179.667534 
L 781.433856 179.697715 
L 784.207872 179.231582 
L 790.11072 178.728561 
L 818.625024 178.617897 
L 819.14112 178.057867 
L 819.689472 177.786235 
L 821.624832 177.893547 
L 824.882688 178.460283 
L 827.04384 178.574302 
L 858.912768 178.664845 
L 859.880448 179.523334 
L 861.299712 179.707775 
L 863.00928 179.597111 
L 864.718848 179.308712 
L 867.009024 178.943184 
L 870.395904 178.701734 
L 899.265024 178.62125 
L 899.748864 178.094755 
L 900.458496 177.772822 
L 901.5552 177.762761 
L 905.522688 178.477051 
L 907.232256 178.54412 
L 939.520512 178.651431 
L 939.681792 178.832519 
L 940.165632 179.312066 
L 940.649472 179.530041 
L 941.55264 179.704422 
L 943.488 179.593757 
L 946.455552 179.087383 
L 947.52 178.923063 
L 947.52 178.923063 
" clip-path="url(#pcc9dc8c761)" style="fill: none; stroke: #008000; stroke-width: 2; stroke-linecap: square"/>
   </g>
   <g id="patch_10">
    <path d="M 100.8 242.888276 
L 100.8 150.157241 
" style="fill: none; stroke: #bcbcbc; stroke-width: 0.8; stroke-linejoin: miter; stroke-linecap: square"/>
   </g>
   <g id="patch_11">
    <path d="M 987.84 242.888276 
L 987.84 150.157241 
" style="fill: none; stroke: #bcbcbc; stroke-width: 0.8; stroke-linejoin: miter; stroke-linecap: square"/>
   </g>
   <g id="patch_12">
    <path d="M 100.8 242.888276 
L 987.84 242.888276 
" style="fill: none; stroke: #bcbcbc; stroke-width: 0.8; stroke-linejoin: miter; stroke-linecap: square"/>
   </g>
   <g id="patch_13">
    <path d="M 100.8 150.157241 
L 987.84 150.157241 
" style="fill: none; stroke: #bcbcbc; stroke-width: 0.8; stroke-linejoin: miter; stroke-linecap: square"/>
   </g>
  </g>
  <g id="axes_3">
   <g id="patch_14">
    <path d="M 100.8 354.165517 
L 987.84 354.165517 
L 987.84 261.434483 
L 100.8 261.434483 
z
" style="fill: #eeeeee"/>
   </g>
   <g id="matplotlib.axis_5">
    <g id="xtick_13">
     <g id="line2d_37">
      <path d="M 141.12 354.165517 
L 141.12 261.434483 
" clip-path="url(#p9eb50f11a0)" style="fill: none; stroke-dasharray: 1.85,0.8; stroke-dashoffset: 0; stroke: #b2b2b2; stroke-width: 0.5"/>
     </g>
     <g id="line2d_38">
      <g>
       <use xlink:href="#m207b6e8b29" x="141.12" y="354.165517" style="stroke: #000000; stroke-width: 0.8"/>
      </g>
     </g>
    </g>
    <g id="xtick_14">
     <g id="line2d_39">
      <path d="M 302.4 354.165517 
L 302.4 261.434483 
" clip-path="url(#p9eb50f11a0)" style="fill: none; stroke-dasharray: 1.85,0.8; stroke-dashoffset: 0; stroke: #b2b2b2; stroke-width: 0.5"/>
     </g>
     <g id="line2d_40">
      <g>
       <use xlink:href="#m207b6e8b29" x="302.4" y="354.165517" style="stroke: #000000; stroke-width: 0.8"/>
      </g>
     </g>
    </g>
    <g id="xtick_15">
     <g id="line2d_41">
      <path d="M 463.68 354.165517 
L 463.68 261.434483 
" clip-path="url(#p9eb50f11a0)" style="fill: none; stroke-dasharray: 1.85,0.8; stroke-dashoffset: 0; stroke: #b2b2b2; stroke-width: 0.5"/>
     </g>
     <g id="line2d_42">
      <g>
       <use xlink:href="#m207b6e8b29" x="463.68" y="354.165517" style="stroke: #000000; stroke-width: 0.8"/>
      </g>
     </g>
    </g>
    <g id="xtick_16">
     <g id="line2d_43">
      <path d="M 624.96 354.165517 
L 624.96 261.434483 
" clip-path="url(#p9eb50f11a0)" style="fill: none; stroke-dasharray: 1.85,0.8; stroke-dashoffset: 0; stroke: #b2b2b2; stroke-width: 0.5"/>
     </g>
     <g id="line2d_44">
      <g>
       <use xlink:href="#m207b6e8b29" x="624.96" y="354.165517" style="stroke: #000000; stroke-width: 0.8"/>
      </g>
     </g>
    </g>
    <g id="xtick_17">
     <g id="line2d_45">
      <path d="M 786.24 354.165517 
L 786.24 261.434483 
" clip-path="url(#p9eb50f11a0)" style="fill: none; stroke-dasharray: 1.85,0.8; stroke-dashoffset: 0; stroke: #b2b2b2; stroke-width: 0.5"/>
     </g>
     <g id="line2d_46">
      <g>
       <use xlink:href="#m207b6e8b29" x="786.24" y="354.165517" style="stroke: #000000; stroke-width: 0.8"/>
      </g>
     </g>
    </g>
    <g id="xtick_18">
     <g id="line2d_47">
      <path d="M 947.52 354.165517 
L 947.52 261.434483 
" clip-path="url(#p9eb50f11a0)" style="fill: none; stroke-dasharray: 1.85,0.8; stroke-dashoffset: 0; stroke: #b2b2b2; stroke-width: 0.5"/>
     </g>
     <g id="line2d_48">
      <g>
       <use xlink:href="#m207b6e8b29" x="947.52" y="354.165517" style="stroke: #000000; stroke-width: 0.8"/>
      </g>
     </g>
    </g>
   </g>
   <g id="matplotlib.axis_6">
    <g id="ytick_6">
     <g id="line2d_49">
      <path d="M 100.8 345.621557 
L 987.84 345.621557 
" clip-path="url(#p9eb50f11a0)" style="fill: none; stroke-dasharray: 1.85,0.8; stroke-dashoffset: 0; stroke: #b2b2b2; stroke-width: 0.5"/>
     </g>
     <g id="line2d_50">
      <g>
       <use xlink:href="#m8064f02705" x="100.8" y="345.621557" style="stroke: #000000; stroke-width: 0.8"/>
      </g>
     </g>
     <g id="text_8">
      <!-- 0 V -->
      <g transform="translate(74.36625 350.940463) scale(0.14 -0.14)">
       <use xlink:href="#DejaVuSans-30"/>
       <use xlink:href="#DejaVuSans-20" x="63.623047"/>
       <use xlink:href="#DejaVuSans-56" x="95.410156"/>
      </g>
     </g>
    </g>
    <g id="ytick_7">
     <g id="line2d_51">
      <path d="M 100.8 304.125071 
L 987.84 304.125071 
" clip-path="url(#p9eb50f11a0)" style="fill: none; stroke-dasharray: 1.85,0.8; stroke-dashoffset: 0; stroke: #b2b2b2; stroke-width: 0.5"/>
     </g>
     <g id="line2d_52">
      <g>
       <use xlink:href="#m8064f02705" x="100.8" y="304.125071" style="stroke: #000000; stroke-width: 0.8"/>
      </g>
     </g>
     <g id="text_9">
      <!-- 1 V -->
      <g transform="translate(74.36625 309.443977) scale(0.14 -0.14)">
       <use xlink:href="#DejaVuSans-31"/>
       <use xlink:href="#DejaVuSans-20" x="63.623047"/>
       <use xlink:href="#DejaVuSans-56" x="95.410156"/>
      </g>
     </g>
    </g>
    <g id="ytick_8">
     <g id="line2d_53">
      <path d="M 100.8 262.628586 
L 987.84 262.628586 
" clip-path="url(#p9eb50f11a0)" style="fill: none; stroke-dasharray: 1.85,0.8; stroke-dashoffset: 0; stroke: #b2b2b2; stroke-width: 0.5"/>
     </g>
     <g id="line2d_54">
      <g>
       <use xlink:href="#m8064f02705" x="100.8" y="262.628586" style="stroke: #000000; stroke-width: 0.8"/>
      </g>
     </g>
     <g id="text_10">
      <!-- 2 V -->
      <g transform="translate(74.36625 267.947492) scale(0.14 -0.14)">
       <use xlink:href="#DejaVuSans-32"/>
       <use xlink:href="#DejaVuSans-20" x="63.623047"/>
       <use xlink:href="#DejaVuSans-56" x="95.410156"/>
      </g>
     </g>
    </g>
    <g id="text_11">
     <g id="patch_15">
      <path d="M 34.8768 342.395313 
L 34.8768 273.204688 
L 11.247425 273.204688 
L 11.247425 342.395313 
z
" style="fill: #ffff00; opacity: 0.2; stroke: #eeeeee; stroke-width: 0.5; stroke-linejoin: miter"/>
     </g>
     <!-- CLK BUF -->
     <g transform="translate(26.925238 337.355313) rotate(-90) scale(0.14 -0.14)">
      <defs>
       <path id="DejaVuSans-43" d="M 4122 4306 
L 4122 3641 
Q 3803 3938 3442 4084 
Q 3081 4231 2675 4231 
Q 1875 4231 1450 3742 
Q 1025 3253 1025 2328 
Q 1025 1406 1450 917 
Q 1875 428 2675 428 
Q 3081 428 3442 575 
Q 3803 722 4122 1019 
L 4122 359 
Q 3791 134 3420 21 
Q 3050 -91 2638 -91 
Q 1578 -91 968 557 
Q 359 1206 359 2328 
Q 359 3453 968 4101 
Q 1578 4750 2638 4750 
Q 3056 4750 3426 4639 
Q 3797 4528 4122 4306 
z
" transform="scale(0.015625)"/>
       <path id="DejaVuSans-4b" d="M 628 4666 
L 1259 4666 
L 1259 2694 
L 3353 4666 
L 4166 4666 
L 1850 2491 
L 4331 0 
L 3500 0 
L 1259 2247 
L 1259 0 
L 628 0 
L 628 4666 
z
" transform="scale(0.015625)"/>
      </defs>
      <use xlink:href="#DejaVuSans-43"/>
      <use xlink:href="#DejaVuSans-4c" x="69.824219"/>
      <use xlink:href="#DejaVuSans-4b" x="125.537109"/>
      <use xlink:href="#DejaVuSans-20" x="191.113281"/>
      <use xlink:href="#DejaVuSans-42" x="222.900391"/>
      <use xlink:href="#DejaVuSans-55" x="291.503906"/>
      <use xlink:href="#DejaVuSans-46" x="364.697266"/>
     </g>
    </g>
   </g>
   <g id="line2d_55">
    <path d="M 141.12 345.62046 
L 173.376 345.62046 
L 173.601792 295.825774 
L 213.696 295.825774 
L 213.760512 335.545795 
L 213.825024 345.602599 
L 213.889536 345.542884 
L 213.954048 345.708658 
L 214.01856 345.626054 
L 215.405568 345.61652 
L 223.759872 345.620377 
L 254.016 345.620431 
L 254.17728 295.672237 
L 254.241792 295.937815 
L 254.403072 295.817475 
L 254.854656 295.825774 
L 294.336 295.825774 
L 294.400512 335.510938 
L 294.465024 345.931208 
L 294.529536 345.209737 
L 294.626304 345.686769 
L 294.65856 345.65724 
L 294.884352 345.598577 
L 295.206912 345.636657 
L 295.497216 345.620136 
L 321.624576 345.620458 
L 334.656 345.620462 
L 334.81728 295.75108 
L 334.881792 295.842373 
L 335.204352 295.829924 
L 336.075264 295.825774 
L 374.976 295.825774 
L 375.040512 335.54953 
L 375.105024 345.62223 
L 375.169536 345.537622 
L 375.266304 345.690188 
L 375.29856 345.626192 
L 376.782336 345.61579 
L 385.362432 345.620379 
L 415.296 345.62046 
L 415.45728 295.672237 
L 415.521792 295.937815 
L 415.683072 295.813325 
L 416.650752 295.829924 
L 428.295168 295.933665 
L 429.940224 298.228421 
L 431.617536 301.021134 
L 438.52032 312.35009 
L 442.06848 317.536735 
L 445.61664 322.283518 
L 448.487424 325.190347 
L 450.61632 326.880084 
L 452.325888 328.064809 
L 454.0032 329.100976 
L 454.293504 328.946609 
L 454.422528 328.832079 
L 454.454784 328.851167 
L 454.745088 328.727093 
L 454.874112 328.667753 
L 455.261184 328.490563 
L 455.648256 328.318352 
L 455.809536 327.292144 
L 455.841792 327.393396 
L 455.906304 329.320492 
L 456.228864 349.95047 
L 456.26112 349.867062 
L 456.4224 349.871627 
L 464.32512 347.43209 
L 464.583168 347.358558 
L 465.099264 347.226184 
L 465.744384 347.059576 
L 470.518272 346.023965 
L 475.905024 345.156672 
L 479.195136 345.067952 
L 479.808 345.083098 
L 481.775616 345.099241 
L 488.936448 345.191238 
L 492.807168 345.100278 
L 493.452288 344.514929 
L 494.258688 344.118845 
L 495.258624 343.891485 
L 495.936 343.825381 
L 496.194048 304.607675 
L 503.322624 290.182252 
L 504.709632 287.655116 
L 505.387008 286.435119 
L 507.70944 282.476355 
L 508.161024 281.721119 
L 509.386752 279.741736 
L 509.96736 278.820514 
L 510.77376 277.588069 
L 511.515648 276.459364 
L 514.418688 271.815908 
L 515.031552 270.849039 
L 516.450816 268.687073 
L 517.676544 266.935921 
L 518.547456 265.76987 
L 519.998976 265.686877 
L 522.418176 266.417215 
L 523.934208 267.072859 
L 525.869568 267.931836 
L 526.288896 268.118571 
L 527.966208 268.857208 
L 530.44992 269.931967 
L 531.804672 270.504619 
L 536.256 272.218423 
L 536.449536 345.994631 
L 536.481792 346.011682 
L 536.514048 345.927905 
L 536.546304 345.844123 
L 536.610816 345.937623 
L 536.933376 345.939026 
L 546.7392 346.051626 
L 569.544192 345.868482 
L 574.285824 345.836683 
L 576.576 345.821632 
L 576.705024 287.953891 
L 576.801792 288.32321 
L 577.737216 288.55144 
L 578.382336 288.692528 
L 578.898432 288.800419 
L 579.543552 288.941507 
L 580.059648 289.049398 
L 580.704768 289.190486 
L 581.220864 289.298377 
L 581.865984 289.439465 
L 582.478848 289.547356 
L 583.123968 289.688444 
L 583.736832 289.796335 
L 584.285184 289.895926 
L 584.898048 290.003817 
L 585.4464 290.103409 
L 585.962496 290.2113 
L 586.510848 290.310891 
L 587.22048 290.418782 
L 587.768832 290.518374 
L 588.478464 290.622115 
L 588.83328 290.68436 
L 589.446144 290.788101 
L 589.80096 290.850345 
L 590.510592 290.954087 
L 590.865408 291.016331 
L 591.671808 291.120073 
L 592.026624 291.182317 
L 592.736256 291.286059 
L 593.091072 291.348303 
L 593.99424 291.452045 
L 594.349056 291.514289 
L 595.155456 291.61803 
L 595.510272 291.680275 
L 596.41344 291.784016 
L 596.671488 291.804765 
L 597.477888 291.908506 
L 597.832704 291.966601 
L 603.542016 292.593198 
L 604.541952 292.696939 
L 604.8 292.717687 
L 605.799936 292.821429 
L 606.057984 292.842177 
L 607.154688 292.945918 
L 607.412736 292.962517 
L 609.864192 293.169999 
L 610.92864 293.27789 
L 611.186688 293.298638 
L 612.573696 293.402379 
L 612.831744 293.423128 
L 614.218752 293.526869 
L 614.4768 293.547617 
L 614.992896 293.584964 
L 616.799232 293.709453 
L 616.896 293.709453 
L 616.928256 298.792773 
L 617.05728 345.691375 
L 617.283072 345.678088 
L 657.216 345.636633 
L 657.312768 295.228225 
L 657.441792 295.244823 
L 663.570432 295.352714 
L 663.82848 295.369313 
L 697.536 295.410809 
L 697.665024 345.938656 
L 697.826304 345.697126 
L 698.084352 345.604603 
L 698.439168 345.649777 
L 698.761728 345.632126 
L 737.856 345.632341 
L 738.01728 295.195028 
L 738.081792 295.663938 
L 738.17856 295.236524 
L 738.243072 295.394211 
L 738.726912 295.410809 
L 778.176 295.410809 
L 778.305024 345.938412 
L 778.466304 345.697126 
L 778.724352 345.604625 
L 779.079168 345.649767 
L 779.401728 345.632126 
L 818.496 345.632343 
L 818.65728 295.195028 
L 818.721792 295.663938 
L 818.81856 295.236524 
L 818.883072 295.394211 
L 819.366912 295.410809 
L 858.816 295.410809 
L 859.106304 345.725136 
L 859.267584 345.629805 
L 860.719104 345.628543 
L 869.428224 345.637822 
L 899.136 345.632382 
L 899.29728 295.327816 
L 899.361792 295.427408 
L 900.329472 295.410809 
L 939.456 295.410809 
L 939.488256 302.892626 
L 939.61728 345.582976 
L 939.649536 345.703645 
L 939.714048 345.588207 
L 939.810816 345.605353 
L 940.004352 345.657174 
L 940.230144 345.631026 
L 945.842688 345.632346 
L 947.52 345.632333 
L 947.52 345.632333 
" clip-path="url(#p9eb50f11a0)" style="fill: none; stroke: #0000ff; stroke-width: 2; stroke-linecap: square"/>
   </g>
   <g id="patch_16">
    <path d="M 100.8 354.165517 
L 100.8 261.434483 
" style="fill: none; stroke: #bcbcbc; stroke-width: 0.8; stroke-linejoin: miter; stroke-linecap: square"/>
   </g>
   <g id="patch_17">
    <path d="M 987.84 354.165517 
L 987.84 261.434483 
" style="fill: none; stroke: #bcbcbc; stroke-width: 0.8; stroke-linejoin: miter; stroke-linecap: square"/>
   </g>
   <g id="patch_18">
    <path d="M 100.8 354.165517 
L 987.84 354.165517 
" style="fill: none; stroke: #bcbcbc; stroke-width: 0.8; stroke-linejoin: miter; stroke-linecap: square"/>
   </g>
   <g id="patch_19">
    <path d="M 100.8 261.434483 
L 987.84 261.434483 
" style="fill: none; stroke: #bcbcbc; stroke-width: 0.8; stroke-linejoin: miter; stroke-linecap: square"/>
   </g>
  </g>
  <g id="axes_4">
   <g id="patch_20">
    <path d="M 100.8 465.442759 
L 987.84 465.442759 
L 987.84 372.711724 
L 100.8 372.711724 
z
" style="fill: #eeeeee"/>
   </g>
   <g id="matplotlib.axis_7">
    <g id="xtick_19">
     <g id="line2d_56">
      <path d="M 141.12 465.442759 
L 141.12 372.711724 
" clip-path="url(#pb56f650da9)" style="fill: none; stroke-dasharray: 1.85,0.8; stroke-dashoffset: 0; stroke: #b2b2b2; stroke-width: 0.5"/>
     </g>
     <g id="line2d_57">
      <g>
       <use xlink:href="#m207b6e8b29" x="141.12" y="465.442759" style="stroke: #000000; stroke-width: 0.8"/>
      </g>
     </g>
    </g>
    <g id="xtick_20">
     <g id="line2d_58">
      <path d="M 302.4 465.442759 
L 302.4 372.711724 
" clip-path="url(#pb56f650da9)" style="fill: none; stroke-dasharray: 1.85,0.8; stroke-dashoffset: 0; stroke: #b2b2b2; stroke-width: 0.5"/>
     </g>
     <g id="line2d_59">
      <g>
       <use xlink:href="#m207b6e8b29" x="302.4" y="465.442759" style="stroke: #000000; stroke-width: 0.8"/>
      </g>
     </g>
    </g>
    <g id="xtick_21">
     <g id="line2d_60">
      <path d="M 463.68 465.442759 
L 463.68 372.711724 
" clip-path="url(#pb56f650da9)" style="fill: none; stroke-dasharray: 1.85,0.8; stroke-dashoffset: 0; stroke: #b2b2b2; stroke-width: 0.5"/>
     </g>
     <g id="line2d_61">
      <g>
       <use xlink:href="#m207b6e8b29" x="463.68" y="465.442759" style="stroke: #000000; stroke-width: 0.8"/>
      </g>
     </g>
    </g>
    <g id="xtick_22">
     <g id="line2d_62">
      <path d="M 624.96 465.442759 
L 624.96 372.711724 
" clip-path="url(#pb56f650da9)" style="fill: none; stroke-dasharray: 1.85,0.8; stroke-dashoffset: 0; stroke: #b2b2b2; stroke-width: 0.5"/>
     </g>
     <g id="line2d_63">
      <g>
       <use xlink:href="#m207b6e8b29" x="624.96" y="465.442759" style="stroke: #000000; stroke-width: 0.8"/>
      </g>
     </g>
    </g>
    <g id="xtick_23">
     <g id="line2d_64">
      <path d="M 786.24 465.442759 
L 786.24 372.711724 
" clip-path="url(#pb56f650da9)" style="fill: none; stroke-dasharray: 1.85,0.8; stroke-dashoffset: 0; stroke: #b2b2b2; stroke-width: 0.5"/>
     </g>
     <g id="line2d_65">
      <g>
       <use xlink:href="#m207b6e8b29" x="786.24" y="465.442759" style="stroke: #000000; stroke-width: 0.8"/>
      </g>
     </g>
    </g>
    <g id="xtick_24">
     <g id="line2d_66">
      <path d="M 947.52 465.442759 
L 947.52 372.711724 
" clip-path="url(#pb56f650da9)" style="fill: none; stroke-dasharray: 1.85,0.8; stroke-dashoffset: 0; stroke: #b2b2b2; stroke-width: 0.5"/>
     </g>
     <g id="line2d_67">
      <g>
       <use xlink:href="#m207b6e8b29" x="947.52" y="465.442759" style="stroke: #000000; stroke-width: 0.8"/>
      </g>
     </g>
    </g>
   </g>
   <g id="matplotlib.axis_8">
    <g id="ytick_9">
     <g id="line2d_68">
      <path d="M 100.8 436.433878 
L 987.84 436.433878 
" clip-path="url(#pb56f650da9)" style="fill: none; stroke-dasharray: 1.85,0.8; stroke-dashoffset: 0; stroke: #b2b2b2; stroke-width: 0.5"/>
     </g>
     <g id="line2d_69">
      <g>
       <use xlink:href="#m8064f02705" x="100.8" y="436.433878" style="stroke: #000000; stroke-width: 0.8"/>
      </g>
     </g>
     <g id="text_12">
      <!-- 0 V -->
      <g transform="translate(74.36625 441.752784) scale(0.14 -0.14)">
       <use xlink:href="#DejaVuSans-30"/>
       <use xlink:href="#DejaVuSans-20" x="63.623047"/>
       <use xlink:href="#DejaVuSans-56" x="95.410156"/>
      </g>
     </g>
    </g>
    <g id="ytick_10">
     <g id="line2d_70">
      <path d="M 100.8 393.121332 
L 987.84 393.121332 
" clip-path="url(#pb56f650da9)" style="fill: none; stroke-dasharray: 1.85,0.8; stroke-dashoffset: 0; stroke: #b2b2b2; stroke-width: 0.5"/>
     </g>
     <g id="line2d_71">
      <g>
       <use xlink:href="#m8064f02705" x="100.8" y="393.121332" style="stroke: #000000; stroke-width: 0.8"/>
      </g>
     </g>
     <g id="text_13">
      <!-- 1 V -->
      <g transform="translate(74.36625 398.440238) scale(0.14 -0.14)">
       <use xlink:href="#DejaVuSans-31"/>
       <use xlink:href="#DejaVuSans-20" x="63.623047"/>
       <use xlink:href="#DejaVuSans-56" x="95.410156"/>
      </g>
     </g>
    </g>
    <g id="text_14">
     <g id="patch_21">
      <path d="M 34.8768 454.693023 
L 34.8768 383.46146 
L 11.247425 383.46146 
L 11.247425 454.693023 
z
" style="fill: #ffff00; opacity: 0.2; stroke: #eeeeee; stroke-width: 0.5; stroke-linejoin: miter"/>
     </g>
     <!-- DFF OUT -->
     <g transform="translate(26.925238 449.653023) rotate(-90) scale(0.14 -0.14)">
      <defs>
       <path id="DejaVuSans-4f" d="M 2522 4238 
Q 1834 4238 1429 3725 
Q 1025 3213 1025 2328 
Q 1025 1447 1429 934 
Q 1834 422 2522 422 
Q 3209 422 3611 934 
Q 4013 1447 4013 2328 
Q 4013 3213 3611 3725 
Q 3209 4238 2522 4238 
z
M 2522 4750 
Q 3503 4750 4090 4092 
Q 4678 3434 4678 2328 
Q 4678 1225 4090 567 
Q 3503 -91 2522 -91 
Q 1538 -91 948 565 
Q 359 1222 359 2328 
Q 359 3434 948 4092 
Q 1538 4750 2522 4750 
z
" transform="scale(0.015625)"/>
       <path id="DejaVuSans-54" d="M -19 4666 
L 3928 4666 
L 3928 4134 
L 2272 4134 
L 2272 0 
L 1638 0 
L 1638 4134 
L -19 4134 
L -19 4666 
z
" transform="scale(0.015625)"/>
      </defs>
      <use xlink:href="#DejaVuSans-44"/>
      <use xlink:href="#DejaVuSans-46" x="77.001953"/>
      <use xlink:href="#DejaVuSans-46" x="134.521484"/>
      <use xlink:href="#DejaVuSans-20" x="192.041016"/>
      <use xlink:href="#DejaVuSans-4f" x="223.828125"/>
      <use xlink:href="#DejaVuSans-55" x="302.539062"/>
      <use xlink:href="#DejaVuSans-54" x="375.732422"/>
     </g>
    </g>
   </g>
   <g id="line2d_72">
    <path d="M 141.12 403.753263 
L 173.408256 403.806104 
L 173.440512 405.599243 
L 173.601792 436.436521 
L 174.085632 436.431107 
L 183.53664 436.432724 
L 254.048256 436.434538 
L 254.080512 436.607682 
L 254.112768 436.321278 
L 254.306304 432.092661 
L 254.596608 431.245035 
L 254.693376 430.640392 
L 255.14496 423.052034 
L 255.370752 405.216794 
L 255.596544 384.878955 
L 255.757824 384.523792 
L 255.983616 384.454492 
L 256.822272 384.458823 
L 295.755264 384.545448 
L 296.239104 387.34777 
L 296.59392 386.646106 
L 297.948672 384.813986 
L 299.561472 384.493473 
L 334.688256 384.476148 
L 334.720512 384.350542 
L 334.752768 384.987236 
L 334.785024 388.136058 
L 334.914048 436.416123 
L 334.97856 436.378005 
L 335.13984 436.4248 
L 335.4624 436.436087 
L 336.75264 436.432728 
L 415.328256 436.434511 
L 415.360512 436.607085 
L 415.392768 436.32366 
L 415.586304 431.99131 
L 415.844352 431.11553 
L 415.908864 430.877744 
L 416.1024 425.736978 
L 416.521728 410.772061 
L 416.9088 384.601754 
L 417.102336 384.463154 
L 417.521664 384.463154 
L 418.19904 384.445829 
L 418.84416 384.467485 
L 419.586048 384.458823 
L 428.295168 384.567104 
L 429.907968 386.914644 
L 431.58528 389.83391 
L 436.165632 398.049867 
L 436.778496 399.664558 
L 437.101056 400.883373 
L 437.133312 400.82187 
L 437.165568 400.777258 
L 437.197824 400.87038 
L 437.326848 401.472424 
L 437.681664 403.396367 
L 437.842944 403.866742 
L 438.907392 409.297702 
L 439.294464 411.239836 
L 439.358976 410.889005 
L 439.552512 412.492002 
L 440.100864 415.272667 
L 440.520192 417.452155 
L 440.552448 417.221299 
L 440.584704 417.039819 
L 440.649216 417.284968 
L 440.875008 419.220173 
L 441.197568 421.003783 
L 441.229824 420.36579 
L 441.26208 421.304372 
L 441.58464 422.977969 
L 442.907136 429.655031 
L 442.939392 429.342315 
L 442.971648 429.301601 
L 443.003904 429.347512 
L 443.03616 429.423742 
L 443.294208 431.408323 
L 443.778048 432.967878 
L 443.810304 432.859813 
L 443.939328 434.234337 
L 444.197376 435.349722 
L 444.229632 435.097253 
L 444.294144 435.076593 
L 444.423168 436.017229 
L 444.48768 435.994905 
L 444.64896 437.319013 
L 445.003776 438.782197 
L 445.036032 438.308055 
L 445.100544 438.869299 
L 445.1328 438.670884 
L 445.165056 438.866051 
L 445.681152 441.254131 
L 445.713408 441.121595 
L 445.77792 441.219481 
L 446.003712 441.900787 
L 446.035968 441.864405 
L 446.197248 442.769204 
L 446.229504 442.490271 
L 446.294016 442.683012 
L 446.42304 443.302381 
L 446.648832 443.978057 
L 446.971392 444.727797 
L 447.003648 444.81139 
L 447.100416 444.765912 
L 447.197184 444.911442 
L 447.584256 445.754738 
L 447.71328 446.433878 
L 447.745536 446.177901 
L 447.777792 446.662136 
L 447.810048 446.40226 
L 447.971328 447.159797 
L 449.9712 452.277607 
L 450.003456 452.193581 
L 450.035712 452.145937 
L 450.067968 452.2239 
L 453.551616 460.315549 
L 454.067712 461.212985 
L 454.261248 461.038869 
L 454.551552 460.408671 
L 456.26112 457.143339 
L 456.357888 457.025528 
L 456.58368 456.546492 
L 456.615936 456.617091 
L 456.777216 456.169239 
L 456.809472 456.208654 
L 457.003008 455.814076 
L 457.357824 455.328976 
L 457.39008 455.509589 
L 457.422336 455.260542 
L 457.454592 455.387015 
L 457.615872 454.965584 
L 457.648128 454.944361 
L 457.680384 455.108082 
L 457.71264 454.891519 
L 457.906176 454.641173 
L 457.938432 454.71697 
L 457.970688 454.74469 
L 458.131968 454.503872 
L 458.325504 454.298571 
L 458.68032 453.660577 
L 458.873856 453.365185 
L 458.906112 453.554028 
L 458.938368 453.265133 
L 458.970624 453.227884 
L 459.00288 453.430587 
L 459.035136 453.381211 
L 459.16416 453.015653 
L 459.48672 452.566502 
L 459.518976 452.684312 
L 459.551232 452.478144 
L 459.841536 452.168026 
L 459.97056 452.019031 
L 460.002816 452.236893 
L 460.067328 451.923311 
L 460.099584 452.035057 
L 460.13184 451.86917 
L 461.09952 450.890306 
L 461.518848 450.22286 
L 461.551104 450.289994 
L 461.58336 450.142299 
L 461.615616 450.213331 
L 461.776896 449.845175 
L 461.841408 450.123674 
L 461.873664 449.782804 
L 462.163968 449.421578 
L 462.680064 448.90356 
L 462.71232 449.028733 
L 462.744576 448.831228 
L 462.776832 448.816935 
L 462.809088 449.052988 
L 462.8736 448.716883 
L 462.905856 448.813037 
L 462.938112 448.674436 
L 462.970368 448.664908 
L 463.776768 448.011754 
L 463.938048 447.726325 
L 464.131584 447.27804 
L 464.228352 447.116051 
L 464.260608 447.417073 
L 464.32512 446.986113 
L 464.357376 447.272409 
L 464.389632 446.942368 
L 464.421888 446.972253 
L 464.550912 446.691155 
L 464.583168 446.724073 
L 464.615424 446.63225 
L 464.712192 446.533064 
L 464.744448 446.915081 
L 464.80896 446.737066 
L 465.099264 446.126359 
L 465.13152 446.47849 
L 465.163776 446.029772 
L 465.228288 446.376273 
L 465.2928 445.95181 
L 465.357312 445.995555 
L 465.421824 446.033671 
L 465.550848 445.734381 
L 466.163712 445.438989 
L 466.74432 444.812257 
L 466.873344 444.584866 
L 467.034624 444.097167 
L 467.06688 444.421144 
L 467.099136 444.089803 
L 467.131392 444.357042 
L 467.22816 443.789214 
L 467.260416 444.191155 
L 467.324928 443.699124 
L 467.615232 443.389006 
L 467.647488 443.826463 
L 467.712 443.502485 
L 467.776512 443.210126 
L 467.808768 443.503785 
L 467.841024 443.579149 
L 467.970048 443.025614 
L 468.099072 442.956747 
L 468.131328 443.360853 
L 468.163584 442.851065 
L 468.228096 443.265999 
L 468.35712 442.735853 
L 468.389376 442.74235 
L 468.421632 442.987932 
L 468.453888 442.65919 
L 468.486144 442.677381 
L 468.550656 442.628871 
L 468.615168 442.900441 
L 468.776448 442.567367 
L 469.260288 442.31269 
L 469.96992 441.602364 
L 470.29248 441.245035 
L 470.421504 440.562733 
L 470.61504 440.337031 
L 470.647296 440.829235 
L 470.679552 440.244083 
L 470.744064 440.723596 
L 470.873088 440.045624 
L 470.905344 440.047963 
L 470.9376 440.434961 
L 470.969856 439.94475 
L 471.002112 439.97091 
L 471.066624 439.886191 
L 471.09888 440.00543 
L 471.131136 440.247981 
L 471.163392 439.756123 
L 471.227904 440.049609 
L 471.26016 439.710992 
L 471.389184 439.661702 
L 471.90528 439.489145 
L 472.131072 439.390955 
L 473.260032 438.191241 
L 473.614848 437.683791 
L 473.808384 436.920581 
L 473.84064 437.111199 
L 473.872896 436.751398 
L 473.905152 436.622253 
L 473.937408 436.639019 
L 473.969664 437.014093 
L 474.034176 436.897582 
L 474.130944 436.605062 
L 474.1632 436.674947 
L 474.292224 436.460266 
L 474.937344 435.256946 
L 476.5824 431.920277 
L 476.711424 430.877744 
L 476.74368 431.626185 
L 476.775936 430.719654 
L 476.840448 431.439508 
L 476.969472 430.579321 
L 477.098496 430.712291 
L 477.195264 430.631296 
L 478.291968 428.446611 
L 478.420992 427.68431 
L 478.485504 427.894809 
L 478.550016 427.794324 
L 482.54976 419.265651 
L 482.582016 418.605135 
L 482.678784 418.774487 
L 483.452928 417.238191 
L 483.872256 416.370207 
L 483.904512 416.387099 
L 483.969024 416.060089 
L 484.00128 415.407802 
L 484.098048 415.456746 
L 484.32384 415.506988 
L 484.420608 415.389178 
L 487.259136 410.139698 
L 487.291392 410.181278 
L 487.323648 410.090754 
L 488.613888 407.792158 
L 490.93632 404.489143 
L 491.129856 404.306797 
L 492.38784 402.43916 
L 492.645888 402.033755 
L 492.87168 401.780376 
L 493.774848 398.889264 
L 496.000512 394.107559 
L 496.032768 393.677465 
L 496.065024 393.77925 
L 496.161792 420.067799 
L 496.290816 434.47719 
L 496.452096 434.531721 
L 500.161536 434.612759 
L 512.483328 435.034406 
L 514.32192 434.987802 
L 518.482944 435.132293 
L 518.773248 435.443623 
L 519.450624 436.018394 
L 520.257024 436.402026 
L 521.289216 436.648461 
L 522.966528 436.796807 
L 526.74048 436.839041 
L 536.288256 436.769139 
L 536.320512 436.699146 
L 536.352768 436.803923 
L 536.385024 436.789612 
L 538.51392 436.853057 
L 540.675072 436.935264 
L 550.061568 436.849587 
L 576.608256 436.635961 
L 576.640512 436.969784 
L 576.963072 429.985506 
L 577.188864 428.632855 
L 577.350144 426.117696 
L 577.511424 419.033929 
L 577.70496 398.528903 
L 577.930752 377.09569 
L 578.059776 376.926771 
L 578.092032 376.939765 
L 578.769408 377.100021 
L 579.253248 377.195309 
L 579.704832 377.312253 
L 580.995072 377.585122 
L 581.446656 377.702066 
L 583.0272 378.018247 
L 583.382016 378.091879 
L 585.091584 378.421054 
L 585.4464 378.486023 
L 585.93024 378.58131 
L 586.285056 378.654942 
L 588.962304 379.114055 
L 589.31712 379.179024 
L 590.026752 379.287305 
L 590.381568 379.352274 
L 591.0912 379.460555 
L 591.446016 379.525524 
L 592.155648 379.633805 
L 592.510464 379.698774 
L 593.316864 379.807055 
L 593.67168 379.872024 
L 594.574848 379.980306 
L 594.929664 380.045274 
L 595.832832 380.153556 
L 596.187648 380.218525 
L 597.090816 380.326806 
L 597.348864 380.348462 
L 598.155264 380.456744 
L 598.51008 380.521712 
L 599.510016 380.629994 
L 599.768064 380.65165 
L 600.574464 380.759931 
L 600.832512 380.781588 
L 601.73568 380.889869 
L 601.993728 380.911525 
L 602.896896 381.019807 
L 603.154944 381.041463 
L 604.058112 381.149744 
L 604.31616 381.171401 
L 605.316096 381.279682 
L 605.574144 381.301338 
L 606.670848 381.40962 
L 606.928896 381.431276 
L 608.0256 381.539557 
L 608.283648 381.561214 
L 609.47712 381.669495 
L 609.735168 381.691151 
L 610.92864 381.799433 
L 611.186688 381.821089 
L 612.573696 381.92937 
L 612.831744 381.951026 
L 614.218752 382.059308 
L 614.4768 382.080964 
L 615.960576 382.189245 
L 616.218624 382.20657 
L 617.766912 382.306189 
L 618.121728 382.336508 
L 619.573248 382.427464 
L 620.089344 382.466446 
L 621.831168 382.566065 
L 622.185984 382.600715 
L 624.089088 382.708996 
L 624.347136 382.726321 
L 626.476032 382.82594 
L 626.830848 382.856259 
L 627.992064 382.903902 
L 628.50816 382.942884 
L 630.92736 383.042503 
L 631.282176 383.072821 
L 634.023936 383.17244 
L 634.378752 383.202759 
L 637.410816 383.302378 
L 637.765632 383.332697 
L 638.894592 383.376009 
L 642.53952 383.475628 
L 642.894336 383.510278 
L 643.700736 383.510278 
L 647.023104 383.618559 
L 647.345664 383.640216 
L 648.18432 383.635885 
L 652.21632 383.735503 
L 652.571136 383.770153 
L 653.409792 383.765822 
L 657.248256 383.848116 
L 657.280512 384.056016 
L 657.345024 383.852447 
L 658.18368 383.843785 
L 659.409408 383.900091 
L 666.473472 384.008372 
L 666.73152 384.025697 
L 737.888256 384.021366 
L 737.920512 384.24226 
L 737.985024 384.021366 
L 738.17856 383.99971 
L 739.178496 384.025697 
L 818.528256 384.021366 
L 818.560512 384.24226 
L 818.625024 384.021366 
L 818.81856 383.99971 
L 819.818496 384.025697 
L 899.168256 384.043022 
L 899.200512 384.190285 
L 899.265024 383.991047 
L 899.523072 384.017035 
L 947.52 384.025697 
L 947.52 384.025697 
" clip-path="url(#pb56f650da9)" style="fill: none; stroke: #ff00ff; stroke-width: 2; stroke-linecap: square"/>
   </g>
   <g id="patch_22">
    <path d="M 100.8 465.442759 
L 100.8 372.711724 
" style="fill: none; stroke: #bcbcbc; stroke-width: 0.8; stroke-linejoin: miter; stroke-linecap: square"/>
   </g>
   <g id="patch_23">
    <path d="M 987.84 465.442759 
L 987.84 372.711724 
" style="fill: none; stroke: #bcbcbc; stroke-width: 0.8; stroke-linejoin: miter; stroke-linecap: square"/>
   </g>
   <g id="patch_24">
    <path d="M 100.8 465.442759 
L 987.84 465.442759 
" style="fill: none; stroke: #bcbcbc; stroke-width: 0.8; stroke-linejoin: miter; stroke-linecap: square"/>
   </g>
   <g id="patch_25">
    <path d="M 100.8 372.711724 
L 987.84 372.711724 
" style="fill: none; stroke: #bcbcbc; stroke-width: 0.8; stroke-linejoin: miter; stroke-linecap: square"/>
   </g>
  </g>
  <g id="axes_5">
   <g id="patch_26">
    <path d="M 100.8 576.72 
L 987.84 576.72 
L 987.84 483.988966 
L 100.8 483.988966 
z
" style="fill: #eeeeee"/>
   </g>
   <g id="matplotlib.axis_9">
    <g id="xtick_25">
     <g id="line2d_73">
      <path d="M 141.12 576.72 
L 141.12 483.988966 
" clip-path="url(#p07ea4b8d43)" style="fill: none; stroke-dasharray: 1.85,0.8; stroke-dashoffset: 0; stroke: #b2b2b2; stroke-width: 0.5"/>
     </g>
     <g id="line2d_74">
      <g>
       <use xlink:href="#m207b6e8b29" x="141.12" y="576.72" style="stroke: #000000; stroke-width: 0.8"/>
      </g>
     </g>
     <g id="text_15">
      <!-- 0 s -->
      <g transform="translate(130.795 590.857813) scale(0.14 -0.14)">
       <defs>
        <path id="DejaVuSans-73" d="M 2834 3397 
L 2834 2853 
Q 2591 2978 2328 3040 
Q 2066 3103 1784 3103 
Q 1356 3103 1142 2972 
Q 928 2841 928 2578 
Q 928 2378 1081 2264 
Q 1234 2150 1697 2047 
L 1894 2003 
Q 2506 1872 2764 1633 
Q 3022 1394 3022 966 
Q 3022 478 2636 193 
Q 2250 -91 1575 -91 
Q 1294 -91 989 -36 
Q 684 19 347 128 
L 347 722 
Q 666 556 975 473 
Q 1284 391 1588 391 
Q 1994 391 2212 530 
Q 2431 669 2431 922 
Q 2431 1156 2273 1281 
Q 2116 1406 1581 1522 
L 1381 1569 
Q 847 1681 609 1914 
Q 372 2147 372 2553 
Q 372 3047 722 3315 
Q 1072 3584 1716 3584 
Q 2034 3584 2315 3537 
Q 2597 3491 2834 3397 
z
" transform="scale(0.015625)"/>
       </defs>
       <use xlink:href="#DejaVuSans-30"/>
       <use xlink:href="#DejaVuSans-20" x="63.623047"/>
       <use xlink:href="#DejaVuSans-73" x="95.410156"/>
      </g>
     </g>
    </g>
    <g id="xtick_26">
     <g id="line2d_75">
      <path d="M 302.4 576.72 
L 302.4 483.988966 
" clip-path="url(#p07ea4b8d43)" style="fill: none; stroke-dasharray: 1.85,0.8; stroke-dashoffset: 0; stroke: #b2b2b2; stroke-width: 0.5"/>
     </g>
     <g id="line2d_76">
      <g>
       <use xlink:href="#m207b6e8b29" x="302.4" y="576.72" style="stroke: #000000; stroke-width: 0.8"/>
      </g>
     </g>
     <g id="text_16">
      <!-- 50 ns -->
      <g transform="translate(283.185 590.857813) scale(0.14 -0.14)">
       <defs>
        <path id="DejaVuSans-35" d="M 691 4666 
L 3169 4666 
L 3169 4134 
L 1269 4134 
L 1269 2991 
Q 1406 3038 1543 3061 
Q 1681 3084 1819 3084 
Q 2600 3084 3056 2656 
Q 3513 2228 3513 1497 
Q 3513 744 3044 326 
Q 2575 -91 1722 -91 
Q 1428 -91 1123 -41 
Q 819 9 494 109 
L 494 744 
Q 775 591 1075 516 
Q 1375 441 1709 441 
Q 2250 441 2565 725 
Q 2881 1009 2881 1497 
Q 2881 1984 2565 2268 
Q 2250 2553 1709 2553 
Q 1456 2553 1204 2497 
Q 953 2441 691 2322 
L 691 4666 
z
" transform="scale(0.015625)"/>
        <path id="DejaVuSans-6e" d="M 3513 2113 
L 3513 0 
L 2938 0 
L 2938 2094 
Q 2938 2591 2744 2837 
Q 2550 3084 2163 3084 
Q 1697 3084 1428 2787 
Q 1159 2491 1159 1978 
L 1159 0 
L 581 0 
L 581 3500 
L 1159 3500 
L 1159 2956 
Q 1366 3272 1645 3428 
Q 1925 3584 2291 3584 
Q 2894 3584 3203 3211 
Q 3513 2838 3513 2113 
z
" transform="scale(0.015625)"/>
       </defs>
       <use xlink:href="#DejaVuSans-35"/>
       <use xlink:href="#DejaVuSans-30" x="63.623047"/>
       <use xlink:href="#DejaVuSans-20" x="127.246094"/>
       <use xlink:href="#DejaVuSans-6e" x="159.033203"/>
       <use xlink:href="#DejaVuSans-73" x="222.412109"/>
      </g>
     </g>
    </g>
    <g id="xtick_27">
     <g id="line2d_77">
      <path d="M 463.68 576.72 
L 463.68 483.988966 
" clip-path="url(#p07ea4b8d43)" style="fill: none; stroke-dasharray: 1.85,0.8; stroke-dashoffset: 0; stroke: #b2b2b2; stroke-width: 0.5"/>
     </g>
     <g id="line2d_78">
      <g>
       <use xlink:href="#m207b6e8b29" x="463.68" y="576.72" style="stroke: #000000; stroke-width: 0.8"/>
      </g>
     </g>
     <g id="text_17">
      <!-- 100 ns -->
      <g transform="translate(440.01125 590.857813) scale(0.14 -0.14)">
       <use xlink:href="#DejaVuSans-31"/>
       <use xlink:href="#DejaVuSans-30" x="63.623047"/>
       <use xlink:href="#DejaVuSans-30" x="127.246094"/>
       <use xlink:href="#DejaVuSans-20" x="190.869141"/>
       <use xlink:href="#DejaVuSans-6e" x="222.65625"/>
       <use xlink:href="#DejaVuSans-73" x="286.035156"/>
      </g>
     </g>
    </g>
    <g id="xtick_28">
     <g id="line2d_79">
      <path d="M 624.96 576.72 
L 624.96 483.988966 
" clip-path="url(#p07ea4b8d43)" style="fill: none; stroke-dasharray: 1.85,0.8; stroke-dashoffset: 0; stroke: #b2b2b2; stroke-width: 0.5"/>
     </g>
     <g id="line2d_80">
      <g>
       <use xlink:href="#m207b6e8b29" x="624.96" y="576.72" style="stroke: #000000; stroke-width: 0.8"/>
      </g>
     </g>
     <g id="text_18">
      <!-- 150 ns -->
      <g transform="translate(601.29125 590.857813) scale(0.14 -0.14)">
       <use xlink:href="#DejaVuSans-31"/>
       <use xlink:href="#DejaVuSans-35" x="63.623047"/>
       <use xlink:href="#DejaVuSans-30" x="127.246094"/>
       <use xlink:href="#DejaVuSans-20" x="190.869141"/>
       <use xlink:href="#DejaVuSans-6e" x="222.65625"/>
       <use xlink:href="#DejaVuSans-73" x="286.035156"/>
      </g>
     </g>
    </g>
    <g id="xtick_29">
     <g id="line2d_81">
      <path d="M 786.24 576.72 
L 786.24 483.988966 
" clip-path="url(#p07ea4b8d43)" style="fill: none; stroke-dasharray: 1.85,0.8; stroke-dashoffset: 0; stroke: #b2b2b2; stroke-width: 0.5"/>
     </g>
     <g id="line2d_82">
      <g>
       <use xlink:href="#m207b6e8b29" x="786.24" y="576.72" style="stroke: #000000; stroke-width: 0.8"/>
      </g>
     </g>
     <g id="text_19">
      <!-- 200 ns -->
      <g transform="translate(762.57125 590.857813) scale(0.14 -0.14)">
       <use xlink:href="#DejaVuSans-32"/>
       <use xlink:href="#DejaVuSans-30" x="63.623047"/>
       <use xlink:href="#DejaVuSans-30" x="127.246094"/>
       <use xlink:href="#DejaVuSans-20" x="190.869141"/>
       <use xlink:href="#DejaVuSans-6e" x="222.65625"/>
       <use xlink:href="#DejaVuSans-73" x="286.035156"/>
      </g>
     </g>
    </g>
    <g id="xtick_30">
     <g id="line2d_83">
      <path d="M 947.52 576.72 
L 947.52 483.988966 
" clip-path="url(#p07ea4b8d43)" style="fill: none; stroke-dasharray: 1.85,0.8; stroke-dashoffset: 0; stroke: #b2b2b2; stroke-width: 0.5"/>
     </g>
     <g id="line2d_84">
      <g>
       <use xlink:href="#m207b6e8b29" x="947.52" y="576.72" style="stroke: #000000; stroke-width: 0.8"/>
      </g>
     </g>
     <g id="text_20">
      <!-- 250 ns -->
      <g transform="translate(923.85125 590.857813) scale(0.14 -0.14)">
       <use xlink:href="#DejaVuSans-32"/>
       <use xlink:href="#DejaVuSans-35" x="63.623047"/>
       <use xlink:href="#DejaVuSans-30" x="127.246094"/>
       <use xlink:href="#DejaVuSans-20" x="190.869141"/>
       <use xlink:href="#DejaVuSans-6e" x="222.65625"/>
       <use xlink:href="#DejaVuSans-73" x="286.035156"/>
      </g>
     </g>
    </g>
    <g id="text_21">
     <!-- Time -->
     <g transform="translate(527.192969 608.407187) scale(0.14 -0.14)">
      <defs>
       <path id="DejaVuSans-69" d="M 603 3500 
L 1178 3500 
L 1178 0 
L 603 0 
L 603 3500 
z
M 603 4863 
L 1178 4863 
L 1178 4134 
L 603 4134 
L 603 4863 
z
" transform="scale(0.015625)"/>
       <path id="DejaVuSans-6d" d="M 3328 2828 
Q 3544 3216 3844 3400 
Q 4144 3584 4550 3584 
Q 5097 3584 5394 3201 
Q 5691 2819 5691 2113 
L 5691 0 
L 5113 0 
L 5113 2094 
Q 5113 2597 4934 2840 
Q 4756 3084 4391 3084 
Q 3944 3084 3684 2787 
Q 3425 2491 3425 1978 
L 3425 0 
L 2847 0 
L 2847 2094 
Q 2847 2600 2669 2842 
Q 2491 3084 2119 3084 
Q 1678 3084 1418 2786 
Q 1159 2488 1159 1978 
L 1159 0 
L 581 0 
L 581 3500 
L 1159 3500 
L 1159 2956 
Q 1356 3278 1631 3431 
Q 1906 3584 2284 3584 
Q 2666 3584 2933 3390 
Q 3200 3197 3328 2828 
z
" transform="scale(0.015625)"/>
       <path id="DejaVuSans-65" d="M 3597 1894 
L 3597 1613 
L 953 1613 
Q 991 1019 1311 708 
Q 1631 397 2203 397 
Q 2534 397 2845 478 
Q 3156 559 3463 722 
L 3463 178 
Q 3153 47 2828 -22 
Q 2503 -91 2169 -91 
Q 1331 -91 842 396 
Q 353 884 353 1716 
Q 353 2575 817 3079 
Q 1281 3584 2069 3584 
Q 2775 3584 3186 3129 
Q 3597 2675 3597 1894 
z
M 3022 2063 
Q 3016 2534 2758 2815 
Q 2500 3097 2075 3097 
Q 1594 3097 1305 2825 
Q 1016 2553 972 2059 
L 3022 2063 
z
" transform="scale(0.015625)"/>
      </defs>
      <use xlink:href="#DejaVuSans-54"/>
      <use xlink:href="#DejaVuSans-69" x="57.958984"/>
      <use xlink:href="#DejaVuSans-6d" x="85.742188"/>
      <use xlink:href="#DejaVuSans-65" x="183.154297"/>
     </g>
    </g>
   </g>
   <g id="matplotlib.axis_10">
    <g id="ytick_11">
     <g id="line2d_85">
      <path d="M 100.8 569.745885 
L 987.84 569.745885 
" clip-path="url(#p07ea4b8d43)" style="fill: none; stroke-dasharray: 1.85,0.8; stroke-dashoffset: 0; stroke: #b2b2b2; stroke-width: 0.5"/>
     </g>
     <g id="line2d_86">
      <g>
       <use xlink:href="#m8064f02705" x="100.8" y="569.745885" style="stroke: #000000; stroke-width: 0.8"/>
      </g>
     </g>
     <g id="text_22">
      <!-- 0 V -->
      <g transform="translate(74.36625 575.064792) scale(0.14 -0.14)">
       <use xlink:href="#DejaVuSans-30"/>
       <use xlink:href="#DejaVuSans-20" x="63.623047"/>
       <use xlink:href="#DejaVuSans-56" x="95.410156"/>
      </g>
     </g>
    </g>
    <g id="ytick_12">
     <g id="line2d_87">
      <path d="M 100.8 535.950348 
L 987.84 535.950348 
" clip-path="url(#p07ea4b8d43)" style="fill: none; stroke-dasharray: 1.85,0.8; stroke-dashoffset: 0; stroke: #b2b2b2; stroke-width: 0.5"/>
     </g>
     <g id="line2d_88">
      <g>
       <use xlink:href="#m8064f02705" x="100.8" y="535.950348" style="stroke: #000000; stroke-width: 0.8"/>
      </g>
     </g>
     <g id="text_23">
      <!-- 500 mV -->
      <g transform="translate(42.914375 541.269254) scale(0.14 -0.14)">
       <use xlink:href="#DejaVuSans-35"/>
       <use xlink:href="#DejaVuSans-30" x="63.623047"/>
       <use xlink:href="#DejaVuSans-30" x="127.246094"/>
       <use xlink:href="#DejaVuSans-20" x="190.869141"/>
       <use xlink:href="#DejaVuSans-6d" x="222.65625"/>
       <use xlink:href="#DejaVuSans-56" x="320.068359"/>
      </g>
     </g>
    </g>
    <g id="ytick_13">
     <g id="line2d_89">
      <path d="M 100.8 502.15481 
L 987.84 502.15481 
" clip-path="url(#p07ea4b8d43)" style="fill: none; stroke-dasharray: 1.85,0.8; stroke-dashoffset: 0; stroke: #b2b2b2; stroke-width: 0.5"/>
     </g>
     <g id="line2d_90">
      <g>
       <use xlink:href="#m8064f02705" x="100.8" y="502.15481" style="stroke: #000000; stroke-width: 0.8"/>
      </g>
     </g>
     <g id="text_24">
      <!-- 1 V -->
      <g transform="translate(74.36625 507.473717) scale(0.14 -0.14)">
       <use xlink:href="#DejaVuSans-31"/>
       <use xlink:href="#DejaVuSans-20" x="63.623047"/>
       <use xlink:href="#DejaVuSans-56" x="95.410156"/>
      </g>
     </g>
    </g>
    <g id="text_25">
     <g id="patch_27">
      <path d="M 34.8768 554.329483 
L 34.8768 506.379483 
L 11.247425 506.379483 
L 11.247425 554.329483 
z
" style="fill: #ffff00; opacity: 0.2; stroke: #eeeeee; stroke-width: 0.5; stroke-linejoin: miter"/>
     </g>
     <!-- FOUT -->
     <g transform="translate(26.925238 549.289483) rotate(-90) scale(0.14 -0.14)">
      <use xlink:href="#DejaVuSans-46"/>
      <use xlink:href="#DejaVuSans-4f" x="57.519531"/>
      <use xlink:href="#DejaVuSans-55" x="136.230469"/>
      <use xlink:href="#DejaVuSans-54" x="209.423828"/>
     </g>
    </g>
   </g>
   <g id="line2d_91">
    <path d="M 141.12 488.636595 
L 173.472768 488.643355 
L 173.505024 488.44734 
L 173.569536 526.789729 
L 173.69856 572.504953 
L 173.730816 572.3695 
L 173.827584 567.842115 
L 173.892096 569.3609 
L 174.053376 570.064192 
L 174.117888 569.946665 
L 174.408192 569.492054 
L 174.440448 569.54151 
L 174.66624 569.729954 
L 176.182272 569.740151 
L 180.117504 569.761449 
L 193.568256 569.752159 
L 212.954112 569.74401 
L 255.30624 569.743704 
L 255.6288 488.52845 
L 255.854592 488.670391 
L 256.209408 488.629836 
L 334.849536 488.650114 
L 334.881792 492.854278 
L 335.043072 572.18376 
L 335.107584 570.261206 
L 335.172096 568.338639 
L 335.236608 568.870108 
L 335.365632 570.783003 
L 335.430144 570.410083 
L 335.591424 569.797213 
L 335.881728 569.648439 
L 336.559104 569.817924 
L 337.107456 569.746143 
L 350.009856 569.744206 
L 416.489472 569.74332 
L 416.553984 567.39642 
L 416.812032 488.204013 
L 416.844288 488.339195 
L 416.973312 488.852887 
L 417.037824 488.778537 
L 417.39264 488.548727 
L 417.844224 488.717705 
L 418.457088 488.555486 
L 419.069952 488.697427 
L 419.295744 488.636595 
L 439.617024 488.541968 
L 439.64928 488.393268 
L 439.681536 488.758259 
L 439.746048 515.706821 
L 439.842816 570.086551 
L 439.907328 569.745587 
L 440.971776 569.744203 
L 486.09792 569.831408 
L 486.162432 567.420009 
L 486.549504 488.643355 
L 496.161792 488.643355 
L 496.194048 488.332436 
L 496.226304 494.73331 
L 496.387584 569.752686 
L 496.710144 569.744205 
L 577.608192 569.738157 
L 577.672704 569.446937 
L 577.930752 488.724464 
L 578.092032 488.636595 
L 947.52 488.636595 
L 947.52 488.636595 
" clip-path="url(#p07ea4b8d43)" style="fill: none; stroke: #ff00ff; stroke-width: 2; stroke-linecap: square"/>
   </g>
   <g id="patch_28">
    <path d="M 100.8 576.72 
L 100.8 483.988966 
" style="fill: none; stroke: #bcbcbc; stroke-width: 0.8; stroke-linejoin: miter; stroke-linecap: square"/>
   </g>
   <g id="patch_29">
    <path d="M 987.84 576.72 
L 987.84 483.988966 
" style="fill: none; stroke: #bcbcbc; stroke-width: 0.8; stroke-linejoin: miter; stroke-linecap: square"/>
   </g>
   <g id="patch_30">
    <path d="M 100.8 576.72 
L 987.84 576.72 
" style="fill: none; stroke: #bcbcbc; stroke-width: 0.8; stroke-linejoin: miter; stroke-linecap: square"/>
   </g>
   <g id="patch_31">
    <path d="M 100.8 483.988966 
L 987.84 483.988966 
" style="fill: none; stroke: #bcbcbc; stroke-width: 0.8; stroke-linejoin: miter; stroke-linecap: square"/>
   </g>
  </g>
  <g id="axes_6">
   <g id="patch_32">
    <path d="M 201.6 628.56 
L 856.8 628.56 
L 856.8 615.6 
L 201.6 615.6 
z
" clip-path="url(#pd18c48351f)" style="fill: #d3d3d3"/>
   </g>
   <g id="patch_33">
    <path d="M 201.6 628.56 
L 543.24 628.56 
L 543.24 615.6 
L 201.6 615.6 
z
" clip-path="url(#pd18c48351f)" style="fill: #0000ff"/>
   </g>
   <g id="line2d_92">
    <path d="M 201.6 635.04 
L 201.6 609.12 
" clip-path="url(#p8658688e24)" style="fill: none; stroke: #ff0000; stroke-linecap: square"/>
   </g>
   <g id="line2d_93">
    <defs>
     <path id="m4ba2d14f9d" d="M 0 5 
C 1.326016 5 2.597899 4.473168 3.535534 3.535534 
C 4.473168 2.597899 5 1.326016 5 0 
C 5 -1.326016 4.473168 -2.597899 3.535534 -3.535534 
C 2.597899 -4.473168 1.326016 -5 0 -5 
C -1.326016 -5 -2.597899 -4.473168 -3.535534 -3.535534 
C -4.473168 -2.597899 -5 -1.326016 -5 0 
C -5 1.326016 -4.473168 2.597899 -3.535534 3.535534 
C -2.597899 4.473168 -1.326016 5 0 5 
z
" style="stroke: #bfbfbf"/>
    </defs>
    <g>
     <use xlink:href="#m4ba2d14f9d" x="543.24" y="622.08" style="fill: #ffffff; stroke: #bfbfbf"/>
    </g>
   </g>
   <g id="text_26">
    <!-- #Sweep -->
    <g transform="translate(138.622875 625.39125) scale(0.12 -0.12)">
     <defs>
      <path id="DejaVuSans-23" d="M 3272 2816 
L 2363 2816 
L 2100 1772 
L 3016 1772 
L 3272 2816 
z
M 2803 4594 
L 2478 3297 
L 3391 3297 
L 3719 4594 
L 4219 4594 
L 3897 3297 
L 4872 3297 
L 4872 2816 
L 3775 2816 
L 3519 1772 
L 4513 1772 
L 4513 1294 
L 3397 1294 
L 3072 0 
L 2572 0 
L 2894 1294 
L 1978 1294 
L 1656 0 
L 1153 0 
L 1478 1294 
L 494 1294 
L 494 1772 
L 1594 1772 
L 1856 2816 
L 850 2816 
L 850 3297 
L 1978 3297 
L 2297 4594 
L 2803 4594 
z
" transform="scale(0.015625)"/>
      <path id="DejaVuSans-77" d="M 269 3500 
L 844 3500 
L 1563 769 
L 2278 3500 
L 2956 3500 
L 3675 769 
L 4391 3500 
L 4966 3500 
L 4050 0 
L 3372 0 
L 2619 2869 
L 1863 0 
L 1184 0 
L 269 3500 
z
" transform="scale(0.015625)"/>
      <path id="DejaVuSans-70" d="M 1159 525 
L 1159 -1331 
L 581 -1331 
L 581 3500 
L 1159 3500 
L 1159 2969 
Q 1341 3281 1617 3432 
Q 1894 3584 2278 3584 
Q 2916 3584 3314 3078 
Q 3713 2572 3713 1747 
Q 3713 922 3314 415 
Q 2916 -91 2278 -91 
Q 1894 -91 1617 61 
Q 1341 213 1159 525 
z
M 3116 1747 
Q 3116 2381 2855 2742 
Q 2594 3103 2138 3103 
Q 1681 3103 1420 2742 
Q 1159 2381 1159 1747 
Q 1159 1113 1420 752 
Q 1681 391 2138 391 
Q 2594 391 2855 752 
Q 3116 1113 3116 1747 
z
" transform="scale(0.015625)"/>
     </defs>
     <use xlink:href="#DejaVuSans-23"/>
     <use xlink:href="#DejaVuSans-53" x="83.789062"/>
     <use xlink:href="#DejaVuSans-77" x="147.265625"/>
     <use xlink:href="#DejaVuSans-65" x="229.052734"/>
     <use xlink:href="#DejaVuSans-65" x="290.576172"/>
     <use xlink:href="#DejaVuSans-70" x="352.099609"/>
    </g>
   </g>
   <g id="text_27">
    <!-- $\mathdefault{73}$ -->
    <g transform="translate(869.904 625.39125) scale(0.12 -0.12)">
     <defs>
      <path id="DejaVuSans-37" d="M 525 4666 
L 3525 4666 
L 3525 4397 
L 1831 0 
L 1172 0 
L 2766 4134 
L 525 4134 
L 525 4666 
z
" transform="scale(0.015625)"/>
      <path id="DejaVuSans-33" d="M 2597 2516 
Q 3050 2419 3304 2112 
Q 3559 1806 3559 1356 
Q 3559 666 3084 287 
Q 2609 -91 1734 -91 
Q 1441 -91 1130 -33 
Q 819 25 488 141 
L 488 750 
Q 750 597 1062 519 
Q 1375 441 1716 441 
Q 2309 441 2620 675 
Q 2931 909 2931 1356 
Q 2931 1769 2642 2001 
Q 2353 2234 1838 2234 
L 1294 2234 
L 1294 2753 
L 1863 2753 
Q 2328 2753 2575 2939 
Q 2822 3125 2822 3475 
Q 2822 3834 2567 4026 
Q 2313 4219 1838 4219 
Q 1578 4219 1281 4162 
Q 984 4106 628 3988 
L 628 4550 
Q 988 4650 1302 4700 
Q 1616 4750 1894 4750 
Q 2613 4750 3031 4423 
Q 3450 4097 3450 3541 
Q 3450 3153 3228 2886 
Q 3006 2619 2597 2516 
z
" transform="scale(0.015625)"/>
     </defs>
     <use xlink:href="#DejaVuSans-37" transform="translate(0 0.78125)"/>
     <use xlink:href="#DejaVuSans-33" transform="translate(63.623047 0.78125)"/>
    </g>
   </g>
  </g>
  <g id="text_28">
   <!-- DFF under BBI sweep analysis (Sweep = 83E-9) -->
   <g transform="translate(313.34625 25.1175) scale(0.16 -0.16)">
    <defs>
     <path id="DejaVuSans-75" d="M 544 1381 
L 544 3500 
L 1119 3500 
L 1119 1403 
Q 1119 906 1312 657 
Q 1506 409 1894 409 
Q 2359 409 2629 706 
Q 2900 1003 2900 1516 
L 2900 3500 
L 3475 3500 
L 3475 0 
L 2900 0 
L 2900 538 
Q 2691 219 2414 64 
Q 2138 -91 1772 -91 
Q 1169 -91 856 284 
Q 544 659 544 1381 
z
M 1991 3584 
L 1991 3584 
z
" transform="scale(0.015625)"/>
     <path id="DejaVuSans-64" d="M 2906 2969 
L 2906 4863 
L 3481 4863 
L 3481 0 
L 2906 0 
L 2906 525 
Q 2725 213 2448 61 
Q 2172 -91 1784 -91 
Q 1150 -91 751 415 
Q 353 922 353 1747 
Q 353 2572 751 3078 
Q 1150 3584 1784 3584 
Q 2172 3584 2448 3432 
Q 2725 3281 2906 2969 
z
M 947 1747 
Q 947 1113 1208 752 
Q 1469 391 1925 391 
Q 2381 391 2643 752 
Q 2906 1113 2906 1747 
Q 2906 2381 2643 2742 
Q 2381 3103 1925 3103 
Q 1469 3103 1208 2742 
Q 947 2381 947 1747 
z
" transform="scale(0.015625)"/>
     <path id="DejaVuSans-72" d="M 2631 2963 
Q 2534 3019 2420 3045 
Q 2306 3072 2169 3072 
Q 1681 3072 1420 2755 
Q 1159 2438 1159 1844 
L 1159 0 
L 581 0 
L 581 3500 
L 1159 3500 
L 1159 2956 
Q 1341 3275 1631 3429 
Q 1922 3584 2338 3584 
Q 2397 3584 2469 3576 
Q 2541 3569 2628 3553 
L 2631 2963 
z
" transform="scale(0.015625)"/>
     <path id="DejaVuSans-61" d="M 2194 1759 
Q 1497 1759 1228 1600 
Q 959 1441 959 1056 
Q 959 750 1161 570 
Q 1363 391 1709 391 
Q 2188 391 2477 730 
Q 2766 1069 2766 1631 
L 2766 1759 
L 2194 1759 
z
M 3341 1997 
L 3341 0 
L 2766 0 
L 2766 531 
Q 2569 213 2275 61 
Q 1981 -91 1556 -91 
Q 1019 -91 701 211 
Q 384 513 384 1019 
Q 384 1609 779 1909 
Q 1175 2209 1959 2209 
L 2766 2209 
L 2766 2266 
Q 2766 2663 2505 2880 
Q 2244 3097 1772 3097 
Q 1472 3097 1187 3025 
Q 903 2953 641 2809 
L 641 3341 
Q 956 3463 1253 3523 
Q 1550 3584 1831 3584 
Q 2591 3584 2966 3190 
Q 3341 2797 3341 1997 
z
" transform="scale(0.015625)"/>
     <path id="DejaVuSans-6c" d="M 603 4863 
L 1178 4863 
L 1178 0 
L 603 0 
L 603 4863 
z
" transform="scale(0.015625)"/>
     <path id="DejaVuSans-79" d="M 2059 -325 
Q 1816 -950 1584 -1140 
Q 1353 -1331 966 -1331 
L 506 -1331 
L 506 -850 
L 844 -850 
Q 1081 -850 1212 -737 
Q 1344 -625 1503 -206 
L 1606 56 
L 191 3500 
L 800 3500 
L 1894 763 
L 2988 3500 
L 3597 3500 
L 2059 -325 
z
" transform="scale(0.015625)"/>
     <path id="DejaVuSans-28" d="M 1984 4856 
Q 1566 4138 1362 3434 
Q 1159 2731 1159 2009 
Q 1159 1288 1364 580 
Q 1569 -128 1984 -844 
L 1484 -844 
Q 1016 -109 783 600 
Q 550 1309 550 2009 
Q 550 2706 781 3412 
Q 1013 4119 1484 4856 
L 1984 4856 
z
" transform="scale(0.015625)"/>
     <path id="DejaVuSans-3d" d="M 678 2906 
L 4684 2906 
L 4684 2381 
L 678 2381 
L 678 2906 
z
M 678 1631 
L 4684 1631 
L 4684 1100 
L 678 1100 
L 678 1631 
z
" transform="scale(0.015625)"/>
     <path id="DejaVuSans-38" d="M 2034 2216 
Q 1584 2216 1326 1975 
Q 1069 1734 1069 1313 
Q 1069 891 1326 650 
Q 1584 409 2034 409 
Q 2484 409 2743 651 
Q 3003 894 3003 1313 
Q 3003 1734 2745 1975 
Q 2488 2216 2034 2216 
z
M 1403 2484 
Q 997 2584 770 2862 
Q 544 3141 544 3541 
Q 544 4100 942 4425 
Q 1341 4750 2034 4750 
Q 2731 4750 3128 4425 
Q 3525 4100 3525 3541 
Q 3525 3141 3298 2862 
Q 3072 2584 2669 2484 
Q 3125 2378 3379 2068 
Q 3634 1759 3634 1313 
Q 3634 634 3220 271 
Q 2806 -91 2034 -91 
Q 1263 -91 848 271 
Q 434 634 434 1313 
Q 434 1759 690 2068 
Q 947 2378 1403 2484 
z
M 1172 3481 
Q 1172 3119 1398 2916 
Q 1625 2713 2034 2713 
Q 2441 2713 2670 2916 
Q 2900 3119 2900 3481 
Q 2900 3844 2670 4047 
Q 2441 4250 2034 4250 
Q 1625 4250 1398 4047 
Q 1172 3844 1172 3481 
z
" transform="scale(0.015625)"/>
     <path id="DejaVuSans-2d" d="M 313 2009 
L 1997 2009 
L 1997 1497 
L 313 1497 
L 313 2009 
z
" transform="scale(0.015625)"/>
     <path id="DejaVuSans-39" d="M 703 97 
L 703 672 
Q 941 559 1184 500 
Q 1428 441 1663 441 
Q 2288 441 2617 861 
Q 2947 1281 2994 2138 
Q 2813 1869 2534 1725 
Q 2256 1581 1919 1581 
Q 1219 1581 811 2004 
Q 403 2428 403 3163 
Q 403 3881 828 4315 
Q 1253 4750 1959 4750 
Q 2769 4750 3195 4129 
Q 3622 3509 3622 2328 
Q 3622 1225 3098 567 
Q 2575 -91 1691 -91 
Q 1453 -91 1209 -44 
Q 966 3 703 97 
z
M 1959 2075 
Q 2384 2075 2632 2365 
Q 2881 2656 2881 3163 
Q 2881 3666 2632 3958 
Q 2384 4250 1959 4250 
Q 1534 4250 1286 3958 
Q 1038 3666 1038 3163 
Q 1038 2656 1286 2365 
Q 1534 2075 1959 2075 
z
" transform="scale(0.015625)"/>
     <path id="DejaVuSans-29" d="M 513 4856 
L 1013 4856 
Q 1481 4119 1714 3412 
Q 1947 2706 1947 2009 
Q 1947 1309 1714 600 
Q 1481 -109 1013 -844 
L 513 -844 
Q 928 -128 1133 580 
Q 1338 1288 1338 2009 
Q 1338 2731 1133 3434 
Q 928 4138 513 4856 
z
" transform="scale(0.015625)"/>
    </defs>
    <use xlink:href="#DejaVuSans-44"/>
    <use xlink:href="#DejaVuSans-46" x="77.001953"/>
    <use xlink:href="#DejaVuSans-46" x="134.521484"/>
    <use xlink:href="#DejaVuSans-20" x="192.041016"/>
    <use xlink:href="#DejaVuSans-75" x="223.828125"/>
    <use xlink:href="#DejaVuSans-6e" x="287.207031"/>
    <use xlink:href="#DejaVuSans-64" x="350.585938"/>
    <use xlink:href="#DejaVuSans-65" x="414.0625"/>
    <use xlink:href="#DejaVuSans-72" x="475.585938"/>
    <use xlink:href="#DejaVuSans-20" x="516.699219"/>
    <use xlink:href="#DejaVuSans-42" x="548.486328"/>
    <use xlink:href="#DejaVuSans-42" x="617.089844"/>
    <use xlink:href="#DejaVuSans-49" x="685.693359"/>
    <use xlink:href="#DejaVuSans-20" x="715.185547"/>
    <use xlink:href="#DejaVuSans-73" x="746.972656"/>
    <use xlink:href="#DejaVuSans-77" x="799.072266"/>
    <use xlink:href="#DejaVuSans-65" x="880.859375"/>
    <use xlink:href="#DejaVuSans-65" x="942.382812"/>
    <use xlink:href="#DejaVuSans-70" x="1003.90625"/>
    <use xlink:href="#DejaVuSans-20" x="1067.382812"/>
    <use xlink:href="#DejaVuSans-61" x="1099.169922"/>
    <use xlink:href="#DejaVuSans-6e" x="1160.449219"/>
    <use xlink:href="#DejaVuSans-61" x="1223.828125"/>
    <use xlink:href="#DejaVuSans-6c" x="1285.107422"/>
    <use xlink:href="#DejaVuSans-79" x="1312.890625"/>
    <use xlink:href="#DejaVuSans-73" x="1372.070312"/>
    <use xlink:href="#DejaVuSans-69" x="1424.169922"/>
    <use xlink:href="#DejaVuSans-73" x="1451.953125"/>
    <use xlink:href="#DejaVuSans-20" x="1504.052734"/>
    <use xlink:href="#DejaVuSans-28" x="1535.839844"/>
    <use xlink:href="#DejaVuSans-53" x="1574.853516"/>
    <use xlink:href="#DejaVuSans-77" x="1638.330078"/>
    <use xlink:href="#DejaVuSans-65" x="1720.117188"/>
    <use xlink:href="#DejaVuSans-65" x="1781.640625"/>
    <use xlink:href="#DejaVuSans-70" x="1843.164062"/>
    <use xlink:href="#DejaVuSans-20" x="1906.640625"/>
    <use xlink:href="#DejaVuSans-3d" x="1938.427734"/>
    <use xlink:href="#DejaVuSans-20" x="2022.216797"/>
    <use xlink:href="#DejaVuSans-38" x="2054.003906"/>
    <use xlink:href="#DejaVuSans-33" x="2117.626953"/>
    <use xlink:href="#DejaVuSans-45" x="2181.25"/>
    <use xlink:href="#DejaVuSans-2d" x="2244.433594"/>
    <use xlink:href="#DejaVuSans-39" x="2280.517578"/>
    <use xlink:href="#DejaVuSans-29" x="2344.140625"/>
   </g>
  </g>
 </g>
 <defs>
  <clipPath id="pd9929a1aeb">
   <rect x="100.8" y="38.88" width="887.04" height="92.731034"/>
  </clipPath>
  <clipPath id="pcc9dc8c761">
   <rect x="100.8" y="150.157241" width="887.04" height="92.731034"/>
  </clipPath>
  <clipPath id="p9eb50f11a0">
   <rect x="100.8" y="261.434483" width="887.04" height="92.731034"/>
  </clipPath>
  <clipPath id="pb56f650da9">
   <rect x="100.8" y="372.711724" width="887.04" height="92.731034"/>
  </clipPath>
  <clipPath id="p07ea4b8d43">
   <rect x="100.8" y="483.988966" width="887.04" height="92.731034"/>
  </clipPath>
  <clipPath id="pd18c48351f">
   <rect x="201.6" y="609.12" width="655.2" height="25.92"/>
  </clipPath>
  <clipPath id="p8658688e24">
   <path d="M 201.6 628.56 
L 856.8 628.56 
L 856.8 615.6 
L 201.6 615.6 
z
"/>
  </clipPath>
 </defs>
</svg>
